<svg xmlns="http://www.w3.org/2000/svg" xml:space="preserve" style="enable-background:new 0 0 512 512" viewBox="0 0 512 512"><path d="M258.7 7.52v496.96c136-1.44 245.8-112.14 245.8-248.48S394.7 8.96 258.7 7.52z" style="fill:#ffb751"/><path d="M258.7 7.52c-.9-.01-1.8-.02-2.7-.02C118.76 7.5 7.5 118.76 7.5 256S118.76 504.5 256 504.5c.9 0 1.8-.01 2.7-.02C372.6 502.76 464.5 392.17 464.5 256S372.6 9.24 258.7 7.52z" style="fill:#ffd764"/><path d="M369.5 226.2h-15l-97.23 124.25h99.89c17.13-21.83 27.34-49.35 27.34-79.25v-30c0-8.25-6.75-15-15-15z" style="fill:#401510"/><path d="M142.5 226.2c-8.25 0-15 6.75-15 15v30c0 29.9 10.21 57.42 27.34 79.25l187.05-16.32c8.03-18.6 12.61-40.07 12.61-62.93v-45h-212z" style="fill:#901c0f"/><path d="m341.89 334.13-84.62 65.56c40.55-.39 76.6-19.56 99.89-49.24-4.61-5.87-9.72-11.34-15.27-16.32z" style="fill:#e0230d"/><path d="M341.89 334.13c-16.68 38.69-48.28 64.96-84.62 65.56-.42.01-.85.01-1.27.01-41.07 0-77.63-19.26-101.16-49.25 23.53-29.98 60.09-49.25 101.16-49.25 33.02 0 63.13 12.46 85.89 32.93z" style="fill:#ff5440"/><path d="m324.5 226.2-15 45h30c8.25 0 15-6.75 15-15v-30h-30z" style="fill:#ffe7a3"/><path d="M324.5 226.2v30c0 8.25-6.75 15-15 15h-137c-8.25 0-15-6.75-15-15v-30h167z" style="fill:#fff"/><circle cx="72.5" cy="250.8" r="25" style="fill:#ff804c"/><circle cx="439.5" cy="251.2" r="25" style="fill:#ff804c"/><path d="M471.635 245.944c-.614-4.097-4.442-6.917-8.528-6.306a7.5 7.5 0 0 0-6.306 8.528c.127.849.194 1.693.199 2.513a17.389 17.389 0 0 1-5.041 12.409 17.381 17.381 0 0 1-12.34 5.209h-.12c-9.594 0-17.433-7.773-17.498-17.381-.065-9.649 7.732-17.553 17.381-17.618.799-.018 1.622.048 2.454.159a7.494 7.494 0 0 0 8.423-6.446 7.5 7.5 0 0 0-6.446-8.423 32.754 32.754 0 0 0-4.531-.29c-17.92.121-32.4 14.799-32.28 32.719.121 17.846 14.678 32.28 32.496 32.28h.224c8.681-.059 16.819-3.495 22.916-9.674 6.097-6.18 9.422-14.364 9.363-23.042a33.045 33.045 0 0 0-.366-4.637z"/><path d="M437.02 74.98C388.668 26.628 324.38 0 256 0S123.333 26.628 74.98 74.98 0 187.62 0 256s26.628 132.667 74.98 181.02S187.62 512 256 512s132.668-26.628 181.02-74.98S512 324.38 512 256s-26.629-132.667-74.98-181.02zM256 497C123.112 497 15 388.888 15 256S123.112 15 256 15s241 108.112 241 241-108.112 241-241 241z"/><path d="M369.5 218.703h-227c-12.407 0-22.5 10.093-22.5 22.5v30c0 31.247 10.599 60.061 28.382 83.051.34.578.755 1.119 1.257 1.601 24.939 31.27 63.347 51.348 106.361 51.348 43.01 0 81.415-20.074 106.354-51.339a7.413 7.413 0 0 0 1.277-1.627C381.406 331.249 392 302.442 392 271.203v-30c0-12.407-10.094-22.5-22.5-22.5zm-204.5 15h182v22.5c0 4.136-3.364 7.5-7.5 7.5h-167c-4.136 0-7.5-3.364-7.5-7.5v-22.5zm91 158.5c-36.454 0-69.194-16.205-91.396-41.788 23.035-26.58 56.007-41.712 91.396-41.712s68.362 15.131 91.397 41.711c-22.203 25.584-54.943 41.789-91.397 41.789zm121-121c0 24.787-7.497 47.854-20.335 67.061-25.773-28.432-61.929-44.561-100.665-44.561s-74.892 16.13-100.665 44.561C142.497 319.056 135 295.99 135 271.203v-30c0-4.136 3.364-7.5 7.5-7.5h7.5v22.5c0 12.407 10.093 22.5 22.5 22.5h167c12.406 0 22.5-10.093 22.5-22.5v-22.5h7.5c4.136 0 7.5 3.364 7.5 7.5v30zM127.5 188.703a7.5 7.5 0 0 0 7.5-7.5c0-12.407 10.093-22.5 22.5-22.5s22.5 10.093 22.5 22.5a7.5 7.5 0 0 0 15 0c0-20.678-16.822-37.5-37.5-37.5s-37.5 16.822-37.5 37.5a7.5 7.5 0 0 0 7.5 7.5zM354.5 143.703c-20.678 0-37.5 16.822-37.5 37.5 0 4.142 3.357 7.5 7.5 7.5s7.5-3.358 7.5-7.5c0-12.407 10.094-22.5 22.5-22.5s22.5 10.093 22.5 22.5c0 4.142 3.357 7.5 7.5 7.5s7.5-3.358 7.5-7.5c0-20.678-16.822-37.5-37.5-37.5zM263.5 422.203h-15a7.5 7.5 0 0 0 0 15h15c4.143 0 7.5-3.358 7.5-7.5s-3.357-7.5-7.5-7.5zM96.101 239.639a7.5 7.5 0 0 0-6.302 8.531c.127.846.194 1.689.199 2.509.032 4.674-1.759 9.081-5.042 12.409s-7.666 5.178-12.34 5.209c-9.631.03-17.552-7.732-17.617-17.381s7.732-17.553 17.38-17.618c.808-.002 1.622.048 2.454.159a7.5 7.5 0 1 0 1.977-14.869 34.117 34.117 0 0 0-4.531-.29c-17.92.121-32.401 14.799-32.28 32.719.059 8.681 3.495 16.819 9.674 22.916 6.126 6.044 14.222 9.364 22.819 9.364h.226c8.681-.059 16.819-3.495 22.916-9.674s9.422-14.364 9.364-23.042a32.789 32.789 0 0 0-.366-4.64 7.494 7.494 0 0 0-8.531-6.302z"/></svg>