<svg xmlns="http://www.w3.org/2000/svg" viewBox="0 0 512 512">
  <!-- Main seaweed elements -->
  <path d="M318.619 488h-64.519c21.166-12.812 13.817-26.424 35.96-39.208 22.516-13 30.516.856 53.033-12.144s14.516-26.856 37.032-39.856 30.515.858 53.031-12.142c8.247-4.761 12.4-9.637 15.458-14.544a21.327 21.327 0 1 1 34.168 25.309c-9.046 10.254-8.27 20.784-25.626 30.805-22.516 13-30.516-.858-53.031 12.142s-14.516 26.856-37.032 39.856c-20.928 12.082-29.323.982-48.474 9.782z" fill="#2d9547"/>
  <path d="M193.381 488h64.519c-21.166-12.812-13.817-26.424-35.96-39.208-22.516-13-30.516.856-53.033-12.144s-14.516-26.856-37.032-39.856-30.515.858-53.031-12.142c-8.247-4.761-12.4-9.637-15.458-14.544a21.327 21.327 0 1 0-34.168 25.309c9.046 10.254 8.27 20.784 25.626 30.805 22.516 13 30.516-.858 53.031 12.142s14.516 26.856 37.032 39.856c20.928 12.082 29.323.982 48.474 9.782z" fill="#2d9547"/>
  
  <!-- Center seaweed element -->
  <path d="M274.713 488c4.565-11.779 13.287-16.8 13.287-36 0-26-16-26-16-52s16-26 16-52-16-26-16-52 16-26 16-52-16-26-16-52 16-26 16-52c0-20.043-9.507-24.636-13.864-37.6a21.4 21.4 0 0 0-20.355-14.4 21.241 21.241 0 0 0-18.649 31.339c2.721 5.103 4.868 11.139 4.868 20.661 0 26-16 26-16 52s16 26 16 52-16 26-16 52 16 26 16 52-16 26-16 52 16 26 16 52c0 19.195-8.722 24.218-13.287 36z" fill="#85bb40"/>
  
  <!-- Decorative circles -->
  <g fill="#56c3c1">
    <circle cx="56" cy="176" r="16"/>
    <circle cx="128" cy="40" r="16"/>
    <circle cx="328" cy="80" r="16"/>
    <circle cx="448" cy="184" r="16"/>
    <circle cx="472" cy="48" r="16"/>
  </g>
</svg>