<svg xmlns="http://www.w3.org/2000/svg" xml:space="preserve" style="enable-background:new 0 0 512 512" viewBox="0 0 512 512"><path d="M253.638 493.639C3.966 418.621 48.649 120.89 48.649 120.89a1858.48 1858.48 0 0 1 33.044-17.02h.012c90.116-45.304 171.934-77.926 171.934-77.926s102.88 41.026 204.988 94.946c0 0 44.683 297.731-204.989 372.749z" style="fill:#8ceaea"/><path d="M253.638 493.639C3.966 418.621 48.649 120.89 48.649 120.89a1858.48 1858.48 0 0 1 33.044-17.02h.012c-.001 0-57.425 277.042 171.933 389.769z" style="fill:#9dfcff"/><path d="M253.638 493.639V25.944S356.519 66.97 458.627 120.89c0 0 44.683 297.731-204.989 372.749z" style="fill:#82d8d5"/><path d="M253.638 445.58C55.272 385.975 90.777 149.432 90.777 149.432c8.92-4.712 17.852-9.295 26.667-13.726h.012c71.444-35.88 136.182-61.703 136.182-61.703s81.735 32.598 162.861 75.429c0 0 35.505 236.543-162.861 296.148z" style="fill:#ffda2d"/><path d="M253.638 445.58C55.272 385.975 90.777 149.432 90.777 149.432c8.92-4.712 17.852-9.295 26.667-13.726h.012c-.001 0-35.541 211.412 136.182 309.874z" style="fill:#ffe571"/><path d="M253.638 445.58V74.003s81.735 32.598 162.861 75.429c0 0 35.505 236.543-162.861 296.148z" style="fill:#ffce00"/><path d="m346.134 227.451-92.496 92.508-9.471 9.471c-4.947 4.947-11.651 7.725-18.649 7.725s-13.703-2.778-18.649-7.725l-45.726-45.726c-10.303-10.303-10.303-27.007 0-37.298 10.303-10.303 26.995-10.303 37.298 0l27.077 27.077 28.12-28.12 55.198-55.209c10.303-10.292 26.995-10.292 37.298 0 10.303 10.303 10.303 27.006 0 37.297z" style="fill:#6b7f9e"/><path d="m346.134 227.451-92.496 92.508v-74.597l55.198-55.209c10.303-10.292 26.995-10.292 37.298 0 10.303 10.304 10.303 27.007 0 37.298z" style="fill:#586c89"/><path d="M460.991 201.463c-4.12-.287-7.724 2.805-8.025 6.936-7.361 100.976-47.965 230.817-199.328 277.402-99.422-30.596-162.907-100.554-188.723-207.972-17.084-71.083-11.181-136.178-9.323-152.121 38.672-20.31 81.65-41.032 127.809-61.626a7.5 7.5 0 0 0-6.111-13.699c-47.835 21.342-92.295 42.832-132.146 63.875a7.495 7.495 0 0 0-3.915 5.519c-.465 3.099-11.154 76.842 8.992 161.1 11.895 49.75 32.153 92.671 60.212 127.572 35.164 43.739 82.619 74.818 141.047 92.374a7.482 7.482 0 0 0 4.316 0c73.699-22.145 129.493-65.465 165.832-128.757 26.182-45.601 41.759-100.299 46.299-162.577a7.501 7.501 0 0 0-6.936-8.026zM462.133 114.258C360.836 60.77 257.448 19.39 256.416 18.978a7.505 7.505 0 0 0-5.557 0c-.176.07-17.892 7.146-45.366 19.019a7.5 7.5 0 0 0 5.951 13.769c20.994-9.072 36.222-15.313 42.192-17.733 16.885 6.854 107.819 44.298 198.053 91.679.923 7.839 2.838 27.543 2.507 53.814a7.5 7.5 0 0 0 7.501 7.595 7.5 7.5 0 0 0 7.497-7.405c.449-35.529-2.999-58.958-3.146-59.938a7.497 7.497 0 0 0-3.915-5.52z"/><path d="M108.137 309.494a7.5 7.5 0 0 0-4.121 9.773c27.431 67.423 77.045 112.337 147.464 133.495a7.482 7.482 0 0 0 4.316 0c46.725-14.039 84.682-38.902 112.818-73.9 22.437-27.907 38.632-62.212 48.136-101.961 16.074-67.229 7.54-126.105 7.169-128.579a7.5 7.5 0 0 0-3.915-5.519c-80.55-42.532-162.767-75.439-163.588-75.768a7.505 7.505 0 0 0-5.557 0c-.821.328-83.037 33.235-163.588 75.768a7.495 7.495 0 0 0-3.915 5.519c-.431 2.868-10.289 71.077 11.403 144.445a7.5 7.5 0 0 0 14.384-4.254c-17.94-60.675-13.098-119.23-11.413-134.265 70.397-36.91 141.178-66.164 155.906-72.156 14.729 5.992 85.514 35.248 155.91 72.158 1.556 13.774 5.786 64.069-7.387 119.162-20.277 84.804-70.244 140.079-148.523 164.326-64.712-20.054-110.374-61.806-135.728-124.124a7.5 7.5 0 0 0-9.771-4.12z"/><path d="M225.517 344.65c9.049 0 17.556-3.523 23.952-9.921l101.969-101.971c13.205-13.206 13.205-34.696 0-47.905-13.209-13.207-34.697-13.207-47.906 0l-78.015 78.018-21.772-21.772c-13.209-13.207-34.697-13.208-47.906.001-13.206 13.207-13.206 34.697 0 47.905l45.726 45.724c6.395 6.398 14.902 9.921 23.952 9.921zm-59.072-92.944c3.679-3.68 8.513-5.52 13.346-5.52s9.667 1.84 13.347 5.52l27.075 27.075a7.502 7.502 0 0 0 10.607 0l83.318-83.32c7.358-7.361 19.333-7.359 26.691-.001 7.358 7.359 7.358 19.334 0 26.692L238.861 324.123c-3.563 3.564-8.303 5.527-13.345 5.527s-9.782-1.963-13.346-5.528l-45.726-45.724c-7.357-7.359-7.357-19.334.001-26.692zM49.531 452.118h-7.979c-4.143 0-7.5 3.357-7.5 7.5s3.357 7.5 7.5 7.5h7.979c4.143 0 7.5-3.357 7.5-7.5s-3.357-7.5-7.5-7.5zM49.531 421.084h-7.979c-4.143 0-7.5 3.357-7.5 7.5s3.357 7.5 7.5 7.5h7.979c4.143 0 7.5-3.357 7.5-7.5s-3.357-7.5-7.5-7.5zM49.531 390.05h-7.979c-4.143 0-7.5 3.357-7.5 7.5s3.357 7.5 7.5 7.5h7.979c4.143 0 7.5-3.357 7.5-7.5s-3.357-7.5-7.5-7.5zM504.5 67.737h-6.795v-6.795c0-4.143-3.357-7.5-7.5-7.5s-7.5 3.357-7.5 7.5v6.795h-6.795c-4.143 0-7.5 3.357-7.5 7.5s3.357 7.5 7.5 7.5h6.795v6.795c0 4.143 3.357 7.5 7.5 7.5s7.5-3.357 7.5-7.5v-6.795h6.795c4.143 0 7.5-3.357 7.5-7.5s-3.357-7.5-7.5-7.5zM36.09 90.242c4.143 0 7.5-3.357 7.5-7.5s-3.357-7.5-7.5-7.5h-6.795v-6.795c0-4.143-3.357-7.5-7.5-7.5s-7.5 3.357-7.5 7.5v6.795H7.5c-4.143 0-7.5 3.357-7.5 7.5s3.357 7.5 7.5 7.5h6.795v6.795c0 4.143 3.357 7.5 7.5 7.5s7.5-3.357 7.5-7.5v-6.795h6.795zM71.758 40.155h6.795v6.795c0 4.143 3.357 7.5 7.5 7.5s7.5-3.357 7.5-7.5v-6.795h6.794c4.143 0 7.5-3.357 7.5-7.5s-3.357-7.5-7.5-7.5h-6.794V18.36c0-4.143-3.357-7.5-7.5-7.5s-7.5 3.357-7.5 7.5v6.795h-6.795c-4.143 0-7.5 3.357-7.5 7.5s3.357 7.5 7.5 7.5z"/></svg>