<svg xmlns="http://www.w3.org/2000/svg" xml:space="preserve" style="enable-background:new 0 0 512 512" viewBox="0 0 512 512"><path d="M258.7 504.48V7.52C394.7 8.96 504.5 119.66 504.5 256S394.7 503.04 258.7 504.48z" style="fill:#8ca82f"/><path d="M258.7 504.48c-.9.01-1.8.02-2.7.02C118.76 504.5 7.5 393.24 7.5 256S118.76 7.5 256 7.5c.9 0 1.8.01 2.7.02C372.6 9.24 464.5 119.83 464.5 256s-91.9 246.76-205.8 248.48z" style="fill:#a5c244"/><circle cx="131" cy="334.7" r="30" style="fill:#8ca82f"/><circle cx="381" cy="334.7" r="30" style="fill:#8ca82f"/><path d="M354.5 143.7v105c28.99 0 52.5-23.5 52.5-52.5 0-28.99-23.51-52.5-52.5-52.5z" style="fill:#def1ff"/><path d="M354.5 143.7c12.43 0 22.5 23.51 22.5 52.5 0 29-10.07 52.5-22.5 52.5-28.99 0-52.5-23.5-52.5-52.5 0-28.99 23.51-52.5 52.5-52.5z" style="fill:#fff"/><path d="M354.503 218.703c12.406 0 22.5-10.094 22.5-22.5s-10.094-22.5-22.5-22.5-22.5 10.094-22.5 22.5 10.094 22.5 22.5 22.5z" style="fill:#0e2739"/><path d="M157.5 143.7v105c28.99 0 52.5-23.5 52.5-52.5 0-28.99-23.51-52.5-52.5-52.5z" style="fill:#def1ff"/><path d="M157.5 143.7c12.43 0 22.5 23.51 22.5 52.5 0 29-10.07 52.5-22.5 52.5-28.99 0-52.5-23.5-52.5-52.5 0-28.99 23.51-52.5 52.5-52.5z" style="fill:#fff"/><path d="M157.503 218.703c12.406 0 22.5-10.094 22.5-22.5s-10.094-22.5-22.5-22.5-22.5 10.094-22.5 22.5 10.094 22.5 22.5 22.5z" style="fill:#0e2739"/><path d="M437.02 74.98C388.668 26.629 324.38 0 256 0S123.332 26.629 74.98 74.98 0 187.62 0 256s26.629 132.668 74.98 181.02S187.62 512 256 512s132.668-26.629 181.02-74.98S512 324.38 512 256s-26.629-132.668-74.98-181.02zM256 497C123.112 497 15 388.888 15 256S123.112 15 256 15s241 108.112 241 241-108.112 241-241 241z"/><path d="M263.5 357.203h-15c-4.143 0-7.5 3.357-7.5 7.5s3.357 7.5 7.5 7.5h15c4.143 0 7.5-3.357 7.5-7.5s-3.357-7.5-7.5-7.5z"/><path d="M350.381 292.07a7.499 7.499 0 0 0 1.706-10.468c-2.418-3.364-7.107-4.124-10.468-1.706-14.547 10.469-24.243 26.276-27.177 43.661-18.518-7.559-38.127-11.399-58.446-11.399-20.316 0-39.922 3.839-58.438 11.396-2.934-17.384-12.63-33.189-27.177-43.658a7.498 7.498 0 0 0-10.468 1.706 7.5 7.5 0 0 0 1.706 10.468c13.701 9.861 21.881 25.799 21.881 42.633s-8.18 32.771-21.881 42.632a7.499 7.499 0 0 0-1.706 10.468 7.487 7.487 0 0 0 6.093 3.12c1.518 0 3.05-.46 4.375-1.414 16.288-11.723 26.497-30.135 27.937-49.965 18.141-8.218 37.521-12.386 57.679-12.386 20.16 0 39.544 4.169 57.687 12.389 1.44 19.828 11.648 38.24 27.936 49.961a7.458 7.458 0 0 0 4.375 1.414 7.5 7.5 0 0 0 4.387-13.588c-13.701-9.861-21.881-25.798-21.881-42.632s8.179-32.77 21.88-42.632zM354.5 136.203h-45c-12.406 0-22.5-10.094-22.5-22.5 0-4.143-3.357-7.5-7.5-7.5s-7.5 3.357-7.5 7.5c0 20.678 16.822 37.5 37.5 37.5h5.377c-12.481 11.003-20.377 27.092-20.377 45 0 33.084 26.916 60 60 60s60-26.916 60-60-26.916-60-60-60zm0 105c-24.813 0-45-20.187-45-45s20.187-45 45-45 45 20.187 45 45-20.187 45-45 45z"/><path d="M354.5 166.2c-16.542 0-30 13.458-30 30a30.04 30.04 0 0 0 9.994 22.337 7.5 7.5 0 1 0 10.012-11.17A15.022 15.022 0 0 1 339.5 196.2c0-8.271 6.729-15 15-15s15 6.729 15 15c0 4.246-1.824 8.315-5.006 11.167a7.5 7.5 0 0 0 10.012 11.17A30.037 30.037 0 0 0 384.5 196.2c0-16.542-13.458-30-30-30zM217.5 196.203c0-17.908-7.896-33.997-20.377-45h5.377c20.678 0 37.5-16.822 37.5-37.5 0-4.143-3.357-7.5-7.5-7.5s-7.5 3.357-7.5 7.5c0 12.406-10.094 22.5-22.5 22.5h-45c-33.084 0-60 26.916-60 60s26.916 60 60 60 60-26.916 60-60zm-60 45c-24.813 0-45-20.187-45-45s20.187-45 45-45 45 20.187 45 45-20.187 45-45 45z"/><path d="M157.497 166.203c-16.542 0-30 13.458-30 30 0 8.502 3.643 16.644 9.994 22.337a7.5 7.5 0 0 0 10.012-11.17 15.023 15.023 0 0 1-5.006-11.167c0-8.271 6.729-15 15-15s15 6.729 15 15c0 4.245-1.824 8.315-5.006 11.167a7.5 7.5 0 0 0 5.009 13.085 7.474 7.474 0 0 0 5.003-1.915c6.352-5.693 9.994-13.835 9.994-22.337 0-16.542-13.458-30-30-30z"/></svg>