<svg xmlns="http://www.w3.org/2000/svg" width="512pt" height="512pt" viewBox="0 -69 512.001 512"><path fill="#dfca00" d="M134.438 230.691h167.28v135.57h-167.28zm0 0"/><path fill="#eedb00" d="M449.582 249.277H340.895l-36.946 116.985h176.465c16.262 0 27.84-15.801 22.941-31.305L484.34 274.75c-4.79-15.164-18.856-25.473-34.758-25.473m0 0"/><path fill="#dfca00" d="M303.95 366.262H463.62c-12.246-14.446-24.879-35.516-30.422-64.446-4.586-23.957-14.828-40.812-25.886-52.539h-66.418zm0 0"/><path fill="#f9ee80" d="M144.395 249.277H62.418c-15.902 0-29.969 10.309-34.758 25.473L8.648 334.957c-4.898 15.504 6.68 31.305 22.942 31.305h176.465l-28.903-91.512c-4.789-15.164-18.855-25.473-34.757-25.473m0 0"/><path fill="#f9ee80" d="M353.688 249.277h-81.973c-15.903 0-29.969 10.309-34.758 25.473l-28.902 91.512H384.52c16.261 0 27.84-15.801 22.94-31.305l-19.015-60.207c-4.789-15.164-18.855-25.473-34.757-25.473m0 0"/><path fill="#eedb00" d="M344.938 132.297H236.246l-36.945 116.98h176.465c16.261 0 27.84-15.797 22.941-31.304l-19.016-60.207c-4.789-15.164-18.855-25.47-34.753-25.47m0 0"/><path fill="#dfca00" d="M199.3 249.277h159.673c-12.243-14.441-24.88-35.515-30.418-64.445-4.59-23.953-14.832-40.809-25.887-52.539H236.25zm0 0"/><path fill="#f9ee80" d="M249.043 132.297h-81.977c-15.902 0-29.968 10.308-34.757 25.469l-19.016 60.207c-4.895 15.507 6.68 31.304 22.945 31.304h143.633c16.262 0 27.84-15.797 22.941-31.304l-19.015-60.207c-4.79-15.164-18.856-25.47-34.754-25.47m0 0"/><path fill="#b0f0ef" d="m97.434 47.613 5.078 9.282a55.17 55.17 0 0 0 21.933 21.933l9.282 5.078c9.5 5.192 9.5 18.836 0 24.031l-9.282 5.075a55.2 55.2 0 0 0-21.933 21.937l-5.078 9.281c-5.196 9.497-18.84 9.497-24.032 0l-5.078-9.28a55.2 55.2 0 0 0-21.933-21.938l-9.282-5.075c-9.5-5.195-9.5-18.84 0-24.03l9.282-5.079a55.17 55.17 0 0 0 21.933-21.933l5.078-9.282c5.196-9.5 18.836-9.5 24.032 0M347.543 11.79l3.059 5.593a33.24 33.24 0 0 0 13.214 13.215l5.594 3.058c5.723 3.13 5.723 11.348 0 14.48l-5.594 3.06a33.24 33.24 0 0 0-13.214 13.214L347.543 70c-3.129 5.723-11.348 5.723-14.48 0l-3.06-5.59a33.24 33.24 0 0 0-13.214-13.215l-5.59-3.058c-5.722-3.133-5.722-11.352 0-14.48l5.59-3.06a33.24 33.24 0 0 0 13.215-13.214l3.059-5.594c3.132-5.723 11.351-5.723 14.48 0m0 0"/><path d="M262.957 204.785v-12.453a7.5 7.5 0 1 0-15 0v12.453a7.5 7.5 0 1 0 15 0M168.148 204.785v-12.453a7.5 7.5 0 1 0-15 0v12.453a7.5 7.5 0 1 0 15 0M208.055 215.055a21.07 21.07 0 0 0 17.656-9.528 7.5 7.5 0 0 0-2.149-10.386c-1.269-.832-6.882-2.993-10.386 2.152a6.18 6.18 0 0 1-5.121 2.762c-.996 0-3.485-.27-5.125-2.762a7.5 7.5 0 1 0-12.535 8.234 21.07 21.07 0 0 0 17.66 9.528M33.508 114.516l9.281 5.078a47.6 47.6 0 0 1 18.957 18.953l5.074 9.281c3.72 6.8 10.848 11.024 18.598 11.024s14.875-4.223 18.594-11.024l5.078-9.281a47.6 47.6 0 0 1 18.953-18.953l9.281-5.078a21.18 21.18 0 0 0 11.024-18.594 21.18 21.18 0 0 0-11.024-18.598l-9.281-5.074a47.6 47.6 0 0 1-18.953-18.957l-5.078-9.281c-3.719-6.801-10.844-11.024-18.594-11.024S70.539 37.211 66.82 44.012l-5.074 9.281a47.63 47.63 0 0 1-18.953 18.953l-9.285 5.078a21.18 21.18 0 0 0-11.024 18.594 21.18 21.18 0 0 0 11.024 18.598m7.199-24.032 9.281-5.078a62.54 62.54 0 0 0 24.914-24.914l5.078-9.281c1.59-2.91 4.332-3.223 5.438-3.223 1.102 0 3.844.313 5.434 3.223l5.078 9.281a62.56 62.56 0 0 0 24.914 24.914l9.281 5.078c2.91 1.59 3.223 4.332 3.223 5.438s-.313 3.844-3.223 5.433l-9.281 5.079a62.54 62.54 0 0 0-24.914 24.914l-5.078 9.28c-1.59 2.911-4.329 3.224-5.434 3.224s-3.848-.313-5.438-3.223l-5.078-9.281a62.54 62.54 0 0 0-24.914-24.914l-9.281-5.079c-2.91-1.59-3.223-4.332-3.223-5.437s.313-3.844 3.223-5.434M307.602 54.715l5.59 3.055a25.7 25.7 0 0 1 10.234 10.234l3.058 5.594a15.75 15.75 0 0 0 13.82 8.191c5.759 0 11.055-3.14 13.817-8.191l3.059-5.594a25.7 25.7 0 0 1 10.234-10.23l5.59-3.06c5.055-2.765 8.195-8.058 8.195-13.82s-3.136-11.054-8.195-13.816l-5.59-3.058a25.7 25.7 0 0 1-10.234-10.235l-3.059-5.59A15.74 15.74 0 0 0 340.305 0a15.74 15.74 0 0 0-13.82 8.195l-3.06 5.59a25.67 25.67 0 0 1-10.234 10.23l-5.593 3.06a15.751 15.751 0 0 0 .004 27.64m12.789-17.54a40.66 40.66 0 0 0 16.195-16.195s3.273-5.984 3.719-5.984 3.718 5.984 3.718 5.984a40.65 40.65 0 0 0 16.192 16.196s5.984 3.273 5.984 3.719-5.98 3.718-5.98 3.718a40.64 40.64 0 0 0-16.196 16.196s-3.273 5.984-3.718 5.984c-.446 0-3.72-5.984-3.72-5.984a40.66 40.66 0 0 0-16.194-16.196s-5.985-3.273-5.985-3.718c0-.446 5.985-3.72 5.985-3.72m0 0"/><path d="m510.508 332.695-19.016-60.203c-5.8-18.37-22.644-30.715-41.91-30.715h-46.96c4.847-7.816 6.042-17.175 3.237-26.062l-19.015-60.207c-5.801-18.371-22.645-30.715-41.906-30.715H167.066c-14.062 0-27.379 6.805-35.62 18.203a7.5 7.5 0 0 0 1.683 10.469 7.5 7.5 0 0 0 10.473-1.68 29.04 29.04 0 0 1 23.464-11.992h81.977c12.691 0 23.781 8.129 27.605 20.23l19.016 60.207c1.606 5.086.719 10.473-2.434 14.778-3.156 4.3-8.023 6.77-13.359 6.77H136.234c-5.332 0-10.203-2.47-13.355-6.77-3.152-4.305-4.04-9.692-2.434-14.778l13.36-42.296a7.5 7.5 0 0 0-4.895-9.41 7.5 7.5 0 0 0-9.41 4.894l-13.36 42.297c-2.804 8.887-1.605 18.246 3.239 26.062H62.418c-19.266 0-36.105 12.344-41.91 30.715L1.496 332.695c-3.062 9.696-1.375 19.961 4.637 28.16 6.008 8.2 15.289 12.903 25.453 12.903H480.41c10.168 0 19.445-4.703 25.457-12.903s7.703-18.464 4.64-28.16m-200.543-116.98-19.016-60.207a44.05 44.05 0 0 0-8.808-15.715h62.796c12.688 0 23.782 8.133 27.602 20.234l19.016 60.203c1.61 5.09.722 10.473-2.434 14.778-3.152 4.3-8.023 6.77-13.355 6.77h-69.04c4.848-7.817 6.047-17.176 3.239-26.063M31.59 358.762c-5.336 0-10.203-2.469-13.36-6.77-3.152-4.305-4.039-9.691-2.433-14.777l19.015-60.207c3.82-12.102 14.915-20.23 27.606-20.23h81.977c12.687 0 23.78 8.128 27.605 20.23l25.82 81.754zm176.465-17.403L186.3 272.492a44.1 44.1 0 0 0-8.805-15.715h61.117a44.05 44.05 0 0 0-8.808 15.715zm285.715 10.63c-3.153 4.304-8.024 6.773-13.356 6.773h-69.039c4.848-7.817 6.043-17.18 3.238-26.067a7.496 7.496 0 0 0-9.41-4.89 7.5 7.5 0 0 0-4.894 9.41c1.609 5.086.722 10.472-2.434 14.773-3.152 4.305-8.02 6.774-13.355 6.774H218.285l25.824-81.754c3.82-12.102 14.914-20.23 27.606-20.23h81.972c12.692 0 23.786 8.128 27.606 20.23l9.266 29.328a7.496 7.496 0 0 0 9.41 4.89 7.494 7.494 0 0 0 4.89-9.406l-9.261-29.328a44.1 44.1 0 0 0-8.809-15.715h62.793c12.691 0 23.785 8.13 27.605 20.23l19.016 60.208c1.606 5.086.719 10.472-2.433 14.773m0 0"/></svg>