<svg xmlns="http://www.w3.org/2000/svg" width="511pt" height="511pt" viewBox="0 -19 512 511"><path fill="#e7896e" d="M428.879 277.71c34.492 0 63.812-22.136 74.531-52.972 4.414-12.699-5.305-25.91-18.75-25.91H373.098c-13.442 0-23.16 13.211-18.746 25.91 10.718 30.836 40.039 52.973 74.527 52.973M83.117 277.71c34.492 0 63.813-22.136 74.531-52.972 4.41-12.699-5.308-25.91-18.75-25.91H27.336c-13.438 0-23.16 13.211-18.746 25.91 10.719 30.836 40.039 52.973 74.527 52.973m0 0"/><path fill="#eedb00" d="M256 151.785c-56.82 0-85.594-9.95-113.418-19.57-25.133-8.692-48.871-16.903-97.52-16.903-13.43 0-24.316-10.886-24.316-24.316S31.633 66.68 45.063 66.68c56.82 0 85.59 9.949 113.417 19.57 25.133 8.691 48.872 16.902 97.52 16.902s72.387-8.21 97.52-16.902c27.824-9.621 56.597-19.57 113.414-19.57 13.433 0 24.32 10.886 24.32 24.316s-10.887 24.317-24.32 24.317c-48.649 0-72.387 8.21-97.52 16.902-27.824 9.62-56.594 19.57-113.414 19.57m0 0"/><path fill="#dfca00" d="M256 103.152c-40.207 0-63.395-5.605-84.422-12.457-4.039 11.645-8.406 27.485-11.437 47.418 23.316 7.403 50.746 13.672 95.859 13.672s72.54-6.27 95.855-13.672c-3.03-19.933-7.398-35.773-11.437-47.418-21.023 6.852-44.215 12.457-84.418 12.457m0 0"/><path fill="#f9ee80" d="M305.77 324.75h-99.54s-4.632 58.254-57.218 96.89h213.976c-52.59-38.636-57.218-96.89-57.218-96.89m0 0"/><path fill="#f4e74d" d="M270.703 378.68c25.035-6.016 45.004-17.414 45.004-17.414-8.672-20.653-9.937-36.516-9.937-36.516h-99.54s-4.632 58.254-57.218 96.89h85.781c.14-.972 3.383-35.148 35.91-42.96m0 0"/><path fill="#f9ee80" d="M256 8c-11.781 0-21.61 9-22.645 20.734L206.23 336.051h99.54L278.645 28.734C277.609 17 267.78 8 256 8m0 0"/><path fill="#f4e74d" d="M206.23 336.05h99.54l-3.707-42.023c-50.235-7.894-76.915-20.48-89.606-28.52zm0 0"/><path fill="#e7896e" d="M287.723 109.234h-63.446c-13.925 0-25.215-11.289-25.215-25.214s11.29-25.215 25.215-25.215h63.446c13.925 0 25.214 11.289 25.214 25.215s-11.289 25.214-25.214 25.214m0 0"/><path fill="#dd6642" d="M232.043 84.02c0-13.926 11.289-25.215 25.215-25.215h-32.98c-13.926 0-25.215 11.289-25.215 25.215s11.289 25.214 25.214 25.214h32.98c-13.925 0-25.214-11.289-25.214-25.214m0 0"/><path fill="#e7896e" d="M313.29 361.266H198.71c-13.925 0-25.214-11.29-25.214-25.215s11.29-25.215 25.215-25.215h114.574c13.926 0 25.215 11.289 25.215 25.215.004 13.926-11.29 25.215-25.21 25.215m0 0"/><path fill="#dd6642" d="M206.477 336.05c0-13.925 11.289-25.214 25.214-25.214h-32.98c-13.926 0-25.215 11.289-25.215 25.215s11.29 25.215 25.215 25.215h32.98c-13.925 0-25.214-11.29-25.214-25.215m0 0"/><path fill="#e7896e" d="M364.145 466.512h-216.29c-13.925 0-25.214-11.29-25.214-25.215s11.289-25.215 25.214-25.215h216.29c13.925 0 25.214 11.29 25.214 25.215s-11.289 25.215-25.214 25.215m0 0"/><g fill="#dd6642"><path d="M167.973 441.297c0-13.926 11.289-25.215 25.214-25.215h-45.332c-13.925 0-25.214 11.29-25.214 25.215s11.289 25.215 25.214 25.215h45.333c-13.926 0-25.215-11.29-25.215-25.215M27.336 198.828c-13.438 0-23.16 13.211-18.746 25.91 8.82 25.375 30.258 44.864 56.785 50.969-34.508-31.95-19.734-76.879-19.734-76.879zM373.098 198.828c-13.442 0-23.16 13.211-18.746 25.91 8.82 25.375 30.261 44.864 56.785 50.969-34.508-31.95-19.735-76.879-19.735-76.879zm0 0"/></g><path d="M506.969 202.852c-5.13-7.215-9.969-11.524-30.996-11.524l-26.555-68.113c5.46-.262 11.273-.403 17.52-.403 17.542 0 31.816-14.273 31.816-31.816S484.48 59.18 466.938 59.18c-58.083 0-87.458 10.16-115.883 19.988-10.114 3.5-19.832 6.855-30.973 9.617.23-1.555 6.031-32.785-31.918-37.469l-2.05-23.242C284.726 12.355 271.78.5 256 .5s-28.727 11.855-30.117 27.574l-2.051 23.239C188.375 56 191.684 87.227 191.914 88.785c-11.14-2.765-20.863-6.12-30.984-9.62-22.575-7.81-45.918-15.884-84.055-18.83a7.487 7.487 0 0 0-8.055 6.9 7.5 7.5 0 0 0 6.899 8.054c36.215 2.8 58.633 10.555 80.316 18.05 13.207 4.567 26.852 9.282 43.965 12.579 4.68 5.184 10.988 8.86 18.113 10.223l-2.308 26.148c-30.73-3.324-51.063-10.348-70.77-17.164-25.746-8.902-50.062-17.312-99.973-17.312-9.273 0-16.816-7.547-16.816-16.82 0-9.27 7.543-16.817 16.816-16.817 4.141 0 7.5-3.36 7.5-7.5s-3.359-7.5-7.5-7.5c-17.542 0-31.816 14.273-31.816 31.816S27.52 122.81 45.062 122.81c4.93 0 9.583.09 14.016.257l-26.613 68.258c-15.352 0-22.305 4.309-27.438 11.528-5.113 7.191-6.398 16.066-3.52 24.343 12.06 34.7 44.856 58.012 81.614 58.012 36.754 0 69.55-23.312 81.613-58.012 2.875-8.277 1.59-17.152-3.527-24.343-5.129-7.22-15.89-11.528-30.996-11.528l-24.336-62.414c12.66 2.926 23.328 6.61 34.262 10.39 20.582 7.122 41.828 14.462 74.347 17.934l-12.898 146.098s-35.59-.789-35.59 32.715c0 13.473 8.188 25.066 19.844 30.074-8.055 16.406-18.969 30.652-32.528 42.461 0 0-38.171-1.176-38.171 32.715 0 18.039 14.675 32.715 32.714 32.715h216.286c18.039 0 32.718-14.68 32.718-32.715 0-36.52-38.171-32.715-38.171-32.715-13.56-11.805-24.477-26.043-32.536-42.46C337.812 361.112 346 349.52 346 336.046c0-33.832-35.59-32.715-35.59-32.715l-12.894-146.094c32.523-3.476 53.765-10.82 74.351-17.937 9.781-3.383 19.352-6.692 30.328-9.446l-23.968 61.47c-12.215 0-22.305 4.308-27.438 11.527-5.113 7.191-6.398 16.066-3.523 24.343 12.062 34.7 44.859 58.012 81.613 58.012 36.758 0 69.555-23.312 81.613-58.012 2.88-8.273 1.594-17.148-3.523-24.343m-357.985 8.691c2.266 3.187 2.844 7.098 1.582 10.73-9.968 28.672-37.07 47.938-67.445 47.938s-57.48-19.266-67.45-47.938c-1.26-3.632-.683-7.543 1.583-10.73 2.355-3.316 6.031-5.219 10.082-5.219h111.566c4.051.004 7.727 1.906 10.082 5.219m-34.87-20.215H48.565l26.23-67.281c4.856.437 9.411.976 13.708 1.605zM256 15.5c7.95 0 14.473 5.973 15.172 13.895l1.933 21.91h-34.214l1.933-21.914c.7-7.918 7.223-13.891 15.176-13.891m-49.437 68.52c0-9.77 7.945-17.715 17.714-17.715h63.446c9.765 0 17.715 7.945 17.715 17.715 0 9.765-7.95 17.714-17.715 17.714h-63.446c-9.77 0-17.714-7.949-17.714-17.714m175.296 357.277c0 9.77-7.949 17.715-17.714 17.715h-216.29c-9.77 0-17.714-7.946-17.714-17.715s7.949-17.715 17.714-17.715h216.29c9.765 0 17.714 7.945 17.714 17.715M331.004 336.05c0 9.77-7.95 17.715-17.715 17.715h-17.012a7.5 7.5 0 1 0 0 15h14.536c6.78 14.843 15.613 28.164 26.37 39.816H174.829c10.758-11.656 19.578-24.984 26.356-39.816h63.902a7.5 7.5 0 0 0 7.5-7.5c0-4.145-3.356-7.5-7.5-7.5H198.71c-9.77 0-17.715-7.95-17.715-17.715 0-9.77 7.95-17.715 17.715-17.715h114.574c9.77 0 17.719 7.945 17.719 17.715m-114.36-32.715 16.473-186.602h45.766l16.472 186.602zm150.313-178.207c-19.703 6.812-40.035 13.844-70.762 17.164l-2.308-26.152c7.125-1.364 13.433-5.04 18.113-10.223 17.11-3.297 30.754-8.008 43.973-12.578 27.238-9.422 55.402-19.164 110.965-19.164 9.273 0 16.816 7.547 16.816 16.82s-7.543 16.817-16.816 16.817c-49.91 0-74.227 8.41-99.981 17.316m52.75 1.105c4.398-.718 9.07-1.343 14.063-1.859l26.105 66.953h-65.547zm76.617 96.04c-9.965 28.671-37.07 47.937-67.445 47.937s-57.477-19.266-67.445-47.938c-1.262-3.628-.688-7.543 1.578-10.73 2.36-3.313 6.035-5.215 10.086-5.215H484.66c4.05 0 7.73 1.902 10.086 5.215 2.266 3.187 2.844 7.098 1.578 10.73m0 0"/></svg>