<svg xmlns="http://www.w3.org/2000/svg" width="511pt" height="511pt" viewBox="-51 0 511 512"><path fill="#00a62c" d="M311.398 309.348c-34.386 34.386-98.16 67.52-137.933 86.234-20.692 9.734-45.25 5.469-61.418-10.7L21.77 294.606c-18-18-15.817-47.8 4.613-62.984 37.222-27.656 69.465-37.906 92.672-45.285 20.82-6.621 27.832-8.852 44.16-25.176 16.324-16.328 18.555-23.34 25.176-44.16 7.375-23.203 17.629-55.45 45.285-92.672 15.18-20.43 44.98-22.61 62.98-4.613l90.278 90.277c16.168 16.168 20.433 40.73 10.699 61.418-18.711 39.777-51.844 103.547-86.235 137.938m0 0"/><path fill="#29ce69" d="M87.297 271.973c5.187-24.715-2.945-49.137-19.496-65.817-12.875 6.383-26.746 14.567-41.418 25.469-20.43 15.18-22.613 44.98-4.613 62.98l27.14 27.141c19.02-9.539 33.68-27.332 38.387-49.773M386.934 109.996l-23.711-23.71c-20.168 15.573-31.477 41.35-27.301 68.316 3.933 25.41 20.668 45.652 42.617 55.218 7.324-13.918 13.79-27.129 19.098-38.406 9.73-20.691 5.465-45.25-10.703-61.418M274.871 85.063c22.082-4.91 39.527-19.442 48.934-38.196L296.656 19.72c-17.996-18-47.8-15.82-62.98 4.613C222.777 39 214.594 52.867 208.21 65.742c16.894 16.762 41.703 24.871 66.66 19.32m0 0"/><path fill="#73da8c" d="M309.848 413.129c-34.391 34.387-98.16 67.52-137.934 86.234-20.691 9.735-45.25 5.469-61.418-10.699L20.22 398.387c-18-18-15.82-47.801 4.613-62.98 37.223-27.66 69.465-37.91 92.668-45.29 20.82-6.62 27.836-8.847 44.16-25.176 16.328-16.324 18.559-23.34 25.176-44.16 7.379-23.203 17.629-55.449 45.285-92.668 15.184-20.433 44.984-22.613 62.98-4.617l90.278 90.277c16.172 16.172 20.437 40.73 10.703 61.422-18.71 39.774-51.848 103.543-86.234 137.934m0 0"/><g fill="#b9ecc2"><path d="M85.746 375.754c5.188-24.719-2.95-49.137-19.5-65.817-12.875 6.383-26.742 14.563-41.414 25.465-20.434 15.184-22.613 44.985-4.613 62.985l27.14 27.14c19.02-9.539 33.676-27.332 38.387-49.773M149.008 436.969c-25.031-1.727-47.957 9.511-62.219 27.984l23.707 23.707c16.168 16.172 40.727 20.438 61.418 10.703 11.277-5.308 24.488-11.773 38.41-19.101-10.426-23.926-33.476-41.375-61.316-43.293M385.383 213.777l-23.711-23.71c-20.172 15.574-31.48 41.351-27.305 68.316 3.934 25.41 20.668 45.648 42.617 55.219 7.325-13.922 13.79-27.13 19.098-38.407 9.734-20.691 5.469-45.25-10.7-61.418M273.316 188.844c22.082-4.91 39.528-19.442 48.938-38.196L295.105 123.5c-18-18-47.8-15.82-62.98 4.613-10.902 14.668-19.082 28.535-25.465 41.414 16.89 16.758 41.703 24.868 66.656 19.317M290.383 282.621c-26.203-26.2-72.301-22.578-102.961 8.082-30.664 30.664-34.285 76.762-8.086 102.961 26.203 26.203 72.3 22.582 102.96-8.082 30.665-30.66 34.286-76.758 8.087-102.96m0 0"/></g><path d="M269.29 294.914a7.5 7.5 0 0 0-10.61 0 7.51 7.51 0 0 0 0 10.61l8.804 8.804a7.502 7.502 0 0 0 10.61-10.61zM202.242 361.965a7.5 7.5 0 0 0-10.61 0 7.497 7.497 0 0 0 0 10.605l8.805 8.805a7.5 7.5 0 0 0 10.61 0c2.926-2.93 2.926-7.68 0-10.605zM243.414 324.762c-1.488.308-6.984 2.75-5.824 8.863.555 2.934-.965 4.875-1.668 5.578s-2.656 2.274-5.578 1.668a7.505 7.505 0 0 0-8.867 5.824 7.505 7.505 0 0 0 5.824 8.868 21.08 21.08 0 0 0 19.226-5.75 21.06 21.06 0 0 0 5.75-19.227 7.5 7.5 0 0 0-8.863-5.824m0 0"/><path d="M345.734 163.523c-1.054-3.273-12.226-41.316 17.086-67.035l18.809 18.809c26.258 24.75 6.605 58.45 5.2 61.36a7.502 7.502 0 0 0 13.516 6.516c1.42-2.958 25.163-46.138-8.107-78.482l-90.277-90.277A49.18 49.18 0 0 0 263.555.133a49.17 49.17 0 0 0-35.903 19.726c-28.402 38.23-38.812 70.965-46.41 94.871-6.539 20.567-8.297 26.094-23.332 41.13-15.035 15.03-20.562 16.788-41.133 23.327-23.902 7.602-56.64 18.012-94.867 46.415a49.18 49.18 0 0 0-19.726 35.902 49.18 49.18 0 0 0 14.28 38.402l18.981 18.985a292 292 0 0 0-15.09 10.496A49.16 49.16 0 0 0 .633 365.285a49.17 49.17 0 0 0 14.281 38.402l90.277 90.278c11.801 11.8 27.641 18.035 43.696 18.035 8.89 0 17.847-1.91 26.218-5.852 22.403-10.539 43.34-21.343 62.227-32.12a7.5 7.5 0 0 0 2.8-10.231 7.496 7.496 0 0 0-10.23-2.797 783 783 0 0 1-16.304 9.02c-13.098-23.368-36.989-38.668-64.075-40.536-23.816-1.64-46.84 7.41-63.14 24.461L59.527 427.09c17.211-11.535 29.243-29.219 33.559-49.797 4.809-22.918-.66-46.453-14.684-64.797 15.688-7.058 29.645-11.5 41.375-15.23 21.52-6.844 29.575-9.403 47.188-27.02 17.617-17.613 20.176-25.668 27.023-47.195 3.73-11.73 8.172-25.692 15.235-41.383 13.968 10.691 37.68 20.492 65.722 14.5 20.203-4.32 37.516-16.434 48.868-33.352l26.851 26.848c-18.71 17.91-27.723 43.953-23.707 69.867 3.79 24.469 18.441 45.387 39.77 57.336-17.399 32.317-39.637 68.41-62.184 90.957-11.277 11.278-26.871 23.399-46.355 36.031a7.496 7.496 0 0 0-2.215 10.372 7.5 7.5 0 0 0 10.375 2.214c20.367-13.199 36.785-25.988 48.804-38.007 18.805-18.809 49.29-58.368 87.72-140.043 11.046-23.485 6.148-51.579-12.184-69.914zM239.695 28.805a34.18 34.18 0 0 1 24.957-13.711 34.18 34.18 0 0 1 26.7 9.926l23.144 23.14c-9.148 15.055-23.91 25.723-41.254 29.582-19.867 4.418-40.32-.691-55.75-13.68 5.805-11.09 13.016-22.89 22.203-35.257M27.075 289.3a34.2 34.2 0 0 1-9.93-26.7 34.2 34.2 0 0 1 13.71-24.956c12.372-9.192 24.172-16.407 35.266-22.211 12.79 15.21 17.953 35.382 13.836 55-2.715 12.945-9.207 24.562-18.766 33.628a269 269 0 0 0-12.578 6.778zm121.417 155.148c21.856 1.508 41.149 13.79 51.828 32.57a972 972 0 0 1-31.601 15.56c-17.778 8.362-39.043 4.655-52.922-9.22l-18.8-18.804c13.253-14.004 32.058-21.446 51.495-20.106m-70.09-70.234c-3.707 17.676-14.441 32.71-29.746 42.004L25.52 393.082a34.2 34.2 0 0 1-9.926-26.7 34.17 34.17 0 0 1 13.71-24.956c12.368-9.192 24.169-16.403 35.262-22.207 12.793 15.207 17.954 35.379 13.836 54.996m101.286-155.703c-6.54 20.566-8.297 26.093-23.329 41.129-15.035 15.03-20.562 16.789-41.132 23.332-8.04 2.554-17.082 5.433-26.993 9.203 14.856-28.227 8.383-63.461-8.277-83.461 15.688-7.059 29.64-11.5 41.371-15.23 21.52-6.844 29.574-9.403 47.188-27.02 17.617-17.613 20.18-25.668 27.023-47.192 3.73-11.734 8.172-25.695 15.234-41.386 29.032 22.965 80.165 27.71 114.594-18.852l26.848 26.848a79.86 79.86 0 0 0-24.621 59.5l-27.188-27.188a49.2 49.2 0 0 0-38.402-14.28 49.17 49.17 0 0 0-35.902 19.726c-28.403 38.226-38.809 70.96-46.414 94.87m92-36.989c-19.868 4.418-40.32-.691-55.75-13.68 5.804-11.09 13.015-22.89 22.207-35.257a34.18 34.18 0 0 1 24.957-13.711 34.22 34.22 0 0 1 26.699 9.926l23.14 23.14c-9.144 15.055-23.906 25.723-41.253 29.582M389.297 272a967 967 0 0 1-15.57 31.59c-17.133-9.742-28.891-26.625-31.946-46.356-3.277-21.148 4.13-42.414 19.489-56.964l18.808 18.808c13.875 13.879 17.582 35.149 9.219 52.922m0 0"/><path d="M315.145 333.016c1.703-21.668-5.208-41.45-19.458-55.696-14.246-14.25-34.027-21.16-55.695-19.457-21.226 1.664-41.781 11.446-57.87 27.54-16.095 16.09-25.876 36.644-27.54 57.87-1.703 21.668 5.207 41.45 19.457 55.696 13.184 13.183 30.863 19.648 49.375 19.648 22.324 0 45.86-9.398 64.191-27.73 16.094-16.09 25.875-36.645 27.54-57.871m-130.5 55.347c-11.094-11.093-16.461-26.691-15.11-43.918 1.387-17.664 9.438-35.054 23.192-48.437 31.628-30.77 72.324-26.317 92.355-8.082 11.602 10.566 16.461 26.691 15.11 43.918-1.387 17.668-9.626 34.87-23.192 48.437-27.691 27.692-69.121 31.317-92.355 8.082m0 0"/></svg>