<svg xmlns="http://www.w3.org/2000/svg" width="512pt" height="512pt" viewBox="0 -18 512.001 512"><path fill="#f4e74d" d="M458.316 99.867H223.645c-25.504 0-46.18-20.676-46.18-46.183S198.14 7.5 223.645 7.5h234.671c25.508 0 46.184 20.68 46.184 46.184 0 25.507-20.676 46.183-46.184 46.183m0 0"/><path fill="#eedb00" d="M458.316 192.234H223.645c-25.504 0-46.18-20.675-46.18-46.183s20.676-46.184 46.18-46.184h234.671c25.508 0 46.184 20.676 46.184 46.184s-20.676 46.183-46.184 46.183m0 0"/><path fill="#dfca00" d="M177.465 146.05c0 25.509 20.676 46.184 46.18 46.184h163.14c-42.586-89.222-163.14-92.367-163.14-92.367-25.504 0-46.18 20.68-46.18 46.184m0 0"/><path fill="#f4e74d" d="M458.316 284.602H223.645c-25.504 0-46.18-20.676-46.18-46.184s20.676-46.184 46.18-46.184h234.671c25.508 0 46.184 20.676 46.184 46.184s-20.676 46.184-46.184 46.184m0 0"/><path fill="#eedb00" d="M223.648 284.602h180.485c-.871-15.18-2.153-30.618-4.117-46.184-2.215-17.516-6.848-32.813-13.23-46.184H223.647c-25.507 0-46.183 20.68-46.183 46.184 0 25.508 20.676 46.184 46.183 46.184M458.316 376.969H223.645c-25.504 0-46.18-20.676-46.18-46.184s20.676-46.183 46.18-46.183h234.671c25.508 0 46.184 20.675 46.184 46.183s-20.676 46.184-46.184 46.184m0 0"/><path fill="#dfca00" d="M223.648 376.969h183.055c-.715-28.66-.703-59.91-2.57-92.367H223.648c-25.507 0-46.183 20.68-46.183 46.183 0 25.508 20.676 46.184 46.183 46.184m0 0"/><path fill="#f4e74d" d="M458.316 469.336H223.645c-25.504 0-46.18-20.676-46.18-46.184s20.676-46.183 46.18-46.183h234.671c25.508 0 46.184 20.676 46.184 46.183s-20.676 46.184-46.184 46.184m0 0"/><path fill="#eedb00" d="M223.648 469.336h194.22c-8.24-24.969-10.27-56.656-11.165-92.367H223.648c-25.507 0-46.183 20.68-46.183 46.183 0 25.508 20.676 46.184 46.183 46.184m0 0"/><path fill="#f4e74d" d="M201.129 164.184h-53.777v305.152h53.777c77.113 0 139.851-68.445 139.851-152.578 0-84.13-62.734-152.574-139.851-152.574m0 0"/><path fill="#f9ee80" d="M147.352 469.336C70.238 469.336 7.5 400.89 7.5 316.758c0-84.13 62.738-152.574 139.852-152.574 77.113 0 139.851 68.445 139.851 152.574 0 84.133-62.738 152.578-139.851 152.578m0 0"/><path fill="#fffcdc" d="M241.813 316.758c0-58.442-42.293-105.817-94.461-105.817S52.89 258.316 52.89 316.758c0 58.445 42.293 105.82 94.46 105.82 52.169 0 94.462-47.375 94.462-105.82m0 0"/><path d="M194.758 329.098c4.144 0 7.5-3.356 7.5-7.5v-12.45a7.5 7.5 0 0 0-7.5-7.5 7.5 7.5 0 0 0-7.5 7.5v12.45a7.5 7.5 0 0 0 7.5 7.5M99.945 329.098a7.5 7.5 0 0 0 7.5-7.5v-12.45a7.5 7.5 0 1 0-15 0v12.45c0 4.144 3.356 7.5 7.5 7.5M147.352 331.871a21.07 21.07 0 0 0 17.66-9.531 7.5 7.5 0 0 0-2.153-10.383c-1.27-.836-6.882-2.996-10.386 2.148a6.18 6.18 0 0 1-5.121 2.766c-.997 0-3.485-.27-5.122-2.766-2.277-3.46-6.925-4.425-10.386-2.148a7.5 7.5 0 0 0-2.153 10.383 21.07 21.07 0 0 0 17.66 9.531m0 0"/><path d="M147.352 430.078c56.222 0 101.96-50.836 101.96-113.32 0-62.48-45.738-113.317-101.96-113.317-56.22 0-101.961 50.836-101.961 113.317 0 62.484 45.742 113.32 101.96 113.32m0-211.637c47.949 0 86.96 44.106 86.96 98.317 0 54.215-39.011 98.32-86.96 98.32-47.95 0-86.961-44.105-86.961-98.32 0-54.211 39.011-98.317 86.96-98.317m0 0"/><path d="M512 146.05c0-19.628-10.594-36.82-26.36-46.183C501.407 90.504 512 73.312 512 53.684 512 24.082 487.918 0 458.316 0H223.645c-29.602 0-53.684 24.082-53.684 53.684 0 19.629 10.594 36.82 26.36 46.183-29.54 16.59-25.997 53.332-25.294 56.817h-23.675c-43.239 0-84.157 20.586-112.262 56.48a7.5 7.5 0 0 0 1.281 10.531c3.262 2.551 7.977 1.98 10.527-1.285 25.243-32.238 61.856-50.726 100.454-50.726 72.976 0 132.351 65.082 132.351 145.078s-59.375 145.074-132.351 145.074C74.372 461.836 15 396.754 15 316.758c0-24.242 5.59-48.246 16.168-69.422a7.497 7.497 0 0 0-3.36-10.059 7.5 7.5 0 0 0-10.062 3.356C6.136 263.879 0 290.203 0 316.758c0 88.27 66.102 160.078 147.352 160.078h310.964c29.602 0 53.684-24.082 53.684-53.684 0-19.629-10.594-36.82-26.36-46.183 15.766-9.364 26.36-26.555 26.36-46.184s-10.594-36.82-26.36-46.183c15.766-9.364 26.36-26.555 26.36-46.184s-10.594-36.82-26.36-46.184c15.766-9.363 26.36-26.554 26.36-46.183m-15 277.102c0 21.332-17.352 38.684-38.684 38.684h-194.84c9.649-4.926 18.86-11.027 27.504-18.27a7.5 7.5 0 0 0 .934-10.566 7.504 7.504 0 0 0-10.566-.93c-20.805 17.434-45.215 27.504-71.086 29.422 49.87-25.683 84.441-80.902 84.441-144.734 0-63.824-34.562-119.035-84.422-144.723 68.727 5.172 123.2 68.102 123.2 144.723 0 33.812-10.891 66.754-30.669 92.754-2.507 3.297-2.023 8.218 1.43 10.511 4.715 3.13 9.035.512 10.512-1.43 7.96-10.468 14.605-21.952 19.844-34.124h123.718c21.332 0 38.684 17.355 38.684 38.683m0-92.367c0 21.332-17.352 38.684-38.684 38.684H340.215a172.3 172.3 0 0 0 8.265-52.711c0-8.383-.597-16.617-1.75-24.656h111.586c21.332 0 38.684 17.355 38.684 38.683m0-92.367c0 21.332-17.352 38.684-38.684 38.684H343.902c-7.086-30.094-22.05-56.797-42.347-77.368h156.761c21.332 0 38.684 17.356 38.684 38.684m-38.684-53.684h-173.96c-35.043-28.343-97.907-28.05-97.907-28.05-.98-3.442-3.808-49.317 37.196-49.317h186.699a7.5 7.5 0 0 0 7.5-7.5 7.5 7.5 0 0 0-7.5-7.5h-186.7c-21.328 0-38.683-17.355-38.683-38.683C184.96 32.352 202.316 15 223.645 15h234.671C479.645 15 497 32.352 497 53.684c0 21.328-17.352 38.683-38.684 38.683h-16.093a7.5 7.5 0 0 0-7.5 7.5 7.5 7.5 0 0 0 7.5 7.5h16.093c21.329 0 38.684 17.352 38.684 38.684 0 21.328-17.352 38.683-38.684 38.683m0 0"/></svg>