<svg xmlns="http://www.w3.org/2000/svg" width="512pt" height="512pt" viewBox="0 -125 512 512"><path fill="#b0f0ef" d="M371.797 254.973H53.757c-25.546 0-46.257-20.711-46.257-46.258V55.402c0-25.547 20.71-46.254 46.258-46.254h318.039c25.547 0 46.254 20.707 46.254 46.254v153.313c0 25.547-20.711 46.258-46.254 46.258m0 0"/><path fill="#76e7e7" d="M87.953 208.715V55.402c0-25.547 20.711-46.254 46.258-46.254H53.758C28.21 9.145 7.5 29.855 7.5 55.402v153.313c0 25.547 20.71 46.258 46.258 46.258h80.453c-25.547 0-46.258-20.711-46.258-46.258m0 0"/><path fill="#2eddda" d="M371.797 9.148H53.757C28.212 9.148 7.5 29.855 7.5 55.402v132.922h410.55V55.402c0-25.547-20.71-46.254-46.253-46.254m0 0"/><path fill="#00d2ce" d="M134.21 9.148H53.759C28.21 9.148 7.5 29.855 7.5 55.402v132.922h80.457V55.402c-.004-25.547 20.707-46.254 46.254-46.254m0 0"/><path fill="#eedb00" d="M413.77 160.504c-8.903-8.902-8.903-23.34 0-32.242L452.78 89.25c8.903-8.902 23.34-8.902 32.242 0 8.907 8.906 8.907 23.34 0 32.242l-39.011 39.012c-8.903 8.902-23.336 8.902-32.242 0m0 0"/><path fill="#889cb0" d="m348.883 195.227-15.262 1.593c-11.137 1.164-20.523-8.222-19.36-19.36l1.594-15.26a36.46 36.46 0 0 1 10.47-21.97L450.77 15.785c12.296-12.293 32.23-12.293 44.527 0 12.293 12.297 12.293 32.23 0 44.528L370.852 184.758a36.43 36.43 0 0 1-21.97 10.469m0 0"/><path fill="#f9ee80" d="m461.113 93.617-43.648-43.644c-7.809-7.813-7.809-20.47 0-28.278 7.808-7.808 20.469-7.808 28.277 0l43.649 43.645c7.808 7.808 7.808 20.469 0 28.277-7.809 7.809-20.47 7.809-28.278 0m0 0"/><path fill="#6a829a" d="M314.262 177.46c-1.164 11.138 8.222 20.524 19.363 19.36l15.262-1.593a36.43 36.43 0 0 0 21.965-10.47l-44.524-44.527a36.42 36.42 0 0 0-10.469 21.97zm0 0"/><path fill="#fdb2db" d="M156.957 71.71c0-9.077-9.242-16.437-20.64-16.437-11.403 0-20.645 7.36-20.645 16.438s9.242 16.437 20.644 16.437c11.399 0 20.641-7.359 20.641-16.437M309.879 71.71c0-9.077-9.242-16.437-20.645-16.437-11.398 0-20.64 7.36-20.64 16.438s9.242 16.437 20.64 16.437c11.403 0 20.645-7.359 20.645-16.437m0 0"/><path d="M55.305 203.574a7.5 7.5 0 0 0-7.5 7.5v21.145a7.5 7.5 0 1 0 15 0v-21.145c0-4.14-3.36-7.5-7.5-7.5M87.953 203.574c-4.14 0-7.5 3.36-7.5 7.5v21.145a7.5 7.5 0 1 0 15 0v-21.145c.004-4.14-3.355-7.5-7.5-7.5M120.61 203.574a7.5 7.5 0 0 0-7.5 7.5v21.145a7.5 7.5 0 1 0 15 0v-21.145c0-4.14-3.36-7.5-7.5-7.5M153.262 203.574a7.5 7.5 0 0 0-7.5 7.5v21.145a7.5 7.5 0 1 0 15 0v-21.145c0-4.14-3.36-7.5-7.5-7.5M185.91 203.574c-4.14 0-7.5 3.36-7.5 7.5v21.145a7.5 7.5 0 1 0 15 0v-21.145a7.5 7.5 0 0 0-7.5-7.5M282.086 61.441V48.988a7.5 7.5 0 1 0-15 0v12.453a7.5 7.5 0 1 0 15 0M158.469 61.441V48.988a7.5 7.5 0 1 0-15 0v12.453a7.5 7.5 0 1 0 15 0M228.285 51.797c-1.27-.836-6.883-2.992-10.387 2.148a6.18 6.18 0 0 1-5.12 2.766c-.997 0-3.485-.27-5.126-2.766a7.5 7.5 0 0 0-10.386-2.148 7.5 7.5 0 0 0-2.149 10.387 21.07 21.07 0 0 0 17.66 9.527 21.08 21.08 0 0 0 17.66-9.527 7.503 7.503 0 0 0-2.152-10.387M30.61 117.895c0 4.144 3.355 7.5 7.5 7.5h165.769a7.5 7.5 0 1 0 0-15H38.109a7.5 7.5 0 0 0-7.5 7.5M38.11 144.328a7.497 7.497 0 0 0-7.5 7.5 7.5 7.5 0 0 0 7.5 7.5h91.644a7.5 7.5 0 1 0 0-15zM150.555 151.828a7.5 7.5 0 0 0 7.5 7.5h77.941a7.5 7.5 0 1 0 0-15h-77.941a7.497 7.497 0 0 0-7.5 7.5m0 0"/><path d="M499.57 66.645S512 55.363 512 38.047c0-9.98-3.8-19.965-11.398-27.563-15.204-15.203-41.356-13.007-56.157 1.02 0 0-18.804-8.918-33.902 6.66-10.023-10.398-23.992-16.52-38.746-16.52H99.004a7.5 7.5 0 1 0 0 15h272.793c13.043 0 25.234 6.633 32.375 17.458-.035.57-.828 8.898 3.11 14.566l-86.259 86.258a44.06 44.06 0 0 0-12.625 26.492s-1.765 18.035-1.683 19.402H15V55.402c0-21.37 17.387-38.754 38.758-38.754H68.05a7.5 7.5 0 1 0 0-15H53.758C24.113 1.645 0 25.762 0 55.402v153.313c0 29.64 24.113 53.758 53.758 53.758h318.039c29.64 0 53.754-24.118 53.754-53.758v-34.356c1.441.207 14.39 4.004 25.765-8.55l39.012-39.012c8.274-8.274 10.906-20.469 7.227-31.238 6.148-8.52 6.82-19.793 2.015-28.914m-9.578-45.555c9.352 9.351 9.352 24.566 0 33.918L456.074 21.09c9.352-9.352 24.567-9.352 33.918 0m-49.55 5.906 43.644 43.649c4.871 4.87 4.871 12.796.004 17.668-4.809 4.804-12.45 4.925-17.39.273-2.962-2.79-7.59-2.691-10.446.172l-85.402 85.39-33.918-33.918 80.093-80.093 16.68 16.68a7.497 7.497 0 0 0 10.606 0 7.5 7.5 0 0 0 0-10.61L422.77 44.664c-2.36-2.36-6.512-11.152 0-17.668 6.515-6.516 15.308-2.36 17.671 0m-118.72 151.242 1.594-15.258a29 29 0 0 1 3.72-11.433l32.5 32.5a28.9 28.9 0 0 1-11.43 3.719l-15.262 1.593c-3.047.32-6.04-.742-8.211-2.91a10.08 10.08 0 0 1-2.91-8.21m50.075 69.23H53.757c-21.37 0-38.757-17.386-38.757-38.753v-12.89h297.883c.367.417 6.27 8.464 21.52 8.456 0 0 24.667-.469 34.62-8.457h41.528v12.89c0 21.372-17.387 38.755-38.754 38.755m38.754-66.644h-25.16l19.437-19.437c1.07 1.57 5.008 5.718 5.723 6.312zm30.16-25.625c-8.148 7.774-20.797 4.192-24.89-4.804l46.585-46.586c4.02 2.14 13.532 5.023 21.782 1.71a15.32 15.32 0 0 1-4.47 10.672zm0 0"/></svg>