<svg xmlns="http://www.w3.org/2000/svg" width="511pt" height="511pt" viewBox="0 -33 512 511"><path fill="#889cb0" d="M232.832 437.574H66.207c-32.422 0-58.707-26.281-58.707-58.703V66.707C7.5 34.285 33.785 8 66.207 8h166.625c32.422 0 58.703 26.285 58.703 58.707v312.164c0 32.422-26.281 58.703-58.703 58.703m0 0"/><path fill="#b0f0ef" d="M53.145 98.059h284.039v252.609H53.144zm0 0"/><path fill="#76e7e7" d="M177.598 242.973c7.113 23.992 15.433 59.718 20.793 107.695h138.793V157.465l-132.66 36.828c-21.02 5.836-33.13 27.77-26.926 48.68m0 0"/><path fill="#a7b6c5" d="M278.477 8H111.852C79.43 8 53.145 34.285 53.145 66.707v39.996h284.039V66.707C337.184 34.281 310.898 8 278.477 8M278.477 437.574H111.852c-32.422 0-58.707-26.281-58.707-58.703v-40h284.039v40c0 32.422-26.286 58.703-58.707 58.703m0 0"/><path fill="#889cb0" d="M337.184 378.871v-40H196.988c3.582 28.242 6.176 61.102 6.817 98.703h74.672c32.421 0 58.707-26.281 58.707-58.703m0 0"/><path fill="#ff8a98" d="m474.633 340.61-188.004 52.702c-21.754 6.098-44.328-6.593-50.43-28.343l-27.484-98.059c-6.098-21.75 6.594-44.328 28.344-50.426l188.004-52.703c21.753-6.097 44.328 6.594 50.425 28.348l27.489 98.055c6.097 21.754-6.594 44.332-28.344 50.425m0 0"/><path fill="#6a829a" d="m209.273 268.93 266.782-74.778 13.18 47.02-266.782 74.777zm0 0"/><path fill="#a4e7ff" d="m352.875 347.316-56.844 15.934c-10.37 2.906-21.136-3.14-24.047-13.516-2.906-10.37 3.145-21.132 13.516-24.043l56.848-15.933c10.37-2.906 21.136 3.14 24.043 13.515 2.906 10.372-3.145 21.137-13.516 24.043m0 0"/><g fill="#6a829a"><path d="M159.129 57.352c0 8.906-7.219 16.125-16.125 16.125s-16.125-7.22-16.125-16.125 7.219-16.125 16.125-16.125 16.125 7.218 16.125 16.125M247.324 73.477h-42.508c-8.906 0-16.125-7.22-16.125-16.125s7.22-16.125 16.125-16.125h42.508c8.906 0 16.125 7.218 16.125 16.125s-7.219 16.125-16.125 16.125M218.344 388.223c0 12.8-10.38 23.18-23.18 23.18s-23.18-10.38-23.18-23.18c0-12.801 10.38-23.176 23.18-23.176s23.18 10.375 23.18 23.176m0 0"/></g><path fill="#fdb2db" d="M139.348 169.844c0-9.078-9.243-16.438-20.641-16.438-11.402 0-20.64 7.36-20.64 16.438s9.238 16.437 20.64 16.437c11.398 0 20.64-7.36 20.64-16.437M292.266 169.844c0-9.078-9.243-16.438-20.645-16.438-11.398 0-20.64 7.36-20.64 16.438s9.242 16.437 20.64 16.437c11.402 0 20.645-7.36 20.645-16.437m0 0"/><path d="M212.824 160.313a7.495 7.495 0 0 0-2.152-10.383c-1.27-.836-6.883-2.996-10.387 2.148a6.18 6.18 0 0 1-5.12 2.766c-.993 0-3.485-.27-5.126-2.766a7.494 7.494 0 0 0-10.383-2.148 7.495 7.495 0 0 0-2.152 10.382 21.07 21.07 0 0 0 17.66 9.532c7.14 0 13.742-3.563 17.66-9.531M133.355 139.602a18.26 18.26 0 0 0-12.992 5.382 7.497 7.497 0 0 0 0 10.606 7.5 7.5 0 0 0 10.61 0 3.36 3.36 0 0 1 2.386-.988c.52 0 1.453.207 2.387.988 4.734 3.96 9.14 1.465 10.606 0a7.497 7.497 0 0 0 0-10.606 18.26 18.26 0 0 0-12.997-5.382M254.586 155.59a3.36 3.36 0 0 1 2.387-.988c.52 0 1.453.207 2.386.988 4.735 3.965 9.145 1.465 10.606.004a7.506 7.506 0 0 0 .004-10.61 18.27 18.27 0 0 0-12.996-5.382 18.26 18.26 0 0 0-12.993 5.382 7.5 7.5 0 0 0 0 10.61 7.5 7.5 0 0 0 10.606-.004m0 0"/><path d="m510.2 288.16-27.49-98.055c-3.487-12.449-11.616-22.796-22.89-29.132-11.27-6.332-24.332-7.903-36.785-4.41l-78.351 21.964V66.707C344.684 30.199 314.98.5 278.477.5H66.207C29.699.5 0 30.2 0 66.707v72.895c0 4.14 3.36 7.5 7.5 7.5s7.5-3.36 7.5-7.5V66.707C15 38.473 38.906 15.5 69.938 15.5c0 0-24.293 18.227-24.293 51.207v312.164c0 38.488 24.293 51.203 24.293 51.203-28.415 0-54.938-22.969-54.938-51.203V169.844a7.5 7.5 0 1 0-15 0V378.87c0 36.504 29.7 66.203 66.207 66.203h212.27c22.183 0 42.789-11.031 55.113-29.508a7.496 7.496 0 0 0-2.078-10.402 7.495 7.495 0 0 0-10.399 2.078c-9.539 14.297-25.476 22.832-42.636 22.832H111.852c-28.235 0-51.207-22.969-51.207-51.203v-32.5h162.554l5.781 20.621c3.489 12.45 11.618 22.793 22.887 29.13 7.344 4.128 21.32 8.1 36.785 4.413l188.004-52.703c25.7-7.203 40.746-33.973 33.543-59.672m-291.677-14.039 252.332-70.734 9.13 32.574-252.333 70.734zm208.563-103.117c23.43-5.969 36.371 11.746 39.297 18.055l-251.485 70.5c-.78-6.91 1.586-29.914 24.188-35.852zM111.852 15.5h166.625c28.234 0 51.207 22.973 51.207 51.207v32.496H60.644V66.707c0-28.234 22.973-51.207 51.208-51.207M60.645 331.371V114.203h269.039v68.527l-94.649 26.532c-12.45 3.492-22.797 11.62-29.133 22.89-6.336 11.274-7.898 24.336-4.41 36.785l17.5 62.434zm432.066-13.777c-4.371 7.777-11.512 13.386-20.106 15.797l-188 52.703c-8.593 2.406-17.609 1.324-25.386-3.047s-13.387-11.512-15.797-20.102l-11.719-41.808 252.332-70.735 11.719 41.805c2.41 8.594 1.328 17.61-3.043 25.387m0 0"/><path d="m340.324 302.535-56.847 15.938c-21.09 7.136-20.657 26.343-18.711 33.289 3.34 11.91 15.172 22.91 33.289 18.71l56.847-15.933c6.946-1.945 25.032-10.527 18.711-33.289-6.32-22.766-26.347-20.66-33.289-18.715m10.528 37.559-56.844 15.937c-6.375 1.785-13.012-1.945-14.797-8.32-1.79-6.371 1.941-13.012 8.316-14.797l56.844-15.934c10.156-2.937 13.934 5.23 14.797 8.317.867 3.086 1.344 12.277-8.316 14.797M143.004 80.977c13.027 0 23.625-10.598 23.625-23.625 0-13.028-10.598-23.625-23.625-23.625-13.024 0-23.625 10.597-23.625 23.625 0 13.027 10.598 23.625 23.625 23.625m0-32.25c4.758 0 8.625 3.87 8.625 8.625 0 4.753-3.867 8.625-8.625 8.625-4.754 0-8.625-3.868-8.625-8.625 0-4.754 3.871-8.625 8.625-8.625M204.816 80.977h42.508c13.028 0 23.625-10.598 23.625-23.625 0-13.028-10.597-23.625-23.625-23.625h-42.508c-13.027 0-23.625 10.597-23.625 23.625 0 13.023 10.598 23.625 23.625 23.625m0-32.25h42.508c4.754 0 8.625 3.87 8.625 8.625 0 4.753-3.87 8.625-8.625 8.625h-42.508c-4.754 0-8.625-3.868-8.625-8.625 0-4.754 3.868-8.625 8.625-8.625M164.484 388.223c0 16.918 13.762 30.68 30.68 30.68s30.68-13.762 30.68-30.68c0-16.914-13.762-30.676-30.68-30.676s-30.68 13.762-30.68 30.676m46.36 0c0 8.644-7.035 15.68-15.68 15.68s-15.68-7.036-15.68-15.68 7.036-15.676 15.68-15.676 15.68 7.031 15.68 15.676m0 0"/></svg>