<svg xmlns="http://www.w3.org/2000/svg" width="512pt" height="512pt" viewBox="-16 0 512 512"><path fill="#e7896e" d="M464.773 364.11c0 124.171-100.66 140.39-224.832 140.39-124.168 0-224.828-16.219-224.828-140.39S115.773 54.187 239.941 54.187c124.172 0 224.832 185.75 224.832 309.921m0 0"/><path fill="#dd6642" d="M239.941 54.188c-124.168 0-224.828 185.75-224.828 309.921 0 99.125 64.149 129.457 153.2 137.657-19.137-59.153-23.532-108.348-20.727-147.805 6-84.367 76.863-149.223 161.434-148.246 50.687.586 93.289 10.555 93.289 10.555v-48.43c-40.926-64.567-98.54-113.652-162.368-113.652m0 0"/><path fill="#eedb00" d="M328.727 56.73c0 27.188-22.043 49.227-49.23 49.227S230.27 83.918 230.27 56.73c0-27.19 22.039-49.23 49.226-49.23s49.23 22.04 49.23 49.23m0 0"/><path fill="#f9ee80" d="M457.508 151.64c-53.68-45.843-120.43-73.449-190.367-79.156-9.618-.785-17.098-8.66-17.602-18.293-.797-15.363-8.746-30.21-23.027-39.191-20.5-12.895-47.844-8.71-63.543 9.73-10.098 11.864-13.547 26.86-11.012 40.797 1.715 9.414-4.105 18.641-13.227 21.532-42.402 13.445-82.05 35.28-116.355 64.582-17.848 15.242-19.957 42.066-4.715 59.914s42.067 19.957 59.918 4.715c45.227-38.625 102.887-59.899 162.363-59.899S357.11 177.61 402.31 216.27c24.043 20.566 51.511 5.125 59.914-4.715 15.242-17.844 13.132-44.672-4.715-59.914m0 0"/><path fill="#454545" d="M239.941 349.379c-15.52 0-28.101-12.582-28.101-28.102v-20.43c0-4.234 3.437-7.667 7.672-7.667h40.86a7.67 7.67 0 0 1 7.671 7.668v20.43c-.004 15.519-12.582 28.1-28.102 28.1m0 0"/><path fill="#fdb2db" d="M175.918 321.277c0-13.183-13.418-23.867-29.973-23.867-16.554 0-29.972 10.684-29.972 23.867s13.418 23.871 29.972 23.871 29.973-10.687 29.973-23.87M363.91 321.277c0-13.183-13.418-23.867-29.973-23.867s-29.972 10.684-29.972 23.867 13.418 23.871 29.972 23.871 29.973-10.687 29.973-23.87m0 0"/><path fill="#f4e74d" d="M72.516 163.328c-19.528-32.32 22.39-58.547 25.078-60.18-26.887 12.63-52.32 28.938-75.219 48.493-17.848 15.242-19.957 42.07-4.715 59.918 15.242 17.843 42.067 19.957 59.918 4.714a249.8 249.8 0 0 1 75.168-44.187c-37.937 5.879-69.68 8.703-80.23-8.758m0 0"/><path d="M328.098 300.676v-12.45c0-4.144-3.356-7.5-7.5-7.5a7.5 7.5 0 0 0-7.5 7.5v12.45a7.5 7.5 0 1 0 15 0M166.785 300.676v-12.45a7.5 7.5 0 0 0-7.5-7.5 7.497 7.497 0 0 0-7.5 7.5v12.45a7.5 7.5 0 1 0 15 0m0 0"/><path d="M467.926 216.426c17.906-20.961 15.414-52.582-5.547-70.488a342.8 342.8 0 0 0-60.817-41.516c-3.652-1.957-8.199-.578-10.152 3.074s-.578 8.195 3.074 10.152a327.7 327.7 0 0 1 58.153 39.696c14.676 12.535 16.574 34.804 3.883 49.34-17.258 19.77-40.668 11.3-49.336 3.886-46.52-39.789-105.914-61.699-167.243-61.699-61.257 0-120.652 21.91-167.234 61.695-14.676 12.536-36.812 10.793-49.344-3.879-12.531-14.675-10.789-36.808 3.883-49.343C60.7 128.774 98.97 107.53 140.996 94.21c12.828-4.066 20.715-16.977 18.34-30.023-2.246-12.368 1.16-24.977 9.348-34.594 13.304-15.637 36.449-19.18 53.836-8.246 11.523 7.25 18.828 19.672 19.53 33.23.696 13.387 11.22 24.3 24.481 25.383 34.68 2.828 68.543 11.129 100.645 24.66a7.5 7.5 0 0 0 9.824-4 7.494 7.494 0 0 0-3.996-9.82 343 343 0 0 0-40.399-14.125 56.8 56.8 0 0 0 3.622-19.946c0-31.28-25.45-56.73-56.73-56.73-14.954 0-29.079 5.883-39.571 16.105C237.078 13.328 223.91.043 200.043.043c-16.027 0-31.848 6.977-42.785 19.828-11.113 13.059-15.735 30.188-12.68 47 1.027 5.64-2.46 11.246-8.113 13.04-43.953 13.933-83.977 36.148-118.961 66.027-20.961 17.902-23.453 49.527-5.547 70.488a49.67 49.67 0 0 0 24.3 15.586c-18.515 45.511-28.644 92.05-28.644 132.097 0 15.934 1.637 30.684 4.875 43.84.84 3.422 3.86 6.61 9.075 5.492 4.05-.863 6.48-5.05 5.492-9.074-2.95-11.984-4.442-25.531-4.442-40.258 0-39.254 10.309-85.273 29.098-130.222 10.926-.367 21.797-4.282 30.738-11.914 43.871-37.47 99.801-58.102 157.492-58.102 57.758 0 113.688 20.633 157.493 58.102 10.629 9.09 21.504 11.882 30.757 11.953 18.774 44.93 29.082 90.976 29.082 130.183 0 28.778-5.433 51.829-16.601 70.465-10.137 16.91-24.856 29.84-45.004 39.535C353.75 494.281 293.422 497 239.941 497c-99.457 0-171.882-11.016-202.09-64.77a7.494 7.494 0 0 0-10.21-2.863 7.497 7.497 0 0 0-2.864 10.211c16.446 29.27 44.559 48.918 85.942 60.067C151.367 510.598 201.129 512 239.94 512c55.172 0 117.594-2.895 162.23-24.371 47.169-22.7 70.102-63.102 70.102-123.52 0-40.12-10.195-86.847-28.804-132.476 11.355-3.473 20.144-10.156 24.457-15.207M279.496 15c23.012 0 41.73 18.719 41.73 41.73a41.7 41.7 0 0 1-3.261 16.172 343 343 0 0 0-50.211-7.894c-5.805-.473-10.414-5.293-10.723-11.207a56.7 56.7 0 0 0-7.765-25.817A41.7 41.7 0 0 1 279.496 15m0 0"/><path d="M275.543 321.277v-20.43c0-8.363-6.805-15.167-15.172-15.167h-40.86c-8.363 0-15.171 6.804-15.171 15.168v20.43c0 19.632 15.973 35.6 35.601 35.6s35.598-15.968 35.602-35.6m-56.203 0v-20.43c0-.093 41.203-.093 41.203 0v20.43c0 11.36-9.242 20.602-20.602 20.602s-20.601-9.242-20.601-20.602m0 0"/></svg>