<svg xmlns="http://www.w3.org/2000/svg" width="512pt" height="512pt" viewBox="-37 0 512 512"><path fill="#f9ee80" d="M268.613 57.215c0 27.457-22.258 49.715-49.715 49.715s-49.714-22.258-49.714-49.715S191.44 7.5 218.898 7.5s49.715 22.258 49.715 49.715m0 0"/><path fill="#f4e74d" d="M218.898 57.215c-23.183 0-38.683-5.035-48.625-10.406a50 50 0 0 0-1.09 10.406c0 27.457 22.258 49.715 49.715 49.715 24.551 0 44.95-17.797 48.989-41.2-11.633-4.546-27.832-8.515-48.989-8.515m0 0"/><path fill="#ff5d9c" d="M7.602 117.89c1.816 26.696 12.066 62.954 47.835 95.173l93.43-103.739c-35.77-32.215-72.898-38.629-99.64-37.652-24.34.89-43.278 21.914-41.625 46.219m0 0"/><path fill="#fa3483" d="M52.887 140.176c1.246 13.77 6.883 31.918 24.863 48.113l48.805-54.191c-17.977-16.192-36.614-19.907-50.442-19.711-13.797.199-24.468 12.047-23.226 25.789m0 0"/><path fill="#ff83b4" d="M430.191 117.89c-1.812 26.696-12.062 62.954-47.832 95.173l-93.433-103.739c35.77-32.215 72.902-38.629 99.64-37.652 24.344.89 43.278 21.914 41.625 46.219m0 0"/><path fill="#ff5d9c" d="M384.906 140.176c-1.246 13.77-6.883 31.918-24.86 48.113l-48.808-54.191c17.98-16.192 36.617-19.907 50.442-19.711 13.797.199 24.468 12.047 23.226 25.789M105.813 475.2c-17.192 0-31.133-13.938-31.133-31.13v-64.093h62.265v64.093c0 17.192-13.941 31.13-31.132 31.13m0 0"/><path fill="#ff83b4" d="M331.984 475.2c-17.195 0-31.132-13.938-31.132-31.13v-64.093h62.265v64.093c-.004 17.192-13.941 31.13-31.133 31.13m0 0"/><path fill="#ffabcd" d="M404.672 297.953c0-102.601-83.172-215.898-185.774-215.898-102.601 0-185.777 113.297-185.777 215.898 0 52.43 21.719 89.621 56.649 113.461 13.503 9.219 21.695 24.41 21.695 40.762v21.191c0 17.196 13.937 31.133 31.129 31.133 17.195 0 31.133-13.937 31.133-31.133V460.79c0-9.945 8.46-17.832 18.375-17.031a333 333 0 0 0 26.796 1.058c9.098 0 18.047-.351 26.793-1.058 9.914-.801 18.375 7.086 18.375 17.031v12.578c0 17.196 13.938 31.133 31.133 31.133 17.192 0 31.13-13.937 31.13-31.133v-21.191c0-16.352 8.19-31.543 21.694-40.762 34.93-23.84 56.649-61.031 56.649-113.46m0 0"/><path fill="#ff83b4" d="M278.957 345.172C74.597 300.8 142.445 103.71 142.445 103.71 77.98 141.488 33.121 222.605 33.121 297.953c0 52.43 21.719 89.621 56.649 113.461 13.503 9.219 21.695 24.41 21.695 40.762v21.191c0 17.196 13.937 31.133 31.129 31.133 17.195 0 31.133-13.937 31.133-31.133V460.79c0-9.945 8.46-17.832 18.375-17.031-2.067-18.684 9.437-36.606 28.109-41.945 52.414-14.985 59.297-57.243 58.746-56.641m0 0"/><path fill="#ffd2e3" d="M295.352 305.406c0-35.488-34.23-64.261-76.454-64.261-42.226 0-76.453 28.773-76.453 64.261 0 35.492 34.227 64.262 76.453 64.262 42.223 0 76.454-28.77 76.454-64.262m0 0"/><path fill="#516980" d="M190.89 332.887c-8.956 0-16.218-7.262-16.218-16.219v-22.523c0-8.957 7.262-16.22 16.219-16.22s16.218 7.263 16.218 16.22v22.523c0 8.96-7.261 16.219-16.218 16.219M246.906 332.887c-8.957 0-16.222-7.262-16.222-16.219v-22.523c0-8.957 7.265-16.22 16.222-16.22s16.219 7.263 16.219 16.22v22.523c0 8.96-7.262 16.219-16.219 16.219m0 0"/><path d="M307.055 239.2v-12.45c0-4.145-3.356-7.5-7.5-7.5a7.5 7.5 0 0 0-7.5 7.5v12.45a7.5 7.5 0 0 0 7.5 7.5 7.5 7.5 0 0 0 7.5-7.5M138.242 219.25a7.497 7.497 0 0 0-7.5 7.5v12.45c0 4.144 3.356 7.5 7.5 7.5a7.5 7.5 0 0 0 7.5-7.5v-12.45a7.5 7.5 0 0 0-7.5-7.5M218.898 233.645c-46.293 0-83.953 32.195-83.953 71.761 0 39.57 37.66 71.762 83.953 71.762 46.29 0 83.95-32.191 83.95-71.762 0-39.566-37.66-71.761-83.95-71.761m0 128.523c-38.023 0-68.953-25.465-68.953-56.762s30.93-56.761 68.953-56.761c38.02 0 68.95 25.464 68.95 56.761 0 31.301-30.93 56.762-68.95 56.762m0 0"/><path d="M190.89 270.426c-13.077 0-23.718 10.64-23.718 23.719v22.523c0 13.078 10.64 23.719 23.719 23.719s23.718-10.64 23.718-23.719v-22.523c0-13.079-10.64-23.72-23.718-23.72m8.72 46.242c0 4.809-3.91 8.719-8.72 8.719s-8.718-3.91-8.718-8.719v-22.523c0-4.805 3.91-8.72 8.719-8.72s8.718 3.915 8.718 8.72zM246.906 270.426c-13.078 0-23.722 10.64-23.722 23.719v22.523c0 13.078 10.644 23.719 23.722 23.719s23.719-10.64 23.719-23.719v-22.523c0-13.079-10.64-23.72-23.719-23.72m8.719 46.242c0 4.809-3.91 8.719-8.719 8.719s-8.722-3.91-8.722-8.719v-22.523c0-4.805 3.914-8.72 8.722-8.72s8.719 3.915 8.719 8.72zm0 0"/><path d="M424.7 80.98c-9.305-10.332-22.04-16.296-35.86-16.804-23.785-.86-59.043 3.86-94.082 30.578a171 171 0 0 0-25.02-11.277c4.184-8.079 6.375-17.04 6.375-26.262C276.113 25.668 250.445 0 218.898 0c-31.55 0-57.214 25.668-57.214 57.215a57.34 57.34 0 0 0 6.39 26.258c-8.457 3.011-16.812 6.761-25.039 11.28C108 68.04 72.738 63.31 48.953 64.18c-13.82.504-26.555 6.472-35.86 16.8C3.79 91.312-.82 104.602.122 118.398c1.668 24.567 10.563 60.532 43.137 93.399-26.535 66.133-15.926 115.191-12.555 128.23a7.507 7.507 0 0 0 9.14 5.383 7.505 7.505 0 0 0 5.384-9.14c-3.055-11.813-4.606-24.704-4.606-38.313 0-48.309 19.707-101.273 52.723-141.684 35.148-43.023 79.738-66.718 125.554-66.718 45.813 0 90.403 23.695 125.555 66.718 33.012 40.41 52.719 93.375 52.719 141.684 0 47.004-17.957 83.094-53.375 107.266-15.633 10.672-24.965 28.222-24.965 46.957v21.191c0 13.031-10.602 23.633-23.633 23.633s-23.629-10.602-23.629-23.633V460.79c0-6.852-2.89-13.45-7.93-18.098a24.52 24.52 0 0 0-18.554-6.406c-16.953 1.371-35.422 1.371-52.379 0a24.53 24.53 0 0 0-18.555 6.406 24.7 24.7 0 0 0-7.925 18.098v12.582c0 13.031-10.602 23.633-23.633 23.633-13.028 0-23.63-10.602-23.63-23.633V452.18c0-18.735-9.331-36.285-24.964-46.957-15.816-10.793-28.312-24.203-37.14-39.852a7.5 7.5 0 0 0-10.22-2.848 7.5 7.5 0 0 0-2.847 10.22c6.234 11.046 14.062 21.093 23.387 30.023v41.304c0 21.063 16.949 38.235 37.925 38.614 4.18 16.812 19.399 29.316 37.489 29.316 21.304 0 38.633-17.328 38.633-38.633V460.79a9.52 9.52 0 0 1 3.097-7.07c1.969-1.817 4.52-2.703 7.172-2.485 17.758 1.438 37.047 1.438 54.8 0 2.653-.218 5.204.664 7.177 2.485a9.52 9.52 0 0 1 3.097 7.07v12.578c0 21.305 17.328 38.633 38.63 38.633 18.09 0 33.312-12.504 37.491-29.316 20.973-.383 37.922-17.551 37.922-38.614v-41.355c27.27-26.227 41.559-61.992 41.559-104.762 0-25.824-5.211-53.367-15.074-79.652-5.078-13.531-11.41-26.766-18.754-39.332 8.054-11.45 12.781-24.258 14.035-38.117.777-8.622-2.09-17.25-7.871-23.668s-14.063-10.168-22.719-10.293c-12.937-.192-25.238 2.699-36.707 8.558-5.336-4.41-10.82-8.5-16.453-12.258 29.918-20.957 59.43-24.757 79.664-24.023 9.73.355 18.7 4.566 25.262 11.852 6.566 7.289 9.816 16.652 9.156 26.363-1.547 22.777-8.816 43.965-21.606 62.972-2.312 3.434-1.398 8.09 2.036 10.41 4.972 3.356 8.96.114 10.41-2.038 14.277-21.223 22.394-44.883 24.125-70.329.937-13.796-3.668-27.085-12.977-37.418M82.18 444.066v-28.82c1.105.8 21.785 15.402 21.785 36.93v15.445c-12.168-.945-21.785-11.144-21.785-23.555m273.433 0c0 12.41-9.613 22.606-21.781 23.555v-15.445c0-24.59 20.676-36.133 21.781-36.934zM15.086 117.38c-.66-9.711 2.59-19.07 9.156-26.36 6.563-7.289 15.535-11.496 25.262-11.851 20.223-.742 49.742 3.062 79.66 24.023a199 199 0 0 0-16.45 12.258c-11.48-5.863-23.812-8.761-36.706-8.558-8.656.12-16.938 3.875-22.719 10.293s-8.648 15.043-7.871 23.668c1.254 13.855 5.98 26.668 14.035 38.117a261 261 0 0 0-9.601 18.023C23.82 168.59 16.512 138.34 15.086 117.38m53.2 47.531c-4.442-7.832-7.11-16.347-7.927-25.41-.41-4.543 1.036-8.902 4.075-12.277s7.226-5.27 11.789-5.336c8.433-.117 16.562 1.39 24.28 4.476-17.835 15.957-27.98 32.266-32.218 38.547m114.48-85.879a42.3 42.3 0 0 1-6.082-21.816C176.684 33.938 195.62 15 218.898 15c23.278 0 42.215 18.938 42.215 42.215a42 42 0 0 1-6.074 21.82c-36.14-7.457-60.371-2.969-72.273-.004m178.808 42.856c4.563.066 8.75 1.96 11.79 5.336 3.038 3.375 4.484 7.734 4.074 12.277-.82 9.063-3.485 17.578-7.926 25.41-4.239-6.281-13.746-20.43-32.219-38.547 7.723-3.086 15.867-4.593 24.281-4.476m0 0"/></svg>