<svg xmlns="http://www.w3.org/2000/svg" width="512pt" height="512pt" viewBox="-19 0 512 512.001"><path fill="#b24e2f" d="M92.293 257.777h373.219v-99.34c0-25.511-20.68-46.195-46.192-46.195H138.145c-25.325 0-45.852 20.531-45.852 45.856zm0 0"/><path fill="#5ad6ff" d="m426.262 309.648-129.09 62.301c-22.192 10.711-48.863 1.406-59.57-20.785l-104.903-217.36c-10.71-22.19-1.406-48.863 20.785-59.574l129.09-62.3c22.192-10.711 48.86-1.403 59.57 20.789l104.903 217.36c10.71 22.19 1.406 48.862-20.785 59.57m0 0"/><path fill="#00c5fd" d="m145.32 159.957 92.282 191.207c10.71 22.191 37.378 31.496 59.57 20.785l129.09-62.3c22.191-10.708 31.496-37.38 20.789-59.57L393.516 139.16c-44.7 10.149-140.137 27.48-248.196 20.797m0 0"/><path fill="#fffcdc" d="M266.027 112.074 254.145 87.45c-4.438-9.191-.582-20.242 8.609-24.68l24.625-11.882c9.191-4.438 20.242-.582 24.676 8.61L323.94 84.12c4.438 9.192.582 20.242-8.609 24.68l-24.625 11.883c-9.195 4.437-20.242.582-24.68-8.61m0 0"/><path fill="#e7896e" d="M419.32 204.629H95.004c-27.98 0-50.66 22.684-50.66 50.66v198.55c0 27.977 22.68 50.661 50.66 50.661H419.32c25.512 0 46.192-20.68 46.192-46.191V158.437c0 25.512-20.68 46.192-46.192 46.192m0 0"/><path fill="#dd6642" d="M125.367 453.84V255.29c0-27.977 22.684-50.661 50.664-50.661H95.004c-27.977 0-50.66 22.684-50.66 50.66v198.55c0 27.977 22.683 50.661 50.66 50.661h81.027c-27.98 0-50.664-22.684-50.664-50.66m0 0"/><path fill="#516980" d="M108.336 398.438H51.375c-24.23 0-43.875-19.645-43.875-43.875s19.645-43.875 43.875-43.875h56.96c24.235 0 43.876 19.644 43.876 43.875 0 24.234-19.64 43.875-43.875 43.875m0 0"/><path fill="#f9ee80" d="M71.316 354.563c0 10.34-8.382 18.722-18.722 18.722-10.336 0-18.719-8.383-18.719-18.722s8.383-18.72 18.719-18.72c10.34 0 18.722 8.38 18.722 18.72m0 0"/><path fill="#fdb2db" d="M244.926 362.906c0-13.183-13.418-23.867-29.973-23.867s-29.976 10.684-29.976 23.867 13.421 23.871 29.976 23.871 29.973-10.687 29.973-23.87M432.922 362.906c0-13.183-13.418-23.867-29.973-23.867-16.554 0-29.976 10.684-29.976 23.867s13.422 23.871 29.976 23.871c16.555 0 29.973-10.687 29.973-23.87m0 0"/><path fill="#454545" d="M329.809 356.86c0-13.641-9.34-24.7-20.86-24.7s-20.86 11.059-20.86 24.7 9.34 24.699 20.86 24.699 20.86-11.059 20.86-24.7m0 0"/><path d="M176.945 96.723a7.5 7.5 0 0 0-3.496 10.015l27.918 57.848c1.297 2.68 4.992 5.715 10.016 3.496 3.789-1.676 5.297-6.285 3.496-10.016l-27.922-57.847a7.495 7.495 0 0 0-10.012-3.496M389.61 322.352a7.5 7.5 0 0 0-7.5 7.5v12.453c0 4.14 3.359 7.5 7.5 7.5s7.5-3.36 7.5-7.5v-12.453a7.5 7.5 0 0 0-7.5-7.5M228.293 322.352a7.5 7.5 0 0 0-7.5 7.5v12.453a7.5 7.5 0 1 0 15 0v-12.453c0-4.141-3.36-7.5-7.5-7.5M78.816 354.563c0-14.458-11.761-26.22-26.222-26.22-14.457 0-26.219 11.762-26.219 26.22 0 14.46 11.762 26.222 26.219 26.222 14.46 0 26.222-11.762 26.222-26.222m-26.222 11.222c-6.188 0-11.219-5.035-11.219-11.222s5.031-11.22 11.219-11.22 11.222 5.032 11.222 11.22-5.035 11.222-11.222 11.222M308.95 324.66c-15.637 0-28.36 14.445-28.36 32.2s12.723 32.199 28.36 32.199 28.359-14.446 28.359-32.2-12.72-32.199-28.36-32.199m0 49.399c-7.364 0-13.36-7.715-13.36-17.2s5.992-17.199 13.36-17.199c7.366 0 13.359 7.715 13.359 17.2s-5.993 17.199-13.36 17.199m0 0"/><path d="M473.012 158.438c0-29.606-24.086-53.692-53.692-53.692h-34.086L371.973 77.27a7.496 7.496 0 0 0-10.012-3.497 7.5 7.5 0 0 0-3.496 10.016l54.7 113.34H275.421L220.434 83.195c-1.801-3.73-6.29-5.297-10.016-3.496a7.505 7.505 0 0 0-3.496 10.016l51.84 107.414h-87.176l-32.133-66.586c-4.312-8.93-4.883-19-1.617-28.36s9.98-16.89 18.91-21.199l129.09-62.3c18.426-8.895 40.66-1.137 49.555 17.293l9.035 18.726c1.8 3.73 6.285 5.3 10.015 3.496 3.73-1.8 5.297-6.285 3.497-10.011l-9.04-18.731c-12.492-25.879-43.703-36.77-69.582-24.281l-129.09 62.3c-24.343 12.672-28.546 36.567-29.015 40.024-21.434 7.184-36.418 27.527-36.418 50.598v39.945c-27.215 4.844-47.95 28.664-47.95 57.246v50.008C15.57 311.582 0 331.285 0 354.567c0 23.171 15.156 42.968 36.844 49.288v49.985c0 32.07 26.09 58.16 58.16 58.16H419.32c29.606 0 53.692-24.086 53.692-53.691zM121.555 123.52a52.5 52.5 0 0 0 4.386 13.543l28.989 60.066H99.793v-39.031c0-14.953 8.754-28.313 21.762-34.578m336.457 334.789c0 21.336-17.356 38.691-38.692 38.691H95.004c-23.797 0-43.16-19.363-43.16-43.16l-.008-55.969c0-3.617-2.613-6.8-6.3-7.394C27.843 387.625 15 372.523 15 354.567c0-20.06 16.32-36.376 36.375-36.376h56.96c20.06 0 36.376 16.317 36.376 36.375 0 20.055-16.316 36.375-36.375 36.375H77.055a7.5 7.5 0 1 0 0 15h31.28c28.33 0 51.376-23.046 51.376-51.379 0-28.328-23.047-51.375-51.375-51.375H51.844V255.29c0-23.797 19.363-43.16 43.16-43.16H419.32c15.184 0 28.914-6.336 38.692-16.504zm-28.809-262.465-36.73-76.098h26.847c21.336 0 38.692 17.356 38.692 38.691 0 0-.684 30.434-28.809 37.407m0 0"/><path d="m284.121 44.133-24.625 11.883c-6.25 3.015-21.45 13.425-12.11 34.691l11.887 24.625c3.016 6.25 14.93 20.84 34.692 12.106l24.625-11.883c6.25-3.016 22.101-11.899 12.105-34.692l-11.882-24.625c-6.231-12.906-21.793-18.332-34.692-12.105m27.95 57.91-24.626 11.887c-8.543 3.312-13.386-2.477-14.66-5.118l-11.887-24.624c-3.921-9.41 2.477-13.387 5.118-14.66L290.64 57.64c7.765-3 12.77 1.199 14.66 5.117l11.887 24.625c4.093 8.594-2.477 13.387-5.118 14.66m0 0"/></svg>