<svg xmlns="http://www.w3.org/2000/svg" width="512pt" height="512pt" viewBox="0 0 512 512"><path fill="#b24e2f" d="M480.54 285.535c-94.954 10.805-147.47-57.207-149.661-60.125l43.21-32.633-.12-.156c1.476 1.902 36.851 46.496 100.277 39.047 14.836-1.742 28.274 8.906 30.012 23.781 1.48 12.66-3.746 27.817-23.719 30.086m0 0"/><path fill="#dd6642" d="M450.191 334.129C357.445 311.019 331.918 228.91 330.88 225.41l51.855-15.457-.054-.191c.718 2.297 18.34 56.468 80.37 71.683 14.509 3.559 23.395 18.239 19.845 32.785-3.024 12.383-13.196 24.758-32.704 19.899m0 0"/><path fill="#dfca00" d="M183.688 76.336c0-32.856-26.567-59.488-59.34-59.488-32.77 0-59.336 26.632-59.336 59.488 0 32.852 26.566 59.484 59.336 59.484 32.773 0 59.34-26.632 59.34-59.484M356.668 76.336c0-32.856-26.566-59.488-59.34-59.488-32.77 0-59.336 26.632-59.336 59.488 0 32.852 26.567 59.484 59.336 59.484 32.774 0 59.34-26.632 59.34-59.484m0 0"/><path fill="#eedb00" d="M270.18 66.988c0-32.855-26.57-59.488-59.34-59.488-32.774 0-59.34 26.633-59.34 59.488s26.566 59.489 59.34 59.489c32.77 0 59.34-26.633 59.34-59.489m0 0"/><path fill="#ffe0b7" d="M414.18 365.71c0 112.583-91.04 138.79-203.34 138.79S7.5 478.293 7.5 365.71c0-112.585 91.04-240.167 203.34-240.167s203.34 127.586 203.34 240.168m0 0"/><path fill="#fdcb89" d="M129.508 404.5c-2.824-26.687 16.488-50.684 43.137-53.86 105.457-12.566 143.664-90.734 143.664-90.734S202.12 255.09 201.348 256c-44.891-32.977-64.23-72.926-71.735-107.578C57.738 190.16 7.5 282.074 7.5 365.71c0 102.812 75.937 133.59 174.645 138.156-36.793-25.262-49.145-66.312-52.637-99.367m0 0"/><path fill="#ffe0b7" d="M381.523 105.902c.653-17.07-16.855-28.726-32.308-21.523-6.266 2.918-13.207 5.516-25.55 5.516-28.204 0-28.204-13.56-56.411-13.56s-28.207 13.56-56.414 13.56-28.207-13.56-56.414-13.56-28.207 13.56-56.414 13.56c-12.34 0-19.282-2.598-25.547-5.516-15.457-7.203-32.965 4.453-32.313 21.523.934 24.309 6.836 61.254 29.239 101.832l141.449 26.383 141.445-26.383c22.402-40.578 28.309-77.523 29.238-101.832m0 0"/><path fill="#fdcb89" d="M127.16 82.66c-7.379 3.535-14.418 7.235-29.148 7.235-12.34 0-19.282-2.598-25.547-5.516-15.457-7.203-32.965 4.453-32.313 21.523.934 24.309 6.836 61.254 29.239 101.832l99.386 18.54c-46.988-53.82-45.52-115.364-41.617-143.614m0 0"/><path fill="#e7896e" d="M210.84 272.484c-53.883 0-107.77-9.71-159.05-29.136-14.72-5.578-22.145-22.063-16.583-36.817 5.563-14.758 22.012-22.195 36.723-16.625 89.582 33.938 188.242 33.934 277.816 0 14.723-5.574 31.16 1.867 36.723 16.625 5.562 14.754-1.86 31.239-16.578 36.817a448.9 448.9 0 0 1-159.051 29.136m0 0"/><path fill="#dd6642" d="M35.207 206.531c-5.562 14.754 1.86 31.239 16.582 36.817a449.7 449.7 0 0 0 67.899 19.777c-1.899-.418-22.09-5.422-21.786-29.008.317-24.004 21.88-29.488 21.88-29.488A393 393 0 0 1 71.93 189.91c-14.711-5.574-31.16 1.863-36.723 16.621m0 0"/><path fill="#ff83b4" d="M146.816 355.887c0-13.18-13.418-23.867-29.972-23.867-16.551 0-29.973 10.687-29.973 23.867 0 13.183 13.422 23.87 29.973 23.87 16.554 0 29.972-10.687 29.972-23.87M334.809 355.887c0-13.18-13.422-23.867-29.973-23.867-16.555 0-29.977 10.687-29.977 23.867 0 13.183 13.422 23.87 29.977 23.87 16.55 0 29.973-10.687 29.973-23.87m0 0"/><path d="M210.84 352.012c9.707 0 19.414-3.14 27.512-9.422a7.5 7.5 0 0 0 1.328-10.524 7.496 7.496 0 0 0-10.52-1.332 29.88 29.88 0 0 1-36.64 0 7.5 7.5 0 0 0-10.524 1.332 7.503 7.503 0 0 0 1.328 10.524 44.83 44.83 0 0 0 27.516 9.422M125.063 337.625c1.636-2.496 4.124-2.766 5.12-2.766s3.442.301 5.122 2.766c3.504 5.145 9.117 2.984 10.386 2.152a7.503 7.503 0 0 0 2.153-10.386 21.07 21.07 0 0 0-17.66-9.532 21.07 21.07 0 0 0-17.66 9.532 7.503 7.503 0 0 0 2.152 10.386c3.46 2.274 8.11 1.309 10.386-2.152M286.371 337.625c1.64-2.496 4.129-2.766 5.121-2.766.996 0 3.446.301 5.125 2.766 3.504 5.145 9.117 2.984 10.387 2.152a7.5 7.5 0 0 0 2.148-10.386 21.06 21.06 0 0 0-17.66-9.532 21.06 21.06 0 0 0-17.656 9.532 7.5 7.5 0 0 0 2.148 10.386 7.5 7.5 0 0 0 10.387-2.152m0 0"/><path d="M511.707 254.578c-1.07-9.18-5.648-17.394-12.887-23.129-7.242-5.738-16.28-8.308-25.449-7.23-37.992 4.465-65.258-10.711-81.437-24.227l-.118.137c-6.21-12.074-18.695-17.012-19.449-17.293 12.43-31.149 15.957-58.563 16.649-76.645.41-10.66-4.63-20.535-13.477-26.414-8.828-5.867-19.855-6.687-29.492-2.199-5.445 2.535-11.254 4.813-22.383 4.813-12.39 0-18.215-2.797-24.953-6.04-5.535-2.66-11.633-5.585-21.082-6.859.027-.836.773-21.93-9.145-36.347a51.7 51.7 0 0 1 28.844-8.797c19.945 0 37.793 11.164 46.578 29.136 1.301 2.66 5.59 5.75 10.031 3.442 3.676-1.91 5.266-6.309 3.446-10.031-11.324-23.16-34.332-37.547-60.055-37.547a66.7 66.7 0 0 0-37.836 11.78C247.297 8.138 230.004 0 210.84 0s-36.457 8.137-48.656 21.129a66.7 66.7 0 0 0-37.836-11.781c-36.473 0-66.2 29.433-66.809 65.847a30.2 30.2 0 0 0-11.398 4.582c-8.848 5.88-13.887 15.754-13.48 26.414.69 18.082 4.222 45.497 16.648 76.649-9.172 2.18-17.72 12.023-21.121 21.047-4.704 12.48-2.008 25.968 5.875 35.62C12.07 279.638 0 324.243 0 365.712c0 38.226 10.363 69.281 30.797 92.309 1.484 1.671 6.098 4.484 10.59.632 3.144-2.699 3.379-7.492.629-10.59C23.836 427.579 15 400.642 15 365.712c0-38.215 10.965-79.375 30.984-116.723 1.016.5 67.118 31 164.856 31 97.734 0 163.836-30.5 164.851-31 20.012 37.344 30.989 78.547 30.989 116.723 0 49.684-18.227 84.055-55.727 105.07C319.477 488.426 273.645 497 210.84 497c-67.762 0-116.035-10.059-147.582-30.746a7.5 7.5 0 0 0-10.387 2.156 7.504 7.504 0 0 0 2.16 10.387C89.571 501.449 139.082 512 210.84 512c90.508 0 210.84-15.164 210.84-146.29 0-11.241-.899-22.722-2.633-34.284 9.348 4.094 19.09 7.73 29.328 9.976 26.59 5.844 39.41-15.57 41.805-25.394 2.058-8.442.816-16.926-2.887-24.098 7.379-1.883 13.43-5.62 17.7-11.004 5.503-6.937 7.89-16.285 6.714-26.328M210.84 15c46.793 0 53.125 49.324 51.797 53.965-12.871.691-20.258 4.226-26.84 7.387-6.742 3.242-12.563 6.039-24.957 6.039-12.399 0-18.219-2.797-24.961-6.04-6.582-3.163-13.969-6.695-26.84-7.386-.246-5.961 5.008-53.965 51.8-53.965m-86.492 9.348a51.7 51.7 0 0 1 28.843 8.797c-10.367 16.94-9.171 35.511-9.14 36.347-9.453 1.274-15.547 4.2-21.082 6.86-6.742 3.242-12.563 6.039-24.957 6.039-17.41 0-24.461-5.7-25.52-6.059h.02c0-28.664 23.254-51.984 51.836-51.984M54.44 92.27c4.508-2.993 9.922-3.391 14.856-1.094 6.457 3.008 14.531 6.215 28.715 6.215 15.812 0 24.125-3.993 31.457-7.52 6.742-3.238 12.562-6.039 24.957-6.039s18.219 2.8 24.957 6.04c7.336 3.526 15.644 7.519 31.457 7.519 15.816 0 24.125-3.993 31.457-7.52 6.742-3.238 12.562-6.039 24.96-6.039 12.391 0 18.216 2.8 24.958 6.04 7.332 3.526 15.64 7.519 31.453 7.519 14.184 0 22.262-3.207 28.715-6.215 4.933-2.301 10.351-1.899 14.855 1.094 4.461 2.964 7 7.953 6.793 13.347-.672 17.528-4.207 44.469-16.972 75.043-3.368.266-75.926 27.195-146.215 27.195S67.988 180.925 64.62 180.66c-12.766-30.574-16.3-57.515-16.973-75.043-.207-5.394 2.332-10.383 6.793-13.347M210.84 264.984c-53.582 0-106.203-9.636-156.395-28.652-10.836-4.102-16.316-16.285-12.222-27.156 1.988-5.27 8.562-18.887 27.047-12.254 45.949 16.484 93.601 25.937 141.57 25.937 47.953-.004 95.746-9.125 141.562-25.937 16.59-6.086 25.063 6.984 27.047 12.254 4.098 10.87-1.383 23.05-12.219 27.156-50.19 19.016-102.808 28.652-156.39 28.652m264.77 47.47c-1.426 5.831-9.278 17.878-23.606 14.398-12.875-3.13-25.067-7.801-36.375-13.664-6.067-34.375-27.285-74.598-26.938-75.067 12.504 18.738 34.805 41.344 72.57 50.61 10.477 2.57 16.915 13.21 14.348 23.722m-.52-33.915a34.4 34.4 0 0 0-10.254-4.379c-38.977-9.558-59.191-35.3-68.715-52.683 17.531 10.941 44.367 21.582 79 17.64 17.2-1.957 21.617 11.961 21.688 17.203.312 22.723-20.184 22.086-21.72 22.22m0 0"/></svg>