<svg xmlns="http://www.w3.org/2000/svg" width="512pt" height="512pt" viewBox="0 -15 512 512"><path fill="#5ad6ff" d="M125.477 388.52H62.793c-30.54 0-55.293-24.758-55.293-55.293v-97.512c0-10.3 12.336-15.586 19.793-8.48l20.387 19.417c8.726 8.313 22.175 9.11 31.824 1.891l45.973-35.113zm0 0"/><path fill="#a4e7ff" d="M158.465 7.5c-22.3 0-40.38 18.078-40.38 40.379v285.348c0 30.539-24.753 55.293-55.292 55.293h339.148V47.879c0-22.3-18.078-40.379-40.378-40.379zm0 0"/><path fill="#5ad6ff" d="M401.938 388.52V57.37h-113.75c-54.723 0-99.247 44.524-99.247 99.246V388.52zm0 0"/><path fill="#6a829a" d="M455.7 474.895H289.39c-26.949 0-48.796-21.848-48.796-48.797V158.285c0-26.953 21.847-48.8 48.797-48.8h166.308c26.953 0 48.801 21.847 48.801 48.8v267.813c0 26.949-21.848 48.797-48.8 48.797m0 0"/><path fill="#b0f0ef" d="M441.191 232.906H303.902c-12.543 0-22.707-10.168-22.707-22.707v-40.863c0-12.543 10.164-22.707 22.707-22.707h137.29c12.542 0 22.706 10.164 22.706 22.707v40.863c0 12.54-10.168 22.707-22.707 22.707m0 0"/><path fill="#76e7e7" d="M441.191 146.629H303.902c-12.543 0-22.707 10.164-22.707 22.707v29.906c0-12.543 10.164-22.707 22.707-22.707h137.29c12.542 0 22.706 10.164 22.706 22.707v-29.906c0-12.543-10.168-22.707-22.707-22.707m0 0"/><path fill="#f9ee80" d="M311.027 301.223h-17.172c-6.992 0-12.66-5.668-12.66-12.66v-17.176c0-6.992 5.668-12.66 12.66-12.66h17.172c6.993 0 12.66 5.668 12.66 12.66v17.175c0 6.993-5.667 12.66-12.66 12.66M381.133 301.223H363.96c-6.992 0-12.66-5.668-12.66-12.66v-17.176c0-6.992 5.668-12.66 12.66-12.66h17.172c6.992 0 12.66 5.668 12.66 12.66v17.175c0 6.993-5.668 12.66-12.66 12.66m0 0"/><g fill="#5ad6ff"><path d="M311.027 369.54h-17.172c-6.992 0-12.66-5.669-12.66-12.661v-17.176c0-6.988 5.668-12.656 12.66-12.656h17.172c6.993 0 12.66 5.668 12.66 12.656v17.176c0 6.992-5.667 12.66-12.66 12.66M381.133 369.54H363.96c-6.992 0-12.66-5.669-12.66-12.661v-17.176c0-6.988 5.668-12.656 12.66-12.656h17.172c6.992 0 12.66 5.668 12.66 12.656v17.176c0 6.992-5.668 12.66-12.66 12.66M311.027 437.855h-17.172c-6.992 0-12.66-5.667-12.66-12.66v-17.172c0-6.992 5.668-12.66 12.66-12.66h17.172c6.993 0 12.66 5.668 12.66 12.66v17.172c0 6.993-5.667 12.66-12.66 12.66M381.133 437.855H363.96c-6.992 0-12.66-5.667-12.66-12.66v-17.172c0-6.992 5.668-12.66 12.66-12.66h17.172c6.992 0 12.66 5.668 12.66 12.66v17.172c0 6.993-5.668 12.66-12.66 12.66m0 0"/></g><path fill="#f9ee80" d="M451.238 301.223h-17.172c-6.992 0-12.664-5.668-12.664-12.66v-17.176c0-6.992 5.672-12.66 12.664-12.66h17.172c6.992 0 12.66 5.668 12.66 12.66v17.175c0 6.993-5.668 12.66-12.66 12.66m0 0"/><path fill="#fab658" d="M451.238 437.855h-17.172c-6.992 0-12.664-5.667-12.664-12.66v-85.492c0-6.992 5.672-12.66 12.664-12.66h17.172c6.992 0 12.66 5.672 12.66 12.66v85.492c0 6.993-5.668 12.66-12.66 12.66m0 0"/><path d="M419.953 174.656a7.497 7.497 0 0 0-7.5 7.5v12.45a7.5 7.5 0 1 0 15 0v-12.45c0-4.144-3.355-7.5-7.5-7.5M325.14 174.656a7.497 7.497 0 0 0-7.5 7.5v12.45a7.5 7.5 0 1 0 15 0v-12.45a7.5 7.5 0 0 0-7.5-7.5M388.055 184.96c-1.27-.831-6.883-2.991-10.387 2.153-1.68 2.465-4.129 2.766-5.121 2.766s-3.485-.27-5.121-2.766c-2.278-3.46-6.926-4.425-10.387-2.152a7.5 7.5 0 0 0-2.152 10.387c3.918 5.968 10.52 9.53 17.66 9.53s13.738-3.562 17.66-9.53a7.503 7.503 0 0 0-2.152-10.387m0 0"/><path d="M455.7 101.984h-46.262V47.88C409.438 21.48 387.96 0 361.558 0H158.466c-26.399 0-47.88 21.48-47.88 47.879v27.285a7.5 7.5 0 0 0 7.5 7.5c4.145 0 7.5-3.355 7.5-7.5V47.88c0-18.129 14.75-32.879 32.88-32.879h203.094c18.132 0 32.878 14.75 32.878 32.879v54.105H289.392a55.9 55.9 0 0 0-29.918 8.645h-89.825a7.5 7.5 0 1 0 0 15h73.926c-11.207 15.133-10.48 38.254-10.48 38.254h-63.446a7.5 7.5 0 1 0 0 15h63.446v38.254h-63.446c-4.14 0-7.5 3.36-7.5 7.5s3.36 7.5 7.5 7.5h63.446v38.254h-63.446a7.5 7.5 0 1 0 0 15h63.446v38.257h-63.446a7.5 7.5 0 1 0 0 15h63.446v42.372H103.48c13.52-11.528 22.106-28.676 22.106-47.793V105.793a7.5 7.5 0 0 0-7.5-7.5 7.5 7.5 0 0 0-7.5 7.5v109.57l-35.574 27.172a17.145 17.145 0 0 1-22.16-1.316L32.465 221.8c-5.656-5.39-13.637-6.828-20.82-3.746C4.46 221.133 0 227.898 0 235.715v97.512c0 34.625 28.168 62.793 62.793 62.793h170.3v30.078c0 31.043 25.255 56.3 56.298 56.3h166.308c31.043 0 56.301-25.257 56.301-56.3V158.285c0-31.043-25.254-56.3-56.3-56.3M62.792 381.02C36.441 381.02 15 359.578 15 333.227v-97.512c0-2.508 1.785-3.543 2.555-3.875.77-.328 2.75-.906 4.566.824l20.387 19.418c11.418 10.871 28.863 11.91 41.55 2.418l26.528-20.262v98.989c0 26.351-21.441 47.793-47.793 47.793M497 426.098c0 22.773-18.527 41.297-41.3 41.297H289.39c-22.773 0-41.296-18.524-41.296-41.297V158.285c0-22.773 18.523-41.3 41.297-41.3h166.308c22.774 0 41.301 18.527 41.301 41.3zm0 0"/><path d="M441.191 139.129H303.902c-16.656 0-30.21 13.55-30.21 30.207v40.863c0 16.656 13.55 30.207 30.21 30.207h137.29c16.656 0 30.206-13.55 30.206-30.207v-40.863c0-16.656-13.55-30.207-30.207-30.207m15.207 71.07c0 8.383-6.82 15.207-15.207 15.207H303.902c-8.386 0-15.207-6.824-15.207-15.207v-40.863c0-8.387 6.82-15.207 15.207-15.207h137.29c8.386 0 15.206 6.82 15.206 15.207zM311.027 251.227h-17.172c-11.117 0-20.16 9.043-20.16 20.16v17.176c0 11.113 9.043 20.16 20.16 20.16h17.172c11.118 0 20.16-9.047 20.16-20.16v-17.176c0-11.117-9.042-20.16-20.16-20.16m5.16 37.335a5.17 5.17 0 0 1-5.16 5.16h-17.172a5.166 5.166 0 0 1-5.16-5.16v-17.175a5.166 5.166 0 0 1 5.16-5.16h17.172a5.17 5.17 0 0 1 5.16 5.16zM381.133 251.227H363.96c-11.117 0-20.16 9.043-20.16 20.16v17.176c0 11.113 9.043 20.16 20.16 20.16h17.172c11.117 0 20.16-9.047 20.16-20.16v-17.176c0-11.117-9.043-20.16-20.16-20.16m5.16 37.335a5.17 5.17 0 0 1-5.16 5.16H363.96a5.166 5.166 0 0 1-5.16-5.16v-17.175a5.166 5.166 0 0 1 5.16-5.16h17.172a5.17 5.17 0 0 1 5.16 5.16zM311.027 319.547h-17.172c-11.117 0-20.16 9.043-20.16 20.156v17.176c0 11.117 9.043 20.16 20.16 20.16h17.172c11.118 0 20.16-9.043 20.16-20.16v-17.176c0-11.113-9.042-20.156-20.16-20.156m5.16 37.332a5.17 5.17 0 0 1-5.16 5.16h-17.172a5.166 5.166 0 0 1-5.16-5.16v-17.176a5.16 5.16 0 0 1 5.16-5.156h17.172a5.165 5.165 0 0 1 5.16 5.156zM381.133 319.547H363.96c-11.117 0-20.16 9.043-20.16 20.156v17.176c0 11.117 9.043 20.16 20.16 20.16h17.172c11.117 0 20.16-9.043 20.16-20.16v-17.176c0-11.113-9.043-20.156-20.16-20.156m5.16 37.332a5.17 5.17 0 0 1-5.16 5.16H363.96a5.166 5.166 0 0 1-5.16-5.16v-17.176a5.16 5.16 0 0 1 5.16-5.156h17.172a5.165 5.165 0 0 1 5.16 5.156zM311.027 387.863h-17.172c-11.117 0-20.16 9.043-20.16 20.16v17.172c0 11.118 9.043 20.16 20.16 20.16h17.172c11.118 0 20.16-9.042 20.16-20.16v-17.172c0-11.117-9.042-20.16-20.16-20.16m5.16 37.332a5.17 5.17 0 0 1-5.16 5.16h-17.172a5.166 5.166 0 0 1-5.16-5.16v-17.172a5.163 5.163 0 0 1 5.16-5.16h17.172a5.166 5.166 0 0 1 5.16 5.16zM381.133 387.863H363.96c-11.117 0-20.16 9.043-20.16 20.16v17.172c0 11.118 9.043 20.16 20.16 20.16h17.172c11.117 0 20.16-9.042 20.16-20.16v-17.172c0-11.117-9.043-20.16-20.16-20.16m5.16 37.332a5.17 5.17 0 0 1-5.16 5.16H363.96a5.166 5.166 0 0 1-5.16-5.16v-17.172a5.163 5.163 0 0 1 5.16-5.16h17.172a5.166 5.166 0 0 1 5.16 5.16zM451.238 251.227h-17.172c-11.117 0-20.164 9.043-20.164 20.16v17.172c0 11.117 9.047 20.164 20.164 20.164h17.172c11.117 0 20.16-9.047 20.16-20.164v-17.172c0-11.114-9.043-20.16-20.16-20.16m5.16 37.335a5.166 5.166 0 0 1-5.16 5.16h-17.172a5.17 5.17 0 0 1-5.164-5.16v-17.175a5.17 5.17 0 0 1 5.164-5.16h17.172a5.166 5.166 0 0 1 5.16 5.16zM451.238 319.547h-17.172c-11.117 0-20.164 9.043-20.164 20.16v85.488c0 11.118 9.047 20.16 20.164 20.16h17.172c11.117 0 20.16-9.042 20.16-20.16v-8.586c0-4.14-3.359-7.5-7.5-7.5-4.14 0-7.5 3.36-7.5 7.5v8.586a5.163 5.163 0 0 1-5.16 5.16h-17.172a5.166 5.166 0 0 1-5.164-5.16v-85.488a5.166 5.166 0 0 1 5.164-5.16h17.172a5.163 5.163 0 0 1 5.16 5.16v45.672a7.5 7.5 0 0 0 7.5 7.5 7.5 7.5 0 0 0 7.5-7.5v-45.672c0-11.117-9.043-20.16-20.16-20.16M169.648 72.371h180.73a7.5 7.5 0 1 0 0-15h-180.73a7.5 7.5 0 1 0 0 15m0 0"/></svg>