<svg xmlns="http://www.w3.org/2000/svg" width="512pt" height="512pt" viewBox="0 -23 512 512"><path fill="#2eddda" d="M209.14 72.988 54.724 169.273A100.29 100.29 0 0 0 7.5 254.367V393.34c0 36.535 29.617 66.152 66.152 66.152h364.696c36.535 0 66.152-29.617 66.152-66.152V254.367a100.29 100.29 0 0 0-47.223-85.094L302.86 72.988c-28.68-17.883-65.039-17.883-93.718 0m0 0"/><path fill="#00a62c" d="m352.98 324.586-106.804-31.488c-18.867-5.563-29.653-25.364-24.09-44.23l63.621-215.821c5.563-18.863 25.367-29.652 44.23-24.09l106.81 31.488c18.862 5.563 29.651 25.364 24.089 44.23L397.21 300.497c-5.563 18.863-25.363 29.649-44.23 24.09m0 0"/><g fill="#00c140"><path d="m349.078 14.602-19.14-5.645c-18.864-5.562-38.668 5.227-44.231 24.09l-5.64 19.14c29.437 8.68 60.331-8.148 69.011-37.585M455.191 103.813l5.645-19.137c5.559-18.867-5.227-38.668-24.094-44.23L417.605 34.8c-8.675 29.437 8.153 60.336 37.586 69.012M227.727 229.727l-5.641 19.14c-5.563 18.867 5.223 38.668 24.09 44.23l19.137 5.645c8.68-29.437-8.149-60.336-37.586-69.015M397.21 300.496l5.642-19.14c-29.434-8.68-60.332 8.148-69.012 37.585l19.14 5.645c18.868 5.559 38.668-5.227 44.23-24.09M391.848 166.77c0 27.832-22.559 50.39-50.387 50.39s-50.39-22.558-50.39-50.39c0-27.829 22.562-50.387 50.39-50.387s50.387 22.558 50.387 50.387m0 0"/></g><path fill="#29ce69" d="m224.738 342.688-106.804-31.489c-18.868-5.562-29.653-25.363-24.09-44.23l63.62-215.82c5.563-18.864 25.364-29.649 44.231-24.09L308.5 58.547c18.867 5.562 29.652 25.363 24.09 44.23l-63.621 215.82c-5.563 18.864-25.364 29.65-44.23 24.09m0 0"/><path fill="#73da8c" d="m220.836 32.703-19.14-5.644c-18.868-5.559-38.669 5.226-44.231 24.09l-5.64 19.14c29.437 8.68 60.331-8.152 69.01-37.586M326.95 121.918l5.64-19.14c5.562-18.868-5.223-38.669-24.09-44.231l-19.137-5.645c-8.68 29.438 8.149 60.336 37.586 69.016M99.484 247.832l-5.64 19.137c-5.563 18.867 5.222 38.668 24.09 44.23l19.136 5.645c8.68-29.438-8.148-60.336-37.586-69.012M268.969 318.598l5.64-19.141c-29.433-8.68-60.332 8.148-69.011 37.586l19.14 5.644c18.867 5.56 38.668-5.226 44.23-24.09m0 0"/><path fill="#76e7e7" d="M256 307.57 20.758 204.535A100.2 100.2 0 0 0 7.5 254.367V393.34c0 36.535 29.617 66.152 66.152 66.152h364.696c36.535 0 66.152-29.617 66.152-66.152V254.367c0-17.773-4.703-34.894-13.258-49.832zm0 0"/><path fill="#2eddda" d="M504.5 345.484c-82.074-14.14-141.82-57.593-163.305-75.23L256 307.57l-85.195-37.316c-21.485 17.637-81.23 61.09-163.305 75.23v47.856c0 36.535 29.617 66.152 66.152 66.152h364.696c36.535 0 66.152-29.617 66.152-66.152zm0 0"/><path fill="#b0f0ef" d="M221.535 269.262 28.027 441.242c11.871 11.305 27.938 18.25 45.625 18.25h364.696c17.687 0 33.754-6.941 45.62-18.246L290.466 269.262c-19.656-17.465-49.274-17.465-68.93 0m0 0"/><path fill="#73da8c" d="M263.605 184.875c0 27.828-22.558 50.387-50.386 50.387-27.832 0-50.39-22.559-50.39-50.387 0-27.832 22.558-50.39 50.39-50.39 27.828 0 50.386 22.558 50.386 50.39m0 0"/><path fill="#fdb2db" d="M200.184 394.55c0-9.077-9.243-16.437-20.641-16.437-11.402 0-20.64 7.36-20.64 16.438s9.238 16.433 20.64 16.433c11.398 0 20.64-7.355 20.64-16.433M353.098 394.55c0-9.077-9.239-16.437-20.641-16.437-11.398 0-20.64 7.36-20.64 16.438s9.242 16.433 20.64 16.433c11.402 0 20.64-7.355 20.64-16.433m0 0"/><path d="M317.805 364.328a7.5 7.5 0 0 0-7.5 7.5v12.45a7.5 7.5 0 0 0 7.5 7.5c4.144 0 7.5-3.356 7.5-7.5v-12.45c0-4.144-3.356-7.5-7.5-7.5M194.195 364.328a7.497 7.497 0 0 0-7.5 7.5v12.45c0 4.144 3.356 7.5 7.5 7.5a7.5 7.5 0 0 0 7.5-7.5v-12.45a7.5 7.5 0 0 0-7.5-7.5M271.508 374.633c-1.27-.832-6.88-2.992-10.387 2.152-1.68 2.469-4.129 2.766-5.121 2.766s-3.484-.274-5.121-2.766a7.5 7.5 0 1 0-12.54 8.234c3.923 5.97 10.52 9.532 17.661 9.532s13.738-3.563 17.66-9.531a7.5 7.5 0 0 0-2.152-10.387M213.215 242.645h.16c31.848 0 57.8-25.868 57.887-57.73.086-31.919-25.813-57.958-57.73-58.048h-.16c-31.845 0-57.802 25.867-57.888 57.73-.086 31.923 25.813 57.962 57.73 58.048m.156-100.778h.121c23.649.067 42.836 19.356 42.77 43.008-.063 23.61-19.29 42.77-42.887 42.77h-.117c-23.649-.063-42.836-19.356-42.774-43.004.067-23.61 19.293-42.774 42.887-42.774m0 0"/><path d="m448.02 154.664 20.007-67.867c9.723-40.555-18.117-50.29-29.164-53.547L332.06 1.766c-22.805-6.723-46.82 6.359-53.543 29.16l-2.946 9.984-71.148-21.183c-22.785-6.786-46.84 6.23-53.625 29.015l-18.934 63.594-81.11 50.574C18.974 182.727 0 216.918 0 254.367V393.34c0 63.887 54.3 73.652 73.652 73.652h364.696c40.613 0 73.652-33.043 73.652-73.652V254.367c0-71.664-63.98-99.703-63.98-99.703m32.27 46.477-52.786 23.12 16.117-54.663c-.004 0 23.379 11.894 36.668 31.543m-186.833 60.832 14.332-48.133c9.742 6.965 21.504 10.82 33.672 10.82 31.918 0 57.887-25.969 57.887-57.89 0-31.918-24.075-57.711-60.328-57.813 0 0 13.289-35.195-17.278-52.668 14.11-6.441 25.688-17.96 31.969-32.504l55.023 16.223c-4.851 28.582 10.63 57.008 37.274 68.437L409.547 232.13l-100.2 43.887s-15.218-13.496-15.89-14.043m1.547-199.625 11.855 3.53c7.2 2.142 24.957 10.278 18.922 34.966l-3.383 11.37c-9.304-4.3-16.957-11.44-21.949-20.609-4.933-9.058-6.789-19.222-5.445-29.257m39.394 62.129c26.247-4.63 49.95 18.648 49.95 42.293 0 23.648-19.239 42.89-42.887 42.89a42.94 42.94 0 0 1-29.05-11.347zm119.243-41.922-3.356 11.379c-18.758-8.895-29.746-29.063-27.043-49.649l11.383 3.356c7.203 2.12 24.328 11.933 19.016 34.914M292.902 35.168c4.383-14.867 20.047-23.398 34.918-19.016l11.364 3.352c-7.848 16.426-24.696 27.414-43.247 27.465v.008l-5.988-1.786zm-92.757-1.066 10.937 3.257c-4.305 9.258-11.422 16.871-20.555 21.844-8.93 4.863-18.933 6.727-28.828 5.496l3.477-11.676c4.422-14.855 20.11-23.343 34.969-18.921M58.687 175.64l66.711-41.598-6.035 20.266c-1.18 3.968 1.078 8.148 5.051 9.328a7.5 7.5 0 0 0 9.328-5.047l23.63-79.36c3.41.567 21.007 2.727 40.327-6.855 12.903-6.398 22.336-17.637 27.863-30.703L280.5 58.027c-2.402 13.926-.086 28.157 6.777 40.754 6.907 12.68 17.696 22.39 30.813 27.91L280.23 253.84c-20.812-9.3-45.835-6.035-63.675 9.82l-13.903 12.356-91.89-40.25 13.59-45.637c1.18-3.969-1.079-8.149-5.047-9.328a7.497 7.497 0 0 0-9.328 5.047l-13.059 43.855-65.207-28.562c7.047-10.043 16.144-18.746 26.977-25.5M15 254.367c0-14.219 3.18-27.887 9.078-40.191l166.23 72.808-161.78 143.778C20.085 420.598 15 407.555 15 393.34zM497 393.34c0 32.34-26.312 58.652-58.652 58.652H73.652c-12.707 0-24.472-4.078-34.086-10.969L226.52 274.871c16.808-14.937 42.156-14.937 58.96 0l167.91 149.227a7.5 7.5 0 0 0 10.59-.621c2.75-3.098 2.473-7.84-.625-10.59L321.691 286.984l166.23-72.808c5.9 12.304 9.079 25.972 9.079 40.191zm0 0"/></svg>