<svg xmlns="http://www.w3.org/2000/svg" width="512pt" height="512pt" viewBox="0 -32 512 512"><path fill="#00b4fd" d="M410.473 326.281H73.336c-36.36 0-65.836-29.476-65.836-65.836V73.434C7.5 37.07 36.977 7.598 73.336 7.598h337.137c36.363 0 65.836 29.472 65.836 65.836v187.011c0 36.36-29.477 65.836-65.836 65.836m0 0"/><path fill="#0092e2" d="M113.938 260.445V73.434c0-36.364 29.472-65.836 65.835-65.836H73.336C36.976 7.598 7.5 37.07 7.5 73.434v187.011c0 36.36 29.477 65.836 65.836 65.836h106.437c-36.363 0-65.835-29.476-65.835-65.836m0 0"/><path fill="#516980" d="M485.648 324.996H447.61v-97.402c0-22.75-18.507-41.258-41.257-41.258s-41.258 18.508-41.258 41.258v97.402h-38.035v-97.402c0-43.723 35.57-79.293 79.293-79.293 43.722 0 79.296 35.57 79.296 79.293zm0 0"/><path fill="#f4e74d" d="M467.082 440.25H345.625c-20.664 0-37.418-16.754-37.418-37.418v-68.039c0-54.203 43.941-98.145 98.145-98.145 54.207 0 98.148 43.942 98.148 98.145v68.039c0 20.664-16.754 37.418-37.418 37.418m0 0"/><path fill="#516980" d="M443.93 328.469c0-21.551-18.145-38.867-39.989-37.5-19.34 1.207-34.796 17.406-35.16 36.781-.207 11.059 4.367 21.047 11.797 28.05 4.711 4.442 7.246 10.727 7.246 17.204v17.418c0 10.234 8.293 18.531 18.528 18.531s18.53-8.297 18.53-18.531v-17.418c0-6.645 2.817-12.918 7.595-17.535 7.062-6.828 11.453-16.399 11.453-27m0 0"/><path fill="#3e4f61" d="M403.941 323.617c15.914-.996 29.856 7.938 36.258 21.188a37.4 37.4 0 0 0 3.73-16.336c0-21.551-18.144-38.867-39.988-37.5-19.34 1.207-34.796 17.406-35.16 36.781a37.5 37.5 0 0 0 3.746 17.102c5.77-11.856 17.602-20.375 31.414-21.235m0 0"/><path fill="#fffcdc" d="M120.363 148.297H85.008c-14.293 0-25.875-11.582-25.875-25.875V87.066c0-14.289 11.582-25.875 25.875-25.875h35.355c14.29 0 25.875 11.586 25.875 25.875v35.356c0 14.293-11.586 25.875-25.875 25.875m0 0"/><path fill="#f9ee80" d="M113.938 148.297V73.434c0-4.188.386-8.274 1.136-12.243H85.008c-14.293 0-25.875 11.586-25.875 25.875v35.356c0 14.293 11.586 25.875 25.875 25.875zm0 0"/><path fill="#516980" d="M224.926 216.383H77.012c-9.875 0-17.88-8.004-17.88-17.88s8.005-17.878 17.88-17.878h147.914c9.875 0 17.879 8.004 17.879 17.879s-8.004 17.879-17.88 17.879M160.191 280.246h-83.18c-9.874 0-17.878-8.004-17.878-17.879s8.004-17.879 17.879-17.879h83.18c9.874 0 17.882 8.004 17.882 17.88s-8.008 17.878-17.883 17.878m0 0"/><path fill="#3e4f61" d="M77.012 180.625c-9.875 0-17.88 8.004-17.88 17.879s8.005 17.883 17.88 17.883h36.926v-35.762zM59.133 262.367c0 9.875 8.004 17.88 17.879 17.88h39.957a65.7 65.7 0 0 1-3.031-19.802v-15.957H77.012c-9.875 0-17.88 8.004-17.88 17.88m0 0"/><path fill="#fdb2db" d="M252.39 111.336c0-9.078-9.242-16.438-20.644-16.438-11.398 0-20.64 7.36-20.64 16.438s9.242 16.437 20.64 16.437c11.402 0 20.645-7.359 20.645-16.437M405.305 111.336c0-9.078-9.243-16.438-20.64-16.438-11.4 0-20.642 7.36-20.642 16.438s9.243 16.437 20.641 16.437c11.399 0 20.64-7.359 20.64-16.437m0 0"/><path d="M308.207 111.336a21.08 21.08 0 0 0 17.66-9.527 7.503 7.503 0 0 0-2.152-10.387c-1.27-.832-6.883-2.992-10.387 2.152a6.18 6.18 0 0 1-5.121 2.762c-.996 0-3.484-.27-5.125-2.762a7.5 7.5 0 1 0-12.535 8.235 21.07 21.07 0 0 0 17.66 9.527M244.012 97.086a3.37 3.37 0 0 1 2.386-.988c.524 0 1.457.207 2.387.988 4.738 3.96 9.145 1.465 10.61 0a7.497 7.497 0 0 0 0-10.606 18.25 18.25 0 0 0-12.997-5.382c-4.906 0-9.52 1.91-12.992 5.382a7.497 7.497 0 0 0 0 10.606 7.497 7.497 0 0 0 10.606 0M367.625 97.086a3.36 3.36 0 0 1 2.387-.988c.523 0 1.453.207 2.386.988 4.735 3.96 9.145 1.465 10.61 0a7.497 7.497 0 0 0 0-10.606 18.25 18.25 0 0 0-12.996-5.382c-4.907 0-9.524 1.91-12.992 5.382a7.497 7.497 0 0 0 0 10.606 7.497 7.497 0 0 0 10.605 0m0 0"/><path d="M504.5 333.86a7.497 7.497 0 0 0-7.5 7.5v61.472c0 16.496-13.422 29.918-29.918 29.918H345.625c-16.496 0-29.918-13.422-29.918-29.918v-68.039c0-49.98 40.664-90.645 90.645-90.645 41.957 0 78.175 28.426 88.082 69.13a7.5 7.5 0 0 0 9.058 5.515 7.505 7.505 0 0 0 5.516-9.063 105.7 105.7 0 0 0-15.86-35.296v-46.84c0-14.07-3.37-27.371-9.34-39.133V73.434c0-40.438-32.898-73.336-73.335-73.336H112.73a7.497 7.497 0 0 0-7.5 7.5 7.5 7.5 0 0 0 7.5 7.5h297.743c32.168 0 58.336 26.168 58.336 58.336v93.953c-15.797-16.383-37.957-26.59-62.457-26.59-47.86 0-86.793 38.937-86.793 86.793v47.043c-8.985 12.922-15.164 27.933-17.641 44.148H73.336C41.168 318.781 15 292.613 15 260.445V73.434c0-32.168 26.168-58.336 58.336-58.336 0 0 14.93 1.523 14.93-7.5s-14.93-7.5-14.93-7.5C32.898.098 0 32.996 0 73.434v187.011c0 40.438 32.898 73.336 73.336 73.336h227.383c-.004.336-.012 69.047-.012 69.047 0 24.77 20.148 44.922 44.918 44.922h121.457c24.77 0 44.918-20.152 44.918-44.922v-61.473a7.496 7.496 0 0 0-7.5-7.496m-98.148-104.712a105.2 105.2 0 0 0-33.758 5.532v-7.086c0-18.617 15.144-33.758 33.758-33.758 18.617 0 33.757 15.144 33.757 33.758v7.054a106 106 0 0 0-33.757-5.5m0-73.351c39.59 0 71.796 32.207 71.796 71.793v29.566a105.4 105.4 0 0 0-23.039-16.152V227.59c0-26.883-21.87-48.754-48.757-48.754-26.883 0-48.758 21.871-48.758 48.754v13.504a106.2 106.2 0 0 0-23.035 16.273V227.59c0-39.586 32.207-71.793 71.793-71.793m0 0"/><path d="M406.352 416.453c14.355 0 26.03-11.676 26.03-26.031v-17.418c0-4.524 1.888-8.832 5.31-12.145 8.859-8.57 13.738-20.07 13.738-32.39 0-12.395-7.5-46.074-47.957-44.989-23.258.625-41.75 20.832-42.188 44.13a45.17 45.17 0 0 0 14.149 33.648c3.105 2.93 4.89 7.21 4.89 11.746v17.418c0 14.355 11.676 26.031 26.028 26.031m-30.07-88.562c.288-15.543 12.07-29.5 30.081-29.5 16.504 0 30.067 12.558 30.067 30.078 0 8.219-3.258 15.89-9.168 21.605-6.278 6.074-9.88 14.43-9.88 22.93v17.418c0 6.082-4.948 11.031-11.03 11.031s-11.028-4.95-11.028-11.031v-17.418c0-8.649-3.5-16.91-9.601-22.66a30.14 30.14 0 0 1-9.442-22.453M120.363 53.691H85.008c-18.403 0-33.375 14.973-33.375 33.375v35.356c0 18.402 14.972 33.379 33.375 33.379h35.355c18.403 0 33.375-14.973 33.375-33.38V87.067c0-18.402-14.972-33.375-33.375-33.375m18.375 68.73c0 10.134-8.242 18.38-18.375 18.38H85.008c-10.133 0-18.375-8.246-18.375-18.38V87.067c0-10.129 8.242-18.375 18.375-18.375h35.355c10.133 0 18.375 8.243 18.375 18.375zM77.012 173.125c-13.996 0-25.38 11.387-25.38 25.379 0 13.996 11.384 25.379 25.38 25.379h147.914c13.996 0 25.379-11.383 25.379-25.38 0-13.991-11.383-25.378-25.38-25.378zm158.293 25.379c0 5.723-4.657 10.379-10.38 10.379H77.013c-5.727 0-10.38-4.656-10.38-10.38s4.653-10.378 10.38-10.378h147.914c5.722 0 10.379 4.656 10.379 10.379M77.012 236.988c-13.996 0-25.38 11.383-25.38 25.38 0 13.995 11.384 25.378 25.38 25.378h83.18c13.995 0 25.378-11.383 25.378-25.379s-11.382-25.379-25.379-25.379zm93.562 25.38c0 5.726-4.656 10.378-10.379 10.378H77.012c-5.727 0-10.38-4.652-10.38-10.379 0-5.722 4.653-10.379 10.38-10.379h83.18c5.722 0 10.382 4.657 10.382 10.38m0 0"/></svg>