<svg xmlns="http://www.w3.org/2000/svg" width="512pt" height="512pt" viewBox="-54 0 512 512.001"><path fill="#ff8a98" d="M396.781 228.52v-13.106c0-14.441-11.71-26.152-26.152-26.152H187.44v39.258zM187.441 261.363v67.54H370.63c14.441 0 26.152-11.708 26.152-26.153v-41.387zm0 0"/><path fill="#fd5c6f" d="M319.668 228.52c-.262-14.868-1.219-28.067-2.426-39.254h-129.8v39.254zM187.441 261.363v67.54h123.204a477 477 0 0 0 8.433-67.54zm0 0"/><path fill="#6a829a" d="M187.441 224.45h209.34v40.984h-209.34zm0 0"/><path fill="#516980" d="M187.441 265.434h131.41a467 467 0 0 0 .723-40.985H187.441zm0 0"/><path fill="#a4e7ff" d="M232.45 13.7 199.093 29.28 163.898 12.18a46.15 46.15 0 0 0-40.351 0L88.359 29.28 55.008 13.7C44.754 8.91 32.992 16.395 32.992 27.711v115.234h221.469V27.711c0-11.32-11.758-18.805-22.012-14.012m0 0"/><path fill="#5ad6ff" d="M254.46 91.664c-32.503-10.195-70.339-16.043-110.73-16.043S65.504 81.47 32.996 91.664v51.281h221.469v-51.28zm0 0"/><path fill="#889cb0" d="M7.504 189.945 24.078 443.25c2.254 34.457 30.86 61.25 65.395 61.25h108.511c34.536 0 63.141-26.793 65.395-61.25l16.578-253.305c2.613-40-29.125-73.879-69.21-73.879H76.71c-40.086 0-71.824 33.88-69.207 73.88m0 0"/><path fill="#6a829a" d="M7.504 189.945 24.078 443.25c2.254 34.457 30.86 61.25 65.395 61.25h15.46c-20.171-95.535-4.902-228.512-8.003-295.36-4.004-86.222 35.793-93.077 35.793-93.077H76.71c-40.086.003-71.824 33.882-69.207 73.882m0 0"/><path fill="#b0f0ef" d="m48.719 188.14 3.785 53c.89 12.473 11.27 22.133 23.77 22.133h136.124c12.5 0 22.88-9.66 23.77-22.132l3.785-53c1.172-16.403-11.82-30.356-28.266-30.356H76.985c-16.445 0-29.437 13.953-28.265 30.356m0 0"/><path fill="#76e7e7" d="M96.93 209.145c-1.012-21.81.773-38.532 4.011-51.36H76.984c-16.445 0-29.437 13.953-28.265 30.356l3.785 53.004c.89 12.468 11.27 22.128 23.77 22.128h20.57c.55-20.613.785-39.058.086-54.128m0 0"/><path fill="#fffcdc" d="M166.387 306.93c0 12.175-9.875 22.047-22.051 22.047s-22.05-9.872-22.05-22.047c0-12.18 9.874-22.051 22.05-22.051s22.05 9.871 22.05 22.05m0 0"/><path fill="#f4e74d" d="M61.828 318.625c6.164 4.41 14.477 8.926 24.711 11.254 7.36 1.672 14.395-3.84 14.395-11.387v-23.125c0-7.547-7.036-13.062-14.395-11.387-10.234 2.329-18.547 6.84-24.71 11.254-8.02 5.743-8.02 17.645 0 23.391M226.844 318.625c-6.164 4.41-14.477 8.926-24.711 11.254-7.36 1.672-14.395-3.84-14.395-11.387v-23.125c0-7.547 7.035-13.062 14.395-11.387 10.234 2.329 18.547 6.84 24.71 11.254 8.02 5.743 8.02 17.645 0 23.391m0 0"/><g fill="#5ad6ff"><path d="M89.242 457.34H67.5c-5.75 0-10.414-4.664-10.414-10.418v-21.738c0-5.754 4.664-10.418 10.414-10.418h21.742c5.754 0 10.418 4.664 10.418 10.418v21.738c0 5.754-4.664 10.418-10.418 10.418M221.172 457.34H199.43c-5.754 0-10.418-4.664-10.418-10.418v-21.738c0-5.754 4.664-10.418 10.418-10.418h21.742c5.754 0 10.418 4.664 10.418 10.418v21.738c0 5.754-4.664 10.418-10.418 10.418M155.207 457.34h-21.742c-5.754 0-10.418-4.664-10.418-10.418v-21.738c0-5.754 4.664-10.418 10.418-10.418h21.742c5.754 0 10.418 4.664 10.418 10.418v21.738c0 5.754-4.664 10.418-10.418 10.418M89.242 393.16H67.5c-5.75 0-10.414-4.664-10.414-10.418V361c0-5.75 4.664-10.414 10.414-10.414h21.742c5.754 0 10.418 4.664 10.418 10.414v21.742c0 5.754-4.664 10.418-10.418 10.418M221.172 393.16H199.43c-5.754 0-10.418-4.664-10.418-10.418V361c0-5.75 4.664-10.414 10.418-10.414h21.742c5.754 0 10.418 4.664 10.418 10.414v21.742c0 5.754-4.664 10.418-10.418 10.418M155.207 393.16h-21.742c-5.754 0-10.418-4.664-10.418-10.418V361c0-5.75 4.664-10.414 10.418-10.414h21.742c5.754 0 10.418 4.664 10.418 10.414v21.742c0 5.754-4.664 10.418-10.418 10.418m0 0"/></g><path d="M215.945 71.238H78.375a7.497 7.497 0 0 0-7.5 7.5 7.5 7.5 0 0 0 7.5 7.5h137.57a7.5 7.5 0 0 0 7.5-7.5c0-4.144-3.355-7.5-7.5-7.5M191.742 195.418c-4.14 0-7.5 3.36-7.5 7.5v12.45a7.5 7.5 0 1 0 15 0v-12.45a7.5 7.5 0 0 0-7.5-7.5M96.93 195.418a7.5 7.5 0 0 0-7.5 7.5v12.45a7.5 7.5 0 1 0 15 0v-12.45c0-4.14-3.36-7.5-7.5-7.5M159.844 205.727c-1.27-.836-6.88-2.993-10.383 2.148a6.19 6.19 0 0 1-5.125 2.766c-.992 0-3.484-.27-5.121-2.766a7.5 7.5 0 0 0-10.387-2.148 7.5 7.5 0 0 0-2.152 10.382 21.07 21.07 0 0 0 17.66 9.528c7.14 0 13.742-3.559 17.66-9.528a7.495 7.495 0 0 0-2.152-10.382m0 0"/><path d="M247.434 188.676a35.96 35.96 0 0 0-9.516-26.977 35.96 35.96 0 0 0-26.23-11.414H76.983a35.96 35.96 0 0 0-26.23 11.414 35.96 35.96 0 0 0-9.516 26.977v-.004l3.785 53.004c1.164 16.316 14.891 29.097 31.25 29.097h136.125c16.356 0 30.082-12.78 31.25-29.097zm-14.961-1.07-3.786 53.003c-.605 8.504-7.761 15.164-16.289 15.164H76.273c-8.523 0-15.68-6.66-16.289-15.164L56.2 187.605c-.418-5.832 1.551-11.402 5.535-15.683s9.403-6.637 15.25-6.637h134.704c5.847 0 11.265 2.356 15.25 6.637 3.988 4.281 5.953 9.851 5.535 15.683M144.336 277.383c-16.293 0-29.55 13.254-29.55 29.547 0 16.289 13.257 29.547 29.55 29.547s29.55-13.254 29.55-29.547-13.257-29.547-29.55-29.547m0 44.094c-8.024 0-14.55-6.528-14.55-14.547 0-8.024 6.526-14.551 14.55-14.551 8.023 0 14.55 6.527 14.55 14.55 0 8.02-6.527 14.548-14.55 14.548M108.434 295.367c0-5.86-2.63-11.316-7.207-14.972-4.618-3.684-10.575-5.043-16.352-3.727-9.719 2.207-18.941 6.406-27.41 12.469a21.92 21.92 0 0 0-9.153 17.789c0 7.039 3.422 13.691 9.153 17.793 8.469 6.066 17.676 10.324 27.41 12.472 7.957 1.754 12.887-.968 16.352-3.73a19.07 19.07 0 0 0 7.207-14.973zm-15 23.125c0 5.305-3.45 4.48-5.235 4.074-7.761-1.765-15.164-5.144-22.004-10.039a6.81 6.81 0 0 1-2.882-5.597 6.81 6.81 0 0 1 2.882-5.598c6.84-4.895 14.243-8.273 22.004-10.039.36-.082 5.235-1.375 5.235 4.074zM231.21 289.137c-8.472-6.063-17.694-10.258-27.413-12.469-5.777-1.316-11.734.043-16.352 3.73a19.06 19.06 0 0 0-7.207 14.97v23.124c0 5.86 2.63 11.317 7.207 14.969 3.465 2.766 9.637 5.418 16.352 3.73 9.668-2.43 18.941-6.406 27.414-12.468a21.94 21.94 0 0 0 9.148-17.793c0-7.04-3.422-13.692-9.148-17.793m-8.733 23.39c-6.84 4.895-14.243 8.274-22.008 10.04-1.778.402-5.23.468-5.23-4.075v-23.125c0-5.187 4.874-4.156 5.23-4.074 7.765 1.766 15.168 5.145 22.008 10.039a6.81 6.81 0 0 1 2.882 5.598 6.81 6.81 0 0 1-2.882 5.597M89.242 407.266H67.504c-9.883 0-17.918 8.039-17.918 17.918v21.738c0 9.879 8.035 17.918 17.918 17.918h21.738c9.883 0 17.918-8.04 17.918-17.918v-21.738c0-9.88-8.035-17.918-17.918-17.918m2.918 39.656a2.92 2.92 0 0 1-2.918 2.918H67.504a2.92 2.92 0 0 1-2.918-2.918v-21.738a2.92 2.92 0 0 1 2.918-2.918h21.738a2.92 2.92 0 0 1 2.918 2.918zM221.172 407.266H199.43c-9.88 0-17.918 8.039-17.918 17.918v21.738c0 9.879 8.039 17.918 17.918 17.918h21.742c9.879 0 17.918-8.04 17.918-17.918v-21.738c0-9.88-8.04-17.918-17.918-17.918m2.918 39.656a2.92 2.92 0 0 1-2.918 2.918H199.43a2.92 2.92 0 0 1-2.918-2.918v-21.738a2.92 2.92 0 0 1 2.918-2.918h21.742a2.92 2.92 0 0 1 2.918 2.918zM155.207 407.266h-21.742c-9.88 0-17.918 8.039-17.918 17.918v21.738c0 9.879 8.039 17.918 17.918 17.918h21.742c9.879 0 17.918-8.04 17.918-17.918v-21.738c0-9.88-8.04-17.918-17.918-17.918m2.918 39.656a2.92 2.92 0 0 1-2.918 2.918h-21.742a2.92 2.92 0 0 1-2.918-2.918v-21.738a2.92 2.92 0 0 1 2.918-2.918h21.742a2.92 2.92 0 0 1 2.918 2.918zM107.16 361c0-9.879-8.035-17.914-17.918-17.914H67.504c-9.883 0-17.918 8.035-17.918 17.914v21.742c0 9.88 8.035 17.918 17.918 17.918h21.738c9.883 0 17.918-8.039 17.918-17.918zm-15 21.742a2.92 2.92 0 0 1-2.918 2.918H67.504a2.92 2.92 0 0 1-2.918-2.918V361a2.917 2.917 0 0 1 2.918-2.914h21.738A2.917 2.917 0 0 1 92.16 361zM239.09 361c0-9.879-8.04-17.914-17.918-17.914H199.43c-9.88 0-17.918 8.035-17.918 17.914v21.742c0 9.88 8.039 17.918 17.918 17.918h21.742c9.879 0 17.918-8.039 17.918-17.918zm-15 21.742a2.92 2.92 0 0 1-2.918 2.918H199.43a2.92 2.92 0 0 1-2.918-2.918V361a2.917 2.917 0 0 1 2.918-2.914h21.742A2.917 2.917 0 0 1 224.09 361zM173.125 361c0-9.879-8.04-17.914-17.918-17.914h-21.742c-9.88 0-17.918 8.035-17.918 17.914v21.742c0 9.88 8.039 17.918 17.918 17.918h21.742c9.879 0 17.918-8.039 17.918-17.918zm-15 21.742a2.92 2.92 0 0 1-2.918 2.918h-21.742a2.92 2.92 0 0 1-2.918-2.918V361a2.917 2.917 0 0 1 2.918-2.914h21.742a2.917 2.917 0 0 1 2.918 2.914zm0 0"/><path d="M370.629 181.766h-83.11c-1.199-35.188-23.878-52.13-25.554-53.637V27.71c0-7.895-3.977-15.137-10.637-19.375s-14.902-4.774-22.055-1.434l-30.117 14.07-31.98-15.538c-14.906-7.247-32.004-7.243-46.91 0l-31.97 15.539L58.185 6.906c-7.153-3.34-15.395-2.804-22.055 1.43-6.66 4.242-10.637 11.484-10.637 19.375v100.312c-8.695 7.778-15.687 17.606-20.226 29.008a7.5 7.5 0 0 0 4.195 9.742 7.497 7.497 0 0 0 9.738-4.195c9.438-23.7 32.012-39.012 57.512-39.012h134.035c17.29 0 33.324 6.946 45.145 19.567 11.82 12.617 17.707 29.07 16.578 46.32l-16.574 253.309c-1.989 30.414-27.426 54.242-57.91 54.242H89.468c-30.48 0-55.918-23.828-57.906-54.242L14.984 189.453c-.27-4.133-3.867-7.273-7.972-6.992a7.5 7.5 0 0 0-6.996 7.973l16.578 253.308C19.098 482.02 51.109 512 89.469 512h108.515c38.364 0 70.375-29.984 72.88-68.258l11.179-170.808h107.238v29.82c0 10.281-8.367 18.648-18.652 18.648h-67.637a7.5 7.5 0 1 0 0 15h67.637c18.555 0 33.652-15.093 33.652-33.648v-87.34c0-18.555-15.097-33.648-33.652-33.648m-293.918-73.2c-12.973 0-25.332 3.192-36.215 8.98V27.712c0-2.777 1.344-5.227 3.688-6.719 2.343-1.492 5.132-1.672 7.648-.496l33.352 15.578c2.05.961 4.421.942 6.453-.047l35.187-17.101c10.739-5.219 23.059-5.219 33.793 0l35.196 17.101a7.5 7.5 0 0 0 6.453.047l33.359-15.582c2.516-1.176 5.305-.996 7.648.5 2.344 1.492 3.688 3.938 3.688 6.719v89.879c-10.98-5.887-23.309-9.024-36.215-9.024zM389.28 216.95H285.703l1.32-20.187h83.606c18.848 0 18.652 20.187 18.652 20.187m-106.258 40.985 1.7-25.985H389.28v25.985zm0 0"/></svg>