<svg xmlns="http://www.w3.org/2000/svg" width="511pt" height="511pt" viewBox="1 -18 511.999 511"><path fill="#516980" d="M429.492 217.379H82.508v-95.117c0-17.297 14.02-31.32 31.316-31.32h284.352c17.297 0 31.316 14.023 31.316 31.32zm0 0"/><path fill="#b0f0ef" d="M373.336 230.617H138.664V48.2c0-22.203 18-40.199 40.2-40.199h154.273c22.199 0 40.199 17.996 40.199 40.2zm0 0"/><path fill="#889cb0" d="M460.93 386.953H51.07c-24.062 0-43.57-19.508-43.57-43.574V233.137c0-44.39 35.988-80.38 80.383-80.38h336.234c44.395 0 80.383 35.99 80.383 80.38v110.242c0 24.066-19.508 43.574-43.57 43.574m0 0"/><path fill="#6a829a" d="M76.805 343.379V233.137c0-44.39 35.988-80.38 80.383-80.38H87.883c-44.395 0-80.383 35.99-80.383 80.38v110.242c0 24.066 19.508 43.574 43.57 43.574h69.309c-24.067 0-43.574-19.508-43.574-43.574M372.813 386.953H139.188v-79.789c0-16.547 13.414-29.96 29.96-29.96h173.704c16.546 0 29.96 13.413 29.96 29.96zm0 0"/><path fill="#516980" d="M342.852 277.203H169.148c-16.546 0-29.96 13.414-29.96 29.961v33.93c0-16.551 13.414-29.965 29.96-29.965h173.704c16.546 0 29.96 13.414 29.96 29.965v-33.93c0-16.547-13.414-29.96-29.96-29.96m0 0"/><path fill="#b0f0ef" d="M304.77 336.965h-97.54a56.45 56.45 0 0 0-43.687 20.707l-53.297 65.16c-14.633 17.895-1.902 44.75 21.211 44.75h249.086c23.113 0 35.844-26.855 21.21-44.75l-53.3-65.16a56.43 56.43 0 0 0-43.683-20.707m0 0"/><path fill="#76e7e7" d="M304.77 336.965h-97.54a56.45 56.45 0 0 0-43.687 20.707l-23.95 29.281h232.813l-23.949-29.281a56.44 56.44 0 0 0-43.687-20.707m0 0"/><path fill="#73da8c" d="M105.316 220.594c0 12.875-10.437 23.312-23.308 23.312-12.875 0-23.313-10.437-23.313-23.312 0-12.871 10.438-23.309 23.313-23.309 12.87 0 23.308 10.438 23.308 23.309m0 0"/><path fill="#ff8a98" d="M163.965 220.594c0 9.586-7.77 17.355-17.356 17.355-9.582 0-17.351-7.77-17.351-17.355 0-9.582 7.77-17.352 17.351-17.352 9.586 0 17.356 7.77 17.356 17.352M222.367 220.594c0 9.586-7.77 17.355-17.351 17.355-9.586 0-17.356-7.77-17.356-17.355 0-9.582 7.77-17.352 17.356-17.352 9.582 0 17.351 7.77 17.351 17.352m0 0"/><path fill="#454545" d="M271.035 99.984c0-10.578-6.73-19.152-15.035-19.152s-15.035 8.574-15.035 19.152c0 10.582 6.73 19.157 15.035 19.157s15.035-8.575 15.035-19.157m0 0"/><path d="M310.305 84.992v12.45a7.5 7.5 0 1 0 15 0v-12.45c0-4.144-3.356-7.5-7.5-7.5a7.5 7.5 0 0 0-7.5 7.5M186.695 84.992v12.45a7.5 7.5 0 1 0 15 0v-12.45a7.5 7.5 0 0 0-7.5-7.5 7.497 7.497 0 0 0-7.5 7.5m0 0"/><path d="M436.992 146.203v-23.941c0-21.407-17.414-38.82-38.816-38.82h-17.34V63.085a7.5 7.5 0 0 0-7.5-7.5 7.497 7.497 0 0 0-7.5 7.5v82.172H146.164V48.199c0-18.031 14.672-32.699 32.7-32.699h154.273c13.172 0 25 7.84 30.129 19.973a7.5 7.5 0 0 0 9.832 3.984 7.5 7.5 0 0 0 3.984-9.828A47.63 47.63 0 0 0 333.132.5H178.864c-26.3 0-47.699 21.398-47.699 47.7V83.44h-17.34c-21.402 0-38.816 17.414-38.816 38.82v23.942C32.628 152.453 0 189.055 0 233.141v64.144c0 4.14 3.36 7.5 7.5 7.5s7.5-3.36 7.5-7.5v-64.144c0-40.188 32.695-72.883 72.883-72.883h336.234c40.188 0 72.883 32.695 72.883 72.883v110.238c0 19.89-16.184 36.074-36.07 36.074h-80.617v-72.289c0-20.656-16.805-37.46-37.461-37.46H169.148c-20.656 0-37.46 16.804-37.46 37.46v72.29H51.07c-19.886 0-36.07-16.184-36.07-36.075v-15.14a7.5 7.5 0 1 0-15 0v15.14c0 28.16 22.91 51.074 51.07 51.074h72.7l-19.329 23.633c-8.625 10.543-10.355 24.734-4.523 37.043s17.918 19.953 31.539 19.953h249.086c13.621 0 25.703-7.648 31.539-19.953 5.832-12.309 4.098-26.504-4.523-37.043l-19.329-23.633h72.696c28.164 0 51.074-22.914 51.074-51.074V233.14c0-44.086-32.629-80.688-75.008-86.938m-56.156-47.762h17.34c13.133 0 23.82 10.688 23.82 23.82v22.997h-41.16zm-267.012 0h17.34v46.817H90.008v-22.996c0-13.133 10.683-23.82 23.816-23.82m55.324 186.262h173.704c12.386 0 22.46 10.078 22.46 22.465v59.266l-11.05-13.512c-12.192-14.91-30.235-23.457-49.492-23.457h-97.54c-19.257 0-37.296 8.547-49.492 23.457l-11.05 13.512v-59.27c0-12.383 10.078-22.46 22.46-22.46m229.38 164c-3.376 7.125-10.102 11.379-17.985 11.379H131.457c-7.887 0-14.61-4.254-17.984-11.379s-2.414-15.02 2.578-21.121l53.3-65.164c9.333-11.41 23.137-17.953 37.88-17.953h97.539c14.742 0 28.546 6.543 37.882 17.953l53.297 65.164c4.992 6.102 5.953 14 2.578 21.121m0 0"/><path d="M112.816 220.594c0-16.989-13.82-30.809-30.808-30.809-16.992 0-30.813 13.82-30.813 30.809s13.82 30.812 30.813 30.812c16.988 0 30.808-13.824 30.808-30.812m-46.62 0c0-8.719 7.093-15.809 15.812-15.809 8.715 0 15.808 7.09 15.808 15.809s-7.093 15.812-15.808 15.812c-8.719 0-15.813-7.094-15.813-15.812M171.465 220.594c0-13.703-11.149-24.852-24.856-24.852-13.703 0-24.851 11.149-24.851 24.852 0 13.707 11.148 24.855 24.851 24.855 13.707 0 24.856-11.148 24.856-24.855m-34.707 0c0-5.434 4.418-9.852 9.851-9.852 5.438 0 9.856 4.418 9.856 9.852s-4.418 9.855-9.856 9.855c-5.433 0-9.851-4.422-9.851-9.855M229.867 220.594c0-13.703-11.148-24.852-24.851-24.852s-24.856 11.149-24.856 24.852c0 13.707 11.153 24.855 24.856 24.855s24.851-11.148 24.851-24.855m-34.707 0c0-5.434 4.422-9.852 9.856-9.852s9.851 4.418 9.851 9.852-4.422 9.855-9.851 9.855c-5.434 0-9.856-4.422-9.856-9.855M233.465 99.984c0 14.7 10.11 26.657 22.535 26.657s22.535-11.957 22.535-26.657c0-14.695-10.11-26.652-22.535-26.652s-22.535 11.957-22.535 26.652m30.07 0c0 6.871-3.972 11.657-7.535 11.657s-7.535-4.79-7.535-11.657 3.973-11.652 7.535-11.652 7.535 4.785 7.535 11.652m0 0"/></svg>