<svg xmlns="http://www.w3.org/2000/svg" width="512pt" height="512pt" viewBox="0 0 512 512"><path fill="#00c140" d="M486.727 400.914c23.699 23.695 23.699 62.117 0 85.813-23.696 23.699-62.118 23.699-85.813 0-23.7-23.696-150.437-188.856-126.738-212.551 23.695-23.696 188.855 103.043 212.55 126.738m0 0"/><path fill="#00a62c" d="M274.176 274.176c-17.985 17.984 50.683 117.453 95.191 174.719 36.348-31.739 45.778-74.399 47.469-103.633-56.508-41.145-127.715-86.032-142.66-71.086m0 0"/><path fill="#f9ee80" d="m370.66 346.328-24.332 24.332c-23.851 23.852-62.523 23.852-86.375 0l-36.68-36.68L333.98 223.273l36.676 36.68c23.856 23.852 23.856 62.524.004 86.375m0 0"/><path fill="#eedb00" d="M346.328 370.66s-19.57-21.734 1.906-53.027c18.118-26.395 22.426-57.68 22.426-57.68l-36.68-36.676L223.273 333.98l36.68 36.68c23.852 23.852 62.524 23.852 86.375 0m0 0"/><path fill="#29ce69" d="M362.176 184.836c0 97.941-79.399 177.34-177.34 177.34S7.5 282.777 7.5 184.836 86.895 7.5 184.836 7.5s177.34 79.395 177.34 177.336m0 0"/><path fill="#b0f0ef" d="M303.496 184.836c0 65.535-53.125 118.66-118.66 118.66s-118.66-53.125-118.66-118.66 53.125-118.66 118.66-118.66 118.66 53.125 118.66 118.66m0 0"/><path fill="#76e7e7" d="M149.352 149.352c37.921-37.922 95.132-44.801 140.058-20.657a118.7 118.7 0 0 0-20.668-27.765c-46.34-46.34-121.472-46.34-167.812 0s-46.34 121.472 0 167.812c8.418 8.418 17.8 15.317 27.773 20.672-24.144-44.926-17.273-102.14 20.649-140.062m0 0"/><path fill="#6a829a" d="M233.258 209.176c0-21.692-17.649-39.34-39.34-39.34h-18.164c-5.149 0-9.34-4.188-9.34-9.34 0-5.148 4.191-9.336 9.34-9.336h36.84c8.281 0 15-6.719 15-15 0-8.285-6.719-15-15-15h-12.856v-7.34c0-8.285-6.715-15-15-15-8.281 0-15 6.715-15 15v7.797c-18.843 2.906-33.324 19.235-33.324 38.883 0 21.691 17.649 39.34 39.34 39.34h18.164c5.152 0 9.34 4.187 9.34 9.336 0 5.148-4.188 9.34-9.34 9.34h-35.55c-8.286 0-15 6.714-15 15s6.714 15 15 15h11.37v7.34c0 8.285 6.715 15 15 15s15-6.715 15-15v-7.774c18.942-2.824 33.52-19.191 33.52-38.906m0 0"/><path d="M492.031 395.61c-11.492-11.489-53.758-45.298-98.082-75.739 5.656-22.613-.336-47.57-17.988-65.223l-14.695-14.695a184.3 184.3 0 0 0 7.761-39.629c3.586-42.922-7.925-85.91-32.422-121.047-2.37-3.394-7.046-4.23-10.44-1.863A7.5 7.5 0 0 0 324.3 87.86c22.5 32.274 33.078 71.77 29.777 111.215-3.336 39.903-20.789 77.496-49.148 105.856-32.078 32.078-74.727 49.746-120.094 49.746-45.363 0-88.016-17.668-120.094-49.746S15 230.203 15 184.836c0-45.363 17.664-88.016 49.742-120.094S139.472 15 184.836 15c45.367 0 88.016 17.664 120.094 49.742a7.497 7.497 0 0 0 10.605 0 7.497 7.497 0 0 0 0-10.605C280.625 19.227 234.207 0 184.835 0c-49.37 0-95.788 19.227-130.698 54.137S0 135.465 0 184.836c0 49.375 19.227 95.789 54.137 130.7 34.914 34.91 81.328 54.14 130.699 54.14 49.375 0 95.789-19.23 130.7-54.14a185 185 0 0 0 40.081-60.016l9.738 9.738c20.891 20.89 20.891 54.879 0 75.77l-24.328 24.327c-18.554 18.551-48.457 20.848-69.562 5.336a7.5 7.5 0 0 0-10.485 1.602 7.497 7.497 0 0 0 1.602 10.484c11.754 8.641 35.652 16.953 57.305 11.192 30.437 44.316 64.234 86.574 75.722 98.062 12.88 12.875 30 19.969 48.211 19.969s35.332-7.094 48.211-19.969c12.875-12.879 19.969-30 19.969-48.21 0-18.212-7.094-35.333-19.969-48.212m-10.605 85.816C471.379 491.469 458.023 497 443.82 497c-14.207 0-27.558-5.531-37.601-15.574-10.563-10.563-42.828-50.95-71.86-92.895a68.6 68.6 0 0 0 17.274-12.566l24.332-24.332a68.3 68.3 0 0 0 12.558-17.278c41.95 29.032 82.34 61.301 92.903 71.864C491.469 416.262 497 429.617 497 443.82s-5.531 27.559-15.574 37.606m0 0"/><path d="M95.629 95.629c-49.192 49.187-49.192 129.226 0 178.418 24.594 24.594 56.898 36.89 89.207 36.89s64.613-12.296 89.21-36.89c49.188-49.192 49.188-129.23 0-178.418-49.19-49.192-129.23-49.192-178.417 0M263.437 263.44c-43.34 43.34-113.863 43.34-157.203 0-43.343-43.343-43.343-113.867 0-157.207 21.668-21.671 50.137-32.507 78.602-32.507s56.934 10.836 78.601 32.507c43.344 43.34 43.344 113.864 0 157.207m0 0"/><path d="M193.918 162.336h-18.164a1.843 1.843 0 0 1-1.84-1.84c0-1.012.828-1.84 1.84-1.84h36.84c12.406 0 22.5-10.09 22.5-22.5 0-24.23-27.856-22.5-27.856-22.5-.086-12.332-10.144-22.34-22.5-22.34-23.402 0-22.5 24.336-22.5 24.336-19.383 5.891-33.324 24.141-33.324 44.844 0 25.828 21.012 46.84 46.84 46.84h18.164a1.84 1.84 0 0 1 0 3.68h-35.55c-12.407 0-22.5 10.09-22.5 22.5 0 22.484 26.37 22.5 26.37 22.5.086 12.332 10.149 22.34 22.5 22.34 24.075 0 22.5-24.282 22.5-24.282 19.496-5.82 33.52-24.094 33.52-44.898 0-25.828-21.012-46.84-46.84-46.84m4.719 78.328a7.5 7.5 0 0 0-6.399 7.418v7.773c0 4.137-3.363 7.5-7.5 7.5-4.133 0-7.5-3.363-7.5-7.5v-7.34c0-4.144-3.355-7.5-7.5-7.5h-11.37c-4.138 0-7.5-3.367-7.5-7.5 0-4.136 3.362-7.5 7.5-7.5h35.554c9.281 0 16.836-7.554 16.836-16.84 0-9.284-7.555-16.84-16.836-16.84h-18.164c-17.559 0-31.84-14.28-31.84-31.839 0-15.57 11.594-29.098 26.965-31.465a7.5 7.5 0 0 0 6.36-7.414v-7.8c0-4.137 3.362-7.5 7.5-7.5 4.136 0 7.5 3.363 7.5 7.5v7.34c0 4.144 3.355 7.5 7.5 7.5h12.85c4.137 0 7.5 3.366 7.5 7.5 0 4.136-3.363 7.5-7.5 7.5h-36.835c-9.285 0-16.84 7.554-16.84 16.84s7.555 16.839 16.84 16.839h18.164c17.555 0 31.84 14.281 31.84 31.84-.004 15.648-11.664 29.183-27.125 31.488m0 0"/></svg>