<svg xmlns="http://www.w3.org/2000/svg" width="512pt" height="512pt" viewBox="0 -40 512 511"><path fill="#a4e7ff" d="M438.203 423.64H73.797c-36.613 0-66.297-29.683-66.297-66.296V145.285c0-36.613 29.684-66.297 66.297-66.297h364.406c36.613 0 66.297 29.684 66.297 66.297v212.059c0 36.613-29.684 66.297-66.297 66.297m0 0"/><path fill="#5ad6ff" d="M101.148 357.34V145.285c0-36.613 29.684-66.297 66.297-66.297H73.797c-36.613 0-66.297 29.684-66.297 66.297v212.059c0 36.613 29.684 66.297 66.297 66.297h93.648c-36.613 0-66.297-29.684-66.297-66.301m0 0"/><path fill="#00b4fd" d="M438.203 78.988H73.797c-36.613 0-66.297 29.684-66.297 66.297v189.778h497V145.285c0-36.613-29.684-66.297-66.297-66.297m0 0"/><path fill="#0092e2" d="M167.445 78.988H73.797c-36.613 0-66.297 29.684-66.297 66.297v189.778h93.648V145.285c0-36.613 29.684-66.297 66.297-66.297m0 0"/><path fill="#3e4f61" d="M273.96 128.719h-35.92c-16.274 0-29.466-13.192-29.466-29.465v-61.79C208.574 21.192 221.766 8 238.04 8h35.922c16.273 0 29.465 13.191 29.465 29.465v61.789c0 16.273-13.192 29.465-29.465 29.465m0 0"/><path fill="#fffcdc" d="M192.668 304.977H89.441c-20.437 0-37.003-16.567-37.003-37.004v-84.176c0-20.438 16.566-37.004 37.003-37.004h103.227c20.437 0 37.004 16.566 37.004 37.004v84.176c0 20.437-16.567 37.004-37.004 37.004m0 0"/><path fill="#f9ee80" d="M101.148 146.793H89.441c-20.437 0-37.003 16.566-37.003 37.004v84.176c0 20.437 16.566 37.004 37.003 37.004h11.707zm0 0"/><path fill="#516980" d="M448.227 211.523H286.465c-9.02 0-16.328-7.308-16.328-16.324s7.308-16.328 16.328-16.328h161.762c9.015 0 16.328 7.313 16.328 16.328s-7.313 16.324-16.328 16.324M398.848 272.898H286.465c-9.02 0-16.328-7.308-16.328-16.328 0-9.015 7.308-16.324 16.328-16.324h112.383c9.015 0 16.324 7.309 16.324 16.324s-7.309 16.328-16.324 16.328m0 0"/><path d="M188.46 238.227a7.5 7.5 0 0 0 7.5-7.5v-12.454a7.5 7.5 0 1 0-15 0v12.454c0 4.14 3.36 7.5 7.5 7.5M93.648 238.227c4.141 0 7.5-3.36 7.5-7.5v-12.454a7.5 7.5 0 1 0-15 0v12.454a7.5 7.5 0 0 0 7.5 7.5M141.055 240.996c7.14 0 13.742-3.562 17.66-9.527a7.5 7.5 0 0 0-2.153-10.387c-1.265-.836-6.878-2.992-10.382 2.148a6.19 6.19 0 0 1-5.125 2.766c-.993 0-3.485-.27-5.121-2.766a7.502 7.502 0 0 0-12.54 8.239 21.07 21.07 0 0 0 17.66 9.527M179.191 356.86c-4.14 0-7.5 3.359-7.5 7.5v29.984c0 4.14 3.36 7.5 7.5 7.5s7.5-3.36 7.5-7.5v-29.985a7.5 7.5 0 0 0-7.5-7.5M209.914 356.86c-4.14 0-7.5 3.359-7.5 7.5v29.984a7.5 7.5 0 1 0 15 0v-29.985c0-4.144-3.355-7.5-7.5-7.5M240.637 356.86c-4.14 0-7.5 3.359-7.5 7.5v29.984a7.5 7.5 0 1 0 15 0v-29.985c0-4.144-3.356-7.5-7.5-7.5M271.36 356.86c-4.141 0-7.5 3.359-7.5 7.5v29.984a7.5 7.5 0 1 0 15 0v-29.985c0-4.144-3.356-7.5-7.5-7.5M302.086 356.86a7.5 7.5 0 0 0-7.5 7.5v29.984a7.5 7.5 0 1 0 15 0v-29.985a7.5 7.5 0 0 0-7.5-7.5M332.809 356.86a7.5 7.5 0 0 0-7.5 7.5v29.984a7.5 7.5 0 0 0 7.5 7.5 7.5 7.5 0 0 0 7.5-7.5v-29.985a7.5 7.5 0 0 0-7.5-7.5m0 0"/><path d="M438.203 71.488H310.926V37.465C310.926 17.082 294.344.5 273.96.5h-35.922c-20.383 0-36.965 16.582-36.965 36.965v34.023H73.797C33.105 71.488 0 104.594 0 145.285v212.059c0 40.691 33.105 73.797 73.797 73.797h364.406c40.692 0 73.797-33.106 73.797-73.797V145.285c0-40.691-33.105-73.797-73.797-73.797M216.074 37.465c0-12.113 9.852-21.965 21.965-21.965h35.922c12.11 0 21.965 9.852 21.965 21.965v61.789c0 12.113-9.856 21.965-21.965 21.965h-35.922c-12.113 0-21.965-9.852-21.965-21.965zm222.13 378.676H73.796C41.379 416.14 15 389.76 15 357.34V145.285c0-32.418 26.379-58.797 58.797-58.797h127.277v12.766c0 20.383 16.582 36.965 36.965 36.965h35.922c20.383 0 36.965-16.582 36.965-36.965V86.488h127.273c32.422 0 58.801 26.38 58.801 58.797v182.277H40.777a7.5 7.5 0 1 0 0 15H497v14.778c0 32.422-26.379 58.8-58.797 58.8m0 0"/><path d="M89.441 312.477h103.227c24.543 0 44.508-19.965 44.508-44.504v-84.176c0-24.54-19.965-44.504-44.508-44.504H89.441c-24.539 0-44.503 19.965-44.503 44.504v84.176c0 24.539 19.964 44.504 44.503 44.504m-29.504-128.68c0-16.27 13.235-29.504 29.504-29.504h103.227c16.27 0 29.508 13.234 29.508 29.504v84.176c0 16.27-13.238 29.504-29.508 29.504H89.441c-16.27 0-29.504-13.235-29.504-29.504zM286.465 219.027h161.762c13.14 0 23.828-10.687 23.828-23.828 0-13.137-10.692-23.824-23.828-23.824h-21.801a7.5 7.5 0 1 0 0 15h21.8c4.868 0 8.829 3.957 8.829 8.824s-3.961 8.828-8.828 8.828H286.465c-4.867 0-8.828-3.96-8.828-8.828 0-4.863 3.96-8.824 8.828-8.824h108.988a7.5 7.5 0 0 0 7.5-7.5c0-4.145-3.355-7.5-7.5-7.5H286.465c-13.14 0-23.828 10.688-23.828 23.824s10.687 23.828 23.828 23.828M286.465 280.398h112.383c13.136 0 23.824-10.687 23.824-23.828 0-13.136-10.688-23.824-23.824-23.824H286.465c-13.14 0-23.828 10.688-23.828 23.824s10.687 23.828 23.828 23.828m0-32.652h112.383c4.867 0 8.824 3.957 8.824 8.824 0 4.868-3.957 8.828-8.824 8.828H286.465c-4.867 0-8.828-3.96-8.828-8.828s3.96-8.824 8.828-8.824m0 0"/></svg>