<svg xmlns="http://www.w3.org/2000/svg" width="512pt" height="512pt" viewBox="-71 0 512 512.001"><path fill="#ffb39d" d="M88.293 276.379c0 22.308-18.086 40.39-40.395 40.39-22.308 0-40.39-18.082-40.39-40.39s18.082-40.395 40.39-40.395c22.309 0 40.395 18.086 40.395 40.395m0 0"/><path fill="#ffcbbe" d="M362.242 276.379c0 22.308-18.082 40.39-40.39 40.39-22.309 0-40.395-18.082-40.395-40.39s18.086-40.395 40.395-40.395c22.308 0 40.39 18.086 40.39 40.395m0 0"/><path fill="#00b4fd" d="M294.637 504.5H75.113c-25.586 0-46.328-20.742-46.328-46.332v-26.387c0-40.988 33.223-74.21 74.211-74.21h163.762c40.984 0 74.21 33.222 74.21 74.21v26.387c-.003 25.59-20.745 46.332-46.331 46.332m0 0"/><path fill="#00a5fb" d="M127.281 357.57h-24.285c-40.988 0-74.21 33.223-74.21 74.211v26.387c0 25.59 20.741 46.332 46.327 46.332h28.5c-15.707-70.953 3.45-118.57 23.668-146.93m0 0"/><path fill="#516980" d="M198.484 423.066h-27.222s-22.969 19.418-21.282 81.434h69.79c1.69-62.016-21.286-81.434-21.286-81.434m0 0"/><path fill="#6a829a" d="M149.98 388.078h69.79s0 47.942-34.895 47.942-34.895-47.942-34.895-47.942m0 0"/><path fill="#5ad6ff" d="m74.676 353.688-24.59 16.921c-8.91 6.133-8.438 19.446.887 24.934l62.48 36.766c11.258 6.625 25.652 4.183 34.094-5.786l30.883-36.472zm0 0"/><path fill="#00c5fd" d="m74.676 353.688-24.59 16.925c-8.91 6.133-8.438 19.446.887 24.93l49.203 28.953c3.613-22.312 11.02-40.55 19.449-55.055zm0 0"/><path fill="#5ad6ff" d="m295.074 353.688 24.59 16.921c8.91 6.133 8.438 19.446-.887 24.934l-62.48 36.766c-11.258 6.625-25.652 4.183-34.09-5.786l-30.887-36.472zm0 0"/><path fill="#ffddcf" d="M212.559 394.852H157.19c-58.375 0-105.695-47.32-105.695-105.696v-78.265c0-73.664 59.715-133.38 133.379-133.38s133.379 59.716 133.379 133.38v78.265c0 58.375-47.32 105.696-105.695 105.696m0 0"/><path fill="#ffcbbe" d="M113.867 227.238C103.48 138.93 188.195 91.926 212.441 80.363a134 134 0 0 0-27.566-2.851c-73.66 0-133.379 59.715-133.379 133.379v78.265c0 55.793 43.242 101.489 98.031 105.422-45.285-25.008-25.922-84.543-35.66-167.34m0 0"/><path fill="#ffb3dd" d="M128.973 307.922c0-9.094-9.254-16.461-20.672-16.461s-20.672 7.367-20.672 16.46c0 9.09 9.254 16.462 20.672 16.462s20.672-7.371 20.672-16.461M282.121 307.922c0-9.094-9.254-16.461-20.672-16.461s-20.672 7.367-20.672 16.46c0 9.09 9.254 16.462 20.672 16.462s20.672-7.371 20.672-16.461m0 0"/><path fill="#e7896e" d="M53.965 185.215s-14.598 19.887-13.746 60.64c.332 15.727 16.597 26.047 30.976 19.68 25.528-11.3 60.157-36.039 66.993-86.36-.977 0-84.223 6.04-84.223 6.04M315.785 185.215s14.598 19.887 13.746 60.64c-.332 15.727-16.597 26.047-30.98 19.68-25.524-11.3-60.153-36.039-66.988-86.36.976 0 84.222 6.04 84.222 6.04m0 0"/><path fill="#00a5fb" d="M156.64 19.418C118.286 58.664 69.228 74.852 34.38 81.523c-15.238 2.918-21.875 20.97-12.203 33.098 26.027 32.637 31.789 70.594 31.789 70.594h261.82s5.762-37.957 31.79-70.594c9.671-12.129 3.034-30.18-12.204-33.098-34.848-6.671-83.906-22.859-122.262-62.105-15.535-15.89-40.933-15.89-56.468 0m0 0"/><path fill="#0092e2" d="M118.734 83.168c14.871-22.137 19.446-47.152 19.446-47.152-34.723 27.43-74.336 39.87-103.801 45.507-15.238 2.918-21.875 20.97-12.203 33.098 26.027 32.637 31.789 70.594 31.789 70.594h76.578c-10.43-18.93-16.695-37.246-20.438-52.04-4.34-17.14-1.23-35.331 8.63-50.007m0 0"/><path fill="#3e4f61" d="M96.95 185.215h175.855s-35.375-37.492-87.93-37.492-87.926 37.492-87.926 37.492m0 0"/><path fill="#f9ee80" d="M217.219 94.559c0 17.863-14.48 32.34-32.344 32.34s-32.344-14.477-32.344-32.34 14.48-32.344 32.344-32.344 32.344 14.48 32.344 32.344m0 0"/><path d="M200.406 287.977c-1.27-.836-6.89-3-10.402 2.152-1.684 2.469-4.133 2.77-5.129 2.77s-3.488-.27-5.129-2.77c-2.281-3.469-6.937-4.434-10.402-2.152a7.51 7.51 0 0 0-2.156 10.402c3.925 5.973 10.539 9.543 17.687 9.543s13.762-3.57 17.688-9.543a7.51 7.51 0 0 0-2.157-10.402M122.977 277.633a18.3 18.3 0 0 0-13.016 5.39 7.514 7.514 0 0 0 10.625 10.625 3.36 3.36 0 0 1 2.39-.992c.524 0 1.454.207 2.387.992 4.742 3.97 9.157 1.465 10.625 0a7.514 7.514 0 0 0 0-10.625 18.3 18.3 0 0 0-13.011-5.39M246.773 277.633a18.3 18.3 0 0 0-13.011 5.39 7.514 7.514 0 0 0 0 10.625 7.51 7.51 0 0 0 10.62 0 3.37 3.37 0 0 1 2.391-.992c.524 0 1.457.207 2.391.992 4.742 3.97 9.156 1.465 10.621 0a7.51 7.51 0 0 0 .004-10.625 18.3 18.3 0 0 0-13.016-5.39M145.031 94.559c0 21.968 17.875 39.84 39.844 39.84s39.844-17.872 39.844-39.84-17.875-39.844-39.844-39.844-39.844 17.875-39.844 39.844m64.688 0c0 13.699-11.149 24.84-24.844 24.84-13.7 0-24.844-11.141-24.844-24.84s11.145-24.844 24.844-24.844 24.844 11.144 24.844 24.844m0 0"/><path d="M361.172 249.047c-6.047-8.703-14.61-15.012-24.524-18.211-1.847-25.387-9.394-41.024-12.957-47.133 1.809-8.875 9.094-38.508 29.746-64.406 6.204-7.777 7.848-17.988 4.403-27.309-3.442-9.3-11.313-15.965-21.059-17.832a273 273 0 0 1-13.32-2.894 7.5 7.5 0 0 0-9.063 5.511 7.5 7.5 0 0 0 5.512 9.063 288 288 0 0 0 14.05 3.055c4.61.882 8.185 3.91 9.81 8.3 1.609 4.352.84 9.121-2.063 12.754-20.828 26.125-29.227 55.16-32.078 67.77h-33.746c-9.07-8.613-43.055-37.492-91.008-37.492s-81.938 28.879-91.008 37.492H60.121c-2.855-12.61-11.25-41.645-32.078-67.77-2.902-3.632-3.672-8.402-2.063-12.754 1.625-4.39 5.2-7.418 9.81-8.3 35.6-6.817 86.397-23.489 126.214-64.23 6.09-6.227 14.21-9.661 22.871-9.661 8.656 0 16.777 3.434 22.867 9.66 21.317 21.809 47.926 38.93 79.09 50.887a7.5 7.5 0 0 0 9.688-4.317 7.5 7.5 0 0 0-4.313-9.687c-29.133-11.18-53.941-27.113-73.734-47.367C209.535 5.036 197.605 0 184.875 0s-24.66 5.035-33.598 14.176c-37.097 37.96-84.812 53.57-118.308 59.98-9.746 1.867-17.617 8.531-21.059 17.832-3.445 9.32-1.8 19.532 4.402 27.313 20.567 25.793 27.915 55.527 29.743 64.41-3.567 6.113-11.106 21.75-12.953 47.129-22.415 7.27-36.625 30.203-32.34 54.023 4.164 23.133 21.468 39.52 48.804 39.375a112.9 112.9 0 0 0 13.774 28.149l-17.508 12.047c-12.355 8.843-9.594 19.843-9.566 20.183a81.5 81.5 0 0 0-14.704 40.336c-.34 4.129 2.72 7.93 6.856 8.098 4.383.176 7.77-2.942 8.094-6.86a66.45 66.45 0 0 1 7.816-26.175 22 22 0 0 0 2.84 1.992l62.477 36.765a34.3 34.3 0 0 0 17.43 4.766c15.6 0 28.062-14.379 28.062-14.379.425.547.86 1.074 1.3 1.59-11.425 20.719-13.902 47.777-14.035 66.25H75.11c-21.41 0-38.828-17.418-38.828-38.832a7.5 7.5 0 1 0-15 0C21.281 487.852 45.43 512 75.11 512h219.524c29.683 0 53.832-24.148 53.832-53.832v-26.387c0-17.097-5.172-33.336-14.985-47.168.028-.34 3.551-11.035-9.57-20.18l-17.504-12.05a113 113 0 0 0 13.774-28.145c.562.02 42.058 1.418 48.797-39.379 2.086-12.62-.504-25.308-7.805-35.812m-49.637-56.332c3.574 6.707 11.098 24.32 10.496 52.984-.101 4.934-2.554 9.29-6.73 11.942-4.184 2.664-9.184 3.039-13.711 1.035-22.004-9.742-49.371-28.98-59.613-65.961zm-126.66-37.492c28.992 0 52.664 12.422 67.094 22.492H117.715c14.387-10.07 38.031-22.492 67.16-22.492m-57.102 37.492c-10.242 36.98-37.609 56.223-59.613 65.96-4.527 2.009-9.527 1.63-13.715-1.034-4.172-2.653-6.625-7.004-6.726-11.942-.602-28.664 6.922-46.277 10.496-52.984zM15.527 282.203c-2.617-14.527 4.786-28.578 17.254-35.039a29.41 29.41 0 0 0 11.215 21.418s-1.566 29.797 1.777 40.617c-14.73-.96-27.515-11.828-30.246-26.996m101.73 143.64-62.48-36.765c-2.191-1.289-3.5-3.484-3.59-6.023-.09-2.54 1.06-4.825 3.153-6.266l18.223-12.547c20.753 23.363 50.996 38.11 84.628 38.11h.993l-16.364 19.324a19.29 19.29 0 0 1-24.562 4.168m60.583-23.491h14.07l12.688 14.984c-4.688 7.504-11.172 11.184-19.723 11.184s-15.031-3.68-19.723-11.184zM157.395 497c.136-28.77 5.921-46.664 11.101-56.95 4.89 2.294 10.375 3.47 16.379 3.47 6 0 11.48-1.172 16.371-3.465 5.024 10.015 10.961 27.953 11.106 56.945zm176.07-38.832c0 21.41-17.418 38.832-38.828 38.832h-67.282c-.14-32.965-7.18-53.777-14.046-66.254q.662-.77 1.3-1.586s10.973 14.38 28.063 14.38a34.3 34.3 0 0 0 17.43-4.767s64.441-38.039 65.332-38.77c5.277 9.692 8.03 20.505 8.03 31.778zm-18.055-81.379c2.094 1.441 3.242 3.727 3.153 6.266-.09 2.539-1.399 4.734-3.59 6.023l-62.48 36.766a19.29 19.29 0 0 1-24.563-4.168l-16.364-19.324h.997c33.628 0 63.875-14.747 84.625-38.106zM212.56 387.352H157.19c-54.144 0-98.195-44.047-98.195-98.196V274.73c20.418 1.649 72.774-34.37 84.262-82.015h83.234c11.488 47.644 54.965 83.664 84.262 82.015v14.43c0 54.145-44.047 98.192-98.195 98.192m141.656-105.149c-2.727 15.164-15.512 26.031-30.238 26.992 2.09-14.488 1.777-40.613 1.777-40.613a29.4 29.4 0 0 0 11.215-21.426c4.707 2.426 8.777 5.98 11.883 10.45 5.015 7.214 6.921 15.953 5.363 24.597m0 0"/></svg>