<svg xmlns="http://www.w3.org/2000/svg" width="512pt" height="512pt" viewBox="0 -88 512.001 512"><path fill="#0092e2" d="M401.457 101.59c0-5.961 4.852-10.813 10.816-10.813h25.797v-2.77c0-20.167-16.347-36.519-36.515-36.519h-88.14v124.657h88.046V101.59zm0 0"/><path fill="#76e7e7" d="M391.457 176.145h46.613V88.008c0-2.477-.246-4.895-.715-7.23H412.27c-11.493 0-20.813 9.316-20.813 20.812zm0 0"/><path fill="#00b4fd" d="M477.504 273.422h-164.09V147.469h125.27c21.441 0 38.82 17.379 38.82 38.82zm0 0"/><path fill="#b0f0ef" d="M362.094 273.422H38.859V50.16c0-23.562 19.098-42.66 42.657-42.66h237.918c23.558 0 42.66 19.098 42.66 42.66zm0 0"/><path fill="#76e7e7" d="M162.445 7.5h-80.93C57.958 7.5 38.86 26.598 38.86 50.16v223.258h80.926V50.16c0-23.562 19.102-42.66 42.66-42.66m0 0"/><path fill="#889cb0" d="M484.79 287.824H27.21c-10.886 0-19.71-8.828-19.71-19.71 0-10.887 8.824-19.712 19.71-19.712h457.58c10.886 0 19.71 8.825 19.71 19.711 0 10.883-8.824 19.711-19.71 19.711m0 0"/><path fill="#6a829a" d="M205.695 268.113c0-10.886 8.825-19.71 19.711-19.71H27.211c-10.887 0-19.711 8.824-19.711 19.71 0 10.883 8.824 19.711 19.71 19.711h198.196c-10.886 0-19.71-8.828-19.71-19.71m0 0"/><path fill="#516980" d="M168.121 279.676c0 26.996-21.887 48.883-48.883 48.883S70.36 306.672 70.36 279.676s21.883-48.88 48.88-48.88c26.995 0 48.882 21.884 48.882 48.88m0 0"/><path fill="#3e4f61" d="M119.238 298.559c-10.41 0-18.879-8.47-18.879-18.883 0-10.41 8.47-18.88 18.88-18.88s18.882 8.47 18.882 18.88c0 10.414-8.473 18.883-18.883 18.883m0 0"/><path fill="#516980" d="M431.54 279.676c0 26.996-21.888 48.883-48.884 48.883s-48.879-21.887-48.879-48.883 21.883-48.88 48.88-48.88 48.882 21.884 48.882 48.88m0 0"/><path fill="#3e4f61" d="M382.656 298.559c-10.41 0-18.879-8.47-18.879-18.883 0-10.41 8.47-18.88 18.88-18.88s18.882 8.47 18.882 18.88c0 10.414-8.473 18.883-18.883 18.883m0 0"/><path fill="#5ad6ff" d="M436.031 168.898c-8.285 0-15-6.714-15-15v-12.953c0-8.285 6.715-15 15-15s15 6.715 15 15v12.953c0 8.286-6.715 15-15 15m0 0"/><path fill="#29ce69" d="M247.48 154.066c0-21.12-17.187-38.304-38.308-38.304h-17.395c-4.582 0-8.308-3.727-8.308-8.309 0-4.578 3.726-8.305 8.308-8.305h35.278c8.28 0 15-6.718 15-15 0-8.285-6.72-15-15-15h-11.672v-6.394c0-8.285-6.719-15-15-15-8.285 0-15 6.715-15 15v6.937c-18.09 3.055-31.914 18.82-31.914 37.762 0 21.125 17.187 38.309 38.308 38.309h17.395c4.582 0 8.308 3.726 8.308 8.304 0 4.582-3.726 8.309-8.308 8.309h-34.043c-8.285 0-15 6.715-15 15s6.715 15 15 15h10.254v6.39c0 8.286 6.715 15 15 15 8.281 0 15-6.714 15-15v-6.902c18.176-2.976 32.097-18.789 32.097-37.797m0 0"/><path fill="#f9ee80" d="M438.07 194.191c0 7.653 6.203 13.852 13.852 13.852h25.582v-21.754c0-2.023-.152-4.012-.453-5.95h-25.13c-7.648 0-13.85 6.2-13.85 13.852m0 0"/><path d="M485.004 240.906V186.29a46.27 46.27 0 0 0-26.473-41.867v-3.477c0-9-5.308-16.777-12.96-20.375V88.008c0-24.27-19.747-44.016-44.02-44.016h-32.352C366.145 19.234 345 0 319.434 0H81.516C53.859 0 31.359 22.5 31.359 50.16v6.235a7.5 7.5 0 1 0 15 0V50.16C46.36 30.773 62.133 15 81.516 15h237.918c19.386 0 35.16 15.773 35.16 35.16V230.81a56.8 56.8 0 0 0-12.809 10.093H160.11c-10.28-10.832-24.793-17.605-40.87-17.605-16.075 0-30.59 6.773-40.872 17.605H46.36V89.57a7.5 7.5 0 0 0-7.5-7.5 7.497 7.497 0 0 0-7.5 7.5v151.332S0 239.41 0 268.113c0 15.004 12.207 27.211 27.21 27.211h37.876c6.797 23.496 28.492 40.735 54.152 40.735s47.36-17.239 54.157-40.735h155.109c6.797 23.496 28.492 40.735 54.152 40.735 7.848 0 15.442-1.582 22.578-4.707a7.497 7.497 0 0 0 3.868-9.875 7.5 7.5 0 0 0-9.88-3.868c-5.23 2.29-10.8 3.45-16.566 3.45-22.816 0-41.379-18.563-41.379-41.383 0-22.817 18.563-41.38 41.38-41.38s41.382 18.563 41.382 41.38c0 6.894-1.726 13.71-4.988 19.722a7.49 7.49 0 0 0 3.008 10.168 7.5 7.5 0 0 0 10.171-3.007c1.934-3.563 3.45-7.34 4.57-11.235h47.99c15.003 0 27.21-12.207 27.21-27.21 0-14.934-12.09-27.09-26.996-27.208M27.21 280.324c-6.734 0-12.211-5.48-12.211-12.21 0-6.735 5.477-12.212 12.21-12.212h40.923a56 56 0 0 0-5.274 23.774c0 .219.012.43.016.648zm92.027 40.735c-22.816 0-41.379-18.563-41.379-41.383 0-22.817 18.563-41.38 41.38-41.38 22.82 0 41.382 18.563 41.382 41.38 0 22.82-18.562 41.383-41.383 41.383m56.367-40.735c0-.219.016-.43.016-.648a56 56 0 0 0-5.277-23.774H331.55a56 56 0 0 0-5.274 23.774c0 .219.012.43.016.648zm294.399-79.781h-18.082c-3.5 0-6.352-2.848-6.352-6.352s2.852-6.351 6.352-6.351h18.082zm-3.043-27.703s-18.156.183-19.645.512a22.6 22.6 0 0 0 10.024-12.239 31.3 31.3 0 0 1 9.62 11.727m-53.402-32.871h-14.602v-38.38c0-7.339 5.973-13.312 13.316-13.312h18.297v30.84c-9.472 2.371-16.582 10.758-17.011 20.852m14.972.976c0-4.136 3.364-7.5 7.5-7.5s7.5 3.364 7.5 7.5v12.953c0 4.137-3.363 7.5-7.5 7.5s-7.5-3.363-7.5-7.5zm-1.992-67.668h-14.27c-15.609 0-28.312 12.703-28.312 28.313v38.379H369.59V58.992h31.96c10.626 0 19.93 5.742 24.99 14.285m-43.883 150.02c-4.496 0-8.867.543-13.062 1.543v-69.871h43.965c.558 11.91 10.78 23.629 27.543 20.847-6.293 3.72-10.532 10.555-10.532 18.375 0 11.774 9.578 21.352 21.352 21.352h18.082v25.36h-46.477c-10.28-10.833-24.793-17.606-40.87-17.606m102.133 57.027h-45.77c0-.215.02-.433.02-.648a56 56 0 0 0-5.277-23.774h51.027c6.734 0 12.211 5.477 12.211 12.211 0 6.73-5.477 12.211-12.21 12.211m0 0"/><path d="M119.238 253.297c-14.547 0-26.379 11.832-26.379 26.379s11.832 26.383 26.38 26.383 26.382-11.836 26.382-26.383-11.836-26.38-26.383-26.38m0 37.762c-6.273 0-11.379-5.106-11.379-11.383 0-6.274 5.106-11.38 11.38-11.38 6.277 0 11.382 5.106 11.382 11.38 0 6.277-5.105 11.383-11.383 11.383M356.277 279.676c0 14.547 11.832 26.383 26.38 26.383s26.382-11.836 26.382-26.383-11.836-26.38-26.383-26.38-26.379 11.833-26.379 26.38m37.762 0c0 6.277-5.105 11.383-11.383 11.383-6.273 0-11.379-5.106-11.379-11.383 0-6.274 5.106-11.38 11.38-11.38 6.277 0 11.382 5.106 11.382 11.38M191.777 106.648h35.278c12.406 0 22.5-10.093 22.5-22.5 0-12.41-10.094-22.5-22.5-22.5h-4.2c-.578-11.898-10.44-21.394-22.472-21.394-22.54 0-22.5 23.547-22.5 23.547-18.824 5.945-31.914 23.394-31.914 43.652 0 25.258 20.55 45.809 45.808 45.809h17.395c.437 0 .808.367.808.804s-.37.809-.808.809h-34.043c-12.406 0-22.5 10.094-22.5 22.5 0 23.7 25.281 22.5 25.281 22.5.578 11.895 10.438 21.39 22.473 21.39 25.023 0 22.5-23.48 22.5-23.48 18.933-5.879 32.097-23.355 32.097-43.719 0-25.257-20.55-45.804-45.808-45.804h-17.395c-.437 0-.808-.371-.808-.809s.37-.805.808-.805m0 16.614h17.395c16.988 0 30.808 13.82 30.808 30.804 0 15.164-10.855 27.946-25.808 30.395a7.5 7.5 0 0 0-6.29 7.402v6.903c0 4.136-3.362 7.5-7.5 7.5-4.136 0-7.5-3.364-7.5-7.5v-6.391c0-4.14-3.359-7.5-7.5-7.5H175.13c-4.137 0-7.5-3.363-7.5-7.5s3.363-7.5 7.5-7.5h34.043c8.715 0 15.808-7.09 15.808-15.809 0-8.714-7.093-15.804-15.808-15.804h-17.395c-16.988 0-30.808-13.82-30.808-30.809a30.71 30.71 0 0 1 25.66-30.367 7.5 7.5 0 0 0 6.254-7.395v-6.937c0-4.137 3.363-7.5 7.5-7.5 4.133 0 7.5 3.363 7.5 7.5v6.394a7.5 7.5 0 0 0 7.5 7.5h11.672c4.132 0 7.5 3.364 7.5 7.5 0 4.133-3.368 7.5-7.5 7.5h-35.278c-8.714 0-15.808 7.09-15.808 15.805.004 8.715 7.094 15.809 15.808 15.809m0 0"/></svg>