<svg xmlns="http://www.w3.org/2000/svg" width="512pt" height="512pt" viewBox="0 -13 512.001 512"><path fill="#6a829a" d="M179.89 46.316h38.169v76.133H179.89zM293.941 46.316h38.168v76.133h-38.168zm0 0"/><path fill="#e7896e" d="M455.316 478.004H56.684c-27.164 0-49.184-22.02-49.184-49.184V165.703h497V428.82c0 27.164-22.02 49.184-49.184 49.184m0 0"/><path fill="#dd6642" d="M7.5 165.703V428.82c0 27.164 22.02 49.184 49.184 49.184h136.453c6.597-21.606 25.21-39.574 51.523-42.078C364.246 424.555 379.97 359.14 379.97 359.14V165.703zm0 0"/><path fill="#f2ad9a" d="M442.836 359.27H69.164C35.11 359.27 7.5 331.66 7.5 297.605V151.687c0-27.164 22.02-49.183 49.184-49.183h398.632c27.164 0 49.184 22.023 49.184 49.183v145.918c0 34.055-27.605 61.665-61.664 61.665m0 0"/><path fill="#e7896e" d="M91.527 297.605V151.688c0-27.165 22.024-49.184 49.188-49.184H56.684c-27.164 0-49.184 22.023-49.184 49.184v145.917c0 34.055 27.605 61.665 61.66 61.665h84.031c-34.054 0-61.664-27.61-61.664-61.665m0 0"/><path fill="#f9ee80" d="M256.996 416.063c-18.476 0-33.453-14.981-33.453-33.454v-46.937c0-18.473 14.977-33.453 33.453-33.453s33.453 14.98 33.453 33.453v46.937c0 18.473-14.976 33.454-33.453 33.454m0 0"/><path fill="#eedb00" d="M223.547 359.27v23.34c0 18.472 14.976 33.452 33.45 33.452 18.476 0 33.452-14.98 33.452-33.453v-23.34zm0 0"/><path fill="#e7896e" d="M323.387 71.883c-40.301-26.957-93.836-25.98-134.774 0-10.48 6.648-24.363 3.543-31.011-6.93-6.649-10.476-3.543-24.363 6.933-31.012 55.563-35.261 127.367-35.261 182.934 0 10.472 6.649 13.578 20.536 6.93 31.012-4.282 6.742-18.188 15.508-31.012 6.93m0 0"/><path fill="#454545" d="M256 249.484c-15.52 0-28.102-12.582-28.102-28.101v-20.43a7.673 7.673 0 0 1 7.672-7.672h40.86a7.67 7.67 0 0 1 7.672 7.672v20.43c-.004 15.52-12.582 28.101-28.102 28.101m0 0"/><path fill="#ffd2e3" d="M191.977 221.383c0-13.184-13.418-23.871-29.973-23.871s-29.973 10.687-29.973 23.87 13.418 23.868 29.973 23.868 29.973-10.684 29.973-23.867M379.969 221.383c0-13.184-13.418-23.871-29.973-23.871s-29.973 10.687-29.973 23.87 13.418 23.868 29.973 23.868 29.973-10.684 29.973-23.867m0 0"/><path fill="#dd6642" d="M157.602 64.953c6.648 10.473 20.53 13.578 31.011 6.93a127.6 127.6 0 0 1 55.168-19.168c-19.433-2.317-39.875-1.504-44.808-11.246-6.953-13.739 3.34-25.27 3.488-25.43a169.2 169.2 0 0 0-37.926 17.902c-10.476 6.649-13.582 20.536-6.933 31.012m0 0"/><path d="M344.156 200.781v-12.453a7.5 7.5 0 1 0-15 0v12.453a7.5 7.5 0 1 0 15 0M182.844 200.781v-12.453a7.5 7.5 0 1 0-15 0v12.453a7.5 7.5 0 1 0 15 0m0 0"/><path d="M455.316 95.004H339.61v-12.48c10.387-1.934 18.036-8.692 21.121-13.555 8.856-13.95 4.707-32.504-9.246-41.36-58-36.812-132.96-36.812-190.968 0-13.95 8.852-18.102 27.41-9.246 41.36 4.886 7.699 12.73 12.406 21.12 13.597v12.438H56.685C25.43 95.004 0 120.434 0 151.687v27.887c0 4.145 3.355 7.5 7.5 7.5s7.5-3.355 7.5-7.5v-27.887c0-22.984 18.7-41.683 41.684-41.683h398.632c22.985 0 41.684 18.7 41.684 41.683v145.918c0 26.98-20.121 50.051-46.809 53.668a7.504 7.504 0 0 0-6.425 8.442c.511 3.762 2.597 7.11 8.441 6.422 18.242-2.133 34.012-12.02 44.797-25.63v88.317c0 22.985-18.7 41.684-41.688 41.684H56.684C33.699 470.504 15 451.805 15 428.82v-88.28c12.68 15.964 32.238 26.23 54.16 26.23h146.887v15.84c0 22.581 18.367 40.952 40.95 40.952 22.581 0 40.952-18.37 40.952-40.953v-15.84h121.196a7.5 7.5 0 0 0 7.5-7.5c0-4.144-3.356-7.5-7.5-7.5H297.949v-16.097c0-22.582-18.37-40.953-40.953-40.953-22.582 0-40.95 18.37-40.95 40.953v16.098H69.16c-29.863 0-54.16-24.301-54.16-54.165v-86.87c0-4.141-3.355-7.5-7.5-7.5s-7.5 3.359-7.5 7.5V428.82c0 31.258 25.43 56.688 56.684 56.688h398.632c31.254 0 56.684-25.43 56.684-56.688V151.687c0-31.253-25.43-56.683-56.684-56.683M256.277 59.53h.621c10.13 0 20.043 1.301 29.543 3.82v31.653h-60.886v-31.29a120 120 0 0 1 30.722-4.183m45.164 8.969c6.2 2.645 21.317 11.723 23.168 12.469v14.035h-23.168zm-137.503-7.566c-4.426-6.97-2.352-16.239 4.617-20.66 53.125-33.711 121.773-33.711 174.894 0 6.969 4.421 9.04 13.69 4.617 20.656-1.277 2.015-9.265 11.785-20.507 4.718-21.051-13.234-45.082-21.117-70.66-21.117h-.7a134.77 134.77 0 0 0-71.601 21.02c-6.973 4.418-16.243 2.347-20.66-4.617m23.453 19.925c1.796-.695 16.968-9.398 23.168-11.996v26.14H187.39zm95.558 301.75c0 14.309-11.64 25.954-25.953 25.954-14.309 0-25.95-11.645-25.95-25.954v-15.84h51.903zm-51.902-46.933c0-14.313 11.64-25.953 25.95-25.953 14.312 0 25.952 11.64 25.952 25.953v16.094h-51.902zm0 0"/><path d="M256 256.984c19.629 0 35.602-15.972 35.602-35.601v-20.43c0-8.367-6.805-15.172-15.172-15.172h-40.86c-8.367 0-15.172 6.809-15.172 15.172v20.43c0 19.629 15.973 35.601 35.602 35.601m-20.602-56.03c0-.095 41.204-.095 41.204 0v20.429c-.004 11.36-9.243 20.601-20.602 20.601s-20.602-9.242-20.602-20.601zm0 0"/></svg>