<svg xmlns="http://www.w3.org/2000/svg" width="512pt" height="512pt" viewBox="-43 0 512 512"><path fill="#6a829a" d="M233.156 77.008H192.47V27.844c0-11.235 9.11-20.344 20.344-20.344s20.343 9.11 20.343 20.344zm0 0"/><path fill="#a7b6c5" d="M197.645 229.469h30.34v195.308h-30.34zm0 0"/><path fill="#889cb0" d="M227.984 314.457v-84.988h-30.34v86.316a96.4 96.4 0 0 1 30.34-1.328m0 0"/><path fill="#5ad6ff" d="M189.992 53.215S54.766 53.19 8.527 202.359c-4.367 14.094 5.746 28.594 20.48 29.352 28.61 1.469 71.282 11.98 90.29 58.91zm0 0"/><path fill="#00c5fd" d="m119.297 290.625 70.695-237.41s-20.722 0-48.719 8.941c-22.96 23.852-57.601 67.68-68.18 123.489-3.933 20.75-8.577 37.578-13.363 51.203 22.895 6.867 46.676 21.941 59.567 53.777m0 0"/><path fill="#5ad6ff" d="M235.633 53.215s135.23-.024 181.465 149.144c4.367 14.094-5.743 28.594-20.477 29.352-28.61 1.469-71.281 11.98-90.293 58.91zm0 0"/><path fill="#00c5fd" d="m306.328 290.625-70.695-237.41s20.722-.004 48.715 8.941c22.965 23.852 57.609 67.68 68.187 123.489 3.934 20.75 8.578 37.582 13.363 51.207-22.898 6.863-46.675 21.937-59.57 53.773m0 0"/><path fill="#a4e7ff" d="M179.094 60.418C102.547 131.285 99.37 234.68 104.16 289.512c1.184 13.527 17.524 19.765 27.344 10.386 17.062-16.3 44.121-33.941 81.309-33.941s64.246 17.64 81.312 33.941c9.82 9.38 26.16 3.141 27.34-10.386 4.789-54.832 1.617-158.227-74.93-229.094a49.49 49.49 0 0 0-67.441 0m0 0"/><path fill="#6a829a" d="M168.516 504.5c-37.508 0-68.102-30.156-68.813-67.492-.258-13.395 10.16-25.328 23.547-25.848 14.023-.543 25.559 10.7 25.5 24.617-.031 7.711 4.21 14.883 11.313 17.887 14.359 6.082 28.218-4.363 28.218-17.988V402.57c0-9.246 7.496-16.742 16.742-16.742h15.582c9.247 0 16.739 7.496 16.739 16.742v32.145c0 38.168-30.66 69.789-68.828 69.785m0 0"/><path fill="#eedb00" d="m407.105 374.063-18.093-18.094-59.055 59.05 18.094 18.098c11.93 11.926 34.82 8.38 51.125-7.93 16.308-16.308 19.86-39.195 7.93-51.124m0 0"/><path fill="#f9ee80" d="M381.082 407.086c16.309-16.305 19.855-39.195 7.93-51.125-11.93-11.926-34.82-8.379-51.125 7.93-16.309 16.304-19.86 39.195-7.93 51.125 11.93 11.925 34.816 8.379 51.125-7.93m0 0"/><path fill="#eedb00" d="m14.563 335.488 18.097-18.093 59.05 59.05-18.093 18.098c-11.93 11.926-34.82 8.379-51.125-7.93-16.308-16.308-19.86-39.195-7.93-51.125m0 0"/><path fill="#f9ee80" d="M40.59 368.52c16.308 16.308 39.195 19.855 51.125 7.93 11.93-11.93 8.379-34.821-7.93-51.126-16.305-16.308-39.195-19.855-51.125-7.93-11.926 11.93-8.379 34.82 7.93 51.126m0 0"/><path fill="#454545" d="M227.848 194.414c0-10.578-6.73-19.152-15.036-19.152-8.3 0-15.035 8.574-15.035 19.152s6.735 19.156 15.036 19.156c8.304 0 15.035-8.578 15.035-19.156m0 0"/><path d="M274.621 199.371c4.14 0 7.5-3.36 7.5-7.5v-12.45a7.5 7.5 0 0 0-7.5-7.5 7.497 7.497 0 0 0-7.5 7.5v12.45a7.5 7.5 0 0 0 7.5 7.5M151.008 171.922a7.497 7.497 0 0 0-7.5 7.5v12.45a7.5 7.5 0 0 0 7.5 7.5 7.5 7.5 0 0 0 7.5-7.5v-12.45a7.5 7.5 0 0 0-7.5-7.5m0 0"/><path d="M328.938 290.164a383 383 0 0 0 1.332-23.586c19.726-20.789 47.144-26.371 66.734-27.375 9.348-.48 17.789-5.172 23.164-12.867 5.375-7.7 6.867-17.246 4.094-26.195-7.801-25.168-18.637-47.844-32.203-67.395a7.501 7.501 0 0 0-12.325 8.555c12.692 18.289 22.856 39.578 30.2 63.281 1.394 4.492.64 9.293-2.067 13.172-2.703 3.867-6.941 6.226-11.633 6.469-18.988.976-44.53 5.824-65.972 22.246-1.496-54.91-15.66-126.828-69.512-182.606 25.438 5.117 65.754 18.563 99.742 53.903a7.5 7.5 0 0 0 5.406 2.3 7.46 7.46 0 0 0 5.2-2.097 7.494 7.494 0 0 0 .203-10.602c-50.633-52.64-112.649-60.34-130.645-61.46V27.843C240.656 12.488 228.168 0 212.812 0c-15.351 0-27.843 12.488-27.843 27.844v18.074c-11.153.719-39.434 4.016-71.567 19.148-23.87 11.239-44.918 26.715-62.547 46-21.964 24.02-38.613 53.985-49.488 89.075-2.773 8.949-1.281 18.496 4.094 26.195 5.371 7.695 13.816 12.387 23.164 12.863 19.586 1.008 47.008 6.59 66.734 27.38.22 8.534.707 16.452 1.332 23.585.801 9.184 6.664 16.906 15.301 20.164 2.766 1.043 14.383 4.336 24.692-5.008 12.03-10.906 29.652-24.09 53.46-29.386v107.52c-5.69 4.437-9.363 11.355-9.363 19.116v33.102c0 4.121-2.062 7.945-5.52 10.234-2.077 1.38-6.437 3.324-12.273.852-4.113-1.738-6.738-6.04-6.738-10.95 0-21.046-10.945-32.144-33.29-32.144-17.312 0-31.097 15.691-30.757 33.484.383 20.047 8.5 38.856 22.852 52.957 14.37 14.118 33.36 21.895 53.457 21.895h.008c20.43 0 39.636-8.105 54.078-22.824 14.347-14.625 22.246-33.965 22.246-54.461V402.57c0-7.824-3.727-14.789-9.496-19.222V275.906c23.875 5.278 41.832 18.176 53.597 29.414 6.63 6.332 16.09 8.254 24.688 5.012 8.64-3.258 14.504-10.984 15.304-20.168M212.813 15c7.082 0 12.843 5.762 12.843 12.844v13.281c-12.844-2.5-21.508-.969-25.687 0V27.844c0-7.082 5.761-12.844 12.844-12.844M29.394 224.223c-4.692-.243-8.934-2.602-11.637-6.473-2.703-3.875-3.457-8.676-2.063-13.168C25.863 171.773 41.32 143.82 61.637 121.5c16.218-17.812 35.586-32.145 57.566-42.586 17.121-8.133 33.227-12.629 45.738-15.117-53.902 55.785-68.078 127.742-69.574 182.672-21.441-16.426-46.984-21.274-65.972-22.246m200.449 210.492c0 16.543-6.375 32.152-17.953 43.953C200.293 490.488 184.887 497 168.52 497h-.008c-33.176 0-60.68-26.977-61.313-60.137-.18-9.523 5.707-18.222 17.02-18.222 16.11 0 17.05 12.414 17.031 17.101-.043 10.977 6.191 20.723 15.887 24.828 8.976 3.801 18.601 3.016 26.41-2.16 7.66-5.074 12.234-13.574 12.234-22.738V402.57c0-5.097 4.145-9.242 9.242-9.242h15.579c5.097 0 9.242 4.145 9.242 9.242zm-9.496-56.387h-15.203V273.742c2.503-.18 7.667-1.113 15.203-.008zm93.648-89.469c-.3 3.438-2.414 6.215-5.652 7.438-3.2 1.207-6.582.523-9.04-1.824-17.199-16.43-46.171-36.016-86.492-36.016s-69.289 19.586-86.492 36.016c-2.457 2.351-5.836 3.03-9.035 1.824-3.242-1.223-5.355-4-5.652-7.438-4.703-53.82-1.524-154.351 72.558-222.937 8.157-7.555 18.391-11.332 28.621-11.332 10.235 0 20.465 3.777 28.625 11.332 74.083 68.586 77.258 169.117 72.56 222.937m0 0"/><path d="M212.813 167.762c-12.426 0-22.536 11.957-22.536 26.652 0 14.7 10.11 26.656 22.536 26.656s22.535-11.957 22.535-26.656c0-14.695-10.11-26.652-22.536-26.652m0 38.308c-3.563 0-7.536-4.789-7.536-11.656s3.973-11.652 7.536-11.652c3.566 0 7.535 4.785 7.535 11.652s-3.97 11.656-7.536 11.656M97.012 381.75c14.836-14.836 11.277-42.527-7.926-61.73-19.203-19.207-46.898-22.762-61.73-7.93L9.257 330.188c-14.832 14.832-11.203 42.453 7.93 61.726 17.085 17.215 44.996 22.375 61.73 7.934zm-69.219-.441c-12.418-12.414-16.332-29.68-9.25-38.989 1.34 8.817 5.375 17.973 12.047 26.278a7.502 7.502 0 0 0 11.695-9.399c-10.37-12.902-12.23-28.597-4.324-36.504 8.832-8.832 27.387-5.199 40.52 7.93 13.128 13.133 16.761 31.684 7.93 40.52l-.009.003c-5.105 5.102-13.75 6.262-23.129 3.118a7.497 7.497 0 0 0-9.496 4.718 7.5 7.5 0 0 0 4.723 9.5 49 49 0 0 0 8.352 2.024c-9.293 7.152-26.61 3.25-39.059-9.2M394.313 350.664c-7.504-7.504-18.29-10.605-30.372-8.73-11.218 1.738-22.355 7.656-31.359 16.66s-14.922 20.14-16.66 31.355c-1.875 12.082 1.226 22.871 8.734 30.375l18.094 18.094c6.074 6.074 15.383 10.812 30.371 8.734 11.246-1.562 22.356-7.656 31.36-16.66s14.921-20.14 16.66-31.36c1.875-12.081-1.227-22.866-8.73-30.374zM343.188 369.2c17.375-15.656 32.039-15.586 40.53-7.918 8.493 7.672 5.184 27.383-7.94 40.508-13.13 13.133-32.173 17.223-40.516 7.93-6.95-7.742-7.617-26.512 7.926-40.52m63.128 27.637c-1.253 8.094-5.671 16.277-12.441 23.047s-14.957 11.191-23.05 12.445c-6.47 1-12.118-.183-16.122-3.332 10.93-1.601 22.317-7.234 31.684-16.598v-.003c9.367-9.368 14.996-20.75 16.601-31.68 3.149 4.008 4.332 9.648 3.328 16.12m0 0"/></svg>