<svg xmlns="http://www.w3.org/2000/svg" width="512pt" height="512pt" viewBox="0 -12 512 512"><path fill="#6a829a" d="M128.3 481.3h-22.413c-16.578 0-30.02-13.44-30.02-30.023V412.11h82.453v39.168c0 16.582-13.437 30.024-30.02 30.024M406.113 481.3H383.7c-16.582 0-30.02-13.44-30.02-30.023V412.11h82.454v39.168c0 16.582-13.442 30.024-30.02 30.024m0 0"/><path fill="#a7b6c5" d="M442.844 442.14H69.156c-34.05 0-61.656-27.605-61.656-61.66V69.156C7.5 35.106 35.105 7.5 69.156 7.5h373.688c34.05 0 61.656 27.605 61.656 61.656V380.48c0 34.055-27.605 61.66-61.656 61.66m0 0"/><path fill="#889cb0" d="M182.613 7.5H69.156C35.106 7.5 7.5 35.105 7.5 69.156V380.48c0 34.055 27.605 61.66 61.656 61.66h39.797c4.688-8.304 11.926-18.081 23.078-28.964 35.711-34.848 24.418-84.246 24.418-84.246s-39.73-84.094-39.355-84.532c-15.16-53.714-18.621-110.078-18.098-154.347C99.543 44.285 136.848 7.5 182.613 7.5m0 0"/><path fill="#889cb0" d="M85.695 391.215c-15.062 0-27.27-12.207-27.27-27.27V85.695c0-15.062 12.208-27.27 27.27-27.27h340.61c15.062 0 27.27 12.208 27.27 27.27v278.25c0 15.059-12.208 27.27-27.27 27.27zm0 0"/><path fill="#6a829a" d="M105.61 58.426H85.694c-15.062 0-27.27 12.207-27.27 27.27v278.25c0 15.058 12.208 27.269 27.27 27.269h62.496c15.516-30.543 8.258-62.29 8.258-62.29s-39.73-84.09-39.355-84.527c-15.16-53.714-18.621-110.078-18.098-154.347.137-11.223 2.477-21.895 6.613-31.625m0 0"/><path fill="#fcf5af" d="m100.863 243.191 6.79 72.114c1.312 13.937 13.015 24.586 27.015 24.586 13.996 0 25.7-10.649 27.012-24.586l6.789-72.114c1.875-19.918-13.793-37.132-33.801-37.132s-35.68 17.214-33.805 37.132m0 0"/><path fill="#516980" d="M386.18 358.18H269.996c-14.973 0-27.113-12.14-27.113-27.114v-116.18c0-14.976 12.14-27.116 27.113-27.116H386.18c14.972 0 27.113 12.14 27.113 27.117v116.18c0 14.972-12.14 27.113-27.113 27.113m0 0"/><g fill="#5ad6ff"><path d="M301.828 261.348h-16.48c-6.625 0-11.996-5.371-11.996-11.996v-16.485c0-6.625 5.37-11.996 11.996-11.996h16.48c6.625 0 11.996 5.371 11.996 11.996v16.485c0 6.625-5.37 11.996-11.996 11.996M370.828 261.348h-16.48c-6.625 0-11.996-5.371-11.996-11.996v-16.485c0-6.625 5.37-11.996 11.996-11.996h16.48c6.625 0 11.996 5.371 11.996 11.996v16.485c0 6.625-5.37 11.996-11.996 11.996M301.828 325.078h-16.48c-6.625 0-11.996-5.371-11.996-11.996v-16.48c0-6.625 5.37-11.997 11.996-11.997h16.48c6.625 0 11.996 5.372 11.996 11.997v16.48c0 6.625-5.37 11.996-11.996 11.996M370.828 325.078h-16.48c-6.625 0-11.996-5.371-11.996-11.996v-16.48c0-6.625 5.37-11.997 11.996-11.997h16.48c6.625 0 11.996 5.372 11.996 11.997v16.48c0 6.625-5.37 11.996-11.996 11.996m0 0"/></g><path fill="#fdb2db" d="M191.977 136.45c0-13.18-13.418-23.868-29.973-23.868s-29.973 10.688-29.973 23.867c0 13.184 13.418 23.871 29.973 23.871s29.973-10.687 29.973-23.87M379.969 136.45c0-13.18-13.418-23.868-29.973-23.868s-29.973 10.688-29.973 23.867c0 13.184 13.418 23.871 29.973 23.871s29.973-10.687 29.973-23.87m0 0"/><path d="M228.484 123.152c8.102 6.282 17.809 9.422 27.516 9.422s19.414-3.14 27.516-9.422a7.503 7.503 0 0 0 1.328-10.523 7.504 7.504 0 0 0-10.524-1.332 29.88 29.88 0 0 1-36.64 0 7.5 7.5 0 0 0-10.524 1.332 7.503 7.503 0 0 0 1.328 10.523M159.836 120.34a7.5 7.5 0 0 0 10.383-2.153c1.64-2.496 4.129-2.765 5.125-2.765.992 0 3.441.3 5.12 2.766 3.505 5.144 9.118 2.984 10.388 2.152 3.46-2.278 4.425-6.926 2.152-10.387a21.07 21.07 0 0 0-17.66-9.531 21.06 21.06 0 0 0-17.66 9.531 7.5 7.5 0 0 0 2.152 10.387M321.148 120.34c3.461 2.273 8.11 1.308 10.387-2.153 1.637-2.496 4.125-2.765 5.121-2.765.992 0 3.442.3 5.121 2.766 3.504 5.144 9.118 2.984 10.387 2.152a7.5 7.5 0 0 0 2.152-10.387c-3.918-5.969-10.52-9.531-17.66-9.531s-13.742 3.562-17.66 9.531c-2.273 3.461-1.309 8.11 2.152 10.387m0 0"/><path d="M442.844 0h-33.469c-4.14 0-7.5 3.355-7.5 7.5s3.36 7.5 7.5 7.5h33.469C472.707 15 497 39.297 497 69.156V380.48c0 29.864-24.293 54.157-54.156 54.157H69.156C39.293 434.64 15 410.344 15 380.48V69.156C15 39.296 39.293 15 69.156 15h306.63c4.14 0 7.5-3.355 7.5-7.5s-3.36-7.5-7.5-7.5H69.155C31.023 0 0 31.023 0 69.156V380.48c0 37.872 30.598 68.711 68.367 69.137 0 0-.605 39.184 37.52 39.184H128.3c38.804 0 37.52-39.164 37.52-39.164H346.18s-.477 39.164 37.52 39.164h22.413c37.637 0 37.52-39.184 37.52-39.184 37.77-.426 68.367-31.265 68.367-69.137V69.156C512 31.023 480.977 0 442.844 0M128.3 473.8h-22.414c-23.27 0-22.52-24.16-22.52-24.16h67.453s-.125 24.16-22.52 24.16m277.812 0H383.7c-24.289 0-22.52-24.16-22.52-24.16h67.454s.078 24.16-22.52 24.16m0 0"/><path d="M50.926 85.695v278.25c0 19.172 15.597 34.77 34.77 34.77h340.609c19.172 0 34.77-15.598 34.77-34.77V85.695c0-19.172-15.598-34.77-34.77-34.77H85.695c-19.172 0-34.77 15.598-34.77 34.77m395.148 0v278.25c0 10.899-8.867 19.77-19.77 19.77H85.696c-10.902 0-19.77-8.867-19.77-19.77V85.695c0-10.902 8.868-19.77 19.77-19.77h340.61c10.902 0 19.77 8.868 19.77 19.77m0 0"/><path d="M97.172 283.984c.39 4.121 4.055 7.153 8.172 6.762a7.495 7.495 0 0 0 6.761-8.168l-3.773-40.09c-.707-7.504 1.7-14.707 6.773-20.285 5.079-5.574 12.024-8.644 19.563-8.644s14.484 3.07 19.562 8.644c5.075 5.578 7.48 12.781 6.774 20.285l-6.79 72.11c-.956 10.144-9.359 17.793-19.546 17.793s-18.59-7.649-19.547-17.793c-.387-4.121-4.035-7.145-8.168-6.762a7.5 7.5 0 0 0-6.766 8.168c1.684 17.894 16.508 31.387 34.481 31.387s32.793-13.493 34.48-31.387l6.79-72.11a41.54 41.54 0 0 0-10.618-31.789c-7.836-8.609-19.007-13.546-30.652-13.546s-22.816 4.937-30.652 13.55a41.53 41.53 0 0 0-10.618 31.786zM235.383 214.887v116.18c0 19.085 15.527 34.613 34.613 34.613H386.18c19.086 0 34.613-15.528 34.613-34.614v-116.18c0-19.085-15.527-34.616-34.613-34.616H269.996c-19.086 0-34.613 15.53-34.613 34.617m170.41 0v116.18c0 10.816-8.8 19.613-19.613 19.613H269.996c-10.812 0-19.613-8.797-19.613-19.614v-116.18c0-10.816 8.8-19.616 19.613-19.616H386.18c10.812 0 19.613 8.8 19.613 19.617m0 0"/><path d="M265.852 249.352c0 10.75 8.746 19.496 19.496 19.496h16.48c10.75 0 19.496-8.746 19.496-19.496v-16.485c0-10.75-8.746-19.496-19.496-19.496h-16.48c-10.75 0-19.496 8.746-19.496 19.496zm15-16.485a4.5 4.5 0 0 1 4.496-4.496h16.48c2.48 0 4.496 2.02 4.496 4.496v16.485a4.5 4.5 0 0 1-4.496 4.496h-16.48a4.5 4.5 0 0 1-4.496-4.496zM354.348 268.848h16.48c10.75 0 19.496-8.746 19.496-19.496v-16.485c0-10.75-8.746-19.496-19.496-19.496h-16.48c-10.75 0-19.496 8.746-19.496 19.496v16.485c0 10.75 8.746 19.496 19.496 19.496m-4.496-35.98a4.5 4.5 0 0 1 4.496-4.497h16.48c2.48 0 4.496 2.02 4.496 4.496v16.485a4.5 4.5 0 0 1-4.496 4.496h-16.48a4.5 4.5 0 0 1-4.496-4.496zM301.828 277.105h-16.48c-10.75 0-19.496 8.747-19.496 19.497v16.48c0 10.75 8.746 19.496 19.496 19.496h16.48c10.75 0 19.496-8.746 19.496-19.496v-16.48c0-10.75-8.746-19.497-19.496-19.497m4.496 35.977a4.5 4.5 0 0 1-4.496 4.496h-16.48a4.5 4.5 0 0 1-4.496-4.496v-16.48a4.5 4.5 0 0 1 4.496-4.497h16.48a4.5 4.5 0 0 1 4.496 4.497zM354.348 332.578h16.48c10.75 0 19.496-8.746 19.496-19.496v-16.48c0-10.75-8.746-19.497-19.496-19.497h-16.48c-10.75 0-19.496 8.747-19.496 19.497v16.48c0 10.75 8.746 19.496 19.496 19.496m-4.496-35.976a4.5 4.5 0 0 1 4.496-4.497h16.48a4.5 4.5 0 0 1 4.496 4.497v16.48a4.5 4.5 0 0 1-4.496 4.496h-16.48a4.5 4.5 0 0 1-4.496-4.496zm0 0"/></svg>