<svg xmlns="http://www.w3.org/2000/svg" width="512pt" height="512pt" viewBox="0 -12 512 511"><path fill="#c8866a" d="M106.715 145.008h283.152v254.625H106.715zm0 0"/><path fill="#fab658" d="M418.637 203.945h-57.543s-24.219 107.668-24.25 191.86H442.89c-.032-84.192-24.254-191.86-24.254-191.86m0 0"/><path fill="#f69e18" d="M426.094 241.309c-4.16-22.711-7.457-37.364-7.457-37.364h-57.54s-6.378 28.348-12.59 67.32c11.563-5.636 25.759-11.261 41.36-14.624 15.309-3.297 27.266-9.23 36.227-15.332m0 0"/><path fill="#fab658" d="M418.164 214.469h-56.598c-13.656 0-24.726-11.07-24.726-24.723v-34.371h106.05v34.371c0 13.652-11.07 24.723-24.726 24.723M284.77 203.945h-57.54s-24.222 107.668-24.253 191.86h106.046c-.03-84.192-24.253-191.86-24.253-191.86m0 0"/><path fill="#f69e18" d="M292.227 241.305c-4.16-22.707-7.457-37.36-7.457-37.36h-57.54s-6.378 28.348-12.59 67.32c11.563-5.64 25.758-11.261 41.36-14.624 15.309-3.297 27.266-9.235 36.227-15.336m0 0"/><path fill="#fab658" d="M284.3 214.469h-56.6c-13.653 0-24.723-11.07-24.723-24.723v-34.371h106.046v34.371c0 13.652-11.07 24.723-24.722 24.723M150.902 203.945H93.363S69.141 311.613 69.11 395.805h106.047c-.031-84.192-24.254-191.86-24.254-191.86m0 0"/><path fill="#f69e18" d="M158.36 241.309c-4.16-22.711-7.458-37.364-7.458-37.364H93.363s-6.379 28.352-12.59 67.32c11.563-5.636 25.758-11.261 41.36-14.624 15.308-3.297 27.27-9.235 36.226-15.332m0 0"/><path fill="#fab658" d="M150.434 214.469H93.836c-13.656 0-24.727-11.07-24.727-24.723v-34.371h106.047v34.371c0 13.652-11.066 24.723-24.722 24.723m0 0"/><path fill="#fdcb89" d="M69.11 145.008h373.78L285.216 18.195c-17.063-13.718-41.367-13.718-58.426 0zm0 0"/><path fill="#fab658" d="M69.11 145.008H234.5c-56.406-52.031-7.715-126.813-7.715-126.813zm0 0"/><path fill="#ffe0b7" d="M436.281 174.492H75.72c-12.989 0-23.516-10.527-23.516-23.515 0-12.985 10.527-23.516 23.516-23.516H436.28c12.989 0 23.516 10.531 23.516 23.516 0 12.988-10.527 23.515-23.516 23.515m0 0"/><path fill="#fdcb89" d="M120.613 150.977c0-12.985 10.532-23.516 23.516-23.516h-68.41c-12.989 0-23.516 10.531-23.516 23.516 0 12.988 10.527 23.515 23.516 23.515h68.41c-12.984 0-23.516-10.527-23.516-23.515m0 0"/><path fill="#ffe0b7" d="M469.969 429.633H37.489v-28.149c0-17.59 14.261-31.851 31.855-31.851h368.77c17.593 0 31.855 14.262 31.855 31.851zm0 0"/><path fill="#fdcb89" d="M130.02 369.633H69.344c-17.594 0-31.856 14.262-31.856 31.851v28.149h60.676v-28.149c0-17.59 14.262-31.851 31.856-31.851m0 0"/><path fill="#fdcb89" d="M474.344 480.871H37.656c-16.652 0-30.156-13.504-30.156-30.16s13.504-30.156 30.156-30.156h436.688c16.652 0 30.156 13.5 30.156 30.156s-13.504 30.16-30.156 30.16m0 0"/><path fill="#fab658" d="M69.11 450.71c0-16.655 13.5-30.155 30.156-30.155h-61.61c-16.652 0-30.156 13.5-30.156 30.156s13.504 30.16 30.156 30.16h61.61c-16.657 0-30.157-13.504-30.157-30.16m0 0"/><path d="M303.406 72.23a7.5 7.5 0 0 0-7.5 7.5v12.45a7.5 7.5 0 1 0 15 0V79.73c0-4.144-3.355-7.5-7.5-7.5M208.594 72.23a7.497 7.497 0 0 0-7.5 7.5v12.45a7.5 7.5 0 1 0 15 0V79.73a7.5 7.5 0 0 0-7.5-7.5M271.508 82.535c-1.27-.832-6.88-2.992-10.387 2.153-1.68 2.464-4.129 2.765-5.121 2.765s-3.484-.27-5.121-2.766c-2.277-3.46-6.926-4.425-10.387-2.152a7.5 7.5 0 0 0-2.152 10.387c3.922 5.969 10.52 9.531 17.66 9.531s13.738-3.562 17.66-9.531a7.5 7.5 0 0 0-2.152-10.387m0 0"/><path d="M477.469 413.195v-11.71c0-17.786-11.867-32.844-28.094-37.7-3.316-56.078-13.98-115.047-19.746-143.93 12.125-4.628 20.762-16.378 20.762-30.109v-11.16c10.027-5.148 16.906-15.586 16.906-27.61 0-17.101-13.91-31.011-31.016-31.011h-12.566l-133.8-107.613c-19.653-15.801-48.177-15.801-67.83 0l-133.8 107.613H75.72c-17.106 0-31.016 13.91-31.016 31.012 0 12.023 6.879 22.46 16.906 27.609v11.16c0 13.73 8.641 25.48 20.766 30.11-4.582 22.972-12.984 68.707-17.547 115.894-.394 4.121 2.621 7.79 6.746 8.188q.368.035.73.035a7.503 7.503 0 0 0 7.458-6.782c4.55-47.105 13-92.812 17.488-115.222h49.77c5.57 27.765 16.03 85.199 19.496 140.164H69.344c-21.7 0-39.356 17.656-39.356 39.355v12.356C12.891 417.394 0 432.574 0 450.714c0 20.763 16.895 37.657 37.656 37.657h436.688c20.761 0 37.656-16.894 37.656-37.656 0-19.715-15.227-35.926-34.531-37.52M210.477 181.992h91.046v7.754c0 9.496-7.726 17.223-17.222 17.223h-56.602c-9.496 0-17.222-7.727-17.222-17.223zm20.636 39.977h49.77c5.57 27.765 16.031 85.199 19.496 140.164H211.62c3.465-54.945 13.91-112.328 19.492-140.164m84.297 140.164c-3.43-55.594-13.937-113.684-19.648-142.278 12.125-4.628 20.761-16.378 20.761-30.109v-7.754h12.82v7.754c0 13.73 8.637 25.48 20.762 30.11-5.726 28.66-16.218 86.703-19.648 142.277zm49.57-140.164h49.77c5.57 27.773 16.031 85.21 19.496 140.164h-88.762c3.465-54.945 13.914-112.328 19.496-140.164M231.488 24.043c14.203-11.426 34.82-11.426 49.024 0l119.27 95.922H112.218zM75.718 134.965h360.563c8.832 0 16.016 7.183 16.016 16.012 0 8.832-7.184 16.015-16.016 16.015h-21.863a7.5 7.5 0 0 0-7.5 7.5c0 4.145 3.355 7.5 7.5 7.5h20.973v7.754c0 9.496-7.727 17.227-17.227 17.227h-56.598c-9.496 0-17.226-7.73-17.226-17.227v-7.754h39.02c4.144 0 7.5-3.355 7.5-7.5a7.5 7.5 0 0 0-7.5-7.5H75.718c-8.832 0-16.016-7.183-16.016-16.015 0-8.829 7.184-16.012 16.016-16.012m.891 54.781v-7.754h91.047v7.754c0 9.496-7.726 17.223-17.222 17.223H93.836c-9.5 0-17.227-7.727-17.227-17.223m85.286 30.11c12.125-4.63 20.761-16.38 20.761-30.11v-7.754h12.82v7.754c0 13.73 8.637 25.48 20.762 30.11-5.726 28.664-16.218 86.707-19.648 142.277h-15.047c-3.43-55.594-13.938-113.684-19.648-142.278M69.344 377.132h368.77c13.429 0 24.355 10.926 24.355 24.351v11.57H44.989v-11.57c0-13.425 10.925-24.351 24.355-24.351m405 96.238H37.656C25.164 473.371 15 463.207 15 450.715c0-12.496 10.164-22.66 22.656-22.66h436.688c12.492 0 22.656 10.164 22.656 22.66 0 12.492-10.164 22.656-22.656 22.656m0 0"/></svg>