<svg xmlns="http://www.w3.org/2000/svg" width="512pt" height="512pt" viewBox="0 -3 512 512"><path fill="#5ad6ff" d="M434.387 497.55H309.152V185.079h148.914c25.645 0 46.434 20.79 46.434 46.434v195.926c0 38.722-31.39 70.113-70.113 70.113m0 0"/><path fill="#00c5fd" d="M309.152 343.574v153.977h125.235c38.722 0 70.113-31.39 70.113-70.113v-83.864zm0 0"/><path fill="#a4e7ff" d="M364.273 427.438V43.144c0-19.684-15.96-35.645-35.644-35.645H43.145C23.46 7.5 7.5 23.46 7.5 43.145v384.293c0 38.722 31.39 70.113 70.113 70.113h356.774c-38.723 0-70.114-31.39-70.114-70.113m0 0"/><path fill="#5ad6ff" d="M85.113 427.438V43.144c0-19.688 15.957-35.645 35.645-35.645H43.145C23.46 7.5 7.5 23.46 7.5 43.145v384.293c0 38.718 31.39 70.113 70.113 70.113h77.614c-38.723 0-70.114-31.39-70.114-70.113m0 0"/><g fill="#6a829a"><path d="M308.168 252.523H200.551c-9.778 0-17.703-7.925-17.703-17.703s7.925-17.707 17.703-17.707h107.613c9.781 0 17.707 7.93 17.707 17.707s-7.926 17.703-17.703 17.703M308.168 325.715H63.605c-9.777 0-17.703-7.926-17.703-17.703 0-9.778 7.926-17.707 17.703-17.707h244.563c9.777 0 17.703 7.93 17.703 17.707s-7.926 17.703-17.703 17.703M308.168 395.637H63.605c-9.777 0-17.703-7.93-17.703-17.707s7.926-17.703 17.703-17.703h244.563c9.777 0 17.703 7.925 17.703 17.703s-7.926 17.707-17.703 17.707m0 0"/></g><path fill="#516980" d="M45.902 308.012c0 9.777 7.926 17.707 17.703 17.707h21.508v-35.41H63.605c-9.777 0-17.703 7.925-17.703 17.703M45.902 377.93c0 9.777 7.926 17.707 17.703 17.707h21.508v-35.41H63.605c-9.777 0-17.703 7.925-17.703 17.703m0 0"/><path fill="#f9ee80" d="M413.059 206.707c-8.801-8.8-8.801-23.066 0-31.867l35.12-35.125c8.801-8.8 23.071-8.8 31.872 0s8.8 23.07 0 31.87l-35.121 35.122c-8.801 8.8-23.07 8.8-31.871 0m0 0"/><path fill="#6a829a" d="m490.496 91.473-14.43-14.43c-7.093-7.098-18.601-7.098-25.699 0L431.734 95.68l40.125 40.125 18.637-18.637c7.098-7.098 7.098-18.602 0-25.695m0 0"/><path fill="#6a829a" d="m338.379 258.535-16.629 2.344c-8.797 1.238-16.332-6.293-15.09-15.09l2.344-16.629a37.76 37.76 0 0 1 10.7-21.45L443.382 84.028l40.129 40.125-123.684 123.684a37.8 37.8 0 0 1-21.45 10.7m0 0"/><path fill="#889cb0" d="m460.43 147.672-40.567-40.563c-6.433-6.433-6.433-16.867 0-23.3 6.438-6.434 16.867-6.434 23.301 0l40.566 40.562c6.434 6.438 6.434 16.867 0 23.3-6.433 6.434-16.867 6.434-23.3 0m0 0"/><path fill="#3e4f61" d="m309.004 229.16-2.344 16.63c-1.242 8.796 6.293 16.327 15.09 15.089l16.629-2.344a37.8 37.8 0 0 0 21.45-10.7l-40.126-40.124a37.76 37.76 0 0 0-10.7 21.45m0 0"/><path fill="#fdb2db" d="M121.863 97.781c0-13.183-13.418-23.867-29.972-23.867S61.918 84.598 61.918 97.781s13.418 23.871 29.973 23.871 29.972-10.687 29.972-23.87M309.855 97.781c0-13.183-13.417-23.867-29.972-23.867S249.91 84.598 249.91 97.781s13.418 23.871 29.973 23.871 29.972-10.687 29.972-23.87m0 0"/><path fill="#454545" d="M206.746 91.734c0-13.64-9.34-24.695-20.86-24.695s-20.859 11.055-20.859 24.695 9.34 24.7 20.86 24.7 20.86-11.059 20.86-24.7m0 0"/><path fill="#29ce69" d="M111.563 255.797H66.848c-11.567 0-20.946-9.375-20.946-20.945v-44.715c0-11.567 9.38-20.946 20.946-20.946h44.715c11.57 0 20.945 9.38 20.945 20.946v44.715c0 11.57-9.38 20.945-20.946 20.945m0 0"/><path fill="#00c140" d="M85.113 169.191H66.848c-11.57 0-20.946 9.38-20.946 20.946v44.715c0 11.57 9.375 20.945 20.946 20.945h18.265zm0 0"/><path d="M274.043 77.18V64.73c0-4.144-3.355-7.5-7.5-7.5s-7.5 3.356-7.5 7.5v12.45c0 4.14 3.355 7.5 7.5 7.5s7.5-3.36 7.5-7.5M112.73 77.18V64.73a7.5 7.5 0 0 0-7.5-7.5 7.497 7.497 0 0 0-7.5 7.5v12.45a7.5 7.5 0 1 0 15 0M214.246 91.734c0-17.754-12.723-32.199-28.36-32.199s-28.359 14.445-28.359 32.2 12.723 32.199 28.36 32.199 28.36-14.446 28.36-32.2m-41.719 0c0-9.48 5.993-17.199 13.36-17.199s13.355 7.719 13.355 17.2c0 9.484-5.988 17.199-13.355 17.199s-13.36-7.715-13.36-17.2M38.402 190.137v44.715c0 15.687 12.762 28.445 28.446 28.445h44.715c15.683 0 28.445-12.762 28.445-28.445v-44.715c0-15.684-12.762-28.446-28.446-28.446H66.849c-15.684 0-28.446 12.762-28.446 28.446m86.606 0v44.715c0 7.414-6.031 13.445-13.445 13.445H66.848c-7.414 0-13.446-6.031-13.446-13.445v-44.715c0-7.414 6.032-13.446 13.446-13.446h44.715c7.414 0 13.445 6.032 13.445 13.446M63.605 333.219h244.563c13.898 0 25.203-11.309 25.203-25.207s-11.309-25.203-25.203-25.203H63.605c-13.894 0-25.203 11.304-25.203 25.203s11.309 25.207 25.203 25.207m0-35.41h244.563c5.625 0 10.203 4.578 10.203 10.203 0 5.629-4.578 10.207-10.203 10.207H63.605c-5.625 0-10.203-4.578-10.203-10.207 0-5.625 4.578-10.203 10.203-10.203M63.605 403.137h244.563c13.898 0 25.203-11.309 25.203-25.207s-11.309-25.203-25.203-25.203H63.605c-13.894 0-25.203 11.304-25.203 25.203s11.309 25.207 25.203 25.207m0-35.41h244.563c5.625 0 10.203 4.578 10.203 10.203 0 5.629-4.578 10.207-10.203 10.207H63.605c-5.625 0-10.203-4.578-10.203-10.207 0-5.625 4.578-10.203 10.203-10.203m0 0"/><path d="M504.5 290.883a7.5 7.5 0 0 0 7.5-7.5v-51.871c0-21.797-12.867-40.828-31.98-49.29l5.335-5.331a29.98 29.98 0 0 0 7.696-29.239c1.96-3.515 4.972-14.476.293-22.722 0 0 20.047-20.285 2.457-38.762l-14.43-14.43c-20.207-19.32-38.766 2.465-38.766 2.465-9.039-4.707-20.464-3.273-28.042 4.3-7.579 7.579-9.008 19.009-4.305 28.044l-38.485 38.484V43.145C371.773 19.355 352.422 0 328.63 0H43.145C19.355 0 0 19.355 0 43.145v48.132c0 4.141 3.355 7.5 7.5 7.5s7.5-3.359 7.5-7.5V43.145C15 27.625 27.625 15 43.145 15h285.484c15.52 0 28.144 12.625 28.144 28.145V160.03l-48.605 49.586H200.551c-13.899 0-25.203 11.305-25.203 25.203s11.304 25.203 25.203 25.203h102.547c.617.832 8.074 9.36 19.699 8.282l16.629-2.344c6.144-.867 12.07-3.027 17.347-6.254v167.73c0 25.672 12.532 48.477 31.797 62.614H77.613C43.09 490.05 15 461.96 15 427.438V123.214c0-4.14-3.355-7.5-7.5-7.5s-7.5 3.36-7.5 7.5v304.222c0 42.797 34.816 77.614 77.613 77.614h356.774c42.797 0 77.613-34.817 77.613-77.613V317.16a7.5 7.5 0 0 0-7.5-7.5 7.497 7.497 0 0 0-7.5 7.5v110.278c0 34.523-28.09 62.613-62.613 62.613-34.528 0-62.614-28.09-62.614-62.613V246.496l35.25-35.25c3.254 4.7 24.922 17.488 43.207.766l18.075-18.074C485.137 198.477 497 213.723 497 231.512v51.87a7.5 7.5 0 0 0 7.5 7.5M470.766 82.348l14.425 14.425c7.664 7.625-1.68 16.774-1.68 16.774l-29.519-29.52s7.266-10.527 16.774-1.68m-45.598 6.761c4.96-5.082 10.941-1.75 12.691 0l40.567 40.567c1.695 1.695 5.27 7.324 0 12.691-5.27 5.371-10.996 1.696-12.692 0l-40.566-40.562c-3.5-3.5-3.457-9.153 0-12.696m-65.34 148.118-29.52-29.516 89.778-89.777 29.516 29.52zm-169.48-2.407c0-5.629 4.578-10.207 10.203-10.207h101.664c-.258 1.157-2.98 20.13-2.98 20.13-.016.093-.02.187-.036.28h-98.648c-5.625 0-10.203-4.578-10.203-10.203m146.984 16.29-16.629 2.343c-1.836.262-3.644-.348-4.957-1.66s-1.918-3.121-1.66-4.957l2.344-16.629a30.4 30.4 0 0 1 3.953-11.21l28.16 28.16c-3.43 2.027-7.25 3.394-11.211 3.952m102.293-49.708c-11.23 8.684-21.742-.515-21.977-.78l43.336-43.337c3.383 1.774 10.04 3.778 17.774 1.77a15 15 0 0 1-4.012 7.226zm0 0"/></svg>