<svg xmlns="http://www.w3.org/2000/svg" width="512pt" height="512pt" viewBox="-48 0 511 512"><path fill="#e7896e" d="M300.32 458.336H52.645v-36.684c0-19.922 16.152-36.07 36.07-36.07H264.25c19.922 0 36.07 16.148 36.07 36.07zm0 0"/><path fill="#dd6642" d="M147.395 385.582h-58.68c-19.918 0-36.07 16.148-36.07 36.07v36.684h58.68v-36.684c0-19.922 16.148-36.07 36.07-36.07m0 0"/><path fill="#fdcb89" d="M314.172 504.5H38.797C21.789 504.5 8 490.715 8 473.703c0-17.008 13.785-30.793 30.797-30.793h275.375c17.008 0 30.793 13.785 30.793 30.793 0 17.012-13.785 30.797-30.793 30.797m0 0"/><path fill="#fab658" d="M67.66 473.703c0-17.008 13.785-30.793 30.793-30.793H38.797C21.785 442.91 8 456.695 8 473.703 8 490.715 21.785 504.5 38.797 504.5h59.656c-17.008 0-30.793-13.785-30.793-30.797m0 0"/><path fill="#e7896e" d="m273.586 32.809 94.59 94.59-72.817 41.804-63.578-63.578zm0 0"/><path fill="#dd6642" d="m265.445 139.29-33.664-33.665 41.805-72.816 37.098 37.097c-20.657 22.153-35.211 47.239-45.239 69.383m0 0"/><path fill="#fdcb89" d="M386.395 135.473c9.453-9.453 9.453-24.778 0-34.227L299.738 14.59c-9.449-9.453-24.773-9.453-34.226 0-9.45 9.45-9.45 24.773 0 34.226l86.656 86.657c9.453 9.449 24.777 9.449 34.227 0m0 0"/><path fill="#e7896e" d="m89.777 216.617 94.59 94.59 41.809-72.816-63.582-63.578zm0 0"/><path fill="#dd6642" d="m196.258 208.477-33.664-33.665-72.817 41.805 37.098 37.098c22.156-20.656 47.238-35.211 69.383-45.238m0 0"/><path fill="#fdcb89" d="M192.441 329.426c-9.449 9.453-24.773 9.453-34.226 0L71.559 242.77c-9.454-9.454-9.454-24.778 0-34.227 9.449-9.453 24.773-9.453 34.226 0l86.656 86.656c9.454 9.453 9.454 24.778 0 34.227m0 0"/><path fill="#e7896e" d="M395.906 280.613c16.11 16.106 16.11 42.219 0 58.324-16.105 16.11-42.219 16.11-58.324 0-16.105-16.105-126.32-152.433-110.215-168.539 16.106-16.105 152.438 94.11 168.54 110.215m0 0"/><path fill="#dd6642" d="M227.367 170.398c-10.496 10.497 32.672 72.07 68.469 118.141 21.137-20.555 30.46-43.066 34.36-61.394-43.403-32.735-93.458-66.118-102.829-56.747m0 0"/><path fill="#f2ad9a" d="m307.031 181.621-68.441 68.441c-9.453 9.458-24.781 9.458-34.238 0l-53.43-53.43c-9.453-9.452-9.453-24.78 0-34.237l68.441-68.442c9.457-9.457 24.785-9.457 34.239 0l53.43 53.43c9.456 9.457 9.456 24.781 0 34.238m0 0"/><path d="M263.398 128.781a7.497 7.497 0 0 0-10.605 0 7.497 7.497 0 0 0 0 10.606l8.805 8.804a7.497 7.497 0 0 0 10.605 0 7.497 7.497 0 0 0 0-10.605zM196.355 195.824a7.497 7.497 0 0 0-10.605 0 7.497 7.497 0 0 0 0 10.606l8.805 8.804a7.497 7.497 0 0 0 10.605 0 7.497 7.497 0 0 0 0-10.605zM237.527 158.625c-1.488.309-6.98 2.75-5.824 8.863.559 2.934-.965 4.875-1.668 5.578s-2.652 2.274-5.574 1.668a7.5 7.5 0 1 0-3.043 14.688 21.06 21.06 0 0 0 19.223-5.75 21.05 21.05 0 0 0 5.75-19.223 7.5 7.5 0 0 0-8.864-5.824M307.82 435.41v-13.758c0-24.023-19.547-43.57-43.57-43.57H121.277a7.5 7.5 0 0 0-7.5 7.5c0 4.145 3.356 7.5 7.5 7.5H264.25c15.754 0 28.57 12.816 28.57 28.57v13.758H60.145v-13.758c0-15.754 12.816-28.57 28.57-28.57 4.144 0 7.5-3.355 7.5-7.5a7.5 7.5 0 0 0-7.5-7.5c-24.024 0-43.57 19.547-43.57 43.57v13.758S.5 432.324.5 473.703C.5 494.82 17.68 512 38.797 512h275.375c21.113 0 38.293-17.18 38.293-38.297 0-40.476-44.645-38.293-44.645-38.293m6.352 61.59H38.797C25.949 497 15.5 486.55 15.5 473.703c0-12.844 10.45-23.293 23.297-23.293h275.375c12.844 0 23.293 10.45 23.293 23.293 0 12.848-10.45 23.297-23.293 23.297m0 0"/><path d="M401.21 275.313c-9.483-9.489-56.378-48.188-99.288-77.973l10.414-10.418c5.988-5.988 9.289-13.95 9.289-22.422 0-.57-.02-1.137-.047-1.7l30.754-17.66c5.156 3.266 24.055 10.95 39.367-4.363 12.364-12.363 12.364-32.472 0-44.836l-6.535-6.535a7.504 7.504 0 0 0-10.605 0 7.5 7.5 0 0 0 0 10.61l6.535 6.535c6.511 6.511 6.511 17.105 0 23.617-6.512 6.516-17.106 6.516-23.617 0l-86.66-86.656c-6.512-6.512-6.512-17.11 0-23.621 6.511-6.512 17.109-6.512 23.62 0l57.778 57.78a7.51 7.51 0 0 0 10.61 0 7.5 7.5 0 0 0 0-10.609L305.042 9.285C299.055 3.297 291.093 0 282.625 0s-16.43 3.297-22.414 9.285c-5.988 5.988-9.285 13.95-9.285 22.414 0 6.102 1.719 11.934 4.914 16.961l-17.653 30.746c-.566-.027-13.488-2.707-24.125 9.242l-68.44 68.442c-12.126 11.707-9.27 23.558-9.243 24.125l-30.746 17.652a31.53 31.53 0 0 0-16.961-4.914c-8.469 0-16.43 3.3-22.414 9.285-5.988 5.989-9.285 13.95-9.285 22.418s3.297 16.43 9.285 22.418l86.656 86.656c6.18 6.18 26.774 18.06 44.832 0 10.672-10.671 12.121-27.117 4.367-39.37l17.668-30.77c.563.031 12 2.851 24.114-9.223l10.417-10.418c29.778 42.899 68.54 89.86 77.97 99.293 9.503 9.5 21.984 14.254 34.464 14.254s24.965-4.754 34.469-14.254c9.203-9.207 14.273-21.445 14.273-34.465s-5.07-25.261-14.277-34.465M266.43 60.34l74.215 74.215-23.586 13.543c-1.313-2.164-62.008-62.864-64.172-64.172zm-79.29 263.785c-6.515 6.512-17.113 6.512-23.62 0l-86.657-86.656c-3.156-3.156-9.324-14.297 0-23.621 9.325-9.325 20.465-3.157 23.617 0l86.657 86.656c6.511 6.512 6.511 17.11.004 23.621m4.383-40.45-74.214-74.214 23.586-13.543c1.312 2.164 62.03 62.867 64.175 64.164zm41.762-38.913c-6.512 6.511-17.113 6.511-23.629 0l-53.43-53.434a16.6 16.6 0 0 1-4.898-11.816c0-4.461 1.738-8.657 4.899-11.813l68.441-68.441a16.6 16.6 0 0 1 11.812-4.899c4.465 0 8.66 1.739 11.817 4.899l53.433 53.43a16.61 16.61 0 0 1 4.891 11.816c0 4.46-1.734 8.656-4.894 11.812zm157.32 88.875c-13.156 13.152-34.566 13.152-47.718 0-9.04-9.043-48.739-57.309-77.793-99.469l26.043-26.047c42.183 29.074 90.375 68.703 99.468 77.797 13.157 13.156 13.157 34.562 0 47.719m0 0"/></svg>