<svg xmlns="http://www.w3.org/2000/svg" width="511pt" height="511pt" viewBox="-32 1 511 511.999"><path fill="#fd5c6f" d="M396.82 504.5H51.027C27.266 504.5 8 485.234 8 461.473V50.527C8 26.766 27.262 7.5 51.027 7.5H396.82c23.762 0 43.028 19.266 43.028 43.031v410.942c0 23.765-19.266 43.027-43.028 43.027m0 0"/><path fill="#f6334c" d="M260.254 288.254C220.762 72.836 316.07 7.5 316.07 7.5H51.027C27.266 7.5 8 26.766 8 50.527v410.946C8 485.234 27.266 504.5 51.027 504.5h249.227c-8.867-60.05-25.031-134.586-40-216.246m0 0"/><path fill="#ff8a98" d="M184.902 504.5H51.032C27.265 504.5 8 485.234 8 461.469V50.53C8 26.766 27.266 7.5 51.031 7.5h133.871zm0 0"/><path fill="#a4e7ff" d="M115.867 276.355H77.035c-13.45 0-24.351-10.898-24.351-24.347V75.066c0-13.445 10.902-24.347 24.351-24.347h38.832c13.45 0 24.348 10.902 24.348 24.347v176.942c0 13.449-10.899 24.347-24.348 24.347m0 0"/><path fill="#516980" d="M132.922 425.648c0 20.141-16.328 36.47-36.473 36.47-20.14 0-36.472-16.329-36.472-36.47 0-20.144 16.332-36.472 36.472-36.472 20.145 0 36.473 16.328 36.473 36.472m0 0"/><path fill="#3e4f61" d="M96.45 425.648c0-13.5 7.34-25.273 18.237-31.582a36.3 36.3 0 0 0-18.238-4.89c-20.14 0-36.469 16.328-36.469 36.472 0 20.141 16.329 36.47 36.47 36.47a36.3 36.3 0 0 0 18.237-4.891c-10.898-6.305-18.238-18.082-18.238-31.579m0 0"/><path fill="#fdb2db" d="M260.254 170.441c0-9.078-9.242-16.437-20.64-16.437-11.4 0-20.641 7.36-20.641 16.437s9.242 16.438 20.64 16.438 20.64-7.36 20.64-16.438M413.168 170.441c0-9.078-9.238-16.437-20.64-16.437-11.4 0-20.641 7.36-20.641 16.437s9.242 16.438 20.64 16.438c11.403 0 20.641-7.36 20.641-16.438m0 0"/><path d="M321.195 152.676a6.19 6.19 0 0 1-5.125 2.765c-.992 0-3.484-.27-5.12-2.765a7.5 7.5 0 1 0-12.54 8.234 21.06 21.06 0 0 0 17.66 9.531c7.14 0 13.739-3.562 17.66-9.53a7.5 7.5 0 0 0-2.152-10.388c-1.27-.832-6.879-2.992-10.383 2.153M241.27 145.582a7.494 7.494 0 0 0 .003 10.606 7.497 7.497 0 0 0 10.606 0c.86-.86 1.863-.989 2.387-.989s1.453.207 2.386.988c4.735 3.965 9.145 1.465 10.606 0a7.494 7.494 0 0 0 .004-10.605 18.25 18.25 0 0 0-12.996-5.383 18.26 18.26 0 0 0-12.996 5.383M364.883 145.582a7.497 7.497 0 0 0 0 10.606 7.5 7.5 0 0 0 10.61 0 3.36 3.36 0 0 1 2.386-.989c.523 0 1.453.207 2.387.988 4.734 3.965 9.144 1.465 10.605 0a7.497 7.497 0 0 0 0-10.605 18.25 18.25 0 0 0-12.992-5.383c-4.91 0-9.527 1.91-12.996 5.383m0 0"/><path d="M439.848 405.64a7.5 7.5 0 0 0 7.5-7.5V50.532C447.348 22.668 424.68 0 396.816 0H51.027C23.168 0 .5 22.664.5 50.527v410.946C.5 489.332 23.168 512 51.027 512H396.82c27.86 0 50.528-22.668 50.528-50.527v-30.84a7.5 7.5 0 0 0-7.5-7.5 7.497 7.497 0 0 0-7.5 7.5v30.84c0 19.59-15.938 35.527-35.528 35.527H192.402V15h204.414c19.594 0 35.532 15.938 35.532 35.531v347.61a7.5 7.5 0 0 0 7.5 7.5M177.402 497H51.027c-19.59 0-35.527-15.937-35.527-35.527V50.527C15.5 30.937 31.437 15 51.027 15h126.375zm0 0"/><path d="M45.184 87.96c0 4.142 3.359 7.5 7.5 7.5a7.5 7.5 0 0 0 7.5-7.5V75.067c0-9.289 7.558-16.847 16.847-16.847h38.836c9.29 0 16.848 7.558 16.848 16.847v176.942c0 9.289-7.559 16.847-16.848 16.847H77.031c-9.289 0-16.847-7.558-16.847-16.847V120.844a7.5 7.5 0 1 0-15 0v131.164c0 17.562 14.289 31.847 31.847 31.847h38.836c17.563 0 31.848-14.285 31.848-31.847V75.066c0-17.558-14.285-31.847-31.848-31.847H77.031c-17.558 0-31.847 14.289-31.847 31.847zM96.45 381.676c-24.247 0-43.973 19.726-43.973 43.972s19.726 43.97 43.972 43.97 43.973-19.723 43.973-43.97c0-24.246-19.727-43.972-43.973-43.972m0 72.941c-15.973 0-28.973-12.996-28.973-28.972 0-15.973 13-28.97 28.972-28.97 15.977 0 28.973 12.997 28.973 28.97 0 15.976-12.996 28.972-28.973 28.972m0 0"/></svg>