<svg xmlns="http://www.w3.org/2000/svg" width="512pt" height="512pt" viewBox="-71 0 512 512"><path fill="#ffb39d" d="M88.285 276.379c0 22.308-18.082 40.394-40.39 40.394-22.31 0-40.395-18.086-40.395-40.394s18.086-40.395 40.395-40.395c22.308 0 40.39 18.086 40.39 40.395m0 0"/><path fill="#ffcbbe" d="M362.238 276.379c0 22.308-18.082 40.394-40.39 40.394s-40.395-18.086-40.395-40.394 18.086-40.395 40.395-40.395 40.39 18.086 40.39 40.395m0 0"/><path fill="#889cb0" d="M294.629 504.5H75.109c-25.586 0-46.332-20.742-46.332-46.332v-26.387c0-40.984 33.227-74.21 74.211-74.21H266.75c40.988 0 74.21 33.226 74.21 74.21v26.387c0 25.59-20.741 46.332-46.331 46.332m0 0"/><path fill="#6a829a" d="M208.379 357.57h-105.39c-40.985 0-74.212 33.227-74.212 74.211v26.387c0 25.59 20.743 46.332 46.332 46.332h57.551c41.184-43.547 63.711-102.191 75.719-146.93m0 0"/><path fill="#ffcbbe" d="M251.574 368.992c0-40.398-29.867-73.144-66.703-73.144-36.84 0-66.703 32.746-66.703 73.144 0 40.395 29.863 73.145 66.703 73.145 36.836 0 66.703-32.75 66.703-73.145m0 0"/><path fill="#ffb39d" d="M184.871 295.848c-36.84 0-66.703 32.75-66.703 73.144 0 37.27 25.414 68.031 58.281 72.567 27.582-53.286 38.797-109.293 42.801-135.258-10.04-6.637-21.8-10.453-34.379-10.453m0 0"/><path fill="#ffddcf" d="M212.555 394.852h-55.371c-58.371 0-105.692-47.32-105.692-105.692v-78.27c0-73.66 59.715-133.378 133.38-133.378 73.66 0 133.378 59.718 133.378 133.379v78.27c0 58.37-47.32 105.69-105.695 105.69m0 0"/><path fill="#ffcbbe" d="M113.86 227.242c-10.383-88.312 74.328-135.316 98.578-146.879a134 134 0 0 0-27.567-2.851c-73.664 0-133.379 59.718-133.379 133.379v78.27c0 55.788 43.238 101.484 98.028 105.417-45.286-25.008-25.922-84.543-35.66-167.336m0 0"/><path fill="#ffb3dd" d="M128.969 307.922c0-9.094-9.258-16.461-20.672-16.461-11.418 0-20.672 7.367-20.672 16.46 0 9.09 9.254 16.462 20.672 16.462 11.414 0 20.672-7.371 20.672-16.461M282.117 307.922c0-9.094-9.258-16.461-20.672-16.461-11.418 0-20.672 7.367-20.672 16.46 0 9.09 9.254 16.462 20.672 16.462 11.414 0 20.672-7.371 20.672-16.461m0 0"/><path fill="#516980" d="M321.848 199.246H47.895v-80.644C47.895 57.242 97.633 7.5 158.992 7.5h51.754c61.36 0 111.098 49.742 111.098 111.098v80.648zm0 0"/><path fill="#3e4f61" d="M172.738 7.5h-13.746C97.637 7.5 47.895 57.242 47.895 118.602v80.644h208.953c-39.813-54.16-114.203-26.277-127.88-82.988C112.333 47.266 172.739 7.5 172.739 7.5m0 0"/><path fill="#6a829a" d="M88.23 199.246h193.278s-25.426-45.242-96.637-45.242c-71.215 0-96.64 45.242-96.64 45.242m0 0"/><path fill="#e7896e" d="M113.719 199.246s-5.926 44.856-42.766 68.93c-10.281 6.719-24.113 1.176-26.988-10.766-3.477-14.437-5.094-35.285 3.93-58.164zM256.02 199.246s5.925 44.856 42.765 68.93c10.281 6.719 24.113 1.176 26.988-10.766 3.477-14.437 5.094-35.285-3.93-58.164zm0 0"/><path fill="#3e4f61" d="M125.3 392.434c-2.288-.41-56.288-10.7-79.663-69.477-3.063-7.7.695-16.422 8.394-19.484 7.696-3.059 16.418.699 19.48 8.398 17.052 42.871 55.536 50.734 57.165 51.047zm0 0"/><path fill="#516980" d="M155.895 382.164c0 11.645-9.442 21.086-21.086 21.086-11.649 0-21.09-9.441-21.09-21.086 0-11.648 9.441-21.09 21.09-21.09 11.644 0 21.086 9.442 21.086 21.09m0 0"/><path d="M200.402 287.977c-1.27-.836-6.89-2.997-10.402 2.152a6.19 6.19 0 0 1-5.129 2.77c-.996 0-3.488-.27-5.133-2.77a7.51 7.51 0 0 0-10.398-2.152 7.51 7.51 0 0 0-2.156 10.402 21.1 21.1 0 0 0 17.687 9.543c7.149 0 13.762-3.57 17.688-9.543a7.52 7.52 0 0 0-2.157-10.402M122.969 277.637a18.3 18.3 0 0 0-13.016 5.39 7.513 7.513 0 0 0 .004 10.621 7.51 7.51 0 0 0 10.621 0c.863-.863 1.867-.992 2.39-.992s1.458.211 2.391.992c4.743 3.97 9.157 1.465 10.621 0a7.513 7.513 0 0 0 .004-10.62 18.28 18.28 0 0 0-13.015-5.391M246.77 277.637c-4.915 0-9.54 1.914-13.012 5.39a7.51 7.51 0 0 0 0 10.621 7.51 7.51 0 0 0 10.62 0 3.37 3.37 0 0 1 2.392-.992c.523 0 1.457.211 2.39.992 4.742 3.97 9.156 1.465 10.621 0a7.506 7.506 0 0 0 .004-10.62 18.28 18.28 0 0 0-13.015-5.391m0 0"/><path d="M360.332 247.879c-6.16-8.324-14.652-14.3-24.379-17.274-.355-10-2.207-21.101-6.605-32.738v-79.265c0-14.325-2.528-28.325-7.512-41.622a7.501 7.501 0 0 0-14.047 5.262c4.352 11.61 6.559 23.84 6.559 36.356v73.148h-28.785c-8.227-11.613-37.512-45.242-100.692-45.242s-92.465 33.629-100.695 45.242H55.395v-73.144C55.395 61.477 101.867 15 158.992 15h51.754c32.762 0 63.945 15.762 83.426 42.16a7.49 7.49 0 0 0 10.484 1.582 7.496 7.496 0 0 0 1.582-10.488C283.95 18.039 248.25 0 210.746 0h-51.754C93.598 0 40.395 53.203 40.395 118.602v79.265c-4.399 11.63-6.25 22.727-6.61 32.723-18.988 5.777-32.52 22.664-33.703 43.004-1.39 23.883 15.059 44.758 37.766 49.613.226.848 8.136 21.93 22.707 38.75-7.844 4.785-14.907 10.89-20.746 18.004a7.5 7.5 0 0 0 1.039 10.559c1.394 1.144 7.03 3.359 10.554-1.04 5.465-6.824 12.442-12.386 20.118-16.511 13.515 11.894 27.554 18.789 38.093 22.683a28.8 28.8 0 0 0 9.258 10.23c12.645 26.669 38.277 43.755 66 43.755 32.23 0 60.746-22.73 70.586-55.739a113.5 113.5 0 0 0 36.32-23.976c25.035 10.137 41.688 34.683 41.688 61.86v26.386c0 21.41-17.422 38.832-38.832 38.832H75.109c-21.41 0-38.832-17.422-38.832-38.832v-26.387c0-5.57.688-11.101 2.04-16.441a7.498 7.498 0 1 0-14.54-3.684 82 82 0 0 0-2.5 20.125v26.387C21.277 487.852 45.43 512 75.11 512h219.524c29.68 0 53.832-24.148 53.832-53.832v-26.387c0-31.508-18.285-60.12-46.246-73.617a113 113 0 0 0 17.957-33.918c33.097.137 47.156-28.152 49.043-40.809 1.883-12.652-1.274-25.28-8.887-35.558m-43.742-41.133c6.488 19.629 4.707 37.242 1.894 48.906-.797 3.313-3.07 5.93-6.234 7.184-3.133 1.242-6.547.902-9.36-.938-24.144-15.777-33.96-41.793-37.57-55.152zM184.87 161.504c55.902 0 78.117 27.27 81.05 30.242h-162.12c12.113-12.266 37.332-30.242 81.07-30.242m-80.453 45.242c-3.61 13.36-13.426 39.375-37.566 55.152-2.817 1.84-6.227 2.18-9.364.938-3.164-1.254-5.433-3.871-6.23-7.184-2.813-11.664-4.594-29.277 1.894-48.906zM15.055 274.47c.718-12.348 8.449-23.13 19.355-28.082.543 4.722 2.672 18.683 9.578 25.328 0 0 .2 25.137.582 28.95a22.45 22.45 0 0 0-5.449 7.413c-14.617-4.043-24.98-17.875-24.066-33.61M56.8 310.445c3.86-1.488 8.215.356 9.742 4.196 11.348 28.543 31.621 42.851 45.926 49.71a28.5 28.5 0 0 0-5.957 13.758c-17.543-8.23-40.778-24.902-53.907-57.925-.742-1.86-1.113-7.692 4.196-9.739m64.418 71.72c0-7.493 6.097-13.59 13.59-13.59s13.586 6.097 13.586 13.59c0 7.491-6.094 13.585-13.586 13.585-7.493 0-13.59-6.094-13.59-13.586m63.652 52.472c-17.894 0-34.75-9.164-45.871-24.196a28.53 28.53 0 0 0 16.05-8.117c.716.016 1.427.028 2.134.028h55.37c8.473 0 16.727-.942 24.673-2.715-10.09 21.133-30.145 35-52.356 35m27.684-47.285h-49.64c.308-1.684.48-3.415.48-5.188 0-15.762-12.825-28.586-28.586-28.586-2.38 0-4.688.297-6.899.844-10.015-3.18-34.976-14.016-47.43-45.32-3.55-8.934-12.222-14.336-21.308-14.18-.113-1.918-.18-16.473-.18-16.473.754.07 39.598-2.07 60.926-71.703h129.906c3.211 14.066 13.817 47.426 44.86 67.711 4.152 2.715 10.328 4.973 16.066 3.992v10.711c0 54.145-44.05 98.192-98.195 98.192m141.824-106.125c-2.324 15.585-15.281 27-30.406 27.972a113.7 113.7 0 0 0 1.773-20.043v-17.441a25.35 25.35 0 0 0 7.32-12.547 107 107 0 0 0 2.262-12.797c5.094 2.277 9.54 5.828 12.95 10.434 5.23 7.058 7.398 15.734 6.1 24.422m0 0"/></svg>