<svg xmlns="http://www.w3.org/2000/svg" width="512pt" height="512pt" viewBox="-23 0 511 512"><path fill="#76e7e7" d="M351.777 170.277H113.414a77 77 0 0 0-64.61 35.11l-31.507 48.586C2.109 277.39 5.883 308.328 26.25 327.414l176.367 165.274c16.863 15.804 43.098 15.804 59.961 0l176.367-165.274c20.368-19.086 24.137-50.023 8.95-73.441l-31.504-48.586a77.01 77.01 0 0 0-64.614-35.11m0 0"/><g fill="#b0f0ef"><path d="M77.383 179.238a77 77 0 0 0-28.578 26.149l-31.508 48.586C9.293 266.32 6.555 280.75 8.738 294.437h143.348zM387.813 179.238a77 77 0 0 1 28.578 26.149l31.504 48.59c8.007 12.343 10.746 26.777 8.562 40.46H313.109zM152.086 294.438h161.023l-80.511-124.16zm0 0"/></g><path fill="#2eddda" d="m26.25 327.414 176.367 165.274c16.863 15.804 43.098 15.804 59.961 0l176.367-165.274a57.5 57.5 0 0 0 17.508-32.976H8.738a57.52 57.52 0 0 0 17.512 32.976m0 0"/><path fill="#00d2ce" d="M456.453 294.438H8.738a57.52 57.52 0 0 0 17.512 32.976l57.918 54.277c143.02-62.441 354.777-54.277 354.777-54.277a57.5 57.5 0 0 0 17.508-32.976m0 0"/><path fill="#76e7e7" d="m152.086 294.438 50.531 198.25c16.863 15.804 43.098 15.804 59.961 0l50.531-198.25zm0 0"/><path fill="#2eddda" d="M313.11 294.438H152.085l15.219 59.718c46.203-11.457 93.902-18.144 136.195-22.011zm0 0"/><path fill="#f9ee80" d="M232.598 118.344c-11.555 0-20.922-9.367-20.922-20.922V28.426c0-11.559 9.367-20.926 20.922-20.926s20.922 9.367 20.922 20.926v68.996c0 11.555-9.368 20.922-20.922 20.922m0 0"/><path fill="#eedb00" d="M170.238 124.379c-8.172 8.172-21.422 8.172-29.593 0l-25.73-25.738c-8.173-8.168-8.173-21.418 0-29.586 8.167-8.172 21.417-8.172 29.589 0l25.734 25.734c8.172 8.172 8.172 21.418 0 29.59M294.957 124.379c8.168 8.172 21.418 8.172 29.59 0L350.28 98.64c8.172-8.168 8.172-21.418 0-29.586-8.172-8.172-21.422-8.172-29.594 0l-25.73 25.734c-8.172 8.172-8.172 21.418 0 29.59m0 0"/><path d="m454.188 249.89-31.504-48.581c-15.649-24.125-42.153-38.532-70.907-38.532H113.414c-28.75 0-55.258 14.407-70.902 38.532L11.008 249.89c-17.184 26.5-12.93 61.402 10.113 82.996l14.672 13.75a7.5 7.5 0 1 0 10.258-10.946l-14.676-13.75a50.1 50.1 0 0 1-13.047-20.004h127.926l42.75 167.72-120-112.458a7.497 7.497 0 0 0-10.602.348 7.5 7.5 0 0 0 .344 10.601l138.742 130.016c9.844 9.223 22.477 13.836 35.11 13.836s25.265-4.613 35.109-13.836l176.367-165.277c23.043-21.594 27.297-56.496 10.113-82.996m-44.09-40.421 31.504 48.586a50 50 0 0 1 8.058 28.882H326.914l63.293-97.605a69.6 69.6 0 0 1 19.89 20.137m-33.285-27.051-63.704 98.234-66.707-102.875h105.38c8.71 0 17.171 1.618 25.03 4.641m-77.508 104.52H165.887l66.71-102.875zm-80.512-109.16-66.707 102.874-63.703-98.234a69.6 69.6 0 0 1 25.031-4.64zM23.59 258.054l31.508-48.586a69.6 69.6 0 0 1 19.89-20.137l63.293 97.606H15.535a50.02 50.02 0 0 1 8.055-28.883m185.723 230.543-47.579-186.66h141.723l-47.574 186.66c-13.43 11.21-33.137 11.21-46.57 0M433.816 321.94 276.188 469.656l42.75-167.718h127.93a50.06 50.06 0 0 1-13.052 20.003M232.598 125.844c15.672 0 28.422-12.75 28.422-28.422V28.426C261.02 12.75 248.27 0 232.598 0s-28.422 12.75-28.422 28.426v68.996c0 15.672 12.75 28.422 28.422 28.422m-13.422-97.418c0-7.403 6.02-13.426 13.422-13.426s13.422 6.023 13.422 13.426v68.996c0 7.398-6.02 13.422-13.422 13.422s-13.422-6.024-13.422-13.422zM135.344 129.684c16.668 16.671 34.828 5.37 40.199 0 11.082-11.082 11.082-29.118 0-40.2l-25.734-25.738c-11.082-11.082-29.118-11.082-40.2 0s-11.082 29.117 0 40.2zm-15.125-55.329c5.61-5.609 14.453-4.53 18.98 0l25.735 25.739c5.234 5.23 5.234 13.75 0 18.98-5.23 5.235-13.75 5.239-18.98 0L120.218 93.34c-5.235-5.235-5.235-13.75 0-18.985M329.852 129.684l8.62-8.625a7.5 7.5 0 0 0-10.605-10.61l-8.625 8.625c-5.23 5.235-13.75 5.235-18.98 0-5.235-5.234-5.235-13.75 0-18.984l25.734-25.735c5.23-5.234 13.75-5.234 18.98 0 3.938 3.938 5.04 9.778 2.81 14.88-1.661 3.792.07 8.214 3.866 9.878a7.497 7.497 0 0 0 9.875-3.867c4.727-10.8 2.391-23.164-5.941-31.5-11.086-11.082-29.117-11.082-40.195 0L289.652 89.48c-11.078 11.086-11.078 29.118 0 40.204 5.543 5.543 24.907 15.289 40.2 0m0 0"/></svg>