<svg xmlns="http://www.w3.org/2000/svg" width="512pt" height="512pt" viewBox="0 -22 512 512"><path fill="#00a5fb" d="M467.273 153.516 293.664 20.262c-22.215-17.047-53.113-17.047-75.328 0L44.726 153.516A95.17 95.17 0 0 0 7.5 229.012v169.765c0 34.5 27.969 62.47 62.469 62.47H442.03c34.5 0 62.469-27.97 62.469-62.47V229.012a95.17 95.17 0 0 0-37.227-75.496m0 0"/><path fill="#b0f0ef" d="M444.059 324.05H67.94V99.415c0-28.293 22.938-51.227 51.23-51.227h273.657c28.293 0 51.23 22.934 51.23 51.227zm0 0"/><path fill="#76e7e7" d="M256 216.61c-100.773 0-188.059-48.387-188.059-48.387V324.05H444.06V168.223S356.777 216.609 256 216.609m0 0"/><path fill="#00c5fd" d="M494.652 186.855 256 302.34 17.348 186.855A95.1 95.1 0 0 0 7.5 229.012v169.765c0 34.5 27.969 62.47 62.469 62.47H442.03c34.5 0 62.469-27.97 62.469-62.47V229.012a95.1 95.1 0 0 0-9.848-42.157m0 0"/><path fill="#00b4fd" d="M359.973 252.023 256 302.34l-103.977-50.317C131.063 278.766 83.668 329.683 7.5 360.77v38.007c0 34.5 27.969 62.47 62.469 62.47H442.03c34.5 0 62.469-27.97 62.469-62.47V360.77c-76.168-31.086-123.562-82.004-144.527-108.747m0 0"/><path fill="#5ad6ff" d="M212.395 266.945 26.289 443.434c11.262 11.02 26.676 17.812 43.68 17.812H442.03c17 0 32.418-6.793 43.684-17.816l-186.11-176.485c-24.449-23.183-62.761-23.183-87.21 0m0 0"/><path fill="#454545" d="M271.035 379.488c0-10.582-6.73-19.156-15.035-19.156s-15.035 8.574-15.035 19.156c0 10.578 6.73 19.153 15.035 19.153s15.035-8.575 15.035-19.153m0 0"/><path d="M317.805 356.992c-4.14 0-7.5 3.36-7.5 7.5v12.45a7.5 7.5 0 0 0 7.5 7.5c4.144 0 7.5-3.356 7.5-7.5v-12.45a7.5 7.5 0 0 0-7.5-7.5M194.195 356.992a7.5 7.5 0 0 0-7.5 7.5v12.45c0 4.144 3.356 7.5 7.5 7.5a7.5 7.5 0 0 0 7.5-7.5v-12.45c0-4.14-3.36-7.5-7.5-7.5M231.781 205.04l3.856-11.813h40.226l4.446 12.074c1.117 3.035 3.746 6.484 9.629 4.449 3.917-1.355 5.878-5.742 4.449-9.629l-33.227-90.258c-1.105-2.996-3.965-4.941-7.18-4.906a7.5 7.5 0 0 0-6.988 5.172l-23.945 73.336q-.01.022-.02.05l-5.507 16.868a7.501 7.501 0 0 0 14.261 4.656m22.766-69.72 15.797 42.907h-29.809zM170.34 210.21a7.5 7.5 0 0 0 7.5-7.5v-82.753h22.164c4.14 0 7.5-3.355 7.5-7.5s-3.36-7.5-7.5-7.5h-59.328c-4.145 0-7.5 3.356-7.5 7.5s3.355 7.5 7.5 7.5h22.164v82.754c0 4.144 3.355 7.5 7.5 7.5M318.902 209.309c5.22 2.324 8.813-.52 10.168-3.028l17.828-32.941 17.832 32.941c1.356 2.508 5.446 5.504 10.165 3.028 3.667-1.926 5-6.524 3.027-10.168l-22.492-41.555 22.492-41.559a7.5 7.5 0 0 0-3.027-10.168c-3.641-1.972-8.196-.613-10.165 3.028l-17.832 32.941-17.828-32.941a7.5 7.5 0 1 0-13.191 7.14l22.492 41.559-22.492 41.555c-1.973 3.644-.758 8.48 3.023 10.168m0 0"/><path d="M504.5 307.824a7.5 7.5 0 0 0-7.5 7.5v83.453c0 12.778-4.395 24.543-11.738 33.887l-162.645-154.23 168.27-81.426c3.98 10.11 6.113 20.969 6.113 32.004v54.308a7.5 7.5 0 1 0 15 0v-54.308c0-31.7-15.012-62.145-40.156-81.446l-20.285-15.57V99.414c0-32.383-26.348-58.726-58.73-58.726h-60.24L298.23 14.313c-24.863-19.083-59.597-19.083-84.46 0l-34.36 26.375h-60.238c-18.485 0-36.113 8.867-47.156 23.718a7.496 7.496 0 0 0 1.543 10.492 7.5 7.5 0 0 0 10.496-1.543c8.343-11.226 21.144-17.667 35.117-17.667h273.656c24.113 0 43.73 19.613 43.73 43.726v107.223l-125.574 60.761-6.218-5.894c-27.344-25.93-70.188-25.93-97.532 0l-6.218 5.894L75.44 206.637V99.414c0-4.144-3.355-7.5-7.5-7.5a7.5 7.5 0 0 0-7.5 7.5v32.582l-20.285 15.57C15.012 166.867 0 197.313 0 229.012v169.765c0 38.578 31.39 69.97 69.969 69.97H442.03c38.578 0 69.969-31.392 69.969-69.97v-83.453a7.5 7.5 0 0 0-7.5-7.5M222.902 26.211c19.489-14.953 46.707-14.957 66.196 0l18.855 14.477h-103.91zM451.56 150.906l11.152 8.559c8.68 6.664 15.941 14.883 21.52 24.101l-32.676 15.809v-48.469zm-402.27 8.559 11.152-8.559v48.473L27.77 183.566c5.574-9.218 12.84-17.437 21.52-24.101M15 398.777V229.012c0-11.035 2.133-21.895 6.113-32.004l168.27 81.426L26.738 432.668C19.395 423.324 15 411.558 15 398.778m54.969 54.97c-12.125 0-23.34-3.958-32.442-10.634l180.028-170.722c21.558-20.446 55.332-20.446 76.89 0l180.032 170.718c-9.098 6.68-20.317 10.637-32.446 10.637zm0 0"/><path d="M256 352.832c-12.426 0-22.535 11.957-22.535 26.656 0 14.696 10.11 26.653 22.535 26.653s22.535-11.957 22.535-26.653c0-14.699-10.11-26.656-22.535-26.656m0 38.309c-3.562 0-7.535-4.786-7.535-11.653 0-6.87 3.972-11.656 7.535-11.656 3.566 0 7.535 4.785 7.535 11.656 0 6.867-3.969 11.653-7.535 11.653m0 0"/></svg>