<svg xmlns="http://www.w3.org/2000/svg" width="512pt" height="512pt" viewBox="0 -69 512 512"><g fill="#6a829a"><path d="M277.746 177.637h-43.492V29.247C234.254 17.233 243.988 7.5 256 7.5s21.746 9.734 21.746 21.746zM208.32 181.234l-40.93 14.715L117.2 56.305c-4.063-11.301 1.804-23.758 13.109-27.82 11.3-4.063 23.757 1.808 27.82 13.109zM147.059 210.926l-34.11 26.984-92.062-116.375c-7.453-9.418-5.86-23.097 3.562-30.547 9.418-7.453 23.094-5.855 30.547 3.563zM303.68 181.234l40.93 14.715L394.8 56.305c4.063-11.301-1.804-23.758-13.109-27.82-11.3-4.063-23.757 1.808-27.82 13.109zM364.941 210.926l34.11 26.984 92.062-116.375c7.453-9.418 5.86-23.097-3.562-30.547-9.418-7.453-23.094-5.855-30.547 3.563zm0 0"/></g><path fill="#a4e7ff" d="M256 92.566c-82.352 0-158.152 28.043-218.379 75.098-40.16 31.383-40.16 91.887 0 123.266C97.848 337.984 173.648 366.027 256 366.027s158.152-28.043 218.379-75.097c40.16-31.383 40.16-91.887 0-123.266C414.152 120.61 338.352 92.566 256 92.566m0 0"/><path fill="#5ad6ff" d="M37.621 268.586C97.848 221.53 173.648 193.488 256 193.488s158.148 28.043 218.375 75.098a79.7 79.7 0 0 1 11.66 11.172c28.031-32.996 24.145-84.117-11.66-112.094C414.148 120.61 338.352 92.566 256 92.566S97.848 120.61 37.621 167.664C1.816 195.641-2.066 246.762 25.97 279.758a79.6 79.6 0 0 1 11.652-11.172m0 0"/><path fill="#29ce69" d="M350.176 229.297c0 52.012-42.164 94.176-94.176 94.176s-94.176-42.164-94.176-94.176S203.988 135.12 256 135.12s94.176 42.164 94.176 94.176m0 0"/><path fill="#00c140" d="M347.09 205.29c-10.613-40.388-47.371-70.173-91.09-70.173s-80.477 29.785-91.09 70.172c29.07-7.695 59.602-11.8 91.09-11.8s62.02 4.105 91.09 11.8m0 0"/><path d="M263.43 282.492v-9.25c13.898-.332 25.105-11.734 25.105-25.715 0-14.187-11.543-25.73-25.73-25.73h-13.606c-5.918 0-10.73-4.813-10.73-10.73 0-5.919 4.812-10.731 10.73-10.731h27.594a7.5 7.5 0 1 0 0-15H263.43v-9.234a7.5 7.5 0 0 0-7.5-7.5 7.497 7.497 0 0 0-7.5 7.5v9.253c-13.832.407-24.961 11.782-24.961 25.711 0 14.188 11.543 25.73 25.73 25.73h13.606c5.914 0 10.73 4.817 10.73 10.731 0 5.918-4.816 10.735-10.73 10.735h-26.633a7.5 7.5 0 1 0 0 15h12.258v9.234a7.5 7.5 0 1 0 15-.004m0 0"/><path d="M478.992 161.754a363 363 0 0 0-42.8-28.805l26.695-33.746c2.36-2.98 10.633-9.363 20.011-2.332 9.38 7.031 4.696 17.027 2.336 20.012l-9.52 12.035c-2.57 3.25-2.023 7.969 1.227 10.535a7.5 7.5 0 0 0 10.536-1.226l9.52-12.04c4.847-6.124 12.44-27.582-4.79-41.082-12.695-9.945-31.078-7.851-41.082 4.793l-28.29 35.758a360 360 0 0 0-38.769-17.304l17.793-49.508c5.457-15.18-2.238-32.606-17.629-37.418-24.683-7.715-34.773 10.277-37.414 17.633l-19.093 53.12a361 361 0 0 0-42.477-5.937V29.246C285.246 13.121 272.13 0 256 0s-29.246 13.121-29.246 29.246v56.996a361 361 0 0 0-42.477 5.938l-19.093-53.121c-2.641-7.356-13.442-25.227-37.414-17.633-15.375 4.87-23.086 22.238-17.63 37.418l17.794 49.508a360 360 0 0 0-38.77 17.304L60.875 89.898c-4.848-6.125-22.816-19.277-41.082-4.793-18.262 14.489-9.637 34.957-4.79 41.082l24.321 30.747C37.204 158.516 0 186.774 0 229.297c0 26.535 12.031 51.152 33.004 67.543a364 364 0 0 0 16.867 12.41 7.495 7.495 0 0 0 10.434-1.895 7.5 7.5 0 0 0-1.895-10.437 349 349 0 0 1-16.168-11.898C24.93 271.492 15 251.184 15 229.297s9.93-42.195 27.238-55.723c29.895-23.355 63.121-41.531 98.758-54.027 36.867-12.926 75.563-19.48 115.004-19.48s78.137 6.554 115.004 19.48c35.637 12.496 68.863 30.672 98.758 54.027C487.07 187.102 497 207.41 497 229.297s-9.93 42.195-27.238 55.723c-29.895 23.355-63.121 41.53-98.758 54.027-36.867 12.926-75.563 19.48-115.004 19.48-60.23 0-119.57-15.652-171.602-45.261a7.5 7.5 0 1 0-7.418 13.04c54.286 30.893 116.192 47.221 179.02 47.221 41.137 0 81.5-6.84 119.969-20.328 37.18-13.035 71.844-31.996 103.023-56.36C499.97 280.45 512 255.833 512 229.298s-12.031-51.156-33.008-67.543M360.934 44.129c1.285-3.578 5.918-12.344 18.222-8.586 7.516 2.293 11.246 10.832 8.59 18.227l-17.82 49.578a359 359 0 0 0-27.446-7.88zm-228.09-8.586c11.34-3.664 16.937 5.008 18.226 8.59l18.453 51.336a358 358 0 0 0-27.445 7.879l-17.82-49.578c-2.66-7.395 1.11-15.813 8.586-18.227m-106.078 81.34c-2.36-2.985-5.84-13.625 2.336-20.012 8.18-6.387 17.652-.652 20.011 2.332L75.81 132.95a363 363 0 0 0-24.27 15.246zm214.988-31.531V29.246C241.754 21.391 248.144 15 256 15s14.246 6.39 14.246 14.246v56.106c-14.246-.887-23.754-.184-28.492 0m0 0"/><path d="M357.68 229.297c0-56.067-45.614-101.68-101.68-101.68s-101.68 45.613-101.68 101.68 45.614 101.68 101.68 101.68 101.68-45.614 101.68-101.68m-188.36 0c0-47.793 38.887-86.68 86.68-86.68s86.68 38.887 86.68 86.68-38.887 86.68-86.68 86.68-86.68-38.887-86.68-86.68m0 0"/></svg>