<svg xmlns="http://www.w3.org/2000/svg" width="512pt" height="512pt" viewBox="0 -57 512 512"><path fill="#00a5fb" d="M455.285 190.84H56.715C29.53 190.84 7.5 168.805 7.5 141.625v-84.91C7.5 29.535 29.535 7.5 56.715 7.5h398.57c27.18 0 49.215 22.035 49.215 49.215v84.91c0 27.18-22.035 49.215-49.215 49.215m0 0"/><path fill="#516980" d="M411.172 147.035H100.824c-26.433 0-47.863-21.43-47.863-47.863 0-26.438 21.43-47.867 47.863-47.867h310.348c26.437 0 47.863 21.43 47.863 47.867.004 26.433-21.426 47.863-47.863 47.863m0 0"/><path fill="#3e4f61" d="M411.172 51.305H100.824c-26.433 0-47.863 21.43-47.863 47.863 0 9.32 2.668 18.02 7.273 25.375 8.461-13.508 23.477-22.512 40.59-22.512h310.348c17.117 0 32.133 9.004 40.594 22.512a47.66 47.66 0 0 0 7.27-25.375c.003-26.434-21.427-47.863-47.864-47.863m0 0"/><path fill="#a4e7ff" d="m363.71 382.445-17.925-18.644c-12.558-13.063-33.457-13.063-46.015 0l-15.915 16.554c-14.148 14.715-37.69 14.715-51.84 0l-15.913-16.554c-12.555-13.063-33.457-13.063-46.016 0l-17.926 18.644c-8.668 9.02-23.906 2.88-23.906-9.629V51.305h259.363v321.511c0 12.508-15.238 18.649-23.906 9.63m0 0"/><path fill="#5ad6ff" d="M128.254 51.305v321.511c0 12.508 15.238 18.645 23.906 9.63l17.926-18.645c12.559-13.063 33.46-13.063 46.02 0-23.864-57.992-22.711-116.625-16.09-159.606 5.601-36.343 34.941-64.492 71.52-68.261 74.41-7.668 116.085-32.645 116.085-32.645V51.305zm0 0"/><path fill="#fdb2db" d="M202.117 106.063c0-9.079-9.238-16.438-20.64-16.438-11.399 0-20.641 7.36-20.641 16.438s9.242 16.437 20.64 16.437c11.403 0 20.641-7.36 20.641-16.437M355.035 106.063c0-9.079-9.242-16.438-20.64-16.438s-20.641 7.36-20.641 16.438 9.242 16.437 20.64 16.437 20.641-7.36 20.641-16.437m0 0"/><g fill="#889cb0"><path d="M340.953 197.762H174.922c-8.418 0-15.238-6.825-15.238-15.239 0-8.418 6.82-15.238 15.238-15.238h166.031c8.414 0 15.238 6.82 15.238 15.238 0 8.415-6.824 15.239-15.238 15.239M340.953 256.773H174.922c-8.418 0-15.238-6.82-15.238-15.238 0-8.414 6.82-15.238 15.238-15.238h166.031c8.414 0 15.238 6.824 15.238 15.238 0 8.418-6.824 15.238-15.238 15.238M287.734 315.79H174.922c-8.418 0-15.238-6.825-15.238-15.24 0-8.417 6.82-15.237 15.238-15.237h112.812c8.414 0 15.239 6.82 15.239 15.238 0 8.414-6.825 15.238-15.239 15.238m0 0"/></g><path fill="#6a829a" d="M159.68 182.523c0 8.415 6.824 15.239 15.238 15.239h26.36a81.1 81.1 0 0 1 14.445-30.48h-40.801c-8.418 0-15.242 6.823-15.242 15.241M159.68 241.535c0 8.418 6.824 15.238 15.238 15.238h20.988a338 338 0 0 1 1.403-30.476h-22.391c-8.414 0-15.238 6.824-15.238 15.238M159.68 300.55c0 8.415 6.824 15.24 15.238 15.24h26.7c-2.079-10.321-3.513-20.509-4.427-30.478h-22.27c-8.417 0-15.241 6.82-15.241 15.239m0 0"/><path d="M327.242 95.79V83.34c0-4.145-3.355-7.5-7.5-7.5a7.497 7.497 0 0 0-7.5 7.5v12.45c0 4.144 3.356 7.5 7.5 7.5s7.5-3.356 7.5-7.5M203.629 95.79V83.34c0-4.145-3.356-7.5-7.5-7.5a7.497 7.497 0 0 0-7.5 7.5v12.45c0 4.144 3.355 7.5 7.5 7.5s7.5-3.356 7.5-7.5M257.938 106.063a21.07 21.07 0 0 0 17.66-9.532 7.5 7.5 0 0 0-2.153-10.383c-1.27-.835-6.882-2.996-10.386 2.149a6.18 6.18 0 0 1-5.121 2.766c-.997 0-3.485-.27-5.125-2.766a7.494 7.494 0 0 0-10.383-2.149 7.495 7.495 0 0 0-2.153 10.383 21.06 21.06 0 0 0 17.66 9.531m0 0"/><path d="M455.285 0h-12c-4.14 0-7.5 3.355-7.5 7.5s3.36 7.5 7.5 7.5h12C478.29 15 497 33.715 497 56.715v84.91c0 23-18.71 41.715-41.715 41.715h-60.164V154.53h16.055c30.527 0 55.363-24.836 55.363-55.363s-24.836-55.363-55.363-55.363H100.828c-30.527 0-55.363 24.836-55.363 55.363s24.836 55.363 55.363 55.363h19.926v28.809h-64.04C33.712 183.34 15 164.625 15 141.625v-84.91C15 33.715 33.71 15 56.715 15h352.418c4.14 0 7.5-3.355 7.5-7.5s-3.36-7.5-7.5-7.5H56.715C25.44 0 0 25.441 0 56.715v84.91c0 31.273 25.441 56.715 56.715 56.715h64.039v65.82a7.5 7.5 0 1 0 15 0V58.805h244.363v314.011c0 4.004-3.062 5.551-4.004 5.93-.937.379-4.218 1.39-6.996-1.5l-17.926-18.644c-7.5-7.801-17.59-12.098-28.414-12.098s-20.914 4.297-28.418 12.101l-15.914 16.551c-5.414 5.633-12.699 8.735-20.511 8.735s-15.098-3.102-20.512-8.735l-15.914-16.554c-7.5-7.801-17.59-12.098-28.414-12.098s-20.914 4.297-28.414 12.098l-17.926 18.644c-2.777 2.887-6.059 1.879-6.996 1.5-.942-.379-4.004-1.926-4.004-5.93v-76.98a7.5 7.5 0 1 0-15 0v76.98c0 8.778 5.258 16.567 13.398 19.844 8.145 3.278 17.332 1.309 23.414-5.015L175.492 369c4.645-4.836 10.899-7.496 17.602-7.496 6.707 0 12.957 2.66 17.601 7.492l15.914 16.559c8.27 8.601 19.395 13.336 31.329 13.336 11.93 0 23.054-4.739 31.324-13.336L305.176 369c4.648-4.836 10.898-7.496 17.601-7.496 6.707 0 12.957 2.66 17.602 7.496l17.926 18.645c6.082 6.328 15.273 8.296 23.414 5.015 8.14-3.277 13.402-11.066 13.402-19.844V198.34h60.164c31.274 0 56.715-25.442 56.715-56.715v-84.91C512 25.44 486.559 0 455.285 0M120.754 139.531h-19.93c-22.254 0-40.363-18.105-40.363-40.363s18.11-40.363 40.363-40.363h19.93zm290.418-80.726c22.258 0 40.363 18.105 40.363 40.363s-18.105 40.363-40.363 40.363h-16.055V58.805zm0 0"/><path d="M152.184 182.523c0 12.536 10.199 22.739 22.738 22.739h166.031c12.535 0 22.738-10.203 22.738-22.739 0-12.539-10.203-22.738-22.738-22.738H174.922c-12.54-.004-22.738 10.2-22.738 22.738m196.507 0c0 4.266-3.472 7.739-7.738 7.739H174.922c-4.27 0-7.738-3.473-7.738-7.739 0-4.265 3.468-7.738 7.738-7.738h166.031c4.266-.004 7.738 3.469 7.738 7.738M174.922 264.273h166.031c12.535 0 22.738-10.199 22.738-22.738s-10.203-22.738-22.738-22.738H174.922c-12.54 0-22.738 10.203-22.738 22.738 0 12.54 10.199 22.738 22.738 22.738m0-30.476h166.031c4.266 0 7.738 3.473 7.738 7.738 0 4.27-3.472 7.738-7.738 7.738H174.922c-4.27 0-7.738-3.472-7.738-7.738s3.468-7.738 7.738-7.738M174.922 323.29h112.812c12.536 0 22.739-10.2 22.739-22.74 0-12.538-10.203-22.737-22.739-22.737H174.922c-12.54 0-22.738 10.199-22.738 22.738s10.199 22.738 22.738 22.738m0-30.478h112.812c4.266 0 7.739 3.473 7.739 7.739s-3.473 7.738-7.739 7.738H174.922c-4.27 0-7.738-3.473-7.738-7.738s3.468-7.739 7.738-7.739m0 0"/></svg>