<svg xmlns="http://www.w3.org/2000/svg" width="511pt" height="511pt" viewBox="-31 0 511 512"><path fill="#fd5c6f" d="M8.047 224.3v63.407c0 119.73 97.062 216.793 216.797 216.793s216.8-97.062 216.8-216.793v-63.406zm0 0"/><path fill="#ff8a98" d="M274.57 227.762a98.3 98.3 0 0 1-17.312 1.547c-25.77 0-50.094-9.938-68.5-27.973L64.12 78.805C4.071 145.14-10.758 244.688 34.38 327.773c57.148 105.188 188.746 144.137 293.937 86.993 80.247-43.594 121.938-130.516 111.832-215.985zm0 0"/><path fill="#f6334c" d="M8.047 287.703c0 119.735 97.062 216.797 216.797 216.797 10.46 0 20.738-.738 30.8-2.172v-26.672c0-21.625-11.464-41.597-30.097-52.57C180.102 396.32 94.07 334.02 44.922 224.3H8.047zm0 0"/><path fill="#fd5c6f" d="M244.285 440.238a61.2 61.2 0 0 0-18.742-17.14c-54.578-32.145-167.684-115.54-205.145-270.774C.766 208.133 3.91 271.707 34.378 327.785c42.556 78.336 126.423 119.922 209.907 112.453m0 0"/><path fill="#76e7e7" d="M232.137 7.637c-37.36-1.293-75.54 7.066-110.762 26.203-25.3 13.742-46.754 31.8-63.977 52.754l124.36 121.883a107.84 107.84 0 0 0 50.379 27.863zm0 0"/><path fill="#fcf5af" d="M415.309 120.832C375.992 48.461 301.438 7.449 224.484 7.508l.973 227.004a107.87 107.87 0 0 0 50.883 3.093l164.7-29.597c-2.22-29.664-10.61-59.344-25.731-87.176m0 0"/><path fill="#454545" d="M328.938 139.441c6.328-8.48 6.062-19.379-.59-24.347-6.657-4.965-17.18-2.121-23.508 6.36-6.328 8.476-6.067 19.378.59 24.343 6.656 4.969 17.18 2.121 23.507-6.356m0 0"/><path d="m369.363 150.902-7.445 9.98a7.49 7.49 0 0 0 1.523 10.493 7.496 7.496 0 0 0 10.496-1.523l7.45-9.977a7.5 7.5 0 0 0-1.524-10.496 7.51 7.51 0 0 0-10.5 1.523M270.309 76.96l-7.45 9.978a7.5 7.5 0 0 0 1.524 10.496 7.5 7.5 0 0 0 10.5-1.524l7.445-9.976a7.496 7.496 0 0 0-1.523-10.496 7.496 7.496 0 0 0-10.496 1.523m0 0"/><path d="M429.32 132.184a7.503 7.503 0 0 0-9.922-3.746 7.5 7.5 0 0 0-3.75 9.921 208.5 208.5 0 0 1 17.301 63.48l-157.937 28.384c-14.145 2.543-28.48 1.96-42.078-1.438l-.914-213.644a209.8 209.8 0 0 1 44.875 6.48c51.093 13.137 94.957 44.664 123.507 88.79a7.506 7.506 0 0 0 10.371 2.222 7.503 7.503 0 0 0 2.223-10.375c-30.605-47.293-77.613-81.09-132.367-95.16C225.589-7.055 167.758.105 117.793 27.25 65.156 55.844 26.809 103.223 9.809 160.66c-6.68 22.57-9.73 45.63-9.262 68.504v58.543c0 56.863 21.316 111.098 60.02 152.715 1.476 1.59 5.835 4.703 10.601.383 3.066-2.782 3.203-7.567.383-10.598-31.664-34.047-50.852-77.145-55.102-123.012a229 229 0 0 0 11.34 24.157c28.598 52.636 75.977 90.984 133.414 107.984 21.074 6.234 42.57 9.324 63.95 9.324 36.89 0 73.421-9.203 106.745-27.305 46.399-25.207 82-65.464 101.336-114.21C423.394 413.469 333.7 497 224.844 497c-47.805 0-92.805-15.688-130.137-45.367a7.5 7.5 0 1 0-9.336 11.742C125.387 495.187 173.617 512 224.844 512c59.914 0 116.238-23.332 158.601-65.695 42.367-42.364 65.696-98.688 65.696-158.598v-61.805c.254-32.03-6.375-63.957-19.82-93.718M124.953 40.43c28.684-15.582 60.145-24.094 92.063-25.274l.894 208.582a100.2 100.2 0 0 1-30.902-20.617L67.664 86.152c15.816-18.03 35.012-33.62 57.29-45.722m199.785 367.746c-49.117 26.68-105.68 32.636-159.277 16.777-53.598-15.863-97.809-51.648-124.488-100.762C.535 249.761 10.09 161.363 58.145 97.828l118.367 116.004c21.726 21.293 50.886 32.965 80.82 32.965 41.633 0 176.691-29.91 176.691-29.91.864 24.746-2.68 49.691-10.71 73.738-16.836 50.414-51.844 92.16-98.575 117.55m0 0"/><path d="M298.816 116.953c-7.468 10.852-9.476 26.258 2.118 34.84 11.593 8.586 25.957 2.55 34-7.879 4.148-5.375 11.921-23.937-2.114-34.84-9.812-7.625-25.668-4.222-34.004 7.88m24.098 17.988c-4.11 5.504-10.262 7.102-13.008 4.832-4.02-3.32-1.097-11.125.934-13.843 2.91-3.903 8.765-7.727 13.008-4.832 4.242 2.89 1.097 11.125-.934 13.843m0 0"/></svg>