<svg xmlns="http://www.w3.org/2000/svg" width="512pt" height="512pt" viewBox="-63 0 512 512"><path fill="#889cb0" d="M324.102 504.5H61.387C31.625 504.5 7.5 480.371 7.5 450.61V61.39C7.5 31.63 31.625 7.5 61.387 7.5h262.715c29.761 0 53.886 24.129 53.886 53.89v389.223c.004 29.762-24.125 53.887-53.886 53.887m0 0"/><path fill="#6a829a" d="M107.848 450.613V61.391c0-29.762 24.125-53.891 53.886-53.891H61.387C31.625 7.5 7.5 31.629 7.5 61.39v389.223c0 29.762 24.125 53.887 53.887 53.887h100.347c-29.761 0-53.886-24.129-53.886-53.887m0 0"/><path fill="#73da8c" d="M290.832 174.523H94.656c-20.687 0-37.457-16.77-37.457-37.457V88.633c0-20.688 16.77-37.457 37.457-37.457h196.176c20.688 0 37.457 16.77 37.457 37.457v48.433c0 20.688-16.77 37.457-37.457 37.457m0 0"/><path fill="#29ce69" d="M290.832 51.176H94.656c-20.687 0-37.457 16.77-37.457 37.457v48.433c0 20.688 16.77 37.457 37.457 37.457h13.192V139c0-27.816 22.55-50.367 50.367-50.367h170.074c0-20.688-16.77-37.457-37.457-37.457m0 0"/><path fill="#fcf5af" d="M224.957 226.043c0 17.789-14.422 32.21-32.21 32.21-17.79 0-32.212-14.421-32.212-32.21s14.422-32.211 32.211-32.211c17.79 0 32.211 14.422 32.211 32.211m0 0"/><path fill="#fab658" d="M116.656 246.727H87.22c-11.422 0-20.684-9.258-20.684-20.684 0-11.422 9.262-20.684 20.684-20.684h29.437c11.422 0 20.684 9.262 20.684 20.684 0 11.426-9.262 20.684-20.684 20.684M298.27 246.727h-29.434c-11.426 0-20.684-9.258-20.684-20.684 0-11.422 9.258-20.684 20.684-20.684h29.434c11.421 0 20.683 9.262 20.683 20.684 0 11.426-9.258 20.684-20.683 20.684m0 0"/><path fill="#76e7e7" d="M280.652 453.719h24.883c12.567 0 22.754-10.188 22.754-22.754V307.789c0-12.566-10.187-22.758-22.754-22.758h-24.883c-12.566 0-22.757 10.192-22.757 22.758v123.172c0 12.57 10.187 22.758 22.757 22.758m0 0"/><g fill="#f4e74d"><path d="M211.348 355.16H174.14c-9.09 0-16.461-7.37-16.461-16.46v-37.208c0-9.09 7.37-16.46 16.46-16.46h37.208c9.09 0 16.46 7.37 16.46 16.46V338.7c0 9.09-7.37 16.461-16.46 16.461M111.137 355.16H73.93c-9.09 0-16.461-7.37-16.461-16.46v-37.208c0-9.09 7.37-16.46 16.46-16.46h37.208c9.09 0 16.46 7.37 16.46 16.46V338.7c-.003 9.09-7.37 16.461-16.46 16.461M211.348 453.719H174.14c-9.09 0-16.461-7.367-16.461-16.461v-37.203c0-9.094 7.37-16.461 16.46-16.461h37.208c9.09 0 16.46 7.367 16.46 16.46v37.204c0 9.094-7.37 16.46-16.46 16.46M111.137 453.719H73.93c-9.09 0-16.461-7.367-16.461-16.461v-37.203c0-9.094 7.37-16.461 16.46-16.461h37.208c9.09 0 16.46 7.367 16.46 16.46v37.204c-.003 9.094-7.37 16.46-16.46 16.46m0 0"/></g><path fill="#ffd2e3" d="M136.93 126.652c0-9.078-9.243-16.433-20.645-16.433-11.398 0-20.64 7.355-20.64 16.433s9.242 16.438 20.64 16.438c11.403 0 20.645-7.36 20.645-16.438M289.844 126.652c0-9.078-9.242-16.433-20.64-16.433s-20.642 7.355-20.642 16.433 9.243 16.438 20.641 16.438 20.64-7.36 20.64-16.438m0 0"/><path d="M197.867 108.89a6.18 6.18 0 0 1-5.12 2.762c-.997 0-3.485-.27-5.126-2.761a7.503 7.503 0 0 0-10.387-2.153 7.5 7.5 0 0 0-2.148 10.387 21.06 21.06 0 0 0 17.66 9.527 21.07 21.07 0 0 0 17.66-9.527 7.503 7.503 0 0 0-2.152-10.387c-1.27-.832-6.883-2.992-10.387 2.153M133.324 112.402c-.933-.78-1.863-.988-2.387-.988s-1.527.125-2.386.988a7.497 7.497 0 0 1-10.606 0 7.5 7.5 0 0 1-.004-10.605 18.25 18.25 0 0 1 12.996-5.383c4.907 0 9.524 1.91 12.993 5.383a7.497 7.497 0 0 1 0 10.605c-1.461 1.465-5.871 3.961-10.606 0M256.938 112.402c-.934-.78-1.864-.988-2.387-.988-.524 0-1.528.125-2.387.988a7.497 7.497 0 0 1-10.605 0 7.5 7.5 0 0 1-.004-10.605 18.25 18.25 0 0 1 12.996-5.383c4.906 0 9.523 1.91 12.992 5.383a7.497 7.497 0 0 1 0 10.605c-1.461 1.465-5.871 3.961-10.605 0m0 0"/><path d="M324.102 512H61.39C27.539 512 0 484.46 0 450.61V102.276c0-4.14 3.355-7.5 7.5-7.5s7.5 3.36 7.5 7.5V450.61C15 476.191 35.809 497 61.39 497h262.712c25.578 0 46.39-20.809 46.39-46.39V61.39c0-25.581-20.812-46.39-46.39-46.39H61.39C35.809 15 15 35.809 15 61.39v8.645c0 4.145-3.355 7.5-7.5 7.5S0 74.18 0 70.035v-8.644C0 27.539 27.54 0 61.39 0h262.712c33.851 0 61.39 27.54 61.39 61.39v389.223C385.488 484.461 357.95 512 324.102 512m0 0"/><path d="M290.832 182.023H94.656c-24.789 0-44.957-20.168-44.957-44.957V88.633c0-24.79 20.168-44.957 44.957-44.957h196.176c24.79 0 44.957 20.168 44.957 44.957v48.437c0 24.785-20.168 44.953-44.957 44.953M94.656 58.676c-16.515 0-29.957 13.437-29.957 29.957v48.437c0 16.516 13.438 29.957 29.957 29.957h196.176c16.52 0 29.957-13.441 29.957-29.957V88.633c0-16.52-13.437-29.957-29.957-29.957zM192.746 265.754c-21.898 0-39.71-17.813-39.71-39.711 0-21.895 17.812-39.711 39.71-39.711 21.895 0 39.711 17.816 39.711 39.711 0 21.898-17.816 39.71-39.71 39.71m0-64.422c-13.629 0-24.71 11.086-24.71 24.711 0 13.629 11.081 24.71 24.71 24.71 13.625 0 24.711-11.081 24.711-24.71 0-13.625-11.086-24.711-24.71-24.711M116.656 254.23H87.22c-15.54 0-28.184-12.644-28.184-28.187 0-15.54 12.645-28.184 28.184-28.184h29.437c15.54 0 28.184 12.645 28.184 28.184 0 15.543-12.645 28.187-28.184 28.187M87.22 212.86c-7.27 0-13.184 5.913-13.184 13.183S79.95 239.23 87.22 239.23h29.437c7.27 0 13.184-5.917 13.184-13.187s-5.914-13.184-13.184-13.184zM298.27 254.23h-29.434c-15.54 0-28.184-12.644-28.184-28.187 0-15.54 12.641-28.184 28.184-28.184h29.434c15.542 0 28.183 12.645 28.183 28.184 0 15.543-12.644 28.187-28.183 28.187m-29.434-41.37c-7.27 0-13.184 5.913-13.184 13.183s5.914 13.187 13.184 13.187h29.434c7.27 0 13.183-5.917 13.183-13.187s-5.914-13.184-13.183-13.184zM305.531 461.219h-24.879c-16.683 0-30.257-13.57-30.257-30.254V307.789c0-16.684 13.574-30.258 30.257-30.258h24.88c16.687 0 30.257 13.574 30.257 30.258v80.77a7.5 7.5 0 1 1-15 0v-80.77c0-8.414-6.844-15.258-15.258-15.258h-24.879c-8.414 0-15.257 6.844-15.257 15.258v123.176c0 8.41 6.843 15.254 15.257 15.254h24.88c8.413 0 15.257-6.844 15.257-15.254v-9.406a7.5 7.5 0 0 1 7.5-7.5c4.145 0 7.5 3.355 7.5 7.5v9.406c0 16.683-13.57 30.254-30.258 30.254M211.348 362.66h-37.203c-13.215 0-23.961-10.75-23.961-23.96v-37.208c0-13.21 10.746-23.96 23.96-23.96h37.204c13.21 0 23.96 10.75 23.96 23.96V338.7c0 13.211-10.75 23.961-23.96 23.961m-37.203-70.129c-4.942 0-8.961 4.02-8.961 8.961V338.7c0 4.942 4.02 8.961 8.96 8.961h37.204c4.941 0 8.96-4.02 8.96-8.96v-37.208c0-4.941-4.019-8.96-8.96-8.96zM111.137 362.66H73.93c-13.211 0-23.961-10.75-23.961-23.96v-37.208c0-13.21 10.75-23.96 23.96-23.96h37.208c13.21 0 23.96 10.75 23.96 23.96V338.7c0 13.211-10.75 23.961-23.96 23.961M73.93 292.531c-4.942 0-8.961 4.02-8.961 8.961V338.7c0 4.942 4.02 8.961 8.96 8.961h37.208c4.937 0 8.96-4.02 8.96-8.96v-37.208c0-4.941-4.023-8.96-8.96-8.96zM211.348 461.219h-37.203c-13.215 0-23.961-10.746-23.961-23.961v-37.203c0-13.211 10.746-23.961 23.96-23.961h37.204c13.21 0 23.96 10.75 23.96 23.96v37.204c0 13.215-10.75 23.96-23.96 23.96m-37.203-70.125c-4.942 0-8.961 4.02-8.961 8.96v37.204c0 4.941 4.02 8.96 8.96 8.96h37.204c4.941 0 8.96-4.019 8.96-8.96v-37.203c0-4.942-4.019-8.961-8.96-8.961zM111.137 461.219H73.93c-13.211 0-23.961-10.746-23.961-23.961v-37.203c0-13.211 10.75-23.961 23.96-23.961h37.208c13.21 0 23.96 10.75 23.96 23.96v37.204c0 13.215-10.75 23.96-23.96 23.96M73.93 391.094c-4.942 0-8.961 4.02-8.961 8.96v37.204c0 4.941 4.02 8.96 8.96 8.96h37.208c4.937 0 8.96-4.019 8.96-8.96v-37.203c0-4.942-4.023-8.961-8.96-8.961zm0 0"/></svg>