<svg xmlns="http://www.w3.org/2000/svg" width="511pt" height="511pt" viewBox="-109 0 511 511.998"><path fill="#00c140" d="M146.93 156.582c-23.235 0-42.07-18.84-42.07-42.074V49.57c0-23.234 18.835-42.07 42.07-42.07s42.074 18.836 42.074 42.07v64.938c0 23.238-18.84 42.074-42.074 42.074M146.93 504.5c-23.235 0-42.07-18.836-42.07-42.07v-64.938c0-23.238 18.835-42.074 42.07-42.074s42.074 18.84 42.074 42.074v64.938c0 23.234-18.84 42.07-42.074 42.07m0 0"/><path fill="#73da8c" d="M173.61 213.93h-52.798c-15.808 0-28.671-12.864-28.671-28.676 0-15.809 12.863-28.672 28.671-28.672h107.079c23.234 0 42.07-18.84 42.07-42.074 0-23.235-18.836-42.07-42.07-42.07H120.813c-62.208 0-112.817 50.609-112.817 112.816S58.606 298.07 120.813 298.07h52.796c15.813 0 28.676 12.864 28.676 28.676s-12.863 28.676-28.676 28.676H70.273c-23.234 0-42.07 18.836-42.07 42.07s18.836 42.07 42.07 42.07H173.61c62.211 0 112.82-50.609 112.82-112.816S235.82 213.93 173.61 213.93m0 0"/><path fill="#29ce69" d="M76.547 397.492c0-23.234 18.836-42.07 42.07-42.07H70.273c-23.234 0-42.074 18.836-42.074 42.07s18.84 42.07 42.074 42.07h48.344c-23.234 0-42.07-18.835-42.07-42.07M202.125 269.266c-45.102-43.07-143.691 16.707-188.8-118.297a112.4 112.4 0 0 0-5.329 34.285c0 62.207 50.61 112.816 112.817 112.816h52.796c15.813 0 28.676 12.864 28.676 28.676 0 8.016-3.289 15.258-8.61 20.465 0 0 54.028-34.418 8.45-77.945m0 0"/><path d="M293.93 326.746c0-66.344-53.977-120.316-120.32-120.316h-52.798c-11.671 0-21.171-9.5-21.171-21.176s9.5-21.172 21.171-21.172h107.079c27.332 0 49.57-22.238 49.57-49.574 0-27.332-22.238-49.57-49.57-49.57h-31.387V49.57C196.504 22.238 174.266 0 146.93 0c-27.332 0-49.57 22.238-49.57 49.57v17.684a119.6 119.6 0 0 0-41.922 17.031 7.503 7.503 0 0 0-2.204 10.375 7.496 7.496 0 0 0 10.375 2.203c17.051-11.074 36.829-16.925 57.204-16.925H227.89c19.062 0 34.57 15.507 34.57 34.57s-15.508 34.57-34.57 34.57H120.813c-19.946 0-36.172 16.23-36.172 36.176 0 19.945 16.226 36.172 36.171 36.172h52.797c58.075 0 105.32 47.246 105.32 105.32 0 58.07-47.245 105.317-105.32 105.317H70.273c-19.062 0-34.57-15.508-34.57-34.57s15.508-34.575 34.57-34.575h52.7c4.144 0 7.5-3.356 7.5-7.5a7.5 7.5 0 0 0-7.5-7.5h-52.7c-27.332 0-49.57 22.238-49.57 49.574 0 27.332 22.238 49.57 49.57 49.57H97.36v15.364c0 27.336 22.239 49.57 49.57 49.57 27.337 0 49.575-22.234 49.575-49.57v-17.559c55.43-10.719 97.426-59.605 97.426-118.12M112.36 65.234V49.57c0-19.062 15.507-34.57 34.57-34.57s34.574 15.508 34.574 34.57v15.368s-66.34.101-69.145.296m69.144 397.196c0 19.062-15.512 34.57-34.574 34.57s-34.57-15.508-34.57-34.57v-15.368s66.535-.093 69.144-.265zm0 0"/><path d="M120.813 305.57h52.796c11.676 0 21.176 9.5 21.176 21.176s-9.5 21.176-21.176 21.176h-18.828a7.497 7.497 0 0 0-7.5 7.5 7.5 7.5 0 0 0 7.5 7.5h18.828c19.95 0 36.176-16.23 36.176-36.176 0-19.945-16.226-36.176-36.176-36.176h-52.797c-58.07 0-105.316-47.242-105.316-105.316 0-25.047 8.984-49.336 25.297-68.395a7.503 7.503 0 0 0-.82-10.574 7.503 7.503 0 0 0-10.575.82C10.762 128.88.5 156.633.5 185.254.496 251.598 54.473 305.57 120.813 305.57m0 0"/></svg>