<svg xmlns="http://www.w3.org/2000/svg" width="512pt" height="512pt" viewBox="-29 0 512 512"><path fill="#a7b6c5" d="M420.516 130.309 261.91 18.57c-21.015-14.804-49.066-14.804-70.078 0L33.222 130.31C15.91 142.504 6.157 162.852 7.646 183.977c5.07 71.957 34.351 236.117 192.652 314.265a59.95 59.95 0 0 0 53.144 0c158.301-78.144 187.582-242.308 192.653-314.265 1.488-21.125-8.266-41.473-25.578-53.668m0 0"/><path fill="#889cb0" d="m155.313 44.297-122.09 86.012C15.91 142.504 6.156 162.852 7.645 183.977c5.07 71.957 34.351 236.117 192.652 314.265a59.95 59.95 0 0 0 53.144 0S240.7 369.098 179.918 255.961c-43.992-81.887-33.664-169.504-24.606-211.664m0 0"/><path fill="#fcf5af" d="M226.871 454.457a10 10 0 0 1-4.441-1.047c-58.207-28.734-102.133-74.379-130.563-135.66-24.043-51.836-31.949-103.266-34.344-137.285-.253-3.594 1.473-7.149 4.5-9.285L220.63 59.445a10.78 10.78 0 0 1 6.242-1.98c1.566 0 3.922.344 6.242 1.98L391.72 171.18c3.027 2.136 4.75 5.691 4.496 9.285-2.395 34.02-10.297 85.45-34.344 137.285-28.43 61.281-72.355 106.926-130.562 135.66a10 10 0 0 1-4.438 1.047m0 0"/><path fill="#f9ee80" d="M179.918 255.96c-26.902-50.077-33.492-102.296-32.48-144.956L62.02 171.18c-3.028 2.136-4.75 5.691-4.497 9.285 2.395 34.02 10.297 85.45 34.344 137.285 28.43 61.281 72.356 106.926 130.563 135.66a10 10 0 0 0 4.437 1.047 10 10 0 0 0 4.442-1.047 294 294 0 0 0 13.867-7.316c-9.469-48.043-28.649-121.992-65.258-190.133m0 0"/><path fill="#73da8c" d="M326.633 248.523c0 55.098-44.664 99.762-99.762 99.762-55.101 0-99.766-44.664-99.766-99.762 0-55.101 44.665-99.765 99.766-99.765 55.098 0 99.762 44.664 99.762 99.765m0 0"/><path fill="#29ce69" d="M153.297 181.14c-16.266 17.755-26.192 41.407-26.192 67.383 0 52.532 40.614 95.582 92.153 99.473-10.09-29.95-22.973-61.57-39.34-92.035-13.371-24.887-21.723-50.305-26.621-74.82m0 0"/><path d="M234.48 241.023h-15.222c-7.113 0-12.899-5.789-12.899-12.898 0-7.113 5.786-12.898 12.899-12.898h30.87a7.5 7.5 0 0 0 7.5-7.5 7.5 7.5 0 0 0-7.5-7.5H234.29v-11.223a7.5 7.5 0 1 0-15 0v11.223h-.031c-15.383 0-27.899 12.515-27.899 27.898 0 15.379 12.516 27.898 27.899 27.898h15.222c7.114 0 12.899 5.786 12.899 12.895 0 7.113-5.785 12.898-12.899 12.898h-29.796a7.5 7.5 0 0 0-7.5 7.5 7.5 7.5 0 0 0 7.5 7.5h14.605v11.223a7.5 7.5 0 1 0 15 0v-11.223h.191c15.383 0 27.899-12.515 27.899-27.898s-12.516-27.895-27.899-27.895m0 0"/><path d="M226.871 512c-10.2 0-20.394-2.344-29.894-7.031-70.27-34.692-123.184-89.54-157.27-163.024C11.98 282.172 2.898 223.335.164 184.504c-1.66-23.55 9.352-46.672 28.738-60.328L187.512 12.44c23.539-16.59 55.176-16.59 78.715 0l117.007 82.43a7.497 7.497 0 0 1 1.813 10.45 7.497 7.497 0 0 1-10.45 1.812L257.59 24.703c-18.375-12.945-43.067-12.945-61.442 0L37.543 136.438c-15.117 10.652-23.707 28.667-22.414 47.015 2.644 37.574 11.418 94.48 38.184 152.18 32.613 70.3 83.183 122.75 150.304 155.883 14.778 7.296 31.727 7.296 46.504 0 67.121-33.133 117.692-85.582 150.305-155.883 26.765-57.7 35.539-114.606 38.183-152.18 1.293-18.348-7.296-36.363-22.414-47.015l-15.054-10.606a7.496 7.496 0 0 1-1.813-10.45 7.496 7.496 0 0 1 10.45-1.812l15.054 10.606c19.387 13.66 30.398 36.777 28.742 60.328-2.734 38.832-11.816 97.668-39.543 157.441-34.09 73.485-87 128.332-157.27 163.024-9.5 4.687-19.695 7.031-29.89 7.031m0 0"/><path d="M226.871 461.957c-2.7 0-5.312-.613-7.758-1.82-59.781-29.512-104.883-76.356-134.05-139.23-24.524-52.872-32.583-105.27-35.02-139.91-.438-6.2 2.496-12.31 7.66-15.946L216.31 53.313a18.26 18.26 0 0 1 10.562-3.348c2.649 0 6.633.582 10.559 3.347l158.61 111.739c5.16 3.637 8.093 9.746 7.66 15.941-2.442 34.645-10.5 87.043-35.024 139.914-29.168 62.875-74.27 109.719-134.047 139.227a17.36 17.36 0 0 1-7.758 1.824m0-396.992c-.703 0-160.531 112.344-160.531 112.344-.88.62-2.211 62.257 32.332 137.28 44.195 95.99 127.824 132.372 128.195 132.372.375 0 80.442-30.27 128.2-132.371 34.706-74.192 33.21-136.656 32.331-137.277 0 0-159.824-112.348-160.527-112.348m0 0"/><path d="M226.871 355.781c-20.543 0-40.508-5.824-57.738-16.847a7.5 7.5 0 0 1-2.274-10.36 7.5 7.5 0 0 1 10.36-2.273c14.808 9.472 31.98 14.484 49.652 14.484 50.875 0 92.262-41.39 92.262-92.262 0-50.875-41.387-92.261-92.262-92.261s-92.266 41.386-92.266 92.261c0 21.38 7.48 42.223 21.067 58.684a7.495 7.495 0 0 1-1.012 10.555 7.496 7.496 0 0 1-10.558-1.012c-15.797-19.137-24.497-43.371-24.497-68.23 0-59.145 48.118-107.262 107.262-107.262 59.149 0 107.266 48.117 107.266 107.262S286.016 355.78 226.87 355.78m0 0"/></svg>