<svg xmlns="http://www.w3.org/2000/svg" width="512pt" height="512pt" viewBox="0 -48 512.001 512"><path fill="#516980" d="M118.48 125.332v110.465c0 21.617 11.786 41.531 30.786 51.832 30.222 16.387 79.476 37.434 133.086 37.434 53.609 0 102.863-21.047 133.082-37.434 19.003-10.3 30.789-30.215 30.789-51.832V125.332zm0 0"/><path fill="#3e4f61" d="M118.48 125.332v110.465c0 21.617 11.786 41.531 30.786 51.832 27.886 15.121 71.988 34.21 120.754 37.07-.684-33.886 21.906-65.031 55.918-73.949 71.44-18.738 120.28-68.95 120.28-68.95v-56.468zm0 0"/><path fill="#6a829a" d="M246.988 15.04 75.973 91.542c-21.028 9.406-21.028 39.258 0 48.668l171.015 76.504a86.63 86.63 0 0 0 70.727 0l171.012-76.504c21.03-9.41 21.03-39.262 0-48.668L317.715 15.039a86.6 86.6 0 0 0-70.727 0m0 0"/><path fill="#516980" d="M180.29 111.836c-34.685-17.969-37.071-37.996-31.821-52.723l-72.496 32.43c-21.028 9.406-21.028 39.262 0 48.668l171.015 76.504a86.63 86.63 0 0 0 70.727 0l13.41-6c-32.379-45.453-102.133-73.652-150.836-98.88m0 0"/><path fill="#ffe0b7" d="M229.46 334.512c0 61.293-49.687 74.593-110.98 74.593S7.5 395.805 7.5 334.512s49.688-110.98 110.98-110.98 110.98 49.687 110.98 110.98m0 0"/><path fill="#fdcb89" d="M92.508 408.148c-12.445-23.3-14.625-50.574-13.738-71.855.785-18.797 15.511-34.152 34.277-35.535 55.133-4.07 78.594-34.633 78.594-34.633v-15.07c-19.536-17.137-45.133-27.524-73.16-27.524C57.187 223.531 7.5 273.22 7.5 334.511c0 52.348 36.242 69.692 85.008 73.637m0 0"/><path fill="#ffe0b7" d="m151.875 147.996-14.95-15c-10.175-10.215-26.714-10.215-36.89 0l-14.95 15a15.23 15.23 0 0 1-16.198 3.48l-31.41-11.972c-9.907-3.774-19.461 6.254-15.211 15.965l31.183 71.281h130.063l31.183-71.281c4.246-9.711-5.304-19.739-15.21-15.965l-31.415 11.973a15.22 15.22 0 0 1-16.195-3.48m0 0"/><path fill="#fdcb89" d="m22.266 155.465 31.183 71.285h49.985c-27.965-35.79-34.543-75.273-34.543-75.273l-31.414-11.973c-9.907-3.774-19.457 6.254-15.211 15.96m0 0"/><path fill="#e7896e" d="M191.64 266.125H45.325c-12.324 0-22.312-9.992-22.312-22.312 0-12.325 9.988-22.313 22.312-22.313h146.317c12.32 0 22.308 9.988 22.308 22.313 0 12.32-9.988 22.312-22.308 22.312m0 0"/><path fill="#dd6642" d="M65.059 243.813c0-12.325 9.992-22.313 22.312-22.313H45.324c-12.324 0-22.312 9.988-22.312 22.313 0 12.32 9.988 22.312 22.312 22.312h42.047c-12.32 0-22.312-9.992-22.312-22.312m0 0"/><path fill="#454545" d="M133.516 326.734c0-10.582-6.73-19.156-15.036-19.156-8.304 0-15.035 8.574-15.035 19.156 0 10.579 6.73 19.153 15.035 19.153s15.036-8.575 15.036-19.153m0 0"/><path fill="#e7896e" d="M431.273 257.59c-8.285 0-15-6.715-15-15V194.8c0-7.452-4.359-14.327-11.101-17.51L291.84 123.804c-7.492-3.535-10.7-12.473-7.164-19.965s12.476-10.703 19.965-7.164l113.336 53.484c17.187 8.113 28.296 25.637 28.296 44.64v47.79c0 8.285-6.718 15-15 15m0 0"/><path fill="#f9ee80" d="M444.684 325.063h-27.215c-9.625 0-17.426-7.801-17.426-17.426v-53.075c0-17.136 13.894-31.03 31.031-31.03 17.14 0 31.035 13.894 31.035 31.03v53.075c0 9.625-7.8 17.425-17.425 17.425m0 0"/><path d="M187.79 324.188v-12.45a7.5 7.5 0 1 0-15 0v12.45c0 4.144 3.355 7.5 7.5 7.5a7.5 7.5 0 0 0 7.5-7.5M64.176 324.188v-12.45a7.5 7.5 0 1 0-15 0v12.45c0 4.144 3.355 7.5 7.5 7.5a7.5 7.5 0 0 0 7.5-7.5M141.016 326.734c0-14.699-10.11-26.656-22.536-26.656s-22.535 11.957-22.535 26.656c0 14.696 10.11 26.653 22.535 26.653s22.536-11.957 22.536-26.653m-30.07 0c0-6.867 3.972-11.656 7.534-11.656 3.567 0 7.536 4.79 7.536 11.656s-3.97 11.653-7.536 11.653c-3.562 0-7.535-4.785-7.535-11.653m0 0"/><path d="M491.79 84.695 460.694 70.79a7.5 7.5 0 0 0-9.906 3.781c-1.691 3.782 0 8.22 3.781 9.907l31.094 13.914c7.098 3.171 11.336 9.71 11.336 17.484 0 7.777-4.238 14.313-11.336 17.488l-48.242 21.582a56.6 56.6 0 0 0-16.246-11.57l-113.332-53.48c-5.434-2.567-21.781-6.133-29.95 10.742-5.406 11.168-.476 24.656 10.743 29.949l98.629 46.547-72.614 32.734c-20.527 9.184-44.074 9.18-64.601 0l-42.625-19.07 14.14-32.328c3.2-7.309 1.766-15.438-3.738-21.215s-13.555-7.602-21.012-4.762l-31.414 11.973a7.73 7.73 0 0 1-8.215-1.766l-14.949-15.004c-6.336-6.36-14.773-9.863-23.758-9.863-8.98 0-17.418 3.504-23.757 9.863l-8.743 8.774-6.945-3.11c-7.098-3.172-11.336-9.71-11.336-17.484 0-7.777 4.238-14.312 11.336-17.488l171.016-76.5a79.18 79.18 0 0 1 64.601 0l110.61 49.48a7.496 7.496 0 0 0 9.906-3.785 7.496 7.496 0 0 0-3.781-9.906l-110.61-49.48c-24.422-10.926-52.433-10.926-76.851 0L72.91 84.695c-12.465 5.577-20.207 17.523-20.207 31.183 0 10.262 4.375 19.562 11.844 25.914l-24.399-9.297c-7.457-2.836-15.507-1.016-21.011 4.758-5.504 5.777-6.938 13.91-3.742 21.219l24.511 56.03c-13.86 2.556-24.394 14.72-24.394 29.31 0 7.738 2.965 14.796 7.82 20.101A118.5 118.5 0 0 0 0 334.512c0 18.023 4.121 33.27 12.246 45.32 1.45 2.148 5.871 4.805 10.41 2.027 3.531-2.164 4.34-6.976 2.028-10.414-6.516-9.66-9.684-21.742-9.684-36.933 0-22.586 7.414-44.5 20.96-62.403a29.7 29.7 0 0 0 9.364 1.516h146.317c3.273 0 6.421-.54 9.37-1.52a103.56 103.56 0 0 1 20.954 62.407c0 47.027-30.95 67.093-103.485 67.093-31.62 0-54.933-3.777-71.273-11.554a7.5 7.5 0 0 0-9.996 3.55 7.507 7.507 0 0 0 3.55 9.997c18.653 8.875 43.348 13.007 77.723 13.007 36.996 0 63.106-4.792 82.075-15.23 39.632-21.82 36.336-71.262 36.214-73.453 15.567 3.062 30.86 4.64 45.579 4.64 42.277 0 81.75-12.835 110.191-25.355v.43c0 13.746 11.184 24.926 24.926 24.926h27.215c13.746 0 24.925-11.18 24.925-24.926v-53.075c0-12.765-6.246-24.097-15.836-31.113l-.05-59.363 38.066-17.027C504.258 141.48 512 129.535 512 115.875c0-13.656-7.742-25.602-20.21-31.18M291.456 107.04c.856-1.812 4.824-5.633 9.984-3.582l113.332 53.484c14.149 6.676 23.41 20.871 23.946 36.438v23.414c-7.645-1.566-12.582-.516-14.95-.059v-21.933c0-10.344-6.042-19.883-15.398-24.293L295.04 117.023c-3.738-1.765-5.348-6.242-3.582-9.984M29.992 147.602c.613-.645 2.317-2.04 4.813-1.09l31.414 11.972a22.74 22.74 0 0 0 24.18-5.195l14.949-15a18.4 18.4 0 0 1 13.132-5.453c4.965 0 9.63 1.934 13.133 5.453l14.95 15a22.74 22.74 0 0 0 24.18 5.195l31.413-11.972c2.496-.953 4.2.445 4.813 1.09.613.644 1.926 2.41.855 4.859L180.902 214H56.06l-26.922-61.54c-1.07-2.448.242-4.214.855-4.858m15.332 111.023c-8.168 0-14.812-6.648-14.812-14.816 0-8.164 6.644-14.809 14.812-14.809h146.317c8.168 0 14.812 6.645 14.812 14.809 0 8.168-6.644 14.816-14.812 14.816zm347.219-4.062v36.183c-27.332 12.684-67.387 26.816-110.191 26.816-15.262 0-31.227-1.812-47.516-5.355a118.6 118.6 0 0 0-21.203-48.293c4.851-5.305 7.82-12.363 7.82-20.102 0-14.59-10.535-26.753-24.394-29.308l4.355-9.961 42.512 19.016a94.1 94.1 0 0 0 38.418 8.191c13.113 0 26.23-2.73 38.453-8.2l83.797-37.773c2.601 2.227 4.176 5.52 4.176 9.024v28.37c-9.81 6.993-16.227 18.454-16.227 31.391m62.066 53.074c0 5.472-4.453 9.925-9.925 9.925h-27.215c-5.477 0-9.93-4.453-9.93-9.925v-53.075c0-12.976 10.559-23.53 23.535-23.53s23.535 10.558 23.535 23.53zm0 0"/></svg>