<svg xmlns="http://www.w3.org/2000/svg" width="512pt" height="512pt" viewBox="-19 0 512 512"><path fill="#a4e7ff" d="M312.332 232.77H205.496c-17.723 0-32.09-14.368-32.09-32.09V88.102l85.508-26.352 85.508 26.352V200.68c0 17.722-14.367 32.09-32.09 32.09m0 0"/><path fill="#5ad6ff" d="M328.379 83.156 258.914 61.75l-85.508 26.352v94.875c36.95-11.786 58.477-31.575 70.688-48.094 12.32-16.668 32.992-24.942 53.32-20.895l30.969 6.164V83.156zm0 0"/><path fill="#e7896e" d="M295.766 232.77h-73.7v-74.211c0-12.34 10.004-22.348 22.348-22.348h29.004c12.344 0 22.348 10.008 22.348 22.348zm0 0"/><path fill="#ffcbbe" d="m298.258 314.93 83.555-86.973c9.742-10.14 25.765-10.723 36.218-1.324 10.617 9.547 11.574 25.86 2.145 36.586l-69.961 79.562zm0 0"/><path fill="#ffddcf" d="m81.406 314.77 49.38-57.985a103.5 103.5 0 0 1 56.69-34.015l63.426-13.672c11.098-2.098 17.801 4.379 17.801 4.379 10.121 8.43 10.024 24.003-.203 32.308l-54.406 44.2 114.68 16.296a39.97 39.97 0 0 0 32.203-9.715l64.878-57.726c10.297-9.164 26.067-8.262 35.25 2.015 8.489 9.493 8.48 23.852-.02 33.336l-73.038 81.516a93.83 93.83 0 0 1-52.074 29.512l-192.317 37.195zm0 0"/><path fill="#ffcbbe" d="m108.957 282.422-27.55 32.348 62.25 107.644L256.39 400.61c-11.918-10.777-29.082-22.34-53.727-32.46-55.031-22.598-83.644-66.965-93.707-85.727m0 0"/><path fill="#73da8c" d="m81.406 314.77 77.282 120.949c9.82 15.37 4.523 35.844-11.516 44.52l-37.926 20.519c-15.098 8.168-33.957 2.699-42.34-12.281l-55.39-98.98c-8.496-15.184-3.024-34.384 12.199-42.806zm0 0"/><path fill="#29ce69" d="M131.559 488.684c.004-20.36-8.164-33.235-8.164-33.235-62.692-3.39-111.88-65.953-111.88-65.953l55.391 98.98c8.383 14.981 27.239 20.45 42.34 12.282zm0 0"/><path fill="#6a829a" d="M124.098 450.277c0 10.723-8.692 19.418-19.418 19.418-10.723 0-19.414-8.695-19.414-19.418s8.691-19.414 19.414-19.414c10.726 0 19.418 8.692 19.418 19.414M349.969 137.297l-91.055-72.32-91.055 72.32c-10.906 8.668-26.773 6.844-35.437-4.063s-6.844-26.773 4.062-35.437l106.743-84.785c9.187-7.293 22.191-7.297 31.375 0l106.742 84.785c10.91 8.664 12.59 24.422 4.062 35.437-11.875 15.34-30.8 7.75-35.437 4.063m0 0"/><path d="M466.7 235.855c-9.716-10.867-25.177-13.652-37.794-7.87-12.984-19.305-39.89-18.356-52.5-5.223l-69.918 72.777-74.336-10.566 41.078-33.368a28.34 28.34 0 0 0 8.407-11.335h30.699c21.828 0 39.59-17.762 39.59-39.59v-53.785c5.05 2.117 24.707 9.566 39.414-9.07 11.148-14.126 8.625-34.821-5.328-45.903L279.27 7.14c-11.985-9.52-28.723-9.52-40.707 0l-65.016 51.64c-3.246 2.574-3.785 7.293-1.211 10.54a7.505 7.505 0 0 0 10.539 1.206l65.016-51.64c6.492-5.157 15.562-5.157 22.047 0l106.742 84.781c7.683 6.102 8.726 16.93 2.797 24.977-9.47 12.847-23.403 3.921-24.844 2.78l-91.051-72.323a7.51 7.51 0 0 0-9.332 0l-91.055 72.324c-7.652 6.078-18.972 4.914-24.898-2.856-8.488-11.12-.856-21.957 2.851-24.902l15.243-12.105a7.501 7.501 0 0 0-9.332-11.747L131.82 91.922c-6.843 5.437-21.148 26.016-5.27 45.976 14.516 18.254 34.997 11.364 39.356 9.344v53.438c0 6.851 1.723 13.414 4.957 19.218-17.636 6.598-33.543 17.641-45.789 32.024l-48.492 56.945-56.496 31.262c-9.121 5.047-15.723 13.348-18.578 23.371-2.86 10.027-1.625 20.559 3.465 29.656l55.386 98.98C67.453 504.81 80.773 512 94.445 512a38.5 38.5 0 0 0 18.368-4.645l37.925-20.52c9.473-5.124 16.45-14.042 19.149-24.468 2.695-10.43.918-21.613-4.88-30.687L90.716 315.406l45.777-53.758c13.528-15.886 32.203-27.093 52.563-31.546l63.324-13.653c6.531-1.199 10.617 2.012 11.16 2.469.149.152.164.152.36.316a13.36 13.36 0 0 1 4.828 10.399 13.38 13.38 0 0 1-4.957 10.332l-54.41 44.195a7.503 7.503 0 0 0 3.675 13.246l114.68 16.301a47.38 47.38 0 0 0 38.246-11.535l64.879-57.73c7.191-6.399 18.258-5.766 24.672 1.41a17.48 17.48 0 0 1-.012 23.335l-73.043 81.516c-12.5 13.953-29.52 23.594-47.91 27.152l-152.5 29.493a7.5 7.5 0 0 0-5.942 8.789c.696 3.586 2.954 6.742 8.79 5.937l152.5-29.492c21.59-4.176 41.562-15.492 56.234-31.867l73.043-81.52c11.062-12.347 11.074-30.976.027-43.34M155.362 458.61c-1.68 6.5-5.855 11.84-11.761 15.032l-37.926 20.52c-11.426 6.183-25.883 1.987-32.227-9.348l-55.39-98.981c-3.125-5.59-3.883-12.059-2.125-18.219 1.754-6.16 5.808-11.261 11.41-14.363l51.531-28.512 73.488 115.02c3.617 5.656 4.684 12.351 3 18.851m30.508-243.168q-.017.007-.035.008c-3.2-4.23-4.93-9.351-4.93-14.77v-64.163l78.012-61.961 78.008 61.96v64.165c0 13.558-11.031 24.59-24.59 24.59h-9.07v-66.711c0-16.457-13.391-29.844-29.848-29.844h-29.004c-16.457 0-29.848 13.387-29.848 29.844v50.699zm63.637-13.714q-.094.016-.188.039l-19.757 4.257V158.56c0-8.184 6.66-14.844 14.847-14.844h29.008c8.187 0 14.848 6.66 14.848 14.844v66.71h-4.86c-1.02-6.746-8.969-27.925-33.898-23.542m106.484 89.238a32.45 32.45 0 0 1-26.164 7.89l-5.039-.714 62.434-64.989c6.976-7.261 23.957-6.086 29.539 3.739zm0 0"/><path d="M81.27 463.555c3.546 6.254 9.316 10.754 16.246 12.668 2.386.66 4.789.976 7.156.976 11.805 0 22.66-7.84 25.953-19.754 1.914-6.93 1.016-14.191-2.531-20.445s-9.317-10.75-16.246-12.664c-6.93-1.914-14.192-1.016-20.446 2.527-6.254 3.551-10.75 9.317-12.664 16.246-1.914 6.934-1.015 14.192 2.532 20.446m11.925-16.45a11.85 11.85 0 0 1 5.606-7.19 11.85 11.85 0 0 1 9.05-1.122 11.83 11.83 0 0 1 7.192 5.61 11.83 11.83 0 0 1 1.121 9.046v.004a11.84 11.84 0 0 1-5.605 7.192 11.84 11.84 0 0 1-9.051 1.12 11.83 11.83 0 0 1-7.192-5.609 11.84 11.84 0 0 1-1.12-9.05m0 0"/></svg>