<svg xmlns="http://www.w3.org/2000/svg" width="512pt" height="512pt" viewBox="-77 0 512 512"><path fill="#ffe0b7" d="M170.344 173.14c-11.235 0-20.34-9.105-20.34-20.34V76.579c0-24.101 14.094-45.973 35.906-55.719 16.059-7.175 42.153-12.18 75.23 4.743 13.04 6.671 24.376 7.902 34.645 3.77 8.84-3.56 15.028-10.325 17.93-14.04 6.91-8.855 19.695-10.434 28.55-3.52 8.852 6.915 10.43 19.696 3.516 28.551-6.613 8.473-18.023 19.992-34.808 26.746-14.813 5.961-38.7 9.883-68.36-5.293-15.05-7.699-28.543-8.98-40.105-3.816-7.188 3.21-11.824 10.504-11.824 18.578v76.227c0 11.23-9.106 20.336-20.34 20.336m0 0"/><path fill="#fdcb89" d="M170.344 173.14c11.23 0 20.34-9.105 20.34-20.34V89.419c-16.918-2.363-30.504-7.078-40.68-12.84v76.223c0 11.234 9.105 20.34 20.34 20.34m0 0"/><path fill="#889cb0" d="M242.59 264.48H98.098V160.71c0-22.487 18.23-40.722 40.722-40.722h63.047c22.488 0 40.723 18.235 40.723 40.723zm0 0"/><path fill="#6a829a" d="M150.004 152.8c-22.563 0-30.758-13.808-33.582-26.1-11.04 7.284-18.324 19.8-18.324 34.01v103.77H242.59V163.31c-29.516-8.926-65.918-10.508-92.586-10.508m0 0"/><path fill="#a7b6c5" d="M333.188 341.656c0 89.938-72.907 162.848-162.844 162.848S7.5 431.594 7.5 341.656c0-89.933 72.906-162.843 162.844-162.843s162.844 72.91 162.844 162.843m0 0"/><path fill="#889cb0" d="M82.895 361.836c-33.457-92.934 45.347-177.43 45.468-177.559C58.781 202.797 7.5 266.242 7.5 341.657 7.5 431.593 80.406 504.5 170.344 504.5c12.097 0 23.89-1.32 35.238-3.824-36.121-59.696-95.191-62.457-122.687-138.84m0 0"/><path fill="#fcf5af" d="M225.344 361.266c0-24.332-19.797-44.13-44.13-44.13h-21.741c-7.79 0-14.13-6.34-14.13-14.128 0-7.793 6.34-14.133 14.13-14.133h44.09c8.285 0 15-6.715 15-15 0-8.281-6.715-15-15-15h-18.336v-11.738c0-8.282-6.715-15-15-15-8.282 0-15 6.718-15 15v11.949c-22.348 2.144-39.883 21.02-39.883 43.922 0 24.332 19.797 44.129 44.129 44.129h21.742c7.789 0 14.129 6.34 14.129 14.129 0 7.793-6.34 14.132-14.13 14.132h-42.55c-8.285 0-15 6.715-15 15 0 8.282 6.715 15 15 15h16.563v11.739c0 8.281 6.714 15 15 15s15-6.719 15-15v-11.93c22.46-2.035 40.117-20.96 40.117-43.941m0 0"/><path d="M170.227 224.64c-25.61 0-22.5 28.079-22.5 28.079-23.157 5.332-39.883 25.87-39.883 50.289 0 28.469 23.16 51.629 51.629 51.629h21.742c3.652 0 6.629 2.972 6.629 6.629s-2.977 6.632-6.63 6.632h-42.55c-12.406 0-22.5 10.094-22.5 22.5s10.094 22.5 22.5 22.5h9.063s-3.2 26.739 22.5 26.739c25.703 0 22.5-28.043 22.5-28.043 10.125-2.313 19.359-7.656 26.503-15.43 8.778-9.55 13.614-21.945 13.614-34.898 0-28.47-23.16-51.63-51.63-51.63h-21.741c-3.657 0-6.63-2.972-6.63-6.628s2.973-6.63 6.63-6.63h44.09c12.406 0 22.5-10.097 22.5-22.5 0-12.405-10.094-22.5-22.5-22.5h-10.836s3.109-26.737-22.5-26.737m33.335 41.739c4.137 0 7.5 3.363 7.5 7.5 0 4.133-3.363 7.5-7.5 7.5h-44.09c-11.925 0-21.628 9.703-21.628 21.629s9.703 21.629 21.629 21.629h21.742c20.195 0 36.629 16.43 36.629 36.629 0 18.757-14.625 34.78-33.293 36.468a7.504 7.504 0 0 0-6.824 7.473v11.926c0 4.137-3.364 7.5-7.5 7.5-4.133 0-7.5-3.363-7.5-7.5v-11.738a7.5 7.5 0 0 0-7.5-7.5h-16.563c-4.137 0-7.5-3.364-7.5-7.5 0-4.133 3.363-7.5 7.5-7.5h42.55c11.927 0 21.63-9.704 21.63-21.63s-9.703-21.628-21.63-21.628h-21.737c-20.2 0-36.633-16.434-36.633-36.633 0-18.973 14.23-34.645 33.101-36.453a7.5 7.5 0 0 0 6.785-7.465v-11.95c0-4.136 3.364-7.5 7.5-7.5 4.133 0 7.5 3.364 7.5 7.5v11.739a7.5 7.5 0 0 0 7.5 7.5h18.333zm0 0"/><path d="M357.383 24.441c-.91-7.378-4.64-13.964-10.5-18.539-5.863-4.578-13.16-6.601-20.54-5.687-7.378.91-13.964 4.64-18.538 10.5-2.438 3.125-7.602 8.793-14.817 11.7-8.14 3.273-17.441 2.132-28.43-3.49-35.722-18.277-64.148-12.76-81.706-4.913-24.512 10.949-40.348 35.508-40.348 62.566v35.91s-51.906-.601-51.906 48.223v30.465C36.75 219.824 0 276.527 0 341.656c0 39.48 13.816 77.961 38.902 108.356a7.498 7.498 0 1 0 11.566-9.543C27.599 412.75 15 377.66 15 341.656c0-85.656 69.687-155.34 155.344-155.34 85.66 0 155.343 69.684 155.343 155.34S256 497 170.345 497c-36.258 0-71.547-12.758-99.36-35.926a7.5 7.5 0 0 0-10.562.965 7.5 7.5 0 0 0 .965 10.563C91.887 498.008 130.582 512 170.344 512c93.93 0 170.344-76.414 170.344-170.344 0-65.129-36.75-121.832-90.598-150.48V160.71c0-49.992-51.906-48.223-51.906-48.223v-35.91c0-5.125 2.898-9.726 7.382-11.73 9.395-4.196 20.707-2.97 33.633 3.644 27.867 14.262 51.086 12.528 65.664 8.567a7.5 7.5 0 1 0-3.937-14.473c-17.485 4.75-35.953 2.246-54.895-7.445-17.168-8.786-32.84-10.125-46.582-3.989-9.879 4.414-16.265 14.395-16.265 25.426v35.914h-25.68V76.578c0-21.148 12.351-40.332 31.469-48.871 14.566-6.512 38.32-11 68.754 4.57 15.086 7.72 28.453 9.043 40.863 4.051 10.473-4.215 17.676-12.074 21.039-16.383 2.11-2.703 9.523-8.308 18.023-2.222 8.938 6.402 4.332 15.32 2.22 18.023-4.017 5.145-8.571 9.766-13.544 13.734-3.234 2.586-3.765 7.305-1.18 10.54 2.586 3.238 7.305 3.77 10.54 1.183 5.886-4.7 11.273-10.16 16.007-16.226 4.575-5.86 6.594-13.153 5.688-20.536M235.09 160.711v23.398c-19.973-8.234-41.836-12.793-64.746-12.793s-44.774 4.559-64.746 12.793v-23.398c0-18.316 14.906-33.223 33.222-33.223h63.047c18.32 0 33.223 14.907 33.223 33.223m0 0"/></svg>