<svg xmlns="http://www.w3.org/2000/svg" width="512pt" height="512pt" viewBox="0 -14 512 512"><path fill="#b0f0ef" d="M7.5 138.617v219.301c0 22.434 18.184 40.617 40.617 40.617h344.29c22.429 0 40.613-18.183 40.613-40.617v-219.3zm0 0"/><path fill="#76e7e7" d="M7.5 138.617v219.301c0 22.434 18.184 40.617 40.617 40.617h59.14c-10.01-17.582-9.644-37.86-9.644-37.86s.117-98.421.098-154.769c-.004-20.05 12.09-38.125 30.633-45.758 12.875-5.296 22.68-12.847 30.129-21.527H7.5zm0 0"/><path fill="#ff8a98" d="M392.406 51.855H48.117C25.684 51.855 7.5 70.04 7.5 92.473v56.582h425.52V92.473c0-22.434-18.184-40.618-40.614-40.618m0 0"/><path fill="#fd5c6f" d="M180.465 51.855H48.117C25.684 51.855 7.5 70.04 7.5 92.473v56.582h140.059c42.199-33.016 32.906-97.2 32.906-97.2m0 0"/><path fill="#6a829a" d="M114.422 105.855c-12.527 0-22.684-10.156-22.684-22.68V30.18c0-12.528 10.157-22.68 22.684-22.68 12.523 0 22.68 10.152 22.68 22.68v52.996c0 12.523-10.157 22.68-22.68 22.68M312.063 105.855c-12.528 0-22.68-10.156-22.68-22.68V30.18c0-12.528 10.152-22.68 22.68-22.68 12.523 0 22.68 10.152 22.68 22.68v52.996c0 12.523-10.157 22.68-22.68 22.68m0 0"/><g fill="#2eddda"><path d="M120.645 255.293H74.59c-9.496 0-17.195-7.7-17.195-17.195v-33.989c0-9.496 7.695-17.195 17.195-17.195h46.055c9.496 0 17.195 7.695 17.195 17.195v33.989c0 9.496-7.7 17.195-17.195 17.195M243.29 255.293h-46.056c-9.496 0-17.195-7.7-17.195-17.195v-33.989c0-9.496 7.695-17.195 17.195-17.195h46.055c9.496 0 17.195 7.695 17.195 17.195v33.989c0 9.496-7.699 17.195-17.195 17.195M365.934 255.293h-46.055c-9.496 0-17.195-7.7-17.195-17.195v-33.989c0-9.496 7.695-17.195 17.195-17.195h46.055c9.496 0 17.195 7.695 17.195 17.195v33.989c0 9.496-7.7 17.195-17.195 17.195M120.645 360.676H74.59c-9.496 0-17.195-7.696-17.195-17.196v-33.988c0-9.496 7.695-17.195 17.195-17.195h46.055c9.496 0 17.195 7.7 17.195 17.195v33.988c0 9.497-7.7 17.196-17.195 17.196M243.29 360.676h-46.056c-9.496 0-17.195-7.696-17.195-17.196v-33.988c0-9.496 7.695-17.195 17.195-17.195h46.055c9.496 0 17.195 7.7 17.195 17.195v33.988c0 9.497-7.699 17.196-17.195 17.196m0 0"/></g><path fill="#29ce69" d="M484.148 464.05H323.035c-11.242 0-20.351-9.109-20.351-20.35v-65.536c0-11.238 9.109-20.352 20.351-20.352h161.113c11.239 0 20.352 9.114 20.352 20.352V443.7c0 11.242-9.113 20.352-20.352 20.352m0 0"/><path fill="#00a62c" d="M484.148 432.727H323.035c-11.242 0-20.351-9.114-20.351-20.356V346.84c0-11.242 9.109-20.352 20.351-20.352h161.113c11.239 0 20.352 9.11 20.352 20.352v65.531c0 11.242-9.113 20.356-20.352 20.356m0 0"/><path fill="#73da8c" d="M484.148 398.535H323.035c-11.242 0-20.351-9.11-20.351-20.351v-65.536c0-11.238 9.109-20.351 20.351-20.351h161.113c11.239 0 20.352 9.113 20.352 20.351v65.536c0 11.242-9.113 20.351-20.352 20.351m0 0"/><path fill="#f9ee80" d="M417.61 476.102h-28.036c-8.387 0-15.187-6.801-15.187-15.188V295.73c0-8.386 6.8-15.187 15.187-15.187h28.035c8.387 0 15.188 6.8 15.188 15.187v165.184c0 8.387-6.8 15.188-15.188 15.188m0 0"/><path fill="#29ce69" d="M302.684 312.648v24.766c24.918 0 45.113-20.2 45.113-45.117h-24.762c-11.242 0-20.351 9.113-20.351 20.351M504.5 312.648v24.766c-24.914 0-45.113-20.2-45.113-45.117h24.761c11.239 0 20.352 9.113 20.352 20.351M302.684 378.184v-24.762c24.918 0 45.113 20.2 45.113 45.113h-24.762c-11.242 0-20.351-9.11-20.351-20.351M504.5 378.184v-24.762c-24.914 0-45.113 20.2-45.113 45.113h24.761c11.239 0 20.352-9.11 20.352-20.351m0 0"/><path fill="#eedb00" d="M374.387 460.914c0 8.387 6.8 15.188 15.187 15.188h28.035c8.387 0 15.188-6.801 15.188-15.188v-62.379h-58.41zm0 0"/><path fill="#00d2ce" d="M57.395 204.11v33.988c0 9.496 7.695 17.195 17.195 17.195h23.113c.012-17.648.016-34.906.012-49.387a49.3 49.3 0 0 1 3.781-18.992H74.59c-9.5 0-17.195 7.7-17.195 17.195M57.395 309.492v33.988c0 9.497 7.695 17.196 17.195 17.196h23.027s.035-31.117.063-68.38H74.59c-9.5 0-17.195 7.7-17.195 17.196m0 0"/><path d="M120.645 179.414H74.59c-13.617 0-24.695 11.078-24.695 24.695v33.989c0 13.617 11.078 24.695 24.695 24.695h46.055c13.617 0 24.695-11.078 24.695-24.695v-33.989c0-13.617-11.078-24.695-24.695-24.695m9.695 58.684c0 5.347-4.352 9.695-9.695 9.695H74.59c-5.348 0-9.695-4.348-9.695-9.695v-33.989c0-5.347 4.347-9.695 9.695-9.695h46.055c5.343 0 9.695 4.352 9.695 9.695zM243.29 179.414h-46.056c-13.617 0-24.695 11.078-24.695 24.695v33.989c0 13.617 11.078 24.695 24.695 24.695h46.055c13.617 0 24.695-11.078 24.695-24.695v-33.989c0-13.617-11.078-24.695-24.695-24.695m9.694 58.684c0 5.347-4.351 9.695-9.695 9.695H197.23c-5.343 0-9.69-4.348-9.69-9.695v-33.989c0-5.347 4.347-9.695 9.69-9.695h46.06c5.343 0 9.694 4.352 9.694 9.695zM319.879 262.793h46.055c13.617 0 24.695-11.078 24.695-24.695v-33.989c0-13.617-11.078-24.695-24.695-24.695h-46.055c-13.617 0-24.695 11.078-24.695 24.695v33.989c0 13.617 11.078 24.695 24.695 24.695m-9.695-58.684c0-5.347 4.347-9.695 9.695-9.695h46.055c5.347 0 9.695 4.352 9.695 9.695v33.989c0 5.347-4.352 9.695-9.695 9.695h-46.055c-5.348 0-9.695-4.348-9.695-9.695zM120.645 284.797H74.59c-13.617 0-24.695 11.078-24.695 24.695v3.305c0 4.144 3.355 7.5 7.5 7.5a7.5 7.5 0 0 0 7.5-7.5v-3.305c0-5.347 4.347-9.695 9.695-9.695h46.055c5.343 0 9.695 4.351 9.695 9.695v33.988c0 5.348-4.352 9.696-9.695 9.696H74.59c-5.348 0-9.695-4.352-9.695-9.696a7.5 7.5 0 1 0-15 0c0 13.618 11.078 24.696 24.695 24.696h46.055c13.617 0 24.695-11.078 24.695-24.696v-33.988c0-13.617-11.078-24.695-24.695-24.695M243.29 284.797h-46.056c-13.617 0-24.695 11.078-24.695 24.695v33.988c0 13.618 11.078 24.696 24.695 24.696h46.055c13.617 0 24.695-11.078 24.695-24.696v-33.988c0-13.617-11.078-24.695-24.695-24.695m9.694 58.683c0 5.348-4.351 9.696-9.695 9.696H197.23c-5.343 0-9.69-4.348-9.69-9.696v-33.988c0-5.344 4.347-9.691 9.69-9.691h46.06c5.343 0 9.694 4.347 9.694 9.691zm0 0"/><path d="M484.148 284.797h-43.625V92.473c0-26.532-21.586-48.118-48.117-48.118h-50.164V30.18c0-16.64-13.539-30.18-30.18-30.18-16.644 0-30.18 13.54-30.18 30.18v14.175h-137.28V30.18c0-16.64-13.54-30.18-30.18-30.18S84.238 13.54 84.238 30.18v14.175h-36.12C21.585 44.355 0 65.941 0 92.473v265.445c0 26.531 21.586 48.117 48.117 48.117h247.067v37.82c0 15.36 12.492 27.856 27.851 27.856h46.586c3.848 7.074 11.348 11.89 19.953 11.89h28.035c8.606 0 16.106-4.816 19.95-11.89h46.59c15.359 0 27.851-12.496 27.851-27.856V312.648c0-15.355-12.492-27.851-27.852-27.851m-173.964 76.879c14.734 2.992 26.367 14.625 29.363 29.36h-16.512c-7.086 0-12.851-5.766-12.851-12.852zm0 41.207a27.66 27.66 0 0 0 12.851 3.152h43.852v19.192h-43.852c-7.086 0-12.851-5.766-12.851-12.856zm44.57-11.848c-3.3-23.02-21.55-41.27-44.57-44.57v-2.098c23.02-3.3 41.27-21.55 44.57-44.57h12.133v91.238zm-44.57-61.875v-16.512c0-7.085 5.765-12.851 12.851-12.851h16.512c-2.996 14.734-14.629 26.371-29.363 29.363m115.113 61.875h-43.41V295.73c0-4.238 3.449-7.687 7.687-7.687h28.035c4.239 0 7.688 3.45 7.688 7.687zm15-91.238h12.133c3.3 23.02 21.55 41.273 44.57 44.574v2.094c-23.02 3.3-41.27 21.55-44.57 44.57h-12.133zM497 361.676v16.508c0 7.086-5.766 12.851-12.852 12.851h-16.511c2.996-14.734 14.629-26.367 29.363-29.36m0-49.028v16.512c-14.734-2.992-26.367-14.625-29.363-29.36h16.511c7.086-.003 12.852 5.763 12.852 12.848M296.883 30.18c0-8.371 6.808-15.18 15.18-15.18 8.367 0 15.18 6.809 15.18 15.18v52.996c0 8.37-6.81 15.18-15.18 15.18s-15.18-6.81-15.18-15.18zm-197.645 0c0-8.371 6.813-15.18 15.184-15.18 8.367 0 15.18 6.809 15.18 15.18v52.996c0 8.37-6.813 15.18-15.18 15.18-8.371 0-15.184-6.81-15.184-15.18zm-51.12 360.855C29.854 391.035 15 376.18 15 357.918V156.555h387.496c4.145 0 7.5-3.356 7.5-7.5s-3.355-7.5-7.5-7.5H15V92.473c0-18.262 14.855-33.118 33.117-33.118h36.121v23.82c0 16.641 13.54 30.18 30.184 30.18 16.64 0 30.18-13.539 30.18-30.18v-23.82h137.277v23.82c0 16.641 13.539 30.18 30.18 30.18s30.18-13.539 30.18-30.18v-23.82h50.167c18.258 0 33.114 14.856 33.114 33.118v182a22.5 22.5 0 0 0-7.91-1.426h-28.036c-8.55 0-16.004 4.75-19.87 11.754h-46.669c-15.36 0-27.851 12.492-27.851 27.851v78.387H48.117zm262.066 52.824v-6.789a27.66 27.66 0 0 0 12.851 3.157h43.852v16.484h-43.852c-7.086 0-12.851-5.766-12.851-12.852m107.425 24.743h-28.035c-4.238 0-7.687-3.45-7.687-7.688v-54.879h43.41v54.88c0 4.237-3.45 7.687-7.688 7.687m66.54-11.891h-43.852v-50.676h43.851c4.633 0 9.004-1.144 12.852-3.152v9.488c0 7.09-5.766 12.856-12.852 12.856h-18.957a7.5 7.5 0 1 0 0 15h18.957A27.66 27.66 0 0 0 497 437.07v6.79c0 7.085-5.766 12.85-12.852 12.85m0 0"/></svg>