<svg xmlns="http://www.w3.org/2000/svg" width="512pt" height="512pt" viewBox="-109 0 512 512.002"><path fill="#29ce69" d="M160.102 37.07c-33.965 33.97-39.575 83.438-12.528 110.489 27.043 27.05 76.504 21.441 110.469-12.532C292.008 101.06 297.617 51.59 270.57 24.54 243.523-2.51 194.062 3.102 160.102 37.07m0 0"/><path fill="#00c140" d="M168 29.895a110 110 0 0 0-7.898 7.18c-33.965 33.968-39.575 83.437-12.528 110.488 21.055 21.058 55.692 22.32 86.031 5.82C230.121 97.629 192.445 53.14 168 29.895m0 0"/><path fill="#00b730" d="M129.258 185.77c0-29.536 11.496-57.301 32.379-78.184l60.332-60.34c7.152-7.156 18.75-7.156 25.902 0 7.152 7.152 7.152 18.754 0 25.906l-60.332 60.344c-13.96 13.961-21.648 32.527-21.648 52.274zm0 0"/><path fill="#00a62c" d="m201.152 68.059-39.515 39.523c-20.88 20.883-32.38 48.652-32.38 78.184h36.634c0-19.746 7.687-38.309 21.648-52.274l32.566-32.574c-5.406-11.957-11.98-22.965-18.953-32.86m0 0"/><path fill="#73da8c" d="M135.047 37.07c33.965 33.97 39.574 83.438 12.527 110.489-27.047 27.05-76.508 21.441-110.472-12.532C3.137 101.06-2.468 51.59 24.578 24.54 51.621-2.51 101.082 3.102 135.047 37.07m0 0"/><path fill="#29ce69" d="M147.574 366.223c-10.117 0-18.316-8.2-18.316-18.32V185.77c0-19.747-7.692-38.313-21.653-52.278l-60.328-60.34c-7.156-7.156-7.156-18.754 0-25.91 7.153-7.152 18.75-7.152 25.903 0l60.332 60.344c20.879 20.883 32.379 48.648 32.379 78.184v162.136c0 10.117-8.203 18.317-18.317 18.317m0 0"/><path fill="#ffe0b7" d="M261.016 440.207c0 62.66-50.79 64.293-113.442 64.293s-113.441-1.633-113.441-64.293c0-62.664 50.789-113.46 113.441-113.46s113.442 50.796 113.442 113.46m0 0"/><path fill="#fdcb89" d="M238.23 371.988c-20.703-27.476-53.605-45.242-90.656-45.242-62.652 0-113.441 50.797-113.441 113.461 0 43.957 24.996 57.883 61.547 62.277-12.746-25.156-13.121-51.71-10.239-71.933 2.582-18.14 18.746-31.035 37.036-29.95 63.628 3.79 115.753-28.613 115.753-28.613m0 0"/><path fill="#ffe0b7" d="m188.57 251.969-21.3-23.516c-10.551-11.644-28.84-11.644-39.391 0l-21.3 23.516a22.85 22.85 0 0 1-23.032 6.683L59.5 252c-11.7-3.238-21.477 9.285-15.5 19.855l31.047 54.891h145.05l31.048-54.89c5.976-10.57-3.801-23.094-15.5-19.856l-24.043 6.652a22.84 22.84 0 0 1-23.032-6.683m0 0"/><path fill="#fdcb89" d="m44 271.855 31.047 54.891h72.144c-56.73-24.344-63.648-68.094-63.648-68.094L59.5 252c-11.7-3.234-21.477 9.285-15.5 19.855m0 0"/><path fill="#f2ad9a" d="M226.348 360.457H68.797C57.863 360.457 49 351.594 49 340.66v-.004c0-10.93 8.863-19.793 19.797-19.793h157.55c10.934 0 19.798 8.864 19.798 19.793v.004c0 10.934-8.864 19.797-19.797 19.797m0 0"/><path fill="#e7896e" d="M92.676 340.66c0-10.933 8.86-19.797 19.793-19.797H68.797C57.863 320.863 49 329.727 49 340.66s8.863 19.797 19.797 19.797h43.672c-10.934 0-19.793-8.863-19.793-19.797m0 0"/><path d="M152.336 423.586h-9.524a5.273 5.273 0 0 1-5.265-5.266 5.27 5.27 0 0 1 5.266-5.261h19.316a7.502 7.502 0 0 0 0-15.004h-7.106v-4.215a7.5 7.5 0 0 0-7.5-7.5 7.5 7.5 0 0 0-7.5 7.5v4.43c-9.855 1.367-17.476 9.824-17.476 20.05 0 11.176 9.09 20.266 20.266 20.266h9.523a5.27 5.27 0 0 1 5.262 5.266 5.27 5.27 0 0 1-5.262 5.265H133.69a7.5 7.5 0 1 0 0 15h6.332v4.219c0 4.14 3.36 7.5 7.5 7.5s7.5-3.36 7.5-7.5v-4.418c9.907-1.32 17.579-9.805 17.579-20.066-.004-11.176-9.094-20.266-20.266-20.266m0 0"/><path d="M253.645 340.66c0-11.879-7.625-22-18.239-25.746l22.266-39.363c4.289-7.578 3.621-16.551-1.735-23.414-5.359-6.864-13.902-9.688-22.292-7.367l-24.043 6.652a15.28 15.28 0 0 1-15.473-4.488l-20.738-22.895v-38.273c0-5.211.609-10.329 1.773-15.282a77.3 77.3 0 0 0 16.41 1.743c24.89 0 51.219-11.336 71.774-31.895 36.832-36.84 42.453-91.164 12.523-121.098-29.926-29.93-84.238-24.308-121.074 12.532a116 116 0 0 0-7.234 7.937 115 115 0 0 0-7.211-7.937C103.516-5.078 49.203-10.695 19.273 19.234c-24.511 24.52-25.765 66.38-3.046 101.801a7.5 7.5 0 0 0 10.363 2.262 7.5 7.5 0 0 0 2.262-10.363C9.972 83.5 10.395 49.332 29.879 29.844 53.957 5.762 98.758 11.383 129.742 42.37c23.207 23.211 32.559 54.695 24.809 79.352a119 119 0 0 0-15.738-19.442L78.48 41.937c-4.875-4.875-22.796-14.953-36.507 0-13.711 14.958-4.875 31.641 0 36.52l60.332 60.34a66.6 66.6 0 0 1 12.523 17.402c-21.375 3.774-46.625-4.008-66.52-21.012-3.144-2.69-7.878-2.32-10.574.833a7.497 7.497 0 0 0 .832 10.574c19.493 16.66 42.887 25.625 65.032 25.625 5.566 0 11.054-.582 16.382-1.735a67 67 0 0 1 1.774 15.282v38.273l-20.738 22.895a15.28 15.28 0 0 1-15.473 4.488L61.5 244.77c-8.39-2.317-16.934.5-22.293 7.367-5.355 6.863-6.023 15.836-1.734 23.414l22.265 39.363C49.125 318.66 41.5 328.785 41.5 340.66c0 9.594 4.98 18.04 12.484 22.91-17.718 21.563-27.351 48.36-27.351 76.637 0 31.879 12.406 52.36 37.93 62.605C85.77 511.324 113.512 512 147.574 512s61.801-.676 83.008-9.188c25.523-10.246 37.934-30.726 37.934-62.605 0-28.289-9.625-55.05-27.329-76.602a27.23 27.23 0 0 0 12.458-22.945m-96.98-288.328a102 102 0 0 1 8.737-9.957c30.989-30.992 75.786-36.613 99.864-12.527 24.082 24.082 18.46 68.886-12.524 99.879-20.64 20.64-48.758 30.671-72.426 26.476a66.4 66.4 0 0 1 12.528-17.406l60.332-60.34c4.875-4.879 14.062-21.39 0-36.516-9.696-10.425-26.446-10.066-36.512 0l-46.008 46.012c-2.23-12.113-6.949-24.273-13.992-35.621m15.386 55.445 55.219-55.23c4.214-4.219 11.23-4.363 15.296 0 6.223 6.676 2.043 13.258 0 15.3l-60.332 60.34a81.7 81.7 0 0 0-14.828 20.286 117 117 0 0 0-3.8-9.922c5.14-9.332 7.914-19.82 8.445-30.774M52.578 67.847c-4.215-4.218-3.996-10.87 0-15.3 5.3-5.871 13.254-2.043 15.297 0l60.332 60.344c19.461 19.464 30.184 45.347 30.184 72.879v28.226a34 34 0 0 0-10.817-1.777c-3.71 0-7.363.617-10.816 1.777v-28.23c0-21.75-8.473-42.196-23.848-57.579zm-1.547 193.52c.594-.758 2.805-3.156 6.473-2.137l24.043 6.653c11.121 3.074 22.84-.324 30.59-8.88l21.3-23.515c3.665-4.043 8.684-6.27 14.137-6.27 5.453.005 10.477 2.227 14.137 6.27l21.305 23.516c7.746 8.555 19.468 11.957 30.586 8.879l24.043-6.653c3.664-1.015 5.878 1.38 6.468 2.137.594.758 2.38 3.488.504 6.793l-25.562 45.2H76.094l-25.567-45.196c-1.87-3.309-.086-6.039.504-6.797M147.574 497c-65.683 0-105.941-2.746-105.941-56.793 0-27.062 10.078-52.57 28.453-72.25h126.637c4.14 0 7.5-3.355 7.5-7.5s-3.36-7.5-7.5-7.5H68.797c-6.777 0-12.293-5.516-12.293-12.297s5.516-12.297 12.293-12.297h157.555c6.777 0 12.293 5.516 12.293 12.297 0 6.336-4.762 11.41-11.028 12.23-8.312 1.09-10.437 7.567-5.586 11.938 18.028 16.242 31.485 46.836 31.485 75.379 0 54.047-40.258 56.793-105.942 56.793m0 0"/></svg>