<svg xmlns="http://www.w3.org/2000/svg" width="512pt" height="512pt" viewBox="0 -12 512 512"><path fill="#6a829a" d="M181.258 332.176h149.484v119.031H181.258zm0 0"/><path fill="#516980" d="M181.258 407.09c59.332-17.2 122.273-19.442 149.484-19.508v-55.406H181.258zm0 0"/><path fill="#a7b6c5" d="M446.555 366.293H65.445c-32.004 0-57.945-25.941-57.945-57.945V65.445C7.5 33.441 33.441 7.5 65.445 7.5h381.11c32.004 0 57.945 25.941 57.945 57.945v242.903c0 32.004-25.941 57.945-57.945 57.945m0 0"/><path fill="#889cb0" d="M111.379 308.348V65.445c0-32.004 25.941-57.945 57.941-57.945H65.445C33.441 7.5 7.5 33.441 7.5 65.445v242.903c0 32 25.941 57.945 57.945 57.945H169.32c-32 0-57.941-25.941-57.941-57.945m0 0"/><path fill="#a7b6c5" d="M349.39 480.434H162.61c-16.141 0-29.223-13.086-29.223-29.227s13.082-29.227 29.222-29.227h186.782c16.14 0 29.226 13.086 29.226 29.227-.004 16.14-13.086 29.227-29.226 29.227m0 0"/><path fill="#889cb0" d="M202.516 451.207c0-16.14 13.086-29.227 29.226-29.227H162.61c-16.14 0-29.226 13.086-29.226 29.227s13.086 29.227 29.226 29.227h69.133c-16.14 0-29.226-13.086-29.226-29.227m0 0"/><path fill="#6a829a" d="M446.555 7.5H65.445C33.441 7.5 7.5 33.441 7.5 65.445v212.102h497V65.445c0-32.004-25.941-57.945-57.945-57.945m0 0"/><path fill="#516980" d="M169.32 7.5H65.445C33.441 7.5 7.5 33.441 7.5 65.445v212.102h103.879V65.445c0-32.004 25.941-57.945 57.941-57.945m0 0"/><path fill="#fffcdc" d="M465.008 277.547V65.445c0-10.175-8.278-18.453-18.453-18.453H65.445c-10.175 0-18.453 8.278-18.453 18.453v212.102zm0 0"/><path fill="#f9ee80" d="M114.379 46.992H65.445c-10.175 0-18.453 8.278-18.453 18.453v212.102h64.387V65.445c0-6.457 1.05-12.656 3-18.453m0 0"/><path fill="#f4e74d" d="M273.21 124.508H196.22c-10.426 0-18.88-8.453-18.88-18.88 0-10.425 8.454-18.878 18.88-18.878h76.992c10.426 0 18.879 8.453 18.879 18.879.004 10.426-8.45 18.879-18.88 18.879m0 0"/><path fill="#eedb00" d="M273.21 162.27H196.22c-10.426 0-18.88-8.454-18.88-18.88s8.454-18.882 18.88-18.882h76.992c10.426 0 18.879 8.453 18.879 18.883.004 10.425-8.45 18.879-18.88 18.879m0 0"/><path fill="#dfca00" d="M230.574 162.27h42.637c10.43 0 18.883-8.454 18.883-18.88 0-10.43-8.453-18.878-18.883-18.878 0-.004-27.86 7.843-42.637 37.758m0 0"/><path fill="#f4e74d" d="M273.21 200.031H196.22c-10.426 0-18.88-8.453-18.88-18.883 0-10.425 8.454-18.878 18.88-18.878h76.992c10.426 0 18.879 8.453 18.879 18.878.004 10.43-8.45 18.883-18.88 18.883m0 0"/><path fill="#eedb00" d="M230.574 162.27c-4.922 9.96-8.39 22.375-8.894 37.761h51.53c10.43 0 18.884-8.453 18.884-18.883 0-10.425-8.453-18.878-18.883-18.878zM273.21 237.79H196.22c-10.426 0-18.88-8.45-18.88-18.88 0-10.426 8.454-18.879 18.88-18.879h76.992c10.426 0 18.879 8.453 18.879 18.88.004 10.429-8.45 18.878-18.88 18.878m0 0"/><path fill="#dfca00" d="M292.094 218.91c0-10.426-8.453-18.879-18.883-18.879H221.68c-.364 11 .804 23.528 4.027 37.762h47.504c10.43-.004 18.883-8.453 18.883-18.883m0 0"/><path fill="#f9ee80" d="M334.66 195.223c0 23.511-19.058 42.57-42.566 42.57-23.512 0-42.57-19.059-42.57-42.57 0-23.508 19.058-42.567 42.57-42.567 23.508 0 42.566 19.059 42.566 42.567m0 0"/><path d="M446.555 0H65.445C29.36 0 0 29.36 0 65.445v242.903c0 36.086 29.36 65.445 65.445 65.445h108.313v40.687h-11.149c-20.25 0-36.726 16.477-36.726 36.727s16.476 36.727 36.726 36.727h186.782c20.25 0 36.726-16.477 36.726-36.727 0-20.254-16.476-36.727-36.726-36.727h-11.149v-40.687h57.133a7.5 7.5 0 0 0 7.5-7.5c0-4.145-3.355-7.5-7.5-7.5H65.445C37.63 358.793 15 336.164 15 308.348v-23.301h482v23.3c0 27.817-22.629 50.446-50.445 50.446h-21.711a7.497 7.497 0 0 0-7.5 7.5 7.5 7.5 0 0 0 7.5 7.5h21.71c36.087 0 65.446-29.36 65.446-65.445V65.445C512 29.36 482.64 0 446.555 0m-75.442 451.207c0 11.98-9.746 21.727-21.722 21.727H162.609c-11.976 0-21.722-9.747-21.722-21.727s9.746-21.727 21.722-21.727h186.782c11.976 0 21.722 9.747 21.722 21.727m-47.87-36.727H188.757v-40.687h134.484zm149.265-144.433V65.445c0-14.308-11.64-25.953-25.953-25.953H65.445c-14.312 0-25.953 11.645-25.953 25.953v21.297a7.5 7.5 0 1 0 15 0V65.445c0-6.039 4.91-10.953 10.953-10.953h381.11c6.039 0 10.953 4.914 10.953 10.953v204.602H54.492v-151.29a7.5 7.5 0 0 0-7.5-7.5 7.5 7.5 0 0 0-7.5 7.5v151.29H15V65.445C15 37.63 37.629 15 65.445 15h381.11C474.37 15 497 37.629 497 65.445v204.602zm0 0"/><path d="M169.84 218.91c0 14.547 11.836 26.383 26.379 26.383h95.87c27.61 0 50.067-22.461 50.067-50.07 0-25.094-18.558-45.934-42.676-49.516.067-.766 1.204-13.437-7.87-21.2 4.917-4.792 7.98-11.484 7.98-18.878 0-14.547-11.832-26.383-26.38-26.383H196.22c-14.543 0-26.38 11.836-26.38 26.383 0 7.394 3.063 14.086 7.981 18.879-4.918 4.797-7.98 11.484-7.98 18.883 0 7.394 3.062 14.086 7.98 18.879-4.918 4.796-7.98 11.484-7.98 18.882 0 7.395 3.062 14.086 7.98 18.88-4.918 4.792-7.98 11.484-7.98 18.878m157.32-23.687c0 19.336-15.734 35.066-35.066 35.066-19.336 0-35.07-15.73-35.07-35.066s15.734-35.067 35.07-35.067 35.066 15.73 35.066 35.067m-142.32-89.594c0-6.274 5.105-11.383 11.379-11.383h76.992c6.273 0 11.379 5.106 11.379 11.383 0 6.273-5.106 11.379-11.38 11.379H196.22c-6.274 0-11.38-5.106-11.38-11.38m0 37.762c0-6.278 5.105-11.383 11.379-11.383h76.992c11.8 0 11.289 12.98 11.125 13.75-8.02 1.254-15.406 4.422-21.695 9.012h-66.422c-6.274 0-11.38-5.106-11.38-11.38m0 37.757c0-6.273 5.105-11.378 11.379-11.378H249a49.7 49.7 0 0 0-6.902 22.761h-45.88c-6.273 0-11.378-5.105-11.378-11.383m58.719 26.383c2.214 8.723 6.722 16.531 12.843 22.762H196.22c-6.274 0-11.38-5.106-11.38-11.383 0-6.273 5.106-11.379 11.38-11.379zm0 0"/></svg>