<svg xmlns="http://www.w3.org/2000/svg" width="511pt" height="511pt" viewBox="1 -73 511.999 511"><path fill="#f9ee80" d="M469.14 164.637H42.86c-19.528 0-35.36-15.832-35.36-35.36V43.36C7.5 23.832 23.332 8 42.86 8h426.28c19.528 0 35.36 15.832 35.36 35.36v85.917c0 19.528-15.832 35.36-35.36 35.36m0 0"/><path fill="#6a829a" d="M422.16 129.035H89.84c-23.594 0-42.715-19.125-42.715-42.715 0-23.593 19.121-42.715 42.715-42.715h332.32c23.594 0 42.715 19.122 42.715 42.715 0 23.59-19.121 42.715-42.715 42.715m0 0"/><path fill="#516980" d="M422.16 43.605H89.84c-23.594 0-42.715 19.122-42.715 42.715 0 9.211 2.914 17.743 7.875 24.72 7.742-10.892 20.46-18.013 34.84-18.013h332.32c14.38 0 27.098 7.121 34.84 18.012a42.53 42.53 0 0 0 7.875-24.719c0-23.593-19.125-42.715-42.715-42.715m0 0"/><path fill="#00c140" d="M345.176 319.004H240.293c-33.23 0-60.172-26.938-60.172-60.172V43.605h225.223v215.227c.004 33.234-26.938 60.172-60.168 60.172m0 0"/><path fill="#00a62c" d="M180.121 43.605v88.836a106.7 106.7 0 0 1 26.734-3.406h198.493v-85.43zm0 0"/><path fill="#29ce69" d="M405.348 229.313v29.519c0 33.234-26.942 60.172-60.172 60.172h-29.524c0-49.535 40.157-89.691 89.696-89.691m0 0"/><path fill="#73da8c" d="M271.707 358.75H166.824c-33.23 0-60.172-26.941-60.172-60.172V43.605H331.88v254.973c0 33.23-26.942 60.172-60.172 60.172m0 0"/><path fill="#29ce69" d="M106.652 188.617c10.77-14.797 22.07-26.273 32.418-35.02 18.922-15.988 43.008-24.562 67.785-24.562H331.88V43.602H106.652zm0 0"/><path fill="#b9ecc2" d="M284.305 177.488c0-49.554-29.121-89.73-65.04-89.73s-65.038 40.176-65.038 89.73 29.12 89.727 65.039 89.727 65.039-40.172 65.039-89.727m0 0"/><path fill="#73da8c" d="M219.266 87.758c-26.168 0-48.715 21.293-59.036 52.031 14.407-7.066 30.36-10.754 46.625-10.754h67.16c-11.57-24.828-31.769-41.277-54.75-41.277m0 0"/><path fill="#b9ecc2" d="M106.652 269.059v29.52c0 33.233 26.942 60.171 60.172 60.171h29.524c0-49.535-40.157-89.691-89.696-89.691M331.879 269.059v29.52c0 33.233-26.942 60.171-60.172 60.171h-29.523c0-49.535 40.16-89.691 89.695-89.691m0 0"/><path d="M211.652 137.582h12.453a7.5 7.5 0 1 0 0-15h-12.453a7.5 7.5 0 1 0 0 15M211.652 232.395h12.453a7.5 7.5 0 1 0 0-15h-12.453c-4.14 0-7.5 3.355-7.5 7.5s3.36 7.5 7.5 7.5M216.613 182.61c-3.46 2.277-4.425 6.925-2.152 10.386a7.503 7.503 0 0 0 10.387 2.152 21.07 21.07 0 0 0 9.53-17.66c0-7.14-3.562-13.742-9.53-17.66a7.5 7.5 0 0 0-10.387 2.149c-.832 1.27-2.992 6.882 2.152 10.386a6.2 6.2 0 0 1 2.766 5.125c0 .992-.274 3.485-2.766 5.121m0 0"/><path d="M219.266 274.715c19.84 0 38.328-10.434 52.062-29.38 13.203-18.218 20.477-42.312 20.477-67.847s-7.274-49.633-20.477-67.851c-13.734-18.946-32.223-29.38-52.062-29.38s-38.328 10.434-52.063 29.38c-13.203 18.218-20.476 42.316-20.476 67.851s7.273 49.63 20.476 67.848c13.734 18.945 32.223 29.379 52.063 29.379m0-179.457c31.726 0 57.539 36.89 57.539 82.23s-25.813 82.227-57.54 82.227-57.535-36.887-57.535-82.227 25.81-82.23 57.536-82.23m0 0"/><path d="M469.14.5h-16.273a7.5 7.5 0 1 0 0 15h16.274C484.504 15.5 497 28 497 43.36v85.917c0 15.364-12.496 27.86-27.86 27.86h-56.292v-20.602h9.312c27.692 0 50.215-22.527 50.215-50.215 0-27.691-22.523-50.218-50.215-50.218H89.84c-27.688 0-50.215 22.527-50.215 50.218 0 20.582 12.332 38.864 31.414 46.575a7.502 7.502 0 0 0 5.621-13.91c-13.387-5.407-22.035-18.231-22.035-32.669 0-19.418 15.797-35.214 35.215-35.214h9.312v106.035H42.86c-15.363 0-27.859-12.5-27.859-27.86V43.36C15 27.996 27.496 15.5 42.86 15.5H420.69a7.5 7.5 0 0 0 7.5-7.5c0-4.145-3.355-7.5-7.5-7.5H42.86C19.227.5 0 19.727 0 43.36v85.917c0 23.633 19.227 42.86 42.86 42.86h56.292v126.441c0 37.313 30.36 67.672 67.672 67.672h104.883c37.313 0 67.672-30.36 67.672-67.672v-28.594c14.004-18.824 35.254-30.71 58.469-32.828v21.676c0 23.93-16.145 44.879-39.254 50.95-4.004 1.05-6.399 5.152-5.348 9.16.883 3.363 4.477 6.62 9.16 5.347 29.63-8.059 50.438-34.715 50.438-65.457v-86.695h56.297c23.632 0 42.859-19.227 42.859-42.86V43.36C512 19.727 492.773.5 469.14.5m-11.765 85.82c0 19.418-15.797 35.215-35.215 35.215h-9.312V51.102h9.312c19.418.003 35.215 15.8 35.215 35.218M324.379 51.105v210.739c-47.625 3.652-85.754 41.781-89.406 89.406h-31.414c-3.653-47.625-41.778-85.754-89.407-89.406V51.105zM114.152 298.578v-21.664c39.348 3.578 70.758 34.992 74.336 74.336h-21.664c-29.043 0-52.672-23.629-52.672-52.672m157.555 52.672h-21.664c3.578-39.344 34.988-70.758 74.336-74.336v21.664c0 29.043-23.629 52.672-52.672 52.672m67.672-103.613V51.105h58.469v171.008a97.05 97.05 0 0 0-58.47 25.524m0 0"/></svg>