<svg xmlns="http://www.w3.org/2000/svg" width="512pt" height="512pt" viewBox="-48 0 512 512"><path fill="#eedb00" d="M376.938 269.148H29.113v65.942h.055c2.39 93.969 79.312 169.41 173.855 169.41s171.47-75.441 173.86-169.41h.054zm0 0"/><path fill="#dfca00" d="M335.613 381.668v-112.52h-306.5v65.942h.055c1.766 69.328 44.102 128.562 104.144 154.867 14.7-12.52 33.942-20.121 55.34-19.793 115.75 1.766 146.961-88.496 146.961-88.496m0 0"/><path fill="#f9ee80" d="M376.938 269.148c0 96.051-77.864 173.914-173.915 173.914-96.046 0-173.91-77.863-173.91-173.914s77.864-173.914 173.91-173.914c96.051 0 173.915 77.864 173.915 173.914m0 0"/><path fill="#f4e74d" d="M347.758 172.668c-12.746-19.086-29.18-35.492-48.266-48.242l-62.347 62.347V98.578a175 175 0 0 0-34.122-3.344 174.7 174.7 0 0 0-34.117 3.348v88.191l-62.355-62.351A174.9 174.9 0 0 0 58.3 172.68l62.351 62.347H32.453a174.7 174.7 0 0 0-3.344 34.121c0 11.68 1.153 23.086 3.348 34.122h88.195L58.301 365.62a174.8 174.8 0 0 0 48.258 48.246l62.343-62.344v88.192a174.7 174.7 0 0 0 34.121 3.348c11.68 0 23.086-1.153 34.122-3.348V351.52l62.351 62.351a174.8 174.8 0 0 0 48.25-48.254l-62.348-62.347h88.192a174.7 174.7 0 0 0 3.347-34.122c0-11.68-1.152-23.085-3.347-34.12h-88.192zm0 0"/><path fill="#fcf5af" d="M323.07 269.148c0 66.301-53.746 120.047-120.047 120.047-66.296 0-120.046-53.746-120.046-120.047s53.75-120.046 120.046-120.046c66.301 0 120.047 53.746 120.047 120.046m0 0"/><path fill="#b0f0ef" d="m107.215 88.453 7.504 13.723a81.55 81.55 0 0 0 32.426 32.426l13.722 7.503c14.043 7.68 14.043 27.848 0 35.528l-13.722 7.504a81.6 81.6 0 0 0-32.426 32.426l-7.504 13.722c-7.68 14.043-27.848 14.043-35.531 0l-7.504-13.722a81.6 81.6 0 0 0-32.426-32.426l-13.719-7.504c-14.043-7.68-14.043-27.848 0-35.528l13.719-7.503a81.55 81.55 0 0 0 32.426-32.426l7.504-13.723c7.68-14.043 27.851-14.043 35.53 0M367.941 14.09l4.696 8.582a51.05 51.05 0 0 0 20.285 20.289l8.586 4.691c8.785 4.809 8.785 17.422 0 22.23l-8.586 4.692a51.05 51.05 0 0 0-20.285 20.29l-4.696 8.581c-4.804 8.785-17.421 8.785-22.226 0l-4.695-8.582a51.05 51.05 0 0 0-20.286-20.289l-8.586-4.691c-8.785-4.809-8.785-17.422 0-22.23l8.586-4.692a51.05 51.05 0 0 0 20.286-20.29l4.695-8.581c4.805-8.785 17.422-8.785 22.226 0m0 0"/><path fill="#fdb2db" d="M147.207 286.223c0-9.078-9.242-16.438-20.64-16.438s-20.641 7.36-20.641 16.438 9.242 16.437 20.64 16.437 20.641-7.36 20.641-16.437M300.125 286.223c0-9.078-9.242-16.438-20.64-16.438-11.403 0-20.641 7.36-20.641 16.438s9.238 16.437 20.64 16.437c11.399 0 20.641-7.36 20.641-16.437m0 0"/><path d="M264.832 283.45a7.5 7.5 0 0 0 7.5-7.5V263.5a7.5 7.5 0 1 0-15 0v12.45c0 4.144 3.355 7.5 7.5 7.5M141.219 283.45a7.5 7.5 0 0 0 7.5-7.5V263.5a7.5 7.5 0 1 0-15 0v12.45c0 4.144 3.355 7.5 7.5 7.5M203.023 286.223c7.141 0 13.743-3.563 17.66-9.532a7.494 7.494 0 0 0-2.148-10.382c-1.27-.836-6.883-2.997-10.387 2.148a6.18 6.18 0 0 1-5.125 2.766c-.992 0-3.484-.27-5.12-2.766a7.5 7.5 0 0 0-10.387-2.148 7.497 7.497 0 0 0-2.149 10.382 21.06 21.06 0 0 0 17.656 9.532m0 0"/><path d="M203.023 87.734c-26.843 0-53.55 6.02-77.656 17.434a74 74 0 0 1-4.066-6.59l-7.504-13.723c-4.945-9.039-14.043-14.433-24.348-14.433-10.3 0-19.398 5.394-24.344 14.433l-7.503 13.723a73.9 73.9 0 0 1-16.504 20.457 7.5 7.5 0 0 0-.762 10.578 7.5 7.5 0 0 0 10.578.762 88.8 88.8 0 0 0 19.848-24.602l7.504-13.722c2.27-4.149 6.453-6.63 11.183-6.63 4.735 0 8.914 2.481 11.188 6.63l7.504 13.722a88.87 88.87 0 0 0 35.406 35.407l13.723 7.507c4.152 2.27 6.628 6.45 6.628 11.184 0 4.73-2.476 8.914-6.628 11.184l-13.723 7.504a88.9 88.9 0 0 0-35.406 35.41l-7.504 13.719c-2.274 4.152-6.453 6.632-11.188 6.632-4.73 0-8.914-2.48-11.183-6.632l-7.504-13.72a88.93 88.93 0 0 0-35.407-35.41l-13.722-7.503C17.48 168.785 15 164.605 15 159.87c0-4.73 2.48-8.914 6.633-11.184a7.5 7.5 0 0 0 2.98-10.18 7.495 7.495 0 0 0-10.18-2.98C5.396 140.47 0 149.57 0 159.871c0 10.3 5.395 19.402 14.434 24.344l13.722 7.504a75 75 0 0 1 8.36 5.336c-9.883 22.761-14.907 46.976-14.907 72.093 0 0 .032 66.707.086 67.079 1.442 47.113 20.809 91.175 54.606 124.171C110.379 493.676 155.387 512 203.023 512c44.997 0 88.153-16.59 121.524-46.715a7.495 7.495 0 0 0 .539-10.59c-2.774-3.078-7.52-3.316-10.594-.543C283.887 481.782 244.297 497 203.023 497c-43.699 0-84.98-16.809-116.246-47.332-29.437-28.742-46.933-66.64-49.754-107.387 28.176 63.707 91.98 108.282 166 108.282 74.028 0 137.832-44.579 166.008-108.293-2.246 32.515-13.808 63.234-33.683 89.25-2.516 3.293-2.004 8.16 1.406 10.511 5.23 3.617 9.035.528 10.512-1.406 23.109-30.246 35.925-66.328 37.086-104.398.058-.372.086-67.079.086-67.079 0-100.03-81.383-181.414-181.415-181.414m134.93 84.13L310.02 199.8a128.6 128.6 0 0 0-37.645-37.649l27.934-27.933a167.8 167.8 0 0 1 37.644 37.644m-10.183 70.663h39.53a167 167 0 0 1 2.138 26.621c0 9.059-.739 17.95-2.137 26.622H327.77c1.832-8.59 2.8-17.497 2.8-26.622 0-9.128-.968-18.03-2.8-26.62m-4.176 68.243h40.574a165.5 165.5 0 0 1-17.816 42.847l-28.657-28.656a128 128 0 0 0 5.899-14.191m0-83.243a127 127 0 0 0-5.899-14.187l28.657-28.66a165.4 165.4 0 0 1 17.816 42.847zm-78.95-78.945v-40.578a165.4 165.4 0 0 1 42.848 17.816l-28.656 28.657a127 127 0 0 0-14.191-5.895m-15-43.71v39.53a127.8 127.8 0 0 0-26.62-2.8c-8.985 0-17.907.949-26.618 2.796v-39.554a168 168 0 0 1 26.617-2.11c9.063 0 17.95.739 26.622 2.137m-94.113 12.112a163.5 163.5 0 0 1 25.871-9.02v25.888s-19.386-8.985-25.87-16.868m-21.738 117.903 7.508-13.723a73.9 73.9 0 0 1 29.441-29.445l13.723-7.504c17.937-8.656 14.418-24.781 14.41-25a113 113 0 0 1 24.148-2.613c62.059 0 112.547 50.488 112.547 112.546s-50.488 112.547-112.547 112.547S90.477 331.207 90.477 269.148c0-6.718.597-13.414 1.773-19.98 9.133-.887 17.055-6.074 21.543-14.281m145.043 148.93 28.656 28.66a165.5 165.5 0 0 1-42.847 17.816v-40.578a127 127 0 0 0 14.19-5.899m-97.434 5.898v40.578a165.4 165.4 0 0 1-42.843-17.816l28.656-28.66a127 127 0 0 0 14.187 5.898M36.613 269.148c0-9.011.711-17.894 2.11-26.62h32.484a26.9 26.9 0 0 0 6.258 4.117 128.6 128.6 0 0 0-1.988 22.503c0 9.13.972 18.032 2.804 26.622H38.75a167 167 0 0 1-2.137-26.622m45.844 41.622a127 127 0 0 0 5.898 14.187l-28.66 28.656a165.5 165.5 0 0 1-17.812-42.843zm-21.375-83.243H41.84a165 165 0 0 1 6.437-19.687c7.461 6.453 12.805 19.687 12.805 19.687m7.012 138.907 27.933-27.938a128.6 128.6 0 0 0 37.649 37.649l-27.938 27.933a167.8 167.8 0 0 1-37.644-37.644m108.308 66.988V393.89a127.5 127.5 0 0 0 26.621 2.804c9.13 0 18.032-.972 26.622-2.804v39.53a166.6 166.6 0 0 1-53.243 0m123.907-29.344-27.934-27.933a128.6 128.6 0 0 0 37.645-37.649l27.933 27.938a167.8 167.8 0 0 1-37.644 37.644M405.105 41.074l-8.582-4.695a43.4 43.4 0 0 1-17.304-17.305l-4.696-8.586C370.984 4.02 364.203 0 356.828 0s-14.152 4.02-17.691 10.488l-4.696 8.586a43.43 43.43 0 0 1-17.308 17.305l-8.582 4.695a20.15 20.15 0 0 0-10.488 17.692A20.16 20.16 0 0 0 308.55 76.46l8.586 4.695c7.316 4 13.3 9.985 17.304 17.305l4.696 8.586c3.539 6.469 10.316 10.488 17.691 10.488s14.156-4.02 17.695-10.488l4.692-8.586a43.47 43.47 0 0 1 17.305-17.305l8.585-4.695a20.16 20.16 0 0 0 10.493-17.695c0-7.371-4.02-14.153-10.493-17.692m-7.195 22.227-8.586 4.695a58.45 58.45 0 0 0-23.27 23.27l-4.69 8.582c-1.329 2.425-3.614 2.687-4.536 2.687s-3.207-.262-4.531-2.687l-4.695-8.582a58.45 58.45 0 0 0-23.27-23.27l-8.586-4.695c-2.426-1.324-2.687-3.61-2.687-4.531s.261-3.208 2.691-4.536l8.582-4.695a58.4 58.4 0 0 0 23.27-23.266l4.695-8.585c1.324-2.426 3.61-2.688 4.531-2.688s3.207.262 4.535 2.688l4.692 8.585a58.4 58.4 0 0 0 23.27 23.266l8.585 4.695c2.426 1.328 2.688 3.614 2.688 4.536 0 .917-.262 3.207-2.688 4.53m0 0"/></svg>