<svg xmlns="http://www.w3.org/2000/svg" width="512pt" height="512pt" viewBox="-43 0 512 512.003"><path fill="#ffcbbe" d="m270.75 268.445 56.875-105.152c6.629-12.258 21.781-17.047 34.25-10.824 12.664 6.32 17.883 21.656 11.703 34.39l-45.84 94.485zm0 0"/><path fill="#ffddcf" d="m63.54 325.527 31.87-68.433a102.6 102.6 0 0 1 45.184-47.465l51.941-27.375c16.414-8.652 36.3 2.441 37.567 20.953 0 0 .656 11.398-6.442 18.824l-39.902 44.793 108.61-14.02a51.04 51.04 0 0 0 36.331-22.906l43.871-67.832c7.418-11.472 22.723-14.773 34.207-7.379 10.614 6.833 14.395 20.551 8.778 31.86l-52.364 105.41a65.67 65.67 0 0 1-29.613 29.602l-182.164 90.386zm0 0"/><path fill="#ffcbbe" d="m78.063 294.348-14.524 31.175 87.879 86.418 61.707-30.617c-64.629-20.523-116.852-68.648-135.062-86.976m0 0"/><path fill="#76e7e7" d="m63.54 325.527 105.75 95.164c13.437 12.09 13.776 33.051.745 45.579l-30.816 29.613c-12.27 11.789-31.73 11.539-43.692-.563l-79.035-79.953c-12.125-12.262-11.965-32.05.356-44.117zm0 0"/><path fill="#2eddda" d="M140.777 448.855h-19.242c-75.273-21.46-91.836-90.183-91.84-90.187L16.848 371.25c-12.32 12.066-12.48 31.852-.356 44.117l79.035 79.953c11.961 12.102 31.422 12.352 43.692.563l7.96-7.653c3.813-23.5-6.402-39.375-6.402-39.375m0 0"/><path fill="#6a829a" d="M140.777 448.855c0 10.63-8.613 19.243-19.242 19.243s-19.242-8.614-19.242-19.243 8.613-19.242 19.242-19.242 19.242 8.614 19.242 19.242m0 0"/><path fill="#00b4fd" d="M295.457 133.078H149.543c-15.469 0-28.008-12.539-28.008-28.008V35.508c0-15.469 12.54-28.008 28.008-28.008h145.914c15.465 0 28.008 12.54 28.008 28.008v69.562c0 15.47-12.543 28.008-28.008 28.008m0 0"/><path fill="#0092e2" d="M163.387 105.07V35.512c0-15.473 12.539-28.012 28.008-28.012h-41.856c-15.465 0-28.004 12.54-28.004 28.012v69.558c0 15.47 12.54 28.008 28.004 28.008h41.856c-15.47 0-28.008-12.539-28.008-28.008m0 0"/><path fill="#fbf4b0" d="M164.492 56.574h-11.285c-4.43 0-8.02-3.59-8.02-8.02V37.267c0-4.43 3.59-8.024 8.02-8.024h11.285a8.025 8.025 0 0 1 8.024 8.024v11.289c0 4.43-3.594 8.02-8.024 8.02m0 0"/><path d="M238.23 81.848c0-4.145-3.355-7.5-7.5-7.5h-80.574a7.497 7.497 0 0 0-7.5 7.5c0 4.144 3.356 7.5 7.5 7.5h80.574c4.145 0 7.5-3.356 7.5-7.5M150.156 98.46a7.5 7.5 0 0 0-7.5 7.5 7.5 7.5 0 0 0 7.5 7.5h45.031c4.145 0 7.5-3.355 7.5-7.5s-3.355-7.5-7.5-7.5zM410.84 148.379c-12.156-7.824-27.668-6.418-38.219 2.422-19.226-14.992-42.992-6.985-51.594 8.922l-47.574 87.96-70.73 9.13 26.457-29.7c8.988-9.508 8.496-22.843 8.406-24.418a33.06 33.06 0 0 0-16.934-26.703c-9.836-5.484-21.652-5.625-31.613-.375l-51.941 27.375c-21.164 11.153-38.383 29.242-48.485 50.934L57.32 321.12l-45.718 44.77C4.207 373.133.086 382.824.004 393.176c-.086 10.351 3.875 20.105 11.152 27.469a7.497 7.497 0 0 0 10.606.058 7.5 7.5 0 0 0 .062-10.605c-4.449-4.504-6.875-10.47-6.824-16.801.055-6.332 2.57-12.258 7.094-16.688l41.664-40.796L164.27 426.27c4.933 4.437 7.71 10.535 7.816 17.171.11 6.633-2.465 12.82-7.25 17.418l-30.816 29.618c-9.258 8.894-24.133 8.707-33.16-.426l-56.118-56.77a7.497 7.497 0 0 0-10.605-.058 7.5 7.5 0 0 0-.063 10.605l56.117 56.77c7.508 7.593 17.485 11.406 27.473 11.406 9.652 0 19.313-3.563 26.75-10.711l30.816-29.613c7.711-7.41 11.856-17.79 11.856-28.485 0-21.082-17.191-32.043-17.191-32.043l167.015-82.87c14.219-7.055 25.938-18.77 33-32.985l52.363-105.41c7.329-14.75 2.415-32.594-11.433-41.508m-76.617 18.48c4.73-8.746 18.906-13.668 29.062-4.246l-40.883 63.211a43.46 43.46 0 0 1-30.609 19.48zm74.62 16.348-52.366 105.414c-5.614 11.3-14.93 20.61-26.23 26.219l-172.345 85.512-85.218-76.692 29.527-63.402c8.727-18.735 23.598-34.36 41.879-43.996l51.941-27.375c5.54-2.918 11.848-2.844 17.317.207 5.465 3.047 8.843 8.379 9.265 14.543.008.082.262 8.36-4.375 13.21-.062.063-.12.13-.18.192l-39.898 44.793a7.5 7.5 0 0 0-1.035 8.488 7.51 7.51 0 0 0 7.594 3.942l108.61-14.02A58.45 58.45 0 0 0 335 233.97l43.871-67.832c5.16-7.98 15.86-10.285 23.852-5.145a17.267 17.267 0 0 1 6.12 22.215m0 0"/><path d="M121.535 475.602c14.746 0 26.746-12 26.746-26.747s-12-26.746-26.746-26.746-26.742 12-26.742 26.746c0 14.747 11.996 26.747 26.742 26.747m0-38.493c6.477 0 11.746 5.27 11.746 11.746s-5.27 11.747-11.746 11.747c-6.472 0-11.742-5.27-11.742-11.747 0-6.476 5.27-11.746 11.742-11.746M149.543 140.578h145.914c19.578 0 35.508-15.93 35.508-35.508V67.523c0-4.144-3.356-7.5-7.5-7.5a7.497 7.497 0 0 0-7.5 7.5v37.547c0 11.309-9.2 20.508-20.508 20.508H149.543c-11.309 0-20.508-9.2-20.508-20.508V35.512c0-11.313 9.2-20.508 20.508-20.508h145.914c11.309 0 20.508 9.2 20.508 20.508a7.5 7.5 0 0 0 7.5 7.5 7.5 7.5 0 0 0 7.5-7.5C330.965 15.93 315.035 0 295.457 0H149.543c-19.578 0-35.508 15.93-35.508 35.512v69.558c0 19.578 15.926 35.508 35.508 35.508m0 0"/><path d="M164.492 64.074c8.559 0 15.524-6.96 15.524-15.52V37.267c0-8.563-6.965-15.524-15.524-15.524h-11.285c-8.559 0-15.523 6.961-15.523 15.524v11.289c0 8.558 6.964 15.52 15.523 15.52zm-11.804-15.52V37.267c0-.29.23-.524.519-.524h11.29c.284 0 .519.235.519.524v11.289c0 .285-.235.52-.52.52h-11.289a.52.52 0 0 1-.52-.52m0 0"/></svg>