<svg xmlns="http://www.w3.org/2000/svg" width="512pt" height="512pt" viewBox="0 -5 512 512"><path fill="#dd6642" d="M322.445 266.695h-132.89c-6.743 30.504-27.852 65.735-76.852 101.836h286.594c-49-36.101-70.11-71.332-76.852-101.836M190.277 223.305h131.446c3.78-20.145 12.5-35.735 18.683-44.621 12.492-17.95 22.008-40.391 22.008-64.77C362.414 55.144 314.77 7.5 256 7.5S149.586 55.145 149.586 113.914c0 24.379 9.516 46.816 22.008 64.77 6.183 8.886 14.902 24.476 18.683 44.62m0 0"/><path fill="#b24e2f" d="M190.277 223.305h52.844c-19.91-46.442-81.867-62.328-82.012-62.368 3.086 6.29 6.649 12.235 10.485 17.747 6.183 8.886 14.902 24.476 18.683 44.62M252.613 266.695h-63.058c-6.743 30.504-27.852 65.735-76.852 101.836H323.41c-37.183-26.168-61.234-63.43-70.797-101.836m0 0"/><path fill="#6a829a" d="m48.613 419.45 7.719 36.745c4.664 22.203 24.246 38.098 46.93 38.098h305.472c22.688 0 42.27-15.895 46.93-38.098l7.719-36.746zm0 0"/><path fill="#516980" d="m48.613 419.45 7.719 36.745c4.664 22.203 24.246 38.098 46.934 38.098h106.832c-.707-18.82 10.035-38.797 31.562-44.465 43.723-11.508 64.793-30.379 64.793-30.379zm0 0"/><path fill="#e7896e" d="M460.363 425.367H51.637c-24.375 0-44.137-19.762-44.137-44.137s19.762-44.136 44.137-44.136h408.726c24.375 0 44.137 19.761 44.137 44.136s-19.762 44.137-44.137 44.137m0 0"/><path fill="#dd6642" d="M88.676 381.23c0-24.375 19.761-44.136 44.137-44.136H51.637c-24.375 0-44.137 19.761-44.137 44.136s19.762 44.137 44.137 44.137h81.176c-24.375 0-44.137-19.762-44.137-44.137m0 0"/><path fill="#516980" d="M322.957 217.559H189.043c3.777 15.554 4.789 34.226-.914 54.882H323.87c-5.703-20.656-4.691-39.328-.914-54.882m0 0"/><path fill="#3e4f61" d="M254.156 272.441c-2.617-9.101-4.422-18.293-5.39-27.441-1.082-10.23-4.098-19.344-8.395-27.441h-51.328c3.777 15.554 4.789 34.226-.914 54.882zm0 0"/><path d="M512 381.23c0-28.472-23.164-51.636-51.637-51.636h-94.066c-25.195-25.246-35.195-59.145-35.195-59.149-9.38-47.14 11.164-81.304 15.46-87.476 11.915-17.121 19.614-35.856 22.27-54.176a7.5 7.5 0 0 0-6.348-8.5c-4.09-.594-7.906 2.246-8.5 6.348-2.32 16.027-9.144 32.543-19.734 47.761-5.348 7.684-12.367 19.836-17.031 35.66H194.78c-4.664-15.824-11.683-27.972-17.031-35.66-9.43-13.547-20.664-35.035-20.664-60.488 0-54.539 44.375-98.91 98.914-98.91 23.73 0 46.68 8.527 64.617 24.02 17.754 15.335 29.516 36.468 33.11 59.511.636 4.094 4.472 6.899 8.566 6.254a7.497 7.497 0 0 0 6.254-8.562c-4.145-26.555-17.684-50.899-38.125-68.555C309.762 9.824 283.332 0 256 0c-62.812 0-113.914 51.102-113.914 113.914 0 29.34 12.7 53.746 23.352 69.055 4.296 6.172 28.269 44.754 15.46 87.476-6.003 20.024-17.414 40.04-35.191 59.149h-94.07C23.164 329.594 0 352.758 0 381.23c0 25.754 18.95 47.16 43.637 51.016l5.355 25.492c5.363 25.528 28.188 44.055 54.274 44.055h305.472c26.082 0 48.907-18.527 54.27-44.055l5.355-25.492C493.051 428.391 512 406.98 512 381.23M198.195 225.06h115.61c-2.125 13.27-1.918 26.62.62 39.882h-116.85c2.534-13.261 2.745-26.613.62-39.882m-4.511 54.882h124.632c5.54 16.957 14.934 33.59 28.059 49.653H165.621c13.125-16.063 22.524-32.7 28.063-49.653m266.68 137.926H100.401c-4.14 0-7.5 3.36-7.5 7.5s3.36 7.5 7.5 7.5h352.5l-4.574 21.785c-3.914 18.625-20.562 32.141-39.594 32.141H103.266c-19.032 0-35.68-13.516-39.594-32.14l-4.574-21.786h7.37c4.141 0 7.5-3.36 7.5-7.5s-3.359-7.5-7.5-7.5H51.638C31.434 417.867 15 401.434 15 381.23s16.434-36.636 36.637-36.636h408.726c20.203 0 36.637 16.433 36.637 36.636s-16.434 36.637-36.637 36.637m0 0"/></svg>