<svg xmlns="http://www.w3.org/2000/svg" width="512pt" height="512pt" viewBox="-8 0 511 512"><path fill="#29ce69" d="M445.758 486.617H118.543c-23.805 0-43.102-19.297-43.102-43.101v-130.38c0-23.804 19.297-43.1 43.102-43.1h327.215c23.805 0 43.101 19.296 43.101 43.1v130.38c0 23.804-19.296 43.101-43.101 43.101m0 0"/><path fill="#00c140" d="M445.758 448.54H118.543c-23.805 0-43.102-19.298-43.102-43.103V275.056c0-23.805 19.297-43.102 43.102-43.102h327.215c23.805 0 43.101 19.297 43.101 43.102v130.383c0 23.804-19.296 43.101-43.101 43.101m0 0"/><path fill="#29ce69" d="M445.758 410.457H118.543c-23.805 0-43.102-19.297-43.102-43.102V236.977c0-23.805 19.297-43.102 43.102-43.102h327.215c23.805 0 43.101 19.297 43.101 43.102v130.378c0 23.805-19.296 43.102-43.101 43.102m0 0"/><path fill="#73da8c" d="M445.758 372.379H118.543c-23.805 0-43.102-19.297-43.102-43.102V198.895c0-23.805 19.297-43.102 43.102-43.102h327.215c23.805 0 43.101 19.297 43.101 43.102v130.382c0 23.805-19.296 43.102-43.101 43.102m0 0"/><g fill="#b9ecc2"><path d="M145.652 155.793h-27.109c-23.805 0-43.102 19.297-43.102 43.102v27.113c38.778 0 70.211-31.438 70.211-70.215M75.441 302.164v27.113c0 23.805 19.297 43.102 43.102 43.102h27.11c0-38.777-31.434-70.215-70.212-70.215M488.86 226.008v-27.113c0-23.805-19.298-43.102-43.102-43.102h-27.11c0 38.777 31.434 70.215 70.211 70.215M488.86 329.277v-27.113c-38.778 0-70.212 31.438-70.212 70.215h27.11c23.805 0 43.101-19.297 43.101-43.102M385.523 264.086c0-38.594-46.28-69.883-103.37-69.883s-103.372 31.29-103.372 69.883 46.281 69.883 103.371 69.883 103.371-31.29 103.371-69.883m0 0"/></g><path fill="#fcf5af" d="M303.832 504.5h-43.363c-14.059 0-25.453-11.395-25.453-25.453V163.363c0-14.054 11.394-25.453 25.453-25.453h43.363c14.059 0 25.453 11.399 25.453 25.453v315.684c0 14.058-11.394 25.453-25.453 25.453m0 0"/><path fill="#f4e74d" d="M235.016 372.379v106.668c0 14.058 11.394 25.453 25.453 25.453h43.363c14.059 0 25.453-11.395 25.453-25.453V372.379zm0 0"/><path fill="#b0f0ef" d="m113.66 87.582 7.953 14.54a86.4 86.4 0 0 0 34.36 34.358l14.539 7.954c14.879 8.136 14.879 29.507 0 37.648l-14.54 7.953a86.4 86.4 0 0 0-34.359 34.36l-7.953 14.539c-8.14 14.882-29.512 14.882-37.648 0l-7.953-14.54a86.4 86.4 0 0 0-34.36-34.359l-14.539-7.953c-14.883-8.137-14.883-29.512 0-37.648l14.54-7.954a86.4 86.4 0 0 0 34.359-34.359l7.953-14.539c8.136-14.883 29.508-14.883 37.648 0M400.48 14.703l5.133 9.383a55.8 55.8 0 0 0 22.172 22.176l9.387 5.133c9.601 5.25 9.601 19.042 0 24.296l-9.387 5.13a55.8 55.8 0 0 0-22.172 22.175l-5.133 9.387c-5.253 9.601-19.042 9.601-24.296 0l-5.133-9.387a55.8 55.8 0 0 0-22.176-22.176l-9.383-5.129c-9.601-5.254-9.601-19.046 0-24.296l9.383-5.133a55.8 55.8 0 0 0 22.176-22.176l5.133-9.383c5.254-9.605 19.043-9.605 24.296 0m0 0"/><path d="m335.895 82.27 9.382 5.132a48.23 48.23 0 0 1 19.196 19.196l5.132 9.382a21.33 21.33 0 0 0 18.727 11.102 21.34 21.34 0 0 0 18.73-11.102l5.133-9.386a48.16 48.16 0 0 1 19.192-19.192l9.383-5.132c5.98-3.27 9.949-9 10.894-15.72.941-6.683-1.328-13.472-6.066-18.155a7.5 7.5 0 0 0-10.547 10.668c1.387 1.37 2.043 3.39 1.762 5.402-.165 1.164-.801 3.312-3.239 4.644l-9.383 5.133a63.2 63.2 0 0 0-25.156 25.156l-5.133 9.383c-1.629 2.98-4.433 3.301-5.566 3.301s-3.938-.32-5.566-3.3l-5.133-9.384a63.2 63.2 0 0 0-25.157-25.156l-9.386-5.133c-2.977-1.629-3.301-4.437-3.301-5.566 0-1.133.324-3.938 3.3-5.57l9.387-5.13a63.2 63.2 0 0 0 25.157-25.156l5.133-9.386c1.628-2.98 4.433-3.301 5.566-3.301s3.937.32 5.566 3.305l5.133 9.379A63.3 63.3 0 0 0 409.246 41.5c2.895 2.965 7.64 3.027 10.606.133a7.5 7.5 0 0 0 .136-10.606 48.3 48.3 0 0 1-7.793-10.543l-5.132-9.379A21.34 21.34 0 0 0 388.332 0a21.34 21.34 0 0 0-18.73 11.102l-5.133 9.386a48.16 48.16 0 0 1-19.192 19.192l-9.382 5.132a21.34 21.34 0 0 0-11.106 18.731c0 7.805 4.258 14.98 11.106 18.727M445.758 148.293H333.12c-5.48-10.61-16.547-17.883-29.289-17.883h-43.363c-12.742 0-23.809 7.274-29.29 17.883h-46.105c-2.586-4.29-6.308-7.895-10.965-10.438l-14.539-7.953a78.8 78.8 0 0 1-31.379-31.379l-7.953-14.539c-5.156-9.433-14.652-15.062-25.402-15.062-10.746 0-20.246 5.629-25.402 15.062l-7.954 14.54a78.8 78.8 0 0 1-31.378 31.378l-14.54 7.953C6.13 143.012.5 152.508.5 163.258s5.629 20.246 15.062 25.402l14.54 7.953c27.05 14.403 37.84 43.196 37.84 43.196v203.707c0 27.902 22.699 50.601 50.601 50.601H231.18c5.48 10.61 16.547 17.883 29.289 17.883h43.363c12.742 0 23.809-7.273 29.29-17.883h69.515c4.144 0 7.5-3.355 7.5-7.5a7.5 7.5 0 0 0-7.5-7.5h-65.852V456.04h108.973c13.87 0 26.453-5.613 35.601-14.684 0 0-1.023 37.762-35.601 37.762h-11.785a7.5 7.5 0 0 0-7.5 7.5c0 4.145 3.355 7.5 7.5 7.5h11.785c27.902 0 50.601-22.699 50.601-50.601V198.895c0-27.903-22.699-50.602-50.601-50.602m35.601 50.602v19.148c-28.593-3.426-51.324-26.156-54.75-54.75h19.149c19.629 0 35.601 15.973 35.601 35.602m-144.574 14.042c25.684 11.653 41.235 30.633 41.235 51.149 0 20.512-15.551 39.496-41.235 51.148zM260.47 145.41h43.363c9.898 0 17.953 8.055 17.953 17.953V364.88h-79.27V163.363c0-9.898 8.055-17.953 17.954-17.953m-32.953 169.824c-25.684-11.652-41.235-30.632-41.235-51.148s15.551-39.496 41.235-51.149zm-190.22-131.78-14.538-7.95c-4.543-2.488-7.258-7.066-7.258-12.246s2.71-9.758 7.258-12.242l14.539-7.953a93.78 93.78 0 0 0 37.344-37.34l7.953-14.543c2.484-4.543 7.062-7.258 12.242-7.258s9.758 2.715 12.242 7.258l7.953 14.543a93.78 93.78 0 0 0 37.344 37.34l14.54 7.953c4.546 2.484 7.257 7.062 7.257 12.242 0 5.183-2.711 9.758-7.258 12.246l-14.539 7.95a93.8 93.8 0 0 0-37.344 37.343l-7.953 14.539c-2.484 4.547-7.062 7.258-12.242 7.258-5.18.004-9.758-2.711-12.242-7.258l-7.953-14.54a93.76 93.76 0 0 0-37.344-37.343m45.645 71.636c3.653 1.625 7.672 2.504 11.895 2.504 10.75 0 20.246-5.63 25.402-15.063l7.953-14.539a78.8 78.8 0 0 1 31.38-31.379l14.538-7.953c9.422-5.148 15.047-14.633 15.063-25.367h38.348q-.002.035-.004.07v33.301c-34.825 13.66-56.235 39.137-56.235 67.422s21.41 53.762 56.235 67.422v33.37h-74.73c-3.548-36.874-32.97-66.296-69.845-69.843zm144.575 147.867h-66.004a7.5 7.5 0 0 0-7.5 7.5c0 4.145 3.355 7.5 7.5 7.5h66.004v23.082H118.543c-37.992 0-35.602-37.762-35.602-37.762 9.149 9.067 21.73 14.68 35.602 14.68h10.719c4.144 0 7.5-3.355 7.5-7.5a7.5 7.5 0 0 0-7.5-7.5h-10.719c-35.602 0-35.602-37.762-35.602-37.762 9.149 9.07 21.73 14.684 35.602 14.684h108.973zM82.94 310.129c28.594 3.426 51.325 26.156 54.75 54.75h-19.148c-19.629 0-35.602-15.973-35.602-35.602zm35.602 168.988c-35.852 0-35.602-37.762-35.602-37.762 9.149 9.07 21.73 14.684 35.602 14.684h108.973v23.008q.002.035.004.07zM303.832 497h-43.363c-9.899 0-17.953-8.055-17.953-17.953v-99.168h79.27v99.168c0 9.898-8.056 17.953-17.954 17.953m177.527-167.723c0 19.63-15.972 35.602-35.601 35.602h-19.149c3.426-28.594 26.157-51.324 54.75-54.75zm-35.601 50.602c13.87 0 26.453-5.613 35.601-14.684 0 0-2.882 37.762-35.601 37.762H336.785v-23.078zm0 61.16H336.785v-23.082h108.973c13.87 0 26.453-5.613 35.601-14.68 0 0-2.437 37.762-35.601 37.762m35.601-146.004c-36.875 3.547-66.293 32.969-69.843 69.844h-74.73v-33.371c34.827-13.664 56.237-39.137 56.237-67.422s-21.41-53.758-56.238-67.422v-33.370999999999995h74.73c3.551 36.875 32.97 66.297 69.844 69.844zm0 0"/></svg>