<svg xmlns="http://www.w3.org/2000/svg" xml:space="preserve" viewBox="0 0 511.999 511.999"><path d="m413.859 374.102-84.486-24.849a24.05 24.05 0 0 1-17.263-23.071v-38.119H199.885v38.119a24.05 24.05 0 0 1-17.263 23.071l-84.486 24.849c-20.469 6.02-34.525 24.806-34.525 46.142v84.254h384.773v-84.254c.001-21.336-14.056-40.122-34.525-46.142" style="fill:#e3aa75"/><path d="m413.859 374.102-84.486-24.849c-1.429-.42-2.777-.991-4.07-1.646l-69.31 12.602-69.302-12.602c-1.293.655-2.641 1.226-4.07 1.646l-84.486 24.849c-20.469 6.02-34.525 24.806-34.525 46.142v84.254h384.773v-84.254c.002-21.336-14.055-40.122-34.524-46.142" style="fill:#e6646e"/><path d="M195.691 407.754a40.1 40.1 0 0 0 26.075 9.65c12.249 0 23.66-5.483 31.307-15.043l2.925-3.656 2.926 3.657c7.647 9.56 19.058 15.043 31.307 15.043a40.1 40.1 0 0 0 26.075-9.65l39.719-34.045c4.196-3.597 7.338-8.335 9.088-13.702l.072-.221-35.81-10.532c-1.429-.42-2.777-.991-4.071-1.646l-69.309 12.602-69.301-12.602c-1.294.655-2.642 1.226-4.071 1.646l-35.808 10.532.071.221c1.751 5.369 4.893 10.107 9.087 13.702z" style="fill:#dc4655"/><path d="M199.885 313.968c16.841 8.996 35.939 14.176 56.113 14.176 20.173 0 39.272-5.18 56.113-14.176v-25.905H199.885z" style="fill:#d29b6e"/><path d="M372.232 167.821h-12.024V79.644H151.789v88.177h-12.024c-11.068 0-20.04 8.972-20.04 20.04s8.972 20.04 20.04 20.04h12.429c4.106 53.795 48.958 96.193 103.804 96.193s99.698-42.398 103.804-96.193h12.429c11.068 0 20.04-8.973 20.04-20.04.001-11.068-8.971-20.04-20.039-20.04" style="fill:#f5b97d"/><path d="M151.789 79.644v88.177h-12.024c-11.068 0-20.04 8.972-20.04 20.04s8.972 20.04 20.04 20.04h12.429c4.106 53.795 48.958 96.193 103.804 96.193 5.484 0 10.83-.534 16.083-1.351-49.946-7.708-88.228-50.754-88.228-102.859v-48.095c0-17.709 14.355-32.064 32.064-32.064h96.193c8.854 0 16.032-7.178 16.032-16.032V79.644z" style="fill:#e3aa75"/><path d="m255.998 360.208-64.826-36.015c-3.989-2.216-9.022-.66-11.063 3.422l-10.049 20.098a6.41 6.41 0 0 0 1.562 7.737l39.719 34.045c6.884 5.901 17.288 4.923 22.953-2.157zM255.998 360.208l64.826-36.015c3.99-2.216 9.022-.66 11.063 3.422l10.049 20.098a6.41 6.41 0 0 1-1.562 7.737l-39.719 34.045c-6.884 5.901-17.288 4.923-22.953-2.157z" style="fill:#e6646e"/><path d="M219.926 220.594c0 17.709 16.15 32.064 36.072 32.064s36.072-14.356 36.072-32.064z" style="fill:#fff"/><path d="M345.813 71.628h-179.63c-24.476 0-43.236 13.729-39.648 37.941l9.221 62.213 17.998-2.223c8.033-.992 14.067-7.817 14.067-15.911V95.676h176.354v57.971c0 8.094 6.034 14.919 14.067 15.911l17.998 2.223 9.221-62.213c3.588-24.211-15.172-37.94-39.648-37.94" style="fill:#5a4650"/><path d="M135.756 432.353v72.145h-24.048v-48.097c0-13.281 10.767-24.048 24.048-24.048M376.24 432.353v72.145h24.048v-48.097c0-13.281-10.767-24.048-24.048-24.048" style="fill:#dc4655"/><path d="M135.756 504.498h32.065V353.606l-32.065 9.431zM376.24 504.498h-32.065V353.606l32.065 9.431z" style="fill:#ffe17d"/><path d="M360.207 7.499s-16.032 16.032-56.113 16.032h-72.145c-35.417 0-64.129 28.712-64.129 64.129v8.016h152.306c32.065 0 64.13-32.064 40.081-88.177" style="fill:#64505a"/><path d="M360.207 7.499s-16.032 16.032-56.113 16.032h-72.145c-4.538 0-8.961.486-13.234 1.383-1.997 5.741-3.178 11.862-3.178 18.286l.001.259c.12 11.366 10.187 20.153 21.554 20.153h128.219c5.084-14.351 4.723-33.184-5.104-56.113" style="fill:#6e5a64"/><path d="m415.976 366.906-65.723-19.33-11.657-23.314a15.59 15.59 0 0 0-9.292-7.884c-3.172-.982-6.584-.887-9.692.192v-24.915c25.013-17.396 42.617-44.741 47.019-76.252h4.459c14.617 0 27.154-10.861 28.542-24.727.778-7.771-1.764-15.531-6.975-21.288a27.5 27.5 0 0 0-8.054-6.123l8.845-53.068c2.946-17.676-6.14-34.599-21.685-42.104 7.007-17.812 5.468-39.914-4.661-63.548a7.5 7.5 0 0 0-5.475-4.41 7.5 7.5 0 0 0-6.722 2.062c-.139.138-14.841 13.835-50.81 13.835H231.95c-31.254 0-57.879 20.128-67.638 48.097h-6.736a39.5 39.5 0 0 0-30.188 13.991 39.5 39.5 0 0 0-8.838 32.078l8.899 53.396c-8.213 4.229-14.152 12.164-15.083 21.454-.778 7.771 1.764 15.531 6.974 21.289a27.6 27.6 0 0 0 20.425 9.066h5.598c4.399 31.521 22.003 58.869 47.023 76.263v24.904c-3.109-1.079-6.522-1.173-9.692-.192a15.59 15.59 0 0 0-9.292 7.884l-11.657 23.315-65.723 19.33c-23.498 6.911-39.909 28.844-39.909 53.338v84.254a7.5 7.5 0 0 0 15 0v-84.254c0-17.885 11.983-33.901 29.142-38.947l28.003-8.236v131.437a7.5 7.5 0 0 0 15 0v-135.85l17.064-5.019v140.868a7.5 7.5 0 0 0 15 0v-136l31.14 26.691c4.312 3.696 9.66 5.668 15.261 5.668q1.123 0 2.256-.106c6.409-.603 12.152-3.702 16.173-8.729l15.846-19.809 15.848 19.809c4.021 5.026 9.765 8.126 16.173 8.729q1.132.106 2.256.106c5.6 0 10.95-1.973 15.261-5.668l39.201-33.601 24.002 7.059v135.852a7.5 7.5 0 0 0 15 0V373.06l28.005 8.237c17.158 5.046 29.142 21.062 29.142 38.947v84.254a7.5 7.5 0 0 0 15 0v-84.254c-.001-24.493-16.412-46.427-39.91-53.338m-37.325-259.175-8.765 52.591h-9.679c-4.705 0-8.532-3.828-8.532-8.532V93.447a54.6 54.6 0 0 0 12.764-12.205c10.106 4.462 16.089 15.227 14.212 26.489M138.832 87.815a24.52 24.52 0 0 1 18.743-8.687h3.271a72 72 0 0 0-.526 8.532v64.129c0 4.705-3.828 8.532-8.532 8.532h-9.679l-8.765-52.59a24.52 24.52 0 0 1 5.488-19.916m20.457 112.071a7.5 7.5 0 0 0-15 0v.516h-4.524a12.57 12.57 0 0 1-9.303-4.131c-2.407-2.66-3.533-6.115-3.171-9.729.63-6.292 6.611-11.22 13.617-11.22h10.88c12.976 0 23.532-10.557 23.532-23.532V87.66c0-31.225 25.404-56.629 56.629-56.629h72.145c26.315 0 43.24-6.642 52.528-11.913 6.738 20.171 5.829 38.083-2.754 51.099-7.415 11.245-20.028 17.959-33.741 17.959H199.889a7.5 7.5 0 0 0 0 15h120.238c5.707 0 11.272-.865 16.548-2.488v51.101c0 12.976 10.557 23.532 23.532 23.532h12.024c3.537 0 6.928 1.505 9.303 4.13 2.407 2.659 3.533 6.115 3.171 9.73-.629 6.292-6.61 11.22-13.616 11.22h-3.385v-.439a7.5 7.5 0 0 0-7.497-7.5h-.003a7.5 7.5 0 0 0-7.5 7.494c-.039 53.286-43.421 96.638-96.706 96.638-53.326.001-96.709-43.382-96.709-96.708m96.709 111.709c17.412 0 33.906-4.012 48.613-11.153v24.179l-48.613 27.007-48.613-27.007v-24.172c14.706 7.137 31.199 11.146 48.613 11.146m-27.56 71.058a8.47 8.47 0 0 1-5.864 3.165 8.46 8.46 0 0 1-6.351-2.016l-39.074-33.493 9.669-19.338a.5.5 0 0 1 .31-.262c.213-.066.356.016.403.042l57.067 31.704zm67.336 1.148a8.45 8.45 0 0 1-6.351 2.016 8.46 8.46 0 0 1-5.864-3.165L267.4 362.453l57.067-31.704c.047-.026.194-.108.403-.042.211.065.285.214.31.262l9.669 19.338z"/><path d="M344.173 384.772a7.5 7.5 0 0 0-7.5 7.5v112.227a7.5 7.5 0 0 0 15 0V392.272a7.5 7.5 0 0 0-7.5-7.5M256.078 400.805h-.08c-4.142 0-7.46 3.358-7.46 7.5s3.398 7.5 7.54 7.5a7.5 7.5 0 0 0 0-15M256.078 496.998h-.08c-4.142 0-7.46 3.358-7.46 7.5s3.398 7.5 7.54 7.5a7.5 7.5 0 0 0 0-15M256.078 448.901h-.08c-4.142 0-7.46 3.358-7.46 7.5s3.398 7.5 7.54 7.5a7.5 7.5 0 0 0 0-15M215.401 184.55v-8.016a7.5 7.5 0 0 0-15 0v8.016a7.5 7.5 0 0 0 15 0M304.095 169.034a7.5 7.5 0 0 0-7.5 7.5v8.016a7.5 7.5 0 0 0 15 0v-8.016a7.5 7.5 0 0 0-7.5-7.5M223.417 151.789a7.5 7.5 0 0 0-7.5-7.5h-16.032a7.5 7.5 0 0 0 0 15h16.032a7.5 7.5 0 0 0 7.5-7.5M296.079 159.289h16.032a7.5 7.5 0 0 0 0-15h-16.032a7.5 7.5 0 0 0 0 15M299.57 220.594a7.5 7.5 0 0 0-7.5-7.5h-72.145a7.5 7.5 0 0 0-7.5 7.5c0 21.816 19.546 39.564 43.572 39.564s43.573-17.748 43.573-39.564m-70.783 7.5h54.422c-3.696 9.889-14.497 17.064-27.211 17.064s-23.515-7.175-27.211-17.064"/></svg>