<svg xmlns="http://www.w3.org/2000/svg" xml:space="preserve" viewBox="0 0 512 512"><path d="M256.001 7.5c-75.262 0-136.274 61.012-136.274 136.274v48.097h272.548v-48.097C392.275 68.512 331.263 7.5 256.001 7.5M167.824 321.572c0-7.987-2.73-15.272-7.25-20.985-2.712-3.427-2.712-8.34 0-11.766 4.52-5.712 7.25-12.997 7.25-20.984 0-1.031-15.944-42.894-16.032-43.902l-12.024-5.638c-11.741 4.951-20.04 16.887-20.04 30.876 0 7.987 2.73 15.271 7.25 20.984 2.712 3.427 2.712 8.34 0 11.766-4.52 5.713-7.25 12.998-7.25 20.985 0 8.267 2.916 15.792 7.723 21.592 3.145 3.797 3.145 9.13 0 12.927-4.807 5.8-7.723 13.326-7.723 21.594 0 11.201 5.321 21.086 13.471 27.123l34.095-14.505a33.55 33.55 0 0 0-7.192-15.547c-3.145-3.797-3.145-9.13 0-12.927 4.806-5.801 7.722-13.326 7.722-21.593M344.178 321.572c0-7.987 2.73-15.272 7.25-20.985 2.711-3.427 2.711-8.34 0-11.766-4.52-5.712-7.25-12.997-7.25-20.984 0-1.031 15.944-42.894 16.032-43.902l12.024-5.638c11.741 4.951 20.04 16.887 20.04 30.876 0 7.987-2.73 15.271-7.25 20.984-2.712 3.427-2.712 8.34 0 11.766 4.52 5.713 7.25 12.998 7.25 20.985 0 8.267-2.916 15.792-7.723 21.592-3.145 3.797-3.145 9.13 0 12.927 4.807 5.8 7.723 13.326 7.723 21.594 0 11.201-5.321 21.086-13.471 27.123l-34.095-14.505a33.55 33.55 0 0 1 7.192-15.547c3.145-3.797 3.145-9.13 0-12.927-4.806-5.801-7.722-13.326-7.722-21.593" style="fill:#ff8250"/><path d="m408.283 396.981-82.792-29.221a32.065 32.065 0 0 1-21.393-30.237v-65.491h-96.194v65.491a32.06 32.06 0 0 1-21.393 30.236l-82.793 29.221c-19.229 6.787-32.089 24.962-32.089 45.354V504.5h368.742v-62.165c.001-20.392-12.858-38.567-32.088-45.354" style="fill:#f7d291"/><path d="m408.283 396.981-64.408-22.732c-3.108 45.877-41.208 82.155-87.874 82.155s-84.765-36.278-87.874-82.155l-64.408 22.732c-19.23 6.787-32.089 24.962-32.089 45.354V504.5h368.742v-62.165c0-20.392-12.86-38.567-32.089-45.354" style="fill:#e3aa75"/><path d="M207.904 326.241c14.753 6.391 31.02 9.92 48.097 9.92s33.344-3.529 48.097-9.92v-38.177h-96.194z" style="fill:#f0c382"/><path d="M372.235 175.839h-8.016s-10.734-1.293-14.018-2.202c-18.212-5.043-57.641-20.789-87.51-66.825-3.147-4.851-10.232-4.851-13.378 0-29.869 46.036-69.298 61.782-87.51 66.825-3.284.909-14.018 2.202-14.018 2.202h-8.016c-11.068 0-20.04 8.972-20.04 20.04s8.972 20.04 20.04 20.04h12.429c4.106 53.795 48.958 96.194 103.805 96.194s99.699-42.398 103.805-96.194h12.429c11.068 0 20.04-8.973 20.04-20.04-.002-11.068-8.974-20.04-20.042-20.04" style="fill:#ffe1a0"/><path d="m304.09 328.145.008.003v-.261zM207.904 327.887v.261l.008-.003z" style="fill:#ffd164"/><path d="M219.928 228.612c0 17.709 16.15 32.065 36.073 32.065s36.073-14.356 36.073-32.065z" style="fill:#fff"/><path d="m390.279 390.627-46.404-16.378c-3.109 45.877-41.208 82.155-87.874 82.155s-84.765-36.278-87.874-82.155l-46.404 16.378C132.428 455.206 188.386 504.5 256.001 504.5s123.573-49.294 134.278-113.873" style="fill:#d29b6e"/><path d="M256.001 480.452c57.137 0 104.199-42.733 111.221-97.963l-39.099-13.8c-.252 39.629-32.433 71.682-72.122 71.682s-71.87-32.053-72.122-71.682l-39.099 13.8c7.022 55.23 54.084 97.963 111.221 97.963" style="fill:#edebed"/><path d="M255.999 141.807c15.758 17.039 40.157 38.628 70.363 50.065 12.463 4.719 25.833-4.456 25.833-17.783v-.013c-.784-.151-1.493-.299-1.994-.438-18.208-5.042-57.621-20.781-87.487-66.789-3.154-4.859-10.261-4.876-13.414-.017-21.107 32.522-46.924 49.863-66.7 59.042-1.335.619-12.13 4.989-13.379 5.419-2.712.936-5.255 1.746-7.418 2.345-3.284.909-14.018 2.202-14.018 2.202h-6.873c-10.483 0-20.035 7.542-21.08 17.973-1.201 11.996 8.187 22.108 19.937 22.108h12.429c4.106 53.795 48.958 96.194 103.805 96.194 5.466 0 10.793-.547 16.032-1.359-45.768-7.087-81.73-43.847-87.399-90.052-.163-1.33-.324-3.266-.47-5.575-.8-12.585 5.877-24.543 17.067-30.357 23.031-11.969 41.826-28.975 54.766-42.965" style="fill:#f7d291"/><path d="M281.19 9.922c-5.823 12.701-9.157 26.78-9.157 41.667 0 55.34 44.862 100.202 100.202 100.202 6.863 0 13.564-.698 20.04-2.012v-6.004c0-66.646-47.872-122.025-111.085-133.853" style="fill:#ff9664"/><path d="M215.404 192.568v-8.016c0-4.142-3.357-7.5-7.5-7.5s-7.5 3.358-7.5 7.5v8.016c0 4.142 3.357 7.5 7.5 7.5s7.5-3.358 7.5-7.5M304.098 177.052a7.5 7.5 0 0 0-7.5 7.5v8.016c0 4.142 3.357 7.5 7.5 7.5s7.5-3.358 7.5-7.5v-8.016a7.5 7.5 0 0 0-7.5-7.5"/><path d="m410.779 389.909-18.79-6.632a41.7 41.7 0 0 0 7.786-24.256c0-9.657-3.355-19.025-9.447-26.378-.845-1.02-.845-2.338 0-3.357 6.092-7.353 9.447-16.72 9.447-26.377 0-9.307-3.149-18.412-8.869-25.639a2.025 2.025 0 0 1 0-2.458c5.72-7.227 8.869-16.332 8.869-25.638 0-11.691-4.782-22.474-12.804-30.051 7.602-4.839 12.681-13.297 12.789-22.932.004-.104.016-.206.016-.311v-52.105C399.775 64.497 335.278 0 256.001 0S112.227 64.497 112.227 143.774v51.797c-.001.103-.008.205-.008.308 0 9.768 5.116 18.359 12.805 23.25-8.018 7.577-12.798 18.356-12.798 30.044 0 9.306 3.149 18.411 8.868 25.637.555.701.555 1.758.001 2.458-5.72 7.227-8.869 16.333-8.869 25.639 0 9.657 3.355 19.025 9.447 26.377.845 1.02.845 2.338 0 3.357-6.092 7.354-9.447 16.722-9.447 26.379a41.7 41.7 0 0 0 7.786 24.256l-18.79 6.632c-22.187 7.83-37.093 28.899-37.093 52.427V504.5c0 4.142 3.357 7.5 7.5 7.5s7.5-3.358 7.5-7.5v-62.165c0-17.18 10.885-32.564 27.085-38.282l32.546-11.487c5.292 25.567 18.912 48.856 38.809 66.121A119.67 119.67 0 0 0 256 487.951c28.994 0 56.97-10.499 78.773-29.563 19.727-17.248 33.207-40.405 38.468-65.822l32.545 11.486c16.2 5.718 27.085 21.102 27.085 38.282V504.5c0 4.142 3.357 7.5 7.5 7.5s7.5-3.358 7.5-7.5v-62.165c.001-23.527-14.905-44.596-37.092-52.426m-57.821-20.408a26.1 26.1 0 0 1 4.718-8.625c5.486-6.623 5.486-15.874 0-22.497-3.867-4.667-5.997-10.636-5.997-16.807 0-6.028 1.947-11.675 5.632-16.331 4.831-6.106 4.831-14.97-.001-21.074-3.684-4.655-5.631-10.302-5.631-16.33 0-.803.035-1.613.104-2.406.003-.04.001-.08.004-.12a110.9 110.9 0 0 0 14.833-41.892h.141a7.5 7.5 0 0 0 2.559 1.789c9.389 3.959 15.455 13.366 15.455 23.965 0 6.028-1.947 11.674-5.632 16.33-4.831 6.106-4.831 14.969.001 21.075 3.684 4.655 5.631 10.302 5.631 16.331 0 6.17-2.13 12.139-5.998 16.808-5.486 6.623-5.486 15.874 0 22.497 3.868 4.668 5.998 10.638 5.998 16.809 0 7.216-2.906 14.068-7.894 18.924zm-24.972-8.813c-9.803-3.46-16.389-12.769-16.389-23.165v-32.758a112.5 112.5 0 0 0 27.678-22.497 41 41 0 0 0 6.271 11.208c.555.701.555 1.757.001 2.458-5.72 7.227-8.869 16.333-8.869 25.639 0 9.658 3.354 19.025 9.446 26.377.845 1.02.845 2.338 0 3.357-3.236 3.905-5.701 8.398-7.304 13.205zM256.001 15c71.007 0 128.774 57.768 128.774 128.774v27.602a27.36 27.36 0 0 0-12.549-3.037c.002 0-3.437 0-3.902-.002l-.105-.001c-7.251 0-14.683-1.029-22.089-3.059a7.5 7.5 0 0 0-3.965 14.467c8.697 2.384 17.463 3.592 26.054 3.592v-.028c.944.031 2.211.031 4.008.031 6.915 0 12.541 5.625 12.541 12.54s-5.626 12.541-12.541 12.541h-4.53c.001-.172.007-.344.007-.516 0-4.142-3.357-7.5-7.5-7.5s-7.5 3.358-7.5 7.5c0 53.326-43.384 96.709-96.71 96.709s-96.71-43.384-96.71-96.709c0-4.142-3.357-7.5-7.5-7.5s-7.5 3.358-7.5 7.5c0 .173.006.344.007.516h-4.531c-6.889 0-12.494-5.584-12.536-12.463q.002-.038.004-.077v-.154c.084-6.843 5.669-12.386 12.532-12.386 1.797 0 3.064 0 4.009-.031v.028c53.637 0 96.062-46.498 111.813-66.49.051-.064.169-.215.413-.215s.362.151.413.215c9.598 12.181 29.663 34.914 56.227 50.302a7.5 7.5 0 0 0 10.249-2.73 7.5 7.5 0 0 0-2.729-10.249c-24.4-14.135-43.03-35.267-51.963-46.605-2.971-3.77-7.416-5.933-12.196-5.933s-9.226 2.163-12.196 5.932c-43.214 54.851-84.35 60.772-100.029 60.772l-.104.001c-.46.002-3.906.002-3.905.002-4.512 0-8.77 1.098-12.532 3.029v-27.594C127.227 72.768 184.994 15 256.001 15m-71.985 345.688-10.834 3.824c-1.603-4.807-4.068-9.3-7.304-13.205-.845-1.02-.845-2.338 0-3.357 6.092-7.352 9.446-16.72 9.446-26.377 0-9.307-3.149-18.412-8.868-25.639a2.02 2.02 0 0 1 .001-2.459 41 41 0 0 0 6.266-11.194 112.5 112.5 0 0 0 27.682 22.494v32.749c-.001 10.395-6.587 19.704-16.389 23.164m-56.789-1.667c0-6.171 2.13-12.141 5.998-16.809 5.486-6.623 5.486-15.874 0-22.497-3.868-4.668-5.998-10.637-5.998-16.807 0-6.028 1.947-11.675 5.631-16.331 4.832-6.105 4.832-14.969 0-21.075-3.684-4.655-5.631-10.301-5.631-16.329 0-10.599 6.066-20.006 15.455-23.965a7.5 7.5 0 0 0 2.559-1.789h.125a110.9 110.9 0 0 0 14.849 41.92q.002.046.003.091c.069.793.104 1.603.104 2.406 0 6.027-1.947 11.674-5.63 16.329-4.833 6.105-4.833 14.969-.001 21.076 3.684 4.655 5.631 10.302 5.631 16.331 0 6.171-2.13 12.14-5.997 16.808-5.486 6.623-5.486 15.874 0 22.497a26.1 26.1 0 0 1 4.718 8.625l-23.924 8.443c-4.987-4.856-7.892-11.708-7.892-18.924M324.9 447.097a104.64 104.64 0 0 1-68.899 25.854 104.67 104.67 0 0 1-68.6-25.593c-17.929-15.558-30.02-36.699-34.335-59.841l24.021-8.478c2.39 17.65 10.596 33.925 23.575 46.466 14.926 14.422 34.578 22.365 55.339 22.365 13.579 0 26.989-3.48 38.779-10.063a7.5 7.5 0 0 0-7.312-13.097c-9.561 5.338-20.441 8.16-31.467 8.16-33.884 0-61.584-25.693-64.407-59.06 14.349-6.231 23.811-20.477 23.811-36.287v-25.545c12.587 4.926 26.277 7.635 40.589 7.635 14.317 0 28.013-2.711 40.604-7.641v25.551c0 15.807 9.457 30.05 23.801 36.283a64.2 64.2 0 0 1-12.174 32.529 7.5 7.5 0 0 0 12.11 8.853 79.1 79.1 0 0 0 14.575-36.15l24.039 8.484c-4.293 23.01-16.271 44.031-34.049 59.575"/><path d="M292.073 221.111h-72.145a7.5 7.5 0 0 0-7.5 7.5c0 21.816 19.547 39.565 43.572 39.565s43.572-17.749 43.572-39.565a7.5 7.5 0 0 0-7.499-7.5m-36.072 32.065c-12.714 0-23.516-7.176-27.211-17.065h54.422c-3.695 9.889-14.497 17.065-27.211 17.065"/></svg>