<svg xmlns="http://www.w3.org/2000/svg" xml:space="preserve" viewBox="0 0 512 512"><path d="M406.19 274.927c-13.917-23.45-13.917-53.163-13.917-66.523H119.725c0 13.36 0 43.073-13.917 66.523-4.097 6.903-.873 15.769 6.912 17.725 27.776 6.979 85.528 19.461 143.279 19.461s115.503-12.482 143.279-19.461c7.785-1.956 11.009-10.823 6.912-17.725" style="fill:#a06e50"/><path d="m405.098 370.149-64.813-25.926a32.065 32.065 0 0 1-20.156-29.771v-10.356H191.87v10.356a32.065 32.065 0 0 1-20.156 29.771l-64.813 25.926c-21.304 8.522-35.273 29.155-35.273 52.099V504.5H440.37v-82.252c0-22.945-13.969-43.578-35.272-52.099" style="fill:#f7d291"/><path d="m405.097 370.149-44.438-17.776c-16.197 42.064-56.888 71.966-104.66 71.966s-88.463-29.901-104.66-71.966l-44.438 17.776c-21.304 8.522-35.273 29.155-35.273 52.1V504.5H440.37v-82.251c0-22.945-13.969-43.579-35.273-52.1" style="fill:#ff8087"/><path d="M106.711 370.242c23.296 59.771 81.275 102.193 149.288 102.193s125.993-42.423 149.289-102.193c-.067-.027-.124-.067-.191-.093l-44.438-17.776c-16.197 42.064-56.888 71.966-104.66 71.966s-88.463-29.901-104.66-71.966l-44.438 17.776c-.066.026-.124.066-.19.093" style="fill:#e6646e"/><path d="M191.87 304.097v10.356c0 4.253-.916 16.348-2.467 20.133 19.767 11.169 42.487 17.608 66.596 17.608s46.829-6.439 66.596-17.608c-1.551-3.784-2.467-15.88-2.467-20.133v-10.356z" style="fill:#f0c382"/><path d="M388.266 175.839h-12.024v-40.081H135.758v40.081h-12.024c-11.068 0-20.04 8.972-20.04 20.04s8.972 20.04 20.04 20.04h12.429c4.143 62.652 56.134 112.226 119.837 112.226s115.694-49.573 119.837-112.226h12.429c11.068 0 20.04-8.973 20.04-20.04 0-11.068-8.972-20.04-20.04-20.04" style="fill:#ffe1a0"/><path d="M135.758 135.758v40.081h-12.024c-11.068 0-20.04 8.972-20.04 20.04s8.972 20.04 20.04 20.04h12.429c4.143 62.652 56.134 112.226 119.837 112.226 6.869 0 13.566-.684 20.119-1.791-56.886-9.527-100.28-58.859-100.28-118.451v-8.016c0-22.136 17.944-40.081 40.081-40.081h96.194c8.854 0 16.032-7.178 16.032-16.032v-8.016z" style="fill:#f7d291"/><path d="M272.032 440.371h-32.065l-8.016 64.129h48.097z" style="fill:#ffd164"/><path d="M215.919 236.405c0 19.676 17.945 35.627 40.08 35.627s40.081-15.951 40.08-35.627z" style="fill:#fff"/><path d="M255.999 448.387c57.896 0 107.232-36.165 126.977-87.087l-37.195-14.879c-13.83 36.16-48.759 61.885-89.781 61.885s-75.951-25.725-89.781-61.885L129.023 361.3c19.744 50.922 69.081 87.087 126.976 87.087" style="fill:#ffe17d"/><path d="M256 7.5c-75.262 0-136.274 61.012-136.274 136.274v35.947l17.92-2.17a24.05 24.05 0 0 0 19.438-14.943l10.739-26.85h176.355l10.74 26.851a24.05 24.05 0 0 0 19.437 14.943l17.919 2.17v-35.947C392.274 68.512 331.262 7.5 256 7.5" style="fill:#b67f5f"/><path d="M288.064 11.452c-10.3-2.489-21-3.952-32.065-3.952-75.262 0-136.274 61.012-136.274 136.274v35.948l17.92-2.17a24.05 24.05 0 0 0 19.438-14.944l10.739-26.85h16.437c3.535-60.604 46.563-110.475 103.805-124.306" style="fill:#a06e50"/><path d="M207.771 200.075a7.5 7.5 0 0 0 7.5-7.5v-8.016a7.5 7.5 0 0 0-15 0v8.016a7.5 7.5 0 0 0 7.5 7.5M303.969 200.075a7.5 7.5 0 0 0 7.5-7.5v-8.016a7.5 7.5 0 0 0-15 0v8.016a7.5 7.5 0 0 0 7.5 7.5"/><path d="m407.889 363.18-64.815-25.926c-9.381-3.752-15.442-12.706-15.442-22.809v-.832c.98-.666 1.949-1.349 2.909-2.041 32.998-.354 62.102-7.913 76.706-12.465 4.8-1.496 8.449-5.08 10.012-9.832 1.586-4.822.713-10.181-2.336-14.334-13.437-18.308-14.95-40.032-15.12-54.072 9.442-4.372 16.01-13.931 16.01-25.001 0-11.129-6.64-20.731-16.163-25.071V143.78C399.649 64.5 335.15 0 255.87 0S112.09 64.5 112.09 143.78v27.133c-9.384 4.395-15.903 13.925-15.903 24.953 0 11.07 6.569 20.629 16.01 25.001-.171 14.041-1.683 35.765-15.12 54.072-3.049 4.154-3.922 9.513-2.336 14.334 1.563 4.752 5.212 8.336 10.012 9.832 14.603 4.552 43.708 12.111 76.706 12.465q1.44 1.04 2.909 2.041v.832c0 10.104-6.062 19.057-15.442 22.809l-64.816 25.926c-24.292 9.717-39.989 32.901-39.989 59.065V504.5a7.5 7.5 0 0 0 15 0v-82.255c0-19.995 11.996-37.712 30.56-45.139l15.14-6.056c10.833 24.103 28.025 44.674 49.969 59.719a142.7 142.7 0 0 0 56.827 23.032l-7.091 49.637a7.5 7.5 0 0 0 14.85 2.121l7.143-50.003c3.146.205 6.306.327 9.481.327 3.176 0 6.335-.123 9.481-.327l7.143 50.003a7.5 7.5 0 0 0 8.486 6.364 7.5 7.5 0 0 0 6.364-8.485l-7.091-49.637a142.7 142.7 0 0 0 57.269-23.337c21.751-15.032 38.761-35.489 49.514-59.42l15.152 6.061c18.564 7.426 30.56 25.144 30.56 45.139V504.5a7.5 7.5 0 0 0 15 0v-82.255c0-26.164-15.697-49.349-39.989-59.065m-4.88-78.592c-.037.111-.069.148-.227.198-11.008 3.431-30.719 8.671-54.003 10.825 18.31-19.356 30.644-44.417 34.023-72.204h2.036c.335 15.876 2.602 39.441 17.991 60.408.271.369.216.664.18.773M123.728 183.325h11.775c12.975 0 24.473-7.785 29.292-19.833l8.1-20.25H296.08a7.5 7.5 0 0 0 0-15H151.786a7.5 7.5 0 0 0 0 15h4.955l-5.872 14.679a16.47 16.47 0 0 1-15.366 10.403h-8.414V143.78C127.089 72.771 184.86 15 255.869 15c71.01 0 128.78 57.771 128.78 128.78v24.545h-8.154c-6.806 0-12.837-4.083-15.366-10.403l-5.872-14.679h4.955a7.5 7.5 0 0 0 0-15h-32.067a7.5 7.5 0 0 0 0 15h10.957l8.1 20.25c4.819 12.047 16.317 19.832 29.292 19.832h11.775c6.916 0 12.542 5.626 12.542 12.541s-5.626 12.541-12.542 12.541h-4.531c.001-.172.007-.344.007-.516a7.5 7.5 0 0 0-15 0c0 62.168-50.578 112.747-112.747 112.747S143.252 270.06 143.252 207.891a7.5 7.5 0 0 0-15 0c0 .173.006.344.007.516h-4.531c-6.916 0-12.542-5.626-12.542-12.541s5.626-12.541 12.542-12.541M108.99 284.588c-.036-.11-.091-.405.18-.773 15.389-20.967 17.656-44.532 17.991-60.408h2.036c3.38 27.787 15.713 52.848 34.023 72.204-23.285-2.154-42.995-7.394-54.003-10.825-.158-.049-.191-.086-.227-.198m220.134 133.537c-21.544 14.889-46.83 22.759-73.124 22.759-26.123 0-51.271-7.776-72.728-22.487-19.489-13.361-34.784-31.586-44.502-52.927l23.335-9.334c7.786 16.606 19.785 30.815 35.009 41.334 17.354 11.992 37.717 18.331 58.885 18.331 15.075 0 29.614-3.165 43.214-9.407a7.5 7.5 0 1 0-6.257-13.633c-11.624 5.335-24.058 8.04-36.957 8.04-34.498 0-65.245-19.542-79.965-50.276 11.893-5.336 20.205-15.981 22.613-28.509 17.256 8.707 36.74 13.621 57.352 13.621s40.096-4.913 57.352-13.621c2.408 12.524 10.717 23.167 22.606 28.505-4.572 9.471-10.878 18.204-18.469 25.508a7.499 7.499 0 0 0 5.201 12.904 7.47 7.47 0 0 0 5.199-2.096c9.106-8.761 16.632-19.285 22.008-30.701l23.324 9.33c-9.645 21.189-24.78 39.31-44.096 52.659"/><path d="M208.417 236.394c0 23.781 21.345 43.128 47.583 43.128s47.583-19.347 47.583-43.128a7.5 7.5 0 0 0-7.5-7.5h-80.165a7.5 7.5 0 0 0-7.501 7.5m78.989 7.5c-3.812 11.88-16.449 20.628-31.407 20.628s-27.595-8.748-31.407-20.628z"/></svg>