<svg xmlns="http://www.w3.org/2000/svg" xml:space="preserve" viewBox="0 0 512 512"><path d="m413.861 390.135-101.748-29.926H199.887L98.139 390.135c-20.469 6.02-34.525 24.806-34.525 46.142v68.222h384.773v-68.222c0-21.336-14.057-40.122-34.526-46.142" style="fill:#edebed"/><path d="M256 432.354c44.478 0 83.711-22.777 106.726-57.259l-50.613-14.886H199.887l-50.613 14.886c23.015 34.482 62.248 57.259 106.726 57.259" style="fill:#dbd9dc"/><path d="M127.742 381.428v123.071h56.113V364.924zM384.258 381.428v123.071h-56.113V364.924z" style="fill:#ff8250"/><path d="M328.145 409.998v-45.074l34.581 10.171c-9.172 13.742-20.952 25.58-34.581 34.903" style="fill:#dc7346"/><path d="M151.79 111.71h208.42v48.1H151.79z" style="fill:#edebed"/><path d="M372.234 199.887H360.21v-40.081H151.791v40.081h-12.024c-11.068 0-20.04 8.972-20.04 20.04s8.972 20.04 20.04 20.04h12.024v24.048H360.21v-24.048h12.024c11.068 0 20.04-8.973 20.04-20.04 0-11.068-8.972-20.04-20.04-20.04" style="fill:#cd916e"/><path d="M360.209 159.806H151.791v40.081h-10.777c-10.483 0-20.035 7.542-21.08 17.973-1.201 11.996 8.186 22.108 19.936 22.108h11.92v24.048h32.064v-32.064c0-26.563 21.534-48.097 48.097-48.097h128.258z" style="fill:#b67f5f"/><path d="M360.085 199.887c-17.379-8.512-106.73-59.041-184.246-172.174C198.746 14.959 226.259 7.5 255.875 7.5c79.689 0 144.29 53.834 144.29 120.242 0 27.075-10.739 53.39-28.86 73.489 0 0-6.599.919-11.22-1.344" style="fill:#ff9664"/><path d="M151.791 199.887c17.379-8.512 106.73-59.041 184.246-172.174C313.129 14.959 285.617 7.5 256 7.5c-79.689 0-144.29 53.834-144.29 120.242 0 27.075 10.739 53.39 28.86 73.489 0 0 6.6.919 11.221-1.344" style="fill:#ff8250"/><path d="M127.742 432.354v72.145h-24.048v-48.097c0-13.281 10.767-24.048 24.048-24.048M384.258 432.354v72.145h24.048v-48.097c0-13.281-10.767-24.048-24.048-24.048" style="fill:#dbd9dc"/><path d="M183.855 409.998v-45.074l-34.581 10.171c9.172 13.742 20.952 25.58 34.581 34.903" style="fill:#dc7346"/><path d="M256 408.305c-57.553 0-104.21-46.656-104.21-104.209v-56.113h208.419v56.113c0 57.553-46.656 104.209-104.209 104.209" style="fill:#64505a"/><path d="M183.855 304.096v-56.113h-32.064v56.113c0 57.553 46.656 104.209 104.209 104.209 5.467 0 10.793-.547 16.032-1.359-49.921-7.729-88.177-50.763-88.177-102.85" style="fill:#5a4650"/><path d="M207.903 200.403a7.5 7.5 0 0 0-7.5 7.5v8.016a7.5 7.5 0 0 0 15 0v-8.016a7.5 7.5 0 0 0-7.5-7.5M304.097 200.403a7.5 7.5 0 0 0-7.5 7.5v8.016c0 4.142 3.357 7.5 7.5 7.5s7.5-3.358 7.5-7.5v-8.016a7.5 7.5 0 0 0-7.5-7.5M274.78 274.709c-2.737 2.701-9.299 5.855-18.78 5.855s-16.043-3.154-18.781-5.855a7.5 7.5 0 0 0-10.535 10.677c6.459 6.373 17.418 10.177 29.316 10.177s22.856-3.805 29.315-10.177a7.5 7.5 0 0 0-10.535-10.677"/><path d="m415.978 382.939-65.521-19.271c10.92-17.254 17.252-37.687 17.252-59.573v-56.629h4.629a27.6 27.6 0 0 0 20.426-9.067c5.21-5.758 7.751-13.518 6.973-21.288-.931-9.3-6.882-17.242-15.108-21.468 15.189-20.295 23.162-43.551 23.162-67.902C407.79 57.305 339.697 0 256 0S104.21 57.305 104.21 127.742c0 24.368 7.983 47.637 23.191 67.941-8.187 4.236-14.104 12.158-15.033 21.429-.779 7.771 1.763 15.53 6.973 21.289a27.6 27.6 0 0 0 20.426 9.067h4.524v56.629c0 21.886 6.332 42.319 17.252 59.573l-65.52 19.271c-23.498 6.912-39.909 28.845-39.909 53.337V504.5a7.5 7.5 0 0 0 15 0v-68.222c0-17.885 11.983-33.9 29.142-38.947l19.987-5.877v113.045a7.5 7.5 0 0 0 15 0V387.043l35.781-10.521a113 113 0 0 0 5.331 5.819v25.964a7.5 7.5 0 0 0 15 0v-13.152c18.258 13 40.575 20.652 64.645 20.652s46.387-7.653 64.645-20.652V504.5c0 4.142 3.357 7.5 7.5 7.5s7.5-3.358 7.5-7.5V382.342a112 112 0 0 0 5.3-5.782l35.813 10.506V504.5c0 4.142 3.357 7.5 7.5 7.5s7.5-3.358 7.5-7.5V391.466l19.987 5.864c17.158 5.047 29.142 21.062 29.142 38.947v68.222c0 4.142 3.357 7.5 7.5 7.5s7.5-3.358 7.5-7.5v-68.222c0-24.493-16.411-46.426-39.909-53.338M392.79 127.742c0 23.092-8.368 45.135-24.222 64.004-12.233-5.787-53.71-27.11-101.516-70.358a532 532 0 0 0 70.834-83.9c33.312 20.582 54.904 53.378 54.904 90.254m-136.725 3.922a526 526 0 0 0 24.124 20.643h-48.265a524 524 0 0 0 24.141-20.643M256 15c25.006 0 48.463 5.563 68.655 15.261-73.02 106.588-163.129 152.985-181.193 161.52-15.873-18.877-24.251-40.931-24.251-64.039C119.21 65.576 180.574 15 256 15m-96.709 289.096v-48.613h152.822c4.143 0 7.5-3.358 7.5-7.5s-3.357-7.5-7.5-7.5H159.291v-8.532a7.5 7.5 0 0 0-15 0v.516h-4.524a12.57 12.57 0 0 1-9.303-4.131c-2.407-2.66-3.533-6.115-3.171-9.729.63-6.292 6.612-11.221 13.618-11.22 3.067 0 6.016-.657 8.767-1.952 8.293-3.907 32.083-15.913 62.639-38.128h87.479c30.334 22.065 53.994 34.059 62.632 38.129a20.4 20.4 0 0 0 8.766 1.951c7.006 0 12.987 4.928 13.617 11.221.362 3.614-.764 7.069-3.17 9.729a12.57 12.57 0 0 1-9.303 4.131h-4.629v-.516c0-4.142-3.357-7.5-7.5-7.5s-7.5 3.358-7.5 7.5v8.532h-8.529c-4.143 0-7.5 3.358-7.5 7.5s3.357 7.5 7.5 7.5h8.529v48.613c0 53.326-43.384 96.709-96.709 96.709s-96.709-43.384-96.709-96.71"/><path d="M183.855 432.87a7.5 7.5 0 0 0-7.5 7.5v64.128a7.5 7.5 0 0 0 15 0V440.37a7.5 7.5 0 0 0-7.5-7.5M256.08 440.886H256c-4.142 0-7.46 3.358-7.46 7.5s3.398 7.5 7.54 7.5c4.143 0 7.5-3.358 7.5-7.5s-3.357-7.5-7.5-7.5M256.08 488.982H256c-4.142 0-7.46 3.358-7.46 7.5s3.398 7.5 7.54 7.5c4.143 0 7.5-3.358 7.5-7.5s-3.357-7.5-7.5-7.5"/></svg>