<svg xmlns="http://www.w3.org/2000/svg" xml:space="preserve" viewBox="0 0 512 512"><path d="m416.449 371.966-83.63-24.597-63.261 42.174a24.44 24.44 0 0 1-27.117 0l-63.261-42.174-83.63 24.597c-20.805 6.119-35.091 25.213-35.091 46.899V504.5h391.082v-85.636c0-21.685-14.287-40.779-35.092-46.898" style="fill:#cdf5a0"/><path d="M345.623 276.369H166.378c-26.999 0-48.885 21.887-48.885 48.885 0 53.997 43.773 97.771 97.77 97.771h81.475c53.997 0 97.771-43.774 97.771-97.771-.001-26.999-21.887-48.885-48.886-48.885" style="fill:#b4f09b"/><path d="M343.455 300.811c17.735 0 24.699 23.001 9.943 32.839l-83.839 55.893a24.44 24.44 0 0 1-27.117 0l-83.839-55.893c-14.756-9.837-7.792-32.839 9.943-32.839z" style="fill:#64dca0"/><path d="m179.18 347.369 63.261 42.174a24.44 24.44 0 0 0 27.117 0l63.261-42.174-2.242-.659a24.44 24.44 0 0 1-17.546-23.45v-38.744H198.967v38.744a24.44 24.44 0 0 1-17.546 23.45z" style="fill:#b67f5f"/><path d="M198.967 310.846c17.117 9.143 36.529 14.408 57.033 14.408s39.916-5.265 57.033-14.408v-26.329H198.967z" style="fill:#a06e50"/><path d="M374.139 162.303h-4.074v-97.77h-228.13v97.771h-4.074c-11.25 0-20.369 9.119-20.369 20.369s9.119 20.369 20.369 20.369h12.633c4.173 54.677 49.76 97.77 105.506 97.77s101.333-43.093 105.506-97.77h12.634c11.25 0 20.369-9.12 20.369-20.369-.001-11.25-9.12-20.37-20.37-20.37" style="fill:#cd916e"/><path d="M223.411 7.5c-40.498 0-73.328 32.83-73.328 73.328H321.18c37.399 0 68.258-27.998 72.762-64.177.604-4.853-3.255-9.151-8.145-9.151z" style="fill:#5a4650"/><path d="M141.935 80.828v81.475h-4.074c-11.25 0-20.369 9.119-20.369 20.369s9.119 20.369 20.369 20.369h12.633c4.173 54.677 49.76 97.77 105.506 97.77 5.574 0 11.008-.543 16.347-1.373-50.765-7.834-89.675-51.587-89.675-104.545V137.86c0-17.999 14.59-32.59 32.59-32.59h97.77c8.999 0 16.295-7.296 16.295-16.295v-8.148z" style="fill:#b67f5f"/><path d="M385.798 7.5H234.542c-7.211 8.033-12.717 17.629-15.835 28.263-3.025 10.32 4.998 20.622 15.753 20.622h141.299c9.715-10.838 16.293-24.546 18.185-39.734.603-4.853-3.256-9.151-8.146-9.151" style="fill:#64505a"/><path d="M207.116 162.951a7.5 7.5 0 0 0-7.5 7.5v8.147c0 4.142 3.357 7.5 7.5 7.5s7.5-3.358 7.5-7.5v-8.147a7.5 7.5 0 0 0-7.5-7.5M304.885 162.951a7.5 7.5 0 0 0-7.5 7.5v8.147c0 4.142 3.357 7.5 7.5 7.5s7.5-3.358 7.5-7.5v-8.147a7.5 7.5 0 0 0-7.5-7.5M256 243.131c12.062 0 23.168-3.854 29.71-10.31a7.5 7.5 0 0 0-10.535-10.676c-2.799 2.762-9.5 5.986-19.175 5.986s-16.376-3.225-19.175-5.986a7.5 7.5 0 1 0-10.535 10.676c6.543 6.456 17.649 10.31 29.71 10.31"/><path d="m418.565 364.771-21.887-6.437a104.9 104.9 0 0 0 5.329-33.079c0-31.091-25.294-56.385-56.385-56.385h-3.737c13.921-16.14 23.387-36.225 26.452-58.328h4.64c14.795 0 27.484-10.991 28.888-25.021.787-7.864-1.785-15.716-7.057-21.542a27.93 27.93 0 0 0-17.243-8.961V65.359c15.072-14.69 24.442-35.2 24.442-57.859a7.5 7.5 0 0 0-7.5-7.5H215.264c-44.568 0-80.828 36.259-80.828 80.828v74.331c-12.751 1.99-23.043 12.11-24.3 24.665-.788 7.864 1.784 15.716 7.057 21.542a27.92 27.92 0 0 0 20.669 9.175h5.797c3.065 22.104 12.528 42.188 26.447 58.328h-3.727c-31.091 0-56.385 25.294-56.385 56.386 0 11.551 1.876 22.671 5.329 33.079l-21.887 6.438c-23.831 7.009-40.476 29.254-40.476 54.094V504.5c0 4.142 3.357 7.5 7.5 7.5s7.5-3.358 7.5-7.5v-85.635c0-18.232 12.217-34.559 29.708-39.704l23.427-6.891c16.239 32.394 48.704 55.298 86.668 57.984V504.5c0 4.142 3.357 7.5 7.5 7.5s7.5-3.358 7.5-7.5v-73.976h66.475V504.5c0 4.142 3.357 7.5 7.5 7.5s7.5-3.358 7.5-7.5v-74.246c37.964-2.686 70.429-25.59 86.668-57.984l23.427 6.89c17.491 5.145 29.708 21.471 29.708 39.704V504.5c0 4.142 3.357 7.5 7.5 7.5s7.5-3.358 7.5-7.5v-85.635c0-24.841-16.645-47.085-40.476-54.094m-86.939-25.62c-6.582-2.43-11.093-8.805-11.093-15.891v-14.949h22.922c5.703 0 8.894 3.824 9.977 7.403 1.084 3.58.551 8.531-4.194 11.695zM150.083 187.394a7.5 7.5 0 0 0-7.5 7.5v.647h-4.722c-3.63 0-7.109-1.545-9.547-4.239-2.47-2.729-3.625-6.275-3.253-9.984.646-6.457 6.779-11.515 13.962-11.515h2.912a7.5 7.5 0 0 0 7.5-7.5V80.828c0-36.297 29.53-65.828 65.828-65.828h171.32c-3.735 32.778-31.642 58.328-65.402 58.328H174.525c-4.143 0-7.5 3.358-7.5 7.5s3.357 7.5 7.5 7.5H321.18c15.113 0 29.272-4.17 41.385-11.419v85.395a7.5 7.5 0 0 0 7.5 7.5h4.074a12.9 12.9 0 0 1 9.546 4.238c2.47 2.729 3.625 6.275 3.254 9.984-.646 6.457-6.778 11.515-13.962 11.515h-3.563v-.569a7.5 7.5 0 0 0-7.497-7.5h-.003a7.5 7.5 0 0 0-7.5 7.495c-.04 54.228-44.188 98.345-98.414 98.345-54.268 0-98.418-44.15-98.418-98.418a7.497 7.497 0 0 0-7.499-7.5m30.291 151.757-17.611-11.741c-4.745-3.164-5.278-8.116-4.194-11.695s4.273-7.403 9.977-7.403h22.922v14.949c-.001 7.085-4.512 13.46-11.094 15.89m123.863 76.059v-8.481c0-4.142-3.357-7.5-7.5-7.5s-7.5 3.358-7.5 7.5v8.795h-66.475v-8.795c0-4.142-3.357-7.5-7.5-7.5s-7.5 3.358-7.5 7.5v8.481c-46.279-3.824-82.771-42.707-82.771-89.957 0-22.82 18.565-41.385 41.385-41.385h19.374a114 114 0 0 0 5.715 4.241v5.201h-22.922c-11.461 0-21.012 7.088-24.333 18.057s.694 22.165 10.23 28.522l83.839 55.893a31.9 31.9 0 0 0 17.719 5.381 31.9 31.9 0 0 0 17.719-5.382l19.032-12.688a7.5 7.5 0 0 0 2.08-10.4 7.5 7.5 0 0 0-10.4-2.08l-19.032 12.688a16.9 16.9 0 0 1-18.797 0l-52.407-34.938c7.54-5.948 12.272-15.15 12.272-25.105v-26.352c14.975 7.301 31.783 11.403 49.533 11.403 17.748 0 34.557-4.104 49.533-11.408v26.357c0 9.955 4.732 19.157 12.272 25.105l-4.857 3.238a7.5 7.5 0 0 0 4.167 13.741c1.43 0 2.875-.408 4.153-1.261l36.289-24.193c9.536-6.357 13.552-17.553 10.23-28.522s-12.872-18.057-24.333-18.057H320.53V288.1a114 114 0 0 0 5.704-4.234h19.385c22.819 0 41.385 18.565 41.385 41.386.004 47.252-36.488 86.134-82.767 89.958"/><path d="M198.958 153.51q.69.001 1.391-.13l16.296-3.056c4.071-.764 6.753-4.683 5.989-8.754s-4.692-6.75-8.753-5.989l-16.296 3.056a7.5 7.5 0 0 0 1.373 14.873M295.355 150.324l16.296 3.056q.701.13 1.391.13a7.5 7.5 0 0 0 1.373-14.873l-16.296-3.056a7.5 7.5 0 0 0-2.764 14.743"/></svg>