<svg xmlns="http://www.w3.org/2000/svg" xml:space="preserve" viewBox="0 0 512 512"><path d="m402.704 354.968-122.697-43.282h-48.029l-122.697 43.282c-22.408 7.904-37.394 29.082-37.394 52.843V504.5h368.21v-96.689c.001-23.761-14.985-44.938-37.393-52.843" style="fill:#ffe17d"/><path d="m390.019 350.493-110.011-38.807h-48.029l-110.011 38.807c10.866 64.28 66.654 113.286 134.026 113.286s123.159-49.006 134.025-113.286" style="fill:#ffd164"/><path d="M255.993 311.686h-24.015l-122.696 43.282c-22.408 7.905-37.394 29.082-37.394 52.843V504.5h184.105z" style="fill:#a5cdff"/><path d="m231.978 311.686-110.011 38.807c10.866 64.28 66.654 113.286 134.026 113.286V311.686z" style="fill:#8cb4eb"/><path d="M255.993 439.765c58.517 0 106.44-44.88 111.499-102.081.32-3.622-2.023-7.029-5.475-8.172-53.837-17.825-106.024-17.825-106.024-17.825s-52.187 0-106.024 17.825c-3.451 1.143-5.795 4.551-5.475 8.172 5.06 57.201 52.982 102.081 111.499 102.081" style="fill:#cdf5a0"/><path d="M255.993 375.726c-26.526 0-48.03-21.504-48.03-48.029v-40.025h96.059v40.025c.001 26.525-21.503 48.029-48.029 48.029" style="fill:#e3aa75"/><path d="M207.964 325.562c14.728 6.461 30.943 10.139 48.029 10.139s33.301-3.678 48.029-10.139v-37.89h-96.059z" style="fill:#d29b6e"/><path d="M159.663 186.3c.062-.907.271-1.77.271-2.692 0-10.452-4.1-19.885-10.661-27.014 13.034-6.012 21.4-20.427 17.845-36.37-2.596-11.642-11.999-21.138-23.626-23.802-20.975-4.805-39.592 10.999-39.592 31.152 0 2.453.279 4.84.806 7.133 1.431 6.229-1.886 12.332-7.188 15.901-10.625 7.153-17.633 19.217-17.633 33 0 11.249 4.662 21.383 12.143 28.641 3.634 3.526 4.784 8.754 4.194 13.783a48.4 48.4 0 0 0-.11 10.2c2.274 24.093 23.321 43.291 47.521 43.434 26.66.158 48.321-21.405 48.321-48.029 0-21.005-13.506-38.815-32.291-45.337M352.323 186.3c-.062-.907-.271-1.77-.271-2.692 0-10.452 4.1-19.885 10.661-27.014-13.034-6.012-21.4-20.427-17.845-36.37 2.596-11.642 11.999-21.138 23.626-23.802 20.975-4.805 39.592 10.999 39.592 31.152 0 2.453-.279 4.84-.806 7.133-1.431 6.229 1.886 12.332 7.188 15.901 10.625 7.153 17.633 19.217 17.633 33 0 11.249-4.662 21.383-12.143 28.641-3.634 3.526-4.784 8.754-4.194 13.783.388 3.307.439 6.718.11 10.2-2.274 24.093-23.321 43.291-47.521 43.434-26.66.158-48.321-21.405-48.321-48.029 0-21.005 13.507-38.815 32.291-45.337" style="fill:#e6646e"/><path d="M372.064 159.593h-12.007v-16.01c0-57.473-46.591-104.064-104.064-104.064S151.929 86.11 151.929 143.583v16.01h-12.007c-11.053 0-20.012 8.96-20.012 20.012s8.96 20.012 20.012 20.012h12.007v8.005c0 57.473 46.591 104.064 104.064 104.064s104.064-46.591 104.064-104.064v-8.005h12.007c11.053 0 20.012-8.96 20.012-20.012.001-11.052-8.959-20.012-20.012-20.012" style="fill:#f5b97d"/><path d="M183.949 207.623V68.599c-19.703 18.935-32.02 45.499-32.02 74.984v16.01h-12.007c-11.053 0-20.012 8.96-20.012 20.012s8.96 20.012 20.012 20.012h12.007v8.005c0 57.473 46.591 104.064 104.064 104.064 5.458 0 10.778-.547 16.01-1.357-49.851-7.718-88.054-50.693-88.054-102.706" style="fill:#e3aa75"/><path d="M215.969 223.632c0 22.105 17.92 40.025 40.024 40.025s40.025-17.92 40.024-40.025z" style="fill:#fff"/><circle cx="255.991" cy="199.62" r="24.02" style="fill:#ff8087"/><path d="M250.189 23.646c-64.583 3.041-114.27 58.673-114.27 123.327v16.606l19.04-2.371a14.81 14.81 0 0 0 12.979-14.696v-.01c0-48.483 37.93-90.072 86.405-90.959 49.386-.904 89.703 38.859 89.703 88.039v2.93a14.81 14.81 0 0 0 12.979 14.696l19.04 2.371v-19.997c.002-68.238-56.922-123.182-125.876-119.936" style="fill:#e6646e"/><path d="M343.807 58.778c-2.389-24.292-22.869-43.273-47.789-43.273a47.8 47.8 0 0 0-17.809 3.45C271.636 11.942 262.36 7.5 251.991 7.5c-19.895 0-36.022 16.128-36.022 36.022 0 18.941 14.668 34.297 33.239 35.742-.715 2.658-1.219 5.401-1.219 8.285 0 17.684 14.335 32.02 32.02 32.02 5.017 0 9.704-1.256 13.931-3.313 7.022 11.54 19.602 19.322 34.099 19.322 22.105 0 40.025-17.92 40.025-40.025-.002-16.5-9.998-30.652-24.257-36.775" style="fill:#ff8087"/><path d="M268.001 211.625c-13.263 0-24.015-10.752-24.015-24.015 0-3.519.799-6.837 2.16-9.848-8.339 3.765-14.167 12.112-14.167 21.856 0 13.263 10.752 24.015 24.015 24.015 9.744 0 18.09-5.828 21.855-14.166-3.012 1.359-6.329 2.158-9.848 2.158" style="fill:#e6646e"/><path d="M215.472 176.299v-8.005a7.5 7.5 0 0 0-15 0v8.005a7.5 7.5 0 0 0 15 0M304.03 183.799a7.5 7.5 0 0 0 7.5-7.5v-8.005a7.5 7.5 0 0 0-15 0v8.005a7.5 7.5 0 0 0 7.5 7.5"/><path d="m405.225 347.892-30.209-10.662c.126-6.622-4.043-12.635-10.445-14.852a330.7 330.7 0 0 0-53.049-13.546v-4.473a112.4 112.4 0 0 0 29.757-24.902c8.188 4.523 17.324 6.882 26.769 6.881q1.082 0 2.169-.041c27.142-1.031 50.469-22.995 53.106-50.005a56 56 0 0 0-.107-11.942c-.178-1.522-.342-5.307 1.981-7.563 9.289-9.021 14.404-21.099 14.404-34.008 0-17.255-9.456-33.155-24.677-41.494-.97-.532-1.433-1.807-1.076-2.965 2.194-7.12 2.304-14.808.318-22.234-3.688-13.794-15.098-24.727-29.068-27.853a41 41 0 0 0-10.291-.979 47.47 47.47 0 0 0-24.119-33.469c-4.631-26.382-27.424-45.781-54.671-45.781-5.42 0-10.768.792-15.957 2.361C272.202 3.648 262.403 0 251.991 0c-16.7 0-31.224 9.459-38.519 23.297a127.28 127.28 0 0 0-72.144 64.299c-4.747-.656-9.587-.447-14.441.639-13.969 3.125-25.378 14.058-29.067 27.852-1.985 7.426-1.875 15.114.318 22.233.357 1.159-.105 2.434-1.076 2.966-15.221 8.339-24.676 24.239-24.676 41.494 0 12.909 5.115 24.987 14.405 34.009 2.322 2.255 2.159 6.039 1.98 7.563a56 56 0 0 0-.107 11.941c2.637 27.009 25.964 48.974 53.105 50.004a58 58 0 0 0 2.169.041c9.445 0 18.582-2.358 26.769-6.881a112.4 112.4 0 0 0 29.756 24.902v4.473a330.7 330.7 0 0 0-53.049 13.546c-6.404 2.217-10.573 8.233-10.445 14.857l-30.193 10.656c-25.354 8.948-42.389 33.025-42.389 59.912V504.5a7.5 7.5 0 0 0 15 0v-96.696c0-20.54 13.013-38.932 32.381-45.768l27.343-9.651c5.078 24.202 17.561 46.296 35.981 63.284 20.247 18.673 46.073 29.651 73.4 31.354v56.78a7.5 7.5 0 0 0 15 0v-56.78c27.327-1.704 53.153-12.681 73.4-31.354 18.422-16.99 30.904-39.085 35.982-63.29l27.358 9.656c19.368 6.835 32.381 25.228 32.381 45.768V504.5a7.5 7.5 0 0 0 15 0v-96.696c.001-26.887-17.034-50.964-42.388-59.912m-5.55-227.93c1.274 4.766 1.22 9.457-.163 13.943-2.449 7.954 1.001 16.59 8.205 20.536 10.414 5.706 16.883 16.564 16.883 28.339 0 8.82-3.5 17.076-9.854 23.248-5.009 4.864-7.353 12.178-6.43 20.065.336 2.88.362 5.822.077 8.743-1.924 19.7-18.943 35.721-38.747 36.473-6.791.258-13.404-1.148-19.388-4.083 10.948-17.254 17.297-37.7 17.297-59.603v-.505h4.507c15.17 0 27.512-12.342 27.512-27.512 0-11.065-6.569-20.619-16.01-24.983v-11.039c0-14.18-2.309-28.068-6.856-41.341 1.691.043 3.397.246 5.114.63 8.584 1.92 15.591 8.628 17.853 17.089m-32.965 3.164a113 113 0 0 1 1.857 20.458v8.51h-8.51c-4.692 0-8.51-3.817-8.51-8.51 0-2.204-.085-4.417-.236-6.618a47.9 47.9 0 0 0 15.399-13.84M251.991 15c7.888 0 15.255 3.226 20.746 9.083a7.5 7.5 0 0 0 8.256 1.835c4.836-1.933 9.891-2.914 15.025-2.914 20.942 0 38.278 15.695 40.325 36.507a7.5 7.5 0 0 0 4.504 6.158 32.5 32.5 0 0 1 19.715 29.885c0 17.934-14.59 32.524-32.524 32.524-11.35 0-21.702-5.877-27.691-15.721a7.5 7.5 0 0 0-9.688-2.846c-3.488 1.696-7.071 2.557-10.65 2.557-13.52 0-24.52-11-24.52-24.52 0-1.884.306-3.898.961-6.338a7.503 7.503 0 0 0-6.661-9.425c-14.759-1.148-26.32-13.563-26.32-28.264 0-15.726 12.795-28.521 28.522-28.521M142.338 271.309c-19.803-.752-36.822-16.773-38.746-36.473a41 41 0 0 1 .077-8.742c.923-7.888-1.42-15.202-6.429-20.065-6.355-6.172-9.855-14.429-9.855-23.249 0-11.774 6.469-22.633 16.883-28.339 7.204-3.946 10.655-12.583 8.205-20.537-1.382-4.485-1.437-9.176-.162-13.942 2.262-8.461 9.269-15.169 17.851-17.089a26.5 26.5 0 0 1 5.121-.631 127.8 127.8 0 0 0-6.864 41.341v11.039c-9.44 4.364-16.01 13.918-16.01 24.983 0 15.17 12.342 27.512 27.512 27.512h4.507v.505c0 21.903 6.349 42.349 17.297 59.603-5.982 2.933-12.592 4.336-19.387 4.084m17.091-63.686v-16.01a7.5 7.5 0 0 0-15 0v.505h-4.507c-6.899 0-12.512-5.613-12.512-12.512s5.613-12.512 12.512-12.512h12.007c12.963 0 23.51-10.546 23.51-23.51 0-22.397 8.974-43.204 25.267-58.586a7.5 7.5 0 0 0 .305-10.602 7.5 7.5 0 0 0-10.602-.305c-19.327 18.246-29.97 42.925-29.97 69.493 0 4.692-3.817 8.51-8.51 8.51h-8.51v-8.51c0-44.275 25.693-83.834 65.101-102.109a44 44 0 0 0-.052 2.047c0 19.718 13.566 36.745 32.093 41.816a34 34 0 0 0-.073 2.211c0 21.791 17.729 39.52 39.52 39.52 3.776 0 7.519-.566 11.186-1.688 8.976 11.183 22.345 17.698 36.844 17.698 2.899 0 5.734-.275 8.492-.775.007.427.018.854.018 1.28 0 12.963 10.546 23.51 23.51 23.51h12.007c6.899 0 12.512 5.613 12.512 12.512s-5.613 12.512-12.512 12.512h-4.507v-.505a7.5 7.5 0 0 0-15 0v16.01c0 53.246-43.318 96.564-96.564 96.564s-96.565-43.319-96.565-96.564m167.295 197.021c-19.313 17.812-44.433 27.621-70.731 27.621s-51.417-9.81-70.731-27.621c-19.194-17.702-31.021-41.736-33.302-67.673-.007-.084.126-.336.364-.418a315.7 315.7 0 0 1 48.14-12.496v3.382c0 30.619 24.91 55.529 55.529 55.529a55.5 55.5 0 0 0 27.773-7.435 7.5 7.5 0 0 0-7.512-12.984 40.5 40.5 0 0 1-20.261 5.418c-22.348 0-40.529-18.181-40.529-40.529v-15.875c12.569 4.918 26.239 7.622 40.529 7.622s27.96-2.704 40.529-7.622v15.875c0 4.717-.801 9.335-2.38 13.724a7.501 7.501 0 0 0 14.115 5.08 55.4 55.4 0 0 0 3.266-18.803v-3.382a316 316 0 0 1 48.141 12.496c.237.083.371.334.363.418-2.282 25.937-14.109 49.971-33.303 67.673"/><path d="M303.518 223.632a7.5 7.5 0 0 0-7.5-7.5H282.82a31.3 31.3 0 0 0 4.688-16.515c0-17.377-14.137-31.515-31.515-31.515s-31.515 14.137-31.515 31.515a31.33 31.33 0 0 0 4.688 16.515h-13.198a7.5 7.5 0 0 0-7.5 7.5c0 26.205 21.319 47.525 47.524 47.525s47.526-21.32 47.526-47.525m-64.039-24.014c0-9.106 7.409-16.515 16.515-16.515s16.515 7.409 16.515 16.515-7.409 16.515-16.515 16.515-16.515-7.409-16.515-16.515m-15.138 31.514h63.304c-3.395 14.332-16.298 25.025-31.652 25.025s-28.257-10.693-31.652-25.025M219.323 142.286a7.5 7.5 0 0 0-6.709-13.417l-16.01 8.005a7.5 7.5 0 0 0 6.709 13.417z"/></svg>