<svg xmlns="http://www.w3.org/2000/svg" xml:space="preserve" viewBox="0 0 512 512"><path d="M407.987 380.494 256 336.161l-151.987 44.333c-23.941 6.983-40.4 28.93-40.4 53.868V504.5h384.774v-70.138c0-24.938-16.459-46.885-40.4-53.868" style="fill:#e6646e"/><path d="M199.89 288.06h112.23V504.5H199.89z" style="fill:#e3aa75"/><path d="M199.887 322.133c16.773 8.898 35.838 14.028 56.113 14.028s39.339-5.13 56.113-14.028v-34.069H199.887z" style="fill:#d29b6e"/><path d="m392.576 318.711-80.463-46.679V504.5h32.065v-87.754a24.05 24.05 0 0 1 5.27-15.023l47.4-59.25c6.063-7.579 4.052-18.767-4.272-23.762M119.424 318.711l80.463-46.679V504.5h-32.065v-87.754a24.05 24.05 0 0 0-5.27-15.023l-47.4-59.25c-6.063-7.579-4.052-18.767 4.272-23.762" style="fill:#dc4655"/><path d="M256 15.516c-70.835 0-128.258 57.423-128.258 128.258v48.097h256.516v-48.097c0-70.835-57.423-128.258-128.258-128.258" style="fill:#ffd164"/><path d="M276.04 17.235c-6.546-1.03-13.205-1.719-20.04-1.719-70.835 0-128.258 57.423-128.258 128.258v48.097h40.081v-48.097c0-64 46.927-116.897 108.217-126.539" style="fill:#ffc350"/><path d="M368.226 264.016H143.774c-35.417 0-64.129-28.712-64.129-64.129s28.712-64.129 64.129-64.129h224.452c35.417 0 64.129 28.712 64.129 64.129s-28.712 64.129-64.129 64.129" style="fill:#ffc350"/><path d="M372.234 175.839H360.21v-40.081H151.79v40.081h-12.024c-11.068 0-20.04 8.972-20.04 20.04s8.972 20.04 20.04 20.04h12.429c4.106 53.795 48.958 96.194 103.805 96.194s99.699-42.398 103.805-96.194h12.429c11.068 0 20.04-8.973 20.04-20.04 0-11.068-8.972-20.04-20.04-20.04" style="fill:#f5b97d"/><path d="M151.79 135.758v40.081h-12.024c-11.068 0-20.04 8.972-20.04 20.04s8.972 20.04 20.04 20.04h12.429c4.106 53.795 48.958 96.194 103.805 96.194 5.466 0 10.793-.547 16.032-1.359-49.921-7.729-88.177-50.764-88.177-102.851 0-26.563 21.534-48.097 48.097-48.097h80.161c8.854 0 16.032-7.178 16.032-16.032v-8.016z" style="fill:#e3aa75"/><path d="M288.065 15.516v34.037a40.08 40.08 0 0 1-8.783 25.038L262.26 95.869c-3.209 4.011-9.31 4.011-12.519 0l-17.022-21.278a40.1 40.1 0 0 1-8.783-25.038V15.516a8.016 8.016 0 0 1 8.016-8.016h48.097a8.016 8.016 0 0 1 8.016 8.016" style="fill:#ff8087"/><path d="M256 7.5h-24.048a8.016 8.016 0 0 0-8.016 8.016v34.037a40.1 40.1 0 0 0 8.783 25.038l17.022 21.278a7.97 7.97 0 0 0 6.26 3.008z" style="fill:#e6646e"/><path d="M256 392.274c-22.678 0-42.888-10.484-56.113-26.846V504.5h112.226V365.428c-13.225 16.362-33.435 26.846-56.113 26.846" style="fill:#ffc350"/><path d="M256 392.274c-22.678 0-42.888-10.484-56.113-26.846v42.42c16.208 10.39 35.431 16.49 56.113 16.49s39.905-6.1 56.113-16.49v-42.42c-13.225 16.362-33.435 26.846-56.113 26.846" style="fill:#ffd164"/><path d="m152.915 176.887-17.157 1.206v-42.335h32.065v25.136c0 8.418-6.511 15.402-14.908 15.993M359.085 176.887l17.157 1.206v-42.335h-32.065v25.136c0 8.418 6.511 15.402 14.908 15.993" style="fill:#5a4650"/><path d="M207.903 176.359a7.5 7.5 0 0 0-7.5 7.5v8.016a7.5 7.5 0 0 0 15 0v-8.016a7.5 7.5 0 0 0-7.5-7.5M304.097 176.359a7.5 7.5 0 0 0-7.5 7.5v8.016a7.5 7.5 0 0 0 15 0v-8.016a7.5 7.5 0 0 0-7.5-7.5M274.781 234.633c-2.737 2.701-9.298 5.855-18.781 5.855s-16.043-3.154-18.781-5.855a7.5 7.5 0 1 0-10.535 10.677c6.459 6.373 17.418 10.177 29.316 10.177s22.857-3.805 29.316-10.177a7.5 7.5 0 0 0-10.535-10.677M199.887 448.906a7.5 7.5 0 0 0-7.5 7.5V504.5a7.5 7.5 0 0 0 15 0v-48.094a7.5 7.5 0 0 0-7.5-7.5"/><path d="m410.224 373.236-22.976-6.758 15.455-19.319a23.53 23.53 0 0 0-6.268-34.88l-54.718-32.831a113 113 0 0 0 6.051-7.928h20.459c39.496 0 71.629-32.133 71.629-71.629 0-31.448-20.381-58.208-48.62-67.816-2.364-27.761-13.004-53.701-30.928-75.194-17.15-20.565-39.475-35.353-64.834-43.026C294.64 6.078 288.043 0 280.048 0h-48.097c-7.994 0-14.592 6.078-15.424 13.855-25.36 7.673-47.684 22.461-64.834 43.026-17.924 21.493-28.564 47.434-30.928 75.194-28.24 9.608-48.62 36.368-48.62 67.816 0 39.496 32.133 71.629 71.629 71.629h20.446a113 113 0 0 0 6.054 7.934l-54.709 32.826c-5.824 3.494-9.853 9.332-11.054 16.017s.543 13.56 4.786 18.862l15.456 19.32-22.976 6.758c-26.886 7.907-45.664 33.003-45.664 61.028V504.5a7.5 7.5 0 0 0 15 0v-70.236c0-21.417 14.35-40.595 34.896-46.637l28.869-8.491 21.818 27.273a16.6 16.6 0 0 1 3.626 10.338V504.5a7.5 7.5 0 0 0 15 0v-87.753a31.66 31.66 0 0 0-6.914-19.708l-47.399-59.25c-1.561-1.951-2.177-4.379-1.735-6.838s1.866-4.522 4.008-5.808l57.644-34.586a112 112 0 0 0 11.461 9.131v124.656a7.5 7.5 0 0 0 15 0v-3.714c15.135 7.357 31.71 11.214 48.613 11.214s33.478-3.857 48.613-11.214v83.87a7.5 7.5 0 0 0 15 0V299.677a113 113 0 0 0 11.451-9.126l57.653 34.592a8.42 8.42 0 0 1 4.008 5.808 8.42 8.42 0 0 1-1.735 6.839l-47.399 59.25a31.67 31.67 0 0 0-6.914 19.708V504.5a7.5 7.5 0 0 0 15 0v-87.753c0-3.743 1.288-7.415 3.626-10.338l21.818-27.273 28.869 8.491c20.546 6.042 34.896 25.221 34.896 46.637V504.5a7.5 7.5 0 0 0 15 0v-70.236c.001-28.025-18.776-53.12-45.662-61.028m-26.482-227.795c23.703 6.765 41.113 28.605 41.113 54.451 0 31.225-25.404 56.629-56.629 56.629h-11.672a110.8 110.8 0 0 0 10.078-33.097h4.459c14.617 0 27.154-10.861 28.542-24.727.778-7.771-1.765-15.531-6.975-21.288a27.5 27.5 0 0 0-8.917-6.533zM231.436 15.516c0-.285.231-.516.516-.516h48.097c.285 0 .516.231.516.516v34.037a32.7 32.7 0 0 1-7.139 20.353l-17.021 21.277c-.047.058-.155.194-.404.194s-.357-.136-.403-.193l-17.022-21.278a32.7 32.7 0 0 1-7.139-20.353zm-87.662 241.005c-31.225 0-56.629-25.404-56.629-56.629 0-25.845 17.41-47.686 41.113-54.451v25.768c-8.631 4.115-14.93 12.266-15.891 21.859-.778 7.771 1.764 15.531 6.974 21.289a27.6 27.6 0 0 0 20.425 9.067h5.598a110.8 110.8 0 0 0 10.072 33.097zm160.839 147.122c-14.794 8.643-31.513 13.2-48.613 13.2s-33.818-4.557-48.613-13.2v-20.44c13.793 10.674 30.773 16.575 48.613 16.575s34.82-5.901 48.613-16.575zm0-40.976c-12.309 14.075-29.874 22.111-48.613 22.111s-36.303-8.037-48.613-22.111v-54.196c14.705 7.137 31.199 11.146 48.613 11.146 17.412 0 33.906-4.012 48.613-11.153zM256 304.617c-53.326 0-96.709-43.384-96.709-96.709a7.5 7.5 0 0 0-15 0v.516h-4.524a12.57 12.57 0 0 1-9.303-4.131c-2.407-2.66-3.533-6.115-3.17-9.73.63-6.292 6.611-11.22 13.617-11.22h10.881c12.976 0 23.532-10.557 23.532-23.533v-16.548h120.762a7.5 7.5 0 0 0 0-15l-159.84.024c2.899-22.769 12.124-43.999 26.969-61.799 14.25-17.087 32.507-29.69 53.223-36.841v19.906a47.75 47.75 0 0 0 10.426 29.723l17.022 21.278a15.44 15.44 0 0 0 12.116 5.823c4.74 0 9.155-2.122 12.116-5.823l17.022-21.277a47.75 47.75 0 0 0 10.426-29.724V29.647c20.715 7.151 38.973 19.754 53.223 36.841 14.845 17.8 24.069 39.03 26.969 61.799l-47.609-.024a7.5 7.5 0 0 0 0 15h8.53v16.549c0 12.976 10.557 23.532 23.532 23.532h12.024a12.57 12.57 0 0 1 9.303 4.13c2.407 2.66 3.533 6.115 3.171 9.729-.63 6.292-6.611 11.221-13.617 11.221h-3.385v-.439a7.5 7.5 0 0 0-7.497-7.5h-.003a7.5 7.5 0 0 0-7.5 7.495c-.04 53.286-43.422 96.637-96.707 96.637M143.258 168.343v-25.081h17.064v16.548c0 4.705-3.828 8.533-8.532 8.533zm225.484-25.081v25.081h-8.532c-4.705 0-8.532-3.828-8.532-8.532v-16.549z"/><path d="M215.919 152.311h-16.032a7.5 7.5 0 0 0 0 15h16.032a7.5 7.5 0 0 0 0-15M288.581 159.811a7.5 7.5 0 0 0 7.5 7.5h16.032a7.5 7.5 0 0 0 0-15h-16.032a7.5 7.5 0 0 0-7.5 7.5"/></svg>