<svg xmlns="http://www.w3.org/2000/svg" xml:space="preserve" viewBox="0 0 512 512"><path d="M256 7.5c-75.262 0-136.274 61.012-136.274 136.274v61.457c0 107.55 66.785 162.529 66.785 162.529h205.764V143.774C392.273 68.512 331.262 7.5 256 7.5" style="fill:#ffd164"/><path d="M119.726 143.774v61.457c0 107.55 66.785 162.529 66.785 162.529H256V7.5c-75.262 0-136.274 61.012-136.274 136.274" style="fill:#ffc350"/><path d="M408.282 396.981 325.49 367.76a32.065 32.065 0 0 1-21.393-30.237v-49.459h-96.194v49.459a32.06 32.06 0 0 1-21.393 30.236l-82.793 29.221c-19.23 6.787-32.089 24.962-32.089 45.354V504.5H440.37v-62.165c.001-20.392-12.858-38.567-32.088-45.354" style="fill:#f7d291"/><path d="m408.282 396.981-68.898-24.317c-11.856 34.701-44.667 59.691-83.384 59.691s-71.528-24.99-83.384-59.691l-68.898 24.317c-19.23 6.787-32.089 24.962-32.089 45.354V504.5h368.742v-62.165c0-20.392-12.859-38.567-32.089-45.354" style="fill:#a5cdff"/><path d="M256 464.419c52.682 0 97.338-33.934 113.594-81.093l-30.21-10.663c-11.856 34.701-44.667 59.691-83.384 59.691s-71.528-24.99-83.384-59.691l-30.211 10.663c16.257 47.16 60.913 81.093 113.595 81.093" style="fill:#edebed"/><path d="M207.903 325.906c13.042 5.808 27.268 9.411 42.305 10.118q2.911.137 5.792.137c17.103 0 33.353-3.645 48.097-10.11v-37.987h-96.194z" style="fill:#f0c382"/><path d="M372.234 175.839h-9.159c-10.437 0-18.897-8.461-18.897-18.897v-13.167c0-22.136-17.944-40.081-40.081-40.081h-96.194c-22.136 0-40.081 17.945-40.081 40.081v13.167c0 10.437-8.46 18.897-18.897 18.897h-9.159c-11.068 0-20.04 8.972-20.04 20.04s8.972 20.04 20.04 20.04h12.429c4.106 53.795 48.958 96.194 103.805 96.194s99.699-42.398 103.805-96.194h12.429c11.068 0 20.04-8.973 20.04-20.04-.001-11.068-8.972-20.04-20.04-20.04" style="fill:#ffe1a0"/><path d="M304.096 312.113v32.065c0 70.783 56.113 96.194 56.113 160.323h32.065V312.113z" style="fill:#ffd164"/><path d="M372.234 175.839h-9.159c-10.437 0-18.897-8.461-18.897-18.897v-13.167a39.9 39.9 0 0 0-3.15-15.601 40.23 40.23 0 0 0-21.329-21.33 40 40 0 0 0-15.602-3.15h-96.194c-1.953 0-3.852.2-5.721.485-.676.1-1.339.225-2.002.358-1.2.248-2.372.557-3.531.91-1.139.342-2.249.73-3.343 1.169-.83.333-1.671.644-2.476 1.026l.038.047c-2.468 1.186-4.849 2.524-7.015 4.159v.044c-9.682 7.316-16.032 18.813-16.032 31.883v13.987c0 10.392-8.713 17.97-19.104 18.077h-7.808c-10.483 0-20.036 7.542-21.081 17.973-1.202 11.996 8.186 22.108 19.937 22.108h12.429c4.106 53.795 48.958 96.194 103.805 96.194 5.484 0 10.83-.534 16.083-1.351-49.946-7.708-88.228-50.754-88.228-102.859v-48.986q0-.225.004-.449c.31-19.62 24.466-29.176 39.211-16.229 41.339 36.297 95.212 57.649 153.173 57.649 3.929 0 8.122-.15 12.61-.417l3.421-3.806c-.115-10.971-9.043-19.827-20.039-19.827" style="fill:#f7d291"/><path d="M256 7.5c-28.992 0-55.818 9.121-77.908 24.556 27.208 83.455 105.613 143.783 198.15 143.783 5.401 0 10.735-.271 16.032-.675v-31.39C392.273 68.512 331.262 7.5 256 7.5" style="fill:#ffe17d"/><path d="M207.903 176.355a7.5 7.5 0 0 0-7.5 7.5v8.016a7.5 7.5 0 0 0 15 0v-8.016a7.5 7.5 0 0 0-7.5-7.5M304.096 176.355a7.5 7.5 0 0 0-7.5 7.5v8.016c0 4.142 3.357 7.5 7.5 7.5s7.5-3.358 7.5-7.5v-8.016a7.5 7.5 0 0 0-7.5-7.5M274.781 234.629c-2.737 2.701-9.299 5.855-18.781 5.855s-16.043-3.154-18.781-5.855a7.5 7.5 0 1 0-10.535 10.677c6.459 6.373 17.418 10.177 29.316 10.177s22.856-3.805 29.316-10.177a7.5 7.5 0 0 0-10.535-10.677"/><path d="m410.778 389.909-11.004-3.884V143.774C399.773 64.497 335.277 0 256 0S112.226 64.497 112.226 143.774v61.457c0 57.308 18.762 99.89 34.501 125.521 9.566 15.578 19.124 26.901 25.837 33.978l-71.341 25.179c-22.187 7.83-37.093 28.899-37.093 52.427V504.5a7.5 7.5 0 0 0 15 0v-62.165c0-4.992.925-9.83 2.626-14.326l37.925 32.507a24.54 24.54 0 0 1 8.578 18.651V504.5a7.5 7.5 0 0 0 15 0v-25.333a39.52 39.52 0 0 0-13.816-30.04l-39.755-34.075a40.5 40.5 0 0 1 16.528-10.999l31.671-11.178c19.603 47.513 66.331 79.044 118.114 79.044 28.488 0 55.975-9.466 78.311-26.814 10.185 17.714 18.399 35.832 18.399 59.395 0 4.142 3.357 7.5 7.5 7.5s7.5-3.358 7.5-7.5c0-33.365-14.285-56.986-28.101-79.83-14.406-23.82-28.013-46.319-28.013-80.493v-8.016c0-4.142-3.357-7.5-7.5-7.5s-7.5 3.358-7.5 7.5v8.016c0 23.851 5.933 42.678 13.987 59.406-14.924 13.744-34.158 21.271-54.584 21.271-31.927 0-60.742-18.911-73.641-47.676l6.647-2.346c15.789-5.573 26.397-20.566 26.397-37.309v-25.55c12.59 4.928 26.282 7.639 40.597 7.639 56.313 0 103.051-41.921 110.632-96.193h4.457c4.912 0 9.587-1.231 13.686-3.386V504.5c0 4.142 3.357 7.5 7.5 7.5s7.5-3.358 7.5-7.5v-50.374l30.47-26.117a40.4 40.4 0 0 1 2.626 14.326V504.5c0 4.142 3.357 7.5 7.5 7.5s7.5-3.358 7.5-7.5v-62.165c0-23.527-14.906-44.596-37.093-52.426M256 439.855c22.899 0 44.534-7.979 61.782-22.62 2.864 5.053 5.835 9.977 8.79 14.863-19.968 16.044-44.804 24.822-70.572 24.822-45.443 0-86.468-27.514-103.943-69.046l16.127-5.692c15.045 34.746 49.541 57.673 87.816 57.673m-55.597-102.332c0 8.942-4.881 17.07-12.483 21.373-12.401-11.944-55.185-58.651-60.204-138.268a27.54 27.54 0 0 0 12.05 2.791h5.598c4.855 34.791 25.795 64.501 55.04 81.351v32.753zm184.304-140.325c-.63 6.292-6.612 11.221-13.618 11.221h-3.383v-.439a7.5 7.5 0 0 0-7.497-7.5h-.003a7.5 7.5 0 0 0-7.5 7.495c-.04 53.286-43.422 96.638-96.706 96.638-53.326 0-96.71-43.384-96.71-96.709a7.5 7.5 0 0 0-15 0v.516h-4.524a12.57 12.57 0 0 1-9.303-4.131c-2.407-2.66-3.533-6.115-3.171-9.729.631-6.292 6.613-11.221 13.62-11.221h2.862c8.426 0 16.349-3.282 22.307-9.24 5.959-5.958 9.241-13.881 9.241-22.308v-8.016c0-10.343 4.75-19.845 13.033-26.068a7.5 7.5 0 1 0-9.01-11.992c-12.089 9.083-19.022 22.956-19.022 38.06v8.016a16.44 16.44 0 0 1-4.847 11.702 16.44 16.44 0 0 1-11.701 4.847h-2.862a29.4 29.4 0 0 0-13.687 3.387v-27.951c0-39.683 18.047-75.225 46.359-98.866 17.819 39.501 44.174 73.299 76.621 98.143 33.932 25.98 72.999 40.288 110.004 40.288h12.023a12.57 12.57 0 0 1 9.304 4.131c2.406 2.657 3.532 6.112 3.17 9.726m-12.474-28.859H360.21c-33.728 0-69.556-13.21-100.886-37.198-31.284-23.953-56.569-56.847-73.378-95.366C206.122 22.642 230.184 15 256 15c71.007 0 128.774 57.768 128.774 128.774v27.594a27.55 27.55 0 0 0-12.541-3.029m27.54 266.032v-32.439l6.012 2.122a40.5 40.5 0 0 1 16.527 10.999z"/><path d="m213.548 144.675-24.048 8.016a7.501 7.501 0 0 0 2.37 14.617c.786 0 1.586-.125 2.373-.387l24.048-8.016a7.5 7.5 0 0 0-4.743-14.23"/></svg>