<svg xmlns="http://www.w3.org/2000/svg" xml:space="preserve" viewBox="0 0 512 512"><path d="M344.659 22.789C320.205 13.222 289.462 7.5 256 7.5s-64.205 5.722-88.659 15.289c-9.328 3.649-15.55 12.513-15.55 22.529v42.343H360.21V45.318c0-10.015-6.223-18.88-15.551-22.529" style="fill:#6e5a64"/><ellipse cx="256" cy="127.74" rx="144.29" ry="72.14" style="fill:#64505a"/><path d="m413.862 374.103-84.486-24.849a24.05 24.05 0 0 1-17.263-23.071v-38.119H199.887v38.119a24.05 24.05 0 0 1-17.263 23.071l-84.486 24.849c-20.469 6.02-34.526 24.806-34.526 46.142V504.5h384.774v-84.254c.001-21.336-14.055-40.122-34.524-46.143" style="fill:#e3aa75"/><path d="M199.887 313.969c16.841 8.996 35.939 14.176 56.113 14.176s39.272-5.18 56.113-14.176v-25.905H199.887z" style="fill:#d29b6e"/><path d="M372.234 167.823H360.21c-8.854 0-16.032-7.178-16.032-16.032v-32.065c0-17.709-39.478-32.065-88.177-32.065s-88.177 14.356-88.177 32.065v32.065c0 8.854-7.179 16.032-16.032 16.032h-12.024c-11.068 0-20.04 8.972-20.04 20.04s8.972 20.04 20.04 20.04h12.429c4.106 53.795 48.958 96.194 103.805 96.194s99.699-42.398 103.805-96.194h12.429c11.068 0 20.04-8.973 20.04-20.04-.002-11.068-8.974-20.04-20.042-20.04" style="fill:#f5b97d"/><path d="M256 87.661c-46.721 0-84.853 13.223-87.882 29.934-.192.562-.296 1.253-.296 2.13v32.065c0 8.854-7.178 16.032-16.032 16.032h-10.88c-10.483 0-20.036 7.542-21.081 17.973-1.202 11.996 8.186 22.108 19.936 22.108h12.43c4.106 53.795 48.957 96.194 103.805 96.194 5.483 0 10.83-.534 16.083-1.351-49.946-7.708-88.228-50.754-88.228-102.859v-38.501c0-24.153 17.878-44.525 41.819-47.724 9.452-1.263 19.665-1.953 30.326-1.953 48.699 0 88.177 14.356 88.177 32.065v-24.048c0-17.709-39.478-32.065-88.177-32.065" style="fill:#e3aa75"/><path d="m413.862 374.103-29.825-8.772C368.985 383.183 315.65 443.237 256 472.435c-59.65-29.199-112.985-89.252-128.037-107.104l-29.825 8.772c-20.469 6.02-34.526 24.806-34.526 46.143V504.5h384.774v-84.254c.001-21.336-14.055-40.122-34.524-46.143" style="fill:#6e5a64"/><circle cx="139.77" cy="219.93" r="12.02" style="fill:#ffd164"/><circle cx="372.23" cy="219.93" r="12.02" style="fill:#ffd164"/><path d="M215.919 296.081 256 280.048l40.081 16.032-23.076 23.076c-9.391 9.391-24.618 9.391-34.01 0z" style="fill:#64505a"/><path d="M207.903 168.338a7.5 7.5 0 0 0-7.5 7.5v8.016c0 4.142 3.357 7.5 7.5 7.5s7.5-3.358 7.5-7.5v-8.016a7.5 7.5 0 0 0-7.5-7.5M304.097 168.338a7.5 7.5 0 0 0-7.5 7.5v8.016c0 4.142 3.357 7.5 7.5 7.5s7.5-3.358 7.5-7.5v-8.016a7.5 7.5 0 0 0-7.5-7.5M256 247.467c11.896 0 22.856-3.804 29.315-10.177a7.5 7.5 0 0 0 .072-10.606 7.497 7.497 0 0 0-10.605-.072c-2.738 2.701-9.301 5.855-18.782 5.855s-16.044-3.154-18.782-5.855a7.5 7.5 0 1 0-10.533 10.678c6.459 6.373 17.419 10.177 29.315 10.177"/><path d="m415.979 366.908-84.486-24.849c-6.994-2.057-11.879-8.585-11.879-15.876v-34.435a111.36 111.36 0 0 0 42.03-55.442 19.4 19.4 0 0 0 10.591 3.146c10.766 0 19.524-8.759 19.524-19.524 0-3.828-1.124-7.391-3.035-10.408 6.003-4.501 10.146-11.216 10.91-18.844.777-7.771-1.765-15.53-6.976-21.288a27.4 27.4 0 0 0-3.292-3.08c12.087-11.645 18.425-24.816 18.425-38.565 0-21.246-15.096-40.298-40.081-54.439V45.319c0-13.1-7.975-24.685-20.317-29.514C320.966 5.465 289.362 0 256 0s-64.966 5.465-91.393 15.805c-12.343 4.829-20.317 16.414-20.317 29.514v27.984c-24.985 14.142-40.081 33.194-40.081 54.439 0 13.837 6.416 27.082 18.649 38.779-5.777 4.497-9.746 11.076-10.492 18.526-.778 7.771 1.764 15.531 6.975 21.289a27.4 27.4 0 0 0 3.774 3.448 19.37 19.37 0 0 0-2.874 10.144c0 10.766 8.759 19.524 19.524 19.524 3.902 0 7.533-1.163 10.586-3.143 10.025 29.198 31.918 53.411 61.314 66.125l22.026 22.026c6.151 6.151 14.229 9.226 22.309 9.226 8.078 0 16.158-3.076 22.309-9.226l22.025-22.025a113 113 0 0 0 4.279-1.957v25.705c0 13.898 9.313 26.345 22.646 30.267l44.309 13.032c-17.091 19.313-63.87 68.804-115.568 94.608-51.646-25.779-98.46-75.29-115.566-94.609l44.306-13.031c13.334-3.922 22.646-16.368 22.646-30.267v-6.053c0-4.142-3.357-7.5-7.5-7.5s-7.5 3.358-7.5 7.5v6.053c0 7.291-4.885 13.819-11.879 15.876l-84.486 24.849c-23.498 6.912-39.909 28.845-39.909 53.338V504.5a7.5 7.5 0 0 0 7.5 7.5 7.5 7.5 0 0 0 7.5-7.5v-84.254c0-17.885 11.983-33.9 29.142-38.947l24.33-7.156c12.516 14.752 66.39 75.538 128.183 105.061a7.49 7.49 0 0 0 6.466 0c61.793-29.523 115.667-90.309 128.183-105.061l24.33 7.156c17.158 5.047 29.142 21.063 29.142 38.947V504.5c0 4.142 3.357 7.5 7.5 7.5s7.5-3.358 7.5-7.5v-84.254c0-24.494-16.411-46.427-39.909-53.338m-43.745-142.456c-2.495 0-4.524-2.03-4.524-4.524s2.029-4.524 4.524-4.524 4.524 2.029 4.524 4.524-2.029 4.524-4.524 4.524M159.29 45.319c0-6.88 4.232-12.982 10.782-15.545C194.775 20.109 224.488 15 256 15s61.225 5.109 85.928 14.774c6.55 2.563 10.782 8.665 10.782 15.545v20.589C326.623 54.731 293.061 48.097 256 48.097s-70.623 6.635-96.71 17.811zm-19.524 179.133c-2.495 0-4.524-2.03-4.524-4.524s2.029-4.524 4.524-4.524 4.524 2.029 4.524 4.524-2.029 4.524-4.524 4.524m127.935 89.402c-6.451 6.452-16.951 6.452-23.402 0l-15.034-15.033L256 288.126l26.735 10.694zm28.278-25.891L263.5 274.971v-2.939c0-4.142-3.357-7.5-7.5-7.5s-7.5 3.358-7.5 7.5v2.939l-32.481 12.993c-34.562-15.687-56.729-49.922-56.729-88.078 0-4.142-3.357-7.5-7.5-7.5s-7.5 3.358-7.5 7.5v.516h-4.524a12.57 12.57 0 0 1-9.303-4.131c-2.407-2.66-3.533-6.115-3.171-9.729.63-6.292 6.611-11.22 13.617-11.22h10.881c12.976 0 23.532-10.557 23.532-23.532v-32.063c0-3.704 5.471-10.018 20.89-15.625 15.854-5.765 37.087-8.94 59.788-8.94 13.465 0 26.851 1.165 38.71 3.37 4.075.762 7.988-1.93 8.745-6.003a7.5 7.5 0 0 0-6.003-8.744c-12.932-2.404-26.878-3.623-41.452-3.623-24.405 0-47.459 3.496-64.914 9.843-25.427 9.246-30.764 21.266-30.764 29.722v32.063c0 4.705-3.827 8.532-8.532 8.532h-13.233c-9.243-7.327-19.348-18.546-19.348-32.58 0-35.042 62.643-64.646 136.791-64.646S392.791 92.7 392.791 127.742c0 14.055-10.146 25.285-19.348 32.58H360.21c-4.705 0-8.532-3.828-8.532-8.532v-32.063c0-6.721-3.487-16.533-20.099-25.108a7.501 7.501 0 0 0-6.88 13.329c7.501 3.872 11.979 8.276 11.979 11.779v32.063c0 12.976 10.557 23.532 23.532 23.532h12.024c3.536 0 6.927 1.505 9.302 4.13 2.407 2.66 3.533 6.115 3.172 9.729-.63 6.292-6.61 11.221-13.616 11.221h-3.386v-.438a7.5 7.5 0 0 0-7.497-7.5h-.003a7.5 7.5 0 0 0-7.5 7.495c-.028 38.115-22.197 72.33-56.727 88.004"/><path d="M223.419 151.79a7.5 7.5 0 0 0-7.5-7.5h-16.032c-4.143 0-7.5 3.358-7.5 7.5s3.357 7.5 7.5 7.5h16.032a7.5 7.5 0 0 0 7.5-7.5M296.081 159.29h16.032c4.143 0 7.5-3.358 7.5-7.5s-3.357-7.5-7.5-7.5h-16.032c-4.143 0-7.5 3.358-7.5 7.5s3.357 7.5 7.5 7.5"/></svg>