<svg xmlns="http://www.w3.org/2000/svg" xml:space="preserve" viewBox="0 0 512 512"><path d="M256.001 7.5c-57.553 0-104.21 17.945-104.21 40.081v40.081h208.42V47.581c0-22.136-46.657-40.081-104.21-40.081" style="fill:#ffe17d"/><ellipse cx="256.001" cy="159.81" rx="168.34" ry="104.21" style="fill:#ffd164"/><path d="M403.904 349.76c-4.746-12.614-11.628-35.433-11.628-61.695V159.807c0-39.845-61.012-72.145-136.274-72.145s-136.274 32.3-136.274 72.145v128.258c0 26.262-6.882 49.081-11.628 61.695-2.542 6.754-.358 14.289 5.426 18.605 9.317 6.953 25.35 17.286 48.491 26.68 60.08 24.389 127.892 24.389 187.972 0 23.141-9.394 39.174-19.727 48.491-26.68 5.781-4.316 7.965-11.851 5.424-18.605" style="fill:#b67f5f"/><path d="m408.283 413.013-82.792-29.221a32.065 32.065 0 0 1-21.393-30.237v-49.459h-96.194v49.459a32.06 32.06 0 0 1-21.393 30.236l-82.793 29.221c-19.23 6.787-32.089 24.962-32.089 45.354V504.5h368.742v-46.132c.001-20.392-12.858-38.568-32.088-45.355" style="fill:#f7d291"/><path d="M207.904 341.939c13.042 5.808 27.268 9.411 42.305 10.118q2.911.137 5.792.137c17.103 0 33.353-3.645 48.097-10.11v-37.987h-96.194z" style="fill:#f0c382"/><path d="M328.146 159.806h-12.712a8.02 8.02 0 0 1-5.668-2.348l-37.733-37.733v40.081h-88.177c-17.709 0-32.065 14.356-32.065 32.065v31.012c0 55.714 43.354 102.427 99.002 105.136 59.92 2.916 109.417-44.803 109.417-104.083v-32.065c.001-17.709-14.355-32.065-32.064-32.065" style="fill:#ffe1a0"/><path d="M328.146 167.823v-8.016h-16.032l-40.081-40.081v40.081h-88.177c-17.709 0-32.065 14.356-32.065 32.065v28.852c0 47.061 29.921 90.101 75.102 103.267 15.682 4.57 30.874 5.097 45.157 2.888-50.6-7.969-88.195-53.501-88.195-105.886v-5.072c0-17.709 14.356-32.065 32.065-32.065h96.194c8.854-.001 16.032-7.179 16.032-16.033" style="fill:#f7d291"/><path d="m408.283 413.013-46.24-16.32c-15.156 44.045-56.852 75.742-106.042 75.742s-90.886-31.697-106.042-75.742l-46.24 16.32c-19.23 6.787-32.089 24.962-32.089 45.354V504.5h368.742v-46.132c0-20.392-12.859-38.568-32.089-45.355" style="fill:#c9c6ca"/><path d="M256.001 111.71c75.262 0 136.274 32.3 136.274 72.145v-24.048c0-39.845-61.012-72.145-136.274-72.145s-136.274 32.3-136.274 72.145v24.048c0-39.845 61.012-72.145 136.274-72.145" style="fill:#a06e50"/><path d="M127.302 404.69c18.456 53.389 69.035 91.794 128.699 91.794S366.243 458.079 384.7 404.69l-22.658-7.997c-15.155 44.045-56.851 75.742-106.041 75.742s-90.886-31.697-106.041-75.742z" style="fill:#b7b2b8"/><path d="M207.904 200.403a7.5 7.5 0 0 0-7.5 7.5v8.016a7.5 7.5 0 0 0 15 0v-8.016a7.5 7.5 0 0 0-7.5-7.5M304.098 200.403a7.5 7.5 0 0 0-7.5 7.5v8.016a7.5 7.5 0 0 0 15 0v-8.016a7.5 7.5 0 0 0-7.5-7.5M256.001 279.532c11.897 0 22.857-3.805 29.316-10.177a7.5 7.5 0 0 0-10.535-10.677c-2.737 2.701-9.299 5.855-18.781 5.855s-16.043-3.154-18.781-5.855a7.5 7.5 0 0 0-10.535 10.677c6.459 6.373 17.419 10.177 29.316 10.177"/><path d="m410.779 405.941-38.872-13.719c13.707-6.361 23.931-12.839 30.725-17.744 8.597-6.207 11.987-17.51 8.243-27.488-4.146-11.046-11.1-33.389-11.1-58.925v-63.859c20.989-18.903 32.064-41.104 32.064-64.399 0-30.53-18.772-58.964-52.858-80.064a176 176 0 0 0-11.271-6.396V47.581C367.71 16.676 310.155 0 256.001 0S144.292 16.676 144.292 47.581v25.766a176 176 0 0 0-11.271 6.396c-34.086 21.101-52.858 49.535-52.858 80.064 0 23.295 11.076 45.496 32.064 64.399v63.859c0 25.536-6.954 47.879-11.1 58.925-3.744 9.977-.354 21.28 8.243 27.488 6.794 4.905 17.018 11.383 30.725 17.744l-38.872 13.719c-22.187 7.831-37.093 28.899-37.093 52.427V504.5a7.5 7.5 0 0 0 15 0v-46.132c0-17.18 10.885-32.564 27.085-38.282l39.248-13.852c18.467 44.323 62.123 73.702 110.538 73.702 24.865 0 48.711-7.553 68.959-21.843 18.604-13.129 32.914-30.993 41.594-51.854l39.232 13.847c16.201 5.718 27.085 21.102 27.085 38.282V504.5a7.5 7.5 0 0 0 15 0v-46.132c.001-23.528-14.906-44.597-37.092-52.427M159.292 47.581c0-13.605 36.791-32.581 96.709-32.581s96.709 18.976 96.709 32.581v18.75c-28.436-11.86-61.816-18.234-96.709-18.234s-68.273 6.374-96.709 18.234zM118.15 362.315c-3.178-2.294-4.375-6.335-2.979-10.055 5.5-14.655 12.056-37.688 12.056-64.196V159.806c0-35.041 58.972-64.645 128.774-64.645 24.813 0 48.95 3.649 69.801 10.552a7.5 7.5 0 1 0 4.715-14.239c-22.353-7.401-48.12-11.313-74.516-11.313-37.602 0-73.069 7.814-99.87 22.002-28.313 14.989-43.905 35.46-43.905 57.643v42.912c-11.213-13.358-17.064-27.961-17.064-42.912 0-25.141 16.249-49.046 45.753-67.31 30.626-18.958 71.497-29.399 115.086-29.399s84.46 10.441 115.086 29.399c29.504 18.265 45.753 42.169 45.753 67.31 0 14.95-5.851 29.553-17.064 42.912v-42.912c0-20.544-13.637-39.921-38.4-54.563a7.5 7.5 0 1 0-7.634 12.911c20.013 11.833 31.035 26.625 31.035 41.651v128.258c0 26.507 6.556 49.541 12.056 64.196 1.396 3.72.199 7.761-2.979 10.055-8.44 6.093-22.678 14.844-43.019 22.468l-22.847-8.063c-9.803-3.46-16.389-12.769-16.389-23.164v-32.754c33.507-19.306 56.113-55.496 56.113-96.866V191.87c0-21.816-17.749-39.564-39.564-39.564h-12.926l-37.884-37.884a7.5 7.5 0 0 0-12.803 5.303v32.581h-40.596a7.5 7.5 0 0 0 0 15h48.096a7.5 7.5 0 0 0 7.5-7.5v-21.974l27.277 27.277a7.5 7.5 0 0 0 5.303 2.197h16.032c13.545 0 24.564 11.02 24.564 24.564v32.065c0 53.326-43.384 96.71-96.709 96.71s-96.709-43.384-96.709-96.71V191.87c0-13.545 11.02-24.564 24.564-24.564h8.02a7.5 7.5 0 0 0 0-15h-8.02c-21.816 0-39.564 17.749-39.564 39.564v32.065c0 41.37 22.605 77.56 56.113 96.866v32.754c0 10.395-6.586 19.704-16.389 23.164l-22.847 8.063c-20.343-7.622-34.58-16.373-43.02-22.467m198.162 83.522c-17.705 12.494-38.56 19.098-60.311 19.098-42.072 0-80.032-25.361-96.367-63.704l29.374-10.367c15.789-5.572 26.397-20.565 26.397-37.309v-25.548c12.589 4.928 26.282 7.638 40.597 7.638s28.007-2.71 40.597-7.638v25.548c0 16.743 10.608 31.737 26.397 37.309l29.384 10.371c-7.625 17.918-20.016 33.274-36.068 44.602"/><path d="M192.562 186.46a7.503 7.503 0 0 0 8.929 5.724l16.032-3.507a7.5 7.5 0 1 0-3.205-14.653l-16.032 3.507a7.5 7.5 0 0 0-5.724 8.929M294.479 188.677l16.032 3.507q.812.176 1.61.175a7.502 7.502 0 0 0 1.595-14.828l-16.032-3.507c-4.046-.885-8.044 1.677-8.929 5.724s1.677 8.044 5.724 8.929"/></svg>