<svg xmlns="http://www.w3.org/2000/svg" xml:space="preserve" viewBox="0 0 512 512"><circle cx="167.82" cy="223.94" r="88.18" style="fill:#5a4650"/><circle cx="344.18" cy="223.94" r="88.18" style="fill:#5a4650"/><path d="M256 7.5c-75.262 0-136.274 61.012-136.274 136.274v48.097h272.548v-48.097C392.274 68.512 331.262 7.5 256 7.5" style="fill:#64505a"/><path d="m408.282 396.616-82.792-29.221a32.065 32.065 0 0 1-21.393-30.237v-65.126h-96.194v65.127a32.06 32.06 0 0 1-21.393 30.236l-82.793 29.221c-19.229 6.787-32.089 24.962-32.089 45.354v46.497H440.37V441.97c.001-20.391-12.858-38.567-32.088-45.354" style="fill:#e3aa75"/><path d="m408.282 396.616-72.266-25.506c-1.531 42.924-36.717 77.277-80.016 77.277s-78.484-34.353-80.015-77.277l-72.267 25.506c-19.23 6.787-32.089 24.962-32.089 45.355v46.497h368.742V441.97c0-20.392-12.859-38.567-32.089-45.354" style="fill:#ff8087"/><path d="M207.903 326.241c14.753 6.391 31.02 9.92 48.097 9.92s33.344-3.529 48.097-9.92v-38.177h-96.194z" style="fill:#d29b6e"/><path d="M372.234 175.839h-8.016s-10.734-1.293-14.018-2.202c-18.212-5.043-57.641-20.789-87.51-66.825-3.147-4.851-10.232-4.851-13.378 0-29.869 46.036-69.298 61.782-87.51 66.825-3.284.909-14.018 2.202-14.018 2.202h-8.016c-11.068 0-20.04 8.972-20.04 20.04s8.972 20.04 20.04 20.04h12.429c4.106 53.795 48.958 96.194 103.805 96.194s99.699-42.398 103.805-96.194h12.429c11.068 0 20.04-8.973 20.04-20.04-.002-11.068-8.974-20.04-20.042-20.04" style="fill:#f5b97d"/><path d="M255.998 141.807c15.758 17.039 40.157 38.628 70.363 50.065 12.463 4.719 25.833-4.456 25.833-17.783v-.013c-.784-.151-1.493-.299-1.994-.438-18.208-5.042-57.621-20.781-87.487-66.789-3.154-4.859-10.261-4.876-13.414-.017-21.107 32.522-46.924 49.863-66.7 59.042-1.335.619-12.13 4.989-13.379 5.419-2.712.936-5.255 1.746-7.418 2.345-3.284.909-14.018 2.202-14.018 2.202h-6.873c-10.483 0-20.035 7.542-21.08 17.973-1.201 11.996 8.187 22.108 19.937 22.108h12.429c4.106 53.795 48.958 96.194 103.805 96.194 5.466 0 10.793-.547 16.032-1.359-45.768-7.087-81.73-43.847-87.399-90.052-.163-1.33-.324-3.266-.47-5.575-.8-12.585 5.877-24.543 17.067-30.357 23.031-11.969 41.827-28.975 54.766-42.965" style="fill:#e3aa75"/><path d="m304.089 328.145.008.003v-.261zM207.903 327.887v.261l.008-.003z" style="fill:#ffd164"/><path d="M219.927 231.952c0 17.709 16.15 32.065 36.073 32.065s36.073-14.356 36.073-32.065z" style="fill:#fff"/><path d="M283.395 10.258a95.73 95.73 0 0 0-11.363 45.339c0 53.126 43.067 96.194 96.194 96.194 8.319 0 16.349-1.167 24.048-3.153v-4.864c0-65.878-46.747-120.835-108.879-133.516" style="fill:#6e5a64"/><path d="M215.403 192.568v-8.016c0-4.142-3.357-7.5-7.5-7.5s-7.5 3.358-7.5 7.5v8.016c0 4.142 3.357 7.5 7.5 7.5s7.5-3.358 7.5-7.5M304.097 177.052a7.5 7.5 0 0 0-7.5 7.5v8.016c0 4.142 3.357 7.5 7.5 7.5s7.5-3.358 7.5-7.5v-8.016a7.5 7.5 0 0 0-7.5-7.5"/><path d="m410.778 389.909-82.793-29.221c-9.803-3.46-16.389-12.769-16.389-23.165v-23.599c10.384 3.775 21.298 5.689 32.584 5.689 52.757 0 95.677-42.92 95.677-95.677 0-31.087-14.912-59.889-40.083-77.865v-2.296C399.774 64.497 335.277 0 256 0S112.226 64.497 112.226 143.774v2.298c-25.169 17.977-40.08 46.778-40.08 77.864 0 52.757 42.921 95.677 95.677 95.677 11.285 0 22.198-1.913 32.581-5.688v23.598c0 10.396-6.586 19.705-16.389 23.165l-82.793 29.221c-22.187 7.83-37.093 28.899-37.093 52.427V504.5c0 4.142 3.357 7.5 7.5 7.5s7.5-3.358 7.5-7.5v-8.532h353.742v8.532c0 4.142 3.357 7.5 7.5 7.5s7.5-3.358 7.5-7.5v-62.165c0-23.527-14.906-44.596-37.093-52.426m18.117 34.946H322.849c10.191-12.001 17.231-26.779 19.763-43.098l63.174 22.296c10.37 3.66 18.556 11.285 23.109 20.802m-4.038-200.919c0 44.486-36.191 80.677-80.677 80.677-8.874 0-17.475-1.397-25.69-4.163 25.611-17.351 43.664-45.044 48.128-77.031h5.606c15.082 0 27.365-12.187 27.533-27.229.004-.104.016-.206.016-.311V165.46c15.908 15.096 25.084 36.084 25.084 58.476M256 15c71.007 0 128.774 57.768 128.774 128.774v27.602a27.36 27.36 0 0 0-12.549-3.037c.002 0-3.437 0-3.902-.002l-.105-.001c-7.251 0-14.683-1.029-22.089-3.059a7.5 7.5 0 1 0-3.965 14.467c8.697 2.384 17.463 3.592 26.054 3.592v-.028c.944.031 2.211.031 4.008.031 6.915 0 12.541 5.625 12.541 12.54s-5.626 12.541-12.541 12.541h-4.53c.001-.172.007-.344.007-.516 0-4.142-3.357-7.5-7.5-7.5s-7.5 3.358-7.5 7.5c0 53.326-43.384 96.709-96.71 96.709s-96.71-43.384-96.71-96.709c0-4.142-3.357-7.5-7.5-7.5s-7.5 3.358-7.5 7.5c0 .173.006.344.007.516h-4.531c-6.889 0-12.494-5.584-12.536-12.463q.002-.038.004-.077v-.154c.084-6.843 5.669-12.386 12.532-12.386 1.797 0 3.064 0 4.009-.031v.028c53.637 0 96.062-46.498 111.813-66.49.051-.064.169-.215.413-.215s.362.151.413.215c9.598 12.181 29.663 34.914 56.227 50.302a7.5 7.5 0 0 0 10.249-2.73 7.5 7.5 0 0 0-2.729-10.249c-24.4-14.135-43.03-35.267-51.963-46.605-2.971-3.77-7.416-5.933-12.196-5.933s-9.226 2.163-12.196 5.932c-43.214 54.851-84.35 60.772-100.029 60.772l-.104.001c-.46.002-3.906.003-3.905.002-4.512 0-8.77 1.098-12.532 3.029v-27.594C127.226 72.768 184.993 15 256 15M87.146 223.936c0-22.39 9.176-43.377 25.08-58.472v30.108c-.001.103-.008.205-.008.308 0 15.186 12.354 27.541 27.54 27.541h5.607c4.465 31.989 22.521 59.684 48.135 77.035-8.212 2.763-16.808 4.158-25.677 4.158-44.486-.001-80.677-36.193-80.677-80.678m101.861 150.897c15.789-5.573 26.396-20.566 26.396-37.309v-25.545c12.587 4.926 26.277 7.635 40.589 7.635 14.317 0 28.013-2.711 40.604-7.641v25.551c0 16.743 10.607 31.736 26.396 37.309l5.177 1.827c-4.198 36.318-35.169 64.227-72.171 64.227-36.902 0-67.971-27.949-72.173-64.227zM79.129 480.968v-38.632c0-.832.033-1.658.084-2.48h24.481c4.143 0 7.5-3.358 7.5-7.5s-3.357-7.5-7.5-7.5H83.105c4.553-9.517 12.739-17.142 23.109-20.802l63.184-22.3c2.538 16.311 9.594 31.096 19.808 43.102h-53.448c-4.143 0-7.5 3.358-7.5 7.5s3.357 7.5 7.5 7.5h69.837c14.32 10.106 31.745 16.032 50.405 16.032 18.719 0 36.158-5.924 50.475-16.032h126.313c.051.823.084 1.649.084 2.48v38.632z"/><path d="M292.072 224.452h-72.145a7.5 7.5 0 0 0-7.5 7.5c0 21.816 19.547 39.564 43.572 39.564s43.572-17.749 43.572-39.564a7.5 7.5 0 0 0-7.499-7.5M256 256.516c-12.714 0-23.515-7.176-27.211-17.064h54.422c-3.696 9.888-14.497 17.064-27.211 17.064"/></svg>