<svg xmlns="http://www.w3.org/2000/svg" xml:space="preserve" viewBox="0 0 512.003 512.003"><path d="m413.859 358.071-84.486-24.849a24.05 24.05 0 0 1-17.263-23.071v-38.119H199.885v38.119a24.05 24.05 0 0 1-17.263 23.071l-84.486 24.849c-20.469 6.02-34.526 24.806-34.526 46.142V504.5h384.774V404.214c.001-21.337-14.056-40.123-34.525-46.143" style="fill:#f7d291"/><path d="m413.859 358.071-84.486-24.849c-1.429-.42 8.079 3.594 6.786 2.939l-80.165 24.048-80.157-24.048c-1.293.655 8.214-3.359 6.786-2.939l-84.486 24.849c-20.469 6.02-34.526 24.806-34.526 46.142V504.5h384.774V404.214c0-21.337-14.057-40.123-34.526-46.143" style="fill:#6e5a64"/><path d="m333.408 349.443-9.558-9.558-67.852 20.325-67.852-20.325-9.558 9.558a64.13 64.13 0 0 0-18.783 45.346V504.5h192.387V394.789a64.13 64.13 0 0 0-18.784-45.346" style="fill:#edebed"/><path d="M235.957 360.21h40.08V504.5h-40.08z" style="fill:#fff"/><path d="M199.885 297.937c16.841 8.996 35.939 14.176 56.113 14.176s39.272-5.18 56.113-14.176v-25.905H199.885z" style="fill:#f0c382"/><path d="M372.232 151.79h-4.008V71.629l-144.29-24.048-80.161 24.048v80.161h-4.008c-11.068 0-20.04 8.972-20.04 20.04s8.972 20.04 20.04 20.04h12.429c4.106 53.795 48.958 96.194 103.805 96.194s99.699-42.398 103.805-96.194h12.429c11.068 0 20.04-8.973 20.04-20.04-.001-11.068-8.973-20.04-20.041-20.04" style="fill:#ffe1a0"/><path d="M198.471 106.07c9.609-4.192 19.755-9.713 29.799-17.459 27.039 13.368 80.67 35.575 139.953 39.13V71.629l-144.29-24.048-80.161 24.048v80.161h-2.865c-10.483 0-20.035 7.542-21.08 17.973-1.201 11.996 8.186 22.108 19.936 22.108h12.429c4.106 53.795 48.958 96.194 103.805 96.194 5.484 0 10.83-.534 16.083-1.351-49.946-7.708-88.228-50.754-88.228-102.859v-55.683c0-9.642 5.782-18.247 14.619-22.102" style="fill:#f7d291"/><path d="m119.724 504.5-14.123-63.554a16.03 16.03 0 0 1 4.314-14.814l25.841-25.841-11.889-17.833c-2.799-4.198-3.398-9.47-1.805-14.257 19.114-57.442 77.823-72.119 77.823-72.119v15.463a40.08 40.08 0 0 1-11.739 28.341l-9.558 9.558a64.13 64.13 0 0 0-18.783 45.346V504.5" style="fill:#64505a"/><path d="M384.256 87.661c0-44.272-35.889-80.161-80.161-80.161h-96.194c-35.417 0-64.129 28.712-64.129 64.129v24.048s38.076-.067 74.707-28.319c4.752-3.665 11.157-4.289 16.551-1.658 27.638 13.48 81.994 35.906 141.033 37.857 4.491.148 8.192-3.557 8.192-8.05v-7.846z" style="fill:#a06e50"/><path d="M384.185 86.266c-.752-43.621-36.29-78.766-80.09-78.766h-92.05c21.659 24.77 74.205 70.353 172.14 78.766" style="fill:#b67f5f"/><path d="m392.272 504.5 14.123-63.554a16.03 16.03 0 0 0-4.314-14.814l-25.841-25.841 11.889-17.833c2.799-4.198 3.398-9.47 1.805-14.257-19.114-57.442-77.823-72.119-77.823-72.119v15.463a40.08 40.08 0 0 0 11.739 28.341l9.558 9.558a64.13 64.13 0 0 1 18.783 45.346V504.5" style="fill:#64505a"/><path d="m308.526 386.474-52.528-26.264 52.528-26.264c5.33-2.665 11.601 1.211 11.601 7.17v38.188c0 5.959-6.271 9.835-11.601 7.17M203.47 386.474l52.528-26.264-52.528-26.264c-5.33-2.665-11.601 1.211-11.601 7.17v38.188c0 5.959 6.271 9.835 11.601 7.17" style="fill:#e6646e"/><path d="M207.901 152.307a7.5 7.5 0 0 0-7.5 7.5v8.016a7.5 7.5 0 0 0 15 0v-8.016a7.5 7.5 0 0 0-7.5-7.5M304.094 152.307a7.5 7.5 0 0 0-7.5 7.5v8.016a7.5 7.5 0 0 0 15 0v-8.016a7.5 7.5 0 0 0-7.5-7.5M285.314 221.258a7.5 7.5 0 0 0 .071-10.606 7.5 7.5 0 0 0-10.606-.071c-2.737 2.701-9.298 5.855-18.781 5.855s-16.043-3.154-18.781-5.855a7.5 7.5 0 1 0-10.535 10.677c6.459 6.373 17.418 10.177 29.316 10.177s22.857-3.804 29.316-10.177M256.078 400.807h-.08c-4.142 0-7.46 3.358-7.46 7.5s3.398 7.5 7.54 7.5a7.5 7.5 0 0 0 0-15M256.078 464.936h-.08c-4.142 0-7.46 3.358-7.46 7.5s3.398 7.5 7.54 7.5a7.5 7.5 0 0 0 0-15M215.917 128.258h-16.032a7.5 7.5 0 0 0 0 15h16.032a7.5 7.5 0 0 0 0-15M296.078 143.258h16.032a7.5 7.5 0 0 0 0-15h-16.032a7.5 7.5 0 0 0 0 15M352.191 416.841a7.5 7.5 0 0 0-7.5 7.5V504.5a7.5 7.5 0 0 0 15 0v-80.159a7.5 7.5 0 0 0-7.5-7.5"/><path d="m415.976 350.876-30.042-8.836c-20.488-33.077-53.169-47.028-66.323-51.506v-14.91c25.013-17.396 42.617-44.741 47.019-76.253h4.459c14.617 0 27.154-10.861 28.543-24.727.778-7.771-1.765-15.531-6.975-21.288a27.6 27.6 0 0 0-16.933-8.843V111.05q4.25.142 8.533.143a7.5 7.5 0 0 0 7.5-7.5V87.661C391.756 39.325 352.431 0 304.094 0h-96.193c-39.496 0-71.629 32.133-71.629 71.629v73.029c-12.55 2.006-22.667 11.986-23.907 24.358-.778 7.771 1.764 15.531 6.974 21.289a27.6 27.6 0 0 0 20.425 9.067h5.598c4.399 31.522 22.003 58.87 47.023 76.264v14.899c-13.154 4.478-45.835 18.429-66.323 51.506l-30.042 8.836c-23.498 6.912-39.909 28.845-39.909 53.338V504.5a7.5 7.5 0 0 0 15 0V404.214c0-17.885 11.983-33.9 29.142-38.947l16.667-4.902a115 115 0 0 0-1.973 5.466c-2.365 7.107-1.388 14.684 2.681 20.786l8.479 12.718-21.494 21.494c-5.72 5.719-8.086 13.848-6.332 21.745l14.123 63.554a7.503 7.503 0 0 0 8.948 5.695 7.5 7.5 0 0 0 5.694-8.948l-14.123-63.554a8.49 8.49 0 0 1 2.296-7.884l25.842-25.841a7.5 7.5 0 0 0 .937-9.463l-11.889-17.834c-1.484-2.226-1.823-5.043-.929-7.729 13.087-39.329 46.752-57.316 63.207-63.967v4.943c0 8.703-3.389 16.884-9.542 23.038l-9.559 9.559c-13.529 13.529-20.979 31.517-20.979 50.649V504.5a7.5 7.5 0 0 0 15 0V394.789c0-15.126 5.89-29.347 16.586-40.043l.479-.479v25.036a15.42 15.42 0 0 0 7.359 13.199 15.47 15.47 0 0 0 8.148 2.332c2.366 0 4.74-.548 6.948-1.652l49.174-24.587 49.174 24.587a15.5 15.5 0 0 0 6.948 1.652c2.826 0 5.641-.782 8.148-2.332a15.42 15.42 0 0 0 7.359-13.199v-25.036l.479.479c10.696 10.696 16.586 24.917 16.586 40.043a7.5 7.5 0 0 0 15 0c0-19.133-7.451-37.121-20.979-50.649l-9.559-9.559c-6.154-6.153-9.542-14.335-9.542-23.038v-4.976c16.433 6.594 50.061 24.493 63.207 64 .894 2.686.555 5.503-.929 7.729l-11.889 17.833a7.5 7.5 0 0 0 .937 9.463l25.842 25.841a8.49 8.49 0 0 1 2.296 7.884l-14.123 63.554a7.5 7.5 0 0 0 14.642 3.253l14.123-63.554c1.754-7.896-.612-16.025-6.332-21.745l-21.494-21.494 8.479-12.717c4.069-6.103 5.046-13.68 2.681-20.787q-.932-2.797-1.973-5.466l16.667 4.902c17.158 5.047 29.142 21.063 29.142 38.947V504.5a7.5 7.5 0 0 0 15 0V404.214c-.006-24.493-16.417-46.426-39.915-53.338M159.288 183.855a7.5 7.5 0 0 0-15 0v.516h-4.524a12.57 12.57 0 0 1-9.303-4.131c-2.407-2.66-3.533-6.115-3.17-9.729.63-6.292 6.612-11.221 13.617-11.221h2.864a7.5 7.5 0 0 0 7.5-7.5v-49.002c11.525-.986 34.145-4.485 52.773-16.903a7.5 7.5 0 0 0-8.32-12.48c-15.124 10.082-34.135 13.285-44.453 14.301V71.629c0-31.225 25.404-56.629 56.629-56.629h96.193c40.066 0 72.662 32.596 72.662 72.661v8.413c-81.97-2.583-156.071-46.366-156.98-46.909a7.5 7.5 0 0 0-7.718 12.862c3.049 1.829 69.41 41.127 148.665 48.105v41.658a7.5 7.5 0 0 0 7.5 7.5h4.008a12.57 12.57 0 0 1 9.303 4.13c2.407 2.66 3.533 6.115 3.171 9.729-.63 6.292-6.611 11.221-13.617 11.221h-3.385v-.439a7.5 7.5 0 0 0-7.497-7.5h-.003a7.5 7.5 0 0 0-7.5 7.495c-.039 53.286-43.421 96.638-96.706 96.638-53.325 0-96.709-43.383-96.709-96.709m96.71 111.709c17.412 0 33.906-4.012 48.613-11.153v27.132c0 5.148.826 10.167 2.389 14.919q-.93.327-1.828.775l-49.174 24.587-49.174-24.587a16 16 0 0 0-1.828-.775 47.7 47.7 0 0 0 2.389-14.92v-27.125c14.705 7.138 31.199 11.147 48.613 11.147m-55.882 84.202c-.096.048-.256.129-.502-.023-.245-.151-.245-.332-.245-.439v-38.188c0-.108 0-.288.245-.439a.5.5 0 0 1 .272-.087c.1 0 .175.038.23.065l39.111 19.556zm112.511-.462c0 .107 0 .288-.245.439-.246.152-.406.07-.502.023l-39.111-19.556 39.111-19.556c.097-.048.258-.128.502.022.245.151.245.332.245.439z"/></svg>