<svg xmlns="http://www.w3.org/2000/svg" xml:space="preserve" viewBox="0 0 512 512"><path d="M394.764 283.46c-13.622-16.711-35.842-39.488-50.585-51.508H167.824c-14.743 12.02-36.963 34.797-50.585 51.508-8.937 10.963-6.134 26.436 6.067 34.374 19.056 12.398 49.686 30.184 84.599 42.292h96.194c34.913-12.107 65.543-29.893 84.599-42.292 12.2-7.938 15.003-23.411 6.066-34.374" style="fill:#5a4650"/><path d="m408.283 396.981-82.792-29.221a32.065 32.065 0 0 1-21.393-30.237v-49.459h-96.194v49.459a32.06 32.06 0 0 1-21.393 30.236l-82.793 29.221c-19.229 6.787-32.089 24.962-32.089 45.354V504.5h368.742v-62.165c.001-20.392-12.858-38.567-32.088-45.354" style="fill:#b67f5f"/><path d="m408.283 396.981-64.105-22.625v33.951c0 13.282-10.767 24.048-24.048 24.048H191.872c-13.282 0-24.048-10.767-24.048-24.048v-33.951l-64.105 22.625c-19.23 6.787-32.089 24.962-32.089 45.354V504.5h368.742v-62.165c0-20.392-12.859-38.567-32.089-45.354" style="fill:#ffe17d"/><path d="M207.904 326.052c14.744 6.465 30.994 10.11 48.097 10.11s33.353-3.645 48.097-10.11v-37.987h-96.194z" style="fill:#a06e50"/><circle cx="256.001" cy="143.77" r="136.27" style="fill:#5a4650"/><path d="M256.001 312.113c-57.554 0-104.21-46.656-104.21-104.21v-40.081c0-57.553 46.656-104.21 104.21-104.21h104.21v144.29c0 57.555-46.657 104.211-104.21 104.211" style="fill:#cd916e"/><path d="M360.211 167.823V63.613h-104.21c-28.084 0-53.414 11.265-72.145 29.337v-.216c-.826.794-3.377 3.436-3.85 3.941l.068.064c-17.461 18.625-28.283 43.54-28.283 71.085v40.081c0 57.553 46.656 104.21 104.21 104.21 5.466 0 10.793-.547 16.032-1.359-49.921-7.729-88.177-50.764-88.177-102.851v-74.746c0-13.016 14.61-20.482 25.276-13.022 44.229 30.931 96.695 47.686 151.079 47.686" style="fill:#b67f5f"/><path d="M392.165 141.596C390.989 67.35 330.528 7.5 256.001 7.5c-35.26 0-67.286 13.506-91.482 35.48 43.62 60.997 114.985 100.794 195.692 100.794 10.841 0 21.493-.788 31.954-2.178" style="fill:#64505a"/><path d="M207.904 183.855c13.45 0 24.925 8.299 29.687 20.04 1.508-3.718 2.378-7.765 2.378-12.024 0-17.709-14.355-32.065-32.065-32.065s-32.065 14.356-32.065 32.065c0 4.259.87 8.306 2.378 12.024 4.762-11.741 16.237-20.04 29.687-20.04M304.098 183.855c13.45 0 24.925 8.299 29.687 20.04 1.508-3.718 2.378-7.765 2.378-12.024 0-17.709-14.355-32.065-32.065-32.065s-32.065 14.356-32.065 32.065c0 4.259.87 8.306 2.378 12.024 4.762-11.741 16.237-20.04 29.687-20.04" style="fill:#b67f5f"/><path d="M207.904 200.068a7.5 7.5 0 0 0 7.5-7.5v-8.016a7.5 7.5 0 0 0-15 0v8.016a7.5 7.5 0 0 0 7.5 7.5M304.098 200.068a7.5 7.5 0 0 0 7.5-7.5v-8.016a7.5 7.5 0 0 0-15 0v8.016a7.5 7.5 0 0 0 7.5 7.5"/><path d="m410.779 389.909-80.678-28.475c26.184-11.604 48.826-26.148 64.079-37.048 7.009-5.009 11.604-12.442 12.938-20.931 1.323-8.417-.741-16.815-5.812-23.648-10.232-13.788-22.814-27.561-37.433-40.993 23.166-26.273 35.902-59.924 35.902-95.04C399.775 64.497 335.278 0 256.001 0S112.227 64.497 112.227 143.774c0 35.066 12.747 68.778 35.901 95.041-14.618 13.432-27.2 27.205-37.432 40.992-5.071 6.833-7.135 15.231-5.812 23.648 1.334 8.489 5.929 15.922 12.938 20.931 15.253 10.9 37.895 25.444 64.078 37.048l-80.678 28.474c-22.187 7.83-37.093 28.899-37.093 52.427V504.5a7.5 7.5 0 0 0 15 0v-62.165c0-17.18 10.885-32.564 27.085-38.282l54.108-19.097v23.351c0 17.396 14.152 31.548 31.548 31.548h.516V504.5a7.5 7.5 0 0 0 15 0v-64.645h8.533a7.5 7.5 0 0 0 0-15H191.87c-9.125 0-16.548-7.423-16.548-16.548v-28.645l13.684-4.83c15.789-5.573 26.397-20.566 26.397-37.309v-25.548c12.589 4.928 26.282 7.638 40.597 7.638s28.007-2.71 40.597-7.638v25.548c0 16.743 10.608 31.736 26.397 37.309l13.684 4.83v28.645c0 9.125-7.423 16.548-16.548 16.548h-72.146a7.5 7.5 0 0 0 0 15h72.146c17.396 0 31.548-14.152 31.548-31.548v-23.351l54.108 19.097c16.201 5.718 27.085 21.102 27.085 38.282V504.5a7.5 7.5 0 0 0 15 0v-62.165c.001-23.527-14.906-44.596-37.092-52.426M256.001 15c71.006 0 128.774 57.768 128.774 128.774 0 22.71-5.951 44.734-17.065 64.083v-57.256c.173 0 .343.005.516.005a7.5 7.5 0 0 0 0-15c-62.788 0-108.183-20.323-135.208-37.372-29.375-18.531-44.076-37.338-44.221-37.526a7.5 7.5 0 0 0-11.894 9.14c.642.837 16.093 20.739 47.487 40.678 26.506 16.834 69.583 36.63 128.32 39.667v10.13h-24.564c-.065 0-.129.008-.193.01a39.35 39.35 0 0 0-23.855-8.026c-16.311 0-30.346 9.923-36.391 24.048h-23.411c-6.046-14.125-20.08-24.048-36.391-24.048a39.35 39.35 0 0 0-23.855 8.026c-.065-.002-.128-.01-.193-.01h-24.293c1.419-20.757 8.779-39.033 21.968-54.399a7.5 7.5 0 0 0-11.383-9.769c-17.157 19.99-25.856 44.103-25.856 71.669v40.034a128.6 128.6 0 0 1-17.065-64.082C127.227 72.768 184.995 15 256.001 15m48.097 152.307c13.545 0 24.564 11.02 24.564 24.564s-11.02 24.564-24.564 24.564-24.564-11.02-24.564-24.564 11.019-24.564 24.564-24.564m-96.194 0c13.545 0 24.564 11.02 24.564 24.564s-11.02 24.564-24.564 24.564-24.564-11.02-24.564-24.564 11.019-24.564 24.564-24.564m-7.5 170.216c0 4.991-1.531 9.723-4.195 13.687-28.484-11.517-53.421-27.419-69.666-39.027-3.708-2.649-6.137-6.576-6.842-11.056-.693-4.409.386-8.805 3.039-12.379 8.696-11.717 19.234-23.463 31.391-35.012 9.697 21.469 25.986 39.346 46.272 51.034v32.753zm-41.112-129.62v-32.581h12.689a39.3 39.3 0 0 0-3.641 16.548c0 21.816 17.749 39.564 39.564 39.564s39.564-17.749 39.564-39.564c0-.173-.011-.344-.013-.516h17.091c-.002.173-.013.343-.013.516 0 21.816 17.749 39.564 39.564 39.564s39.564-17.749 39.564-39.564c0-5.906-1.31-11.51-3.641-16.548h12.689v32.581c0 53.326-43.384 96.709-96.709 96.709s-96.708-43.383-96.708-96.709m198.578 45.832c12.157 11.549 22.695 23.295 31.391 35.012 2.653 3.574 3.732 7.971 3.039 12.379-.705 4.48-3.134 8.407-6.841 11.056-16.245 11.609-41.183 27.51-69.667 39.027-2.664-3.963-4.195-8.695-4.195-13.687V304.77c20.287-11.689 36.576-29.566 46.273-51.035"/><path d="M274.782 242.645c-2.737 2.701-9.298 5.855-18.781 5.855s-16.043-3.154-18.781-5.855a7.5 7.5 0 1 0-10.535 10.677c6.459 6.373 17.418 10.177 29.316 10.177s22.857-3.805 29.316-10.177a7.5 7.5 0 0 0-10.535-10.677M232.033 456.919h-.08c-4.142 0-7.46 3.358-7.46 7.5s3.398 7.5 7.54 7.5a7.5 7.5 0 0 0 0-15"/></svg>