<svg xmlns="http://www.w3.org/2000/svg" xml:space="preserve" viewBox="0 0 512 512"><path d="M400.29 312.113c-24.048-48.097-24.048-96.194-24.048-96.194v-80.161L256 119.73l-120.242 16.028v80.161s0 48.097-24.048 96.194l32.065 16.032-32.065 40.081c87.375 58.25 201.206 58.25 288.581 0l-32.065-40.081z" style="fill:#ff8250"/><path d="M408.282 396.981 325.49 367.76a32.065 32.065 0 0 1-21.393-30.237V296.08h-96.194v41.443a32.06 32.06 0 0 1-21.393 30.236l-82.793 29.221c-19.229 6.787-32.089 24.962-32.089 45.354V504.5H440.37v-62.165c.001-20.392-12.858-38.567-32.088-45.354" style="fill:#f7d291"/><path d="m408.282 396.981-81.944-28.922c-7.236 32.202-35.952 56.279-70.338 56.279s-63.102-24.078-70.338-56.279l-81.944 28.921c-19.23 6.787-32.089 24.962-32.089 45.355V504.5h368.742v-62.165c0-20.392-12.859-38.567-32.089-45.354" style="fill:#edebed"/><path d="M256 456.403c48.354 0 88.898-32.981 100.661-77.642l-30.323-10.702c-7.236 32.202-35.952 56.279-70.338 56.279s-63.102-24.078-70.338-56.279l-30.323 10.702c11.763 44.661 52.307 77.642 100.661 77.642" style="fill:#a5cdff"/><path d="M207.903 325.904c14.8 6.545 31.063 10.257 48.097 10.257 17.103 0 33.353-3.645 48.097-10.11V296.08h-96.194z" style="fill:#f0c382"/><path d="M151.79 119.726v56.113h-12.024c-11.068 0-20.04 8.972-20.04 20.04s8.972 20.04 20.04 20.04h12.429c4.106 53.795 48.958 96.194 103.805 96.194 57.553 0 104.21-46.656 104.21-104.21v-88.177z" style="fill:#ffe1a0"/><path d="M151.79 119.726v56.113h-10.881c-10.483 0-20.035 7.542-21.08 17.973-1.201 11.996 8.187 22.108 19.937 22.108h12.429c4.106 53.795 48.958 96.194 103.805 96.194 5.466 0 10.793-.547 16.032-1.359-49.921-7.729-88.177-50.764-88.177-102.851v-22.69c0-12.007 5.306-22.771 13.761-30.105 9.265-8.037 22.698-9.449 33.778-4.188 63.745 30.268 107.764 63.329 127.685 81.032.667-4.764 1.131-19.1 1.131-24.048v-88.177H151.79z" style="fill:#f7d291"/><path d="M224.308 227.915c-2.524 0-4.399 2.306-3.98 4.795 2.604 15.434 17.583 27.269 35.672 27.269s33.068-11.835 35.672-27.269c.42-2.489-1.456-4.795-3.98-4.795z" style="fill:#fff"/><path d="m146.746 178.463-10.987 1.368v-44.073l32.065-8.016v26.857c-.001 12.132-9.039 22.365-21.078 23.864" style="fill:#ff8250"/><path d="M199.887 111.71c79.029 19.757 152.602 82.762 176.359 104.631l-.004-.422v-80.161z" style="fill:#ff9664"/><path d="M256 119.73c74.877 0 120.242 16.028 120.242 16.028 0-66.408-53.834-120.242-120.242-120.242S135.758 69.35 135.758 135.758c0 0 45.365-16.028 120.242-16.028" style="fill:#a5cdff"/><path d="M376.242 135.758c0-8.354-.859-16.506-2.481-24.38C340.376 101.24 299.516 95.677 256 95.677a475 475 0 0 0-39.459 1.636c-13.131 1.096-21.606-13.385-14.697-24.605 17.106-27.777 45.155-48.069 78.204-54.778A120.8 120.8 0 0 0 256 15.515c-66.408 0-120.242 53.834-120.242 120.242 0 0 17.301-6.086 48.07-10.759 19.134-2.907 43.453-5.269 72.172-5.269 74.877.001 120.242 16.029 120.242 16.029" style="fill:#8cb4eb"/><path d="M215.403 192.568v-8.016c0-4.142-3.357-7.5-7.5-7.5s-7.5 3.358-7.5 7.5v8.016c0 4.142 3.357 7.5 7.5 7.5s7.5-3.358 7.5-7.5M304.097 200.068a7.5 7.5 0 0 0 7.5-7.5v-8.016c0-4.142-3.357-7.5-7.5-7.5s-7.5 3.358-7.5 7.5v8.016a7.5 7.5 0 0 0 7.5 7.5"/><path d="m410.778 389.909-19.283-6.806 12.955-8.637a7.5 7.5 0 0 0 1.696-10.925l-26.269-32.836 23.767-11.883a7.5 7.5 0 0 0 3.354-10.062c-22.914-45.83-23.255-92.381-23.256-92.846v-67.67a163 163 0 0 1 5.409 2.35 7.5 7.5 0 0 0 9.941-3.696 7.5 7.5 0 0 0-3.695-9.942 186 186 0 0 0-11.711-4.858C381.888 68.515 333.402 16.419 271.375 8.944A7.5 7.5 0 0 0 264.017 0h-16.033a7.5 7.5 0 0 0-7.358 8.944c-62.028 7.474-110.514 59.571-112.312 123.153-4.082 1.541-7.999 3.157-11.711 4.858a7.5 7.5 0 0 0-3.695 9.942 7.5 7.5 0 0 0 9.941 3.696 164 164 0 0 1 5.409-2.35v22.963c-8.63 4.115-14.928 12.266-15.89 21.857-.778 7.771 1.763 15.531 6.973 21.289a27.6 27.6 0 0 0 8.736 6.448c-.733 13.12-4.433 50.674-23.075 87.959a7.5 7.5 0 0 0 3.354 10.062l23.767 11.883-26.269 32.836a7.5 7.5 0 0 0 1.696 10.925l12.955 8.637-19.283 6.806c-22.187 7.83-37.093 28.899-37.093 52.427V504.5c0 4.142 3.357 7.5 7.5 7.5s7.5-3.358 7.5-7.5v-62.165c0-17.18 10.885-32.564 27.085-38.282l44.129-15.575c15.351 44.747 57.799 75.425 105.657 75.425 47.899 0 90.309-30.664 105.66-75.424l44.126 15.574c16.2 5.718 27.085 21.102 27.085 38.282V504.5c0 4.142 3.357 7.5 7.5 7.5s7.5-3.358 7.5-7.5v-62.165c0-23.527-14.906-44.596-37.093-52.426m-45.907-68.472a7.502 7.502 0 0 0-2.502 11.393l26.954 33.693-15.509 10.34-45.829-16.175c-9.803-3.46-16.389-12.769-16.389-23.165v-32.761c30.813-17.761 52.403-49.803 55.67-87.017a218 218 0 0 1 1.551 1.444c.423 11.264 3.212 49.441 21.528 89.51zM256 23.016c59.203 0 107.892 45.869 112.4 103.935-31.591-9.471-70.981-14.726-112.4-14.726s-80.809 5.254-112.4 14.726C148.108 68.885 196.797 23.016 256 23.016m-95.677 114.89.001 13.884c0 4.42-1.722 8.576-4.847 11.702a16.44 16.44 0 0 1-11.702 4.847h-.517v-25.592a255 255 0 0 1 17.065-4.841m-33.029 56.653c.63-6.292 6.612-11.221 13.619-11.221h2.862c8.427 0 16.349-3.282 22.308-9.24s9.24-13.881 9.24-22.309l-.001-17.201c13.839-2.712 28.694-4.714 44.197-5.939 35.405 13.06 69.838 31.003 102.356 53.358a7.495 7.495 0 0 0 10.43-1.932 7.5 7.5 0 0 0-1.932-10.429c-24.056-16.537-49.143-30.729-74.897-42.418q.262-.001.524-.003c42.159 0 81.922 5.559 112.742 15.521V199a419 419 0 0 0-12.104-9.968 7.5 7.5 0 0 0-9.322 11.752 426 426 0 0 1 5.391 4.349v2.841c-.039 53.286-43.421 96.638-96.705 96.638-53.326 0-96.71-43.384-96.71-96.709 0-4.142-3.357-7.5-7.5-7.5s-7.5 3.358-7.5 7.5v.516h-4.524a12.57 12.57 0 0 1-9.303-4.131c-2.407-2.659-3.533-6.114-3.171-9.729m-4.617 171.964 26.954-33.693a7.5 7.5 0 0 0-2.502-11.393L121.654 308.7c16.46-36.01 20.38-70.487 21.313-85.28h2.398c4.855 34.791 25.794 64.5 55.038 81.35v32.754c0 10.396-6.586 19.705-16.389 23.165l-45.829 16.175zM256 448.903c-41.48 0-78.263-26.614-91.515-65.416l16.078-5.675c10.848 32.134 40.941 54.026 75.437 54.026 11.6 0 22.786-2.44 33.249-7.253a7.5 7.5 0 0 0 3.68-9.948 7.5 7.5 0 0 0-9.947-3.679c-8.483 3.902-17.562 5.88-26.981 5.88-28.223 0-52.808-18.052-61.431-44.469 12.667-6.815 20.834-20.157 20.834-34.847v-25.55c12.59 4.928 26.282 7.64 40.598 7.64 14.313 0 28.006-2.711 40.596-7.641v25.552c0 14.685 8.162 28.023 20.822 34.841a64 64 0 0 1-11.022 20.32 7.5 7.5 0 1 0 11.688 9.403 78.9 78.9 0 0 0 13.327-24.283l16.105 5.684c-13.252 38.813-50.003 65.415-91.518 65.415"/><path d="M199.887 167.307h16.032c4.143 0 7.5-3.358 7.5-7.5s-3.357-7.5-7.5-7.5h-16.032c-4.143 0-7.5 3.358-7.5 7.5s3.357 7.5 7.5 7.5M212.428 227.915c0 21.816 19.547 39.564 43.572 39.564s43.572-17.749 43.572-39.564a7.5 7.5 0 0 0-7.5-7.5h-72.145a7.5 7.5 0 0 0-7.499 7.5m70.783 7.5c-3.696 9.889-14.497 17.064-27.211 17.064s-23.515-7.176-27.211-17.064z"/></svg>