<svg xmlns="http://www.w3.org/2000/svg" xml:space="preserve" viewBox="0 0 512 512"><path d="M272.031 7.5h-32.065c-53.126 0-96.193 43.067-96.193 96.193h224.451C368.225 50.567 325.158 7.5 272.031 7.5" style="fill:#ffe17d"/><path d="m413.861 358.071-84.486-24.849a24.05 24.05 0 0 1-17.263-23.071v-46.135H199.885v46.135a24.05 24.05 0 0 1-17.263 23.071l-84.486 24.849c-20.469 6.02-34.526 24.806-34.526 46.143V504.5h384.774V404.214c.001-21.337-14.055-40.123-34.523-46.143" style="fill:#b67f5f"/><path d="m413.861 358.071-71.352-20.986c-7.91 40.58-43.615 71.221-86.51 71.221s-78.6-30.641-86.51-71.221l-71.352 20.986c-20.469 6.02-34.526 24.806-34.526 46.142V504.5h384.774V404.213c0-21.336-14.056-40.122-34.524-46.142" style="fill:#e6646e"/><path d="M199.885 297.932c16.842 8.996 35.938 14.181 56.113 14.181s39.271-5.185 56.113-14.181v-33.916H199.885z" style="fill:#a06e50"/><path d="M372.233 151.79h-12.024v-48.097h-208.42v48.097h-12.024c-11.068 0-20.04 8.972-20.04 20.04s8.972 20.04 20.04 20.04h12.429c4.106 53.795 48.958 96.194 103.805 96.194s99.699-42.398 103.805-96.194h12.429c11.068 0 20.04-8.973 20.04-20.04-.001-11.068-8.972-20.04-20.04-20.04" style="fill:#cd916e"/><path d="M344.176 143.774v-24.048H151.788v32.065h-10.88c-10.483 0-20.035 7.542-21.08 17.973-1.201 11.996 8.186 22.108 19.936 22.108h12.429c4.106 53.795 48.957 96.194 103.805 96.194 5.483 0 10.83-.534 16.083-1.351-49.946-7.708-88.228-50.754-88.228-102.859 0-13.282 10.767-24.048 24.048-24.048h120.242c8.856-.002 16.033-7.179 16.033-16.034" style="fill:#b67f5f"/><path d="M151.788 103.69h208.42v32.06h-208.42z" style="fill:#e6646e"/><path d="M284.055 8.331c-3.947-.493-7.943-.831-12.024-.831h-32.065c-53.126 0-96.194 43.067-96.194 96.193h56.113c0-49.044 36.733-89.433 84.17-95.362" style="fill:#ffd164"/><path d="M146.348 343.892c10.909 50.557 55.83 88.463 109.651 88.463s98.743-37.906 109.651-88.463l-23.141-6.806c-7.91 40.58-43.615 71.221-86.51 71.221s-78.6-30.641-86.51-71.221z" style="fill:#dc4655"/><path d="M207.902 152.307a7.5 7.5 0 0 0-7.5 7.5v8.016c0 4.142 3.357 7.5 7.5 7.5s7.5-3.358 7.5-7.5v-8.016a7.5 7.5 0 0 0-7.5-7.5M304.095 152.307a7.5 7.5 0 0 0-7.5 7.5v8.016c0 4.142 3.357 7.5 7.5 7.5s7.5-3.358 7.5-7.5v-8.016a7.5 7.5 0 0 0-7.5-7.5"/><path d="m415.977 350.876-84.485-24.849c-6.994-2.057-11.879-8.585-11.879-15.876v-34.528c25.013-17.396 42.617-44.741 47.019-76.253h4.457c14.618 0 27.156-10.861 28.544-24.727.778-7.771-1.764-15.53-6.974-21.288a27.6 27.6 0 0 0-20.426-9.066h-4.523v-33.097h.516a7.5 7.5 0 0 0 7.5-7.5C375.725 46.517 329.208 0 272.031 0h-32.064c-54.655 0-99.564 42.505-103.42 96.193H79.645c-4.143 0-7.5 3.358-7.5 7.5s3.357 7.5 7.5 7.5h64.645v33.097h-3.378c-14.617 0-27.155 10.861-28.545 24.725-.778 7.771 1.763 15.53 6.973 21.289a27.6 27.6 0 0 0 20.427 9.067h5.598c4.398 31.522 22.003 58.87 47.022 76.263v34.517c0 7.291-4.885 13.819-11.879 15.876l-84.485 24.849c-23.498 6.911-39.909 28.845-39.909 53.338V504.5a7.5 7.5 0 0 0 7.5 7.5 7.5 7.5 0 0 0 7.5-7.5V404.214c0-17.885 11.983-33.901 29.142-38.947l24.686-7.26c.104.358.198.722.305 1.077a7.5 7.5 0 0 0 7.183 5.353 7.5 7.5 0 0 0 7.188-9.65c-.1-.334-.189-.676-.286-1.012l24.698-7.264c11.622 40.556 49.187 69.297 91.972 69.297 15.313 0 29.946-3.511 43.495-10.437a7.5 7.5 0 0 0-6.828-13.357c-11.414 5.834-23.75 8.793-36.667 8.793-36.117 0-67.822-24.282-77.584-58.529l6.324-1.86c13.334-3.921 22.646-16.368 22.646-30.267v-25.733c14.705 7.137 31.199 11.146 48.613 11.146 17.412 0 33.906-4.012 48.613-11.153v25.74c0 13.899 9.313 26.345 22.646 30.267l6.328 1.861a80.65 80.65 0 0 1-16.755 30.844 7.5 7.5 0 0 0 11.307 9.858 95.7 95.7 0 0 0 19.837-36.47l23.452 6.898a120 120 0 0 1-2.901 8.874 7.5 7.5 0 1 0 14.054 5.238 135 135 0 0 0 3.236-9.88l25.927 7.625c17.158 5.046 29.142 21.062 29.142 38.947V504.5c0 4.142 3.357 7.5 7.5 7.5s7.5-3.358 7.5-7.5V404.214c-.002-24.493-16.412-46.427-39.91-53.338M239.967 15h32.064c34.697 0 64.799 20.029 79.365 49.129H336.16c-4.143 0-7.5 3.358-7.5 7.5s3.357 7.5 7.5 7.5h21.093a88 88 0 0 1 3.157 17.064H151.588C155.407 50.784 193.586 15 239.967 15m-80.679 168.855c0-4.142-3.357-7.5-7.5-7.5s-7.5 3.358-7.5 7.5v.516h-4.523a12.57 12.57 0 0 1-9.304-4.131c-2.406-2.66-3.532-6.115-3.17-9.729.63-6.292 6.612-11.221 13.619-11.221h10.878a7.5 7.5 0 0 0 7.5-7.5v-8.532h152.823c4.143 0 7.5-3.358 7.5-7.5s-3.357-7.5-7.5-7.5H159.288v-17.065h193.42v17.065h-8.53c-4.143 0-7.5 3.358-7.5 7.5s3.357 7.5 7.5 7.5h8.53v8.532a7.5 7.5 0 0 0 7.5 7.5h12.023a12.57 12.57 0 0 1 9.304 4.131c2.406 2.659 3.532 6.114 3.17 9.729-.63 6.292-6.611 11.221-13.618 11.221h-3.383v-.439a7.5 7.5 0 0 0-7.497-7.5h-.003a7.5 7.5 0 0 0-7.5 7.495c-.039 53.286-43.421 96.638-96.706 96.638-53.325-.001-96.71-43.384-96.71-96.71"/><path d="M236.382 439.41a120.5 120.5 0 0 1-14.687-3.267 7.502 7.502 0 0 0-4.17 14.41 135.5 135.5 0 0 0 16.522 3.675 7.503 7.503 0 0 0 8.576-6.242 7.5 7.5 0 0 0-6.241-8.576M281.298 438.089a121 121 0 0 1-14.873 2.295 7.5 7.5 0 0 0-6.789 8.149 7.5 7.5 0 0 0 8.148 6.789 136 136 0 0 0 16.725-2.582 7.5 7.5 0 0 0 5.721-8.931 7.496 7.496 0 0 0-8.932-5.72M194.116 424.247a121 121 0 0 1-12.472-8.437 7.501 7.501 0 0 0-9.161 11.878 137 137 0 0 0 14.017 9.482 7.498 7.498 0 0 0 10.27-2.654 7.5 7.5 0 0 0-2.654-10.269M322.586 420.44a121 121 0 0 1-12.986 7.596 7.5 7.5 0 1 0 6.75 13.395 136 136 0 0 0 14.602-8.541 7.5 7.5 0 1 0-8.366-12.45M151.757 382.257a7.501 7.501 0 0 0-12.856 7.729 137 137 0 0 0 9.601 13.926 7.49 7.49 0 0 0 5.903 2.868 7.5 7.5 0 0 0 5.894-12.133 122 122 0 0 1-8.542-12.39M365.04 387.019a7.5 7.5 0 0 0-10.438 1.885 122 122 0 0 1-9.338 11.812 7.5 7.5 0 0 0 5.58 12.508 7.48 7.48 0 0 0 5.586-2.492 137 137 0 0 0 10.494-13.275 7.497 7.497 0 0 0-1.884-10.438M272.031 208.419h-16.032c-4.143 0-7.5 3.358-7.5 7.5s3.357 7.5 7.5 7.5h16.032a7.5 7.5 0 0 0 0-15"/></svg>