<svg xmlns="http://www.w3.org/2000/svg" xml:space="preserve" viewBox="0 0 512 512"><path d="M151.789 392.274S95.676 286.485 95.676 177.849c0-60.558 32.065-114.237 88.178-146.301h48.097v360.726z" style="fill:#5a4650"/><path d="M360.209 384.258s64.129-104.21 64.129-208.419C424.338 82.868 348.97 7.5 255.999 7.5h-16.032c-40.081 0-72.145 25.123-72.145 56.113 0 17.709 14.356 32.065 32.065 32.065h32.065v288.581z" style="fill:#64505a"/><path d="M159.806 256c0 8.854-7.178 16.032-16.032 16.032s-16.032-7.178-16.032-16.032c0-16.032 16.032-48.097 16.032-48.097s16.032 32.065 16.032 48.097M384.257 256c0 8.854-7.178 16.032-16.032 16.032s-16.032-7.178-16.032-16.032c0-16.032 16.032-48.097 16.032-48.097s16.032 32.065 16.032 48.097" style="fill:#ffe17d"/><path d="m408.281 396.981-82.792-29.221a32.065 32.065 0 0 1-21.393-30.237V296.08h-96.194v41.443a32.06 32.06 0 0 1-21.393 30.236l-82.793 29.221c-19.229 6.787-32.089 24.962-32.089 45.354V504.5h368.742v-62.164c.001-20.392-12.859-38.568-32.088-45.355" style="fill:#e3aa75"/><path d="M255.999 336.161c17.034 0 33.296-3.712 48.097-10.257V296.08h-96.194v29.824c14.801 6.545 31.063 10.257 48.097 10.257" style="fill:#d29b6e"/><path d="M372.233 175.839h-12.024v-32.065c0-26.563-21.534-48.097-48.097-48.097H199.886c-26.563 0-48.097 21.534-48.097 48.097v32.065h-12.024c-11.068 0-20.04 8.972-20.04 20.04s8.972 20.04 20.04 20.04h12.429c4.106 53.795 48.958 96.194 103.805 96.194s99.699-42.398 103.805-96.194h12.429c11.068 0 20.04-8.973 20.04-20.04 0-11.068-8.972-20.04-20.04-20.04" style="fill:#f5b97d"/><path d="m408.28 396.981-18.797-6.634c-30.77 40.095-79.038 66.056-133.485 66.056s-102.715-25.961-133.485-66.057l-18.797 6.635c-19.229 6.787-32.088 24.962-32.088 45.354V504.5H440.37v-62.164c0-20.392-12.86-38.568-32.09-45.355" style="fill:#ff8250"/><path d="M151.789 143.774v32.065h-10.881c-10.483 0-20.035 7.542-21.08 17.973-1.201 11.996 8.187 22.108 19.936 22.108h12.429c4.106 53.795 48.957 96.194 103.805 96.194 5.483 0 10.83-.534 16.083-1.351-49.946-7.708-88.228-50.754-88.228-102.859V151.79c0-17.709 14.356-32.065 32.065-32.065h88.177c8.854 0 16.032-7.178 16.032-16.032v-8.016H199.886c-26.563 0-48.097 21.534-48.097 48.097" style="fill:#e3aa75"/><path d="M389.484 390.347c-30.771 40.095-79.038 66.056-133.485 66.056s-102.715-25.961-133.485-66.057l-18.798 6.634c-1.665.588-3.214 1.367-4.779 2.12 34.847 49.202 92.183 81.351 157.062 81.351s122.215-32.149 157.062-81.35c-1.566-.753-3.116-1.533-4.781-2.12z" style="fill:#dc7346"/><path d="M207.902 177.052a7.5 7.5 0 0 0-7.5 7.5v8.016a7.5 7.5 0 0 0 15 0v-8.016a7.5 7.5 0 0 0-7.5-7.5M304.096 177.052a7.5 7.5 0 0 0-7.5 7.5v8.016a7.5 7.5 0 0 0 15 0v-8.016a7.5 7.5 0 0 0-7.5-7.5"/><path d="m410.777 389.909-41.142-14.521c5.541-8.978 17.477-29.437 29.522-57.292 27.011-62.462 32.681-111.836 32.681-142.257C431.838 78.881 352.957 0 255.999 0h-16.032c-21.021 0-40.807 6.399-55.714 18.02-6.575 5.126-11.879 11.012-15.815 17.419-25.203 14.87-45.142 35.521-58.549 58.708-14.407 24.915-21.712 53.076-21.712 83.703 0 57.248 15.454 110.227 28.419 144.589 9.385 24.873 18.693 43.589 24.014 53.568l-39.388 13.901c-22.187 7.83-37.093 28.899-37.093 52.427V504.5a7.5 7.5 0 0 0 15 0v-62.165c0-17.18 10.885-32.564 27.085-38.282l12.237-4.319c28.714 39.69 80.937 64.169 137.549 64.169 25.526 0 50.915-5.042 73.422-14.579a7.5 7.5 0 0 0-5.853-13.811c-20.671 8.76-44.037 13.39-67.569 13.39-50.122 0-96.282-20.655-122.72-54.403l55.726-19.668c15.789-5.573 26.397-20.566 26.397-37.309v-25.548c12.589 4.928 26.282 7.638 40.597 7.638s28.007-2.71 40.597-7.638v25.548c0 16.743 10.608 31.736 26.397 37.309l55.723 19.667c-7.693 9.817-17.148 18.63-28.209 26.272a7.5 7.5 0 0 0 4.27 13.671c1.47 0 2.955-.431 4.256-1.33 13.79-9.527 25.372-20.742 34.51-33.38l12.242 4.321c16.201 5.718 27.085 21.102 27.085 38.282V504.5a7.5 7.5 0 0 0 15 0v-62.165c-.001-23.527-14.908-44.596-37.094-52.426m-210.375-52.386c0 10.396-6.586 19.705-16.389 23.165l-29.069 10.26c-11.525-21.373-51.768-102.506-51.768-193.098 0-27.956 6.627-53.591 19.697-76.194 9.56-16.533 22.205-30.86 37.685-42.777a53 53 0 0 0-.237 4.734c0 12.302 5.644 23.308 14.478 30.57-18.083 9.185-30.51 27.958-30.51 49.591v24.048a.516.516 0 0 1-.516.516h-4.008c-15.186 0-27.54 12.354-27.54 27.54 0 12.254 8.046 22.66 19.131 26.223-4.993 9.186-11.115 22.725-11.115 33.898 0 12.976 10.557 23.532 23.532 23.532 7.899 0 14.896-3.916 19.166-9.904a112.56 112.56 0 0 0 37.463 35.141zM135.241 256c0-7.165 4.329-17.273 8.532-25.263 4.204 7.99 8.532 18.098 8.532 25.263 0 4.705-3.828 8.532-8.532 8.532s-8.532-3.827-8.532-8.532m192.744 104.688c-9.803-3.46-16.389-12.769-16.389-23.165V304.77a112.6 112.6 0 0 0 37.463-35.142c4.27 5.988 11.267 9.904 19.166 9.904 12.976 0 23.532-10.557 23.532-23.532 0-11.173-6.122-24.712-11.115-33.898 11.085-3.563 19.131-13.969 19.131-26.223 0-15.186-12.354-27.54-27.541-27.54h-4.008a.516.516 0 0 1-.516-.516v-24.048c0-30.656-24.941-55.597-55.597-55.597h-8.015a7.5 7.5 0 0 0 0 15h8.015c22.385 0 40.597 18.212 40.597 40.597v24.048c0 8.556 6.96 15.516 15.516 15.516h4.008c6.915 0 12.541 5.625 12.541 12.54s-5.625 12.541-12.541 12.541h-4.53c.001-.172.007-.344.007-.516a7.5 7.5 0 0 0-15 0c0 53.326-43.384 96.709-96.71 96.709s-96.709-43.384-96.709-96.709a7.5 7.5 0 0 0-15 0c0 .173.006.344.007.516h-4.531c-6.915 0-12.54-5.625-12.54-12.541 0-6.915 5.625-12.54 12.54-12.54h4.008c8.556 0 15.516-6.96 15.516-15.516v-24.048c0-22.385 18.211-40.597 40.597-40.597h72.147a7.5 7.5 0 0 0 0-15h-72.147c-13.545 0-24.564-11.02-24.564-24.564 0-26.805 29-48.613 64.645-48.613h16.031c88.687 0 160.839 72.152 160.839 160.839 0 92.977-53.124 180.849-61.706 194.431zM359.693 256c0-7.165 4.329-17.273 8.532-25.263 4.204 7.99 8.532 18.098 8.532 25.263 0 4.705-3.828 8.532-8.532 8.532s-8.532-3.827-8.532-8.532"/><path d="M274.78 242.645c-2.737 2.701-9.298 5.855-18.781 5.855s-16.043-3.154-18.781-5.855a7.5 7.5 0 1 0-10.535 10.677c6.459 6.373 17.418 10.177 29.316 10.177s22.857-3.805 29.316-10.177a7.5 7.5 0 0 0-10.535-10.677M206.194 149.021l-9.519 4.509a7.5 7.5 0 0 0 6.422 13.556l9.519-4.509a7.5 7.5 0 0 0-6.422-13.556M299.382 162.576l9.519 4.509a7.5 7.5 0 0 0 3.206.724 7.502 7.502 0 0 0 3.216-14.28l-9.519-4.509a7.501 7.501 0 0 0-6.422 13.556"/></svg>