<svg xmlns="http://www.w3.org/2000/svg" xml:space="preserve" viewBox="0 0 512.003 512.003"><path d="m413.863 358.071-84.486-24.849a24.05 24.05 0 0 1-17.263-23.071v-38.119H199.889v38.119a24.05 24.05 0 0 1-17.263 23.071L98.14 358.071c-20.469 6.02-34.526 24.806-34.526 46.142V504.5h384.774V404.214c.001-21.337-14.056-40.123-34.525-46.143" style="fill:#f7d291"/><path d="m413.864 358.071-84.486-24.849c-1.429-.42 8.079 3.594 6.786 2.939l-80.165 24.048-80.157-24.048c-1.293.655 8.214-3.359 6.786-2.939l-84.486 24.849c-20.469 6.02-34.525 24.806-34.525 46.142V504.5h384.774V404.213c-.002-21.336-14.058-40.122-34.527-46.142" style="fill:#cd916e"/><path d="m333.412 349.443-9.558-9.558-67.852 12.309-67.852-12.309-9.558 9.558a64.13 64.13 0 0 0-18.783 45.346V504.5h192.387V394.789a64.13 64.13 0 0 0-18.784-45.346" style="fill:#edebed"/><path d="m333.412 349.443-9.558-9.558-67.852 12.309-67.852-12.309-9.558 9.558c-5.271 5.271-9.461 11.398-12.583 18.014l27.214 31.102a32.06 32.06 0 0 0 24.133 10.95c8.564 0 16.616-3.336 22.673-9.392l17.016-17.016 17.019 17.017c6.053 6.056 14.105 9.391 22.67 9.391a32.07 32.07 0 0 0 24.134-10.95l25.861-29.556c-3.176-7.217-7.634-13.878-13.317-19.56" style="fill:#dbd9dc"/><path d="M244.423 392.274 231.953 504.5h48.097l-12.469-112.226z" style="fill:#e3aa75"/><path d="M266.256 400.29h-20.509a8.02 8.02 0 0 1-7.605-5.481l-14.205-42.616h64.129l-14.205 42.616a8.02 8.02 0 0 1-7.605 5.481" style="fill:#d29b6e"/><path d="M199.889 297.937c16.841 8.996 35.939 14.176 56.113 14.176s39.272-5.18 56.113-14.176v-25.905H199.889z" style="fill:#f0c382"/><path d="m92.026 173.64 17.775 23.7c1.338 1.784 1.927 4.026 1.504 6.215-.494 2.553-1.388 5.431-2.394 8.202-2.784 7.672.799 16.133 8.123 19.735 12.478 6.138 33.039 14.147 58.807 16.492V47.581c-59.914 19.971-81.129 89.7-86.6 112.768-1.1 4.638-.075 9.477 2.785 13.291M419.978 173.64l-17.775 23.7c-1.338 1.784-1.927 4.026-1.504 6.215.494 2.553 1.388 5.431 2.394 8.202 2.784 7.672-.799 16.133-8.123 19.735-12.478 6.138-33.039 14.147-58.807 16.492V47.581c59.914 19.971 81.129 89.7 86.6 112.768 1.1 4.638.075 9.477-2.785 13.291" style="fill:#b7b2b8"/><path d="M376.244 152.194v-24.453c0-62.534-47.746-113.879-108.766-119.662a113.6 113.6 0 0 0-22.952 0C183.507 13.862 135.76 65.208 135.76 127.741v24.453c-9.147 1.857-16.032 9.941-16.032 19.636 0 11.068 8.972 20.04 20.04 20.04h12.429c4.106 53.795 48.958 96.194 103.805 96.194s99.699-42.398 103.805-96.194h12.429c11.068 0 20.04-8.973 20.04-20.04 0-9.695-6.885-17.778-16.032-19.636" style="fill:#ffe1a0"/><path d="M183.861 143.77h56.11v19.865h-56.11zM272.031 143.77h56.11v19.865h-56.11z" style="fill:#f7d291"/><path d="m194.534 318.045-21.122 25.647 36.867 42.134c3.054 3.49 8.422 3.668 11.701.39l34.022-34.022zM317.47 318.045l21.122 25.647-36.867 42.134c-3.054 3.49-8.422 3.668-11.701.39l-34.022-34.022z" style="fill:#fff"/><path d="m119.728 504.5-14.123-63.554a16.03 16.03 0 0 1 4.314-14.814l25.841-25.841-11.889-17.833c-2.799-4.198-3.398-9.47-1.805-14.257 19.114-57.442 77.823-72.119 77.823-72.119v15.463a40.08 40.08 0 0 1-11.739 28.341l-9.558 9.558a64.13 64.13 0 0 0-18.783 45.346V504.5M392.276 504.5l14.123-63.554a16.03 16.03 0 0 0-4.314-14.814l-25.841-25.841 11.889-17.833c2.799-4.198 3.398-9.47 1.805-14.257-19.114-57.442-77.823-72.119-77.823-72.119v15.463a40.08 40.08 0 0 0 11.739 28.341l9.558 9.558a64.13 64.13 0 0 1 18.783 45.346V504.5" style="fill:#b67f5f"/><path d="M191.873 183.855V111.71c0-50.789 36.35-93.038 84.443-102.281-6.597-1.208-13.367-1.929-20.314-1.929a114 114 0 0 0-11.476.58C183.507 13.863 135.76 65.209 135.76 127.742v24.048h4.008c-11.068 0-20.04 8.972-20.04 20.04s8.972 20.04 20.04 20.04h12.429c4.106 53.795 48.958 96.194 103.805 96.194 6.895 0 13.631-.675 20.149-1.954-48.012-9.306-84.278-51.524-84.278-102.255" style="fill:#f7d291"/><path d="M256.002 304.097c-13.282 0-24.048-10.767-24.048-24.048v-16.032a8.016 8.016 0 0 1 8.016-8.016h32.065a8.016 8.016 0 0 1 8.016 8.016v16.032c-.001 13.281-10.768 24.048-24.049 24.048" style="fill:#9c969e"/><path d="M159.808 424.853a7.5 7.5 0 0 0-7.5 7.5V504.5a7.5 7.5 0 0 0 15 0v-72.147a7.5 7.5 0 0 0-7.5-7.5M352.195 424.855a7.5 7.5 0 0 0-7.5 7.5V504.5a7.5 7.5 0 0 0 15 0v-72.145a7.5 7.5 0 0 0-7.5-7.5"/><path d="m415.98 349.484-30.044-8.836c-20.488-33.077-53.168-47.028-66.321-51.506v-13.483a112.2 112.2 0 0 0 21.722-19.75c44.154-4.497 70.542-25.225 71.657-26.117a7.5 7.5 0 0 0 2.023-9.21c-2.499-4.998-6.025-13.511-6.979-18.521l22.303-29.737a7.5 7.5 0 0 0 1.386-5.803c-.791-4.482-19.961-109.163-82.132-125.594C326.163 15.719 292.746 0 256.002 0c-36.948 0-70.276 15.774-93.621 40.934-62.148 16.454-81.313 121.104-82.104 125.586a7.5 7.5 0 0 0 1.386 5.803l22.306 29.742c-.938 4.988-4.411 13.365-6.982 18.517a7.5 7.5 0 0 0 2.023 9.21c1.115.892 27.501 21.619 71.654 26.117a112.3 112.3 0 0 0 21.725 19.752v13.481c-13.153 4.478-45.834 18.429-66.322 51.506l-30.044 8.836c-23.498 6.912-39.909 28.845-39.909 53.338V504.5a7.5 7.5 0 0 0 15 0V402.822c0-17.885 11.983-33.9 29.142-38.947l16.668-4.902a116 116 0 0 0-1.975 5.471c-2.365 7.106-1.388 14.681 2.681 20.782l8.479 12.718-21.523 21.523a23.43 23.43 0 0 0-6.353 21.653l14.166 64.979a7.503 7.503 0 0 0 8.926 5.73 7.5 7.5 0 0 0 5.73-8.925l-14.166-64.979a8.5 8.5 0 0 1 2.303-7.85l25.871-25.871a7.5 7.5 0 0 0 .937-9.464l-11.89-17.833c-1.483-2.225-1.822-5.041-.929-7.726 13.085-39.33 46.75-57.319 63.207-63.971v4.944c0 8.703-3.389 16.884-9.542 23.038l-9.559 9.558c-13.529 13.529-20.979 31.517-20.979 50.649v6.892a7.5 7.5 0 0 0 15 0v-6.892c0-12.461 4.006-24.302 11.394-34.069l20.218 24.262a23.58 23.58 0 0 0 18.071 8.466c3.991 0 7.898-1.026 11.352-2.926l.857 2.57a23.5 23.5 0 0 0 6.797 10.232l-11.496 101.724a7.5 7.5 0 0 0 14.905 1.685l11.029-97.595c.363.017.723.043 1.089.043h8.954c.36 0 .715-.026 1.071-.043l11.047 97.596a7.5 7.5 0 0 0 8.296 6.609 7.5 7.5 0 0 0 6.609-8.296l-11.513-101.709a23.5 23.5 0 0 0 6.814-10.248l.857-2.57a23.6 23.6 0 0 0 12.411 2.902 23.58 23.58 0 0 0 17.012-8.443l20.218-24.261c7.388 9.768 11.394 21.609 11.394 34.069v6.894a7.5 7.5 0 0 0 15 0v-6.894c0-19.132-7.451-37.12-20.979-50.649l-9.559-9.558c-6.153-6.154-9.542-14.335-9.542-23.038v-4.975c16.433 6.594 50.062 24.494 63.207 64.003.893 2.685.555 5.5-.929 7.725l-11.89 17.833a7.5 7.5 0 0 0 .937 9.464l25.871 25.872a8.5 8.5 0 0 1 2.303 7.85l-14.166 64.979a7.5 7.5 0 0 0 7.335 9.099 7.5 7.5 0 0 0 7.321-5.904l14.166-64.979a23.43 23.43 0 0 0-6.352-21.653l-21.523-21.523 8.479-12.717c4.068-6.102 5.045-13.677 2.681-20.782a116 116 0 0 0-1.975-5.471l16.668 4.902c17.158 5.047 29.142 21.063 29.142 38.947V504.5a7.5 7.5 0 0 0 15 0V402.822c0-24.493-16.411-46.426-39.909-53.338M143.26 127.742C143.26 65.576 193.836 15 256.002 15c59.198 0 108.612 46.218 112.495 105.219a7.5 7.5 0 0 0 14.968-.986 126.5 126.5 0 0 0-14.298-50.698c14.241 12.647 24.559 31.317 31.434 47.333 9.273 21.604 14.122 42.426 15.733 50.129l-22.042 29.389a7.5 7.5 0 0 0-1.5 4.5c0 6.352 3.412 15.416 6.049 21.472-2.947 1.865-7.201 4.331-12.625 6.889-7.689 3.626-18.992 8.002-33.096 10.77a112.3 112.3 0 0 0 13.496-39.647h4.476c14.617 0 27.154-10.861 28.542-24.727.778-7.771-1.765-15.531-6.975-21.288a27.6 27.6 0 0 0-20.425-9.066h-36.589v-.516a7.5 7.5 0 0 0-7.5-7.5h-56.113a7.5 7.5 0 0 0-7.5 7.5v2.124a23.4 23.4 0 0 0-8.532-1.608c-3.009 0-5.885.574-8.532 1.608v-2.124a7.5 7.5 0 0 0-7.5-7.5h-56.113a7.5 7.5 0 0 0-7.5 7.5v.516h-33.097v-16.547zm156.831 39.565a7.5 7.5 0 0 0 7.5-7.5v-8.016c0-.174-.014-.345-.026-.516h13.082v16.548c0 4.705-3.828 8.532-8.532 8.532h-24.048c-4.705 0-8.532-3.828-8.532-8.532v-16.548h13.083c-.012.171-.026.342-.026.516v8.016a7.5 7.5 0 0 0 7.499 7.5m-88.178 0a7.5 7.5 0 0 0 7.5-7.5v-8.016c0-.174-.014-.345-.026-.516h13.083v16.548c0 4.705-3.828 8.532-8.532 8.532H199.89c-4.705 0-8.532-3.828-8.532-8.532v-16.548h13.082c-.012.171-.026.342-.026.516v8.016a7.5 7.5 0 0 0 7.499 7.5m-86.127 60.942c-5.424-2.558-9.679-5.025-12.625-6.889 2.637-6.056 6.049-15.121 6.049-21.473a7.5 7.5 0 0 0-1.5-4.5l-22.042-29.389c1.611-7.705 6.459-28.526 15.733-50.129 10.042-23.393 21.036-38.111 31.417-47.298-9.292 17.701-14.559 37.831-14.559 59.171v19.415c-8.631 4.115-14.93 12.266-15.891 21.859-.778 7.771 1.763 15.531 6.974 21.289a27.6 27.6 0 0 0 20.425 9.067h5.615a112.3 112.3 0 0 0 13.496 39.647c-14.101-2.769-25.403-7.145-33.092-10.77m97.246 146.308c-1.716 1.716-3.993 2.594-6.42 2.49a8.44 8.44 0 0 1-6.168-3.061l-21.446-25.735 4.455-4.455a47.6 47.6 0 0 0 9.409-13.33l40.894 23.368zm32.97-62.96c13.298 0 24.692-8.274 29.327-19.941a111 111 0 0 0 19.286-7.242v25.738c0 1.833.115 3.648.318 5.443l-48.931 27.961-48.931-27.961c.203-1.795.318-3.61.318-5.443v-25.737c6.181 3 12.637 5.433 19.286 7.242 4.635 11.666 16.029 19.94 29.327 19.94m-16.549-31.549V263.5h33.097v16.548c0 9.125-7.423 16.548-16.548 16.548s-16.549-7.423-16.549-16.548m29.12 106.909a8.5 8.5 0 0 1-3.813 4.658 8 8 0 0 0-.615.335 8.5 8.5 0 0 1-3.665.841h-8.954a8.52 8.52 0 0 1-8.094-5.834l-2.896-8.689 15.467-15.467 15.467 15.467zm54.433-38.706-21.446 25.735a8.44 8.44 0 0 1-6.168 3.062 8.47 8.47 0 0 1-6.42-2.49l-20.724-20.724 40.894-23.368a47.6 47.6 0 0 0 9.409 13.33zm-35.456-72.976V256a7.5 7.5 0 0 0-7.5-7.5h-48.097a7.5 7.5 0 0 0-7.5 7.5v19.276c-17.143-5.937-32.515-16.707-43.963-30.994-13.868-17.305-21.198-38.2-21.198-60.427a7.5 7.5 0 0 0-15 0v.516h-4.524a12.57 12.57 0 0 1-9.303-4.131c-2.407-2.66-3.533-6.115-3.17-9.73.63-6.292 6.611-11.22 13.617-11.22h35.445v8.532c0 12.976 10.557 23.532 23.532 23.532h24.048c12.976 0 23.532-10.557 23.532-23.532 0-4.705 3.828-8.532 8.532-8.532s8.532 3.828 8.532 8.532c0 12.976 10.557 23.532 23.532 23.532h24.048c12.976 0 23.532-10.557 23.532-23.532v-8.532h36.589a12.57 12.57 0 0 1 9.303 4.13c2.407 2.66 3.533 6.115 3.171 9.729-.63 6.292-6.611 11.221-13.617 11.221h-3.385v-.439a7.5 7.5 0 0 0-7.497-7.5h-.003a7.5 7.5 0 0 0-7.5 7.495c-.016 22.211-7.353 43.09-21.216 60.379-11.444 14.275-26.808 25.037-43.94 30.97"/><path d="M256.002 231.436c11.898 0 22.857-3.805 29.316-10.177a7.5 7.5 0 0 0 .071-10.606 7.5 7.5 0 0 0-10.606-.071c-2.737 2.701-9.298 5.855-18.781 5.855s-16.043-3.154-18.781-5.855a7.5 7.5 0 1 0-10.535 10.677c6.459 6.372 17.418 10.177 29.316 10.177M199.889 127.226h24.048a7.5 7.5 0 0 0 0-15h-24.048a7.5 7.5 0 0 0 0 15M288.066 127.226h24.048a7.5 7.5 0 0 0 0-15h-24.048a7.5 7.5 0 0 0 0 15"/></svg>