<svg xmlns="http://www.w3.org/2000/svg" xml:space="preserve" viewBox="0 0 512 512"><circle cx="135.76" cy="63.61" r="56.11" style="fill:#e6646e"/><circle cx="376.24" cy="63.61" r="56.11" style="fill:#e6646e"/><path d="M380.087 207.903c7.759-17.128 12.187-36.086 12.187-56.113 0-75.262-61.012-136.274-136.274-136.274S119.726 76.528 119.726 151.79c0 20.027 4.428 38.985 12.187 56.113z" style="fill:#dc4655"/><path d="m408.282 404.997-82.792-29.221a32.065 32.065 0 0 1-21.393-30.237v-41.443h-96.194v41.443a32.065 32.065 0 0 1-21.393 30.237l-82.792 29.221c-19.229 6.787-32.089 24.962-32.089 45.354V504.5h368.742v-54.148c0-20.393-12.859-38.568-32.089-45.355" style="fill:#e3aa75"/><path d="m408.282 404.997-31.92-11.266C346.98 427.172 304.014 448.387 256 448.387s-90.98-21.215-120.362-54.656l-31.92 11.266c-19.229 6.787-32.089 24.962-32.089 45.354V504.5h368.742v-54.148c0-20.392-12.859-38.568-32.089-45.355" style="fill:#e6646e"/><path d="M207.903 333.92c14.8 6.545 31.063 10.257 48.097 10.257s33.296-3.712 48.097-10.257v-29.824h-96.194z" style="fill:#d29b6e"/><path d="M372.234 183.855H360.21v-8.016c0-57.554-46.656-104.21-104.21-104.21s-104.21 46.656-104.21 104.21v8.016h-12.024c-11.068 0-20.04 8.972-20.04 20.04s8.972 20.04 20.04 20.04h12.429c4.106 53.795 48.958 96.194 103.805 96.194s99.699-42.398 103.805-96.194h12.429c11.068 0 20.04-8.973 20.04-20.04-.001-11.068-8.972-20.04-20.04-20.04" style="fill:#f5b97d"/><path d="M183.855 215.919v-40.081c0-9.013 1.173-17.735 3.36-26.046 4.063-15.438 21.898-22.819 35.537-14.523 40.952 24.907 88.007 38.961 137.445 40.341C360.073 118.163 313.476 71.629 256 71.629c-24.358 0-46.816 7.891-64.544 21.908-.049-.198.046.198 0 0-24.268 18.956-39.666 48.79-39.666 84.139v6.179h-10.88c-10.483 0-20.036 7.542-21.081 17.973-1.202 11.996 8.186 22.108 19.937 22.108h12.429c4.106 53.795 48.958 96.194 103.805 96.194 5.484 0 10.83-.534 16.083-1.351-49.946-7.709-88.228-50.755-88.228-102.86" style="fill:#e3aa75"/><path d="M256 15.516c-35.284 0-67.329 13.524-91.531 35.525 46.879 61.229 120.686 100.75 203.757 100.75 8.094 0 16.088-.421 23.99-1.154C391.589 75.912 330.872 15.516 256 15.516" style="fill:#e6646e"/><path d="M256 472.435c57.996 0 109.444-28.001 141.586-71.214l-21.223-7.491C346.98 427.172 304.015 448.387 256 448.387s-90.98-21.215-120.362-54.656l-21.223 7.491c32.141 43.213 83.589 71.213 141.585 71.213" style="fill:#dc4655"/><path d="m184.827 409.279-24.324-24.324-56.786 20.042c-19.229 6.787-32.089 24.962-32.089 45.354V504.5H191.87v-78.217a24.04 24.04 0 0 0-7.043-17.004M327.173 409.279l24.324-24.324 56.786 20.042c19.229 6.787 32.089 24.962 32.089 45.354V504.5H320.129v-78.217a24.05 24.05 0 0 1 7.044-17.004" style="fill:#ffe17d"/><path d="m410.778 397.925-82.793-29.221c-9.803-3.46-16.389-12.77-16.389-23.165v-32.754c29.243-16.85 50.175-46.561 55.031-81.35h5.607c15.186 0 27.54-12.354 27.54-27.541a27.4 27.4 0 0 0-4.743-15.433 144.1 144.1 0 0 0 1.99-64.708c25.482-8.759 42.833-32.732 42.833-60.141C439.854 28.537 411.318 0 376.242 0c-20.422 0-39.149 9.533-51.125 25.754C304.595 14.455 281.036 8.016 256 8.016s-48.595 6.439-69.117 17.738C174.906 9.534 156.179 0 135.758 0c-35.077 0-63.613 28.537-63.613 63.613 0 27.408 17.351 51.381 42.834 60.14a144.132 144.132 0 0 0 1.99 64.708 27.4 27.4 0 0 0-4.743 15.434c0 15.186 12.354 27.541 27.541 27.541h5.607c4.856 34.789 25.787 64.501 55.03 81.35v32.754c0 10.396-6.586 19.705-16.389 23.165l-82.792 29.221c-22.187 7.83-37.093 28.899-37.093 52.427V504.5a7.5 7.5 0 0 0 15 0v-54.148c0-17.18 10.885-32.564 27.085-38.282l52.328-18.469 20.981 20.982a16.45 16.45 0 0 1 4.847 11.702V504.5a7.5 7.5 0 0 0 15 0v-59.323c17.519 7.024 36.865 10.71 56.629 10.71 19.765 0 39.111-3.685 56.629-10.71v3.206c0 4.142 3.357 7.5 7.5 7.5s7.5-3.358 7.5-7.5v-22.1c0-4.42 1.722-8.576 4.848-11.702l20.981-20.981 52.328 18.469c16.2 5.718 27.085 21.102 27.085 38.282V504.5c0 4.142 3.357 7.5 7.5 7.5s7.5-3.358 7.5-7.5v-54.148c0-23.528-14.906-44.597-37.093-52.427M376.242 15c26.805 0 48.612 21.808 48.612 48.613 0 20.518-12.72 38.51-31.537 45.529-9.614-30.888-29.39-57.335-55.392-75.431C347.102 21.912 361.053 15 376.242 15M87.145 63.613C87.145 36.808 108.953 15 135.758 15c15.187 0 29.14 6.912 38.317 18.711-26.003 18.096-45.779 44.543-55.392 75.431-18.817-7.019-31.538-25.011-31.538-45.529m72.146 152.306a7.5 7.5 0 0 0-15 0c0 .173.006.344.007.516h-4.531c-6.915 0-12.541-5.625-12.541-12.541 0-6.915 5.625-12.54 12.539-12.54l6.011.001c7.902-.007 7.924.001 9.606-.917a7.5 7.5 0 0 0 3.909-6.63v-7.97c0-23.88 7.482-44.707 22.239-61.899a7.5 7.5 0 0 0-11.383-9.769c-17.157 19.99-25.856 44.103-25.856 71.669v.517l-4.524-.001c-3.464 0-6.778.649-9.835 1.822a129.6 129.6 0 0 1-2.706-26.386c0-71.006 57.768-128.774 128.774-128.774 71.007 0 128.774 57.768 128.774 128.774 0 8.908-.913 17.747-2.71 26.385a27.4 27.4 0 0 0-9.832-1.82h-4.522v-17.739c.173 0 .342.005.516.005 4.143 0 7.5-3.358 7.5-7.5s-3.357-7.5-7.5-7.5c-62.787 0-108.183-20.323-135.208-37.372-29.375-18.531-44.076-37.338-44.221-37.526a7.5 7.5 0 0 0-11.894 9.14c.642.837 16.093 20.739 47.487 40.678 26.506 16.834 69.584 36.631 128.32 39.667v25.646h.007a7.49 7.49 0 0 0 3.634 6.431c1.784 1.071 1.805 1.065 9.873 1.07l6.01-.001c6.915 0 12.54 5.625 12.54 12.54s-5.625 12.541-12.54 12.541h-4.531c.001-.172.007-.344.007-.516 0-4.142-3.357-7.5-7.5-7.5s-7.5 3.358-7.5 7.5c0 53.326-43.384 96.709-96.71 96.709s-96.709-43.384-96.709-96.71m162.577 188.057c-5.959 5.959-9.24 13.882-9.24 22.308v2.575C295.471 436.734 276 440.887 256 440.887c-19.998 0-39.471-4.153-56.629-12.028v-2.575c0-8.427-3.282-16.349-9.241-22.308l-15.909-15.909 14.785-5.218c15.789-5.573 26.397-20.566 26.397-37.309v-25.548c12.589 4.928 26.282 7.638 40.597 7.638s28.007-2.71 40.597-7.638v25.548c0 16.743 10.607 31.736 26.396 37.309l14.785 5.218z"/><path d="M285.316 261.339a7.5 7.5 0 0 0-10.535-10.677c-2.737 2.701-9.299 5.855-18.781 5.855s-16.043-3.154-18.781-5.855a7.5 7.5 0 1 0-10.535 10.677c6.459 6.373 17.418 10.177 29.316 10.177s22.855-3.805 29.316-10.177M320.129 472.952a7.5 7.5 0 0 0-7.5 7.5V504.5c0 4.142 3.357 7.5 7.5 7.5s7.5-3.358 7.5-7.5v-24.048a7.5 7.5 0 0 0-7.5-7.5M207.903 184.371a7.5 7.5 0 0 0-7.5 7.5v8.016a7.5 7.5 0 0 0 15 0v-8.016a7.5 7.5 0 0 0-7.5-7.5M304.096 207.387a7.5 7.5 0 0 0 7.5-7.5v-8.016c0-4.142-3.357-7.5-7.5-7.5s-7.5 3.358-7.5 7.5v8.016a7.5 7.5 0 0 0 7.5 7.5M207.907 175.323a7.5 7.5 0 0 0 7.494-7.317 7.5 7.5 0 0 0-7.314-7.681l-8.016-.196c-4.15-.125-7.58 3.174-7.681 7.314a7.5 7.5 0 0 0 7.314 7.681l8.016.196zM304.092 175.323q.094 0 .188-.002l8.017-.196a7.5 7.5 0 0 0 7.314-7.681c-.101-4.142-3.554-7.425-7.682-7.314l-8.017.196a7.5 7.5 0 0 0 .18 14.997"/></svg>