<svg xmlns="http://www.w3.org/2000/svg" xml:space="preserve" viewBox="0 0 512 512"><path d="m413.86 358.071-84.486-24.849a24.05 24.05 0 0 1-17.263-23.071v-46.135H199.886v46.135a24.05 24.05 0 0 1-17.263 23.071l-84.486 24.849c-20.469 6.02-34.526 24.806-34.526 46.143V504.5h384.774V404.214c.001-21.337-14.055-40.123-34.525-46.143" style="fill:#f7d291"/><path d="M199.886 297.932c16.842 8.996 35.938 14.181 56.113 14.181s39.271-5.185 56.113-14.181v-33.916H199.886z" style="fill:#f0c382"/><path d="M372.233 151.79h-4.008v-32.065c0-61.98-50.246-112.225-112.226-112.225S143.773 57.745 143.773 119.726v32.065h-4.008c-11.068 0-20.04 8.972-20.04 20.04s8.972 20.04 20.04 20.04h12.429c4.106 53.795 48.958 96.194 103.805 96.194s99.699-42.398 103.805-96.194h12.429c11.068 0 20.04-8.973 20.04-20.04 0-11.069-8.972-20.041-20.04-20.041" style="fill:#ffe1a0"/><path d="M272.031 240.532h-32.065c-8.854 0-16.032-7.178-16.032-16.032v-16.597h64.129V224.5c.001 8.854-7.177 16.032-16.032 16.032" style="fill:#f0c382"/><path d="M207.902 223.935h24.048c13.282 0 24.048-10.767 24.048-24.048H231.95c-13.281 0-24.048 10.767-24.048 24.048M280.047 199.887h-24.048c0 13.282 10.767 24.048 24.048 24.048h24.048c.001-13.281-10.766-24.048-24.048-24.048" style="fill:#a06e50"/><path d="M167.822 360.21v-22.634l-40.081 11.788V504.5h256.516V349.364l-40.081-11.788v22.634c0 48.699-39.478 88.177-88.177 88.177s-88.177-39.478-88.177-88.177" style="fill:#edebed"/><path d="M344.176 337.576v22.634c0 48.699-39.478 88.177-88.177 88.177s-88.177-39.478-88.177-88.177v-22.634l-24.048 7.073v15.561c0 61.981 50.246 112.226 112.226 112.226S368.225 422.19 368.225 360.21v-15.561z" style="fill:#fff"/><path d="M191.87 183.855V66.721c0-15.825-20.612-22.163-29.382-8.99-11.82 17.753-18.714 39.061-18.714 61.995v32.065h-4.008c-11.068 0-20.04 8.972-20.04 20.04s8.972 20.04 20.04 20.04h12.429c4.106 53.795 48.958 96.194 103.805 96.194 6.895 0 13.631-.675 20.149-1.954-48.013-9.307-84.279-51.525-84.279-102.256" style="fill:#f7d291"/><path d="M143.773 151.79h-16.032v-40.08c0-8.854 7.178-16.032 16.032-16.032s16.032 7.178 16.032 16.032v24.048c0 8.854-7.177 16.032-16.032 16.032M368.225 151.79h16.032v-40.08c0-8.854-7.178-16.032-16.032-16.032s-16.032 7.178-16.032 16.032v24.048c0 8.854 7.177 16.032 16.032 16.032" style="fill:#a06e50"/><path d="M204.41 159.807v8.016c0 4.142 3.357 7.5 7.5 7.5s7.5-3.358 7.5-7.5v-8.016c0-4.142-3.357-7.5-7.5-7.5s-7.5 3.358-7.5 7.5M231.211 125.922a7.504 7.504 0 0 0-9.096-5.457l-32.064 8.017a7.5 7.5 0 1 0 3.639 14.552l32.064-8.017a7.5 7.5 0 0 0 5.457-9.095M292.588 159.807v8.016c0 4.142 3.357 7.5 7.5 7.5s7.5-3.358 7.5-7.5v-8.016c0-4.142-3.357-7.5-7.5-7.5s-7.5 3.358-7.5 7.5M280.787 125.922a7.5 7.5 0 0 0 5.457 9.095l32.064 8.017a7.5 7.5 0 0 0 1.825.226 7.505 7.505 0 0 0 7.271-5.683 7.5 7.5 0 0 0-5.457-9.095l-32.064-8.017a7.504 7.504 0 0 0-9.096 5.457"/><path d="m415.977 350.876-84.485-24.849c-6.994-2.057-11.879-8.585-11.879-15.876v-34.523c25.017-17.394 42.615-44.739 47.014-76.258h5.607a27.6 27.6 0 0 0 20.426-9.067c5.21-5.758 7.751-13.518 6.973-21.289-.628-6.263-3.531-11.909-7.872-16.222v-41.084c0-9.426-5.573-17.571-13.595-21.324C361.863 37.012 312.103 0 255.999 0S150.136 37.013 133.835 90.386c-8.021 3.754-13.594 11.898-13.594 21.324v41.083c-4.341 4.313-7.245 9.96-7.872 16.222-.778 7.771 1.763 15.531 6.973 21.289a27.6 27.6 0 0 0 20.426 9.067h5.604c4.399 31.519 21.997 58.864 47.014 76.258v34.523c0 7.291-4.885 13.819-11.879 15.876l-84.485 24.849c-23.498 6.911-39.909 28.845-39.909 53.338V504.5a7.5 7.5 0 0 0 7.5 7.5 7.5 7.5 0 0 0 7.5-7.5V404.214c0-17.885 11.983-33.901 29.142-38.947l19.987-5.879V504.5c0 4.142 3.357 7.5 7.5 7.5s7.5-3.358 7.5-7.5V354.976l25.08-7.376v12.61c0 52.757 42.921 95.677 95.678 95.677s95.678-42.92 95.678-95.677V347.6l25.08 7.376v21.266c0 4.142 3.357 7.5 7.5 7.5s7.5-3.358 7.5-7.5v-16.855l19.987 5.879c17.158 5.046 29.142 21.062 29.142 38.947V504.5c0 4.142 3.357 7.5 7.5 7.5s7.5-3.358 7.5-7.5V404.214c-.001-24.493-16.412-46.427-39.91-53.338M120.296 152.734q.002-.019.004-.004zm247.932-49.557c4.705 0 8.532 3.828 8.532 8.532v33.133a29.4 29.4 0 0 0-5.671-.552h-2.861c-2.279 0-4.422-.887-6.033-2.499s-2.499-3.754-2.499-6.034v-24.048c-.001-4.704 3.826-8.532 8.532-8.532m-232.987 8.532c0-4.705 3.827-8.532 8.532-8.532s8.532 3.828 8.532 8.532v24.048a8.48 8.48 0 0 1-2.499 6.034 8.48 8.48 0 0 1-6.033 2.499h-2.861c-1.934 0-3.831.19-5.671.552zm24.048 72.146c0-4.142-3.357-7.5-7.5-7.5s-7.5 3.358-7.5 7.5c0 .173.006.344.007.516h-4.528a12.57 12.57 0 0 1-9.303-4.131c-2.406-2.66-3.532-6.115-3.17-9.73.63-6.292 6.611-11.22 13.617-11.22h2.862a23.38 23.38 0 0 0 16.639-6.892 23.38 23.38 0 0 0 6.893-16.64V111.71c0-10.79-7.303-19.901-17.224-22.667C166.161 45.036 208.511 15 256.002 15c47.488 0 89.837 30.036 105.917 74.043-9.921 2.765-17.224 11.876-17.224 22.666v24.048a23.37 23.37 0 0 0 6.893 16.64 23.37 23.37 0 0 0 16.64 6.892h2.861c7.006 0 12.987 4.929 13.617 11.221.362 3.614-.764 7.069-3.17 9.729a12.57 12.57 0 0 1-9.303 4.131h-4.531c.001-.172.007-.344.007-.516 0-4.142-3.357-7.5-7.5-7.5s-7.5 3.358-7.5 7.5c0 53.326-43.384 96.709-96.71 96.709s-96.71-43.382-96.71-96.708M336.677 360.21c0 30.114-16.597 56.411-41.113 70.269v-14.156c0-4.142-3.357-7.5-7.5-7.5s-7.5 3.358-7.5 7.5v20.728a80 80 0 0 1-17.064 3.476v-32.219a7.5 7.5 0 0 0-7.5-7.5 7.5 7.5 0 0 0-7.5 7.5v32.219a80 80 0 0 1-17.064-3.476v-20.728c0-4.142-3.357-7.5-7.5-7.5s-7.5 3.358-7.5 7.5v14.156c-24.516-13.859-41.113-40.155-41.113-70.269v-17.022l9.418-2.77c13.334-3.921 22.646-16.368 22.646-30.267V284.42c14.705 7.137 31.2 11.145 48.613 11.145s33.908-4.007 48.613-11.145v25.732c0 13.899 9.313 26.345 22.646 30.267l9.418 2.77z"/><path d="M384.257 400.808a7.5 7.5 0 0 0-7.5 7.5V504.5c0 4.142 3.357 7.5 7.5 7.5s7.5-3.358 7.5-7.5v-96.192a7.5 7.5 0 0 0-7.5-7.5M233.994 50.187c7.313-2.072 14.718-3.122 22.005-3.122s14.691 1.05 22.005 3.122a7.5 7.5 0 0 0 2.048.286 7.502 7.502 0 0 0 2.04-14.718c-8.644-2.448-17.423-3.689-26.093-3.689s-17.449 1.241-26.093 3.689a7.5 7.5 0 0 0 4.088 14.432M280.048 231.436h24.048a7.5 7.5 0 0 0 7.5-7.5c0-17.396-14.152-31.548-31.548-31.548H231.95c-17.396 0-31.548 14.152-31.548 31.548a7.5 7.5 0 0 0 7.5 7.5h24.048c9.628 0 18.257-4.34 24.049-11.161 5.792 6.82 14.42 11.161 24.049 11.161m0-24.049c6.427 0 12.01 3.682 14.749 9.048h-14.749c-6.427 0-12.01-3.682-14.75-9.048zm-48.098 9.049h-14.749c2.739-5.366 8.322-9.048 14.749-9.048h14.75c-2.74 5.365-8.323 9.048-14.75 9.048"/></svg>