<svg xmlns="http://www.w3.org/2000/svg" xml:space="preserve" viewBox="0 0 512 512"><path d="m413.863 382.119-84.486-24.849a24.05 24.05 0 0 1-17.263-23.071v-62.167H199.888v62.167a24.05 24.05 0 0 1-17.263 23.071l-84.486 24.849c-20.469 6.02-34.526 24.806-34.526 46.142V504.5h384.774v-76.238c.001-21.336-14.055-40.122-34.524-46.143" style="fill:#f0c382"/><path d="m413.863 382.119-84.486-24.849c-.802-.236-1.547-.577-2.308-.889l-71.068 11.845-71.067-11.845c-.761.312-1.506.654-2.308.889L98.14 382.119c-20.469 6.02-34.526 24.806-34.526 46.142V504.5h384.774v-76.238c0-21.336-14.056-40.122-34.525-46.143" style="fill:#b67f5f"/><path d="M372.235 159.806h-12.024V71.629H151.792v88.177h-12.024c-11.068 0-20.04 8.972-20.04 20.04s8.972 20.04 20.04 20.04h12.429c4.106 53.795 48.957 96.194 103.805 96.194s99.699-42.398 103.805-96.194h12.429c11.068 0 20.04-8.973 20.04-20.04-.001-11.067-8.973-20.04-20.041-20.04" style="fill:#ffe1a0"/><path d="M151.792 71.629v88.177h-10.881c-10.483 0-20.035 7.542-21.08 17.973-1.202 11.996 8.186 22.108 19.936 22.108h12.43c2.006 26.285 13.785 49.803 31.659 67.029V143.774c0-17.709 14.356-32.065 32.065-32.065h96.194c8.854 0 16.032-7.178 16.032-16.032V71.629z" style="fill:#f7d291"/><path d="M320.13 207.903H191.872c-13.282 0-24.048 10.767-24.048 24.048v8.016c0 48.699 39.478 88.177 88.177 88.177s88.177-39.478 88.177-88.177v-8.016c.001-13.281-10.766-24.048-24.048-24.048M295.217 7.5h-78.431c-47.592 0-84.703 41.223-79.721 88.553l6.711 64.178 8.299-.146c8.743-.154 15.749-7.286 15.749-16.03v-40.361c0-8.854 7.178-16.032 16.032-16.032h144.28999999999996c8.854 0 16.032 7.178 16.032 16.032v40.361c0 8.744 7.007 15.875 15.749 16.03l8.299.146 6.711-64.178C379.92 48.722 342.809 7.5 295.217 7.5" style="fill:#ff8250"/><path d="M288.066 312.113c-48.699 0-88.177-39.478-88.177-88.177v-16.032h-8.016c-13.282 0-24.048 10.767-24.048 24.048v8.016c0 48.699 39.478 88.177 88.177 88.177 20.663 0 39.624-7.16 54.655-19.063-7.222 1.912-14.768 3.031-22.591 3.031" style="fill:#dc7346"/><path d="M295.217 7.5h-78.431c-5.81 0-11.457.634-16.897 1.799v14.234c0 26.563 21.534 48.097 48.097 48.097H373.73C366.351 35.399 334.357 7.5 295.217 7.5" style="fill:#ff9664"/><path d="M202.048 435.99c7.64 0 15.048-2.742 20.855-7.721l33.098-28.37 33.099 28.369a32.07 32.07 0 0 0 20.855 7.721c11.484 0 22.156-6.191 27.851-16.157l25.125-43.967c1.343-2.35 2.348-4.92 3.101-7.814l-36.655-10.781c-.802-.236-1.548-.577-2.309-.889l-71.067 11.845-71.067-11.845c-.761.312-1.507.654-2.309.889l-36.655 10.781c.752 2.892 1.758 5.462 3.101 7.811l25.125 43.97c5.697 9.966 16.369 16.158 27.852 16.158" style="fill:#a06e50"/><path d="m207.253 410.01 48.748-41.784-64.827-36.015c-3.99-2.216-9.022-.66-11.063 3.422l-10.369 20.739a8.01 8.01 0 0 0 .21 7.562l25.124 43.966c2.497 4.371 8.356 5.385 12.177 2.11M304.75 410.01l-48.749-41.784 64.827-36.015c3.99-2.216 9.022-.66 11.063 3.422l10.369 20.739a8.01 8.01 0 0 1-.21 7.562L316.926 407.9c-2.496 4.371-8.355 5.385-12.176 2.11" style="fill:#b67f5f"/><path d="M207.905 160.323a7.5 7.5 0 0 0-7.5 7.5v8.016a7.5 7.5 0 0 0 15 0v-8.016a7.5 7.5 0 0 0-7.5-7.5M304.098 160.323a7.5 7.5 0 0 0-7.5 7.5v8.016c0 4.142 3.357 7.5 7.5 7.5s7.5-3.358 7.5-7.5v-8.016c0-4.143-3.357-7.5-7.5-7.5"/><path d="m415.979 374.924-65.723-19.33-11.657-23.315a15.59 15.59 0 0 0-9.292-7.884c-3.171-.981-6.583-.887-9.692.192v-13.219c17.195-15.336 28.833-36.772 31.483-60.877a111.2 111.2 0 0 0 15.535-43.104h4.46c14.617 0 27.154-10.861 28.542-24.727.778-7.771-1.764-15.53-6.974-21.288a27.6 27.6 0 0 0-16.138-8.728l5.875-55.807c2.597-24.67-5.433-49.392-22.029-67.828C343.77 10.574 320.024 0 295.217 0h-78.432c-24.806 0-48.552 10.573-65.149 29.009s-24.627 43.158-22.03 67.829l5.892 55.972c-12.188 2.285-21.916 12.106-23.13 24.222-.778 7.771 1.764 15.531 6.974 21.289a27.6 27.6 0 0 0 20.425 9.066h5.598a111.1 111.1 0 0 0 15.541 43.109c2.651 24.103 14.289 45.537 31.482 60.872v13.219c-3.108-1.08-6.52-1.173-9.692-.193a15.59 15.59 0 0 0-9.292 7.884l-11.657 23.314-65.724 19.331c-23.498 6.911-39.909 28.844-39.909 53.338V504.5a7.5 7.5 0 0 0 15 0v-76.238c0-7.386 2.048-14.451 5.657-20.559l42.911 36.781a24.53 24.53 0 0 1 8.578 18.651V504.5a7.5 7.5 0 0 0 15 0v-41.365a39.52 39.52 0 0 0-13.816-30.04l-42.815-36.699a40.2 40.2 0 0 1 13.628-7.082l64.69-19.026 23.619 41.334a15.47 15.47 0 0 0 10.824 7.59q1.335.23 2.666.23a15.46 15.46 0 0 0 10.08-3.738l43.865-37.6 43.867 37.601a15.46 15.46 0 0 0 12.747 3.507 15.47 15.47 0 0 0 10.822-7.59l23.62-41.333 64.689 19.026a40.2 40.2 0 0 1 13.628 7.082l-42.815 36.698a39.52 39.52 0 0 0-13.816 30.04V504.5c0 4.142 3.357 7.5 7.5 7.5s7.5-3.358 7.5-7.5v-41.365c0-7.18 3.127-13.978 8.578-18.651l42.91-36.781c3.608 6.108 5.656 13.172 5.656 20.559V504.5c0 4.142 3.357 7.5 7.5 7.5s7.5-3.358 7.5-7.5v-76.238c.001-24.493-16.41-46.427-39.908-53.338M151.792 184.371a7.5 7.5 0 0 0-7.5 7.5v.516h-4.524a12.57 12.57 0 0 1-9.303-4.131c-2.407-2.66-3.533-6.115-3.171-9.729.63-6.292 6.611-11.22 13.617-11.22h10.881c12.976 0 23.532-10.557 23.532-23.532v-40.081c0-4.705 3.828-8.532 8.532-8.532h104.209c4.143 0 7.5-3.358 7.5-7.5s-3.357-7.5-7.5-7.5H183.856c-12.976 0-23.532 10.556-23.532 23.532v40.081c0 4.705-3.828 8.532-8.532 8.532h-1.264l-6.004-57.039c-2.153-20.449 4.503-40.941 18.26-56.222S196.224 15 216.785 15h78.432a72.77 72.77 0 0 1 54.002 24.046 72.77 72.77 0 0 1 18.26 56.222l-6.004 57.039h-1.264c-4.705 0-8.532-3.828-8.532-8.532v-40.081c0-12.976-10.557-23.532-23.532-23.532h-8.016c-4.143 0-7.5 3.358-7.5 7.5s3.357 7.5 7.5 7.5h8.016c4.705 0 8.532 3.828 8.532 8.532v40.081c0 12.976 10.557 23.532 23.532 23.532h12.023a12.57 12.57 0 0 1 9.303 4.131c2.407 2.66 3.533 6.115 3.171 9.729-.63 6.292-6.61 11.221-13.616 11.221h-3.385v-.439a7.5 7.5 0 0 0-7.497-7.5h-.003a7.5 7.5 0 0 0-7.5 7.494 96.9 96.9 0 0 1-3.849 26.997c-4.966-10.92-15.971-18.536-28.729-18.536H191.872c-12.761 0-23.769 7.62-28.733 18.545a96.9 96.9 0 0 1-3.848-27.078 7.5 7.5 0 0 0-7.499-7.5m23.532 55.597v-8.016c0-9.125 7.423-16.548 16.548-16.548H320.13c9.125 0 16.549 7.424 16.549 16.548v8.016c0 44.486-36.192 80.677-80.678 80.677s-80.677-36.191-80.677-80.677m27.048 164.348c-.055.047-.181.159-.424.116a.48.48 0 0 1-.36-.252l-25.26-44.207 10.493-20.986a.5.5 0 0 1 .309-.262.48.48 0 0 1 .403.042l55.403 30.78zm108.041-.135a.47.47 0 0 1-.358.251c-.241.041-.374-.073-.425-.116l-40.563-34.769 6.612-3.673a7.5 7.5 0 0 0-7.285-13.112l-12.393 6.884-48.613-27.007v-10.296c14.256 8.445 30.876 13.302 48.613 13.302s34.357-4.857 48.613-13.302v10.295l-8.926 4.959a7.5 7.5 0 0 0-2.913 10.198 7.5 7.5 0 0 0 10.198 2.914l21.495-11.942c.048-.027.192-.108.404-.042.211.065.285.214.31.262l10.493 20.986z"/><path d="M256.081 432.871h-.08c-4.142 0-7.46 3.358-7.46 7.5s3.398 7.5 7.54 7.5c4.143 0 7.5-3.358 7.5-7.5s-3.357-7.5-7.5-7.5M256.081 488.984h-.08c-4.142 0-7.46 3.358-7.46 7.5s3.398 7.5 7.54 7.5c4.143 0 7.5-3.358 7.5-7.5s-3.357-7.5-7.5-7.5M256.001 255.484c11.897 0 22.856-3.804 29.316-10.177a7.5 7.5 0 0 0-10.535-10.678c-2.737 2.701-9.299 5.855-18.781 5.855s-16.043-3.154-18.781-5.855a7.5 7.5 0 1 0-10.535 10.677c6.459 6.373 17.419 10.178 29.316 10.178M199.888 151.274h16.032a7.5 7.5 0 0 0 0-15h-16.032a7.5 7.5 0 0 0 0 15M296.082 151.274h16.032c4.143 0 7.5-3.358 7.5-7.5s-3.357-7.5-7.5-7.5h-16.032a7.5 7.5 0 0 0 0 15"/></svg>