<svg xmlns="http://www.w3.org/2000/svg" xml:space="preserve" viewBox="0 0 512 512"><path d="M391.94 139.25C387.624 65.244 328.045 7.5 256 7.5S124.375 65.244 120.06 139.25l-6.842 112.651C108.07 336.657 173.479 408.306 256 408.306s147.93-71.65 142.782-156.405z" style="fill:#8c5f4b"/><path d="M207.032 16.936c7.973 35.868 39.906 62.709 78.175 62.709h89.749C351.628 36.499 306.991 7.5 256 7.5c-17.245 0-33.738 3.388-48.968 9.436" style="fill:#a06e50"/><path d="M408.282 396.981 325.49 367.76a32.065 32.065 0 0 1-21.393-30.237V296.08h-96.194v41.443a32.065 32.065 0 0 1-21.393 30.237l-82.792 29.221c-19.229 6.787-32.089 24.962-32.089 45.354V504.5h368.742v-62.165c0-20.392-12.859-38.567-32.089-45.354" style="fill:#e3aa75"/><path d="M207.903 325.904c14.8 6.545 31.063 10.257 48.097 10.257s33.296-3.712 48.097-10.257V296.08h-96.194z" style="fill:#d29b6e"/><path d="M320.129 103.694H191.871c-22.136 0-40.081 17.945-40.081 40.081v61.186c0 56.112 43.121 104.395 99.172 107.034 59.844 2.818 109.248-44.867 109.248-104.091v-64.129c0-22.137-17.945-40.081-40.081-40.081" style="fill:#f5b97d"/><path d="M175.84 167.82h64.13v24.05h-64.13zM272.03 167.82h64.13v24.05h-64.13z" style="fill:#e3aa75"/><path d="M183.855 204.96v-37.137c0-22.136 17.945-40.081 40.081-40.081h80.161c8.854 0 16.032-7.178 16.032-16.032v-8.016H191.871c-22.136 0-40.081 17.945-40.081 40.081v60.958c0 47.034 29.902 90.046 75.055 103.214 15.696 4.578 30.907 5.111 45.205 2.899-50.6-7.968-88.195-53.501-88.195-105.886" style="fill:#e3aa75"/><path d="M71.629 504.5h368.742v-62.165c0-20.392-12.859-38.567-32.089-45.354l-41.156-14.525c-12.777 14.949-49.188 53.757-101.598 77.991a22.7 22.7 0 0 1-19.055 0c-52.41-24.235-88.821-63.042-101.598-77.991l-41.156 14.525c-19.229 6.787-32.089 24.962-32.089 45.354z" style="fill:#b4f09b"/><path d="m124.591 395.375.906 1.423 1.096 1.282c14.203 16.619 53.336 58.091 109.785 84.194a46.4 46.4 0 0 0 19.621 4.317 46.4 46.4 0 0 0 19.622-4.317c56.449-26.103 95.582-67.575 109.785-84.194l1.55-1.813 1.163-2.082 2.016-3.608-23.01-8.121c-12.777 14.949-49.189 53.757-101.598 77.991a22.7 22.7 0 0 1-19.056 0c-52.41-24.235-88.821-63.042-101.598-77.991l-23.279 8.216z" style="fill:#9bdc9b"/><path d="m410.778 389.909-49.075-17.32c13.684-13.457 24.832-29.516 32.534-47.01 9.705-22.045 13.889-45.514 12.434-69.754l-7.245-120.746C394.882 59.333 331.882 0 256 0S117.118 59.333 112.574 135.079l-7.245 120.746c-1.459 24.319 2.755 47.858 12.525 69.961 7.698 17.416 18.809 33.4 32.439 46.804l-49.072 17.319c-22.187 7.83-37.093 28.899-37.093 52.427V504.5c0 4.142 3.357 7.5 7.5 7.5s7.5-3.358 7.5-7.5v-62.165c0-17.18 10.885-32.564 27.085-38.282l34.257-12.09c9.809 11.268 47.093 51.122 103.342 75.558A30.6 30.6 0 0 0 256 470.045c4.157 0 8.315-.842 12.188-2.524 19.273-8.374 38.252-19.44 56.407-32.891a7.501 7.501 0 0 0-8.929-12.053c-17.24 12.774-35.226 23.266-53.454 31.186a15.64 15.64 0 0 1-12.422 0c-46.98-20.41-80.7-53.014-93.96-67.221l33.178-11.71c15.789-5.573 26.396-20.566 26.396-37.309V311.83a108.1 108.1 0 0 0 35.206 7.656q2.737.13 5.455.128c14.088 0 27.772-2.591 40.532-7.565v25.474c0 16.743 10.607 31.736 26.396 37.309l33.195 11.716c-3.835 4.124-9.375 9.784-16.435 16.215a7.5 7.5 0 0 0-.493 10.595 7.48 7.48 0 0 0 5.546 2.449 7.47 7.47 0 0 0 5.049-1.956c10.708-9.755 18.064-17.772 21.667-21.892l34.265 12.093c16.2 5.718 27.085 21.102 27.085 38.282V504.5c0 4.142 3.357 7.5 7.5 7.5s7.5-3.358 7.5-7.5v-62.165c-.001-23.527-14.907-44.596-37.094-52.426m-159.464-85.407c-24.929-1.174-48.165-12.197-65.427-31.04-17.152-18.721-26.598-43.049-26.598-68.503v-29.637h9.049v8.532c0 21.816 17.748 39.564 39.564 39.564s39.564-17.749 39.564-39.564v-.516h17.064v.516c0 21.816 17.748 39.564 39.564 39.564s39.564-17.749 39.564-39.564v-8.532h9.049v32.581c0 26.696-10.642 51.55-29.964 69.984-19.307 18.423-44.665 27.868-71.429 26.615M207.901 192.05a7.5 7.5 0 0 0 7.5-7.5v-9.228h17.066v8.532c0 13.545-11.02 24.564-24.564 24.564s-24.564-11.02-24.564-24.564v-8.532h17.063v9.228a7.5 7.5 0 0 0 7.499 7.5m96.195 0a7.5 7.5 0 0 0 7.5-7.5v-9.228h17.065v8.532c0 13.545-11.02 24.564-24.564 24.564s-24.564-11.02-24.564-24.564v-8.532h17.063v9.228a7.5 7.5 0 0 0 7.5 7.5m7.501 145.473v-32.665A112.6 112.6 0 0 0 333.1 288.74c22.319-21.292 34.61-50.001 34.61-80.837v-64.129c0-26.236-21.345-47.581-47.581-47.581h-8.017c-4.143 0-7.5 3.358-7.5 7.5s3.357 7.5 7.5 7.5h8.017c17.965 0 32.581 14.616 32.581 32.581v16.548h-80.678a7.5 7.5 0 0 0-7.5 7.5v.516h-17.064v-.516a7.5 7.5 0 0 0-7.5-7.5H159.29v-16.548c0-17.965 14.616-32.581 32.581-32.581h88.177c4.143 0 7.5-3.358 7.5-7.5s-3.357-7.5-7.5-7.5h-88.177c-26.236 0-47.581 21.345-47.581 47.581v61.186c0 29.215 10.845 57.141 30.537 78.636 7.606 8.302 16.224 15.286 25.576 20.833v33.095c0 10.396-6.586 19.705-16.389 23.165l-17.769 6.271c-31.766-27.92-48.483-67.907-45.944-110.237l7.245-120.746C131.617 68.14 188.04 15 256 15s124.383 53.14 128.453 120.977l7.245 120.746c2.538 42.305-14.186 82.313-45.947 110.236l-17.766-6.27c-9.802-3.461-16.388-12.77-16.388-23.166"/><path d="M274.781 242.645c-2.737 2.701-9.299 5.855-18.781 5.855s-16.044-3.154-18.781-5.855a7.5 7.5 0 0 0-10.535 10.677c6.46 6.373 17.419 10.177 29.316 10.177s22.856-3.805 29.316-10.177a7.5 7.5 0 0 0-10.535-10.677M214.1 132.49l-16.032 4.008a7.5 7.5 0 1 0 3.639 14.552l16.032-4.008a7.5 7.5 0 1 0-3.639-14.552M288.805 137.947a7.5 7.5 0 0 0 5.457 9.095l16.032 4.008a7.5 7.5 0 0 0 1.825.226 7.505 7.505 0 0 0 7.271-5.683 7.5 7.5 0 0 0-5.457-9.095L297.9 132.49a7.5 7.5 0 0 0-9.095 5.457"/></svg>