<svg xmlns="http://www.w3.org/2000/svg" xml:space="preserve" viewBox="0 0 512 512"><path d="M258.604 7.524c-76.37-1.431-138.877 63.437-138.877 139.821v40.774l272.548-4.265v-40.081c0-74.391-59.61-134.861-133.671-136.249" style="fill:#5a4650"/><path d="m413.863 374.104-84.486-24.849a24.05 24.05 0 0 1-17.263-23.071v-38.119H199.888v38.119a24.05 24.05 0 0 1-17.263 23.071l-84.486 24.849c-20.469 6.02-34.525 24.806-34.525 46.142V504.5h384.774v-84.254c0-21.336-14.056-40.122-34.525-46.142" style="fill:#f7d291"/><path d="m413.863 374.104-79.104-23.266c-6.903 37.253-39.506 65.485-78.758 65.485s-71.856-28.232-78.758-65.485l-79.104 23.266c-20.469 6.02-34.525 24.806-34.525 46.142V504.5h384.774v-84.254c0-21.336-14.056-40.122-34.525-46.142" style="fill:#e6646e"/><path d="M199.888 313.969c16.841 8.996 35.939 14.176 56.113 14.176s39.272-5.18 56.113-14.176v-25.904H199.888z" style="fill:#f0c382"/><path d="M191.872 87.661c-6.883 6.652-24.048 26.638-24.048 56.113v8.016c0 8.854-7.179 16.032-16.032 16.032h-12.024c-11.068 0-20.04 8.972-20.04 20.04s8.972 20.04 20.04 20.04h12.429c4.106 53.795 48.958 96.194 103.805 96.194 57.553 0 104.21-46.656 104.21-104.21V87.661z" style="fill:#ffe1a0"/><path d="M191.872 87.661c-2.018 1.95-24.048 22.671-24.048 56.113v8.016c0 8.854-7.178 16.032-16.032 16.032h-10.88c-10.483 0-20.035 7.542-21.08 17.973-1.201 11.996 8.186 22.108 19.936 22.108h12.429c4.106 53.795 48.958 96.194 103.805 96.194 5.484 0 10.83-.534 16.083-1.351-49.946-7.708-88.228-50.754-88.228-102.859v-26.064c0-20.577 24.018-31.522 39.713-18.215 35.028 29.701 79.852 58.777 133.984 76.343 1.688-7.442 2.659-24.112 2.659-32.065V87.661z" style="fill:#f7d291"/><path d="M392.275 143.774c0-74.392-59.61-134.862-133.671-136.249-39.885-.748-75.882 16.688-101.276 44.304 30.048 41.755 109.791 135.92 234.413 164.028z" style="fill:#64505a"/><path d="m391.942 188.847.333-45.073c0-74.392-59.61-134.862-133.671-136.249-26.132-.49-50.523 6.936-71.428 19.806 33.368 44.753 107.678 130.793 204.766 161.516M256.001 456.403c-26.563 0-48.097 21.534-48.097 48.097h96.194c0-26.563-21.534-48.097-48.097-48.097" style="fill:#6e5a64"/><path d="M154.037 357.663c9.913 47.233 51.785 82.708 101.964 82.708s92.051-35.475 101.964-82.708l-23.206-6.825c-6.903 37.253-39.506 65.485-78.758 65.485s-71.856-28.232-78.758-65.485z" style="fill:#dc4655"/><path d="M207.904 168.339a7.5 7.5 0 0 0-7.5 7.5v8.016a7.5 7.5 0 0 0 15 0v-8.016a7.5 7.5 0 0 0-7.5-7.5M285.317 237.291a7.5 7.5 0 0 0 .071-10.606 7.5 7.5 0 0 0-10.606-.071c-2.737 2.701-9.298 5.855-18.781 5.855s-16.043-3.154-18.781-5.855a7.5 7.5 0 1 0-10.535 10.677c6.459 6.373 17.418 10.177 29.316 10.177s22.857-3.805 29.316-10.177"/><path d="m415.979 366.908-84.486-24.849c-6.994-2.057-11.879-8.585-11.879-15.876v-34.455a112 112 0 0 0 12.294-9.885c18.482-17.127 30.507-39.721 34.409-64.334 8.308 2.422 16.531 4.361 24.655 5.795q.652.115 1.303.114a7.5 7.5 0 0 0 7.495-7.212l2.49-64.746c1.538-39.993-12.898-77.901-40.65-106.74S296.534 0 256.511 0c-40.22 0-77.671 16.015-105.456 45.094s-42.079 67.221-40.249 107.398l1.513 33.218c-.573 7.548 1.96 15.032 7.022 20.626a27.6 27.6 0 0 0 20.425 9.067h5.598c4.399 31.522 22.003 58.87 47.023 76.264v34.517c0 7.291-4.885 13.819-11.879 15.876l-84.486 24.849c-23.498 6.912-39.909 28.845-39.909 53.338V504.5a7.5 7.5 0 0 0 15 0v-84.254a40.2 40.2 0 0 1 3.191-15.666l45.566 39.871a24.56 24.56 0 0 1 8.389 18.486V504.5a7.5 7.5 0 0 0 15 0v-41.563a39.56 39.56 0 0 0-13.511-29.775l-47.083-41.198c4.76-4.908 10.763-8.657 17.59-10.665l71.468-21.02c10.634 37.156 45.139 63.544 84.277 63.544 39.225 0 73.651-26.355 84.281-63.543l71.464 21.019c6.827 2.008 12.83 5.757 17.59 10.665l-47.082 41.198a39.56 39.56 0 0 0-13.512 29.775V504.5a7.5 7.5 0 0 0 15 0v-41.563a24.57 24.57 0 0 1 8.389-18.487l45.566-39.87a40.2 40.2 0 0 1 3.191 15.666V504.5a7.5 7.5 0 0 0 15 0v-84.254c.001-24.493-16.41-46.426-39.908-53.338M161.9 55.457a132.6 132.6 0 0 1 20.633-17.604c51.26 60.142 102.353 104.723 151.932 132.544a7.495 7.495 0 0 0 10.21-2.871 7.5 7.5 0 0 0-2.871-10.21c-47.523-26.668-96.703-69.491-146.27-127.338C214.072 20.188 234.843 15 256.512 15c35.907 0 69.393 14.249 94.29 40.122 24.897 25.874 37.849 59.883 36.469 95.763l-1.026 26.677a247 247 0 0 1-14.994-5.748 7.5 7.5 0 0 0-5.833 13.819 259 259 0 0 0 20.226 7.559l-.525 13.664c-36.068-7.924-74.292-26.146-113.768-54.25-30.474-21.695-62.187-49.837-91.71-81.384a7.5 7.5 0 0 0-10.952 10.25 748 748 0 0 0 9.045 9.482c-7.959 9.63-17.409 26.585-17.409 52.819v8.016c0 4.705-3.828 8.532-8.532 8.532h-10.88a29.4 29.4 0 0 0-14.556 3.865l-.564-12.378c-1.644-36.044 11.18-70.263 36.107-96.351m-2.608 144.43a7.5 7.5 0 0 0-15 0v.516h-4.524a12.57 12.57 0 0 1-9.303-4.131c-2.407-2.66-3.533-6.115-3.17-9.73.63-6.292 6.611-11.22 13.617-11.22h10.88c12.976 0 23.532-10.557 23.532-23.532v-8.016c0-20.765 6.889-34.221 13.023-42.089 24.416 24.174 49.326 45.357 74.304 63.14 30.437 21.669 60.295 37.728 89.187 48.003-2.969 22.2-13.542 42.646-30.125 58.013-17.923 16.608-41.26 25.755-65.712 25.755-53.326.001-96.709-43.383-96.709-96.709m96.709 208.936c-32.504 0-61.151-21.95-69.906-52.833 12.6-4.346 21.293-16.388 21.293-29.806V300.45c14.705 7.137 31.199 11.146 48.613 11.146 17.037 0 33.602-3.85 48.613-11.112v25.698c0 13.42 8.694 25.462 21.295 29.807-8.752 30.91-37.332 52.834-69.908 52.834"/><path d="M215.92 144.291h-16.032a7.5 7.5 0 0 0 0 15h16.032a7.5 7.5 0 0 0 0-15M256.001 448.903c-30.656 0-55.597 24.94-55.597 55.597a7.5 7.5 0 0 0 15 0c0-22.385 18.211-40.597 40.597-40.597s40.597 18.211 40.597 40.597a7.5 7.5 0 0 0 15 0c0-30.656-24.941-55.597-55.597-55.597"/></svg>