<svg xmlns="http://www.w3.org/2000/svg" xml:space="preserve" viewBox="0 0 512 512"><path d="m408.281 396.284-82.792-29.221a32.065 32.065 0 0 1-21.393-30.237v-49.459h-96.194v49.459a32.06 32.06 0 0 1-21.393 30.236l-82.793 29.221c-19.23 6.787-32.089 24.962-32.089 45.354v62.165h368.742v-62.165c.001-20.39-12.859-38.566-32.088-45.353" style="fill:#b4f09b"/><path d="M255.999 343.481c48.097 0 124.635-24.847 144.57-32.783 8.243-3.281 12.297-12.693 8.878-20.879-7.107-17.016-17.174-48.44-17.174-89.931v-56.113C392.272 68.512 331.26 7.5 255.999 7.5c-75.262 0-136.274 61.012-136.274 136.274v56.113c0 41.491-10.067 72.916-17.174 89.931-3.419 8.186.635 17.598 8.878 20.879 19.935 7.937 96.473 32.784 144.57 32.784" style="fill:#739bd7"/><path d="M344.176 295.384H167.822c-26.563 0-48.097 21.534-48.097 48.097 0 53.126 43.067 96.194 96.194 96.194h80.161c53.126 0 96.194-43.068 96.194-96.194-.002-26.564-21.534-48.097-48.098-48.097" style="fill:#9c969e"/><path d="M342.043 319.432c17.449 0 24.301 22.63 9.782 32.309l-82.487 54.991a24.05 24.05 0 0 1-26.679 0l-82.487-54.991c-14.518-9.679-7.666-32.309 9.782-32.309z" style="fill:#6f6571"/><path d="M255.999 7.5c-23.193 0-45.011 5.83-64.129 16.049v7.303c0 53.126 43.067 96.194 96.194 96.194h103.079C382.88 59.692 325.586 7.5 255.999 7.5" style="fill:#8cb4eb"/><path d="M242.659 406.732a24.05 24.05 0 0 0 26.68 0l58.343-38.895-2.193-.774a32.065 32.065 0 0 1-21.393-30.237v-49.459h-96.194v49.459a32.065 32.065 0 0 1-21.393 30.237l-2.193.774z" style="fill:#e3aa75"/><path d="M207.902 325.21c13.042 5.808 27.268 9.411 42.305 10.118q2.911.137 5.792.137c17.103 0 33.353-3.645 48.097-10.11v-37.987h-96.194z" style="fill:#d29b6e"/><path d="M328.143 143.077h-12.712a8.02 8.02 0 0 1-5.668-2.348l-29.522-29.522c-3.03-3.03-8.211-.884-8.211 3.401v20.453a8.016 8.016 0 0 1-8.016 8.016h-80.161c-17.709 0-32.065 14.356-32.065 32.065v29.121c0 56.112 43.122 104.395 99.172 107.034 59.844 2.818 109.248-44.867 109.248-104.091v-32.065c0-17.708-14.355-32.064-32.065-32.064" style="fill:#f5b97d"/><path d="M328.143 151.094v-8.016h-16.032l-40.081-40.081v40.081h-88.177c-17.709 0-32.065 14.356-32.065 32.065v28.852c0 47.061 29.921 90.101 75.102 103.267 15.682 4.57 30.874 5.097 45.157 2.888-50.6-7.969-88.195-53.501-88.195-105.886v-5.072c0-17.709 14.356-32.065 32.065-32.065h96.194c8.855-.001 16.032-7.179 16.032-16.033" style="fill:#e3aa75"/><path d="M224.404 235.931c-2.574 0-4.497 2.354-4.061 4.891 2.65 15.387 17.604 27.173 35.656 27.173s33.006-11.786 35.656-27.173c.437-2.537-1.486-4.891-4.061-4.891z" style="fill:#fff"/><path d="M215.402 199.887v-8.016a7.5 7.5 0 0 0-15 0v8.016a7.5 7.5 0 0 0 15 0M304.095 184.371a7.5 7.5 0 0 0-7.5 7.5v8.016a7.5 7.5 0 0 0 15 0v-8.016a7.5 7.5 0 0 0-7.5-7.5"/><path d="m410.777 389.909-18.929-6.681c5.102-12.248 7.926-25.673 7.926-39.747a55.3 55.3 0 0 0-4.801-22.559 576 576 0 0 0 8.371-3.256c5.907-2.352 10.519-6.876 12.985-12.739 2.445-5.813 2.459-12.205.04-17.999-6.198-14.838-16.595-45.875-16.595-87.041v-56.113C399.772 64.497 335.276 0 255.999 0S112.225 64.497 112.225 143.774v56.113c0 41.166-10.397 72.203-16.594 87.041-2.42 5.793-2.406 12.185.039 17.998 2.466 5.864 7.078 10.389 12.985 12.74a589 589 0 0 0 8.371 3.257 55.3 55.3 0 0 0-4.801 22.559c0 14.074 2.824 27.499 7.926 39.747l-18.929 6.681c-22.187 7.83-37.093 28.899-37.093 52.427V504.5a7.5 7.5 0 0 0 15 0v-62.165c0-4.992.925-9.83 2.626-14.326l37.925 32.507a24.54 24.54 0 0 1 8.578 18.651V504.5a7.5 7.5 0 0 0 15 0v-25.333a39.52 39.52 0 0 0-13.816-30.04l-39.755-34.075a40.5 40.5 0 0 1 16.528-10.999l20.759-7.327c16.932 28.179 46.868 47.691 81.446 50.175v56.902a7.5 7.5 0 0 0 15 0v-56.629h65.161v56.629a7.5 7.5 0 0 0 15 0v-56.902c34.578-2.484 64.514-21.996 81.446-50.175l20.759 7.327a40.5 40.5 0 0 1 16.528 10.999l-39.755 34.075a39.52 39.52 0 0 0-13.816 30.04V504.5a7.5 7.5 0 0 0 15 0v-25.333c0-7.18 3.126-13.978 8.578-18.651l37.925-32.507a40.4 40.4 0 0 1 2.626 14.326V504.5a7.5 7.5 0 0 0 15 0v-62.165c-.002-23.527-14.91-44.596-37.095-52.426m-296.574-86.18a8.47 8.47 0 0 1-4.707-4.619c-.873-2.076-.882-4.349-.025-6.401 8.099-19.389 17.753-51.232 17.753-92.822v-56.113C127.225 72.768 184.993 15 255.999 15s128.774 57.768 128.774 128.774v56.113c0 41.588 9.655 73.432 17.753 92.821.857 2.052.849 4.326-.025 6.402a8.47 8.47 0 0 1-4.707 4.619 574 574 0 0 1-10.904 4.21c-10.207-12.246-25.564-20.056-42.715-20.056H333.9c20.841-20.305 33.807-48.654 33.807-79.98v-32.064c0-21.816-17.749-39.564-39.564-39.564h-12.926L277.333 98.39a7.501 7.501 0 0 0-12.803 5.303v32.581h-40.596a7.5 7.5 0 0 0 0 15h48.096a7.5 7.5 0 0 0 7.5-7.5V121.8l27.277 27.277a7.5 7.5 0 0 0 5.303 2.197h16.032c13.545 0 24.564 11.02 24.564 24.564v32.064c0 53.326-43.384 96.709-96.709 96.709s-96.709-43.384-96.709-96.709v-32.064c0-13.545 11.02-24.564 24.564-24.564h8.02a7.5 7.5 0 0 0 0-15h-8.02c-21.816 0-39.564 17.749-39.564 39.564v32.064c0 31.326 12.966 59.676 33.807 79.98H167.82c-17.15 0-32.507 7.809-42.714 20.055a574 574 0 0 1-10.903-4.208m211.852 56.179c-8.726-3.941-14.46-12.688-14.46-22.384v-10.591h30.448c5.545 0 8.647 3.718 9.7 7.198 1.054 3.48.536 8.294-4.078 11.371zm-140.112 0-21.61-14.407c-4.614-3.076-5.132-7.891-4.078-11.371s4.155-7.198 9.7-7.198h30.448v10.591c-.001 9.697-5.734 18.444-14.46 22.385m117.636 71.946v-8.212a7.5 7.5 0 0 0-15 0v8.532h-65.161v-8.532a7.5 7.5 0 0 0-15 0v8.212c-45.409-3.821-81.194-41.994-81.194-88.374 0-22.385 18.212-40.597 40.597-40.597h29.441c1.037.643 2.081 1.276 3.139 1.886v7.163h-30.448c-11.331 0-20.773 7.007-24.057 17.852-3.284 10.844.687 21.913 10.114 28.198l82.487 54.992c5.315 3.544 11.408 5.315 17.5 5.315s12.185-1.772 17.5-5.315l18.725-12.483a7.5 7.5 0 0 0-8.32-12.48l-18.725 12.483a16.51 16.51 0 0 1-18.359 0l-47.124-31.416c9.7-7.349 15.707-18.955 15.707-31.553v-25.548c12.589 4.928 26.282 7.638 40.597 7.638s28.007-2.71 40.597-7.638v25.548c0 12.598 6.007 24.204 15.707 31.553l-.341.227a7.5 7.5 0 0 0-2.08 10.4 7.49 7.49 0 0 0 6.247 3.341c1.43 0 2.875-.408 4.153-1.261l35.704-23.803c9.428-6.285 13.398-17.354 10.114-28.198s-12.726-17.852-24.057-17.852h-30.448v-7.163c1.059-.61 2.103-1.243 3.139-1.886h29.441c22.385 0 40.597 18.212 40.597 40.597.001 46.38-35.783 84.553-81.192 88.374"/><path d="M192.385 167.126a7.5 7.5 0 0 0 7.5 7.5h16.032a7.5 7.5 0 0 0 0-15h-16.032a7.5 7.5 0 0 0-7.5 7.5M296.079 174.626h16.032a7.5 7.5 0 0 0 0-15h-16.032a7.5 7.5 0 0 0 0 15M212.426 235.931c0 21.816 19.547 39.564 43.573 39.564s43.573-17.749 43.573-39.564a7.5 7.5 0 0 0-7.5-7.5h-72.146a7.5 7.5 0 0 0-7.5 7.5m70.784 7.5c-3.695 9.889-14.497 17.064-27.211 17.064s-23.516-7.176-27.211-17.064z"/></svg>