<svg xmlns="http://www.w3.org/2000/svg" xml:space="preserve" viewBox="0 0 512.002 512.002"><path d="M140.074 191.871h231.851l9.894-64.315C391.531 64.429 342.69 7.5 278.822 7.5h-45.645c-63.869 0-112.71 56.929-102.998 120.056z" style="fill:#5a4650"/><path d="m413.861 366.087-84.486-24.849a24.05 24.05 0 0 1-17.263-23.071v-38.119H199.886v38.119a24.05 24.05 0 0 1-17.263 23.071l-84.485 24.849c-20.469 6.02-34.526 24.806-34.526 46.142v92.27h384.774v-92.27c0-21.335-14.056-40.121-34.525-46.142" style="fill:#b67f5f"/><path d="m413.861 366.087-84.486-24.849c-1.429-.42 8.079 3.594 6.786 2.939l-80.165 24.048-80.157-24.048c-1.293.655 8.214-3.359 6.786-2.939l-84.486 24.849c-20.469 6.02-34.525 24.806-34.525 46.142V504.5h384.774v-92.271c-.002-21.336-14.058-40.121-34.527-46.142" style="fill:#5a4650"/><path d="m333.41 357.459-9.558-9.558L256 360.21l-67.852-12.309-9.558 9.558a64.13 64.13 0 0 0-18.783 45.346V504.5h192.387V402.805a64.13 64.13 0 0 0-18.784-45.346" style="fill:#a5cdff"/><path d="m333.41 357.459-9.558-9.558L256 360.21l-67.852-12.309-9.558 9.558a64.1 64.1 0 0 0-13.9 20.802l27.49 31.417a32.06 32.06 0 0 0 24.133 10.95c8.564 0 16.616-3.336 22.673-9.392l17.016-17.016 17.019 17.017c6.053 6.056 14.105 9.391 22.67 9.391a32.07 32.07 0 0 0 24.134-10.95l27.489-31.417a64.2 64.2 0 0 0-13.904-20.802" style="fill:#8cb4eb"/><path d="M244.42 400.29 231.951 504.5h48.097l-12.47-104.21z" style="fill:#5a4650"/><path d="M266.254 408.306h-20.509a8.02 8.02 0 0 1-7.605-5.481l-14.205-42.616h64.129l-14.205 42.616a8.02 8.02 0 0 1-7.605 5.481" style="fill:#64505a"/><path d="M199.886 305.953c16.841 8.996 35.939 14.176 56.113 14.176s39.272-5.18 56.113-14.176v-25.905H199.886z" style="fill:#a06e50"/><path d="m194.531 326.061-21.122 25.647 36.867 42.134c3.054 3.49 8.422 3.668 11.701.39l34.022-34.022zM317.467 326.061l21.122 25.647-36.867 42.134c-3.054 3.49-8.422 3.668-11.701.39l-34.022-34.022z" style="fill:#a5cdff"/><path d="m119.725 504.5-14.123-55.538a16.03 16.03 0 0 1 4.314-14.814l25.841-25.841-11.889-17.833c-2.799-4.198-3.398-9.47-1.805-14.257 19.114-57.442 77.823-72.119 77.823-72.119v15.463a40.08 40.08 0 0 1-11.739 28.341l-9.558 9.558a64.13 64.13 0 0 0-18.783 45.346V504.5M392.273 504.5l14.123-55.538a16.03 16.03 0 0 0-4.314-14.814l-25.841-25.841 11.889-17.833c2.799-4.198 3.398-9.47 1.805-14.257-19.114-57.442-77.823-72.119-77.823-72.119v15.463a40.08 40.08 0 0 0 11.739 28.341l9.558 9.558a64.13 64.13 0 0 1 18.783 45.346V504.5" style="fill:#64505a"/><path d="M372.233 159.806h-9.065c-9.746 0-16.985-9.025-14.872-18.54 6.114-27.51-14.82-53.605-43.001-53.605h-98.593c-28.181 0-49.114 26.095-43.001 53.605 2.114 9.514-5.126 18.54-14.872 18.54h-9.065c-11.068 0-20.04 8.972-20.04 20.04s8.972 20.04 20.04 20.04h12.429c4.106 53.795 48.958 96.194 103.805 96.194s99.699-42.398 103.805-96.194h12.429c11.068 0 20.04-8.973 20.04-20.04.001-11.067-8.971-20.04-20.039-20.04" style="fill:#cd916e"/><path d="M206.703 87.661c-28.204 0-49.147 26.137-42.987 53.671 2.123 9.488-5.163 18.474-14.886 18.474h-7.922c-10.483 0-20.035 7.542-21.08 17.973-1.201 11.996 8.187 22.108 19.937 22.108h12.429c4.106 53.795 48.958 96.194 103.805 96.194 5.484 0 10.83-.534 16.083-1.351-49.946-7.708-88.228-50.754-88.228-102.859V151.79c0-22.136 17.945-40.081 40.081-40.081h56.11c13.281 0 24.048-10.767 24.048-24.048z" style="fill:#b67f5f"/><path d="M278.822 7.5h-45.645c-8.268 0-16.268.993-23.938 2.791 1.464 29.685 25.924 53.322 55.972 53.322h105.985C353.937 30.587 319.459 7.5 278.822 7.5" style="fill:#64505a"/><path d="M159.806 432.869a7.5 7.5 0 0 0-7.5 7.5V504.5a7.5 7.5 0 0 0 15 0v-64.131a7.5 7.5 0 0 0-7.5-7.5M352.193 432.871a7.5 7.5 0 0 0-7.5 7.5V504.5c0 4.142 3.357 7.5 7.5 7.5s7.5-3.358 7.5-7.5v-64.129a7.5 7.5 0 0 0-7.5-7.5"/><path d="m415.977 357.5-30.043-8.836c-20.488-33.077-53.168-47.028-66.321-51.506V283.64c25.013-17.396 42.617-44.741 47.019-76.253h4.458c14.617 0 27.154-10.861 28.544-24.728.777-7.771-1.765-15.53-6.975-21.287a27.6 27.6 0 0 0-11.681-7.63l4.014-21.794c6.027-32.719-2.725-66.148-24.013-91.716S308.401 0 275.13 0h-41.466c-32.718 0-63.673 14.266-84.927 39.14s-30.518 57.675-25.416 89.993l4.172 26.423c-8.236 4.224-14.194 12.171-15.126 21.477-.778 7.771 1.764 15.53 6.974 21.288a27.6 27.6 0 0 0 20.425 9.066h5.598c4.399 31.522 22.003 58.869 47.022 76.263v13.508c-13.153 4.478-45.833 18.429-66.321 51.506L96.021 357.5c-23.498 6.912-39.909 28.845-39.909 53.338V504.5a7.5 7.5 0 0 0 15 0v-93.662c0-17.885 11.983-33.9 29.142-38.947l16.668-4.902a117 117 0 0 0-1.976 5.473c-2.363 7.105-1.386 14.679 2.681 20.78l8.479 12.718-21.336 21.335c-5.777 5.777-8.16 14.296-6.218 22.233l13.887 56.755a7.5 7.5 0 0 0 7.279 5.719 7.5 7.5 0 0 0 7.291-9.285l-13.887-56.755a8.58 8.58 0 0 1 2.254-8.062l25.684-25.683a7.5 7.5 0 0 0 .937-9.464l-11.89-17.833c-1.483-2.225-1.821-5.041-.928-7.725 13.085-39.333 46.751-57.321 63.207-63.972v4.943c0 8.703-3.389 16.884-9.542 23.038l-9.559 9.558c-13.529 13.529-20.979 31.517-20.979 50.649v6.892a7.5 7.5 0 0 0 15 0v-6.892c0-12.461 4.006-24.302 11.394-34.069l20.218 24.262a23.58 23.58 0 0 0 18.071 8.466c3.991 0 7.898-1.026 11.352-2.926l.857 2.57a23.5 23.5 0 0 0 6.768 10.206l-11.459 93.668a7.5 7.5 0 0 0 7.454 8.412 7.5 7.5 0 0 0 7.435-6.59l10.967-89.65c.386.019.77.046 1.16.046h8.954c.387 0 .768-.027 1.151-.046l10.977 89.651a7.5 7.5 0 1 0 14.889-1.824l-11.468-93.659a23.5 23.5 0 0 0 6.777-10.213l.857-2.57a23.6 23.6 0 0 0 12.411 2.902 23.59 23.59 0 0 0 17.012-8.443l20.218-24.262c7.388 9.768 11.394 21.609 11.394 34.07v6.894c0 4.142 3.357 7.5 7.5 7.5s7.5-3.358 7.5-7.5v-6.894c0-19.133-7.451-37.121-20.979-50.649l-9.558-9.558c-6.154-6.154-9.543-14.335-9.543-23.038v-4.975c16.433 6.594 50.062 24.494 63.206 64.003.894 2.685.555 5.5-.929 7.726l-11.889 17.833a7.5 7.5 0 0 0 .937 9.463l25.683 25.683a8.58 8.58 0 0 1 2.255 8.061l-13.887 56.755a7.501 7.501 0 0 0 14.57 3.566l13.887-56.755c1.942-7.937-.44-16.456-6.218-22.233l-21.336-21.335 8.478-12.717c4.068-6.1 5.047-13.674 2.683-20.781a116 116 0 0 0-1.975-5.472l16.668 4.902c17.158 5.046 29.142 21.062 29.142 38.947V504.5c0 4.142 3.357 7.5 7.5 7.5s7.5-3.358 7.5-7.5v-93.662c-.004-24.493-16.415-46.427-39.913-53.338M159.29 191.871a7.5 7.5 0 0 0-15 0v.516h-4.524a12.57 12.57 0 0 1-9.303-4.13c-2.406-2.66-3.533-6.115-3.17-9.73.63-6.292 6.612-11.22 13.618-11.22h8.999a23.56 23.56 0 0 0 17.535-7.838 23.56 23.56 0 0 0 5.854-18.293l-1.093-9.835a32.62 32.62 0 0 1 8.105-25.327 32.62 32.62 0 0 1 24.276-10.852h67.445c4.143 0 7.5-3.358 7.5-7.5s-3.357-7.5-7.5-7.5h-67.445c-13.516 0-26.438 5.776-35.453 15.848s-13.329 23.553-11.836 36.988l1.093 9.835a8.43 8.43 0 0 1-2.123 6.632 8.43 8.43 0 0 1-6.358 2.842h-7.743l-4.029-25.514a96.58 96.58 0 0 1 22.003-77.909A96.58 96.58 0 0 1 233.664 15h41.466c28.803 0 55.892 12.695 74.321 34.83 18.43 22.134 26.006 51.074 20.788 79.4l-4.251 23.077h-3.9c-2.459 0-4.717-1.009-6.357-2.842s-2.395-4.188-2.123-6.633l1.093-9.835a47.63 47.63 0 0 0-11.835-36.987 47.64 47.64 0 0 0-35.454-15.849h-3.319c-4.143 0-7.5 3.358-7.5 7.5s3.357 7.5 7.5 7.5h3.319a32.62 32.62 0 0 1 24.277 10.852 32.62 32.62 0 0 1 8.104 25.327l-1.093 9.836a23.56 23.56 0 0 0 5.854 18.292 23.56 23.56 0 0 0 17.534 7.838h10.121l.032.001h.01a12.57 12.57 0 0 1 9.284 4.129c2.406 2.659 3.532 6.114 3.171 9.728-.63 6.293-6.612 11.222-13.618 11.222h-3.384v-.439a7.5 7.5 0 0 0-7.497-7.5h-.003a7.5 7.5 0 0 0-7.5 7.495c-.039 53.286-43.421 96.638-96.706 96.638-53.324.001-96.708-43.383-96.708-96.709M256 303.581c17.412 0 33.906-4.012 48.613-11.153v25.74c0 1.833.115 3.648.318 5.443l-48.932 27.961-48.931-27.961c.203-1.795.318-3.61.318-5.443v-25.734c14.706 7.137 31.2 11.147 48.614 11.147m-39.391 81.482a8.44 8.44 0 0 1-6.168-3.061l-21.446-25.735 4.455-4.455a47.6 47.6 0 0 0 9.409-13.33l40.894 23.368-20.724 20.724a8.44 8.44 0 0 1-6.42 2.489m34.913 15.744a8.52 8.52 0 0 1-8.094-5.834l-2.896-8.689L256 370.817l15.467 15.468-2.896 8.688a8.52 8.52 0 0 1-8.095 5.834zm71.481-44.54-21.446 25.736a8.44 8.44 0 0 1-6.168 3.061 8.47 8.47 0 0 1-6.419-2.49l-20.724-20.724 40.893-23.368a47.6 47.6 0 0 0 9.408 13.33z"/><path d="M207.903 160.323a7.5 7.5 0 0 0-7.5 7.5v8.016a7.5 7.5 0 0 0 15 0v-8.016a7.5 7.5 0 0 0-7.5-7.5M304.096 160.323a7.5 7.5 0 0 0-7.5 7.5v8.016c0 4.142 3.357 7.5 7.5 7.5s7.5-3.358 7.5-7.5v-8.016a7.5 7.5 0 0 0-7.5-7.5M285.316 229.274a7.5 7.5 0 0 0-10.535-10.677c-2.737 2.701-9.299 5.855-18.781 5.855s-16.043-3.154-18.781-5.855a7.5 7.5 0 0 0-10.606.071 7.5 7.5 0 0 0 .071 10.606c6.459 6.373 17.418 10.177 29.316 10.177 11.897.001 22.856-3.804 29.316-10.177M215.919 136.274h-16.032a7.5 7.5 0 0 0 0 15h16.032a7.5 7.5 0 0 0 0-15M296.08 151.274h16.032c4.143 0 7.5-3.358 7.5-7.5s-3.357-7.5-7.5-7.5H296.08a7.5 7.5 0 0 0 0 15"/></svg>