<svg xmlns="http://www.w3.org/2000/svg" xml:space="preserve" viewBox="0 0 512 512"><path d="m399.363 256.274-7.245-120.746C387.803 63.613 328.223 7.5 256.178 7.5S124.554 63.613 120.239 135.528l-7.245 120.746c-2.84 47.334 17.549 90.428 51.061 118.549l184.573-.274c33.318-28.127 53.566-71.094 50.735-118.275" style="fill:#ffd164"/><path d="m120.239 135.528-7.245 120.746c-2.84 47.334 17.549 90.428 51.061 118.549l92.124-.137V7.5c-72.046 0-131.625 56.113-135.94 128.028" style="fill:#ffc350"/><path d="m408.46 380.83-82.792-29.221a32.065 32.065 0 0 1-21.393-30.237v-49.459h-96.194v49.459a32.06 32.06 0 0 1-21.393 30.236l-82.793 29.221c-19.229 6.787-32.089 24.962-32.089 45.354v78.197h368.743v-78.197c0-20.391-12.859-38.566-32.089-45.353" style="fill:#f7d291"/><path d="m408.46 380.83-82.792-29.221c-5.311-1.874-9.831-5.102-13.377-9.148v11.101c0 32.919-25.367 61.626-58.272 62.613-34.048 1.021-61.97-26.275-61.97-60.093v-7.006c-1.696.981-3.464 1.863-5.36 2.532l-82.793 29.221c-19.23 6.787-32.089 24.962-32.089 45.354v78.197h368.742v-78.197c0-20.391-12.859-38.566-32.089-45.353" style="fill:#ff8087"/><path d="M208.082 326.123c14.753 6.391 31.02 9.92 48.097 9.92s33.344-3.529 48.097-9.92v-38.177h-96.194z" style="fill:#f0c382"/><path d="M256.178 311.994c-57.554 0-104.21-46.656-104.21-104.21V95.559h208.419v112.226c.001 57.553-46.655 104.209-104.209 104.209" style="fill:#ffe1a0"/><path d="M360.388 95.559H151.969v112.226c0 57.553 46.656 104.21 104.21 104.21 5.466 0 10.793-.547 16.032-1.359-49.921-7.729-88.177-50.764-88.177-102.851v-27.611c.061-9.616 7.2-17.831 16.493-20.305 21.049-5.604 43.546-12.876 63.762-22.123 1.065 12.298 11.382 21.943 23.954 21.943 1.174 0 29.066-.102 58.532-9.002 5.785-1.748 10.325-5.539 13.3-10.281-.031-.192-.115-.362-.153-.551.153-.035.314-.07.466-.106z" style="fill:#f7d291"/><path d="m304.267 328.026.008.003v-.261zM208.082 327.768v.261l.007-.003z" style="fill:#ffd164"/><path d="M247.906 7.746c-68.998 4.093-123.605 60.087-127.745 129.082l-.703 11.718.447 3.125s120.242-16.032 168.339-56.113v40.081s25.173 0 51.579-7.98c10.248-3.097 20.566 4.643 20.566 15.348 19.651-4.632 31.018-25.265 24.354-44.324-19.518-55.821-74.178-94.655-136.837-90.937" style="fill:#ffe17d"/><path d="m186.689 351.609-43.783 15.453c.611 21.997 5.1 43.853 13.236 63.361 8.77 21.025 29.114 34.61 51.831 34.61 4.581 0 9.168-.566 13.632-1.682l34.574-8.644 34.573 8.644a56.3 56.3 0 0 0 13.633 1.682c22.718 0 43.063-13.586 51.831-34.611 8.135-19.507 12.625-41.362 13.236-63.36l-43.783-15.453c-5.31-1.874-9.83-5.102-13.377-9.148v11.101c0 32.919-25.367 61.626-58.272 62.613-34.049 1.022-61.97-26.275-61.97-60.093v-7.006c-1.698.982-3.465 1.864-5.361 2.533" style="fill:#e6646e"/><path d="m304.267 328.026 30.316 10.309c6.141 2.141 10.393 7.813 10.776 14.305 1.71 29-4.617 52.407-11.339 68.525-6.127 14.691-21.993 22.716-37.436 18.855l-40.406-10.102-40.406 10.102c-15.442 3.86-31.309-4.165-37.436-18.855-6.723-16.118-13.05-39.525-11.339-68.525.383-6.493 4.635-12.164 10.776-14.305l30.316-10.309-.008-.258v24.048c0 26.563 21.534 48.097 48.097 48.097s48.097-21.534 48.097-48.097v-24.048" style="fill:#fff"/><path d="m410.956 374.108-38.121-13.455c24.296-29.457 36.327-66.285 34.014-104.829l-7.244-120.746C395.06 59.333 332.059 0 256.178 0S117.297 59.333 112.752 135.079l-7.244 120.746c-2.309 38.48 9.697 75.285 33.936 104.73l-38.401 13.553c-22.187 7.83-37.093 28.899-37.093 52.427V504.5c0 4.142 3.357 7.5 7.5 7.5s7.5-3.358 7.5-7.5v-77.965c0-5.176.994-10.185 2.817-14.82l38.092 32.65a24.54 24.54 0 0 1 8.578 18.651v41.366c0 4.142 3.357 7.5 7.5 7.5s7.5-3.358 7.5-7.5v-41.366a39.52 39.52 0 0 0-13.816-30.04l-39.773-34.091a40.5 40.5 0 0 1 16.187-10.633l53.338-18.825c1.006 23.438 6.804 42.297 12.043 54.857 7.613 18.253 27.024 28.031 46.177 23.244l38.587-9.646 38.586 9.646a40.1 40.1 0 0 0 9.75 1.208c15.668 0 30.111-9.309 36.427-24.452 5.229-12.537 11.015-31.354 12.036-54.733l52.986 18.701a40.5 40.5 0 0 1 16.346 10.804l-39.574 33.92a39.52 39.52 0 0 0-13.816 30.04v41.366c0 4.142 3.357 7.5 7.5 7.5s7.5-3.358 7.5-7.5v-41.366c0-7.18 3.127-13.978 8.578-18.651l37.823-32.419a40.4 40.4 0 0 1 2.728 14.589V504.5c0 4.142 3.357 7.5 7.5 7.5s7.5-3.358 7.5-7.5v-77.965c-.001-23.528-14.907-44.597-37.094-52.427M120.48 256.723l5.904-98.408c22.462-3.395 106.642-17.729 154.359-48.091v25.416a7.5 7.5 0 0 0 7.5 7.5c1.073 0 26.594-.094 53.749-8.3 2.565-.774 5.277-.299 7.442 1.309a8.47 8.47 0 0 1 3.453 6.859v64.896c0 26.696-10.642 51.551-29.964 69.985-19.312 18.422-44.669 27.874-71.431 26.614-24.93-1.174-48.165-12.197-65.428-31.04-17.151-18.721-26.597-43.049-26.597-68.503v-29.238c0-4.142-3.357-7.5-7.5-7.5s-7.5 3.358-7.5 7.5v29.238c0 29.215 10.845 57.142 30.537 78.636 7.605 8.301 16.223 15.286 25.575 20.832v18.461l-25.276 8.595c-9.03 3.148-15.23 11.37-15.795 20.946-.021.357-.025.702-.044 1.058l-4.868 1.718c-24.209-27.168-36.305-61.992-34.116-98.483M327.098 418.51c-4.736 11.354-16.808 17.437-28.694 14.466l-40.405-10.102a7.5 7.5 0 0 0-3.639 0l-40.406 10.102c-11.889 2.971-23.959-3.112-28.694-14.466-5.843-14.009-12.455-36.692-10.774-65.197.207-3.509 2.467-6.517 5.704-7.646l20.393-6.934v13.316c0 30.656 24.941 55.597 55.598 55.597 10.976 0 21.593-3.196 30.703-9.241a7.5 7.5 0 1 0-8.293-12.499c-6.646 4.41-14.395 6.74-22.41 6.74-22.386 0-40.598-18.211-40.598-40.597V311.83a108.1 108.1 0 0 0 35.207 7.656q2.736.129 5.455.129c14.089 0 27.772-2.591 40.532-7.565v39.999a40.5 40.5 0 0 1-2.316 13.554 7.5 7.5 0 0 0 14.14 5.006 55.5 55.5 0 0 0 3.176-18.561v-13.316l20.339 6.916c3.291 1.147 5.551 4.156 5.758 7.665 1.679 28.504-4.934 51.187-10.776 65.197m9.899-87.044-25.222-8.576v-18.031a112.6 112.6 0 0 0 21.502-16.117c22.319-21.292 34.61-50.001 34.61-80.838v-64.896c0-7.525-3.467-14.415-9.512-18.902-6.013-4.465-13.564-5.787-20.724-3.624-16.558 5.003-32.79 6.739-41.909 7.34V95.559a7.5 7.5 0 0 0-12.301-5.762c-38.684 32.237-128.304 48.708-156.136 53.172l.419-6.992C131.796 68.14 188.219 15 256.179 15c67.959 0 124.382 53.14 128.453 120.977l7.244 120.746c2.194 36.555-9.934 71.399-34.206 98.578l-4.774-1.685c-.021-.398-.026-.785-.049-1.186-.565-9.576-6.765-17.798-15.85-20.964"/><path d="M256.179 263.5c11.898 0 22.857-3.805 29.315-10.178a7.5 7.5 0 0 0-10.535-10.676c-2.737 2.701-9.298 5.854-18.78 5.854s-16.044-3.154-18.781-5.855a7.5 7.5 0 0 0-10.535 10.677c6.459 6.373 17.418 10.178 29.316 10.178M208.081 184.252a7.5 7.5 0 0 0-7.5 7.5v8.016c0 4.142 3.357 7.5 7.5 7.5s7.5-3.358 7.5-7.5v-8.016a7.5 7.5 0 0 0-7.5-7.5M304.275 184.252a7.5 7.5 0 0 0-7.5 7.5v8.016c0 4.142 3.357 7.5 7.5 7.5s7.5-3.358 7.5-7.5v-8.016a7.5 7.5 0 0 0-7.5-7.5M200.065 175.204h16.032c4.143 0 7.5-3.358 7.5-7.5s-3.357-7.5-7.5-7.5h-16.032a7.5 7.5 0 0 0 0 15M296.259 175.204h16.032c4.143 0 7.5-3.358 7.5-7.5s-3.357-7.5-7.5-7.5h-16.032c-4.143 0-7.5 3.358-7.5 7.5s3.357 7.5 7.5 7.5"/></svg>