<svg xmlns="http://www.w3.org/2000/svg" xml:space="preserve" viewBox="0 0 512.001 512.001"><path d="M256 296.081c72.145 0 125.704-26.969 141.309-38.809 6.043-4.585 8.088-12.643 4.902-19.527-4.533-9.796-9.937-27.093-9.937-53.89v-40.081C392.274 68.512 331.262 7.5 256 7.5S119.726 68.512 119.726 143.774v40.081c0 26.796-5.404 44.093-9.937 53.89-3.186 6.884-1.141 14.942 4.902 19.527 15.605 11.84 69.164 38.809 141.309 38.809" style="fill:#a06e50"/><path d="M199.89 264.02h112.23v96.19H199.89z" style="fill:#f7d291"/><path d="M199.887 305.948c16.842 8.996 35.938 14.181 56.113 14.181s39.271-5.185 56.113-14.181v-41.932H199.887z" style="fill:#f0c382"/><path d="M372.626 159.806h-8.51c-6.919 0-12.209-5.822-11.978-12.737 1.128-33.706-15.116-63.644-40.447-81.654-7.18-5.105-17.369-3.208-22.206 4.155-7.157 10.895-19.474 18.091-33.485 18.091s-26.328-7.196-33.484-18.091c-4.837-7.363-15.027-9.26-22.206-4.155-25.331 18.01-41.575 47.948-40.447 81.654.231 6.915-5.059 12.737-11.978 12.737h-8.219c-11.068 0-20.04 8.972-20.04 20.04s8.972 20.04 20.04 20.04h12.53c4.106 53.795 48.957 96.194 103.805 96.194s99.699-42.398 103.805-96.194h12.822c11.068 0 20.04-8.973 20.04-20.04-.001-11.067-8.973-20.04-20.042-20.04" style="fill:#ffe1a0"/><path d="M183.855 191.871V80.303c-15.61 17.689-24.851 41.117-23.993 66.767.231 6.915-5.059 12.737-11.978 12.737h-8.218c-11.068 0-20.04 8.972-20.04 20.04s8.972 20.04 20.04 20.04h12.529c4.106 53.795 48.957 96.194 103.805 96.194 5.483 0 10.83-.534 16.083-1.351-49.947-7.708-88.228-50.755-88.228-102.859" style="fill:#f7d291"/><path d="m403.117 362.313-58.945-18.136L256 352.194l-88.181-8.013-58.936 18.133c-26.908 8.279-45.271 33.14-45.271 61.293V504.5h384.774v-80.893c.001-28.154-18.361-53.015-45.269-61.294" style="fill:#b67f5f"/><path d="M256 312.113a11.84 11.84 0 0 1-10.993-7.443l-13.055-32.638h48.097l-13.055 32.638A11.84 11.84 0 0 1 256 312.113" style="fill:#a06e50"/><path d="M272.032 256h-32.065c-8.854 0-16.032-7.178-16.032-16.032v-16.032h64.129v16.032c.001 8.854-7.177 16.032-16.032 16.032" style="fill:#f0c382"/><path d="M202.047 419.957c7.64 0 15.047-2.742 20.854-7.72L256 383.867l33.099 28.37a32.07 32.07 0 0 0 20.855 7.72c11.484 0 22.156-6.191 27.85-16.156l27.253-47.692 1.783-3.121.892-1.562-23.561-7.249L256 352.194l-88.181-8.014-23.551 7.247.891 1.561 1.784 3.121 27.252 47.691c5.697 9.966 16.369 16.157 27.852 16.157M256 215.919h-24.048c-13.282 0-24.048 10.767-24.048 24.048h24.048c13.281.001 24.048-10.766 24.048-24.048M256 215.919h24.048c13.282 0 24.048 10.767 24.048 24.048h-24.048c-13.281.001-24.048-10.766-24.048-24.048" style="fill:#a06e50"/><path d="M191.173 316.179c-3.989-2.216-9.022-.66-11.063 3.422l-12.288 24.576 27.252 47.691c2.497 4.37 8.356 5.384 12.177 2.109L256 352.194zM320.827 316.179c3.989-2.216 9.022-.66 11.063 3.422l12.288 24.576-27.252 47.691c-2.497 4.37-8.356 5.384-12.177 2.109L256 352.194z" style="fill:#cd916e"/><path d="M215.403 175.839v-8.016c0-4.142-3.357-7.5-7.5-7.5s-7.5 3.358-7.5 7.5v8.016c0 4.142 3.357 7.5 7.5 7.5s7.5-3.358 7.5-7.5M304.097 160.323a7.5 7.5 0 0 0-7.5 7.5v8.016c0 4.142 3.357 7.5 7.5 7.5s7.5-3.358 7.5-7.5v-8.016a7.5 7.5 0 0 0-7.5-7.5M199.887 151.274h16.032c4.143 0 7.5-3.358 7.5-7.5s-3.357-7.5-7.5-7.5h-16.032c-4.143 0-7.5 3.358-7.5 7.5s3.357 7.5 7.5 7.5M296.081 151.274h16.032c4.143 0 7.5-3.358 7.5-7.5s-3.357-7.5-7.5-7.5h-16.032c-4.143 0-7.5 3.358-7.5 7.5s3.357 7.5 7.5 7.5"/><path d="m415.978 358.892-65.722-19.33-11.657-23.315a15.6 15.6 0 0 0-9.291-7.884c-3.173-.981-6.585-.888-9.693.191v-13.216c37.497-2.244 67.302-20.767 82.229-32.092 8.904-6.756 11.855-18.539 7.176-28.652-4.217-9.112-9.243-25.311-9.243-50.739v-40.081C399.774 64.497 335.277 0 256 0S112.226 64.497 112.226 143.774v40.081c0 25.428-5.026 41.627-9.243 50.74-4.68 10.113-1.729 21.896 7.176 28.652 14.926 11.324 44.732 29.847 82.229 32.091v13.217c-3.109-1.079-6.521-1.173-9.693-.192a15.6 15.6 0 0 0-9.291 7.884l-11.657 23.315-65.723 19.331c-23.498 6.911-39.909 28.845-39.909 53.338v92.27c0 4.142 3.357 7.5 7.5 7.5s7.5-3.358 7.5-7.5v-92.27c0-7.386 2.048-14.451 5.656-20.559l42.91 36.78a24.54 24.54 0 0 1 8.578 18.651V504.5c0 4.142 3.357 7.5 7.5 7.5s7.5-3.358 7.5-7.5v-57.397a39.52 39.52 0 0 0-13.816-30.04l-42.815-36.699a40.2 40.2 0 0 1 13.628-7.082l64.689-19.026 23.619 41.333a15.47 15.47 0 0 0 10.822 7.591 15.465 15.465 0 0 0 12.748-3.507L256 362.071l43.867 37.602a15.47 15.47 0 0 0 12.748 3.507 15.47 15.47 0 0 0 10.821-7.59l23.62-41.333 64.689 19.026a40.2 40.2 0 0 1 13.628 7.082l-42.815 36.699a39.52 39.52 0 0 0-13.816 30.04V504.5c0 4.142 3.357 7.5 7.5 7.5s7.5-3.358 7.5-7.5v-57.397c0-7.18 3.127-13.978 8.578-18.651l42.91-36.78c3.608 6.108 5.656 13.172 5.656 20.559v92.27c0 4.142 3.357 7.5 7.5 7.5s7.5-3.358 7.5-7.5v-92.27c.001-24.494-16.41-46.428-39.908-53.339m-23.203-107.595c-12.699 9.635-37.236 25.018-67.955 28.53 5.729-4.485 11.06-9.524 15.866-15.106a111.67 111.67 0 0 0 25.937-57.334h4.468a29.4 29.4 0 0 0 14.693-3.943c1.867 17.4 6.002 29.632 9.62 37.45 1.696 3.664.615 7.942-2.629 10.403M256 15c71.007 0 128.774 57.768 128.774 128.774v11.562a27.55 27.55 0 0 0-12.541-3.029h-4.008a8.53 8.53 0 0 1-6.045-2.489 8.33 8.33 0 0 1-2.487-5.958c.027-33.492-16.294-65.103-43.658-84.558-5.079-3.612-11.544-5.015-17.729-3.853-6.177 1.161-11.677 4.806-15.09 10.002-6.05 9.21-16.224 14.709-27.217 14.709s-21.167-5.499-27.217-14.71c-3.413-5.196-8.913-8.841-15.09-10.002-6.185-1.162-12.648.241-17.729 3.853a104.5 104.5 0 0 0-14.673 12.638 7.499 7.499 0 1 0 10.8 10.408 89.7 89.7 0 0 1 12.563-10.821c1.803-1.281 4.029-1.757 6.267-1.335 2.228.418 4.117 1.66 5.323 3.495 8.831 13.447 23.692 21.475 39.754 21.475s30.923-8.028 39.754-21.475c1.206-1.835 3.096-3.077 5.323-3.495 2.232-.422 4.462.053 6.267 1.336 23.41 16.644 37.373 43.679 37.35 72.321-.005 6.279 2.452 12.18 6.919 16.614a23.43 23.43 0 0 0 16.613 6.844h4.008a12.57 12.57 0 0 1 9.304 4.131c2.406 2.659 3.532 6.114 3.17 9.728-.63 6.292-6.61 11.222-13.616 11.222h-3.385v-.439a7.5 7.5 0 0 0-7.497-7.5h-.003a7.5 7.5 0 0 0-7.5 7.495c-.017 23.123-8.322 45.494-23.387 62.992a96.9 96.9 0 0 1-46.271 29.794l3.965-9.911a7.5 7.5 0 0 0-6.964-10.285h-48.098a7.502 7.502 0 0 0-6.964 10.285l3.969 9.921c-17.674-5.147-33.659-15.311-45.919-29.39a96.65 96.65 0 0 1-23.747-63.479c0-4.142-3.357-7.5-7.5-7.5s-7.5 3.358-7.5 7.5v.516h-4.523a12.57 12.57 0 0 1-9.303-4.13c-2.407-2.66-3.533-6.116-3.171-9.73.63-6.292 6.612-11.22 13.618-11.22h2.863a23.43 23.43 0 0 0 16.613-6.844c4.468-4.435 6.925-10.336 6.919-16.615-.011-12.923 2.699-25.377 8.055-37.018a7.5 7.5 0 0 0-13.627-6.269c-6.269 13.624-9.44 28.192-9.428 43.3a8.33 8.33 0 0 1-2.487 5.958 8.52 8.52 0 0 1-6.045 2.489h-2.863a29.4 29.4 0 0 0-13.686 3.386v-11.919C127.226 72.768 184.993 15 256 15m-12.971 264.532h25.941l-8.941 22.353a4.32 4.32 0 0 1-4.029 2.728 4.32 4.32 0 0 1-4.029-2.729zm-126.433-38.638c3.594-7.766 7.697-19.888 9.581-37.102a27.6 27.6 0 0 0 13.59 3.595h5.604a111.6 111.6 0 0 0 26.354 57.813 112 112 0 0 0 15.439 14.626c-30.712-3.516-55.243-18.895-67.94-28.528-3.243-2.462-4.324-6.74-2.628-10.404m85.775 147.389c-.051.044-.182.16-.425.117a.47.47 0 0 1-.359-.252l-25.262-44.207 10.493-20.986a.5.5 0 0 1 .31-.262c.213-.064.356.016.403.042l55.403 30.78zm108.041-.135a.47.47 0 0 1-.358.251c-.241.043-.374-.073-.425-.116l-40.563-34.769 6.612-3.673a7.501 7.501 0 0 0-7.285-13.112L256 343.614l-48.613-27.007V292.45a111.1 111.1 0 0 0 28.366 9.28l2.291 5.726c2.954 7.385 10.002 12.158 17.957 12.158s15.003-4.772 17.957-12.157l2.294-5.736a111 111 0 0 0 28.362-9.287v24.174l-8.926 4.959c-3.621 2.012-4.925 6.578-2.913 10.199s6.579 4.926 10.198 2.914l21.495-11.942a.5.5 0 0 1 .404-.042c.211.065.285.213.31.262l10.493 20.986z"/><path d="M256.08 416.839H256c-4.143 0-7.46 3.358-7.46 7.5s3.397 7.5 7.54 7.5 7.5-3.358 7.5-7.5-3.357-7.5-7.5-7.5M256.08 472.952H256c-4.143 0-7.46 3.358-7.46 7.5s3.397 7.5 7.54 7.5 7.5-3.358 7.5-7.5-3.357-7.5-7.5-7.5M200.403 239.968v8.016c0 4.142 3.357 7.5 7.5 7.5s7.5-3.358 7.5-7.5v-.516h16.548c9.628 0 18.257-4.34 24.049-11.161 5.792 6.821 14.42 11.161 24.049 11.161h16.548v.516c0 4.142 3.357 7.5 7.5 7.5s7.5-3.358 7.5-7.5v-8.016c0-17.396-14.152-31.548-31.548-31.548h-48.098c-17.395-.001-31.548 14.152-31.548 31.548m79.646-16.549c6.427 0 12.01 3.682 14.749 9.048h-14.749c-6.427 0-12.01-3.682-14.75-9.048zm-48.098 0h14.75c-2.74 5.366-8.323 9.048-14.75 9.048h-14.749c2.739-5.365 8.322-9.048 14.749-9.048"/></svg>