<svg xmlns="http://www.w3.org/2000/svg" xml:space="preserve" viewBox="0 0 512.003 512.003"><path d="M376.242 39.565 256 7.501 135.759 39.565l-48.097 80.162 48.097 48.097h240.483l48.097-48.097z" style="fill:#8cb4eb"/><path d="M103.719 416.323v-33.267c0-75.752 32.04-92.586 32.04-143.088h80.161v176.355z" style="fill:#5a4650"/><path d="m408.282 412.978-82.792-29.221a32.065 32.065 0 0 1-21.393-30.237v-25.375h-96.194v25.375a32.06 32.06 0 0 1-21.393 30.236l-82.793 29.221c-19.229 6.787-32.089 24.962-32.089 45.354V504.5H440.37v-46.167c.001-20.392-12.858-38.567-32.088-45.355" style="fill:#e3aa75"/><path d="m408.282 412.978-82.792-29.221c-1.174-.414-2.27-.958-3.37-1.495L256 424.339l-66.12-42.076c-1.099.537-2.196 1.08-3.37 1.495l-82.793 29.221c-19.23 6.787-32.089 24.962-32.089 45.354V504.5H440.37v-46.167c.001-20.392-12.858-38.567-32.088-45.355" style="fill:#8cb4eb"/><path d="M256 368.227c17.034 0 33.296-3.712 48.097-10.257v-29.824h-96.194v29.824c14.801 6.544 31.064 10.257 48.097 10.257" style="fill:#d29b6e"/><path d="M372.234 207.904H360.21v-32.065c0-26.563-21.534-48.097-48.097-48.097H199.888c-26.563 0-48.097 21.534-48.097 48.097v32.065h-12.024c-11.068 0-20.04 8.972-20.04 20.04s8.972 20.04 20.04 20.04h12.429c4.106 53.795 48.958 96.194 103.805 96.194s99.699-42.398 103.805-96.194h12.429c11.068 0 20.04-8.973 20.04-20.04 0-11.068-8.972-20.04-20.041-20.04" style="fill:#f5b97d"/><path d="M256 218.23c37.973 0 77.535-5.922 104.21-18.343v-24.048c0-16.739-8.56-31.466-21.532-40.081H173.322c-12.972 8.614-21.532 23.342-21.532 40.081v32.065h-10.881c-10.483 0-20.035 7.542-21.08 17.973-1.201 11.996 8.186 22.108 19.936 22.108h12.429c4.106 53.795 48.957 96.194 103.805 96.194 5.483 0 10.83-.534 16.083-1.351-49.946-7.708-88.228-50.754-88.228-102.859 0-15.012 13.227-26.377 28.118-24.477 14.348 1.83 29.296 2.738 44.028 2.738" style="fill:#e3aa75"/><path d="m358.303 209.596 17.939 2.149V151.79h-32.065v41.887c.001 8.118 6.067 14.954 14.126 15.919M153.698 209.596l-17.939 2.149V151.79h32.065v41.887c-.001 8.118-6.067 14.954-14.126 15.919" style="fill:#5a4650"/><path d="M256 191.872c-66.408 0-120.242-17.945-120.242-40.081h240.484c0 22.135-53.834 40.081-120.242 40.081" style="fill:#6e5a64"/><path d="m268.034 456.404-24.194.632-7.423 47.464h39.167z" style="fill:#64505a"/><path d="M368.226 103.695H143.775a8.016 8.016 0 0 0-8.016 8.016v40.081h240.484v-40.081a8.017 8.017 0 0 0-8.017-8.016" style="fill:#739bd7"/><path d="M256.001 111.711c-13.282 0-24.048-10.767-24.048-24.048V55.597h48.097v32.065c-.001 13.282-10.768 24.049-24.049 24.049" style="fill:#ffe17d"/><path d="m156.098 399.053 25.522 57.423c5.142 11.569 16.65 19.045 29.318 19.045 7.473 0 14.757-2.64 20.51-7.434L256 447.628l24.553 20.461a32.1 32.1 0 0 0 20.51 7.434c12.667 0 24.175-7.475 29.318-19.043l25.52-57.422c.579-1.303 1.036-2.675 1.437-4.058l-31.849-11.241c-1.174-.414-2.27-.958-3.37-1.495L256 424.339l-66.119-42.076c-1.1.537-2.196 1.08-3.37 1.495l-31.848 11.24c.401 1.381.857 2.752 1.435 4.055" style="fill:#739bd7"/><path d="M260.138 460.745h-8.276a16.03 16.03 0 0 1-15.3-11.243l-10.385-33.179h59.646l-10.385 33.179a16.03 16.03 0 0 1-15.3 11.243" style="fill:#5a4650"/><path d="M205.556 365.878 256 416.323l-39.948 33.29c-4.087 3.406-10.296 1.959-12.457-2.902l-25.52-57.421a8.02 8.02 0 0 1 1.657-8.924l14.487-14.487a8.015 8.015 0 0 1 11.337-.001M306.445 365.878 256 416.323l39.948 33.29c4.087 3.406 10.296 1.959 12.457-2.902l25.52-57.421a8.02 8.02 0 0 0-1.657-8.924l-14.487-14.487a8.014 8.014 0 0 0-11.336-.001" style="fill:#8cb4eb"/><path d="M256 111.711c-13.282 0-24.048-10.767-24.048-24.048V55.597H256z" style="fill:#ffd164"/><path d="M256 295.564c11.898 0 22.857-3.805 29.316-10.177a7.5 7.5 0 0 0 .071-10.606 7.5 7.5 0 0 0-10.606-.071c-2.737 2.701-9.298 5.855-18.781 5.855s-16.043-3.154-18.781-5.855a7.5 7.5 0 1 0-10.535 10.677c6.46 6.373 17.419 10.177 29.316 10.177M207.904 231.437a7.5 7.5 0 0 0 7.5-7.5v-8.016a7.5 7.5 0 0 0-15 0v8.016a7.5 7.5 0 0 0 7.5 7.5M304.097 231.437a7.5 7.5 0 0 0 7.5-7.5v-8.016a7.5 7.5 0 0 0-15 0v8.016a7.5 7.5 0 0 0 7.5 7.5"/><path d="m410.778 405.941-67.441-23.803a7.46 7.46 0 0 0-1.873-3.183l-18.38-18.38c-3.156-3.156-7.344-4.65-11.488-4.513v-19.228c29.243-16.849 50.174-46.561 55.03-81.35h5.607c15.186 0 27.541-12.354 27.541-27.541 0-11.079-6.579-20.644-16.033-25.011v-32.003l45.9-45.9a7.5 7.5 0 0 0 1.128-9.162l-48.097-80.161a7.5 7.5 0 0 0-4.499-3.388L257.933.253a7.5 7.5 0 0 0-3.865 0L133.826 32.319a7.5 7.5 0 0 0-4.499 3.388L81.23 115.868a7.5 7.5 0 0 0 1.128 9.162l45.9 45.9v32.003c-9.454 4.367-16.033 13.932-16.033 25.011 0 11.025 6.515 20.553 15.894 24.949-.891 17.535-6.469 30.627-12.859 45.573-8.926 20.877-19.043 44.54-19.043 85.793v23.739c-19.392 9.054-32.089 28.661-32.089 50.37V504.5a7.5 7.5 0 0 0 15 0v-46.132c0-4.992.925-9.83 2.626-14.326l37.925 32.507a24.54 24.54 0 0 1 8.578 18.651v9.301a7.5 7.5 0 0 0 15 0V495.2a39.52 39.52 0 0 0-13.816-30.04l-39.755-34.075a40.5 40.5 0 0 1 16.528-10.999l66.854-23.596 23.674 53.266c1.993 4.485 5.878 7.696 10.658 8.81 1.188.277 2.384.413 3.568.413 3.58 0 7.053-1.244 9.886-3.604l7.284-6.07 1.061 3.184a23.5 23.5 0 0 0 6.578 10.032l-6.758 40.753a7.5 7.5 0 1 0 14.798 2.454l6.171-37.209c.51.033 1.021.061 1.537.061h8.954c.508 0 1.011-.028 1.513-.06l6.195 37.212a7.5 7.5 0 0 0 8.629 6.167 7.5 7.5 0 0 0 6.167-8.63l-6.779-40.728a23.5 23.5 0 0 0 6.6-10.052l1.061-3.184 7.284 6.07c2.833 2.361 6.306 3.604 9.886 3.604 1.184 0 2.38-.136 3.568-.413 4.78-1.113 8.665-4.324 10.658-8.81l11.366-25.573a7.5 7.5 0 0 0-13.707-6.091l-11.366 25.573a.47.47 0 0 1-.354.293c-.248.058-.388-.057-.448-.106l-33.638-28.032 44.637-44.638a.516.516 0 0 1 .73 0l14.738 14.738-1.473 3.313a7.5 7.5 0 0 0 3.808 9.899c3.382 1.505 7.279.296 9.27-2.682l66.965 23.635a40.5 40.5 0 0 1 16.528 10.999l-39.755 34.075a39.52 39.52 0 0 0-13.816 30.04v9.301a7.5 7.5 0 0 0 15 0v-9.3c0-7.18 3.126-13.978 8.578-18.651l37.925-32.507a40.4 40.4 0 0 1 2.626 14.326V504.5a7.5 7.5 0 0 0 15 0v-46.132c-.003-23.528-14.91-44.597-37.097-52.427M160.323 184.208v7.664c0 4.705-3.829 8.533-8.535 8.533l-8.53-.001v-25.112c4.394 3.05 9.984 6.06 17.065 8.916m13.026-11.19c-9.632-3.21-20.385-8.207-26.066-13.726h217.436c-5.681 5.519-16.434 10.516-26.066 13.726-21.966 7.322-51.319 11.354-82.652 11.354s-60.687-4.032-82.652-11.354m178.329 11.19c7.081-2.857 12.671-5.865 17.064-8.916v25.112l-8.529.001c-2.28 0-4.423-.888-6.035-2.5s-2.5-3.754-2.5-6.033zM140.627 46.028 256 15.262l115.374 30.766 43.521 72.535-31.153 31.153V111.71c0-8.556-6.96-15.516-15.516-15.516h-8.012a7.5 7.5 0 0 0 0 15h8.012c.285 0 .516.231.516.516v32.581H143.259V111.71c0-.285.231-.516.516-.516h91.243c5.58 4.981 12.932 8.016 20.983 8.016s15.403-3.035 20.983-8.016h51.162a7.5 7.5 0 0 0 0-15h-41.779a31.5 31.5 0 0 0 1.182-8.532V55.597a7.5 7.5 0 0 0-7.5-7.5h-48.097a7.5 7.5 0 0 0-7.5 7.5v32.064c0 2.957.418 5.816 1.182 8.532h-81.859c-8.556 0-15.516 6.96-15.516 15.516v38.007l-31.153-31.153zm131.922 41.634c0 9.125-7.423 16.548-16.548 16.548s-16.548-7.423-16.548-16.548V63.097h33.097zM139.766 215.404l12.022.001c12.978 0 23.535-10.557 23.535-23.533v-2.557c22.514 6.5 50.818 10.056 80.677 10.056s58.163-3.557 80.677-10.056v2.557a23.38 23.38 0 0 0 6.895 16.641 23.39 23.39 0 0 0 16.642 6.892l12.021-.001c6.915 0 12.541 5.625 12.541 12.54s-5.625 12.541-12.541 12.541h-4.531c.001-.172.007-.344.007-.516a7.5 7.5 0 0 0-15 0c0 53.326-43.384 96.709-96.709 96.709s-96.709-43.384-96.709-96.709a7.5 7.5 0 0 0-15 0c0 .173.006.344.007.516h-4.531c-6.915 0-12.541-5.625-12.541-12.541-.002-6.914 5.624-12.54 12.538-12.54m-10.712 88.958c6.488-15.175 12.645-29.616 13.943-48.878h2.377c4.856 34.789 25.787 64.501 55.03 81.35v19.228c-4.144-.137-8.332 1.357-11.488 4.512l-18.38 18.38a7.46 7.46 0 0 0-1.873 3.183l-57.445 20.275v-18.155c.001-38.179 9.068-59.386 17.836-79.895m82.197 139.49a.49.49 0 0 1-.448.106.47.47 0 0 1-.354-.293l-25.664-57.745 14.737-14.738a.516.516 0 0 1 .73 0l44.637 44.638zm60.238-4.859-2.917 8.753a8.52 8.52 0 0 1-8.094 5.834h-8.954a8.52 8.52 0 0 1-8.094-5.834l-2.917-8.753L256 426.086zM256 405.716l-40.597-40.597v-21.08c12.589 4.928 26.282 7.638 40.597 7.638s28.007-2.71 40.597-7.638v21.08z"/></svg>