<svg xmlns="http://www.w3.org/2000/svg" xml:space="preserve" viewBox="0 0 512.001 512.001"><path d="M376.28 39.565 256.038 7.501 135.796 39.565l-48.097 80.162 48.097 48.097H376.28l48.097-48.097z" style="fill:#8cb4eb"/><path d="m413.9 406.168-84.486-24.849a24.05 24.05 0 0 1-17.263-23.071v-30.103H199.925v30.103a24.05 24.05 0 0 1-17.263 23.071l-84.486 24.849c-20.469 6.02-34.525 24.806-34.525 46.142v52.19h384.774v-52.19c0-21.336-14.056-40.122-34.525-46.142" style="fill:#b67f5f"/><path d="m413.899 406.168-84.486-24.849c-5.346-1.572-9.781-4.911-12.833-9.239l-60.623 20.194-60.477-20.172c-3.051 4.317-7.481 7.647-12.819 9.217l-84.486 24.849c-20.469 6.02-34.525 24.806-34.525 46.142v52.19h384.774v-52.19c.001-21.336-14.055-40.122-34.525-46.142" style="fill:#8cb4eb"/><path d="m268.976 436.757-26.013.89-7.981 66.853h42.112z" style="fill:#64505a"/><path d="M199.925 354.05c16.841 8.996 35.94 14.176 56.113 14.176s39.272-5.18 56.113-14.176v-25.905H199.925z" style="fill:#a06e50"/><path d="M372.272 207.904h-12.025v-80.161H151.828v80.161h-12.024c-11.068 0-20.04 8.972-20.04 20.04s8.972 20.04 20.04 20.04h12.429c4.106 53.795 48.958 96.194 103.805 96.194s99.699-42.398 103.805-96.194h12.429c11.068 0 20.04-8.973 20.04-20.04 0-11.068-8.972-20.04-20.04-20.04" style="fill:#cd916e"/><path d="M256.038 215.92c38.28 0 76.633-5.698 104.21-17.667v-70.511h-208.42v80.161h-11.321c-9.127 0-17.65 5.784-20.015 14.598-3.576 13.332 6.518 25.482 19.312 25.482h12.429c4.106 53.795 48.958 96.194 103.805 96.194 5.484 0 10.83-.534 16.083-1.351-49.946-7.708-88.228-50.754-88.228-102.859v-3.008c0-14.566 12.809-25.638 27.259-23.802 14.517 1.847 29.695 2.763 44.886 2.763" style="fill:#b67f5f"/><path d="m153.84 209.676-18.044 2.282V151.79h32.065v41.981c-.001 8.077-6.009 14.892-14.021 15.905M358.236 209.676l18.044 2.282V151.79h-32.065v41.981a16.03 16.03 0 0 0 14.021 15.905" style="fill:#5a4650"/><path d="M256.038 191.872c-66.408 0-120.242-17.945-120.242-40.081H376.28c0 22.135-53.835 40.081-120.242 40.081" style="fill:#6e5a64"/><path d="M368.264 103.695H143.812a8.016 8.016 0 0 0-8.016 8.016v40.081H376.28v-40.081a8.016 8.016 0 0 0-8.016-8.016M145.931 392.123c.752 2.881 1.756 5.444 3.097 7.789l25.125 43.969c5.694 9.965 16.366 16.157 27.852 16.157 7.64 0 15.047-2.741 20.854-7.72l33.099-28.37 33.099 28.37a32.07 32.07 0 0 0 20.855 7.72c11.484 0 22.157-6.191 27.852-16.158l25.124-43.965c1.343-2.35 2.35-4.928 3.105-7.837l-36.578-10.758c-5.347-1.572-9.781-4.911-12.833-9.239l-60.623 20.194-60.477-20.172c-3.051 4.317-7.481 7.647-12.819 9.217z" style="fill:#739bd7"/><path d="M260.487 441.424h-8.898c-7.536 0-14.199-5.038-16.45-12.44l-11.165-36.71h64.129l-11.165 36.71c-2.252 7.402-8.915 12.44-16.451 12.44" style="fill:#5a4650"/><path d="m180.069 359.682-10.37 20.739a8.01 8.01 0 0 0 .21 7.562l25.124 43.966c2.497 4.37 8.356 5.384 12.177 2.109l48.748-41.784-64.826-36.015a8.017 8.017 0 0 0-11.063 3.423M331.847 359.682a8.016 8.016 0 0 0-11.063-3.422l-64.827 36.015 48.748 41.784c3.821 3.275 9.68 2.26 12.177-2.109l25.124-43.966a8.01 8.01 0 0 0 .21-7.562z" style="fill:#8cb4eb"/><path d="M256.038 111.711c-13.282 0-24.048-10.767-24.048-24.048V55.597h48.097v32.065c-.001 13.282-10.768 24.049-24.049 24.049" style="fill:#ffe17d"/><path d="M256.038 111.711c-13.282 0-24.048-10.767-24.048-24.048V55.597h24.048z" style="fill:#ffd164"/><path d="m415.976 398.973-65.724-19.33-11.657-23.314a15.59 15.59 0 0 0-9.292-7.884c-3.171-.981-6.584-.888-9.692.192v-16.845c25.055-17.393 42.693-44.762 47.099-76.307h4.458c14.618 0 27.155-10.861 28.544-24.728.778-7.771-1.764-15.53-6.974-21.287a27.5 27.5 0 0 0-8.917-6.533V170.93l45.9-45.9a7.5 7.5 0 0 0 1.128-9.162l-48.097-80.161a7.5 7.5 0 0 0-4.499-3.388L258.01.253a7.5 7.5 0 0 0-3.865 0L133.903 32.319a7.5 7.5 0 0 0-4.499 3.388l-48.097 80.161a7.5 7.5 0 0 0 1.128 9.162l45.9 45.9v32.341c-8.63 4.115-14.929 12.266-15.89 21.858-.779 7.771 1.762 15.531 6.972 21.289a27.6 27.6 0 0 0 20.426 9.067h5.598c4.394 31.488 21.966 58.812 46.943 76.209v16.943c-3.108-1.079-6.52-1.173-9.692-.192a15.59 15.59 0 0 0-9.292 7.884l-11.657 23.314-65.724 19.33c-23.498 6.912-39.909 28.845-39.909 53.338v52.19a7.5 7.5 0 0 0 15 0v-52.189c0-7.386 2.048-14.451 5.657-20.559l42.911 36.78a24.54 24.54 0 0 1 8.578 18.651V504.5a7.5 7.5 0 0 0 15 0v-17.317a39.52 39.52 0 0 0-13.816-30.04l-42.815-36.699a40.2 40.2 0 0 1 13.628-7.082l64.69-19.026 23.619 41.333a15.47 15.47 0 0 0 10.825 7.59q1.335.23 2.666.23c3.672 0 7.239-1.303 10.08-3.738l15.403-13.202 1.743 5.23a23.5 23.5 0 0 0 6.586 10.039l-11.211 61.331A7.5 7.5 0 0 0 232.04 512a7.5 7.5 0 0 0 7.369-6.153l10.61-58.04a24 24 0 0 0 1.584.063h8.954c.55 0 1.095-.028 1.638-.065l10.555 58.036a7.5 7.5 0 0 0 8.721 6.037 7.5 7.5 0 0 0 6.037-8.721l-11.163-61.382a23.5 23.5 0 0 0 6.538-9.996l1.708-5.123 15.278 13.096a15.46 15.46 0 0 0 12.746 3.508 15.47 15.47 0 0 0 10.825-7.59l23.619-41.333 64.69 19.026a40.2 40.2 0 0 1 13.628 7.082l-42.815 36.699a39.52 39.52 0 0 0-13.816 30.04V504.5a7.5 7.5 0 0 0 15 0v-17.317c0-7.18 3.126-13.978 8.578-18.651l42.911-36.78c3.608 6.108 5.657 13.172 5.657 20.559V504.5a7.5 7.5 0 0 0 15 0v-52.189c-.007-24.494-16.418-46.427-39.916-53.338M160.4 184.208v7.663c0 4.705-3.828 8.532-8.532 8.532h-8.532v-25.112c4.393 3.051 9.984 6.061 17.064 8.917m13.026-11.19c-9.632-3.21-20.385-8.207-26.066-13.726h217.436c-5.68 5.519-16.434 10.516-26.065 13.726-21.966 7.322-51.319 11.354-82.652 11.354s-60.687-4.032-82.653-11.354m178.329 11.19c7.081-2.857 12.672-5.865 17.065-8.917v25.112h-8.533c-4.705 0-8.532-3.828-8.532-8.532zM140.704 46.028l115.374-30.766 115.374 30.766 43.521 72.535-31.153 31.153V111.71c0-8.556-6.96-15.516-15.516-15.516h-8.013a7.5 7.5 0 0 0 0 15h8.013c.285 0 .516.231.516.516v32.581H143.336V111.71c0-.285.231-.516.516-.516h91.243c5.58 4.981 12.932 8.016 20.983 8.016s15.403-3.035 20.983-8.016h51.162a7.5 7.5 0 0 0 0-15h-41.779a31.5 31.5 0 0 0 1.182-8.532V55.597a7.5 7.5 0 0 0-7.5-7.5h-48.097a7.5 7.5 0 0 0-7.5 7.5v32.064c0 2.957.418 5.816 1.182 8.532h-81.859c-8.556 0-15.516 6.96-15.516 15.516v38.007l-31.153-31.153zm131.922 41.634c0 9.125-7.423 16.548-16.548 16.548s-16.548-7.423-16.548-16.548V63.097h33.097v24.564h-.001zM159.368 239.969a7.5 7.5 0 0 0-15 0v.516h-4.524a12.57 12.57 0 0 1-9.303-4.131c-2.407-2.66-3.532-6.115-3.17-9.729.63-6.292 6.612-11.22 13.619-11.22h10.878c12.976 0 23.532-10.557 23.532-23.532v-2.557c22.514 6.5 50.818 10.056 80.678 10.056s58.163-3.557 80.677-10.056v2.556c0 12.976 10.557 23.533 23.532 23.533h12.024a12.57 12.57 0 0 1 9.303 4.13c2.406 2.659 3.532 6.114 3.17 9.729-.63 6.292-6.612 11.222-13.618 11.222h-3.383v-.439a7.5 7.5 0 0 0-7.497-7.5h-.003a7.5 7.5 0 0 0-7.5 7.495c-.04 53.286-43.421 96.638-96.706 96.638-53.325-.003-96.709-43.387-96.709-96.711m43 188.396c-.055.047-.181.16-.424.117-.24-.042-.327-.195-.36-.253l-25.26-44.206 10.493-20.986a.5.5 0 0 1 .31-.262.48.48 0 0 1 .402.042l55.404 30.78zm66.281-1.328a8.52 8.52 0 0 1-8.094 5.834h-8.954a8.52 8.52 0 0 1-8.095-5.834l-3.676-11.027 16.167-13.858 16.291 13.964zm41.762 1.191a.48.48 0 0 1-.36.253c-.241.044-.368-.069-.424-.117l-40.564-34.769 6.612-3.673a7.501 7.501 0 0 0-7.285-13.113l-12.393 6.885-48.613-27.007v-16.195c14.725 7.162 31.247 11.185 48.693 11.185 17.38 0 33.846-3.998 48.533-11.115v16.125l-8.925 4.959a7.501 7.501 0 0 0 7.285 13.113l21.497-11.943c.047-.026.192-.107.402-.042s.285.213.31.262l10.493 20.986z"/><path d="M207.981 208.42a7.5 7.5 0 0 0-7.5 7.5v8.016a7.5 7.5 0 0 0 15 0v-8.016a7.5 7.5 0 0 0-7.5-7.5M304.174 231.437a7.5 7.5 0 0 0 7.5-7.5v-8.016a7.5 7.5 0 0 0-15 0v8.016a7.5 7.5 0 0 0 7.5 7.5M279.61 280.048a7.5 7.5 0 0 0-7.5-7.5h-32.064a7.5 7.5 0 0 0 0 15h32.064a7.5 7.5 0 0 0 7.5-7.5"/></svg>