<svg xmlns="http://www.w3.org/2000/svg" xml:space="preserve" viewBox="0 0 512.001 512.001"><path d="M408.283 396.981 325.49 367.76a32.065 32.065 0 0 1-21.393-30.237V296.08h-96.194v41.443a32.065 32.065 0 0 1-21.393 30.237l-82.792 29.221c-19.229 6.787-32.089 24.962-32.089 45.354V504.5h368.742v-62.165c0-20.392-12.859-38.567-32.088-45.354" style="fill:#e3aa75"/><path d="m408.283 396.981-80.16-28.292c-.252 39.629-32.433 71.682-72.122 71.682s-71.87-32.053-72.122-71.682l-80.16 28.292c-19.23 6.787-32.089 24.962-32.089 45.354V504.5h368.742v-62.165c-.001-20.392-12.86-38.567-32.089-45.354" style="fill:#9bdc9b"/><path d="M160.251 377.028c4.451 48.995 45.595 87.391 95.749 87.391s91.298-38.397 95.749-87.391l-23.628-8.339c-.252 39.629-32.433 71.682-72.122 71.682s-71.869-32.053-72.122-71.682z" style="fill:#b4e6a0"/><path d="M207.903 325.904c14.8 6.545 31.063 10.257 48.097 10.257s33.296-3.712 48.097-10.257V296.08h-96.194z" style="fill:#d29b6e"/><path d="m368.227 207.903-20.489 95.618a160.3 160.3 0 0 0-3.559 33.592v5.971c0 6.068.319 12.133.954 18.168L360.21 504.5h-56.113V207.903z" style="fill:#64505a"/><path d="M344.178 337.113v5.971q0 4.559.24 9.11h-40.32v-32.065h40.988a160 160 0 0 0-.908 16.984" style="fill:#9bdc9b"/><path d="m143.774 207.903 20.489 95.618a160.3 160.3 0 0 1 3.559 33.592v5.971c0 6.068-.319 12.133-.954 18.168L151.791 504.5h56.113V207.903z" style="fill:#64505a"/><path d="M380.087 199.887c7.759-17.128 12.187-36.086 12.187-56.113C392.274 68.512 331.263 7.5 256 7.5S119.726 68.512 119.726 143.774c0 20.027 4.428 38.985 12.187 56.113z" style="fill:#5a4650"/><path d="M372.234 175.839H360.21v-8.016c0-57.554-46.656-104.21-104.21-104.21s-104.21 46.656-104.21 104.21v8.016h-12.024c-11.068 0-20.04 8.972-20.04 20.04s8.972 20.04 20.04 20.04h12.429c4.106 53.795 48.958 96.194 103.805 96.194s99.699-42.398 103.805-96.194h12.429c11.068 0 20.04-8.973 20.04-20.04 0-11.068-8.972-20.04-20.04-20.04" style="fill:#f5b97d"/><path d="M183.855 207.903v-40.081c0-10.301 2.06-19.184 4.869-26.509 5.346-13.939 22.292-18.757 35.069-11.036 40.325 24.368 87.162 36.07 136 37.545-4.347-55.296-51.756-106.741-108.758-104.094-56.123 2.605-99.245 46.634-99.245 105.931v6.179h-10.88c-10.483 0-20.035 7.542-21.08 17.973-1.201 11.996 8.186 22.108 19.936 22.108h12.429c4.106 53.795 48.958 96.194 103.805 96.194 5.484 0 10.83-.534 16.083-1.351-49.946-7.708-88.228-50.754-88.228-102.859" style="fill:#e3aa75"/><path d="M219.928 227.915c0 17.709 16.15 32.065 36.073 32.065s36.073-14.356 36.073-32.065z" style="fill:#fff"/><path d="M256 7.5c-35.284 0-67.329 13.524-91.531 35.525 46.879 61.229 120.686 100.75 203.757 100.75 8.094 0 16.088-.421 23.99-1.154C391.589 67.895 330.873 7.5 256 7.5" style="fill:#64505a"/><path d="M167.823 337.113v5.971q0 4.559-.24 9.11h40.32v-32.065h-40.988c.602 5.638.908 11.307.908 16.984" style="fill:#9bdc9b"/><path d="M215.404 191.871v-8.016a7.5 7.5 0 0 0-15 0v8.016a7.5 7.5 0 0 0 15 0M304.097 176.355a7.5 7.5 0 0 0-7.5 7.5v8.016c0 4.142 3.357 7.5 7.5 7.5s7.5-3.358 7.5-7.5v-8.016a7.5 7.5 0 0 0-7.5-7.5M216.76 165.255c4.116-.464 7.076-4.177 6.612-8.293s-4.172-7.076-8.293-6.612l-16.032 1.809a7.5 7.5 0 1 0 1.681 14.905zM312.954 152.158l-16.032-1.809a7.5 7.5 0 0 0-8.294 6.612 7.5 7.5 0 0 0 6.612 8.293l16.032 1.809q.428.048.851.048a7.5 7.5 0 0 0 7.443-6.66 7.5 7.5 0 0 0-6.612-8.293"/><path d="m410.779 389.909-57.215-20.193-.974-9.248a166.12 166.12 0 0 1 4.797-60.553l20.77-77.143c12.348-2.718 21.618-13.74 21.618-26.892a27.4 27.4 0 0 0-4.743-15.433 144 144 0 0 0 4.743-36.671C399.775 64.497 335.279 0 256 0S112.226 64.497 112.226 143.774c0 12.433 1.608 24.753 4.743 36.671a27.4 27.4 0 0 0-4.743 15.434c0 13.153 9.27 24.175 21.618 26.892l20.769 77.143a166.1 166.1 0 0 1 4.797 60.552l-.974 9.248-57.214 20.194c-22.187 7.83-37.093 28.899-37.093 52.427V504.5a7.5 7.5 0 0 0 15 0v-62.165c0-17.18 10.885-32.564 27.085-38.282l50.483-17.818-12.366 117.48a7.5 7.5 0 0 0 7.468 8.286 7.5 7.5 0 0 0 7.45-6.715l15.079-143.248c.082-.778.144-1.562.215-2.344h25.86V504.5a7.5 7.5 0 0 0 15 0v-67.838c12.228 7.287 26.214 11.209 40.597 11.209s28.369-3.922 40.597-11.209V504.5c0 4.142 3.357 7.5 7.5 7.5s7.5-3.358 7.5-7.5V400.291c0-4.142-3.357-7.5-7.5-7.5s-7.5 3.358-7.5 7.5v18.136c-11.514 9.334-25.804 14.444-40.597 14.444s-29.083-5.11-40.597-14.444V311.975c12.589 4.928 26.282 7.638 40.597 7.638s28.007-2.71 40.597-7.638v56.254c0 4.142 3.357 7.5 7.5 7.5s7.5-3.358 7.5-7.5v-8.535h25.86c.072.781.133 1.565.215 2.343l15.079 143.248a7.5 7.5 0 1 0 14.918-1.571l-12.367-117.479 50.484 17.818c16.2 5.718 27.085 21.102 27.085 38.282V504.5c0 4.142 3.357 7.5 7.5 7.5s7.5-3.358 7.5-7.5v-62.165c0-23.527-14.906-44.596-37.092-52.426m-235.477-45.216c.005-.536.021-1.075.021-1.61 0-5.163-.245-10.318-.685-15.454h25.765v17.064zm25.102-32.064h-27.673a181 181 0 0 0-3.633-16.614l-7.781-28.901a112.56 112.56 0 0 0 39.087 37.656zm-41.113-104.726a7.5 7.5 0 0 0-15 0c0 .173.006.344.007.516h-4.531c-6.915 0-12.541-5.625-12.541-12.541 0-6.915 5.625-12.54 12.539-12.54l6.011.001c7.902 0 7.924.001 9.606-.917a7.5 7.5 0 0 0 3.909-6.63v-7.97c0-23.88 7.482-44.707 22.239-61.899a7.5 7.5 0 0 0-11.383-9.769c-17.157 19.99-25.856 44.103-25.856 71.669v.517h-4.524c-3.464 0-6.778.649-9.835 1.822a129.6 129.6 0 0 1-2.706-26.386C127.226 72.768 184.994 15 256 15c71.007 0 128.774 57.768 128.774 128.774 0 8.908-.913 17.747-2.71 26.385a27.4 27.4 0 0 0-9.832-1.82h-4.522V150.6c.173 0 .342.005.516.005 4.143 0 7.5-3.358 7.5-7.5s-3.357-7.5-7.5-7.5c-62.787 0-108.183-20.323-135.208-37.372-29.375-18.531-44.076-37.338-44.221-37.526a7.5 7.5 0 0 0-11.894 9.14c.642.837 16.093 20.739 47.487 40.678 26.506 16.834 69.584 36.631 128.32 39.667v25.646h.007a7.49 7.49 0 0 0 3.634 6.431c1.784 1.071 1.795 1.064 9.873 1.07l6.01-.001c6.915 0 12.54 5.625 12.54 12.54s-5.625 12.541-12.54 12.541h-4.531c.001-.172.007-.344.007-.516 0-4.142-3.357-7.5-7.5-7.5s-7.5 3.358-7.5 7.5c0 53.326-43.384 96.709-96.71 96.709-53.325.001-96.709-43.383-96.709-96.709m191.393 59.212-7.781 28.9a182 182 0 0 0-3.633 16.614h-27.673v-7.859a112.6 112.6 0 0 0 39.087-37.655m-39.087 77.579v-17.065h25.766a181 181 0 0 0-.685 15.455c0 .535.016 1.074.021 1.61z"/><path d="M292.073 220.415h-72.145a7.5 7.5 0 0 0-7.5 7.5c0 21.816 19.547 39.564 43.573 39.564 24.025 0 43.572-17.749 43.572-39.564a7.5 7.5 0 0 0-7.5-7.5M256 252.479c-12.714 0-23.516-7.176-27.211-17.064h54.422c-3.695 9.889-14.497 17.064-27.211 17.064"/></svg>