<svg xmlns="http://www.w3.org/2000/svg" xml:space="preserve" viewBox="0 0 512 512"><path d="m413.861 358.071-84.486-24.849a24.05 24.05 0 0 1-17.263-23.071v-38.119H199.886v38.119a24.05 24.05 0 0 1-17.263 23.071l-84.486 24.849c-20.469 6.02-34.525 24.806-34.525 46.142V504.5h384.774V404.213c0-21.336-14.056-40.122-34.525-46.142" style="fill:#ff8087"/><path d="m413.861 358.071-20.994-6.175-136.868 68.435-136.868-68.434-20.994 6.175c-20.469 6.02-34.525 24.806-34.525 46.141V504.5h384.774V404.213c0-21.336-14.056-40.122-34.525-46.142" style="fill:#ffe17d"/><path d="M199.886 297.937c16.841 8.996 35.939 14.176 56.113 14.176s39.272-5.18 56.113-14.176v-25.905H199.886z" style="fill:#e6646e"/><path d="M372.233 151.79h-12.024V71.629h-208.42v80.161h-12.024c-11.068 0-20.04 8.972-20.04 20.04s8.972 20.04 20.04 20.04h12.429c4.106 53.795 48.958 96.194 103.805 96.194s99.699-42.398 103.805-96.194h12.429c11.068 0 20.04-8.973 20.04-20.04 0-11.068-8.972-20.04-20.04-20.04" style="fill:#ffe1a0"/><path d="M183.854 183.855V71.629h-32.065v80.161h-12.024c-11.022 0-20.04 9.018-20.04 20.04s9.018 20.04 20.04 20.04h12.429c4.106 53.795 48.957 96.194 103.805 96.194 5.483 0 10.83-.534 16.083-1.351-49.947-7.707-88.228-50.754-88.228-102.858" style="fill:#f7d291"/><path d="M255.999 7.5c-66.408 0-120.242 53.834-120.242 120.242v8.016h240.484v-8.016C376.241 61.334 322.407 7.5 255.999 7.5" style="fill:#ff8087"/><path d="M255.999 7.5c-23.606 0-45.554 6.901-64.129 18.652v109.606h128.258V26.152C301.553 14.402 279.604 7.5 255.999 7.5" style="fill:#ffe17d"/><path d="M231.949 127.74h48.1v48.1h-48.1z" style="fill:#6e5a64"/><path d="M135.757 127.742h104.21v40.069c0 23.721-26.642 37.681-46.146 24.178l-51.157-35.417a16.04 16.04 0 0 1-6.907-13.182zM376.241 127.742h-104.21v40.069c0 23.721 26.642 37.681 46.146 24.178l51.157-35.417a16.04 16.04 0 0 0 6.907-13.182z" style="fill:#64505a"/><circle cx="255.999" cy="424.34" r="32.06" style="fill:#ff8087"/><path d="M272.031 440.371c-17.709 0-32.065-14.356-32.065-32.065 0-4.699 1.067-9.128 2.883-13.15-11.134 5.028-18.915 16.172-18.915 29.182 0 17.709 14.356 32.065 32.065 32.065 13.01 0 24.154-7.781 29.182-18.915-4.021 1.816-8.451 2.883-13.15 2.883" style="fill:#e6646e"/><path d="M211.91 175.323a7.5 7.5 0 0 0 7.5-7.5v-8.016c0-4.142-3.357-7.5-7.5-7.5s-7.5 3.358-7.5 7.5v8.016a7.5 7.5 0 0 0 7.5 7.5M300.088 152.307a7.5 7.5 0 0 0-7.5 7.5v8.016c0 4.142 3.357 7.5 7.5 7.5s7.5-3.358 7.5-7.5v-8.016a7.5 7.5 0 0 0-7.5-7.5"/><path d="m415.977 350.876-84.485-24.849c-6.994-2.057-11.879-8.585-11.879-15.876v-34.523c25.017-17.394 42.615-44.739 47.014-76.258h5.607a27.6 27.6 0 0 0 20.426-9.067c5.21-5.758 7.751-13.518 6.973-21.289-.952-9.5-7.1-17.715-15.891-21.867V127.74C383.741 57.305 326.437 0 255.999 0S128.257 57.305 128.257 127.742v19.408c-8.79 4.152-14.936 12.366-15.888 21.865-.778 7.771 1.763 15.531 6.973 21.289a27.6 27.6 0 0 0 20.426 9.067h5.604c4.399 31.519 21.997 58.864 47.014 76.258v34.523c0 7.291-4.885 13.819-11.879 15.876l-84.485 24.849c-23.498 6.911-39.909 28.845-39.909 53.338V504.5a7.5 7.5 0 0 0 7.5 7.5 7.5 7.5 0 0 0 7.5-7.5V404.214c0-7.386 2.048-14.451 5.657-20.559l42.91 36.781a24.54 24.54 0 0 1 8.578 18.651V504.5c0 4.142 3.357 7.5 7.5 7.5s7.5-3.358 7.5-7.5v-65.414a39.52 39.52 0 0 0-13.816-30.04l-42.814-36.699a40.2 40.2 0 0 1 13.628-7.081l18.163-5.342 66.501 33.251a7.502 7.502 0 0 0 6.709-13.416l-52.092-26.046 45.204-13.295c13.334-3.921 22.646-16.368 22.646-30.267V284.42c14.705 7.137 31.2 11.145 48.613 11.145s33.908-4.007 48.613-11.145v25.732c0 13.899 9.313 26.345 22.646 30.267l45.204 13.295-87.475 43.738c-7.23-7.79-17.547-12.677-28.989-12.677s-21.758 4.887-28.989 12.677l-7.726-3.863a7.5 7.5 0 0 0-10.063 3.354 7.5 7.5 0 0 0 3.354 10.062l6.466 3.233a39.4 39.4 0 0 0-2.607 14.102c0 19.251 13.823 35.327 32.064 38.842V504.5c0 4.142 3.357 7.5 7.5 7.5s7.5-3.358 7.5-7.5v-41.319c18.241-3.516 32.064-19.591 32.064-38.842 0-4.967-.929-9.718-2.607-14.102l100.625-50.312 18.163 5.342a40.2 40.2 0 0 1 13.628 7.081l-42.814 36.699a39.52 39.52 0 0 0-13.816 30.04V504.5c0 4.142 3.357 7.5 7.5 7.5s7.5-3.358 7.5-7.5v-65.414c0-7.18 3.127-13.978 8.578-18.651l42.91-36.781c3.608 6.108 5.657 13.172 5.657 20.559V504.5c0 4.142 3.357 7.5 7.5 7.5s7.5-3.358 7.5-7.5V404.214c0-24.493-16.411-46.427-39.909-53.338m-102.07-165.054c-6.823 4.723-15.284 5.245-22.636 1.394s-11.74-11.106-11.74-19.405v-32.569h89.21v12.619zm-1.279-155.535v49.358c0 4.142 3.357 7.5 7.5 7.5s7.5-3.358 7.5-7.5V40.741c23.284 19.204 38.749 47.557 40.858 79.5h-40.858v-8.532c0-4.142-3.357-7.5-7.5-7.5s-7.5 3.358-7.5 7.5v8.532H199.37V30.287C216.022 20.574 235.371 15 255.999 15s39.977 5.574 56.629 15.287m-48.079 138.052h-17.1c.002-.177.018-.351.018-.528v-32.569h17.064v32.569c0 .177.016.351.018.528m-121.292-33.097h89.21v32.569c0 8.299-4.389 15.553-11.74 19.405-7.351 3.851-15.813 3.331-22.637-1.394l-54.833-37.961zm41.113-94.501v79.5h-40.858c2.109-31.943 17.575-60.296 40.858-79.5m71.629 239.823c-53.326 0-96.71-43.384-96.71-96.709 0-4.142-3.357-7.5-7.5-7.5s-7.5 3.358-7.5 7.5c0 .173.006.344.007.516h-4.528a12.57 12.57 0 0 1-9.303-4.131c-2.406-2.66-3.532-6.115-3.17-9.73.437-4.366 3.49-8.161 7.849-10.023l54.408 37.667a36.84 36.84 0 0 0 20.996 6.58 36.9 36.9 0 0 0 17.141-4.232 36.8 36.8 0 0 0 16.349-17.163h23.923a36.8 36.8 0 0 0 16.349 17.163 36.9 36.9 0 0 0 17.141 4.232 36.83 36.83 0 0 0 20.995-6.58l54.41-37.668c4.359 1.861 7.413 5.658 7.85 10.025.362 3.614-.764 7.069-3.17 9.729a12.57 12.57 0 0 1-9.303 4.131h-4.531c.001-.172.007-.344.007-.516 0-4.142-3.357-7.5-7.5-7.5s-7.5 3.358-7.5 7.5c0 53.326-43.384 96.709-96.71 96.709m0 168.339c-13.545 0-24.564-11.02-24.564-24.564s11.02-24.564 24.564-24.564 24.564 11.02 24.564 24.564-11.019 24.564-24.564 24.564"/><path d="M274.78 210.581c-2.737 2.701-9.299 5.855-18.781 5.855s-16.044-3.154-18.781-5.855a7.5 7.5 0 0 0-10.535 10.677c6.46 6.373 17.419 10.177 29.316 10.177s22.856-3.805 29.316-10.177a7.5 7.5 0 0 0-10.535-10.677M227.79 85.885l24.049 16.032a7.49 7.49 0 0 0 8.32 0l24.049-16.032a7.5 7.5 0 1 0-8.32-12.48l-19.889 13.259-19.889-13.259a7.5 7.5 0 0 0-10.4 2.08 7.5 7.5 0 0 0 2.08 10.4M255.999 71.113a7.5 7.5 0 0 0 7.5-7.5v-8.016a7.5 7.5 0 0 0-7.5-7.5 7.5 7.5 0 0 0-7.5 7.5v8.016a7.5 7.5 0 0 0 7.5 7.5"/></svg>