<svg xmlns="http://www.w3.org/2000/svg" xml:space="preserve" viewBox="0 0 512.003 512.003"><path d="M353.699 270.028c-6.012-27.555-1.503-62.125-1.503-62.125h-56.113v176.355h96.528c-5.845-43.087-30.443-75.413-38.912-114.23" style="fill:#5a4650"/><path d="m408.284 388.965-82.792-29.221a32.065 32.065 0 0 1-21.393-30.237v-49.459h-96.194v49.459a32.06 32.06 0 0 1-21.393 30.236l-82.793 29.221c-19.229 6.787-32.089 24.962-32.089 45.354V504.5h368.742v-70.181c.002-20.392-12.858-38.567-32.088-45.354" style="fill:#b67f5f"/><path d="M325.247 359.635c.085.031.16.079.245.109l82.793 29.221c19.23 6.787 32.089 24.962 32.089 45.354V504.5H159.809c110.29-49.53 154.464-123.344 165.438-144.865" style="fill:#ff8087"/><path d="M186.757 359.635c-.085.031-.16.079-.245.109l-82.793 29.221c-19.229 6.787-32.089 24.962-32.089 45.354V504.5h280.565c-110.29-49.53-154.464-123.344-165.438-144.865" style="fill:#ffd164"/><path d="M207.905 318.225c14.753 6.391 31.02 9.92 48.097 9.92s33.344-3.529 48.097-9.92v-38.177h-96.194z" style="fill:#a06e50"/><circle cx="151.791" cy="256" r="32.06" style="fill:#ffe17d"/><circle cx="151.791" cy="256" r="8.02" style="fill:#ffd164"/><circle cx="360.211" cy="256" r="32.06" style="fill:#ffe17d"/><circle cx="360.211" cy="256" r="8.02" style="fill:#ffd164"/><path d="M256.003 7.5c-70.835 0-128.258 57.423-128.258 128.258v60.121H384.26v-60.121C384.26 64.923 326.837 7.5 256.003 7.5" style="fill:#5a4650"/><path d="M372.236 175.839h-8.016s-10.734-1.293-14.018-2.202c-18.212-5.043-57.641-20.789-87.51-66.825-3.147-4.851-10.232-4.851-13.378 0-29.869 46.036-69.298 61.782-87.51 66.825-3.284.909-14.018 2.202-14.018 2.202h-8.016c-11.068 0-20.04 8.972-20.04 20.04s8.972 20.04 20.04 20.04h13.382c7.73 49.921 50.764 88.177 102.851 88.177s95.121-38.256 102.851-88.177h13.382c11.068 0 20.04-8.973 20.04-20.04 0-11.068-8.971-20.04-20.04-20.04" style="fill:#cd916e"/><path d="M262.715 106.848c-3.157-4.863-10.266-4.867-13.423-.004-20.637 31.793-45.826 49.122-65.435 58.466-8.77 4.178-16.428 6.769-22.054 8.326-3.284.909-14.018 2.202-14.018 2.202h-6.872c-10.483 0-20.036 7.542-21.081 17.973-1.202 11.996 8.186 22.108 19.937 22.108h13.382c7.73 49.921 50.764 88.177 102.851 88.177 5.505 0 10.881-.517 16.154-1.34-48.105-7.389-85.406-47.559-88.138-97.041a225 225 0 0 1-.147-3.018c-.274-6.537 3.391-12.478 9.309-15.268 18.5-8.72 41.815-23.719 62.822-49.147 21.166 25.618 44.686 40.664 63.258 49.36 13.745 6.436 24.92-.655 24.92-15.832v-.03c-19.912-6.616-54.541-23.457-81.465-64.932" style="fill:#b67f5f"/><path d="M219.929 227.915c0 17.708 16.15 32.064 36.073 32.064s36.073-14.356 36.073-32.064z" style="fill:#fff"/><path d="M279.24 9.707c-4.593 11.751-7.205 24.496-7.205 37.874 0 57.553 46.656 104.21 104.21 104.21 2.706 0 5.362-.203 8.016-.405v-15.628C384.26 72.869 338.965 20.654 279.24 9.707" style="fill:#64505a"/><path d="M360.212 175.322v3.019c1.364-.772 2.718-1.568 4.008-2.502 0 0-1.738-.211-4.008-.517" style="fill:#b67f5f"/><path d="M215.405 191.871v-8.016c0-4.142-3.357-7.5-7.5-7.5s-7.5 3.358-7.5 7.5v8.016c0 4.142 3.357 7.5 7.5 7.5s7.5-3.358 7.5-7.5M304.099 199.371a7.5 7.5 0 0 0 7.5-7.5v-8.016c0-4.142-3.357-7.5-7.5-7.5s-7.5 3.358-7.5 7.5v8.016a7.5 7.5 0 0 0 7.5 7.5"/><path d="m410.78 381.892-11.206-3.955c-4.89-26.472-12.239-40.328-18.746-52.591-4.978-9.381-9.372-17.696-11.96-30.747 17.665-3.96 30.908-19.757 30.908-38.599 0-14.484-7.828-27.168-19.471-34.063 10.363-3.422 18.246-12.417 19.329-23.245.778-7.771-1.764-15.53-6.974-21.288-.291-.322-.597-.627-.901-.933v-40.714C391.76 60.901 330.859 0 256.003 0S120.244 60.901 120.244 135.758v40.702c-.306.308-.609.621-.901.945-5.21 5.758-7.752 13.517-6.974 21.287 1.084 10.828 8.966 19.823 19.329 23.245-11.643 6.895-19.471 19.579-19.471 34.063 0 21.816 17.749 39.564 39.564 39.564 11.198 0 21.784-4.805 29.203-12.904 6 5.441 12.508 10.169 19.41 14.136v32.71c0 10.395-6.586 19.704-16.389 23.164l-82.793 29.221c-22.187 7.831-37.093 28.899-37.093 52.427v70.18c0 4.142 3.357 7.5 7.5 7.5s7.5-3.358 7.5-7.5v-70.18c0-17.18 10.885-32.564 27.085-38.282l21.718-7.665c4.057 23.252 8.467 47.443 13.366 69.65a7.5 7.5 0 0 0 8.94 5.708 7.5 7.5 0 0 0 5.708-8.94c-5.011-22.714-9.527-47.647-13.673-71.48l11.368-4.012c14.248 46.518 32.05 97.397 56.28 129.703a7.49 7.49 0 0 0 6.006 3 7.5 7.5 0 0 0 5.994-12c-25.597-34.13-44.944-95.524-54.124-125.698l14.901-5.259c4.637 8.875 14.822 26.183 32.901 46.96 23.669 27.199 66.059 65.823 133.59 95.368a7.5 7.5 0 0 0 3.002.631 7.5 7.5 0 0 0 6.875-4.496 7.5 7.5 0 0 0-3.865-9.877c-38.462-16.828-68.389-36.661-91.088-55.414 38.807-31.929 57.963-61.019 64.962-73.252l15.117 5.335c-8.279 26.72-17.374 50.688-27.063 71.29a7.5 7.5 0 0 0 6.783 10.694 7.5 7.5 0 0 0 6.792-4.31c9.916-21.085 19.207-45.514 27.645-72.677l47.439 16.743c16.2 5.718 27.085 21.102 27.085 38.282v70.18c0 4.142 3.357 7.5 7.5 7.5s7.5-3.358 7.5-7.5v-70.18c.001-23.528-14.906-44.597-37.093-52.428M384.776 256c0 13.545-11.02 24.564-24.564 24.564-7.272 0-14.13-3.265-18.757-8.722a111.2 111.2 0 0 0 21.686-40.226c12.169 1.454 21.635 11.831 21.635 24.384M135.244 135.758c0-66.821 54.555-121.14 121.464-120.756 66.635.383 120.052 55.449 120.052 122.084v31.252h-9.875c-5.118 0-10.058-.649-14.683-1.93-16.442-4.552-56.658-20.139-85.822-67.856-1.901-3.11-2.878-6.7-2.878-10.344V71.943c0-4.107-3.165-7.688-7.27-7.811a7.5 7.5 0 0 0-7.73 7.497v16.579c0 3.645-.978 7.235-2.878 10.344-29.164 47.717-69.381 63.304-85.822 67.856-4.625 1.281-9.564 1.93-14.683 1.93h-5.351c-1.526 0-3.038.132-4.524.381zm16.548 144.806c-13.545 0-24.564-11.02-24.564-24.564 0-12.553 9.467-22.93 21.635-24.384a111.2 111.2 0 0 0 21.686 40.226c-4.627 5.457-11.485 8.722-18.757 8.722m38.33-9.877c-17.856-16.623-28.705-39.124-30.548-63.356a7.499 7.499 0 0 0-14.958 1.088h-3.705c-7.006 0-12.986-4.929-13.616-11.221-.362-3.614.764-7.069 3.171-9.729a12.57 12.57 0 0 1 9.303-4.131h5.351c6.471 0 12.757-.832 18.685-2.474 17.739-4.912 60.466-21.346 92.198-70.595 31.732 49.249 74.459 65.683 92.198 70.595 5.928 1.641 12.214 2.474 18.685 2.474h5.351a12.57 12.57 0 0 1 9.303 4.131c2.407 2.66 3.533 6.115 3.171 9.729-.63 6.292-6.61 11.221-13.616 11.221h-3.705a7.5 7.5 0 0 0-6.911-7.994 7.483 7.483 0 0 0-8.048 6.909c-1.844 24.232-12.692 46.731-30.549 63.354-17.947 16.707-41.344 25.908-65.879 25.908-24.537.001-47.934-9.201-65.881-25.909m62.481 161.569c-10.097-9.139-18.452-17.825-25.199-25.539-16.637-19.02-26.293-35.089-30.817-43.532 11.509-7.101 18.818-19.784 18.818-33.678v-25.521c12.804 4.992 26.538 7.611 40.597 7.611s27.793-2.619 40.597-7.611v25.521c0 13.79 7.2 26.388 18.56 33.518-7.136 12.042-25.823 39.453-62.556 69.231m75.384-79.584c-9.803-3.46-16.389-12.769-16.389-23.164v-32.71a112 112 0 0 0 19.411-14.136 39.77 39.77 0 0 0 22.673 12.335c2.91 16.64 8.258 26.757 13.896 37.381 5.499 10.363 11.156 21.03 15.475 39.729z"/><path d="M163.757 486.439a7.5 7.5 0 0 0-14.441 4.059c1.686 5.996 3.391 11.523 5.067 16.429a7.5 7.5 0 0 0 7.096 5.076 7.5 7.5 0 0 0 7.098-9.928c-1.59-4.646-3.211-9.906-4.82-15.636M299.574 227.915a7.5 7.5 0 0 0-7.5-7.5H219.93a7.5 7.5 0 0 0-7.5 7.5c0 21.816 19.547 39.564 43.572 39.564s43.572-17.748 43.572-39.564m-70.783 7.5h54.422c-3.696 9.889-14.497 17.064-27.211 17.064s-23.515-7.175-27.211-17.064"/></svg>