<svg xmlns="http://www.w3.org/2000/svg" xml:space="preserve" viewBox="0 0 512 512"><path d="M151.79 175.84h208.42v208.42H151.79z" style="fill:#c9c6ca"/><path d="m408.282 388.965-82.792-29.221a32.065 32.065 0 0 1-21.393-30.237v-41.443h-96.194v41.443a32.065 32.065 0 0 1-21.393 30.237l-82.792 29.221c-19.229 6.787-32.089 24.962-32.089 45.354V504.5h368.742v-70.181c0-20.392-12.859-38.567-32.089-45.354" style="fill:#a5cdff"/><path d="M256 496.484c66.354 0 120.4-52.054 123.911-117.532l-54.422-19.208a32.065 32.065 0 0 1-21.393-30.237v-41.443h-96.194v41.443a32.065 32.065 0 0 1-21.393 30.237l-54.422 19.208C135.6 444.43 189.646 496.484 256 496.484" style="fill:#8cb4eb"/><path d="M256 472.435c55.34 0 100.202-44.862 100.202-100.202 0-.568-.075-1.116-.084-1.681l-30.628-10.809a32.065 32.065 0 0 1-21.393-30.237v-41.443h-96.194v41.443a32.065 32.065 0 0 1-21.393 30.237l-30.627 10.809c-.009.565-.085 1.113-.085 1.681 0 55.341 44.862 100.202 100.202 100.202" style="fill:#e3aa75"/><path d="M304.097 326.052v-37.988h-96.194v37.988c14.744 6.465 30.994 10.109 48.097 10.109s33.353-3.644 48.097-10.109" style="fill:#d29b6e"/><path d="M256 312.113c-57.554 0-104.21-46.656-104.21-104.21v-104.21h208.42v104.21c0 57.554-46.657 104.21-104.21 104.21" style="fill:#f5b97d"/><path d="M256 146.206c23.271 32.459 61.223 53.681 104.21 53.681v-96.194H151.79v104.21c0 57.553 46.656 104.21 104.21 104.21 5.466 0 10.793-.547 16.032-1.359-49.921-7.729-88.177-50.764-88.177-102.851v-.315c0-6.779 4.284-12.784 10.673-15.051 24.937-8.846 46.32-25.197 61.472-46.331" style="fill:#e3aa75"/><path d="M151.79 371.998V191.067c0-7.932 5.564-15.042 13.399-16.282 41.882-6.626 71.734-42.767 84.264-60.82a7.94 7.94 0 0 1 13.105 0c12.53 18.053 42.383 54.194 84.264 60.82 7.835 1.24 13.399 8.35 13.399 16.282v180.935l32.053 11.313V143.774C392.274 68.512 331.262 7.5 256 7.5S119.726 68.512 119.726 143.774v239.541z" style="fill:#dbd9dc"/><path d="m356.117 370.553-30.628-10.809c-4.119-1.454-7.735-3.756-10.833-6.574L256 392.274l-58.657-39.105c-3.099 2.818-6.715 5.121-10.833 6.574l-30.627 10.809c-.009.565-.085 1.113-.085 1.681 0 55.34 44.862 100.202 100.202 100.202s100.202-44.862 100.202-100.202c0-.567-.076-1.115-.085-1.68" style="fill:#edebed"/><path d="M325.489 359.744c-4.118-1.454-7.734-3.756-10.832-6.574L256 392.274l-58.657-39.105c-3.098 2.818-6.715 5.121-10.832 6.574l-30.628 10.809c-.009.565-.084 1.113-.084 1.681 0 .798.101 1.572.119 2.366l25.702 57.829c5.142 11.569 16.65 19.044 29.318 19.044 7.473 0 14.756-2.64 20.51-7.434L256 423.578l24.553 20.461a32.1 32.1 0 0 0 20.51 7.434c12.667 0 24.175-7.475 29.318-19.043l25.701-57.829c.019-.795.119-1.568.119-2.367 0-.568-.075-1.116-.084-1.681z" style="fill:#dbd9dc"/><path d="M205.555 341.83 256 392.274l-39.948 33.29c-4.087 3.406-10.296 1.959-12.457-2.903l-26.168-58.878a5.69 5.69 0 0 1 1.177-6.339l15.615-15.615a8.015 8.015 0 0 1 11.336.001M306.445 341.83 256 392.274l39.948 33.29c4.087 3.406 10.296 1.959 12.457-2.903l26.168-58.878a5.69 5.69 0 0 0-1.177-6.339l-15.615-15.615a8.015 8.015 0 0 0-11.336.001" style="fill:#fff"/><path d="M207.903 177.052a7.5 7.5 0 0 0-7.5 7.5v8.016c0 4.142 3.357 7.5 7.5 7.5s7.5-3.358 7.5-7.5v-8.016a7.5 7.5 0 0 0-7.5-7.5M304.097 200.068a7.5 7.5 0 0 0 7.5-7.5v-8.016c0-4.142-3.357-7.5-7.5-7.5s-7.5 3.358-7.5 7.5v8.016a7.5 7.5 0 0 0 7.5 7.5M256 256.181c11.896 0 22.856-3.804 29.315-10.177a7.5 7.5 0 0 0 .072-10.606 7.497 7.497 0 0 0-10.605-.072c-2.738 2.701-9.301 5.855-18.782 5.855s-16.044-3.154-18.782-5.855a7.5 7.5 0 1 0-10.533 10.678c6.459 6.372 17.419 10.177 29.315 10.177M352.702 207.903c0-.124-.006.123 0 0"/><path d="m410.778 381.893-11.004-3.884V143.774C399.774 64.497 335.277 0 256 0S112.226 64.497 112.226 143.774v234.235l-11.004 3.884c-22.187 7.83-37.093 28.899-37.093 52.427v70.18c0 4.142 3.357 7.5 7.5 7.5s7.5-3.358 7.5-7.5v-70.181c0-4.992.925-9.83 2.626-14.326L119.68 452.5a24.54 24.54 0 0 1 8.578 18.651V504.5c0 4.142 3.357 7.5 7.5 7.5s7.5-3.358 7.5-7.5v-33.349a39.52 39.52 0 0 0-13.816-30.04l-39.755-34.076a40.5 40.5 0 0 1 16.527-10.999l41.885-14.783.636 4.769a108.19 108.19 0 0 0 35.981 67.117c19.736 17.279 45.053 26.795 71.284 26.795s51.548-9.516 71.284-26.795a108.18 108.18 0 0 0 35.981-67.117l.636-4.769 41.885 14.783a40.5 40.5 0 0 1 16.527 10.999l-39.754 34.076a39.52 39.52 0 0 0-13.816 30.04V504.5c0 4.142 3.357 7.5 7.5 7.5s7.5-3.358 7.5-7.5v-33.349c0-7.18 3.127-13.978 8.578-18.651l37.924-32.507a40.4 40.4 0 0 1 2.626 14.326V504.5c0 4.142 3.357 7.5 7.5 7.5s7.5-3.358 7.5-7.5v-70.181c0-23.527-14.906-44.596-37.093-52.426m-62.382 2.148c-6.148 46.118-45.87 80.895-92.396 80.895s-86.248-34.777-92.396-80.896l-1.052-7.887 10.516-3.712 23.673 53.267c1.994 4.485 5.879 7.696 10.66 8.809 1.188.277 2.383.413 3.566.413 3.58 0 7.053-1.244 9.886-3.604L256 402.037l35.146 29.288c2.833 2.361 6.306 3.605 9.886 3.605 1.184 0 2.379-.136 3.566-.413 4.781-1.113 8.666-4.324 10.66-8.81l11.365-25.573a7.5 7.5 0 0 0-3.808-9.899 7.5 7.5 0 0 0-9.899 3.808l-11.365 25.572a.47.47 0 0 1-.355.294.48.48 0 0 1-.446-.106l-33.64-28.032 44.637-44.637a.516.516 0 0 1 .73 0l14.738 14.738-1.473 3.314a7.5 7.5 0 0 0 3.808 9.899c3.384 1.504 7.28.295 9.27-2.682l10.627 3.751zm-103.506 7.73-33.64 28.032c-.06.049-.199.163-.446.106a.47.47 0 0 1-.355-.293l-25.664-57.745 14.737-14.737a.52.52 0 0 1 .73 0zm-29.487-50.701v-29.092c12.587 4.926 26.277 7.635 40.589 7.635 14.317 0 28.013-2.711 40.604-7.641v29.098L256 381.667zm169.371 31.645-41.437-14.625a7.47 7.47 0 0 0-1.873-3.184l-18.381-18.38c-3.156-3.156-7.344-4.649-11.487-4.512v-27.249a112.55 112.55 0 0 0 41.124-41.032v72.428c0 4.142 3.357 7.5 7.5 7.5s7.5-3.358 7.5-7.5V191.066c0-11.726-8.48-21.91-19.727-23.689-13.251-2.097-47.503-11.915-79.274-57.688a15.5 15.5 0 0 0-12.728-6.679 15.51 15.51 0 0 0-12.727 6.681c-5.039 7.262-10.844 14.455-16.787 20.801a7.5 7.5 0 0 0 10.948 10.254 199 199 0 0 0 18.164-22.504c.084-.121.19-.232.403-.232s.32.111.404.232c6.621 9.54 17.622 23.552 32.43 36.134 18.067 15.352 37.186 24.71 56.823 27.817 4.03.638 7.07 4.453 7.07 8.874l-.019 16.837c0 53.326-43.384 96.709-96.71 96.709-53.121 0-96.37-43.051-96.702-96.095v-17.454c0-4.421 3.04-8.236 7.07-8.874 15.651-2.477 31.077-8.98 45.849-19.33a7.501 7.501 0 0 0-8.607-12.285c-12.888 9.03-26.206 14.682-39.585 16.799-11.246 1.779-19.727 11.964-19.727 23.689V336.16c0 4.142 3.357 7.5 7.5 7.5s7.5-3.358 7.5-7.5v-72.383a112.54 112.54 0 0 0 41.113 40.996v27.24c-4.144-.137-8.332 1.357-11.488 4.512l-18.38 18.38a7.47 7.47 0 0 0-1.873 3.184l-41.437 14.625v-228.94C127.226 72.768 184.993 15 256 15s128.774 57.768 128.774 128.774z"/></svg>