<svg xmlns="http://www.w3.org/2000/svg" xml:space="preserve" viewBox="0 0 512 512"><ellipse cx="256.001" cy="328.14" rx="80.16" ry="56.11" style="fill:#64505a"/><path d="M264.017 55.597h-16.032c-13.282 0-24.048-10.767-24.048-24.048 0-13.282 10.767-24.048 24.048-24.048h16.032c13.282 0 24.048 10.767 24.048 24.048.001 13.281-10.766 24.048-24.048 24.048" style="fill:#a06e50"/><path d="m413.863 398.152-84.486-24.849a24.05 24.05 0 0 1-17.263-23.071v-46.135H199.888v46.135a24.05 24.05 0 0 1-17.263 23.071l-84.486 24.849c-20.469 6.02-34.525 24.806-34.525 46.142V504.5h384.774v-60.206c0-21.336-14.056-40.122-34.525-46.142" style="fill:#f7d291"/><path d="M98.139 398.152c-20.469 6.02-34.525 24.806-34.525 46.142V504.5h384.774v-60.207c0-21.336-14.056-40.121-34.525-46.142l-47.239-13.894H145.378z" style="fill:#b4e6a0"/><path d="M119.747 391.797c-.003.16-.021.316-.021.478 0 45.05 22.434 86.91 59.246 112.226h154.055c36.813-25.316 59.247-67.175 59.247-112.226 0-.155-.01-.319-.012-.475l-25.639-7.541H145.378z" style="fill:#9bdc9b"/><path d="m337.511 348.485-1.653.088c-3.119 33.359-41.214 59.734-87.873 59.734-42.268 0-77.548-21.641-86.14-50.51l-2.33.123c-9.519 8.118-15.739 19.211-15.739 34.355 0 61.981 50.245 112.226 112.226 112.226s112.226-50.245 112.226-112.226c-.001-22.124-13.278-35.603-30.717-43.79" style="fill:#84737b"/><path d="M199.888 346.034c16.841 8.996 35.939 14.176 56.113 14.176s39.272-5.18 56.113-14.176v-41.937H199.888z" style="fill:#f0c382"/><path d="M372.235 199.887h-12.024v-80.161h-208.42v80.161h-12.024c-11.068 0-20.04 8.972-20.04 20.04s8.972 20.04 20.04 20.04h12.429c4.106 53.795 48.958 96.194 103.805 96.194s99.699-42.398 103.805-96.194h12.429c11.068 0 20.04-8.973 20.04-20.04 0-11.068-8.972-20.04-20.04-20.04" style="fill:#ffe1a0"/><path d="M320.13 127.742v-8.016H151.791v80.161H140.47c-9.127 0-17.651 5.783-20.015 14.598-3.576 13.332 6.518 25.482 19.312 25.482h12.429c4.106 53.795 48.957 96.194 103.805 96.194 5.483 0 10.83-.534 16.083-1.351-49.946-7.708-88.228-50.754-88.228-102.859v-48.097c0-17.709 14.356-32.065 32.065-32.065h80.161c13.281.001 24.048-10.766 24.048-24.047" style="fill:#f7d291"/><path d="M274.559 256h-37.113c-12.254 0-22.548 9.214-23.901 21.393l-3.787 34.086a24.05 24.05 0 0 0 13.147 24.165l22.344 11.172a24.05 24.05 0 0 0 21.51 0l22.344-11.172a24.05 24.05 0 0 0 13.147-24.165l-3.787-34.086C297.107 265.214 286.813 256 274.559 256" style="fill:#b67f5f"/><path d="M253.263 338.133c-9.012-5.554-14.259-17.442-13.147-29.785l3.787-42.013A34.8 34.8 0 0 1 246.446 256h-9.001c-12.254 0-22.548 9.214-23.901 21.393l-3.787 34.086a24.05 24.05 0 0 0 13.147 24.165l22.344 11.172a24.05 24.05 0 0 0 21.51 0l.328-.164zM278.336 47.581h-44.671c-64.035 0-112.922 57.212-102.935 120.463l5.028 31.843h5.196c14.333 0 25.484-12.459 23.901-26.704l-.104-.934c-2.638-23.742 15.947-44.507 39.836-44.507h102.826c23.889 0 42.474 20.764 39.836 44.507l-.104.934c-1.583 14.245 9.568 26.704 23.901 26.704h5.196l5.028-31.843c9.989-63.252-38.898-120.463-102.934-120.463" style="fill:#a06e50"/><path d="M278.336 47.581h-44.671c-8.877 0-17.418 1.198-25.596 3.26 1.709 33.892 29.648 60.869 63.964 60.869h102.512c-15.586-37.259-52.332-64.129-96.209-64.129" style="fill:#b67f5f"/><path d="M256.001 384.258c-44.272 0-80.161-25.123-80.161-56.113 0-1.72.151-3.414.367-5.095-10.286 10.49-16.4 23.293-16.4 37.159 0 35.417 39.478 64.129 88.177 64.129s88.177-28.712 88.177-64.129v-32.065c.001 30.991-35.888 56.114-80.16 56.114" style="fill:#6e5a64"/><path d="M256.001 484.16c-57.824 0-105.397-43.744-111.522-99.939-.418 2.562-.704 5.214-.704 8.053 0 61.981 50.245 112.226 112.226 112.226s112.226-50.245 112.226-112.226c0-2.885-.249-5.607-.68-8.205-6.055 56.269-53.668 100.091-111.546 100.091" style="fill:#6e5a64"/><path d="M256.001 295.564c9.142 0 17.458-4.23 22.246-11.316a7.5 7.5 0 0 0-2.015-10.413 7.5 7.5 0 0 0-10.414 2.015c-1.965 2.908-5.727 4.715-9.817 4.715-4.091 0-7.853-1.807-9.818-4.715a7.501 7.501 0 0 0-12.429 8.398c4.789 7.086 13.105 11.316 22.247 11.316"/><path d="m415.979 389.838-42.236-12.423c-4.041-14.406-14.232-26.059-30.081-34.25v-19.029c0-6.433-1.157-12.769-3.44-18.878 14.039-16.171 23.353-36.219 26.396-57.791h4.473c14.618 0 27.155-10.861 28.543-24.728.778-7.771-1.764-15.53-6.974-21.288a27.6 27.6 0 0 0-11.682-7.63l4.015-21.795c6.027-32.719-2.725-66.147-24.013-91.715-17.234-20.699-41.026-34.249-67.116-38.659a31 31 0 0 0 1.701-10.104C295.565 14.152 281.413 0 264.017 0h-16.032c-17.396 0-31.548 14.152-31.548 31.549 0 3.295.532 6.543 1.545 9.639a111.54 111.54 0 0 0-69.244 38.033 111.56 111.56 0 0 0-25.416 89.992l4.172 26.423c-8.236 4.224-14.194 12.171-15.126 21.478-.778 7.771 1.764 15.53 6.974 21.288a27.6 27.6 0 0 0 20.425 9.066h5.598a111.1 111.1 0 0 0 16.598 44.806c2.96 4.605 6.246 8.96 9.81 13.052a53.9 53.9 0 0 0-3.273 14.897c-9.057 10.094-14.455 21.628-15.83 33.763-7.149 6.664-11.976 14.508-14.448 23.44l-42.2 12.412c-23.498 6.91-39.909 28.844-39.909 53.337V504.5c0 4.143 3.358 7.5 7.5 7.5s7.5-3.357 7.5-7.5v-61.325c0-17.885 11.983-33.9 29.142-38.946l36.037-10.6C137.022 459.023 190.437 512 256.001 512s118.979-52.977 119.708-118.371l36.037 10.6c17.158 5.046 29.142 21.062 29.142 38.946V504.5c0 4.143 3.358 7.5 7.5 7.5s7.5-3.357 7.5-7.5v-61.325c0-24.493-16.411-46.427-39.909-53.337M247.985 15h16.032c9.125 0 16.548 7.424 16.548 16.549 0 3.018-.867 5.977-2.479 8.573q-1.475-.04-2.954-.041h-41.241c-1.596-2.586-2.454-5.53-2.454-8.532 0-9.125 7.423-16.549 16.548-16.549m-87.843 73.965a96.58 96.58 0 0 1 73.523-33.884h41.466c28.802 0 55.892 12.694 74.321 34.829s26.006 51.074 20.789 79.4l-4.251 23.076h-3.9a8.43 8.43 0 0 1-6.358-2.842 8.43 8.43 0 0 1-2.123-6.633l1.093-9.835c1.493-13.435-2.822-26.916-11.836-36.987s-21.937-15.848-35.453-15.848h-3.319c-4.142 0-7.5 3.357-7.5 7.5s3.358 7.5 7.5 7.5h3.319a32.62 32.62 0 0 1 24.276 10.852 32.62 32.62 0 0 1 8.105 25.327l-1.093 9.835a23.54 23.54 0 0 0 1.465 11.131H171.835a23.54 23.54 0 0 0 1.465-11.132l-1.093-9.834a32.62 32.62 0 0 1 8.105-25.327 32.62 32.62 0 0 1 24.276-10.852h67.445c4.142 0 7.5-3.357 7.5-7.5s-3.358-7.5-7.5-7.5h-67.445a47.63 47.63 0 0 0-35.453 15.848 47.63 47.63 0 0 0-11.836 36.988l1.093 9.834a8.43 8.43 0 0 1-2.123 6.633 8.43 8.43 0 0 1-6.358 2.842h-7.743l-4.029-25.514a96.58 96.58 0 0 1 22.003-77.907M300.09 223.419a7.5 7.5 0 0 0 7.5-7.5v-8.016c0-.174-.014-.345-.026-.517h13.082v16.549c0 4.705-3.828 8.532-8.532 8.532h-16.032c-9.125 0-16.548-7.424-16.548-16.549v-8.532h13.083c-.012.171-.026.342-.026.517v8.016a7.5 7.5 0 0 0 7.499 7.5m-88.178 0a7.5 7.5 0 0 0 7.5-7.5v-8.016c0-.174-.014-.345-.026-.517h13.083v8.532c0 9.125-7.423 16.549-16.548 16.549h-16.032c-4.705 0-8.532-3.827-8.532-8.532v-16.549h13.082c-.012.171-.026.342-.026.517v8.016a7.5 7.5 0 0 0 7.499 7.5m-52.62 8.532c0-4.143-3.358-7.5-7.5-7.5s-7.5 3.357-7.5 7.5v.517h-4.524a12.57 12.57 0 0 1-9.302-4.131c-2.407-2.659-3.533-6.115-3.171-9.729.63-6.292 6.612-11.221 13.618-11.221h35.443v16.549c0 12.976 10.557 23.532 23.532 23.532h16.032c17.396 0 31.548-14.152 31.548-31.549v-8.532h17.064v8.532c0 17.396 14.152 31.549 31.548 31.549h16.032c12.976 0 23.532-10.557 23.532-23.532v-16.549h36.576l.022.001h.005a12.57 12.57 0 0 1 9.288 4.129c2.407 2.66 3.533 6.115 3.171 9.729-.629 6.293-6.611 11.222-13.617 11.222h-3.384v-.438a7.5 7.5 0 0 0-7.497-7.5h-.003a7.5 7.5 0 0 0-7.5 7.494c-.023 32.45-16.456 62.509-42.889 80.272-.032-.548-.057-1.095-.118-1.644l-3.788-34.087c-1.777-15.999-15.257-28.064-31.355-28.064h-37.112c-16.098 0-29.578 12.065-31.355 28.064l-3.788 34.087c-.062.555-.087 1.108-.119 1.661a97.05 97.05 0 0 1-27.601-28.148c-10.001-15.565-15.288-33.62-15.288-52.214m169.37 92.186c0 9.205-3.29 17.861-9.048 25.396V323.77a111 111 0 0 0 8.42-6.468c.409 2.258.628 4.539.628 6.835m-109.114 18.216 22.344 11.172c4.417 2.209 9.263 3.313 14.108 3.313s9.691-1.104 14.109-3.313l22.344-11.172a31.4 31.4 0 0 0 11.111-9.311q.527-.247 1.049-.5v30.666c-12.885 8.417-29.935 13.55-48.613 13.55s-35.727-5.133-48.613-13.55v-30.661c.088.043.668.34 1.107.564a31.4 31.4 0 0 0 11.054 9.242m-2.338-30.045 3.788-34.087a16.53 16.53 0 0 1 16.447-14.721h37.112a16.53 16.53 0 0 1 16.447 14.721l3.788 34.087c.762 6.859-2.874 13.542-9.046 16.629l-22.343 11.172a16.64 16.64 0 0 1-14.802 0l-22.343-11.172c-6.174-3.087-9.81-9.77-9.048-16.629m-24.822 11.47v25.755c-5.759-7.535-9.048-16.191-9.048-25.396 0-2.29.214-4.564.621-6.815a112 112 0 0 0 8.427 6.456M256.001 497c-57.746 0-104.726-46.979-104.726-104.726 0-5.988 1.119-11.355 3.376-16.176 2.683 8.96 7.639 17.448 14.72 25.071a7.48 7.48 0 0 0 5.497 2.396 7.5 7.5 0 0 0 5.493-12.605c-8.54-9.192-13.054-19.826-13.054-30.75 0-6.146 1.432-12.191 4.197-17.94 4.072 11.451 11.996 21.89 23.314 30.378 16.43 12.323 38.159 19.109 61.183 19.109s44.752-6.786 61.183-19.109c4.299-3.224 8.108-6.729 11.407-10.463-1.491 30.313-37.064 54.654-80.606 54.654-14.881 0-29.435-2.897-42.086-8.38a7.5 7.5 0 1 0-5.964 13.763c14.518 6.291 31.134 9.616 48.05 9.616 25.126 0 48.835-7.18 66.762-20.218 18.527-13.474 28.779-31.587 28.909-51.037 11.459 7.917 17.071 18.357 17.071 31.69 0 57.748-46.98 104.727-104.726 104.727"/><path d="M223.937 168.339h-24.048c-4.142 0-7.5 3.357-7.5 7.5s3.358 7.5 7.5 7.5h24.048c4.142 0 7.5-3.357 7.5-7.5s-3.358-7.5-7.5-7.5M288.065 183.339h24.048c4.142 0 7.5-3.357 7.5-7.5s-3.358-7.5-7.5-7.5h-24.048c-4.142 0-7.5 3.357-7.5 7.5s3.358 7.5 7.5 7.5"/></svg>