<svg xmlns="http://www.w3.org/2000/svg" xml:space="preserve" viewBox="0 0 512 512"><path d="m408.102 380.913-82.792-29.221H186.331l-82.793 29.221C84.309 387.7 71.45 405.876 71.45 426.268V504.5h368.742v-78.231c0-20.393-12.86-38.569-32.09-45.356" style="fill:#5a4650"/><path d="M371.432 334.267c-12.142-9.132-19.418-23.358-19.418-38.55v-31.701c0-88.177-48.097-200.403-96.194-200.403s-96.194 112.226-96.194 200.403v31.701c0 15.192-7.276 29.418-19.418 38.55-13.093 9.847-20.663 21.486-20.663 33.959 0 35.417 34.449 104.21 136.274 104.21s136.274-68.792 136.274-104.21c.002-12.473-7.568-24.112-20.661-33.959" style="fill:#6e5a64"/><path d="M255.821 352.194c-57.459 0-104.21-39.556-104.21-88.177s46.75-88.177 104.21-88.177 104.21 39.556 104.21 88.177-46.751 88.177-104.21 88.177" style="fill:#5a4650"/><path d="M255.821 312.113c-57.554 0-104.21-46.656-104.21-104.21V111.71H360.03v96.194c0 57.553-46.656 104.209-104.209 104.209" style="fill:#f5b97d"/><path d="M183.676 207.903v-8.016c0-35.417 28.712-64.129 64.129-64.129H360.03V111.71H151.611v96.194c0 57.553 46.656 104.21 104.21 104.21 5.467 0 10.793-.547 16.032-1.359-49.921-7.73-88.177-50.765-88.177-102.852" style="fill:#e3aa75"/><path d="m399.005 256.273-7.022-117.036C387.81 69.692 333.416 11.744 263.862 7.732c-75.604-4.361-139.506 53.221-143.981 127.795l-7.245 120.746c-4.744 79.067 55.375 146.121 133.155 151.507-48.411-5.017-86.164-45.929-86.164-95.667v-48.097c0-88.177 48.097-200.403 96.194-200.403s96.194 112.226 96.194 200.403v77.686c0 10.772 13.893 15.499 20.204 6.77 18.608-25.738 28.849-57.812 26.786-92.199" style="fill:#84737b"/><path d="m410.957 374.107-11.385-4.018c.008-.482.023-.963.023-1.446 0-10.335-3.105-19.095-9.468-26.654 12.557-33.883 17.515-73.772 14.466-118.476l-4.988-88.436C395.061 59.333 332.061 0 256.179 0c-76.068 0-139.228 59.479-143.788 135.411l-7.232 120.414c-1.776 29.572 4.904 58.147 19.086 83.158-8.092 8.354-12.199 18.321-12.199 29.661 0 .525.016 1.048.025 1.572l-11.028 3.892c-22.228 7.845-37.093 28.855-37.093 52.427v77.651c0 4.106 3.164 7.688 7.269 7.811a7.5 7.5 0 0 0 7.731-7.497v-77.966c0-17.212 10.854-32.554 27.085-38.282l7.649-2.7c1.77 9.042 4.968 17.852 9.576 26.334a7.5 7.5 0 0 0 6.597 3.92 7.5 7.5 0 0 0 4.523-1.521c3.002-2.248 3.741-6.448 1.959-9.748-6.166-11.417-9.292-23.492-9.292-35.894 0-6.2 1.844-11.633 5.599-16.491a154 154 0 0 0 13.296 16.198c29.117 30.918 68.647 47.802 111.178 47.451 56.759-.468 102.394-46.927 102.394-103.688v-48.097c0-43.697-11.496-94.691-30.75-136.411-9.581-20.759-20.708-38.131-32.177-50.237-13.361-14.104-27.077-21.255-40.766-21.255s-27.404 7.151-40.766 21.255c-11.47 12.106-22.596 29.479-32.177 50.237-19.255 41.72-30.751 92.714-30.751 136.411v48.097c0 21.605 6.645 41.686 17.995 58.312a139 139 0 0 1-13.26-12.359c-25.956-27.561-39-63.552-36.73-101.343l7.232-120.414C131.45 68.286 188.032 15 256.179 15c67.959 0 124.383 53.14 128.452 120.949l4.992 88.496c5.193 76.165-13.732 137.082-54.73 176.165-36.71 34.995-89.702 51.108-149.819 45.724a27.9 27.9 0 0 1-12.507-4.28c-6.482-4.13-12.478-8.775-17.885-13.902-2.961-2.808-7.701-2.985-10.619-.131a7.5 7.5 0 0 0 .065 10.795c27.416 26.133 68.126 41.12 111.693 41.12 38.032 0 73.868-11.341 100.905-31.934 22.433-17.086 36.686-38.866 41.263-62.565l7.976 2.815a40.595 40.595 0 0 1 27.085 38.281v77.653c0 4.106 3.164 7.688 7.269 7.811a7.5 7.5 0 0 0 7.731-7.497v-77.967c0-23.571-14.865-44.581-37.093-52.426M255.821 71.113c14.178 0 29.263 12.752 42.897 33.097h-85.795c13.634-20.345 28.72-33.097 42.898-33.097m-51.946 48.097h103.892c18.887 34.595 33.471 83.08 36.259 129.164-16.596 35.996-52.786 57.982-92.531 56.128-18.325-.863-35.921-7.094-50.887-18.018-14.319-10.452-25.636-24.697-32.784-41.224 3.239-45.145 17.588-92.234 36.051-126.05m-36.571 198.432c18.233 25.199 51.089 42.052 88.516 42.052 14.907 0 29.295-2.612 42.763-7.765a7.5 7.5 0 1 0-5.36-14.01c-11.75 4.495-24.335 6.774-37.403 6.774-48.074 0-87.336-31.497-88.657-70.625a114.1 114.1 0 0 0 24.6 24.531c17.346 12.662 37.757 19.884 59.025 20.885q2.705.128 5.397.128c21.127 0 41.567-5.866 59.418-17.101a111.9 111.9 0 0 0 28.721-25.972c-1.29 17.202-9.92 33.357-24.666 45.891a7.5 7.5 0 0 0 9.715 11.43c5.773-4.908 10.773-10.296 14.953-16.057-2.944 46.263-41.512 83.003-88.506 83.003-47.048.001-85.651-36.825-88.516-83.164m88.517 147.294c-11.112 0-22.003-1.055-32.468-3.086 48.134-3.089 90.386-20.35 121.89-50.382 15.548-14.822 28.154-32.454 37.749-52.569 1.09 2.913 1.603 6.095 1.603 9.745 0 53.095-57.768 96.292-128.774 96.292"/><path d="M256.179 263.5c11.898 0 22.857-3.805 29.316-10.178a7.5 7.5 0 0 0 .07-10.606 7.5 7.5 0 0 0-10.606-.071c-2.737 2.701-9.298 5.855-18.78 5.855s-16.043-3.154-18.78-5.855a7.5 7.5 0 0 0-10.606.071 7.5 7.5 0 0 0 .07 10.606c6.459 6.373 17.418 10.178 29.316 10.178M208.083 184.252a7.5 7.5 0 0 0-7.5 7.5v8.017c0 4.143 3.358 7.5 7.5 7.5s7.5-3.357 7.5-7.5v-8.017a7.5 7.5 0 0 0-7.5-7.5M304.276 184.252a7.5 7.5 0 0 0-7.5 7.5v8.017c0 4.143 3.358 7.5 7.5 7.5s7.5-3.357 7.5-7.5v-8.017a7.5 7.5 0 0 0-7.5-7.5M200.066 175.204h16.032c4.142 0 7.5-3.357 7.5-7.5s-3.358-7.5-7.5-7.5h-16.032c-4.142 0-7.5 3.357-7.5 7.5s3.358 7.5 7.5 7.5M296.26 175.204h16.032c4.142 0 7.5-3.357 7.5-7.5s-3.358-7.5-7.5-7.5H296.26c-4.142 0-7.5 3.357-7.5 7.5s3.358 7.5 7.5 7.5"/></svg>