<svg xmlns="http://www.w3.org/2000/svg" xml:space="preserve" viewBox="0 0 512 512"><path d="m413.861 362.798-57.632-16.951h-200.46l-57.632 16.951c-20.469 6.02-34.525 24.806-34.525 46.142v94.641h384.774V408.94c0-21.336-14.056-40.122-34.525-46.142" style="fill:#c9c6ca"/><path d="M215.919 437.448h80.161c50.819 0 94.275-31.74 111.846-76.396l-78.551-23.103a24.05 24.05 0 0 1-17.263-23.071v-59.797H199.886v59.797a24.05 24.05 0 0 1-17.263 23.071l-78.551 23.103c17.572 44.656 61.028 76.396 111.847 76.396" style="fill:#b7b2b8"/><path d="M344.177 269.109H167.822c-26.563 0-48.097 21.534-48.097 48.097 0 53.126 43.067 96.193 96.193 96.193h80.161c53.126 0 96.193-43.068 96.193-96.193.001-26.563-21.532-48.097-48.095-48.097" style="fill:#9c969e"/><path d="M342.043 293.158c17.449 0 24.301 22.63 9.782 32.309l-82.487 54.991a24.05 24.05 0 0 1-26.679 0l-82.487-54.991c-14.518-9.679-7.666-32.309 9.782-32.309z" style="fill:#867e88"/><path d="m180.419 338.964 62.241 41.494a24.05 24.05 0 0 0 26.68 0l62.241-41.494-2.206-.649a24.05 24.05 0 0 1-17.263-23.071v-52.147H199.886v52.147a24.05 24.05 0 0 1-17.263 23.071z" style="fill:#b67f5f"/><path d="M199.886 297.018c16.841 8.996 35.939 14.176 56.113 14.176s39.272-5.18 56.113-14.176v-33.921H199.886z" style="fill:#a06e50"/><path d="M376.241 153.113V128.66c0-62.533-47.746-113.879-108.766-119.662a113.6 113.6 0 0 0-22.952 0c-61.019 5.783-108.766 57.129-108.766 119.662v24.453c-9.147 1.857-16.032 9.941-16.032 19.636 0 11.068 8.972 20.04 20.04 20.04h12.429c4.106 53.795 48.958 96.193 103.805 96.193s99.699-42.398 103.805-96.193h12.429c11.068 0 20.04-8.973 20.04-20.04 0-9.695-6.885-17.779-16.032-19.636" style="fill:#cd916e"/><path d="M191.87 184.773V77.197c0-21.092-27.762-28.855-38.717-10.831-11.038 18.162-17.396 39.481-17.396 62.293v24.453a20.06 20.06 0 0 0-15.727 23.189c1.669 9.724 10.702 16.487 20.568 16.487h11.596c4.106 53.795 48.958 96.193 103.805 96.193 6.895 0 13.631-.675 20.149-1.954-48.011-9.305-84.278-51.523-84.278-102.254" style="fill:#b67f5f"/><path d="M274.558 208.822h-37.113c-12.254 0-22.548 9.214-23.901 21.393l-3.787 34.086a24.05 24.05 0 0 0 13.147 24.165l22.344 11.172a24.05 24.05 0 0 0 21.51 0l22.344-11.172a24.05 24.05 0 0 0 13.147-24.165l-3.787-34.086c-1.356-12.18-11.651-21.393-23.904-21.393" style="fill:#dbd9dc"/><path d="M253.261 290.954c-9.012-5.554-14.259-17.442-13.147-29.785l3.787-42.013a34.8 34.8 0 0 1 2.543-10.335h-9.001c-12.254 0-22.548 9.214-23.901 21.393l-3.787 34.086a24.05 24.05 0 0 0 13.147 24.165l22.344 11.172a24.05 24.05 0 0 0 21.51 0l.328-.164z" style="fill:#c9c6ca"/><path d="M256.002 247.468c9.143 0 17.459-4.231 22.246-11.318a7.5 7.5 0 1 0-12.43-8.396c-1.965 2.908-5.726 4.715-9.816 4.715s-7.853-1.807-9.817-4.715a7.5 7.5 0 0 0-12.43 8.396c4.788 7.086 13.105 11.318 22.247 11.318M199.887 127.226h24.048c4.142 0 7.5-3.357 7.5-7.5s-3.358-7.5-7.5-7.5h-24.048c-4.142 0-7.5 3.357-7.5 7.5s3.358 7.5 7.5 7.5M288.064 127.226h24.049c4.143 0 7.5-3.357 7.5-7.5s-3.357-7.5-7.5-7.5h-24.049c-4.143 0-7.5 3.357-7.5 7.5s3.357 7.5 7.5 7.5"/><path d="m415.977 356.22-21.414-6.298a103.3 103.3 0 0 0 5.211-32.464c0-30.656-24.94-55.597-55.597-55.597h-8.27c16.449-16.902 27.367-38.776 30.713-62.489h4.473c14.617 0 27.155-10.861 28.543-24.728.777-7.771-1.765-15.531-6.975-21.288a27.55 27.55 0 0 0-8.919-6.534v-19.08C383.741 57.305 326.437 0 255.999 0S128.257 57.305 128.257 127.742v19.416c-8.629 4.115-14.927 12.266-15.888 21.858-.778 7.771 1.764 15.53 6.974 21.288a27.6 27.6 0 0 0 20.425 9.066h5.598a111.1 111.1 0 0 0 16.598 44.806 112.3 112.3 0 0 0 14.077 17.684h-8.219c-30.656 0-55.597 24.94-55.597 55.597 0 11.334 1.834 22.247 5.211 32.464l-21.414 6.298c-23.498 6.911-39.91 28.845-39.91 53.338V504.5c0 4.143 3.358 7.5 7.5 7.5s7.5-3.357 7.5-7.5v-94.942c0-17.885 11.984-33.9 29.142-38.947l22.952-6.751c12.427 24.728 34.456 43.828 61.165 52.378V504.5c0 4.143 3.358 7.5 7.5 7.5s7.5-3.357 7.5-7.5v-84.676c5.39.868 10.916 1.326 16.548 1.326H248.5v83.35c0 4.143 3.358 7.5 7.5 7.5s7.5-3.357 7.5-7.5v-83.35h32.581c5.632 0 11.159-.458 16.55-1.326V504.5c0 4.143 3.357 7.5 7.5 7.5s7.5-3.357 7.5-7.5v-88.263c26.708-8.55 48.736-27.65 61.163-52.377l22.952 6.751c17.158 5.047 29.142 21.063 29.142 38.947V504.5c0 4.143 3.357 7.5 7.5 7.5s7.5-3.357 7.5-7.5v-94.942c-.002-24.494-16.413-46.427-39.911-53.338M143.258 127.742C143.258 65.576 193.834 15 256 15s112.742 50.576 112.742 112.742v16.574c-.171-.012-.342-.026-.516-.026h-32.581v-.516c0-4.143-3.357-7.5-7.5-7.5h-56.113a7.5 7.5 0 0 0-7.5 7.5v2.123c-2.647-1.034-5.523-1.608-8.532-1.608s-5.885.574-8.532 1.608v-2.123a7.5 7.5 0 0 0-7.5-7.5h-56.113a7.5 7.5 0 0 0-7.5 7.5v.516h-32.581c-.174 0-.345.014-.516.026zm156.83 39.565c4.143 0 7.5-3.357 7.5-7.5v-8.532h13.057v16.548c0 4.705-3.827 8.532-8.532 8.532h-24.049c-4.705 0-8.532-3.827-8.532-8.532v-16.548h13.057v8.532a7.5 7.5 0 0 0 7.499 7.5m-88.177 0a7.5 7.5 0 0 0 7.5-7.5v-8.532h13.057v16.548c0 4.705-3.828 8.532-8.532 8.532h-24.048c-4.705 0-8.532-3.827-8.532-8.532v-16.548h13.056v8.532a7.5 7.5 0 0 0 7.499 7.5m-37.328 68.759c-10.003-15.563-15.29-33.618-15.29-52.212 0-4.143-3.358-7.5-7.5-7.5s-7.5 3.357-7.5 7.5v.517h-4.524a12.57 12.57 0 0 1-9.302-4.131c-2.407-2.659-3.533-6.115-3.171-9.729.63-6.293 6.612-11.222 13.618-11.222h35.441v8.532c0 12.976 10.557 23.532 23.532 23.532h24.048c12.976 0 23.532-10.557 23.532-23.532 0-4.705 3.828-8.532 8.532-8.532s8.532 3.827 8.532 8.532c0 12.976 10.557 23.532 23.532 23.532h24.049c12.976 0 23.532-10.557 23.532-23.532v-8.532h36.591c3.537 0 6.928 1.505 9.303 4.13 2.406 2.659 3.533 6.115 3.171 9.729-.63 6.293-6.611 11.222-13.617 11.222h-3.384v-.439a7.5 7.5 0 0 0-7.497-7.5h-.003a7.5 7.5 0 0 0-7.5 7.494c-.024 32.451-16.457 62.51-42.89 80.273-.032-.548-.057-1.095-.118-1.645l-3.787-34.086c-1.778-15.999-15.258-28.064-31.355-28.064h-37.112c-16.098 0-29.578 12.065-31.355 28.064l-3.788 34.086c-.062.555-.087 1.108-.119 1.661a97 97 0 0 1-27.601-28.148m145.03 64.842h22.431c5.546 0 8.647 3.719 9.701 7.198s.535 8.295-4.079 11.371l-17.277 11.518c-6.397-2.39-10.775-8.601-10.775-15.501zm-33.867-20.068-22.345 11.171a16.63 16.63 0 0 1-14.801 0l-22.344-11.171c-6.173-3.087-9.809-9.77-9.046-16.63l3.788-34.086a16.53 16.53 0 0 1 16.447-14.721h37.112a16.53 16.53 0 0 1 16.447 14.721l3.787 34.087c.764 6.859-2.872 13.542-9.045 16.629M248.5 406.15h-32.581a88.8 88.8 0 0 1-16.548-1.555v-6.978c0-4.143-3.358-7.5-7.5-7.5s-7.5 3.357-7.5 7.5v2.729c-33.375-12.745-57.146-45.092-57.146-82.89 0-22.385 18.211-40.597 40.597-40.597h24.564v9.048h-22.432c-11.331 0-20.773 7.007-24.057 17.852s.687 21.913 10.114 28.198l92.487 61.659v12.534zm-56.114-105.242v14.587c0 6.9-4.378 13.111-10.776 15.501l-17.278-11.519c-4.614-3.076-5.132-7.891-4.078-11.371 1.054-3.479 4.155-7.198 9.7-7.198zm135.244 99.438v-2.728c0-4.143-3.357-7.5-7.5-7.5s-7.5 3.357-7.5 7.5v6.977a89 89 0 0 1-16.55 1.555h-32.581v-12.534l28.725-19.15a7.5 7.5 0 1 0-8.32-12.48l-27.905 18.603-60.6-40.4c7.37-5.878 11.988-14.919 11.988-24.693V284.45c.077.037.628.326 1.126.586a31.4 31.4 0 0 0 11.037 9.221l22.343 11.171a31.56 31.56 0 0 0 14.11 3.313 31.55 31.55 0 0 0 14.107-3.313l22.345-11.171a31.4 31.4 0 0 0 11.112-9.312q.525-.247 1.046-.498v31.049c0 9.774 4.617 18.815 11.987 24.693l-4.638 3.092a7.5 7.5 0 0 0 4.167 13.741c1.43 0 2.875-.408 4.153-1.261l35.703-23.803c9.428-6.285 13.398-17.354 10.115-28.198-3.284-10.845-12.727-17.852-24.058-17.852h-22.431v-9.048h24.564c22.385 0 40.597 18.212 40.597 40.597.002 37.798-23.768 70.143-57.142 82.889"/></svg>