<svg xmlns="http://www.w3.org/2000/svg" xml:space="preserve" viewBox="0 0 512 512"><path d="M392.454 221.597V111.71c0-41.22-31.111-75.173-71.133-79.658-4.802-.538-9.437-2.822-12.124-6.838C301.366 13.509 283.658 7.5 256.178 7.5c-56.11 0-136.272 39.663-136.272 120.242v93.855c0 16.198-9.539 22.459-16.602 24.875-4.335 1.483-6.794 6.085-5.181 10.373 3.739 9.944 13.406 24.534 37.815 23.203 0 0 16.367 24.551 49.102 19.946 14.556-2.048 29.137-3.914 43.836-3.914h54.609c14.699 0 29.28 1.866 43.836 3.914 32.734 4.605 49.102-19.946 49.102-19.946 24.409 1.331 34.076-13.259 37.815-23.203 1.613-4.288-.846-8.89-5.181-10.373-7.063-2.416-16.603-8.677-16.603-24.875" style="fill:#a06e50"/><path d="M392.454 221.597V111.71c0-41.22-31.111-75.173-71.133-79.658-4.802-.538-9.437-2.822-12.125-6.838C301.366 13.51 283.658 7.5 256.18 7.5v288.581h27.304c14.699 0 29.28 1.866 43.836 3.914 32.734 4.605 49.101-19.946 49.101-19.946 24.409 1.331 34.076-13.259 37.815-23.203 1.613-4.288-.846-8.89-5.181-10.373-7.061-2.417-16.601-8.678-16.601-24.876" style="fill:#b67f5f"/><path d="m408.462 380.949-82.792-29.221c-5.311-1.874-9.831-5.102-13.377-9.148v11.101c0 32.919-25.367 61.626-58.272 62.613-34.048 1.022-61.97-26.275-61.97-60.093v-7.006c-1.696.981-3.464 1.863-5.36 2.532l-82.793 29.221c-19.23 6.787-32.089 24.962-32.089 45.354V504.5h368.742v-78.197c0-20.392-12.859-38.567-32.089-45.354" style="fill:#ff8087"/><path d="m304.269 328.145.008.003v-.261zM208.083 327.887v.261l.008-.003z" style="fill:#ffd164"/><path d="M256.18 400.29c-26.563 0-48.097-21.534-48.097-48.097v-64.129h96.194v64.129c0 26.564-21.534 48.097-48.097 48.097" style="fill:#f7d291"/><path d="M208.083 325.904c14.8 6.545 31.063 10.257 48.097 10.257s33.296-3.712 48.097-10.257v-37.84h-96.194z" style="fill:#f0c382"/><path d="M372.414 175.839H360.39v-16.032c0-29.708-40.081-48.097-64.129-88.177v-8.016h-144.29V175.84h-12.024c-11.068 0-20.04 8.972-20.04 20.04s8.972 20.04 20.04 20.04h12.429c4.106 53.795 48.958 96.194 103.805 96.194s99.699-42.398 103.805-96.194h12.429c11.068 0 20.04-8.973 20.04-20.04-.001-11.069-8.973-20.041-20.041-20.041" style="fill:#ffe1a0"/><path d="M247.915 127.074c26.802-8.701 51.896-16.847 67.146-30.473-6.641-7.476-13.174-15.595-18.799-24.971v-8.016H151.971V175.84H141.09c-10.483 0-20.035 7.542-21.08 17.973-1.201 11.996 8.187 22.108 19.936 22.108h12.429c4.106 53.795 48.957 96.194 103.805 96.194 5.483 0 10.83-.534 16.083-1.351-49.946-7.708-88.228-50.754-88.228-102.859v-35.036c0-12.481 7.243-23.76 18.528-29.093 13.261-6.268 29.771-11.645 45.352-16.702" style="fill:#f7d291"/><path d="M309.197 25.213C301.365 13.509 283.657 7.5 256.178 7.5c-56.11 0-136.272 39.663-136.272 120.242v48.097h32.065a8.016 8.016 0 0 0 8.016-8.016v-8.016c0-48.38 101.3-55.047 139.497-81.654 8.278-5.766 12.809-15.558 12.809-25.647V28.419c-1.171-.918-2.253-1.946-3.096-3.206" style="fill:#a06e50"/><path d="m186.691 351.728-43.783 15.453c.611 21.997 5.1 43.853 13.236 63.361 8.77 21.025 29.114 34.61 51.831 34.61 4.581 0 9.168-.566 13.632-1.682l34.574-8.644 34.573 8.644a56.3 56.3 0 0 0 13.633 1.682c22.718 0 43.063-13.586 51.831-34.611 8.135-19.507 12.625-41.362 13.236-63.36l-43.783-15.453c-5.31-1.874-9.83-5.102-13.376-9.148v11.101c0 32.919-25.367 61.626-58.272 62.613-34.049 1.022-61.97-26.275-61.97-60.093v-7.006c-1.699.982-3.466 1.863-5.362 2.533" style="fill:#e6646e"/><path d="m304.269 328.145 30.316 10.309c6.141 2.141 10.393 7.813 10.776 14.305 1.71 29-4.617 52.407-11.339 68.525-6.127 14.691-21.993 22.716-37.436 18.855l-40.406-10.102-40.406 10.102c-15.442 3.86-31.309-4.165-37.436-18.855-6.723-16.118-13.05-39.525-11.339-68.525.383-6.493 4.635-12.164 10.776-14.305l30.316-10.309-.008-.258v24.048c0 26.563 21.534 48.097 48.097 48.097s48.097-21.534 48.097-48.097v-24.048" style="fill:#edebed"/><path d="m410.958 374.107-58.06-20.492c-.021-.398-.026-.785-.049-1.185-.564-9.575-6.765-17.797-15.85-20.965l-25.222-8.576V304.77a110 110 0 0 0 3.388-2.042c9.302 3.387 17.535 4.728 24.704 4.728 11.693 0 20.585-3.517 26.782-7.321 6.734-4.136 11.189-9.081 13.742-12.503 39.327-.515 43.533-38.519 43.572-38.917a7.5 7.5 0 0 0-1.839-5.691 7.5 7.5 0 0 0-5.417-2.537c-.041-.001-4.348-.222-8.556-2.589-5.519-3.104-8.201-8.436-8.201-16.3V111.71c0-44.691-33.445-82.141-77.795-87.111-2.944-.33-5.459-1.66-6.729-3.557C306.087 7.079 286.151 0 256.178 0c-32.042 0-67.046 11.728-93.634 31.372-22.873 16.898-50.138 47.335-50.138 96.37v93.855c0 17.267-14.009 18.766-16.757 18.889a7.5 7.5 0 0 0-7.256 8.228c.039.398 4.23 38.411 43.572 38.917 2.553 3.422 7.008 8.367 13.742 12.503 10 6.138 27.018 11.517 51.494 2.597 1.115.696 2.24 1.38 3.381 2.037v18.12l-25.277 8.595c-9.029 3.149-15.229 11.371-15.794 20.946-.021.357-.025.701-.044 1.057l-58.424 20.62c-22.187 7.831-37.093 28.899-37.093 52.428V504.5c0 4.143 3.357 7.5 7.5 7.5s7.5-3.357 7.5-7.5v-77.965c0-5.176.994-10.185 2.817-14.82l38.092 32.65a24.54 24.54 0 0 1 8.578 18.65v41.365c0 4.143 3.357 7.5 7.5 7.5s7.5-3.357 7.5-7.5v-41.365a39.52 39.52 0 0 0-13.816-30.039l-39.774-34.091a40.5 40.5 0 0 1 16.188-10.633l53.337-18.825c1.006 23.438 6.804 42.297 12.043 54.856 7.612 18.253 27.024 28.027 46.177 23.245l38.587-9.647 38.586 9.647a40.2 40.2 0 0 0 9.75 1.208c15.669-.001 30.111-9.31 36.427-24.452 5.23-12.537 11.015-31.353 12.036-54.733l52.986 18.701a40.5 40.5 0 0 1 16.347 10.804l-39.574 33.92a39.52 39.52 0 0 0-13.816 30.039v41.365c0 4.143 3.357 7.5 7.5 7.5s7.5-3.357 7.5-7.5v-41.365c0-7.18 3.127-13.978 8.578-18.65l37.823-32.419a40.4 40.4 0 0 1 2.728 14.589V504.5c0 4.143 3.357 7.5 7.5 7.5s7.5-3.357 7.5-7.5v-77.965c.001-23.528-14.905-44.597-37.092-52.428m-3.534-120.181c-2.841 7.952-10.458 19.743-30.594 18.634-2.889-.134-5.631 1.339-7.003 3.917-.513.929-11.684 20.399-39.568 14.963 19.409-17.232 32.791-41.104 36.548-68.021h5.607a27.36 27.36 0 0 0 12.54-3.033v1.212c0 19.964 11.984 29.03 22.47 32.328M171.457 43.437C195.558 25.63 227.229 15 256.178 15c24.311 0 40.489 4.974 46.787 14.385 3.749 5.603 10.136 9.291 17.522 10.12 36.752 4.119 64.467 35.16 64.467 72.205v59.662a27.4 27.4 0 0 0-12.542-3.034h-4.522v-8.532c0-24.932-13.229-35.543-27.233-46.777-5.41-4.339-11.004-8.826-16.666-14.591a7.5 7.5 0 1 0-10.701 10.509c6.284 6.399 12.499 11.384 17.981 15.782 13.481 10.814 21.619 17.342 21.619 35.076v16.032h.007a7.49 7.49 0 0 0 3.634 6.432c1.784 1.07 1.793 1.076 9.873 1.069l6.01-.001c6.915 0 12.54 5.625 12.54 12.54s-5.625 12.54-12.54 12.54h-4.531c.001-.172.007-.343.007-.516 0-4.143-3.357-7.5-7.5-7.5s-7.5 3.357-7.5 7.5c0 53.326-43.384 96.71-96.71 96.71s-96.709-43.384-96.709-96.71c0-4.143-3.357-7.5-7.5-7.5s-7.5 3.357-7.5 7.5c0 .172.006.343.007.516h-4.531c-6.915 0-12.54-5.625-12.54-12.54s5.625-12.54 12.54-12.54h4.008c12.976 0 23.532-10.557 23.532-23.532 0-8.419 4.173-15.456 11.115-21.548l.537.583a7.48 7.48 0 0 0 5.518 2.418 7.47 7.47 0 0 0 5.08-1.984c2.712-2.499 3.157-6.53 1.243-9.535 14.784-8.283 34.712-14.754 54.302-21.113 33.737-10.952 65.604-21.297 73.977-42.229a7.5 7.5 0 1 0-13.928-5.57c-5.762 14.405-35.714 24.128-64.68 33.531-20.784 6.747-42.961 13.948-59.874 24.124l-21.386-23.206a7.5 7.5 0 0 0-11.032 10.164l20.144 21.86c-9.841 8.619-16.017 19.137-16.017 32.506 0 4.705-3.827 8.532-8.532 8.532h-4.008a27.36 27.36 0 0 0-12.54 3.033v-43.63c0-42.779 23.955-69.458 44.051-84.304M142.56 276.526c-1.371-2.577-4.121-4.109-7.029-3.967-20.167 1.106-27.762-10.695-30.597-18.633 10.487-3.297 22.473-12.363 22.473-32.329v-1.212a27.36 27.36 0 0 0 12.54 3.033h5.607c3.757 26.917 17.139 50.789 36.548 68.021-27.884 5.437-39.053-14.027-39.542-14.913M327.1 418.51c-4.736 11.354-16.808 17.437-28.694 14.466l-40.405-10.102a7.5 7.5 0 0 0-3.639 0l-40.406 10.102c-11.889 2.973-23.959-3.11-28.694-14.467-5.843-14.008-12.455-36.69-10.774-65.195.207-3.509 2.467-6.518 5.704-7.646l20.393-6.934v13.315c0 30.656 24.941 55.597 55.598 55.597 10.977 0 21.594-3.195 30.704-9.241a7.5 7.5 0 0 0-8.294-12.498c-6.644 4.409-14.393 6.739-22.409 6.739-22.386 0-40.598-18.212-40.598-40.597v-40.073c12.59 4.928 26.283 7.638 40.598 7.638s28.007-2.71 40.597-7.638v40.072a40.5 40.5 0 0 1-2.315 13.554 7.5 7.5 0 0 0 4.565 9.573 7.5 7.5 0 0 0 2.504.433 7.5 7.5 0 0 0 7.069-4.998 55.4 55.4 0 0 0 3.177-18.562v-13.315l20.338 6.916c3.292 1.147 5.552 4.156 5.759 7.665 1.677 28.504-4.936 51.187-10.778 65.196"/><path d="M274.96 242.646c-2.736 2.7-9.297 5.854-18.779 5.854s-16.044-3.154-18.781-5.855a7.5 7.5 0 0 0-10.535 10.677c6.459 6.373 17.419 10.178 29.316 10.178 11.898 0 22.857-3.805 29.316-10.179a7.5 7.5 0 0 0 .069-10.606 7.5 7.5 0 0 0-10.606-.069M208.083 184.252a7.5 7.5 0 0 0-7.5 7.5v8.017c0 4.143 3.357 7.5 7.5 7.5s7.5-3.357 7.5-7.5v-8.017c0-4.143-3.357-7.5-7.5-7.5M304.277 184.252a7.5 7.5 0 0 0-7.5 7.5v8.017c0 4.143 3.357 7.5 7.5 7.5s7.5-3.357 7.5-7.5v-8.017c0-4.143-3.357-7.5-7.5-7.5M216.1 160.204h-16.032c-4.143 0-7.5 3.357-7.5 7.5s3.357 7.5 7.5 7.5H216.1c4.143 0 7.5-3.357 7.5-7.5s-3.358-7.5-7.5-7.5M288.761 167.704c0 4.143 3.357 7.5 7.5 7.5h16.032c4.143 0 7.5-3.357 7.5-7.5s-3.357-7.5-7.5-7.5h-16.032a7.5 7.5 0 0 0-7.5 7.5"/></svg>