<svg xmlns="http://www.w3.org/2000/svg" xml:space="preserve" viewBox="0 0 512.002 512.002"><path d="m414.433 397.861-53.282-16.394a24.05 24.05 0 0 1-16.976-22.984v-38.352a8.016 8.016 0 0 0-8.016-8.016H175.838a8.016 8.016 0 0 0-8.016 8.016v38.351a24.05 24.05 0 0 1-16.976 22.985l-53.281 16.394c-20.181 6.21-33.952 24.855-33.952 45.97v60.67h384.774v-60.67c-.001-21.114-13.772-39.76-33.954-45.97" style="fill:#f5dcb4"/><path d="M151.64 381.15c12.446 34.099 54.388 59.223 104.358 59.223s91.912-25.123 104.358-59.223c-9.64-3.348-16.181-12.399-16.181-22.667v-38.352a8.016 8.016 0 0 0-8.016-8.016H175.838a8.016 8.016 0 0 0-8.016 8.016v38.351c-.001 10.268-6.541 19.321-16.182 22.668" style="fill:#ebc9a0"/><path d="M336.16 312.115H175.838a8.016 8.016 0 0 0-8.016 8.016v5.146c20.548 26.118 52.367 42.951 88.177 42.951s67.629-16.833 88.177-42.951v-5.146a8.016 8.016 0 0 0-8.016-8.016" style="fill:#d2b496"/><path d="M372.233 175.841h-12.024V95.679h-208.42v80.161h-12.024c-11.022 0-20.04 9.018-20.04 20.04s9.018 20.04 20.04 20.04h12.429c4.106 53.795 48.958 96.194 103.805 96.194s99.699-42.398 103.805-96.194h12.429c11.022 0 20.04-9.018 20.04-20.04s-9.018-20.039-20.04-20.039" style="fill:#f5b97d"/><path d="M320.128 103.695v-8.016H151.789v80.161h-11.321c-9.127 0-17.651 5.783-20.015 14.598-3.576 13.332 6.518 25.482 19.312 25.482h12.429c4.106 53.795 48.957 96.194 103.805 96.194 5.483 0 10.83-.534 16.083-1.351-49.946-7.708-88.228-50.754-88.228-102.859v-40.081c0-22.136 17.945-40.081 40.081-40.081h72.145c13.281.002 24.048-10.765 24.048-24.047" style="fill:#e3aa75"/><path d="M199.886 25.244c-39.398 8.154-67.755 45.104-63.353 86.843l6.773 64.225 8.269-.163c8.73-.171 15.717-7.297 15.717-16.029v-32.377c0-13.282 10.767-24.048 24.048-24.048h88.707z" style="fill:#5a4650"/><path d="M320.128 223.937H191.87c-13.282 0-24.048 10.767-24.048 24.048v8.017c0 48.699 39.478 88.177 88.177 88.177s88.177-39.478 88.177-88.177v-8.016c0-13.282-10.767-24.049-24.048-24.049" style="fill:#84737b"/><path d="M207.902 256.002v-8.016c0-13.282 10.767-24.048 24.048-24.048h-40.081c-13.282 0-24.048 10.767-24.048 24.048v8.016c0 48.699 39.478 88.177 88.177 88.177 6.905 0 13.592-.874 20.04-2.375-39.027-9.086-68.136-44.008-68.136-85.802M368.162 176.312l6.774-64.225c4.992-47.327-32.115-88.553-79.704-88.553h-79.313c-24.049 0-52.106-4.008-64.129-16.032 0 0-16.032 96.194 128.258 96.194h40.081c13.282 0 24.048 10.767 24.048 24.048v32.377c0 8.732 6.987 15.858 15.717 16.029z" style="fill:#6e5a64"/><path d="M207.902 176.356a7.5 7.5 0 0 0-7.5 7.5v8.017c0 4.143 3.357 7.5 7.5 7.5s7.5-3.357 7.5-7.5v-8.017a7.5 7.5 0 0 0-7.5-7.5M304.096 176.356a7.5 7.5 0 0 0-7.5 7.5v8.017c0 4.143 3.357 7.5 7.5 7.5s7.5-3.357 7.5-7.5v-8.017a7.5 7.5 0 0 0-7.5-7.5M274.781 250.663c-2.739 2.701-9.301 5.855-18.782 5.855s-16.043-3.154-18.782-5.855a7.494 7.494 0 0 0-10.605.072 7.5 7.5 0 0 0 .072 10.605c6.46 6.373 17.419 10.178 29.315 10.178s22.855-3.805 29.315-10.178a7.5 7.5 0 0 0 .072-10.605 7.496 7.496 0 0 0-10.605-.072M199.886 167.308h16.032c4.143 0 7.5-3.357 7.5-7.5s-3.357-7.5-7.5-7.5h-16.032c-4.143 0-7.5 3.357-7.5 7.5s3.357 7.5 7.5 7.5M296.08 167.308h16.032c4.143 0 7.5-3.357 7.5-7.5s-3.357-7.5-7.5-7.5H296.08c-4.143 0-7.5 3.357-7.5 7.5s3.357 7.5 7.5 7.5"/><path d="m416.638 390.693-53.28-16.394c-6.987-2.15-11.682-8.507-11.682-15.817V320.13c0-7.835-5.844-14.315-13.398-15.354a95 95 0 0 0 12.816-38.252 111.2 111.2 0 0 0 15.535-43.105h4.462c14.615-.001 27.152-10.861 28.54-24.727.778-7.771-1.764-15.529-6.974-21.287a27.6 27.6 0 0 0-16.138-8.728l5.875-55.807c2.597-24.67-5.433-49.393-22.029-67.828-16.598-18.437-40.344-29.01-65.15-29.01h-79.297c-27.751 0-50.292-5.302-58.825-13.836a7.499 7.499 0 0 0-12.701 4.07c-.176 1.055-3.084 19.703 5.19 41.146a87.67 87.67 0 0 0-19.978 65.457l5.892 55.972c-12.189 2.285-21.916 12.106-23.129 24.221-.778 7.771 1.763 15.53 6.973 21.288a27.6 27.6 0 0 0 20.427 9.067h5.597a111.1 111.1 0 0 0 15.541 43.11 95 95 0 0 0 12.816 38.246c-7.554 1.039-13.398 7.518-13.398 15.354v38.352c0 7.311-4.694 13.667-11.681 15.817L95.36 390.69c-23.475 7.223-39.246 28.577-39.246 53.138v60.674c0 4.143 3.357 7.5 7.5 7.5s7.5-3.357 7.5-7.5v-60.671c0-17.934 11.517-33.527 28.658-38.802l48.726-14.992c13.385 33.922 57.031 57.836 107.502 57.836 17.839 0 34.877-2.884 50.642-8.572a7.5 7.5 0 0 0 4.51-9.6c-1.406-3.897-5.707-5.919-9.6-4.51-13.93 5.025-29.681 7.682-45.552 7.682-23.32 0-45.876-5.694-63.514-16.035-14.852-8.707-25.395-20.202-30.214-32.776 8.064-5.798 13.05-15.18 13.05-25.579v-38.352c0-.284.231-.516.517-.516h8.761c17.536 19.661 43.044 32.064 71.4 32.064s53.864-12.404 71.4-32.064h8.761c.285 0 .517.231.517.516v38.352c0 10.401 4.988 19.784 13.054 25.582-3.692 9.647-10.749 18.673-20.649 26.331a7.5 7.5 0 0 0 9.178 11.865c11.895-9.2 20.501-20.237 25.235-32.226l48.734 14.995c17.142 5.274 28.658 20.868 28.658 38.802v60.67c0 4.143 3.357 7.5 7.5 7.5s7.5-3.357 7.5-7.5v-60.671c-.002-24.561-15.774-45.915-39.25-53.138M177.752 27.356c13.983 3.04 28.474 3.678 38.166 3.678h79.297c20.562 0 40.245 8.765 54.002 24.046s20.412 35.773 18.26 56.222l-6.004 57.039h-1.264c-4.705 0-8.532-3.827-8.532-8.532v-32.064c0-17.396-14.152-31.549-31.549-31.549h-40.08c-49.966 0-85.218-11.623-104.778-34.548-11.992-14.055-15.46-29.761-16.271-40.384 5.279 2.488 11.544 4.525 18.753 6.092m-14.608 207.61a96.7 96.7 0 0 1-3.855-27.061c0-4.143-3.357-7.5-7.5-7.5s-7.5 3.357-7.5 7.5v.516h-4.523a12.57 12.57 0 0 1-9.304-4.131c-2.406-2.66-3.532-6.115-3.17-9.729.63-6.292 6.611-11.22 13.617-11.22h10.88c12.976 0 23.532-10.557 23.532-23.532v-40.081a8.57 8.57 0 0 1 4.271-7.395 7.5 7.5 0 0 0-7.512-12.984c-7.254 4.197-11.76 12.006-11.76 20.379v40.081c0 4.705-3.827 8.532-8.532 8.532h-1.264l-6.004-57.039c-1.834-17.426 2.723-34.802 12.59-49.022a83 83 0 0 0 6.554 8.876c22.507 26.567 61.663 40.039 116.383 40.039h40.08c9.125 0 16.549 7.424 16.549 16.549v32.064c0 12.976 10.557 23.532 23.532 23.532h12.023c3.537 0 6.928 1.506 9.304 4.131 2.406 2.659 3.532 6.114 3.17 9.729-.63 6.292-6.609 11.221-13.615 11.221h-3.386v-.438a7.5 7.5 0 0 0-7.497-7.5h-.003a7.5 7.5 0 0 0-7.5 7.494 96.7 96.7 0 0 1-3.857 26.977c-4.97-10.91-15.97-18.517-28.72-18.517H191.87c-12.755 0-23.758 7.613-28.726 18.529m173.533 21.036c0 44.486-36.192 80.678-80.678 80.678s-80.678-36.192-80.678-80.678v-8.017c0-9.124 7.424-16.548 16.549-16.548h128.258c9.125 0 16.549 7.424 16.549 16.548z"/></svg>