<svg xmlns="http://www.w3.org/2000/svg" xml:space="preserve" viewBox="0 0 512 512"><path d="M410.898 225.37c3.716-13.902 21.457-26.442 21.457-41.515 0-15.072-17.741-27.612-21.457-41.513-3.844-14.382 5.137-34.09-2.148-46.682-7.39-12.773-29.017-14.802-39.382-25.168-10.367-10.367-12.396-31.994-25.168-39.385-12.593-7.286-32.302 1.695-46.685-2.15C283.613 25.241 271.073 7.5 256 7.5c-15.072 0-27.612 17.741-41.513 21.457-14.382 3.844-34.09-5.138-46.682 2.148-12.773 7.39-14.802 29.017-25.168 39.382-10.367 10.366-31.994 12.395-39.385 25.168-7.286 12.593 1.695 32.301-2.15 46.684-3.716 13.902-21.457 26.442-21.457 41.515 0 15.072 17.741 27.612 21.457 41.512 3.844 14.382-5.137 34.091 2.148 46.683 7.39 12.772 29.017 14.802 39.382 25.167 10.367 10.367 12.396 31.995 25.168 39.385 10.76 6.226 26.717.575 40.106 1.197h96.19c13.388-.62 29.34 5.03 40.099-1.195 12.773-7.39 14.802-29.016 25.168-39.382 10.367-10.367 31.994-12.396 39.385-25.169 7.286-12.591-1.695-32.3 2.15-46.682" style="fill:#5a4650"/><path d="M432.355 183.855c0-15.072-17.741-27.612-21.457-41.513-3.844-14.382 5.137-34.09-2.148-46.682-7.39-12.773-29.017-14.802-39.382-25.168-10.367-10.367-12.396-31.994-25.168-39.385-12.593-7.286-32.302 1.695-46.685-2.15C283.613 25.241 271.073 7.5 256 7.5c-15.072 0-27.612 17.741-41.513 21.457-8.89 2.376-19.811-.138-29.833-.692-.476 6.384-.799 12.81-.799 19.316 0 106.894 65.406 188.259 158.367 226.79 18.301 7.585 39.425 16.981 56.509 6.951 4.178-2.453 7.757-5.362 10.017-9.267 7.286-12.593-1.695-32.301 2.15-46.684 3.716-13.903 21.457-26.443 21.457-41.516" style="fill:#6e5a64"/><path d="m408.281 412.978-82.792-29.221a32.065 32.065 0 0 1-21.393-30.237v-25.375h-96.194v25.375a32.06 32.06 0 0 1-21.393 30.236l-82.793 29.221c-19.229 6.787-32.089 24.962-32.089 45.354V504.5h368.742v-46.167c.002-20.392-12.858-38.568-32.088-45.355" style="fill:#dbd9dc"/><path d="m383.528 404.242-58.039-20.485a32 32 0 0 1-8.774-4.741L256 407.47l-60.716-28.454a32 32 0 0 1-8.774 4.741l-58.039 20.484c3.949 42.316 28.963 79.937 65.72 100.259h123.616c36.759-20.322 61.773-57.943 65.721-100.258" style="fill:#c9c6ca"/><path d="M304.097 353.52v-25.375h-96.194v25.375a32.065 32.065 0 0 1-21.393 30.237L256 416.323l69.489-32.566a32.07 32.07 0 0 1-21.392-30.237" style="fill:#b67f5f"/><path d="M325.489 383.757 256 416.323l-69.489-32.566-34.535 12.189c1.95 55.839 47.71 100.538 104.024 100.538s102.074-44.7 104.024-100.538z" style="fill:#ffe17d"/><path d="M256 368.226c17.034 0 33.296-3.712 48.097-10.257v-29.824h-96.194v29.824c14.801 6.545 31.063 10.257 48.097 10.257" style="fill:#a06e50"/><path d="M372.234 207.903H360.21v-40.081c0-22.136-46.656-40.081-104.21-40.081s-104.21 17.945-104.21 40.081v40.081h-12.024c-11.068 0-20.04 8.972-20.04 20.04s8.972 20.04 20.04 20.04h12.429c4.106 53.795 48.958 96.194 103.805 96.194s99.699-42.398 103.805-96.194h12.429c11.068 0 20.04-8.973 20.04-20.04 0-11.068-8.972-20.04-20.04-20.04" style="fill:#cd916e"/><path d="M183.855 239.968v-21.056a16 16 0 0 1 12.758-15.68c37.184-7.789 99.468-27.393 139.548-67.473l-10.922 2.168c-18.418-6.314-42.625-10.184-69.239-10.184-28.027 0-53.416 4.278-72.145 11.2-19.731 7.293-32.065 17.524-32.065 28.88v40.081h-12.024c-11.068 0-20.04 8.972-20.04 20.04s8.972 20.04 20.04 20.04h12.429c4.106 53.795 48.958 96.194 103.805 96.194 5.484 0 10.83-.534 16.083-1.351-49.946-7.708-88.228-50.755-88.228-102.859" style="fill:#b67f5f"/><path d="M143.774 183.855s104.236-7.817 168.339-56.113H143.774z" style="fill:#5a4650"/><path d="M256 95.677c-57.554 0-104.21 17.945-104.21 40.081v32.065c0-22.136 46.656-40.081 104.21-40.081s104.21 17.945 104.21 40.081v-32.065c0-22.136-46.656-40.081-104.21-40.081M356.796 397.044c.289-.649.469-1.326.706-1.989l-32.012-11.298L256 416.323l-69.489-32.566-32.012 11.298c.238.663.417 1.339.706 1.989l26.414 59.433c5.142 11.569 16.65 19.045 29.318 19.045a32.1 32.1 0 0 0 20.509-7.432L256 447.626l24.553 20.461a32.1 32.1 0 0 0 20.51 7.434c12.668 0 24.176-7.475 29.318-19.043z" style="fill:#ffd164"/><path d="M205.555 365.878 256 416.323l-39.948 33.29c-4.087 3.406-10.296 1.959-12.457-2.902l-26.415-59.433a4.81 4.81 0 0 1 .994-5.354l16.044-16.044a8.014 8.014 0 0 1 11.337-.002M317.781 365.878a8.016 8.016 0 0 0-11.336 0L256 416.323l39.948 33.29c4.087 3.406 10.296 1.959 12.457-2.902l26.415-59.433a4.81 4.81 0 0 0-.994-5.354zM151.79 272.032c0 8.854-7.178 16.032-16.032 16.032s-16.032-7.178-16.032-16.032c0-16.032 16.032-24.048 16.032-24.048S151.79 256 151.79 272.032M392.274 272.032c0 8.854-7.178 16.032-16.032 16.032s-16.032-7.178-16.032-16.032c0-16.032 16.032-24.048 16.032-24.048s16.032 8.016 16.032 24.048" style="fill:#ffe17d"/><path d="m410.778 405.94-67.441-23.802a7.47 7.47 0 0 0-1.873-3.184l-18.379-18.379a15.4 15.4 0 0 0-10.972-4.546c-.173 0-.344.02-.516.025v-10.557c2.003.163 4.072.385 6.198.615 4.351.473 8.763.952 13.099.952 5.952 0 11.759-.903 17.058-3.969 9.296-5.379 13.836-15.735 17.841-24.873 2.739-6.248 5.325-12.149 8.874-15.697s9.45-6.136 15.698-8.874c9.139-4.006 19.496-8.546 24.875-17.843 5.299-9.158 4.14-19.833 3.018-30.157-.746-6.865-1.45-13.35-.114-18.346 1.247-4.663 4.992-9.75 8.958-15.136 5.978-8.118 12.754-17.32 12.754-28.316s-6.776-20.197-12.754-28.315c-3.965-5.385-7.711-10.472-8.958-15.134-1.335-4.996-.631-11.479.115-18.345 1.122-10.323 2.282-20.998-3.017-30.156-5.378-9.296-15.735-13.836-24.873-17.841-6.248-2.739-12.149-5.326-15.698-8.874s-6.136-9.451-8.874-15.699c-4.005-9.138-8.545-19.495-17.842-24.874-9.157-5.299-19.833-4.14-30.157-3.019-6.866.744-13.35 1.449-18.347.114-4.663-1.247-9.749-4.992-15.134-8.958C276.198 6.776 266.997 0 256 0s-20.197 6.776-28.316 12.754c-5.385 3.966-10.471 7.711-15.133 8.957-4.997 1.335-11.48.63-18.345-.115-10.324-1.12-20.998-2.282-30.157 3.018-9.296 5.379-13.835 15.735-17.841 24.873-2.739 6.248-5.325 12.149-8.874 15.697s-9.451 6.136-15.699 8.875c-9.138 4.005-19.495 8.544-24.874 17.841-5.299 9.158-4.14 19.834-3.018 30.157.746 6.865 1.45 13.351.114 18.347-1.247 4.662-4.992 9.749-8.958 15.135-5.979 8.119-12.754 17.32-12.754 28.316s6.776 20.198 12.754 28.316c3.965 5.385 7.711 10.471 8.957 15.133 1.335 4.996.631 11.48-.115 18.346-1.122 10.323-2.282 20.998 3.017 30.156 5.378 9.296 15.735 13.836 24.873 17.841 6.248 2.739 12.149 5.326 15.698 8.875 3.548 3.548 6.135 9.45 8.874 15.698 4.005 9.138 8.545 19.495 17.842 24.875 9.158 5.298 19.834 4.14 30.158 3.018 2.127-.231 4.196-.452 6.201-.615v10.557c-.173-.006-.343-.025-.516-.025a15.41 15.41 0 0 0-10.972 4.545l-18.38 18.38a7.47 7.47 0 0 0-1.873 3.184l-67.441 23.802c-22.187 7.831-37.093 28.899-37.093 52.428V504.5c0 4.143 3.358 7.5 7.5 7.5s7.5-3.357 7.5-7.5v-46.132c0-4.992.925-9.831 2.626-14.327l37.925 32.508a24.54 24.54 0 0 1 8.578 18.65v9.301c0 4.143 3.358 7.5 7.5 7.5s7.5-3.357 7.5-7.5v-9.301a39.52 39.52 0 0 0-13.816-30.039l-39.755-34.076a40.5 40.5 0 0 1 16.528-10.999l38.953-13.748c6.934 55.377 54.127 97.646 110.833 97.646 56.679 0 103.895-42.28 110.831-97.647l38.954 13.748a40.5 40.5 0 0 1 16.528 10.999l-39.755 34.076a39.51 39.51 0 0 0-13.817 30.039v9.301c0 4.143 3.358 7.5 7.5 7.5s7.5-3.357 7.5-7.5v-9.301a24.53 24.53 0 0 1 8.578-18.65l37.925-32.508a40.4 40.4 0 0 1 2.626 14.327V504.5c0 4.143 3.358 7.5 7.5 7.5s7.5-3.357 7.5-7.5v-46.132c0-23.528-14.907-44.597-37.093-52.428M256 405.715l-40.597-40.596V344.04c12.589 4.928 26.282 7.638 40.597 7.638s28.007-2.71 40.597-7.638v21.079zM135.762 256.921c3.515 2.723 8.528 7.875 8.528 15.111 0 4.705-3.828 8.532-8.532 8.532s-8.533-3.827-8.533-8.532c.001-7.228 5.022-12.386 8.537-15.111m23.529-16.953c0-4.143-3.358-7.5-7.5-7.5s-7.5 3.357-7.5 7.5c0 .172.006.344.007.516h-4.531c-6.915 0-12.541-5.625-12.541-12.54s5.625-12.54 12.541-12.54h28.573v8.532c0 21.815 17.749 39.564 39.564 39.564s39.564-17.749 39.564-39.564v-.517h17.064v.517c0 21.815 17.749 39.564 39.564 39.564s39.564-17.749 39.564-39.564v-8.532h28.573c6.915 0 12.541 5.625 12.541 12.54s-5.625 12.54-12.541 12.54h-4.531c.001-.172.007-.343.007-.516 0-4.143-3.358-7.5-7.5-7.5s-7.5 3.357-7.5 7.5c0 53.326-43.384 96.71-96.709 96.71s-96.709-43.384-96.709-96.71m0-72.146c0-13.604 36.792-32.58 96.709-32.58 9.892 0 19.529.535 28.724 1.576-44.824 26.98-104.114 36.169-125.433 38.716zm0 22.844c22.959-2.525 96.913-13.252 147.083-50.263 4.016.895 7.902 1.896 11.619 3.014a7.5 7.5 0 0 0 4.322-14.364c-19.159-5.765-42.09-8.812-66.314-8.812-37.231 0-76.071 7.883-96.709 22.852v-7.336c0-13.604 36.792-32.58 96.709-32.58s96.709 18.976 96.709 32.58v7.373l-.008-.006a7.5 7.5 0 0 0-8.85 12.111c4.041 2.953 8.858 7.534 8.858 12.586v32.581h-80.677a7.5 7.5 0 0 0-7.5 7.5v.516h-17.064v-.516a7.5 7.5 0 0 0-7.5-7.5h-80.677zm120.241 24.737h17.063v9.228c0 4.143 3.358 7.5 7.5 7.5s7.5-3.357 7.5-7.5v-9.228h17.066v8.532c0 13.545-11.02 24.564-24.564 24.564s-24.564-11.02-24.564-24.564zm-96.193 0h17.063v9.228c0 4.143 3.358 7.5 7.5 7.5s7.5-3.357 7.5-7.5v-9.228h17.066v8.532c0 13.545-11.02 24.564-24.564 24.564s-24.564-11.02-24.564-24.564v-8.532zm192.903 65.161c-4.705 0-8.532-3.827-8.532-8.532 0-7.225 5.015-12.38 8.53-15.106 3.526 2.733 8.535 7.887 8.535 15.106-.001 4.705-3.828 8.532-8.533 8.532m-24.188 31.638c-3.379 7.71-6.572 14.993-11.615 17.91-4.74 2.745-12.207 2.043-20.179 1.18 16.089-11.355 29.057-26.848 37.343-44.919a23.7 23.7 0 0 0 6.317 5.697c-5.458 5.532-8.718 12.951-11.866 20.132m-242.312-43.908c-2.839-4.907-1.989-12.736-1.088-21.024.862-7.933 1.753-16.136-.306-23.839-1.979-7.4-6.752-13.885-11.37-20.154-5.057-6.867-9.833-13.353-9.833-19.422s4.776-12.556 9.833-19.422c4.617-6.271 9.392-12.755 11.37-20.156 2.059-7.703 1.168-15.906.307-23.839-.9-8.289-1.75-16.118 1.089-21.026 2.918-5.043 10.201-8.235 17.913-11.614 7.245-3.176 14.737-6.46 20.284-12.006s8.83-13.038 12.006-20.283c3.38-7.711 6.572-14.994 11.615-17.911 4.908-2.84 12.737-1.988 21.024-1.089 7.932.862 16.135 1.755 23.839-.306 7.4-1.978 13.884-6.752 20.154-11.369C243.445 19.776 249.931 15 256 15s12.556 4.776 19.423 9.833c6.271 4.617 12.754 9.392 20.155 11.369 7.704 2.059 15.906 1.168 23.84.308 8.287-.9 16.116-1.752 21.026 1.09 5.043 2.918 8.236 10.201 11.616 17.912 3.175 7.245 6.459 14.737 12.005 20.283s13.038 8.831 20.283 12.006c7.71 3.38 14.994 6.572 17.911 11.615 2.839 4.908 1.989 12.736 1.088 21.024-.862 7.933-1.753 16.135.306 23.838 1.979 7.401 6.753 13.885 11.37 20.155 5.057 6.866 9.833 13.353 9.833 19.421 0 6.069-4.776 12.556-9.833 19.423-4.618 6.271-9.393 12.755-11.371 20.156-2.059 7.703-1.168 15.906-.307 23.839.9 8.288 1.75 16.117-1.089 21.025-.636 1.1-1.491 2.108-2.502 3.053-.213-9.934-4.993-17.33-9.856-22.299 6.032-5.056 9.876-12.64 9.876-21.108 0-15.186-12.354-27.54-27.541-27.54h-4.524v-64.646c0-30.904-57.556-47.58-111.709-47.58s-111.709 16.676-111.709 47.58v64.646h-4.524c-15.186 0-27.541 12.354-27.541 27.54 0 8.468 3.844 16.052 9.876 21.108-4.863 4.969-9.642 12.365-9.856 22.298-1.012-.946-1.867-1.954-2.504-3.055m61.815 61.817c-5.043-2.919-8.235-10.202-11.615-17.913-3.147-7.181-6.407-14.596-11.863-20.127a23.7 23.7 0 0 0 6.318-5.698c8.286 18.07 21.253 33.563 37.342 44.918-7.974.863-15.442 1.561-20.182-1.18m27.965 41.07c.038-.037.151-.151.365-.151.213 0 .327.114.364.151v.001l44.638 44.637-33.639 28.032c-.059.05-.193.167-.447.106a.47.47 0 0 1-.354-.293l-25.664-57.745zm-39.818 30.026 13.365-4.717 23.674 53.266c1.994 4.485 5.878 7.696 10.659 8.811 1.188.276 2.383.412 3.568.412 3.579 0 7.053-1.244 9.885-3.604l27.646-23.039v56.358c-46.784-3.588-84.504-40.456-88.797-87.487M263.5 488.693v-56.358l27.646 23.039c2.833 2.361 6.306 3.604 9.886 3.604 1.184 0 2.379-.136 3.567-.412 4.78-1.114 8.665-4.325 10.659-8.811l11.366-25.573a7.5 7.5 0 0 0-3.808-9.899 7.5 7.5 0 0 0-9.899 3.808l-11.366 25.573a.47.47 0 0 1-.354.293c-.254.061-.389-.057-.448-.106l-33.639-28.032 44.638-44.638c.038-.037.151-.151.364-.151.214 0 .327.114.365.152l14.738 14.737-1.473 3.313a7.5 7.5 0 0 0 3.808 9.899c3.385 1.507 7.28.296 9.27-2.681l13.475 4.756c-4.293 47.023-42.032 83.897-88.795 87.487"/><path d="M256 303.581c11.897 0 22.856-3.805 29.316-10.178a7.5 7.5 0 0 0-10.535-10.677c-2.738 2.701-9.299 5.855-18.781 5.855s-16.043-3.154-18.781-5.855a7.5 7.5 0 0 0-10.535 10.677c6.46 6.373 17.419 10.178 29.316 10.178M296.081 191.354h16.032c4.142 0 7.5-3.357 7.5-7.5s-3.358-7.5-7.5-7.5h-16.032c-4.142 0-7.5 3.357-7.5 7.5s3.357 7.5 7.5 7.5"/></svg>