<svg xmlns="http://www.w3.org/2000/svg" xml:space="preserve" viewBox="0 0 512.002 512.002"><path d="m413.862 366.087-77.522-22.801L256 416.323l-80.339-73.036-77.522 22.801c-20.469 6.02-34.525 24.806-34.525 46.142v92.27h384.774v-92.271c0-21.336-14.057-40.122-34.526-46.142" style="fill:#6e5a64"/><path d="M397.292 230.212 256 207.903l-141.291 22.309c-5.413.855-8.392 6.768-5.857 11.626l91.035 174.484-11.715 23.431a16.03 16.03 0 0 0 1.294 16.488l34.47 48.258h64.129l34.47-48.258a16.03 16.03 0 0 0 1.294-16.488l-11.715-23.431 91.035-174.484c2.535-4.858-.444-10.771-5.857-11.626" style="fill:#5a4650"/><path d="M108.045 237.219 256 416.323l147.955-179.104c-.402-3.402-2.925-6.416-6.664-7.006L256 207.903l-141.291 22.309c-3.739.591-6.262 3.604-6.664 7.007" style="fill:#e6646e"/><path d="m262.181 408.841 59.262-71.738c-5.732-4.46-9.329-11.352-9.329-18.937v-38.119H199.888v38.119c0 7.585-3.597 14.476-9.329 18.937l59.262 71.738c3.205 3.881 9.154 3.881 12.36 0" style="fill:#dbd9dc"/><path d="M199.888 305.953c16.841 8.996 35.939 14.176 56.113 14.176s39.272-5.18 56.113-14.176v-25.905H199.888z" style="fill:#c9c6ca"/><path d="M372.234 159.806H360.21V63.613H151.791v96.194h-12.024c-11.068 0-20.04 8.972-20.04 20.04s8.972 20.04 20.04 20.04h12.429c4.106 53.795 48.958 96.194 103.805 96.194s99.699-42.398 103.805-96.194h12.429c11.068 0 20.04-8.973 20.04-20.04 0-11.068-8.972-20.041-20.041-20.041" style="fill:#edebed"/><path d="M256.001 239.968c-13.282 0-24.048-10.767-24.048-24.048h48.097c-.001 13.281-10.768 24.048-24.049 24.048" style="fill:#dbd9dc"/><path d="M183.855 191.871v-24.854c0-23.153 6.68-45.934 19.896-64.945l.334-.479c2.623-3.742 7.771-4.676 11.419-1.924 9.255 6.983 20.335 14.022 31.907 18.465a23.9 23.9 0 0 0 8.589 1.591c2.949 0 5.838-.535 8.588-1.591 14.332-5.502 71.574-54.522 71.574-54.522H151.791v96.194h-12.024c-11.068 0-20.04 8.972-20.04 20.04s8.972 20.04 20.04 20.04h12.429c4.106 53.795 48.958 96.194 103.805 96.194 5.484 0 10.83-.534 16.083-1.351-49.947-7.707-88.229-50.754-88.229-102.858" style="fill:#dbd9dc"/><path d="M231.952 7.5c-53.126 0-96.194 43.067-96.194 96.194v60.156c3.352-2.525 7.503-4.043 12.024-4.043h5.381a8.005 8.005 0 0 0 7.839-6.353c3.189-14.867 13.626-53.015 41.44-84.069 2.881-3.217 7.871-3.399 11.105-.538 8.046 7.119 23.618 19.67 39.61 25.81a7.95 7.95 0 0 0 5.685 0c15.992-6.14 31.564-18.69 39.61-25.81 3.234-2.862 8.224-2.679 11.105.538 27.813 31.054 38.251 69.202 41.44 84.069a8.005 8.005 0 0 0 7.839 6.353h5.381c4.52 0 8.671 1.518 12.024 4.043v-60.156c0-53.126-43.067-96.194-96.194-96.194z" style="fill:#5a4650"/><path d="m264.017 215.919 12.648 25.296c1.366 2.731 5.283 2.674 6.568-.097l12.849-27.705zM235.336 241.216l12.648-25.296-32.065-2.505 12.849 27.705c1.285 2.769 5.203 2.827 6.568.096" style="fill:#fff"/><path d="M207.904 183.339a7.5 7.5 0 0 0 7.5-7.5v-8.017c0-4.143-3.358-7.5-7.5-7.5s-7.5 3.357-7.5 7.5v8.017a7.5 7.5 0 0 0 7.5 7.5M304.098 160.322a7.5 7.5 0 0 0-7.5 7.5v8.017c0 4.143 3.358 7.5 7.5 7.5s7.5-3.357 7.5-7.5v-8.017a7.5 7.5 0 0 0-7.5-7.5M197.516 150.89l24.048 8.016a7.5 7.5 0 0 0 2.373.387 7.502 7.502 0 0 0 2.37-14.617l-24.048-8.016a7.5 7.5 0 0 0-4.743 14.23M288.064 159.292c.786 0 1.586-.125 2.373-.387l24.049-8.016a7.5 7.5 0 0 0-4.743-14.23l-24.049 8.016a7.5 7.5 0 0 0 2.37 14.617M256 440.887a7.5 7.5 0 0 0-7.5 7.5V504.5c0 4.143 3.358 7.5 7.5 7.5s7.5-3.357 7.5-7.5v-56.113c0-4.143-3.357-7.5-7.5-7.5"/><path d="m416.874 358.537-56.879-17.775 49.849-95.543a15.56 15.56 0 0 0 .13-14.098 15.56 15.56 0 0 0-11.336-8.384l-33.811-5.635a111 111 0 0 0 1.804-9.716h4.458c14.618 0 27.155-10.861 28.544-24.727.778-7.771-1.764-15.53-6.974-21.288a27.6 27.6 0 0 0-8.917-6.533v-51.146C383.742 46.517 337.226 0 280.049 0h-48.097c-57.177 0-103.693 46.517-103.693 103.693v51.48c-8.63 4.115-14.929 12.266-15.89 21.858-.779 7.771 1.762 15.53 6.972 21.288a27.6 27.6 0 0 0 20.426 9.067h5.598a111 111 0 0 0 1.803 9.716l-33.806 5.634a15.55 15.55 0 0 0-11.335 8.384 15.56 15.56 0 0 0 .13 14.099l49.849 95.542-56.878 17.775c-23.335 7.291-39.014 28.617-39.014 53.065V504.5c0 4.143 3.358 7.5 7.5 7.5s7.5-3.357 7.5-7.5v-92.897a40.8 40.8 0 0 1 2.986-15.35l37.565 32.198a24.54 24.54 0 0 1 8.578 18.651V504.5a7.5 7.5 0 0 0 7.5 7.5 7.5 7.5 0 0 0 7.5-7.5v-57.397a39.52 39.52 0 0 0-13.816-30.04l-39.104-33.517a40.6 40.6 0 0 1 17.279-10.692l59.453-18.58 32.411 62.121-10.002 20.005a23.48 23.48 0 0 0 1.898 24.202l34.47 48.258a7.49 7.49 0 0 0 6.109 3.142 7.5 7.5 0 0 0 6.097-11.86l-34.47-48.258a8.52 8.52 0 0 1-.688-8.775l11.715-23.432a7.5 7.5 0 0 0-.059-6.823L143.332 291.71l106.887 129.389a7.5 7.5 0 0 0 11.564 0l106.886-129.387-63.204 121.141a7.5 7.5 0 0 0-.059 6.823l11.715 23.433a8.51 8.51 0 0 1-.688 8.774l-34.47 48.258a7.5 7.5 0 0 0 1.744 10.462 7.46 7.46 0 0 0 4.353 1.398 7.49 7.49 0 0 0 6.109-3.142l34.471-48.258a23.48 23.48 0 0 0 1.898-24.201l-10.002-20.006 32.411-62.121 59.454 18.58a40.6 40.6 0 0 1 17.278 10.692l-39.104 33.517a39.52 39.52 0 0 0-13.816 30.04V504.5c0 4.143 3.358 7.5 7.5 7.5s7.5-3.357 7.5-7.5v-57.397a24.53 24.53 0 0 1 8.578-18.651l37.565-32.198a40.7 40.7 0 0 1 2.986 15.35V504.5c0 4.143 3.358 7.5 7.5 7.5s7.5-3.357 7.5-7.5v-92.897c0-24.449-15.679-45.775-39.014-53.066m-22.638-121.328-74.622 90.332V283.64c18.35-12.762 32.711-30.879 40.799-52.068zm-249.944-45.338v.516h-4.524a12.57 12.57 0 0 1-9.303-4.131c-2.407-2.659-3.532-6.114-3.17-9.729.63-6.292 6.612-11.221 13.618-11.221h12.251c7.382 0 13.622-5.052 15.174-12.285 2.237-10.429 7.813-31.173 20.033-52.924a7.501 7.501 0 0 0-13.078-7.348c-13.188 23.476-19.207 45.868-21.621 57.126-.056.262-.255.431-.508.431h-9.905v-48.613c0-48.905 39.788-88.693 88.693-88.693h48.097c48.906 0 88.693 39.788 88.693 88.693v48.613h-9.905c-.252 0-.452-.169-.508-.431-3.664-17.085-15.768-60.405-48.929-93.566a7.505 7.505 0 0 0-10.604-.002c-.221.22-21.514 21.311-42.796 29.408-21.283-8.098-42.576-29.188-42.793-29.406a7.5 7.5 0 0 0-10.606 0 154 154 0 0 0-8.431 9.149 7.5 7.5 0 0 0 .859 10.571 7.5 7.5 0 0 0 10.572-.858 140 140 0 0 1 2.628-3.006c8.856 7.884 26.896 22.459 45.399 28.627a7.5 7.5 0 0 0 4.744 0c18.503-6.168 36.544-20.744 45.4-28.628 26.597 29.545 36.697 65.968 39.891 80.857 1.552 7.232 7.792 12.284 15.174 12.284h13.397a12.57 12.57 0 0 1 9.302 4.13c2.407 2.66 3.533 6.115 3.171 9.729-.63 6.292-6.612 11.221-13.618 11.221h-3.383v-.438a7.5 7.5 0 0 0-7.497-7.5h-.003a7.5 7.5 0 0 0-7.5 7.494c-.039 53.287-43.421 96.639-96.706 96.639-53.326 0-96.709-43.384-96.709-96.71a7.5 7.5 0 1 0-14.999.001m48.096 91.78v43.891l-74.622-90.331 33.816-5.636c8.086 21.195 22.45 39.314 40.806 52.076M256 404.546l-48.613-58.847v-53.265c14.705 7.137 31.199 11.147 48.613 11.147 17.412 0 33.906-4.012 48.612-11.153v53.271z"/><path d="M200.606 208.978a7.5 7.5 0 0 0 5.565 9.028c1.315.312 2.669.595 4.019.881l14.958 32.252a7.5 7.5 0 0 0 13.512.199l13.982-27.963c1.12.015 2.235.044 3.359.044s2.239-.029 3.359-.044l13.982 27.963a7.5 7.5 0 0 0 6.708 4.146l.111-.001a7.5 7.5 0 0 0 6.693-4.344l14.958-32.252c1.35-.286 2.704-.569 4.019-.881 4.03-.956 6.522-4.998 5.565-9.028s-4.997-6.526-9.029-5.565c-13.803 3.275-29.836 5.007-46.365 5.007s-32.562-1.731-46.365-5.007a7.497 7.497 0 0 0-9.031 5.565m79.189 21.727-4.04-8.08c2.761-.224 5.478-.511 8.171-.828zm-47.589 0-4.131-8.908c2.693.317 5.41.604 8.171.828z"/></svg>