<svg xmlns="http://www.w3.org/2000/svg" xml:space="preserve" viewBox="0 0 512.001 512.001"><path d="M182.615 280.797c-3.095-9.705-12.077-16.781-22.808-16.781-13.282 0-24.048 10.767-24.048 24.048 0 7.365 3.382 13.875 8.597 18.286-.342 1.875-.581 3.788-.581 5.762 0 17.708 14.356 32.065 32.065 32.065s32.065-14.356 32.065-32.065c-.002-15.379-10.842-28.201-25.29-31.315M329.385 280.797c3.095-9.705 12.077-16.781 22.808-16.781 13.282 0 24.048 10.767 24.048 24.048 0 7.365-3.382 13.875-8.597 18.286.341 1.875.581 3.788.581 5.762 0 17.708-14.356 32.065-32.065 32.065s-32.065-14.356-32.065-32.065c.002-15.379 10.842-28.201 25.29-31.315" style="fill:#a06e50"/><path d="m408.282 413.013-82.792-29.221c-12.82-4.525-12.708-16.642-12.708-30.237v-41.443H199.218v41.443c0 13.595.112 25.712-12.708 30.237l-82.792 29.221c-19.229 6.787-32.089 24.962-32.089 45.354V504.5h368.742v-46.132c0-20.392-12.859-38.568-32.089-45.355" style="fill:#d29b6e"/><path d="m408.282 413.013-82.792-29.221c-8.323-2.938-14.804-9.101-18.363-16.765-13.878 5.753-31.692 9.215-51.127 9.215s-37.25-3.462-51.127-9.215c-3.559 7.664-10.039 13.828-18.363 16.765l-82.792 29.221c-19.23 6.787-32.089 24.962-32.089 45.355V504.5h368.742v-46.132c0-20.392-12.859-38.568-32.089-45.355" style="fill:#edebed"/><path d="M372.234 207.903H360.21v-32.065H151.79v32.065h-12.024c-11.068 0-20.04 8.972-20.04 20.04s8.972 20.04 20.04 20.04h12.429c4.106 53.795 48.958 96.194 103.805 96.194s99.699-42.398 103.805-96.194h12.429c11.068 0 20.04-8.973 20.04-20.04 0-11.068-8.972-20.04-20.04-20.04" style="fill:#f5b97d"/><path d="M328.145 183.855v-8.016H151.79v32.065h-10.881c-11.753 0-20.035 7.542-21.08 17.973-1.201 11.996 8.186 22.108 19.937 22.108h12.429c4.106 53.795 48.957 96.194 103.805 96.194 5.483 0 10.83-.534 16.083-1.351-49.946-7.708-88.228-50.754-88.228-102.859v-8.016c0-17.709 14.356-32.065 32.065-32.065h96.194c8.853-.001 16.031-7.179 16.031-16.033" style="fill:#e3aa75"/><path d="m146.792 210.563-11.033 1.395v-36.12h32.065v10.866c-.001 12.116-9.013 22.339-21.032 23.859M365.208 210.563l11.034 1.395v-36.12h-32.065v10.866c0 12.116 9.012 22.339 21.031 23.859" style="fill:#a06e50"/><path d="M400.29 71.629c0-22.136-17.944-40.081-40.081-40.081H319.9C310.638 17.1 294.476 7.5 276.04 7.5h-40.08c-18.436 0-34.598 9.6-43.86 24.048h-40.31c-22.136 0-40.081 17.945-40.081 40.081 0 16.427 9.905 30.507 24.048 36.697v67.513h240.484v-67.513c14.145-6.19 24.049-20.27 24.049-36.697" style="fill:#edebed"/><path d="M135.758 175.839h32.065v-48.097c0-8.854-7.178-16.032-16.032-16.032h-16.032zM325.489 383.792c-8.323-2.938-14.803-9.101-18.362-16.765-13.878 5.753-31.692 9.215-51.127 9.215s-37.25-3.462-51.127-9.215c-3.559 7.664-10.039 13.828-18.362 16.765l-16.049 5.664c15.955 20.697 48.231 34.882 85.538 34.882 11.551 0 22.52-1.498 32.771-3.99l17.25-5.421c15.057-6.147 27.409-14.953 35.518-25.471z" style="fill:#dbd9dc"/><path d="M256 295.564c11.897 0 22.856-3.805 29.315-10.177a7.5 7.5 0 0 0 .072-10.605 7.496 7.496 0 0 0-10.605-.072c-2.738 2.7-9.3 5.854-18.782 5.854s-16.043-3.154-18.781-5.854a7.5 7.5 0 0 0-10.535 10.677c6.46 6.373 17.419 10.177 29.316 10.177M207.903 231.436a7.5 7.5 0 0 0 7.5-7.5v-8.017c0-4.143-3.358-7.5-7.5-7.5s-7.5 3.357-7.5 7.5v8.017a7.5 7.5 0 0 0 7.5 7.5M304.097 231.436c4.143 0 7.5-3.357 7.5-7.5v-8.017c0-4.143-3.357-7.5-7.5-7.5s-7.5 3.357-7.5 7.5v8.017a7.5 7.5 0 0 0 7.5 7.5"/><path d="m410.778 405.94-85.473-30.166a8.55 8.55 0 0 1-5.692-8.046V348.04a39.5 39.5 0 0 0 16.547 3.637c21.816 0 39.565-17.749 39.565-39.564 0-.993-.045-1.995-.138-3.034 5.225-5.774 8.153-13.23 8.153-21.015a31.49 31.49 0 0 0-17.776-28.368c.25-1.395.465-2.801.662-4.213h5.607c15.186 0 27.54-12.354 27.54-27.54 0-11.079-6.579-20.644-16.032-25.011v-89.975c14.349-8.203 24.048-23.649 24.048-41.328 0-26.235-21.345-47.58-47.58-47.58h-36.321C312.943 9.246 295.452 0 276.04 0h-40.081c-19.412 0-36.903 9.246-47.848 24.049H151.79c-26.236 0-47.581 21.345-47.581 47.58 0 17.679 9.699 33.126 24.049 41.329v89.975c-9.454 4.367-16.033 13.932-16.033 25.011 0 15.186 12.354 27.54 27.541 27.54h5.607c.197 1.412.412 2.818.662 4.213a31.49 31.49 0 0 0-17.776 28.368c0 7.783 2.93 15.24 8.153 21.015a34 34 0 0 0-.137 3.034c0 21.815 17.749 39.564 39.564 39.564a39.6 39.6 0 0 0 16.548-3.637v19.688a8.55 8.55 0 0 1-5.693 8.046l-85.472 30.166c-22.187 7.83-37.093 28.899-37.093 52.427V504.5c0 4.143 3.358 7.5 7.5 7.5s7.5-3.357 7.5-7.5v-46.133c0-4.992.925-9.83 2.626-14.326l37.925 32.508a24.54 24.54 0 0 1 8.578 18.65v9.301c0 4.143 3.358 7.5 7.5 7.5s7.5-3.357 7.5-7.5v-9.301a39.52 39.52 0 0 0-13.816-30.039l-39.755-34.076a40.5 40.5 0 0 1 16.528-10.999l61.794-21.809c16.227 20.523 50.058 33.563 88.038 33.563 14.047 0 27.554-1.808 39.825-5.12l1.547 1.547c4.64 4.641 7.195 10.81 7.195 17.371V504.5c0 4.143 3.357 7.5 7.5 7.5s7.5-3.357 7.5-7.5v-58.863c0-8.865-2.906-17.279-8.251-24.175 13.796-5.744 25.152-13.652 32.692-23.164l61.732 21.787a40.5 40.5 0 0 1 16.527 10.999l-39.753 34.076a39.52 39.52 0 0 0-13.817 30.04v9.301c0 4.143 3.357 7.5 7.5 7.5s7.5-3.357 7.5-7.5V495.2a24.53 24.53 0 0 1 8.578-18.65l37.924-32.508a40.4 40.4 0 0 1 2.626 14.326V504.5c0 4.143 3.357 7.5 7.5 7.5s7.5-3.357 7.5-7.5v-46.133c-.001-23.527-14.907-44.596-37.094-52.427m-42.037-117.876c0 4.789-2.165 9.366-5.94 12.56a7.5 7.5 0 0 0-2.535 7.071c.313 1.721.46 3.125.46 4.418 0 13.545-11.02 24.564-24.565 24.564a24.58 24.58 0 0 1-15.601-5.592c19.277-13.698 34.033-33.355 41.575-56.259a16.54 16.54 0 0 1 6.606 13.238m-17.063-104.725h17.064v17.064h-.489a16.48 16.48 0 0 1-11.719-4.851 16.42 16.42 0 0 1-4.856-11.697zM151.79 119.21c4.142 0 7.5-3.357 7.5-7.5s-3.358-7.5-7.5-7.5c-17.965 0-32.581-14.616-32.581-32.581s14.616-32.58 32.581-32.58h28.264a61 61 0 0 0-2.047 6.806 7.5 7.5 0 0 0 14.596 3.453C197.383 29.108 215.212 15 235.959 15h40.081c20.748 0 38.577 14.108 43.356 34.309a7.503 7.503 0 0 0 9.026 5.571 7.5 7.5 0 0 0 5.571-9.026 61 61 0 0 0-2.047-6.805h28.263c17.965 0 32.58 14.615 32.58 32.58s-14.615 32.581-32.58 32.581c-4.143 0-7.5 3.357-7.5 7.5s3.357 7.5 7.5 7.5c2.914 0 5.762-.277 8.532-.781v17.846h-24.566c-4.143 0-7.5 3.357-7.5 7.5s3.357 7.5 7.5 7.5h24.566v17.064H143.258v-17.064h168.851c4.143 0 7.5-3.357 7.5-7.5s-3.357-7.5-7.5-7.5H143.258v-17.846c2.771.504 5.619.781 8.532.781m8.533 64.129v.517c0 4.417-1.725 8.571-4.856 11.697a16.48 16.48 0 0 1-11.719 4.851h-.489V183.34h17.064zm-20.557 57.144c-6.915 0-12.541-5.625-12.541-12.54s5.625-12.54 12.541-12.54h3.982c8.425 0 16.351-3.28 22.316-9.235 5.97-5.961 9.258-13.885 9.258-22.313v-.517h161.355v.517c0 8.428 3.288 16.352 9.258 22.313 5.966 5.956 13.893 9.236 22.318 9.235h3.98c6.915 0 12.54 5.625 12.54 12.54s-5.625 12.54-12.54 12.54h-4.531c.001-.172.007-.343.007-.516 0-4.143-3.357-7.5-7.5-7.5s-7.5 3.357-7.5 7.5c0 53.326-43.384 96.71-96.71 96.71s-96.709-43.384-96.709-96.71c0-4.143-3.358-7.5-7.5-7.5s-7.5 3.357-7.5 7.5c0 .172.006.344.007.516zm11.509 71.63c0-1.293.146-2.697.459-4.42a7.5 7.5 0 0 0-2.535-7.068c-3.775-3.194-5.94-7.772-5.94-12.561a16.54 16.54 0 0 1 6.608-13.238c7.542 22.904 22.298 42.561 41.574 56.259a24.6 24.6 0 0 1-15.602 5.592c-13.545.001-24.564-11.019-24.564-24.564m104.771 104.726c-30.406 0-58.226-9.378-72.785-23.946l8.426-2.974c7.057-2.491 12.372-8.146 14.579-15.029 2.47.911 4.958 1.766 7.46 2.535a7.503 7.503 0 0 0 9.372-4.968 7.5 7.5 0 0 0-4.967-9.372 128 128 0 0 1-10.743-3.844v-18.708c14.705 7.137 31.199 11.145 48.613 11.145s33.908-4.008 48.613-11.145v18.709c-15.416 6.3-31.744 9.5-48.613 9.5-2.526 0-5.079-.074-7.587-.22-4.125-.246-7.681 2.917-7.922 7.052a7.5 7.5 0 0 0 7.052 7.923c2.797.163 5.643.245 8.458.245 17.181 0 33.864-2.978 49.737-8.844 2.208 6.879 7.523 12.531 14.577 15.021l8.48 2.993c-14.594 14.54-42.487 23.927-72.75 23.927"/></svg>