<svg xmlns="http://www.w3.org/2000/svg" xml:space="preserve" viewBox="0 0 512 512"><path d="M256 7.5c-54.57 0-100.183 34.223-112.225 80.161h224.451C356.183 41.723 310.57 7.5 256 7.5" style="fill:#dc4655"/><path d="M401.995 318.767c-11.284-17.138-10.427-27.978-10.868-47.131-.836-36.419-16.3-38.026-20.897-63.734H141.77c-4.598 25.707-20.062 27.314-20.898 63.734-.44 19.153.418 29.992-10.867 47.131-17.015 25.84-4.634 46.452-4.634 46.452h301.258s12.38-20.612-4.634-46.452" style="fill:#8c5f4b"/><path d="m413.861 366.086-125.797-37.942h-64.129L98.139 366.086c-20.469 6.02-34.525 24.806-34.525 46.143v92.27h384.773v-92.27c0-21.336-14.056-40.122-34.526-46.143" style="fill:#a5cdff"/><path d="m363.807 350.99-75.743-22.845h-64.129l-75.743 22.845c13.739 47.911 58.051 81.364 107.807 81.364s94.07-33.453 107.808-81.364" style="fill:#8cb4eb"/><path d="M135.758 504.499h40.081V342.651l-40.081 12.089zM376.242 504.499h-40.081V342.651l40.081 12.089z" style="fill:#e6646e"/><path d="M372.234 175.838H360.21v-56.113H151.791v56.113h-12.024c-11.068 0-20.04 8.972-20.04 20.04s8.972 20.04 20.04 20.04h12.429c4.106 53.795 48.958 96.193 103.804 96.193s99.698-42.398 103.804-96.193h12.429c11.068 0 20.04-8.973 20.04-20.04.001-11.068-8.971-20.04-20.039-20.04" style="fill:#f5b97d"/><path d="M151.791 119.726v56.113h-12.024c-11.068 0-20.04 8.972-20.04 20.04s8.972 20.04 20.04 20.04h12.429c2.006 26.285 13.786 49.803 31.659 67.029v-83.061c0-22.136 17.944-40.081 40.081-40.081H360.21v-40.081z" style="fill:#e3aa75"/><path d="m153.756 177.576-17.998 2.223v-44.041h32.064v25.907c.001 8.094-6.033 14.919-14.066 15.911M358.244 177.576l17.998 2.223v-44.041h-32.064v25.907c-.001 8.094 6.033 14.919 14.066 15.911" style="fill:#a06e50"/><path d="M376.242 135.758H135.758a8.016 8.016 0 0 1-8.016-8.016V95.677a8.016 8.016 0 0 1 8.016-8.016h240.483a8.016 8.016 0 0 1 8.016 8.016v32.064a8.015 8.015 0 0 1-8.015 8.017M251.612 7.574l-.348.112C241.08 14.5 232.151 23.21 224.936 33.351c-11.413 16.041-.248 38.278 19.439 38.278h118.059C344.518 32.848 301.487 5.903 251.612 7.574" style="fill:#e6646e"/><path d="M135.758 432.354v72.145H111.71v-48.097c0-13.281 10.767-24.048 24.048-24.048M376.242 432.354v72.145h24.048v-48.097c0-13.281-10.767-24.048-24.048-24.048" style="fill:#8cb4eb"/><path d="m175.839 342.651-6.959 2.099-20.687 6.24c5.234 18.253 14.926 34.385 27.646 47.391zM336.161 342.651l6.959 2.099 20.687 6.24c-5.234 18.253-14.926 34.385-27.646 47.391z" style="fill:#dc4655"/><path d="M320.129 223.935H191.871c-13.282 0-24.048 10.767-24.048 24.048v72.145c0 48.699 39.478 88.177 88.177 88.177s88.177-39.478 88.177-88.177v-72.145c0-13.281-10.767-24.048-24.048-24.048" style="fill:#a06e50"/><path d="M296.081 392.273c-48.699 0-88.177-39.478-88.177-88.177v-80.161h-16.032c-13.282 0-24.048 10.767-24.048 24.048v72.145c0 48.699 39.478 88.177 88.177 88.177 19.362 0 37.208-6.314 51.753-16.893-3.83.509-7.706.861-11.673.861" style="fill:#8c5f4b"/><path d="M207.903 176.354a7.5 7.5 0 0 0-7.5 7.5v8.016c0 4.142 3.357 7.5 7.5 7.5s7.5-3.358 7.5-7.5v-8.016a7.5 7.5 0 0 0-7.5-7.5M304.097 176.354a7.5 7.5 0 0 0-7.5 7.5v8.016c0 4.142 3.357 7.5 7.5 7.5s7.5-3.358 7.5-7.5v-8.016a7.5 7.5 0 0 0-7.5-7.5M274.78 250.661c-2.737 2.701-9.298 5.854-18.78 5.854s-16.043-3.154-18.78-5.854a7.5 7.5 0 0 0-10.535 10.677c6.458 6.373 17.417 10.178 29.315 10.178s22.857-3.805 29.315-10.178a7.5 7.5 0 0 0 .071-10.606 7.5 7.5 0 0 0-10.606-.071"/><path d="M416.268 358.983c3.006-8.937 5.097-25.087-8.195-43.474-8.925-12.347-9.067-19.676-9.352-34.279a756 756 0 0 0-.095-4.444c-.541-21.448-6.906-31.407-12.521-40.194-2.906-4.548-5.497-8.613-7.269-14.216 11.079-3.029 19.663-12.351 20.797-23.684.778-7.771-1.764-15.53-6.974-21.288a27.6 27.6 0 0 0-8.918-6.534v-29.556c4.775-2.649 8.017-7.738 8.017-13.574V95.677c0-8.556-6.961-15.516-15.517-15.516h-2.423c-7.103-21.89-21.612-41.571-41.358-55.88C310.542 8.396 284.103 0 256 0s-54.542 8.396-76.461 24.281c-19.746 14.309-34.254 33.991-41.358 55.88h-2.423c-8.556 0-15.517 6.96-15.517 15.516v32.064c0 5.836 3.242 10.925 8.017 13.574v29.889c-8.631 4.115-14.93 12.266-15.892 21.859-.778 7.771 1.764 15.531 6.975 21.289a27.6 27.6 0 0 0 13.755 8.235c-1.77 5.494-4.331 9.515-7.201 14.005-5.615 8.787-11.98 18.746-12.521 40.194a856 856 0 0 0-.095 4.444c-.284 14.603-.427 21.932-9.352 34.279-13.292 18.387-11.202 34.537-8.195 43.474-23.342 7.007-39.619 28.854-39.619 53.246v92.27a7.5 7.5 0 0 0 7.5 7.5 7.5 7.5 0 0 0 7.5-7.5v-92.27c0-17.885 11.983-33.901 29.142-38.947l28.004-8.236v139.453c0 4.142 3.357 7.5 7.5 7.5s7.5-3.358 7.5-7.5V360.634l23.192-6.821a95 95 0 0 0 1.888 4.629v146.057c0 4.142 3.357 7.5 7.5 7.5s7.5-3.358 7.5-7.5V382.301c17.562 20.495 43.619 33.505 72.661 33.505 40.906 0 75.893-25.807 89.549-61.993l23.19 6.821V504.5c0 4.142 3.357 7.5 7.5 7.5s7.5-3.358 7.5-7.5V365.045l28.006 8.237c17.158 5.046 29.142 21.062 29.142 38.947v92.27c0 4.142 3.357 7.5 7.5 7.5s7.5-3.358 7.5-7.5v-92.27c0-24.392-16.278-46.239-39.619-53.246m-64.591-215.725h17.064v25.081h-8.532c-4.705 0-8.532-3.828-8.532-8.532zM135.242 95.677c0-.285.231-.516.517-.516h176.354c4.143 0 7.5-3.358 7.5-7.5s-3.357-7.5-7.5-7.5H154.097c6.589-17.027 18.483-32.313 34.243-43.735C207.684 22.409 231.08 15 256 15s48.316 7.409 67.659 21.427c15.76 11.421 27.655 26.708 34.243 43.735h-13.728c-4.143 0-7.5 3.358-7.5 7.5s3.357 7.5 7.5 7.5h32.066c.285 0 .517.231.517.516v32.064a.516.516 0 0 1-.517.516H135.759a.517.517 0 0 1-.517-.516zm25.081 47.581v16.548c0 4.705-3.827 8.532-8.532 8.532h-8.532v-25.08zm-33.03 51.301c.63-6.292 6.611-11.22 13.617-11.22h10.881c12.976 0 23.532-10.557 23.532-23.532v-16.548h161.354v16.548c0 12.976 10.557 23.532 23.532 23.532h12.024c3.537 0 6.928 1.506 9.304 4.131 2.406 2.659 3.532 6.115 3.17 9.729-.63 6.292-6.61 11.221-13.616 11.221h-3.386v-.439a7.5 7.5 0 0 0-7.497-7.5h-.003a7.5 7.5 0 0 0-7.5 7.495 96.9 96.9 0 0 1-3.848 26.997c-4.966-10.92-15.971-18.536-28.728-18.536H191.871c-12.759 0-23.765 7.618-28.73 18.541a96.9 96.9 0 0 1-3.85-27.073c0-4.142-3.357-7.5-7.5-7.5s-7.5 3.358-7.5 7.5v.516h-4.524a12.57 12.57 0 0 1-9.303-4.131c-2.407-2.662-3.533-6.117-3.171-9.731m-17.206 160.195c-1.943-5.366-3.929-16.727 5.997-30.457 11.675-16.15 11.892-27.318 12.192-42.775.027-1.401.056-2.851.094-4.358.435-17.27 4.943-24.325 10.165-32.495 2.692-4.213 5.629-8.812 7.918-14.856a111.1 111.1 0 0 0 13.87 35.766v54.549c0 6.601.672 13.048 1.951 19.277zM256 400.805c-44.485 0-80.677-36.192-80.677-80.677v-72.145c0-9.125 7.424-16.548 16.548-16.548h128.258c9.124 0 16.548 7.423 16.548 16.548v72.145c0 44.486-36.192 80.677-80.677 80.677m95.677-80.677v-54.553a111.2 111.2 0 0 0 13.868-35.768c2.289 6.048 5.227 10.648 7.92 14.863 5.222 8.169 9.73 15.225 10.165 32.495.038 1.507.066 2.957.094 4.358.301 15.457.518 26.625 12.192 42.775 9.888 13.678 7.911 25.064 5.978 30.452l-52.169-15.344a95.7 95.7 0 0 0 1.952-19.278"/><path d="M336.161 400.808a7.5 7.5 0 0 0-7.5 7.5v96.191c0 4.142 3.357 7.5 7.5 7.5s7.5-3.358 7.5-7.5v-96.191a7.5 7.5 0 0 0-7.5-7.5M199.883 171.65a7.5 7.5 0 0 0 1.966-.263l16.032-4.342a7.5 7.5 0 0 0-3.922-14.479l-16.032 4.342a7.502 7.502 0 0 0 1.956 14.742M294.119 167.045l16.032 4.342a7.5 7.5 0 0 0 1.966.263 7.5 7.5 0 0 0 1.956-14.741l-16.032-4.342a7.5 7.5 0 0 0-3.922 14.478"/></svg>