<svg xmlns="http://www.w3.org/2000/svg" xml:space="preserve" viewBox="0 0 512 512"><path d="M360.21 239.967H151.791c0 61.724-32.065 96.995-16.032 176.355h240.484c16.031-79.359-16.033-114.63-16.033-176.355" style="fill:#b67f5f"/><path d="M256 239.967H151.79c0 61.724-32.065 96.995-16.032 176.355H256z" style="fill:#a06e50"/><path d="m408.283 421.029-82.792-29.221a32.065 32.065 0 0 1-21.393-30.237v-49.459h-96.194v49.459a32.06 32.06 0 0 1-21.393 30.236l-82.793 29.221c-19.229 6.787-32.089 24.962-32.089 45.354V504.5H440.37v-38.116c.001-20.392-12.858-38.568-32.087-45.355" style="fill:#f7d291"/><path d="m408.283 421.029-80.651-28.466c-4.125 35.926-34.6 63.839-71.631 63.839s-67.506-27.913-71.631-63.839l-80.651 28.465c-19.23 6.787-32.089 24.962-32.089 45.354V504.5h368.742v-38.116c-.001-20.392-12.86-38.568-32.089-45.355" style="fill:#edebed"/><path d="M207.904 358.306c14.753 6.391 31.02 9.92 48.097 9.92s33.344-3.529 48.097-9.92v-38.177h-96.194z" style="fill:#f0c382"/><path d="M256 344.177c-57.554 0-104.21-46.656-104.21-104.21V127.742h208.42v112.226c0 57.553-46.657 104.209-104.21 104.209" style="fill:#ffe1a0"/><path d="M151.79 127.742v112.226c0 57.553 46.656 104.21 104.21 104.21 5.466 0 10.793-.547 16.032-1.359-49.921-7.729-88.177-50.764-88.177-102.851v-27.417c0-2.464.284-4.874.824-7.196 1.93-8.296 9.742-13.344 18.198-14.377a23 23 0 0 0 3.414-.68c22.334-6.169 41.764-13.026 58.172-20.51 1.057 12.306 11.382 21.966 23.962 21.966 1.174 0 29.058-.102 58.54-9.01 5.184-1.567 9.378-4.775 12.353-8.83l.892-1.983v-44.188z" style="fill:#f7d291"/><path d="m304.089 360.21.008.002v-.26zM207.904 359.952v.26l.007-.002z" style="fill:#ffd164"/><path d="M250.189 39.702c-64.674 3.045-114.43 58.756-114.43 123.501v36.684h16.032v-7.279c0-7.292 4.883-13.669 11.941-15.498 31.404-8.138 81.984-23.036 112.7-41.325 5.308-3.161 11.992.744 11.992 6.922v16.63c0 4.634 3.875 8.32 8.498 8.006 9.59-.652 26.079-2.482 43.081-7.619 9.257-2.797 20.208 8.099 20.208 19.673v20.49h16.032v-40.081c-.001-68.335-57.005-123.356-126.054-120.104" style="fill:#a06e50"/><path d="M250.189 39.702c-17.903.843-34.592 5.837-49.469 13.826 2.794 23.881 13.031 63.005 47.961 95.95 10.149-4.29 19.651-8.87 27.752-13.694 5.308-3.161 11.992.745 11.992 6.923v16.63c0 4.633 3.875 8.32 8.498 8.006 9.59-.652 26.079-2.482 43.081-7.619 9.257-2.797 20.208 8.099 20.208 19.673v20.49h16.032v-40.081c-.002-68.335-57.006-123.356-126.055-120.104" style="fill:#b67f5f"/><path d="M127.743 247.984h24.048v-64.129h-24.048c-8.854 0-16.032 7.178-16.032 16.032v32.065c0 8.854 7.178 16.032 16.032 16.032M384.258 247.984H360.21v-64.129h24.048c8.854 0 16.032 7.178 16.032 16.032v32.065c0 8.854-7.178 16.032-16.032 16.032" style="fill:#6e5a64"/><path d="M161.312 400.702c7.815 45.275 47.181 79.749 94.689 79.749 47.509 0 86.874-34.474 94.689-79.75l-23.058-8.138c-4.125 35.926-34.599 63.839-71.63 63.839s-67.506-27.913-71.63-63.839z" style="fill:#dbd9dc"/><path d="M275.141 274.71c-2.738 2.7-9.3 5.854-18.782 5.854s-16.043-3.153-18.78-5.854a7.5 7.5 0 0 0-10.535 10.677c6.458 6.372 17.418 10.177 29.315 10.177s22.856-3.805 29.315-10.177a7.5 7.5 0 0 0 .072-10.605 7.496 7.496 0 0 0-10.605-.072M208.262 216.316a7.5 7.5 0 0 0-7.5 7.5v8.017c0 4.143 3.357 7.5 7.5 7.5s7.5-3.357 7.5-7.5v-8.017a7.5 7.5 0 0 0-7.5-7.5M304.455 216.316a7.5 7.5 0 0 0-7.5 7.5v8.017c0 4.143 3.357 7.5 7.5 7.5s7.5-3.357 7.5-7.5v-8.017a7.5 7.5 0 0 0-7.5-7.5M216.279 192.269h-16.032c-4.143 0-7.5 3.357-7.5 7.5s3.357 7.5 7.5 7.5h16.032c4.143 0 7.5-3.357 7.5-7.5s-3.357-7.5-7.5-7.5M312.472 192.269H296.44c-4.143 0-7.5 3.357-7.5 7.5s3.357 7.5 7.5 7.5h16.032c4.143 0 7.5-3.357 7.5-7.5s-3.357-7.5-7.5-7.5"/><path d="m410.779 413.957-26.133-9.223c8.367-42.541.509-71.46-7.11-99.455-4.445-16.331-8.669-31.868-9.622-49.795h16.345c12.976 0 23.532-10.557 23.532-23.532V151.79C407.79 68.093 339.697 0 256 0S104.21 68.093 104.21 151.79V256c0 17.396 14.152 31.549 31.548 31.549h3.338c-1.416 5.907-3.008 11.765-4.631 17.729-7.619 27.995-15.478 56.915-7.11 99.455l-26.133 9.223c-22.187 7.83-37.093 28.899-37.093 52.427V504.5c0 4.143 3.357 7.5 7.5 7.5s7.5-3.357 7.5-7.5v-38.116a40.5 40.5 0 0 1 5.477-20.325l35.432 30.371a24.54 24.54 0 0 1 8.578 18.65v9.301c0 4.143 3.357 7.5 7.5 7.5s7.5-3.357 7.5-7.5v-9.301a39.52 39.52 0 0 0-13.816-30.039l-35.415-30.357a40.5 40.5 0 0 1 11.829-6.583l72.278-25.51c8.362 35.468 40.34 61.311 77.508 61.311 12.693 0 25.323-3.062 36.526-8.854a7.5 7.5 0 0 0 3.218-10.106c-1.903-3.68-6.432-5.12-10.106-3.218-9.213 4.763-19.185 7.178-29.638 7.178-30.793 0-57.192-21.848-63.302-51.547 13.726-6.47 22.705-20.383 22.705-35.784V343.75a108.1 108.1 0 0 0 35.564 7.799q2.737.129 5.455.129c13.957 0 27.516-2.543 40.174-7.426v17.319c0 15.405 8.984 29.323 22.718 35.79a64.6 64.6 0 0 1-11.414 25.444 7.5 7.5 0 1 0 12.035 8.953 79.7 79.7 0 0 0 13.579-29.166l72.271 25.507a40.5 40.5 0 0 1 12.202 6.878l-35.071 30.061a39.52 39.52 0 0 0-13.816 30.039v9.301c0 4.143 3.357 7.5 7.5 7.5s7.5-3.357 7.5-7.5v-9.301c0-7.18 3.127-13.978 8.578-18.65l34.951-29.959a40.5 40.5 0 0 1 5.241 19.913V504.5c0 4.143 3.357 7.5 7.5 7.5s7.5-3.357 7.5-7.5v-38.116c.001-23.528-14.905-44.597-37.091-52.427M392.79 231.951c0 4.705-3.827 8.532-8.532 8.532h-16.196c.001-.172.006-.343.006-.516v-48.613h16.189c4.705 0 8.532 3.827 8.532 8.532zM119.211 151.79C119.211 76.363 180.574 15 256 15s136.79 61.363 136.79 136.79v26.172a23.4 23.4 0 0 0-8.532-1.608h-.516v-16.548c0-70.438-57.305-127.742-127.742-127.742S128.258 89.369 128.258 159.807v16.548h-.516c-3.009 0-5.885.574-8.532 1.608zm0 48.097c0-4.705 3.827-8.532 8.532-8.532h16.548v49.129h-16.548c-4.705 0-8.532-3.827-8.532-8.532zm16.547 72.662c-9.125 0-16.548-7.424-16.548-16.549v-2.124a23.4 23.4 0 0 0 8.532 1.608h16.345c-.314 5.911-.99 11.56-1.907 17.065zm64.646 89.023c0 10.396-6.586 19.704-16.389 23.164l-42.357 14.949c-7.022-37.885-.066-63.474 7.281-90.468 1.925-7.073 3.873-14.239 5.554-21.669h1.656a116.2 116.2 0 0 0 19.037 28.11c7.509 8.196 16.003 15.112 25.218 20.624zm51.27-25.005c-24.929-1.175-48.165-12.198-65.427-31.04a101.4 101.4 0 0 1-13.134-17.979h26.46c4.107 0 7.688-3.165 7.811-7.27a7.5 7.5 0 0 0-7.497-7.73h-33.824a101.5 101.5 0 0 1-6.414-35.525v-52.616a713 713 0 0 0 9.502-2c4.006-.876 6.806-4.752 6.042-8.78-.791-4.168-4.854-6.829-8.976-5.933a702 702 0 0 1-22.958 4.629v-11.275c0-62.212 49.872-113.623 112.083-113.98 62.467-.359 113.401 50.355 113.401 112.74v16.548h-.674v-.748c0-7.61-3.419-14.924-9.534-19.454-6.012-4.453-13.555-5.768-20.702-3.608-16.558 5.005-32.79 6.74-41.909 7.342v-32.045c0-2.336-.974-4.618-2.805-6.071a7.506 7.506 0 0 0-9.497.091c-16.838 14.031-46.483 27.181-85.732 38.026a7.501 7.501 0 0 0 3.997 14.459c33.723-9.319 60.219-20.071 79.038-32.055v25.412c0 4.143 3.357 7.5 7.5 7.5 1.073 0 26.594-.095 53.749-8.301 2.563-.776 5.278-.299 7.443 1.309l.045.034c1.981 1.492 3.049 3.907 3.049 6.387v73.35q.002.149.004.297c-1.975 23.513-12.309 45.167-29.611 61.672-19.31 18.422-44.669 27.874-71.43 26.614m118.668 63.119-42.357-14.949c-9.803-3.46-16.389-12.769-16.389-23.164v-24.447a112.6 112.6 0 0 0 21.861-16.319c10.175-9.707 18.259-20.96 24.051-33.25 1.68 7.427 3.628 14.591 5.552 21.662 7.348 26.993 14.305 52.582 7.282 90.467"/></svg>