<svg xmlns="http://www.w3.org/2000/svg" xml:space="preserve" viewBox="0 0 512 512"><path d="m413.862 374.103-84.486-24.849a24.05 24.05 0 0 1-17.263-23.071v-38.119H199.888v38.119a24.05 24.05 0 0 1-17.263 23.071l-84.486 24.849c-20.469 6.02-34.525 24.806-34.525 46.142v84.254h384.773v-84.254c.001-21.336-14.056-40.122-34.525-46.142" style="fill:#d29b6e"/><path d="m413.862 374.102-84.486-24.849c-5.342-1.572-9.775-4.905-12.826-9.228l-60.549 20.184-60.549-20.183c-3.052 4.323-7.484 7.656-12.826 9.228L98.14 374.103c-20.469 6.02-34.525 24.806-34.525 46.142v84.254h384.773v-84.254c0-21.337-14.057-40.122-34.526-46.143" style="fill:#6e5a64"/><path d="m141.541 361.338 3.954 3.389 50.2 43.028a40.1 40.1 0 0 0 26.074 9.649c12.25 0 23.661-5.483 31.308-15.044l2.925-3.655 2.925 3.656c7.648 9.56 19.06 15.043 31.308 15.043a40.1 40.1 0 0 0 26.074-9.649l50.2-43.029 3.954-3.389-41.085-12.084c-5.343-1.572-9.776-4.905-12.827-9.228l-60.55 20.184-60.549-20.183c-3.051 4.323-7.484 7.656-12.827 9.228z" style="fill:#5a4650"/><path d="M372.235 167.822h-12.024v-40.081H151.792v40.081h-12.024c-11.068 0-20.04 8.972-20.04 20.04s8.972 20.04 20.04 20.04h12.024c0 57.553 46.656 104.209 104.209 104.209S360.21 265.455 360.21 207.902h12.024c11.068 0 20.04-8.973 20.04-20.04.001-11.068-8.971-20.04-20.039-20.04" style="fill:#f5b97d"/><path d="M183.856 207.903v-43.236h160.322v-36.925H151.792v40.081h-11.544c-10.462 0-19.536 7.823-20.443 18.246-1.033 11.876 8.301 21.835 19.962 21.835h12.024c0 57.553 46.656 104.209 104.209 104.209 5.466 0 10.793-.547 16.032-1.359-49.919-7.73-88.176-50.765-88.176-102.851" style="fill:#e3aa75"/><path d="M256.001 231.951c-42.969 0-80.905-9.277-104.18-23.468.317 57.283 46.823 103.629 104.18 103.629s103.863-46.346 104.18-103.629c-23.275 14.191-61.211 23.468-104.18 23.468M135.761 127.74h32.06v40.08h-32.06zM344.181 127.74h32.06v40.08h-32.06z" style="fill:#b7b2b8"/><path d="m256.001 360.209-64.826-36.015c-3.989-2.216-9.022-.66-11.063 3.422l-10.609 21.217a4.81 4.81 0 0 0 1.172 5.803l40.669 34.859c6.884 5.901 17.288 4.923 22.953-2.157zM256.001 360.209l64.826-36.015c3.99-2.216 9.022-.66 11.063 3.422l10.609 21.217a4.81 4.81 0 0 1-1.172 5.803l-40.669 34.859c-6.884 5.901-17.288 4.923-22.953-2.157z" style="fill:#6e5a64"/><path d="M353.699 43.204C348.084 22.15 329.017 7.5 307.226 7.5h-102.45c-21.79 0-40.858 14.65-46.473 35.704l-22.543 84.538h240.483z" style="fill:#b67f5f"/><path d="M272.033 264.531h-32.064c-8.854 0-16.032-7.178-16.032-16.032v-24.564h64.129v24.564c-.001 8.854-7.178 16.032-16.033 16.032" style="fill:#aea8af"/><path d="M236.84 7.5h-32.064c-21.79 0-40.858 14.65-46.473 35.704l-22.543 84.538h32.064l22.543-84.538C195.982 22.15 215.05 7.5 236.84 7.5" style="fill:#a06e50"/><path d="M137.897 119.726h236.208l-6.413-24.049H144.31z" style="fill:#6e5a64"/><path d="M137.897 119.726h32.064l6.413-24.049H144.31z" style="fill:#5a4650"/><path d="M135.759 504.499h32.065V353.607l-32.065 9.431zM376.243 504.499h-32.065V353.607l32.065 9.431z" style="fill:#b67f5f"/><path d="M135.759 432.354v72.145h-24.048v-48.097c0-13.281 10.767-24.048 24.048-24.048M376.243 432.354v72.145h24.048v-48.097c0-13.281-10.767-24.048-24.048-24.048" style="fill:#5a4650"/><path d="M256.001 223.935h-24.048c-13.282 0-24.048 10.767-24.048 24.048h24.048c13.281 0 24.048-10.767 24.048-24.048M256.001 223.935h24.048c13.282 0 24.048 10.767 24.048 24.048h-24.048c-13.281 0-24.048-10.767-24.048-24.048" style="fill:#c9c6ca"/><path d="M184.979 222.487c-12.867-3.77-24.136-8.504-33.158-14.004v.002c.018 3.288.176 6.542.493 9.751q.016.214.032.43c5.389 52.495 49.737 93.446 103.655 93.446 5.466 0 10.793-.547 16.032-1.359-45.165-6.993-80.678-42.918-87.054-88.266" style="fill:#aea8af"/><path d="M256.081 496.999h-.08c-4.142 0-7.46 3.357-7.46 7.5s3.398 7.5 7.54 7.5 7.5-3.357 7.5-7.5-3.358-7.5-7.5-7.5"/><path d="m415.979 366.907-65.723-19.33-11.658-23.315a15.59 15.59 0 0 0-9.292-7.884c-3.174-.981-6.585-.887-9.692.192v-16.893c27.116-18.853 45.515-49.397 47.839-84.274h3.639c14.617 0 27.154-10.861 28.542-24.727.778-7.771-1.764-15.53-6.974-21.287a27.6 27.6 0 0 0-8.917-6.533v-27.614h24.564c4.142 0 7.5-3.357 7.5-7.5s-3.358-7.5-7.5-7.5h-26.303l-21.059-78.97C354.466 16.972 332.376 0 307.227 0H204.775c-25.149 0-47.239 16.972-53.719 41.271l-21.059 78.97h-26.303a7.5 7.5 0 0 0-7.5 7.5 7.5 7.5 0 0 0 7.5 7.5h24.564v27.948c-8.63 4.115-14.93 12.266-15.891 21.859-.778 7.771 1.764 15.53 6.974 21.288a27.6 27.6 0 0 0 20.425 9.066h4.781c2.324 34.877 20.723 65.421 47.839 84.274v16.894c-3.108-1.08-6.519-1.174-9.692-.193a15.59 15.59 0 0 0-9.292 7.884l-11.658 23.316-65.723 19.33c-23.498 6.911-39.909 28.845-39.909 53.338v84.254c0 4.143 3.358 7.5 7.5 7.5s7.5-3.357 7.5-7.5v-84.254c0-17.885 11.983-33.9 29.142-38.947l28.003-8.236v131.437c0 4.143 3.358 7.5 7.5 7.5s7.5-3.357 7.5-7.5V368.65l17.064-5.019v140.868c0 4.143 3.358 7.5 7.5 7.5s7.5-3.357 7.5-7.5v-136l31.14 26.691c4.312 3.695 9.66 5.668 15.261 5.668q1.123 0 2.256-.106c6.409-.603 12.152-3.702 16.173-8.728l15.85-19.809 15.848 19.809c4.021 5.025 9.764 8.125 16.173 8.728q1.133.106 2.256.106c5.601 0 10.95-1.973 15.261-5.668l39.2-33.601 24.002 7.059V504.5c0 4.143 3.358 7.5 7.5 7.5s7.5-3.357 7.5-7.5V373.061l28.005 8.237c17.158 5.047 29.142 21.063 29.142 38.947v84.254c0 4.143 3.358 7.5 7.5 7.5s7.5-3.357 7.5-7.5v-84.254c0-24.493-16.411-46.427-39.909-53.338m-80.333-206.585v-.517a7.5 7.5 0 0 0-7.5-7.5h-56.113a7.5 7.5 0 0 0-7.5 7.5v2.124a23.4 23.4 0 0 0-8.532-1.608c-3.009 0-5.885.574-8.532 1.608v-2.124a7.5 7.5 0 0 0-7.5-7.5h-56.113a7.5 7.5 0 0 0-7.5 7.5v.517h-1.032v-25.081h161.354v25.081zm-35.557 23.016a7.5 7.5 0 0 0 7.5-7.5v-8.016c0-.174-.014-.345-.026-.517h13.083v16.549c0 4.705-3.828 8.532-8.532 8.532h-24.048c-4.705 0-8.532-3.827-8.532-8.532v-16.549h13.082c-.012.171-.026.342-.026.517v8.016a7.5 7.5 0 0 0 7.499 7.5m-108.733-16.032h13.083c-.012.171-.026.342-.026.517v8.016c0 4.143 3.358 7.5 7.5 7.5s7.5-3.357 7.5-7.5v-8.016c0-.174-.014-.345-.026-.517h13.082v16.549c0 4.705-3.828 8.532-8.532 8.532h-24.048c-4.705 0-8.532-3.827-8.532-8.532zm160.322-32.065h17.064v25.081h-17.064zM204.775 15h32.449a16.524 16.524 0 0 1 16.054 12.535l3.462 13.849a7.5 7.5 0 0 0 7.27 5.683 7.502 7.502 0 0 0 7.282-9.322l-3.462-13.849A31.6 31.6 0 0 0 264.088 15h43.138c18.364 0 34.494 12.393 39.226 30.137l11.477 43.04h-29.786c-4.142 0-7.5 3.357-7.5 7.5s3.358 7.5 7.5 7.5h33.786l4.551 17.064H145.521l4.551-17.064h146.01c4.142 0 7.5-3.357 7.5-7.5s-3.358-7.5-7.5-7.5h-142.01l11.477-43.04C170.281 27.393 186.412 15 204.775 15m-44.451 120.241v25.081H143.26v-25.081zm-29.86 61.03c-2.406-2.659-3.533-6.115-3.171-9.729.63-6.292 6.612-11.221 13.618-11.221h35.445v8.532c0 12.976 10.557 23.532 23.532 23.532h24.048c12.976 0 23.532-10.557 23.532-23.532 0-4.705 3.828-8.532 8.532-8.532s8.532 3.827 8.532 8.532c0 12.976 10.557 23.532 23.532 23.532h24.048c12.976 0 23.532-10.557 23.532-23.532v-8.532h36.588a12.57 12.57 0 0 1 9.303 4.131c2.407 2.659 3.533 6.114 3.171 9.729-.629 6.292-6.61 11.221-13.616 11.221h-3.381v-.516c0-4.143-3.358-7.5-7.5-7.5s-7.5 3.357-7.5 7.5v4.258c-20.003 14.302-45.465 18.304-52.982 19.206-5.4-4.323-12.24-6.916-19.679-6.916h-48.097c-7.441 0-14.283 2.595-19.683 6.92-7.5-.886-32.9-4.841-52.978-19.208v-4.26c0-4.143-3.358-7.5-7.5-7.5s-7.5 3.357-7.5 7.5v.516h-4.524a12.57 12.57 0 0 1-9.302-4.131m164.335 44.212h-14.75c-6.427 0-12.01-3.683-14.75-9.049h14.75c6.427.001 12.01 3.683 14.75 9.049m-62.846-9.048h14.75c-2.74 5.366-8.323 9.049-14.75 9.049h-14.75c2.74-5.367 8.323-9.049 14.75-9.049m-71.554-8.887c15.448 8.56 31.606 12.616 41.967 14.485a31.4 31.4 0 0 0-1.962 10.95 7.5 7.5 0 0 0 7.5 7.5h24.048c9.628 0 18.257-4.34 24.048-11.161 5.791 6.821 14.42 11.161 24.048 11.161h24.048a7.5 7.5 0 0 0 7.5-7.5c0-3.849-.695-7.537-1.962-10.95 10.361-1.869 26.519-5.925 41.967-14.485-7.079 46.401-47.254 82.064-95.602 82.064s-88.521-35.662-95.6-82.064m95.602 97.064c17.413 0 33.908-4.007 48.613-11.145v16.154l-48.613 27.008-48.613-27.006v-16.155c14.705 7.137 31.2 11.144 48.613 11.144m-27.561 63.041a8.47 8.47 0 0 1-5.864 3.165 8.48 8.48 0 0 1-6.352-2.017l-39.074-33.493 9.669-19.338a.5.5 0 0 1 .309-.263.5.5 0 0 1 .403.043l57.067 31.704zm67.337 1.149a8.47 8.47 0 0 1-6.352 2.017 8.47 8.47 0 0 1-5.864-3.165l-16.159-20.198 57.067-31.705c.048-.025.195-.105.403-.042a.5.5 0 0 1 .309.263l9.669 19.338z"/><path d="M344.176 384.773a7.5 7.5 0 0 0-7.5 7.5V504.5c0 4.143 3.358 7.5 7.5 7.5s7.5-3.357 7.5-7.5V392.273a7.5 7.5 0 0 0-7.5-7.5M256.081 400.806h-.08c-4.142 0-7.46 3.357-7.46 7.5s3.398 7.5 7.54 7.5 7.5-3.357 7.5-7.5-3.358-7.5-7.5-7.5M256.081 448.902h-.08c-4.142 0-7.46 3.357-7.46 7.5s3.398 7.5 7.54 7.5 7.5-3.357 7.5-7.5-3.358-7.5-7.5-7.5M271.517 272.031a7.5 7.5 0 0 0-7.5-7.5h-16.032c-4.142 0-7.5 3.357-7.5 7.5s3.358 7.5 7.5 7.5h16.032a7.5 7.5 0 0 0 7.5-7.5"/></svg>