<svg xmlns="http://www.w3.org/2000/svg" xml:space="preserve" viewBox="0 0 512.002 512.002"><path d="m413.863 374.103-84.486-24.849c-5.342-1.572-9.775-4.905-12.826-9.228H195.452c-3.052 4.323-7.484 7.657-12.826 9.228L98.14 374.103c-20.469 6.02-34.525 24.806-34.525 46.142V504.5h384.774v-84.254c0-21.337-14.057-40.122-34.526-46.143" style="fill:#a06e50"/><path d="M256.001 424.339c-47.652 0-87.104 34.684-94.751 80.161h189.502c-7.646-45.478-47.099-80.161-94.751-80.161" style="fill:#e3aa75"/><path d="M256.001 376.242c32.225 0 62.552-8.107 89.077-22.37l-15.701-4.618c-5.343-1.572-9.776-4.905-12.827-9.228H195.452c-3.051 4.323-7.484 7.657-12.827 9.228l-15.701 4.618c26.526 14.263 56.852 22.37 89.077 22.37" style="fill:#8c5f4b"/><circle cx="376.241" cy="55.6" r="48.1" style="fill:#b67f5f"/><circle cx="376.241" cy="55.6" r="16" style="fill:#6e5a64"/><circle cx="135.761" cy="55.6" r="48.1" style="fill:#b67f5f"/><circle cx="135.761" cy="55.6" r="16" style="fill:#6e5a64"/><circle cx="256.001" cy="187.86" r="164.33" style="fill:#b67f5f"/><circle cx="256.001" cy="199.89" r="104.21" style="fill:#f5b97d"/><path d="M183.856 199.887c0-52.087 38.256-95.122 88.177-102.851-5.24-.811-10.566-1.359-16.032-1.359-57.553 0-104.21 46.656-104.21 104.21s46.656 104.21 104.21 104.21c5.467 0 10.793-.547 16.032-1.359-49.921-7.729-88.177-50.764-88.177-102.851" style="fill:#e3aa75"/><path d="M219.929 227.915c0 17.708 16.15 32.064 36.073 32.064s36.073-14.356 36.073-32.064z" style="fill:#fff"/><path d="M278.046 330.149c-90.757 0-164.331-73.573-164.331-164.331 0-39.765 14.13-76.227 37.635-104.651-36.449 30.142-59.679 75.704-59.679 126.696 0 90.757 73.573 164.331 164.331 164.331 50.992 0 96.554-23.23 126.695-59.68-28.425 23.505-64.886 37.635-104.651 37.635M272.034 119.726h-32.065c-13.282 0-24.048-10.767-24.048-24.048 0-13.282 10.767-24.048 24.048-24.048h32.065c13.282 0 24.048 10.767 24.048 24.048s-10.767 24.048-24.048 24.048" style="fill:#a06e50"/><circle cx="256.001" cy="71.63" r="16.03" style="fill:#5a4650"/><path d="M207.905 199.371a7.5 7.5 0 0 0 7.5-7.5v-8.017c0-4.143-3.358-7.5-7.5-7.5s-7.5 3.357-7.5 7.5v8.017a7.5 7.5 0 0 0 7.5 7.5M311.598 191.871v-8.017c0-4.143-3.358-7.5-7.5-7.5s-7.5 3.357-7.5 7.5v8.017c0 4.143 3.358 7.5 7.5 7.5s7.5-3.357 7.5-7.5"/><path d="m415.98 366.908-84.316-24.799c56.912-28.03 96.168-86.636 96.168-154.246 0-30.854-8.18-59.83-22.476-84.886a55.5 55.5 0 0 0 26.484-47.381C431.84 24.94 406.899 0 376.243 0c-21.331 0-40.662 12.266-49.916 31.093-21.477-9.672-45.283-15.061-70.326-15.061s-48.849 5.388-70.326 15.061C176.422 12.266 157.091 0 135.76 0c-30.656 0-55.597 24.94-55.597 55.597a55.5 55.5 0 0 0 26.484 47.381c-14.296 25.055-22.476 54.032-22.476 84.885 0 67.61 39.257 126.216 96.168 154.246l-84.316 24.799c-23.498 6.911-39.909 28.845-39.909 53.338V504.5c0 4.143 3.358 7.5 7.5 7.5s7.5-3.357 7.5-7.5v-84.254c0-17.885 11.983-33.9 29.142-38.947l84.487-24.849a31.4 31.4 0 0 0 12.517-7.102c18.336 6.69 38.119 10.345 58.741 10.345s40.406-3.655 58.741-10.345a31.4 31.4 0 0 0 12.518 7.102l84.486 24.849c17.158 5.047 29.142 21.063 29.142 38.947V504.5c0 4.143 3.358 7.5 7.5 7.5s7.5-3.357 7.5-7.5v-84.254c.001-24.493-16.41-46.427-39.908-53.338M376.243 15c22.385 0 40.597 18.212 40.597 40.597a40.53 40.53 0 0 1-19.484 34.689 173 173 0 0 0-10.523-13.685c7.67-3.883 12.943-11.837 12.943-21.005 0-12.976-10.557-23.532-23.533-23.532-9.954 0-18.478 6.216-21.911 14.967a172 172 0 0 0-14.612-9.176C346.448 24.023 360.608 15 376.243 15m-8.532 40.597c0-4.705 3.828-8.532 8.532-8.532s8.533 3.827 8.533 8.532-3.828 8.532-8.533 8.532a9 9 0 0 1-1.241-.099 174 174 0 0 0-7.028-6.397 8.6 8.6 0 0 1-.263-2.036m-272.548 0C95.163 33.212 113.375 15 135.76 15c15.635 0 29.795 9.023 36.523 22.855a172 172 0 0 0-14.612 9.176c-3.433-8.751-11.957-14.967-21.911-14.967-12.976 0-23.533 10.557-23.533 23.532 0 9.168 5.273 17.122 12.943 21.005a173 173 0 0 0-10.523 13.685 40.53 40.53 0 0 1-19.484-34.689m48.866 2.036a173 173 0 0 0-7.028 6.397 9 9 0 0 1-1.241.099c-4.705 0-8.533-3.827-8.533-8.532s3.828-8.532 8.533-8.532 8.532 3.827 8.532 8.532a8.6 8.6 0 0 1-.263 2.036m-44.858 130.23c0-86.477 70.354-156.831 156.831-156.831s156.831 70.354 156.831 156.831-70.355 156.83-156.832 156.83-156.83-70.353-156.83-156.83"/><path d="M223.421 159.807a7.5 7.5 0 0 0-7.5-7.5h-16.032c-4.142 0-7.5 3.357-7.5 7.5s3.358 7.5 7.5 7.5h16.032a7.5 7.5 0 0 0 7.5-7.5M319.614 159.807a7.5 7.5 0 0 0-7.5-7.5h-16.032c-4.142 0-7.5 3.357-7.5 7.5s3.358 7.5 7.5 7.5h16.032a7.5 7.5 0 0 0 7.5-7.5M127.743 448.903a7.5 7.5 0 0 0-7.5 7.5V504.5c0 4.143 3.358 7.5 7.5 7.5s7.5-3.357 7.5-7.5v-48.097a7.5 7.5 0 0 0-7.5-7.5M384.26 448.903a7.5 7.5 0 0 0-7.5 7.5V504.5c0 4.143 3.358 7.5 7.5 7.5s7.5-3.357 7.5-7.5v-48.097a7.5 7.5 0 0 0-7.5-7.5M323.255 441.667c-18.71-16.011-42.594-24.828-67.254-24.828s-48.544 8.817-67.254 24.828c-18.483 15.816-30.875 37.689-34.893 61.59a7.5 7.5 0 0 0 6.152 8.64 7.503 7.503 0 0 0 8.64-6.153c7.2-42.823 43.938-73.904 87.355-73.904s80.155 31.081 87.355 73.904a7.503 7.503 0 0 0 8.64 6.154 7.5 7.5 0 0 0 6.152-8.64c-4.018-23.902-16.41-45.775-34.893-61.591M191.873 79.129h.08c4.142 0 7.46-3.357 7.46-7.5s-3.398-7.5-7.54-7.5-7.5 3.357-7.5 7.5 3.357 7.5 7.5 7.5M320.13 79.129h.08c4.142 0 7.46-3.357 7.46-7.5s-3.398-7.5-7.54-7.5-7.5 3.357-7.5 7.5 3.358 7.5 7.5 7.5"/><path d="M159.608 192.797a96.42 96.42 0 0 1 28.009-61.294c7.659-7.658 16.385-13.865 25.983-18.535 5.645 8.579 15.353 14.257 26.369 14.257h32.064c10.978 0 20.66-5.64 26.313-14.171a96.5 96.5 0 0 1 14.615 8.821 7.46 7.46 0 0 0 4.424 1.449 7.499 7.499 0 0 0 4.435-13.552 111.5 111.5 0 0 0-18.4-10.908 32 32 0 0 0 .161-3.187c0-15.173-10.767-27.875-25.062-30.875-2.933-9.657-11.917-16.706-22.519-16.706s-19.586 7.049-22.519 16.706c-14.294 3-25.062 15.702-25.062 30.875q.002 1.546.151 3.055c-11.708 5.474-22.308 12.911-31.561 22.164a111.43 111.43 0 0 0-32.365 70.832c-1.887 26.412 5.657 52.685 21.24 73.979a7.49 7.49 0 0 0 6.058 3.071 7.5 7.5 0 0 0 6.046-11.93c-13.486-18.43-20.014-41.177-18.38-64.051m96.393-129.7c4.705 0 8.532 3.827 8.532 8.532s-3.828 8.532-8.532 8.532-8.532-3.827-8.532-8.532 3.828-8.532 8.532-8.532m-21.899 17.126c3.441 8.736 11.957 14.938 21.9 14.938s18.459-6.202 21.9-14.938c6.233 2.375 10.681 8.398 10.681 15.454 0 9.125-7.423 16.548-16.548 16.548h-32.064c-9.125 0-16.548-7.423-16.548-16.548-.002-7.056 4.446-13.079 10.679-15.454M346.117 134.067a7.5 7.5 0 0 0-12.105 8.859c13.488 18.43 20.017 41.177 18.383 64.05-1.651 23.115-11.598 44.883-28.009 61.294s-38.18 26.359-61.295 28.01c-22.868 1.635-45.62-4.894-64.05-18.383a7.5 7.5 0 0 0-8.858 12.105c19.147 14.013 42.32 21.524 66.001 21.524q3.982 0 7.977-.285a111.43 111.43 0 0 0 70.833-32.364 111.43 111.43 0 0 0 32.365-70.833c1.885-26.411-5.659-52.684-21.242-73.977"/><path d="M256.001 267.479c24.026 0 43.573-17.748 43.573-39.564a7.5 7.5 0 0 0-7.5-7.5h-72.146a7.5 7.5 0 0 0-7.5 7.5c.001 21.816 19.548 39.564 43.573 39.564m27.211-32.064c-3.695 9.889-14.497 17.064-27.211 17.064s-23.516-7.176-27.211-17.064z"/></svg>