<svg xmlns="http://www.w3.org/2000/svg" xml:space="preserve" viewBox="0 0 512 512"><path d="m413.862 387.765-84.486-24.849a24.05 24.05 0 0 1-17.263-23.071v-59.796H199.888v59.796a24.05 24.05 0 0 1-17.263 23.071l-84.486 24.849c-20.469 6.02-34.525 24.806-34.525 46.142V504.5h384.774v-70.593c-.001-21.336-14.057-40.122-34.526-46.142" style="fill:#6e5a64"/><path d="M344.178 294.076H167.823c-26.563 0-48.097 21.534-48.097 48.097 0 53.126 43.067 96.193 96.193 96.193h80.161c53.126 0 96.193-43.068 96.193-96.193.002-26.563-21.532-48.097-48.095-48.097" style="fill:#84737b"/><path d="M342.045 318.125c17.449 0 24.301 22.63 9.782 32.309L256 414.318l-95.827-63.884c-14.518-9.679-7.666-32.309 9.782-32.309z" style="fill:#6e5a64"/><path d="M180.42 363.931 256 414.318l75.581-50.387-2.206-.649a24.05 24.05 0 0 1-17.263-23.072v-52.146H199.888v52.146a24.05 24.05 0 0 1-17.263 23.072z" style="fill:#f7d291"/><path d="M199.888 321.985c16.841 8.996 35.939 14.176 56.113 14.176 20.173 0 39.272-5.18 56.113-14.176v-33.921H199.888z" style="fill:#f0c382"/><path d="M372.234 175.839H360.21V151.79H151.791v24.048h-12.024c-11.068 0-20.04 8.972-20.04 20.04s8.972 20.04 20.04 20.04h12.429c4.106 53.795 48.958 96.193 103.805 96.193s99.699-42.398 103.805-96.193h12.429c11.068 0 20.04-8.973 20.04-20.04s-8.973-20.039-20.041-20.039" style="fill:#ffe1a0"/><path d="M183.855 207.903V151.79h-32.064v24.048h-12.024c-11.022 0-20.04 9.018-20.04 20.04s9.018 20.04 20.04 20.04h12.429c4.106 53.795 48.957 96.193 103.805 96.193 5.483 0 10.83-.534 16.083-1.351-49.947-7.706-88.229-50.753-88.229-102.857" style="fill:#f7d291"/><path d="M256 7.5c-60.958 0-111.195 45.401-119.051 104.21H375.05C367.195 52.901 316.958 7.5 256 7.5" style="fill:#6e5a64"/><circle cx="256" cy="440.37" r="16.03" style="fill:#5a4650"/><path d="M384.258 151.79H127.742v-32.065a8.016 8.016 0 0 1 8.016-8.016h240.484a8.016 8.016 0 0 1 8.016 8.016z" style="fill:#84737b"/><path d="M183.855 111.71h-48.097a8.016 8.016 0 0 0-8.016 8.016v32.065h48.097v-32.065a8.016 8.016 0 0 1 8.016-8.016" style="fill:#6e5a64"/><path d="m376.242 175.839-58.064 40.198c-16.014 11.086-36.84 3.668-43.779-12.472-3.112-7.239-10.498-11.697-18.378-11.7h-.031c-7.886-.003-15.276 4.458-18.393 11.701-6.945 16.134-27.765 23.554-43.774 12.471l-58.064-40.198V151.79h240.484v24.049z" style="fill:#6e5a64"/><path d="M127.793 175.839h256.416c.004-.196.05-.379.05-.576V151.79H127.742v23.472c0 .197.047.381.051.577" style="fill:#5a4650"/><path d="m415.978 382.94-21.414-6.298a103.3 103.3 0 0 0 5.211-32.465c0-30.656-24.94-55.597-55.597-55.597h-11.001c17.73-16.969 29.892-39.706 33.447-65.161h4.467c14.617 0 27.155-10.861 28.544-24.728.778-7.771-1.764-15.529-6.974-21.286a28 28 0 0 0-.902-.946v-56.734c0-6.663-4.229-12.341-10.137-14.535-5.05-28.266-19.547-54.11-41.215-73.259C317.105 11.34 287.13 0 256.001 0s-61.105 11.34-84.405 31.932c-21.668 19.149-36.165 44.993-41.216 73.259-5.908 2.194-10.137 7.872-10.137 14.535l.001 57.124c-4.339 4.312-7.247 9.953-7.874 16.214-.779 7.771 1.762 15.53 6.972 21.289a27.6 27.6 0 0 0 20.426 9.066h5.607c3.553 25.456 15.711 48.193 33.438 65.161h-10.99c-30.656 0-55.597 24.941-55.597 55.598 0 11.334 1.834 22.247 5.211 32.464l-21.414 6.298c-23.498 6.911-39.91 28.845-39.91 53.338V504.5c0 4.143 3.358 7.5 7.5 7.5s7.5-3.357 7.5-7.5v-68.222a40.3 40.3 0 0 1 3.874-17.197l36.678 31.438a24.54 24.54 0 0 1 8.578 18.65v35.33a7.5 7.5 0 0 0 7.5 7.5 7.5 7.5 0 0 0 7.5-7.5v-35.33a39.52 39.52 0 0 0-13.816-30.039l-37.632-32.256c4.567-4.358 10.163-7.692 16.461-9.544l22.952-6.751c17.057 33.942 52.207 57.291 92.712 57.291h17.781a23.64 23.64 0 0 0 14.8 14.8v41.83a7.5 7.5 0 0 0 7.5 7.5 7.5 7.5 0 0 0 7.5-7.5v-41.829a23.64 23.64 0 0 0 14.8-14.8h17.781c40.505 0 75.655-23.348 92.712-57.291l22.952 6.751c6.298 1.852 11.894 5.187 16.461 9.544l-37.632 32.255a39.52 39.52 0 0 0-13.815 30.039v35.33c0 4.143 3.357 7.5 7.5 7.5s7.5-3.357 7.5-7.5v-35.33c0-7.18 3.126-13.978 8.577-18.65l36.677-31.437a40.3 40.3 0 0 1 3.874 17.196V504.5c0 4.143 3.357 7.5 7.5 7.5s7.5-3.357 7.5-7.5v-68.222c-.001-24.493-16.412-46.426-39.91-53.338m-63.27-199.931-38.799 26.861c-5.516 3.819-12.051 4.918-18.408 3.094-6.355-1.825-11.669-6.446-14.214-12.363-4.238-9.857-14.154-16.23-25.294-16.236h-.011c-11.107 0-21.028 6.372-25.273 16.235-2.547 5.918-7.864 10.54-14.221 12.363-6.35 1.823-12.883.725-18.396-3.092l-38.8-26.862V159.29H352.71zm32 14.188c-.63 6.292-6.612 11.222-13.618 11.222h-3.389c.001-.146.006-.292.006-.438l.001-24.642h4.527a12.57 12.57 0 0 1 9.303 4.131c2.407 2.659 3.533 6.113 3.17 9.727m-16.999-28.858v-9.049h9.048v9.429a27.4 27.4 0 0 0-4.522-.38zm-1.566-64.129h-23.272c-3.514-27.37-13.128-52.449-27.416-71.203q-.68-.89-1.371-1.757c26.07 15.785 45.449 41.884 52.059 72.96m-38.391 0h-32.514c-1.617-30.556-6.634-62.975-16.086-83.39 24.167 12.482 43.091 43.93 48.6 83.39M256.001 15c1.734 0 8.068 4.545 14.221 24.738 5.137 16.855 8.629 39.525 9.989 64.472h-48.42c1.36-24.947 4.852-47.617 9.989-64.472C247.933 19.545 254.267 15 256.001 15m-58.169 16.302c-6.601 8.343-12.401 18.19-17.152 29.375a7.5 7.5 0 1 0 13.806 5.865c9.298-21.888 22.87-37.784 38.379-45.755-9.462 20.413-14.483 52.85-16.102 83.422h-32.511c.337-2.412.722-4.807 1.16-7.167a7.5 7.5 0 1 0-14.747-2.74 179 179 0 0 0-1.54 9.907h-23.267c6.603-31.041 25.948-57.116 51.974-72.907m-58.065 177.117a12.57 12.57 0 0 1-9.303-4.131c-2.406-2.659-3.532-6.114-3.17-9.729.63-6.292 6.612-11.221 13.619-11.221h3.379v24.564c0 .172.006.344.007.516zm-4.523-39.523v-9.606h9.048v9.049h-3.379c-1.934 0-3.829.195-5.669.557m-.002-24.606v-24.564c0-.284.231-.516.516-.516h240.484c.284 0 .516.231.516.516v24.564zm24.05 63.613v-6.651l30.262 20.952c9.146 6.331 20.472 8.217 31.071 5.178 10.793-3.097 19.491-10.697 23.862-20.852 1.874-4.354 6.385-7.166 11.525-7.166h.005c5.111.003 9.621 2.813 11.491 7.162 4.366 10.155 13.061 17.757 23.854 20.855a36.6 36.6 0 0 0 10.097 1.424c7.396 0 14.706-2.253 20.988-6.603l30.26-20.95v6.721c-.039 53.286-43.421 96.638-96.706 96.638-53.325.001-96.709-43.382-96.709-96.708m160.322 119.726h22.431c5.546 0 8.647 3.719 9.701 7.198s.535 8.294-4.079 11.37l-17.278 11.519c-6.397-2.391-10.775-8.602-10.775-15.5zm-85.913 105.242H215.92c-48.906 0-88.693-39.788-88.693-88.694 0-22.385 18.211-40.597 40.597-40.597h24.564v9.049h-22.432c-11.331 0-20.773 7.007-24.057 17.852-3.284 10.844.687 21.912 10.114 28.197l90.35 60.234a23.64 23.64 0 0 0-12.662 13.959m-41.314-105.242v14.587c0 6.899-4.378 13.109-10.775 15.5l-17.279-11.519c-4.614-3.076-5.132-7.891-4.078-11.37s4.155-7.198 9.7-7.198zM264.531 440.4c-.016 4.692-3.835 8.503-8.53 8.503-4.701 0-8.526-3.822-8.532-8.522v-.02c.005-4.7 3.83-8.522 8.532-8.522 4.695 0 8.514 3.812 8.53 8.503l-.001.029zm31.55-7.529H278.3a23.65 23.65 0 0 0-12.662-13.96l26.588-17.726a7.5 7.5 0 1 0-8.32-12.48L256 407.309l-60.6-40.4c7.37-5.878 11.988-14.919 11.988-24.692v-33.749c14.705 7.137 31.2 11.145 48.614 11.145 17.411 0 33.906-4.01 48.612-11.151v33.754c0 9.773 4.617 18.814 11.987 24.692L311.963 370a7.5 7.5 0 0 0 4.167 13.741c1.43 0 2.875-.408 4.153-1.261l35.703-23.803c9.428-6.285 13.398-17.353 10.115-28.197-3.284-10.845-12.727-17.852-24.058-17.852h-22.431v-9.049h24.564c22.385 0 40.597 18.212 40.597 40.598.002 48.906-39.786 88.694-88.692 88.694"/><path d="M207.905 199.371a7.5 7.5 0 0 0 7.5-7.5v-8.017c0-4.143-3.358-7.5-7.5-7.5s-7.5 3.357-7.5 7.5v8.017c0 4.143 3.357 7.5 7.5 7.5M304.098 199.371c4.143 0 7.5-3.357 7.5-7.5v-8.017c0-4.143-3.357-7.5-7.5-7.5s-7.5 3.357-7.5 7.5v8.017c0 4.143 3.356 7.5 7.5 7.5M239.969 255.483h32.064c4.143 0 7.5-3.357 7.5-7.5s-3.357-7.5-7.5-7.5h-32.064c-4.142 0-7.5 3.357-7.5 7.5s3.357 7.5 7.5 7.5"/></svg>