<svg xmlns="http://www.w3.org/2000/svg" xml:space="preserve" viewBox="0 0 512.002 512.002"><path d="m408.488 380.785-82.903-29.26a32.11 32.11 0 0 1-21.422-30.277V279.75h-96.321v41.498a32.11 32.11 0 0 1-21.421 30.277l-82.903 29.26c-19.255 6.796-32.131 24.996-32.131 45.415v78.301H440.62V426.2c-.001-20.419-12.878-38.619-32.132-45.415" style="fill:#e3aa75"/><path d="M207.842 321.248c14.867 6.148 31.129 9.562 48.161 9.562s33.294-3.415 48.161-9.562V279.75h-96.321z" style="fill:#d29b6e"/><path d="m145.146 175.401.876 16.206c3.159 58.434 51.461 104.196 109.98 104.196s106.822-45.762 109.981-104.196l.876-16.206z" style="fill:#f5b97d"/><path d="M366.859 175.401H145.146l.876 16.206c3.159 58.434 51.461 104.196 109.98 104.196 6.741 0 13.325-.673 19.742-1.837-32.903-5.968-60.847-26.545-76.621-54.948-11.81-21.268 3.916-47.425 28.243-47.446l138.626-.117z" style="fill:#e3aa75"/><path d="M362.645 9.132 312.19 46.973H199.815L149.36 9.132c-5.452-4.089-13.199.049-12.831 6.855l6.014 111.255h226.92l6.014-111.255c.367-6.807-7.379-10.945-12.832-6.855" style="fill:#5a4650"/><path d="M256.002 20.551c-60.642 0-109.322 47.19-113.49 105.686h-.024l2.657 49.164h221.714l2.657-49.163h-.025c-4.166-58.497-52.847-105.687-113.489-105.687" style="fill:#6e5a64"/><path d="M183.785 126.237c3.682-51.681 42.129-94.477 92.854-103.761-6.689-1.224-13.571-1.925-20.637-1.925-60.642 0-109.322 47.19-113.49 105.686h-.024l2.657 49.164h41.272l-2.657-49.164z" style="fill:#5a4650"/><path d="M195.806 346.243c7.229 7.434 31.406 13.776 60.196 13.776 28.792 0 52.966-6.343 60.196-13.776-7.44-5.98-12.035-15.075-12.035-24.995v-2.579c-15.061 5.147-31.235 8.106-48.161 8.106s-33.1-2.959-48.161-8.106v2.579c.001 9.92-4.594 19.015-12.035 24.995M408.487 380.785l-5.832-2.058c-28.958 51.096-83.73 85.64-146.654 85.64s-117.696-34.544-146.654-85.64l-5.831 2.058c-19.256 6.796-32.131 24.996-32.131 45.415v78.301h369.233V426.2c.001-20.419-12.876-38.619-32.131-45.415" style="fill:#6e5a64"/><path d="m210.028 200.029-9.974-2.493c-14.293-3.573-24.32-16.416-24.32-31.149 0-12.754 10.339-23.093 23.093-23.093h18.03c12.754 0 23.093 10.339 23.093 23.093v10.281c-.002 15.665-14.723 27.16-29.922 23.361M311.95 197.535l-9.974 2.493c-15.199 3.8-29.921-7.696-29.921-23.362v-10.281c0-12.754 10.339-23.093 23.093-23.093h18.03c12.754 0 23.093 10.339 23.093 23.093 0 14.734-10.028 27.577-24.321 31.15" style="fill:#f5b97d"/><path d="M216.856 143.295h-18.029c-12.754 0-23.093 10.339-23.093 23.093 0 4.374.974 8.535 2.591 12.383 3.818-7.49 11.518-12.673 20.502-12.673h18.029c10.616 0 19.464 7.202 22.164 16.958.559-2.034.929-4.151.929-6.388v-10.281c-.001-12.754-10.339-23.092-23.093-23.092M295.149 166.098h18.029c8.984 0 16.684 5.182 20.502 12.673 1.617-3.848 2.591-8.009 2.591-12.383 0-12.754-10.339-23.093-23.093-23.093h-18.029c-12.754 0-23.093 10.339-23.093 23.093v10.281c0 2.237.37 4.353.929 6.388 2.7-9.757 11.549-16.959 22.164-16.959" style="fill:#e3aa75"/><path d="m410.999 373.7-82.911-29.264c-9.821-3.467-16.42-12.793-16.42-23.208v-31.941c35.032-18.85 59.526-54.963 61.815-97.307l9.491-175.589c.329-6.098-2.814-11.67-8.204-14.542-5.39-2.87-11.77-2.372-16.646 1.304l-37.662 28.384c-19.153-12.058-41.382-18.536-64.46-18.536a121.4 121.4 0 0 0-64.447 18.547L153.88 3.154c-4.876-3.676-11.255-4.176-16.646-1.305s-8.534 8.443-8.205 14.543l9.491 175.588c2.289 42.344 26.783 78.458 61.815 97.307v31.941c0 10.415-6.599 19.741-16.42 23.208l-82.91 29.264c-22.214 7.839-37.139 28.935-37.139 52.491v78.31c0 4.143 3.357 7.5 7.5 7.5s7.5-3.357 7.5-7.5v-78.31c0-17.182 10.869-32.568 27.054-38.317 15.141 24.621 36.21 45.293 61.168 59.922 26.863 15.745 57.608 24.067 88.915 24.067 31.45 0 62.318-8.395 89.27-24.276 24.813-14.621 45.75-35.207 60.82-59.71 16.181 5.751 27.047 21.136 27.047 38.315v78.31c0 4.143 3.357 7.5 7.5 7.5s7.5-3.357 7.5-7.5v-78.31c-.002-23.558-14.928-44.653-37.141-52.492M367.152 15.133c.125-.096.27-.203.566-.045s.287.337.278.495l-3.488 64.528c-6.33-12.652-14.893-24.223-25.431-34.157a122 122 0 0 0-5.908-5.212zm-222.866-.045c.298-.156.44-.049.566.045l33.981 25.609c-.175.145-.353.285-.527.431a7.5 7.5 0 0 0 9.627 11.503C206.946 36.764 231.12 28 256.001 28c27.19 0 53.039 10.252 72.787 28.868C348.262 75.226 360.05 99.941 362 126.487l-2.237 41.38h-16.019q.03-.755.032-1.517c0-16.87-13.725-30.595-30.595-30.595h-18.032c-15.011 0-27.522 10.869-30.1 25.149-2.749-.69-5.791-1.066-9.051-1.066s-6.302.376-9.051 1.066c-2.578-14.28-15.089-25.149-30.1-25.149h-18.032c-16.87 0-30.595 13.725-30.595 30.595q.002.762.032 1.517H152.24l-2.236-41.372c1.343-18.292 7.46-36.029 17.703-51.311a7.5 7.5 0 0 0-12.461-8.351 121 121 0 0 0-7.747 13.33l-3.491-64.579c-.009-.159-.018-.338.278-.496m135.272 151.263c0-8.599 6.996-15.595 15.595-15.595h18.032c8.599 0 15.595 6.996 15.595 15.595a24.574 24.574 0 0 1-18.641 23.876h-.001l-9.976 2.494a16.49 16.49 0 0 1-14.227-3.017 16.48 16.48 0 0 1-6.378-13.071zm-47.11 10.281c0 5.143-2.324 9.906-6.378 13.071a16.48 16.48 0 0 1-14.227 3.017l-9.977-2.494a24.574 24.574 0 0 1-18.641-23.876c0-8.599 6.996-15.595 15.595-15.595h18.032c8.599 0 15.595 6.996 15.595 15.595v10.282zm-78.949 14.538-.449-8.303h18.776a39.54 39.54 0 0 0 26.404 21.912l9.976 2.494c2.566.642 5.159.957 7.73.957 6.947 0 13.732-2.305 19.366-6.703 7.698-6.011 12.121-15.054 12.144-24.817 1.183-.731 4.112-1.871 8.558-1.871s7.375 1.14 8.558 1.871c.023 9.763 4.446 18.806 12.144 24.817 5.635 4.398 12.418 6.703 19.366 6.703 2.57 0 5.164-.315 7.73-.957l9.975-2.494a39.55 39.55 0 0 0 26.405-21.912h18.776l-.449 8.303c-2.943 54.456-47.968 97.112-102.503 97.112s-99.563-42.656-102.507-97.112m102.503 112.112c14.273 0 27.975-2.557 40.666-7.234v15.276c-.265.327-.986 1.061-2.689 2.043-2.026 1.168-4.798 2.292-8.014 3.251a7.5 7.5 0 1 0 4.287 14.375c2.58-.77 4.944-1.629 7.084-2.565a39.65 39.65 0 0 0 6.485 15.475c-4.67 3.427-21.172 8.601-47.818 8.601s-43.148-5.174-47.818-8.601a39.65 39.65 0 0 0 6.485-15.476 57 57 0 0 0 4.904 1.877c9.842 3.281 22.78 5.088 36.43 5.088 4.143 0 7.5-3.357 7.5-7.5s-3.357-7.5-7.5-7.5c-24.833 0-38.617-6.209-40.666-9.045v-15.3c12.69 4.679 26.391 7.235 40.664 7.235m81.655 131.382c-22.5 13.258-47.993 20.789-74.154 22.004v-8.36c0-4.143-3.357-7.5-7.5-7.5s-7.5 3.357-7.5 7.5v8.36c-26.033-1.209-51.414-8.675-73.83-21.813-21.909-12.841-40.542-30.773-54.256-52.099l68.492-24.174a39.4 39.4 0 0 0 8.502-4.213c3.654 3.261 9.25 5.988 16.796 8.144 11.266 3.219 26.108 4.991 41.795 4.991s30.53-1.772 41.795-4.991c7.546-2.156 13.143-4.882 16.796-8.144a39.5 39.5 0 0 0 8.502 4.213l68.489 24.173c-13.644 21.219-32.151 39.078-53.927 51.909"/><path d="M285.353 236.9a7.5 7.5 0 0 0-10.535-10.677c-2.742 2.706-9.315 5.866-18.815 5.866s-16.073-3.16-18.815-5.866a7.5 7.5 0 0 0-10.535 10.677c6.466 6.38 17.438 10.188 29.351 10.188 11.913-.001 22.883-3.809 29.349-10.188M207.836 159.839a7.5 7.5 0 0 0-7.5 7.5v8.028c0 4.143 3.357 7.5 7.5 7.5s7.5-3.357 7.5-7.5v-8.028a7.5 7.5 0 0 0-7.5-7.5M304.168 182.867c4.143 0 7.5-3.357 7.5-7.5v-8.028c0-4.143-3.357-7.5-7.5-7.5s-7.5 3.357-7.5 7.5v8.028a7.5 7.5 0 0 0 7.5 7.5"/></svg>