<svg xmlns="http://www.w3.org/2000/svg" xml:space="preserve" viewBox="0 0 512 512"><path d="m413.863 358.071-84.486-24.849a24.05 24.05 0 0 1-17.263-23.071v-38.119H199.888v38.119a24.05 24.05 0 0 1-17.263 23.071l-84.486 24.849c-20.469 6.02-34.525 24.806-34.525 46.142V504.5h384.774V404.213c0-21.336-14.056-40.122-34.525-46.142" style="fill:#b67f5f"/><path d="M432.356 296.081h-2.671a40.08 40.08 0 0 0-24.047 8.015l-10.691 8.018a40.1 40.1 0 0 1-24.051 8.016h-13.681a7.96 7.96 0 0 0-7.142 4.381c-7.591 14.949-35.547 57.385-83.868 79.548a24.52 24.52 0 0 1-20.408 0c-48.32-22.163-76.276-64.597-83.867-79.547a7.96 7.96 0 0 0-7.143-4.381h-13.684a40.1 40.1 0 0 1-24.049-8.016l-10.688-8.016a40.1 40.1 0 0 0-24.049-8.016h-2.671c-26.563 0-48.097 21.534-48.097 48.097v56.113c0 17.709 14.356 32.065 32.065 32.065h384.774c17.709 0 32.065-14.356 32.065-32.065V344.18c0-26.566-21.534-48.099-48.097-48.099" style="fill:#edebed"/><path d="M370.896 320.129h-13.682a7.96 7.96 0 0 0-7.142 4.38c-7.591 14.95-35.547 57.385-83.868 79.548a24.52 24.52 0 0 1-20.407 0c-48.32-22.163-76.276-64.597-83.867-79.547a7.96 7.96 0 0 0-7.143-4.381h-13.684c-4.588 0-9.092-.837-13.361-2.348V504.5h256.516V317.78c-4.269 1.512-8.773 2.349-13.362 2.349" style="fill:#a5cdff"/><path d="M199.888 297.937c16.841 8.996 35.939 14.176 56.113 14.176s39.272-5.18 56.113-14.176v-25.905H199.888z" style="fill:#a06e50"/><path d="M256.001 7.5c-66.408 0-120.242 53.834-120.242 120.242h240.484C376.243 61.334 322.409 7.5 256.001 7.5" style="fill:#a5cdff"/><path d="M256.001 7.5c-11.122 0-21.842 1.631-32.065 4.457v115.785h64.13V11.957C277.843 9.13 267.123 7.5 256.001 7.5" style="fill:#edebed"/><path d="M209.372 84.9c4.982-31.578 22.314-59.019 46.834-77.39l-.003-.01C189.702 7.391 135.76 61.266 135.76 127.742h240.484c0-8.237-.837-16.277-2.415-24.048H225.221c-9.952 0-17.4-8.965-15.849-18.794" style="fill:#8cb4eb"/><path d="M256.001 440.371c-35.417 0-64.129 28.712-64.129 64.129H320.13c0-35.417-28.712-64.129-64.129-64.129M223.936 44.037c8.21-14.244 19.166-26.71 32.27-36.527l-.003-.009c-11.193-.019-21.982 1.61-32.266 4.453v32.083zM288.066 103.694h-62.845c-.444 0-.851-.11-1.284-.144v24.193h64.13v-24.049zM103.695 432.355h24.048v-40.081c-13.282 0-24.048 10.767-24.048 24.048z" style="fill:#dbd9dc"/><path d="M63.614 432.355v16.032h24.048c8.854 0 16.032 7.178 16.032 16.032V504.5h24.048v-72.145z" style="fill:#a06e50"/><path d="M408.307 432.355h-24.048v-40.081c13.282 0 24.048 10.767 24.048 24.048z" style="fill:#dbd9dc"/><path d="M448.388 432.355v16.032H424.34c-8.854 0-16.032 7.178-16.032 16.032V504.5H384.26v-72.145z" style="fill:#a06e50"/><path d="M256.001 464.419c-22.136 0-40.081 17.945-40.081 40.081h80.161c.001-22.136-17.944-40.081-40.08-40.081" style="fill:#edebed"/><path d="M256.001 288.065c-57.554 0-104.21-46.656-104.21-104.21v-56.113h208.42v56.113c0 57.553-46.657 104.21-104.21 104.21" style="fill:#cd916e"/><path d="M336.162 135.758v-8.016H151.791v56.113c0 57.553 46.656 104.21 104.21 104.21 5.466 0 10.793-.547 16.032-1.359-49.921-7.729-88.177-50.764-88.177-102.851 0-17.709 14.356-32.064 32.064-32.064h104.21c8.854-.001 16.032-7.179 16.032-16.033" style="fill:#b67f5f"/><path d="M211.912 175.322c4.143 0 7.5-3.357 7.5-7.5v-8.016c0-4.143-3.357-7.5-7.5-7.5s-7.5 3.357-7.5 7.5v8.016a7.5 7.5 0 0 0 7.5 7.5M300.09 175.322c4.143 0 7.5-3.357 7.5-7.5v-8.016c0-4.143-3.357-7.5-7.5-7.5s-7.5 3.357-7.5 7.5v8.016c0 4.143 3.357 7.5 7.5 7.5M272.033 216.436h-32.064c-4.143 0-7.5 3.357-7.5 7.5s3.357 7.5 7.5 7.5h32.064c4.143 0 7.5-3.357 7.5-7.5s-3.357-7.5-7.5-7.5"/><path d="M432.355 288.581h-2.672c-10.228 0-20.366 3.38-28.548 9.516l-10.688 8.017a32.8 32.8 0 0 1-19.549 6.516h-13.684c-5.878 0-11.169 3.234-13.807 8.44-.241.475-1.61 3.13-4.14 7.245l-7.775-2.287c-6.994-2.058-11.879-8.586-11.879-15.876v-34.453a111.5 111.5 0 0 0 22.1-20.215h12.931c11.55 0 21.313-8.27 23.213-19.663l4.893-29.356c9.819-2.831 17.024-11.892 17.024-22.61v-40.08c0-10.412-6.8-19.26-16.189-22.353C380.28 53.909 324.319 0 256.001 0S131.722 53.909 128.416 121.422c-9.39 3.093-16.189 11.941-16.189 22.353v40.08c0 10.718 7.205 19.779 17.025 22.61l4.893 29.356a23.46 23.46 0 0 0 23.212 19.663h12.935a111.5 111.5 0 0 0 22.096 20.221v34.447c0 7.29-4.885 13.818-11.879 15.876l-7.775 2.287c-2.529-4.114-3.898-6.769-4.139-7.244-2.639-5.207-7.93-8.441-13.808-8.441h-13.684a32.8 32.8 0 0 1-19.549-6.516l-10.688-8.017c-8.182-6.136-18.32-9.516-28.548-9.516h-2.672c-30.656 0-55.597 24.94-55.597 55.597v56.112c0 19.251 13.824 35.327 32.064 38.842V504.5c0 4.143 3.357 7.5 7.5 7.5s7.5-3.357 7.5-7.5v-64.646h49.129V504.5c0 4.143 3.357 7.5 7.5 7.5s7.5-3.357 7.5-7.5v-88.178c0-4.143-3.357-7.5-7.5-7.5a7.5 7.5 0 0 0-7.5 7.5v8.532H63.614c-13.545 0-24.564-11.02-24.564-24.564v-56.112c0-22.385 18.212-40.597 40.597-40.597h2.672a32.78 32.78 0 0 1 19.548 6.516l10.688 8.017a47.3 47.3 0 0 0 7.688 4.679v61.466c0 4.143 3.357 7.5 7.5 7.5s7.5-3.357 7.5-7.5v-57c1.941.244 3.899.371 5.86.371h13.684c.074 0 .323.016.428.222 1.294 2.555 32.461 62.844 98.152 87.479a7.5 7.5 0 0 0 5.268 0c65.691-24.635 96.858-84.924 98.153-87.479.104-.205.353-.221.427-.221h13.684c1.961 0 3.919-.127 5.86-.371V504.5c0 4.143 3.357 7.5 7.5 7.5s7.5-3.357 7.5-7.5v-64.646h49.129V504.5c0 4.143 3.357 7.5 7.5 7.5s7.5-3.357 7.5-7.5v-65.368c18.24-3.516 32.064-19.591 32.064-38.842v-56.112c0-30.657-24.94-55.597-55.597-55.597m-212.646-21.604-2.09-11.493h76.764l-2.09 11.493a16.54 16.54 0 0 1-16.281 13.588h-40.021a16.54 16.54 0 0 1-16.282-13.588m-42.226-26.494a96 96 0 0 1-15.318-33.097h31.463l6.018 33.097zm31.391-33.096h94.253l-6.018 33.097h-82.218zm140.943 0a96 96 0 0 1-14.551 31.889c-.286.409-.588.804-.88 1.208h-22.031l6.018-33.097zM307.8 265.539l1.828-10.056h11.379a96 96 0 0 1-13.207 10.056m46.846-25.056h-2.334a110.6 110.6 0 0 0 12.901-33.097h2.177l-4.328 25.967a8.51 8.51 0 0 1-8.416 7.13m30.129-56.629c0 4.705-3.827 8.532-8.532 8.532h-8.854q.32-4.241.321-8.532v-48.612h8.532c4.705 0 8.532 3.827 8.532 8.532zM280.565 17.703v61.94c0 4.143 3.357 7.5 7.5 7.5s7.5-3.357 7.5-7.5V22.172c40.476 15.219 69.952 53.079 72.922 98.07h-72.922v-8.534c0-4.143-3.357-7.5-7.5-7.5s-7.5 3.357-7.5 7.5v8.534h-49.129V17.703c7.911-1.765 16.13-2.703 24.565-2.703s16.654.938 24.564 2.703m-64.128 4.469v98.07h-72.922c2.969-44.991 32.446-82.851 72.922-98.07m-89.21 121.602c0-4.705 3.827-8.532 8.532-8.532h8.532v.517c0 4.143 3.357 7.5 7.5 7.5s7.5-3.357 7.5-7.5v-.517h193.42v48.612c0 2.864-.139 5.708-.385 8.532H159.674a99 99 0 0 1-.383-8.532v-16.031c0-4.143-3.357-7.5-7.5-7.5s-7.5 3.357-7.5 7.5v16.031q0 4.29.321 8.532h-8.854c-4.705 0-8.532-3.827-8.532-8.532zm21.713 89.58-4.328-25.967h2.178a110.7 110.7 0 0 0 12.906 33.097h-2.339a8.51 8.51 0 0 1-8.417-7.13m53.434 22.129 1.836 10.097a96.6 96.6 0 0 1-13.294-10.097zm53.627 144.786c-36.342-14.416-60.813-40.604-74.418-58.922l3.158-.929c13.334-3.922 22.646-16.368 22.646-30.267v-25.695a113 113 0 0 0 7.255 3.2q.372.147.748.251a31.48 31.48 0 0 0 20.6 7.657h40.021a31.48 31.48 0 0 0 20.531-7.598 112 112 0 0 0 8.071-3.519v25.703c0 13.898 9.313 26.345 22.646 30.267l3.158.929c-13.603 18.319-38.075 44.506-74.416 58.923m216.951.021c0 13.545-11.02 24.564-24.564 24.564h-56.629V322.792a47.2 47.2 0 0 0 7.688-4.679l10.688-8.017a32.8 32.8 0 0 1 19.548-6.516h2.672c22.385 0 40.597 18.212 40.597 40.597z"/><path d="M256.001 432.871c-39.496 0-71.629 32.133-71.629 71.629 0 4.143 3.357 7.5 7.5 7.5s7.5-3.357 7.5-7.5c0-31.226 25.403-56.629 56.629-56.629s56.629 25.403 56.629 56.629c0 4.143 3.357 7.5 7.5 7.5s7.5-3.357 7.5-7.5c0-39.496-32.133-71.629-71.629-71.629"/></svg>