<svg xmlns="http://www.w3.org/2000/svg" xml:space="preserve" viewBox="0 0 512.002 512.002"><path d="m402.577 451.08-77.085-27.207a32.065 32.065 0 0 1-21.393-30.237v-49.458h-96.194v49.459a32.065 32.065 0 0 1-21.393 30.237l-77.086 27.207c-22.65 7.994-37.796 29.401-37.795 53.42h368.741c.001-24.02-15.145-45.427-37.795-53.421" style="fill:#f7d291"/><path d="m402.577 451.08-77.085-27.207c-8.416-2.971-14.938-9.243-18.47-17.028l-51.02 25.51-51.02-25.51c-3.532 7.785-10.054 14.058-18.47 17.028l-77.086 27.207c-22.649 7.993-37.796 29.4-37.792 53.42h368.733c.006-24.02-15.141-45.427-37.79-53.42" style="fill:#8cb4eb"/><path d="M207.905 390.37c14.753 6.391 31.02 9.92 48.097 9.92s33.344-3.529 48.097-9.92v-46.193h-96.194z" style="fill:#f0c382"/><path d="M135.76 272.032h72.192l-2.552 80.662c-8.934 18.537-53.608 55.612-53.608 55.612v8.016s27.555 39.58 40.081 88.177H135.76v-96.194c-8.016-64.128 0-136.273 0-136.273" style="fill:#6e5a64"/><path d="M151.792 432.355h-8.016c-8.854 0-16.032-7.178-16.032-16.032s7.178-16.032 16.032-16.032h8.016c8.854 0 16.032 7.178 16.032 16.032.001 8.854-7.177 16.032-16.032 16.032" style="fill:#5a4650"/><path d="M376.244 272.032h-72.192l2.552 80.662c8.934 18.537 53.608 55.612 53.608 55.612v8.016s-27.555 39.58-40.081 88.177h56.113v-96.194c8.016-64.128 0-136.273 0-136.273" style="fill:#6e5a64"/><circle cx="256.001" cy="432.36" r="16.03" style="fill:#6e5a64"/><path d="M360.212 432.355h8.016c8.854 0 16.032-7.178 16.032-16.032s-7.178-16.032-16.032-16.032h-8.016c-8.854 0-16.032 7.178-16.032 16.032-.001 8.854 7.177 16.032 16.032 16.032" style="fill:#5a4650"/><path d="M317.011 50.62 290.86 20.111a36.117 36.117 0 0 0-60.422 8.836l65.645 58.714 18.375-13.782c7.411-5.557 8.582-16.223 2.553-23.259" style="fill:#739bd7"/><path d="M263.44 7.5a36.11 36.11 0 0 0-33.002 21.447L175.841 151.79h160.323z" style="fill:#8cb4eb"/><path d="M372.236 239.968H139.768c-11.068 0-20.04 8.972-20.04 20.04s8.972 20.04 20.04 20.04h12.429c4.106 53.796 48.958 96.194 103.805 96.194s99.699-42.398 103.805-96.194h12.429c11.068 0 20.04-8.973 20.04-20.04 0-11.068-8.972-20.04-20.04-20.04" style="fill:#ffe1a0"/><path d="M336.163 247.984v-8.016H140.912c-10.483 0-20.035 7.542-21.081 17.972-1.202 11.996 8.186 22.109 19.936 22.109h12.429c4.106 53.796 48.957 96.194 103.805 96.194 5.483 0 10.83-.534 16.083-1.35-49.946-7.709-88.228-42.738-88.228-94.843 0-8.854 7.178-16.032 16.032-16.032h120.243c8.854-.002 16.032-7.18 16.032-16.034" style="fill:#f7d291"/><path d="m428.853 229.449-84.674-45.594H167.825l-84.674 45.594c-5.117 2.756-3.159 10.519 2.652 10.519h340.398c5.811 0 7.769-7.764 2.652-10.519" style="fill:#8cb4eb"/><path d="M336.163 151.79H175.841a8.016 8.016 0 0 0-8.016 8.016v24.048H344.18v-24.048a8.02 8.02 0 0 0-8.017-8.016" style="fill:#6e5a64"/><path d="M230.438 28.947 175.841 151.79h40.081L254.052 8.8c-10.348 2.792-19.128 10.053-23.614 20.147" style="fill:#739bd7"/><path d="M175.841 151.79a8.016 8.016 0 0 0-8.016 8.016v24.048h40.081V151.79z" style="fill:#5a4650"/><path d="m170.266 229.449 37.639-45.594h-40.081l-84.673 45.594c-5.117 2.756-3.159 10.519 2.652 10.519h85.665c-2.632 0-3.518-7.764-1.202-10.519" style="fill:#739bd7"/><path d="M285.272 317.452a7.5 7.5 0 0 0-10.535-10.677c-2.737 2.7-9.299 5.854-18.781 5.854s-16.043-3.154-18.781-5.854a7.5 7.5 0 0 0-10.535 10.677c6.459 6.372 17.418 10.177 29.316 10.177s22.856-3.805 29.316-10.177"/><path d="m410.78 446.021-27.036-9.542v-2.487c4.909-4.316 8.017-10.635 8.017-17.67 0-6.926-3.009-13.161-7.787-17.471 6.251-52.328 2.196-98.393.407-114.156 9.086-4.505 15.349-13.876 15.349-24.687a27.36 27.36 0 0 0-3.033-12.54h29.504c6.102 0 11.205-3.976 12.696-9.893 1.492-5.917-1.115-11.837-6.489-14.73l-80.729-43.47v-19.568c0-6.771-4.366-12.527-10.425-14.641l-29.588-59.817 7.292-5.469a23.62 23.62 0 0 0 9.272-16.257 23.62 23.62 0 0 0-5.525-17.884l-26.15-30.509A43.57 43.57 0 0 0 263.44 0c-17.219 0-32.863 10.167-39.856 25.901l-53.04 119.34c-5.951 2.172-10.22 7.872-10.22 14.566v19.568l-80.73 43.47c-5.373 2.894-7.98 8.813-6.488 14.73s6.594 9.893 12.696 9.893h29.412a27.36 27.36 0 0 0-3.033 12.54c0 10.849 6.307 20.25 15.446 24.737a410 410 0 0 0-1.047 10.701 7.5 7.5 0 0 0 7.482 8.136 7.5 7.5 0 0 0 7.464-6.863c.31-3.641.619-6.726.884-9.17h2.918c4.253 30.471 20.841 57.042 44.543 74.491-8.232 10.997-25.19 25.071-33.248 31.251a23.5 23.5 0 0 0-4.831-.501h-8.016q-.666.001-1.323.04c-2.242-20.514-3.13-42.171-2.613-64.505a7.5 7.5 0 0 0-7.325-7.672l-.177-.002a7.5 7.5 0 0 0-7.495 7.326c-.568 24.584.519 48.401 3.201 70.862-4.786 4.311-7.801 10.551-7.801 17.484 0 7.035 3.107 13.354 8.017 17.67v2.487l-27.036 9.542c-22.187 7.831-37.093 28.899-37.093 52.427v6.052c0 4.143 3.358 7.5 7.5 7.5s7.5-3.357 7.5-7.5v-6.052c0-17.18 10.885-32.564 27.085-38.282l22.044-7.78V504.5c0 4.143 3.358 7.5 7.5 7.5s7.5-3.357 7.5-7.5v-64.646h8.532c1.205 0 2.388-.092 3.545-.267 5.798 10.144 22.91 41.335 29.26 66.732a7.504 7.504 0 0 0 7.27 5.683 7.5 7.5 0 0 0 7.282-9.322c-5.993-23.974-20.283-51.658-27.922-65.459l17.781-6.276a39.5 39.5 0 0 0 18.946-14.229l24.747 12.373a24 24 0 0 0-.232 3.265c0 10.354 6.724 19.16 16.032 22.3V504.5c0 4.143 3.358 7.5 7.5 7.5s7.5-3.357 7.5-7.5v-49.846c9.308-3.139 16.032-11.946 16.032-22.3 0-1.108-.083-2.197-.232-3.265l24.747-12.373a39.5 39.5 0 0 0 18.946 14.229l17.781 6.276c-7.638 13.801-21.928 41.486-27.922 65.459a7.5 7.5 0 1 0 14.552 3.639c6.341-25.363 23.461-56.581 29.261-66.732 1.156.175 2.34.267 3.544.267h8.532V504.5c0 4.143 3.358 7.5 7.5 7.5s7.5-3.357 7.5-7.5v-52.114l22.044 7.78c16.201 5.718 27.085 21.103 27.085 38.282v6.052c0 4.143 3.358 7.5 7.5 7.5s7.5-3.357 7.5-7.5v-6.052c.002-23.527-14.905-44.595-37.091-52.427M237.291 31.993A28.64 28.64 0 0 1 263.44 15a28.58 28.58 0 0 1 21.726 9.992l26.15 30.509a8.45 8.45 0 0 1 2.004 6.484 8.46 8.46 0 0 1-3.362 5.895l-5.057 3.792-6.038-12.207a7.5 7.5 0 0 0-13.445 6.651l38.668 78.174H187.381zM93.363 232.468l76.353-41.113h118.348c4.142 0 7.5-3.357 7.5-7.5s-3.358-7.5-7.5-7.5H175.325v-16.548c0-.282.227-.51.508-.515h.004l.027-.002h160.277l.028.002h.003c.28.005.507.233.507.515v16.548h-16.548c-4.142 0-7.5 3.357-7.5 7.5s3.358 7.5 7.5 7.5h22.157l76.353 41.113zm58.43 192.386h-8.016c-4.705 0-8.533-3.827-8.533-8.532s3.828-8.532 8.533-8.532h8.016c4.705 0 8.532 3.827 8.532 8.532s-3.828 8.532-8.532 8.532m48.612-31.217c0 10.396-6.586 19.704-16.389 23.164l-8.975 3.168c.186-1.189.284-2.406.284-3.646a23.4 23.4 0 0 0-5.116-14.623c7.858-6.287 21.408-17.78 30.196-28.804zm55.597 47.25c-4.705 0-8.532-3.827-8.532-8.532s3.828-8.532 8.532-8.532 8.532 3.827 8.532 8.532-3.827 8.532-8.532 8.532m16.585-25.21c-4.257-4.234-10.12-6.855-16.585-6.855s-12.327 2.621-16.585 6.855l-25.166-12.583a39.4 39.4 0 0 0 1.154-9.458v-17.515c12.577 4.917 26.253 7.62 40.55 7.62 14.332 0 28.041-2.716 40.643-7.656v17.55c0 3.237.401 6.407 1.154 9.458zm64.092.645c0 1.24.098 2.458.284 3.646l-8.975-3.168c-9.803-3.46-16.389-12.769-16.389-23.164v-20.742c8.788 11.024 22.338 22.518 30.196 28.804a23.4 23.4 0 0 0-5.116 14.624m-14.581-54.325c23.671-17.45 40.235-44.002 44.484-74.448h3.003c1.679 15.661 5.137 57.944-.022 105.281q-.663-.039-1.336-.04h-8.016c-1.656 0-3.271.174-4.831.501-8.066-6.183-25.06-20.28-33.282-31.294m46.13 62.857h-8.016c-4.705 0-8.532-3.827-8.532-8.532s3.828-8.532 8.532-8.532h8.016c4.705 0 8.533 3.827 8.533 8.532s-3.828 8.532-8.533 8.532m3.961-152.305h-4.531c.001-.173.007-.344.007-.517 0-4.143-3.358-7.5-7.5-7.5s-7.5 3.357-7.5 7.5c0 53.326-43.384 96.71-96.709 96.71s-96.71-43.384-96.71-96.71c0-4.143-3.358-7.5-7.5-7.5s-7.5 3.357-7.5 7.5c0 .173.006.344.007.517h-4.53c-6.915 0-12.541-5.626-12.541-12.541s5.625-12.54 12.541-12.54h60.637V258.5c0 4.143 3.358 7.5 7.5 7.5s7.5-3.357 7.5-7.5v-11.032h81.193V258.5c0 4.143 3.358 7.5 7.5 7.5s7.5-3.357 7.5-7.5v-11.032h60.637c6.915 0 12.54 5.625 12.54 12.54s-5.626 12.541-12.541 12.541"/></svg>