<svg xmlns="http://www.w3.org/2000/svg" xml:space="preserve" viewBox="0 0 512 512"><path d="m413.861 358.071-84.486-24.849a24.05 24.05 0 0 1-17.263-23.071v-38.119H199.886v38.119a24.05 24.05 0 0 1-17.263 23.071l-84.486 24.849c-20.469 6.02-34.525 24.806-34.525 46.142V504.5h384.774V404.213c0-21.336-14.056-40.122-34.525-46.142" style="fill:#e3aa75"/><path d="m413.861 358.071-69.606-20.472c-14.791 22.73-48.721 38.643-88.256 38.643s-73.465-15.913-88.256-38.643l-69.606 20.472c-20.469 6.02-34.525 24.806-34.525 46.141V504.5h384.774V404.212c0-21.336-14.056-40.121-34.525-46.141" style="fill:#e6646e"/><path d="M199.886 297.937c16.841 8.996 35.939 14.176 56.113 14.176s39.272-5.18 56.113-14.176v-25.905H199.886z" style="fill:#d29b6e"/><path d="M372.233 151.79h-12.024V71.629h-208.42v80.161h-12.024c-11.068 0-20.04 8.972-20.04 20.04s8.972 20.04 20.04 20.04h12.429c4.106 53.796 48.958 96.194 103.805 96.194s99.699-42.398 103.805-96.194h12.429c11.068 0 20.04-8.973 20.04-20.04 0-11.068-8.972-20.04-20.04-20.04" style="fill:#f5b97d"/><path d="M328.144 103.694H151.789v48.097h-11.321c-9.127 0-17.651 5.783-20.015 14.598-3.576 13.332 6.518 25.482 19.312 25.482h12.429c4.106 53.796 48.957 96.194 103.805 96.194 5.483 0 10.83-.534 16.083-1.35-49.946-7.709-88.228-50.754-88.228-102.859v-8.016c0-26.563 21.534-48.097 48.097-48.097h72.145c13.281-.001 24.048-10.768 24.048-24.049" style="fill:#e3aa75"/><path d="M376.241 103.694H135.757l19.494-77.978A24.05 24.05 0 0 1 178.582 7.5h154.834a24.05 24.05 0 0 1 23.33 18.216z" style="fill:#e6646e"/><path d="M234.054 325.526c-13.95-3.403-25.879-9.875-33.448-17.943-4.484-4.779-12.231-4.171-16.163 1.072l-21.766 29.021c17.197 20.173 44.834 34.134 77.289 37.642l-.001-42.069c-.001-3.615-2.401-6.867-5.911-7.723M349.321 337.676l-21.766-29.021c-3.932-5.243-11.679-5.852-16.163-1.072-7.569 8.068-19.498 14.54-33.448 17.943-3.51.856-5.91 4.109-5.91 7.724l-.001 42.069c32.454-3.509 60.091-17.47 77.288-37.643" style="fill:#dc4655"/><path d="m153.755 153.528-17.998 2.223v-52.058h32.065v33.923c0 8.095-6.034 14.92-14.067 15.912M358.243 153.528l17.998 2.223v-52.058h-32.065v33.923c0 8.095 6.034 14.92 14.067 15.912" style="fill:#6e5a64"/><path d="M234.695 7.5h-56.113a24.05 24.05 0 0 0-23.331 18.216l-19.494 77.977h56.113l19.494-77.977A24.05 24.05 0 0 1 234.695 7.5" style="fill:#dc4655"/><path d="M207.902 152.307a7.5 7.5 0 0 0-7.5 7.5v8.016c0 4.143 3.358 7.5 7.5 7.5s7.5-3.357 7.5-7.5v-8.016a7.5 7.5 0 0 0-7.5-7.5M304.096 152.307a7.5 7.5 0 0 0-7.5 7.5v8.016c0 4.143 3.358 7.5 7.5 7.5s7.5-3.357 7.5-7.5v-8.016a7.5 7.5 0 0 0-7.5-7.5M285.315 221.258a7.5 7.5 0 0 0 .07-10.606 7.5 7.5 0 0 0-10.606-.071c-2.737 2.701-9.298 5.855-18.78 5.855s-16.043-3.154-18.78-5.855a7.5 7.5 0 0 0-10.606.071 7.5 7.5 0 0 0 .07 10.606c6.459 6.373 17.418 10.178 29.316 10.178s22.857-3.805 29.316-10.178"/><path d="m415.977 350.876-60.791-17.88-21.632-28.842a18.25 18.25 0 0 0-13.625-7.293c-.107-.006-.211.004-.318 0v-21.238c25.013-17.396 42.617-44.741 47.019-76.252h4.459c14.617 0 27.154-10.861 28.543-24.727.778-7.771-1.765-15.531-6.975-21.289a27.6 27.6 0 0 0-8.917-6.532v-43.13h-.006c0-.607-.068-1.218-.218-1.819l-19.494-77.977A31.5 31.5 0 0 0 333.416 0H178.582a31.5 31.5 0 0 0-30.606 23.896l-19.494 77.978a7.5 7.5 0 0 0-.218 1.819h-.006v43.463c-8.631 4.115-14.93 12.266-15.891 21.859-.778 7.771 1.764 15.53 6.974 21.289a27.6 27.6 0 0 0 20.425 9.066h5.598c4.399 31.522 22.003 58.87 47.023 76.264v21.227c-.106.004-.211-.006-.318 0a18.25 18.25 0 0 0-13.625 7.293l-21.632 28.842-60.79 17.879c-23.498 6.911-39.909 28.845-39.909 53.338V504.5c0 4.143 3.358 7.5 7.5 7.5s7.5-3.357 7.5-7.5V404.214c0-17.885 11.983-33.9 29.142-38.947l61.064-17.96c8.299 8.515 18.328 15.727 29.576 21.436h-31.088c-21.816 0-39.565 17.749-39.565 39.564 0 4.143 3.358 7.5 7.5 7.5s7.5-3.357 7.5-7.5c0-13.545 11.02-24.564 24.565-24.564h96.192c37.488 0 72.345-13.518 94.682-36.436l61.064 17.96c17.158 5.047 29.142 21.063 29.142 38.947V504.5c0 4.143 3.358 7.5 7.5 7.5s7.5-3.357 7.5-7.5V404.214c-.001-24.493-16.412-46.427-39.91-53.338M149.629 79.129h154.464c4.142 0 7.5-3.357 7.5-7.5s-3.358-7.5-7.5-7.5H153.379l9.148-36.594A16.525 16.525 0 0 1 178.582 15h154.834a16.525 16.525 0 0 1 16.055 12.535l9.148 36.594H336.16c-4.142 0-7.5 3.357-7.5 7.5s3.358 7.5 7.5 7.5h26.209l4.266 17.064H145.363zm219.112 32.064v33.097h-8.532c-4.705 0-8.532-3.827-8.532-8.532v-24.564zm-225.484 0h17.064v24.564c0 4.705-3.828 8.532-8.532 8.532h-8.532zm16.033 72.661c0-4.143-3.358-7.5-7.5-7.5s-7.5 3.357-7.5 7.5v.517h-4.524a12.57 12.57 0 0 1-9.303-4.131c-2.407-2.66-3.533-6.115-3.17-9.729.63-6.292 6.612-11.221 13.618-11.221h10.88c12.976 0 23.532-10.557 23.532-23.532v-24.564h161.354v24.564c0 12.976 10.557 23.532 23.532 23.532h12.024c3.537 0 6.927 1.506 9.302 4.131 2.407 2.659 3.533 6.115 3.171 9.729-.63 6.292-6.611 11.221-13.617 11.221h-3.385v-.438a7.5 7.5 0 0 0-7.497-7.5h-.003a7.5 7.5 0 0 0-7.5 7.494c-.039 53.286-43.421 96.638-96.706 96.638-53.325-.001-96.708-43.384-96.708-96.711m13.119 153.345 18.034-24.045a3.28 3.28 0 0 1 2.45-1.315c.616-.03 1.508.091 2.244.876 8.659 9.229 21.849 16.366 37.14 20.097.04.02.188.179.188.438l.002 33.501c-23.948-4.127-45.228-14.494-60.058-29.552m92.125-3.95-.002 35.235c-5.641.342-11.424.342-17.064 0l-.002-35.235c0-7.167-4.783-13.339-11.633-15.01-11.532-2.814-21.775-8.038-28.445-14.463v-19.358c14.705 7.137 31.199 11.146 48.613 11.146 17.412 0 33.906-4.012 48.613-11.154v19.365c-6.671 6.425-16.913 11.649-28.446 14.463-6.851 1.672-11.634 7.844-11.634 15.011m14.998 33.501.002-33.501c0-.259.148-.418.188-.438 15.291-3.73 28.48-10.867 37.14-20.097.668-.712 1.462-.881 2.064-.881q.093 0 .18.005c.97.054 1.862.533 2.449 1.315l18.034 24.045c-14.83 15.059-36.11 25.426-60.057 29.552"/><path d="M215.918 128.258h-16.032c-4.142 0-7.5 3.357-7.5 7.5s3.358 7.5 7.5 7.5h16.032c4.142 0 7.5-3.357 7.5-7.5s-3.357-7.5-7.5-7.5M296.08 143.258h16.032c4.142 0 7.5-3.357 7.5-7.5s-3.358-7.5-7.5-7.5H296.08c-4.142 0-7.5 3.357-7.5 7.5s3.357 7.5 7.5 7.5M127.741 432.871a7.5 7.5 0 0 0-7.5 7.5V504.5a7.5 7.5 0 0 0 7.5 7.5 7.5 7.5 0 0 0 7.5-7.5v-64.129a7.5 7.5 0 0 0-7.5-7.5M159.886 408.822h-.08c-4.142 0-7.46 3.357-7.46 7.5s3.398 7.5 7.54 7.5 7.5-3.357 7.5-7.5-3.358-7.5-7.5-7.5M352.273 408.822h-.081c-4.142 0-7.46 3.357-7.46 7.5s3.398 7.5 7.541 7.5 7.5-3.357 7.5-7.5-3.358-7.5-7.5-7.5M352.273 448.903h-.081c-4.142 0-7.46 3.357-7.46 7.5s3.398 7.5 7.541 7.5 7.5-3.357 7.5-7.5-3.358-7.5-7.5-7.5M159.886 448.903h-.08c-4.142 0-7.46 3.357-7.46 7.5s3.398 7.5 7.54 7.5 7.5-3.357 7.5-7.5-3.358-7.5-7.5-7.5M352.273 488.983h-.081c-4.142 0-7.46 3.357-7.46 7.5s3.398 7.5 7.541 7.5 7.5-3.357 7.5-7.5-3.358-7.5-7.5-7.5M159.886 488.983h-.08c-4.142 0-7.46 3.357-7.46 7.5s3.398 7.5 7.54 7.5 7.5-3.357 7.5-7.5-3.358-7.5-7.5-7.5"/></svg>