<svg xmlns="http://www.w3.org/2000/svg" xml:space="preserve" viewBox="0 0 512 512"><path d="M463.752 339.501c.668-46.093-14.697-54.109-22.379-81.163-7.734-27.237.135-45.835-9.018-75.986-8.517-28.056-23.99-32.796-28.724-72.646C395.614 42.236 322.801 7.5 286.728 7.5c-10.2 0-17.165 2.589-21.847 5.685-5.419 3.585-12.343 3.585-17.762 0-4.682-3.096-11.647-5.685-21.847-5.685-36.073 0-108.886 34.736-116.902 102.206-4.735 39.85-20.207 44.59-28.724 72.646-9.153 30.15-1.284 48.748-9.018 75.986-7.682 27.054-23.046 35.071-22.379 81.163.775 53.452-30.06 65.465-18.036 100.87 8.974 26.422 57.449 48.097 57.449 48.097h336.677s48.475-21.674 57.449-48.097c12.024-35.405-18.811-47.418-18.036-100.87" style="fill:#64505a"/><path d="M256 15.874c-3.086 0-6.172-.896-8.881-2.689-4.682-3.096-11.647-5.685-21.847-5.685-36.073 0-108.886 34.736-116.902 102.206-4.735 39.85-20.207 44.59-28.724 72.646-9.153 30.15-1.284 48.748-9.018 75.986-7.682 27.054-23.046 35.071-22.379 81.163.775 53.452-30.06 65.465-18.036 100.87 8.974 26.422 57.449 48.097 57.449 48.097H256z" style="fill:#5a4650"/><path d="M408.282 396.981 325.49 367.76a32.065 32.065 0 0 1-21.393-30.237V296.08h-96.194v41.443a32.065 32.065 0 0 1-21.393 30.237l-82.792 29.221c-19.229 6.787-32.089 24.962-32.089 45.354V504.5H440.37v-62.165c.001-20.392-12.858-38.567-32.088-45.354" style="fill:#b67f5f"/><path d="m408.282 396.981-55.243-19.498c-21.743 30.052-51.334 63.195-85.78 81.556a23.98 23.98 0 0 1-22.517 0c-34.446-18.361-64.038-51.504-85.78-81.556l-55.243 19.498c-19.23 6.787-32.089 24.963-32.089 45.355V504.5h368.742v-62.164c-.001-20.392-12.86-38.568-32.09-45.355" style="fill:#b4e6a0"/><path d="M207.903 325.904c14.8 6.545 31.063 10.257 48.097 10.257s33.297-3.712 48.097-10.257V296.08h-96.194z" style="fill:#a06e50"/><path d="M256 312.113c-57.554 0-104.21-46.656-104.21-104.21V71.629h208.42v136.274c0 57.554-46.657 104.21-104.21 104.21" style="fill:#cd916e"/><path d="M151.79 71.629v136.274c0 57.553 46.656 104.21 104.21 104.21 5.466 0 10.793-.548 16.032-1.358-49.921-7.73-88.177-50.764-88.177-102.851v-15.159c0-14.492 4.588-28.45 12.273-40.736l.12-.192c11.453-18.378 20.782-20.728 34.903-24.287 7.255-1.828 16.053-4.045 24.849-8.913 8.796 4.868 17.594 7.086 24.849 8.913 14.121 3.559 23.451 5.909 34.902 24.287 14.603 23.432 31.628 35.438 44.059 44.205l.399.284V71.629z" style="fill:#b67f5f"/><path d="M441.372 258.338c-7.734-27.237.135-45.835-9.018-75.986-8.517-28.056-23.99-32.796-28.724-72.646C395.614 42.236 322.801 7.5 286.728 7.5c-10.2 0-17.165 2.589-21.847 5.685A16.07 16.07 0 0 1 256 15.874v71.787c20.708 26.052 51.437 5.344 80.161 51.437 24.415 39.177 55.073 38.187 65.858 69.076 3.091 8.853 1.415 18.312 2.154 27.659 4.133 52.232 44.214 76.28 62.231 130.788-1.718-7.784-2.804-16.636-2.652-27.119.667-46.094-14.697-54.11-22.38-81.164" style="fill:#6e5a64"/><path d="M70.627 258.338c7.734-27.237-.135-45.835 9.018-75.986 8.517-28.056 23.99-32.796 28.724-72.646C116.386 42.236 189.199 7.5 225.272 7.5c10.2 0 17.165 2.589 21.847 5.685A16.07 16.07 0 0 0 256 15.874v71.787c-20.708 26.052-51.437 5.344-80.161 51.437-24.415 39.177-55.073 38.187-65.858 69.076-3.091 8.853-1.415 18.312-2.154 27.659-4.133 52.232-44.214 76.28-62.231 130.788 1.718-7.784 2.804-16.636 2.652-27.119-.667-46.094 14.697-54.11 22.379-81.164" style="fill:#64505a"/><path d="M256 263.5c11.897 0 22.857-3.805 29.316-10.178a7.5 7.5 0 0 0-10.535-10.677c-2.737 2.701-9.299 5.855-18.781 5.855s-16.043-3.154-18.78-5.855c-2.949-2.908-7.698-2.879-10.606.071a7.5 7.5 0 0 0 .07 10.606c6.459 6.373 17.418 10.178 29.316 10.178M207.903 184.371a7.5 7.5 0 0 0-7.5 7.5v8.016c0 4.143 3.358 7.5 7.5 7.5s7.5-3.357 7.5-7.5v-8.016a7.5 7.5 0 0 0-7.5-7.5M304.096 184.371a7.5 7.5 0 0 0-7.5 7.5v8.016c0 4.143 3.357 7.5 7.5 7.5s7.5-3.357 7.5-7.5v-8.016a7.5 7.5 0 0 0-7.5-7.5M199.887 175.322h16.032c4.142 0 7.5-3.357 7.5-7.5s-3.358-7.5-7.5-7.5h-16.032c-4.142 0-7.5 3.357-7.5 7.5s3.358 7.5 7.5 7.5M296.081 175.322h16.032c4.143 0 7.5-3.357 7.5-7.5s-3.357-7.5-7.5-7.5h-16.032c-4.143 0-7.5 3.357-7.5 7.5s3.358 7.5 7.5 7.5"/><path d="M483.253 392.301c-5.79-13.345-12.354-28.469-12.003-52.691.475-32.726-6.839-47.618-13.911-62.021-3.296-6.71-6.408-13.048-8.751-21.3-3.429-12.074-3.548-22.444-3.675-33.423-.147-12.758-.299-25.95-5.382-42.693-3.65-12.026-8.441-20.011-13.073-27.73-6.539-10.897-12.715-21.191-15.38-43.621-4.812-40.497-30.383-66.728-50.988-81.601C337.182 10.685 308.385 0 286.729 0c-10.29 0-19.032 2.332-25.984 6.93-2.925 1.938-6.561 1.938-9.488 0C244.303 2.332 235.561 0 225.272 0c-21.657 0-50.454 10.685-73.362 27.221-20.604 14.873-46.176 41.104-50.988 81.601-2.665 22.43-8.841 32.724-15.38 43.621-4.632 7.72-9.423 15.704-13.074 27.73-5.083 16.744-5.235 29.936-5.382 42.693-.126 10.979-.246 21.349-3.674 33.423-2.343 8.252-5.456 14.59-8.75 21.3-7.073 14.402-14.387 29.295-13.912 62.021.351 24.223-6.212 39.347-12.003 52.691-6.572 15.145-12.779 29.449-5.636 50.482 7.893 23.242 31.066 37.282 41.018 42.393V504.5c0 4.143 3.358 7.5 7.5 7.5s7.5-3.357 7.5-7.5v-62.164a40.5 40.5 0 0 1 5.477-20.325l35.432 30.37a24.54 24.54 0 0 1 8.578 18.651V504.5c0 4.143 3.358 7.5 7.5 7.5s7.5-3.357 7.5-7.5v-33.468a39.52 39.52 0 0 0-13.816-30.04l-35.416-30.356a40.4 40.4 0 0 1 11.83-6.583l47.713-16.84c32.279 42.292 65.665 70.608 99.267 84.161a7.5 7.5 0 0 0 5.612.001c20.446-8.247 41.137-22.243 61.496-41.6a7.501 7.501 0 0 0-10.336-10.872c-18.034 17.147-36.175 29.713-53.965 37.388-35.47-15.312-66.203-47.551-87.179-74.336l20.185-7.124c15.789-5.572 26.397-20.565 26.397-37.309v-25.548c12.589 4.928 26.282 7.638 40.597 7.638s28.007-2.71 40.597-7.638v25.548c0 16.743 10.608 31.736 26.396 37.309l20.178 7.122a386 386 0 0 1-12.668 15.394 7.5 7.5 0 1 0 11.318 9.844c5.455-6.273 10.901-12.991 16.24-19.982l47.725 16.844a40.4 40.4 0 0 1 12.202 6.879l-35.071 30.061a39.52 39.52 0 0 0-13.816 30.04V504.5c0 4.143 3.357 7.5 7.5 7.5s7.5-3.357 7.5-7.5v-33.468a24.54 24.54 0 0 1 8.578-18.651l34.952-29.958a40.5 40.5 0 0 1 5.241 19.914V504.5c0 4.143 3.357 7.5 7.5 7.5s7.5-3.357 7.5-7.5v-19.324c9.951-5.111 33.124-19.15 41.019-42.393 7.14-21.033.933-35.338-5.639-50.482m-8.566 45.658c-4.753 13.993-17.548 24.146-26.815 29.943v-25.566c0-23.528-14.906-44.597-37.093-52.428l-82.793-29.221c-9.803-3.46-16.389-12.769-16.389-23.164V304.77c33.508-19.307 56.113-55.497 56.113-96.867v-26.561l1.639 1.157c16.121 11.368 26.771 18.879 28.81 44.698a7.5 7.5 0 0 0 8.068 6.886 7.5 7.5 0 0 0 6.886-8.067c-2.593-32.838-18.392-43.979-35.117-55.775-11.918-8.404-24.241-17.096-35.468-35.11-18.182-29.175-38.024-34.175-53.969-38.192-7.711-1.943-14.274-3.604-19.995-7.604-3.19-2.231-5.063-5.905-5.063-9.798v-15.61c0-4.106-3.164-7.688-7.269-7.811a7.5 7.5 0 0 0-7.731 7.497v15.923c0 3.893-1.873 7.567-5.063 9.798-5.721 4-12.284 5.661-19.995 7.604-15.944 4.018-35.787 9.018-53.968 38.192-11.227 18.015-23.55 26.706-35.467 35.11-16.726 11.796-32.525 22.938-35.117 55.776a7.5 7.5 0 0 0 6.886 8.066c4.135.333 7.741-2.757 8.067-6.887 2.039-25.818 12.688-33.329 28.809-44.698 11.905-8.396 26.721-18.844 39.553-39.435 14.982-24.041 29.516-27.703 44.903-31.581 9.812-2.473 19.896-5.013 28.893-12.947 8.996 7.935 19.08 10.475 28.893 12.947 15.387 3.878 29.921 7.54 44.903 31.581 7.297 11.709 15.234 20.135 22.914 26.772v36.833c0 53.243-42.515 97.422-95.755 97.938-53.762.521-97.664-43.061-97.664-96.705v-2.692c0-4.106-3.164-7.688-7.269-7.811a7.5 7.5 0 0 0-7.731 7.497v3.006c0 41.37 22.605 77.56 56.113 96.867v32.753c0 10.396-6.586 19.704-16.389 23.164l-82.792 29.221c-22.187 7.831-37.093 28.899-37.093 52.428v25.596c-9.255-5.771-22.036-15.902-26.815-29.973-5.281-15.55-1.115-25.152 5.193-39.688 6.077-14.003 13.639-31.43 13.241-58.879-.422-29.128 5.795-41.788 12.378-55.192 3.443-7.011 7.004-14.262 9.716-23.813 3.975-13.998 4.111-25.868 4.244-37.348.141-12.245.274-23.812 4.736-38.509 3.113-10.255 7.227-17.111 11.583-24.371 7.064-11.772 14.369-23.946 17.413-49.568 4.169-35.093 26.703-58.093 44.872-71.208C184.023 22.539 209.939 15 225.272 15c7.296 0 13.254 1.494 17.709 4.44a23.57 23.57 0 0 0 26.039.001C273.475 16.494 279.433 15 286.729 15c21.278 0 47.769 12.246 64.582 24.383 18.17 13.115 40.703 36.115 44.873 71.208 3.044 25.622 10.348 37.796 17.412 49.568 4.355 7.26 8.47 14.116 11.582 24.371 4.462 14.697 4.596 26.264 4.736 38.509.133 11.479.27 23.35 4.244 37.348 2.712 9.553 6.272 16.803 9.716 23.814 6.582 13.403 12.8 26.064 12.378 55.191-.397 27.449 7.165 44.877 13.241 58.879 6.308 14.536 10.474 24.138 5.194 39.688"/></svg>