<svg xmlns="http://www.w3.org/2000/svg" xml:space="preserve" viewBox="0 0 512 512"><path d="m427.725 362.942-52.086-9.41a24.05 24.05 0 0 1-12.729-6.66l-27.72-27.719a24.05 24.05 0 0 1-7.044-17.005L328.48 256H183.522l.334 46.149a24.05 24.05 0 0 1-7.044 17.005l-27.72 27.719a24.05 24.05 0 0 1-12.729 6.66l-52.086 9.41c-30.525 5.514-52.728 32.087-52.728 63.107v78.45h448.903v-78.452c.001-31.019-22.202-57.592-52.727-63.106" style="fill:#e3aa75"/><path d="M183.751 295.609c20.234 15.344 45.295 24.52 72.25 24.52s52.016-9.176 72.25-24.52L328.48 256H183.522z" style="fill:#d29b6e"/><path d="M344.178 7.5H167.823c-17.709 0-32.065 14.355-32.065 32.065v136.274h240.484V39.565c0-17.71-14.356-32.065-32.064-32.065" style="fill:#a06e50"/><path d="M372.235 159.806h-12.024c-8.854 0-16.032-7.179-16.032-16.032v-24.048c0-17.709-14.355-32.065-32.065-32.065H199.888c-17.709 0-32.065 14.355-32.065 32.065v24.048c0 8.854-7.179 16.032-16.032 16.032h-12.024c-11.068 0-20.04 8.972-20.04 20.04s8.972 20.04 20.04 20.04h12.429c4.106 53.796 48.958 96.194 103.805 96.194s99.699-42.398 103.805-96.194h12.429c11.068 0 20.04-8.973 20.04-20.04s-8.972-20.04-20.04-20.04" style="fill:#f5b97d"/><path d="M344.178 7.5H207.904v16.032c0 22.136 17.945 40.081 40.081 40.081h128.258V39.565C376.242 21.856 361.887 7.5 344.178 7.5" style="fill:#b67f5f"/><path d="M127.743 504.5h256.516V355.09l-8.62-1.558a24.05 24.05 0 0 1-12.729-6.66l-10.715-10.715v32.068c0 53.126-43.067 96.194-96.194 96.194s-96.194-43.067-96.194-96.194v-32.068l-10.715 10.715a24.05 24.05 0 0 1-12.729 6.66l-8.62 1.558z" style="fill:#ffe17d"/><path d="M127.743 440.371V504.5h-24.048v-40.081c0-13.281 10.766-24.048 24.048-24.048M384.259 440.371V504.5h24.048v-40.081c0-13.281-10.766-24.048-24.048-24.048" style="fill:#d29b6e"/><path d="M183.856 191.871v-48.097c0-17.709 14.356-32.065 32.065-32.065h127.125c-3.576-13.805-16.007-24.048-30.931-24.048H199.888c-17.709 0-32.065 14.356-32.065 32.065v24.048c0 8.854-7.178 16.032-16.032 16.032h-10.879c-10.484 0-20.039 7.543-21.082 17.974-1.199 11.994 8.188 22.107 19.937 22.107h12.429c4.106 53.796 48.958 96.194 103.805 96.194 5.484 0 10.83-.534 16.083-1.35-49.946-7.71-88.228-50.755-88.228-102.86" style="fill:#e3aa75"/><path d="M207.904 160.322a7.5 7.5 0 0 0-7.5 7.5v8.017c0 4.143 3.357 7.5 7.5 7.5s7.5-3.357 7.5-7.5v-8.017a7.5 7.5 0 0 0-7.5-7.5M304.098 160.322a7.5 7.5 0 0 0-7.5 7.5v8.017c0 4.143 3.357 7.5 7.5 7.5s7.5-3.357 7.5-7.5v-8.017a7.5 7.5 0 0 0-7.5-7.5M256.001 239.451c11.897 0 22.856-3.805 29.315-10.177a7.5 7.5 0 0 0 .072-10.605 7.496 7.496 0 0 0-10.605-.072c-2.738 2.7-9.3 5.854-18.782 5.854s-16.044-3.154-18.782-5.854a7.494 7.494 0 0 0-10.605.072 7.5 7.5 0 0 0 .072 10.605c6.459 6.372 17.418 10.177 29.315 10.177"/><path d="m429.059 355.562-52.087-9.411a16.5 16.5 0 0 1-8.759-4.582l-27.72-27.719c-3.125-3.125-4.847-7.28-4.847-11.629l.311-32.436c16.218-16.64 27.309-38.299 30.675-62.398h4.46c14.616 0 27.153-10.861 28.541-24.727.778-7.771-1.764-15.53-6.974-21.287a27.6 27.6 0 0 0-8.918-6.534V39.564C383.742 17.748 365.993 0 344.178 0H167.823c-21.815 0-39.564 17.748-39.564 39.564v115.609c-8.63 4.115-14.929 12.266-15.891 21.858-.778 7.771 1.763 15.53 6.973 21.288a27.6 27.6 0 0 0 20.427 9.067h5.598c3.364 24.109 14.457 45.773 30.679 62.414l.311 32.348c0 4.421-1.722 8.576-4.848 11.701l-27.72 27.719a16.47 16.47 0 0 1-8.759 4.582l-52.085 9.411c-34.126 6.165-58.895 35.81-58.895 70.487V504.5c0 4.143 3.357 7.5 7.5 7.5s7.5-3.357 7.5-7.5v-78.451c0-27.416 19.582-50.852 46.562-55.726l34.632-6.258V504.5c0 4.143 3.357 7.5 7.5 7.5s7.5-3.357 7.5-7.5V361.355l2.453-.443a31.4 31.4 0 0 0 14.611-6.843v14.157c0 57.176 46.516 103.693 103.693 103.693h.001c57.176-.001 103.692-46.518 103.692-103.693V354.07a31.4 31.4 0 0 0 14.61 6.843l2.454.443v14.889c0 4.143 3.357 7.5 7.5 7.5s7.5-3.357 7.5-7.5v-12.178l34.633 6.258c26.979 4.874 46.561 28.31 46.561 55.726V504.5c0 4.143 3.357 7.5 7.5 7.5s7.5-3.357 7.5-7.5v-78.451c.001-34.678-24.767-64.322-58.892-70.487M151.791 184.371a7.5 7.5 0 0 0-7.5 7.5v.516h-4.523a12.57 12.57 0 0 1-9.304-4.131c-2.406-2.66-3.532-6.115-3.17-9.729.63-6.292 6.612-11.221 13.618-11.221h10.879c12.976 0 23.532-10.557 23.532-23.532v-24.049c0-13.545 11.02-24.564 24.564-24.564 4.143 0 7.5-3.357 7.5-7.5s-3.357-7.5-7.5-7.5c-21.816 0-39.564 17.749-39.564 39.564v24.049c0 4.705-3.827 8.532-8.532 8.532h-8.532V39.564c0-13.545 11.02-24.564 24.564-24.564h176.354c13.545 0 24.564 11.02 24.564 24.564v112.742h-8.531c-4.705 0-8.532-3.827-8.532-8.532v-24.049c0-21.815-17.748-39.564-39.564-39.564h-80.161c-4.143 0-7.5 3.357-7.5 7.5s3.357 7.5 7.5 7.5h80.161c13.545 0 24.564 11.02 24.564 24.564v24.049c0 12.976 10.557 23.532 23.532 23.532h12.024c3.536 0 6.927 1.506 9.303 4.13 2.406 2.66 3.532 6.115 3.17 9.729-.63 6.292-6.61 11.221-13.616 11.221h-3.385v-.438a7.5 7.5 0 0 0-7.497-7.5h-.003a7.5 7.5 0 0 0-7.5 7.494c-.039 53.287-43.421 96.639-96.706 96.639-53.326 0-96.71-43.384-96.71-96.71a7.5 7.5 0 0 0-7.499-7.5m111.71 272.228v-8.212c0-4.143-3.357-7.5-7.5-7.5a7.5 7.5 0 0 0-7.5 7.5v8.212c-45.408-3.821-81.193-41.994-81.193-88.373v-28.962l14.807-14.806c5.959-5.958 9.241-13.881 9.241-22.381l-.185-19.287c18.293 13.082 40.677 20.792 64.831 20.792 24.151 0 46.536-7.716 64.831-20.804l-.186 19.371c0 8.428 3.282 16.351 9.24 22.309l14.808 14.807v28.961c-.001 46.378-35.786 84.552-81.194 88.373"/><path d="m198.358 151.117 16.032 3.34q.775.16 1.537.159a7.5 7.5 0 0 0 1.522-14.845l-16.032-3.34a7.502 7.502 0 0 0-3.059 14.686M296.074 154.616q.762 0 1.537-.159l16.032-3.34a7.5 7.5 0 1 0-3.059-14.685l-16.032 3.34a7.5 7.5 0 0 0-5.813 8.872 7.505 7.505 0 0 0 7.335 5.972M384.259 400.809a7.5 7.5 0 0 0-7.5 7.5v96.189c0 4.143 3.357 7.5 7.5 7.5s7.5-3.357 7.5-7.5v-96.189a7.5 7.5 0 0 0-7.5-7.5"/></svg>