<svg xmlns="http://www.w3.org/2000/svg" xml:space="preserve" viewBox="0 0 512 512"><path d="M255.999 343.481c48.097 0 124.635-24.847 144.57-32.783 8.243-3.281 12.297-12.693 8.878-20.879-7.107-17.016-17.174-48.44-17.174-89.931v-56.113C392.273 68.512 331.261 7.5 255.999 7.5S119.725 68.512 119.725 143.774v56.113c0 41.491-10.067 72.916-17.174 89.931-3.419 8.186.635 17.598 8.878 20.879 19.936 7.937 96.473 32.784 144.57 32.784" style="fill:#b4f09b"/><path d="M255.999 7.5c-23.193 0-45.011 5.83-64.129 16.049v7.303c0 53.126 43.067 96.194 96.194 96.194h103.079C382.881 59.692 325.586 7.5 255.999 7.5" style="fill:#cdf5a0"/><path d="m408.281 396.284-82.792-29.221a32.065 32.065 0 0 1-21.393-30.237v-49.459h-96.194v49.459a32.06 32.06 0 0 1-21.393 30.236l-82.793 29.221c-19.23 6.787-32.089 24.962-32.089 45.354v62.165H440.37v-62.165c0-20.39-12.859-38.566-32.089-45.353" style="fill:#e3aa75"/><path d="M71.628 503.803H440.37v-62.165c0-20.392-12.859-38.568-32.089-45.354l-70.932-25.035c-11.906 18.861-39.114 55.148-78.826 67.666a8.48 8.48 0 0 1-5.049 0c-39.712-12.518-66.921-48.805-78.826-67.666l-70.932 25.035c-19.23 6.787-32.089 24.962-32.089 45.354z" style="fill:#64dca0"/><path d="M248.68 454.215a24.5 24.5 0 0 0 7.312 1.112c2.489 0 4.971-.372 7.343-1.116 46.977-14.804 77.566-57.807 89.508-77.494l-27.353-9.654c-1.212-.428-2.348-.985-3.481-1.544-11.239 17.169-34.161 46.297-66.009 57.344-31.677-11.005-54.677-40.18-65.972-57.36-1.144.566-2.292 1.128-3.517 1.56l-27.353 9.654c11.942 19.687 42.532 62.691 89.522 77.498" style="fill:#b4f09b"/><path d="M207.902 325.21c13.042 5.808 27.268 9.411 42.305 10.118q2.911.137 5.792.137c17.103 0 33.353-3.645 48.097-10.11v-37.987h-96.194z" style="fill:#d29b6e"/><path d="M328.144 143.077h-12.712a8.02 8.02 0 0 1-5.668-2.348l-29.522-29.522c-3.03-3.03-8.211-.884-8.211 3.401v20.453a8.016 8.016 0 0 1-8.016 8.016h-80.161c-17.709 0-32.065 14.356-32.065 32.065v29.121c0 56.112 43.122 104.395 99.172 107.034 59.844 2.818 109.248-44.867 109.248-104.091v-32.065c0-17.708-14.355-32.064-32.065-32.064" style="fill:#f5b97d"/><path d="M328.144 151.094v-8.016h-12.712a8.02 8.02 0 0 1-5.668-2.348l-29.522-29.522c-3.03-3.03-8.211-.884-8.211 3.401v20.453a8.016 8.016 0 0 1-8.016 8.016h-80.161c-17.709 0-32.065 14.356-32.065 32.065v28.852c0 47.061 29.921 90.101 75.102 103.267 15.682 4.57 30.874 5.097 45.157 2.888-50.6-7.969-88.195-53.501-88.195-105.886v-5.072c0-17.709 14.356-32.065 32.065-32.065h96.194c8.854-.001 16.032-7.179 16.032-16.033" style="fill:#e3aa75"/><path d="M207.902 184.371a7.5 7.5 0 0 0-7.5 7.5v8.016a7.5 7.5 0 0 0 15 0v-8.016a7.5 7.5 0 0 0-7.5-7.5M304.096 184.371a7.5 7.5 0 0 0-7.5 7.5v8.016a7.5 7.5 0 0 0 15 0v-8.016a7.5 7.5 0 0 0-7.5-7.5M255.999 263.5c11.898 0 22.857-3.805 29.316-10.177a7.5 7.5 0 0 0-10.535-10.677c-2.737 2.701-9.298 5.855-18.781 5.855s-16.043-3.154-18.781-5.855a7.5 7.5 0 1 0-10.535 10.677c6.46 6.372 17.419 10.177 29.316 10.177"/><path d="m410.778 389.909-82.792-29.221c-7.268-2.565-12.761-8.35-15.119-15.406 37.467-7.642 72.465-20.447 90.477-27.617 5.907-2.352 10.519-6.876 12.985-12.739 2.445-5.813 2.459-12.205.04-17.999-6.198-14.838-16.595-45.875-16.595-87.041v-56.113C399.773 64.497 335.276 0 255.999 0S112.225 64.497 112.225 143.774v56.113c0 41.166-10.397 72.203-16.594 87.041-2.42 5.793-2.406 12.185.039 17.998 2.466 5.864 7.078 10.389 12.985 12.74 18.012 7.17 53.011 19.975 90.477 27.617-2.358 7.055-7.85 12.84-15.119 15.406l-82.792 29.221c-22.187 7.83-37.093 28.899-37.093 52.427V504.5a7.5 7.5 0 0 0 15 0v-62.165c0-4.992.925-9.83 2.626-14.326l37.925 32.507a24.54 24.54 0 0 1 8.578 18.651V504.5a7.5 7.5 0 0 0 15 0v-25.333a39.52 39.52 0 0 0-13.816-30.04l-39.755-34.075a40.5 40.5 0 0 1 16.528-10.999l50.404-17.79c33.991 51.887 69.37 70.459 93.321 76.847a23.56 23.56 0 0 0 12.123 0c23.929-6.382 59.311-24.949 93.317-76.847l50.406 17.791a40.5 40.5 0 0 1 16.528 10.999l-39.755 34.075a39.52 39.52 0 0 0-13.816 30.04V504.5a7.5 7.5 0 0 0 15 0v-25.333c0-7.18 3.126-13.978 8.578-18.651l37.925-32.507a40.4 40.4 0 0 1 2.626 14.326V504.5a7.5 7.5 0 0 0 15 0v-62.165c-.001-23.527-14.907-44.596-37.093-52.426M109.496 299.11c-.873-2.076-.882-4.349-.025-6.401 8.099-19.389 17.753-51.232 17.753-92.822v-56.113C127.225 72.768 184.993 15 255.999 15s128.774 57.768 128.774 128.774v56.113c0 41.588 9.655 73.432 17.753 92.821.857 2.052.849 4.326-.025 6.402a8.47 8.47 0 0 1-4.706 4.619c-17.262 6.872-50.526 19.06-86.2 26.504V304.77c33.507-19.306 56.113-55.496 56.113-96.866V175.84c0-21.816-17.749-39.564-39.564-39.564h-12.926L277.334 98.39a7.5 7.5 0 0 0-12.803 5.303v32.581h-40.596a7.5 7.5 0 0 0 0 15h48.096a7.5 7.5 0 0 0 7.5-7.5V121.8l27.277 27.277a7.5 7.5 0 0 0 5.303 2.197h16.032c13.545 0 24.564 11.02 24.564 24.564v32.064c0 53.326-43.384 96.709-96.709 96.709s-96.709-43.384-96.709-96.709v-32.064c0-13.545 11.02-24.564 24.564-24.564h8.02a7.5 7.5 0 0 0 0-15h-8.02c-21.816 0-39.564 17.749-39.564 39.564v32.064c0 41.37 22.605 77.56 56.113 96.866v25.464c-35.673-7.445-68.937-19.632-86.2-26.504a8.47 8.47 0 0 1-4.706-4.618m148.702 149.506a8.6 8.6 0 0 1-4.395 0c-20.946-5.587-51.871-21.922-82.595-67.502l16.688-5.89c14.731 21.012 37.312 46.093 65.732 55.535a7.5 7.5 0 0 0 4.745-.006c13.278-4.444 26.571-12.852 39.509-24.991a7.5 7.5 0 1 0-10.263-10.939c-10.554 9.901-21.185 16.909-31.639 20.862-22.961-8.586-41.934-29.562-54.864-47.739 8.862-7.378 14.287-18.452 14.287-30.423v-25.548c12.589 4.928 26.282 7.638 40.597 7.638s28.007-2.71 40.597-7.638v25.548c0 11.97 5.424 23.044 14.286 30.423a216 216 0 0 1-4.691 6.281 7.5 7.5 0 0 0 1.323 10.523 7.46 7.46 0 0 0 4.595 1.577 7.49 7.49 0 0 0 5.929-2.9 236 236 0 0 0 6.075-8.2l16.677 5.886c-30.739 45.594-61.666 61.922-82.593 67.503"/><path d="M192.386 167.126a7.5 7.5 0 0 0 7.5 7.5h16.032a7.5 7.5 0 0 0 0-15h-16.032a7.5 7.5 0 0 0-7.5 7.5M296.081 174.626h16.032a7.5 7.5 0 0 0 0-15h-16.032a7.5 7.5 0 0 0 0 15"/></svg>