<svg xmlns="http://www.w3.org/2000/svg" xml:space="preserve" viewBox="0 0 512 512"><path d="m408.461 396.981-82.792-29.221H186.69l-82.792 29.221c-19.23 6.787-32.089 24.963-32.089 45.355V504.5H440.55v-62.164c0-20.392-12.859-38.568-32.089-45.355" style="fill:#ff8087"/><path d="m221.604 480.325 32.631-8.159c.637-.159 1.291-.24 1.944-.24s1.306.08 1.94.24l32.633 8.158a56.2 56.2 0 0 0 13.632 1.682c22.719 0 43.064-13.586 51.832-34.613 8.247-19.773 12.745-41.908 13.266-64.17l-43.814-15.464H186.69l-43.814 15.463c.52 22.262 5.019 44.398 13.266 64.172 8.77 21.026 29.114 34.612 51.832 34.612a56.2 56.2 0 0 0 13.63-1.681" style="fill:#e6646e"/><path d="M345.36 369.613c-.383-6.493-4.635-12.164-10.776-14.305l-30.316-10.309H208.09l-30.316 10.309c-6.141 2.141-10.393 7.813-10.776 14.305-1.71 29 4.617 52.407 11.339 68.525 6.127 14.692 21.993 22.716 37.436 18.856l32.629-8.158a32.06 32.06 0 0 1 15.555 0l32.629 8.158c15.442 3.859 31.309-4.165 37.436-18.856 6.721-16.117 13.049-39.525 11.338-68.525" style="fill:#ffe17d"/><path d="M256.179 416.323c-26.563 0-48.097-21.534-48.097-48.097v-64.129h96.194v64.129c0 26.563-21.534 48.097-48.097 48.097" style="fill:#b67f5f"/><path d="M208.082 341.937c14.8 6.544 31.063 10.257 48.097 10.257s33.296-3.713 48.097-10.257v-37.84h-96.194z" style="fill:#a06e50"/><path d="M272.212 71.629h-32.065c-17.709 0-32.064-14.356-32.064-32.064 0-17.709 14.356-32.064 32.064-32.064h32.065c17.709 0 32.064 14.356 32.064 32.064s-14.356 32.064-32.064 32.064" style="fill:#6e5a64"/><path d="M304.276 247.984h-96.194c-53.126 0-96.193-43.067-96.193-96.193s43.067-96.193 96.193-96.193h96.194c53.126 0 96.193 43.067 96.193 96.193.001 53.126-43.067 96.193-96.193 96.193" style="fill:#84737b"/><path d="M304.276 95.677h-96.194c-39.781 0-72.145 32.364-72.145 72.145s32.364 72.145 72.145 72.145h96.194c39.781 0 72.145-32.364 72.145-72.145s-32.364-72.145-72.145-72.145" style="fill:#6e5a64"/><path d="M371.92 191.871h-8.667c-6.009 0-10.88-4.871-10.88-10.88v-13.168c0-26.563-21.534-48.097-48.097-48.097h-96.194c-26.563 0-48.097 21.534-48.097 48.097v13.168c0 6.009-4.871 10.88-10.88 10.88h-8c-10.482 0-20.035 7.542-21.08 17.972-1.202 11.996 8.186 22.109 19.936 22.109h12.413c4.106 53.796 48.957 96.194 103.805 96.194s99.699-42.398 103.805-96.194h13.08c11.75 0 21.138-10.113 19.936-22.109-1.045-10.43-10.598-17.972-21.08-17.972" style="fill:#cd916e"/><path d="M304.276 119.726h-96.194c-26.563 0-48.097 21.534-48.097 48.097v13.167c0 6.092-13.145 10.826-19.237 10.882-10.403.096-19.841 7.607-20.879 17.971-1.202 11.995 8.186 22.109 19.937 22.109h12.568c4.106 53.796 48.957 96.194 103.805 96.194 5.483 0 10.83-.534 16.083-1.35-49.946-7.709-88.228-50.754-88.228-102.859v-40.081c0-22.136 17.945-40.081 40.081-40.081h64.316c12.856 0 23.239-10.236 23.779-23.081l.011-.257c-2.59-.432-5.232-.711-7.945-.711" style="fill:#b67f5f"/><path d="M208.082 199.887c13.45 0 24.925 8.299 29.687 20.04 1.508-3.718 2.378-7.766 2.378-12.024 0-17.709-14.355-32.065-32.065-32.065s-32.065 14.355-32.065 32.065c0 4.259.87 8.306 2.378 12.024 4.762-11.741 16.238-20.04 29.687-20.04M304.276 199.887c13.45 0 24.925 8.299 29.687 20.04 1.508-3.718 2.378-7.766 2.378-12.024 0-17.709-14.355-32.065-32.065-32.065s-32.065 14.355-32.065 32.065c0 4.259.87 8.306 2.378 12.024 4.762-11.741 16.237-20.04 29.687-20.04" style="fill:#b67f5f"/><path d="m410.957 390.85-58.06-20.492c-.021-.398-.026-.785-.049-1.186-.565-9.576-6.765-17.798-15.85-20.964l-25.222-8.576v-18.829c29.243-16.85 50.174-46.562 55.03-81.351h5.607c15.186 0 27.54-12.354 27.54-27.54 0-4.709-1.19-9.145-3.282-13.026 7.398-14.506 11.299-30.702 11.299-47.095 0-55.004-43.051-100.135-97.226-103.486a38 38 0 0 0 1.032-8.74C311.776 17.749 294.027 0 272.212 0h-32.064c-21.816 0-39.565 17.749-39.565 39.564 0 2.965.359 5.881 1.032 8.74-54.175 3.351-97.226 48.482-97.226 103.486 0 16.384 3.899 32.601 11.296 47.101a27.4 27.4 0 0 0-3.28 13.02c0 15.186 12.354 27.54 27.54 27.54h5.607c4.856 34.789 25.787 64.501 55.03 81.351v18.83l-25.276 8.595c-9.03 3.147-15.229 11.369-15.795 20.945-.021.357-.025.702-.044 1.058l-58.424 20.62c-22.187 7.83-37.093 28.899-37.093 52.427V504.5c0 4.143 3.357 7.5 7.5 7.5s7.5-3.357 7.5-7.5v-61.224c0-5.175.994-10.185 2.817-14.82l38.092 32.65a24.54 24.54 0 0 1 8.578 18.651v24.623c0 4.143 3.357 7.5 7.5 7.5s7.5-3.357 7.5-7.5v-24.623a39.52 39.52 0 0 0-13.816-30.04l-39.773-34.091a40.5 40.5 0 0 1 16.187-10.633l53.338-18.825c1.006 23.438 6.804 42.297 12.043 54.856 7.613 18.254 27.033 28.027 46.177 23.245l38.587-9.647 38.586 9.647a40.2 40.2 0 0 0 9.75 1.208c15.668-.001 30.111-9.31 36.427-24.453 5.229-12.537 11.015-31.353 12.036-54.732l52.986 18.701a40.5 40.5 0 0 1 16.346 10.804l-39.574 33.92a39.52 39.52 0 0 0-13.816 30.04v24.623c0 4.143 3.357 7.5 7.5 7.5s7.5-3.357 7.5-7.5v-24.623c0-7.18 3.127-13.979 8.578-18.651l37.823-32.419a40.4 40.4 0 0 1 2.728 14.589V504.5c0 4.143 3.357 7.5 7.5 7.5s7.5-3.357 7.5-7.5v-61.224c0-23.527-14.906-44.595-37.093-52.426M240.147 15h32.064c13.545 0 24.564 11.02 24.564 24.564 0 2.904-.559 5.76-1.639 8.532H217.22c-1.08-2.772-1.639-5.628-1.639-8.532C215.582 26.02 226.602 15 240.147 15m-32.065 48.097h96.194c48.905 0 88.693 39.788 88.693 88.693a88.9 88.9 0 0 1-7.552 35.853 27.4 27.4 0 0 0-13.005-3.271h-12.538v-16.548c0-30.656-24.94-55.597-55.597-55.597-4.143 0-7.5 3.357-7.5 7.5s3.357 7.5 7.5 7.5c22.385 0 40.597 18.212 40.597 40.597v16.548h-8.74c-7.21-9.78-18.804-16.139-31.859-16.139-16.312 0-30.346 9.923-36.392 24.049h-23.41c-6.046-14.125-20.081-24.049-36.393-24.049-13.055 0-24.649 6.359-31.859 16.139h-8.735v-16.548c0-22.385 18.212-40.597 40.597-40.597h64.129c4.143 0 7.5-3.357 7.5-7.5s-3.357-7.5-7.5-7.5h-64.129c-30.656 0-55.597 24.94-55.597 55.597v16.548h-12.543a27.37 27.37 0 0 0-13 3.269 89 89 0 0 1-7.557-35.85c.003-48.906 39.791-88.694 88.696-88.694m96.194 120.135c13.545 0 24.564 11.02 24.564 24.564s-11.02 24.564-24.564 24.564-24.564-11.02-24.564-24.564 11.019-24.564 24.564-24.564m-96.194 0c13.546 0 24.565 11.02 24.565 24.564s-11.02 24.564-24.565 24.564-24.564-11.02-24.564-24.564 11.019-24.564 24.564-24.564m-48.612 40.704c0-4.143-3.357-7.5-7.5-7.5s-7.5 3.357-7.5 7.5c0 .172.006.344.007.516h-4.531c-6.915 0-12.54-5.625-12.54-12.54s5.625-12.54 12.54-12.54h29.484a39.5 39.5 0 0 0-.912 8.426c0 21.816 17.748 39.564 39.564 39.564s39.565-17.748 39.565-39.564c0-.173-.011-.343-.013-.516h17.091c-.002.172-.013.343-.013.516 0 21.816 17.748 39.564 39.564 39.564s39.564-17.748 39.564-39.564c0-2.892-.32-5.709-.912-8.426h29.484c6.915 0 12.54 5.625 12.54 12.54s-5.625 12.54-12.54 12.54h-4.531c.001-.172.007-.343.007-.516 0-4.143-3.357-7.5-7.5-7.5s-7.5 3.357-7.5 7.5c0 53.326-43.384 96.71-96.71 96.71-53.324 0-96.708-43.384-96.708-96.71m167.629 211.316c-4.736 11.354-16.805 17.442-28.694 14.466L258 439.616a7.5 7.5 0 0 0-3.639 0l-40.406 10.102c-11.893 2.977-23.959-3.111-28.694-14.466-5.843-14.01-12.455-36.693-10.774-65.197.207-3.509 2.467-6.517 5.704-7.646l20.393-6.934v13.315c0 30.656 24.941 55.597 55.598 55.597 10.975 0 21.592-3.195 30.703-9.241a7.5 7.5 0 0 0 2.103-10.396 7.5 7.5 0 0 0-10.396-2.103c-6.646 4.409-14.395 6.739-22.41 6.739-22.386 0-40.598-18.212-40.598-40.597v-40.783c12.59 4.928 26.283 7.638 40.598 7.638s28.007-2.71 40.597-7.638v40.782c0 4.654-.779 9.214-2.315 13.553a7.5 7.5 0 0 0 4.565 9.573 7.5 7.5 0 0 0 2.504.433 7.5 7.5 0 0 0 7.069-4.998 55.4 55.4 0 0 0 3.177-18.561v-13.315l20.339 6.916c3.291 1.147 5.551 4.155 5.758 7.664 1.678 28.506-4.935 51.189-10.777 65.199"/><path d="M285.496 270.063a7.5 7.5 0 0 0 .069-10.606 7.5 7.5 0 0 0-10.606-.069c-2.736 2.7-9.297 5.854-18.779 5.854s-16.044-3.154-18.781-5.855a7.5 7.5 0 0 0-10.535 10.677c6.459 6.373 17.419 10.178 29.316 10.178 11.898 0 22.857-3.804 29.316-10.179M208.082 215.994c4.143 0 7.5-3.357 7.5-7.5v-8.017c0-4.143-3.357-7.5-7.5-7.5s-7.5 3.357-7.5 7.5v8.017c0 4.143 3.357 7.5 7.5 7.5M304.276 215.994c4.143 0 7.5-3.357 7.5-7.5v-8.017c0-4.143-3.357-7.5-7.5-7.5s-7.5 3.357-7.5 7.5v8.017a7.5 7.5 0 0 0 7.5 7.5M256.26 480.968h-.08c-4.143 0-7.46 3.357-7.46 7.5s3.397 7.5 7.54 7.5 7.5-3.357 7.5-7.5-3.358-7.5-7.5-7.5"/></svg>