<svg xmlns="http://www.w3.org/2000/svg" xml:space="preserve" viewBox="0 0 512 512"><path d="m413.862 355.701-61.469-18.079c-23.881-7.024-40.28-28.941-40.28-53.833H199.887c0 24.892-16.399 46.809-40.28 53.833l-61.47 18.079c-20.469 6.02-34.525 24.806-34.525 46.142V504.5h384.774V401.842c.001-21.335-14.055-40.121-34.524-46.141" style="fill:#e6646e"/><path d="M256 7.5c70.835 0 128.258 57.423 128.258 128.258v56.113C384.258 312.113 256 352.194 256 408.306c0-56.113-128.258-96.194-128.258-216.435v-56.113C127.742 64.923 185.165 7.5 256 7.5" style="fill:#dc4655"/><path d="M280.048 360.21 256 392.274l-24.048-32.064v-80.162h48.096z" style="fill:#c9c6ca"/><path d="M175.839 199.887v42.42a32.06 32.06 0 0 0 20.156 29.771l39.165 15.666a56.1 56.1 0 0 0 41.68 0l39.165-15.666a32.06 32.06 0 0 0 20.156-29.771v-42.42z" style="fill:#dbd9dc"/><path d="M254.199 39.581c-52.955.969-94.392 46.403-94.392 99.367v43.606a24.05 24.05 0 0 0 16.443 22.814l31.654 10.551c0 8.854 7.179 16.032 16.032 16.032h64.129c8.854 0 16.032-7.179 16.032-16.032l31.652-10.551a24.05 24.05 0 0 0 16.445-22.815v-46.795c0-53.725-44.044-97.164-97.995-96.177" style="fill:#edebed"/><path d="M207.903 135.758c0-44.813 30.688-82.357 72.163-93.045-8.258-2.131-16.906-3.296-25.867-3.132-52.956.969-94.392 46.403-94.392 99.367v43.606a24.05 24.05 0 0 0 16.444 22.814l23.235 7.744c3.55 1.184 6.471 3.609 8.418 6.74v-84.094z" style="fill:#dbd9dc"/><circle cx="215.92" cy="159.81" r="24.05" style="fill:#e6646e"/><path d="M215.919 159.806c8.879 0 16.547 4.866 20.714 12.024 2.065-3.55 3.335-7.621 3.335-12.024 0-13.282-10.767-24.048-24.048-24.048-13.282 0-24.048 10.767-24.048 24.048 0 4.403 1.27 8.474 3.335 12.024 4.165-7.157 11.833-12.024 20.712-12.024" style="fill:#dc4655"/><circle cx="296.08" cy="159.81" r="24.05" style="fill:#e6646e"/><path d="M296.081 159.806c8.879 0 16.547 4.866 20.714 12.024 2.065-3.55 3.335-7.621 3.335-12.024 0-13.282-10.767-24.048-24.048-24.048s-24.048 10.767-24.048 24.048c0 4.403 1.27 8.474 3.335 12.024 4.165-7.157 11.832-12.024 20.712-12.024" style="fill:#dc4655"/><path d="M215.919 128.258c-17.396 0-31.548 14.152-31.548 31.549s14.152 31.548 31.548 31.548 31.548-14.152 31.548-31.548c.001-17.397-14.152-31.549-31.548-31.549m0 48.096c-9.125 0-16.548-7.423-16.548-16.548s7.423-16.549 16.548-16.549 16.548 7.424 16.548 16.549-7.423 16.548-16.548 16.548M296.081 128.258c-17.396 0-31.548 14.152-31.548 31.549s14.152 31.548 31.548 31.548 31.548-14.152 31.548-31.548-14.152-31.549-31.548-31.549m0 48.096c-9.125 0-16.548-7.423-16.548-16.548s7.423-16.549 16.548-16.549 16.548 7.424 16.548 16.549-7.423 16.548-16.548 16.548M256 184.371a7.5 7.5 0 0 0-7.5 7.5v8.016c0 4.143 3.358 7.5 7.5 7.5s7.5-3.357 7.5-7.5v-8.016a7.5 7.5 0 0 0-7.5-7.5"/><path d="m415.978 350.876-61.469-18.079c-7.814-2.298-14.815-6.448-20.521-12.121 29.961-31.567 57.77-71.242 57.77-128.805v-56.113C391.758 60.9 330.857 0 256 0S120.242 60.9 120.242 135.758v56.113c0 57.562 27.807 97.236 57.767 128.803-5.704 5.673-12.699 9.823-20.518 12.123l-61.469 18.079c-23.498 6.911-39.909 28.845-39.909 53.338V504.5c0 4.143 3.358 7.5 7.5 7.5s7.5-3.357 7.5-7.5V404.214a40.2 40.2 0 0 1 3.19-15.666l45.566 39.87a24.56 24.56 0 0 1 8.389 18.486V504.5c0 4.143 3.358 7.5 7.5 7.5s7.5-3.357 7.5-7.5v-57.596a39.56 39.56 0 0 0-13.511-29.775l-47.083-41.197c4.76-4.908 10.763-8.657 17.59-10.665l61.47-18.079c10.205-3.002 19.337-8.414 26.79-15.807 5.437 5.383 10.847 10.538 16.079 15.524 23.56 22.451 43.907 41.841 43.907 61.402 0 4.143 3.358 7.5 7.5 7.5s7.5-3.357 7.5-7.5c0-19.562 20.347-38.951 43.908-61.402 5.231-4.985 10.64-10.14 16.076-15.521 7.456 7.395 16.596 12.804 26.793 15.804l61.469 18.079c6.827 2.008 12.831 5.757 17.59 10.665l-47.083 41.197a39.57 39.57 0 0 0-13.511 29.775V504.5c0 4.143 3.358 7.5 7.5 7.5s7.5-3.357 7.5-7.5v-57.596a24.56 24.56 0 0 1 8.389-18.486l45.566-39.87a40.2 40.2 0 0 1 3.19 15.666V504.5c0 4.143 3.358 7.5 7.5 7.5s7.5-3.357 7.5-7.5V404.214c0-24.493-16.411-46.427-39.909-53.338M183.339 215.637l17.746 5.915c2.531 10.265 11.816 17.899 22.851 17.899h.516v.517c0 4.143 3.358 7.5 7.5 7.5s7.5-3.357 7.5-7.5v-.517h9.048v.517a7.5 7.5 0 0 0 7.5 7.5 7.5 7.5 0 0 0 7.5-7.5v-.517h9.048v.517c0 4.143 3.358 7.5 7.5 7.5s7.5-3.357 7.5-7.5v-.517h.516c11.035 0 20.32-7.635 22.851-17.899l17.746-5.915v26.671c0 10.103-6.061 19.055-15.441 22.807l-39.165 15.667c-11.643 4.658-24.466 4.657-36.109 0l-39.166-15.667c-9.38-3.752-15.441-12.704-15.441-22.807zM256 299.278a63.3 63.3 0 0 0 16.548-2.223v15.573h-33.097v-15.573A63.3 63.3 0 0 0 256 299.278m-16.548 28.351h33.097v17.064h-33.097zM256 382.274c-4.176-7.374-9.888-14.579-16.548-21.851v-.73h33.097v.73c-6.661 7.272-12.373 14.478-16.549 21.851m41.06-46.229a1573 1573 0 0 0-9.511 9.115v-53.62l31.242-12.498c15.108-6.043 24.871-20.462 24.871-36.734v-32.307a31.49 31.49 0 0 0 16.032-27.447v-46.796a103.57 103.57 0 0 0-25.953-68.622 7.5 7.5 0 0 0-11.242 9.93 88.58 88.58 0 0 1 22.195 58.692v46.796a16.53 16.53 0 0 1-11.315 15.699l-31.653 10.551a7.5 7.5 0 0 0-5.128 7.115c0 4.705-3.828 8.532-8.532 8.532h-64.129c-4.705 0-8.532-3.827-8.532-8.532a7.5 7.5 0 0 0-5.128-7.115l-31.653-10.551a16.53 16.53 0 0 1-11.315-15.699v-46.796c0-48.905 39.788-88.693 88.693-88.693 15.6 0 30.937 4.104 44.355 11.868a7.5 7.5 0 0 0 7.513-12.982c-15.701-9.085-33.636-13.887-51.87-13.887-57.177 0-103.693 46.517-103.693 103.693v46.796A31.49 31.49 0 0 0 168.339 210v32.307c0 16.272 9.762 30.691 24.87 36.734l31.243 12.498v53.62a1605 1605 0 0 0-9.511-9.115c-17.936-17.092-38.266-36.465-53.709-59.849-17.488-26.479-25.989-54.062-25.989-84.325v-56.113C135.242 69.172 189.414 15 256 15s120.758 54.172 120.758 120.758v56.113c0 30.264-8.501 57.847-25.989 84.325-15.443 23.384-35.773 42.757-53.709 59.849"/><path d="M256 432.871a7.5 7.5 0 0 0-7.5 7.5V504.5c0 4.143 3.358 7.5 7.5 7.5s7.5-3.357 7.5-7.5v-64.129a7.5 7.5 0 0 0-7.5-7.5"/></svg>