<svg xmlns="http://www.w3.org/2000/svg" xml:space="preserve" viewBox="0 0 512.002 512.002"><path d="m408.282 380.949-82.792-29.221H186.51l-82.792 29.221c-19.23 6.787-32.089 24.963-32.089 45.355V504.5h368.742v-78.196c0-20.393-12.86-38.568-32.089-45.355" style="fill:#edebed"/><path d="M215.919 352.19h80.16V504.5h-80.16z" style="fill:#a5cdff"/><path d="M215.919 396.141A71.8 71.8 0 0 0 256 408.306a71.8 71.8 0 0 0 40.081-12.165v-43.948h-80.162z" style="fill:#8cb4eb"/><path d="M400.177 257.719c-3.97-10.039-7.903-25.995-7.903-49.816v-64.129C392.274 68.511 331.262 7.5 256 7.5S119.726 68.511 119.726 143.774v64.129c0 23.821-3.933 39.777-7.903 49.816-3.324 8.406 1.229 17.891 9.792 20.787 19.083 6.454 51.306 16.163 86.289 21.579h96.194c34.983-5.415 67.206-15.124 86.288-21.579 8.562-2.896 13.115-12.381 9.791-20.787" style="fill:#64505a"/><path d="M256 384.258c-26.563 0-48.097-21.534-48.097-48.097v-56.113h96.194v56.113c0 26.563-21.534 48.097-48.097 48.097" style="fill:#e3aa75"/><path d="M207.903 318.035c14.744 6.465 30.994 10.11 48.097 10.11s33.353-3.645 48.097-10.11v-37.987h-96.194z" style="fill:#d29b6e"/><path d="M256 304.097c-57.554 0-104.21-46.656-104.21-104.21V79.645h208.419v120.242c.001 57.554-46.656 104.21-104.209 104.21" style="fill:#f5b97d"/><path d="M219.696 123.356a7.48 7.48 0 0 1 4.695-1.626 7.8 7.8 0 0 1 4.692 1.564c21.598 16.119 65.395 43.127 131.126 57.541V79.645H151.79v120.242c0 57.553 46.656 104.21 104.21 104.21 5.467 0 10.793-.548 16.032-1.358-49.921-7.73-88.177-50.764-88.177-102.851V165.24c0-10.998 5.677-21.14 14.946-27.059 7.172-4.581 14.231-9.525 20.895-14.825" style="fill:#e3aa75"/><path d="M111.709 456.4h80.16v48.1h-80.16z" style="fill:#a5cdff"/><path d="M219.928 227.914c0 17.709 16.15 32.064 36.072 32.064s36.073-14.355 36.072-32.064z" style="fill:#fff"/><path d="M238.673 99.907c23.381 17.451 74.581 48.611 153.601 59.899v-12.461c0-76.384-62.507-141.251-138.877-139.821-74.061 1.388-133.671 61.857-133.671 136.25v5.115c17.098-6.445 58.412-23.505 89.991-48.618 8.426-6.701 20.329-6.803 28.956-.364" style="fill:#6e5a64"/><path d="m339.598 338.236-35.501-16.745L256 504.5h40.081l44.337-96.063a16.03 16.03 0 0 0-1.217-15.611l-11.055-16.583 15.692-20.923c4.314-5.754 2.263-14.017-4.24-17.084M172.402 338.236l35.501-16.745L256 504.5h-40.081l-44.337-96.063a16.03 16.03 0 0 1 1.217-15.611l11.055-16.583-15.692-20.923c-4.314-5.754-2.263-14.017 4.24-17.084" style="fill:#dbd9dc"/><path d="M392.109 137.55C388.853 62.921 326.448 6.155 253.397 7.524c-15.032.282-29.417 3.105-42.881 7.877 31.608 40.957 91.934 101.475 181.593 122.149" style="fill:#84737b"/><path d="m410.778 373.876-57.831-20.41c.837-3.064.895-6.325.106-9.502a18.79 18.79 0 0 0-10.256-12.511l-31.201-14.717v-10.274c32.328-5.506 61.735-14.27 81.191-20.852a23.64 23.64 0 0 0 13.814-12.401c2.703-5.83 2.897-12.312.55-18.247-3.366-8.511-7.377-23.584-7.377-47.059v-64.129C399.774 64.497 335.277 0 256 0S112.226 64.497 112.226 143.774v64.129c0 23.477-4.012 38.548-7.377 47.059-2.348 5.937-2.153 12.417.55 18.248a23.64 23.64 0 0 0 13.813 12.4c19.457 6.582 48.863 15.346 81.192 20.852v10.274l-31.2 14.717a18.78 18.78 0 0 0-10.256 12.511 18.8 18.8 0 0 0 .106 9.502l-57.83 20.41c-22.187 7.831-37.093 28.899-37.093 52.428V504.5c0 4.143 3.358 7.5 7.5 7.5s7.5-3.357 7.5-7.5v-78.196c0-17.18 10.885-32.565 27.085-38.283l60.963-21.516 7.494 9.993-8.113 12.168c-4.506 6.76-5.19 15.54-1.786 22.914l17.225 37.323H159.29v-8.532c0-4.143-3.358-7.5-7.5-7.5s-7.5 3.357-7.5 7.5v8.532h-32.581a7.5 7.5 0 0 0-7.5 7.5V504.5a7.5 7.5 0 0 0 7.5 7.5h80.162a7.5 7.5 0 0 0 7.5-7.5v-17.958l9.739 21.101a7.5 7.5 0 1 0 13.619-6.285l-44.337-96.064a8.59 8.59 0 0 1 .647-8.308l11.056-16.583a7.5 7.5 0 0 0-.24-8.66l-15.693-20.924c-.956-1.274-.822-2.577-.657-3.241.165-.663.656-1.878 2.097-2.558l27.341-12.896 16.319 62.096a7.501 7.501 0 0 0 14.508-3.812l-.628-2.388A71.8 71.8 0 0 0 256 391.76a71.8 71.8 0 0 0 22.857-3.738L256 474.995l-13.821-52.589a7.5 7.5 0 1 0-14.508 3.812l21.075 80.189a7.5 7.5 0 0 0 14.507 0l45.804-174.283 27.341 12.896a3.8 3.8 0 0 1 2.097 2.558 3.8 3.8 0 0 1-.658 3.241l-15.692 20.924a7.5 7.5 0 0 0-.24 8.66l11.055 16.583a8.59 8.59 0 0 1 .648 8.309l-44.337 96.063a7.5 7.5 0 0 0 6.805 10.644 7.5 7.5 0 0 0 6.814-4.359l44.337-96.063c3.404-7.375 2.72-16.155-1.786-22.915l-8.112-12.168 7.494-9.992 60.963 21.516c16.201 5.718 27.085 21.103 27.085 38.283V504.5c0 4.143 3.358 7.5 7.5 7.5s7.5-3.357 7.5-7.5v-78.196c0-23.529-14.907-44.597-37.093-52.428M184.371 497h-65.162v-33.097h25.081v.516c0 4.143 3.358 7.5 7.5 7.5s7.5-3.357 7.5-7.5v-.516h25.081zm208.621-230.099a8.46 8.46 0 0 1-5.01 4.5c-16.038 5.426-39.01 12.371-64.719 17.614 26.98-20.412 44.446-52.767 44.446-89.129v-36.732a404 404 0 0 0 17.064 3.103v41.646c0 20.742 2.835 38.431 8.429 52.575.822 2.078.747 4.358-.21 6.423M256 376.758a56.6 56.6 0 0 1-27.721-7.245l-12.876-48.992v-16.562c12.589 4.928 26.282 7.638 40.597 7.638s28.007-2.71 40.597-7.638v16.562l-12.877 48.998c-8.418 4.734-17.996 7.239-27.72 7.239m0-80.161c-53.326 0-96.709-43.384-96.709-96.71v-32.064c0-4.143-3.358-7.5-7.5-7.5s-7.5 3.357-7.5 7.5v32.064c0 36.362 17.466 68.717 44.446 89.129-25.709-5.244-48.681-12.189-64.72-17.614a8.46 8.46 0 0 1-5.009-4.5c-.958-2.065-1.032-4.347-.21-6.424 5.592-14.142 8.428-31.83 8.428-52.574v-56.426c1.158-.195 2.259-.4 2.577-.491 1.861-.532 46.021-13.384 84.703-44.775 5.658-4.593 13.805-4.674 19.81-.198 14.775 11.013 39.802 26.955 75.128 40.367a7.5 7.5 0 0 0 5.324-14.024c-33.707-12.797-57.48-27.93-71.489-38.371-11.516-8.581-27.234-8.344-38.226.579-32.013 25.98-69.106 38.747-77.586 41.448C131.494 68.606 187.601 15 256 15c71.006 0 128.774 57.768 128.774 128.774v7.276c-13.143-2.176-26.089-5-38.586-8.443a7.5 7.5 0 0 0-3.985 14.461c3.47.956 6.977 1.858 10.506 2.723v40.095c0 53.327-43.383 96.711-96.709 96.711"/><path d="M199.887 167.307h16.032c4.142 0 7.5-3.357 7.5-7.5s-3.358-7.5-7.5-7.5h-16.032c-4.142 0-7.5 3.357-7.5 7.5s3.358 7.5 7.5 7.5M296.081 167.307h16.032c4.142 0 7.5-3.357 7.5-7.5s-3.358-7.5-7.5-7.5h-16.032c-4.142 0-7.5 3.357-7.5 7.5s3.357 7.5 7.5 7.5M400.291 452.911H387.75v-12.54c0-4.143-3.358-7.5-7.5-7.5s-7.5 3.357-7.5 7.5v12.54h-12.541c-4.142 0-7.5 3.357-7.5 7.5s3.358 7.5 7.5 7.5h12.541v12.54c0 4.143 3.358 7.5 7.5 7.5s7.5-3.357 7.5-7.5v-12.54h12.541c4.142 0 7.5-3.357 7.5-7.5s-3.358-7.5-7.5-7.5M215.403 191.871v-8.017c0-4.143-3.358-7.5-7.5-7.5s-7.5 3.357-7.5 7.5v8.017c0 4.143 3.358 7.5 7.5 7.5s7.5-3.357 7.5-7.5M304.097 176.354a7.5 7.5 0 0 0-7.5 7.5v8.017c0 4.143 3.358 7.5 7.5 7.5s7.5-3.357 7.5-7.5v-8.017a7.5 7.5 0 0 0-7.5-7.5M212.427 227.915c0 21.816 19.547 39.564 43.573 39.564s43.573-17.748 43.573-39.564a7.5 7.5 0 0 0-7.5-7.5h-72.146a7.5 7.5 0 0 0-7.5 7.5m70.784 7.5c-3.695 9.889-14.497 17.064-27.211 17.064s-23.516-7.176-27.211-17.064z"/></svg>