<svg xmlns="http://www.w3.org/2000/svg" xml:space="preserve" viewBox="0 0 512.004 512.004"><path d="m430.425 357.353-42.553-239.365C376.507 54.064 320.93 7.498 256.003 7.5c-64.928 0-120.505 46.568-131.869 110.494l-42.553 239.36a16.03 16.03 0 0 0 7.536 16.554l46.644 26.383h240.484l46.644-26.383a16.035 16.035 0 0 0 7.536-16.555" style="fill:#6e5a64"/><path d="m408.285 396.981-82.792-29.221a32.065 32.065 0 0 1-21.393-30.237V296.08h-96.194v41.443a32.06 32.06 0 0 1-21.393 30.236L103.72 396.98c-19.229 6.787-32.089 24.962-32.089 45.354V504.5h368.742v-62.165c.001-20.392-12.858-38.567-32.088-45.354" style="fill:#edebed"/><path d="M412.806 398.987c-32.505 29.645-90.561 49.4-156.803 49.4s-124.297-19.756-156.803-49.4c-16.657 7.887-27.568 24.627-27.568 43.349V504.5h368.742v-62.164c0-18.722-10.912-35.462-27.568-43.349" style="fill:#6e5a64"/><path d="M207.906 326.051c14.744 6.465 30.994 10.11 48.097 10.11s33.353-3.645 48.097-10.11v-29.97h-96.194z" style="fill:#dbd9dc"/><path d="M151.793 207.903c0 57.553 46.656 104.21 104.21 104.21s104.21-46.656 104.21-104.21v-62.802c0-6.218-.514-12.425-1.536-18.559-8.365-50.191-51.79-86.978-102.674-86.978-50.883 0-94.308 36.787-102.674 86.978a113 113 0 0 0-1.536 18.559z" style="fill:#f5b97d"/><path d="M358.677 126.542c-8.615-51.687-54.411-89.159-107.243-86.879-47.065 2.031-87.872 36.604-97.338 82.753a113 113 0 0 0-2.302 22.685v6.27l.002-.002-.002.004v56.53c0 57.553 46.656 104.21 104.21 104.21 5.467 0 10.793-.548 16.032-1.358-49.921-7.73-88.177-50.764-88.177-102.851v-44.451c0-15.68 11.362-28.876 26.795-31.648 14.526-2.609 29.933-4.062 45.351-4.062 36.022 0 70.28 7.047 96.461 19.843l7.749 3.787v-6.27a113 113 0 0 0-1.538-18.561" style="fill:#e3aa75"/><path d="M256.003 39.565c-50.219 0-93.107 35.86-102.262 85.047 27.047-12.943 62.828-20.918 102.262-20.918s75.216 7.975 102.262 20.918c-9.155-49.187-52.043-85.047-102.262-85.047" style="fill:#edebed"/><path d="M256.003 39.565c-50.219 0-93.107 35.86-102.262 85.047 10.529-5.038 22.393-9.3 35.276-12.651 11.969-37.478 44.188-65.04 83.017-71.077-5.244-.815-10.583-1.319-16.031-1.319" style="fill:#dbd9dc"/><path d="M256.003 448.387c-66.242 0-124.297-19.756-156.803-49.4-7.338 3.475-13.468 8.736-18.135 15.061 35.151 36.565 100.449 58.388 174.938 58.388s139.785-21.823 174.938-58.387c-4.667-6.325-10.796-11.587-18.135-15.062-32.506 29.645-90.561 49.4-156.803 49.4" style="fill:#64505a"/><path d="m410.792 389.912 15.955-9.573c8.313-4.988 12.759-14.753 11.062-24.298l-42.554-239.365C383.236 49.067 324.672-.002 256.003 0c-68.67 0-127.234 49.071-139.253 116.681l-42.553 239.36c-1.697 9.545 2.748 19.31 11.062 24.298l15.955 9.573c-22.181 7.834-37.082 28.899-37.082 52.424V504.5c0 4.143 3.357 7.5 7.5 7.5s7.5-3.357 7.5-7.5v-62.164c0-14.71 7.984-28.098 20.447-35.234 12.68 11.524 29.59 21.706 49.235 29.589.916.367 1.86.541 2.791.541a7.5 7.5 0 0 0 2.795-14.463c-15.158-6.082-28.437-13.57-39.036-21.944l73.646-25.992c15.788-5.572 26.396-20.565 26.396-37.309v-25.548c12.589 4.928 26.282 7.638 40.597 7.638s28.007-2.71 40.597-7.638v25.548c0 16.743 10.608 31.736 26.396 37.309l73.675 26.003c-31.358 24.909-83.838 40.052-140.668 40.052-24.962 0-49.012-2.844-71.482-8.453a7.495 7.495 0 0 0-9.093 5.46 7.5 7.5 0 0 0 5.46 9.093c11.876 2.965 24.159 5.195 36.76 6.682l15.111 52.893a7.503 7.503 0 0 0 9.272 5.151 7.5 7.5 0 0 0 5.15-9.272l-13.515-47.301c7.36.493 14.809.749 22.336.749s14.982-.271 22.343-.774l-13.522 47.326a7.5 7.5 0 1 0 14.422 4.121l15.126-52.946c48.692-5.806 91.648-22.481 118.056-46.511 12.462 7.137 20.444 20.524 20.444 35.233V504.5c0 4.143 3.357 7.5 7.5 7.5s7.5-3.357 7.5-7.5v-62.164c.003-23.525-14.898-44.59-37.079-52.424M159.293 207.903V145.1c0-4.25.265-8.521.78-12.751 22.555-13.274 58.163-21.156 95.93-21.156 10.576 0 21.067.608 31.183 1.808 4.109.481 7.843-2.451 8.331-6.565a7.5 7.5 0 0 0-6.565-8.331c-10.698-1.268-21.784-1.911-32.948-1.911-34.917 0-67.348 6.15-91.705 17.137 12.847-39.145 49.333-66.266 91.705-66.266 42.376 0 78.866 27.126 91.709 66.279-7.679-3.451-16.233-6.452-25.597-8.964a7.5 7.5 0 0 0-3.887 14.489c13.003 3.488 24.596 8.131 33.704 13.483.515 4.23.78 8.501.78 12.75v62.803c0 53.326-43.384 96.71-96.71 96.71s-96.71-43.386-96.71-96.712M311.6 337.523V304.77c33.508-19.307 56.113-55.497 56.113-96.867V145.1c0-6.611-.551-13.271-1.638-19.792a111.73 111.73 0 0 0-37.943-66.8c-20.131-17.053-45.746-26.444-72.129-26.444s-51.998 9.392-72.129 26.444a111.7 111.7 0 0 0-37.942 66.8 120.6 120.6 0 0 0-1.639 19.792v62.803c0 41.37 22.606 77.56 56.113 96.867v32.753c0 10.396-6.586 19.704-16.389 23.164l-64.446 22.746-26.596-15.958a8.58 8.58 0 0 1-4.011-8.81l42.553-239.36C142.263 58.867 194.616 15 256.003 15c61.387-.002 113.739 43.863 124.484 104.301l42.554 239.365a8.58 8.58 0 0 1-4.011 8.81l-26.596 15.958-64.446-22.746c-9.802-3.46-16.388-12.769-16.388-23.165"/><path d="M274.784 242.645c-2.737 2.701-9.299 5.855-18.781 5.855s-16.044-3.154-18.781-5.855a7.5 7.5 0 0 0-10.535 10.677c6.459 6.373 17.419 10.178 29.316 10.178s22.857-3.805 29.316-10.178a7.5 7.5 0 0 0-10.535-10.677M207.906 184.371a7.5 7.5 0 0 0-7.5 7.5v8.016c0 4.143 3.357 7.5 7.5 7.5s7.5-3.357 7.5-7.5v-8.016a7.5 7.5 0 0 0-7.5-7.5M304.1 184.371a7.5 7.5 0 0 0-7.5 7.5v8.016c0 4.143 3.357 7.5 7.5 7.5s7.5-3.357 7.5-7.5v-8.016a7.5 7.5 0 0 0-7.5-7.5M215.922 160.322H199.89c-4.143 0-7.5 3.357-7.5 7.5s3.357 7.5 7.5 7.5h16.032c4.143 0 7.5-3.357 7.5-7.5s-3.357-7.5-7.5-7.5M312.116 160.322h-16.032c-4.143 0-7.5 3.357-7.5 7.5s3.357 7.5 7.5 7.5h16.032c4.143 0 7.5-3.357 7.5-7.5s-3.357-7.5-7.5-7.5"/></svg>