<svg xmlns="http://www.w3.org/2000/svg" xml:space="preserve" viewBox="0 0 512.002 512.002"><path d="m413.861 374.369-84.486-24.849a24.05 24.05 0 0 1-17.263-23.071v-54.418H199.887v54.418a24.05 24.05 0 0 1-17.263 23.071l-84.486 24.849c-20.469 6.02-34.525 24.806-34.525 46.142v83.987h384.772v-83.987c.001-21.336-14.055-40.122-34.524-46.142" style="fill:#f7d291"/><path d="m413.862 374.369-82.707-24.326c-15.5 25.296-43.314 42.229-75.155 42.229s-59.655-16.933-75.155-42.229l-82.707 24.326c-20.469 6.02-34.524 24.806-34.524 46.141v83.987h384.772V420.51c0-21.335-14.056-40.12-34.524-46.141" style="fill:#a5cdff"/><path d="M256 416.321c42.828 0 80.029-24.005 98.945-59.281l-23.79-6.996c-15.5 25.296-43.314 42.229-75.155 42.229s-59.655-16.933-75.155-42.229l-23.79 6.997c18.916 35.275 56.117 59.28 98.945 59.28" style="fill:#8cb4eb"/><path d="m167.823 353.873-40.08 11.789v98.755h40.08zM344.177 353.873l40.08 11.789v98.755h-40.08z" style="fill:#ff8250"/><path d="M360.209 432.353H151.791c-13.282 0-24.048 10.767-24.048 24.048v48.097h256.515v-48.097c-.001-13.281-10.767-24.048-24.049-24.048" style="fill:#ff9664"/><path d="M199.887 313.968c16.841 8.996 35.939 14.176 56.113 14.176s39.272-5.18 56.113-14.176v-33.921H199.887z" style="fill:#f0c382"/><path d="M372.233 167.822h-4.008v-32.064c0-61.98-50.245-112.225-112.225-112.225S143.775 73.778 143.775 135.757v32.064h-4.008c-11.068 0-20.04 8.972-20.04 20.04s8.972 20.04 20.04 20.04h12.429c4.106 53.796 48.958 96.193 103.804 96.193s99.698-42.398 103.804-96.193h12.429c11.068 0 20.04-8.973 20.04-20.04.001-11.067-8.972-20.039-20.04-20.039" style="fill:#ffe1a0"/><path d="M256 15.516c-70.835 0-128.258 57.423-128.258 128.257h256.515c0-70.834-57.422-128.257-128.257-128.257" style="fill:#ffe17d"/><path d="M256 15.516c-70.835 0-128.257 57.422-128.257 128.257h72.145c0-44.063 22.258-82.861 56.113-105.927z" style="fill:#ffd164"/><path d="M143.775 143.774v24.048h-4.008c-11.068 0-20.04 8.972-20.04 20.04s8.972 20.04 20.04 20.04h12.429c4.106 53.796 48.958 96.193 103.804 96.193 8.108 0 15.957-1.028 23.529-2.781C229.38 290.1 191.871 245.4 191.871 191.87c0-13.282 10.767-24.048 24.048-24.048H336.16c8.854 0 16.032-7.178 16.032-16.032v-8.016z" style="fill:#f7d291"/><path d="M274.558 223.935h-37.112c-12.254 0-22.548 9.214-23.901 21.393l-3.787 34.086a24.05 24.05 0 0 0 13.146 24.165l22.344 11.172a24.05 24.05 0 0 0 21.509 0l22.344-11.172a24.05 24.05 0 0 0 13.146-24.165l-3.787-34.086c-1.354-12.18-11.648-21.393-23.902-21.393" style="fill:#cd916e"/><path d="M253.262 306.067c-9.012-5.554-14.259-17.442-13.147-29.785l3.787-42.013a34.8 34.8 0 0 1 2.543-10.335h-9c-12.254 0-22.548 9.214-23.901 21.393l-3.787 34.086a24.05 24.05 0 0 0 13.147 24.165l22.344 11.172a24.05 24.05 0 0 0 21.51 0l.328-.164z" style="fill:#b67f5f"/><path d="M272.032 111.709h-32.064a8.016 8.016 0 0 1-8.016-8.016V15.516a8.016 8.016 0 0 1 8.016-8.016h32.064a8.016 8.016 0 0 1 8.016 8.016v88.177a8.016 8.016 0 0 1-8.016 8.016M344.177 111.709h-16.032a8.016 8.016 0 0 1-8.016-8.016V33.852c0-4.252 4.854-6.679 8.256-4.128l17.396 13.047a16.03 16.03 0 0 1 6.413 12.826v48.097a8.017 8.017 0 0 1-8.017 8.015" style="fill:#ffedb1"/><path d="M167.823 111.709h16.032a8.016 8.016 0 0 0 8.016-8.016V33.852c0-4.252-4.854-6.679-8.256-4.128L166.22 42.771a16.03 16.03 0 0 0-6.413 12.826v48.097a8.016 8.016 0 0 0 8.016 8.015" style="fill:#ffe17d"/><path d="M127.742 432.353v72.145h-24.048v-48.097c0-13.281 10.767-24.048 24.048-24.048M384.258 432.353v72.145h24.048v-48.097c0-13.281-10.767-24.048-24.048-24.048" style="fill:#8cb4eb"/><path d="M256.003 263.499c9.143 0 17.459-4.231 22.246-11.318a7.5 7.5 0 1 0-12.43-8.396c-1.965 2.908-5.726 4.715-9.816 4.715s-7.853-1.807-9.817-4.716a7.502 7.502 0 0 0-12.43 8.398c4.789 7.087 13.105 11.317 22.247 11.317M211.912 191.354c4.143 0 7.5-3.357 7.5-7.5v-8.017c0-4.143-3.357-7.5-7.5-7.5s-7.5 3.357-7.5 7.5v8.017a7.5 7.5 0 0 0 7.5 7.5M300.089 191.354c4.143 0 7.5-3.357 7.5-7.5v-8.017c0-4.143-3.357-7.5-7.5-7.5s-7.5 3.357-7.5 7.5v8.017c0 4.143 3.357 7.5 7.5 7.5"/><path d="m415.978 366.906-84.486-24.849c-6.994-2.057-11.879-8.585-11.879-15.876v-34.477c25.495-17.719 42.655-45.456 47.007-76.302h4.473c14.617 0 27.155-10.861 28.543-24.728.778-7.771-1.764-15.529-6.974-21.286a27.55 27.55 0 0 0-8.919-6.534v-11.581h16.548c4.143 0 7.5-3.357 7.5-7.5s-3.357-7.5-7.5-7.5h-8.747a135.58 135.58 0 0 0-31.849-80.124v-.553c0-7.367-3.519-14.404-9.413-18.826l-17.395-13.045a12.59 12.59 0 0 0-14.437-.519 134.5 134.5 0 0 0-31.427-11.627C285.273 4.927 279.226 0 272.032 0h-32.064c-7.193 0-13.241 4.927-14.99 11.578a134.5 134.5 0 0 0-31.427 11.628 12.59 12.59 0 0 0-14.436.518L161.72 36.771c-5.895 4.422-9.413 11.459-9.413 18.826v.554a135.57 135.57 0 0 0-31.849 80.123h-8.747c-4.143 0-7.5 3.357-7.5 7.5s3.357 7.5 7.5 7.5h16.549v11.917c-8.63 4.115-14.928 12.266-15.888 21.857-.778 7.771 1.763 15.53 6.973 21.289a27.6 27.6 0 0 0 20.426 9.066h5.598a111.14 111.14 0 0 0 16.599 44.806 112 112 0 0 0 30.422 31.502v34.471c0 7.291-4.885 13.819-11.879 15.876l-84.486 24.849c-23.497 6.911-39.908 28.845-39.908 53.338v84.254c0 4.143 3.357 7.5 7.5 7.5s7.5-3.357 7.5-7.5v-84.254c0-17.885 11.983-33.9 29.141-38.947l19.987-5.878V504.5c0 4.143 3.357 7.5 7.5 7.5s7.5-3.357 7.5-7.5v-48.097c0-9.125 7.424-16.549 16.549-16.549h32.064c4.143 0 7.5-3.357 7.5-7.5s-3.357-7.5-7.5-7.5h-8.532V359.22l2.046-.602c17.905 25.874 46.885 41.156 78.631 41.156 31.608 0 60.707-15.316 78.625-41.158l2.055.604v65.634H215.92c-4.143 0-7.5 3.357-7.5 7.5s3.357 7.5 7.5 7.5h144.289c9.125 0 16.549 7.424 16.549 16.549l.002.039v48.06c0 4.143 3.357 7.5 7.5 7.5s7.5-3.357 7.5-7.5V375.419l19.985 5.878c17.157 5.047 29.141 21.063 29.141 38.947v84.254c0 4.143 3.357 7.5 7.5 7.5s7.5-3.357 7.5-7.5v-84.254c0-24.493-16.411-46.427-39.908-53.338m-198.766-86.665 3.787-34.086a16.53 16.53 0 0 1 16.447-14.721h37.112a16.53 16.53 0 0 1 16.447 14.721l3.787 34.086c.762 6.859-2.874 13.542-9.047 16.629l-22.344 11.172a16.63 16.63 0 0 1-14.8 0l-22.344-11.172c-6.172-3.087-9.808-9.769-9.045-16.629M327.629 38.532 341.28 48.77a8.57 8.57 0 0 1 3.413 6.826v48.097a.517.517 0 0 1-.517.516h-16.032a.517.517 0 0 1-.516-.516V38.532zM239.968 15h32.064c.284 0 .516.231.516.516v88.178a.517.517 0 0 1-.516.516h-32.064a.517.517 0 0 1-.516-.516V15.516c0-.285.232-.516.516-.516m-72.661 40.597a8.57 8.57 0 0 1 3.413-6.826l13.651-10.238v65.161a.517.517 0 0 1-.516.516h-16.032a.517.517 0 0 1-.517-.516zm7.277 196.501c-10.003-15.563-15.29-33.618-15.29-52.212 0-4.143-3.357-7.5-7.5-7.5s-7.5 3.357-7.5 7.5v.517h-4.524a12.57 12.57 0 0 1-9.303-4.131c-2.406-2.659-3.532-6.114-3.17-9.729.63-6.292 6.611-11.22 13.617-11.22a7.499 7.499 0 0 0 2.345-14.621v-9.428h176.866c4.143 0 7.5-3.357 7.5-7.5s-3.357-7.5-7.5-7.5H135.481a120.6 120.6 0 0 1 16.826-54.399v21.819c0 8.556 6.961 15.516 15.517 15.516h16.032c8.556 0 15.516-6.96 15.516-15.516v-66.59a119.6 119.6 0 0 1 25.081-9.912v76.501c0 8.556 6.96 15.516 15.516 15.516h32.064c8.556 0 15.516-6.96 15.516-15.516v-76.5a119.6 119.6 0 0 1 25.081 9.912v66.589c0 8.556 6.96 15.516 15.516 15.516h16.032c8.556 0 15.517-6.96 15.517-15.516v-21.82a120.6 120.6 0 0 1 16.826 54.4h-24.328c-4.143 0-7.5 3.357-7.5 7.5s3.357 7.5 7.5 7.5h16.551v9.915a7.499 7.499 0 0 0 3.494 14.134c3.537 0 6.928 1.506 9.303 4.13 2.406 2.659 3.532 6.114 3.17 9.729-.63 6.293-6.611 11.222-13.617 11.222h-3.384v-.438a7.5 7.5 0 0 0-7.497-7.5h-.003a7.5 7.5 0 0 0-7.5 7.494c-.023 32.449-16.456 62.508-42.889 80.272-.032-.548-.057-1.095-.118-1.645l-3.787-34.086c-1.778-15.999-15.258-28.064-31.355-28.064h-37.112c-16.098 0-29.577 12.065-31.355 28.064l-3.787 34.085c-.062.555-.087 1.109-.119 1.662a97.05 97.05 0 0 1-27.604-28.15m-14.261 172.755h-8.532a31.36 31.36 0 0 0-16.549 4.703v-58.549l25.081-7.377zM256 384.772c-25.439 0-48.772-11.644-63.99-31.529 9.325-5.613 15.377-15.862 15.377-27.062V300.48c.138.067.272.139.41.205.202.097.408.176.615.253a31.4 31.4 0 0 0 11.137 9.348l22.344 11.172a31.56 31.56 0 0 0 14.109 3.313c4.845 0 9.691-1.104 14.108-3.313l22.344-11.172a31.4 31.4 0 0 0 11.111-9.312q.525-.247 1.046-.498v25.705c0 11.199 6.051 21.446 15.374 27.059-15.234 19.866-38.654 31.532-63.985 31.532m120.76 44.785a31.36 31.36 0 0 0-16.551-4.705h-8.529V363.63l25.08 7.376z"/><path d="M159.887 456.917h-.08c-4.143 0-7.46 3.357-7.46 7.5s3.397 7.5 7.54 7.5 7.5-3.357 7.5-7.5-3.358-7.5-7.5-7.5M352.193 456.917h-.08c-4.143 0-7.46 3.357-7.46 7.5s3.397 7.5 7.54 7.5 7.5-3.357 7.5-7.5-3.357-7.5-7.5-7.5"/></svg>