<svg xmlns="http://www.w3.org/2000/svg" xml:space="preserve" viewBox="0 0 512 512"><path d="M360.21 344.177H151.79c-17.709 0-32.065 14.356-32.065 32.065v40.081h272.548v-40.081c.001-17.709-14.355-32.065-32.063-32.065" style="fill:#ff8087"/><path d="M280.048 71.629h-48.097c-17.709 0-32.064-14.356-32.064-32.064 0-17.709 14.356-32.064 32.064-32.064h48.097c17.709 0 32.064 14.356 32.064 32.064.001 17.708-14.355 32.064-32.064 32.064" style="fill:#ffe17d"/><path d="m408.283 404.997-82.792-29.221a32.065 32.065 0 0 1-21.393-30.237v-41.443h-96.194v41.443a32.065 32.065 0 0 1-21.393 30.237l-82.792 29.221c-19.229 6.787-32.089 24.962-32.089 45.354V504.5h368.742v-54.148c-.001-20.393-12.86-38.568-32.089-45.355" style="fill:#e3aa75"/><path d="m408.283 404.997-74.363-26.246c-8.378 35.317-40.041 61.62-77.919 61.62s-69.541-26.303-77.919-61.62l-74.363 26.246c-19.23 6.787-32.089 24.963-32.089 45.355V504.5h368.742v-54.148c-.001-20.392-12.861-38.568-32.089-45.355" style="fill:#9c969e"/><path d="M207.903 349.953c14.8 6.544 31.063 10.257 48.097 10.257s33.296-3.713 48.097-10.257v-45.856h-96.194z" style="fill:#d29b6e"/><path d="M372.234 199.887h-5.611l-6.413-32.065H151.79l-6.413 32.065h-5.611c-11.068 0-20.04 8.972-20.04 20.04s8.972 20.04 20.04 20.04h12.429c4.106 53.796 48.958 96.194 103.805 96.194s99.699-42.398 103.805-96.194h12.429c11.068 0 20.04-8.973 20.04-20.04 0-11.068-8.972-20.04-20.04-20.04" style="fill:#f5b97d"/><path d="m151.79 151.79-6.871 48.097h-4.009c-10.482 0-20.035 7.542-21.08 17.972-1.202 11.996 8.186 22.109 19.936 22.109h12.429c4.106 53.796 48.958 96.194 103.805 96.194 5.484 0 10.83-.534 16.083-1.35-46.353-7.155-82.659-44.744-87.643-91.764-1.994-18.814 13.057-35.145 31.976-35.145l87.681.001c13.282 0 24.048-10.767 24.048-24.048V151.79z" style="fill:#e3aa75"/><path d="M281.551 63.613h-51.103c-61.151 0-110.723 46.656-110.723 104.21v52.105c0-11.096 9.581-20.085 21.381-20.04 2.321.009 4.17-1.824 4.17-4.008v-4.008c0-4.427 3.813-8.016 8.517-8.016h112.184c4.518 0 8.85-1.689 12.045-4.696l18.442-17.358c4.681-4.406 12.68-2.321 14.285 3.724l3.256 12.257c.948 3.569 4.355 6.072 8.263 6.072h35.936c4.704 0 8.517 3.589 8.517 8.016v4.022c0 2.177 1.843 4.005 4.156 3.995 11.806-.053 21.396 8.939 21.396 20.04v-52.105c.001-57.554-49.571-104.21-110.722-104.21" style="fill:#ffd164"/><path d="M281.551 63.613h-7.65c-24.677 9.586-44.887 27.269-56.796 49.578-11.413 21.377 5.015 46.615 30.434 46.615h52.551a9 9 0 0 1 4.829 0h86.924c-4.362-53.795-52.017-96.193-110.292-96.193" style="fill:#ffe17d"/><path d="M155.338 386.778c11.764 44.66 52.307 77.642 100.662 77.642s88.898-32.981 100.662-77.642l-22.743-8.027c-8.378 35.317-40.04 61.62-77.918 61.62s-69.54-26.303-77.919-61.62z" style="fill:#867e88"/><path d="m174.932 371.796-23.181 9.273a12.69 12.69 0 0 0-7.976 11.782V504.5h40.081V377.835c-.001-4.602-4.65-7.75-8.924-6.039M337.068 371.796l23.181 9.273a12.69 12.69 0 0 1 7.977 11.782V504.5h-40.081V377.835c0-4.602 4.649-7.75 8.923-6.039" style="fill:#ff8087"/><path d="M285.316 277.371a7.5 7.5 0 0 0-10.535-10.677c-2.738 2.701-9.299 5.855-18.781 5.855s-16.043-3.154-18.781-5.855a7.5 7.5 0 0 0-10.535 10.677c6.46 6.373 17.419 10.178 29.316 10.178s22.856-3.805 29.316-10.178M207.903 208.301a7.5 7.5 0 0 0-7.5 7.5v8.016c0 4.143 3.358 7.5 7.5 7.5s7.5-3.357 7.5-7.5v-8.016a7.5 7.5 0 0 0-7.5-7.5M304.097 231.316a7.5 7.5 0 0 0 7.5-7.5V215.8c0-4.143-3.358-7.5-7.5-7.5s-7.5 3.357-7.5 7.5v8.016a7.5 7.5 0 0 0 7.5 7.5"/><path d="m411.143 398.158-11.368-4.024v-17.892c0-21.816-17.749-39.564-39.565-39.564h-48.613v-7.86c29.243-16.85 50.174-46.561 55.03-81.35h5.607c15.186 0 27.541-12.354 27.541-27.54v-44.089c0-54.486-36.588-100.584-86.484-115.026 4.081-6.311 6.322-13.669 6.322-21.249C319.613 17.749 301.865 0 280.048 0h-48.097c-21.816 0-39.564 17.749-39.564 39.564 0 7.58 2.242 14.938 6.322 21.249-49.896 14.442-86.484 60.54-86.484 115.026v44.089c0 15.186 12.354 27.54 27.541 27.54h5.607c4.856 34.789 25.787 64.501 55.03 81.35v7.86H151.79c-21.816 0-39.565 17.748-39.565 39.564v17.893l-11.362 4.021c-22.187 7.83-37.093 28.899-37.093 52.427V504.5c0 4.143 3.358 7.5 7.5 7.5s7.5-3.357 7.5-7.5v-53.917c0-17.18 10.885-32.564 27.092-38.284l30.412-10.764V504.5c0 4.143 3.358 7.5 7.5 7.5s7.5-3.357 7.5-7.5v-64.646h25.081V504.5c0 4.143 3.358 7.5 7.5 7.5s7.5-3.357 7.5-7.5v-85.207a88 88 0 0 0 17.454 14.753c14.076 9.045 30.395 13.825 47.191 13.825s33.115-4.78 47.191-13.825a88 88 0 0 0 17.454-14.753v29.094c0 4.143 3.358 7.5 7.5 7.5s7.5-3.357 7.5-7.5v-8.532h25.081V504.5c0 4.143 3.358 7.5 7.5 7.5s7.5-3.357 7.5-7.5V401.535l30.418 10.766c16.201 5.718 27.085 21.103 27.085 38.282V504.5c0 4.143 3.358 7.5 7.5 7.5s7.5-3.357 7.5-7.5v-53.917c0-23.527-14.906-44.597-37.086-52.425m-26.369-21.916v12.583l-10.6-3.752a20.1 20.1 0 0 0-11.14-10.97l-23.181-9.271a13.99 13.99 0 0 0-13.055 1.405c-.637.431-1.214.925-1.763 1.444l-2.413-.854c-6.453-2.284-10.823-8.337-11.009-15.149h48.595c13.546 0 24.566 11.019 24.566 24.564M207.387 39.564c0-13.545 11.02-24.564 24.564-24.564h48.097c13.545 0 24.564 11.02 24.564 24.564 0 6.756-2.754 13.013-7.766 17.733a120 120 0 0 0-16.798-1.184h-48.097c-5.701 0-11.307.41-16.798 1.184-5.012-4.719-7.766-10.976-7.766-17.733m-48.096 192.388c0-4.143-3.358-7.5-7.5-7.5s-7.5 3.357-7.5 7.5c0 .172.006.344.007.516h-4.531c-6.915 0-12.541-5.625-12.541-12.54s5.625-12.541 12.541-12.541h4.008c8.556 0 15.516-6.96 15.516-15.516v-.517h8.529c4.142 0 7.5-3.357 7.5-7.5s-3.358-7.5-7.5-7.5h-16.029a7.5 7.5 0 0 0-7.5 7.5v8.017a.517.517 0 0 1-.516.516h-4.008a27.4 27.4 0 0 0-12.541 3.033v-19.581c0-57.746 46.98-104.726 104.726-104.726h48.097c57.746 0 104.726 46.979 104.726 104.726v19.582a27.36 27.36 0 0 0-12.544-3.034l-3.99.001c-.055 0-.221 0-.378-.157-.152-.151-.152-.308-.152-.358v-8.018a7.5 7.5 0 0 0-7.5-7.5H317.97l-6.596-26.384a7.5 7.5 0 0 0-5.274-5.408 7.5 7.5 0 0 0-7.305 1.924l-29.868 29.868h-69.039c-4.142 0-7.5 3.357-7.5 7.5s3.358 7.5 7.5 7.5h72.145a7.5 7.5 0 0 0 5.303-2.196l22.698-22.698 4.804 19.214a7.5 7.5 0 0 0 7.276 5.681h40.597v.518c0 4.147 1.619 8.047 4.559 10.979a15.44 15.44 0 0 0 10.969 4.537h.003l3.993-.001c6.915 0 12.541 5.626 12.541 12.541s-5.625 12.54-12.541 12.54h-4.531c.001-.172.007-.343.007-.516 0-4.143-3.358-7.5-7.5-7.5s-7.5 3.357-7.5 7.5c0 53.325-43.384 96.709-96.709 96.709s-96.711-43.386-96.711-96.711m-32.065 144.29c0-13.545 11.02-24.564 24.565-24.564h48.595c-.186 6.813-4.556 12.866-11.009 15.149l-2.413.854a14 14 0 0 0-1.763-1.444 13.99 13.99 0 0 0-13.054-1.406l-23.182 9.272a20.1 20.1 0 0 0-11.14 10.97l-10.6 3.752zm24.048 48.612v-32.006a5.16 5.16 0 0 1 3.261-4.817l21.819-8.728v45.551zM256 432.871c-27.524 0-52.138-15.163-64.645-39.678v-11.154l3.026-1.071c12.574-4.45 21.022-16.402 21.022-29.74v-15.204c12.589 4.928 26.282 7.638 40.597 7.638s28.007-2.71 40.597-7.638v15.204c0 13.338 8.448 25.29 21.022 29.74l3.026 1.071v11.154c-12.507 24.515-37.121 39.678-64.645 39.678m79.645-8.017v-45.551l21.819 8.728a5.16 5.16 0 0 1 3.261 4.817v32.006z"/><path d="M328.145 472.95a7.5 7.5 0 0 0-7.5 7.5v24.05c0 4.143 3.358 7.5 7.5 7.5s7.5-3.357 7.5-7.5v-24.05a7.5 7.5 0 0 0-7.5-7.5"/></svg>