<svg xmlns="http://www.w3.org/2000/svg" xml:space="preserve" viewBox="0 0 512 512"><path d="m413.847 419.837-84.478-24.847a24.05 24.05 0 0 1-17.261-23.069V312.13H199.892v59.791a24.05 24.05 0 0 1-17.261 23.069l-84.478 24.847c-20.467 6.02-34.522 24.804-34.522 46.138V504.5H448.37v-38.525c-.001-21.334-14.056-40.118-34.523-46.138" style="fill:#dbd9dc"/><path d="M215.923 494.481h80.154c50.814 0 94.266-31.737 111.836-76.389l-78.543-23.101a24.05 24.05 0 0 1-17.262-23.07V312.13H199.892v59.791a24.05 24.05 0 0 1-17.262 23.07l-78.543 23.101c17.57 44.652 61.022 76.389 111.836 76.389" style="fill:#c9c6ca"/><path d="M344.169 326.158H167.831c-26.561 0-48.092 21.532-48.092 48.092 0 53.121 43.063 96.185 96.185 96.185h80.154c53.122 0 96.185-43.064 96.185-96.185-.001-26.561-21.533-48.092-48.094-48.092" style="fill:#ff9664"/><path d="M342.036 350.204c17.447 0 24.298 22.628 9.781 32.306l-82.479 54.986a24.045 24.045 0 0 1-26.677 0l-82.479-54.986c-14.517-9.678-7.666-32.306 9.781-32.306z" style="fill:#ff8250"/><path d="m180.426 396.006 62.235 41.49a24.045 24.045 0 0 0 26.677 0l62.235-41.49-2.205-.649a24.05 24.05 0 0 1-17.261-23.069v-52.142H199.892v52.142a24.05 24.05 0 0 1-17.261 23.069z" style="fill:#f7d291"/><path d="M199.892 354.064c16.839 8.995 35.936 14.175 56.108 14.175s39.268-5.18 56.108-14.175v-33.918H199.892z" style="fill:#f0c382"/><path d="M376.231 211.03v-27.146c0-62.528-47.742-113.869-108.756-119.652a113.89 113.89 0 0 0-22.95 0c-61.014 5.783-108.756 57.123-108.756 119.652v27.408c-8.278 2.002-15.054 8.607-15.923 17.281-1.202 11.994 8.185 22.105 19.934 22.105h12.758c5.374 52.503 49.54 93.514 103.462 93.514s98.089-41.01 103.462-93.514h11.62c10.482 0 20.035-7.542 21.078-17.972 1.06-10.592-6.143-19.686-15.929-21.676" style="fill:#ffe1a0"/><path d="m248.847 98.811-12.913-20.748a16.03 16.03 0 0 1-1.598-13.54l18.168-54.503c1.12-3.36 5.873-3.36 6.993 0l18.168 54.503a16.03 16.03 0 0 1-1.598 13.539l-12.911 20.747c-3.298 5.301-11.011 5.301-14.309.002" style="fill:#ff9664"/><path d="M256 7.5c-1.469 0-2.936.84-3.496 2.52l-18.168 54.503a16.03 16.03 0 0 0 1.598 13.541l12.913 20.747c1.649 2.65 4.401 3.974 7.153 3.974z" style="fill:#ff8250"/><path d="M191.877 239.992V136.441c0-22.928-30.383-30.296-41.401-10.19-9.375 17.107-14.706 36.744-14.706 57.633v27.408c-8.278 2.002-15.054 8.607-15.923 17.281-1.202 11.994 8.185 22.105 19.934 22.105h12.758c5.374 52.503 49.54 93.514 103.462 93.514 6.882 0 13.598-.685 20.103-1.961-47.986-9.322-84.227-51.528-84.227-102.239" style="fill:#f7d291"/><path d="m415.963 415.013-21.412-6.297a103.3 103.3 0 0 0 5.21-32.461c0-30.654-24.938-55.593-55.592-55.593h-8.295c16.261-16.648 27.373-38.341 30.743-62.482h4.464c14.617 0 27.153-10.861 28.541-24.726.778-7.771-1.764-15.529-6.974-21.286a27.5 27.5 0 0 0-8.918-6.534v-19.078c0-59.41-41.429-111.231-98.975-124.474L266.612 7.648C265.087 3.074 260.822 0 256 0s-9.087 3.074-10.612 7.648l-18.145 54.434c-57.546 13.243-98.974 65.064-98.974 124.474v19.414c-8.628 4.115-14.926 12.266-15.887 21.857-.778 7.771 1.764 15.529 6.973 21.287a27.6 27.6 0 0 0 20.424 9.065h5.603c3.37 24.142 14.482 45.834 30.743 62.482h-8.295c-30.654 0-55.592 24.938-55.592 55.593 0 11.333 1.834 22.245 5.21 32.461l-21.412 6.297c-23.496 6.91-39.906 28.842-39.906 53.333V504.5c0 4.143 3.358 7.5 7.5 7.5s7.5-3.357 7.5-7.5v-36.154c0-17.883 11.982-33.896 29.139-38.942l22.95-6.75c12.426 24.725 34.453 43.824 61.159 52.373V504.5c0 4.143 3.358 7.5 7.5 7.5s7.5-3.357 7.5-7.5v-25.887c5.39.868 10.915 1.326 16.545 1.326h80.154c5.632 0 11.157-.458 16.548-1.326V504.5c0 4.143 3.358 7.5 7.5 7.5s7.5-3.357 7.5-7.5v-29.475c26.705-8.549 48.731-27.647 61.156-52.372l22.95 6.75c17.156 5.046 29.139 21.06 29.139 38.942V504.5c0 4.143 3.358 7.5 7.5 7.5s7.5-3.357 7.5-7.5v-36.154c0-24.492-16.411-46.423-39.907-53.333m-85.581-25.222c-6.396-2.39-10.774-8.6-10.774-15.499v-14.585h22.429c5.544 0 8.646 3.718 9.699 7.197 1.054 3.479.536 8.294-4.078 11.369zM256 23.248l15.817 47.45-15.029 24.149a.87.87 0 0 1-.787.438.86.86 0 0 1-.787-.438l-15.031-24.15zM139.78 243.179a12.57 12.57 0 0 1-9.302-4.13c-2.406-2.659-3.532-6.114-3.17-9.728.63-6.292 6.612-11.22 13.617-11.22a7.5 7.5 0 0 0 2.345-14.621v-16.925c0-51.128 34.767-95.867 83.577-108.9l15.634 25.117a15.83 15.83 0 0 0 13.522 7.512 15.83 15.83 0 0 0 13.521-7.512l15.631-25.117c48.81 13.032 83.577 57.771 83.577 108.9v17.412a7.5 7.5 0 0 0 3.495 14.134c3.536 0 6.926 1.505 9.301 4.13 2.406 2.659 3.532 6.113 3.17 9.728-.629 6.292-6.61 11.22-13.615 11.22h-3.388c.001-.172.007-.343.007-.515 0-4.143-3.358-7.5-7.5-7.5s-7.5 3.357-7.5 7.5c0 53.32-43.379 96.7-96.7 96.7s-96.7-43.38-96.7-96.7c0-4.143-3.358-7.5-7.5-7.5s-7.5 3.357-7.5 7.5c0 .172.006.343.007.515zm41.838 146.612-17.276-11.517c-4.613-3.075-5.131-7.89-4.078-11.369s4.154-7.197 9.699-7.197h22.429v14.585c0 6.898-4.377 13.108-10.774 15.498m146.007 69.344v-2.726c0-4.143-3.358-7.5-7.5-7.5s-7.5 3.357-7.5 7.5v6.976a89 89 0 0 1-16.548 1.555h-80.154a89 89 0 0 1-16.545-1.554v-6.976c0-4.143-3.358-7.5-7.5-7.5s-7.5 3.357-7.5 7.5v2.727c-33.371-12.744-57.139-45.087-57.139-82.881 0-22.383 18.209-40.593 40.592-40.593h24.588c-.012.171-.026.342-.026.516v8.53h-22.429c-11.33 0-20.772 7.007-24.055 17.851-3.283 10.845.687 21.912 10.114 28.196l86.926 57.95a23.5 23.5 0 0 0 13.052 3.965c4.543 0 9.088-1.322 13.052-3.965l23.17-15.446a7.5 7.5 0 1 0-8.32-12.48l-23.17 15.446a8.51 8.51 0 0 1-9.464 0l-55.862-37.241c7.369-5.877 11.986-14.918 11.986-24.691v-31.071c14.704 7.136 31.196 11.143 48.608 11.143s33.904-4.007 48.608-11.143v31.071c0 9.773 4.617 18.813 11.986 24.691l-4.637 3.091a7.5 7.5 0 0 0-2.08 10.4 7.49 7.49 0 0 0 6.247 3.341c1.43 0 2.875-.408 4.153-1.261l35.701-23.801c9.427-6.284 13.397-17.352 10.114-28.196s-12.726-17.851-24.055-17.851h-22.429v-8.53c0-.174-.014-.344-.026-.516h24.588c22.383 0 40.592 18.21 40.592 40.593-.001 37.792-23.768 70.134-57.138 82.88"/><path d="M207.908 211.118a7.5 7.5 0 0 0-7.5 7.5v8.015c0 4.143 3.358 7.5 7.5 7.5s7.5-3.357 7.5-7.5v-8.015a7.5 7.5 0 0 0-7.5-7.5M304.092 211.118a7.5 7.5 0 0 0-7.5 7.5v8.015c0 4.143 3.358 7.5 7.5 7.5s7.5-3.357 7.5-7.5v-8.015a7.5 7.5 0 0 0-7.5-7.5M226.686 280.064c6.459 6.372 17.417 10.177 29.314 10.177s22.854-3.805 29.314-10.177a7.5 7.5 0 0 0-10.535-10.677c-2.737 2.7-9.298 5.854-18.779 5.854s-16.042-3.154-18.779-5.854a7.5 7.5 0 0 0-10.535 10.677M197.521 201.687l24.046 8.016a7.5 7.5 0 0 0 2.373.387 7.5 7.5 0 0 0 2.37-14.617l-24.046-8.016a7.5 7.5 0 1 0-4.743 14.23M288.061 210.089c.786 0 1.586-.125 2.373-.387l24.046-8.016a7.5 7.5 0 0 0 4.744-9.487 7.503 7.503 0 0 0-9.487-4.743l-24.046 8.016a7.501 7.501 0 0 0 2.37 14.617"/></svg>