<svg xmlns="http://www.w3.org/2000/svg" xml:space="preserve" viewBox="0 0 512.003 512.003"><path d="M256.002 7.504c-80.975 0-147.868 63.213-152.444 144.059l-7.265 128.35c-4.685 82.762 61.165 152.444 144.059 152.444h31.3c82.894 0 148.744-69.682 144.059-152.444l-7.265-128.35C403.869 70.717 336.977 7.504 256.002 7.504" style="fill:#a06e50"/><path d="m415.71 279.912-7.026-124.129C404.878 88.54 359.397 29.469 294.228 12.464c-30.651-7.998-59.961-5.822-86.323 2.935v8.137c0 26.563 21.534 48.097 48.096 48.097h16.032c13.281 0 24.048 10.767 24.048 24.048v334.431c70.961-12.114 123.842-75.78 119.629-150.2" style="fill:#b67f5f"/><path d="m408.283 388.967-82.792-29.221a32.065 32.065 0 0 1-21.393-30.237v-41.443h-96.193v41.443a32.065 32.065 0 0 1-21.393 30.237l-82.792 29.221c-19.229 6.787-32.089 24.962-32.089 45.354v70.18h368.74v-70.18c.001-20.392-12.859-38.567-32.088-45.354" style="fill:#f7d291"/><path d="m408.283 388.967-52.129-18.398c-18.48 36.618-56.334 61.788-100.153 61.788s-81.673-25.17-100.153-61.788l-52.129 18.398c-19.229 6.787-32.089 24.962-32.089 45.354v70.18h368.74v-70.18c.002-20.392-12.858-38.567-32.087-45.354" style="fill:#ff8087"/><path d="M207.905 317.891c14.8 6.545 31.063 10.257 48.096 10.257s33.296-3.712 48.097-10.257v-29.824h-96.193z" style="fill:#f0c382"/><path d="M372.235 167.826h-9.16c-6.009 0-10.88-4.871-10.88-10.881v-5.151c0-30.99-25.123-56.113-56.113-56.113h-80.161c-30.99 0-56.113 25.123-56.113 56.113v5.151c0 6.01-4.871 10.881-10.88 10.881h-9.16c-11.068 0-20.04 8.972-20.04 20.04s8.972 20.04 20.04 20.04h12.429c4.106 53.795 48.958 96.193 103.804 96.193s99.698-42.398 103.804-96.193h12.429c11.068 0 20.04-8.973 20.04-20.04.001-11.068-8.971-20.04-20.039-20.04" style="fill:#ffe1a0"/><path d="M219.93 223.936c0 17.709 16.15 32.064 36.072 32.064s36.072-14.356 36.072-32.064z" style="fill:#fff"/><path d="M202.877 29.199c16.976 5.285 30.466 14.75 37.902 25.199 1.911 2.685.735 6.464-2.363 7.59-12.054 4.381-28.532 4.517-45.508-.768s-30.466-14.75-37.902-25.199c-1.911-2.685-.735-6.464 2.363-7.59 12.053-4.381 28.531-4.517 45.508.768M309.127 29.199c-16.976 5.285-30.466 14.75-37.902 25.199-1.911 2.685-.735 6.464 2.363 7.59 12.054 4.381 28.532 4.517 45.508-.768s30.466-14.75 37.902-25.199c1.911-2.685.735-6.464-2.363-7.59-12.054-4.381-28.532-4.517-45.508.768" style="fill:#ff8087"/><path d="M215.921 119.729h56.113c13.282 0 24.048-10.767 24.048-24.048h-80.161c-30.99 0-56.113 25.123-56.113 56.113v5.151c0 6.088-4.986 10.821-11.072 10.881h-8.968c-11.068 0-20.04 8.972-20.04 20.04s8.972 20.04 20.04 20.04h12.429c4.106 53.795 48.958 96.193 103.804 96.193 5.484 0 10.83-.534 16.083-1.35-49.946-7.709-88.228-50.754-88.228-102.859v-48.097c.001-17.709 14.356-32.064 32.065-32.064" style="fill:#f7d291"/><circle cx="256.001" cy="55.6" r="16.03" style="fill:#e6646e"/><path d="M130.909 379.371c23.136 45.665 70.399 77.033 125.093 77.033s101.957-31.369 125.093-77.033l-24.941-8.803c-18.479 36.618-56.334 61.788-100.152 61.788s-81.673-25.17-100.152-61.788z" style="fill:#e6646e"/><path d="M215.405 184.552v-8.017c0-4.143-3.358-7.5-7.5-7.5s-7.5 3.357-7.5 7.5v8.017c0 4.143 3.358 7.5 7.5 7.5s7.5-3.357 7.5-7.5M304.098 169.036a7.5 7.5 0 0 0-7.5 7.5v8.017c0 4.143 3.357 7.5 7.5 7.5s7.5-3.357 7.5-7.5v-8.017c0-4.143-3.357-7.5-7.5-7.5"/><path d="m410.779 381.892-12.613-4.452c18.817-29.732 27.639-63.936 25.551-99.425l-7.239-123.067c-2.496-42.418-22.414-83.102-54.916-112.673 2.023-2.564 3.754-5.227 5.142-7.967a7.5 7.5 0 0 0-3.105-9.977c-9.659-5.255-22.333-7.28-35.862-5.99C304.993 6.193 279.842-.19 254.983.004c-25.449.159-50.702 6.442-73.159 18.156-12.605-.836-24.346 1.232-33.42 6.171a7.5 7.5 0 0 0-3.106 9.977c1.101 2.174 2.438 4.293 3.944 6.36-31.587 28.173-50.999 68.083-53.49 110.434l-7.465 126.913c-2.089 35.504 6.733 69.698 25.552 99.425l-12.614 4.452c-22.187 7.831-37.093 28.899-37.093 52.427v70.183c0 4.143 3.358 7.5 7.5 7.5s7.5-3.357 7.5-7.5v-70.183c0-17.18 10.885-32.564 27.085-38.282l44.646-15.758c4.235 8.209 9.678 15.886 16.266 22.868a7.48 7.48 0 0 0 5.456 2.353 7.5 7.5 0 0 0 5.453-12.648c-5.127-5.433-9.44-11.339-12.886-17.616l23.856-8.42c15.789-5.572 26.396-20.565 26.396-37.309v-25.546c12.587 4.926 26.277 7.635 40.589 7.635 14.318 0 28.013-2.711 40.604-7.641v25.552c0 16.743 10.607 31.736 26.396 37.309l23.851 8.418c-7.406 13.522-18.727 25.138-33.068 33.854-16.972 10.314-36.952 15.767-57.782 15.767-19.19 0-37.844-4.685-53.946-13.547a7.497 7.497 0 0 0-10.187 2.954 7.5 7.5 0 0 0 2.954 10.187c18.312 10.079 39.467 15.406 61.179 15.406 23.578 0 46.253-6.206 65.572-17.948 17.358-10.549 30.93-24.87 39.565-41.63l44.655 15.761c16.2 5.718 27.085 21.103 27.085 38.282v70.183c0 4.143 3.357 7.5 7.5 7.5s7.5-3.357 7.5-7.5V434.32c.001-23.529-14.905-44.597-37.092-52.428M348.553 34.487c-6.72 7.716-17.522 14.392-29.993 18.273-12.469 3.883-25.153 4.521-35.065 1.98 6.72-7.715 17.522-14.391 29.993-18.273s25.155-4.517 35.065-1.98m-93.476-19.483c16.456-.121 33.015 2.957 48.786 8.931-11.438 4.287-21.396 10.516-28.794 17.896-4.279-5.91-11.229-9.765-19.067-9.765s-14.788 3.855-19.067 9.765c-7.648-7.629-18.023-14.04-29.948-18.334a146.2 146.2 0 0 1 48.09-8.493m-7.608 40.594c0-4.705 3.828-8.532 8.532-8.532s8.532 3.827 8.532 8.532-3.827 8.532-8.532 8.532c-4.704 0-8.532-3.827-8.532-8.532m-48.954-19.131c12.47 3.883 23.273 10.559 29.994 18.274-9.914 2.537-22.597 1.9-35.066-1.981S170.17 42.202 163.45 34.487c9.913-2.536 22.596-1.903 35.065 1.98m113.083 293.04v-32.759c29.239-16.85 50.166-46.559 55.022-81.345h5.607c15.186 0 27.54-12.354 27.54-27.54s-12.354-27.541-27.54-27.541h-4c-4.705 0-8.532-3.827-8.532-8.532 0-35.076-28.537-63.612-63.613-63.612-4.143 0-7.5 3.357-7.5 7.5s3.357 7.5 7.5 7.5c26.806 0 48.613 21.808 48.613 48.613 0 12.976 10.557 23.531 23.532 23.531h4c6.915 0 12.54 5.626 12.54 12.541s-5.625 12.54-12.54 12.54h-4.531c.001-.173.007-.344.007-.517 0-4.143-3.357-7.5-7.5-7.5s-7.5 3.357-7.5 7.5c0 53.325-43.384 96.709-96.709 96.709s-96.709-43.384-96.709-96.709c0-4.143-3.358-7.5-7.5-7.5s-7.5 3.357-7.5 7.5c0 .173.006.344.007.517h-4.531c-6.915 0-12.54-5.625-12.54-12.54s5.625-12.541 12.54-12.541h4.016c12.976 0 23.532-10.557 23.532-23.532 0-26.805 21.808-48.612 48.612-48.612h48.096c4.143 0 7.5-3.357 7.5-7.5s-3.357-7.5-7.5-7.5h-48.096c-35.076 0-63.612 28.537-63.612 63.613 0 4.704-3.828 8.531-8.532 8.531h-4.016c-15.186 0-27.54 12.354-27.54 27.541 0 15.186 12.354 27.54 27.54 27.54h5.607c4.856 34.792 25.79 64.505 55.037 81.354v32.75c0 10.396-6.586 19.704-16.389 23.164l-55.631 19.635c-18.412-27.726-27.094-59.926-25.124-93.41l7.465-126.913c2.268-38.553 20.003-74.878 48.851-100.437 7.972 6.598 18.088 12.013 29.407 15.537 8.982 2.797 18.016 4.183 26.515 4.183 7.402 0 14.381-1.075 20.581-3.163 4.169 6.618 11.538 11.028 19.921 11.028s15.752-4.41 19.921-11.028c6.2 2.088 13.178 3.163 20.581 3.163 8.499 0 17.534-1.387 26.516-4.183 10.588-3.296 20.106-8.259 27.819-14.286 29.993 26.993 48.384 64.241 50.666 103.032l7.239 123.067c1.969 33.47-6.712 65.681-25.123 93.411l-55.633-19.635c-9.803-3.461-16.389-12.769-16.389-23.165"/><path d="M212.429 223.936c0 21.816 19.546 39.564 43.572 39.564 24.025 0 43.572-17.748 43.572-39.564 0-4.143-3.357-7.5-7.5-7.5h-72.145a7.5 7.5 0 0 0-7.499 7.5m70.784 7.5c-3.696 9.889-14.497 17.064-27.211 17.064s-23.515-7.176-27.211-17.064zM217.74 155.062a7.5 7.5 0 0 0 5.457-9.096 7.5 7.5 0 0 0-9.095-5.457l-16.032 4.008a7.5 7.5 0 0 0-5.457 9.096 7.504 7.504 0 0 0 7.27 5.683c.602 0 1.214-.073 1.825-.226zM294.262 155.062l16.032 4.008a7.6 7.6 0 0 0 1.825.226 7.502 7.502 0 0 0 1.814-14.779l-16.032-4.008c-4.018-.999-8.09 1.439-9.096 5.457a7.5 7.5 0 0 0 5.457 9.096"/></svg>