<svg xmlns="http://www.w3.org/2000/svg" xml:space="preserve" viewBox="0 0 512 512"><path d="m413.86 374.371-84.486-24.849a24.05 24.05 0 0 1-17.263-23.071v-46.402H199.885v46.402a24.05 24.05 0 0 1-17.263 23.071L98.136 374.37c-20.469 6.02-34.525 24.806-34.525 46.142V504.5h384.774v-83.988c0-21.335-14.056-40.121-34.525-46.141" style="fill:#f7d291"/><path d="M199.888 280.049h112.23v88.18h-112.23zM111.708 456.4h24.05v48.1h-24.05zM376.238 456.4h24.05v48.1h-24.05z" style="fill:#f0c382"/><path d="m413.86 374.371-84.486-24.85-73.376 10.689-73.376-10.688-84.486 24.85c-20.469 6.02-34.525 24.806-34.525 46.142v35.891l72.145 16.032V504.5H376.24v-32.065l72.145-16.032v-35.891c0-21.335-14.056-40.121-34.525-46.141" style="fill:#a5cdff"/><path d="M264.014 448.387h-16.032a8.016 8.016 0 0 1-8.016-8.016V360.21h32.065v80.161a8.02 8.02 0 0 1-8.017 8.016" style="fill:#dbd9dc"/><path d="M400.288 71.629h-40.08l16.032-40.08h-48.097L304.095 7.5l-56.113 8.016L215.918 7.5l-32.065 24.049h-40.081v40.08h-32.064l16.032 48.097-16.032 16.032 24.048 64.129H376.24l24.048-64.129-16.032-16.032z" style="fill:#ff9664"/><path d="M360.208 191.871c-92.319 0-167.195-74.337-168.241-166.408l-8.113 6.085h-40.081v40.081h-32.065l16.032 48.097-16.032 16.032 24.048 64.129H376.24l3.463-9.233c-6.406.74-12.891 1.217-19.495 1.217" style="fill:#ff8250"/><path d="M372.232 175.839h-12.024c-8.854 0-16.032-7.178-16.032-16.032v-16.032l-48.097-32.065v18.251c0 6.155-6.649 10.014-11.994 6.96l-44.119-25.211-12.334 18.501a8.016 8.016 0 0 1-9.828 2.921l-49.983-21.422v48.097c0 8.854-7.178 16.032-16.032 16.032h-10.88c-10.482 0-20.035 7.542-21.08 17.972-1.202 11.996 8.186 22.109 19.936 22.109h12.429c4.106 53.796 48.958 96.194 103.805 96.194s99.699-42.398 103.805-96.194h11.287c10.483 0 20.035-7.543 21.079-17.974 1.199-11.996-8.188-22.107-19.938-22.107" style="fill:#ffe1a0"/><path d="M350.469 172.457c-3.806-2.929-6.294-7.476-6.294-12.65v-16.032l-48.097-32.065v18.251c0 .769-.104 1.503-.296 2.191-.769 2.756-2.953 4.791-5.554 5.532a8 8 0 0 1-2.016.304 7.94 7.94 0 0 1-4.127-1.067l-44.12-25.211-12.334 18.5c-1.123 1.685-2.8 2.785-4.645 3.268-1.677.439-3.491.378-5.182-.346l-49.983-21.422v48.097c0 1.107-.113 2.188-.326 3.231a16.05 16.05 0 0 1-12.475 12.475 16 16 0 0 1-3.231.326h-10.88c-10.484 0-20.039 7.544-21.081 17.976-1.199 11.994 8.188 22.105 19.937 22.105h12.429c4.106 53.796 48.958 96.194 103.805 96.194 5.484 0 10.83-.534 16.083-1.35-49.946-7.709-88.228-50.754-88.228-102.859v-46.977c0-8.157 8.562-13.487 15.885-9.895 4.313 2.117 7.965 3.936 8.557 4.189a31.9 31.9 0 0 0 12.667 2.609q1.17 0 2.349-.084c9.278-.666 18.208-5.877 24.18-14.036l24.661 14.092a32.1 32.1 0 0 0 15.897 4.237c9.255 0 17.965-4.056 23.973-10.795l37.122 25.125a43 43 0 0 1 1.324-3.913" style="fill:#f7d291"/><path d="m207.25 401.993 48.748-41.784-64.827-36.015c-3.99-2.216-9.022-.66-11.063 3.422l-10.369 20.739a8.01 8.01 0 0 0 .21 7.562l25.124 43.966c2.497 4.372 8.356 5.387 12.177 2.11M304.747 401.993l-48.749-41.784 64.827-36.015c3.99-2.216 9.022-.66 11.063 3.422l10.369 20.739a8.01 8.01 0 0 1-.21 7.562l-25.124 43.966c-2.497 4.372-8.355 5.387-12.176 2.11" style="fill:#edebed"/><path d="M207.982 176.355a7.5 7.5 0 0 0-7.5 7.5v8.017c0 4.143 3.357 7.5 7.5 7.5s7.5-3.357 7.5-7.5v-8.017a7.5 7.5 0 0 0-7.5-7.5M304.175 199.371c4.143 0 7.5-3.357 7.5-7.5v-8.017c0-4.143-3.357-7.5-7.5-7.5s-7.5 3.357-7.5 7.5v8.017c0 4.143 3.357 7.5 7.5 7.5M285.394 245.307a7.5 7.5 0 0 0-10.535-10.677c-2.737 2.701-9.298 5.854-18.78 5.854s-16.044-3.154-18.782-5.854a7.494 7.494 0 0 0-10.605.072 7.5 7.5 0 0 0 .072 10.605c6.459 6.372 17.418 10.177 29.315 10.177s22.857-3.805 29.315-10.177"/><path d="M455.885 420.246c0-24.493-16.411-46.427-39.909-53.338l-65.722-19.33-11.658-23.316a15.6 15.6 0 0 0-9.292-7.884c-3.172-.981-6.584-.887-9.692.192v-16.844c25.055-17.394 42.693-44.763 47.099-76.308h4.457c14.618 0 27.156-10.861 28.544-24.728.778-7.771-1.764-15.529-6.974-21.286-.236-.26-.481-.51-.726-.761l15.24-38.102a7.5 7.5 0 0 0-1.66-8.089L392.837 117.7 407.403 74a7.5 7.5 0 0 0-7.115-9.872h-29.002l11.918-29.795a7.5 7.5 0 0 0-6.964-10.285h-44.99L309.399 2.197a7.5 7.5 0 0 0-6.364-2.121l-54.659 7.809-30.639-7.66a7.51 7.51 0 0 0-6.319 1.276L181.354 24.05h-37.58a7.5 7.5 0 0 0-7.5 7.5v32.58h-24.566a7.5 7.5 0 0 0-7.115 9.872l14.566 43.699-12.755 12.754a7.5 7.5 0 0 0-1.66 8.089l15.393 38.483c-4.239 4.289-7.073 9.864-7.691 16.037-.778 7.771 1.763 15.531 6.973 21.289a27.6 27.6 0 0 0 20.426 9.066h5.598c4.394 31.489 21.965 58.813 46.942 76.209v16.942c-3.108-1.079-6.52-1.172-9.692-.192a15.6 15.6 0 0 0-9.292 7.884l-11.658 23.316-65.722 19.33c-23.498 6.911-39.909 28.845-39.909 53.338V504.5c0 4.143 3.357 7.5 7.5 7.5s7.5-3.357 7.5-7.5v-38.747l57.145 12.699V504.5c0 4.143 3.357 7.5 7.5 7.5s7.5-3.357 7.5-7.5v-49.382a39.52 39.52 0 0 0-13.816-30.039l-42.814-36.698a40.2 40.2 0 0 1 13.628-7.082l64.689-19.026 23.618 41.332a15.47 15.47 0 0 0 10.822 7.592q1.336.23 2.668.229c3.672 0 7.24-1.303 10.08-3.737l20.335-17.43v50.113c0 8.556 6.96 15.516 15.516 15.516h16.033c8.556 0 15.516-6.96 15.516-15.516v-50.113l20.335 17.43a15.46 15.46 0 0 0 10.08 3.737c.886 0 1.778-.075 2.668-.229a15.46 15.46 0 0 0 10.821-7.591l23.619-41.333 64.689 19.026a40.2 40.2 0 0 1 13.628 7.082l-42.814 36.698a39.52 39.52 0 0 0-13.816 30.039V504.5c0 4.143 3.357 7.5 7.5 7.5s7.5-3.357 7.5-7.5v-26.048l10.16-2.258a7.5 7.5 0 0 0 5.694-8.948 7.496 7.496 0 0 0-8.948-5.694l-6.906 1.535v-7.968c0-7.18 3.127-13.978 8.578-18.65l42.91-36.78c3.608 6.108 5.657 13.172 5.657 20.559v30.141l-18.172 4.038a7.502 7.502 0 0 0 1.62 14.823 7.5 7.5 0 0 0 1.634-.181l14.918-3.315V504.5c0 4.143 3.357 7.5 7.5 7.5s7.5-3.357 7.5-7.5v-84.254zm-327.629 34.872v7.968l-57.145-12.699v-30.141c0-7.386 2.048-14.451 5.657-20.559l42.91 36.78a24.54 24.54 0 0 1 8.578 18.651m31.112-247.214c0-4.143-3.357-7.5-7.5-7.5s-7.5 3.357-7.5 7.5v.516h-4.523a12.57 12.57 0 0 1-9.303-4.131c-2.406-2.659-3.532-6.114-3.17-9.729.63-6.292 6.612-11.221 13.618-11.221h10.878c12.976 0 23.532-10.557 23.532-23.545l-.08-48.097a7.5 7.5 0 0 0-7.5-7.487h-.013a7.5 7.5 0 0 0-7.487 7.513l.08 48.084c0 4.705-3.827 8.532-8.532 8.532H140.99a29.4 29.4 0 0 0-7.754 1.045l-12.728-31.82 12.536-12.535a7.5 7.5 0 0 0 1.812-7.676l-12.742-38.225h21.659c4.143 0 7.5-3.357 7.5-7.5v-32.58h32.58a7.5 7.5 0 0 0 4.5-1.5l29.209-21.907 28.601 7.151a7.6 7.6 0 0 0 2.88.148l52.401-7.486 21.396 21.397a7.5 7.5 0 0 0 5.304 2.196h37.019l-11.918 29.795a7.5 7.5 0 0 0 6.964 10.285h29.675l-12.742 38.225a7.5 7.5 0 0 0 1.812 7.676l12.536 12.535-12.631 31.576a27.4 27.4 0 0 0-6.545-.802h-12.025c-4.705 0-8.532-3.827-8.532-8.569l-.079-16.032a7.5 7.5 0 0 0-3.34-6.203l-48.097-32.064a7.498 7.498 0 0 0-11.66 6.24v19.141l-44.893-25.652a7.5 7.5 0 0 0-9.961 2.352l-12.459 18.688-18.2-8.494a7.497 7.497 0 0 0-9.968 3.624 7.5 7.5 0 0 0 3.624 9.968l24.039 11.219a7.5 7.5 0 0 0 9.412-2.636l12.149-18.223 50.035 28.591a7.498 7.498 0 0 0 11.22-6.511v-18.051l33.116 22.078.06 12.005c0 12.976 10.557 23.532 23.532 23.532h12.025a12.57 12.57 0 0 1 9.303 4.131c2.406 2.659 3.532 6.113 3.17 9.728-.63 6.293-6.611 11.222-13.618 11.222h-3.383v-.438a7.5 7.5 0 0 0-7.497-7.5h-.003a7.5 7.5 0 0 0-7.5 7.494c-.039 53.287-43.421 96.639-96.706 96.639-53.326-.002-96.71-43.386-96.71-96.712m43.001 188.395a.48.48 0 0 1-.425.117c-.238-.042-.322-.189-.359-.253l-25.262-44.207 10.493-20.985a.5.5 0 0 1 .309-.263c.213-.063.357.017.404.043l55.403 30.779zm62.161 44.072a.517.517 0 0 1-.516.516h-16.033a.517.517 0 0 1-.516-.516v-62.97l8.532-7.313 8.532 7.313v62.97zm45.88-44.206c-.036.063-.12.21-.358.252a.48.48 0 0 1-.425-.117l-40.563-34.769 6.612-3.673a7.5 7.5 0 0 0 2.914-10.199 7.503 7.503 0 0 0-10.199-2.914l-12.393 6.885-48.613-27.008v-16.194c14.726 7.162 31.248 11.185 48.693 11.185 17.381 0 33.847-3.998 48.533-11.115v16.124l-8.926 4.959a7.5 7.5 0 0 0-2.913 10.199 7.496 7.496 0 0 0 10.198 2.913l21.496-11.941c.047-.026.193-.107.404-.043.21.065.284.214.309.263l10.493 20.985z"/></svg>