<svg xmlns="http://www.w3.org/2000/svg" xml:space="preserve" viewBox="0 0 512 512"><path d="m413.861 374.102-84.486-24.849a24.05 24.05 0 0 1-17.263-23.071v-38.119H199.887v38.119a24.05 24.05 0 0 1-17.263 23.071l-84.486 24.849c-20.469 6.02-34.525 24.806-34.525 46.142v84.254h384.773v-84.254c.001-21.335-14.056-40.121-34.525-46.142" style="fill:#f7d291"/><path d="M199.887 313.968c16.841 8.996 35.939 14.176 56.113 14.176s39.272-5.18 56.113-14.176v-25.905H199.887z" style="fill:#f0c382"/><path d="M372.234 167.822H360.21V79.645H151.791v88.177h-12.024c-11.068 0-20.04 8.972-20.04 20.04s8.972 20.04 20.04 20.04h12.429c4.106 53.795 48.958 96.193 103.804 96.193s99.698-42.398 103.804-96.193h12.429c11.068 0 20.04-8.973 20.04-20.04.001-11.068-8.971-20.04-20.039-20.04" style="fill:#ffe1a0"/><path d="M151.791 79.645v88.177h-12.024c-11.068 0-20.04 8.972-20.04 20.04s8.972 20.04 20.04 20.04h12.429c4.106 53.795 48.958 96.193 103.804 96.193 5.484 0 10.83-.534 16.083-1.351-49.946-7.708-88.228-50.754-88.228-102.859v-40.081c0-17.709 14.355-32.064 32.064-32.064h96.193c8.854 0 16.032-7.178 16.032-16.032V79.645z" style="fill:#f7d291"/><path d="M392.192 44.986C390.842 23.592 371.921 7.5 350.485 7.5H198.604c-37.94 0-67.586 32.758-63.81 70.51l8.981 89.812h8.015c8.854 0 16.032-7.178 16.032-16.032l.001-40.081h176.354l-.001 40.08c0 8.854 7.178 16.033 16.032 16.033h8.017l6.671-86.716-.537-.159c11.455-7.624 18.779-20.962 17.833-35.961" style="fill:#b67f5f"/><path d="M231.952 7.5h-33.348c-37.94 0-67.586 32.758-63.81 70.51l8.981 89.812h8.015c8.854 0 16.032-7.178 16.032-16.032l.001-40.081v-40.08c0-35.417 28.711-64.129 64.129-64.129" style="fill:#a06e50"/><path d="M175.839 368.225v-16.976l-40.081 11.788v141.461h240.483v-141.46L336.16 351.25v16.976c0 44.272-35.89 80.161-80.161 80.161s-80.16-35.891-80.16-80.162M372.542 111.709l2.354-30.603-.537-.159c3.781-2.517 7.053-5.703 9.785-9.319H134.499c.003 2.109.079 4.234.294 6.381l3.37 33.7h234.37900000000002" style="fill:#a5cdff"/><path d="M296.081 103.693c9.653 0 18.39-3.553 25.309-9.237 8.845 5.825 19.421 9.237 30.804 9.237 7.54 0 14.721-1.51 21.289-4.207l1.414-18.38-.537-.159c3.781-2.517 7.053-5.703 9.785-9.319H256.808c3.714 18.295 19.882 32.065 39.273 32.065" style="fill:#8cb4eb"/><path d="M256.782 71.629h24.048V55.597h-8.016c-8.854 0-16.032 7.178-16.032 16.032" style="fill:#a06e50"/><circle cx="352.19" cy="47.581" r="40.08" style="fill:#b67f5f"/><circle cx="296.08" cy="63.61" r="24.05" style="fill:#b67f5f"/><path d="M134.499 71.629c.003 2.109.079 4.234.294 6.381l3.37 33.7h29.66V71.629z" style="fill:#8cb4eb"/><path d="M135.758 448.386v56.113H111.71v-32.064c0-13.282 10.767-24.049 24.048-24.049M376.242 448.386v56.113h24.048v-32.064c0-13.282-10.767-24.049-24.048-24.049" style="fill:#f0c382"/><path d="M336.161 351.249v16.976c0 44.272-35.89 80.161-80.161 80.161s-80.161-35.889-80.161-80.161v-16.976l-24.048 7.073v9.903c0 57.553 46.656 104.209 104.209 104.209s104.209-46.656 104.209-104.209v-9.903z" style="fill:#8cb4eb"/><path d="M207.903 168.338a7.5 7.5 0 0 0-7.5 7.5v8.016a7.5 7.5 0 0 0 15 0v-8.016a7.5 7.5 0 0 0-7.5-7.5M304.097 168.338a7.5 7.5 0 0 0-7.5 7.5v8.016a7.5 7.5 0 0 0 15 0v-8.016a7.5 7.5 0 0 0-7.5-7.5M274.781 226.612c-2.737 2.701-9.299 5.855-18.781 5.855s-16.043-3.154-18.781-5.855a7.5 7.5 0 0 0-10.535 10.677c6.459 6.373 17.418 10.177 29.316 10.177s22.856-3.805 29.316-10.177a7.5 7.5 0 0 0-10.535-10.677"/><path d="m415.978 366.907-84.486-24.849c-6.994-2.057-11.879-8.585-11.879-15.876v-34.527c25.013-17.396 42.617-44.741 47.019-76.253h4.459c14.617 0 27.154-10.861 28.542-24.727.778-7.771-1.764-15.531-6.975-21.288a27.6 27.6 0 0 0-16.357-8.757l5.856-76.125c10.74-8.731 17.617-22.038 17.617-36.926C399.774 21.345 378.429 0 352.193 0H198.604c-20.199 0-39.557 8.589-53.11 23.565s-20.173 35.093-18.164 55.19l8.206 82.062c-12.207 2.271-21.954 12.101-23.169 24.23-.778 7.771 1.764 15.53 6.974 21.289a27.6 27.6 0 0 0 20.425 9.066h5.598c4.399 31.522 22.003 58.87 47.023 76.264v34.516c0 7.291-4.885 13.819-11.879 15.876l-84.486 24.849c-23.498 6.912-39.909 28.844-39.909 53.337v84.254a7.5 7.5 0 0 0 15 0v-84.254c0-17.885 11.983-33.9 29.142-38.947l28.003-8.236v131.437a7.5 7.5 0 0 0 15 0V368.65l25.081-7.377v6.952c0 48.336 39.325 87.661 87.661 87.661 15.411 0 30.571-4.058 43.84-11.735a7.5 7.5 0 0 0-7.512-12.984c-10.989 6.358-23.551 9.718-36.328 9.718-40.065 0-72.661-32.596-72.661-72.661V356.86l1.402-.412c13.334-3.922 22.646-16.368 22.646-30.267V300.45c14.705 7.137 31.199 11.146 48.613 11.146 17.412 0 33.906-4.012 48.613-11.153v25.74c0 13.898 9.313 26.345 22.646 30.267l1.402.412v11.364c0 15.87-5.022 30.945-14.525 43.595a7.5 7.5 0 0 0 5.991 12.005 7.49 7.49 0 0 0 6.002-2.996c11.469-15.268 17.532-33.458 17.532-52.604v-6.952l25.079 7.376V504.5a7.5 7.5 0 0 0 15 0V373.061l28.005 8.237c17.158 5.046 29.142 21.062 29.142 38.947v84.254a7.5 7.5 0 0 0 15 0v-84.254c0-24.494-16.411-46.426-39.909-53.338m-55.769-206.585c-4.705 0-8.532-3.828-8.532-8.532v-32.581h12.766l-3.163 41.113zM156.616 33.631A56.73 56.73 0 0 1 198.604 15h153.589c17.965 0 32.581 14.616 32.581 32.581s-14.616 32.581-32.581 32.581a32.6 32.6 0 0 1-29.887-19.583 7.5 7.5 0 1 0-13.752 5.992 48 48 0 0 0 2.274 4.537c-2.792 5.488-8.472 9.054-14.748 9.054-9.125 0-16.548-7.423-16.548-16.548 0-4.079 1.496-7.996 4.212-11.031a7.5 7.5 0 0 0-.586-10.59 7.5 7.5 0 0 0-10.59.586 31.5 31.5 0 0 0-8.036 21.035c0 17.396 14.152 31.548 31.548 31.548 9.762 0 18.765-4.534 24.646-11.884a47.57 47.57 0 0 0 31.467 11.884c4.969 0 9.761-.769 14.268-2.188l-.864 11.237H144.951l-2.508-25.081h97.525a7.5 7.5 0 0 0 0-15h-97.469c1.512-11.262 6.374-21.943 14.117-30.499m-6.054 126.691-4.111-41.113h13.872v32.581c0 4.705-3.828 8.532-8.532 8.532zm8.729 39.565a7.5 7.5 0 0 0-15 0v.516h-4.524a12.57 12.57 0 0 1-9.303-4.131c-2.407-2.66-3.533-6.115-3.171-9.729.63-6.292 6.611-11.22 13.617-11.22h10.88c12.976 0 23.532-10.557 23.532-23.532V119.21h161.354v32.581c0 12.976 10.557 23.532 23.532 23.532h12.024c3.537 0 6.928 1.505 9.303 4.13 2.407 2.66 3.533 6.115 3.171 9.729-.629 6.292-6.61 11.221-13.616 11.221h-3.385v-.439a7.5 7.5 0 0 0-7.497-7.5h-.003a7.5 7.5 0 0 0-7.5 7.495c-.039 53.286-43.421 96.638-96.706 96.638-53.325-.001-96.708-43.385-96.708-96.71"/><path d="M215.919 144.29h-16.032a7.5 7.5 0 0 0 0 15h16.032a7.5 7.5 0 0 0 0-15M312.113 144.29h-16.032a7.5 7.5 0 0 0 0 15h16.032a7.5 7.5 0 0 0 0-15"/></svg>