<svg xmlns="http://www.w3.org/2000/svg" xml:space="preserve" viewBox="0 0 512 512"><path d="m408.281 380.914-82.792-29.221a32.065 32.065 0 0 1-21.393-30.237v-41.408h-96.194v41.408a32.06 32.06 0 0 1-21.393 30.236l-82.793 29.221c-19.229 6.787-32.089 24.962-32.089 45.354V504.5H440.37v-78.231c.001-20.393-12.859-38.568-32.089-45.355" style="fill:#e3aa75"/><path d="m408.281 380.913-66.24-23.379-7.142 17.853c-13.857 34.642-44.775 56.967-78.893 56.967h-.014c-34.118 0-65.036-22.325-78.893-56.967l-7.142-17.853-66.24 23.379c-19.23 6.787-32.089 24.963-32.089 45.355V504.5H440.37v-78.23c.001-20.393-12.859-38.569-32.089-45.357" style="fill:#ffd164"/><path d="M256 320.129c17.034 0 33.296-3.712 48.097-10.257v-29.824h-96.194v29.824c14.801 6.545 31.063 10.257 48.097 10.257" style="fill:#d29b6e"/><path d="M372.234 167.823H360.21V79.645H151.79v112.226c0 57.553 46.656 104.21 104.21 104.21 52.087 0 95.121-38.257 102.851-88.177h13.382c11.068 0 20.04-8.973 20.04-20.04.001-11.069-8.971-20.041-20.039-20.041" style="fill:#f5b97d"/><path d="M272.03 151.79h72.14v24.05h-72.14z" style="fill:#e3aa75"/><path d="M334.697 79.645H151.79v112.226c0 57.553 46.656 104.21 104.21 104.21 5.448 0 10.752-.552 15.968-1.368-36.616-5.693-66.947-30.383-80.493-63.702-4.382-10.776.182-23.22 10.218-29.103 32.13-18.832 70.603-45.64 105.911-81.548 11.537-11.733 20.632-25.439 27.093-40.715" style="fill:#e3aa75"/><path d="M312.113 23.532h-24.048v64.129c38.411 84.503 88.177 84.185 88.177 84.185V87.661c0-35.417-28.712-64.129-64.129-64.129" style="fill:#a06e50"/><path d="M307.91 24.732c-5.336-6.908-12.657-12.296-21.575-15.069A48.1 48.1 0 0 0 272.032 7.5H256c-66.003 0-129.928 56.113-129.928 128.258 0 32.472-2.125 53.982-3.916 66.342-.846 5.843 4.973 10.331 10.405 8.02 28.222-12.009 97.937-45.646 157.895-106.622 9.521-9.683 17.088-21.155 22.318-33.686 6.206-14.868 4.986-32.33-4.864-45.08" style="fill:#8c5f4b"/><path d="m410.779 373.876-82.793-29.221c-9.803-3.46-16.389-12.769-16.389-23.164v-32.71a112 112 0 0 0 20.504-15.131c16.898-15.731 28.357-36.026 33.12-58.247h7.014c15.186 0 27.54-12.354 27.54-27.54 0-11.079-6.579-20.645-16.032-25.012v-75.19c0-39.496-32.133-71.629-71.629-71.629h-1.754C304.464 9.87 297.066 5.146 288.561 2.5A55.6 55.6 0 0 0 272.033 0H256c-34.146 0-68.73 14.266-94.884 39.141-27.435 26.093-42.544 60.405-42.544 96.617 0 54.063-6.028 77.316-6.085 77.528a7.502 7.502 0 0 0 9.748 9.033c.634-.225 9.563-3.427 23.931-10.003 4.414 23.836 16.497 45.64 34.628 62.156a111.8 111.8 0 0 0 19.61 14.3v32.718c0 10.396-6.586 19.704-16.389 23.164l-82.793 29.221c-22.187 7.831-37.093 28.899-37.093 52.428V504.5c0 4.143 3.357 7.5 7.5 7.5s7.5-3.357 7.5-7.5v-78.196a40.5 40.5 0 0 1 4.83-19.169l7.988 6.847a7.47 7.47 0 0 0 4.877 1.806 7.5 7.5 0 0 0 4.885-13.194l-8.34-7.148a40.4 40.4 0 0 1 12.844-7.424l56.845-20.063 7.188 16.173c15.045 33.851 48.702 55.724 85.76 55.724 37.044 0 70.701-21.873 85.746-55.724l7.188-16.173 56.845 20.063a40.4 40.4 0 0 1 12.844 7.424l-36.072 30.918a39.52 39.52 0 0 0-13.816 30.04V504.5c0 4.143 3.357 7.5 7.5 7.5s7.5-3.357 7.5-7.5v-48.097a24.54 24.54 0 0 1 8.578-18.651l35.72-30.617a40.5 40.5 0 0 1 4.831 19.169V504.5c0 4.143 3.357 7.5 7.5 7.5s7.5-3.357 7.5-7.5v-78.196c.001-23.529-14.905-44.597-37.091-52.428m-281.2-170.672c1.848-12.736 3.993-34.597 3.993-67.446 0-32.063 13.453-62.515 37.882-85.749C194.847 27.761 225.663 15 256 15h16.032c4.119 0 8.182.613 12.075 1.823 16.739 5.207 27.498 21.872 26.165 40.526a7.5 7.5 0 0 0 6.945 8.016c4.147.31 7.721-2.814 8.016-6.945.679-9.495-.967-18.625-4.493-26.731 27.146 4.167 48.001 27.68 48.001 55.973v67.517c-14.908-6.665-43.955-22.936-64.61-55.15a405 405 0 0 0 6.898-7.603 7.5 7.5 0 1 0-11.244-9.928c-61.547 69.715-140.212 107.875-170.206 120.706m135.028-50.353 1.278 8.945c-3.099-1.117-6.431-1.723-9.885-1.723s-6.786.606-9.885 1.723l1.278-8.945q.11-.782.056-1.556c15.206-11.664 30.858-25.05 46.009-40.199 9.187 13.651 19.645 24.563 29.918 33.195h-51.344a7.5 7.5 0 0 0-7.425 8.56m31.474 6.439h39.449l-3.844 26.906a16.55 16.55 0 0 1-16.382 14.208h-7.447c-11.042 0-20.663-7.505-23.615-17.902l-.003-.016a53 53 0 0 1-.742-3.861 8787 8787 0 0 1-2.818-19.334zm-87.948 32.061c4.105-.123 7.27-3.704 7.27-7.811V174a532 532 0 0 0 15.3-10.39l-2.243 15.701c-.048.339-.798 3.56-1.044 4.292-3.3 9.82-12.625 16.799-23.273 16.799h-7.447c-5.396 0-10.396-2.694-13.454-6.935a533.408 533.408 0 0 0 17.162-10.004v.389a7.5 7.5 0 0 0 7.729 7.499m-17.238 72.034c-16.707-15.22-27.482-35.617-30.632-57.799a527 527 0 0 0 9.713-4.948c5.651 9.062 15.592 14.765 26.719 14.765h7.447c18.452 0 34.475-12.996 38.556-30.723 1.788-5.65 7.136-9.608 13.301-9.608s11.513 3.958 13.301 9.608c4.082 17.728 20.105 30.723 38.556 30.723h7.447c15.598 0 29.024-11.645 31.231-27.087l3.657-25.602q1.655.915 3.23 1.741c1.98 6.291 7.866 10.867 14.802 10.867h4.009c6.915 0 12.54 5.626 12.54 12.541s-5.625 12.54-12.54 12.54h-4.848a7.5 7.5 0 0 0-6.911-7.998 7.49 7.49 0 0 0-8.047 6.91c-1.843 24.232-12.691 46.732-30.548 63.356-17.947 16.708-41.344 25.909-65.88 25.909-24.145.001-47.268-8.947-65.103-25.195m137.151 114.654c-12.64 28.439-40.917 46.815-72.053 46.815-31.122 0-59.399-18.376-72.039-46.815l-6.707-15.089 11.759-4.15c15.788-5.572 26.396-20.565 26.396-37.309v-25.529a111.7 111.7 0 0 0 40.597 7.619c14.059 0 27.793-2.619 40.597-7.611v25.521c0 16.743 10.608 31.736 26.396 37.309l11.759 4.15z"/><path d="M285.316 237.29a7.5 7.5 0 0 0-10.535-10.677c-2.737 2.701-9.299 5.855-18.781 5.855s-16.044-3.154-18.781-5.855a7.5 7.5 0 0 0-10.535 10.677c6.459 6.373 17.419 10.178 29.316 10.178s22.857-3.805 29.316-10.178M304.097 191.354c4.143 0 7.5-3.357 7.5-7.5v-8.016c0-4.143-3.357-7.5-7.5-7.5s-7.5 3.357-7.5 7.5v8.016c0 4.143 3.357 7.5 7.5 7.5M129.441 426.363l-4.848-4.155a7.5 7.5 0 0 0-9.762 11.388l4.848 4.155a24.54 24.54 0 0 1 8.578 18.651V504.5c0 4.143 3.357 7.5 7.5 7.5s7.5-3.357 7.5-7.5v-48.097a39.51 39.51 0 0 0-13.816-30.04"/></svg>