<svg xmlns="http://www.w3.org/2000/svg" xml:space="preserve" viewBox="0 0 512 512"><path d="M167.941 167.598c-.271 0-.533.037-.803.041a40.06 40.06 0 0 0-46.287-31.455c-15.79 2.7-28.809 15.159-32.067 30.843-3.577 17.221 3.926 32.995 16.675 41.644 4.486 3.043 6.572 8.403 6.459 13.823-.115 5.541.603 11.289 2.366 17.164 6.173 20.571 23.994 36.307 45.248 39.397 34.679 5.042 64.443-21.714 64.443-55.422 0-30.948-25.087-56.035-56.034-56.035M344.049 167.598c.271 0 .533.037.803.041a40.06 40.06 0 0 1 46.287-31.455c15.79 2.7 28.809 15.159 32.067 30.843 3.577 17.221-3.926 32.995-16.675 41.644-4.486 3.043-6.572 8.403-6.459 13.823.115 5.541-.603 11.289-2.366 17.164-6.173 20.571-23.994 36.307-45.248 39.397-34.679 5.042-64.443-21.714-64.443-55.422-.001-30.948 25.087-56.035 56.034-56.035" style="fill:#8c5f4b"/><path d="M255.995 7.5c-66.315 0-120.074 53.759-120.074 120.073v48.03h240.147v-48.03C376.068 61.259 322.31 7.5 255.995 7.5" style="fill:#8c5f4b"/><path d="m408.064 364.416-82.676-29.18a32.02 32.02 0 0 1-21.363-30.194v-49.39h-96.059v49.39a32.02 32.02 0 0 1-21.363 30.194l-82.677 29.18c-19.203 6.777-32.044 24.927-32.044 45.291v94.097h368.226v-94.097c0-20.363-12.842-38.514-32.044-45.291" style="fill:#e3aa75"/><path d="m408.064 364.416-82.676-29.18c-5.304-1.872-9.818-5.095-13.358-9.135v11.086c0 32.873-25.332 61.54-58.19 62.526-34 1.02-61.883-26.238-61.883-60.009v-6.996c-1.694.98-3.46 1.86-5.353 2.528l-82.677 29.18c-19.203 6.777-32.044 24.927-32.044 45.291v94.097h368.226v-94.097c-.001-20.363-12.843-38.513-32.045-45.291" style="fill:#b4f09b"/><path d="M156.098 413.94c8.757 20.996 29.073 34.562 51.758 34.562 4.575 0 9.155-.565 13.614-1.679l34.525-8.632 34.524 8.631a56.2 56.2 0 0 0 13.615 1.68c22.685 0 43.001-13.566 51.758-34.562 8.224-19.715 12.697-41.316 13.308-63.24l-43.813-15.463c-5.303-1.872-9.817-5.095-13.358-9.135v11.086c0 32.873-25.332 61.54-58.19 62.526-34.001 1.02-61.884-26.238-61.884-60.009v-6.996c-1.694.98-3.459 1.86-5.353 2.528L142.79 350.7c.61 21.925 5.085 43.525 13.308 63.24" style="fill:#9bdc9b"/><path d="M207.965 309.785c14.732 6.382 30.977 9.906 48.029 9.906s33.297-3.524 48.029-9.906v-38.123h-96.059z" style="fill:#d29b6e"/><path d="M372.066 159.593h-8.005s-10.719-1.291-13.999-2.199c-18.187-5.036-57.561-20.76-87.388-66.731-3.143-4.844-10.217-4.844-13.36 0-29.827 45.972-69.201 61.696-87.388 66.731-3.279.908-13.999 2.199-13.999 2.199h-8.005c-11.053 0-20.012 8.96-20.012 20.012s8.96 20.012 20.012 20.012h12.412c4.1 53.72 48.889 96.059 103.659 96.059s99.559-42.339 103.659-96.059h12.412c11.053 0 20.012-8.96 20.012-20.012.002-11.052-8.957-20.012-20.01-20.012" style="fill:#f5b97d"/><path d="m304.016 311.686 30.273 10.294c6.133 2.138 10.379 7.802 10.761 14.285 1.708 28.959-4.61 52.334-11.323 68.429-6.118 14.67-21.963 22.684-37.383 18.829l-40.349-10.088-40.349 10.088c-15.421 3.855-31.265-4.159-37.383-18.829-6.713-16.095-13.031-39.47-11.323-68.429.382-6.483 4.628-12.147 10.761-14.285l30.273-10.294-.008-.258v24.015c0 26.526 21.503 48.029 48.029 48.029s48.029-21.504 48.029-48.029v-24.015" style="fill:#ffe17d"/><path d="m304.016 311.686.008.003v-.26zM207.965 311.429v.26l.008-.003z" style="fill:#ffd164"/><path d="M255.993 125.609c15.736 17.015 40.1 38.573 70.264 49.995 12.446 4.712 25.796-4.45 25.796-17.758v-.013a28 28 0 0 1-1.991-.437c-18.182-5.034-57.54-20.752-87.364-66.696-3.15-4.852-10.246-4.87-13.396-.017-21.077 32.476-46.858 49.793-66.607 58.96-1.333.619-12.113 4.982-13.361 5.412-2.709.935-5.247 1.743-7.408 2.341-3.279.908-13.999 2.199-13.999 2.199h-6.863c-10.468 0-20.007 7.532-21.05 17.948-1.2 11.979 8.175 22.077 19.909 22.077h12.412c4.1 53.72 48.889 96.059 103.659 96.059 5.458 0 10.778-.547 16.01-1.357-45.704-7.077-81.615-43.786-87.276-89.926-.163-1.328-.323-3.262-.47-5.568-.798-12.567 5.869-24.509 17.043-30.315 23.001-11.952 41.77-28.933 54.692-42.904" style="fill:#e3aa75"/><path d="M282.368 10.498c-1.882-.395-3.765-.781-5.675-1.093-.696-.121-1.4-.212-2.1-.321-1.623 7.23-2.589 14.706-2.589 22.43 0 57.473 46.591 104.064 104.064 104.064v-8.005c0-57.242-40.089-105.043-93.7-117.075" style="fill:#a06e50"/><path d="M207.969 160.794a7.5 7.5 0 0 0-7.5 7.5v8.005a7.5 7.5 0 0 0 15 0v-8.005a7.5 7.5 0 0 0-7.5-7.5M304.028 160.794a7.5 7.5 0 0 0-7.5 7.5v8.005c0 4.142 3.357 7.5 7.5 7.5s7.5-3.358 7.5-7.5v-8.005a7.5 7.5 0 0 0-7.5-7.5M274.746 218.99c-2.732 2.695-9.281 5.843-18.747 5.843s-16.015-3.148-18.747-5.844a7.5 7.5 0 0 0-10.535 10.677c6.452 6.366 17.398 10.166 29.282 10.166s22.831-3.8 29.282-10.167a7.5 7.5 0 1 0-10.535-10.675"/><path d="m410.563 357.782-57.967-20.459c-.025-.502-.033-.992-.062-1.498-.563-9.567-6.757-17.781-15.833-20.945l-25.188-8.565v-17.96a112 112 0 0 0 10.832-7.112 58.8 58.8 0 0 0 25.832 5.936c3.678 0 7.398-.335 11.13-1.009 20.928-3.78 38.771-19.409 45.458-39.817 2.601-7.937 3.536-16.06 2.782-24.144a8.12 8.12 0 0 1 3.502-7.471c16.023-10.91 23.613-29.601 19.809-48.778-3.755-18.922-19.079-33.851-38.133-37.15a49.4 49.4 0 0 0-9.16-.717v-.519C383.564 57.229 326.335 0 255.991 0S128.417 57.229 128.417 127.574v.517a49.3 49.3 0 0 0-8.939.719c-19.055 3.299-34.379 18.229-38.133 37.15-3.805 19.178 3.785 37.869 19.809 48.778a8.12 8.12 0 0 1 3.501 7.47c-.753 8.087.183 16.21 2.783 24.144 6.688 20.408 24.53 36.037 45.458 39.817a62.5 62.5 0 0 0 11.112 1.007 58.9 58.9 0 0 0 25.711-5.874 112 112 0 0 0 10.751 7.052v17.96l-25.243 8.584c-9.021 3.146-15.215 11.359-15.779 20.926-.03.508-.037 1-.063 1.504l-57.951 20.454c-22.16 7.821-37.048 28.864-37.048 52.363V504.5a7.5 7.5 0 0 0 15 0v-94.354c0-4.979.921-9.804 2.617-14.289l37.86 32.452a24.5 24.5 0 0 1 8.563 18.617V504.5a7.5 7.5 0 0 0 15 0v-57.575a39.47 39.47 0 0 0-13.801-30.005l-39.69-34.021a40.4 40.4 0 0 1 16.493-10.973l52.91-18.674c1.06 23.192 6.802 41.868 12 54.33 7.604 18.234 27.003 27.999 46.124 23.217l31.031-7.757v24.73a7.5 7.5 0 0 0 15 0v-24.73l31.03 7.757a40 40 0 0 0 9.739 1.207c15.65 0 30.076-9.298 36.385-24.424 5.198-12.461 10.941-31.139 12-54.336l52.925 18.68a40.4 40.4 0 0 1 16.493 10.973l-39.691 34.021a39.47 39.47 0 0 0-13.801 30.005V504.5c0 4.142 3.357 7.5 7.5 7.5s7.5-3.358 7.5-7.5v-57.575a24.5 24.5 0 0 1 8.563-18.617l37.861-32.452a40.4 40.4 0 0 1 2.617 14.289V504.5c0 4.142 3.357 7.5 7.5 7.5s7.5-3.358 7.5-7.5v-94.354c-.002-23.5-14.891-44.543-37.051-52.364m-20.397-214.193c12.78 2.212 23.463 12.612 25.979 25.289 2.613 13.174-2.573 25.995-13.537 33.46a23.13 23.13 0 0 0-9.996 21.262c.563 6.026-.145 12.109-2.101 18.081-4.995 15.244-18.29 26.913-33.87 29.727-7.393 1.334-14.697.908-21.538-1.212 16.603-16.713 27.957-38.641 31.37-63.079h5.59c15.17 0 27.512-12.342 27.512-27.512 0-11.065-6.57-20.619-16.01-24.983v-11.51a34.4 34.4 0 0 1 6.601.477M255.991 15c62.073 0 112.573 50.5 112.573 112.574v24.519l-.505-.002c-7.238 0-14.659-1.027-22.055-3.054a7.497 7.497 0 0 0-9.216 5.251 7.5 7.5 0 0 0 5.251 9.215c8.688 2.38 17.441 3.587 26.02 3.587v-.028c.943.031 2.209.031 4.003.031 6.899 0 12.512 5.613 12.512 12.512s-5.612 12.512-12.512 12.512h-4.514c.001-.169.006-.336.006-.505 0-4.142-3.357-7.5-7.5-7.5s-7.5 3.358-7.5 7.5c0 53.246-43.318 96.564-96.563 96.564s-96.564-43.318-96.564-96.564a7.5 7.5 0 0 0-15 0c0 .169.006.336.006.505h-4.514c-6.899 0-12.512-5.613-12.512-12.512s5.613-12.512 12.512-12.512c1.794 0 3.059 0 4.002-.031v.028c53.568 0 95.935-46.436 111.664-66.4.05-.063.166-.211.405-.211s.355.147.404.21c9.583 12.164 29.621 34.865 56.151 50.234a7.5 7.5 0 0 0 10.249-2.73 7.5 7.5 0 0 0-2.729-10.249c-24.368-14.116-42.969-35.216-51.888-46.537-2.968-3.767-7.409-5.928-12.187-5.928h-.001c-4.777 0-9.219 2.161-12.187 5.928-43.15 54.77-84.225 60.683-99.882 60.683l-.505.001v-24.518C143.417 65.5 193.918 15 255.991 15M155.562 271.408c-15.58-2.814-28.874-14.483-33.87-29.728-1.957-5.969-2.664-12.053-2.102-18.081a23.12 23.12 0 0 0-9.995-21.262c-10.963-7.464-16.151-20.286-13.537-33.46 2.515-12.677 13.198-23.077 25.979-25.289a34 34 0 0 1 6.38-.481v11.515c-9.44 4.364-16.01 13.918-16.01 24.983 0 15.17 12.342 27.512 27.512 27.512h5.59c3.416 24.461 14.788 46.408 31.417 63.127-6.796 2.074-14.043 2.486-21.364 1.164m100.429 31.769c14.288 0 27.955-2.703 40.521-7.619l.008 39.886c0 22.348-18.182 40.529-40.529 40.529s-40.529-18.181-40.529-40.529l.008-39.886c12.566 4.916 26.233 7.619 40.521 7.619m70.81 98.632c-4.728 11.334-16.774 17.406-28.642 14.439l-40.35-10.087a7.5 7.5 0 0 0-3.638 0l-40.35 10.087c-11.87 2.965-23.915-3.106-28.643-14.439-5.834-13.99-12.437-36.64-10.758-65.101.207-3.5 2.461-6.5 5.689-7.626l20.351-6.92v13.283c0 30.619 24.91 55.529 55.529 55.529s55.529-24.91 55.529-55.529v-13.283l20.297 6.902c3.282 1.145 5.536 4.145 5.742 7.645 1.681 28.463-4.922 51.111-10.756 65.1"/><path d="M255.991 472.289a7.5 7.5 0 0 0-7.5 7.5v8.005a7.5 7.5 0 0 0 15 0v-8.005a7.5 7.5 0 0 0-7.5-7.5"/></svg>