<svg xmlns="http://www.w3.org/2000/svg" xml:space="preserve" viewBox="0 0 512.002 512.002"><path d="M291.502 283.611h-71c-76.246 0-138.055-61.81-138.055-138.055C82.446 69.31 144.256 7.5 220.502 7.5h71c76.246 0 138.055 61.81 138.055 138.055 0 76.247-61.809 138.056-138.055 138.056" style="fill:#5a4650"/><path d="m405.695 374.508-77.482-22.789a23.67 23.67 0 0 1-16.989-22.705V291.5H200.78v37.514a23.67 23.67 0 0 1-16.989 22.705l-77.482 22.789c-23.502 6.912-39.64 28.481-39.64 52.978V504.5h378.667v-77.014c-.001-24.497-16.14-46.066-39.641-52.978" style="fill:#b67f5f"/><path d="M200.78 316.993c16.574 8.853 35.369 13.951 55.222 13.951s38.649-5.098 55.222-13.951V291.5H200.78z" style="fill:#a06e50"/><path d="M370.391 173.167h-11.833c-8.713 0-15.778-7.064-15.778-15.778v-39.444c0-8.714-7.065-15.778-15.778-15.778h-142c-8.713 0-15.778 7.064-15.778 15.778v39.444c0 8.714-7.065 15.778-15.778 15.778h-11.833c-10.892 0-19.722 8.83-19.722 19.722s8.83 19.722 19.722 19.722h12.232c4.041 52.941 48.181 94.667 102.157 94.667s98.116-41.725 102.157-94.667h12.232c10.892 0 19.722-8.83 19.722-19.722s-8.83-19.722-19.722-19.722" style="fill:#cd916e"/><path d="M185.002 102.167c-8.713 0-15.778 7.064-15.778 15.778v39.444c0 8.714-7.065 15.778-15.778 15.778h-11.833c-10.892 0-19.722 8.83-19.722 19.722s8.83 19.722 19.722 19.722h12.232c4.041 52.941 48.181 94.667 102.157 94.667 5.397 0 10.658-.526 15.828-1.329-49.153-7.586-86.828-49.949-86.828-101.226V157.39c0-17.428 14.127-31.556 31.556-31.556h94.667c8.713 0 15.778-7.064 15.778-15.778v-7.889z" style="fill:#b67f5f"/><path d="M311.224 504.5h134.111v-77.014c0-24.497-16.139-46.066-39.64-52.978l-77.482-22.789c-9.444-2.778-16.035-11.096-16.831-20.774h-.158z" style="fill:#6e5a64"/><path d="m358.557 504.5 13.57-61.063a15.78 15.78 0 0 0-5.935-16.045l-15.938-11.954a15.78 15.78 0 0 1-6.153-14.854l5.608-39.259c.649-4.542-.662-9.155-3.708-12.586-6.341-7.143-18.751-18.419-34.778-19.726V504.5z" style="fill:#5a4650"/><path d="M200.78 504.5H66.668v-77.014c0-24.497 16.139-46.066 39.64-52.978l77.482-22.789c9.444-2.778 16.035-11.096 16.831-20.774h.158V504.5z" style="fill:#6e5a64"/><path d="m153.446 504.5-13.57-61.063a15.78 15.78 0 0 1 5.935-16.045l15.938-11.954a15.78 15.78 0 0 0 6.153-14.854l-5.608-39.259c-.649-4.542.662-9.155 3.708-12.586 6.341-7.143 18.751-18.419 34.778-19.726V504.5z" style="fill:#5a4650"/><path d="M256.002 409.833c-20.979 0-40.218-7.445-55.222-19.837V504.5h110.444V389.996c-15.004 12.392-34.243 19.837-55.222 19.837" style="fill:#dc4655"/><path d="M311.224 409.336v-41.752c-13.026 16.123-32.927 26.472-55.222 26.472s-42.196-10.349-55.222-26.472v41.752c15.961 10.252 34.885 16.275 55.222 16.275s39.261-6.023 55.222-16.275" style="fill:#ff8087"/><path d="m207.654 216.936 17.903-6.713a22.6 22.6 0 0 0 14.667-21.165v-15.891h-40.507c-12.484 0-22.604 10.12-22.604 22.604 0 15.782 15.763 26.707 30.541 21.165M304.35 216.936l-17.903-6.713a22.6 22.6 0 0 1-14.667-21.165v-15.891h40.507c12.484 0 22.604 10.12 22.604 22.604 0 15.782-15.764 26.707-30.541 21.165" style="fill:#e6646e"/><path d="M274.401 238.828c-2.678 2.643-9.104 5.728-18.399 5.728s-15.722-3.085-18.399-5.728a7.5 7.5 0 0 0-10.535 10.677c6.378 6.293 17.195 10.05 28.935 10.05s22.557-3.757 28.935-10.05a7.5 7.5 0 1 0-10.537-10.677M200.779 449.667a7.5 7.5 0 0 0-7.5 7.5V504.5c0 4.142 3.357 7.5 7.5 7.5s7.5-3.358 7.5-7.5v-47.333c0-4.143-3.357-7.5-7.5-7.5M312.286 165.667H199.718c-16.6 0-30.104 13.505-30.104 30.104a30.103 30.103 0 0 0 40.674 28.187l17.902-6.713c11.684-4.382 19.534-15.709 19.534-28.188v-8.391h16.555v8.391c0 12.478 7.851 23.806 19.534 28.188l17.902 6.713a30.108 30.108 0 0 0 27.717-3.444 30.11 30.11 0 0 0 12.957-24.743c.001-16.6-13.503-30.104-30.103-30.104m-79.562 23.391c0 6.26-3.938 11.944-9.802 14.143l-17.902 6.713c-4.704 1.765-9.773 1.135-13.906-1.728-4.132-2.863-6.501-7.388-6.501-12.415 0-8.329 6.775-15.104 15.104-15.104h1.451v7.5c0 4.142 3.357 7.5 7.5 7.5s7.5-3.358 7.5-7.5v-7.5h16.556zm88.165 19.128c-4.132 2.863-9.202 3.493-13.906 1.728l-17.902-6.714c-5.863-2.199-9.802-7.882-9.802-14.143v-8.391h16.556v7.5c0 4.142 3.357 7.5 7.5 7.5s7.5-3.358 7.5-7.5v-7.5h1.451c8.329 0 15.104 6.776 15.104 15.104 0 5.027-2.369 9.552-6.501 12.416"/><path d="m407.811 367.313-51.476-15.14a22.8 22.8 0 0 0-4.726-8.413c-5.927-6.677-17.51-17.48-32.886-21.124V295.1a111 111 0 0 0 11.511-9.207c62.933-17.331 106.822-74.927 106.822-140.338C437.057 65.296 371.761 0 291.502 0h-71C140.242 0 74.946 65.296 74.946 145.556c0 65.341 43.91 123.01 106.814 140.339a111 111 0 0 0 11.519 9.212v27.53c-15.376 3.644-26.958 14.447-32.886 21.125a22.8 22.8 0 0 0-4.726 8.412l-51.476 15.14c-26.509 7.797-45.023 32.541-45.023 60.173V504.5c0 4.142 3.357 7.5 7.5 7.5s7.5-3.358 7.5-7.5v-77.014c0-21.024 14.087-39.851 34.256-45.783l47.221-13.888 4.833 33.83a8.28 8.28 0 0 1-3.229 7.793l-15.938 11.954c-7.299 5.475-10.736 14.767-8.757 23.672l13.569 61.063a7.5 7.5 0 0 0 8.948 5.695 7.5 7.5 0 0 0 5.694-8.948l-13.569-61.063a8.29 8.29 0 0 1 3.114-8.417l15.938-11.953a23.27 23.27 0 0 0 9.078-21.915l-5.608-39.26c-.346-2.417.344-4.803 1.891-6.545 4.188-4.717 11.902-12.052 21.669-15.461v87.354c0 4.142 3.357 7.5 7.5 7.5s7.5-3.358 7.5-7.5v-3.467c14.865 7.194 31.133 10.966 47.723 10.966s32.857-3.772 47.723-10.966V504.5c0 4.142 3.357 7.5 7.5 7.5s7.5-3.358 7.5-7.5V338.258c9.767 3.409 17.481 10.744 21.669 15.46 1.547 1.743 2.236 4.129 1.891 6.547l-5.608 39.259a23.27 23.27 0 0 0 9.078 21.914l15.938 11.954a8.29 8.29 0 0 1 3.114 8.418l-13.569 61.063a7.5 7.5 0 1 0 14.642 3.253l13.569-61.063c1.979-8.906-1.458-18.198-8.757-23.672l-15.938-11.954a8.28 8.28 0 0 1-3.229-7.792l4.833-33.831 47.221 13.888c20.169 5.932 34.256 24.759 34.256 45.783V504.5c0 4.142 3.357 7.5 7.5 7.5s7.5-3.358 7.5-7.5v-77.014c.001-27.632-18.514-52.377-45.023-60.173M89.946 145.555C89.946 73.567 148.513 15 220.502 15h71c71.988 0 130.556 58.567 130.556 130.556 0 50.177-28.791 95.224-72.432 116.94 7.842-12.661 13.194-27.017 15.354-42.385h4.285c14.446 0 26.836-10.736 28.208-24.441.769-7.682-1.744-15.351-6.894-21.042a27.28 27.28 0 0 0-20.189-8.961h-11.833c-4.564 0-8.278-3.713-8.278-8.278v-39.444c0-12.835-10.442-23.278-23.277-23.278h-7.888c-4.143 0-7.5 3.358-7.5 7.5s3.357 7.5 7.5 7.5h7.888c4.564 0 8.277 3.713 8.277 8.278v39.444c0 12.835 10.442 23.278 23.278 23.278h11.833c3.447 0 6.752 1.467 9.066 4.026 2.346 2.592 3.443 5.96 3.091 9.483-.613 6.132-6.448 10.936-13.282 10.936h-3.212v-.313a7.5 7.5 0 0 0-7.497-7.5h-.003a7.5 7.5 0 0 0-7.5 7.495c-.038 52.375-42.678 94.985-95.052 94.985-52.414 0-95.056-42.642-95.056-95.056 0-4.142-3.357-7.5-7.5-7.5s-7.5 3.358-7.5 7.5v.389h-4.333a12.25 12.25 0 0 1-9.067-4.026c-2.346-2.592-3.443-5.96-3.09-9.483.614-6.132 6.449-10.935 13.283-10.935h10.707c12.836 0 23.278-10.442 23.278-23.278v-39.444c0-4.564 3.713-8.278 8.277-8.278h102.556c4.143 0 7.5-3.358 7.5-7.5s-3.357-7.5-7.5-7.5H185.002c-12.835 0-23.277 10.442-23.277 23.278v39.444c0 4.564-3.714 8.278-8.278 8.278H142.74c-14.445 0-26.836 10.735-28.209 24.44-.77 7.681 1.743 15.351 6.894 21.042a27.27 27.27 0 0 0 20.189 8.962h5.405c2.159 15.363 7.508 29.716 15.345 42.373-43.62-21.731-72.418-66.813-72.418-116.93m166.056 169.223c17.087 0 33.277-3.922 47.723-10.905v60.998c-12.09 13.804-29.331 21.686-47.723 21.686s-35.633-7.881-47.723-21.686v-60.993c14.445 6.98 30.634 10.9 47.723 10.9m0 103.333c-16.785 0-33.196-4.468-47.723-12.941v-19.804c13.561 10.427 30.222 16.19 47.723 16.19s34.162-5.763 47.723-16.19v19.804c-14.527 8.473-30.939 12.941-47.723 12.941"/></svg>