<svg xmlns="http://www.w3.org/2000/svg" width="512" height="512"><path fill="#bc83df" d="M236.252 261.888c-77.655-44.833-164.026-40.615-201.747 24.722-34.831 60.33 19.584 103.392 40.324 147.681 12.838 27.415 16.756 49.426 17.848 62.546.483 5.804 6.628 9.352 11.896 6.868 11.908-5.615 32.928-13.227 63.09-15.817 48.725-4.184 113.226 21.409 148.057-38.921 37.72-65.338-1.813-142.246-79.468-187.079"/><path fill="#ae6ad8" d="M315.721 448.965c-34.833 60.334-99.331 34.74-148.057 38.924-30.162 2.591-51.182 10.199-63.096 15.815-5.267 2.485-11.408-1.06-11.89-6.864-.458-5.51-1.409-12.563-3.317-20.942 11.978-5.056 30.628-10.907 55.974-13.084 47.005-4.036 109.221 20.648 142.818-37.545 31.46-54.491 7.207-117.339-48.37-161.301 75.31 45.104 113.08 120.663 75.938 184.997"/><path fill="#fff1e2" d="M315.721 448.965c-34.833 60.334-99.331 34.74-148.057 38.924-30.162 2.591-51.182 10.199-63.096 15.815-5.267 2.485-11.408-1.06-11.89-6.864-1.094-13.126-5.015-35.133-17.853-62.55-13.078-27.923-39.542-55.358-48.582-86.94 16.872-18.529 49.02-44.556 83.992-24.365 45.599 26.326.548 81.091 40.536 104.177 22.987 13.271 59.488-22.461 93.846-19.982 55.672 4.018 71.705 40.743 71.104 41.785"/><path fill="#fee7c9" d="M315.721 448.965c-34.833 60.334-99.331 34.74-148.057 38.924-30.162 2.591-51.182 10.199-63.096 15.815-5.267 2.485-11.408-1.06-11.89-6.864-.458-5.51-1.409-12.563-3.317-20.942 11.978-5.056 30.628-10.907 55.974-13.084 47.005-4.036 109.221 20.648 142.818-37.545q1.207-2.091 2.302-4.188c19.237 11.958 25.651 27.216 25.266 27.884"/><path fill="#2db181" d="M484.675 122.006c8.759-15.171 3.561-34.57-11.61-43.328-7.645-4.414-16.362-5.279-24.252-3.115a53.6 53.6 0 0 0-19.379-15.68c-26.822-12.842-58.977-1.51-71.82 25.313a54 54 0 0 0-2.58 6.453c-13.452-1.322-27.066 5.123-34.264 17.59-9.811 16.993-3.989 38.722 13.005 48.533 13.887 8.017 30.933 5.59 42.057-4.837a54 54 0 0 0 7.096 4.08c24.845 11.896 54.253 3.039 68.662-19.647 12.79 2.301 26.213-3.459 33.085-15.362"/><path fill="#158f5e" d="M484.673 121.999c-6.876 11.909-20.289 17.666-33.085 15.367-14.409 22.689-43.811 31.543-68.664 19.65a55 55 0 0 1-7.086-4.079c-11.131 10.42-28.175 12.858-42.06 4.841-10.841-6.259-17.134-17.374-17.729-29.016a35.3 35.3 0 0 0 4.44 3.174c11.73 7.077 25.854 6.567 36.755-.016 3.929-2.376 8.784-2.41 12.93-.424l.067.039c22.79 10.906 49.416 4.368 64.789-14.304 2.439-2.969 6.064-4.795 9.913-4.85 11.804-.17 23.184-6.922 28.53-18.761a31 31 0 0 0 2.751-12.853c12.695 9.482 16.564 27.176 8.449 41.232"/><path fill="#a3e440" d="M353.15 34.337c-2.701-17.308-18.922-29.15-36.23-26.448-8.722 1.361-16.052 6.158-20.837 12.794a53.6 53.6 0 0 0-24.927-.047c-28.943 6.834-46.865 35.836-40.032 64.778a54 54 0 0 0 2.041 6.643c-11.303 7.413-17.858 20.974-15.639 35.198 3.026 19.388 21.195 32.651 40.582 29.626 15.843-2.472 27.592-15.06 29.709-30.159a54.4 54.4 0 0 0 8.085-1.276c26.809-6.33 44.147-31.68 41.129-58.385 11.403-6.236 18.238-19.144 16.119-32.724"/><path fill="#8dc637" d="M295.903 125.441a54 54 0 0 1-8.085 1.287c-2.12 15.088-13.87 27.682-29.712 30.153-15.214 2.375-29.683-5.292-36.666-18.077 3.694.72 7.537.852 11.429.325 13.564-1.852 24.223-11.081 28.594-23.037 1.583-4.328 5.324-7.436 9.81-8.485l.09-.024c24.582-5.797 41.205-27.602 41.461-51.781.048-3.853 1.721-7.544 4.683-10.007 9.077-7.546 13.696-19.932 10.432-32.504a29.7 29.7 0 0 0-2.009-5.512c13.613 1.765 24.997 12.307 27.217 26.554 2.122 13.58-4.71 26.494-16.117 32.721 3.018 26.706-14.321 52.067-41.127 58.387"/><path d="M139.608 308.587a7.5 7.5 0 0 0 2.745 10.245l19.367 11.182a7.498 7.498 0 0 0 10.245-2.746 7.5 7.5 0 0 0-2.745-10.245l-19.367-11.182a7.5 7.5 0 0 0-10.245 2.746M91.561 381.757a7.5 7.5 0 0 0 3.757-13.996l-14.756-8.519a7.5 7.5 0 0 0-7.5 12.99l14.756 8.519a7.5 7.5 0 0 0 3.743 1.006"/><path d="M476.815 72.182c-7.698-4.444-16.461-6.115-25.118-4.868-5.343-5.936-11.725-10.7-19.023-14.195-30.509-14.606-67.215-1.672-81.824 28.838a57 57 0 0 0-.934 2.054 43 43 0 0 0-6.158.685 61 61 0 0 0 1.078-13.717c11.776-8.554 18.008-23.164 15.724-37.798-1.615-10.351-7.164-19.452-15.625-25.629s-18.821-8.69-29.171-7.073c-8.783 1.371-16.655 5.567-22.612 11.972-7.887-1.269-15.845-.973-23.72.886-15.947 3.765-29.474 13.516-38.088 27.455s-11.284 30.399-7.52 46.346q.256 1.085.563 2.186c-11.035 9.621-16.565 24.388-14.271 39.09 2.017 12.927 9.63 23.612 19.981 29.99-.13.524-.267 1.045-.393 1.571-8.038 33.576-6.861 64.755-3.507 87.998-15.058-7.521-30.395-13.309-45.764-17.251a7.5 7.5 0 0 0-3.727 14.53c18.774 4.814 37.546 12.597 55.795 23.133 37.267 21.516 65.647 50.793 79.912 82.437 3.381 7.5 5.916 14.999 7.628 22.455l-59.92-34.595a7.5 7.5 0 0 0-7.5 12.99l69.977 40.401c.582 14.08-1.887 27.869-7.397 41.067-3.6-4.598-8.879-10.16-16.304-15.446-14.637-10.421-32.718-16.475-53.741-17.992-17.744-1.285-35.462 6.35-51.092 13.082-15.669 6.75-30.467 13.125-39.543 7.885-14.712-8.494-15.085-21.571-14.475-42.203.608-20.557 1.365-46.14-26.062-61.975-26.254-15.158-55.386-9.539-83.096 15.625-1.2-13.027 1.454-26.76 10.11-41.754 11.012-19.074 26.823-33.061 46.317-41.446l51.929 29.981a7.499 7.499 0 0 0 10.245-2.745 7.5 7.5 0 0 0-2.745-10.245l-40.169-23.191c11.13-2.479 23.143-3.435 35.888-2.793a7.48 7.48 0 0 0 7.867-7.114 7.5 7.5 0 0 0-7.113-7.868c-24.533-1.233-46.835 2.882-66.307 12.233-20.679 9.93-37.132 25.302-48.903 45.689-28.279 48.98-2.534 87.584 20.18 121.644 3.593 5.386 6.985 10.474 10.197 15.62a7.493 7.493 0 0 0 10.333 2.391 7.5 7.5 0 0 0 2.392-10.334c-3.331-5.337-6.946-10.758-10.442-16-10.429-15.637-20.586-30.868-26.01-46.847 31.235-32.492 56.208-28.871 71.826-19.854 19.668 11.356 19.158 28.588 18.569 48.54-.586 19.796-1.249 42.233 21.968 55.637 15.597 9.004 33.754 1.182 52.977-7.099 14.741-6.349 29.989-12.913 44.079-11.898 42.768 3.087 59.144 26.348 63.257 33.675-5.827 9.251-12.446 16.092-19.699 21.101l-42.55-24.566a7.5 7.5 0 0 0-10.245 2.745 7.5 7.5 0 0 0 2.745 10.245l33.961 19.607c-19.095 6.509-41.088 5.091-63.799 3.623-13.638-.883-27.74-1.794-40.727-.678-30.965 2.659-52.791 10.444-65.648 16.506-.099.047-.397.19-.792-.038-.394-.227-.421-.56-.43-.668-.909-10.937-3.776-28.572-12.274-50.473a7.5 7.5 0 0 0-13.984 5.426c7.849 20.23 10.482 36.338 11.309 46.291a15.87 15.87 0 0 0 22.57 13.03c11.746-5.539 31.784-12.66 60.533-15.129 11.865-1.02 24.79-.183 38.476.702 40.858 2.642 87.158 5.634 115.434-43.346 19.043-32.983 20.419-71.36 3.876-108.06-14.059-31.189-40.41-60.098-74.884-82.41 6.264-5.809 19.18-14.866 42.828-20.644 44.492-10.87 62.26-44.501 62.996-45.928 1.892-3.673.45-8.171-3.216-10.077-3.668-1.907-8.19-.474-10.108 3.184-.151.29-15.618 29.059-53.233 38.249-18.003 4.399-30.773 10.639-39.616 16.526 6.71-15.683 18.604-38.529 37.851-60.734 9.187-10.599 19.111-20.025 29.737-28.3a43 43 0 0 0 11.581 9.746c6.774 3.912 14.207 5.826 21.581 5.826 8.769 0 17.453-2.708 24.841-7.984a61.514 61.514 0 0 0 18.705 6.688 7.5 7.5 0 0 0 2.702-14.755 46.5 46.5 0 0 1-17.804-7.307 7.5 7.5 0 0 0-9.349.73c-8.927 8.369-22.571 9.937-33.176 3.814a28 28 0 0 1-6.856-5.556 198 198 0 0 1 35.119-18.515c4.786.24 23.614 1.812 45.895 12.013a7.5 7.5 0 0 0 3.117.683 7.5 7.5 0 0 0 6.824-4.38 7.5 7.5 0 0 0-3.697-9.941 157 157 0 0 0-21.73-8.067c15.05-3.596 30.914-5.75 47.583-6.421a7.5 7.5 0 0 0-.604-14.988c-14.324.577-28.172 2.222-41.502 4.898a102 102 0 0 1 13.698-8.534 7.5 7.5 0 0 0 3.197-10.113 7.5 7.5 0 0 0-10.113-3.198c-20.936 10.877-31.96 24.194-35.849 29.616-10.578 3.577-20.76 7.878-30.498 12.922a214 214 0 0 0-18.12 10.551 27.9 27.9 0 0 1 .893-13.907 61.6 61.6 0 0 0 12.129-15.279c5.175-3.128 11.249-4.536 17.289-3.945a7.504 7.504 0 0 0 7.856-5.114 47 47 0 0 1 2.223-5.565c11.036-23.05 38.771-32.822 61.816-21.787 6.607 3.164 12.218 7.703 16.675 13.491a7.495 7.495 0 0 0 7.927 2.657c6.297-1.727 12.871-.882 18.518 2.377 11.565 6.677 15.541 21.518 8.864 33.083-5.091 8.818-15.238 13.536-25.263 11.732a7.5 7.5 0 0 0-7.658 3.36 46.3 46.3 0 0 1-16.736 15.698 7.501 7.501 0 0 0 3.619 14.074 7.46 7.46 0 0 0 3.605-.929 61.4 61.4 0 0 0 19.456-16.874c14.552.733 28.561-6.734 35.967-19.562 10.813-18.732 4.374-42.765-14.354-53.578m-251.878 53.917c-1.692-10.844 3.152-21.744 12.341-27.77a7.5 7.5 0 0 0 2.907-8.91 47 47 0 0 1-1.762-5.729c-2.845-12.048-.827-24.483 5.681-35.014s16.727-17.897 28.775-20.742a46.3 46.3 0 0 1 10.651-1.252c3.611 0 7.22.431 10.799 1.292a7.5 7.5 0 0 0 7.839-2.907c3.816-5.294 9.466-8.763 15.908-9.769 6.395-.995 12.79.554 18.014 4.368s8.651 9.435 9.65 15.826c1.569 10.061-3.376 20.103-12.308 24.988a7.5 7.5 0 0 0-3.853 7.422 46.06 46.06 0 0 1-4.824 26.303 7 7 0 0 0-.16.316c-6.052 11.549-16.901 20.434-30.417 23.625a47 47 0 0 1-6.968 1.1 7.5 7.5 0 0 0-6.821 6.435c-1.698 12.118-11.336 21.901-23.437 23.79-2.98.464-5.923.433-8.751-.021 8.235-25.906 21.711-49.889 40.268-71.693l17.386 1.668q.366.035.726.035a7.5 7.5 0 0 0 .708-14.966l-6.07-.583a263 263 0 0 1 13.242-12.408 7.5 7.5 0 1 0-9.875-11.29c-10.155 8.882-19.368 18.205-27.647 27.941.408-5.273 1.409-10.686 3.442-15.157a7.5 7.5 0 0 0-13.657-6.208c-6.503 14.306-5.14 32.842-4.25 40.175-12.147 17.563-21.508 36.308-28 56.142-4.94-4.2-8.461-10.112-9.537-17.007m86.044 15.305c-12.12 9.216-23.36 19.769-33.608 31.593-18.38 21.206-30.404 42.679-37.903 59.107-1.664-19.55-1.207-43.15 4.709-68.143a42.6 42.6 0 0 0 15.086.33c16.921-2.641 30.295-14.718 34.788-30.813a61.408 61.408 0 0 0 14.486-4.427 43 43 0 0 0 2.442 12.353"/></svg>