<svg xmlns="http://www.w3.org/2000/svg" width="512" height="512"><path fill="#d5887a" d="M197.982 163.826c-13.77 0-24.933 11.163-24.933 24.933v192.042c0 18.874-10.292 35.378-25.551 44.229a18097 18097 0 0 1 35.941 35.782c23.986-18.476 39.476-47.462 39.476-80.011V188.759c.001-13.77-11.162-24.933-24.933-24.933"/><path fill="#c86f5c" d="M222.916 230.273v-41.514c0-13.77-11.163-24.933-24.933-24.933s-24.933 11.163-24.933 24.933v41.514z"/><path fill="#ba5d4f" d="M245.139 207.79H133.831c-10.067 0-18.228-8.161-18.228-18.228V174.81c0-34.566 28.022-62.588 62.588-62.588h22.587c34.566 0 62.588 28.022 62.588 62.588v14.752c.001 10.067-8.16 18.228-18.227 18.228"/><path fill="#a34f41" d="M200.779 112.222h-6.003v95.569h50.363c10.067 0 18.228-8.161 18.228-18.228V174.81c0-34.567-28.022-62.588-62.588-62.588"/><path fill="#fee7c9" d="M168.926 486.204c-13.77 0-24.933-11.163-24.933-24.933s11.163-24.933 24.933-24.933c28.179 0 51.105-22.925 51.105-51.105V93.191c0-13.77 11.163-24.933 24.933-24.933s24.933 11.163 24.933 24.933v292.042c.001 55.676-45.295 100.971-100.971 100.971"/><path fill="#ffd496" d="M269.898 134.705V93.19c0-13.77-11.163-24.933-24.933-24.933S220.031 79.42 220.031 93.19v41.514h49.867z"/><path fill="#c86f5c" d="M305.376 112.222H182.679c-11.097 0-20.093-8.996-20.093-20.093V76.493c0-38.104 30.889-68.993 68.993-68.993h24.899c38.104 0 68.993 30.889 68.993 68.993v15.636c-.002 11.097-8.998 20.093-20.095 20.093"/><path fill="#ba5d4f" d="M325.465 76.491v15.642c0 11.091-8.996 20.087-20.087 20.087h-33.047c11.101 0 20.098-8.996 20.098-20.087V76.491c0-36.733-28.709-66.767-64.919-68.872a73 73 0 0 1 4.071-.118h24.895c38.1 0 68.989 30.889 68.989 68.99"/><path fill="#ffd496" d="M207.315 504.5c-13.77 0-24.933-11.163-24.933-24.933s11.163-24.933 24.933-24.933c28.179 0 51.105-22.925 51.105-51.105V240.87c0-13.77 11.163-24.933 24.933-24.933s24.933 11.163 24.933 24.933v162.658c0 55.676-45.295 100.972-100.971 100.972"/><path fill="#fcb44d" d="M308.286 282.384V240.87c0-13.77-11.163-24.933-24.933-24.933S258.42 227.1 258.42 240.87v41.514z"/><path fill="#c86f5c" d="M343.764 259.902H221.067c-11.097 0-20.093-8.996-20.093-20.093v-15.636c0-38.104 30.889-68.993 68.993-68.993h24.899c38.104 0 68.993 30.889 68.993 68.993v15.636c-.001 11.097-8.997 20.093-20.095 20.093"/><path fill="#ba5d4f" d="M363.853 224.171v15.642c0 11.091-8.996 20.087-20.087 20.087h-33.047c11.101 0 20.098-8.996 20.098-20.087v-15.642c0-36.733-28.709-66.767-64.919-68.872a73 73 0 0 1 4.071-.118h24.895c38.101 0 68.989 30.889 68.989 68.99"/><path fill="#fee7c9" d="M300.415 504.5c55.676 0 100.971-45.296 100.971-100.971V364.87c0-13.77-11.163-24.933-24.933-24.933S351.52 351.1 351.52 364.87v38.658c0 28.179-22.925 51.105-51.105 51.105h-105.1V504.5z"/><path fill="#ffd496" d="M401.387 406.384V364.87c0-13.77-11.163-24.933-24.933-24.933S351.52 351.1 351.52 364.87v41.514z"/><path fill="#c86f5c" d="M436.865 383.902H314.167c-11.097 0-20.093-8.996-20.093-20.093v-15.636c0-38.104 30.889-68.993 68.993-68.993h24.899c38.104 0 68.993 30.889 68.993 68.993v15.636c-.001 11.097-8.997 20.093-20.094 20.093"/><path fill="#ba5d4f" d="M456.954 348.171v15.642c0 11.091-8.996 20.087-20.087 20.087H403.82c11.101 0 20.098-8.996 20.098-20.087v-15.642c0-36.733-28.709-66.767-64.919-68.872a73 73 0 0 1 4.071-.118h24.895c38.1 0 68.989 30.889 68.989 68.99"/><path fill="#d5887a" d="M199.406 504.5c13.77 0 24.933-11.163 24.933-24.933s-11.163-24.933-24.933-24.933c-28.179 0-51.105-22.925-51.105-51.105V320.87c0-13.77-11.163-24.933-24.933-24.933S98.434 307.1 98.434 320.87v82.658c0 55.676 45.296 100.972 100.972 100.972"/><path fill="#c86f5c" d="M98.434 362.384V320.87c0-13.77 11.163-24.933 24.933-24.933S148.3 307.1 148.3 320.87v41.514z"/><path fill="#ba5d4f" d="M176.479 340.071H72.13c-9.438 0-17.089-7.651-17.089-17.089v-13.298c0-32.405 26.27-58.675 58.675-58.675h21.175c32.405 0 58.675 26.27 58.675 58.675v13.298c.002 9.439-7.649 17.089-17.087 17.089"/><path fill="#a34f41" d="M193.564 309.684v13.303c0 9.432-7.651 17.083-17.083 17.083h-28.105c9.441 0 17.092-7.651 17.092-17.083v-13.303c0-31.24-24.416-56.783-55.211-58.573a62 62 0 0 1 3.462-.1h21.172c32.403 0 58.673 26.27 58.673 58.673"/><path d="M393.609 271.907a7.5 7.5 0 0 0-1.094 14.96c31.931 2.334 56.943 29.263 56.943 61.305v15.636c0 6.944-5.649 12.594-12.593 12.594h-15.448v-44.861a7.5 7.5 0 0 0-15 0v44.861h-16.41v-11.259a7.5 7.5 0 0 0-15 0v11.259h-23.174v-23.027a7.5 7.5 0 0 0-15 0v23.027h-22.665c-6.944 0-12.593-5.649-12.593-12.594v-15.636c0-15.444 5.75-30.208 16.19-41.572 10.378-11.296 24.472-18.275 39.684-19.652a7.5 7.5 0 0 0 6.793-8.145 7.5 7.5 0 0 0-8.145-6.794c-14.81 1.341-28.754 6.96-40.307 16.06v-20.667h27.974c15.215 0 27.593-12.378 27.593-27.594v-15.636a76.53 76.53 0 0 0-9.694-37.264 7.5 7.5 0 0 0-13.093 7.319 61.5 61.5 0 0 1 7.787 29.945v15.636c0 6.944-5.649 12.594-12.593 12.594h-52.911V224.88a7.5 7.5 0 0 0-15 0v27.522h-4.986v-11.259a7.5 7.5 0 0 0-15 0v11.259h-34.8c-6.944 0-12.593-5.649-12.593-12.594v-15.636c0-33.907 27.585-61.493 61.493-61.493h24.899a61.4 61.4 0 0 1 31.062 8.43 7.502 7.502 0 0 0 7.592-12.938 76.44 76.44 0 0 0-38.654-10.492h-17.468v-27.958h27.979c15.215 0 27.593-12.378 27.593-27.593V76.493C332.969 34.314 298.655 0 256.477 0h-24.899c-42.178 0-76.493 34.314-76.493 76.493v15.636a27.42 27.42 0 0 0 4.524 15.113c-29.654 8.166-51.506 35.355-51.506 67.569v14.752c0 14.187 11.542 25.728 25.729 25.728h31.718v35.777a65.74 65.74 0 0 0-30.657-7.557h-21.175c-36.489 0-66.175 29.686-66.175 66.175v13.297c0 13.558 11.03 24.588 24.588 24.588h18.804v10.169a7.5 7.5 0 0 0 15 0v-10.169h10.87v24.85a7.5 7.5 0 0 0 15 0v-24.85h8.996v55.958a58.3 58.3 0 0 0 3.905 20.997q.14.433.337.853c8.681 21.521 29.771 36.755 54.364 36.755 9.613 0 17.433 7.821 17.433 17.434S209.019 497 199.406 497c-51.54 0-93.471-41.931-93.471-93.471v-9.499a7.5 7.5 0 0 0-15 0v9.499c0 58.877 47.152 106.948 105.677 108.436q.347.034.704.036h103.101c59.811 0 108.471-48.66 108.471-108.471v-12.127h27.978c15.215 0 27.593-12.378 27.593-27.594v-15.636c-.001-39.862-31.122-73.361-70.85-76.266M315.79 403.53v-12.128h28.23v12.127c0 21.867-16.181 40.021-37.198 43.13a108.4 108.4 0 0 0 8.968-43.129m-15-99.743a76.2 76.2 0 0 0-14.216 44.386v15.636c0 10.364 5.746 19.407 14.216 24.123v15.599a93.3 93.3 0 0 1-10.813 43.604h-43.562c11.963-10.736 19.505-26.304 19.505-43.604V267.402h8.996v25.019a7.5 7.5 0 0 0 15 0v-25.019h10.875zm-73.259 81.446V267.402h23.389V403.53c0 24.041-19.563 43.6-43.61 43.6q-.034.002-.068.003h-7.837a43.3 43.3 0 0 1-19.098-4.414c26.885-5.314 47.224-29.066 47.224-57.486m34.866-237.176a76 76 0 0 0-34.867 12.51v-40.845h34.867zm-92.312-71.564C170.085 42.585 197.67 15 231.578 15h24.899c33.907 0 61.493 27.585 61.493 61.493v15.636c0 6.944-5.649 12.593-12.593 12.593H232.48V93.463a7.5 7.5 0 0 0-15 0v11.258h-10.371V77.2a7.5 7.5 0 0 0-15 0v27.521h-9.429c-6.944 0-12.594-5.649-12.594-12.593zm-46.982 113.07V174.81c0-30.376 24.712-55.088 55.088-55.088h34.339v54.013a76.5 76.5 0 0 0-15.219 26.556h-11.815v-11.258a7.5 7.5 0 0 0-15 0v11.258h-10.371v-27.522a7.5 7.5 0 0 0-15 0v27.522h-11.294c-5.915 0-10.728-4.813-10.728-10.728m57.446 25.728h13.457a77 77 0 0 0-.532 8.882v15.636c0 12.236 8.009 22.632 19.057 26.236v119.189c0 24.043-19.561 43.604-43.604 43.604-1.591 0-3.175.128-4.74.358a44 44 0 0 1-3.091-4.859c12.272-11.059 19.455-26.91 19.455-43.534V347.23c11.628-1.946 20.519-12.074 20.519-24.245v-13.297c0-18.797-7.891-35.775-20.519-47.834v-46.563zM62.542 322.983v-13.297c0-28.218 22.957-51.175 51.175-51.175h21.175c28.218 0 51.175 22.957 51.175 51.175v13.297c0 5.287-4.302 9.588-9.589 9.588h-10.311v-11.428a7.5 7.5 0 0 0-15 0v11.428h-9.778V304.88a7.5 7.5 0 0 0-15 0v27.691H72.13c-5.287 0-9.588-4.301-9.588-9.588m103.007 24.588v33.23c0 9.918-3.451 19.464-9.529 27.107a44 44 0 0 1-.22-4.38V347.57zm228.338 55.958c0 51.54-41.931 93.471-93.471 93.471h-73.682a32.3 32.3 0 0 0 4.22-9.933h21.466a7.5 7.5 0 0 0 0-15h-21.466a32.3 32.3 0 0 0-4.22-9.934h73.682c32.314 0 58.604-26.29 58.604-58.604v-12.127h8.996v13.019a7.5 7.5 0 0 0 15 0v-13.019h10.871z"/><path d="M294.074 472.067h-11.659a7.5 7.5 0 0 0 0 15h11.659a7.5 7.5 0 0 0 0-15"/></svg>