<svg xmlns="http://www.w3.org/2000/svg" width="512" height="512"><path fill="#fcc16d" d="M192.721 480.833c7.847-8.877.527-13.201.527-47.391 0-66.928 86.148-59.957 153.533-70.643 43.584-6.912 87.775-20.909 134.005-51.513 22.435-14.852 28.582-45.079 13.73-67.514s-45.081-28.581-67.514-13.73c-32.484 21.504-61.656 33.194-89.183 35.737-8.01.741-15.691.695-23.206.139 18.446-16.09 33.36-32.47 45.594-49.862 31.372-44.596 45.317-95.725 43.883-160.907-.591-26.9-22.885-48.23-49.775-47.635-26.899.591-48.226 22.877-47.635 49.775 1.475 67.127-17.437 127.072-76.371 177.72-24.746 21.267-63.384 7.104-68.338-25.146-5.112-33.277-6.645-75.415-.027-118.944 4.044-26.6-14.241-51.442-40.841-55.486-26.596-4.049-51.441 14.24-55.486 40.841-4.749 31.234-6.426 60.632-5.071 88.101-25.348-.446-47.094 18.795-49.343 44.443-5.862 66.876 2.382 132.497 23.84 189.767 5.32 14.197 10.892 26.4 16.081 36.522a226.6 226.6 0 0 1 19.99 56.121c.929 4.354 4.311 7.765 8.675 8.652 21.353 4.34 84.026 13.652 112.932-19.047"/><g fill="#fca62f"><path d="M166.335 223.161c-16.296-2.372-30.865-14.668-33.713-33.247-4.883-31.788-6.342-72.032-.02-113.606 2.412-15.879-3.513-31.113-14.51-41.236 1.002.079 2.005.208 3.007.357 26.608 4.049 44.888 28.89 40.849 55.488-6.62 43.529-5.091 85.668.02 118.945.745 4.863 2.263 9.319 4.367 13.299M360.21 216.055c-8.525 12.118-18.35 23.739-29.773 35.123 1.459-3.553 4.158-8.495 8.108-15.155 33.575-56.659 38.001-112.812 36.562-177.996-.506-23.144-17.08-42.159-38.815-46.635a48.4 48.4 0 0 1 18.023-3.881c26.895-.595 49.186 20.732 49.771 47.638 1.439 65.185-12.505 116.316-43.876 160.906M480.791 311.285c-46.232 30.606-90.431 44.6-134.008 51.518-67.388 10.681-153.531 3.715-153.531 70.64 0 34.187 7.32 38.511-.536 47.389-28.901 32.701-91.576 23.384-112.926 19.048-4.36-.889-7.746-4.299-8.672-8.647a224 224 0 0 0-4.579-17.83c27.805 3.715 73.575 4.884 97.069-21.691 7.843-8.879.524-13.202.524-47.389 0-66.937 86.144-59.958 153.531-70.652 43.59-6.906 87.776-20.9 134.008-51.506 19.158-12.691 26.441-36.599 18.89-57.279 9.475 3.434 17.964 9.841 23.956 18.89 14.847 22.434 8.708 52.663-13.726 67.509"/></g><path fill="#fcc16d" d="M230.83 264.185c-13.41-14.243-8.836-33.272.249-50.354 11.009-20.701 21.684-30.679 14.636-109.517-1.796-20.099 13.04-37.849 33.14-39.646 20.099-1.801 37.85 13.042 39.646 33.14 5.975 66.847-3.929 109.554-15.04 135.332z"/><path d="M500.77 239.632c-8.289-12.521-20.958-21.065-35.674-24.057s-29.715-.075-42.233 8.213c-31.427 20.804-59.47 32.096-85.734 34.523a120 120 0 0 1-3.504.273 289 289 0 0 0 17.514-18.677 7.5 7.5 0 0 0-11.392-9.759c-8.859 10.341-18.668 20.172-29.987 30.051-.88.711-9.811 7.834-23.64 15.336a7.5 7.5 0 0 0 7.152 13.184 200 200 0 0 0 18.477-11.355 35 35 0 0 0 4.011 4.549c9.153 8.777 24.37 15.223 45.228 19.159 14.871 2.806 24.846 9.242 29.647 19.129 4.518 9.303 3.396 19.512 2.072 24.515-13.563 4.097-27.638 7.379-42.399 9.902-29.351-41.239-90.566-59.184-173.208-50.577-36.132 3.763-51.25-3.264-57.568-9.821-2.32-2.408-3.587-4.93-4.278-7.133-1.972-20.455-1.788-43.175.484-69.105 1.312-14.959-3.281-29.532-12.932-41.037-8.97-10.694-21.314-17.538-35.023-19.504a391 391 0 0 1 .07-25.714 86 86 0 0 0 8.348 8.691c12.337 11.149 33.242 23.363 65.615 23.363 2.736 0 5.562-.096 8.466-.28.501 16.148 1.917 32.145 4.276 47.501.076.496.18.981.27 1.472-3.59-4.416-7.007-9.606-10.074-15.714a7.5 7.5 0 0 0-13.405 6.731c24.356 48.507 68.053 49.065 69.902 49.065.097 0 .191-.011.287-.014.582.021 1.164.052 1.747.052a49 49 0 0 0 12.38-1.604c1.397 6.823 4.629 12.946 9.706 18.338a7.48 7.48 0 0 0 5.462 2.359 7.5 7.5 0 0 0 5.459-12.642c-8.927-9.482-8.466-23.12 1.41-41.691.982-1.847 1.962-3.607 2.926-5.339 8.392-15.075 15.848-28.478 14.719-73.061 5.559-1.925 16.851-3.757 29.975 5.665 12.834 9.215 21.255 13.799 26.639 16.06-.828 11.612-2.271 22.612-4.33 32.947a7.5 7.5 0 0 0 14.711 2.931c3.512-17.628 5.322-37.021 5.439-57.949 12.963 2.802 38.069 11.806 45.678 39.99a224 224 0 0 1-12.831 23.287 7.499 7.499 0 0 0 6.337 11.501 7.5 7.5 0 0 0 6.351-3.501c27.477-43.576 39.638-92.797 38.273-154.901-.329-15.012-6.487-28.999-17.338-39.382S369.132-.331 354.15.015c-15.012.33-28.997 6.486-39.379 17.335-10.383 10.849-15.918 25.091-15.588 40.104q.031 1.507.048 3.011c-6.561-2.778-13.744-3.921-21.044-3.267-24.185 2.162-42.103 23.598-39.942 47.784 6.198 69.337-1.27 82.752-10.724 99.736a327 327 0 0 0-3.064 5.592c-4.774 8.977-7.757 17.317-8.967 25.002-9.039 3.516-19.4 2.96-28.266-1.648-9.675-5.029-16.177-14.119-17.839-24.94-5.757-37.478-5.766-78.915-.025-116.678 3.084-20.283-5.132-40.637-21.441-53.121a7.5 7.5 0 1 0-9.117 11.911c11.963 9.157 17.99 24.084 15.729 38.955-1.265 8.323-2.245 16.824-2.972 25.415-6.66-.595-18.072-2.284-29.905-7.065-22.682-9.163-36.762-25.234-41.9-47.786 6.623-9.684 17.249-16.372 29.455-17.726a7.5 7.5 0 0 0-1.654-14.908c-25.237 2.798-45.531 22.3-49.351 47.425-4.37 28.746-6.195 56.34-5.438 82.152-25.828 3.229-46.698 24.26-49.031 50.865-5.959 67.985 2.44 134.742 24.288 193.053 4.864 12.98 10.392 25.534 16.43 37.313a219.3 219.3 0 0 1 19.329 54.263c1.556 7.294 7.253 12.961 14.516 14.437 9.363 1.903 26.64 4.771 45.719 4.771 3.231 0 6.517-.082 9.822-.266 29.009-1.608 50.711-10.334 64.502-25.934 6.824-7.719 5.875-14.318 4.561-23.451-.908-6.318-2.153-14.971-2.153-28.908 0-24.191 12.416-38.849 40.258-47.529a7.5 7.5 0 0 0-4.464-14.32c-18.627 5.807-32.025 14.465-40.372 26.147-5.549-16.8-17.447-30.709-42.241-36.317-21.334-4.825-25.359-14.684-30.161-30.371a205 205 0 0 1-4.782-18.838c13.525 7.191 33.498 9.472 59.666 6.746 72.514-7.549 126.699 5.986 154.547 38.188-8.977 1.147-18.193 2.102-27.207 3.03-10.892 1.122-22.154 2.282-32.854 3.776a7.5 7.5 0 1 0 2.074 14.855c10.431-1.457 21.557-2.603 32.316-3.71 13.435-1.384 27.326-2.814 40.427-4.892 51.51-8.169 95.032-24.904 136.97-52.667 12.522-8.289 21.065-20.958 24.058-35.672 2.992-14.715.075-29.715-8.214-42.235M294.069 132.434c-15.747-11.306-30.064-11.086-39.388-8.865a623 623 0 0 0-.93-13.259c10.727-1.676 34.467-3.137 58.71 10.262.327 8.171.411 16.12.242 23.827-4.192-2.251-10.237-5.937-18.634-11.965m56.005-2.094c-8.727-4.086-16.977-6.087-22.501-7.055a443 443 0 0 0-.581-12.558c13.293-2.19 49.929-5.609 62.865 20.08a233 233 0 0 1-8.239 28.239c-6.886-12.383-17.544-22.15-31.544-28.706M325.608 27.721c7.611-7.954 17.865-12.468 28.873-12.71 11.012-.234 21.443 3.815 29.398 11.428 7.956 7.613 12.471 17.867 12.713 28.874.435 19.795-.568 38.183-3.059 55.435-9.63-9.364-23.295-14.915-40.454-16.237-10.861-.839-20.847.193-27.272 1.196-1.144-9.391-5.195-18.001-11.62-24.808.093-4.516.094-9.136-.008-13.775-.242-11.007 3.816-21.449 11.429-29.403m-46.084 44.418c7.728-.695 15.256 1.667 21.207 6.642s9.609 11.97 10.3 19.695c.146 1.631.272 3.246.4 4.861-23.522-10.434-45.497-9.814-57.753-8.177 2.539-12.198 12.809-21.856 25.846-23.021M19.079 295.311c7.194 5.241 16.814 10.022 28.622 10.959q2.098.167 4.204.167c15.87 0 31.994-7.125 48.12-21.187a265 265 0 0 0 2.69 21.527c-3.917 5.435-16.905 20.026-45.101 23.017-13.48 1.429-23.785-2.022-30.624-10.261-5.11-6.156-6.592-12.965-6.722-13.602a434 434 0 0 1-1.189-10.62m97.449-173.063c13.58 5.407 26.42 7.286 34.036 7.937a421 421 0 0 0-.482 18.304c-57.851 4.015-77.178-33.891-80.616-41.954a491 491 0 0 1 2.705-23.234c8.934 17.554 23.951 30.822 44.357 38.947m-97.852 87.225c1.882-21.462 20.22-37.994 41.74-37.599.032 0 .064-.004.096-.004.935.016 1.876.06 2.822.143 10.967.961 20.904 6.136 27.98 14.571s10.443 19.12 9.481 30.087c-1.54 17.564-2.145 33.747-1.806 48.829-17.481 18.322-34.283 27.016-49.963 25.826-16.774-1.267-28.111-13.812-31.593-18.205-1.033-20.918-.636-42.213 1.243-63.648m168.425 266.393c-26.542 30.025-87.704 20.346-105.817 16.665-1.411-.287-2.523-1.412-2.834-2.867a234 234 0 0 0-16.412-49.254c24.926 10.29 50.491 3.303 67.733-4.518 37-16.78 56.069 17.599 56.862 19.071.071.132.158.249.236.375.392 3.631.824 6.645 1.183 9.147 1.247 8.656 1.119 9.039-.951 11.381m-36.481-99.813c24.914 5.636 34.597 20.517 35.104 54.51a63 63 0 0 0-4.813-3.888c-11.766-8.554-31.265-16.268-57.335-4.443-47.421 21.509-71.08-4.751-74.517-9.031a352 352 0 0 1-6.99-17.247c-6.929-18.493-12.444-37.883-16.534-57.913 6.514 4.171 15.052 7.076 26.211 7.076 2.363 0 4.849-.13 7.451-.407 23.313-2.473 38.358-11.826 47.274-19.918a216 216 0 0 0 2.955 10.65c5.629 18.394 12.616 34.147 41.194 40.611m253.507-62.405c-8.705-17.927-26.752-24.75-40.358-27.317-18.277-3.448-28.58-8.331-34.372-12.546 3.065-.081 6.095-.259 9.112-.538 16.87-1.558 34.26-6.359 52.516-14.53 4.129 2.634 11.89 8.293 18.888 17.34 12.733 16.463 16.823 36.018 12.19 58.168a309 309 0 0 1-13.39 5.187c.6-7.626-.271-16.879-4.586-25.764m90.158-34.77c-2.194 10.789-8.458 20.077-17.638 26.154-12.534 8.298-25.221 15.565-38.246 21.875 2.868-27.62-6.987-47.568-16.623-60.027-5.202-6.726-10.784-11.904-15.514-15.657 8.105-4.336 16.388-9.306 24.88-14.927 9.179-6.078 20.178-8.216 30.964-6.021 10.789 2.194 20.078 8.458 26.155 17.638 6.077 9.179 8.215 20.176 6.022 30.965"/><path d="M252.944 337.111c-8.507-2.47-17.297-4.069-25.419-4.625-4.137-.289-7.712 2.837-7.995 6.97s2.837 7.712 6.97 7.995c7.07.484 14.769 1.89 22.263 4.066a7.5 7.5 0 0 0 2.094.299 7.501 7.501 0 0 0 2.087-14.705M39.285 255.591q.245 0 .493-.016a7.5 7.5 0 0 0 6.999-7.97 136.792 136.792 0 0 1 .42-22.879 7.5 7.5 0 1 0-14.921-1.537 151.6 151.6 0 0 0-.467 25.386 7.5 7.5 0 0 0 7.476 7.016M257.782 233.313c-4.002-.988-8.058 1.451-9.063 5.457a7.5 7.5 0 0 0 5.447 9.101c.472.119 4.668 1.123 10.978 1.123 11.818 0 31.044-3.524 47.065-22.988a7.5 7.5 0 1 0-11.582-9.532c-18.347 22.289-41.746 17.097-42.845 16.839M140.965 245.845a7.501 7.501 0 0 0-12.142 8.809c.446.62 4.64 6.252 14.533 12.982 12.851 8.741 29.1 15.291 48.297 19.468a7.502 7.502 0 0 0 8.923-5.734 7.5 7.5 0 0 0-5.734-8.923c-39.816-8.664-53.562-26.191-53.877-26.602M367.18 77.18a7.5 7.5 0 0 0 7.465 7.535h.13999999999999999a7.5 7.5 0 0 0 7.499-7.465 7.5 7.5 0 0 0-7.465-7.535h-.13999999999999999a7.5 7.5 0 0 0-7.499 7.465M364.271 61.521h.13999999999999999a7.5 7.5 0 0 0 .034-15h-.13999999999999999a7.5 7.5 0 0 0-.034 15M134.862 402.192h.104a7.5 7.5 0 0 0 0-15h-.104a7.5 7.5 0 0 0 0 15M71.697 228.739h.13999999999999999a7.5 7.5 0 0 0 .035-15h-.13999999999999999a7.5 7.5 0 0 0-.035 15M276.566 207.625h.036a7.5 7.5 0 0 0 7.499-7.465 7.5 7.5 0 0 0-7.465-7.535h-.13999999999999999a7.5 7.5 0 0 0-7.499 7.465 7.5 7.5 0 0 0 7.465 7.535zM73.293 245.02a7.5 7.5 0 0 0 7.465 7.535h.13999999999999999a7.5 7.5 0 0 0 7.499-7.465 7.5 7.5 0 0 0-7.465-7.535h-.13999999999999999a7.5 7.5 0 0 0-7.499 7.465"/></svg>