<svg xmlns="http://www.w3.org/2000/svg" width="512" height="512"><path fill="#158f5e" d="M459.907 7.499h-60.95c-12.868 0-23.299 10.431-23.299 23.299v23.233c0 12.781-4.151 25.147-9.145 35.407h71.429c-15.435-22.211-18.961-46.74-18.961-46.74h40.926c9.72 0 17.6-7.88 17.6-17.6-.001-9.719-7.88-17.599-17.6-17.599"/><g fill="#0f7a4f"><path d="M477.509 25.1c0 9.722-7.882 17.595-17.604 17.595h-25.72c9.722 0 17.595-7.873 17.595-17.595 0-4.856-1.971-9.264-5.155-12.449a17.52 17.52 0 0 0-12.44-5.155h25.72c4.866 0 9.264 1.971 12.449 5.155a17.56 17.56 0 0 1 5.155 12.449M412.228 89.439h25.717c-15.435-22.213-18.959-46.744-18.959-46.744h-14.229c-6.087 0-10.495 5.819-8.824 11.672 2.624 9.189 7.559 22.501 16.295 35.072"/></g><circle cx="345.549" cy="211.308" r="52.098" fill="#ecf8d9"/><path fill="#dbf2b4" d="M397.645 211.303c0 20.196-11.486 37.702-28.266 46.349 5.689-8.347 9.02-18.445 9.02-29.323 0-28.768-23.324-52.102-52.092-52.102a51.84 51.84 0 0 0-23.826 5.764c9.372-13.749 25.171-22.779 43.072-22.779 28.768 0 52.092 23.323 52.092 52.091"/><circle cx="282.776" cy="287.98" r="52.098" fill="#ecf8d9"/><path fill="#dbf2b4" d="M334.879 287.978c0 20.196-11.486 37.702-28.277 46.349a51.87 51.87 0 0 0 9.031-29.323c0-28.778-23.324-52.102-52.102-52.102-8.582 0-16.684 2.071-23.815 5.754 9.372-13.738 25.16-22.769 43.061-22.769 28.768-.001 52.102 23.323 52.102 52.091"/><circle cx="207.817" cy="350.702" r="52.098" fill="#ecf8d9"/><path fill="#dbf2b4" d="M259.912 350.701c0 20.196-11.486 37.702-28.277 46.349a51.87 51.87 0 0 0 9.031-29.323c0-28.778-23.324-52.102-52.092-52.102-8.582 0-16.674 2.071-23.815 5.754 9.372-13.749 25.16-22.779 43.061-22.779 28.768-.001 52.092 23.333 52.092 52.101"/><circle cx="126.075" cy="402.8" r="52.098" fill="#ecf8d9"/><path fill="#dbf2b4" d="M178.178 402.803c0 20.175-11.486 37.681-28.266 46.327a51.9 51.9 0 0 0 9.02-29.312c0-28.768-23.324-52.091-52.102-52.091-8.582 0-16.684 2.071-23.815 5.754 9.372-13.749 25.16-22.779 43.061-22.779 28.767-.001 52.102 23.323 52.102 52.101"/><path fill="#a3e440" d="M387.004 89.403c-2.684 43.807-32.032 275.284-343.786 332.399-7.172 1.314-10.916 9.275-7.401 15.663 18.65 33.891 84.139 114.828 257.028 28.415C486.894 368.891 448.569 130.1 438.131 89.403z"/><path fill="#99d53b" d="M292.843 465.879c-120.163 60.065-188.447 39.271-225.178 9.639 40.328 15.627 101.333 16.15 191.639-28.981C432.689 359.881 420.563 160.023 408.565 89.4h29.568c10.44 40.702 48.761 279.49-145.29 376.479"/><path fill="#1ca56f" d="M466.928 170.514c-10.036-2.386-16.803-11.666-14.726-21.771l2.247-10.934c6.106-29.709-13.027-58.742-42.735-64.849-29.709-6.106-58.742 13.027-64.849 42.735l-2.247 10.934c-2.077 10.105-11.955 15.963-22.119 14.198-6.997-1.215-11.512 7.507-6.229 12.403 9.392 8.703 24.981 16.457 48.756 9.936a47 47 0 0 0 4.498-1.486c1.451 13.321 4.817 26.042 11.208 36.328 2.137 3.441 6.809 4.401 10.13 2.082 9.93-6.932 18.041-17.294 24.628-28.962a47 47 0 0 0 3.547 3.139c19.276 15.37 36.659 14.394 48.723 10.1 6.785-2.414 6.078-12.21-.832-13.853"/><path fill="#158f5e" d="M467.761 184.369c-5.365 1.903-11.775 3.156-18.934 2.613 1.982-3.836.227-9.279-4.773-10.473-10.039-2.387-16.804-11.666-14.723-21.764l2.248-10.936c6.104-29.712-13.027-58.744-42.739-64.849a55 55 0 0 0-13.185-1.095 54.7 54.7 0 0 1 24.94-6.035c3.668 0 7.386.365 11.124 1.134 29.703 6.104 48.834 35.136 42.73 64.849l-2.248 10.926c-2.071 10.108 4.694 19.388 14.733 21.774 6.901 1.647 7.611 11.44.827 13.856"/><path d="M342.453 267.085a7.5 7.5 0 0 0-5.704 8.942 55.5 55.5 0 0 1 1.301 11.954 55.206 55.206 0 0 1-41.839 53.623 7.5 7.5 0 0 0 3.646 14.549 70.186 70.186 0 0 0 53.192-68.172c0-5.116-.557-10.227-1.654-15.192a7.5 7.5 0 0 0-8.942-5.704M270.589 343.202a7.5 7.5 0 0 0-7.5 7.5c0 28.859-22.529 53.075-51.289 55.131a7.5 7.5 0 0 0-6.945 8.015 7.5 7.5 0 0 0 8.015 6.945c36.57-2.614 65.217-33.403 65.217-70.092a7.496 7.496 0 0 0-7.498-7.499M188.848 395.3a7.5 7.5 0 0 0-7.5 7.5c0 30.478-24.795 55.273-55.274 55.273-11.019 0-21.665-3.247-30.786-9.391a7.5 7.5 0 0 0-10.409 2.031 7.5 7.5 0 0 0 2.031 10.41c11.606 7.817 25.149 11.949 39.164 11.949 38.749 0 70.273-31.524 70.273-70.272a7.5 7.5 0 0 0-7.499-7.5"/><path d="M468.664 163.218c-6.403-1.522-10.322-7.096-9.115-12.965l2.246-10.932a63 63 0 0 0 1.266-11.524 7.5 7.5 0 0 0-7.366-7.632l-.136-.001a7.5 7.5 0 0 0-7.496 7.366 48 48 0 0 1-.96 8.769l-2.247 10.934c-2.772 13.486 5.751 26.655 19.517 30.37-13.647 4.53-27.32 1.438-40.66-9.199a39 39 0 0 1-2.985-2.643 7.496 7.496 0 0 0-11.768 1.681c-6.63 11.745-14.054 20.582-22.065 26.271-5.119-8.391-8.455-19.438-9.914-32.845a7.498 7.498 0 0 0-10.152-6.185 40 40 0 0 1-3.784 1.251c-16.442 4.508-30.214 1.966-40.989-7.584 14.1 2.03 27.136-6.716 29.909-20.21l2.248-10.934c2.55-12.406 9.779-23.077 20.354-30.046s23.229-9.402 35.638-6.854a47.4 47.4 0 0 1 27.986 17.493 7.5 7.5 0 0 0 11.88-9.156 62.4 62.4 0 0 0-10.661-10.789 7.4 7.4 0 0 0-.449-.987c-5.589-10.065-8.862-19.944-10.656-26.668h31.602c13.84 0 25.1-11.26 25.1-25.099S473.747.001 459.907.001h-60.949c-16.982 0-30.799 13.816-30.799 30.798v23.233c0 6.933-1.444 14.424-4.258 22.279-12.606 9.165-21.223 22.507-24.381 37.875l-2.248 10.935c-1.205 5.868-7.003 9.446-13.489 8.318-6.492-1.127-12.82 2.107-15.761 8.045-2.908 5.874-1.642 12.805 3.151 17.247.794.736 1.64 1.473 2.528 2.203-16.99 10.766-27.749 29.685-27.749 50.374 0 5.938.883 11.786 2.586 17.381a59 59 0 0 0-5.762-.307c-32.862 0-59.597 26.736-59.597 59.598 0 1.739.083 3.469.231 5.191a59.8 59.8 0 0 0-15.594-2.067c-31.783 0-57.831 25.009-59.508 56.381a60 60 0 0 0-14.247-3.737c-4.088-.549-7.878 2.33-8.43 6.436a7.5 7.5 0 0 0 6.436 8.431c12.908 1.732 24.169 8.915 31.213 19.606-25.272 11.066-52.524 20.276-81.691 27.599a45 45 0 0 1-.113-3.02c0-15.126 7.584-29.1 20.289-37.381a7.5 7.5 0 0 0-8.191-12.565c-16.967 11.06-27.097 29.732-27.097 49.947 0 2.183.129 4.365.365 6.529a642 642 0 0 1-24.976 5.096 18.19 18.19 0 0 0-13.12 10.065 18.26 18.26 0 0 0 .5 16.59c9.458 17.187 31.757 48.202 74.837 62.809 15.961 5.412 33.218 8.113 51.737 8.111 40.883-.002 87.877-13.171 140.378-39.412 58.425-29.202 101.591-73.662 128.298-132.145 19.437-42.564 29.894-91.639 31.11-145.942 5.512-.367 10.461-1.57 14.668-3.067 6.157-2.191 10.054-8.061 9.699-14.606-.359-6.619-4.905-12.088-11.309-13.611m-85.507-132.42c0-8.712 7.087-15.799 15.8-15.799h60.949c5.57 0 10.101 4.531 10.101 10.1s-4.531 10.1-10.101 10.1h-58.994a7.5 7.5 0 0 0 0 15h11.921a135 135 0 0 0 5.03 16.57 62 62 0 0 0-4.64-1.154c-10.587-2.175-21.308-1.577-31.337 1.601.833-4.503 1.27-8.909 1.27-13.183zm-82.206 180.51c0-18.318 11.265-34.788 28.193-41.484 8.69 3.192 19.524 4.522 32.728 1.801-9.295 26.45-21.61 51.351-36.815 74.394a59.9 59.9 0 0 0-18.203-12.533 44.44 44.44 0 0 1-5.903-22.178M163.59 356.45a45 45 0 0 1-.372-5.749c0-24.592 20.007-44.599 44.599-44.599 16.48 0 31.409 9 39.17 23.26-21.109 16.156-44.448 30.351-69.935 42.553a59.5 59.5 0 0 0-13.462-15.465m247.263-22.238c-25.247 55.286-66.079 97.329-121.361 124.96-50.418 25.2-95.131 37.847-133.582 37.846-16.893 0-32.583-2.442-47.01-7.334-38.281-12.979-58.103-40.554-66.512-55.835-.691-1.257-.353-2.372-.091-2.926.258-.543.895-1.492 2.273-1.744 101.206-18.542 182.939-57.169 242.931-114.81 2.987-2.869 3.082-7.617.212-10.604s-7.618-3.082-10.604-.212a350 350 0 0 1-18.266 16.334 59.5 59.5 0 0 0-18.879-19.388 44.7 44.7 0 0 1-1.786-12.519c0-24.592 20.007-44.599 44.598-44.599 12.876 0 25.117 5.636 33.543 15.236a337 337 0 0 1-14.934 19.053 7.5 7.5 0 0 0 .895 10.568 7.47 7.47 0 0 0 4.833 1.768 7.48 7.48 0 0 0 5.735-2.662c23.84-28.247 42.916-59.874 56.912-94.226 1.378 3.143 2.903 6.108 4.605 8.848 2.1 3.38 5.555 5.781 9.481 6.588.975.2 1.962.299 2.946.299a14.64 14.64 0 0 0 8.366-2.615c1.677-1.171 3.321-2.468 4.943-3.84.477 2.93.724 5.905.724 8.908 0 22.393-13.388 42.435-34.106 51.06a7.5 7.5 0 0 0 2.885 14.425c.961 0 1.937-.186 2.88-.578 26.327-10.96 43.34-36.438 43.34-64.907a70 70 0 0 0-3.482-21.812 112 112 0 0 0 5.045-7.064c8.123 5.893 15.947 9.241 23.219 10.885-1.085 52.588-11.069 99.982-29.753 140.897"/></svg>