<svg xmlns="http://www.w3.org/2000/svg" width="512" height="512"><path fill="#d68a5a" d="m470.623 369.588-73.708 73.708c-45.169 45.169-118.402 45.169-163.572 0-45.169-45.169-45.169-118.402 0-163.572l73.708-73.708c45.169-45.169 118.402-45.169 163.572 0 45.169 45.169 45.169 118.403 0 163.572"/><g fill="#c47a4a"><path d="M306.871 452.995c-8.33 7.01-17.451 13.261-27.141 18.651-16.971-5.43-32.921-14.881-46.382-28.351-22.581-22.591-33.881-52.192-33.881-81.784 0-29.601 11.301-59.203 33.881-81.784l73.703-73.713c3.31-3.31 6.76-6.37 10.35-9.19 6.05 40.442 32.191 103.174 37.902 137.386 7.791 46.742-13.44 89.364-48.432 118.785"/><path d="M504.5 287.798c0 29.601-11.3 59.203-33.881 81.794l-73.703 73.703c-39.052 39.052-99.084 44.342-143.816 15.861 37.682 8.84 78.923-1.43 108.295-30.801l73.713-73.713c22.591-22.581 33.881-52.182 33.881-81.784 0-29.601-11.29-59.203-33.881-81.784a116 116 0 0 0-19.801-15.881c20.271 4.74 39.512 15.021 55.312 30.821 22.58 22.582 33.881 52.183 33.881 81.784"/></g><path fill="#f5a871" d="M289.224 165.28v-11.297c0-66.54-53.942-120.482-120.482-120.482S48.26 87.443 48.26 153.983v11.297c0 38.066-32.707 113.471-39.172 152.233-14.506 86.973 71.479 159.654 159.654 159.654s174.16-72.681 159.654-159.654c-6.465-38.762-39.172-114.167-39.172-152.233"/><path fill="#e89a5e" d="M279.965 436.297c-30.124 25.327-70.437 40.875-111.22 40.875-6.199 0-12.387-.358-18.535-1.064 81.238-9.227 154.601-77.74 141.119-158.59-6.475-38.768-39.177-114.176-39.177-152.238v-11.293c0-60.249-44.199-110.156-101.942-119.065a120.4 120.4 0 0 1 18.535-1.422c66.539 0 120.477 53.937 120.477 120.487v11.293c0 38.062 32.712 113.47 39.177 152.238 7.794 46.737-13.441 89.361-48.434 118.779"/><path d="m410.244 419.36-15.864 15.864-37.77-37.77a7.5 7.5 0 0 0-10.607 10.607l37.354 37.354c-33.754 27.474-80.912 32.013-119.192 11.51 15.273-9.476 29.036-21.119 40.411-34.549q1.288-1.522 2.526-3.064l20.355 20.355a7.48 7.48 0 0 0 5.303 2.197 7.5 7.5 0 0 0 5.303-12.804l-22.052-22.052c18.01-27.761 25.011-59.376 19.782-90.728-1.327-7.955-3.742-17.751-7.601-30.827a7.501 7.501 0 0 0-14.388 4.246c3.683 12.478 5.968 21.708 7.192 29.049a107.8 107.8 0 0 1 1.109 26.562h-81.997a7.5 7.5 0 0 0 0 15h79.709c-4.16 18.555-13.165 36.405-26.688 52.37-29.774 35.151-77.436 56.987-124.388 56.987S74.127 447.831 44.353 412.68c-23.455-27.691-33.352-61.051-27.868-93.933 2.57-15.41 9.552-37.186 16.944-60.241 9.869-30.782 20.035-62.501 21.99-85.726h83.67a7.5 7.5 0 0 0 0-15H55.76v-3.797a112.9 112.9 0 0 1 27.701-74.107c17.691-20.337 42.034-33.704 68.545-37.638a7.5 7.5 0 0 0-2.202-14.838c-30.045 4.459-57.626 19.599-77.661 42.632a127.9 127.9 0 0 0-31.384 83.952v11.297c0 21.232-11.483 57.047-21.614 88.647-7.563 23.588-14.706 45.868-17.456 62.353-6.221 37.305 4.865 74.984 31.218 106.096 32.546 38.423 84.594 62.292 135.835 62.292 27.558 0 55.345-6.913 80.211-19.273 20.257 12.937 43.21 19.288 66.062 19.288 31.796 0 63.386-12.266 87.203-36.084l18.632-18.632a7.5 7.5 0 0 0 0-10.607 7.5 7.5 0 0 0-10.606-.001"/><path d="M475.926 200.713c-23.262-23.262-54.191-36.073-87.089-36.073-32.646 0-63.349 12.621-86.55 35.546-3.308-13.233-5.563-25.497-5.563-34.906v-11.297c0-30.757-11.072-60.487-31.176-83.715-19.896-22.988-47.317-38.179-77.213-42.774a7.501 7.501 0 0 0-2.279 14.827c26.379 4.055 50.582 17.467 68.15 37.764 17.745 20.502 27.517 46.746 27.517 73.898v11.297c0 23.533 11.82 60.423 21.317 90.065a7.505 7.505 0 0 0 9.432 4.855 7.5 7.5 0 0 0 4.854-9.432c-3.428-10.698-7.168-22.374-10.51-33.908l5.539-5.54c42.173-42.173 110.792-42.173 152.965 0 20.429 20.43 31.68 47.591 31.68 76.482 0 15.387-3.192 30.283-9.262 43.933l-49.534-49.534a7.5 7.5 0 0 0-10.607 10.607l52.742 52.742a109 109 0 0 1-15.02 18.734l-29.413 29.414a7.5 7.5 0 0 0 10.606 10.607l29.413-29.414C499.189 351.629 512 320.7 512 287.802s-12.811-63.827-36.074-87.089M76.358 352.976a7.5 7.5 0 0 0-15 0c0 16.741 13.62 30.361 30.361 30.361s30.361-13.62 30.361-30.361a7.5 7.5 0 0 0-15 0c0 8.47-6.89 15.36-15.36 15.36s-15.362-6.891-15.362-15.36M175.465 129.35c5.292 3.932 11.57 5.997 18.044 5.997 1.49 0 2.991-.11 4.492-.331 8.023-1.183 15.105-5.419 19.942-11.928a7.5 7.5 0 1 0-12.041-8.947 15.26 15.26 0 0 1-10.089 6.035 15.26 15.26 0 0 1-11.401-2.867c-6.798-5.051-8.219-14.692-3.168-21.49a7.501 7.501 0 0 0-12.041-8.947c-9.984 13.438-7.176 32.493 6.262 42.478"/><path d="M91.736 348.859h.036a7.5 7.5 0 0 0 .033-15.001h-.141a7.5 7.5 0 0 0-.033 15.001zM217.296 392.099h-.035a7.501 7.501 0 0 0-.034 15.001h.142a7.5 7.5 0 0 0 .033-15.001zM154.24 376.391a7.5 7.5 0 0 0 0 15h.106a7.5 7.5 0 0 0 0-15zM180.793 358.335h-.105a7.5 7.5 0 0 0 0 15h.105a7.5 7.5 0 0 0 0-15M199.538 103.36h.036a7.5 7.5 0 0 0 .033-15.001h-.14100000000000001a7.501 7.501 0 0 0-.034 15.001zM370.426 321.11c-12.811 10.777-14.465 29.968-3.687 42.778 5.221 6.205 12.546 10.006 20.625 10.703q1.334.115 2.658.115c7.133 0 13.972-2.485 19.494-7.132a7.5 7.5 0 1 0-9.658-11.478 15.24 15.24 0 0 1-11.207 3.549 15.26 15.26 0 0 1-10.435-5.414 15.26 15.26 0 0 1-3.549-11.208 15.26 15.26 0 0 1 5.414-10.435 7.5 7.5 0 0 0-9.655-11.478"/><path d="M394.012 331.072a7.5 7.5 0 0 0-.936 10.566l.068.081a7.48 7.48 0 0 0 5.755 2.685 7.501 7.501 0 0 0 5.747-12.316l-.068-.081a7.5 7.5 0 0 0-10.566-.935M207.073 207.46a7.5 7.5 0 0 0-7.5-7.5h-84.995a7.5 7.5 0 0 0 0 15h84.995a7.5 7.5 0 0 0 7.5-7.5M252.26 280.647a7.5 7.5 0 0 0-7.5-7.5h-22.906a7.5 7.5 0 0 0 0 15h22.906a7.5 7.5 0 0 0 7.5-7.5M194.016 280.647a7.5 7.5 0 0 0-7.5-7.5H83.844a7.5 7.5 0 0 0 0 15h102.671a7.5 7.5 0 0 0 7.501-7.5M407.786 253.206 394.3 239.72a7.5 7.5 0 0 0-10.607 10.607l13.486 13.486a7.47 7.47 0 0 0 5.303 2.197c1.92 0 3.839-.732 5.303-2.197a7.5 7.5 0 0 0 .001-10.607M109.391 120.342a7.5 7.5 0 0 0 0 15h20.034a7.5 7.5 0 0 0 0-15z"/></svg>