<svg xmlns="http://www.w3.org/2000/svg" width="512" height="512"><path fill="#fb4a59" d="M255.259 168.205c-12.103 0-23.673 2.278-34.31 6.423-12.859-5.972-27.189-9.313-42.302-9.313s-29.442 3.34-42.302 9.313c-10.637-4.145-22.207-6.423-34.31-6.423-52.211 0-94.536 42.325-94.536 94.536 0 85.46 45.909 189.35 171.148 189.35 134.124 0 171.148-103.89 171.148-189.35.001-52.211-42.325-94.536-94.536-94.536"/><g fill="#f82f40"><path d="M349.798 262.743c0 68.668-23.905 149.237-102.896 178.248-47.96-31.524-67.602-90.24-68.245-141.98-.593-47.337 37.174-86.802 84.51-86.32a83.5 83.5 0 0 1 14.807 1.458c9.912 1.88 20.105 1.307 29.876-1.206a88.9 88.9 0 0 1 26.015-2.735c10.063 15.019 15.933 33.093 15.933 52.535"/><path d="M319.018 192.949c-.412 1.488-.905 2.372-1.458 2.513-18.396 4.614-45.286 6.041-80.097-6.072.824.553 27.081 18.426 27.805 61.4.09 5.006-6.775 6.454-8.675 1.819-6.232-15.239-18.778-33.836-43.979-44.502-31.243-13.219-41.436-25.644-41.436-25.644s-17.009 19.984-24.427 79.213c-.573 4.584-6.866 5.448-8.635 1.176-7.499-18.124-16.617-49.96-3.026-76.519 0 0-33.052 32.972-98.935 18.044-2.342-.533-4.192-1.769-5.629-3.468 17.33-20.034 42.944-32.71 71.513-32.71a94.4 94.4 0 0 1 34.309 6.423c12.857-5.971 27.192-9.309 42.3-9.309 15.109 0 29.443 3.337 42.3 9.309 10.635-4.142 22.206-6.423 34.309-6.423 24.567.001 46.954 9.38 63.761 24.75"/><path d="M349.794 262.739c0 85.46-37.02 189.354-171.146 189.354-9.906 0-19.317-.649-28.249-1.893 128.546-3.479 164.304-105.273 164.304-189.264 0-44.519-30.773-81.855-72.21-91.878a95 95 0 0 1 12.764-.856c52.217 0 94.537 42.329 94.537 94.537"/></g><path fill="#a3e440" d="M155.998 128.362c10.176 1.781 20.591 1.58 30.714-.479 12.401-2.522 34.572-.478 69.898 23.494 18.514 12.563 41.53 14.913 59.658 14.196 5.405-.214 6.535 7.553 1.288 8.87-18.389 4.617-45.288 6.045-80.111-6.078 0 0 27.09 17.749 27.825 61.408.084 5.007-6.78 6.452-8.676 1.818-6.236-15.24-18.784-33.836-43.977-44.496-31.246-13.222-41.443-25.643-41.443-25.643s-17.009 19.983-24.426 79.207c-.575 4.591-6.862 5.452-8.631 1.177-7.496-18.119-16.617-49.961-3.031-76.52 0 0-33.291 33.992-98.931 18.051-4.895-1.189-4.406-8.302.601-8.854 19.346-2.131 46.228-7.728 65.662-22.264 26.223-19.613 37.016-26.787 53.58-23.887"/><path fill="#a3e440" d="M161.444 138.125h21.52c3.683-35.902-2.858-66.269-5.889-78.267a7.923 7.923 0 0 0-10.141-5.594l-18.087 5.899c-4.812 1.57-6.916 7.175-4.37 11.55 14.963 25.713 16.991 53.175 16.967 66.412"/><path fill="#fb6672" d="M420.466 206.855a84 84 0 0 0-15.502 1.504c-9.84 1.891-19.972 1.252-29.675-1.25a89 89 0 0 0-22.266-2.812c-7.691 0-15.154.978-22.272 2.814-9.77 2.52-19.963 3.088-29.877 1.209a84 84 0 0 0-14.804-1.46c-47.333-.475-85.106 38.988-84.514 86.32.94 75.12 41.909 164.943 151.466 164.943 117.48 0 150.793-90.052 151.472-165.231.426-46.929-37.097-86.238-84.028-86.037"/><path fill="#fb4a59" d="M504.505 290.527c0 75.641-32.766 167.597-151.481 167.597-8.768 0-17.097-.574-25.004-1.675 113.776-3.08 145.426-93.177 145.426-167.517 0-39.404-27.238-72.45-63.913-81.321a84 84 0 0 1 11.297-.758c46.217-.001 83.675 37.465 83.675 83.674"/><path fill="#f82f40" d="M337.371 382.805c6.227 23.045-19.572 41.665-39.15 28.006-10.182-7.104-18.861-16.143-26.126-27.165-16.163-24.52-24.736-58.417-23.835-93.751.644-25.254 22.362-45.035 47.521-42.752 3.331.302 6.611.775 9.775 1.356 16.946 3.116 28.585 18.905 26.728 36.034-2.704 24.955-4.301 63.529 5.087 98.272"/><path fill="#e22334" d="M301.004 412.513c9.942-5.207 16.546-16.757 13.048-29.705-9.389-34.741-7.791-73.322-5.086-98.272 1.86-17.129-9.781-32.921-26.729-36.038-.362-.07-.734-.131-1.096-.191a43.2 43.2 0 0 1 14.636-1.166c3.337.302 6.614.774 9.781 1.357 16.948 3.116 28.589 18.908 26.729 36.038-2.704 24.95-4.302 63.531 5.086 98.272 5.932 21.964-17.229 39.918-36.369 29.705"/><path fill="#f82f40" d="M366.825 382.805c-6.227 23.045 19.572 41.665 39.15 28.006 10.182-7.104 18.861-16.143 26.126-27.165 16.163-24.52 24.736-58.417 23.835-93.751-.644-25.254-22.362-45.035-47.521-42.752a109 109 0 0 0-9.775 1.356c-16.946 3.116-28.585 18.905-26.728 36.034 2.705 24.955 4.301 63.529-5.087 98.272"/><path fill="#e22334" d="M432.097 383.642c-7.258 11.027-15.943 20.064-26.126 27.171-8.575 5.981-18.346 5.77-26.096 1.699a25 25 0 0 0 2.784-1.699c10.183-7.107 18.858-16.144 26.126-27.171 16.164-24.518 24.739-58.414 23.834-93.748-.513-20.155-14.475-36.842-32.881-41.587 2.815-.503 5.73-.895 8.675-1.166 25.161-2.282 46.874 17.501 47.518 42.753.905 35.334-7.67 69.231-23.834 93.748"/><path d="M484.776 226.116c-17.186-17.268-39.881-26.762-63.949-26.762l-.394.001a92 92 0 0 0-16.884 1.638c-8.342 1.603-17.222 1.216-26.387-1.146-13.81-3.562-28.547-3.986-42.585-1.278a103 103 0 0 0-16.828-16.468c.544-.128 1.092-.248 1.633-.384 6.078-1.526 9.842-7.138 8.949-13.344-.894-6.213-6.087-10.545-12.36-10.295-15.573.617-37.782-1.123-55.15-12.908-32.335-21.941-54.857-26.443-69.292-25.469.377-26.88-4.08-49.398-7.183-61.681a15.48 15.48 0 0 0-7.504-9.73 15.48 15.48 0 0 0-12.234-1.157l-18.088 5.899a15.34 15.34 0 0 0-9.616 9.156 15.41 15.41 0 0 0 1.09 13.297c9.068 15.58 13.096 31.849 14.798 44.927-14.059-1.15-25.135 4.477-40.685 15.443a7.5 7.5 0 0 0 8.645 12.259c15.717-11.084 23.354-13.99 33.171-12.483.015.867.022 1.696.02 2.478a7.5 7.5 0 0 0 7.486 7.514h.014a7.5 7.5 0 0 0 7.5-7.486c.026-14.63-2.275-43.202-17.985-70.196-.035-.061-.118-.203-.039-.409.068-.179.188-.218.252-.239l18.087-5.899c.054-.017.178-.058.338.031.161.088.193.215.207.27 3.576 14.152 9.071 42.8 5.699 75.664a7.5 7.5 0 0 0 14.922 1.532c.14-1.363.26-2.716.372-4.064 20.614-2.512 47.219 12.996 61.602 22.756 8.363 5.675 18.221 9.848 29.261 12.444-13.045-.812-26.753-3.635-40.726-8.408-9.422-6.924-18.708-12.101-24.93-15.259a7.5 7.5 0 0 0-10.082 3.294 7.5 7.5 0 0 0 3.294 10.082c5.915 3.001 14.834 7.977 23.739 14.634.036.027.075.044.111.069.077.057.15.117.231.171.6.404 13.686 9.436 20.491 30.408-1.125.42-2.246.85-3.353 1.315-9.112-11.406-20.83-20.197-34.893-26.148-28.659-12.127-38.517-23.436-38.568-23.494a7.5 7.5 0 0 0-5.73-2.741c-2.206-.063-4.338.946-5.778 2.638-.513.603-5.169 6.265-10.641 19.365-5.99 14.339-10.63 31.761-13.836 51.914-5.27-16.544-9.104-39.605.679-58.937.661-1.075 3.556-5.7 7.853-11.332a7.5 7.5 0 0 0-11.926-9.098c-4.245 5.564-7.219 10.187-8.389 12.064-3.984 3.677-28.405 24.101-73.883 18.682 10.763-2.137 22.774-5.466 33.993-10.65a7.5 7.5 0 0 0-6.292-13.617c-16.185 7.479-34.539 10.696-47.086 12.078-5.906.651-10.296 5.249-10.678 11.181-.303 4.717 2.029 8.913 5.904 11.13C11.462 208.467 0 235.042 0 262.741c0 46.539 12.704 90.958 35.771 125.075 28.166 41.657 70.768 66.171 123.202 70.893q.343.031.682.031a7.5 7.5 0 0 0 .664-14.971c-48.477-4.365-86.2-26.017-112.121-64.355C26.79 347.752 15 306.317 15 262.741c0-27.417 12.462-52.554 34.226-69.178 33.084 4.9 57.233-2.404 72.349-10.057-3.557 23.6 3.858 47.286 9.613 61.197 1.896 4.582 6.196 7.416 11.016 7.416q.826 0 1.669-.113c5.484-.738 9.63-4.924 10.318-10.415 4.715-37.651 13.421-58.792 18.571-68.543 6.662 5.314 18.321 13.078 36.932 20.953 10.796 4.568 19.909 11.114 27.176 19.486a92 92 0 0 0-15.57 12.527c-17.627 17.671-27.557 42.186-27.243 67.259.547 43.752 13.516 84.618 36.516 115.068 6.376 8.441 13.47 15.976 21.217 22.6-16.679 7.176-35.59 11.567-56.391 13.055a7.5 7.5 0 0 0 1.07 14.961c25.693-1.837 48.854-7.824 68.914-17.783 24.398 16.097 54.023 24.447 87.638 24.447 55.72 0 97.982-19.355 125.613-57.526 27.05-37.37 33.072-83.239 33.361-115.137.229-25.238-9.438-48.977-27.219-66.842m-225.013-43.825c12.106 2.438 23.828 3.412 35.114 2.933 8.294 4.248 15.906 9.866 22.461 16.528-5.124.38-10.164.128-15.067-.801a92 92 0 0 0-17.05-1.596 90.5 90.5 0 0 0-16.99 1.616c-2.329-7.326-5.32-13.538-8.468-18.68m206.721 217.011c-24.65 34.055-62.824 51.321-113.461 51.321-47.586 0-84.757-17.267-110.48-51.322-20.781-27.512-32.986-66.226-33.487-106.215-.268-21.372 7.853-41.43 22.864-56.479 14.333-14.369 33.235-22.253 53.305-22.253q.384 0 .77.004c4.529.045 9.066.493 13.484 1.33 10.728 2.034 21.881 1.592 33.146-1.315 13.254-3.418 27.544-3.418 40.792-.001 11.334 2.923 22.424 3.378 32.963 1.353a77 77 0 0 1 14.118-1.369l.327-.001c20.046 0 38.972 7.928 53.319 22.343 14.928 14.999 23.043 34.931 22.852 56.126-.269 29.716-5.78 72.311-30.512 106.478"/><path d="M339.742 285.343c2.275-20.992-12.145-40.415-32.828-44.219a116 116 0 0 0-10.454-1.45c-14.111-1.28-27.741 3.233-38.382 12.706s-16.95 23.076-17.314 37.324c-.937 36.733 8.201 72.478 25.071 98.07 7.763 11.776 17.216 21.597 28.097 29.188 5.69 3.971 12.209 5.955 18.733 5.955 6.581 0 13.167-2.02 18.909-6.057 11.624-8.172 16.742-22.308 13.039-36.011-8.981-33.233-7.606-70.279-4.871-95.506m-16.797 119.246c-4.945 3.476-12.909 5.32-20.433.071-9.316-6.5-17.443-14.958-24.155-25.141-15.222-23.094-23.459-55.69-22.599-89.432.258-10.118 4.738-19.778 12.292-26.503 6.676-5.943 15.008-9.121 23.755-9.121q1.64 0 3.298.15c2.914.265 5.975.69 9.097 1.264 13.001 2.39 22.062 14.623 20.629 27.849-2.874 26.506-4.286 65.55 5.302 101.035 2.474 9.155-2.09 16.245-7.186 19.828"/><path d="M284.729 272.383a7.5 7.5 0 0 0-7.5 7.5v2.847c0 4.142 3.357 7.5 7.5 7.5s7.5-3.358 7.5-7.5v-2.847a7.5 7.5 0 0 0-7.5-7.5M284.458 313.103v-2.847c0-4.142-3.357-7.5-7.5-7.5s-7.5 3.358-7.5 7.5v2.847c0 4.142 3.357 7.5 7.5 7.5s7.5-3.358 7.5-7.5M284.729 335.396a7.5 7.5 0 0 0-7.5 7.5v2.847c0 4.142 3.357 7.5 7.5 7.5s7.5-3.358 7.5-7.5v-2.847a7.5 7.5 0 0 0-7.5-7.5M300.544 364.015a7.5 7.5 0 0 0-7.5 7.5v2.847c0 4.142 3.357 7.5 7.5 7.5s7.5-3.358 7.5-7.5v-2.847a7.5 7.5 0 0 0-7.5-7.5M455.806 306.092a7.5 7.5 0 0 0-8.183 6.75c-2.471 25.748-10.004 48.805-21.784 66.677-6.713 10.184-14.84 18.642-24.156 25.142-7.523 5.248-15.487 3.406-20.432-.071-5.096-3.583-9.659-10.672-7.186-19.827 9.588-35.484 8.176-74.529 5.302-101.035-1.434-13.226 7.627-25.459 20.629-27.849 3.123-.575 6.183-1 9.096-1.264 16.784-1.527 32.227 8.749 37.533 24.983a7.5 7.5 0 0 0 9.459 4.799 7.5 7.5 0 0 0 4.799-9.459c-7.492-22.921-29.344-37.432-53.145-35.262-3.366.305-6.884.792-10.454 1.449-20.685 3.803-35.105 23.226-32.828 44.219 2.734 25.226 4.109 62.273-4.87 95.505-3.703 13.704 1.415 27.839 13.039 36.012 5.742 4.037 12.326 6.057 18.908 6.057 6.523 0 13.042-1.984 18.733-5.955 10.881-7.591 20.334-17.411 28.097-29.188 13.123-19.909 21.488-45.325 24.193-73.501a7.5 7.5 0 0 0-6.75-8.182"/><path d="M419.467 290.23a7.5 7.5 0 0 0 7.5-7.5v-2.847c0-4.142-3.357-7.5-7.5-7.5s-7.5 3.358-7.5 7.5v2.847a7.5 7.5 0 0 0 7.5 7.5M434.739 313.103v-2.847c0-4.142-3.357-7.5-7.5-7.5s-7.5 3.358-7.5 7.5v2.847c0 4.142 3.357 7.5 7.5 7.5s7.5-3.358 7.5-7.5M411.967 345.743c0 4.142 3.357 7.5 7.5 7.5s7.5-3.358 7.5-7.5v-2.847c0-4.142-3.357-7.5-7.5-7.5s-7.5 3.358-7.5 7.5zM403.653 364.015a7.5 7.5 0 0 0-7.5 7.5v2.847c0 4.142 3.357 7.5 7.5 7.5s7.5-3.358 7.5-7.5v-2.847a7.5 7.5 0 0 0-7.5-7.5"/></svg>