<svg xmlns="http://www.w3.org/2000/svg" width="512" height="512"><path fill="#8dc637" d="M343.953 21.853c14.409-17.172 40.125-19.258 57.121-4.506 16.638 14.441 18.165 39.783 4.004 56.659l-93.132 110.99-18.227-15.294 34.185-40.74c4.821-5.745 4.445-14.147-.732-19.574l-.235-.249c-10.507-11.238-11.845-28.559-3.176-41.269 3.2-4.691 7.329-8.259 11.935-10.697-2.906-11.986-.279-25.146 8.257-35.32"/><path fill="#82b732" d="m405.081 74.007-93.132 110.99-14.774-12.397 86.886-103.547c14.16-16.875 12.631-42.213-4.003-56.66a40.8 40.8 0 0 0-6.946-4.862c9.859-.402 19.892 2.814 27.966 9.816 16.634 14.447 18.163 39.785 4.003 56.66"/><path fill="#99d53b" d="M448.353 143.125c13.912-16.58 11.584-41.382-5.293-55.07-16.521-13.399-40.874-10.603-54.547 5.692L286.366 215.482l17.599 14.767 45.232-53.906c4.655-5.547 12.707-6.598 18.735-2.586l.276.182c12.447 8.107 29.142 6.475 39.774-3.9 3.924-3.829 6.625-8.354 8.171-13.142 11.884.755 23.958-3.949 32.2-13.772"/><path fill="#8dc637" d="M448.355 143.127c-8.24 9.82-20.32 14.53-32.2 13.77-1.55 4.79-4.25 9.31-8.17 13.14-10.64 10.38-27.33 12.01-39.78 3.9l-.27-.18c-6.03-4.01-14.08-2.96-18.74 2.59l-45.23 53.9-17.6-14.76 52.37-62.41c3.81-.99 8.01-.37 11.52 1.96l.27.18c12.45 8.11 29.15 6.47 39.78-3.9a32.3 32.3 0 0 0 5.753-7.548c1.784-3.241 5.13-5.34 8.811-5.713 9.699-.982 19.045-5.594 25.805-13.659 9.84-11.72 11.55-27.56 5.74-40.67 2.32 1.18 4.55 2.62 6.65 4.33 16.871 13.69 19.201 38.49 5.291 55.07"/><path fill="#bcea73" d="m286.366 215.482 17.599 14.767 77.835-92.76c4.078-4.86 3.444-12.105-1.416-16.183s-12.105-3.444-16.183 1.416z"/><path fill="#a3e440" d="M377.171 107.237c7.629-9.719 5.876-23.974-4.285-31.49-8.891-6.576-21.538-5.466-29.164 2.543q-.076.08-.15.16c-2.52 2.699-6.484 3.591-9.766 1.899-14.266-7.358-32.216-4.161-42.967 8.652-10.401 12.395-10.768 29.863-1.98 42.553-3.349 8.601-1.062 18.736 6.401 24.999l.056.046c2.886 2.414 3.269 6.747.85 9.629l-28.302 33.73 18.502 15.525 90.819-108.234z"/><path fill="#dbf2b4" d="m267.864 199.957 18.502 15.525 55.806-66.506c4.287-5.109 3.621-12.726-1.488-17.014s-12.726-3.621-17.014 1.488z"/><path fill="#fca62f" d="M55.096 490.056a102.5 102.5 0 0 1 6.482-47.709c27.031-69.287 110.186-267.915 179.013-278.605 33.759-5.243 103.984 53.683 104.683 87.84 1.434 70.128-197.851 206.189-265.426 250.284-10.072 6.571-23.526.154-24.752-11.81"/><path fill="#fb9927" d="M79.846 501.868c-10.07 6.571-23.525.148-24.747-11.814a101 101 0 0 1-.509-12.531 16.5 16.5 0 0 0 3.166-1.614c67.573-44.091 266.855-180.153 265.417-250.283-.153-7.54-3.693-16.282-9.482-25.287 17.854 16.893 31.279 36.401 31.585 51.245 1.431 70.124-197.851 206.186-265.43 250.284"/><path d="M464.716 113.771c-1.194-12.452-7.207-23.653-16.931-31.54-9.369-7.599-20.973-10.838-32.316-10 11.552-19.637 8-45.375-9.479-60.547C396.253 3.232 383.822-.86 370.972.152c-12.847 1.016-24.482 7.011-32.764 16.881-8.507 10.138-12.371 23.44-10.787 36.467-3.83 2.755-7.132 6.152-9.854 10.145a40 40 0 0 0-3.062 5.369c-11.116.831-21.766 6.056-29.411 15.167-11.492 13.697-13.116 33.116-4.415 48.439-2.574 10.62.913 21.921 9.315 29.296l-5.812 6.927a136 136 0 0 0-9.905-5.182c-13.538-6.351-25.257-8.818-34.837-7.331-26.615 4.133-55.627 31.553-88.692 83.825a7.5 7.5 0 1 0 12.676 8.019c10.447-16.515 23.347-34.846 37.043-49.522l52.383 43.954a7.47 7.47 0 0 0 4.817 1.755 7.5 7.5 0 0 0 4.825-13.245l-51.266-43.017c10.191-9.041 20.575-15.402 30.517-16.946 13.129-2.038 36.748 9.003 58.766 27.478 22.02 18.476 36.996 39.817 37.268 53.104.464 22.684-24.421 57.297-71.7 100.725l-55.539-46.603a7.5 7.5 0 0 0-10.566.924 7.5 7.5 0 0 0 .924 10.566l53.924 45.247c-24.724 21.831-54.72 45.701-89.649 71.251a7.5 7.5 0 0 0 4.434 13.554 7.47 7.47 0 0 0 4.422-1.447c119.461-87.383 179.6-152.83 178.748-194.524-.198-9.689-4.662-20.804-13.27-33.036a137 137 0 0 0-7.595-9.777l23.034-27.45c2.162-2.576 5.96-3.076 8.837-1.161l.336.221c15.347 9.995 36 7.972 49.103-4.816 3.326-3.245 5.997-6.932 7.981-11.007 12.666-.722 24.671-6.65 32.897-16.455 8.041-9.585 11.812-21.721 10.618-34.176M339.205 63.802a7.5 7.5 0 0 0 3.78-8.395c-2.479-10.222-.031-20.694 6.713-28.733 5.677-6.765 13.651-10.874 22.456-11.57 8.804-.693 17.326 2.113 24.003 7.907 13.374 11.608 14.799 32.322 3.176 46.174l-11.796 14.058c-1.978-5.356-5.467-10.033-10.191-13.527-11.981-8.862-28.771-7.401-39.05 3.396l-.205.218c-.292.313-.681.437-.848.352a43 43 0 0 0-6.478-2.699 25.54 25.54 0 0 1 8.44-7.181m103.402 74.502c-6.459 7.697-15.924 11.738-25.98 11.109a7.5 7.5 0 0 0-7.612 5.181c-1.237 3.834-3.348 7.226-6.271 10.078-8.122 7.927-20.925 9.181-30.436 2.987l-.22-.145a22 22 0 0 0-3.951-2.073l25.702-30.63a7.5 7.5 0 0 0-.924-10.566 7.5 7.5 0 0 0-10.566.924l-60.74 72.386a188 188 0 0 0-5.808-5.484l34.213-40.773a7.5 7.5 0 0 0-.924-10.566 7.5 7.5 0 0 0-10.566.924L304.31 182.43a190 190 0 0 0-7.373-5.452l4.976-5.93c.022-.026.039-.054.061-.08q.025-.025.048-.052l28.125-33.518c4.497-5.359 6.638-12.148 6.028-19.118s-3.897-13.284-9.256-17.78a7.5 7.5 0 0 0-10.566.924 7.5 7.5 0 0 0 .924 10.566c2.29 1.922 3.694 4.62 3.955 7.598s-.654 5.878-2.575 8.168l-19.01 22.655a14.63 14.63 0 0 1-3.798-16.137 7.5 7.5 0 0 0-.823-6.991c-7.059-10.195-6.417-23.955 1.56-33.462 8.224-9.8 22.433-12.663 33.784-6.808 6.148 3.17 13.832 1.752 18.681-3.44l.105-.113c4.994-5.245 13.459-5.985 19.271-1.685 3.228 2.387 5.299 5.877 5.832 9.827.534 3.96-.526 7.868-2.986 11.003a7 7 0 0 0-.169.223l-9.308 11.092a7.5 7.5 0 0 0 .924 10.566 7.5 7.5 0 0 0 10.566-.924l20.974-24.995c11.133-13.268 30.904-15.372 44.077-4.688 6.575 5.333 10.642 12.906 11.448 21.323.807 8.42-1.742 16.624-7.178 23.102"/><path d="m411.996 100.522-3.079 1.063a7.501 7.501 0 0 0 4.894 14.179l3.079-1.063a7.501 7.501 0 0 0-4.894-14.179M135.552 455.071a2142 2142 0 0 1-59.803 40.513c-2.56 1.671-5.608 1.875-8.367.558-2.756-1.315-4.515-3.812-4.826-6.851-1.53-14.929.547-30.219 6.009-44.219 9.279-23.784 24.904-62.128 44.174-102.824l50.551 42.417a7.47 7.47 0 0 0 4.817 1.755 7.5 7.5 0 0 0 4.825-13.245l-53.482-44.877c8.074-16.529 16.684-33.214 25.664-49.262a7.5 7.5 0 0 0-13.09-7.325C97.752 332.957 68.799 403.2 54.59 439.621c-6.323 16.208-8.729 33.913-6.956 51.2.845 8.241 5.812 15.291 13.288 18.858A23.6 23.6 0 0 0 71.092 512c4.481 0 8.934-1.296 12.854-3.854a2157 2157 0 0 0 60.23-40.802c3.389-2.381 4.205-7.059 1.824-10.448s-7.058-4.208-10.448-1.825M257.187 285.997a7.47 7.47 0 0 0 4.817 1.755 7.5 7.5 0 0 0 4.825-13.245l-43.344-36.37a7.5 7.5 0 0 0-10.566.924 7.5 7.5 0 0 0 .924 10.566z"/><path d="m152.202 397.879-25.214-21.157a7.5 7.5 0 0 0-10.566.925 7.5 7.5 0 0 0 .924 10.566l25.214 21.157a7.47 7.47 0 0 0 4.817 1.755 7.5 7.5 0 0 0 4.825-13.246M206.301 360.275a7.47 7.47 0 0 0 4.817 1.755 7.5 7.5 0 0 0 4.825-13.245l-4.576-3.84a7.5 7.5 0 0 0-10.566.924 7.5 7.5 0 0 0 .924 10.566zM283.475 268.304a7.47 7.47 0 0 0 4.817 1.755 7.5 7.5 0 0 0 4.825-13.245l-4.576-3.84a7.5 7.5 0 0 0-10.566.924 7.5 7.5 0 0 0 .924 10.566z"/></svg>