<svg xmlns="http://www.w3.org/2000/svg" width="512" height="512"><path fill="#ae6ad8" d="M297.006 116.178c-8.188 22.608-47.382 115.782-159.516 189.875-60.211 39.784-64.777 126.544-9.551 173.001 47.563 40.012 118.917 31.869 156.331-17.764 54.588-72.416 117.901-189.868 117.901-345.112z"/><path fill="#975bbb" d="M402.175 116.181c0 31.128-2.548 60.735-7.059 88.761-11.541 2.095-26.183.312-42.095-12.367a49 49 0 0 1-3.625-3.212c-6.727 11.913-15.005 22.497-25.146 29.577-3.394 2.367-8.167 1.39-10.352-2.125-6.526-10.504-9.96-23.494-11.44-37.1a47 47 0 0 1-4.592 1.521c-14.058 3.857-25.317 2.82-34.159-.453 19.788-30.292 29.637-54.491 33.303-64.602z"/><path fill="#975bbb" d="M402.177 116.182c0 155.239-63.32 272.688-117.9 345.107-21.399 28.386-53.889 43.197-86.685 43.197-24.56 0-49.293-8.302-69.656-25.437-6.323-5.313-11.862-11.158-16.604-17.401 16.112 8.727 33.792 12.991 51.392 12.991 32.796 0 65.286-14.811 86.685-43.196 51.034-67.704 109.692-174.765 117.104-315.26z"/><path fill="#a3e440" d="M417.075 169.404c-10.249-2.437-17.159-11.913-15.038-22.232l2.295-11.166c6.236-30.338-13.303-59.988-43.641-66.223-30.338-6.236-59.988 13.303-66.223 43.641l-2.295 11.165c-2.121 10.319-12.208 16.302-22.588 14.499-7.146-1.241-11.756 7.667-6.361 12.666 9.591 8.888 25.511 16.806 49.79 10.146a48 48 0 0 0 4.593-1.517c1.482 13.603 4.92 26.594 11.446 37.099 2.183 3.514 6.953 4.494 10.344 2.126 10.141-7.079 18.423-17.661 25.15-29.576a48 48 0 0 0 3.622 3.206c19.684 15.695 37.437 14.699 49.755 10.314 6.93-2.467 6.207-12.471-.849-14.148"/><path fill="#99d53b" d="M417.925 183.552c-5.478 1.944-12.024 3.223-19.335 2.669 2.024-3.917.232-9.476-4.874-10.695-10.252-2.437-17.16-11.913-15.035-22.226l2.296-11.168c6.234-30.342-13.303-59.99-43.645-66.223a56 56 0 0 0-13.464-1.118 55.8 55.8 0 0 1 25.468-6.163c3.746 0 7.543.373 11.359 1.158 30.332 6.234 49.869 35.881 43.635 66.223l-2.296 11.158c-2.115 10.322 4.794 19.799 15.045 22.236 7.05 1.682 7.775 11.682.846 14.149"/><path fill="#a3e440" d="M337.945 91.478h26.265c3.366-32.815-1.87-61.658-5.398-76.26-1.346-5.571-7.051-8.901-12.558-7.316l-17.854 5.14c-6.157 1.772-9.161 8.803-6.075 14.418 13.74 25.004 15.643 51.192 15.62 64.018"/><path d="M249.403 438.942a7.49 7.49 0 0 0 5.995-2.986c37.23-49.392 66.344-103.097 86.532-159.622a7.5 7.5 0 0 0-14.125-5.045c-19.678 55.095-48.069 107.459-84.385 155.638a7.5 7.5 0 0 0 5.983 12.015M141.624 312.309c30.472-20.134 58.179-43.387 82.351-69.111a7.5 7.5 0 0 0-10.931-10.271c-23.376 24.877-50.187 47.375-79.689 66.868-52.829 34.907-67.53 106.52-32.771 159.638a7.49 7.49 0 0 0 6.282 3.394 7.5 7.5 0 0 0 6.269-11.607c-30.25-46.228-17.47-108.543 28.489-138.911"/><path d="M430.237 175.86c-.363-6.687-4.955-12.214-11.428-13.752-6.623-1.575-10.676-7.347-9.426-13.426l2.294-11.166c1.714-8.338 1.754-16.774.118-25.074a7.5 7.5 0 0 0-14.716 2.9 48.3 48.3 0 0 1-.094 19.154l-2.294 11.166c-2.847 13.848 6.042 27.366 20.325 30.962-14.153 4.889-28.34 1.779-42.171-9.25a41 41 0 0 1-3.06-2.71 7.497 7.497 0 0 0-11.768 1.68c-6.823 12.083-14.465 21.158-22.719 26.978-5.29-8.605-8.733-19.958-10.235-33.752a7.5 7.5 0 0 0-10.153-6.187 40 40 0 0 1-3.881 1.283c-17.035 4.672-31.281 1.951-42.397-8.134 14.508 2.352 28.037-6.57 30.886-20.434l2.295-11.165c3.22-15.663 13.768-28.493 28.163-34.756.363 4.361.475 8.191.47 11.288a7.5 7.5 0 0 0 7.486 7.513h.014a7.5 7.5 0 0 0 7.499-7.487c.025-13.971-2.092-41.336-16.548-67.643-.458-.834-.308-1.602-.101-2.1.179-.431.636-1.2 1.678-1.5l17.855-5.139a2.53 2.53 0 0 1 1.986.245c.354.206.982.691 1.208 1.624 3.353 13.879 8.491 41.914 5.227 73.734a7.5 7.5 0 0 0 14.921 1.531c.356-3.474.615-6.902.796-10.278a48.2 48.2 0 0 1 8.867 6.148 7.47 7.47 0 0 0 4.934 1.854 7.5 7.5 0 0 0 4.94-13.146 63 63 0 0 0-18.464-11.235c-.427-22.555-4.037-41.349-6.641-52.129a17.66 17.66 0 0 0-8.248-11.068C353.68-.04 348.822-.639 344.18.696l-17.855 5.139a17.51 17.51 0 0 0-11.379 10.156c-2.048 4.926-1.754 10.423.806 15.081 6.331 11.521 9.993 23.318 12.08 33.821-20.8 7.489-36.215 25.146-40.711 47.02l-2.296 11.166c-1.249 6.079-7.253 9.784-13.957 8.62-6.555-1.142-12.956 2.128-15.926 8.131-2.938 5.935-1.659 12.938 3.184 17.425a57 57 0 0 0 7.67 5.966c-8.662 14.553-18.526 28.877-29.391 42.627a7.5 7.5 0 1 0 11.768 9.3c11.605-14.685 22.116-30.013 31.303-45.592 4.812 1.443 10.197 2.332 16.215 2.332 4.833 0 10.067-.564 15.714-1.852 2.176 12.303 5.956 22.838 11.277 31.404 2.122 3.415 5.614 5.842 9.579 6.657a14.8 14.8 0 0 0 2.977.302 14.8 14.8 0 0 0 8.452-2.641c8.267-5.772 15.896-13.962 22.749-24.41 8.014 5.839 15.744 9.245 22.954 10.994-16.513 118.445-69.344 209.026-111.112 264.435-16.373 21.721-40.221 35.678-67.15 39.301-26.915 3.622-53.552-3.503-74.997-20.058a7.5 7.5 0 0 0-9.166 11.872C147.417 503.678 171.963 512 197.396 512c5.215 0 10.473-.351 15.735-1.059 30.931-4.16 58.322-20.191 77.128-45.137 42.915-56.93 97.243-150.07 114.1-272.002 6.074-.273 11.507-1.558 16.08-3.186 6.22-2.213 10.158-8.143 9.798-14.756"/></svg>