<svg xmlns="http://www.w3.org/2000/svg" width="512" height="512"><path fill="#fdf0b2" d="M159.414 279.037 362.859 36.581C392.5 8.827 434.034-2.047 456.943 17.177s19.414 62.014-2.772 96.024L250.726 355.657z"/><path fill="#fde784" d="M454.176 113.198 250.731 355.655l-22.902-19.217L431.274 93.981c18.352-28.136 23.908-62.297 12.305-84.139 4.908 1.599 9.415 4.019 13.362 7.331 22.91 19.224 19.413 62.017-2.765 96.025M341.567 75.106l-7.434-6.238c-8.989-7.543-10.162-20.945-2.619-29.935l3.487-4.155c7.543-8.989 20.945-10.162 29.935-2.619l7.434 6.238c8.989 7.543 10.162 20.945 2.619 29.935l-3.487 4.155c-7.543 8.99-20.945 10.162-29.935 2.619"/><path fill="#fddd45" d="m374.987 68.335-3.483 4.151c-7.542 8.988-20.946 10.161-29.935 2.619l-7.433-6.237a21.3 21.3 0 0 1-5.228-6.514c7.94 2.456 16.927.119 22.603-6.644l3.483-4.151c5.676-6.764 6.416-16.02 2.611-23.404a21.05 21.05 0 0 1 7.33 4.009l7.433 6.237c8.989 7.542 10.161 20.946 2.619 29.934"/><path fill="#fddd45" d="m386.981 113.213-12.86-10.791c-8.989-7.543-10.162-20.945-2.619-29.935l3.487-4.155c7.543-8.989 20.945-10.162 29.935-2.619l12.86 10.791c8.989 7.543 10.162 20.945 2.619 29.935l-3.487 4.155c-7.544 8.989-20.946 10.162-29.935 2.619"/><path fill="#f8c52d" d="m420.399 106.44-3.483 4.151c-7.542 8.988-20.946 10.161-29.934 2.619l-12.859-10.79a20.7 20.7 0 0 1-3.667-3.986c8.515 4.048 19.02 2.014 25.363-5.545l3.483-4.151c6.343-7.56 6.522-18.258 1.057-25.941a20.7 20.7 0 0 1 4.562 2.919l12.859 10.79c8.989 7.542 10.161 20.946 2.619 29.934"/><path fill="#fde784" d="m426.968 146.766-7.434-6.238c-8.989-7.543-10.162-20.945-2.619-29.935l3.487-4.155c7.543-8.989 20.945-10.162 29.935-2.619l7.434 6.238c8.989 7.543 10.162 20.945 2.619 29.935l-3.487 4.155c-7.543 8.99-20.945 10.162-29.935 2.619"/><path fill="#fddd45" d="m460.386 139.993-3.483 4.151c-7.542 8.988-20.946 10.161-29.935 2.619l-7.433-6.237a21.2 21.2 0 0 1-5.689-7.47c7.688 1.967 16.157-.45 21.59-6.924l3.483-4.151c5.433-6.475 6.342-15.235 3.063-22.455a21.1 21.1 0 0 1 8.352 4.296l7.433 6.237c8.988 7.542 10.161 20.946 2.619 29.934M311.575 109.413l-11.051-9.273c-8.989-7.543-10.162-20.945-2.619-29.935l3.487-4.155c7.543-8.989 20.945-10.162 29.935-2.619l11.051 9.273c8.989 7.543 10.162 20.945 2.619 29.935l-3.487 4.155c-7.543 8.99-20.945 10.162-29.935 2.619"/><path fill="#f8c52d" d="m345.001 102.639-3.49 4.16c-7.542 8.988-20.946 10.161-29.935 2.619l-11.05-9.272a20.8 20.8 0 0 1-3.936-4.381c8.433 3.778 18.69 1.691 24.927-5.742l3.49-4.16c6.237-7.433 6.511-17.897 1.326-25.546a20.7 20.7 0 0 1 4.998 3.115l11.05 9.272c8.989 7.543 10.162 20.946 2.62 29.935"/><path fill="#fde784" d="m358.797 149.037-14.668-12.308c-8.989-7.543-10.162-20.945-2.619-29.935l3.487-4.155c7.543-8.989 20.945-10.162 29.935-2.619l14.668 12.308c8.989 7.543 10.162 20.945 2.619 29.935l-3.487 4.155c-7.543 8.99-20.945 10.162-29.935 2.619"/><path fill="#fddd45" d="m392.222 142.262-3.49 4.16c-7.542 8.988-20.946 10.161-29.935 2.619l-14.667-12.307a20.6 20.6 0 0 1-2.937-3.019c8.686 4.762 19.826 2.891 26.442-4.995l3.49-4.16c6.616-7.885 6.525-19.18.327-26.908a20.5 20.5 0 0 1 3.483 2.368l14.667 12.307c8.989 7.542 10.162 20.946 2.62 29.935"/><path fill="#fddd45" d="m402.402 185.626-11.051-9.273c-8.989-7.543-10.162-20.945-2.619-29.935l3.487-4.155c7.543-8.989 20.945-10.162 29.935-2.619l11.051 9.273c8.989 7.543 10.162 20.945 2.619 29.935l-3.487 4.155c-7.544 8.989-20.946 10.162-29.935 2.619"/><path fill="#f8c52d" d="m435.825 178.85-3.49 4.16c-7.542 8.988-20.946 10.161-29.935 2.619l-11.05-9.272a20.9 20.9 0 0 1-4.488-5.23c8.259 3.232 17.996 1.031 24.005-6.13l3.49-4.16c6.009-7.162 6.486-17.132 1.869-24.705a20.9 20.9 0 0 1 5.929 3.511l11.05 9.272c8.99 7.542 10.162 20.946 2.62 29.935"/><path fill="#fddd45" d="M329.278 186.46 312.4 172.298c-8.989-7.543-10.162-20.945-2.619-29.935l4.825-5.751c7.543-8.989 20.945-10.162 29.935-2.619l16.878 14.162c8.989 7.543 10.162 20.945 2.619 29.935l-4.825 5.751c-7.543 8.989-20.945 10.162-29.935 2.619"/><path fill="#f8c52d" d="m364.036 178.092-4.826 5.751c-7.542 8.988-20.946 10.161-29.935 2.619l-16.874-14.159a19 19 0 0 1-1.985-1.913c8.859 5.677 20.754 4.024 27.697-4.25l4.826-5.751c6.943-8.274 6.504-20.276-.624-28.014a19 19 0 0 1 2.228 1.623l16.874 14.159c8.989 7.543 10.161 20.947 2.619 29.935"/><path fill="#fde784" d="m279.847 144.982-13.261-11.127c-8.989-7.543-10.162-20.945-2.619-29.935l4.825-5.751c7.543-8.989 20.945-10.162 29.935-2.619l13.261 11.127c8.989 7.543 10.162 20.945 2.619 29.935l-4.825 5.751c-7.543 8.989-20.946 10.162-29.935 2.619"/><path fill="#fddd45" d="m314.609 136.618-4.826 5.751c-7.542 8.988-20.946 10.161-29.935 2.619l-13.266-11.131a21 21 0 0 1-3.068-3.175c8.676 4.645 19.695 2.734 26.266-5.096l4.826-5.751c6.571-7.831 6.539-19.014.458-26.752a20.8 20.8 0 0 1 3.66 2.47l13.266 11.131c8.989 7.541 10.161 20.945 2.619 29.934"/><path fill="#fde784" d="m375.093 224.902-13.261-11.127c-8.989-7.543-10.162-20.945-2.619-29.935l4.825-5.751c7.543-8.989 20.945-10.162 29.935-2.619l13.261 11.127c8.989 7.543 10.162 20.945 2.619 29.935l-4.825 5.751c-7.544 8.99-20.946 10.162-29.935 2.619"/><path fill="#fddd45" d="m409.846 216.531-4.826 5.751c-7.542 8.988-20.937 10.169-29.935 2.619l-13.256-11.123a21 21 0 0 1-3.656-3.962c8.524 4.055 19.038 2.029 25.389-5.539l4.826-5.751c6.351-7.569 6.52-18.275 1.046-25.965a21 21 0 0 1 4.536 2.913l13.256 11.123c8.999 7.549 10.162 20.946 2.62 29.934M248.638 180.244l-16.971-14.24c-8.989-7.543-10.162-20.945-2.619-29.935l4.46-5.315c7.543-8.989 20.945-10.162 29.935-2.619l16.971 14.24c8.989 7.543 10.162 20.945 2.619 29.935l-4.46 5.315c-7.543 8.99-20.945 10.162-29.935 2.619"/><path fill="#f8c52d" d="m283.027 172.31-4.462 5.317c-7.542 8.988-20.937 10.169-29.935 2.619l-16.964-14.234a22 22 0 0 1-1.449-1.34c8.919 6.174 21.245 4.652 28.355-3.821l4.462-5.317c7.11-8.473 6.469-20.876-1.16-28.587.535.372 1.064.77 1.571 1.195l16.964 14.234c8.996 7.549 10.16 20.945 2.618 29.934"/><path fill="#fde784" d="m299.971 223.318-18.779-15.758c-8.989-7.543-10.162-20.945-2.619-29.935l4.46-5.315c7.543-8.989 20.945-10.162 29.935-2.619l18.779 15.758c8.989 7.543 10.162 20.945 2.619 29.935l-4.46 5.315c-7.543 8.989-20.946 10.162-29.935 2.619"/><path fill="#fddd45" d="m334.362 215.385-4.462 5.317c-7.542 8.988-20.946 10.161-29.935 2.619l-18.781-15.76a21 21 0 0 1-1.12-1.016c8.939 6.499 21.523 5.055 28.739-3.545l4.462-5.317c7.216-8.6 6.453-21.243-1.499-28.918.402.291.807.6 1.195.926l18.781 15.76c8.989 7.541 10.162 20.945 2.62 29.934M349.495 264.874l-16.971-14.24c-8.989-7.543-10.162-20.945-2.619-29.935l4.46-5.315c7.543-8.989 20.945-10.162 29.935-2.619l16.971 14.24c8.989 7.543 10.162 20.945 2.619 29.935l-4.46 5.315c-7.543 8.989-20.945 10.162-29.935 2.619"/><path fill="#f8c52d" d="m383.889 256.943-4.462 5.317c-7.542 8.988-20.946 10.161-29.935 2.619l-16.973-14.242a20 20 0 0 1-2.106-2.044c8.832 5.562 20.649 3.874 27.546-4.346l4.462-5.317c6.897-8.22 6.507-20.151-.504-27.882a20 20 0 0 1 2.379 1.719l16.973 14.242c8.989 7.541 10.162 20.945 2.62 29.934"/><path fill="#fde784" d="m215.394 217.121-19.671-16.506c-8.989-7.543-10.162-20.945-2.619-29.935l6.096-7.265c7.543-8.989 20.945-10.162 29.935-2.619l19.671 16.506c8.989 7.543 10.162 20.945 2.619 29.935l-6.096 7.265c-7.543 8.99-20.945 10.162-29.935 2.619"/><path fill="#fddd45" d="m251.42 207.241-6.093 7.261c-7.542 8.988-20.946 10.161-29.935 2.619l-19.831-16.64c8.992 7.391 22.275 6.179 29.772-2.755l6.093-7.261c7.504-8.943 6.384-22.226-2.456-29.798l19.831 16.64c8.988 7.542 10.169 20.937 2.619 29.934M269.427 262.46l-21.479-18.023c-8.989-7.543-10.162-20.945-2.619-29.935l6.096-7.265c7.543-8.989 20.945-10.162 29.935-2.619l21.479 18.023c8.989 7.543 10.162 20.945 2.619 29.935l-6.096 7.265c-7.544 8.99-20.946 10.162-29.935 2.619"/><path fill="#f8c52d" d="m305.45 252.577-6.093 7.261c-7.542 8.988-20.937 10.169-29.935 2.619l-21.087-17.695c8.988 7.542 22.392 6.369 29.935-2.619l6.093-7.261c7.55-8.997 6.369-22.392-2.619-29.935l21.087 17.695c8.997 7.551 10.168 20.938 2.619 29.935"/><path fill="#fde784" d="m321.651 306.281-19.671-16.506c-8.989-7.543-10.162-20.945-2.619-29.935l6.096-7.265c7.543-8.989 20.945-10.162 29.935-2.619l19.671 16.506c8.989 7.543 10.162 20.945 2.619 29.935l-6.096 7.265c-7.543 8.99-20.945 10.162-29.935 2.619"/><path fill="#fddd45" d="m357.68 296.404-6.093 7.261c-7.542 8.988-20.946 10.161-29.935 2.619l-19.677-16.511c-.298-.25-.589-.51-.88-.769 8.967 6.723 21.732 5.338 29.024-3.352l6.093-7.261c7.299-8.699 6.439-21.502-1.739-29.165.306.241.612.483.91.733l19.677 16.511c8.989 7.541 10.17 20.936 2.62 29.934M180.687 255.9l-22.214-18.64c-8.989-7.543-10.162-20.945-2.619-29.935l7.637-9.101c7.543-8.989 20.945-10.162 29.935-2.619l22.214 18.64c8.989 7.543 10.162 20.945 2.619 29.935l-7.637 9.101c-7.543 8.99-20.945 10.162-29.935 2.619"/><path fill="#f8c52d" d="m218.254 244.177-7.633 9.097c-7.55 8.997-20.937 10.169-29.935 2.619l-19.993-16.776c8.997 7.55 22.385 6.379 29.935-2.619l7.633-9.097c7.542-8.988 6.378-22.385-2.619-29.935l19.993 16.776c8.997 7.55 10.161 20.947 2.619 29.935"/><path fill="#fde784" d="m237.264 303.374-24.023-20.158c-8.989-7.543-10.162-20.945-2.619-29.935l7.637-9.101c7.543-8.989 20.945-10.162 29.935-2.619l24.023 20.158c8.989 7.543 10.162 20.945 2.619 29.935l-7.637 9.101c-7.544 8.989-20.946 10.162-29.935 2.619"/><path fill="#fddd45" d="m274.834 291.653-7.633 9.097c-7.55 8.997-20.946 10.161-29.935 2.619l-21.097-17.702c8.988 7.542 22.385 6.379 29.935-2.619l7.633-9.097c7.542-8.988 6.37-22.392-2.619-29.935l21.097 17.702c8.988 7.543 10.161 20.947 2.619 29.935M292.032 349.329l-22.214-18.64c-8.989-7.543-10.162-20.945-2.619-29.935l7.637-9.101c7.543-8.989 20.945-10.162 29.935-2.619l22.214 18.64c8.989 7.543 10.162 20.945 2.619 29.935l-7.637 9.101c-7.544 8.99-20.946 10.162-29.935 2.619"/><path fill="#f8c52d" d="m329.605 337.612-7.633 9.097c-7.55 8.997-20.946 10.161-29.935 2.619l-21.467-18.013c8.988 7.542 22.385 6.379 29.935-2.619l7.633-9.097c7.542-8.988 6.369-22.392-2.619-29.935l21.467 18.013c8.988 7.543 10.161 20.947 2.619 29.935"/><path fill="#d2f0a2" d="M80.558 501.916 44.929 472.02c-4.949-4.153-5.295-11.647-.749-16.238l29.38-29.672 47.24 39.639-24.12 34.086c-3.733 5.273-11.173 6.234-16.122 2.081"/><path fill="#a3e440" d="m80.558 501.921-20.729-17.393c4.951 4.155 12.396 3.19 16.13-2.086l24.115-34.085 20.729 17.393-24.123 34.078c-3.735 5.276-11.179 6.241-16.122 2.093"/><path fill="#a3e440" d="M88.528 456.142s133.16-60.073 162.738-224.127c16.158-89.619 35.405-143.677 46.947-170.621 2.266-5.29-4.067-10.081-8.546-6.467-74.316 59.97-336.995 287.219-201.139 401.215"/><path fill="#99d53b" d="M88.528 456.136c-7.618-6.392-13.972-13.138-19.193-20.186 35.068-20.667 124.94-85.366 148.592-216.535 10.427-57.772 22.116-100.769 32.21-131.243a1329 1329 0 0 1 39.536-33.246c4.476-3.615 10.809 1.18 8.534 6.469-11.532 26.945-30.786 81.003-46.944 170.616C221.689 396.073 88.528 456.136 88.528 456.136"/><path fill="#bcea73" d="M88.528 456.142s40.873-160.388 215.42-146.997a89.52 89.52 0 0 0 58.187-15.916c5.865-4.106 13.176 2.706 9.488 8.842-42.001 69.871-167.116 251.389-283.095 154.071"/><path fill="#99d53b" d="M88.528 456.136s2.126-8.327 7.469-21.037c88.246 44.638 177.907-53.759 229.212-126.848a89.5 89.5 0 0 0 36.926-15.026c2.808-1.971 5.945-1.43 8.053.339 2.294 1.925 3.357 5.298 1.434 8.501C329.62 371.94 204.511 553.458 88.528 456.136"/><path d="M472.385 64.562c-4.064-.754-7.987 1.933-8.742 6.006-1.664 8.969-4.817 18.189-9.163 26.966-6.327-4.995-14.16-6.916-21.631-5.915a29 29 0 0 0-.085-1.344c-.669-7.65-4.277-14.581-10.16-19.516l-12.86-10.791c-5.882-4.936-13.332-7.286-20.984-6.616q-.667.06-1.326.149a30 30 0 0 0-.084-1.331c-.629-7.195-3.859-13.753-9.136-18.614 12.339-9.1 25.984-15.294 38.935-17.593 10.043-1.781 24.266-2.023 34.971 6.96 4.54 3.809 7.949 8.92 10.135 15.191a7.5 7.5 0 0 0 9.55 4.615 7.5 7.5 0 0 0 4.614-9.551c-3.087-8.859-8.018-16.175-14.657-21.746-11.81-9.913-28.586-13.55-47.232-10.239-16.307 2.895-33.38 10.921-48.333 22.666-5.197-3.169-11.245-4.599-17.424-4.061-7.65.669-14.582 4.277-19.517 10.16l-3.486 4.155a28.67 28.67 0 0 0-6.677 16.897 28.9 28.9 0 0 0-14.031 2.872c-.875-1.925-2.243-3.66-4.06-5.037-4.856-3.68-11.305-3.58-16.044.246-13.083 10.558-33.585 27.585-56.954 48.744a7.5 7.5 0 1 0 10.069 11.119 1336 1336 0 0 1 50.216-43.242c-12.691 31.279-29.773 83.837-44.402 164.972-5.037 27.936-13.538 54.642-25.257 79.405-15.598 4.743-30.301 11.304-44.044 19.675a7.5 7.5 0 0 0 7.803 12.811c34.09-20.765 74.796-29.499 120.987-25.953 21.016 1.615 42.088-3.718 59.787-15.056-30.646 50.345-106.012 160.179-187.2 173.758-27.824 4.653-54.317-2.697-78.812-21.85 4.419-13.732 20.342-56.08 57.542-90.073a7.5 7.5 0 1 0-10.119-11.074c-26.003 23.763-42.215 50.94-51.721 71.27-1.199-37.139 6.462-73.637 23.162-110.763 20.355-45.25 54.15-91.377 103.317-141.017a7.5 7.5 0 1 0-10.657-10.556C113.309 257.542 71.501 345.317 78.504 435.56c-13.257-16.039-20.098-34.359-20.802-55.532-1.452-43.67 24.086-121.885 153.997-246.504a7.501 7.501 0 0 0-10.385-10.825c-45.101 43.264-81.328 84.65-107.674 123.009-35.072 51.061-52.207 96.421-50.93 134.818.621 18.694 5.58 35.792 14.782 51.15l-18.643 18.828a18.6 18.6 0 0 0-5.348 13.907 18.6 18.6 0 0 0 6.607 13.353l35.629 29.897a18.6 18.6 0 0 0 14.299 4.187 18.6 18.6 0 0 0 12.765-7.682l14.911-21.071c13.55 5.728 27.57 8.608 41.989 8.608q9.262 0 18.734-1.583c38.793-6.488 79.777-32.885 121.814-78.459 33.812-36.658 60.972-77.728 77.802-105.726 3.471-5.773 2.455-13.014-2.47-17.608a14.2 14.2 0 0 0-5.483-3.189 28.5 28.5 0 0 0-.556-8.522 28.76 28.76 0 0 0 15.634-9.54l4.46-5.315c4.936-5.883 7.286-13.335 6.616-20.985a29 29 0 0 0-.691-4.253c5.862-1.441 11.244-4.69 15.212-9.418l4.825-5.751c5.761-6.866 7.754-15.659 6.205-23.846a28.75 28.75 0 0 0 16.279-9.679l3.487-4.156c4.937-5.883 7.286-13.335 6.616-20.985a29 29 0 0 0-.698-4.28 28.7 28.7 0 0 0 15.161-9.44l3.486-4.155c4.936-5.883 7.286-13.335 6.616-20.985-.525-6-2.865-11.553-6.685-16.053 5.918-11.056 10.18-22.918 12.325-34.471a7.497 7.497 0 0 0-6.005-8.742M90.557 495.502a3.52 3.52 0 0 1-2.442 1.47 3.52 3.52 0 0 1-2.735-.801l-35.63-29.897a3.52 3.52 0 0 1-1.264-2.554 3.52 3.52 0 0 1 1.022-2.661l16.716-16.882c5.032 6.244 10.859 12.153 17.483 17.711l.004.003c6.664 5.591 13.476 10.4 20.425 14.422zm262.346-205.245a82.2 82.2 0 0 1-23.648 9.533l-19.665-16.501a28.7 28.7 0 0 0-6.46-4.088c-2.169-4.772-1.436-10.471 1.977-14.538l6.097-7.265a13.66 13.66 0 0 1 9.332-4.859 13.67 13.67 0 0 1 10.035 3.164l19.671 16.505c5.386 4.521 6.493 12.219 2.661 18.049m-99.14-34.231 13.633 11.439a13.66 13.66 0 0 1 4.859 9.333 13.66 13.66 0 0 1-3.164 10.035l-7.638 9.101-.003.004c-4.875 5.803-13.558 6.561-19.365 1.69l-1.277-1.072a332 332 0 0 0 12.955-40.53m23.226-106.53c4.486 5.009 4.743 12.696.298 17.993l-4.46 5.316a13.7 13.7 0 0 1-2.093 2.012c1.919-8.209 4-16.692 6.255-25.321m14.717-49.705c.775.428 1.513.929 2.2 1.505l13.261 11.128c5.806 4.872 6.567 13.561 1.694 19.368l-4.825 5.751c-3.371 4.018-8.782 5.737-13.809 4.511a28.7 28.7 0 0 0-4.992-5.423l-3.869-3.246c3.166-11.23 6.614-22.528 10.34-33.594m97.931 27.616a13.67 13.67 0 0 1-3.164 10.035l-3.486 4.155c-3.165 3.773-8.127 5.539-12.926 4.698a28.8 28.8 0 0 0-3.82-3.885l-16.879-14.163a29 29 0 0 0-4.494-3.1 13.73 13.73 0 0 1 2.386-13.532l3.488-4.156a13.66 13.66 0 0 1 9.332-4.859 13.67 13.67 0 0 1 10.035 3.164l14.668 12.309a13.66 13.66 0 0 1 4.86 9.334m-49.135 56.304a29 29 0 0 0-3.933-4.007l-18.779-15.758a29 29 0 0 0-4.634-3.181c-1.675-4.585-.793-9.809 2.372-13.581l4.826-5.751.006-.008a13.66 13.66 0 0 1 9.326-4.851 13.66 13.66 0 0 1 10.035 3.164l16.878 14.162c5.807 4.873 6.568 13.562 1.695 19.368l-4.826 5.751a13.69 13.69 0 0 1-12.966 4.692m-29.176 36.885a29 29 0 0 0-3.666-3.7l-21.479-18.023a29 29 0 0 0-4.27-2.953c-1.623-4.559-.734-9.729 2.408-13.473l4.46-5.316a13.66 13.66 0 0 1 9.333-4.858 13.65 13.65 0 0 1 10.035 3.164l18.78 15.758a13.66 13.66 0 0 1 4.859 9.333 13.66 13.66 0 0 1-3.164 10.035l-4.46 5.315a13.69 13.69 0 0 1-12.836 4.718m-52.679 12.75a1203 1203 0 0 1 4.897-25.553 13.7 13.7 0 0 1 12.993 2.571l21.479 18.023c5.807 4.873 6.568 13.562 1.695 19.368l-6.096 7.264a13.69 13.69 0 0 1-12.855 4.712 29 29 0 0 0-3.724-3.759l-19.572-16.422c.412-2.062.809-4.129 1.183-6.204m131.42-165.051a13.67 13.67 0 0 1 10.035 3.164l12.861 10.791a13.66 13.66 0 0 1 4.859 9.333 13.66 13.66 0 0 1-3.164 10.035l-3.486 4.155-.003.003c-3.157 3.76-8.118 5.532-12.912 4.697a29 29 0 0 0-3.835-3.89l-14.668-12.309a29 29 0 0 0-4.836-3.288 13.72 13.72 0 0 1 2.331-13.678l3.486-4.155a13.65 13.65 0 0 1 9.332-4.858m-52.807-24.54 3.486-4.155a13.66 13.66 0 0 1 9.333-4.859 13.66 13.66 0 0 1 10.036 3.165l7.435 6.238a13.66 13.66 0 0 1 4.858 9.332 13.66 13.66 0 0 1-3.164 10.036l-3.486 4.155c-3.347 3.988-8.697 5.708-13.69 4.537a28.7 28.7 0 0 0-4.867-5.244l-11.051-9.273a30 30 0 0 0-1.534-1.193 13.71 13.71 0 0 1 2.644-12.739m-10.755 25.421 11.052 9.274c5.806 4.872 6.567 13.561 1.694 19.367l-3.487 4.156c-3.386 4.037-8.838 5.754-13.887 4.493a28.7 28.7 0 0 0-5.068-5.534l-13.261-11.128a29 29 0 0 0-2.487-1.848 13.68 13.68 0 0 1 2.59-12.93l3.486-4.155c4.875-5.807 13.562-6.566 19.368-1.695m-49.678 231.772 3.754-4.473c4.873-5.807 13.562-6.567 19.368-1.695l8.444 7.086a82 82 0 0 1-3.872-.198c-9.441-.726-18.674-.962-27.694-.72m101.318-48.83-4.46 5.316a13.77 13.77 0 0 1-12.118 4.819 29 29 0 0 0-1.683-1.536l-19.671-16.505a28.9 28.9 0 0 0-6.529-4.129c-2.163-4.75-1.46-10.479 1.966-14.563l4.46-5.315c4.874-5.807 13.562-6.566 19.368-1.695l16.97 14.24a13.66 13.66 0 0 1 4.86 9.334 13.66 13.66 0 0 1-3.163 10.034m25.963-40.406-4.825 5.75c-2.986 3.558-7.442 5.33-12.031 4.826a29 29 0 0 0-1.159-1.029l-16.971-14.241a28.7 28.7 0 0 0-6.21-3.976c-2.077-4.737-1.316-10.373 2.046-14.38l4.826-5.751a13.66 13.66 0 0 1 9.333-4.858 13.65 13.65 0 0 1 10.035 3.164l13.26 11.126c5.807 4.873 6.568 13.562 1.696 19.369m25.97-37.682-3.487 4.156a13.76 13.76 0 0 1-12.257 4.804 29 29 0 0 0-2.28-2.138l-13.26-11.126a29 29 0 0 0-6.331-4.04 13.76 13.76 0 0 1 2.014-14.447l3.486-4.155c4.873-5.808 13.561-6.567 19.368-1.695l11.052 9.274a13.66 13.66 0 0 1 4.859 9.333 13.65 13.65 0 0 1-3.164 10.034m24.566-38.859-3.486 4.155a13.72 13.72 0 0 1-12.025 4.824 31 31 0 0 0-1.107-.979l-11.052-9.274a28.7 28.7 0 0 0-6.324-4.027 13.74 13.74 0 0 1 2.011-14.456l3.486-4.155c4.874-5.807 13.562-6.566 19.368-1.695l7.434 6.238a13.66 13.66 0 0 1 4.86 9.334 13.66 13.66 0 0 1-3.165 10.035"/><path d="M213.975 204.195c-.454.581-11.25 14.448-23.827 34.055-17.019 26.532-28.514 49.738-34.164 68.974a7.501 7.501 0 0 0 14.393 4.228c12.577-42.816 54.995-97.478 55.422-98.025a7.5 7.5 0 0 0-1.298-10.527 7.5 7.5 0 0 0-10.526 1.295M134.148 431.5a7.495 7.495 0 0 0-8.353 6.538 7.5 7.5 0 0 0 6.538 8.352q7.17.873 14.515.872c34.986 0 72.715-14.799 110.044-43.326 31.69-24.217 51.806-49.47 52.647-50.534a7.5 7.5 0 1 0-11.766-9.305c-.774.98-78.414 97.782-163.625 87.403"/></svg>