<svg xmlns="http://www.w3.org/2000/svg" width="512" height="512"><path fill="#0f7a4f" d="M383.775 384.96c.626-7.003 6.091-12.565 13.022-13.752 13.318-2.28 31.934-9.463 37.006-31.526a18.15 18.15 0 0 1 9.456-12.129c13.02-6.614 36.555-23.107 33.419-54.913-.394-3.997.818-7.96 3.313-11.107 10.934-13.795 12.313-33.588 2.044-49.041s-29.052-21.847-46.005-17.11c-3.868 1.081-7.991.664-11.524-1.247-28.109-15.21-52.43.101-63.571 9.543a18.15 18.15 0 0 1-14.845 4.021c-22.305-3.868-36.138 10.513-43.398 21.908-3.778 5.93-11.023 8.815-17.722 6.679-25.796-8.224-65.566 8.863-73.727 62.553-7.91 52.043-40.593 94.887-51.627 107.24l19.065 28.688c15.663-5.388 67.82-18.926 118.865-6.062 52.664 13.271 83.82-16.778 86.229-43.745"/><path fill="#0c6842" d="M479.995 261.531c-2.5 3.146-3.71 7.112-3.32 11.109 3.136 31.809-20.393 48.298-33.418 54.918a18.09 18.09 0 0 0-9.448 12.123c-5.073 22.064-23.693 29.247-37.015 31.522-6.927 1.189-12.39 6.753-13.015 13.753-2.408 26.972-33.572 57.019-86.225 43.748a145 145 0 0 0-4.058-.963c37.169-.738 58.781-25.302 60.79-47.755.646-7.122 6.2-12.779 13.25-13.988 13.537-2.316 32.465-9.623 37.63-32.055a18.39 18.39 0 0 1 9.612-12.328c13.24-6.733 37.169-23.498 33.982-55.84-.4-4.068.83-8.096 3.372-11.293 11.109-14.029 12.512-34.156 2.07-49.866a42.4 42.4 0 0 0-10.094-10.637c14.562-1.097 29.268 5.493 37.927 18.518 10.267 15.452 8.894 35.241-2.04 49.034"/><path fill="#fcb5ba" d="M265.249 204.29c-13.366 13.133-26.942 25.22-40.224 35.215C155.888 291.53 84.914 378.799 63.459 406.07c-3.667 4.661-2.965 11.388 1.579 15.201l35.221 29.554c5.16 4.33 12.957 3.042 16.453-2.715 15.279-25.163 58.522-89.791 137.572-160.492 18.027-16.123 34.346-33.601 49.003-51.411z"/><path fill="#fc9aa1" d="M281.408 217.849c-14.657 17.811-30.968 35.293-49 51.419-79.051 70.694-122.29 135.326-137.576 160.485-3.489 5.755-11.287 7.047-16.447 2.718l21.874 18.354c5.16 4.329 12.957 3.037 16.455-2.711 15.278-25.166 58.517-89.798 137.568-160.492 18.028-16.125 34.348-33.605 49.004-51.416z"/><path fill="#158f5e" d="M316.734 240.759c-1.582-7.923 2.64-15.827 9.895-19.383 13.942-6.833 32.135-20.789 30.572-46.756a20.85 20.85 0 0 1 6.491-16.438c12.208-11.514 32.804-37.329 19.032-71.375-1.731-4.279-1.679-9.04.05-13.319 7.58-18.753 2.681-41.021-13.652-54.725S330.01 4.1 312.858 14.821c-3.914 2.446-8.594 3.324-13.108 2.362-35.92-7.651-57.767 17.116-66.986 31.137a20.85 20.85 0 0 1-15.061 9.247c-25.844 2.97-36.429 23.31-40.737 38.226-2.242 7.763-9.293 13.293-17.37 13.111-31.104-.7-69.406 31.035-60.989 92.87 8.158 59.938-13.976 117.768-22.133 134.965l30.321 25.443c15.519-11.02 68.627-42.86 129.071-45.233 62.357-2.449 86.959-45.68 80.868-76.19"/><path fill="#0f7a4f" d="M316.737 240.763c-1.585-7.921 2.637-15.837 9.895-19.387 13.938-6.833 32.13-20.789 30.564-46.757a20.89 20.89 0 0 1 6.495-16.442c12.213-11.507 32.81-37.325 19.028-71.369-1.728-4.28-1.675-9.036.061-13.322 7.572-18.752 2.671-41.023-13.658-54.724a47.3 47.3 0 0 0-10.698-6.789c7.052 12.618 8.048 27.906 2.601 41.372-1.73 4.278-1.781 9.048-.047 13.32 13.767 34.045-6.83 59.863-19.035 71.377-4.506 4.246-6.864 10.266-6.495 16.442 1.565 25.968-16.627 39.924-30.564 46.757-7.258 3.55-11.482 11.451-9.903 19.38 6.097 30.508-18.501 73.739-80.86 76.191-62.124 2.437-114.81 37.43-128.685 47.449l21.356 17.92c15.523-11.022 68.634-42.863 129.076-45.234 62.354-2.444 86.958-45.683 80.869-76.184"/><path fill="#fcb44d" d="m218.394 249.67-27.642-23.194a297 297 0 0 1-3.854 2.961C117.76 281.463 46.786 368.732 25.332 396.003c-3.667 4.662-2.964 11.388 1.579 15.201l20.778 17.435c5.16 4.33 12.957 3.042 16.453-2.715 15.279-25.163 58.522-89.79 137.572-160.492a430 430 0 0 0 16.68-15.762"/><path fill="#fb9927" d="m218.394 249.671-17.074-14.327c-5.392 5.37-10.933 10.648-16.668 15.777-79.051 70.694-122.29 135.326-137.576 160.485-3.489 5.755-11.287 7.047-16.447 2.718l17.059 14.315c5.16 4.329 12.957 3.037 16.455-2.711 15.278-25.166 58.517-89.798 137.568-160.492a427 427 0 0 0 16.683-15.765"/><path fill="#fcb44d" d="m329.589 322.96-27.642-23.194a297 297 0 0 1-3.854 2.961c-69.138 52.026-140.112 139.295-161.566 166.565-3.667 4.661-2.964 11.388 1.579 15.201l20.778 17.435c5.16 4.33 12.957 3.042 16.453-2.715 15.279-25.163 58.522-89.791 137.572-160.492a428 428 0 0 0 16.68-15.761"/><path fill="#fb9927" d="m329.59 322.961-17.074-14.327c-5.392 5.37-10.933 10.648-16.668 15.777-79.051 70.694-122.29 135.326-137.576 160.485-3.489 5.755-11.287 7.047-16.447 2.718l17.059 14.314c5.16 4.329 12.957 3.037 16.455-2.711 15.278-25.166 58.517-89.798 137.568-160.492a428 428 0 0 0 16.683-15.764"/><path fill="#1ca56f" d="M390.007 302.242c-1.582-7.923 2.64-15.827 9.895-19.383 13.942-6.833 32.135-20.789 30.572-46.756a20.85 20.85 0 0 1 6.491-16.438c12.208-11.514 32.804-37.329 19.032-71.375-1.731-4.279-1.679-9.04.05-13.319 7.58-18.753 2.681-41.021-13.652-54.725s-39.113-14.662-56.265-3.942c-3.914 2.446-8.594 3.324-13.108 2.362-35.92-7.651-57.766 17.116-66.986 31.137a20.85 20.85 0 0 1-15.061 9.247c-25.844 2.97-36.429 23.31-40.737 38.226-2.242 7.763-9.293 13.293-17.37 13.111-31.104-.7-69.406 31.035-60.989 92.87 8.158 59.938-13.976 117.768-22.133 134.965l30.321 25.443c15.519-11.02 68.627-42.86 129.071-45.233 62.358-2.45 86.959-45.68 80.869-76.19"/><path fill="#158f5e" d="M390.009 302.245c-1.585-7.921 2.637-15.837 9.895-19.387 13.938-6.833 32.13-20.789 30.564-46.757a20.89 20.89 0 0 1 6.495-16.442c12.213-11.507 32.81-37.325 19.028-71.369-1.728-4.28-1.675-9.036.061-13.322 7.572-18.752 2.671-41.023-13.658-54.724a47.3 47.3 0 0 0-10.698-6.789c7.052 12.618 8.048 27.906 2.601 41.372-1.73 4.278-1.781 9.048-.046 13.32 13.767 34.045-6.83 59.863-19.035 71.377-4.506 4.246-6.864 10.266-6.495 16.442 1.565 25.968-16.627 39.924-30.564 46.757-7.258 3.55-11.482 11.451-9.903 19.38 6.097 30.508-18.501 73.739-80.86 76.191-62.124 2.437-114.81 37.43-128.685 47.449l21.356 17.92c15.523-11.022 68.634-42.863 129.076-45.234 62.353-2.443 86.957-45.682 80.868-76.184"/><path fill="#fb4a59" d="M100.183 472.686c-4.544-3.812-5.246-10.539-1.579-15.201 21.455-27.271 92.429-114.54 161.566-166.565 48.743-36.679 101.461-101.426 133.137-143.343 3.83-5.068 11.691-.229 8.879 5.468-22.699 45.98-64.772 118.034-127.201 173.87-79.05 70.701-122.293 135.329-137.572 160.492-3.496 5.758-11.293 7.045-16.453 2.715z"/><path fill="#e22334" d="M274.984 326.919c-79.051 70.694-122.29 135.326-137.568 160.492-3.497 5.748-11.295 7.04-16.455 2.711l-17.059-14.314c5.16 4.329 12.957 3.037 16.447-2.718 15.286-25.159 58.525-89.791 137.576-160.485 37.698-33.715 67.964-73.338 91.033-109.565 16.941-19.929 32.192-39.375 44.353-55.465 3.825-5.063 11.69-.227 8.88 5.469-22.707 45.979-64.776 118.032-127.207 173.875"/><path d="M488.282 208.342c-5.683-8.551-13.764-15.011-23.195-18.657 3.924-12.514 4.627-27.482-2.138-44.207-.987-2.44-.969-5.173.051-7.697a55.48 55.48 0 0 0-2.003-45.972 7.5 7.5 0 0 0-10.085-3.282 7.5 7.5 0 0 0-3.282 10.085 40.5 40.5 0 0 1 1.464 33.55c-2.485 6.149-2.503 12.876-.049 18.941 11.938 29.513-5.669 52.206-17.226 63.107-6.12 5.772-9.339 13.916-8.831 22.344.71 11.805-3.29 28.252-26.386 39.571-10.434 5.113-16.171 16.457-13.95 27.586 2.573 12.887-1.494 27.691-10.876 39.601-13.187 16.739-35.537 26.551-62.932 27.627-34.915 1.371-67.148 12.311-90.795 23.001 14.393-15.871 30.873-32.76 49.557-50.14 3.008-2.245 38.752-28.05 86.217-24.773 4.117.277 7.713-2.831 7.999-6.963s-2.831-7.713-6.963-7.999c-19.432-1.349-36.934 1.561-51.546 5.955 11.05-11.432 21.359-23.26 30.952-35.221.14-.118.28-.236.413-.366.231-.227 23.554-22.75 64.266-30.226a7.5 7.5 0 0 0 6.021-8.73c-.748-4.074-4.663-6.771-8.73-6.021-14.301 2.626-26.62 6.887-36.834 11.527 20.985-30.44 37.411-60.107 49.509-84.615 2.971-6.019.982-12.945-4.731-16.47-5.715-3.527-12.805-2.199-16.856 3.16-9.797 12.965-19.14 24.887-28.031 35.854 2.253-9.149 4.099-19.194 4.806-29.318a7.5 7.5 0 0 0-14.962-1.046c-1.907 27.282-13.27 55.05-16.041 61.476-20.495 23.367-37.99 40.936-52.493 54.099 8.681-13.905 15.282-27.146 20.276-39.485a7.5 7.5 0 0 0 .679-1.689c9.127-23.075 12.646-42.91 13.715-57.88a7.5 7.5 0 1 0-14.96-1.069c-.914 12.803-3.395 25.169-6.937 36.948-4.251-6.654-10.569-14.381-19.916-21.971a7.5 7.5 0 0 0-10.549 1.095 7.5 7.5 0 0 0 1.095 10.549c15.342 12.457 20.763 25.056 22.374 29.845-17.373 41.731-46.013 73.739-59.651 87.487 3.508-13.37 5.377-30.022 2.65-49.45a7.5 7.5 0 1 0-14.853 2.085c6.149 43.8-14.585 71.862-16.766 74.669-8.892 8.639-17.986 17.843-27.272 27.616 7.314-25.923 13.992-62.655 8.824-100.626-3.698-27.165 2.083-50.879 16.279-66.773 10.1-11.309 23.951-17.885 37.111-17.588 11.325.276 21.519-7.364 24.744-18.527 7.137-24.71 22.64-31.507 34.388-32.856 8.388-.964 15.85-5.548 20.471-12.578 8.728-13.274 28.022-34.553 59.158-27.922 6.4 1.362 13.022.177 18.645-3.338 10.334-6.46 22.893-7.918 34.452-4.004a7.497 7.497 0 0 0 9.509-4.697 7.5 7.5 0 0 0-4.697-9.509c-11.974-4.056-24.729-3.894-36.363.249 3.238-19.108-3.728-38.817-19.062-51.684-18.475-15.501-44.62-17.334-65.06-4.555-2.307 1.442-4.996 1.934-7.571 1.386-8.075-1.72-16.048-2.046-23.693-.97a7.5 7.5 0 0 0-6.381 8.472 7.5 7.5 0 0 0 8.471 6.381c5.905-.831 12.123-.566 18.478.787 6.403 1.365 13.022.178 18.646-3.338 14.912-9.322 33.989-7.984 47.469 3.327s18.109 29.866 11.519 46.172c-.107.265-.195.537-.293.805a10 10 0 0 1-.943-.153c-41.346-8.808-66.094 21.09-74.814 34.352a13.26 13.26 0 0 1-4.499 4.213c4.332-16.02 7.016-31.117 7.988-45.013a7.5 7.5 0 0 0-14.962-1.046c-1.067 15.267-4.381 32.202-9.857 50.39-16.986 5.859-29.361 20.037-35.406 40.968-1.338 4.632-5.463 7.789-9.997 7.694a53 53 0 0 0-5.342.175l.209-.513q.067-.154.126-.309c7.896-19.699 12.593-39.377 13.97-58.659a7.5 7.5 0 0 0-6.946-8.015c-4.125-.3-7.719 2.815-8.015 6.946-.868 12.16-3.185 24.525-6.914 36.984-4.251-6.662-10.575-14.403-19.939-22.006a7.5 7.5 0 0 0-10.549 1.095 7.5 7.5 0 0 0 1.095 10.549c15.422 12.522 20.82 25.189 22.399 29.92a223 223 0 0 1-3.745 8.516c-9.234 3.858-17.89 9.966-24.984 17.909-11.751 13.157-18.776 30.421-20.662 50.134-8.263 9.216-14.739 15.292-17.046 17.392 4.261-13.937 6.667-30.752 4.025-49.569a7.5 7.5 0 1 0-14.853 2.085c6.435 45.839-22.461 79.165-22.873 79.632-.045.05-.082.105-.125.156a1041 1041 0 0 0-15.554 16.023c7.365-25.993 13.912-62.461 8.724-100.572-3.698-27.166 2.083-50.88 16.279-66.774 10.1-11.308 23.961-17.884 37.111-17.587 11.34.287 21.52-7.364 24.744-18.527 3.939-13.639 13.103-30.411 34.388-32.857 8.388-.964 15.85-5.548 20.471-12.577 2.487-3.781 6.636-9.382 12.283-14.586a7.5 7.5 0 0 0-10.164-11.03c-5.433 5.007-10.362 10.853-14.651 17.375-2.173 3.305-5.69 5.461-9.651 5.916-23.007 2.644-39.729 18.127-47.086 43.596-1.338 4.632-5.435 7.785-9.996 7.694-17.509-.402-35.65 8.052-48.635 22.591-17.167 19.221-24.253 47.202-19.954 78.788 8.023 58.94-14.854 115.644-19.522 126.413l-.013.036c-24.623 27.589-43.651 51.261-52.203 62.131-6.207 7.89-5.041 19.127 2.653 25.583l20.778 17.434a18.46 18.46 0 0 0 14.89 4.08 18.45 18.45 0 0 0 9.993-5.126l24.322 20.408a18.38 18.38 0 0 0 3.29 24.686l20.778 17.435a18.46 18.46 0 0 0 14.89 4.079 18.46 18.46 0 0 0 8.92-4.116l14.114 11.843a18.46 18.46 0 0 0 14.89 4.08 18.47 18.47 0 0 0 12.793-8.648c4.72-7.773 10.158-16.107 16.164-24.772a7.5 7.5 0 1 0-12.327-8.545c-6.177 8.911-11.781 17.501-16.657 25.531a3.45 3.45 0 0 1-2.414 1.634 3.45 3.45 0 0 1-2.808-.77l-15.055-12.633c8.615-13.512 22.552-33.813 42.4-58.209 7.54-4.795 25.39-15.358 49.05-24.367-11.584 13-22.606 26.199-32.906 39.446a7.5 7.5 0 0 0 5.915 12.103 7.49 7.49 0 0 0 5.926-2.897 730 730 0 0 1 14.523-18.048c22.41-1.823 43.319-.35 62.159 4.398 9.116 2.298 18.003 3.434 26.491 3.433 16.821 0 32.071-4.464 44.381-13.205 14.061-9.984 23.278-25.153 24.656-40.578.313-3.504 3.116-6.394 6.817-7.027 23.152-3.964 38.44-17.188 43.049-37.237a10.63 10.63 0 0 1 5.545-7.124c12.493-6.346 41.154-25.124 37.486-62.335-.2-2.027.414-4.056 1.727-5.713 13.287-16.77 14.256-40.018 2.406-57.848M101.376 441.973l-25.2-21.145c8.468-13.171 22.215-33.095 41.669-57.013 7.993-5.08 22.895-13.78 42.437-21.785-5.204 23.831-12.415 41.835-15.327 48.582a1368 1368 0 0 0-43.579 51.361m62.106-117.291a294 294 0 0 0-18.573 7.643 808 808 0 0 1 20.269-21.547 247 247 0 0 1-1.696 13.904M57.731 422.031a3.45 3.45 0 0 1-2.414 1.633 3.44 3.44 0 0 1-2.808-.771l-20.778-17.434a3.466 3.466 0 0 1-.505-4.819c15.85-20.146 68.132-84.82 124.791-135.841a645.885 645.885 0 0 1 7.723-6.842q.277 3.13.708 6.312c1.114 8.183 1.635 16.309 1.697 24.271-61.434 60.538-96.263 113.479-108.414 133.491m73.272 61.483a3.45 3.45 0 0 1-2.414 1.633 3.45 3.45 0 0 1-2.808-.77l-20.778-17.435a3.466 3.466 0 0 1-.506-4.819c20.209-25.687 91.486-113.517 160.182-165.21 24.411-18.369 64.231-54.676 119.243-124.842-24.786 45.934-62.377 103.141-113.936 149.254-80 71.55-123.846 137.259-138.983 162.189m343.112-226.64c-3.743 4.722-5.483 10.582-4.9 16.502 2.661 26.995-17.248 41.342-29.353 47.491-6.784 3.447-11.657 9.692-13.368 17.134-3.258 14.169-13.675 22.855-30.963 25.814-10.402 1.781-18.308 10.201-19.226 20.476-.993 11.11-7.871 22.207-18.4 29.683-14.885 10.569-35.671 13.217-58.523 7.458-16.245-4.094-33.828-5.945-52.434-5.554a799 799 0 0 1 21.865-23.966c12.792-3.185 26.483-5.433 40.621-5.988 31.852-1.251 58.177-13.088 74.125-33.332 12.064-15.313 17.223-34.684 13.803-51.818-.891-4.462 1.512-9.06 5.841-11.181 23.805-11.667 36.149-30.824 34.757-53.941-.239-3.979 1.274-7.818 4.151-10.531 4.65-4.385 11.504-11.801 16.999-21.651a34.07 34.07 0 0 1 16.681 13.174c8.241 12.401 7.568 28.568-1.676 40.23"/></svg>