<svg xmlns="http://www.w3.org/2000/svg" width="512" height="512"><path fill="#1ca56f" d="M133.664 154.28s-29.646-19.453-23.642-52.235c.811-4.428 4.581-7.714 9.069-8.067a10.07 10.07 0 0 0 7.352-4.129c7.8-10.72 32.33-40.108 60.956-30.701 0 0 10.523-25.236 49.029-27.79s85.673 47.101 47.186 129.759c-51.62 110.866-166.9 70.348-149.95-6.837"/><path fill="#158f5e" d="M283.615 161.114c-4.545 9.771-9.591 18.36-14.997 25.859-76.845-4.765-101.603-85.575-49.615-120.083 2.743-1.822 4.385-4.895 4.315-8.189-.12-6.007.551-16.288 5.226-26.449a81 81 0 0 1 7.889-.891c38.503-2.554 85.665 47.101 47.182 129.753"/><path fill="#a3e440" d="M245.898 75.644s-5.223-35.072 23.233-52.418c3.844-2.343 8.806-1.718 12.057 1.396a10.07 10.07 0 0 0 7.975 2.736c13.192-1.317 51.451-2.582 63.492 25.04 0 0 25.836-8.951 53.379 18.08s21.897 95.283-65.401 121.601c-117.089 35.299-163.611-77.693-94.735-116.435"/><path fill="#99d53b" d="M376.058 176.802c24.657-29.833 20.933-65.623 2.763-83.463-16.648-16.328-32.656-19.522-42.737-19.502-6.227.02-12.164-2.763-16.188-7.518-15.557-18.39-46.472-17.249-57.994-16.088-.33.03-.661.05-.991.05a10.05 10.05 0 0 1-6.938-2.793 9.96 9.96 0 0 0-3.804-2.283c3.394-7.989 9.2-16.028 18.961-21.974 3.844-2.353 8.81-1.722 12.063 1.392a10 10 0 0 0 6.938 2.783c.34 0 .691-.01 1.031-.05 13.195-1.311 51.457-2.583 63.491 25.038 0 0 25.839-8.95 53.379 18.08 23.195 22.775 22.855 74.763-29.974 106.328"/><path fill="#d2f0a2" d="M192.772 471.389c-33.435-7.432-53.913-41.22-46.162-74.582l.182-.787c6.038-26.298 9.851-58.425 5.4-91.128-9.184-67.476 32.611-102.105 66.552-101.341 8.815.198 16.509-5.836 18.955-14.307 4.699-16.271 16.243-38.455 44.42-41.709 6.653-.768 12.675-4.298 16.342-9.903 9.986-15.265 33.859-42.551 73.217-34.17 4.825 1.028 9.901.21 14.07-2.428 18.743-11.857 43.736-10.867 61.634 4.152 0 0 57.117 21.764 57.117 148.926 0 135.941-106.757 262.839-311.727 217.277"/><path fill="#bcea73" d="M504.501 254.118c0 103.946-62.429 202.615-183.474 222.908 97.568-32.046 147.724-120.974 147.724-214.158 0-127.161-57.124-148.926-57.124-148.926a52.15 52.15 0 0 0-27.671-11.913c.611-.29 1.211-.621 1.792-.991 18.741-11.863 43.739-10.872 61.639 4.145 0-.001 57.114 21.763 57.114 148.935"/><path fill="#ecf8d9" d="M256.954 476.629c5.276-.13 10.462-.33 15.557-.591 15.928-27.38 48.854-66.103 114.547-118.872 89.009-71.479 75.764-147.144 54.601-192.474-2.723-5.816-11.473-2.713-10.021 3.544 17.99 77.266-26.419 132.307-107.81 187.388-81.34 55.041-102.424 84.754-102.424 84.754-.801 20.083 15.458 36.752 35.55 36.251"/><path fill="#bcea73" d="M288.253 490.18c20.087.5 36.345-16.171 35.542-36.248-.284-7.1-.356-14.86-.09-23.093.873-26.968 5.387-59.005 18.037-89.488 26.101-62.897-5.472-107.046-38.484-114.971-8.542-2.051-14.48-9.801-14.674-18.584-.376-16.994-5.886-41.569-32.587-51.861a22.03 22.03 0 0 1-12.98-13.6c-5.749-17.298-21.86-49.815-62.078-51.761-5.037-.244-9.737-2.476-13.19-6.151-15.112-16.082-39.408-21.413-60.454-11.503 0 0-84.57 45.967-97.833 152.847-12.449 100.326 27.191 258.15 278.791 264.413"/><path fill="#99d53b" d="M323.71 430.844c-.27 8.229-.2 15.988.09 23.086.801 20.082-15.457 36.751-35.55 36.25-.821-.02-1.642-.04-2.463-.07a34.8 34.8 0 0 0 3.564-16.839c-.29-7.098-.36-14.866-.09-23.096.871-26.97 5.386-59.006 18.03-89.489 26.099-62.9-5.466-107.049-38.483-114.968-8.54-2.052-14.476-9.801-14.676-18.581-.37-16.999-5.886-41.576-32.586-51.868a22.02 22.02 0 0 1-12.974-13.595c-5.756-17.299-21.864-49.815-62.079-51.768-5.036-.24-9.741-2.473-13.195-6.147-12.103-12.884-30.103-18.871-47.603-15.637 12.604-10.311 21.604-15.207 21.604-15.207 21.043-9.901 45.34-4.575 60.447 11.513 3.454 3.674 8.159 5.907 13.195 6.147 40.215 1.942 56.333 34.458 62.079 51.757a22.03 22.03 0 0 0 12.974 13.605c26.7 10.291 32.216 34.869 32.586 51.858.2 8.78 6.137 16.538 14.676 18.581 33.017 7.929 64.592 52.078 38.483 114.978-12.643 30.484-17.158 62.52-18.029 89.49"/><path fill="#e3f5c7" d="M288.25 490.18c-5.276-.13-10.462-.33-15.557-.591-15.928-27.38-48.854-66.103-114.547-118.872-89.009-71.479-75.764-147.144-54.601-192.474 2.723-5.816 11.473-2.713 10.021 3.544-17.99 77.266 26.419 132.307 107.81 187.388C302.716 424.217 323.8 453.93 323.8 453.93c.801 20.082-15.457 36.751-35.55 36.25"/><path d="M504.494 181.932a7.501 7.501 0 0 0-14.601 3.441c4.715 20.001 7.106 43.128 7.106 68.739 0 51.931-16.216 101.434-45.661 139.39-29.695 38.279-71.653 63.786-121.914 74.306a42.4 42.4 0 0 0 1.871-13.871q.001-.158-.005-.317a314 314 0 0 1-.088-22.539c.172-5.315.489-10.54.923-15.688 10.118-9.915 21.408-20.24 33.753-30.875 11.745-2.553 71.179-16.464 96.614-41.614a7.502 7.502 0 0 0-10.548-10.668c-9.962 9.85-28.711 19.519-54.22 27.96q-2.113.699-4.173 1.349c39.983-32.632 63.382-69.386 69.535-109.28 4.57-29.633-.352-60.164-14.634-90.755-2.833-6.052-9.47-8.861-15.78-6.678-6.353 2.197-9.861 8.547-8.34 15.104 8.531 36.641 2.927 69.085-18.646 100.859 1.068-19.401-1.606-46.34-17.009-75.484a7.5 7.5 0 0 0-10.136-3.127 7.5 7.5 0 0 0-3.127 10.136c23.677 44.802 13.523 84.433 11.176 92.123-8.842 9.446-19.151 18.911-30.968 28.488 5.791-24.339 3.79-47.512-6.041-66.821a77 77 0 0 0-10.873-16.016c11.563-40.507-.898-72.729-1.453-74.127a7.49 7.49 0 0 0-9.717-4.201c-3.847 1.516-5.738 5.868-4.233 9.719.108.276 9.607 25.236 2.763 57.293-6.509-4.569-13.641-7.914-21.059-9.695-5.133-1.232-8.804-5.943-8.926-11.456-.488-22.084-8.416-39.481-22.665-50.478 3-1.043 6.187-1.777 9.561-2.167 8.908-1.029 16.763-5.774 21.605-13.027q.013-.016.026-.033l.089-.132.039-.056c.084-.129.177-.264.263-.394.128-.192.256-.377.385-.577 9.906-14.745 31.003-37.15 64.73-29.969 6.865 1.463 13.84.246 19.642-3.425 16.563-10.477 37.782-9.046 52.803 3.558.64.538 1.296.937 2.077 1.235.047.019 4.816 1.988 11.353 7.869 6.078 5.468 14.966 15.529 22.79 32.4a7.501 7.501 0 0 0 13.61-6.312c-15.566-33.566-35.705-44.874-41.029-47.378a59.83 59.83 0 0 0-26.809-12.366c-2.896-8.218-7.463-15.56-13.266-21.257-22.38-21.964-44.13-22.597-54.619-21.206-6.771-10.99-18.27-18.61-33.621-22.197-13.789-3.222-27.615-2.528-34.63-1.827a2.58 2.58 0 0 1-2.041-.689c-5.737-5.496-14.435-6.476-21.15-2.384-4.422 2.695-8.124 5.749-11.246 9.008-6.03-1.687-12.091-2.351-18.049-1.955-31.28 2.074-46.235 17.875-52.186 26.631-13.248-2.372-27.093 1.534-40.529 11.459-12.808-2.99-26.566-1.738-39.117 4.171q-.197.093-.387.196c-.908.493-22.511 12.382-45.888 37.862-21.542 23.481-48.711 63.473-55.807 120.65-4.923 39.671-7.443 139.335 75.277 207.825a7.5 7.5 0 1 0 9.567-11.555C9.859 357.356 12.288 263.909 16.906 226.691c6.575-52.989 31.678-90.113 51.578-111.924 20.693-22.681 40.253-34.046 42.23-35.165 17.59-8.166 38.284-4.181 51.569 9.958 4.838 5.149 11.335 8.17 18.293 8.507 35.217 1.704 49.778 29.949 55.323 46.634a29.42 29.42 0 0 0 17.4 18.233c12.326 4.751 27.153 16.42 27.786 45.028.272 12.318 8.671 22.891 20.423 25.712 14.135 3.393 27.109 14.326 34.705 29.246 10.643 20.904 10.146 47.736-1.399 75.556-11.243 27.094-17.503 58.087-18.606 92.12-.04 1.224-.06 2.456-.086 3.686-4.658-4.628-10.685-10.281-18.365-16.933-1.834-2.031-13.344-15.25-21.352-35.568-11.446-29.035-10.711-58.254 2.182-86.842a7.5 7.5 0 0 0-13.675-6.167c-18.326 40.636-11.33 76.315-2.234 99.091.28.7.567 1.382.853 2.066-10.917-8.186-23.484-17.174-37.931-26.951-.875-.606-62.735-44.914-19.341-163.604a7.5 7.5 0 0 0-4.469-9.62 7.5 7.5 0 0 0-9.62 4.469c-24.583 67.236-16.861 112.586-6.054 138.791.14.34.286.664.428.999-7.256-5.996-13.868-11.905-19.883-17.776a7.5 7.5 0 0 0-10.479 10.735c16.058 15.673 36.007 31.51 60.989 48.416 41.091 27.806 66.231 48.861 80.085 61.628 10.816 9.968 16.609 16.554 19.034 19.5-.277 6.81-3.015 13.159-7.854 18.072-5.327 5.408-12.42 8.284-19.998 8.094-3.832-.095-7.62-.234-11.379-.402-20.513-33.509-58.909-72.984-114.218-117.412-72.61-58.309-75.116-119.059-59.973-164.735-3.651 35.364 5.75 67.804 28.486 98.644a7.5 7.5 0 0 0 12.074-8.902c-4.37-5.928-8.178-11.873-11.453-17.861-.107-3.105.219-12.846 2.588-25.435 2.278-12.103 7.042-29.885 16.807-45.871a7.501 7.501 0 0 0-12.802-7.82c-10.314 16.884-15.637 35.29-18.375 49.026-4.433-18.432-4.158-37.664.677-58.43 1.52-6.551-1.988-12.901-8.342-15.098-6.309-2.18-12.946.627-15.783 6.685-14.278 30.584-19.201 61.116-14.63 90.748 4.372 28.346 17.456 55.105 39 79.929-15.774-11.076-33.633-28.868-47.768-57.237a7.501 7.501 0 0 0-13.428 6.691c32.763 65.754 83.856 80.12 94.957 82.521 16.399 13.218 31.237 25.951 44.485 38.171-17.804-6.78-41.382-12.722-69.161-12.533a7.501 7.501 0 0 0 .045 15.002h.047c65.406-.378 105.737 34.91 107.234 36.257.025.025.052.045.077.07 8.062 9.195 15.007 18.014 20.81 26.439-57.028-4.537-104.96-17.942-142.774-39.988a7.5 7.5 0 0 0-10.257 2.702 7.5 7.5 0 0 0 2.702 10.258c43.133 25.147 98.386 39.577 164.399 42.979.071.002.141.014.213.014l.019-.001c5.056.258 10.167.46 15.348.589q.544.014 1.087.014c11.351 0 21.958-4.442 29.971-12.577.067-.068.129-.141.196-.21 59.631-9.323 109.371-37.735 143.87-82.207C494.666 362.125 512 309.356 512 254.113c0-26.768-2.526-51.053-7.506-72.181M173.216 79.288a60 60 0 0 0-12.858-10.377c8.575-4.315 16.848-5.216 24.7-2.636 3.721 1.223 7.729-.557 9.236-4.172.378-.859 9.65-21.072 42.63-23.259a37 37 0 0 1 7.718.314c-6.255 12.59-6.849 25.508-6.586 32.457-9.173 5.908-16.643 13.391-22.026 22.018-10.141-6.372-21.755-9.921-34.728-10.549-3.054-.149-5.925-1.497-8.086-3.796m57.187 26.309a77 77 0 0 0-2.515-2.585c4.85-8.387 12.269-15.533 21.687-20.831 2.695-1.516 4.179-4.556 3.745-7.617-.175-1.237-4.024-30.463 19.714-44.933.899-.547 2.146-.377 2.965.408a17.56 17.56 0 0 0 13.909 4.783c10.546-1.054 45.733-2.681 55.871 20.573 1.565 3.59 5.561 5.394 9.263 4.113.893-.29 22.148-6.828 45.738 16.323 2.813 2.761 5.23 6.102 7.168 9.837-9.097.89-18.074 3.881-26.209 9.028-2.435 1.54-5.532 2.061-8.498 1.43-13.74-2.925-25.783-1.895-36.153 1.35 3.238-6.782 5.695-14.478 6.466-22.96a7.5 7.5 0 0 0-6.791-8.149 7.5 7.5 0 0 0-8.149 6.791c-1.248 13.72-8.43 25.198-15.031 33.057-.853-9.697-4.416-20.166-12.583-30.284-5.493-6.804-8.588-13.883-10.217-18.624a7.5 7.5 0 1 0-14.187 4.877c2.897 8.43 7.3 16.442 12.731 23.17 18.058 22.371 5.299 44.359 3.237 47.597l-.379.574c-2.383 3.641-6.365 6.032-10.926 6.558-8.863 1.024-16.88 3.809-23.893 8.255a14.45 14.45 0 0 1-7.23-8.368c-3.096-9.315-9.032-22.839-19.733-34.373m195.158 161.549c14.21-25.423 19.762-51.924 16.793-80.503 15.121 45.674 12.582 106.393-59.992 164.675-17.348 13.935-33.166 27.508-47.236 40.521 2.659-15.379 6.606-29.855 11.825-43.31 38.253-28.029 63.259-53.917 78.61-81.383"/><path d="M157.574 174.724a7.5 7.5 0 0 0 10.087-3.284 78 78 0 0 0 3.218-7.222 7.5 7.5 0 0 0-13.991-5.411 63 63 0 0 1-2.595 5.829 7.5 7.5 0 0 0 3.281 10.088M214.145 266.811c-4.127-.226-7.664 2.965-7.879 7.102-.038.724-.861 17.995 4.329 39.758a7.501 7.501 0 1 0 14.592-3.48c-4.662-19.549-3.948-35.354-3.94-35.511a7.5 7.5 0 0 0-7.102-7.869M109.215 389.096a7.5 7.5 0 0 0 6.786-4.298 7.5 7.5 0 0 0-3.577-9.986c-16.002-7.562-27.432-18.367-27.545-18.476a7.502 7.502 0 0 0-10.371 10.84c.531.508 13.211 12.554 31.506 21.199a7.5 7.5 0 0 0 3.201.721M387.267 139.212c-3.356 2.402-4.129 7.081-1.744 10.449.071.101 7.174 10.297 9.676 27.894a7.503 7.503 0 0 0 8.483 6.37 7.5 7.5 0 0 0 6.37-8.482c-3.058-21.508-11.975-34.024-12.353-34.546-2.421-3.344-7.076-4.088-10.432-1.685M59.319 177.364a7.504 7.504 0 0 0-8.93 5.726c-8.329 38.103-1.047 70.202-.733 71.549a7.497 7.497 0 0 0 8.996 5.601c4.032-.934 6.545-4.962 5.616-8.996-.069-.299-6.799-30.294.777-64.951a7.5 7.5 0 0 0-5.726-8.929M270.944 125.607a7.5 7.5 0 0 0 7.501-7.501v-4.353c0-4.143-3.358-7.501-7.501-7.501s-7.501 3.358-7.501 7.501v4.353a7.5 7.5 0 0 0 7.501 7.501"/></svg>