<svg xmlns="http://www.w3.org/2000/svg" width="512" height="512"><path fill="#a3e440" d="M408.121 233.833c2.734-2.047 6.407-2.434 9.516-1.021a30.3 30.3 0 0 0 7.967 2.365c14.471 2.211 28.111-6.185 33.031-19.381a9.45 9.45 0 0 1 6.371-5.797c15.401-4.18 27.607-17.261 29.755-34.216 2.665-21.032-11.549-40.836-32.334-45.012-10.212-2.052-20.21-.115-28.474 4.679-2.943 1.708-6.576 1.867-9.545.204a32 32 0 0 0-14.326-4.057c-15.023-.642-28.074 9.134-32.179 22.917-.845 2.838-3.03 5.063-5.777 6.168-8.846 3.56-15.636 11.564-17.181 21.673-1.471 9.629 2.174 18.854 8.9 24.928l-.002.011c-2.326 15.227 8.132 29.457 23.359 31.784 7.7 1.177 15.141-.918 20.919-5.245"/><path fill="#8dc637" d="M458.634 215.793c-4.913 13.203-18.559 21.599-33.034 19.382a30.4 30.4 0 0 1-7.963-2.362c-3.108-1.408-6.778-1.022-9.511 1.02-5.779 4.331-13.222 6.426-20.919 5.248-11.855-1.818-20.817-10.838-23.109-21.926a28 28 0 0 0 6.191 1.685c7.697 1.178 15.14-.917 20.919-5.248 2.733-2.042 6.402-2.428 9.511-1.02a30.7 30.7 0 0 0 7.972 2.369c14.467 2.209 28.112-6.187 33.026-19.39a9.45 9.45 0 0 1 6.377-5.794c15.401-4.178 27.608-17.26 29.755-34.209a40.1 40.1 0 0 0-2.442-19.704c13.37 8.129 21.418 23.672 19.35 39.938-2.138 16.957-14.345 30.039-29.746 34.217a9.45 9.45 0 0 0-6.377 5.794"/><path fill="#0f7a4f" d="M320.083 265.059a7.74 7.74 0 0 1 6.471 4.461 25 25 0 0 0 3.693 5.74c7.825 9.128 20.814 11.206 30.945 5.626a7.76 7.76 0 0 1 7.071-.196c11.827 5.647 26.433 4.04 36.851-5.365 12.924-11.667 14.682-31.609 3.979-45.342-5.259-6.747-12.521-10.896-20.233-12.338-2.747-.513-5.094-2.36-6.051-4.985a26.3 26.3 0 0 0-6.746-10.199c-9.009-8.446-22.37-9.351-32.308-2.968-2.046 1.314-4.598 1.529-6.9.746-7.414-2.522-15.929-1.175-22.305 4.291-6.073 5.207-8.746 12.902-7.811 20.286l-.007.006c-9.604 8.234-10.715 22.695-2.481 32.299 4.163 4.856 9.918 7.536 15.832 7.938"/><path fill="#0c6842" d="M405.115 275.319c-10.416 9.41-25.023 11.014-36.846 5.369-2.255-1.067-4.9-1.007-7.079.195-10.131 5.585-23.118 3.507-30.94-5.621a25 25 0 0 1-3.7-5.745 7.73 7.73 0 0 0-6.475-4.458 22.8 22.8 0 0 1-15.825-7.938c-5.268-6.146-6.714-14.274-4.547-21.486 3.671 2.901 8.071 4.522 12.568 4.83 2.798.187 5.29 1.919 6.475 4.458a24.6 24.6 0 0 0 3.691 5.737c7.821 9.128 20.809 11.205 30.932 5.63a7.76 7.76 0 0 1 7.079-.195c11.823 5.646 26.43 4.041 36.846-5.369 6.471-5.835 10.135-13.741 10.849-21.903.327.379.637.76.949 1.157 10.705 13.737 8.942 33.679-3.977 45.339"/><path fill="#a3e440" d="M210.645 85.45c.522 3.859-1.13 7.734-4.264 10.047a34.5 34.5 0 0 0-6.778 6.625c-10.234 13.19-9.44 31.438.977 43.663a10.77 10.77 0 0 1 2.239 9.564c-4.383 17.664 1.875 37.083 17.574 48.633 19.474 14.327 47.092 11.157 62.788-7.232 7.711-9.035 11.331-20.071 11.141-30.964-.068-3.88 1.789-7.588 5.094-9.622a36.5 36.5 0 0 0 11.992-12.021c8.977-14.61 6.481-33.038-4.972-44.777-2.358-2.417-3.362-5.828-2.939-9.178 1.363-10.788-2.843-21.996-12.057-29.144-8.776-6.809-19.99-8.298-29.774-4.968l-.01-.008c-13.879-10.768-33.859-8.247-44.628 5.632-5.444 7.016-7.486 15.592-6.383 23.75"/><path fill="#8dc637" d="M292.526 179.421c-9.842.682-19.657-3.264-26.273-10.915-3.113-3.602-7.085-6.395-11.432-8.347-6.267-2.828-14.549-7.438-17.749-13.153-5.715-10.226-5.192-22.237.338-31.652 1.697-2.881 2.036-6.377.818-9.484-5.954-15.286-1.063-33.218 12.911-43.168a36.3 36.3 0 0 1 15.545-6.352 11.34 11.34 0 0 0 4.843-1.982 31.7 31.7 0 0 1 19.915 6.675c9.214 7.146 13.416 18.353 12.052 29.149-.425 3.349.583 6.76 2.939 9.172 11.451 11.739 13.953 30.173 4.97 44.776a36.4 36.4 0 0 1-11.991 12.02c-3.304 2.043-5.166 5.745-5.095 9.63a46.3 46.3 0 0 1-1.791 13.631"/><path fill="#0f7a4f" d="M422.886 146.15c2.098-2.547 5.458-3.75 8.7-3.134a29.3 29.3 0 0 0 8.021.399c14.091-1.233 24.977-12.233 26.578-25.746a9.13 9.13 0 0 1 4.656-6.899c13.503-7.446 21.971-22.517 20.112-38.925-2.307-20.354-20.179-35.696-40.647-34.865-10.056.409-19 4.513-25.662 10.903-2.373 2.276-5.747 3.257-8.914 2.373a30.9 30.9 0 0 0-14.377-.533c-14.25 2.832-24.268 14.993-24.971 28.871-.145 2.857-1.687 5.446-4.013 7.111-7.49 5.364-12.036 14.432-11.174 24.275.82 9.376 6.351 17.204 14.054 21.368l.001.011c1.297 14.827 14.369 25.795 29.196 24.498 7.498-.656 14.004-4.324 18.44-9.707"/><path fill="#0c6842" d="M439.61 143.413a29.1 29.1 0 0 1-8.02-.399 9.13 9.13 0 0 0-8.706 3.135 26.86 26.86 0 0 1-18.44 9.713c-12.264 1.065-23.337-6.262-27.527-17.232 3.087.88 6.38 1.228 9.763.932a26.83 26.83 0 0 0 18.44-9.713 9.1 9.1 0 0 1 8.699-3.126 29.6 29.6 0 0 0 8.02.399c14.092-1.241 24.981-12.234 26.581-25.743a9.13 9.13 0 0 1 4.657-6.908c13.501-7.437 21.969-22.517 20.109-38.928a38.95 38.95 0 0 0-4.907-14.978c12.115 5.62 21.085 17.258 22.671 31.279 1.86 16.411-6.601 31.482-20.109 38.928a9.14 9.14 0 0 0-4.658 6.892c-1.599 13.524-12.489 24.517-26.573 25.749"/><path fill="#bcea73" d="M42.851 502.248 21.27 484.139c-5.153-4.324-5.825-12.006-1.501-17.159l7.453-8.882a6.92 6.92 0 0 0 1.574-5.305c-1.528-12.385-3.811-62.539 49.157-112.168 61.031-57.184 230.183-204.476 230.183-204.476l49.404 41.455S192.968 407.306 116.519 476.53c-12.899 11.68-35.805 12.157-45.12 11.816a8.6 8.6 0 0 0-6.898 3.07l-8.094 9.646a9.62 9.62 0 0 1-13.556 1.186"/><path fill="#99d53b" d="M116.517 476.527c-12.893 11.682-35.804 12.153-45.123 11.819a8.59 8.59 0 0 0-6.893 3.066l-8.095 9.648c-3.412 4.067-9.483 4.598-13.55 1.185l-21.584-18.111a16 16 0 0 1-.94-.864 9.62 9.62 0 0 0 12.677-1.843l8.095-9.648a8.56 8.56 0 0 1 6.902-3.059c9.319.335 32.222-.144 45.123-11.819 76.446-69.224 241.02-298.928 241.02-298.928l23.389 19.625c-.001.002-164.574 229.706-241.021 298.929"/><path fill="#79a72d" d="M305.641 177.549c-56.992 48.01-184.109 166.076-201.767 200.188-24.999 48.293-18.407 62.729-18.407 62.729s154.632-152.233 234.424-250.961z"/><path fill="#5bbd93" d="M344.752 231.683c3.408-1.885 7.618-1.749 10.909.333a34.5 34.5 0 0 0 8.631 3.917c16.002 4.759 32.722-2.594 40.341-16.732a10.78 10.78 0 0 1 8.103-5.553c18.051-2.316 33.883-15.186 38.959-34.003 6.296-23.342-6.666-47.935-29.493-55.899-11.215-3.913-22.813-3.287-32.897.837-3.592 1.469-7.721 1.082-10.814-1.261a36.5 36.5 0 0 0-15.549-6.821c-16.87-3.073-33.141 5.931-39.932 20.86-1.398 3.074-4.214 5.246-7.489 6.065-10.548 2.639-19.471 10.621-22.795 21.798-3.166 10.647-.491 21.638 6.159 29.551l-.004.012c-5.007 16.838 4.583 34.547 21.421 39.554 8.513 2.531 17.246 1.326 24.45-2.658"/><path fill="#1ca56f" d="M412.737 213.642a10.79 10.79 0 0 0-8.102 5.562c-7.621 14.141-24.343 21.485-40.346 16.727a34.8 34.8 0 0 1-8.629-3.911 10.73 10.73 0 0 0-10.91-.334c-7.196 3.982-15.932 5.187-24.441 2.652-14.194-4.215-23.24-17.461-22.723-31.592a31.6 31.6 0 0 0 11.649 6.354c8.509 2.535 17.245 1.33 24.441-2.652a10.73 10.73 0 0 1 10.91.334 34.8 34.8 0 0 0 8.629 3.911c16.003 4.758 32.733-2.595 40.346-16.727a10.78 10.78 0 0 1 8.102-5.562c18.052-2.313 33.884-15.175 38.957-34.003a45.9 45.9 0 0 0 1.283-17.224c9.776 11.339 13.91 27.167 9.791 42.462-5.074 18.829-20.906 31.69-38.957 34.003"/><path fill="#2db181" d="M350.051 143.127c1.027-3.757 4.061-6.678 7.848-7.585a34.6 34.6 0 0 0 8.827-3.452c14.572-8.147 20.966-25.256 16.15-40.578a10.78 10.78 0 0 1 1.673-9.679c10.932-14.55 12.754-34.871 2.811-51.634-12.334-20.794-38.997-28.66-60.627-17.859-10.627 5.307-18.268 14.053-22.347 24.156-1.453 3.598-4.61 6.287-8.447 6.869a36.5 36.5 0 0 0-15.734 6.384c-13.969 9.945-18.867 27.884-12.907 43.163 1.227 3.146.82 6.678-.878 9.597-5.467 9.399-5.971 21.36-.281 31.539 5.42 9.696 15.163 15.445 25.47 16.2l.006.011c8.572 15.333 27.951 20.814 43.284 12.242 7.754-4.336 12.982-11.434 15.152-19.374"/><path fill="#1ca56f" d="M357.903 135.546c-3.787.902-6.827 3.827-7.852 7.587-2.169 7.93-7.396 15.035-15.157 19.368-13.802 7.725-30.886 4.04-40.411-7.973a31.6 31.6 0 0 0 15.534-4.051c7.761-4.333 12.98-11.429 15.157-19.368 1.025-3.76 4.064-6.685 7.851-7.587a35 35 0 0 0 8.825-3.456c14.573-8.143 20.963-25.251 16.148-40.572a10.77 10.77 0 0 1 1.673-9.681c10.937-14.554 12.757-34.867 2.815-51.64a45.6 45.6 0 0 0-8.153-10.127c13.358 2.029 25.711 9.814 33.03 22.151 9.933 16.765 8.122 37.086-2.815 51.64a10.77 10.77 0 0 0-1.673 9.681c4.815 15.321-1.575 32.429-16.148 40.572a35 35 0 0 1-8.824 3.456"/><path d="M472.002 125.818a36.5 36.5 0 0 0 1.629-7.265c.06-.501.378-.967.83-1.216 16.692-9.204 26.091-27.392 23.943-46.338-1.163-10.26-5.816-20.002-13.102-27.431a7.5 7.5 0 1 0-10.709 10.502c5.027 5.127 8.107 11.566 8.907 18.619 1.46 12.885-4.931 25.254-16.281 31.512a16.65 16.65 0 0 0-8.483 12.585 21.5 21.5 0 0 1-1.513 5.768 47.9 47.9 0 0 0-17.586 2.214 53.3 53.3 0 0 0-14.965-8.105c-.191-.067-.384-.122-.575-.186 27.152-18.425 42.065-42.795 42.835-44.075a7.495 7.495 0 0 0-2.553-10.284 7.504 7.504 0 0 0-10.294 2.541c-.12.198-7.023 11.428-19.661 23.875.382-2.967.607-6.14.606-9.497a7.5 7.5 0 0 0-7.5-7.497h-.004a7.5 7.5 0 0 0-7.496 7.503c.006 13.361-4.512 23.009-6.282 26.275-5.41 3.537-11.313 6.767-17.685 9.411a54 54 0 0 0-6.824 1.873c3.21-8.567 3.675-18.168.792-27.34a3.26 3.26 0 0 1 .514-2.926c6.469-8.609 10.065-18.662 10.734-28.899a24 24 0 0 1 1.536-.36 23.3 23.3 0 0 1 10.899.402c5.621 1.567 11.796-.037 16.12-4.185a31.6 31.6 0 0 1 16.848-8.414 7.5 7.5 0 0 0 6.191-8.612 7.5 7.5 0 0 0-8.611-6.192 46.54 46.54 0 0 0-24.811 12.392c-.51.489-1.177.708-1.707.562-5.696-1.589-11.783-1.827-17.621-.704a54.2 54.2 0 0 0-6.312-15.955c-14.347-24.188-45.284-33.3-70.428-20.743-11.81 5.898-21.027 15.862-25.952 28.058-.494 1.225-1.496 2.091-2.615 2.261-6.879 1.043-13.258 3.63-18.96 7.689a45 45 0 0 0-4.037 3.252 39.3 39.3 0 0 0-8.778 1.002c-7.669-4.829-16.694-6.844-25.803-5.692-10.417 1.314-19.698 6.606-26.134 14.902-6.514 8.394-9.316 18.819-7.891 29.354.154 1.137-.351 2.317-1.286 3.007a42 42 0 0 0-8.249 8.061c-12.171 15.687-11.669 38.029 1.194 53.125.672.789.922 1.871.668 2.894-5.095 20.534 2.169 41.871 18.54 55.036a17695 17695 0 0 0-46.036 40.67 7.5 7.5 0 0 0 9.952 11.222c39.877-35.364 81.118-71.527 106.687-93.89a39.16 39.16 0 0 0 .717 18.434c-52.351 45.5-169.994 154.129-188.187 189.274-10.743 20.754-17.247 38.177-19.331 51.787-.842 5.5-.82 9.512-.497 12.353l-8.263 9.848a7.5 7.5 0 0 0 5.742 12.32c2.14 0 4.266-.911 5.749-2.679l10.371-12.36c2.62-2.584 26.053-25.729 57.947-58.289a7.5 7.5 0 0 0-10.716-10.496 5661 5661 0 0 1-44.007 44.438c2.261-8.906 6.928-21.872 16.326-40.026 14.469-27.952 113.017-122.135 179.655-180.446a39 39 0 0 0 .827 11.672c-32.431 37.859-75.314 84.398-127.509 138.377a7.5 7.5 0 1 0 10.783 10.426c50.03-51.74 91.573-96.711 123.626-133.822a39.2 39.2 0 0 0 8.001 7.994c-52.364 70.408-143.579 189.536-194.432 235.583-11.167 10.112-33.301 10.12-39.811 9.88-5.001-.175-9.701 1.911-12.917 5.745l-8.094 9.645a2.124 2.124 0 0 1-2.99.262l-21.581-18.11c-.958-.803-1.545-1.932-1.654-3.177s.273-2.458 1.077-3.415l7.454-8.883a14.48 14.48 0 0 0 3.272-11.043c-1.605-13.015-2.971-59.105 46.841-105.777 14.952-14.01 37.8-34.737 67.91-61.605a7.5 7.5 0 0 0-9.987-11.191c-30.2 26.949-53.138 47.759-68.178 61.851-54.67 51.224-53.314 103.188-51.503 118.31l-7.299 8.698a19.55 19.55 0 0 0-4.529 14.365 19.55 19.55 0 0 0 6.955 13.36l21.581 18.109a17 17 0 0 0 10.976 4.007q.758 0 1.522-.066a17.01 17.01 0 0 0 11.624-6.051l8.095-9.646c.221-.264.531-.401.877-.396 29.458 1.077 44.245-8.153 50.429-13.751 46.92-42.486 126.773-144.977 180.564-216.567 4.894 4.118 10.941 6.577 17.458 7.02.054.003.142.062.174.131a32.4 32.4 0 0 0 4.804 7.468c9.951 11.607 26.881 14.682 40.259 7.313a.27.27 0 0 1 .22.003 41 41 0 0 0 17.682 4.021c9.922 0 19.713-3.624 27.426-10.587 11.042-9.968 15.419-24.83 12.625-38.621.567.113 1.133.233 1.706.321 1.899.29 3.792.431 5.671.431 15.568-.001 29.964-9.702 35.52-24.607a1.96 1.96 0 0 1 1.309-1.178c18.935-5.14 32.764-21.042 35.23-40.511 2.798-22.097-10.093-42.986-30.201-50.907m-79.858 5.706c8.784-3.593 18.58-3.841 27.587-.697 19.149 6.682 30.01 27.267 24.722 46.865-4.128 15.307-16.953 26.5-32.672 28.517-5.83.748-10.971 4.274-13.751 9.434-6.056 11.237-19.347 16.745-31.6 13.102a27.2 27.2 0 0 1-6.76-3.066 18.2 18.2 0 0 0-18.549-.558c-5.752 3.183-12.384 3.904-18.682 2.031-10.956-3.258-17.903-13.599-17.344-24.541 2.017.066 4.419.114 7.165.114 4.953 0 10.996-.157 17.767-.644 4.777 4.373 15.424 12.886 29.941 17.228.718.214 1.44.316 2.152.316a7.5 7.5 0 0 0 2.147-14.687c-4.665-1.395-8.857-3.361-12.448-5.432 20.714-3.45 44.063-10.392 63.555-24.051 3.393-2.377 4.216-7.054 1.839-10.446s-7.054-4.217-10.446-1.838c-7.76 5.438-16.32 9.688-25.116 13.006 4.187-5.472 8.457-12.093 12.343-20.025a7.5 7.5 0 0 0-3.436-10.035 7.5 7.5 0 0 0-10.035 3.435c-10.614 21.664-24.425 32.01-28.22 34.562-22.245 4.021-41.936 3.706-49.498 3.374a24.24 24.24 0 0 1-3.237-18.818 39.6 39.6 0 0 0 19.875 5.367 39.1 39.1 0 0 0 19.115-4.991c9.274-5.186 15.925-13.688 18.726-23.943.303-1.107 1.228-1.996 2.359-2.267a42 42 0 0 0 10.741-4.2 41.7 41.7 0 0 0 8.827-6.603c4.132 1.342 8.737 1.208 12.933-.509M284.555 55.857c3.769-2.683 7.976-4.391 12.51-5.079 6.337-.961 11.808-5.359 14.275-11.475 3.554-8.799 10.21-15.992 18.744-20.254 18.144-9.06 40.471-2.483 50.826 14.975 8.088 13.636 7.163 30.634-2.356 43.303a18.3 18.3 0 0 0-2.832 16.433c3.827 12.177-1.495 25.543-12.655 31.782a27.1 27.1 0 0 1-6.911 2.705 18.21 18.21 0 0 0-13.339 12.9l-.001.002c-1.731 6.34-5.843 11.598-11.576 14.803-10.871 6.077-24.45 2.881-31.594-7.038 1.263-4.922 4.412-15.831 10.467-29.572l27.946-10.556a7.5 7.5 0 1 0-5.301-14.032l-12.719 4.804c9.305-16.433 22.325-34.441 40.264-50.372a7.5 7.5 0 0 0 .627-10.588 7.5 7.5 0 0 0-10.588-.628c-12.748 11.321-23.164 23.526-31.646 35.557l-2.32-6.359a7.5 7.5 0 0 0-14.092 5.143l6.222 17.051c-12.972 22.14-19.575 41.95-22.432 52.169a24.23 24.23 0 0 1-13.388-11.145c-4.174-7.464-4.09-16.702.217-24.107 2.915-5.01 3.419-10.876 1.383-16.095-4.857-12.448-.633-26.565 10.269-34.327m-59.717 142.084c-12.77-9.395-18.556-25.405-14.739-40.786a18.29 18.29 0 0 0-3.81-16.235c-8.278-9.715-8.598-24.099-.76-34.201a27 27 0 0 1 5.308-5.189 18.2 18.2 0 0 0 7.241-17.086c-.881-6.515.851-12.959 4.877-18.148 3.98-5.13 9.72-8.402 16.161-9.215 6.425-.81 12.789.924 17.914 4.889a7.5 7.5 0 0 0 3.321 1.486 44.04 44.04 0 0 0-.04 32.181c.359.921.22 2.08-.374 3.101-6.96 11.967-7.092 26.899-.344 38.969a39.2 39.2 0 0 0 16.937 16.078 24608 24608 0 0 0-18.748 16.411c-6.593-10.975-17.921-34.149-14.961-59.98a7.5 7.5 0 0 0-6.597-8.305 7.494 7.494 0 0 0-8.305 6.597c-3.706 32.334 10.978 60.075 18.402 71.736-6.568 5.762-13.52 11.867-20.74 18.215-.247-.173-.501-.34-.743-.518m175.252 71.816c-7.843 7.08-19.067 8.713-28.594 4.165a15.27 15.27 0 0 0-13.923.395c-7.184 3.959-16.282 2.302-21.632-3.937a17.4 17.4 0 0 1-2.582-4.012 15.21 15.21 0 0 0-12.768-8.791 15.26 15.26 0 0 1-9.45-4.098c2.968-3.973 5.833-7.819 8.586-11.526 9.712 2.469 19.827 1.177 28.654-3.706 1.004-.557 2.287-.513 3.27.108a42.1 42.1 0 0 0 10.503 4.768 41.7 41.7 0 0 0 11.91 1.733c10.525-.001 20.73-3.972 28.489-11.017.21.25.424.497.626.755 8.306 10.656 6.949 26.102-3.089 35.163m87.231-94.915c-1.7 13.419-11.229 24.378-24.278 27.92a16.96 16.96 0 0 0-11.434 10.415c-3.758 10.08-14.224 16.216-24.871 14.587a22.9 22.9 0 0 1-5.997-1.779 16.8 16.8 0 0 0-6.464-1.497 41 41 0 0 0-2.32-2.598 3.27 3.27 0 0 1 1.733-.804c21.769-2.793 39.529-18.293 45.246-39.488 4.183-15.506 1.059-31.452-7.324-44.009a33.5 33.5 0 0 1 9.338.536c16.965 3.408 28.548 19.536 26.371 36.717"/></svg>