<svg xmlns="http://www.w3.org/2000/svg" width="512" height="512"><path fill="#ae6ad8" d="M89.592 375.115c-28.94-50.667-84.892-123.996-44.795-227.2C82.773 50.17 205.666 45.195 258.649 9.202c4.78-3.247 11.318-1.704 14.231 3.287 17.587 30.13 64.672 127.185 17.683 237.308C244.171 358.521 152.44 410.498 120.5 425.85c-5.686 2.733-12.436-.398-14.051-6.496-3.099-11.707-8.769-30.079-16.857-44.239"/><g fill="#975bbb"><path d="M309.724 174.828c-2.24 23.801-8.09 49.021-19.161 74.972C244.172 358.522 152.44 410.493 120.5 425.853c-5.69 2.73-12.44-.4-14.05-6.5-2-7.54-5.06-17.85-9.15-28.021-5.55-50.531-1.87-110.222 49.611-166.694 44.44-48.74 106.991-51.14 162.813-49.81"/><path d="M272.877 12.488c17.594 30.133 64.672 127.189 17.683 237.311-46.389 108.718-138.117 160.703-170.059 176.057-5.689 2.731-12.439-.4-14.052-6.506-1.596-6.043-3.883-13.852-6.839-21.958 40.692-23.264 111.388-74.521 150.258-165.606 38.338-89.859 14.047-171.02-5.751-214.207 5.271-2.63 10.14-5.394 14.536-8.379 4.773-3.245 11.315-1.7 14.224 3.288"/></g><path fill="#bc83df" d="M138.945 446.004c-8.736-57.692-34.503-146.258 40.093-228.077 70.649-77.491 187.077-37.844 249.471-52.325 5.629-1.306 11.172 2.489 12.091 8.194 5.548 34.443 14.492 141.945-69.025 227.735-82.456 84.7-186.755 100.127-222.081 102.936-6.289.5-11.457-4.853-10.765-11.123 1.326-12.036 2.657-31.217.216-47.34"/><path fill="#ae6ad8" d="M440.596 173.793c5.552 34.449 14.491 141.949-69.026 227.738-82.452 84.695-186.75 100.131-222.079 102.942-6.291.497-11.459-4.856-10.764-11.133.689-6.212 1.37-14.321 1.534-22.947 46.341-7.036 130.76-29.372 199.842-100.329 68.145-70.005 74.734-154.466 71.83-201.887 5.865-.554 11.402-1.377 16.578-2.577 5.624-1.306 11.169 2.492 12.085 8.193"/><path d="M140.962 219.254a7.5 7.5 0 0 0 3.032.644 7.5 7.5 0 0 0 3.04-14.36l-35.493-15.711a7.5 7.5 0 1 0-6.073 13.716zM270.059 146.463a7.5 7.5 0 0 0 3.04-14.36l-48.985-21.684a7.5 7.5 0 1 0-6.073 13.716l48.985 21.684a7.5 7.5 0 0 0 3.033.644M168.723 85.901a7.5 7.5 0 1 0-6.073 13.716l16.469 7.29a7.5 7.5 0 0 0 3.032.644 7.5 7.5 0 0 0 3.04-14.36zM175.924 313.843a7.5 7.5 0 0 0 .001 10.607l10.818 10.817c1.464 1.465 3.384 2.197 5.303 2.197s3.839-.732 5.304-2.197a7.5 7.5 0 0 0-.001-10.607l-10.818-10.817a7.5 7.5 0 0 0-10.607 0M264.954 214.52a7.5 7.5 0 0 0 0 10.607l62.27 62.269c1.465 1.464 3.385 2.197 5.304 2.197s3.839-.732 5.304-2.197a7.5 7.5 0 0 0 0-10.607l-62.27-62.269a7.5 7.5 0 0 0-10.608 0M345.837 228.501a7.5 7.5 0 0 0 0 10.607l19.985 19.984c1.465 1.465 3.385 2.197 5.304 2.197s3.839-.732 5.304-2.197a7.5 7.5 0 0 0 0-10.607l-19.985-19.984a7.5 7.5 0 0 0-10.608 0M203.396 438.064a7.5 7.5 0 0 0 0 10.607l11.125 11.125c1.465 1.464 3.385 2.197 5.304 2.197s3.839-.732 5.304-2.197a7.5 7.5 0 0 0 0-10.607l-11.125-11.125a7.503 7.503 0 0 0-10.608 0"/><path d="M487.708 165.179c-2.028-7.572-6.885-13.9-13.673-17.819a29.17 29.17 0 0 0-14.294-3.934l.116-.2c8.091-14.014 3.272-31.997-10.741-40.088a7.497 7.497 0 0 0-10.245 2.745 7.5 7.5 0 0 0 2.745 10.245c6.851 3.955 9.206 12.746 5.251 19.597l-4.074 7.057a29.2 29.2 0 0 0-10.538-10.44 7.5 7.5 0 0 0-7.5 12.99c4.56 2.633 7.202 7.514 7.163 12.569-1.7-.117-3.42.004-5.102.395-18.519 4.297-43.149 3.551-69.224 2.761-12.568-.381-25.859-.78-39.438-.648 2.52-72.442-26.117-129.984-38.794-151.701A17.63 17.63 0 0 0 268.069.43 17.47 17.47 0 0 0 254.437 3c-15.724 10.681-38.968 18.86-63.577 27.518C134.869 50.218 65.185 74.735 37.808 145.2c-16.02 41.234-18.757 81.212-8.369 122.219a7.5 7.5 0 0 0 9.113 5.429 7.5 7.5 0 0 0 5.429-9.113c-9.596-37.88-7.041-74.877 7.811-113.104a136 136 0 0 1 3.277-7.705l130.761 57.881a150 150 0 0 0-12.33 12.066c-30.678 33.649-47.78 71.184-52.283 114.75-3.237 31.324.637 61.375 4.869 87.024a286 286 0 0 1-8.831 4.443 2.48 2.48 0 0 1-2.148.019 2.52 2.52 0 0 1-1.402-1.675c-3.43-12.955-9.268-31.458-17.595-46.038-3.088-5.406-6.436-10.995-9.981-16.912-10.153-16.949-21.66-36.159-30.796-57.561a7.5 7.5 0 0 0-13.795 5.888c9.536 22.343 21.324 42.02 31.722 59.38 3.504 5.849 6.814 11.373 9.823 16.644 7.92 13.867 13.499 32.541 16.12 42.438a17.5 17.5 0 0 0 4.001 7.315 14.24 14.24 0 0 1-7.18 4.527 14.25 14.25 0 0 1-10.886-1.433c-6.851-3.955-9.206-12.746-5.251-19.597a7.5 7.5 0 0 0-2.745-10.245 7.497 7.497 0 0 0-10.245 2.745c-8.091 14.014-3.272 31.997 10.741 40.088a29.2 29.2 0 0 0 14.294 3.934l-.116.201c-8.09 14.013-3.272 31.997 10.741 40.088a7.497 7.497 0 0 0 10.245-2.746 7.5 7.5 0 0 0-2.745-10.245c-6.851-3.955-9.206-12.747-5.251-19.597l4.06-7.032.02.035a7.496 7.496 0 0 0 10.281 2.605 7.5 7.5 0 0 0 2.606-10.281 14.37 14.37 0 0 1-2.016-7.678 17.6 17.6 0 0 0 3.995-1.347 292 292 0 0 0 4.975-2.457c1.025 5.941 1.992 11.604 2.806 16.974 2.391 15.791.865 35.22-.257 45.396a17.5 17.5 0 0 0 4.848 14.156 17.46 17.46 0 0 0 13.967 5.266c17.659-1.404 53.524-6.025 95.329-21.186 51.037-18.509 95.291-46.769 131.532-83.996 23.019-23.646 41.022-50.847 53.508-80.847 10.066-24.186 16.596-50.267 19.411-77.52a7.5 7.5 0 1 0-14.921-1.541c-6.043 58.513-29.172 108.794-68.747 149.445-1.511 1.552-3.055 3.067-4.595 4.586l-99.666-99.666a7.502 7.502 0 0 0-10.608 10.607l99.346 99.346c-31.526 28.318-68.55 50.318-110.374 65.485-40.148 14.56-74.502 18.989-91.405 20.333a2.47 2.47 0 0 1-2.011-.757 2.53 2.53 0 0 1-.704-2.068c1.469-13.32 2.691-32.682.177-49.286-.933-6.162-2.043-12.59-3.22-19.395-4.625-26.767-10.067-58.288-7.354-91.63l46.758 46.759a7.48 7.48 0 0 0 5.304 2.197 7.5 7.5 0 0 0 5.304-12.804l-54.942-54.943c5.428-30.373 18.73-61.768 46.371-92.085 13.566-14.879 29.397-25.874 48.398-33.612 3.836-1.563 5.68-5.939 4.117-9.775s-5.936-5.681-9.776-4.118c-10.094 4.111-19.378 9.063-27.978 14.911L62.132 129.649c29.38-48.268 84.437-67.648 133.705-84.982 25.554-8.991 49.691-17.484 67.028-29.261a2.37 2.37 0 0 1 1.888-.348 2.55 2.55 0 0 1 1.65 1.211c12.065 20.668 39.384 75.576 36.721 144.534-13.156.573-26.431 1.812-39.451 4.228a7.5 7.5 0 0 0-6.005 8.743 7.5 7.5 0 0 0 8.743 6.005c30.007-5.571 60.874-4.636 90.725-3.73 27.08.819 52.655 1.595 73.07-3.143a2.36 2.36 0 0 1 1.886.356c.347.232.949.766 1.105 1.725 1.272 7.903 2.859 20.652 3.193 36.504a7.5 7.5 0 0 0 7.495 7.342l.16-.001a7.5 7.5 0 0 0 7.341-7.656c-.351-16.713-2.032-30.201-3.381-38.574a17.5 17.5 0 0 0-1.908-5.545l.841-1.456c1.916-3.319 5.01-5.693 8.711-6.684s7.568-.483 10.886 1.433 5.693 5.009 6.685 8.711a14.26 14.26 0 0 1-1.434 10.886 7.5 7.5 0 1 0 12.99 7.499c3.919-6.788 4.96-14.696 2.932-22.267"/></svg>