<svg xmlns="http://www.w3.org/2000/svg" width="512" height="512"><path fill="#7cc9a7" d="M480.907 122.216c0-11.586-6.764-21.591-16.558-26.285 6.856-5.913 10.933-14.959 9.984-24.92-1.317-13.821-12.547-24.95-26.378-26.162l-.374-.03c-9.649-.725-18.401-5.757-23.739-13.827C414.48 16.837 398.426 7.5 380.185 7.5c-15.333 0-29.124 6.595-38.695 17.103a29 29 0 0 0-13.634-3.387 29 29 0 0 0-16.4 5.055 29 29 0 0 0-16.4-5.055c-15.251 0-27.757 11.721-29.02 26.645a52.2 52.2 0 0 0-18.403-3.337c-16.791 0-31.73 7.911-41.303 20.208-4.267 5.481-10.939 8.517-17.851 7.822a29 29 0 0 0-20.536 5.795c-8.615 6.552-12.551 16.968-11.245 26.982-.561-.018-1.121-.043-1.687-.043-28.9 0-52.329 23.429-52.329 52.329 0 4.734.629 9.32 1.807 13.682 2.034 7.528.091 15.518-4.913 21.499a29 29 0 0 0-6.775 18.672c0 .161.01.319.012.479-13.589 2.468-23.896 14.354-23.896 28.655 0 11.93 7.174 22.179 17.441 26.684-5.628 5.312-9.146 12.835-9.146 21.185q0 .218.003.434c.127 8.649-3.726 16.763-10.345 22.332-8.761 7.371-14.025 18.765-12.944 31.337 1.492 17.349 15.339 33.624 32.66 35.412 13.206 1.363 31.656-2.127 39.122-11.515l6.15.909c-3.639 8.01-5.337 17.089-4.436 26.65 2.174 23.045 23.437 44.591 46.459 46.995 19.918 2.08 37.87-7.025 48.347-21.802 3.144-4.434 7.772-7.625 13.08-8.794l.273-.061c8.66-1.956 17.554 1.488 22.805 8.647 5.69 7.757 15.126 12.593 25.645 11.84 14.009-1.003 25.492-12.179 26.847-26.158.582-6.001-.667-11.669-3.243-16.526 14.997-3.19 26.311-15.4 28.599-30.271.638-4.145 3.216-7.683 6.793-9.872a29.23 29.23 0 0 0 11.651-13.509c2.136-5.042 7.075-8.216 12.547-8.413 15.836-.57 31.225-8.298 41.017-22.276a52.08 52.08 0 0 0 9.453-30.897c13.842.43 26.426-9.088 29.38-23.113a29 29 0 0 0-3.214-20.452c-4.413-7.714-2.775-17.363 3.355-23.798 8.939-9.384 14.428-22.081 14.428-36.066a52.2 52.2 0 0 0-3.518-18.862c13.035-2.899 22.781-14.522 22.781-28.428"/><path fill="#5bbd93" d="M458.133 150.641a52.3 52.3 0 0 1 3.516 18.868c0 13.978-5.496 26.68-14.433 36.06-6.123 6.437-7.768 16.088-3.354 23.802a28.97 28.97 0 0 1 3.213 20.448c-2.954 14.032-15.536 23.542-29.373 23.12a52.07 52.07 0 0 1-9.456 30.888c-9.791 13.989-25.187 21.714-41.015 22.287-5.474.195-10.419 3.365-12.55 8.406a29.25 29.25 0 0 1-11.652 13.513c-3.581 2.185-6.156 5.723-6.794 9.867-2.283 14.876-13.6 27.08-28.595 30.272 2.575 4.858 3.819 10.527 3.235 16.531-1.352 13.978-12.831 25.154-26.842 26.149-10.516.757-19.961-4.079-25.652-11.836a22.2 22.2 0 0 0-5.258-5.15c11.555-3.083 20.123-12.94 21.281-25.284a29.6 29.6 0 0 0-.043-6.113c-.66-5.853 2.239-11.436 7.357-14.368 9.564-5.485 16.326-15.125 18.046-26.247.627-4.144 3.213-7.681 6.784-9.867a29.2 29.2 0 0 0 11.652-13.513c2.142-5.042 7.076-8.212 12.55-8.417 15.839-.563 31.224-8.298 41.015-22.276a52.04 52.04 0 0 0 8.677-20.891c.941-5.366 4.966-9.661 10.17-11.263 9.813-3.008 17.721-11.111 19.993-21.854a29.03 29.03 0 0 0-3.213-20.448c-4.414-7.714-2.781-17.364 3.354-23.802 8.937-9.38 14.422-22.082 14.422-36.06q0-4.22-.649-8.244c-.898-5.615 1.428-11.338 6.243-14.368 8.212-5.15 13.665-14.27 13.665-24.678a29 29 0 0 0-7.357-19.355c-3.905-4.403-4.793-10.711-2.153-15.969 2.358-4.695 3.484-10.116 2.943-15.85-.606-6.426-3.213-12.204-7.238-16.694 4.814 3.754 10.7 6.048 16.964 6.513l.368.032c13.838 1.212 25.068 12.334 26.377 26.16.952 9.953-3.127 19.009-9.975 24.916 9.791 4.695 16.553 14.703 16.553 26.29-.002 13.906-9.75 25.526-22.776 28.425"/><path fill="#158f5e" d="M35.349 482.852c-4.916-4.125-5.676-11.403-1.708-16.447 23.214-29.507 100.006-123.93 174.812-180.221 52.739-39.686 109.779-109.741 144.052-155.095 4.144-5.484 12.65-.248 9.607 5.916-24.56 49.75-70.082 127.711-137.629 188.124-85.531 76.498-132.319 146.424-148.851 173.65-3.783 6.23-12.218 7.623-17.801 2.938z"/><path fill="#0f7a4f" d="M224.481 325.134c-85.532 76.49-132.315 146.42-148.846 173.65-3.784 6.22-12.221 7.618-17.804 2.933l-18.458-15.488c5.583 4.684 14.02 3.286 17.795-2.941 16.539-27.222 63.323-97.152 148.855-173.642 40.789-36.479 73.536-79.35 98.497-118.547 18.33-21.562 34.831-42.603 47.989-60.012 4.138-5.478 12.649-.246 9.608 5.917-24.568 49.749-70.086 127.71-137.636 188.13"/><path d="M488.42 122.216c0-10.761-4.816-20.906-12.776-27.781a36.85 36.85 0 0 0 6.169-24.136c-1.671-17.538-15.63-31.383-33.201-32.923l-.454-.037c-7.43-.558-14.008-4.38-18.046-10.486C418.988 10.039 400.33 0 380.198 0c-14.981 0-29.429 5.669-40.407 15.711a36.8 36.8 0 0 0-11.922-1.995 36.46 36.46 0 0 0-16.4 3.871 36.46 36.46 0 0 0-16.4-3.871c-15.795 0-29.599 10.31-34.613 24.689a59.8 59.8 0 0 0-12.81-1.38c-18.581 0-35.793 8.42-47.221 23.101-2.754 3.538-6.934 5.393-11.182 4.967a36.5 36.5 0 0 0-25.827 7.288c-8.208 6.242-13.313 15.634-14.28 25.695a59.3 59.3 0 0 0-18.279 4.814 7.5 7.5 0 0 0 6.067 13.719 44.5 44.5 0 0 1 18.102-3.818c.352 0 .699.013 1.048.025l.405.013a7.57 7.57 0 0 0 5.792-2.46 7.5 7.5 0 0 0 1.879-6.006c-1.002-7.684 2.196-15.364 8.348-20.042a21.52 21.52 0 0 1 15.245-4.303c9.405.943 18.577-3.044 24.52-10.677 8.566-11.004 21.463-17.315 35.385-17.315 3.667 0 7.28.452 10.799 1.325.281 6.43 1.952 16.45 8.882 24.211a7.48 7.48 0 0 0 5.598 2.505 7.5 7.5 0 0 0 5.592-12.495c-6.254-7.004-5.041-18.63-5.02-18.826.006-.047.005-.093.01-.14.004-.037.013-.073.016-.11.938-11.091 10.403-19.778 21.547-19.778 4.368 0 8.577 1.297 12.173 3.75a7.5 7.5 0 0 0 8.455 0 21.5 21.5 0 0 1 12.173-3.75c1.552 0 3.069.169 4.55.486a52.6 52.6 0 0 0-1.043 8.172c-.382 8.153 1.308 15.494 4.924 21.686-6.429 4.365-14.218 12.356-17.055 26.3a7.502 7.502 0 0 0 7.357 8.997 7.5 7.5 0 0 0 7.342-6.006c2.101-10.329 8.23-15.491 12.263-17.842 7.23 7.73 9.518 14.245 10.105 18.557a7.501 7.501 0 0 0 14.863-2.026c-1.461-10.716-7.595-21.133-18.23-30.961-4.639-4.286-6.86-10.208-6.603-17.601.152-4.345 1.134-8.04 1.709-9.869C356.468 19.949 368.096 15 380.198 15c15.083 0 29.064 7.524 37.402 20.128 6.616 10.002 17.344 16.26 29.439 17.169l.274.022c10.186.893 18.597 9.234 19.566 19.402.679 7.125-2.024 13.878-7.417 18.53a7.5 7.5 0 0 0 1.657 12.442c7.471 3.581 12.299 11.244 12.299 19.522 0 8.169-4.697 15.562-11.716 19.215-3.419-5.461-9.736-13.596-20.513-21.57a7.5 7.5 0 0 0-10.49 1.568 7.5 7.5 0 0 0 1.568 10.49c14.339 10.608 18.753 21.126 18.88 21.436v.001a44.7 44.7 0 0 1 3.01 16.151c0 11.556-4.389 22.527-12.358 30.893-8.647 9.078-10.43 22.218-4.434 32.696a21.58 21.58 0 0 1 2.385 15.181 21.58 21.58 0 0 1-14.951 16.257c-.753-4.286-2.425-9.752-5.934-15.98a7.5 7.5 0 0 0-10.216-2.852 7.5 7.5 0 0 0-2.853 10.216c5.331 9.459 4.405 16.638 4.414 17.149.167 9.511-2.633 18.662-8.097 26.462-8.138 11.617-20.947 18.573-35.145 19.084-8.44.304-15.97 5.399-19.182 12.982a21.87 21.87 0 0 1-8.659 10.037c-5.588 3.417-9.34 8.932-10.294 15.129-1.824 11.854-10.909 21.499-22.626 24.045-1.277.176-8.38.812-13.527-6.04-12.326-16.405-18.338-17.531-32.379-16.57-4.132.283-7.253 3.862-6.97 7.995s3.881 7.264 7.995 6.97c9.796-.67 10.826-.743 19.361 10.616 6.514 8.67 15.276 11.587 21.998 12.061a21.9 21.9 0 0 1 .739 8.137c-1.001 10.319-9.563 18.66-19.918 19.401-7.494.535-14.629-2.75-19.063-8.795-7.039-9.597-19.009-14.121-30.506-11.527l-.233.052c-7.056 1.554-13.302 5.738-17.585 11.78-5.946 8.386-14.64 14.522-24.48 17.278a7.502 7.502 0 0 0 2.019 14.724c.669 0 1.351-.09 2.026-.28 13.141-3.68 24.743-11.865 32.672-23.046 2.123-2.995 5.168-5.057 8.576-5.807l.311-.069c5.667-1.28 11.597.983 15.106 5.767 7.503 10.228 19.546 15.788 32.228 14.885 17.559-1.257 32.08-15.408 33.777-32.915.412-4.248.095-8.48-.922-12.538 13.756-5.944 23.897-18.706 26.227-33.842.28-1.824 1.48-3.505 3.294-4.614 6.577-4.023 11.642-9.895 14.645-16.982.963-2.274 3.228-3.747 5.909-3.843 18.939-.682 36.03-9.964 46.891-25.468 5.923-8.455 9.501-18.1 10.518-28.227a36.585 36.585 0 0 0 29.512-28.541 36.57 36.57 0 0 0-4.043-25.722c-2.634-4.602-1.698-10.73 2.275-14.9 10.638-11.167 16.497-25.813 16.497-41.239 0-4.813-.571-9.563-1.704-14.193 12.509-5.97 20.967-18.837 20.967-33.097"/><path d="M216.153 342.898c3.403-2.554 41.991-30.5 93.687-26.916 4.123.287 7.714-2.832 8.001-6.964a7.5 7.5 0 0 0-6.964-8c-21.961-1.523-41.637 1.994-57.826 7.112 12.581-12.895 24.281-26.274 35.135-39.81a7 7 0 0 0 .466-.415c.251-.246 25.599-24.743 69.855-32.871 4.074-.748 6.771-4.657 6.022-8.731s-4.659-6.773-8.731-6.022c-16.381 3.008-30.349 8.003-41.741 13.364 23.297-33.552 41.47-66.33 54.795-93.321 3.07-6.221 1.014-13.381-4.891-17.024-5.91-3.646-13.238-2.273-17.426 3.268-11.252 14.89-21.95 28.507-32.099 40.97 2.734-10.571 5.033-22.388 5.866-34.312a7.5 7.5 0 0 0-6.958-8.005 7.49 7.49 0 0 0-8.005 6.959c-2.08 29.747-14.503 60-17.444 66.806-23.801 27.141-43.869 47.065-60.216 61.63 10.57-16.403 18.439-31.983 24.279-46.421.309-.55.544-1.14.707-1.756 9.856-24.908 13.654-46.315 14.808-62.47a7.5 7.5 0 0 0-6.946-8.015 7.5 7.5 0 0 0-8.015 6.947c-1.03 14.416-3.901 28.288-7.926 41.377-2.881-4.67-6.722-9.881-11.829-15.246a7.502 7.502 0 0 0-10.866 10.343c10.234 10.75 14.247 20.511 15.59 24.602-9.1 21.995-20.834 41.002-31.275 55.528-11.99 16.682-23.808 29.707-31.809 37.874 4.388-14.702 7.116-33.23 5.132-55.476a7.501 7.501 0 0 0-14.942 1.333c2.57 28.809-3.814 50.409-9.623 63.457-6.096 13.695-12.844 21.117-13.367 21.68-10.923 10.605-22.132 22.012-33.604 34.198l-.055.013c-6.366 1.891-14.051 2.618-20.568 1.945-13.072-1.349-24.717-14.176-25.957-28.594-.83-9.654 2.924-18.75 10.301-24.956 8.43-7.094 13.174-17.365 13.015-28.172l-.002-.333c0-5.995 2.402-11.567 6.763-15.698 4.515-4.12 11.407-5.112 15.916-4.279 5.538 1.02 9.001 4.138 10.293 9.268a7.5 7.5 0 0 0 9.105 5.441 7.5 7.5 0 0 0 5.44-9.104c-2.732-10.851-10.795-18.271-22.121-20.357-6.495-1.195-16.142-.486-24.352 4.642-5.771-3.993-9.338-10.6-9.338-17.782 0-10.461 7.459-19.409 17.736-21.275q.392-.073.769-.186c.867.04 1.884.07 3.049.07 9.995 0 29.871-2.14 41.246-17.818a7.5 7.5 0 0 0-1.666-10.475 7.5 7.5 0 0 0-10.475 1.666c-6.336 8.734-17.771 11.019-25.476 11.504a21.6 21.6 0 0 1 3.728-6.479c6.645-7.943 9.037-18.51 6.4-28.268a45 45 0 0 1-1.548-11.725c0-6.792 1.479-13.313 4.396-19.384a7.5 7.5 0 1 0-13.52-6.496c-3.899 8.114-5.876 16.821-5.876 25.88 0 5.301.695 10.563 2.067 15.638 1.36 5.034.079 10.54-3.425 14.73a36.64 36.64 0 0 0-8.127 18.126c-14.364 5.122-24.279 18.803-24.279 34.492a36.65 36.65 0 0 0 13.775 28.626c-3.541 5.742-5.48 12.418-5.48 19.244l.004.544c.092 6.293-2.705 12.302-7.674 16.483-10.996 9.251-16.824 23.352-15.589 37.719 1.857 21.594 19.147 40.143 39.362 42.23a64 64 0 0 0 6.256.32c-29.459 32.453-52.777 61.321-64.326 76-6.509 8.274-5.287 20.059 2.781 26.829l22.481 18.865a19.37 19.37 0 0 0 15.617 4.279 19.37 19.37 0 0 0 13.417-9.069c8.947-14.735 26.305-41.22 53.445-74.262 5.386 5.963 11.789 10.888 18.835 14.436a7.5 7.5 0 0 0 10.071-3.325 7.5 7.5 0 0 0-3.325-10.072c-5.911-2.976-11.409-7.422-15.819-12.702a856 856 0 0 1 18.995-21.524 7.501 7.501 0 0 0-11.078-10.113c-44.937 49.231-71.883 89.91-83.946 109.777-.912 1.502-2.294 1.932-3.036 2.055s-2.188.16-3.533-.969l-22.481-18.864a4.36 4.36 0 0 1-.635-6.064c21.877-27.808 99.038-122.888 173.427-178.866C240 271.847 284.505 231.16 346.253 151.614c-26.758 50.734-68.534 115.859-126.756 167.93a940 940 0 0 0-41.049 39 7.5 7.5 0 0 0 10.658 10.554 910 910 0 0 1 27.047-26.2"/><path d="M343.665 254.667a7.5 7.5 0 0 0-10.46 1.605 7.5 7.5 0 0 0 1.585 10.487c.617.455 13.397 9.711 30.552 9.711a46.5 46.5 0 0 0 8.445-.768 7.5 7.5 0 0 0 6.016-8.735 7.497 7.497 0 0 0-8.736-6.016c-14.687 2.707-27.206-6.143-27.402-6.284M161.805 211.712c0 4.142 3.357 7.5 7.5 7.5s7.5-3.358 7.5-7.5c0-41.73-23.105-69.903-24.088-71.082a7.493 7.493 0 0 0-10.544-.959c-3.182 2.642-3.619 7.367-.985 10.555.206.249 20.617 25.374 20.617 61.486M400.765 158.661a7.5 7.5 0 0 0-8.987 5.633c-1.961 8.551-.427 26.602 19.42 33.711a7.495 7.495 0 0 0 9.59-4.532 7.5 7.5 0 0 0-4.531-9.59c-11.683-4.185-10.257-14.284-9.844-16.301a7.5 7.5 0 0 0-5.648-8.921M204.109 110.03a7.5 7.5 0 0 0-9.994 3.555c-7.721 16.247-2.954 35.947 11.334 46.843a7.46 7.46 0 0 0 4.542 1.537 7.5 7.5 0 0 0 4.554-13.465c-8.683-6.621-11.576-18.598-6.881-28.477a7.5 7.5 0 0 0-3.555-9.993"/></svg>