<svg xmlns="http://www.w3.org/2000/svg" width="512" height="512"><path fill="#a3e440" d="M312.683 165.992s1.157-61.53-66.331-89.916c-44.536-18.732-65.381-36.552-74.409-46.505-2.844-3.136-8.04-1.765-9.017 2.354-9.205 38.806-27.988 169.817 149.757 134.067"/><path fill="#99d53b" d="M312.68 165.99c-7.997 1.614-15.603 2.88-22.819 3.83-2.564-18.177-14.084-59.164-65.599-80.833-33.179-13.947-53.213-27.398-64.998-37.473a209 209 0 0 1 3.661-19.591c.981-4.114 6.172-5.486 9.02-2.353 9.02 9.959 29.867 27.778 74.408 46.504 67.487 28.389 66.327 89.916 66.327 89.916"/><path fill="#fee265" d="M290.722 420.397c-55.74 55.74-131.265 75.837-191.082 56.697-13.235-4.24-27.1-4.536-40.101-1.323a74 74 0 0 0-8.415 2.611c-10.722 4.036-22.829 1.189-30.93-6.912-8.196-8.196-10.807-20.409-6.776-31.276 5.649-15.225 6.277-32.156 1.157-48.165-19.14-59.817.957-135.342 56.697-191.082s131.265-75.837 191.09-56.704a73.65 73.65 0 0 0 40.101 1.323 74 74 0 0 0 8.419-2.612c10.72-4.035 22.826-1.187 30.925 6.912 8.193 8.193 10.806 20.402 6.778 31.266-5.646 15.229-6.28 32.165-1.158 48.175 19.132 59.825-.965 135.351-56.705 191.09"/><g fill="#fdd330"><path d="M343.22 338.538c-10.42 29.099-28.029 57.388-52.498 81.858-19.679 19.679-41.819 34.909-64.868 45.549-35.919-26.899-60.078-68.628-63.408-116.107-.43-6.11 4.41-11.3 10.53-11.3z"/><path d="M290.721 420.396c-55.74 55.74-131.264 75.837-191.077 56.695-13.234-4.237-27.102-4.528-40.104-1.313a72 72 0 0 0-8.415 2.611c-10.727 4.028-22.827 1.179-30.929-6.923a29.5 29.5 0 0 1-7.975-14.629 29.74 29.74 0 0 1 1.201-16.643c.261-.709.515-1.41.746-2.134a27 27 0 0 0 5.132-1.388 74 74 0 0 1 8.415-2.611c13.003-3.215 26.87-2.924 40.097 1.32 59.821 19.135 135.344-.962 191.084-56.702s75.837-131.264 56.702-191.084c-4.879-15.263-4.528-31.369.41-46.035 9.295-1.611 18.97 1.484 25.796 8.31a29.5 29.5 0 0 1 7.975 14.629 29.84 29.84 0 0 1-1.194 16.636c-5.647 15.226-6.281 32.167-1.164 48.176 19.137 59.821-.96 135.345-56.7 191.085"/></g><path fill="#f8c52d" d="M493.943 325.059c6.121 0 10.96 5.193 10.531 11.299-5.795 82.59-74.631 147.791-158.695 147.791s-152.899-65.2-158.694-147.79c-.428-6.106 4.411-11.299 10.531-11.299h296.327z"/><path fill="#fdf0b2" d="M475.863 325.059c0 71.843-58.24 130.083-130.083 130.083s-130.083-58.24-130.083-130.083z"/><path fill="#fde784" d="M475.868 325.058c0 71.844-58.246 130.079-130.09 130.079-6.699 0-13.282-.506-19.718-1.487 62.487-9.495 110.362-63.447 110.362-128.592z"/><path fill="#e7b729" d="M504.48 336.357c-5.802 82.595-74.64 147.793-158.701 147.793-5.338 0-10.603-.264-15.804-.77 76.74-7.575 137.464-69.671 142.898-147.022.422-6.108-4.42-11.299-10.539-11.299h31.607c6.118-.001 10.961 5.19 10.539 11.298"/><path fill="#f8c52d" d="m422.235 347.063-34.33 5.265c-2.88.442-3.859 4.097-1.586 5.919l27.098 21.724c10.479 8.401 26.135 3.271 29.611-9.701s-7.518-25.243-20.793-23.207M272.945 347.063l34.33 5.265c2.88.442 3.859 4.097 1.586 5.919l-27.098 21.724c-10.479 8.401-26.135 3.271-29.611-9.701s7.518-25.243 20.793-23.207M390.472 395.14l-25.075-24.031c-2.104-2.016-5.6-.568-5.662 2.345l-.739 34.723c-.286 13.427 13.314 22.725 25.722 17.586s15.45-21.331 5.754-30.623M304.708 395.14l25.075-24.031c2.104-2.016 5.6-.568 5.662 2.345l.739 34.723c.286 13.427-13.314 22.725-25.722 17.586s-15.45-21.331-5.754-30.623"/><path d="M87.652 195.892c25.488-22.304 55.276-38.175 86.146-45.896 30.077-7.523 59.912-7.042 86.283 1.392l.003.001.056.017a81.15 81.15 0 0 0 44.117 1.442 82 82 0 0 0 9.266-2.875c7.849-2.954 16.87-.915 22.98 5.197 6.076 6.075 8.057 15.243 5.049 23.356-6.316 17.035-6.767 35.881-1.27 53.066 2.544 7.955 4.388 16.343 5.481 24.933a7.5 7.5 0 0 0 14.879-1.895c-1.208-9.494-3.252-18.783-6.074-27.608-4.48-14.006-4.109-29.377 1.047-43.282 5.039-13.592 1.7-28.971-8.507-39.178-8.827-8.827-21.344-12.553-33.167-10.231-7.895-21.64-25.495-48.685-64.684-65.168-44.007-18.511-63.85-35.908-71.761-44.631a12.69 12.69 0 0 0-12.609-3.774 12.76 12.76 0 0 0-9.26 9.435c-2.851 12.02-6.147 30.586-5.655 50.776.538 22.075 5.471 40.852 14.674 55.947-31.188 8.743-61.117 25.149-86.873 47.688a7.5 7.5 0 0 0-.705 10.583 7.5 7.5 0 0 0 10.584.705m81.66-158.201c11.599 11.704 33.504 28.209 74.132 45.298 33.701 14.175 49.072 37.037 56.068 55.559a66.14 66.14 0 0 1-34.523-1.346c-8.025-3.537-15.639-8.132-22.656-13.181l-1.454-20.721c-.29-4.132-3.886-7.258-8.006-6.956a7.5 7.5 0 0 0-6.956 8.007l.469 6.681c-17.046-15.513-27.876-30.656-28.052-30.903a7.5 7.5 0 0 0-10.449-1.798 7.5 7.5 0 0 0-1.802 10.452c.886 1.255 15.958 22.372 39.269 41.18-14.708-.822-29.878.274-45.152 3.266-21.291-29.806-15.502-74.062-10.888-95.538M55.672 353.015l.014.313a7.5 7.5 0 1 0 14.986-.654l-.014-.313c-.18-4.138-3.71-7.34-7.819-7.166a7.5 7.5 0 0 0-7.167 7.82M70.367 408.226a7.5 7.5 0 1 0 14.985-.656l-.014-.313c-.181-4.139-3.706-7.362-7.82-7.165a7.5 7.5 0 0 0-7.165 7.821zM93.579 360.195a7.5 7.5 0 0 0-7.142 7.841 7.5 7.5 0 0 0 7.841 7.143l.293-.014a7.499 7.499 0 1 0-.699-14.984z"/><path d="M507.149 323.303a18.12 18.12 0 0 0-13.205-5.744h-136.78c1.904-8.334 3.262-16.715 4.033-24.999a7.5 7.5 0 0 0-6.773-8.162c-4.118-.373-7.779 2.648-8.162 6.773-.813 8.735-2.333 17.597-4.514 26.388H197.616a18.12 18.12 0 0 0-13.206 5.744 18.12 18.12 0 0 0-4.807 13.581c2.945 41.97 21.537 80.97 52.352 109.816a168 168 0 0 0 5.474 4.897c-20.856 11.698-43.387 19.641-65.624 23.064-24.362 3.752-48.528 2.123-69.878-4.71-14.274-4.573-29.554-5.078-44.184-1.462a82 82 0 0 0-9.263 2.874c-7.85 2.955-16.872.915-22.984-5.197-6.077-6.077-8.058-15.248-5.047-23.364 6.317-17.025 6.767-35.868 1.268-53.059-17.052-53.292-1.206-117.953 41.356-168.745a7.5 7.5 0 1 0-11.497-9.634C5.742 266.065-11.173 336.167 7.432 394.315c4.482 14.009 4.111 29.376-1.044 43.27-5.044 13.596-1.706 28.979 8.503 39.187 10.267 10.268 25.527 13.651 38.875 8.629a67 67 0 0 1 7.573-2.349c11.933-2.951 24.387-2.541 36.016 1.185 15.342 4.909 31.948 7.39 49.026 7.39 9.141 0 18.417-.711 27.707-2.142 25.952-3.995 52.219-13.659 76.117-27.959 27.852 19.552 61.047 30.122 95.575 30.122 42.436 0 82.859-15.963 113.823-44.949 30.815-28.846 49.408-67.846 52.353-109.817a18.12 18.12 0 0 0-4.807-13.579m-10.155 12.53c-2.68 38.182-19.599 73.667-47.641 99.917-28.174 26.374-64.958 40.899-103.573 40.899s-75.398-14.525-103.573-40.899c-28.042-26.25-44.962-61.734-47.641-99.916a3.05 3.05 0 0 1 .816-2.303 3.04 3.04 0 0 1 2.234-.973h10.785c1.835 34.494 16.303 66.53 41.217 90.885a7.48 7.48 0 0 0 5.242 2.137 7.5 7.5 0 0 0 5.243-12.863c-22.002-21.508-34.856-49.739-36.674-80.159h244.699c-3.889 64.113-57.274 115.084-122.348 115.084-20.336 0-40.478-5.082-58.247-14.698a7.501 7.501 0 0 0-7.138 13.193c19.954 10.798 42.564 16.504 65.385 16.504 73.347 0 133.468-57.694 137.377-130.084h10.787a3.03 3.03 0 0 1 2.234.973c.339.366.896 1.149.816 2.303"/><path d="m381.628 364.098 27.099 21.725a26.02 26.02 0 0 0 24.457 4.439 26.03 26.03 0 0 0 17.088-18.051c2.29-8.549.132-17.586-5.773-24.177s-14.652-9.731-23.401-8.385h-.001l-34.329 5.265c-4.252.651-7.719 3.758-8.833 7.913s.336 8.58 3.693 11.271m41.743-9.623c3.776-.576 7.407.722 9.957 3.567 2.549 2.847 3.445 6.595 2.456 10.286s-3.639 6.49-7.269 7.68c-3.633 1.189-7.425.501-10.405-1.889l-19.723-15.812zM313.552 364.099a10.847 10.847 0 0 0-5.139-19.184l-34.33-5.265h-.001c-8.746-1.347-17.496 1.793-23.401 8.385s-8.063 15.629-5.772 24.177a26.02 26.02 0 0 0 17.088 18.051 26.032 26.032 0 0 0 24.458-4.439zm-46.885 11.91c-3.631-1.19-6.281-3.989-7.269-7.68s-.094-7.439 2.455-10.285c2.151-2.402 5.071-3.703 8.2-3.703q.87 0 1.756.135h-.001l24.987 3.833-19.723 15.812c-2.982 2.389-6.775 3.077-10.405 1.888M362.864 430.124a26.05 26.05 0 0 0 14.717 4.565c3.379 0 6.777-.659 10.008-1.998a26.02 26.02 0 0 0 15.667-19.298 26.03 26.03 0 0 0-7.594-23.669l-25.076-24.031a10.845 10.845 0 0 0-18.348 7.602l-.739 34.724a26.02 26.02 0 0 0 11.365 22.105m4.168-47.061 18.251 17.491c2.759 2.643 3.936 6.314 3.231 10.07s-3.135 6.748-6.665 8.211c-3.53 1.462-7.365 1.064-10.519-1.093s-4.917-5.585-4.835-9.405zM291.925 413.393a26.02 26.02 0 0 0 15.667 19.298 26.1 26.1 0 0 0 10.008 1.998 26.05 26.05 0 0 0 14.717-4.565 26.02 26.02 0 0 0 11.366-22.106l-.739-34.724a10.85 10.85 0 0 0-6.693-9.791 10.85 10.85 0 0 0-11.656 2.189l-25.075 24.031a26.03 26.03 0 0 0-7.595 23.67m17.973-12.839 18.251-17.491.538 25.274c.082 3.82-1.681 7.248-4.835 9.405-3.156 2.157-6.991 2.552-10.519 1.093-3.53-1.463-5.96-4.455-6.665-8.211-.707-3.756.47-7.427 3.23-10.07"/></svg>