<svg xmlns="http://www.w3.org/2000/svg" width="512" height="512"><path fill="#0f7a4f" d="M239.531 136.197s29.616-43.665 90.919-30.172c30.005 6.604 50.634 7.115 63.877 5.916 8.742-.792 15.021 8.249 11.179 16.141-18.78 38.578-70.189 109.395-165.975 8.115"/><path fill="#0c6842" d="M405.512 128.078c-15.384 31.592-52.649 84.805-118.235 47.427 52.638 16.354 83.519-28.716 97.166-56.754 1.026-2.098 1.331-4.286 1.06-6.339 3.248-.068 6.181-.237 8.82-.474 8.741-.789 15.024 8.256 11.189 16.14"/><path fill="#1ca56f" d="M203.416 143.818s-9.048-51.979 44.41-84.879c26.165-16.103 41.354-30.071 50.043-40.136 5.736-6.644 16.534-4.507 19.256 3.838 13.305 40.792 25.551 127.441-113.709 121.177"/><path fill="#158f5e" d="M317.127 22.635c10.892 33.408 21.075 97.568-52.061 116.268 49.216-24.82 40.101-78.688 30.429-108.334-.72-2.222-2.021-4.007-3.643-5.295a128 128 0 0 0 6.013-6.47c5.738-6.642 16.541-4.503 19.262 3.831"/><path fill="#fcc16d" d="M403.417 299.172c0 109.329-88.629 197.959-197.959 197.959S7.5 408.501 7.5 299.172s88.629-177.95 197.959-177.95 197.958 68.62 197.958 177.95"/><g fill="#fca62f"><path d="M394.421 358.329c-21.579 69.028-79.952 121.809-152.151 135.385-42.277-26.191-71.369-71.639-75.05-124.09-.43-6.103 4.412-11.295 10.534-11.295z"/><path d="M403.414 299.175c0 109.324-88.626 197.96-197.96 197.96-7.103 0-14.116-.37-21.028-1.11 99.45-10.494 176.931-94.628 176.931-196.849 0-102.231-77.481-168.858-176.931-177.081a252 252 0 0 1 21.028-.87c109.334-.002 197.96 68.616 197.96 177.95"/></g><path fill="#ffd496" d="M493.939 337.971c6.123 0 10.965 5.196 10.536 11.304-5.798 82.626-74.663 147.855-158.764 147.855s-152.966-65.229-158.764-147.855c-.429-6.108 4.413-11.304 10.536-11.304z"/><path fill="#fcc16d" d="M504.479 349.274c-5.805 82.63-74.672 147.857-158.77 147.857-5.341 0-10.607-.264-15.81-.77 76.773-7.578 137.524-69.701 142.959-147.086.422-6.111-4.422-11.304-10.544-11.304h31.621c6.122-.001 10.966 5.192 10.544 11.303"/><path fill="#f98824" d="M475.851 337.971c0 71.874-58.266 130.14-130.14 130.14s-130.14-58.266-130.14-130.14z"/><path fill="#fb7722" d="M475.856 337.97c0 71.875-58.271 130.136-130.146 130.136-6.702 0-13.288-.507-19.726-1.488 62.514-9.499 110.41-63.474 110.41-128.648z"/><path d="M112.142 148.252c27.696-12.777 59.964-19.53 93.317-19.53 49.166 0 94.932 14.586 128.866 41.072 35.282 27.537 56.273 65.978 60.704 111.166a7.5 7.5 0 0 0 8.195 6.733 7.5 7.5 0 0 0 6.732-8.195c-3.6-36.718-17.228-69.365-39.847-96.082 20.301-13.481 33.989-35.304 42.141-52.05 3-6.161 2.466-13.208-1.427-18.849-3.903-5.657-10.311-8.664-17.173-8.045-11.431 1.034-31.393.874-61.587-5.771a124 124 0 0 0-5.042-.99c1.897-5.122 3.29-10.591 4.166-16.408 3.384-22.468-1.901-45.567-6.932-60.987-2.124-6.516-7.405-11.213-14.125-12.563-6.74-1.359-13.445.943-17.937 6.148-7.501 8.689-21.969 22.447-48.298 38.65-30.229 18.604-41.785 43.078-46.072 61.293-32.795.961-64.444 8.091-91.965 20.787a7.5 7.5 0 0 0 6.284 13.621m216.696-34.902c25.745 5.665 48.007 7.704 66.166 6.061 2.001-.195 3.095 1.076 3.474 1.625.464.672 1.117 2.055.286 3.763-7.592 15.594-20.383 36.028-39.003 47.432a183 183 0 0 0-16.208-14.262 184 184 0 0 0-6.677-4.966c9.707-.182 18.929-1.856 28.484-5.638a7.5 7.5 0 0 0-5.519-13.947c-8.458 3.347-16.653 4.697-25.596 4.616a50 50 0 0 0 3.072-2.936 7.5 7.5 0 0 0-10.842-10.366c-5.191 5.429-12.396 9.102-15.718 10.617-2.46-.464-5.005-.982-7.64-1.544q-1.81-.81-3.64-1.588c8.447-5.64 15.28-12.465 20.484-20.437 2.925.389 5.899.914 8.877 1.57m-77.08-48.023c22.449-13.816 39.873-27.82 51.79-41.623 1.31-1.519 2.971-1.375 3.626-1.245.8.161 2.231.701 2.821 2.508 4.527 13.882 9.306 34.535 6.358 54.102-3.205 21.283-15.088 36.833-35.28 46.274-11.498-3.719-23.482-6.571-35.815-8.52 26.215-15.633 45.613-28.624 56.4-52.415a7.5 7.5 0 0 0-3.734-9.928 7.5 7.5 0 0 0-9.928 3.734c-3.689 8.137-8.509 14.76-15.195 21.084.112-1.392.174-2.804.167-4.225a7.5 7.5 0 0 0-7.499-7.459h-.042a7.5 7.5 0 0 0-7.459 7.541c.041 7.493-2.574 15.123-3.914 18.534-5.001 3.301-10.613 6.757-16.938 10.525a173 173 0 0 0-15.05 10.049q-4.355-.279-8.749-.411c4.241-14.901 14.443-33.757 38.441-48.525M507.148 336.217a18.13 18.13 0 0 0-13.21-5.746h-85.424a207 207 0 0 0 1.609-13.304 7.499 7.499 0 1 0-14.943-1.299 192 192 0 0 1-1.843 14.603H291.775c-4.143 0-7.5 3.357-7.5 7.5s3.357 7.5 7.5 7.5h35.828l-73.708 73.708c-17.616-19.894-28.88-45.531-30.588-73.708h32.178c4.142 0 7.5-3.357 7.5-7.5s-3.357-7.5-7.5-7.5h-58.002a18.12 18.12 0 0 0-13.209 5.745 18.13 18.13 0 0 0-4.809 13.585c2.946 41.988 21.547 81.004 52.375 109.861a167 167 0 0 0 29.017 21.777c-17.875 5.433-36.446 8.191-55.399 8.191C100.439 489.631 15 404.191 15 299.172c0-54.967 23.79-102.347 66.986-133.409a7.5 7.5 0 1 0-8.757-12.178C26.007 187.542 0 239.245 0 299.172c0 113.29 92.168 205.459 205.459 205.459 25.5 0 50.369-4.623 73.942-13.723 20.708 8.983 43.209 13.722 66.309 13.722 42.454 0 82.894-15.97 113.871-44.967 30.828-28.858 49.428-67.874 52.375-109.861a18.13 18.13 0 0 0-4.808-13.585m-242.645 93.569 73.708-73.708v104.297c-28.177-1.709-53.814-12.973-73.708-30.589m88.708-73.708 73.707 73.709c-19.894 17.616-45.53 28.879-73.707 30.588zm84.315 63.101-73.707-73.708h104.295c-1.708 28.177-12.972 53.814-30.588 73.708m59.467-70.429c-2.681 38.2-19.608 73.7-47.663 99.962-28.188 26.386-64.987 40.917-103.62 40.917-38.632 0-75.431-14.531-103.619-40.917-28.055-26.263-44.982-61.762-47.663-99.961a3.05 3.05 0 0 1 .817-2.306 3.04 3.04 0 0 1 2.238-.975h10.795c3.908 72.421 64.055 130.14 137.433 130.14s133.524-57.719 137.432-130.14h10.795c1.156 0 1.898.61 2.238.975s.898 1.149.817 2.305"/><path d="m416.1 356.446-7.157-2.451a7.5 7.5 0 1 0-4.859 14.191l7.157 2.451a7.5 7.5 0 0 0 2.431.406 7.501 7.501 0 0 0 2.428-14.597M277.752 371.043c.807 0 1.626-.131 2.432-.406l7.156-2.451a7.501 7.501 0 0 0-4.861-14.191l-7.156 2.451a7.501 7.501 0 0 0 2.429 14.597M323.208 387.855a7.5 7.5 0 0 0-10.296 2.548l-3.907 6.478a7.5 7.5 0 0 0 6.415 11.375 7.5 7.5 0 0 0 6.429-3.627l3.907-6.478a7.5 7.5 0 0 0-2.548-10.296M382.417 396.881l-3.907-6.478a7.5 7.5 0 0 0-10.296-2.548 7.5 7.5 0 0 0-2.548 10.296l3.907 6.478a7.494 7.494 0 0 0 10.296 2.548 7.5 7.5 0 0 0 2.548-10.296M270.608 190.791q.166 0 .333-.007a7.5 7.5 0 0 0 7.166-7.82l-.014-.313a7.5 7.5 0 0 0-14.986.654l.014.313a7.5 7.5 0 0 0 7.487 7.173M285.629 245.703a7.5 7.5 0 0 0 7.166-7.82l-.014-.313a7.496 7.496 0 0 0-7.82-7.166 7.5 7.5 0 0 0-7.166 7.82l.014.313a7.5 7.5 0 0 0 7.82 7.166M301.295 190.477l-.293.015a7.5 7.5 0 0 0-7.115 7.865 7.5 7.5 0 0 0 7.865 7.115l.293-.015a7.5 7.5 0 0 0 7.115-7.865c-.207-4.136-3.718-7.347-7.865-7.115M325.847 227.771a7.5 7.5 0 0 0-7.166 7.82l.014.313a7.501 7.501 0 0 0 14.986-.654l-.014-.313c-.18-4.138-3.688-7.365-7.82-7.166M256.829 282.78l-.293.015a7.5 7.5 0 0 0 .749 14.98l.293-.015a7.5 7.5 0 0 0 7.115-7.865c-.206-4.137-3.728-7.331-7.864-7.115"/></svg>