<svg xmlns="http://www.w3.org/2000/svg" width="512" height="512"><path fill="#1ca56f" d="M158.849 133.833s-8.864-50.926 43.51-83.158c25.635-15.776 40.516-29.461 49.029-39.323 5.62-6.51 16.199-4.416 18.865 3.76 13.035 39.965 25.033 124.858-111.404 118.721"/><path fill="#158f5e" d="M270.255 15.106c10.671 32.731 20.647 95.59-51.006 113.912 48.218-24.317 39.288-77.093 29.813-106.138-.705-2.177-1.98-3.926-3.569-5.187a126 126 0 0 0 5.891-6.339c5.62-6.508 16.205-4.413 18.871 3.752"/><path fill="#bcea73" d="M246.392 161.666c-5.356-30.099-31.527-52.024-62.098-52.024H172.35c-30.572 0-56.742 21.924-62.099 52.024-10.796 60.666-36.906 117.363-74.712 166.022-14.418 18.558-23.004 41.872-23.004 67.193 0 60.54 49.078 109.618 109.618 109.618H234.49c60.54 0 109.618-49.078 109.618-109.618 0-25.32-8.585-48.635-23.003-67.192-37.807-48.66-63.917-105.357-74.713-166.023"/><g fill="#99d53b"><path d="M344.108 394.882c0 60.539-49.079 109.618-109.618 109.618h-31.999c-40.939-19.54-69.299-61.359-69.299-109.678 0-27.25 8.82-52.999 25.5-74.469 30.52-39.279 51.069-84.909 59.449-131.958 3.03-17.04 11.21-32.019 22.78-43.479 2.55 5.2 4.42 10.81 5.47 16.75 10.8 60.669 36.909 117.368 74.719 166.027 7.21 9.27 12.95 19.74 16.9 31.059 3.948 11.31 6.098 23.47 6.098 36.13"/><path d="M344.109 394.877c0 60.542-49.08 109.623-109.623 109.623h-44.14c60.542 0 109.623-49.08 109.623-109.623 0-12.66-2.151-24.82-6.099-36.135a109.5 109.5 0 0 0-16.904-31.057c-37.805-48.658-63.921-105.35-74.716-166.02-4.381-24.633-22.718-43.796-45.996-49.945a62.9 62.9 0 0 1 16.098-2.082h11.943c30.566 0 56.741 21.932 62.094 52.027 10.794 60.67 36.911 117.362 74.716 166.02a109.5 109.5 0 0 1 16.904 31.057c3.949 11.315 6.1 23.475 6.1 36.135"/></g><path fill="#d2f0a2" d="M280.816 504.5c-66.977 0-121.467-54.49-121.467-121.467 0-27.244 8.819-52.996 25.503-74.471 30.516-39.276 51.07-84.903 59.442-131.948 6.907-38.809 40.53-66.976 79.947-66.976h10.333c39.418 0 73.04 28.167 79.947 66.975 8.371 47.044 28.926 92.671 59.442 131.949 16.684 21.473 25.503 47.225 25.503 74.471 0 66.977-54.49 121.467-121.467 121.467z"/><path fill="#bcea73" d="M499.46 383.029c0 66.976-54.482 121.468-121.458 121.468h-40.584c66.976 0 121.468-54.492 121.468-121.468 0-27.246-8.82-52.989-25.508-74.47-30.517-39.278-51.064-84.901-59.442-131.948-6.001-33.729-32.186-59.423-64.815-65.561a81 81 0 0 1 15.116-1.414h10.333c39.425 0 73.046 28.169 79.951 66.976 8.368 47.047 28.926 92.67 59.442 131.948 16.687 21.48 25.497 47.223 25.497 74.469"/><path fill="#fee7c9" d="M388.294 181.281c-4.634-26.038-27.273-45.005-53.721-45.005H324.24c-26.447 0-49.087 18.967-53.721 45.005-9.339 52.482-31.927 101.529-64.632 143.624-12.473 16.054-19.9 36.223-19.9 58.128 0 52.373 42.456 94.829 94.829 94.829h97.181c52.373 0 94.829-42.456 94.829-94.829 0-21.904-7.427-42.073-19.9-58.127-32.705-42.095-55.293-91.143-64.632-143.625"/><path fill="#ffd496" d="M472.823 383.029c0 52.38-42.45 94.831-94.821 94.831h-38.453c52.38 0 94.831-42.45 94.831-94.831 0-10.951-1.856-21.471-5.274-31.253a94.6 94.6 0 0 0-14.625-26.873c-32.707-42.097-55.288-91.138-64.628-143.626-3.791-21.274-19.585-37.824-39.661-43.167a54.5 54.5 0 0 1 14.045-1.837h10.333c26.45 0 49.09 18.966 53.726 45.004 9.341 52.488 31.921 101.529 64.628 143.626a94.6 94.6 0 0 1 14.625 26.873c3.418 9.782 5.274 20.302 5.274 31.253"/><path fill="#a34f41" d="M357.969 349.67c-8.509 0-15.407-6.898-15.407-15.407v-7.242a8.166 8.166 0 0 1 8.165-8.165h7.242c8.509 0 15.407 6.898 15.407 15.407s-6.898 15.407-15.407 15.407M300.845 349.67c8.509 0 15.407-6.898 15.407-15.407v-7.242a8.166 8.166 0 0 0-8.165-8.165h-7.242c-8.509 0-15.407 6.898-15.407 15.407s6.898 15.407 15.407 15.407"/><path d="M479.885 303.961c-29.773-38.32-49.821-82.81-57.98-128.662-7.545-42.392-44.273-73.16-87.331-73.16h-10.333c-31.533 0-59.653 16.513-75.42 41.995a70.3 70.3 0 0 0-8.583-14.474c24.148-10.907 38.745-29.026 43.423-53.984 4.294-22.906-1.044-46.843-6.277-62.89-2.099-6.435-7.315-11.075-13.953-12.41-6.657-1.338-13.282.933-17.719 6.074-7.343 8.505-21.506 21.973-47.283 37.836-29.735 18.3-41.109 42.379-45.297 60.513-25.493 7.19-45.426 28.36-50.264 55.551-5.558 31.235-15.371 61.89-29.164 91.112a7.5 7.5 0 0 0 3.581 9.983 7.5 7.5 0 0 0 3.196.72 7.5 7.5 0 0 0 6.787-4.301c14.359-30.421 24.576-62.346 30.367-94.886 4.726-26.56 27.738-45.838 54.715-45.838h11.944c26.977 0 49.988 19.278 54.715 45.842q.185 1.032.376 2.064a90 90 0 0 0-2.474 10.252c-8.16 45.854-28.209 90.343-57.981 128.661-17.716 22.803-27.08 50.146-27.08 79.073 0 49.337 27.852 92.284 68.655 113.965h-98.352c-56.308 0-102.117-45.81-102.117-102.117 0-22.908 7.409-44.551 21.426-62.592a405 405 0 0 0 28.454-41.772 7.5 7.5 0 0 0-12.902-7.65 390 390 0 0 1-27.397 40.219C13.536 343.782 5.036 368.608 5.036 394.88c0 64.579 52.538 117.117 117.117 117.117H234.49c7.608 0 15.219-.739 22.629-2.188a129 129 0 0 0 23.697 2.19h97.182c71.112 0 128.967-57.854 128.967-128.967-.001-28.928-9.365-56.27-27.08-79.071M169.391 102.208c4.561-14.287 14.72-31.497 36.898-45.145 22.006-13.543 39.089-27.273 50.776-40.81 1.231-1.426 2.793-1.291 3.408-1.17.752.151 2.096.658 2.649 2.354 4.69 14.385 9.505 35.685 5.795 55.476-4.014 21.41-17.44 36.598-39.917 45.18a70.4 70.4 0 0 0-24.866-13.108c23.577-14.249 41.104-26.838 51.103-48.892a7.5 7.5 0 0 0-13.662-6.194c-3.552 7.834-8.176 14.234-14.564 20.335.09-1.239.138-2.494.131-3.755a7.5 7.5 0 0 0-7.499-7.46h-.041a7.5 7.5 0 0 0-7.46 7.54c.039 7.285-2.495 14.706-3.808 18.057-4.887 3.224-10.37 6.601-16.549 10.282a175 175 0 0 0-11.171 7.242h-8.266q-1.484.005-2.957.068M377.998 497h-97.182c-62.842 0-113.967-51.125-113.967-113.967 0-25.563 8.273-49.724 23.925-69.87 31.258-40.232 52.319-86.996 60.903-135.235 6.268-35.224 36.786-60.79 72.563-60.79h10.333c35.777 0 66.294 25.565 72.563 60.788 8.583 48.238 29.643 95.002 60.902 135.237 15.652 20.144 23.925 44.305 23.925 69.87C491.965 445.875 440.84 497 377.998 497"/><path d="M458.849 320.304c-32.414-41.72-54.258-90.247-63.172-140.337a62.02 62.02 0 0 0-46.737-49.501 7.5 7.5 0 1 0-3.469 14.593 47.03 47.03 0 0 1 35.439 37.535c9.338 52.476 32.192 103.278 66.093 146.913 11.987 15.427 18.323 33.936 18.323 53.525 0 48.153-39.175 87.33-87.329 87.33h-97.182c-41.789 0-77.849-29.736-85.743-70.705a7.493 7.493 0 0 0-8.783-5.945 7.5 7.5 0 0 0-5.945 8.783c9.251 48.016 51.505 82.867 100.471 82.867h97.182c56.424 0 102.328-45.905 102.328-102.329.001-22.954-7.425-44.645-21.476-62.729M186.327 372.148q.729.141 1.443.14a7.5 7.5 0 0 0 7.353-6.065 87.4 87.4 0 0 1 16.686-36.716c33.9-43.632 56.755-94.433 66.094-146.911 3.239-18.202 16.916-32.877 34.843-37.388a7.5 7.5 0 0 0-3.66-14.546c-23.642 5.949-41.679 25.302-45.95 49.306-8.914 50.092-30.758 98.619-63.172 140.336-9.756 12.557-16.52 27.443-19.563 43.048a7.5 7.5 0 0 0 5.926 8.796"/><path d="M357.969 357.17c12.632 0 22.908-10.276 22.908-22.907s-10.276-22.908-22.908-22.908h-7.242c-8.638 0-15.665 7.027-15.665 15.666v7.242c0 12.63 10.276 22.907 22.907 22.907m-7.907-30.149c0-.367.299-.666.665-.666h7.242c4.36 0 7.908 3.548 7.908 7.908s-3.548 7.907-7.908 7.907-7.907-3.547-7.907-7.907zM300.845 311.355c-12.631 0-22.907 10.276-22.907 22.908 0 12.631 10.276 22.907 22.907 22.907s22.907-10.276 22.907-22.907v-7.242c0-8.639-7.027-15.666-15.665-15.666zm7.907 15.666v7.242c0 4.36-3.547 7.907-7.907 7.907s-7.907-3.547-7.907-7.907 3.547-7.908 7.907-7.908h7.242c.366 0 .665.299.665.666"/></svg>