<svg xmlns="http://www.w3.org/2000/svg" width="512" height="512"><path fill="#bcea73" d="m131.972 279.747 45.945 59.646a51.4 51.4 0 0 1 10.679 31.363v118.326c0 8.515 6.903 15.418 15.418 15.418h98.291c8.515 0 15.418-6.903 15.418-15.418V399.62a51.4 51.4 0 0 1 8.366-28.107l59.943-91.766z"/><path fill="#99d53b" d="m386.029 279.749-59.936 91.76a51.43 51.43 0 0 0-8.367 28.113v89.457c0 8.521-6.907 15.418-15.418 15.418H271.79c8.521 0 15.418-6.897 15.418-15.418v-89.457a51.43 51.43 0 0 1 8.367-28.113l59.946-91.76z"/><path fill="#99d53b" d="M386.029 279.749 350.7 333.837a44.7 44.7 0 0 1-1.85-9.148c-17.155 12.561-40.704 11.307-56.41-2.621-15.696 7.75-33.376 12.119-52.063 12.119-17.998 0-35.051-4.05-50.305-11.266a67.8 67.8 0 0 1-12.828 15.603l-45.268-58.775z"/><path fill="#82b732" d="m333.548 279.749-69.66 105.567V279.747z"/><path fill="#79a72d" d="m333.545 279.749-32.039 48.547a44.6 44.6 0 0 1-9.066-6.229 117 117 0 0 1-28.555 9.765v-52.083z"/><path fill="#1ca56f" d="M494.794 237.256a44.86 44.86 0 0 0-16.665-14.561c6.568-29.726-7.712-60.63-35.205-74.681 2.61-17.177.287-35.291-7.749-52.157-15.69-32.932-48.791-51.954-83.035-51.298C338.114 22.301 313.333 7.5 285.08 7.5c-25.09 0-47.44 11.677-61.956 29.878a78.85 78.85 0 0 0-36.763-9.05c-36.618 0-67.419 24.85-76.496 58.602-33.385-2.448-65.973 16.59-79.212 49.287-8.909 22.004-7.206 45.657 2.677 65.324a44.83 44.83 0 0 0-18.916 18.933c-11.564 22.036-3.075 49.273 18.961 60.837 11.589 6.081 24.613 6.61 36.043 2.545 10.117 24.6 34.308 41.927 62.556 41.927 24.699 0 46.296-13.247 58.098-33.018 15.255 7.222 32.307 11.268 50.306 11.268 18.692 0 36.363-4.364 52.06-12.117 15.714 13.926 39.263 15.176 56.417 2.617 1.908 20.106 17.251 37.108 38.124 40.263 22.586 3.414 43.775-10.578 49.98-31.927 14.334 7.431 32.195 6.9 46.401-2.923 20.467-14.154 25.587-42.221 11.434-62.69"/><path fill="#158f5e" d="M483.36 299.947a44.77 44.77 0 0 1-24.546 7.976c10.042-14.349 11.132-33.92 1.573-49.462-3.001-4.872-6.743-8.953-10.988-12.211-4.091-3.135-6.106-8.213-5.684-13.363 1.994-23.939-9.004-47.478-29.007-61.242-4.389-3.022-6.918-8.069-6.64-13.383.74-14.452-1.994-29.295-8.655-43.274-14.575-30.58-44.158-49.174-75.735-51.137-4.44-.277-8.593-2.374-11.286-5.91-14.473-19.026-37.333-31.309-63.071-31.309-6.26 0-12.335.73-18.173 2.097 14.144-13.167 33.098-21.226 53.933-21.226 28.257 0 53.029 14.801 67.059 37.055 34.239-.658 67.347 18.368 83.033 51.302 8.038 16.868 10.361 34.979 7.75 52.155 27.496 14.051 41.773 44.96 35.205 74.676a44.76 44.76 0 0 1 16.662 14.565c14.154 20.466 9.035 48.537-11.43 62.691"/><path d="M223.613 384.624a7.5 7.5 0 0 0-7.5 7.5v78.54a7.5 7.5 0 0 0 15 0v-78.54a7.5 7.5 0 0 0-7.5-7.5M105.717 312.26a60.18 60.18 0 0 1-26.197-24.737 52.4 52.4 0 0 0 21.332-21.688 7.5 7.5 0 0 0-3.156-10.126 7.5 7.5 0 0 0-10.126 3.156A37.44 37.44 0 0 1 67 276.76c-.032.011-.065.018-.097.029-9.851 3.502-20.802 2.731-30.045-2.12-8.883-4.662-15.42-12.504-18.405-22.082s-2.062-19.745 2.6-28.629a37.4 37.4 0 0 1 9.668-11.749A86.6 86.6 0 0 0 48.1 232.183a7.47 7.47 0 0 0 4.84 1.774 7.5 7.5 0 0 0 4.848-13.226 71.6 71.6 0 0 1-17.566-22.121c-.062-.147-.121-.294-.194-.439-9.281-18.47-10.166-40.026-2.426-59.142 11.066-27.333 37.331-44.833 66.439-44.809l.043.002q1.42.002 2.831.057c.286.012.573.031.86.046 14.606.73 28.375 5.785 40.02 14.75a7.47 7.47 0 0 0 4.57 1.558 7.5 7.5 0 0 0 4.58-13.443c-11.035-8.495-23.647-14.078-37.081-16.531 10.82-26.776 37.042-44.833 66.494-44.833 11.728 0 22.924 2.756 33.277 8.19a7.5 7.5 0 0 0 9.349-1.964C242.7 24.861 263.145 15 285.08 15c20.447 0 39.471 8.55 52.939 23.345-8.973 1.482-17.695 4.222-26.041 8.198-23.514 11.203-41.257 30.891-49.962 55.438a7.501 7.501 0 0 0 14.138 5.014c7.366-20.771 22.379-37.431 42.276-46.91 10.058-4.792 20.75-7.471 31.778-7.962a7 7 0 0 0 1.015-.123c.35.043.703.066 1.06.057 21.497-.404 42.784 7.822 58.386 22.591a7.5 7.5 0 1 0 10.312-10.894c-17.425-16.495-40.843-26.092-64.81-26.683C339.914 13.782 313.641 0 285.08 0c-24.511 0-47.482 10.179-63.907 28.124a87 87 0 0 0-34.812-7.296c-37.122 0-70.006 23.722-81.971 58.387-35.325-.171-67.266 21.031-80.689 54.188-8.494 20.979-8.4 44.386.076 65.224-6.679 4.753-12.143 11.002-16.005 18.362-6.524 12.431-7.816 26.659-3.639 40.063s13.324 24.377 25.756 30.901c10.896 5.718 23.485 7.387 35.418 4.845a75.17 75.17 0 0 0 33.847 32.952 7.502 7.502 0 0 0 6.563-13.49"/><path d="M500.962 232.991a52.8 52.8 0 0 0-14.513-14.136c4.314-29.787-9.676-59.367-35.461-74.931a97.2 97.2 0 0 0-7.518-47.929 7.5 7.5 0 0 0-13.772 5.942 82.2 82.2 0 0 1 6.693 35.179c-14.737-5.031-30.83-5.389-45.769-.926a7.5 7.5 0 1 0 4.294 14.372c13.196-3.943 26.938-3.289 39.736 1.893 1.6.648 3.184 1.373 4.714 2.149.05.027.093.063.144.089 24.316 12.428 37.185 39.727 31.295 66.385a7.5 7.5 0 0 0 3.935 8.309 37.6 37.6 0 0 1 13.884 12.135c11.779 17.035 7.503 40.476-9.532 52.254-11.465 7.927-26.289 8.859-38.683 2.434-.031-.016-.063-.027-.094-.042a37.6 37.6 0 0 1-13.477-11.923 7.5 7.5 0 1 0-12.338 8.532 52.8 52.8 0 0 0 13.265 13.285c-6.902 14.864-23.032 23.831-39.667 21.319a37.48 37.48 0 0 1-31.2-29.682 52.1 52.1 0 0 0 11.919-15.115 7.5 7.5 0 0 0-13.281-6.971c-2.666 5.079-6.337 9.36-10.904 12.735-.069.047-.142.083-.209.133-11.024 8.071-25.475 9.29-37.519 3.928a125.55 125.55 0 0 0 39.911-40.121 7.5 7.5 0 0 0-2.414-10.328 7.5 7.5 0 0 0-10.328 2.414 110.5 110.5 0 0 1-44.901 40.794c-.019.009-.038.014-.057.023-15.236 7.526-31.634 11.342-48.738 11.342-16.469 0-32.315-3.548-47.097-10.546l-.059-.025c-19.205-9.108-35.297-23.487-46.539-41.588a7.5 7.5 0 0 0-10.328-2.414 7.5 7.5 0 0 0-2.414 10.328c11.223 18.072 26.71 32.875 45.113 43.219-10.174 12.792-25.241 21.06-41.654 22.527a7.5 7.5 0 0 0-6.803 8.138c.369 4.126 4.023 7.18 8.138 6.803 7.247-.648 14.276-2.375 20.91-5.014l12.333 16.011c5.881 7.635 9.121 17.147 9.121 26.786v118.326c0 12.637 10.281 22.918 22.918 22.918h98.291c12.637 0 22.918-10.281 22.918-22.918v-32.566a7.5 7.5 0 0 0-15 0v32.566c0 4.366-3.552 7.918-7.918 7.918H271.39v-73.459a7.5 7.5 0 0 0-15 0V497h-52.374c-4.366 0-7.918-3.552-7.918-7.918V370.755c0-12.932-4.346-25.695-12.237-35.939l-10.695-13.885a75.4 75.4 0 0 0 19.671-18.746c.643.265 1.29.516 1.937.77l10.727 13.926c6.845 8.886 10.615 19.958 10.615 31.175v5.842a7.5 7.5 0 0 0 15 0v-5.842c0-13.696-4.349-27.221-12.282-38.362a126 126 0 0 0 21.545 1.838c5.403 0 10.743-.341 16.011-1.009v74.794a7.5 7.5 0 0 0 13.76 4.13l52.017-78.829c7.307.019 14.629-1.436 21.441-4.444a52.3 52.3 0 0 0 6.971 14.138l-30.766 47.099a58.75 58.75 0 0 0-9.588 32.208v20.606a7.5 7.5 0 0 0 15 0V399.62a43.8 43.8 0 0 1 7.146-24.005l28.794-44.08a52.5 52.5 0 0 0 24.694 10.676c2.621.396 5.232.589 7.817.589 20.234 0 38.86-11.788 47.519-30.025a52.45 52.45 0 0 0 46.432-6.66c23.834-16.484 29.818-49.286 13.335-73.124M271.388 360.333v-52.668a124 124 0 0 0 20.014-6.976c4.473 3.245 9.379 5.681 14.498 7.343zM175.026 171.405c-7.978 11.26-20.956 17.983-34.716 17.983s-26.738-6.723-34.716-17.983a7.502 7.502 0 0 0-12.24 8.672c10.786 15.223 28.339 24.311 46.956 24.311s36.17-9.088 46.955-24.311a7.5 7.5 0 0 0-12.239-8.672"/><path d="M286.854 214.591c-5.279 7.45-13.864 11.898-22.966 11.898s-17.687-4.448-22.966-11.898a7.502 7.502 0 0 0-12.24 8.672c8.085 11.413 21.246 18.226 35.205 18.226s27.12-6.813 35.206-18.226a7.5 7.5 0 0 0-12.239-8.672"/></svg>