<svg xmlns="http://www.w3.org/2000/svg" width="512" height="512"><path fill="#158f5e" d="M469.503 234.812c-19.865 15.143-44.066 20.641-66.969 17.249-23.844-3.532-40.291-25.796-37.075-49.684l.016-.118c-23.718-3.199-40.915-24.695-38.141-48.467 2.611-22.377 13.604-43.755 32.274-58.851 29.762-24.067 70.005-25.716 100.91-7.645 8.776 5.132 18.557 8.308 28.632 9.667 6.789.916 11.549 7.161 10.634 13.95l-.001.009c-1.37 10.157-.814 20.497 1.801 30.407 8.901 33.736-2.609 71.018-32.081 93.483"/><path fill="#0f7a4f" d="M469.503 234.812c-19.865 15.143-44.072 20.642-66.972 17.244-16.32-2.413-29.181-13.621-34.64-28.102a43 43 0 0 0 9.108 2.379c22.9 3.399 47.107-2.101 66.972-17.244 29.467-22.462 40.979-59.747 32.078-93.487-1.926-7.292-2.726-14.802-2.473-22.322 5.044 1.751 10.258 2.967 15.574 3.684 3.395.467 6.285 2.254 8.209 4.778s2.881 5.784 2.425 9.172l.007.01c-1.378 10.154-.819 20.498 1.79 30.402 8.901 33.74-2.611 71.024-32.078 93.486"/><path fill="#2db181" d="M367.822 174.195c-10.242 22.782-28.894 39.153-50.644 47.091-22.643 8.263-47.715-3.466-56.278-25.998l-.042-.111c-22.374 8.496-47.739-2.201-56.634-24.419-8.373-20.915-8.903-44.948.311-67.119 14.687-35.345 49.276-55.981 85.058-54.831 10.161.327 20.273-1.544 29.777-5.153 6.404-2.432 13.567.788 15.998 7.192l.003.008c3.638 9.581 9.057 18.406 16.08 25.87 23.91 25.41 31.566 63.67 16.371 97.47"/><path fill="#1ca56f" d="M367.822 175.368c-10.242 22.782-28.899 39.157-50.649 47.088-15.496 5.659-32.145 1.939-43.848-8.187a43 43 0 0 0 9.14-2.252c21.75-7.931 40.407-24.307 50.649-47.088 15.193-33.794 7.537-72.057-16.375-97.471-5.17-5.491-9.454-11.712-12.816-18.442 5.269-.866 10.431-2.283 15.446-4.187 3.207-1.208 6.6-1.015 9.494.286s5.29 3.71 6.504 6.906l.011.005c3.629 9.582 9.053 18.409 16.068 25.871 23.912 25.415 31.569 63.677 16.376 97.471"/><path fill="#d5887a" d="M147.007 469.154C69.959 469.154 7.5 406.695 7.5 329.648v-94.984c0-77.047 62.459-139.506 139.506-139.506s139.506 62.459 139.506 139.506v94.984c.001 77.047-62.458 139.506-139.505 139.506"/><path fill="#c86f5c" d="M286.512 234.668v94.984c0 50.812-27.171 95.284-67.773 119.675-25.551-24.941-41.422-59.752-41.422-98.274 0-65.803 46.282-120.795 108.074-134.186a141 141 0 0 1 1.121 17.801"/><path fill="#c86f5c" d="M286.512 234.663v94.981c0 77.053-62.455 139.508-139.508 139.508-8.836 0-17.485-.827-25.867-2.398 64.678-12.13 113.618-68.904 113.618-137.11v-94.981c0-38.521-15.611-73.398-40.861-98.647-19.441-19.441-44.609-33.177-72.757-38.451a139.3 139.3 0 0 1 25.867-2.41c38.521 0 73.398 15.622 98.648 40.861 25.25 25.249 40.86 60.127 40.86 98.647"/><circle cx="330.347" cy="328.794" r="137.288" fill="#e99d8f"/><path fill="#d5887a" d="M467.632 328.789c0 75.822-61.466 137.288-137.288 137.288-18.042 0-35.277-3.476-51.058-9.811a130 130 0 0 0 23.372 2.105c71.56 0 129.571-58.01 129.571-129.581 0-71.56-58.01-129.571-129.571-129.571-8 0-15.822.723-23.413 2.115 15.79-6.346 33.036-9.832 51.099-9.832 75.823-.001 137.288 61.465 137.288 137.287"/><circle cx="330.347" cy="328.791" r="109.84" fill="#99d53b"/><path fill="#8dc637" d="M440.187 328.787c0 60.67-49.173 109.843-109.843 109.843-9.33 0-18.377-1.162-27.026-3.351 55.131-4.209 98.555-50.272 98.555-106.492 0-56.209-43.424-102.272-98.555-106.482a110 110 0 0 1 27.026-3.351c60.67 0 109.843 49.173 109.843 109.833"/><path fill="#fff1e2" d="M335.373 299.988c4.269-4.729 12.113-1.48 11.788 4.883-.205 4.007 3.1 7.312 7.107 7.107 6.363-.325 9.612 7.518 4.883 11.788-2.978 2.689-2.978 7.363 0 10.051 4.729 4.269 1.48 12.113-4.883 11.788-4.007-.205-7.312 3.1-7.107 7.107.325 6.363-7.518 9.612-11.788 4.883-2.689-2.978-7.363-2.978-10.051 0-4.269 4.729-12.113 1.48-11.788-4.883.205-4.007-3.1-7.312-7.107-7.107-6.363.325-9.612-7.518-4.883-11.788 2.978-2.689 2.978-7.363 0-10.051-4.729-4.269-1.48-12.113 4.883-11.788 4.007.205 7.312-3.1 7.107-7.107-.325-6.363 7.518-9.612 11.788-4.883 2.688 2.978 7.362 2.978 10.051 0"/><path d="M508.835 139.415c-2.332-8.835-2.881-18.053-1.633-27.397q.008-.05.015-.103c1.466-10.877-6.19-20.919-17.064-22.385-9.448-1.274-18.144-4.205-25.849-8.709-30.787-18-68.946-17.447-99.034.963a97.5 97.5 0 0 0-8.357-10.2c-6.27-6.663-11.15-14.513-14.507-23.332l-.025-.068c-3.897-10.26-15.416-15.437-25.674-11.542-8.911 3.386-17.949 4.959-26.872 4.669-19.358-.636-38.259 4.524-54.682 14.882-15.775 9.949-28.149 24.075-35.98 41.012-16.53-6.28-34.14-9.549-52.165-9.549C65.947 87.657 0 153.604 0 234.664v94.983c0 81.06 65.947 147.007 147.007 147.007a146.8 146.8 0 0 0 93.967-33.959 144.64 144.64 0 0 0 89.374 30.886c79.836 0 144.787-64.952 144.787-144.788 0-27.868-7.922-53.917-21.62-76.028a96.5 96.5 0 0 0 20.535-11.988 96.3 96.3 0 0 0 20.91-21.906 7.501 7.501 0 0 0-12.344-8.524 81.4 81.4 0 0 1-17.66 18.5 81.4 81.4 0 0 1-20.214 11.298c-14.592-18.788-33.701-33.898-55.684-43.689l7.492-5.711c7.402 4.04 22.822 10.704 44.023 10.704 2.904 0 5.92-.125 9.035-.399a7.5 7.5 0 0 0 6.814-8.128c-.362-4.127-3.998-7.188-8.128-6.814-16.788 1.477-30.048-2.198-38.312-5.601l26.351-20.087c5.051 1.6 14.505 4.077 27.883 5.425q.383.039.761.039a7.501 7.501 0 0 0 .743-14.963 147 147 0 0 1-14.164-2.105l10.872-8.287a7.501 7.501 0 0 0-9.094-11.93l-32.6 24.851c-.457-8.504-.106-19.592 3.579-27.677a7.5 7.5 0 0 0-3.714-9.935 7.5 7.5 0 0 0-9.935 3.714c-6.788 14.89-5.189 35.496-4.012 44.633l-15.055 11.476-.033.025-19.114 14.57a146 146 0 0 0-4.111-1.183 97 97 0 0 0 6.326-11.803c12.11-26.935 11.104-57.168-1.648-82.637 25.42-15.596 57.688-16.082 83.717-.861 9.424 5.51 19.993 9.084 31.415 10.625a4.91 4.91 0 0 1 4.211 5.451l-.01.071c-1.529 11.335-.862 22.547 1.982 33.323 3.096 11.733 3.509 24.282 1.194 36.292a7.5 7.5 0 0 0 14.73 2.839c2.737-14.208 2.246-29.062-1.421-42.958m-178.487 44.591c-14.95 0-29.431 2.295-43.085 6.561a146 146 0 0 0-6.308-16.477l1.731-3.849.176.002c9.664 0 29.871-2.003 51.376-16.239a7.5 7.5 0 0 0 2.114-10.394c-2.288-3.454-6.943-4.401-10.394-2.114-14.053 9.303-27.46 12.395-36.348 13.344l13.587-30.221c5.204-1.002 14.694-3.332 27.095-8.525a7.501 7.501 0 0 0-5.793-13.837c-5.1 2.135-9.625 3.724-13.453 4.903l5.605-12.468a7.5 7.5 0 1 0-13.682-6.15l-16.808 37.387c-4.456-7.257-9.434-17.171-10.049-26.035-.287-4.132-3.885-7.241-8.002-6.963a7.5 7.5 0 0 0-6.963 8.002c1.133 16.325 12.363 33.677 17.754 41.146l-6.872 15.286a147 147 0 0 0-13.331-18.279 7.5 7.5 0 1 0-11.393 9.759c11.709 13.671 20.595 29.822 25.881 46.945-45.914 19.788-79.989 62.709-86.5 114.915a7.5 7.5 0 0 0 6.514 8.371c4.102.504 7.859-2.402 8.371-6.514 8.075-64.736 63.437-113.553 128.78-113.553 71.564 0 129.787 58.222 129.787 129.788s-58.222 129.788-129.787 129.788a129.65 129.65 0 0 1-85.54-32.18c-23.438-20.562-38.706-48.801-42.988-79.515-.571-4.103-4.356-6.972-8.464-6.392a7.5 7.5 0 0 0-6.392 8.464c4.441 31.855 19.47 61.315 42.556 83.729-23.358 18.722-52.408 28.966-82.513 28.966-72.788 0-132.006-59.218-132.006-132.006v-94.983c0-72.788 59.218-132.006 132.006-132.006 26.871 0 52.731 8.031 74.784 23.223a7.5 7.5 0 1 0 8.51-12.352 147 147 0 0 0-17.394-10.277c6.621-14.189 17.017-26.025 30.247-34.369 13.879-8.754 29.865-13.098 46.197-12.578 10.901.348 21.906-1.546 32.68-5.638a4.91 4.91 0 0 1 6.309 2.802l.019.05c4.06 10.691 9.991 20.228 17.63 28.347 22.658 24.08 28.543 59.115 14.992 89.255a82 82 0 0 1-8.452 14.584 145 145 0 0 0-22.184-1.703"/><path d="M55.778 197.099a7.5 7.5 0 0 0-7.5 7.5v10.626a7.5 7.5 0 0 0 15 0v-10.626a7.5 7.5 0 0 0-7.5-7.5M98.089 174.702v-10.625a7.5 7.5 0 0 0-7.5-7.5 7.5 7.5 0 0 0-7.5 7.5v10.625a7.5 7.5 0 0 0 15 0M52.64 294.552a7.5 7.5 0 0 0-7.5 7.5v10.625a7.5 7.5 0 0 0 15 0v-10.625a7.5 7.5 0 0 0-7.5-7.5M129.297 197.099a7.5 7.5 0 0 0-7.5 7.5v10.626a7.5 7.5 0 0 0 7.5 7.5 7.5 7.5 0 0 0 7.5-7.5v-10.626a7.5 7.5 0 0 0-7.5-7.5M150.549 343.548a7.5 7.5 0 0 0-7.5 7.5v10.626a7.5 7.5 0 0 0 15 0v-10.626a7.5 7.5 0 0 0-7.5-7.5M94.281 364.942a7.5 7.5 0 0 0-7.5 7.5v10.626a7.5 7.5 0 0 0 7.5 7.5 7.5 7.5 0 0 0 7.5-7.5v-10.626a7.5 7.5 0 0 0-7.5-7.5M94.281 249.44a7.5 7.5 0 0 0-7.5 7.5v10.626a7.5 7.5 0 0 0 7.5 7.5 7.5 7.5 0 0 0 7.5-7.5V256.94a7.5 7.5 0 0 0-7.5-7.5M330.347 446.132c64.702 0 117.341-52.639 117.341-117.34 0-64.702-52.639-117.341-117.341-117.341-64.701 0-117.34 52.639-117.34 117.341 0 64.701 52.639 117.34 117.34 117.34m0-219.68c56.431 0 102.34 45.909 102.34 102.34 0 56.43-45.909 102.339-102.34 102.339-56.43 0-102.339-45.909-102.339-102.339-.001-56.431 45.909-102.34 102.339-102.34"/><path d="M306.024 304.469c-5.789.008-10.887 3.401-13.128 8.81s-1.036 11.413 3.052 15.513c-4.087 4.099-5.292 10.102-3.053 15.51 2.24 5.41 7.337 8.804 13.128 8.813.009 5.789 3.401 10.886 8.811 13.126a14.4 14.4 0 0 0 5.53 1.113c3.68 0 7.253-1.444 9.983-4.165 4.098 4.088 10.103 5.293 15.511 3.052 5.409-2.24 8.803-7.338 8.811-13.126 5.79-.009 10.888-3.402 13.128-8.813 2.239-5.408 1.034-11.411-3.053-15.51 4.088-4.1 5.293-10.104 3.052-15.513s-7.339-8.802-13.128-8.81c-.008-5.789-3.401-10.887-8.811-13.128-5.408-2.241-11.413-1.035-15.511 3.052-4.1-4.087-10.102-5.292-15.512-3.052-5.409 2.24-8.802 7.338-8.81 13.128m10.84 10.839a14.3 14.3 0 0 0 4.143-9.068 14.3 14.3 0 0 0 9.34 3.483 14.3 14.3 0 0 0 9.341-3.483 14.3 14.3 0 0 0 4.143 9.068 14.3 14.3 0 0 0 9.069 4.143c-2.231 2.578-3.484 5.898-3.484 9.341s1.253 6.763 3.484 9.341a14.3 14.3 0 0 0-9.068 4.142 14.3 14.3 0 0 0-4.144 9.068c-2.578-2.23-5.898-3.483-9.341-3.483s-6.761 1.252-9.34 3.483a14.3 14.3 0 0 0-4.144-9.068 14.3 14.3 0 0 0-9.068-4.142c2.231-2.578 3.484-5.898 3.484-9.341s-1.253-6.763-3.484-9.341a14.3 14.3 0 0 0 9.069-4.143M330.348 282.793a7.5 7.5 0 0 0 7.5-7.5v-4.645a7.5 7.5 0 0 0-7.5-7.5 7.5 7.5 0 0 0-7.5 7.5v4.645a7.5 7.5 0 0 0 7.5 7.5M330.348 374.79a7.5 7.5 0 0 0-7.5 7.5v4.645a7.5 7.5 0 0 0 7.5 7.5 7.5 7.5 0 0 0 7.5-7.5v-4.645a7.5 7.5 0 0 0-7.5-7.5M362.872 296.266c1.465 1.464 3.385 2.196 5.304 2.196s3.839-.732 5.304-2.196l3.284-3.284a7.502 7.502 0 0 0-10.608-10.608l-3.284 3.284a7.503 7.503 0 0 0 0 10.608M297.822 361.317a7.503 7.503 0 0 0-10.608 0l-3.284 3.284a7.502 7.502 0 0 0 10.608 10.608l3.284-3.284a7.5 7.5 0 0 0 0-10.608M388.491 321.292h-4.645a7.5 7.5 0 0 0 0 15h4.645a7.5 7.5 0 0 0 0-15M272.204 336.292h4.645a7.5 7.5 0 0 0 0-15h-4.645c-4.143 0-7.5 3.358-7.5 7.5s3.357 7.5 7.5 7.5M373.48 361.317a7.502 7.502 0 0 0-10.608 10.608l3.284 3.284c1.465 1.464 3.385 2.196 5.304 2.196s3.839-.732 5.304-2.196a7.5 7.5 0 0 0 0-10.608zM287.214 296.266c1.465 1.464 3.385 2.196 5.304 2.196s3.839-.732 5.304-2.196a7.5 7.5 0 0 0 0-10.608l-3.284-3.284a7.502 7.502 0 0 0-10.608 10.608zM279.419 350.04a7.5 7.5 0 0 0-13.871 5.711l.041.1a7.5 7.5 0 0 0 9.792 4.081 7.5 7.5 0 0 0 4.08-9.791zM381.275 307.543a7.5 7.5 0 0 0 9.792 4.081 7.5 7.5 0 0 0 4.08-9.791l-.041-.1a7.5 7.5 0 0 0-13.871 5.711zM309.465 379.872l-.101-.042a7.5 7.5 0 0 0-5.78 13.842l.101.042a7.5 7.5 0 0 0 9.811-4.031 7.5 7.5 0 0 0-4.031-9.811M351.229 277.711l.101.042a7.5 7.5 0 0 0 9.811-4.031 7.5 7.5 0 0 0-4.031-9.811l-.101-.042a7.5 7.5 0 1 0-5.78 13.842M351.695 379.679l-.1.041a7.502 7.502 0 0 0 5.712 13.872l.1-.041a7.502 7.502 0 0 0-5.712-13.872M306.146 278.47a7.5 7.5 0 0 0 2.853-.566l.1-.041a7.501 7.501 0 0 0-5.711-13.871l-.1.041a7.502 7.502 0 0 0 2.858 14.437M391.239 345.642a7.5 7.5 0 0 0-9.811 4.031l-.042.101a7.5 7.5 0 0 0 13.842 5.78l.042-.101a7.5 7.5 0 0 0-4.031-9.811M269.455 311.941a7.5 7.5 0 0 0 9.811-4.031l.042-.101a7.5 7.5 0 0 0-13.842-5.78l-.042.101a7.5 7.5 0 0 0 4.031 9.811"/></svg>