<svg xmlns="http://www.w3.org/2000/svg" width="512" height="512"><path fill="#a3e440" d="M318.936 381.733c-3.42 49.581-31.921 92.252-72.902 115.433-62.911-17.45-113.442-64.651-135.503-125.493h199.024c5.451-.001 9.761 4.62 9.381 10.06"/><circle cx="300.052" cy="302.961" r="201.539" fill="#bcea73"/><g fill="#a3e440"><path d="M322.671 377.967c-3.58 51.921-34.661 96.272-78.782 118.593-63.201-18.29-113.602-66.691-134.683-128.663H313.29c5.451 0 9.761 4.63 9.381 10.07"/><path d="M501.586 302.966c0 111.302-90.232 201.534-201.534 201.534-34.941 0-67.811-8.9-96.462-24.551 18.96 6.16 39.201 9.49 60.221 9.49 107.502 0 194.654-87.142 194.654-194.654 0-99.012-73.931-180.754-169.594-193.054 3.7-.21 7.43-.31 11.18-.31 111.303 0 201.535 90.232 201.535 201.545"/></g><path fill="#d5887a" d="M365.806 33.59c-13.291 9.778-27.549 17.212-41.797 22.849-8.352 3.313-13.829 11.405-13.829 20.395v46.806c0 1.537-.239 3.023-.688 4.41-10.058-.948-19.417-.698-27.419.05a14.9 14.9 0 0 1-.808-4.869V94.205c0-13.011-11.265-23.189-24.206-21.831-11.754 1.227-21.682 1.537-28.656 1.537-6.246 0-10.108-.24-10.816-.289-7.962-.559-13.969-7.463-13.41-15.426.549-7.962 7.433-13.979 15.396-13.42.758.05 76.021 4.59 129.094-34.473 6.436-4.73 15.486-3.353 20.215 3.073 4.727 6.424 3.35 15.474-3.076 20.214"/><path fill="#d2f0a2" d="M288.554 360.399c5.454 0 9.76 4.627 9.384 10.068-5.169 74.887-67.554 134.032-143.754 134.032S15.599 445.354 10.431 370.467c-.376-5.441 3.93-10.068 9.384-10.068z"/><path fill="#fcb44d" d="M269.475 360.399c0 63.674-51.618 115.291-115.291 115.291S38.893 424.072 38.893 360.399z"/><path fill="#fca62f" d="M269.48 360.398c0 63.67-51.619 115.289-115.299 115.289-4.822 0-9.57-.301-14.242-.874 56.958-7.013 101.047-55.567 101.047-114.415z"/><path fill="#bcea73" d="M297.935 370.466c-5.17 74.885-67.553 134.034-143.754 134.034-5.076 0-10.096-.263-15.041-.78 69.226-7.173 123.891-63.36 128.713-133.254.376-5.443-3.929-10.068-9.382-10.068h30.082c5.453 0 9.758 4.625 9.382 10.068"/><path d="M453.861 161.412a7.5 7.5 0 0 0-11.036 10.16 194 194 0 0 1 32.059 47.167c-6.21 6.665-12.844 11.988-20.087 16.046a272 272 0 0 0-4.096-20.408 7.5 7.5 0 1 0-14.581 3.518 258 258 0 0 1 4.442 23.003c-7.131 2.224-14.826 3.503-23.22 3.878-2.347-29.018-7.493-56.112-15.244-79.711a7.5 7.5 0 0 0-9.466-4.784 7.5 7.5 0 0 0-4.785 9.466c7.143 21.748 12.054 47.496 14.394 74.799-9.315-.633-19.209-2.113-29.663-4.229-.734-20.905-2.027-40.857-3.847-58.994a7.497 7.497 0 0 0-8.211-6.714 7.5 7.5 0 0 0-6.714 8.212c1.674 16.69 2.896 34.957 3.638 54.109-8.381-2.035-17.085-4.383-26.102-6.946.359-7.886.793-15.643 1.321-23.214a7.5 7.5 0 0 0-6.961-8.003c-4.123-.291-7.716 2.828-8.003 6.96a969 969 0 0 0-1.173 19.949c-7.307-2.164-14.8-4.427-22.481-6.748a7.5 7.5 0 0 0-9.349 5.011 7.5 7.5 0 0 0 5.01 9.349c8.975 2.712 17.697 5.347 26.176 7.838-.284 8.248-.474 16.639-.58 25.138-12.023-3.895-23.709-7.983-34.737-11.993-9.875-3.59-19.728-6.09-29.287-7.431-4.103-.561-7.894 2.285-8.469 6.387s2.284 7.894 6.386 8.469c8.523 1.194 17.353 3.44 26.244 6.673 11.578 4.21 25.134 8.981 39.761 13.621.003 5.681.049 11.336.131 16.955-16.172-6.692-31.795-11.547-46.433-14.43a7.496 7.496 0 0 0-8.808 5.909 7.5 7.5 0 0 0 5.909 8.808c13.67 2.693 28.339 7.26 43.601 13.574l6.082 2.514c.187 6.495.427 12.918.721 19.24a7.5 7.5 0 1 0 14.984-.697c-.189-4.057-.354-8.158-.498-12.292 9.342 3.82 18.08 7.346 26.278 10.569-1.009 22.467-2.678 43.592-4.938 61.931a7.5 7.5 0 0 0 14.888 1.835c2.136-17.334 3.751-37.089 4.795-58.083 9.646 3.632 18.513 6.775 26.765 9.429-3.941 24.401-10.051 46.561-17.998 64.545a7.5 7.5 0 0 0 13.72 6.063c8.225-18.614 14.59-41.344 18.755-66.288 7.067 1.917 13.682 3.394 19.997 4.45-3.276 11.155-7.298 21.812-12.066 31.816a7.5 7.5 0 0 0 13.541 6.453c5.462-11.46 10.001-23.708 13.622-36.534 2.312.133 4.596.205 6.857.205 10.981 0 21.459-1.581 32.373-4.749C465.282 435.923 389.672 497 300.052 497c-21.371 0-42.223-3.425-62.169-10.178a152.5 152.5 0 0 0 19.943-15.784c28.053-26.289 44.956-61.823 47.594-100.055a16.98 16.98 0 0 0-4.512-12.715 16.96 16.96 0 0 0-12.355-5.369H227.29c-4.142 0-7.5 3.357-7.5 7.5s3.358 7.5 7.5 7.5h34.42c-3.865 55.95-50.611 100.29-107.526 100.29S50.522 423.848 46.658 367.899H191c4.142 0 7.5-3.357 7.5-7.5s-3.358-7.5-7.5-7.5h-78.475a194 194 0 0 1-5.738-32.676c-.363-4.126-4.004-7.196-8.13-6.813a7.5 7.5 0 0 0-6.813 8.129 209 209 0 0 0 5.206 31.36H19.815c-4.667 0-9.17 1.957-12.355 5.369a16.98 16.98 0 0 0-4.512 12.715c2.639 38.232 19.541 73.766 47.594 100.055 28.186 26.414 64.994 40.961 103.642 40.961 23.455 0 46.228-5.367 66.812-15.484C246.097 506.782 272.683 512 300.052 512c115.265 0 209.039-93.774 209.039-209.04 0-52.597-19.614-102.867-55.23-141.548M60.8 460.093c-25.279-23.689-40.51-55.703-42.887-90.143a1.88 1.88 0 0 1 .512-1.446 1.86 1.86 0 0 1 1.389-.604h11.814c3.89 64.227 57.368 115.291 122.556 115.291S272.85 432.127 276.74 367.899h11.814c.682 0 1.131.329 1.389.604.26.278.561.756.513 1.446-2.377 34.44-17.607 66.454-42.886 90.143-25.396 23.799-58.561 36.906-93.385 36.906-34.825.001-67.99-13.106-93.385-36.905M481.296 233.59a193 193 0 0 1 9.609 34.285c-8.54 8.707-19.628 14.299-32.477 17.46.017-1.323.05-2.641.05-3.968 0-10.393-.536-20.676-1.591-30.796 8.605-4.085 16.734-9.655 24.409-16.981m-38.955 22.386a283 283 0 0 1 1.137 25.392c0 2.183-.033 4.356-.081 6.525-7.808.804-16.068.938-24.647.516.037-2.343.062-4.689.062-7.041 0-7.318-.182-14.553-.517-21.699 8.372-.387 16.382-1.568 24.046-3.693m-39.083 3.589c.361 7.208.552 14.487.552 21.802 0 1.938-.017 3.87-.043 5.801-9.924-1.134-20.144-2.87-30.479-5.053l.002-.747c0-8.654-.094-17.24-.277-25.709 10.542 2.006 20.616 3.375 30.245 3.906m-72.506-14.163c9.371 2.626 18.427 5.008 27.181 7.047.213 8.622.33 17.379.35 26.216-9.374-2.319-18.765-4.935-28.037-7.727.074-8.638.246-17.154.506-25.536m-.311 59.778c-.124-6.153-.201-12.358-.229-18.6 9.12 2.677 18.519 5.22 28.002 7.49-.081 7.473-.234 14.884-.455 22.196-8.462-3.37-17.541-7.066-27.318-11.086m42.138 16.89c.284-8.113.488-16.355.601-24.68 9.521 1.938 19.028 3.525 28.329 4.604.608.071 1.196.119 1.799.185a416 416 0 0 1-2.515 30.063c-8.571-2.826-17.901-6.212-28.214-10.172m42.76 14.622a429 429 0 0 0 2.926-33.341c3.198.148 6.35.247 9.41.247 5.209 0 10.191-.241 14.996-.67-.999 13.259-2.942 26.16-5.754 38.558-6.705-1.041-13.823-2.635-21.578-4.794m36.63 6.211c2.972-13.572 4.938-27.691 5.867-42.166 13.931-2.881 25.777-7.936 35.473-15.163a194.496 194.496 0 0 1-2.083 50.656c-13.438 4.807-25.771 7.05-39.257 6.673"/><path d="M98.679 292.061q.345.03.684.03a7.5 7.5 0 0 0 7.461-6.825c8.136-90.016 77.901-162.507 166.939-174.567v10.806c-12.235 1.753-20.16 4.345-20.937 4.606-3.923 1.315-6.034 5.559-4.724 9.484s5.558 6.046 9.484 4.741c.421-.14 42.622-13.8 83.954 3.056a7.5 7.5 0 0 0 2.83.558 7.5 7.5 0 0 0 2.836-14.447c-10.022-4.087-20.006-6.601-29.527-8.027V109.72c36.092 3.25 70.331 16.467 99.337 38.415a7.46 7.46 0 0 0 4.52 1.52 7.5 7.5 0 0 0 4.531-13.481c-31.615-23.922-69-38.221-108.388-41.513V76.833c0-5.962 3.57-11.232 9.088-13.421 16.017-6.336 30.647-14.337 43.491-23.787 9.74-7.185 11.831-20.956 4.661-30.698-7.171-9.741-20.942-11.838-30.701-4.667-50.53 37.193-123.433 33.076-124.122 33.033-5.842-.415-11.492 1.48-15.91 5.323a21.81 21.81 0 0 0-7.493 15.053 21.8 21.8 0 0 0 5.332 15.936 21.82 21.82 0 0 0 15.035 7.496c.449.031 4.584.309 11.342.309 6.537 0 16.95-.273 29.438-1.578 4.108-.434 8.064.857 11.139 3.628 3.086 2.778 4.785 6.595 4.785 10.744v1.356c-96.893 12.165-173.052 90.692-181.879 188.355a7.5 7.5 0 0 0 6.794 8.146m157.6-227.147c-11.844 1.236-21.697 1.496-27.878 1.496-6.246 0-9.895-.244-10.291-.271a6.92 6.92 0 0 1-4.766-2.376 6.9 6.9 0 0 1-1.687-5.052 6.91 6.91 0 0 1 2.374-4.776c1.393-1.211 3.179-1.803 5.048-1.676.784.054 78.889 4.67 134.026-35.914 3.096-2.273 7.463-1.612 9.734 1.475s1.606 7.454-1.477 9.729c-11.798 8.68-25.294 16.054-40.119 21.918-11.277 4.475-18.563 15.216-18.563 27.367v43.206a153 153 0 0 0-13.916.036V94.205a29.5 29.5 0 0 0-9.746-21.891c-6.185-5.57-14.476-8.274-22.739-7.4M325.446 385.127h.04a7.5 7.5 0 0 0 7.499-7.461c.028-5.526-.09-11.208-.316-15.202-.234-4.136-3.796-7.284-7.912-7.064a7.5 7.5 0 0 0-7.064 7.913c.207 3.648.319 9.118.292 14.275a7.5 7.5 0 0 0 7.461 7.539M109.085 382.639a7.5 7.5 0 0 0-7.184 13.168l5.339 2.913a7.498 7.498 0 0 0 10.177-2.992 7.5 7.5 0 0 0-2.992-10.176zM203.236 380.394a7.5 7.5 0 0 0-7.183 13.168l5.339 2.912a7.498 7.498 0 0 0 10.176-2.993 7.5 7.5 0 0 0-2.993-10.175zM144.341 389.223v-5.339c0-4.143-3.358-7.5-7.5-7.5s-7.5 3.357-7.5 7.5v5.339c0 4.143 3.358 7.5 7.5 7.5s7.5-3.357 7.5-7.5M149.394 420.993a7.5 7.5 0 0 0 7.5-7.5v-5.339c0-4.143-3.358-7.5-7.5-7.5s-7.5 3.357-7.5 7.5v5.339a7.5 7.5 0 0 0 7.5 7.5M171.009 381.956l-6.796 1.456a7.5 7.5 0 0 0 3.143 14.668l6.796-1.456a7.5 7.5 0 0 0-3.143-14.668M220.111 257.897c4.142 0 7.5-3.357 7.5-7.5s-3.358-7.5-7.5-7.5h-4.899c-4.142 0-7.5 3.357-7.5 7.5s3.358 7.5 7.5 7.5zM233.952 296.031h4.899a7.5 7.5 0 0 0 0-15h-4.899a7.5 7.5 0 0 0 0 15"/></svg>