<svg xmlns="http://www.w3.org/2000/svg" width="512" height="512"><path fill="#a3e440" d="M329.313 13.403c-4.741-6.443-13.809-7.821-20.254-3.08-53.193 39.15-128.612 34.596-129.368 34.549-7.986-.564-14.884 5.473-15.437 13.448-.555 7.982 5.466 14.902 13.448 15.456.701.049 4.577.295 10.835.295 6.986 0 16.934-.308 28.722-1.544 12.969-1.359 24.256 8.838 24.256 21.877v15.093c0 7.8 5.994 14.512 13.786 14.879 8.319.392 15.187-6.237 15.187-14.47V76.993c0-9.008 5.488-17.111 13.863-20.43 14.274-5.657 28.569-13.106 41.883-22.905 6.443-4.743 7.821-13.811 3.079-20.255"/><path fill="#5bbd93" d="M209.01 398.583c-3.316 8.441-18.062 29.729 12.4 46.781 28.741 16.089-17.645 30.824 9.377 53.101 27.438 22.62 80.415-21.296 80.415-88.566 0-53.714-85.048-54.951-102.192-11.316"/><path fill="#2db181" d="M311.203 409.903c0 9.854-1.132 19.197-3.165 27.91-11.735-3.284-23.877-4.991-36.122-4.991h-31.833c-10.316 0-20.56 1.212-30.557 3.564-13.895-14.94-3.269-30.796-.518-37.804 17.148-43.631 102.195-42.395 102.195 11.321"/><path fill="#2db181" d="M311.203 409.903c0 67.269-52.975 111.187-80.415 88.562a44 44 0 0 1-2.312-2.049c24.881-3.468 54.21-38.458 54.21-86.378 0-25.431-20.807-38.027-43.089-38.737 30.78-10.642 71.606 1.388 71.606 38.602"/><path fill="#fb4a59" d="M271.913 412.74c18.001 0 35.789 3.686 52.39 10.645a54.5 54.5 0 0 0 21.1 4.225h10.955c30.167 0 54.622-24.455 54.622-54.622 0-13.378-4.81-25.633-12.794-35.129-20.025-23.817-33.868-52.2-38.876-82.912l-13.413-92.708c-5.158-35.649-35.712-62.1-71.731-62.1h-36.331c-36.02 0-66.574 26.452-71.731 62.1l-13.413 92.708c-5.008 30.711-18.851 59.095-38.876 82.912a54.4 54.4 0 0 0-12.794 35.129c0 30.167 24.455 54.622 54.622 54.622h10.955c7.48 0 14.608-1.503 21.1-4.225 16.601-6.959 34.389-10.645 52.39-10.645z"/><path fill="#f82f40" d="M410.979 372.986c0 30.168-24.458 54.626-54.616 54.626h-10.959c-4.41 0-8.699-.53-12.809-1.52 23.978-5.77 41.797-27.358 41.797-53.106 0-6.689-1.2-13.099-3.4-19.019a54.5 54.5 0 0 0-9.399-16.109c-20.018-23.818-33.867-52.206-38.877-82.914l-13.409-92.703c-5.15-35.557-35.557-61.975-71.475-62.105h36.337c36.017 0 66.575 26.458 71.725 62.105l13.419 92.703c5.01 30.708 18.849 59.096 38.877 82.914 3.99 4.75 7.189 10.189 9.389 16.109s3.4 12.33 3.4 19.019"/><path d="m160.092 256.153.02-.133 13.413-92.707a65 65 0 0 1 21.779-39.822 65 65 0 0 1 42.531-15.852h36.331a65 65 0 0 1 42.531 15.852 65 65 0 0 1 21.779 39.822l3.252 22.476a7.5 7.5 0 0 0 14.845-2.148l-3.252-22.476a80 80 0 0 0-26.806-49.014 80 80 0 0 0-48.527-19.415V76.993c0-5.978 3.582-11.261 9.126-13.458 16.069-6.369 30.727-14.389 43.565-23.838 9.763-7.186 11.86-20.976 4.675-30.738A21.83 21.83 0 0 0 320.953.255c-5.805-.884-11.607.548-16.339 4.029-12.868 9.471-28.327 17.095-45.945 22.663a7.5 7.5 0 0 0 4.519 14.301c19.191-6.064 36.121-14.437 50.316-24.885a6.96 6.96 0 0 1 5.194-1.281 6.94 6.94 0 0 1 4.575 2.765 6.94 6.94 0 0 1 1.281 5.193 6.95 6.95 0 0 1-2.766 4.577c-11.802 8.686-25.327 16.079-40.2 21.973-11.298 4.478-18.599 15.234-18.599 27.402V92.64h-14.032a29.56 29.56 0 0 0-9.703-20.16 29.48 29.48 0 0 0-22.776-7.411c-11.855 1.242-21.737 1.503-27.94 1.503-6.148 0-9.906-.249-10.315-.278-1.862-.129-3.562-.976-4.787-2.384s-1.828-3.209-1.699-5.071a6.95 6.95 0 0 1 2.39-4.802c1.399-1.217 3.19-1.809 5.088-1.682.835.055 20.711 1.255 47.624-2.797 4.096-.616 6.916-4.436 6.3-8.532s-4.44-6.924-8.532-6.299c-25.21 3.794-44.252 2.671-44.387 2.663-5.85-.41-11.508 1.479-15.933 5.326-4.437 3.856-7.105 9.213-7.513 15.084a21.84 21.84 0 0 0 5.346 15.955 21.84 21.84 0 0 0 15.062 7.501c.753.053 4.839.314 11.356.314 6.561 0 17.005-.275 29.504-1.585 4.121-.436 8.09.86 11.174 3.638 2.678 2.412 4.309 5.605 4.702 9.117a80 80 0 0 0-48.43 19.409 80 80 0 0 0-26.806 49.014l-13.403 92.639c-4.645 28.41-17.508 55.803-37.204 79.227a62.17 62.17 0 0 0-14.554 39.956 62 62 0 0 0 9.166 32.481 7.49 7.49 0 0 0 10.316 2.463 7.5 7.5 0 0 0 2.462-10.316 47 47 0 0 1-6.946-24.628 47.15 47.15 0 0 1 11.035-30.302c21.449-25.509 35.467-55.431 40.538-86.53M271.916 405.241H240.09l-5.39.098c-24.399 0-36.577-13.624-42.496-25.053a7.5 7.5 0 1 0-13.318 6.898c3.628 7.005 10.258 16.694 21.418 23.789a147 147 0 0 0-15.503 5.496c-5.763 2.416-11.886 3.641-18.2 3.641h-10.955a47 47 0 0 1-15.971-2.779 7.5 7.5 0 0 0-9.597 4.513 7.5 7.5 0 0 0 4.514 9.597 62 62 0 0 0 21.055 3.668h10.955c8.316 0 16.39-1.617 23.999-4.807a133 133 0 0 1 5.625-2.205c2.645 9.213 9.743 17.139 21.223 23.635.287.184.931.584 1.86 1.109 1.921 1.223 4.332 3.067 4.399 4.661.078 1.868-1.686 5.1-3.392 8.226-4.762 8.725-12.732 23.325 5.706 38.526C232.26 509.4 239.637 512 247.623 512c5.471 0 11.23-1.222 17.101-3.681 12.957-5.43 25.366-16.572 34.942-31.374 9.123-14.104 15.178-30.662 17.7-48.251 1.35.515 2.698 1.045 4.038 1.607 7.609 3.19 15.684 4.807 24 4.807h10.955c34.254 0 62.121-27.867 62.121-62.121a62.18 62.18 0 0 0-14.553-39.956c-19.695-23.423-32.559-50.818-37.204-79.226l-4.987-34.468a7.5 7.5 0 0 0-14.845 2.148l4.997 34.535q.009.066.021.133c5.071 31.099 19.088 61.021 40.538 86.531a47.15 47.15 0 0 1 11.035 30.303c0 25.983-21.139 47.122-47.122 47.122h-10.955c-6.314 0-12.438-1.225-18.201-3.641a147 147 0 0 0-14.214-5.115c11.531-7.126 18.344-17.037 22.038-24.17a7.5 7.5 0 0 0-3.21-10.109 7.503 7.503 0 0 0-10.108 3.211c-5.919 11.429-18.097 25.053-42.496 25.053zm-12.989 89.244c-6.406 2.683-15.66 4.549-23.37-1.806-8.877-7.318-6.748-11.219-2.082-19.766 1.907-3.493 4.537-8.324 5.068-13.628q1.504.137 2.955.137c4.748 0 9.062-1.1 12.783-3.297 9.142-5.391 11.14-13.814 11.797-16.582a7.5 7.5 0 0 0-5.565-9.029 7.5 7.5 0 0 0-9.028 5.566c-.709 2.988-1.8 5.342-4.824 7.125-5.542 3.271-15.063-.699-19.629-3.225a48 48 0 0 0-1.959-1.162c-10.168-5.692-13.459-11.241-14.528-15.061a126 126 0 0 1 29.542-3.52h31.826c10.442 0 20.783 1.295 30.918 3.854-3.537 27.892-19.267 60.07-43.904 70.394"/><path d="M224.747 132.265c-1.459.867-35.729 21.914-35.729 82.062 0 71.665-7.84 99.137-14.417 109.565a7.499 7.499 0 0 0 6.336 11.501 7.49 7.49 0 0 0 6.35-3.5c11.258-17.847 16.731-56.303 16.731-117.566 0-51.052 27.193-68.428 28.431-69.192a7.5 7.5 0 0 0-7.702-12.87M322.983 214.327c0-60.148-34.27-81.195-35.729-82.062-3.561-2.115-8.186-.958-10.301 2.603s-.967 8.148 2.594 10.264c1.161.713 28.437 18.065 28.437 69.195 0 61.263 5.473 99.719 16.731 117.566a7.49 7.49 0 0 0 10.344 2.343 7.5 7.5 0 0 0 2.342-10.344c-6.578-10.428-14.418-37.901-14.418-109.565"/></svg>