<svg xmlns="http://www.w3.org/2000/svg" width="512" height="512"><path fill="#a3e440" d="M235.14 184.214s-8.078-76.098 72.462-118.551c39.42-20.779 62.75-39.528 76.297-53.256 8.942-9.062 24.363-4.927 27.497 7.413 15.316 60.318 24.677 186.898-176.256 164.394"/><path fill="#8dc637" d="M411.398 19.811c12.538 49.399 21.083 143.235-86.564 163.24 73.62-31.17 65.628-110.008 54.492-153.845-.827-3.285-2.539-5.994-4.761-8.014a186 186 0 0 0 9.326-8.783c8.945-9.059 24.373-4.921 27.507 7.402"/><path fill="#fb4a59" d="M473.559 268.867c0-47.775-27.411-132.561-139.859-132.561-154.764 0-275.879 191.923-106.283 362.197 5.184 5.205 6.937 5.987 8.766 5.987 45.968 0 237.376-69.573 237.376-235.623"/><path fill="#f82f40" d="M473.56 268.868c0 166.047-191.412 235.619-237.373 235.619-1.829 0-3.582-.782-8.766-5.978a407 407 0 0 1-10.557-11.024c69.08-17.443 209.877-88.895 209.877-231.306 0-35.896-15.463-92.666-70.846-118.686 93.927 10.406 117.665 86.915 117.665 131.375"/><path fill="#fb8189" d="M38.442 262.787c0-47.775 33.452-132.29 145.901-132.29 155.5 0 234.305 199.37 60.42 370.366a12.63 12.63 0 0 1-13.823 2.611c-34.11-14.569-192.498-72.147-192.498-240.687"/><path fill="#fb6672" d="M244.763 500.868a12.67 12.67 0 0 1-13.824 2.611c-5.373-2.295-13.836-5.663-24.28-10.355 155.793-160.939 92.174-343.761-46.175-361.268 7.53-.895 15.476-1.362 23.863-1.362 155.492-.001 234.296 199.369 60.416 370.374"/><path d="M353.223 452.594c-32.766 20.738-65.888 33.74-89.912 39.978 36.065-38.593 61.426-79.797 75.472-122.705 14.179-43.315 15.932-86.823 5.069-125.818a7.5 7.5 0 0 0-14.449 4.025c10.065 36.133 8.379 76.635-4.876 117.127-14.96 45.701-43.566 89.545-85.024 130.315a5.11 5.11 0 0 1-5.619 1.06c-1.604-.686-3.481-1.465-5.6-2.345-21.757-9.038-67.031-27.843-107.448-64.257-49.696-44.772-74.894-101.023-74.894-167.188 0-10.166 2.036-45.855 28.229-78.246a7.5 7.5 0 1 0-11.663-9.431c-19.765 24.441-31.565 57.218-31.565 87.677 0 70.594 26.867 130.594 79.855 178.333 42.328 38.135 89.206 57.606 111.735 66.964 2.067.858 3.897 1.618 5.462 2.287a20.2 20.2 0 0 0 7.932 1.63c.08 0 .16-.011.24-.012l.017.001c24.842 0 77.116-16.375 125.062-46.722a7.5 7.5 0 0 0 2.326-10.347 7.5 7.5 0 0 0-10.349-2.326"/><path d="M451.74 180.097c-11.996-15.589-27.206-27.835-45.205-36.412 11.591-16.815 18.084-37.562 19.323-61.813 1.003-19.65-1.417-41.149-7.194-63.898C416.523 9.538 410.227 3.14 401.825.86c-8.431-2.289-17.127.061-23.264 6.28-11.861 12.02-34.405 30.779-74.455 51.889-32.003 16.87-55.163 41.66-67.282 71.906-16.596-5.225-34.293-7.937-52.48-7.937-36.774 0-68.247 8.752-93.544 26.011a7.5 7.5 0 0 0 8.454 12.39c22.76-15.529 51.388-23.402 85.09-23.402 29.198 0 55.846 7.154 79.204 21.264 22.246 13.438 40.616 33.044 53.124 56.7a7.5 7.5 0 0 0 10.135 3.124 7.5 7.5 0 0 0 3.124-10.135c-12.126-22.934-29.285-42.424-49.975-56.889a178.6 178.6 0 0 1 53.744-8.254c47.235 0 82.95 15.288 106.155 45.439 24.315 31.596 26.205 68.932 26.205 79.623 0 33.802-8.314 65.713-24.712 94.848-14.066 24.992-34.052 48.002-59.402 68.39a7.5 7.5 0 0 0 9.4 11.689c58.691-47.203 89.713-107.691 89.713-174.927-.001-15.239-2.858-54.389-29.319-88.772m-123.178-51.22c10.054-6.061 19.173-12.424 27.463-19.73 2.63-.014 6.984-.12 11.904-.589 11.15-1.062 19.495-3.447 24.807-7.086a7.5 7.5 0 0 0-8.478-12.374c-2.72 1.863-7.486 3.12-12.681 3.916 6.588-8.084 12.546-17.308 17.942-28.18a7.5 7.5 0 0 0-3.383-10.052 7.497 7.497 0 0 0-10.052 3.383C365.6 79.286 352.89 93.486 336.731 105.48c1.139-4.466 2.022-9.306 2.325-14.248a7.5 7.5 0 0 0-7.027-7.945c-4.13-.229-7.691 2.893-7.945 7.027-.748 12.211-6.082 24.237-8.244 28.666-8.117 4.669-16.939 9.277-26.579 14.182q-1.469.749-2.896 1.497a196 196 0 0 0-22.98 7.322 158 158 0 0 0-12.475-5.898c10.898-27.017 31.119-48.462 60.187-63.784 33.516-17.666 59.805-36.044 78.139-54.623 2.284-2.315 5.519-3.193 8.659-2.339 1.492.405 5.088 1.833 6.229 6.33 7.202 28.359 14.936 80.397-11.885 116.199-17.416-6.007-37.031-9.058-58.541-9.058-1.714-.002-3.426.025-5.136.069"/></svg>