<svg xmlns="http://www.w3.org/2000/svg" width="512" height="512" viewBox="0 0 512.054 512.054"><path fill="#0f7a4f" d="m143.671 52.388-4.598-10.025c-8.319-18.138-29.169-26.851-47.92-20.026l-28.73 10.457c-18.751 6.825-29.122 26.901-23.836 46.143l2.922 10.638a328.8 328.8 0 0 1-6.725 195.752c-12.083 34.509-12.817 73.231.547 110.285 30.795 85.383 125.787 129.972 211.139 99.091 85.746-31.023 129.995-125.736 98.821-211.384-13.674-37.569-39.586-67.142-71.596-85.861-57.343-33.532-102.329-84.691-130.024-145.07"/><g fill="#0c6842"><path d="M246.465 494.7a164 164 0 0 1-32.13 8.08c-49.16-28.72-82.28-82.15-82.1-142.93.11-39.39 14.05-75.52 37.2-103.82a329 329 0 0 0 54.22-94.96 312 312 0 0 0 50.04 36.39c32.01 18.72 57.92 48.29 71.6 85.86 31.17 85.65-13.08 180.36-98.83 211.38"/><path d="M345.29 283.322c31.172 85.643-13.07 180.36-98.821 211.378a163 163 0 0 1-17.296 5.205c74.269-36.774 110.555-124.315 81.551-204.001-13.675-37.571-39.591-67.139-71.597-85.86-57.344-33.539-102.336-84.69-130.03-145.071L104.5 54.947c-7.877-17.189-27.01-25.91-44.952-20.969a37 37 0 0 1 2.873-1.178l28.735-10.46c18.754-6.826 39.595 1.884 47.919 20.021l4.597 10.026c27.694 60.382 72.677 111.536 130.021 145.075 32.015 18.717 57.922 48.289 71.597 85.86"/></g><path fill="#158f5e" d="m375.997 53.7-.892-10.993C373.491 22.819 356.879 7.5 336.925 7.5h-30.574c-19.954 0-36.566 15.319-38.181 35.208l-.892 10.995a328.8 328.8 0 0 1-73.271 181.646c-23.158 28.295-37.09 64.431-37.206 103.821-.265 90.766 73.748 165.155 164.514 165.329 91.185.174 165.159-73.692 165.159-164.837 0-39.98-14.235-76.632-37.912-105.17C406.147 183.37 381.371 119.91 375.997 53.7"/><path fill="#0f7a4f" d="M486.473 339.665c0 91.14-73.969 165.013-165.157 164.831a163 163 0 0 1-18.033-1.025c82.368-9.155 146.406-79.006 146.406-163.806 0-39.982-14.24-76.631-37.914-105.169-42.414-51.129-67.198-114.583-72.571-180.795l-.891-10.994c-1.523-18.847-16.52-33.585-35.069-35.079a37 37 0 0 1 3.103-.124h30.578c19.957 0 36.563 15.313 38.182 35.203l.891 10.994c5.372 66.212 30.147 129.666 72.561 180.795 23.683 28.538 37.914 65.187 37.914 105.169"/><path fill="#fee265" d="M321.371 475.77c-36.214-.069-70.335-14.354-96.078-40.22-25.747-25.872-39.868-60.07-39.762-96.295.093-31.638 10.711-61.276 30.708-85.709 46.219-56.473 73.77-124.774 79.674-197.52l.892-10.996c.401-4.935 4.594-8.801 9.546-8.801h30.573c4.952 0 9.144 3.866 9.546 8.802l.892 10.992c5.972 73.591 33.321 141.649 79.09 196.813 20.18 24.323 31.293 55.158 31.293 86.826 0 36.357-14.157 70.537-39.865 96.244-25.705 25.706-59.885 39.863-96.239 39.863z"/><path fill="#fdd330" d="M457.743 339.665c0 36.353-14.154 70.531-39.867 96.244-25.703 25.703-59.882 39.857-96.234 39.857h-.268a137 137 0 0 1-16.424-1.015c29.994-3.677 57.746-17.142 79.447-38.842 25.703-25.713 39.867-59.892 39.867-96.244 0-31.67-11.118-62.506-31.296-86.83-45.766-55.161-73.117-123.221-79.093-196.807l-.891-10.994c-.364-4.443-3.792-8.015-8.092-8.686a9 9 0 0 1 1.456-.115h30.578c4.951 0 9.146 3.859 9.548 8.801l.891 10.994c5.966 73.586 33.317 141.646 79.093 196.807 20.177 24.324 31.285 55.161 31.285 86.83"/><circle cx="321.638" cy="343.169" r="81.235" fill="#c86f5c"/><path fill="#ba5d4f" d="M402.87 343.17c0 44.866-36.372 81.238-81.228 81.238-8.571 0-16.826-1.322-24.573-3.792 39.886-3.294 71.221-36.716 71.221-77.445 0-40.739-31.334-74.151-71.221-77.445 7.747-2.471 16.002-3.792 24.573-3.792 44.856-.002 81.228 36.37 81.228 81.236"/><path d="M432.224 248.048c-44.779-53.971-71.539-120.582-77.387-192.632l-.893-10.991c-.714-8.801-8.19-15.695-17.021-15.695H306.35c-8.829 0-16.306 6.894-17.021 15.694l-.892 10.996c-5.78 71.218-32.753 138.086-78.003 193.376-21.102 25.782-32.307 57.055-32.404 90.438-.111 38.23 14.786 74.315 41.946 101.606 22.529 22.638 50.95 36.853 82.192 41.106a7.5 7.5 0 1 0 2.023-14.863c-27.952-3.806-53.396-16.539-73.583-36.823-24.333-24.45-37.679-56.762-37.579-90.983.088-29.895 10.12-57.896 29.012-80.98 47.189-57.659 75.318-127.394 81.347-201.663l.892-10.994c.084-1.035 1.032-1.909 2.07-1.909h30.573c1.038 0 1.985.874 2.069 1.909l.893 10.991c6.099 75.138 34.036 144.641 80.794 200.996 19.065 22.979 29.565 52.114 29.565 82.037 0 34.354-13.378 66.65-37.669 90.94-20.257 20.258-45.871 32.903-74.072 36.57a7.5 7.5 0 0 0 1.934 14.875c31.515-4.098 60.127-18.22 82.745-40.838 27.125-27.123 42.063-63.188 42.063-101.548.001-33.413-11.726-65.949-33.021-91.615"/><path d="M454.335 229.704c-40.991-49.406-65.494-110.477-70.861-176.61v-.001l-.893-10.991C380.665 18.493 360.61 0 336.924 0h-30.573c-23.686 0-43.74 18.493-45.656 42.102l-.893 10.995c-2.999 36.96-12.221 72.642-27.173 105.85-34.444-29.651-62.752-67.414-82.14-109.686l-4.599-10.024c-9.873-21.529-35.043-32.05-57.303-23.946L59.858 25.746c-22.257 8.102-34.777 32.339-28.503 55.178l2.922 10.637a322 322 0 0 1 10.824 64.766 7.5 7.5 0 0 0 7.96 7.011 7.5 7.5 0 0 0 7.011-7.96 337 337 0 0 0-11.33-67.789L45.82 76.951c-4.22-15.36 4.2-31.661 19.169-37.109l28.729-10.456c14.971-5.446 31.897 1.626 38.537 16.104l4.599 10.024c20.856 45.471 51.597 85.978 89.058 117.412a322.2 322.2 0 0 1-37.708 57.673c-24.971 30.51-38.787 69.06-38.902 108.549-.135 45.909 17.733 89.221 50.313 121.957 11.372 11.427 24.043 21.061 37.671 28.774-37.516 11.741-77.604 9.006-113.646-7.907-38.181-17.916-67.037-49.49-81.252-88.905-12.23-33.912-12.417-71.295-.523-105.262a336 336 0 0 0 18.508-95.315 7.5 7.5 0 0 0-7.139-7.845c-4.145-.154-7.649 3.002-7.844 7.14a321.1 321.1 0 0 1-17.684 91.063c-13.028 37.211-12.826 78.162.571 115.309 15.575 43.187 47.18 77.775 88.99 97.396 23.395 10.978 48.35 16.502 73.357 16.502 19.679 0 39.392-3.422 58.398-10.298a177 177 0 0 0 7.017-2.728c20.452 8.466 42.527 12.929 65.263 12.972h.338c45.971 0 89.199-17.878 121.743-50.359 32.625-32.563 50.593-75.883 50.593-121.978-.001-40.1-14.079-79.15-39.641-109.96m-21.549 221.319C403.073 480.68 363.612 497 321.639 497h-.309c-41.889-.08-81.34-16.585-111.085-46.475-29.75-29.896-46.067-69.434-45.944-111.333.105-36.052 12.717-71.243 35.51-99.093 43.476-53.119 69.39-117.365 74.942-185.79l.893-10.995C276.934 27.438 290.421 15 306.351 15h30.573c15.93 0 29.417 12.438 30.705 28.315l.893 10.991c5.617 69.222 31.299 133.186 74.269 184.976 23.334 28.123 36.185 63.772 36.185 100.381-.001 42.083-16.405 81.632-46.19 111.36"/><path d="M410.373 343.169a88.7 88.7 0 0 0-12.042-44.613 7.5 7.5 0 0 0-10.256-2.703 7.5 7.5 0 0 0-2.703 10.256 73.67 73.67 0 0 1 10.001 37.061c0 40.658-33.077 73.735-73.735 73.735-40.657 0-73.734-33.077-73.734-73.735 0-40.657 33.077-73.734 73.734-73.734 14.776 0 29.029 4.353 41.22 12.587a7.501 7.501 0 0 0 8.396-12.43c-14.68-9.916-31.836-15.157-49.616-15.157-48.929 0-88.734 39.806-88.734 88.734s39.806 88.735 88.734 88.735 88.735-39.807 88.735-88.736M132.25 178.194a7.5 7.5 0 0 0-7.165 7.821l.014.313a7.5 7.5 0 0 0 14.986-.656l-.014-.313c-.182-4.137-3.668-7.334-7.821-7.165M147.267 248.397q.166 0 .334-.007a7.5 7.5 0 0 0 7.165-7.821l-.014-.313c-.182-4.139-3.686-7.35-7.821-7.165a7.5 7.5 0 0 0-7.165 7.821l.014.313a7.5 7.5 0 0 0 7.487 7.172M163.69 208.178l.294-.014a7.5 7.5 0 0 0 7.144-7.841c-.193-4.138-3.706-7.313-7.841-7.144l-.294.014a7.5 7.5 0 0 0 .697 14.985"/></svg>