<svg xmlns="http://www.w3.org/2000/svg" width="512" height="512"><path fill="#82b732" d="M147.456 150.736s-.186-70.309 43.078-95.48c10.306-5.996 23.522-2.77 30.047 7.209 6.932 10.603 3.729 24.789-7.032 31.474-17.642 10.96-40.199 30.177-40.199 56.797z"/><circle cx="166.738" cy="300.527" r="159.238" fill="#804d9e"/><g fill="#683983"><path d="M321.821 336.835c-11.04 47.33-43.18 86.54-85.95 107.19-26.33-24.38-43.89-58.07-47.45-95.84-.57-6.08 4.2-11.35 10.31-11.35zM265.025 234.516l-7.974 3.591c-14.333 6.447-29.72 5.92-42.746.198-6.458 10.093-17.76 16.98-30.972 16.98h-33.191c-13.213 0-24.514-6.886-30.972-16.98-13.026 5.722-28.413 6.249-42.746-.198l-7.974-3.591c-16.464-7.403-23.888-25.656-18.935-41.757 29.094-31.642 70.841-51.467 117.222-51.467s88.128 19.824 117.222 51.467c4.955 16.101-2.47 34.355-18.934 41.757"/><path d="M325.981 300.525c0 87.952-71.302 159.243-159.243 159.243-17.375 0-34.102-2.779-49.753-7.93 5.36.571 10.807.868 16.321.868 84.042 0 152.17-68.139 152.17-152.181s-68.128-152.17-152.17-152.17c-5.513 0-10.961.297-16.321.868 15.651-5.151 32.378-7.93 49.753-7.93 87.941-.001 159.243 71.29 159.243 159.232"/></g><path fill="#99d53b" d="m265.027 201.539-7.98 3.591c-30.843 13.88-66.584-4.519-73.207-37.687-3.041-15.228 4.841-30.538 19.002-36.911l8.691-3.911c21.794-9.808 47.473-3.261 61.91 15.784l4.985 6.575c13.459 17.756 6.917 43.416-13.401 52.559"/><path fill="#8dc637" d="m265.025 201.539-7.974 3.591a52.3 52.3 0 0 1-10.379 3.438c14.992-11.203 18.693-33.015 6.81-48.677l-4.986-6.579c-12.268-16.2-32.675-23.35-51.917-19.1a33 33 0 0 1 6.26-3.679l8.688-3.91c21.801-9.808 47.48-3.262 61.911 15.783l4.986 6.579c13.466 17.748 6.92 43.416-13.399 52.554"/><path fill="#99d53b" d="m68.449 201.539 7.98 3.591c30.843 13.88 66.584-4.519 73.207-37.687 3.041-15.228-4.841-30.538-19.002-36.911l-8.691-3.911c-21.794-9.808-47.473-3.261-61.91 15.784l-4.985 6.575c-13.458 17.756-6.916 43.416 13.401 52.559"/><path fill="#8dc637" d="M150.286 160.912a33 33 0 0 1-.648 6.535c-6.623 33.169-42.362 51.566-73.213 37.683l-7.974-3.591a8 8 0 0 1-.681-.33c17.199-5.689 31.258-20.11 35.168-39.693.439-2.186.648-4.371.648-6.524a33.35 33.35 0 0 0-19.176-30.17 51.28 51.28 0 0 1 37.54 1.801l8.688 3.91c12.124 5.459 19.648 17.463 19.648 30.379"/><path fill="#bcea73" d="M183.329 222.304h-33.181c-23.615 0-41.1-21.956-35.813-44.972l5.352-23.298c3.685-16.042 17.962-27.411 34.422-27.411h25.261c16.459 0 30.737 11.37 34.422 27.411l5.352 23.298c5.285 23.016-12.2 44.972-35.815 44.972"/><path fill="#a3e440" d="M183.334 222.308h-30.258c23.614 0 41.099-21.955 35.816-44.976l-5.349-23.295c-3.504-15.233-16.54-26.239-31.928-27.315a31 31 0 0 1 2.493-.099h25.261c16.464 0 30.742 11.368 34.421 27.414l5.349 23.295c5.293 23.021-12.192 44.976-35.805 44.976"/><ellipse cx="420.461" cy="294.118" fill="#f3e9f8" rx="59.22" ry="113.419"/><path fill="#e9d5f4" d="M479.685 294.114c0 62.643-26.516 113.419-59.229 113.419-5.638 0-11.08-1.51-16.243-4.325 24.809-13.532 42.976-57.253 42.976-109.094s-18.167-95.562-42.976-109.094c5.162-2.814 10.604-4.324 16.243-4.324 32.713-.001 59.229 50.786 59.229 113.418"/><path fill="#f3e9f8" d="M349.031 294.114c0 50.259-17.07 92.872-40.7 107.75-5.825 3.683-12.053 5.669-18.519 5.669-32.703 0-59.218-50.776-59.218-113.419 0-62.632 26.516-113.419 59.218-113.419q2.436 0 4.811.372c30.458 4.687 54.408 53.518 54.408 113.047"/><path fill="#e9d5f4" d="M349.031 294.114c0 50.259-17.07 92.872-40.7 107.75-25.781-15.612-44.465-61.805-44.465-116.347 0-44.29 12.322-83.065 30.757-104.449 30.458 4.686 54.408 53.517 54.408 113.046"/><ellipse cx="355.136" cy="285.519" fill="#f3e9f8" rx="63.71" ry="122.019"/><path fill="#e9d5f4" d="M418.843 285.517c0 67.391-28.523 122.016-63.708 122.016-5.225 0-10.304-1.21-15.167-3.486 27.861-13.025 48.542-61.153 48.542-118.53s-20.681-105.505-48.542-118.53c4.862-2.276 9.942-3.486 15.167-3.486 35.185 0 63.708 54.625 63.708 122.016"/><path fill="#975bbb" d="M216.123 312.674c-6.109 0-10.879 5.266-10.306 11.348 7.177 76.156 71.285 135.746 149.319 135.746s142.141-59.59 149.319-135.746c.573-6.082-4.197-11.348-10.306-11.348z"/><path fill="#804d9e" d="M504.454 324.023c-7.18 76.154-71.281 135.745-149.318 135.745-7.873 0-15.612-.61-23.153-1.779 67.246-10.418 119.709-65.498 126.165-133.965.569-6.083-4.2-11.349-10.304-11.349h46.307c6.103-.001 10.872 5.265 10.303 11.348"/><path d="M507.344 311.008a17.88 17.88 0 0 0-13.195-5.833h-7.247c.179-3.669.279-7.367.279-11.057 0-67.805-29.307-120.919-66.719-120.919-8.066 0-15.845 2.433-23.195 7.241-11.724-15.424-26.24-24.44-42.13-24.44s-30.409 9.017-42.133 24.444c-6.436-4.209-13.201-6.594-20.196-7.123.816-10.227-2.099-20.554-8.404-28.872l-4.984-6.574c-16.65-21.962-45.833-29.402-70.964-18.093l-8.694 3.912c-.182.082-.36.176-.541.261a42.6 42.6 0 0 0-6.555-2.742c7.506-9.064 17.237-16.179 24.843-20.904 6.957-4.322 11.762-11.096 13.528-19.074 1.759-7.941.275-16.065-4.177-22.875-8.742-13.37-26.356-17.582-40.095-9.587-27.17 15.807-38.659 46.954-43.501 71.721a42.6 42.6 0 0 0-9.004 3.461c-.182-.085-.362-.18-.545-.263l-8.69-3.909c-25.131-11.313-54.315-3.871-70.964 18.092l-4.985 6.574c-7.803 10.294-10.448 23.376-7.257 35.893a42.6 42.6 0 0 0 2.469 7.032C15.716 218.27 0 258.358 0 300.526c0 38.64 13.521 76.305 38.072 106.057a7.48 7.48 0 0 0 5.789 2.727 7.501 7.501 0 0 0 5.78-12.274C27.303 369.965 15 335.69 15 300.526c0-37.277 13.495-72.766 38.097-100.536a42.2 42.2 0 0 0 12.275 8.39l7.98 3.59c7.932 3.57 16.298 5.357 24.672 5.357 6.235 0 12.471-1.008 18.535-2.993 8.422 9.844 20.567 15.47 33.589 15.47h33.181c13.025 0 25.172-5.629 33.594-15.475a60.2 60.2 0 0 0 18.57 2.95c.842 0 1.684-.023 2.525-.058a146 146 0 0 0-5.063 12.963 7.5 7.5 0 0 0 7.107 9.902 7.505 7.505 0 0 0 7.105-5.102c9.751-28.858 26.092-46.784 42.646-46.784 5.083 0 10.123 1.622 15.027 4.827-12.976 23.337-20.911 55.917-20.911 92.492 0 6.593.27 13.179.8 19.656h-46.341a213 213 0 0 1-.294-11.057c0-8.515.515-17.007 1.53-25.242a7.5 7.5 0 0 0-6.526-8.36c-4.111-.512-7.855 2.415-8.361 6.526a222.3 222.3 0 0 0-1.364 38.133h-7.247a17.88 17.88 0 0 0-13.195 5.833 17.93 17.93 0 0 0-4.578 13.719c3.661 38.849 21.593 74.811 50.491 101.26.462.423.932.834 1.399 1.25-24.791 16.394-53.503 25.028-83.502 25.028-33.652 0-65.53-10.795-92.188-31.219a7.5 7.5 0 0 0-9.123 11.907c29.299 22.447 64.332 34.313 101.311 34.313 34.557 0 67.567-10.422 95.688-30.173 26.813 19.558 59.141 30.176 92.71 30.176 39.458 0 77.207-14.661 106.294-41.281 28.899-26.449 46.83-62.411 50.491-101.26a17.94 17.94 0 0 0-4.58-13.72M194.305 61.739c6.841-3.98 15.626-1.858 19.998 4.83a14.85 14.85 0 0 1 2.087 11.423c-.886 4.002-3.301 7.402-6.798 9.575-15.158 9.417-26.578 20.022-33.989 31.555h-16.736c7.689-34.638 23.285-50.312 35.438-57.383M79.508 198.291l-7.98-3.59c-7.589-3.416-13.121-10-15.177-18.064s-.352-16.492 4.675-23.124l4.985-6.574c12.4-16.359 34.134-21.902 52.857-13.476l2.309 1.039c-4.178 5.033-7.246 11.09-8.8 17.854l-5.352 23.298c-1.972 8.586-1.336 17.355 1.658 25.357-9.698 2.392-19.838 1.482-29.175-2.72m103.821 16.512h-33.181c-8.959 0-17.297-4.02-22.878-11.027s-7.631-16.034-5.626-24.766l5.352-23.298c2.92-12.712 14.068-21.59 27.112-21.59h25.261c13.043 0 24.191 8.878 27.112 21.59l5.352 23.298c2.005 8.731-.045 17.758-5.626 24.766s-13.92 11.027-22.878 11.027m63.675-14.035c-7.25 1.934-14.911 1.995-22.203.221 2.987-7.997 3.621-16.758 1.65-25.336l-5.352-23.298c-1.554-6.764-4.622-12.821-8.8-17.854l2.31-1.04c18.721-8.423 40.454-2.884 52.856 13.477l4.984 6.574c4.776 6.301 6.529 14.077 4.993 21.702-11.334 3.725-21.774 12.534-30.438 25.554m173.457-12.569c28.035 0 51.719 48.505 51.719 105.919 0 3.692-.103 7.393-.294 11.057h-46.344c.53-6.48.804-13.066.804-19.656 0-36.575-7.935-69.154-20.911-92.491 4.904-3.205 9.942-4.829 15.026-4.829m76.527 135.119c-3.312 35.139-19.536 67.67-45.685 91.603-26.314 24.083-60.467 37.347-96.167 37.347s-69.853-13.264-96.167-37.347c-26.149-23.933-42.374-56.464-45.685-91.603a2.86 2.86 0 0 1 .737-2.214 2.82 2.82 0 0 1 2.102-.93h97.376c4.142 0 7.5-3.357 7.5-7.5s-3.358-7.5-7.5-7.5h-13.708a226 226 0 0 1-.865-19.656c0-62.075 25.741-114.518 56.21-114.518s56.21 52.443 56.21 114.518c0 6.601-.302 13.189-.867 19.656h-60.69c-4.142 0-7.5 3.357-7.5 7.5s3.358 7.5 7.5 7.5h144.36a2.82 2.82 0 0 1 2.102.93c.32.352.841 1.108.737 2.214"/></svg>