<svg xmlns="http://www.w3.org/2000/svg" width="512" height="512"><circle cx="301.427" cy="288.075" r="203.073" fill="#1ca56f"/><path fill="#158f5e" d="M320.165 368.038c-3.416 49.636-31.791 92.41-72.67 115.867-63.42-17.422-114.416-64.821-136.816-126.014h200.035c5.491.001 9.834 4.666 9.451 10.147"/><path fill="#158f5e" d="M504.495 288.08c0 112.149-90.918 203.068-203.068 203.068-35.207 0-68.327-8.968-97.196-24.737 19.105 6.207 39.499 9.562 60.679 9.562 108.32 0 196.135-87.805 196.135-196.135 0-99.765-74.494-182.129-170.884-194.523a199 199 0 0 1 11.265-.312c112.151 0 203.069 90.918 203.069 203.077"/><path fill="#a3e440" d="M233.831 287.277c-49.676 37.02-42.411 121.137-30.027 178.905a202.8 202.8 0 0 1-38.24-27.186c.756-26.914-1.592-55.803-11.568-77.225-24.838-53.314 69.385-98.597 9.472-135.194-19.387-11.84-29.826-28.163-35.076-44.829a204.1 204.1 0 0 1 64.972-65.637c-18.126 90.546 114.79 115.777 40.467 171.166"/><path fill="#a3e440" d="M411.486 458.766c-23.921 15.457-51.298 26.017-80.721 30.269-78.938-64.71-49.767-139.093-29.121-184.225 23.367-51.127 4.333-76.691-32.919-121.248-25.07-29.977-19.578-70.212-13.301-93.327a204 204 0 0 1 45.998-5.23 203 203 0 0 1 35.509 3.103c-16.797 21.312-36.446 55.208-12.646 79.391 40.436 41.091 45.283 76.681 17.523 172.365-17.431 60.106 31.147 98.598 69.678 118.902"/><g fill="#99d53b"><path d="M331.53 95.304a195 195 0 0 0-41.35-9.99c3.72-.21 7.47-.31 11.24-.31 12.11 0 23.98 1.06 35.51 3.1-1.79 2.27-3.6 4.67-5.4 7.2M411.49 458.765c-23.92 15.46-51.3 26.02-80.72 30.27-7.45-6.11-13.94-12.3-19.56-18.55 25.19-6.1 48.49-17.07 68.83-31.84 10.24 8.03 21.2 14.72 31.45 20.12M320.165 368.038c-1.945 28.274-11.991 54.311-27.831 75.834-15.82-29.614-15.729-59.39-9.774-85.981h28.153c5.492.001 9.835 4.666 9.452 10.147"/></g><path fill="#a3e440" d="M503.03 312.649c-4.061 33.665-16.364 64.801-34.824 91.311-2.156-29.655-11.819-66.393-40.567-99.604-45.807-52.88-32.556-146.882-22.903-191.137a203.8 203.8 0 0 1 50.795 42.603c-26.561 52.155 7.97 109.026 44.104 152.192a44 44 0 0 1 3.395 4.635"/><path fill="#99d53b" d="M503.03 312.649c-4.061 33.665-16.364 64.801-34.824 91.311-1.39-19.155-5.925-41.273-16.717-63.491v-.01c6.207-19.095 9.552-39.459 9.552-60.619a196.4 196.4 0 0 0-3.184-35.348c10.217 22.783 25.846 44.487 41.776 63.521a44 44 0 0 1 3.397 4.636M446.804 206.354c-10.57-26.138-26.601-49.475-46.694-68.6a441 441 0 0 1 4.625-24.536 203.8 203.8 0 0 1 50.795 42.603c-8.434 16.566-10.711 33.605-8.726 50.533"/><path fill="#d2f0a2" d="M287.762 345.951c5.495 0 9.834 4.662 9.455 10.145-5.208 75.456-68.068 135.051-144.847 135.051S12.73 431.552 7.522 356.095c-.378-5.482 3.96-10.145 9.455-10.145z"/><path fill="#bcea73" d="M297.214 356.094c-5.21 75.455-68.067 135.054-144.848 135.054-5.115 0-10.173-.265-15.155-.786 69.753-7.227 124.833-63.842 129.693-134.268.379-5.484-3.959-10.145-9.453-10.145h30.311c5.493.001 9.831 4.661 9.452 10.145"/><path fill="#fb4a59" d="M268.538 345.951c0 64.158-52.01 116.168-116.168 116.168S36.201 410.109 36.201 345.951z"/><path fill="#f82f40" d="M268.542 345.95c0 64.155-52.011 116.166-116.176 116.166-4.859 0-9.643-.303-14.35-.881 57.392-7.066 101.816-55.99 101.816-115.285z"/><path d="M503.078 227.296a7.5 7.5 0 0 0-14.364 4.324c5.498 18.262 8.285 37.256 8.285 56.455 0 1.569-.023 3.132-.06 4.692-37.677-48.106-50.612-88.367-39.336-122.417a196 196 0 0 1 18.018 28.724 7.5 7.5 0 0 0 10.094 3.258 7.5 7.5 0 0 0 3.258-10.094c-17.353-33.894-43.601-62.494-75.913-82.734-8.698-8.978-13.489-20.766-13.489-33.296 0-.258.015-.513.019-.771a34 34 0 0 0 3.4 3.997c6.575 6.575 15.21 9.861 23.848 9.861 8.635 0 17.273-3.288 23.848-9.861 13.148-13.149 13.148-34.545 0-47.694a34 34 0 0 0-3.94-3.38c12.499-.184 25.057 4.47 34.573 13.987a7.5 7.5 0 0 0 10.607-10.607c-24.52-24.518-64.415-24.518-88.935 0-11.878 11.878-18.42 27.67-18.42 44.468a63 63 0 0 0 3.171 19.759c-26.992-12.133-56.367-18.464-86.317-18.464-116.11 0-210.573 94.462-210.573 210.573 0 17.055 2.039 33.966 6.066 50.375h-79.94a17.03 17.03 0 0 0-12.407 5.393A17.05 17.05 0 0 0 .04 356.613c2.658 38.509 19.683 74.3 47.939 100.778 28.39 26.605 65.463 41.257 104.391 41.257 23.993 0 47.278-5.574 68.263-16.074 25.622 10.658 52.793 16.075 80.795 16.075 116.11 0 210.573-94.462 210.573-210.573-.001-20.666-3.003-41.115-8.923-60.78m-56.446-70.214c-19.423 43.586-3.932 94.601 47.253 155.75.459.547.896 1.112 1.32 1.683a194.1 194.1 0 0 1-22.272 67.467c-5.757-31.053-19.031-58.744-39.627-82.536-18.807-21.712-29.042-53.388-30.423-94.148-.999-29.532 2.864-58.371 7.022-79.967a196.4 196.4 0 0 1 36.727 31.751M426.84 36.862a18.6 18.6 0 0 1 13.24 5.485c7.301 7.3 7.301 19.18.001 26.48-7.303 7.303-19.183 7.301-26.481 0-7.295-7.294-7.3-19.159-.017-26.461l.017-.018.022-.021a18.6 18.6 0 0 1 13.218-5.465M323.477 93.748c-27.644 40.463-18.18 65.15-4.537 79.013 36.215 36.801 44.025 67.263 15.666 165.016-8.46 29.168-3.394 56.41 15.059 80.969 11.092 14.763 26.822 28.242 46.826 40.189a194.1 194.1 0 0 1-63.534 22.159c-23.498-19.963-38.245-42.49-43.882-67.023 8.865-17.768 14.228-37.237 15.624-57.458a17.06 17.06 0 0 0-4.53-12.77 16.9 16.9 0 0 0-4.846-3.584c3.622-10.75 7.762-20.38 11.127-27.882a7.5 7.5 0 0 0-13.685-6.139c-3.817 8.507-8.593 19.654-12.638 32.213h-71.422c5.897-19.715 15.83-34.891 29.609-45.16 15.98-11.909 24.362-23.729 25.627-36.135 1.892-18.557-12.326-34.532-27.378-51.446-19.894-22.354-42.359-47.611-36.419-84.882a194.6 194.6 0 0 1 45.176-20.108c-1.877 9.831-3.21 21.678-2.487 34.044 1.231 21.066 8.007 39.104 20.139 53.609 28.965 34.646 45.135 55.701 40.666 85.569a7.5 7.5 0 0 0 7.427 8.611 7.5 7.5 0 0 0 7.407-6.391c5.411-36.156-13.191-60.57-43.993-97.412-21.626-25.86-18.018-60.971-12.937-82.153a195.7 195.7 0 0 1 39.886-4.094c7.398 0 14.758.423 22.049 1.245m-139.299 37.896c-.612 37.021 22.28 62.802 41.178 84.037 13.352 15.004 24.883 27.961 23.661 39.953-.814 7.989-7.248 16.373-19.668 25.629-17.453 13.007-29.623 32.238-36.23 57.188h-35.64c1.454-13.614 9.428-27.221 17.187-40.428 7.821-13.311 15.208-25.884 16.431-38.82 1.477-15.608-6.282-28.374-23.721-39.025-14.622-8.93-24.939-21.493-30.708-37.373a197.2 197.2 0 0 1 47.51-51.161m-78.323 156.431c0-32.099 7.776-62.416 21.539-89.169 7.297 14.034 18.064 25.459 32.165 34.071 25.315 15.463 18.562 29.556 2.176 57.446-8.461 14.402-17.947 30.555-19.332 48.026h-29.998c-4.346-16.351-6.55-33.281-6.55-50.374m-47.62 158.37c-25.481-23.879-40.835-56.149-43.231-90.866a1.95 1.95 0 0 1 .532-1.501 1.93 1.93 0 0 1 1.441-.627h11.956c1.752 29.278 13.727 56.772 34.18 78.095a7.5 7.5 0 0 0 10.826-10.383c-17.761-18.516-28.253-42.324-29.983-67.712h216.826c-3.864 56.437-51.012 101.168-108.412 101.168-17.975 0-35.783-4.48-51.501-12.958a7.5 7.5 0 0 0-7.12 13.203c17.898 9.652 38.169 14.755 58.621 14.755 65.672 0 119.543-51.457 123.434-116.168h11.958c.707 0 1.175.341 1.441.627.27.289.581.784.531 1.501-2.396 34.717-17.748 66.987-43.23 90.866-25.6 23.99-59.031 37.202-94.134 37.202s-68.535-13.212-94.135-37.202m179.051 26.434a153.6 153.6 0 0 0 41.438-41.157c6.793 18.5 18.303 35.757 34.412 51.566-3.875.23-7.777.36-11.708.36-22.078 0-43.594-3.626-64.142-10.769m173.721-22.892c-37.632-20.733-77.142-55.809-61.995-108.032 28.147-97.022 23.981-135.652-19.381-179.716-8.646-8.785-10.947-19.73-7.034-33.456 2.792-9.791 8.669-20.691 17.472-32.441a194.6 194.6 0 0 1 56.2 20.659c-4.698 22.882-9.509 55.338-8.376 88.806 1.499 44.278 12.964 79.088 34.074 103.458 22.473 25.962 35.425 57.057 38.53 92.459a197.2 197.2 0 0 1-49.49 48.263"/><path d="m99.716 381.579 5.38 2.935a7.5 7.5 0 0 0 7.182-13.168l-5.38-2.935a7.5 7.5 0 1 0-7.182 13.168M194.584 379.316l5.38 2.935a7.498 7.498 0 0 0 10.175-2.993 7.5 7.5 0 0 0-2.993-10.175l-5.38-2.935a7.5 7.5 0 1 0-7.182 13.168M134.895 382.495a7.5 7.5 0 0 0 7.5-7.5v-5.38c0-4.143-3.358-7.5-7.5-7.5s-7.5 3.357-7.5 7.5v5.38a7.5 7.5 0 0 0 7.5 7.5M140.043 394.069v5.38c0 4.143 3.358 7.5 7.5 7.5s7.5-3.357 7.5-7.5v-5.38c0-4.143-3.358-7.5-7.5-7.5s-7.5 3.357-7.5 7.5M164.051 384.032c.52 0 1.049-.055 1.578-.168l6.847-1.467a7.501 7.501 0 0 0-3.141-14.668l-6.847 1.467a7.502 7.502 0 0 0 1.563 14.836"/></svg>