<svg xmlns="http://www.w3.org/2000/svg" width="512" height="512"><path fill="#a3e440" d="M250.957 7.5c-14.437 0-26.14 11.703-26.14 26.14v26.066c0 28.68-18.62 55.517-26.202 65.258h121.969c-39.663-25.695-47.161-77.973-47.161-77.973h55.498c10.906 0 19.746-8.841 19.746-19.746 0-10.906-8.841-19.746-19.746-19.746z"/><g fill="#8dc637"><path d="M348.669 27.247c0 10.907-8.843 19.74-19.751 19.74h-28.856c10.908 0 19.74-8.833 19.74-19.74 0-5.449-2.211-10.394-5.784-13.967s-8.498-5.784-13.957-5.784h28.856a19.68 19.68 0 0 1 13.967 5.784 19.7 19.7 0 0 1 5.785 13.967M320.588 124.964h-28.867c-27.168-17.6-39.246-47.68-44.158-64.882-1.875-6.567 3.071-13.095 9.9-13.095h15.964s7.492 52.285 47.161 77.977"/></g><path fill="#f82f40" d="m309.589 193.655 13.824 249.61c1.248 22.537 19.887 40.172 42.458 40.172 40.44 0 73.834-31.596 76.07-71.974l11.583-209.136c2.418-43.666-32.338-80.4-76.07-80.4-39.016.001-70.023 32.772-67.865 71.728"/><path fill="#e22334" d="m453.519 202.323-11.578 209.14c-1.111 20.191-10.027 38.182-23.711 51.132-13.684 12.94-32.136 20.84-52.358 20.84a42.36 42.36 0 0 1-17.205-3.636 76.3 76.3 0 0 0 29.066-17.205c13.684-12.951 22.59-30.941 23.701-51.132l11.589-209.14c2.012-36.442-21.857-68.054-55.229-77.516a68 68 0 0 1 19.657-2.881c43.734.001 78.489 36.736 76.068 80.398"/><path fill="#fb4a59" d="m202.415 193.655-13.824 249.61c-1.248 22.537-19.887 40.172-42.458 40.172-40.44 0-73.834-31.596-76.07-71.974L58.479 202.327c-2.418-43.666 32.338-80.4 76.07-80.4 39.016.001 70.023 32.772 67.866 71.728"/><path fill="#f82f40" d="M202.52 189.823c0 1.278-.031 2.546-.105 3.835l-13.82 249.605c-1.257 22.538-19.887 40.172-42.467 40.172-.901 0-1.813-.021-2.703-.052-13.978-13.171-23.083-31.507-24.225-52.096l-12.898-233.008c-1.687-30.48 11.568-58.163 33.247-76.175 35.373 2.567 62.971 32.125 62.971 67.719"/><path fill="#fb6672" d="M273.259 504.5H233.04c-41.139 0-75.109-32.142-77.384-73.217l-12.905-233.006c-2.93-52.905 39.181-97.413 92.167-97.413h36.463c52.987 0 95.097 44.507 92.167 97.413l-12.905 233.006c-2.274 41.075-36.245 73.217-77.384 73.217"/><path fill="#fb4a59" d="m363.545 198.279-12.898 233.008c-2.274 41.074-36.254 73.209-77.39 73.209h-40.214c-.492 0-.974 0-1.467-.021 40.267-.985 73.209-32.754 75.452-73.189l12.909-233.008c2.871-51.709-37.301-95.402-88.591-97.34a82 82 0 0 1 3.573-.073h36.463c52.986 0 95.097 44.51 92.163 97.414"/><path d="M449.208 155.068a7.501 7.501 0 0 0-12.856 7.729c7.098 11.803 10.445 25.329 9.683 39.115l-11.582 209.136c-2.016 36.386-32.141 64.888-68.583 64.888a34.87 34.87 0 0 1-19.348-5.834c6.691-11.348 10.834-24.404 11.609-38.405l12.904-233.006c1.283-23.175-5.28-45.405-18.637-63.842a60.5 60.5 0 0 1 25.054-5.421 68.5 68.5 0 0 1 35.866 10.113 7.495 7.495 0 0 0 10.315-2.468 7.5 7.5 0 0 0-2.468-10.316 83.5 83.5 0 0 0-43.713-12.33 75.46 75.46 0 0 0-35.051 8.625c-11.153-11.314-24.484-19.615-39.091-24.518-12.012-15.845-17.968-33.736-20.617-44.042h46.225c15.024 0 27.246-12.223 27.246-27.246S343.944 0 328.92 0h-21.844c-4.143 0-7.5 3.358-7.5 7.5s3.357 7.5 7.5 7.5h21.844c6.753 0 12.246 5.494 12.246 12.246s-5.493 12.246-12.246 12.246h-75.77a7.5 7.5 0 0 0 0 15h14.093c1.878 8.341 6.218 23.657 15.172 39.471-3.635-.394-7.316-.6-11.033-.6h-36.463c-3.26 0-6.491.159-9.689.463 4.702-11.835 7.086-23.272 7.086-34.12V33.641c0-10.278 8.362-18.641 18.64-18.641h19.83c4.143 0 7.5-3.358 7.5-7.5s-3.357-7.5-7.5-7.5h-19.83c-18.549 0-33.64 15.091-33.64 33.641v26.066c0 11.55-3.377 24.159-10.02 37.486-15.465 4.412-29.64 12.556-41.507 23.988-9.81-4.478-20.301-6.753-31.24-6.753-23.233 0-44.822 9.295-60.79 26.171-15.968 16.877-24.054 38.946-22.769 62.144l11.583 209.136c2.456 44.332 39.159 79.059 83.559 79.059 8.639 0 16.982-2.191 24.418-6.364C186.124 501.461 208.408 512 233.04 512h40.219c25.723 0 48.89-11.487 64.522-29.703a49.8 49.8 0 0 0 28.09 8.639c44.4 0 81.103-34.727 83.558-79.059l11.582-209.136c.932-16.799-3.15-33.284-11.803-47.673m-156.64 339.213c5.978-8.431 10.799-19.595 13.954-32.922a7.5 7.5 0 0 0-14.595-3.456C286.39 481.288 274.926 497 263.398 497h-20.496c-11.527 0-22.992-15.712-28.529-39.096a7.5 7.5 0 1 0-14.596 3.456c3.155 13.327 7.977 24.49 13.955 32.922-27.957-8.021-48.903-33.01-50.587-63.413l-8.069-145.711a7.5 7.5 0 1 0-14.977.829l8.069 145.711a84.6 84.6 0 0 0 13.093 40.798 34.8 34.8 0 0 1-15.128 3.442c-36.442 0-66.566-28.502-68.582-64.888L65.968 201.913c-1.055-19.04 5.582-37.154 18.688-51.005 13.106-13.852 30.824-21.48 49.893-21.48 7.174 0 14.102 1.221 20.685 3.625-14.252 18.782-21.297 41.705-19.972 65.639l2.833 51.143c.229 4.136 3.769 7.311 7.903 7.074a7.5 7.5 0 0 0 7.074-7.903l-2.832-51.143c-1.302-23.508 6.892-45.874 23.074-62.977 10.786-11.4 24.111-19.363 38.766-23.421-7.669 9.9-13.891 23.516-17.933 40.019a7.5 7.5 0 0 0 14.57 3.568c6.839-27.926 20.961-46.688 35.141-46.688h18.581c14.181 0 28.304 18.762 35.142 46.688a7.504 7.504 0 0 0 7.279 5.718q.888.002 1.79-.217a7.5 7.5 0 0 0 5.501-9.069c-4.042-16.504-10.264-30.119-17.933-40.019 14.655 4.058 27.98 12.021 38.765 23.421 16.182 17.103 24.377 39.468 23.075 62.977l-12.904 233.005c-1.683 30.403-22.629 55.392-50.586 63.413"/><path d="m405.534 201.908-5.956 107.491a7.5 7.5 0 0 0 7.495 7.915 7.5 7.5 0 0 0 7.482-7.085l5.956-107.491a7.5 7.5 0 0 0-7.073-7.903c-4.157-.252-7.676 2.938-7.904 7.073M121.243 332.502a7.5 7.5 0 0 0-7.903-7.074 7.5 7.5 0 0 0-7.074 7.903l5.445 98.37a7.5 7.5 0 0 0 14.977-.828zM201.616 241.632c-.229-4.136-3.768-7.292-7.903-7.074a7.5 7.5 0 0 0-7.074 7.903l6.194 111.85a7.5 7.5 0 0 0 14.977-.829z"/></svg>