<svg xmlns="http://www.w3.org/2000/svg" width="512" height="512"><path fill="#bcea73" d="M372.764 301.021c-20.263-99.949-85.856-163.992-131.798-197.789H146.07c-45.942 33.796-111.535 97.839-131.798 197.789-31.338 154.581 49.424 197.519 168.85 177.705a63.6 63.6 0 0 1 20.791 0c119.427 19.814 200.188-23.124 168.851-177.705"/><g fill="#a3e440"><path d="M272.832 482.506c-.96-.495-1.92-1.011-2.88-1.527-49.282-26.793-77.221-77.551-77.221-129.961 0-23.841 5.79-48.033 17.979-70.45 13.19-24.254 82.01-12.323 153.709 26.659a416 416 0 0 1 10.61 5.965c19.435 113.705-25.585 162.853-102.197 169.314"/><path d="M224.017 481.499c82.082-5.047 129.765-57.095 104.489-181.813-20.002-98.657-84.167-162.327-130.002-196.458h42.46c45.949 33.801 111.538 97.842 131.798 197.79 29.548 145.741-40.551 192.247-148.745 180.481"/><path d="M332.644 200.812c-.072.052-.155.103-.227.155-27.123 17.804-70.657 24.657-84.198 26.432a11.83 11.83 0 0 1-7.627-1.61l-14.119-8.525a11.74 11.74 0 0 0-9.805-1.094c-67.922 22.654-133.047 3.571-159.85-6.626a11.6 11.6 0 0 1-5.305-4.036c28.362-47.228 65.414-80.843 94.56-102.28h94.89c28.177 20.725 63.733 52.812 91.681 97.584"/></g><path fill="#f5a871" d="M135.702 97.351c-22.538 15.444-47.785 37.555-66.731 67.505-3.494 5.524-1.068 12.861 5.041 15.185 23.432 8.912 80.368 25.597 139.748 5.792a10.29 10.29 0 0 1 8.572.958l12.339 7.454a10.3 10.3 0 0 0 6.672 1.4c11.837-1.547 49.889-7.54 73.604-23.102 5.405-3.547 6.355-11.072 1.91-15.765-12.223-12.906-38.302-38.652-70.581-60.143-33.545-22.334-77.329-22.065-110.574.716"/><path fill="#d68a5a" d="M314.944 172.543c-9.846 6.471-22.169 11.281-34.069 14.81q.62-.387 1.207-.774c5.408-3.55 6.358-11.074 1.92-15.77-12.23-12.901-38.311-38.652-70.585-60.14-22.923-15.265-50.624-19.971-76.478-14.15 33.089-21.953 76.199-21.942 109.339.114 32.273 21.498 58.354 47.239 70.574 60.15 4.45 4.686 3.5 12.22-1.908 15.76"/><path fill="#d68a5a" d="M51.374 82.759c37.361-1.588 172.552-10.166 263.909-53.021 6.402-3.003 13.86 1.116 14.671 8.14l2.315 20.055c1.151 9.973-5.032 19.342-14.665 22.165-33.152 9.717-117.432 29.031-265.72 29.899-5.722.033-10.385-4.602-10.385-10.323v-6.605a10.31 10.31 0 0 1 9.875-10.31"/><path fill="#c47a4a" d="M317.607 80.099c-7.059 2.064-16.42 4.572-28.238 7.245a20.61 20.61 0 0 0 8.886-19.434l-2.312-20.054a10.19 10.19 0 0 0-5.171-7.782c8.443-3.2 16.637-6.636 24.512-10.331 6.399-3.003 13.861 1.115 14.666 8.133l2.322 20.054c1.146 9.98-5.036 19.341-14.665 22.169"/><path fill="#ba5d4f" d="M502.343 406.03c-38.982 71.697-128.706 98.217-200.403 59.235s-98.217-128.706-59.235-200.403z"/><path fill="#a34f41" d="M502.343 406.025c-38.985 71.702-128.703 98.221-200.405 59.236a148 148 0 0 1-13.779-8.496c68.856 28.269 149.393.702 185.764-66.192z"/><path fill="#fff2df" d="M502.343 406.03c13.19-24.26-34.238-75.528-105.935-114.511s-140.512-50.917-153.703-26.657c-9.876 18.163 14.231 51.464 57.058 83.414 9.123 6.806 13.137 18.508 9.988 29.445-1.2 4.169 3.475 7.553 7.061 5.111l3.102-2.113a27.46 27.46 0 0 1 28.577-1.427l.149.081a437 437 0 0 0 13.297 6.938c8.839 4.421 14.596 13.267 15.015 23.141l.49 11.554c.151 3.554 4.085 5.619 7.096 3.725l17.091-10.749a27.24 27.24 0 0 1 22.012-3.123c39.628 11.38 70.341 10.549 78.702-4.829"/><path fill="#ffe5c4" d="M502.343 406.025c-7.208 13.257-31.04 15.71-62.879 8.838 14.515-.467 24.888-4.528 29.233-12.52 13.188-24.255-34.244-75.531-105.937-114.511-32.509-17.675-64.424-29.79-90.824-35.496 29.582-.947 76.379 13.03 124.47 39.177 71.702 38.986 119.125 90.257 105.937 114.512"/><path fill="#ffbc8a" d="M363.87 351.365c-26.323-14.312-50.422-31.221-67.858-47.612-8.368-7.867-13.972-14.436-17.621-19.488 6.224.315 14.785 1.447 25.936 4.193 23.237 5.724 50.531 16.758 76.854 31.07s50.422 31.221 67.858 47.612c8.368 7.867 13.971 14.436 17.621 19.489-6.224-.317-14.784-1.448-25.936-4.195-23.239-5.724-50.533-16.758-76.854-31.069"/><path fill="#f5a871" d="M466.66 386.624c-6.228-.314-14.782-1.445-25.939-4.196a219 219 0 0 1-11.377-3.125 178 178 0 0 0-5.199-5.077c-17.436-16.387-41.54-33.303-67.858-47.612-22.136-12.036-44.956-21.746-65.472-27.929-5.574-5.655-9.592-10.501-12.42-14.422 6.214.318 14.782 1.445 25.93 4.191 23.242 5.73 50.534 16.759 76.853 31.069 26.328 14.315 50.422 31.225 67.858 47.612 8.375 7.868 13.969 14.442 17.624 19.489"/><path d="M469.876 332.862a7.5 7.5 0 0 0-10.587.664 7.5 7.5 0 0 0 .664 10.587c22.715 20.033 42.594 45.839 35.801 58.333-5.997 11.028-34.145 11.512-70.043 1.203a34.76 34.76 0 0 0-28.076 3.984l-12.908 8.118-.281-6.618c-.533-12.573-7.873-23.889-19.154-29.531a432 432 0 0 1-13.076-6.823l-.142-.076c-10.695-5.818-23.423-5.659-33.883.261.903-11.733-4.255-23.473-13.945-30.701-44.412-33.133-61.261-62.215-54.953-73.818 4.517-8.309 22.542-10.829 47.04-6.58 28.247 4.899 62.514 17.771 96.491 36.244 13.876 7.545 27.114 15.714 39.345 24.28a7.5 7.5 0 0 0 10.447-1.84 7.5 7.5 0 0 0-1.84-10.447c-12.692-8.89-26.414-17.359-40.786-25.173a427 427 0 0 0-26.959-13.443c-10.445-34.468-27.04-67.09-49.356-97.061a17.85 17.85 0 0 0 3.38-8.529 17.73 17.73 0 0 0-4.751-14.275c-10.945-11.556-31.796-32.176-58.028-51.512 24.601-4.513 42.855-9.124 55.437-12.812 13.17-3.859 21.584-16.569 20.006-30.223l-2.315-20.054a17.84 17.84 0 0 0-9.013-13.509 17.92 17.92 0 0 0-16.294-.563c-13.083 6.136-27.858 11.891-43.914 17.105a7.5 7.5 0 0 0-4.818 9.451c1.279 3.94 5.511 6.094 9.451 4.818 16.647-5.406 32.007-11.392 45.652-17.792a2.8 2.8 0 0 1 2.617.084c.468.261 1.273.883 1.416 2.126l2.315 20.055c.735 6.375-3.185 12.307-9.323 14.106-20.36 5.968-56.036 14.428-110.381 20.848a7.502 7.502 0 0 0 1.76 14.898 972 972 0 0 0 36.418-4.979c30.921 20.785 55.902 45.367 68.12 58.269.737.777.811 1.638.742 2.223a2.9 2.9 0 0 1-1.321 2.114c-5.731 3.761-12.416 6.934-19.374 9.604-13.177-16.455-31.218-32.662-44.566-43.746a7.502 7.502 0 0 0-9.583 11.543c11.608 9.638 26.879 23.267 38.846 37.241-15.378 4.339-29.706 6.5-35.784 7.294a2.78 2.78 0 0 1-1.821-.382l-12.339-7.455a17.76 17.76 0 0 0-14.824-1.654c-26.454 8.823-52.521 10.041-75.053 8.003 2.367-6.048 5.932-14.281 10.264-21.529a7.5 7.5 0 1 0-12.876-7.696c-5.809 9.72-10.26 20.666-12.715 27.298-19.453-3.14-35.115-8.26-44.328-11.763a2.77 2.77 0 0 1-1.667-1.738 2.81 2.81 0 0 1 .299-2.427c12.314-19.465 28.631-37.413 48.498-53.358 13.181-.67 26.081-1.502 38.642-2.501a7.501 7.501 0 0 0-1.189-14.955c-34.277 2.725-71.091 4.22-109.421 4.444h-.017a2.8 2.8 0 0 1-1.99-.823 2.8 2.8 0 0 1-.834-1.999V93.07a2.81 2.81 0 0 1 2.695-2.817c30.369-1.291 109.26-6.387 185.749-25.773a7.5 7.5 0 0 0 5.428-9.114c-1.018-4.015-5.099-6.44-9.114-5.428-75.134 19.043-152.797 24.056-182.7 25.327a17.78 17.78 0 0 0-17.06 17.805v6.604a17.7 17.7 0 0 0 5.258 12.638 17.7 17.7 0 0 0 12.566 5.186h.106c16.215-.095 32.159-.419 47.768-.961-14.637 13.653-27.062 28.499-37.062 44.308a17.79 17.79 0 0 0-1.854 15.189c.141.423.319.827.489 1.234-9.718 13.342-18.403 27.309-25.814 41.579a7.502 7.502 0 0 0 13.315 6.916c6.816-13.125 14.763-25.989 23.642-38.314 23.557 8.812 82.479 25.925 143.723 5.499a2.77 2.77 0 0 1 2.322.262l12.34 7.456a17.9 17.9 0 0 0 11.522 2.417c35.115-4.586 57.319-13.603 69.205-19.863 18.687 25.066 33.178 52.052 43.177 80.447-53.283-21.171-104.706-27.908-118.582-2.388l-.042.082c-40.574 74.727-13.246 168.412 60.874 209.705-24.912 6.151-55.691 6.253-91.807.26a71 71 0 0 0-23.246.001c-31.663 5.252-59.474 5.819-82.666 1.677-23.99-4.284-43.104-13.657-56.811-27.86-27.258-28.247-34.255-76.235-20.794-142.631a292 292 0 0 1 12.753-44.45 7.5 7.5 0 0 0-4.389-9.657 7.5 7.5 0 0 0-9.657 4.389 307.6 307.6 0 0 0-13.409 46.737c-14.5 71.523-6.188 124.019 24.703 156.03 15.944 16.522 37.803 27.36 64.968 32.21 24.877 4.441 54.404 3.887 87.758-1.646a55.9 55.9 0 0 1 18.337-.001c18.562 3.08 35.864 4.619 51.849 4.618 23.854 0 44.763-3.436 62.51-10.276a154.1 154.1 0 0 0 55.218 10.224c55.098 0 108.552-29.362 136.671-81.077l.016-.034c9.841-18.173-4.397-46.132-39.078-76.718M305.523 458.676c-59.586-32.398-86.311-102.008-67.076-164.473 1.762 3.561 4.017 7.382 6.865 11.479 10.712 15.405 27.99 32.213 49.965 48.607 6.604 4.927 9.525 13.51 7.266 21.358-1.433 4.974.352 10.15 4.545 13.185s9.667 3.114 13.945.2l3.102-2.114a19.88 19.88 0 0 1 20.778-1.032l.144.077c4.461 2.426 9.011 4.8 13.524 7.057 6.406 3.204 10.574 9.622 10.876 16.75l.49 11.555c.187 4.371 2.61 8.194 6.483 10.228a12.1 12.1 0 0 0 5.65 1.408c2.235 0 4.461-.63 6.45-1.881l17.091-10.748a19.75 19.75 0 0 1 15.947-2.263c23.549 6.761 43.427 9.186 58.527 7.407-41.957 50.167-114.955 65.614-174.572 33.2"/><path d="M306.12 281.175c-10.23-2.52-19.432-4-27.35-4.402-2.882-.16-5.591 1.373-6.97 3.909a7.5 7.5 0 0 0 .509 7.975c4.641 6.427 10.887 13.344 18.565 20.562 17.89 16.818 42.542 34.126 69.414 48.736 26.867 14.608 54.797 25.889 78.641 31.763 10.225 2.518 19.426 4 27.349 4.402q.192.01.382.01a7.503 7.503 0 0 0 6.08-11.893c-4.643-6.428-10.888-13.346-18.564-20.562-17.892-16.818-42.543-34.126-69.414-48.736-26.872-14.611-54.801-25.892-78.642-31.764m141.681 95.2q-2.582-.558-5.285-1.224c-22.633-5.576-49.291-16.363-75.063-30.376-25.776-14.014-49.323-30.524-66.305-46.488a191 191 0 0 1-3.9-3.77q2.582.558 5.283 1.224c22.631 5.574 49.289 16.361 75.065 30.376 25.775 14.014 49.322 30.524 66.305 46.488a191 191 0 0 1 3.9 3.77"/></svg>