<svg xmlns="http://www.w3.org/2000/svg" width="512" height="512"><path fill="#158f5e" d="M438.468 185.639s50.033 3.605 61.619-44.7c1.048-4.368-3.48-8.035-7.513-6.057-10.899 5.346-30.173 11.079-52.137.837 0 0 16.407-13.427 18.816-33.173a5.353 5.353 0 0 0-5.295-6.002c-11.344-.048-37.333 2.058-52.763 20.877l-.002-.001c4.497-23.917-10.595-45.179-17.923-53.838a5.354 5.354 0 0 0-8.002-.198c-13.577 14.538-13.317 35.738-13.317 35.738-21.964-10.242-29.962-28.691-32.872-40.477-1.077-4.361-6.796-5.473-9.469-1.862-29.556 39.925 5.366 75.935 5.366 75.935z"/><path fill="#0f7a4f" d="M438.468 185.638 416.941 175.6s43.126 3.109 58.574-35.1c6.812-1.209 12.64-3.443 17.06-5.614 4.038-1.984 8.564 1.683 7.517 6.052-11.596 48.305-61.624 44.7-61.624 44.7"/><path fill="#e22334" d="M499.656 222.337c-7.769-25.128-28.207-44.307-53.606-51.14-16.127-4.338-38.064-11.32-60.423-21.746s-41.808-22.743-55.498-32.308c-21.56-15.065-49.389-18.394-73.632-8.192-35.865 15.092-62.731 49.487-65.278 92.35-4.119 69.298 6.756 139.693 35.126 211.369 9.409 23.77 35.773 36.064 60.029 27.992 73.143-24.339 134.059-61.258 184.497-108.957 31.199-29.503 40.278-72.193 28.785-109.368"/><path fill="#c21d2c" d="M344.226 295.949c-20.456 51.661-49.901 99.903-89.564 144.255-12.518-4.559-23.056-14.258-28.315-27.535-28.375-71.677-39.243-142.065-35.124-211.363.73-12.338 3.469-23.966 7.869-34.644 21.126-.6 40.413-3.17 54.8-5.689 25.905-4.549 52.541 4.199 70.198 23.686 26.125 28.834 35.944 71.367 20.136 111.29"/><g fill="#c21d2c"><path d="M307.233 204.163c-3.114-8.556 1.297-18.015 9.853-21.129l7.282-2.65a8.74 8.74 0 0 1 11.198 5.221l2.65 7.282c3.114 8.555-1.297 18.015-9.853 21.129s-18.016-1.297-21.13-9.853M372.975 234.819c-3.114-8.556 1.297-18.015 9.853-21.129l7.282-2.65a8.74 8.74 0 0 1 11.198 5.221l2.65 7.282c3.114 8.555-1.297 18.015-9.853 21.129s-18.016-1.297-21.13-9.853M238.19 202.88c-3.114-8.556 1.297-18.015 9.853-21.129l7.282-2.65a8.74 8.74 0 0 1 11.198 5.221l2.65 7.282c3.114 8.555-1.297 18.015-9.853 21.129-8.557 3.114-18.017-1.297-21.13-9.853M418.338 286.885c-3.114-8.556 1.297-18.015 9.853-21.129l7.282-2.65a8.74 8.74 0 0 1 11.198 5.221l2.65 7.282c3.114 8.555-1.297 18.015-9.853 21.129s-18.016-1.298-21.13-9.853M317.722 267.489c-3.114-8.556 1.297-18.015 9.853-21.129l7.282-2.65a8.74 8.74 0 0 1 11.198 5.221l2.65 7.282c3.114 8.556-1.297 18.015-9.853 21.129s-18.016-1.298-21.13-9.853M248.471 268.199c-3.114-8.556 1.297-18.015 9.853-21.129l7.282-2.65a8.74 8.74 0 0 1 11.198 5.221l2.65 7.282c3.114 8.555-1.297 18.015-9.853 21.129-8.556 3.113-18.016-1.298-21.13-9.853M361.692 320.994c-3.114-8.556 1.297-18.015 9.853-21.129l7.282-2.65a8.74 8.74 0 0 1 11.198 5.221l2.65 7.282c3.114 8.556-1.297 18.015-9.853 21.129s-18.016-1.297-21.13-9.853M290.58 325.695c-3.114-8.556 1.297-18.015 9.853-21.129l7.282-2.65a8.74 8.74 0 0 1 11.198 5.221l2.65 7.282c3.114 8.555-1.297 18.015-9.853 21.129s-18.016-1.298-21.13-9.853M254.065 404.002c-3.114-8.556 1.297-18.015 9.853-21.129l7.282-2.65a8.74 8.74 0 0 1 11.198 5.221l2.65 7.282c3.114 8.555-1.297 18.015-9.853 21.129s-18.016-1.298-21.13-9.853M233.689 344.703c-3.114-8.556 1.297-18.015 9.853-21.129l7.282-2.65a8.74 8.74 0 0 1 11.198 5.221l2.65 7.282c3.114 8.556-1.297 18.015-9.853 21.129s-18.016-1.297-21.13-9.853M314.304 382.295c-3.114-8.556 1.297-18.015 9.853-21.129l7.282-2.65a8.74 8.74 0 0 1 11.198 5.221l2.65 7.282c3.114 8.555-1.297 18.015-9.853 21.129s-18.016-1.298-21.13-9.853"/></g><path fill="#c21d2c" d="M470.873 331.705c-50.438 47.702-111.358 84.615-184.497 108.956-22.569 7.516-46.963-2.605-57.822-23.203 10.006 4.102 21.46 4.763 32.457 1.095 70.965-23.621 130.068-59.438 178.995-105.714 30.273-28.629 39.086-70.044 27.931-106.114-4.571-14.75-13.628-27.383-25.535-36.529 1.246.351 2.462.678 3.649 1.001 25.396 6.829 45.836 26.012 53.6 51.141 11.499 37.173 2.415 79.861-28.778 109.367"/><path fill="#fca62f" d="M313.635 190.435c-3.114-8.556 1.297-18.015 9.853-21.129l7.282-2.65a8.74 8.74 0 0 1 11.198 5.221l2.65 7.282c3.114 8.555-1.297 18.015-9.853 21.129-8.556 3.113-18.016-1.298-21.13-9.853"/><path fill="#f98824" d="M334.768 200.289a16.43 16.43 0 0 1-11.406-.052c6.909-3.881 10.189-12.301 7.391-19.988l-2.656-7.277a8.65 8.65 0 0 0-3.214-4.179l5.887-2.136a8.736 8.736 0 0 1 11.197 5.221l2.656 7.277c3.109 8.563-1.301 18.021-9.855 21.134"/><path fill="#fca62f" d="M379.377 221.09c-3.114-8.556 1.297-18.015 9.853-21.129l7.282-2.65a8.74 8.74 0 0 1 11.198 5.221l2.65 7.282c3.114 8.555-1.297 18.015-9.853 21.129-8.557 3.114-18.016-1.297-21.13-9.853"/><path fill="#f98824" d="M400.51 230.945a16.43 16.43 0 0 1-11.406-.052c6.909-3.881 10.189-12.301 7.391-19.988l-2.656-7.277a8.65 8.65 0 0 0-3.214-4.179l5.887-2.136a8.736 8.736 0 0 1 11.197 5.221l2.656 7.277c3.109 8.563-1.301 18.021-9.855 21.134"/><path fill="#fca62f" d="M244.591 189.152c-3.114-8.556 1.297-18.015 9.853-21.129l7.282-2.65a8.74 8.74 0 0 1 11.198 5.221l2.65 7.282c3.114 8.555-1.297 18.015-9.853 21.129-8.556 3.113-18.016-1.298-21.13-9.853"/><path fill="#f98824" d="M265.725 199.007a16.43 16.43 0 0 1-11.406-.052c6.909-3.881 10.189-12.301 7.391-19.988l-2.656-7.277a8.65 8.65 0 0 0-3.214-4.179l5.887-2.136a8.736 8.736 0 0 1 11.197 5.221l2.656 7.277c3.109 8.562-1.301 18.02-9.855 21.134"/><path fill="#fca62f" d="M424.74 273.156c-3.114-8.556 1.297-18.015 9.853-21.129l7.282-2.65a8.74 8.74 0 0 1 11.198 5.221l2.65 7.282c3.114 8.556-1.297 18.015-9.853 21.129-8.557 3.114-18.016-1.297-21.13-9.853"/><path fill="#f98824" d="M445.873 283.011a16.43 16.43 0 0 1-11.406-.052c6.909-3.881 10.189-12.301 7.391-19.988l-2.656-7.277a8.65 8.65 0 0 0-3.214-4.179l5.887-2.136a8.736 8.736 0 0 1 11.197 5.221l2.656 7.277c3.109 8.563-1.301 18.021-9.855 21.134"/><path fill="#fca62f" d="M324.124 253.76c-3.114-8.556 1.297-18.015 9.853-21.129l7.282-2.65a8.74 8.74 0 0 1 11.198 5.221l2.65 7.282c3.114 8.555-1.297 18.015-9.853 21.129s-18.016-1.297-21.13-9.853"/><path fill="#f98824" d="M345.257 263.615a16.43 16.43 0 0 1-11.406-.052c6.909-3.881 10.189-12.301 7.391-19.988l-2.656-7.277a8.65 8.65 0 0 0-3.214-4.179l5.887-2.136a8.736 8.736 0 0 1 11.197 5.221l2.656 7.277c3.11 8.563-1.301 18.021-9.855 21.134"/><path fill="#fca62f" d="M254.873 254.47c-3.114-8.556 1.297-18.015 9.853-21.129l7.282-2.65a8.74 8.74 0 0 1 11.198 5.221l2.65 7.282c3.114 8.555-1.297 18.015-9.853 21.129s-18.016-1.298-21.13-9.853"/><path fill="#f98824" d="M276.006 264.325a16.42 16.42 0 0 1-11.406-.052c6.909-3.88 10.189-12.301 7.391-19.988l-2.656-7.277a8.65 8.65 0 0 0-3.214-4.179l5.887-2.136a8.736 8.736 0 0 1 11.197 5.221l2.656 7.277c3.11 8.563-1.3 18.02-9.855 21.134"/><path fill="#fca62f" d="M368.094 307.266c-3.114-8.556 1.297-18.015 9.853-21.129l7.282-2.65a8.74 8.74 0 0 1 11.198 5.221l2.65 7.282c3.114 8.555-1.297 18.015-9.853 21.129s-18.016-1.298-21.13-9.853"/><path fill="#f98824" d="M389.227 317.121a16.43 16.43 0 0 1-11.406-.052c6.909-3.881 10.189-12.301 7.391-19.988l-2.656-7.277a8.65 8.65 0 0 0-3.214-4.179l5.887-2.136a8.736 8.736 0 0 1 11.197 5.221l2.656 7.277c3.11 8.562-1.301 18.02-9.855 21.134"/><path fill="#fca62f" d="M296.982 311.966c-3.114-8.556 1.297-18.015 9.853-21.129l7.282-2.65a8.74 8.74 0 0 1 11.198 5.221l2.65 7.282c3.114 8.556-1.297 18.015-9.853 21.129s-18.016-1.297-21.13-9.853"/><path fill="#f98824" d="M318.115 321.821a16.43 16.43 0 0 1-11.406-.052c6.909-3.881 10.189-12.301 7.391-19.988l-2.656-7.277a8.65 8.65 0 0 0-3.214-4.179l5.887-2.136a8.736 8.736 0 0 1 11.197 5.221l2.656 7.277c3.11 8.563-1.3 18.02-9.855 21.134"/><path fill="#fca62f" d="M260.467 390.273c-3.114-8.556 1.297-18.015 9.853-21.129l7.282-2.65a8.74 8.74 0 0 1 11.198 5.221l2.65 7.282c3.114 8.556-1.297 18.015-9.853 21.129s-18.016-1.297-21.13-9.853"/><path fill="#f98824" d="M281.6 400.128a16.43 16.43 0 0 1-11.406-.052c6.909-3.881 10.189-12.301 7.391-19.988l-2.656-7.277a8.65 8.65 0 0 0-3.214-4.179l5.887-2.136a8.736 8.736 0 0 1 11.197 5.221l2.656 7.277c3.11 8.563-1.301 18.02-9.855 21.134"/><path fill="#fca62f" d="M240.091 330.975c-3.114-8.556 1.297-18.015 9.853-21.129l7.282-2.65a8.74 8.74 0 0 1 11.198 5.221l2.65 7.282c3.114 8.555-1.297 18.015-9.853 21.129-8.556 3.113-18.016-1.298-21.13-9.853"/><path fill="#f98824" d="M261.224 340.829a16.43 16.43 0 0 1-11.406-.052c6.909-3.881 10.189-12.301 7.391-19.988l-2.656-7.277a8.65 8.65 0 0 0-3.214-4.179l5.887-2.136a8.736 8.736 0 0 1 11.197 5.221l2.656 7.277c3.109 8.563-1.301 18.021-9.855 21.134"/><path fill="#fca62f" d="M320.706 368.566c-3.114-8.556 1.297-18.015 9.853-21.129l7.282-2.65a8.74 8.74 0 0 1 11.198 5.221l2.65 7.282c3.114 8.555-1.297 18.015-9.853 21.129s-18.016-1.297-21.13-9.853"/><path fill="#f98824" d="M341.839 378.421a16.42 16.42 0 0 1-11.406-.052c6.909-3.881 10.189-12.301 7.391-19.988l-2.656-7.277a8.65 8.65 0 0 0-3.214-4.179l5.887-2.136a8.736 8.736 0 0 1 11.197 5.221l2.656 7.277c3.11 8.563-1.301 18.02-9.855 21.134"/><path fill="#1ca56f" d="M237.287 152.162s50.804-19.379 40.058-72.141c-.972-4.772-7.099-6.3-10.155-2.508-8.258 10.245-24.567 24.706-50.836 24.706 0 0 9.967-20.707 3.289-41.209-1.077-3.306-4.795-4.927-7.952-3.471-11.166 5.15-35.733 19.124-42.271 44.68h-.002c-6.538-25.556-31.105-39.53-42.271-44.68-3.157-1.456-6.875.165-7.952 3.471-6.679 20.502 3.289 41.209 3.289 41.209-26.269 0-42.578-14.461-50.836-24.706-3.056-3.791-9.183-2.263-10.155 2.508-10.746 52.762 40.058 72.141 40.058 72.141z"/><path fill="#158f5e" d="M237.287 152.16H211.54s43.791-16.701 41.463-61.315c6.138-4.308 10.841-9.173 14.188-13.331 3.058-3.799 9.184-2.27 10.157 2.502 10.737 52.768-40.061 72.144-40.061 72.144"/><path fill="#fb4a59" d="M303.567 156.207c-17.66-19.491-44.289-28.235-70.196-23.694-16.449 2.884-39.282 5.827-63.952 5.827s-47.502-2.943-63.952-5.827c-25.907-4.541-52.535 4.203-70.196 23.694C9.145 185.042-.668 227.569 15.138 267.493c25.554 64.546 65.16 123.75 121.164 176.72 18.573 17.567 47.662 17.567 66.235 0 56.004-52.97 95.61-112.174 121.164-176.72 15.805-39.924 5.993-82.451-20.134-111.286"/><g fill="#f82f40"><path d="M121.492 221.057c-6.438-6.438-6.438-16.876 0-23.314l5.479-5.479a8.736 8.736 0 0 1 12.355 0l5.479 5.479c6.438 6.438 6.438 16.876 0 23.314s-16.875 6.438-23.313 0M194.03 221.057c-6.438-6.438-6.438-16.876 0-23.314l5.479-5.479a8.736 8.736 0 0 1 12.355 0l5.479 5.479c6.438 6.438 6.438 16.876 0 23.314s-16.875 6.438-23.313 0M58.375 249.074c-6.438-6.438-6.438-16.876 0-23.314l5.479-5.479a8.736 8.736 0 0 1 12.355 0l5.479 5.479c6.438 6.438 6.438 16.876 0 23.314s-16.875 6.438-23.313 0M257.147 249.074c-6.438-6.438-6.438-16.876 0-23.314l5.479-5.479a8.736 8.736 0 0 1 12.355 0l5.479 5.479c6.438 6.438 6.438 16.876 0 23.314s-16.876 6.438-23.313 0M157.761 274.017c-6.438-6.438-6.438-16.876 0-23.314l5.479-5.479a8.736 8.736 0 0 1 12.355 0l5.479 5.479c6.438 6.438 6.438 16.876 0 23.314s-16.875 6.438-23.313 0M95.298 303.927c-6.438-6.438-6.438-16.876 0-23.314l5.479-5.479a8.736 8.736 0 0 1 12.355 0l5.479 5.479c6.438 6.438 6.438 16.876 0 23.314s-16.875 6.438-23.313 0M220.223 303.927c-6.438-6.438-6.438-16.876 0-23.314l5.479-5.479a8.736 8.736 0 0 1 12.355 0l5.479 5.479c6.438 6.438 6.438 16.876 0 23.314s-16.875 6.438-23.313 0M157.761 338.24c-6.438-6.438-6.438-16.876 0-23.314l5.479-5.479a8.736 8.736 0 0 1 12.355 0l5.479 5.479c6.438 6.438 6.438 16.876 0 23.314s-16.875 6.438-23.313 0M157.761 424.642c-6.438-6.438-6.438-16.876 0-23.314l5.479-5.479a8.736 8.736 0 0 1 12.355 0l5.479 5.479c6.438 6.438 6.438 16.876 0 23.314s-16.875 6.438-23.313 0M114.233 379.511c-6.438-6.438-6.438-16.876 0-23.314l5.479-5.479a8.736 8.736 0 0 1 12.355 0l5.479 5.479c6.438 6.438 6.438 16.876 0 23.314s-16.875 6.438-23.313 0M203.182 379.511c-6.438-6.438-6.438-16.876 0-23.314l5.479-5.479a8.736 8.736 0 0 1 12.355 0l5.479 5.479c6.438 6.438 6.438 16.876 0 23.314s-16.875 6.438-23.313 0"/></g><path fill="#f82f40" d="M323.701 267.492c-25.553 64.549-65.164 123.749-121.165 176.72-17.278 16.35-43.664 17.486-62.211 3.408 10.802-.511 21.463-4.753 29.879-12.724 54.334-51.399 92.762-108.838 117.548-171.456 15.337-38.741 5.823-80-19.531-107.976-10.376-11.437-23.924-19.058-38.58-22.315 1.278-.208 2.518-.426 3.73-.634 25.903-4.544 52.535 4.204 70.192 23.697 26.131 28.828 35.939 71.356 20.138 111.28"/><path fill="#fcb44d" d="M121.492 205.91c-6.438-6.438-6.438-16.876 0-23.314l5.479-5.479a8.736 8.736 0 0 1 12.355 0l5.479 5.479c6.438 6.438 6.438 16.876 0 23.314s-16.875 6.437-23.313 0"/><path fill="#fca62f" d="M144.81 205.91a16.43 16.43 0 0 1-10.36 4.773c4.622-6.437 4.036-15.454-1.749-21.239l-5.482-5.473a8.65 8.65 0 0 0-4.679-2.429l4.433-4.424a8.735 8.735 0 0 1 12.354 0l5.482 5.473c6.438 6.446 6.438 16.882.001 23.319"/><path fill="#fcb44d" d="M194.03 205.91c-6.438-6.438-6.438-16.876 0-23.314l5.479-5.479a8.736 8.736 0 0 1 12.355 0l5.479 5.479c6.438 6.438 6.438 16.876 0 23.314s-16.875 6.437-23.313 0"/><path fill="#fca62f" d="M217.348 205.91a16.43 16.43 0 0 1-10.36 4.773c4.622-6.437 4.036-15.454-1.749-21.239l-5.482-5.473a8.65 8.65 0 0 0-4.679-2.429l4.433-4.424a8.735 8.735 0 0 1 12.354 0l5.482 5.473c6.438 6.446 6.438 16.882.001 23.319"/><path fill="#fcb44d" d="M58.375 233.926c-6.438-6.438-6.438-16.876 0-23.314l5.479-5.479a8.736 8.736 0 0 1 12.355 0l5.479 5.479c6.438 6.438 6.438 16.876 0 23.314s-16.875 6.438-23.313 0"/><path fill="#fca62f" d="M81.693 233.926a16.43 16.43 0 0 1-10.36 4.773c4.622-6.437 4.036-15.454-1.749-21.239l-5.482-5.473a8.65 8.65 0 0 0-4.679-2.429l4.433-4.424a8.735 8.735 0 0 1 12.354 0l5.482 5.473c6.438 6.447 6.438 16.882.001 23.319"/><path fill="#fcb44d" d="M257.147 233.926c-6.438-6.438-6.438-16.876 0-23.314l5.479-5.479a8.736 8.736 0 0 1 12.355 0l5.479 5.479c6.438 6.438 6.438 16.876 0 23.314s-16.876 6.438-23.313 0"/><path fill="#fca62f" d="M280.465 233.926a16.43 16.43 0 0 1-10.36 4.773c4.622-6.437 4.036-15.454-1.749-21.239l-5.482-5.473a8.65 8.65 0 0 0-4.679-2.429l4.433-4.424a8.735 8.735 0 0 1 12.354 0l5.482 5.473c6.438 6.447 6.438 16.882.001 23.319"/><path fill="#fcb44d" d="M157.761 258.869c-6.438-6.438-6.438-16.876 0-23.314l5.479-5.479a8.736 8.736 0 0 1 12.355 0l5.479 5.479c6.438 6.438 6.438 16.876 0 23.314s-16.875 6.438-23.313 0"/><path fill="#fca62f" d="M181.079 258.869a16.43 16.43 0 0 1-10.36 4.773c4.622-6.437 4.036-15.454-1.749-21.239l-5.482-5.473a8.65 8.65 0 0 0-4.679-2.429l4.433-4.424a8.735 8.735 0 0 1 12.354 0l5.482 5.473c6.438 6.447 6.438 16.882.001 23.319"/><path fill="#fcb44d" d="M95.298 288.779c-6.438-6.438-6.438-16.876 0-23.314l5.479-5.479a8.736 8.736 0 0 1 12.355 0l5.479 5.479c6.438 6.438 6.438 16.876 0 23.314s-16.875 6.438-23.313 0"/><path fill="#fca62f" d="M118.616 288.779a16.43 16.43 0 0 1-10.36 4.773c4.622-6.437 4.036-15.454-1.749-21.239l-5.482-5.473a8.65 8.65 0 0 0-4.679-2.429l4.433-4.424a8.735 8.735 0 0 1 12.354 0l5.482 5.473c6.438 6.447 6.438 16.882.001 23.319"/><path fill="#fcb44d" d="M220.223 288.779c-6.438-6.438-6.438-16.876 0-23.314l5.479-5.479a8.736 8.736 0 0 1 12.355 0l5.479 5.479c6.438 6.438 6.438 16.876 0 23.314s-16.875 6.438-23.313 0"/><path fill="#fca62f" d="M243.542 288.779a16.43 16.43 0 0 1-10.36 4.773c4.622-6.437 4.036-15.454-1.749-21.239l-5.482-5.473a8.65 8.65 0 0 0-4.679-2.429l4.433-4.424a8.735 8.735 0 0 1 12.354 0l5.482 5.473c6.437 6.447 6.437 16.882.001 23.319"/><path fill="#fcb44d" d="M157.761 323.092c-6.438-6.438-6.438-16.876 0-23.314l5.479-5.479a8.736 8.736 0 0 1 12.355 0l5.479 5.479c6.438 6.438 6.438 16.876 0 23.314s-16.875 6.438-23.313 0"/><path fill="#fca62f" d="M181.079 323.092a16.43 16.43 0 0 1-10.36 4.773c4.622-6.437 4.036-15.454-1.749-21.239l-5.482-5.473a8.65 8.65 0 0 0-4.679-2.429l4.433-4.424a8.735 8.735 0 0 1 12.354 0l5.482 5.473c6.438 6.447 6.438 16.882.001 23.319"/><path fill="#fcb44d" d="M157.761 409.495c-6.438-6.438-6.438-16.876 0-23.314l5.479-5.479a8.736 8.736 0 0 1 12.355 0l5.479 5.479c6.438 6.438 6.438 16.876 0 23.314s-16.875 6.437-23.313 0"/><path fill="#fca62f" d="M181.079 409.495a16.43 16.43 0 0 1-10.36 4.773c4.622-6.437 4.036-15.454-1.749-21.239l-5.482-5.473a8.65 8.65 0 0 0-4.679-2.429l4.433-4.424a8.735 8.735 0 0 1 12.354 0l5.482 5.473c6.438 6.446 6.438 16.882.001 23.319"/><path fill="#fcb44d" d="M114.233 364.363c-6.438-6.438-6.438-16.876 0-23.314l5.479-5.479a8.736 8.736 0 0 1 12.355 0l5.479 5.479c6.438 6.438 6.438 16.876 0 23.314s-16.875 6.438-23.313 0"/><path fill="#fca62f" d="M137.551 364.363a16.43 16.43 0 0 1-10.36 4.773c4.622-6.437 4.036-15.454-1.749-21.239l-5.482-5.473a8.65 8.65 0 0 0-4.679-2.429l4.433-4.424a8.735 8.735 0 0 1 12.354 0l5.482 5.473c6.438 6.447 6.438 16.882.001 23.319"/><path fill="#fcb44d" d="M203.182 364.363c-6.438-6.438-6.438-16.876 0-23.314l5.479-5.479a8.736 8.736 0 0 1 12.355 0l5.479 5.479c6.438 6.438 6.438 16.876 0 23.314s-16.875 6.438-23.313 0"/><path fill="#fca62f" d="M226.5 364.363a16.43 16.43 0 0 1-10.36 4.773c4.622-6.437 4.036-15.454-1.749-21.239l-5.482-5.473a8.65 8.65 0 0 0-4.679-2.429l4.433-4.424a8.735 8.735 0 0 1 12.354 0l5.482 5.473c6.438 6.447 6.438 16.882.001 23.319"/><path d="M506.82 220.123a82.9 82.9 0 0 0-25.46-38.685c13.067-8.731 21.988-21.944 26.019-38.75 1.172-4.887-.543-9.879-4.476-13.027-3.918-3.134-9.141-3.716-13.631-1.51-8.561 4.199-21.059 7.844-35.482 4.363 5.319-6.682 11.404-16.744 12.907-29.058a12.86 12.86 0 0 0-3.116-10.055 12.87 12.87 0 0 0-9.591-4.355l-.379-.001c-9.217 0-28.364 1.407-44.64 11.699-2.613-19.35-14.122-35.089-19.975-42.005a12.87 12.87 0 0 0-9.499-4.549 12.92 12.92 0 0 0-9.708 4.075c-8.468 9.068-12.264 20.196-13.963 28.567-11.94-8.812-17.179-20.728-19.465-29.986-1.199-4.857-5.001-8.486-9.921-9.471-4.941-.992-9.865.906-12.855 4.945-10.235 13.826-14.634 29.061-12.992 44.601a84.3 84.3 0 0 0-14.317-1.324c.116-5.538-.394-11.239-1.582-17.074-1.037-5.095-4.829-9.027-9.894-10.26-5.045-1.224-10.197.513-13.447 4.542-6.689 8.3-17.715 17.923-34.193 20.951 2.275-8.959 3.887-21.955-.386-35.071a13.31 13.31 0 0 0-7.322-8.069 13.33 13.33 0 0 0-10.9.111c-9 4.152-27.84 14.529-39.131 32.724-11.291-18.195-30.13-28.572-39.131-32.724a13.32 13.32 0 0 0-10.9-.111 13.31 13.31 0 0 0-7.322 8.069c-4.272 13.116-2.661 26.112-.386 35.071-16.482-3.027-27.507-12.65-34.197-20.951-3.249-4.029-8.404-5.767-13.446-4.541-5.065 1.233-8.856 5.165-9.894 10.26-3.791 18.612-.878 35.921 8.383 50.574-12.49 4.607-23.795 12.122-32.812 22.074C.228 183.717-8.03 229.345 8.166 270.253c15.264 38.554 35.562 75.164 60.33 108.811a7.49 7.49 0 0 0 6.045 3.054 7.46 7.46 0 0 0 4.44-1.461 7.5 7.5 0 0 0 1.593-10.484C56.57 337.564 36.9 302.088 22.111 264.733c-14.077-35.556-6.905-75.211 18.718-103.49 12.878-14.212 31.479-22.376 51.035-22.398a7.499 7.499 0 0 0-.009-14.997h-.009a85 85 0 0 0-13.905 1.164c-8.74-11.378-12.015-24.793-9.728-39.956 9.175 10.314 26.869 24.663 54.271 24.663a7.5 7.5 0 0 0 6.332-3.499 7.52 7.52 0 0 0 .434-7.231c-.083-.176-7.957-17.103-3.475-33.8 10.335 5.049 30.917 17.541 36.381 38.891a7.498 7.498 0 0 0 14.529-.001c5.462-21.35 26.045-33.841 36.378-38.89 4.482 16.697-3.392 33.623-3.466 33.779a7.5 7.5 0 0 0 6.757 10.751c27.401 0 45.096-14.349 54.271-24.663 2.283 15.135-.974 28.529-9.677 39.893-9.375-1.544-19.118-1.529-28.872.179a395 395 0 0 1-31.641 4.231 196 196 0 0 0 2.471-3.468 7.498 7.498 0 0 0-12.332-8.535c-.056.081-5.214 7.509-10.128 13.281a312 312 0 0 1-11.026.205c-3.62 0-7.303-.072-11.029-.203-4.915-5.772-10.073-13.201-10.13-13.283a7.497 7.497 0 0 0-10.433-1.897 7.497 7.497 0 0 0-1.899 10.432c.1.144 1.038 1.496 2.47 3.466a385 385 0 0 1-9.844-1.034 7.502 7.502 0 0 0-8.339 6.649l-.018.158c-.429 4.119 2.559 7.836 6.678 8.264a7.5 7.5 0 0 0 1.508.008c14.133 1.618 27.93 2.437 41.035 2.437 25.929 0 49.793-3.23 65.246-5.939 23.777-4.168 47.459 3.81 63.344 21.343 25.622 28.278 32.795 67.933 18.718 103.49-25.681 64.868-65.834 123.421-119.344 174.032-15.681 14.832-40.248 14.833-55.929 0-13.793-13.045-26.847-26.759-38.801-40.761a7.499 7.499 0 1 0-11.406 9.738c12.299 14.406 25.724 28.51 39.902 41.918 10.731 10.151 24.498 15.224 38.27 15.224 13.769 0 27.542-5.075 38.271-15.223a549 549 0 0 0 20.001-19.91c10.661 13.25 26.955 20.828 43.709 20.828 5.797 0 11.651-.908 17.343-2.802 37.948-12.628 73.659-29.03 106.141-48.75a7.499 7.499 0 1 0-7.782-12.82c-31.523 19.139-66.209 35.066-103.093 47.34-16.906 5.623-35.734-.657-45.968-14.966a521 521 0 0 0 17.826-20.858c4.446 6.825 12.083 10.897 20.117 10.897 2.717 0 5.48-.466 8.178-1.447a23.83 23.83 0 0 0 13.534-12.401 23.83 23.83 0 0 0 .801-18.34l-2.65-7.281c-1.934-5.316-6.375-9.003-11.504-10.23a488 488 0 0 0 18.675-30.592 24.3 24.3 0 0 0 9.516 1.966c2.741 0 5.5-.468 8.145-1.429 12.427-4.524 18.857-18.314 14.334-30.742l-2.65-7.28c-1.286-3.536-3.726-6.395-6.769-8.265a480 480 0 0 0 5.038-12.219 24 24 0 0 0 8.972 1.752 24 24 0 0 0 8.216-1.453 23.83 23.83 0 0 0 13.534-12.401 23.83 23.83 0 0 0 .801-18.34l-2.65-7.282c-3.058-8.399-12.37-12.75-20.77-9.714a113 113 0 0 0-1.73-15.486c.108-.038.219-.064.327-.103 12.427-4.523 18.858-18.313 14.334-30.741l-2.65-7.28c-1.483-4.075-4.465-7.33-8.395-9.162s-8.339-2.025-12.414-.542l-7.282 2.65c-.776.283-1.528.607-2.261.961a116.5 116.5 0 0 0-9.537-12.046 82.9 82.9 0 0 0-32.766-22.155 63.8 63.8 0 0 0 7.913-18.406c14.706-.305 29.306 4.112 41.565 12.679 12.865 8.989 33.131 22.002 56.623 32.956 23.489 10.954 46.487 18.115 61.644 22.192 23.312 6.271 41.401 23.511 48.389 46.113 11.271 36.457 1.013 75.428-26.772 101.705a469 469 0 0 1-48.843 40.293 7.498 7.498 0 1 0 8.736 12.19 484 484 0 0 0 50.413-41.586c31.962-30.231 43.762-75.075 30.791-117.031M272.885 376.191l7.28-2.651a1.24 1.24 0 0 1 1.587.74l2.65 7.282c1.695 4.656-.715 9.823-5.371 11.518s-9.824-.716-11.519-5.371a8.97 8.97 0 0 1-.437-4.349 505 505 0 0 0 5.054-6.826c.251-.119.495-.249.756-.343m48.033-72.938c1.695 4.657-.715 9.824-5.371 11.519a8.94 8.94 0 0 1-5.333.247 479 479 0 0 0 8.635-17.45zm22.905-66.225a1.24 1.24 0 0 1 1.586.739l2.651 7.282a8.93 8.93 0 0 1-.3 6.871 8.93 8.93 0 0 1-5.072 4.647 8.98 8.98 0 0 1-7.41-.581 115 115 0 0 0 2.998-16.938zm-10.489-63.326a1.24 1.24 0 0 1 1.587.74l2.65 7.28c1.556 4.277-.354 8.975-4.281 11.027a113.6 113.6 0 0 0-6.871-16.531zm81.91-20.119c2.828-1.537 4.823-2.7 5.013-2.812a7.5 7.5 0 0 0-7.569-12.947c-.098.057-9.507 5.541-16.224 8.273a309 309 0 0 1-7.667-3.442 301 301 0 0 1-6.521-3.145c-2.229-6.902-4.081-17.668-4.101-17.78a7.5 7.5 0 0 0-8.654-6.129 7.5 7.5 0 0 0-6.13 8.653c.038.221.439 2.555 1.095 5.776a394 394 0 0 1-30.06-19.033 85.8 85.8 0 0 0-17.871-9.545c-3.02-12.656-.832-24.9 6.523-36.484 3.917 12.315 13.327 30.515 35.705 40.95a7.512 7.512 0 0 0 10.667-6.865c-.001-.174.022-16.688 9.685-28.689 6.701 8.431 18.322 26.358 14.691 45.672a7.499 7.499 0 0 0 13.168 6.14c12.462-15.198 33.662-17.819 44.428-18.104-2.982 15.117-15.617 25.749-15.733 25.846a7.497 7.497 0 0 0 1.581 12.598c22.375 10.435 42.366 5.946 54.319 1.03-4.149 13.087-12.137 22.633-23.784 28.454a86.6 86.6 0 0 0-19.804-8.042 395 395 0 0 1-32.757-10.375"/><path d="m417.405 207.249-2.65-7.281c-3.061-8.412-12.396-12.765-20.808-9.703l-7.282 2.65c-12.427 4.525-18.857 18.315-14.334 30.742a23.83 23.83 0 0 0 12.402 13.534 23.9 23.9 0 0 0 10.122 2.259 24 24 0 0 0 8.217-1.459c12.426-4.525 18.856-18.316 14.333-30.742m-19.464 16.648a8.93 8.93 0 0 1-6.871-.3 8.93 8.93 0 0 1-4.647-5.071c-1.695-4.656.715-9.823 5.371-11.518l7.281-2.65q.21-.076.422-.075c.506 0 .982.312 1.164.815l2.65 7.281c1.696 4.656-.714 9.823-5.37 11.518M417.693 275.721c2.191 6.02 6.596 10.826 12.402 13.534a23.9 23.9 0 0 0 10.121 2.26c2.766 0 5.542-.485 8.218-1.46a23.83 23.83 0 0 0 13.534-12.401 23.83 23.83 0 0 0 .801-18.34l-2.65-7.282c-3.062-8.411-12.396-12.763-20.808-9.702l-7.282 2.65a23.83 23.83 0 0 0-13.534 12.401 23.82 23.82 0 0 0-.802 18.34m19.464-16.648 7.282-2.65a1.24 1.24 0 0 1 1.586.739l2.651 7.282a8.93 8.93 0 0 1-.3 6.871 8.93 8.93 0 0 1-5.071 4.647 8.92 8.92 0 0 1-6.871-.3 8.93 8.93 0 0 1-4.647-5.071c-1.696-4.656.714-9.823 5.37-11.518M403.472 286.143c-3.061-8.412-12.395-12.765-20.808-9.703l-7.282 2.65c-12.427 4.525-18.857 18.315-14.334 30.742a23.83 23.83 0 0 0 12.402 13.534 23.9 23.9 0 0 0 10.122 2.259 24 24 0 0 0 8.217-1.459c12.427-4.525 18.857-18.315 14.334-30.742zm-16.813 23.929a8.92 8.92 0 0 1-6.871-.3 8.93 8.93 0 0 1-4.647-5.071c-1.695-4.656.715-9.823 5.371-11.518l7.281-2.65q.21-.076.422-.075c.506 0 .982.312 1.164.815l2.65 7.281c1.695 4.656-.714 9.823-5.37 11.518M356.084 347.443c-3.062-8.413-12.4-12.762-20.809-9.703l-7.281 2.651a23.83 23.83 0 0 0-13.534 12.401 23.83 23.83 0 0 0-.801 18.34c3.541 9.729 12.761 15.781 22.562 15.781 2.717 0 5.48-.465 8.178-1.447 6.02-2.191 10.827-6.596 13.534-12.402s2.992-12.318.801-18.339zm-11.742 19.283a8.93 8.93 0 0 1-5.071 4.647c-4.656 1.695-9.824-.716-11.519-5.371a8.92 8.92 0 0 1 .301-6.871 8.93 8.93 0 0 1 5.071-4.647l7.281-2.651a1.24 1.24 0 0 1 1.586.74l2.65 7.282a8.92 8.92 0 0 1-.299 6.871M144.628 171.813c-6.33-6.329-16.629-6.329-22.959 0l-5.48 5.48c-9.35 9.351-9.35 24.567 0 33.918v.001c4.676 4.675 10.817 7.012 16.959 7.012s12.284-2.337 16.96-7.013c9.35-9.351 9.35-24.567 0-33.919zm-5.125 28.794c-3.503 3.503-9.206 3.503-12.709 0v.001c-3.504-3.504-3.504-9.206 0-12.71l5.48-5.48a1.24 1.24 0 0 1 1.75 0l5.479 5.479c3.504 3.505 3.504 9.207 0 12.71M217.166 171.813c-6.33-6.329-16.629-6.33-22.96.001l-5.479 5.48c-9.35 9.351-9.35 24.567 0 33.918v.001c4.676 4.675 10.817 7.012 16.959 7.012s12.284-2.337 16.96-7.013c9.35-9.351 9.35-24.567 0-33.919zm-5.125 28.794c-3.503 3.503-9.206 3.503-12.709 0v.001c-3.504-3.504-3.504-9.206 0-12.711l5.478-5.479a1.24 1.24 0 0 1 1.751 0l5.479 5.479c3.505 3.505 3.505 9.207.001 12.71M86.991 239.228c4.53-4.529 7.025-10.553 7.025-16.959s-2.495-12.429-7.025-16.96l-5.48-5.48c-6.329-6.328-16.629-6.33-22.959 0l-5.48 5.48c-4.529 4.529-7.024 10.553-7.024 16.959s2.495 12.429 7.024 16.958a23.83 23.83 0 0 0 16.96 7.026 23.82 23.82 0 0 0 16.959-7.024m-23.314-10.605a8.93 8.93 0 0 1-2.632-6.353c0-2.401.935-4.657 2.632-6.354l5.48-5.48c.241-.241.558-.362.875-.362s.634.121.875.362l5.479 5.479a8.93 8.93 0 0 1 2.632 6.355c0 2.4-.934 4.656-2.632 6.354-1.697 1.697-3.954 2.632-6.354 2.632s-4.657-.935-6.355-2.633M285.763 239.228c4.53-4.529 7.025-10.553 7.025-16.959s-2.495-12.429-7.025-16.96l-5.48-5.48c-6.329-6.328-16.628-6.331-22.96.001l-5.479 5.48c-4.529 4.529-7.024 10.553-7.024 16.959s2.495 12.429 7.024 16.958c4.53 4.53 10.553 7.026 16.959 7.026s12.43-2.495 16.96-7.025m-23.314-10.605a8.93 8.93 0 0 1-2.632-6.353 8.93 8.93 0 0 1 2.632-6.355l5.478-5.479a1.24 1.24 0 0 1 1.751 0l5.479 5.479a8.93 8.93 0 0 1 2.632 6.355c0 2.4-.934 4.656-2.632 6.353a8.93 8.93 0 0 1-6.355 2.633 8.92 8.92 0 0 1-6.353-2.633M169.417 220.019a16.13 16.13 0 0 0-11.48 4.755l-5.48 5.48c-9.35 9.351-9.35 24.567 0 33.918v.001c4.676 4.675 10.817 7.012 16.959 7.012s12.284-2.337 16.96-7.013c9.35-9.351 9.35-24.567-.001-33.919l-5.478-5.478a16.12 16.12 0 0 0-11.48-4.756m6.355 33.548c-3.503 3.503-9.206 3.503-12.709 0v.001c-3.504-3.504-3.504-9.206 0-12.71l5.48-5.48c.3-.3.641-.362.875-.362s.575.062.876.363l5.479 5.478c3.503 3.504 3.503 9.206-.001 12.71M89.996 294.082c4.676 4.675 10.817 7.012 16.959 7.012s12.284-2.337 16.96-7.013c9.35-9.351 9.35-24.567-.001-33.919l-5.478-5.478c-3.066-3.067-7.144-4.756-11.481-4.756s-8.414 1.689-11.48 4.756l-5.479 5.479c-4.53 4.529-7.025 10.553-7.025 16.959s2.495 12.43 7.025 16.96m10.605-23.314 5.479-5.479c.3-.3.641-.362.875-.362s.575.062.876.363l5.479 5.478c3.504 3.504 3.504 9.206 0 12.71-3.503 3.503-9.206 3.503-12.709 0a8.93 8.93 0 0 1-2.632-6.354c0-2.4.934-4.658 2.632-6.356M231.881 249.929a16.13 16.13 0 0 0-11.48 4.755l-5.48 5.48c-4.53 4.529-7.025 10.553-7.025 16.959s2.495 12.429 7.024 16.959v.001c4.676 4.675 10.817 7.012 16.959 7.012s12.284-2.337 16.96-7.013c9.35-9.351 9.35-24.567-.001-33.919l-5.478-5.478a16.12 16.12 0 0 0-11.479-4.756m6.354 33.547c-3.503 3.503-9.206 3.503-12.709 0a8.93 8.93 0 0 1-2.632-6.354c0-2.4.934-4.656 2.632-6.353l5.48-5.48c.299-.3.641-.362.874-.362s.575.062.875.363l5.479 5.478c3.505 3.503 3.505 9.205.001 12.708M152.458 328.395c4.676 4.675 10.817 7.012 16.959 7.012s12.284-2.337 16.96-7.013c9.35-9.351 9.35-24.567 0-33.919l-5.48-5.479c-6.33-6.329-16.629-6.33-22.96.001l-5.479 5.479c-9.35 9.351-9.35 24.567 0 33.919m10.606-23.315 5.478-5.479a1.24 1.24 0 0 1 1.751 0l5.479 5.479c3.504 3.504 3.504 9.206 0 12.71-3.503 3.503-9.206 3.503-12.709 0v.001c-3.504-3.505-3.504-9.207.001-12.711M186.377 414.797a23.83 23.83 0 0 0 7.025-16.96 23.83 23.83 0 0 0-7.025-16.959l-5.48-5.479c-6.33-6.329-16.629-6.33-22.96.001l-5.479 5.479a23.83 23.83 0 0 0-7.025 16.959c0 6.407 2.495 12.43 7.024 16.959a23.83 23.83 0 0 0 16.96 7.026 23.83 23.83 0 0 0 16.96-7.026m-23.314-10.605a8.93 8.93 0 0 1-2.632-6.354c0-2.4.934-4.656 2.632-6.354l5.478-5.479a1.24 1.24 0 0 1 1.751 0l5.48 5.479a8.93 8.93 0 0 1 2.632 6.353 8.93 8.93 0 0 1-2.632 6.355 8.93 8.93 0 0 1-6.354 2.632 8.92 8.92 0 0 1-6.355-2.632M137.369 330.267c-6.33-6.329-16.629-6.328-22.959 0l-5.48 5.48c-4.529 4.529-7.024 10.553-7.024 16.959s2.495 12.429 7.025 16.959 10.553 7.025 16.959 7.025 12.429-2.496 16.959-7.025 7.025-10.553 7.025-16.959-2.495-12.429-7.024-16.959zm-5.125 28.794c-1.697 1.697-3.954 2.632-6.354 2.632s-4.657-.935-6.355-2.633a8.93 8.93 0 0 1-2.632-6.353c0-2.401.935-4.657 2.632-6.354l5.48-5.479c.241-.242.558-.362.875-.362s.634.12.875.361l5.479 5.479a8.93 8.93 0 0 1 2.632 6.355 8.93 8.93 0 0 1-2.632 6.354M231.798 369.665c4.53-4.529 7.025-10.553 7.025-16.959s-2.495-12.429-7.025-16.96l-5.48-5.479c-6.329-6.329-16.629-6.328-22.959 0l-5.48 5.48c-4.529 4.529-7.024 10.553-7.024 16.959s2.495 12.429 7.024 16.958c4.53 4.53 10.553 7.026 16.959 7.026a23.82 23.82 0 0 0 16.96-7.025m-23.314-10.605a8.93 8.93 0 0 1-2.632-6.353c0-2.401.935-4.657 2.632-6.354l5.48-5.479c.241-.241.558-.362.875-.362s.634.121.875.362l5.479 5.479a8.93 8.93 0 0 1 2.632 6.355c0 2.4-.934 4.656-2.632 6.354a8.93 8.93 0 0 1-6.354 2.632 8.93 8.93 0 0 1-6.355-2.634"/></svg>