<svg xmlns="http://www.w3.org/2000/svg" width="512" height="512"><path fill="#a3e440" d="M248.008 164.768c-64.799 14.151-130.052.252-185.916-34.324-2.911-1.801-3.848-6.092-1.954-8.944 36.361-54.731 89.88-94.568 154.679-108.719 66.934-14.617 134.341.697 191.399 37.827-36.388 57.521-91.274 99.542-158.208 114.16"/><path fill="#99d53b" d="M406.216 50.61c-36.385 57.523-91.276 99.54-158.203 114.155-64.806 14.156-130.052.25-185.924-34.324-2.911-1.801-3.841-6.092-1.951-8.944a263 263 0 0 1 3.701-5.432c48.389 22.149 101.931 29.462 155.172 17.837 62.635-13.676 114.726-51.361 150.97-103.281a281 281 0 0 1 36.235 19.989"/><path fill="#d68a5a" d="M352.424 122.74s32.107-38.408 44.166-80.992c1.704-6.016 8.001-9.464 13.957-7.559l7.691 2.46c5.81 1.858 8.993 8.077 7.112 13.88-5.996 18.501-15.475 58.864-.509 97.531z"/><path fill="#c47a4a" d="M425.349 50.529c-5.997 18.506-15.478 58.864-.506 97.534l-18.159-6.354c-14.575-38.452-5.173-78.413.784-96.8a11 11 0 0 0-2.512-11 10.76 10.76 0 0 1 5.59.278l7.694 2.462c5.808 1.857 8.995 8.082 7.109 13.88"/><path fill="#2db181" d="M117.127 310.148s-73.91 4.76-89.353 63.47 57.363 154.12 206.285 125.72 271.358-170.731 250.79-293.897C462.682 72.708 209.076-1.753 117.127 310.148"/><path fill="#1ca56f" d="M234.056 499.341c-99.063 18.893-164.45-17.007-192.576-60.443 32.306 30.44 87.894 50.614 164.907 35.92 141.486-26.985 257.804-162.206 238.266-279.22-8.399-50.306-51.795-91.805-106.479-104.702 73.081 1.34 136.125 51.338 146.679 114.541 20.56 123.169-101.874 265.499-250.797 293.904"/><path d="M80.75 326.95c9.422-3.978 18.496-6.295 25.285-7.624-3.308 8.079-8.968 19.319-17.751 29.197a7.5 7.5 0 0 0 .622 10.592 7.47 7.47 0 0 0 4.982 1.896c2.069 0 4.128-.85 5.61-2.518 17.702-19.91 24.197-43.767 24.86-46.341 22.551-76.439 56.013-133.859 99.458-170.665 45.673-38.692 90.904-44.645 120.816-42.836 32.311 1.961 63.577 14.07 88.037 34.098 24.226 19.836 40.129 46.09 44.778 73.928.414 2.477.787 5.217 1.141 8.378.46 4.119 4.18 7.086 8.289 6.623a7.5 7.5 0 0 0 6.623-8.289c-.384-3.434-.793-6.439-1.252-9.184-5.248-31.426-23.031-60.926-50.072-83.065a162 162 0 0 0-17.725-12.6c-.982-23.745 4.547-44.935 8.035-55.696a18.4 18.4 0 0 0-1.134-14.162 18.37 18.37 0 0 0-10.828-9.178l-7.692-2.46c-4.811-1.539-9.908-1.07-14.357 1.317a18.46 18.46 0 0 0-6.437 5.738c-26.881-14.972-55.196-25.156-84.251-30.284-31.967-5.642-64.114-5.023-95.544 1.841a245.6 245.6 0 0 0-47.63 15.644 7.503 7.503 0 0 0 6.117 13.703 230.5 230.5 0 0 1 44.714-14.687c29.509-6.445 59.699-7.025 89.735-1.723 27.474 4.849 54.281 14.512 79.758 28.73l-56.566 12.353-27.817-17.845a7.5 7.5 0 0 0-10.366 2.264 7.503 7.503 0 0 0 2.264 10.366l15.186 9.742-27.532 6.013-27.817-17.845a7.5 7.5 0 0 0-10.366 2.264 7.5 7.5 0 0 0 2.264 10.366l15.187 9.742-27.533 6.013-27.817-17.845a7.5 7.5 0 0 0-10.366 2.264 7.5 7.5 0 0 0 2.264 10.366l15.187 9.742-27.533 6.013-27.817-17.845a7.503 7.503 0 1 0-8.102 12.63l15.187 9.743-40.771 8.903a7.503 7.503 0 0 0 3.202 14.66l17.648-3.854-9.742 15.186a7.5 7.5 0 0 0 2.264 10.366 7.497 7.497 0 0 0 10.367-2.264l17.845-27.816 27.533-6.013-9.742 15.186a7.5 7.5 0 0 0 2.264 10.366 7.497 7.497 0 0 0 10.367-2.264l17.845-27.816 27.533-6.013-9.742 15.186a7.5 7.5 0 0 0 .105 8.262 221 221 0 0 0-15.697 12.138c-11.273 9.55-21.895 20.386-31.855 32.478-39.837-2.431-79.984-15.434-116.198-37.635 20.133-30.034 44.927-54.638 73.71-73.136a7.5 7.5 0 0 0 2.255-10.368 7.505 7.505 0 0 0-10.368-2.256c-30.849 19.826-57.343 46.214-78.746 78.431-2.021 3.041-2.715 6.912-1.906 10.618.81 3.707 3.055 6.934 6.16 8.856 35.556 22.007 74.813 35.607 114.156 39.641-24.594 33.887-44.667 76.215-59.959 126.555-7.264.971-21.116 3.492-36.019 9.72-28.939 12.094-47.9 32.415-54.831 58.766-8.071 30.681 5.841 68.309 35.441 95.861a7.48 7.48 0 0 0 5.11 2.011 7.505 7.505 0 0 0 5.113-12.996c-25.608-23.835-37.836-55.652-31.153-81.058 5.744-21.848 21.127-38.192 45.717-48.575M335.983 73.372l-6.464 10.077a172 172 0 0 0-25.402 2.691l4.333-6.755zm44.448-9.706c-3.404 7.457-7.452 15.122-12.112 22.948a171 171 0 0 0-21.189-2.827l9.586-14.942zm25.142-22.084a3.44 3.44 0 0 1 2.688-.246l7.692 2.46A3.48 3.48 0 0 1 418 45.529c.248.484.606 1.475.213 2.687-3.365 10.385-8.472 29.691-8.858 52.074a171 171 0 0 0-25.837-9.936c9.307-16.214 16.127-31.85 20.292-46.561a3.6 3.6 0 0 1 1.763-2.211M260.184 89.926l27.533-6.013-4.786 7.46c-11.085 3.479-21.946 8.078-32.509 13.769zM486.966 243.059c-4.147-.413-7.792 2.62-8.191 6.745-10.611 109.672-121.021 218.305-246.122 242.163-67.345 12.842-112.549-1.331-138.613-15.483a7.504 7.504 0 0 0-7.161 13.187C107.406 500.818 138.763 512 181.943 512c16.165 0 33.992-1.568 53.521-5.292 64.241-12.251 126.424-45.749 175.093-94.321 48.225-48.129 77.757-105.356 83.153-161.137a7.503 7.503 0 0 0-6.744-8.191"/></svg>