<svg xmlns="http://www.w3.org/2000/svg" width="512" height="512"><path fill="#158f5e" d="M281.242 87.778c7.344 27.41 3.748 55.51-8.326 80.667-2.617 5.452-9.518 7.302-14.511 3.889-23.04-15.749-40.205-38.286-47.55-65.696s-3.746-55.506 8.333-80.664c2.618-5.452 9.519-7.3 14.511-3.887 23.035 15.749 40.199 38.281 47.543 65.691"/><path fill="#0f7a4f" d="M272.917 168.442c-2.622 5.452-9.514 7.309-14.509 3.893a125 125 0 0 1-9.424-7.11c9.831-23.556 12.344-49.356 5.581-74.571-6.306-23.526-19.842-43.457-38.114-58.582a140 140 0 0 1 2.741-6.098c2.612-5.452 9.514-7.299 14.509-3.883 23.03 15.74 40.2 38.273 47.539 65.682 7.347 27.42 3.753 55.514-8.323 80.669"/><path fill="#2db181" d="M245.674 75.547c-7.014 27.496-3.08 55.551 9.296 80.561 2.682 5.42 9.605 7.187 14.557 3.714 22.849-16.025 39.742-38.767 46.756-66.264s3.078-55.547-9.302-80.558c-2.683-5.42-9.606-7.185-14.557-3.712-22.844 16.026-39.735 38.763-46.75 66.259"/><path fill="#1ca56f" d="M316.285 93.563c-7.021 27.489-23.914 50.23-46.754 66.259-4.955 3.476-11.877 1.708-14.559-3.714a136 136 0 0 1-2.662-5.72c18.213-15.363 31.6-35.533 37.638-59.228 6.495-25.423 3.615-51.313-6.634-74.849a126 126 0 0 1 9.107-7.021c4.955-3.476 11.877-1.708 14.559 3.714 12.383 25.006 16.316 53.061 9.305 80.559"/><path fill="#a3e440" d="M250.923 124.676c14.188 24.575 17.987 52.648 12.836 80.073-1.116 5.944-7.304 9.517-13.01 7.512-26.331-9.249-48.744-26.576-62.933-51.151s-17.985-52.645-12.829-80.072c1.117-5.943 7.305-9.515 13.011-7.51 26.326 9.25 48.737 26.573 62.925 51.148"/><path fill="#99d53b" d="M263.76 204.749c-1.112 5.949-7.309 9.514-13.009 7.508a124 124 0 0 1-11.987-4.906c3.674-25.632-.516-51.601-13.754-74.521-11.986-20.745-29.822-36.327-50.935-46.238.258-1.847.566-3.704.914-5.551 1.112-5.949 7.309-9.514 13.009-7.518 26.327 9.256 48.741 26.575 62.922 51.154 14.191 24.579 17.994 52.643 12.84 80.072"/><path fill="#bcea73" d="M324.182 161.11c-14.188 24.575-36.601 41.901-62.928 51.153-5.706 2.005-11.894-1.567-13.011-7.511-5.156-27.428-1.357-55.502 12.832-80.077s36.6-41.898 62.93-51.146c5.706-2.004 11.893 1.569 13.01 7.512 5.151 27.425 1.355 55.494-12.833 80.069"/><path fill="#a3e440" d="M324.18 161.113c-14.181 24.569-36.595 41.898-62.922 51.154-5.71 2.006-11.897-1.569-13.019-7.518a115 115 0 0 1-.626-3.654c20.656-9.931 38.105-25.344 49.893-45.741 13.556-23.487 17.627-50.151 13.456-76.408a126 126 0 0 1 13.039-5.412c5.71-2.006 11.897 1.569 13.009 7.508 5.154 27.427 1.361 55.492-12.83 80.071"/><path fill="#fddd45" d="M256 504.5c-72.809 0-130.578-61.326-126.234-134.005l5.083-85.036c3.832-64.102 56.934-114.125 121.151-114.125s117.319 50.023 121.151 114.125l5.083 85.036C386.578 443.174 328.809 504.5 256 504.5"/><path fill="#f8c52d" d="M256 504.5c-6.73 0-13.33-.52-19.77-1.54 63.18-9.9 110.4-66.51 106.45-132.46l-5.08-85.04c-1.92-32.05-16.15-60.58-37.93-81.1-17.21-16.22-39.14-27.43-63.44-31.41 6.44-1.07 13.04-1.62 19.77-1.62 32.11 0 61.44 12.51 83.22 33.03s36.02 49.05 37.93 81.1l5.08 85.04c4.35 72.67-53.42 134-126.23 134"/><path d="m389.72 370.049-5.083-85.037c-2.48-41.499-24.522-77.504-56.812-99.249a7.4 7.4 0 0 0-1.445-.953 129 129 0 0 0-6.681-4.088 119 119 0 0 0 10.978-15.86c14.667-25.404 19.407-54.866 13.709-85.203a17.38 17.38 0 0 0-8.401-11.845 17.4 17.4 0 0 0-8.763-2.331c-.107-18.894-4.711-38.014-13.519-55.809A17.38 17.38 0 0 0 302.405.543a17.38 17.38 0 0 0-14.288 2.606c-11.968 8.396-22.12 18.289-30.266 29.396-5.991-6.108-12.663-11.688-19.918-16.648a17.36 17.36 0 0 0-14.319-2.436 17.38 17.38 0 0 0-11.186 9.267c-7.385 15.379-11.612 31.279-12.625 47.403a138 138 0 0 0-9.317-3.679c-4.784-1.681-10.057-1.188-14.462 1.355s-7.469 6.86-8.406 11.846c-2.055 10.927-2.75 21.914-2.068 32.657a7.493 7.493 0 0 0 7.961 7.01 7.5 7.5 0 0 0 7.01-7.961c-.604-9.498.016-19.233 1.84-28.935a2.37 2.37 0 0 1 1.163-1.626 2.38 2.38 0 0 1 1.99-.194c25.692 9.028 46.065 25.565 58.916 47.82a106 106 0 0 1 3.341 6.278 119 119 0 0 0-7.867 28.377l-20.832-44.666a7.501 7.501 0 0 0-13.594 6.34l19.941 42.756a128 128 0 0 0-19.261 6.372 104 104 0 0 1-11.845-16.52 104 104 0 0 1-6.327-12.965 7.5 7.5 0 0 0-9.766-4.139 7.5 7.5 0 0 0-4.139 9.766 119 119 0 0 0 7.241 14.838 119 119 0 0 0 10.979 15.861c-36.677 20.936-62.254 59.397-64.937 104.29l-1.958 32.75a7.5 7.5 0 0 0 7.039 7.934c4.131.274 7.688-2.904 7.934-7.039l.284-4.747 24.665 24.665-27.801 27.801.685-11.472a7.5 7.5 0 0 0-7.039-7.934c-4.152-.269-7.688 2.905-7.934 7.039l-.958 16.04c-2.227 37.234 10.634 72.694 36.211 99.846S218.698 512 256 512c1.894 0 3.779-.049 5.658-.125h.01c.027 0 .055-.004.082-.004 35.1-1.457 67.502-16.225 91.759-41.977 25.577-27.151 38.438-62.611 36.211-99.845m-28.326 63.313-14.721-14.721 27.609-27.609c-1.587 14.895-5.952 29.196-12.888 42.33M256 488.1l-29.425-29.425L256 429.248l29.425 29.425zm40.033-18.819 14.554 14.554c-12.867 6.662-26.899 10.893-41.574 12.466zm-53.046 27.02c-14.675-1.573-28.707-5.804-41.574-12.465l14.554-14.554zm1.424-316.876-28.444 28.444-14.884-14.884a113.1 113.1 0 0 1 43.328-13.56m66.507 13.559-14.884 14.884-28.444-28.444a113.2 113.2 0 0 1 43.328 13.56M256 189.05l29.426 29.426L256 247.902l-29.426-29.426zm113.269 92.055-22.596-22.596 12.961-12.961a113.1 113.1 0 0 1 9.635 35.557m5.205 85.27-27.8-27.8 24.664-24.664zm-8.982-67.833-29.425 29.425-29.426-29.426 29.426-29.426zm-40.033 40.033-29.426 29.426-29.426-29.426 29.426-29.426zm-29.426-50.641-29.426-29.426 29.426-29.425 29.425 29.425zm-50.64-29.425-29.426 29.426-29.426-29.426 29.425-29.425zM256 269.116l29.426 29.426L256 327.967l-29.426-29.426zm-10.607 69.459L215.967 368l-29.426-29.426 29.425-29.425zM256 349.182l29.426 29.426L256 408.034l-29.426-29.426zm-10.607 69.459-29.426 29.426-29.426-29.426 29.426-29.426zm21.215 0 29.425-29.425 29.425 29.425-29.425 29.425zm40.033-40.033 29.426-29.426 29.425 29.425-29.426 29.426zm45.532-146.814-16.107 16.107-29.425-29.425 17.182-17.182a115 115 0 0 1 8.967 7.408 7.5 7.5 0 0 0-4.906 6.651l-.104 2a7.5 7.5 0 0 0 14.894 1.579 114 114 0 0 1 9.499 12.862M296.732 15.428a2.37 2.37 0 0 1 1.967-.351c.402.103 1.14.401 1.561 1.251 8.514 17.199 12.598 35.736 11.894 53.824a131 131 0 0 0-17.06 9.001 7.5 7.5 0 0 0-2.371 10.338 7.5 7.5 0 0 0 10.339 2.371 117.3 117.3 0 0 1 23.428-11.255 2.38 2.38 0 0 1 1.993.194c.358.207.987.694 1.162 1.626 5.027 26.765.893 52.677-11.957 74.934a104 104 0 0 1-11.844 16.52 128 128 0 0 0-11.673-4.261l25.73-57.539a7.5 7.5 0 0 0-13.693-6.123l-26.836 60.012a129 129 0 0 0-23.371-2.137c-.344 0-.685.01-1.029.013 2.04-12.56 6.259-24.446 12.598-35.419 2.854-4.94 6.215-9.755 9.987-14.309a7.501 7.501 0 0 0-11.551-9.571 120 120 0 0 0-10.008 14.04 120 120 0 0 0-6.06-9.022c-.671-10.848.324-21.661 3.004-32.166 6.352-24.901 21.495-46.33 43.79-61.971M214.564 77.69c.011-16.448 3.833-32.74 11.385-48.47a2.38 2.38 0 0 1 1.545-1.27 2.37 2.37 0 0 1 1.972.328c7.435 5.083 14.165 10.888 20.064 17.287a119.1 119.1 0 0 0-11.123 28.128 119 119 0 0 0-3.263 19.357 122.5 122.5 0 0 0-20.58-15.36m-45.322 141.34c.586 3.373 3.433 6.017 6.996 6.201q.198.01.395.01a7.5 7.5 0 0 0 7.483-7.112l.104-2a7.5 7.5 0 0 0-4.98-7.453 115 115 0 0 1 8.938-7.381l17.182 17.182-29.425 29.425-16.107-16.107a114 114 0 0 1 9.414-12.765m-16.877 26.517 12.961 12.961-22.596 22.596a113.2 113.2 0 0 1 9.635-35.557m-5.856 52.995 29.425-29.425 29.426 29.426-29.425 29.425zm58.851 80.066-29.426 29.426-29.426-29.426 29.426-29.426zm-67.642 12.424 27.609 27.609-14.721 14.721c-6.936-13.134-11.301-27.435-12.888-42.33m20.966 55.467 17.25-17.251 29.426 29.426-17.171 17.171a120 120 0 0 1-12.699-10.225 8 8 0 0 0 1.144.087 7.5 7.5 0 0 0 7.483-7.112l.104-1.999a7.5 7.5 0 0 0-7.103-7.878c-4.095-.21-7.663 2.965-7.878 7.103l-.104 1.999a7.5 7.5 0 0 0 .088 1.587 121.6 121.6 0 0 1-10.54-12.908m183.958 13.053c.057-.313.102-.631.119-.958l.104-1.999a7.5 7.5 0 0 0-7.103-7.878c-4.099-.21-7.663 2.965-7.878 7.103l-.104 1.999a7.5 7.5 0 0 0 7.498 7.888c.43 0 .85-.043 1.261-.113a120 120 0 0 1-12.727 10.252l-17.172-17.172 29.425-29.425 17.25 17.251a121.5 121.5 0 0 1-10.673 13.052"/><path d="M216.011 266.308q.198.01.395.01a7.5 7.5 0 0 0 7.483-7.112l.104-1.999a7.5 7.5 0 0 0-7.103-7.878c-4.094-.206-7.663 2.964-7.878 7.103l-.104 1.999a7.5 7.5 0 0 0 7.103 7.877M288.334 256.431l-.104 1.999a7.501 7.501 0 0 0 14.981.776l.104-1.999a7.5 7.5 0 0 0-7.103-7.878c-4.11-.206-7.663 2.964-7.878 7.102M216.011 346.464q.198.01.395.01a7.5 7.5 0 0 0 7.483-7.112l.104-1.999a7.5 7.5 0 0 0-7.103-7.878c-4.094-.207-7.663 2.964-7.878 7.103l-.104 1.999a7.5 7.5 0 0 0 7.103 7.877M295.333 346.464q.197.01.395.01a7.5 7.5 0 0 0 7.483-7.112l.104-1.999a7.5 7.5 0 0 0-7.103-7.878c-4.11-.207-7.663 2.964-7.878 7.103l-.104 1.999a7.5 7.5 0 0 0 7.103 7.877M216.011 426.62q.198.01.395.01a7.5 7.5 0 0 0 7.483-7.112l.104-2a7.5 7.5 0 0 0-7.103-7.878c-4.134-.222-7.663 2.965-7.878 7.103l-.104 2a7.5 7.5 0 0 0 7.103 7.877M296.212 409.639c-4.128-.222-7.663 2.965-7.878 7.103l-.104 2a7.5 7.5 0 0 0 14.981.776l.104-2a7.5 7.5 0 0 0-7.103-7.879M177.117 290.406c-4.117-.225-7.663 2.965-7.878 7.103l-.104 2a7.5 7.5 0 0 0 14.981.776l.104-2a7.5 7.5 0 0 0-7.103-7.879M263.438 300.284l.104-2a7.5 7.5 0 0 0-7.103-7.878c-4.142-.225-7.663 2.965-7.878 7.103l-.104 2a7.5 7.5 0 1 0 14.981.775M334.883 307.386q.198.01.395.01a7.5 7.5 0 0 0 7.483-7.112l.104-2a7.5 7.5 0 0 0-7.103-7.878c-4.137-.225-7.664 2.965-7.878 7.103l-.104 2a7.5 7.5 0 0 0 7.103 7.877M263.438 218.128l.104-2a7.5 7.5 0 1 0-14.981-.775l-.104 2a7.5 7.5 0 1 0 14.981.775M248.562 455.82l-.104 1.999a7.501 7.501 0 0 0 14.981.776l.104-1.999a7.5 7.5 0 0 0-7.103-7.878c-4.113-.21-7.664 2.965-7.878 7.102M176.238 387.542q.198.01.395.01a7.5 7.5 0 0 0 7.483-7.112l.104-2a7.5 7.5 0 0 0-7.103-7.878c-4.117-.228-7.663 2.965-7.878 7.103l-.104 2a7.5 7.5 0 0 0 7.103 7.877M263.438 380.439l.104-2a7.5 7.5 0 0 0-7.103-7.878c-4.142-.228-7.663 2.965-7.878 7.103l-.104 2a7.5 7.5 0 1 0 14.981.775M335.762 370.561c-4.137-.228-7.664 2.965-7.878 7.103l-.104 2a7.5 7.5 0 0 0 14.981.776l.104-2a7.5 7.5 0 0 0-7.103-7.879"/></svg>