<svg xmlns="http://www.w3.org/2000/svg" width="512" height="512"><path fill="#e22334" d="M348.545 100.594c6.545-6.448 14.709-12.815 24.874-18.481 4.209-2.346 2.715-8.772-2.098-9.003-14.842-.713-36.346 1.376-49.714 16.613 0 0 .145-27.516 28.272-50.027 3.645-2.917 1.354-8.828-3.306-8.543-13.857.846-34.061 5.32-46.849 22.657-12.787-17.337-32.992-21.811-46.849-22.657-4.66-.285-6.95 5.626-3.306 8.543 28.127 22.511 28.272 50.027 28.272 50.027-13.368-15.237-34.872-17.326-49.714-16.613-4.815.231-6.306 6.657-2.096 9.004 9.828 5.478 17.785 11.612 24.217 17.841 10.004 9.688 5.131 26.53-8.435 29.676C129.154 155.76 94.949 259.359 94.949 347.54c0 91.056 159.021 133.316 204.779 133.312 41.745-.004 204.773-39.675 204.773-134.47 0-87.414-41.983-189.522-148.11-216.28-13.218-3.332-17.556-19.941-7.846-29.508"/><g fill="#c21d2c"><path d="M311.31 457.853c-15.5 7.092-31.928 13.445-48.535 18.283-64.006-13.306-167.829-55.029-167.829-128.6 0-35.519 5.546-73.531 19.54-107.982L314.532 439.61c5.556 5.546 3.92 14.972-3.222 18.243"/><path d="M504.498 346.378c0 94.8-163.021 134.467-204.768 134.477-5.143 0-11.71-.529-19.328-1.608 58.34-8.292 185.903-49.018 185.903-132.869 0-87.414-43.213-184.421-149.273-207.627-13.321-2.915-10.072-32.807 4.578-49.029 0 0 .01-.01.029-.039 13.376-15.197 34.852-17.286 49.682-16.574 4.815.231 6.308 6.654 2.1 9.004-10.17 5.662-18.326 12.028-24.875 18.48-9.707 9.563-5.374 26.175 7.849 29.507 106.125 26.764 148.103 128.864 148.103 216.278"/></g><path fill="#ffd496" d="M39.745 193.252c-5.733-5.733-15.496-3.756-18.488 3.78-39.215 98.788 11.88 193.626 74.994 256.74 44.034 44.034 120.235 27.417 181.8-.743 7.14-3.266 8.779-12.692 3.227-18.243z"/><path fill="#fcc16d" d="M278.056 453.025a384 384 0 0 1-22.502 9.466c3.152-4.059 3.082-10.154-.898-14.144L26.183 219.875c-3.301-3.301-8.019-3.9-11.839-2.244a200 200 0 0 1 6.912-20.597c2.992-7.541 12.757-9.516 18.493-3.78l241.529 241.529c5.555 5.555 3.91 14.981-3.222 18.242"/><path fill="#fb4a59" d="M63.038 216.545c-37.776 76.724 1.289 151.406 50.141 200.258 34.999 34.999 97.614 17.926 144.442-5.676z"/><path fill="#f82f40" d="M257.618 411.123c-8.817 4.449-18.203 8.658-27.848 12.338L52.176 245.868c2.454-9.705 6.025-19.5 10.862-29.325z"/><path d="M505.41 285.546a7.5 7.5 0 0 0-14.649 3.221 269 269 0 0 1 6.241 57.616c0 47.087-44.832 78.197-82.442 96.003-44.611 21.122-94.895 30.965-114.833 30.967-7.847.001-21.129-1.438-38.192-5.142a400 400 0 0 0 19.636-8.361 18.72 18.72 0 0 0 10.625-13.709 18.84 18.84 0 0 0-5.214-16.658l-72.378-72.378a7.503 7.503 0 0 0-10.606 0 7.5 7.5 0 0 0 0 10.607l41.251 41.251c-17.814 8.232-41.223 16.946-64.702 19.526-26.708 2.928-47.458-2.78-61.663-16.987-78.114-78.112-66.45-147.893-53.012-181.915l36.258 36.258.083.083 76.19 76.189a7.503 7.503 0 0 0 10.606 0 7.5 7.5 0 0 0 0-10.606l-72.991-72.99c11.427-35.588 29.707-64.341 54.418-85.473a7.5 7.5 0 0 0 .825-10.574 7.5 7.5 0 0 0-10.574-.825c-25.142 21.502-44.097 50.085-56.5 85.042l-58.738-58.738a18.77 18.77 0 0 0-17.122-5.123 18.7 18.7 0 0 0-13.639 11.436c-18.72 47.16-19.045 96.634-.965 147.047 18.549 51.724 52.452 92.59 77.626 117.764 19.457 19.457 45.808 29.283 78.454 29.282q5.71 0 11.678-.401c16.877-1.135 35.368-4.783 54.777-10.734 24.257 6.868 48.681 11.129 63.865 11.129h.006c21.928-.002 74.042-10.059 121.249-32.409C480.525 427.748 512 389.863 512 346.382a284 284 0 0 0-6.59-60.836M180.073 472.991c-33.562 2.265-59.989-5.992-78.519-24.522-24.09-24.089-56.503-63.113-74.115-112.221-16.811-46.875-16.546-92.783.787-136.449.646-1.628 1.99-2.129 2.733-2.282.607-.126 2.168-.275 3.481 1.039l19.569 19.569c-16.099 35.532-17.967 72.953-5.52 111.316 13.211 40.716 39.586 72.866 59.386 92.666 14.717 14.716 34.536 22.134 59.053 22.134q7.163 0 14.853-.845c27.692-3.042 54.947-13.801 74.334-23.165l19.858 19.858c1.278 1.277 1.167 2.798 1.06 3.392-.13.719-.575 2.029-2.104 2.728-34.205 15.647-67.007 24.908-94.856 26.782M198.476 153.626c13.637-7.307 28.788-12.923 45.033-16.69a25.22 25.22 0 0 0 18.626-17.821c2.478-8.928-.015-18.105-6.668-24.548-5.256-5.09-11.102-9.76-17.453-13.949 11.991.664 25.385 4.011 34.191 14.05.027.03.059.054.086.084.048.053.09.109.14.161.039.042 4.075 4.382 7.659 12.929a7.5 7.5 0 0 0 6.918 4.6 7.5 7.5 0 0 0 6.912-10.403c-3.139-7.483-6.644-12.571-8.766-15.273-.759-7.527-4.627-28.193-24.336-47.17 10.719 1.831 22.791 6.378 31.406 16.804v8.125c0 4.142 3.357 7.499 7.499 7.499s7.499-3.357 7.499-7.499v-8.126c8.615-10.427 20.688-14.974 31.406-16.804-19.693 18.962-23.571 39.61-24.334 47.153-3.571 4.419-6.621 9.698-8.888 15.431a7.499 7.499 0 1 0 13.946 5.517c1.977-4.998 4.682-9.476 7.821-12.949q.027-.032.053-.065l.016-.016c8.806-10.039 22.198-13.386 34.19-14.05-6.633 4.375-12.715 9.275-18.154 14.633-6.56 6.463-9.033 15.632-6.615 24.526 2.391 8.796 9.079 15.375 17.89 17.596 31.179 7.861 58.175 22.904 80.238 44.712 19.786 19.558 35.287 44.121 46.072 73.007a7.5 7.5 0 0 0 7.027 4.878 7.5 7.5 0 0 0 7.025-10.125c-11.553-30.942-28.233-57.329-49.58-78.429-23.994-23.717-53.304-40.064-87.114-48.589-5.024-1.266-6.628-5.309-7.084-6.988-.977-3.594.02-7.297 2.668-9.906 6.682-6.583 14.509-12.394 23.264-17.273 4.847-2.703 7.25-8.155 5.981-13.566-1.267-5.404-5.837-9.213-11.372-9.478-11.232-.543-25.257.432-37.867 6.116 3.556-7.934 9.797-17.418 20.752-26.185 4.195-3.358 5.712-8.991 3.775-14.017a12.26 12.26 0 0 0-12.224-7.866c-13.889.848-32.366 4.918-46.391 18.725-14.025-13.807-32.503-17.877-46.392-18.725-5.387-.323-10.284 2.835-12.224 7.867-1.937 5.026-.42 10.659 3.776 14.016 10.956 8.769 17.198 18.255 20.754 26.186-12.612-5.683-26.643-6.659-37.869-6.117-5.536.265-10.106 4.073-11.373 9.477-1.269 5.413 1.136 10.865 5.985 13.568 8.488 4.731 16.108 10.342 22.65 16.678 3.813 3.692 3.124 8.057 2.651 9.762-1.016 3.659-3.842 6.359-7.563 7.222-17.532 4.065-33.927 10.149-48.728 18.079a7.5 7.5 0 0 0-3.069 10.151c1.959 3.656 6.507 5.031 10.155 3.075"/><path d="M108.473 282.106a7.5 7.5 0 0 0-10.593.527l-.187.206a7.5 7.5 0 1 0 11.12 10.065l.187-.206a7.5 7.5 0 0 0-.527-10.592M86.889 260.401a7.5 7.5 0 0 0-10.591.555l-.186.206a7.5 7.5 0 0 0 11.146 10.037l.186-.206a7.5 7.5 0 0 0-.555-10.592M151.719 325.355a7.5 7.5 0 0 0-10.591.555l-.186.206a7.5 7.5 0 0 0 11.146 10.037l.186-.206a7.5 7.5 0 0 0-.555-10.592M130.151 303.662a7.5 7.5 0 0 0-10.591.555l-.186.206a7.5 7.5 0 0 0 11.146 10.037l.186-.206a7.5 7.5 0 0 0-.555-10.592M173.35 346.986a7.5 7.5 0 0 0-10.591.555l-.186.206a7.5 7.5 0 0 0 11.146 10.037l.186-.206a7.5 7.5 0 0 0-.555-10.592M211.406 403.525a7.48 7.48 0 0 0 5.575-2.481l.186-.206a7.5 7.5 0 0 0-11.146-10.036l-.186.206a7.5 7.5 0 0 0 5.571 12.517M195.058 368.568a7.5 7.5 0 0 0-10.593.527l-.187.206a7.5 7.5 0 1 0 11.12 10.065l.187-.206a7.5 7.5 0 0 0-.527-10.592M106.903 307.155a7.5 7.5 0 0 0-10.592.552l-.187.207a7.5 7.5 0 0 0 11.144 10.041l.187-.207a7.5 7.5 0 0 0-.552-10.593M85.331 285.462a7.5 7.5 0 0 0-10.591.555l-.186.206A7.5 7.5 0 0 0 85.7 296.26l.186-.206a7.5 7.5 0 0 0-.555-10.592M150.162 350.416a7.5 7.5 0 0 0-10.591.555l-.186.206a7.5 7.5 0 0 0 11.146 10.037l.186-.206a7.5 7.5 0 0 0-.555-10.592M128.593 328.723a7.5 7.5 0 0 0-10.591.555l-.186.206a7.5 7.5 0 0 0 11.146 10.037l.186-.206a7.5 7.5 0 0 0-.555-10.592M171.793 372.047a7.5 7.5 0 0 0-10.591.555l-.186.206a7.5 7.5 0 0 0 11.146 10.037l.186-.206a7.5 7.5 0 0 0-.555-10.592M193.485 393.615a7.5 7.5 0 0 0-10.591.555l-.186.206a7.5 7.5 0 0 0 11.146 10.037l.186-.206a7.5 7.5 0 0 0-.555-10.592M105.897 342.806a7.5 7.5 0 0 0-11.146-10.036l-.186.206a7.5 7.5 0 0 0 11.146 10.037zM83.774 310.523a7.5 7.5 0 0 0-10.591.555l-.186.206a7.5 7.5 0 0 0 11.146 10.037l.186-.206a7.5 7.5 0 0 0-.555-10.592M149.159 386.068a7.5 7.5 0 0 0-11.146-10.036l-.186.206a7.5 7.5 0 0 0 11.146 10.037zM127.578 364.389a7.5 7.5 0 0 0-11.12-10.066l-.187.206a7.5 7.5 0 1 0 11.12 10.065zM170.235 397.108a7.5 7.5 0 0 0-10.591.555l-.186.206a7.5 7.5 0 0 0 11.146 10.037l.186-.206a7.5 7.5 0 0 0-.555-10.592M118.329 389.862a7.48 7.48 0 0 0 5.562-2.467l.187-.206a7.5 7.5 0 0 0-11.12-10.066l-.187.206a7.5 7.5 0 0 0 5.558 12.533M91.745 366.243a7.47 7.47 0 0 0 5.016 1.927 7.48 7.48 0 0 0 5.575-2.481l.186-.206a7.5 7.5 0 0 0-11.146-10.036l-.186.206a7.5 7.5 0 0 0 .555 10.59M135.007 409.504a7.47 7.47 0 0 0 5.016 1.927 7.48 7.48 0 0 0 5.575-2.481l.186-.206a7.5 7.5 0 0 0-11.146-10.036l-.186.206a7.5 7.5 0 0 0 .555 10.59M443.654 345.493q.213 0 .427-.012a7.5 7.5 0 0 0 7.068-7.908c-3.075-54.836-20.379-93.462-34.354-116.209-15.333-24.958-30.018-36.804-30.635-37.297-3.232-2.578-7.935-2.043-10.52 1.183s-2.062 7.943 1.158 10.535c.135.108 13.632 11.11 27.619 34.088 12.899 21.189 28.878 57.219 31.757 108.539a7.5 7.5 0 0 0 7.48 7.081M392.551 282.863a7.5 7.5 0 0 0-4.557 9.576c2.83 7.97 5.153 16.381 6.902 25.003a7.504 7.504 0 0 0 8.842 5.858 7.5 7.5 0 0 0 5.858-8.842c-1.889-9.309-4.402-18.407-7.468-27.038-1.388-3.904-5.679-5.945-9.577-4.557"/></svg>