<svg xmlns="http://www.w3.org/2000/svg" width="512" height="512"><ellipse cx="292.902" cy="307.859" fill="#683983" rx="162.334" ry="196.64"/><path fill="#804d9e" d="M455.239 307.86c0 108.6-72.684 196.64-162.341 196.64-6.698 0-13.303-.488-19.794-1.452 80.305-11.83 142.526-94.707 142.526-195.188s-62.22-183.358-142.525-195.189a135 135 0 0 1 19.794-1.452c89.657 0 162.34 88.04 162.34 196.641"/><path fill="#bcea73" d="M269.011 157.371c-4.683-64.646-24.174-110.478-33.715-129.495-2.694-5.37-.267-11.89 5.276-14.206l12.878-5.379c5.225-2.182 11.247.223 13.506 5.415 21.411 49.212 26.96 108.973 26.149 143.137-.155 6.538-5.523 11.744-12.063 11.744-6.332 0-11.574-4.901-12.031-11.216"/><ellipse cx="219.097" cy="307.859" fill="#ae6ad8" rx="162.334" ry="196.64"/><path fill="#975bbb" d="M283.245 145.736c-85.872 46.514-133.06 32.578-158.992 2.52 26.678-23.309 59.432-37.037 94.841-37.037 18.02 0 35.357 3.557 51.553 10.13 9.426 13.335 12.598 24.387 12.598 24.387"/><path fill="#975bbb" d="M381.436 307.86c0 108.6-72.684 196.64-162.341 196.64-8.948 0-17.73-.881-26.295-2.572 81.155-10.068 144.465-93.11 144.465-194.069s-63.31-184-144.465-194.068a135.7 135.7 0 0 1 26.295-2.572c89.657 0 162.341 88.04 162.341 196.641"/><path fill="#99d53b" d="M270.578 120.116s-17.666-61.649-93.579-69.285c-37.156-3.738-61.175-10.961-76.016-17.363-9.797-4.226-20.474 3.838-19.025 14.408 7.078 51.67 39.629 152.934 188.62 72.24"/><path fill="#82b732" d="M270.582 120.115a367 367 0 0 1-17.927 9.104c-9.239-18.218-33.656-52.237-88.765-57.774-37.161-3.743-61.175-10.96-76.022-17.367a13.4 13.4 0 0 0-5.153-1.13c-.28-1.731-.529-3.432-.757-5.07-1.451-10.576 9.228-18.632 19.026-14.412 14.837 6.408 38.861 13.624 76.012 17.367 75.918 7.631 93.586 69.282 93.586 69.282"/><path d="M417.609 169.256a7.5 7.5 0 0 0-10.518-1.369 7.5 7.5 0 0 0-1.369 10.518c27.094 35.203 42.014 81.176 42.014 129.45C447.737 412.15 378.278 497 292.902 497c-3.045 0-6.086-.113-9.117-.329 18.475-9.137 35.612-22.212 50.59-38.859 30.916-34.36 50.036-80.96 53.838-131.216a7.5 7.5 0 0 0-6.913-8.044 7.497 7.497 0 0 0-8.045 6.913c-3.554 46.966-21.322 90.404-50.032 122.313-28.558 31.74-65.538 49.22-104.127 49.22-85.375 0-154.833-84.847-154.833-189.139 0-64.239 26.214-123.207 70.228-158.362 11.774 5.493 25.021 8.259 39.693 8.259q7.372 0 15.22-.929a7.5 7.5 0 0 0 6.566-8.331c-.487-4.112-4.221-7.039-8.33-6.566-32.161 3.811-57.153-5.975-74.288-29.082-15.129-20.402-21.382-47.147-23.963-65.99-.441-3.218 1.517-5.09 2.378-5.744.872-.662 3.225-2.062 6.245-.759 20.197 8.712 46.519 14.747 78.236 17.938 29.227 2.941 52.731 14.513 69.86 34.396a97 97 0 0 1 8.814 11.987c-10.021-3.413-23.98-6.818-42.342-8.398-9.144-.787-17.301-1.615-24.684-2.607-3.187-2.897-10.65-10.248-14.85-19.033a7.5 7.5 0 0 0-13.533 6.471c1.355 2.834 2.949 5.509 4.632 8.002-12.777-3.494-22.899-8.548-32.501-16.533a7.5 7.5 0 0 0-9.591 11.534c18.529 15.408 39.327 21.247 64.665 24.568-6.562 2.664-14.055 4.945-21.577 5.617a7.5 7.5 0 1 0 1.335 14.942c20.965-1.872 40.709-13.47 47.402-17.771 18.362 1.806 31.518 5.541 40.043 8.802-11.389 5.594-22.318 10.192-32.609 13.689a7.501 7.501 0 0 0 4.827 14.204c13.649-4.639 28.287-11.066 43.558-19.091 57.436 24.269 97.979 87.234 103.561 161.233a7.5 7.5 0 0 0 14.958-1.128c-5.186-68.752-38.831-128.801-88.247-160.916a417 417 0 0 0-.692-9.379c29.757 1.471 58.202 13.229 82.626 34.236a7.47 7.47 0 0 0 4.887 1.814 7.5 7.5 0 0 0 4.895-13.186c-27.617-23.753-60.01-36.804-93.959-37.935-3.194-26.383-9.887-60.906-23.892-93.095-3.87-8.897-14.311-13.085-23.275-9.344l-12.878 5.379a17.93 17.93 0 0 0-9.871 10.28 17.91 17.91 0 0 0 .782 14.21c4.025 8.024 9.983 21.2 15.788 38.827-14.68-12.18-36.183-23.634-66.63-26.697-37.597-3.783-60.883-11.217-73.796-16.788-7.132-3.078-15.081-2.107-21.263 2.589-6.162 4.684-9.214 12.057-8.164 19.723 2.819 20.583 9.754 49.935 26.775 72.89 5.78 7.794 12.28 14.321 19.474 19.59-44.917 38.311-71.513 99.844-71.513 166.487 0 54.262 17.495 105.339 49.263 143.819 32.112 38.899 74.931 60.32 120.571 60.32 12.534 0 24.898-1.655 36.909-4.852a143.2 143.2 0 0 0 36.896 4.853c45.639 0 88.459-21.422 120.571-60.322 31.768-38.483 49.264-89.56 49.264-143.823 0-51.568-16.027-100.79-45.128-138.601M241.875 22.242a2.85 2.85 0 0 1 1.588-1.651l12.879-5.38c1.441-.602 3.119.065 3.737 1.487 15.878 36.495 21.901 76.396 24.178 102.567a155 155 0 0 0-7.164-3.34c-1.231-3.5-4.205-10.947-9.833-19.826-8.046-34.237-18.927-58.963-25.26-71.588a2.83 2.83 0 0 1-.125-2.269"/></svg>