<svg xmlns="http://www.w3.org/2000/svg" width="512" height="512"><path fill="#99d53b" d="m272.206 74.388 99.625-52.376c25.55-13.432 55.412 8.263 50.532 36.714L403.336 169.66a34.83 34.83 0 0 0 10.016 30.826l80.598 78.564c20.67 20.149 9.264 55.253-19.302 59.404l-111.384 16.185a34.83 34.83 0 0 0-26.222 19.052l-49.812 100.93c-12.775 25.885-49.686 25.885-62.461 0L174.957 373.69a34.83 34.83 0 0 0-26.222-19.052L37.35 338.454c-28.566-4.151-39.972-39.255-19.302-59.404l80.598-78.564a34.83 34.83 0 0 0 10.016-30.826L89.636 58.726c-4.88-28.45 24.982-50.146 50.532-36.714l99.625 52.376a34.83 34.83 0 0 0 32.413 0"/><path fill="#8dc637" d="m474.645 338.456-111.383 16.18a34.82 34.82 0 0 0-26.221 19.051L287.23 474.62c-11.22 22.751-41.091 25.511-56.831 8.28 9.38-2.26 17.94-8.41 22.891-18.43l49.811-100.922a34.85 34.85 0 0 1 26.231-19.061l111.383-16.18c28.561-4.15 39.971-39.261 19.301-59.402l-80.602-78.562a34.83 34.83 0 0 1-10.01-30.831l19.02-110.933c2-11.64-1.82-22.151-8.78-29.591 23.401-5.97 47.111 14.16 42.721 39.741l-19.03 110.933a34.84 34.84 0 0 0 10.02 30.821l80.592 78.562c20.669 20.15 9.269 55.261-19.302 59.411"/><path fill="#dbf2b4" d="M210.827 355.987a74.82 74.82 0 0 0-56.34-40.934L73.53 303.289c-8.202-1.192-11.478-11.272-5.542-17.057l58.581-57.101a74.82 74.82 0 0 0 21.521-66.232l-13.829-80.63c-1.401-8.169 7.173-14.399 14.51-10.542l72.41 38.068c10.698 5.623 22.737 8.595 34.821 8.595s24.124-2.972 34.818-8.594l72.413-38.07c7.336-3.857 15.911 2.373 14.51 10.542l-13.83 80.63a74.82 74.82 0 0 0 21.52 66.233l58.581 57.101c5.935 5.785 2.66 15.866-5.542 17.057l-80.957 11.764a74.8 74.8 0 0 0-56.341 40.937l-36.205 73.357c-3.668 7.433-14.267 7.432-17.935 0z"/><path fill="#dbf2b4" d="M210.827 355.987a74.82 74.82 0 0 0-56.34-40.934L73.53 303.289c-8.202-1.192-11.478-11.272-5.542-17.057l58.581-57.101a74.82 74.82 0 0 0 21.521-66.232l-13.829-80.63c-1.401-8.169 7.173-14.399 14.51-10.542l72.41 38.068c10.698 5.623 22.737 8.595 34.821 8.595s24.124-2.972 34.818-8.594l72.413-38.07c7.336-3.857 15.911 2.373 14.51 10.542l-13.83 80.63a74.82 74.82 0 0 0 21.52 66.233l58.581 57.101c5.935 5.785 2.66 15.866-5.542 17.057l-80.957 11.764a74.8 74.8 0 0 0-56.341 40.937l-36.205 73.357c-3.668 7.433-14.267 7.432-17.935 0z"/><path fill="#bcea73" d="M363.912 162.902a74.83 74.83 0 0 0 21.521 66.232l58.582 57.101c5.93 5.78 2.66 15.86-5.54 17.05l-80.962 11.77a74.8 74.8 0 0 0-56.341 40.931l-36.201 73.362c-3.67 7.43-14.27 7.43-17.94 0l-12.43-25.191 29.691-60.171a74.8 74.8 0 0 1 56.341-40.931l80.962-11.77c8.2-1.19 11.48-11.27 5.54-17.05l-58.581-57.102a74.83 74.83 0 0 1-21.521-66.232l11.34-66.101 24.861-13.07c7.33-3.86 15.91 2.37 14.51 10.54z"/><path d="M385.132 83.536c1.135-6.614-1.532-13.173-6.961-17.118-5.431-3.944-12.492-4.454-18.43-1.331l-72.413 38.069c-9.622 5.059-20.456 7.733-31.328 7.733s-21.706-2.674-31.33-7.734l-72.41-38.068c-5.94-3.123-13.002-2.611-18.431 1.333s-8.096 10.503-6.962 17.116l13.829 80.63a67.32 67.32 0 0 1-19.363 59.593l-58.58 57.101c-4.805 4.684-6.502 11.558-4.429 17.939 2.073 6.383 7.487 10.948 14.128 11.912l80.958 11.764c4.928.716 9.8 1.991 14.483 3.792.885.34 1.794.501 2.69.501a7.503 7.503 0 0 0 2.693-14.504 82.5 82.5 0 0 0-17.708-4.634l-80.957-11.764c-1.339-.194-1.839-1.15-2.019-1.702-.179-.552-.335-1.619.633-2.563l58.581-57.101a82.32 82.32 0 0 0 23.678-72.871L141.652 81c-.229-1.332.525-2.104.994-2.444.47-.341 1.437-.821 2.633-.19l72.41 38.068A82.65 82.65 0 0 0 256 125.89a82.66 82.66 0 0 0 38.309-9.455l72.413-38.069c1.198-.631 2.163-.151 2.632.189.47.341 1.224 1.112.995 2.445l-13.83 80.63a82.33 82.33 0 0 0 23.677 72.872l58.582 57.101c.968.943.812 2.011.632 2.563-.179.552-.68 1.508-2.018 1.702l-23.696 3.443a7.5 7.5 0 1 0 2.156 14.844l23.697-3.443c6.641-.965 12.054-5.529 14.127-11.912 2.073-6.381.376-13.255-4.429-17.939l-58.582-57.1a67.33 67.33 0 0 1-19.364-59.595z"/><path d="M194.605 345.016a67.4 67.4 0 0 1 9.497 14.29l36.204 73.359c2.97 6.017 8.983 9.755 15.693 9.755 6.711 0 12.723-3.738 15.693-9.755l36.205-73.357a67.32 67.32 0 0 1 50.695-36.833l21.524-3.128c4.099-.596 6.939-4.401 6.343-8.501s-4.404-6.944-8.501-6.343l-21.524 3.128a82.31 82.31 0 0 0-61.988 45.039l-36.205 73.356c-.599 1.213-1.661 1.394-2.242 1.394s-1.643-.181-2.242-1.394l-36.205-73.359a82.4 82.4 0 0 0-11.612-17.474 7.5 7.5 0 0 0-10.58-.757 7.5 7.5 0 0 0-.755 10.58"/><path d="m499.186 273.678-80.599-78.562a27.33 27.33 0 0 1-7.86-24.189l19.028-110.933c2.742-15.996-3.71-31.858-16.839-41.398-13.13-9.539-30.211-10.775-44.576-3.222L268.715 67.75a27.31 27.31 0 0 1-25.432 0L213.02 51.839a7.5 7.5 0 0 0-6.98 13.278l30.263 15.911a42.32 42.32 0 0 0 39.394 0l99.625-52.376c9.413-4.952 20.174-4.173 28.778 2.08 8.606 6.252 12.67 16.244 10.872 26.727l-19.028 110.933a42.33 42.33 0 0 0 12.173 37.466l80.599 78.563c7.617 7.424 10.202 17.896 6.915 28.012s-11.534 17.069-22.06 18.598l-111.384 16.185a42.32 42.32 0 0 0-31.87 23.155l-49.813 100.93c-4.707 9.538-13.868 15.233-24.505 15.233-10.636.001-19.797-5.694-24.505-15.233l-49.812-100.93a42.32 42.32 0 0 0-31.869-23.155L38.429 331.031c-10.527-1.529-18.773-8.482-22.06-18.598s-.702-20.588 6.915-28.012l80.599-78.564a42.32 42.32 0 0 0 12.173-37.465L97.029 57.458c-1.798-10.484 2.266-20.475 10.871-26.727s19.363-7.029 28.779-2.08l37.23 19.573a7.5 7.5 0 0 0 6.98-13.278l-37.23-19.573c-14.365-7.552-31.447-6.318-44.576 3.223-13.13 9.539-19.582 25.402-16.838 41.398l19.026 110.933a27.32 27.32 0 0 1-7.859 24.188l-80.598 78.563c-11.622 11.33-15.726 27.956-10.711 43.391s18.108 26.473 34.169 28.806l111.384 16.185a27.32 27.32 0 0 1 20.575 14.95l49.812 100.93c7.183 14.554 21.727 23.595 37.957 23.594 16.229 0 30.773-9.04 37.956-23.594l49.813-100.931a27.32 27.32 0 0 1 20.575-14.949l111.384-16.185c16.061-2.333 29.154-13.371 34.17-28.807 5.014-15.435.91-32.06-10.712-43.39"/><path d="M196.958 252.661a7.5 7.5 0 0 0 7.105 5.103c.796 0 1.605-.128 2.4-.396l42.038-14.196v46.034a7.5 7.5 0 0 0 7.5 7.5 7.5 7.5 0 0 0 7.5-7.5v-46.033l42.033 14.194a7.5 7.5 0 0 0 2.4.396 7.5 7.5 0 0 0 7.105-5.103 7.5 7.5 0 0 0-4.706-9.505l-42.197-14.25 27.84-37.743a7.502 7.502 0 0 0-12.073-8.905L256 220.086l-27.904-37.829a7.5 7.5 0 0 0-12.072 8.905l27.839 37.742-42.2 14.251a7.5 7.5 0 0 0-4.705 9.506"/><path d="M263.496 186.319v-7.587c0-4.143-3.358-7.5-7.5-7.5s-7.5 3.357-7.5 7.5v7.587a7.5 7.5 0 0 0 15 0M280.476 265.21a7.5 7.5 0 0 0-.925 10.566l4.877 5.813a7.48 7.48 0 0 0 5.749 2.68 7.47 7.47 0 0 0 4.817-1.755 7.5 7.5 0 0 0 .925-10.566l-4.877-5.813a7.497 7.497 0 0 0-10.566-.925M220.957 266.135l-4.877 5.813a7.5 7.5 0 0 0 11.492 9.641l4.877-5.813a7.5 7.5 0 0 0-.925-10.566 7.5 7.5 0 0 0-10.567.925M203.426 221.355l7.13 2.595a7.5 7.5 0 0 0 2.565.454 7.5 7.5 0 0 0 2.566-14.551l-7.13-2.595a7.5 7.5 0 0 0-9.613 4.483 7.5 7.5 0 0 0 4.482 9.614M291.831 219.467a7.503 7.503 0 0 0 9.614 4.483l7.129-2.595a7.501 7.501 0 0 0-5.131-14.097l-7.129 2.595a7.5 7.5 0 0 0-4.483 9.614"/></svg>