<svg xmlns="http://www.w3.org/2000/svg" width="512" height="512"><path fill="#a3e440" d="M450.587 192.261c-5.559-8.13-11.925-15.561-19.015-22.144 19.709-9.471 36.229-24.214 48.702-42.463 3.59-5.253 1.644-12.514-4.092-15.267-11.296-5.421-23.158-9.202-35.284-11.173C455.084 82.27 462.994 59.7 464.805 35.96c.484-6.344-4.831-11.66-11.175-11.177-23.743 1.808-46.314 9.718-65.259 23.903-1.971-12.126-5.751-23.988-11.173-35.284-2.753-5.736-10.014-7.682-15.267-4.092-18.249 12.473-32.992 28.994-42.463 48.702-6.583-7.09-14.014-13.456-22.144-19.015-5.252-3.591-12.513-1.646-15.267 4.09-12.708 26.468-16.494 56.028-8.767 84.866 5.788 21.602 17.375 40.327 33.013 55.328 15.001 15.639 33.726 27.225 55.328 33.013 28.838 7.727 58.398 3.941 84.866-8.767 5.736-2.752 7.681-10.014 4.09-15.266"/><g fill="#99d53b"><path d="M441.86 99.891a129 129 0 0 0-23.174-7.655c-3.534-.811-5.178-4.865-3.199-7.916 11.01-16.947 17.393-36.394 19.261-56.741 6.175-1.384 12.483-2.306 18.881-2.797 6.346-.484 11.665 4.836 11.174 11.174-1.771 23.196-9.366 45.269-22.943 63.935M446.494 207.532c-26.469 12.706-56.026 16.493-84.869 8.764a117.2 117.2 0 0 1-23.025-8.86c26.626 5.453 53.601 1.332 77.973-10.363 5.743-2.752 7.722-10.028 4.129-15.288a132.6 132.6 0 0 0-12.825-15.98c-2.901-3.095-2.135-8.117 1.54-10.244 16.307-9.388 30.145-22.556 40.947-38.343 3.4-4.977 1.875-11.754-3.162-14.812 9.932 2.15 19.647 5.498 28.984 9.984 5.728 2.753 7.677 10.013 4.092 15.266-12.476 18.249-28.992 32.994-48.706 42.457 7.09 6.584 13.458 14.023 19.015 22.155 3.592 5.243 1.643 12.504-4.093 15.264"/></g><circle cx="134.939" cy="450.936" r="53.564" fill="#804d9e"/><path fill="#683983" d="M188.498 450.941c0 29.574-23.976 53.555-53.557 53.555a53.4 53.4 0 0 1-20.232-3.955c19.553-7.99 33.325-27.187 33.325-49.6 0-22.423-13.772-41.62-33.325-49.61a53.4 53.4 0 0 1 20.232-3.955c29.581 0 53.557 23.981 53.557 53.565"/><circle cx="105.02" cy="364.381" r="53.564" fill="#bc83df"/><path fill="#ae6ad8" d="M158.578 364.385c0 29.574-23.976 53.555-53.557 53.555a53.4 53.4 0 0 1-20.232-3.955c19.553-7.99 33.325-27.187 33.325-49.6 0-22.423-13.772-41.62-33.325-49.61a53.4 53.4 0 0 1 20.232-3.955c29.581 0 53.557 23.981 53.557 53.565"/><circle cx="107.124" cy="275.753" r="53.564" fill="#975bbb"/><path fill="#804d9e" d="M160.682 275.758c0 29.574-23.976 53.555-53.557 53.555a53.4 53.4 0 0 1-20.232-3.955c19.553-7.99 33.325-27.187 33.325-49.6 0-22.423-13.772-41.62-33.325-49.61a53.4 53.4 0 0 1 20.232-3.955c29.581 0 53.557 23.981 53.557 53.565"/><circle cx="274.28" cy="349.86" r="53.564" fill="#683983"/><path fill="#5b3573" d="M327.839 349.864c0 29.574-23.976 53.555-53.557 53.555a53.4 53.4 0 0 1-20.232-3.955c19.553-7.99 33.325-27.187 33.325-49.6 0-22.423-13.772-41.62-33.325-49.61a53.4 53.4 0 0 1 20.232-3.955c29.581.001 53.557 23.982 53.557 53.565"/><circle cx="192.363" cy="400.289" r="53.564" fill="#975bbb"/><path fill="#804d9e" d="M245.922 400.293c0 29.574-23.976 53.555-53.557 53.555a53.4 53.4 0 0 1-20.232-3.955c19.553-7.99 33.325-27.187 33.325-49.6 0-22.423-13.772-41.62-33.325-49.61a53.4 53.4 0 0 1 20.232-3.955c29.581.001 53.557 23.982 53.557 53.565"/><circle cx="188.503" cy="315.03" r="53.564" fill="#ca9ae5"/><path fill="#bc83df" d="M242.061 315.035c0 29.574-23.976 53.555-53.557 53.555a53.4 53.4 0 0 1-20.232-3.955c19.553-7.99 33.325-27.187 33.325-49.6 0-22.423-13.772-41.62-33.325-49.61a53.4 53.4 0 0 1 20.232-3.955c29.581 0 53.557 23.981 53.557 53.565"/><circle cx="172.133" cy="225.157" r="53.564" fill="#975bbb"/><path fill="#804d9e" d="M225.692 225.161c0 29.574-23.976 53.555-53.557 53.555a53.4 53.4 0 0 1-20.232-3.955c19.553-7.99 33.325-27.187 33.325-49.6 0-22.423-13.772-41.62-33.325-49.61a53.4 53.4 0 0 1 20.232-3.955c29.581 0 53.557 23.981 53.557 53.565"/><circle cx="83.479" cy="184.282" r="53.564" fill="#804d9e"/><path fill="#683983" d="M137.038 184.286c0 29.574-23.976 53.555-53.557 53.555a53.4 53.4 0 0 1-20.232-3.955c19.553-7.99 33.325-27.187 33.325-49.6 0-22.423-13.772-41.62-33.325-49.61a53.4 53.4 0 0 1 20.232-3.955c29.581.001 53.557 23.981 53.557 53.565"/><circle cx="342.083" cy="287.67" r="53.564" fill="#ae6ad8"/><path fill="#975bbb" d="M395.641 287.675c0 29.574-23.976 53.555-53.557 53.555a53.4 53.4 0 0 1-20.232-3.955c19.553-7.99 33.325-27.187 33.325-49.6 0-22.423-13.772-41.62-33.325-49.61a53.4 53.4 0 0 1 20.232-3.955c29.581.001 53.557 23.981 53.557 53.565"/><circle cx="260.156" cy="258.356" r="53.564" fill="#ae6ad8"/><path fill="#975bbb" d="M313.715 258.36c0 29.574-23.976 53.555-53.557 53.555a53.4 53.4 0 0 1-20.232-3.955c19.553-7.99 33.325-27.187 33.325-49.6 0-22.423-13.772-41.62-33.325-49.61a53.4 53.4 0 0 1 20.232-3.955c29.581 0 53.557 23.981 53.557 53.565"/><circle cx="161.079" cy="137.266" r="53.564" fill="#bc83df"/><path fill="#ae6ad8" d="M214.638 137.27c0 29.574-23.976 53.555-53.557 53.555a53.4 53.4 0 0 1-20.232-3.955c19.553-7.99 33.325-27.187 33.325-49.6 0-22.423-13.772-41.62-33.325-49.61a53.4 53.4 0 0 1 20.232-3.955c29.581.001 53.557 23.982 53.557 53.565"/><circle cx="241.714" cy="170.787" r="53.564" fill="#ca9ae5"/><path fill="#bc83df" d="M295.272 170.792c0 29.574-23.976 53.555-53.557 53.555a53.4 53.4 0 0 1-20.232-3.955c19.553-7.99 33.325-27.187 33.325-49.6 0-22.423-13.772-41.62-33.325-49.61a53.4 53.4 0 0 1 20.232-3.955c29.581 0 53.557 23.981 53.557 53.565"/><circle cx="329.457" cy="202.914" r="53.564" fill="#804d9e"/><path fill="#683983" d="M383.016 202.918c0 29.574-23.976 53.555-53.557 53.555a53.4 53.4 0 0 1-20.232-3.955c19.553-7.99 33.325-27.187 33.325-49.6 0-22.423-13.772-41.62-33.325-49.61a53.4 53.4 0 0 1 20.232-3.955c29.581.001 53.557 23.981 53.557 53.565"/><path d="M488.971 117.141a17.9 17.9 0 0 0-9.542-11.516c-8.453-4.057-17.176-7.228-26.046-9.473 10.759-17.58 17.249-37.971 18.901-59.622a17.9 17.9 0 0 0-5.202-14.022 17.91 17.91 0 0 0-14.022-5.205c-21.653 1.649-42.046 8.139-59.628 18.898-2.245-8.87-5.415-17.593-9.473-26.046A17.89 17.89 0 0 0 372.444.613a17.9 17.9 0 0 0-14.746 2.503c-16.637 11.371-30.34 25.916-40.088 42.463a141 141 0 0 0-16.055-12.774 17.9 17.9 0 0 0-14.744-2.506 17.9 17.9 0 0 0-11.517 9.541 140.5 140.5 0 0 0-8.558 22.592 7.5 7.5 0 0 0 5.181 9.255 7.496 7.496 0 0 0 9.255-5.181 125.6 125.6 0 0 1 7.644-20.174 2.89 2.89 0 0 1 1.877-1.544 2.89 2.89 0 0 1 2.396.398c7.698 5.265 14.725 11.297 20.882 17.928a7.498 7.498 0 0 0 12.256-1.855c8.644-17.987 22.453-33.81 39.935-45.758a2.88 2.88 0 0 1 2.398-.399 2.88 2.88 0 0 1 1.875 1.544c5.146 10.721 8.689 21.905 10.531 33.242a7.5 7.5 0 0 0 11.899 4.801C410.136 41.756 431.345 34 454.197 32.26a2.88 2.88 0 0 1 2.276.854c.355.356.94 1.126.853 2.275-1.743 22.852-9.5 44.059-22.432 61.329a7.5 7.5 0 0 0 4.801 11.899c11.338 1.842 22.522 5.386 33.241 10.531a2.88 2.88 0 0 1 1.544 1.876 2.88 2.88 0 0 1-.398 2.396c-11.95 17.483-27.773 31.293-45.759 39.936a7.5 7.5 0 0 0-1.855 12.256c6.634 6.159 12.665 13.185 17.928 20.882.65.952.529 1.91.399 2.396a2.89 2.89 0 0 1-1.545 1.876c-17.16 8.239-35.544 12.326-53.532 11.98a60.831 60.831 0 0 0-2.13-28.513c3.595.842 7.174 1.633 10.709 2.34a7.503 7.503 0 0 0 8.826-5.884 7.5 7.5 0 0 0-5.884-8.825c-7.488-1.497-15.168-3.334-22.85-5.443a61.4 61.4 0 0 0-24.96-19.664l12.753-12.753c9.473 2.257 33.034 7.358 52.493 7.358q1.483 0 2.931-.04c4.141-.117 7.401-3.569 7.284-7.71s-3.545-7.383-7.71-7.284c-13.645.388-30.829-2.518-42.414-4.909l41.072-41.072a7.5 7.5 0 0 0-10.607-10.607l-41.067 41.067c-2.391-11.587-5.295-28.769-4.908-42.404a7.5 7.5 0 0 0-7.284-7.71c-4.1-.1-7.593 3.145-7.71 7.284-.566 19.951 4.943 45.454 7.317 55.416l-18.897 18.897a62 62 0 0 0-3.553-.322c-4.747-12.609-10.991-31.535-15.409-53.624a7.5 7.5 0 0 0-14.709 2.941c4.143 20.717 9.818 38.746 14.522 51.74a60.6 60.6 0 0 0-18.418 6.929c-3.888-10.695-10.661-19.911-19.3-26.815a109.7 109.7 0 0 1-2.986-23.025 7.48 7.48 0 0 0-7.668-7.328 7.5 7.5 0 0 0-7.328 7.668c.099 4.368.435 8.732.991 13.065a60.6 60.6 0 0 0-21.11-3.798 60.7 60.7 0 0 0-23.912 4.881c-9.146-22.946-31.489-38.403-56.723-38.403-29.755 0-54.592 21.396-59.97 49.607a60.9 60.9 0 0 0-17.629-2.592c-33.671 0-61.064 27.393-61.064 61.064 0 24.525 14.54 45.706 35.446 55.41a61.2 61.2 0 0 0-8.201 15.38 7.5 7.5 0 0 0 14.114 5.08c2.076-5.768 5.354-11.138 9.539-15.669a61 61 0 0 0 10.167.862 60.94 60.94 0 0 0 28.975-7.285c3.585 16.595 13.925 30.706 27.999 39.282-8.438 10.696-13.014 23.794-13.014 37.688 0 .68.017 1.356.04 2.032a46 46 0 0 1-20.355 4.755c-19.367 0-36.787-12.239-43.348-30.456-1.404-3.898-5.705-5.915-9.598-4.516a7.5 7.5 0 0 0-4.516 9.598 60.8 60.8 0 0 0 14.449 22.608c-12.738 11.506-20.156 27.945-20.156 45.329 0 25.451 15.657 47.306 37.84 56.463-5.197 9.123-7.92 19.371-7.92 30.092 0 33.671 27.393 61.064 61.064 61.064 30.061 0 55.228-21.53 60.176-50.717 30.114-1.343 54.615-24.596 57.921-54.167a61.1 61.1 0 0 0 21.244 3.808c33.671 0 61.064-27.393 61.064-61.064 0-.501-.018-1.002-.03-1.502 2.227.243 4.484.377 6.769.377 33.671 0 61.064-27.394 61.064-61.065a61.04 61.04 0 0 0-24.37-48.809 61 61 0 0 0 6.518-11.272 124 124 0 0 0 6.531.193c19.559 0 39.403-4.604 57.917-13.493a17.89 17.89 0 0 0 9.542-11.517 17.89 17.89 0 0 0-2.506-14.744 141 141 0 0 0-12.773-16.055c16.546-9.748 31.089-23.45 42.461-40.088a17.89 17.89 0 0 0 2.502-14.739m-113.45 85.773c0 25.399-20.664 46.064-46.064 46.064s-46.064-20.664-46.064-46.064 20.664-46.064 46.064-46.064 46.064 20.664 46.064 46.064M260.156 304.42c-25.399 0-46.064-20.664-46.064-46.065 0-10.681 3.631-20.835 10.295-29.023a60.8 60.8 0 0 0 17.326 2.519c10.811 0 21.161-2.775 30.356-8.07 5.874 16.104 18.346 29.053 34.125 35.581-.538 24.936-20.975 45.058-46.038 45.058m26.263-144.779c-11.126 11.066-18.025 26.378-18.025 43.272 0 1.769.092 3.516.24 5.248-7.867 5.685-17.143 8.69-26.921 8.69-25.399 0-46.064-20.664-46.064-46.064s20.664-46.064 46.064-46.064c21.151.001 39.652 14.575 44.706 34.918m-125.34-68.438c19.809 0 37.252 12.625 43.576 31.098-14.579 11.169-24.005 28.744-24.005 48.487 0 2.685.193 5.325.531 7.92a46.1 46.1 0 0 1-20.102 4.622c-25.399 0-46.064-20.664-46.064-46.064s20.664-46.063 46.064-46.063M37.415 184.282c0-25.399 20.664-46.064 46.064-46.064a45.8 45.8 0 0 1 16.688 3.127c1.348 20.312 12.658 37.94 29.09 48.014-2.528 23.203-22.102 40.985-45.778 40.985-25.399.001-46.064-20.663-46.064-46.062m88.75 43.703c8.742-8.534 14.932-19.685 17.303-32.255a60.9 60.9 0 0 0 17.611 2.6 61.15 61.15 0 0 0 23.947-4.885 61.4 61.4 0 0 0 25.26 29.676c-7.263 10.241-11.193 22.451-11.193 35.235 0 1.357.06 2.7.148 4.035a46.15 46.15 0 0 1-27.107 8.83c-24.449-.001-44.501-19.149-45.969-43.236M58.956 364.381c0-14.04 6.42-27.26 17.309-35.977 9.172 5.382 19.773 8.413 30.859 8.413a61.1 61.1 0 0 0 22.859-4.436 61.45 61.45 0 0 0 16.851 27.242c-9.937 11.131-15.533 25.587-15.533 40.665 0 .634.029 1.261.048 1.89-7.738 5.411-16.791 8.265-26.327 8.265-25.402.001-46.066-20.663-46.066-46.062M134.939 497c-25.399 0-46.064-20.664-46.064-46.064 0-9.429 2.787-18.37 8.071-26.043 2.644.351 5.335.55 8.074.55 10.269 0 20.118-2.495 28.955-7.278 6.489 21.152 24.175 37.453 46.117 41.947C175.826 481.431 157.149 497 134.939 497m57.424-50.648c-25.399 0-46.064-20.664-46.064-46.064 0-11.876 4.605-23.24 12.735-31.773a60.6 60.6 0 0 0 8.718 3.954 7.5 7.5 0 0 0 2.549.448 7.5 7.5 0 0 0 2.549-14.556c-18.189-6.572-30.411-23.987-30.411-43.333 0-11.779 4.358-22.802 12.317-31.343a60.9 60.9 0 0 0 17.378 2.533 61.2 61.2 0 0 0 30.281-8.04c5.428 15.765 17.132 28.626 32.122 35.585.011.422.03.845.03 1.265 0 19.391-12.26 36.818-30.508 43.365a7.5 7.5 0 0 0 5.067 14.12 60.8 60.8 0 0 0 13.55-6.894c10.047 8.755 15.753 21.192 15.753 34.669-.002 25.4-20.666 46.064-46.066 46.064m127.981-96.492c0 25.399-20.664 46.064-46.064 46.064a45.96 45.96 0 0 1-21.67-5.408c-2.178-13.281-8.717-25.601-18.573-34.84 9.033-10.14 14.629-23.203 15.421-37.214a61 61 0 0 0 10.698.958 60.7 60.7 0 0 0 26.509-6.061c6.721 14.592 18.759 25.699 33.383 31.311.192 1.717.296 3.455.296 5.19m67.802-62.189c0 25.4-20.664 46.065-46.064 46.065-18.97 0-35.653-11.366-42.666-28.659 12.116-10.198 20.214-25.007 21.58-41.699 2.767.385 5.589.6 8.461.6 14.796 0 28.377-5.293 38.957-14.08 12.276 8.563 19.732 22.6 19.732 37.773"/></svg>