<svg xmlns="http://www.w3.org/2000/svg" width="512" height="512"><path fill="#ffd496" d="M503.211 129.557C489.007 58.584 426.686 7.5 354.305 7.5h-17.332c-72.381 0-134.702 51.084-148.907 122.057-8.066 40.302 22.759 77.908 63.86 77.908h187.425c41.102 0 71.927-37.605 63.86-77.908"/><path fill="#c86f5c" d="M296.341 155.772h-29.496c-18.059 0-32.699-14.64-32.699-32.699s14.64-32.699 32.699-32.699 32.699 14.64 32.699 32.699z"/><path fill="#ba5d4f" d="m299.54 123.07-3.2 32.7h-27.31l3.2-32.7c0-9.03-3.66-17.21-9.58-23.12a32.8 32.8 0 0 0-9.46-6.6c4.15-1.91 8.78-2.98 13.65-2.98 9.03 0 17.2 3.66 23.12 9.58a32.57 32.57 0 0 1 9.58 23.12"/><path fill="#c86f5c" d="m394.937 155.772-3.203-32.699c0-18.059 14.64-32.699 32.699-32.699s32.699 14.64 32.699 32.699-14.64 32.699-32.699 32.699z"/><path fill="#ba5d4f" d="M457.13 123.07c0 9.03-3.66 17.21-9.58 23.12a32.57 32.57 0 0 1-23.12 9.58h-28c9.03 0 17.2-3.66 23.11-9.58 5.92-5.91 9.58-14.09 9.58-23.12s-3.66-17.21-9.58-23.12a32.9 32.9 0 0 0-9.11-6.44 32.6 32.6 0 0 1 14-3.14c9.03 0 17.21 3.66 23.12 9.58a32.57 32.57 0 0 1 9.58 23.12"/><path fill="#fcc16d" d="M439.348 207.462h-49.955c41.103 0 71.921-37.601 63.86-77.903C440.118 63.979 385.911 15.385 320.658 8.38c5.37-.58 10.814-.876 16.311-.876h17.334c72.385 0 134.705 51.084 148.905 122.055 8.071 40.302-22.757 77.903-63.86 77.903"/><path fill="#ffd496" d="m299.544 123.073-23.701 241.956c-2.143 18.897 12.639 35.45 31.657 35.45h76.278c19.018 0 33.8-16.553 31.657-35.45l-23.701-241.956z"/><path fill="#fcc16d" d="m278.34 339.53 15.14-154.6c20.4 20.55 35.06 47.06 41.09 77.13 7.55 37.77-19.03 73.16-56.23 77.47"/><path fill="#ffd496" d="M207.665 504.5h-82.608c-19.018 0-33.8-16.553-31.657-35.45l23.733-209.257h98.455l23.733 209.257c2.144 18.897-12.638 35.45-31.656 35.45"/><path fill="#fcc16d" d="m224.683 339.972-9.094-80.179h-98.455l-9.094 80.179z"/><path fill="#fcc16d" d="M207.662 504.498h-36.704c19.022 0 33.803-16.553 31.661-35.449l-23.738-209.252h36.704l23.738 209.252c2.142 18.896-12.639 35.449-31.661 35.449"/><path fill="#a34f41" d="M323.934 233.578c-14.205-70.973-76.526-122.057-148.907-122.057h-17.332c-72.381 0-134.702 51.084-148.907 122.057-8.066 40.302 22.759 77.908 63.86 77.908h187.425c41.103 0 71.928-37.606 63.861-77.908"/><path fill="#873f30" d="M260.071 311.483h-49.955c41.104 0 71.921-37.601 63.86-77.903-13.135-65.58-67.342-114.174-132.595-121.179 5.37-.58 10.814-.876 16.311-.876h17.334c72.385 0 134.705 51.084 148.905 122.055 8.071 40.302-22.757 77.903-63.86 77.903"/><path d="M510.565 128.085c-7.209-36.021-26.826-68.684-55.237-91.972C426.918 12.825 391.04 0 354.305 0h-17.332a159.25 159.25 0 0 0-82.104 22.776 7.5 7.5 0 1 0 7.733 12.853A144.25 144.25 0 0 1 336.973 15h17.332c33.277 0 65.778 11.618 91.515 32.714s43.507 50.685 50.037 83.315c3.402 16.998-.949 34.435-11.938 47.841s-27.233 21.095-44.567 21.095h-32.55l-3.594-36.693h21.226c22.166 0 40.199-18.033 40.199-40.199S446.6 82.874 424.434 82.874s-40.199 18.033-40.199 40.199q0 .366.036.731l23.701 241.957.012.114a24.39 24.39 0 0 1-6.036 18.971 24.38 24.38 0 0 1-18.169 8.134H307.5a24.38 24.38 0 0 1-18.169-8.134 24.39 24.39 0 0 1-6.036-18.971l.012-.113 5.15-52.574c10.002-4.248 19.046-10.711 26.351-19.091 13.807-15.841 20.086-36.819 17.228-57.555a7.503 7.503 0 0 0-8.454-6.406 7.5 7.5 0 0 0-6.405 8.454c2.266 16.44-2.719 33.08-13.676 45.651a57.59 57.59 0 0 1-43.426 19.746H72.648c-17.334 0-33.578-7.689-44.567-21.095s-15.34-30.844-11.938-47.841c6.53-32.63 24.301-62.219 50.037-83.315 12.752-10.452 27.165-18.574 42.51-24.113-4.191 4.116-8.198 8.74-11.979 13.853-17.174 23.218-29.01 55.607-33.328 91.2a7.5 7.5 0 0 0 14.891 1.807c8.117-66.902 42.954-115.46 82.834-115.46h10.508c39.88 0 74.717 48.558 82.835 115.46a7.501 7.501 0 1 0 14.891-1.807c-4.319-35.593-16.155-67.982-33.329-91.2-3.793-5.128-7.812-9.764-12.016-13.889 36.743 13.241 67.292 41.092 83.419 78.215a7.5 7.5 0 0 0 13.758-5.978 159.2 159.2 0 0 0-18.492-31.846l4.327-44.172q.036-.365.036-.731c0-22.166-18.033-40.199-40.199-40.199-18.707 0-34.47 12.844-38.934 30.177a159 159 0 0 0-25.244-6.604c7.279-18.456 18.44-35.462 32.544-49.47 2.939-2.919 2.955-7.667.036-10.606s-7.668-2.955-10.606-.036c-16.47 16.358-29.309 36.422-37.282 58.17-4.08-.315-8.191-.483-12.33-.483h-17.332c-36.735 0-72.613 12.825-101.024 36.113-28.41 23.288-48.027 55.951-55.236 91.973-4.287 21.421 1.196 43.398 15.046 60.293 13.85 16.896 34.321 26.586 56.168 26.586h30.224l-6.682 58.913a7.5 7.5 0 0 0 7.461 8.345 7.5 7.5 0 0 0 7.442-6.655l6.873-60.604h19.028l-4.962 111.975a7.5 7.5 0 1 0 14.984.664l4.991-112.639h62.745l17.115 150.909a24.4 24.4 0 0 1-6.035 18.972 24.39 24.39 0 0 1-18.17 8.134h-82.607a24.38 24.38 0 0 1-18.169-8.134 24.39 24.39 0 0 1-6.036-18.971l6.185-54.529a7.499 7.499 0 1 0-14.904-1.69l-6.185 54.53c-1.262 11.127 2.293 22.299 9.752 30.652S113.859 512 125.058 512h82.607a39.4 39.4 0 0 0 29.357-13.143 39.4 39.4 0 0 0 9.752-30.653L229.85 318.985h30.223a72.7 72.7 0 0 0 12.858-1.168l-4.548 46.425a39.4 39.4 0 0 0 9.759 30.593 39.4 39.4 0 0 0 29.357 13.143h76.277a39.4 39.4 0 0 0 29.357-13.143 39.4 39.4 0 0 0 9.759-30.59l-14.623-149.281h31.081c21.847 0 42.318-9.69 56.168-26.585s19.335-38.872 15.047-60.294m-243.72-30.211c13.78 0 25.013 11.119 25.197 24.856l-2.88 29.402a159.4 159.4 0 0 0-47.142-33.36c2.048-11.853 12.397-20.898 24.825-20.898m157.588 0c13.895 0 25.199 11.304 25.199 25.199s-11.305 25.199-25.199 25.199h-22.695l-2.502-25.542c.184-13.738 11.416-24.856 25.197-24.856"/><path d="m357.274 246.841 2.987 92.785a7.5 7.5 0 0 0 14.992-.482l-2.987-92.785c-.133-4.141-3.638-7.368-7.737-7.255a7.5 7.5 0 0 0-7.255 7.737M316.871 312.837l-.848 26.306a7.5 7.5 0 0 0 14.992.484l.848-26.306a7.5 7.5 0 0 0-7.255-7.738c-4.106-.112-7.603 3.114-7.737 7.254M193.19 438.792q.168 0 .338-.007a7.5 7.5 0 0 0 7.16-7.825l-3.163-71.373c-.183-4.139-3.702-7.338-7.824-7.161a7.5 7.5 0 0 0-7.16 7.825l3.163 71.373a7.5 7.5 0 0 0 7.486 7.168M358.069 147.888a7.5 7.5 0 0 0-7.124 7.858l2.277 46.455a7.501 7.501 0 0 0 14.982-.734l-2.277-46.455c-.202-4.138-3.736-7.32-7.858-7.124"/></svg>