<svg xmlns="http://www.w3.org/2000/svg" width="512" height="512"><path fill="#a3e440" d="M315.207 245.9s-8.336-78.534 74.782-122.346c40.682-21.444 64.759-40.793 78.739-54.961 9.228-9.352 25.143-5.085 28.377 7.65 15.808 62.25 25.468 192.882-181.898 169.657"/><path fill="#8dc637" d="M497.108 76.234c12.94 50.98 21.758 147.821-89.335 168.466 75.977-32.167 67.729-113.53 56.237-158.771-.854-3.39-2.62-6.186-4.913-8.271a193 193 0 0 0 9.625-9.064c9.23-9.348 25.152-5.078 28.386 7.64"/><circle cx="134.543" cy="323.322" r="127.042" fill="#3351c5"/><g fill="#2944ae"><path d="M261.587 323.32c0 9.422-1.022 18.596-2.972 27.43-2.188.113-4.386.165-6.594.165-70.173 0-127.045-56.882-127.045-127.045 0-9.412 1.022-18.596 2.972-27.43 2.188-.114 4.386-.165 6.594-.165 70.164 0 127.045 56.882 127.045 127.045"/><path d="M261.581 323.323c0 70.166-56.881 127.047-127.032 127.047-13.404 0-26.314-2.067-38.43-5.931 62.378-5.152 111.381-57.42 111.381-121.116 0-63.711-49.004-115.964-111.381-121.116 12.116-3.864 25.026-5.931 38.43-5.931 70.151 0 127.032 56.882 127.032 127.047"/></g><path fill="#213993" d="M109.29 307.795c5.505-4.03 13.176.399 12.438 7.181a19.36 19.36 0 0 0 11.436 19.808c6.243 2.753 6.243 11.61 0 14.363a19.36 19.36 0 0 0-11.436 19.808c.738 6.783-6.933 11.211-12.438 7.181a19.36 19.36 0 0 0-22.873 0c-5.505 4.03-13.176-.399-12.438-7.181a19.36 19.36 0 0 0-11.436-19.808c-6.243-2.753-6.243-11.61 0-14.363a19.36 19.36 0 0 0 11.436-19.808c-.738-6.783 6.933-11.211 12.438-7.181a19.36 19.36 0 0 0 22.873 0"/><path fill="#192d7b" d="M137.849 341.97c0 2.9-1.558 5.799-4.685 7.172a19.36 19.36 0 0 0-11.434 19.814c.031.299.052.609.052.898 0 6.264-7.234 10.123-12.497 6.284a19.367 19.367 0 0 0-22.868 0c-1.445 1.063-3.044 1.538-4.603 1.538-4.355 0-8.38-3.725-7.833-8.72.072-.702.114-1.403.114-2.095 0-1.796-.248-3.56-.733-5.253 2.064.423 4.19.64 6.367.64 17.44 0 31.578-14.138 31.578-31.578a31.5 31.5 0 0 0-7.255-20.154 19 19 0 0 0 5.232-2.725c5.511-4.025 13.178.403 12.446 7.182a18 18 0 0 0-.114 2.116 19.36 19.36 0 0 0 11.548 17.698c3.127 1.373 4.685 4.273 4.685 7.183"/><circle cx="261.585" cy="188.678" r="127.042" fill="#6d81d5"/><path fill="#5169cd" d="M388.623 188.68c0 70.166-56.881 127.047-127.032 127.047-13.404 0-26.314-2.067-38.43-5.931 62.378-5.152 111.381-57.42 111.381-121.116 0-63.711-49.004-115.964-111.381-121.116 12.116-3.864 25.026-5.931 38.43-5.931 70.151 0 127.032 56.881 127.032 127.047"/><path fill="#3351c5" d="M287.944 176.367c5.505-4.03 13.176.399 12.438 7.181a19.36 19.36 0 0 0 11.436 19.808c6.243 2.753 6.243 11.61 0 14.363a19.36 19.36 0 0 0-11.436 19.808c.738 6.783-6.933 11.211-12.438 7.181a19.36 19.36 0 0 0-22.873 0c-5.505 4.03-13.176-.399-12.438-7.181a19.36 19.36 0 0 0-11.436-19.808c-6.243-2.753-6.243-11.61 0-14.363a19.36 19.36 0 0 0 11.436-19.808c-.738-6.783 6.933-11.211 12.438-7.181a19.36 19.36 0 0 0 22.873 0"/><path fill="#2944ae" d="M316.504 210.542c0 2.9-1.558 5.799-4.685 7.172a19.36 19.36 0 0 0-11.434 19.814c.031.299.052.609.052.898 0 6.264-7.234 10.123-12.497 6.284a19.367 19.367 0 0 0-22.868 0c-1.445 1.063-3.044 1.538-4.603 1.538-4.355 0-8.38-3.725-7.833-8.72.072-.702.114-1.403.114-2.095 0-1.796-.248-3.56-.733-5.253 2.064.423 4.19.64 6.367.64 17.44 0 31.578-14.138 31.578-31.578a31.5 31.5 0 0 0-7.255-20.154 19 19 0 0 0 5.232-2.725c5.511-4.025 13.178.403 12.445 7.182a18 18 0 0 0-.114 2.116 19.36 19.36 0 0 0 11.548 17.698c3.127 1.373 4.686 4.273 4.686 7.183"/><circle cx="359.353" cy="323.322" r="127.042" fill="#5169cd"/><path fill="#3351c5" d="M486.391 323.323c0 70.166-56.881 127.047-127.032 127.047-13.404 0-26.314-2.067-38.43-5.931 62.378-5.152 111.381-57.42 111.381-121.116 0-63.711-49.004-115.964-111.381-121.116 12.116-3.864 25.026-5.931 38.43-5.931 70.151 0 127.032 56.882 127.032 127.047"/><path fill="#213993" d="M406.54 242.779c5.505-4.03 13.176.399 12.438 7.181a19.36 19.36 0 0 0 11.436 19.808c6.243 2.753 6.243 11.61 0 14.363a19.36 19.36 0 0 0-11.436 19.808c.738 6.783-6.933 11.211-12.438 7.181a19.36 19.36 0 0 0-22.873 0c-5.505 4.03-13.176-.399-12.438-7.181a19.36 19.36 0 0 0-11.436-19.808c-6.243-2.753-6.243-11.61 0-14.363a19.36 19.36 0 0 0 11.436-19.808c-.738-6.783 6.933-11.211 12.438-7.181a19.36 19.36 0 0 0 22.873 0"/><path fill="#192d7b" d="M435.1 276.955c0 2.9-1.558 5.799-4.685 7.172a19.36 19.36 0 0 0-11.434 19.814c.031.299.052.609.052.898 0 6.264-7.234 10.123-12.497 6.284a19.367 19.367 0 0 0-22.868 0c-1.445 1.063-3.044 1.538-4.603 1.538-4.355 0-8.38-3.725-7.833-8.72.072-.702.113-1.403.113-2.095 0-1.796-.248-3.56-.733-5.253 2.064.423 4.19.64 6.367.64 17.44 0 31.578-14.138 31.578-31.578a31.5 31.5 0 0 0-7.255-20.154 19 19 0 0 0 5.232-2.725c5.511-4.025 13.178.403 12.445 7.182a18 18 0 0 0-.114 2.116 19.36 19.36 0 0 0 11.548 17.698c3.129 1.373 4.687 4.273 4.687 7.183"/><path d="M509.812 158.376c5.304-30.829-.03-62.685-5.438-83.979-2.19-8.621-8.622-15.16-17.209-17.491-8.616-2.336-17.503.063-23.777 6.419-7.236 7.332-16.029 14.829-26.138 22.281a7.5 7.5 0 1 0 8.903 12.074c10.737-7.915 20.128-15.93 27.913-23.819 2.42-2.453 5.85-3.379 9.169-2.478 1.581.429 5.39 1.941 6.599 6.705 5.05 19.885 10.05 49.514 5.194 77.744-5.223 30.363-20.792 52.894-46.286 67.029-13.919-12.399-30.419-21.955-48.586-27.75a368 368 0 0 0 7.337-4.173 7.6 7.6 0 0 0 1.328-.782c11.572-6.834 21.83-13.89 30.993-21.955 7.358-.006 27.429-.715 37.9-7.888a7.5 7.5 0 0 0-8.477-12.375c-2.942 2.016-8.171 3.348-13.807 4.169 6.989-8.484 13.237-18.134 18.887-29.515a7.5 7.5 0 0 0-3.383-10.053 7.5 7.5 0 0 0-10.053 3.383c-10.87 21.897-23.945 36.588-41.216 49.277 1.248-4.763 2.222-9.961 2.548-15.271a7.5 7.5 0 0 0-7.028-7.946c-4.125-.227-7.692 2.894-7.946 7.028-.777 12.669-6.316 25.139-8.546 29.702q-1.401.808-2.833 1.618a133.6 133.6 0 0 0-10.91-45.31 166 166 0 0 1 8.535-4.83 497 497 0 0 0 21.843-12.207 7.5 7.5 0 1 0-7.659-12.899 482 482 0 0 1-21.179 11.836 182 182 0 0 0-8.314 4.674c-23.271-40.287-66.818-67.458-116.593-67.458-74.187 0-134.542 60.355-134.542 134.542 0 .105.006.209.006.314C56.334 192.894 0 251.65 0 323.322c0 74.187 60.355 134.542 134.542 134.542 45.543 0 87.628-22.963 112.403-60.602a134 134 0 0 0 11.063 14.548c21.2 24.258 50.35 40.123 82.082 44.675a7.496 7.496 0 0 0 8.49-6.359 7.5 7.5 0 0 0-6.359-8.49c-28.183-4.043-54.079-18.141-72.918-39.699a119.43 119.43 0 0 1-29.491-78.617c0-65.915 53.627-119.542 119.542-119.542s119.542 53.627 119.542 119.542a119.43 119.43 0 0 1-29.522 78.653c-18.861 21.563-44.781 35.653-72.985 39.676a7.501 7.501 0 0 0 2.117 14.851c31.757-4.528 60.935-20.386 82.158-44.651a134.42 134.42 0 0 0 33.233-88.528c0-34.329-12.931-65.691-34.168-89.487 27.46-16.503 44.3-41.846 50.083-75.458m-249.725 74.226a26.73 26.73 0 0 0-15.864-21.746c-.134-.06-.208-.092-.208-.319s.069-.257.207-.318c10.762-4.744 17.139-15.789 15.868-27.482-.017-.15-.024-.226.172-.339.197-.114.259-.069.379.021 9.492 6.949 22.244 6.949 31.733 0 .117-.086.183-.134.38-.021.197.114.189.189.173.34a26.75 26.75 0 0 0 6.223 20.288 135.3 135.3 0 0 0-39.063 29.576m54.593-36.188a11.81 11.81 0 0 1-6.841-12.055c.667-6.136-2.239-11.865-7.584-14.952-5.347-3.086-11.76-2.738-16.742.907a11.815 11.815 0 0 1-14.012 0c-4.981-3.645-11.395-3.995-16.741-.906-5.346 3.087-8.251 8.816-7.583 14.951a11.82 11.82 0 0 1-7.006 12.135c-5.648 2.489-9.157 7.87-9.157 14.042 0 6.173 3.508 11.554 9.157 14.045a11.82 11.82 0 0 1 7.006 12.134 15.32 15.32 0 0 0 3.015 10.899c-11.104 16.253-18.745 35.051-21.839 55.326-14.714-4.519-28.255-11.773-40.316-21.623a7.503 7.503 0 0 0-10.554 1.065 7.5 7.5 0 0 0 1.065 10.554c14.387 11.748 30.645 20.223 48.372 25.223a136 136 0 0 0-.109 5.162 134.5 134.5 0 0 0 13.663 59.075c-21.27 37.354-60.861 60.467-103.931 60.467C68.627 442.864 15 389.237 15 323.322c0-63.687 50.064-115.897 112.902-119.354 2.459 21.741 10.156 42.47 22.626 60.668a7.49 7.49 0 0 0 6.194 3.262 7.499 7.499 0 0 0 6.18-11.74c-13.647-19.917-20.86-43.25-20.86-67.479 0-65.915 53.627-119.542 119.542-119.542 65.916 0 119.543 53.627 119.543 119.542 0 .62-.025 1.244-.034 1.867a135 135 0 0 0-21.74-1.765c-15.654-.001-30.688 2.695-44.673 7.633"/><path d="M136.19 327.922a11.82 11.82 0 0 1-7.005-12.135c.667-6.136-2.239-11.865-7.584-14.952-5.347-3.085-11.761-2.737-16.741.907h-.001a11.815 11.815 0 0 1-14.012 0c-4.981-3.645-11.395-3.993-16.741-.906s-8.251 8.816-7.583 14.951a11.82 11.82 0 0 1-7.007 12.135c-5.648 2.49-9.156 7.872-9.156 14.044 0 6.171 3.508 11.553 9.157 14.043a11.82 11.82 0 0 1 7.006 12.134c-.668 6.136 2.238 11.866 7.583 14.952 5.343 3.087 11.759 2.739 16.741-.907a11.82 11.82 0 0 1 14.013.001c2.722 1.993 5.872 3 9.042 3 2.63 0 5.275-.693 7.698-2.093 5.345-3.087 8.251-8.816 7.584-14.952a11.82 11.82 0 0 1 7.006-12.135c5.648-2.49 9.156-7.872 9.156-14.043 0-6.172-3.508-11.554-9.156-14.044m-6.051 14.362c-10.762 4.744-17.138 15.789-15.867 27.481.017.15.024.226-.172.339-.2.113-.259.067-.381-.021-9.491-6.947-22.244-6.947-31.732.001-.122.088-.185.133-.38.021-.196-.113-.188-.188-.172-.34 1.272-11.693-5.106-22.737-15.867-27.481-.139-.062-.208-.092-.208-.318 0-.228.069-.258.207-.319 10.762-4.744 17.139-15.789 15.868-27.482-.017-.15-.024-.226.172-.339a.4.4 0 0 1 .191-.067c.067 0 .118.036.188.088 9.489 6.947 22.242 6.948 31.734 0 .117-.087.184-.132.379-.021.197.114.189.189.173.34-1.272 11.693 5.105 22.737 15.866 27.481.139.062.208.092.208.319s-.069.257-.207.318M388.097 317.173a11.82 11.82 0 0 1 14.012 0c2.723 1.993 5.873 3.001 9.044 3 2.629 0 5.274-.693 7.697-2.093 5.345-3.086 8.251-8.816 7.583-14.952a11.82 11.82 0 0 1 7.006-12.135c5.648-2.489 9.157-7.87 9.157-14.042 0-6.173-3.508-11.555-9.157-14.045a11.82 11.82 0 0 1-7.006-12.134c.668-6.136-2.238-11.866-7.583-14.952-5.347-3.088-11.762-2.739-16.742.907a11.82 11.82 0 0 1-14.011 0c-4.981-3.646-11.395-3.993-16.741-.908s-8.252 8.816-7.585 14.953a11.815 11.815 0 0 1-7.006 12.134c-5.648 2.49-9.156 7.872-9.156 14.045 0 6.172 3.509 11.553 9.156 14.042a11.82 11.82 0 0 1 7.006 12.135c-.667 6.137 2.239 11.867 7.585 14.953 5.347 3.088 11.762 2.74 16.741-.908m-25.279-39.904c-.138-.062-.207-.092-.207-.318 0-.228.074-.26.207-.319 10.763-4.744 17.139-15.79 15.867-27.481-.017-.15-.024-.226.172-.339a.4.4 0 0 1 .191-.068c.068 0 .118.037.189.089 9.491 6.949 22.243 6.947 31.732 0h.001c.122-.091.183-.133.379-.021.196.113.188.188.172.339-1.272 11.693 5.106 22.737 15.867 27.481.134.06.208.092.208.319s-.069.257-.208.318c-10.762 4.746-17.138 15.79-15.867 27.482.017.15.024.226-.172.339s-.256.069-.38-.021c-9.491-6.947-22.243-6.946-31.733 0-.122.09-.184.134-.379.021-.197-.113-.188-.194-.173-.339 1.273-11.692-5.103-22.736-15.866-27.482"/></svg>