<svg xmlns="http://www.w3.org/2000/svg" width="512" height="512"><path fill="#ae6ad8" d="M283.422 212.005c-43.464-39.481-70.163-94.076-73.01-152.715l-.877-48.972h-73.577l-.877 48.972c-2.847 58.639-29.546 113.234-73.01 152.715C27.428 243.46 6.114 289.317 7.569 340.126c2.569 89.908 75.238 160.927 165.178 161.557 89.939-.629 162.609-71.648 165.178-161.557 1.454-50.809-19.86-96.666-54.503-128.121"/><path fill="#975bbb" d="M337.919 340.13c-2.56 89.9-75.23 160.921-165.17 161.55-6.26-.04-12.43-.43-18.5-1.14 81.2-9.46 144.28-76.76 146.67-160.41 1.46-50.81-19.86-96.67-54.5-128.12-43.46-39.49-70.16-94.08-73.01-152.72l-.88-48.97h37.01l.87 48.97c2.85 58.64 29.55 113.23 73.01 152.72 34.651 31.45 55.96 77.31 54.5 128.12"/><path fill="#ca9ae5" d="M206.144 212.005c-13.116-39.481-21.172-94.076-22.031-152.715l-.265-48.972h-22.203l-.265 48.972c-.859 58.639-8.916 113.234-22.031 152.715-10.454 31.455-16.886 77.312-16.447 128.121.775 89.908 22.704 160.927 49.844 161.557 27.14-.629 49.069-71.648 49.844-161.557.439-50.809-5.993-96.666-16.446-128.121"/><path fill="#bc83df" d="M222.589 340.13c-.77 89.9-22.7 160.921-49.84 161.55-5.58-.13-10.94-3.24-15.95-8.88 19.32-21.76 33.28-81.26 33.9-152.67.44-50.81-5.99-96.67-16.45-128.12-7.71-23.23-13.67-51.68-17.45-83.1 2.65-22 4.23-45.47 4.58-69.62l.27-48.97h22.2l.26 48.97c.86 58.64 8.92 113.23 22.03 152.72 10.46 31.45 16.89 77.31 16.45 128.12"/><circle cx="358.394" cy="355.576" r="146.106" fill="#e5cbf2"/><circle cx="358.394" cy="355.576" r="75.566" fill="#d8b2ec"/><path fill="#ca9ae5" d="M433.96 355.58c0 41.73-33.83 75.56-75.57 75.56-14.88 0-28.75-4.3-40.45-11.73a67.4 67.4 0 0 0 21.27 3.43c37.15 0 67.27-30.11 67.27-67.26s-30.12-67.27-67.27-67.27a67.4 67.4 0 0 0-21.27 3.43c11.7-7.43 25.57-11.73 40.45-11.73 41.74 0 75.57 33.83 75.57 75.57"/><path fill="#d8b2ec" d="M504.5 355.58c0 80.69-65.41 146.1-146.11 146.1-19.26 0-37.65-3.73-54.49-10.5 9.07 1.87 18.47 2.85 28.09 2.85 76.47 0 138.46-61.99 138.46-138.45 0-76.47-61.99-138.45-138.46-138.45-9.64 0-19.05.99-28.14 2.86 16.85-6.79 35.26-10.52 54.54-10.52 80.7 0 146.11 65.41 146.11 146.11"/><path d="M15.066 339.911c-1.332-46.515 17.638-91.111 52.048-122.355 22.478-20.419 40.462-44.466 53.451-71.474 13.145-27.33 20.549-56.409 22.007-86.429q.005-.115.008-.229l.877-48.972a7.5 7.5 0 0 0-7.365-7.633l-.137-.001a7.5 7.5 0 0 0-7.496 7.366l-.875 48.855c-2.761 56.241-27.816 108.592-70.555 147.415C19.375 240.643-1.385 289.443.072 340.34c.888 31.089 9.989 61.317 26.322 87.416a7.493 7.493 0 0 0 10.336 2.379 7.5 7.5 0 0 0 2.379-10.336c-14.918-23.839-23.231-51.463-24.043-79.888M202.921 59.653c1.467 30.205 8.955 59.455 22.258 86.937a7.5 7.5 0 1 0 13.502-6.535c-12.402-25.621-19.391-52.878-20.772-81.015l-.875-48.857a7.5 7.5 0 0 0-7.633-7.365 7.5 7.5 0 0 0-7.365 7.633l.877 48.972q.002.116.008.23M184.111 66.79h.042a7.5 7.5 0 0 0 7.459-7.541l-.265-48.973a7.5 7.5 0 0 0-7.499-7.459h-.042a7.5 7.5 0 0 0-7.459 7.541l.265 48.973a7.5 7.5 0 0 0 7.499 7.459"/><path d="M358.394 201.97c-21.808 0-42.565 4.578-61.372 12.808a176 176 0 0 0-8.557-8.324 220.7 220.7 0 0 1-31.978-36.187 7.502 7.502 0 0 0-12.264 8.639 235.8 235.8 0 0 0 34.156 38.652 159 159 0 0 1 4.525 4.284 154 154 0 0 0-14.795 9.544c-4.388-8.583-9.318-16.579-14.718-23.852a7.5 7.5 0 1 0-12.043 8.943c5.49 7.393 10.454 15.642 14.81 24.565a154.7 154.7 0 0 0-29.241 35.181c-2.832-25.273-7.464-47.947-13.66-66.574-7.053-21.258-12.741-47.632-16.45-76.271-.531-4.108-4.304-6.999-8.4-6.475a7.5 7.5 0 0 0-6.475 8.401c3.884 29.997 9.634 56.6 17.091 79.074 7.711 23.181 13.062 54.529 15.114 88.404-6.047 16.471-9.349 34.255-9.349 52.796a153 153 0 0 0 6.421 43.91c-3.643 28.593-9.6 52.852-17.259 70.21-4.336 9.829-9.077 17-13.703 20.959V215.241c0-4.142-3.357-7.5-7.5-7.5s-7.5 3.358-7.5 7.5v275.401c-15.816-13.627-34.115-66.161-34.847-150.576-.415-47.896 5.44-93.709 16.066-125.691 13.587-40.893 21.546-95.931 22.413-155.043l.271-48.97a7.5 7.5 0 0 0-7.459-7.542h-.042a7.5 7.5 0 0 0-7.499 7.459l-.27 48.902c-.845 57.552-8.533 110.988-21.648 150.465-11.126 33.486-17.261 81.07-16.832 130.55.505 58.181 10.346 117.069 28.689 147.611-15.95-7.07-30.662-19.868-42.944-37.68-20-29.005-31.461-68.122-32.27-110.145-.91-47.079 11.946-92.095 35.271-123.505a7.5 7.5 0 0 0-12.043-8.943c-25.265 34.023-39.197 82.403-38.226 132.737 1.119 58.079 21.452 108.578 52.1 138.874-16.757-7.874-32.139-18.714-45.475-32.261a7.5 7.5 0 0 0-10.689 10.523c32.546 33.062 76.186 51.449 122.881 51.776h.106c34.349-.241 67.306-10.316 95.549-29.171 20.275 14.724 44.352 24.64 70.651 27.955a7.5 7.5 0 1 0 1.875-14.882c-69.03-8.702-121.087-67.818-121.087-137.509 0-76.428 62.179-138.606 138.607-138.606S497 279.148 497 355.576c0 69.989-52.311 129.134-121.68 137.576a7.501 7.501 0 0 0 1.813 14.891C454.019 498.685 512 433.139 512 355.576c0-84.699-68.907-153.606-153.606-153.606M241.083 454.658c-11.565 15.418-25.078 26.647-39.606 33.11 8.568-14.162 15.64-34.977 20.671-61.329a154.5 154.5 0 0 0 18.935 28.219m-1.218 24.269c4.031-4.009 7.904-8.395 11.599-13.143a154 154 0 0 0 4.592 4.288 158 158 0 0 1-16.191 8.855"/><path d="M276.245 417.548c-13.573-17.962-20.747-39.391-20.747-61.971 0-56.736 46.158-102.895 102.895-102.895 4.143 0 7.5-3.358 7.5-7.5s-3.357-7.5-7.5-7.5c-65.007 0-117.895 52.888-117.895 117.895 0 25.871 8.223 50.427 23.78 71.015 15.046 19.911 36.431 34.803 60.216 41.932a7.5 7.5 0 0 0 2.156.318 7.5 7.5 0 0 0 2.151-14.686c-20.753-6.222-39.417-19.222-52.556-36.608M476.289 355.576c0-34.524-15.065-67.201-41.331-89.653a7.5 7.5 0 1 0-9.746 11.402c22.928 19.598 36.077 48.119 36.077 78.251 0 56.736-46.159 102.895-102.896 102.895-4.143 0-7.5 3.358-7.5 7.5s3.357 7.5 7.5 7.5c65.008.001 117.896-52.887 117.896-117.895"/><path d="M441.46 355.576c0-45.803-37.264-83.067-83.067-83.067a83.1 83.1 0 0 0-53.734 19.718 7.5 7.5 0 0 0 9.707 11.436 68.1 68.1 0 0 1 44.026-16.154c37.532 0 68.067 30.535 68.067 68.067s-30.534 68.066-68.067 68.066c-37.531 0-68.066-30.534-68.066-68.066 0-10.173 2.187-19.954 6.5-29.07a7.5 7.5 0 1 0-13.558-6.415c-5.27 11.138-7.941 23.077-7.941 35.485 0 45.803 37.263 83.066 83.066 83.066s83.067-37.263 83.067-83.066"/><path d="M358.393 323.041c16.852 0 30.775 12.627 32.385 29.373a7.493 7.493 0 0 0 8.185 6.747 7.5 7.5 0 0 0 6.747-8.184c-2.355-24.478-22.697-42.937-47.317-42.937-26.211 0-47.535 21.324-47.535 47.536s21.324 47.536 47.535 47.536c14.599 0 28.179-6.566 37.26-18.015a7.5 7.5 0 0 0-11.752-9.322c-6.219 7.84-15.516 12.336-25.508 12.336-17.939 0-32.535-14.595-32.535-32.536 0-17.939 14.596-32.534 32.535-32.534"/></svg>