<svg xmlns="http://www.w3.org/2000/svg" width="512" height="512"><path fill="#8dc637" d="M272.221 127.597c5.163-1.059 9.373-4.901 10.927-9.937a46.8 46.8 0 0 1 5.432-11.619c12.272-18.967 35.935-26.11 56.205-18.27 4.362 1.687 9.304 1.147 13.217-1.415 20.602-13.494 48.203-14.181 69.972.707 27.004 18.469 35.301 55.161 18.829 83.428-8.093 13.888-20.571 23.444-34.569 28.071-4.986 1.648-8.892 5.677-10.012 10.808a49.4 49.4 0 0 1-9.993 20.69c-14.648 17.997-39.3 23.046-59.413 13.665-4.141-1.931-8.947-1.689-13.037.349-13.169 6.563-29.365 6.201-42.614-2.372-12.62-8.165-19.535-21.823-19.655-35.808l-.015-.009c-19.958-12.913-25.669-39.56-12.756-59.518 6.529-10.091 16.57-16.533 27.482-18.77"/><path fill="#82b732" d="M412.233 198.567c-4.98 1.644-8.894 5.669-10.018 10.803a49.3 49.3 0 0 1-9.99 20.685c-14.646 17.996-39.299 23.054-59.409 13.672-4.144-1.929-8.952-1.689-13.043.344-13.169 6.568-29.361 6.208-42.611-2.368-7.691-4.979-13.269-11.992-16.478-19.879 11.999 5.388 25.549 4.861 36.85-.771 4.096-2.042 8.904-2.283 13.034-.349 20.124 9.378 44.772 4.329 59.418-13.667a49.4 49.4 0 0 0 9.995-20.694c1.119-5.125 5.023-9.156 10.018-10.803 13.99-4.63 26.469-14.188 34.559-28.07 11.475-19.702 10.935-43.486.405-62.348a58 58 0 0 1 3.012 1.939c27.005 18.471 35.304 55.16 18.831 83.432-8.095 13.892-20.568 23.441-34.573 28.074"/><path fill="#f82f40" d="M240.562 280.01c76.103-125.664 165.979-162.684 165.979-162.684-124.505 28.313-187.359 125.887-198.147 144.112z"/><path fill="#99d53b" d="M283.868 159.725c-1.303-4.694.087-9.776 3.576-13.175a43.2 43.2 0 0 0 7.274-9.361c10.441-18.084 6.356-40.563-8.629-53.941-3.225-2.879-4.862-7.173-4.4-11.472 2.43-22.634-8.625-45.635-30.042-57.28C225.08.051 191.394 8.672 175.069 34.127c-8.021 12.507-10.631 26.797-8.545 40.264.743 4.797-.928 9.707-4.678 12.789a45.66 45.66 0 0 0-12.818 16.934c-8.642 19.63-2.418 42.042 13.77 54.643 3.333 2.594 5.157 6.651 5.202 10.874.144 13.6 7.261 26.774 19.893 34.067 12.032 6.947 26.182 6.887 37.74 1.098l.014.008c19.029 10.986 43.36 4.466 54.346-14.562 5.555-9.621 6.628-20.596 3.875-30.517"/><path fill="#8dc637" d="M279.994 190.246c-10.549 18.271-33.403 25.006-52.05 15.78a39.6 39.6 0 0 0 21.012-17.551c5.556-9.624 6.623-20.6 3.872-30.514-1.306-4.698.087-9.777 3.579-13.181a43.2 43.2 0 0 0 7.27-9.361c10.44-18.083 6.354-40.56-8.628-53.943a13.45 13.45 0 0 1-4.397-11.465c2.427-22.635-8.626-45.642-30.048-57.283a57.6 57.6 0 0 0-8.869-3.893c13.168-2.838 27.335-1.181 39.913 5.655 21.416 11.651 32.475 34.648 30.048 57.283-.467 4.3 1.169 8.599 4.392 11.474 14.988 13.373 19.069 35.859 8.628 53.943a43.2 43.2 0 0 1-7.27 9.361c-3.487 3.395-4.88 8.474-3.574 13.172 2.745 9.923 1.678 20.899-3.878 30.523"/><path fill="#fb4a59" d="m190.766 251.26 29.857 17.238c9.637-14.532 54.626-89.179 26.916-198.01-.001 0 6.506 79.028-56.773 180.772"/><path fill="#fb8189" d="m292.448 298.089-124.624-71.952c-34.388-19.854-78.359-8.072-98.213 26.316-44.854 77.69 42.607 126.976 32.201 197.339 0 0 32.402-14.3 63.302-11.627 51.978 4.496 118.19 19.554 153.649-41.863 19.855-34.388 8.073-78.359-26.315-98.213"/><path fill="#fb6672" d="M318.761 396.304c-35.458 61.414-101.666 46.361-153.651 41.861-30.892-2.675-63.298 11.627-63.298 11.627 1.998-13.543.374-26.299-3.233-38.634 12.021-3.3 28.094-6.314 43.769-4.95 51.975 4.494 118.193 19.553 153.651-41.861 9.925-17.191 11.946-36.781 7.19-54.562a70 70 0 0 0-1.736-5.559c12.25 9.789 20.62 23.047 24.497 37.516 4.763 17.771 2.742 37.361-7.189 54.562"/><path d="M432.207 80.873a70.5 70.5 0 0 0-19.099-9.218 7.5 7.5 0 0 0-9.372 4.966 7.5 7.5 0 0 0 4.966 9.372 55.5 55.5 0 0 1 15.038 7.262c23.813 16.287 31.097 48.555 16.583 73.462-6.825 11.712-17.636 20.493-30.442 24.726-7.592 2.509-13.334 8.766-14.986 16.328-1.414 6.471-4.268 12.377-8.483 17.556-12.2 14.99-32.937 19.76-50.426 11.602-6.133-2.86-13.259-2.704-19.552.433-11.21 5.586-24.695 4.838-35.194-1.955-.238-.154-.462-.33-.696-.489a482 482 0 0 1 20.453-24.694c2.863-2.151 19.25-12.593 52.62.869a7.5 7.5 0 0 0 2.803.546 7.501 7.501 0 0 0 2.808-14.457c-15.58-6.285-28.424-8.098-38.63-7.738a421 421 0 0 1 21.545-20.007c3.596-1.494 17.014-6.68 33.256-8.224l5.539 10.436a7.5 7.5 0 0 0 10.14 3.11 7.5 7.5 0 0 0 3.109-10.14l-1.834-3.455c4.695.463 9.425 1.367 14.051 2.868a7.5 7.5 0 0 0 4.63-14.268c-13.496-4.38-27.373-4.655-39.524-3.257 22.635-15.826 37.721-22.177 37.889-22.247a7.499 7.499 0 0 0-4.52-14.248c-25.118 5.712-49.226 14.509-72.134 26.273 2.56-6.25 5.683-12.542 9.031-16.565a7.5 7.5 0 0 0-11.527-9.597c-8.797 10.566-15.07 29.845-17.255 37.236a324 324 0 0 0-21.059 13.97 48 48 0 0 0-.84-3.61c-.565-2.035.056-4.31 1.582-5.797a50.7 50.7 0 0 0 8.536-10.984c7.47-12.938 8.62-28.163 4.098-41.654 10.681-7.504 24.469-9.276 36.769-4.518 6.602 2.553 14.091 1.755 20.031-2.137a55.3 55.3 0 0 1 14.634-6.772 7.5 7.5 0 1 0-4.257-14.383 70.3 70.3 0 0 0-18.596 8.608 7.06 7.06 0 0 1-6.401.694c-16.331-6.317-34.568-4.317-49.06 5.047a50 50 0 0 0-7.347-8.171 5.96 5.96 0 0 1-1.938-5.077c2.849-26.534-10.464-51.918-33.916-64.669-30.041-16.335-68.024-6.595-86.474 22.172-8.666 13.513-12.09 29.658-9.642 45.461.354 2.287-.423 4.527-2.028 5.846-6.494 5.337-11.513 11.967-14.92 19.706-9.866 22.411-3.275 48.557 16.027 63.583 1.425 1.109 2.288 2.991 2.31 5.036.177 16.653 9.236 32.166 23.643 40.483a47.05 47.05 0 0 0 17.87 5.99 419 419 0 0 1-8.649 16.039l-21.79-12.58c-37.913-21.888-86.568-8.852-108.458 29.062-12.497 21.646-16.498 43.313-12.23 66.239 3.7 19.872 13.066 38.296 22.123 56.114l.875 1.72a7.497 7.497 0 0 0 10.083 3.289 7.5 7.5 0 0 0 3.289-10.083l-.876-1.724c-5.054-9.941-10.024-19.724-13.969-29.601l67.842 39.169a7.499 7.499 0 0 0 10.245-2.745 7.5 7.5 0 0 0-2.745-10.245l-81.805-47.23c-3.574-17.83-1.91-36.503 10.157-57.404 17.754-30.75 57.218-41.325 87.968-23.571l100.983 58.303a7.5 7.5 0 0 0 7.5-12.99l-16.024-9.251a517 517 0 0 1 14.982-21.756q.779.546 1.575 1.063c8.281 5.358 17.867 8.072 27.482 8.072a50.55 50.55 0 0 0 22.551-5.285c2.145-1.07 4.583-1.168 6.521-.265 23.727 11.067 51.856 4.6 68.4-15.727 5.713-7.019 9.583-15.035 11.503-23.824.526-2.408 2.457-4.434 5.038-5.287 16.284-5.382 30.027-16.539 38.695-31.416 18.453-31.668 9.196-72.692-21.075-93.396M191.643 197.204c-9.837-5.68-16.023-16.275-16.144-27.652-.07-6.672-3.02-12.763-8.094-16.714-13.871-10.798-18.605-29.591-11.513-45.702 2.451-5.567 6.056-10.332 10.716-14.162 5.682-4.669 8.489-12.23 7.327-19.731-1.887-12.184.757-24.638 7.446-35.067 14.226-22.18 43.517-29.687 66.683-17.092 18.093 9.838 28.365 29.421 26.167 49.891-.72 6.708 1.845 13.387 6.862 17.867 12.571 11.223 15.569 29.979 7.129 44.597a35.7 35.7 0 0 1-6.012 7.738 20.9 20.9 0 0 0-5.57 20.553c2.335 8.413 1.218 17.208-3.143 24.762a32.25 32.25 0 0 1-16.619 14.074c.809-3.41 1.576-6.905 2.275-10.516 7.613-39.334 6.15-80.183-4.348-121.413a7.5 7.5 0 0 0-14.742 2.466c.02.244.638 8.785-.742 23.654-5.659-14.019-15.032-29.716-30.594-43.477a7.5 7.5 0 0 0-10.587.65 7.5 7.5 0 0 0 .65 10.586c11.424 10.103 19.022 21.547 24.079 32.281l-13.049-7.534a7.5 7.5 0 0 0-7.5 12.99l28.079 16.211c1.964 8.378 2.401 14.638 2.496 16.874-2.455 10.446-5.714 21.956-10.039 34.344-4.639-15.724-15.823-37.684-42.76-53.095a7.5 7.5 0 0 0-10.234 2.786 7.5 7.5 0 0 0 2.786 10.234c12.995 7.435 21.697 16.574 27.516 25.756-.851-.368-1.68-.722-2.473-1.055a7.5 7.5 0 0 0-9.821 4.005 7.5 7.5 0 0 0 4.005 9.821c5.328 2.242 12.359 5.449 17.219 7.697 2.842 10.634 2.687 19.229 2.509 22.256a392 392 0 0 1-2.439 5.393 32 32 0 0 1-17.521-4.276m57.168-65.663c.604 18.828-.855 37.426-4.384 55.659-5.242 27.086-14.052 48.145-21.341 62.183l-16.734-9.661c23.818-41.905 36.145-79.248 42.459-108.181m-12.724 125.348c5.218-9.975 11.192-23.339 16.277-39.762 14.27-2.085 26.852-10.54 34.124-23.134a47.4 47.4 0 0 0 5.323-13.853c17.522-13.574 36.022-25.041 55.389-34.291-27.563 21.571-66.715 58.46-103.673 115.335z"/><path d="M304.465 297.101a7.5 7.5 0 0 0-9.05 11.962c18.941 14.331 27.869 37.471 24.887 59.866l-59.95-34.612c-3.587-2.073-8.174-.842-10.245 2.745s-.842 8.174 2.745 10.245l63.542 36.686a64 64 0 0 1-4.124 8.559c-2.258 3.911-4.665 7.525-7.226 10.864l-132.342-76.408a7.5 7.5 0 0 0-7.5 12.99l129.397 74.708c-10.57 9.39-23.339 15.405-38.918 18.465-22.883 4.495-47.932 1.847-72.157-.712-6.156-.65-11.971-1.265-17.762-1.766-21.277-1.843-42.847 3.73-55.573 7.957.104-12.287-2.35-24.919-7.49-38.904a7.5 7.5 0 1 0-14.079 5.175c5.761 15.673 7.656 29.194 5.95 42.416l-.69 1.194a14.26 14.26 0 0 1-8.711 6.684 14.25 14.25 0 0 1-10.886-1.433c-6.85-3.955-9.205-12.746-5.251-19.596a7.5 7.5 0 0 0-12.99-7.5c-8.09 14.013-3.272 31.996 10.741 40.086a29.16 29.16 0 0 0 14.294 3.933l-.116.201c-8.09 14.013-3.272 31.996 10.741 40.086a7.497 7.497 0 0 0 10.245-2.745 7.5 7.5 0 0 0-2.745-10.245c-6.85-3.955-9.205-12.746-5.251-19.596l4.074-7.056a29.2 29.2 0 0 0 10.538 10.439 7.497 7.497 0 0 0 10.245-2.745 7.5 7.5 0 0 0-2.745-10.245c-4.926-2.845-7.616-8.31-7.1-13.787 9.356-3.519 33.114-11.317 55.505-9.376 5.65.489 11.396 1.096 17.479 1.739 48.704 5.148 109.319 11.554 143.312-47.324 19.979-34.605 11.039-78.863-20.794-102.95"/><path d="M193.337 404.475a7.497 7.497 0 0 0 10.245-2.745 7.5 7.5 0 0 0-2.745-10.245l-10.889-6.287a7.5 7.5 0 0 0-7.5 12.99zM125.684 256.567a7.5 7.5 0 0 0-7.5 12.99l19.345 11.169a7.499 7.499 0 0 0 10.245-2.745 7.5 7.5 0 0 0-2.745-10.245z"/></svg>