<svg xmlns="http://www.w3.org/2000/svg" width="512" height="512"><path fill="#bcea73" d="M283.452 102.862h-54.903V25.2c0-4.72 3.284-8.804 7.894-9.817l34.802-7.645c6.271-1.378 12.207 3.397 12.207 9.817z"/><path fill="#99d53b" d="M283.454 17.552v85.312h-31.329V23.582c0-4.975-3.578-8.965-8.111-9.86l27.228-5.98c6.272-1.377 12.212 3.397 12.212 9.81"/><path fill="#ffd496" d="M194.264 222.794c-46.662 37.835-128.438 66.03-128.438 156.924C65.826 518.682 256 480.971 256 480.971s190.174 37.711 190.174-101.253c0-90.894-79.68-119.089-126.342-156.924z"/><path fill="#fcb44d" d="M446.174 379.718C446.174 518.682 256 480.971 256 480.971V222.792h63.834c46.656 37.832 126.34 66.035 126.34 156.926"/><path fill="#fee7c9" d="M364.035 290.149c-62.702-79.924-74.844-192.396-77.167-228.808-.395-6.195-6.254-10.547-12.301-9.144l-41.459 9.619a10.05 10.05 0 0 0-7.761 9.191c-1.73 28.958-12.426 136.345-77.382 219.142C72.199 386.726 143.535 504.5 256 504.5s183.801-117.774 108.035-214.351"/><path fill="#ffd496" d="M256 504.5c-7.136 0-14.111-.472-20.886-1.397 100.047-13.468 158.111-122.511 87.152-212.959-62.698-79.915-74.839-192.395-77.171-228.799a10 10 0 0 0-.392-2.221l29.861-6.925c6.051-1.407 11.91 2.945 12.302 9.146 2.322 36.404 14.463 148.884 77.171 228.799C439.801 386.723 368.46 504.5 256 504.5"/><path d="M424.194 295.213a7.5 7.5 0 1 0-11.629 9.475c17.565 21.561 26.104 46.104 26.104 75.033 0 33.27-11.683 58.456-34.724 74.856-12.062 8.585-27.193 14.851-45.153 18.761 12.897-11.761 23.427-25.714 30.991-41.262 10.813-22.225 15.073-46.887 12.321-71.319-2.988-26.523-13.811-51.836-32.168-75.237-8.187-10.435-15.778-21.802-22.759-34.064l1.98 1.321c12.934 8.608 26.309 17.51 38.603 27.556a7.47 7.47 0 0 0 4.741 1.692 7.5 7.5 0 0 0 4.75-13.308c-12.864-10.51-26.549-19.619-39.784-28.427-8.646-5.754-16.82-11.199-24.425-16.792-9.031-20.075-16.707-42.037-22.938-65.818a7.5 7.5 0 0 0-9.156-5.354 7.5 7.5 0 0 0-5.354 9.156c13.987 53.383 35.028 98.23 62.539 133.297 16.614 21.178 26.393 43.941 29.064 67.657 2.434 21.602-1.337 43.414-10.903 63.078-10.778 22.153-27.778 40.086-48.715 52.452a7.5 7.5 0 0 0-1.656.945C305.539 490.554 281.556 497 256 497c-19.972 0-34.27-15.207-42.747-27.964-25.009-37.636-35.857-110.17-8.203-175.982 1.544-3.676 3.128-7.4 4.729-11.164 11.412-26.837 23.212-54.588 28.69-82.137a7.5 7.5 0 1 0-14.712-2.925c-5.176 26.03-16.668 53.057-27.782 79.193-1.609 3.784-3.201 7.528-4.754 11.223-13.5 32.128-19.327 68.112-16.851 104.061 2.295 33.324 11.667 63.877 26.39 86.033 3.007 4.525 6.212 8.631 9.579 12.314-15.649-5.23-30.114-13.159-42.574-23.517-23.093-19.195-38.159-45.477-42.423-74.004a7.5 7.5 0 0 0-14.835 2.217c4.495 30.073 19.579 57.885 42.703 78.991-17.959-3.912-33.087-10.177-45.146-18.759-23.048-16.4-34.734-41.587-34.734-74.86 0-29.786 9.35-55.025 28.585-77.16 17.288-19.895 39.981-34.806 61.928-49.227l.278-.183c-6.534 11.046-13.85 21.908-22.057 32.368-17.161 21.875-27.758 45.531-31.498 70.311a7.5 7.5 0 1 0 14.832 2.238c3.348-22.186 12.926-43.48 28.468-63.29 65.913-84.017 77.107-192.176 78.968-223.324a2.53 2.53 0 0 1 1.969-2.332l41.458-9.619a2.52 2.52 0 0 1 2.103.437c.353.262.953.854 1.019 1.878.901 14.111 3.047 36.626 8.158 63.758a7.5 7.5 0 1 0 14.74-2.776c-4.971-26.385-7.056-48.245-7.929-61.936a17.5 17.5 0 0 0-3.401-9.283V17.555a17.47 17.47 0 0 0-6.553-13.678A17.47 17.47 0 0 0 269.634.413l-34.801 7.645c-7.988 1.754-13.786 8.964-13.786 17.142v36.325a17.5 17.5 0 0 0-3.188 9.034c-1.366 22.865-7.935 88.726-38.85 154.418-.041.028-.084.051-.124.08-7.286 5.23-15.055 10.335-23.28 15.74-22.797 14.979-46.369 30.469-65.013 51.924-21.709 24.983-32.263 53.44-32.263 86.999 0 38.406 13.807 67.705 41.037 87.082 19.992 14.227 46.904 22.774 79.981 25.442C202.114 505.094 228.573 512 256 512c27.49 0 53.907-6.822 76.75-19.773 33.034-2.668 59.917-11.211 79.894-25.431 27.223-19.376 41.026-48.673 41.026-87.076 0-32.519-9.642-60.162-29.476-84.507M238.052 22.709l34.802-7.645a2.51 2.51 0 0 1 2.145.503c.356.286.953.925.953 1.988v26.927a17.7 17.7 0 0 0-3.08.408l-36.823 8.543V25.2a2.565 2.565 0 0 1 2.003-2.491"/><path d="M325.642 422.816q.7.13 1.389.129a7.504 7.504 0 0 0 7.364-6.121c8.116-43.351 3.281-89.37-13.615-129.581a7.501 7.501 0 0 0-13.829 5.811c15.544 36.992 20.173 81.099 12.7 121.01a7.5 7.5 0 0 0 5.991 8.752"/></svg>