<svg xmlns="http://www.w3.org/2000/svg" width="512" height="512"><path fill="#99d53b" d="M171.404 420.983c-3.847 10.57-15.534 16.019-26.103 12.172s-16.019-15.534-12.172-26.103 20.644-30.06 31.214-26.213 10.908 29.575 7.061 40.144"/><path fill="#82b732" d="M171.405 420.982c-3.848 10.572-15.538 16.023-26.11 12.175a20.17 20.17 0 0 1-8.623-6.044c6.918-1.228 13.012-6.013 15.591-13.099s3.281-20.973.287-30.524c4.147-2.652 8.301-3.918 11.787-2.649 10.572 3.849 10.916 29.569 7.068 40.141"/><path fill="#99d53b" d="M177.402 307.476c-7.23 8.616-20.076 9.74-28.692 2.51s-9.74-20.076-2.51-28.692 29.68-21.186 38.297-13.956c8.615 7.23.135 31.522-7.095 40.138"/><path fill="#82b732" d="M177.403 307.475c-7.232 8.618-20.081 9.743-28.699 2.511a20.17 20.17 0 0 1-6.036-8.629c6.921 1.212 14.284-1.2 19.13-6.976 4.847-5.776 10.257-18.586 10.709-28.585 4.804-1.073 9.14-.842 11.982 1.543 8.619 7.231.145 31.518-7.086 40.136"/><path fill="#99d53b" d="M203.454 206.255c-8.616 7.23-21.462 6.106-28.692-2.51s-6.106-21.462 2.51-28.692 32.908-15.71 40.138-7.094-5.34 31.066-13.956 38.296"/><path fill="#82b732" d="M203.455 206.254c-8.618 7.232-21.468 6.108-28.699-2.511a20.17 20.17 0 0 1-4.446-9.546c6.605 2.395 14.275 1.299 20.051-3.548s13.328-16.523 15.51-26.291c4.917-.223 9.147.758 11.532 3.6 7.233 8.618-5.329 31.065-13.948 38.296"/><path fill="#d2f0a2" d="m194.817 86.809-12.956 16.846c-1.161 1.51-28.692 37.778-50.586 107.13-12.68 40.165-20.983 83.489-24.677 128.768-3.821 46.833-2.693 95.897 3.339 146.238 1.28 10.678 10.361 18.709 21.115 18.709 12.715 0 22.627-11.092 21.119-23.717-13.712-114.738 2.253-201.194 18.932-254.95 19.401-62.53 43.866-95.485 44.483-96.307l12.924-16.804z"/><path fill="#bcea73" d="m228.514 112.722-12.931 16.801c-.32.43-7.09 9.55-16.241 27.001-5.91-.93-11.741-3.02-17.171-6.33-7.78-4.74-13.711-11.361-17.541-18.931 9.62-17.591 16.661-26.871 17.231-27.611l12.951-16.841z"/><path fill="#bcea73" d="m228.514 112.722-12.931 16.801c-.61.82-25.081 33.782-44.482 96.314-16.681 53.752-32.641 140.206-18.931 254.942q.15 1.29.15 2.55c0 11.53-9.41 21.171-21.271 21.171-1.2 0-2.39-.1-3.54-.3v-.02c-15.301-128.006 2.51-224.45 21.121-284.413 21.641-69.763 48.932-106.525 49.622-107.445l11.05-14.371z"/><path fill="#82b732" d="M270.556 79.322c-10.009 16.424-31.437 21.624-47.86 11.615s-21.624-31.437-11.615-47.86S255.813-.364 272.237 9.645s8.327 53.253-1.681 69.677"/><path fill="#79a72d" d="M270.551 79.322c-10.006 16.419-31.435 21.62-47.854 11.614-.64-.39-1.268-.799-1.87-1.231 9.809-1.502 18.918-7.163 24.489-16.304 8.597-14.108 15.783-48.017 7.22-63.649 7.483-2.736 14.506-3.276 19.702-.11 16.419 10.007 8.325 53.251-1.687 69.68"/><path fill="#a3e440" d="M228.983 126.624a47.13 47.13 0 0 1-31.545-6.404c-22.316-13.599-29.381-42.714-15.782-65.03s28.845-37.318 34.633-33.791c22.315 13.6 26.107 103.235 12.694 105.225"/><path fill="#8dc637" d="M228.981 126.622a47.14 47.14 0 0 1-30.594-5.833 43 43 0 0 0 4.741-.451c10.919-1.624 10.438-61.32-2.154-90.804 6.644-6.732 12.277-9.979 15.314-8.128 22.314 13.597 26.112 103.229 12.693 105.216"/><path fill="#a3e440" d="M180.803 110.362a47.13 47.13 0 0 0 20.151 25.1c22.316 13.599 51.43 6.533 65.03-15.782s19.944-42.742 14.157-46.269c-22.315-13.6-103.717 24.118-99.338 36.951"/><path fill="#8dc637" d="M265.982 119.685c-13.213 21.682-41.072 28.964-63.105 16.886 14.118-1.522 27.395-9.359 35.358-22.425 10.984-18.024 17.236-34.818 16.186-42.466 10.773-1.858 20.11-1.682 25.717 1.735 5.788 3.527-.553 23.948-14.156 46.27"/><path fill="#a3e440" d="M159.914 174.791c0 11.248-9.118 20.366-20.366 20.366s-20.366-9.118-20.366-20.366 9.118-35.308 20.366-35.308 20.366 24.06 20.366 35.308"/><path fill="#8dc637" d="M159.914 174.789c0 11.251-9.12 20.371-20.371 20.371-3.7 0-7.18-.99-10.171-2.73 6.08-3.52 10.171-10.101 10.171-17.641s-4.09-20.831-10.171-28.781c2.99-3.91 6.46-6.52 10.171-6.52 11.251 0 20.371 24.051 20.371 35.301"/><path fill="#a3e440" d="M125.484 299.378c1.953 11.077-5.443 21.64-16.52 23.593s-21.64-5.443-23.593-16.52 2.849-36.355 13.926-38.308 24.234 20.158 26.187 31.235"/><path fill="#8dc637" d="M125.484 299.376c1.954 11.08-5.444 21.645-16.524 23.599a20.16 20.16 0 0 1-10.49-.923c5.377-4.523 8.262-11.713 6.953-19.139s-7.645-19.804-15.014-26.578c2.266-4.37 5.23-7.543 8.884-8.187 11.079-1.953 24.238 20.149 26.191 31.228"/><path fill="#a3e440" d="M124.026 435.218c3.847 10.57-1.603 22.256-12.172 26.103s-22.256-1.603-26.103-12.172-3.508-36.297 7.062-40.144 27.366 15.643 31.213 26.213"/><path fill="#8dc637" d="M124.026 435.216c3.848 10.572-1.603 22.262-12.175 26.11a20.16 20.16 0 0 1-10.491.913c4.51-5.387 6.103-12.97 3.524-20.056s-10.968-18.176-19.401-23.567c1.472-4.697 3.841-8.337 7.327-9.606 10.572-3.847 27.368 15.634 31.216 26.206"/><path fill="#99d53b" d="M317.66 420.983c-3.847 10.57-15.534 16.019-26.103 12.172s-16.019-15.534-12.172-26.103 20.644-30.06 31.214-26.213c10.568 3.847 10.908 29.575 7.061 40.144"/><path fill="#82b732" d="M317.66 420.982c-3.848 10.572-15.538 16.023-26.11 12.175a20.17 20.17 0 0 1-8.623-6.044c6.918-1.228 13.012-6.013 15.591-13.099s3.281-20.973.287-30.524c4.147-2.652 8.301-3.918 11.787-2.649 10.572 3.849 10.916 29.569 7.068 40.141"/><path fill="#99d53b" d="M323.657 307.476c-7.23 8.616-20.076 9.74-28.692 2.51s-9.74-20.076-2.51-28.692 29.68-21.186 38.297-13.956c8.615 7.23.135 31.522-7.095 40.138"/><path fill="#82b732" d="M323.658 307.475c-7.232 8.618-20.081 9.743-28.699 2.511a20.17 20.17 0 0 1-6.036-8.629c6.921 1.212 14.284-1.2 19.13-6.976 4.847-5.776 10.257-18.586 10.709-28.585 4.804-1.073 9.14-.842 11.982 1.543 8.619 7.231.146 31.518-7.086 40.136"/><path fill="#99d53b" d="M349.709 206.255c-8.616 7.23-21.462 6.106-28.692-2.51s-6.106-21.462 2.51-28.692 32.908-15.71 40.138-7.094c7.231 8.616-5.339 31.066-13.956 38.296"/><path fill="#82b732" d="M349.711 206.254c-8.618 7.232-21.468 6.108-28.699-2.511a20.17 20.17 0 0 1-4.446-9.546c6.605 2.395 14.275 1.299 20.051-3.548s13.328-16.523 15.51-26.291c4.917-.223 9.147.758 11.532 3.6 7.232 8.618-5.33 31.065-13.948 38.296"/><path fill="#d2f0a2" d="m341.073 86.809-12.956 16.846c-1.161 1.51-28.692 37.778-50.586 107.13-12.68 40.165-20.983 83.489-24.677 128.768-3.822 46.833-2.693 95.897 3.339 146.238 1.28 10.678 10.361 18.709 21.115 18.709 12.715 0 22.627-11.092 21.119-23.717-13.712-114.738 2.253-201.194 18.932-254.95 19.401-62.53 43.866-95.485 44.483-96.307l12.924-16.804z"/><path fill="#bcea73" d="m374.77 112.722-12.931 16.801c-.32.43-7.09 9.55-16.241 27.001-5.91-.93-11.741-3.02-17.171-6.33-7.78-4.74-13.711-11.361-17.541-18.931 9.62-17.591 16.661-26.871 17.231-27.611l12.951-16.841z"/><path fill="#bcea73" d="m374.77 112.722-12.931 16.801c-.61.82-25.081 33.782-44.482 96.314-16.681 53.752-32.641 140.206-18.931 254.942q.15 1.29.15 2.55c0 11.53-9.41 21.171-21.271 21.171-1.2 0-2.39-.1-3.54-.3v-.02c-15.301-128.006 2.51-224.45 21.121-284.413 21.641-69.763 48.932-106.525 49.622-107.445l11.05-14.371z"/><path fill="#82b732" d="M416.811 79.322c-10.009 16.424-31.437 21.624-47.86 11.615s-21.624-31.437-11.615-47.86c10.009-16.424 44.732-43.441 61.156-33.432s8.328 53.253-1.681 69.677"/><path fill="#79a72d" d="M416.807 79.322c-10.006 16.419-31.435 21.62-47.854 11.614-.64-.39-1.268-.799-1.87-1.231 9.809-1.502 18.918-7.163 24.489-16.304 8.597-14.108 15.783-48.017 7.22-63.649 7.483-2.736 14.506-3.276 19.702-.11 16.419 10.007 8.324 53.251-1.687 69.68"/><path fill="#a3e440" d="M375.238 126.624a47.13 47.13 0 0 1-31.545-6.404c-22.316-13.599-29.381-42.714-15.782-65.03s28.845-37.318 34.633-33.791c22.316 13.6 26.107 103.235 12.694 105.225"/><path fill="#8dc637" d="M375.237 126.622a47.14 47.14 0 0 1-30.594-5.833 43 43 0 0 0 4.741-.451c10.919-1.624 10.438-61.32-2.154-90.804 6.644-6.732 12.277-9.979 15.314-8.128 22.313 13.597 26.112 103.229 12.693 105.216"/><path fill="#a3e440" d="M327.059 110.362a47.13 47.13 0 0 0 20.151 25.1c22.316 13.599 51.43 6.533 65.03-15.782s19.944-42.742 14.157-46.269c-22.316-13.6-103.718 24.118-99.338 36.951"/><path fill="#8dc637" d="M412.237 119.685c-13.213 21.682-41.072 28.964-63.105 16.886 14.118-1.522 27.395-9.359 35.358-22.425 10.984-18.024 17.236-34.818 16.186-42.466 10.773-1.858 20.11-1.682 25.717 1.735 5.788 3.527-.553 23.948-14.156 46.27"/><path fill="#a3e440" d="M306.169 174.791c0 11.248-9.118 20.366-20.366 20.366s-20.366-9.118-20.366-20.366 9.118-35.308 20.366-35.308 20.366 24.06 20.366 35.308"/><path fill="#8dc637" d="M306.169 174.789c0 11.251-9.12 20.371-20.371 20.371-3.7 0-7.18-.99-10.171-2.73 6.08-3.52 10.171-10.101 10.171-17.641s-4.09-20.831-10.171-28.781c2.99-3.91 6.46-6.52 10.171-6.52 11.251 0 20.371 24.051 20.371 35.301"/><path fill="#a3e440" d="M271.74 299.378c1.953 11.077-5.443 21.64-16.52 23.593s-21.64-5.443-23.593-16.52 2.849-36.355 13.926-38.308 24.233 20.158 26.187 31.235"/><path fill="#8dc637" d="M271.74 299.376c1.954 11.08-5.444 21.645-16.524 23.599a20.16 20.16 0 0 1-10.49-.923c5.377-4.523 8.262-11.713 6.953-19.139s-7.645-19.804-15.014-26.578c2.266-4.37 5.23-7.543 8.884-8.187 11.079-1.953 24.237 20.149 26.191 31.228"/><path fill="#a3e440" d="M270.282 435.218c3.847 10.57-1.603 22.256-12.172 26.103s-22.256-1.603-26.103-12.172-3.508-36.297 7.062-40.144 27.366 15.643 31.213 26.213"/><path fill="#8dc637" d="M270.281 435.216c3.848 10.572-1.603 22.262-12.175 26.11a20.16 20.16 0 0 1-10.491.913c4.51-5.387 6.103-12.97 3.524-20.056s-10.968-18.176-19.401-23.567c1.472-4.697 3.841-8.337 7.327-9.606 10.572-3.847 27.369 15.634 31.216 26.206"/><path d="M223.156 163.138c-3.419-4.074-8.739-6.182-15.499-6.294a290 290 0 0 1 4.796-8.539 54 54 0 0 0 13.025 1.59c4.338 0 8.706-.519 13.029-1.567 14.229-3.453 26.262-12.241 33.882-24.745 6.914-11.345 12.281-22.667 15.113-31.879 3.881-12.625 2.718-20.934-3.457-24.697l-.082-.046c7.029-22.359 8.866-53.55-7.823-63.72-14.376-8.761-35.851 1.726-51.955 14.853-1.252-1.192-2.58-2.236-3.993-3.098-7.82-4.766-17.954.615-30.984 16.45a7.5 7.5 0 0 0 11.582 9.532c6.473-7.865 10.857-11.142 12.874-12.207 5.215 4.681 11.173 18.969 14.075 42.39-16.795 5.937-33.16 14.179-43.24 21.813-2.643-7.567-2.989-15.83-.839-23.669a7.5 7.5 0 0 0-14.466-3.968c-3.508 12.789-2.203 26.395 3.489 38.25-3.877 5.636-11.342 17.212-20.05 34.364-3.703-3.632-8.073-5.967-13.084-5.967-18.101 0-27.866 30.385-27.866 42.808 0 10.86 6.249 20.283 15.336 24.879a520 520 0 0 0-2.895 8.858c-5.542 17.553-10.284 35.876-14.169 54.605-3.981-2.257-8.003-3.072-11.959-2.376-7.974 1.406-14.11 8.668-17.742 21-2.604 8.84-3.494 19.044-2.268 25.996 1.293 7.33 5.363 13.719 11.46 17.988a27.8 27.8 0 0 0 10.456 4.482c-.276 2.907-.54 5.82-.777 8.719-.389 4.76-.734 9.762-1.057 15.29a7.501 7.501 0 0 0 14.976.875c.316-5.411.654-10.3 1.033-14.944.302-3.699.647-7.421 1.014-11.116 12.393-4.575 20.157-17.512 17.784-30.971-1.158-6.565-5.081-15.207-10.12-22.394 4.09-21.544 9.355-42.61 15.677-62.638a501 501 0 0 1 3.452-10.491c14.277-1.19 25.534-13.182 25.534-27.762 0-5.341-1.809-13.999-5.305-22.137 6.084-12.692 11.71-22.725 16.125-29.991a54.9 54.9 0 0 0 18.817 19.205c.443.27.891.529 1.34.786-9.828 17.112-22.987 44.009-34.451 80.958-14.154 45.616-28.458 116.883-23.376 210.186-.008.365.015.726.059 1.082a745 745 0 0 0 4.101 46.795c.469 3.925-.723 7.722-3.357 10.689a13.8 13.8 0 0 1-10.314 4.637c-6.966 0-12.841-5.202-13.668-12.101a802 802 0 0 1-1.835-16.972c6.464-2.67 11.62-7.588 14.594-13.966 3.146-6.746 3.476-14.313.931-21.308-2.415-6.634-8.288-15.026-14.963-21.38a56 56 0 0 0-4.091-3.538 716 716 0 0 1-.116-16.741 7.5 7.5 0 0 0-7.459-7.541c-4.112.015-7.519 3.317-7.541 7.459a730 730 0 0 0 .02 10.137c-2.315-.155-4.549.134-6.676.908-7.609 2.77-12.39 10.987-13.825 23.762-1.029 9.158-.134 19.362 2.281 25.996 3.596 9.879 12.231 16.495 21.952 18.006a820 820 0 0 0 1.836 16.963C104.22 501.116 116.499 512 131.053 512a28.81 28.81 0 0 0 21.534-9.68 28.69 28.69 0 0 0 7.033-22.427 734 734 0 0 1-3.557-38.29c9.964-1.404 18.793-8.17 22.39-18.054 4.249-11.674 5.465-43.566-11.545-49.758-2.889-1.052-6.945-1.531-12.049.24.609-18.489 1.969-35.818 3.867-51.93q1.547.175 3.093.175a27.81 27.81 0 0 0 21.329-9.979c7.985-9.517 20.035-39.07 6.169-50.705-4.704-3.948-11.395-4.893-19.419-2.899 2.686-11.248 5.529-21.485 8.369-30.637a469 469 0 0 1 3.522-10.877 27.8 27.8 0 0 0 8.564 1.355c6.382 0 12.75-2.192 17.922-6.533 5.408-4.538 11.285-12.927 14.973-21.373 5.145-11.782 5.113-21.288-.092-27.49M115.967 310.294a12.78 12.78 0 0 1-8.305 5.291 12.77 12.77 0 0 1-9.613-2.131 12.78 12.78 0 0 1-5.291-8.305c-.699-3.965-.276-11.817 1.884-19.154 2.189-7.43 5.007-10.297 5.957-10.465a1 1 0 0 1 .137-.011c1.126 0 4.64 1.841 9.04 7.807 4.54 6.156 7.623 13.39 8.322 17.354a12.8 12.8 0 0 1-2.131 9.614M268.333 16.049c7.406 4.513 7.71 26.874 1.131 47.039-8.514-.447-18.196 1.215-27.186 3.568-1.529-11.151-4.369-25.124-9.595-36.133 14.286-11.978 29.426-18.268 35.65-14.474M139.548 187.656c-7.094 0-12.866-5.772-12.866-12.866 0-4.026 1.78-11.685 5.182-18.535 3.445-6.937 6.719-9.272 7.683-9.272s4.238 2.335 7.683 9.272c3.402 6.85 5.182 14.51 5.182 18.535.002 7.095-5.77 12.866-12.864 12.866m48.936-78.123c1.441-1.84 5.868-5.939 16.062-11.626 10.17-5.674 22.727-11.031 34.452-14.7 18.91-5.916 30.583-6.061 35.824-4.07.027 4.593-3.943 18.097-15.243 36.64-11.425 18.748-35.975 24.705-54.722 13.28a39.87 39.87 0 0 1-16.373-19.524m-95.685 337.05c-1.377-3.783-2.324-11.589-1.47-19.19.865-7.697 3.143-11.011 4.049-11.34a1.2 1.2 0 0 1 .387-.054c1.36 0 4.989 1.365 10.004 6.139 5.54 5.274 9.832 11.862 11.209 15.646a12.78 12.78 0 0 1-.43 9.838c-1.452 3.114-4.03 5.477-7.26 6.652s-6.722 1.022-9.838-.429a12.8 12.8 0 0 1-6.651-7.262m68.978-58.696c.906.33 3.185 3.643 4.049 11.34.854 7.601-.093 15.407-1.47 19.191-1.517 4.167-5.045 7.134-9.144 8.113-.55-12.15-.77-23.909-.696-35.258 3.98-3.071 6.583-3.634 7.261-3.386m17.897-114.804c.739.62 1.746 4.513-.074 12.042-1.797 7.435-5.357 14.446-7.944 17.531a12.83 12.83 0 0 1-10.983 4.549 552 552 0 0 1 5.396-31.148c8.239-4.005 12.828-3.626 13.605-2.974m29.827-88.458c-3.061 7.009-7.785 13.297-10.868 15.885a12.86 12.86 0 0 1-11.802 2.521c4.273-11.375 8.594-21.423 12.725-30.155 7.637-1.864 11.524-.793 12.109-.095.62.738.935 4.746-2.164 11.844"/><path d="m430.3 67.006-.082-.046c7.029-22.36 8.865-53.55-7.824-63.72-5.283-3.22-14.746-5.672-29.831.931-7.185 3.146-14.886 8.005-22.152 13.938-1.436-1.386-2.782-2.393-3.963-3.114-6.178-3.766-14.095-.988-23.535 8.248-6.89 6.74-14.492 16.699-21.405 28.044a54.73 54.73 0 0 0-2.579 52.312c-3.879 5.64-11.339 17.209-20.041 34.35-3.703-3.632-8.072-5.967-13.083-5.967-18.101 0-27.866 30.385-27.866 42.808 0 10.86 6.248 20.282 15.335 24.878a524 524 0 0 0-2.895 8.859c-5.541 17.549-10.283 35.872-14.169 54.604-3.98-2.257-8.003-3.072-11.96-2.375-7.974 1.406-14.11 8.668-17.742 21-2.604 8.841-3.494 19.045-2.268 25.997 2.044 11.592 11.026 20.235 21.917 22.454-.277 2.91-.542 5.828-.779 8.736-1.649 20.207-2.391 41.057-2.213 62.104-2.31-.152-4.54.137-6.663.91-7.609 2.77-12.389 10.986-13.825 23.761-1.029 9.158-.134 19.362 2.28 25.996 3.596 9.88 12.233 16.496 21.954 18.007a819 819 0 0 0 1.833 16.962c1.731 14.433 14.01 25.317 28.564 25.317a28.81 28.81 0 0 0 21.534-9.68 28.69 28.69 0 0 0 7.033-22.427 735 735 0 0 1-3.556-38.266 27.76 27.76 0 0 0 22.388-18.078c4.249-11.674 5.464-43.566-11.544-49.758-2.907-1.058-6.963-1.522-12.049.242.609-18.503 1.971-35.843 3.871-51.966.992.106 1.986.163 2.979.163 8.086 0 16.042-3.501 21.438-9.933 7.986-9.517 20.036-39.07 6.17-50.705-4.697-3.941-11.39-4.891-19.419-2.899 2.686-11.248 5.529-21.485 8.369-30.638a455 455 0 0 1 3.534-10.897 28 28 0 0 0 8.541 1.346c6.403 0 12.791-2.189 17.934-6.505 5.407-4.538 11.285-12.927 14.972-21.373 5.145-11.782 5.113-21.288-.092-27.49-3.417-4.071-8.731-6.179-15.483-6.294a285 285 0 0 1 4.791-8.556q2.768.681 5.619 1.074.52.07 1.032.071a7.5 7.5 0 0 0 1.012-14.932 39.5 39.5 0 0 1-15.27-5.444 39.88 39.88 0 0 1-16.374-19.525c1.441-1.84 5.868-5.939 16.063-11.627 10.171-5.674 22.73-11.031 34.455-14.7 18.905-5.914 30.579-6.06 35.821-4.07.026 4.593-3.943 18.097-15.243 36.64a39.6 39.6 0 0 1-9.913 10.981 7.5 7.5 0 0 0 9.072 11.947 54.6 54.6 0 0 0 13.649-15.122c6.914-11.345 12.281-22.667 15.113-31.879 3.883-12.622 2.72-20.931-3.455-24.694m-152.18 89.249c3.445-6.937 6.719-9.272 7.684-9.272s4.237 2.335 7.683 9.272c3.402 6.85 5.182 14.51 5.182 18.535 0 7.094-5.771 12.866-12.865 12.866s-12.866-5.772-12.866-12.866c0-4.025 1.78-11.685 5.182-18.535m-39.107 148.893c-.699-3.965-.276-11.816 1.885-19.154 2.188-7.431 5.007-10.298 5.956-10.465a1 1 0 0 1 .137-.011c1.126 0 4.64 1.841 9.04 7.807 4.54 6.156 7.623 13.39 8.323 17.354 1.232 6.987-3.45 13.673-10.436 14.904-6.99 1.233-13.674-3.448-14.905-10.435m.041 141.436c-1.377-3.783-2.324-11.59-1.47-19.191.865-7.697 3.143-11.011 4.049-11.34a1.2 1.2 0 0 1 .387-.054c1.36 0 4.989 1.365 10.004 6.139 5.54 5.274 9.833 11.863 11.21 15.646 2.427 6.666-1.023 14.064-7.689 16.49-6.668 2.425-14.065-1.024-16.491-7.69m68.978-58.697c.906.33 3.185 3.643 4.049 11.34.855 7.601-.093 15.407-1.47 19.191a12.82 12.82 0 0 1-9.143 8.136 681 681 0 0 1-.697-35.281c4.347-3.36 6.809-3.55 7.261-3.386m17.897-114.804c.739.62 1.746 4.513-.073 12.042-1.797 7.434-5.358 14.446-7.945 17.531-2.734 3.258-6.888 4.889-10.982 4.544a553 553 0 0 1 5.394-31.137c8.249-4.002 12.843-3.622 13.606-2.98M357.92 172.78c.62.739.936 4.747-2.163 11.845-3.062 7.01-7.785 13.297-10.869 15.885-3.323 2.788-7.768 3.653-11.786 2.521 4.325-11.482 8.68-21.557 12.749-30.165 7.61-1.851 11.485-.782 12.069-.086m-14.613-30.913c.445.271.899.519 1.349.776-8.851 15.454-22.649 42.896-34.461 80.967-16.486 53.134-33.202 141.037-19.216 258.063.47 3.925-.723 7.722-3.357 10.689a13.8 13.8 0 0 1-10.315 4.637c-6.965 0-12.841-5.202-13.669-12.101a808 808 0 0 1-1.831-16.975c13.691-5.664 20.638-21.216 15.522-35.271-2.415-6.634-8.288-15.026-14.964-21.38a56 56 0 0 0-4.102-3.545c-.414-22.907.274-45.628 2.064-67.564.303-3.704.648-7.425 1.014-11.116 12.393-4.575 20.156-17.512 17.783-30.971-1.157-6.565-5.081-15.207-10.12-22.394 4.091-21.548 9.356-42.615 15.678-62.638a497 497 0 0 1 3.452-10.491c14.277-1.19 25.533-13.182 25.533-27.762 0-5.341-1.809-13.999-5.305-22.137 6.085-12.694 11.711-22.727 16.125-29.993a54.94 54.94 0 0 0 18.82 19.206M330.74 92.981a39.75 39.75 0 0 1 3.576-33.888c11.319-18.574 21.516-28.293 25.597-30.353 6.836 5.913 11.832 24.619 14.079 42.419-16.801 5.94-33.172 14.186-43.252 21.822m57.798-26.326c-2.259-16.71-5.818-28.21-9.617-36.116 14.285-11.971 29.464-18.272 35.667-14.49 7.406 4.514 7.711 26.875 1.132 47.04-8.513-.447-18.193 1.214-27.182 3.566"/></svg>