<svg xmlns="http://www.w3.org/2000/svg" width="512" height="512"><path fill="#99d53b" d="m186.148 356.604-34.488-28.939L402.08 29.227c3.552-4.233 9.862-4.785 14.095-1.233l19.16 16.077c4.233 3.552 4.785 9.862 1.233 14.095z"/><path fill="#82b732" d="M436.564 58.166 186.145 356.604l-19.98-16.765L416.583 41.401c3.434-4.093 3.028-10.114-.81-13.727q.204.155.397.32l19.16 16.077a9.995 9.995 0 0 1 1.234 14.095"/><path fill="#2db181" d="m173.13 371.754-34.488-28.939 14.47-17.244c50.893-60.652 109.436-112.786 174.002-154.955 51.934-33.919 93.065-51.48 108.337-57.457l11.646-4.557c5.146-2.013 10.949.526 12.962 5.671l9.114 23.292c2.013 5.146-.526 10.949-5.671 12.962l-11.646 4.557c-13.973 5.467-51.699 21.598-100.124 53.224-60.862 39.749-116.083 88.938-164.132 146.2z"/><path fill="#1ca56f" d="m463.506 150.528-11.646 4.555c-13.98 5.47-51.704 21.602-100.131 53.229-60.855 39.745-116.082 88.939-164.127 146.197l-14.47 17.244-16.248-13.634 22.592-26.924c48.045-57.258 103.272-106.452 164.135-146.19 48.427-31.627 86.152-47.76 100.124-53.236l11.645-4.555a10 10 0 0 0 6.347-8.701l7.447 19.048c2.013 5.151-.533 10.955-5.668 12.967"/><path fill="#bcea73" d="m173.13 371.754-34.488-28.939 14.47-17.244c66.419-79.156 105.37-155.806 126.349-206.169 22.794-54.717 29.915-91.146 29.984-91.508l2.351-12.272c1.038-5.419 6.267-8.974 11.688-7.947l24.541 4.649c5.426 1.028 8.993 6.258 7.969 11.685l-2.315 12.265c-.306 1.619-7.761 40.321-32.049 98.969-22.205 53.623-63.484 135.193-134.03 219.267z"/><path fill="#99d53b" d="m187.602 354.509-14.47 17.244-18.93-15.884 7.942-9.465c70.547-84.074 111.828-165.645 134.03-219.265 24.283-58.652 31.748-97.354 32.047-98.971l2.314-12.268a9.93 9.93 0 0 0-1.342-7.147l18.832 3.565c5.43 1.03 8.992 6.265 7.968 11.688l-2.314 12.268c-.305 1.625-7.764 40.319-32.046 98.971-22.203 53.619-63.484 135.19-134.031 219.264"/><path fill="#ecf8d9" d="M168.449 306.383 58.383 423.51c-18.738 19.94-21.563 50.051-6.861 73.129 6.329 9.936 20.603 10.571 27.79 1.237l124.56-161.769z"/><path fill="#dbf2b4" d="M79.314 497.88c-6.085 7.889-17.252 8.653-24.372 2.679a17.2 17.2 0 0 1-3.425-3.919 59.7 59.7 0 0 1-7.009-15.507c6.506 2.129 14.133.262 18.782-5.776l120.312-156.254 20.271 17.01z"/><path d="m476.158 134.834-9.114-23.293c-3.519-8.988-13.69-13.44-22.679-9.922l-11.647 4.557c-8.024 3.14-23.093 9.44-43.042 19.541l52.637-62.73a17.38 17.38 0 0 0 4.028-12.778 17.39 17.39 0 0 0-6.186-11.883l-19.16-16.077c-3.582-3.006-8.123-4.442-12.777-4.029a17.39 17.39 0 0 0-11.884 6.186l-15.31 18.245a7.5 7.5 0 0 0 .924 10.566 7.5 7.5 0 0 0 10.566-.924l15.31-18.245a2.49 2.49 0 0 1 1.7-.885 2.5 2.5 0 0 1 1.828.576l19.161 16.078c.691.58.851 1.314.885 1.7a2.5 2.5 0 0 1-.576 1.828l-77.286 92.105a732 732 0 0 0-39.052 24.544 772 772 0 0 0 14.076-31.882 746 746 0 0 0 7.292-18.294l33.471-39.888a7.5 7.5 0 0 0-.924-10.566 7.5 7.5 0 0 0-10.566.924l-8.018 9.555c8.041-25.652 11.04-41.153 11.234-42.178l2.314-12.264c1.789-9.478-4.466-18.649-13.943-20.446L324.88.307c-9.458-1.791-18.637 4.444-20.451 13.904l-2.352 12.272c-.068.357-7.168 36.327-29.54 90.035-10.683 25.643-23.33 51.615-37.591 77.196a7.5 7.5 0 0 0 13.101 7.304c14.537-26.076 27.435-52.565 38.335-78.731 23.264-55.845 30.361-92.635 30.427-92.98l2.352-12.271a2.51 2.51 0 0 1 2.927-1.991l24.54 4.648a2.51 2.51 0 0 1 1.995 2.926l-2.313 12.259c-.302 1.593-7.666 39.677-31.609 97.495-19.281 46.561-54.408 117.387-112.708 192.367l-23.021-19.317c18.07-23.31 35.057-47.767 50.527-72.823a7.5 7.5 0 0 0-12.763-7.88 821 821 0 0 1-52.951 75.798c-.28.223-.551.46-.802.728L52.918 418.374c-21.106 22.46-24.28 56.301-7.721 82.295a24.51 24.51 0 0 0 20.653 11.332 24.51 24.51 0 0 0 19.405-9.549l39.69-51.545a7.5 7.5 0 1 0-11.885-9.151L73.37 493.3c-1.913 2.485-4.786 3.841-7.941 3.691-3.133-.139-5.896-1.736-7.581-4.381-12.871-20.204-10.403-46.507 6.002-63.964l105.209-111.96 24.483 20.544-58.38 75.82a7.5 7.5 0 1 0 11.885 9.151l62.768-81.518c.305-.396.974-1.43 1.065-1.531 43.294-48.111 92.064-90.02 144.954-124.562 47.848-31.251 85.002-47.139 98.756-52.519l11.645-4.557c8.988-3.517 13.44-13.691 9.923-22.68m-15.389 8.71-11.645 4.557c-14.187 5.55-52.475 21.915-101.493 53.929-30.947 20.211-60.5 42.901-88.415 67.824 16.455-25.598 30.22-49.928 41.62-72.083.135-.085.271-.166.402-.261a766 766 0 0 1 29.977-20.615 717 717 0 0 1 31.075-19.192l.004-.002c36.326-21.17 64.028-32.916 75.89-37.558l11.647-4.557a2.505 2.505 0 0 1 3.244 1.419l9.114 23.292a2.51 2.51 0 0 1-1.42 3.247"/></svg>