<svg xmlns="http://www.w3.org/2000/svg" width="512" height="512"><path fill="#ffd772" fill-rule="evenodd" d="m145.747 365.829 110.266 19.913 110.236-19.913 7.115-45.383 18.935-120.813L255.998 40.5 119.726 199.633l2.636 16.895 16.044 102.416z" clip-rule="evenodd"/><path fill="#c38c66" fill-rule="evenodd" d="m167.035 152.323 88.977-88.98 123.332 123.364 12.954 12.926 15.477 15.506c7.682 7.682 20.267 7.682 27.949 0s7.653-20.268 0-27.95L256.013 7.5 76.3 187.189c-7.682 7.682-7.682 20.268 0 27.95s20.239 7.682 27.921 0l15.505-15.506z" clip-rule="evenodd"/><path fill="#eff6ff" fill-rule="evenodd" d="M196.43 267.438c0 32.91 26.673 59.556 59.583 59.556 32.881 0 59.554-26.646 59.554-59.556 0-32.882-26.673-59.556-59.554-59.556-32.91 0-59.583 26.674-59.583 59.556" clip-rule="evenodd"/><path fill="#375e7d" fill-rule="evenodd" d="M239.43 176.899h33.165c2.353 0 4.28-1.928 4.28-4.309v-18.85c0-11.48-9.382-20.863-20.862-20.863s-20.891 9.383-20.891 20.863v18.85a4.306 4.306 0 0 0 4.308 4.309" clip-rule="evenodd"/><path fill="#eb5468" fill-rule="evenodd" d="M388.557 405.656c10.941 0 19.899-8.957 19.899-19.899 0-10.97-8.957-19.928-19.899-19.928h-265.09c-10.97 0-19.927 8.958-19.927 19.928 0 10.942 8.957 19.899 19.927 19.899z" clip-rule="evenodd"/><path fill="#ffd772" fill-rule="evenodd" d="M167.205 504.5c9.496 0 17.263-7.767 17.263-17.263v-21.373c0-9.496-7.767-17.263-17.263-17.263s-17.263 7.767-17.263 17.263v21.373c.001 9.496 7.767 17.263 17.263 17.263" clip-rule="evenodd"/><path fill="#95d6a4" fill-rule="evenodd" d="M230.87 479.357c0 13.89 11.253 25.143 25.143 25.143 13.861 0 25.114-11.254 25.114-25.143s-11.253-25.143-25.114-25.143c-13.89-.001-25.143 11.253-25.143 25.143" clip-rule="evenodd"/><path fill="#ffd772" fill-rule="evenodd" d="M344.792 504.5c9.496 0 17.291-7.767 17.291-17.263v-21.373c0-9.496-7.795-17.263-17.291-17.263s-17.263 7.767-17.263 17.263v21.373c0 9.496 7.767 17.263 17.263 17.263" clip-rule="evenodd"/><path fill="#2b4d66" fill-rule="evenodd" d="M256.013 132.877c-11.48 0-20.891 9.383-20.891 20.863v16.158c0-11.48 9.411-20.891 20.891-20.891s20.862 9.411 20.862 20.891V153.74c0-11.48-9.382-20.863-20.862-20.863" clip-rule="evenodd"/><path fill="#d9eeff" fill-rule="evenodd" d="M256.013 207.882c-32.909 0-59.583 26.674-59.583 59.556 0 2.863.227 5.669.595 8.419 4.11-28.913 28.941-51.137 58.988-51.137 30.018 0 54.877 22.224 58.959 51.137a59 59 0 0 0 .595-8.419c0-32.882-26.673-59.556-59.554-59.556" clip-rule="evenodd"/><path fill="#b57f5f" fill-rule="evenodd" d="m241.925 21.56 170.33 170.334c7.37 7.37 7.653 19.276.85 27.014 7.342 3.572 16.526 2.324 22.62-3.77 7.682-7.682 7.653-20.268 0-27.95L256.013 7.5z" clip-rule="evenodd"/><path fill="#e5384f" fill-rule="evenodd" d="M364.719 405.656h23.839c10.941 0 19.899-8.957 19.899-19.899 0-10.97-8.957-19.928-19.899-19.928h-23.952c10.97 0 19.927 8.958 19.927 19.928-.001 10.913-8.901 19.842-19.814 19.899" clip-rule="evenodd"/><path fill="#fbba58" fill-rule="evenodd" d="m256.013 63.343-136.286 136.29 2.636 16.895 1.417 9.043c44.078-44.079 88.155-88.129 132.233-132.208l104.794 104.826c8.532 8.504 6.831 5.981 4.932 18.17l-8.05 51.392-8.277 52.696-7.115 45.383h23.952l7.115-45.383 14.853-94.876 4.082-25.937z" clip-rule="evenodd"/><path fill="#78c2a4" fill-rule="evenodd" d="M256.013 504.5c13.861 0 25.114-11.254 25.114-25.143s-11.253-25.143-25.114-25.143c-3.458 0-6.746.709-9.751 1.956 9.071 3.827 15.42 12.756 15.42 23.187s-6.349 19.389-15.42 23.187a25.35 25.35 0 0 0 9.751 1.956" clip-rule="evenodd"/><path fill="#fbba58" fill-rule="evenodd" d="M159.864 502.856a17.3 17.3 0 0 0 7.342 1.644c9.496 0 17.263-7.767 17.263-17.263v-21.373c0-9.496-7.767-17.263-17.263-17.263-2.608 0-5.102.595-7.342 1.644 5.868 2.778 9.949 8.759 9.949 15.619v21.373c0 6.86-4.082 12.841-9.949 15.619M337.478 502.856a17.1 17.1 0 0 0 7.313 1.644c9.496 0 17.291-7.767 17.291-17.263v-21.373c0-9.496-7.795-17.263-17.291-17.263-2.608 0-5.102.595-7.313 1.644 5.839 2.778 9.921 8.759 9.921 15.619v21.373c0 6.86-4.081 12.841-9.921 15.619" clip-rule="evenodd"/><path d="M244.434 237.543a7.5 7.5 0 1 0-12.332 8.54l17.689 25.546c1.379 2.049 3.768 3.31 6.235 3.31h13.876a7.5 7.5 0 0 0 0-15h-9.96zM227.621 153.74v18.851c0 6.511 5.297 11.809 11.809 11.809h33.165c6.496 0 11.78-5.297 11.78-11.809V153.74c0-15.639-12.723-28.363-28.362-28.363-15.655 0-28.392 12.724-28.392 28.363m15 0c0-7.368 6.007-13.363 13.391-13.363 7.368 0 13.362 5.995 13.362 13.363v15.659h-26.753z"/><path d="M188.93 267.438c0 36.975 30.093 67.056 67.083 67.056 36.974 0 67.054-30.081 67.054-67.056s-30.081-67.056-67.054-67.056c-36.99 0-67.083 30.081-67.083 67.056m119.137 0c0 28.704-23.352 52.056-52.054 52.056-28.719 0-52.083-23.352-52.083-52.056s23.364-52.056 52.083-52.056c28.702 0 52.054 23.352 52.054 52.056"/><path d="M441.027 181.885C371.268 112.153 331.046 71.929 261.316 2.197a7.5 7.5 0 0 0-10.604-.002C212.67 40.209 183.417 69.463 153.37 99.51a7.5 7.5 0 0 0 0 10.606 7.5 7.5 0 0 0 10.606 0c28.634-28.635 56.55-56.551 92.034-92.012a1031269 1031269 0 0 0 174.401 174.377c4.769 4.787 4.769 12.576.01 17.353-4.781 4.781-12.561 4.782-17.342 0L261.316 58.04a7.497 7.497 0 0 0-10.606 0L98.918 209.836c-4.774 4.773-12.541 4.772-17.314 0-4.781-4.782-4.781-12.562 0-17.343a121173 121173 0 0 1 31.194-31.18c8.926-8.919 17.433-17.42 25.696-25.684a7.5 7.5 0 0 0 0-10.606 7.5 7.5 0 0 0-10.606 0c-8.262 8.262-16.768 16.761-25.692 25.68-9.815 9.808-20.137 20.123-31.198 31.184-10.63 10.629-10.63 27.926 0 38.556 10.623 10.623 27.906 10.622 38.527 0l5.074-5.074 22.384 142.961h-13.514c-15.124 0-27.427 12.304-27.427 27.428 0 15.108 12.304 27.399 27.427 27.399h36.237v29.109c-9.998 3.185-17.262 12.558-17.262 23.599v21.373c0 13.654 11.108 24.763 24.762 24.763s24.763-11.109 24.763-24.763v-21.373c0-11.041-7.264-20.414-17.263-23.599v-29.109h73.808v34.437c-14.394 3.399-25.143 16.345-25.143 31.764 0 18 14.644 32.644 32.643 32.644 17.983 0 32.614-14.644 32.614-32.644 0-15.416-10.736-28.361-25.114-31.762v-34.439h73.779v29.109c-9.999 3.185-17.263 12.559-17.263 23.599v21.373c0 13.654 11.108 24.763 24.763 24.763 13.67 0 24.791-11.109 24.791-24.763v-21.373c0-11.044-7.276-20.419-17.291-23.602v-29.106h36.266c15.107 0 27.398-12.292 27.398-27.399 0-15.124-12.291-27.428-27.398-27.428h-13.541l22.404-142.939 5.051 5.052c5.314 5.314 12.292 7.972 19.274 7.971s13.971-2.661 19.292-7.981c10.584-10.626 10.584-27.913-.012-38.548M176.968 465.864v21.373c0 5.383-4.379 9.763-9.763 9.763-5.383 0-9.762-4.38-9.762-9.763v-21.373c0-5.383 4.379-9.763 9.762-9.763s9.763 4.38 9.763 9.763m96.659 13.493c0 9.729-7.902 17.644-17.614 17.644-9.728 0-17.643-7.915-17.643-17.644s7.915-17.643 17.643-17.643c9.712 0 17.614 7.914 17.614 17.643m80.955-13.493v21.373c0 5.383-4.392 9.763-9.791 9.763-5.383 0-9.763-4.38-9.763-9.763v-21.373c0-5.383 4.379-9.763 9.763-9.763 5.399 0 9.791 4.38 9.791 9.763m26.196-241.161h-21.643a7.5 7.5 0 0 0 0 15h19.292l-4.789 30.553h-18.5a7.5 7.5 0 0 0 0 15h16.149l-4.638 29.589h-19.165a7.5 7.5 0 0 0 0 15h16.814l-4.465 28.483h-85.254a7.5 7.5 0 0 0 0 15h113.979c6.836 0 12.398 5.575 12.398 12.428 0 6.837-5.562 12.399-12.398 12.399h-265.09c-6.853 0-12.427-5.562-12.427-12.399 0-6.853 5.575-12.428 12.427-12.428h116.501a7.5 7.5 0 0 0 0-15h-87.804l-4.46-28.483h16.808a7.5 7.5 0 0 0 0-15h-19.156l-4.633-29.589h16.164a7.5 7.5 0 0 0 0-15h-18.512l-4.784-30.553h19.299a7.5 7.5 0 0 0 0-15h-21.648l-3.517-22.463L256.012 73.95l128.284 128.311z"/></svg>