<svg xmlns="http://www.w3.org/2000/svg" width="512" height="512"><path fill="#9fd4fe" fill-rule="evenodd" d="M440.937 36.306h44.133v177.813h-44.133zM26.902 36.306h44.161v177.813H26.902zM26.902 297.881h44.161v177.813H26.902zM440.937 297.881h44.133v167.807h-44.133z" clip-rule="evenodd"/><path fill="#ffd772" fill-rule="evenodd" d="M440.937 307.859h44.133c9.524 0 17.29-7.767 17.29-17.291 0-9.496-7.767-17.291-17.29-17.291h-44.133c-9.524 0-17.29 7.795-17.29 17.291-.001 9.524 7.766 17.291 17.29 17.291" clip-rule="evenodd"/><path fill="#ffd772" fill-rule="evenodd" d="m440.937 273.277 22.081 16.837 22.052-16.837c9.524 0 17.29-7.767 17.29-17.291 0-9.496-8.872-12.841-17.29-17.291l-22.052-11.622-22.081 11.622c-8.418 4.45-17.29 7.795-17.29 17.291-.001 9.524 7.766 17.291 17.29 17.291" clip-rule="evenodd"/><path fill="#ffd772" fill-rule="evenodd" d="M440.937 238.695h44.133c9.524 0 17.29-7.767 17.29-17.291 0-9.496-7.767-17.291-17.29-17.291h-44.133c-9.524 0-17.29 7.795-17.29 17.291-.001 9.524 7.766 17.291 17.29 17.291" clip-rule="evenodd"/><path fill="#c38c66" fill-rule="evenodd" d="M146.999 147.535c8.333 33.108 36.877 61.028 65.987 75.967 13.946 7.115 20.89 19.814 20.89 32.484 1.502 28.913 13.606 34.128 22.109 34.128s20.635-5.159 22.109-34.072c-.028-12.727 6.945-25.426 20.89-32.541 30.216-15.505 59.808-44.956 66.866-79.708-23.526-21.146-74.349-14.825-101.305.68-43.537 25.058-76.842 12.983-117.546 3.062" clip-rule="evenodd"/><path fill="#eff6ff" fill-rule="evenodd" d="M233.877 255.986c0 12.699-6.945 25.398-20.89 32.484-34.609 17.773-68.425 53.885-68.425 95.27v30.698c9.722 2.835 17.546 30.273 20.919 39.741h181.011c3.373-9.467 11.196-36.906 20.919-39.741V383.74c0-41.385-33.816-77.497-68.425-95.27-13.917-7.086-20.89-19.757-20.89-32.428-1.474 28.913-13.606 34.072-22.109 34.072-8.505 0-20.608-5.216-22.11-34.128" clip-rule="evenodd"/><path fill="#c38c66" fill-rule="evenodd" d="M255.986 362.679c-48.753 0-88.493 31.747-90.505 71.516l91.413 14.952 89.598-14.952c-1.985-39.769-41.753-71.516-90.506-71.516" clip-rule="evenodd"/><path fill="#eff6ff" fill-rule="evenodd" d="M267.891 67.798H165.48c-3.373 9.496-11.196 16.922-20.919 19.757v40.704c0 6.576.85 13.011 2.438 19.275 40.703 9.921 74.009 21.996 117.547-3.061 26.956-15.505 77.779-21.826 101.305-.68a78.7 78.7 0 0 0 1.559-15.533V87.555c-9.722-2.835-17.546-10.261-20.919-19.757z" clip-rule="evenodd"/><path fill="#b57f5f" fill-rule="evenodd" d="M345.726 133.305c-8.107 33.391-36.848 61.595-66.157 76.647-13.946 7.086-20.919 19.814-20.89 32.513-1.417 27.467-12.415 33.505-20.805 34.043 4.62 11.112 12.245 13.606 18.112 13.606 8.503 0 20.635-5.159 22.109-34.072-.028-12.727 6.945-25.426 20.89-32.541 30.216-15.505 59.808-44.956 66.866-79.708-5.471-4.903-12.387-8.333-20.125-10.488" clip-rule="evenodd"/><path fill="#d9eeff" fill-rule="evenodd" d="M278.095 256.043c-1.446 27.921-12.784 33.675-21.202 34.043 3.288 4.11 7.625 7.682 13.01 10.431 34.609 17.744 68.425 53.857 68.425 95.242v10.431c4.79 8.589 7.653 18.028 8.163 28.006 3.373-9.496 11.196-16.922 20.919-19.757V383.74c0-41.385-33.816-77.497-68.425-95.27-13.917-7.086-20.89-19.757-20.89-32.427" clip-rule="evenodd"/><path fill="#b57f5f" fill-rule="evenodd" d="M255.986 362.679c-6.746 0-13.322.595-19.643 1.757 39.371 7.172 69.133 35.489 70.862 69.759h39.286c-.51-9.978-3.373-19.417-8.163-28.006-14.314-25.68-45.806-43.51-82.342-43.51" clip-rule="evenodd"/><path fill="#85beef" fill-rule="evenodd" d="M463.018 46.284h22.052v157.829h-22.052zM463.018 307.859h22.052v157.829h-22.052z" clip-rule="evenodd"/><path fill="#d9eeff" fill-rule="evenodd" d="m346.18 77.805.028 39.656c0 5.272-.567 10.46-1.587 15.533.368.085.737.198 1.105.312 7.738 2.154 14.654 5.584 20.125 10.488a78.7 78.7 0 0 0 1.559-15.533V97.562a31.6 31.6 0 0 1-13.974-8.532 31.3 31.3 0 0 1-6.945-11.225z" clip-rule="evenodd"/><path fill="#85beef" fill-rule="evenodd" d="M48.982 46.284h22.081v157.829H48.982zM48.982 297.881v167.807h22.081v-16.27c-.255-1.559-.368-3.146-.368-4.762s.113-3.203.368-4.762V297.881z" clip-rule="evenodd"/><path fill="#ffd772" fill-rule="evenodd" d="m26.902 273.277 18.424 7.257 25.737-7.257c9.496 0 17.29-7.767 17.29-17.291 0-9.496-7.795-17.291-17.29-17.291l-25.737-5.187-18.424 5.187c-9.496 0-17.29 7.795-17.29 17.291-.001 9.524 7.794 17.291 17.29 17.291" clip-rule="evenodd"/><path fill="#ffd772" fill-rule="evenodd" d="M26.902 238.695h44.161c9.496 0 17.29-7.767 17.29-17.291 0-9.496-7.795-17.291-17.29-17.291H26.902c-9.496 0-17.29 7.795-17.29 17.291-.001 9.524 7.794 17.291 17.29 17.291M26.902 307.859h44.161c9.496 0 17.29-7.767 17.29-17.291 0-9.496-7.795-17.291-17.29-17.291H26.902c-9.496 0-17.29 7.795-17.29 17.291-.001 9.524 7.794 17.291 17.29 17.291" clip-rule="evenodd"/><path fill="#fbba58" fill-rule="evenodd" d="M71.063 238.695H26.902c-8.362 0-15.391 6.038-16.979 13.974a17.3 17.3 0 0 1 6.066-1.105H60.15c9.496 0 17.29 7.795 17.29 17.291 0 1.134-.113 2.268-.34 3.345 6.548-2.466 11.253-8.816 11.253-16.214.001-9.496-7.794-17.291-17.29-17.291M71.063 273.277H26.902c-7.143 0-13.294 4.394-15.93 10.601a17.5 17.5 0 0 1 5.612-.935h44.161c9.496 0 17.29 7.795 17.29 17.291 0 2.381-.482 4.62-1.361 6.69 6.774-2.353 11.678-8.787 11.678-16.355.002-9.497-7.793-17.292-17.289-17.292M71.063 204.113H26.902c-8.362 0-15.391 6.038-16.979 13.974a17.3 17.3 0 0 1 6.066-1.105H60.15c9.496 0 17.29 7.795 17.29 17.291 0 1.134-.113 2.268-.34 3.345 6.548-2.466 11.253-8.816 11.253-16.214.001-9.496-7.794-17.291-17.29-17.291M485.07 238.695h-44.133c-8.362 0-15.42 6.038-16.979 13.974a17.3 17.3 0 0 1 6.066-1.105h44.133c9.524 0 17.29 7.795 17.29 17.291 0 1.134-.085 2.268-.312 3.345 6.548-2.466 11.225-8.816 11.225-16.214 0-9.496-7.766-17.291-17.29-17.291M485.07 273.277h-44.133c-7.143 0-13.322 4.394-15.93 10.601a17.5 17.5 0 0 1 5.612-.935h44.161c9.496 0 17.29 7.795 17.29 17.291 0 2.381-.482 4.62-1.361 6.69 6.774-2.353 11.65-8.787 11.65-16.355.001-9.497-7.765-17.292-17.289-17.292M485.07 204.113h-44.133c-8.362 0-15.42 6.038-16.979 13.974a17.3 17.3 0 0 1 6.066-1.105h44.133c9.524 0 17.29 7.795 17.29 17.291 0 1.134-.085 2.268-.312 3.345 6.548-2.466 11.225-8.816 11.225-16.214 0-9.496-7.766-17.291-17.29-17.291" clip-rule="evenodd"/><path fill="#ffd772" fill-rule="evenodd" d="M346.491 77.805c3.373 9.496 11.196 16.922 20.919 19.757a31.9 31.9 0 0 0 8.759 1.247c17.29 0 31.463-14.173 31.463-31.464 0-8.079-3.09-15.477-8.135-21.061L255.986 26.896 112.475 46.284c-5.017 5.584-8.107 12.982-8.107 21.061 0 17.291 14.144 31.464 31.463 31.464 3.033 0 5.952-.454 8.73-1.247 9.722-2.835 17.546-10.261 20.919-19.757h102.41z" clip-rule="evenodd"/><path fill="#fbba58" fill-rule="evenodd" d="M367.41 62.923c0 10.828-5.556 20.437-13.974 26.106a31.63 31.63 0 0 0 13.974 8.532 31.9 31.9 0 0 0 8.759 1.247c17.29 0 31.463-14.173 31.463-31.464 0-8.079-3.09-15.477-8.135-21.061h-36.848c3.004 4.848 4.761 10.546 4.761 16.64" clip-rule="evenodd"/><path fill="#c38c66" fill-rule="evenodd" d="M112.475 46.284h372.594c10.686 0 19.416-8.73 19.416-19.388 0-10.46-8.39-19.048-18.764-19.388H26.25c-10.374.339-18.736 8.928-18.736 19.388 0 10.658 8.73 19.388 19.388 19.388h44.161z" clip-rule="evenodd"/><path fill="#b57f5f" fill-rule="evenodd" d="M441.589 7.507c10.374.34 18.736 8.929 18.736 19.388 0 3.401-.879 6.605-2.438 9.411-3.316 5.953-9.694 9.978-16.95 9.978h44.133c10.686 0 19.416-8.73 19.416-19.388 0-10.46-8.39-19.048-18.764-19.388h-44.133z" clip-rule="evenodd"/><path fill="#ffd772" fill-rule="evenodd" d="m112.475 465.688 149.18 19.417 137.842-19.417c5.045-5.584 8.135-12.954 8.135-21.033 0-17.291-14.172-31.464-31.463-31.464-3.033 0-5.981.454-8.759 1.247-9.722 2.835-17.546 10.261-20.919 19.757H165.48c-3.373-9.496-11.196-16.922-20.919-19.757a30.7 30.7 0 0 0-8.73-1.247c-17.319 0-31.463 14.173-31.463 31.464.001 8.079 3.09 15.449 8.107 21.033" clip-rule="evenodd"/><path fill="#fbba58" fill-rule="evenodd" d="M359.332 418.124c8.759 5.584 14.598 15.42 14.598 26.532 0 8.079-3.061 15.448-8.107 21.033h33.674c5.045-5.584 8.135-12.954 8.135-21.033 0-17.291-14.172-31.464-31.463-31.464-3.033 0-5.981.454-8.759 1.247a31.2 31.2 0 0 0-8.078 3.685" clip-rule="evenodd"/><path fill="#c38c66" fill-rule="evenodd" d="M26.902 504.493H485.07c10.686 0 19.416-8.73 19.416-19.388 0-10.686-8.73-19.417-19.416-19.417H26.902c-10.658 0-19.388 8.73-19.388 19.417 0 10.657 8.73 19.388 19.388 19.388" clip-rule="evenodd"/><path fill="#b57f5f" fill-rule="evenodd" d="M440.937 465.688c10.658 0 19.388 8.73 19.388 19.417 0 10.658-8.73 19.388-19.388 19.388h44.133c10.686 0 19.416-8.73 19.416-19.388 0-10.686-8.73-19.417-19.416-19.417h-22.052z" clip-rule="evenodd"/><path d="M492.577 459.253V314.201c10.015-3.188 17.291-12.576 17.291-23.633 0-6.72-2.691-12.82-7.047-17.291 4.356-4.471 7.047-10.571 7.047-17.291s-2.691-12.82-7.047-17.291c4.356-4.471 7.047-10.571 7.047-17.291 0-11.057-7.276-20.445-17.291-23.633V52.719c11.203-3.256 19.416-13.597 19.416-25.824C511.993 12.065 499.915 0 485.07 0H26.902C12.072 0 .007 12.065.007 26.895c0 12.225 8.201 22.564 19.388 25.822v145.054C9.38 200.959 2.104 210.347 2.104 221.404c0 6.72 2.691 12.82 7.047 17.291-4.356 4.471-7.047 10.571-7.047 17.291s2.691 12.82 7.047 17.291c-4.356 4.471-7.047 10.571-7.047 17.291 0 11.057 7.276 20.445 17.291 23.633v145.055C8.208 462.518.007 472.867.007 485.105.007 499.935 12.072 512 26.902 512H485.07c14.846 0 26.923-12.065 26.923-26.895 0-12.241-8.213-22.593-19.416-25.852m-7.507-158.902h-44.133c-5.394 0-9.783-4.389-9.783-9.784s4.389-9.784 9.783-9.784h44.133c5.395 0 9.784 4.389 9.784 9.784s-4.389 9.784-9.784 9.784m-7.507 15.014V458.18h-29.119V315.365zm-101.394 90.319c-.42 0-.834.031-1.252.044V383.74c0-20.791-7.89-41.919-22.816-61.1-12.816-16.469-30.461-30.976-49.712-40.862-10.511-5.347-16.79-14.981-16.794-25.771-.004-10.802 6.276-20.454 16.816-25.826 19.223-9.856 36.87-24.354 49.69-40.825 14.927-19.177 22.817-40.305 22.817-61.097v-21.988c.418.013.832.044 1.252.044 21.488 0 38.97-17.482 38.97-38.971 0-4.671-.847-9.252-2.452-13.554h20.743v143.98c-10.014 3.189-17.29 12.576-17.29 23.633 0 6.72 2.691 12.82 7.046 17.291-4.356 4.471-7.046 10.571-7.046 17.291s2.691 12.82 7.046 17.291c-4.356 4.471-7.046 10.571-7.046 17.291 0 11.057 7.276 20.445 17.29 23.633v143.98h-20.74a38.7 38.7 0 0 0 2.449-13.525c-.002-21.489-17.483-38.971-38.971-38.971m-112.676-50.275V341.76a7.507 7.507 0 0 0-15.014 0v13.649c-41.762 2.626-76.24 26.991-87.053 59.942a39.2 39.2 0 0 0-9.357-6.077V383.74c0-38.372 32.318-72.145 64.321-88.579 6.466-3.289 11.834-7.731 15.934-12.963 4.504 8.794 10.761 12.674 16.155 14.312v13.843a7.507 7.507 0 0 0 15.014 0v-13.76c5.69-1.63 11.856-5.565 16.252-14.269 4.083 5.174 9.409 9.568 15.811 12.824 32.029 16.448 64.347 50.22 64.347 88.592v25.54a39.2 39.2 0 0 0-9.348 6.067c-10.798-32.95-45.278-57.314-87.062-59.938m74.518 71.279H173.967c6.312-32.251 40.615-56.502 82.019-56.502 41.43 0 75.735 24.252 82.025 56.502M99.307 458.18H78.57V314.2c10.014-3.189 17.29-12.576 17.29-23.633 0-6.72-2.691-12.82-7.046-17.291 4.356-4.471 7.046-10.571 7.046-17.291s-2.691-12.82-7.046-17.291c4.356-4.471 7.046-10.571 7.046-17.291 0-11.057-7.276-20.445-17.29-23.633V53.791h20.74a38.8 38.8 0 0 0-2.448 13.554c0 21.488 17.482 38.971 38.97 38.971.41 0 .815-.03 1.223-.043v21.987c0 20.792 7.89 41.92 22.817 61.097 12.82 16.471 30.467 30.969 49.706 40.833 10.524 5.363 16.803 15.015 16.799 25.817-.004 10.79-6.283 20.424-16.82 25.785-19.225 9.873-36.87 24.379-49.686 40.848-14.927 19.181-22.816 40.309-22.816 61.1v21.987c-.408-.013-.813-.043-1.223-.043-21.488 0-38.97 17.482-38.97 38.971 0 4.656.844 9.228 2.445 13.525M34.409 53.791h29.148v142.815H34.409zm282.074 69.091c-19.929.861-40.743 6.499-55.682 15.085-36.895 21.234-65.14 14.094-100.901 5.053q-3.255-.823-6.568-1.651c-.814-4.296-1.264-8.67-1.264-13.109v-25.537c7.754-3.583 14.259-9.657 18.307-17.411h171.221c4.047 7.749 10.551 13.821 18.306 17.404v25.544c0 .847-.035 1.688-.066 2.53-11.526-5.859-26.429-8.636-43.353-7.908m40.938 23.843c-8.132 30.531-35.088 56.369-61.845 70.088-15.614 7.959-24.946 22.555-24.991 39.064-.651 12.248-3.722 26.73-14.6 26.73s-13.95-14.584-14.605-26.879c-.101-16.447-9.419-30.98-24.97-38.906-23.356-11.975-46.85-33.173-57.868-58.659 17.689 4.464 34.942 8.636 52.993 8.636 17.759 0 36.291-4.041 56.751-15.816 12.753-7.33 31.47-12.35 48.844-13.1 16.851-.733 30.926 2.391 40.291 8.842m120.142-92.934v142.815h-29.119V53.791zm7.507 211.979h-44.133c-5.394 0-9.783-4.389-9.783-9.784s4.389-9.784 9.783-9.784h44.133c5.395 0 9.784 4.389 9.784 9.784s-4.389 9.784-9.784 9.784m9.784-44.366c0 5.395-4.389 9.784-9.784 9.784h-44.133c-5.394 0-9.783-4.389-9.783-9.784s4.389-9.784 9.783-9.784h44.133c5.395 0 9.784 4.389 9.784 9.784M15.021 26.895c0-6.552 5.33-11.881 11.881-11.881H485.07c6.567 0 11.909 5.33 11.909 11.881s-5.342 11.882-11.909 11.882H271.916a7.507 7.507 0 0 0 0 15.014h123.94c2.756 3.983 4.268 8.687 4.268 13.554 0 13.21-10.746 23.957-23.956 23.957-10.113 0-19.197-6.435-22.605-16.014a7.51 7.51 0 0 0-7.073-4.991H165.48a7.51 7.51 0 0 0-7.073 4.991c-3.408 9.578-12.48 16.014-22.576 16.014-13.209 0-23.956-10.747-23.956-23.957 0-4.859 1.507-9.563 4.252-13.554h123.134a7.507 7.507 0 0 0 0-15.014H26.902c-6.551 0-11.881-5.33-11.881-11.882M26.902 211.62h44.162c5.394 0 9.783 4.389 9.783 9.784s-4.389 9.784-9.783 9.784H26.902c-5.395 0-9.784-4.389-9.784-9.784s4.389-9.784 9.784-9.784m0 34.582h44.162c5.394 0 9.783 4.389 9.783 9.784s-4.389 9.784-9.783 9.784H26.902c-5.395 0-9.784-4.389-9.784-9.784s4.389-9.784 9.784-9.784m-9.784 44.366c0-5.395 4.389-9.784 9.784-9.784h44.162c5.394 0 9.783 4.389 9.783 9.784s-4.389 9.784-9.783 9.784H26.902c-5.395-.001-9.784-4.39-9.784-9.784m46.438 24.797V458.18H34.409V315.365zM485.07 496.986H26.902c-6.551 0-11.881-5.33-11.881-11.881 0-6.567 5.33-11.91 11.881-11.91h210.405a7.507 7.507 0 0 0 0-15.014h-121.18c-2.745-3.987-4.252-8.682-4.252-13.525 0-13.21 10.746-23.957 23.956-23.957 10.104 0 19.176 6.433 22.574 16.008 1.104 2.943 3.902 4.996 7.075 4.996h181.011c3.085 0 6.087-2.034 7.075-4.996 3.399-9.575 12.482-16.008 22.603-16.008 13.209 0 23.956 10.747 23.956 23.957 0 4.851-1.512 9.546-4.267 13.525H271.916a7.507 7.507 0 0 0 0 15.014H485.07c6.567 0 11.909 5.343 11.909 11.91 0 6.551-5.342 11.881-11.909 11.881"/></svg>