<svg xmlns="http://www.w3.org/2000/svg" width="512" height="512"><path fill="#eff6ff" fill-rule="evenodd" d="M45.173 504.5h421.655c15.307 0 27.808-12.529 27.808-27.836V171.57h-477.3v305.094c0 15.307 12.529 27.836 27.837 27.836" clip-rule="evenodd"/><path fill="#9fd4fe" fill-rule="evenodd" d="M17.336 171.57h477.299c5.357 0 9.751-4.309 9.865-9.609v-26.788H7.5v26.731c.085 5.357 4.479 9.666 9.836 9.666" clip-rule="evenodd"/><path fill="#eb5468" fill-rule="evenodd" d="M7.5 135.173h497V67.198c-.113-5.301-4.507-9.609-9.865-9.609h-41.244v20.693c0 12.416-10.176 22.592-22.592 22.592s-22.592-10.176-22.592-22.592V57.588h-71.348v20.693c0 12.416-10.176 22.592-22.592 22.592-12.444 0-22.592-10.176-22.592-22.592V57.588h-71.348v20.693c0 12.416-10.176 22.592-22.592 22.592-12.444 0-22.592-10.176-22.592-22.592V57.588h-71.348v20.693c0 12.416-10.176 22.592-22.592 22.592-12.444 0-22.621-10.176-22.621-22.592V57.588H17.336c-5.357 0-9.751 4.337-9.836 9.666v.17z" clip-rule="evenodd"/><path fill="#d9eeff" fill-rule="evenodd" d="M312.452 171.57c82.829 90.17 85.55 238.848 7.597 332.93h146.778c15.307 0 27.808-12.529 27.808-27.836V171.57z" clip-rule="evenodd"/><path fill="#e5384f" fill-rule="evenodd" d="M363.788 57.588c13.153 23.273 24.576 49.351 33.987 77.584H504.5V67.198c-.113-5.301-4.507-9.609-9.865-9.609h-41.244v20.693c0 12.416-10.176 22.592-22.592 22.592s-22.592-10.176-22.592-22.592V57.588z" clip-rule="evenodd"/><path fill="#85beef" fill-rule="evenodd" d="M397.775 135.173c3.912 11.764 7.455 23.924 10.63 36.397h86.23c5.357 0 9.751-4.309 9.865-9.609v-26.788z" clip-rule="evenodd"/><path fill="#95d6a4" fill-rule="evenodd" d="M78.451 315.967h66.303c9.326 0 16.98-7.625 16.98-16.98v-66.303c0-9.326-7.654-16.98-16.98-16.98H78.451c-9.354 0-16.98 7.654-16.98 16.98v66.303c.001 9.355 7.626 16.98 16.98 16.98M205.869 298.988c0 9.354 7.625 16.98 16.98 16.98h66.303c9.326 0 16.98-7.625 16.98-16.98v-66.303c0-9.326-7.654-16.98-16.98-16.98h-66.303c-9.354 0-16.98 7.654-16.98 16.98z" clip-rule="evenodd"/><path fill="#ffd772" fill-rule="evenodd" d="m400.383 302.729 32.939 16.413c1.672.822 2.579.17 2.296-1.672l-5.017-33.647a5.64 5.64 0 0 1 1.531-4.734l23.839-24.265c1.304-1.304.935-2.381-.879-2.693l-33.562-5.613a5.58 5.58 0 0 1-3.997-2.92L401.8 213.409c-.85-1.616-1.984-1.616-2.835 0l-15.704 30.189a5.63 5.63 0 0 1-4.025 2.92l-33.534 5.613c-1.843.312-2.183 1.389-.879 2.693l23.839 24.265a5.64 5.64 0 0 1 1.531 4.734l-5.017 33.647c-.283 1.843.624 2.494 2.296 1.672z" clip-rule="evenodd"/><path fill="#95d6a4" fill-rule="evenodd" d="M78.451 460.364h66.303c9.326 0 16.98-7.625 16.98-16.98v-66.303c0-9.326-7.654-16.98-16.98-16.98H78.451c-9.354 0-16.98 7.654-16.98 16.98v66.303c.001 9.355 7.626 16.98 16.98 16.98" clip-rule="evenodd"/><path fill="#ffd772" fill-rule="evenodd" d="m223.075 463.539 32.91-16.413 32.939 16.413c1.672.822 2.58.17 2.296-1.672l-5.017-33.647a5.64 5.64 0 0 1 1.531-4.734l23.839-24.265c1.304-1.332.964-2.381-.879-2.693l-33.562-5.613a5.58 5.58 0 0 1-3.997-2.92l-15.732-30.189c-.85-1.616-1.984-1.616-2.835 0l-15.704 30.189a5.63 5.63 0 0 1-4.025 2.92l-33.534 5.613c-1.843.312-2.183 1.361-.879 2.693l23.839 24.265a5.64 5.64 0 0 1 1.531 4.734l-5.017 33.647c-.283 1.842.624 2.494 2.296 1.672" clip-rule="evenodd"/><path fill="#95d6a4" fill-rule="evenodd" d="M367.246 460.364h66.303c9.326 0 16.98-7.625 16.98-16.98v-66.303c0-9.326-7.654-16.98-16.98-16.98h-66.303c-9.354 0-16.98 7.654-16.98 16.98v66.303c0 9.355 7.626 16.98 16.98 16.98" clip-rule="evenodd"/><path fill="#ffd772" fill-rule="evenodd" d="M58.58 78.281c0 12.416 10.176 22.592 22.621 22.592 12.416 0 22.592-10.176 22.592-22.592V30.092c0-12.444-10.176-22.592-22.592-22.592-12.444 0-22.621 10.148-22.621 22.592v27.496zM175.141 78.281c0 12.416 10.148 22.592 22.592 22.592 12.416 0 22.592-10.176 22.592-22.592V30.092c0-12.444-10.176-22.592-22.592-22.592-12.444 0-22.592 10.148-22.592 22.592v27.496zM291.674 78.281c0 12.416 10.148 22.592 22.592 22.592 12.416 0 22.592-10.176 22.592-22.592V30.092c0-12.444-10.176-22.592-22.592-22.592-12.444 0-22.592 10.148-22.592 22.592v27.496zM408.207 30.092v48.189c0 12.416 10.176 22.592 22.592 22.592s22.592-10.176 22.592-22.592V30.092c0-12.444-10.176-22.592-22.592-22.592s-22.592 10.148-22.592 22.592" clip-rule="evenodd"/><path fill="#78c2a4" fill-rule="evenodd" d="M108.329 215.705c10.63 17.263 16.923 38.523 16.923 61.484 0 13.72-2.239 26.787-6.293 38.778h25.795c9.326 0 16.98-7.625 16.98-16.98v-66.303c0-9.326-7.654-16.98-16.98-16.98z" clip-rule="evenodd"/><path fill="#fbba58" fill-rule="evenodd" d="M393.495 223.926c6.69 14.684 10.46 31.493 10.46 49.323 0 10.233-1.247 20.126-3.572 29.48l32.939 16.413c1.672.822 2.579.17 2.296-1.672l-5.017-33.647a5.64 5.64 0 0 1 1.531-4.734l23.839-24.265c1.304-1.304.935-2.381-.879-2.693l-33.562-5.613a5.58 5.58 0 0 1-3.997-2.92L401.8 213.409c-.85-1.616-1.984-1.616-2.835 0zM249.098 368.323c6.69 14.684 10.46 31.493 10.46 49.323 0 10.233-1.247 20.126-3.572 29.48l32.939 16.413c1.672.822 2.58.17 2.296-1.672l-5.017-33.647a5.64 5.64 0 0 1 1.531-4.734l23.839-24.265c1.304-1.332.964-2.381-.879-2.693l-33.562-5.613a5.58 5.58 0 0 1-3.997-2.92l-15.732-30.189c-.85-1.616-1.984-1.616-2.835 0z" clip-rule="evenodd"/><path fill="#78c2a4" fill-rule="evenodd" d="M252.726 215.705c10.63 17.263 16.923 38.523 16.923 61.484 0 13.72-2.239 26.787-6.293 38.778h25.795c9.326 0 16.98-7.625 16.98-16.98v-66.303c0-9.326-7.654-16.98-16.98-16.98zM108.329 360.103c10.63 17.263 16.923 38.495 16.923 61.484 0 13.72-2.239 26.788-6.293 38.778h25.795c9.326 0 16.98-7.625 16.98-16.98v-66.303c0-9.326-7.654-16.98-16.98-16.98h-36.425zM397.123 360.103c10.63 17.263 16.895 38.495 16.895 61.484 0 13.72-2.211 26.788-6.265 38.778h25.795c9.326 0 16.98-7.625 16.98-16.98v-66.303c0-9.326-7.654-16.98-16.98-16.98h-36.425z" clip-rule="evenodd"/><path fill="#fbba58" fill-rule="evenodd" d="M198.131 30.092v48.189c0 8.391-4.649 15.761-11.509 19.644a22.4 22.4 0 0 0 11.112 2.948c12.416 0 22.592-10.176 22.592-22.592V30.092c0-12.444-10.176-22.592-22.592-22.592a22.4 22.4 0 0 0-11.112 2.92c6.86 3.883 11.509 11.253 11.509 19.672M81.598 30.092v48.189c0 8.391-4.649 15.761-11.509 19.644a22.4 22.4 0 0 0 11.112 2.948c12.416 0 22.592-10.176 22.592-22.592V30.092c0-12.444-10.176-22.592-22.592-22.592a22.4 22.4 0 0 0-11.112 2.92c6.86 3.883 11.509 11.253 11.509 19.672M314.663 30.092v48.189c0 8.391-4.649 15.761-11.48 19.644a22.24 22.24 0 0 0 11.083 2.948c12.416 0 22.592-10.176 22.592-22.592V30.092c0-12.444-10.176-22.592-22.592-22.592a22.4 22.4 0 0 0-11.112 2.92c6.86 3.883 11.509 11.253 11.509 19.672M431.196 30.092v48.189c0 8.391-4.649 15.761-11.48 19.644a22.24 22.24 0 0 0 11.083 2.948c12.416 0 22.592-10.176 22.592-22.592V30.092c0-12.444-10.176-22.592-22.592-22.592-4.025 0-7.824 1.049-11.083 2.92 6.831 3.883 11.48 11.253 11.48 19.672" clip-rule="evenodd"/><path d="M78.451 323.467h66.303c13.498 0 24.479-10.981 24.479-24.48v-66.302c0-13.498-10.981-24.479-24.479-24.479H78.451c-13.498 0-24.479 10.981-24.479 24.479v66.302c0 13.499 10.981 24.48 24.479 24.48m-9.479-90.782c0-5.227 4.252-9.479 9.479-9.479h66.303c5.227 0 9.479 4.252 9.479 9.479v66.302c0 5.227-4.252 9.48-9.479 9.48H78.451c-5.227 0-9.479-4.253-9.479-9.48zM222.849 323.467h66.303c13.498 0 24.479-10.981 24.479-24.48v-66.302c0-13.498-10.981-24.479-24.479-24.479h-66.303c-13.498 0-24.479 10.981-24.479 24.479v66.302c-.001 13.499 10.981 24.48 24.479 24.48m-9.48-90.782c0-5.227 4.252-9.479 9.479-9.479h66.303c5.227 0 9.479 4.252 9.479 9.479v66.302c0 5.227-4.253 9.48-9.479 9.48h-66.303c-5.227 0-9.479-4.253-9.479-9.48zM367.246 352.603c-13.498 0-24.479 10.981-24.479 24.479v66.303c0 13.498 10.981 24.479 24.479 24.479h66.303c13.498 0 24.479-10.981 24.479-24.479v-66.303c0-13.498-10.981-24.479-24.479-24.479zm75.782 24.479v66.303c0 5.227-4.253 9.479-9.479 9.479h-66.303c-5.227 0-9.479-4.252-9.479-9.479v-66.303c0-5.227 4.253-9.479 9.479-9.479h66.303c5.226 0 9.479 4.252 9.479 9.479M53.972 443.385c0 13.498 10.981 24.479 24.479 24.479h66.303c13.498 0 24.479-10.981 24.479-24.479v-66.303c0-13.498-10.981-24.479-24.479-24.479H78.451c-13.498 0-24.479 10.981-24.479 24.479zm15-66.303c0-5.227 4.252-9.479 9.479-9.479h66.303c5.227 0 9.479 4.252 9.479 9.479v66.303c0 5.227-4.252 9.479-9.479 9.479H78.451c-5.227 0-9.479-4.252-9.479-9.479zM192.553 395.175c-.493 1.518-1.235 5.462 2.524 9.301l7.793 7.939c5.124 5.221 10.251 10.446 15.369 15.639l-4.873 32.673c-.814 5.298 2.097 8.071 3.386 9.018 1.291.947 4.812 2.894 9.671.506l29.564-14.744 29.628 14.762c1.687.83 3.214 1.13 4.543 1.13a8.67 8.67 0 0 0 5.089-1.653c1.29-.946 4.201-3.72 3.392-8.985l-4.878-32.708 23.173-23.586c3.749-3.831 3.007-7.774 2.513-9.292-.493-1.518-2.211-5.146-7.513-6.043a95841 95841 0 0 0-32.589-5.45l-15.305-29.368c-1.721-3.268-4.731-5.218-8.054-5.218s-6.334 1.951-8.076 5.261c-5.066 9.773-10.159 19.547-15.251 29.321l-32.605 5.457c-5.29.894-7.008 4.522-7.501 6.04m43.52 3.138c4.037-.673 7.569-3.24 9.443-6.852l.267-.512c3.409-6.543 6.818-13.084 10.213-19.615l10.481 20.111c1.88 3.63 5.402 6.198 9.42 6.868l22.38 3.741-15.904 16.188a13.15 13.15 0 0 0-3.587 11.083l3.348 22.451-22.802-11.362a7.5 7.5 0 0 0-6.692.002l-22.771 11.356 3.346-22.44c.604-4.028-.736-8.172-3.607-11.111a8944 8944 0 0 1-15.888-16.165zM463.852 250.843c-1.015-3.191-3.814-5.473-7.523-6.11l-32.586-5.449-15.305-29.369c-1.721-3.268-4.731-5.218-8.055-5.218-3.322 0-6.333 1.951-8.076 5.261-5.063 9.77-10.154 19.54-15.251 29.321l-32.603 5.457c-3.688.624-6.497 2.901-7.516 6.093-1.018 3.188-.052 6.665 2.536 9.251l7.835 7.981c5.109 5.207 10.223 10.417 15.327 15.597l-4.872 32.672c-.814 5.298 2.097 8.071 3.386 9.018s4.812 2.895 9.67.505l29.565-14.744 29.629 14.763c1.687.829 3.213 1.129 4.542 1.129a8.67 8.67 0 0 0 5.09-1.654c1.289-.947 4.2-3.72 3.391-8.984l-4.878-32.709 23.117-23.529c2.626-2.626 3.589-6.096 2.577-9.282m-37.085 23.003a13.15 13.15 0 0 0-3.584 11.082l3.348 22.451-22.803-11.362a7.5 7.5 0 0 0-6.692.002l-22.771 11.355 3.346-22.44c.604-4.028-.736-8.173-3.607-11.111a9290 9290 0 0 1-15.888-16.165l22.354-3.742c4.037-.673 7.569-3.24 9.443-6.852 3.498-6.713 6.997-13.426 10.48-20.127l10.48 20.111a13.1 13.1 0 0 0 9.419 6.868l22.379 3.742z"/><path d="M494.636 50.088h-33.744V30.092C460.892 13.5 447.392 0 430.799 0s-30.092 13.5-30.092 30.092v19.996h-56.349V30.092C344.358 13.5 330.859 0 314.267 0s-30.093 13.5-30.093 30.092v19.996h-56.348V30.092C227.826 13.5 214.327 0 197.734 0s-30.092 13.5-30.092 30.092v19.996h-56.348V30.092C111.293 13.5 97.794 0 81.201 0c-16.608 0-30.12 13.5-30.12 30.092v19.996H17.336C7.777 50.088 0 57.865 0 67.425v94.309c0 6.871 4.027 12.803 9.836 15.606v126.722a7.5 7.5 0 0 0 15 0V179.07h213.688a7.5 7.5 0 0 0 0-15H17.336C16.07 164.07 15 163 15 161.733v-19.061h482v19.061c0 1.288-1.061 2.336-2.364 2.336h-221.5c-4.143 0-7.5 3.358-7.5 7.5s3.357 7.5 7.5 7.5h214v297.594c0 11.213-9.11 20.336-20.309 20.336H45.172c-11.213 0-20.336-9.123-20.336-20.336v-137.99a7.5 7.5 0 0 0-15 0v137.991C9.836 496.148 25.688 512 45.172 512h421.655c19.47 0 35.309-15.852 35.309-35.336V177.345c5.825-2.801 9.864-8.737 9.864-15.612V67.425c0-9.56-7.79-17.337-17.364-17.337m-78.929-19.996c0-8.322 6.771-15.092 15.092-15.092s15.093 6.771 15.093 15.092v48.189c0 8.322-6.771 15.092-15.093 15.092s-15.092-6.771-15.092-15.092zm-116.533 0c0-8.322 6.771-15.092 15.093-15.092s15.092 6.771 15.092 15.092v48.189c0 8.322-6.771 15.092-15.092 15.092s-15.093-6.771-15.093-15.092zm-116.532 0c0-8.322 6.771-15.092 15.092-15.092s15.092 6.771 15.092 15.092v48.189c0 8.322-6.77 15.092-15.092 15.092s-15.092-6.771-15.092-15.092zm-116.561 0c0-8.321 6.783-15.092 15.12-15.092 8.322 0 15.092 6.771 15.092 15.092v48.189c0 8.322-6.771 15.092-15.092 15.092-8.337 0-15.121-6.771-15.121-15.092V30.092zM15 127.673V67.425c0-1.267 1.07-2.336 2.336-2.336H51.08v13.193c0 16.593 13.512 30.092 30.121 30.092 16.593 0 30.092-13.5 30.092-30.092V65.088h56.348v13.193c0 16.593 13.5 30.092 30.092 30.092s30.092-13.5 30.092-30.092V65.088h56.348v13.193c0 16.593 13.5 30.092 30.093 30.092s30.092-13.5 30.092-30.092V65.088h56.349v13.193c0 16.593 13.499 30.092 30.092 30.092s30.093-13.5 30.093-30.092V65.088h33.744c1.304 0 2.364 1.048 2.364 2.336v60.248H15z"/></svg>