<svg xmlns="http://www.w3.org/2000/svg" width="512" height="512"><path fill="#eb5468" fill-rule="evenodd" d="M7.5 108.442h41.981V292.95H7.5z" clip-rule="evenodd"/><path fill="#b57f5f" fill-rule="evenodd" d="M7.5 108.442h41.981V57.929c0-4.649 3.798-8.447 8.447-8.447h57.062V7.5H77.686C39.078 7.5 7.5 39.078 7.5 77.686z" clip-rule="evenodd"/><path fill="#eb5468" fill-rule="evenodd" d="M114.99 7.5h184.508v41.981H114.99z" clip-rule="evenodd"/><path fill="#b57f5f" fill-rule="evenodd" d="M365.007 57.929v50.514h42.01V77.686c0-38.608-31.606-70.186-70.214-70.186h-37.304v41.981h57.062c4.647 0 8.446 3.799 8.446 8.448" clip-rule="evenodd"/><path fill="#e5384f" fill-rule="evenodd" d="M365.007 108.442v125.122C368.989 256 371.001 256 372.333 256c13.181 0 28.744 15.302 34.683-17.107V108.442z" clip-rule="evenodd"/><path fill="#b57f5f" fill-rule="evenodd" d="M7.5 336.802c0 38.608 31.578 70.214 70.186 70.214h37.304v-42.01H57.929c-4.649 0-8.447-3.798-8.447-8.447v-63.61H7.5z" clip-rule="evenodd"/><path fill="#eb5468" fill-rule="evenodd" d="M114.99 407.016h123.903c25.107 0 25.774-25.683 15.107-38.013-.872-1.008-3.667-3.997-20.436-3.997H114.99z" clip-rule="evenodd"/><path fill="#eff6ff" fill-rule="evenodd" d="M114.99 365.007h118.574C333.684 373 368.989 292.95 365.007 233.564V57.929c0-4.649-3.798-8.447-8.447-8.447H57.929c-4.649 0-8.447 3.798-8.447 8.447V356.56c0 4.649 3.798 8.447 8.447 8.447z" clip-rule="evenodd"/><path fill="#95d6a4" fill-rule="evenodd" d="M238.893 407.016c16.413 56.183 68.202 97.257 129.629 97.484h.964c74.608-.283 135.015-60.832 135.015-135.497 0-61.654-41.159-113.67-97.484-130.111-12.076-3.515-24.832-5.386-38.013-5.386-1.332 0-2.665.028-3.997.057-71.66 2.069-129.374 59.783-131.443 131.443-.028 1.332-.057 2.665-.057 3.997 0 13.182 1.871 25.938 5.386 38.013" clip-rule="evenodd"/><path fill="#eff6ff" fill-rule="evenodd" d="M369.004 471.788c56.608 0 102.785-46.177 102.785-102.785 0-56.636-46.177-102.813-102.785-102.813-56.636 0-102.813 46.177-102.813 102.813 0 56.609 46.176 102.785 102.813 102.785" clip-rule="evenodd"/><path fill="#d9eeff" fill-rule="evenodd" d="M299.498 49.481h-53.632c17.575 61.512 28.205 138.615 28.63 222.407 23.528-22.876 55.332-37.304 90.51-38.325V57.929c0-4.649-3.798-8.447-8.447-8.447h-57.061z" clip-rule="evenodd"/><path fill="#e5384f" fill-rule="evenodd" d="M245.866 49.481h53.632V7.5h-67.635c5.046 12.983 9.723 27.014 14.003 41.981" clip-rule="evenodd"/><path fill="#d9eeff" fill-rule="evenodd" d="M347.12 268.543c41.584 13.153 71.745 52.073 71.745 98.022 0 49.266-34.639 90.425-80.901 100.46 9.78 3.118 20.211 4.762 31.039 4.762 56.778 0 102.785-46.006 102.785-102.785s-46.006-102.813-102.785-102.813c-7.511.002-14.853.824-21.883 2.354" clip-rule="evenodd"/><path fill="#78c2a4" fill-rule="evenodd" d="M344.455 235.718c24.661 6.633 46.517 20.041 63.468 38.098 37.474 15.364 63.865 52.186 63.865 95.188 0 45.95-30.132 84.841-71.717 98.022-18.284 16.554-41.103 28.205-66.388 32.825a137 137 0 0 0 34.838 4.649h.964c74.608-.283 135.015-60.832 135.015-135.497 0-61.654-41.159-113.67-97.484-130.111-12.076-3.515-24.832-5.386-38.013-5.386-1.332 0-2.665.028-3.997.057-7.001.199-13.861.936-20.551 2.155" clip-rule="evenodd"/><path d="M326.994 199.758h-20.467c-4.143 0-7.5 3.358-7.5 7.5s3.357 7.5 7.5 7.5h20.467c4.143 0 7.5-3.358 7.5-7.5s-3.357-7.5-7.5-7.5M107.96 199.758H87.494c-4.143 0-7.5 3.358-7.5 7.5s3.357 7.5 7.5 7.5h20.466c4.143 0 7.5-3.358 7.5-7.5s-3.357-7.5-7.5-7.5M207.258 115.46a7.5 7.5 0 0 0 7.5-7.5V87.494c0-4.142-3.357-7.5-7.5-7.5s-7.5 3.358-7.5 7.5v20.466a7.5 7.5 0 0 0 7.5 7.5M207.258 299.028a7.5 7.5 0 0 0-7.5 7.5v20.466c0 4.142 3.357 7.5 7.5 7.5s7.5-3.358 7.5-7.5v-20.466a7.5 7.5 0 0 0-7.5-7.5M127.862 117.255a7.5 7.5 0 0 0-10.607 10.606l14.485 14.485c1.465 1.464 3.385 2.197 5.304 2.197s3.839-.732 5.304-2.197a7.5 7.5 0 0 0 0-10.606zM131.741 272.141l-14.485 14.485a7.5 7.5 0 0 0-.001 10.606 7.48 7.48 0 0 0 5.304 2.197 7.47 7.47 0 0 0 5.303-2.197l14.485-14.485a7.5 7.5 0 1 0-10.606-10.606M297.233 117.255a7.5 7.5 0 0 0-10.607 0l-14.485 14.485a7.5 7.5 0 0 0 5.304 12.803 7.48 7.48 0 0 0 5.304-2.197l14.485-14.485a7.5 7.5 0 0 0-.001-10.606M256.694 199.758h-23.177c-3.268-11.425-13.799-19.814-26.259-19.814-1.259 0-2.496.093-3.71.259l-21.768-52.197a7.5 7.5 0 1 0-13.844 5.773l21.883 52.474c-6.029 5.014-9.875 12.568-9.875 21.005 0 15.061 12.253 27.314 27.313 27.314 12.46 0 22.991-8.389 26.259-19.814h23.177c4.143 0 7.5-3.358 7.5-7.5s-3.356-7.5-7.499-7.5m-49.436 19.814c-6.79 0-12.313-5.524-12.313-12.314s5.523-12.314 12.313-12.314 12.314 5.524 12.314 12.314-5.524 12.314-12.314 12.314M369.004 258.69c-60.827 0-110.313 49.486-110.313 110.313 0 60.811 49.486 110.285 110.313 110.285 60.811 0 110.284-49.474 110.284-110.285 0-60.826-49.474-110.313-110.284-110.313m0 205.598c-52.556 0-95.313-42.745-95.313-95.285 0-52.556 42.758-95.313 95.313-95.313 52.54 0 95.284 42.757 95.284 95.313 0 52.54-42.744 95.285-95.284 95.285"/><path d="M489.499 291.965a7.501 7.501 0 0 0-12.631 8.092C490.039 320.614 497 344.456 497 369.003 497 439.581 439.581 497 369.004 497c-70.578 0-127.997-57.419-127.997-127.997s57.419-127.997 127.997-127.997c12.213 0 24.209 1.721 35.687 5.042q.115.037.232.07c19.011 5.541 36.595 15.475 51.373 29.267a7.5 7.5 0 0 0 10.235-10.966c-15.108-14.1-32.839-24.587-52.014-31.012V77.686C414.517 34.85 379.654 0 336.802 0H77.687C34.85 0 0 34.85 0 77.686v259.116c0 42.852 34.85 77.714 77.687 77.714h155.748C252.487 471.12 306.06 512 369.004 512 447.853 512 512 447.852 512 369.003c0-27.421-7.781-54.061-22.501-77.038M226.47 357.507H57.929a.97.97 0 0 1-.947-.947V213.268c0-4.142-3.357-7.5-7.5-7.5s-7.5 3.358-7.5 7.5v72.182H15V115.942h26.981v62.714c0 4.142 3.357 7.5 7.5 7.5s7.5-3.358 7.5-7.5V57.929c0-.504.442-.947.947-.947H356.56c.505 0 .947.443.947.947V226.47c-69.7 5.572-125.465 61.337-131.037 131.037M122.49 41.981V15h169.508v26.981zM372.507 226.05V115.942h27.01v113.335a143.6 143.6 0 0 0-27.01-3.227m27.01-148.364v23.256h-27.01V57.929c0-8.793-7.154-15.947-15.947-15.947h-49.562V15h29.804c34.581 0 62.715 28.121 62.715 62.686M77.687 15h29.804v26.981H57.929c-8.793 0-15.947 7.154-15.947 15.947v43.013H15V77.686C15 43.121 43.121 15 77.687 15M15 336.802V300.45h26.981v56.11c0 8.793 7.154 15.947 15.947 15.947h49.562v27.009H77.687C43.121 399.516 15 371.382 15 336.802m107.49 62.714v-27.009h103.561a142.7 142.7 0 0 0 3.244 27.009z"/><path d="M424.875 373.21h-2.146c.11-18.45.174-38.573-.049-41.31-.488-5.622-3.844-10.188-8.549-11.633-4.652-1.43-9.623.419-13.292 4.93-4.375 5.357-25.862 44.164-30.125 51.889a7.502 7.502 0 0 0 6.566 11.124h30.347c-.038 5.245-.078 10.281-.117 14.801a7.5 7.5 0 0 0 7.436 7.564h.065a7.5 7.5 0 0 0 7.499-7.436c.023-2.74.069-8.196.118-14.93h2.247a7.5 7.5 0 1 0 0-14.999m-17.149 0h-17.703c6.785-12.151 13.454-23.858 17.809-31.183.012 7.641-.035 19.199-.106 31.183M357.752 397.985h-.099c-8.693.112-17.958.182-25.168.183 4.324-5.74 10.679-14.35 19.646-27.161 4.827-6.897 7.957-13.38 9.302-19.271q.077-.336.122-.677l.397-2.976q.066-.494.066-.993c0-14.952-12.177-27.116-27.145-27.116-12.945 0-24.136 9.203-26.608 21.882a7.5 7.5 0 0 0 5.926 8.797 7.49 7.49 0 0 0 8.797-5.926c1.102-5.651 6.101-9.753 11.886-9.753 6.549 0 11.904 5.199 12.137 11.677l-.274 2.054c-.952 3.88-3.33 8.608-6.895 13.701-12.137 17.341-19.4 26.849-23.303 31.958-4.839 6.333-6.649 8.704-5.346 12.942.757 2.459 2.624 4.348 5.09 5.17.998.338 2.092.708 16.805.708 5.832 0 13.805-.058 24.759-.2a7.5 7.5 0 0 0-.095-14.999"/></svg>