<svg xmlns="http://www.w3.org/2000/svg" width="512" height="512"><path fill="#eff6ff" fill-rule="evenodd" d="m116.777 128.883-26.527 1.021-5.278 30.757 25.342 25.342c6.687 3.335 20.08.359 25.437-4.998 5.386-5.386 14.084-17.5 6.367-26.779zM230.56 64.403v70.166a198.5 198.5 0 0 1 67.266 0V64.403h-53.461999999999996z" clip-rule="evenodd"/><path fill="#375e7d" fill-rule="evenodd" d="M230.56 114.568c-31.578 5.471-62.079 18.681-88.441 39.658a198 198 0 0 0-16.81 14.996 198 198 0 0 0-14.995 16.782C7.53 315.239 102.349 504.315 263.953 504.514h.482c50.173-.057 100.347-19.248 138.643-57.545 76.706-76.68 76.706-201.039 0-277.747-29.764-29.765-66.699-47.992-105.251-54.654a198.5 198.5 0 0 0-67.267 0" clip-rule="evenodd"/><path fill="#9fd4fe" fill-rule="evenodd" d="m264.208 148.216-9.156 16.3 9.156 21.714c33.647 0 64.12 13.635 86.174 35.689l26.873-26.873c-28.943-28.942-68.912-46.83-113.047-46.83" clip-rule="evenodd"/><path fill="#85beef" fill-rule="evenodd" d="M386.07 308.095c0 33.648-13.635 64.122-35.688 86.176l3.288 20.183 23.584 6.69c28.913-28.914 46.829-68.884 46.829-113.049l-20.069-15.137z" clip-rule="evenodd"/><path fill="#9fd4fe" fill-rule="evenodd" d="M151.162 195.046c-28.942 28.943-46.829 68.912-46.829 113.049l18.51 11.396 19.474-11.396c0-33.648 13.635-64.122 35.688-86.176l-6.746-21.204z" clip-rule="evenodd"/><path fill="#eb5468" fill-rule="evenodd" d="m88.969 97.22-35.631 35.66a6.62 6.62 0 0 0 0 9.355l20.353 20.353a6.62 6.62 0 0 0 9.354 0l1.928-1.928 31.805-31.777 1.928-1.928c2.58-2.58 2.58-6.803 0-9.355L98.324 97.22c-2.552-2.58-6.775-2.58-9.355 0" clip-rule="evenodd"/><path fill="#375e7d" fill-rule="evenodd" d="M313.786 70.403c5.443 0 9.893-4.479 9.893-9.922V17.393c0-5.301-4.195-9.638-9.439-9.893H214.148c-5.216.255-9.439 4.592-9.439 9.893v43.088c0 5.443 4.45 9.922 9.921 9.922z" clip-rule="evenodd"/><path fill="#ffd772" fill-rule="evenodd" d="M264.208 429.989c67.125 0 121.862-54.767 121.862-121.894S331.332 186.23 264.208 186.23s-121.89 54.739-121.89 121.865 54.765 121.894 121.89 121.894" clip-rule="evenodd"/><path fill="#9fd4fe" fill-rule="evenodd" d="m178.006 394.271-21.572 5.556-5.272 21.317c28.913 28.943 68.882 46.83 113.046 46.83l15.421-19.361-15.421-18.624c-33.676 0-64.149-13.664-86.202-35.718" clip-rule="evenodd"/><path fill="#85beef" fill-rule="evenodd" d="M377.254 195.046c-15.109-15.109-33.251-27.213-53.377-35.321a673 673 0 0 1 6.208 45.838 121.3 121.3 0 0 1 20.296 16.356z" clip-rule="evenodd"/><path fill="#2b4d66" fill-rule="evenodd" d="M377.254 195.046c28.913 28.943 46.829 68.912 46.829 113.049 0 44.165-17.915 84.135-46.829 113.049-18.737 18.738-42.095 32.826-68.202 40.452-4.365 14.457-9.213 28.007-14.485 40.565 39.714-6.18 77.896-24.577 108.511-55.192 76.706-76.68 76.706-201.039 0-277.747-25.257-25.257-55.701-42.209-87.903-50.827 3.317 13.21 6.208 27.015 8.702 41.33 20.126 8.108 38.268 20.212 53.377 35.321" clip-rule="evenodd"/><path fill="#eff6ff" fill-rule="evenodd" d="M264.208 148.216c-44.164 0-84.133 17.887-113.046 46.83l26.844 26.873c22.054-22.054 52.526-35.689 86.202-35.689zM104.333 308.095c0 44.165 17.887 84.135 46.829 113.049l26.844-26.873c-22.054-22.054-35.688-52.528-35.688-86.176zM350.381 394.271c-22.054 22.054-52.526 35.718-86.174 35.718v37.985c44.136 0 84.104-17.887 113.046-46.83z" clip-rule="evenodd"/><path fill="#d9eeff" fill-rule="evenodd" d="m377.254 421.144-26.873-26.873a122.1 122.1 0 0 1-29.991 21.998c-3.26 15.903-7.058 31.04-11.339 45.327 26.108-7.625 49.466-21.714 68.203-40.452M377.254 195.046l-26.873 26.873c22.054 22.054 35.688 52.528 35.688 86.176h38.013c0-44.137-17.915-84.106-46.828-113.049M266.957 70.403v41.302a198 198 0 0 1 30.869 2.863V70.403h-14.939z" clip-rule="evenodd"/><path fill="#2b4d66" fill-rule="evenodd" d="M299.953 17.393v43.088c0 3.855-2.211 7.2-5.443 8.844a9.86 9.86 0 0 1-4.479 1.077h23.754c5.443 0 9.893-4.479 9.893-9.922V17.393c0-5.301-4.195-9.638-9.439-9.893h-23.726c1.417.057 2.778.454 3.997 1.077 3.232 1.645 5.443 4.99 5.443 8.816" clip-rule="evenodd"/><path fill="#e5384f" fill-rule="evenodd" d="m83.895 111.677 20.353 20.353c2.58 2.58 2.58 6.803 0 9.355l12.529-12.501 1.928-1.928c2.58-2.58 2.58-6.803 0-9.355L98.324 97.22c-2.551-2.58-6.775-2.58-9.354 0l-14.428 14.457a6.62 6.62 0 0 1 9.353 0" clip-rule="evenodd"/><path fill="#d9eeff" fill-rule="evenodd" d="m116.777 128.883-12.529 12.501-1.928 1.928 24.463 24.464c4.932-4.819 10.035-9.355 15.335-13.55z" clip-rule="evenodd"/><path d="M223.819 371.436c13.71 8.964 22.032 10.603 35.326 10.743v12.092a7.5 7.5 0 0 0 15 0v-13.356c19.346-4.582 30.667-20.886 33.231-36.151 3.376-20.091-7.148-37.562-26.809-44.507a422 422 0 0 1-6.422-2.326v-49.256c7.131 1.902 11.354 5.539 11.694 5.84a7.5 7.5 0 0 0 10.125-11.067c-.497-.458-8.541-7.693-21.819-10.132v-11.397a7.5 7.5 0 0 0-15 0v11.002c-2.873.36-5.874.969-9.004 1.914-12.873 3.873-22.499 14.907-25.119 28.798-2.376 12.591 1.61 24.698 10.407 31.6 5.694 4.462 13.022 8.497 23.716 12.934v59.016c-10.939-.106-16.482-1.348-27.117-8.302a7.5 7.5 0 0 0-8.209 12.555m50.327-57.544c.478.171.937.338 1.425.51 19.004 6.713 17.827 23.035 17.013 27.877-1.537 9.147-7.801 18.853-18.438 22.923zm-29.461-30.464c-4.37-3.428-6.256-9.948-4.923-17.014 1.237-6.556 5.748-14.521 14.706-17.216a40 40 0 0 1 4.677-1.109v43.708c-6.261-2.883-10.915-5.591-14.46-8.369M322.658 315.596h24.832a7.5 7.5 0 0 0 0-15h-24.832c-4.143 0-7.5 3.358-7.5 7.5s3.357 7.5 7.5 7.5M213.229 308.095a7.5 7.5 0 0 0-7.5-7.5h-24.803a7.5 7.5 0 0 0 0 15h24.803a7.5 7.5 0 0 0 7.5-7.5"/><path d="M114.969 250.158a7.496 7.496 0 0 0-9.497 4.723c-5.733 17.077-8.639 34.98-8.639 53.214 0 92.293 75.084 167.379 167.375 167.379s167.375-75.086 167.375-167.379-75.084-167.379-167.375-167.379c-60.348 0-116.26 32.691-145.914 85.316a7.5 7.5 0 0 0 13.069 7.365 152.2 152.2 0 0 1 19.94-27.598l16.31 16.327c-18.829 21.125-30.846 48.439-32.572 78.469h-23.019c.677-14.011 3.244-27.751 7.671-40.94a7.5 7.5 0 0 0-4.724-9.497m141.738 210.13c-36.373-1.772-69.437-16.355-94.764-39.326l16.264-16.281c21.131 18.837 48.457 30.859 78.5 32.585zm15.001 0v-23.022c30.035-1.726 57.353-13.747 78.479-32.582l16.281 16.282c-25.327 22.968-58.389 37.55-94.76 39.322m105.367-49.93-16.283-16.284c18.82-21.129 30.831-48.446 32.556-78.478h23.048c-1.772 36.371-16.353 69.435-39.321 94.762m39.321-109.763h-23.048c-1.725-30.031-13.74-57.345-32.565-78.47l16.292-16.293c22.967 25.328 37.549 58.391 39.321 94.763M271.708 155.903c36.371 1.772 69.433 16.354 94.76 39.322l-16.292 16.293c-21.124-18.825-48.438-30.84-78.468-32.565zm-109.789 39.3c25.836-23.364 59.258-37.524 94.788-39.28v23.03c-30.038 1.725-57.359 13.741-78.489 32.568zm102.288-1.473c63.059 0 114.363 51.304 114.363 114.365 0 63.077-51.303 114.393-114.363 114.393-63.075 0-114.39-51.316-114.39-114.393 0-63.061 51.315-114.365 114.39-114.365M135.04 315.596c1.725 30.033 13.739 57.35 32.563 78.478l-16.265 16.282c-22.966-25.327-37.547-58.39-39.319-94.76z"/><path d="M430.3 189.781a7.5 7.5 0 0 0-12.208 8.716c53.789 75.339 45.243 177.606-20.318 243.168C362.092 477.348 314.653 497 264.194 497s-97.899-19.651-133.58-55.334c-73.636-73.637-73.636-193.476 0-267.14 35.682-35.683 83.12-55.334 133.58-55.334s97.898 19.651 133.58 55.334a7.502 7.502 0 0 0 10.608-10.607c-28.629-28.63-64.274-47.689-103.055-55.592V77.903h8.459c9.59 0 17.393-7.816 17.393-17.422V17.394c0-9.297-7.281-16.933-16.576-17.385a7 7 0 0 0-.364-.009H214.147a8 8 0 0 0-.366.009c-9.293.455-16.573 8.091-16.573 17.385v43.088c0 9.606 7.816 17.422 17.421 17.422h8.43v30.424c-29.077 5.925-56.391 18.121-80.307 35.925l-15.965-15.966a14.1 14.1 0 0 0 1.352-6.058c-.011-3.779-1.488-7.317-4.131-9.93l-20.353-20.353c-2.644-2.672-6.181-4.15-9.96-4.16h-.04a14.03 14.03 0 0 0-9.99 4.131l-.003.002-35.63 35.66c-5.502 5.503-5.502 14.457 0 19.961l20.354 20.354a14.07 14.07 0 0 0 9.98 4.127 14.1 14.1 0 0 0 6.005-1.352l16.007 16.008c-59.195 79.779-52.659 193.31 19.627 265.597C158.521 490.788 209.728 512 264.194 512s105.673-21.212 144.188-59.728c34.326-34.328 55.312-79.853 59.091-128.189 3.735-47.799-9.466-95.494-37.173-134.302M291.523 15h22.471c1.215.121 2.185 1.17 2.185 2.393v43.088c0 1.313-1.096 2.421-2.393 2.421h-22.263zm-39.658 0h24.657v47.902h-24.657zM238.06 77.903h52.266v27.945a207 207 0 0 0-52.267 0zm-23.43-15c-1.313 0-2.421-1.109-2.421-2.421V17.394c0-1.222.97-2.272 2.185-2.393h22.471v47.902zM78.367 156.659l-19.1-19.102 34.38-34.408 19.128 19.129zm17.216 4.005 21.192-21.176 14.214 14.214a208 208 0 0 0-10.983 10.217 206 206 0 0 0-10.192 10.975z"/></svg>