<svg xmlns="http://www.w3.org/2000/svg" width="512" height="512"><path fill="#eb5468" fill-rule="evenodd" d="M7.677 255.986c0 68.655 27.807 130.791 72.82 175.749l51.703-51.732c-31.832-31.748-51.533-75.685-51.533-124.215 0-48.558 19.7-92.466 51.533-124.243L80.696 80.039C35.597 125.025 7.677 187.245 7.677 255.986" clip-rule="evenodd"/><path fill="#375e7d" fill-rule="evenodd" d="M132.2 131.544c31.747-31.691 75.57-51.279 123.956-51.279 96.914 0 175.489 78.577 175.489 175.522 0 96.917-78.575 175.493-175.489 175.493-48.386 0-92.209-19.587-123.956-51.279l-51.703 51.732c44.956 44.958 107.062 72.766 175.659 72.766h32.654c10.856 0 19.729-8.872 19.729-19.729v-22.762a210.6 210.6 0 0 0 55.699-23.102l16.1 16.101c7.682 7.682 20.239 7.682 27.892 0l46.629-46.602c7.682-7.682 7.682-20.239 0-27.893l-16.1-16.101c10.204-17.178 18.056-35.887 23.102-55.729h22.733c10.856 0 19.729-8.872 19.729-19.729v-65.934c0-10.828-8.872-19.729-19.729-19.729h-22.733a210.6 210.6 0 0 0-23.102-55.701l16.1-16.101c7.682-7.682 7.682-20.239 0-27.893l-46.629-46.63c-7.653-7.682-20.211-7.682-27.892 0l-16.1 16.101a210.5 210.5 0 0 0-55.699-23.102V27.229c0-10.857-8.872-19.729-19.729-19.729h-32.654c-68.483 0-130.504 27.695-175.46 72.539z" clip-rule="evenodd"/><path fill="#95d6a4" fill-rule="evenodd" d="M132.2 380.002c31.747 31.691 75.57 51.279 123.956 51.279 96.914 0 175.489-78.577 175.489-175.493 0-96.945-78.575-175.522-175.489-175.522-48.386 0-92.209 19.587-123.956 51.279-31.832 31.776-51.533 75.685-51.533 124.243 0 48.529 19.701 92.466 51.533 124.214m123.956 14.542c-76.647 0-138.781-62.136-138.781-138.756 0-76.649 62.134-138.785 138.781-138.785s138.781 62.136 138.781 138.785c0 76.62-62.134 138.756-138.781 138.756" clip-rule="evenodd"/><path fill="#eff6ff" fill-rule="evenodd" d="M117.375 255.787c0 76.621 62.134 138.756 138.781 138.756s138.781-62.136 138.781-138.756c0-76.649-62.134-138.785-138.781-138.785s-138.781 62.136-138.781 138.785m139.064 22.904c-12.642 0-22.903-10.261-22.903-22.904 0-12.671 10.261-22.932 22.903-22.932s22.903 10.261 22.903 22.932c.001 12.643-10.26 22.904-22.903 22.904" clip-rule="evenodd"/><path fill="#ffd772" fill-rule="evenodd" d="M256.439 278.691c12.642 0 22.903-10.261 22.903-22.904 0-12.671-10.261-22.932-22.903-22.932s-22.903 10.261-22.903 22.932c0 12.643 10.261 22.904 22.903 22.904" clip-rule="evenodd"/><path fill="#d9eeff" fill-rule="evenodd" d="M305.194 267.154c0 42.945-4.025 84.104-11.367 122.23 58.336-16.413 101.109-70.016 101.109-133.597 0-65.481-45.325-120.359-106.325-134.986 9.864 41.386 15.704 86.967 16.497 134.986.058 3.77.086 7.569.086 11.367" clip-rule="evenodd"/><path fill="#78c2a4" fill-rule="evenodd" d="M288.612 120.801c61 14.627 106.325 69.506 106.325 134.986 0 63.581-42.774 117.185-101.109 133.597a571 571 0 0 1-9.127 39.572c83.337-13.606 146.945-85.975 146.945-173.169 0-89.66-67.208-163.616-154.003-174.218 4.081 12.586 7.737 25.682 10.969 39.232" clip-rule="evenodd"/><path fill="#2b4d66" fill-rule="evenodd" d="M277.642 81.57c86.795 10.602 154.003 84.558 154.003 174.218 0 87.194-63.608 159.563-146.945 173.169-7.427 27.439-16.639 52.81-27.41 75.544h31.521c10.856 0 19.729-8.872 19.729-19.729V462.01a210.6 210.6 0 0 0 55.699-23.102l16.1 16.101c7.682 7.682 20.239 7.682 27.892 0l46.629-46.602c7.682-7.682 7.682-20.239 0-27.893l-16.1-16.101c10.204-17.178 18.056-35.887 23.102-55.729h22.733c10.856 0 19.729-8.872 19.729-19.729v-65.934c0-10.828-8.872-19.729-19.729-19.729h-22.733a210.6 210.6 0 0 0-23.102-55.701l16.1-16.101c7.682-7.682 7.682-20.239 0-27.893l-46.629-46.63c-7.653-7.682-20.211-7.682-27.892 0l-16.1 16.101a210.5 210.5 0 0 0-55.699-23.102V27.229c0-10.857-8.872-19.729-19.729-19.729h-32.654c-3.43 0-6.86.057-10.261.198 12.244 21.771 22.93 46.602 31.746 73.872" clip-rule="evenodd"/><path d="M237.691 231.857c-7.088 5.576-11.655 14.227-11.655 23.931 0 16.765 13.639 30.404 30.403 30.404 14.177 0 26.117-9.754 29.465-22.904h27.708a7.5 7.5 0 0 0 0-15h-27.706c-3.346-13.166-15.287-22.933-29.467-22.933-1.714 0-3.394.15-5.031.424l-25.49-61.203a7.5 7.5 0 0 0-9.807-4.04 7.5 7.5 0 0 0-4.04 9.807zm34.152 23.931c0 8.494-6.91 15.404-15.403 15.404s-15.403-6.91-15.403-15.404c0-8.51 6.91-15.433 15.403-15.433s15.403 6.923 15.403 15.433"/><path d="M484.595 195.79H467.61a217.9 217.9 0 0 0-19.479-46.965l12.033-12.033c5.138-5.139 7.964-11.988 7.958-19.286-.007-7.284-2.836-14.111-7.958-19.214l-46.619-46.62c-5.113-5.131-11.939-7.961-19.224-7.968h-.026c-7.288 0-14.127 2.826-19.259 7.958l-12.033 12.033a217.8 217.8 0 0 0-46.964-19.479V27.229C316.039 12.215 303.824 0 288.81 0h-32.654c-68.37 0-132.651 26.628-181.001 74.98S.177 187.614.177 255.986c0 84.763 41.852 163.896 111.954 211.681a7.5 7.5 0 0 0 8.448-12.394 242 242 0 0 1-29.411-23.605l41.209-41.233c32.605 29.998 76.087 48.346 123.78 48.346 100.9 0 182.989-82.09 182.989-182.993 0-100.918-82.088-183.022-182.989-183.022-19.354 0-38.437 3.023-56.721 8.987a7.5 7.5 0 0 0 4.651 14.261c16.78-5.473 34.298-8.248 52.07-8.248 92.629 0 167.989 75.375 167.989 168.022 0 92.632-75.359 167.993-167.989 167.993s-167.99-75.362-167.99-167.993c0-60.777 32.972-116.988 86.048-146.697a7.5 7.5 0 0 0 2.881-10.208 7.5 7.5 0 0 0-10.208-2.881 183 183 0 0 0-34.567 25.058L91.482 80.22C134.599 39.797 192.532 15 256.156 15h32.654c6.743 0 12.229 5.486 12.229 12.229v22.734a7.5 7.5 0 0 0 5.649 7.268 203 203 0 0 1 53.714 22.279 7.5 7.5 0 0 0 9.139-1.142l16.101-16.101c2.299-2.299 5.372-3.565 8.653-3.565h.012c3.272.003 6.33 1.266 8.621 3.565l46.639 46.64c2.289 2.281 3.552 5.339 3.555 8.611.003 3.286-1.263 6.364-3.564 8.666l-16.101 16.101a7.5 7.5 0 0 0-1.142 9.139 202.9 202.9 0 0 1 22.279 53.716 7.5 7.5 0 0 0 7.268 5.649h22.733c6.743 0 12.229 5.486 12.229 12.229v65.934c0 6.743-5.486 12.229-12.229 12.229h-22.733a7.5 7.5 0 0 0-7.269 5.652c-4.791 18.84-12.287 36.923-22.282 53.747a7.5 7.5 0 0 0 1.145 9.134l16.11 16.111c2.289 2.281 3.552 5.339 3.555 8.611.003 3.286-1.263 6.364-3.563 8.664l-46.641 46.613c-2.281 2.29-5.338 3.552-8.61 3.555h-.012c-3.281 0-6.354-1.266-8.653-3.565l-16.101-16.101a7.5 7.5 0 0 0-9.139-1.142 203 203 0 0 1-53.714 22.279 7.5 7.5 0 0 0-5.649 7.268v22.763c0 6.743-5.486 12.229-12.229 12.229h-32.654c-37.369 0-73.217-8.342-106.549-24.794a7.501 7.501 0 0 0-6.639 13.451C178.382 503.137 216.464 512 256.156 512h32.654c15.014 0 27.229-12.215 27.229-27.229v-17.014a218 218 0 0 0 46.964-19.479l12.033 12.032c5.132 5.133 11.971 7.958 19.259 7.958h.026c7.284-.007 14.111-2.837 19.212-7.957l46.631-46.603c5.138-5.139 7.964-11.988 7.958-19.286-.007-7.284-2.836-14.111-7.958-19.214l-12.035-12.036a218.2 218.2 0 0 0 19.483-46.991h16.983c15.014 0 27.229-12.215 27.229-27.229v-65.934c-.001-15.014-12.216-27.228-27.229-27.228M121.76 379.838l-41.199 41.223C38.978 376.811 15.177 318 15.177 255.986c0-63.87 24.984-122.008 65.682-165.177l40.87 40.871c-30.73 33.343-48.562 77.483-48.562 124.108 0 47.824 18.449 91.415 48.593 124.05"/><path d="M109.875 255.788c0 80.646 65.621 146.256 146.281 146.256s146.281-65.61 146.281-146.256c0-80.662-65.622-146.285-146.281-146.285s-146.281 65.623-146.281 146.285m60.079-75.882c1.464 1.465 3.384 2.197 5.303 2.197s3.839-.732 5.303-2.197a7.5 7.5 0 0 0 0-10.606l-11.581-11.581c21.521-19.153 49.361-31.349 79.96-33.015v16.252a7.5 7.5 0 0 0 15 0V124.74c30.518 1.794 58.264 14.057 79.693 33.245L332.318 169.3a7.5 7.5 0 0 0 5.303 12.803 7.47 7.47 0 0 0 5.303-2.197l11.297-11.298c19.093 21.455 31.27 49.19 32.996 79.679H371.24a7.5 7.5 0 0 0 0 15h15.978c-1.726 30.481-13.903 58.209-32.995 79.66l-11.302-11.283a7.5 7.5 0 0 0-10.606.009 7.5 7.5 0 0 0 .009 10.606l11.309 11.29c-21.429 19.183-49.175 31.444-79.692 33.237V370.59a7.5 7.5 0 0 0-15 0v16.252c-30.599-1.666-58.438-13.858-79.959-33.007l11.576-11.557a7.5 7.5 0 0 0 .009-10.606 7.5 7.5 0 0 0-10.606-.009l-11.602 11.583c-19.246-21.491-31.527-49.337-33.262-79.96h16.545a7.5 7.5 0 0 0 0-15h-16.545c1.734-30.631 14.015-58.483 33.262-79.979z"/></svg>