<svg xmlns="http://www.w3.org/2000/svg" width="512" height="512"><path fill="#faf0b0" fill-rule="evenodd" d="m81.951 331.292 182.071 53.492 163.589-53.492v-36.483l-172.83-57.971-172.83 57.971z" clip-rule="evenodd"/><path fill="#ffd772" fill-rule="evenodd" d="M61.06 331.292c4.054 50.26 16.838 96.58 36.085 135.529 18.312 31.834 27.043 37.39 59.5 37.504h198.71c32.457-.113 41.188-5.669 59.5-37.504 19.247-38.949 32.032-85.269 36.085-135.529z" clip-rule="evenodd"/><path fill="#fbba58" fill-rule="evenodd" d="M399.122 331.292c-4.054 50.26-16.838 96.58-36.085 135.529-18.34 31.834-27.043 37.39-59.528 37.504h51.846c32.457-.113 41.188-5.669 59.5-37.504 19.247-38.949 32.032-85.269 36.085-135.529h-23.329z" clip-rule="evenodd"/><path fill="#ffd772" fill-rule="evenodd" d="M157.835 294.809H452.3C451.564 136.035 363.973 7.678 256 7.678S60.436 136.035 59.699 294.809h49.068zm81.072-93.377v-27.327c0-9.468 7.654-17.122 17.093-17.122s17.093 7.654 17.093 17.122v27.327c0 9.44-7.654 17.094-17.093 17.094s-17.093-7.654-17.093-17.094M225.471 435.1 256 376.761l30.529 58.339z" clip-rule="evenodd"/><path fill="#95d6a4" fill-rule="evenodd" d="M238.907 201.432c0 9.44 7.654 17.094 17.093 17.094s17.093-7.654 17.093-17.094v-27.327c0-9.468-7.654-17.122-17.093-17.122s-17.093 7.654-17.093 17.122z" clip-rule="evenodd"/><path fill="#eb5468" fill-rule="evenodd" d="M225.471 435.1h61.058L256 376.761z" clip-rule="evenodd"/><path fill="#fbba58" fill-rule="evenodd" d="M231.452 9.917c96.407 17.689 171.101 138.336 171.781 284.892h49.068C451.564 136.035 363.973 7.678 256 7.678c-8.306 0-16.498.765-24.548 2.239" clip-rule="evenodd"/><path fill="#ffd772" fill-rule="evenodd" d="M378.684 294.809v36.483h48.927v-36.483h-24.378z" clip-rule="evenodd"/><path d="M420.218 38.422a7.5 7.5 0 0 0-9.505 4.708 7.5 7.5 0 0 0 4.708 9.505c31.941 10.782 49.159 45.55 38.382 77.503a7.501 7.501 0 0 0 14.215 4.795c13.419-39.79-8.023-83.085-47.8-96.511"/><path d="M433.004.546a7.497 7.497 0 0 0-9.505 4.708 7.5 7.5 0 0 0 4.708 9.505c52.831 17.831 81.304 75.325 63.472 128.164a7.503 7.503 0 0 0 7.108 9.902c3.13 0 6.05-1.974 7.106-5.104C526.37 87.043 493.672 21.021 433.004.546M83.794 14.759a7.5 7.5 0 0 0 4.708-9.505A7.5 7.5 0 0 0 78.997.546C18.328 21.021-14.369 87.043 6.108 147.72a7.5 7.5 0 0 0 7.106 5.104 7.501 7.501 0 0 0 7.108-9.902C2.49 90.084 30.963 32.59 83.794 14.759"/><path d="M58.197 130.139C47.42 98.185 64.638 63.417 96.58 52.635a7.5 7.5 0 0 0-4.797-14.213c-39.777 13.427-61.22 56.721-47.8 96.511a7.503 7.503 0 0 0 9.505 4.71 7.5 7.5 0 0 0 4.709-9.504M280.596 201.427v-27.33c0-13.578-11.034-24.624-24.596-24.624s-24.596 11.047-24.596 24.624v27.33c0 13.562 11.034 24.596 24.596 24.596s24.596-11.034 24.596-24.596m-34.19 0v-27.33c0-5.306 4.304-9.623 9.594-9.623s9.594 4.317 9.594 9.623v27.33c0 5.291-4.304 9.595-9.594 9.595s-9.594-4.304-9.594-9.595M256 369.273a7.5 7.5 0 0 0-6.646 4.023l-30.532 58.345a7.5 7.5 0 0 0 6.646 10.979h61.065a7.502 7.502 0 0 0 6.646-10.979l-30.532-58.345a7.5 7.5 0 0 0-6.647-4.023m-18.141 58.345L256 392.951l18.141 34.667z"/><path d="M452.321 302.314a7.5 7.5 0 0 0 7.501-7.535c-.363-78.307-21.405-151.936-59.251-207.323C362.104 31.157 310.761.152 256 .152c-32.299 0-64.433 11.209-92.928 32.414a7.5 7.5 0 0 0-1.539 10.495 7.5 7.5 0 0 0 10.495 1.539C198.285 25.06 226.537 15.153 256 15.153c101.708 0 185.328 121.408 188.718 272.159h-33.97V239.53a7.501 7.501 0 0 0-15.002 0v47.782h-34.071V258.95c0-4.143-3.358-7.501-7.501-7.501s-7.501 3.358-7.501 7.501v28.362h-34.1V239.53c0-4.143-3.358-7.501-7.501-7.501s-7.501 3.358-7.501 7.501v47.782H263.5V258.95c0-4.143-3.358-7.501-7.501-7.501s-7.501 3.358-7.501 7.501v28.362h-34.071V239.53c0-4.143-3.358-7.501-7.501-7.501s-7.501 3.358-7.501 7.501v47.782h-34.1V258.95c0-4.143-3.358-7.501-7.501-7.501s-7.501 3.358-7.501 7.501v28.362h-34.071V239.53c0-4.143-3.358-7.501-7.501-7.501s-7.501 3.358-7.501 7.501v47.782H67.285c1.988-86.225 30.908-167.475 78.05-218.552a7.5 7.5 0 0 0-.424-10.599 7.5 7.5 0 0 0-10.599.424C109.504 85.465 88.91 120.8 74.757 160.771c-14.756 41.675-22.352 86.76-22.578 134.006a7.5 7.5 0 0 0 7.5 7.537h14.753V323.8H61.04a7.5 7.5 0 0 0-7.477 8.104c4.017 49.808 16.756 97.618 36.841 138.262q.105.212.223.417c19.674 34.203 30.774 41.145 66.008 41.268h198.756c35.207-.123 46.307-7.065 65.981-41.268a8 8 0 0 0 .223-.417c20.085-40.644 32.824-88.454 36.841-138.262a7.5 7.5 0 0 0-7.477-8.104h-15.831v-21.486zm-32.194 21.485H274.03a7.501 7.501 0 0 0 0 15.002h168.718c-4.525 44.909-16.393 87.797-34.497 124.507-16.906 29.357-23.388 33.438-52.886 33.541H156.661c-29.525-.103-36.006-4.184-52.913-33.541-18.104-36.71-29.972-79.598-34.497-124.507h167.216c4.143 0 7.501-3.358 7.501-7.501s-3.358-7.501-7.501-7.501H89.434v-21.486h330.693z"/></svg>