<svg xmlns="http://www.w3.org/2000/svg" width="512" height="512"><path fill="#375e7d" fill-rule="evenodd" d="M82.193 458.74h74.948c7.455 0 10.261-.567 13.776-7.314l19.191-36.681-64.432-15.755-47.31 15.755v40.196c0 2.098 1.73 3.799 3.827 3.799M354.859 458.74h74.948a3.8 3.8 0 0 0 3.798-3.799v-40.196L376.6 391.989l-54.709 22.755 19.162 36.681c3.544 6.748 6.322 7.315 13.806 7.315M255.986 89.261l31.677 16.721 31.677-16.721V66.895c0-7.512-6.151-13.635-13.635-13.635h-36.057c-7.512 0-13.663 6.123-13.663 13.635z" clip-rule="evenodd"/><path fill="#9fd4fe" fill-rule="evenodd" d="m75.248 89.261 59.925 14.387V53.26h-46.29c-7.512 0-13.635 6.123-13.635 13.635zM135.173 103.648l59.925-14.387V66.895c0-7.512-6.151-13.635-13.635-13.635h-46.29z" clip-rule="evenodd"/><path fill="#eb5468" fill-rule="evenodd" d="M190.108 414.745h246.643c37.077 0 67.465-30.19 67.748-67.211V156.472c-.284-37.022-30.671-67.211-67.748-67.211H75.248c-37.077 0-67.465 30.162-67.748 67.183v191.118c.283 37.022 30.671 67.183 67.748 67.183h3.118z" clip-rule="evenodd"/><path fill="#95d6a4" fill-rule="evenodd" d="M98.124 373.67h55.106c9.695 0 17.66-7.937 17.66-17.66s-7.965-17.66-17.66-17.66H98.124c-9.695 0-17.66 7.937-17.66 17.66s7.965 17.66 17.66 17.66M358.77 373.67h55.077c9.723 0 17.66-7.937 17.66-17.66s-7.937-17.66-17.66-17.66H358.77c-9.723 0-17.66 7.937-17.66 17.66s7.937 17.66 17.66 17.66" clip-rule="evenodd"/><path fill="#eff6ff" fill-rule="evenodd" d="M77.346 297.245h357.308c15.307 0 27.836-12.53 27.836-27.837V159.081c0-15.308-12.529-27.837-27.836-27.837H77.346c-15.335 0-27.865 12.529-27.865 27.837v110.328c0 15.307 12.529 27.836 27.865 27.836" clip-rule="evenodd"/><path fill="#e5384f" fill-rule="evenodd" d="M446.106 133.71c9.638 4.394 16.384 14.145 16.384 25.371v110.328c0 9.553-4.876 18.029-12.246 23.046v54.54c0 37.277-30.501 67.75-67.748 67.75h54.255c37.077 0 67.465-30.19 67.748-67.211V156.472c-.284-37.022-30.671-67.211-67.748-67.211h-54.255c29.084 0 54.057 18.568 63.61 44.449" clip-rule="evenodd"/><path fill="#85beef" fill-rule="evenodd" d="M177.154 66.895v22.366h17.943V66.895c0-7.512-6.151-13.635-13.635-13.635H163.49c7.513 0 13.664 6.123 13.664 13.635M118.108 53.26h17.065v36.001h-17.065z" clip-rule="evenodd"/><path fill="#d9eeff" fill-rule="evenodd" d="M420.509 183.856v60.777c0 5.84-4.791 10.63-10.63 10.63h-4.422v14.145c0 15.308-12.529 27.837-27.836 27.837h57.033c5.754 0 11.14-1.758 15.591-4.791 7.37-5.017 12.246-13.493 12.246-23.046V159.081c0-11.226-6.746-20.977-16.384-25.371a27.7 27.7 0 0 0-11.452-2.466h-57.033c15.307 0 27.836 12.529 27.836 27.837v14.174h4.422c5.839-.001 10.629 4.762 10.629 10.601" clip-rule="evenodd"/><path fill="#2b4d66" fill-rule="evenodd" d="M82.193 458.74h-.142zm83.849-43.995-19.191 36.681c-3.515 6.747-6.321 7.314-13.776 7.314h24.066c7.455 0 10.261-.567 13.776-7.314l19.191-36.681zM409.539 414.745v40.196c0 2.069-1.701 3.799-3.77 3.799h24.038a3.8 3.8 0 0 0 3.798-3.799v-40.196zM295.586 66.895v22.366h23.754V66.895c0-7.512-6.151-13.635-13.635-13.635h-23.754c7.512 0 13.635 6.123 13.635 13.635" clip-rule="evenodd"/><path d="M102.093 165.754c-9.982 0-18.102 8.12-18.102 18.102v60.777c0 9.997 8.12 18.131 18.102 18.131h22.706c9.981 0 18.102-8.134 18.102-18.131v-60.777c0-9.982-8.12-18.102-18.102-18.102zm25.806 18.102v60.777c0 1.697-1.42 3.13-3.101 3.13h-22.706c-1.681 0-3.102-1.434-3.102-3.13v-60.777a3.106 3.106 0 0 1 3.102-3.102h22.706c1.681 0 3.101 1.421 3.101 3.102M333.542 262.763c9.982 0 18.102-8.134 18.102-18.131v-60.777c0-9.982-8.12-18.102-18.102-18.102h-22.706c-9.982 0-18.102 8.12-18.102 18.102v60.777c0 9.997 8.12 18.131 18.102 18.131zm-25.807-18.13v-60.777a3.106 3.106 0 0 1 3.102-3.102h22.706c1.682 0 3.102 1.42 3.102 3.102v60.777c0 1.697-1.42 3.13-3.102 3.13h-22.706c-1.682 0-3.102-1.434-3.102-3.13M255.986 232.455a7.5 7.5 0 0 0-7.5 7.5v.113a7.5 7.5 0 0 0 15.001 0v-.113c0-4.142-3.359-7.5-7.501-7.5M255.986 180.92a7.5 7.5 0 0 0-7.5 7.5v.113a7.5 7.5 0 0 0 15.001 0v-.113c0-4.142-3.359-7.5-7.501-7.5M211.765 262.763a7.5 7.5 0 0 0 7.5-7.5v-71.407c0-9.982-8.133-18.102-18.13-18.102h-33.279a7.5 7.5 0 0 0 0 15h33.279c1.697 0 3.13 1.42 3.13 3.102v71.407a7.5 7.5 0 0 0 7.5 7.5"/><path d="M434.654 123.744H276.282a7.5 7.5 0 0 0 0 15h158.372c11.213 0 20.336 9.123 20.336 20.336v110.328c0 11.214-9.122 20.337-20.336 20.337H276.282a7.5 7.5 0 0 0 0 15h158.372c19.484 0 35.336-15.852 35.336-35.337V159.08c0-19.484-15.852-35.336-35.336-35.336M246.223 131.244a7.5 7.5 0 0 0-7.5-7.5H77.346c-19.5 0-35.365 15.852-35.365 35.337v110.328c0 19.485 15.865 35.337 35.365 35.337h161.377a7.5 7.5 0 0 0 0-15H77.346c-11.229 0-20.364-9.123-20.364-20.337V159.08c0-11.214 9.135-20.336 20.364-20.336h161.377a7.5 7.5 0 0 0 7.5-7.5"/><path d="M409.879 262.763c9.997 0 18.13-8.134 18.13-18.131v-60.777c0-9.982-8.133-18.102-18.13-18.102h-22.677c-9.982 0-18.102 8.12-18.102 18.102v60.777c0 9.997 8.12 18.131 18.102 18.131zm-25.779-18.13v-60.777a3.106 3.106 0 0 1 3.102-3.102h22.677c1.696 0 3.13 1.42 3.13 3.102v60.777c0 1.697-1.434 3.13-3.13 3.13h-22.677c-1.682 0-3.102-1.434-3.102-3.13M153.23 330.849H98.124c-13.873 0-25.16 11.287-25.16 25.161 0 13.873 11.286 25.16 25.16 25.16h55.106c13.873 0 25.16-11.287 25.16-25.16 0-13.874-11.287-25.161-25.16-25.161m0 35.32H98.124c-5.602 0-10.159-4.558-10.159-10.16s4.558-10.16 10.159-10.16h55.106c5.602 0 10.159 4.558 10.159 10.16s-4.558 10.16-10.159 10.16M413.848 330.849H358.77c-13.873 0-25.16 11.287-25.16 25.161 0 13.873 11.286 25.16 25.16 25.16h55.078c13.873 0 25.16-11.287 25.16-25.16 0-13.874-11.287-25.161-25.16-25.161m0 35.32H358.77c-5.602 0-10.159-4.558-10.159-10.16s4.558-10.16 10.159-10.16h55.078c5.602 0 10.159 4.558 10.159 10.16s-4.557 10.16-10.159 10.16"/><path d="M436.752 81.761H326.841V66.895c0-11.654-9.482-21.135-21.135-21.135h-36.057c-11.669 0-21.163 9.481-21.163 21.135v14.866h-45.888V66.895c0-11.654-9.481-21.135-21.135-21.135h-92.58c-11.654 0-21.135 9.481-21.135 21.135v15.241C29.764 85.913 0 118.05 0 157.011v189.984c0 40.021 31.407 72.835 70.866 75.113v32.834c0 6.23 5.081 11.299 11.327 11.299h74.948c8.499 0 14.94-.814 20.422-11.337l17.086-32.658h122.699l17.066 32.668c5.521 10.514 11.956 11.327 20.444 11.327h74.948c6.231 0 11.299-5.068 11.299-11.299V422.11C480.579 419.846 512 387.026 512 346.995V157.011c0-41.493-33.756-75.25-75.248-75.25M263.487 66.895c0-3.383 2.764-6.135 6.162-6.135h36.057a6.14 6.14 0 0 1 6.135 6.135v14.866h-48.354zm-75.89 0v14.866h-44.924V60.76h38.79a6.14 6.14 0 0 1 6.134 6.135M88.883 60.76h38.79v21.001H82.748V66.895a6.14 6.14 0 0 1 6.135-6.135m75.383 387.201c-1.708 3.279-1.708 3.279-7.125 3.279H85.867v-28.994h91.854zm261.839 3.279h-71.247c-5.431 0-5.431 0-7.156-3.286l-13.43-25.708h91.834zM497 346.995c0 33.222-27.027 60.25-60.248 60.25H75.248c-33.221 0-60.248-27.028-60.248-60.25V157.011c0-33.222 27.027-60.25 60.248-60.25h361.504c33.221 0 60.248 27.028 60.248 60.25z"/></svg>