<svg xmlns="http://www.w3.org/2000/svg" width="512" height="512"><path fill="#c38c66" fill-rule="evenodd" d="m262.282 96.307 84.127-20.265-17.461-51.704C325.178 13.198 318.545 7.5 306.98 7.5H205.02c-11.565 0-18.198 5.698-21.968 16.838l-17.461 51.704zM255.986 504.5h50.994c11.565 0 18.198-5.698 21.968-16.866l17.461-51.704L256 409.246l-90.409 26.683 17.461 51.704c3.77 11.169 10.403 16.866 21.968 16.866h50.966z" clip-rule="evenodd"/><path fill="#375e7d" fill-rule="evenodd" d="M50.451 270.698c0 11.14 9.099 20.239 20.239 20.239h30.245v-69.903H70.689c-11.14 0-20.239 9.128-20.239 20.239z" clip-rule="evenodd"/><path fill="#eff6ff" fill-rule="evenodd" d="M165.591 435.93h180.818c41.045 0 74.663-33.591 74.663-74.665V150.706c0-41.074-33.618-74.665-74.663-74.665H165.591c-41.045 0-74.663 33.591-74.663 74.665v210.559c0 41.074 33.618 74.665 74.663 74.665" clip-rule="evenodd"/><path fill="#9fd4fe" fill-rule="evenodd" d="M163.494 401.234h185.013c20.607 0 37.501-16.895 37.501-37.531V148.269c0-20.636-16.894-37.502-37.501-37.502H163.494c-20.636 0-37.501 16.866-37.501 37.502v215.434c-.001 20.636 16.865 37.531 37.501 37.531" clip-rule="evenodd"/><path fill="#375e7d" fill-rule="evenodd" d="M411.066 220.609h30.245c11.14 0 20.239-9.099 20.239-20.239v-29.424c0-11.112-9.099-20.239-20.239-20.239h-30.245zM411.066 361.265h30.245c11.14 0 20.239-9.099 20.239-20.239V311.63c0-11.14-9.099-20.268-20.239-20.268h-30.245z" clip-rule="evenodd"/><path fill="#d9eeff" fill-rule="evenodd" d="M346.409 76.042h-82.77c11.678 9.751 22.336 21.458 31.691 34.725h53.177c20.607 0 37.501 16.866 37.501 37.502v215.434c0 20.636-16.894 37.531-37.501 37.531H290.2c-10.516 13.606-22.45 25.313-35.517 34.696h91.727c41.045 0 74.663-33.591 74.663-74.665V150.706c-.001-41.073-33.619-74.664-74.664-74.664" clip-rule="evenodd"/><path fill="#85beef" fill-rule="evenodd" d="M295.33 110.766c58.761 109.503 56.351 191.566-5.131 290.467h58.307c20.607 0 37.501-16.895 37.501-37.531V148.269c0-20.636-16.894-37.502-37.501-37.502z" clip-rule="evenodd"/><path fill="#eb5468" fill-rule="evenodd" d="M315.625 175.34c0 10.658 8.674 19.332 19.332 19.332 10.686 0 19.36-8.674 19.36-19.332 0-10.687-8.674-19.361-19.36-19.361-10.658 0-19.332 8.674-19.332 19.361M315.625 255.986c0 10.687 8.674 19.332 19.332 19.332 10.686 0 19.36-8.646 19.36-19.332s-8.674-19.332-19.36-19.332c-10.658-.001-19.332 8.645-19.332 19.332" clip-rule="evenodd"/><path fill="#ffd772" fill-rule="evenodd" d="M315.625 336.66c0 10.687 8.674 19.332 19.332 19.332 10.686 0 19.36-8.646 19.36-19.332s-8.674-19.332-19.36-19.332c-10.658 0-19.332 8.645-19.332 19.332" clip-rule="evenodd"/><path fill="#b57f5f" fill-rule="evenodd" d="m314.775 435.93-17.461 51.704c-3.77 11.169-10.403 16.866-21.968 16.866h31.634c11.565 0 18.198-5.698 21.968-16.866l17.461-51.704zM297.314 24.338l17.461 51.704h31.634l-17.461-51.704C325.178 13.198 318.545 7.5 306.98 7.5h-31.634c11.565 0 18.198 5.698 21.968 16.838" clip-rule="evenodd"/><path d="M213.938 175.198c0-9.403-7.637-17.053-17.024-17.053h-20.438c-9.402 0-17.052 7.65-17.052 17.053v54.709c0 9.403 7.649 17.053 17.052 17.053h20.438c9.388 0 17.024-7.65 17.024-17.053zm-15 54.709c0 1.113-.927 2.053-2.024 2.053h-20.438c-1.093 0-2.052-.959-2.052-2.053v-54.709c0-1.094.959-2.053 2.052-2.053h20.438c1.098 0 2.024.94 2.024 2.053zM192.123 338.826h-25.199c-4.143 0-7.5 3.358-7.5 7.5s3.357 7.5 7.5 7.5h25.199c9.403 0 17.053-7.65 17.053-17.053v-54.709c0-9.387-7.649-17.024-17.053-17.024h-25.199c-4.143 0-7.5 3.358-7.5 7.5s3.357 7.5 7.5 7.5h25.199c1.112 0 2.053.927 2.053 2.024v19.854h-27.252c-4.143 0-7.5 3.358-7.5 7.5s3.357 7.5 7.5 7.5h27.252v19.854c0 1.114-.941 2.054-2.053 2.054M274.155 246.96a7.5 7.5 0 0 0 7.5-7.5v-64.262c0-9.403-7.649-17.053-17.053-17.053h-29.961c-4.143 0-7.5 3.358-7.5 7.5s3.357 7.5 7.5 7.5h29.961c1.094 0 2.053.959 2.053 2.053v64.262a7.5 7.5 0 0 0 7.5 7.5M281.655 336.773v-54.709c0-9.387-7.649-17.024-17.053-17.024h-20.408c-9.403 0-17.053 7.637-17.053 17.024v54.709c0 9.403 7.649 17.053 17.053 17.053h20.408c9.404 0 17.053-7.65 17.053-17.053m-15 0c0 1.113-.94 2.053-2.053 2.053h-20.408c-1.112 0-2.053-.94-2.053-2.053v-54.709c0-1.097.94-2.024 2.053-2.024h20.408c1.112 0 2.053.927 2.053 2.024zM334.957 202.172c14.811 0 26.86-12.037 26.86-26.833 0-14.811-12.05-26.861-26.86-26.861-14.795 0-26.832 12.05-26.832 26.861 0 14.796 12.037 26.833 26.832 26.833m0-38.693c6.54 0 11.86 5.321 11.86 11.861 0 6.524-5.32 11.833-11.86 11.833-6.524 0-11.832-5.308-11.832-11.833 0-6.54 5.308-11.861 11.832-11.861M334.957 363.493c14.811 0 26.86-12.037 26.86-26.833s-12.05-26.833-26.86-26.833c-14.795 0-26.832 12.037-26.832 26.833s12.037 26.833 26.832 26.833m0-38.665c6.54 0 11.86 5.308 11.86 11.833s-5.32 11.833-11.86 11.833c-6.524 0-11.832-5.308-11.832-11.833s5.308-11.833 11.832-11.833M334.957 282.818c14.811 0 26.86-12.037 26.86-26.833s-12.05-26.833-26.86-26.833c-14.795 0-26.832 12.037-26.832 26.833s12.037 26.833 26.832 26.833m0-38.665c6.54 0 11.86 5.308 11.86 11.833s-5.32 11.833-11.86 11.833c-6.524 0-11.832-5.308-11.832-11.833s5.308-11.833 11.832-11.833"/><path d="M441.311 228.109c15.296 0 27.739-12.444 27.739-27.739v-29.424c0-15.296-12.443-27.74-27.739-27.74h-13.096c-3.639-40.01-36.072-71.81-76.354-74.464l-15.807-46.809C331.126 7.379 321.345 0 306.979 0H205.021c-14.365 0-24.146 7.379-29.074 21.938L160.14 68.743c-42.771 2.818-76.711 38.491-76.711 81.964v62.828h-12.74c-15.296 0-27.739 12.444-27.739 27.739v29.424c0 15.295 12.443 27.739 27.739 27.739h12.739v62.828c0 43.473 33.941 79.146 76.711 81.964l15.805 46.804C180.867 504.609 190.649 512 205.021 512H306.98c14.371 0 24.153-7.391 29.074-21.966l15.806-46.805c40.282-2.654 72.715-34.453 76.354-74.464h13.096c15.296 0 27.739-12.444 27.739-27.739V311.63c0-15.311-12.443-27.768-27.739-27.768h-12.739v-55.753zm12.739-57.163v29.424c0 7.024-5.715 12.739-12.739 12.739h-12.739v-54.903h12.739c7.024.001 12.739 5.715 12.739 12.74M190.156 26.742C193.053 18.183 197.082 15 205.021 15H306.98c7.938 0 11.968 3.183 14.863 11.738l14.118 41.804h-54.305v-16c0-4.142-3.357-7.5-7.5-7.5s-7.5 3.358-7.5 7.5v16h-21.311v-16c0-4.142-3.357-7.5-7.5-7.5s-7.5 3.358-7.5 7.5v16H176.04zM70.689 283.437c-7.024 0-12.739-5.715-12.739-12.739v-29.424c0-7.024 5.715-12.739 12.739-12.739h12.739v54.902zm251.154 201.798C318.947 493.812 314.919 497 306.98 497H205.021c-7.939 0-11.968-3.188-14.863-11.766L176.04 443.43h54.305v16c0 4.142 3.357 7.5 7.5 7.5s7.5-3.358 7.5-7.5v-16h21.311v16c0 4.142 3.357 7.5 7.5 7.5s7.5-3.358 7.5-7.5v-16h54.305zm24.566-56.805H165.591c-37.033 0-67.162-30.13-67.162-67.165V150.707c0-37.035 30.129-67.165 67.162-67.165h180.818c37.033 0 67.162 30.13 67.162 67.165v210.558c0 37.035-30.129 67.165-67.162 67.165m94.902-129.568c7.024 0 12.739 5.728 12.739 12.768v29.396c0 7.024-5.715 12.739-12.739 12.739h-12.739v-54.902z"/><path d="M348.507 103.267h-72.679c-4.143 0-7.5 3.358-7.5 7.5s3.357 7.5 7.5 7.5h72.679c16.543 0 30.001 13.459 30.001 30.002v215.434c0 16.559-13.458 30.031-30.001 30.031h-72.679c-4.143 0-7.5 3.358-7.5 7.5s3.357 7.5 7.5 7.5h72.679c24.813 0 45.001-20.201 45.001-45.031V148.269c0-24.814-20.188-45.002-45.001-45.002M238.27 393.733h-74.776c-16.543 0-30.001-13.472-30.001-30.031V148.269c0-16.543 13.458-30.002 30.001-30.002h74.776c4.143 0 7.5-3.358 7.5-7.5s-3.357-7.5-7.5-7.5h-74.776c-24.813 0-45.001 20.188-45.001 45.002v215.434c0 24.83 20.188 45.031 45.001 45.031h74.776a7.501 7.501 0 0 0 0-15.001"/></svg>