<svg xmlns="http://www.w3.org/2000/svg" width="512" height="512"><path fill="#eff6ff" fill-rule="evenodd" d="M15.4 140v246.4c0 12.4 10.1 22.5 22.5 22.5h226.5L401 263V140H192.5z" clip-rule="evenodd"/><path fill="#9fd4fe" fill-rule="evenodd" d="M15.4 140H401c4.4 0 8-3.6 8-8v-24.8H7.5v25c.1 4.4 3.6 7.8 7.9 7.8" clip-rule="evenodd"/><path fill="#eb5468" fill-rule="evenodd" d="M7.5 107.3H409V55.9c0-4.4-3.6-8-8-8H15.4c-4.3 0-7.9 3.5-7.9 7.8v.2z" clip-rule="evenodd"/><path fill="#ffd772" fill-rule="evenodd" d="M48.8 60c0 10.1 8.2 18.3 18.3 18.3S85.3 70.1 85.3 60V25.8c0-9.9-8-18-17.8-18.3h-.9c-9.8.3-17.8 8.4-17.8 18.3V48zM142.9 48v12c0 10.1 8.2 18.3 18.3 18.3s18.3-8.2 18.3-18.3V25.8c0-9.9-8-18-17.8-18.3h-.9c-9.8.3-17.8 8.4-17.8 18.3zM237.1 60c0 10.1 8.2 18.3 18.3 18.3 10 0 18.3-8.2 18.3-18.3V25.8c0-9.9-8-18-17.8-18.3h-.9c-9.8.3-17.8 8.4-17.8 18.3V48z" clip-rule="evenodd"/><path fill="#fbba58" fill-rule="evenodd" d="M68.4 25.8V60c0 7-4 13.1-9.8 16.2 2.5 1.3 5.4 2.1 8.4 2.1 10 0 18.3-8.2 18.3-18.3V25.8c0-9.9-8-18-17.8-18.3h-.9c-2.9.1-5.6.8-8 2.1 5.8 3 9.8 9.2 9.8 16.2M162.5 25.8V60c0 7-4 13.1-9.8 16.2 2.5 1.3 5.4 2.1 8.4 2.1 10 0 18.3-8.2 18.3-18.3V25.8c0-9.9-8-18-17.8-18.3h-.9c-2.9.1-5.6.8-8 2.1 5.8 3 9.8 9.2 9.8 16.2M256.6 25.8V60c0 7-4 13.1-9.8 16.2 2.6 1.3 5.4 2.1 8.5 2.1 10 0 18.3-8.2 18.3-18.3V25.8c0-9.9-8-18-17.8-18.3h-.9c-2.9.1-5.6.8-8 2.1 5.8 3 9.7 9.2 9.7 16.2" clip-rule="evenodd"/><path fill="#95d6a4" fill-rule="evenodd" d="M267.2 419.5c15.4 48.9 60.9 84.5 114.7 85h2.2c66.3-.6 119.9-54.4 120.3-120.8v-1.3c-.3-56.6-39.4-104.1-92-117.2-9.4-2.4-19.3-3.6-29.4-3.6-28.6 0-54.9 9.9-75.6 26.4-9.2 7.4-17.4 16.1-24.2 25.8-7.9 11.4-13.9 24.2-17.6 38-2.6 10-4.1 20.4-4.1 31.2 0 1.6 0 3.3.1 4.9.6 11 2.5 21.6 5.6 31.6" clip-rule="evenodd"/><path fill="#eff6ff" fill-rule="evenodd" d="M293.8 383.1c0 49.3 40 89.2 89.3 89.2s89.2-39.9 89.2-89.2-40-89.3-89.2-89.3c-49.3 0-89.3 40-89.3 89.3" clip-rule="evenodd"/><path fill="#e5384f" fill-rule="evenodd" d="M313.6 107.3H409V55.9c0-4.4-3.6-8-8-8H292c8.9 18.6 16.2 38.5 21.6 59.4" clip-rule="evenodd"/><path fill="#85beef" fill-rule="evenodd" d="M320.2 140H401c4.4 0 8-3.6 8-8v-24.8h-95.4c2.7 10.8 4.9 21.7 6.6 32.8" clip-rule="evenodd"/><path fill="#d9eeff" fill-rule="evenodd" d="M383.1 261.7c6.1 0 12.1.4 17.9 1.3V140h-80.8c2.6 17 3.9 34.6 3.9 52.5 0 32.3-4.4 63.4-12.5 92.3 20.1-14.5 44.8-23.1 71.5-23.1" clip-rule="evenodd"/><path fill="#375e7d" fill-rule="evenodd" d="M368.3 382.9c0 8.1 6.6 14.7 14.7 14.7s14.7-6.6 14.7-14.7-6.6-14.7-14.7-14.7-14.7 6.6-14.7 14.7" clip-rule="evenodd"/><path fill="#78c2a4" fill-rule="evenodd" d="M393.2 504.1c62.1-5.1 110.9-57 111.3-120.3v-1.4c-.3-56.6-39.4-104-92-117.1-1.9-.5-3.8-.9-5.8-1.3 1.4 10.9 2.6 22.3 3.5 34.1 36 11.5 62.1 45.2 62.1 85 0 43-30.5 79-71 87.4-2.4 11.9-5.1 23.2-8.1 33.6" clip-rule="evenodd"/><path fill="#d9eeff" fill-rule="evenodd" d="M401.3 470.5c40.6-8.4 71-44.4 71-87.4 0-39.8-26.1-73.6-62.1-85 1.3 16.9 2 34.4 2 52.5 0 11-.3 21.8-.7 32.3-1.5 31.7-5.1 61.4-10.2 87.6" clip-rule="evenodd"/><path fill="#ffd772" fill-rule="evenodd" d="M331.2 60c0 10.1 8.2 18.3 18.3 18.3 10 0 18.3-8.2 18.3-18.3V25.8c0-9.9-8-18-17.8-18.3h-1c-9.8.3-17.8 8.4-17.8 18.3V48z" clip-rule="evenodd"/><path fill="#fbba58" fill-rule="evenodd" d="M350.8 25.8V60c0 7-4 13.1-9.8 16.2 2.6 1.3 5.4 2.1 8.5 2.1 10 0 18.3-8.2 18.3-18.3V25.8c0-9.9-8-18-17.8-18.3h-1c-2.9.1-5.6.8-8 2.1 5.8 3 9.8 9.2 9.8 16.2" clip-rule="evenodd"/><path d="M155.7 260.2c-22.7 32.5-36.3 50.2-43.6 59.8-8.5 11.2-10.3 13.5-8.9 18.2.8 2.6 2.7 4.5 5.4 5.4 1 .3 2.9.9 30.2.9 10.6 0 25.2-.1 45-.3 4.1-.1 7.5-3.4 7.4-7.6-.1-4.1-3.4-7.4-7.5-7.4h-.1c-22 .3-46.1.4-59.9.3.1-.1.2-.3.3-.4 7.4-9.6 21-27.6 43.9-60.3 8.5-12.1 14-23.4 16.3-33.6 5.4-26.4-16.5-51.5-43.1-51.2-21 0-39.2 14.9-43.2 35.5-.8 4.1 1.9 8 5.9 8.8 4.1.8 8-1.9 8.8-5.9a29.03 29.03 0 0 1 28.5-23.4c15.9 0 28.8 12.8 29 28.6l-.6 4.6c-1.8 8.1-6.5 17.6-13.8 28"/><path d="M408.5 256.7V145.6c4.7-2.6 8-7.7 8-13.5V55.9c0-8.5-6.9-15.5-15.5-15.5h-25.8V25.8c0-14.2-11.6-25.8-25.8-25.8s-25.8 11.6-25.8 25.8v14.7H281V25.8C281 11.6 269.4 0 255.2 0s-25.8 11.6-25.8 25.8v14.7h-42.6V25.8C186.8 11.6 175.2 0 161 0s-25.8 11.6-25.8 25.8v14.7H92.8V25.8C92.8 11.6 81.2 0 67 0S41.3 11.6 41.3 25.8v14.7H15.4C6.9 40.4 0 47.4 0 55.9v76.2c0 5.8 3.2 10.9 7.9 13.5v240.9c0 16.5 13.5 30 30 30h109.6c4.1 0 7.5-3.4 7.5-7.5s-3.4-7.5-7.5-7.5H38c-8.3 0-15-6.7-15-15v-239h168c4.1 0 7.5-3.4 7.5-7.5s-3.4-7.5-7.5-7.5H15.4c-.2 0-.4-.2-.4-.5v-17.3h386.5V132c0 .2-.2.5-.5.5H225.7c-4.1 0-7.5 3.4-7.5 7.5s3.4 7.5 7.5 7.5h167.8v107.1c-3.4-.3-6.9-.4-10.4-.4-29.4 0-56.6 9.9-78.3 26.6-2.2-7.9-6.4-15.1-12.3-21.2-9.5-9.7-22.2-15.1-35.7-15.1-8.1 0-14 .7-19.3 2.1l7.1-43h45.6c4.1 0 7.5-3.4 7.5-7.5s-3.4-7.5-7.5-7.5h-52c-3.7 0-6.8 2.7-7.4 6.3l-10.3 62.2c-.5 2.8.7 5.6 3 7.3s5.4 1.9 7.9.5c0 0 .4-.2 1.3-.6 6.2-2.8 11.6-4.8 23.9-4.8 9.5 0 18.4 3.7 25 10.6 5.9 6.1 9.3 13.9 9.8 22.3-10.2 10.2-18.6 22.2-24.9 35.3-3 .9-6 1.4-9.2 1.4h-.7c-17.3 0-32.1-12.8-34.5-30.1q-.3-2.25-.3-4.8c0-4.1-3.4-7.5-7.5-7.5s-7.5 3.4-7.5 7.5c0 2.4.2 4.7.5 6.9 3.4 24.6 24.6 42.9 49.3 42.9h1c.8 0 1.6-.1 2.4-.1-3.9 12.3-6.1 25.4-6.1 39 0 6.2.5 12.4 1.3 18.4h-73.3c-4.1 0-7.5 3.4-7.5 7.5s3.4 7.5 7.5 7.5h76.4c14.7 55 65 95.5 124.5 95.5 71.1 0 128.9-57.8 128.9-128.9.3-62.2-44.2-114.4-103.2-126.2M338.7 25.8c0-5.9 4.8-10.8 10.8-10.8 5.9 0 10.8 4.8 10.8 10.8V60c0 5.9-4.8 10.8-10.8 10.8-5.9 0-10.8-4.8-10.8-10.8zm-94.1 0c0-5.9 4.8-10.8 10.8-10.8s10.8 4.8 10.8 10.8V60c0 5.9-4.8 10.8-10.8 10.8S244.6 66 244.6 60zm-94.2 0c0-5.9 4.8-10.8 10.8-10.8S172 19.8 172 25.8V60c0 5.9-4.8 10.8-10.8 10.8S150.4 66 150.4 60zm-94.1 0c0-6 4.8-10.8 10.7-10.8s10.8 4.8 10.8 10.8V60c0 5.9-4.8 10.8-10.8 10.8-5.9 0-10.8-4.8-10.8-10.8.1 0 .1-34.2.1-34.2M15 99.8V55.9c0-.2.2-.5.4-.5h25.8V60c0 14.2 11.6 25.8 25.8 25.8S92.8 74.2 92.8 60v-4.5h42.6V60c0 14.2 11.6 25.8 25.8 25.8S187 74.2 187 60v-4.5h42.6V60c0 14.2 11.6 25.8 25.8 25.8s25.8-11.6 25.8-25.8v-4.5h42.6V60c0 14.2 11.6 25.8 25.8 25.8s25.8-11.6 25.8-25.8v-4.5H401c.2 0 .5.2.5.5v43.9H15zM383.1 497c-62.8 0-113.9-51.1-113.9-113.9s51.1-113.9 113.9-113.9S497 320.3 497 383.1 445.9 497 383.1 497"/><path d="M419.9 375.4H404c-3.1-8.6-11.3-14.7-20.9-14.7-.5 0-1 0-1.5.1l-14.3-34.3c-1.6-3.8-6-5.6-9.8-4s-5.6 6-4 9.8l14.4 34.6c-4.3 4.1-7 9.8-7 16.1 0 12.3 10 22.2 22.2 22.2 9.6 0 17.8-6.2 20.9-14.7h15.9c4.1 0 7.5-3.4 7.5-7.5s-3.4-7.6-7.5-7.6m-36.8 14.8c-4 0-7.2-3.2-7.2-7.2s3.2-7.2 7.2-7.2 7.2 3.2 7.2 7.2-3.2 7.2-7.2 7.2"/><path d="M383.1 286.3c-53.4 0-96.8 43.4-96.8 96.8 0 53.3 43.4 96.7 96.8 96.7 53.3 0 96.7-43.4 96.7-96.7 0-53.4-43.4-96.8-96.7-96.8m73.8 104.1h7.5c-1.5 16.9-8.2 32.4-18.5 44.8l-5.4-5.4c-2.9-2.9-7.7-2.9-10.6 0s-2.9 7.7 0 10.6l5.4 5.4c-12.4 10.3-27.9 17.1-44.8 18.6v-7.7c0-4.1-3.4-7.5-7.5-7.5s-7.5 3.4-7.5 7.5v7.7c-17-1.5-32.4-8.3-44.8-18.6l5.4-5.4c2.9-2.9 2.9-7.7 0-10.6s-7.7-2.9-10.6 0l-5.4 5.4c-10.3-12.4-17-27.9-18.5-44.8h7.5c4.1 0 7.5-3.4 7.5-7.5s-3.4-7.5-7.5-7.5h-7.5c1.6-16.9 8.3-32.3 18.6-44.7l5.3 5.2c1.5 1.5 3.4 2.2 5.3 2.2s3.8-.7 5.3-2.2c2.9-2.9 2.9-7.7 0-10.6l-5.2-5.2c12.4-10.3 27.8-16.9 44.7-18.5v7.4c0 4.1 3.4 7.5 7.5 7.5s7.5-3.4 7.5-7.5v-7.4c16.9 1.5 32.3 8.2 44.6 18.5l-5.2 5.2c-2.9 2.9-2.9 7.7 0 10.6 1.5 1.5 3.4 2.2 5.3 2.2s3.8-.7 5.3-2.2l5.2-5.2c10.3 12.3 17 27.8 18.6 44.6h-7.5c-4.1 0-7.5 3.4-7.5 7.5s3.4 7.6 7.5 7.6"/></svg>