<svg xmlns="http://www.w3.org/2000/svg" width="512" height="512"><path fill="#95d6a4" fill-rule="evenodd" d="m88.869 185.127 20.073 20.073c28.777 3.742 38.926-8.506 33.426-33.399L122.296 151.7c-9.214-9.186-24.24-9.186-33.426 0s-9.186 24.241-.001 33.427" clip-rule="evenodd"/><path fill="#eb5468" fill-rule="evenodd" d="m402.974 205.201 20.101-20.073c9.186-9.186 9.186-24.241 0-33.427s-24.24-9.186-33.426 0l-20.073 20.102c-1.134 20.979 9.724 32.632 33.398 33.398" clip-rule="evenodd"/><path fill="#eff6ff" fill-rule="evenodd" d="M229.265 134.944c19.08 15.197 37.084 15.367 53.386 0V90.885c0-14.686-11.993-26.708-26.679-26.708s-26.707 12.021-26.707 26.708v12.9z" clip-rule="evenodd"/><path fill="#375e7d" fill-rule="evenodd" d="M108.942 205.201c-56.447 72.893-51.231 178.079 15.678 244.99 36.205 36.206 83.665 54.351 131.125 54.408h.454c47.46-.057 94.92-18.202 131.125-54.408 66.881-66.911 72.097-172.097 15.65-244.99a187 187 0 0 0-15.65-17.748 184 184 0 0 0-17.748-15.65c-25.941-20.102-55.966-32.378-86.925-36.858a187 187 0 0 0-53.386 0c-30.931 4.48-60.955 16.756-86.897 36.858a184 184 0 0 0-17.748 15.65 191 191 0 0 0-15.678 17.748" clip-rule="evenodd"/><path fill="#eff6ff" fill-rule="evenodd" d="M153.312 421.47c26.253 26.282 62.571 42.528 102.66 42.528s76.378-16.246 102.66-42.528c26.282-26.254 42.527-62.573 42.527-102.663-37.48-55.343-65.35-121.29-145.187-127.925-120.521 0-107.622 53.245-145.187 127.925 0 40.09 16.245 76.409 42.527 102.663" clip-rule="evenodd"/><path fill="#ffd772" fill-rule="evenodd" d="M233.971 318.807c0 12.163 9.838 22.001 22.001 22.001s22.001-9.838 22.001-22.001c0-12.135-9.838-22.001-22.001-22.001s-22.001 9.867-22.001 22.001" clip-rule="evenodd"/><path fill="#95d6a4" fill-rule="evenodd" d="M153.312 216.144c-26.282 26.282-42.527 62.573-42.527 102.663h34.504c0-30.564 12.39-58.235 32.406-78.252l-2.608-21.321z" clip-rule="evenodd"/><path fill="#9fd4fe" fill-rule="evenodd" d="M177.694 240.556c20.044-20.045 47.715-32.435 78.278-32.435l13.24-15.537-13.24-18.968c-40.089 0-76.407 16.246-102.66 42.528z" clip-rule="evenodd"/><path fill="#ffd772" fill-rule="evenodd" d="M255.972 208.121c30.563 0 58.234 12.39 78.25 32.435l20.129 3.572 4.281-27.984c-26.282-26.282-62.571-42.528-102.66-42.528z" clip-rule="evenodd"/><path fill="#e5384f" fill-rule="evenodd" d="M334.222 240.556c20.044 20.017 32.434 47.688 32.434 78.252h34.504c0-40.09-16.245-76.381-42.527-102.663z" clip-rule="evenodd"/><path fill="#fbba58" fill-rule="evenodd" d="M309.329 221.815a110.3 110.3 0 0 1 24.892 18.741l7.258-7.23 17.153-17.181c-18.825-18.826-42.811-32.52-69.631-38.757 4.876 8.222 9.271 16.898 13.212 25.942a257 257 0 0 1 7.116 18.485" clip-rule="evenodd"/><path fill="#d9eeff" fill-rule="evenodd" d="M309.329 221.815c9.016 26.538 14.034 55.797 14.034 86.587 0 60.503-19.364 115.223-50.579 154.632 33.37-3.828 63.309-18.996 85.848-41.564 26.282-26.254 42.527-62.573 42.527-102.663h-34.504c0-30.564-12.39-58.235-32.434-78.252a110.3 110.3 0 0 0-24.892-18.74" clip-rule="evenodd"/><path fill="#2b4d66" fill-rule="evenodd" d="M387.324 450.191c66.881-66.911 72.097-172.097 15.65-244.99a187 187 0 0 0-15.65-17.748 184 184 0 0 0-17.748-15.65c-25.941-20.102-55.966-32.378-86.925-36.858-17.606-2.523-35.496-2.552-53.102-.028a185.2 185.2 0 0 1 37.792 9.753 184.3 184.3 0 0 1 48.367 26.991q9.271 7.145 17.776 15.65c8.505 8.505 10.887 11.596 15.65 17.748a221 221 0 0 1 5.018 6.776 163 163 0 0 1 4.48 4.309c26.282 26.282 42.527 62.573 42.527 102.663s-16.245 76.409-42.527 102.663a116 116 0 0 1-5.075 4.848 187.4 187.4 0 0 1-20.073 23.702c-29.542 29.543-66.541 47.064-104.928 52.536 9.016 1.361 18.088 2.013 27.189 2.041h.454c47.46-.055 94.92-18.2 131.125-54.406" clip-rule="evenodd"/><path fill="#d9eeff" fill-rule="evenodd" d="M282.651 103.785v-12.9c0-14.686-11.993-26.708-26.679-26.708-9.356 0-17.635 4.905-22.426 12.248a26 26 0 0 1 2.552-.142c14.686 0 26.707 12.021 26.707 26.708v30.166a194 194 0 0 1 19.846 1.786z" clip-rule="evenodd"/><path fill="#78c2a4" fill-rule="evenodd" d="M129.383 182.859c4.196-3.941 8.534-7.598 12.985-11.057L122.296 151.7c-9.214-9.186-24.24-9.186-33.426 0-4.99 4.99-7.286 11.709-6.833 18.287.17-.17.34-.369.51-.539 9.214-9.186 24.24-9.186 33.426 0z" clip-rule="evenodd"/><path fill="#e5384f" fill-rule="evenodd" d="M423.075 185.127c9.186-9.186 9.186-24.241 0-33.427-5.302-5.302-12.56-7.542-19.506-6.719.936.68 1.843 1.474 2.693 2.325 9.186 9.186 9.186 24.213 0 33.427l-12.957 12.957a192 192 0 0 1 9.668 11.511z" clip-rule="evenodd"/><path d="m412.872 205.918 15.507-15.486c12.14-12.141 12.14-31.895 0-44.036-12.14-12.14-31.894-12.142-44.038.004l-15.48 15.503c-23.459-16.955-50.248-28.309-78.708-33.361V108.43c19.566-10.574 31.527-29.324 31.527-49.951C321.679 26.234 292.203 0 255.972 0s-65.707 26.234-65.707 58.479c0 20.619 11.95 39.369 31.498 49.948v20.116c-28.453 5.053-55.233 16.405-78.683 33.356l-15.489-15.512c-12.156-12.118-31.906-12.113-44.027.008-12.139 12.141-12.139 31.895 0 44.036l15.486 15.487c-10.28 14.234-18.527 29.764-24.626 46.434a7.5 7.5 0 1 0 14.089 5.155c8.937-24.425 22.87-46.211 41.411-64.752 33.658-33.672 78.419-52.216 126.036-52.216s92.386 18.544 126.058 52.217c43.267 43.269 61.218 104.815 48.019 164.638a7.5 7.5 0 0 0 7.332 9.119 7.504 7.504 0 0 0 7.318-5.887c12.038-54.548.173-110.417-31.815-154.708M205.268 58.479c0-23.972 22.746-43.476 50.704-43.476s50.704 19.503 50.704 43.476c0 12.405-6.125 23.967-16.532 32.096-.168-18.72-15.429-33.899-34.172-33.899-18.755 0-34.027 15.173-34.2 33.889-10.389-8.131-16.504-19.689-16.504-32.086m-85.952 123.669a198 198 0 0 0-10.943 11.875l-14.199-14.2c-6.291-6.291-6.291-16.528 0-22.819 6.282-6.281 16.521-6.278 22.814-.004l14.201 14.221a197 197 0 0 0-11.873 10.927m117.451-55.677V90.885c0-10.59 8.615-19.206 19.205-19.206 10.574 0 19.177 8.616 19.177 19.206v35.586a197 197 0 0 0-19.188-.934 197 197 0 0 0-19.194.934m143.987 44.752 14.199-14.219c6.29-6.29 16.526-6.291 22.817 0s6.291 16.528.003 22.815l-14.231 14.211a196 196 0 0 0-10.914-11.883 198 198 0 0 0-11.874-10.924M429.588 385.492a7.5 7.5 0 0 0-9.858 3.919c-8.931 20.718-21.619 39.382-37.71 55.474-34.763 34.75-80.405 52.122-126.059 52.119-45.643-.004-91.296-17.376-126.037-52.118-40.661-40.663-59.274-98.833-49.788-155.605a7.5 7.5 0 0 0-6.163-8.635 7.5 7.5 0 0 0-8.635 6.163c-10.283 61.543 9.896 124.603 53.977 168.686 37.673 37.674 87.149 56.509 136.645 56.505 49.484-.004 98.988-18.84 136.668-56.505 17.439-17.441 31.193-37.676 40.879-60.145a7.5 7.5 0 0 0-3.919-9.858"/><path d="M255.972 471.5c84.193 0 152.689-68.498 152.689-152.692s-68.496-152.692-152.689-152.692-152.689 68.498-152.689 152.692S171.779 471.5 255.972 471.5M153.501 226.949l13.799 13.815c-16.809 19.077-27.571 43.598-29.267 70.542h-19.539c1.743-32.322 14.687-61.712 35.007-84.357m239.95 84.357h-19.539c-1.697-26.95-12.463-51.476-29.278-70.554l13.806-13.807c20.322 22.646 33.267 52.038 35.011 84.361m-59.425-81.163c-19.078-16.816-43.603-27.582-70.552-29.279v-19.54c32.322 1.744 61.713 14.689 84.358 35.012zm-85.555-29.279c-26.955 1.697-51.484 12.468-70.564 29.289l-13.798-13.814c22.646-20.324 52.038-33.27 84.362-35.015zM145.288 326.309a7.5 7.5 0 0 0 7.501-7.501c0-56.896 46.287-103.185 103.182-103.185 56.894 0 103.182 46.289 103.182 103.185a7.5 7.5 0 0 0 7.501 7.501h26.796c-1.744 32.325-14.69 61.718-35.014 84.364l-18.914-18.893a7.502 7.502 0 0 0-10.603 10.615l18.908 18.887c-22.645 20.321-52.034 33.265-84.355 35.009v-26.796a7.501 7.501 0 0 0-15.002 0v26.796c-32.322-1.744-61.713-14.689-84.359-35.012l18.886-18.887a7.503 7.503 0 0 0-10.609-10.609l-18.886 18.887c-20.322-22.646-33.267-52.038-35.011-84.361z"/><path d="M255.972 348.31c16.267 0 29.502-13.235 29.502-29.503 0-13.676-9.355-25.206-22-28.533v-50.2a7.501 7.501 0 0 0-15.002 0v50.2c-12.646 3.327-22.001 14.857-22.001 28.533-.001 16.268 13.233 29.503 29.501 29.503m0-44.002c7.995 0 14.499 6.505 14.499 14.5s-6.504 14.5-14.499 14.5-14.499-6.505-14.499-14.5c0-7.996 6.504-14.5 14.499-14.5M222.574 381.142h66.796a7.501 7.501 0 0 0 0-15.002h-66.796a7.501 7.501 0 0 0 0 15.002"/></svg>