<svg xmlns="http://www.w3.org/2000/svg" width="512" height="512"><path fill="#eff6ff" fill-rule="evenodd" d="m259.333 114.667 29.424-18.307V57.502l-32.229-19.169-32.229 19.169V96.36z" clip-rule="evenodd"/><path fill="#d9eeff" fill-rule="evenodd" d="M26.847 294.55c0 5.044 4.106 9.179 9.15 9.179h44.077v-42.905H35.997c-5.044 0-9.15 4.135-9.15 9.179z" clip-rule="evenodd"/><path fill="#c38c66" fill-rule="evenodd" d="M124.18 504.5h263.611c9.971 0 18.153-8.153 18.153-18.153v-18.124L253.5 453.5l-147.473 14.723v18.124c0 10 8.182 18.153 18.153 18.153" clip-rule="evenodd"/><path fill="#d9eeff" fill-rule="evenodd" d="M431.897 303.729h44.077c5.044 0 9.179-4.135 9.179-9.179v-24.546c0-5.044-4.135-9.179-9.179-9.179h-44.077z" clip-rule="evenodd"/><path fill="#95d6a4" fill-rule="evenodd" d="M354.887 106.36h51.056c.792 0 1.584.029 2.375.059V79.438c0-9.326-7.654-16.98-16.98-16.98h-19.472c-9.326 0-16.98 7.654-16.98 16.98v26.922zM106.027 106.36h53.432V79.38c0-9.355-7.654-16.98-16.98-16.98h-19.443c-9.355 0-17.009 7.625-17.009 16.98z" clip-rule="evenodd"/><path fill="#eb5468" fill-rule="evenodd" d="M235.296 57.502h80.001V46.27c0-21.291-17.361-38.711-38.622-38.77h-41.379c-21.261.059-38.622 17.479-38.622 38.77v11.232h27.625z" clip-rule="evenodd"/><path fill="#375e7d" fill-rule="evenodd" d="M70.074 132.315V432.24c0 19.796 16.188 35.984 35.954 35.984h299.916c19.766 0 35.954-16.188 35.954-35.984V132.315c0-18.974-14.898-34.635-33.578-35.896-16.54-1.085-36.511-.059-53.432-.059h-248.86c-19.766 0-35.954 16.188-35.954 35.955" clip-rule="evenodd"/><path fill="#9fd4fe" fill-rule="evenodd" d="M109.165 143.312v277.929c0 4.34 3.519 7.889 7.859 7.889h277.922c4.34 0 7.859-3.549 7.859-7.889V143.312a7.86 7.86 0 0 0-7.859-7.86H117.024a7.86 7.86 0 0 0-7.859 7.86" clip-rule="evenodd"/><path fill="#eff6ff" fill-rule="evenodd" d="M144.327 282.497c0 61.674 50.001 111.676 111.673 111.676s111.644-50.002 111.644-111.676S317.672 170.821 256 170.821s-111.673 50.002-111.673 111.676" clip-rule="evenodd"/><path fill="#ffd772" fill-rule="evenodd" d="M237.554 282.291c0 10.176 8.241 18.417 18.446 18.417 10.176 0 18.417-8.241 18.417-18.417 0-10.206-8.241-18.446-18.417-18.446-10.205 0-18.446 8.241-18.446 18.446" clip-rule="evenodd"/><path fill="#85beef" fill-rule="evenodd" d="M402.806 421.241V143.312a7.86 7.86 0 0 0-7.859-7.86H294.212c8.182 15.983 15.015 33.374 20.206 51.85 31.936 19.649 53.227 54.929 53.227 95.195 0 42.788-24.047 79.945-59.385 98.714-6.188 17.185-13.783 33.257-22.61 47.92h109.298c4.338-.001 7.858-3.549 7.858-7.89" clip-rule="evenodd"/><path fill="#2b4d66" fill-rule="evenodd" d="M294.212 135.452h100.735a7.86 7.86 0 0 1 7.859 7.86v277.929c0 4.34-3.519 7.889-7.859 7.889H285.648c-8.768 14.517-18.739 27.626-29.707 39.093h150.002c19.766 0 35.954-16.188 35.954-35.984V132.314c0-18.974-14.898-34.635-33.578-35.896-16.54-1.085-36.511-.059-53.432-.059h-85.573a215 215 0 0 1 7.419 10c6.364 9.063 12.2 18.77 17.479 29.093" clip-rule="evenodd"/><path fill="#d9eeff" fill-rule="evenodd" d="M367.644 282.497c0-40.266-21.291-75.546-53.227-95.195-16.745-10.294-36.393-16.306-57.449-16.482 39.091 18.593 66.335 60.53 66.335 109.271 0 49.152-27.713 91.382-67.303 109.741-3.167 1.466-6.393 2.757-9.678 3.93 3.197.264 6.422.411 9.678.411 18.857 0 36.657-4.692 52.259-12.962 35.338-18.77 59.385-55.927 59.385-98.714M288.757 96.36V57.502h-26.041V96.36h6.598z" clip-rule="evenodd"/><path fill="#e5384f" fill-rule="evenodd" d="M315.297 46.27c0-21.291-17.361-38.711-38.622-38.77h-25.983c21.232.117 38.564 17.508 38.564 38.77v11.232h26.041z" clip-rule="evenodd"/><path fill="#78c2a4" fill-rule="evenodd" d="M159.459 79.38c0-9.355-7.654-16.98-16.98-16.98h-19.443c9.326 0 16.98 7.625 16.98 16.98v16.98h19.443zM408.319 79.438c0-9.326-7.654-16.98-16.98-16.98h-19.472c9.355 0 17.009 7.654 17.009 16.98V95.92c6.686 0 13.255.117 19.355.499h.088z" clip-rule="evenodd"/><path fill="#b57f5f" fill-rule="evenodd" d="M405.943 468.223H322.57v18.124c0 10-8.182 18.153-18.153 18.153h83.374c9.971 0 18.153-8.153 18.153-18.153z" clip-rule="evenodd"/><path d="M394.946 127.953H272.188a7.5 7.5 0 0 0 0 15h122.758a.36.36 0 0 1 .359.359v277.929c0 .208-.168.389-.359.389H117.024c-.191 0-.359-.182-.359-.389V143.312a.36.36 0 0 1 .359-.359H236.38a7.5 7.5 0 0 0 0-15H117.024c-8.469 0-15.359 6.89-15.359 15.359v277.929c0 8.486 6.89 15.389 15.359 15.389h277.922c8.469 0 15.359-6.903 15.359-15.389V143.312c.001-8.469-6.889-15.359-15.359-15.359"/><path d="M239.13 262.602c-5.55 4.762-9.076 11.82-9.076 19.689 0 14.291 11.639 25.917 25.946 25.917 11.683 0 21.581-7.773 24.806-18.417h21.206a7.5 7.5 0 0 0 0-15h-21.204c-3.222-10.661-13.122-18.447-24.808-18.447-1.065 0-2.113.072-3.144.197l-18.438-44.235a7.5 7.5 0 0 0-13.846 5.77zm27.787 19.69c0 6.02-4.897 10.917-10.917 10.917-6.036 0-10.946-4.897-10.946-10.917 0-6.036 4.91-10.947 10.946-10.947 6.02 0 10.917 4.91 10.917 10.947"/><path d="M136.827 282.497c0 65.714 53.461 119.176 119.173 119.176 65.696 0 119.144-53.462 119.144-119.176S321.696 163.32 256 163.32c-65.712 0-119.173 53.463-119.173 119.177m48.531-60.242a7.48 7.48 0 0 0 5.304 2.197 7.5 7.5 0 0 0 5.303-12.803l-7.989-7.989c16.491-14.249 37.483-23.419 60.523-25.067v11.29a7.5 7.5 0 0 0 15 0v-11.29c23.034 1.648 44.019 10.818 60.505 25.068l-7.976 7.994a7.5 7.5 0 0 0 5.309 12.797 7.47 7.47 0 0 0 5.309-2.203l7.977-7.995c14.31 16.475 23.541 37.475 25.234 60.538h-11.482a7.5 7.5 0 0 0 0 15h11.508c-1.607 23.116-10.781 44.18-25.062 60.718l-8.181-8.182a7.5 7.5 0 0 0-10.606 0 7.5 7.5 0 0 0 0 10.606l8.199 8.2c-16.52 14.363-37.594 23.611-60.734 25.266v-11.73a7.5 7.5 0 0 0-15 0v11.73c-23.148-1.655-44.227-10.903-60.753-25.266l8.212-8.195a7.5 7.5 0 0 0-10.596-10.618l-8.207 8.19c-14.286-16.539-23.464-37.603-25.071-60.72h11.508a7.5 7.5 0 0 0 0-15H152.11c1.694-23.063 10.928-44.064 25.243-60.54z"/><path d="M475.974 253.324h-26.577v-121.01c0-20.563-14.362-37.824-33.578-42.309V79.438c0-13.499-10.981-24.48-24.479-24.48h-19.473c-13.498 0-24.479 10.981-24.479 24.48v9.421h-51.13V65.002h19.04a7.5 7.5 0 0 0 7.5-7.5V46.27c0-25.443-20.681-46.2-46.122-46.27h-41.399c-25.42.07-46.102 20.827-46.102 46.27v11.232a7.5 7.5 0 0 0 7.5 7.5H216.8V88.86h-49.84v-9.48c0-13.499-10.981-24.48-24.479-24.48h-19.443c-13.514 0-24.509 10.982-24.509 24.48v10.141c-20.397 3.565-35.954 21.391-35.954 42.793v121.01H35.997c-9.181 0-16.65 7.482-16.65 16.679v24.546c0 9.197 7.469 16.679 16.65 16.679h26.577v121.01c0 21.417 15.557 39.254 35.954 42.822v11.286c0 14.146 11.508 25.653 25.653 25.653h263.61c14.145 0 25.653-11.508 25.653-25.653V475.06c20.397-3.568 35.954-21.405 35.954-42.822v-121.01h26.577c9.197 0 16.679-7.482 16.679-16.679v-24.546c-.001-9.196-7.484-16.679-16.68-16.679M362.387 79.438c0-5.227 4.252-9.48 9.479-9.48h19.473c5.227 0 9.479 4.253 9.479 9.48v9.421h-38.432v-9.421zM204.174 46.27c0-17.195 13.971-31.223 31.122-31.27h41.358c17.172.047 31.143 14.075 31.143 31.27v3.732H204.174zm27.625 18.732h49.458V88.86h-49.458zm-108.763 4.897h19.443c5.227 0 9.479 4.253 9.479 9.48v9.48h-38.432v-9.48c.001-5.227 4.267-9.48 9.51-9.48m-87.039 226.33c-.895 0-1.65-.769-1.65-1.679v-24.546c0-.91.755-1.679 1.65-1.679h26.577v27.905H35.997zm398.4 136.01c0 15.706-12.764 28.484-28.454 28.484H272.188a7.5 7.5 0 0 0 0 15h126.255v10.624c0 5.874-4.779 10.653-10.653 10.653H124.18c-5.874 0-10.653-4.779-10.653-10.653v-10.624h122.854a7.5 7.5 0 0 0 0-15H106.027c-15.689 0-28.454-12.778-28.454-28.484V132.314c0-15.69 12.764-28.455 28.454-28.455H353.99c.295.035.593.059.897.059s.602-.023.897-.059h50.159c15.689 0 28.454 12.765 28.454 28.455zm43.256-137.689c0 .895-.785 1.679-1.679 1.679h-26.577v-27.905h26.577c.895 0 1.679.785 1.679 1.679z"/></svg>