<svg xmlns="http://www.w3.org/2000/svg" width="512" height="512"><path fill="#faf0b0" fill-rule="evenodd" d="M198.295 58.836c0 3.827 3.931 13.596 1.219 11.14 29.111 26.358 88.694 13.691 100.259 0-2.361 2.795 1.219-7.313 1.219-11.14 0-28.347-22.988-51.336-51.334-51.336-28.375 0-51.363 22.989-51.363 51.336" clip-rule="evenodd"/><path fill="#ffd772" fill-rule="evenodd" d="M110.564 263.044c0 46.942-23.215 92.07-74.266 139.635l213.359 19.984 97.566-19.984c29.763 4.252 57.088-21.912 65.932-58.819-16.582-26.873-24.434-53.518-24.434-80.816v-63.383c0-58.847-37.02-109.446-88.949-129.685-15.562-6.066-32.484-9.383-50.115-9.383-17.659 0-34.553 3.317-50.144 9.383-51.901 20.239-88.949 70.838-88.949 129.685zM199.57 454.412c0 27.184 21.968 49.521 49.038 50.088h2.098c27.07-.567 49.038-22.904 49.038-50.088l-46.317-17.405z" clip-rule="evenodd"/><path fill="#eff6ff" fill-rule="evenodd" d="M151.156 200.257c0 54.397 44.106 98.476 98.502 98.476s98.473-44.079 98.473-98.476-44.078-98.476-98.473-98.476-98.502 44.078-98.502 98.476m114.743-.171c0 8.958-7.257 16.243-16.242 16.243s-16.27-7.285-16.27-16.243c0-8.986 7.285-16.271 16.27-16.271 8.986.001 16.242 7.286 16.242 16.271" clip-rule="evenodd"/><path fill="#ffd772" fill-rule="evenodd" d="M233.387 200.086c0 8.958 7.285 16.243 16.27 16.243 8.986 0 16.242-7.285 16.242-16.243 0-8.986-7.257-16.271-16.242-16.271-8.985.001-16.27 7.286-16.27 16.271" clip-rule="evenodd"/><path fill="#faf0b0" fill-rule="evenodd" d="M53.788 454.412h308.26c24.547-18.227 9.581-35.943-14.825-51.732H36.299v34.243c0 9.608 7.88 17.489 17.489 17.489" clip-rule="evenodd"/><path fill="#95d6a4" fill-rule="evenodd" d="M413.156 343.86c-33.873.539-61.68 25.965-65.932 58.819a69 69 0 0 0-.567 8.759c0 16.328 5.783 31.295 15.392 42.973 12.415 15.052 31.18 24.633 52.185 24.633 37.331 0 67.605-30.274 67.605-67.607 0-37.304-30.273-67.578-67.605-67.578z" clip-rule="evenodd"/><path fill="#fbba58" fill-rule="evenodd" d="M361.028 369.769c12.16-15.506 30.954-25.569 52.128-25.909-16.582-26.873-24.434-53.518-24.434-80.816v-63.383c0-58.847-37.02-109.446-88.949-129.685-15.562-6.066-32.484-9.383-50.115-9.383-12.869 0-25.369 1.757-37.218 5.074a138 138 0 0 1 20.126 6.123c20.522 7.994 38.692 20.721 53.177 36.822 36.538 14.4 62.389 50.003 62.389 91.644 0 25.994-10.091 49.663-26.532 67.266 1.133 24.776 17.743 73.107 39.428 102.247" clip-rule="evenodd"/><path fill="#d9eeff" fill-rule="evenodd" d="M321.599 267.523c16.441-17.603 26.532-41.273 26.532-67.266 0-41.641-25.851-77.244-62.389-91.644-11.168-4.422-23.357-6.831-36.084-6.831-7.342 0-14.513.794-21.373 2.324a97.6 97.6 0 0 1 21.373 6.661c34.553 15.279 58.647 49.862 58.647 90.085 0 40.224-24.094 74.807-58.647 90.114a99 99 0 0 1-18.453 6.038 99 99 0 0 0 18.453 1.729c28.373-.001 53.97-11.991 71.941-31.21" clip-rule="evenodd"/><path fill="#ffd772" fill-rule="evenodd" d="M299.773 69.976a51.4 51.4 0 0 0 1.219-11.14c0-28.347-22.988-51.336-51.334-51.336-8.816 0-17.092 2.211-24.349 6.123 27.751.028 50.314 22.082 51.249 49.578a139 139 0 0 1 23.215 6.775" clip-rule="evenodd"/><path fill="#78c2a4" fill-rule="evenodd" d="M414.233 479.045c37.331 0 67.605-30.274 67.605-67.607 0-37.304-30.273-67.578-67.605-67.578h-1.077a68.6 68.6 0 0 0-14.768 1.871 67 67 0 0 1 13.152 4.139c24.009 10.346 40.818 34.243 40.818 62.079 0 31.862-22.081 58.592-51.759 65.707a67.6 67.6 0 0 0 13.634 1.389" clip-rule="evenodd"/><path fill="#fbba58" fill-rule="evenodd" d="M266.24 454.412c0 21.685-13.974 40.252-33.335 47.197a49.7 49.7 0 0 0 15.704 2.891h2.098c27.07-.567 49.038-22.904 49.038-50.088z" clip-rule="evenodd"/><path d="M233.728 182.459c-4.812 4.353-7.841 10.643-7.841 17.628 0 13.092 10.663 23.743 23.771 23.743 10.471 0 19.374-6.816 22.521-16.243h14.442c4.143 0 7.5-3.358 7.5-7.5s-3.357-7.5-7.5-7.5h-14.438c-3.145-9.442-12.05-16.271-22.524-16.271-.741 0-1.472.039-2.196.105l-11.914-28.599a7.5 7.5 0 0 0-13.846 5.769zm24.671 17.627c0 4.821-3.922 8.743-8.742 8.743-4.836 0-8.771-3.922-8.771-8.743 0-4.836 3.935-8.771 8.771-8.771 4.82 0 8.742 3.935 8.742 8.771"/><path d="M355.631 200.256c0-58.435-47.54-105.976-105.974-105.976-58.449 0-106.001 47.541-106.001 105.976s47.552 105.976 106.001 105.976c58.433 0 105.974-47.54 105.974-105.976m-158.304 52.121a7.497 7.497 0 0 0-10.606.013l-6.538 6.554c-11.938-14.103-19.669-31.873-21.23-51.357h9.211c4.143 0 7.5-3.358 7.5-7.5s-3.357-7.5-7.5-7.5h-9.18c1.631-19.443 9.404-37.164 21.369-51.216l6.369 6.385a7.47 7.47 0 0 0 5.31 2.203 7.5 7.5 0 0 0 5.31-12.796l-6.363-6.379c14.063-11.89 31.767-19.6 51.181-21.19v8.998c0 4.142 3.357 7.5 7.5 7.5s7.5-3.358 7.5-7.5v-8.998c19.411 1.592 37.113 9.304 51.173 21.198l-6.355 6.371a7.498 7.498 0 0 0 5.31 12.796 7.47 7.47 0 0 0 5.31-2.203l6.358-6.373c11.956 14.051 19.722 31.768 21.353 51.205h-9.153c-4.143 0-7.5 3.358-7.5 7.5s3.357 7.5 7.5 7.5h9.183c-1.56 19.479-9.285 37.244-21.214 51.346l-6.527-6.543a7.5 7.5 0 0 0-10.606-.013 7.5 7.5 0 0 0-.013 10.606l6.555 6.571c-14.091 11.99-31.869 19.768-51.372 21.367v-9.367c0-4.142-3.357-7.5-7.5-7.5s-7.5 3.358-7.5 7.5v9.367c-19.505-1.598-37.286-9.373-51.38-21.359l6.563-6.579a7.506 7.506 0 0 0-.018-10.607"/><path d="M417.444 336.442c-14.262-24.261-21.223-48.312-21.223-73.398v-63.383c0-38.992-15.289-75.755-43.05-103.517-13.214-13.214-28.471-23.596-45.034-30.855.235-2.141.354-4.297.354-6.454C308.492 26.394 282.098 0 249.657 0c-32.457 0-58.862 26.394-58.862 58.835 0 2.159.119 4.317.354 6.459-16.562 7.259-31.818 17.638-45.031 30.85-27.764 27.76-43.054 64.523-43.054 103.517 0 4.142 3.357 7.5 7.5 7.5s7.5-3.358 7.5-7.5c0-72.547 59.032-131.568 131.593-131.568 72.545 0 131.564 59.021 131.564 131.568v63.383c0 25.585 6.439 50.073 19.632 74.534-29.721 5.371-53.403 28.283-59.903 57.601h-71.678c-4.143 0-7.5 3.358-7.5 7.5s3.357 7.5 7.5 7.5h69.917c-.007.421-.032.837-.032 1.259a74.66 74.66 0 0 0 8.922 35.473H53.788c-5.508 0-9.989-4.481-9.989-9.99v-26.743h190.864c4.143 0 7.5-3.358 7.5-7.5s-3.357-7.5-7.5-7.5H54.71c42.591-43.648 63.354-87.012 63.354-132.135v-25.597c0-4.142-3.357-7.5-7.5-7.5s-7.5 3.358-7.5 7.5v25.597c0 45.203-23.512 89.083-71.878 134.148-.03.028-.055.059-.084.087a8 8 0 0 0-.292.301q-.116.122-.225.248-.122.146-.237.299-.112.143-.217.29c-.068.097-.129.199-.192.299-.066.106-.134.212-.195.321-.058.104-.109.213-.163.32-.054.109-.11.218-.158.329-.05.115-.093.234-.138.353-.04.108-.083.215-.118.324q-.058.187-.107.378c-.029.109-.06.216-.084.326-.027.124-.047.25-.068.376q-.031.178-.054.356c-.014.116-.021.234-.029.352a8 8 0 0 0-.02.4c-.001.043-.006.085-.006.128v34.243c0 13.779 11.21 24.99 24.989 24.99h138.787C196.263 490.133 220.446 512 249.657 512s53.394-21.867 57.083-50.088h51.944c13.743 15.124 33.557 24.633 55.55 24.633 41.413 0 75.104-33.692 75.104-75.106 0-40.322-31.966-73.308-71.894-74.997M205.821 59.794c-.007-.32-.026-.639-.026-.959 0-24.171 19.677-43.835 43.862-43.835 24.171 0 43.835 19.665 43.835 43.835 0 .318-.019.636-.026.954-14.011-4.404-28.742-6.696-43.809-6.696-15.077 0-29.817 2.295-43.836 6.701M249.657 497c-20.923 0-38.357-15.171-41.912-35.088h83.824C288.014 481.829 270.579 497 249.657 497m164.576-25.455c-33.126 0-60.076-26.964-60.076-60.106 0-33.127 26.95-60.078 60.076-60.078 33.142 0 60.104 26.951 60.104 60.078.001 33.142-26.962 60.106-60.104 60.106"/><path d="M447.025 383.89a7.5 7.5 0 0 0-10.565.935l-31.691 37.839-13.661-11.587a7.5 7.5 0 0 0-9.703 11.439l19.417 16.469a7.5 7.5 0 0 0 10.602-.904l36.537-43.625a7.5 7.5 0 0 0-.936-10.566M392.868 29.997c52.832 17.857 81.291 75.355 63.439 128.173a7.5 7.5 0 1 0 14.21 4.802c20.499-60.653-12.18-126.68-72.848-147.186-3.918-1.327-8.18.779-9.507 4.704a7.503 7.503 0 0 0 4.706 9.507"/><path d="M380.088 67.897c15.488 5.228 28.005 16.159 35.244 30.78 7.241 14.625 8.344 31.213 3.105 46.708a7.5 7.5 0 0 0 14.21 4.804c6.521-19.293 5.146-39.95-3.874-58.167-9.018-18.211-24.604-31.826-43.89-38.336-3.92-1.326-8.18.782-9.505 4.708a7.5 7.5 0 0 0 4.71 9.503M35.873 168.073a7.5 7.5 0 0 0 7.107-9.901C25.153 105.351 53.624 47.851 106.446 29.997a7.5 7.5 0 1 0-4.803-14.21C40.989 36.288 8.298 102.314 28.767 162.97a7.5 7.5 0 0 0 7.106 5.103"/><path d="M66.637 150.184a7.5 7.5 0 0 0 7.105 5.105c.795 0 1.604-.127 2.398-.396a7.5 7.5 0 0 0 4.709-9.503c-10.775-31.949 6.44-66.712 38.377-77.493a7.5 7.5 0 1 0-4.797-14.212c-39.771 13.425-61.211 56.714-47.792 96.499"/></svg>