<svg xmlns="http://www.w3.org/2000/svg" width="512" height="512"><g fill-rule="evenodd" clip-rule="evenodd"><path fill="#eff6ff" d="M17.343 171.57v305.094c0 15.307 12.529 27.836 27.836 27.836h421.615c15.307 0 27.836-12.529 27.836-27.836V171.57H237.448z"/><path fill="#eb5468" d="m7.507 135.173 248.479 18.199 248.507-18.199V67.425c0-5.414-4.45-9.836-9.864-9.836H17.343c-5.414 0-9.836 4.422-9.836 9.836z"/><path fill="#ffd772" d="M58.586 30.092v48.189c0 12.416 10.176 22.592 22.62 22.592 12.415 0 22.592-10.176 22.592-22.592V30.092c0-12.246-9.893-22.309-22.081-22.592h-1.049c-12.19.283-22.082 10.347-22.082 22.592M175.144 30.092v48.189c0 12.416 10.148 22.592 22.592 22.592 12.415 0 22.592-10.176 22.592-22.592V30.092c0-12.246-9.893-22.309-22.081-22.592h-1.049c-12.19.283-22.054 10.347-22.054 22.592M291.673 57.588v20.693c0 12.416 10.148 22.592 22.592 22.592 12.415 0 22.592-10.176 22.592-22.592V30.092c0-12.246-9.893-22.309-22.081-22.592h-1.049c-12.189.283-22.053 10.347-22.053 22.592zM408.203 57.588v20.693c0 12.416 10.148 22.592 22.592 22.592 12.415 0 22.592-10.176 22.592-22.592V30.092c0-12.246-9.893-22.309-22.081-22.592h-1.049c-12.189.283-22.053 10.347-22.053 22.592z"/><path fill="#e5384f" d="M394.512 135.173h109.982V67.425c0-5.414-4.45-9.836-9.864-9.836h-41.243v20.693c0 12.416-10.176 22.592-22.592 22.592-12.444 0-22.592-10.176-22.592-22.592V57.588h-34.667c8.39 24.378 15.448 50.344 20.976 77.585"/><path fill="#9fd4fe" d="M17.343 171.57h477.286c5.414 0 9.864-4.422 9.864-9.836v-26.561H7.507v26.561c0 5.414 4.422 9.836 9.836 9.836"/><path fill="#85beef" d="M400.889 171.57h93.739c5.414 0 9.864-4.422 9.864-9.836v-26.561h-109.98a715 715 0 0 1 6.377 36.397"/><path fill="#fbba58" d="M103.797 57.588V30.092c0-12.246-9.893-22.309-22.081-22.592h-1.049c-3.43.085-6.661.935-9.553 2.381 7.398 3.713 12.5 11.395 12.5 20.211v48.161c0 8.816-5.102 16.498-12.529 20.211a22.55 22.55 0 0 0 10.119 2.409c12.415 0 22.592-10.176 22.592-22.592V57.588zM200.145 30.092v48.161c0 8.816-5.102 16.498-12.5 20.211a22.35 22.35 0 0 0 10.091 2.409c12.415 0 22.592-10.176 22.592-22.592V30.092c0-12.246-9.893-22.309-22.081-22.592h-1.049c-3.43.085-6.661.935-9.553 2.381 7.397 3.714 12.5 11.395 12.5 20.211M316.674 30.092v48.161c0 8.816-5.102 16.498-12.5 20.211a22.35 22.35 0 0 0 10.091 2.409c12.415 0 22.592-10.176 22.592-22.592V30.092c0-12.246-9.893-22.309-22.081-22.592h-1.049c-3.43.085-6.661.935-9.553 2.381 7.398 3.714 12.5 11.395 12.5 20.211M433.204 30.092v48.161c0 8.816-5.102 16.498-12.5 20.211a22.35 22.35 0 0 0 10.091 2.409c12.415 0 22.592-10.176 22.592-22.592V30.092c0-12.246-9.893-22.309-22.081-22.592h-1.049a22.65 22.65 0 0 0-9.553 2.381c7.397 3.714 12.5 11.395 12.5 20.211"/><path fill="#d9eeff" d="M373.564 411.07c-9.354 35.093-23.725 66.784-41.895 93.43h135.124c15.307 0 27.836-12.529 27.836-27.836V171.57H356.16c7.795 17.433 14.23 36.199 19.077 55.956.708-.142-.397 183.515-1.673 183.544"/><path fill="#95d6a4" d="M126.85 309.379c7.591 0 13.777-6.186 13.777-13.777v-47.376c0-7.591-6.185-13.777-13.777-13.777H86.56c-7.591 0-13.777 6.186-13.777 13.777v47.376c0 7.591 6.185 13.777 13.777 13.777zM236.136 309.379c7.563 0 13.777-6.186 13.777-13.777v-47.376c0-7.591-6.214-13.777-13.777-13.777h-40.318c-7.563 0-13.777 6.186-13.777 13.777v47.376c0 7.591 6.214 13.777 13.777 13.777zM126.85 425.557c7.591 0 13.777-6.186 13.777-13.777v-47.376c0-7.591-6.185-13.777-13.777-13.777H86.56c-7.591 0-13.777 6.186-13.777 13.777v47.376c0 7.591 6.185 13.777 13.777 13.777zM236.136 425.557c7.563 0 13.777-6.186 13.777-13.777v-47.376c0-7.591-6.214-13.777-13.777-13.777h-40.318c-7.563 0-13.777 6.186-13.777 13.777v47.376c0 7.591 6.214 13.777 13.777 13.777z"/><path fill="#375e7d" d="M376.434 409.755c15.829.028 31.771 2.952 47.825 8.8v-33.234l-25.501-13.299v-34.33l57.187 13.243-.056-24.602c-.028-5.567-2.165-6.354-6.72-8.969l-.084-.056-22.802-13.074-27.525-15.801v-28.988c0-12.287-10.037-31.884-22.324-31.884s-22.324 19.597-22.324 31.884v28.988l-27.525 15.801-22.83 13.074-.056.056c-4.555 2.615-6.72 3.402-6.72 8.969l-.056 24.602 57.187-13.243v34.33l-25.501 13.299v33.234c16.054-5.848 31.996-8.772 47.825-8.8"/><path fill="#2b4d66" d="m426.283 304.234-27.525-15.801v-28.988c0-12.287-10.037-31.884-22.324-31.884-.731 0-1.462.056-2.165.197 6.776 27.526 10.431 57.048 10.431 87.78 0 33.149-4.274 64.893-12.09 94.275 1.265-.028 2.559-.056 3.824-.056 15.829.028 31.771 2.952 47.825 8.8v-33.234l-25.501-13.299v-34.33l57.187 13.243-.056-24.602c-.028-5.567-2.165-6.354-6.72-8.969l-.084-.056z"/></g><path d="M494.629 50.088h-33.743V30.092C460.886 13.5 447.387 0 430.794 0s-30.091 13.5-30.091 30.092v19.996h-56.347V30.092C344.356 13.5 330.857 0 314.265 0s-30.092 13.5-30.092 30.092v19.996h-56.346V30.092C227.827 13.5 214.328 0 197.735 0s-30.092 13.5-30.092 30.092v19.996h-56.347V30.092C111.297 13.5 97.798 0 81.206 0c-16.608 0-30.12 13.5-30.12 30.092v19.996H17.343c-9.56 0-17.336 7.777-17.336 17.336v94.309c0 6.871 4.027 12.803 9.836 15.606v299.324C9.843 496.148 25.694 512 45.179 512h421.614c19.484 0 35.336-15.852 35.336-35.336V177.345c5.825-2.801 9.864-8.736 9.864-15.612V67.425c0-9.56-7.79-17.337-17.364-17.337m-78.926-19.996c0-8.322 6.77-15.092 15.091-15.092s15.092 6.771 15.092 15.092v48.189c0 8.322-6.771 15.092-15.092 15.092s-15.091-6.771-15.091-15.092zm-116.53 0c0-8.322 6.771-15.092 15.092-15.092s15.092 6.771 15.092 15.092v48.189c0 8.322-6.771 15.092-15.092 15.092s-15.092-6.771-15.092-15.092zm-116.529 0c0-8.322 6.771-15.092 15.092-15.092s15.092 6.771 15.092 15.092v48.189c0 8.322-6.771 15.092-15.092 15.092s-15.092-6.771-15.092-15.092zm-116.558 0C66.086 21.77 72.869 15 81.206 15c8.321 0 15.091 6.771 15.091 15.092v48.189c0 8.322-6.77 15.092-15.091 15.092-8.337 0-15.12-6.771-15.12-15.092zM17.343 65.088h33.743v13.193c0 16.593 13.512 30.092 30.12 30.092 16.592 0 30.091-13.5 30.091-30.092V65.088h56.347v13.193c0 16.593 13.499 30.092 30.092 30.092s30.092-13.5 30.092-30.092V65.088h56.346v13.193c0 16.593 13.499 30.092 30.092 30.092s30.092-13.5 30.092-30.092V65.088h56.347v13.193c0 16.593 13.499 30.092 30.091 30.092 16.593 0 30.092-13.5 30.092-30.092V65.088h33.743c1.281 0 2.364 1.07 2.364 2.336v60.248H15.007V67.425c0-1.267 1.069-2.337 2.336-2.337M466.793 497H45.179c-11.213 0-20.336-9.123-20.336-20.336V179.07h212.604c4.143 0 7.5-3.358 7.5-7.5s-3.357-7.5-7.5-7.5H17.343c-1.267 0-2.336-1.07-2.336-2.336v-19.061h481.986v19.061c0 1.267-1.083 2.336-2.364 2.336H275.006c-4.143 0-7.5 3.358-7.5 7.5s3.357 7.5 7.5 7.5h212.123v297.594c0 11.213-9.123 20.336-20.336 20.336"/><path d="M263.39 232.243a7.5 7.5 0 0 0-10.565.931l-.798.952c-3.9-4.391-9.57-7.177-15.891-7.177h-40.317c-11.731 0-21.276 9.545-21.276 21.277v47.376c0 11.732 9.545 21.277 21.276 21.277h40.317c11.732 0 21.277-9.545 21.277-21.277v-44.551l6.907-8.242a7.5 7.5 0 0 0-.93-10.566m-20.977 63.359a6.284 6.284 0 0 1-6.277 6.277h-40.317a6.283 6.283 0 0 1-6.276-6.277v-47.376a6.283 6.283 0 0 1 6.276-6.277h40.317c2.701 0 5.002 1.718 5.886 4.116l-21.749 25.952-6.73-5.7a7.5 7.5 0 1 0-9.693 11.446l12.483 10.572a7.5 7.5 0 0 0 5.486 1.75 7.5 7.5 0 0 0 5.109-2.655l15.486-18.48v26.652zM453.861 311.346l-47.543-27.281v-24.646c0-15.859-12.523-39.384-29.824-39.384-17.3 0-29.823 23.525-29.823 39.384v24.646l-47.569 27.295c-4.26 2.413-9.562 5.417-9.562 14.931l-.056 24.602a7.502 7.502 0 0 0 9.192 7.324l47.995-11.115v20.348l-21.469 11.196a7.5 7.5 0 0 0-4.032 6.65v33.234a7.5 7.5 0 0 0 10.067 7.047c15.133-5.513 30.363-8.321 45.244-8.347 14.906.026 30.138 2.834 45.271 8.347a7.497 7.497 0 0 0 10.067-7.047v-33.234a7.5 7.5 0 0 0-4.032-6.65l-21.469-11.196v-20.348l47.995 11.115a7.5 7.5 0 0 0 9.192-7.324l-.057-24.623c-.048-9.515-5.337-12.514-9.587-14.924m-53.35 19.015a7.497 7.497 0 0 0-9.192 7.307v34.331a7.5 7.5 0 0 0 4.032 6.65l21.469 11.196v18.338c-13.467-3.93-26.989-5.928-40.338-5.952-13.328.023-26.846 2.022-40.312 5.952v-18.338l21.469-11.196a7.5 7.5 0 0 0 4.032-6.65v-34.331a7.5 7.5 0 0 0-9.192-7.307l-47.974 11.109s.046-15.741.061-15.925c.484-.315 53.34-30.633 53.34-30.633a7.5 7.5 0 0 0 3.766-6.504V259.42c0-10.255 8.589-24.384 14.823-24.384s14.824 14.129 14.824 24.384v28.988a7.5 7.5 0 0 0 3.766 6.504s52.847 30.315 53.333 30.632c.017.187-.01 15.908-.01 15.908zM126.851 226.949h-40.29c-11.731 0-21.276 9.545-21.276 21.277v47.376c0 11.732 9.545 21.277 21.276 21.277h40.29c11.731 0 21.276-9.545 21.276-21.277v-47.376c0-11.732-9.545-21.277-21.276-21.277m6.276 68.653a6.283 6.283 0 0 1-6.276 6.277h-40.29a6.283 6.283 0 0 1-6.276-6.277v-47.376a6.283 6.283 0 0 1 6.276-6.277h40.29a6.283 6.283 0 0 1 6.276 6.277zM126.851 343.126h-40.29c-11.731 0-21.276 9.545-21.276 21.277v47.376c0 11.732 9.545 21.277 21.276 21.277h40.29c11.731 0 21.276-9.545 21.276-21.277v-47.376c0-11.732-9.545-21.277-21.276-21.277m6.276 68.653a6.283 6.283 0 0 1-6.276 6.277h-40.29a6.283 6.283 0 0 1-6.276-6.277v-47.376a6.283 6.283 0 0 1 6.276-6.277h40.29a6.283 6.283 0 0 1 6.276 6.277zM236.136 343.126h-40.317c-11.731 0-21.276 9.545-21.276 21.277v47.376c0 11.732 9.545 21.277 21.276 21.277h40.317c11.732 0 21.277-9.545 21.277-21.277v-47.376c0-11.732-9.545-21.277-21.277-21.277m6.277 68.653a6.284 6.284 0 0 1-6.277 6.277h-40.317a6.283 6.283 0 0 1-6.276-6.277v-47.376a6.283 6.283 0 0 1 6.276-6.277h40.317a6.284 6.284 0 0 1 6.277 6.277z"/></svg>