<svg xmlns="http://www.w3.org/2000/svg" width="512" height="512"><path fill="#c38c66" fill-rule="evenodd" d="M8.414 72.895v373.948c0 11.509 9.411 20.92 20.919 20.92h157.461v-39.912L113.775 91.859V51.976H29.333c-11.508 0-20.919 9.411-20.919 20.919" clip-rule="evenodd"/><path fill="#ffd772" fill-rule="evenodd" d="m103.769 91.859 70.723 11.339 73.614-11.339V51.721c0-6.18-5.046-11.225-11.225-11.225h-27.949c0-18.17-14.683-32.939-32.853-32.995h-.284c-18.17.057-32.881 14.825-32.881 32.995h-27.949c-6.151 0-11.197 5.046-11.197 11.225z" clip-rule="evenodd"/><path fill="#c38c66" fill-rule="evenodd" d="M303.55 243.173 319.169 267l24.292-23.827V72.895c0-11.509-9.411-20.92-20.919-20.92h-74.436L227 71.5z" clip-rule="evenodd"/><path fill="#eff6ff" fill-rule="evenodd" d="M48.296 100.93v317.85c0 4.989 4.082 9.071 9.099 9.071h129.398L303.55 243.173V100.93c0-4.989-4.082-9.071-9.071-9.071H57.395c-5.017 0-9.099 4.082-9.099 9.071" clip-rule="evenodd"/><path fill="#95d6a4" fill-rule="evenodd" d="M88.207 136.59v43.824c0 2.636 2.183 4.819 4.819 4.819h43.823c2.636 0 4.819-2.183 4.819-4.819V136.59c0-2.636-2.183-4.819-4.819-4.819H93.026c-2.636 0-4.819 2.183-4.819 4.819M88.207 237.957v43.824c0 2.636 2.183 4.819 4.819 4.819h43.823c2.636 0 4.819-2.183 4.819-4.819v-43.824c0-2.665-2.183-4.819-4.819-4.819H93.026c-2.636.001-4.819 2.155-4.819 4.819M88.207 339.325v43.824c0 2.636 2.183 4.819 4.819 4.819h43.823c2.636 0 4.819-2.183 4.819-4.819v-43.824c0-2.665-2.183-4.819-4.819-4.819H93.026c-2.636 0-4.819 2.154-4.819 4.819" clip-rule="evenodd"/><path fill="#d9eeff" fill-rule="evenodd" d="M122.222 387.967c-16.441 16.753-34.44 30.274-53.092 39.884h117.663l.028-120.331c-3.543 0-6.406-2.891-6.406-6.406v-2.665c-10.403 25.058-23.612 47.651-38.749 67.181v17.518c0 2.636-2.183 4.819-4.819 4.819zM207.515 243.173h96.035V100.93c0-4.989-4.082-9.071-9.071-9.071H243.4c6.01 57.742-23.555 139.919-35.885 151.314" clip-rule="evenodd"/><path fill="#78c2a4" fill-rule="evenodd" d="M104.223 379.322a315 315 0 0 1-8.731 8.646h41.356c2.636 0 4.819-2.183 4.819-4.819v-43.825c0-1.559-.737-2.92-1.871-3.798-10.176 15.222-22.053 29.934-35.573 43.796M104.223 277.954a315 315 0 0 1-8.731 8.646h41.356c2.636 0 4.819-2.183 4.819-4.819v-43.824c0-1.559-.737-2.92-1.871-3.798-10.176 15.222-22.053 29.934-35.573 43.795M104.223 176.587a315 315 0 0 1-8.731 8.646h41.356c2.636 0 4.819-2.183 4.819-4.819V136.59a4.82 4.82 0 0 0-1.871-3.798c-10.176 15.222-22.053 29.934-35.573 43.795" clip-rule="evenodd"/><path fill="#b57f5f" fill-rule="evenodd" d="M303.55 100.93v142.243h39.911V72.895c0-11.509-9.411-20.92-20.919-20.92h-27.637c.737 12.756.737 26.107-.028 39.912 4.818.199 8.673 4.196 8.673 9.043" clip-rule="evenodd"/><path fill="#fbba58" fill-rule="evenodd" d="M170.155 91.859h77.95V51.721c0-6.18-5.046-11.225-11.225-11.225h-27.949c0-18.17-14.683-32.939-32.853-32.995h-.284c-1.814 0-3.572.142-5.301.425 8.929 11.14 14.343 25.767 14.343 41.783.002 16.185-5.554 30.982-14.681 42.15" clip-rule="evenodd"/><path fill="#eff6ff" fill-rule="evenodd" d="M186.794 307.52v178.867c0 9.95 8.164 18.113 18.113 18.113h274.189c9.949 0 18.085-8.164 18.085-18.113V307.52l-153.72-20.92z" clip-rule="evenodd"/><path fill="#eb5468" fill-rule="evenodd" d="M180.416 249.58v51.534c0 3.515 2.863 6.406 6.406 6.406H497.18c3.487 0 6.378-2.835 6.406-6.321v-51.704c-.028-3.487-2.92-6.321-6.406-6.321H186.822c-3.543-.001-6.406 2.891-6.406 6.406" clip-rule="evenodd"/><path fill="#e5384f" fill-rule="evenodd" d="M397.573 243.173c6.378 20.183 10.715 41.783 12.614 64.347h86.993c3.487 0 6.378-2.835 6.406-6.321v-51.704c-.028-3.487-2.92-6.321-6.406-6.321h-34.553v9.468c0 10.261-8.419 18.68-18.68 18.68-10.29 0-18.68-8.419-18.68-18.68v-9.468z" clip-rule="evenodd"/><path fill="#ffd772" fill-rule="evenodd" d="M221.376 243.173v9.468c0 10.261 8.39 18.68 18.68 18.68s18.68-8.419 18.68-18.68v-23.358c0-10.261-8.39-18.68-18.68-18.68s-18.68 8.419-18.68 18.68zM425.267 243.173v9.468c0 10.261 8.39 18.68 18.68 18.68 10.261 0 18.68-8.419 18.68-18.68v-23.358c0-10.261-8.419-18.68-18.68-18.68-10.29 0-18.68 8.419-18.68 18.68z" clip-rule="evenodd"/><path fill="#fbba58" fill-rule="evenodd" d="M231.722 212.559c6.151 3.09 10.375 9.439 10.375 16.724v23.358c0 7.285-4.224 13.635-10.375 16.724a18.8 18.8 0 0 0 8.334 1.956c10.29 0 18.68-8.419 18.68-18.68v-23.358c0-10.261-8.39-18.68-18.68-18.68a18.8 18.8 0 0 0-8.334 1.956M435.613 212.559c6.151 3.09 10.375 9.439 10.375 16.724v23.358c0 7.285-4.224 13.635-10.375 16.724a18.8 18.8 0 0 0 8.334 1.956c10.261 0 18.68-8.419 18.68-18.68v-23.358c0-10.261-8.419-18.68-18.68-18.68a18.8 18.8 0 0 0-8.334 1.956" clip-rule="evenodd"/><path fill="#b57f5f" fill-rule="evenodd" d="M146.684 427.851c-15.137 15.562-30.585 28.942-46.034 39.912h86.143v-39.912z" clip-rule="evenodd"/><path fill="#d9eeff" fill-rule="evenodd" d="M432.013 360.046c-4.677 56.466-8.475 108.057-54.169 144.454h101.251c9.949 0 18.085-8.164 18.085-18.113V307.52H186.794l.028 25.569h208.2c29.253-.001 39.599-4.564 36.991 26.957" clip-rule="evenodd"/><path d="M93.026 192.733h43.823c6.792 0 12.319-5.526 12.319-12.319V136.59c0-6.792-5.526-12.319-12.319-12.319H93.026c-6.792 0-12.319 5.526-12.319 12.319v43.824c0 6.793 5.526 12.319 12.319 12.319m2.681-53.462h38.46v38.461h-38.46zM93.026 294.1h43.823c6.792 0 12.319-5.526 12.319-12.319v-43.824c0-6.792-5.526-12.319-12.319-12.319H93.026c-6.792 0-12.319 5.526-12.319 12.319v43.824c0 6.793 5.526 12.319 12.319 12.319m2.681-53.461h38.46V279.1h-38.46zM93.026 395.467h43.823c6.792 0 12.319-5.526 12.319-12.319v-43.824c0-6.792-5.526-12.319-12.319-12.319H93.026c-6.792 0-12.319 5.526-12.319 12.319v43.824c0 6.793 5.526 12.319 12.319 12.319m2.681-53.461h38.46v38.461h-38.46zM173.953 181.763h66.159a7.5 7.5 0 0 0 0-15h-66.159a7.5 7.5 0 0 0 0 15M173.953 150.241h89.686a7.5 7.5 0 0 0 0-15h-89.686a7.5 7.5 0 0 0 0 15M272.967 339.694a7.5 7.5 0 0 0-10.546 1.132l-23.371 28.992-9.144-8.057a7.5 7.5 0 1 0-9.917 11.253l15.023 13.238a7.5 7.5 0 0 0 10.797-.92l28.289-35.093a7.5 7.5 0 0 0-1.131-10.545M297.881 373.499h28.289a7.5 7.5 0 0 0 0-15h-28.289a7.5 7.5 0 0 0 0 15M386.773 358.499h-28.289a7.5 7.5 0 0 0 0 15h28.289a7.5 7.5 0 0 0 0-15M250.231 442.49h-28.289a7.5 7.5 0 0 0 0 15h28.289a7.5 7.5 0 0 0 0-15M451.543 442.49h-28.289a7.5 7.5 0 0 0 0 15h28.289a7.5 7.5 0 0 0 0-15M333.57 423.685a7.5 7.5 0 0 0-10.546 1.132l-23.371 28.992-9.144-8.057a7.5 7.5 0 1 0-9.917 11.253l15.023 13.238a7.5 7.5 0 0 0 10.797-.92l28.289-35.093a7.5 7.5 0 0 0-1.131-10.545M386.773 442.49h-28.289a7.5 7.5 0 0 0 0 15h28.289a7.5 7.5 0 0 0 0-15M470.083 339.694a7.5 7.5 0 0 0-10.546 1.132l-23.371 28.992-9.144-8.057a7.5 7.5 0 1 0-9.917 11.253l15.023 13.238a7.5 7.5 0 0 0 10.797-.92l28.289-35.093a7.5 7.5 0 0 0-1.131-10.545"/><path d="M497.18 235.673h-27.054v-6.39c0-14.436-11.744-26.18-26.18-26.18s-26.18 11.745-26.18 26.18v6.39H350.96V72.896c0-15.671-12.749-28.42-28.419-28.42h-68.396c-2.838-6.737-9.507-11.48-17.264-11.48h-21.146C212.208 14.237 195.704 0 175.937 0c-19.78 0-36.296 14.237-39.826 32.996h-21.146c-7.746 0-14.405 4.743-17.239 11.48H29.333c-15.67 0-28.419 12.749-28.419 28.42v373.948c0 15.67 12.749 28.419 28.419 28.419h149.961v11.124c0 14.123 11.49 25.613 25.613 25.613h274.188c14.107 0 25.585-11.49 25.585-25.613V312.806c3.847-2.476 6.406-6.787 6.406-11.693V249.58c0-7.668-6.238-13.907-13.906-13.907m-64.413-6.39c0-6.165 5.016-11.18 11.18-11.18s11.18 5.016 11.18 11.18v23.358c0 6.165-5.015 11.18-11.18 11.18s-11.18-5.016-11.18-11.18zM335.961 72.896v162.778H311.05V100.93c0-9.137-7.434-16.571-16.57-16.571h-38.874V59.476h66.936c7.399 0 13.419 6.02 13.419 13.42M111.269 51.721c0-2.019 1.693-3.725 3.697-3.725h27.949a7.5 7.5 0 0 0 7.5-7.5c0-14.058 11.45-25.496 25.523-25.496 14.058 0 25.494 11.438 25.494 25.496a7.5 7.5 0 0 0 7.5 7.5h27.949a3.73 3.73 0 0 1 3.725 3.725V84.36H111.269zM29.333 460.263c-7.399 0-13.419-6.02-13.419-13.419V72.896c0-7.4 6.02-13.42 13.419-13.42h66.936V84.36H57.396c-9.153 0-16.599 7.434-16.599 16.571v140.826a7.5 7.5 0 0 0 15 0V100.93c0-.852.732-1.571 1.599-1.571H294.48c.851 0 1.57.719 1.57 1.571v134.743h-29.814v-6.39c0-14.436-11.744-26.18-26.18-26.18s-26.18 11.745-26.18 26.18v6.39h-27.053c-7.668 0-13.906 6.238-13.906 13.906v51.534c0 4.894 2.547 9.196 6.378 11.675V420.35H57.396c-.867 0-1.599-.72-1.599-1.571V276.396a7.5 7.5 0 0 0-15 0V418.78c0 9.137 7.446 16.571 16.599 16.571h121.898v24.912zm221.902-230.98v23.358c0 6.165-5.015 11.18-11.18 11.18s-11.18-5.016-11.18-11.18v-23.358c0-6.165 5.016-11.18 11.18-11.18s11.18 5.016 11.18 11.18M479.095 497H204.907c-5.852 0-10.613-4.761-10.613-10.613V315.02h130.997a7.5 7.5 0 0 0 0-15H187.916v-49.347h25.959v1.968c0 14.436 11.745 26.18 26.18 26.18s26.18-11.744 26.18-26.18v-1.968h151.531v1.968c0 14.436 11.744 26.18 26.18 26.18s26.18-11.744 26.18-26.18v-1.968h25.96v49.347H359.93a7.5 7.5 0 0 0 0 15h129.75v171.367c0 5.852-4.748 10.613-10.585 10.613"/></svg>