<svg xmlns="http://www.w3.org/2000/svg" width="512" height="512"><path fill="#eff6ff" fill-rule="evenodd" d="m168.992 289.718-16.213 60.265 16.213 84.983 94.647 12.784 79.34-12.784 10.601-76.677-10.601-68.571-86.993-12.756z" clip-rule="evenodd"/><path fill="#375e7d" fill-rule="evenodd" d="M130.442 289.718h38.55v145.248h-38.55z" clip-rule="evenodd"/><path fill="#ffd772" fill-rule="evenodd" d="M231.495 357.75c0 13.521 10.97 24.491 24.491 24.491 13.549 0 24.519-10.97 24.519-24.491 0-13.55-10.97-24.52-24.519-24.52-13.521 0-24.491 10.97-24.491 24.52" clip-rule="evenodd"/><path fill="#375e7d" fill-rule="evenodd" d="M342.979 289.718h38.55v145.248h-38.55z" clip-rule="evenodd"/><path fill="#9fd4fe" fill-rule="evenodd" d="M91.041 255.986v178.98h39.401v-178.98H91.041" clip-rule="evenodd"/><path fill="#c38c66" fill-rule="evenodd" d="M120.464 55.689V297.91h271.07V55.689h-50.767c-12.387 0-17.206.198-27.864-5.244-17.092-8.702-36.424-13.606-56.918-13.606s-39.826 4.904-56.918 13.606c-10.658 5.443-15.477 5.244-27.864 5.244z" clip-rule="evenodd"/><path fill="#9fd4fe" fill-rule="evenodd" d="M91.041 51.976v188.561h39.400999999999996V52.004H92.374c-.454 0-.907 0-1.333-.028M381.529 54.584v187.314h39.429V54.527c-.454.028-.907.057-1.361.057zM381.529 293.46v133.314h39.429V255.986h-39.429z" clip-rule="evenodd"/><path fill="#375e7d" fill-rule="evenodd" d="M122.392 466.119v19.191c0 10.545 8.645 19.191 19.19 19.191h228.807c10.573 0 19.19-8.646 19.19-19.191v-19.191l-125.94-18.369z" clip-rule="evenodd"/><path fill="#eff6ff" fill-rule="evenodd" d="M171.657 172.449c0 46.545 37.728 84.274 84.244 84.274 46.544 0 84.272-37.729 84.272-84.274s-37.728-84.246-84.272-84.246c-46.516 0-84.244 37.701-84.244 84.246" clip-rule="evenodd"/><path fill="#85beef" fill-rule="evenodd" d="M130.442 426.774V261.683h-19.701v165.09h19.701zM420.958 426.774v-165.09h-19.729v165.09z" clip-rule="evenodd"/><path fill="#ffd772" fill-rule="evenodd" d="M72.702 46.023c0 10.8 8.844 19.673 19.672 19.673h78.829c12.387 0 17.206.17 27.864-5.244 17.092-8.702 36.424-13.635 56.918-13.635s39.826 4.932 56.918 13.635c10.658 5.414 15.477 5.244 27.864 5.244h78.829c10.828 0 19.672-8.872 19.672-19.673 0-10.828-8.844-19.673-19.672-19.673h-74.181c-11.962 0-12.132-.113-22.818-4.847-20.805-9.184-43.34-13.975-66.3-14.003h-.624a164.4 164.4 0 0 0-66.272 14.003c-10.686 4.734-10.856 4.847-22.847 4.847h-74.18c-10.828 0-19.672 8.845-19.672 19.673" clip-rule="evenodd"/><path fill="#fbba58" fill-rule="evenodd" d="M420.958 65.639c10.176-.709 18.311-9.269 18.311-19.616 0-10.828-8.844-19.673-19.672-19.673h-37.955c10.771.057 19.559 8.872 19.559 19.673s-8.844 19.673-19.672 19.673h38.068c.454-.001.907-.029 1.361-.057" clip-rule="evenodd"/><path fill="#ffd772" fill-rule="evenodd" d="M75.82 246.235c0 8.419 6.831 15.307 15.222 15.449h39.400999999999996c8.39-.142 15.222-7.03 15.222-15.449s-6.831-15.335-15.222-15.449H91.041c-8.39.113-15.221 7.03-15.221 15.449M381.529 230.786c-8.39.113-15.222 7.03-15.222 15.449s6.831 15.307 15.222 15.449h39.429c8.39-.142 15.193-7.03 15.193-15.449s-6.803-15.335-15.193-15.449h-39.202000000000005z" clip-rule="evenodd"/><path fill="#fbba58" fill-rule="evenodd" d="M130.442 261.683c8.39-.142 15.222-7.03 15.222-15.449s-6.831-15.335-15.222-15.449h-19.616c8.362.17 15.137 7.03 15.137 15.449s-6.831 15.307-15.222 15.449h19.474zM420.958 261.683c8.39-.142 15.193-7.03 15.193-15.449s-6.803-15.335-15.193-15.449h-19.644c8.362.17 15.137 7.03 15.137 15.449s-6.831 15.307-15.222 15.449h19.474z" clip-rule="evenodd"/><path fill="#b57f5f" fill-rule="evenodd" d="M171.203 89.025c12.387 0 17.206.198 27.864-5.244 17.092-8.702 36.424-13.606 56.918-13.606s39.826 4.904 56.918 13.606c10.658 5.443 15.477 5.244 27.864 5.244h40.761v-23.33h-40.761c-12.387 0-17.206.17-27.864-5.244-17.092-8.702-36.424-13.635-56.918-13.635s-39.826 4.932-56.918 13.635c-10.658 5.414-15.477 5.244-27.864 5.244h-40.761v23.329h40.761z" clip-rule="evenodd"/><path fill="#d9eeff" fill-rule="evenodd" d="M255.901 96.707c30.188 12.813 51.363 42.718 51.363 77.584s-21.174 64.772-51.363 77.584a84 84 0 0 1-11.792 4.025c3.855.539 7.795.822 11.792.822 46.544 0 84.272-37.729 84.272-84.274s-37.728-84.246-84.272-84.246c-7.285 0-14.343.907-21.089 2.636a83.3 83.3 0 0 1 21.089 5.869" clip-rule="evenodd"/><path fill="#2b4d66" fill-rule="evenodd" d="M130.442 297.91h38.55v24.123h-38.55z" clip-rule="evenodd"/><path fill="#d9eeff" fill-rule="evenodd" d="M168.992 297.91v24.123h173.987V297.91h-86.993z" clip-rule="evenodd"/><path fill="#2b4d66" fill-rule="evenodd" d="M342.979 297.91h38.55v24.123h-38.55z" clip-rule="evenodd"/><path fill="#ffd772" fill-rule="evenodd" d="M90.758 426.774c-10.828 0-19.672 8.844-19.672 19.672 0 10.8 8.844 19.673 19.672 19.673h330.483c10.8 0 19.672-8.872 19.672-19.673 0-10.828-8.872-19.672-19.672-19.672h-330.2z" clip-rule="evenodd"/><path fill="#fbba58" fill-rule="evenodd" d="M421.241 466.119c10.8 0 19.672-8.872 19.672-19.673 0-10.828-8.872-19.672-19.672-19.672h-28.657c10.8 0 19.644 8.844 19.644 19.672 0 10.772-8.787 19.616-19.559 19.673zM247.822 334.647c9.496 3.373 16.327 12.444 16.327 23.102s-6.831 19.729-16.327 23.102a24.3 24.3 0 0 0 8.164 1.389c13.549 0 24.519-10.97 24.519-24.491 0-13.55-10.97-24.52-24.519-24.52a24.4 24.4 0 0 0-8.164 1.418" clip-rule="evenodd"/><path fill="#85beef" fill-rule="evenodd" d="M130.442 127.661V65.695H92.374c-.454 0-.907-.028-1.332-.057v23.386h10.261c10.856 0 9.439 7.2 9.439 17.745v124.016h19.701V127.661zM420.958 230.786V65.639c-.454.028-.907.057-1.361.057h-38.068v23.329h8.305c7.653 0 11.395-.198 11.395 8.192v133.569h19.474z" clip-rule="evenodd"/><path fill="#2b4d66" fill-rule="evenodd" d="M343.943 466.119v19.191c0 10.545-8.645 19.191-19.218 19.191h45.665c10.573 0 19.19-8.646 19.19-19.191v-19.191z" clip-rule="evenodd"/><path d="M248.545 175.105a7.5 7.5 0 0 0 6.958 4.702h22.053c4.143 0 7.5-3.358 7.5-7.5s-3.357-7.5-7.5-7.5h-16.985l-15.229-37.875a7.5 7.5 0 0 0-9.757-4.16 7.5 7.5 0 0 0-4.16 9.757z"/><path d="M255.901 264.223c50.603 0 91.772-41.169 91.772-91.774 0-50.589-41.169-91.746-91.772-91.746-50.587 0-91.744 41.157-91.744 91.746 0 50.604 41.156 91.774 91.744 91.774m-69.703-99.416h-6.659c1.542-15.526 7.726-29.706 17.147-41.125l4.626 4.613a7.48 7.48 0 0 0 5.296 2.189 7.5 7.5 0 0 0 5.296-12.81l-4.592-4.579c11.423-9.369 25.588-15.509 41.09-17.02v6.5a7.5 7.5 0 0 0 15 0v-6.5c15.509 1.51 29.679 7.65 41.107 17.019l-4.588 4.588a7.5 7.5 0 0 0 .001 10.606 7.47 7.47 0 0 0 5.303 2.197c1.92 0 3.839-.732 5.304-2.197l4.609-4.609c9.425 11.419 15.613 25.601 17.156 41.128h-6.659c-4.143 0-7.5 3.358-7.5 7.5s3.357 7.5 7.5 7.5h6.681c-1.487 15.566-7.636 29.79-17.038 41.253l-4.741-4.754a7.5 7.5 0 0 0-10.606-.015 7.5 7.5 0 0 0-.015 10.607l4.774 4.788c-11.458 9.454-25.698 15.647-41.286 17.166v-6.841c0-4.142-3.357-7.5-7.5-7.5s-7.5 3.358-7.5 7.5v6.84c-15.582-1.519-29.816-7.713-41.269-17.167l4.779-4.779a7.5 7.5 0 0 0 0-10.606 7.5 7.5 0 0 0-10.606 0l-4.758 4.758c-9.397-11.463-15.542-25.685-17.029-41.249h6.681a7.5 7.5 0 1 0-.004-15.001"/><path d="M428.458 420.254v-61.54c0-4.142-3.357-7.5-7.5-7.5s-7.5 3.358-7.5 7.5v60.56h-24.429v-150.09h24.429v54.891c0 4.142 3.357 7.5 7.5 7.5s7.5-3.358 7.5-7.5v-56.242c8.848-3.187 15.193-11.664 15.193-21.598s-6.345-18.41-15.193-21.597V71.704c10.644-3.683 18.312-13.8 18.312-25.681 0-14.983-12.189-27.172-27.172-27.172h-74.181c-10.289 0-10.289 0-19.551-4.103l-.237-.104C303.635 4.927 280.203 0 255.986 0c-24.228 0-47.651 4.927-69.622 14.646l-.228.101c-9.263 4.104-9.263 4.104-19.581 4.104H92.374c-14.982 0-27.172 12.189-27.172 27.172 0 11.891 7.681 22.015 18.339 25.69v58.867a7.5 7.5 0 0 0 15 0V73.195h24.401v150.09H98.541v-58.094a7.5 7.5 0 0 0-15 0v59.436c-8.863 3.18-15.222 11.663-15.222 21.607s6.358 18.428 15.222 21.607v152.413c-11.49 3.17-19.955 13.708-19.955 26.192 0 14.983 12.189 27.172 27.172 27.172h24.134v11.691c0 14.717 11.973 26.69 26.69 26.69H370.39c14.717 0 26.689-11.973 26.689-26.69v-11.691h24.163c14.982 0 27.172-12.189 27.172-27.172 0-12.484-8.466-23.022-19.956-26.192m-77.979-.98V305.41h23.55v113.864zm-173.987 0V305.41h71.993v21.217c-14.032 3.388-24.491 16.052-24.491 31.123 0 15.057 10.459 27.709 24.491 31.095v9.271a7.5 7.5 0 0 0 15 0v-9.269c14.048-3.383 24.519-16.037 24.519-31.096 0-15.073-10.471-27.738-24.519-31.124V305.41h71.993v113.864zm-38.55 0V305.41h23.55v113.864zm-39.401 0v-150.09h24.401v150.09zm157.445-44.533c-9.369 0-16.991-7.622-16.991-16.991 0-9.385 7.622-17.02 16.991-17.02 9.384 0 17.019 7.635 17.019 17.02 0 9.369-7.635 16.991-17.019 16.991m164.717-120.557h-38.947c-4.383 0-7.948-3.566-7.948-7.949s3.565-7.949 7.948-7.949h38.947c4.383 0 7.948 3.566 7.948 7.949s-3.565 7.949-7.948 7.949m-7.245-180.989v150.09h-24.429V73.195zM92.374 33.851h74.181c12.861 0 14.06-.252 25.657-5.389l.224-.099C212.479 19.496 233.861 15 255.986 15c22.117 0 43.509 4.496 63.576 13.361l.229.102c11.595 5.136 12.793 5.388 25.626 5.388h74.181c6.712 0 12.172 5.46 12.172 12.172s-5.46 12.172-12.172 12.172h-79.934c-11.24 0-14.629.006-23.358-4.428-18.834-9.589-39.129-14.451-60.321-14.451s-41.487 4.862-60.315 14.448c-8.734 4.437-12.132 4.43-23.364 4.431H92.372c-6.711 0-12.172-5.46-12.172-12.172s5.462-12.172 12.174-12.172M172.3 73.196c12.141-.002 18.226.007 30.17-6.061 16.706-8.505 34.711-12.818 53.516-12.818s36.809 4.312 53.522 12.821c11.598 5.892 17.676 6.058 29.135 6.058h35.386v151.432c-8.863 3.179-15.222 11.663-15.222 21.607s6.359 18.428 15.222 21.607v22.569H137.942v-22.569c8.863-3.179 15.222-11.663 15.222-21.607s-6.358-18.427-15.222-21.607V73.196zm-81.032 165.09h38.947c4.383 0 7.948 3.566 7.948 7.949s-3.565 7.949-7.948 7.949H91.268c-4.383 0-7.949-3.566-7.949-7.949.001-4.383 3.566-7.949 7.949-7.949M382.079 485.31c0 6.446-5.244 11.69-11.689 11.69H141.582c-6.446 0-11.69-5.244-11.69-11.69v-11.691h252.187zm39.163-26.691H90.758c-6.711 0-12.172-5.46-12.172-12.172s5.46-12.172 12.172-12.172h330.484c6.712 0 12.172 5.46 12.172 12.172s-5.46 12.172-12.172 12.172"/></svg>