<svg xmlns="http://www.w3.org/2000/svg" width="512" height="512"><path fill="#b57f5f" fill-rule="evenodd" d="M23.239 261.343V428.73l65.224 75.77h335.075l65.195-75.77V261.343c-14.145 18.681-451.321 18.681-465.494 0" clip-rule="evenodd"/><path fill="#ffd772" fill-rule="evenodd" d="M23.239 428.73v61.002c0 8.107 6.661 14.769 14.768 14.769h50.455v-43.143c0-17.943-14.655-32.627-32.598-32.627H23.239zM423.538 461.357V504.5h50.455c8.107 0 14.74-6.661 14.74-14.769V428.73h-32.598c-17.942 0-32.597 14.683-32.597 32.627M76.642 107.393v28.772h71.828v-28.772c0-10.347-8.447-18.794-18.765-18.794H95.407c-10.318 0-18.765 8.448-18.765 18.794M363.501 107.393v28.772h71.828v-28.772c0-10.347-8.447-18.794-18.765-18.794h-34.269999999999996c-10.346 0-18.793 8.448-18.793 18.794" clip-rule="evenodd"/><path fill="#9f6e50" fill-rule="evenodd" d="M23.239 304.77c14.173 18.68 36.566 30.813 61.68 30.813h22.705a150 150 0 0 1-.935-16.809c0-9.099.794-17.972 2.353-26.617H84.92c-25.114 0-47.508-12.132-61.68-30.813zM402.959 292.156c1.559 8.646 2.353 17.518 2.353 26.617 0 5.698-.312 11.31-.935 16.809h22.677c25.823 0 29.083-2.296 29.083 23.953v69.194h32.598V261.343c-14.145 18.68-36.566 30.813-61.68 30.813z" clip-rule="evenodd"/><path fill="#fbba58" fill-rule="evenodd" d="M456.135 428.73v61.002c0 8.107-6.633 14.769-14.768 14.769h32.626c8.107 0 14.74-6.661 14.74-14.769V428.73z" clip-rule="evenodd"/><path fill="#c38c66" fill-rule="evenodd" d="M7.592 214.798c0 17.433 5.839 33.562 15.647 46.545 14.173 18.68 36.566 30.813 61.68 30.813h342.134c25.114 0 47.536-12.132 61.68-30.813 9.836-12.983 15.675-29.112 15.675-46.545v-73.361c0-8.419-6.888-15.279-15.278-15.279H22.87c-8.419 0-15.278 6.86-15.278 15.279z" clip-rule="evenodd"/><path fill="#95d6a4" fill-rule="evenodd" d="M106.689 318.773c0 82.46 66.839 149.33 149.297 149.33 82.486 0 149.326-66.87 149.326-149.33 0-9.099-.794-17.972-2.353-26.617-12.557-69.761-73.586-122.712-146.973-122.712-73.359 0-134.387 52.951-146.945 122.712-1.559 8.646-2.352 17.518-2.352 26.617" clip-rule="evenodd"/><path fill="#eff6ff" fill-rule="evenodd" d="M146.486 318.773c0 60.463 49.038 109.503 109.5 109.503 60.49 0 109.5-49.04 109.5-109.503s-49.01-109.503-109.5-109.503c-60.462.001-109.5 49.04-109.5 109.503m91.444-.198c0-9.978 8.079-18.085 18.056-18.085 10.006 0 18.085 8.107 18.085 18.085s-8.079 18.085-18.085 18.085c-9.978 0-18.056-8.107-18.056-18.085" clip-rule="evenodd"/><path fill="#b57f5f" fill-rule="evenodd" d="M432.58 214.798c0 17.433-5.839 33.562-15.675 46.545a78.2 78.2 0 0 1-17.234 16.668c1.332 4.62 2.409 9.354 3.288 14.145h24.094c25.114 0 47.536-12.132 61.68-30.813 9.836-12.983 15.675-29.112 15.675-46.545v-73.361c0-8.419-6.888-15.279-15.278-15.279h-71.828c8.39 0 15.278 6.86 15.278 15.279z" clip-rule="evenodd"/><path fill="#78c2a4" fill-rule="evenodd" d="M308.652 222.735c26.362 14.485 46.119 39.515 53.574 69.421a109.7 109.7 0 0 1 3.26 26.617c0 51.279-35.234 94.337-82.855 106.243-22.053 18.255-49.435 30.331-79.482 33.449 16.412 6.236 34.242 9.638 52.837 9.638 76.789 0 140.028-57.969 148.39-132.52.624-5.499.935-11.112.935-16.809 0-9.099-.794-17.972-2.353-26.617-.879-4.791-1.956-9.524-3.288-14.145-17.716-62.646-75.343-108.567-143.685-108.567-5.301 0-10.516.283-15.675.822 27.638 10.459 51.335 28.884 68.342 52.468" clip-rule="evenodd"/><path fill="#d9eeff" fill-rule="evenodd" d="M362.226 292.156c-7.455-29.906-27.212-54.936-53.574-69.421a148.6 148.6 0 0 1 15.675 27.496 146.5 146.5 0 0 1 10.063 33.109c.539 2.92.964 5.839 1.332 8.816a154 154 0 0 1 1.049 17.802c0 46.29-21.061 87.676-54.14 115.059 47.621-11.906 82.855-54.964 82.855-106.243 0-9.185-1.134-18.114-3.26-26.618" clip-rule="evenodd"/><path fill="#fbba58" fill-rule="evenodd" d="M148.47 107.393c0-10.347-8.447-18.794-18.765-18.794h-25.794c10.318 0 18.765 8.447 18.765 18.794v18.765h25.795v-18.765zM390.77 88.599c10.318 0 18.765 8.447 18.765 18.794v18.765h25.794999999999998v-18.765c0-10.347-8.447-18.794-18.765-18.794h-17.149z" clip-rule="evenodd"/><path fill="#ffd772" fill-rule="evenodd" d="M237.93 318.575c0 9.978 8.079 18.085 18.056 18.085 10.006 0 18.085-8.107 18.085-18.085s-8.079-18.085-18.085-18.085c-9.978 0-18.056 8.107-18.056 18.085" clip-rule="evenodd"/><path d="M511.908 141.438c0-12.56-10.219-22.779-22.778-22.779h-46.301v-11.266c0-14.498-11.782-26.293-26.265-26.293h-9.649V43.5c0-23.986-19.501-43.5-43.471-43.5H148.556c-23.985 0-43.499 19.514-43.499 43.5v37.6h-9.649c-14.483 0-26.266 11.795-26.266 26.293v11.266H22.87c-12.56 0-22.778 10.219-22.778 22.779v73.361c0 18.25 5.809 35.159 15.646 49.014v225.919c0 12.279 9.989 22.269 22.269 22.269h435.986c12.264 0 22.24-9.99 22.24-22.269V263.845c9.855-13.861 15.675-30.782 15.675-49.046zm-84.079-34.045v11.266h-56.828v-11.266c0-6.227 5.066-11.293 11.294-11.293h34.27c6.21 0 11.264 5.066 11.264 11.293M120.057 43.5c0-15.715 12.784-28.5 28.499-28.5h214.889c15.699 0 28.471 12.785 28.471 28.5v37.6h-9.62c-14.498 0-26.294 11.795-26.294 26.293v11.266h-200.03v-11.266c0-14.498-11.782-26.293-26.266-26.293h-9.648V43.5zm-35.915 63.893c0-6.227 5.054-11.293 11.266-11.293h34.298c6.212 0 11.266 5.066 11.266 11.293v11.266h-56.83zm.777 192.263h15.437a158 158 0 0 0-1.167 19.117c0 86.476 70.339 156.83 156.797 156.83 86.475 0 156.826-70.354 156.826-156.83 0-6.471-.402-12.849-1.167-19.117h15.408c20.582 0 39.472-7.371 54.181-19.606v141.179h-25.098c-22.11 0-40.098 18.001-40.098 40.127V497H95.962v-35.644c0-22.126-17.987-40.127-40.098-40.127H30.738V280.035c14.707 12.243 33.597 19.621 54.181 19.621m312.893 19.117c0 78.205-63.623 141.83-141.826 141.83-78.188 0-141.797-63.625-141.797-141.83s63.609-141.83 141.797-141.83c78.202.001 141.826 63.625 141.826 141.83M30.738 489.731v-53.502h25.126c13.839 0 25.098 11.272 25.098 25.127V497H38.007c-3.941 0-7.269-3.329-7.269-7.269M473.993 497h-42.955v-35.644c0-13.855 11.259-25.127 25.098-25.127h25.098v53.502c-.001 3.94-3.316 7.269-7.241 7.269m22.915-282.202c0 15.451-5.05 29.739-13.575 41.32a7.6 7.6 0 0 0-1.036 1.36c-12.788 16.516-32.789 27.178-55.245 27.178h-17.99c-15.618-70.125-78.317-122.712-153.078-122.712-74.746 0-137.434 52.588-153.049 122.712H84.919c-22.504 0-42.543-10.716-55.321-27.304q-.376-.6-.854-1.119c-8.572-11.601-13.652-25.934-13.652-41.435v-73.361c0-4.289 3.489-7.779 7.778-7.779h466.26c4.289 0 7.778 3.49 7.778 7.779z"/><path d="M297.115 311.075h-16.669c-3.213-10.459-12.963-18.085-24.461-18.085a26 26 0 0 0-2.973.179l-13.489-32.358a7.501 7.501 0 0 0-13.846 5.772l13.61 32.649c-5.419 4.695-8.858 11.623-8.858 19.344 0 14.107 11.464 25.585 25.556 25.585 11.499 0 21.248-7.626 24.461-18.085h16.669a7.5 7.5 0 0 0 0-15.001m-41.13 18.085c-5.82 0-10.556-4.749-10.556-10.585s4.735-10.585 10.556-10.585c5.837 0 10.585 4.749 10.585 10.585s-4.748 10.585-10.585 10.585"/><path d="M255.985 201.771c-64.514 0-116.999 52.487-116.999 117.003s52.485 117.002 116.999 117.002 117-52.487 117-117.002c0-64.516-52.486-117.003-117-117.003m90.622 124.304h11.114c-1.6 22.515-10.538 43.033-24.433 59.17l-7.911-7.911a7.5 7.5 0 0 0-10.606 0 7.5 7.5 0 0 0 .001 10.606l7.929 7.929c-16.126 13.974-36.666 22.982-59.216 24.629V409.17c0-4.142-3.357-7.5-7.5-7.5s-7.5 3.358-7.5 7.5v11.329c-22.543-1.646-43.076-10.649-59.2-24.616l7.942-7.942c2.93-2.929 2.93-7.677.001-10.606s-7.678-2.93-10.606 0l-7.926 7.926c-13.902-16.139-22.845-36.663-24.446-59.186h11.142c4.143 0 7.5-3.358 7.5-7.5s-3.357-7.5-7.5-7.5h-11.117c1.685-22.47 10.68-42.935 24.609-59.013l7.731 7.748a7.48 7.48 0 0 0 5.309 2.202 7.5 7.5 0 0 0 5.309-12.798l-7.724-7.741c16.09-13.858 36.537-22.787 58.976-24.426v10.932c0 4.142 3.357 7.5 7.5 7.5s7.5-3.358 7.5-7.5v-10.932c22.447 1.639 42.9 10.574 58.992 24.439l-7.711 7.727a7.5 7.5 0 0 0 10.618 10.596l7.716-7.732c13.922 16.076 22.912 36.535 24.597 58.998h-11.089c-4.143 0-7.5 3.358-7.5 7.5s3.357 7.5 7.499 7.5"/></svg>