<svg xmlns="http://www.w3.org/2000/svg" width="512" height="512"><path fill="#9fd4fe" fill-rule="evenodd" d="m60.877 293.617-11.339 12.048 11.339 19.673 30.954 14.712 77.67-14.712v-22.309c0-12.246-10.148-20.523-22.28-22.281l-55.899-8.164c-15.847-2.297-30.445 1.048-30.445 21.033" clip-rule="evenodd"/><path fill="#eff6ff" fill-rule="evenodd" d="M50.87 325.338v66.843h170.363v-66.843h-51.732z" clip-rule="evenodd"/><path fill="#ffd772" fill-rule="evenodd" d="m257.46 298.946-10.63 70.471 10.63 106.274h119.084c9.78-9.751 9.78-25.598 0-35.349-9.751-9.751-9.751-25.569 0-35.349 9.78-9.751 9.78-25.569 0-35.349-9.751-9.751-9.751-25.569 0-35.349 9.78-9.751 9.78-25.569 0-35.349z" clip-rule="evenodd"/><path fill="#ffd772" fill-rule="evenodd" d="M394.289 369.645c9.751 9.78 9.751 25.598 0 35.349-9.751 9.78-9.751 25.598 0 35.349s9.751 25.598 0 35.349h56.807V298.946h-56.807c9.751 9.78 9.751 25.598 0 35.349-9.752 9.78-9.752 25.598 0 35.35" clip-rule="evenodd"/><path fill="#c38c66" fill-rule="evenodd" d="M451.095 298.946v195.739c0 2.665 2.183 4.819 4.819 4.819h43.767c2.636 0 4.819-2.183 4.819-4.819V289.337c0-2.636-2.183-4.819-4.819-4.819h-43.767c-2.636 0-4.819 2.183-4.819 4.819z" clip-rule="evenodd"/><path fill="#eb5468" fill-rule="evenodd" d="M366.537 369.645c9.78 9.78 9.78 25.598 0 35.349-9.751 9.78-9.751 25.598 0 35.349 9.78 9.751 9.78 25.598 0 35.349h37.758c9.751-9.751 9.751-25.598 0-35.349-9.78-9.751-9.78-25.569 0-35.349 9.751-9.751 9.751-25.569 0-35.349-9.78-9.751-9.78-25.569 0-35.349 9.751-9.751 9.751-25.569 0-35.349h-37.758c9.78 9.78 9.78 25.598 0 35.349-9.751 9.779-9.751 25.597 0 35.349" clip-rule="evenodd"/><path fill="#c38c66" fill-rule="evenodd" d="M7.5 223.287v271.397c0 2.665 2.154 4.819 4.791 4.819h43.767a4.814 4.814 0 0 0 4.819-4.819v-37.985h150.35l16.696-36.681-16.696-37.844H60.877V223.287c0-2.636-2.154-4.791-4.819-4.791H12.291a4.804 4.804 0 0 0-4.791 4.791" clip-rule="evenodd"/><path fill="#9fd4fe" fill-rule="evenodd" d="M211.227 325.338v131.361c0 10.46 8.532 18.993 18.992 18.993h27.241V298.946h-27.241c-10.46 0-18.992 8.561-18.992 19.021z" clip-rule="evenodd"/><path fill="#85beef" fill-rule="evenodd" d="M139.453 308.471H60.877v16.867h108.624v-22.309c0-12.246-10.148-20.523-22.28-22.281l-19.502-2.835c12.104 1.758 22.28 10.007 22.28 22.281-.001 7.965-1.532 8.277-10.546 8.277" clip-rule="evenodd"/><path fill="#d9eeff" fill-rule="evenodd" d="M177.579 360.091H60.877v22.083h150.35v-56.836h-24.463v20.864c0 9.212.708 13.889-9.185 13.889" clip-rule="evenodd"/><path fill="#85beef" fill-rule="evenodd" d="M257.46 443.688c-1.049.085-2.098.142-3.175.227-12.756.794-25.087.425-36.794-.992a221 221 0 0 1-6.265-.879V456.7c0 10.46 8.532 18.993 18.992 18.993h27.241z" clip-rule="evenodd"/><path fill="#fbba58" fill-rule="evenodd" d="M257.46 443.688v32.004h109.078c9.78-9.751 9.78-25.598 0-35.349-9.298-9.298-9.723-24.124-1.276-33.932-26.532 17.944-59.131 30.899-94.337 35.803-4.536.623-9.015 1.134-13.465 1.474" clip-rule="evenodd"/><path fill="#e5384f" fill-rule="evenodd" d="M366.537 440.343c9.78 9.751 9.78 25.598 0 35.349h37.757c9.751-9.751 9.751-25.598 0-35.349-9.78-9.751-9.78-25.569 0-35.349 9.524-9.525 9.751-24.861.624-34.669a135 135 0 0 1-5.584 6.577c-4.876 5.471-10.233 10.715-16.016 15.704a202 202 0 0 1-18.057 13.805c-8.447 9.808-8.021 24.634 1.276 33.932" clip-rule="evenodd"/><path fill="#fbba58" fill-rule="evenodd" d="M404.295 440.343c9.751 9.751 9.751 25.598 0 35.349h46.8V298.946h-18.68v.34c0 24.889-10.148 49.438-27.496 71.038 9.128 9.808 8.901 25.144-.624 34.669-9.78 9.78-9.78 25.598 0 35.35" clip-rule="evenodd"/><path fill="#b57f5f" fill-rule="evenodd" d="M186.764 382.174v74.525h24.463v-74.525zM482.616 289.337v205.348c0 2.636-2.183 4.819-4.819 4.819h21.884c2.636 0 4.819-2.183 4.819-4.819V289.337c0-2.636-2.183-4.819-4.819-4.819h-21.884c2.637 0 4.819 2.182 4.819 4.819" clip-rule="evenodd"/><path fill="#95d6a4" fill-rule="evenodd" d="m199.916 247.779 84.926-7.824c41.556 15.194 89.972 6.123 123.307-27.213 45.836-45.809 45.836-120.079 0-165.888-45.808-45.809-120.076-45.809-165.884 0-33.959 33.932-42.747 83.511-26.362 125.579z" clip-rule="evenodd"/><path fill="#eff6ff" fill-rule="evenodd" d="M242.294 129.628c0 45.894 37.191 83.086 83.084 83.086s83.084-37.192 83.084-83.086-37.191-83.086-83.084-83.086-83.084 37.192-83.084 83.086" clip-rule="evenodd"/><path fill="#d9eeff" fill-rule="evenodd" d="M371.498 126.765c0 32.628-18.765 60.833-46.12 74.44a83.2 83.2 0 0 1-24.747 7.767c7.824 2.438 16.129 3.742 24.747 3.742 45.893 0 83.084-37.192 83.084-83.086s-37.191-83.086-83.084-83.086c-4.139 0-8.221.312-12.189.879a86 86 0 0 1 12.189 4.904c27.355 13.606 46.12 41.84 46.12 74.44" clip-rule="evenodd"/><path fill="#78c2a4" fill-rule="evenodd" d="M317.243 12.752c23.414 10.262 43.143 27.61 56.636 49.409 20.948 15.081 34.583 39.686 34.583 67.467 0 26.845-12.728 50.742-32.513 65.936-12.926 22.423-32.315 40.48-55.559 51.45 31.606 1.276 63.638-10.12 87.761-34.272 45.836-45.809 45.836-120.079 0-165.888-24.918-24.946-58.281-36.313-90.908-34.102" clip-rule="evenodd"/><path d="M499.681 277.018h-43.767c-6.793 0-12.319 5.526-12.319 12.319v2.11H230.219c-14.564 0-26.419 11.828-26.489 26.392h-26.729v-14.81c0-15.041-11.805-27.255-28.697-29.702l-55.908-8.165c-9.696-1.405-17.736-.686-24.019 2.118v-43.992c0-6.777-5.526-12.291-12.319-12.291H12.291C5.514 210.997 0 216.51 0 223.287v271.397c0 6.792 5.514 12.319 12.291 12.319h43.767c6.793 0 12.319-5.526 12.319-12.319v-30.485h36.578c4.143 0 7.5-3.358 7.5-7.5s-3.357-7.5-7.5-7.5H60.877a7.5 7.5 0 0 0-7.5 7.5v35.304H15V225.997h38.377v156.177a7.5 7.5 0 0 0 7.5 7.5h142.85v59.525h-64.16c-4.143 0-7.5 3.358-7.5 7.5s3.357 7.5 7.5 7.5h65.248c3.243 10.966 13.402 18.993 25.404 18.993h213.376v11.493c0 6.792 5.526 12.319 12.319 12.319h43.767c6.793 0 12.319-5.526 12.319-12.319V289.336c0-6.792-5.526-12.318-12.319-12.318m-100.69 51.974c-6.152 6.153-9.537 14.325-9.53 23.012.006 8.673 3.394 16.824 9.522 22.936 6.816 6.836 6.819 17.939.008 24.75-6.152 6.153-9.537 14.325-9.53 23.012.006 8.673 3.394 16.824 9.53 22.943 6.133 6.133 6.733 15.715 1.838 22.546h-21.085a32.5 32.5 0 0 0 1.628-10.174c0-8.689-3.388-16.852-9.531-22.978-6.812-6.812-6.809-17.915-.008-24.735 6.146-6.127 9.533-14.278 9.539-22.951.007-8.687-3.379-16.859-9.531-23.012-6.812-6.812-6.809-17.915-.008-24.735 6.146-6.127 9.533-14.278 9.539-22.951a32.5 32.5 0 0 0-1.632-10.209h21.083c4.889 6.842 4.291 16.423-1.832 22.546m-134.031 139.2V306.446h98.119a17.35 17.35 0 0 1 3.293 10.198c-.003 4.662-1.825 9.045-5.146 12.356-12.646 12.684-12.643 33.296.009 45.948 3.316 3.317 5.142 7.719 5.138 12.395-.003 4.663-1.825 9.045-5.146 12.356-12.646 12.684-12.643 33.296.016 45.956a17.34 17.34 0 0 1 5.131 12.364 17.3 17.3 0 0 1-3.289 10.174zM72.062 282.481c3.309-2.863 9.598-3.719 18.175-2.477l55.908 8.165c7.893 1.144 15.856 6.181 15.856 14.858v14.81H68.377v-24.221c0-5.272 1.239-9.019 3.685-11.135m-3.685 92.193v-41.836h135.35v41.836zm150.35 82.025V317.967c0-6.353 5.155-11.521 11.492-11.521h19.741v161.746h-19.741c-6.337 0-11.492-5.156-11.492-11.493M497 492.003h-38.405v-88.796c0-4.142-3.357-7.5-7.5-7.5s-7.5 3.358-7.5 7.5v64.984h-26.126c3.699-11.281 1.08-24.202-7.878-33.16a17.33 17.33 0 0 1-5.13-12.34c-.004-4.676 1.821-9.078 5.138-12.395 12.65-12.652 12.654-33.264-.008-45.963a17.33 17.33 0 0 1-5.13-12.34c-.004-4.676 1.821-9.078 5.138-12.395 8.943-8.944 11.557-21.865 7.858-33.152h26.138v62.149c0 4.142 3.357 7.5 7.5 7.5s7.5-3.358 7.5-7.5v-76.578H497z"/><path d="M199.915 255.279q.344 0 .689-.032l83.274-7.671c45.076 15.781 95.762 4.283 129.575-29.531l-.002.001c23.586-23.572 36.575-54.913 36.575-88.249s-12.989-64.677-36.573-88.248c-23.572-23.572-54.912-36.554-88.246-36.554-33.335 0-64.674 12.982-88.243 36.552-34.465 34.437-45.669 85.812-28.854 131.479l-15.531 73.195a7.5 7.5 0 0 0 7.336 9.058m22.979-85.565c-15.803-40.646-6.118-86.789 24.676-117.558 20.738-20.739 48.311-32.16 77.639-32.16s56.9 11.421 77.641 32.162c20.751 20.739 32.179 48.312 32.179 77.64s-11.428 56.901-32.179 77.64l-.002.001c-20.906 20.907-49.139 32.117-77.845 32.115a109.4 109.4 0 0 1-37.584-6.643 7.5 7.5 0 0 0-3.263-.424l-74.788 6.89 13.874-65.388a7.5 7.5 0 0 0-.348-4.275"/><path d="M325.378 220.214c49.948 0 90.584-40.637 90.584-90.586s-40.636-90.586-90.584-90.586-90.583 40.637-90.583 90.586 40.636 90.586 90.583 90.586m-68.74-98.228h-6.458c1.533-15.203 7.591-29.089 16.802-40.291l4.478 4.478a7.48 7.48 0 0 0 5.304 2.197 7.5 7.5 0 0 0 5.304-12.803l-4.462-4.462c11.209-9.167 25.085-15.186 40.272-16.689v6.299c0 4.142 3.357 7.5 7.5 7.5s7.5-3.358 7.5-7.5v-6.299c15.187 1.503 29.064 7.521 40.273 16.689l-4.462 4.462a7.5 7.5 0 0 0 5.304 12.803 7.48 7.48 0 0 0 5.304-2.197l4.479-4.479c9.211 11.202 15.269 25.088 16.802 40.291h-6.458c-4.143 0-7.5 3.358-7.5 7.5s3.357 7.5 7.5 7.5h6.48c-1.479 15.239-7.501 29.166-16.693 40.408l-4.617-4.604a7.5 7.5 0 0 0-10.591 10.622l4.62 4.607c-11.237 9.243-25.178 15.309-40.439 16.819v-6.611c0-4.142-3.357-7.5-7.5-7.5s-7.5 3.358-7.5 7.5v6.611c-15.261-1.51-29.202-7.577-40.439-16.82l4.62-4.608a7.5 7.5 0 0 0-10.591-10.621l-4.616 4.604c-9.192-11.243-15.214-25.169-16.693-40.408h6.479a7.5 7.5 0 1 0-.002-14.998"/><path d="M318.023 132.286a7.5 7.5 0 0 0 6.958 4.7h21.741c4.143 0 7.5-3.358 7.5-7.5s-3.357-7.5-7.5-7.5h-16.675l-15.003-37.282a7.5 7.5 0 0 0-13.916 5.6z"/></svg>