<svg xmlns="http://www.w3.org/2000/svg" width="512" height="512"><path fill="#eff6ff" fill-rule="evenodd" d="M45.2 504.5h421.6c15.3 0 27.8-12.5 27.8-27.8V171.6H17.3v305.1c0 15.3 12.6 27.8 27.9 27.8" clip-rule="evenodd"/><path fill="#9fd4fe" fill-rule="evenodd" d="M17.3 171.6h477.3c5.4 0 9.8-4.3 9.9-9.6v-26.8H7.5V162c.1 5.3 4.5 9.6 9.8 9.6" clip-rule="evenodd"/><path fill="#eb5468" fill-rule="evenodd" d="M7.5 135.2h497v-68c-.1-5.3-4.5-9.6-9.9-9.6h-41.2v20.7c0 12.4-10.2 22.6-22.6 22.6s-22.6-10.2-22.6-22.6V57.6h-71.3v20.7c0 12.4-10.2 22.6-22.6 22.6s-22.6-10.2-22.6-22.6V57.6h-71.3v20.7c0 12.4-10.2 22.6-22.6 22.6s-22.6-10.2-22.6-22.6V57.6h-71.3v20.7c0 12.4-10.2 22.6-22.6 22.6S58.7 90.7 58.7 78.3V57.6H17.3c-5.4 0-9.8 4.3-9.8 9.7v.2z" clip-rule="evenodd"/><path fill="#e5384f" fill-rule="evenodd" d="M363.8 57.6c13.2 23.3 24.6 49.4 34 77.6h106.7v-68c-.1-5.3-4.5-9.6-9.9-9.6h-41.2v20.7c0 12.4-10.2 22.6-22.6 22.6s-22.6-10.2-22.6-22.6V57.6z" clip-rule="evenodd"/><path fill="#85beef" fill-rule="evenodd" d="M397.8 135.2c3.9 11.8 7.5 23.9 10.6 36.4h86.2c5.4 0 9.8-4.3 9.9-9.6v-26.8z" clip-rule="evenodd"/><path fill="#ffd772" fill-rule="evenodd" d="M58.6 78.3c0 12.4 10.2 22.6 22.6 22.6s22.6-10.2 22.6-22.6V30.1c0-12.4-10.2-22.6-22.6-22.6S58.6 17.6 58.6 30.1v27.5zM175.1 78.3c0 12.4 10.1 22.6 22.6 22.6 12.4 0 22.6-10.2 22.6-22.6V30.1c0-12.4-10.2-22.6-22.6-22.6s-22.6 10.1-22.6 22.6v27.5zM291.7 78.3c0 12.4 10.1 22.6 22.6 22.6 12.4 0 22.6-10.2 22.6-22.6V30.1c0-12.4-10.2-22.6-22.6-22.6s-22.6 10.1-22.6 22.6v27.5zM408.2 30.1v48.2c0 12.4 10.2 22.6 22.6 22.6s22.6-10.2 22.6-22.6V30.1c0-12.4-10.2-22.6-22.6-22.6s-22.6 10.1-22.6 22.6" clip-rule="evenodd"/><path fill="#fbba58" fill-rule="evenodd" d="M198.1 30.1v48.2c0 8.4-4.6 15.8-11.5 19.6 3.3 1.9 7.1 2.9 11.1 2.9 12.4 0 22.6-10.2 22.6-22.6V30.1c0-12.4-10.2-22.6-22.6-22.6-4 0-7.8 1-11.1 2.9 6.9 3.9 11.5 11.3 11.5 19.7M81.6 30.1v48.2c0 8.4-4.6 15.8-11.5 19.6 3.3 1.9 7.1 2.9 11.1 2.9 12.4 0 22.6-10.2 22.6-22.6V30.1c0-12.4-10.2-22.6-22.6-22.6-4 0-7.8 1-11.1 2.9 6.9 3.9 11.5 11.3 11.5 19.7M314.7 30.1v48.2c0 8.4-4.6 15.8-11.5 19.6 3.3 1.9 7.1 2.9 11.1 2.9 12.4 0 22.6-10.2 22.6-22.6V30.1c0-12.4-10.2-22.6-22.6-22.6-4 0-7.8 1-11.1 2.9 6.8 3.9 11.5 11.3 11.5 19.7M431.2 30.1v48.2c0 8.4-4.6 15.8-11.5 19.6 3.3 1.9 7.1 2.9 11.1 2.9 12.4 0 22.6-10.2 22.6-22.6V30.1c0-12.4-10.2-22.6-22.6-22.6-4 0-7.8 1-11.1 2.9 6.8 3.9 11.5 11.3 11.5 19.7" clip-rule="evenodd"/><path fill="#9fd4fe" fill-rule="evenodd" d="M296.8 299.5V345h52.7v-50.7h-47.6c-2.8 0-5.1 2.3-5.1 5.2M349.6 294.3h52.8V345h-52.8z" clip-rule="evenodd"/><path fill="#9fd4fe" fill-rule="evenodd" d="M402.3 294.3V345H455v-45.6c0-2.8-2.3-5.1-5.1-5.1zM402.3 345.1H455v50.7h-52.7z" clip-rule="evenodd"/><path fill="#9fd4fe" fill-rule="evenodd" d="M349.6 345.1h52.8v50.7h-52.8zM296.8 345.1h52.7v50.7h-52.7zM296.8 395.8v45.6c0 2.8 2.3 5.1 5.1 5.1h47.6v-50.7z" clip-rule="evenodd"/><path fill="#eb5468" fill-rule="evenodd" d="M349.6 395.8h52.8v50.7h-52.8z" clip-rule="evenodd"/><path fill="#9fd4fe" fill-rule="evenodd" d="M402.3 395.8v50.7h47.6c2.8 0 5.1-2.3 5.1-5.1v-45.6z" clip-rule="evenodd"/><path fill="#85beef" fill-rule="evenodd" d="M420.9 294.3c2.4 16.4 4 33.4 4.6 50.7H455v-45.6c0-2.8-2.3-5.1-5.1-5.1zM425.5 345.1c.3 6.4.4 12.9.4 19.4 0 10.6-.3 21-1 31.3H455v-50.7z" clip-rule="evenodd"/><path fill="#85beef" fill-rule="evenodd" d="M425 395.8c-1.1 17.4-3.1 34.3-5.9 50.7H450c2.8 0 5.1-2.3 5.1-5.1v-45.6z" clip-rule="evenodd"/><path fill="#d9eeff" fill-rule="evenodd" d="M412.3 250.4c3.5 14.2 6.4 28.8 8.6 43.9h29c2.8 0 5.1 2.3 5.1 5.1v141.9c0 2.8-2.3 5.1-5.1 5.1H419c-3.5 20.2-8.2 39.6-14.1 58h61.9c15.3 0 27.8-12.5 27.8-27.8v-305H383.7c11.8 23.7 21.5 50.2 28.6 78.8" clip-rule="evenodd"/><path fill="#eb5468" fill-rule="evenodd" d="M79.7 284c-17.3 3.9-30 17.4-30 33.5s12.8 29.6 30 33.5c3.3.8 6.8 1.2 10.4 1.2 10.7 0 25.8-3.5 38.6-9.4 3.3-1.5 6.5-3.2 9.4-5 13.9-8.8 18.1-28.8 0-40.7-2.9-1.8-6.1-3.5-9.4-5-12.8-5.8-27.9-9.4-38.6-9.4-3.6.1-7.1.5-10.4 1.3" clip-rule="evenodd"/><path fill="#eb5468" fill-rule="evenodd" d="M120.5 243.5c-.7 3.2-1 6.5-1 10 0 10.7 3.5 25.8 9.4 38.6 17.1 26.9 40.3 22.6 50.6 0 5.8-12.8 9.4-28 9.4-38.6 0-3.5-.4-6.8-1.1-10C184 226 170.4 213 154.2 213c-16.3.1-29.9 13-33.7 30.5" clip-rule="evenodd"/><path fill="#95d6a4" fill-rule="evenodd" d="M85.5 249.2c-8.8 8.8-10.6 22.4-5.8 34.8 3.3-.8 6.8-1.2 10.4-1.2 10.7 0 25.8 3.5 38.6 9.4-5.8-12.8-9.4-28-9.4-38.6 0-3.5.4-6.8 1-10-12.3-5-25.9-3.2-34.8 5.6M79.7 351c-4.8 12.4-3 25.9 5.8 34.7 8.9 8.9 22.5 10.7 35 5.7-.7-3.2-1-6.5-1-10 0-10.7 3.5-25.8 9.4-38.6-12.8 5.8-27.9 9.4-38.6 9.4-3.8-.1-7.3-.5-10.6-1.2" clip-rule="evenodd"/><path fill="#eb5468" fill-rule="evenodd" d="M128.8 342.8c-5.8 12.8-9.4 28-9.4 38.6 0 3.5.4 6.8 1 10 3.8 17.5 17.4 30.5 33.6 30.5s29.8-13 33.6-30.5c.7-3.2 1.1-6.5 1.1-10 0-10.7-3.6-25.8-9.4-38.6-12.5-18.5-30.1-18.8-50.5 0" clip-rule="evenodd"/><path fill="#95d6a4" fill-rule="evenodd" d="M179.4 342.8c5.8 12.8 9.4 28 9.4 38.6 0 3.5-.4 6.8-1.1 10 12.4 5 26.1 3.2 35-5.7 8.8-8.8 10.6-22.4 5.8-34.7-3.3.8-6.8 1.2-10.4 1.2-10.8-.1-25.9-3.6-38.7-9.4" clip-rule="evenodd"/><path fill="#eb5468" fill-rule="evenodd" d="M169.9 337.8c2.9 1.8 6.1 3.5 9.4 5 12.8 5.8 27.9 9.4 38.6 9.4 3.6 0 7.1-.4 10.4-1.2 17.3-3.9 30-17.4 30-33.5 0-16-12.8-29.5-30-33.5-3.3-.8-6.8-1.2-10.4-1.2-10.7 0-25.8 3.5-38.6 9.4-3.3 1.5-6.5 3.2-9.4 5-14.1 9.6-14.1 29.7 0 40.6" clip-rule="evenodd"/><path fill="#95d6a4" fill-rule="evenodd" d="M188.7 253.5c0 10.7-3.5 25.8-9.4 38.6 12.8-5.8 27.9-9.4 38.6-9.4 3.6 0 7.1.4 10.4 1.2 4.8-12.4 3-25.9-5.8-34.8-8.9-8.9-22.5-10.6-35-5.7.9 3.3 1.2 6.7 1.2 10.1" clip-rule="evenodd"/><path fill="#ffd772" fill-rule="evenodd" d="M138.2 297.1c-6.1 4.7-9.9 12.1-9.9 20.3 0 8.3 3.9 15.6 9.9 20.4 4.4 3.4 9.9 5.5 15.8 5.5 6 0 11.5-2 15.9-5.5 6-4.7 9.9-12.1 9.9-20.4 0-8.2-3.9-15.6-9.9-20.3-4.4-3.4-9.9-5.5-15.9-5.5-5.9.1-11.4 2.1-15.8 5.5" clip-rule="evenodd"/><path fill="#e5384f" fill-rule="evenodd" d="M177.5 328.3c-1.7 3.7-4.3 7-7.5 9.5 2.9 1.8 6.1 3.5 9.4 5 12.8 5.8 27.9 9.4 38.6 9.4 3.6 0 7.1-.4 10.4-1.2 17.3-3.9 30-17.4 30-33.5 0-2.2-.2-4.3-.7-6.3-15.3 31.6-59.7 25.3-78.3 18.1-.5-.3-1.3-.6-1.9-1M141.4 218.3c38.2-.2 30.9 51.8 26.1 77.2.8.5 1.6 1 2.4 1.7 2.9-1.8 6.1-3.5 9.4-5 5.8-12.8 9.4-28 9.4-38.6 0-3.5-.4-6.8-1.1-10-3.8-17.5-17.4-30.5-33.6-30.5-6.4 0-12.4 2-17.6 5.6 1.7-.3 3.8-.5 5-.4" clip-rule="evenodd"/><path fill="#fbba58" fill-rule="evenodd" d="M155.5 296.6c6 4.7 9.9 12.1 9.9 20.3 0 8.3-3.9 15.6-9.9 20.4-2.8 2.2-6 3.8-9.5 4.7 2.6.9 5.3 1.3 8.1 1.3 6 0 11.5-2 15.9-5.5 3.2-2.5 5.8-5.8 7.5-9.5 1.5-3.3 2.4-7 2.4-10.9 0-8.2-3.9-15.6-9.9-20.3-.8-.6-1.6-1.2-2.4-1.7-3.9-2.4-8.5-3.8-13.5-3.8-2.2 0-4.3.3-6.3.8 2.8 1 5.4 2.4 7.7 4.2" clip-rule="evenodd"/><path fill="#e5384f" fill-rule="evenodd" d="M128.8 342.8c-5.8 12.8-9.4 28-9.4 38.6 0 3.5.4 6.8 1 10 3.8 17.5 17.4 30.5 33.6 30.5 6.9 0 13.2-2.3 18.6-6.3-.9.1 5.8.1-2.7.1s-25.8-13-29.6-30.5c-.7-3.2-1-3.5-1-10s-1.2-22.6 3.6-34.5c-1.7-.8-3.3-1.8-4.7-2.9-2.9 1.8-6.1 3.5-9.4 5M79.7 284c-17.3 3.9-30 17.4-30 33.5 0 1.2.1 2.4.2 3.6 13.9-27.8 54.9-20.7 77.2-14.6 1 .5 2.1 1 3.1 1.4 1.7-4.3 4.5-8 8.1-10.8-2.9-1.8-6.1-3.5-9.4-5-12.8-5.8-27.9-9.4-38.6-9.4-3.8.1-7.3.5-10.6 1.3" clip-rule="evenodd"/><path d="M85.1 439c-4.1 0-7.5 3.4-7.5 7.5s3.4 7.5 7.5 7.5h138c4.1 0 7.5-3.4 7.5-7.5s-3.4-7.5-7.5-7.5zM289.3 441.4c0 7 5.7 12.6 12.6 12.6h148c6.9 0 12.6-5.7 12.6-12.6V299.5c0-7-5.7-12.6-12.6-12.6h-148c-6.9 0-12.6 5.7-12.6 12.6zm158.2-53.1h-37.7v-35.7h37.7zm-90.4-35.7h37.8v35.7h-37.8zm0 50.7h37.8V439h-37.8zm37.7-65.7H357v-35.7h37.8zm-52.7 50.7h-37.7v-35.7h37.7zm-37.8 15H342V439h-37.7zM409.8 439v-35.7h37.7V439zm37.7-101.4h-37.7v-35.7h37.7zm-105.4-35.8v35.7h-37.7v-35.7zM296.8 221.8h65.8c4.1 0 7.5-3.4 7.5-7.5s-3.4-7.5-7.5-7.5h-65.8c-4.1 0-7.5 3.4-7.5 7.5s3.4 7.5 7.5 7.5M296.8 257.9h131.7c4.1 0 7.5-3.4 7.5-7.5s-3.4-7.5-7.5-7.5H296.8c-4.1 0-7.5 3.4-7.5 7.5s3.4 7.5 7.5 7.5M266 317.5c0-17.1-11.6-31.8-28.3-38.4 2.7-13.2-.8-26.1-9.7-35.1-9-9-22-12.5-35.3-9.7-6.5-16.9-21.4-28.7-38.6-28.7s-32 11.8-38.6 28.7c-13.2-2.8-26.2.7-35.3 9.7-9 9-12.4 21.9-9.7 35.1-16.7 6.6-28.3 21.3-28.3 38.4s11.6 31.8 28.3 38.4c-2.7 13.2.8 26.1 9.7 35.1 7 7 16.4 10.7 26.4 10.7 2.9 0 5.9-.3 8.9-1 6.5 16.9 21.4 28.7 38.6 28.7s32.1-11.8 38.6-28.7c3 .6 6 1 8.9 1 10 0 19.4-3.7 26.4-10.7 9-9 12.4-21.9 9.8-35.1 16.5-6.6 28.2-21.3 28.2-38.4m-48.7-63c5.2 5.2 7.3 12.9 5.8 21-1.7-.2-3.4-.2-5.1-.2-7.7 0-16.9 1.6-26 4.3 2.7-9.2 4.2-18.4 4.2-26 0-1.6-.1-3.1-.2-4.7 8.2-1.6 16 .4 21.3 5.6m-63.2 81.3c-10.1 0-18.3-8.2-18.3-18.3 0-5.7 2.7-10.9 6.8-14.2 3.1-2.5 7.1-4.1 11.5-4.1 10.1 0 18.3 8.2 18.3 18.3s-8.2 18.3-18.3 18.3m0-115.2c15 0 27.2 14.8 27.2 33 0 9.1-3 22.1-7.6 33.1-1.2.6-2.3 1.1-3.4 1.7q-4.05-2.25-8.7-3.3v-19.8c0-4.1-3.4-7.5-7.5-7.5s-7.5 3.4-7.5 7.5V285c-3.1.7-6 1.8-8.6 3.3-1.1-.6-2.2-1.2-3.4-1.7-4.6-11-7.6-24-7.6-33.1-.1-18.1 12.1-32.9 27.1-32.9m-63.3 33.9c5.3-5.3 13.1-7.3 21.3-5.7-.1 1.5-.2 3.1-.2 4.7 0 7.6 1.5 16.9 4.2 26-9.1-2.7-18.3-4.3-26-4.3-1.7 0-3.4.1-5.1.2-1.4-7.9.6-15.6 5.8-20.9m-33.6 63c0-15 14.8-27.1 33-27.1 10.3 0 24.5 3.6 36.1 8.9-2.1 3.2-3.7 6.8-4.6 10.7h-19.8c-4.1 0-7.5 3.4-7.5 7.5s3.4 7.5 7.5 7.5h19.8c.9 3.9 2.5 7.5 4.6 10.7-11.6 5.3-25.8 8.9-36.1 8.9-18.2 0-33-12.1-33-27.1m33.6 62.9c-5.2-5.2-7.3-12.9-5.8-21 1.7.2 3.4.2 5.1.2 7.7 0 16.9-1.6 26-4.3-2.7 9.2-4.2 18.4-4.2 26 0 1.6.1 3.1.2 4.7-8.2 1.7-16-.3-21.3-5.6m63.3 34c-15 0-27.1-14.8-27.1-33 0-9.1 3-22.1 7.6-33.1 1.2-.6 2.3-1.1 3.4-1.7 2.7 1.5 5.6 2.6 8.6 3.3v19.8c0 4.1 3.4 7.5 7.5 7.5s7.5-3.4 7.5-7.5v-19.8q4.65-1.05 8.7-3.3c1.1.6 2.2 1.2 3.4 1.7 4.7 11.2 7.6 23.9 7.6 33.1 0 2.8-.3 5.5-.8 8.1-.1.2-.1.4-.1.6-3.3 14-13.8 24.3-26.3 24.3m63.2-34c-5.3 5.3-13.1 7.3-21.3 5.7.1-1.5.2-3.1.2-4.7 0-7.6-1.5-16.8-4.2-26 9.1 2.7 18.3 4.3 26 4.3 1.7 0 3.4-.1 5.1-.2 1.5 8-.5 15.7-5.8 20.9m.7-35.8c-10.3 0-24.5-3.6-36.1-8.9 2.1-3.2 3.7-6.8 4.6-10.7h19.8c4.1 0 7.5-3.4 7.5-7.5s-3.4-7.5-7.5-7.5h-19.8c-.9-3.9-2.5-7.5-4.6-10.7 11.6-5.3 25.8-8.9 36.1-8.9 18.2 0 33 12.2 33 27.1 0 15-14.8 27.1-33 27.1"/><path d="M494.6 50.1h-33.7v-20c0-16.6-13.5-30.1-30.1-30.1s-30.1 13.5-30.1 30.1v20h-56.3v-20c0-16.6-13.5-30.1-30.1-30.1s-30.1 13.5-30.1 30.1v20h-56.3v-20c0-16.6-13.5-30.1-30.1-30.1s-30.1 13.5-30.1 30.1v20h-56.3v-20C111.3 13.5 97.8 0 81.2 0S51.1 13.5 51.1 30.1v20H17.3C7.8 50.1 0 57.9 0 67.4v94.3c0 6.9 4 12.8 9.8 15.6v299.3c0 19.5 15.9 35.3 35.3 35.3h193.1c4.1 0 7.5-3.4 7.5-7.5s-3.4-7.5-7.5-7.5h-193c-11.2 0-20.3-9.1-20.3-20.3V179.1h212.5c4.1 0 7.5-3.4 7.5-7.5s-3.4-7.5-7.5-7.5h-220c-1.3 0-2.3-1.1-2.3-2.3v-19.1h482v19.1c0 1.3-1.1 2.3-2.4 2.3H274.4c-4.1 0-7.5 3.4-7.5 7.5s3.4 7.5 7.5 7.5h212.7v297.6c0 11.2-9.1 20.3-20.3 20.3H272c-4.1 0-7.5 3.4-7.5 7.5s3.4 7.5 7.5 7.5h194.8c19.5 0 35.3-15.9 35.3-35.3V177.3c5.8-2.8 9.9-8.7 9.9-15.6V67.4c0-9.5-7.8-17.3-17.4-17.3m-78.9-20c0-8.3 6.8-15.1 15.1-15.1s15.1 6.8 15.1 15.1v48.2c0 8.3-6.8 15.1-15.1 15.1s-15.1-6.8-15.1-15.1zm-116.5 0c0-8.3 6.8-15.1 15.1-15.1s15.1 6.8 15.1 15.1v48.2c0 8.3-6.8 15.1-15.1 15.1s-15.1-6.8-15.1-15.1zm-116.6 0c0-8.3 6.8-15.1 15.1-15.1s15.1 6.8 15.1 15.1v48.2c0 8.3-6.8 15.1-15.1 15.1s-15.1-6.8-15.1-15.1zm-116.5 0c0-8.3 6.8-15.1 15.1-15.1s15.1 6.8 15.1 15.1v48.2c0 8.3-6.8 15.1-15.1 15.1s-15.1-6.8-15.1-15.1zM15 127.7V67.4c0-1.3 1.1-2.3 2.3-2.3H51v13.2c0 16.6 13.5 30.1 30.1 30.1s30.1-13.5 30.1-30.1V65.1h56.3v13.2c0 16.6 13.5 30.1 30.1 30.1s30.1-13.5 30.1-30.1V65.1H284v13.2c0 16.6 13.5 30.1 30.1 30.1s30.1-13.5 30.1-30.1V65.1h56.3v13.2c0 16.6 13.5 30.1 30.1 30.1s30.1-13.5 30.1-30.1V65.1h33.7c1.3 0 2.4 1 2.4 2.3v60.2z"/></svg>