<svg xmlns="http://www.w3.org/2000/svg" width="512" height="512"><path fill="#eff6ff" fill-rule="evenodd" d="M45.178 504.5h421.643c15.307 0 27.807-12.529 27.807-27.836V171.57L256 152.532 17.343 171.57v305.094c0 15.307 12.529 27.836 27.835 27.836" clip-rule="evenodd"/><path fill="#9fd4fe" fill-rule="evenodd" d="M17.343 171.57h477.286c5.357 0 9.751-4.309 9.864-9.609v-26.788L253.18 114.579 7.507 135.173v26.731c.085 5.357 4.478 9.666 9.836 9.666" clip-rule="evenodd"/><path fill="#eb5468" fill-rule="evenodd" d="M7.507 135.173h496.987V67.198c-.113-5.301-4.507-9.609-9.864-9.609h-41.243v20.693c0 12.416-10.176 22.592-22.592 22.592s-22.592-10.176-22.592-22.592V57.588h-71.346v20.693c0 12.416-10.176 22.592-22.592 22.592-12.444 0-22.592-10.176-22.592-22.592V57.588h-71.346v20.693c0 12.416-10.176 22.592-22.592 22.592-12.444 0-22.592-10.176-22.592-22.592V57.588h-71.346v20.693c0 12.416-10.176 22.592-22.592 22.592-12.444 0-22.62-10.176-22.62-22.592V57.588H17.343c-5.357 0-9.751 4.337-9.836 9.666v.17z" clip-rule="evenodd"/><path fill="#e5384f" fill-rule="evenodd" d="M363.785 57.588c13.152 23.273 24.576 49.351 33.987 77.584h106.722V67.198c-.113-5.301-4.507-9.609-9.864-9.609h-41.243v20.693c0 12.416-10.176 22.592-22.592 22.592s-22.592-10.176-22.592-22.592V57.588z" clip-rule="evenodd"/><path fill="#85beef" fill-rule="evenodd" d="M397.771 135.173c3.912 11.764 7.455 23.924 10.63 36.397h86.228c5.357 0 9.751-4.309 9.864-9.609v-26.788z" clip-rule="evenodd"/><path fill="#ffd772" fill-rule="evenodd" d="M58.586 78.281c0 12.416 10.176 22.592 22.62 22.592 12.415 0 22.592-10.176 22.592-22.592V30.092c0-12.444-10.176-22.592-22.592-22.592-12.444 0-22.62 10.148-22.62 22.592v27.496zM175.144 78.281c0 12.416 10.148 22.592 22.592 22.592 12.415 0 22.592-10.176 22.592-22.592V30.092c0-12.444-10.176-22.592-22.592-22.592-12.444 0-22.592 10.148-22.592 22.592v27.496zM291.673 78.281c0 12.416 10.148 22.592 22.592 22.592 12.415 0 22.592-10.176 22.592-22.592V30.092c0-12.444-10.176-22.592-22.592-22.592-12.444 0-22.592 10.148-22.592 22.592v27.496zM408.203 30.092v48.189c0 12.416 10.176 22.592 22.592 22.592s22.592-10.176 22.592-22.592V30.092c0-12.444-10.176-22.592-22.592-22.592s-22.592 10.148-22.592 22.592" clip-rule="evenodd"/><path fill="#fbba58" fill-rule="evenodd" d="M198.132 30.092v48.189c0 8.391-4.649 15.761-11.508 19.644a22.4 22.4 0 0 0 11.112 2.948c12.415 0 22.592-10.176 22.592-22.592V30.092c0-12.444-10.176-22.592-22.592-22.592a22.4 22.4 0 0 0-11.112 2.92c6.859 3.883 11.508 11.253 11.508 19.672M81.603 30.092v48.189c0 8.391-4.649 15.761-11.508 19.644a22.4 22.4 0 0 0 11.112 2.948c12.415 0 22.592-10.176 22.592-22.592V30.092c0-12.444-10.176-22.592-22.592-22.592a22.4 22.4 0 0 0-11.112 2.92c6.859 3.883 11.508 11.253 11.508 19.672M314.662 30.092v48.189c0 8.391-4.649 15.761-11.48 19.644a22.24 22.24 0 0 0 11.083 2.948c12.415 0 22.592-10.176 22.592-22.592V30.092c0-12.444-10.176-22.592-22.592-22.592a22.4 22.4 0 0 0-11.112 2.92c6.86 3.883 11.509 11.253 11.509 19.672M431.191 30.092v48.189c0 8.391-4.649 15.761-11.48 19.644a22.24 22.24 0 0 0 11.083 2.948c12.415 0 22.592-10.176 22.592-22.592V30.092c0-12.444-10.176-22.592-22.592-22.592-4.025 0-7.823 1.049-11.083 2.92 6.831 3.883 11.48 11.253 11.48 19.672" clip-rule="evenodd"/><path fill="#9fd4fe" fill-rule="evenodd" d="M296.832 299.469v45.581h52.723v-50.712h-47.621c-2.806.001-5.102 2.297-5.102 5.131M349.555 294.339h52.751v50.712h-52.751zM402.307 294.339v50.712h52.723V299.47c0-2.835-2.296-5.131-5.102-5.131zM402.307 345.051h52.723v50.712h-52.723zM349.555 345.051h52.751v50.712h-52.751zM296.832 345.051h52.723v50.712h-52.723zM296.832 395.763v45.61c0 2.806 2.296 5.131 5.102 5.131h47.621v-50.74h-52.723z" clip-rule="evenodd"/><path fill="#eb5468" fill-rule="evenodd" d="M349.555 395.763h52.751v50.74h-52.751z" clip-rule="evenodd"/><path fill="#9fd4fe" fill-rule="evenodd" d="M402.307 395.763v50.74h47.621c2.806 0 5.102-2.324 5.102-5.131v-45.61h-52.723z" clip-rule="evenodd"/><path fill="#85beef" fill-rule="evenodd" d="M420.93 294.339a480 480 0 0 1 4.62 50.712h29.48V299.47c0-2.835-2.296-5.131-5.102-5.131zM425.55 345.051c.255 6.406.368 12.869.368 19.389 0 10.573-.312 21.033-.964 31.323h30.075v-50.712z" clip-rule="evenodd"/><path fill="#85beef" fill-rule="evenodd" d="M424.955 395.763c-1.105 17.376-3.09 34.328-5.924 50.74h30.897c2.806 0 5.102-2.324 5.102-5.131v-45.61h-30.075z" clip-rule="evenodd"/><path fill="#d9eeff" fill-rule="evenodd" d="M412.341 250.43a451 451 0 0 1 8.589 43.909h28.998c2.806 0 5.102 2.296 5.102 5.131v141.903c0 2.806-2.296 5.131-5.102 5.131h-30.897c-3.458 20.211-8.192 39.628-14.059 57.997h61.85c15.307 0 27.807-12.529 27.807-27.836V171.57H383.684c11.848 23.726 21.542 50.258 28.657 78.86" clip-rule="evenodd"/><path fill="#ffd772" fill-rule="evenodd" d="M154.054 267.296c-27.694 0-50.172 22.479-50.172 50.173 0 27.723 22.478 50.202 50.172 50.202 27.722 0 50.2-22.479 50.2-50.202.001-27.694-22.477-50.173-50.2-50.173" clip-rule="evenodd"/><path fill="#fbba58" fill-rule="evenodd" d="M137.699 270.017c22.336 5.074 39.004 25.058 39.004 48.954 0 21.969-14.145 40.649-33.817 47.452 3.6.822 7.342 1.247 11.168 1.247 27.722 0 50.2-22.479 50.2-50.202 0-27.695-22.478-50.173-50.2-50.173a50.4 50.4 0 0 0-16.355 2.722" clip-rule="evenodd"/><path d="M85.061 439.003a7.5 7.5 0 0 0 0 15h138.016a7.5 7.5 0 0 0 0-15zM289.332 441.372c0 6.965 5.653 12.631 12.603 12.631h147.993c6.949 0 12.603-5.666 12.603-12.631V299.469c0-6.964-5.653-12.63-12.603-12.63H301.935c-6.949 0-12.603 5.666-12.603 12.63zm158.198-53.109h-37.724v-35.712h37.724zm-90.474-35.712h37.751v35.712h-37.751zm0 50.712h37.751v35.74h-37.751zm37.751-65.712h-37.751v-35.712h37.751zm-52.751 50.712h-37.724v-35.712h37.724zm-37.724 15h37.724v35.74h-37.724zm105.475 35.74v-35.74h37.724v35.74zm37.723-101.452h-37.724v-35.712h37.724zm-105.474-35.712v35.712h-37.724v-35.712zM296.832 221.76h65.848c4.143 0 7.5-3.358 7.5-7.5s-3.357-7.5-7.5-7.5h-65.848c-4.143 0-7.5 3.358-7.5 7.5s3.357 7.5 7.5 7.5M296.832 257.93h131.694c4.143 0 7.5-3.358 7.5-7.5s-3.357-7.5-7.5-7.5H296.832c-4.143 0-7.5 3.358-7.5 7.5s3.357 7.5 7.5 7.5M254.068 290.168a7.5 7.5 0 0 0-3.056-9.386c-2.538-1.514-4.934-2.751-7.251-3.949-6.368-3.29-11.397-5.888-16.319-12.673-4.897-6.733-5.819-12.301-6.986-19.351-.432-2.606-.878-5.301-1.55-8.223a7.5 7.5 0 0 0-7.988-5.787c-2.943.268-5.609.674-8.187 1.068-7.083 1.082-12.677 1.936-20.651-.647-7.914-2.568-11.926-6.527-17.006-11.54-1.883-1.858-3.831-3.78-6.096-5.75a7.5 7.5 0 0 0-9.854.008c-2.241 1.957-4.171 3.864-6.037 5.709-5.084 5.026-9.1 8.997-17.055 11.573-7.951 2.58-13.544 1.727-20.625.648-2.586-.394-5.26-.802-8.215-1.069a7.5 7.5 0 0 0-7.99 5.805c-.66 2.9-1.099 5.575-1.523 8.163-1.158 7.065-2.073 12.645-6.986 19.4-4.917 6.777-9.946 9.375-16.313 12.666-2.318 1.197-4.714 2.435-7.252 3.949a7.5 7.5 0 0 0-3.056 9.386c1.171 2.744 2.392 5.175 3.573 7.526 3.21 6.393 5.746 11.442 5.746 19.775 0 8.358-2.538 13.412-5.75 19.811-1.179 2.349-2.398 4.778-3.568 7.518a7.5 7.5 0 0 0 3.056 9.386c2.544 1.518 4.947 2.758 7.271 3.958 6.363 3.286 11.389 5.882 16.295 12.628 4.91 6.768 5.825 12.345 6.985 19.406.425 2.588.864 5.263 1.525 8.161a7.505 7.505 0 0 0 7.97 5.803c2.989-.264 5.691-.673 8.304-1.07 7.055-1.069 12.627-1.914 20.559.677 7.951 2.575 11.967 6.544 17.051 11.571 1.866 1.845 3.796 3.753 6.037 5.709a7.48 7.48 0 0 0 4.932 1.85 7.5 7.5 0 0 0 4.922-1.841c2.265-1.97 4.213-3.892 6.096-5.75 5.08-5.013 9.093-8.972 17.016-11.543 7.942-2.588 13.515-1.742 20.571-.671 2.605.396 5.299.805 8.277 1.068a7.49 7.49 0 0 0 7.968-5.784c.674-2.921 1.121-5.616 1.553-8.222 1.168-7.045 2.091-12.61 6.984-19.356 4.912-6.754 9.938-9.35 16.301-12.635 2.323-1.2 4.726-2.44 7.27-3.958a7.5 7.5 0 0 0 3.056-9.386c-1.17-2.741-2.39-5.169-3.569-7.519-3.212-6.399-5.75-11.453-5.75-19.811 0-8.333 2.536-13.382 5.746-19.774 1.177-2.351 2.397-4.783 3.569-7.527m-16.974 53.842.272.543-.507.262c-7.152 3.693-14.547 7.513-21.555 17.149-6.976 9.617-8.333 17.802-9.645 25.717l-.109.659-.638-.097c-7.938-1.206-16.147-2.452-27.463 1.236-11.292 3.664-17.199 9.493-22.912 15.13l-.475.469-.431-.426c-5.72-5.655-11.634-11.502-22.957-15.169-5.649-1.845-10.525-2.457-14.981-2.457-4.458 0-8.497.613-12.467 1.215l-.651.099-.098-.593c-1.303-7.936-2.65-16.141-9.65-25.791-7.002-9.628-14.397-13.447-21.549-17.141l-.507-.262.272-.542c3.611-7.192 7.345-14.629 7.345-26.541 0-11.887-3.732-19.319-7.341-26.506l-.276-.55.491-.253c7.159-3.699 14.562-7.523 21.565-17.177 7.002-9.628 8.349-17.844 9.651-25.788l.096-.583.57.086c7.957 1.213 16.184 2.467 27.51-1.208 11.342-3.672 17.256-9.52 22.976-15.175l.431-.426.475.469c5.713 5.637 11.621 11.466 22.917 15.132 11.354 3.677 19.582 2.421 27.539 1.206l.557-.084.107.649c1.312 7.924 2.669 16.119 9.648 25.715 7.008 9.662 14.412 13.486 21.571 17.185l.491.253-.276.55c-3.609 7.187-7.341 14.619-7.341 26.506 0 11.91 3.734 19.347 7.345 26.539"/><path d="M154.054 259.796c-31.8 0-57.672 25.873-57.672 57.674 0 31.817 25.872 57.702 57.672 57.702 31.816 0 57.701-25.885 57.701-57.702 0-31.802-25.884-57.674-57.701-57.674m0 100.375c-23.529 0-42.672-19.156-42.672-42.702 0-23.53 19.143-42.674 42.672-42.674 23.545 0 42.701 19.144 42.701 42.674 0 23.547-19.155 42.702-42.701 42.702"/><path d="M494.629 50.088h-33.743V30.092C460.886 13.5 447.387 0 430.794 0s-30.091 13.5-30.091 30.092v19.996h-56.347V30.092C344.356 13.5 330.857 0 314.265 0s-30.092 13.5-30.092 30.092v19.996h-56.346V30.092C227.827 13.5 214.328 0 197.735 0s-30.092 13.5-30.092 30.092v19.996h-56.346V30.092C111.297 13.5 97.798 0 81.206 0c-16.608 0-30.12 13.5-30.12 30.092v19.996H17.343C7.784 50.088.007 57.865.007 67.424v94.309c0 6.871 4.027 12.802 9.836 15.606v299.324C9.843 496.148 25.694 512 45.178 512h193.063a7.5 7.5 0 0 0 0-15H45.178c-11.213 0-20.335-9.123-20.335-20.336V179.07h212.463a7.5 7.5 0 0 0 0-15H17.343c-1.266 0-2.336-1.07-2.336-2.336v-19.061h481.986v19.061c0 1.288-1.061 2.336-2.364 2.336h-220.19c-4.143 0-7.5 3.358-7.5 7.5s3.357 7.5 7.5 7.5h212.69v297.594c0 11.213-9.11 20.336-20.308 20.336h-194.82c-4.143 0-7.5 3.358-7.5 7.5s3.357 7.5 7.5 7.5h194.82c19.469 0 35.308-15.852 35.308-35.336V177.345c5.825-2.801 9.864-8.736 9.864-15.612V67.425c0-9.56-7.79-17.337-17.364-17.337m-78.926-19.996c0-8.322 6.77-15.092 15.091-15.092s15.092 6.771 15.092 15.092v48.189c0 8.322-6.771 15.092-15.092 15.092s-15.091-6.771-15.091-15.092zm-116.53 0c0-8.322 6.771-15.092 15.092-15.092s15.092 6.771 15.092 15.092v48.189c0 8.322-6.771 15.092-15.092 15.092s-15.092-6.771-15.092-15.092zm-116.529 0c0-8.322 6.77-15.092 15.092-15.092 8.321 0 15.091 6.771 15.091 15.092v48.189c0 8.322-6.77 15.092-15.091 15.092s-15.092-6.771-15.092-15.092zm-116.558 0C66.086 21.77 72.869 15 81.206 15c8.322 0 15.092 6.771 15.092 15.092v48.189c0 8.322-6.77 15.092-15.092 15.092-8.337 0-15.12-6.771-15.12-15.092zm-51.079 97.581V67.425c0-1.267 1.07-2.336 2.336-2.336h33.743v13.193c0 16.593 13.512 30.092 30.12 30.092 16.593 0 30.092-13.5 30.092-30.092V65.088h56.346v13.193c0 16.593 13.499 30.092 30.092 30.092s30.091-13.5 30.091-30.092V65.088h56.346v13.193c0 16.593 13.499 30.092 30.092 30.092s30.092-13.5 30.092-30.092V65.088h56.347v13.193c0 16.593 13.499 30.092 30.091 30.092 16.593 0 30.092-13.5 30.092-30.092V65.088h33.743c1.304 0 2.364 1.048 2.364 2.336v60.248H15.007z"/></svg>