<svg xmlns="http://www.w3.org/2000/svg" width="512" height="512"><path fill="#eff6ff" fill-rule="evenodd" d="M45.178 504.5h421.643c15.307 0 27.807-12.529 27.807-27.836V171.57L256 158 17.343 171.57v305.094c0 15.307 12.529 27.836 27.835 27.836" clip-rule="evenodd"/><path fill="#9fd4fe" fill-rule="evenodd" d="M17.343 171.57h477.286c5.357 0 9.751-4.309 9.864-9.609v-26.788L250.85 109 7.507 135.173v26.731c.085 5.357 4.478 9.666 9.836 9.666" clip-rule="evenodd"/><path fill="#eb5468" fill-rule="evenodd" d="M7.507 135.173h496.987V67.198c-.113-5.301-4.507-9.609-9.864-9.609h-41.243v20.693c0 12.416-10.176 22.592-22.592 22.592s-22.592-10.176-22.592-22.592V57.588h-71.346v20.693c0 12.416-10.176 22.592-22.592 22.592-12.444 0-22.592-10.176-22.592-22.592V57.588h-71.346v20.693c0 12.416-10.176 22.592-22.592 22.592-12.444 0-22.592-10.176-22.592-22.592V57.588h-71.346v20.693c0 12.416-10.176 22.592-22.592 22.592-12.444 0-22.62-10.176-22.62-22.592V57.588H17.343c-5.357 0-9.751 4.337-9.836 9.666v.17z" clip-rule="evenodd"/><path fill="#e5384f" fill-rule="evenodd" d="M363.785 57.588c13.152 23.273 24.576 49.351 33.987 77.584h106.722V67.198c-.113-5.301-4.507-9.609-9.864-9.609h-41.243v20.693c0 12.416-10.176 22.592-22.592 22.592s-22.592-10.176-22.592-22.592V57.588z" clip-rule="evenodd"/><path fill="#85beef" fill-rule="evenodd" d="M397.771 135.173c3.912 11.764 7.455 23.924 10.63 36.397h86.228c5.357 0 9.751-4.309 9.864-9.609v-26.788z" clip-rule="evenodd"/><path fill="#ffd772" fill-rule="evenodd" d="M58.586 78.281c0 12.416 10.176 22.592 22.62 22.592 12.415 0 22.592-10.176 22.592-22.592V30.092c0-12.444-10.176-22.592-22.592-22.592-12.444 0-22.62 10.148-22.62 22.592v27.496zM175.144 78.281c0 12.416 10.148 22.592 22.592 22.592 12.415 0 22.592-10.176 22.592-22.592V30.092c0-12.444-10.176-22.592-22.592-22.592-12.444 0-22.592 10.148-22.592 22.592v27.496zM291.673 78.281c0 12.416 10.148 22.592 22.592 22.592 12.415 0 22.592-10.176 22.592-22.592V30.092c0-12.444-10.176-22.592-22.592-22.592-12.444 0-22.592 10.148-22.592 22.592v27.496zM408.203 30.092v48.189c0 12.416 10.176 22.592 22.592 22.592s22.592-10.176 22.592-22.592V30.092c0-12.444-10.176-22.592-22.592-22.592s-22.592 10.148-22.592 22.592" clip-rule="evenodd"/><path fill="#fbba58" fill-rule="evenodd" d="M198.132 30.092v48.189c0 8.391-4.649 15.761-11.508 19.644a22.4 22.4 0 0 0 11.112 2.948c12.415 0 22.592-10.176 22.592-22.592V30.092c0-12.444-10.176-22.592-22.592-22.592a22.4 22.4 0 0 0-11.112 2.92c6.859 3.883 11.508 11.253 11.508 19.672M81.603 30.092v48.189c0 8.391-4.649 15.761-11.508 19.644a22.4 22.4 0 0 0 11.112 2.948c12.415 0 22.592-10.176 22.592-22.592V30.092c0-12.444-10.176-22.592-22.592-22.592a22.4 22.4 0 0 0-11.112 2.92c6.859 3.883 11.508 11.253 11.508 19.672M314.662 30.092v48.189c0 8.391-4.649 15.761-11.48 19.644a22.24 22.24 0 0 0 11.083 2.948c12.415 0 22.592-10.176 22.592-22.592V30.092c0-12.444-10.176-22.592-22.592-22.592a22.4 22.4 0 0 0-11.112 2.92c6.86 3.883 11.509 11.253 11.509 19.672M431.191 30.092v48.189c0 8.391-4.649 15.761-11.48 19.644a22.24 22.24 0 0 0 11.083 2.948c12.415 0 22.592-10.176 22.592-22.592V30.092c0-12.444-10.176-22.592-22.592-22.592-4.025 0-7.823 1.049-11.083 2.92 6.831 3.883 11.48 11.253 11.48 19.672" clip-rule="evenodd"/><path fill="#9fd4fe" fill-rule="evenodd" d="M296.832 299.469v45.581h52.723v-50.712h-47.621c-2.806.001-5.102 2.297-5.102 5.131M349.555 294.339h52.751v50.712h-52.751zM402.307 294.339v50.712h52.723V299.47c0-2.835-2.296-5.131-5.102-5.131zM402.307 345.051h52.723v50.712h-52.723zM349.555 345.051h52.751v50.712h-52.751zM296.832 345.051h52.723v50.712h-52.723zM296.832 395.763v45.61c0 2.806 2.296 5.131 5.102 5.131h47.621v-50.74h-52.723z" clip-rule="evenodd"/><path fill="#eb5468" fill-rule="evenodd" d="M349.555 395.763h52.751v50.74h-52.751z" clip-rule="evenodd"/><path fill="#9fd4fe" fill-rule="evenodd" d="M402.307 395.763v50.74h47.621c2.806 0 5.102-2.324 5.102-5.131v-45.61h-52.723z" clip-rule="evenodd"/><path fill="#85beef" fill-rule="evenodd" d="M420.93 294.339a480 480 0 0 1 4.62 50.712h29.48V299.47c0-2.835-2.296-5.131-5.102-5.131zM425.55 345.051c.255 6.406.368 12.869.368 19.389 0 10.573-.312 21.033-.964 31.323h30.075v-50.712z" clip-rule="evenodd"/><path fill="#85beef" fill-rule="evenodd" d="M424.955 395.763c-1.105 17.376-3.09 34.328-5.924 50.74h30.897c2.806 0 5.102-2.324 5.102-5.131v-45.61h-30.075z" clip-rule="evenodd"/><path fill="#d9eeff" fill-rule="evenodd" d="M412.341 250.43a451 451 0 0 1 8.589 43.909h28.998c2.806 0 5.102 2.296 5.102 5.131v141.903c0 2.806-2.296 5.131-5.102 5.131h-30.897c-3.458 20.211-8.192 39.628-14.059 57.997h61.85c15.307 0 27.807-12.529 27.807-27.836V171.57H383.684c11.848 23.726 21.542 50.258 28.657 78.86" clip-rule="evenodd"/><path fill="#95d6a4" fill-rule="evenodd" d="M152.354 378.868c34.412 22.309 73.614 22.309 95.979 4.62 3.401-2.721 3.09-3.118.652-8.646-7.058-15.959-23.102-33.052-44.871-35.717 25.483-11.027 38.409-30.784 37.955-52.356-.085-3.061-.454-3.402-2.211-3.969-16.044-5.187-37.331-3.94-48.245 2.778-4.394-28.998-16.469-47.509-31.662-60.236-8.079-6.803-7.086-6.803-15.193 0-15.193 12.728-27.24 31.238-31.634 60.236-10.941-6.718-32.201-7.965-48.245-2.778-1.786.567-2.154.907-2.211 3.969-.454 21.572 12.444 41.329 37.955 52.356-21.77 2.665-37.842 19.758-44.871 35.717-2.438 5.528-2.778 5.924.652 8.646 22.336 17.689 61.538 17.689 95.95-4.62" clip-rule="evenodd"/><path fill="#78c2a4" fill-rule="evenodd" d="M152.354 378.868c34.412 22.309 73.614 22.309 95.979 4.62 3.401-2.721 3.09-3.118.652-8.646-7.058-15.959-23.102-33.052-44.871-35.717 25.483-11.027 38.409-30.784 37.955-52.356-.085-3.061-.454-3.402-2.211-3.969-16.044-5.187-37.331-3.94-48.245 2.778-4.394-28.998-16.469-47.509-31.662-60.236-4.025-3.402-5.811-5.102-7.597-5.102z" clip-rule="evenodd"/><path d="M85.061 439.003c-4.143 0-7.5 3.358-7.5 7.5s3.357 7.5 7.5 7.5h138.016c4.143 0 7.5-3.358 7.5-7.5s-3.357-7.5-7.5-7.5zM289.332 441.372c0 6.965 5.653 12.631 12.603 12.631h147.993c6.949 0 12.603-5.666 12.603-12.631V299.469c0-6.964-5.653-12.63-12.603-12.63H301.935c-6.949 0-12.603 5.666-12.603 12.63zm158.198-53.109h-37.724v-35.712h37.724zm-90.474-35.712h37.751v35.712h-37.751zm0 50.712h37.751v35.74h-37.751zm37.751-65.712h-37.751v-35.712h37.751zm-52.751 50.712h-37.724v-35.712h37.724zm-37.724 15h37.724v35.74h-37.724zm105.475 35.74v-35.74h37.724v35.74zm37.723-101.452h-37.724v-35.712h37.724zm-105.474-35.712v35.712h-37.724v-35.712zM296.832 221.76h65.848c4.143 0 7.5-3.358 7.5-7.5s-3.357-7.5-7.5-7.5h-65.848c-4.143 0-7.5 3.358-7.5 7.5s3.357 7.5 7.5 7.5M296.832 257.93h131.694c4.143 0 7.5-3.358 7.5-7.5s-3.357-7.5-7.5-7.5H296.832c-4.143 0-7.5 3.358-7.5 7.5s3.357 7.5 7.5 7.5M255.844 371.81c-5.466-12.358-16.73-26.892-32.846-34.766 17.302-12.488 26.988-30.469 26.567-50.482-.118-4.246-1.09-8.86-7.4-10.896-14.308-4.626-31.818-4.687-44.896-.673-5.176-23.272-15.86-41.458-32.487-55.386l-1.295-1.096c-3.947-3.35-6.799-5.77-11.122-5.77-4.314 0-7.173 2.417-11.128 5.761l-1.296 1.092c-16.623 13.925-27.301 32.114-32.476 55.403-13.084-4.011-30.591-3.956-44.854.657-6.416 2.036-7.361 6.692-7.44 10.959-.421 19.977 9.263 37.949 26.556 50.429-16.137 7.876-27.393 22.416-32.837 34.775l-.241.545c-2.787 6.306-4.196 11.217 3.1 17.007 12.13 9.605 27.956 14.358 45.005 14.358 15.643 0 32.314-4.012 48.102-11.939v23.449c0 4.142 3.357 7.5 7.5 7.5s7.5-3.358 7.5-7.5v-23.451c32.989 16.561 69.856 15.995 93.163-2.44 7.252-5.8 5.832-10.732 3.035-17.065zm-50.727 16.872c-15.253-.522-30.821-5.348-45.264-13.985v-34.258l21.181-14.547a7.5 7.5 0 0 0 1.937-10.429 7.503 7.503 0 0 0-10.429-1.937l-12.688 8.714v-43.379c0-4.142-3.357-7.5-7.5-7.5s-7.5 3.358-7.5 7.5v43.379l-12.688-8.714c-3.417-2.346-8.084-1.479-10.429 1.936s-1.478 8.083 1.937 10.428l21.18 14.546v34.259c-14.442 8.638-30.01 13.464-45.26 13.985-14.537.496-27.707-3.09-37.286-10.121l.06-.135.247-.56c5.699-12.937 19.312-28.896 38.92-31.295a7.499 7.499 0 0 0 2.065-14.329c-20.847-9.011-32.918-24.652-33.425-43.165 13.418-3.429 30.632-2.26 39.024 2.894a7.5 7.5 0 0 0 11.34-5.267c3.654-24.114 13.151-42.305 29.04-55.615l1.343-1.132c.475-.401.973-.823 1.438-1.208.46.383.953.801 1.422 1.2l1.354 1.146c15.906 13.324 25.412 31.514 29.063 55.61a7.5 7.5 0 0 0 11.347 5.263c8.376-5.155 25.583-6.324 39.02-2.889-.503 18.493-12.576 34.143-33.429 43.166a7.5 7.5 0 0 0 2.068 14.328c19.57 2.396 33.198 18.361 38.92 31.298l.208.472.097.219c-9.6 7.032-22.777 10.616-37.313 10.122"/><path d="M494.629 50.088h-33.743V30.092C460.886 13.5 447.387 0 430.794 0s-30.091 13.5-30.091 30.092v19.996h-56.347V30.092C344.356 13.5 330.857 0 314.265 0s-30.092 13.5-30.092 30.092v19.996h-56.346V30.092C227.827 13.5 214.328 0 197.735 0s-30.092 13.5-30.092 30.092v19.996h-56.347V30.092C111.297 13.5 97.798 0 81.206 0c-16.608 0-30.12 13.5-30.12 30.092v19.996H17.343c-9.56 0-17.336 7.777-17.336 17.336v94.309c0 6.871 4.027 12.803 9.836 15.606v299.324C9.843 496.148 25.694 512 45.179 512h193.062c4.143 0 7.5-3.358 7.5-7.5s-3.357-7.5-7.5-7.5H45.179c-11.213 0-20.336-9.123-20.336-20.336V179.07h212.463c4.143 0 7.5-3.358 7.5-7.5s-3.357-7.5-7.5-7.5H17.343c-1.267 0-2.336-1.07-2.336-2.336v-19.061h481.986v19.061c0 1.288-1.061 2.336-2.364 2.336h-220.19c-4.143 0-7.5 3.358-7.5 7.5s3.357 7.5 7.5 7.5h212.69v297.594c0 11.213-9.11 20.336-20.308 20.336h-194.82c-4.143 0-7.5 3.358-7.5 7.5s3.357 7.5 7.5 7.5h194.82c19.469 0 35.308-15.852 35.308-35.336V177.345c5.825-2.801 9.864-8.736 9.864-15.612V67.425c0-9.56-7.79-17.337-17.364-17.337m-78.926-19.996c0-8.322 6.77-15.092 15.091-15.092s15.092 6.771 15.092 15.092v48.189c0 8.322-6.771 15.092-15.092 15.092s-15.091-6.771-15.091-15.092zm-116.53 0c0-8.322 6.771-15.092 15.092-15.092s15.092 6.771 15.092 15.092v48.189c0 8.322-6.771 15.092-15.092 15.092s-15.092-6.771-15.092-15.092zm-116.529 0c0-8.322 6.771-15.092 15.092-15.092s15.092 6.771 15.092 15.092v48.189c0 8.322-6.771 15.092-15.092 15.092s-15.092-6.771-15.092-15.092zm-116.558 0C66.086 21.77 72.869 15 81.206 15c8.321 0 15.091 6.771 15.091 15.092v48.189c0 8.322-6.77 15.092-15.091 15.092-8.337 0-15.12-6.771-15.12-15.092zm-51.079 97.581V67.425c0-1.267 1.069-2.336 2.336-2.336h33.743v13.193c0 16.593 13.512 30.092 30.12 30.092 16.592 0 30.091-13.5 30.091-30.092V65.088h56.347v13.193c0 16.593 13.499 30.092 30.092 30.092s30.092-13.5 30.092-30.092V65.088h56.346v13.193c0 16.593 13.499 30.092 30.092 30.092s30.092-13.5 30.092-30.092V65.088h56.347v13.193c0 16.593 13.499 30.092 30.091 30.092 16.593 0 30.092-13.5 30.092-30.092V65.088h33.743c1.304 0 2.364 1.048 2.364 2.336v60.248H15.007z"/></svg>