<svg xmlns="http://www.w3.org/2000/svg" width="512" height="512"><path fill="#eff6ff" fill-rule="evenodd" d="M45.178 504.5h421.643c15.307 0 27.807-12.529 27.807-27.836V171.57L257.46 158 17.343 171.57v305.094c0 15.307 12.529 27.836 27.835 27.836" clip-rule="evenodd"/><path fill="#9fd4fe" fill-rule="evenodd" d="M17.343 171.57h477.286c5.357 0 9.751-4.309 9.864-9.609v-26.788L257.46 114.579 7.507 135.173v26.731c.085 5.357 4.478 9.666 9.836 9.666" clip-rule="evenodd"/><path fill="#eb5468" fill-rule="evenodd" d="M7.507 135.173h496.987V67.198c-.113-5.301-4.507-9.609-9.864-9.609h-41.243v20.693c0 12.416-10.176 22.592-22.592 22.592s-22.592-10.176-22.592-22.592V57.588h-71.346v20.693c0 12.416-10.176 22.592-22.592 22.592-12.444 0-22.592-10.176-22.592-22.592V57.588h-71.346v20.693c0 12.416-10.176 22.592-22.592 22.592-12.444 0-22.592-10.176-22.592-22.592V57.588h-71.346v20.693c0 12.416-10.176 22.592-22.592 22.592-12.444 0-22.62-10.176-22.62-22.592V57.588H17.343c-5.357 0-9.751 4.337-9.836 9.666v.17z" clip-rule="evenodd"/><path fill="#e5384f" fill-rule="evenodd" d="M363.785 57.588c13.152 23.273 24.576 49.351 33.987 77.584h106.722V67.198c-.113-5.301-4.507-9.609-9.864-9.609h-41.243v20.693c0 12.416-10.176 22.592-22.592 22.592s-22.592-10.176-22.592-22.592V57.588z" clip-rule="evenodd"/><path fill="#85beef" fill-rule="evenodd" d="M397.771 135.173c3.912 11.764 7.455 23.924 10.63 36.397h86.228c5.357 0 9.751-4.309 9.864-9.609v-26.788z" clip-rule="evenodd"/><path fill="#ffd772" fill-rule="evenodd" d="M58.586 78.281c0 12.416 10.176 22.592 22.62 22.592 12.415 0 22.592-10.176 22.592-22.592V30.092c0-12.444-10.176-22.592-22.592-22.592-12.444 0-22.62 10.148-22.62 22.592v27.496zM175.144 78.281c0 12.416 10.148 22.592 22.592 22.592 12.415 0 22.592-10.176 22.592-22.592V30.092c0-12.444-10.176-22.592-22.592-22.592-12.444 0-22.592 10.148-22.592 22.592v27.496zM291.673 78.281c0 12.416 10.148 22.592 22.592 22.592 12.415 0 22.592-10.176 22.592-22.592V30.092c0-12.444-10.176-22.592-22.592-22.592-12.444 0-22.592 10.148-22.592 22.592v27.496zM408.203 30.092v48.189c0 12.416 10.176 22.592 22.592 22.592s22.592-10.176 22.592-22.592V30.092c0-12.444-10.176-22.592-22.592-22.592s-22.592 10.148-22.592 22.592" clip-rule="evenodd"/><path fill="#fbba58" fill-rule="evenodd" d="M198.132 30.092v48.189c0 8.391-4.649 15.761-11.508 19.644a22.4 22.4 0 0 0 11.112 2.948c12.415 0 22.592-10.176 22.592-22.592V30.092c0-12.444-10.176-22.592-22.592-22.592a22.4 22.4 0 0 0-11.112 2.92c6.859 3.883 11.508 11.253 11.508 19.672M81.603 30.092v48.189c0 8.391-4.649 15.761-11.508 19.644a22.4 22.4 0 0 0 11.112 2.948c12.415 0 22.592-10.176 22.592-22.592V30.092c0-12.444-10.176-22.592-22.592-22.592a22.4 22.4 0 0 0-11.112 2.92c6.859 3.883 11.508 11.253 11.508 19.672M314.662 30.092v48.189c0 8.391-4.649 15.761-11.48 19.644a22.24 22.24 0 0 0 11.083 2.948c12.415 0 22.592-10.176 22.592-22.592V30.092c0-12.444-10.176-22.592-22.592-22.592a22.4 22.4 0 0 0-11.112 2.92c6.86 3.883 11.509 11.253 11.509 19.672M431.191 30.092v48.189c0 8.391-4.649 15.761-11.48 19.644a22.24 22.24 0 0 0 11.083 2.948c12.415 0 22.592-10.176 22.592-22.592V30.092c0-12.444-10.176-22.592-22.592-22.592-4.025 0-7.823 1.049-11.083 2.92 6.831 3.883 11.48 11.253 11.48 19.672" clip-rule="evenodd"/><path fill="#9fd4fe" fill-rule="evenodd" d="M296.832 299.469v45.581h52.723v-50.712h-47.621c-2.806.001-5.102 2.297-5.102 5.131M349.555 294.339h52.751v50.712h-52.751zM402.307 294.339v50.712h52.723V299.47c0-2.835-2.296-5.131-5.102-5.131zM402.307 345.051h52.723v50.712h-52.723zM349.555 345.051h52.751v50.712h-52.751zM296.832 345.051h52.723v50.712h-52.723zM296.832 395.763v45.61c0 2.806 2.296 5.131 5.102 5.131h47.621v-50.74h-52.723z" clip-rule="evenodd"/><path fill="#eb5468" fill-rule="evenodd" d="M349.555 395.763h52.751v50.74h-52.751z" clip-rule="evenodd"/><path fill="#9fd4fe" fill-rule="evenodd" d="M402.307 395.763v50.74h47.621c2.806 0 5.102-2.324 5.102-5.131v-45.61h-52.723z" clip-rule="evenodd"/><path fill="#85beef" fill-rule="evenodd" d="M420.93 294.339a480 480 0 0 1 4.62 50.712h29.48V299.47c0-2.835-2.296-5.131-5.102-5.131zM425.55 345.051c.255 6.406.368 12.869.368 19.389 0 10.573-.312 21.033-.964 31.323h30.075v-50.712z" clip-rule="evenodd"/><path fill="#85beef" fill-rule="evenodd" d="M424.955 395.763c-1.105 17.376-3.09 34.328-5.924 50.74h30.897c2.806 0 5.102-2.324 5.102-5.131v-45.61h-30.075z" clip-rule="evenodd"/><path fill="#d9eeff" fill-rule="evenodd" d="M412.341 250.43a451 451 0 0 1 8.589 43.909h28.998c2.806 0 5.102 2.296 5.102 5.131v141.903c0 2.806-2.296 5.131-5.102 5.131h-30.897c-3.458 20.211-8.192 39.628-14.059 57.997h61.85c15.307 0 27.807-12.529 27.807-27.836V171.57H383.684c11.848 23.726 21.542 50.258 28.657 78.86" clip-rule="evenodd"/><path d="M85.061 439.003c-4.143 0-7.5 3.358-7.5 7.5s3.357 7.5 7.5 7.5h138.016c4.143 0 7.5-3.358 7.5-7.5s-3.357-7.5-7.5-7.5zM246.607 263.631a7.5 7.5 0 0 0-10.246-2.744l-15.777 9.111 1.123-13.652a7.5 7.5 0 0 0-6.86-8.089c-4.113-.346-7.749 2.731-8.089 6.86l-1.974 24.006-21.716 12.54c-5.507-6.281-13.01-10.766-21.513-12.448v-25.05l19.81-13.694a7.5 7.5 0 0 0-8.53-12.339l-11.28 7.798v-18.24c0-4.142-3.357-7.5-7.5-7.5s-7.5 3.358-7.5 7.5v18.229l-11.248-7.785a7.501 7.501 0 0 0-8.538 12.334l19.785 13.694v25.052c-8.499 1.681-15.998 6.162-21.504 12.437l-21.698-12.53-1.974-24.005c-.34-4.128-3.967-7.213-8.089-6.86a7.5 7.5 0 0 0-6.86 8.089l1.122 13.652-15.776-9.11c-3.59-2.073-8.175-.843-10.246 2.744s-.843 8.174 2.744 10.245l15.779 9.112-12.37 5.846a7.5 7.5 0 1 0 6.408 13.561l21.76-10.284 21.677 12.518a38.4 38.4 0 0 0-2.07 12.444c0 4.345.732 8.519 2.062 12.42l-21.668 12.513-21.761-10.284a7.5 7.5 0 1 0-6.408 13.561l12.37 5.846-15.779 9.112a7.5 7.5 0 1 0 7.502 12.989l15.776-9.11-1.122 13.651a7.5 7.5 0 0 0 7.483 8.115 7.5 7.5 0 0 0 7.466-6.886l1.974-24.005 21.681-12.52c5.508 6.285 13.014 10.774 21.521 12.456v25.023l-19.785 13.694a7.5 7.5 0 0 0-1.898 10.436 7.5 7.5 0 0 0 10.436 1.898l11.248-7.785v18.229c0 4.142 3.357 7.5 7.5 7.5s7.5-3.358 7.5-7.5v-18.24l11.28 7.798a7.46 7.46 0 0 0 4.258 1.331 7.502 7.502 0 0 0 4.272-13.67l-19.81-13.695v-25.021c8.512-1.684 16.021-6.177 21.53-12.467l21.699 12.531 1.974 24.006a7.5 7.5 0 0 0 14.949-1.229l-1.122-13.652 15.777 9.111a7.498 7.498 0 0 0 10.246-2.744 7.5 7.5 0 0 0-2.744-10.245l-15.78-9.112 12.369-5.846a7.5 7.5 0 1 0-6.408-13.561l-21.76 10.284-21.693-12.527a38.4 38.4 0 0 0 2.057-12.406c0-4.348-.733-8.526-2.065-12.43l21.701-12.532 21.76 10.284a7.5 7.5 0 0 0 9.985-3.576 7.5 7.5 0 0 0-3.577-9.985l-12.369-5.846 15.779-9.112a7.497 7.497 0 0 0 2.744-10.244m-92.552 77.038c-13.011 0-23.596-10.585-23.596-23.596s10.585-23.596 23.596-23.596 23.595 10.585 23.595 23.596-10.586 23.596-23.595 23.596M289.332 441.372c0 6.965 5.653 12.631 12.603 12.631h147.993c6.949 0 12.603-5.666 12.603-12.631V299.469c0-6.964-5.653-12.63-12.603-12.63H301.935c-6.949 0-12.603 5.666-12.603 12.63zm158.198-53.109h-37.724v-35.712h37.724zm-90.474-35.712h37.751v35.712h-37.751zm0 50.712h37.751v35.74h-37.751zm37.751-65.712h-37.751v-35.712h37.751zm-52.751 50.712h-37.724v-35.712h37.724zm-37.724 15h37.724v35.74h-37.724zm105.475 35.74v-35.74h37.724v35.74zm37.723-101.452h-37.724v-35.712h37.724zm-105.474-35.712v35.712h-37.724v-35.712zM296.832 221.76h65.848c4.143 0 7.5-3.358 7.5-7.5s-3.357-7.5-7.5-7.5h-65.848c-4.143 0-7.5 3.358-7.5 7.5s3.357 7.5 7.5 7.5M296.832 257.93h131.694c4.143 0 7.5-3.358 7.5-7.5s-3.357-7.5-7.5-7.5H296.832c-4.143 0-7.5 3.358-7.5 7.5s3.357 7.5 7.5 7.5"/><path d="M494.629 50.088h-33.743V30.092C460.886 13.5 447.387 0 430.794 0s-30.091 13.5-30.091 30.092v19.996h-56.347V30.092C344.356 13.5 330.857 0 314.265 0s-30.092 13.5-30.092 30.092v19.996h-56.346V30.092C227.827 13.5 214.328 0 197.735 0s-30.092 13.5-30.092 30.092v19.996h-56.347V30.092C111.297 13.5 97.798 0 81.206 0c-16.608 0-30.12 13.5-30.12 30.092v19.996H17.343c-9.56 0-17.336 7.777-17.336 17.336v94.309c0 6.871 4.027 12.803 9.836 15.606v299.324C9.843 496.148 25.694 512 45.179 512h193.062c4.143 0 7.5-3.358 7.5-7.5s-3.357-7.5-7.5-7.5H45.179c-11.213 0-20.336-9.123-20.336-20.336V179.07h212.463c4.143 0 7.5-3.358 7.5-7.5s-3.357-7.5-7.5-7.5H17.343c-1.267 0-2.336-1.07-2.336-2.336v-19.061h481.986v19.061c0 1.288-1.061 2.336-2.364 2.336h-220.19c-4.143 0-7.5 3.358-7.5 7.5s3.357 7.5 7.5 7.5h212.69v297.594c0 11.213-9.11 20.336-20.308 20.336h-194.82c-4.143 0-7.5 3.358-7.5 7.5s3.357 7.5 7.5 7.5h194.82c19.469 0 35.308-15.852 35.308-35.336V177.345c5.825-2.801 9.864-8.736 9.864-15.612V67.425c0-9.56-7.79-17.337-17.364-17.337m-78.926-19.996c0-8.322 6.77-15.092 15.091-15.092s15.092 6.771 15.092 15.092v48.189c0 8.322-6.771 15.092-15.092 15.092s-15.091-6.771-15.091-15.092zm-116.53 0c0-8.322 6.771-15.092 15.092-15.092s15.092 6.771 15.092 15.092v48.189c0 8.322-6.771 15.092-15.092 15.092s-15.092-6.771-15.092-15.092zm-116.529 0c0-8.322 6.771-15.092 15.092-15.092s15.092 6.771 15.092 15.092v48.189c0 8.322-6.771 15.092-15.092 15.092s-15.092-6.771-15.092-15.092zm-116.558 0C66.086 21.77 72.869 15 81.206 15c8.321 0 15.091 6.771 15.091 15.092v48.189c0 8.322-6.77 15.092-15.091 15.092-8.337 0-15.12-6.771-15.12-15.092zm-51.079 97.581V67.425c0-1.267 1.069-2.336 2.336-2.336h33.743v13.193c0 16.593 13.512 30.092 30.12 30.092 16.592 0 30.091-13.5 30.091-30.092V65.088h56.347v13.193c0 16.593 13.499 30.092 30.092 30.092s30.092-13.5 30.092-30.092V65.088h56.346v13.193c0 16.593 13.499 30.092 30.092 30.092s30.092-13.5 30.092-30.092V65.088h56.347v13.193c0 16.593 13.499 30.092 30.091 30.092 16.593 0 30.092-13.5 30.092-30.092V65.088h33.743c1.304 0 2.364 1.048 2.364 2.336v60.248H15.007z"/></svg>