<svg xmlns="http://www.w3.org/2000/svg" width="512" height="512"><path fill="#eff6ff" fill-rule="evenodd" d="M259.685 179.337v-31.238c0-14.684 12.047-12.728 26.758-12.728h16.044c26.163 0 47.479-21.288 47.479-47.452s-21.316-47.48-47.479-47.48h-52.241c-5.301 0-13.606-3.543-13.606-13.096V7.5h-65.337v32.684c0 17.972 14.711 32.684 32.683 32.684h65.11c8.277 0 15.023 6.775 15.023 15.052s-6.775 15.052-15.023 15.052h-28.488c-43.312 0-44.701 38.806-44.701 48.359v28.006l32.711 7.342z" clip-rule="evenodd"/><path fill="#faf0b0" fill-rule="evenodd" d="M67.557 326.71c0 50.372 22.733 95.67 58.477 126.171l107.516 25.81 107.544-25.81c19.247-16.413 34.724-37.134 44.9-60.605a164 164 0 0 0 11.282-38.013 166.6 166.6 0 0 0 2.296-27.553V187.5c0-4.479-3.685-8.164-8.164-8.164H75.721c-4.479 0-8.164 3.685-8.164 8.164z" clip-rule="evenodd"/><path fill="#ffd772" fill-rule="evenodd" d="M474.064 262.647c0-31.918-26.106-58.025-57.995-58.025H397.36v31.805h18.708c14.343 0 26.191 11.849 26.191 26.221v40.961c0 14.343-11.849 26.221-26.191 26.221h-20.636c-1.899 11.083-5.074 21.742-9.439 31.776h30.075c31.889 0 57.995-26.107 57.995-57.997v-40.962zM341.094 452.881H37.936c0 19.984 14.06 51.619 58.222 51.619H370.97c44.163 0 58.222-31.635 58.222-51.619z" clip-rule="evenodd"/><path fill="#d9eeff" fill-rule="evenodd" d="M302.487 135.371c26.163 0 47.479-21.288 47.479-47.452s-21.316-47.48-47.479-47.48h-26.135c24.009 0 43.908 17.915 47.026 41.074-3.345 22.876-23.13 40.536-46.941 40.536h-16.072c-14.711 0-26.73-1.984-26.73 12.728 0 14.797-.085 29.65-.085 44.561h26.135V148.1c0-10.035 5.641-12.302 13.889-12.728 1.729-.085 3.6-.085 5.556-.085 2.324.028 4.762.085 7.313.085h16.044z" clip-rule="evenodd"/><path fill="#eff6ff" fill-rule="evenodd" d="M233.55 212.587c-57.202 0-103.575 46.375-103.575 103.578s46.374 103.578 103.575 103.578 103.575-46.375 103.575-103.578c.001-57.203-46.373-103.578-103.575-103.578" clip-rule="evenodd"/><path fill="#ffd772" fill-rule="evenodd" d="M233.55 298.874c-9.439 0-17.093 7.654-17.093 17.093s7.653 17.093 17.093 17.093c9.467 0 17.121-7.654 17.121-17.093s-7.653-17.093-17.121-17.093M399.571 242.635v-55.134c0-4.479-3.685-8.164-8.164-8.164h-37.303c4.507 0 8.164 3.685 8.164 8.164v139.20999999999998c0 9.383-.794 18.595-2.296 27.553a164 164 0 0 1-11.282 38.013c-10.176 23.471-33.533 44.192-52.751 60.605h45.155c19.247-16.413 34.724-37.134 44.9-60.605a164 164 0 0 0 11.282-38.013 166.6 166.6 0 0 0 2.296-27.553z" clip-rule="evenodd"/><path fill="#d9eeff" fill-rule="evenodd" d="M337.126 316.166c0-57.203-46.374-103.578-103.575-103.578-6.378 0-12.614.567-18.68 1.672a102.6 102.6 0 0 1 18.68 5.669c37.7 15.506 64.232 52.583 64.232 95.84 0 43.285-26.532 80.362-64.232 95.84a101.5 101.5 0 0 1-20.664 6.066 103.6 103.6 0 0 0 20.664 2.069c57.201 0 103.575-46.375 103.575-103.578" clip-rule="evenodd"/><path fill="#fbba58" fill-rule="evenodd" d="M376.555 452.881c0 19.984-14.06 51.619-58.222 51.619h52.638c44.163 0 58.222-31.635 58.222-51.619z" clip-rule="evenodd"/><path fill="#d9eeff" fill-rule="evenodd" d="M250.246 40.439c-5.301 0-13.606-3.543-13.606-13.096V7.5h-26.135v19.843c0 9.553 8.305 13.096 13.606 13.096z" clip-rule="evenodd"/><path d="M416.068 197.122h-8.997v-9.621c0-8.637-7.027-15.664-15.664-15.664H267.185v-23.738c0-2.308.415-3.539.803-3.922 1.551-1.529 8.562-1.43 13.68-1.352 1.552.022 3.147.046 4.775.046h16.044c30.315 0 54.979-24.651 54.979-54.952 0-30.316-24.664-54.98-54.979-54.98h-52.242c-.25 0-6.106-.063-6.106-5.596V7.5c0-4.143-3.358-7.5-7.5-7.5s-7.5 3.357-7.5 7.5v19.843c0 12.892 10.731 20.596 21.106 20.596h52.242c22.044 0 39.979 17.936 39.979 39.98 0 22.029-17.935 39.952-39.979 39.952h-16.044c-1.553 0-3.075-.022-4.555-.044-9.467-.146-18.406-.27-24.429 5.666-3.5 3.448-5.274 8.362-5.274 14.605v23.738h-48.778V151.33c0-18.64 6.454-40.859 37.202-40.859h28.487c12.419 0 22.523-10.116 22.523-22.552s-10.104-22.552-22.523-22.552h-65.11c-13.886 0-25.183-11.297-25.183-25.184V7.5c0-4.143-3.358-7.5-7.5-7.5s-7.5 3.357-7.5 7.5v32.684c0 22.157 18.026 40.184 40.183 40.184h65.11c4.148 0 7.523 3.388 7.523 7.552 0 4.094-3.445 7.552-7.523 7.552h-28.487c-32.687 0-52.202 20.882-52.202 55.859v20.507h-48.794c-4.142 0-7.5 3.357-7.5 7.5s3.358 7.5 7.5 7.5h251.795c.335 0 .664.329.664.664V326.71c0 45.348-19.58 88.436-53.8 118.671h-86.806c-4.142 0-7.5 3.357-7.5 7.5s3.358 7.5 7.5 7.5h169.476C417.926 476.023 405.178 497 370.971 497H96.158c-34.208 0-46.955-20.977-49.97-36.619h170.667c4.142 0 7.5-3.357 7.5-7.5s-3.358-7.5-7.5-7.5h-87.998c-34.219-30.211-53.799-73.3-53.799-118.671V187.501c0-.335.329-.664.664-.664h29.253c4.142 0 7.5-3.357 7.5-7.5s-3.358-7.5-7.5-7.5H75.721c-8.637 0-15.664 7.027-15.664 15.664V326.71c0 44.29 17.019 86.59 47.239 118.671h-69.36a7.5 7.5 0 0 0-7.5 7.5c0 13.557 5.378 27.845 14.387 38.221C53.1 500.636 68.726 512 96.158 512H370.97c27.433 0 43.058-11.364 51.335-20.898 9.008-10.376 14.387-24.664 14.387-38.221a7.5 7.5 0 0 0-7.5-7.5h-69.368c20.369-21.631 34.735-47.897 41.942-76.275h14.301c36.114 0 65.496-29.382 65.496-65.497v-40.961c.001-36.131-29.38-65.526-65.495-65.526m-8.997 46.805h8.997c10.132 0 18.692 8.573 18.692 18.721v40.961c0 10.147-8.56 18.72-18.692 18.72h-8.997zm59.493 59.681c0 27.844-22.652 50.497-50.496 50.497h-11.197a172 172 0 0 0 1.861-16.777h9.336c18.578 0 33.692-15.127 33.692-33.72v-40.961c0-18.594-15.114-33.721-33.692-33.721h-8.997v-16.805h8.997c27.843 0 50.496 22.666 50.496 50.525z"/><path d="M344.625 316.166c0-61.249-49.828-111.079-111.075-111.079s-111.076 49.83-111.076 111.079 49.828 111.078 111.076 111.078 111.075-49.829 111.075-111.078m-166.341 55.108a7.5 7.5 0 0 0-10.606-.012l-7.211 7.195c-12.846-15.05-21.139-34.096-22.716-54.991h10.111c4.142 0 7.5-3.357 7.5-7.5s-3.358-7.5-7.5-7.5h-10.077c1.66-20.837 9.997-39.821 22.865-54.808l7.029 7.014a7.47 7.47 0 0 0 5.297 2.19 7.5 7.5 0 0 0 5.297-12.809l-7-6.984c14.999-12.799 33.968-21.076 54.777-22.691v9.897c0 4.143 3.358 7.5 7.5 7.5s7.5-3.357 7.5-7.5v-9.897c20.813 1.615 39.784 9.894 54.784 22.697l-6.984 6.985a7.5 7.5 0 1 0 10.606 10.605l7-7.001c12.865 14.987 21.2 33.968 22.86 54.802h-10.049c-4.142 0-7.5 3.357-7.5 7.5s3.358 7.5 7.5 7.5h10.082c-1.577 20.892-9.868 39.936-22.711 54.985l-7.182-7.182a7.5 7.5 0 1 0-10.606 10.605l7.199 7.2c-15.034 12.907-34.087 21.256-54.999 22.878v-10.265c0-4.143-3.358-7.5-7.5-7.5s-7.5 3.357-7.5 7.5v10.265c-20.909-1.622-39.96-9.969-54.992-22.872l7.215-7.199a7.5 7.5 0 0 0 .011-10.607"/><path d="M217.263 297.563c-5.089 4.509-8.305 11.086-8.305 18.404 0 13.562 11.032 24.594 24.593 24.594 10.958 0 20.263-7.19 23.446-17.094h19.243c4.142 0 7.5-3.357 7.5-7.5s-3.358-7.5-7.5-7.5h-19.243c-3.183-9.903-12.488-17.093-23.446-17.093a25 25 0 0 0-2.56.133l-16.935-40.646a7.5 7.5 0 0 0-13.847 5.77zm25.908 18.404c0 5.29-4.316 9.594-9.621 9.594-5.29 0-9.593-4.304-9.593-9.594s4.303-9.593 9.593-9.593c5.305 0 9.621 4.304 9.621 9.593"/></svg>