<svg xmlns="http://www.w3.org/2000/svg" width="512" height="512"><path fill="#eff6ff" fill-rule="evenodd" d="M42.536 472.885h391.976c14.23 0 25.88-11.622 25.88-25.853V163.389l-221.868-16.923-221.868 16.923v283.643c0 14.231 11.65 25.853 25.88 25.853" clip-rule="evenodd"/><path fill="#9fd4fe" fill-rule="evenodd" d="M16.656 163.389h443.737c4.961 0 9.043-3.997 9.156-8.929v-24.918L234.783 102 7.5 129.543v24.861c.085 4.96 4.167 8.985 9.156 8.985" clip-rule="evenodd"/><path fill="#eb5468" fill-rule="evenodd" d="M7.5 129.543h462.049V66.356c-.113-4.932-4.195-8.929-9.156-8.929H16.656c-4.989 0-9.071 4.025-9.156 8.986v.17z" clip-rule="evenodd"/><path fill="#e5384f" fill-rule="evenodd" d="M338.729 57.427c12.217 21.629 22.847 45.866 31.578 72.116h99.241V66.356c-.113-4.932-4.195-8.929-9.156-8.929H422.04v19.219c0 11.566-9.468 21.005-21.005 21.005-11.565 0-21.005-9.44-21.005-21.005V57.427z" clip-rule="evenodd"/><path fill="#85beef" fill-rule="evenodd" d="M370.307 129.543a496 496 0 0 1 9.893 33.847h80.192c4.961 0 9.043-3.997 9.156-8.929v-24.918z" clip-rule="evenodd"/><path fill="#ffd772" fill-rule="evenodd" d="M55.009 76.647c0 11.566 9.439 21.005 21.005 21.005 11.537 0 21.005-9.44 21.005-21.005V31.858c0-11.566-9.468-21.005-21.005-21.005-11.565 0-21.005 9.44-21.005 21.005v25.569zM163.349 76.647c0 11.566 9.439 21.005 21.005 21.005 11.537 0 21.005-9.44 21.005-21.005V31.858c0-11.566-9.468-21.005-21.005-21.005-11.565 0-21.005 9.44-21.005 21.005v25.569zM271.69 76.647c0 11.566 9.439 21.005 21.005 21.005 11.537 0 21.005-9.44 21.005-21.005V31.858c0-11.566-9.468-21.005-21.005-21.005-11.565 0-21.005 9.44-21.005 21.005v25.569zM380.03 31.858v44.788c0 11.566 9.439 21.005 21.005 21.005 11.537 0 21.005-9.44 21.005-21.005V31.858c0-11.566-9.468-21.005-21.005-21.005-11.565-.001-21.005 9.439-21.005 21.005" clip-rule="evenodd"/><path fill="#fbba58" fill-rule="evenodd" d="M184.723 31.858v44.789c0 7.824-4.309 14.656-10.687 18.284a20.83 20.83 0 0 0 10.318 2.721c11.537 0 21.005-9.44 21.005-21.005V31.858c0-11.566-9.468-21.005-21.005-21.005-3.742 0-7.285.992-10.318 2.721 6.378 3.6 10.687 10.46 10.687 18.284M76.382 31.858v44.789c0 7.824-4.309 14.656-10.687 18.284a20.9 20.9 0 0 0 10.318 2.721c11.537 0 21.005-9.44 21.005-21.005V31.858c0-11.566-9.468-21.005-21.005-21.005-3.742 0-7.257.992-10.318 2.721 6.378 3.6 10.687 10.46 10.687 18.284M293.063 31.858v44.789c0 7.824-4.309 14.656-10.687 18.284a20.83 20.83 0 0 0 10.318 2.721c11.537 0 21.005-9.44 21.005-21.005V31.858c0-11.566-9.468-21.005-21.005-21.005-3.742 0-7.285.992-10.318 2.721 6.378 3.6 10.687 10.46 10.687 18.284M401.404 31.858v44.789c0 7.824-4.337 14.656-10.687 18.284a20.83 20.83 0 0 0 10.318 2.721c11.537 0 21.005-9.44 21.005-21.005V31.858c0-11.566-9.468-21.005-21.005-21.005-3.742 0-7.285.992-10.318 2.721 6.35 3.6 10.687 10.46 10.687 18.284" clip-rule="evenodd"/><path fill="#d9eeff" fill-rule="evenodd" d="M377.026 472.885h57.487c14.23 0 25.88-11.622 25.88-25.853V163.389H357.24c38.948 99.046 43.001 204.158 19.786 309.496" clip-rule="evenodd"/><path fill="#95d6a4" fill-rule="evenodd" d="M375.126 242.365c-71.462 0-129.402 57.942-129.402 129.406s57.94 129.377 129.402 129.377c71.433 0 129.374-57.914 129.374-129.377s-57.94-129.406-129.374-129.406" clip-rule="evenodd"/><path fill="#eff6ff" fill-rule="evenodd" d="M375.126 276.127c-52.838 0-95.641 42.833-95.641 95.644s42.803 95.615 95.641 95.615c52.81 0 95.613-42.804 95.613-95.615 0-52.812-42.803-95.644-95.613-95.644" clip-rule="evenodd"/><path fill="#95d6a4" fill-rule="evenodd" d="M335.725 354.479c-9.496 0-17.263 7.796-17.263 17.292s7.767 17.263 17.263 17.263h22.11v22.111c0 9.496 7.767 17.292 17.291 17.292 9.496 0 17.263-7.796 17.263-17.292v-22.111h22.11c9.496 0 17.263-7.767 17.263-17.263s-7.767-17.292-17.263-17.292h-22.11v-22.111c0-9.496-7.767-17.264-17.263-17.264-9.524 0-17.291 7.767-17.291 17.264v22.111z" clip-rule="evenodd"/><path fill="#78c2a4" fill-rule="evenodd" d="M367.444 316.918c4.961 23.188 7.682 48.219 7.682 74.355 0 12.615-.652 25.002-1.871 37.05.624.057 1.247.113 1.871.113 9.496 0 17.263-7.796 17.263-17.292v-22.111h22.11c9.496 0 17.263-7.767 17.263-17.263s-7.767-17.292-17.263-17.292h-22.11v-22.111c0-9.496-7.767-17.264-17.263-17.264a17 17 0 0 0-7.682 1.815" clip-rule="evenodd"/><path fill="#d9eeff" fill-rule="evenodd" d="M375.126 315.104c9.496 0 17.263 7.767 17.263 17.264v22.111h22.11c9.496 0 17.263 7.796 17.263 17.292s-7.767 17.263-17.263 17.263h-22.11v22.111c0 9.496-7.767 17.292-17.263 17.292-.624 0-1.247-.057-1.871-.113-1.361 13.38-3.43 26.335-6.151 38.751 2.636.227 5.329.312 8.022.312 52.81 0 95.613-42.804 95.613-95.615s-42.803-95.644-95.613-95.644c-6.435 0-12.699.624-18.737 1.843 4.394 12.246 8.107 25.286 11.055 38.949a16.9 16.9 0 0 1 7.682-1.816" clip-rule="evenodd"/><path fill="#78c2a4" fill-rule="evenodd" d="M375.126 242.365c-11.225 0-22.11 1.446-32.485 4.139 5.102 9.723 9.723 20.268 13.748 31.466 6.038-1.219 12.302-1.843 18.737-1.843 52.81 0 95.613 42.833 95.613 95.644s-42.803 95.615-95.613 95.615c-2.693 0-5.386-.085-8.022-.312-2.495 11.452-5.556 22.479-9.128 32.94 5.613.765 11.339 1.134 17.15 1.134 71.433 0 129.374-57.914 129.374-129.377s-57.94-129.406-129.374-129.406" clip-rule="evenodd"/><path d="M467.864 271.176V169.099c5.438-2.745 9.185-8.369 9.185-14.865v-87.65c0-9.185-7.472-16.656-16.656-16.656H429.54V31.857c0-15.718-12.787-28.505-28.505-28.505S372.53 16.14 372.53 31.857v18.069h-51.331V31.857c0-15.718-12.787-28.505-28.504-28.505S264.19 16.139 264.19 31.857v18.069h-51.331V31.857c0-15.718-12.787-28.505-28.505-28.505s-28.505 12.787-28.505 28.505v18.069h-51.331V31.857c0-15.718-12.787-28.505-28.505-28.505S47.509 16.14 47.509 31.857v18.069H16.656C7.472 49.927 0 57.398 0 66.583v87.65c0 6.474 3.72 12.083 9.127 14.838v277.961c0 18.392 14.974 33.354 33.38 33.354h59.415c4.142 0 7.5-3.357 7.5-7.5s-3.358-7.5-7.5-7.5H42.508c-10.135 0-18.38-8.233-18.38-18.354V170.89h196.51c4.142 0 7.5-3.357 7.5-7.5s-3.358-7.5-7.5-7.5H16.656A1.68 1.68 0 0 1 15 154.234v-17.19h447.049v17.19c0 .882-.774 1.656-1.656 1.656H255.249c-4.142 0-7.5 3.357-7.5 7.5s3.358 7.5 7.5 7.5h197.615v88.266c-22.095-15.306-48.885-24.29-77.738-24.29-75.488 0-136.902 61.415-136.902 136.905 0 36.178 14.117 69.117 37.125 93.615H136.562c-4.142 0-7.5 3.357-7.5 7.5s3.358 7.5 7.5 7.5H291.92c23.077 17.714 51.931 28.262 83.206 28.262 75.472 0 136.874-61.402 136.874-136.877 0-39.734-17.016-75.563-44.136-100.595M387.53 31.857c0-7.446 6.058-13.505 13.505-13.505s13.505 6.059 13.505 13.505v44.789c0 7.447-6.058 13.506-13.505 13.506s-13.505-6.059-13.505-13.506zm-108.34 0c0-7.446 6.058-13.505 13.505-13.505 7.446 0 13.504 6.059 13.504 13.505v44.789c0 7.447-6.058 13.506-13.504 13.506-7.447 0-13.505-6.059-13.505-13.506zm-108.341 0c0-7.446 6.058-13.505 13.505-13.505s13.505 6.059 13.505 13.505v44.789c0 7.447-6.058 13.506-13.505 13.506s-13.505-6.059-13.505-13.506zm-108.34 0c0-7.446 6.058-13.505 13.505-13.505s13.505 6.059 13.505 13.505v44.789c0 7.447-6.058 13.506-13.505 13.506s-13.505-6.059-13.505-13.506zM15 122.043v-55.46c0-.897.758-1.656 1.656-1.656h30.853v11.72c0 15.718 12.787 28.506 28.505 28.506s28.505-12.788 28.505-28.506v-11.72h51.331v11.72c0 15.718 12.787 28.506 28.505 28.506s28.505-12.788 28.505-28.506v-11.72h51.331v11.72c0 15.718 12.787 28.506 28.505 28.506S321.2 92.365 321.2 76.647v-11.72h51.331v11.72c0 15.718 12.787 28.506 28.505 28.506s28.505-12.788 28.505-28.506v-11.72h30.853c.882 0 1.656.774 1.656 1.656v55.46zm360.126 371.604c-67.217 0-121.902-54.674-121.902-121.877 0-67.219 54.685-121.905 121.902-121.905C442.327 249.865 497 304.552 497 371.77c0 67.204-54.672 121.877-121.874 121.877"/><path d="M375.126 268.627c-56.872 0-103.141 46.27-103.141 103.144 0 56.858 46.269 103.115 103.141 103.115 56.856 0 103.113-46.257 103.113-103.115 0-56.875-46.256-103.144-103.113-103.144m0 191.259c-48.601 0-88.141-39.528-88.141-88.115 0-48.603 39.54-88.144 88.141-88.144 48.585 0 88.113 39.541 88.113 88.144 0 48.586-39.527 88.115-88.113 88.115"/><path d="M414.5 346.979h-14.61v-14.611c0-13.654-11.108-24.763-24.763-24.763-13.67 0-24.792 11.108-24.792 24.763v14.611h-14.61c-13.654 0-24.763 11.122-24.763 24.792 0 13.654 11.109 24.764 24.763 24.764h14.61v14.61c0 13.67 11.122 24.792 24.792 24.792 13.654 0 24.763-11.122 24.763-24.792v-14.61h14.61c13.654 0 24.763-11.109 24.763-24.764 0-13.67-11.109-24.792-24.763-24.792m0 34.555h-22.11a7.5 7.5 0 0 0-7.5 7.5v22.11c0 5.399-4.379 9.792-9.763 9.792-5.399 0-9.792-4.393-9.792-9.792v-22.11a7.5 7.5 0 0 0-7.5-7.5h-22.11c-5.383 0-9.763-4.38-9.763-9.764 0-5.399 4.38-9.792 9.763-9.792h22.11a7.5 7.5 0 0 0 7.5-7.5v-22.111c0-5.383 4.393-9.763 9.792-9.763 5.383 0 9.763 4.38 9.763 9.763v22.111a7.5 7.5 0 0 0 7.5 7.5h22.11c5.383 0 9.763 4.393 9.763 9.792 0 5.384-4.38 9.764-9.763 9.764M105.21 221.121h185.188c4.142 0 7.5-3.357 7.5-7.5s-3.358-7.5-7.5-7.5H105.21c-4.142 0-7.5 3.357-7.5 7.5s3.358 7.5 7.5 7.5M105.21 272.004h129.572c4.142 0 7.5-3.357 7.5-7.5s-3.358-7.5-7.5-7.5H105.21c-4.142 0-7.5 3.357-7.5 7.5s3.358 7.5 7.5 7.5M105.21 322.888h100.262c4.142 0 7.5-3.357 7.5-7.5s-3.358-7.5-7.5-7.5H105.21c-4.142 0-7.5 3.357-7.5 7.5s3.358 7.5 7.5 7.5M105.21 373.771h100.262c4.142 0 7.5-3.357 7.5-7.5s-3.358-7.5-7.5-7.5H105.21c-4.142 0-7.5 3.357-7.5 7.5s3.358 7.5 7.5 7.5M105.21 424.654h81.893c4.142 0 7.5-3.357 7.5-7.5s-3.358-7.5-7.5-7.5H105.21c-4.142 0-7.5 3.357-7.5 7.5s3.358 7.5 7.5 7.5M74.086 206.121h-8.334c-4.142 0-7.5 3.357-7.5 7.5s3.358 7.5 7.5 7.5h8.334c4.142 0 7.5-3.357 7.5-7.5s-3.358-7.5-7.5-7.5M74.086 257.004h-8.334c-4.142 0-7.5 3.357-7.5 7.5s3.358 7.5 7.5 7.5h8.334c4.142 0 7.5-3.357 7.5-7.5s-3.358-7.5-7.5-7.5M74.086 307.888h-8.334c-4.142 0-7.5 3.357-7.5 7.5s3.358 7.5 7.5 7.5h8.334c4.142 0 7.5-3.357 7.5-7.5s-3.358-7.5-7.5-7.5M74.086 358.771h-8.334c-4.142 0-7.5 3.357-7.5 7.5s3.358 7.5 7.5 7.5h8.334c4.142 0 7.5-3.357 7.5-7.5s-3.358-7.5-7.5-7.5M74.086 409.654h-8.334c-4.142 0-7.5 3.357-7.5 7.5s3.358 7.5 7.5 7.5h8.334c4.142 0 7.5-3.357 7.5-7.5s-3.358-7.5-7.5-7.5"/></svg>