<svg xmlns="http://www.w3.org/2000/svg" width="512" height="512"><path fill="#eff6ff" fill-rule="evenodd" d="M42.536 472.885h391.976c14.23 0 25.88-11.622 25.88-25.853V163.389l-221.868-13.056-221.868 13.056v283.643c0 14.231 11.65 25.853 25.88 25.853" clip-rule="evenodd"/><path fill="#9fd4fe" fill-rule="evenodd" d="M16.656 163.389h443.737c4.961 0 9.043-3.997 9.156-8.929v-24.918l-231.024-19.134L7.5 129.543v24.861c.085 4.96 4.167 8.985 9.156 8.985" clip-rule="evenodd"/><path fill="#eb5468" fill-rule="evenodd" d="M7.5 129.543h462.049V66.356c-.113-4.932-4.195-8.929-9.156-8.929H16.656c-4.989 0-9.071 4.025-9.156 8.986v.17z" clip-rule="evenodd"/><path fill="#e5384f" fill-rule="evenodd" d="M338.729 57.427c12.217 21.629 22.847 45.866 31.578 72.116h99.241V66.356c-.113-4.932-4.195-8.929-9.156-8.929H422.04v19.219c0 11.566-9.468 21.005-21.005 21.005-11.565 0-21.005-9.44-21.005-21.005V57.427z" clip-rule="evenodd"/><path fill="#85beef" fill-rule="evenodd" d="M370.307 129.543a496 496 0 0 1 9.893 33.847h80.192c4.961 0 9.043-3.997 9.156-8.929v-24.918z" clip-rule="evenodd"/><path fill="#ffd772" fill-rule="evenodd" d="M55.009 76.647c0 11.566 9.439 21.005 21.005 21.005 11.537 0 21.005-9.44 21.005-21.005V31.858c0-11.566-9.468-21.005-21.005-21.005-11.565 0-21.005 9.44-21.005 21.005v25.569zM163.349 76.647c0 11.566 9.439 21.005 21.005 21.005 11.537 0 21.005-9.44 21.005-21.005V31.858c0-11.566-9.468-21.005-21.005-21.005-11.565 0-21.005 9.44-21.005 21.005v25.569zM271.69 76.647c0 11.566 9.439 21.005 21.005 21.005 11.537 0 21.005-9.44 21.005-21.005V31.858c0-11.566-9.468-21.005-21.005-21.005-11.565 0-21.005 9.44-21.005 21.005v25.569zM380.03 31.858v44.788c0 11.566 9.439 21.005 21.005 21.005 11.537 0 21.005-9.44 21.005-21.005V31.858c0-11.566-9.468-21.005-21.005-21.005-11.565-.001-21.005 9.439-21.005 21.005" clip-rule="evenodd"/><path fill="#fbba58" fill-rule="evenodd" d="M184.723 31.858v44.789c0 7.824-4.309 14.656-10.687 18.284a20.9 20.9 0 0 0 10.318 2.721c11.537 0 21.005-9.44 21.005-21.005V31.858c0-11.566-9.468-21.005-21.005-21.005-3.742 0-7.285.992-10.318 2.721 6.378 3.6 10.687 10.46 10.687 18.284M76.382 31.858v44.789c0 7.824-4.309 14.656-10.687 18.284a20.9 20.9 0 0 0 10.318 2.721c11.537 0 21.005-9.44 21.005-21.005V31.858c0-11.566-9.468-21.005-21.005-21.005-3.742 0-7.257.992-10.318 2.721 6.378 3.6 10.687 10.46 10.687 18.284M293.063 31.858v44.789c0 7.824-4.309 14.656-10.687 18.284a20.83 20.83 0 0 0 10.318 2.721c11.537 0 21.005-9.44 21.005-21.005V31.858c0-11.566-9.468-21.005-21.005-21.005-3.742 0-7.285.992-10.318 2.721 6.378 3.6 10.687 10.46 10.687 18.284M401.404 31.858v44.789c0 7.824-4.309 14.656-10.687 18.284a20.83 20.83 0 0 0 10.318 2.721c11.537 0 21.005-9.44 21.005-21.005V31.858c0-11.566-9.468-21.005-21.005-21.005-3.742 0-7.285.992-10.318 2.721 6.35 3.6 10.687 10.46 10.687 18.284" clip-rule="evenodd"/><path fill="#d9eeff" fill-rule="evenodd" d="M377.026 472.885h57.487c14.23 0 25.88-11.622 25.88-25.853V163.389H357.24c38.948 99.046 43.001 204.158 19.786 309.496" clip-rule="evenodd"/><path fill="#eb5468" fill-rule="evenodd" d="M375.126 242.365c-71.462 0-129.402 57.942-129.402 129.406s57.94 129.377 129.402 129.377c71.433 0 129.374-57.914 129.374-129.377s-57.94-129.406-129.374-129.406" clip-rule="evenodd"/><path fill="#eff6ff" fill-rule="evenodd" d="M375.126 276.127c-52.838 0-95.641 42.833-95.641 95.644s42.803 95.615 95.641 95.615c52.81 0 95.613-42.804 95.613-95.615 0-52.812-42.803-95.644-95.613-95.644" clip-rule="evenodd"/><path fill="#eb5468" fill-rule="evenodd" d="M391.227 355.556h-49.351c-8.05 0-14.599 7.285-14.599 16.215 0 8.901 6.576 16.186 14.599 16.186h66.501c8.022 0 14.57-7.285 14.57-16.186s-6.548-16.215-14.57-16.215z" clip-rule="evenodd"/><path fill="#d9eeff" fill-rule="evenodd" d="M356.928 277.856c13.238 21.317 22.734 48.02 26.872 77.7h24.577c8.022 0 14.57 7.314 14.57 16.215s-6.548 16.186-14.57 16.186h-22.252v1.417c0 28.262-4.762 54.824-13.124 78.012h2.126c1.02 0 2.069 0 3.09-.028 35.887-1.162 66.813-22.083 82.177-52.244 6.605-13.011 10.346-27.752 10.346-43.343a95.66 95.66 0 0 0-10.346-43.371c-14.145-27.752-41.443-47.68-73.673-51.564a92 92 0 0 0-11.594-.709c-6.237 0-12.303.595-18.199 1.729" clip-rule="evenodd"/><path fill="#e5384f" fill-rule="evenodd" d="M391.227 355.556H383.8c1.474 10.46 2.268 21.317 2.324 32.401h22.252c8.022 0 14.57-7.285 14.57-16.186s-6.548-16.215-14.57-16.215z" clip-rule="evenodd"/><path fill="#e5384f" fill-rule="evenodd" d="M460.393 274.454c-21.458-18.794-49.153-30.643-79.569-31.947a127 127 0 0 0-5.698-.142c-14.598 0-28.63 2.438-41.726 6.888 8.702 7.852 16.611 17.49 23.528 28.602a96 96 0 0 1 18.198-1.729c3.912 0 7.795.227 11.594.709 32.23 3.884 59.528 23.812 73.673 51.564a95.65 95.65 0 0 1 10.346 43.371c0 15.591-3.742 30.332-10.346 43.343-15.364 30.162-46.29 51.082-82.177 52.244-1.021.028-2.069.028-3.09.028H373a309 309 0 0 1-2.098 5.499c-3.855 9.723-8.334 18.794-13.408 27.072 5.754.794 11.65 1.191 17.632 1.191 71.433 0 129.374-57.914 129.374-129.377 0-38.807-17.065-73.618-44.107-97.316" clip-rule="evenodd"/><path d="M105.21 221.121h185.188c4.143 0 7.5-3.357 7.5-7.5s-3.357-7.5-7.5-7.5H105.21c-4.142 0-7.5 3.357-7.5 7.5s3.358 7.5 7.5 7.5M105.21 272.004h129.572c4.142 0 7.5-3.357 7.5-7.5s-3.358-7.5-7.5-7.5H105.21c-4.142 0-7.5 3.357-7.5 7.5s3.358 7.5 7.5 7.5M105.21 322.888h100.262c4.142 0 7.5-3.357 7.5-7.5s-3.358-7.5-7.5-7.5H105.21c-4.142 0-7.5 3.357-7.5 7.5s3.358 7.5 7.5 7.5M105.21 373.771h100.262c4.142 0 7.5-3.357 7.5-7.5s-3.358-7.5-7.5-7.5H105.21c-4.142 0-7.5 3.357-7.5 7.5s3.358 7.5 7.5 7.5M105.21 424.654h81.893c4.142 0 7.5-3.357 7.5-7.5s-3.358-7.5-7.5-7.5H105.21c-4.142 0-7.5 3.357-7.5 7.5s3.358 7.5 7.5 7.5M74.114 206.121h-8.362c-4.142 0-7.5 3.357-7.5 7.5s3.358 7.5 7.5 7.5h8.362c4.142 0 7.5-3.357 7.5-7.5s-3.358-7.5-7.5-7.5M74.114 257.004h-8.362c-4.142 0-7.5 3.357-7.5 7.5s3.358 7.5 7.5 7.5h8.362c4.142 0 7.5-3.357 7.5-7.5s-3.358-7.5-7.5-7.5M74.114 307.888h-8.362c-4.142 0-7.5 3.357-7.5 7.5s3.358 7.5 7.5 7.5h8.362c4.142 0 7.5-3.357 7.5-7.5s-3.358-7.5-7.5-7.5M74.114 358.771h-8.362c-4.142 0-7.5 3.357-7.5 7.5s3.358 7.5 7.5 7.5h8.362c4.142 0 7.5-3.357 7.5-7.5s-3.358-7.5-7.5-7.5M74.114 409.654h-8.362c-4.142 0-7.5 3.357-7.5 7.5s3.358 7.5 7.5 7.5h8.362c4.142 0 7.5-3.357 7.5-7.5s-3.358-7.5-7.5-7.5"/><path d="M467.893 271.203V168.886c5.423-2.75 9.156-8.367 9.156-14.851V66.356c0-9.185-7.472-16.656-16.656-16.656H429.54V31.857c0-15.718-12.787-28.505-28.505-28.505S372.53 16.14 372.53 31.857V49.7h-51.331V31.857c0-15.718-12.787-28.505-28.505-28.505s-28.505 12.787-28.505 28.505V49.7h-51.331V31.857c0-15.718-12.787-28.505-28.505-28.505s-28.505 12.787-28.505 28.505V49.7h-51.331V31.857c0-15.718-12.787-28.505-28.505-28.505S47.509 16.14 47.509 31.857V49.7H16.656C7.472 49.7 0 57.172 0 66.356v87.679c0 6.484 3.733 12.101 9.156 14.851v278.146c0 18.392 14.974 33.354 33.38 33.354h59.415c4.142 0 7.5-3.357 7.5-7.5s-3.358-7.5-7.5-7.5H42.536c-10.135 0-18.38-8.233-18.38-18.354V170.69h196.482c4.142 0 7.5-3.357 7.5-7.5s-3.358-7.5-7.5-7.5H16.656c-.882 0-1.656-.773-1.656-1.655v-16.992h447.049v16.992c0 .882-.774 1.655-1.656 1.655H255.249c-4.142 0-7.5 3.357-7.5 7.5s3.358 7.5 7.5 7.5h197.644v88.484c-22.101-15.318-48.902-24.31-77.767-24.31-75.487 0-136.901 61.415-136.901 136.905 0 36.178 14.117 69.117 37.125 93.615H136.59c-4.142 0-7.5 3.357-7.5 7.5s3.358 7.5 7.5 7.5h155.33c23.077 17.714 51.93 28.262 83.206 28.262 75.473 0 136.874-61.402 136.874-136.877 0-39.718-17.004-75.535-44.107-100.566M387.53 31.857c0-7.446 6.059-13.505 13.505-13.505s13.505 6.059 13.505 13.505v44.789c0 7.447-6.059 13.506-13.505 13.506s-13.505-6.059-13.505-13.506zm-108.341 0c0-7.446 6.059-13.505 13.505-13.505s13.505 6.059 13.505 13.505v44.789c0 7.447-6.059 13.506-13.505 13.506s-13.505-6.059-13.505-13.506zm-108.34 0c0-7.446 6.058-13.505 13.505-13.505s13.505 6.059 13.505 13.505v44.789c0 7.447-6.058 13.506-13.505 13.506s-13.505-6.059-13.505-13.506zm-108.34 0c0-7.446 6.058-13.505 13.505-13.505s13.505 6.059 13.505 13.505v44.789c0 7.447-6.058 13.506-13.505 13.506s-13.505-6.059-13.505-13.506zM15 122.043V66.356c0-.882.774-1.656 1.656-1.656h30.853v11.946c0 15.718 12.787 28.506 28.505 28.506s28.505-12.788 28.505-28.506V64.7h51.331v11.946c0 15.718 12.787 28.506 28.505 28.506s28.505-12.788 28.505-28.506V64.7h51.331v11.946c0 15.718 12.787 28.506 28.505 28.506s28.505-12.788 28.505-28.506V64.7h51.331v11.946c0 15.718 12.787 28.506 28.505 28.506s28.505-12.788 28.505-28.506V64.7h30.853c.882 0 1.656.774 1.656 1.656v55.687zm360.126 371.604c-67.217 0-121.901-54.674-121.901-121.877 0-67.219 54.685-121.905 121.901-121.905C442.327 249.865 497 304.552 497 371.77c0 67.204-54.673 121.877-121.874 121.877"/><path d="M375.126 268.627c-56.872 0-103.141 46.27-103.141 103.144 0 56.858 46.269 103.115 103.141 103.115 56.856 0 103.113-46.257 103.113-103.115 0-56.875-46.257-103.144-103.113-103.144m0 191.259c-48.601 0-88.141-39.528-88.141-88.115 0-48.603 39.54-88.144 88.141-88.144 48.586 0 88.113 39.541 88.113 88.144 0 48.586-39.527 88.115-88.113 88.115"/><path d="M408.377 348.056h-66.501c-12.186 0-22.099 10.639-22.099 23.715 0 13.061 9.913 23.687 22.099 23.687h66.501c12.17 0 22.07-10.626 22.07-23.687 0-13.077-9.9-23.715-22.07-23.715m0 32.401h-66.501c-3.848 0-7.099-3.978-7.099-8.687 0-4.724 3.251-8.715 7.099-8.715h66.501c3.832 0 7.07 3.991 7.07 8.715 0 4.709-3.238 8.687-7.07 8.687"/></svg>