<svg xmlns="http://www.w3.org/2000/svg" width="512" height="512"><path fill="#95d6a4" fill-rule="evenodd" d="M441.854 230.884c-3.6-116.819-99.44-210.422-217.135-210.422-119.963 0-217.22 97.26-217.22 217.225 0 118.293 94.536 214.504 212.174 217.169 20.863 5.017 94.564-26.108 91.049-42.691l126.085-155.202z" clip-rule="evenodd"/><path fill="#eff6ff" fill-rule="evenodd" d="M392.985 198.398C375.183 121.917 306.613 64.911 224.72 64.911c-95.414 0-172.772 77.36-172.772 172.777s77.358 172.777 172.772 172.777c14.825 0 29.197-1.871 42.917-5.386 141.789 8.532 123.307-214.136 125.348-206.681" clip-rule="evenodd"/><path fill="#ffd772" fill-rule="evenodd" d="M224.72 265.893c15.761 0 28.545-12.756 28.545-28.517s-12.784-28.517-28.545-28.517-28.517 12.756-28.517 28.517 12.756 28.517 28.517 28.517M377.989 491.538c15.194 0 27.666-12.444 27.666-27.667v-8.929l-31.776-18.766-23.556 18.766v8.929c0 15.222 12.444 27.667 27.666 27.667" clip-rule="evenodd"/><path fill="#faf0b0" fill-rule="evenodd" d="M405.032 233.379v-12.501c0-9.326-4.791-17.604-12.047-22.479a26.82 26.82 0 0 0-14.995-4.564c-14.882 0-27.071 12.161-27.071 27.043v12.501c15.987 6.746 35.603 5.556 54.113 0" clip-rule="evenodd"/><path fill="#d9eeff" fill-rule="evenodd" d="M392.985 198.398C379.01 138.302 333.684 90.225 275.176 72.394c32.712 42.294 52.498 97.26 52.498 157.328 0 6.095-.227 12.161-.624 18.142a77.7 77.7 0 0 1 23.868-14.485v-12.501c0-14.882 12.189-27.043 27.071-27.043a26.74 26.74 0 0 1 14.854 4.479c.028-.143.085-.114.142.084" clip-rule="evenodd"/><path fill="#78c2a4" fill-rule="evenodd" d="M275.176 72.394c58.507 17.83 103.833 65.908 117.808 126.004 7.257 4.876 12.047 13.153 12.047 22.479v12.501a77.2 77.2 0 0 1 21.685 12.643l15.137-15.137c-3.6-116.819-99.44-210.422-217.135-210.422-1.899 0-3.827.028-5.726.057 21.29 13.72 40.254 31.295 56.184 51.875" clip-rule="evenodd"/><path fill="#ffd772" fill-rule="evenodd" d="M376.175 203.614c7.257 4.876 12.047 13.153 12.047 22.479v3.033c1.417.198 2.835.425 4.224.68a78 78 0 0 1 12.586 3.572v-12.501c0-9.326-4.791-17.604-12.047-22.479a.6.6 0 0 0-.142-.085 26.74 26.74 0 0 0-14.854-4.479 26.9 26.9 0 0 0-15.959 5.216 26.8 26.8 0 0 1 14.145 4.564" clip-rule="evenodd"/><path fill="#fbba58" fill-rule="evenodd" d="M229.935 237.943c0 11.339-6.633 21.147-16.243 25.739 3.402 1.446 7.115 2.211 11.027 2.211 15.761 0 28.545-12.756 28.545-28.517s-12.784-28.517-28.545-28.517a28.6 28.6 0 0 0-12.274 2.75c10.262 4.336 17.49 14.485 17.49 26.334" clip-rule="evenodd"/><path fill="#ffd772" fill-rule="evenodd" d="m287.394 385.349 79.144-62.421 60.18-76.906a77.2 77.2 0 0 0-21.685-12.643 76.6 76.6 0 0 0-27.043-4.932 76.6 76.6 0 0 0-27.071 4.932c-28.999 11.027-49.777 39.148-49.777 71.889v35.009c0 15.222-4.394 30.076-13.748 45.072M305.479 417.41h190.347c-28.205-26.278-41.017-51.195-41.017-77.133v-35.009a76.2 76.2 0 0 0-6.463-30.728l-74.466 55.306z" clip-rule="evenodd"/><path fill="#faf0b0" fill-rule="evenodd" d="M350.323 454.941h135.836c5.329 0 9.666-4.365 9.666-9.666V417.41H305.479l-37.531 14.882v22.65z" clip-rule="evenodd"/><path fill="#eb5468" fill-rule="evenodd" d="m305.479 417.41 142.867-142.87 50.967-50.997c6.917-6.888 6.917-18.171 0-25.059-6.888-6.888-18.17-6.888-25.058 0l-32.4 32.401-15.137 15.137-139.324 139.327-19.758 19.73-44.221 44.25a17.4 17.4 0 0 0-3.742 5.528c-2.75 6.492-1.502 14.287 3.742 19.531 6.888 6.917 18.17 6.917 25.058 0l19.474-19.446z" clip-rule="evenodd"/><path fill="#fbba58" fill-rule="evenodd" d="M374.078 228.531c6.18 6.775 11.82 15.052 16.781 24.577 3.203 6.18 6.123 12.898 8.731 20.042l27.128-27.128a77.2 77.2 0 0 0-21.685-12.643 78 78 0 0 0-12.586-3.572 100 100 0 0 0-4.224-.68 76 76 0 0 0-10.233-.68 88 88 0 0 0-3.912.084" clip-rule="evenodd"/><path fill="#ffd772" fill-rule="evenodd" d="M439.388 417.41v27.865c0 5.301-4.365 9.666-9.695 9.666h56.466c5.329 0 9.666-4.365 9.666-9.666V417.41z" clip-rule="evenodd"/><path fill="#fbba58" fill-rule="evenodd" d="M419.545 363.493c0 18.199 6.321 35.888 19.843 53.917h56.438c-28.205-26.278-41.017-51.195-41.017-77.133v-35.009a76.2 76.2 0 0 0-6.463-30.728l-32.003 32.004a76.8 76.8 0 0 1 3.203 21.941z" clip-rule="evenodd"/><path fill="#e5384f" fill-rule="evenodd" d="M235.321 460.186c-4.535 4.536-10.998 6.066-16.838 4.649a17.7 17.7 0 0 0 4.932 9.553c6.888 6.917 18.17 6.917 25.058 0l39.657-39.63 17.348-17.349 5.244-5.244 105.619-105.622 32.003-32.004 50.967-50.997c6.917-6.888 6.917-18.171 0-25.059a17.53 17.53 0 0 0-8.22-4.649c.907 5.471-.737 11.282-4.932 15.478-83.622 83.625-167.215 167.249-250.838 250.874" clip-rule="evenodd"/><path fill="#fbba58" fill-rule="evenodd" d="M389.413 459.874c0 14.599-11.48 26.646-25.852 27.61a27.57 27.57 0 0 0 14.428 4.054c15.194 0 27.666-12.444 27.666-27.667v-8.929h-16.243z" clip-rule="evenodd"/><path d="M259.973 244.876h29.603c4.143 0 7.5-3.357 7.5-7.5s-3.357-7.5-7.5-7.5h-29.602c-3.461-16.288-17.951-28.546-35.255-28.546-2.532 0-5.002.266-7.388.766l-28.124-67.474a7.5 7.5 0 0 0-13.846 5.772l28.258 67.796c-9.029 6.556-14.917 17.193-14.917 29.186 0 19.86 16.157 36.018 36.017 36.018 17.302 0 31.791-12.246 35.254-28.518m-35.253 13.518c-11.589 0-21.017-9.429-21.017-21.018 0-11.604 9.428-21.046 21.017-21.046 11.604 0 21.045 9.441 21.045 21.046 0 11.589-9.441 21.018-21.045 21.018"/><path d="M512 211.014c0-6.758-2.626-13.095-7.396-17.845-4.746-4.741-11.074-7.353-17.821-7.353-6.751 0-13.084 2.615-17.833 7.363l-20.737 20.737c-5.473-52.181-28.873-100.476-66.916-137.431-42.17-40.965-97.777-63.524-156.578-63.524-37.242 0-74.105 9.281-106.605 26.84a7.5 7.5 0 0 0 7.131 13.197c30.315-16.38 64.714-25.037 99.475-25.037 112.97 0 204.377 87.568 209.5 199.949l-8.187 8.188a84 84 0 0 0-13.501-7.67v-7.55c0-10.862-5.044-20.564-12.907-26.901-9.461-37.905-31.41-72.211-62.038-96.847-31.845-25.613-71.928-39.719-112.867-39.719-99.402 0-180.272 80.872-180.272 180.276s80.87 180.277 180.272 180.277c6.916 0 13.811-.414 20.65-1.197l-27.256 27.257a25.4 25.4 0 0 0-2.687 3.177C104.507 442.328 15 349.263 15 237.688c0-65.963 30.106-126.764 82.599-166.813a7.5 7.5 0 0 0-9.098-11.926C61.59 79.48 39.313 106.252 24.077 136.37 8.101 167.949 0 202.038 0 237.688c0 59.124 22.769 114.948 64.112 157.191 39.229 40.082 91.019 63.699 146.64 67.094.03 6.708 2.638 12.997 7.349 17.707 4.749 4.77 11.086 7.396 17.844 7.396 6.757 0 13.094-2.626 17.832-7.384l17.25-17.25h71.796v1.43c0 19.392 15.775 35.167 35.166 35.167s35.166-15.775 35.166-35.167v-1.43h73.005c9.466 0 17.166-7.7 17.166-17.166V417.41a7.6 7.6 0 0 0-2.388-5.487c-26.354-24.554-38.63-47.319-38.63-71.646v-35.009a83.2 83.2 0 0 0-5.173-28.94l47.469-47.471c4.769-4.75 7.396-11.086 7.396-17.843m-134.011 24.932c13.206 0 26.153 3.857 37.231 10.965L307.407 354.729a85.3 85.3 0 0 0 1.235-14.452v-35.009c0-38.224 31.109-69.322 69.347-69.322m0-15c-6.738 0-13.286.817-19.571 2.316v-2.384c0-10.776 8.779-19.544 19.571-19.544 3.993 0 7.708 1.209 10.805 3.273.081.055.16.114.243.166 5.125 3.527 8.495 9.428 8.495 16.105v2.413a83.5 83.5 0 0 0-19.543-2.345M232.22 402.776v-22.445c0-4.143-3.357-7.5-7.5-7.5s-7.5 3.357-7.5 7.5v22.456c-40.003-1.796-76.349-17.876-104.047-43.256l15.766-15.767a7.5 7.5 0 0 0-.001-10.606 7.5 7.5 0 0 0-10.606.001l-15.754 15.755c-25.272-27.73-41.246-64.068-42.965-104.038h22.155c4.143 0 7.5-3.357 7.5-7.5s-3.357-7.5-7.5-7.5H59.637c1.865-39.881 17.929-76.11 43.242-103.737l15.454 15.454c1.465 1.464 3.385 2.196 5.304 2.196s3.839-.732 5.304-2.196a7.5 7.5 0 0 0 0-10.607l-15.443-15.443c27.657-25.207 63.877-41.165 103.723-42.954V94.42c0 4.143 3.357 7.5 7.5 7.5s7.5-3.357 7.5-7.5V72.579c39.714 1.756 76.108 17.4 103.932 42.754L320.5 130.986a7.498 7.498 0 0 0 5.304 12.802 7.48 7.48 0 0 0 5.304-2.197l15.658-15.659c15.613 17.087 27.74 37.616 35.162 60.632a35 35 0 0 0-3.938-.231c-19.062 0-34.571 15.496-34.571 34.544v7.507c-29.313 13.225-49.776 42.7-49.776 76.883v35.009c0 13.817-3.997 27.045-12.195 40.413l-17.579 17.579a165 165 0 0 1-31.649 4.508m165.935 61.095c0 11.12-9.047 20.167-20.166 20.167s-20.166-9.047-20.166-20.167v-1.43h40.332zm49.154-158.603v35.009c0 23.865 10.041 46.77 30.598 69.633h-82.768c-4.143 0-7.5 3.357-7.5 7.5s3.357 7.5 7.5 7.5h93.188v20.366c0 1.174-.992 2.166-2.166 2.166H286.026l22.531-22.532H360.5c4.143 0 7.5-3.357 7.5-7.5s-3.357-7.5-7.5-7.5h-36.943l121.616-121.62a68.5 68.5 0 0 1 2.136 16.978m46.7-87.029-250.85 250.856c-1.913 1.922-4.476 2.979-7.214 2.979a10.11 10.11 0 0 1-7.226-2.991c-1.916-1.915-2.97-4.481-2.97-7.226s1.054-5.311 2.97-7.226l250.838-250.846c1.915-1.915 4.481-2.971 7.226-2.971s5.312 1.055 7.226 2.97l.012.012c1.922 1.914 2.979 4.477 2.979 7.216 0 2.74-1.058 5.302-2.991 7.227"/></svg>