<svg xmlns="http://www.w3.org/2000/svg" width="512" height="512"><path fill="#375e7d" fill-rule="evenodd" d="m381.39 142.619-34.614-14.645-37.872-16.005c-6.487-2.719-14.021.34-16.741 6.798l-15.183 35.918c-27.08-2.663-55.207.935-82.202 11.727-12.407 4.079-24.984 12.067-32.49 17.081-64.81 43.34-94.127 125.856-68.521 201.63l97.64 105.376a175.5 175.5 0 0 0 57.389 13.625h22.236a174.8 174.8 0 0 0 54.726-12.577c89.709-36.4 132.906-138.631 96.507-228.314-11.075-27.25-28.213-50.223-49.259-67.956l15.183-35.918c2.747-6.485-.312-13.992-6.799-16.74" clip-rule="evenodd"/><path fill="#eff6ff" fill-rule="evenodd" d="M386.772 277.625c-13.172-32.463-38.75-59.94-73.591-74.641-34.841-14.73-72.373-13.937-104.835-.765-32.49 13.2-59.938 38.779-74.667 73.621-12.095 28.582-13.71 58.976-6.628 86.935 7.705 47.702 44.812 74.556 89.17 96.226 32.037 10.793 65.66 9.036 95.147-2.918 32.49-13.172 59.938-38.751 74.667-73.593 14.73-34.87 13.937-72.374.737-104.865" clip-rule="evenodd"/><path fill="#eb5468" fill-rule="evenodd" d="M149.145 359.319c39.996 0 72.401 32.434 72.401 72.403a72.1 72.1 0 0 1-5.325 27.279c-5.155 12.719-13.823 23.596-24.814 31.499-11.84 8.526-26.343 13.569-42.036 13.625h-.425c-39.883-.113-72.175-32.491-72.175-72.403 0-17.761 6.373-34.02 16.996-46.598 8.668-10.311 20.168-18.157 33.283-22.35a72.2 72.2 0 0 1 22.095-3.455" clip-rule="evenodd"/><path fill="#ffd772" fill-rule="evenodd" d="M240.723 321.078c4.476-10.566 16.656-15.523 27.221-11.047 2.719 1.161 5.099 2.833 6.997 4.872 5.495 5.807 7.336 14.503 4.022 22.322-4.447 10.566-16.627 15.523-27.193 11.047-10.565-4.447-15.494-16.628-11.047-27.194" clip-rule="evenodd"/><path fill="#e5384f" fill-rule="evenodd" d="M131.328 361.557c27.958 9.999 47.956 36.74 47.956 68.154 0 2.691-.142 5.354-.453 7.96-1.53 14.107-7.138 27.024-15.608 37.505-9.688 11.982-23.114 20.82-38.495 24.729a72.9 72.9 0 0 0 24.219 4.221h.425c15.693-.057 30.196-5.099 42.036-13.625 10.99-7.903 19.658-18.781 24.814-31.499a72.1 72.1 0 0 0 5.325-27.279c0-39.969-32.405-72.403-72.401-72.403-6.148-.001-12.125.764-17.818 2.237" clip-rule="evenodd"/><path fill="#2b4d66" fill-rule="evenodd" d="m346.776 127.974-37.872-16.005a12.6 12.6 0 0 0-8.384-.51c15.069 29.715 26.683 64.528 33.793 102.685 24.105 15.58 42.121 37.986 52.46 63.48 13.2 32.491 13.993 69.996-.736 104.866-13.823 32.689-38.835 57.22-68.719 71.015-6.033 16.883-13.058 32.633-20.933 47.108a175.4 175.4 0 0 0 29.374-9.065c89.709-36.4 132.906-138.631 96.507-228.314-11.075-27.25-28.213-50.223-49.259-67.956l15.183-35.918c2.748-6.487-.312-13.993-6.798-16.741z" clip-rule="evenodd"/><path fill="#d9eeff" fill-rule="evenodd" d="M386.772 277.625c-10.339-25.494-28.354-47.901-52.46-63.48 5.184 27.76 7.96 57.305 7.96 87.955 0 55.351-9.121 107.16-24.955 151.407 29.884-13.795 54.896-38.326 68.719-71.015 14.729-34.872 13.936-72.376.736-104.867" clip-rule="evenodd"/><path d="M149.214 459.24h-.114a7.5 7.5 0 0 0 0 14.998h.113a7.5 7.5 0 0 0 7.499-7.499 7.5 7.5 0 0 0-7.498-7.499M149.236 389.168h-.022a7.5 7.5 0 0 0-7.499 7.477l-.113 38.605a7.5 7.5 0 0 0 7.477 7.522h.022a7.5 7.5 0 0 0 7.499-7.477l.113-38.605a7.5 7.5 0 0 0-7.477-7.522M209.82 316.138l22.014 9.314a28.13 28.13 0 0 0 1.836 14.328c2.84 6.998 8.235 12.465 15.177 15.387a28.2 28.2 0 0 0 11.008 2.252 28.2 28.2 0 0 0 10.624-2.091c6.997-2.842 12.464-8.241 15.385-15.181 3.468-8.167 2.767-17.074-1.132-24.355l41.031-40.267a7.5 7.5 0 0 0 .1-10.604 7.496 7.496 0 0 0-10.605-.1l-40.862 40.101a28 28 0 0 0-3.521-1.8l-.007-.003c-6.955-2.945-14.64-3.004-21.64-.159a28.1 28.1 0 0 0-11.557 8.676l-22.007-9.311a7.5 7.5 0 0 0-5.844 13.813m45.053.718a13.2 13.2 0 0 1 4.985-.981c1.75 0 3.5.352 5.16 1.056 6.731 2.863 9.89 10.646 7.031 17.376a13.14 13.14 0 0 1-7.215 7.126 13.15 13.15 0 0 1-10.153-.083 13.11 13.11 0 0 1-7.113-7.208 13.2 13.2 0 0 1 .063-10.145v-.001l.001-.001a13.2 13.2 0 0 1 7.241-7.139M383.262 38.134a7.501 7.501 0 0 0 9.912-3.771l10.678-23.792a7.5 7.5 0 1 0-13.683-6.142l-10.678 23.792a7.5 7.5 0 0 0 3.771 9.913M399.8 60.154a7.5 7.5 0 0 0 9.673 4.348l24.386-9.262a7.5 7.5 0 0 0-5.325-14.022l-24.386 9.262a7.5 7.5 0 0 0-4.348 9.674M346.131 36.057a7.5 7.5 0 0 0 7.009 4.831 7.499 7.499 0 0 0 7.006-10.171l-9.29-24.387a7.5 7.5 0 0 0-9.678-4.338 7.5 7.5 0 0 0-4.338 9.678z"/><path d="M429.193 260.41c-10.448-25.707-26.701-48.838-47.176-67.213l13.062-30.901c2.111-4.984 2.148-10.496.105-15.521a20.18 20.18 0 0 0-10.888-11.051l-22.312-9.434a33.8 33.8 0 0 0 6.062-9.521c3.522-8.329 3.581-17.54.172-25.922-3.902-9.643.765-20.678 10.403-24.598a7.5 7.5 0 0 0 4.121-9.771 7.5 7.5 0 0 0-9.772-4.122c-17.285 7.029-25.654 26.819-18.651 44.128 1.903 4.679 1.872 9.808-.088 14.444a18.64 18.64 0 0 1-7.722 8.819l-34.713-14.678c-10.314-4.322-22.222.523-26.546 10.794l-13.067 30.915c-27.099-1.823-54.627 2.502-79.968 12.596-12.999 4.318-25.667 12.271-34.086 17.894C90.828 222.275 61.3 306.634 85.418 383.627c-10.115 13.387-16.126 30.04-16.126 48.076 0 44.054 35.827 79.894 79.864 79.894 15.865 0 30.652-4.668 43.096-12.674 21.82 8.711 44.68 13.077 67.56 13.077 23.262 0 46.541-4.507 68.758-13.529 45.237-18.354 80.616-53.227 99.621-98.195 19.003-44.964 19.36-94.635 1.002-139.866M84.291 431.703c0-35.784 29.099-64.896 64.866-64.896 10.197 0 19.96 2.297 29.019 6.827a7.499 7.499 0 0 0 6.708-13.414c-11.16-5.581-23.181-8.411-35.727-8.411a80 80 0 0 0-16.447 1.712c-4.4-22.773-2.629-45.926 5.187-67.766l22.842 9.651a7.5 7.5 0 0 0 2.915.594 7.5 7.5 0 0 0 6.911-4.582 7.5 7.5 0 0 0-3.989-9.826l-22.855-9.657c12.921-26.322 34.076-47.177 60.586-59.727l9.33 23.001a7.5 7.5 0 0 0 6.952 4.682 7.5 7.5 0 0 0 6.947-10.32l-9.33-23.003c27.749-9.468 57.444-9.256 85.051.611l-9.676 22.853a7.5 7.5 0 1 0 13.811 5.849l9.681-22.863c27.011 13.281 47.511 34.999 59.652 60.589l-22.955 9.332a7.5 7.5 0 0 0 2.826 14.448c.94 0 1.897-.178 2.822-.554l22.947-9.329c9.128 26.813 9.566 56.685-.538 85.055l-22.877-9.678a7.5 7.5 0 0 0-5.844 13.813l22.88 9.68c-13.223 26.812-34.969 47.357-60.641 59.554l-9.268-22.85a7.5 7.5 0 0 0-13.899 5.638l9.274 22.863c-23.831 8.143-50.1 9.449-75.609 2.485a79.6 79.6 0 0 0 3.208-22.36c0-17.504-5.557-34.119-16.071-48.05a7.499 7.499 0 1 0-11.971 9.034c8.534 11.307 13.044 24.799 13.044 39.016 0 35.784-29.111 64.896-64.894 64.896-35.769-.001-64.868-29.113-64.868-64.897m330.084-37.265c-17.445 41.276-49.921 73.287-91.447 90.136-37.791 15.346-78.928 16.457-117.108 3.389a80.3 80.3 0 0 0 14.431-19.884 143.8 143.8 0 0 0 39.6 5.571c20.133 0 40.224-4.238 59.034-12.652 33.463-14.97 59.758-41.82 74.044-75.606 30.989-73.403-3.48-158.328-76.835-189.311-35.542-15.026-74.811-15.309-110.574-.792s-63.724 42.085-78.734 77.625c-11.485 27.14-14.382 56.424-8.494 85.106a80 80 0 0 0-20.897 12.913c-17.65-68.382 9.684-141.483 69.068-181.195 4.456-2.976 18.017-12.034 30.664-16.192a8 8 0 0 0 .442-.161c24.904-9.957 52.111-13.84 78.675-11.225a7.49 7.49 0 0 0 7.641-4.543l15.185-35.925c1.105-2.624 4.278-3.902 6.907-2.799l72.474 30.644a5.27 5.27 0 0 1 2.839 2.886 5.22 5.22 0 0 1-.024 4.028l-15.181 35.914a7.5 7.5 0 0 0 2.075 8.654c20.599 17.355 36.899 39.845 47.137 65.034 16.85 41.517 16.523 87.111-.922 128.385"/></svg>