<svg xmlns="http://www.w3.org/2000/svg" width="512" height="512"><path fill="#eff6ff" fill-rule="evenodd" d="M402.27 286.395V132.407H15.469v236.795c0 12.421 10.152 22.573 22.573 22.573l258.794.057 72.483-37.915z" clip-rule="evenodd"/><path fill="#9fd4fe" fill-rule="evenodd" d="M15.469 142.418H402.27c4.395 0 7.997-3.573 7.997-7.969v-24.814l-210.926-15.03L7.5 109.635v24.814c0 4.396 3.573 7.969 7.969 7.969" clip-rule="evenodd"/><path fill="#eb5468" fill-rule="evenodd" d="M7.5 109.635h402.767V58.022c0-4.396-3.601-7.969-7.997-7.969H15.469c-4.395 0-7.969 3.573-7.969 7.969z" clip-rule="evenodd"/><path fill="#ffd772" fill-rule="evenodd" d="M67.137 76.115c10.095 0 18.348-8.252 18.348-18.32v-30.060000000000002c0-10.096-8.252-18.32-18.348-18.32-10.067 0-18.319 8.224-18.319 18.32v30.060000000000002c-.001 10.068 8.252 18.32 18.319 18.32M143.306 27.735v30.060000000000002c0 10.067 8.252 18.32 18.319 18.32 10.095 0 18.319-8.252 18.319-18.32v-30.060000000000002c0-10.096-8.224-18.32-18.319-18.32-10.067.001-18.319 8.225-18.319 18.32M237.794 27.735v30.060000000000002c0 10.067 8.252 18.32 18.319 18.32s18.319-8.252 18.319-18.32v-30.060000000000002c0-10.096-8.252-18.32-18.319-18.32s-18.319 8.225-18.319 18.32M332.283 27.735v30.060000000000002c0 10.067 8.224 18.32 18.319 18.32 10.067 0 18.319-8.252 18.319-18.32v-30.060000000000002c0-10.096-8.252-18.32-18.319-18.32-10.096.001-18.319 8.225-18.319 18.32M362.115 326.522l-21.779 21.779-43.501 43.531-23.452 23.452 6.012 16.846 17.213 6.409 91.029-77.363 63.522-77.192-3.545-22.12-19.709-1.106-25.635 25.637z" clip-rule="evenodd"/><path fill="#fbba58" fill-rule="evenodd" d="M451.159 283.984 296.608 438.539l-.368 17.979 23.622 5.246 154.522-154.526-4.849-18.49z" clip-rule="evenodd"/><path fill="#eb5468" fill-rule="evenodd" d="m451.159 283.984 23.225 23.254 25.862-25.863c2.779-2.751 4.197-6.409 4.254-10.067v-.482a14.5 14.5 0 0 0-4.254-10.067l-25.862-25.863c-5.672-5.672-14.945-5.672-20.616 0l-25.862 25.863z" clip-rule="evenodd"/><path fill="#85beef" fill-rule="evenodd" d="M321.422 142.418h80.848c4.395 0 7.997-3.573 7.997-7.969v-24.814h-92.39c2.013 10.635 3.204 21.581 3.545 32.783" clip-rule="evenodd"/><path fill="#e5384f" fill-rule="evenodd" d="M317.877 109.635h92.39V58.022c0-4.396-3.601-7.969-7.997-7.969h-33.349v7.742c0 10.067-8.252 18.32-18.319 18.32-10.095 0-18.319-8.252-18.319-18.32v-7.742H296.58c9.954 18.122 17.242 38.2 21.297 59.582M457.766 290.62l16.618 16.618 25.862-25.863c2.779-2.751 4.197-6.409 4.254-10.067v-.482a14.5 14.5 0 0 0-4.254-10.067l-16.561-16.561a14.58 14.58 0 0 1 4.169 10.011v.482a14.5 14.5 0 0 1-4.254 10.067z" clip-rule="evenodd"/><path fill="#fbba58" fill-rule="evenodd" d="M85.484 27.735c0-10.096-8.252-18.32-18.348-18.32a18.16 18.16 0 0 0-10.01 3.006c5.388 3.176 9.046 9.075 9.046 15.767v30.061c0 6.381-3.318 12.024-8.309 15.314a18.13 18.13 0 0 0 9.273 2.552c10.095 0 18.348-8.252 18.348-18.32v-7.742zM151.615 12.422c5.388 3.176 9.018 9.075 9.018 15.767V58.25c0 6.381-3.29 12.024-8.281 15.314a18.13 18.13 0 0 0 9.273 2.552c10.095 0 18.319-8.252 18.319-18.32V27.735c0-10.096-8.224-18.32-18.319-18.32a18.17 18.17 0 0 0-10.01 3.007" clip-rule="evenodd"/><path fill="#d9eeff" fill-rule="evenodd" d="M402.27 142.418H280.983c10.18 24.332 15.852 51.414 15.852 79.915 0 40.922-11.683 78.865-31.591 110.032-15.795 24.7-36.723 45.119-61.111 59.44l92.702.028L402.27 286.396z" clip-rule="evenodd"/><path fill="#fbba58" fill-rule="evenodd" d="M246.103 12.422c5.388 3.176 9.018 9.075 9.018 15.767V58.25c0 6.381-3.318 12.024-8.309 15.314 2.751 1.616 5.927 2.552 9.301 2.552 10.067 0 18.319-8.252 18.319-18.32V27.735c0-10.096-8.252-18.32-18.319-18.32a18.1 18.1 0 0 0-10.01 3.007M349.609 28.189V58.25c0 6.381-3.318 12.024-8.309 15.314a18.16 18.16 0 0 0 9.301 2.552c10.067 0 18.319-8.252 18.319-18.32V27.735c0-10.096-8.252-18.32-18.319-18.32a18.1 18.1 0 0 0-10.01 3.006c5.388 3.177 9.018 9.075 9.018 15.768" clip-rule="evenodd"/><path fill="#78c2a4" fill-rule="evenodd" d="M362.115 326.522v-25.835c0-5.927-4.821-10.748-10.719-10.748h-31.392c-5.898 0-10.719 4.821-10.719 10.748v36.895c0 5.899 4.821 10.72 10.719 10.72h20.333zM309.284 195.533v36.923c0 5.899 4.821 10.72 10.719 10.72h31.392c5.898 0 10.719-4.821 10.719-10.72v-36.923c0-5.899-4.821-10.72-10.719-10.72h-31.392c-5.898.001-10.719 4.822-10.719 10.72" clip-rule="evenodd"/><path fill="#95d6a4" fill-rule="evenodd" d="M194.719 337.582v-36.895c0-5.927-4.821-10.748-10.719-10.748h-31.392c-5.898 0-10.719 4.821-10.719 10.748v36.895c0 5.899 4.821 10.72 10.719 10.72H184c5.898-.001 10.719-4.822 10.719-10.72M100.287 243.176c5.898 0 10.748-4.821 10.748-10.72v-36.923c0-5.899-4.849-10.72-10.748-10.72H68.895c-5.898 0-10.719 4.821-10.719 10.72v36.923c0 5.899 4.821 10.72 10.719 10.72zM141.86 195.533v36.923c0 5.899 4.849 10.72 10.748 10.72H184c5.898 0 10.719-4.821 10.719-10.72v-36.923c0-5.899-4.821-10.72-10.719-10.72h-31.392c-5.899.001-10.748 4.822-10.748 10.72M225.572 195.533v36.923c0 5.899 4.821 10.72 10.748 10.72h31.364c5.927 0 10.748-4.821 10.748-10.72v-36.923c0-5.899-4.821-10.72-10.748-10.72H236.32c-5.927.001-10.748 4.822-10.748 10.72" clip-rule="evenodd"/><path fill="#375e7d" fill-rule="evenodd" d="m283.394 480.027-2.552-23.679-25.721-4.594-22.204 44.438c-1.361 4.736 1.304 7.402 6.04 6.04z" clip-rule="evenodd"/><path fill="#2b4d66" fill-rule="evenodd" d="m283.394 480.027-16.646-16.647-23.253 11.627-10.577 21.184c-1.361 4.736 1.304 7.402 6.04 6.04z" clip-rule="evenodd"/><path fill="#ffe5c1" fill-rule="evenodd" d="m296.608 438.539-13.498-13.528-9.727-9.727-18.262 36.47 28.273 28.273 36.468-18.263z" clip-rule="evenodd"/><path fill="#fed1a3" fill-rule="evenodd" d="m319.862 461.764-16.646-16.618-36.468 18.235 16.646 16.646z" clip-rule="evenodd"/><path d="M283.676 287.442a7.496 7.496 0 0 0-10.606.003l-21.068 21.08-21.068-21.08a7.497 7.497 0 0 0-10.606-.003 7.5 7.5 0 0 0-.003 10.606l21.074 21.086-21.074 21.086a7.5 7.5 0 0 0 .003 10.606 7.497 7.497 0 0 0 10.606-.003l21.068-21.08 21.068 21.08a7.47 7.47 0 0 0 5.305 2.198 7.5 7.5 0 0 0 5.305-12.801l-21.074-21.086 21.074-21.086a7.5 7.5 0 0 0-.004-10.606M116.281 287.443a7.5 7.5 0 0 0-10.606 0l-21.084 21.085-21.083-21.085a7.5 7.5 0 1 0-10.606 10.606l21.083 21.085-21.083 21.085a7.5 7.5 0 1 0 10.606 10.606l21.083-21.085 21.084 21.085c1.464 1.464 3.384 2.196 5.303 2.196s3.839-.732 5.303-2.196a7.5 7.5 0 0 0 0-10.606l-21.084-21.085 21.084-21.085a7.5 7.5 0 0 0 0-10.606M320.004 250.676h31.392c10.046 0 18.219-8.174 18.219-18.22v-36.923c0-10.047-8.173-18.22-18.219-18.22h-31.392c-10.046 0-18.219 8.173-18.219 18.22v36.923c0 10.046 8.173 18.22 18.219 18.22m-3.219-55.142c0-1.745 1.474-3.22 3.219-3.22h31.392c1.745 0 3.219 1.475 3.219 3.22v36.923c0 1.745-1.474 3.22-3.219 3.22h-31.392c-1.745 0-3.219-1.475-3.219-3.22zM184 282.439h-31.392c-10.046 0-18.219 8.187-18.219 18.248v36.895c0 10.046 8.173 18.22 18.219 18.22H184c10.046 0 18.219-8.174 18.219-18.22v-36.895c0-10.062-8.174-18.248-18.219-18.248m3.219 55.143c0 1.745-1.474 3.22-3.219 3.22h-31.392c-1.745 0-3.219-1.475-3.219-3.22v-36.895c0-1.791 1.444-3.248 3.219-3.248H184c1.775 0 3.219 1.457 3.219 3.248zM267.684 177.314H236.32c-10.062 0-18.248 8.173-18.248 18.22v36.923c0 10.046 8.186 18.22 18.248 18.22h31.364c10.062 0 18.248-8.174 18.248-18.22v-36.923c-.001-10.047-8.187-18.22-18.248-18.22m3.247 55.143c0 1.775-1.457 3.22-3.248 3.22H236.32c-1.791 0-3.248-1.444-3.248-3.22v-36.923c0-1.775 1.457-3.22 3.248-3.22h31.364c1.791 0 3.248 1.444 3.248 3.22v36.923zM184 177.314h-31.392c-10.062 0-18.248 8.173-18.248 18.22v36.923c0 10.046 8.186 18.22 18.248 18.22H184c10.046 0 18.219-8.174 18.219-18.22v-36.923c0-10.047-8.174-18.22-18.219-18.22m3.219 55.143c0 1.745-1.474 3.22-3.219 3.22h-31.392c-1.761 0-3.248-1.475-3.248-3.22v-36.923c0-1.745 1.487-3.22 3.248-3.22H184c1.745 0 3.219 1.475 3.219 3.22zM100.287 177.314H68.895c-10.046 0-18.22 8.173-18.22 18.22v36.923c0 10.046 8.173 18.22 18.22 18.22h31.392c10.062 0 18.248-8.174 18.248-18.22v-36.923c0-10.047-8.186-18.22-18.248-18.22m3.248 55.143c0 1.745-1.487 3.22-3.248 3.22H68.895c-1.745 0-3.22-1.475-3.22-3.22v-36.923c0-1.745 1.475-3.22 3.22-3.22h31.392c1.76 0 3.248 1.475 3.248 3.22z"/><path d="m505.549 255.456-25.862-25.863c-4.16-4.16-9.704-6.451-15.612-6.451s-11.452 2.291-15.611 6.451l-38.694 38.696V147.975c4.763-2.642 7.997-7.712 7.997-13.526V58.022c0-8.529-6.952-15.469-15.497-15.469h-25.849V27.736c0-14.237-11.583-25.82-25.819-25.82-14.237 0-25.819 11.583-25.819 25.82v14.817h-42.85V27.736c0-14.237-11.583-25.82-25.819-25.82s-25.819 11.583-25.819 25.82v14.817h-42.85V27.736c0-14.237-11.583-25.82-25.819-25.82s-25.819 11.583-25.819 25.82v14.817H92.984V27.736c0-14.237-11.595-25.82-25.848-25.82-14.237 0-25.819 11.583-25.819 25.82v14.817H15.469C6.939 42.553 0 49.493 0 58.022v76.427c0 5.808 3.222 10.874 7.969 13.518v221.235c0 16.582 13.491 30.073 30.071 30.073l240.694.053-10.654 10.654a7.5 7.5 0 0 0-1.404 1.948s-40.84 81.748-40.968 82.19c-1.424 4.957-.462 9.579 2.64 12.681 2.161 2.161 5.06 3.283 8.296 3.283 1.409 0 2.881-.212 4.385-.645.442-.127 82.188-40.968 82.188-40.968a7.5 7.5 0 0 0 1.947-1.403l61.849-61.821a7.5 7.5 0 0 0 .002-10.606 7.5 7.5 0 0 0-10.607-.003l-56.545 56.52-12.634-12.634 143.915-143.919 12.638 12.638-63.555 63.576a7.5 7.5 0 0 0 .002 10.606 7.497 7.497 0 0 0 10.606-.001l94.714-94.745c4.16-4.16 6.451-9.704 6.451-15.612s-2.291-11.452-6.451-15.611M339.783 27.736c0-5.967 4.854-10.82 10.819-10.82s10.819 4.854 10.819 10.82v30.06c0 5.966-4.854 10.819-10.819 10.819s-10.819-4.854-10.819-10.819zm-94.489 0c0-5.967 4.854-10.82 10.819-10.82s10.819 4.854 10.819 10.82v30.06c0 5.966-4.854 10.819-10.819 10.819s-10.819-4.854-10.819-10.819zm-94.488 0c0-5.967 4.854-10.82 10.819-10.82s10.819 4.854 10.819 10.82v30.06c0 5.966-4.854 10.819-10.819 10.819s-10.819-4.854-10.819-10.819zm-94.489 0c0-5.967 4.854-10.82 10.819-10.82 5.981 0 10.848 4.854 10.848 10.82v30.06c0 5.966-4.866 10.819-10.848 10.819-5.966 0-10.819-4.854-10.819-10.819zM15.469 57.553h25.849v.242c0 14.237 11.583 25.819 25.819 25.819 14.252 0 25.848-11.582 25.848-25.819v-.242h42.821v.242c0 14.237 11.583 25.819 25.819 25.819s25.819-11.582 25.819-25.819v-.242h42.85v.242c0 14.237 11.583 25.819 25.819 25.819 14.237 0 25.819-11.582 25.819-25.819v-.242h42.85v.242c0 14.237 11.583 25.819 25.819 25.819s25.819-11.582 25.819-25.819v-.242h25.849c.26 0 .497.224.497.469v44.113H15V58.022c0-.254.215-.469.469-.469m22.573 326.722c-8.311 0-15.073-6.762-15.073-15.073V149.917H190.89c4.142 0 7.5-3.357 7.5-7.5s-3.358-7.5-7.5-7.5H15.469a.476.476 0 0 1-.469-.469v-17.313h387.767v17.313c0 .245-.237.469-.497.469H225.543c-4.142 0-7.5 3.357-7.5 7.5s3.358 7.5 7.5 7.5H394.77v133.371l-25.155 25.156v-7.757c0-10.062-8.173-18.248-18.219-18.248h-31.392c-10.046 0-18.219 8.187-18.219 18.248v36.895c0 10.046 8.173 18.22 18.219 18.22h2.255l-28.529 28.53zm299.217-43.474h-17.255c-1.745 0-3.219-1.475-3.219-3.22v-36.895c0-1.791 1.444-3.248 3.219-3.248h31.392c1.775 0 3.219 1.457 3.219 3.248v22.757zm-80.07 123.627 13.53 13.531-27.07 13.54zm27.67 6.458-20.597-20.598 11.175-22.343 15.598 15.598c.09.1.174.203.27.299s.199.18.299.27l15.598 15.598zm11.764-42.969-12.632-12.633 143.915-143.919 12.633 12.633zm198.319-151.844-20.555 20.562-17.659-17.66c-.088-.098-.171-.2-.266-.294-.094-.094-.196-.177-.294-.265l-17.656-17.657 20.559-20.559c1.327-1.327 3.104-2.058 5.005-2.058s3.678.73 5.005 2.057l25.862 25.864c1.327 1.326 2.057 3.104 2.057 5.005s-.73 3.678-2.058 5.005"/></svg>