<svg xmlns="http://www.w3.org/2000/svg" width="512" height="512"><path fill="#375e7d" fill-rule="evenodd" d="M115.929 504.5H396.07c14.343-.312 25.965-12.132 25.965-26.532v-19.021l-166.05-17.28-166.021 17.28v19.021c.001 14.4 11.622 26.22 25.965 26.532" clip-rule="evenodd"/><path fill="#9fd4fe" fill-rule="evenodd" d="M422.035 458.947V53.053L263 26 89.965 53.053v405.894z" clip-rule="evenodd"/><path fill="#375e7d" fill-rule="evenodd" d="M168.312 76.127h175.375c3.118 0 4.875-1.644 6.123-4.394l8.589-18.68h63.636V34.032c0-14.428-11.65-26.249-25.993-26.532H115.958c-14.343.283-25.993 12.104-25.993 26.532v19.021h63.636l8.589 18.68c1.247 2.75 3.004 4.394 6.122 4.394" clip-rule="evenodd"/><path fill="#2b4d66" fill-rule="evenodd" d="M395.957 53.053h26.078V34.032c0-14.428-11.65-26.249-25.993-26.532h-26.106c14.371.283 26.021 12.104 26.021 26.532z" clip-rule="evenodd"/><path fill="#85beef" fill-rule="evenodd" d="M395.957 53.053h26.078v405.894h-26.078z" clip-rule="evenodd"/><path fill="#2b4d66" fill-rule="evenodd" d="M422.035 458.947h-26.078v19.021c0 14.4-11.65 26.221-25.993 26.532h26.106c14.343-.312 25.965-12.132 25.965-26.532z" clip-rule="evenodd"/><path fill="#eff6ff" fill-rule="evenodd" d="M255.986 314.521c55.444 0 100.401-44.929 100.401-100.375S311.43 113.771 255.986 113.771c-55.416 0-100.372 44.929-100.372 100.375s44.956 100.375 100.372 100.375m16.582-100.573c0 9.156-7.427 16.583-16.582 16.583-9.127 0-16.554-7.427-16.554-16.583s7.427-16.554 16.554-16.554c9.156 0 16.582 7.398 16.582 16.554" clip-rule="evenodd"/><path fill="#d9eeff" fill-rule="evenodd" d="M319.112 200.993c0 55.418-44.956 100.375-100.372 100.375-4.819 0-9.524-.34-14.145-.992 15.023 8.986 32.626 14.145 51.391 14.145 55.444 0 100.401-44.929 100.401-100.375 0-50.627-37.501-92.523-86.228-99.383 29.309 17.519 48.953 49.578 48.953 86.23" clip-rule="evenodd"/><path fill="#ffd772" fill-rule="evenodd" d="M255.986 230.531c9.156 0 16.582-7.427 16.582-16.583s-7.427-16.554-16.582-16.554c-9.127 0-16.554 7.398-16.554 16.554s7.426 16.583 16.554 16.583" clip-rule="evenodd"/><path d="M299.298 366.521c-1.272 0-2.441.039-3.529.114l1.646-9.974h16.766c4.143 0 7.5-3.357 7.5-7.5s-3.357-7.5-7.5-7.5h-23.13a7.5 7.5 0 0 0-7.4 6.279l-4.563 27.666a7.5 7.5 0 0 0 2.94 7.236 7.53 7.53 0 0 0 7.792.704c.051-.025.228-.11.547-.252 2.445-1.104 4.266-1.774 8.933-1.774 3.129 0 6.044 1.255 8.206 3.532a11.26 11.26 0 0 1 3.098 8.419c-.308 5.894-5.177 10.604-11.068 10.723l-.201.002c-3.6 0-7.019-1.72-9.179-4.628a7.5 7.5 0 0 0-10.492-1.549 7.5 7.5 0 0 0-1.549 10.492 26.5 26.5 0 0 0 21.706 10.68c13.73-.277 25.048-11.23 25.764-24.938.381-7.301-2.176-14.235-7.199-19.527-4.953-5.214-11.909-8.205-19.088-8.205M224.864 402.975l-.094.001c-5.818.071-11.974.12-17.213.136 3.37-4.523 7.949-10.801 14.018-19.472 3.94-5.65 6.528-11.014 7.694-15.942q.099-.415.149-.84l.284-2.382q.053-.441.053-.887c0-12.81-10.422-23.231-23.232-23.231-11.067 0-20.67 7.879-22.833 18.733a7.5 7.5 0 0 0 5.89 8.821 7.5 7.5 0 0 0 8.821-5.89 8.304 8.304 0 0 1 8.122-6.665c4.414 0 8.027 3.491 8.224 7.857l-.167 1.405c-.784 3.001-2.568 6.511-5.3 10.429-9.721 13.888-15.535 21.505-18.659 25.598-3.979 5.212-5.794 7.591-4.541 11.71.739 2.429 2.567 4.3 5.017 5.133q.066.024.133.044c.949.304 1.859.595 13.755.595 4.708 0 11.139-.045 19.972-.154a7.499 7.499 0 0 0-.093-14.999M146.259 339.988c-13.951 0-25.301 11.351-25.301 25.302v28.488c0 13.951 11.35 25.302 25.301 25.302 13.967 0 25.33-11.351 25.33-25.302V365.29c0-13.951-11.363-25.302-25.33-25.302m10.33 53.79c0 5.681-4.634 10.302-10.33 10.302-5.68 0-10.301-4.621-10.301-10.302V365.29c0-5.681 4.621-10.302 10.301-10.302 5.696 0 10.33 4.621 10.33 10.302zM343.659 347.934l-4.592 27.666a7.5 7.5 0 0 0 2.936 7.241 7.52 7.52 0 0 0 7.795.706c.051-.025.228-.11.524-.242 2.48-1.11 4.321-1.784 8.956-1.784 3.145 0 6.069 1.257 8.236 3.539a11.25 11.25 0 0 1 3.095 8.412c-.308 5.894-5.177 10.604-11.067 10.723a11.37 11.37 0 0 1-9.361-4.603 7.5 7.5 0 0 0-12.078 8.896c4.956 6.729 12.865 10.708 21.253 10.708q.235 0 .471-.005c13.73-.277 25.048-11.23 25.764-24.938.38-7.299-2.175-14.231-7.196-19.521a26.47 26.47 0 0 0-19.115-8.213c-1.268 0-2.433.039-3.519.115l1.655-9.975h16.772c4.143 0 7.5-3.357 7.5-7.5s-3.357-7.5-7.5-7.5h-23.13a7.504 7.504 0 0 0-7.399 6.275M257.818 392.196a7.5 7.5 0 0 0-9.084 5.475l-.028.114a7.5 7.5 0 0 0 5.476 9.084c.606.15 1.212.223 1.81.223a7.504 7.504 0 0 0 7.274-5.697l.028-.114a7.5 7.5 0 0 0-5.476-9.085M254.167 366.869c.61.152 1.222.226 1.825.226a7.5 7.5 0 0 0 7.27-5.683l.028-.113a7.5 7.5 0 0 0-5.457-9.096c-4.014-.999-8.09 1.439-9.095 5.457l-.028.113a7.5 7.5 0 0 0 5.457 9.096M256.014 106.271h-.028999999999999998c-59.481 0-107.873 48.393-107.873 107.875s48.392 107.875 107.873 107.875c59.497 0 107.901-48.393 107.901-107.875 0-59.47-48.384-107.854-107.863-107.875zm7.501 24.622v-9.315c19.926 1.605 38.094 9.525 52.501 21.749l-6.594 6.578a7.5 7.5 0 0 0 5.297 12.809c1.916 0 3.833-.73 5.297-2.19l6.625-6.609c12.298 14.396 20.279 32.58 21.925 52.534h-9.498c-4.143 0-7.5 3.357-7.5 7.5s3.357 7.5 7.5 7.5h9.533c-1.564 20.015-9.506 38.265-21.785 52.724l-6.793-6.793a7.5 7.5 0 0 0-10.606-.001 7.5 7.5 0 0 0-.001 10.606l6.807 6.808c-14.44 12.323-32.686 20.31-52.707 21.923v-9.712c0-4.143-3.358-7.5-7.5-7.5s-7.5 3.357-7.5 7.5v9.717c-20.034-1.603-38.293-9.592-52.74-21.924l6.812-6.812a7.5 7.5 0 1 0-10.607-10.605l-6.797 6.797c-12.278-14.46-20.218-32.711-21.782-52.728h9.533c4.142 0 7.5-3.357 7.5-7.5s-3.358-7.5-7.5-7.5h-9.498c1.645-19.956 9.626-38.141 21.922-52.538l6.629 6.613a7.47 7.47 0 0 0 5.297 2.19 7.5 7.5 0 0 0 5.297-12.809l-6.598-6.583c14.415-12.232 32.595-20.154 52.534-21.749v9.32a7.5 7.5 0 1 0 14.997 0"/><path d="m253.668 190.008-16.355-39.238a7.501 7.501 0 0 0-13.846 5.772l16.469 39.51c-4.909 4.407-8.003 10.797-8.003 17.897 0 13.279 10.791 24.082 24.054 24.082 10.66 0 19.72-6.965 22.88-16.582h18.505c4.143 0 7.5-3.357 7.5-7.5s-3.357-7.5-7.5-7.5h-18.508c-3.163-9.601-12.22-16.555-22.878-16.555q-1.173.001-2.318.114m11.4 23.94c0 5.008-4.074 9.082-9.083 9.082-4.992 0-9.054-4.074-9.054-9.082 0-4.993 4.062-9.055 9.054-9.055 5.009.001 9.083 4.062 9.083 9.055M272.568 254.354h-33.136c-4.142 0-7.5 3.357-7.5 7.5s3.358 7.5 7.5 7.5h33.136c4.143 0 7.5-3.357 7.5-7.5s-3.357-7.5-7.5-7.5"/><path d="M395.504 0H116.496C97.731 0 82.465 15.267 82.465 34.032v443.936c0 18.766 15.266 34.032 34.031 34.032h279.008c18.765 0 34.031-15.267 34.031-34.032V34.032C429.535 15.267 414.269 0 395.504 0m19.031 45.553h-56.136a7.5 7.5 0 0 0-6.814 4.367l-8.601 18.707h-69.452c-4.143 0-7.5 3.357-7.5 7.5s3.357 7.5 7.5 7.5h70.155c4.089 0 9.655-1.525 12.938-8.761l6.581-14.313h51.329v390.895H273.674c-4.143 0-7.5 3.357-7.5 7.5s3.357 7.5 7.5 7.5h140.861v11.521c0 10.494-8.537 19.032-19.031 19.032H116.496c-10.494 0-19.031-8.538-19.031-19.032v-11.521h141.57c4.142 0 7.5-3.357 7.5-7.5s-3.358-7.5-7.5-7.5H97.465V60.553h51.33l6.565 14.28c3.298 7.269 8.864 8.794 12.953 8.794h70.723c4.142 0 7.5-3.357 7.5-7.5s-3.358-7.5-7.5-7.5l-70.02-.002-.011-.024-8.588-18.681a7.5 7.5 0 0 0-6.814-4.367H97.465V34.032c0-10.494 8.538-19.032 19.031-19.032h279.008c10.494 0 19.031 8.538 19.031 19.032z"/><path d="M294.706 34.328h-77.412c-4.142 0-7.5 3.357-7.5 7.5s3.358 7.5 7.5 7.5h77.412c4.143 0 7.5-3.357 7.5-7.5s-3.357-7.5-7.5-7.5"/></svg>