<svg xmlns="http://www.w3.org/2000/svg" width="512" height="512"><path fill="#ffd772" fill-rule="evenodd" d="M100.495 7.5c-51.306 0-92.889 41.584-92.889 92.892 0 48.473 37.133 88.299 84.499 92.523 2.778.255 5.556.397 8.39.397 12.274 0 23.981-2.381 34.695-6.69 24.831-10.006 44.361-30.444 53.148-55.871a92.8 92.8 0 0 0 5.074-30.359c0-2.778-.142-5.556-.368-8.277C188.849 44.691 149.023 7.5 100.495 7.5" clip-rule="evenodd"/><path fill="#eb5468" fill-rule="evenodd" d="M92.785 82.732c-6.718 2.976-11.395 9.694-11.395 17.49 0 10.573 8.56 19.106 19.105 19.106 10.573 0 19.133-8.532 19.133-19.106 0-10.545-8.56-19.106-19.133-19.106-2.749 0-5.357.567-7.71 1.616" clip-rule="evenodd"/><path fill="#9fd4fe" fill-rule="evenodd" d="M173.882 119.327c-17.319 7.398-42.462 25.739-57.06 57.487-9.949 12.728-9.581 76.11-10.856 118.063-1.332 44.504 47.167 108.426 87.05 125.15a176 176 0 0 0 58.137 11.565l120.328-63.241c16.242-13.89 27.07-49.663 40.024-49.663 12.926 0 5.669.113 8.447.369 9.553-24.888 13.209-51.477 11.026-77.641-56.861 71.688-120.101-176.826-257.096-122.089" clip-rule="evenodd"/><path fill="#95d6a4" fill-rule="evenodd" d="M147.776 331.586c48.726-16.214 61.227-125.122-12.586-144.964-8.447-1.077-21.713-8.419-43.086 6.293-15.59 40.564-15.562 85.692-.057 126.142a93 93 0 0 1 8.447-.369c17.264 0 33.421 4.706 47.282 12.898M351.157 340.94c-22.62-56.155-118.23-47.877-100.542 10.12 12.699 41.584-27.779 43.427.539 80.533 23.017.624 46.09-3.232 67.831-11.565a92 92 0 0 1-.397-8.447c-.001-28.262 12.642-53.576 32.569-70.641" clip-rule="evenodd"/><path fill="#ffd772" fill-rule="evenodd" d="M351.157 340.94c-19.927 17.065-32.569 42.378-32.569 70.64 0 2.863.142 5.669.397 8.447 4.252 47.339 44.049 84.473 92.521 84.473 51.306 0 92.889-41.613 92.889-92.92 0-48.444-37.105-88.243-84.442-92.523a93 93 0 0 0-8.447-.369c-23.046 0-44.107 8.391-60.349 22.252" clip-rule="evenodd"/><path fill="#eb5468" fill-rule="evenodd" d="M411.505 392.645c-10.573 0-19.133 8.561-19.133 19.106 0 10.573 8.56 19.134 19.133 19.134 2.75 0 5.357-.595 7.71-1.644a19.07 19.07 0 0 0 11.395-17.49c0-10.546-8.56-19.106-19.105-19.106" clip-rule="evenodd"/><path fill="#eff6ff" fill-rule="evenodd" d="M193.016 420.027a92 92 0 0 0 .397-8.447c0-34.044-18.311-63.808-45.637-79.994-13.861-8.192-30.018-12.898-47.281-12.898-2.835 0-5.641.113-8.447.369-47.337 4.28-84.442 44.079-84.442 92.523 0 51.307 41.583 92.92 92.889 92.92 48.471 0 88.269-37.106 92.521-84.473" clip-rule="evenodd"/><path fill="#ffd772" fill-rule="evenodd" d="M100.495 430.884c10.573 0 19.133-8.561 19.133-19.134 0-7.285-4.11-13.635-10.119-16.866a19.3 19.3 0 0 0-9.014-2.239c-10.545 0-19.105 8.561-19.105 19.106a19.07 19.07 0 0 0 11.395 17.49 18.9 18.9 0 0 0 7.71 1.643" clip-rule="evenodd"/><path fill="#fbba58" fill-rule="evenodd" d="M127.168 11.383c19.218 15.392 32.201 38.296 34.497 64.262.227 2.721.369 5.499.369 8.277a92.8 92.8 0 0 1-5.074 30.359c-8.787 25.427-28.317 45.865-53.148 55.843-10.715 4.337-22.422 6.69-34.695 6.69-2.835 0-5.612-.113-8.39-.368a92.5 92.5 0 0 1-18.255-3.515 92.27 92.27 0 0 0 49.633 19.984c2.778.255 5.556.397 8.39.397 12.274 0 23.981-2.381 34.695-6.69 24.831-10.006 44.361-30.444 53.148-55.871a92.8 92.8 0 0 0 5.074-30.359c0-2.778-.142-5.556-.368-8.277-3.401-38.382-30.103-70.045-65.876-80.732" clip-rule="evenodd"/><path fill="#d9eeff" fill-rule="evenodd" d="M165.662 398.682a92 92 0 0 1-.397 8.447c-4.252 47.367-44.049 84.473-92.521 84.473a93.3 93.3 0 0 1-24.689-3.317c14.91 10.233 32.994 16.214 52.44 16.214 48.471 0 88.269-37.106 92.521-84.473a92 92 0 0 0 .397-8.447c0-34.044-18.34-63.808-45.637-79.994a93 93 0 0 0-22.563-9.581c24.405 16.725 40.449 44.845 40.449 76.678" clip-rule="evenodd"/><path fill="#fbba58" fill-rule="evenodd" d="M476.644 398.682c0 51.336-41.583 92.92-92.889 92.92a93.5 93.5 0 0 1-24.717-3.317c14.938 10.233 32.994 16.214 52.468 16.214 51.306 0 92.889-41.613 92.889-92.92 0-42.747-28.884-78.747-68.2-89.575 24.433 16.725 40.449 44.845 40.449 76.678" clip-rule="evenodd"/><path fill="#78c2a4" fill-rule="evenodd" d="M351.157 340.94c-7.086-17.603-21.344-28.857-37.048-34.271-8.249 48.416-27.014 91.559-52.922 124.923a176.6 176.6 0 0 0 57.797-11.565 92 92 0 0 1-.397-8.447c0-28.261 12.643-53.575 32.57-70.64" clip-rule="evenodd"/><path fill="#85beef" fill-rule="evenodd" d="M314.109 306.669c15.704 5.414 29.962 16.668 37.048 34.271 16.242-13.861 37.303-22.252 60.348-22.252 2.835 0 5.669.113 8.447.369 9.553-24.888 13.209-51.477 11.026-77.641-17.461 19.758-34.157 35.093-48.131 23.726-16.129-13.124-28.346-9.921-45.155-4.224-5.811 1.984-12.586 3.232-19.19 3.402a331 331 0 0 1-4.393 42.349" clip-rule="evenodd"/><path fill="#95d6a4" fill-rule="evenodd" d="M318.984 92.114c-40.506-15.534-85.548-15.477-125.94 0 .227 2.721.368 5.499.368 8.277a92.8 92.8 0 0 1-5.074 30.359c38.749-14.542 56.89-1.474 43.567 29.055-12.16 27.95 2.296 49.408 29.508 39.373 39.826-14.655 46.034 10.091 35.064 24.775-22.988 41.131 17.319 45.071 41.215 36.964 16.809-5.698 29.026-8.901 45.155 4.224 13.974 11.367 30.67-3.969 48.131-23.726a176.5 176.5 0 0 0-11.055-48.331c-13.577-18.254-50.256-73.162-100.939-100.97" clip-rule="evenodd"/><path fill="#78c2a4" fill-rule="evenodd" d="M269.067 80.974c30.869 44.759 49.69 104.429 49.69 169.938 0 4.507-.085 8.986-.255 13.408 6.605-.17 13.379-1.417 19.19-3.402 16.809-5.698 29.026-8.901 45.155 4.224 13.974 11.367 30.67-3.969 48.131-23.726a176.5 176.5 0 0 0-11.055-48.331 92 92 0 0 1-8.419.397c-23.357 0-44.701-8.617-61.028-22.847-19.53-17.036-31.889-42.123-31.889-70.073 0-2.835.142-5.669.397-8.447a175.5 175.5 0 0 0-49.917-11.141" clip-rule="evenodd"/><path fill="#ffd772" fill-rule="evenodd" d="M392.372 100.392c0 10.573 8.56 19.134 19.133 19.134 10.545 0 19.105-8.561 19.105-19.134 0-2.75-.567-5.386-1.616-7.739-2.976-6.69-9.694-11.367-17.489-11.367-10.573 0-19.133 8.561-19.133 19.106" clip-rule="evenodd"/><path fill="#eff6ff" fill-rule="evenodd" d="M411.505 119.526c-10.573 0-19.133-8.561-19.133-19.134 0-10.545 8.56-19.106 19.133-19.106 7.795 0 14.513 4.677 17.461 11.367 1.077 2.353 1.644 4.989 1.644 7.739 0 10.573-8.56 19.134-19.105 19.134m-92.918-18.964c0 51.307 41.612 92.92 92.917 92.92a92 92 0 0 0 8.419-.397c47.366-4.252 84.47-44.051 84.47-92.523 0-51.307-41.583-92.892-92.889-92.892-48.471 0-88.269 37.106-92.521 84.444a93 93 0 0 0-.396 8.448" clip-rule="evenodd"/><path fill="#d9eeff" fill-rule="evenodd" d="M473.554 82.732c0 48.473-37.105 88.271-84.47 92.523a92 92 0 0 1-8.419.397 93.3 93.3 0 0 1-30.188-5.017c16.327 14.23 37.672 22.847 61.028 22.847a92 92 0 0 0 8.419-.397c47.366-4.252 84.47-44.051 84.47-92.523 0-40.734-26.22-75.373-62.729-87.903 19.558 17.036 31.889 42.123 31.889 70.073" clip-rule="evenodd"/><path d="m404.062 125.959-.057 12.865a7.5 7.5 0 0 0 7.467 7.533h.034a7.5 7.5 0 0 0 7.499-7.467l.057-12.966c10.999-3.269 19.048-13.475 19.048-25.533 0-1.129-.079-2.239-.216-3.331l32.288-13.504a7.5 7.5 0 0 0-5.787-13.837l-32.51 13.596c-4.884-5.82-12.207-9.529-20.381-9.529-14.686 0-26.634 11.936-26.634 26.605.001 12.103 8.118 22.339 19.192 25.568m7.443-37.173c6.399 0 11.605 5.206 11.605 11.605 0 6.415-5.206 11.634-11.605 11.634-6.415 0-11.634-5.219-11.634-11.634 0-6.399 5.219-11.605 11.634-11.605M428.563 432.169c5.831-4.89 9.547-12.227 9.547-20.419 0-14.67-11.936-26.605-26.605-26.605-12.078 0-22.299 8.077-25.549 19.105H373.21c-4.143 0-7.5 3.357-7.5 7.5s3.357 7.5 7.5 7.5h12.744c3.248 11.044 13.47 19.134 25.551 19.134a27 27 0 0 0 3.309-.213l13.467 32.282a7.5 7.5 0 0 0 9.81 4.034 7.5 7.5 0 0 0 4.034-9.81zm-28.692-20.419c0-6.399 5.219-11.605 11.634-11.605 6.399 0 11.605 5.206 11.605 11.605 0 4.688-2.786 8.727-6.781 10.568l-.002.001c-.113.047-.218.105-.328.157a11.5 11.5 0 0 1-4.494.909c-6.415-.001-11.634-5.22-11.634-11.635M119.136 392.772l6.004-11.253a7.5 7.5 0 1 0-13.234-7.06l-5.997 11.239a26.7 26.7 0 0 0-5.414-.554c-14.67 0-26.605 11.936-26.605 26.605 0 8.192 3.717 15.529 9.547 20.419l-13.561 32.508a7.501 7.501 0 0 0 13.844 5.776l13.467-32.282a27 27 0 0 0 3.309.213c14.686 0 26.634-11.948 26.634-26.634-.001-7.424-3.066-14.146-7.994-18.977m-18.641 30.612c-1.593 0-3.111-.324-4.494-.909-.11-.052-.215-.109-.328-.157h-.001c-3.995-1.841-6.782-5.88-6.782-10.568 0-6.399 5.206-11.605 11.605-11.605 6.415 0 11.634 5.206 11.634 11.605 0 6.415-5.219 11.634-11.634 11.634M73.89 100.222c0 14.67 11.936 26.605 26.605 26.605 12.078 0 22.299-8.077 25.549-19.105h12.746c4.143 0 7.5-3.357 7.5-7.5s-3.357-7.5-7.5-7.5h-12.746c-3.25-11.029-13.471-19.105-25.549-19.105-1.117 0-2.216.077-3.298.212L83.72 41.52a7.5 7.5 0 0 0-13.844 5.776L83.444 79.82c-5.835 4.883-9.554 12.215-9.554 20.402m38.239 0c0 6.399-5.219 11.605-11.634 11.605-6.399 0-11.605-5.206-11.605-11.605s5.206-11.605 11.605-11.605c6.415-.001 11.634 5.205 11.634 11.605"/><path d="M430.076 312.917a182.97 182.97 0 0 0-.015-113.663c46.521-8.732 81.834-49.662 81.834-98.693 0-55.356-45.034-100.392-100.39-100.392-49.021 0-89.944 35.302-98.686 81.812-36.94-12.047-76.638-12.045-113.605.001C190.541 35.388 149.577 0 100.495 0 45.14 0 .105 45.035.105 100.392c0 49.039 35.325 89.974 81.856 98.698a183 183 0 0 0-.016 113.824C35.422 321.64.105 362.56.105 411.58.105 466.952 45.14 512 100.495 512c49.024 0 89.949-35.316 98.687-81.842a183.3 183.3 0 0 0 56.816 9.043c19.166 0 38.337-3.02 56.82-9.043C321.556 476.684 362.481 512 411.505 512c55.355 0 100.39-45.048 100.39-100.42 0-49.012-35.306-89.927-81.819-98.663M404.005 15.519v7.997c0 4.143 3.357 7.5 7.5 7.5s7.5-3.357 7.5-7.5v-7.997c41.052 3.592 73.856 36.343 77.528 77.373h-8.154c-4.143 0-7.5 3.357-7.5 7.5s3.357 7.5 7.5 7.5h8.18c-3.52 41.203-36.388 74.138-77.554 77.741v-8.365c0-4.143-3.357-7.5-7.5-7.5s-7.5 3.357-7.5 7.5v8.365c-41.18-3.602-74.06-36.537-77.581-77.741h8.207c4.143 0 7.5-3.357 7.5-7.5s-3.357-7.5-7.5-7.5h-8.181c3.673-41.031 36.489-73.783 77.555-77.373m-92.857 81.73a101 101 0 0 0-.061 3.313c0 55.372 45.047 100.42 100.417 100.42 1.1 0 2.195-.024 3.287-.06a168.4 168.4 0 0 1 8.43 37.918c-18.24 20.225-28.652 26.17-35.642 20.485-18.71-15.226-33.476-11.887-52.299-5.509-12.848 4.359-30.443 4.416-36.155-2.447-4.783-5.746.137-16.933 3.678-23.359 7.271-10.066 7.967-22.891 1.65-31.358-4.655-6.242-16.778-15.125-45.636-4.508-8.771 3.234-15.834 2.652-19.886-1.638-5.076-5.374-5.135-16.25-.153-27.699 8.941-20.491 4.229-31.737-1.299-37.562-5.628-5.931-16.73-11.106-38.404-5.728a100.5 100.5 0 0 0 1.834-19.124c0-1.049-.022-2.093-.054-3.134 35.784-12.405 74.54-12.41 110.293-.01M15.441 107.722h8.18c4.143 0 7.5-3.357 7.5-7.5s-3.357-7.5-7.5-7.5h-8.154c3.672-41.03 36.476-73.781 77.528-77.373v7.997c0 4.143 3.357 7.5 7.5 7.5s7.5-3.357 7.5-7.5v-7.997c41.066 3.591 73.882 36.342 77.555 77.373h-8.181c-4.143 0-7.5 3.357-7.5 7.5s3.357 7.5 7.5 7.5h8.207c-3.521 41.204-36.401 74.139-77.581 77.741v-8.365c0-4.143-3.357-7.5-7.5-7.5s-7.5 3.357-7.5 7.5v8.365c-.104-.009-.209-.014-.312-.024q-.075-.007-.15-.011c-40.951-3.808-73.585-36.657-77.092-77.706m92.554 388.929v-8.025c0-4.143-3.357-7.5-7.5-7.5s-7.5 3.357-7.5 7.5v8.025c-41.053-3.593-73.857-36.356-77.528-77.401h8.154c4.143 0 7.5-3.357 7.5-7.5s-3.357-7.5-7.5-7.5h-8.18c3.521-41.189 36.389-74.111 77.554-77.713v8.337c0 4.143 3.357 7.5 7.5 7.5s7.5-3.357 7.5-7.5v-8.337c41.179 3.601 74.059 36.523 77.581 77.713h-8.207c-4.143 0-7.5 3.357-7.5 7.5s3.357 7.5 7.5 7.5h8.181c-3.672 41.046-36.488 73.809-77.555 77.401m147.03-72.462c-10.031-14.323-6.936-20.541-1.996-30.449 5.101-10.231 11.447-22.965 4.761-44.859-3.479-11.453-2.067-20.728 4.194-27.564a7.501 7.501 0 0 0-11.063-10.131c-9.81 10.713-12.468 25.647-7.48 42.065 4.942 16.186.679 24.74-3.837 33.797-4.734 9.496-9.961 20.014-2.482 36.086a168.6 168.6 0 0 1-36.271-8.241c.036-1.1.061-2.204.061-3.312 0-32.021-15.073-60.588-38.498-78.983 17.335-11.74 29.451-34.627 32.031-62.047a7.5 7.5 0 0 0-6.765-8.169c-4.107-.395-7.781 2.64-8.169 6.765-2.414 25.663-14.779 46.917-31.18 54.183-14.23-7.74-30.528-12.14-47.836-12.14-1.097 0-2.189.024-3.278.059-12.451-35.826-12.445-74.656.016-110.495 1.083.035 2.17.059 3.262.059a99.9 99.9 0 0 0 35.002-6.298c21.369 6.523 36.219 22.497 41.94 45.218a7.504 7.504 0 0 0 7.268 5.671 7.5 7.5 0 0 0 7.279-9.333c-5.791-22.998-19.234-40.407-38.529-50.397 18.351-11.438 32.76-28.628 40.685-49.032 18.507-6.383 28.883-4.843 32.461-1.072 3.352 3.532 2.78 11.272-1.571 21.245-7.612 17.497-6.491 33.942 2.999 43.991 8.316 8.805 21.433 10.776 35.976 5.414 16.704-6.148 25.638-4.34 28.428-.601 2.388 3.201 1.544 9.154-1.963 13.848a8 8 0 0 0-.538.829c-12.014 21.496-7.9 33.98-2.333 40.669 10.598 12.732 34.434 13.188 52.502 7.058 15.96-5.411 24.898-7.736 38.016 2.938 4.874 3.965 9.891 5.607 14.885 5.607 11.067 0 22.025-8.068 31.084-16.818a168.2 168.2 0 0 1-9.275 51.499c-1.097-.036-2.198-.06-3.303-.06-21.438 0-41.324 6.755-57.652 18.241-15.186-26.015-45.167-35.865-68.63-33.716a7.5 7.5 0 0 0-6.786 8.151 7.5 7.5 0 0 0 8.151 6.786c19.28-1.766 44.027 6.513 55.484 28.471-19.084 18.285-30.984 44.007-30.984 72.458 0 1.109.025 2.211.06 3.312a168.4 168.4 0 0 1-56.126 9.297m163.98 72.462v-8.025c0-4.143-3.357-7.5-7.5-7.5s-7.5 3.357-7.5 7.5v8.025c-41.067-3.592-73.883-36.355-77.555-77.401h8.181c4.143 0 7.5-3.357 7.5-7.5s-3.357-7.5-7.5-7.5h-8.207c3.522-41.189 36.402-74.112 77.581-77.713v8.337c0 4.143 3.357 7.5 7.5 7.5s7.5-3.357 7.5-7.5v-8.337c41.165 3.602 74.033 36.524 77.554 77.713h-8.18c-4.143 0-7.5 3.357-7.5 7.5s3.357 7.5 7.5 7.5h8.154c-3.671 41.045-36.475 73.808-77.528 77.401"/></svg>