<svg xmlns="http://www.w3.org/2000/svg" width="512" height="512"><path fill="#95d6a4" fill-rule="evenodd" d="M375.356 305.85c13.124 8.504 27.126 15.108 41.894-2.92 4.28-14.825 6.576-30.5 6.576-46.686 0-92.72-75.144-167.894-167.861-167.894-16.27 0-32.002 2.324-46.883 6.661-8.163 11.905-14.513 25.143-3.061 41.981zM136.829 206.1c-12.557-10.006-26.248-16.809-42.008 2.976a168.2 168.2 0 0 0-6.718 47.168c0 92.692 75.144 167.866 167.861 167.866 16.299 0 32.059-2.324 46.968-6.661 12.302-9.071 14.371-22.96 2.835-41.924z" clip-rule="evenodd"/><path fill="#eff6ff" fill-rule="evenodd" d="M385.22 256.244c0-71.376-57.881-129.258-129.255-129.258-17.716 0-34.581 3.572-49.945 10.006-29.876 7.172-61.481 39.826-69.191 69.108-6.519 15.42-10.091 32.343-10.091 50.144 0 71.376 57.853 129.23 129.227 129.23 17.659 0 34.468-3.543 49.803-9.949 29.904-23.669 52.666-51.93 69.588-69.675 6.349-15.278 9.864-32.031 9.864-49.606" clip-rule="evenodd"/><path fill="#d9eeff" fill-rule="evenodd" d="M336.04 175.912a174.6 174.6 0 0 1 2.409 28.998c0 19.304-3.146 37.87-8.929 55.247-10.828 32.57-31.01 60.859-57.314 81.722-19.615 15.534-42.631 26.957-67.745 32.938 15.788 6.86 33.192 10.658 51.504 10.658 17.659 0 34.468-3.543 49.803-9.949 29.904-23.669 52.666-51.93 69.588-69.675 6.349-15.279 9.864-32.031 9.864-49.606 0-43.993-21.996-82.856-55.557-106.213a174 174 0 0 1 6.377 25.88" clip-rule="evenodd"/><path fill="#78c2a4" fill-rule="evenodd" d="M329.663 150.032c33.561 23.357 55.557 62.22 55.557 106.213 0 17.575-3.515 34.327-9.864 49.606 13.634-3.912 27.92-4.876 41.894-2.92 4.28-14.825 6.576-30.5 6.576-46.686 0-77.98-53.148-143.545-125.23-162.423a174.7 174.7 0 0 1 31.067 56.21M305.768 375.525c-15.335 6.406-32.144 9.949-49.803 9.949-18.311 0-35.715-3.798-51.504-10.658-12.982 3.09-26.56 4.705-40.477 4.705-8.022 0-15.902-.539-23.64-1.587 30.103 28.601 70.807 46.176 115.621 46.176 16.299 0 32.059-2.324 46.968-6.661a101.8 101.8 0 0 1 2.835-41.924" clip-rule="evenodd"/><path fill="#ffd772" fill-rule="evenodd" d="M255.965 277.334c11.792 0 21.344-9.553 21.344-21.345s-9.552-21.345-21.344-21.345-21.344 9.553-21.344 21.345 9.552 21.345 21.344 21.345" clip-rule="evenodd"/><path fill="#9fd4fe" fill-rule="evenodd" d="M37.139 37.157c-39.542 39.543-39.542 103.662 0 143.205 16.214 16.242 36.594 25.795 57.683 28.715a102.2 102.2 0 0 0 42.008-2.976c15.93-4.592 30.953-13.153 43.51-25.738 12.529-12.501 21.089-27.496 25.681-43.37a102.1 102.1 0 0 0 3.061-41.981c-2.891-21.175-12.472-41.584-28.742-57.854C140.798-2.386 76.68-2.386 37.139 37.157" clip-rule="evenodd"/><path fill="#ffd772" fill-rule="evenodd" d="M53.409 104.791c0 33.59 27.24 60.831 60.829 60.831 7.88 0 15.392-1.474 22.308-4.195 8.957-3.543 5.556-7.625-1.049-11.225-16.072-8.759-26.985-25.823-26.985-45.411 0-19.616 10.913-36.652 26.985-45.411 6.604-3.6 10.006-7.682 1.049-11.225a60.8 60.8 0 0 0-22.308-4.224c-33.589.001-60.829 27.242-60.829 60.86" clip-rule="evenodd"/><path fill="#85beef" fill-rule="evenodd" d="M86.658 12.496c52.212 0 94.56 39.429 94.56 88.071s-42.348 88.071-94.56 88.071c-22.336 0-42.887-7.2-59.072-19.275a105 105 0 0 0 9.552 10.998c16.214 16.242 36.594 25.795 57.683 28.715a102.2 102.2 0 0 0 42.008-2.976c15.93-4.592 30.953-13.153 43.51-25.738 12.529-12.501 21.089-27.496 25.681-43.37a102.1 102.1 0 0 0 3.061-41.981c-2.891-21.175-12.472-41.584-28.742-57.854C151.966 8.783 110.95.761 75.433 13.12a98 98 0 0 1 11.225-.624" clip-rule="evenodd"/><path fill="#9fd4fe" fill-rule="evenodd" d="M331.59 331.617c-12.67 12.671-21.259 27.836-25.823 43.908a101.8 101.8 0 0 0-2.835 41.924c2.948 20.976 12.5 41.244 28.657 57.373 19.728 19.757 45.579 29.622 71.459 29.678h.283c25.879-.057 51.73-9.921 71.459-29.678 19.757-19.729 29.649-45.609 29.678-71.489v-.227c-.028-25.88-9.921-51.76-29.678-71.489-16.185-16.186-36.48-25.767-57.541-28.686-13.974-1.956-28.26-.992-41.894 2.92-16.043 4.563-31.151 13.152-43.765 25.766" clip-rule="evenodd"/><path fill="#85beef" fill-rule="evenodd" d="M408.236 313.164c11.565 14.712 19.757 32.088 24.547 50.598a54 54 0 0 1 5.301 4.592c9.609 9.638 14.428 22.252 14.428 34.866s-4.819 25.256-14.428 34.894c-1.502 1.474-3.061 2.863-4.705 4.11-4.677 19.389-13.067 37.644-25.142 53.007a111 111 0 0 1-8.078 9.213c.964.028 1.927.057 2.891.057h.283c25.879-.057 51.73-9.921 71.459-29.678 19.757-19.729 29.649-45.609 29.678-71.489v-.227c-.028-25.88-9.921-51.76-29.678-71.489-16.185-16.186-36.48-25.767-57.541-28.686a100.7 100.7 0 0 0-18.935-.85 117 117 0 0 1 8.815 9.694c.368.452.737.906 1.105 1.388" clip-rule="evenodd"/><path fill="#ffd772" fill-rule="evenodd" d="M452.512 403.219c0-12.614-4.819-25.228-14.428-34.866-9.637-9.638-22.279-14.457-34.893-14.457s-25.227 4.819-34.865 14.457c-9.637 9.638-14.456 22.252-14.456 34.866s4.819 25.256 14.456 34.894c9.637 9.609 22.251 14.428 34.865 14.428s25.256-4.819 34.893-14.428c9.609-9.637 14.428-22.28 14.428-34.894" clip-rule="evenodd"/><path fill="#fbba58" fill-rule="evenodd" d="M405.26 364.697c19.246 19.275 19.246 50.484 0 69.76-6.746 6.746-14.966 11.112-23.612 13.153a49.4 49.4 0 0 0 21.542 4.932c12.614 0 25.256-4.819 34.893-14.428 9.609-9.638 14.428-22.28 14.428-34.894s-4.819-25.228-14.428-34.866c-9.637-9.638-22.279-14.457-34.893-14.457-3.77 0-7.568.425-11.281 1.304 4.819 2.324 9.326 5.499 13.351 9.496" clip-rule="evenodd"/><path d="M275.131 62.608a7.5 7.5 0 1 0 11.953-9.063l-15.619-20.603c116.212 7.991 208.327 105.092 208.327 223.302 0 4.143 3.357 7.5 7.5 7.5s7.5-3.357 7.5-7.5c0-63.791-24.843-123.767-69.953-168.878-45.11-45.112-105.083-69.955-168.874-69.955a7.5 7.5 0 0 0-5.977 12.031zM236.83 449.856a7.5 7.5 0 1 0-11.959 9.055l15.606 20.608c-116.222-7.98-208.338-105.073-208.338-223.274 0-4.143-3.357-7.5-7.5-7.5s-7.5 3.357-7.5 7.5c0 63.79 24.843 123.761 69.953 168.865 45.108 45.101 105.081 69.94 168.873 69.94a7.501 7.501 0 0 0 5.98-12.027zM139.304 168.401c6.438-2.546 9.853-6.301 10.15-11.161.473-7.714-7.402-12.007-10.368-13.624a44.2 44.2 0 0 1 .001-77.65c2.965-1.616 10.84-5.909 10.367-13.623-.298-4.859-3.713-8.615-10.163-11.166a68.2 68.2 0 0 0-25.054-4.744c-37.676 0-68.328 30.666-68.328 68.36 0 37.678 30.652 68.33 68.328 68.33 8.673-.001 17.102-1.588 25.067-4.722m-78.395-63.61c0-29.423 23.923-53.36 53.328-53.36a53.3 53.3 0 0 1 15.85 2.396 59.19 59.19 0 0 0-29.075 50.963 59.19 59.19 0 0 0 29.072 50.96c-5.089 1.574-10.402 2.37-15.847 2.37-29.405.002-53.328-23.922-53.328-53.329M309.226 248.489h-25.412c-1.717-6.368-5.56-11.87-10.723-15.693l19.268-53.433a7.5 7.5 0 0 0-14.112-5.088l-19.128 53.045a29 29 0 0 0-3.154-.176c-15.904 0-28.844 12.939-28.844 28.845s12.939 28.845 28.844 28.845c13.31 0 24.539-9.065 27.849-21.345h25.412a7.5 7.5 0 0 0 0-15m-53.261 21.345c-7.634 0-13.844-6.211-13.844-13.845s6.21-13.845 13.844-13.845 13.844 6.211 13.844 13.845-6.21 13.845-13.844 13.845M477.654 395.719h-18.165a56.5 56.5 0 0 0-11.164-27.01l9.495-9.515a7.5 7.5 0 0 0-.011-10.606 7.497 7.497 0 0 0-10.606.011l-9.48 9.499a56.23 56.23 0 0 0-27.032-11.199v-18.145c0-4.143-3.357-7.5-7.5-7.5s-7.5 3.357-7.5 7.5V346.9a56.16 56.16 0 0 0-27.014 11.199l-9.504-9.505a7.5 7.5 0 0 0-10.606-.001 7.5 7.5 0 0 0-.001 10.606l9.506 9.506a56.17 56.17 0 0 0-11.199 27.013h-18.145c-4.143 0-7.5 3.357-7.5 7.5s3.357 7.5 7.5 7.5h18.144a56.24 56.24 0 0 0 11.19 27.023l-9.496 9.496a7.5 7.5 0 1 0 10.608 10.607l9.499-9.498a56.5 56.5 0 0 0 27.019 11.171v18.166c0 4.143 3.357 7.5 7.5 7.5s7.5-3.357 7.5-7.5v-18.165a56.6 56.6 0 0 0 27.028-11.163l9.488 9.489a7.48 7.48 0 0 0 5.304 2.197 7.498 7.498 0 0 0 5.304-12.802l-9.489-9.49a56.6 56.6 0 0 0 11.164-27.03h18.164a7.501 7.501 0 0 0-.001-15m-116.285 7.503c0-11.171 4.353-21.67 12.264-29.568 7.892-7.903 18.39-12.257 29.561-12.257 11.174 0 21.681 4.355 29.587 12.261 16.295 16.295 16.295 42.829-.001 59.153-16.32 16.294-42.856 16.294-59.151 0-7.905-7.907-12.26-18.415-12.26-29.589"/><path d="M480.094 326.314c-14.92-14.92-33.413-24.965-53.548-29.349a176 176 0 0 0 4.78-40.721c0-41.156-14.515-81.131-40.869-112.563a7.5 7.5 0 0 0-11.494 9.638c24.094 28.734 37.363 65.287 37.363 102.924 0 13.05-1.576 25.985-4.67 38.542a110.337 110.337 0 0 0-24.707.872c3.832-12.73 5.772-25.934 5.772-39.414 0-75.408-61.348-136.758-136.755-136.758-13.582 0-26.883 1.969-39.701 5.859.828-5.44 1.254-10.98 1.254-16.586q0-4.11-.301-8.168a160.3 160.3 0 0 1 38.748-4.742c36.799 0 71.386 12.115 100.021 35.035a7.47 7.47 0 0 0 4.682 1.645 7.5 7.5 0 0 0 4.691-13.355C334.483 94.46 295.633 80.85 255.965 80.85a175.3 175.3 0 0 0-40.893 4.841c-4.354-20.248-14.429-38.847-29.429-53.837C165.102 11.313 137.79 0 108.739 0S52.376 11.313 31.835 31.854c-42.404 42.406-42.404 111.406-.002 153.81 14.948 14.959 33.484 25.021 53.665 29.395a176 176 0 0 0-4.895 41.185c0 18.513 2.869 36.753 8.528 54.215a7.5 7.5 0 0 0 7.133 5.189 7.5 7.5 0 0 0 7.136-9.814c-5.175-15.966-7.798-32.651-7.798-49.59a161 161 0 0 1 4.791-39.019q4.144.314 8.344.316c5.544 0 11.025-.415 16.407-1.226-3.922 12.844-5.907 26.22-5.907 39.929 0 75.393 61.335 136.73 136.726 136.73 13.606 0 26.91-1.968 39.711-5.855a109.7 109.7 0 0 0-.845 24.74 161 161 0 0 1-38.866 4.751c-57.824 0-111.398-31.338-139.812-81.785a7.5 7.5 0 1 0-13.07 7.361c31.068 55.158 89.65 89.424 152.882 89.424 13.902 0 27.677-1.651 41.074-4.866 4.305 19.576 14.053 38.185 29.246 53.379C346.825 500.679 374.138 512 403.191 512s56.364-11.321 76.906-31.878c20.553-20.54 31.872-47.852 31.872-76.903 0-29.053-11.321-56.366-31.875-76.905M96.218 201.71a7 7 0 0 0-.812-.11c-19.985-2.83-38.438-12.005-52.964-26.542-36.557-36.557-36.557-96.04 0-132.597C60.15 24.752 83.695 15 108.739 15c25.045 0 48.59 9.752 66.299 27.462 17.721 17.708 27.48 41.253 27.48 66.297a94.1 94.1 0 0 1-3.588 25.816 7 7 0 0 0-.195.674c-4.364 14.889-12.413 28.533-23.696 39.808l-.004.003c-11.238 11.247-24.83 19.281-39.661 23.655a7.5 7.5 0 0 0-1.16.336 94.2 94.2 0 0 1-25.473 3.49c-4.226 0-8.405-.284-12.523-.831m167.247 176.03v-14.801c0-4.143-3.357-7.5-7.5-7.5s-7.5 3.357-7.5 7.5v14.797c-27.99-1.71-53.451-12.919-73.197-30.441l10.375-10.376a7.5 7.5 0 0 0-.001-10.606 7.5 7.5 0 0 0-10.606.001l-10.359 10.36c-17.437-19.769-28.567-45.221-30.216-73.184h14.558c4.143 0 7.5-3.357 7.5-7.5s-3.357-7.5-7.5-7.5h-14.531c.776-12.516 3.433-24.666 7.938-36.248 16.118-5.233 30.887-14.237 43.216-26.574 12.296-12.288 21.284-27 26.525-43.057a120.8 120.8 0 0 1 36.299-7.888v14.319c0 4.143 3.357 7.5 7.5 7.5s7.5-3.357 7.5-7.5v-14.316c27.87 1.702 53.234 12.82 72.947 30.209l-10.126 10.126a7.498 7.498 0 0 0 5.304 12.802 7.48 7.48 0 0 0 5.304-2.197l10.14-10.14c17.473 19.692 28.67 45.066 30.433 72.965h-14.554c-4.143 0-7.5 3.357-7.5 7.5s3.357 7.5 7.5 7.5h14.588a120.9 120.9 0 0 1-7.765 36.194c-16.209 5.218-31.061 14.243-43.449 26.63-12.632 12.632-21.499 27.625-26.605 43.57-11.602 4.474-23.743 7.103-36.218 7.855m206.024 91.775-.004.004C451.778 487.24 428.234 497 403.191 497c-25.044 0-48.588-9.76-66.297-27.483-36.557-36.557-36.557-96.039 0-132.597 17.707-17.708 41.252-27.46 66.297-27.46s48.589 9.752 66.298 27.461c17.721 17.708 27.48 41.253 27.48 66.298 0 25.044-9.759 48.589-27.48 66.296"/></svg>