<svg xmlns="http://www.w3.org/2000/svg" width="512" height="512"><path fill="#ffd772" fill-rule="evenodd" d="M281.271 150.144c-.113-89.577-69.449-141.68-136.885-140.716C76.949 8.464 7.585 60.567 7.5 150.144c-.085 79.061 52.611 102.447 69.903 159.057 11.282 17.66 126.993 19.191 133.966 0 17.291-56.61 69.987-79.996 69.902-159.057" clip-rule="evenodd"/><path fill="#eff6ff" fill-rule="evenodd" d="M200.654 306.366H88.089c-3.883 0-7.54 1.021-10.687 2.835-6.491 3.742-10.913 10.772-10.913 18.766 0 11.878 10.517 17.349 21.6 21.601l56.296 21.601 56.268-21.601c11.877 0 21.6-9.723 21.6-21.601 0-7.994-4.394-15.024-10.885-18.766a21.5 21.5 0 0 0-10.714-2.835" clip-rule="evenodd"/><path fill="#375e7d" fill-rule="evenodd" d="m194.956 392.769-50.57-21.601-50.57 21.601v19.418c0 17.037 13.947 30.984 30.983 30.984h39.146c17.065 0 31.011-13.947 31.011-30.984z" clip-rule="evenodd"/><path fill="#eff6ff" fill-rule="evenodd" d="M200.654 349.567H88.089c-11.877 0-21.6 9.723-21.6 21.601s9.723 21.601 21.6 21.601h112.564c11.877 0 21.6-9.723 21.6-21.601s-9.722-21.601-21.599-21.601" clip-rule="evenodd"/><path fill="#2b4d66" fill-rule="evenodd" d="M194.956 392.769h-28.942v19.418c0 17.037-13.947 30.984-31.011 30.984h28.942c17.065 0 31.011-13.947 31.011-30.984z" clip-rule="evenodd"/><path fill="#eff6ff" fill-rule="evenodd" d="M144.386 246.752c55.531 0 100.545-45.016 100.545-100.548S199.917 45.656 144.386 45.656 43.84 90.671 43.84 146.204s45.015 100.548 100.546 100.548" clip-rule="evenodd"/><path fill="#d9eeff" fill-rule="evenodd" d="M244.931 146.204c0-43.598-27.78-80.733-66.586-94.652 11.31 31.579 17.773 68.147 17.773 107.124 0 27.752-3.288 54.285-9.241 78.664 34.271-16.016 58.054-50.798 58.054-91.136" clip-rule="evenodd"/><path fill="#fbba58" fill-rule="evenodd" d="M178.345 51.552c38.806 13.919 66.586 51.054 66.586 94.652 0 40.338-23.783 75.12-58.054 91.137-6.321 25.796-15.619 49.154-27.269 69.026h41.046c3.883 0 7.54 1.021 10.715 2.835 17.291-56.61 69.988-79.996 69.903-159.057-.085-83.086-59.755-133.941-122.23-140.092 7.426 12.5 13.917 26.447 19.303 41.499" clip-rule="evenodd"/><path fill="#eb5468" fill-rule="evenodd" d="M263.271 310.391v90.286c0 6.747 5.528 12.274 12.274 12.274h216.68c6.746 0 12.274-5.528 12.274-12.274v-90.286c0-6.747-5.528-12.246-12.274-12.246h-216.68c-6.746 0-12.274 5.5-12.274 12.246" clip-rule="evenodd"/><path fill="#e5384f" fill-rule="evenodd" d="M473.716 310.391v90.286c0 6.747-5.499 12.246-12.217 12.274h30.727c6.746 0 12.274-5.528 12.274-12.274v-90.286c0-6.747-5.528-12.246-12.274-12.246H461.47c6.718 0 12.246 5.5 12.246 12.246" clip-rule="evenodd"/><path fill="#d9eeff" fill-rule="evenodd" d="M195.863 327.967c0 11.878-9.723 21.601-21.6 21.601h26.391c11.877 0 21.6-9.723 21.6-21.601 0-7.994-4.394-15.024-10.885-18.766a21.5 21.5 0 0 0-10.715-2.835h-26.391c3.883 0 7.54 1.021 10.687 2.835a21.74 21.74 0 0 1 8.844 9.581 21.2 21.2 0 0 1 2.069 9.185" clip-rule="evenodd"/><path fill="#d9eeff" fill-rule="evenodd" d="M200.654 349.567h-26.391c5.159 0 9.921 1.843 13.635 4.904 4.847 3.969 7.965 9.978 7.965 16.697 0 7.427-3.798 14.004-9.553 17.915a21.52 21.52 0 0 1-12.047 3.685h26.391c11.877 0 21.6-9.723 21.6-21.601s-9.723-21.6-21.6-21.6" clip-rule="evenodd"/><path d="M144.386 254.252c59.576 0 108.045-48.47 108.045-108.048S203.962 38.156 144.386 38.156 36.341 86.626 36.341 146.204s48.468 108.048 108.045 108.048M61.189 138.533h-9.53c1.641-20.007 9.637-38.239 21.962-52.672l6.648 6.633a7.48 7.48 0 0 0 5.297 2.19 7.5 7.5 0 0 0 5.298-12.809l-6.621-6.606c14.443-12.265 32.661-20.208 52.643-21.81v9.375c0 4.143 3.358 7.5 7.5 7.5s7.5-3.357 7.5-7.5V53.46c19.978 1.601 38.194 9.542 52.635 21.803l-6.619 6.619a7.5 7.5 0 1 0 10.606 10.605l6.635-6.635c12.329 14.434 20.329 32.67 21.969 52.681h-9.53c-4.142 0-7.5 3.357-7.5 7.5s3.358 7.5 7.5 7.5h9.56c-1.57 20.053-9.528 38.338-21.831 52.823l-6.804-6.804a7.5 7.5 0 1 0-10.606 10.605l6.819 6.819c-14.473 12.357-32.764 20.364-52.835 21.972v-9.744c0-4.143-3.358-7.5-7.5-7.5s-7.5 3.357-7.5 7.5v9.744c-20.074-1.609-38.369-9.618-52.843-21.979l6.821-6.806a7.5 7.5 0 0 0 .012-10.606 7.5 7.5 0 0 0-10.607-.013l-6.818 6.802c-12.299-14.484-20.253-32.765-21.823-52.814h9.56c4.142 0 7.5-3.357 7.5-7.5s-3.356-7.499-7.498-7.499"/><path d="M136.945 148.831a7.5 7.5 0 0 0 6.958 4.702h26.306c4.142 0 7.5-3.357 7.5-7.5s-3.358-7.5-7.5-7.5h-21.238l-18.547-46.124a7.5 7.5 0 0 0-9.757-4.16 7.5 7.5 0 0 0-4.16 9.756z"/><path d="M492.226 290.646h-91.191c-4.142 0-7.5 3.357-7.5 7.5s3.358 7.5 7.5 7.5h91.191c2.632 0 4.774 2.129 4.774 4.746v90.286c0 2.588-2.186 4.774-4.774 4.774H275.545c-2.588 0-4.774-2.187-4.774-4.774v-90.286c0-2.617 2.142-4.746 4.774-4.746h92.75c4.142 0 7.5-3.357 7.5-7.5s-3.358-7.5-7.5-7.5h-92.75c-10.903 0-19.774 8.858-19.774 19.746v90.286c0 10.903 8.871 19.774 19.774 19.774h100.84v56.962c0 9.744-7.915 17.672-17.643 17.672H169.529c-9.729 0-17.643-7.928-17.643-17.672V450.67h12.059c21.235 0 38.511-17.264 38.511-38.483v-11.979c15.209-.935 27.298-13.599 27.298-29.039 0-8.562-3.718-16.271-9.624-21.601 5.905-5.33 9.624-13.038 9.624-21.601 0-8.53-3.689-16.214-9.555-21.541 6.604-18.545 17.222-33.479 28.423-49.205 19.765-27.751 40.204-56.445 40.149-107.086-.054-42.56-14.908-79.653-42.956-107.269-26.501-26.091-62.693-40.952-99.577-40.952q-.925 0-1.851.013c-34.558-.465-69.486 12.5-95.753 35.635a7.5 7.5 0 0 0-.671 10.585 7.5 7.5 0 0 0 10.585.671c23.532-20.726 54.777-32.356 85.726-31.891q.11.003.218 0c33.61-.452 66.668 12.871 90.798 36.629 17.521 17.25 38.418 48.012 38.48 96.597.049 45.834-18.126 71.351-37.367 98.366-10.983 15.419-22.287 31.315-29.649 50.997a29 29 0 0 0-6.102-.649H88.089a29 29 0 0 0-6.075.643c-7.362-19.678-18.665-35.573-29.646-50.99C33.126 221.503 14.951 195.986 15 150.151c.025-29.134 7.552-55.103 22.369-77.186a7.5 7.5 0 0 0-2.049-10.406 7.495 7.495 0 0 0-10.407 2.049C8.643 88.856.028 118.432 0 150.137c-.054 50.639 20.384 79.334 40.15 107.084 11.197 15.72 21.812 30.65 28.416 49.186-5.878 5.328-9.577 13.02-9.577 21.56 0 8.562 3.718 16.271 9.624 21.601-5.905 5.33-9.624 13.038-9.624 21.601 0 15.45 12.104 28.121 27.326 29.041v11.977c0 21.22 17.263 38.483 38.482 38.483h12.088v26.744c0 18.016 14.644 32.672 32.643 32.672h189.213c18 0 32.643-14.656 32.643-32.672v-56.962h100.841c10.903 0 19.774-8.871 19.774-19.774v-90.286c.001-10.888-8.869-19.746-19.773-19.746M73.989 327.967c0-7.775 6.325-14.101 14.1-14.101h112.564c7.775 0 14.1 6.325 14.1 14.101s-6.325 14.101-14.1 14.101H88.089c-7.774-.001-14.1-6.326-14.1-14.101m0 43.201c0-7.775 6.325-14.101 14.1-14.101h112.564c7.775 0 14.1 6.325 14.1 14.101s-6.325 14.101-14.1 14.101H88.089c-7.774 0-14.1-6.326-14.1-14.101m27.327 41.019v-11.918h86.14v11.918c0 12.949-10.547 23.483-23.511 23.483h-39.147c-12.948 0-23.482-10.534-23.482-23.483"/><path d="M389.81 389.865a7.5 7.5 0 0 0 7.5-7.5v-19.827h12.513c4.142 0 7.5-3.357 7.5-7.5s-3.358-7.5-7.5-7.5H397.31v-11.334h14.242c4.142 0 7.5-3.357 7.5-7.5s-3.358-7.5-7.5-7.5H389.81a7.5 7.5 0 0 0-7.5 7.5v53.661a7.5 7.5 0 0 0 7.5 7.5M297.044 355.549c0 19.031 15.496 34.515 34.542 34.515s34.543-15.483 34.543-34.515c0-19.048-15.496-34.544-34.543-34.544s-34.542 15.496-34.542 34.544m54.085 0c0 10.761-8.767 19.515-19.543 19.515s-19.542-8.754-19.542-19.515c0-10.776 8.767-19.544 19.542-19.544s19.543 8.768 19.543 19.544M463.228 336.204c4.142 0 7.5-3.357 7.5-7.5s-3.358-7.5-7.5-7.5h-21.77a7.5 7.5 0 0 0-7.5 7.5v53.661c0 4.143 3.358 7.5 7.5 7.5s7.5-3.357 7.5-7.5v-19.827h12.541c4.142 0 7.5-3.357 7.5-7.5s-3.358-7.5-7.5-7.5h-12.541v-11.334z"/></svg>