<svg xmlns="http://www.w3.org/2000/svg" width="512" height="512"><path fill="#375e7d" fill-rule="evenodd" d="m95.012 498.781 55.278-41.077c0-18.67-4.112-26.815-15.31-38.013-3.827-3.827-11.903-9.92-31.889-2.611l-38.27 51.481c-7.03 9.44-8.306 21.913 0 30.22s20.752 7.002 30.191 0" clip-rule="evenodd"/><path fill="#95d6a4" fill-rule="evenodd" d="M397.937 145.019C358.732 105.842 307.366 86.225 256 86.225c-51.395 0-102.761 19.617-141.966 58.795-74.555 74.557-78.212 193.167-10.942 272.061a204 204 0 0 0 10.942 11.85c11.197 11.198 23.359 20.78 36.257 28.774 64.548 40.057 146.87 40.057 211.418 0a200.7 200.7 0 0 0 36.229-28.774 196 196 0 0 0 10.971-11.85c67.24-78.894 63.583-197.505-10.972-272.062" clip-rule="evenodd"/><path fill="#eff6ff" fill-rule="evenodd" d="M412.026 286.989c0-86.18-69.849-156.031-156.026-156.031S99.973 200.809 99.973 286.989 169.822 443.02 256 443.02s156.026-69.851 156.026-156.031m-226.301 0c0-11.793 9.638-21.432 21.431-21.432h27.412v-27.413c0-11.793 9.638-21.432 21.431-21.432 11.764 0 21.431 9.639 21.431 21.432v27.413h27.412c11.764 0 21.431 9.639 21.431 21.432s-9.667 21.432-21.431 21.432H277.43v27.413c0 11.793-9.667 21.432-21.431 21.432-11.793 0-21.431-9.638-21.431-21.432v-27.413h-27.412c-11.792 0-21.431-9.639-21.431-21.432" clip-rule="evenodd"/><path fill="#95d6a4" fill-rule="evenodd" d="M326.274 286.989c0-11.793-9.667-21.432-21.431-21.432h-27.412v-27.413c0-11.793-9.667-21.432-21.431-21.432-11.793 0-21.431 9.639-21.431 21.432v27.413h-27.412c-11.793 0-21.431 9.639-21.431 21.432s9.638 21.432 21.431 21.432h27.412v27.413c0 11.793 9.638 21.432 21.431 21.432 11.764 0 21.431-9.638 21.431-21.432v-27.413h27.412c11.764 0 21.431-9.639 21.431-21.432M85.091 116.076l39.97-39.971c1.559-1.559 1.559-4.139 0-5.698L113.835 59.18c-23.557-23.558-62.11-23.558-85.639 0-23.557 23.558-23.557 62.083 0 85.641l11.226 11.226c1.559 1.559 4.139 1.559 5.698 0z" clip-rule="evenodd"/><path fill="#375e7d" fill-rule="evenodd" d="M291.066 49.315c11.509 0 20.921-9.412 20.921-20.921 0-11.481-9.411-20.893-20.921-20.893h-70.161c-11.481 0-20.892 9.412-20.892 20.893 0 11.51 9.411 20.921 20.892 20.921H256z" clip-rule="evenodd"/><path fill="#95d6a4" fill-rule="evenodd" d="M483.803 144.821c23.557-23.558 23.557-62.083 0-85.641s-62.082-23.558-85.639 0l-11.226 11.226a4.005 4.005 0 0 0 0 5.698l39.97 39.971 39.97 39.971a4.02 4.02 0 0 0 5.67 0z" clip-rule="evenodd"/><path fill="#375e7d" fill-rule="evenodd" d="m447.177 468.562-38.27-51.481c-15.506-5.325-32.994 1.759-36.849 5.586-11.169 11.198-11.169 11.198-10.35 35.037l55.278 41.077c9.411 7.002 21.884 8.306 30.19 0s7.003-20.779.001-30.219" clip-rule="evenodd"/><path fill="#78c2a4" fill-rule="evenodd" d="m88.974 84.042 14.061 14.089 22.026-22.027c1.559-1.559 1.559-4.139 0-5.698L113.835 59.18c-23.557-23.558-62.11-23.558-85.639 0a58.7 58.7 0 0 0-10.574 14.288c22.878-12.19 52.104-8.647 71.352 10.574M463.987 46.026c17.491 23.643 15.535 57.406-5.868 78.809l-11.226 11.226 19.985 19.986a4.02 4.02 0 0 0 5.67 0l11.254-11.226c23.557-23.558 23.557-62.083 0-85.641-5.839-5.84-12.586-10.234-19.815-13.154" clip-rule="evenodd"/><path fill="#2b4d66" fill-rule="evenodd" d="M288.43 28.393c0 11.51-9.411 20.921-20.921 20.921h23.557c11.509 0 20.921-9.412 20.921-20.921 0-11.481-9.411-20.893-20.921-20.893h-23.557c11.509.001 20.921 9.412 20.921 20.893M393.401 433.353l26.193 35.209c7.002 9.44 8.306 21.913 0 30.22-.369.369-.765.709-1.134 1.049 9.213 6.067 20.836 6.832 28.716-1.049 8.306-8.306 7.002-20.779 0-30.22l-38.27-51.481a195 195 0 0 1-10.971 11.85 217 217 0 0 1-4.534 4.422M128.831 442.339l-40.651 30.22c-8.306 6.18-18.993 7.938-27.1 2.551-3.373 8.136-2.75 17.179 3.742 23.671 8.306 8.306 20.751 7.002 30.19 0l55.278-41.077a202 202 0 0 1-21.459-15.365" clip-rule="evenodd"/><path fill="#78c2a4" fill-rule="evenodd" d="M226.405 88.407c34.584 8.42 67.383 26.109 94.398 53.125a192 192 0 0 1 6.208 6.492c50.459 25.826 85.015 78.355 85.015 138.965 0 65.627-40.537 121.814-97.942 144.861-9.298 8.476-19.191 15.932-29.538 22.339-23.557 14.628-49.524 23.926-76.114 27.867 51.48 12.502 106.956 4.394 153.277-24.351 11.169-6.917 21.771-15.053 31.693-24.351a224 224 0 0 0 4.536-4.422 196 196 0 0 0 10.971-11.85c67.241-78.894 63.584-197.505-10.971-272.061C358.732 105.842 307.366 86.225 256 86.225c-9.894 0-19.787.737-29.595 2.182" clip-rule="evenodd"/><path fill="#d9eeff" fill-rule="evenodd" d="M256 136.231c60.721 21.346 104.263 79.206 104.263 147.242S316.721 409.37 256 430.716c-11.566 4.082-23.727 6.804-36.342 8.051A156.5 156.5 0 0 0 256 443.019c20.524 0 40.14-3.969 58.085-11.169 57.404-23.047 97.942-79.234 97.942-144.861 0-60.609-34.556-113.139-85.015-138.965-21.318-10.914-45.442-17.066-71.011-17.066-5.188 0-10.347.255-15.393.737A164 164 0 0 1 256 136.231" clip-rule="evenodd"/><path d="M456.739 279.744h-.008a7.5 7.5 0 0 0-7.501 7.492c-.057 51.539-20.156 99.976-56.597 136.392-36.492 36.507-85.017 56.612-136.636 56.612s-100.153-20.105-136.659-56.613c-36.44-36.44-56.539-84.878-56.596-136.391a7.5 7.5 0 0 0-7.501-7.492h-.008a7.5 7.5 0 0 0-7.492 7.508c.053 47.884 16.189 93.294 45.821 130.077l-34.755 46.753c-9.875 13.26-9.582 29.709.712 40.003 5.262 5.262 12.142 7.905 19.39 7.905 6.89-.001 14.11-2.39 20.578-7.188l51.216-38.059c31.593 18.578 67.68 28.497 105.294 28.497 37.618 0 73.705-9.921 105.294-28.503l51.22 38.062c6.462 4.807 13.678 7.202 20.571 7.201 7.245 0 14.132-2.647 19.4-7.915 10.271-10.271 10.568-26.717.716-39.999l-34.769-46.771c29.621-36.76 45.75-82.165 45.803-130.063a7.5 7.5 0 0 0-7.493-7.508M90.544 492.757c-6.041 4.481-14.698 6.443-20.418.72-5.744-5.744-3.781-14.402.716-20.441l32.786-44.105c1.67 1.79 3.362 3.563 5.102 5.303a210.7 210.7 0 0 0 28.471 23.852zm350.609-19.728c4.487 6.05 6.45 14.719.721 20.449-5.732 5.731-14.379 3.771-20.413-.717l-46.672-34.681a210.6 210.6 0 0 0 28.45-23.844 214 214 0 0 0 5.121-5.319z"/><path d="M256 450.52c90.169 0 163.527-73.36 163.527-163.53 0-90.172-73.358-163.531-163.527-163.531-44.991 0-85.794 18.266-115.39 47.768-11.591 11.397-21.385 24.761-29.025 39.094a162.7 162.7 0 0 0-16.508 47.504 164 164 0 0 0-2.605 29.165c.001 90.17 73.359 163.53 163.528 163.53M126.904 279.205h-19.227c1.83-35.271 16.021-67.325 38.314-91.904l13.397 13.397a7.47 7.47 0 0 0 5.304 2.197 7.5 7.5 0 0 0 5.304-12.803l-13.38-13.381c24.605-22.198 56.645-36.302 91.885-38.063v18.958c0 4.143 3.358 7.501 7.501 7.501s7.501-3.358 7.501-7.501v-18.958c35.232 1.761 67.266 15.86 91.87 38.049l-13.394 13.395a7.5 7.5 0 1 0 10.608 10.606l13.412-13.412c22.3 24.581 36.497 56.641 38.327 91.919h-19.227a7.501 7.501 0 0 0 0 15.002h19.252c-1.7 35.352-15.816 67.499-38.072 92.171l-13.692-13.692a7.502 7.502 0 0 0-10.607 10.608l13.709 13.709c-24.644 22.353-56.803 36.56-92.185 38.329v-19.526c0-4.143-3.358-7.501-7.501-7.501s-7.501 3.358-7.501 7.501v19.526c-35.389-1.769-67.554-15.982-92.2-38.342l13.696-13.696a7.502 7.502 0 0 0-10.607-10.608l-13.677 13.678c-22.248-24.67-36.359-56.811-38.059-92.156h19.252a7.501 7.501 0 1 0-.003-15.003"/><path d="M489.106 53.876c-26.536-26.535-69.711-26.537-96.247.001l-11.176 11.178c-2.215 2.175-3.436 5.087-3.436 8.199s1.219 6.025 3.387 8.154l34.664 34.666-18.465 18.447C359.932 99.222 311.969 80.708 263.5 78.976v-22.16h27.565c15.672 0 28.422-12.75 28.422-28.422C319.487 12.737 306.737 0 291.066 0h-70.16c-15.656 0-28.393 12.737-28.393 28.394 0 15.672 12.737 28.422 28.393 28.422H248.5v22.16c-48.47 1.73-96.441 20.244-134.358 55.543l-18.443-18.443 34.668-34.668a11.45 11.45 0 0 0 3.365-8.152c0-3.087-1.196-5.983-3.366-8.152L119.14 53.877c-12.81-12.81-29.904-19.865-48.134-19.865-18.231 0-35.319 7.056-48.116 19.869-26.53 26.536-26.53 69.711.003 96.244l11.227 11.227a11.5 11.5 0 0 0 8.151 3.37 11.5 11.5 0 0 0 8.152-3.371l34.667-34.667 18.435 18.435c-27.549 29.589-45.711 66.029-52.669 105.853a7.5 7.5 0 0 0 6.098 8.679c4.081.72 7.966-2.017 8.679-6.097 6.854-39.227 25.425-74.924 53.702-103.23 75.362-75.337 197.962-75.338 273.297 0 28.827 28.827 47.53 65.279 54.086 105.416a7.5 7.5 0 0 0 8.611 6.193 7.5 7.5 0 0 0 6.193-8.612c-6.663-40.788-24.967-78.04-53.075-108.202l18.456-18.439 34.67 34.671a11.48 11.48 0 0 0 8.14 3.365c2.945 0 5.89-1.12 8.13-3.36l11.261-11.232c26.538-26.535 26.538-69.712.002-96.248M207.513 28.394c0-7.384 6.008-13.393 13.392-13.393h70.16c7.4 0 13.42 6.008 13.42 13.393 0 7.4-6.02 13.421-13.42 13.421h-70.16c-7.384 0-13.392-6.021-13.392-13.421M42.271 148.289l-8.771-8.772c-20.686-20.686-20.686-54.347 0-75.033l.003-.004c9.963-9.974 23.281-15.468 37.502-15.468 14.223 0 27.55 5.495 37.526 15.471l8.771 8.772zm436.235-8.778-8.789 8.767-75.02-75.023 8.771-8.771c20.686-20.687 54.346-20.687 75.032 0 20.685 20.686 20.685 54.347.006 75.027"/><path d="M207.156 315.921h19.912v19.913c0 15.953 12.978 28.932 28.931 28.932s28.931-12.978 28.931-28.932v-19.913h19.912c15.953 0 28.931-12.978 28.931-28.932s-12.978-28.933-28.931-28.933H284.93v-19.913c0-15.953-12.978-28.932-28.931-28.932s-28.931 12.978-28.931 28.932v19.913h-19.912c-15.953 0-28.931 12.979-28.931 28.933s12.978 28.932 28.931 28.932m0-42.863h27.413a7.5 7.5 0 0 0 7.501-7.501v-27.413c0-7.681 6.249-13.931 13.93-13.931s13.93 6.249 13.93 13.931v27.413a7.5 7.5 0 0 0 7.501 7.501h27.413c7.681 0 13.93 6.249 13.93 13.932 0 7.681-6.249 13.931-13.93 13.931H277.43a7.5 7.5 0 0 0-7.501 7.501v27.413c0 7.681-6.249 13.931-13.93 13.931s-13.93-6.249-13.93-13.931v-27.413a7.5 7.5 0 0 0-7.501-7.501h-27.413c-7.681 0-13.93-6.249-13.93-13.931.001-7.683 6.25-13.932 13.931-13.932"/></svg>