<svg xmlns="http://www.w3.org/2000/svg" width="512" height="512"><path fill="#375e7d" fill-rule="evenodd" d="m95.012 498.782 55.278-41.077c-1.786-22.707-13.72-39.433-47.199-40.624l-38.27 51.481c-7.03 9.44-8.306 21.913 0 30.22s20.751 7.002 30.191 0" clip-rule="evenodd"/><path fill="#eb5468" fill-rule="evenodd" d="M408.908 417.081c67.241-78.894 63.584-197.505-10.971-272.062-39.205-39.178-90.571-58.795-141.938-58.795-51.395 0-102.761 19.617-141.966 58.795-74.555 74.557-78.212 193.167-10.942 272.062a204 204 0 0 0 10.942 11.85c11.197 11.198 23.359 20.78 36.257 28.774 64.548 40.057 146.87 40.057 211.418 0a200.7 200.7 0 0 0 36.229-28.774 196 196 0 0 0 10.971-11.85" clip-rule="evenodd"/><path fill="#375e7d" fill-rule="evenodd" d="m447.177 468.562-38.27-51.481c-31.183-.085-43.967 16.556-47.199 40.624l55.278 41.077c9.411 7.002 21.885 8.306 30.19 0s7.003-20.78.001-30.22" clip-rule="evenodd"/><path fill="#eff6ff" fill-rule="evenodd" d="M255.999 443.02c86.177 0 156.026-69.851 156.026-156.031s-69.849-156.031-156.026-156.031S99.973 200.81 99.973 286.989 169.822 443.02 255.999 443.02" clip-rule="evenodd"/><path fill="#eb5468" fill-rule="evenodd" d="M309.917 310.632c13.012 0 23.642-10.631 23.642-23.643s-10.63-23.643-23.642-23.643H202.082c-13.012 0-23.67 10.631-23.67 23.643s10.659 23.643 23.67 23.643zM85.09 116.076l39.97-39.972c1.559-1.559 1.559-4.139 0-5.698L113.835 59.18c-23.557-23.558-62.11-23.558-85.639 0-23.557 23.558-23.557 62.083 0 85.641l11.226 11.226c1.559 1.559 4.139 1.559 5.698 0z" clip-rule="evenodd"/><path fill="#375e7d" fill-rule="evenodd" d="M311.986 28.393c0-11.481-9.411-20.893-20.921-20.893h-70.161c-11.481 0-20.892 9.412-20.892 20.893 0 11.51 9.411 20.921 20.892 20.921h70.161c11.51.001 20.921-9.411 20.921-20.921" clip-rule="evenodd"/><path fill="#eb5468" fill-rule="evenodd" d="M483.803 144.821c23.557-23.558 23.557-62.083 0-85.641s-62.082-23.558-85.639 0l-11.226 11.226a4.005 4.005 0 0 0 0 5.698l39.97 39.972 39.97 39.972a4.02 4.02 0 0 0 5.67 0z" clip-rule="evenodd"/><path fill="#d9eeff" fill-rule="evenodd" d="M255.999 141.561c53.747 24.663 91.082 78.923 91.082 141.913s-37.334 117.278-91.082 141.913c-12.757 5.84-26.42 10.035-40.736 12.247 12.983 3.515 26.647 5.386 40.736 5.386 9.61 0 19.021-.879 28.178-2.551 72.712-13.267 127.849-76.938 127.849-153.479 0-78.554-58.056-143.529-133.575-154.415A154.5 154.5 0 0 0 256 130.959c-8.249 0-16.328.624-24.209 1.871 8.362 2.239 16.441 5.187 24.208 8.731" clip-rule="evenodd"/><path fill="#e5384f" fill-rule="evenodd" d="M222.577 89.003c39.772 6.69 77.872 25.372 108.544 56.017a200 200 0 0 1 10.857 11.765c42.21 27.923 70.048 75.804 70.048 130.205s-27.838 102.282-70.048 130.205a191 191 0 0 1-10.857 11.736 199.7 199.7 0 0 1-36.229 28.774 199.7 199.7 0 0 1-72.315 27.243c47.369 7.966 97.035-1.134 139.131-27.243a200.7 200.7 0 0 0 36.229-28.774 196 196 0 0 0 10.971-11.85c67.241-78.894 63.584-197.505-10.971-272.062-39.205-39.178-90.571-58.795-141.938-58.795a203.3 203.3 0 0 0-33.422 2.779M15.015 78.967c23.67-17.463 57.433-15.507 78.835 5.897l11.226 11.226 19.985-19.986c1.559-1.559 1.559-4.139 0-5.698L113.835 59.18c-23.557-23.558-62.11-23.558-85.639 0a60.2 60.2 0 0 0-13.181 19.787M464.753 46.338c19.021 23.699 17.547 58.71-4.422 80.68l-11.254 11.254 17.802 17.775a4.02 4.02 0 0 0 5.67 0l11.254-11.226c23.557-23.558 23.557-62.083 0-85.641a59.8 59.8 0 0 0-19.05-12.842" clip-rule="evenodd"/><path fill="#2b4d66" fill-rule="evenodd" d="M265.156 7.5c11.509 0 20.921 9.412 20.921 20.893 0 11.51-9.411 20.921-20.921 20.921h25.91c11.509 0 20.921-9.412 20.921-20.921 0-11.481-9.411-20.893-20.921-20.893zM133.565 446.11l-46.887 34.84c-8.476 6.293-19.418 7.966-27.554 2.211-.425 5.67 1.304 11.226 5.698 15.62 8.306 8.306 20.751 7.002 30.19 0l55.278-41.077a200 200 0 0 1-16.725-11.594M393.345 433.382l31.154 41.928c6.463 8.703 8.079 19.957 1.786 28.179 7.37 2.183 15.138 1.049 20.892-4.706 8.306-8.306 7.002-20.78 0-30.22l-38.27-51.481a195 195 0 0 1-10.971 11.85 135 135 0 0 1-4.591 4.45" clip-rule="evenodd"/><path d="M255.999 450.52c90.169 0 163.527-73.359 163.527-163.531s-73.358-163.531-163.527-163.531c-44.997 0-85.806 18.271-115.403 47.781-11.589 11.381-21.374 24.755-29.009 39.076a162.7 162.7 0 0 0-16.51 47.507 164 164 0 0 0-2.605 29.167c0 90.172 73.358 163.531 163.527 163.531M126.903 279.206h-19.227c1.83-35.271 16.021-67.325 38.313-91.904l13.398 13.398a7.48 7.48 0 0 0 5.304 2.196 7.5 7.5 0 0 0 5.304-12.803l-13.381-13.382c24.605-22.198 56.646-36.302 91.885-38.063v18.958a7.5 7.5 0 0 0 7.5 7.5 7.5 7.5 0 0 0 7.5-7.5v-18.958c35.232 1.761 67.267 15.86 91.87 38.049l-13.394 13.395a7.5 7.5 0 0 0 5.304 12.803 7.48 7.48 0 0 0 5.304-2.197l13.412-13.412c22.3 24.581 36.496 56.641 38.327 91.92h-19.227a7.5 7.5 0 0 0 0 15h19.252c-1.7 35.352-15.816 67.499-38.073 92.171l-13.692-13.692a7.5 7.5 0 0 0-10.608 10.606l13.71 13.71c-24.644 22.353-56.803 36.561-92.185 38.329v-19.526a7.5 7.5 0 0 0-15 0v19.526c-35.389-1.769-67.554-15.982-92.2-38.342l13.696-13.696a7.5 7.5 0 1 0-10.607-10.607l-13.677 13.678c-22.249-24.67-36.36-56.812-38.059-92.156h19.252a7.5 7.5 0 1 0-.001-15.001"/><path d="M489.106 53.877q0-.002 0 0c-26.535-26.536-69.712-26.536-96.246-.001l-11.179 11.18a11.4 11.4 0 0 0-3.434 8.2c0 3.111 1.22 6.023 3.387 8.153l34.665 34.665-18.464 18.446C359.932 99.222 311.969 80.708 263.5 78.976V56.815h27.566c15.671 0 28.421-12.75 28.421-28.422C319.487 12.737 306.737 0 291.066 0h-70.161c-15.656 0-28.393 12.737-28.393 28.393 0 15.672 12.737 28.422 28.393 28.422h27.594v22.161c-48.47 1.73-96.441 20.244-134.358 55.542l-18.443-18.443 34.667-34.668c4.493-4.495 4.493-11.809-.001-16.305l-11.226-11.227C106.328 41.066 89.234 34.01 71.005 34.01c-18.231 0-35.319 7.056-48.116 19.868-26.53 26.536-26.53 69.712.003 96.245l11.227 11.227c2.247 2.247 5.199 3.37 8.151 3.37s5.905-1.123 8.153-3.37l34.667-34.668 18.435 18.435c-27.549 29.588-45.711 66.028-52.669 105.853a7.5 7.5 0 0 0 6.098 8.679c4.084.727 7.967-2.016 8.68-6.097 6.854-39.228 25.425-74.926 53.703-103.229 75.361-75.338 197.962-75.338 273.297-.002 28.833 28.835 47.536 65.287 54.087 105.416a7.502 7.502 0 0 0 14.806-2.417c-6.658-40.782-24.961-78.035-53.075-108.203l18.456-18.437 34.67 34.67a11.48 11.48 0 0 0 8.14 3.365c2.945 0 5.89-1.12 8.13-3.36l11.26-11.232c26.533-26.534 26.533-69.711-.002-96.246M207.513 28.393c0-7.384 6.008-13.392 13.392-13.392h70.161c7.4 0 13.42 6.008 13.42 13.392 0 7.4-6.02 13.421-13.42 13.421h-70.161c-7.384 0-13.392-6.021-13.392-13.421M42.271 148.289l-8.772-8.772c-20.686-20.686-20.686-54.346 0-75.034l.003-.003c9.963-9.974 23.281-15.468 37.502-15.468 14.223 0 27.55 5.494 37.526 15.471l8.772 8.772zm436.234-8.778-8.788 8.766-75.022-75.021 8.773-8.772c20.685-20.687 54.345-20.686 75.03-.001 20.687 20.688 20.687 54.348.007 75.028"/><path d="M202.082 318.133h107.835c17.172 0 31.143-13.971 31.143-31.144s-13.971-31.144-31.143-31.144H202.082c-17.188 0-31.171 13.971-31.171 31.144s13.983 31.144 31.171 31.144m0-47.286h107.835c8.901 0 16.142 7.242 16.142 16.143s-7.241 16.143-16.142 16.143H202.082c-8.916 0-16.17-7.242-16.17-16.143s7.254-16.143 16.17-16.143"/><path d="M456.738 279.744h-.008a7.5 7.5 0 0 0-7.5 7.492c-.057 51.539-20.156 99.976-56.597 136.393-36.492 36.507-85.017 56.612-136.636 56.612s-100.152-20.106-136.659-56.612c-36.44-36.442-56.54-84.88-56.597-136.393a7.5 7.5 0 0 0-7.5-7.492h-.008a7.5 7.5 0 0 0-7.492 7.509c.053 47.883 16.189 93.294 45.822 130.076l-34.755 46.754c-9.874 13.259-9.582 29.708.712 40.003 5.262 5.261 12.143 7.904 19.39 7.903 6.89 0 14.11-2.389 20.578-7.187l51.216-38.058c31.593 18.579 67.68 28.498 105.294 28.498 37.618 0 73.705-9.921 105.294-28.503l51.22 38.061c6.461 4.808 13.678 7.202 20.571 7.201 7.245 0 14.132-2.647 19.401-7.915 10.271-10.271 10.567-26.717.716-39.998l-34.768-46.773c29.62-36.761 45.749-82.165 45.802-130.063a7.505 7.505 0 0 0-7.496-7.508M90.543 492.758c-6.041 4.48-14.696 6.442-20.418.721-5.744-5.745-3.781-14.403.716-20.441l32.787-44.106c1.67 1.79 3.363 3.564 5.103 5.304a210.7 210.7 0 0 0 28.47 23.852zm350.61-19.727c4.487 6.049 6.45 14.718.72 20.448-5.731 5.729-14.38 3.771-20.412-.717l-46.671-34.681a210.6 210.6 0 0 0 28.45-23.844 214 214 0 0 0 5.12-5.319z"/></svg>