<svg xmlns="http://www.w3.org/2000/svg" width="512" height="512"><path fill="#ffd772" fill-rule="evenodd" d="M303.523 171.018h-69.767C131.96 160.866 78.475 207.154 56.71 231.197v27.109a186 186 0 0 0 8.099 54.386l49.351 87.991 112.313 15.945 138.859-15.945c22.834-19.488 40.971-44.347 52.388-72.581 8.774-21.597 13.582-45.163 13.582-69.797v-78.093c0-5.062-4.134-9.196-9.195-9.196H303.523z" clip-rule="evenodd"/><path fill="#eff6ff" fill-rule="evenodd" d="M339.124 325.544v-60.545c0-7.48-.675-10.377-6.496-14.792l-29.105-22.019-29.076 22.019c-5.821 4.415-6.524 7.312-6.524 14.792v60.545c0 3.403 2.784 6.215 6.215 6.215h58.8c3.402-.001 6.186-2.813 6.186-6.215" clip-rule="evenodd"/><path fill="#95d6a4" fill-rule="evenodd" d="M75.045 400.683c11.051-11.698 24.521-28.852 17.716-64.201-7.396-10.292-17.013-18.279-27.952-23.791-6.383-3.234-13.217-5.596-20.331-7.115-6.468-1.35-7.593-.675-9.223 5.765-5.259 20.641-2.7 42.604 8.942 61.304 7.705 12.375 18.419 21.795 30.848 28.038" clip-rule="evenodd"/><path fill="#ffd772" fill-rule="evenodd" d="m373.065 445.593-130.141-12.879-127.976 12.879v20.388c0 11.052 8.914 20.135 19.909 20.416h218.299c10.995-.281 19.909-9.364 19.909-20.416z" clip-rule="evenodd"/><path fill="#eff6ff" fill-rule="evenodd" d="M122.119 254.847c63.13 0 114.619-51.49 114.619-114.622S185.249 25.603 122.119 25.603 7.5 77.093 7.5 140.225s51.488 114.622 114.619 114.622" clip-rule="evenodd"/><path fill="#d9eeff" fill-rule="evenodd" d="M189.973 131.367c0 46.653-27.867 86.782-67.855 104.667-13.582 6.074-28.57 9.589-44.318 9.927 1.968.816 3.937 1.603 5.962 2.306a114.6 114.6 0 0 0 38.356 6.58c40.325 0 75.784-20.838 96.2-52.305 11.642-17.941 18.419-39.342 18.419-62.317 0-62.963-50.785-114.088-113.606-114.622h-2.053c-.478 0-.928 0-1.406.028.815.337 1.631.675 2.446 1.04 39.988 17.886 67.855 58.043 67.855 104.696" clip-rule="evenodd"/><path fill="#faf0b0" fill-rule="evenodd" d="M365.332 400.683H37.842c0 17.379 12.232 44.909 50.645 44.909h311.011c38.441 0 50.673-27.531 50.673-44.909z" clip-rule="evenodd"/><path fill="#fbba58" fill-rule="evenodd" d="M382.936 197.283v61.023c0 24.634-4.809 48.2-13.554 69.797-11.445 28.234-29.583 53.093-52.388 72.581h48.339c22.834-19.488 40.971-44.347 52.388-72.581 8.774-21.597 13.582-45.163 13.582-69.797v-78.093c0-5.062-4.134-9.196-9.195-9.196H373.74c5.062 0 9.195 4.134 9.195 9.196z" clip-rule="evenodd"/><path fill="#78c2a4" fill-rule="evenodd" d="M93.914 364.576c1.125-7.846.956-17.098-1.153-28.093a74 74 0 0 0-7.086-8.493c-6.074-6.299-13.16-11.417-20.865-15.298-6.383-3.234-13.217-5.596-20.331-7.115-6.468-1.35-7.593-.675-9.223 5.765-.45 1.772-.844 3.6-1.181 5.399a31 31 0 0 1 1.743.337 83.8 83.8 0 0 1 20.331 7.087c7.705 3.881 14.735 8.999 20.809 15.27-10.236 15.467-16.113 32.789-17.885 50.618a77.8 77.8 0 0 0 15.972 10.63c7.621-8.07 16.366-18.7 18.869-36.107" clip-rule="evenodd"/><path fill="#95d6a4" fill-rule="evenodd" d="M141.241 377.737c13.92-18.504 18.616-41.282 15.016-63.413-1.125-6.862-2.222-7.677-9.139-6.862-21.006 2.531-40.522 12.345-54.357 29.021-.815.984-1.603 1.997-2.39 3.009-13.442 17.885-18.278 39.763-15.326 61.192h39.115c10.405-5.428 19.685-13.105 27.081-22.947" clip-rule="evenodd"/><path fill="#78c2a4" fill-rule="evenodd" d="M131.37 316.882c3.599 22.103-1.097 44.881-15.016 63.413a79 79 0 0 1-8.352 9.449c-4.331 4.218-9.111 7.846-14.201 10.939h20.359c10.405-5.427 19.684-13.104 27.08-22.947 13.92-18.504 18.616-41.282 15.016-63.413-1.125-6.862-2.222-7.677-9.139-6.862-5.933.731-11.782 2.025-17.378 3.881.76 1.125 1.21 2.869 1.631 5.54" clip-rule="evenodd"/><path fill="#ffd772" fill-rule="evenodd" d="M140.003 140.422c0-9.871-8.014-17.885-17.885-17.885-9.898 0-17.913 8.015-17.913 17.885 0 9.899 8.014 17.913 17.913 17.913 9.871 0 17.885-8.014 17.885-17.913" clip-rule="evenodd"/><path fill="#fbba58" fill-rule="evenodd" d="M327.201 445.593v20.388c0 11.08-8.914 20.135-19.937 20.416h45.893c10.995-.281 19.909-9.364 19.909-20.416v-20.388h-19.431z" clip-rule="evenodd"/><path fill="#ffd772" fill-rule="evenodd" d="M404.307 400.683c0 15.579-9.842 39.341-39.65 44.066a71 71 0 0 1-11.023.844h45.864c38.441 0 50.673-27.531 50.673-44.909h-45.864z" clip-rule="evenodd"/><path d="M457.454 189.783h-18.651v-9.569c0-9.206-7.489-16.696-16.695-16.696H311.023v-4.563c0-4.143-3.357-7.5-7.5-7.5s-7.5 3.357-7.5 7.5v4.563H242a122.2 122.2 0 0 0 2.238-23.292c0-67.338-54.782-122.122-122.118-122.122C54.782 18.104 0 72.888 0 140.226c0 40.031 19.362 75.624 49.211 97.91v20.17c0 14.147 1.542 28.196 4.584 41.938a93 93 0 0 0-7.784-2.008c-10.371-2.162-15.425.994-18.023 11.256-5.981 23.478-2.486 47.314 9.844 67.12a83.6 83.6 0 0 0 13.576 16.572H37.842a7.5 7.5 0 0 0-7.5 7.5c0 21.067 15.484 52.409 58.145 52.409h18.962v12.888c0 15.393 12.51 27.916 27.887 27.916H352.65c15.393 0 27.916-12.523 27.916-27.916v-12.888h18.933c24.243 0 38.078-10.071 45.415-18.52 8.108-9.338 12.759-21.689 12.759-33.89 0-4.143-3.357-7.5-7.5-7.5h-65.976c16.296-16.919 29.282-36.436 38.49-57.581h34.768c30.077 0 54.546-24.47 54.546-54.547v-36.698c-.001-30.092-24.47-54.574-54.547-54.574M202.84 210.565l-8.378-8.378a7.5 7.5 0 0 0-10.607 10.607l8.365 8.365c-17.031 14.771-38.754 24.263-62.6 25.92v-11.806c0-4.143-3.357-7.5-7.5-7.5s-7.5 3.357-7.5 7.5v11.806c-23.853-1.658-45.582-11.155-62.615-25.934l8.352-8.352a7.5 7.5 0 0 0-10.607-10.607l-8.363 8.363c-14.842-17.018-24.402-38.754-26.106-62.629h11.99c4.143 0 7.5-3.357 7.5-7.5s-3.357-7.5-7.5-7.5H15.254c1.62-23.931 11.127-45.734 25.946-62.814l8.548 8.548c1.465 1.464 3.385 2.196 5.304 2.196s3.839-.732 5.304-2.196a7.5 7.5 0 0 0 0-10.607l-8.56-8.56C68.86 44.605 90.667 35.035 114.619 33.37v12.228c0 4.143 3.357 7.5 7.5 7.5s7.5-3.357 7.5-7.5V33.37c23.948 1.665 45.752 11.232 62.815 26.111l-8.557 8.574a7.5 7.5 0 0 0 5.309 12.797 7.48 7.48 0 0 0 5.309-2.202l8.535-8.552c14.824 17.082 24.334 38.888 25.954 62.823H216.94c-4.143 0-7.5 3.357-7.5 7.5s3.357 7.5 7.5 7.5h12.018c-1.703 23.883-11.269 45.624-26.118 62.644M42.525 313.184l.086-.334.313.064c16.129 3.415 30.253 11.733 40.346 23.622-10.462 14.569-16.13 31.904-16.515 50.08-6.411-4.988-11.902-11.045-16.191-17.933-10.148-16.302-13.004-36.008-8.039-55.499m323.04 152.796c0 7.122-5.794 12.916-12.916 12.916H135.335c-7.105 0-12.887-5.794-12.887-12.916v-12.888h243.117zM260.78 393.184c-4.143 0-7.5 3.357-7.5 7.5s3.357 7.5 7.5 7.5h181.013c-2.959 13.118-14.006 29.909-42.295 29.909H88.486c-28.27 0-39.31-16.791-42.267-29.909h28.785l.034.002.028-.002h151.35c4.143 0 7.5-3.357 7.5-7.5s-3.357-7.5-7.5-7.5h-88.921a88 88 0 0 0 9.741-10.942 7.5 7.5 0 0 0-11.992-9.01c-6.197 8.247-13.918 14.953-22.968 19.952H81.844c-1.027-17.963 4.029-35.224 14.521-49.183 12.207-16.228 30.549-26.559 51.632-29.091q.405-.047.738-.082.057.319.12.702c1.616 9.908 1.403 19.718-.632 29.157a7.5 7.5 0 0 0 5.75 8.912 7.5 7.5 0 0 0 8.912-5.75c2.434-11.28 2.693-22.967.773-34.74-1.777-10.834-6.497-14.38-17.435-13.094-20.596 2.473-39.028 11.23-53.096 25.009-6.275-6.971-13.709-12.847-22.006-17.442a178.8 178.8 0 0 1-6.911-49.277v-10.586c17.242 9.326 36.967 14.627 57.908 14.627 53.966 0 99.862-35.191 115.963-83.829h57.942v45.943l-26.104 19.767-.005.004c-8.072 6.122-9.492 11.574-9.492 20.768v60.545c0 7.562 6.152 13.715 13.715 13.715h58.8c7.547 0 13.687-6.152 13.687-13.715v-60.545c0-9.397-1.366-14.626-9.471-20.773l-26.13-19.768v-45.94h111.084c.919 0 1.695.776 1.695 1.696v78.092c0 51.573-22.313 100.567-61.295 134.878zm42.745-155.589 24.57 18.588c3.262 2.474 3.528 2.676 3.528 8.816v59.26h-56.201v-59.26c0-6.116.269-6.322 3.552-8.812zM497 281.056c0 21.437-18.109 39.547-39.546 39.547h-28.958a193.4 193.4 0 0 0 10.306-62.297v-53.522h18.651c21.806 0 39.546 17.753 39.546 39.574z"/><path d="M165.199 132.922h-18.828c-2.471-7.976-8.777-14.281-16.752-16.753V82.5c0-4.143-3.357-7.5-7.5-7.5s-7.5 3.357-7.5 7.5v33.667c-10.363 3.204-17.913 12.865-17.913 24.255 0 14.013 11.4 25.413 25.413 25.413 11.39 0 21.051-7.55 24.255-17.913h18.825c4.143 0 7.5-3.357 7.5-7.5s-3.357-7.5-7.5-7.5m-43.08 17.913c-5.742 0-10.413-4.671-10.413-10.413 0-5.727 4.671-10.385 10.413-10.385 5.726 0 10.384 4.658 10.384 10.385 0 5.742-4.658 10.413-10.384 10.413"/></svg>