<svg xmlns="http://www.w3.org/2000/svg" width="512" height="512"><path fill="#eff6ff" fill-rule="evenodd" d="M188.906 199.548v-87.392c0-36.822 30.273-67.096 67.094-67.096s67.066 30.274 67.066 67.096v87.392h37.586v-87.392C360.653 54.584 313.542 7.5 256 7.5c-57.57 0-104.653 47.084-104.653 104.655v87.392h37.559z" clip-rule="evenodd"/><path fill="#ffd772" fill-rule="evenodd" d="M209.229 228.235v-21.487c0-9.553-7.823-17.348-17.348-17.348h-43.51c-9.524 0-17.348 7.795-17.348 17.348v21.487L168.27 242.5zM380.948 206.748c0-9.553-7.795-17.348-17.348-17.348h-43.482c-9.553 0-17.348 7.795-17.348 17.348v21.487l39.089 14.265 39.089-14.265z" clip-rule="evenodd"/><path fill="#375e7d" fill-rule="evenodd" d="M429.76 272.682c0-24.435-20.012-44.447-44.475-44.447H126.714c-24.462 0-44.475 20.013-44.475 44.447v58.054C82.24 426.292 160.418 504.5 256 504.5c95.554 0 173.76-78.208 173.76-173.764v-47.282z" clip-rule="evenodd"/><path fill="#eff6ff" fill-rule="evenodd" d="M356.146 362.399c0-55.304-44.843-100.148-100.146-100.148-55.331 0-100.174 44.844-100.174 100.148 0 55.332 44.843 100.177 100.174 100.177 55.303-.001 100.146-44.845 100.146-100.177" clip-rule="evenodd"/><path fill="#2b4d66" fill-rule="evenodd" d="M319.154 228.235c8.277 8.079 13.436 19.361 13.436 31.776v37.871c14.711 17.433 23.555 39.94 23.555 64.517 0 55.332-44.843 100.177-100.146 100.177h-.964c-20.437 13.663-43.851 23.102-69.05 27.099C207.444 499.199 231.112 504.5 256 504.5c95.554 0 173.76-78.208 173.76-173.764v-58.054c0-24.435-20.012-44.447-44.475-44.447h-4.337z" clip-rule="evenodd"/><path fill="#d9eeff" fill-rule="evenodd" d="M256 264.745c37.927 14.258 64.912 50.854 64.912 93.77s-26.985 79.54-64.912 93.799c-8.957 3.373-18.538 5.471-28.516 6.151 8.759 2.58 18 3.997 27.552 4.11H256c55.303 0 100.146-44.844 100.146-100.177 0-24.576-8.844-47.084-23.555-64.517-18.368-21.77-45.863-35.632-76.59-35.632-2.268 0-4.507.085-6.746.227a91 91 0 0 1 6.745 2.269M235.138 9.598c55.926 1.871 101.109 48.217 101.109 104.599V189.4h24.406v-77.244C360.653 54.584 313.542 7.5 256 7.5c-7.143 0-14.116.709-20.862 2.098" clip-rule="evenodd"/><path fill="#fbba58" fill-rule="evenodd" d="M209.229 206.748c0-9.553-7.823-17.348-17.348-17.348H168.27c9.553 0 17.348 7.795 17.348 17.348v21.487h23.612v-21.487zM340.017 189.4c9.524 0 17.348 7.795 17.348 17.348v21.487h23.584v-21.487c0-9.553-7.795-17.348-17.348-17.348h-2.948z" clip-rule="evenodd"/><path d="M148.326 362.398c0 59.373 48.303 107.677 107.674 107.677 59.355 0 107.646-48.304 107.646-107.677 0-59.357-48.29-107.648-107.646-107.648-59.371 0-107.674 48.291-107.674 107.648m160.962-53.458c1.464 1.464 3.384 2.196 5.303 2.196s3.839-.732 5.304-2.197l6.593-6.594c12.25 14.358 20.2 32.489 21.838 52.383h-9.471c-4.143 0-7.5 3.357-7.5 7.5s3.357 7.5 7.5 7.5h9.502c-1.568 19.945-9.477 38.132-21.704 52.547l-6.758-6.758a7.5 7.5 0 0 0-10.607 10.607l6.775 6.775c-14.401 12.295-32.597 20.262-52.562 21.87v-9.656c0-4.143-3.357-7.5-7.5-7.5s-7.5 3.357-7.5 7.5v9.656c-19.971-1.607-38.173-9.574-52.578-21.868l6.768-6.784a7.5 7.5 0 0 0-.013-10.606 7.496 7.496 0 0 0-10.606.013l-6.74 6.756c-12.233-14.415-20.147-32.604-21.715-52.552h9.502c4.143 0 7.5-3.357 7.5-7.5s-3.357-7.5-7.5-7.5h-9.471c1.639-19.896 9.592-38.028 21.849-52.387l6.577 6.593a7.47 7.47 0 0 0 5.31 2.203 7.5 7.5 0 0 0 5.31-12.796l-6.573-6.589c14.374-12.196 32.501-20.097 52.383-21.696v9.289c0 4.143 3.357 7.5 7.5 7.5s7.5-3.357 7.5-7.5v-9.289c19.875 1.6 37.998 9.502 52.367 21.699l-6.58 6.581a7.49 7.49 0 0 0-.003 10.604"/><path d="M280.718 354.729h-20.199l-19.11-45.87a7.5 7.5 0 0 0-9.808-4.038 7.5 7.5 0 0 0-4.038 9.808l21.033 50.485a7.5 7.5 0 0 0 6.926 4.617c.087 0 .175-.01.263-.013.072.002.143.011.216.011h24.718a7.5 7.5 0 1 0-.001-15"/><path d="M388.448 220.84v-14.092c0-12.146-8.762-22.278-20.296-24.423v-70.169C368.152 50.312 317.841 0 256 0S143.848 50.312 143.848 112.155v15.959c0 4.143 3.357 7.5 7.5 7.5s7.5-3.357 7.5-7.5v-15.959C158.848 58.584 202.43 15 256 15s97.152 43.584 97.152 97.155v69.744h-22.586v-69.744c0-41.132-33.45-74.596-74.566-74.596-41.132 0-74.595 33.464-74.595 74.596v69.744h-22.558v-19.146c0-4.143-3.357-7.5-7.5-7.5s-7.5 3.357-7.5 7.5v19.566c-11.548 2.134-20.324 12.272-20.324 24.428v14.094c-27.177 1.655-48.783 24.268-48.783 51.84v58.054c0 48.222 18.905 93.687 53.233 128.019C162.305 493.09 207.771 512 256 512c44.979 0 88.186-16.76 121.659-47.191a7.5 7.5 0 0 0-10.09-11.1C336.862 481.626 297.24 497 256 497c-91.623 0-166.172-74.5-166.258-166.106h25.861c4.143 0 7.5-3.357 7.5-7.5s-3.357-7.5-7.5-7.5H89.74v-24.939h47.179c4.143 0 7.5-3.357 7.5-7.5s-3.357-7.5-7.5-7.5H89.74v-3.272c0-20.373 16.587-36.947 36.975-36.947h258.57c20.388 0 36.975 16.574 36.975 36.947v3.272h-47.207c-4.143 0-7.5 3.357-7.5 7.5s3.357 7.5 7.5 7.5h47.207v24.939h-25.892c-4.143 0-7.5 3.357-7.5 7.5s3.357 7.5 7.5 7.5h25.89c-.034 36.138-11.614 70.581-33.495 99.615a7.5 7.5 0 0 0 1.476 10.503 7.495 7.495 0 0 0 10.503-1.476c23.89-31.699 36.518-69.322 36.518-108.801v-58.054c0-27.581-21.621-50.201-48.812-51.841m-15-14.092v13.986H310.27v-13.986c0-5.431 4.418-9.849 9.848-9.849H363.6c5.43 0 9.848 4.418 9.848 9.849M256 52.56c32.845 0 59.566 26.734 59.566 59.596v70.169c-11.534 2.145-20.296 12.277-20.296 24.423v13.986h-78.541v-13.986c0-12.156-8.776-22.295-20.324-24.428v-70.164c0-32.862 26.735-59.596 59.595-59.596M148.371 196.899h43.511c5.43 0 9.848 4.418 9.848 9.849v13.986h-63.206v-13.986c-.001-5.431 4.417-9.849 9.847-9.849"/></svg>