<svg xmlns="http://www.w3.org/2000/svg" width="512" height="512"><path fill="#eff6ff" fill-rule="evenodd" d="M408.401 171.57H17.343v305.094c0 15.307 12.529 27.836 27.836 27.836h421.643c15.307 0 27.807-12.529 27.807-27.836V171.57z" clip-rule="evenodd"/><path fill="#eff6ff" fill-rule="evenodd" d="M45.178 504.5h421.643c15.307 0 27.807-12.529 27.807-27.836V171.57H17.343v305.094c0 15.307 12.529 27.836 27.835 27.836" clip-rule="evenodd"/><path fill="#9fd4fe" fill-rule="evenodd" d="M17.343 171.57h477.286c5.357 0 9.751-4.309 9.864-9.609v-26.788H7.507v26.731c.085 5.357 4.478 9.666 9.836 9.666" clip-rule="evenodd"/><path fill="#eb5468" fill-rule="evenodd" d="M7.507 135.173h496.987V67.198c-.113-5.301-4.507-9.609-9.864-9.609h-41.243v20.693c0 12.416-10.176 22.592-22.592 22.592s-22.592-10.176-22.592-22.592V57.588h-71.346v20.693c0 12.416-10.176 22.592-22.592 22.592-12.444 0-22.592-10.176-22.592-22.592V57.588h-71.346v20.693c0 12.416-10.176 22.592-22.592 22.592-12.444 0-22.592-10.176-22.592-22.592V57.588h-71.346v20.693c0 12.416-10.176 22.592-22.592 22.592-12.444 0-22.62-10.176-22.62-22.592V57.588H17.343c-5.357 0-9.751 4.337-9.836 9.666v.17z" clip-rule="evenodd"/><path fill="#e5384f" fill-rule="evenodd" d="M363.785 57.588c13.152 23.273 24.576 49.351 33.987 77.584h106.722V67.198c-.113-5.301-4.507-9.609-9.864-9.609h-41.243v20.693c0 12.416-10.176 22.592-22.592 22.592s-22.592-10.176-22.592-22.592V57.588z" clip-rule="evenodd"/><path fill="#85beef" fill-rule="evenodd" d="M397.771 135.173c3.912 11.764 7.455 23.924 10.63 36.397h86.228c5.357 0 9.751-4.309 9.864-9.609v-26.788z" clip-rule="evenodd"/><path fill="#ffd772" fill-rule="evenodd" d="M58.586 78.281c0 12.416 10.176 22.592 22.62 22.592 12.415 0 22.592-10.176 22.592-22.592V30.092c0-12.444-10.176-22.592-22.592-22.592-12.444 0-22.62 10.148-22.62 22.592v27.496zM175.144 78.281c0 12.416 10.148 22.592 22.592 22.592 12.415 0 22.592-10.176 22.592-22.592V30.092c0-12.444-10.176-22.592-22.592-22.592-12.444 0-22.592 10.148-22.592 22.592v27.496zM291.673 78.281c0 12.416 10.148 22.592 22.592 22.592 12.415 0 22.592-10.176 22.592-22.592V30.092c0-12.444-10.176-22.592-22.592-22.592-12.444 0-22.592 10.148-22.592 22.592v27.496zM408.203 30.092v48.189c0 12.416 10.176 22.592 22.592 22.592s22.592-10.176 22.592-22.592V30.092c0-12.444-10.176-22.592-22.592-22.592s-22.592 10.148-22.592 22.592" clip-rule="evenodd"/><path fill="#fbba58" fill-rule="evenodd" d="M198.132 30.092v48.189c0 8.391-4.649 15.761-11.508 19.644a22.4 22.4 0 0 0 11.112 2.948c12.415 0 22.592-10.176 22.592-22.592V30.092c0-12.444-10.176-22.592-22.592-22.592a22.4 22.4 0 0 0-11.112 2.92c6.859 3.883 11.508 11.253 11.508 19.672M81.603 30.092v48.189c0 8.391-4.649 15.761-11.508 19.644a22.4 22.4 0 0 0 11.112 2.948c12.415 0 22.592-10.176 22.592-22.592V30.092c0-12.444-10.176-22.592-22.592-22.592a22.4 22.4 0 0 0-11.112 2.92c6.859 3.883 11.508 11.253 11.508 19.672M314.662 30.092v48.189c0 8.391-4.649 15.761-11.48 19.644a22.24 22.24 0 0 0 11.083 2.948c12.415 0 22.592-10.176 22.592-22.592V30.092c0-12.444-10.176-22.592-22.592-22.592a22.4 22.4 0 0 0-11.112 2.92c6.86 3.883 11.509 11.253 11.509 19.672M431.191 30.092v48.189c0 8.391-4.649 15.761-11.48 19.644a22.24 22.24 0 0 0 11.083 2.948c12.415 0 22.592-10.176 22.592-22.592V30.092c0-12.444-10.176-22.592-22.592-22.592-4.025 0-7.823 1.049-11.083 2.92 6.831 3.883 11.48 11.253 11.48 19.672" clip-rule="evenodd"/><path fill="#95d6a4" fill-rule="evenodd" d="M427.733 225.4H84.267c-7.994 0-14.541 6.548-14.541 14.542v196.186c0 7.994 6.548 14.542 14.541 14.542h343.466c7.994 0 14.541-6.548 14.541-14.542V239.942c0-7.994-6.548-14.542-14.541-14.542" clip-rule="evenodd"/><path fill="#d9eeff" fill-rule="evenodd" d="M408.401 171.57H297.909c8.164 16.781 15.222 34.81 20.976 53.83h108.848c7.994 0 14.541 6.548 14.541 14.542v196.186c0 7.994-6.548 14.542-14.541 14.542H325.348c-4.45 18.85-10.119 36.851-16.866 53.83h158.34c15.307 0 27.807-12.529 27.807-27.836V171.57z" clip-rule="evenodd"/><path fill="#eff6ff" fill-rule="evenodd" d="M372.572 262.307H139.4c0 18.113-14.655 32.797-32.768 32.797v85.862c18.113 0 32.768 14.684 32.768 32.797h233.172c0-18.113 14.683-32.797 32.796-32.797v-85.862c-18.113 0-32.796-14.683-32.796-32.797" clip-rule="evenodd"/><path fill="#78c2a4" fill-rule="evenodd" d="M427.733 225.4H318.885a397 397 0 0 1 9.297 36.907h44.389c0 18.113 14.683 32.797 32.796 32.797v85.862c-18.113 0-32.796 14.684-32.796 32.797h-40.223a423 423 0 0 1-7.001 36.907h102.385c7.994 0 14.541-6.548 14.541-14.542V239.942c.001-7.994-6.547-14.542-14.54-14.542" clip-rule="evenodd"/><path fill="#d9eeff" fill-rule="evenodd" d="M405.368 295.104c-18.113 0-32.796-14.684-32.796-32.797h-44.389c3.685 18.142 6.264 36.964 7.597 56.296a460 460 0 0 1 1.077 31.436c0 2.495-.028 4.961-.057 7.427a449 449 0 0 1-4.45 56.296h40.223c0-18.113 14.683-32.797 32.796-32.797z" clip-rule="evenodd"/><path fill="#95d6a4" fill-rule="evenodd" d="M297.002 338.049c0-22.649-18.368-41.017-41.016-41.017s-40.988 18.369-40.988 41.017c0 22.621 18.34 40.989 40.988 40.989s41.016-18.368 41.016-40.989" clip-rule="evenodd"/><path d="M494.629 50.088h-33.743V30.092C460.886 13.499 447.387 0 430.794 0s-30.092 13.499-30.092 30.092v19.996h-56.346V30.092C344.356 13.499 330.857 0 314.265 0s-30.091 13.499-30.091 30.092v19.996h-56.347V30.092C227.827 13.499 214.328 0 197.735 0s-30.092 13.499-30.092 30.092v19.996h-56.346V30.092C111.297 13.499 97.798 0 81.206 0c-16.608 0-30.12 13.499-30.12 30.092v19.996H17.343C7.784 50.088.007 57.865.007 67.425v94.309c0 6.87 4.027 12.802 9.836 15.605V301.34c0 4.143 3.358 7.5 7.5 7.5s7.5-3.357 7.5-7.5V179.069h462.286v297.595c0 11.213-9.11 20.336-20.307 20.336H45.178c-11.213 0-20.335-9.123-20.335-20.336V335.951c0-4.143-3.358-7.5-7.5-7.5s-7.5 3.357-7.5 7.5v140.713C9.843 496.148 25.694 512 45.178 512h421.644c19.468 0 35.307-15.852 35.307-35.336V177.345c5.825-2.801 9.864-8.737 9.864-15.611V67.425c0-9.56-7.789-17.337-17.364-17.337m-78.926-19.996c0-8.321 6.77-15.092 15.092-15.092 8.321 0 15.091 6.771 15.091 15.092v48.189c0 8.321-6.77 15.092-15.091 15.092s-15.092-6.771-15.092-15.092zm-116.53 0c0-8.321 6.77-15.092 15.091-15.092s15.092 6.771 15.092 15.092v48.189c0 8.321-6.77 15.092-15.092 15.092-8.321 0-15.091-6.771-15.091-15.092zm-116.529 0c0-8.321 6.77-15.092 15.092-15.092 8.321 0 15.091 6.771 15.091 15.092v48.189c0 8.321-6.77 15.092-15.091 15.092s-15.092-6.771-15.092-15.092zm-116.558 0c0-8.321 6.783-15.092 15.12-15.092 8.322 0 15.092 6.771 15.092 15.092v48.189c0 8.321-6.77 15.092-15.092 15.092-8.337 0-15.12-6.771-15.12-15.092zM17.343 164.069c-1.266 0-2.336-1.069-2.336-2.336v-19.061h223.887c4.142 0 7.5-3.357 7.5-7.5s-3.358-7.5-7.5-7.5H15.007V67.425c0-1.267 1.07-2.337 2.336-2.337h33.743v13.193c0 16.593 13.512 30.092 30.12 30.092 16.593 0 30.092-13.499 30.092-30.092V65.088h56.346v13.193c0 16.593 13.499 30.092 30.092 30.092s30.091-13.499 30.091-30.092V65.088h56.347v13.193c0 16.593 13.499 30.092 30.091 30.092 16.593 0 30.092-13.499 30.092-30.092V65.088h56.346v13.193c0 16.593 13.499 30.092 30.092 30.092s30.091-13.499 30.091-30.092V65.088h33.743c1.304 0 2.364 1.048 2.364 2.337v60.252l-223.891.11a7.5 7.5 0 0 0-7.496 7.504 7.5 7.5 0 0 0 7.5 7.496h.003l223.883-.11v19.057c0 1.288-1.061 2.336-2.364 2.336H17.343z"/><path d="M327.332 326.104h38.153c4.142 0 7.5-3.357 7.5-7.5s-3.358-7.5-7.5-7.5h-38.153c-4.142 0-7.5 3.357-7.5 7.5s3.358 7.5 7.5 7.5M146.486 326.104h38.154c4.142 0 7.5-3.357 7.5-7.5s-3.358-7.5-7.5-7.5h-38.154c-4.142 0-7.5 3.357-7.5 7.5s3.358 7.5 7.5 7.5M327.332 364.967h29.225c4.142 0 7.5-3.357 7.5-7.5s-3.358-7.5-7.5-7.5h-29.225c-4.142 0-7.5 3.357-7.5 7.5s3.358 7.5 7.5 7.5M184.64 349.967h-29.196c-4.142 0-7.5 3.357-7.5 7.5s3.358 7.5 7.5 7.5h29.196c4.142 0 7.5-3.357 7.5-7.5s-3.358-7.5-7.5-7.5"/><path d="M427.733 458.17c12.154 0 22.042-9.888 22.042-22.042V239.941c0-12.153-9.888-22.041-22.042-22.041H84.267c-12.154 0-22.042 9.888-22.042 22.041v196.187c0 12.154 9.888 22.042 22.042 22.042zM77.226 436.128V239.941c0-3.883 3.159-7.041 7.042-7.041h343.466c3.883 0 7.042 3.158 7.042 7.041v196.187a7.05 7.05 0 0 1-7.042 7.042H84.267c-3.883 0-7.041-3.159-7.041-7.042"/><path d="M106.632 388.466c13.933 0 25.268 11.348 25.268 25.297a7.5 7.5 0 0 0 7.5 7.5h233.172a7.5 7.5 0 0 0 7.5-7.5c0-13.949 11.348-25.297 25.296-25.297a7.5 7.5 0 0 0 7.5-7.5v-85.861a7.5 7.5 0 0 0-7.5-7.5c-13.949 0-25.296-11.349-25.296-25.298a7.5 7.5 0 0 0-7.5-7.5H139.399a7.5 7.5 0 0 0-7.5 7.5c0 13.949-11.335 25.298-25.268 25.298a7.5 7.5 0 0 0-7.5 7.5v85.861a7.5 7.5 0 0 0 7.501 7.5m7.5-86.563c16.203-3.067 29.006-15.88 32.068-32.097h219.571c3.064 16.219 15.878 29.033 32.097 32.098v72.262c-16.218 3.064-29.032 15.878-32.097 32.097H146.2c-3.062-16.216-15.865-29.028-32.068-32.096z"/><path d="M255.986 386.538c26.752 0 48.516-21.752 48.516-48.489 0-26.753-21.764-48.518-48.516-48.518-26.736 0-48.488 21.765-48.488 48.518 0 26.737 21.752 48.489 48.488 48.489m0-82.007c18.481 0 33.516 15.036 33.516 33.518 0 18.466-15.035 33.489-33.516 33.489-18.465 0-33.488-15.023-33.488-33.489 0-18.482 15.023-33.518 33.488-33.518"/></svg>