<svg xmlns="http://www.w3.org/2000/svg" width="512" height="512"><path fill="#eff6ff" fill-rule="evenodd" d="M495.174 176.176v288.482c0 14.485-11.849 26.334-26.333 26.334H70.158c-14.485 0-26.333-11.849-26.333-26.334V176.176l215.456-17.206z" clip-rule="evenodd"/><path fill="#375e7d" fill-rule="evenodd" d="M236.633 304.614v57.94c0 5.131-4.195 9.326-9.326 9.326h-93.513v41.358c0 9.241-8.107 12.019-14.938 6.945l-75.031-55.587-32.031-23.726c-2.806-2.098-4.252-4.62-4.28-7.172v-.255c.028-2.523 1.474-5.074 4.28-7.143l32.031-23.754 75.031-55.587c6.831-5.074 14.938-2.268 14.938 6.945v41.358h93.513c5.131-.002 9.326 4.222 9.326 9.352M278.188 362.555v-57.94c0-5.131 4.195-9.354 9.354-9.354h33.845c5.131 0 9.326 4.224 9.326 9.354v57.94c0 5.131-4.195 9.326-9.326 9.326h-33.845c-5.159 0-9.354-4.196-9.354-9.326M372.267 362.555v-57.94c0-5.131 4.224-9.354 9.354-9.354h33.845c5.131 0 9.354 4.224 9.354 9.354v57.94c0 5.131-4.195 9.326-9.354 9.326h-33.845c-5.13 0-9.354-4.196-9.354-9.326" clip-rule="evenodd"/><path fill="#9fd4fe" fill-rule="evenodd" d="M495.174 176.176H43.825c-5.131 0-9.297-4.195-9.297-9.326v-25.115l234.986-19.474L504.5 141.735v25.115c0 5.131-4.195 9.326-9.326 9.326" clip-rule="evenodd"/><path fill="#eb5468" fill-rule="evenodd" d="M504.5 141.735H34.528V77.672c0-5.102 4.167-9.298 9.297-9.298h451.349c5.131 0 9.326 4.195 9.326 9.298z" clip-rule="evenodd"/><path fill="#ffd772" fill-rule="evenodd" d="M456.171 42.381v45.553c0 11.735-9.609 21.373-21.373 21.373-11.763 0-21.373-9.638-21.373-21.373V42.381c0-11.764 9.609-21.373 21.373-21.373 11.763-.001 21.373 9.609 21.373 21.373M345.962 42.381v45.553c0 11.735-9.609 21.373-21.373 21.373-11.735 0-21.344-9.638-21.344-21.373V42.381c0-11.764 9.609-21.373 21.344-21.373 11.764-.001 21.373 9.609 21.373 21.373M235.782 42.381v45.553c0 11.735-9.638 21.373-21.373 21.373-11.763 0-21.373-9.638-21.373-21.373V42.381c0-11.764 9.609-21.373 21.373-21.373 11.736-.001 21.373 9.609 21.373 21.373M125.574 42.381v45.553c0 11.735-9.609 21.373-21.373 21.373s-21.373-9.638-21.373-21.373V42.381c0-11.764 9.609-21.373 21.373-21.373s21.373 9.609 21.373 21.373" clip-rule="evenodd"/><path fill="#d9eeff" fill-rule="evenodd" d="M495.174 176.176H337.459c25.511 32.797 44.134 73.644 53.007 119.084h25.001c5.131 0 9.354 4.224 9.354 9.354v57.94c0 5.131-4.195 9.326-9.354 9.326h-19.559c-2.126 43.398-12.926 83.962-30.302 119.112h103.235c14.485 0 26.333-11.849 26.333-26.334z" clip-rule="evenodd"/><path fill="#2b4d66" fill-rule="evenodd" d="M415.466 295.26h-25.001c3.827 19.531 5.839 39.884 5.839 60.832 0 5.301-.142 10.573-.397 15.789h19.559c5.159 0 9.354-4.195 9.354-9.326v-57.94c0-5.131-4.223-9.355-9.354-9.355" clip-rule="evenodd"/><path fill="#e5384f" fill-rule="evenodd" d="M394.235 141.735H504.5V77.672c0-5.102-4.195-9.298-9.326-9.298H456.17v19.559c0 11.735-9.609 21.373-21.373 21.373-11.763 0-21.373-9.638-21.373-21.373V68.374h-52.326c11.026 19.276 21.004 40.706 29.706 63.95a715 715 0 0 1 3.431 9.411" clip-rule="evenodd"/><path fill="#85beef" fill-rule="evenodd" d="M504.5 141.735H394.235a547 547 0 0 1 8.929 27.723c.68 2.211 1.304 4.45 1.956 6.718h90.054c5.131 0 9.326-4.195 9.326-9.326z" clip-rule="evenodd"/><path fill="#fbba58" fill-rule="evenodd" d="M104.853 42.381v45.553c0 7.994-4.45 15.024-10.998 18.68a21.3 21.3 0 0 0 10.346 2.693c11.763 0 21.373-9.638 21.373-21.373V42.381c0-5.783-2.324-11.027-6.066-14.882-3.883-3.997-9.326-6.491-15.307-6.491-3.742 0-7.285.964-10.346 2.693a22.2 22.2 0 0 1 4.961 3.798 21.3 21.3 0 0 1 6.037 14.882M215.062 42.381v45.553c0 7.994-4.45 15.024-11.026 18.68 3.09 1.701 6.605 2.693 10.375 2.693 11.735 0 21.373-9.638 21.373-21.373V42.381c0-5.783-2.324-11.027-6.066-14.882-3.883-3.997-9.326-6.491-15.307-6.491-3.77 0-7.285.964-10.346 2.693a21.4 21.4 0 0 1 4.932 3.798c3.74 3.855 6.065 9.099 6.065 14.882M325.27 42.381v45.553c0 7.994-4.479 15.024-11.026 18.68 3.09 1.701 6.605 2.693 10.346 2.693 11.763 0 21.373-9.638 21.373-21.373V42.381a21.2 21.2 0 0 0-6.066-14.882c-3.883-3.997-9.297-6.491-15.307-6.491-3.742 0-7.257.964-10.346 2.693a21 21 0 0 1 4.961 3.798c3.741 3.855 6.065 9.099 6.065 14.882M429.412 27.499a21.3 21.3 0 0 1 6.038 14.882v45.553c0 7.994-4.45 15.024-10.998 18.68a21.3 21.3 0 0 0 10.346 2.693c11.763 0 21.373-9.638 21.373-21.373V42.381c0-5.783-2.324-11.027-6.066-14.882-3.883-3.997-9.326-6.491-15.307-6.491-3.742 0-7.285.964-10.346 2.693a22.2 22.2 0 0 1 4.96 3.798" clip-rule="evenodd"/><path d="M495.174 60.874h-31.503V42.381c0-15.921-12.952-28.873-28.873-28.873s-28.873 12.952-28.873 28.873v18.493h-52.463V42.381c0-15.921-12.952-28.873-28.872-28.873-15.905 0-28.845 12.952-28.845 28.873v18.493h-52.463V42.381c0-15.921-12.952-28.873-28.873-28.873s-28.873 12.952-28.873 28.873v18.493h-52.463V42.381c0-15.921-12.952-28.873-28.873-28.873S75.327 26.46 75.327 42.381v18.493H43.825c-9.262 0-16.797 7.535-16.797 16.798v89.179c0 6.576 3.794 12.267 9.297 15.033v116.901L7.342 320.264C2.616 323.751.008 328.47 0 333.551c-.008 5.09 2.593 9.827 7.33 13.345l28.995 21.48v96.283c0 18.656 15.177 33.834 33.833 33.834h178.833c4.142 0 7.5-3.357 7.5-7.5s-3.358-7.5-7.5-7.5H70.158c-10.385 0-18.833-8.449-18.833-18.834v-85.17l63.059 46.715c3.53 2.622 7.545 3.975 11.409 3.975 2.414 0 4.769-.528 6.908-1.604 5.38-2.705 8.593-8.438 8.593-15.335v-33.857h86.013c9.278 0 16.826-7.548 16.826-16.826v-57.94c0-9.294-7.548-16.854-16.826-16.854h-86.013v-33.857c0-6.89-3.214-12.619-8.598-15.327-5.565-2.8-12.581-1.896-18.305 2.356l-63.066 46.737V183.676h197.667c4.142 0 7.5-3.357 7.5-7.5s-3.358-7.5-7.5-7.5H43.825c-.974 0-1.797-.836-1.797-1.825v-17.615H497v17.615a1.85 1.85 0 0 1-1.826 1.825H283.63c-4.143 0-7.5 3.357-7.5 7.5s3.357 7.5 7.5 7.5h204.044v280.982c0 10.385-8.448 18.834-18.833 18.834H283.63c-4.143 0-7.5 3.357-7.5 7.5s3.357 7.5 7.5 7.5h185.211c18.655 0 33.833-15.178 33.833-33.834V181.89c5.519-2.764 9.326-8.458 9.326-15.039V77.672c0-9.263-7.548-16.798-16.826-16.798M123.328 252.979c1.463-1.087 2.467-1.064 2.572-1.042.103.108.394.702.394 1.966v41.357a7.5 7.5 0 0 0 7.5 7.5h93.513c.973 0 1.826.866 1.826 1.854v57.94a1.85 1.85 0 0 1-1.826 1.826h-93.513a7.5 7.5 0 0 0-7.5 7.5v41.357c0 1.269-.292 1.868-.32 1.93-.172.062-1.181.082-2.653-1.012L16.266 334.848c-.832-.618-1.135-1.081-1.233-1.271.099-.188.402-.642 1.227-1.251zM420.925 42.381c0-7.649 6.224-13.873 13.873-13.873s13.873 6.224 13.873 13.873v45.553c0 7.649-6.224 13.873-13.873 13.873s-13.873-6.224-13.873-13.873zm-110.18 0c0-7.649 6.211-13.873 13.845-13.873 7.649 0 13.872 6.224 13.872 13.873v45.553c0 7.649-6.223 13.873-13.872 13.873-7.634 0-13.845-6.224-13.845-13.873zm-110.208 0c0-7.649 6.223-13.873 13.873-13.873s13.873 6.224 13.873 13.873v45.553c0 7.649-6.223 13.873-13.873 13.873s-13.873-6.224-13.873-13.873zm-110.208 0c0-7.649 6.224-13.873 13.873-13.873s13.873 6.224 13.873 13.873v45.553c0 7.649-6.223 13.873-13.873 13.873s-13.873-6.224-13.873-13.873zm-48.301 91.854V77.672c0-.975.823-1.798 1.797-1.798h31.503v12.06c0 15.921 12.952 28.873 28.873 28.873 15.92 0 28.873-12.952 28.873-28.873v-12.06h52.463v12.06c0 15.921 12.952 28.873 28.873 28.873s28.873-12.952 28.873-28.873v-12.06h52.463v12.06c0 15.921 12.939 28.873 28.845 28.873 15.92 0 28.872-12.952 28.872-28.873v-12.06h52.463v12.06c0 15.921 12.952 28.873 28.873 28.873s28.873-12.952 28.873-28.873v-12.06h31.503c.99 0 1.826.823 1.826 1.798v56.563z"/><path d="M321.387 379.381c9.277 0 16.825-7.548 16.825-16.826v-57.94c0-9.294-7.548-16.854-16.825-16.854h-33.845c-9.294 0-16.855 7.561-16.855 16.854v57.94c0 9.278 7.561 16.826 16.855 16.826zm-35.699-16.826v-57.94c0-1.005.85-1.854 1.855-1.854h33.845c.973 0 1.825.866 1.825 1.854v57.94a1.85 1.85 0 0 1-1.825 1.826h-33.845c-1.006 0-1.855-.836-1.855-1.826M415.466 379.381c9.294 0 16.854-7.548 16.854-16.826v-57.94c0-9.294-7.561-16.854-16.854-16.854h-33.845c-9.293 0-16.854 7.561-16.854 16.854v57.94c0 9.278 7.561 16.826 16.854 16.826zm-35.698-16.826v-57.94c0-.988.866-1.854 1.854-1.854h33.845c.988 0 1.854.866 1.854 1.854v57.94c0 .99-.85 1.826-1.854 1.826h-33.845c-.988 0-1.854-.854-1.854-1.826"/></svg>