<svg xmlns="http://www.w3.org/2000/svg" width="512" height="512"><path fill="#eff6ff" fill-rule="evenodd" d="M434.416 288.418V148.546H24.238v240.492c0 13.179 10.772 23.952 23.923 23.952h221.462z" clip-rule="evenodd"/><path fill="#d9eeff" fill-rule="evenodd" d="M348.696 148.546h-24.41c20.628 24.783 34.351 82.542 25.985 131.448 26.157-7.764 55.552-6.246 83.657 8.165.172.086.315.172.487.258V148.546z" clip-rule="evenodd"/><path fill="#9fd4fe" fill-rule="evenodd" d="M24.238 148.546h410.178c4.67 0 8.48-3.811 8.48-8.452v-26.33l-223.668-15.93-203.442 15.93v26.33c0 4.642 3.811 8.452 8.452 8.452" clip-rule="evenodd"/><path fill="#eb5468" fill-rule="evenodd" d="M15.786 113.765h427.11V59.042c0-4.641-3.81-8.452-8.48-8.452H24.238c-4.641 0-8.452 3.81-8.452 8.452z" clip-rule="evenodd"/><path fill="#ffd772" fill-rule="evenodd" d="M79.045 78.209c10.686 0 19.424-8.738 19.424-19.425V26.925C98.47 16.238 89.731 7.5 79.045 7.5S59.62 16.238 59.62 26.925v31.859c.001 10.687 8.739 19.425 19.425 19.425M159.809 26.925v31.859c0 10.687 8.738 19.425 19.425 19.425 10.686 0 19.424-8.738 19.424-19.425V26.925c0-10.687-8.738-19.425-19.424-19.425s-19.425 8.738-19.425 19.425M259.997 26.925v31.859c0 10.687 8.738 19.425 19.424 19.425s19.425-8.738 19.425-19.425V26.925c0-10.687-8.738-19.425-19.425-19.425s-19.424 8.738-19.424 19.425M360.185 26.925v31.859c0 10.687 8.738 19.425 19.424 19.425s19.453-8.738 19.453-19.425V26.925c0-10.687-8.767-19.425-19.453-19.425s-19.424 8.738-19.424 19.425" clip-rule="evenodd"/><path fill="#85beef" fill-rule="evenodd" d="M348.696 148.546h85.72c4.67 0 8.48-3.811 8.48-8.452v-26.33h-97.982a227 227 0 0 1 3.782 34.782" clip-rule="evenodd"/><path fill="#e5384f" fill-rule="evenodd" d="M344.914 113.765h97.982V59.042c0-4.641-3.81-8.452-8.48-8.452h-35.354v8.194c0 10.687-8.767 19.425-19.453 19.425s-19.424-8.738-19.424-19.425V50.59h-37.846c10.543 19.225 18.278 40.512 22.575 63.175" clip-rule="evenodd"/><path fill="#fbba58" fill-rule="evenodd" d="M98.47 26.925C98.47 16.238 89.731 7.5 79.045 7.5a19.33 19.33 0 0 0-10.629 3.18c5.73 3.381 9.569 9.627 9.569 16.732v31.859c0 6.762-3.495 12.778-8.795 16.245a19.26 19.26 0 0 0 9.855 2.693c10.686 0 19.424-8.738 19.424-19.425V26.925zM168.604 10.68c5.73 3.381 9.598 9.627 9.598 16.732v31.859c0 6.762-3.524 12.778-8.824 16.245a19.26 19.26 0 0 0 9.856 2.693c10.686 0 19.424-8.738 19.424-19.425V26.925c0-10.687-8.738-19.425-19.424-19.425a19.4 19.4 0 0 0-10.63 3.18M268.821 10.68c5.701 3.381 9.569 9.627 9.569 16.732v31.859c0 6.762-3.524 12.778-8.824 16.245a19.26 19.26 0 0 0 9.855 2.693c10.686 0 19.425-8.738 19.425-19.425V26.925c0-10.687-8.738-19.425-19.425-19.425a19.24 19.24 0 0 0-10.6 3.18M378.578 27.412v31.859c0 6.762-3.524 12.778-8.796 16.245a19.16 19.16 0 0 0 9.827 2.693c10.686 0 19.453-8.738 19.453-19.425V26.925c0-10.687-8.767-19.425-19.453-19.425a19.24 19.24 0 0 0-10.6 3.18c5.701 3.381 9.569 9.627 9.569 16.732" clip-rule="evenodd"/><path fill="#95d6a4" fill-rule="evenodd" d="M214.329 344.888v-39.137c0-6.246-5.128-11.374-11.374-11.374h-33.291c-6.246 0-11.374 5.128-11.374 11.374v39.137c0 6.274 5.128 11.374 11.374 11.374h33.291c6.246 0 11.374-5.099 11.374-11.374M114.198 255.384c6.246 0 11.374-5.1 11.374-11.374v-39.137c0-6.246-5.128-11.374-11.374-11.374H80.907c-6.274 0-11.374 5.128-11.374 11.374v39.137c0 6.274 5.1 11.374 11.374 11.374zM158.29 204.873v39.137c0 6.274 5.1 11.374 11.374 11.374h33.291c6.246 0 11.374-5.1 11.374-11.374v-39.137c0-6.246-5.128-11.374-11.374-11.374h-33.291c-6.274 0-11.374 5.128-11.374 11.374M125.572 344.888v-39.137c0-6.246-5.128-11.374-11.374-11.374H80.907c-6.274 0-11.374 5.128-11.374 11.374v39.137c0 6.274 5.1 11.374 11.374 11.374h33.291c6.246 0 11.374-5.099 11.374-11.374M303.086 244.01v-39.137c0-6.246-5.128-11.374-11.374-11.374h-33.291c-6.246 0-11.374 5.128-11.374 11.374v39.137c0 6.274 5.128 11.374 11.374 11.374h33.291c6.246 0 11.374-5.1 11.374-11.374M381.758 504.5c63.058 0 114.456-51.399 114.456-114.43s-51.398-114.459-114.456-114.459c-63.029 0-114.427 51.428-114.427 114.459S318.729 504.5 381.758 504.5" clip-rule="evenodd"/><path fill="#78c2a4" fill-rule="evenodd" d="M434.416 315.493c15.614 19.568 24.925 44.351 24.925 71.311 0 60.367-46.728 109.846-106.004 114.144a114.8 114.8 0 0 0 28.421 3.553c63.23 0 114.456-51.227 114.456-114.43 0-44.236-25.068-82.599-61.797-101.652l-.487-.258c-15.643-8.022-33.377-12.549-52.171-12.549-2.808 0-5.615.115-8.423.315 17.218 4.412 32.89 12.721 45.983 23.923a116.4 116.4 0 0 1 15.097 15.643" clip-rule="evenodd"/><path d="M150.79 344.888c0 10.408 8.467 18.875 18.874 18.875h33.291c10.407 0 18.874-8.467 18.874-18.875v-39.136c0-10.408-8.467-18.875-18.874-18.875h-33.291c-10.407 0-18.874 8.467-18.874 18.875zm15-39.136c0-2.101 1.774-3.875 3.874-3.875h33.291c2.1 0 3.874 1.774 3.874 3.875v39.136c0 2.101-1.774 3.875-3.874 3.875h-33.291a3.88 3.88 0 0 1-3.874-3.875zM169.664 262.884h33.291c10.407 0 18.874-8.467 18.874-18.874v-39.137c0-10.407-8.467-18.874-18.874-18.874h-33.291c-10.407 0-18.874 8.467-18.874 18.874v39.137c0 10.407 8.467 18.874 18.874 18.874m-3.874-58.011a3.88 3.88 0 0 1 3.874-3.874h33.291c2.1 0 3.874 1.774 3.874 3.874v39.137a3.88 3.88 0 0 1-3.874 3.874h-33.291a3.88 3.88 0 0 1-3.874-3.874zM114.198 185.999H80.907c-10.407 0-18.874 8.467-18.874 18.874v39.137c0 10.407 8.467 18.874 18.874 18.874h33.291c10.407 0 18.874-8.467 18.874-18.874v-39.137c0-10.407-8.467-18.874-18.874-18.874m3.874 58.011a3.88 3.88 0 0 1-3.874 3.874H80.907a3.88 3.88 0 0 1-3.874-3.874v-39.137a3.88 3.88 0 0 1 3.874-3.874h33.291c2.1 0 3.874 1.774 3.874 3.874zM114.198 286.877H80.907c-10.407 0-18.874 8.467-18.874 18.875v39.136c0 10.408 8.467 18.875 18.874 18.875h33.291c10.407 0 18.874-8.467 18.874-18.875v-39.136c0-10.408-8.467-18.875-18.874-18.875m3.874 58.011c0 2.101-1.774 3.875-3.874 3.875H80.907a3.88 3.88 0 0 1-3.874-3.875v-39.136c0-2.101 1.774-3.875 3.874-3.875h33.291c2.1 0 3.874 1.774 3.874 3.875zM291.712 262.884c10.407 0 18.874-8.467 18.874-18.874v-39.137c0-10.407-8.467-18.874-18.874-18.874h-33.291c-10.407 0-18.874 8.467-18.874 18.874v39.137c0 10.407 8.467 18.874 18.874 18.874zm-37.165-18.874v-39.137c0-2.1 1.774-3.874 3.874-3.874h33.291c2.1 0 3.874 1.774 3.874 3.874v39.137c0 2.1-1.774 3.874-3.874 3.874h-33.291a3.88 3.88 0 0 1-3.874-3.874"/><path d="M441.916 284.014V154.171c5.04-2.687 8.48-7.986 8.48-14.077V59.042c0-8.796-7.169-15.951-15.98-15.951h-27.854V26.925C406.562 12.078 394.472 0 379.609 0c-14.847 0-26.925 12.078-26.925 26.925v16.166h-46.339V26.925C306.346 12.078 294.268 0 279.421 0s-26.924 12.078-26.924 26.925v16.166h-46.34V26.925C206.157 12.078 194.079 0 179.233 0s-26.925 12.078-26.925 26.925v16.166H105.97V26.925C105.97 12.078 93.892 0 79.045 0S52.12 12.078 52.12 26.925v16.166H24.238c-8.796 0-15.952 7.155-15.952 15.951v81.053c0 6.085 3.428 11.382 8.452 14.07v234.873c0 17.343 14.109 31.452 31.451 31.452h68.788c4.143 0 7.5-3.357 7.5-7.5s-3.357-7.5-7.5-7.5H48.189c-9.071 0-16.451-7.38-16.451-16.452V156.046h181.13c4.143 0 7.5-3.357 7.5-7.5s-3.357-7.5-7.5-7.5H24.238c-.498 0-.952-.453-.952-.951v-18.83h412.11v18.83c0 .507-.458.951-.98.951H248.508c-4.143 0-7.5 3.357-7.5 7.5s3.357 7.5 7.5 7.5h178.408v120.737c-13.974-5.59-29.212-8.671-45.158-8.671-67.23 0-121.927 54.711-121.927 121.959 0 5.222.331 10.369.971 15.42H151.987c-4.143 0-7.5 3.357-7.5 7.5s3.357 7.5 7.5 7.5h111.685C277.22 473.052 325.026 512 381.758 512c67.247 0 121.956-54.697 121.956-121.93 0-45.385-24.923-85.056-61.798-106.056M367.685 26.925c0-6.575 5.35-11.925 11.925-11.925 6.591 0 11.953 5.35 11.953 11.925v31.859c0 6.575-5.362 11.925-11.953 11.925-6.575 0-11.925-5.35-11.925-11.925zm-100.188 0c0-6.575 5.349-11.925 11.924-11.925s11.925 5.35 11.925 11.925v31.859c0 6.575-5.35 11.925-11.925 11.925s-11.924-5.35-11.924-11.925zm-100.188 0c0-6.575 5.35-11.925 11.925-11.925s11.924 5.35 11.924 11.925v31.859c0 6.575-5.349 11.925-11.924 11.925s-11.925-5.35-11.925-11.925zm-100.189 0C67.12 20.35 72.47 15 79.045 15S90.97 20.35 90.97 26.925v31.859c0 6.575-5.35 11.925-11.925 11.925S67.12 65.359 67.12 58.784zm-43.834 79.34V59.042c0-.498.454-.951.952-.951H52.12v.693c0 14.847 12.078 26.925 26.925 26.925s26.925-12.078 26.925-26.925v-.693h46.339v.693c0 14.847 12.078 26.925 26.925 26.925 14.846 0 26.924-12.078 26.924-26.925v-.693h46.34v.693c0 14.847 12.078 26.925 26.924 26.925s26.925-12.078 26.925-26.925v-.693h46.339v.693c0 14.847 12.078 26.925 26.925 26.925 14.862 0 26.953-12.078 26.953-26.925v-.693h27.854c.522 0 .98.444.98.951v47.223zM381.758 497c-58.96 0-106.927-47.969-106.927-106.93 0-58.978 47.967-106.959 106.927-106.959 58.976 0 106.956 47.981 106.956 106.959 0 58.961-47.981 106.93-106.956 106.93"/><path d="M372.963 388.815h-19.947v-19.918c0-4.143-3.357-7.5-7.5-7.5s-7.5 3.357-7.5 7.5v19.918H317.44c-4.143 0-7.5 3.357-7.5 7.5s3.357 7.5 7.5 7.5h20.576v20.606c0 4.143 3.357 7.5 7.5 7.5s7.5-3.357 7.5-7.5v-20.606h19.947c4.143 0 7.5-3.357 7.5-7.5s-3.358-7.5-7.5-7.5M434.33 346.814h-46.212c-4.143 0-7.5 3.357-7.5 7.5s3.357 7.5 7.5 7.5h34.722l-32.306 73.484a7.501 7.501 0 0 0 13.733 6.038l36.93-84.003a7.5 7.5 0 0 0-6.867-10.519"/></svg>