<svg xmlns="http://www.w3.org/2000/svg" width="512" height="512"><path fill="#eff6ff" fill-rule="evenodd" d="M416.59 446.329V190.115l-200.401-15.272L15.76 190.115v256.214c0 12.859 10.531 23.362 23.39 23.362h354.079c12.859-.001 23.361-10.503 23.361-23.362" clip-rule="evenodd"/><path fill="#9fd4fe" fill-rule="evenodd" d="M15.76 190.115h400.83c4.542 0 8.289-3.719 8.289-8.26l-.028-22.312-208.661-17.287L7.5 159.543v22.312c0 4.541 3.718 8.26 8.26 8.26" clip-rule="evenodd"/><path fill="#eb5468" fill-rule="evenodd" d="M7.5 159.543h417.351l.028-56.886c0-4.542-3.747-8.26-8.289-8.26H15.76c-4.542 0-8.26 3.719-8.26 8.26z" clip-rule="evenodd"/><path fill="#ffd772" fill-rule="evenodd" d="M88.37 94.397V71.29c0-10.446-8.544-18.962-18.99-18.962S50.419 60.844 50.419 71.29v40.478c0 10.418 8.516 18.962 18.961 18.962s18.99-8.544 18.99-18.962zM148.263 71.29v40.478c0 10.418 8.544 18.962 18.99 18.962 10.417 0 18.961-8.544 18.961-18.962V71.29c0-10.446-8.544-18.962-18.961-18.962-10.446.001-18.99 8.516-18.99 18.962M246.136 71.29v40.478c0 10.418 8.544 18.962 18.99 18.962 10.417 0 18.961-8.544 18.961-18.962V71.29c0-10.446-8.544-18.962-18.99-18.962-10.417.001-18.961 8.516-18.961 18.962" clip-rule="evenodd"/><path fill="#fbba58" fill-rule="evenodd" d="M284.087 71.29c0-10.446-8.544-18.962-18.99-18.962a18.76 18.76 0 0 0-9.992 2.867c5.365 3.35 8.941 9.339 8.941 16.095v40.478c0 6.756-3.577 12.717-8.941 16.095a18.8 18.8 0 0 0 10.02 2.867c10.417 0 18.961-8.544 18.961-18.962V71.29zM186.214 71.29c0-10.446-8.544-18.962-18.961-18.962a18.93 18.93 0 0 0-10.02 2.867c5.365 3.35 8.97 9.339 8.97 16.095v40.478c0 6.756-3.605 12.717-8.97 16.095a18.93 18.93 0 0 0 10.02 2.867c10.417 0 18.961-8.544 18.961-18.962V94.397zM88.37 71.29c0-10.446-8.544-18.962-18.99-18.962a18.93 18.93 0 0 0-10.02 2.867c5.393 3.35 8.97 9.339 8.97 16.095v40.478c0 6.756-3.577 12.717-8.97 16.095a18.93 18.93 0 0 0 10.02 2.867c10.446 0 18.99-8.544 18.99-18.962V94.397z" clip-rule="evenodd"/><path fill="#95d6a4" fill-rule="evenodd" d="m170.603 320.805-73.49-73.463c-7.068-7.068-18.621-7.068-25.689 0s-7.068 18.621 0 25.718l52.059 52.372c3.605 3.633 3.605 5.308 0 8.942l-52.059 52.401c-7.068 7.096-7.068 18.65 0 25.718s18.621 7.068 25.689 0L170.603 339c4.939-4.939 4.939-13.256 0-18.195" clip-rule="evenodd"/><path fill="#95d6a4" fill-rule="evenodd" d="m181.19 273.059 52.059 52.372c3.605 3.633 3.605 5.308 0 8.942l-52.059 52.401c-7.068 7.096-7.068 18.65 0 25.718s18.621 7.068 25.689 0L280.369 339c4.939-4.939 4.939-13.256 0-18.196l-73.49-73.463c-7.068-7.068-18.621-7.068-25.689 0-7.068 7.069-7.068 18.622 0 25.718M319.853 262.102v135.601c0 10.02 8.203 18.196 18.195 18.196s18.167-8.175 18.167-18.196V262.102c0-9.992-8.175-18.167-18.167-18.167s-18.195 8.175-18.195 18.167" clip-rule="evenodd"/><path fill="#e5384f" fill-rule="evenodd" d="M334.159 94.397h-50.072v6.5c7.238 15.073 13.88 31.338 19.841 48.626a523 523 0 0 1 3.321 10.02h23.333a92 92 0 0 1-2.214-8.005c-1.504-6.444-2.271-13.143-2.271-20.041a89.05 89.05 0 0 1 8.062-37.1" clip-rule="evenodd"/><path fill="#85beef" fill-rule="evenodd" d="M330.583 159.543H307.25c2.384 7.409 4.627 15.016 6.756 22.766.71 2.583 1.391 5.195 2.072 7.806h31.99a85 85 0 0 1-4.485-5.564c-5.563-7.522-9.992-15.924-13-25.008" clip-rule="evenodd"/><path fill="#d9eeff" fill-rule="evenodd" d="M348.068 190.115h-31.99c4.712 18.167 8.686 37.157 11.922 56.857 2.867-1.93 6.33-3.037 10.048-3.037 9.992 0 18.167 8.175 18.167 18.167v135.601c0 10.02-8.175 18.196-18.167 18.196-.823 0-1.618-.057-2.413-.17a716 716 0 0 1-5.62 53.962h63.214c12.859 0 23.361-10.503 23.361-23.362V220.687h-1.306a90.7 90.7 0 0 1-22.169-2.753c-17.74-4.542-33.352-14.421-45.047-27.819" clip-rule="evenodd"/><path fill="#78c2a4" fill-rule="evenodd" d="M356.215 262.102c0-9.992-8.175-18.167-18.167-18.167-3.718 0-7.182 1.107-10.048 3.037 6.046 37.186 9.31 76.841 9.31 118.058 0 17.174-.568 34.12-1.675 50.698.795.114 1.59.17 2.413.17 9.992 0 18.167-8.175 18.167-18.196z" clip-rule="evenodd"/><path fill="#95d6a4" fill-rule="evenodd" d="M415.285 220.687c49.135 0 89.215-40.053 89.215-89.189s-40.08-89.189-89.215-89.189c-49.107 0-89.187 40.053-89.187 89.189s40.08 89.189 89.187 89.189" clip-rule="evenodd"/><path fill="#78c2a4" fill-rule="evenodd" d="M456.33 73.363c12.149 15.272 19.444 34.574 19.444 55.608 0 47.036-36.447 85.584-82.658 88.962a90.7 90.7 0 0 0 22.169 2.753c49.277 0 89.215-39.911 89.215-89.189 0-34.461-19.558-64.351-48.17-79.226l-.397-.199c-12.177-6.245-26.001-9.765-40.648-9.765-2.214 0-4.4.085-6.557.227a88.8 88.8 0 0 1 35.822 18.65 88.4 88.4 0 0 1 11.78 12.179" clip-rule="evenodd"/><path d="M66.12 417.795c4.835 4.836 11.28 7.498 18.148 7.498s13.313-2.662 18.147-7.498l73.49-73.492c7.805-7.806 7.805-20.995 0-28.801l-.001-.002-73.489-73.463c-10.007-10.006-26.288-10.007-36.296.001-9.994 9.994-9.999 26.285-.016 36.309l51.248 51.556-51.241 51.579c-9.988 10.029-9.984 26.319.01 36.313m10.625-25.734 52.062-52.404c6.512-6.562 6.512-12.943-.004-19.512l-52.064-52.378c-4.164-4.181-4.168-10.965-.011-15.122 2.079-2.079 4.81-3.118 7.541-3.118s5.463 1.039 7.542 3.119l73.488 73.462c2.021 2.021 2.021 5.568 0 7.59l-73.49 73.492c-2.001 2.002-4.68 3.104-7.541 3.104s-5.54-1.102-7.541-3.104c-4.157-4.159-4.153-10.943.018-15.129"/><path d="M194.035 425.293c6.868 0 13.313-2.662 18.147-7.498l73.49-73.491c7.806-7.807 7.806-20.996 0-28.803l-73.489-73.464c-10.007-10.006-26.289-10.008-36.295.001-9.974 9.975-9.983 26.26-.016 36.309l51.247 51.556-51.252 51.59c-9.962 10.043-9.953 26.329.021 36.303 4.834 4.835 11.279 7.497 18.147 7.497m-7.524-33.232 52.062-52.404c6.512-6.562 6.512-12.943-.004-19.512l-52.053-52.367c-4.161-4.194-4.171-10.983-.021-15.133 2.079-2.079 4.81-3.118 7.541-3.118s5.463 1.039 7.542 3.119l73.489 73.463c2.021 2.021 2.021 5.567 0 7.589l-73.49 73.492c-2.001 2.002-4.68 3.104-7.541 3.104s-5.539-1.102-7.541-3.104c-4.15-4.151-4.141-10.939.016-15.129"/><path d="M512 131.499c0-53.32-43.39-96.69-96.72-96.69-37.23 0-69.62 21.16-85.76 52.09h-37.933V71.29c0-14.591-11.871-26.462-26.461-26.462h-.028c-14.591 0-26.461 11.871-26.461 26.462v15.609h-44.922V71.29c0-14.591-11.871-26.462-26.461-26.462-14.606 0-26.49 11.871-26.49 26.462v15.609H95.87V71.29c0-14.591-11.883-26.462-26.49-26.462-14.591 0-26.461 11.871-26.461 26.462v15.609H15.76c-8.69 0-15.76 7.07-15.76 15.76v79.2c0 5.977 3.345 11.187 8.26 13.858v250.611c0 17.018 13.857 30.862 30.89 30.862h354.079c17.017 0 30.861-13.845 30.861-30.862v-93.419c0-4.143-3.358-7.5-7.5-7.5s-7.5 3.357-7.5 7.5v93.419c0 8.746-7.115 15.862-15.861 15.862H39.15c-8.762 0-15.89-7.116-15.89-15.862V197.619h176.15c4.15 0 7.5-3.36 7.5-7.5 0-4.15-3.35-7.5-7.5-7.5H15.838c-.026 0-.051-.004-.077-.004l-.015.001c-.394-.009-.746-.372-.746-.757v-14.82h310.37a97 97 0 0 0 7.88 15.58H234.1c-4.14 0-7.5 3.35-7.5 7.5 0 4.14 3.36 7.5 7.5 7.5h110.71c16.318 17.401 38.998 28.76 64.28 30.366v90.237c0 4.143 3.358 7.5 7.5 7.5s7.5-3.357 7.5-7.5v-90.438c49.217-4.465 87.91-45.944 87.91-96.285M265.098 59.828h.028c6.32 0 11.461 5.142 11.461 11.462v40.479c0 6.32-5.142 11.462-11.49 11.462-6.32 0-11.461-5.142-11.461-11.462V71.29c0-6.32 5.142-11.462 11.462-11.462M155.763 71.29c0-6.32 5.154-11.462 11.49-11.462 6.32 0 11.461 5.142 11.461 11.462v40.479c0 6.32-5.142 11.462-11.461 11.462-6.335 0-11.49-5.142-11.49-11.462zM69.38 59.828c6.335 0 11.49 5.142 11.49 11.462v40.479c0 6.32-5.154 11.462-11.49 11.462-6.32 0-11.461-5.142-11.461-11.462V71.29c0-6.32 5.142-11.462 11.461-11.462M15 102.659c0-.4.36-.76.76-.76h27.159v9.87c0 14.591 11.871 26.462 26.461 26.462 14.606 0 26.49-11.871 26.49-26.462v-9.87h44.893v9.87c0 14.591 11.883 26.462 26.49 26.462 14.591 0 26.461-11.871 26.461-26.462v-9.87h44.922v9.87c0 14.591 11.871 26.462 26.49 26.462 14.591 0 26.461-11.871 26.461-26.462v-9.87h31.653c-3.02 9.33-4.64 19.28-4.64 29.6 0 7.031.757 13.883 2.189 20.486H15zm400.28 110.53c-17.88 0-34.44-5.78-47.91-15.57a82 82 0 0 1-15.75-15 81.8 81.8 0 0 1-9.88-15.58 80.6 80.6 0 0 1-5.52-15 81.4 81.4 0 0 1-2.62-20.54 81.5 81.5 0 0 1 5.54-29.6 82 82 0 0 1 7.74-15c14.59-22.32 39.8-37.09 68.4-37.09 45.06 0 81.72 36.64 81.72 81.69 0 45.04-36.66 81.69-81.72 81.69"/><path d="M416.165 128.198h-13.902v-13.903c0-4.143-3.358-7.5-7.5-7.5s-7.5 3.357-7.5 7.5v13.903h-14.385c-4.142 0-7.5 3.357-7.5 7.5s3.358 7.5 7.5 7.5h14.385v14.386c0 4.143 3.358 7.5 7.5 7.5s7.5-3.357 7.5-7.5v-14.386h13.902c4.142 0 7.5-3.357 7.5-7.5s-3.358-7.5-7.5-7.5M444.72 93.312h-13.171c-4.142 0-7.5 3.357-7.5 7.5s3.358 7.5 7.5 7.5h5.671v54.042c0 4.143 3.358 7.5 7.5 7.5s7.5-3.357 7.5-7.5v-61.542a7.5 7.5 0 0 0-7.5-7.5M312.353 262.103v135.601c0 14.168 11.527 25.695 25.695 25.695 14.153 0 25.667-11.527 25.667-25.695V262.103c0-14.153-11.514-25.668-25.667-25.668-14.168 0-25.695 11.514-25.695 25.668m36.362 0v135.601c0 5.897-4.785 10.695-10.667 10.695-5.897 0-10.695-4.798-10.695-10.695V262.103c0-5.883 4.798-10.668 10.695-10.668 5.882 0 10.667 4.785 10.667 10.668"/></svg>