<svg xmlns="http://www.w3.org/2000/svg" width="512" height="512"><path fill="#eff6ff" fill-rule="evenodd" d="M37.839 408.307h339.495c12.328 0 22.394-10.094 22.394-22.423V140.227H15.417v245.658c0 12.328 10.094 22.422 22.422 22.422" clip-rule="evenodd"/><path fill="#9fd4fe" fill-rule="evenodd" d="M15.417 140.227h384.311c4.298 0 7.832-3.45 7.945-7.748v-21.546H7.5v21.517c.085 4.299 3.619 7.777 7.917 7.777" clip-rule="evenodd"/><path fill="#eb5468" fill-rule="evenodd" d="M7.5 110.934h400.173V56.192c-.113-4.27-3.647-7.748-7.945-7.748h-33.195v16.654c0 10.01-8.2 18.209-18.209 18.209s-18.181-8.2-18.181-18.209V48.445h-57.454v16.654c0 10.01-8.2 18.209-18.181 18.209-10.009 0-18.209-8.2-18.209-18.209V48.445h-57.454v16.654c0 10.01-8.171 18.209-18.181 18.209-10.009 0-18.209-8.2-18.209-18.209V48.445H85.029v16.654c0 10.01-8.2 18.209-18.209 18.209s-18.181-8.2-18.181-18.209V48.445H15.417c-4.298 0-7.832 3.506-7.917 7.776v.17z" clip-rule="evenodd"/><path fill="#d9eeff" fill-rule="evenodd" d="M253.038 140.227c66.672 72.612 68.877 192.302 6.107 268.08h118.189c12.328 0 22.394-10.094 22.394-22.423V140.227z" clip-rule="evenodd"/><path fill="#e5384f" fill-rule="evenodd" d="M294.376 48.445c10.575 18.747 19.792 39.727 27.342 62.489h85.955V56.192c-.113-4.27-3.647-7.748-7.945-7.748h-33.195v16.654c0 10.01-8.2 18.209-18.209 18.209s-18.181-8.2-18.181-18.209V48.445z" clip-rule="evenodd"/><path fill="#85beef" fill-rule="evenodd" d="M321.717 110.934c3.167 9.472 6.023 19.256 8.596 29.293h69.415c4.298 0 7.832-3.45 7.945-7.748v-21.546z" clip-rule="evenodd"/><path fill="#95d6a4" fill-rule="evenodd" d="M69.648 255.28h51.743c7.295 0 13.289-5.966 13.289-13.261v-51.744c0-7.323-5.994-13.29-13.289-13.29H69.648c-7.295 0-13.289 5.966-13.289 13.29v51.744c0 7.295 5.994 13.261 13.289 13.261M69.648 368.043h51.743c7.295 0 13.289-5.966 13.289-13.261v-51.773c0-7.295-5.994-13.261-13.289-13.261H69.648c-7.295 0-13.289 5.966-13.289 13.261v51.773c0 7.295 5.994 13.261 13.289 13.261" clip-rule="evenodd"/><path fill="#ffd772" fill-rule="evenodd" d="M48.64 65.099c0 10.01 8.171 18.209 18.181 18.209 10.009 0 18.209-8.2 18.209-18.209V26.305c0-10.01-8.2-18.181-18.209-18.181S48.64 16.296 48.64 26.305v22.14zM142.455 65.099c0 10.01 8.2 18.209 18.209 18.209s18.181-8.2 18.181-18.209V26.305c0-10.01-8.171-18.181-18.181-18.181-10.009 0-18.209 8.172-18.209 18.181v22.14zM236.299 65.099c0 10.01 8.2 18.209 18.209 18.209 9.981 0 18.181-8.2 18.181-18.209V26.305c0-10.01-8.2-18.181-18.181-18.181-10.009 0-18.209 8.172-18.209 18.181v22.14zM330.143 26.305v38.794c0 10.01 8.171 18.209 18.181 18.209 10.009 0 18.209-8.2 18.209-18.209V26.305c0-10.01-8.2-18.181-18.209-18.181s-18.181 8.171-18.181 18.181" clip-rule="evenodd"/><path fill="#78c2a4" fill-rule="evenodd" d="M92.946 176.985c8.313 13.487 13.233 30.085 13.233 48.04 0 10.688-1.753 20.896-4.92 30.255h20.132c7.295 0 13.289-5.966 13.289-13.261v-51.744c0-7.323-5.994-13.29-13.289-13.29zM92.946 289.748c8.313 13.459 13.233 30.057 13.233 48.012 0 10.688-1.753 20.924-4.92 30.283h20.132c7.295 0 13.289-5.966 13.289-13.261v-51.773c0-7.295-5.994-13.261-13.289-13.261z" clip-rule="evenodd"/><path fill="#fbba58" fill-rule="evenodd" d="M161.004 26.305v38.794c0 6.786-3.761 12.696-9.274 15.834 2.658 1.499 5.683 2.375 8.935 2.375 10.009 0 18.181-8.2 18.181-18.209V26.305c0-10.01-8.171-18.181-18.181-18.181-3.252 0-6.305.848-8.935 2.347 5.513 3.138 9.274 9.076 9.274 15.834M67.16 26.305v38.794c0 6.786-3.732 12.696-9.274 15.834 2.658 1.499 5.712 2.375 8.935 2.375 10.009 0 18.209-8.2 18.209-18.209V26.305c0-10.01-8.2-18.181-18.209-18.181a18.15 18.15 0 0 0-8.935 2.347c5.541 3.138 9.274 9.076 9.274 15.834M254.819 26.305v38.794c0 6.786-3.732 12.696-9.246 15.834a18 18 0 0 0 8.935 2.375c9.981 0 18.181-8.2 18.181-18.209V26.305c0-10.01-8.2-18.181-18.181-18.181-3.252 0-6.305.848-8.935 2.347 5.514 3.138 9.246 9.076 9.246 15.834M348.663 26.305v38.794c0 6.786-3.761 12.696-9.274 15.834 2.658 1.499 5.712 2.375 8.935 2.375 10.009 0 18.209-8.2 18.209-18.209V26.305c0-10.01-8.2-18.181-18.209-18.181a18.15 18.15 0 0 0-8.935 2.347c5.514 3.138 9.274 9.076 9.274 15.834" clip-rule="evenodd"/><path fill="#95d6a4" fill-rule="evenodd" d="M181.248 255.28h51.771c7.295 0 13.261-5.966 13.261-13.261v-51.744c0-7.323-5.966-13.29-13.261-13.29h-51.771c-7.295 0-13.261 5.966-13.261 13.29v51.744c0 7.295 5.966 13.261 13.261 13.261M181.248 368.043h51.771c7.295 0 13.261-5.966 13.261-13.261v-51.773c0-7.295-5.966-13.261-13.261-13.261h-51.771c-7.295 0-13.261 5.966-13.261 13.261v51.773c0 7.295 5.966 13.261 13.261 13.261" clip-rule="evenodd"/><path fill="#78c2a4" fill-rule="evenodd" d="M204.575 176.985c8.313 13.487 13.204 30.085 13.204 48.04 0 10.688-1.753 20.896-4.92 30.255h20.16c7.295 0 13.261-5.966 13.261-13.261v-51.744c0-7.323-5.966-13.29-13.261-13.29zM204.575 289.748c8.313 13.459 13.204 30.057 13.204 48.012 0 10.688-1.753 20.924-4.92 30.283h20.16c7.295 0 13.261-5.966 13.261-13.261v-51.773c0-7.295-5.966-13.261-13.261-13.261z" clip-rule="evenodd"/><path fill="#95d6a4" fill-rule="evenodd" d="M292.849 255.28h51.771c7.295 0 13.261-5.966 13.261-13.261v-51.744c0-7.323-5.966-13.29-13.261-13.29h-51.771c-7.295 0-13.261 5.966-13.261 13.29v51.744c0 7.295 5.966 13.261 13.261 13.261" clip-rule="evenodd"/><path fill="#78c2a4" fill-rule="evenodd" d="M316.176 176.985c8.313 13.487 13.204 30.085 13.204 48.04 0 10.688-1.725 20.896-4.892 30.255h20.132c7.295 0 13.261-5.966 13.261-13.261v-51.744c0-7.323-5.966-13.29-13.261-13.29z" clip-rule="evenodd"/><path fill="#375e7d" fill-rule="evenodd" d="M239.24 345.055c-1.329-53.356 40.829-97.692 94.183-99.049 53.354-1.329 97.689 40.858 99.047 94.214 1.329 53.356-40.829 97.692-94.183 99.021s-97.69-40.83-99.047-94.186" clip-rule="evenodd"/><path fill="#9fd4fe" fill-rule="evenodd" d="M289.343 298.372c24.429-25.674 65.06-26.692 90.762-2.262 25.674 24.43 26.691 65.062 2.262 90.764s-65.06 26.72-90.762 2.262c-25.674-24.429-26.692-65.061-2.262-90.764" clip-rule="evenodd"/><path fill="#2b4d66" fill-rule="evenodd" d="M331.274 246.091a101 101 0 0 1 9.557 9.19c7.21 7.917 13.459 17.22 18.548 27.597 7.493 2.941 14.533 7.352 20.725 13.233 11.593 11.027 18.152 25.363 19.623 40.151a64 64 0 0 1 0 12.752c-1.357 13.714-7.125 27.088-17.361 37.861a63.4 63.4 0 0 1-17.163 12.865 142 142 0 0 1-3.393 8.567c-5.061 11.565-11.564 21.942-19.142 30.736 24.967-1.753 47.247-12.95 63.364-29.972 16.965-17.927 27.087-42.272 26.437-68.851-.707-28.021-13.261-52.932-32.742-70.095-12.158-10.716-27.002-18.407-43.345-21.97a97.7 97.7 0 0 0-22.959-2.149c-.707.028-1.442.056-2.149.085" clip-rule="evenodd"/><path fill="#85beef" fill-rule="evenodd" d="M359.379 282.877c9.246 18.86 14.618 41.254 14.618 65.316 0 18.436-3.167 35.91-8.793 51.546a63.4 63.4 0 0 0 17.163-12.865c10.235-10.773 16.004-24.147 17.361-37.861a64 64 0 0 0 0-12.752c-1.47-14.788-8.03-29.124-19.623-40.151-6.192-5.881-13.233-10.292-20.726-13.233" clip-rule="evenodd"/><path fill="#c38c66" fill-rule="evenodd" d="M465.325 432.002c-9.67-9.161-25.08-8.794-34.241.877-9.189 9.642-8.793 25.052.848 34.242l31.668 30.113c9.642 9.19 25.051 8.794 34.241-.877 9.189-9.642 8.793-25.052-.848-34.242z" clip-rule="evenodd"/><path fill="#b57f5f" fill-rule="evenodd" d="M465.325 432.002c-9.67-9.161-25.08-8.794-34.241.877-2.036 2.121-3.591 4.496-4.665 7.041 7.945-2.206 16.852-.311 23.242 5.768l31.639 30.113c7.549 7.154 9.444 18.125 5.542 27.173a23.93 23.93 0 0 0 10.999-6.616c9.189-9.642 8.793-25.052-.848-34.242z" clip-rule="evenodd"/><path d="M69.648 262.78h51.743c11.463 0 20.789-9.313 20.789-20.761v-51.744c0-11.464-9.326-20.789-20.789-20.789H69.648c-11.463 0-20.789 9.326-20.789 20.789v51.744c0 11.448 9.326 20.761 20.789 20.761m-5.789-72.505a5.796 5.796 0 0 1 5.789-5.79h51.743a5.796 5.796 0 0 1 5.789 5.79v51.744c0 3.123-2.651 5.762-5.789 5.762H69.648c-3.138 0-5.789-2.639-5.789-5.762zM48.859 354.781c0 11.448 9.326 20.761 20.789 20.761h51.743c11.463 0 20.789-9.313 20.789-20.761v-51.772c0-11.448-9.326-20.761-20.789-20.761H69.648c-11.463 0-20.789 9.313-20.789 20.761zm15-51.772c0-3.123 2.651-5.762 5.789-5.762h51.743c3.138 0 5.789 2.639 5.789 5.762v51.772c0 3.123-2.651 5.762-5.789 5.762H69.648c-3.138 0-5.789-2.639-5.789-5.762zM181.248 262.78h51.771c11.447 0 20.761-9.313 20.761-20.761v-51.744c0-11.464-9.313-20.789-20.761-20.789h-51.771c-11.447 0-20.761 9.326-20.761 20.789v51.744c.001 11.448 9.314 20.761 20.761 20.761m-5.761-72.505c0-3.192 2.584-5.79 5.761-5.79h51.771c3.177 0 5.761 2.598 5.761 5.79v51.744a5.77 5.77 0 0 1-5.761 5.762h-51.771a5.77 5.77 0 0 1-5.761-5.762zM385.272 290.674c-28.652-27.232-74.122-26.099-101.362 2.528l-.002.003c-27.234 28.653-26.099 74.124 2.528 101.365 13.438 12.787 30.91 19.766 49.38 19.766q.916 0 1.835-.023c19.145-.478 36.956-8.387 50.152-22.272 27.233-28.652 26.099-74.124-2.531-101.367m-8.341 91.033c-10.435 10.978-24.518 17.233-39.655 17.611-15.159.396-29.523-5.168-40.501-15.615-22.639-21.542-23.535-57.504-1.996-80.165 21.541-22.635 57.499-23.532 80.156-1.995 22.639 21.542 23.534 57.504 1.996 80.164"/><path d="m502.161 456.681-31.678-30.123c-6.131-5.808-14.193-8.878-22.657-8.677-5.919.148-11.535 1.893-16.364 5.008l-15.058-14.319c15.275-18.636 24.208-42.615 23.562-68.541-.734-28.881-13.212-54.75-32.74-73.152V145.776c4.734-2.637 7.946-7.681 7.946-13.466V56.39c0-8.516-6.929-15.445-15.445-15.445h-25.695v-14.64c0-14.161-11.533-25.681-25.709-25.681-14.16 0-25.68 11.52-25.68 25.681v14.64h-42.455v-14.64c0-14.161-11.52-25.681-25.68-25.681-14.176 0-25.709 11.52-25.709 25.681v14.64h-42.455v-14.64c0-14.161-11.52-25.681-25.68-25.681-14.176 0-25.709 11.52-25.709 25.681v14.64H92.529v-14.64C92.529 12.144 80.996.624 66.82.624c-14.16 0-25.68 11.52-25.68 25.681v14.64H15.417C6.916 40.945 0 47.874 0 56.39v75.92c0 5.778 3.2 10.818 7.917 13.457v240.118c0 16.499 13.423 29.922 29.922 29.922h64.834a7.5 7.5 0 0 0 0-15H37.839c-8.228 0-14.922-6.694-14.922-14.922V147.727h167.097a7.5 7.5 0 0 0 0-15H15.417a.445.445 0 0 1-.417-.417v-13.877h385.174v13.877c0 .197-.19.417-.446.417H224.537a7.5 7.5 0 0 0 0 15h167.691V255.12a103.8 103.8 0 0 0-26.87-12.363c.009-.246.023-.491.023-.737v-51.744c0-11.464-9.313-20.789-20.761-20.789h-51.771c-11.447 0-20.761 9.326-20.761 20.789v51.744c0 5.503 2.167 10.499 5.673 14.218a105 105 0 0 0-30.49 31.716c-3.722-3.526-8.733-5.705-14.252-5.705h-51.771c-11.447 0-20.761 9.313-20.761 20.761v51.772c0 11.448 9.313 20.761 20.761 20.761h51.771c1.316 0 2.622-.136 3.904-.385a103.7 103.7 0 0 0 12.611 25.65H137.196a7.5 7.5 0 0 0 0 15h124.653c18.935 19.137 45.179 30.964 73.995 30.964.871 0 1.753-.011 2.629-.032 26.091-.65 49.728-10.899 67.619-27.276l15.036 14.298c-2.868 4.981-4.328 10.678-4.18 16.596.213 8.485 3.696 16.367 9.815 22.198l31.661 30.108c5.914 5.638 13.635 8.714 21.819 8.714q.404 0 .81-.01c8.499-.21 16.392-3.705 22.216-9.835 12.06-12.655 11.566-32.772-1.108-44.852M337.643 26.305c0-5.889 4.791-10.681 10.681-10.681 5.905 0 10.709 4.792 10.709 10.681v38.794c0 5.905-4.804 10.71-10.709 10.71-5.889 0-10.681-4.805-10.681-10.71zm-93.844 0c0-5.889 4.804-10.681 10.709-10.681 5.889 0 10.681 4.792 10.681 10.681v38.794c0 5.905-4.791 10.71-10.681 10.71-5.905 0-10.709-4.805-10.709-10.71zm-93.844 0c0-5.889 4.804-10.681 10.709-10.681 5.889 0 10.681 4.792 10.681 10.681v38.794c0 5.905-4.791 10.71-10.681 10.71-5.905 0-10.709-4.805-10.709-10.71zm-93.815 0c0-5.889 4.791-10.681 10.681-10.681 5.905 0 10.709 4.792 10.709 10.681v38.794c0 5.905-4.804 10.71-10.709 10.71-5.889 0-10.681-4.805-10.681-10.71zM15 103.434V56.39c0-.255.22-.445.417-.445H41.14v9.154c0 14.176 11.52 25.709 25.68 25.709 14.176 0 25.709-11.533 25.709-25.709v-9.154h42.426v9.154c0 14.176 11.533 25.709 25.709 25.709 14.16 0 25.68-11.533 25.68-25.709v-9.154h42.455v9.154c0 14.176 11.533 25.709 25.709 25.709 14.16 0 25.68-11.533 25.68-25.709v-9.154h42.455v9.154c0 14.176 11.52 25.709 25.68 25.709 14.176 0 25.709-11.533 25.709-25.709v-9.154h25.695c.242 0 .446.204.446.445v47.044zm277.849 144.347a5.77 5.77 0 0 1-5.761-5.762v-51.744c0-3.192 2.584-5.79 5.761-5.79h51.771c3.177 0 5.761 2.598 5.761 5.79v49.226a104.5 104.5 0 0 0-17.149-.993c-14.389.366-28.032 3.652-40.377 9.272h-.006zM233.02 360.543h-51.771a5.77 5.77 0 0 1-5.761-5.762v-51.772a5.77 5.77 0 0 1 5.761-5.762h51.771a5.77 5.77 0 0 1 5.761 5.762q.001.784.156 1.524c-4.97 12.589-7.551 26.351-7.194 40.708v.004c.132 5.198.648 10.298 1.514 15.275-.079.004-.158.023-.237.023m105.08 71.2q-1.127.029-2.25.028c-48.122 0-87.881-38.53-89.112-86.907v.004c-1.224-49.13 37.749-90.116 86.872-91.365a89 89 0 0 1 20.823 1.922q.339.09.681.149c39.074 8.646 68.797 43.078 69.859 84.832.576 23.115-7.744 44.421-21.829 60.634a7.46 7.46 0 0 0-5.267 5.561c-15.521 15.061-36.508 24.563-59.777 25.142m154.304 59.448c-3.069 3.229-7.232 5.069-11.722 5.181-4.471.082-8.703-1.512-11.914-4.572l-31.662-30.109c-3.217-3.065-5.05-7.223-5.162-11.709-.112-4.483 1.51-8.719 4.569-11.928l.016-.017c3.046-3.216 7.192-5.049 11.673-5.161q.218-.006.437-.006c4.325 0 8.404 1.616 11.519 4.566l31.661 30.108c6.68 6.368 6.946 16.973.585 23.647"/></svg>