<svg xmlns="http://www.w3.org/2000/svg" width="512" height="512"><path fill="#eff6ff" fill-rule="evenodd" d="M443.366 449.253c13.606 0 24.746-11.112 24.746-24.718V143.393H43.889v281.141c0 13.606 11.14 24.718 24.746 24.718z" clip-rule="evenodd"/><path fill="#9fd4fe" fill-rule="evenodd" d="M43.889 153.371h424.308c4.79 0 8.73-3.94 8.73-8.731l.028-23.613L256 102.716 35.073 121.028v23.613c0 4.791 3.94 8.731 8.759 8.731h.057z" clip-rule="evenodd"/><path fill="#eb5468" fill-rule="evenodd" d="M35.073 121.028h441.854V60.792c0-4.819-3.94-8.759-8.73-8.759H43.832c-4.819 0-8.759 3.94-8.759 8.759z" clip-rule="evenodd"/><path fill="#ffd772" fill-rule="evenodd" d="M120.677 52.032V27.569c0-11.027-9.042-20.069-20.097-20.069s-20.097 9.043-20.097 20.069v42.86c0 11.055 9.042 20.069 20.097 20.069s20.097-9.014 20.097-20.069zM184.115 27.569v42.86c0 11.055 9.042 20.069 20.069 20.069 11.055 0 20.097-9.014 20.097-20.069v-42.86c0-11.027-9.042-20.069-20.097-20.069-11.027 0-20.069 9.043-20.069 20.069M287.719 27.569v42.86c0 11.055 9.042 20.069 20.097 20.069s20.069-9.014 20.069-20.069v-42.86c0-11.027-9.014-20.069-20.069-20.069s-20.097 9.043-20.097 20.069M391.323 27.569v42.86c0 11.055 9.042 20.069 20.097 20.069s20.097-9.014 20.097-20.069v-42.86c0-11.027-9.042-20.069-20.097-20.069s-20.097 9.043-20.097 20.069" clip-rule="evenodd"/><path fill="#e5384f" fill-rule="evenodd" d="M431.517 70.429c0 11.055-9.042 20.069-20.097 20.069s-20.097-9.014-20.097-20.069V52.032H349.57c9.694 18.113 15.052 38.098 15.052 59.103 0 3.317-.113 6.605-.397 9.893h112.703V60.792c0-4.819-3.94-8.759-8.73-8.759h-36.679v18.396z" clip-rule="evenodd"/><path fill="#85beef" fill-rule="evenodd" d="M476.927 121.028H364.224c-.595 7.625-1.928 15.08-3.912 22.365-.935 3.373-1.984 6.718-3.203 9.978h111.087c4.79 0 8.73-3.94 8.73-8.731z" clip-rule="evenodd"/><path fill="#faf0b0" fill-rule="evenodd" d="M227.484 232.118c7.682 13.882 16.496 15.874 26.53 15.874s25.5-2.492 30.53-15.874v-13.181c0-15.704-12.841-28.573-28.544-28.573s-28.573 12.869-28.544 28.573z" clip-rule="evenodd"/><path fill="#d9eeff" fill-rule="evenodd" d="M468.111 153.371H308.156c8.362 33.534 13.379 70.044 14.315 108.34 9.184 13.153 14.598 29.084 14.598 46.233v36.964c0 27.354 13.521 53.66 43.284 81.355v22.989h63.013c13.606 0 24.746-11.112 24.746-24.718z" clip-rule="evenodd"/><path fill="#ffd772" fill-rule="evenodd" d="M337.069 344.909v-36.964c0-34.526-21.911-64.205-52.525-75.827-8.872-3.373-18.51-5.216-28.544-5.216s-19.644 1.843-28.516 5.216c-30.613 11.594-52.525 41.273-52.525 75.827v36.964c0 27.354-13.549 53.66-43.312 81.355l128.35 15.789 120.356-15.789c-29.763-27.695-43.284-54.001-43.284-81.355M285.196 465.864 256 449.253l-29.196 16.611v9.439c0 16.044 13.152 29.197 29.196 29.197s29.196-13.153 29.196-29.197z" clip-rule="evenodd"/><path fill="#fbba58" fill-rule="evenodd" d="M298.915 307.406v36.936c0 27.354 13.521 53.66 43.284 81.355v.567h38.153c-29.763-27.695-43.284-54-43.284-81.355v-36.964c0-34.526-21.911-64.205-52.525-75.827-8.872-3.373-18.51-5.216-28.544-5.216-6.151 0-12.16.68-17.915 2.013a84 84 0 0 1 8.334 2.636c30.586 11.622 52.497 41.301 52.497 75.855M285.196 475.303v-9.439h-21.685v9.439c0 12.217-7.625 22.762-18.368 27.099 3.373 1.332 7.03 2.098 10.856 2.098 16.045 0 29.197-13.153 29.197-29.197" clip-rule="evenodd"/><path fill="#ffd772" fill-rule="evenodd" d="M240.892 198.868c15.675 0 28.544 12.841 28.544 28.545v.595a80 80 0 0 1 15.108 4.11v-13.181c0-15.704-12.841-28.573-28.544-28.573-8.192 0-15.619 3.515-20.834 9.099a27.2 27.2 0 0 1 5.726-.595" clip-rule="evenodd"/><path fill="#fbba58" fill-rule="evenodd" d="M120.677 27.569c0-11.027-9.042-20.069-20.097-20.069-3.628 0-7.03.964-10.006 2.665 6.038 3.487 10.091 10.006 10.091 17.405v42.86c0 7.398-4.053 13.918-10.091 17.405A20.07 20.07 0 0 0 100.58 90.5c11.055 0 20.097-9.014 20.097-20.069V52.032zM194.206 10.165c6.009 3.487 10.091 10.006 10.091 17.405v42.86c0 7.398-4.082 13.918-10.091 17.405a19.9 19.9 0 0 0 9.978 2.665c11.055 0 20.097-9.014 20.097-20.069V27.569c0-11.027-9.042-20.069-20.097-20.069-3.628 0-7.03.964-9.978 2.665M297.81 10.165c6.009 3.487 10.091 10.006 10.091 17.405v42.86c0 7.398-4.082 13.918-10.091 17.405a19.9 19.9 0 0 0 10.006 2.665c11.055 0 20.069-9.014 20.069-20.069V27.569c0-11.027-9.014-20.069-20.069-20.069-3.657 0-7.058.964-10.006 2.665M401.414 10.165c6.009 3.487 10.091 10.006 10.091 17.405v42.86c0 7.398-4.082 13.918-10.091 17.405A20 20 0 0 0 411.42 90.5c11.055 0 20.097-9.014 20.097-20.069V27.569c0-11.027-9.042-20.069-20.097-20.069-3.628 0-7.058.964-10.006 2.665" clip-rule="evenodd"/><path fill="#faf0b0" fill-rule="evenodd" d="M131.647 426.264v29.395c0 5.613 4.592 10.205 10.204 10.205h228.297c5.612 0 10.205-4.592 10.205-10.205v-29.395z" clip-rule="evenodd"/><path fill="#ffd772" fill-rule="evenodd" d="M342.199 431.281v24.378c0 5.613-4.592 10.205-10.204 10.205h38.153c5.612 0 10.205-4.592 10.205-10.205v-29.395H342.2z" clip-rule="evenodd"/><path d="M484.427 60.792c0-8.966-7.281-16.26-16.23-16.26h-29.18V27.569C439.017 12.367 426.637 0 411.419 0s-27.597 12.367-27.597 27.569v16.963h-48.438V27.569C335.385 12.367 323.018 0 307.816 0c-15.217 0-27.597 12.367-27.597 27.569v16.963h-48.438V27.569C231.781 12.367 219.401 0 204.184 0c-15.202 0-27.569 12.367-27.569 27.569v16.963h-48.438V27.569C128.177 12.367 115.797 0 100.58 0S72.983 12.367 72.983 27.569v16.963H43.832c-8.965 0-16.259 7.294-16.259 16.26v83.849c0 6.271 3.588 11.712 8.816 14.413v265.48c0 17.766 14.465 32.219 32.246 32.219h55.568c.57 9.252 8.256 16.61 17.649 16.61h77.452v1.939C219.304 495.538 235.766 512 256 512s36.696-16.462 36.696-36.697v-1.939h77.452c9.394 0 17.08-7.359 17.65-16.61h55.568c17.78 0 32.246-14.453 32.246-32.219V159.061c5.227-2.699 8.815-8.144 8.815-14.42zm-85.604-33.223c0-6.931 5.65-12.569 12.597-12.569s12.598 5.639 12.598 12.569v42.86c0 6.931-5.651 12.569-12.598 12.569s-12.597-5.639-12.597-12.569zm-103.604 0c0-6.931 5.65-12.569 12.597-12.569 6.931 0 12.569 5.639 12.569 12.569v42.86c0 6.931-5.639 12.569-12.569 12.569-6.946 0-12.597-5.639-12.597-12.569zm-103.604 0c0-6.931 5.638-12.569 12.569-12.569 6.946 0 12.597 5.639 12.597 12.569v42.86c0 6.931-5.651 12.569-12.597 12.569-6.931 0-12.569-5.639-12.569-12.569zm-103.632 0c0-6.93 5.651-12.569 12.597-12.569s12.597 5.639 12.597 12.569v42.86c0 6.931-5.651 12.569-12.597 12.569S87.983 77.36 87.983 70.43zM43.832 59.532h29.151V70.43c0 15.202 12.38 27.569 27.597 27.569s27.597-12.367 27.597-27.569V59.532h48.438V70.43c0 15.202 12.367 27.569 27.569 27.569 15.217 0 27.597-12.367 27.597-27.569V59.532h48.438V70.43c0 15.202 12.38 27.569 27.597 27.569 15.202 0 27.569-12.367 27.569-27.569V59.532h48.438V70.43c0 15.202 12.38 27.569 27.597 27.569s27.598-12.367 27.598-27.569V59.532h29.18c.655 0 1.23.589 1.23 1.26v52.736H42.573V60.792c0-.683.576-1.26 1.259-1.26m233.864 415.771c0 11.964-9.732 21.697-21.696 21.697s-21.696-9.733-21.696-21.697v-1.939h43.392zm95.157-19.644c0 1.466-1.239 2.704-2.705 2.704H141.852c-1.466 0-2.705-1.238-2.705-2.704v-21.896h98.626c4.142 0 7.5-3.357 7.5-7.5s-3.358-7.5-7.5-7.5h-88.131c22.052-24.261 32.817-48.549 32.817-73.854v-36.964c0-40.552 32.99-73.543 73.541-73.543 40.566 0 73.569 32.991 73.569 73.543v36.964c0 25.319 10.756 49.606 32.79 73.854h-89.975c-4.143 0-7.5 3.357-7.5 7.5s3.357 7.5 7.5 7.5h100.469zM234.956 218.923c-.01-5.582 2.181-10.856 6.169-14.853 3.996-4.003 9.278-6.207 14.875-6.207 11.604 0 21.044 9.453 21.044 21.073v2.998A88.5 88.5 0 0 0 256 219.402a88.5 88.5 0 0 0-21.038 2.532zm208.41 222.83h-55.513v-15.489c0-2.049-.881-4.099-2.391-5.49-27.899-25.96-40.894-50.066-40.894-75.864v-36.964c0-35.998-21.601-67.044-52.524-80.872v-8.137c0-19.891-16.17-36.073-36.044-36.073-9.608 0-18.661 3.769-25.491 10.61-6.823 6.835-10.57 15.883-10.553 25.479l.017 8.119c-30.916 13.827-52.514 44.874-52.514 80.875v36.964c0 25.779-13.003 49.886-40.921 75.864a7.58 7.58 0 0 0-2.391 5.49v15.489H68.634c-9.509 0-17.246-7.725-17.246-17.219V160.871h185.478c4.142 0 7.5-3.357 7.5-7.5s-3.358-7.5-7.5-7.5H43.832c-.671 0-1.259-.575-1.259-1.23v-16.112h426.854v16.112c0 .644-.587 1.23-1.23 1.23h-196.72c-4.143 0-7.5 3.357-7.5 7.5s3.357 7.5 7.5 7.5h189.135v263.663c0 9.494-7.737 17.219-17.246 17.219"/><path d="M355.057 186.801a7.501 7.501 0 0 0-4.797 14.213c40.661 13.726 62.569 57.986 48.838 98.665a7.5 7.5 0 0 0 7.107 9.901 7.5 7.5 0 0 0 7.105-5.104c16.377-48.515-9.755-101.304-58.253-117.675"/><path d="M344.992 216.563a7.501 7.501 0 0 0-4.791 14.215c11.768 3.966 21.276 12.269 26.776 23.379s6.338 23.713 2.358 35.484a7.5 7.5 0 0 0 7.106 9.903 7.5 7.5 0 0 0 7.104-5.101c5.262-15.567 4.151-32.238-3.126-46.941s-19.86-25.691-35.427-30.939M161.767 201.014a7.5 7.5 0 0 0 4.709-9.504 7.5 7.5 0 0 0-9.504-4.709c-23.515 7.933-42.525 24.541-53.528 46.766-11 22.219-12.689 47.402-4.753 70.909a7.5 7.5 0 0 0 7.105 5.104 7.5 7.5 0 0 0 7.107-9.901c-6.654-19.712-5.239-40.828 3.984-59.456 9.224-18.633 25.163-32.558 44.88-39.209"/><path d="M167.008 216.563c-15.568 5.247-28.15 16.234-35.429 30.939-7.277 14.703-8.388 31.374-3.126 46.941a7.503 7.503 0 0 0 9.506 4.705 7.5 7.5 0 0 0 4.704-9.507c-3.979-11.771-3.141-24.373 2.359-35.484 5.5-11.11 15.009-19.413 26.776-23.379a7.5 7.5 0 0 0-4.79-14.215"/></svg>