<svg xmlns="http://www.w3.org/2000/svg" width="512" height="512"><path fill="#c38c66" fill-rule="evenodd" d="M353.75 441.883c-17.886-14.485-45.637-4.309-37.672 26.504l29.48 29.48c8.816 8.844 23.244 8.844 32.087 0 8.816-8.816 8.816-23.244 0-32.088z" clip-rule="evenodd"/><path fill="#b57f5f" fill-rule="evenodd" d="M353.75 441.883a144 144 0 0 1-12.33 10.828l14.371 14.372c7.625 7.625 8.645 19.446 3.118 28.205a23.4 23.4 0 0 1-4.138 5.698 28 28 0 0 1-1.984 1.757c8.249 3.43 18.17 1.814 24.859-4.876 8.816-8.816 8.816-23.244 0-32.088z" clip-rule="evenodd"/><path fill="#c38c66" fill-rule="evenodd" d="M195.921 468.387c-4.025-18.879-12.614-32.91-37.672-26.476l-23.867 23.868c-8.844 8.844-8.844 23.272 0 32.088 8.816 8.844 23.244 8.844 32.059 0z" clip-rule="evenodd"/><path fill="#b57f5f" fill-rule="evenodd" d="M160.716 477.769c-8.844 8.844-23.272 8.844-32.087 0l-.425-.425c-1.446 7.2.624 14.967 6.179 20.523 8.816 8.844 23.244 8.844 32.059 0l29.48-29.48c-1.531-7.172-3.713-13.663-7.228-18.595l-9.269 9.269z" clip-rule="evenodd"/><path fill="#eff6ff" fill-rule="evenodd" d="M452.082 441.854c14.23 0 25.88-11.65 25.88-25.909V160.118l-221.976-11.254-221.948 11.254v255.828c0 14.258 11.65 25.909 25.88 25.909z" clip-rule="evenodd"/><path fill="#9fd4fe" fill-rule="evenodd" d="m487.117 126.244-228.042-11.65-234.193 11.65v24.718c0 5.017 4.11 9.156 9.156 9.156h443.923c5.046 0 9.156-4.139 9.156-9.156z" clip-rule="evenodd"/><path fill="#eb5468" fill-rule="evenodd" d="M24.883 126.244h462.235V63.258c0-5.046-4.11-9.184-9.156-9.184H34.039c-5.046 0-9.156 4.139-9.156 9.184z" clip-rule="evenodd"/><path fill="#ffd772" fill-rule="evenodd" d="M114.427 73.321V28.505c0-11.565-9.439-21.005-21.004-21.005S72.39 16.939 72.39 28.505v44.816c0 11.565 9.467 21.005 21.033 21.005s21.004-9.44 21.004-21.005M180.784 28.505v44.816c0 11.565 9.467 21.005 21.033 21.005 11.537 0 21.004-9.439 21.004-21.005V28.505c0-11.565-9.467-21.005-21.004-21.005-11.565 0-21.033 9.439-21.033 21.005M289.179 28.505v44.816c0 11.565 9.467 21.005 21.004 21.005 11.565 0 21.033-9.439 21.033-21.005V28.505c0-11.565-9.467-21.005-21.033-21.005-11.537 0-21.004 9.439-21.004 21.005M397.573 28.505v44.816c0 11.565 9.439 21.005 21.004 21.005s21.033-9.439 21.033-21.005V28.505c0-11.565-9.467-21.005-21.033-21.005-11.565 0-21.004 9.439-21.004 21.005" clip-rule="evenodd"/><path fill="#e5384f" fill-rule="evenodd" d="M439.61 73.321c0 11.565-9.467 21.005-21.033 21.005-11.565 0-21.004-9.439-21.004-21.005V54.073h-43.057c10.318 20.466 19.247 42.832 26.56 66.756.539 1.786 1.105 3.6 1.616 5.414h104.426V63.258c0-5.046-4.11-9.184-9.156-9.184H439.61z" clip-rule="evenodd"/><path fill="#85beef" fill-rule="evenodd" d="M487.117 126.244H382.691a507 507 0 0 1 7.653 29.424c.34 1.474.652 2.948.992 4.45h86.625c5.046 0 9.156-4.139 9.156-9.156z" clip-rule="evenodd"/><path fill="#d9eeff" fill-rule="evenodd" d="M477.962 160.118H328.551a524 524 0 0 1 8.532 42.803l9.411-9.439 9.694 49.153 49.152 9.695-25.993 25.994c10.091 19.276 15.817 41.216 15.817 64.488 0 38.75-15.817 73.814-41.385 99.043h98.303c14.23 0 25.88-11.65 25.88-25.909z" clip-rule="evenodd"/><path fill="#9fd4fe" fill-rule="evenodd" d="M255.986 203.658c-76.845 0-139.149 62.306-139.149 139.153 0 38.75 15.817 73.814 41.385 99.043 0 0 .028.028.028.057a140.1 140.1 0 0 0 37.672 26.476c18.198 8.731 38.579 13.606 60.065 13.606 21.514 0 41.895-4.876 60.093-13.606a139.6 139.6 0 0 0 37.672-26.504l.028-.028c25.568-25.228 41.385-60.293 41.385-99.043 0-23.273-5.726-45.213-15.817-64.488l-58.846-58.847c-19.276-10.121-41.216-15.819-64.516-15.819" clip-rule="evenodd"/><path fill="#ffd772" fill-rule="evenodd" d="M291.616 307.208c9.099 9.128 14.74 21.713 14.74 35.603 0 27.808-22.535 50.372-50.342 50.372-27.836 0-50.37-22.564-50.37-50.372s22.535-50.343 50.37-50.343c13.89 0 26.475 5.641 35.602 14.74m-35.602-59.159c-52.355 0-94.788 42.435-94.788 94.763 0 52.356 42.434 94.763 94.788 94.763 52.326 0 94.76-42.406 94.76-94.763 0-17.858-4.961-34.554-13.549-48.813l-27.042-5.358-5.357-27.043c-14.258-8.589-30.954-13.549-48.812-13.549" clip-rule="evenodd"/><path fill="#eb5468" fill-rule="evenodd" d="M291.616 307.208c-9.127-9.099-21.713-14.74-35.602-14.74-27.836 0-50.37 22.536-50.37 50.343s22.535 50.372 50.37 50.372c27.807 0 50.342-22.564 50.342-50.372 0-13.89-5.641-26.475-14.74-35.603M304.826 261.598l5.357 27.043 34.015-18.142 11.99-27.864-9.694-49.153-25.993 25.993-20.041 20.041z" clip-rule="evenodd"/><path fill="#e5384f" fill-rule="evenodd" d="m356.188 242.635-46.005 46.006 27.042 5.358 22.081 4.337 20.041-20.013 25.993-25.994zM291.616 307.208a50.3 50.3 0 0 0-20.296-12.359 383 383 0 0 1 2.438 30.217c.227 5.216.312 10.488.312 15.817 0 17.206-1.105 33.959-3.26 50.088 20.579-6.321 35.546-25.484 35.546-48.161 0-13.889-5.641-26.474-14.74-35.602" clip-rule="evenodd"/><path fill="#fbba58" fill-rule="evenodd" d="M291.616 307.208c9.099 9.128 14.74 21.713 14.74 35.603 0 22.677-14.967 41.84-35.546 48.161-2.154 16.214-5.329 31.776-9.411 46.46 49.832-2.806 89.374-44.079 89.374-94.621 0-17.858-4.961-34.554-13.549-48.813l-27.042-5.358-5.357-27.043a94.4 94.4 0 0 0-42.349-13.323c3.883 14.74 6.888 30.331 8.844 46.573a50.35 50.35 0 0 1 20.296 12.361" clip-rule="evenodd"/><path fill="#85beef" fill-rule="evenodd" d="M337.225 293.999c8.589 14.258 13.549 30.954 13.549 48.813 0 50.542-39.542 91.814-89.374 94.621-4.394 15.817-9.808 30.614-16.157 44.164 3.572.255 7.143.397 10.743.397 21.514 0 41.895-4.876 60.093-13.606a139.6 139.6 0 0 0 37.672-26.504l.028-.028c25.568-25.228 41.385-60.293 41.385-99.043 0-23.273-5.726-45.213-15.817-64.488l-20.04 20.013zM304.826 261.598l-4.365-22.082 20.04-20.041c-19.275-10.12-41.215-15.817-64.515-15.817-3.033 0-6.038.085-9.014.283 6.094 13.635 11.31 28.517 15.505 44.334a94.4 94.4 0 0 1 42.349 13.323" clip-rule="evenodd"/><path fill="#fbba58" fill-rule="evenodd" d="M114.427 28.505c0-11.565-9.439-21.005-21.004-21.005-3.628 0-7.03.907-10.006 2.551 6.548 3.572 11.027 10.517 11.027 18.454v44.816c0 7.937-4.479 14.91-11.027 18.482a20.9 20.9 0 0 0 10.006 2.523c11.565 0 21.004-9.439 21.004-21.005zM191.811 10.051c6.548 3.572 10.998 10.517 10.998 18.454v44.816c0 7.937-4.45 14.91-10.998 18.482a20.9 20.9 0 0 0 10.006 2.523c11.537 0 21.004-9.439 21.004-21.005V28.505c0-11.565-9.467-21.005-21.004-21.005-3.628 0-7.03.907-10.006 2.551M300.205 10.051c6.548 3.572 10.998 10.517 10.998 18.454v44.816c0 7.937-4.45 14.91-10.998 18.482a20.85 20.85 0 0 0 9.978 2.523c11.565 0 21.033-9.439 21.033-21.005V28.505c0-11.565-9.467-21.005-21.033-21.005-3.6 0-7.001.907-9.978 2.551M419.598 28.505v44.816c0 7.937-4.479 14.91-11.027 18.482a20.96 20.96 0 0 0 10.006 2.523c11.565 0 21.033-9.439 21.033-21.005V28.505c0-11.565-9.467-21.005-21.033-21.005-3.6 0-7.03.907-10.006 2.551 6.548 3.572 11.027 10.517 11.027 18.454" clip-rule="evenodd"/><path d="M477.962 46.573h-30.853V28.505C447.109 12.787 434.31 0 418.577 0c-15.717 0-28.504 12.787-28.504 28.505v18.068h-51.357V28.505c0-15.718-12.8-28.505-28.533-28.505-15.717 0-28.504 12.787-28.504 28.505v18.068h-51.357V28.505C230.321 12.787 217.534 0 201.817 0c-15.733 0-28.533 12.787-28.533 28.505v18.068h-51.357V28.505C121.927 12.787 109.14 0 93.423 0 77.69 0 64.891 12.787 64.891 28.505v18.068H34.038c-9.184 0-16.655 7.484-16.655 16.685v87.704c0 6.485 3.733 12.102 9.155 14.852v250.132c0 18.422 14.975 33.409 33.38 33.409h80.281l-11.12 11.12c-5.7 5.701-8.836 13.295-8.83 21.383.007 8.074 3.146 15.646 8.822 21.305 5.681 5.699 13.26 8.838 21.341 8.838s15.66-3.139 21.333-8.83l25.828-25.829c17.908 7.809 37.661 12.152 58.412 12.152 20.76 0 40.521-4.345 58.436-12.157l25.825 25.826c5.681 5.699 13.26 8.838 21.341 8.838s15.66-3.139 21.324-8.821c5.693-5.675 8.832-13.247 8.839-21.321.006-8.088-3.13-15.682-8.83-21.383l-11.12-11.12h80.281c18.405 0 33.38-14.987 33.38-33.409V165.813c5.422-2.75 9.155-8.367 9.155-14.852V63.258c.001-9.2-7.47-16.685-16.654-16.685m-72.889-18.068c0-7.446 6.058-13.505 13.504-13.505 7.462 0 13.532 6.059 13.532 13.505V73.32c0 7.446-6.07 13.505-13.532 13.505-7.446 0-13.504-6.059-13.504-13.505zm-108.394 0c0-7.446 6.058-13.505 13.504-13.505 7.462 0 13.533 6.059 13.533 13.505V73.32c0 7.446-6.071 13.505-13.533 13.505-7.446 0-13.504-6.059-13.504-13.505zm-108.395 0c0-7.446 6.071-13.505 13.533-13.505 7.446 0 13.504 6.059 13.504 13.505V73.32c0 7.446-6.058 13.505-13.504 13.505-7.462 0-13.533-6.059-13.533-13.505zm-108.393 0c0-7.446 6.07-13.505 13.532-13.505 7.446 0 13.504 6.059 13.504 13.505V73.32c0 7.446-6.058 13.505-13.504 13.505-7.462 0-13.532-6.059-13.532-13.505zM34.038 61.573h30.853V73.32c0 15.718 12.8 28.505 28.532 28.505 15.717 0 28.504-12.787 28.504-28.505V61.573h51.357V73.32c0 15.718 12.8 28.505 28.533 28.505 15.717 0 28.504-12.787 28.504-28.505V61.573h51.357V73.32c0 15.718 12.787 28.505 28.504 28.505 15.733 0 28.533-12.787 28.533-28.505V61.573h51.357V73.32c0 15.718 12.787 28.505 28.504 28.505 15.732 0 28.532-12.787 28.532-28.505V61.573h30.853c.897 0 1.655.771 1.655 1.685v55.486H32.383V63.258c0-.913.758-1.685 1.655-1.685M161.13 492.572c-2.847 2.855-6.652 4.428-10.718 4.428s-7.871-1.572-10.734-4.444c-2.853-2.844-4.425-6.646-4.429-10.71-.003-4.077 1.572-7.899 4.438-10.764l18.802-18.802a147.4 147.4 0 0 0 24.958 17.975zm215.621-10.726c-.004 4.063-1.576 7.866-4.445 10.727-2.847 2.855-6.652 4.428-10.718 4.428s-7.871-1.572-10.726-4.436l-22.314-22.315a147.4 147.4 0 0 0 24.958-17.974l18.807 18.807c2.866 2.863 4.441 6.686 4.438 10.763m75.331-47.492h-81.579c20.112-25.11 32.161-56.943 32.161-91.543 0-21.773-4.907-43.433-14.21-63.003l22.187-22.174a7.5 7.5 0 0 0-3.851-12.663l-35.363-6.974 20.336-20.332a7.5 7.5 0 0 0-10.605-10.607l-20.334 20.33-6.973-35.356a7.5 7.5 0 0 0-12.662-3.853l-22.181 22.181c-19.523-9.297-41.189-14.201-63.024-14.201-42.52 0-82.904 18.434-110.798 50.574a7.5 7.5 0 0 0 11.328 9.832c25.044-28.856 61.299-45.406 99.47-45.406 18.089 0 35.43 3.546 51.698 10.528l-12.527 12.527a7.5 7.5 0 0 0-2.054 6.76l1.408 7.115a102.2 102.2 0 0 0-38.496-7.539c-56.402 0-102.289 45.875-102.289 102.263s45.887 102.263 102.289 102.263c56.386 0 102.26-45.875 102.26-102.263 0-13.268-2.592-26.345-7.55-38.524l7.13 1.407a7.501 7.501 0 0 0 6.754-2.053l12.503-12.495c6.917 16.25 10.553 33.914 10.553 51.666 0 72.609-59.07 131.682-131.679 131.682-72.592 0-131.649-59.072-131.649-131.682 0-21.246 4.889-41.5 14.53-60.202a7.5 7.5 0 0 0-13.332-6.874c-10.748 20.848-16.198 43.415-16.198 67.075 0 34.6 12.047 66.433 32.155 91.543H59.918c-10.135 0-18.38-8.259-18.38-18.409V167.618h200.076c4.143 0 7.5-3.357 7.5-7.5s-3.357-7.5-7.5-7.5H34.038c-.882 0-1.655-.773-1.655-1.656v-17.218h447.234v17.218c0 .883-.773 1.656-1.655 1.656H276.225c-4.143 0-7.5 3.357-7.5 7.5s3.357 7.5 7.5 7.5h194.237v248.327c0 10.151-8.245 18.409-18.38 18.409m-108.808-91.542c0 48.117-39.145 87.263-87.26 87.263-48.132 0-87.289-39.146-87.289-87.263s39.157-87.263 87.289-87.263a87.1 87.1 0 0 1 42.121 10.852l3.91 19.754-10.821 10.819c-9.767-7.519-21.986-12.006-35.239-12.006-31.895 0-57.842 25.948-57.842 57.844 0 31.911 25.947 57.872 57.842 57.872 31.91 0 57.871-25.961 57.871-57.872 0-13.253-4.493-25.47-12.022-35.235l10.808-10.805 19.771 3.902a87.1 87.1 0 0 1 10.861 42.138m-17.498-118.005.057-.057 16.024-16.024 6.198 31.428-33.244 33.238-6.216-31.404zm-26.92 118.005c0 23.64-19.231 42.872-42.871 42.872-23.623 0-42.842-19.232-42.842-42.872 0-23.624 19.219-42.844 42.842-42.844a42.64 42.64 0 0 1 24.516 7.727l-29.819 29.813a7.5 7.5 0 0 0-.001 10.606 7.48 7.48 0 0 0 5.304 2.197 7.48 7.48 0 0 0 5.303-2.196l29.825-29.819c4.873 6.952 7.743 15.402 7.743 24.516m26.558-58.81 33.243-33.236 31.435 6.2-33.257 33.237z"/></svg>