<svg xmlns="http://www.w3.org/2000/svg" width="512" height="512"><path fill="#9fd4fe" fill-rule="evenodd" d="M7.507 25.5v312.747h496.987V25.5c0-9.921-8.107-18-18-18H25.506c-9.921 0-17.999 8.079-17.999 18" clip-rule="evenodd"/><path fill="#ffd772" fill-rule="evenodd" d="M300.659 258.679c-2.863 0-5.216 2.353-5.216 5.216v27.411c0 2.863 2.353 5.216 5.216 5.216h156.61c2.863 0 5.216-2.353 5.216-5.216v-27.411c0-2.863-2.353-5.216-5.216-5.216z" clip-rule="evenodd"/><path fill="#eff6ff" fill-rule="evenodd" d="M154.111 277.586c57.74 0 104.568-46.8 104.568-104.57S211.851 68.417 154.111 68.417c-57.769 0-104.596 46.828-104.596 104.599s46.827 104.57 104.596 104.57m17.263-104.769c0 9.524-7.738 17.263-17.263 17.263-9.553 0-17.291-7.739-17.291-17.263 0-9.553 7.738-17.263 17.291-17.263 9.524 0 17.263 7.71 17.263 17.263M295.443 204.735c0 2.976 2.438 5.386 5.414 5.386h50.257v-53.547h-55.671z" clip-rule="evenodd"/><path fill="#eff6ff" fill-rule="evenodd" d="M295.443 103.028h55.671v53.547h-55.671zM295.443 103.028h55.671V49.481h-50.257c-2.976 0-5.414 2.438-5.414 5.414zM351.114 49.481h55.699v53.547h-55.699zM351.114 103.028h55.699v53.547h-55.699z" clip-rule="evenodd"/><path fill="#eff6ff" fill-rule="evenodd" d="M351.114 156.574h55.699v53.547h-55.699z" clip-rule="evenodd"/><path fill="#eb5468" fill-rule="evenodd" d="M406.814 156.574v53.547h50.285c2.948 0 5.386-2.409 5.386-5.386v-48.161z" clip-rule="evenodd"/><path fill="#eff6ff" fill-rule="evenodd" d="M406.814 103.028h55.671v53.547h-55.671zM406.814 103.028h55.671V54.895c0-2.976-2.438-5.414-5.386-5.414h-50.285z" clip-rule="evenodd"/><path fill="#375e7d" fill-rule="evenodd" d="m325.461 390.263-67.859-15.023-71.092 15.023-19.983 62.986 91.075 12.615 87.871-12.615z" clip-rule="evenodd"/><path fill="#407093" fill-rule="evenodd" d="M345.473 453.249h-211.09c-14.088 0-25.625 11.537-25.625 25.625v20.466c0 2.721 2.154 4.989 4.819 5.159h284.818c2.693-.17 4.819-2.438 4.819-5.159v-20.466c0-14.088-11.537-25.625-25.625-25.625zM504.493 338.247H7.507v34.016c0 9.893 8.079 18 18 18h460.986c9.893 0 18-8.107 18-18z" clip-rule="evenodd"/><path fill="#d9eeff" fill-rule="evenodd" d="M154.111 70.656c39.911 14.74 68.37 53.121 68.37 98.164s-28.459 83.424-68.37 98.164a103.5 103.5 0 0 1-30.018 6.236c9.496 2.863 19.587 4.365 30.018 4.365 57.74 0 104.568-46.8 104.568-104.57S211.851 68.417 154.111 68.417q-3.147 0-6.208.17c2.098.623 4.167 1.332 6.208 2.069" clip-rule="evenodd"/><path fill="#375e7d" fill-rule="evenodd" d="M504.493 338.247H379.488c-17.291 20.183-37.53 37.332-60.036 50.684-.737.454-1.502.879-2.268 1.332h169.309c9.893 0 18-8.107 18-18z" clip-rule="evenodd"/><path fill="#85beef" fill-rule="evenodd" d="M379.488 338.247h125.005V25.5c0-9.921-8.107-18-18-18H392.47c9.439 13.039 17.716 27.099 24.689 41.981h39.939c2.948 0 5.386 2.438 5.386 5.414v149.84c0 2.976-2.438 5.386-5.386 5.386h-18.311a271.7 271.7 0 0 1-12.812 48.558h31.294c2.863 0 5.216 2.353 5.216 5.216v27.411c0 2.863-2.353 5.216-5.216 5.216h-48.67c-8.39 14.995-18.141 28.97-29.111 41.725" clip-rule="evenodd"/><path fill="#fbba58" fill-rule="evenodd" d="M408.599 296.521h48.67c2.863 0 5.216-2.353 5.216-5.216v-27.411c0-2.863-2.353-5.216-5.216-5.216h-31.294a265 265 0 0 1-17.376 37.843" clip-rule="evenodd"/><path fill="#e5384f" fill-rule="evenodd" d="M438.788 210.121h18.311c2.948 0 5.386-2.409 5.386-5.386v-48.161h-20.097c.085 2.693.113 5.386.113 8.079a279 279 0 0 1-3.713 45.468" clip-rule="evenodd"/><path fill="#d9eeff" fill-rule="evenodd" d="M442.388 156.574h20.097v-53.547h-26.9a274.4 274.4 0 0 1 6.803 53.547" clip-rule="evenodd"/><path fill="#d9eeff" fill-rule="evenodd" d="M435.585 103.028h26.9V54.895c0-2.976-2.438-5.414-5.386-5.414H417.16c7.908 16.866 14.116 34.81 18.425 53.547" clip-rule="evenodd"/><path fill="#2b4d66" fill-rule="evenodd" d="m280.902 390.263 19.984 62.986h44.587l-20.012-62.986h-8.277z" clip-rule="evenodd"/><path fill="#375e7d" fill-rule="evenodd" d="M345.473 453.249H333.03c2.268 0 4.45.312 6.52.85 10.97 2.92 19.105 12.954 19.105 24.775v20.466c0 2.721-2.126 4.989-4.819 5.159h44.56c2.693-.17 4.819-2.438 4.819-5.159v-20.466c0-14.088-11.537-25.625-25.625-25.625z" clip-rule="evenodd"/><path fill="#ffd772" fill-rule="evenodd" d="M154.111 190.08c9.524 0 17.263-7.739 17.263-17.263 0-9.553-7.738-17.263-17.263-17.263-9.553 0-17.291 7.71-17.291 17.263 0 9.524 7.739 17.263 17.291 17.263" clip-rule="evenodd"/><path d="M486.494 0H25.506C11.445 0 .007 11.439.007 25.5v346.764c0 14.061 11.438 25.5 25.499 25.5h150.757l-15.225 47.985h-26.655c-18.266 0-33.125 14.86-33.125 33.126v20.466c0 6.98 5.679 12.659 12.659 12.659h284.138c6.98 0 12.659-5.679 12.659-12.659v-20.466c0-18.266-14.859-33.126-33.125-33.126H350.96l-15.247-47.985h150.781c14.061 0 25.499-11.439 25.499-25.5V25.5c0-14.061-11.438-25.5-25.499-25.5M335.221 445.749H271.15c-4.143 0-7.5 3.357-7.5 7.5s3.357 7.5 7.5 7.5h106.438c9.994 0 18.125 8.131 18.125 18.126V497H116.258v-18.125c0-9.995 8.131-18.126 18.125-18.126h102.158c4.143 0 7.5-3.357 7.5-7.5s-3.357-7.5-7.5-7.5h-59.767l15.225-47.985h127.976zm151.273-62.985H25.506c-5.789 0-10.499-4.71-10.499-10.5v-26.517h221.534c4.143 0 7.5-3.357 7.5-7.5s-3.357-7.5-7.5-7.5H15.007V25.5c0-5.79 4.71-10.5 10.499-10.5h460.988c5.789 0 10.499 4.71 10.499 10.5v305.247H271.15c-4.143 0-7.5 3.357-7.5 7.5s3.357 7.5 7.5 7.5h225.843v26.517c0 5.79-4.71 10.5-10.499 10.5"/><path d="M154.111 60.917c-61.81 0-112.096 50.287-112.096 112.099 0 61.796 50.286 112.07 112.096 112.07 61.794 0 112.067-50.274 112.067-112.07.001-61.812-50.273-112.099-112.067-112.099m86.539 119.4h10.255c-1.581 21.164-9.981 40.456-23.001 55.687l-7.291-7.291a7.5 7.5 0 0 0-10.607 10.607l7.307 7.307c-15.216 13.084-34.517 21.543-55.702 23.17v-10.439c0-4.143-3.357-7.5-7.5-7.5s-7.5 3.357-7.5 7.5v10.439c-21.192-1.626-40.499-10.086-55.72-23.17l7.319-7.303a7.5 7.5 0 1 0-10.595-10.617l-7.314 7.299c-13.025-15.232-21.428-34.525-23.01-55.69h10.282c4.143 0 7.5-3.357 7.5-7.5s-3.357-7.5-7.5-7.5H57.321c1.664-21.111 10.109-40.344 23.153-55.517l7.141 7.125a7.48 7.48 0 0 0 5.298 2.191 7.5 7.5 0 0 0 5.298-12.808l-7.115-7.1c15.19-12.989 34.418-21.385 55.517-23.004v10.071c0 4.143 3.357 7.5 7.5 7.5s7.5-3.357 7.5-7.5V76.205c21.088 1.619 40.308 10.013 55.492 22.999l-7.119 7.104a7.5 7.5 0 0 0 5.297 12.809c1.916 0 3.834-.73 5.298-2.19l7.146-7.13c13.041 15.174 21.485 34.407 23.149 55.521H240.65c-4.143 0-7.5 3.357-7.5 7.5s3.358 7.499 7.5 7.499"/><path d="M197.196 165.317H177.71c-3.185-9.999-12.558-17.264-23.599-17.264-.893 0-1.774.05-2.643.142l-17.136-41.109a7.5 7.5 0 0 0-13.846 5.772l17.252 41.387c-5.156 4.542-8.418 11.182-8.418 18.572 0 13.654 11.121 24.763 24.791 24.763 11.041 0 20.414-7.264 23.599-17.263h19.486c4.143 0 7.5-3.357 7.5-7.5s-3.357-7.5-7.5-7.5m-43.085 17.263c-5.398 0-9.791-4.38-9.791-9.763 0-5.384 4.393-9.764 9.791-9.764 5.383 0 9.763 4.38 9.763 9.764s-4.38 9.763-9.763 9.763M300.857 217.621H457.1c7.104 0 12.885-5.78 12.885-12.886V54.896c0-7.121-5.78-12.914-12.885-12.914H300.857c-7.121 0-12.914 5.793-12.914 12.914v149.84c0 7.105 5.793 12.885 12.914 12.885m154.127-68.547h-40.671v-38.546h40.671zm-96.37-38.546h40.699v38.546h-40.699zm0 53.546h40.699v38.547h-40.699zm40.699-68.546h-40.699V56.981h40.699zm-55.699 53.546h-40.671v-38.546h40.671zm-40.671 15h40.671v38.547h-40.671zm111.37 38.547v-38.547h40.671v38.547zm40.671-107.093h-40.671V56.981h40.671zm-111.37-38.547v38.547h-40.671V56.981zM300.659 304.021h156.61c7.011 0 12.715-5.704 12.715-12.716v-27.411c0-7.012-5.704-12.716-12.715-12.716h-156.61c-7.012 0-12.716 5.704-12.716 12.716v27.411c0 7.012 5.704 12.716 12.716 12.716m2.284-37.842h152.041v22.843H302.943z"/></svg>