<svg xmlns="http://www.w3.org/2000/svg" viewBox="-49 1 511 512"><path fill="#efefef" d="M374.375 142.55c.55-2.386.852-4.866.852-7.417 0-18.203-14.852-33.012-33.11-33.012-2.605 0-5.14.313-7.574.883-2.688-8.059-8.402-14.746-15.8-18.711.116-1.14.183-2.3.183-3.473 0-18.203-14.856-33.011-33.114-33.011-9.808 0-18.628 4.28-24.699 11.058-4.59-12.742-16.828-21.883-31.168-21.883-8.605 0-16.449 3.293-22.343 8.676a33.1 33.1 0 0 0-16.493-8.148c-1.523-16.805-15.726-30.016-32.968-30.016-17.118 0-31.243 13.016-32.942 29.645-14.902 1.425-26.949 12.742-29.445 27.273a33 33 0 0 0-7.926-.965c-18.258 0-33.11 14.809-33.11 33.012 0 3.383.512 6.648 1.47 9.723-10.254 5.617-17.22 16.488-17.22 28.949 0 2.55.305 5.031.856 7.418-49.62 13.14-32.293 64.312-8.066 64.312h351.61c27.308 0 39.722-57.203-8.993-64.312m0 0"/><path fill="#e2e2e2" d="M374.375 142.55c.55-2.386.852-4.866.852-7.417 0-18.203-14.852-33.012-33.11-33.012-2.605 0-5.14.313-7.574.883-2.688-8.059-8.402-14.746-15.8-18.711.116-1.14.183-2.3.183-3.473 0-18.203-14.856-33.011-33.114-33.011-9.808 0-18.628 4.277-24.699 11.058-4.59-12.742-16.828-21.883-31.168-21.883-8.605 0-16.449 3.29-22.343 8.676a33.07 33.07 0 0 0-16.493-8.148c-1.523-16.805-15.726-30.016-32.968-30.016-12.34 0-23.125 6.766-28.817 16.774 2.262 3.976 34.453 19.203 43.059 19.203 11.672 0 21.906 1.757 27.785 9.28 2.082 2.661 5.844 3.352 8.574 1.368a33 33 0 0 1 19.445-6.312c18.258 0 33.11 14.812 33.11 33.015q-.001 1.757-.184 3.473c7.399 3.96 13.117 10.652 15.805 18.707a33 33 0 0 1 7.57-.879c18.258 0 33.11 14.809 33.11 33.012 0 2.55-.301 5.031-.852 7.418 48.715 7.105 36.3 64.308 8.992 64.308h57.63c27.308 0 39.722-57.203-8.993-64.312m0 0"/><path fill="#fc4e51" d="M313.531 504.504H101.855a15.04 15.04 0 0 1-14.87-12.766L43.616 208.676H371.77l-43.368 283.062a15.04 15.04 0 0 1-14.87 12.766m0 0"/><path fill="#ea3942" d="M313.059 208.676 269.69 491.738a15.04 15.04 0 0 1-14.87 12.766h58.71c7.43 0 13.746-5.422 14.871-12.766l43.368-283.062zm0 0"/><path fill="#f3e8d7" d="M224.844 504.504h-34.301l-5.934-279.543h46.168zM156.242 504.504h-34.3L92.276 224.96h46.168zM293.441 504.504h-34.296L276.94 224.96h46.168zm0 0"/><path fill="#e5d8c6" d="M310.563 224.96 269.69 491.739c-.894 5.848-5.086 10.465-10.507 12.11l-.04.656h34.297l29.668-279.547h-12.546zm0 0"/><path fill="#efa335" d="M286.41 356.59c0 43.476-35.242 78.719-78.719 78.719-43.472 0-78.714-35.243-78.714-78.72 0-43.472 35.242-78.718 78.714-78.718 43.477 0 78.72 35.246 78.72 78.719m0 0"/><path fill="#f3e8d7" d="M257.219 356.59c0 27.351-22.176 49.523-49.528 49.523-27.351 0-49.523-22.172-49.523-49.523s22.172-49.524 49.523-49.524 49.528 22.172 49.528 49.524m0 0"/><g fill="#e2e2e2"><path d="M132.887 99.922c0 7.488-6.07 13.558-13.559 13.558-7.484 0-13.555-6.07-13.555-13.558s6.07-13.559 13.555-13.559c7.488 0 13.559 6.07 13.559 13.559M206.063 169.363c0 7.489-6.07 13.559-13.56 13.559-7.487 0-13.558-6.07-13.558-13.559s6.07-13.558 13.559-13.558 13.559 6.07 13.559 13.558M100.164 166.324c0 8.77-7.11 15.875-15.879 15.875-8.765 0-15.875-7.105-15.875-15.875s7.11-15.875 15.875-15.875c8.77 0 15.88 7.106 15.88 15.875M225.98 79.703c0 7.488-6.07 13.559-13.554 13.559-7.488 0-13.559-6.07-13.559-13.559s6.07-13.558 13.559-13.558c7.484 0 13.554 6.07 13.554 13.558M299.969 132.688c0 7.488-6.07 13.558-13.559 13.558s-13.558-6.07-13.558-13.559 6.07-13.554 13.558-13.554 13.559 6.066 13.559 13.555m0 0"/></g><path fill="#ea3942" d="M378.95 230.957H36.437a4.71 4.71 0 0 1-4.708-4.71v-20.7a4.705 4.705 0 0 1 4.707-4.707H378.95a4.707 4.707 0 0 1 4.707 4.707v20.7a4.71 4.71 0 0 1-4.707 4.71m0 0"/><path fill="#d83242" d="M383.656 205.547a4.71 4.71 0 0 0-4.707-4.711h-52.922v30.121h52.922a4.71 4.71 0 0 0 4.707-4.71zm0 0"/><path d="M382.695 136.602q.029-.732.028-1.47c0-22.335-18.22-40.503-40.606-40.503q-1.477 0-2.96.105a40.35 40.35 0 0 0-12.739-14.507c-.324-22.063-18.414-39.915-40.605-39.915a40.67 40.67 0 0 0-22.41 6.754c-7.465-10.8-19.923-17.578-33.458-17.578a40.53 40.53 0 0 0-22.347 6.7 40.5 40.5 0 0 0-9.891-4.743C193.523 13.434 177.094 0 158.141 0c-18.938 0-34.97 12.824-39.399 30.648-13.12 3.204-23.824 12.786-28.469 25.38a43 43 0 0 0-2.445-.075c-22.387 0-40.605 18.172-40.605 40.508 0 2.113.164 4.215.492 6.289-10.137 7.598-16.238 19.55-16.238 32.387 0 .715.02 1.437.058 2.152-25.57 9.262-32.777 28.86-30.7 44.941 1.935 14.926 11.603 27.176 23.4 30.93v13.086c0 6.73 5.476 12.203 12.203 12.203h4.16l38.98 254.422C81.273 503.957 90.645 512 101.855 512h211.676c11.211 0 20.582-8.043 22.278-19.129l38.98-254.422h4.16c6.727 0 12.203-5.476 12.203-12.203v-13.098c12.727-3.996 22.575-17.543 23.645-33.953 1.043-16.062-6.961-35.937-32.102-42.593m-280.84 360.41a7.514 7.514 0 0 1-7.464-6.41L55.76 238.449h30.41l27.442 258.563zm26.829 0-27.438-258.563h30.547l4.453 69.942c-9.316 13.77-14.766 30.359-14.766 48.199 0 21.75 8.114 41.633 21.454 56.816l5.32 83.606zm34.593 0-4.422-69.43a85.9 85.9 0 0 0 22.797 11.191l1.235 58.239zm54.227 0h-19.625l-1.164-54.934a86 86 0 0 0 10.976.727c3.723 0 7.383-.266 10.98-.727zm34.605 0H232.5l1.234-58.239a85.9 85.9 0 0 0 22.797-11.191zm-44.418-69.2c-39.27 0-71.222-31.949-71.222-71.222 0-39.274 31.953-71.223 71.222-71.223 39.274 0 71.223 31.95 71.223 71.223s-31.95 71.223-71.223 71.223M146.813 238.45h30.585l.79 37.13c-10.391 3.8-19.848 9.55-27.942 16.796zm45.582 0h30.597l-.703 33.188a86.5 86.5 0 0 0-14.598-1.262c-4.976 0-9.847.45-14.593 1.262zm44.804 37.133.785-37.133h30.59l-3.433 53.926c-8.094-7.246-17.551-12.996-27.942-16.793m83.793 215.02a7.51 7.51 0 0 1-7.46 6.41h-11.759l2.637-24.844a7.495 7.495 0 0 0-6.66-8.242c-4.102-.43-7.809 2.547-8.246 6.664l-2.805 26.422h-19.57l5.324-83.606c13.336-15.183 21.453-35.066 21.453-56.816 0-17.84-5.449-34.43-14.765-48.2l4.453-69.94h30.547l-20.922 197.144a7.49 7.49 0 0 0 7.46 8.285 7.497 7.497 0 0 0 7.446-6.703l21.09-198.727h30.41zm78.844-312.38c-.527 8.09-4.785 16.739-11.23 19.891-2.235-2.894-5.727-4.77-9.657-4.77H121.941a7.494 7.494 0 0 0 0 14.988h254.223v15.13H39.223v-15.129h47.55a7.495 7.495 0 1 0 0-14.988H36.438c-3.915 0-7.399 1.86-9.633 4.738-5.446-2.785-10.07-9.797-11.102-17.773-.887-6.864-.129-23.582 26.04-30.512a7.49 7.49 0 0 0 5.382-8.93 25.6 25.6 0 0 1-.66-5.73c0-9.301 5.105-17.875 13.324-22.38a7.5 7.5 0 0 0 3.559-8.788 25.3 25.3 0 0 1-1.133-7.508c0-14.07 11.492-25.516 25.613-25.516 2.059 0 4.125.25 6.14.746a7.49 7.49 0 0 0 9.177-6.011c1.94-11.313 11.304-19.98 22.77-21.078a7.49 7.49 0 0 0 6.741-6.7c1.332-13.062 12.29-22.914 25.485-22.914 13.12 0 24.324 10.192 25.504 23.2a7.495 7.495 0 0 0 6.144 6.703 25.56 25.56 0 0 1 12.758 6.304 7.5 7.5 0 0 0 10.11 0 25.58 25.58 0 0 1 17.288-6.715c10.778 0 20.47 6.805 24.118 16.93a7.51 7.51 0 0 0 5.62 4.817 7.5 7.5 0 0 0 7.016-2.36 25.7 25.7 0 0 1 19.117-8.562c14.125 0 25.618 11.445 25.618 25.515a26 26 0 0 1-.145 2.688 7.49 7.49 0 0 0 3.914 7.39c5.813 3.114 10.156 8.254 12.23 14.473a7.504 7.504 0 0 0 8.82 4.93 25.8 25.8 0 0 1 5.864-.684c14.125 0 25.613 11.446 25.613 25.516 0 1.91-.218 3.836-.656 5.726a7.486 7.486 0 0 0 6.219 9.106c26.086 3.808 26.914 22.594 26.543 28.258m0 0"/><path d="M207.691 299.57c-31.437 0-57.015 25.578-57.015 57.02s25.578 57.02 57.015 57.02c31.442 0 57.02-25.579 57.02-57.02s-25.578-57.02-57.02-57.02m0 99.051c-23.171 0-42.027-18.855-42.027-42.031s18.852-42.031 42.027-42.031 42.032 18.855 42.032 42.03c0 23.177-18.856 42.032-42.032 42.032M119.332 78.871c-11.61 0-21.055 9.442-21.055 21.05a7.495 7.495 0 0 0 7.496 7.497 7.495 7.495 0 0 0 7.497-7.496 6.07 6.07 0 0 1 6.062-6.063c4.14 0 7.492-3.355 7.492-7.496s-3.355-7.492-7.492-7.492M192.504 148.313c-11.61 0-21.05 9.445-21.05 21.05a7.494 7.494 0 1 0 14.987 0 6.073 6.073 0 0 1 6.063-6.062c4.14 0 7.496-3.352 7.496-7.492s-3.355-7.496-7.496-7.496M84.285 142.953c-12.887 0-23.37 10.484-23.37 23.371a7.496 7.496 0 1 0 14.992 0c0-4.62 3.761-8.383 8.378-8.383a7.495 7.495 0 1 0 0-14.988M212.426 58.648c-11.61 0-21.055 9.446-21.055 21.051a7.495 7.495 0 0 0 7.496 7.496 7.495 7.495 0 0 0 7.496-7.496 6.067 6.067 0 0 1 6.063-6.058c4.137 0 7.492-3.356 7.492-7.496s-3.356-7.497-7.492-7.497M286.41 111.637c-11.61 0-21.05 9.445-21.05 21.05a7.495 7.495 0 1 0 14.988 0 6.07 6.07 0 0 1 6.062-6.062 7.495 7.495 0 1 0 0-14.988m0 0"/></svg>