<svg xmlns="http://www.w3.org/2000/svg" viewBox="0 -76 512.001 512"><path fill="#e2e2e2" d="M325.664 257.473c-1.426 0-2.879-.235-4.305-.723-6.914-2.375-10.59-9.91-8.214-16.824 1.992-5.797 16.277-35.703 101.93-54.985 25.866-5.824 41.05-21.504 49.23-33.636 10.047-14.89 15.039-32.805 13.36-47.914-1.286-11.567-6.743-25.356-25.442-25.356-19.61 0-41.426 10.649-49.192 25.547-6.004 11.508-3.941 33.023-11.226 32.965-7.313-.098-13.16-6.102-13.067-13.414.028-1.82.492-18.266 9.32-35.2 8.653-16.593 26.81-36.374 64.165-36.374 14.773 0 27.492 5.086 36.777 14.71 8.266 8.57 13.445 20.395 14.98 34.196 4.778 42.976-25.632 97.37-83.09 110.305-40.554 9.132-61.714 20.25-72.32 27.964-7.48 5.446-10.375 9.77-10.386 9.801-1.887 5.488-7.02 8.938-12.52 8.938M286.488 288.848l-31.66-35.68h-42.324l-.106.203v-.203H170.07l-31.66 35.68s-25.246 11.414-33.758 25.093c-1.777 2.856.266 6.551 3.625 6.551h208.348c3.36 0 5.402-3.695 3.625-6.55-8.512-13.68-33.762-25.094-33.762-25.094m0 0"/><path fill="#d8d6d4" d="M320.25 313.941c-8.512-13.68-33.762-25.093-33.762-25.093l-31.66-35.68h-42.324l-.106.203v-.203h-15.527l31.656 35.68s25.25 11.414 33.762 25.093c1.777 2.856-.266 6.551-3.625 6.551h57.961c3.36 0 5.402-3.695 3.625-6.55m0 0"/><path fill="#e2e2e2" d="M13.57 13.559c-1.574 47.644.188 225.828 124.84 275.289h147.973c124.652-49.461 126.414-227.645 124.836-275.29A6.22 6.22 0 0 0 405 7.54H19.793c-3.36 0-6.11 2.66-6.223 6.02m0 0"/><path fill="#d8d6d4" d="M411.219 13.559A6.22 6.22 0 0 0 405 7.539h-51.98c1.695 35.945 6.144 229.43-124.598 281.309h57.96C411.036 239.387 412.798 61.203 411.22 13.558m0 0"/><path fill="#a0e557" d="M134.52 70.879H106.87c-3.59 0-6.906 1.898-8.723 4.996L81.941 103.52a10.1 10.1 0 0 0-1.39 5.113v58.676c0 5.586 4.527 10.109 10.113 10.109h60.063c5.585 0 10.113-4.523 10.113-10.11v-58.675c0-1.801-.48-3.563-1.39-5.113l-16.208-27.645a10.1 10.1 0 0 0-8.722-4.996m0 0"/><path fill="#93cc4a" d="M143.242 75.875a10.1 10.1 0 0 0-8.722-4.996H106.87c-1.398 0-2.75.293-3.992.828v105.711h47.848c5.585 0 10.113-4.523 10.113-10.11v-58.675c0-1.801-.48-3.567-1.39-5.117zm0 0"/><path fill="#0d6e9a" d="M381.496 351.777H43.293c-15.715 0-29.648-10.097-34.535-25.035l-.934-2.847c-1.238-3.79 1.582-7.684 5.57-7.684h398.004c3.985 0 6.809 3.894 5.567 7.684l-.93 2.847c-4.887 14.934-18.82 25.035-34.539 25.035m0 0"/><path fill="#09627a" d="M411.398 316.21h-50.386l-4.766 14.567c-4.098 12.528-15.789 21-28.969 21h54.22c15.714 0 29.651-10.101 34.538-25.035l.93-2.847c1.242-3.79-1.582-7.684-5.567-7.684m0 0"/><path d="M411.398 308.672h-85.593c-5.344-7.77-14.535-14.504-22.352-19.281a164 164 0 0 0 22.621-13.926 7.535 7.535 0 0 0 1.617-10.535 7.53 7.53 0 0 0-10.535-1.618c-9.89 7.258-20.726 13.31-32.234 17.997h-145.05C24.003 234.098 19.491 67.399 21.065 15.079h34.028a7.54 7.54 0 0 0 7.539-7.54A7.54 7.54 0 0 0 55.093 0h-35.3A13.707 13.707 0 0 0 6.039 13.309c-.934 28.125-.176 83.613 15.356 139.238 9.117 32.652 22.101 60.762 38.593 83.539 16.825 23.238 37.461 41.11 61.457 53.332-7.828 4.789-17.03 11.527-22.347 19.254H13.395c-4.282 0-8.336 2.07-10.848 5.535A13.44 13.44 0 0 0 .66 326.238l.934 2.848a43.78 43.78 0 0 0 41.699 30.23h338.203a43.78 43.78 0 0 0 41.703-30.234l.93-2.844a13.43 13.43 0 0 0-1.883-12.031 13.44 13.44 0 0 0-10.848-5.535m-271.304-12.285h144.722c4.77 2.289 13.207 6.886 20.079 12.285h-184.86c6.86-5.379 15.285-9.985 20.059-12.285m268.777 28.008a28.74 28.74 0 0 1-27.371 19.843H43.293a28.74 28.74 0 0 1-27.371-19.843l-.211-.645h393.371zm0 0"/><path d="M511.473 99.633c-1.72-15.473-7.618-28.817-17.047-38.594-10.739-11.133-25.332-17.02-42.203-17.02-12.387 0-23.641 2.051-33.63 6.102.602-15.226.454-27.965.16-36.816A13.704 13.704 0 0 0 405 0H90.172a7.54 7.54 0 0 0-7.54 7.54 7.54 7.54 0 0 0 7.54 7.538h22.984V63.34h-6.285a17.71 17.71 0 0 0-15.223 8.722L75.441 99.703a17.7 17.7 0 0 0-2.425 8.93v58.676c0 9.734 7.918 17.648 17.648 17.648h60.066c9.73 0 17.649-7.914 17.649-17.648v-58.676a17.66 17.66 0 0 0-2.422-8.926l-16.207-27.64c-3.156-5.383-8.988-8.727-15.227-8.727h-6.285V15.078h275.489c.335 11.188.41 28.18-.93 48.305a507 507 0 0 1-.512 6.957q-.074.92-.156 1.851a471 471 0 0 1-.613 6.754l-.153 1.528c-.25 2.46-.52 4.906-.8 7.34q-.053.415-.098.832a472 472 0 0 1-1.004 7.847 430 430 0 0 1-3.008 18.88c-5.164 28.284-12.785 53.456-22.777 75.335a7 7 0 0 0-.363.691c-6.262 13.602-13.524 26.051-21.586 37-.04.059-.067.122-.11.18a175 175 0 0 1-9.777 12.106 7.54 7.54 0 0 0 .652 10.64 7.5 7.5 0 0 0 4.992 1.895c2.082 0 4.16-.86 5.649-2.543a191 191 0 0 0 9.758-12c14.734-8.035 34.78-14.95 59.652-20.551 61.527-13.852 94.066-72.29 88.93-118.492M134.52 78.418c.91 0 1.761.484 2.222 1.27l16.207 27.644c.23.395.352.844.352 1.3v58.677a2.576 2.576 0 0 1-2.574 2.574H90.664a2.576 2.576 0 0 1-2.574-2.574v-58.676c0-.457.12-.906.355-1.301l16.207-27.644a2.58 2.58 0 0 1 2.22-1.27h6.284v10.57a7.54 7.54 0 0 0 7.54 7.54 7.54 7.54 0 0 0 7.538-7.54v-10.57zm276.765 39.66a435 435 0 0 0 2.746-16.945c8.528-9.098 24.192-15.559 38.192-15.559 6.812 0 16.093 1.938 17.949 18.653 1.488 13.386-3.04 29.41-12.117 42.867-7.418 10.992-21.18 25.21-44.637 30.492a400 400 0 0 0-19.98 5.027c7.578-19.449 13.546-40.984 17.847-64.535m7.95 85.34c-15.458 3.48-29.231 7.48-41.204 11.965a243 243 0 0 0 7.617-14.703c9.516-3.063 19.954-5.88 31.082-8.387 28.286-6.367 44.883-23.512 53.825-36.77 11.015-16.332 16.476-36.128 14.605-52.96-2.265-20.376-14.27-32.063-32.937-32.063-12.356 0-25.141 3.64-35.68 9.742.055-.523.098-1.05.144-1.574q.094-.97.18-1.934c.16-1.78.317-3.566.461-5.355.031-.399.063-.79.09-1.184.078-.976.16-1.949.23-2.93 9.637-5.421 21.247-8.167 34.575-8.167 12.68 0 23.523 4.289 31.351 12.406 7.102 7.36 11.567 17.664 12.914 29.797 4.418 39.75-23.86 90.094-77.254 102.117m0 0"/></svg>