<svg xmlns="http://www.w3.org/2000/svg" viewBox="-16 0 512 512.001"><path fill="#c1752f" d="m199.742 371.379-2.87-1.367a6.58 6.58 0 0 1-3.142-8.688L354.906 11.336a6.573 6.573 0 0 1 8.801-3.184l12.332 5.883a6.575 6.575 0 0 1 3.063 8.848L208.469 368.359a6.574 6.574 0 0 1-8.727 3.02m0 0"/><path fill="#c1752f" d="m212.773 358.207 2.606 1.828a6.58 6.58 0 0 0 9.11-1.527L450.241 46.246a6.573 6.573 0 0 0-1.55-9.23l-11.18-7.852a6.574 6.574 0 0 0-9.211 1.672L211.125 349.117a6.58 6.58 0 0 0 1.648 9.09m0 0"/><path fill="#f3e8d7" d="M446.648 265.54c0 46.862-37.992 84.85-84.851 84.85-46.863 0-84.852-37.988-84.852-84.85 0-46.864 37.989-84.853 84.852-84.853 46.86 0 84.851 37.989 84.851 84.852m0 0"/><path fill="#eaddcc" d="M361.797 180.688a84.7 84.7 0 0 0-27.887 4.71c33.16 11.54 56.969 43.051 56.969 80.141s-23.809 68.602-56.969 80.14a84.7 84.7 0 0 0 27.887 4.712c46.86 0 84.851-37.989 84.851-84.852s-37.992-84.851-84.851-84.851m0 0"/><path fill="#e5d8c6" d="M417.563 265.54c0 30.8-24.97 55.769-55.766 55.769-30.8 0-55.77-24.97-55.77-55.77s24.97-55.77 55.77-55.77c30.797 0 55.765 24.97 55.765 55.77m0 0"/><path fill="#d8c9b6" d="M361.797 209.77a55.5 55.5 0 0 0-27.887 7.48c16.664 9.645 27.887 27.652 27.887 48.29 0 20.64-11.223 38.644-27.887 48.288a55.5 55.5 0 0 0 27.887 7.48c30.797 0 55.765-24.968 55.765-55.769 0-30.797-24.968-55.77-55.765-55.77m0 0"/><path fill="#f3e8d7" d="M388.434 265.54c0 14.71-11.926 26.64-26.637 26.64-14.715 0-26.64-11.93-26.64-26.64 0-14.712 11.925-26.642 26.64-26.642 14.71 0 26.637 11.93 26.637 26.641M266.695 196.547c0 46.863-37.988 84.851-84.851 84.851-46.86 0-84.852-37.988-84.852-84.851 0-46.86 37.992-84.852 84.852-84.852 46.863 0 84.851 37.993 84.851 84.852m0 0"/><path fill="#eaddcc" d="M181.844 111.695a84.8 84.8 0 0 0-29.106 5.125c32.528 11.88 55.746 43.09 55.746 79.727s-23.222 67.851-55.746 79.726c9.078 3.317 18.883 5.125 29.106 5.125 46.863 0 84.851-37.988 84.851-84.851s-37.988-84.852-84.851-84.852m0 0"/><path fill="#e5d8c6" d="M237.613 196.547c0 30.8-24.968 55.77-55.77 55.77-30.796 0-55.765-24.97-55.765-55.77 0-30.797 24.969-55.766 55.766-55.766 30.8 0 55.77 24.969 55.77 55.766m0 0"/><path fill="#d8c9b6" d="M181.844 140.781a55.5 55.5 0 0 0-28.672 7.93c16.23 9.754 27.094 27.523 27.094 47.836 0 20.316-10.864 38.086-27.094 47.836 8.379 5.035 18.183 7.933 28.672 7.933 30.8 0 55.77-24.968 55.77-55.77s-24.97-55.765-55.77-55.765m0 0"/><path fill="#f3e8d7" d="M208.484 196.547c0 14.715-11.925 26.64-26.64 26.64-14.711 0-26.637-11.925-26.637-26.64 0-14.711 11.926-26.637 26.637-26.637 14.715 0 26.64 11.926 26.64 26.637m0 0"/><path fill="#f3e8d7" d="M329.746 265.54c0 46.862-37.988 84.85-84.851 84.85-46.86 0-84.852-37.988-84.852-84.85 0-46.864 37.992-84.853 84.852-84.853 46.863 0 84.851 37.989 84.851 84.852m0 0"/><path fill="#eaddcc" d="M244.895 180.688c-10.223 0-20.028 1.808-29.106 5.125 32.527 11.878 55.746 43.09 55.746 79.726 0 36.637-23.219 67.848-55.746 79.727a84.8 84.8 0 0 0 29.106 5.125c46.863 0 84.851-37.989 84.851-84.852s-37.988-84.851-84.851-84.851m0 0"/><path fill="#e5d8c6" d="M300.664 265.54c0 30.8-24.969 55.769-55.77 55.769-30.796 0-55.765-24.97-55.765-55.77s24.969-55.77 55.766-55.77c30.8 0 55.77 24.97 55.77 55.77m0 0"/><path fill="#d8c9b6" d="M244.895 209.77a55.5 55.5 0 0 0-28.985 8.117c16.063 9.789 26.785 27.468 26.785 47.652s-10.722 37.863-26.785 47.652a55.5 55.5 0 0 0 28.985 8.118c30.8 0 55.77-24.97 55.77-55.77 0-30.797-24.97-55.77-55.77-55.77m0 0"/><path fill="#f3e8d7" d="M271.535 265.54c0 14.71-11.926 26.64-26.64 26.64-14.711 0-26.637-11.93-26.637-26.64 0-14.712 11.926-26.642 26.637-26.642 14.714 0 26.64 11.93 26.64 26.641M203.152 265.54c0 46.862-37.992 84.85-84.851 84.85-46.863 0-84.852-37.988-84.852-84.85 0-46.864 37.989-84.853 84.852-84.853 46.86 0 84.851 37.989 84.851 84.852m0 0"/><path fill="#eaddcc" d="M118.3 180.688a84.7 84.7 0 0 0-28.84 5.035c32.665 11.804 56.009 43.082 56.009 79.816s-23.348 68.008-56.008 79.816a84.7 84.7 0 0 0 28.84 5.036c46.86 0 84.851-37.989 84.851-84.852s-37.992-84.852-84.851-84.852m0 0"/><path fill="#e5d8c6" d="M174.066 265.54c0 30.8-24.968 55.769-55.765 55.769-30.801 0-55.77-24.97-55.77-55.77s24.969-55.77 55.77-55.77c30.797 0 55.765 24.97 55.765 55.77m0 0"/><path fill="#d8c9b6" d="M118.3 209.77c-10.616 0-20.538 2.968-28.984 8.117 16.059 9.789 26.782 27.468 26.782 47.652s-10.723 37.863-26.782 47.652c8.446 5.149 18.368 8.118 28.985 8.118 30.797 0 55.765-24.97 55.765-55.77 0-30.797-24.968-55.77-55.765-55.77m0 0"/><path fill="#f3e8d7" d="M144.938 265.54c0 14.71-11.926 26.64-26.637 26.64-14.715 0-26.64-11.93-26.64-26.64 0-14.712 11.925-26.642 26.64-26.642 14.71 0 26.636 11.93 26.636 26.641m0 0"/><path fill="#33d8dd" d="M12.098 265.54a4.6 4.6 0 0 0-4.575 5.054c4.72 47.215 25.356 134.035 110.536 188.316.66.422 1.379.742 2.129.965v28.3c0 9.016 7.304 16.321 16.32 16.321h207.164c9.012 0 16.32-7.305 16.32-16.32v-28.332a8.5 8.5 0 0 0 2.043-.934c85.176-54.281 105.813-141.101 110.531-188.316a4.59 4.59 0 0 0-4.574-5.055zm0 0"/><path fill="#2ecccc" d="M357.395 460.254H122.699a8.8 8.8 0 0 1-2.512-.375v28.3c0 9.012 7.305 16.321 16.32 16.321h207.165c9.015 0 16.32-7.309 16.32-16.32v-28.332a8.7 8.7 0 0 1-2.597.406m0 0"/><path fill="#23b5b1" d="M357.395 460.254h-55.961V504.5h42.238c9.015 0 16.32-7.309 16.32-16.32v-28.332a8.7 8.7 0 0 1-2.597.406m0 0"/><path fill="#25b9c0" d="M122.7 460.254a8.8 8.8 0 0 1-2.513-.375v.375zM121.469 494.531"/><path fill="#2cc6c2" d="M467.996 265.54h-55.262c-.98 106.483-104.007 192.335-111.3 194.714h55.96a8.6 8.6 0 0 0 2.598-.41 8.4 8.4 0 0 0 2.043-.934c85.18-54.281 105.817-141.101 110.535-188.316a4.596 4.596 0 0 0-4.574-5.055m0 0"/><path d="M476.969 262.016a12.14 12.14 0 0 0-8.973-3.98h-14.148c-1.403-17.65-7.758-34.278-18.598-48.481a7.502 7.502 0 1 0-11.926 9.102c8.824 11.562 14.086 25.05 15.45 39.378h-14.169c-3.726-31.36-30.464-55.765-62.812-55.765-14.223 0-28.02 4.855-39.098 13.55a93 93 0 0 0-8.484-11.238 77 77 0 0 1 7.148-4.953c.028-.02.059-.031.086-.047a78 78 0 0 1 9.313-4.887q.459-.198.918-.39a71 71 0 0 1 4.004-1.57q.608-.227 1.222-.438a71 71 0 0 1 2.5-.797c.375-.113.746-.227 1.125-.332q1.29-.369 2.59-.695c.383-.094.766-.18 1.153-.27a73.033 73.033 0 0 1 3.82-.781 76 76 0 0 1 3.25-.516 77.5 77.5 0 0 1 10.457-.715c13.086 0 26.016 3.325 37.387 9.618a7.504 7.504 0 0 0 10.195-2.934 7.5 7.5 0 0 0-2.934-10.195c-11.902-6.586-25.23-10.453-38.851-11.309l88.726-122.73a13.99 13.99 0 0 0 2.477-10.575 14 14 0 0 0-5.79-9.191h-.003l-11.18-7.852a13.97 13.97 0 0 0-10.61-2.332 13.98 13.98 0 0 0-9.109 5.918L312.246 187.613a93 93 0 0 0-8.898 6.477q-.159-.124-.317-.254l82.797-167.633a14 14 0 0 0 .68-10.844 13.98 13.98 0 0 0-7.238-8.097l-12.329-5.88A13.97 13.97 0 0 0 356.09.849a13.98 13.98 0 0 0-8 7.351l-76.567 166.27c-4.554-18.512-14.804-35.297-29.39-47.88a92.34 92.34 0 0 0-60.285-22.394 92.34 92.34 0 0 0-60.243 22.356c-15.304 13.183-25.84 31.004-30.039 50.586-35.628 10.797-62.218 42.582-65.312 80.902H12.098c-3.41 0-6.68 1.45-8.97 3.98a12.13 12.13 0 0 0-3.07 9.32c4.813 48.126 25.856 136.97 112.626 193.036v23.805c0 13.132 10.687 23.82 23.824 23.82h207.164c13.137 0 23.82-10.687 23.82-23.82v-23.856c43.383-28.054 75.133-67.289 94.383-116.64a279 279 0 0 0 6.598-18.926 288 288 0 0 0 4.363-15.735 297 297 0 0 0 7.195-41.683 12.13 12.13 0 0 0-3.062-9.324m-43-226.176 9.644 6.773-95.09 131.524c-.433.062-.867.148-1.3.218q-.98.153-1.953.329c-.575.105-1.145.207-1.715.324q-1.523.299-3.028.656-.72.17-1.441.36c-.309.078-.617.148-.926.23zm-72.172 181.433c24.062 0 44.062 17.7 47.68 40.762h-14.38c-3.429-15.226-17.054-26.637-33.3-26.637-10.934 0-20.676 5.172-26.93 13.192a91.3 91.3 0 0 0-4.996-15.238c8.774-7.727 20.16-12.079 31.926-12.079m17.601 40.762h-35.207c2.926-6.832 9.711-11.637 17.602-11.637 7.895.004 14.684 4.805 17.605 11.637m-18.07-242.707 10.633 5.07-81.43 164.872a93 93 0 0 0-6.02-3.145zm-89.094 177.867c.598.227 1.192.457 1.786.7.316.128.632.27.949.402q1.422.602 2.816 1.258.62.291 1.235.59a82 82 0 0 1 6.421 3.554 78.606 78.606 0 0 1 2.707 1.758c.317.215.633.422.946.64 11.36 7.938 20.5 18.844 26.285 31.587l.117.265a76.7 76.7 0 0 1 6.375 23.961l.012.125h-14.176c-3.723-31.36-30.46-55.77-62.809-55.77-17.398 0-33.64 7.024-45.433 19.243a92.7 92.7 0 0 0-7.809-12.063c14.317-13.582 33.387-21.257 53.242-21.257a77 77 0 0 1 27.336 5.007m-27.34 38.203c-16.246 0-29.87 11.415-33.3 26.641h-1.246q-.008-.087-.016-.168a95 95 0 0 0-.277-2.812c-.032-.258-.059-.52-.09-.782q-.194-1.54-.426-3.07c-.035-.227-.078-.453-.113-.68a86 86 0 0 0-.426-2.382c-.02-.094-.035-.188-.055-.282-.043-.218-.082-.441-.125-.66q-.312-1.516-.664-3.008-.094-.396-.195-.793-.2-.808-.41-1.609l-.012-.04q-.153-.578-.312-1.155c-.036-.13-.07-.258-.11-.391-.148-.516-.304-1.035-.46-1.547q-.014-.033-.02-.066c-.13-.418-.262-.832-.395-1.25q-.073-.246-.148-.492c9.097-12.32 23.355-19.579 38.8-19.579 24.063 0 44.067 17.704 47.68 40.766h-14.379c-3.425-15.23-17.05-26.64-33.3-26.64m17.606 26.637h-35.207c2.926-6.832 9.71-11.637 17.605-11.637 7.891.004 14.676 4.805 17.602 11.637m-80.656-80.625c6.562 0 12.543 3.395 16.011 8.688a92.4 92.4 0 0 0-16.277 12.242 92.8 92.8 0 0 0-15.883-12.035c3.446-5.414 9.48-8.895 16.149-8.895m-29.649 2.219a91 91 0 0 0-13.726-4.219c7.976-16.308 24.781-27.129 43.375-27.129 18.558 0 35.344 10.785 43.336 27.047a92 92 0 0 0-13.77 4.164c-6-10.36-17.21-17.086-29.566-17.086-12.442 0-23.68 6.782-29.649 17.223m-20.797-41.711a77.32 77.32 0 0 1 50.45-18.719c18.539 0 36.468 6.66 50.484 18.754a77.5 77.5 0 0 1 23.45 35.879 93 93 0 0 0-10.884-.644c-1.414 0-2.824.039-4.23.101-9.441-23.836-32.8-40.008-58.82-40.008-26.036 0-49.391 16.18-58.832 40.024a92.786 92.786 0 0 0-15.086.469 77.55 77.55 0 0 1 23.468-35.856m-13.097 50.27c30.613 0 57.133 17.882 69.66 43.75.101.214.2.433.297.648q.61 1.282 1.172 2.582c.183.437.355.875.535 1.312.27.66.535 1.325.785 1.993.207.554.398 1.109.594 1.668.199.566.394 1.132.578 1.707.203.62.387 1.246.574 1.87a69.8 69.8 0 0 1 .957 3.559q.188.78.363 1.57a76.137 76.137 0 0 1 .71 3.645c.11.649.22 1.301.314 1.953.09.61.16 1.223.234 1.836.07.582.145 1.168.203 1.758H181.11c-3.722-31.363-30.46-55.77-62.808-55.77s-59.086 24.407-62.809 55.77H41.32c3.785-39.144 36.86-69.851 76.98-69.851m0 43.21c-16.25 0-29.875 11.415-33.301 26.641H70.621c3.613-23.062 23.617-40.766 47.68-40.766 24.058 0 44.062 17.704 47.68 40.766h-14.383c-3.426-15.23-17.051-26.64-33.297-26.64m17.601 26.637h-35.207c2.926-6.832 9.711-11.637 17.606-11.637 7.89 0 14.68 4.805 17.601 11.637m322.371 51.383a273 273 0 0 1-4.136 14.914 262 262 0 0 1-6.239 17.898c-18.277 46.864-48.52 83.989-89.882 110.348-.008.004-.086.055-.258.106a1.3 1.3 0 0 1-.363.066H179.539c-4.144 0-7.504 3.355-7.504 7.5s3.36 7.504 7.504 7.504h172.953v20.422c0 4.863-3.957 8.82-8.82 8.82H136.508c-4.863 0-8.82-3.957-8.82-8.82v-20.422h16.945a7.503 7.503 0 0 0 0-15.004h-21.934c-.105 0-.226-.02-.355-.059a1 1 0 0 1-.254-.109C41.426 401.18 20.5 319.359 15.328 273.039h449.438a282 282 0 0 1-6.493 36.379m0 0"/></svg>