<svg xmlns="http://www.w3.org/2000/svg" viewBox="-103 0 512 512.001"><path fill="#dfede7" d="M135.992 84.313V7.394h-83.84v76.918c0 33.93-7.652 67.421-22.379 97.988a225.7 225.7 0 0 0-22.378 97.984v206.543c0 9.82 7.96 17.777 17.78 17.777h137.79c9.82 0 17.781-7.96 17.781-17.777V280.285c0-33.93-7.648-67.422-22.379-97.988a225.74 225.74 0 0 1-22.375-97.984m0 0"/><path fill="#d7e0dc" d="M158.367 182.297a225.74 225.74 0 0 1-22.375-97.984V7.394H79.141v76.918c0 33.93 7.648 67.421 22.379 97.988a225.7 225.7 0 0 1 22.378 97.984v206.543c0 9.82-7.964 17.781-17.78 17.781h56.847c9.82 0 17.781-7.96 17.781-17.78V280.284c0-33.93-7.648-67.422-22.379-97.988m0 0"/><path fill="#fc4e51" d="M29.773 182.297a225.7 225.7 0 0 0-22.378 97.988v206.54c0 9.82 7.96 17.78 17.78 17.78H162.97c9.82 0 17.777-7.96 17.777-17.78v-206.54c0-33.93-7.648-67.422-22.375-97.988a225.7 225.7 0 0 1-21.39-77.067H51.16a225.6 225.6 0 0 1-21.388 77.067m0 0"/><path fill="#ea3942" d="M158.367 182.297a245 245 0 0 1-2.437-5.242c-.254-.57-.504-1.145-.754-1.715a230 230 0 0 1-2.39-5.625q-.713-1.74-1.391-3.492c-.258-.66-.52-1.32-.77-1.985a205 205 0 0 1-1.668-4.558c-.305-.86-.594-1.72-.89-2.582-.376-1.11-.75-2.215-1.11-3.328-.3-.926-.586-1.856-.875-2.786q-.393-1.265-.773-2.543-.453-1.53-.887-3.066c-.2-.715-.39-1.43-.582-2.145a222 222 0 0 1-3-12.492q-.095-.427-.184-.855c-.285-1.38-.55-2.766-.812-4.149q-.101-.561-.207-1.129a223 223 0 0 1-.739-4.289c-.027-.168-.05-.332-.078-.496-.77-4.84-1.386-9.707-1.84-14.59H80.13c2.488 26.7 9.7 52.81 21.39 77.067a225.76 225.76 0 0 1 22.38 97.988v206.54c0 9.82-7.965 17.78-17.782 17.78h56.848c9.82 0 17.781-7.96 17.781-17.78v-206.54c0-33.93-7.648-67.422-22.379-97.988m0 0"/><path fill="#fccf3f" d="M137.754 57.934H50.387c-5.715 0-10.348-4.633-10.348-10.348V17.738c0-5.715 4.633-10.343 10.348-10.343h87.367c5.715 0 10.348 4.632 10.348 10.343v29.848c0 5.715-4.633 10.348-10.348 10.348m0 0"/><path fill="#efc03c" d="M91.465 57.934h46.289c5.715 0 10.348-4.633 10.348-10.348V17.738c0-5.71-4.633-10.343-10.344-10.343H91.465zm0 0"/><path fill="#fccf3f" d="M7.395 280.285h173.351v178.258H7.395zm0 0"/><path fill="#efc03c" d="M123.898 280.285h56.848v178.258h-56.848zm0 0"/><path fill="#fc4e51" d="M299.05 399.46c0-54.491-45.706-76.32-102.09-76.32-56.382 0-102.089 21.829-102.089 76.32s45.707 105.145 102.09 105.145 102.09-50.656 102.09-105.144m0 0"/><path fill="#ea3942" d="M196.96 323.14c-9.862 0-19.401.673-28.425 2.067 42.555 6.574 73.668 29.293 73.668 74.254 0 44.957-31.117 87.297-73.668 100.738a94.2 94.2 0 0 0 28.426 4.406c56.383 0 102.09-50.656 102.09-105.148s-45.707-76.316-102.09-76.316m0 0"/><path fill="#a0e557" d="M296.152 359.23c-11.629-30.488-47.5-53.59-99.191-53.59s-87.559 23.102-99.188 53.59c5.938 1.614 50.008-18.566 50.008-18.566s-11.18 28.504-8.945 40.238c.93 4.875 15.082-8.109 30.484-23.285 0 0 11.262 51.883 27.64 51.883 16.384 0 27.645-51.883 27.645-51.883 15.403 15.176 29.555 28.16 30.48 23.285 2.24-11.734-8.94-40.238-8.94-40.238s44.066 20.18 50.007 18.566m0 0"/><path fill="#93cc4a" d="M196.96 305.64c-3.96 0-7.82.153-11.593.415 22.637 15.754 42.797 44.34 50.88 62.761q.004.001.003.008c10.27 9.547 18.152 15.676 18.836 12.082 2.238-11.738-8.941-40.242-8.941-40.242s44.066 20.18 50.007 18.566c-11.629-30.488-47.5-53.59-99.191-53.59m0 0"/><path d="M299.781 365.66a7.4 7.4 0 0 0 2.961-3.078 7.4 7.4 0 0 0 .317-5.988c-6.543-17.153-19.625-31.684-37.829-42.024-17.007-9.656-37.949-15.18-60.918-16.152.77-8.402 5.016-22.094 24.168-24.668 4.047-.543 6.887-4.266 6.344-8.312s-4.27-6.883-8.312-6.344c-21.586 2.902-30.535 15.844-34.239 26.191-1.726 4.82-2.449 9.434-2.722 13.137-.469.02-.942.031-1.41.055v-18.192c0-34.828-7.993-69.82-23.114-101.2a215 215 0 0 1-4.605-10.226 7.4 7.4 0 0 0-9.68-3.957 7.397 7.397 0 0 0-3.957 9.68 233 233 0 0 0 4.922 10.926c13.094 27.164 20.465 57.226 21.504 87.383H14.93c1.039-30.157 8.41-60.215 21.504-87.383A232.2 232.2 0 0 0 57.8 112.62h72.539a234 234 0 0 0 5.172 27.992 7.396 7.396 0 0 0 8.957 5.395 7.397 7.397 0 0 0 5.394-8.961 219 219 0 0 1-5.52-32.504 219 219 0 0 1-.956-20.23V64.394c7.027-2.36 12.11-8.997 12.11-16.81V17.739C155.496 7.957 147.538 0 137.753 0H50.383c-9.781 0-17.738 7.957-17.738 17.738v29.848c0 7.812 5.082 14.45 12.113 16.809v19.918c0 6.593-.324 13.402-.961 20.234-2.418 26-9.379 51.082-20.684 74.543C7.993 210.465 0 245.46 0 280.285v206.54C0 500.706 11.293 512 25.176 512h137.793c3.894 0 7.683-.895 11.129-2.598A102 102 0 0 0 196.96 512c28.941 0 56.484-12.23 77.555-34.445 20.293-21.39 31.933-49.856 31.933-78.094-.004-12.477-2.238-23.79-6.668-33.8M59.121 97.836c.27-4.559.422-9.09.422-13.523V65.323h69.055v18.989c0 4.437.152 8.964.422 13.523zM47.434 17.738a2.956 2.956 0 0 1 2.953-2.953h87.37a2.955 2.955 0 0 1 2.95 2.953v29.848a2.955 2.955 0 0 1-2.95 2.953h-87.37a2.956 2.956 0 0 1-2.953-2.953zM196.96 313.031c23.297 0 44.379 4.98 60.969 14.399 9.648 5.48 17.543 12.289 23.375 20.097-9.262-3.535-21.395-8.691-32.082-13.586a7.395 7.395 0 0 0-9.96 9.422c2.74 7 5.971 17.028 7.632 25.114-3.84-3.36-9.31-8.446-17.102-16.125a7.39 7.39 0 0 0-12.414 3.695c-.027.125-2.758 12.59-7.379 24.918-7.586 20.234-12.988 21.144-13.04 21.144-.05 0-5.429-.906-12.991-21.015-4.633-12.324-7.399-24.922-7.426-25.047a7.39 7.39 0 0 0-5.117-5.516 7.389 7.389 0 0 0-7.297 1.82c-7.793 7.676-13.262 12.762-17.098 16.122 1.664-8.082 4.887-18.106 7.63-25.11a7.395 7.395 0 0 0-9.962-9.422c-10.687 4.895-22.824 10.051-32.082 13.586 5.832-7.808 13.723-14.617 23.375-20.097 16.59-9.418 37.672-14.399 60.969-14.399M25.176 497.211c-5.727 0-10.387-4.66-10.387-10.387v-20.887h62.758a7.394 7.394 0 0 0 7.394-7.394 7.39 7.39 0 0 0-7.394-7.395H14.789V287.68h158.563v12.218c-16.594 2.391-31.758 7.344-44.66 14.672-18.204 10.34-31.286 24.871-37.829 42.024a7.4 7.4 0 0 0 .317 5.988 7.43 7.43 0 0 0 2.96 3.078c-4.43 10.012-6.663 21.324-6.663 33.797 0 28.238 11.64 56.703 31.933 78.098 7.422 7.824 15.653 14.406 24.461 19.656zm238.613-29.832c-18.254 19.238-41.984 29.832-66.828 29.832-7.36 0-14.617-.938-21.668-2.746a8 8 0 0 0-.969-.246c-16.379-4.403-31.59-13.563-44.187-26.84-17.711-18.676-27.871-43.43-27.871-67.922 0-14.031 3.328-26.137 9.898-36.016 4.031-1.406 9.121-3.363 15.656-6.054a616 616 0 0 0 7.54-3.164c-2.766 9.464-5.18 20.754-3.786 28.066.613 3.219 2.793 5.707 5.828 6.652 5.336 1.668 10.485-.605 27.942-17.171 1.25 4.312 2.836 9.335 4.73 14.386 7.754 20.684 16.551 30.739 26.887 30.739 10.34 0 19.133-10.055 26.887-30.739 1.894-5.05 3.484-10.074 4.73-14.386 17.457 16.566 22.606 18.84 27.945 17.171 3.036-.945 5.215-3.433 5.825-6.652 1.394-7.312-1.02-18.601-3.782-28.066 2.41 1.03 4.961 2.101 7.54 3.164 6.53 2.691 11.624 4.648 15.656 6.054 6.566 9.883 9.898 21.985 9.898 36.016 0 24.492-10.16 49.246-27.87 67.922m0 0"/></svg>