<svg xmlns="http://www.w3.org/2000/svg" viewBox="-100 0 511 511.998"><path fill="#f3e8d7" d="M286.535 154.742H24.996l40.84 340.317a10.716 10.716 0 0 0 10.64 9.441h158.579c5.425 0 9.996-4.055 10.64-9.441zm0 0"/><path fill="#fc4e51" d="M77.3 159.285H25.54L65.835 495.06a10.716 10.716 0 0 0 10.64 9.441h24.965zM137.66 504.5h36.215l8.047-345.215h-52.309zm0 0"/><path fill="#ea3942" d="M285.992 159.285H234.23L210.09 504.5h24.965c5.425 0 9.996-4.055 10.64-9.441zm0 0"/><path fill="#f3e8d7" d="M259.43 106.89H52.102a6.22 6.22 0 0 0-6.094 4.965l-9.52 46.153h238.555l-9.52-46.153a6.225 6.225 0 0 0-6.093-4.964m0 0"/><path fill="#e5d8c6" d="M265.523 111.855a6.225 6.225 0 0 0-6.093-4.964h-51.875l1.445 4.824c1.168 5.656-3.152 10.96-8.93 10.96l-156.289-.027-7.293 35.36h238.555zm0 0"/><path fill="#f3e8d7" d="M294.375 180.344H17.156c-5.058 0-9.156-4.102-9.156-9.16v-24.282c0-5.058 4.098-9.16 9.156-9.16h277.219c5.059 0 9.156 4.102 9.156 9.16v24.282c0 5.058-4.097 9.16-9.156 9.16m0 0"/><path fill="#e5d8c6" d="M294.375 137.742h-48.508v17.938c0 6.074-4.926 10.996-11 10.996H17.157c-5.06 0-9.157-4.102-9.157-9.16v13.668c0 5.058 4.098 9.16 9.156 9.16h277.219c5.059 0 9.156-4.102 9.156-9.16v-24.282c0-5.058-4.097-9.16-9.156-9.16m0 0"/><path fill="#efa335" d="M231.914 329.36c0 42.054-34.094 76.148-76.148 76.148s-76.149-34.094-76.149-76.149c0-42.058 34.094-76.148 76.149-76.148s76.148 34.09 76.148 76.148m0 0"/><path d="M155.766 245.71c-46.125 0-83.649 37.524-83.649 83.65 0 .808.04 1.609.063 2.41v.035c1.3 44.996 38.28 81.203 83.586 81.203 45.675 0 82.894-36.805 83.613-82.309.004-.062.004-.12.008-.183.004-.387.027-.77.027-1.157 0-46.125-37.523-83.648-83.648-83.648m0 152.298c-35.856 0-65.364-27.637-68.38-62.727 13.637-10.015 35.489-17.886 66.063-4.785 12.067 5.172 31.828 11.934 52.625 11.934 5.766 0 11.606-.532 17.387-1.746-5.414 32.48-33.7 57.324-67.695 57.324m3.593-81.297c-31.238-13.387-55.293-7.871-71.132.434 5.78-32.043 33.855-56.434 67.539-56.434 36.398 0 66.257 28.48 68.5 64.328-12.086 3.379-33.641 5.07-64.907-8.328m0 0"/><path d="M294.375 130.242h-17.402l-4.106-19.902c-1.308-6.344-6.96-10.95-13.437-10.95h-95.657V33.68c0-.965.61-1.836 1.508-2.157l47.332-16.96a7.497 7.497 0 0 0 4.532-9.59 7.5 7.5 0 0 0-9.59-4.532L160.21 17.406c-6.84 2.461-11.438 9-11.438 16.274v65.71H52.102c-6.48 0-12.13 4.606-13.438 10.95l-4.105 19.902H17.156C7.973 130.242.5 137.715.5 146.898v24.286c0 9.183 7.473 16.656 16.656 16.656h4.258l36.977 308.11c1.097 9.148 8.875 16.05 18.09 16.05h158.574c9.215 0 16.988-6.902 18.09-16.05l36.972-308.11h4.258c9.184 0 16.656-7.473 16.656-16.656v-24.286c0-9.183-7.472-16.656-16.656-16.656m-241.23-15.851h205.242l3.27 15.851H49.87zM238.25 494.164a3.22 3.22 0 0 1-3.195 2.836h-16.922l5.183-74.168a7.497 7.497 0 0 0-6.957-8.004c-4.125-.293-7.714 2.824-8.004 6.957L203.094 497H181.55l1.375-59a7.504 7.504 0 0 0-7.324-7.676c-4.122-.047-7.575 3.184-7.672 7.324L166.547 497h-21.563l-1.37-58.895c-.098-4.14-3.524-7.402-7.673-7.324a7.504 7.504 0 0 0-7.324 7.676L129.98 497h-21.542l-5.258-75.215c-.293-4.129-3.883-7.254-8.008-6.957a7.5 7.5 0 0 0-6.957 8.004L93.402 497H76.48a3.224 3.224 0 0 1-3.199-2.836L36.52 187.844H71.78l4.082 58.363a7.501 7.501 0 0 0 14.965-1.047l-4.008-57.316h35.953l.79 33.797a7.5 7.5 0 0 0 7.496 7.324h.175c4.141-.098 7.422-3.531 7.325-7.672l-.782-33.45h35.977l-.781 33.45a7.5 7.5 0 0 0 7.324 7.672h.176a7.5 7.5 0 0 0 7.496-7.324l.789-33.797h35.953l-4.008 57.316a7.5 7.5 0 0 0 6.961 8.004c4.14.297 7.715-2.828 8.004-6.957l4.082-58.363h35.258zm57.781-322.98c0 .914-.742 1.656-1.656 1.656H17.156a1.657 1.657 0 0 1-1.656-1.656v-24.282c0-.914.742-1.66 1.656-1.66h277.219a1.66 1.66 0 0 1 1.656 1.66zm0 0"/></svg>