<svg xmlns="http://www.w3.org/2000/svg" viewBox="-18 1 511 511.999"><path fill="#fc4e51" d="M422.152 341.246H54.738c-12.62 0-22.851 10.234-22.851 22.856v20.02a8.996 8.996 0 0 0 8.996 8.995h395.129a8.996 8.996 0 0 0 8.996-8.996v-20.02c0-12.62-10.235-22.855-22.856-22.855m0 0"/><path fill="#ea3942" d="M422.152 341.246H364.45c12.621 0 22.852 10.234 22.852 22.856v29.015h48.707c4.972 0 9-4.027 9-8.996v-20.02c0-12.62-10.235-22.855-22.856-22.855m0 0"/><path fill="#fc4e51" d="M422.152 236.563H54.738c-12.62 0-22.851-10.235-22.851-22.856v-29.016h413.12v29.016c0 12.621-10.234 22.856-22.855 22.856m0 0"/><path fill="#ea3942" d="M387.3 184.691v29.016c0 12.621-10.23 22.856-22.85 22.856h57.702c12.625 0 22.856-10.235 22.856-22.856v-29.016zm0 0"/><path fill="#912c2c" d="M422.152 321.004H54.738c-12.62 0-22.851-10.234-22.851-22.856v-43.324h413.12v43.324c0 12.622-10.234 22.856-22.855 22.856m0 0"/><path fill="#7c1e1e" d="M387.3 254.824v43.324c0 12.622-10.23 22.856-22.85 22.856h57.702c12.625 0 22.856-10.234 22.856-22.856v-43.324zm0 0"/><path fill="#efa335" d="M450.172 388.512H26.719c-10.332 0-18.711 8.379-18.711 18.71 0 53.723 43.55 97.274 97.273 97.274h266.332c53.723 0 97.274-43.55 97.274-97.273 0-10.332-8.38-18.711-18.715-18.711m0 0"/><path fill="#fd8f31" d="M450.172 388.512H411.18v18.71c0 53.723-43.551 97.274-97.274 97.274h57.707c53.723 0 97.274-43.55 97.274-97.273 0-10.332-8.38-18.711-18.715-18.711m0 0"/><path fill="#a0e557" d="M440.41 231.5c12.059 0 22.227 9.883 22.238 22.29.012 17.718-20.46 27.093-44.246 23.66-22.215-3.208-22.492-13.294-44.988-13.294s-22.496 13.293-44.988 13.293c-22.496 0-22.496-13.293-44.989-13.293-22.496 0-22.496 13.293-44.992 13.293-22.492 0-22.492-13.293-44.988-13.293-22.492 0-22.492 13.293-44.988 13.293s-22.496-13.293-44.989-13.293c-22.496 0-22.777 10.086-44.988 13.293-23.785 3.434-44.258-5.941-44.246-23.66.012-12.406 10.18-22.289 22.238-22.289zm0 0"/><path fill="#fccf3f" d="M445.938 310.527H31.426c-8.996 0-16.739 6.914-17.16 15.903-.454 9.597 7.195 17.52 16.691 17.52h198.012a73.2 73.2 0 0 1 29.75 6.32l61.574 27.402a54.13 54.13 0 0 0 47.8-1.86l42.516-23.03a73.2 73.2 0 0 1 34.852-8.833c9 0 16.742-6.914 17.164-15.902.453-9.598-7.191-17.52-16.687-17.52m0 0"/><path fill="#efa335" d="M238.445 7.504C23.895 7.582 8.008 149.12 8.008 169.164c0 10.332 8.379 18.711 18.71 18.711h423.454c10.336 0 18.715-8.379 18.715-18.71C468.887 149.12 453 7.581 238.445 7.503m0 0"/><path fill="#fd8f31" d="M468.871 168.066q.001-.03-.004-.066a53 53 0 0 0-.043-1.234q-.002-.05-.004-.098-.03-.662-.078-1.406-.004-.05-.008-.098-.052-.766-.12-1.613-.006-.03-.005-.059a118 118 0 0 0-1.046-8.46v-.005C460.96 113.45 424.008 7.574 238.445 7.504c-10.047.004-19.656.32-28.851.914 140.43 9.121 183.613 84.297 196.426 129.336 4.152 14.605-6.926 29.11-22.11 29.11H26.72c-7.903 0-14.645-4.907-17.387-11.833-1.035 6.496-1.324 11.426-1.324 14.133 0 10.336 8.379 18.711 18.71 18.711h423.454c10.336 0 18.715-8.375 18.715-18.71q-.002-.5-.016-1.099m0 0"/><path fill="#93cc4a" d="M462.434 250.758c-1.504-10.946-10.965-19.254-22.024-19.254h-35.683v42.336c3.593 1.469 7.886 2.773 13.675 3.61 22.38 3.23 41.82-4.88 44.032-20.61zm0 0"/><path fill="#efc03c" d="M462.434 324.563c-1.282-7.958-8.18-14.036-16.496-14.036h-41.211v45.442l5.886-3.188a73.16 73.16 0 0 1 34.852-8.832c8.379 0 15.664-6.004 16.969-14.09zm0 0"/><path d="M452.512 381.117v-17.015c0-4.586-1.016-9.004-2.907-12.993 11.274-1.859 19.977-11.164 20.52-22.71.313-6.692-2.055-13.04-6.668-17.876a24.3 24.3 0 0 0-11.492-6.73c.351-1.852.547-3.738.547-5.645v-17.773c2.836-1.41 5.418-3.078 7.652-5.016 6.54-5.664 9.992-13.125 9.984-21.574-.007-13.035-8.414-24.133-20.07-28.164a30.4 30.4 0 0 0 2.434-11.918V195.27c13.363-1.188 23.875-12.442 23.875-26.106 0-1.969-.414-48.703-36.442-93.047-18.304-22.531-42.535-40.375-72.02-53.035C332.298 7.785 288.73.02 238.442 0c-57.558.02-106.14 10.168-144.39 30.16a7.5 7.5 0 0 0-3.172 10.125c1.918 3.676 6.457 5.098 10.125 3.176 36.082-18.86 82.324-28.43 137.437-28.45 48.243.016 89.813 7.372 123.563 21.864 27.23 11.691 49.535 28.078 66.293 48.707 26.168 32.207 33.082 68.758 33.082 83.582 0 6.18-5.027 11.207-11.207 11.207H26.719c-6.18 0-11.207-5.027-11.207-11.207 0-6.855 1.949-23.512 9.261-42.457 9.918-25.7 26.086-47.582 48.063-65.035A7.506 7.506 0 1 0 63.5 49.918C1.219 99.391.5 166.336.5 169.164c0 13.668 10.516 24.918 23.879 26.106v18.437c0 4.164.848 8.203 2.433 11.918-11.66 4.027-20.062 15.125-20.074 28.16-.004 8.45 3.45 15.91 9.989 21.574 2.234 1.942 4.812 3.61 7.652 5.02v17.77c0 1.933.2 3.847.558 5.722-10.113 2.68-17.667 11.473-18.171 22.207-.313 6.692 2.054 13.04 6.668 17.875a24.36 24.36 0 0 0 13.847 7.215 30.35 30.35 0 0 0-2.902 12.934v17.015C11.012 382.305.5 393.555.5 407.223.5 464.996 47.504 512 105.277 512H371.61c57.774 0 104.778-47.004 104.778-104.777.004-13.668-10.512-24.918-23.875-26.106M39.39 195.38h398.113v18.328c0 3.852-1.445 7.484-3.996 10.29H43.383a15.26 15.26 0 0 1-3.992-10.29zM21.75 253.797c.008-8.156 6.613-14.79 14.734-14.79H440.41c8.117 0 14.727 6.634 14.73 14.79.005 4.07-1.566 7.418-4.804 10.223-6.383 5.527-18.203 7.824-30.86 6-8.91-1.286-13.597-3.735-18.562-6.329-6.621-3.46-13.469-7.039-27.5-7.039-13.3 0-20.21 4.086-26.312 7.692-5.297 3.129-9.485 5.601-18.68 5.601s-13.379-2.472-18.676-5.601c-6.098-3.606-13.012-7.692-26.309-7.692-13.3 0-20.214 4.086-26.312 7.692-5.297 3.129-9.484 5.601-18.68 5.601s-13.379-2.472-18.675-5.601c-6.098-3.606-13.012-7.692-26.313-7.692-13.297 0-20.21 4.086-26.312 7.692-5.297 3.129-9.48 5.601-18.676 5.601s-13.38-2.472-18.676-5.601c-6.102-3.606-13.016-7.692-26.313-7.692-14.035 0-20.878 3.578-27.5 7.04-4.964 2.593-9.652 5.042-18.562 6.328-12.652 1.824-24.48-.473-30.86-6-3.238-2.805-4.812-6.153-4.808-10.223m2.543 79.793c-1.754-1.836-2.652-4.254-2.531-6.809.226-4.824 4.566-8.75 9.668-8.75H326.53a7.504 7.504 0 1 0 0-15.008H40.195a15.2 15.2 0 0 1-.804-4.875v-13.207c3.093.465 6.32.704 9.636.704 3.434 0 6.961-.254 10.535-.77 11.446-1.652 17.778-4.96 23.368-7.883 5.922-3.094 10.203-5.328 20.55-5.328 9.196 0 13.38 2.473 18.676 5.602 6.102 3.601 13.016 7.687 26.313 7.687 13.3 0 20.21-4.086 26.312-7.687 5.297-3.13 9.48-5.602 18.676-5.602s13.379 2.473 18.676 5.602c6.101 3.601 13.015 7.687 26.312 7.687 13.301 0 20.215-4.086 26.313-7.687 5.297-3.13 9.484-5.602 18.68-5.602 9.19 0 13.375 2.473 18.671 5.602 6.102 3.601 13.016 7.687 26.313 7.687 13.3 0 20.215-4.086 26.312-7.687 5.301-3.13 9.485-5.602 18.68-5.602 10.348 0 14.625 2.234 20.55 5.328 5.587 2.922 11.923 6.23 23.368 7.883 7.031 1.016 13.867.996 20.172.055v13.218c0 1.672-.281 3.313-.805 4.875h-75.125a7.504 7.504 0 1 0 0 15.008h84.364a9.13 9.13 0 0 1 6.66 2.856c1.754 1.836 2.652 4.254 2.535 6.808-.23 4.825-4.567 8.75-9.668 8.75-3.992 0-7.973.305-11.91.895q-.152.019-.305.043a80.9 80.9 0 0 0-26.21 8.8l-42.517 23.032c-12.644 6.847-28.039 7.45-41.175 1.601l-61.578-27.402a80.15 80.15 0 0 0-32.801-6.969H30.957a9.13 9.13 0 0 1-6.664-2.855M437.5 364.102v16.906h-63.234l39.921-21.625a65.8 65.8 0 0 1 18.297-6.621 15.25 15.25 0 0 1 5.016 11.34m-128.172 16.906H39.391v-16.906c0-5.098 2.52-9.801 6.668-12.649h182.91a65.2 65.2 0 0 1 26.699 5.672zm62.285 115.98H105.277c-49.496 0-89.765-40.265-89.765-89.765 0-6.18 5.027-11.207 11.207-11.207h423.453c6.18 0 11.207 5.027 11.207 11.207 0 49.5-40.27 89.765-89.766 89.765m0 0"/></svg>