<svg xmlns="http://www.w3.org/2000/svg" viewBox="-60 0 512 512.001"><path fill="#fccf3f" d="m174.86 324.031-19.067 1.86c-6.613.644-12.66-3.938-13.586-10.32L100.555 27.862c-1.22-8.43 4.086-16.074 11.804-16.941l29.801-3.34c7.75-.871 14.762 5.414 15.582 13.91L185.7 311.31c.621 6.425-4.215 12.078-10.84 12.722m0 0"/><path fill="#efc03c" d="m125.36 345.89-18.938.942c-6.57.328-12.442-4.437-13.18-10.723L59.922 52.88c-.977-8.293 4.496-15.477 12.172-15.914l29.597-1.692c7.692-.437 14.457 6.055 15.032 14.383l19.715 284.293c.437 6.309-4.504 11.613-11.079 11.942m0 0"/><path fill="#fccf3f" d="m97.047 365.71-18.563 2.138c-6.433.742-12.613-3.551-13.879-9.664L7.828 83.402c-1.656-8.027 3.09-15.437 10.57-16.43l28.883-3.824c7.512-.996 14.707 4.86 15.985 12.961l43.675 277.168c.973 6.164-3.441 11.688-9.894 12.434M218.121 324.031l19.066 1.86c6.614.644 12.66-3.938 13.586-10.32l41.649-287.704c1.223-8.43-4.082-16.078-11.805-16.941l-29.8-3.344c-7.747-.867-14.758 5.414-15.579 13.914L207.281 311.31c-.62 6.425 4.211 12.078 10.84 12.722m0 0"/><path fill="#efc03c" d="m267.621 345.89 18.938.942c6.57.328 12.441-4.437 13.18-10.723l33.32-283.23c.976-8.293-4.496-15.477-12.172-15.914l-29.602-1.692c-7.687-.437-14.453 6.055-15.027 14.383L256.543 333.95c-.438 6.309 4.5 11.613 11.078 11.942m0 0"/><path fill="#fccf3f" d="m295.93 365.71 18.566 2.138c6.434.742 12.613-3.551 13.875-9.664l56.777-274.778c1.66-8.027-3.086-15.441-10.566-16.433l-28.883-3.825c-7.512-.992-14.707 4.86-15.984 12.965l-43.68 277.164c-.973 6.164 3.442 11.688 9.895 12.434m0 0"/><path fill="#efc03c" d="M202.992 355.07H184.07c-6.566 0-11.972-5-12.132-11.254l-7.204-281.68c-.21-8.245 5.891-15.034 13.57-15.034h29.583c7.675 0 13.8 6.789 13.613 15.035l-6.406 281.68c-.14 6.253-5.535 11.253-12.102 11.253m0 0"/><path fill="#fccf3f" d="m203.8 380.984-17.378 7.13c-6.031 2.472-13-.012-15.66-5.606L51.16 130.832c-3.496-7.36-.637-15.812 6.383-18.746l27.062-11.316c7.028-2.938 15.364.843 18.5 8.367l107.293 257.101c2.387 5.711-.562 12.27-6.597 14.746m0 0"/><path fill="#efc03c" d="m203.98 425.918-18.761.867c-6.512.3-12.239-4.387-12.86-10.55l-27.937-277.243c-.817-8.105 4.719-15.105 12.316-15.508l29.293-1.546c7.606-.403 14.18 5.964 14.606 14.101L215.16 414.25c.32 6.184-4.66 11.371-11.18 11.668M284.934 379.426l18.226.816c6.324.285 11.996-4.148 12.735-9.972l33.066-261.118c.96-7.605-4.254-14.172-11.602-14.547l-28.336-1.453c-7.359-.375-13.863 5.598-14.453 13.23l-20.242 262.013c-.453 5.843 4.274 10.746 10.606 11.03m0 0"/><path fill="#fccf3f" d="m214.781 421.738 19.801 3.121c6.871 1.086 13.34-3.558 14.516-10.414l46.5-271.625c1.199-6.988-3.551-13.605-10.555-14.707l-26.984-4.254c-7.004-1.105-13.559 3.73-14.57 10.746l-39.317 272.758c-.992 6.887 3.734 13.293 10.61 14.375m0 0"/><path fill="#fc4e51" d="M288.664 175.262c-3.96 0-7.48 2.465-8.898 6.164-12.852 33.469-45.282 57.234-83.278 57.234-37.992 0-70.422-23.765-83.273-57.234-1.422-3.7-4.938-6.164-8.899-6.164h-87.3c-5.899 0-10.38 5.32-9.375 11.133l53.476 310.207a9.516 9.516 0 0 0 9.38 7.898h251.987a9.516 9.516 0 0 0 9.38-7.898l53.476-310.207c1.004-5.817-3.477-11.133-9.38-11.133zm0 0"/><path fill="#ea3942" d="M375.96 175.262h-60.022c5.902 0 10.378 5.32 9.375 11.133l-53.477 310.21a9.515 9.515 0 0 1-9.375 7.895h60.023a9.516 9.516 0 0 0 9.38-7.895l53.476-310.21c1.004-5.817-3.477-11.133-9.38-11.133m0 0"/><path fill="#f3e8d7" d="M360.578 330.027H32.402l10.383 60.243h307.406zm0 0"/><path fill="#e5d8c6" d="M360.578 330.027h-60.027l-10.387 60.243h60.027zm0 0"/><path fill="#efa335" d="M274.664 361.941c0 43.172-35 78.172-78.176 78.172-43.172 0-78.172-35-78.172-78.172 0-43.175 35-78.171 78.172-78.171 43.176 0 78.176 34.996 78.176 78.171m0 0"/><path fill="#fd8f31" d="M231.805 292.207a78.2 78.2 0 0 1 3.308 22.52c0 43.175-35 78.171-78.175 78.171a77.8 77.8 0 0 1-35.313-8.437c9.672 32.191 39.523 55.652 74.863 55.652 43.176 0 78.172-35 78.172-78.172.004-30.46-17.433-56.836-42.855-69.734m0 0"/><path d="M196.488 276.27c-47.238 0-85.672 38.433-85.672 85.671s38.434 85.672 85.672 85.672c47.242 0 85.672-38.433 85.672-85.672s-38.43-85.671-85.672-85.671m0 156.343c-38.968 0-70.672-31.703-70.672-70.672s31.704-70.671 70.672-70.671c38.973 0 70.676 31.703 70.676 70.671s-31.703 70.672-70.676 70.672m0 0"/><path d="M375.96 167.766h-.585l17.117-82.844c1.262-6.102.012-12.379-3.43-17.219-3.222-4.539-8.019-7.437-13.5-8.164l-28.882-3.824a20.3 20.3 0 0 0-6.43.191l.254-2.152c.734-6.246-1.063-12.477-4.934-17.086-3.625-4.32-8.687-6.875-14.258-7.191l-21.386-1.223c.703-6.074-.93-12.184-4.54-16.856-3.472-4.492-8.421-7.308-13.933-7.925l-29.8-3.344c-5.508-.621-10.981 1.02-15.41 4.613-4.774 3.871-7.86 9.715-8.473 16.031l-2.711 28.102a21.2 21.2 0 0 0-2.43-2.992c-3.961-4.051-9.195-6.281-14.742-6.281h-29.582c-3.934 0-7.696 1.14-10.97 3.238l-2.128-22.067c-.61-6.316-3.7-12.16-8.473-16.03-4.425-3.595-9.894-5.231-15.41-4.614l-29.8 3.344c-5.512.617-10.462 3.433-13.934 7.925-3.61 4.672-5.242 10.782-4.54 16.856l-21.386 1.223c-5.566.316-10.633 2.87-14.258 7.191-3.87 4.61-5.668 10.84-4.933 17.086l.254 2.156a20.2 20.2 0 0 0-6.43-.195l-28.883 3.824c-5.48.727-10.273 3.625-13.5 8.164C.473 72.543-.777 78.82.484 84.922l17.118 82.844h-.586c-5.028 0-9.77 2.203-13.012 6.05A16.97 16.97 0 0 0 .25 187.668l53.477 310.21A16.98 16.98 0 0 0 70.497 512h251.987a16.974 16.974 0 0 0 16.766-14.121l53.48-310.211a16.99 16.99 0 0 0-3.753-13.852 16.98 16.98 0 0 0-13.016-6.05m-37.897-93.23c1.425-2.657 4.105-4.298 6.652-3.95l28.883 3.82c1.672.223 2.683 1.2 3.238 1.985 1.035 1.457 1.39 3.46.969 5.496l-17.742 85.875h-10.965l7.3-57.664c.739-5.809-.925-11.633-4.562-15.977-3.54-4.234-8.547-6.723-14.094-7.008l-1.156-.058zm-10.231 27.089 9.145.469c1.707.09 2.77.949 3.359 1.652.98 1.172 1.398 2.758 1.184 4.465l-7.543 59.555h-35.04l4.055-23.68c.84-4.902-.144-9.816-2.73-14.004l1.785-23.121c.172-2.246 1.41-4.223 3.125-5.348 1.027-.672 2.226-1.039 3.469-.968l19.18.98zm-37.238-58.863c.097.004.195-.004.297.004h.004l29.566 1.683c1.789.106 2.96 1.07 3.625 1.86 1.223 1.46 1.777 3.535 1.523 5.691l-2.3 19.586s-.004.004-.004.008l-1.727 14.691-12.172-.62c-11.414-.587-21.414 8.448-22.316 20.14l-1.149 14.855-7.015-1.105 4.812-69.38c.282-4.116 3.407-7.44 6.856-7.413m-2.387 98.793-4.617 26.972c-4.89 1.516-8.899 5.196-10.824 10.211-5.86 15.258-16.063 28.297-29.508 37.711a81 81 0 0 1-4.403 2.86l12.06-83.633a5.16 5.16 0 0 1 2.065-3.453 5.16 5.16 0 0 1 3.91-.957l12.794 2.015q.005-.001.02.004l14.171 2.235c1.39.218 2.61.968 3.43 2.113a5.18 5.18 0 0 1 .902 3.922m-62.246 54.18 16.738-173.52c.23-2.344 1.317-4.465 2.992-5.824.907-.735 2.395-1.57 4.29-1.356l29.804 3.34c1.848.207 3.05 1.309 3.73 2.191 1.278 1.653 1.82 3.922 1.485 6.227l-.262 1.805c-.125.039-.246.086-.37.125q-.236.076-.466.16c-.468.16-.933.336-1.386.531a21.194 21.194 0 0 0-2.918 1.512c-.075.043-.145.09-.22.137-.51.328-1.015.675-1.5 1.046-.042.032-.085.059-.128.094q-.392.3-.766.617l-.164.14a23 23 0 0 0-1.547 1.462c-.203.21-.41.426-.605.648a22 22 0 0 0-.629.739q-.285.35-.559.707-.203.275-.406.558-.26.364-.511.746-.283.434-.547.88-.164.273-.317.554a23 23 0 0 0-.539 1.023c-.078.164-.16.332-.234.5q-.246.528-.469 1.075l-.176.441q-.258.68-.48 1.379-.052.17-.098.348c-.129.425-.242.859-.348 1.3-.02.094-.046.188-.066.285a25 25 0 0 0-.289 1.543q-.026.179-.05.356c-.075.539-.137 1.086-.177 1.637l-4.718 68.07-4.832-.758c-5.383-.855-10.766.465-15.149 3.7a20.08 20.08 0 0 0-8.008 13.386l-10.316 71.574zM174.305 56.362c.78-.804 2.11-1.761 4-1.761h29.582c1.89 0 3.226.96 4.015 1.77 1.383 1.413 2.149 3.452 2.102 5.593L211.05 191.69l-2.926-56.039c-.305-5.843-2.75-11.261-6.883-15.257-4.285-4.141-9.82-6.254-15.61-5.946l-12.042.637-.254-9.844v-.004l-1.106-43.293c-.054-2.14.704-4.175 2.075-5.582m12.12 73.063c2.118-.098 3.665 1.05 4.391 1.754 1.399 1.347 2.227 3.215 2.332 5.254l4.942 94.695c-.531.008-1.067.027-1.602.027-12.656 0-24.933-2.87-36.086-8.379l-8.52-84.535c-.206-2.039.364-4.012 1.563-5.41.684-.793 1.875-1.762 3.688-1.86zm-76.964-108.86c.684-.886 1.887-1.984 3.734-2.191l29.801-3.34c1.902-.215 3.383.621 4.293 1.356 1.672 1.359 2.762 3.48 2.988 5.824l8.07 83.672.258 9.992-2.265.117c-5.55.297-10.621 2.809-14.281 7.074-3.856 4.5-5.715 10.575-5.102 16.676l4.125 40.922-9.305-22.297-7.574-109.23c-.039-.551-.101-1.094-.176-1.633-.015-.121-.035-.238-.05-.36a26 26 0 0 0-.29-1.546c-.019-.086-.042-.176-.062-.262a25 25 0 0 0-.352-1.336l-.093-.313a22 22 0 0 0-.64-1.789 24 24 0 0 0-.524-1.207c-.036-.078-.067-.156-.106-.226-.207-.438-.433-.86-.668-1.274q-.112-.204-.23-.41c-.239-.402-.485-.8-.742-1.183-.07-.106-.145-.207-.22-.313a20 20 0 0 0-.667-.914c-.094-.125-.192-.25-.285-.371q-.427-.533-.883-1.035c-.102-.114-.207-.223-.313-.336-.265-.281-.53-.551-.808-.813q-.122-.123-.25-.246c-.34-.316-.688-.617-1.047-.914q-.164-.133-.332-.265a24 24 0 0 0-1.14-.856q-.078-.046-.15-.094a20 20 0 0 0-1.16-.734q-.122-.075-.245-.145a19 19 0 0 0-1.333-.707c-.05-.027-.105-.05-.156-.074-.472-.222-.949-.433-1.437-.62q-.001-.006-.008-.005a21 21 0 0 0-1.543-.527.2.2 0 0 1-.05-.02l-.266-1.82c-.332-2.305.207-4.574 1.484-6.227M68.895 46.31c.664-.79 1.832-1.758 3.625-1.856l29.582-1.691h.02c.034 0 .073.004.108 0 3.516-.106 6.723 3.234 7.012 7.414l4.508 64.992-3.723-8.922c-2.254-5.394-6.379-9.676-11.62-12.047a22 22 0 0 0-1.973-.781q-.06-.019-.118-.043a23 23 0 0 0-1.93-.547c-.062-.012-.128-.031-.19-.047a21.3 21.3 0 0 0-4.282-.511c-.105 0-.21-.008-.312-.008-.332 0-.66.031-.993.047-.28.015-.566.02-.847.043-.422.039-.84.109-1.262.171-.262.043-.527.067-.79.118-.456.093-.91.214-1.366.336-.215.058-.434.101-.653.164-.668.203-1.328.437-1.98.71l-8.977 3.754-1.355-11.511-4.012-34.09c-.25-2.16.305-4.234 1.528-5.695m-8.461 72.695 4.441-1.86 4.465-1.863h.004l18.156-7.594c1.96-.816 3.8-.242 4.723.172 1.77.805 3.175 2.282 3.964 4.164l37.348 89.497a81.5 81.5 0 0 1-13.316-22.782c-2.559-6.668-8.801-10.976-15.903-10.976h-27.3l-19.079-40.149c-.878-1.851-1.007-3.898-.347-5.62.137-.368.34-.782.62-1.192a5 5 0 0 1 2.224-1.797M15.176 81.887c-.422-2.035-.07-4.04.965-5.496.558-.782 1.57-1.762 3.242-1.98l28.883-3.825c2.539-.332 5.222 1.297 6.652 3.953l1.586 13.465 1.836 15.617-3.692 1.547c-5.128 2.144-9.058 6.215-11.066 11.465-2.121 5.535-1.824 11.883.809 17.418l16.02 33.715H32.917zM377.949 185.12l-23.687 137.406H305.21a7.5 7.5 0 1 0 0 15h46.465l-7.801 45.243h-37.676c-4.144 0-7.5 3.355-7.5 7.5s3.356 7.5 7.5 7.5h35.09l-16.816 97.558a2.01 2.01 0 0 1-1.989 1.672H70.496c-.984 0-1.82-.703-1.988-1.672L51.69 397.77h35.09a7.5 7.5 0 1 0 0-15H49.105l-7.8-45.243H88a7.5 7.5 0 1 0 0-15H38.719L15.03 185.121a1.95 1.95 0 0 1 .446-1.64 1.96 1.96 0 0 1 1.543-.72h87.296c.84 0 1.582.532 1.899 1.352 6.933 18.059 19.004 33.489 34.91 44.621 16.277 11.399 35.426 17.422 55.367 17.422 1.024 0 2.059-.023 3.106-.058q.733-.024 1.472-.059.646-.034 1.297-.074a96.5 96.5 0 0 0 13.496-1.762q.023-.004.04-.008a95.9 95.9 0 0 0 35.952-15.46c15.907-11.133 27.977-26.563 34.91-44.622.317-.82 1.063-1.351 1.9-1.351h87.3c.773 0 1.265.39 1.539.715.277.332.574.878.445 1.644m0 0"/></svg>