<svg xmlns="http://www.w3.org/2000/svg" viewBox="-137 0 511 511.999"><path fill="#ef50ab" d="M42.887 222.922S7.8 221.707 8.004 184.344c.121-22.055 22.992-30.11 32.914-31.172 2.223-.238 3.39-2.492 2.145-4.16-8.602-11.516-29.278-45.95 13.87-64.871 38.31-16.797 58.485-33.313 53.528-54.575-2.914-12.496-13.914-17.808-20.328-19.882-.996-.32-.824-1.63.23-1.715 15.223-1.262 60.754-2.282 68.067 29.554 4.347 18.93-5.246 38.262-10.356 45.22-1.21 1.644-.082 3.855 2.094 4.132 11.832 1.496 38.371-4.125 45.414 20.344 4.723 16.398-1.64 31.37-7.383 36.976-1.707 1.668-.433 4.387 2.09 4.48 11.063.415 30.125 3.938 36.156 22.645 14.09 43.723-29.664 51.602-29.664 51.602zm0 0"/><path fill="#dd3ca7" d="M226.445 171.316c-6.03-18.703-25.09-22.23-36.156-22.64-2.523-.094-3.797-2.813-2.09-4.48 5.742-5.606 12.11-20.579 7.383-36.977C188.539 82.75 162 88.37 150.168 86.875c-2.176-.277-3.305-2.488-2.094-4.133 5.11-6.957 14.703-26.289 10.356-45.219C151.117 5.687 105.586 6.711 90.363 7.97c-1.054.086-1.226 1.394-.23 1.718 6.414 2.075 17.414 7.387 20.328 19.88 2.39 10.253-1.078 19.398-9.59 28.007-2.121 11.219 1.473 35.742 24.645 46.305 51.261 23.367 17.464 51.242 30.421 66.016 33.344 38.011-16.835 53.027-16.835 53.027h57.683c-.004 0 43.75-7.883 29.66-51.606m0 0"/><path fill="#e88c38" d="m31.934 216.2 74.996 279.64c3.097 11.543 19.476 11.543 22.574 0L204.5 216.2zm0 0"/><path fill="#d38231" d="M147.984 216.2 89.961 432.558l16.969 63.28c3.097 11.544 19.476 11.544 22.574 0L204.5 216.2zm0 0"/><path fill="#d38231" d="M187.973 262.758H48.46c-17.191 0-31.129-13.934-31.129-31.125v-9.723a5.714 5.714 0 0 1 5.715-5.71h190.34a5.714 5.714 0 0 1 5.715 5.71v9.723c0 17.191-13.938 31.125-31.13 31.125m0 0"/><path fill="#c1752f" d="M213.387 216.2h-51.969v15.433c0 17.191-13.934 31.125-31.125 31.125h57.68c17.191 0 31.129-13.934 31.129-31.125v-9.723a5.714 5.714 0 0 0-5.715-5.71m0 0"/><path d="M233.582 169.016c-4.71-14.625-17.113-24.196-34.59-27.02 4.79-8.73 8.067-22.047 3.801-36.855-7.2-24.996-31.113-25.32-44.113-25.43 5.488-10.566 10.879-27.254 7.062-43.867-2.625-11.426-11.097-26.39-36.55-32.785C113.995-.758 97.952-.188 89.741.492c-4.015.336-7.258 3.45-7.715 7.403-.46 4 1.922 7.671 5.801 8.93 5.899 1.905 13.352 5.964 15.328 14.445 2.403 10.312-1.02 24.859-49.234 46.003-16.32 7.157-26.309 17.266-29.68 30.043-3.972 15.043 2.305 29.848 8.5 39.856-5.148 1.433-11.012 3.879-16.273 7.578C6.089 162.05.566 172.27.5 184.305c-.082 14.98 4.902 24.972 10.813 31.554a13.1 13.1 0 0 0-1.481 6.051v9.723c0 17.781 12.082 32.789 28.465 37.262l61.387 228.89c2.28 8.5 9.73 14.215 18.53 14.215 8.806 0 16.255-5.715 18.532-14.219l61.387-228.886c16.387-4.473 28.469-19.48 28.469-37.262v-9.723a13.1 13.1 0 0 0-1.387-5.855c8.558-8.672 15.969-23.461 8.367-47.04M122.258 493.898c-.75 2.797-3.074 3.098-4.04 3.098s-3.292-.3-4.042-3.098l-11.719-43.695a582 582 0 0 0 28.535 11.129zm25.273-94.246a588 588 0 0 1-6.625-2.496 7.505 7.505 0 0 0-9.695 4.309 7.5 7.5 0 0 0 4.309 9.695 517 517 0 0 0 8.113 3.04l-8.738 32.585A564 564 0 0 1 97.5 431.707l-11.414-42.562a520 520 0 0 0 16.332 7.968 7.498 7.498 0 0 0 9.969-3.633c1.75-3.757.125-8.222-3.633-9.968a502 502 0 0 1-27.969-14.133l-12.168-45.371c27.29 17.344 56.633 31.926 87.547 43.472zm12.531-46.726c-34.761-13.11-67.449-30.18-97.316-50.801L54.2 270.262h19.14c28.864 20.77 60.849 37.918 95.208 51.039zm12.391-46.2c-25.629-9.89-49.867-22.109-72.379-36.464h82.16zm38.402-98.027H84.391c-4.145 0-7.504 3.356-7.504 7.5s3.36 7.504 7.504 7.504h127.207v7.93c0 11.957-8.934 21.863-20.477 23.406-.004.004-.008 0-.012.004-.527.066-1.05.121-1.562.156q-.026.002-.05.004-.781.051-1.52.05H48.46q-.744.001-1.523-.05-.023-.002-.051-.004a25 25 0 0 1-1.559-.156c-.008-.004-.012 0-.016-.004-11.542-1.543-20.476-11.45-20.476-23.406v-7.93h24.406c4.145 0 7.504-3.36 7.504-7.504s-3.36-7.5-7.504-7.5H25.504c-6.695-5.347-10.059-13.515-10-24.312.094-17.106 19.445-23.032 26.21-23.758.317-.031.618-.098.927-.16 3.023 3.71 6.457 7.707 9.136 10.226a7.48 7.48 0 0 0 5.137 2.032c2 0 3.992-.793 5.469-2.364 2.836-3.023 2.691-7.77-.332-10.605-4.078-3.832-11.703-13.625-14.399-17.215-4.609-6.64-12-19.668-8.902-31.398 2.145-8.133 9.277-14.907 21.2-20.133 30.64-13.438 64.902-32.758 57.82-63.153-1.172-5.011-3.305-9.109-5.926-12.453 16.273 1.364 35.351 6.711 39.277 23.797 3.18 13.844-2.523 28.008-6.75 35.422-2.898 4.8-12.355 17.96-22.016 22.445a7.503 7.503 0 1 0 6.32 13.61c7.88-3.657 14.845-10.45 19.93-16.485.208.04.41.094.622.117 2.722.348 5.835.372 9.132.399 15.153.129 26.176 1.246 30.02 14.582 3.219 11.184.094 21.047-3.035 26.34-1.559 2.101-10.172 13.43-21.324 22.582a7.5 7.5 0 0 0-1.04 10.558 7.48 7.48 0 0 0 5.801 2.747c1.676 0 3.36-.56 4.754-1.704 5.582-4.582 10.535-9.562 14.485-13.914a11 11 0 0 0 1.992.27c10.93.406 24.883 3.762 29.293 17.445 5.078 15.766 2.316 27.266-8.45 35.082m0 0"/></svg>