<svg xmlns="http://www.w3.org/2000/svg" viewBox="-116 0 511 511.998"><path fill="#912c2c" d="M233.453 72.16H21.887a7.97 7.97 0 0 0-7.395 4.957C8.77 91.176-2.449 137.391 31.282 243.945c31.35 99.047 20.14 195.438 12.448 237.918-2.136 11.785 6.934 22.621 18.91 22.621H192.7c11.976 0 21.046-10.836 18.91-22.62-7.692-42.481-18.903-138.872 12.449-237.919 33.73-106.558 22.511-152.77 16.789-166.828a7.97 7.97 0 0 0-7.395-4.957m0 0"/><path fill="#7c1e1e" d="M240.848 77.117a7.97 7.97 0 0 0-7.395-4.957h-52.988s27.676 39.13-14.313 171.785c-33.87 106.996-18.07 210.89-10.691 247.078 1.418 6.957-3.899 13.461-11 13.461h48.238c11.977 0 21.047-10.832 18.91-22.62-7.691-42.481-18.902-138.868 12.45-237.919 33.73-106.554 22.511-152.77 16.789-166.828m0 0"/><path fill="#dfede7" d="M207.68 456.328c-3.496 4.344-8.856 7.184-14.98 7.184H62.64c-6.124 0-11.484-2.84-14.98-7.184a507 507 0 0 1-3.933 25.55c-2.133 11.782 6.941 22.606 18.914 22.606h130.058c11.973 0 21.047-10.824 18.914-22.605a502 502 0 0 1-3.933-25.55m0 0"/><path fill="#d7e0dc" d="M194.906 504.36q.03-.002.059-.008c10.828-1.262 18.64-11.457 16.644-22.489a720 720 0 0 1-.543-3.074q-.189-1.062-.37-2.164l-.094-.54a539 539 0 0 1-.985-6.093q-.23-1.488-.46-3.023-.014-.076-.02-.145-.493-3.3-.973-6.84-.004-.02-.008-.043-.239-1.761-.472-3.582c0-.007 0-.02-.004-.03-3.496 4.343-8.856 7.183-14.98 7.183h-41.958c1.613 11.316 3.317 20.636 4.719 27.508 1.418 6.96-3.899 13.464-11 13.464h48.238c.567 0 1.121-.03 1.676-.078.176-.015.355-.027.531-.047m0 0"/><path fill="#dfede7" d="M21.887 72.16a7.97 7.97 0 0 0-7.395 4.957c-2.37 5.824-5.68 17.164-6.351 36.016h239.058c-.676-18.852-3.984-30.192-6.351-36.016a7.97 7.97 0 0 0-7.395-4.957zm0 0"/><path fill="#d7e0dc" d="M180.465 72.16c.004 0 7.758 10.973 8.824 40.973h57.91v-.004c-.379-10.594-1.59-18.813-3-25.016q-.001-.016-.008-.039a83 83 0 0 0-1.43-5.465q-.021-.07-.042-.14a73 73 0 0 0-.91-2.801c-.02-.059-.04-.113-.059-.172-.145-.398-.285-.785-.422-1.152q-.036-.087-.066-.172c-.14-.367-.282-.723-.414-1.055a7.92 7.92 0 0 0-3.953-4.18 8 8 0 0 0-3.442-.777zm0 0"/><path fill="#9e4949" d="m122.527 210.992-34.988-28.98a3.23 3.23 0 0 1-.426-4.543l28.985-34.985a3.22 3.22 0 0 1 4.539-.425l34.988 28.98a3.223 3.223 0 0 1 .426 4.54l-28.985 34.987a3.223 3.223 0 0 1-4.539.426M126.824 268.355l29.559-39.5a3.497 3.497 0 0 1 4.898-.703l39.504 29.555a3.503 3.503 0 0 1 .703 4.902l-29.558 39.5a3.495 3.495 0 0 1-4.899.707l-39.504-29.558a3.5 3.5 0 0 1-.703-4.903m0 0"/><path fill="#912c2c" d="m200.785 257.707-31.594-23.637a709 709 0 0 1-3.043 9.875c-5.214 16.48-9.25 32.89-12.324 48.989l13.207 9.882a3.507 3.507 0 0 0 4.903-.707l29.554-39.5a3.503 3.503 0 0 0-.703-4.902m0 0"/><path fill="#9e4949" d="m181.36 134.984 30.394-1.203a2.16 2.16 0 0 1 2.242 2.074l1.203 30.395a2.16 2.16 0 0 1-2.074 2.242l-30.395 1.2a2.157 2.157 0 0 1-2.242-2.07l-1.199-30.395a2.157 2.157 0 0 1 2.07-2.243m0 0"/><path fill="#912c2c" d="m211.754 133.781-22.809.903c-.632 10.144-1.941 21.738-4.199 34.93l28.379-1.122a2.16 2.16 0 0 0 2.074-2.242l-1.203-30.395a2.16 2.16 0 0 0-2.242-2.074m0 0"/><path fill="#9e4949" d="m48.098 113.492 32.547 18.79a2.67 2.67 0 0 1 .976 3.644l-18.793 32.543a2.66 2.66 0 0 1-3.64.976L26.64 150.656a2.67 2.67 0 0 1-.977-3.644l18.793-32.543a2.66 2.66 0 0 1 3.64-.977M66.254 229.18l31.937-3.243a2.277 2.277 0 0 1 2.5 2.036l3.243 31.941a2.28 2.28 0 0 1-2.04 2.496l-31.937 3.242a2.277 2.277 0 0 1-2.5-2.035l-3.242-31.941a2.28 2.28 0 0 1 2.039-2.496m0 0"/><path d="M280.29 6.285a7.514 7.514 0 0 0-8.65-6.183L208.22 10.648c-4.813.801-8.73 4.184-10.227 8.825l-14.57 45.172H21.887c-6.34 0-11.973 3.785-14.356 9.64C3.973 83.031-.125 99.113.578 126.04c.867 33.14 8.785 73.57 23.535 120.172 28.75 90.82 20.766 180.484 14.012 223.66q-.299 1.911-.61 3.797c-.062.383-.124.77-.187 1.14-.324 1.93-.656 3.844-.996 5.731a26.61 26.61 0 0 0 5.777 21.86A26.741 26.741 0 0 0 62.64 512H192.7c3.343-.001 6.6-.63 9.632-1.798a26.7 26.7 0 0 0 10.898-7.808 26.61 26.61 0 0 0 5.778-21.856 437 437 0 0 1-.91-5.219c-.051-.304-.106-.605-.157-.91a511 511 0 0 1-2.808-19.039v-.008a543 543 0 0 1-2.86-28.043c-.312-4.14-3.933-7.234-8.062-6.925a7.513 7.513 0 0 0-6.926 8.062 563 563 0 0 0 2.485 25.148 11.65 11.65 0 0 1-7.07 2.387H62.64a11.65 11.65 0 0 1-7.038-2.363C62 401.62 64.148 322.879 38.445 241.676 20.63 185.395 15.66 146.465 15.59 120.648h16.617l-13.05 22.606c-2.805 4.863-1.137 11.101 3.726 13.91l32.547 18.793a10.1 10.1 0 0 0 5.074 1.36c3.52 0 6.95-1.825 8.836-5.09l18.789-32.543c2.808-4.864 1.137-11.106-3.727-13.914l-8.875-5.122h48.286a7.514 7.514 0 0 0 7.515-7.515 7.514 7.514 0 0 0-7.516-7.516H16.165c1.133-13.597 3.688-21.73 5.29-25.668a.455.455 0 0 1 .433-.273H178.57l-8.367 25.941h-11.422a7.516 7.516 0 0 0 0 15.031h16.871c.008 0 .016.004.024.004q.01-.002.027-.004h64.106a222 222 0 0 1-.075 5c-.828 31.73-8.511 70.77-22.84 116.028-14.671 46.347-21.796 97.058-21.187 150.734a7.52 7.52 0 0 0 7.516 7.426h.086a7.513 7.513 0 0 0 7.43-7.598c-.594-52.074 6.296-101.203 20.484-146.027 19.789-62.508 24.367-104.992 23.472-132.738.004-.114.02-.227.02-.34 0-.32-.028-.633-.067-.942-.757-19.421-4.203-31.425-6.84-37.906-2.382-5.86-8.019-9.64-14.355-9.64h-34.238l12.7-39.372 62.194-10.343a7.514 7.514 0 0 0 6.18-8.645M51.124 483.203a523 523 0 0 0 2.3-13.805 26.7 26.7 0 0 0 9.216 1.625h130.058c3.196 0 6.309-.562 9.223-1.628a499 499 0 0 0 2.293 13.808 11.65 11.65 0 0 1-2.528 9.563 11.7 11.7 0 0 1-4.027 3.105 11.7 11.7 0 0 1-4.96 1.098H62.64c-1.304 0-2.581-.215-3.788-.625a11.7 11.7 0 0 1-5.2-3.578 11.63 11.63 0 0 1-2.527-9.563m-2.586-360.781 24.149 13.941-13.942 24.153-24.148-13.942zm184.914-42.746c.195 0 .367.105.434.273 1.73 4.25 4.226 12.395 5.343 25.668h-53.234l8.367-25.941zm0 0"/><path d="M117.734 216.781c2 1.656 4.426 2.461 6.84 2.461 3.09 0 6.16-1.32 8.281-3.883l28.98-34.984c1.833-2.21 2.696-5 2.427-7.855a10.67 10.67 0 0 0-3.844-7.27l-34.988-28.98c-4.559-3.782-11.344-3.141-15.121 1.417l-28.98 34.989a10.65 10.65 0 0 0-2.423 7.855 10.66 10.66 0 0 0 3.84 7.266zm1.414-66.199 28.375 23.508-23.503 28.379-28.38-23.508zM123.027 279.277l39.5 29.555a10.93 10.93 0 0 0 8.172 2.082 10.94 10.94 0 0 0 7.25-4.3l29.559-39.505a10.95 10.95 0 0 0 2.082-8.168 10.94 10.94 0 0 0-4.305-7.25l-39.504-29.558c-4.863-3.637-11.781-2.64-15.418 2.222l-29.558 39.5c-3.637 4.864-2.64 11.782 2.222 15.422m36.97-42.703 33.073 24.746-24.75 33.075-33.074-24.747zM182.64 177.21q.194 0 .387-.007L213.422 176c5.332-.21 9.496-4.715 9.285-10.047l-1.2-30.402c-.214-5.324-4.745-9.48-10.046-9.278l-30.395 1.2c-5.332.21-9.496 4.718-9.289 10.047l1.203 30.394c.204 5.203 4.5 9.297 9.66 9.297m24.06-35.706.777 19.687-19.692.782-.777-19.692zM97.434 218.457l-31.942 3.246a9.73 9.73 0 0 0-6.601 3.555 9.72 9.72 0 0 0-2.153 7.18l3.242 31.937a9.73 9.73 0 0 0 3.555 6.602 9.71 9.71 0 0 0 7.18 2.156l31.941-3.246a9.73 9.73 0 0 0 6.602-3.555 9.73 9.73 0 0 0 2.152-7.18l-3.242-31.941c-.547-5.371-5.363-9.281-10.734-8.754m-23.028 39.191-2.187-21.52 21.523-2.187 2.188 21.524zm0 0"/></svg>