<svg xmlns="http://www.w3.org/2000/svg" viewBox="-106 1 511 512"><path fill="#dfede7" d="m192.25 492.703-31.926-13.168c-8.37-3.453-13.77-11.16-13.77-19.664v-8.973l6.145-17.746c42.356-72.757 58.524-233.453 62.2-276.765.5-5.883-4.145-10.934-10.051-10.934H43.699c-5.906 0-10.55 5.05-10.05 10.934 3.675 43.312 19.843 204.008 62.199 276.765l6.144 17.746v8.973c0 8.504-5.394 16.211-13.765 19.664L56.3 492.703c-3.219 1.324-5.29 4.285-5.29 7.555 0 2.324 2.028 4.21 4.536 4.21h137.457c2.504 0 4.535-1.886 4.535-4.21 0-3.27-2.074-6.23-5.289-7.555m0 0"/><path fill="#d7e0dc" d="M152.7 433.152c42.355-72.757 58.523-233.453 62.202-276.765.5-5.883-4.148-10.934-10.054-10.934h-39.582c-4.286 48.625-22.075 216.8-63.352 287.7l-3.031 8.765 3.11 8.98v8.973c0 3.856-1.118 7.54-3.11 10.746 2.402 3.863 6.078 7.031 10.656 8.918l31.926 13.168c3.215 1.324 5.289 4.285 5.289 7.555 0 2.324-2.031 4.21-4.535 4.21h50.785c2.504 0 4.535-1.886 4.535-4.21 0-3.27-2.07-6.23-5.289-7.555l-31.926-13.168c-8.37-3.453-13.765-11.16-13.765-19.668v-8.969zm0 0"/><path fill="#f3e8d7" d="M211.91 99.094a26.4 26.4 0 0 0 .516-5.184c0-14.418-11.73-26.144-26.145-26.144-7.312 0-13.93 3.02-18.68 7.875-4.445-3.485-10.03-5.57-16.101-5.57-2.586 0-5.086.382-7.445 1.085a26 26 0 0 0 1.816-9.558c0-14.418-11.726-26.145-26.144-26.145-12.477 0-22.93 8.781-25.524 20.488a26 26 0 0 0-12.605-3.246c-14.418 0-26.145 11.73-26.145 26.149 0 .152.008.304.012.457-10.094 1.906-18.153 9.629-20.547 19.543-.246-.008-.488-.02-.738-.02-14.418 0-26.145 11.73-26.145 26.149 0 14.414 11.73 26.144 26.145 26.144H208.19c14.418 0 26.149-11.73 26.149-26.144-.004-13.157-9.77-24.067-22.43-25.88m0 0"/><path fill="#e5d8c6" d="M211.91 99.094c.59-2.938.695-6.051.203-9.258-1.777-11.508-11.207-20.574-22.777-21.898-8.512-.973-16.332 2.18-21.738 7.703a26 26 0 0 0-16.102-5.57 26 26 0 0 0-7.441 1.085 26 26 0 0 0 1.75-11.414c-.903-12.855-11.293-23.293-24.149-24.219-13.312-.964-24.726 8.114-27.453 20.418a26 26 0 0 0-7.64-2.77c.374 6.067 2.914 10.231 6.214 13.235 6.715 6.106 16.09 6.16 24.825 3.684 12.503-3.547 26.253 7.683 34.253 23.308 1.649 3.227 4.317 5.844 7.704 7.133 9.851 3.75 16.87 13.29 16.87 24.442 0 14.418-11.73 26.144-26.148 26.144h57.352c14.539 0 26.855-11.89 26.703-26.426-.137-13.027-9.856-23.796-22.426-25.597m0 0"/><path fill="#ef50ab" d="M36.477 185.793c6.77 63.637 23.87 186.375 59.37 247.36l4.145 11.972a11 11 0 0 1 2.258-.23h44.047c.773 0 1.531.082 2.258.23l4.144-11.973c35.504-60.984 52.602-183.722 59.371-247.359zm0 0"/><path fill="#f3e8d7" d="M204.848 145.453H43.699c-5.906 0-10.55 5.05-10.05 10.934a1387 1387 0 0 0 2.828 29.406H212.07a1418 1418 0 0 0 2.832-29.406c.496-5.883-4.148-10.934-10.054-10.934m0 0"/><g fill="#e5d8c6"><path d="M204.848 145.453h-39.582c-.832 9.453-2.18 23.442-4.106 40.34h50.91c.758-7.098 1.383-13.465 1.895-18.926l.047-.508c.05-.554.101-1.093.148-1.629.028-.28.055-.566.078-.84.043-.46.082-.91.125-1.355q.049-.529.09-1.039.053-.575.102-1.125l.105-1.187.074-.868c.059-.664.118-1.312.168-1.93.496-5.882-4.148-10.933-10.054-10.933M211.813 188.219c-.094.863-.192 1.738-.286 2.617.094-.879.192-1.754.286-2.617M211.867 187.703c-.02.172-.035.34-.054.516zM212.066 185.844q.002-.023.004-.051c-.066.633-.132 1.266-.203 1.91zM211.527 190.84c-.02.16-.035.316-.054.48.02-.164.035-.32.054-.48M210.754 197.734c.125-1.082.242-2.148.363-3.199-.12 1.05-.238 2.117-.363 3.2M211.473 191.32c-.086.805-.18 1.625-.27 2.446q.135-1.238.27-2.446M211.203 193.766"/></g><path fill="#dd3ca7" d="M161.16 185.793c-7.988 70.016-25.996 190.246-59.246 247.36l-3.035 8.765.906 2.61.207.597c.727-.152 1.485-.23 2.258-.23h44.047c.773 0 1.527.082 2.258.23l4.144-11.973a166 166 0 0 0 1.828-3.222l.578-1.07c.41-.755.817-1.508 1.223-2.278.219-.422.442-.848.66-1.273.38-.735.754-1.473 1.13-2.223.214-.434.433-.863.648-1.3q.584-1.197 1.164-2.411c.187-.39.375-.777.558-1.172a212 212 0 0 0 1.508-3.273c.059-.13.121-.258.176-.387a244 244 0 0 0 1.664-3.777c.152-.36.305-.727.46-1.086q.588-1.382 1.169-2.782l.562-1.378a332 332 0 0 0 2.68-6.81l.492-1.296q.65-1.734 1.293-3.492c.074-.207.153-.41.227-.621a488 488 0 0 0 1.511-4.25 483.456 483.456 0 0 0 1.465-4.277c.153-.454.301-.91.453-1.368a342 342 0 0 0 1.465-4.48q.497-1.547.989-3.114c.136-.44.277-.878.414-1.324q.58-1.87 1.148-3.761c.07-.235.145-.465.215-.7a466 466 0 0 0 1.523-5.183q.58-2.01 1.153-4.035.175-.639.355-1.278.47-1.693.934-3.398c.129-.469.254-.938.383-1.41.308-1.141.609-2.282.914-3.426l.34-1.293a536 536 0 0 0 1.023-3.977c.062-.242.129-.484.187-.726a716 716 0 0 0 2.383-9.688l.27-1.14q.44-1.84.867-3.692.165-.686.316-1.37.417-1.796.82-3.59l.294-1.301q.446-2.005.886-4.016.09-.405.18-.817a949 949 0 0 0 2.094-9.906c.07-.324.133-.648.199-.972q.4-1.951.793-3.903.131-.656.262-1.312c.242-1.219.48-2.434.718-3.653l.258-1.312q.376-1.95.746-3.895c.059-.32.121-.644.184-.964q.93-4.94 1.812-9.844l.153-.864q.35-1.975.695-3.945.116-.651.227-1.305a605 605 0 0 0 .847-4.917q.303-1.807.606-3.606c.062-.383.129-.77.191-1.152q.389-2.352.766-4.684v-.012q.387-2.395.762-4.773.08-.515.16-1.023.282-1.805.558-3.59.111-.74.227-1.473c.156-1.039.316-2.078.469-3.11q.124-.804.242-1.6.227-1.525.449-3.036.112-.752.219-1.504.256-1.733.5-3.45.072-.504.144-1.003c.207-1.45.407-2.887.606-4.32l.195-1.395.399-2.89q.119-.892.238-1.778c.113-.824.222-1.64.332-2.457l.246-1.875c.101-.77.203-1.531.3-2.293q.13-.961.25-1.918.14-1.07.274-2.129c.082-.656.168-1.32.25-1.969l.246-1.972q.252-1.992.492-3.95c.063-.523.13-1.05.192-1.57.09-.765.18-1.52.273-2.277l.176-1.477c.094-.777.184-1.543.273-2.308q.075-.643.149-1.285.14-1.215.281-2.41a1542.997 1542.997 0 0 0 1.41-12.762q.005-.029.004-.051zm0 0"/><path fill="#dfede7" d="M146.297 469.77H102.25c-6.105 0-11.05-4.95-11.05-11.055v-2.77c0-6.105 4.948-11.05 11.05-11.05h44.047c6.105 0 11.05 4.949 11.05 11.05v2.77c0 6.105-4.945 11.055-11.05 11.055m0 0"/><path d="M298.145 6.574c-.528-4.125-4.31-7.035-8.426-6.515l-69.98 8.953a7.52 7.52 0 0 0-5.9 4.351l-21.57 47.414a33.6 33.6 0 0 0-5.988-.543c-7.011 0-13.68 2.125-19.297 6.078a33.14 33.14 0 0 0-13.597-3.718q.016-.499.015-.992c0-18.57-15.105-33.68-33.675-33.68-12.723 0-24.23 7.32-29.922 18.262a33.7 33.7 0 0 0-8.207-1.02c-16.758 0-30.7 12.305-33.258 28.356a33.78 33.78 0 0 0-18.926 18.109C13.094 93.953.5 108.019.5 124.973c0 15.82 10.969 29.12 25.7 32.715q.041.51.09 1.05c1.92 22.242 6.358 66.516 14.57 115.063l.163.957q.264 1.57.54 3.144l.316 1.813.457 2.629c.164.91.328 1.828.488 2.742l.328 1.816c.59 3.278 1.203 6.563 1.828 9.856q.04.188.075.375c.297 1.566.601 3.137.91 4.703l.082.434c6.754 34.421 15.426 69.113 26.441 98.289l.153.394a364 364 0 0 0 1.421 3.688l.333.84q.647 1.635 1.304 3.242c.125.304.246.613.375.914q.687 1.675 1.39 3.316.136.33.278.652a251 251 0 0 0 3.414 7.614c.168.363.34.718.512 1.082a252 252 0 0 0 1.21 2.511q.319.65.642 1.293.562 1.137 1.136 2.25c.223.434.446.868.668 1.293.403.77.809 1.528 1.215 2.286.2.367.395.738.594 1.105a183 183 0 0 0 1.832 3.262l1.762 5.09c-4.297 3.41-7.063 8.66-7.063 14.554v2.774c0 4.687 1.762 8.968 4.637 12.242a16 16 0 0 1-2.95 1.61l-31.93 13.167c-6.042 2.492-9.944 8.192-9.944 14.52 0 6.472 5.41 11.742 12.066 11.742H193c6.656 0 12.066-5.27 12.066-11.742 0-6.328-3.902-12.028-9.945-14.52h-.004l-31.922-13.168a16 16 0 0 1-2.953-1.61c2.88-3.273 4.637-7.554 4.637-12.241v-2.774c0-5.894-2.766-11.148-7.063-14.554l1.762-5.09c5.711-9.91 11.215-21.824 16.367-35.426a7.53 7.53 0 0 0-4.375-9.707 7.53 7.53 0 0 0-9.71 4.375c-4.958 13.09-10.22 24.445-15.633 33.758l-.012.023-.024.04c-.039.07-.07.14-.109.21-.074.14-.152.281-.223.426a8 8 0 0 0-.277.691l-2.309 6.672h-38l-2.312-6.672a8 8 0 0 0-.606-1.328 153 153 0 0 1-1.75-3.09c-.195-.347-.382-.707-.574-1.054-.386-.711-.77-1.422-1.152-2.145q-.334-.64-.668-1.285-.514-.996-1.027-2.016a233 233 0 0 1-1.672-3.41c-.23-.48-.461-.96-.692-1.449-.328-.695-.652-1.402-.976-2.11-.219-.472-.438-.94-.653-1.421q-.609-1.356-1.207-2.735c-.34-.773-.671-1.554-1.007-2.336-.278-.656-.555-1.308-.832-1.968-.282-.68-.563-1.371-.84-2.059q-.33-.804-.657-1.613-.445-1.119-.886-2.25l-.563-1.445a294 294 0 0 1-1.379-3.645q-.51-1.372-1.02-2.762c-.062-.175-.12-.351-.187-.523-21.636-59.98-33.715-142.817-39.738-196.719h158.781c-4.972 44.215-14.594 112.692-30.988 169.43a7.53 7.53 0 0 0 5.144 9.324 7.527 7.527 0 0 0 9.325-5.145c7.347-25.43 25.343-96.093 34.96-206.382.114-1.274.215-2.461.305-3.528.047-.52.059-1.039.059-1.554 11.453-5.383 19.406-17.028 19.406-30.496 0-14.2-9.035-26.715-21.914-31.551-.156-10.957-5.574-20.668-13.836-26.707l19.696-43.297 65.816-8.418a7.536 7.536 0 0 0 6.516-8.43M98.73 455.945c0-1.699 1.207-3.117 2.81-3.449q.346-.07.71-.07h44.047q.364 0 .71.07a3.53 3.53 0 0 1 2.81 3.45v2.769a3.514 3.514 0 0 1-2.669 3.406c-.109.027-.21.043-.312.063a3.5 3.5 0 0 1-.54.054H102.25a3.5 3.5 0 0 1-.54-.054c-.1-.02-.202-.036-.312-.063a3.514 3.514 0 0 1-2.668-3.406zm-7.632 30.551c4.87-2.008 9.097-5.2 12.27-9.195h41.812c3.172 3.996 7.398 7.187 12.273 9.195l25.317 10.442H65.78zm47.73-308.234H43.266a1362 1362 0 0 1-1.864-19.61H147.75zM34.633 143.59h-.453c-10.266 0-18.618-8.352-18.618-18.617s8.352-18.618 18.618-18.618l.523.02c3.559.074 6.695-2.3 7.531-5.758A18.64 18.64 0 0 1 56.86 86.703a7.53 7.53 0 0 0 6.133-7.543l-.012-.316c0-10.266 8.352-18.617 18.618-18.617 3.129 0 6.23.8 8.96 2.308a7.53 7.53 0 0 0 6.739.274 7.54 7.54 0 0 0 4.258-5.235c1.87-8.453 9.511-14.59 18.168-14.59 10.265 0 18.617 8.352 18.617 18.618 0 2.332-.434 4.62-1.293 6.796a7.531 7.531 0 0 0 9.152 9.98 18.5 18.5 0 0 1 5.297-.773c4.188 0 8.149 1.368 11.453 3.961a7.53 7.53 0 0 0 10.031-.66 18.46 18.46 0 0 1 12.668-5.578l-31.05 68.262zm172.375 16.633c-.43 4.836-1.004 10.93-1.73 18.039h-49.903l8.922-19.61h42.848zm3.836-53.672c9.097 1.3 15.96 9.222 15.96 18.422 0 8.953-6.355 16.445-14.788 18.215-.606.128-1.22.222-1.832.289l-.059.011c-.645.067-1.293.102-1.934.102h-37.043l28.485-62.621c3.25 3.355 5.262 7.914 5.262 12.941 0 1.238-.125 2.48-.368 3.695a7.53 7.53 0 0 0 1.23 5.833 7.52 7.52 0 0 0 5.087 3.113m0 0"/><path d="M116.742 226.629v98.332a7.53 7.53 0 0 0 7.531 7.531 7.53 7.53 0 0 0 7.532-7.531v-98.332a7.53 7.53 0 0 0-7.532-7.531 7.53 7.53 0 0 0-7.53 7.53M171.027 219.098a7.53 7.53 0 0 0-7.53 7.53c0 31.97-6.755 74.5-10.782 97.009a7.53 7.53 0 0 0 6.09 8.738q.673.122 1.336.121a7.53 7.53 0 0 0 7.402-6.207c5.027-28.094 11.016-68.187 11.016-99.66a7.53 7.53 0 0 0-7.532-7.531M81.105 326.844a7.53 7.53 0 0 0 8.75 6.07 7.53 7.53 0 0 0 6.07-8.754c-2.964-16.36-5.374-31.969-7.167-46.394-.516-4.125-4.278-7.059-8.403-6.543a7.535 7.535 0 0 0-6.546 8.402c1.828 14.703 4.285 30.586 7.296 47.219M78.45 251.324a7.53 7.53 0 0 0 7.1-7.937c-.331-5.957-.5-11.594-.5-16.758a7.53 7.53 0 0 0-7.53-7.531 7.53 7.53 0 0 0-7.532 7.53c0 5.442.176 11.36.524 17.595a7.53 7.53 0 0 0 7.937 7.101m0 0"/></svg>