<svg xmlns="http://www.w3.org/2000/svg" viewBox="-74 1 511 511.999"><path fill="#fc4e51" d="M82.695 7.5h-9.363a7.016 7.016 0 0 0-6.977 6.242L54.98 116.445h46.067L89.672 13.742A7.016 7.016 0 0 0 82.695 7.5M133.75 147.324v-21.226H22.277v21.226a5.3 5.3 0 0 1-1.695 3.883l-10.89 10.125A5.3 5.3 0 0 0 8 165.215v316.293C8 494.207 18.293 504.5 30.992 504.5h94.043c12.7 0 22.992-10.293 22.992-22.992V165.215a5.3 5.3 0 0 0-1.691-3.883l-10.89-10.125a5.3 5.3 0 0 1-1.696-3.883m0 0"/><path fill="#fccf3f" d="M291.656 7.5h-9.363a7.016 7.016 0 0 0-6.977 6.242l-11.379 102.703h46.07L298.63 13.742a7.01 7.01 0 0 0-6.973-6.242M342.715 147.324v-21.226H231.238v21.226a5.3 5.3 0 0 1-1.691 3.883l-10.895 10.125a5.3 5.3 0 0 0-1.691 3.883v316.293c0 12.699 10.293 22.992 22.992 22.992h94.043c12.7 0 22.992-10.293 22.992-22.992V165.215c0-1.473-.61-2.88-1.691-3.883l-10.89-10.125a5.3 5.3 0 0 1-1.692-3.883m0 0"/><path fill="#efc03c" d="m355.297 161.332-10.895-10.125a5.3 5.3 0 0 1-1.691-3.883v-21.23h-57.66v22.828c0 .453.187.887.523 1.195l13.23 12.301c.333.309.524.742.524 1.2v321.554c0 10.672-8.652 19.328-19.328 19.328h53.996c12.7 0 22.992-10.297 22.992-22.992V165.21a5.3 5.3 0 0 0-1.691-3.879m0 0"/><path fill="#ea3942" d="m146.336 161.332-10.89-10.125a5.3 5.3 0 0 1-1.696-3.883v-21.23H76.09v22.828c0 .453.187.887.523 1.195l13.23 12.301c.333.309.524.742.524 1.2v321.554c0 10.672-8.652 19.328-19.328 19.328h54c12.695 0 22.992-10.297 22.992-22.992V165.21a5.32 5.32 0 0 0-1.695-3.879m0 0"/><path fill="#efa335" d="M344.215 135.7H229.738a4.703 4.703 0 0 1-4.656-5.384l3.254-22.25a4.7 4.7 0 0 1 4.652-4.027h107.973a4.71 4.71 0 0 1 4.656 4.027l3.25 22.25a4.7 4.7 0 0 1-4.652 5.383m0 0"/><path fill="#f3e8d7" d="M216.96 236.04h140.028V415.19H216.961zm0 0"/><path fill="#e5d8c6" d="M299.328 236.04h57.66V415.19h-57.66zm0 0"/><path fill="#ea3942" d="M135.25 135.7H20.777a4.703 4.703 0 0 1-4.656-5.384l3.25-22.25a4.71 4.71 0 0 1 4.656-4.027H132a4.71 4.71 0 0 1 4.656 4.027l3.25 22.25c.418 2.84-1.785 5.383-4.656 5.383m0 0"/><path fill="#d82e3f" d="m139.91 130.316-3.254-22.254A4.71 4.71 0 0 0 132 104.04H79.738l4.63 31.66h50.886a4.705 4.705 0 0 0 4.656-5.383m0 0"/><path fill="#efa130" d="m348.555 130.316-3.254-22.254a4.71 4.71 0 0 0-4.656-4.023h-52.262l4.629 31.66h50.886a4.703 4.703 0 0 0 4.657-5.383m0 0"/><path fill="#f3e8d7" d="M8 236.04h140.027V415.19H8zm0 0"/><path fill="#e5d8c6" d="M90.367 236.04h57.66V415.19h-57.66zm0 0"/><path d="m151.441 155.84-10.187-9.473v-4.754a12.2 12.2 0 0 0 3.23-2.636 12.2 12.2 0 0 0 2.844-9.747l-3.254-22.25c-.867-5.953-6.058-10.437-12.074-10.437h-25.61l-9.265-83.625A14.503 14.503 0 0 0 82.695 0h-9.363c-7.41 0-13.61 5.555-14.43 12.918l-9.261 83.621H24.027c-6.011 0-11.207 4.488-12.074 10.441L8.7 129.23a12.2 12.2 0 0 0 2.844 9.747 12.2 12.2 0 0 0 3.234 2.636v4.754L4.586 155.84A12.84 12.84 0 0 0 .5 165.215v316.293C.5 498.32 14.176 512 30.992 512h94.043c16.813 0 30.492-13.68 30.492-30.492V165.215a12.84 12.84 0 0 0-4.086-9.375M73.761 15h8.505l9.03 81.54H64.73zm-47.316 96.54h103.14l2.435 16.663H24.008zm114.082 369.968c0 8.543-6.949 15.492-15.492 15.492H30.992c-8.543 0-15.492-6.95-15.492-15.492V422.69h125.027zm0-252.969H64.953a7.5 7.5 0 1 0 0 15h75.574v164.152H15.5V243.54h14.559a7.5 7.5 0 1 0 0-15H15.5v-62.367l10.188-9.473a12.83 12.83 0 0 0 4.085-9.375V143.2h96.48v4.125c0 3.547 1.49 6.965 4.083 9.375l10.191 9.473zm.7-61.719.003.004v.004q-.001-.007-.003-.008M360.402 155.84l-10.191-9.473v-4.754a12.2 12.2 0 0 0 3.234-2.636 12.2 12.2 0 0 0 2.844-9.747l-3.254-22.25c-.867-5.953-6.058-10.437-12.074-10.437h-25.61l-9.265-83.625A14.503 14.503 0 0 0 291.656 0h-9.363a14.503 14.503 0 0 0-14.43 12.918l-9.261 83.621h-25.614c-6.011 0-11.207 4.488-12.074 10.441l-3.254 22.25a12.2 12.2 0 0 0 2.844 9.747 12.2 12.2 0 0 0 3.234 2.636v4.754l-10.191 9.473a12.83 12.83 0 0 0-4.086 9.375v316.293c0 16.812 13.68 30.492 30.492 30.492H334c16.813 0 30.492-13.68 30.492-30.492V165.215a12.86 12.86 0 0 0-4.09-9.375M282.727 15h8.5l9.03 81.54h-26.566zm-47.32 96.54h103.136l2.437 16.663H232.97zM349.487 407.69H278.84a7.5 7.5 0 0 0-7.5 7.5c0 4.145 3.355 7.5 7.5 7.5h70.648v58.817c0 8.543-6.949 15.492-15.492 15.492h-94.043c-8.543 0-15.496-6.95-15.496-15.492V422.69h19.488a7.5 7.5 0 1 0 0-15h-19.488V243.54h125.031zm0-179.152H224.461v-62.367l10.187-9.473a12.83 12.83 0 0 0 4.086-9.375V143.2h96.477v4.125c0 3.547 1.492 6.965 4.086 9.375l10.191 9.473zm0 0"/></svg>