<svg xmlns="http://www.w3.org/2000/svg" viewBox="0 0 512 512"><path fill="#efa335" d="M483.047 135.617c-6.508-6.508-17.055-6.508-23.559 0l18.465-18.469c22.961-22.96 22.961-60.183 0-83.144-22.957-22.957-60.183-22.957-83.14 0l-18.465 18.469c6.504-6.508 6.504-17.055 0-23.559-28.606-28.605-74.98-28.605-103.586 0L28.953 272.723c-28.605 28.605-28.605 74.98 0 103.582 6.504 6.504 17.055 6.504 23.559 0L34.047 394.77c-22.961 22.96-22.961 60.187 0 83.144 22.957 22.961 60.183 22.961 83.14 0l18.465-18.469c-6.504 6.508-6.504 17.055 0 23.563 28.606 28.601 74.98 28.601 103.586 0l243.809-243.813c28.605-28.601 28.605-74.976 0-103.578m0 0"/><path fill="#fc4e51" d="M34.047 477.918c-22.961-22.961-22.961-60.188 0-83.145L394.813 34.008c22.957-22.961 60.183-22.961 83.14 0 22.961 22.957 22.961 60.183 0 83.14l-360.765 360.77c-22.958 22.957-60.184 22.957-83.141 0m0 0"/><path fill="#ea3942" d="M477.953 34.008a58.44 58.44 0 0 0-25.734-15.043c5.511 19.773.508 41.86-15.04 57.41L76.41 437.141c-15.547 15.546-37.637 20.55-57.406 15.039a58.5 58.5 0 0 0 15.039 25.738c22.96 22.957 60.184 22.957 83.144 0l360.766-360.77c22.961-22.957 22.961-60.183 0-83.14m0 0"/><path fill="#fd8f31" d="M376.348 28.914c-.11-.105-.215-.215-.325-.32-16.007-15.813-41.886-15.465-57.796.445L29.074 318.188c-15.906 15.91-16.254 41.789-.441 57.796.105.11.215.215.32.325 6.504 6.504 17.055 6.504 23.559 0L376.348 52.473c6.504-6.504 6.504-17.055 0-23.559m0 0"/><path fill="#a0e557" d="M311.516 79.926c-6.547 6.547-18.11 1.664-28.57 9.383-17.434 12.863-16.075 22.687-27.966 34.578-15.125 15.125-24.742 13.558-35.347 24.164-17.164 17.164-15.281 32.297-26.465 45.078-12.781 11.184-27.914 9.3-45.078 26.465-10.606 10.605-9.04 20.222-24.164 35.347-11.89 11.891-21.715 10.532-34.582 27.965-7.715 10.461-2.832 22.024-9.38 28.57-13.839 13.84-34.183 26.098-11.257 48.633L214.43 214.391 360.148 68.668c-22.535-22.922-34.793-2.582-48.632 11.258m0 0"/><path fill="#fd8f31" d="M489.117 142.523a73 73 0 0 1-16.637 25.692L168.254 472.44a73.05 73.05 0 0 1-25.688 16.641c28.73 22.34 70.27 20.332 96.672-6.074l243.809-243.809c26.402-26.406 28.414-67.941 6.07-96.676m0 0"/><path fill="#a0e557" d="M432.035 200.445c-6.547 6.547-1.664 18.11-9.383 28.57-12.863 17.434-22.687 16.075-34.578 27.965-15.125 15.125-13.558 24.743-24.164 35.352-17.164 17.16-32.297 15.277-45.078 26.461-11.184 12.785-9.3 27.918-26.465 45.078-10.605 10.606-20.222 9.043-35.347 24.164-11.891 11.89-10.532 21.719-27.965 34.582-10.461 7.719-22.024 2.832-28.57 9.38-13.84 13.839-26.098 34.183-48.633 11.257l291.441-291.441c22.922 22.535 2.582 34.792-11.258 48.632m0 0"/><path d="M440.746 81.723c-9.113 9.117-17.41 9.367-27.914 9.687-11.602.352-24.75.75-38.07 14.067-13.324 13.324-13.723 26.472-14.074 38.074-.317 10.504-.567 18.8-9.684 27.918-9.113 9.113-17.41 9.363-27.918 9.683-11.602.352-24.746.746-38.07 14.067-13.32 13.324-13.72 26.472-14.07 38.074-.317 10.504-.567 18.8-9.684 27.914-9.114 9.117-17.414 9.367-27.918 9.688-11.602.351-24.75.75-38.07 14.07-13.325 13.32-13.72 26.469-14.075 38.07-.316 10.504-.566 18.805-9.683 27.918-9.114 9.117-17.414 9.367-27.918 9.688-11.602.351-24.75.75-38.075 14.074-13.324 13.32-13.722 26.472-14.074 38.074-.32 10.504-.57 18.805-9.687 27.918a7.502 7.502 0 0 0 5.3 12.805 7.5 7.5 0 0 0 5.305-2.196c13.324-13.324 13.723-26.472 14.074-38.074.32-10.508.57-18.805 9.688-27.922s17.414-9.367 27.922-9.687c11.601-.352 24.75-.75 38.07-14.074 13.324-13.32 13.723-26.47 14.074-38.067.317-10.508.57-18.805 9.684-27.922 9.113-9.113 17.41-9.363 27.918-9.683 11.601-.352 24.75-.75 38.07-14.07s13.719-26.47 14.07-38.07c.32-10.505.57-18.806 9.684-27.919s17.414-9.363 27.918-9.683c11.602-.352 24.75-.75 38.07-14.07s13.72-26.47 14.07-38.071c.317-10.504.571-18.805 9.684-27.918 9.117-9.113 17.414-9.367 27.918-9.684 11.602-.351 24.75-.75 38.07-14.07a7.5 7.5 0 0 0 0-10.61c-2.925-2.925-7.675-2.925-10.605 0m0 0"/><path d="M488.352 130.313a24.1 24.1 0 0 0-7.743-5.211l2.649-2.649c12.52-12.52 19.418-29.168 19.418-46.875s-6.899-34.355-19.418-46.875c-25.848-25.844-67.903-25.848-93.75 0l-2.668 2.668a24 24 0 0 0-5.192-7.762c-31.48-31.48-82.707-31.48-114.187 0l-5.48 5.48a7.5 7.5 0 0 0 10.609 10.606l5.476-5.476c25.633-25.637 67.34-25.633 92.977-.004 3.566 3.57 3.57 9.379.004 12.95l-11.172 11.17c-6.469-5.112-12.812-7.565-19.246-7.515-12.375.18-21.324 9.825-29.219 18.332-1.789 1.934-3.48 3.754-5.2 5.473-1.25 1.254-3.815 1.594-7.897 2.05-5.708.638-12.813 1.427-19.82 6.598-11.462 8.457-15.872 16.063-19.763 22.77-2.585 4.457-4.82 8.309-9.054 12.543-7.363 7.363-13.223 10.281-18.887 13.102-5.289 2.636-10.762 5.363-16.46 11.062-10.798 10.797-14.794 20.809-18.317 29.64-2.332 5.856-4.36 10.93-8.16 15.423-4.493 3.8-9.57 5.828-15.422 8.16-8.832 3.523-18.844 7.52-29.64 18.316-5.7 5.7-8.427 11.172-11.063 16.461-2.82 5.664-5.739 11.523-13.102 18.887-4.234 4.238-8.086 6.468-12.543 9.054-6.71 3.891-14.312 8.301-22.77 19.766-5.171 7.004-5.96 14.11-6.597 19.82-.457 4.078-.8 6.645-2.05 7.899-1.72 1.715-3.544 3.406-5.474 5.199-8.507 7.895-18.152 16.84-18.332 29.215-.09 6.437 2.383 12.781 7.512 19.25l-11.164 11.164a9.1 9.1 0 0 1-6.473 2.683 9.1 9.1 0 0 1-6.476-2.683c-25.637-25.633-25.637-67.344 0-92.977L247.914 64.371a7.497 7.497 0 0 0 0-10.605 7.497 7.497 0 0 0-10.605 0L23.649 267.422C8.398 282.672 0 302.945 0 324.516c0 21.566 8.398 41.843 23.648 57.093a24.1 24.1 0 0 0 7.743 5.211l-2.649 2.649c-12.52 12.523-19.418 29.168-19.418 46.875s6.899 34.355 19.418 46.875c12.922 12.926 29.899 19.386 46.875 19.386 16.977 0 33.95-6.46 46.875-19.386l2.653-2.649a24.1 24.1 0 0 0 5.207 7.743c15.742 15.742 36.418 23.613 57.093 23.609 20.676 0 41.356-7.871 57.094-23.61l5.48-5.476a7.502 7.502 0 0 0-10.609-10.61l-5.476 5.481c-25.633 25.633-67.34 25.633-92.977 0a9.11 9.11 0 0 1-2.68-6.477 9.1 9.1 0 0 1 2.672-6.468l11.172-11.172c6.352 5.035 12.582 7.515 18.899 7.515l.351-.003c12.375-.18 21.324-9.825 29.219-18.332 1.789-1.93 3.48-3.754 5.2-5.47 1.253-1.253 3.815-1.597 7.898-2.05 5.707-.637 12.816-1.43 19.82-6.598 11.46-8.46 15.87-16.062 19.762-22.773 2.585-4.457 4.82-8.309 9.054-12.54 7.364-7.366 13.223-10.284 18.887-13.105 5.293-2.636 10.762-5.359 16.46-11.058 10.798-10.801 14.794-20.809 18.317-29.64 2.336-5.856 4.36-10.934 8.16-15.427 4.497-3.8 9.57-5.824 15.422-8.16 8.832-3.523 18.844-7.52 29.645-18.316 5.695-5.7 8.422-11.168 11.058-16.461 2.82-5.664 5.739-11.52 13.106-18.887 4.234-4.234 8.082-6.469 12.539-9.055 6.71-3.89 14.312-8.3 22.773-19.761 5.168-7.008 5.961-14.114 6.598-19.82.453-4.083.797-6.649 2.05-7.899 1.716-1.719 3.54-3.41 5.47-5.2 8.507-7.894 18.152-16.843 18.332-29.218.093-6.437-2.383-12.781-7.512-19.25l11.16-11.156q.002-.005.004-.004a9.1 9.1 0 0 1 6.477-2.688c2.445 0 4.746.954 6.476 2.688 25.633 25.633 25.633 67.34 0 92.973L264.086 447.55a7.502 7.502 0 0 0 5.305 12.804 7.48 7.48 0 0 0 5.3-2.195l213.66-213.656C503.602 229.25 512 208.977 512 187.406c0-21.566-8.398-41.843-23.648-57.093M79.395 322.367c1.945-1.805 3.957-3.672 5.875-5.59 5.035-5.03 5.734-11.304 6.351-16.84.527-4.73.98-8.812 3.762-12.578 6.605-8.957 11.988-12.078 18.226-15.695 4.688-2.719 10-5.8 15.621-11.422 9.094-9.094 12.883-16.695 15.926-22.805 2.383-4.789 4.27-8.57 8.239-12.542 8.617-8.618 16.375-11.711 24.593-14.993 6.688-2.668 13.602-5.425 20.121-11.129q.375-.326.704-.707c5.707-6.52 8.464-13.433 11.132-20.12 3.278-8.216 6.375-15.973 14.993-24.59 3.968-3.97 7.75-5.856 12.542-8.239 6.106-3.047 13.708-6.832 22.805-15.926 5.621-5.62 8.703-10.933 11.422-15.625 3.613-6.23 6.738-11.617 15.691-18.226 3.766-2.778 7.848-3.23 12.579-3.758 5.535-.617 11.808-1.316 16.843-6.355 1.914-1.915 3.782-3.926 5.586-5.872 6.418-6.918 12.48-13.449 18.442-13.535 2.5-.082 5.261 1.04 8.332 3.215L69.074 349.141c-2.172-3.07-3.25-5.856-3.215-8.332.086-5.961 6.621-12.024 13.536-18.442m353.21-132.812c-1.945 1.804-3.957 3.672-5.875 5.586v.004c-5.035 5.035-5.734 11.308-6.351 16.84-.527 4.73-.98 8.816-3.758 12.577-6.61 8.958-11.992 12.079-18.226 15.696-4.692 2.719-10.004 5.8-15.625 11.422-9.094 9.093-12.883 16.695-15.922 22.804-2.387 4.79-4.274 8.575-8.243 12.543-8.617 8.618-16.375 11.715-24.593 14.993-6.688 2.667-13.602 5.425-20.121 11.128q-.375.329-.704.707c-5.707 6.52-8.464 13.434-11.132 20.122-3.278 8.214-6.375 15.976-14.993 24.59-3.968 3.972-7.75 5.855-12.542 8.242-6.106 3.043-13.707 6.828-22.805 15.921-5.621 5.622-8.703 10.938-11.422 15.625-3.613 6.235-6.738 11.618-15.691 18.227-3.766 2.777-7.848 3.23-12.579 3.758-5.535.617-11.808 1.316-16.843 6.351-1.914 1.918-3.782 3.93-5.586 5.875-6.418 6.918-12.48 13.45-18.442 13.536-2.492.062-5.261-1.04-8.332-3.211l280.106-280.106c2.172 3.067 3.25 5.856 3.215 8.332-.086 5.957-6.618 12.02-13.536 18.438m40.047-77.711-360.765 360.77c-20 19.995-52.54 19.995-72.54 0-9.687-9.688-15.023-22.567-15.023-36.27 0-13.7 5.336-26.578 15.024-36.266l360.765-360.77c10-9.995 23.137-14.995 36.27-14.995 13.137 0 26.27 5 36.27 14.996 9.687 9.691 15.023 22.57 15.023 36.27s-5.336 26.577-15.024 36.265m0 0"/></svg>