<svg xmlns="http://www.w3.org/2000/svg" viewBox="0 0 512.001 512"><path fill="#f3e8d7" d="M111.059 493.621c11.18-12.308 11.296-31.305.257-43.742a8 8 0 0 0-.238-.266c-2.496-2.758-2.422-6.98.211-9.61l105.293-105.296-39.297-39.293L71.992 400.707c-2.633 2.633-6.851 2.707-9.61.207-.085-.078-.171-.152-.26-.23-12.434-11.04-31.427-10.93-43.735.242-13.973 12.683-14.367 34.308-1.18 47.496 10.207 10.207 21.406 10.527 30.238 8.14 5.012-1.351 9.575 3.153 8.262 8.176-2.328 8.918-2.043 20.14 7.867 30.051 13.184 13.184 34.801 12.793 47.485-1.168m0 0"/><path fill="#efa335" d="M499.48 250.723c18.786-21.192-17.984-90.141-83.027-155.18-65.281-65.285-134.496-102.082-155.41-82.816a170 170 0 0 0-21.36 18.332c-24.511 24.859-39.847 55.375-46 87.304-8.91 46.223-24.222 90.719-45.581 132.02-10.672 20.633-6.567 45.832 9.859 62.254l41.426 41.43c16.422 16.421 41.61 20.53 62.242 9.867 41.344-21.368 85.887-36.688 132.144-45.649 32.258-6.246 63.055-21.86 88.036-46.84a172 172 0 0 0 17.671-20.722m0 0"/><path fill="#fd8f31" d="M499.48 250.723c18.786-21.188-17.984-90.141-83.027-155.18a541 541 0 0 0-21.21-20.11c52.245 58.212 79.663 115.075 62.913 133.965a172 172 0 0 1-17.672 20.727c-24.98 24.98-55.78 40.594-88.035 46.84-58.988 11.422-115.183 33.191-165.515 64.648l12.453 12.453c16.422 16.422 41.61 20.532 62.238 9.868 41.344-21.368 85.887-36.688 132.148-45.649 32.254-6.246 63.055-21.855 88.036-46.836a172 172 0 0 0 17.671-20.726m0 0"/><path fill="#fccf3f" d="M416.45 95.543C350.655 29.75 280.854-7.125 260.546 13.183s16.566 90.11 82.36 155.903c65.792 65.793 135.593 102.668 155.902 82.36 20.308-20.31-16.567-90.11-82.36-155.903m0 0"/><path fill="#edbf3e" d="M416.453 95.543a538 538 0 0 0-22.015-20.828c52.453 58.683 79.582 115.836 61.53 133.887-18.054 18.05-75.202-9.079-133.886-61.532a538 538 0 0 0 20.828 22.016c65.793 65.797 135.594 102.668 155.903 82.36 20.308-20.31-16.563-90.11-82.36-155.903m0 0"/><path fill="#f3e8d7" d="M366.727 145.27c-24.512-24.512-45.957-50.97-60.391-74.497a243 243 0 0 1-4.02-6.796c-3.32-5.84 3.192-12.352 9.032-9.028q3.247 1.845 6.793 4.02c23.53 14.433 49.984 35.879 74.496 60.39s45.957 50.965 60.39 74.493a255 255 0 0 1 4.02 6.796c3.324 5.84-3.192 12.352-9.031 9.032a240 240 0 0 1-6.793-4.024c-23.528-14.43-49.985-35.875-74.496-60.386m0 0"/><path d="M506.445 208.68q-.002-.006-.004-.012-.46-1.255-.957-2.54-.043-.112-.09-.226c-.308-.789-.628-1.59-.956-2.394-.06-.14-.118-.285-.18-.426q-.462-1.12-.953-2.258c-.09-.207-.184-.414-.274-.625q-.462-1.06-.949-2.133-.182-.392-.36-.785a157 157 0 0 0-1.386-2.949q-.473-.996-.977-2.004-.241-.492-.488-.984c-.332-.66-.664-1.324-1.008-1.992-.172-.336-.351-.676-.523-1.012-.235-.445-.457-.89-.695-1.34-.133-.25-.27-.5-.403-.75-.047-.086-.09-.172-.137-.258q-.136-.253-.273-.5a364 364 0 0 0-1.113-2.058c-.137-.243-.274-.493-.41-.739q-.588-1.06-1.192-2.125-.189-.332-.383-.672-.627-1.101-1.277-2.214-.17-.295-.348-.594c-.453-.77-.91-1.547-1.375-2.32-.097-.165-.199-.333-.296-.497q-.733-1.219-1.489-2.445l-.226-.367q-.798-1.29-1.614-2.586-.08-.128-.16-.25-.856-1.36-1.742-2.727l-.07-.109c-12.032-18.605-27.344-38.187-44.957-57.473a641.05 641.05 0 0 0-2.793-3.035c-.094-.101-.192-.203-.285-.308-.844-.907-1.688-1.813-2.543-2.715-.223-.242-.454-.477-.676-.719-.73-.77-1.457-1.539-2.195-2.309-.375-.394-.758-.789-1.137-1.183-.59-.613-1.176-1.227-1.774-1.84a311 311 0 0 0-1.953-2c-.332-.34-.66-.68-.996-1.02q-1.494-1.51-3-3.023a431.493 431.493 0 0 0-4.934-4.863c-.37-.364-.742-.73-1.113-1.09a303 303 0 0 0-2.293-2.207l-.742-.719a664 664 0 0 0-3.031-2.87c-21.328-20.08-43.188-37.45-63.832-50.767q-.012-.01-.024-.015a419 419 0 0 0-2.964-1.887 268 268 0 0 0-2.684-1.672l-.27-.164a260 260 0 0 0-2.543-1.543c-.128-.078-.261-.16-.39-.234-.805-.485-1.61-.957-2.414-1.426-.164-.098-.332-.2-.496-.293-.77-.45-1.54-.887-2.305-1.324q-.293-.167-.582-.332c-.746-.422-1.484-.832-2.227-1.238-.21-.118-.421-.239-.632-.352q-1.08-.595-2.157-1.168c-.168-.09-.343-.188-.511-.277l-.157-.082q-.264-.143-.535-.286c-.55-.293-1.094-.57-1.64-.851l-.899-.469q-1.07-.544-2.129-1.07c-.281-.14-.566-.285-.847-.422a135 135 0 0 0-2.157-1.043q-.38-.182-.754-.363a183 183 0 0 0-2.222-1.028c-.207-.093-.418-.191-.625-.285a161 161 0 0 0-2.305-1.02l-.48-.21a153 153 0 0 0-5.243-2.145c-.043-.015-.09-.035-.132-.05-22.438-8.66-39.286-8.551-49.371.464a178 178 0 0 0-21.918 18.864c-24.778 25.132-41.395 56.668-48.051 91.203-8.813 45.707-23.91 89.433-44.871 129.965-11.27 21.792-8.282 47.816 7.132 66.578l-81.43 81.43c-15.433-13.606-38.523-13.442-53.773.402C4.992 402.82.281 413.105.012 424.258c-.27 11.16 3.93 21.648 11.82 29.539C21.918 463.883 34.398 467.488 48 464.266c-3.133 13.691.379 26.078 10.2 35.898 7.652 7.652 17.75 11.832 28.527 11.832q.502 0 1.003-.012c11.153-.265 21.43-4.972 28.954-13.25a40.27 40.27 0 0 0 .41-53.789l17.742-17.738a7.601 7.601 0 1 0-10.75-10.75l-18.18 18.176c-5.488 5.496-5.691 14.316-.453 20.097l.176.196c8.402 9.465 8.312 24.219-.2 33.586-4.695 5.172-11.109 8.113-18.062 8.277-6.93.18-13.5-2.45-18.422-7.371-6.312-6.309-8.238-13.754-5.886-22.758 1.308-5.004-.098-10.156-3.754-13.785-3.664-3.633-8.84-4.992-13.84-3.645-8.852 2.391-16.336.368-22.887-6.18-4.922-4.921-7.539-11.464-7.371-18.425.168-6.953 3.11-13.371 8.285-18.066 9.371-8.504 24.121-8.59 33.586-.184l.195.176c5.774 5.23 14.594 5.027 20.094-.465l81.64-81.645 28.548 28.547-38.22 38.219a7.6 7.6 0 0 0 0 10.75 7.6 7.6 0 0 0 5.376 2.223 7.6 7.6 0 0 0 5.375-2.223l38.43-38.43c11.152 9.176 24.875 13.953 38.75 13.953a60.6 60.6 0 0 0 27.847-6.789c40.543-20.953 84.313-36.074 130.102-44.941 34.918-6.762 66.719-23.68 91.965-48.926a180 180 0 0 0 18.152-21.226c8.527-9.77 8.856-25.758 1.113-46.918m-12.648 36.996c-.117.133-.235.27-.36.394-13.109 13.114-74.675-11.879-145.152-82.36-25.687-25.683-47.531-52.538-63.172-77.663-2.218-3.567-6.906-4.656-10.468-2.438s-4.653 6.907-2.434 10.47c16.242 26.097 38.832 53.89 65.324 80.382 32.344 32.344 66.735 58.914 96.836 74.812 17.05 9.008 31.719 14.067 43.652 15.141-.53.55-1.05 1.117-1.59 1.656-23.093 23.094-52.175 38.57-84.105 44.754-47.215 9.145-92.363 24.738-134.191 46.36-17.703 9.148-39.149 5.734-53.375-8.493l-41.426-41.425c-14.234-14.23-17.64-35.688-8.484-53.395 21.632-41.824 37.207-86.93 46.293-134.066 6.09-31.578 21.285-60.422 43.953-83.41q1.248-1.267 2.527-2.504c.648 7.453 2.887 16.586 7.54 27.789a7.595 7.595 0 0 0 9.933 4.105c3.875-1.605 5.714-6.055 4.105-9.933-7.453-17.954-8.676-31.899-3.277-37.297.07-.07.152-.137.226-.207.016-.012.032-.02.043-.032 2.047-1.89 5.543-3.082 10.586-3.082 1.004 0 2.082.055 3.211.153 14.438 1.383 37.32 11.082 64.852 29.812 18.699 12.758 38.3 28.813 57.437 47.11l.117.113c.895.855 1.79 1.719 2.68 2.582l1.129 1.101q.906.884 1.813 1.774c1.015 1 2.039 2.012 3.062 3.035a554 554 0 0 1 3.027 3.055c.606.61 1.203 1.222 1.801 1.84a437.054 437.054 0 0 1 3.707 3.836c.004.003.012.007.016.011 18.39 19.23 34.531 38.95 47.332 57.742.289.426.582.852.867 1.274l.281.418c17.836 26.617 27.11 48.73 28.489 62.832.601 6.734-.606 11.27-2.805 13.754m0 0"/><path d="M459.508 189.879c-14.738-24.024-36.578-50.977-61.496-75.895-24.918-24.921-51.875-46.761-75.895-61.496a256 256 0 0 0-7.012-4.148c-5.636-3.203-12.5-2.274-17.082 2.312-4.586 4.586-5.515 11.453-2.312 17.086a246 246 0 0 0 4.148 7.008c14.735 24.024 36.575 50.977 61.493 75.895 24.921 24.922 51.875 46.761 75.894 61.496a262 262 0 0 0 7.012 4.148 14.3 14.3 0 0 0 7.066 1.89c3.653 0 7.25-1.437 10.02-4.202 4.586-4.586 5.515-11.453 2.308-17.086a262 262 0 0 0-4.144-7.008m-14.313 9.3c-23.035-14.128-48.992-35.183-73.093-59.284C348 115.793 326.945 89.835 312.816 66.8a201 201 0 0 1-2.046-3.403 254 254 0 0 1 3.398 2.051c23.035 14.13 48.996 35.184 73.094 59.285 24.101 24.098 45.156 50.055 59.285 73.094q1.05 1.706 2.05 3.399a201 201 0 0 1-3.402-2.047m0 0"/></svg>