<svg xmlns="http://www.w3.org/2000/svg" viewBox="0 -118 512.001 512"><path fill="#d38231" d="M105.828 114.621c-12.668-10.57-32.715-8.574-43.277 2.137-14.903 15.113-28.14 33.832-37.953 53.25-12.051 23.844-32.313 80.832 1.968 96.238 27.106 12.188 61.247-26.879 79.778-41.547 12.078-9.562 24.777-19.324 37.336-27.777 13.605-9.16 17.004-30.856 5.343-42.89-13.53-13.958-28.289-26.973-43.195-39.41M406.172 114.621c12.668-10.57 32.715-8.574 43.277 2.137 14.903 15.113 28.14 33.832 37.953 53.25 12.051 23.844 32.313 80.832-1.968 96.238-27.106 12.188-61.247-26.879-79.778-41.547-12.078-9.562-24.777-19.324-37.336-27.777-13.605-9.16-17.004-30.856-5.343-42.89 13.53-13.958 28.289-26.973 43.195-39.41m0 0"/><path fill="#e88c38" d="M331.512 59.754c8.523-10.922 25.52-15.352 39.031-11.2 26.352 8.102 54.25 21.184 74.453 41.134 47.746 47.148-45.516 130.109-93.453 121.761-16.375-2.855-32.934-6.304-49.086-10.304-16.922-4.192-29.695-24.645-22.465-41.887 14.387-34.297 29.031-70.676 51.52-99.504M180.484 59.754c-8.699-11.98-25.972-14.777-39.03-11.2-26.595 7.29-54.25 21.184-74.45 41.134-47.75 47.152 45.539 130.105 93.45 121.761 16.374-2.851 32.976-6.676 49.085-10.3 17.578-3.958 29.168-24.836 22.465-41.887-13.77-35.051-29.258-68.848-51.52-99.508m0 0"/><path fill="#d38231" d="M348.617 24.45C319.594 8.624 289.336 7.765 257.34 7.554h-.617c-32.516.207-63.832 1.25-93.34 16.894-65.496 34.735.031 159.153 48.71 176.598 15.036 5.387 28.458 4.504 44.938 5.027 16.227-.515 27.805.64 42.88-5.027C349.093 182.55 413.75 59.96 348.616 24.449m0 0"/><path fill="#d38231" d="M348.617 24.45C319.594 8.624 289.336 7.765 257.34 7.554h-.617c-32.516.207-63.832 1.25-93.34 16.894-65.496 34.735.031 159.153 48.71 176.598 15.036 5.387 28.458 4.504 44.938 5.027 16.227-.515 27.805.64 42.88-5.027C349.093 182.55 413.75 59.96 348.616 24.449m0 0"/><path fill="#c6752c" d="M497.988 196.664s-5.418 10.652-15.156 15.367c-26.746 12.957-35.664-27.168-58.887-31.543-37.234-7.015-55.883-15.035-65.082-20.699-6.343 12.285-2.183 29.293 9.457 37.133 12.559 8.453 25.258 18.215 37.336 27.777 16.145 12.781 44.145 44.078 69.016 43.863 5.086-.714 8.68-1.488 10.52-2.316 24.535-11.027 21.128-43.351 12.796-69.582m0 0"/><path fill="#d38231" d="M302.457 201.148c16.152 3.997 32.711 7.45 49.086 10.301 20.953 3.649 50.566-10.148 73.277-30.773-.289-.067-.582-.133-.875-.188-52.605-9.91-68.14-21.828-72.293-26.277a4.91 4.91 0 0 0-4.023-1.559c-23.238 2-45.512 2.825-66.117 2.977-.508 1.21-1.016 2.426-1.52 3.633-7.23 17.238 5.543 37.695 22.465 41.886m0 0"/><path fill="#c6752c" d="M106.344 224.7c12.078-9.563 24.777-19.325 37.332-27.778 11.68-7.863 15.828-24.95 9.402-37.246-9.133 5.672-27.789 13.75-65.265 20.812-23.223 4.375-32.141 44.504-58.887 31.543-9.738-4.715-15.156-15.367-15.156-15.367-.247.777-.489 1.563-.727 2.348q-.031.109-.063.218a155 155 0 0 0-1.445 5.106 153 153 0 0 0-1.265 5.16c-.165.742-.329 1.484-.48 2.23l-.048.22q-.253 1.223-.476 2.44l-.047.255a109 109 0 0 0-.371 2.164c-.024.136-.043.27-.067.406q-.194 1.208-.36 2.414-.002.018-.003.035c-.105.766-.2 1.535-.281 2.297-.02.16-.035.32-.055.48-.082.774-.16 1.543-.223 2.31v.019a96 96 0 0 0-.156 2.332c-.012.16-.016.32-.023.484a67 67 0 0 0-.082 2.332 72 72 0 0 0-.008 2.25q.001.21.008.414c.011.625.03 1.242.062 1.86.008.164.012.332.024.496q.058 1.094.156 2.171c.004.079.015.157.023.235a50 50 0 0 0 .29 2.433c.093.668.195 1.329.316 1.98q.005.055.015.102c.125.684.27 1.356.426 2.02q.058.259.121.512c.137.55.278 1.097.434 1.636.035.125.066.254.105.375.192.641.395 1.27.617 1.895q.078.214.16.43.276.755.587 1.492.092.223.191.453.388.897.828 1.766c.043.09.094.18.14.27q.388.741.81 1.46.136.224.273.453c.328.531.664 1.059 1.023 1.57q.022.03.043.067a30 30 0 0 0 1.512 1.945q.523.62 1.082 1.219c.086.09.168.184.254.273.453.47.926.922 1.418 1.364.12.11.242.21.367.32q.609.528 1.254 1.027c.133.106.262.211.398.313.543.402 1.102.797 1.684 1.172.101.066.21.129.312.195q.751.47 1.543.91l.516.281c.64.34 1.297.668 1.98.977 1.844.828 5.438 1.598 10.528 2.313 24.933.417 53.058-31.043 69.254-43.864m0 0"/><path fill="#d38231" d="M87.14 180.633c22.723 20.648 52.36 34.465 73.317 30.816 16.375-2.851 32.977-6.676 49.082-10.3 17.582-3.958 29.168-24.836 22.465-41.891-.477-1.211-.961-2.418-1.441-3.63-20.692-.144-43.075-.964-66.434-2.976a4.93 4.93 0 0 0-4.027 1.559c-4.149 4.45-19.688 16.367-72.29 26.277-.226.043-.449.094-.671.145m0 0"/><path fill="#c6752c" d="M299.906 201.047c16.852-6.336 35.516-24.89 50.156-47.973a4.9 4.9 0 0 0-2.433-.422c-33.246 2.864-64.52 3.317-91.75 2.844-27.23.473-58.504.02-91.75-2.844a4.86 4.86 0 0 0-2.277.352c14.722 23.344 33.48 42.035 50.242 48.043 15.035 5.387 28.457 4.504 44.937 5.027 16.227-.515 27.805.64 42.875-5.027m0 0"/><path d="M494.145 166.598c-7.72-15.278-17.524-30.102-28.43-43.114.89-14.77-4.285-28.183-15.414-39.171-22-21.731-51.602-34.594-73.688-41.754-5.265-10.43-13.433-18.77-24.383-24.743C322.672 1.7 293.047.238 257.41 0h-.738c-35.059.223-66.543 1.715-96.828 17.777-10.93 5.793-19.149 14.176-24.461 24.688-28.887 8.578-54.957 23.347-73.688 41.844-11.129 10.992-16.3 24.406-15.406 39.175-10.91 13.008-20.715 27.836-28.434 43.114-4.382 8.668-25.68 53.464-14.792 84.214 3.671 10.38 10.539 17.887 20.406 22.325 4.695 2.11 9.453 3.039 14.222 3.039 22.164 0 44.57-20.098 61.75-35.508 4.266-3.824 8.293-7.438 11.59-10.047 7.52-5.953 13.82-10.816 19.551-15.094 8.09 2.653 15.848 4.043 22.93 4.043 2.863 0 5.62-.226 8.242-.683 15.148-2.637 30.469-6.094 45.281-9.434l3.805-.86c13.02 4.41 24.933 4.626 37.52 4.84 2.734.047 5.535.098 8.433.188.078.004.16.004.238.004s.16 0 .239-.004c3.042-.098 5.94-.133 8.746-.168 11.98-.152 22.394-.297 35.168-4.844 15.828 3.907 32.332 7.364 49.062 10.278 2.625.457 5.379.683 8.246.683 7.082 0 14.84-1.39 22.93-4.039 5.738 4.285 12.039 9.149 19.543 15.086.847.672 1.73 1.395 2.64 2.168a7.53 7.53 0 0 0 4.868 1.777 7.53 7.53 0 0 0 5.777-2.68 7.55 7.55 0 0 0-.902-10.644q-1.559-1.314-3.004-2.465a1030 1030 0 0 0-12.817-9.996c4.067-2.07 8.16-4.41 12.239-7.039 20.722-13.351 38.101-31.668 47.68-50.254a87 87 0 0 0 4.023-9.02c7.23 9.72 13.765 20.212 19.191 30.95 8.66 17.137 21.363 51.664 14.035 72.36-2.273 6.425-6.316 10.867-12.36 13.581-10.218 4.598-23.753-.238-42.593-15.21a7.552 7.552 0 1 0-9.398 11.824c11.613 9.23 27.664 20.168 44.07 20.168 4.711 0 9.45-.903 14.117-3 9.867-4.438 16.735-11.946 20.406-22.325 10.887-30.746-10.41-75.546-14.792-84.214m-392.489 52.18c-3.664 2.898-7.86 6.66-12.3 10.644-16.79 15.058-42.157 37.82-59.692 29.933-6.043-2.714-10.086-7.156-12.36-13.582-7.327-20.695 5.376-55.222 14.036-72.359 5.426-10.738 11.96-21.234 19.195-30.95a86 86 0 0 0 4.02 9.009c9.578 18.59 26.957 36.906 47.683 50.261a140 140 0 0 0 12.239 7.04 1018 1018 0 0 0-12.82 10.003m196.516-25.169a7 7 0 0 0-.352.141c-.191.074-.382.156-.57.227-10.941 4.113-19.98 4.226-31.426 4.375-2.8.035-5.695.07-8.793.164-2.886-.09-5.683-.137-8.414-.184-12.23-.207-22.793-.387-33.976-4.394-.141-.051-.286-.118-.43-.168-.027-.016-.059-.024-.09-.036-21.828-8.191-48.43-41.156-62.09-77.058a7.55 7.55 0 0 0-9.746-4.375 7.56 7.56 0 0 0-4.375 9.746c11.848 31.137 32.36 59.703 53.055 75.527-10.578 2.34-21.278 4.602-31.805 6.434-1.86.324-3.812.48-5.844.48-27.468-.004-69.214-28.652-85.336-59.933-7.043-13.672-12.011-33.356 4.329-49.493 14.8-14.613 34.793-26.703 57.238-34.789-1.406 7.817-1.66 16.364-.684 25.54a7.554 7.554 0 1 0 15.024-1.598c-1.317-12.387-.188-22.953 3.351-31.649.301-.515.535-1.066.707-1.64 3.88-8.528 10.207-15.153 18.973-19.801 27.309-14.48 55.644-15.797 89.934-16.016h.437c33.508.223 61.242 1.543 87.711 15.977 8.746 4.766 15.063 11.488 18.945 20.078q.175.528.426 1.016c3.41 8.066 4.762 17.71 3.977 28.93-2.696 38.636-36.137 98.843-70.176 112.5m145.844-49.047c-17.309 33.594-64.172 64.149-91.176 59.446a730 730 0 0 1-32.07-6.336c11.945-9.082 23.925-22.442 34.52-38.75 16.214-24.973 26.468-52.95 28.132-76.762.539-7.703.21-14.894-.945-21.543 18.691 7.031 40.539 17.98 57.21 34.446 16.344 16.136 11.375 35.828 4.329 49.5m0 0"/></svg>