<svg xmlns="http://www.w3.org/2000/svg" viewBox="0 -66 512 512"><path fill="#efa335" d="M504.633 190.336s-.133-2.356-.133-14.723L179.313 9.313a16.7 16.7 0 0 0-8.02-1.81C80.438 9.825 7.5 84.204 7.5 175.614v14.719h497.133zm0 0"/><path fill="#fccf3f" d="M478.02 232.836c0-14.363 11.437-26.059 25.703-26.469a.79.79 0 0 0 .777-.785v-29.969H7.5v90.512a4.59 4.59 0 0 0 4.59 4.594h.164c18.762 0 33.969 15.207 33.969 33.969s-15.207 33.968-33.97 33.968h-.046a4.72 4.72 0 0 0-4.707 4.707v10.711c0 9.985 8.094 18.078 18.078 18.078h460.844c9.984 0 18.078-8.093 18.078-18.078v-93.98a.79.79 0 0 0-.777-.785c-14.266-.414-25.703-12.106-25.703-26.473m0 0"/><path fill="#efc03c" d="M503.723 206.367a.79.79 0 0 0 .777-.785v-29.969h-57.61v157.961c0 9.985-8.093 18.078-18.077 18.078H7.5v2.422c0 9.985 8.094 18.078 18.078 18.078h460.844c9.984 0 18.078-8.093 18.078-18.078v-93.98a.79.79 0 0 0-.777-.785c-14.266-.414-25.703-12.106-25.703-26.473 0-14.363 11.437-26.059 25.703-26.469m0 0"/><path fill="#ffe497" d="M371.465 175.613c0-12.57-15.207-22.758-33.969-22.758s-33.969 10.188-33.969 22.758 15.207 22.762 33.97 22.762c18.76 0 33.968-10.191 33.968-22.762M264.234 345.672c0 14.625-11.855 26.48-26.48 26.48s-26.48-11.855-26.48-26.48 11.855-26.48 26.48-26.48 26.48 11.855 26.48 26.48m0 0"/><path fill="#f4d484" d="M263.547 351.652H211.96c2.715 11.743 13.226 20.5 25.793 20.5 12.57 0 23.082-8.757 25.793-20.5m0 0"/><g fill="#ffe497"><path d="M168.738 239.813c0 22.949-18.605 41.55-41.554 41.55-22.946 0-41.551-18.601-41.551-41.55s18.605-41.551 41.55-41.551c22.95 0 41.555 18.601 41.555 41.55M172.742 55.941c0-11.8-11.605-21.367-25.922-21.367-14.32 0-25.925 9.567-25.925 21.367S132.5 77.31 146.82 77.31c14.317 0 25.922-9.567 25.922-21.368M440.836 304.688c0 22.3-18.078 40.375-40.375 40.375-22.3 0-40.379-18.075-40.379-40.375s18.078-40.375 40.379-40.375c22.297 0 40.375 18.074 40.375 40.375m0 0"/></g><path d="M503.945 213.863a8.25 8.25 0 0 0 8.055-8.281v-29.969c0-.02-.004-.043-.004-.066 0-.16-.012-.32-.023-.48-.008-.094-.008-.188-.02-.282-.015-.129-.039-.254-.058-.379s-.04-.246-.063-.367c-.02-.086-.047-.168-.066-.254a9 9 0 0 0-.125-.46c-.016-.055-.04-.106-.055-.157-.063-.176-.125-.352-.2-.523q-.034-.073-.07-.145a8 8 0 0 0-.242-.492c-.05-.09-.105-.176-.16-.266-.07-.113-.137-.23-.21-.34-.09-.132-.188-.254-.286-.379q-.07-.095-.145-.191a6 6 0 0 0-.347-.383c-.047-.05-.09-.101-.14-.152-.106-.106-.223-.203-.337-.305-.07-.062-.136-.129-.21-.187-.094-.078-.192-.145-.29-.22a10 10 0 0 0-.32-.23 5 5 0 0 0-.242-.144 6 6 0 0 0-.414-.242c-.02-.008-.04-.024-.059-.035L240.375 32.117c-3.687-1.883-8.207-.426-10.09 3.262a7.5 7.5 0 0 0 3.262 10.094l239.816 122.644h-66.715a7.496 7.496 0 0 0-7.5 7.496c0 4.145 3.356 7.5 7.5 7.5H497v16.563c-15.281 3.383-26.48 16.883-26.48 33.164 0 16.277 11.203 29.777 26.48 33.16v88.074c0 5.832-4.746 10.578-10.578 10.578H265.926a33.77 33.77 0 0 0 5.808-18.98c0-18.738-15.242-33.98-33.98-33.98-18.734 0-33.98 15.242-33.98 33.98a33.8 33.8 0 0 0 5.808 18.98H25.578c-5.832 0-10.578-4.746-10.578-10.578v-8.008c21.59-1.418 38.723-19.437 38.723-41.378 0-21.946-17.133-39.961-38.723-41.38v-80.195h253.672a7.499 7.499 0 1 0 0-14.996H15.176C16.98 128.723 32.98 91.773 60.69 63.391c29.414-30.133 68.762-47.317 110.79-48.387a9.16 9.16 0 0 1 4.417.988l26.293 13.445a7.5 7.5 0 0 0 10.09-3.265 7.497 7.497 0 0 0-3.261-10.09L182.727 2.637C179.164.817 175.14-.078 171.102.004 125.14 1.18 82.117 19.969 49.957 52.91 17.742 85.91 0 129.488 0 175.613v90.512c0 6.668 5.426 12.094 12.09 12.094h.164c14.598 0 26.469 11.875 26.469 26.469 0 14.597-11.871 26.472-26.516 26.472C5.477 331.156 0 336.633 0 343.363v10.711c0 14.102 11.473 25.578 25.578 25.578h460.844c14.105 0 25.578-11.476 25.578-25.578v-93.98c0-4.512-3.54-8.149-8.062-8.285-10.329-.297-18.418-8.63-18.418-18.97 0-10.343 8.09-18.675 18.425-18.976m-266.191 150.79c-10.465 0-18.98-8.516-18.98-18.981s8.515-18.98 18.98-18.98c10.469 0 18.98 8.515 18.98 18.98s-8.511 18.98-18.98 18.98m0 0"/><path d="M337.496 145.355c-23.254 0-41.469 13.293-41.469 30.258 0 16.969 18.215 30.262 41.47 30.262s41.468-13.293 41.468-30.262c0-16.965-18.215-30.258-41.469-30.258m0 45.52c-12.52 0-26.469-6.27-26.469-15.262s13.95-15.258 26.47-15.258 26.468 6.266 26.468 15.258-13.95 15.262-26.469 15.262M78.133 239.813c0 27.046 22.004 49.05 49.05 49.05 27.051 0 49.055-22.004 49.055-49.05s-22.004-49.051-49.054-49.051c-27.047 0-49.051 22.004-49.051 49.05m83.105 0c0 18.777-15.277 34.054-34.054 34.054s-34.051-15.277-34.051-34.055 15.273-34.05 34.05-34.05 34.055 15.273 34.055 34.05M146.82 27.074c-18.43 0-33.422 12.95-33.422 28.867S128.391 84.81 146.82 84.81c18.426 0 33.422-12.95 33.422-28.868s-14.996-28.867-33.422-28.867m0 42.735c-9.988 0-18.425-6.352-18.425-13.868 0-7.52 8.437-13.867 18.425-13.867 9.985 0 18.422 6.352 18.422 13.867S156.805 69.81 146.82 69.81M352.586 304.688c0 26.398 21.476 47.875 47.875 47.875 26.398 0 47.875-21.477 47.875-47.875s-21.477-47.875-47.875-47.875c-26.399 0-47.875 21.476-47.875 47.875m47.875-32.88c18.129 0 32.875 14.75 32.875 32.88s-14.746 32.875-32.875 32.875-32.875-14.747-32.875-32.875 14.746-32.88 32.875-32.88m0 0"/></svg>