<svg xmlns="http://www.w3.org/2000/svg" viewBox="0 -5 511.999 511"><path fill="#8e2f2f" d="M501.727 231.945c4.468-5.457 3.808-19.586-4.649-29.25-4.46-5.097-6.93-11.703-6.988-18.472-.11-12.766-8.883-23.825-15.828-24.961-18.172-2.977-45.95 52.718-49.633 60.281 7.762 3.238 65.434 26.652 77.098 12.402M10.273 231.945c-4.468-5.457-3.812-19.586 4.649-29.25 4.46-5.097 6.926-11.703 6.984-18.472.114-12.766 8.887-23.825 15.828-24.961 18.172-2.977 45.954 52.718 49.633 60.281-7.758 3.238-65.43 26.652-77.094 12.402m0 0"/><path fill="#912c2c" d="M395.11 177.988c-91.786 23.492-185.989 23.547-277.782.176-25.351-6.457-51.46 7.313-60.223 31.961-9.921 27.918 6.188 58.457 34.895 65.781 108.355 27.649 220.227 27.578 328.563-.207 28.273-7.25 44.148-37.3 34.375-64.804-.168-.473-.34-.95-.508-1.426-8.63-24.278-34.36-37.867-59.32-31.48m0 0"/><path fill="#7c1e1e" d="M454.43 209.473a49.7 49.7 0 0 0-5.364-10.762c-6.52 9.516-16.363 16.84-28.504 19.953-108.335 27.785-220.207 27.852-328.558.207-12.363-3.156-22.383-10.621-29-20.324a50.5 50.5 0 0 0-5.899 11.578c-9.921 27.918 6.188 58.457 34.899 65.781 108.351 27.649 220.223 27.582 328.559-.207 28.273-7.25 44.152-37.3 34.375-64.8q-.251-.717-.508-1.426m0 0"/><path fill="#0d6e9a" d="M272.023 356.574h-32.046l-4.692 128.79c-.172 4.624 3.535 8.468 8.164 8.468h25.102c4.629 0 8.332-3.844 8.164-8.469l-.625-17.203-.348-9.5-.941-25.867zm0 0"/><path d="M177.383 120.605c-1.98 7.34-6.235 12.122-6.242 12.133a7.497 7.497 0 0 0 .406 10.598 7.47 7.47 0 0 0 5.094 1.996 7.5 7.5 0 0 0 5.504-2.402c8.675-9.371 19.937-33.82.449-59.266-6-7.832-8.645-14.957-7.653-20.601a13.2 13.2 0 0 1 2.364-5.504c1.754-2.407 1.793-5.657.25-8.2-2.758-4.547-9.29-4.882-12.418-.578a28.1 28.1 0 0 0-4.89 11.266c-1.942 10.14 1.57 21.156 10.44 32.738 6.965 9.094 9.22 18.453 6.696 27.82M336.262 120.605c-1.977 7.34-6.235 12.122-6.242 12.133a7.497 7.497 0 0 0 .406 10.598 7.47 7.47 0 0 0 5.094 1.996 7.48 7.48 0 0 0 5.503-2.402c8.676-9.371 19.938-33.82.45-59.266-6-7.832-8.645-14.957-7.653-20.601a13.3 13.3 0 0 1 2.606-5.825c1.691-2.187 2.004-5.14.851-7.652-2.308-5.035-9.168-5.965-12.601-1.617-2.39 3.023-4.574 6.992-5.547 12.078-1.945 10.14 1.566 21.156 10.437 32.738 6.965 9.094 9.22 18.453 6.696 27.82M256.82 75.664c-1.976 7.34-6.23 12.121-6.242 12.133a7.5 7.5 0 0 0 5.5 12.594c2.02 0 4.027-.809 5.504-2.403 8.68-9.37 19.941-33.82.453-59.265-6.004-7.832-8.648-14.957-7.652-20.602.41-2.34 1.398-4.207 2.433-5.601 1.723-2.325 2.028-5.399.7-7.97-2.532-4.905-9.297-5.468-12.637-1.073a27.7 27.7 0 0 0-5.191 11.628c-1.946 10.141 1.566 21.157 10.437 32.739 6.969 9.093 9.219 18.453 6.695 27.82M502.723 197.754c-3.266-3.727-5.09-8.559-5.133-13.598-.133-15.297-10.469-30.39-22.113-32.297-10.614-1.73-22.122 6.801-35.891 26.758-11.89-8.008-26.703-11.453-41.7-8.87a7.5 7.5 0 0 0-3.241.655c-.465.106-.93.203-1.395.32a570 570 0 0 1-42.664 9.204 7.5 7.5 0 0 0-1.691.281 553 553 0 0 1-44.446 5.82 7.3 7.3 0 0 0-1.703.149 543 543 0 0 1-44.14 2.023 7.6 7.6 0 0 0-1.973.016 544 544 0 0 1-43.106-1.653 7.6 7.6 0 0 0-2.136-.183 550 550 0 0 1-42.516-5.168 7.6 7.6 0 0 0-1.84-.309 565 565 0 0 1-42.473-8.68 4 4 0 0 0-.285-.07c-1.699-.418-3.398-.824-5.097-1.257-16.657-4.239-33.438-.97-46.68 7.843-13.805-20.047-25.332-28.617-35.977-26.879-11.644 1.907-21.98 16.996-22.113 32.297-.043 5.04-1.867 9.867-5.129 13.598-10.097 11.539-12.347 29.734-4.808 38.941 3.992 4.88 10.535 7.309 20.004 7.309 6.511 0 14.414-1.156 23.812-3.457a58 58 0 0 0 5.227 13.844c7.62 14.297 20.972 24.789 36.632 28.785 3.168.804 6.36 1.597 9.485 2.347 4.027.97 8.074-1.515 9.043-5.543a7.503 7.503 0 0 0-5.543-9.042 654 654 0 0 1-9.278-2.297c-11.753-3-21.378-10.567-27.105-21.309a43.18 43.18 0 0 1-2.578-34.695c2.371-6.668 6.207-12.399 11.031-16.938a7.5 7.5 0 0 0 1.129-1.027c8.617-7.547 20.098-11.457 31.984-10.442-4.105 6.313-7.007 13.926-8.222 22.008a7.502 7.502 0 0 0 7.426 8.614 7.5 7.5 0 0 0 7.406-6.387c1.238-8.23 4.863-15.875 9.715-20.785a581 581 0 0 0 28.367 5.996c-3.801 6.668-6.266 14.625-6.95 22.949a7.5 7.5 0 0 0 7.485 8.11 7.497 7.497 0 0 0 7.465-6.887c.68-8.29 3.77-16.157 8.262-21.387 9.71 1.52 19.425 2.77 29.152 3.773-3.285 6.871-5.18 14.907-5.3 23.184a7.5 7.5 0 0 0 7.39 7.61h.11a7.5 7.5 0 0 0 7.495-7.391c.121-8.34 2.684-16.414 6.824-21.938 9.895.73 19.793 1.192 29.696 1.395-2.766 7.027-4.086 15.097-3.653 23.293a7.497 7.497 0 0 0 7.883 7.093 7.5 7.5 0 0 0 7.094-7.882c-.441-8.364 1.59-16.63 5.375-22.422a554 554 0 0 0 30.348-1.11c-2.227 7.141-2.977 15.192-2.004 23.25a7.5 7.5 0 0 0 8.343 6.547 7.5 7.5 0 0 0 6.547-8.343c-1.007-8.34.477-16.754 3.89-22.79a566 566 0 0 0 30.509-3.742c-1.7 7.223-1.887 15.227-.39 23.13a7.5 7.5 0 0 0 14.737-2.798c-1.574-8.293-.644-16.832 2.403-23.093a581 581 0 0 0 30.566-6.36c-1.168 7.25-.8 15.164 1.203 22.86a7.506 7.506 0 0 0 7.254 5.609c.625 0 1.262-.082 1.895-.246A7.496 7.496 0 0 0 402 206.94c-2.078-7.98-1.777-16.351.688-22.75 12.261-1.441 24.187 2.512 32.996 10.368q.504.573 1.136 1.043c4.598 4.418 8.262 9.953 10.543 16.375l.508 1.425a42.4 42.4 0 0 1-2.52 34.047c-5.62 10.567-15.09 18.02-26.652 20.985-92.96 23.84-187.715 27.109-281.62 9.714-4.071-.757-7.985 1.934-8.74 6.008a7.495 7.495 0 0 0 6.005 8.739 673 673 0 0 0 63.93 8.703v2.812c0 15.867 5.503 31.395 15.5 43.723q.297.368.64.695c7.043 6.742 13.008 11.254 17.844 13.524l-4.469 122.734a15.53 15.53 0 0 0 4.379 11.445 15.53 15.53 0 0 0 11.277 4.797h25.102c4.297 0 8.3-1.703 11.281-4.797a15.53 15.53 0 0 0 4.379-11.445l-.637-17.524c-.152-4.14-3.656-7.37-7.77-7.222a7.497 7.497 0 0 0-7.218 7.77l.637 17.523a.63.63 0 0 1-.188.492c-.199.203-.414.203-.484.203h-25.098c-.07 0-.285 0-.484-.203-.195-.207-.188-.422-.188-.492l4.43-121.563h17.586l2.516 68.992c.148 4.141 3.632 7.352 7.765 7.223 4.14-.148 7.371-3.629 7.223-7.77l-2.559-70.163c4.836-2.27 10.801-6.782 17.848-13.524q.34-.328.64-.695c9.993-12.328 15.497-27.856 15.497-43.723v-2.82c36.402-3.195 72.687-9.39 108.703-18.63 15.469-3.968 28.652-14.339 36.168-28.464a57.2 57.2 0 0 0 5.218-13.926c9.352 2.282 17.223 3.434 23.711 3.434 9.465 0 16.012-2.434 20.004-7.313 7.535-9.203 5.29-27.398-4.804-38.937m-452.684 9.86a58 58 0 0 0-3.316 17.866c-26.16 6.715-30.602 1.77-30.645 1.715-1.762-2.152-1.883-12.28 4.488-19.562 5.625-6.43 8.766-14.719 8.84-23.344.086-9.68 6.832-17.184 9.543-17.629.074-.012 6.766-.8 22.176 22.024a58.2 58.2 0 0 0-11.086 18.93m248.688 96.8a54.6 54.6 0 0 1-11.86 33.91c-5.238 4.953-11.687 9.895-14.023 10.754h-33.692c-2.332-.86-8.785-5.8-14.02-10.754a54.57 54.57 0 0 1-11.855-33.91v-1.668a662 662 0 0 0 42.754 1.395c14.239 0 28.473-.47 42.696-1.391zm197.195-77.219c-.043.055-4.488 5.004-30.668-1.718a57.2 57.2 0 0 0-3.25-17.09l-.508-1.426a57.5 57.5 0 0 0-10.605-18.305c15.394-22.785 22.093-22.004 22.16-21.996 2.71.445 9.457 7.953 9.543 17.63.074 8.624 3.215 16.913 8.84 23.343 6.37 7.281 6.25 17.41 4.488 19.562m0 0"/></svg>