<svg xmlns="http://www.w3.org/2000/svg" viewBox="0 0 511.998 511"><path fill="#efefef" d="M504.488 267.375c0 69.668-41.312 147.781-111.281 164.348-56.355 13.343-73.32 71.675-137.207 71.675-78.96 0-115.824-60.582-161.34-115.12-33.59-40.25-87.148-28.196-87.148-120.903 0-95.824 80.777-111.473 117.96-145.316C169.09 82.355 144.84 8.012 256 8.012c98.766 0 115.164 55.129 160.742 106.156 36.754 41.148 87.746 44.066 87.746 153.207m0 0"/><path fill="#e2e2e2" d="M416.742 114.168C371.164 63.141 354.766 8.012 256 8.012c-10.527 0-19.832.668-28.102 1.91 73.059 10.125 90.504 58.812 131.09 104.246 36.754 41.148 87.746 44.066 87.746 153.207 0 69.668-41.312 147.777-111.28 164.348-47.876 11.336-67.329 55.129-111.267 68.054 9.825 2.34 20.375 3.621 31.813 3.621 63.887 0 80.852-58.332 137.207-71.675 69.969-16.57 111.281-94.68 111.281-164.348 0-109.14-50.992-112.059-87.746-153.207m0 0"/><path fill="#fccf3f" d="M398.957 268.453c0 53.098-43.043 96.14-96.14 96.14s-96.141-43.042-96.141-96.14 43.043-96.14 96.14-96.14 96.141 43.042 96.141 96.14m0 0"/><path fill="#efa335" d="M347.527 183.328c7.032 13.356 11.016 28.567 11.016 44.707 0 53.098-43.047 96.14-96.14 96.14-16.145 0-31.352-3.984-44.712-11.015 16.094 30.578 48.172 51.434 85.125 51.434 53.098 0 96.141-43.047 96.141-96.14 0-36.954-20.852-69.032-51.43-85.126m0 0"/><path d="M260.543 212.926c-17.48 13.328-27.508 33.566-27.508 55.527 0 4.149 3.363 7.508 7.512 7.508s7.508-3.36 7.508-7.508c0-17.234 7.87-33.117 21.597-43.582a7.512 7.512 0 0 0-9.109-11.945M450.887 134.438c-5.196-4.055-10.567-8.247-15.68-12.696a7.513 7.513 0 0 0-9.863 11.332c5.418 4.711 10.949 9.031 16.297 13.203 29.691 23.176 55.336 43.188 55.336 121.098 0 33.813-10.297 69.563-28.25 98.086-13.72 21.797-38.254 49.719-77.25 58.953-26.809 6.348-44.954 21.91-62.504 36.961-20.696 17.746-40.243 34.512-72.973 34.512-52.273 0-85.316-27.067-121.687-70.735a7.51 7.51 0 0 0-10.579-.96 7.51 7.51 0 0 0-.964 10.578c30.68 36.835 68.812 76.14 133.23 76.14 38.29 0 60.895-19.387 82.754-38.133 16.934-14.523 32.926-28.238 56.184-33.746 76.035-18.004 117.058-101.879 117.058-171.656.004-85.242-31.066-109.488-61.11-132.937m0 0"/><path d="M100.43 383.465c-11.578-13.871-24.957-21.746-37.899-29.36-25.492-15.003-47.508-27.96-47.508-86.73 0-29.879 8.266-54.008 25.278-73.773C55.449 176 75.156 164.109 94.219 152.613c13.484-8.136 26.222-15.82 36.308-25 15.68-14.273 23.09-32.199 30.262-49.539 13.875-33.562 25.863-62.55 95.211-62.55 74.688 0 98.797 31.613 129.324 71.636 4.727 6.195 9.61 12.602 14.805 19.02a7.51 7.51 0 0 0 10.562 1.113 7.51 7.51 0 0 0 1.114-10.563c-5.055-6.25-9.875-12.57-14.535-18.68C366.852 38.169 338.12.5 256 .5c-35.277 0-60.996 7.43-78.629 22.715-15.832 13.723-23.27 31.715-30.465 49.12-6.84 16.54-13.297 32.157-26.492 44.169-8.992 8.187-21.121 15.5-33.957 23.246C47.937 162.984 0 191.898 0 267.375c0 67.363 27.914 83.79 54.91 99.676 12.383 7.285 24.078 14.172 33.985 26.039 3.41 4.086 7.023 8.504 11.714 14.328a7.5 7.5 0 0 0 5.856 2.797c1.652 0 3.32-.543 4.707-1.66a7.514 7.514 0 0 0 1.137-10.563c-4.75-5.894-8.414-10.375-11.88-14.527m0 0"/><path d="M302.816 164.8c-57.152 0-103.652 46.5-103.652 103.653s46.5 103.652 103.652 103.652 103.653-46.5 103.653-103.652-46.5-103.652-103.653-103.652m0 192.282c-48.87 0-88.628-39.758-88.628-88.629s39.757-88.629 88.628-88.629 88.63 39.758 88.63 88.63-39.759 88.628-88.63 88.628m0 0"/></svg>