<svg xmlns="http://www.w3.org/2000/svg" viewBox="-56 0 512 512"><path fill="#efa335" d="M378.242 58.23c-128.363 0-244.57 52.032-328.691 136.149L355.77 500.598c8.292 8.293 22.472 2.418 22.472-9.309zm0 0"/><path fill="#fd8f31" d="M321.438 61.676v404.59l34.332 34.336c8.293 8.293 22.472 2.418 22.472-9.309V58.23a469 469 0 0 0-56.804 3.446m0 0"/><g fill="#fc4e51"><path d="M346.621 137.45c0 13.91-11.273 25.187-25.183 25.187-13.915 0-25.188-11.278-25.188-25.188s11.273-25.187 25.188-25.187c13.91 0 25.183 11.277 25.183 25.187M245.68 298.137c0 12.578-10.196 22.773-22.774 22.773s-22.777-10.195-22.777-22.773 10.2-22.778 22.777-22.778 22.774 10.2 22.774 22.778M356.059 294.707c0 13.164-10.676 23.84-23.844 23.84-13.164 0-23.84-10.676-23.84-23.84 0-13.168 10.676-23.84 23.84-23.84 13.168 0 23.844 10.672 23.844 23.84m0 0"/></g><path fill="#dfede7" d="M324.176 359.422h-5.508c-14.3 0-25.89 11.59-25.89 25.89a6.99 6.99 0 0 0 6.988 6.993h6.98a2.74 2.74 0 0 1 2.734 2.882l-.578 10.872a5.86 5.86 0 0 0 5.852 6.175h13.332a5.86 5.86 0 0 0 5.855-6.175l-.578-10.872a2.74 2.74 0 0 1 2.735-2.882h6.98a6.99 6.99 0 0 0 6.988-6.993c.004-14.296-11.586-25.89-25.89-25.89M222.906 198.223v6.492c0 16.855 13.664 30.52 30.516 30.52a8.244 8.244 0 0 0 8.242-8.243v-8.222a3.23 3.23 0 0 1 3.399-3.227l12.812.684a6.91 6.91 0 0 0 7.277-6.903v-15.71c0-3.962-3.324-7.114-7.277-6.903l-12.812.684a3.23 3.23 0 0 1-3.399-3.227v-8.227c0-4.546-3.691-8.238-8.242-8.238-16.852 0-30.516 13.664-30.516 30.52m0 0"/><path fill="#fccf3f" d="M367.145 7.512q-1.968-.019-3.942-.02c-135.754 0-258.66 55.028-347.625 143.992l-.375.375c-10.27 10.293-10.254 27.133.027 37.414l19.254 19.258c10.387 10.383 27.375 10.38 37.754-.008l.192-.191q.076-.083.16-.164c8.812-8.8 23.172-8.555 31.781.45l39.219 41.019a13.686 13.686 0 0 0 19.601.222c5.454-5.453 5.555-14.472.223-20.047l-28.226-29.527c-5.215-5.457-5.512-14.156-.31-19.625 5.556-5.836 14.79-5.789 20.294-.031l8.89 9.293c5.215 5.457 13.895 6.14 19.586 1.187 6.082-5.285 6.454-14.515.95-20.27l-6.45-6.745c-10.433-10.91-7.253-28.871 6.34-35.442 54.043-26.12 114.668-40.765 178.715-40.765 1.215 0 2.434.008 3.649.015 14.675.133 26.62-11.773 26.62-26.453V33.996c.005-14.566-11.761-26.36-26.327-26.484m0 0"/><path fill="#efa335" d="M367.145 7.512q-1.968-.019-3.942-.02c-9.176 0-18.293.262-27.344.758v80.543a417 417 0 0 1 30.993-.89c14.675.132 26.62-11.774 26.62-26.454V33.996c.005-14.566-11.761-26.36-26.327-26.484m0 0"/><path d="M367.21.02Q365.209 0 363.204 0c-67.375 0-132.738 13.195-194.277 39.227C109.492 64.363 56.117 100.352 10.27 146.195l-.372.375c-13.21 13.239-13.195 34.778.036 48.004l19.254 19.258c6.437 6.438 15.019 9.98 24.167 9.98h.008c9.157-.003 17.739-3.55 24.18-9.996l.344-.343a14.52 14.52 0 0 1 10.328-4.262h.18a14.75 14.75 0 0 1 10.562 4.586l39.219 41.023c3.98 4.164 9.34 6.493 15.086 6.559h.242c5.656 0 10.969-2.203 14.988-6.219 8.32-8.324 8.477-22.015.34-30.523l-28.23-29.528c-2.52-2.636-2.653-6.8-.297-9.277a6.48 6.48 0 0 1 4.73-2.035h.008c1.797 0 3.473.715 4.715 2.012l8.887 9.296c8.105 8.48 21.25 9.208 29.925 1.665 4.489-3.907 7.11-9.32 7.383-15.25a21.6 21.6 0 0 0-5.941-15.856l-6.446-6.742c-3.316-3.469-4.726-8.168-3.875-12.89.848-4.688 3.786-8.563 8.059-10.626 54.941-26.554 113.973-40.02 175.453-40.02q1.792 0 3.578.016c9.13.094 17.66-3.402 24.125-9.808 6.489-6.43 10.059-15.004 10.059-24.137v-27.46C400.969 15.421 385.825.18 367.21.02m18.77 61.433c0 5.106-1.996 9.899-5.62 13.488-3.606 3.575-8.395 5.555-13.442 5.47a392 392 0 0 0-3.715-.016c-63.758 0-124.984 13.964-181.973 41.511-8.64 4.172-14.574 11.992-16.285 21.453-1.718 9.496 1.121 18.942 7.785 25.914l6.45 6.743c1.242 1.3 1.882 3.011 1.8 4.808s-.878 3.446-2.246 4.633c-2.582 2.246-6.734 1.926-9.257-.71l-8.887-9.298a21.61 21.61 0 0 0-15.55-6.644h-.02c-5.938.004-11.465 2.382-15.57 6.691-7.927 8.324-7.786 21.488.32 29.965L158 234.988c2.508 2.625 2.457 7.004-.105 9.57-1.2 1.2-2.797 1.82-4.465 1.833a6.2 6.2 0 0 1-4.426-1.93l-39.219-41.024c-5.59-5.847-13.129-9.12-21.219-9.214q-.18-.005-.355-.004c-7.91 0-15.324 3.062-20.895 8.625l-.117.117-.078.074-.184.188c-3.605 3.609-8.43 5.597-13.578 5.597h-.004c-5.144 0-9.964-1.984-13.57-5.59l-19.258-19.257c-7.39-7.391-7.402-19.422-.004-26.836l.356-.356c44.46-44.465 96.238-79.375 153.887-103.758 59.68-25.242 123.078-38.039 188.437-38.039q1.939-.001 3.871.016h.004c10.422.094 18.902 8.613 18.902 18.992zm0 0"/><path d="M378.242 114.371a7.49 7.49 0 0 0-7.492 7.492V491.29c0 3.516-2.68 4.898-3.504 5.238-.82.34-3.691 1.258-6.176-1.226L97.586 231.816a7.495 7.495 0 0 0-10.598 10.598l263.485 263.484c4 4 9.156 6.102 14.472 6.102 2.68 0 5.403-.535 8.04-1.625 7.863-3.258 12.75-10.57 12.75-19.086V121.863a7.494 7.494 0 0 0-7.493-7.492m0 0"/><path d="M321.438 104.77c-18.024 0-32.684 14.66-32.684 32.68s14.66 32.679 32.684 32.679c18.019 0 32.68-14.66 32.68-32.68s-14.661-32.68-32.68-32.68m0 50.375c-9.758 0-17.696-7.938-17.696-17.696s7.938-17.691 17.695-17.691c9.754 0 17.692 7.933 17.692 17.691s-7.938 17.696-17.691 17.696M192.637 298.137c0 16.687 13.578 30.265 30.27 30.265 16.687 0 30.265-13.578 30.265-30.265 0-16.692-13.578-30.27-30.266-30.27-16.691 0-30.27 13.578-30.27 30.27m30.27-15.282c8.425 0 15.28 6.856 15.28 15.282s-6.855 15.281-15.28 15.281-15.286-6.855-15.286-15.281 6.86-15.282 15.285-15.282M332.219 263.371c-17.278 0-31.336 14.059-31.336 31.336s14.058 31.332 31.336 31.332 31.332-14.055 31.332-31.332-14.059-31.336-31.332-31.336m0 47.68c-9.016 0-16.348-7.332-16.348-16.344 0-9.016 7.332-16.348 16.348-16.348 9.011 0 16.344 7.332 16.344 16.348 0 9.012-7.333 16.344-16.344 16.344M357.566 385.313c0-18.41-14.98-33.387-33.386-33.387h-5.508c-18.41 0-33.39 14.976-33.39 33.387 0 7.988 6.5 14.484 14.484 14.484h1.964l-.312 5.863a13.44 13.44 0 0 0 3.644 9.902 13.42 13.42 0 0 0 9.696 4.168h13.332c3.648 0 7.18-1.52 9.691-4.167s3.84-6.258 3.649-9.903l-.313-5.863h1.965c7.984.004 14.484-6.496 14.484-14.484m-21.464-.5a10.28 10.28 0 0 0-7.426 3.19 10.28 10.28 0 0 0-2.793 7.583l.488 9.156h-9.894l.488-9.156a10.26 10.26 0 0 0-2.797-7.582 10.26 10.26 0 0 0-7.422-3.192h-6.469c.266-9.917 8.414-17.898 18.395-17.898h5.508c9.976 0 18.125 7.98 18.39 17.899zM253.422 160.21c-20.961 0-38.012 17.052-38.012 38.017v6.488c0 20.96 17.05 38.012 38.012 38.012 8.676 0 15.734-7.055 15.734-15.73v-3.727l8.32.44a14.43 14.43 0 0 0 10.676-3.929 14.47 14.47 0 0 0 4.493-10.453v-15.715c0-3.933-1.637-7.746-4.493-10.453a14.47 14.47 0 0 0-10.675-3.93l-8.32.442v-3.727c0-8.675-7.055-15.734-15.735-15.734m24.238 34.017v14.484l-12.2-.649c-2.933-.148-5.82.91-7.944 2.926s-3.348 4.852-3.348 7.782v8.222a.743.743 0 0 1-.742.746c-12.7 0-23.028-10.328-23.028-23.023v-6.492c0-12.696 10.329-23.028 23.028-23.028.41 0 .742.336.742.746v8.227c0 2.93 1.223 5.766 3.348 7.781s5.02 3.074 7.945 2.922zm0 0"/></svg>