<svg xmlns="http://www.w3.org/2000/svg" viewBox="0 -16 512 511"><path fill="#efefef" d="M424.738 104.605c-13.168-.953-25.746 1.094-37.164 5.477C373.152 51.48 320.258 8.012 257.207 8.012c-44.633 0-84.176 21.785-108.586 55.297a109 109 0 0 0-32.262-4.805C57.187 58.594 8.4 106.707 7.523 165.87c-.8 54.11 37.829 99.344 89.004 108.832 7.051 1.309 12.102 7.57 12.102 14.742v163.489c0 10.941 8.867 19.812 19.808 19.812H383.56c10.941 0 19.812-8.871 19.812-19.812v-161.36c0-8.304 6.73-15.039 15.035-15.039 48.778 0 88.078-40.566 86.004-89.8-1.828-43.4-36.347-78.997-79.672-82.13m0 0"/><path fill="#e2e2e2" d="M323.598 90.273a24.6 24.6 0 0 0 25.968 14.86 86.4 86.4 0 0 1 17.75-.528 85 85 0 0 1 19.836 3.84C372.156 50.675 319.672 8.012 257.207 8.012c-9.852 0-19.457 1.062-28.703 3.078 43.043 9.379 78.367 39.406 95.094 79.183M504.41 186.734c-1.828-43.398-36.348-78.996-79.672-82.129-12.367-.894-24.21.86-35.062 4.707 32.308 11.489 55.812 41.82 57.312 77.422 2.074 49.239-37.226 84.797-86.004 84.797-8.304 0-15.035 6.73-15.035 15.035v166.368c0 10.941-8.87 19.812-19.812 19.812h57.422c10.941 0 19.808-8.871 19.808-19.812v-161.36c0-8.304 6.735-15.039 15.04-15.039 48.777.004 88.077-40.562 86.003-89.8m0 0"/><path fill="#d8d8d8" d="M128.438 472.746h255.12c10.942 0 19.813-8.871 19.813-19.812v-35.957H108.63v35.957c0 10.941 8.867 19.812 19.808 19.812m0 0"/><path fill="#cccac6" d="M345.95 452.934c0 10.941-8.868 19.808-19.81 19.812h57.419c3.421 0 6.636-.867 9.445-2.39a19.93 19.93 0 0 0 7.976-7.981 19.74 19.74 0 0 0 2.391-9.441v-35.957H345.95zm0 0"/><path d="M143.527 311.484v69.438a7.512 7.512 0 0 0 15.024 0v-69.438a7.512 7.512 0 0 0-15.024 0M199.938 380.922v-69.438a7.51 7.51 0 0 0-7.508-7.511 7.51 7.51 0 0 0-7.512 7.511v69.438a7.51 7.51 0 0 0 7.512 7.512 7.51 7.51 0 0 0 7.507-7.512M242.816 380.922v-69.438a7.512 7.512 0 0 0-15.023 0v69.438a7.512 7.512 0 0 0 15.023 0M284.203 380.922v-69.438a7.51 7.51 0 0 0-7.508-7.511 7.51 7.51 0 0 0-7.511 7.511v69.438a7.51 7.51 0 0 0 7.511 7.512 7.51 7.51 0 0 0 7.508-7.512M319.57 388.434a7.51 7.51 0 0 0 7.512-7.512v-69.438a7.512 7.512 0 0 0-15.023 0v69.438a7.51 7.51 0 0 0 7.511 7.512M368.473 380.922v-69.438a7.512 7.512 0 0 0-15.024 0v69.438a7.512 7.512 0 0 0 15.024 0m0 0"/><path d="M511.914 186.422c-.96-22.84-10.332-44.531-26.387-61.082-16.058-16.555-37.453-26.578-60.25-28.227-11.113-.804-22.039.32-32.582 3.344-8.386-27.117-25.007-51.488-47.398-69.266C320.02 11.113 289.555.5 257.207.5c-25.504 0-50.512 6.852-72.324 19.816a7.51 7.51 0 0 0-2.617 10.293c2.117 3.567 6.726 4.739 10.297 2.621 19.488-11.585 41.843-17.707 64.644-17.707 58.504 0 109.113 39.622 123.074 96.356.516 2.094 1.906 3.863 3.817 4.863s4.156 1.13 6.168.356c10.843-4.164 22.254-5.844 33.93-5 19.109 1.379 37.062 9.797 50.546 23.703 13.485 13.902 21.356 32.101 22.16 51.25.914 21.66-6.82 42.176-21.777 57.773-14.965 15.61-35.105 24.203-56.723 24.203-12.43 0-22.547 10.114-22.547 22.547V409.47h-52.242a7.51 7.51 0 0 0-7.511 7.511 7.51 7.51 0 0 0 7.511 7.508h52.242v28.446c0 6.785-5.515 12.3-12.296 12.3H128.437c-6.78 0-12.3-5.515-12.3-12.3v-28.446h192.527a7.51 7.51 0 0 0 7.508-7.508 7.51 7.51 0 0 0-7.508-7.511H116.141V289.445c0-10.863-7.676-20.168-18.243-22.129-23.246-4.308-44.406-16.77-59.578-35.09-15.375-18.554-23.644-42.081-23.285-66.246.813-55.035 46.274-99.882 101.336-99.964h.16c10.18 0 20.235 1.504 29.883 4.468a7.505 7.505 0 0 0 8.277-2.754 128.4 128.4 0 0 1 11.79-13.96 7.51 7.51 0 0 0-.13-10.622 7.51 7.51 0 0 0-10.62.13 143 143 0 0 0-10 11.406 116.7 116.7 0 0 0-29.2-3.692h-.183C53.133 51.09.945 102.574.012 165.762c-.41 27.73 9.086 54.742 26.738 76.047 17.414 21.023 41.71 35.328 68.406 40.277 3.453.64 5.961 3.734 5.961 7.36v163.488c0 15.066 12.254 27.324 27.32 27.324H383.56c15.066 0 27.32-12.258 27.32-27.324v-161.36c0-4.148 3.379-7.523 7.527-7.523 25.746 0 49.742-10.239 67.567-28.828 17.812-18.582 27.027-43.016 25.941-68.801m0 0"/></svg>