<svg xmlns="http://www.w3.org/2000/svg" viewBox="0 0 512 512.001"><path fill="#f3e8d7" d="m162.027 387.61 45.524-45.52-18.723-18.727-.191-.187-18.723-18.727-45.523 45.524C94.004 380.359 37.1 418.3 20.457 434.945 2.133 453.27 5.109 478.61 18.66 492.16l1.184 1.184c13.55 13.55 38.89 16.523 57.215-1.797 16.644-16.649 54.586-73.55 84.968-103.938m0 0"/><path fill="#87a4f4" d="m208.543 381.18-77.723-77.723c-26.566-26.57-26.566-69.644 0-96.215l167.2-167.195c43.335-43.336 113.593-43.336 156.925 0l17.012 17.008c43.332 43.336 43.332 113.59 0 156.925l-167.2 167.2c-26.57 26.566-69.644 26.566-96.214 0m0 0"/><path fill="#6b97d6" d="m471.957 57.055-17.012-17.008a112 112 0 0 0-13.093-11.219c31.718 43.402 27.984 104.633-11.215 143.832l-167.2 167.2c-26.57 26.566-69.644 26.566-96.214 0l41.32 41.32c26.57 26.566 69.645 26.566 96.215 0l167.199-167.2c43.332-43.332 43.332-113.59 0-156.925m0 0"/><path fill="#a9c4ff" d="M187.598 261.137c-9.348-9.348-9.348-24.496 0-33.84L337.516 77.379c9.343-9.348 24.492-9.348 33.84 0 9.343 9.344 9.343 24.492 0 33.84L221.433 261.137c-9.344 9.343-24.493 9.343-33.836 0M250.867 324.406c-9.347-9.347-9.347-24.496 0-33.84l149.918-149.918c9.344-9.347 24.492-9.347 33.84 0 9.344 9.344 9.344 24.493 0 33.84L284.707 324.406c-9.348 9.344-24.496 9.344-33.84 0m0 0"/><path d="M477.332 51.684 460.32 34.672c-46.23-46.23-121.445-46.23-167.675 0l-167.2 167.2c-14.285 14.284-22.152 33.276-22.152 53.48s7.867 39.195 22.152 53.48l14.668 14.668-21.097 21.102c-17.098 17.097-42.664 36.554-65.215 53.722-16.785 12.774-31.278 23.805-38.719 31.246-9.91 9.91-15.266 22.653-15.078 35.88.176 12.124 5.016 23.82 13.281 32.085l1.184 1.184c8.265 8.265 19.957 13.105 32.082 13.277q.337.005.676.004c12.984 0 25.46-5.34 35.207-15.082 7.441-7.441 18.476-21.938 31.253-38.727 3.801-4.992 7.75-10.183 11.793-15.43 2.56-3.324 1.942-8.097-1.386-10.656-3.324-2.566-8.098-1.94-10.657 1.383a3313 3313 0 0 0-11.843 15.5c-12.446 16.348-23.192 30.465-29.91 37.184-8.946 8.95-18.457 10.734-24.914 10.625-8.204-.117-16.06-3.332-21.567-8.84l-1.168-1.172c-5.492-5.492-8.71-13.347-8.828-21.55-.094-6.426 1.676-15.965 10.625-24.915 6.715-6.718 20.832-17.46 37.176-29.902 22.937-17.457 48.933-37.246 66.758-55.07l21.101-21.098 26.887 26.89-21.098 21.098c-6.261 6.262-13.129 13.895-20.996 23.328a7.6 7.6 0 1 0 11.676 9.735c7.57-9.082 14.133-16.38 20.07-22.313l21.098-21.101 14.668 14.668c14.285 14.285 33.277 22.152 53.48 22.152s39.196-7.867 53.48-22.152l167.2-167.2c46.227-46.226 46.227-121.445 0-167.671m-10.75 156.921-167.2 167.2c-11.413 11.414-26.589 17.699-42.734 17.699-16.14 0-31.316-6.285-42.73-17.7l-77.723-77.722c-23.562-23.562-23.562-61.902 0-85.465l167.2-167.199c19.523-19.52 45.48-30.273 73.085-30.273 27.61 0 53.567 10.753 73.086 30.273l17.012 17.012c40.305 40.3 40.305 105.875.004 146.175m0 0"/><path d="M385.96 94.297c0-8.422-3.276-16.34-9.233-22.293-12.29-12.293-32.293-12.293-44.586 0l-11.918 11.914a7.601 7.601 0 1 0 10.75 10.75L342.89 82.75c6.367-6.363 16.726-6.363 23.09 0 3.081 3.086 4.78 7.184 4.78 11.547s-1.699 8.46-4.78 11.547L216.061 255.762c-6.367 6.367-16.726 6.367-23.09 0a16.22 16.22 0 0 1-4.785-11.547c0-4.36 1.7-8.461 4.786-11.547l112.996-112.996c2.969-2.969 2.969-7.781 0-10.75s-7.781-2.969-10.75 0l-112.996 113c-5.957 5.953-9.235 13.871-9.235 22.293s3.278 16.34 9.235 22.297c6.144 6.144 14.218 9.218 22.293 9.218s16.148-3.074 22.293-9.218l149.918-149.918c5.957-5.957 9.234-13.875 9.234-22.297M417.703 126.04c-8.422 0-16.34 3.276-22.293 9.233L245.492 285.191c-12.293 12.293-12.293 32.293 0 44.586 5.953 5.957 13.871 9.235 22.293 9.235s16.34-3.278 22.297-9.235L440 179.86c12.293-12.293 12.293-32.293-.004-44.586-5.953-5.957-13.871-9.234-22.293-9.234m11.547 43.073L279.332 319.031a16.24 16.24 0 0 1-11.547 4.781c-4.363 0-8.46-1.699-11.547-4.78l-5.375 5.374 5.375-5.375c-6.367-6.367-6.367-16.726 0-23.094L406.16 146.02a16.22 16.22 0 0 1 11.543-4.782c4.36 0 8.461 1.7 11.547 4.782 6.367 6.367 6.367 16.726 0 23.093m0 0"/></svg>