<svg xmlns="http://www.w3.org/2000/svg" viewBox="0 0 512 512"><path fill="#fccf3f" d="M256 7.504C118.762 7.504 7.504 118.762 7.504 256S118.762 504.496 256 504.496 504.496 393.238 504.496 256 393.238 7.504 256 7.504m0 307.914c-32.816 0-59.418-26.602-59.418-59.418s26.602-59.418 59.418-59.418 59.418 26.602 59.418 59.418-26.602 59.418-59.418 59.418m0 0"/><path fill="#efa335" d="M256 7.504c-9.887 0-19.633.598-29.215 1.719C350.254 23.688 446.063 128.645 446.063 256s-95.81 232.313-219.278 246.777A251 251 0 0 0 256 504.492c137.238 0 248.496-111.254 248.496-248.492C504.496 118.758 393.238 7.504 256 7.504m0 0"/><path fill="#fc4e51" d="M256.004 7.504c-137.57 0-249.406 112.61-248.492 250.18.265 39.918 9.945 77.597 26.93 110.941 5.804 3.09 12.89 6.625 22.874 5.316 42.25-5.535 21.82-43.39 59.594-45.558 38.621-2.219 39.746 45.558 72.86 45.558 33.109 0 33.109-24.015 66.222-24.015 10.45 0 17.602 2.39 23.535 5.664 16.856 9.297 27.051 27.293 27.051 46.543v23.484c0 10.266 8.32 18.582 18.582 18.582 10.266 0 18.586-8.316 18.586-18.582v-62.34c0-10.074 7.832-18.656 17.902-19.015 10.575-.375 19.262 8.082 19.262 18.57v25.715c0 10.262 8.32 18.582 18.582 18.582 10.266 0 18.586-8.32 18.586-18.582 0-9.082 7.188-16.543 16.262-16.875q.423-.013.848-.031c27.843-1.028 51.859-19.832 59.585-46.602 6.329-21.918 9.72-45.082 9.72-69.039.003-137.238-111.25-248.492-248.49-248.496M256 342.887c-47.996 0-86.906-38.91-86.906-86.907 0-48 38.91-86.91 86.906-86.91s86.906 38.91 86.906 86.91c0 47.997-38.91 86.907-86.906 86.907m0 0"/><path fill="#ea3942" d="M495.238 188.598c-.058-.207-.11-.418-.172-.625a246 246 0 0 0-3.41-11c-.074-.227-.14-.45-.219-.672a248 248 0 0 0-8.601-21.899c-.102-.222-.191-.445-.293-.668a249 249 0 0 0-13.063-24.964c-.324-.54-.632-1.086-.96-1.625-.317-.524-.649-1.036-.973-1.555-.727-1.18-1.453-2.36-2.2-3.528a248 248 0 0 0-5.69-8.46c-.34-.485-.669-.973-1.009-1.454a255 255 0 0 0-5.488-7.394 256 256 0 0 0-5.031-6.352c-.559-.68-1.129-1.351-1.692-2.023a246 246 0 0 0-5.617-6.469 223 223 0 0 0-2.761-3.012 253 253 0 0 0-6.344-6.609c-.543-.543-1.102-1.07-1.649-1.61-.87-.855-1.738-1.714-2.62-2.558a245 245 0 0 0-5.833-5.367 249 249 0 0 0-7.547-6.504c-.664-.55-1.343-1.078-2.011-1.621a251 251 0 0 0-7.375-5.758c-.746-.559-1.508-1.098-2.266-1.648-.851-.625-1.7-1.258-2.562-1.871-.09-.067-.184-.125-.274-.192a249 249 0 0 0-19.887-12.73c-.722-.418-1.457-.813-2.183-1.223-1.02-.57-2.031-1.152-3.059-1.71-.758-.411-1.523-.802-2.285-1.204-1.012-.535-2.016-1.082-3.035-1.602-.703-.363-1.414-.703-2.121-1.054a248 248 0 0 0-14.274-6.602c-1.222-.515-2.46-1.012-3.695-1.508-.64-.261-1.277-.535-1.922-.789-2.699-1.062-5.43-2.066-8.176-3.039a247 247 0 0 0-20.84-6.37c-.968-.25-1.949-.477-2.921-.716-1.02-.25-2.035-.508-3.063-.746a243 243 0 0 0-9.453-1.969c-.894-.171-1.781-.351-2.68-.511-.082-.016-.168-.028-.25-.043a247 247 0 0 0-5.89-.977c-.903-.137-1.813-.254-2.719-.379-1.156-.164-2.313-.34-3.477-.488-1.804-.227-3.617-.43-5.433-.621-.27-.027-.535-.063-.805-.09-1.004-.101-2.015-.18-3.023-.27-1.09-.097-2.176-.206-3.27-.289-.164-.011-.336-.02-.5-.03a238 238 0 0 0-5.832-.372c-.433-.02-.875-.027-1.312-.05-1.684-.075-3.368-.15-5.059-.192-.824-.02-1.656-.02-2.484-.031-1.309-.02-2.618-.051-3.93-.051h-.02c-2.343 0-4.683.039-7.011.105-.563.016-1.121.047-1.68.067-1.82.062-3.64.137-5.453.242-.547.031-1.094.07-1.637.105-1.844.118-3.683.25-5.512.407q-.75.066-1.5.136a248 248 0 0 0-6.355.664C350.277 23.715 446.062 128.664 446.062 256c0 56.633-18.957 108.824-50.851 150.61 1.375.327 2.805.519 4.285.519 10.262 0 18.582-8.32 18.582-18.586 0-9.078 7.188-16.54 16.262-16.871q.426-.016.847-.031c27.653-1.02 51.516-19.575 59.415-46.047.093-.32.195-.637.285-.957.18-.625.351-1.25.523-1.88q.48-1.724.938-3.46c.168-.637.336-1.27.5-1.91.414-1.64.82-3.285 1.203-4.938.11-.476.21-.957.32-1.43q.447-1.974.863-3.96c.125-.614.254-1.227.375-1.84.305-1.516.598-3.04.875-4.563.055-.308.118-.613.172-.922.305-1.71.582-3.425.852-5.148.09-.566.172-1.133.258-1.7.21-1.425.414-2.859.601-4.292.055-.43.117-.852.168-1.278.227-1.796.434-3.601.617-5.406q.075-.734.145-1.469c.14-1.453.273-2.914.387-4.375.039-.492.082-.98.12-1.472.133-1.848.255-3.696.352-5.551q.022-.516.043-1.031.115-2.366.184-4.742l.039-1.56c.043-1.894.074-3.788.074-5.694V256c0-23.36-3.23-45.969-9.258-67.402m0 0"/><g fill="#ffe7cf"><path d="M459.45 113.305c-12.005-1.035-16.509 11.738-18.13 19.484a9.6 9.6 0 0 0 3.024 9.152l6.293 5.582a9.59 9.59 0 0 0 13.023-.27l10.57-10.187a248 248 0 0 0-14.78-23.761M439.793 314.223c-12.863-3.043-17.492 9.863-19.082 17.476a8.8 8.8 0 0 0 2.773 8.395l3.153 2.793c.879-.176 1.777-.301 2.699-.336.285-.008.566-.02.852-.031a64.2 64.2 0 0 0 16.421-2.766l6.297-6.066c3.16-3.047 3.668-8.012 1.016-11.508-2.29-3.008-6.48-6.149-14.129-7.957M126.57 143.234a7.82 7.82 0 0 1-2.465-7.453c1.415-6.761 5.524-18.222 16.95-15.52 6.793 1.606 10.511 4.395 12.543 7.067 2.359 3.106 1.906 7.516-.903 10.219l-10.39 10.016a7.82 7.82 0 0 1-10.61.218zM228.39 9.05a60 60 0 0 0-1.156 4.622 11.87 11.87 0 0 0 3.743 11.324l7.785 6.906a11.875 11.875 0 0 0 16.117-.336l15.789-15.214a12 12 0 0 0 3.656-8.172c-6.05-.442-12.16-.676-18.32-.676-9.336 0-18.543.535-27.613 1.547M292.563 138.477a9.54 9.54 0 0 1-3.004-9.09c1.726-8.246 6.734-22.227 20.668-18.93 8.285 1.961 12.824 5.36 15.3 8.621 2.875 3.785 2.325 9.16-1.097 12.461l-12.676 12.215a9.54 9.54 0 0 1-12.941.266zM389.45 221.871c8.859 2.098 13.71 5.73 16.363 9.219 3.078 4.047 2.484 9.8-1.176 13.328l-13.559 13.062a10.19 10.19 0 0 1-13.836.29s-2.695-39.422 12.207-35.899M92.066 283.973c-7.086 5.59-12.91 7.156-17.277 7.093-5.125-.074-9.332-4.101-9.824-9.207l-.75-7.765c-.774-8.008 6.715-14.535 14.441-12.297 12.055 3.492 21.824 15.539 13.41 22.176M27.836 183.324c5.234.2 12.277-1.527 20.945-8.129 9.742-7.422-4.242-22.148-14.574-31.093a247.6 247.6 0 0 0-14.598 35.359c2.075 2.266 4.973 3.738 8.227 3.863M136.543 227.98c0-2.882.207-5.714.605-8.488-6.738-7.906-16.718-15.023-16.718-15.023a10.19 10.19 0 0 0-8.559 10.875l1.488 18.77c.407 5.066 4.473 9.175 9.555 9.366 3.777.141 8.684-.917 14.613-4.757a59.7 59.7 0 0 1-.984-10.743m0 0"/></g><path d="M437.02 74.98C392.219 30.18 333.734 4.047 270.996.445q-.514-.032-1.027-.062-1.583-.082-3.164-.145-1.447-.058-2.887-.105-1.191-.036-2.383-.067c-1.851-.039-3.7-.066-5.531-.066h-.016c-.047 0-.097.004-.144.004-37.621.02-73.864 8.016-107.719 23.77a7.5 7.5 0 0 0-3.637 9.968 7.5 7.5 0 0 0 9.969 3.64c20.824-9.69 42.617-16.241 65.102-19.636.421 4.887 2.675 9.527 6.437 12.863l7.785 6.907c3.653 3.238 8.25 4.847 12.852 4.847 4.867 0 9.73-1.804 13.453-5.39l15.789-15.215a19.5 19.5 0 0 0 4.023-5.586c55.344 5.414 106.668 29.586 146.508 69.422a245 245 0 0 1 20.531 23.324c-6.207 3.984-10.722 11.617-12.964 22.332a17.14 17.14 0 0 0 5.39 16.305l6.29 5.582c3.222 2.855 7.284 4.277 11.34 4.277 4.296 0 8.589-1.594 11.87-4.758l3.387-3.261C488.43 182.14 496.988 218.41 496.988 256c0 64.371-25.066 124.89-70.582 170.406S320.371 496.988 256 496.988s-124.89-25.066-170.406-70.582S15.012 320.371 15.012 256c0-22.531 3.11-44.582 9.047-65.645 1.14.258 2.304.422 3.496.47q.543.02 1.093.019c7.946 0 16.243-3.25 24.68-9.676 3.938-3 6.098-7.09 6.242-11.824.242-7.719-5.066-16.598-16.16-27.04 18.875-35.292 46.59-65.859 81.414-88.5a7.505 7.505 0 0 0-8.18-12.585C43.606 88.703 0 168.992 0 256c0 68.379 26.629 132.668 74.98 181.02C123.332 485.37 187.621 512 256 512s132.668-26.629 181.02-74.98C485.37 388.668 512 324.379 512 256s-26.629-132.668-74.98-181.02M249.672 26.164c-1.633 1.57-4.238 1.625-5.93.121l-7.785-6.906a4.38 4.38 0 0 1-1.469-3.399c3.43-.308 6.864-.539 10.285-.699.618-.027 1.243-.05 1.864-.074 1.175-.047 2.351-.094 3.523-.121 1.945-.047 3.89-.078 5.84-.078 1.73 0 3.457.027 5.18.062zm208.781 115.688a2.106 2.106 0 0 1-2.84.058l-6.289-5.582a2.1 2.1 0 0 1-.66-2c1.79-8.55 4.688-11.867 7.188-13.02a244 244 0 0 1 8.996 14.38zM36.531 156.59c8.266 8.613 8.043 12.3 8.059 12.3 0 0-.078.122-.36.337-5.625 4.285-10.953 6.558-15.464 6.605a243 243 0 0 1 7.765-19.242m0 0"/><path d="M245.82 189.848a66.5 66.5 0 0 0-9.699 2.242c-27.226 8.484-47.043 33.926-47.043 63.91 0 36.898 30.02 66.922 66.922 66.922s66.922-30.024 66.922-66.922c0-29.984-19.817-55.426-47.043-63.91a66.767 66.767 0 0 0-9.7-2.242 67.3 67.3 0 0 0-20.359 0M307.914 256c0 28.625-23.289 51.914-51.914 51.914S204.086 284.625 204.086 256s23.289-51.914 51.914-51.914 51.914 23.289 51.914 51.914M418.504 345.707l3.148 2.793a7.5 7.5 0 0 0 6.453 1.746 9.6 9.6 0 0 1 1.516-.195l.844-.031a72 72 0 0 0 18.332-3.09 7.5 7.5 0 0 0 3.02-1.774l6.292-6.066c5.954-5.735 6.72-14.957 1.786-21.45-3.922-5.156-10.102-8.765-18.375-10.718-5.817-1.379-11.317-.567-15.903 2.351-7.515 4.778-10.812 13.997-12.254 20.887a16.35 16.35 0 0 0 5.14 15.547m9.55-12.473c1.169-5.582 3.266-9.804 5.614-11.293.527-.336 1.254-.671 2.422-.671.55 0 1.2.074 1.976.257 4.73 1.118 8.145 2.914 9.88 5.196.32.422.206 1.12-.25 1.558l-4.958 4.778a57 57 0 0 1-12.883 1.964l-.746.028-.644-.574a1.31 1.31 0 0 1-.41-1.243M116.762 134.242a15.35 15.35 0 0 0 4.828 14.606l5.125 4.547c2.883 2.558 6.523 3.832 10.156 3.832 3.852 0 7.695-1.426 10.637-4.262l10.394-10.016c5.594-5.39 6.309-14.054 1.668-20.164-3.601-4.734-9.25-8.043-16.793-9.828-5.39-1.277-10.496-.516-14.765 2.2-6.918 4.398-9.938 12.808-11.25 19.085m19.304-6.422c.352-.222 1.18-.75 3.258-.257 5.067 1.199 7.309 3.003 8.285 4.28.008.02.008.177-.12.298l-10.391 10.015a.31.31 0 0 1-.422.012l-5.125-4.547a.31.31 0 0 1-.098-.305c.977-4.668 2.742-8.304 4.613-9.496M287.582 144.09l6.25 5.547c3.211 2.843 7.258 4.258 11.297 4.258 4.281 0 8.558-1.586 11.828-4.739l12.676-12.215c6.219-5.992 7.023-15.625 1.867-22.406-4.152-5.465-10.73-9.293-19.547-11.379-6.133-1.453-11.926-.597-16.746 2.465-7.953 5.059-11.457 14.879-12.996 22.227a17.09 17.09 0 0 0 5.371 16.242m9.32-13.168c1.301-6.207 3.676-10.93 6.36-12.633.867-.555 2.355-1.21 5.238-.527 5.266 1.246 9.086 3.27 11.05 5.855.544.711.395 1.817-.331 2.516l-12.676 12.215a2.036 2.036 0 0 1-2.75.058l-6.25-5.543a2.05 2.05 0 0 1-.64-1.941M391.176 214.566c-4.598-1.086-9.043-.054-12.535 2.907-10.243 8.687-9.391 33.43-8.887 40.804a7.5 7.5 0 0 0 2.508 5.106c3.332 2.957 7.535 4.426 11.734 4.426 4.45 0 8.89-1.649 12.29-4.922l13.558-13.067c6.46-6.226 7.297-16.23 1.945-23.27-4.367-5.75-11.305-9.78-20.613-11.984m8.254 24.446-13.559 13.066a2.66 2.66 0 0 1-1.344.695c-.261-11.875 1.676-21.21 3.504-23.523 5.594 1.367 9.668 3.57 11.809 6.383.734.965.555 2.453-.41 3.379M75.04 298.574c7.058 0 14.347-2.93 21.675-8.707 4.758-3.754 6.84-9.226 5.71-15.008-1.702-8.73-10.62-17.062-21.679-20.27-5.933-1.718-12.34-.37-17.14 3.61a19.2 19.2 0 0 0-6.864 16.614l.75 7.769c.871 8.988 8.262 15.863 17.196 15.988.117 0 .234.004.351.004m-2.606-17.433-.75-7.77c-.192-1.98.988-3.191 1.507-3.617.446-.371 1.27-.895 2.364-.895.316 0 .656.043 1.011.149 6.836 1.98 11.047 7.027 11.149 8.8a2.3 2.3 0 0 1-.297.274c-4.55 3.59-8.828 5.484-12.383 5.48h-.14c-1.25-.015-2.332-1.082-2.461-2.421m0 0"/><path d="M161.586 255.98c0 43.825 30.016 80.766 70.566 91.36-5.34 2.488-9.64 5.59-13.68 8.52-7.824 5.675-14.581 10.577-28.702 10.577-11.516 0-17.801-7.23-27.106-19.023-9.809-12.437-22.012-27.914-46.184-26.527-22.996 1.32-29.21 14.578-34.207 25.234-3.199 6.824-5.96 12.715-12.78 16.477a7.5 7.5 0 0 0-2.946 10.195 7.5 7.5 0 0 0 10.195 2.945c11.09-6.113 15.543-15.613 19.121-23.246 4.621-9.86 7.414-15.812 21.477-16.62 16.363-.95 24.324 9.151 33.543 20.839 9.144 11.594 19.508 24.734 38.887 24.734 18.992 0 28.832-7.14 37.515-13.437 7.828-5.676 14.586-10.578 28.707-10.578 10.043 0 15.918 2.53 19.914 4.73 14.29 7.883 23.168 23.2 23.168 39.973v23.484c0 14.387 11.703 26.09 26.086 26.09 14.387 0 26.09-11.703 26.09-26.09v-62.34c0-6.14 4.785-11.308 10.664-11.515a10.97 10.97 0 0 1 8.106 3.097 10.98 10.98 0 0 1 3.386 7.97v25.714c0 14.387 11.703 26.09 26.086 26.09 14.387 0 26.09-11.703 26.09-26.09a9.34 9.34 0 0 1 9.027-9.371 7.504 7.504 0 0 0 7.227-7.774c-.152-4.144-3.613-7.39-7.774-7.226a24.3 24.3 0 0 0-23.492 24.371c0 6.11-4.968 11.078-11.078 11.078s-11.078-4.969-11.078-11.078v-25.715c0-7.14-2.832-13.808-7.973-18.77-5.14-4.96-11.918-7.554-19.058-7.296-14.102.5-25.145 12.148-25.145 26.515v62.34c0 6.11-4.968 11.078-11.078 11.078-6.105 0-11.074-4.968-11.074-11.078v-23.484c0-22.242-11.852-42.594-30.934-53.113a52 52 0 0 0-3.316-1.676c40.555-10.59 70.574-47.535 70.574-91.364 0-52.058-42.351-94.414-94.41-94.414s-94.414 42.356-94.414 94.414m173.816 0c0 43.782-35.62 79.403-79.402 79.403s-79.402-35.621-79.402-79.403c0-43.785 35.62-79.402 79.402-79.402s79.402 35.617 79.402 79.402M142.86 214.621c-7.255-8.512-17.633-15.95-18.07-16.262a7.5 7.5 0 0 0-5.536-1.3c-9.063 1.437-15.59 9.73-14.863 18.879l1.488 18.769c.71 8.941 7.914 15.938 16.75 16.273q.479.017.957.016c5.836 0 11.89-2.008 18.02-5.976a7.5 7.5 0 0 0 3.304-7.649 52 52 0 0 1-.863-9.39c0-2.473.18-4.973.531-7.426a7.51 7.51 0 0 0-1.719-5.934m-19.665 21.36c-1.215-.047-2.246-1.126-2.351-2.461l-1.492-18.77c-.04-.516.07-1.012.293-1.445 2.66 2.117 6.375 5.257 9.66 8.699a66.823 66.823 0 0 0 .07 12.625c-2.234.96-4.32 1.418-6.18 1.351m0 0"/></svg>