<svg xmlns="http://www.w3.org/2000/svg" viewBox="-27 0 511 512"><path fill="#fc4e51" d="M39.531 146.824 10.023 176.48c-3.214 3.23-2.37 8.649 1.672 10.75l48.688 25.317 41.715-41.922-54.97-25.176a6.75 6.75 0 0 0-7.597 1.375m0 0"/><path fill="#ea3942" d="m419.5 146.824 29.512 29.656c3.215 3.23 2.37 8.649-1.672 10.75l-48.688 25.317-41.715-41.922 54.97-25.176a6.74 6.74 0 0 1 7.593 1.375m0 0"/><path fill="#d8d8d8" d="M356.934 170.621H102.098l-41.715 41.926h338.265zm0 0"/><path fill="#a0e557" d="M369.566 319.965c0-106.719.004-107.89.004-109.078 0-18.461-14.968-33.426-33.43-33.426q-.117.002-.234.004c.149-1.281.235-2.59.235-3.914 0-18.461-14.965-33.426-33.426-33.426-4.445 0-8.684.875-12.567 2.45a33.3 33.3 0 0 0-12.562-2.45c-4.008 0-7.852.707-11.41 2-2.348-16.168-16.258-28.586-33.074-28.586-15.422 0-28.399 10.45-32.254 24.652a33.4 33.4 0 0 0-11.34-1.976c-18.461 0-33.426 14.965-33.426 33.426 0 3.132.441 6.156 1.246 9.03-14.129 3.907-24.508 16.845-24.508 32.216v109.078zm0 0"/><path fill="#f3e8d7" d="m200.266 396.078-3.082-1.015a6.7 6.7 0 0 1-4.286-8.38L310.984 12.25a6.694 6.694 0 0 1 8.489-4.344l13.218 4.367a6.7 6.7 0 0 1 4.23 8.547L208.7 391.906a6.704 6.704 0 0 1-8.433 4.172m0 0"/><path fill="#f3e8d7" d="m180.043 368.695 2.652 1.864a6.7 6.7 0 0 0 9.282-1.559L422.004 50.832c2.187-3.027 1.48-7.262-1.578-9.406l-11.39-8.004a6.704 6.704 0 0 0-9.388 1.707L178.36 359.438a6.697 6.697 0 0 0 1.684 9.257m0 0"/><path fill="#fccf3f" d="M153.941 185.938s15.227-14.93 33.739-35.833c18.511-20.898 21.297-66.582 16.12-70.53s-14.73 20.671-34.234 46.546c-5.535 7.34-14.082 12.664-23.242 17.695-1.84 1.012-4.047-.418-3.926-2.511.2-3.39-.277-7.184-3.472-6.766-3.918.516-13.903 14.215-19.7 22.633-2.503 3.637-5.347 7.023-8.44 10.176-8.235 8.367-10.798 18.207-6.907 36.8 10.75 51.352 58.121 54.938 99.125 57.325 41.008 2.39 61.73-2.957 61.73-2.957 0-65.754-110.793-72.578-110.793-72.578m0 0"/><path fill="#912c2c" d="M354.926 271.215c-12.54 22.789-50.864 25.773-85.598 6.664-34.73-19.11-49.312-51.512-40.183-75.871 12.753-34.024 70.43-45.356 77.582-6.36 10.984 59.91 60.738 52.774 48.199 75.567m0 0"/><path fill="#fc4e51" d="m60.387 212.547 48.281 280.074a14.24 14.24 0 0 0 14.031 11.82h213.633c6.93 0 12.856-4.988 14.031-11.82l48.285-280.074zm0 0"/><path fill="#ea3942" d="M339.195 212.547 288.871 504.44h47.461a14.23 14.23 0 0 0 14.031-11.82l48.285-280.074zm0 0"/><path fill="#f3e8d7" d="M378.441 329.77H80.594l9.726 56.425h278.39zm0 0"/><path fill="#e5d6c1" d="M309.258 386.195h59.453l9.73-56.425h-59.457zm0 0"/><path fill="#efa335" d="M293.52 359.66c0 35.348-28.657 64.004-64.004 64.004s-64-28.656-64-64.004 28.652-64.004 64-64.004 64.004 28.656 64.004 64.004m0 0"/><path fill="#fd8f31" d="M260.152 303.453c4.97 9.102 7.797 19.54 7.797 30.637 0 35.348-28.656 64.004-64.004 64.004-11.097 0-21.535-2.828-30.632-7.801 10.859 19.883 31.957 33.371 56.203 33.371 35.347 0 64.004-28.656 64.004-64.004 0-24.25-13.489-45.347-33.368-56.207m0 0"/><path d="m454.367 171.148-29.508-29.656c-4.207-4.226-10.68-5.402-16.101-2.918l-53.473 24.492h-5.097l77.94-107.804a14.17 14.17 0 0 0 2.509-10.715 14.17 14.17 0 0 0-5.867-9.305l-11.391-8.004a14.14 14.14 0 0 0-10.742-2.36 14.15 14.15 0 0 0-9.23 5.993l-72.348 106.027a40.4 40.4 0 0 0-14.809-4.183l37.813-109.426a14.16 14.16 0 0 0-.696-10.98 14.17 14.17 0 0 0-8.308-7.215L321.844.727a14.17 14.17 0 0 0-10.973.847 14.16 14.16 0 0 0-7.098 8.403l-36.222 114.855c-7.375-11.387-20.227-18.852-34.453-18.852-7.77 0-15.145 2.22-21.446 6.098 1.918-10.668 2.34-20.406 1.743-26.543-.594-6.082-2.137-9.773-5.012-11.969-2.184-1.668-4.871-2.308-7.555-1.796-6.281 1.183-10.258 7.742-18.18 20.808-5.011 8.266-11.25 18.555-19.12 28.992-3.395 4.508-8.329 8.254-14.598 12.047-.625-1.586-1.524-2.918-2.703-4.012-2.215-2.062-5.16-2.964-8.29-2.558-3.128.414-7.859 1.035-24.937 25.84-2.176 3.156-4.734 6.238-7.605 9.16-.332.336-.63.68-.946 1.02h-.703l-53.473-24.493c-5.421-2.484-11.89-1.312-16.097 2.918L4.664 171.148a14.36 14.36 0 0 0-3.996 12.29 14.35 14.35 0 0 0 7.539 10.496l45.367 23.59 47.645 276.382A21.75 21.75 0 0 0 122.699 512h213.633c10.64 0 19.672-7.61 21.477-18.094l47.648-276.383 45.367-23.59c4.024-2.093 6.84-6.015 7.54-10.495s-.798-9.075-3.997-12.29m-93.043 33.84H319.88l14.547-20.117c.484.098.98.152 1.48.152.106 0 .211 0 .324-.003 12.196.039 22.422 8.566 25.094 19.968M405.402 40.11l9.97 7-102.536 141.82c-.078-.25-.172-.492-.254-.742l-.14-.398c-.844-2.43-1.883-4.723-3.141-6.84zm-92.996 109.47-13.793 20.21a36 36 0 0 0-4.328-2.43l6.778-19.617c.55-.035 1.101-.058 1.652-.058a25.6 25.6 0 0 1 9.691 1.894m5.524-134.224 11.566 3.82-49.918 144.454a51 51 0 0 0-8.254.098l-.195.011zm-55.465 165.602c7.14-2.426 14.43-2.988 20.52-1.586.07.016.132.024.202.035 3.961.934 8.016 2.844 11.141 6.492l.024.036c1.218 1.425 2.238 3.058 3.058 4.886l.043.09c.39.883.73 1.809 1.031 2.778q.04.14.086.289c.11.378.215.765.309 1.152.031.125.066.25.094.379q.175.727.316 1.484v.016a102.567 102.567 0 0 0 1.602 7.29c.058.23.109.464.168.69h-59.657a.3.3 0 0 1-.047-.031c-.542-.367-1.097-.727-1.652-1.086-.133-.086-.258-.172-.39-.258q-1.045-.668-2.106-1.312c4.856-10.465 14.703-17.762 25.02-21.285.082-.024.16-.032.238-.059m-62.531-35.07c.039-.063.078-.121.113-.184a7.55 7.55 0 0 0 8.094-5.535c3.046-11.23 13.312-19.07 24.96-19.07 12.762 0 23.766 9.504 25.594 22.113a7.58 7.58 0 0 0 1.828 3.918l-6.593 20.898c-12.446 5.07-23.868 14.305-30.106 27.243-19.152-8.692-39.86-13.004-53.64-15.079.043-.043.09-.093.128-.136.665-.688 1.348-1.407 2.06-2.149.12-.129.241-.254.366-.383q1.073-1.13 2.211-2.332.18-.193.367-.386c.778-.82 1.57-1.668 2.387-2.535q.169-.185.344-.368 1.249-1.333 2.55-2.738.16-.171.317-.344 1.333-1.435 2.715-2.941.134-.143.262-.285a540 540 0 0 0 2.898-3.176c.05-.055.106-.113.156-.172 1.02-1.125 2.051-2.266 3.098-3.434l.016-.015q1.618-1.809 3.277-3.676c.02-.023.035-.047.055-.066a53 53 0 0 0 1.632-1.95c.141-.175.278-.363.414-.542q.634-.808 1.239-1.645c.136-.191.27-.39.406-.586q.622-.88 1.215-1.793c.11-.172.223-.34.328-.512q.675-1.056 1.309-2.14m-86.188 29.554.082-.105a28 28 0 0 1 2.344-2.691c3.488-3.543 6.61-7.31 9.277-11.184 4.875-7.082 8.41-11.68 10.895-14.649a10.194 10.194 0 0 0 13.621 3.629c10.996-6.039 19.562-11.714 25.637-19.77 8.328-11.05 14.789-21.698 19.976-30.257a864 864 0 0 1 2.817-4.625c-.653 10.527-3.329 25.73-9.106 37.922-2.18 4.566-4.621 8.398-7.266 11.387-18.101 20.433-33.222 35.293-33.375 35.441a8 8 0 0 0-.66.746q-.07.093-.14.192-.272.37-.496.761c-.008.02-.024.04-.036.059-.16.293-.296.594-.418.902l-.058.164a8 8 0 0 0-.254.848c-.008.039-.02.074-.027.113-.07.32-.118.637-.145.961-.004.063-.004.125-.008.188-.02.28-.02.57-.008.855.004.047.004.098.008.149a7.6 7.6 0 0 0 .438 2.046c.008.016.008.032.015.051a7.252 7.252 0 0 0 .441.957c.02.043.048.082.071.125q.218.382.48.746c.036.043.063.09.098.133q.274.357.594.692c.02.02.039.03.059.05.03.036.066.063.101.094.207.203.426.387.652.563.055.043.11.082.165.125.546.39 1.128.707 1.742.937l.164.059q.428.15.867.25c.039.007.074.02.11.027q.485.099.976.133c.031 0 .058.012.09.012.37.023 27.613 1.855 54.144 11.511h-95.797a81 81 0 0 1-.539-2.39c-3.058-14.606-1.601-21.715 2.47-27.157m-17.398 29.547H78.566l15.977-16.058c-.023 4.78.59 10.093 1.805 16.058M44.89 152.152c0 .004-.004.004-.004.004zm-28.735 28.88 28.336-28.477 44.602 20.425-30.153 30.301zM372.074 322.21h-46.297a7.557 7.557 0 1 0 0 15.113h43.692l-7.121 41.313h-35.625a7.56 7.56 0 0 0-7.559 7.558 7.56 7.56 0 0 0 7.559 7.555h33.015l-16.82 97.59a6.67 6.67 0 0 1-6.586 5.547H122.703a6.67 6.67 0 0 1-6.586-5.547l-16.824-97.59h32.316a7.557 7.557 0 1 0 0-15.113H96.687l-7.12-41.313h43.687a7.557 7.557 0 1 0 0-15.113H86.96L69.359 220.105h320.317zm3.637-122 4.754 4.777h-3.77a40 40 0 0 0-.984-4.777m24.383 3.066L369.94 172.98l44.598-20.425 28.34 28.476zm0 0"/><path d="M229.516 288.098c-39.457 0-71.559 32.101-71.559 71.562 0 39.457 32.102 71.563 71.559 71.563 39.46 0 71.562-32.106 71.562-71.563s-32.101-71.562-71.562-71.562m0 128.007c-31.121 0-56.446-25.32-56.446-56.445s25.325-56.445 56.446-56.445c31.125 0 56.445 25.32 56.445 56.445s-25.32 56.445-56.445 56.445m0 0"/></svg>