<svg xmlns="http://www.w3.org/2000/svg" viewBox="-22 1 511 511.999"><path fill="#d38231" d="M417.852 101.848v-80.7c0-7.539-6.114-13.648-13.649-13.648H63.352c-7.536 0-13.649 6.11-13.649 13.648v80.7L8 241.668v235.723C8 492.363 20.137 504.5 35.11 504.5h397.335c14.973 0 27.11-12.137 27.11-27.11V241.669zM361.914 54.94c0 10.875-8.812 19.688-19.687 19.688H125.328c-10.875 0-19.687-8.813-19.687-19.688 0-10.87 8.812-19.683 19.687-19.683H342.23c10.872 0 19.684 8.812 19.684 19.683m0 0"/><path fill="#c1752f" d="M417.852 101.848v-80.7c0-7.539-6.114-13.648-13.649-13.648h-44.012v39.418a19.6 19.6 0 0 1 1.723 8.027c0 2.86-.625 5.57-1.723 8.024v38.879l41.707 139.824v262.832h30.547c14.973 0 27.11-12.14 27.11-27.113V241.668zm0 0"/><path fill="#e88c38" d="M459.555 241.668H8l41.703-139.82h368.149zm0 0"/><path fill="#d38231" d="m459.555 241.668-41.703-139.82h-57.66l41.706 139.82zm0 0"/><path fill="#fc4e51" d="M264.238 183.973H203.32c-6.55 0-11.68-5.63-11.07-12.153l6.531-69.972h69.992l6.532 69.972c.61 6.524-4.52 12.153-11.067 12.153m0 0"/><path d="M201.598 370.938h129.289a7.499 7.499 0 1 0 0-14.997h-129.29a7.499 7.499 0 1 0 0 14.996M136.668 370.938h30.031a7.499 7.499 0 1 0 0-14.997h-30.031a7.499 7.499 0 1 0 0 14.996M304.617 398.11h-141.68a7.499 7.499 0 1 0 0 14.995h141.68a7.499 7.499 0 1 0 0-14.996M369.414 54.941c0-14.988-12.195-27.183-27.184-27.183H125.324c-14.988 0-27.183 12.195-27.183 27.183 0 14.993 12.195 27.188 27.183 27.188h216.903c14.992 0 27.187-12.195 27.187-27.188M342.23 67.133H125.324c-6.719 0-12.187-5.469-12.187-12.188 0-6.722 5.468-12.187 12.187-12.187h216.903c6.722 0 12.187 5.465 12.187 12.187 0 6.72-5.465 12.188-12.184 12.188m0 0"/><path d="m466.984 240.691-.035-.226a7 7 0 0 0-.195-.883l-.012-.055-.015-.047c-.004-.02-.012-.042-.016-.062l-41.363-138.664V21.148C425.348 9.488 415.863 0 404.203 0H63.352c-11.66 0-21.145 9.488-21.145 21.148v79.606L.844 239.414c-.004.024-.012.043-.016.066l-.015.047-.012.051q-.124.435-.196.887l-.035.226a7 7 0 0 0-.07.977v235.723C.5 496.473 16.027 512 35.11 512h397.335c19.082 0 34.61-15.527 34.61-34.61V241.673c0-.336-.028-.66-.07-.98M55.293 109.348h135.258l-5.77 61.777a18.67 18.67 0 0 0 4.774 14.27 18.65 18.65 0 0 0 13.761 6.078h60.922A18.66 18.66 0 0 0 278 185.395a18.67 18.67 0 0 0 4.773-14.27l-5.77-61.777h47.208a7.5 7.5 0 1 0 0-15H57.203v-73.2c0-3.39 2.758-6.152 6.149-6.152h340.851c3.39 0 6.149 2.762 6.149 6.152v73.2h-51.243a7.496 7.496 0 0 0-7.496 7.5c0 4.14 3.356 7.5 7.496 7.5h53.153l37.234 124.824H18.06zm144.422 63.172 5.898-63.176h56.328l5.899 63.176a3.6 3.6 0 0 1-.926 2.773 3.6 3.6 0 0 1-2.676 1.184H203.32a3.6 3.6 0 0 1-2.675-1.184 3.6 3.6 0 0 1-.93-2.773m252.344 304.87c0 10.813-8.801 19.614-19.614 19.614H35.11c-10.812 0-19.613-8.8-19.613-19.613V249.168H452.06zm0 0"/></svg>