<svg xmlns="http://www.w3.org/2000/svg" viewBox="-113 0 512 512"><path fill="#a0e557" d="M277.98 243.34c0-121.926.004-123.266.004-124.621 0-21.09-17.097-38.188-38.191-38.188q-.135.002-.27.004c.172-1.465.27-2.957.27-4.472 0-21.09-17.098-38.192-38.191-38.192-5.079 0-9.922 1-14.356 2.8a38 38 0 0 0-14.355-2.8 38.1 38.1 0 0 0-13.036 2.285C157.175 21.688 141.281 7.5 122.07 7.5c-17.62 0-32.449 11.938-36.851 28.164a38.2 38.2 0 0 0-12.953-2.258c-21.094 0-38.192 17.098-38.192 38.192 0 3.578.504 7.035 1.422 10.316-16.14 4.465-28 19.246-28 36.805 0 1.36.004 2.683.004 124.62zm0 0"/><path fill="#93cc4a" d="M239.793 80.531q-.135.002-.27.004c.172-1.465.27-2.957.27-4.472 0-14.11-7.656-26.422-19.04-33.036V243.34h57.227c0-112.402 0-122.32.004-124.246v-.375c0-21.09-17.101-38.188-38.191-38.188m0 0"/><path fill="#fccf3f" d="M242.555 173.223c0 53.09-43.035 96.125-96.125 96.125S50.3 226.313 50.3 173.223s43.04-96.13 96.13-96.13 96.125 43.04 96.125 96.13m0 0"/><path fill="#fc4e51" d="M147.938 152.137c0-45.438-24.313-82.27-54.305-82.27s-54.305 36.832-54.305 82.27c0 45.433 24.313 82.265 54.305 82.265s54.305-36.832 54.305-82.265m0 0"/><path fill="#ea3942" d="M93.633 69.867c-1.125 0-2.246.07-3.356.172V234.23c1.11.102 2.23.172 3.356.172 29.992 0 54.305-36.832 54.305-82.265 0-45.438-24.313-82.27-54.305-82.27m0 0"/><path fill="#fc4e51" d="M255.035 200.719c0-45.438-24.312-82.27-54.305-82.27s-54.304 36.832-54.304 82.27c0 45.433 24.312 82.265 54.304 82.265s54.305-36.832 54.305-82.265m0 0"/><path fill="#ea3942" d="M200.73 118.45c-1.199 0-2.386.081-3.566.198V282.79c1.18.117 2.367.195 3.566.195 29.993 0 54.305-36.832 54.305-82.265 0-45.438-24.312-82.27-54.305-82.27m0 0"/><path fill="#efa335" d="M231.234 504.5c25.82 0 46.75-19.156 46.75-42.781V133.785C143.121 186.527 47.223 319.121 17.355 452.961 11.418 479.562 33.45 504.5 63.117 504.5zm0 0"/><path fill="#fd8f31" d="M277.984 133.785c-19.96 7.809-39.062 17.375-57.23 28.426v299.508c0 23.629-20.93 42.781-46.746 42.781h57.226c25.82 0 46.75-19.152 46.75-42.781zm0 0"/><path fill="#fccf3f" d="M231.234 504.5c25.82 0 46.75-19.156 46.75-42.781v-82.95c0-100.562-77.93-196.367-173.98-214.773-15.438-2.957-30.594-7.004-45.195-12.457-13.645-5.094-30.957-19.726-51.309-29.992v340.172c0 23.625 20.93 42.781 46.746 42.781zm0 0"/><path fill="#efa335" d="M220.754 461.719c0 23.625-20.93 42.781-46.746 42.781h57.226c25.82 0 46.75-19.156 46.75-42.781v-82.95c0-53.53-22.086-105.71-57.23-145.59zm0 0"/><path d="M285.48 118.719c0-22.66-16.582-41.524-38.253-45.082-1.266-24.07-21.247-43.266-45.625-43.266-4.914 0-9.73.777-14.356 2.313a45.4 45.4 0 0 0-14.355-2.313c-2.551 0-5.075.211-7.563.625C159.133 12.86 141.79 0 122.07 0c-18.039 0-34.203 10.656-41.539 26.656-2.715-.5-5.476-.75-8.265-.75-25.192 0-45.692 20.496-45.692 45.692 0 1.828.114 3.656.332 5.472C10.773 84.36 0 100.613 0 118.72q.001.744.145 1.453c-.086.45-.145.906-.145 1.379v43.933a7.499 7.499 0 1 0 14.996 0v-31.226c5.176 3.086 10.16 6.332 15.05 9.512 6.868 4.472 13.075 8.507 18.946 11.55.063.032.121.063.184.094.746.383 1.484.754 2.219 1.102l.117.058q1.065.504 2.113.953c.156.07.313.133.469.2q1.047.445 2.09.84c3 1.12 6.078 2.187 9.195 3.214 1.883.621 3.781 1.227 5.707 1.817.562.172 1.117.351 1.684.523.785.234 1.585.453 2.378.684 1.125.324 2.247.656 3.383.968.262.075.532.141.797.211a311 311 0 0 0 23.262 5.383q2.385.457 4.758.985.597.135 1.195.277 1.805.409 3.605.86c.438.109.868.222 1.301.335q1.794.463 3.582.965l1.164.328q1.945.564 3.883 1.168l.817.254c4.789 1.524 9.55 3.258 14.27 5.195q.497.207.995.418 1.746.729 3.492 1.496c33.313 14.7 62.805 39.051 85.133 68.954.043.054.082.113.125.168a237 237 0 0 1 4.04 5.609 169 169 0 0 1 2.921 4.281c.926 1.39 1.844 2.785 2.738 4.195.086.141.18.278.27.418 18.988 30.106 30.766 64.293 33.152 98.614v.015c.133 1.91.227 3.817.297 5.723a181.738 181.738 0 0 1 .152 7.145v20.804c0 4.145 3.36 7.5 7.5 7.5s7.497-3.355 7.497-7.5V133.73zm-145.925 47.789a198 198 0 0 0-25.52-8.012l-.465-.105q-1.898-.453-3.808-.871a166 166 0 0 0-3.024-.618c-.441-.086-.883-.183-1.324-.27-11.125-2.132-21.781-4.808-31.848-7.972-.593-.183-1.199-.363-1.789-.555-.02-.007-.043-.011-.062-.02a244 244 0 0 1-10.285-3.573c-.008-.004-.024-.008-.035-.016a38 38 0 0 1-1.395-.555c-.152-.062-.305-.132-.457-.199a40 40 0 0 1-1.05-.469l-.5-.234a59 59 0 0 1-1.118-.547 85.027 85.027 0 0 1-1.977-1.02l-.343-.19a79 79 0 0 1-1.235-.68q-.333-.186-.668-.38-.473-.27-.953-.546-.352-.209-.71-.418c-.333-.196-.66-.395-.993-.594l-.629-.375q-.791-.48-1.59-.973c4.403-34.484 23.63-59.949 45.856-59.949 7.578 0 14.953 2.992 21.594 8.61q.293.285.617.543c3.558 3.117 6.898 6.98 9.93 11.574 9.456 14.324 14.664 33.515 14.664 54.039 0 4.847-.293 9.652-.883 14.375m-1.262-76.676a83 83 0 0 0-3.203-4.512 90 90 0 0 1 11.336-.726c18.168 0 35.62 5.453 50.48 15.77a89 89 0 0 1 13.668 11.702 44.4 44.4 0 0 0-9.844-1.117c-14.136 0-27.906 6.98-38.77 19.649a80 80 0 0 0-7.065 9.652c-1.7-18.95-7.438-36.535-16.602-50.418m42.547 90.695a432 432 0 0 0-4.559 3.543c-.258.203-.515.395-.77.598a216 216 0 0 0-18.5-10.418c6.903-28.71 24.384-48.3 43.72-48.3 11.94 0 23.363 7.437 32.085 20.66-.238.128-.468.265-.707.394a368 368 0 0 0-6.156 3.445q-.648.37-1.297.746c-1.976 1.14-3.949 2.301-5.91 3.48q-.649.39-1.293.778c-2 1.215-3.992 2.445-5.976 3.7-.368.23-.735.456-1.098.687a427 427 0 0 0-6.34 4.113c-.215.145-.434.281-.644.426a403 403 0 0 0-20.641 14.676c-.64.484-1.274.98-1.914 1.472m89.644 119.914c-6.304-16.25-14.535-31.988-24.543-46.863a251.68 251.68 0 0 0-3.617-5.234c-.058-.082-.113-.168-.176-.25-1.101-1.551-2.23-3.09-3.375-4.621-.543-.727-1.097-1.442-1.648-2.16a263.966 263.966 0 0 0-3.785-4.832c-.172-.211-.332-.422-.504-.63-.285-.355-.578-.695-.863-1.046-.754-.918-1.508-1.836-2.274-2.742-.39-.461-.785-.91-1.176-1.368a254 254 0 0 0-3.828-4.36c-.742-.823-1.48-1.647-2.23-2.456a148 148 0 0 0-1.512-1.613 281 281 0 0 0-2.973-3.11c-.296-.3-.59-.605-.886-.906-8.973-9.113-18.535-17.379-28.57-24.727.167-.132.335-.257.503-.386a515 515 0 0 1 3.801-2.903 300 300 0 0 1 2.234-1.66q1.056-.786 2.118-1.566 1.296-.95 2.597-1.887.844-.604 1.688-1.203 1.449-1.038 2.91-2.059c.367-.257.742-.511 1.113-.77a384 384 0 0 1 15.36-10.116l.597-.375a309 309 0 0 1 3.739-2.293l.574-.352a373 373 0 0 1 16.398-9.34c.11-.058.215-.117.324-.175q1.94-1.038 3.887-2.047a357 357 0 0 1 24.117-11.43zm-.004-171.718a369 369 0 0 0-24.296 10.949 82 82 0 0 0-3.711-5.383c-7.586-18.703-20.352-34.68-37.012-46.246-17.383-12.07-37.797-18.45-59.035-18.45-8.145 0-16.235.954-24.102 2.829-8.703-6.574-18.472-10.055-28.691-10.055-15.66 0-30.543 8.371-41.906 23.567-8.575 11.46-14.696 26.257-17.723 42.523-5.871-3.793-12.223-7.777-18.938-11.406.72-13.059 9.723-24.395 22.43-27.906a7.5 7.5 0 0 0 4.531-3.543 7.48 7.48 0 0 0 .692-5.707 30.9 30.9 0 0 1-1.145-8.297c0-16.926 13.77-30.692 30.692-30.692 3.57 0 7.074.61 10.41 1.813a7.494 7.494 0 0 0 9.777-5.09c3.617-13.324 15.797-22.633 29.617-22.633 15.14 0 28.192 11.281 30.364 26.238a7.51 7.51 0 0 0 3.57 5.36 7.5 7.5 0 0 0 6.41.613 30.6 30.6 0 0 1 10.477-1.836c3.976 0 7.859.758 11.535 2.25a7.5 7.5 0 0 0 5.64 0 30.5 30.5 0 0 1 11.536-2.25c16.921 0 30.691 13.77 30.691 30.692 0 1.164-.07 2.34-.219 3.601a7.497 7.497 0 0 0 7.45 8.371c.113 0 .226-.004.351-.008 16.887.047 30.605 13.797 30.605 30.692zM277.984 426.977a7.5 7.5 0 0 0-7.5 7.5v27.242c0 19.453-17.605 35.281-39.25 35.281H54.246C32.606 497 15 481.172 15 461.719v-261.38a7.5 7.5 0 1 0-15 0v261.38C0 489.44 24.336 512 54.25 512h176.984c29.914 0 54.25-22.559 54.25-50.281v-27.242c-.004-4.141-3.359-7.5-7.5-7.5m0 0"/></svg>