<svg xmlns="http://www.w3.org/2000/svg" viewBox="1 -83 511.999 511"><path fill="#31363b" d="M177.945 274.453c0 35.602-28.863 64.465-64.465 64.465-35.601 0-64.464-28.863-64.464-64.465s28.863-64.465 64.464-64.465 64.465 28.864 64.465 64.465m0 0"/><path fill="#e2e2e2" d="M113.48 311.05c-20.18 0-36.597-16.417-36.597-36.597s16.418-36.598 36.597-36.598 36.598 16.418 36.598 36.598-16.418 36.598-36.598 36.598m0 0"/><path fill="#31363b" d="M504.715 274.453c0 35.602-28.863 64.465-64.465 64.465s-64.465-28.863-64.465-64.465 28.863-64.465 64.465-64.465 64.465 28.864 64.465 64.465m0 0"/><path fill="#e2e2e2" d="M440.25 311.05c-20.18 0-36.598-16.417-36.598-36.597s16.418-36.598 36.598-36.598 36.598 16.418 36.598 36.598-16.418 36.598-36.598 36.598m0 0"/><path fill="#efa335" d="M445.914 284.355c-7.273 3.801-16.25.985-20.05-6.289l-40.829-78.132 26.336-13.762 40.828 78.133c3.805 7.273.989 16.25-6.285 20.05m0 0"/><path fill="#87a4f4" d="M487.492 202.227c-12.457-24.036-39.476-38.368-68.777-34.954L357.039 58.977l-25.512 9.132s39.809 95.278 22.153 160.215c-2.118 10.996-11.743 18.946-22.942 18.946h-39.726q-1.003 0-2-.036c-37.84-1.277-62.946-39.922-49.899-75.464l18.418-50.196a.09.09 0 0 0-.086-.125H133.11c-69.492 0-125.824 56.332-125.824 125.82v20.372c0 5.168 4.192 9.359 9.363 9.359h332.196c16.531 0 31.347-4.625 37.254-20.066 2.343-6.133 6.054-11.684 10.957-16.055 27.718-24.719 66.21-28.39 84.386-28.629 5.106-.063 8.399-5.488 6.051-10.023m0 0"/><path fill="#7c9ce5" d="m198.238 121.574-18.422 50.196c-13.043 35.542 12.059 74.187 49.899 75.464q.997.036 2 .036h39.726c2.649 0 5.2-.461 7.594-1.282-32.11-7.031-51.781-41.906-39.922-74.218l18.418-50.196a.09.09 0 0 0-.086-.125h-59.297c.067 0 .11.063.09.125m0 0"/><path fill="#6b97d6" d="M137.887 184.074H90.852c-46.153 0-83.567 37.414-83.567 83.567 0 5.168 4.192 9.359 9.363 9.359h195.446v-18.719c0-40.984-33.227-74.207-74.207-74.207m0 0"/><path fill="#5884ba" d="M137.887 184.074H90.852c-1.559 0-3.11.051-4.649.133 38.969 2.242 69.879 34.543 69.879 74.07V277h56.008v-18.723c.004-40.98-33.223-74.203-74.203-74.203m0 0"/><path fill="#87a4f4" d="M394.09 74.762h-65.067a4.873 4.873 0 0 1-4.87-4.875V53.879a9.185 9.185 0 0 1 6.949-8.91l61.62-15.485c3.544-.89 6.973 1.79 6.973 5.438v34.23a5.604 5.604 0 0 1-5.605 5.61m0 0"/><path fill="#e2e2e2" d="m392.723 29.484-20.543 5.16v40.118h21.91a5.61 5.61 0 0 0 5.61-5.61v-34.23c0-3.649-3.434-6.328-6.977-5.438m0 0"/><path fill="#6b97d6" d="M370.008 273.402c7.187-3.015 12.922-8.183 16.09-16.468a41.74 41.74 0 0 1 11.367-16.418c27.687-24.391 65.883-28.028 83.969-28.266 5.109-.066 8.406-5.488 6.054-10.027-12.453-24.035-39.472-38.364-68.773-34.953 0 .003-53.754 45.44-48.707 106.132m0 0"/><path fill="#87a4f4" d="m271.902 8.105 31.961-.32c1.64-.015 3.2.707 4.239 1.973l15.378 18.656a.787.787 0 0 1-.601 1.285l-44.805.332c-5.66 0-10.25-4.586-10.25-10.246v-7.601a4.08 4.08 0 0 1 4.078-4.079m0 0"/><path fill="#fc4e51" d="M162.773 100.328H28.433v-5.703c0-37.098 30.075-67.172 67.169-67.172 37.097 0 67.171 30.074 67.171 67.172zm0 0"/><path fill="#ea3942" d="M95.602 27.453c-10 0-19.485 2.203-28.012 6.125 23.105 10.621 39.156 33.953 39.156 61.047v5.703h56.024v-5.703c.003-37.098-30.07-67.172-67.168-67.172m0 0"/><path fill="#0d6e9a" d="M168.172 98.617H23.035a7.434 7.434 0 0 0-7.433 7.434v7.96a7.434 7.434 0 0 0 7.433 7.438h145.137a7.434 7.434 0 0 0 7.433-7.437v-7.961a7.434 7.434 0 0 0-7.433-7.434m0 0"/><path fill="#09627a" d="M168.172 98.617h-48.594v22.832h48.594a7.437 7.437 0 0 0 7.433-7.437v-7.961a7.434 7.434 0 0 0-7.433-7.434m0 0"/><path fill="#efa335" d="M228.332 83.535h-47.805a4.92 4.92 0 0 0-4.922 4.922v34.023h90.055a.746.746 0 0 0 .735-.898c-1.188-5.836-9.075-38.047-38.063-38.047m0 0"/><path fill="#fd8f31" d="M228.332 83.535h-17.945v38.95h55.273a.75.75 0 0 0 .735-.903c-1.188-5.836-9.075-38.047-38.063-38.047m0 0"/><path d="M485.613 218.883a14.1 14.1 0 0 0 7.914-6.246c2.54-4.239 2.703-9.383.434-13.762a75 75 0 0 0-1.344-2.473c-.137-.242-.285-.476-.426-.718-.328-.563-.656-1.125-.996-1.676-.191-.309-.394-.61-.59-.914-.3-.473-.601-.946-.914-1.406-.226-.333-.46-.657-.691-.985-.297-.426-.59-.848-.895-1.266q-.377-.509-.765-1.011c-.297-.39-.59-.781-.895-1.164a52 52 0 0 0-.832-1.016c-.297-.363-.597-.73-.902-1.086q-.44-.51-.89-1.008c-.305-.343-.61-.687-.923-1.023q-.462-.497-.937-.988c-.313-.325-.621-.645-.938-.961q-.492-.493-.996-.973a70 70 0 0 0-.953-.906q-.517-.476-1.039-.946a79.395 79.395 0 0 0-2.059-1.77q-.493-.404-.992-.804-.561-.447-1.129-.883c-.332-.257-.671-.507-1.007-.757q-.58-.43-1.172-.848-.511-.361-1.028-.711c-.402-.273-.8-.547-1.207-.816a95 95 0 0 0-1.046-.66c-.415-.262-.829-.528-1.247-.778-.347-.21-.703-.414-1.054-.617-.43-.25-.86-.5-1.293-.742-.352-.192-.707-.375-1.063-.563a72 72 0 0 0-1.336-.707c-.347-.176-.707-.344-1.062-.515-.457-.223-.914-.454-1.383-.668-.34-.157-.687-.301-1.035-.457-.484-.215-.965-.434-1.457-.637-.168-.07-.344-.133-.512-.203a80 80 0 0 0-3.308-1.262c-.41-.144-.817-.297-1.23-.434-.43-.148-.868-.277-1.306-.414-.437-.14-.879-.285-1.324-.418-.426-.125-.86-.242-1.293-.359-.457-.129-.914-.258-1.375-.379-.426-.11-.86-.207-1.289-.312-.473-.11-.941-.227-1.418-.332-.426-.094-.855-.176-1.285-.262q-.725-.149-1.457-.285a68 68 0 0 0-1.285-.219c-.496-.082-.988-.16-1.488-.234-.426-.063-.86-.118-1.29-.172-.503-.063-1.007-.13-1.511-.184-.43-.047-.864-.086-1.293-.125a69.55 69.55 0 0 0-2.832-.21 69 69 0 0 0-1.567-.075q-.645-.022-1.289-.04c-.527-.007-1.054-.015-1.586-.015a72 72 0 0 0-2.894.047c-.434.016-.871.031-1.309.055-.195.008-.394.012-.59.023l-13.343-23.433c-1.993-3.5-6.442-4.72-9.938-2.727s-4.719 6.442-2.726 9.938l12.777 22.441c-12.906 12.445-48.555 51.55-47.078 102.48-4.613 1.153-9.418 1.403-13.582 1.403H219.379V258.28c0-44.937-36.559-81.492-81.492-81.492H90.852a91 91 0 0 0-27.196 4.14 7.287 7.287 0 0 0 4.36 13.907 76.4 76.4 0 0 1 22.84-3.473h47.03c36.9 0 66.919 30.02 66.919 66.918v11.438H16.648c-.289 0-.558-.059-.808-.164a2.08 2.08 0 0 1-1.266-1.914 76.27 76.27 0 0 1 26.41-57.723 7.286 7.286 0 0 0-9.53-11.023 90.7 90.7 0 0 0-10.907 11.218c15.625-47.215 60.176-81.375 112.562-81.375h114.036l-14.872 40.524c-7.03 19.16-4.41 40.726 7.016 57.691 11.34 16.84 29.371 26.887 49.477 27.567.746.023 1.496.039 2.246.039h39.726c14.57 0 27.16-10.317 30.04-24.575 13.562-50.324-5.755-117.48-16.278-147.937h17.297l17.84 31.332a7.29 7.29 0 0 0 9.937 2.726 7.29 7.29 0 0 0 2.727-9.937l-13.735-24.117h15.528c7.11 0 12.89-5.785 12.89-12.895v-34.23c0-4.004-1.808-7.707-4.964-10.168-3.153-2.461-7.188-3.309-11.07-2.34l-61.622 15.484 1.629-.41-2.383-2.894a8 8 0 0 0 1.613-2.27 8.12 8.12 0 0 0-1.082-8.547L313.727 5.125A12.68 12.68 0 0 0 303.793.5l-31.934.32c-6.246.028-11.32 5.114-11.32 11.364v7.601c0 9.672 7.867 17.535 17.59 17.535l33.32-.246 7.395 8.977a16.44 16.44 0 0 0-1.977 7.828v12.937l-31.008 5.836a7.395 7.395 0 0 0-5.898 8.637 7.394 7.394 0 0 0 8.633 5.898l34.77-6.546a12.1 12.1 0 0 0 5.66 1.406h.027c9.476 26.305 31.004 95.058 17.597 144.363q-.07.265-.125.535c-1.453 7.555-8.09 13.04-15.785 13.04h-39.722q-.885-.001-1.758-.032c-15.375-.52-29.184-8.223-37.88-21.14-8.952-13.297-10.933-29.528-5.425-44.528l16.336-44.512h3.375a8 8 0 0 0 6.223-2.953 8 8 0 0 0 1.652-6.691c-.805-3.93-3.348-14.11-9.648-23.746-8.614-13.168-20.91-20.13-35.555-20.13H180.53c-5.07 0-9.43 3.106-11.27 7.517-4.925-33.563-32.32-59.915-66.37-63.239V12.88a7.285 7.285 0 0 0-7.286-7.285 7.286 7.286 0 0 0-7.289 7.285v7.648c-36.605 3.57-65.52 33.774-67.086 70.926-7.265.899-12.914 7.098-12.914 14.602v7.957c0 8.12 6.606 14.722 14.723 14.722h23.356v17.63C18.004 170.788 0 206.963 0 247.27v20.37c0 9.18 7.469 16.65 16.648 16.65H42.41c4.781 35.237 34.75 61.913 71.07 61.913s66.286-26.676 71.067-61.914h164.297c7.562 0 14.226-.926 20.008-2.726 3.586 36.238 34.234 64.64 71.398 64.64 39.563 0 71.75-32.187 71.75-71.75 0-21.918-10.035-42.187-26.387-55.57M379.47 40.328l12.941-3.254v30.399H379.47zM278.074 22.746a2.967 2.967 0 0 1-2.965-2.96v-4.427l27.938-.277 6.129 7.434zm53.363 44.727V53.879c0-.875.59-1.633 1.438-1.844l32.02-8.047v23.485zm-148.546 46.539V90.824h45.441c16.48 0 24.602 13.563 28.316 23.336h-73.757zM60.969 135.453v-6.719h11.617a133 133 0 0 0-11.617 6.72m34.633-100.71c31.918 0 58.082 25.093 59.793 56.585H35.809c1.714-31.492 27.879-56.586 59.793-56.586M23.035 114.16a.15.15 0 0 1-.148-.148v-7.961c0-.082.066-.149.148-.149h145.137c.082 0 .148.067.148.149v7.96a.15.15 0 0 1-.148.15zm118.047 170.13c-4.07 11.378-14.992 19.476-27.602 19.476s-23.53-8.098-27.601-19.477zm-27.602 47.339c-28.253 0-51.687-20.258-56.328-47.34h13.575c4.507 19.555 22.117 34.047 42.753 34.047 20.633 0 38.247-14.492 42.75-34.047h13.579c-4.645 27.086-28.075 47.34-56.329 47.34m265.805-77.285c-.25.66-.531 1.285-.828 1.898l-.07.14c-.051.11-.11.22-.164.325a22 22 0 0 1-.825 1.469q-.081.13-.164.254c3.34-43.5 36.79-76.922 44.575-84.145q.04-.001.082-.008c.3-.023.601-.039.906-.058.488-.035.976-.07 1.465-.094.297-.012.593-.016.89-.027.489-.016.977-.032 1.465-.04q.451-.003.903.005c.476 0 .957 0 1.43.011.312.008.62.024.933.035.46.016.922.032 1.383.059.32.02.636.047.957.07.445.035.89.067 1.332.106q.497.048.988.11c.43.046.855.089 1.281.148.34.043.672.093 1.008.144.414.059.828.117 1.238.188q.516.088 1.032.183c.394.074.793.145 1.183.227.352.07.7.148 1.05.226q.572.123 1.142.258c.355.086.707.18 1.058.27.367.097.735.191 1.098.293q.54.153 1.078.312.527.158 1.047.32.545.172 1.086.36c.336.113.676.23 1.008.347q.55.198 1.093.403c.325.125.645.246.965.375q.55.221 1.094.449.466.199.934.402c.363.16.722.325 1.085.493.301.14.598.28.899.43.363.175.723.35 1.082.538q.431.219.863.45.539.284 1.07.582.423.235.833.476a47 47 0 0 1 1.863 1.125q.52.329 1.043.668.386.259.773.524c.34.234.684.468 1.02.71.254.18.504.368.754.551.332.246.668.496.996.75.246.188.484.383.726.578.325.258.649.516.965.782.242.199.477.406.711.609q.476.404.934.816c.234.211.46.426.691.641.3.281.606.559.899.848q.34.333.668.668.439.439.867.882c.218.23.433.47.648.7.277.304.559.605.828.91.215.242.418.492.63.734.265.313.53.621.788.938q.303.383.606.765c.25.32.504.641.75.965.199.266.39.535.582.801.238.328.48.656.71.988.192.274.372.555.56.832.226.34.452.672.671 1.016.176.273.34.555.512.832.219.36.441.71.652 1.074.133.227.254.457.383.688.238.414.477.828.7 1.254q-.98.017-2.012.046c-.254.004-.52.016-.782.024-.437.016-.87.027-1.32.047-.48.02-.977.043-1.469.066l-.726.035a166 166 0 0 0-2.286.137c-.652.043-1.32.09-1.992.145a144.543 144.543 0 0 0-2.457.203l-.37.035q-1.126.106-2.286.23c-.078.008-.152.012-.23.02q-1.183.13-2.395.277l-.195.024q-1.22.15-2.47.324l-.183.023c-.843.117-1.699.242-2.558.375l-.149.024q-1.313.205-2.644.433c-.04.008-.078.012-.117.02a176 176 0 0 0-2.82.512c-.868.164-1.739.343-2.614.523q-.124.029-.242.05-1.3.276-2.613.575c-.094.023-.192.043-.286.063q-1.301.3-2.609.628-.164.037-.32.075-1.284.322-2.575.675c-.128.036-.257.067-.39.102-.84.23-1.688.473-2.531.719l-.454.129c-.82.242-1.64.5-2.464.761l-.54.164c-.8.258-1.605.528-2.41.801l-.609.207c-.785.27-1.57.559-2.355.848-.223.082-.446.156-.668.242-.77.285-1.536.586-2.301.887-.242.097-.488.187-.73.285-.739.3-1.477.613-2.215.926-.274.113-.543.226-.817.343-.71.305-1.422.63-2.133.954-.297.136-.593.265-.886.402-.688.32-1.372.656-2.055.988-.32.156-.64.305-.957.465-.66.332-1.317.676-1.973 1.02-.34.18-.683.351-1.02.535-.632.34-1.265.695-1.894 1.047-.36.203-.719.398-1.078.605-.61.352-1.215.719-1.82 1.086-.375.223-.75.441-1.121.672-.586.363-1.168.742-1.75 1.121-.387.246-.774.492-1.16.746-.56.375-1.114.762-1.672 1.145-.399.277-.801.55-1.2.836-.484.343-.96.699-1.437 1.054l-.676.5c-.238.18-.476.352-.715.535-.27.207-.535.418-.804.63-.399.308-.793.628-1.184.945q-.4.313-.79.632c-.132.11-.265.215-.394.325a93 93 0 0 0-2.136 1.824q-.07.066-.145.133c-.098.09-.2.172-.3.261-5.645 5.036-10.114 11.57-12.91 18.891q.005.006 0 .012m79.375 6.586-7.055-13.5c10.54 4.445 17.958 14.883 17.958 27.023 0 16.164-13.149 29.313-29.313 29.313s-29.312-13.149-29.312-29.313c0-2.543.32-5.023.94-7.414l7.524 14.402a22.01 22.01 0 0 0 13.004 10.875 22.3 22.3 0 0 0 6.653 1.028c3.523 0 7.015-.852 10.23-2.531 10.82-5.657 15.027-19.063 9.371-29.883m-16.12 16.968a7.52 7.52 0 0 1-5.774.512 7.53 7.53 0 0 1-4.446-3.719l-13.968-26.73-.024-.047-5.238-10.02a93 93 0 0 1 3.265-1.988 101 101 0 0 1 2.875-1.605c.23-.125.465-.246.696-.367a95 95 0 0 1 2.664-1.36c.351-.172.703-.336 1.055-.504.64-.308 1.293-.61 1.945-.906q.433-.199.867-.39l5.356 10.246c.05.105.105.203.16.304l13.77 26.356c1.933 3.699.495 8.285-3.204 10.218m-2.29 53.73c-31.527 0-57.176-25.648-57.176-57.175q-.001-.298.004-.601a33.6 33.6 0 0 0 4.559-4.856q.742-.959 1.422-1.984a31 31 0 0 0 .73-1.14c.195-.321.39-.638.578-.966.192-.336.371-.676.551-1.015.078-.149.16-.297.238-.446.114-.23.235-.457.344-.687.102-.203.195-.41.29-.617q.033-.077.07-.153c.074-.16.156-.324.23-.488.277-.629.547-1.27.797-1.922q.008-.02.015-.043c.055-.137.118-.265.168-.402a35 35 0 0 1 2.586-5.219 34.3 34.3 0 0 1 5.684-7.047l2.015 3.863c-4.53 7.047-6.992 15.305-6.992 23.72 0 24.198 19.688 43.886 43.887 43.886s43.887-19.688 43.887-43.887c0-23.328-18.301-42.457-41.301-43.8l-2.586-4.95c7.379-2.226 14.473-3.648 20.715-4.547 21.879 8.504 36.46 29.707 36.46 53.297 0 31.531-25.648 57.18-57.175 57.18m0 0"/></svg>