<svg xmlns="http://www.w3.org/2000/svg" viewBox="-31 0 512 512"><path fill="#f4d5ba" d="M142.016 183.668v-26.61h-16.23c-7.72 0-13.974 6.258-13.974 13.977v10.809c0 7.715 6.258 13.972 13.973 13.972h16.23zM324.336 157.059h-16.23v38.757h16.23c7.719 0 13.976-6.257 13.976-13.972v-10.809c0-7.719-6.257-13.976-13.976-13.976m0 0"/><path fill="#ffe7cf" d="m257.86 365.008 50.07-47.031-19.88-3.696c-9.593-1.926-16.495-13.058-16.495-22.844v-43.613H178.57v43.613c0 9.786-6.902 20.918-16.5 22.844l-19.879 3.696 50.075 47.03c18.433 17.317 47.156 17.317 65.593 0m0 0"/><path fill="#f4d5ba" d="M220.207 309.879c0 9.785 3.734 18.113 10.824 20.601l48.469 14.2 28.43-26.703-19.88-3.696c-9.593-1.926-16.495-13.058-16.495-22.844v-43.613H220.21v62.055zm0 0"/><path fill="#fc4e51" d="M284.32 310.98c-35.14 26.266-83.379 26.266-118.52 0a9.49 9.49 0 0 0-8.214-1.539l-87.531 24.395a63.06 63.06 0 0 0-45.23 50.125L7.726 484.05C5.898 494.754 14.145 504.523 25 504.523h400.121c10.86 0 19.102-9.77 17.274-20.472l-17.098-100.09c-4.106-24.05-21.723-43.574-45.227-50.125l-87.53-24.395a9.48 9.48 0 0 0-8.22 1.54m0 0"/><path fill="#ea3942" d="m442.395 484.05-17.098-100.09c-4.106-24.054-21.723-43.573-45.227-50.124l-87.53-24.395a9.5 9.5 0 0 0-8.22 1.54c-15.89 11.878-34.46 18.367-53.289 19.5l103 30.171a45.54 45.54 0 0 1 32.66 36.196l18.391 107.675h40.043c10.855 0 19.098-9.77 17.27-20.472m0 0"/><path fill="#ffe7cf" d="M284.723 77.738c-13.996-12.05-33.672-22.57-59.66-22.86-25.993.29-45.668 10.81-59.665 22.86-17.851 15.375-27.523 38.203-27.523 61.762v57.18c0 23.558 29.61 86.05 87.187 86.05 57.575 0 87.184-62.492 87.184-86.05V139.5c0-23.559-9.672-46.387-27.523-61.762m0 0"/><path fill="#f4d5ba" d="M284.723 77.738c-8.051-6.93-17.989-13.351-29.922-17.617V196.68c0 19.257-19.79 64.523-58.461 80.414 8.637 3.547 18.21 5.636 28.722 5.636 57.575 0 87.184-62.492 87.184-86.05V139.5c0-23.559-9.672-46.387-27.523-61.762m0 0"/><path fill="#ffb125" d="M119.238 93.95v65.37s14.055-.316 23.086 8.621c1.883 1.864 5.078.504 5.078-2.144v-42.402H302.72v42.402c0 2.648 3.199 4.008 5.078 2.144 9.031-8.937 23.09-8.62 23.09-8.62V93.948c0-41.703-33.805-75.504-75.504-75.504h-60.64c-41.7 0-75.505 33.805-75.505 75.504m0 0"/><path fill="#fc4e51" d="M295.902 22.336 238.54 9.184a67.8 67.8 0 0 0-30.871.125l-53.813 12.808c-20.292 4.832-34.617 22.965-34.617 43.828v45.825h211.645V66.246c0-21-14.512-39.215-34.98-43.91m0 0"/><path fill="#ea3942" d="M295.902 22.336 238.54 9.184a67.8 67.8 0 0 0-30.871.125l-12.785 3.046 43.535 9.985c20.473 4.691 34.98 22.906 34.98 43.91v45.523h57.485V66.246c0-21-14.512-39.215-34.98-43.91m0 0"/><path fill="#ea3942" d="M305.695 137.316c-53.394-16.398-107.875-16.398-161.27 0-9.257 2.844-19.019-2.617-21.534-11.968q-1.83-6.787-3.653-13.575c69.774-26.152 141.867-26.152 211.645 0q-1.823 6.788-3.653 13.575c-2.511 9.351-12.277 14.812-21.535 11.968m0 0"/><g fill="#f3e8d7"><path d="m122.188 319.309-31.34 8.734v113.68h31.34zM359.266 328.04l-31.344-8.735v122.418h31.344zm0 0"/><path d="M369.602 504.523v-52.562l-5.329-11.156-32.406-26.168a14.33 14.33 0 0 0-9.008-3.188H127.266a14.33 14.33 0 0 0-9.012 3.188l-32.402 26.168c-1.868 3.91-3.461 7.246-5.332 11.156v52.562zm0 0"/></g><path fill="#464c50" d="M173.035 315.238c-12.156 5.266-1.816 26.852-1.816 26.852s-10.344 21.586 1.816 26.847c12.156 5.262 45.004-12.882 45.004-12.882V328.12c0 .004-32.848-18.144-45.004-12.883M277.086 315.238c12.16 5.266 1.816 26.852 1.816 26.852s10.344 21.586-1.816 26.847c-12.156 5.262-45-12.882-45-12.882V328.12c0 .004 32.844-18.144 45-12.883m0 0"/><path fill="#31363b" d="M231.96 362.172h-13.8a6.89 6.89 0 0 1-6.89-6.89v-26.384a6.89 6.89 0 0 1 6.89-6.89h13.8a6.89 6.89 0 0 1 6.892 6.89v26.383a6.89 6.89 0 0 1-6.891 6.89m0 0"/><path fill="#f4d5ba" d="m327.922 358.863 6.105 1.79a45.53 45.53 0 0 1 25.239 17.98v-50.598l-31.344-8.73zm0 0"/><path d="m449.766 482.793-17.098-100.09c-4.57-26.77-24.43-48.777-50.59-56.066l-87.531-24.395c-3.688-1.027-7.621-.742-11.11.711-2.644-3.105-4.406-7.488-4.406-11.516v-20.785c6.883-5.59 12.563-11.726 17.09-17.492 13.707-17.433 21.106-36.64 23.066-49.867h5.153c11.828 0 21.45-9.621 21.45-21.45v-10.808a21.4 21.4 0 0 0-7.43-16.219v-88.57c0-24.637-16.77-45.687-40.786-51.195L240.211 1.895a75.7 75.7 0 0 0-34.274.14l-53.812 12.813c-23.766 5.656-40.363 26.668-40.363 51.097v88.871a21.4 21.4 0 0 0-7.426 16.22v10.808c0 11.828 9.621 21.449 21.45 21.449h5.148c1.96 13.223 9.359 32.434 23.066 49.867 4.531 5.762 10.207 11.902 17.094 17.492v20.782c0 4.03-1.762 8.41-4.407 11.515-3.488-1.453-7.425-1.738-11.109-.71l-87.531 24.394c-26.16 7.293-46.02 29.3-50.594 56.066l-.945 5.543a7.476 7.476 0 0 0 6.11 8.63 7.4 7.4 0 0 0 1.269.108 7.48 7.48 0 0 0 7.36-6.218l.944-5.543c3.606-21.094 19.254-38.438 39.868-44.184l11.308-3.148v95.308l-2.215 1.793a7.5 7.5 0 0 0-2.047 2.59l-5.332 11.156a7.5 7.5 0 0 0-.73 3.227v45.086H25a10.04 10.04 0 0 1-7.68-3.57 10.03 10.03 0 0 1-2.222-8.168l10.308-60.344a7.48 7.48 0 0 0-6.11-8.63c-4.07-.69-7.933 2.044-8.628 6.11L.359 482.793a24.95 24.95 0 0 0 5.536 20.328A24.95 24.95 0 0 0 25 512h400.125a24.94 24.94 0 0 0 19.105-8.879 24.96 24.96 0 0 0 5.536-20.328M335.398 329.148l16.387 4.567v87.394l-15.219-12.293-.035-.023a22 22 0 0 0-1.133-.855zM310.195 157v-11.457c4.27.094 8.508-.934 12.368-3.066.289-.16.566-.329.843-.497v10.536c-3.8.66-8.55 1.957-13.21 4.484m20.64 14.035v10.809a6.503 6.503 0 0 1-6.495 6.496h-4.613v-19.332c3.828-1.559 7.609-2.02 9.582-2.156a6.48 6.48 0 0 1 1.527 4.183M130.399 188.34h-4.613a6.503 6.503 0 0 1-6.496-6.496v-10.809c0-1.558.555-3.027 1.523-4.18 1.989.137 5.766.602 9.586 2.153zm-3.683-35.824V141.98q.415.254.844.497c3.699 2.043 7.746 3.082 11.836 3.082.18 0 .355-.016.535-.024V157c-4.664-2.527-9.414-3.824-13.215-4.484m18.566-23.254-.754.222q-1.147.339-2.297.688a9.5 9.5 0 0 1-7.437-.781 9.65 9.65 0 0 1-4.684-5.985l-1.867-6.945a309 309 0 0 1 24.156-7.39 7.473 7.473 0 0 0 5.344-9.122 7.473 7.473 0 0 0-9.12-5.344 320 320 0 0 0-21.907 6.575V65.945c0-17.476 11.87-32.507 28.875-36.554l53.808-12.809a60.7 60.7 0 0 1 27.47-.113l57.362 13.156c17.18 3.938 29.176 19 29.176 36.621v34.93c-46.14-15.625-93.234-20.184-140.148-13.54-4.086.583-6.934 4.364-6.352 8.454a7.473 7.473 0 0 0 8.45 6.351c45.671-6.468 91.57-1.75 136.527 14.02l-1.867 6.945a9.67 9.67 0 0 1-4.688 5.985 9.5 9.5 0 0 1-7.433.78h-.004c-.766-.237-1.536-.46-2.305-.687l-.746-.218s-.004 0-.004-.004c-52.953-15.653-106.594-15.653-159.547 0zm20.473 114.656c-13.25-16.855-20.402-36.918-20.402-47.238v-20.45a10.4 10.4 0 0 0 3.082-.761 10.45 10.45 0 0 0 6.445-9.672v-23.723c46.613-12.789 93.75-12.789 140.363 0v23.723c0 4.242 2.531 8.039 6.445 9.672a10.5 10.5 0 0 0 3.086.761v20.45c0 10.32-7.152 30.383-20.406 47.238-4.387 5.578-10.023 11.574-16.969 16.816a8 8 0 0 0-.652.493c-10.75 7.945-24.566 14.027-41.684 14.027-17.12 0-30.94-6.086-41.69-14.031a9 9 0 0 0-.645-.489c-6.946-5.242-12.586-11.234-16.973-16.816m52.406 70.613c-2.531 0-4.91.664-6.976 1.82-11.782-5.464-21.547-8.566-29.243-9.304 2.606-4.762 4.106-10.2 4.106-15.61V280.59c10.887 5.758 23.848 9.617 39.016 9.617s28.125-3.86 39.015-9.617v10.848c0 5.41 1.496 10.847 4.102 15.605-7.692.742-17.461 3.844-29.239 9.309a14.3 14.3 0 0 0-6.98-1.82zm13.215 14.953v25.211h-12.629v-25.21zm-53.41 9.375c-1.735-3.617-4.395-11.925-2.996-15.664.176-.468.37-.726.73-.937.113-.055.227-.106.336-.168.504-.211 1.317-.348 2.469-.348 4.004 0 12.09 1.656 25.293 7.664v25.367c-17.07 7.766-25.582 8.258-27.79 7.305-.573-.25-.816-.504-1.034-1.086-1.34-3.562.996-11.465 2.992-15.672a7.49 7.49 0 0 0 0-6.46m68.363-9.453c17.012-7.742 25.524-8.258 27.762-7.312.101.054.207.101.308.152.372.215.575.469.75.942 1.34 3.558-.996 11.464-2.988 15.671a7.49 7.49 0 0 0 0 6.461c1.735 3.618 4.39 11.926 2.992 15.664-.218.59-.46.848-1.035 1.094-2.203.957-10.719.461-27.789-7.305zm-116.664-4.422 29.93-8.34a2.01 2.01 0 0 1 1.73.325c.016.011.035.023.047.035-.137.316-.285.629-.406.957-3.13 8.363-.012 18.719 2.117 24.129-2.129 5.414-5.246 15.765-2.117 24.133 1.644 4.398 4.793 7.715 9.101 9.578q3.528 1.528 8.414 1.527c8.137 0 19.086-3.183 32.7-9.5a14.3 14.3 0 0 0 6.98 1.82h13.8c2.532 0 4.911-.664 6.981-1.82 13.618 6.317 24.563 9.5 32.7 9.5 3.257 0 6.066-.508 8.418-1.527 4.308-1.863 7.457-5.18 9.101-9.578 3.125-8.368.008-18.72-2.117-24.133 2.125-5.41 5.242-15.766 2.117-24.13-.125-.327-.273-.64-.41-.956l.047-.035a2 2 0 0 1 1.734-.324l29.914 8.335v78.997h-190.78zM98.32 333.72l16.39-4.567v78.797q-.592.417-1.155.867L98.32 421.121zm263.805 163.328H87.996v-43.39l3.871-8.102 31.082-25.106a7.4 7.4 0 0 1 .906-.61c.258-.144.536-.269.82-.382a6.8 6.8 0 0 1 2.59-.527H322.86c.895 0 1.774.195 2.594.53.281.114.555.235.813.38.289.164.57.355.836.562.02.02.046.032.07.047 0 0 0 .004.004.004l31.082 25.106 3.87 8.097v43.39zm70.676-3.567a10.03 10.03 0 0 1-7.68 3.567h-48.043V451.96c0-1.113-.25-2.215-.73-3.223l-5.328-11.152a7.55 7.55 0 0 0-2.051-2.598l-2.23-1.8v-95.305l11.323 3.156c20.614 5.746 36.262 23.086 39.868 44.18l17.093 100.094a10.02 10.02 0 0 1-2.222 8.167m0 0"/></svg>