<svg xmlns="http://www.w3.org/2000/svg" viewBox="-31 0 512 512"><path fill="#ffb125" d="M119.238 80.867v114.95l-4.34 46.304c-2.484 26.508 18.372 49.41 45 49.41h130.329c26.628 0 47.484-22.902 45-49.41l-4.34-46.305V80.867zm0 0"/><path fill="#f4d5ba" d="M142.016 183.668v-26.61h-16.23c-7.72 0-13.974 6.258-13.974 13.977v10.809c0 7.715 6.258 13.972 13.973 13.972h16.23zM324.34 157.059h-16.23v38.757h16.23c7.715 0 13.972-6.257 13.972-13.972v-10.809c0-7.719-6.257-13.976-13.972-13.976m0 0"/><path fill="#ffe7cf" d="m257.86 365.008 50.074-47.031-19.88-3.696c-9.597-1.926-16.5-13.058-16.5-22.844v-43.613H178.57v43.613c0 9.786-6.902 20.918-16.5 22.844l-19.879 3.696 50.075 47.03c18.433 17.317 47.156 17.317 65.593 0m0 0"/><path fill="#f4d5ba" d="M222.191 309.879c0 9.785 3.735 18.113 10.825 20.601l48.468 14.2 28.43-26.703-19.879-3.696c-9.594-1.926-16.496-13.058-16.496-22.844v-43.613h-51.348zm0 0"/><path fill="#fc4e51" d="M284.32 310.98c-35.14 26.266-83.379 26.266-118.52 0a9.49 9.49 0 0 0-8.214-1.539l-87.531 24.395a63.06 63.06 0 0 0-45.23 50.125L7.726 484.05C5.898 494.754 14.145 504.523 25 504.523h400.121c10.86 0 19.102-9.77 17.274-20.472L425.3 383.96a63.06 63.06 0 0 0-45.23-50.125l-87.532-24.395a9.48 9.48 0 0 0-8.219 1.54m0 0"/><path fill="#ea3942" d="M442.395 484.05 425.3 383.96a63.06 63.06 0 0 0-45.23-50.124l-87.532-24.395a9.49 9.49 0 0 0-8.215 1.54c-15.894 11.878-34.465 18.367-53.293 19.5l103 30.171a45.53 45.53 0 0 1 32.66 36.196l18.391 107.675h40.043c10.855 0 19.098-9.77 17.27-20.472m0 0"/><path fill="#ffe7cf" d="M284.723 77.738c-13.996-12.05-33.672-22.57-59.66-22.86-25.993.29-45.665 10.81-59.665 22.86-17.851 15.375-27.523 38.203-27.523 61.762v57.18c0 23.558 29.61 86.05 87.187 86.05 57.575 0 87.188-62.492 87.188-86.05V139.5c0-23.559-9.672-46.387-27.527-61.762m0 0"/><path fill="#f4d5ba" d="M284.723 77.738c-8.059-6.937-18.008-13.367-29.957-17.629v136.57c0 19.255-19.786 64.509-58.446 80.407 8.64 3.55 18.223 5.644 28.742 5.644 57.575 0 87.188-62.492 87.188-86.05V139.5c0-23.559-9.672-46.387-27.527-61.762m0 0"/><path fill="#ffb125" d="M201.223 105.21c3.187 7.767 26.062 55.231 111.027 60.724 6.676.43 12.867.484 18.637.234v-60.957zm0 0"/><path fill="#fc4e51" d="M295.902 22.336 238.54 9.184a67.8 67.8 0 0 0-30.871.125l-53.813 12.808c-20.292 4.832-34.617 22.965-34.617 43.828v45.825h211.649V66.246c0-21-14.512-39.215-34.985-43.91m0 0"/><path fill="#ea3942" d="M295.902 22.336 238.54 9.184a67.8 67.8 0 0 0-30.871.125l-13.012 3.097 43.305 9.934c20.469 4.691 34.98 22.906 34.98 43.91v45.523h57.946V66.246c0-21-14.512-39.215-34.985-43.91m0 0"/><path fill="#ea3942" d="M305.695 137.316c-53.394-16.398-107.875-16.398-161.27 0-9.257 2.844-19.019-2.617-21.534-11.968q-1.823-6.787-3.653-13.575c69.778-26.152 141.867-26.152 211.649 0q-1.83 6.788-3.653 13.575c-2.515 9.351-12.28 14.812-21.539 11.968m0 0"/><path fill="#f3e8d7" d="m122.188 319.309-31.34 8.734v113.68h31.34zm0 0"/><path fill="#ea3942" d="M442.395 484.05 425.3 383.96a63.06 63.06 0 0 0-45.23-50.124l-87.532-24.395a9.49 9.49 0 0 0-8.215 1.54c-15.894 11.878-34.465 18.367-53.293 19.5l103 30.171a45.53 45.53 0 0 1 32.66 36.196l18.391 107.675h40.043c10.855 0 19.098-9.77 17.27-20.472m0 0"/><path fill="#464c50" d="M173.035 315.238c-12.156 5.266-1.812 26.852-1.812 26.852s-10.344 21.586 1.812 26.847c12.16 5.262 45.004-12.882 45.004-12.882V328.12c0 .004-32.844-18.144-45.004-12.883M277.09 315.238c12.156 5.266 1.812 26.852 1.812 26.852s10.344 21.586-1.812 26.847c-12.16 5.262-45.004-12.882-45.004-12.882V328.12c0 .004 32.844-18.144 45.004-12.883m0 0"/><path fill="#31363b" d="M231.96 362.172h-13.8a6.89 6.89 0 0 1-6.89-6.89v-26.384a6.89 6.89 0 0 1 6.89-6.89h13.8a6.89 6.89 0 0 1 6.892 6.89v26.383a6.89 6.89 0 0 1-6.891 6.89m0 0"/><path fill="#f3e8d7" d="m359.266 328.04-31.344-8.735v122.418h31.344zm0 0"/><path fill="#f4d5ba" d="m327.922 358.863 6.11 1.79a45.52 45.52 0 0 1 25.234 17.98v-50.598l-31.344-8.73zm0 0"/><path fill="#f3e8d7" d="M369.602 504.523v-52.562l-5.329-11.156-32.402-26.168a14.33 14.33 0 0 0-9.012-3.188H127.266a14.33 14.33 0 0 0-9.012 3.188l-32.402 26.168c-1.868 3.91-3.461 7.246-5.332 11.156v52.562zm0 0"/><path d="m449.766 482.793-17.098-100.09c-4.574-26.77-24.43-48.777-50.59-56.066l-87.531-24.395c-3.688-1.027-7.625-.746-11.11.711a18.7 18.7 0 0 1-2.554-3.941h9.344c14.789 0 28.984-6.274 38.945-17.211a52.77 52.77 0 0 0 13.496-40.38l-4.086-43.585c4.41-3.934 7.203-9.637 7.203-15.992v-10.809c0-6.32-2.765-12.195-7.426-16.219v-88.57c0-24.637-16.77-45.687-40.785-51.195L240.211 1.895a75.7 75.7 0 0 0-34.274.14L152.13 14.848c-23.766 5.656-40.363 26.668-40.363 51.097v88.895c-4.54 3.937-7.43 9.73-7.43 16.195v10.809c0 6.355 2.797 12.058 7.207 15.992l-4.086 43.586a52.77 52.77 0 0 0 13.496 40.379 52.78 52.78 0 0 0 38.945 17.21h9.34a18.6 18.6 0 0 1-2.55 3.942c-3.489-1.457-7.422-1.738-11.11-.71l-87.531 24.394c-26.16 7.289-46.02 29.297-50.59 56.066l-.96 5.61a7.48 7.48 0 0 0 7.378 8.738 7.485 7.485 0 0 0 7.363-6.223l.957-5.605c3.602-21.094 19.25-38.438 39.867-44.184l11.31-3.152v95.312l-2.22 1.79a7.5 7.5 0 0 0-2.047 2.593l-5.328 11.156a7.5 7.5 0 0 0-.73 3.223v45.086H25c-2.969 0-5.766-1.3-7.68-3.567a10.03 10.03 0 0 1-2.222-8.167L25.37 425.16a7.476 7.476 0 1 0-14.738-2.52L.359 482.794a24.94 24.94 0 0 0 5.536 20.328A24.93 24.93 0 0 0 25 512h400.125a24.94 24.94 0 0 0 19.105-8.879 24.96 24.96 0 0 0 5.536-20.328M335.398 329.148l16.391 4.567v87.394l-15.223-12.293a23 23 0 0 0-1.168-.878zm-17.28-57.414c-7.24 7.946-17.141 12.325-27.891 12.325H279.03v-13.407c6.887-5.59 12.563-11.726 17.094-17.492 13.707-17.433 21.102-36.64 23.063-49.867h4.89l3.703 39.527c1.004 10.7-2.43 20.97-9.664 28.914m-45.966 73.57c2.004 4.223 4.34 12.126 3 15.688-.218.582-.46.836-1.035 1.086-2.203.953-10.719.461-27.789-7.305v-25.367c17.008-7.738 25.516-8.254 27.762-7.316.113.062.23.117.347.176.348.207.543.46.715.922 1.34 3.558-.996 11.464-2.992 15.671a7.51 7.51 0 0 0-.008 6.446m-53.992-30.773c-2.531 0-4.91.664-6.976 1.82-11.782-5.464-21.547-8.566-29.239-9.304 2.528-4.625 4-9.887 4.086-15.145 0-.015.004-.035.004-.05.008-.137.012-.293.012-.414V280.59c10.89 5.758 23.848 9.617 39.015 9.617s28.125-3.86 39.016-9.617v10.848c0 .12.004.273.012.41 0 .015.004.035.004.054.082 5.258 1.554 10.52 4.086 15.141-7.692.742-17.457 3.844-29.239 9.309a14.25 14.25 0 0 0-6.976-1.82zm13.219 14.953v25.211h-12.633v-25.21zm-53.414 9.375c-1.735-3.617-4.39-11.925-2.992-15.664.172-.465.367-.722.718-.93.118-.058.235-.113.348-.175.5-.207 1.313-.348 2.465-.348 4.004 0 12.09 1.656 25.293 7.664v25.367c-17.07 7.766-25.582 8.262-27.79 7.305-.573-.246-.816-.5-1.034-1.086-1.34-3.558.996-11.465 2.992-15.672a7.49 7.49 0 0 0 0-6.46m89.433-78.125a8 8 0 0 0-.648.489c-10.75 7.945-24.566 14.03-41.688 14.03s-30.937-6.085-41.69-14.03a8 8 0 0 0-.645-.489c-6.946-5.238-12.582-11.234-16.973-16.816-13.25-16.852-20.402-36.914-20.402-47.238v-51.864q.637-.157 1.27-.351c21.276-6.535 42.976-10.434 64.558-11.594 15.629 16.387 44.023 35.29 93.593 39.969v23.84c0 10.32-7.152 30.383-20.406 47.238-4.387 5.582-10.027 11.574-16.969 16.816m-34.015-128.086c23.48.762 46.988 4.711 70.117 11.817.531.164 1.062.3 1.594.426l.414.093a25 25 0 0 0 1.613.305c.527.078 1.059.133 1.586.18l.441.031q.717.047 1.426.055c.055 0 .102.004.153.004h.043q.69-.001 1.37-.043c.153-.012.301-.028.45-.036.316-.027.637-.054.953-.093a25.275 25.275 0 0 0 1.438-.21c.156-.032.312-.056.468-.087q.598-.123 1.196-.27c.054-.015.113-.027.168-.043q.674-.175 1.335-.39.217-.073.426-.145.464-.159.922-.336c.156-.058.317-.125.473-.187q.451-.189.898-.395.21-.093.422-.191a29 29 0 0 0 1.246-.64l.028-.013.027-.015q.415-.232.82-.477v16.856a175 175 0 0 1-10.68-.367c-38.43-2.489-63.386-13.79-79.347-25.829m97.453 41.004v8.192a6.503 6.503 0 0 1-6.496 6.496h-4.613v-14.598c3.785.09 7.503.059 11.109-.09M126.715 65.945c0-17.476 11.875-32.507 28.875-36.554l53.812-12.809a60.7 60.7 0 0 1 27.465-.113l57.367 13.156c17.176 3.938 29.172 19 29.172 36.621v34.922C277.27 85.547 230.18 80.996 183.273 87.637a7.47 7.47 0 0 0-6.351 8.449 7.47 7.47 0 0 0 8.45 6.355c45.663-6.468 91.554-1.742 136.507 14.024l-1.867 6.941a9.65 9.65 0 0 1-4.684 5.985 9.5 9.5 0 0 1-7.437.78c0-.003-.004-.003-.004-.003-30.918-9.496-62.5-13.668-93.875-12.398-23.996.968-48.145 5.14-71.778 12.398 0 0-.004 0-.004.004q-.445.134-.898.226-1.344.271-2.758.145c-.07-.008-.137-.008-.207-.012a9.6 9.6 0 0 1-3.574-1.14 9.65 9.65 0 0 1-4.684-5.985l-1.867-6.933a310 310 0 0 1 23.555-7.243 7.475 7.475 0 0 0 5.324-9.132 7.48 7.48 0 0 0-9.133-5.328 324 324 0 0 0-21.273 6.402zm0 76.035q.415.254.844.497c.925.511 1.875.957 2.84 1.343v5.766h-3.684zm-7.426 39.864v-10.809c0-3.582 2.914-6.5 6.496-6.5h4.613v23.805h-4.613a6.503 6.503 0 0 1-6.496-6.496m40.606 102.215c-10.747 0-20.653-4.38-27.887-12.325s-10.668-18.214-9.664-28.918l3.703-39.523h4.89c1.961 13.227 9.356 32.434 23.063 49.867 4.531 5.762 10.21 11.903 17.094 17.492v13.407zm-30.23 40.925 29.929-8.34a2.01 2.01 0 0 1 1.73.325q.029.017.051.035c-.14.316-.29.629-.41.957-3.13 8.363-.012 18.719 2.117 24.129-2.129 5.414-5.246 15.765-2.117 24.133 1.644 4.398 4.793 7.715 9.101 9.578 2.352 1.02 5.16 1.527 8.414 1.527 8.137 0 19.086-3.183 32.704-9.5a14.25 14.25 0 0 0 6.976 1.82h13.8c2.536 0 4.911-.664 6.981-1.82 13.618 6.317 24.563 9.5 32.7 9.5 3.257 0 6.066-.508 8.418-1.527 4.308-1.863 7.457-5.18 9.101-9.578 3.125-8.368.008-18.72-2.117-24.133 2.125-5.41 5.242-15.766 2.117-24.13-.125-.327-.27-.64-.41-.956q.023-.018.05-.035a2.01 2.01 0 0 1 1.731-.324l29.914 8.34v78.992h-190.78zm-31.34 8.735 16.386-4.567v78.797c-.395.278-.777.567-1.156.867l-15.23 12.305zm263.804 163.328H87.996v-43.39l3.871-8.102 31.082-25.106a7.4 7.4 0 0 1 .906-.61c.258-.144.536-.269.82-.382a6.8 6.8 0 0 1 2.59-.527H322.86c.895 0 1.77.191 2.59.527.281.113.559.238.817.383q.441.25.836.566c.023.016.05.028.07.047l31.086 25.106 3.87 8.097zm70.672-3.567a10.02 10.02 0 0 1-7.676 3.567h-48.047V451.96c0-1.113-.25-2.215-.73-3.223l-5.328-11.156a7.5 7.5 0 0 0-2.051-2.594l-2.227-1.797v-95.308l11.32 3.156c20.618 5.742 36.262 23.086 39.868 44.18l17.097 100.094a10.04 10.04 0 0 1-2.226 8.167m0 0"/></svg>