<svg xmlns="http://www.w3.org/2000/svg" viewBox="0 -115 512 512"><path fill="#a0e557" d="M55.867 274.883h401.988c4.31-2.867 27.067-39.422 23.442-55.5-3.668-16.266 6.539-37.711.078-52.852-6.457-15.129-22.234-20.941-31.324-34.574-8.973-13.46-6.938-37.437-18.324-49.082-11.43-11.691-33.79-8.484-46.829-17.492-13.203-9.121-19.699-32.211-34.195-38.43s-34.113 5.672-49.55 2.508C285.905 26.336 271.82 7.492 256 7.492c-15.816 0-29.902 18.844-45.148 21.969-15.438 3.164-35.055-8.727-49.551-2.508s-20.992 29.309-34.196 38.43c-13.039 9.008-35.398 5.8-46.828 17.492-11.386 11.645-9.351 35.621-18.324 49.082-9.09 13.633-24.871 19.445-31.324 34.574-6.461 15.14 3.746 36.586.078 52.852-3.629 16.078 20.848 52.633 25.16 55.5m0 0"/><path fill="#fd8f31" d="M191.973 71.16C158.903 38.09 104.07 39.31 69.5 73.88s-35.79 89.402-2.719 122.473 87.903 31.851 122.473-2.72 35.785-89.402 2.719-122.472m0 0"/><path fill="#efa335" d="M125.523 189.23c-14.062 0-27.101-5.292-36.714-14.906-20.871-20.87-19.653-56.05 2.718-78.418 11.364-11.363 26.176-17.625 41.707-17.625 14.067 0 27.102 5.293 36.715 14.906 9.926 9.926 15.211 23.403 14.89 37.958-.335 15.07-6.589 29.44-17.609 40.46-11.363 11.368-26.175 17.625-41.707 17.625m0 0"/><path fill="#fd8f31" d="M442.496 73.879c-34.57-34.57-89.402-35.785-122.473-2.719-33.07 33.07-31.851 87.903 2.72 122.473s89.402 35.789 122.472 2.719c33.066-33.07 31.851-87.903-2.719-122.473m0 0"/><path fill="#efa335" d="M386.477 189.23c14.066 0 27.105-5.292 36.714-14.906 20.872-20.87 19.653-56.05-2.718-78.418-11.364-11.363-26.172-17.625-41.703-17.625-14.067 0-27.106 5.293-36.715 14.906-9.926 9.926-15.215 23.403-14.89 37.958.331 15.07 6.585 29.44 17.608 40.46 11.364 11.368 26.172 17.625 41.704 17.625m0 0"/><g fill="#fc4e51"><path d="M111.54 225.23c-3.317-22.664-29.216-37.636-57.845-33.44-28.629 4.19-49.148 25.96-45.832 48.62 3.32 22.664 29.219 37.637 57.848 33.442 28.629-4.192 49.148-25.961 45.828-48.622M458.36 191.766c-28.63-4.192-54.528 10.78-57.848 33.441-3.317 22.66 17.199 44.43 45.828 48.625 28.633 4.191 54.531-10.781 57.848-33.441 3.32-22.664-17.2-44.434-45.829-48.625M305.71 71.258c0-19.106-22.257-34.59-49.71-34.59s-49.71 15.484-49.71 34.59c0 19.101 22.257 34.59 49.71 34.59s49.71-15.489 49.71-34.59m0 0"/></g><path fill="#fccf3f" d="M256 59.82c-115.305 0-209.418 90.746-214.816 204.715-.266 5.64 4.277 10.344 9.921 10.344h409.793c5.645 0 10.188-4.703 9.918-10.344C465.418 150.566 371.31 59.82 256 59.82m0 0"/><path fill="#efa335" d="M256 59.82c-9.766 0-19.371.664-28.793 1.926 105.152 14.082 186.25 104.133 186.25 213.137h47.441c5.645 0 10.188-4.707 9.918-10.348C465.418 150.566 371.31 59.82 256 59.82m0 0"/><path d="M498.668 204.02c-2.762-2.93-5.86-5.575-9.219-7.934 1.559-10.977 3.156-22.324-1.183-32.496-2.961-6.942-7.422-12.09-12.102-16.492 2.793-27.856-6.918-57.07-28.367-78.516-17.84-17.844-41.277-28.098-66-28.883-23.274-.734-45.23 6.98-62.34 21.801a218 218 0 0 0-8.656-2.367C303.707 41.527 281.598 29.176 256 29.176c-25.594 0-47.707 12.351-54.8 29.957-2.903.734-5.79 1.515-8.657 2.367-17.106-14.82-39.063-22.54-62.336-21.8-24.723.784-48.164 11.038-66.004 28.882-21.45 21.45-31.16 50.66-28.367 78.516-4.676 4.402-9.14 9.554-12.102 16.492-4.34 10.172-2.738 21.52-1.183 32.496-3.36 2.36-6.457 5.004-9.219 7.934C3.074 214.902-1.508 228.207.438 241.48c2.902 19.833 20.554 35.63 44.062 39.575a17.5 17.5 0 0 0 6.605 1.316h409.79c2.28 0 4.523-.465 6.605-1.316 23.512-3.95 41.16-19.743 44.063-39.575 1.945-13.273-2.637-26.578-12.895-37.46M381.32 54.676c20.903.664 40.746 9.363 55.883 24.5 25.332 25.332 31.414 63.344 16.348 93.058a221 221 0 0 0-10.332-17.777c4.664-16.285 2.383-34.121-6.465-49.527a7.5 7.5 0 0 0-10.23-2.766 7.494 7.494 0 0 0-2.762 10.23c4.406 7.672 6.695 16.094 6.82 24.438-.406-.516-.824-1.027-1.238-1.539-.301-.375-.602-.758-.906-1.129-.555-.68-1.118-1.348-1.68-2.02a332 332 0 0 0-1.875-2.222c-.34-.395-.684-.785-1.028-1.18a213 213 0 0 0-3.156-3.547 233 233 0 0 0-3.285-3.535q-.042-.046-.09-.094a223 223 0 0 0-23.414-21.375c-.125-.097-.25-.203-.379-.3a222 222 0 0 0-3.23-2.489c-.36-.27-.715-.55-1.074-.816-.598-.45-1.204-.883-1.805-1.324q-6.646-4.875-13.59-9.223a48 48 0 0 1 4.934-.262c7.91 0 15.527 1.82 22.644 5.414a7.5 7.5 0 0 0 3.371.805 7.5 7.5 0 0 0 6.696-4.117 7.49 7.49 0 0 0-3.313-10.063c-9.23-4.66-19.121-7.023-29.398-7.023-8.18 0-16.278 1.644-23.649 4.762a221 221 0 0 0-18.644-8.239C349.469 58.594 365 54.16 381.32 54.676M256 44.16c13.34 0 25.566 4.16 33.39 10.668a252 252 0 0 0-3.835-.539q-.303-.042-.606-.078c-1.219-.16-2.437-.313-3.66-.45q-.422-.044-.851-.09a218 218 0 0 0-6.997-.655c-.238-.02-.48-.043-.722-.059-.809-.062-1.617-.11-2.426-.16a181 181 0 0 0-4.664-.25 202 202 0 0 0-3.07-.113c-.57-.016-1.145-.036-1.715-.047a222 222 0 0 0-4.844-.059c-1.613 0-3.227.024-4.844.059-.57.011-1.14.031-1.71.047-1.028.03-2.048.066-3.071.113q-1.067.042-2.129.098-1.27.07-2.535.152c-.813.05-1.621.098-2.43.16-.23.016-.465.04-.695.055-2.352.183-4.695.406-7.031.66-.278.031-.559.058-.84.09-1.223.14-2.445.293-3.668.449-.2.027-.395.05-.594.078-1.281.172-2.562.348-3.84.54C230.438 48.32 242.664 44.16 256 44.16M74.8 79.176c15.134-15.137 34.981-23.836 55.88-24.5q1.282-.041 2.558-.04c15.383 0 29.98 4.415 42.29 12.684a219 219 0 0 0-18.645 8.235c-7.371-3.118-15.465-4.762-23.649-4.762-10.32 0-20.246 2.383-29.511 7.082a7.492 7.492 0 0 0 3.395 14.172c1.14 0 2.296-.262 3.382-.813 7.145-3.62 14.79-5.457 22.734-5.457 1.668 0 3.313.094 4.934.262a223 223 0 0 0-13.563 9.2c-.613.448-1.23.894-1.835 1.347-.356.266-.704.539-1.055.805q-1.637 1.235-3.25 2.5c-.125.097-.246.199-.371.296a223 223 0 0 0-23.418 21.38q-.045.046-.09.093a216 216 0 0 0-3.285 3.54l-.504.55c-.895.988-1.777 1.988-2.652 2.992-.34.395-.688.785-1.028 1.18a257 257 0 0 0-1.875 2.226c-.562.668-1.125 1.336-1.676 2.012-.308.375-.609.758-.914 1.137-.414.512-.828 1.02-1.234 1.531.125-8.324 2.406-16.723 6.793-24.383A7.491 7.491 0 1 0 75.207 105c-8.812 15.387-11.078 33.2-6.426 49.457a221 221 0 0 0-10.332 17.777c-15.066-29.714-8.98-67.726 16.352-93.058M37.96 230.117c-.089.442-.183.883-.272 1.328q-.246 1.273-.485 2.551-.208 1.126-.406 2.258c-.125.719-.254 1.437-.371 2.16-.235 1.43-.461 2.86-.668 4.293-.059.402-.11.809-.164 1.211a218 218 0 0 0-1.035 8.687c-.043.422-.086.84-.125 1.262a208 208 0 0 0-.395 4.707l-.066 1.055c-.059.836-.118 1.672-.164 2.508-10.164-4.946-17.141-13.215-18.547-22.828-1.266-8.645 1.922-17.528 8.976-25.012 2.813-2.98 6.09-5.598 9.735-7.8.226-.114.441-.235.652-.372a54 54 0 0 1 11.3-4.95 221 221 0 0 0-7.964 28.942m-1.312-41.547c-.921-7.297-1.304-14.007.868-19.097a26.4 26.4 0 0 1 2.097-3.93 88.8 88.8 0 0 0 8.871 19.555 72 72 0 0 0-11.836 3.472m426.653 76.817a2.9 2.9 0 0 1-.11.402 2.52 2.52 0 0 1-1.25 1.36 2.36 2.36 0 0 1-1.043.242H51.105c-.417 0-.761-.106-1.042-.243l-.047-.023a2.5 2.5 0 0 1-1.274-1.55q-.022-.095-.039-.188a2.2 2.2 0 0 1-.035-.492v-.004a196 196 0 0 1 .285-4.79c.035-.53.086-1.058.125-1.585.082-1.063.168-2.121.266-3.18.058-.652.133-1.305.199-1.953q.14-1.388.297-2.77c.086-.726.18-1.453.273-2.18.106-.831.211-1.663.325-2.492.113-.8.234-1.601.355-2.402q.165-1.088.34-2.184.217-1.341.453-2.683.159-.896.324-1.785a191 191 0 0 1 .848-4.324c.242-1.18.492-2.364.762-3.54q.06-.273.125-.546a206 206 0 0 1 11.054-34.25c.074-.172.125-.352.184-.532.363-.851.738-1.699 1.113-2.547.063-.12.133-.234.188-.355a207.8 207.8 0 0 1 25.039-42.16q.228-.304.457-.602a249 249 0 0 1 2.511-3.172c.336-.418.668-.84 1.008-1.254.602-.734 1.211-1.457 1.824-2.183.575-.684 1.145-1.375 1.735-2.055.144-.168.293-.332.437-.5a211 211 0 0 1 20.707-20.715c.04-.03.075-.066.114-.097 1.129-.985 2.273-1.95 3.422-2.907.226-.183.453-.375.68-.558q1.5-1.235 3.019-2.442.639-.504 1.277-1.003a178 178 0 0 1 4.582-3.473q.967-.717 1.938-1.422 1.577-1.13 3.171-2.23l.91-.633a207 207 0 0 1 53.942-26.313c.086-.027.164-.066.246-.097a205 205 0 0 1 15.442-4.227c.02-.008.043-.008.062-.012 30.898-7.203 63.695-7.203 94.594 0 .023.004.047.004.07.012a205 205 0 0 1 15.434 4.227c.082.027.16.07.246.093a207.2 207.2 0 0 1 53.941 26.317c.305.207.606.422.91.633q1.595 1.1 3.172 2.23c.649.469 1.293.945 1.938 1.418a177.898 177.898 0 0 1 4.582 3.477q.639.496 1.277 1.003c1.012.801 2.02 1.618 3.02 2.442q.34.275.68.558a217 217 0 0 1 3.534 3.004 212 212 0 0 1 7.348 6.7 211 211 0 0 1 13.36 14.015c.144.168.292.332.437.5.59.68 1.156 1.367 1.734 2.055.614.726 1.223 1.45 1.825 2.183.34.415.671.836 1.007 1.254q1.268 1.575 2.512 3.172l.457.598a207.7 207.7 0 0 1 25.04 42.16c.054.125.124.238.187.36.375.847.75 1.695 1.113 2.546.059.176.11.356.184.532a206 206 0 0 1 11.054 34.253q.065.27.125.54.399 1.77.762 3.546.134.633.262 1.266a201 201 0 0 1 .906 4.836q.24 1.346.457 2.691.175 1.089.34 2.176c.12.805.242 1.606.351 2.41.118.825.223 1.657.329 2.485.093.726.187 1.453.273 2.183.105.918.2 1.844.297 2.766.066.652.137 1.305.2 1.957.097 1.059.179 2.117.26 3.176.044.531.09 1.058.13 1.59q.166 2.39.285 4.789c.004.18-.016.34-.04.496m.226-80.305a89 89 0 0 0 8.864-19.539 26.4 26.4 0 0 1 2.093 3.93c2.172 5.09 1.793 11.797.871 19.09-.09-.036-.187-.063-.277-.098a67 67 0 0 0-3.078-1.102q-.391-.136-.79-.265a77 77 0 0 0-3.46-1.02c-.246-.066-.496-.121-.742-.183a71 71 0 0 0-2.903-.676c-.195-.043-.382-.098-.578-.137m33.211 54.227c-1.406 9.613-8.383 17.882-18.543 22.828-.047-.836-.11-1.672-.164-2.504l-.07-1.063c-.113-1.57-.246-3.136-.39-4.703-.04-.422-.087-.844-.13-1.265a268 268 0 0 0-.375-3.516 224 224 0 0 0-.656-5.156c-.055-.41-.105-.817-.168-1.223q-.31-2.15-.668-4.289c-.117-.727-.246-1.445-.37-2.168-.134-.75-.266-1.5-.407-2.25a196 196 0 0 0-.484-2.559l-.27-1.308a221 221 0 0 0-7.965-28.934q.435.136.863.278c.489.156.973.324 1.457.492.551.199 1.102.402 1.645.617.281.11.555.226.832.34 2.313.96 4.55 2.062 6.695 3.328.09.055.192.094.285.144 3.711 2.223 7.055 4.872 9.91 7.903 7.051 7.48 10.239 16.363 8.973 25.008m0 0"/><path d="M170.758 32.617c4.715-.086 10.094 1.067 15.789 2.274 6.086 1.289 12.316 2.609 18.508 2.609 2.445 0 4.882-.203 7.3-.7 8.395-1.722 15.817-6.878 22.993-11.862 7.367-5.122 14.328-9.954 20.652-9.954 6.328 0 13.285 4.836 20.656 9.954 7.176 4.984 14.598 10.14 22.992 11.863 8.543 1.75 17.32-.11 25.809-1.91 6.242-1.325 12.14-2.57 17.148-2.211 4.118.297 7.715-2.813 8.008-6.942a7.49 7.49 0 0 0-6.937-8.008c-7.117-.507-14.34 1.024-21.324 2.504-7.309 1.547-14.215 3.008-19.696 1.887-5.383-1.101-11.246-5.176-17.453-9.488C276.266 6.422 267.02 0 256 0c-11.016 0-20.262 6.422-29.2 12.633-6.206 4.312-12.07 8.387-17.452 9.488-5.48 1.125-12.387-.34-19.696-1.887-6.254-1.328-12.734-2.691-19.125-2.597-4.136.066-7.441 3.472-7.375 7.61.063 4.136 3.489 7.444 7.606 7.37m0 0"/></svg>