<svg xmlns="http://www.w3.org/2000/svg" viewBox="-36 0 512 512"><path fill="#e88c38" d="M421.004 465.457S432.379 339.223 432.379 256 421.004 46.543 421.004 46.543l4.457-28.3c.394-2.509-1.606-4.731-4.14-4.622q-.71.03-1.477.031c-12.34 0-12.34-6.152-24.684-6.152-12.34 0-12.34 6.152-24.683 6.152-12.34 0-12.34-6.152-24.68-6.152s-12.34 6.152-24.68 6.152-12.34-6.152-24.68-6.152c-12.335 0-12.335 6.152-24.675 6.152-12.336 0-12.336-6.152-24.676-6.152-12.336 0-12.336 6.152-24.672 6.152-12.34 0-12.34-6.152-24.68-6.152s-12.34 6.152-24.675 6.152c-12.34 0-12.34-6.152-24.676-6.152-12.34 0-12.34 6.152-24.68 6.152-12.336 0-12.336-6.152-24.676-6.152-12.336 0-12.336 6.152-24.675 6.152S62.012 7.5 49.676 7.5c-12.34 0-12.34 6.152-24.68 6.152-2.308 0-4.187-.215-5.793-.566-2.75-.602-5.242 1.742-4.812 4.523l4.484 28.934S7.5 172.773 7.5 256c0 83.223 11.375 209.457 11.375 209.457l-4.484 28.934c-.43 2.78 2.062 5.12 4.812 4.52 1.606-.349 3.485-.567 5.793-.567 12.34 0 12.34 6.152 24.68 6.152 12.336 0 12.336-6.152 24.676-6.152s12.34 6.152 24.675 6.152c12.34 0 12.34-6.152 24.676-6.152 12.34 0 12.34 6.152 24.68 6.152 12.336 0 12.336-6.152 24.676-6.152s12.34 6.152 24.675 6.152c12.34 0 12.34-6.152 24.68-6.152 12.336 0 12.336 6.152 24.672 6.152 12.34 0 12.34-6.152 24.676-6.152 12.34 0 12.34 6.152 24.676 6.152 12.34 0 12.34-6.152 24.68-6.152s12.339 6.152 24.679 6.152 12.34-6.152 24.68-6.152 12.34 6.152 24.683 6.152c12.34 0 12.34-6.152 24.684-6.152q.767 0 1.476.031c2.535.11 4.535-2.113 4.14-4.617zm0 0"/><path fill="#d38231" d="M421.004 465.457S432.379 339.223 432.379 256 421.004 46.543 421.004 46.543l4.457-28.3c.394-2.509-1.606-4.731-4.14-4.622q-.71.03-1.477.031c-12.34 0-12.34-6.152-24.684-6.152-12.34 0-12.34 6.152-24.683 6.152q-.629 0-1.215-.02l-5.922 32.911S374.71 172.777 374.71 256s-11.37 209.457-11.37 209.457l5.648 32.926c.477-.024.969-.035 1.489-.035 12.34 0 12.34 6.152 24.683 6.152 12.34 0 12.34-6.152 24.684-6.152.511 0 1.004.007 1.476.03 2.535.11 4.535-2.112 4.14-4.62zm0 0"/><path fill="#f3e8d7" d="M336.848 256c0 64.566-52.34 116.91-116.91 116.91-64.567 0-116.907-52.344-116.907-116.91s52.34-116.91 116.906-116.91c64.57 0 116.91 52.344 116.91 116.91m0 0"/><path fill="#efa335" d="M209.32 225.086c-38.55 0-70.375 25.555-75.129 58.617-.562 3.91 3.075 7.129 6.875 6.05 11.38-3.233 34.653-7.526 62.332.227 72.247 20.239 81.665 2.313 81.665 2.313 0-37.117-33.91-67.207-75.743-67.207m0 0"/><path fill="#f4d5ba" d="M219.938 139.09c-9.95 0-19.61 1.25-28.833 3.59 50.625 12.84 88.079 58.703 88.079 113.32s-37.454 100.48-88.079 113.32a117 117 0 0 0 28.832 3.59c64.57 0 116.91-52.344 116.91-116.91s-52.34-116.91-116.91-116.91m0 0"/><path fill="#fd8f31" d="m187.063 285.445 69.12 14.168 28.88-7.32c34.132-11.504 26.656-69.54-27.215-79.063-33.653-5.949-80.715 19.458-90.313 38.594-6.55 13.063 19.528 15.364 19.528 33.621m0 0"/><path fill="#efa335" d="M209.32 225.086c-38.55 0-70.375 25.555-75.129 58.617-.562 3.91 3.075 7.129 6.875 6.05 11.38-3.233 34.653-7.526 62.332.227 72.247 20.239 81.665 2.313 81.665 2.313 0-37.117-33.91-67.207-75.743-67.207M419.844 13.652C407.5 13.652 407.5 7.5 395.156 7.5c-12.34 0-12.34 6.152-24.68 6.152S358.137 7.5 345.797 7.5s-12.339 6.152-24.679 6.152-12.34-6.152-24.68-6.152-12.34 6.152-24.675 6.152c-12.34 0-12.34-6.152-24.676-6.152-12.34 0-12.34 6.152-24.676 6.152-12.34 0-12.34-6.152-24.68-6.152-12.335 0-12.335 6.152-24.675 6.152-12.336 0-12.336-6.152-24.676-6.152s-12.34 6.152-24.676 6.152c-12.34 0-12.34-6.152-24.68-6.152-12.336 0-12.336 6.152-24.675 6.152-12.336 0-12.336-6.152-24.676-6.152s-12.34 6.152-24.676 6.152c-2.312 0-4.187-.214-5.797-.566-2.75-.602-5.242 1.742-4.808 4.523l4.48 28.934h402.133l4.457-28.3c.394-2.509-1.606-4.731-4.14-4.622q-.71.03-1.477.031m0 0"/><path fill="#fd8f31" d="M385.445 9.336c-.18.074-.36.156-.539.234q-.574.26-1.125.532c-.422.203-.836.41-1.25.617q-.246.124-.492.242c-.5.246-1.004.488-1.523.719l-.153.066q-.439.19-.894.367a21 21 0 0 1-3.461 1.028c-1.551.316-3.344.511-5.531.511q-.628 0-1.215-.023l-5.922 32.914h57.664l2.418-15.36 2.039-12.94a3.99 3.99 0 0 0-2.367-4.298 3.9 3.9 0 0 0-1.774-.324q-.709.03-1.476.031c-2.239 0-4.067-.203-5.64-.535a20.913 20.913 0 0 1-3.46-1.047l-.521-.21a44.849 44.849 0 0 1-1.844-.848c-.195-.098-.395-.196-.59-.293q-.574-.289-1.152-.57a40 40 0 0 0-1.223-.579c-.176-.082-.36-.16-.539-.238a19 19 0 0 0-.754-.305 20 20 0 0 0-2.562-.816q-.603-.153-1.258-.277c-1.461-.27-3.137-.434-5.14-.434-1.157 0-2.208.055-3.169.152-.64.067-1.238.149-1.808.25a21 21 0 0 0-2.352.559c-.578.176-1.117.363-1.633.566a28 28 0 0 0-.754.309m0 0"/><path fill="#efa335" d="M419.844 498.348c-12.344 0-12.344 6.152-24.688 6.152-12.34 0-12.34-6.152-24.68-6.152s-12.34 6.152-24.68 6.152-12.339-6.152-24.679-6.152-12.34 6.152-24.68 6.152-12.34-6.152-24.675-6.152c-12.34 0-12.34 6.152-24.676 6.152-12.34 0-12.34-6.152-24.676-6.152-12.34 0-12.34 6.152-24.68 6.152-12.335 0-12.335-6.152-24.675-6.152-12.336 0-12.336 6.152-24.676 6.152s-12.34-6.152-24.676-6.152c-12.34 0-12.34 6.152-24.68 6.152-12.336 0-12.336-6.152-24.675-6.152-12.336 0-12.336 6.152-24.676 6.152s-12.34-6.152-24.676-6.152c-2.312 0-4.187.214-5.797.566-2.75.602-5.242-1.742-4.808-4.523l4.48-28.934h402.133l4.457 28.3c.394 2.509-1.606 4.731-4.14 4.622q-.71-.03-1.477-.031m0 0"/><path fill="#fd8f31" d="m425.46 493.758-2.226-14.153-2.23-14.148H363.34l5.648 32.926c.477-.024.969-.04 1.489-.04 9.257 0 11.57 3.462 17.355 5.192 1.203.363 2.563.649 4.16.813.961.097 2.012.148 3.168.148 12.344 0 12.344-6.152 24.684-6.152q.773 0 1.476.031a4.013 4.013 0 0 0 2.531-.75 3.99 3.99 0 0 0 1.61-3.867m0 0"/><path d="M428.559 465.203c1.03-11.7 11.32-130.344 11.32-209.203s-10.29-197.504-11.32-209.203l4.312-27.39a11.46 11.46 0 0 0-2.781-9.446 11.47 11.47 0 0 0-9.086-3.832q-.557.024-1.16.023c-4.406 0-6.23-.91-8.996-2.289C407.395 2.145 403.098 0 395.156 0c-7.933 0-12.23 2.145-15.683 3.863-2.766 1.38-4.59 2.29-8.996 2.29-4.403 0-6.23-.91-8.993-2.29C358.031 2.145 353.734 0 345.797 0c-7.934 0-12.23 2.145-15.688 3.863-2.761 1.38-4.59 2.29-8.992 2.29s-6.23-.91-8.992-2.29C308.672 2.145 304.375 0 296.438 0c-7.934 0-12.231 2.145-15.684 3.863-2.766 1.38-4.59 2.29-8.992 2.29s-6.23-.91-8.992-2.29C259.316 2.145 255.02 0 247.086 0c-7.938 0-12.23 2.145-15.688 3.863-2.761 1.38-4.585 2.29-8.988 2.29s-6.226-.91-8.992-2.29C209.965 2.145 205.668 0 197.734 0c-7.937 0-12.234 2.145-15.687 3.863-2.766 1.38-4.59 2.29-8.992 2.29s-6.227-.91-8.992-2.29C160.609 2.145 156.313 0 148.379 0s-12.23 2.145-15.684 3.863c-2.765 1.38-4.59 2.29-8.992 2.29s-6.23-.91-8.992-2.29C111.258 2.145 106.96 0 99.023 0 91.09 0 86.793 2.145 83.34 3.863c-2.766 1.38-4.59 2.29-8.992 2.29s-6.227-.91-8.993-2.29C61.906 2.145 57.605 0 49.672 0S37.438 2.145 33.988 3.863c-2.765 1.38-4.59 2.29-8.992 2.29-1.61 0-2.98-.13-4.195-.395a11.5 11.5 0 0 0-10.336 2.86 11.49 11.49 0 0 0-3.485 10.14l4.34 28.031C10.293 58.438 0 177.121 0 256s10.293 197.563 11.32 209.21l-4.34 28.028a11.5 11.5 0 0 0 3.48 10.145 11.5 11.5 0 0 0 10.34 2.86c1.216-.266 2.587-.395 4.196-.395 4.402 0 6.227.91 8.988 2.289 3.454 1.718 7.75 3.863 15.688 3.863s12.234-2.145 15.687-3.863c2.762-1.38 4.586-2.29 8.993-2.29 4.402 0 6.226.91 8.988 2.286 3.453 1.722 7.75 3.867 15.687 3.867 7.934 0 12.23-2.145 15.684-3.867 2.766-1.375 4.59-2.29 8.992-2.29s6.23.91 8.992 2.29c3.453 1.722 7.75 3.863 15.684 3.863 7.937 0 12.234-2.14 15.687-3.863 2.762-1.38 4.59-2.29 8.993-2.29s6.226.91 8.988 2.29c3.453 1.722 7.754 3.863 15.687 3.863 7.938 0 12.235-2.14 15.688-3.863 2.762-1.38 4.59-2.29 8.992-2.29s6.227.91 8.988 2.29c3.453 1.719 7.75 3.863 15.684 3.863 7.937 0 12.234-2.144 15.687-3.863 2.762-1.38 4.586-2.29 8.993-2.29 4.398 0 6.226.91 8.988 2.286 3.453 1.723 7.75 3.867 15.687 3.867s12.235-2.144 15.688-3.867c2.762-1.375 4.59-2.285 8.992-2.285s6.23.91 8.992 2.289c3.453 1.719 7.75 3.863 15.688 3.863s12.234-2.144 15.687-3.863c2.766-1.38 4.59-2.29 8.992-2.29 4.407 0 6.23.91 8.997 2.29 3.453 1.719 7.75 3.863 15.683 3.863 7.942 0 12.238-2.144 15.692-3.863 2.761-1.38 4.59-2.29 8.996-2.29q.596 0 1.148.024c3.477.168 6.785-1.246 9.098-3.832a11.45 11.45 0 0 0 2.777-9.445zM24.996 21.153c7.938 0 12.23-2.141 15.684-3.864C43.445 15.91 45.27 15 49.672 15s6.23.91 8.992 2.29c3.453 1.722 7.75 3.862 15.688 3.862 7.933 0 12.23-2.14 15.683-3.863C92.801 15.91 94.625 15 99.027 15s6.227.91 8.993 2.29c3.449 1.722 7.75 3.862 15.683 3.862 7.938 0 12.235-2.14 15.688-3.863 2.761-1.379 4.586-2.289 8.988-2.289s6.23.91 8.992 2.29c3.453 1.722 7.75 3.862 15.688 3.862 7.933 0 12.23-2.14 15.683-3.863 2.766-1.379 4.59-2.289 8.992-2.289s6.23.91 8.993 2.29c3.453 1.722 7.75 3.862 15.687 3.862 7.934 0 12.23-2.14 15.684-3.863 2.761-1.379 4.586-2.289 8.988-2.289s6.227.91 8.992 2.29c3.45 1.722 7.75 3.862 15.684 3.862 7.937 0 12.234-2.14 15.687-3.863 2.762-1.379 4.586-2.289 8.988-2.289 4.407 0 6.231.91 8.997 2.29 3.453 1.722 7.75 3.862 15.683 3.862 7.938 0 12.235-2.14 15.688-3.863C339.57 15.91 341.395 15 345.8 15c4.402 0 6.226.91 8.992 2.29 3.453 1.722 7.75 3.862 15.687 3.862 7.934 0 12.235-2.14 15.688-3.863C388.93 15.91 390.754 15 395.156 15c4.406 0 6.235.91 9 2.29 3.082 1.538 6.84 3.41 13.266 3.792l-2.828 17.961H25.3L22.52 21.078q1.2.075 2.476.074M404.152 494.71c-2.761 1.379-4.59 2.289-8.996 2.289-4.402 0-6.226-.91-8.992-2.29-3.453-1.722-7.75-3.862-15.687-3.862s-12.235 2.14-15.688 3.863c-2.762 1.379-4.59 2.289-8.992 2.289s-6.23-.91-8.992-2.29c-3.453-1.722-7.75-3.862-15.688-3.862s-12.234 2.14-15.687 3.863c-2.766 1.379-4.59 2.289-8.993 2.289s-6.23-.91-8.992-2.29c-3.453-1.722-7.75-3.862-15.683-3.862-7.938 0-12.235 2.14-15.688 3.863-2.765 1.379-4.59 2.289-8.992 2.289s-6.227-.91-8.988-2.29c-3.453-1.722-7.75-3.862-15.684-3.862-7.937 0-12.234 2.14-15.687 3.863-2.762 1.379-4.59 2.289-8.993 2.289-4.402 0-6.226-.91-8.992-2.29-3.453-1.722-7.75-3.862-15.683-3.862-7.938 0-12.235 2.14-15.688 3.863-2.762 1.379-4.59 2.289-8.992 2.289s-6.227-.91-8.988-2.29c-3.453-1.722-7.75-3.862-15.688-3.862-7.933 0-12.23 2.14-15.683 3.863-2.766 1.379-4.59 2.289-8.993 2.289-4.402 0-6.23-.91-8.992-2.285-3.453-1.723-7.75-3.867-15.683-3.867-7.938 0-12.235 2.144-15.688 3.867-2.762 1.375-4.586 2.285-8.988 2.285s-6.227-.91-8.988-2.29c-3.454-1.722-7.75-3.862-15.688-3.862q-1.275-.001-2.48.074l2.785-17.965h389.293l2.828 17.961c-6.426.383-10.184 2.254-13.27 3.793m9.977-36.754H25.75C23.418 430.609 15 326.941 15 256S23.418 81.39 25.75 54.043h388.379c2.332 27.348 10.75 131.016 10.75 201.957s-8.418 174.61-10.75 201.957m0 0"/><path d="M302.004 162.496a124.28 124.28 0 0 0-82.067-30.906 124.3 124.3 0 0 0-82.062 30.902c-22.477 19.742-37.098 46.856-41.172 76.344a7.506 7.506 0 0 0 6.406 8.457c4.102.562 7.887-2.3 8.453-6.402 3.583-25.922 16.442-49.762 36.211-67.125 19.95-17.524 45.579-27.172 72.164-27.172s52.22 9.648 72.168 27.172c19.774 17.367 32.633 41.207 36.207 67.132a7.503 7.503 0 0 0 8.458 6.403 7.5 7.5 0 0 0 6.402-8.453c-4.067-29.493-18.688-56.61-41.168-76.352M336.543 267.363c-4.094-.664-7.938 2.121-8.598 6.207-4.093 25.364-17.14 48.606-36.738 65.446-19.809 17.02-45.117 26.39-71.27 26.39s-51.464-9.37-71.269-26.394c-19.602-16.844-32.648-40.086-36.738-65.45a7.497 7.497 0 0 0-8.598-6.21 7.503 7.503 0 0 0-6.21 8.601c4.651 28.852 19.487 55.29 41.769 74.438 22.523 19.355 51.308 30.02 81.047 30.02s58.519-10.661 81.042-30.016c22.282-19.149 37.118-45.582 41.774-74.434a7.5 7.5 0 0 0-6.211-8.598m0 0"/><path d="M143.117 296.969c10.649-3.028 32.375-7.02 58.258.23 26.305 7.371 45.031 9.922 58.36 9.922 18.257-.004 26.374-4.789 29.93-8.547 15.667-6.336 24.812-21.758 23.444-39.957-1.64-21.812-18.96-46.586-53.957-52.773-18.191-3.215-41.156 1.433-63.199 12.726-35.726 5.23-64.43 31.016-69.183 64.063a12.94 12.94 0 0 0 4.304 11.629 12.89 12.89 0 0 0 12.043 2.707m113.426-76.352c19.504 3.446 39.937 16.883 41.61 39.125.507 6.778-1.231 14.637-6.762 20.133-5.211-27.82-27.598-50.477-57.02-58.828 8.047-1.399 15.621-1.59 22.172-.43m-56.867 12.57q.638-.074 1.277-.144c.492-.05.98-.102 1.473-.145.449-.039.894-.078 1.344-.109q.808-.052 1.62-.094c.38-.02.758-.043 1.137-.054q1.39-.054 2.797-.055c36.383 0 66.207 25.039 68.14 56.46-1.28.696-3.577 1.63-7.405 2.286-9.625 1.652-28.657 1.504-64.633-8.574a124.9 124.9 0 0 0-33.723-4.64c-12.223 0-22.418 1.792-29.55 3.581 5.199-25.426 28.679-44.91 57.523-48.512m0 0"/></svg>