<svg xmlns="http://www.w3.org/2000/svg" viewBox="-34 1 511 511.999"><path fill="#dfede7" d="m181.133 195.273-27.274-87.882a119.5 119.5 0 0 1-5.308-31.672l-1.254-40.34H93.555L92.3 75.719a119.4 119.4 0 0 1-5.309 31.672L59.72 195.273a35.2 35.2 0 0 0-1.574 10.403v86.691c0 1.106.05 2.215.156 3.317L68.62 404.41c.379 4 .059 8.031-.945 11.922l-10.25 39.621c-2.754 14.32 8.219 27.602 22.797 27.602h80.406c14.582 0 25.55-13.282 22.797-27.602l-10.25-39.621a34.6 34.6 0 0 1-.946-11.922l10.32-108.726c.106-1.102.157-2.211.157-3.317v-86.691a35 35 0 0 0-1.574-10.403m0 0"/><path fill="#d7e0dc" d="m183.426 455.957-10.246-39.625a34.4 34.4 0 0 1-.946-11.922l10.317-108.726q.159-1.652.16-3.317v-86.691c0-3.528-.535-7.031-1.578-10.403l-27.274-87.882a119.4 119.4 0 0 1-5.308-31.672l-1.254-40.336H93.555L92.3 75.719a120 120 0 0 1-1.059 12.515 119 119 0 0 0 4.25 19.157l27.274 87.882a35.2 35.2 0 0 1 1.574 10.403v86.691q.002 1.664-.156 3.317l-10.32 108.726c-.38 4-.06 8.035.945 11.922l10.25 39.625c2.754 14.316-8.22 27.602-22.797 27.602h58.367c14.582 0 25.55-13.286 22.797-27.602m0 0"/><path fill="#912c2c" d="m181.133 195.273-27.274-87.882a118 118 0 0 1-3.504-14.477H90.5a119 119 0 0 1-3.508 14.477L59.72 195.273a35.2 35.2 0 0 0-1.574 10.403v86.691c0 1.106.05 2.215.156 3.317L68.62 404.41a34.6 34.6 0 0 1-.945 11.918l-5.508 21.297c4.34 5.152 10.906 8.86 18.055 8.86h80.406c7.414 0 13.883-3.442 18.101-8.7l-5.55-21.457a34.6 34.6 0 0 1-.946-11.918l10.32-108.726c.106-1.102.157-2.211.157-3.317v-86.691c0-3.528-.535-7.035-1.578-10.403m0 0"/><path fill="#7c1e1e" d="M182.344 200.684a35 35 0 0 0-1.211-5.41l-18.184-58.59-9.09-29.293-.023-.086a113 113 0 0 1-1.043-3.57c-.27-.981-.52-1.965-.762-2.954-.054-.21-.113-.418-.164-.629a117 117 0 0 1-1.512-7.238h-58.37a118 118 0 0 0 3.507 14.477l27.274 87.882a35.2 35.2 0 0 1 1.578 10.403v86.691q-.001 1.659-.16 3.317L113.867 404.41a34.5 34.5 0 0 0 .945 11.918l7.797 30.156h38.02c7.414 0 13.883-3.441 18.098-8.699l-5.547-21.457a35 35 0 0 1-.57-2.656 34 34 0 0 1-.376-9.262l10.32-108.726q.158-1.659.157-3.317v-86.691c0-1.672-.129-3.34-.367-4.992m0 0"/><path fill="#fc4e51" d="M147.516 48.332h-54.18c-5.906 0-10.695-4.789-10.695-10.695V18.305c0-5.907 4.789-10.696 10.695-10.696h54.18c5.91 0 10.699 4.79 10.699 10.696v19.332c0 5.906-4.79 10.695-10.7 10.695M58.145 205.676v86.691c0 1.106.05 2.215.156 3.317l.836 8.808h122.578l.836-8.808c.105-1.102.16-2.211.16-3.317v-86.691c0-1.899-.168-3.79-.473-5.656H58.618a34.7 34.7 0 0 0-.473 5.656m0 0"/><path fill="#ea3942" d="M182.55 295.684q.16-1.652.16-3.317v-86.691c0-.762-.034-1.52-.085-2.278l-.023-.359a37 37 0 0 0-.227-2.07c-.027-.18-.05-.364-.078-.543-.02-.137-.055-.27-.074-.406H123.87c.305 1.87.469 3.757.469 5.656v86.691q.002 1.664-.156 3.317l-.836 8.812h58.367zm0 0"/><path fill="#912c2c" d="M377.898 196.012H237.18a5.305 5.305 0 0 0-4.918 3.297c-3.805 9.351-11.266 40.086 11.168 110.957 20.851 65.882 13.394 129.992 8.28 158.246-1.42 7.84 4.61 15.047 12.58 15.047h86.503c7.965 0 13.996-7.207 12.578-15.047-5.117-28.254-12.574-92.364 8.281-158.246 22.434-70.871 14.97-101.606 11.164-110.957a5.3 5.3 0 0 0-4.918-3.297m0 0"/><path fill="#7c1e1e" d="M382.816 199.309a5.3 5.3 0 0 0-4.918-3.297h-55.304s18.41 26.023-9.52 114.254c-27.93 88.234-5.078 173.293-5.078 173.293h42.793c7.969 0 14-7.207 12.582-15.047-5.117-28.254-12.574-92.364 8.277-158.242 22.438-70.875 14.973-101.61 11.168-110.961m0 0"/><path fill="#dfede7" d="M359.91 444.355a12.7 12.7 0 0 1-9.12 3.836h-86.5c-3.614 0-6.821-1.488-9.122-3.836-1.04 9.606-2.309 17.797-3.461 24.157-1.418 7.84 4.613 15.043 12.582 15.043h86.5c7.969 0 14-7.203 12.582-15.043-1.152-6.36-2.422-14.551-3.46-24.157m0 0"/><path fill="#d7e0dc" d="M362.914 465.922c-.07-.399-.14-.82-.207-1.235-.086-.496-.168-.984-.25-1.496-.094-.558-.184-1.136-.277-1.714-.059-.387-.121-.762-.18-1.157-.102-.672-.207-1.367-.309-2.066l-.14-.942c-.113-.769-.223-1.558-.336-2.359l-.106-.777q-.177-1.294-.347-2.64c-.028-.2-.051-.4-.078-.602a356 356 0 0 1-.36-2.93 13 13 0 0 1-.043-.39c-.125-1.067-.25-2.15-.37-3.259a12.7 12.7 0 0 1-9.118 3.836H301.77c2.597 21.84 6.226 35.368 6.226 35.368h42.797c7.965 0 13.996-7.207 12.578-15.047-.152-.832-.305-1.7-.457-2.59m0 0"/><path fill="#dfede7" d="M237.18 196.012a5.305 5.305 0 0 0-4.918 3.297c-1.575 3.87-3.778 11.418-4.223 23.953h159c-.445-12.535-2.648-20.082-4.223-23.953a5.3 5.3 0 0 0-4.918-3.297zm0 0"/><path fill="#d7e0dc" d="M387.04 223.262c-.25-7.047-1.056-12.52-1.993-16.645 0-.004-.004-.012-.004-.02a66 66 0 0 0-.629-2.515q-.005-.024-.016-.047c-.101-.37-.207-.73-.308-1.074-.008-.031-.02-.063-.028-.094a45 45 0 0 0-.609-1.87l-.035-.102c-.094-.27-.191-.528-.281-.774q-.022-.054-.043-.11a30 30 0 0 0-.278-.702 5.27 5.27 0 0 0-2.625-2.782 5.3 5.3 0 0 0-2.293-.515h-55.3s5.156 7.297 5.87 27.25zm0 0"/><path fill="#a0796d" d="M425.441 476.39H18.684c-5.84 0-10.575 4.735-10.575 10.575v6.851c0 5.84 4.735 10.579 10.575 10.579H425.44c5.844 0 10.579-4.739 10.579-10.579v-6.851c-.004-5.84-4.739-10.574-10.579-10.574m0 0"/><path d="M425.441 468.781h-54.359a19 19 0 0 0-.227-1.625c-4.472-24.707-12.644-89.222 8.047-154.593 9.887-31.227 15.192-58.36 15.778-80.649.082-3.176.058-6.121-.035-8.875v-.05c0-.044-.004-.083-.008-.126-.02-.633-.051-1.25-.082-1.863-.012-.23-.024-.465-.04-.691a92 92 0 0 0-.12-1.899l-.036-.445c-.57-7.39-1.73-13.035-2.992-17.227a.3.3 0 0 1-.02-.058q-.136-.451-.273-.88l-.168-.515c-.074-.219-.144-.433-.219-.648a46 46 0 0 0-.824-2.196 12 12 0 0 0-.293-.656c-.039-.078-.07-.16-.11-.238-.038-.082-.085-.156-.128-.238a12.84 12.84 0 0 0-10.45-6.868c-.105-.007-.214-.007-.323-.011-.22-.012-.438-.028-.657-.028H237.18a13 13 0 0 0-5.582 1.258 12.87 12.87 0 0 0-6.383 6.781c-.016.04-.031.086-.047.125q-.174.435-.356.91c-.066.18-.136.372-.203.563q-.1.263-.195.543c-.09.25-.176.512-.266.777l-.105.332c-1.395 4.301-2.715 10.286-3.328 18.348l-.024.305q-.074.985-.132 2.011c-.008.184-.02.372-.028.56-.035.651-.066 1.304-.09 1.98q-.002.045-.004.097v.04a145 145 0 0 0-.035 8.886c.582 22.285 5.891 49.418 15.774 80.645 20.695 65.37 12.523 129.89 8.05 154.593a21 21 0 0 0-.23 1.625h-53.738a30.7 30.7 0 0 0 .64-14.261c-.03-.157-.062-.313-.105-.47l-10.246-39.62a26.9 26.9 0 0 1-.738-9.297l9.476-99.844q-.001-.018.004-.035l.836-8.848c.129-1.336.195-2.695.195-4.039v-86.691c0-4.293-.648-8.551-1.922-12.656l-27.273-87.883q-.521-1.682-.988-3.383c-.262-.953-.504-1.914-.742-2.883l-.118-.445a116 116 0 0 1-1.433-6.84v-.016a111.5 111.5 0 0 1-1.684-16.086l-.668-21.398c6.106-2.973 10.332-9.219 10.332-16.45V18.306C165.82 8.21 157.61 0 147.516 0h-54.18c-10.094 0-18.3 8.21-18.3 18.305v19.332c0 7.23 4.222 13.476 10.327 16.449L84.7 75.48a111.4 111.4 0 0 1-1.691 16.114c-.41 2.3-.887 4.582-1.43 6.828l-.117.453c-.238.965-.484 1.93-.746 2.883q-.444 1.605-.934 3.199-.029.09-.05.18l-.004.004-7.016 22.613c-1.246 4.012 1 8.273 5.012 9.52a7.61 7.61 0 0 0 9.52-5.012l7.019-22.617q.679-2.207 1.281-4.434.064-.235.121-.477a125 125 0 0 0 1.05-4.21h47.43l.012.05c.324 1.41.676 2.817 1.047 4.215.04.137.07.274.106.41q.601 2.235 1.285 4.446l25.687 82.765H68.574l8.172-26.34a7.606 7.606 0 0 0-5.008-9.52 7.61 7.61 0 0 0-9.523 5.013l-9.762 31.457a42.6 42.6 0 0 0-1.918 12.656v86.691c0 1.344.063 2.7.192 4.035l.84 8.864q.002.005.003.011l9.477 99.852a26.9 26.9 0 0 1-.738 9.297l-10.25 39.625q-.06.229-.106.465a30.8 30.8 0 0 0 .645 14.265H18.684C8.656 468.781.5 476.938.5 486.965v6.851C.5 503.84 8.656 512 18.684 512H425.44c10.028 0 18.184-8.156 18.184-18.184v-6.851c0-10.027-8.156-18.184-18.184-18.184M99.254 85.31c.328-3.11.55-6.227.648-9.356l.625-20.015h39.801l.621 20.015c.098 3.129.32 6.246.649 9.356zm51.351-47.672a3.085 3.085 0 0 1-3.003 3.078h-.024c-.086.004-.176.004-.262.008H93.523c-.097-.004-.171-.004-.25-.004a3.093 3.093 0 0 1-3.027-3.082V18.305a3.094 3.094 0 0 1 3.09-3.09h54.18a3.09 3.09 0 0 1 3.09 3.09zm84.997 193.234h18.722a7.605 7.605 0 0 0 7.606-7.61c0-4.198-3.407-7.605-7.606-7.605H236.23c.024-.207.047-.418.075-.62.039-.317.078-.634.12-.942a58 58 0 0 1 .282-1.887l.14-.855q.083-.451.165-.88c.047-.253.093-.507.144-.75.059-.292.117-.57.176-.843l.14-.652c.067-.278.13-.54.196-.801.043-.184.09-.375.133-.551.07-.27.137-.516.207-.766a31.015 31.015 0 0 1 .348-1.207c.035-.109.066-.226.101-.332q.16-.509.313-.953h137.543q.153.44.312.946c.047.148.094.32.145.476.058.195.117.387.175.594.055.191.11.406.168.61.051.198.106.39.16.6.059.223.118.466.176.708.051.207.102.414.149.633.062.257.12.535.18.804l.14.676c.059.293.117.598.172.906q.07.352.133.715.086.494.168 1.012.058.368.117.754a65 65 0 0 1 .258 1.894c.03.23.058.473.086.711h-89.13a7.608 7.608 0 1 0 0 15.215h89.755c-.36 16.84-3.868 41.692-15.079 77.102-15.722 49.668-15.906 97.949-12.562 132.496a5 5 0 0 1-1.043.113h-86.504a5 5 0 0 1-1.039-.113c3.34-34.547 3.156-82.828-12.566-132.496-11.211-35.41-14.72-60.262-15.082-77.102m120.09 237.91h-96.305c.703-3.96 1.414-8.375 2.082-13.199.93.129 1.863.215 2.82.215h86.5c.957 0 1.895-.086 2.82-.215a359 359 0 0 0 2.082 13.2M65.75 207.63h109.352v84.738c0 .863-.043 1.738-.125 2.598l-.18 1.922H66.055l-.18-1.922a28 28 0 0 1-.125-2.598zm100.066 210.605 4.47 17.29a15.52 15.52 0 0 1-9.657 3.351H80.223c-3.32 0-6.727-1.3-9.594-3.578l4.41-17.063a42 42 0 0 0 1.156-14.543l-8.695-91.59h105.852l-8.692 91.59a42 42 0 0 0 1.156 14.543M64.86 457.605l1.782-6.898c4.27 2.184 8.933 3.383 13.582 3.383h80.406c4.812 0 9.457-1.11 13.637-3.176l1.73 6.691a15.38 15.38 0 0 1-2.27 11.176H67.126a15.37 15.37 0 0 1-2.266-11.176m363.551 36.211a2.97 2.97 0 0 1-2.969 2.97H18.684a2.97 2.97 0 0 1-2.97-2.97v-6.851a2.97 2.97 0 0 1 2.97-2.969H425.44a2.97 2.97 0 0 1 2.97 2.969zm0 0"/></svg>