<svg xmlns="http://www.w3.org/2000/svg" viewBox="0 -33 512 512"><path fill="#fc4e51" d="M175.926 39.66h301.039v310.055h-301.04zm0 0"/><path fill="#ea3942" d="M419.3 39.66h57.665v310.055H419.3zm0 0"/><path fill="#f3e8d7" d="M233.41 224.7h186.074c6.563 0 11.883-5.321 11.883-11.884v-85.238c0-6.562-5.32-11.883-11.883-11.883H233.41c-6.562 0-11.883 5.32-11.883 11.883v85.238c0 6.563 5.32 11.883 11.883 11.883m0 0"/><g fill="#efa335"><path d="M224.566 153.805c-13.8 0-24.992-11.192-24.992-24.993v-13.117h49.985v13.118c0 13.8-11.188 24.992-24.993 24.992M274.55 153.805c-13.8 0-24.991-11.192-24.991-24.993v-13.117h49.988v13.118c-.004 13.8-11.192 24.992-24.996 24.992M324.535 153.805c-13.8 0-24.988-11.192-24.988-24.993v-13.117h49.984v13.118c-.004 13.8-11.191 24.992-24.996 24.992m0 0"/><path d="M374.52 153.805c-13.801 0-24.993-11.192-24.993-24.993v-13.117h49.989v13.118c0 13.8-11.192 24.992-24.996 24.992M424.508 153.805c-13.805 0-24.992-11.192-24.992-24.993v-13.117H449.5v13.118c-.004 13.8-11.191 24.992-24.992 24.992m0 0"/></g><path fill="#fd8f31" d="M435.684 81.031a6.34 6.34 0 0 0-5.891-3.992H219.281a6.34 6.34 0 0 0-5.89 3.992l-13.817 34.664H449.5zm0 0"/><path fill="#0d6e9a" d="M159.586 7.5h333.723a3.54 3.54 0 0 1 3.535 3.54v27.85a3.54 3.54 0 0 1-3.535 3.54H159.586a3.54 3.54 0 0 1-3.54-3.54V11.04a3.54 3.54 0 0 1 3.54-3.54m0 0"/><path fill="#09627a" d="M493.309 7.5h-54.133v34.93h54.133a3.54 3.54 0 0 0 3.535-3.54V11.04a3.54 3.54 0 0 0-3.535-3.54m0 0"/><path fill="#0d6e9a" d="M7.516 307.86v62.577a14.03 14.03 0 0 0 8.336 12.829l32.37 14.386a21.5 21.5 0 0 0 8.735 1.856h427.809c10.898 0 19.734-8.836 19.734-19.738v-29.797c0-6.645-1.812-13.16-5.238-18.852l-2.301-3.82a52.58 52.58 0 0 0-34.773-24.426l-66.512-13.227c-13.473-2.68-26.27-9.96-37.649-17.648l-48.203-32.563a103.23 103.23 0 0 0-57.781-17.687H163.57a103.23 103.23 0 0 0-72.851 30.094 103.2 103.2 0 0 1-51.688 27.902l-10.465 2.191c-12.265 2.57-21.05 13.387-21.05 25.922m0 0"/><path fill="#09627a" d="m499.262 331.125-2.305-3.82a52.54 52.54 0 0 0-34.77-24.426l-28.996-5.77a33 33 0 0 1 1.598 2.391l9.637 15.988a16.8 16.8 0 0 1 2.406 8.664v36.18c0 10.406-8.434 18.844-18.84 18.844H10.574a14 14 0 0 0 5.278 4.09l32.37 14.386a21.5 21.5 0 0 0 8.735 1.856h427.809c10.898 0 19.734-8.836 19.734-19.738v-29.797c0-6.645-1.812-13.16-5.238-18.848m0 0"/><path fill="#33d8dd" d="M184.492 250.05c0-1.679-1.36-3.038-3.039-3.038H163.57c-21.543 0-41.816 8.375-57.078 23.582A125.7 125.7 0 0 1 79.56 291.02a5.73 5.73 0 0 0-2.766 6.351 23.26 23.26 0 0 0 22.598 17.742h82.062c1.68 0 3.04-1.36 3.04-3.039zM355.328 299.43a126 126 0 0 1-9.812-5.996l-48.204-32.563a80.9 80.9 0 0 0-45.269-13.86h-36.879A2.165 2.165 0 0 0 213 249.18v63.77c0 1.195.969 2.163 2.164 2.163h143.824c1.946 0 3.567-1.558 3.578-3.504.028-5.09-2.78-9.73-7.238-12.18m0 0"/><path fill="#efa335" d="M474.262 357.602H504.5v-7.63c0-6.644-1.812-13.16-5.238-18.847l-2.305-3.82a57 57 0 0 0-.832-.473h-11.727c-8.12 0-14.703 6.586-14.703 14.707v11.496a4.565 4.565 0 0 0 4.567 4.567m0 0"/><path fill="#f3e8d7" d="M28.172 357.219H7.5v-30.004h20.672a4.25 4.25 0 0 1 4.25 4.25v21.504a4.25 4.25 0 0 1-4.25 4.25m0 0"/><path fill="#31363b" d="M118.898 371.656c-15.382-15.383-40.32-15.383-55.699 0-15.383 15.38-15.383 40.317 0 55.7 15.38 15.378 40.317 15.378 55.7 0 15.378-15.383 15.378-40.32 0-55.7m0 0"/><path fill="#e2e2e2" d="M91.05 416.523c-4.546 0-8.82-1.77-12.03-4.984-6.637-6.633-6.637-17.43 0-24.066 3.21-3.211 7.484-4.985 12.03-4.985s8.817 1.774 12.032 4.985a16.9 16.9 0 0 1 4.984 12.035c0 4.543-1.77 8.816-4.984 12.031a16.9 16.9 0 0 1-12.031 4.984m0 0"/><path fill="#31363b" d="M447.895 371.656c-15.38-15.379-40.317-15.379-55.7 0-15.383 15.383-15.383 40.32 0 55.7 15.383 15.382 40.32 15.382 55.7 0 15.382-15.38 15.382-40.317 0-55.7m0 0"/><path fill="#e2e2e2" d="M420.05 416.523c-4.546 0-8.82-1.77-12.03-4.984-6.637-6.633-6.637-17.43 0-24.066 3.21-3.211 7.484-4.985 12.03-4.985s8.817 1.774 12.032 4.985a16.9 16.9 0 0 1 4.984 12.035c0 4.543-1.77 8.816-4.984 12.031a16.9 16.9 0 0 1-12.031 4.984m0 0"/><path fill="#efa335" d="M224.566 153.805c-13.8 0-24.992-11.192-24.992-24.993v-13.117h49.985v13.118c0 13.8-11.188 24.992-24.993 24.992m0 0"/><path fill="#ffc064" d="M274.55 153.805c-13.8 0-24.991-11.192-24.991-24.993v-13.117h49.988v13.118c-.004 13.8-11.192 24.992-24.996 24.992m0 0"/><path fill="#efa335" d="M324.535 153.805c-13.8 0-24.988-11.192-24.988-24.993v-13.117h49.984v13.118c-.004 13.8-11.191 24.992-24.996 24.992m0 0"/><path fill="#ffc064" d="M374.52 153.805c-13.801 0-24.993-11.192-24.993-24.993v-13.117h49.989v13.118c0 13.8-11.192 24.992-24.996 24.992m0 0"/><path fill="#efa335" d="M424.508 153.805c-13.805 0-24.992-11.192-24.992-24.993v-13.117H449.5v13.118c-.004 13.8-11.191 24.992-24.992 24.992m0 0"/><path d="M233.668 339.535h-18.762c-4.14 0-7.5 3.36-7.5 7.5s3.36 7.5 7.5 7.5h18.762c4.14 0 7.5-3.36 7.5-7.5s-3.36-7.5-7.5-7.5M181.453 239.512H163.57c-23.543 0-45.691 9.152-62.37 25.765a118 118 0 0 1-25.325 19.207c-5.148 2.907-7.766 8.938-6.367 14.668a30.69 30.69 0 0 0 29.883 23.461h82.062c5.813 0 10.54-4.726 10.54-10.539v-62.023c0-5.813-4.727-10.54-10.54-10.54m-4.46 68.101H99.39a15.72 15.72 0 0 1-14.946-10.75 133 133 0 0 0 27.34-20.957c13.848-13.797 32.238-21.394 51.785-21.394h13.422zM358.945 292.86a119 119 0 0 1-9.23-5.641l-48.203-32.563c-14.664-9.906-31.77-15.144-49.469-15.144h-36.879c-5.328 0-9.664 4.336-9.664 9.664v63.773c0 5.328 4.336 9.664 9.664 9.664h143.824c6.075 0 11.043-4.918 11.078-10.965.04-7.796-4.222-14.996-11.12-18.789M220.5 307.612v-53.101h31.543a73.1 73.1 0 0 1 41.07 12.574l48.203 32.562c3.36 2.27 6.86 4.407 10.399 6.356a6.6 6.6 0 0 1 1.937 1.61zM91.05 374.988c-6.546 0-12.702 2.551-17.335 7.184-4.625 4.625-7.172 10.781-7.172 17.336 0 6.55 2.547 12.71 7.172 17.336a24.36 24.36 0 0 0 17.336 7.18c6.55 0 12.707-2.551 17.336-7.18 4.629-4.63 7.18-10.785 7.18-17.336 0-6.547-2.547-12.707-7.18-17.336-4.63-4.633-10.785-7.184-17.336-7.184m6.727 31.25c-1.793 1.797-4.183 2.785-6.726 2.785s-4.934-.988-6.73-2.789a9.45 9.45 0 0 1-2.778-6.726c0-2.547.988-4.938 2.777-6.73a9.47 9.47 0 0 1 6.73-2.79c2.544 0 4.934.992 6.731 2.79s2.785 4.187 2.785 6.73-.988 4.93-2.789 6.73M420.05 374.988c-6.546 0-12.702 2.551-17.335 7.184-4.625 4.625-7.172 10.781-7.172 17.336 0 6.55 2.547 12.71 7.172 17.336a24.36 24.36 0 0 0 17.336 7.18c6.55 0 12.707-2.551 17.336-7.18 4.633-4.63 7.183-10.785 7.183-17.336 0-6.547-2.55-12.707-7.183-17.336-4.63-4.633-10.785-7.184-17.336-7.184m6.731 31.25c-1.797 1.797-4.187 2.785-6.73 2.785s-4.934-.988-6.73-2.789a9.43 9.43 0 0 1-2.778-6.726 9.45 9.45 0 0 1 2.777-6.73c1.797-1.798 4.188-2.79 6.73-2.79s4.934.992 6.731 2.79 2.785 4.187 2.785 6.73-.988 4.93-2.785 6.73m0 0"/><path d="m505.684 327.254-2.301-3.824-.008-.008a60.18 60.18 0 0 0-39.727-27.902l-66.511-13.227c-13.309-2.645-26.301-10.688-34.914-16.508l-48.2-32.562c-.523-.352-1.054-.684-1.578-1.024h107.04c10.687 0 19.382-8.695 19.382-19.383v-54.87c10.73-5.31 18.13-16.372 18.13-29.133v-13.168c0-.075-.013-.149-.013-.223a7 7 0 0 0-.047-.633c-.007-.086-.027-.172-.039-.258a6 6 0 0 0-.12-.605 7.338 7.338 0 0 0-.277-.898c-.013-.036-.02-.075-.036-.11l-.047-.121-.012-.027-13.758-34.512a13.77 13.77 0 0 0-12.855-8.719H219.281c-5.699 0-10.746 3.422-12.855 8.719l-13.758 34.512-.012.027-.05.125c-.012.035-.02.07-.036.11a7 7 0 0 0-.218.663l-.059.23c-.047.2-.09.403-.121.606q-.02.129-.04.258c-.023.207-.038.422-.042.633-.004.074-.012.148-.012.223 0 .015-.004.035-.004.05v13.118c0 14.226 9.196 26.34 21.95 30.726v53.277c0 .48.042.957.078 1.434h-50.536c-29.496 0-57.246 11.465-78.14 32.285a95.5 95.5 0 0 1-47.938 25.875l-10.46 2.192C11.374 277.879.015 291.867.015 307.859v19.067c-.004.097-.016.191-.016.289v30.004c0 .097.012.195.016.293v12.926c0 8.503 5.02 16.226 12.793 19.68l31.613 14.054c1.031 10.406 5.52 20.531 13.476 28.488 9.141 9.14 21.149 13.711 33.157 13.711 12.004 0 24.011-4.57 33.152-13.71 7.23-7.231 11.59-16.255 13.098-25.653H373.77c1.546 9.672 6.07 18.59 13.128 25.652 8.856 8.856 20.63 13.735 33.157 13.735 12.52 0 24.297-4.88 33.148-13.735 7.063-7.062 11.586-15.98 13.133-25.652h18.43c15.015 0 27.234-12.219 27.234-27.238v-29.797a44 44 0 0 0-6.316-22.72m-81.817-114.438a4.39 4.39 0 0 1-4.383 4.383H277.441a110.8 110.8 0 0 0-25.398-2.949h-22.77a4.2 4.2 0 0 1-.25-1.434v-51.828c8.22-1.133 15.47-5.343 20.536-11.437 5.964 7.176 14.953 11.754 24.992 11.754s19.027-4.578 24.992-11.754c5.965 7.176 14.953 11.754 24.992 11.754s19.028-4.578 24.992-11.754c5.965 7.176 14.953 11.754 24.993 11.754s19.027-4.578 24.992-11.754c5.836 7.02 14.574 11.547 24.351 11.734v51.531zM257.06 128.812v-5.617h34.984v5.617c0 9.645-7.848 17.493-17.492 17.493s-17.492-7.848-17.492-17.493m49.984 0v-5.617h34.984v5.617c0 9.645-7.847 17.493-17.492 17.493s-17.492-7.848-17.492-17.493m49.984 0v-5.617h34.985v5.617c0 9.645-7.848 17.493-17.492 17.493s-17.493-7.848-17.493-17.493m84.97-5.617v5.617c0 8.407-5.966 15.446-13.888 17.114-.125.027-.254.043-.382.066q-.585.112-1.18.184c-.16.015-.32.035-.48.047-.512.047-1.032.082-1.56.082-9.648 0-17.491-7.848-17.491-17.493v-5.617zM220.066 84.54h208.937l9.43 23.656H210.637zm-12.993 44.273v-5.617h34.985v5.617c0 9.645-7.844 17.493-17.493 17.493-.5 0-.992-.035-1.484-.078-.172-.012-.34-.028-.52-.047-8.703-1-15.488-8.403-15.488-17.368M15.016 334.715h9.906v15.004h-9.906zm98.582 87.34c-12.434 12.433-32.66 12.433-45.094 0s-12.434-32.664 0-45.094c6.215-6.219 14.383-9.324 22.547-9.324 8.168 0 16.332 3.105 22.547 9.324 12.433 12.434 12.433 32.66 0 45.094m329 0c-6.02 6.02-14.028 9.34-22.547 9.34-8.516 0-16.524-3.32-22.547-9.34-6.024-6.024-9.34-14.032-9.34-22.547 0-8.52 3.316-16.528 9.34-22.547 6.023-6.024 14.031-9.34 22.547-9.34 8.52 0 16.523 3.316 22.547 9.34 6.023 6.02 9.34 14.027 9.34 22.547 0 8.515-3.317 16.523-9.34 22.547M497 379.77c0 6.75-5.488 12.238-12.234 12.238h-18.43c-1.547-9.672-6.07-18.594-13.129-25.656-8.855-8.856-20.633-13.73-33.152-13.73-12.528 0-24.301 4.874-33.157 13.73-7.058 7.062-11.582 15.984-13.128 25.656H137.305c-1.512-9.399-5.871-18.426-13.102-25.656-18.277-18.282-48.023-18.278-66.305 0a46.65 46.65 0 0 0-12.351 21.906L18.898 376.41a6.54 6.54 0 0 1-3.882-5.973v-5.718h13.156c6.476 0 11.75-5.27 11.75-11.75v-21.504c0-6.48-5.274-11.75-11.75-11.75H15.016v-11.856c0-8.933 6.343-16.746 15.09-18.578l10.46-2.191a110.46 110.46 0 0 0 55.446-29.93c18.062-18 42.054-27.91 67.554-27.91h88.477c7.527 0 14.95.887 22.16 2.598.285.093.582.164.883.218a95.5 95.5 0 0 1 30.539 13.586l48.2 32.563c10.51 7.101 24.597 15.652 40.386 18.793l66.512 13.226c7.359 1.461 14.164 4.75 19.851 9.438-10.426 1.816-18.383 10.926-18.383 21.867v11.496c0 6.653 5.414 12.067 12.07 12.067H497zm0-29.668h-19.805v-8.563c0-3.973 3.23-7.207 7.203-7.207h8.04l.398.664A29 29 0 0 1 497 349.973zm0 0"/><path d="M159.586 49.93h8.84v136.922a7.5 7.5 0 1 0 15 0V49.93h286.039v223.398a7.5 7.5 0 1 0 15 0V49.93h8.84c6.086 0 11.039-4.953 11.039-11.04V11.04c0-6.087-4.953-11.04-11.04-11.04H159.587c-6.086 0-11.04 4.953-11.04 11.04v27.85c0 6.087 4.954 11.04 11.04 11.04m3.96-34.93h325.798v19.93H163.547zm0 0"/></svg>