<svg xmlns="http://www.w3.org/2000/svg" viewBox="0 -1 511.999 511"><path fill="#e2e2e2" d="M213.203 139.77a63.46 63.46 0 0 0-16.762-41.461L92.223 10.637a10.327 10.327 0 0 0-13.95.597c-4.03 4.032-4.03 10.57 0 14.602l79.508 79.508c4.875 4.875 4.875 12.781 0 17.656L122.5 158.281c-4.875 4.875-12.781 4.875-17.656 0L25.336 78.773a10.327 10.327 0 0 0-15.203 13.95L97.809 196.94a63.46 63.46 0 0 0 41.46 16.762l30.141.094a49.93 49.93 0 0 1 36.617 16.168l239.72 263.187c11.71 12.672 33.589 11.086 45.788-1.117 12.203-12.2 13.79-34.074 1.117-45.789L229.465 206.527a49.93 49.93 0 0 1-16.168-36.617zm0 0"/><path fill="#d8d6d4" d="M501.281 464.223q-.08-.78-.199-1.559a31 31 0 0 0-.617-3.066 29 29 0 0 0-.426-1.5c-1.387-4.461-3.824-8.559-7.387-11.852L229.465 206.527a49 49 0 0 1-4.395-4.609 50 50 0 0 1-2.453-3.129 49 49 0 0 1-1.437-2.125 49.862 49.862 0 0 1-7.883-26.754l-.094-30.144a63.4 63.4 0 0 0-3.629-19.676 63.4 63.4 0 0 0-13.133-21.781L92.223 10.637a10.3 10.3 0 0 0-8.027-2.332 10.3 10.3 0 0 0-5.923 2.933c-4.03 4.032-4.03 10.567 0 14.602l79.508 79.508a12.43 12.43 0 0 1 3.602 7.629c.074.796.074 1.597 0 2.394a12.4 12.4 0 0 1-.86 3.5 12.4 12.4 0 0 1-2.742 4.129l-10.933 10.937 7.586 6.383a63.46 63.46 0 0 1 16.761 41.461s0 .32.004.906c.063 15.7 8.863 29.844 22.547 37.543l.04.024c.273.152.538.316.808.476q.597.352 1.183.715.411.258.817.528.609.397 1.207.812c.23.164.46.32.691.485.602.437 1.2.886 1.785 1.351.125.098.243.2.368.3.48.391.96.79 1.43 1.204.195.168.386.344.581.516q.615.556 1.219 1.136c.172.168.348.332.52.504.554.547 1.101 1.11 1.632 1.688L395.738 438.25l54.903 50.008c3.722 3.441 6.207 7.762 7.562 12.457 2.113.61 4.305.988 6.524 1.144h.003c1.461.106 2.934.11 4.407.024q.065-.007.125-.008a35.6 35.6 0 0 0 6.465-1.016c.074-.02.148-.035.218-.054q1.054-.27 2.09-.606l.035-.012q.959-.316 1.907-.687.192-.07.386-.152a36 36 0 0 0 1.903-.825 38 38 0 0 0 1.847-.949l.414-.234a36 36 0 0 0 1.446-.867c.12-.078.246-.153.367-.23a35 35 0 0 0 1.664-1.161c.11-.082.21-.164.316-.242q.663-.509 1.301-1.05a12 12 0 0 0 .422-.364c.512-.45 1.012-.906 1.492-1.387 6.485-6.484 9.969-15.695 9.914-24.664a34 34 0 0 0-.168-3.152m0 0"/><path fill="#e2e2e2" d="M410.188 194.473a63.45 63.45 0 0 0 47.101-27.493l23.781-34.894a133.78 133.78 0 0 0 21.348-97.695c-.945-5.578-3.77-10.453-7.77-14s-9.18-5.77-14.832-6.04a133.79 133.79 0 0 0-94.433 32.91l-31.79 27.794a63.45 63.45 0 0 0-21.648 50.058l1.715 30.094a49.92 49.92 0 0 1-13.941 37.52L71.406 447.82c-11.945 12.453-9.05 34.192 3.864 45.64 12.91 11.446 34.843 11.716 45.773-1.636l223.48-277.11a49.94 49.94 0 0 1 35.582-18.335zm0 0"/><path fill="#d8d6d4" d="M502.418 34.39a24.05 24.05 0 0 0-7.77-14 24 24 0 0 0-4.96-3.398 24.025 24.025 0 0 0-9.871-2.64 149 149 0 0 0-3.723-.122c-.375-.007-.75-.007-1.125-.011q-1.33-.017-2.653-.004c-.406 0-.812.008-1.218.012a216 216 0 0 0-2.754.078c-.324.015-.653.023-.977.039q-1.88.08-3.754.218a133.8 133.8 0 0 1-23.215 76.856l-23.78 34.89a63.46 63.46 0 0 1-35.15 25.32c-10.87 3.079-21.5 6.958-31.566 12.083-9.347 4.758-18.539 9.512-18.652 9.86-.031.1-.07.202-.102.3-.23.68-.464 1.356-.722 2.024-.051.136-.11.27-.164.406-.246.629-.5 1.258-.774 1.879-.078.172-.16.343-.238.515a58 58 0 0 1-.816 1.727c-.106.21-.223.414-.329.625-.273.527-.55 1.05-.843 1.57-.14.25-.293.492-.438.738-.277.473-.55.942-.844 1.407-.183.289-.378.57-.57.86-.273.41-.539.823-.828 1.226-.234.336-.488.664-.734.992-.258.347-.508.7-.774 1.035-.32.406-.656.8-.988 1.2-.211.253-.414.51-.633.76a46 46 0 0 1-1.734 1.892L71.406 447.82c-11.945 12.453-9.05 34.192 3.864 45.64 12.91 11.446 34.843 11.716 45.773-1.636l223.48-277.11a49.94 49.94 0 0 1 35.582-18.335l30.083-1.906a63.44 63.44 0 0 0 47.097-27.493l23.781-34.894a133.76 133.76 0 0 0 21.352-97.695m0 0"/><path d="m380.59 204.04 30.082-1.907.16-.012c21.438-1.809 40.68-13.039 52.797-30.82l23.781-34.89c20.7-30.376 28.719-67.063 22.574-103.302a31.88 31.88 0 0 0-10.246-18.46 31.87 31.87 0 0 0-19.558-7.961c-36.727-1.758-72.176 10.605-99.848 34.796l-31.789 27.793c-16.2 14.16-25.043 34.61-24.27 56.114q.004.076.008.16l1.715 30.09c.668 11.73-3.633 23.304-11.777 31.734L65.867 442.508c-6.648 6.933-10.082 16.445-9.664 26.785.461 11.383 5.684 22.562 13.973 29.91 7.488 6.637 17.781 10.418 28.07 10.418q1.654.001 3.3-.133c10.317-.824 19.352-5.37 25.47-12.847L350.48 219.555c7.41-9.118 18.387-14.774 30.11-15.516m-42.04 5.858L115.106 486.961c-3.414 4.172-8.664 6.742-14.78 7.23-7.278.582-14.74-1.84-19.966-6.472-5.226-4.637-8.523-11.754-8.816-19.047-.25-6.129 1.668-11.649 5.363-15.5l248.332-255.113c11.133-11.52 16.992-27.297 16.086-43.29l-1.715-30.011c-.582-16.832 6.352-32.836 19.036-43.926l31.789-27.793c24.671-21.566 56.289-32.578 89.015-31.023 3.727.18 7.313 1.64 10.106 4.117a16.47 16.47 0 0 1 5.297 9.539c5.476 32.308-1.672 65.012-20.125 92.09l-23.782 34.894c-9.488 13.922-24.547 22.723-41.328 24.164l-30 1.899c-15.984 1.015-30.945 8.726-41.066 21.18m0 0"/><path d="M497.82 440.57 331.3 288.902a7.677 7.677 0 0 0-10.843.504 7.68 7.68 0 0 0 .508 10.844L487.44 451.883c3.961 3.66 6.207 9.054 6.329 15.187.144 7.297-2.72 14.598-7.66 19.54-4.938 4.937-12.227 7.808-19.54 7.66-6.132-.122-11.527-2.368-15.148-6.286L303.039 325.078a7.677 7.677 0 0 0-10.844-.508 7.677 7.677 0 0 0-.504 10.844L440.11 498.36c6.524 7.055 15.813 11.055 26.16 11.258q.403.007.805.008c11.121 0 22.242-4.512 29.887-12.16 7.836-7.836 12.379-19.309 12.152-30.695-.203-10.348-4.199-19.637-11.293-26.2M92.61 202.586a71.07 71.07 0 0 0 46.632 18.793l30.14.094c11.75.035 23.044 5.023 30.97 13.66l13.277 14.574a7.65 7.65 0 0 0 5.676 2.508 7.64 7.64 0 0 0 5.164-2 7.673 7.673 0 0 0 .508-10.844l-13.297-14.594c-10.828-11.804-26.227-18.601-42.246-18.656l-30.059-.094a55.77 55.77 0 0 1-36.02-14.41L16.008 87.781a2.64 2.64 0 0 1 .156-3.582c.672-.676 1.461-.773 1.871-.773s1.2.097 1.875.773l79.508 79.512c7.86 7.86 20.648 7.86 28.508-.004l9.344-9.34v-.004l16.59-16.59s.003 0 .003-.003l.004-.004 9.34-9.34c7.86-7.86 7.86-20.649 0-28.508L83.699 20.41a2.655 2.655 0 0 1 0-3.746 2.64 2.64 0 0 1 3.582-.156l103.836 87.351a55.74 55.74 0 0 1 14.414 36.016l.09 30.063c.055 16.015 6.856 31.414 18.676 42.265l14.226 12.957a7.676 7.676 0 0 0 10.844-.504 7.68 7.68 0 0 0-.508-10.844l-14.203-12.937c-8.66-7.945-13.644-19.242-13.683-30.988l-.094-30.14q.001-.083-.004-.165a71.07 71.07 0 0 0-18.79-46.473 8 8 0 0 0-.702-.675L97.16 4.762c-7.203-6.063-17.656-5.61-24.312 1.047-7.02 7.02-7.02 18.437 0 25.453l79.507 79.511a4.814 4.814 0 0 1 0 6.801l-3.917 3.914-88.614-88.61c-2.996-3-7.855-3-10.851 0a7.674 7.674 0 0 0 0 10.852l88.613 88.614-5.742 5.738-88.614-88.61a7.674 7.674 0 0 0-10.851 0c-3 2.997-3 7.856 0 10.852l88.61 88.614-3.915 3.917a4.814 4.814 0 0 1-6.8 0L30.761 73.348c-3.399-3.399-7.918-5.274-12.727-5.274S8.707 69.95 5.31 73.348c-6.657 6.656-7.106 17.109-1.047 24.316l87.676 104.219q.312.375.671.703m0 0"/></svg>