<svg xmlns="http://www.w3.org/2000/svg" viewBox="-17 0 512 512"><path fill="#87a4f4" d="M380.32 504.41H46.953c-17.785 0-33.555-11.433-39.086-28.336-1.199-3.66 1.528-7.422 5.38-7.422h400.776c3.856 0 6.582 3.762 5.383 7.422-5.531 16.903-21.3 28.336-39.086 28.336m0 0"/><path fill="#6b97d6" d="M414.023 468.652h-50.875l-3.707 11.325c-4.77 14.574-18.367 24.433-33.703 24.433h54.582c17.785 0 33.555-11.433 39.086-28.336 1.2-3.66-1.527-7.422-5.383-7.422m0 0"/><path fill="#d8d6d4" d="M469.047 273.266c-2.774-15.356-9.48-28.22-19.399-37.196-11.144-10.086-25.789-14.82-42.359-13.695-35.914 2.438-59.398 21.32-70.687 38.8l-7.543 68.016c1.265 1.528 1.347-9.035 17.734-35.363 9.973-16.027 29.375-40.61 62.516-41.77 21-.734 28.132 13.622 30.457 26.493 3.03 16.812-1.204 37.273-11.332 54.738-8.25 14.223-24.079 32.961-52.637 41.461-22.16 6.594-39.883 13.543-54.05 20.406l-4 36.078c13.386-8.375 34.276-18.367 66.538-27.968 63.438-18.88 93.39-82.176 84.762-130m0 0"/><path fill="#e2e2e2" d="M297.3 471.367H126.329c-17.183 0-31.668-12.832-33.734-29.894l-32.668-269.5a3.633 3.633 0 0 1 3.61-4.075h296.558a3.637 3.637 0 0 1 3.61 4.075l-32.669 269.5c-2.07 17.062-16.55 29.894-33.734 29.894m0 0"/><path fill="#d8d6d4" d="M360.094 167.898h-55.602l-33.164 273.575c-2.066 17.062-16.547 29.89-33.734 29.89h59.703c17.187 0 31.668-12.832 33.738-29.89l32.668-269.5a3.637 3.637 0 0 0-3.61-4.075m0 0"/><path d="M132.352 120.344c-2 7.414-6.297 12.246-6.309 12.258a7.588 7.588 0 0 0 5.566 12.742c2.04 0 4.075-.817 5.57-2.43 8.774-9.476 20.157-34.187.458-59.91-6.063-7.914-8.739-15.113-7.73-20.813a13.3 13.3 0 0 1 2.386-5.558c1.766-2.43 1.809-5.715.25-8.281l-.047-.079c-2.773-4.566-9.32-4.898-12.473-.582a28.3 28.3 0 0 0-4.988 11.446c-1.965 10.254 1.586 21.39 10.555 33.097 7.035 9.188 9.308 18.645 6.762 28.11M292.922 120.344c-2 7.414-6.3 12.246-6.309 12.258a7.584 7.584 0 0 0 .414 10.722 7.56 7.56 0 0 0 5.153 2.02c2.039 0 4.074-.817 5.57-2.43 8.773-9.476 20.156-34.187.457-59.91-6.062-7.914-8.738-15.113-7.73-20.813a13.36 13.36 0 0 1 2.472-5.675c1.735-2.332 2.035-5.426.703-8.008l-.058-.11c-2.543-4.93-9.336-5.484-12.7-1.074-2.265 2.977-4.343 6.875-5.289 11.813-1.964 10.254 1.586 21.39 10.551 33.097 7.04 9.188 9.313 18.645 6.766 28.11M212.637 74.926c-2 7.414-6.297 12.246-6.309 12.258a7.584 7.584 0 0 0 .414 10.722 7.56 7.56 0 0 0 5.153 2.02c2.039 0 4.074-.817 5.57-2.43 8.773-9.476 20.156-34.187.457-59.906-6.063-7.918-8.738-15.113-7.73-20.817.406-2.304 1.195-4.023 2.007-5.265 1.422-2.172 1.508-4.965.356-7.297-2.547-5.168-9.766-5.707-12.965-.914a28.3 28.3 0 0 0-4.27 10.422c-1.965 10.254 1.586 21.39 10.551 33.097 7.04 9.188 9.313 18.645 6.766 28.11M340.352 427.664c13.074-6.148 28.55-11.902 46.097-17.121 67.461-20.078 99.278-87.586 90.067-138.625-3.075-17.023-10.602-31.363-21.778-41.477-12.707-11.5-29.285-16.906-47.96-15.64-15.145 1.031-29.403 4.969-42.016 11.504l6.472-53.418c.387-3.188-.609-6.395-2.738-8.797s-5.191-3.781-8.402-3.781H300.66a7.59 7.59 0 0 0-7.586 7.59 7.59 7.59 0 0 0 7.586 7.59h54.973L323.5 440.558c-1.074 8.851-6.598 16.582-14.55 20.504H114.675c-7.953-3.922-13.477-11.653-14.547-20.504l-5.527-45.582a7.586 7.586 0 0 0-8.446-6.622 7.587 7.587 0 0 0-6.62 8.45l5.523 45.582c.828 6.816 3.347 13.199 7.152 18.675H13.246c-4.23 0-8.242 2.047-10.726 5.477a13.29 13.29 0 0 0-1.868 11.899A48.61 48.61 0 0 0 46.953 512H380.32a48.605 48.605 0 0 0 46.297-33.566 13.29 13.29 0 0 0-1.863-11.899 13.3 13.3 0 0 0-10.73-5.473h-82.606c3.805-5.476 6.324-11.859 7.148-18.675zm16.382-135.148c14.598-21.094 32.368-32.153 52.84-32.871 8.13-.282 19.34 1.503 22.723 20.253 2.723 15.094-1.176 33.633-10.426 49.582-7.559 13.036-22.066 30.208-48.238 37.997-9.5 2.828-18.555 5.84-27.074 8.988zm-12.242 100.98c10.258-4.055 21.492-7.91 33.473-11.473 30.945-9.21 48.094-29.515 57.035-44.925 11.004-18.973 15.578-41.364 12.234-59.895-3.941-21.828-17.504-33.45-38.191-32.726-18.348.644-34.758 7.675-49.023 20.941l2.43-20.027c12.773-8.965 28.386-14.293 45.355-15.446 14.46-.988 27.172 3.082 36.75 11.75 8.668 7.844 14.554 19.227 17.023 32.922 8.05 44.606-20.039 103.695-79.457 121.38-14.598 4.343-27.867 9.062-39.637 14.085zm66.766 82.746a33.47 33.47 0 0 1-30.938 20.582H46.953a33.46 33.46 0 0 1-30.937-20.582zM75.254 361.469a7.585 7.585 0 0 0 8.445 6.62 7.583 7.583 0 0 0 6.617-8.444l-22.32-184.157h197.356a7.59 7.59 0 0 0 0-15.18H63.535a11.23 11.23 0 0 0-11.145 12.574zm0 0"/></svg>