<svg xmlns="http://www.w3.org/2000/svg" viewBox="-22 0 512 512"><path fill="#fccf3f" d="M186.035 375.25 10.383 199.598c-3.746-3.746-3.746-9.825 0-13.57L186.035 10.374c3.746-3.75 9.824-3.75 13.57 0l175.653 175.652c3.75 3.746 3.75 9.825 0 13.57L199.605 375.25c-3.746 3.746-9.824 3.746-13.57 0m0 0"/><path fill="#efa335" d="m375.258 186.027-34.516-34.52-170.828 170.829c-3.75 3.746-9.828 3.746-13.574 0L15.207 181.203l-4.824 4.824c-3.746 3.746-3.746 9.825 0 13.57L186.035 375.25c3.746 3.746 9.824 3.746 13.57 0l175.653-175.652c3.75-3.746 3.75-9.825 0-13.57m0 0"/><path fill="#ffe092" d="m163.93 85.656 26.652 26.653a3.16 3.16 0 0 0 4.477 0l26.656-26.653a3.17 3.17 0 0 0 0-4.476l-26.656-26.653a3.16 3.16 0 0 0-4.477 0L163.93 81.18a3.16 3.16 0 0 0 0 4.476M218.625 140.355l26.652 26.653a3.166 3.166 0 0 0 4.48 0l26.653-26.653a3.166 3.166 0 0 0 0-4.48l-26.652-26.652a3.166 3.166 0 0 0-4.48 0l-26.653 26.652a3.173 3.173 0 0 0 0 4.48M273.324 195.05l26.653 26.653a3.166 3.166 0 0 0 4.48 0l26.652-26.652a3.17 3.17 0 0 0 0-4.477l-26.652-26.656a3.173 3.173 0 0 0-4.48 0l-26.653 26.656a3.16 3.16 0 0 0 0 4.477m0 0"/><path fill="#efa335" d="m375.258 186.027-34.516-34.52-170.828 170.829c-3.75 3.746-9.828 3.746-13.574 0L15.207 181.203l-4.824 4.824c-3.746 3.746-3.746 9.825 0 13.57L186.035 375.25c3.746 3.746 9.824 3.746 13.57 0l175.653-175.652c3.75-3.746 3.75-9.825 0-13.57m0 0"/><path fill="#fccf3f" d="M299.977 221.703a3.16 3.16 0 0 0 4.476 0l26.652-26.652a3.16 3.16 0 0 0 0-4.477l-14.714-14.719-31.133 31.133zm0 0"/><path fill="#ffe092" d="m109.23 140.355 26.653 26.653a3.166 3.166 0 0 0 4.48 0l26.653-26.653a3.166 3.166 0 0 0 0-4.48l-26.653-26.652a3.166 3.166 0 0 0-4.48 0l-26.653 26.652a3.173 3.173 0 0 0 0 4.48M163.93 195.05l26.652 26.653a3.16 3.16 0 0 0 4.477 0l26.656-26.652a3.17 3.17 0 0 0 0-4.477l-26.656-26.656a3.17 3.17 0 0 0-4.477 0l-26.652 26.656a3.16 3.16 0 0 0 0 4.477M54.535 195.05l26.653 26.653a3.166 3.166 0 0 0 4.48 0l26.652-26.652a3.17 3.17 0 0 0 0-4.477l-26.652-26.656a3.173 3.173 0 0 0-4.48 0l-26.653 26.656a3.16 3.16 0 0 0 0 4.477M109.23 249.75l26.653 26.652a3.173 3.173 0 0 0 4.48 0l26.653-26.652a3.166 3.166 0 0 0 0-4.48l-26.653-26.653a3.166 3.166 0 0 0-4.48 0L109.23 245.27a3.173 3.173 0 0 0 0 4.48M163.93 304.445l26.652 26.653a3.16 3.16 0 0 0 4.477 0l26.656-26.653a3.17 3.17 0 0 0 0-4.476l-26.656-26.653a3.16 3.16 0 0 0-4.477 0L163.93 299.97a3.16 3.16 0 0 0 0 4.476m0 0"/><path fill="#fccf3f" d="m391.871 504.16-241.59-57.812c-5.152-1.235-8.332-6.414-7.097-11.567l57.812-241.59c1.23-5.152 6.41-8.332 11.567-7.097l241.585 57.812c5.157 1.23 8.336 6.41 7.102 11.567l-57.812 241.586c-1.235 5.156-6.415 8.332-11.567 7.101m0 0"/><path fill="#efa335" d="m454.148 243.902-46.933-11.23-56.02 234.09c-1.23 5.156-6.41 8.336-11.566 7.101l-194.652-46.582-1.797 7.496c-1.235 5.157 1.945 10.336 7.101 11.57l241.586 57.813c5.156 1.23 10.336-1.945 11.57-7.101l57.813-241.586c1.234-5.157-1.945-10.336-7.102-11.57m0 0"/><path fill="#ffe092" d="m221.535 268.918 36.66 8.77c1.7.406 3.41-.641 3.817-2.344l8.773-36.656a3.17 3.17 0 0 0-2.344-3.817l-36.656-8.773a3.173 3.173 0 0 0-3.82 2.343l-8.77 36.657a3.17 3.17 0 0 0 2.34 3.82M296.766 286.918l36.66 8.773c1.699.407 3.41-.64 3.816-2.343l8.774-36.657a3.173 3.173 0 0 0-2.344-3.82l-36.66-8.77c-1.7-.406-3.41.641-3.817 2.344l-8.77 36.657a3.16 3.16 0 0 0 2.34 3.816M371.996 304.922l36.656 8.773a3.173 3.173 0 0 0 3.82-2.343l8.77-36.66c.406-1.7-.64-3.41-2.344-3.817l-36.656-8.773a3.17 3.17 0 0 0-3.816 2.343l-8.774 36.66c-.406 1.7.641 3.41 2.344 3.817m0 0"/><path fill="#fccf3f" d="m388.957 308.98 19.695 4.715a3.173 3.173 0 0 0 3.82-2.343l8.77-36.657a3.17 3.17 0 0 0-2.344-3.82l-19.695-4.71zm0 0"/><g fill="#ffe092"><path d="m203.535 344.145 36.656 8.773a3.17 3.17 0 0 0 3.82-2.344l8.77-36.656a3.17 3.17 0 0 0-2.344-3.82l-36.656-8.77c-1.699-.41-3.41.64-3.816 2.34l-8.774 36.66a3.164 3.164 0 0 0 2.344 3.817M278.762 362.148l36.66 8.774a3.17 3.17 0 0 0 3.816-2.344l8.774-36.66c.406-1.7-.64-3.41-2.344-3.816l-36.656-8.774a3.173 3.173 0 0 0-3.82 2.344l-8.77 36.66c-.41 1.7.64 3.41 2.34 3.816M353.992 380.152l36.656 8.77c1.704.41 3.41-.64 3.82-2.34l8.774-36.66a3.17 3.17 0 0 0-2.344-3.817l-36.66-8.773a3.17 3.17 0 0 0-3.816 2.344l-8.774 36.66a3.17 3.17 0 0 0 2.344 3.816M185.531 419.375l36.656 8.773a3.173 3.173 0 0 0 3.82-2.343l8.77-36.657a3.17 3.17 0 0 0-2.343-3.82l-36.657-8.773a3.17 3.17 0 0 0-3.816 2.343l-8.774 36.66a3.17 3.17 0 0 0 2.344 3.817M260.762 437.379l36.656 8.77a3.164 3.164 0 0 0 3.816-2.344l8.774-36.657c.406-1.699-.64-3.41-2.344-3.816l-36.656-8.773a3.164 3.164 0 0 0-3.817 2.343l-8.773 36.657a3.17 3.17 0 0 0 2.344 3.82M335.992 455.379l36.656 8.773c1.7.407 3.41-.64 3.817-2.343l8.773-36.657a3.164 3.164 0 0 0-2.343-3.816l-36.657-8.774a3.164 3.164 0 0 0-3.816 2.344l-8.774 36.656a3.164 3.164 0 0 0 2.344 3.817m0 0"/></g><path fill="#fccf3f" d="M372.648 464.152c1.7.407 3.41-.64 3.817-2.343l8.773-36.657a3.167 3.167 0 0 0-2.343-3.816l-19.7-4.715-10.246 42.817zM390.648 388.922c1.704.41 3.41-.64 3.82-2.34l8.77-36.66c.407-1.7-.64-3.41-2.343-3.817l-19.696-4.714-10.246 42.816zm0 0"/><path d="M455.91 236.54 330.371 206.5l6.09-6.094c4.187-4.187 4.187-11 0-15.187l-26.652-26.653c-4.188-4.187-10.997-4.187-15.188 0L267.97 185.22a10.66 10.66 0 0 0-2.957 5.64l-42.469-10.164-22.129-22.129c-4.187-4.187-10.996-4.187-15.187 0l-26.653 26.653c-4.187 4.187-4.187 11 0 15.187l26.555 26.551-12.934 54.031-13.62 13.625a10.67 10.67 0 0 0-3.145 7.594c0 2.867 1.117 5.566 3.144 7.594l5.43 5.43-28.188 117.785a17.07 17.07 0 0 0 2.067 12.98 17.06 17.06 0 0 0 10.637 7.715l241.585 57.812c1.336.32 2.688.477 4.028.477 3.133 0 6.215-.863 8.949-2.543a17.04 17.04 0 0 0 7.715-10.637l57.812-241.586c2.207-9.207-3.492-18.488-12.699-20.695m-153.695-64.153 20.426 20.426-9.551 9.55-32.207-7.707a8 8 0 0 0-.09-.847zm-129.82 20.426 20.425-20.426 8.461 8.46a17.14 17.14 0 0 0-7.652 10.583l-4.367 18.25zm281.492 60.898-57.813 241.586a2 2 0 0 1-.91 1.254c-.328.203-.86.406-1.531.246h-.004l-241.586-57.813a2 2 0 0 1-1.254-.91c-.2-.328-.406-.86-.242-1.531l57.808-241.586a2.036 2.036 0 0 1 2.446-1.5l241.586 57.813a2.03 2.03 0 0 1 1.5 2.44m0 0"/><path d="m219.773 276.281 36.66 8.77a10.6 10.6 0 0 0 2.497.297c4.855 0 9.265-3.32 10.445-8.243l8.773-36.656c1.375-5.758-2.187-11.566-7.945-12.941l-36.66-8.774c-5.754-1.379-11.563 2.188-12.941 7.946l-8.774 36.656c-.664 2.789-.207 5.672 1.293 8.117s3.863 4.16 6.652 4.828m14.532-41.793 28.09 6.719-6.723 28.094-28.09-6.723zM295.004 294.281l36.66 8.774c.836.199 1.672.297 2.496.297 4.852 0 9.266-3.32 10.445-8.243l8.774-36.656c1.375-5.762-2.188-11.566-7.945-12.945l-36.66-8.77c-5.754-1.379-11.563 2.184-12.942 7.942l-8.773 36.66c-1.38 5.758 2.187 11.562 7.945 12.941m14.531-41.793 28.09 6.723-6.723 28.09-28.09-6.719zM420.66 263.512l-36.656-8.77a10.67 10.67 0 0 0-8.117 1.29 10.66 10.66 0 0 0-4.825 6.652l-8.773 36.664c-1.375 5.754 2.188 11.558 7.941 12.937h.004l36.657 8.77a10.65 10.65 0 0 0 8.117-1.29 10.67 10.67 0 0 0 4.824-6.652l8.773-36.66c1.38-5.758-2.183-11.562-7.945-12.941m-14.527 41.793-28.094-6.723 6.723-28.09 28.093 6.723zM260.145 315.68c.667-2.79.207-5.672-1.293-8.118s-3.86-4.16-6.653-4.824l-36.656-8.773c-5.758-1.383-11.566 2.187-12.941 7.945l-8.774 36.656a10.67 10.67 0 0 0 1.293 8.118 10.65 10.65 0 0 0 6.652 4.824l36.657 8.773q1.256.298 2.5.297c4.851 0 9.265-3.32 10.441-8.242zm-22.473 28.851-28.094-6.722 6.723-28.094 28.09 6.723zM335.375 333.684c.664-2.79.207-5.672-1.293-8.118a10.67 10.67 0 0 0-6.652-4.828l-36.657-8.77c-5.757-1.378-11.566 2.184-12.945 7.942l-8.77 36.66c-.667 2.79-.21 5.672 1.29 8.117s3.863 4.157 6.652 4.825l36.66 8.773a10.682 10.682 0 0 0 8.117-1.293 10.68 10.68 0 0 0 4.825-6.652zm-22.477 28.847-28.09-6.722 6.72-28.09 28.093 6.722zM402.66 338.742 366 329.97c-5.754-1.38-11.562 2.187-12.941 7.945l-8.774 36.656c-.664 2.79-.207 5.672 1.293 8.118s3.863 4.16 6.652 4.828l36.657 8.77a10.65 10.65 0 0 0 8.117-1.29 10.67 10.67 0 0 0 4.828-6.656l8.77-36.656c1.378-5.758-2.184-11.563-7.942-12.942m-14.531 41.793-28.09-6.722 6.723-28.094 28.09 6.726zM234.195 377.965l-36.656-8.77c-5.754-1.379-11.562 2.184-12.941 7.942l-8.774 36.66c-1.379 5.758 2.188 11.562 7.946 12.941l36.656 8.774c.84.199 1.676.293 2.5.293 4.851 0 9.265-3.317 10.445-8.239l8.77-36.66c1.379-5.758-2.184-11.562-7.946-12.941m-14.527 41.793-28.09-6.719 6.719-28.094 28.094 6.723zM309.426 395.969l-36.656-8.774a10.7 10.7 0 0 0-8.118 1.293 10.66 10.66 0 0 0-4.824 6.653l-8.777 36.66c-1.371 5.758 2.191 11.562 7.945 12.941H259l36.656 8.77c.836.203 1.676.297 2.5.297 4.852 0 9.266-3.32 10.442-8.243l8.773-36.656a10.67 10.67 0 0 0-1.289-8.117 10.7 10.7 0 0 0-6.656-4.824m-14.528 41.793-28.093-6.723 6.722-28.09 28.094 6.719zM384.656 413.973 348 405.199a10.67 10.67 0 0 0-8.117 1.293 10.66 10.66 0 0 0-4.828 6.653l-8.77 36.656a10.67 10.67 0 0 0 1.29 8.117 10.65 10.65 0 0 0 6.652 4.824l36.66 8.774c.836.199 1.672.296 2.496.296 4.851 0 9.265-3.32 10.445-8.242l8.774-36.656c.664-2.789.207-5.672-1.293-8.117s-3.864-4.16-6.653-4.824m-14.527 41.793-28.094-6.723 6.723-28.094 28.09 6.723zM192.82 120.8c2.75 0 5.5-1.042 7.594-3.136l26.656-26.656c4.184-4.184 4.184-10.996-.004-15.184l-26.652-26.652c-4.187-4.188-11-4.188-15.187 0l-26.653 26.652a10.67 10.67 0 0 0-3.144 7.594c0 2.867 1.117 5.566 3.144 7.594l26.653 26.652a10.69 10.69 0 0 0 7.593 3.137m0-57.808 20.426 20.426-20.426 20.426-20.425-20.426zM239.922 172.36a10.68 10.68 0 0 0 7.598 3.144c2.867 0 5.566-1.117 7.593-3.145l26.653-26.652a10.67 10.67 0 0 0 3.144-7.594c0-2.867-1.117-5.566-3.144-7.59l-26.653-26.652a10.66 10.66 0 0 0-7.593-3.148 10.67 10.67 0 0 0-7.594 3.144l-26.653 26.653a10.67 10.67 0 0 0-3.144 7.593c0 2.871 1.117 5.567 3.144 7.594zm7.598-54.669 20.421 20.426-20.421 20.422-20.426-20.422zM175.516 138.117c0-2.87-1.118-5.566-3.145-7.594l-26.656-26.656c-4.184-4.183-10.996-4.183-15.188.004l-26.652 26.652c-4.184 4.188-4.184 11 0 15.184l26.652 26.656c2.098 2.09 4.848 3.137 7.598 3.137s5.5-1.047 7.594-3.137l26.652-26.652a10.68 10.68 0 0 0 3.145-7.594m-37.391 20.422-20.426-20.426 20.426-20.422 20.422 20.422zM120.816 192.813c0-2.868-1.117-5.567-3.144-7.594L91.02 158.566a10.67 10.67 0 0 0-7.594-3.144 10.67 10.67 0 0 0-7.594 3.144L49.18 185.22c-2.028 2.027-3.145 4.726-3.145 7.594s1.117 5.566 3.145 7.593l26.652 26.653a10.67 10.67 0 0 0 7.594 3.144c2.87 0 5.566-1.117 7.594-3.144l26.652-26.653a10.67 10.67 0 0 0 3.144-7.594m-37.39 20.425-20.422-20.425 20.422-20.426 20.426 20.426zM103.879 255.102l26.652 26.656c2.094 2.09 4.844 3.137 7.594 3.137s5.5-1.047 7.594-3.141l26.652-26.652a10.67 10.67 0 0 0 3.145-7.594c0-2.867-1.118-5.563-3.145-7.59l-26.652-26.656c-4.188-4.184-11-4.184-15.188 0l-26.656 26.656c-4.184 4.184-4.184 10.996.004 15.184m34.246-28.016 20.422 20.422-20.422 20.426-20.426-20.426zm0 0"/><path d="M143.25 332.613a7.57 7.57 0 0 0 .004-10.707L15.738 194.246a2.025 2.025 0 0 1 0-2.867L191.391 15.727c.789-.79 2.074-.79 2.863 0l175.652 175.652c.489.492.594 1.05.594 1.434a7.567 7.567 0 0 0 7.566 7.574h.004a7.57 7.57 0 0 0 7.57-7.567c0-4.59-1.785-8.902-5.03-12.148L204.96 5.02c-6.694-6.692-17.585-6.692-24.28 0L5.027 180.672C1.79 183.914 0 188.227 0 192.812s1.785 8.899 5.027 12.137L132.54 332.61a7.55 7.55 0 0 0 5.36 2.22 7.55 7.55 0 0 0 5.351-2.216m0 0"/></svg>