<svg xmlns="http://www.w3.org/2000/svg" viewBox="-97 1 511 511.999"><path fill="#dfede7" d="M308.406 179.691V164.7a4.34 4.34 0 0 0-4.34-4.34H187.313a4.34 4.34 0 0 0-4.344 4.34v14.992c0 40.754 4.61 81.38 13.738 121.102l1.203 5.234c9.125 39.72 16.152 80.344 16.152 121.102v39.125c0 4.113-2.082 7.945-5.535 10.183l-12.726 8.247a7.88 7.88 0 0 0-3.59 6.609v5.332a7.875 7.875 0 0 0 7.875 7.875h91.207a7.875 7.875 0 0 0 7.875-7.875v-5.332a7.88 7.88 0 0 0-3.594-6.61l-12.726-8.246c-3.043-1.972-5.532-6.554-5.532-10.183v-39.125c0-40.758 7.024-81.383 16.153-121.102l1.203-5.234a540.7 540.7 0 0 0 13.734-121.102m0 0"/><path fill="#d7e0dc" d="m293.469 306.027 1.203-5.238a540.6 540.6 0 0 0 13.734-121.098V164.7a4.34 4.34 0 0 0-4.34-4.34h-53.703v19.825c0 40.43-4.57 80.726-13.625 120.129l-1.312 5.714c-9.13 39.723-16.156 80.348-16.156 121.102v41.488c0 2.328 1.601 5.27 3.554 6.535l16.688 10.817a3.54 3.54 0 0 1 1.613 2.965v12.035a3.534 3.534 0 0 1-3.535 3.535h53.703a7.88 7.88 0 0 0 7.875-7.879v-5.328a7.87 7.87 0 0 0-3.594-6.61l-12.726-8.25c-3.043-1.972-5.532-6.554-5.532-10.18V427.13c0-40.758 7.024-81.383 16.153-121.102m0 0"/><path fill="#fccf3f" d="M299.168 496.625v-5.332a7.88 7.88 0 0 0-3.594-6.61l-12.726-8.245c-3.043-1.973-5.532-6.555-5.532-10.184v-39.125c0-40.758 7.024-81.383 16.153-121.102l1.203-5.234a541 541 0 0 0 13.355-101.121H183.352a541 541 0 0 0 13.355 101.121l1.203 5.234c9.125 39.72 16.152 80.344 16.152 121.102v39.125c0 4.113-2.082 7.945-5.535 10.184l-12.726 8.246a7.88 7.88 0 0 0-3.59 6.609v5.332a7.877 7.877 0 0 0 7.875 7.875h91.207a7.877 7.877 0 0 0 7.875-7.875m0 0"/><path fill="#efa335" d="M298.824 489.04a8 8 0 0 0-.422-1.099 7.9 7.9 0 0 0-1.32-1.988 8 8 0 0 0-.71-.676 8 8 0 0 0-.798-.593l-12.726-8.246c-1.618-1.051-3.075-2.84-4.09-4.829a16 16 0 0 1-.774-1.78c-.425-1.212-.671-2.438-.671-3.571v-39.13c0-12.733.687-25.456 1.91-38.144a485 485 0 0 1 1.71-15.207 551 551 0 0 1 2.172-15.16 625 625 0 0 1 2.372-13.976q.229-1.276.464-2.551c2.23-12.086 4.782-24.117 7.528-36.063l1.203-5.234a605 605 0 0 0 1.535-6.902c.164-.774.324-1.547.488-2.325.32-1.523.64-3.046.95-4.574q.286-1.416.562-2.832.403-2.039.79-4.082.287-1.524.57-3.055c.234-1.285.46-2.57.687-3.859.187-1.066.379-2.133.558-3.203.204-1.215.399-2.434.598-3.648.399-2.458.781-4.91 1.145-7.372.11-.738.222-1.476.328-2.218.219-1.5.422-3.004.625-4.508q.153-1.127.3-2.254.305-2.33.59-4.66l.239-1.996q.294-2.474.566-4.953.074-.692.149-1.383a541 541 0 0 0 2.39-30.785l.012-.235q.151-3.136.27-6.277h-58.028a536.7 536.7 0 0 1-13.258 100.64l-1.316 5.715c-9.125 39.723-16.152 80.348-16.152 121.102v41.484c0 2.332 1.597 5.274 3.554 6.54l16.688 10.816a3.53 3.53 0 0 1 1.61 2.965v12.035a3.533 3.533 0 0 1-3.532 3.531h53.707c.539 0 1.07-.055 1.582-.16q.03-.008.055-.016.358-.069.699-.18c.02-.003.035-.011.05-.015a7.9 7.9 0 0 0 4.532-3.75c.008-.012.012-.027.02-.04.35-.66.617-1.374.769-2.128.027-.117.039-.238.055-.36.066-.402.105-.808.105-1.23v-5.328c0-.336-.02-.664-.062-.992a7.3 7.3 0 0 0-.278-1.262m0 0"/><path fill="#dfede7" d="M298.21 487.531a7.86 7.86 0 0 0-2.636-2.847l-12.726-8.246c-1.696-1.102-3.223-3.016-4.239-5.122h-65.675c-.95 2.055-2.446 3.852-4.403 5.121l-12.726 8.247a7.88 7.88 0 0 0-3.594 6.609v5.332c0 .367.035.73.086 1.086.055.398.133.793.246 1.172a7.89 7.89 0 0 0 3.77 4.652l.019.016c.137.07.277.133.418.199.09.043.18.09.273.133.106.043.215.078.32.117.134.05.266.102.403.145.129.042.262.07.395.101.12.031.238.07.359.094.152.031.309.047.465.07.105.016.21.04.32.05.145.017.297.017.445.024.122.004.239.016.36.016h91.207c.121 0 .238-.012.355-.016.153-.007.301-.007.45-.023.109-.012.214-.035.32-.05.152-.02.308-.04.46-.071.102-.02.2-.05.298-.078.152-.035.308-.07.457-.117.07-.02.136-.051.207-.075.176-.058.347-.117.515-.187.04-.016.07-.035.106-.055a7.87 7.87 0 0 0 4.37-4.945c.114-.38.196-.774.25-1.172.052-.356.087-.719.087-1.086v-5.332c0-.668-.086-1.324-.246-1.953a8.2 8.2 0 0 0-.715-1.809m0 0"/><path fill="#d7e0dc" d="M298.965 489.566q-.065-.263-.14-.527a8 8 0 0 0-.423-1.098 9 9 0 0 0-.55-.984 1 1 0 0 1-.051-.082 7.4 7.4 0 0 0-.719-.922 9 9 0 0 0-.676-.648 8 8 0 0 0-.832-.621l-12.726-8.247a8 8 0 0 1-.61-.44c-.086-.063-.164-.138-.246-.208-.117-.098-.234-.187-.344-.293-.109-.098-.21-.203-.316-.308-.082-.083-.168-.16-.25-.247-.117-.125-.23-.257-.348-.39q-.094-.104-.187-.215c-.125-.149-.242-.305-.363-.461q-.07-.091-.141-.184a14 14 0 0 1-.367-.523c-.035-.05-.07-.106-.106-.156a14 14 0 0 1-.351-.575q-.044-.07-.086-.14a15 15 0 0 1-.324-.598c-.016-.031-.036-.058-.051-.09q-.011-.03-.028-.058c-.039-.078-.082-.156-.12-.235h-58.75c.636 1.563 1.726 3.036 2.964 3.836l16.688 10.817a3.53 3.53 0 0 1 1.61 2.965v12.03a3.533 3.533 0 0 1-3.532 3.536h53.707q.407-.002.8-.04c.11-.01.212-.034.317-.05.063-.008.121-.02.18-.027.097-.016.191-.024.285-.043.02-.004.039-.012.055-.016q.358-.075.699-.18.016-.005.031-.011a8.596 8.596 0 0 0 1.52-.668q.074-.047.144-.094.28-.164.543-.351c.055-.04.106-.083.164-.122q.247-.186.477-.39l.152-.14c.152-.141.297-.294.438-.446l.128-.14q.219-.255.418-.524c.028-.04.055-.074.082-.113q.236-.324.43-.676c0-.004.004-.008.004-.008.063-.11.113-.23.168-.344.102-.203.2-.414.281-.625q.074-.193.137-.387c.055-.152.094-.312.137-.468.074-.29.144-.582.187-.883l.012-.121c.047-.332.078-.668.078-1.012v-5.328c0-.336-.02-.664-.062-.992a7 7 0 0 0-.137-.735m0 0"/><path fill="#ffe7cf" d="M302.816 165.355c3.63 0 6.684-2.882 6.696-6.511v-.07c0-7.801-5.11-14.594-12.121-16.458.05-.546.074-1.101.074-1.652 0-9.355-7.172-16.965-15.992-16.965-3.86 0-7.508 1.446-10.407 4.094-2.593-1.8-5.578-2.746-8.714-2.746q-.896 0-1.786.105c.207-1.09.313-2.203.313-3.328 0-9.351-7.176-16.96-15.992-16.96-6.766 0-12.809 4.62-15.059 11.253a15.2 15.2 0 0 0-5.902-1.203c-8.469 0-15.422 7.02-15.961 15.863-5.145 1.508-9.262 5.672-10.926 11.059-8.441.453-15.176 7.879-15.176 16.937v.07c.016 3.63 3.067 6.516 6.696 6.516h114.257zm0 0"/><path fill="#f2d7c0" d="M297.39 142.316c.051-.546.079-1.101.079-1.652 0-9.355-7.176-16.965-15.996-16.965-3.86 0-7.508 1.446-10.407 4.094-2.593-1.8-5.578-2.746-8.714-2.746-.594 0-1.192.035-1.782.105.207-1.09.309-2.203.309-3.328 0-9.351-7.172-16.96-15.992-16.96-6.762 0-12.805 4.62-15.055 11.253a15.2 15.2 0 0 0-5.906-1.203c-6.758 0-12.54 4.477-14.875 10.774 0 0 8.453-3.426 14.762-1.989 8.597 1.965 15.992 7.61 15.992 16.965q0 .826-.075 1.652c11.688 5.528 10.02 23.04 10.02 23.04h53.07c3.625 0 6.68-2.887 6.692-6.512v-.07c0-7.801-5.106-14.594-12.121-16.458m0 0"/><path fill="#f29c55" d="M126.023 190.5a94.9 94.9 0 0 1-20.328-56.68l-2.617-121.449H51.29l-2.617 121.453a94.94 94.94 0 0 1-20.324 56.68A94.9 94.9 0 0 0 8 249.227v236.718c0 10.25 8.305 18.555 18.555 18.555h101.258c10.25 0 18.554-8.305 18.554-18.555V249.227a94.92 94.92 0 0 0-20.344-58.727m0 0"/><path fill="#d38231" d="M48.672 133.824a94.94 94.94 0 0 1-20.324 56.68A94.9 94.9 0 0 0 8 249.227v236.718c0 10.25 8.305 18.555 18.555 18.555h101.258c10.25 0 18.554-8.305 18.554-18.555V249.227a94.9 94.9 0 0 0-20.344-58.723 94.9 94.9 0 0 1-20.328-56.68l-.855-39.66H49.527zm0 0"/><path fill="#c6742a" d="M126.023 190.5a94.9 94.9 0 0 1-20.328-56.68l-.855-39.656H49.527l-.855 39.656a97 97 0 0 1-.207 4.39 94.92 94.92 0 0 0 20.117 52.29 94.93 94.93 0 0 1 20.348 58.727v236.718c0 10.246-8.305 18.555-18.555 18.555h57.438c10.246 0 18.554-8.309 18.554-18.555V249.227a94.92 94.92 0 0 0-20.344-58.727m0 0"/><path fill="#912c2c" d="M107.14 47.594H47.228c-3.391 0-6.141-2.75-6.141-6.14V13.64c0-3.391 2.75-6.141 6.14-6.141h59.915c3.39 0 6.14 2.75 6.14 6.14v27.81a6.14 6.14 0 0 1-6.14 6.144m0 0"/><path fill="#fc4e51" d="M8 274.11h138.367v136.257H8zm0 0"/><path fill="#ea3942" d="M88.93 274.11h57.437v136.257H88.93zm0 0"/><path fill="#a0e557" d="M117.762 341.863c0 22.41-18.168 40.578-40.578 40.578s-40.579-18.168-40.579-40.578 18.168-40.578 40.579-40.578 40.578 18.168 40.578 40.578m0 0"/><path d="M29.105 341.863c0 26.508 21.57 48.078 48.079 48.078 26.511 0 48.078-21.57 48.078-48.078 0-26.511-21.567-48.078-48.078-48.078-26.508 0-48.079 21.567-48.079 48.078m48.079-33.078c18.242 0 33.078 14.836 33.078 33.078 0 18.239-14.84 33.078-33.078 33.078s-33.079-14.84-33.079-33.078c0-18.242 14.84-33.078 33.079-33.078m0 0"/><path d="m113.195 133.66-1.71-79.289c5.394-1.82 9.296-6.918 9.296-12.918V13.641c0-7.524-6.12-13.641-13.64-13.641H47.227c-7.52 0-13.641 6.117-13.641 13.64v27.81c0 6.003 3.902 11.1 9.297 12.917l-1.711 79.293c-.406 18.852-7.05 37.39-18.719 52.2C8.297 203.84.5 226.343.5 249.226v236.718C.5 500.313 12.188 512 26.555 512h101.258c14.367 0 26.054-11.687 26.054-26.055V249.227c0-22.883-7.797-45.387-21.953-63.368-11.668-14.808-18.312-33.347-18.719-52.199M48.585 15h57.196v25.094H48.586zM97.18 86.664H57.187l.684-31.574H96.5zm41.691 399.281c0 6.094-4.96 11.055-11.059 11.055H26.555c-6.098 0-11.055-4.96-11.055-11.055v-68.082h123.371zm0-219.336H65.914c-4.144 0-7.5 3.356-7.5 7.496s3.356 7.5 7.5 7.5h72.957v121.262H15.5V281.605h15.52a7.499 7.499 0 0 0 0-14.996H15.5v-17.382c0-19.532 6.652-38.743 18.738-54.086 13.668-17.356 21.453-39.075 21.93-61.157l.7-32.32h40.636l.695 32.32c.477 22.082 8.266 43.801 21.93 61.157 12.086 15.347 18.742 34.554 18.742 54.086zM317.012 158.773c0-9.125-4.836-17.289-12.27-21.492-1.586-11.894-11.414-21.082-23.27-21.082-3.867 0-7.64.992-11 2.852a22 22 0 0 0-2.34-.758c-1.644-11.82-11.44-20.934-23.245-20.934-7.649 0-14.684 3.891-19.032 10.137a23 23 0 0 0-1.93-.082c-10.769 0-19.972 7.629-22.683 18.082-3.996 2.195-7.289 5.543-9.5 9.652-10.058 2.809-17.379 12.372-17.379 23.723a13.85 13.85 0 0 0 1.13 5.383c-.005.148-.024.293-.024.445v14.988c0 41.262 4.687 82.575 13.93 122.782l1.199 5.234c11.043 48.043 15.964 84.871 15.964 119.422v39.129c0 .598-.113 1.176-.328 1.715-.035.07-.082.133-.113.207-.379.82-.957 1.5-1.672 1.965l-12.726 8.246a15.33 15.33 0 0 0-7.012 12.902v5.332c0 .414.023.844.062 1.277.02.223.043.438.07.657.009.062.012.12.02.183.02.125.047.242.067.367.043.262.082.528.136.786q.124.58.29 1.132c.003.016.011.028.015.043.102.34.227.668.352 1 .054.133.097.274.152.407.14.347.305.683.473 1.015.054.106.101.215.156.32.184.348.387.684.598 1.012.054.086.101.176.156.258.21.32.441.621.672.926.074.09.136.187.21.277.212.262.438.508.669.754.113.125.218.25.332.367.191.192.394.371.593.551.172.16.34.324.516.473.152.129.316.242.473.363.242.188.48.375.73.547.129.086.262.16.39.242.259.164.509.336.774.48l.035.024q.048.026.094.05c.23.126.469.24.77.384.191.093.386.183.566.261.219.09.441.176.68.262q.374.142.754.266c.25.074.507.14.734.195.25.07.5.133.727.18.011 0 .023.004.039.004.257.054.523.097.843.14.215.035.426.067.645.09q.032-.001.062.004c.254.023.516.039.801.05q.339.024.684.024.017.002.035.004h91.203q.018-.002.035-.004c.23 0 .457-.008.711-.023q.374-.017.754-.051c.031-.004.063-.004.098-.008a9 9 0 0 0 .64-.09c.293-.039.582-.082.836-.136h.004c.035-.008.07-.02.106-.028.195-.039.386-.086.562-.133.278-.066.55-.136.836-.226q.251-.076.508-.176c.305-.105.61-.215.875-.332a6 6 0 0 0 .387-.172c.117-.055.226-.12.343-.18.305-.148.606-.3.899-.464.199-.114.39-.235.586-.356q.351-.221.691-.46a16 16 0 0 0 1.832-1.52c.153-.149.297-.305.446-.457.207-.22.414-.442.609-.672.14-.164.266-.336.398-.508.18-.234.364-.465.532-.71.148-.22.28-.446.418-.673.128-.207.265-.414.382-.629a15 15 0 0 0 1.227-2.918q.008-.022.016-.047.165-.552.289-1.144c.054-.25.093-.504.136-.758.02-.133.051-.262.067-.398.011-.067.015-.125.023-.192.024-.21.05-.422.067-.636.039-.438.066-.864.066-1.278v-5.328c0-5.23-2.621-10.05-7.004-12.894q-.006-.007-.012-.008l-4.703-3.051-8.02-5.2c-.019-.011-.038-.034-.058-.046-.242-.18-.652-.602-1.066-1.246a9.067 9.067 0 0 1-.398-.719c-.348-.688-.59-1.395-.59-1.875v-39.129c0-34.547 4.921-71.375 15.964-119.422l1.203-5.234a549.2 549.2 0 0 0 13.926-122.781v-14.989c0-.152-.02-.297-.023-.445a13.9 13.9 0 0 0 1.125-5.34zm-119.57-9.453a7.5 7.5 0 0 0 6.761-5.27c.926-3 3.125-5.273 5.875-6.077a7.5 7.5 0 0 0 5.371-6.743c.301-4.945 4.024-8.816 8.477-8.816 1.023 0 2.027.207 2.988.61a7.496 7.496 0 0 0 10.016-4.5c1.234-3.63 4.504-6.165 7.957-6.165 4.683 0 8.492 4.246 8.492 9.465 0 .656-.063 1.305-.18 1.93a7.5 7.5 0 0 0 1.887 6.516 7.49 7.49 0 0 0 6.371 2.328c1.89-.223 3.738.246 5.332 1.355a7.5 7.5 0 0 0 9.34-.625c1.523-1.394 3.371-2.129 5.344-2.129 4.683 0 8.496 4.246 8.496 9.461q0 .488-.047.969a7.5 7.5 0 0 0 5.547 7.937c1.867.496 3.48 1.692 4.64 3.29H191.227c1.472-2.043 3.687-3.399 6.214-3.536m90.742 339.512 3.312 2.145a.4.4 0 0 1 .125.136l.047.18v5.281l-.012.11-.011.062a.5.5 0 0 1-.063.11q-.005 0-.004.007a.5.5 0 0 1-.129.098l-.308.039h-90.899l-.172-.012-.183-.054q-.016-.007-.032-.02a.4.4 0 0 1-.132-.242l-.012-5.379c0-.129.062-.246.172-.316l12.726-8.25c.395-.258.778-.532 1.153-.813q.097-.075.195-.152.486-.375.95-.785.052-.048.105-.094a19 19 0 0 0 2.011-2.07h57.493c.035.042.074.082.109.125.246.3.5.597.762.882.097.106.195.207.293.313q.325.338.664.66.17.164.347.32.342.309.696.594c.11.09.218.184.332.27.316.246.64.472.969.691.027.02.054.043.085.059zm12.722-309.14c0 4.16-.058 8.32-.156 12.48h-65.445a7.5 7.5 0 1 0 0 15h64.879a534.4 534.4 0 0 1-12.82 91.941l-1.204 5.235c-11.305 49.191-16.344 87.058-16.344 122.78v36.688h-48.253V427.13c0-35.727-5.043-73.594-16.344-122.781l-1.203-5.235a534 534 0 0 1-12.825-91.941h9.22c4.14 0 7.5-3.36 7.5-7.5s-3.36-7.5-7.5-7.5h-9.782c-.098-4.16-.16-8.32-.16-12.48v-11.833h110.437zm0 0"/></svg>