<svg xmlns="http://www.w3.org/2000/svg" viewBox="1 -88 511.999 511"><path fill="#d87e35" d="M391.438 143.746c12.828 39.418 72.347 28.145 72.347 66.047 0 34.621-106.793 56.09-141.492 57.875l-144.656 2.687c-92.676 0-159.824-25.27-159.824-101.214S86.316 10.957 184.273 10.957c92.516 0 183.559 60.27 207.165 132.79m0 0"/><path fill="#c67030" d="M428.086 175.531c-6.215-2.601-13.441-1.246-18.16 3.563-24.914 25.375-104.836 40.742-133.965 42.242l-144.656 2.687c-42.328 0-79.325-5.273-107.035-18.238 18.894 47.672 77.593 64.57 153.367 64.57l144.656-2.687c34.7-1.79 141.492-23.254 141.492-57.875 0-20.602-17.586-26.68-35.7-34.262m0 0"/><path fill="#e2e2e2" d="M434.594 15.48c-5.121 6.957-4.125 15.38-2.406 21.196a10.95 10.95 0 0 1-4.043 11.972L363.89 95.203c-7.82 5.668-9.536 16.621-3.817 24.41 5.715 7.785 16.68 9.43 24.434 3.664l63.66-47.359a10.95 10.95 0 0 1 12.633-.273c5.031 3.382 12.773 6.855 20.941 4.054 10.707-3.668 15.219-15.547 10.711-25.926-3.539-8.156-11.148-12.535-18.883-12.535-1.664 0-3.082-.832-3.96-2.05-.9-1.204-1.266-2.805-.77-4.391 2.316-7.383.418-15.953-6.305-21.774-8.555-7.406-21.238-6.66-27.941 2.457m0 0"/><path fill="#e88c38" d="M198.59 238.176c26.668 36.32 79.453 42.879 117.906 14.644 18.09-13.28 29.074-31.379 35.977-52.894 9.168-28.578 22.597-51.613 45.011-72.18 5.672-5.207 6.727-13.539 2.422-19.406l-17.148-23.356c-4.309-5.863-12.574-7.355-19.238-3.504-26.34 15.23-52.34 21.145-82.352 21.332-22.59.141-43.148 5.204-61.242 18.485-38.45 28.23-48.004 80.558-21.336 116.879m0 0"/><path fill="#d38231" d="m399.906 108.34-17.152-23.356c-1.383-1.886-4.02-2.836-6.98-3.242-7.93-1.09-15.805 2.176-21.079 8.195-17.945 20.504-35.308 47.403-42.472 69.743-6.903 21.511-17.887 39.613-35.98 52.894-26.36 19.356-59.454 22.352-86.255 10.625a77.2 77.2 0 0 0 8.602 14.977c26.664 36.32 79.453 42.879 117.902 14.644 18.094-13.28 29.078-31.379 35.98-52.894 9.165-28.578 22.594-51.613 45.012-72.18 5.672-5.207 6.727-13.539 2.422-19.406m0 0"/><path fill="#e2e2e2" d="M490.594 264.602H21.406c-7.68 0-13.906 6.226-13.906 13.906 0 7.683 6.227 13.91 13.906 13.91h27.196a8.53 8.53 0 0 1 7.898 5.305l4.762 11.656a28.98 28.98 0 0 0 26.828 18.02h335.82a28.98 28.98 0 0 0 26.828-18.02l4.758-11.656a8.54 8.54 0 0 1 7.902-5.305h27.196c7.68 0 13.906-6.227 13.906-13.91 0-7.68-6.227-13.906-13.906-13.906m0 0"/><path fill="#d8d6d4" d="M490.594 264.602h-43.258c0 15.363-12.453 27.816-27.816 27.816h-.336a27.82 27.82 0 0 0-25.75 17.297l-3.395 8.312a15.07 15.07 0 0 1-13.953 9.371h47.824a28.98 28.98 0 0 0 26.828-18.02l4.758-11.655a8.54 8.54 0 0 1 7.902-5.305h27.196c7.68 0 13.906-6.227 13.906-13.91 0-7.68-6.227-13.906-13.906-13.906m0 0"/><path d="M490.594 257.102H411.68a253 253 0 0 0 14.093-5.137c30.2-12.07 45.512-26.258 45.512-42.172 0-24.461-19.816-32.68-37.3-39.926-7.493-3.105-15.235-6.32-21.579-10.683-3.414-2.344-8.086-1.48-10.43 1.93a7.5 7.5 0 0 0 1.93 10.429c7.64 5.258 16.13 8.777 24.332 12.18 17.914 7.425 28.047 12.297 28.047 26.07 0 8.785-13.148 19.078-36.078 28.246-27.473 10.98-59.355 16.93-72.406 19.063h-24.563c16.825-13.122 28.746-31.094 36.375-54.883 9.29-28.953 22.532-50.219 42.946-68.95 5.664-5.199 8.183-12.539 7.3-19.503l42.774-31.82c1.164-.864 2.765-.895 3.988-.075 9.266 6.223 18.797 7.926 27.559 4.922 6.91-2.367 12.324-7.32 15.25-13.95 3.035-6.882 3.004-14.921-.094-22.058-4.059-9.351-12.7-15.715-22.555-16.86 1.86-9.745-1.629-19.898-9.336-26.57-5.879-5.09-13.539-7.53-21.02-6.695-7.195.805-13.542 4.492-17.874 10.375-5.488 7.461-6.719 17.063-3.555 27.766.418 1.41-.09 2.93-1.25 3.773l-43.183 31.29c-6.383-2.927-14.141-2.723-20.797 1.124-23.985 13.867-48.239 20.133-78.645 20.325-26.113.164-47.582 6.683-65.633 19.94-20.148 14.79-33.652 36.138-38.027 60.102-4.402 24.13.953 48.016 15.082 67.258a84.9 84.9 0 0 0 13.527 14.489h-94.996c-57.71-11.625-85.765-40.403-85.765-87.961 0-36.184 16.168-73.48 44.363-102.328 30.473-31.184 71.176-48.356 114.601-48.356 49.75 0 101.47 18.148 141.899 49.793a7.497 7.497 0 0 0 10.527-1.285 7.497 7.497 0 0 0-1.281-10.528c-43.016-33.667-98.106-52.98-151.145-52.98-47.5 0-92.007 18.777-125.328 52.871-30.91 31.625-48.636 72.746-48.636 112.813 0 40.62 17.941 70.058 53.406 87.96H21.406C9.602 257.102 0 266.704 0 278.509s9.602 21.41 21.406 21.41h27.196c.421 0 .796.25.957.64l4.761 11.657c5.63 13.781 18.883 22.683 33.77 22.683h335.82c14.887 0 28.14-8.902 33.77-22.683l4.761-11.652c.16-.391.536-.645.957-.645h27.196c11.8 0 21.406-9.605 21.406-21.41 0-11.801-9.602-21.406-21.406-21.406M432.559 54.71c6.289-4.578 9.03-12.68 6.82-20.164-1.242-4.203-2.035-10.156 1.254-14.625 2.332-3.172 5.344-4.117 7.46-4.356 3.34-.37 6.81.77 9.536 3.13 4.871 4.218 5.289 9.921 4.055 13.85-1.18 3.759-.477 7.895 1.882 11.083 2.332 3.2 6.067 5.105 10 5.105h.004c4.121 0 9.438 2.11 12.004 8.024 1.434 3.304 1.485 6.965.13 10.031-.86 1.945-2.669 4.535-6.392 5.813-5.246 1.796-10.69-.739-14.332-3.184-6.472-4.348-15.023-4.16-21.289.48l-40.554 30.168-11.524-15.691zM204.637 233.738c-11.664-15.886-16.075-35.664-12.418-55.687 3.683-20.184 15.101-38.196 32.144-50.707 15.414-11.32 34.012-16.89 56.852-17.031 33.156-.211 59.695-7.098 86.058-22.34 2.903-1.676 6.332-1.43 8.516.457.031.027.063.05.094.078.3.273.582.578.828.914l17.148 23.36c.239.323.453.687.63 1.081l.023.04c1.18 2.66.39 6.034-2.098 8.316-22.434 20.586-36.957 43.847-47.082 75.418-6.977 21.75-17.863 37.824-33.277 49.14a83.7 83.7 0 0 1-18.64 10.325h-58.919c-11.973-4.977-22.273-13.032-29.86-23.364m285.957 51.18H159.945a7.5 7.5 0 1 0 0 15H446.5l-2.703 6.625a21.4 21.4 0 0 1-19.887 13.355H88.09a21.4 21.4 0 0 1-19.887-13.355l-2.703-6.625h59.55a7.5 7.5 0 1 0 0-15H21.407a6.413 6.413 0 0 1-6.406-6.41 6.41 6.41 0 0 1 6.406-6.406h469.188a6.415 6.415 0 0 1 6.406 6.406c0 3.535-2.875 6.41-6.406 6.41m0 0"/></svg>