<svg xmlns="http://www.w3.org/2000/svg" viewBox="0 -31 512 511"><path fill="#464c50" d="M282.379 75.348H136.918V31.773c0-13.125 10.64-23.765 23.77-23.765h97.925c13.125 0 23.77 10.64 23.77 23.765v43.575zm0 0"/><path fill="#31363b" d="M258.61 8.008h-51.465c9.671 0 17.515 7.84 17.515 17.515v49.825h57.719V31.773c0-13.125-10.64-23.765-23.77-23.765m0 0"/><path fill="#e2e2e2" d="m500.918 257.633-45.227-112.344c-9.628-23.918-36.921-35.543-60.84-25.914l-63.433 25.535 13.168 42.707 24.617-19.613a138.9 138.9 0 0 1 34.684-20.215l2.07-.832c8.707-3.508 18.645.727 22.152 9.434L473.641 269.5c1.757 4.36 1.648 9.156-.313 13.445-1.875 4.106-5.414 7.211-9.598 8.899l-2.796 1.125a314 314 0 0 1-47.243 14.808l-31.097 7.118 12.531 36.62 80.188-32.28c11.613-4.676 20.703-13.606 25.59-25.137 4.921-11.614 4.726-24.766.015-36.465m0 0"/><path fill="#e2e2e2" d="M365.059 441.895H68.309c-40.883 0-70.094-39.575-58.047-78.641L90.453 103.18h252.461l80.191 260.074c12.047 39.066-17.164 78.64-58.046 78.64m0 0"/><path fill="#d8d6d4" d="m423.105 363.254-80.19-260.074h-56.052l80.192 260.074c12.047 39.07-17.164 78.644-58.047 78.644h56.05c40.883-.003 70.094-39.578 58.047-78.644m0 0"/><path fill="#464c50" d="M293.453 130.48H135.016c-11.282 0-20.426-9.144-20.426-20.425V88.94h199.289v21.114c0 11.28-9.145 20.425-20.426 20.425m0 0"/><path fill="#31363b" d="M256.023 88.941v28.743c0 7.066-5.73 12.796-12.796 12.796h50.23c11.277 0 20.426-9.144 20.426-20.425V88.94zm0 0"/><path fill="#e2e2e2" d="m59.898 68.938 2.625 1.609c24.098 13.14 27.93 32.633 27.93 32.633h252.461l17.473-44.68c.785-2.004-.696-4.172-2.848-4.172H64.023c-7.957 0-10.906 10.445-4.125 14.61m0 0"/><path fill="#d8d6d4" d="M357.54 54.328h-55.388c2.153 0 3.633 2.168 2.848 4.172l-17.473 44.68h55.387l17.473-44.68c.785-2.004-.696-4.172-2.848-4.172m0 0"/><path fill="#464c50" d="M10.262 363.254c-12.047 39.066 17.164 78.64 58.047 78.64h296.75c40.882 0 70.093-39.574 58.046-78.64l-42.5-137.832H52.762zm0 0"/><path fill="#31363b" d="M309.008 441.895h56.05c34.497 0 60.68-28.172 60.786-60.446.02-5.972-.856-12.09-2.739-18.195l-42.5-137.832h-56.05l42.5 137.832c12.047 39.066-17.164 78.64-58.047 78.64m0 0"/><path d="m507.883 254.828-45.23-112.344c-5.403-13.425-15.731-23.953-29.083-29.64-13.347-5.688-28.093-5.84-41.52-.434l-34.19 13.766-7-22.703 16.519-42.239a10.56 10.56 0 0 0-1.117-9.804 10.55 10.55 0 0 0-8.723-4.61h-67.652V31.773C289.887 14.531 275.855.5 258.613.5h-97.926c-17.246 0-31.277 14.031-31.277 31.273V46.82H64.023c-6.964 0-12.918 4.508-14.812 11.211-1.895 6.707.824 13.66 6.762 17.301l2.625 1.613q.162.1.332.192c16.882 9.207 22.273 21.582 23.707 25.922L3.09 361.039C1.074 367.58.055 374.234.004 380.83c-.117 14.51 4.453 28.745 13.394 40.855 13 17.617 33.016 27.718 54.91 27.718h296.75c21.895 0 41.907-10.101 54.91-27.718 8.938-12.11 13.509-26.344 13.395-40.856-.05-6.594-1.07-13.25-3.086-19.785l-4.273-13.867 52.11-20.977c13.48-5.43 24.027-15.789 29.698-29.172 5.56-13.117 5.583-28.496.07-42.199M144.422 31.773c0-8.964 7.297-16.261 16.262-16.261h97.925c8.97 0 16.266 7.297 16.266 16.261V46.82H144.422zM66.293 64.051l-2.469-1.512c-.136-.086-.18-.14-.183-.14-.047-.126.047-.458.148-.536 0 0 .063-.027.234-.027h287l-13.234 33.84H170.301a7.504 7.504 0 0 0-7.508 7.504 7.505 7.505 0 0 0 7.508 7.507h136.043c-.336 6.829-5.98 12.286-12.887 12.286H135.016c-6.91 0-12.551-5.457-12.887-12.285h12.621a7.504 7.504 0 0 0 7.504-7.508 7.504 7.504 0 0 0-7.504-7.504H95.867c-3.18-7.793-11.086-21.485-29.574-31.625m341.598 348.715c-10.141 13.742-25.754 21.625-42.832 21.625H68.309a54 54 0 0 1-3.184-.094c-15.824-.914-30.14-8.649-39.648-21.527-6.973-9.45-10.54-20.551-10.45-31.868.012-1.468.11-2.937.243-4.406q.11-1.236.277-2.473a54.7 54.7 0 0 1 1.887-8.558L58.3 232.93h227.094a7.504 7.504 0 0 0 7.503-7.508 7.507 7.507 0 0 0-7.503-7.508H62.93l33.062-107.226h11.11c.335 15.109 12.726 27.3 27.914 27.3h158.437c15.192 0 27.578-12.191 27.918-27.3h16.004l33.063 107.226H320.32a7.508 7.508 0 1 0 0 15.016h54.746l40.868 132.535a53.8 53.8 0 0 1 2.406 15.437c.09 11.317-3.477 22.418-10.45 31.864m-35.063-238.051 1.05-.84c9.962-7.934 21-14.367 32.813-19.121l2.07-.832c2.348-.95 4.934-.918 7.282.078a9.45 9.45 0 0 1 5.102 5.195l45.53 113.11a9.46 9.46 0 0 1-.175 7.523c-1 2.188-3.031 4.027-5.574 5.05l-2.797 1.13a307.5 307.5 0 0 1-46.113 14.453l-.387.09zm121.16 116.453c-4.101 9.684-11.73 17.176-21.48 21.102l-50.945 20.507-5.5-17.84a322.3 322.3 0 0 0 47.671-15.003l2.797-1.125c6.164-2.48 11.004-7.008 13.625-12.739 2.828-6.191 2.989-13.07.45-19.37L435.07 153.59c-2.441-6.07-7.113-10.832-13.144-13.403-6.035-2.57-12.7-2.636-18.774-.195l-2.066.832a146.5 146.5 0 0 0-32.988 18.551L362.3 140.57l35.355-14.234c9.707-3.906 20.375-3.793 30.031.32 9.66 4.117 17.133 11.73 21.04 21.438l45.23 112.343c4.04 10.043 4.055 21.247.031 30.731m0 0"/></svg>