<svg xmlns="http://www.w3.org/2000/svg" viewBox="0 0 512 512"><path fill="#6d7275" d="M410.855 472.75h-309.71L64 153.52h384zm0 0"/><path fill="#606568" d="m390 153.52-37.145 319.23h58L448 153.52zm0 0"/><path fill="#d8d6d4" d="M300.379 207.855h90.61v27.5h-90.61zm0 0"/><path fill="#464c50" d="M468.46 504.168H43.54c-19.903 0-36.04-16.137-36.04-36.04 0-9.05 7.336-16.386 16.387-16.386h464.226c9.051 0 16.387 7.336 16.387 16.387 0 19.902-16.137 36.039-36.04 36.039m0 0"/><path fill="#31363b" d="M488.113 451.742h-41.668v21.375c0 17.149-13.898 31.051-31.05 31.051h53.066c19.902 0 36.039-16.137 36.039-36.04 0-9.05-7.336-16.386-16.387-16.386m0 0"/><g fill="#e2e2e2"><path d="M232.879 283.188h-5.418c-6.328 0-11.461-5.13-11.461-11.461V235.52h28.34v36.207c0 6.328-5.13 11.46-11.461 11.46M284.54 283.188h-5.419c-6.332 0-11.46-5.13-11.46-11.461V235.52H296v36.207c0 6.328-5.133 11.46-11.46 11.46m0 0"/><path d="M289.145 252.992h-66.29c-20.171 0-36.523-16.351-36.523-36.523v-65.614h139.332v65.614c.004 20.172-16.348 36.523-36.52 36.523m0 0"/></g><path fill="#c9c9c9" d="M268 150.855v65.614c0 20.172-16.352 36.523-36.523 36.523h57.668c20.171 0 36.523-16.351 36.523-36.523v-65.614zm0 0"/><path fill="#464c50" d="M470.473 178.355H41.527c-18.793 0-34.027-15.238-34.027-34.03V41.526C7.5 22.734 22.734 7.5 41.527 7.5h428.946c18.793 0 34.027 15.234 34.027 34.027v102.801c0 18.793-15.234 34.027-34.027 34.027m0 0"/><path fill="#31363b" d="M470.473 7.5h-45.43c11.82 0 21.402 9.582 21.402 21.402v128.051c0 11.82-9.582 21.402-21.402 21.402h45.43c18.793 0 34.027-15.238 34.027-34.03V41.526c0-18.793-15.234-34.027-34.027-34.027m0 0"/><path fill="#d87e35" d="M496.434 242.895H372.27a8.07 8.07 0 0 1-8.07-8.07v-26.442a8.07 8.07 0 0 1 8.07-8.07h124.164a8.07 8.07 0 0 1 8.066 8.07v26.441a8.07 8.07 0 0 1-8.066 8.07m0 0"/><path fill="#dfede7" d="M168.57 330.688c-.691 20.949.082 99.304 54.895 121.054h65.07c54.813-21.75 55.59-100.105 54.895-121.055a2.736 2.736 0 0 0-2.735-2.648h-169.39a2.736 2.736 0 0 0-2.735 2.649m0 0"/><path fill="#d7e0dc" d="M343.43 330.688a2.736 2.736 0 0 0-2.735-2.649h-57.668a2.736 2.736 0 0 1 2.735 2.649c.695 20.949-.082 99.304-54.895 121.054h57.668c54.813-21.75 55.59-100.105 54.895-121.055m0 0"/><path fill="#cdd3d1" d="M306.613 418.262c-8.82 2.832-18.539 4.187-28.324 4.187h-44.527c-10.403 0-20.711-1.558-29.977-4.715-11.484-3.918-19.273-9.113-24.555-14.586 7.872 20.536 21.336 39.504 44.239 48.594h65.066c22.899-9.09 36.363-28.055 44.235-48.59-5.524 5.727-13.79 11.145-26.157 15.11m0 0"/><path fill="#c9c9c9" d="M306.613 418.262c-8.82 2.832-18.539 4.187-28.324 4.187h-12.797c-8.039 12.555-19.191 23.168-34.625 29.293h57.668a74 74 0 0 0 2.348-.984q.368-.167.73-.332a64 64 0 0 0 1.563-.727q.416-.2.828-.41.715-.351 1.418-.726l.816-.434q.72-.399 1.43-.809c.234-.132.477-.265.707-.406.629-.371 1.246-.75 1.86-1.14.066-.044.136-.083.202-.126q1.007-.645 1.977-1.32c.227-.152.445-.312.664-.473q.644-.45 1.27-.914.382-.286.757-.574c.38-.289.754-.586 1.13-.883q.379-.3.753-.605.557-.462 1.102-.93c.234-.199.469-.394.7-.597q.642-.563 1.26-1.137c.18-.168.364-.332.544-.5.52-.488 1.027-.98 1.531-1.48q.344-.347.684-.7c.308-.316.62-.633.921-.957q.374-.394.735-.793.411-.447.816-.898.375-.422.739-.848c.257-.293.507-.594.757-.89.246-.294.489-.583.73-.876.247-.304.485-.613.727-.918.442-.554.871-1.12 1.297-1.687.215-.29.434-.574.649-.863.254-.352.5-.703.75-1.059q.276-.392.554-.789.374-.544.743-1.102c.168-.253.34-.507.503-.761a72 72 0 0 0 1.184-1.864c.25-.41.504-.816.746-1.226.106-.168.203-.344.305-.516a98 98 0 0 0 2.59-4.687c.074-.137.144-.278.218-.414q.371-.733.735-1.465c.082-.172.168-.344.25-.516.242-.492.476-.984.71-1.48q.1-.218.204-.442a100 100 0 0 0 .726-1.601q.011-.018.016-.035a118 118 0 0 0 2.352-5.696c-5.52 5.723-13.786 11.141-26.153 15.11m0 0"/><path fill="#fccf3f" d="M303.074 92.926c0 26-21.078 47.074-47.074 47.074s-47.074-21.074-47.074-47.074c0-25.996 21.078-47.07 47.074-47.07s47.074 21.074 47.074 47.07m0 0"/><path fill="#efa335" d="M256 45.855c-3.59 0-7.082.415-10.441 1.176v91.793A47.2 47.2 0 0 0 256 140c25.996 0 47.074-21.074 47.074-47.07 0-26-21.078-47.075-47.074-47.075m0 0"/><path fill="#33d8dd" d="M159.355 120.262H52.915c-5.243 0-9.49-4.25-9.49-9.492V75.086c0-5.242 4.247-9.492 9.49-9.492h106.44a9.49 9.49 0 0 1 9.493 9.492v35.684c-.004 5.242-4.25 9.492-9.493 9.492m0 0"/><path fill="#25b9c0" d="M159.355 65.594H111.18v54.668h48.175c5.243 0 9.489-4.25 9.489-9.492V75.086c0-5.242-4.246-9.492-9.489-9.492m0 0"/><path fill="#e2e2e2" d="M390.148 92.926c0 15.097-12.238 27.336-27.332 27.336-15.097 0-27.332-12.239-27.332-27.336 0-15.094 12.235-27.332 27.332-27.332 15.094 0 27.332 12.238 27.332 27.332M468.574 92.926c0 15.097-12.234 27.336-27.332 27.336-15.094 0-27.332-12.239-27.332-27.336 0-15.094 12.238-27.332 27.332-27.332 15.098 0 27.332 12.238 27.332 27.332m0 0"/><path d="m259.855 99.36 19.782-11.852a7.5 7.5 0 1 0-7.707-12.867l-19.785 11.851a7.503 7.503 0 0 0 3.863 13.938c1.312 0 2.64-.344 3.847-1.07m0 0"/><path d="M470.473 185.855c22.898 0 41.527-18.628 41.527-41.527v-102.8C512 18.627 493.371 0 470.473 0H41.527C18.63 0 0 18.629 0 41.527v102.797c0 22.899 18.629 41.531 41.527 41.531h18.684l30.066 258.387h-66.39C10.715 444.242 0 454.957 0 468.13c0 24.008 19.531 43.539 43.54 43.539h424.92c24.009 0 43.54-19.531 43.54-43.54 0-13.171-10.715-23.886-23.887-23.886h-66.386l2.625-22.57a7.496 7.496 0 0 0-6.582-8.317c-4.114-.48-7.836 2.47-8.317 6.583l-2.828 24.304h-92.062c35.765-32.375 37.042-93.324 36.367-113.804a10.2 10.2 0 0 0-10.235-9.899h-169.39a10.196 10.196 0 0 0-10.23 9.899c-.677 20.48.6 81.425 36.363 113.804h-92.06L75.314 185.855H93.73c4.141 0 7.5-3.359 7.5-7.5s-3.359-7.5-7.5-7.5H41.527C26.898 170.855 15 158.953 15 144.328v-102.8C15 26.901 26.898 15 41.527 15h428.946C485.098 15 497 26.898 497 41.527v102.797c0 14.63-11.898 26.531-26.527 26.531H128.629a7.497 7.497 0 0 0-7.5 7.5 7.5 7.5 0 0 0 7.5 7.5h50.207v30.614c0 19.246 12.422 35.636 29.664 41.605v13.653c0 10.453 8.508 18.96 18.96 18.96h5.423c10.453 0 18.96-8.507 18.96-18.96v-11.239h8.317v11.239c0 10.453 8.504 18.96 18.961 18.96h5.418c10.457 0 18.961-8.507 18.961-18.96v-13.653a44.2 44.2 0 0 0 20.86-15.219h34.597c2.73 4.508 7.668 7.54 13.313 7.54h56.91L413.516 385.02c-.48 4.113 2.468 7.835 6.582 8.316q.44.048.875.05a7.505 7.505 0 0 0 7.441-6.632l15.863-136.36h52.157c8.582 0 15.566-6.984 15.566-15.57v-26.441c0-8.586-6.984-15.57-15.566-15.57H450.98l.81-6.958zM175.969 335.54H336.03c.25 25.688-3.855 89.637-48.972 108.703H224.94c-45.12-19.07-49.222-83.015-48.972-108.703m312.144 123.703c4.903 0 8.887 3.985 8.887 8.887 0 15.734-12.805 28.539-28.54 28.539H43.54c-15.735 0-28.54-12.805-28.54-28.54 0-4.901 3.984-8.886 8.887-8.886zM236.84 271.727a3.966 3.966 0 0 1-3.961 3.96h-5.418a3.966 3.966 0 0 1-3.961-3.96v-11.235h13.34zm51.66 0a3.966 3.966 0 0 1-3.96 3.96h-5.419a3.966 3.966 0 0 1-3.96-3.96v-11.235H288.5zm29.668-55.258c0 16.004-13.02 29.023-29.023 29.023h-66.29c-16 0-29.02-13.02-29.02-29.023v-30.614h124.333zm38.531 11.386h-25.035a43.8 43.8 0 0 0 1.504-11.386v-1.114h23.531zm2.254-27.5h-25.789v-14.5h103.523l-.808 6.961h-63.613c-5.645-.004-10.582 3.028-13.313 7.54m137.48 7.458a.57.57 0 0 1 .567.57v26.441c0 .317-.254.57-.566.57H372.27a.567.567 0 0 1-.56-.511v-.008l-.01-.172V208.38c0-.313.253-.566.57-.566h70.304zm0 0"/><path d="M310.574 92.926c0-30.09-24.48-54.57-54.574-54.57s-54.574 24.48-54.574 54.57c0 30.094 24.48 54.574 54.574 54.574s54.574-24.48 54.574-54.574m-94.148 0c0-21.82 17.754-39.57 39.574-39.57s39.574 17.75 39.574 39.57S277.82 132.5 256 132.5s-39.574-17.754-39.574-39.574M176.344 110.77V75.086c0-9.371-7.621-16.992-16.989-16.992H52.915c-9.368 0-16.99 7.62-16.99 16.992v35.684c0 9.37 7.622 16.992 16.99 16.992h106.44c9.368 0 16.989-7.621 16.989-16.992m-125.422 0V75.086c0-1.098.894-1.992 1.992-1.992h106.441c1.098 0 1.989.894 1.989 1.992v35.684c0 1.097-.89 1.992-1.989 1.992H52.915a1.996 1.996 0 0 1-1.993-1.992M397.648 92.926c0-19.207-15.625-34.832-34.832-34.832s-34.832 15.625-34.832 34.832 15.625 34.836 34.832 34.836 34.832-15.63 34.832-34.836m-54.668 0c0-10.934 8.899-19.832 19.836-19.832 10.934 0 19.832 8.898 19.832 19.832 0 10.937-8.898 19.836-19.832 19.836-10.937 0-19.836-8.899-19.836-19.836M476.078 92.926c0-19.207-15.629-34.832-34.836-34.832S406.41 73.719 406.41 92.926s15.625 34.836 34.832 34.836 34.836-15.63 34.836-34.836m-54.668 0c0-10.934 8.899-19.832 19.832-19.832 10.938 0 19.832 8.898 19.832 19.832 0 10.937-8.894 19.836-19.832 19.836-10.933 0-19.832-8.899-19.832-19.836m0 0"/></svg>