<svg xmlns="http://www.w3.org/2000/svg" viewBox="0 -4 512.001 512"><path fill="#e88c38" d="m15.367 168.98-1.168-3.699a8.016 8.016 0 0 1 5.133-10.023L465.488 7.902a8.02 8.02 0 0 1 10.16 5.203l5.012 15.891c1.344 4.262-1.062 8.8-5.34 10.086l-450 135.168a8.017 8.017 0 0 1-9.953-5.27M21.793 189.77l.535 3.843c.606 4.344 4.586 7.399 8.938 6.852l466.222-58.383c4.434-.555 7.559-4.633 6.942-9.062l-2.293-16.5c-.617-4.426-4.735-7.497-9.153-6.82l-464.46 71.042c-4.337.66-7.333 4.684-6.731 9.028m0 0"/><g fill="#e2e2e2"><path d="M215.484 151.922c0-15.559 3.461-22.918 7.47-31.438 3.933-8.359 8.901-21.793 10.339-38.687.336-3.973-3.477-7.012-7.262-5.762l-12.336 4.078a5.53 5.53 0 0 0-3.78 4.801c-.872 11.04-3.845 17.375-7.204 24.52-4.652 9.882-9.922 21.086-9.922 42.488s5.27 32.605 9.918 42.488c4.008 8.52 7.469 15.88 7.469 31.442s-3.461 22.918-7.469 31.441c-4.648 9.883-9.918 21.086-9.918 42.488 0 6.754 5.082 12.227 11.348 12.227 6.27 0 11.347-5.473 11.347-12.227 0-15.562 3.461-22.918 7.47-31.437 4.648-9.887 9.917-21.09 9.917-42.492 0-21.403-5.27-32.606-9.918-42.493-4.008-8.52-7.469-15.875-7.469-31.437M164.77 151.922c0-15.559 3.464-22.918 7.468-31.438 2.696-5.722 5.59-11.906 7.551-20.25.996-4.234-2.992-7.937-7.121-6.574l-13.73 4.535a5.55 5.55 0 0 0-3.43 3.278c-1.055 2.73-2.258 5.289-3.512 7.96-4.648 9.883-9.918 21.087-9.918 42.489s5.27 32.605 9.918 42.488c4.008 8.52 7.469 15.88 7.469 31.442s-3.461 22.918-7.469 31.441c-4.648 9.883-9.918 21.086-9.918 42.488 0 6.754 5.078 12.227 11.348 12.227 6.265 0 11.344-5.473 11.344-12.227 0-15.562 3.464-22.918 7.468-31.437 4.649-9.887 9.918-21.09 9.918-42.492 0-21.403-5.27-32.606-9.918-42.493-4.004-8.52-7.468-15.875-7.468-31.437M114.059 151.922c0-15.559 3.46-22.918 7.468-31.438q.023-.052.051-.105c2.067-4.399-2.137-9.137-6.754-7.613l-15.078 4.98a5.5 5.5 0 0 0-3.465 3.344c-2.765 7.66-4.914 17.16-4.914 30.828 0 21.406 5.266 32.61 9.918 42.492 4.004 8.52 7.465 15.88 7.465 31.442s-3.46 22.918-7.465 31.437c-4.652 9.887-9.918 21.09-9.918 42.492 0 6.754 5.078 12.227 11.344 12.227 6.27 0 11.348-5.473 11.348-12.227 0-15.562 3.46-22.922 7.468-31.441 4.649-9.883 9.918-21.086 9.918-42.488s-5.27-32.61-9.918-42.493c-4.007-8.52-7.468-15.875-7.468-31.437M63.348 151.922c0-5.5.43-9.973 1.168-13.836.793-4.172-3.137-7.668-7.168-6.336l-12.36 4.082a5.56 5.56 0 0 0-3.777 4.723c-.356 3.449-.559 7.21-.559 11.367 0 21.402 5.27 32.605 9.918 42.492 4.008 8.52 7.47 15.875 7.47 31.438s-3.462 22.921-7.47 31.441c-4.648 9.883-9.918 21.086-9.918 42.492 0 6.75 5.082 12.223 11.348 12.223s11.348-5.473 11.348-12.223c0-15.566 3.46-22.922 7.468-31.441 4.649-9.887 9.918-21.09 9.918-42.492 0-21.403-5.27-32.606-9.918-42.489-4.011-8.523-7.468-15.879-7.468-31.441m0 0"/></g><path fill="#87a4f4" d="M11.824 279.742a4.33 4.33 0 0 0-4.312 4.766c4.449 44.5 23.898 126.332 104.18 177.488.624.399 1.3.7 2.003.914v17.285c0 8.496 6.887 15.383 15.383 15.383h195.254c8.496 0 15.383-6.887 15.383-15.383V462.88c.676-.211 1.324-.5 1.926-.883 80.28-51.156 99.73-132.988 104.18-177.488a4.33 4.33 0 0 0-4.313-4.766zm0 0"/><path fill="#7c9ce5" d="M441.508 279.742h-57.926a4.33 4.33 0 0 1 4.313 4.766c-4.45 44.5-23.899 126.332-104.18 177.488a8 8 0 0 1-1.926.883v17.316c0 8.496-6.887 15.383-15.383 15.383h57.926c8.496 0 15.383-6.887 15.383-15.383V462.88c.676-.211 1.324-.5 1.926-.883 80.277-51.156 99.73-132.988 104.18-177.488a4.33 4.33 0 0 0-4.313-4.766m0 0"/><path fill="#6b97d6" d="M339.715 480.195v-17.312H113.629c.023.008.043.02.066.027v17.285c0 8.496 6.887 15.383 15.383 15.383h195.254c8.496 0 15.383-6.89 15.383-15.383m0 0"/><path fill="#5884ba" d="M281.793 480.195c0 8.493-6.887 15.383-15.383 15.383h57.922c8.496 0 15.383-6.887 15.383-15.383v-17.312h-57.926v17.312zm0 0"/><path d="m511.848 131.988-2.293-16.5a15.38 15.38 0 0 0-6.094-10.297 15.37 15.37 0 0 0-11.613-2.894l-268.426 41.055c.941-8.25 3.3-13.29 6.308-19.676a105 105 0 0 0 1.56-3.473l246.183-73.945a15.42 15.42 0 0 0 9.246-7.598 15.4 15.4 0 0 0 1.082-11.918l-5.008-15.887a15.4 15.4 0 0 0-7.723-9.14 15.38 15.38 0 0 0-11.933-.922l-73.367 24.23a7.49 7.49 0 0 0 4.699 14.223l73.367-24.23a.5.5 0 0 1 .406.03c.2.099.246.259.262.31l5.012 15.89c.015.05.066.211-.04.406-.101.196-.261.243-.312.258l-235.902 70.856c.101-.38.187-.766.285-1.145.086-.348.172-.691.254-1.039q.223-.924.433-1.855l.258-1.176q.188-.879.36-1.758.14-.691.27-1.395.146-.793.288-1.59c.094-.542.184-1.093.27-1.644.043-.281.097-.562.14-.84l121.29-40.058a7.492 7.492 0 0 0-4.7-14.227L239.055 74.801a13.1 13.1 0 0 0-3.22-3.735 12.99 12.99 0 0 0-12.151-2.14L211.348 73a12.975 12.975 0 0 0-8.899 11.324 61 61 0 0 1-.273 2.656l-16.496 5.45a13 13 0 0 0-2.493-3.125 13.02 13.02 0 0 0-12.867-2.754l-13.73 4.535a12.99 12.99 0 0 0-8.063 7.68c-.922 2.375-2 4.691-3.058 6.941l-17.617 5.82a13 13 0 0 0-1.536-2.14 13.02 13.02 0 0 0-13.84-3.735l-15.081 4.98c-3.829 1.266-6.801 4.153-8.157 7.919a85 85 0 0 0-2.011 6.39l-16.848 5.567a13.2 13.2 0 0 0-2.719-3.305c-3.504-3.07-8.238-4.027-12.66-2.566l-12.36 4.082c-4.867 1.61-8.35 5.953-8.878 11.066q-.146 1.43-.262 2.903l-16.516 5.457c-8.011 2.644-12.464 11.343-9.93 19.39l1.169 3.7c1.355 4.304 4.46 7.6 8.289 9.378a15.43 15.43 0 0 0-2.137 10.188l.535 3.844c1.074 7.714 7.762 13.37 15.371 13.37q.949 0 1.914-.117l15.25-1.91c1.907 5.164 3.102 10.86 3.102 19.864 0 13.89-2.832 19.914-6.758 28.253-2.414 5.133-5.082 10.817-7.148 18.149H11.824a11.86 11.86 0 0 0-8.77 3.887 11.86 11.86 0 0 0-2.995 9.113c4.535 45.398 24.37 129.18 106.144 182.125v12.816c0 12.61 10.262 22.871 22.875 22.871h195.254c12.61 0 22.871-10.261 22.871-22.87v-12.872c81.7-52.945 101.531-136.691 106.067-182.074a11.84 11.84 0 0 0-3-9.11 11.84 11.84 0 0 0-8.762-3.886H229.395c.113-.242.218-.473.335-.723 4.735-10.07 10.633-22.601 10.633-45.68 0-20.972-4.87-33.234-9.312-42.855l267.367-33.484a15.39 15.39 0 0 0 10.379-5.953 15.37 15.37 0 0 0 3.05-11.57M22.508 166.73l-1.164-3.699a.53.53 0 0 1 .336-.66l11.648-3.848c.02.383.047.75.07 1.13q.022.345.043.69c.04.548.079 1.09.125 1.634q.001.043.008.09c.051.613.098 1.23.16 1.835l-10.57 3.176a.533.533 0 0 1-.656-.348m7.828 26.305a.535.535 0 0 1-.59-.453l-.531-3.844a.524.524 0 0 1 .441-.593l9.387-1.434c.031.086.066.168.102.258q.406 1.063.824 2.082c.047.113.09.23.14.344a93 93 0 0 0 .973 2.292zm173.91-67.969.012-.035a84 84 0 0 1 2.52-6.484q.001-.005.003-.016c.887-2.043 1.805-3.992 2.707-5.91.094-.203.192-.41.285-.613q.219-.464.438-.934c.11-.23.215-.46.324-.695.27-.586.543-1.176.809-1.774q.051-.118.11-.242c.237-.539.476-1.09.714-1.644q.103-.24.207-.489.387-.924.762-1.882c.058-.145.11-.293.168-.438q.298-.785.586-1.594.106-.31.218-.625a57 57 0 0 0 .848-2.683 74 74 0 0 0 .434-1.551q.1-.386.203-.777.264-1.06.5-2.18c.023-.11.05-.207.074-.32.012-.047.012-.094.023-.145a69 69 0 0 0 1.075-7.215l8.265-2.73c-.12 1.047-.25 2.094-.402 3.137-.024.171-.05.335-.074.503-.137.91-.282 1.813-.442 2.72q-.064.38-.133.757c-.19 1.043-.39 2.086-.609 3.121q-.02.083-.039.164c-.207.965-.43 1.922-.664 2.88l-.223.898c-.238.94-.484 1.878-.746 2.812q-.046.167-.094.332-.415 1.44-.867 2.875a115.678 115.678 0 0 1-1.281 3.813 93 93 0 0 1-1.203 3.203q-.004.016-.008.03a102 102 0 0 1-2.57 5.962c-4.207 8.941-8.18 17.387-8.18 34.621 0 .082.004.152.004.23v.012q.002 1.298.04 2.54c.01.542.038 1.062.058 1.59.015.308.027.62.043.925q.047.907.113 1.785.018.205.031.41c.43 5.473 1.328 9.942 2.504 13.863q.018.07.043.141a62 62 0 0 0 1.328 3.926c1.219 3.246 2.602 6.203 4.016 9.21 4.527 9.622 9.207 19.575 9.207 39.302 0 19.73-4.68 29.68-9.207 39.304-1.07 2.281-2.168 4.606-3.184 7.098h-8.508c1.512-4.348 3.278-8.098 5.004-11.774 4.207-8.94 8.18-17.39 8.18-34.628 0-17.235-3.973-25.684-8.18-34.63-1.992-4.23-4.011-8.53-5.648-13.69l-.012-.04c-2.105-6.66-3.25-13.89-3.492-22.11q-.002-.012-.004-.03c-.031-1.11-.047-2.25-.047-3.43-.004-11.758 1.66-20.043 3.961-26.856M179.02 271.531c4.734-10.07 10.628-22.601 10.628-45.68 0-16.855-3.144-28.081-6.683-36.835l8.691-1.086c1.406 3.566 2.89 6.726 4.274 9.672 3.925 8.335 6.757 14.359 6.757 28.25s-2.832 19.914-6.757 28.253c-2.414 5.133-5.082 10.817-7.145 18.149h-10.101c.113-.246.218-.477.336-.723m-2.485-96.808c-.05-.121-.105-.243-.156-.368a62 62 0 0 1-.781-1.945q-.302-.78-.578-1.582c-.047-.129-.09-.262-.133-.39a46 46 0 0 1-1.219-4.32l12.246-1.872c.012.09.027.176.035.266q.229 2.121.528 4.101.029.211.062.422.322 2.08.715 4.012c.02.11.035.223.055.328zm8.785-66.399 11.403-3.765a8 8 0 0 0-.121.254q-.252.55-.516 1.101-.075.164-.156.332c-1.086 2.305-2.23 4.746-3.352 7.41-.027.059-.05.117-.078.18-.34.82-.684 1.66-1.02 2.523l-.07.184-10.55 3.168c1.535-3.379 3.09-7.086 4.46-11.387M173.71 137.5l13.028-3.914c-.773 4.586-1.281 9.738-1.406 15.594l-13.062 1.996c.046-5.63.562-9.957 1.44-13.676m-23.476 2.402.012-.05c.902-7.543 2.625-13.344 4.594-18.348l.066-.172c.332-.836.672-1.652 1.012-2.45.059-.132.113-.26.172-.394q.171-.397.344-.789c.058-.125.113-.258.171-.383.16-.363.325-.722.485-1.078l.117-.246q.205-.451.41-.898.579-1.243 1.156-2.473c1.079-2.289 2.29-4.86 3.391-7.601l9.422-3.114c-1.711 5.918-3.945 10.758-5.969 15.059-.05.113-.105.222-.156.336-.07.14-.133.281-.2.426q-.239.498-.472 1.007-.2.424-.398.852-.141.303-.282.613-.262.57-.52 1.145-.058.124-.112.254c-3.391 7.574-6.196 15.847-6.196 30.32 0 3.133.133 5.965.375 8.574v.047q.004.031.008.055c.035.37.078.719.117 1.078.043.406.086.816.133 1.21.066.516.137 1.016.211 1.513.023.175.05.355.078.53.875 5.68 2.305 10.196 3.98 14.31.06.14.114.285.172.421.07.176.145.344.22.516q.257.626.527 1.234c.035.078.066.156.101.235a194 194 0 0 0 2.016 4.39c.082.172.16.344.242.512 4.527 9.625 9.207 19.574 9.207 39.305 0 19.734-4.68 29.683-9.207 39.304-1.074 2.282-2.168 4.606-3.188 7.098h-8.507c1.515-4.348 3.277-8.098 5.004-11.773 4.207-8.942 8.183-17.387 8.183-34.63 0-17.238-3.973-25.683-8.18-34.628-1.242-2.637-2.496-5.305-3.66-8.188q.001-.006-.004-.011c-2.714-6.723-4.265-13.047-5.027-20.5l-.012-.07c-.324-3.184-.504-6.669-.504-10.532 0-4.469.243-8.438.668-12.016m-5.015 57.7c3.922 8.335 6.754 14.359 6.754 28.25s-2.832 19.914-6.754 28.253c-2.414 5.133-5.086 10.82-7.149 18.149H127.97c.113-.246.222-.477.336-.723 4.738-10.07 10.632-22.605 10.632-45.68 0-13.203-1.93-22.949-4.468-30.761l9.054-1.133c.57 1.254 1.141 2.469 1.696 3.645m-18.465-20.77-.02-.035a89 89 0 0 1-1.414-3.285l10.973-1.676c.023.125.055.246.078.375.211 1.101.438 2.176.676 3.215q.084.35.168.707.386 1.622.812 3.144c.024.086.043.176.067.262l-9.528 1.191q-.13-.282-.261-.558-.022-.047-.043-.094c-.52-1.105-1.028-2.183-1.508-3.246m-.344-49.05 11.805-3.9c-.285.977-.55 2-.809 3.04l-.058.223a87 87 0 0 0-.946 4.324c-.015.086-.03.176-.05.261-.09.477-.18.942-.266 1.43l-12.973 3.895c.82-3.325 1.938-6.223 3.297-9.274m8.207 21.46a129.029 129.029 0 0 0 .07 7.684l-12.855 1.965a78 78 0 0 1-.266-5.73zm-19.816-32.05.129.062-.063.098-.113-.051a.5.5 0 0 1 .047-.11M98.883 149.39c.012-.504.031-.989.047-1.477.011-.3.02-.61.03-.906.028-.59.06-1.16.095-1.727l.03-.547q.062-.9.134-1.761l.035-.414q.08-.89.172-1.739.016-.166.039-.332c.18-1.601.394-3.093.629-4.496.058-.34.113-.68.176-1.015q.075-.41.152-.805c.101-.516.203-1.027.316-1.54a68 68 0 0 1 2.258-8.073l9.899-3.27c-3.45 7.66-6.329 15.961-6.329 30.633 0 14.719 2.899 23.027 6.364 30.71l.011.024c.293.64.582 1.281.88 1.918q.015.032.03.063.442.954.895 1.91.045.098.09.191a776 776 0 0 1 1.137 2.438q.61 1.317 1.214 2.687h.004c3.621 8.235 6.762 17.832 6.762 33.989 0 19.726-4.683 29.68-9.207 39.304-1.074 2.278-2.168 4.606-3.187 7.094h-8.508c1.515-4.348 3.277-8.098 5.008-11.773 4.207-8.942 8.18-17.391 8.18-34.625s-3.973-25.684-8.184-34.63c-.39-.835-.785-1.675-1.176-2.519q.001-.002-.004-.004a154 154 0 0 1-.863-1.894q-.012-.031-.024-.055c-2.082-4.633-4.25-10.148-5.613-17.285l-.023-.082c-.82-4.332-1.36-9.278-1.473-15.113v-.012c-.016-.766-.027-1.543-.027-2.34q.003-1.279.03-2.527m-3.278 50.566c3.34 7.215 5.657 13.348 5.657 25.895 0 13.89-2.836 19.914-6.758 28.253-2.414 5.133-5.082 10.817-7.149 18.149H77.254c.117-.242.223-.473.34-.723 4.734-10.07 10.629-22.601 10.629-45.68 0-9.956-1.098-17.949-2.727-24.628zm-8.285-20.633c.024.086.051.164.075.246q.42 1.488.87 2.887.054.153.102.305a91 91 0 0 0 .992 2.879l-8.773 1.101-.008-.02a188 188 0 0 0-2.707-5.952zm-2.789-14.726-2.113.32 2.082-.625q.013.153.031.305m-13.648-15.45q.004-.182.008-.359c.03-.875.078-1.726.136-2.559l.012-.164 13.25-4.375c-.02.2-.027.407-.043.606A166 166 0 0 0 84 146.46q-.036.733-.055 1.473c-.011.3-.027.593-.035.898l-13.062 3.922c-.004-.281-.012-.547-.012-.832 0-.953.02-1.871.047-2.774m-21.48 18.907c-.005-.028-.005-.051-.008-.078a85 85 0 0 1-.942-7.66q-.001-.067-.008-.133a77 77 0 0 1-.113-1.68l-.035-.613c-.02-.422-.043-.852-.059-1.282q-.017-.35-.027-.707a73 73 0 0 1-.035-1.328c-.004-.215-.012-.43-.016-.644q-.019-.995-.02-2.008a158.998 158.998 0 0 1 .055-3.324c.063-2.075.176-4.102.352-6.055l8.086-2.668c-.09.625-.16 1.27-.23 1.914-.024.211-.055.418-.079.633-.078.746-.14 1.516-.195 2.285-.02.258-.047.508-.063.766-.05.757-.086 1.535-.117 2.32-.012.281-.031.555-.039.844q-.051 1.604-.05 3.285 0 1.587.042 3.11c.41 13.847 3.563 21.679 7.106 29.316q.053.112.105.23c.309.656.614 1.313.926 1.973l.047.097c.379.805.762 1.618 1.14 2.446a.1.1 0 0 1 .02.043c1.207 2.61 2.406 5.328 3.488 8.308q.002.004.004.008c2.578 7.106 4.508 15.734 4.508 28.399 0 19.73-4.68 29.68-9.207 39.304-1.074 2.281-2.168 4.606-3.187 7.098h-8.508c1.515-4.348 3.277-8.098 5.008-11.774 4.203-8.94 8.18-17.39 8.18-34.628 0-17.207-3.962-25.657-8.16-34.582-.009-.016-.013-.032-.02-.047q-.315-.664-.625-1.332c-.075-.153-.145-.309-.22-.465l-.66-1.426-.14-.305q-.35-.766-.7-1.558-.043-.096-.085-.196a101 101 0 0 1-.735-1.703l-.03-.078a77 77 0 0 1-2.852-7.93c-.004-.02-.012-.035-.016-.054a71 71 0 0 1-1.887-8.121m388.593 119.18c-4.945 43.574-24.7 119.964-99.937 168.156h-153.29a7.49 7.49 0 0 0-7.488 7.492 7.487 7.487 0 0 0 7.489 7.488h147.453v9.82c0 4.356-3.54 7.895-7.891 7.895H129.078c-4.351 0-7.894-3.54-7.894-7.895v-9.82h28.734a7.49 7.49 0 1 0 0-14.98H115.27C40.03 407.19 20.28 330.809 15.336 287.234zm58.914-152.79c-.137.176-.3.196-.355.203l-271.512 34c-.805-2.77-1.461-6.023-1.805-10.113l270.88-41.433c.054-.008.218-.032.394.101.175.129.199.293.207.348l2.293 16.504a.5.5 0 0 1-.102.39m0 0"/></svg>