<svg xmlns="http://www.w3.org/2000/svg" viewBox="-3 0 511 512"><path fill="#e2e2e2" d="M338.48 181.652h143.25v106.93H338.48zm0 0"/><path fill="#c9c9c9" d="M424.898 181.652h56.832v106.93h-56.832zm0 0"/><path fill="#fd8f31" d="M300.563 7.39h-.422S146.367 20.958 122.676 77.798v13.125c0 14.016 11.363 25.379 25.383 25.379 14.015 0 25.382-11.364 25.382-25.38 0 14.016 11.364 25.38 25.38 25.38 14.019 0 25.382-11.364 25.382-25.38 0 14.016 11.363 25.38 25.383 25.38s25.383-11.364 25.383-25.38c0 14.016 11.363 25.38 25.383 25.38 14.015 0 25.378-11.364 25.378-25.38 0 14.016 11.368 25.38 25.383 25.38 14.02 0 25.383-11.364 25.383-25.38 0 14.016 11.363 25.38 25.383 25.38 14.016 0 25.383-11.364 25.383-25.38 0 14.016 11.363 25.38 25.379 25.38 14.02 0 25.382-11.364 25.382-25.38V77.798C454.34 20.957 300.563 7.39 300.563 7.39m0 0"/><path fill="#d87e35" d="M68.094 316.605h-53.88a6.325 6.325 0 0 1-6.323-6.324v-14.707a6.32 6.32 0 0 1 6.324-6.32h53.879a6.32 6.32 0 0 1 6.32 6.32v14.707a6.32 6.32 0 0 1-6.32 6.324m0 0"/><path fill="#ef802e" d="M300.563 7.39h-.422s-11.286.997-28.204 3.579c45.551 6.945 131.985 25.383 149.258 66.828h56.832C454.34 20.957 300.562 7.39 300.562 7.39m0 0"/><path fill="#ffc064" d="M148.059 116.3c-14.02 0-25.383-11.362-25.383-25.378V77.797h50.765v13.125c-.004 14.016-11.367 25.379-25.382 25.379m0 0"/><path fill="#efa335" d="M198.82 116.3c-14.015 0-25.379-11.362-25.379-25.378V77.797h50.762v13.125c0 14.016-11.363 25.379-25.383 25.379m0 0"/><path fill="#ffc064" d="M249.586 116.3c-14.02 0-25.383-11.362-25.383-25.378V77.797h50.766v13.125c0 14.016-11.364 25.379-25.383 25.379m0 0"/><path fill="#efa335" d="M300.352 116.3c-14.02 0-25.383-11.362-25.383-25.378V77.797h50.765v13.125c0 14.016-11.363 25.379-25.382 25.379m0 0"/><path fill="#ffc064" d="M351.117 116.3c-14.02 0-25.383-11.362-25.383-25.378V77.797H376.5v13.125c-.004 14.016-11.367 25.379-25.383 25.379m0 0"/><path fill="#efa335" d="M401.883 116.3c-14.02 0-25.383-11.362-25.383-25.378V77.797h50.766v13.125c-.004 14.016-11.368 25.379-25.383 25.379m0 0"/><path fill="#ffc064" d="M452.645 116.3c-14.016 0-25.38-11.362-25.38-25.378V77.797h50.762v13.125c0 14.016-11.363 25.379-25.382 25.379m0 0"/><path fill="#fc4e51" d="M484.82 181.652H335.39a4.31 4.31 0 0 0-4.312 4.313v16.496a4.31 4.31 0 0 0 4.313 4.312h149.43a4.31 4.31 0 0 0 4.312-4.312v-16.496a4.31 4.31 0 0 0-4.313-4.313m0 0"/><path fill="#ea3942" d="M484.82 181.652H432.3v25.121h52.52a4.31 4.31 0 0 0 4.313-4.312v-16.496a4.31 4.31 0 0 0-4.313-4.313m0 0"/><path fill="#fc4e51" d="M494.086 440.863H106.613a3.61 3.61 0 0 1-3.61-3.61v-158.53a3.61 3.61 0 0 1 3.61-3.61h387.473a3.61 3.61 0 0 1 3.61 3.61v158.53a3.606 3.606 0 0 1-3.61 3.61m0 0"/><path fill="#ea3942" d="M494.086 275.113h-52.668v165.75h52.668a3.61 3.61 0 0 0 3.61-3.61v-158.53a3.606 3.606 0 0 0-3.61-3.61m0 0"/><path fill="#ffc064" d="M494.086 275.113H106.613a3.61 3.61 0 0 0-3.61 3.61v24.207H497.7v-24.207a3.61 3.61 0 0 0-3.613-3.61m0 0"/><path fill="#efa335" d="M494.086 275.113h-52.668v27.817h56.277v-24.207a3.606 3.606 0 0 0-3.61-3.61m0 0"/><path fill="#31363b" d="M424.367 413.676c-25.11 0-45.465 20.355-45.465 45.465 0 25.113 20.356 45.468 45.465 45.468s45.465-20.355 45.465-45.468c0-25.11-20.355-45.465-45.465-45.465m0 0"/><path fill="#e2e2e2" d="M424.367 441.375c-9.812 0-17.765 7.953-17.765 17.766s7.953 17.77 17.765 17.77 17.766-7.958 17.766-17.77-7.953-17.766-17.766-17.766m0 0"/><path fill="#31363b" d="M169.719 413.676c-25.11 0-45.465 20.355-45.465 45.465 0 25.113 20.355 45.468 45.465 45.468s45.469-20.355 45.469-45.468c0-25.11-20.36-45.465-45.47-45.465m0 0"/><path fill="#e2e2e2" d="M169.719 441.375c-9.813 0-17.766 7.953-17.766 17.766s7.953 17.77 17.766 17.77 17.77-7.958 17.77-17.77-7.958-17.766-17.77-17.766m0 0"/><path d="M494.09 267.723h-4.969v-54.387c4.332-1.719 7.406-5.941 7.406-10.875v-16.496c0-6.457-5.25-11.707-11.703-11.707H335.391c-6.457 0-11.707 5.25-11.707 11.707v16.496c0 4.934 3.074 9.156 7.406 10.875v54.383h-23.348V122.844c7.184-1.664 13.473-5.692 17.992-11.219 6.012 7.36 15.157 12.066 25.383 12.066 10.223 0 19.367-4.707 25.38-12.066 6.015 7.36 15.16 12.066 25.382 12.066 10.226 0 19.367-4.707 25.383-12.066 6.015 7.36 15.16 12.066 25.383 12.066 18.07 0 32.773-14.703 32.773-32.773V77.871c.004-.27-.012-.539-.035-.812-.008-.07-.024-.141-.031-.215-.024-.164-.043-.332-.079-.496-.03-.16-.074-.313-.117-.47-.02-.077-.035-.155-.058-.23a7 7 0 0 0-.305-.82c-10.828-25.777-45.332-46.207-102.563-60.715C340.727 3.593 302.81.168 301.215.027a9 9 0 0 0-.653-.027h-.425c-.215 0-.434.012-.649.027-1.593.141-39.511 3.567-81.015 14.086-57.235 14.512-91.743 34.938-102.567 60.719a7 7 0 0 0-.304.816c-.024.075-.04.153-.059.227a6 6 0 0 0-.117.473c-.031.156-.051.316-.074.472-.012.082-.028.16-.036.243-.027.265-.039.535-.035.8v13.055c0 18.07 14.703 32.773 32.774 32.773 10.222 0 19.367-4.707 25.382-12.066 6.016 7.36 15.16 12.066 25.383 12.066 10.227 0 19.367-4.707 25.383-12.066 6.016 7.36 15.156 12.066 25.383 12.066 10.223 0 19.367-4.707 25.383-12.066a32.8 32.8 0 0 0 17.988 11.219v144.879H106.613c-6.066 0-11 4.933-11 11v16.812H81.805c-.02-7.543-6.164-13.676-13.711-13.676h-53.88C6.653 281.86.5 288.012.5 295.574v14.707c0 7.563 6.152 13.715 13.715 13.715h53.879c7.547 0 13.691-6.133 13.71-13.676h13.81v126.934c0 6.066 4.933 11.004 11 11.004h11.382a53 53 0 0 0-1.133 10.883c0 29.148 23.711 52.859 52.856 52.859 29.148 0 52.86-23.71 52.86-52.86 0-3.73-.395-7.37-1.134-10.882h151.2a52.6 52.6 0 0 0-1.133 10.883c0 29.148 23.71 52.859 52.855 52.859s52.86-23.71 52.86-52.86c0-3.73-.395-7.37-1.133-10.882h17.996c6.062 0 11-4.938 11-11.004V278.723c0-6.067-4.938-11-11-11M67.023 309.215H15.285v-12.57h51.738zM338.47 189.043h143.273v10.34h-85.648a7.39 7.39 0 0 0-7.39 7.39 7.39 7.39 0 0 0 7.39 7.391h78.242v53.555H345.87v-53.555h15.832a7.391 7.391 0 1 0 0-14.781H338.47zm30.636-98.125c0 9.922-8.07 17.992-17.988 17.992-9.922 0-17.992-8.07-17.992-17.992v-5.73h35.98zm50.766 0c0 9.922-8.07 17.992-17.992 17.992-9.918 0-17.988-8.07-17.988-17.992v-5.73h35.98zm50.766 0c0 9.922-8.07 17.992-17.992 17.992-9.918 0-17.993-8.07-17.993-17.992v-5.73h35.985zm-304.59 0c0 9.922-8.07 17.992-17.988 17.992-9.922 0-17.993-8.07-17.993-17.992v-5.73h35.98zm50.766 0c0 9.922-8.07 17.992-17.993 17.992-9.918 0-17.992-8.07-17.992-17.992v-5.73h35.985zm50.765 0c0 9.922-8.07 17.992-17.992 17.992s-17.992-8.07-17.992-17.992v-5.73h35.984zM135.805 70.406c13.656-16.62 43.023-30.972 86.129-41.918 38.035-9.66 74.058-13.277 78.418-13.691 4.359.414 40.382 4.031 78.418 13.691 43.105 10.946 72.472 25.297 86.128 41.918zm146.554 20.512v-5.73h35.985v5.73c0 9.922-8.074 17.992-17.992 17.992-9.922 0-17.993-8.07-17.993-17.992m-112.64 406.3c-20.992 0-38.074-17.081-38.074-38.077 0-20.993 17.082-38.075 38.074-38.075 20.996 0 38.078 17.082 38.078 38.075 0 20.996-17.082 38.078-38.078 38.078m254.648 0c-20.996 0-38.074-17.081-38.074-38.077 0-20.993 17.078-38.075 38.074-38.075s38.074 17.082 38.074 38.075c0 20.996-17.078 38.078-38.074 38.078m65.938-201.683H173.066a7.394 7.394 0 0 0 0 14.785H490.31v123.153H470.55c-9.04-16.203-26.348-27.192-46.184-27.192-19.832 0-37.14 10.989-46.183 27.192H215.906c-9.043-16.203-26.351-27.192-46.183-27.192-19.836 0-37.145 10.989-46.188 27.192h-13.137V310.32h28.278a7.39 7.39 0 0 0 7.39-7.39 7.39 7.39 0 0 0-7.39-7.39h-28.278v-13.036h379.91v13.031zm0 0"/><path d="M424.367 433.984c-13.87 0-25.156 11.286-25.156 25.157 0 13.875 11.281 25.16 25.156 25.16 13.871 0 25.16-11.285 25.16-25.16 0-13.871-11.289-25.157-25.16-25.157m0 35.536c-5.722 0-10.375-4.657-10.375-10.38 0-5.718 4.653-10.374 10.375-10.374s10.375 4.656 10.375 10.375c0 5.722-4.652 10.379-10.375 10.379M169.719 433.984c-13.871 0-25.156 11.286-25.156 25.157 0 13.875 11.285 25.16 25.156 25.16 13.875 0 25.16-11.285 25.16-25.16 0-13.871-11.285-25.157-25.16-25.157m0 35.536c-5.719 0-10.375-4.657-10.375-10.38 0-5.718 4.656-10.374 10.375-10.374 5.722 0 10.379 4.656 10.379 10.375 0 5.722-4.657 10.379-10.38 10.379m0 0"/></svg>