<svg xmlns="http://www.w3.org/2000/svg" viewBox="0 0 512 512"><path fill="#33d8dd" d="M504.5 256c0 137.242-111.258 248.5-248.5 248.5S7.5 393.242 7.5 256 118.758 7.5 256 7.5 504.5 118.758 504.5 256m0 0"/><path fill="#2cc6c2" d="M256 7.5c-9.754 0-19.371.582-28.832 1.676C350.824 23.465 446.836 128.512 446.836 256s-96.012 232.535-219.668 246.824A251 251 0 0 0 256 504.5c137.242 0 248.5-111.258 248.5-248.5S393.242 7.5 256 7.5m0 0"/><path fill="#8be8e5" d="M462.14 256c0 113.848-92.292 206.14-206.14 206.14S49.86 369.849 49.86 256 142.151 49.86 256 49.86 462.14 142.151 462.14 256m0 0"/><path fill="#7cd1cd" d="M256 49.86c-9.867 0-19.566.706-29.062 2.046C327.023 66.031 404.02 152.016 404.02 256s-76.997 189.969-177.082 204.094A208 208 0 0 0 256 462.14c113.848 0 206.14-92.293 206.14-206.141S369.849 49.86 256 49.86m0 0"/><path fill="#efefef" d="M336.934 197.098c9.894 36.28-.528 82.828-34.614 101.39-27.453 14.953-28.004 47.739-61.273 56.813-41.121 11.21-68.922-15.106-100.367-37.043-23.211-16.192-49.39-2.305-62.559-50.586-13.605-49.902 26.238-69.524 40.797-92.43 17.074-26.87-6.11-62.14 51.781-77.93 51.434-14.023 67.801 12.36 98.785 32.458 24.985 16.21 51.954 10.492 67.45 67.328m0 0"/><path fill="#e5e5e5" d="M269.484 129.773c-30.984-20.101-47.351-46.484-98.789-32.457-13.215 3.606-22.199 8.227-28.406 13.532 26.871 2.933 41.774 21.168 64.617 35.988 24.985 16.21 51.953 10.488 67.453 67.324 9.895 36.285-.527 82.828-34.613 101.395-17.73 9.656-24.25 26.75-35.598 40.09 11.258 2.953 23.356 3.347 36.899-.344 33.273-9.074 33.824-41.86 61.277-56.813 34.086-18.562 44.504-65.11 34.613-101.39-15.5-56.836-42.468-51.118-67.453-67.325m0 0"/><path fill="#fccf3f" d="M282.14 212.645c-7.538-27.653-36.07-43.954-63.722-36.415s-43.957 36.07-36.414 63.723c7.539 27.652 36.07 43.957 63.723 36.414 27.652-7.539 43.957-36.07 36.414-63.722m0 0"/><path fill="#efa335" d="M282.129 212.645c-4.559-16.723-16.8-29.286-31.879-34.942l-45.805 92.524c11.864 7.453 26.688 10.113 41.27 6.136 27.652-7.539 43.957-36.066 36.414-63.718m0 0"/><path fill="#fc4e51" d="M431.676 191.387c-21.215-11.543-42.43-23.09-63.645-34.633-1.34-.727-2.984.066-3.273 1.562-18.766 96.528-117.653 149.176-135.621 246.141a2.26 2.26 0 0 0 1.14 2.383q31.822 17.314 63.645 34.633c1.34.726 2.984-.067 3.273-1.563 18.766-96.527 117.653-149.18 135.621-246.144a2.25 2.25 0 0 0-1.14-2.38m0 0"/><path fill="#ffa9ad" d="M411.031 180.152q-11.818-6.431-23.64-12.863c-17.344 99.008-119.121 151.777-136.47 250.785q11.825 6.429 23.642 12.863C291.91 331.93 393.688 279.16 411.03 180.153m0 0"/><path fill="#ea3942" d="M432.816 193.766a2.25 2.25 0 0 0-1.14-2.38q-10.32-5.616-20.645-11.234c-17.344 99.008-119.12 151.778-136.468 250.786l19.359 10.535c1.34.726 2.984-.067 3.273-1.563 18.77-96.527 117.653-149.18 135.621-246.144m0 0"/><path d="M437.02 74.98C388.668 26.63 324.379 0 256 0S123.332 26.629 74.98 74.98C26.63 123.332 0 187.621 0 256s26.629 132.668 74.98 181.02C123.332 485.37 187.621 512 256 512s132.668-26.629 181.02-74.98C485.37 388.668 512 324.379 512 256s-26.629-132.668-74.98-181.02m-10.606 351.434C380.894 471.934 320.375 497 256 497s-124.895-25.066-170.414-70.586C40.066 380.894 15 320.375 15 256S40.066 131.105 85.586 85.586C131.106 40.066 191.625 15 256 15s124.895 25.066 170.414 70.586C471.934 131.106 497 191.625 497 256s-25.066 124.895-70.586 170.414m0 0"/><path d="M407.066 104.934c-40.351-40.352-94-62.575-151.066-62.575s-110.715 22.223-151.066 62.575c-40.352 40.351-62.575 94-62.575 151.066s22.223 110.715 62.575 151.066c40.351 40.352 94 62.575 151.066 62.575s110.715-22.223 151.066-62.575c40.352-40.351 62.575-94 62.575-151.066s-22.223-110.715-62.575-151.066M256 454.64C146.469 454.64 57.36 365.53 57.36 256S146.468 57.36 256 57.36 454.64 146.468 454.64 256 365.532 454.64 256 454.64m0 0"/><path d="M261.531 174.73c-13.773-7.875-29.789-9.91-45.094-5.734-15.304 4.172-28.07 14.059-35.945 27.832-7.87 13.774-9.906 29.79-5.73 45.098 4.172 15.304 14.058 28.07 27.832 35.941 9.097 5.2 19.172 7.852 29.375 7.852 5.246 0 10.523-.7 15.719-2.117 15.308-4.172 28.074-14.059 35.945-27.832s9.906-29.79 5.734-45.098c-4.176-15.305-14.058-28.07-27.836-35.942m9.078 73.594c-5.886 10.297-15.425 17.688-26.867 20.805-11.441 3.121-23.41 1.598-33.707-4.285s-17.683-15.426-20.805-26.867c-3.12-11.442-1.597-23.41 4.286-33.707s15.425-17.684 26.867-20.805a44.6 44.6 0 0 1 11.75-1.582c7.625 0 15.156 1.98 21.957 5.87 10.297 5.884 17.683 15.423 20.805 26.864 3.12 11.442 1.597 23.41-4.286 33.707M435.262 184.8l-63.645-34.636a9.77 9.77 0 0 0-8.8-.254 9.81 9.81 0 0 0-5.422 6.973c-8.989 46.25-36.786 81.664-66.211 119.156-29.524 37.617-60.055 76.52-69.418 127.05a9.72 9.72 0 0 0 4.93 10.337l63.644 34.633a9.73 9.73 0 0 0 4.652 1.18 9.75 9.75 0 0 0 4.149-.927 9.8 9.8 0 0 0 5.422-6.972c8.988-46.25 36.785-81.66 66.207-119.152 29.527-37.622 60.058-76.52 69.421-127.055a9.72 9.72 0 0 0-4.93-10.332M245.629 406.653l-8.379-4.558c9.453-45.086 36.813-79.946 65.734-116.793 27.856-35.492 56.614-72.133 67.633-118.602l8.367 4.555c-9.445 45.07-36.808 79.953-65.726 116.797-27.86 35.496-56.602 72.125-67.63 118.601m23.633 12.864-9.942-5.41c9.45-45.075 36.82-79.954 65.739-116.793 27.859-35.5 56.605-72.125 67.632-118.602l9.942 5.41c-9.446 45.078-36.817 79.95-65.735 116.793-27.859 35.496-56.605 72.125-67.636 118.602m89.707-106.59c-27.852 35.488-56.61 72.133-67.633 118.597l-8.363-4.55c9.445-45.075 36.808-79.953 65.722-116.797 27.864-35.496 56.602-72.13 67.63-118.606l8.378 4.563c-9.453 45.086-36.812 79.945-65.734 116.793m0 0"/><path d="M212.004 349.676c-19.563-3.196-36.7-15.645-54.84-28.828-3.965-2.88-8.062-5.856-12.195-8.743-8.489-5.918-17.246-8.3-24.973-10.406-15.566-4.234-26.808-7.293-34.637-36-9.004-33.012 7.832-50.66 24.114-67.726 5.988-6.282 11.644-12.207 15.773-18.707 6.55-10.313 7.977-21.575 9.234-31.512 2.399-18.977 4.293-33.961 38.188-43.203 37.25-10.16 53.695 2.422 74.52 18.351 5.695 4.356 11.578 8.86 18.21 13.16 6.875 4.461 13.692 7.313 20.282 10.075 16.59 6.945 30.918 12.941 41.414 44.308a7.497 7.497 0 0 0 9.492 4.735 7.5 7.5 0 0 0 4.73-9.493c-12.652-37.816-31.558-45.734-49.843-53.386-6.258-2.621-12.164-5.094-17.91-8.82-6.145-3.989-11.793-8.31-17.258-12.493-22.203-16.98-43.168-33.02-87.582-20.91-43.57 11.879-46.524 35.211-49.125 55.793-1.164 9.191-2.262 17.871-7.012 25.348-3.34 5.258-8.504 10.668-13.969 16.398-17.36 18.195-38.96 40.844-27.73 82.028 10.082 36.98 28.722 42.05 45.168 46.527 7.187 1.957 13.976 3.805 20.328 8.234 4.015 2.805 8.058 5.739 11.965 8.574 18.757 13.633 38.156 27.727 61.234 31.497q.615.103 1.219.101a7.5 7.5 0 0 0 7.39-6.293 7.494 7.494 0 0 0-6.187-8.61m0 0"/></svg>