<svg xmlns="http://www.w3.org/2000/svg" viewBox="-33 0 512 512.002"><path fill="#f3e8d7" d="M294.816 147.91H54.184l37.574 324.36c.594 5.136 4.8 9 9.793 9h145.898c4.992 0 9.2-3.864 9.793-9zm0 0"/><path fill="#fc4e51" d="M102.309 152.242H54.684L91.758 472.27c.594 5.136 4.8 9 9.789 9h22.973zM157.84 481.27h33.32l7.403-329.028h-48.125zm0 0"/><path fill="#ea3942" d="M294.316 152.242h-47.625l-22.21 329.028h22.968c4.992 0 9.2-3.864 9.793-9zm0 0"/><path fill="#f3e8d7" d="M269.875 102.3H79.121c-2.715 0-5.058 1.977-5.605 4.731l-8.762 43.992h219.488l-8.758-43.992c-.55-2.754-2.89-4.73-5.609-4.73m0 0"/><path fill="#ddd1c3" d="M212.75 118.43H71.246l-6.492 32.593h215.203l3.563-3.636-8.036-40.356c-.55-2.754-2.89-4.73-5.609-4.73h-52.75l1.773 8.636c.77 3.876-2.195 7.493-6.148 7.493m0 0"/><path fill="#f3e8d7" d="M301.879 172.309H47.12c-4.738 0-8.578-3.84-8.578-8.575v-23.453c0-4.734 3.84-8.574 8.578-8.574H301.88a8.576 8.576 0 0 1 8.574 8.574v23.453a8.576 8.576 0 0 1-8.574 8.575m0 0"/><path fill="#ddd1c3" d="M301.879 131.707h-50.246v19.559c0 5.847-4.742 10.59-10.59 10.59H47.121a8.58 8.58 0 0 1-8.578-8.579v10.457c0 4.735 3.84 8.575 8.578 8.575H301.88a8.576 8.576 0 0 0 8.574-8.575v-23.453a8.576 8.576 0 0 0-8.574-8.574m0 0"/><path fill="#fccf3f" d="m307.742 431.008-12.355.394c-4.285.133-7.989-3.074-8.313-7.222L272.38 237.145c-.43-5.48 3.308-10.18 8.32-10.415l19.332-.894c5.024-.23 9.278 4.11 9.446 9.617l5.785 187.817c.129 4.164-3.223 7.601-7.52 7.738m0 0"/><path fill="#efc03c" d="m292.95 402.05-12.083 1.919c-4.195.668-8.289-1.98-9.203-5.965l-41.059-179.41c-1.203-5.254 1.81-10.242 6.704-11.059l18.875-3.14c4.902-.817 9.691 2.882 10.64 8.183l32.406 181.043c.72 4.016-2.082 7.762-6.28 8.43m0 0"/><path fill="#fccf3f" d="m273.977 416.734-11.762 2.664c-4.078.922-8.34-1.402-9.574-5.238L197.113 241.8c-1.62-5.034.91-10.12 5.64-11.277l18.267-4.46c4.75-1.16 9.777 2.097 11.16 7.207l47.28 174.8c1.056 3.887-1.394 7.739-5.483 8.664M317.758 409.574l12.363.133c4.285.047 7.922-3.238 8.16-7.39l10.766-187.305c.312-5.489-3.524-10.11-8.535-10.239l-19.348-.488c-5.027-.125-9.187 4.305-9.242 9.813l-1.844 187.898c-.039 4.164 3.383 7.531 7.68 7.578m0 0"/><path fill="#efc03c" d="m331.414 405.773 12.125 1.668c4.203.579 8.246-2.156 9.074-6.16l37.285-180.234c1.094-5.277-2.023-10.2-6.933-10.914l-18.938-2.742c-4.918-.715-9.629 3.082-10.468 8.406l-28.598 181.68c-.633 4.03 2.242 7.718 6.453 8.296m0 0"/><path fill="#fccf3f" d="m350.68 420.102 11.816 2.414c4.094.84 8.309-1.575 9.461-5.434l51.898-173.488c1.516-5.067-1.12-10.102-5.875-11.157l-18.355-4.074c-4.773-1.062-9.727 2.297-11.004 7.438l-43.605 175.754c-.973 3.906 1.558 7.707 5.664 8.547m0 0"/><path fill="#fc4e51" d="M365.953 293.79c-2.254 0-4.258 1.401-5.066 3.507-7.317 19.062-25.785 32.594-47.422 32.594s-40.106-13.532-47.422-32.594c-.809-2.106-2.813-3.508-5.066-3.508h-49.715c-3.36 0-5.91 3.027-5.34 6.34l30.453 176.648a5.42 5.42 0 0 0 5.34 4.5h143.5a5.42 5.42 0 0 0 5.34-4.5l30.453-176.648c.57-3.313-1.98-6.34-5.34-6.34zm0 0"/><path fill="#ea3942" d="M208.113 297.297c7.317 19.062 25.785 32.594 47.422 32.594 10.77 0 20.75-3.356 28.965-9.07-8.293-5.774-14.781-13.95-18.457-23.524-.809-2.106-2.813-3.508-5.066-3.508h-49.715a5.39 5.39 0 0 0-4.121 1.902c.402.473.742 1.008.972 1.606M415.668 293.79h-49.715a5.38 5.38 0 0 0-4.094 1.901 5.4 5.4 0 0 1 1.22 4.438L332.62 476.777a5.41 5.41 0 0 1-5.34 4.5h57.934a5.42 5.42 0 0 0 5.34-4.5l30.453-176.648c.57-3.313-1.98-6.34-5.34-6.34m0 0"/><path fill="#a0796d" d="M427.254 476.27H18.207c-5.875 0-10.637 4.761-10.637 10.636v6.89c0 5.872 4.762 10.638 10.637 10.638h409.047c5.875 0 10.637-4.766 10.637-10.637v-6.89c0-5.876-4.762-10.637-10.637-10.637m0 0"/><path fill="#f3e8d7" d="M406.906 381.922H220.023l5.915 34.305h175.054zm0 0"/><path fill="#e5d8c6" d="m348.977 381.922-5.914 34.305h57.93L405.515 390l1.39-8.078zm0 0"/><path fill="#efa335" d="M357.98 400.094c0 24.586-19.93 44.515-44.515 44.515s-44.516-19.93-44.516-44.515 19.93-44.516 44.516-44.516 44.515 19.93 44.515 44.516m0 0"/><path fill="#fd8f31" d="M357.98 400.094c0-24.586-19.93-44.516-44.515-44.516-1.555 0-3.09.082-4.602.238l-14.562 84.465a44.3 44.3 0 0 0 19.164 4.328c24.586 0 44.515-19.93 44.515-44.515m0 0"/><path d="M427.254 468.7h-27.625l18.914-109.731a7.563 7.563 0 0 0-6.172-8.742c-4.117-.707-8.035 2.05-8.746 6.171l-3.094 17.954h-41.816c-8.977-15.715-25.89-26.34-45.25-26.34s-36.274 10.625-45.25 26.34h-41.817l-12.582-72.993h45.7q.427 1.036.894 2.055c.035.078.078.156.113.234q.416.898.86 1.778l.176.332c.28.543.566 1.086.867 1.62.101.184.21.364.312.544.258.453.516.902.785 1.348.176.289.36.57.54.855.203.32.402.64.609.953q.417.638.86 1.258.161.236.323.473c4.422 6.222 10.043 11.597 16.536 15.687.32.207.656.379 1 .531 8.047 4.856 17.261 7.805 26.906 8.34.031 0 .066.008.101.008.137.008.266.012.399.02q.411.018.824.03a51 51 0 0 0 1.844.036c8.976 0 17.656-2.11 25.46-5.922.333-.113.657-.242.977-.406a58.34 58.34 0 0 0 24.598-23.746q.093-.16.18-.325c.273-.503.547-1.015.808-1.53.14-.278.278-.56.414-.837.196-.398.391-.793.575-1.195q.45-.98.87-1.977c.02-.054.048-.109.071-.164h45.695l-3.504 20.328c-.71 4.122 2.051 8.04 6.172 8.747 4.125.714 8.035-2.055 8.746-6.172l3.938-22.848a12.97 12.97 0 0 0-2.863-10.574 12.97 12.97 0 0 0-6.723-4.2l12.226-40.874c1.372-4.579.825-9.473-1.5-13.43-2.207-3.758-5.753-6.348-9.984-7.285l-18.355-4.078a15.4 15.4 0 0 0-3.668-.356c.379-4.074-.649-8.148-2.938-11.414-2.527-3.601-6.293-5.933-10.61-6.558l-18.937-2.743c-4.515-.656-8.914.68-12.367 3.36-.23-.285-.453-.578-.703-.848-2.984-3.246-7.016-5.094-11.34-5.203l-19.348-.488c-4.308-.11-8.437 1.52-11.617 4.59-3.375 3.257-5.34 7.894-5.386 12.714l-.047 4.727a16 16 0 0 0-4.625-.477l-5.426.254 4.48-38.648h3.145c8.902 0 16.144-7.242 16.144-16.145V140.29c0-8.906-7.242-16.148-16.144-16.148h-15.274l-3.699-18.582c-1.25-6.274-6.726-10.825-13.031-10.825h-87.34v-62.21c0-.77.426-1.465 1.024-1.692l43.55-16.164a7.57 7.57 0 0 0 4.465-9.73 7.57 7.57 0 0 0-9.73-4.461L178.28 16.645c-6.511 2.425-10.883 8.808-10.883 15.878V94.73H79.121c-6.3 0-11.781 4.551-13.031 10.825l-3.7 18.582H47.122c-8.902 0-16.144 7.242-16.144 16.144v23.453c0 8.903 7.242 16.145 16.144 16.145h3.145l33.457 288.82H18.207C8.168 468.7 0 476.867 0 486.906v6.89C0 503.837 8.168 512 18.207 512h409.047c10.039 0 18.207-8.164 18.207-18.203v-6.89c0-10.04-8.168-18.208-18.207-18.208m-41.922-188.216 10.637-42.863c.316-1.273 1.422-2.004 2.015-1.871l18.352 4.078c.07.012.129.027.21.172.075.125.302.605.056 1.422l-13.399 44.797h-19.055zm-31.48-17.855q0-.007.003-.02l7.184-45.636c.207-1.32 1.184-2.098 1.809-2.098.03 0 .066 0 .097.008l18.934 2.742c.082.012.223.031.383.266.101.144.418.687.226 1.625l-11.918 57.609-2.258 9.094h-2.355c-1.668 0-3.293.328-4.793.933-3.305 1.328-6.023 3.993-7.344 7.434-.199.527-.414 1.047-.633 1.562q-.276.633-.57 1.254c-.035.078-.07.16-.105.235a42.9 42.9 0 0 1-5.54 8.71zm-34.36-48.457c.008-.781.293-1.52.762-1.973.246-.238.469-.351.719-.347l19.347.488c.075.004.297.008.586.324.406.441.625 1.156.582 1.91l-2.644 46.04-9.215 58.523a43.1 43.1 0 0 1-11.195 2.89zm78.426 175.32-3.3 19.164h-29.77c.015-.11.027-.218.047-.328a68.335 68.335 0 0 0 .328-2.437q.046-.456.093-.91c.051-.547.09-1.098.125-1.649.016-.262.036-.523.051-.789.035-.813.063-1.629.063-2.45 0-3.386-.336-6.722-.973-9.991-.035-.168-.059-.344-.094-.512-.008-.031-.011-.067-.015-.098zm-121.348 8.684c.016-.317.047-.63.07-.942.024-.316.044-.636.075-.949.035-.363.09-.719.137-1.074.035-.266.062-.535.105-.8.055-.348.121-.696.188-1.04.05-.273.093-.547.152-.82.066-.317.144-.633.219-.946.07-.3.136-.605.218-.906.07-.277.157-.55.235-.828.097-.336.191-.672.3-1.004.079-.246.16-.484.243-.722.125-.364.25-.727.386-1.086q.128-.334.262-.66.218-.552.453-1.09c5.715-13.032 18.735-22.16 33.848-22.16 15.121 0 28.14 9.132 33.855 22.167q.234.533.45 1.079.13.327.261.668c.137.355.262.718.387 1.082.082.238.168.476.242.718.11.34.207.676.305 1.016.078.273.16.543.234.82.078.305.149.614.22.918.073.309.151.617.214.93.058.281.105.562.156.84.067.34.133.68.184 1.023.043.27.074.547.11.82.046.348.097.7.132 1.051.035.324.05.645.078.969.024.309.055.613.07.926q.05.956.051 1.918c0 .61-.02 1.215-.047 1.816-.011.207-.031.41-.043.617-.027.391-.05.786-.09 1.172-.023.254-.058.508-.085.762-.043.336-.083.668-.13 1q-.064.426-.14.848a25.415 25.415 0 0 1-.352 1.797 29.708 29.708 0 0 1-.434 1.754q-.093.346-.198.699-.151.504-.313 1.004c-.074.218-.144.437-.223.656q-.17.492-.359.984c-5.3 13.918-18.777 23.836-34.535 23.836-15.754 0-29.23-9.918-34.531-23.832q-.188-.496-.36-.992-.112-.321-.218-.649a30 30 0 0 1-.317-1.011l-.2-.692a90 90 0 0 1-.253-.976q-.092-.391-.18-.782-.1-.456-.195-.914c-.055-.293-.105-.59-.156-.882-.047-.282-.098-.567-.137-.848a28 28 0 0 1-.129-1q-.047-.381-.09-.762a38 38 0 0 1-.086-1.172c-.015-.207-.035-.41-.043-.617a35 35 0 0 1 .004-3.734m36.895 54.004c20.187 0 37.715-11.551 46.355-28.383h32.184l-7.738 44.902H242.664l-7.742-44.902h32.187c8.641 16.832 26.168 28.383 46.356 28.383m-51.004-62.688c-.008.031-.012.067-.016.098-.035.168-.058.34-.093.508a52 52 0 0 0-.973 9.996q.002 1.23.062 2.449c.012.266.032.527.047.789.035.55.074 1.102.13 1.648q.04.456.093.91a41 41 0 0 0 .195 1.532c.043.3.082.605.13.906.019.11.03.219.05.328h-29.77l-3.304-19.164zm-42.031 39.352-2.688 39.855h-18.726l3.265-145.14zM203.055 289.16l.09-3.96 1.015 3.152q-.573.375-1.105.808m16.324-2.941L204.32 239.48c-.261-.816-.047-1.296.024-1.425.082-.149.136-.16.207-.18l18.265-4.46c.59-.142 1.711.562 2.055 1.827l11.555 42.719 1.89 8.258zm3.516-67.946a16 16 0 0 0-3.668.434l-14.668 3.582.953-42.41h31.722l-1.363 20.23c-4.219.758-7.863 3.137-10.273 6.739-2.215 3.304-3.157 7.375-2.703 11.425m51.37 79.02a43 43 0 0 1-1.156-2.711c-1.922-5-6.797-8.363-12.132-8.363h-6.633L251.12 274.3l-13.137-57.395c-.214-.93.09-1.484.188-1.629.16-.238.297-.257.379-.273l18.875-3.14c.617-.102 1.699.663 1.949 2.05l6.46 36.113c.005.008.005.012.005.02l8.48 47.367c-.02-.039-.035-.082-.054-.121m1.59-77.246-1.578-8.8c-1.68-9.392-10.359-15.81-19.336-14.317l-3.722.617 1.191-17.668h31.082l-4.566 39.43c-1.055.144-2.082.39-3.07.738m24.524 13.351c.226 0 .476.102.726.332.48.446.782 1.176.805 1.958l1.692 54.898-.297 30.496a43.3 43.3 0 0 1-10.055-3.84l-12.445-69.531-.875-11.16c-.063-.75.14-1.473.543-1.922.28-.32.504-.332.574-.336l5.015-.23h.004zM47.12 164.738c-.555 0-1.008-.449-1.008-1.004v-23.449a1.01 1.01 0 0 1 1.008-1.008h40.926a7.57 7.57 0 0 0 7.57-7.57 7.57 7.57 0 0 0-7.57-7.57H77.828l2.84-14.266h187.66l2.84 14.266H123.27c-4.18 0-7.57 3.39-7.57 7.57s3.39 7.57 7.57 7.57h178.609c.555 0 1.004.453 1.004 1.008v23.45c0 .554-.45 1.003-1.004 1.003zm143.246 15.14L183.871 468.7H165.13l-6.5-288.82zM149.984 468.7h-18.726l-19.496-288.82h31.722zm-84.48-288.82h31.082l19.496 288.82H98.965zM430.32 493.793a3.07 3.07 0 0 1-3.066 3.066H18.207a3.07 3.07 0 0 1-3.066-3.066v-6.887a3.07 3.07 0 0 1 3.066-3.066h409.047a3.07 3.07 0 0 1 3.066 3.066zm0 0"/></svg>