<svg xmlns="http://www.w3.org/2000/svg" width="512" height="512"><path fill="#b0ebd8" d="m495.31 232.137-29.308-32.407 9.178-42.719c3.838-17.861-6.477-35.725-23.863-41.332l-41.585-13.411-13.411-41.585c-5.607-17.387-23.471-27.701-41.332-23.863l-42.719 9.178h-23.075v25.94C376.637 87.603 443 164.051 443 256c0 41.119-13.282 79.13-35.775 110H246.354v99.996h65.924l42.711 9.184c17.861 3.838 35.725-6.477 41.332-23.863l13.411-41.585 41.585-13.411c17.387-5.607 27.701-23.471 23.863-41.332l-9.178-42.719 29.308-32.407c12.254-13.549 12.254-34.177 0-47.726"/><path fill="#70dcba" d="M104.775 366C82.282 335.13 69 297.119 69 256c0-103.277 83.723-187 187-187 11.328 0 22.421 1.008 33.194 2.938a300 300 0 0 1 23.075-25.94L279.863 16.69c-13.549-12.254-34.177-12.254-47.726 0L199.73 45.999l-42.719-9.178c-17.861-3.837-35.725 6.477-41.332 23.863l-13.411 41.585-41.585 13.411c-17.387 5.607-27.701 23.471-23.863 41.332l9.178 42.719-29.308 32.406c-12.254 13.549-12.254 34.177 0 47.726l29.308 32.407-9.178 42.719c-3.838 17.861 6.477 35.725 23.863 41.332l41.585 13.411 13.411 41.585c5.607 17.387 23.471 27.701 41.332 23.863l42.719-9.178 32.407 29.308c13.549 12.254 34.177 12.254 47.726 0l32.415-29.314c-29.467-29.467-51.431-63.59-65.924-99.996z"/><path fill="#70dcba" d="M376.866 166.017c-1.713-15.134-13.712-27.157-28.815-28.873-46.934-5.335-90.299 23.084-104.975 66.801v50.417l21.416 44.137c0-15.625 12.625-28.291 28.198-28.291 53.734-.001 90.093-51.916 84.176-104.191"/><path fill="#30cd9c" d="M243.075 203.947v-.002c-15.197-35.636-52.174-58.122-92.049-53.59-13.604 1.546-24.411 12.376-25.954 26.006-5.328 47.071 27.394 93.846 75.819 93.846h8.766c15.573 0 28.198 12.666 28.198 28.291l13.319 10 13.319-10c0-15.625 12.625-28.291 28.198-28.291-29.393-8.549-49.616-35.557-49.616-66.26"/><path fill="#efedff" d="m475.619 366 20.883-20.883a27.3 27.3 0 0 0 7.998-19.31c0-15.173-12.325-27.308-27.308-27.308H264.489L186.988 366l77.501 67.501 212.703-.002c15.082 0 27.308-12.226 27.308-27.308a27.3 27.3 0 0 0-7.998-19.309z"/><path fill="#d4d4ff" d="m248.122 410.522-6.341-5.6v-8.927a94.728 94.728 0 0 1-.333-59.991v-9.028l6.184-5.58a94.7 94.7 0 0 1 16.858-22.897H34.808C19.782 298.5 7.5 310.678 7.5 325.808a27.3 27.3 0 0 0 7.998 19.309l20.689 20.689q.016.178.033.355l-20.722 20.722A27.3 27.3 0 0 0 7.5 406.192c0 15.082 12.226 27.308 27.308 27.308H265.5a94.7 94.7 0 0 1-17.378-22.978"/><path d="m486.226 366 15.09-15.09c6.362-6.361 10.338-14.835 10.661-23.826.515-14.34-7.696-26.86-19.73-32.657l8.623-9.538c7.18-7.94 11.14-18.2 11.13-28.89a42.97 42.97 0 0 0-11.13-28.9l-26.73-29.55 8.37-38.96c4.641-21.69-7.849-43.244-28.89-50.05l-37.931-12.23L403.46 58.38c-6.885-21.279-28.631-33.497-50.05-28.89l-38.96 8.37-29.55-26.73C276.96 3.95 266.444 0 256 0c-10.68 0-20.97 3.95-28.89 11.13l-29.56 26.73-38.96-8.37c-21.323-4.611-43.148 7.553-50.05 28.89L96.31 96.31l-37.93 12.23c-21.144 6.839-33.516 28.447-28.89 50.05l8.37 38.96-26.73 29.55C3.95 235.04-.01 245.3 0 256c0 10.571 3.515 18.005 7.049 23.593 2.201 3.481 6.842 4.466 10.312 2.246 3.419-2.188 4.49-6.72 2.356-10.173C17.085 267.409 15 262.74 15 256c.01-6.98 2.58-13.67 7.25-18.83l29.31-32.41a7.47 7.47 0 0 0 1.77-6.6l-9.18-42.72c-3.023-14.042 4.971-28.167 18.83-32.62l41.59-13.41c2.29-.74 4.1-2.55 4.84-4.84l13.41-41.59c4.438-13.812 18.533-21.862 32.61-18.83l42.72 9.18c2.34.5 4.84-.17 6.61-1.77l32.41-29.31c5.16-4.67 11.85-7.24 18.83-7.25 6.98.01 13.66 2.58 18.83 7.25l32.41 29.31a7.56 7.56 0 0 0 6.6 1.77l42.72-9.18c14.07-3.014 28.169 4.988 32.62 18.84l13.41 41.58c.74 2.29 2.55 4.1 4.84 4.84l41.58 13.41c14.036 4.51 21.856 18.818 18.83 32.62l-9.17 42.71a7.48 7.48 0 0 0 1.77 6.61l29.311 32.41a28.08 28.08 0 0 1 7.25 18.83 28.1 28.1 0 0 1-7.25 18.83L475.121 291h-27.792a195.7 195.7 0 0 0 3.171-35c0-107.248-87.252-194.5-194.5-194.5S61.5 148.752 61.5 256c0 11.752 1.076 23.484 3.171 35h-29.17C16.418 291 .357 306.068.006 325.148c-.176 9.543 3.459 18.543 10.189 25.272L25.775 366 10.66 381.114C4.057 387.717.068 396.6.001 405.938-.138 425.247 15.53 441 34.808 441h69.664l4.069 12.619a42.947 42.947 0 0 0 50.045 28.894l38.963-8.371 29.557 26.731C235.343 508.322 245.67 512 256 512c10.28 0 20.659-3.68 28.894-11.128l29.564-26.736 38.955 8.376a42.95 42.95 0 0 0 50.046-28.894L407.528 441h21.304c4.106 0 7.688-3.164 7.811-7.269a7.5 7.5 0 0 0-7.497-7.731H34.808c-17.642 0-26.399-21.42-14.006-33.814l20.883-20.883a7.5 7.5 0 0 0 0-10.606l-20.883-20.883C8.418 327.431 17.15 306 34.808 306h442.385c17.642 0 26.399 21.421 14.006 33.814l-20.688 20.688c-2.765 2.768-3.164 7.831-.033 10.962l20.722 20.722C503.582 404.57 494.85 426 477.192 426h-17.607c-4.106 0-7.688 3.164-7.811 7.269a7.5 7.5 0 0 0 7.497 7.731h17.228c19.084 0 35.145-15.07 35.495-34.151.175-9.543-3.459-18.541-10.188-25.27zm-94.458 75-2.584 8.015a27.99 27.99 0 0 1-32.619 18.833l-42.71-9.184a7.5 7.5 0 0 0-6.607 1.77l-32.415 29.313a27.99 27.99 0 0 1-37.665 0l-32.406-29.308a7.5 7.5 0 0 0-6.606-1.77l-42.72 9.178a27.99 27.99 0 0 1-32.618-18.832L120.233 441zM257.786 291H244.56c-3.448-16.147-17.786-28.293-34.905-28.293h-8.764c-43.911 0-73.184-42.939-68.367-85.502 1.144-10.096 9.281-18.253 19.35-19.398 35.667-4.057 69.105 15.098 83.702 47.746v21.818c-17.875-23.781-43.06-41.475-71.957-49.985a7.5 7.5 0 0 0-4.237 14.389c31.705 9.338 60.073 31.342 76.968 65.601 2.673 5.455 10.45 5.638 13.328.253 21.089-38.448 55.685-66.849 97.421-79.971a7.5 7.5 0 0 0 4.904-9.404 7.5 7.5 0 0 0-9.404-4.905c-37.125 11.673-69.057 34.45-92.022 65.217V205.25c13.993-39.985 54.427-65.449 96.628-60.653 11.558 1.313 20.898 10.677 22.21 22.265 5.367 47.418-27.253 95.846-76.724 95.846-17.121-.001-31.458 12.145-34.905 28.292m174.284 0H273.406c3.003-7.765 10.504-13.293 19.283-13.293 58.525 0 98.006-56.19 91.628-112.533-2.09-18.465-16.986-33.387-35.421-35.482-24.358-2.768-49.091 2.998-69.631 16.239-15.685 10.112-28.441 24.229-36.956 40.668-8.131-12.576-19.172-23.271-32.097-30.916-18.188-10.757-38.945-15.176-60.034-12.781-16.944 1.926-30.638 15.643-32.56 32.615-5.812 51.353 30.215 102.189 83.271 102.189h8.764c8.78 0 16.281 5.528 19.285 13.293H79.931a180.7 180.7 0 0 1-3.431-35c0-98.977 80.523-179.5 179.5-179.5S435.5 157.023 435.5 256c0 11.767-1.159 23.512-3.43 35"/><path d="m317.745 327.393-27.771 72.917a7.5 7.5 0 0 0 14.017 5.339l5.077-13.33h34.267l5.022 13.308a7.5 7.5 0 0 0 9.665 4.369 7.5 7.5 0 0 0 4.369-9.665l-27.519-72.92c-2.941-7.824-14.152-7.863-17.127-.018m-2.964 49.926 11.499-30.193 11.394 30.193zM436.07 321.521h-.074a7.5 7.5 0 0 0-7.427 7.572l.491 50.765-37.955-54.961c-4.162-6.029-13.671-3.08-13.671 4.262v73.821a7.5 7.5 0 0 0 15 0v-49.762l36.243 52.481c4.985 7.202 15.584 4.047 15.583-5.285l-.691-71.466a7.5 7.5 0 0 0-7.499-7.427M241.252 336.627c6.865-.559 13.438 1.241 18.888 4.923a7.5 7.5 0 1 0 8.396-12.43c-29.337-19.817-69.353 1.224-69.353 36.879 0 26.405 22.978 46.897 48.804 44.261 20.876-2.132 35.098-19.731 35.098-44.261a7.5 7.5 0 0 0-7.5-7.5H253.46a7.5 7.5 0 0 0 0 15h13.965c-2.506 13.942-11.445 22.905-25.837 21.898-15.29-1.069-27.406-13.841-27.406-29.398.002-15.441 11.94-28.14 27.07-29.372M178.171 336.858a7.5 7.5 0 0 0 0-15h-30.879a7.5 7.5 0 0 0-7.5 7.5v73.283a7.5 7.5 0 0 0 7.5 7.5h30.879a7.5 7.5 0 0 0 0-15h-23.379V373.5h21.102a7.5 7.5 0 0 0 0-15h-21.102v-21.642zM110.194 326.019l-19.141 54.607-18.721-54.476a7.5 7.5 0 0 0-14.185 4.875l25.743 74.912a7.5 7.5 0 0 0 7.07 5.062h.023a7.5 7.5 0 0 0 7.078-5.019l26.289-75a7.5 7.5 0 0 0-14.156-4.961"/></svg>