<svg xmlns="http://www.w3.org/2000/svg" width="512" height="512" viewBox="0 0 512.01 512.01"><path fill="#fce3a0" d="m187.307 311.814-76.999 76.999c-6.552 6.552-6.552 17.176 0 23.728s17.176 6.552 23.728 0l76.998-76.998v-23.728z"/><path fill="#ff8e9e" d="m284.385 9.123-48.379 8.379 20 50.015c.405 0 .806-.015 1.211-.013 102.774.649 186.634 84.509 187.285 187.282.218 34.431-8.849 66.765-24.833 94.651-4.931 8.602-16.654 10.223-23.665 3.212L238.477 195.121h-24.399l.21 52.591 11.076 19.149 128.458 128.458c6.982 6.982 5.4 18.639-3.128 23.615-27.84 16.246-60.195 25.561-94.687 25.561l-20 50.002 48.38 8.38C408.26 488.791 504.505 383.644 504.505 256S408.26 23.209 284.385 9.123"/><path fill="#ea5b70" d="M280.605 499.497a73.79 73.79 0 0 1-24.6-55.002c-1.346 0-2.693-.009-4.045-.038-100.58-2.12-182.293-83.835-184.412-184.414-.759-36.007 8.644-69.804 25.523-98.73 4.977-8.529 16.633-10.111 23.615-3.128l108.677 108.676c-.921-5.863-1.422-11.799-1.422-17.78 0-19.802 5.222-38.001 14.534-53.959l-79.115-79.115c-6.992-6.992-5.423-18.717 3.154-23.637 27.569-15.815 59.493-24.851 93.491-24.852v-.012a73.79 73.79 0 0 1 24.6-55.002l3.779-3.38A251 251 0 0 0 256.005 7.5C118.762 7.5 7.505 118.757 7.505 256c0 147.837 128.575 263.738 276.88 246.877z"/><path fill="#fce3a0" d="M328.128 227.007a91 91 0 0 0-9.934-.991l-22.898-22.924h-49.525l-58.465 108.723 23.728 23.728c6.878 8.971 19.13 15.85 36.185 20.42 26.817 7.186 51.469 2.141 55.062-11.268 2.667-9.953-7.025-21.712-23.162-30.054 28.911 10.121 58.296 5.757 62.263-9.047 2.667-9.952-7.026-21.713-23.163-30.054 28.914 10.123 58.297 5.757 62.263-9.046 4.272-15.938-22.396-34.841-52.354-39.487"/><path fill="#ffce71" d="M318.194 226.015c10.386-2.654 22.598-9.95 33.505-20.856 19.632-19.632 27.589-43.504 17.773-53.319s-33.688-1.858-53.319 17.773c-10.906 10.906-18.202 23.092-20.856 33.478-1.471-33.956-22.949-66.96-40.478-62.263-14.829 3.973-19.151 33.408-9.047 62.263-8.342-16.137-20.102-25.829-30.054-23.163-14.81 3.968-19.165 33.362-9.047 62.263-8.342-16.137-20.102-25.829-30.054-23.162-13.409 3.593-18.454 28.245-11.268 55.062 4.569 17.055 12.988 30.844 21.958 37.723l79.641-79.641c13.62-13.62 34.787-16.163 51.246-6.158"/><path d="M409.466 134.365a7.5 7.5 0 0 0-11.742 9.334c47.969 60.343 50.661 140.563 15.437 202.008-2.515 4.388-8.385 5.108-11.854 1.638l-35.616-35.616a7.49 7.49 0 0 0 3.193-6.135 7.5 7.5 0 0 0-7.5-7.5h-9.328l-4.423-4.423a31 31 0 0 0-2.677-5.236c14.433.683 32.725-2.192 40.351-14.441h15.178c4.143 0 7.5-3.358 7.5-7.5s-3.357-7.5-7.5-7.5h-12.48c-.721-3.696-2.382-7.434-4.977-11.098-7.817-11.042-22.631-20.021-40.46-25.12 3.818-2.439 7.17-4.964 9.381-7.2 9.873-10 21.179-21.539 26.796-38.386 3.157-9.471 3.226-17.847.334-24.35l3.876-3.876a7.5 7.5 0 0 0-10.607-10.606l-3.876 3.876c-6.503-2.891-14.878-2.822-24.35.335-17.574 5.858-34.751 20.777-45.368 36.232-4.987-17.122-14.063-32.344-24.775-40.201-4.24-3.11-8.178-4.674-11.66-5.328v-12.444a7.5 7.5 0 0 0-15 0v15.177c-12.271 7.637-15.121 25.966-14.444 40.352a31 31 0 0 0-5.232-2.676l-4.425-4.425v-9.328a7.5 7.5 0 0 0-7.5-7.5 7.49 7.49 0 0 0-6.134 3.193c-48.28-48.28-47.118-45.905-47.118-50.203 0-2.74 1.414-5.187 3.782-6.546 27.206-15.607 58.244-23.856 89.759-23.857 45.711 0 88.931 17.228 122.092 47.626a7.5 7.5 0 0 0 10.597-.461 7.5 7.5 0 0 0-.46-10.597c-34.815-31.915-82.864-52.189-132.229-51.569-34.13 0-67.749 8.938-97.223 25.846-12.815 7.352-15.24 24.931-4.725 35.446l53.94 53.94c-12.082 7.729-14.891 25.876-14.214 40.207-3.176-2.014-6.423-3.355-9.666-3.976v-12.451a7.5 7.5 0 0 0-15 0v.979l-47.127-47.127c-10.437-10.436-27.919-8.162-35.397 4.652-18.125 31.062-27.304 66.563-26.543 102.668 2.232 105.887 89.188 191.794 195.956 191.794 34.614 0 68.664-9.192 98.468-26.583 12.792-7.464 15.103-24.944 4.656-35.392l-37.825-37.825h.979a7.5 7.5 0 0 0 0-15h-12.451c-.621-3.243-1.962-6.49-3.977-9.667 14.326.679 32.478-2.134 40.207-14.214l44.638 44.636c10.619 10.625 28.188 7.929 35.475-4.785 38.065-66.405 35.346-153.309-16.712-218.797M116.682 371.833c-25.276-30.412-40.737-69.307-41.636-111.948-.702-33.34 7.771-66.119 24.502-94.792 2.513-4.306 8.346-5.093 11.835-1.605l53.811 53.81c-18.855 18.586-11.037 70.03 11.336 94.688zm231.835 28.789c3.491 3.49 2.698 9.324-1.604 11.834-27.511 16.054-58.946 24.539-90.907 24.539-37.744 0-73.543-11.46-103.511-32.305l58.463-58.462c24.802 20.954 74.531 28.661 93.045 9.878.392.394 44.119 44.12 44.514 44.516M294.982 254.54a7.502 7.502 0 0 0-11.039 2.146c-1.958 3.298-.937 7.579 2.109 9.909a107.1 107.1 0 0 0 29.05 15.796c14.238 7.449 20.363 16.313 19.037 21.263-2.22 8.285-25.945 13.22-52.541 3.909l-.028-.008a92.1 92.1 0 0 1-25.425-13.723c-3.255-2.483-7.992-2.188-10.601.967a7.5 7.5 0 0 0 1.205 10.731 107.1 107.1 0 0 0 29.27 15.961c14.226 7.447 20.345 16.311 19.018 21.264-1.86 6.945-20.657 12.723-45.877 5.964-13.883-3.719-26.078-10.428-32.622-17.946-2.881-3.31-7.924-3.415-10.96-.379l-65.147 65.147a181 181 0 0 1-13.671-12.572l65.851-65.851c3.204-3.203 2.853-8.5-.74-11.255-7.953-6.098-15.339-19.016-19.277-33.713-3.134-11.695-3.858-23.648-1.986-32.795 1.484-7.255 4.457-12.145 7.95-13.081 4.955-1.33 13.822 4.795 21.271 19.03a107.8 107.8 0 0 0 15.741 29.078c2.321 3.053 6.598 4.087 9.902 2.139a7.503 7.503 0 0 0 2.18-11.033 92.9 92.9 0 0 1-13.9-25.771l-.001-.004c-9.306-26.579-4.384-50.317 3.909-52.54 4.947-1.322 13.811 4.798 21.26 19.033a107.9 107.9 0 0 0 15.741 29.079c2.321 3.053 6.598 4.087 9.902 2.139a7.503 7.503 0 0 0 2.18-11.033c-18.868-24.697-23.416-57.742-15.246-73.205 1.513-2.863 3.284-4.583 5.264-5.114 2.89-.776 6.134.999 8.348 2.623 10.362 7.601 21.686 29.409 22.696 52.748l.001.011v.003c.033.736.076 1.847.12 3.08a7.508 7.508 0 1 0 15.006-.534c-.029-.801-.058-1.513-.084-2.033 5.446-19.109 27.09-40.861 46.018-47.171 7.027-2.342 12.747-2.213 15.304.344s2.687 8.278.345 15.304c-4.632 13.894-14.837 24.079-23.234 32.585-4.425 4.476-17.662 11.842-24.182 13.522l-4.941.205c-4.103.17-7.549 3.48-7.503 7.586a7.5 7.5 0 0 0 7.811 7.415l5.558-.231c26.556 2.143 45.952 13.416 52.762 23.035 1.521 2.147 3.182 5.277 2.455 7.988-.661 2.465-3.146 4.223-5.116 5.264-12.865 6.797-45.963 5.615-73.143-15.276"/><path d="M256.005 0c-68.38 0-132.667 26.628-181.02 74.981C26.634 123.333.005 187.62.005 256c0 62.611 22.822 122.851 64.262 169.624a7.5 7.5 0 0 0 11.227-9.947C36.487 371.65 15.005 314.942 15.005 256c0-132.888 108.112-241 241-241 133.69 0 241 108.112 241 241 0 132.377-106.688 241.01-241.307 241.01-58.812 0-115.51-21.579-159.651-60.762a7.5 7.5 0 0 0-9.958 11.218c46.889 41.622 107.124 64.544 169.609 64.544 143.103 0 256.307-115.961 256.307-256.01 0-141.232-114.542-256-256-256"/></svg>