<svg xmlns="http://www.w3.org/2000/svg" width="512" height="512"><path fill="#70dcba" d="M405.549 42.569c-2.036-17.981-16.292-32.267-34.237-34.306-55.765-6.339-107.289 27.427-124.728 79.37v59.903l25.446 52.442c0-18.565 15-33.615 33.503-33.615 63.847 0 107.046-61.683 100.016-123.794"/><path fill="#30cd9c" d="M246.584 87.635v-.003c-18.057-42.341-61.991-69.059-109.369-63.673-16.164 1.837-29.005 14.704-30.838 30.9-6.331 55.928 32.549 111.504 90.085 111.504h10.416c18.503 0 33.503 15.05 33.503 33.615v11.882l15.824 10 15.826-10v-11.882c0-18.565 15-33.615 33.503-33.615-34.922-10.158-58.95-42.248-58.95-78.728"/><path fill="#7ce3ff" d="M186.202 241.859v62.901L122.844 414.5c-23.094 40 5.773 90 51.962 90h80l41.396-30V271.859l-30-30z"/><path fill="#b9f0ff" d="m389.56 414.5-63.358-109.74v-62.901h-60v62.901L202.844 414.5c-23.094 40 5.773 90 51.962 90h82.793c46.188 0 75.055-50 51.961-90"/><path fill="#7ce3ff" d="M326.202 271.859h-140c-16.568 0-30-13.432-30-30s13.432-30 30-30h140c16.568 0 30 13.432 30 30s-13.431 30-30 30"/><path fill="#70dcba" d="M363.581 429.502 330.6 372.377c-5.525-9.79-16.062-16.405-28.105-16.405-9.005 0-20.752 8.253-30.161 16.405-9.177 7.95-16.131 15.803-16.131 15.803l-74.399-15.803-32.979 57.123c-11.54 19.987 2.848 45 25.981 45h162.793c23.075 0 37.549-24.964 25.982-44.998"/><path fill="#30cd9c" d="M209.91 420.387c17.788 0 46.292-32.208 46.292-32.208s-6.954-7.853-16.131-15.803c-9.409-8.151-21.156-16.405-30.161-16.405-12.043 0-22.581 6.615-28.106 16.405-2.635 4.67-4.101 10.058-4.101 15.803-.001 17.788 14.419 32.208 32.207 32.208"/><path d="M174.806 482h162.793c28.849 0 46.935-31.208 32.478-56.249l-32.945-57.061c-7.038-12.471-20.31-20.219-34.636-20.219-9.435 0-20.907 5.965-35.072 18.236-4.407 3.818-8.289 7.581-11.221 10.555-2.932-2.974-6.814-6.738-11.22-10.555-14.165-12.271-25.637-18.236-35.072-18.236-13.776 0-27.131 7.18-34.601 20.155l-32.979 57.123C127.904 450.734 145.89 482 174.806 482m35.104-118.528c2.534 0 10.067 1.42 25.251 14.574 4.242 3.674 8.014 7.355 10.766 10.164-11.244 11.533-27.389 24.677-36.017 24.677-13.624 0-24.708-11.084-24.708-24.708 0-14.061 11.41-24.707 24.708-24.707m-54.591 69.778 17.642-30.557c5.808 14.735 20.175 25.194 36.949 25.194 20.146 0 46.775-28.936 51.909-34.737 1-1 6.596-7.455 15.426-15.105 15.183-13.153 22.716-14.573 25.25-14.573 8.924 0 17.19 4.825 21.61 12.655l32.981 57.125c8.655 14.989-2.032 33.748-19.487 33.748H174.806c-17.309 0-28.215-18.633-19.487-33.75"/><path d="M333.702 302.75v-24.146c17.096-3.484 30-18.635 30-36.745 0-20.678-16.822-37.5-37.5-37.5h-46.674c-.001-3.384-.014-4.745.036-5.733.702-13.886 12.109-24.763 25.97-24.763 23.921 0 46.4-8.091 65.006-23.399a7.5 7.5 0 1 0-9.53-11.584c-15.891 13.073-35.074 19.983-55.478 19.983-21.857 0-39.845 17.134-40.952 39.054-.054 1.054-.054 1.252-.053 6.442H247.88v-4.382c0-22.67-18.394-41.114-41.003-41.114h-10.416c-51.427 0-83.259-47.77-83.259-92.029 0-3.711.211-7.456.626-11.131 1.432-12.642 11.623-22.858 24.234-24.292 3.731-.424 7.517-.64 11.252-.64 38.915 0 73.981 22.903 89.77 58.464v30.46a172.4 172.4 0 0 0-82.789-53.813 7.5 7.5 0 1 0-4.237 14.389c37.84 11.144 69.974 35.926 90.481 69.782 2.867 4.733 9.708 4.839 12.716.183 26.588-41.178 67.013-71.963 113.828-86.683a7.5 7.5 0 0 0 4.904-9.404 7.497 7.497 0 0 0-9.404-4.905c-43.844 13.786-82.45 40.73-110.499 76.767V88.93C269.459 44.665 311.019 15 357.891 15c4.171 0 8.401.24 12.574.715 14.378 1.634 25.999 13.283 27.632 27.698.465 4.108.701 8.296.701 12.447-.001 22.267-6.782 44.453-19.096 62.471a7.5 7.5 0 0 0 12.385 8.463c13.999-20.486 21.71-45.677 21.711-70.934 0-4.713-.268-9.469-.797-14.135C410.59 20.433 393.413 3.226 372.158.81 367.426.273 362.625 0 357.891 0c-48.095 0-91.282 27.47-112.077 69.823-20.396-33.291-56.708-54.052-96.499-54.052-4.3 0-8.656.248-12.947.736-19.486 2.215-35.233 17.99-37.443 37.509a114 114 0 0 0-.722 12.818c0 27.169 9.909 54.156 27.185 74.041 18.482 21.273 43.724 32.989 71.074 32.989h10.416c14.338 0 26.003 11.715 26.003 26.114v4.382h-46.679c-20.678 0-37.5 16.822-37.5 37.5 0 18.11 12.904 33.261 30 36.745v24.146l-62.353 108c-7.529 13.041-10.828 28.5-8.278 44.286a7.5 7.5 0 0 0 8.6 6.208 7.5 7.5 0 0 0 6.208-8.6c-1.834-11.342.042-23.277 6.46-34.395l62.421-108.117a14.5 14.5 0 0 0 1.942-7.249v-23.525h19.5a7.5 7.5 0 0 0 0-15h-27c-12.407 0-22.5-10.093-22.5-22.5s10.093-22.5 22.5-22.5h140c12.406 0 22.5 10.093 22.5 22.5s-10.094 22.5-22.5 22.5h-83a7.5 7.5 0 0 0 0 15h75.5v23.525c0 2.542.67 5.046 1.939 7.244l62.424 108.121c20.165 34.927-5.098 78.75-45.467 78.75H174.806c-16.484 0-31.647-7.458-41.602-20.459a7.5 7.5 0 0 0-10.514-1.396 7.5 7.5 0 0 0-1.396 10.514c12.816 16.74 32.32 26.341 53.512 26.341h162.793c51.538 0 84.613-55.948 58.457-101.25z"/></svg>