<svg xmlns="http://www.w3.org/2000/svg" width="512" height="512"><path fill="#30cd9c" d="M256 504.5c61.154 0 116.029-26.852 153.504-69.399 36.205 16.336 77.495-10.167 77.495-50.083 0-21.238-12.06-39.648-29.699-48.79C479.83 210.207 382.875 95.5 256 95.5L51.532 293.532l197.865 209.315z"/><path fill="#18c08b" d="M256 95.5c-126.972 0-223.814 114.796-201.3 240.729-17.638 9.142-29.699 27.551-29.699 48.79 0 39.888 41.26 66.433 77.495 50.083C139.971 477.648 194.846 504.5 256 504.5c-112.942-112.942-112.943-296.058 0-409"/><path fill="#b0ebd8" d="M385.348 37.726c-1.761-15.501-14.091-27.816-29.613-29.574-29.72-3.367-60.636 6.319-83.431 29.084-11.468 11.453-19.607 24.963-24.449 39.338v51.641l22.009 45.208c0-16.004 12.974-28.978 28.978-28.978 21.3 0 41.934-8.102 57.062-23.077l.321-.32c22.795-22.766 32.494-53.642 29.123-83.322"/><path fill="#70dcba" d="M247.856 76.576v-.002a91.2 91.2 0 0 0-19.449-28.694c-20.532-20.505-48.378-29.229-75.147-26.197-13.981 1.584-25.087 12.676-26.673 26.638-3.036 26.734 5.699 54.544 26.231 75.05l.289.287c13.626 13.488 32.211 20.786 51.396 20.786h9.009c16.004 0 28.978 12.974 28.978 28.978v34.534l13.506 13.506 13.868-13.506v-34.534c0-16.004 12.974-28.978 28.978-28.978-30.204-8.756-50.986-36.42-50.986-67.868"/><g fill="#b0ebd8"><path d="M432 312.528c-39.977 0-72.5 32.523-72.5 72.5s32.523 72.5 72.5 72.5 72.5-32.523 72.5-72.5-32.523-72.5-72.5-72.5m0 108.75c-19.988 0-36.25-16.262-36.25-36.25s16.262-36.25 36.25-36.25 36.25 16.262 36.25 36.25-16.262 36.25-36.25 36.25M134.144 366.936H111.24c-9.992 0-18.092 8.1-18.092 18.092s8.091 18.092 18.083 18.092a36.5 36.5 0 0 1-5.776 7.494c-6.836 6.835-15.922 10.598-25.587 10.598-19.952 0-36.184-16.232-36.184-36.184s16.239-36.184 36.19-36.184c9.992 0 18.099-8.1 18.099-18.092s-8.107-18.092-18.099-18.092C39.97 312.66 7.5 345.124 7.5 385.028s32.464 72.368 72.368 72.368c19.329 0 37.501-7.527 51.172-21.196 13.668-13.67 21.196-31.844 21.196-51.172 0-9.992-8.101-18.092-18.092-18.092M297.058 317.995l-41.448 41.677-41.448-41.677c-11.374-11.438-30.92-3.327-30.92 12.758v108.552c0 9.992 8.1 18.092 18.092 18.092s18.092-8.1 18.092-18.092v-64.702l23.356 23.485c7.07 7.11 18.585 7.11 25.656 0l23.356-23.485v64.702c0 9.992 8.1 18.092 18.092 18.092s18.092-8.1 18.092-18.092V330.752c.001-16.127-19.58-24.161-30.92-12.757"/></g><g fill="#b0ebd8"><path d="M256 202.475c-25.104 0-45.526 20.423-45.526 45.526s20.423 45.526 45.526 45.526 45.526-20.423 45.526-45.526-20.422-45.526-45.526-45.526m0 61.052c-8.562 0-15.526-6.965-15.526-15.526s6.965-15.526 15.526-15.526 15.526 6.965 15.526 15.526-6.964 15.526-15.526 15.526M165.474 202.475c-8.284 0-15 6.716-15 15v15.233l-17.677-24.104a15 15 0 0 0-16.763-5.386 15 15 0 0 0-10.333 14.256v61.053c0 8.284 6.716 15 15 15s15-6.716 15-15v-15.233l17.677 24.104c8.548 11.659 27.096 5.588 27.096-8.87v-61.053c0-8.285-6.716-15-15-15M391.298 202.475c-8.284 0-15 6.716-15 15v15.232l-17.676-24.103a15 15 0 0 0-16.763-5.386 15 15 0 0 0-10.333 14.256v61.053c0 8.284 6.716 15 15 15s15-6.716 15-15v-15.232l17.676 24.103c8.548 11.659 27.096 5.588 27.096-8.87v-61.053c0-8.285-6.715-15-15-15"/></g><path d="M359.6 40.076a7.5 7.5 0 0 0-9.4-4.914c-42.377 13.281-78.166 40.608-102.036 77.608-18.383-30.417-47.648-53.136-82.028-63.228-3.974-1.168-8.142 1.109-9.309 5.084s1.109 8.142 5.084 9.309c34.661 10.175 63.523 34.68 79.186 67.231q.015.028.032.055c2.649 5.404 10.346 5.629 13.298.307 21.695-39.449 57.301-68.59 100.259-82.053a7.5 7.5 0 0 0 4.914-9.399M309.887 464.896c14.111 0 25.592-11.48 25.592-25.592V330.752c0-22.817-27.658-34.219-43.738-18.046l-36.13 36.33-36.129-36.329c-16.076-16.169-43.739-4.78-43.739 18.045v108.552c0 14.111 11.48 25.592 25.592 25.592s25.592-11.48 25.592-25.592v-46.525l10.538 10.596c10.011 10.067 26.282 10.067 36.292 0l10.538-10.596v46.525c-.001 14.112 11.48 25.592 25.592 25.592m-46.766-72.098c-4.142 4.165-10.879 4.165-15.021 0l-23.356-23.485a7.5 7.5 0 0 0-12.818 5.288v64.703c0 5.84-4.751 10.592-10.592 10.592s-10.592-4.751-10.592-10.592V330.752c0-9.396 11.449-14.16 18.103-7.469l41.448 41.677a7.503 7.503 0 0 0 10.636 0l41.448-41.678c6.621-6.66 18.102-1.965 18.102 7.469v108.552c0 5.84-4.751 10.592-10.592 10.592s-10.592-4.751-10.592-10.592V374.6c0-6.705-8.132-10-12.818-5.289z"/><path d="M326.267 484.088C303.855 492.656 280.214 497 256 497c-47.526 0-92.827-16.905-128.599-47.797 20.029-14.851 32.335-38.215 32.335-64.175 0-14.111-11.48-25.592-25.592-25.592H111.24c-14.111 0-25.592 11.48-25.592 25.592 0 9.368 5.058 17.577 12.585 22.037-5.147 4.304-11.577 6.647-18.366 6.647-15.816 0-28.684-12.867-28.684-28.684s12.87-28.684 28.69-28.684c14.115 0 25.599-11.48 25.599-25.592S93.989 305.16 79.873 305.16c-7.062 0-13.997.939-20.73 2.757-1.533-37.05 7.518-72.655 24.367-103.093a7.5 7.5 0 1 0-13.123-7.265 211.3 211.3 0 0 0-25.97 115.927C17.264 326.939 0 354.448 0 385.028c0 44.039 35.829 79.868 79.868 79.868a80 80 0 0 0 34.037-7.605C152.953 492.611 203.2 512 256 512c26.18 0 51.495-4.677 75.623-13.9a7.5 7.5 0 0 0-5.356-14.012M15 385.028c0-26.32 15.751-49.848 40.13-59.95l.046-.019a64.3 64.3 0 0 1 24.698-4.899c5.844 0 10.599 4.751 10.599 10.592 0 5.84-4.754 10.592-10.599 10.592-24.091 0-43.69 19.597-43.69 43.684s19.596 43.684 43.684 43.684c16.075 0 30.233-8.676 37.854-21.833 2.894-4.997-.724-11.259-6.49-11.259-5.835 0-10.583-4.751-10.583-10.592s4.751-10.592 10.592-10.592h22.903c5.841 0 10.592 4.751 10.592 10.592 0 35.928-29.128 64.868-64.868 64.868-35.768 0-64.868-29.1-64.868-64.868M232.974 248.001c0 12.697 10.33 23.026 23.026 23.026s23.026-10.33 23.026-23.026-10.33-23.026-23.026-23.026-23.026 10.329-23.026 23.026m31.053 0c0 4.426-3.601 8.026-8.026 8.026s-8.026-3.601-8.026-8.026 3.601-8.026 8.026-8.026 8.026 3.6 8.026 8.026M432 341.278c-24.124 0-43.75 19.626-43.75 43.75s19.626 43.75 43.75 43.75 43.75-19.626 43.75-43.75-19.626-43.75-43.75-43.75m0 72.5c-15.853 0-28.75-12.897-28.75-28.75s12.897-28.75 28.75-28.75 28.75 12.897 28.75 28.75-12.897 28.75-28.75 28.75M368.098 284.937l5.057 6.896c12.849 17.526 40.645 8.376 40.645-13.305v-61.053c0-12.407-10.094-22.5-22.5-22.5-10.181 0-18.804 6.796-21.57 16.091l-5.058-6.897c-12.827-17.485-40.644-8.389-40.644 13.306v61.053c0 12.407 10.094 22.5 22.5 22.5 10.18-.001 18.803-6.797 21.57-16.091m-8.904-28.77a7.5 7.5 0 0 0-5.167 7.128v15.232c0 4.136-3.364 7.5-7.5 7.5s-7.5-3.364-7.5-7.5v-61.053c0-7.246 9.28-10.256 13.548-4.435l17.676 24.103c4.27 5.825 13.548 2.795 13.548-4.436v-15.232c0-4.136 3.364-7.5 7.5-7.5s7.5 3.364 7.5 7.5v61.053c0 7.225-9.285 10.25-13.548 4.435l-17.676-24.103a7.5 7.5 0 0 0-8.381-2.692"/><path d="M165.474 194.975c-10.181 0-18.804 6.797-21.571 16.092l-5.058-6.897c-12.816-17.479-40.644-8.407-40.644 13.305v61.053c0 12.407 10.093 22.5 22.5 22.5 10.181 0 18.804-6.797 21.571-16.092l5.058 6.896c12.851 17.527 40.644 8.375 40.644-13.305v-61.053c0-12.406-10.093-22.499-22.5-22.499m7.5 83.552c0 7.223-9.282 10.253-13.548 4.435l-17.677-24.104a7.502 7.502 0 0 0-13.548 4.436v15.233c0 4.136-3.364 7.5-7.5 7.5s-7.5-3.364-7.5-7.5v-61.053c0-7.216 9.262-10.278 13.548-4.435l17.677 24.104c4.271 5.825 13.548 2.793 13.548-4.436v-15.233c0-4.136 3.364-7.5 7.5-7.5s7.5 3.364 7.5 7.5z"/><path d="M467.603 313.411c5.01-77.874-33.621-152.466-99.974-193.663 19.48-22.902 28.605-52.618 25.171-82.858-2.139-18.829-17.372-34.044-36.22-36.18-4.095-.465-8.16-.71-12.181-.71C303 0 265.336 23.62 247.085 59.164c-20.166-31.421-56.453-49.252-94.67-44.922-17.319 1.962-31.315 15.943-33.28 33.244-3.071 27.037 4.927 53.611 22.067 74.266-20.702 13.358-38.785 30.073-53.829 49.803a7.5 7.5 0 0 0 11.928 9.096c14.606-19.155 32.288-35.256 52.607-47.932 14.349 12.272 33.207 19.238 52.596 19.238h9.009c11.843 0 21.478 9.635 21.478 21.478v25.884c-19.358 8.316-32.017 27.231-32.017 48.684 0 29.239 23.788 53.026 53.026 53.026s53.026-23.788 53.026-53.026c0-21.263-12.519-40.117-31.662-48.52v-26.049c0-11.843 9.635-21.478 21.478-21.478 21.705 0 42.061-7.514 57.962-21.237 62.115 37.098 98.987 105.3 96.073 177.103a79.5 79.5 0 0 0-20.878-2.792c-44.112 0-80 35.888-80 80 0 25.478 12.218 49.28 32.447 64.274-9.922 8.546-20.658 16.11-32.047 22.519a7.5 7.5 0 0 0-2.858 10.214 7.5 7.5 0 0 0 10.214 2.858 213 213 0 0 0 38.205-27.499A80 80 0 0 0 432 465.03c44.112 0 80-35.888 80-80 0-30.588-17.257-58.128-44.397-71.619m-173.576-65.41c0 20.968-17.059 38.026-38.026 38.026s-38.026-17.059-38.026-38.026c0-21.881 17.9-38.061 38.026-38.042 20.622.022 38.026 16.629 38.026 38.042m4.816-111.046c-20.114 0-36.478 16.364-36.478 36.478v21.937a53.6 53.6 0 0 0-12.374-.044v-21.893c0-20.114-16.364-36.478-36.478-36.478h-9.009c-44.533 0-75.532-43.16-70.464-87.777 1.184-10.424 9.622-18.849 20.064-20.032 38.362-4.342 72.785 17.503 86.856 50.389 2.7 6.307 11.808 5.963 14.003-.556 13.87-41.175 54.842-68.474 99.929-63.364 11.972 1.356 21.646 11.016 23.004 22.968 5.644 49.693-28.833 98.372-79.053 98.372M432 450.028c-35.929 0-65-29.359-65-65 0-35.841 29.159-65 65-65 35.356 0 65 28.597 65 65 0 35.842-29.159 65-65 65"/></svg>