<svg xmlns="http://www.w3.org/2000/svg" width="512" height="512"><path fill="#ff8e9e" d="M284.379 9.123 236 17.502l20 50.015c.405 0 .806-.015 1.211-.013 102.774.649 186.634 84.509 187.285 187.282.218 34.431-8.849 66.765-24.833 94.651-4.931 8.602-16.654 10.223-23.665 3.212L238.471 195.121h-24.399l.21 52.591 11.076 19.149 128.458 128.458c6.982 6.982 5.4 18.639-3.128 23.615-27.84 16.246-60.195 25.561-94.687 25.561l-20 50.002 48.38 8.38C408.255 488.791 504.5 383.644 504.5 256S408.255 23.209 284.379 9.123"/><path fill="#ea5b70" d="M280.6 499.497a73.79 73.79 0 0 1-24.6-55.002c-1.346 0-2.693-.009-4.045-.038-100.58-2.12-182.293-83.835-184.412-184.414-.759-36.007 8.644-69.804 25.523-98.73 4.977-8.529 16.633-10.111 23.615-3.128l108.677 108.676c-.921-5.863-1.422-11.799-1.422-17.78 0-19.802 5.222-38.001 14.534-53.959l-79.115-79.115c-6.992-6.992-5.423-18.717 3.154-23.637C190.078 76.553 222.002 67.517 256 67.517v-.012a73.79 73.79 0 0 1 24.6-55.002l3.779-3.38A251 251 0 0 0 256 7.5C118.757 7.5 7.5 118.757 7.5 256c0 147.837 128.575 263.738 276.88 246.877z"/><path fill="#ffb39d" d="M207.074 202.983c-16.862-16.862-39.339-26.048-63.333-25.671-16.198.273-29.253 13.355-29.492 29.554-.353 23.908 8.76 46.382 25.659 63.281l21.213 21.214 67.164-67.164z"/><path fill="#ff8f71" d="M144.246 207.309c-.231 15.681 5.769 30.519 16.876 41.626l24.738-24.738c-11.193-11.194-26.049-17.15-41.614-16.888"/><path fill="#fad5cb" d="M304.926 202.983c16.862-16.862 39.339-26.048 63.333-25.671 16.198.273 29.253 13.355 29.492 29.554.353 23.908-8.76 46.382-25.659 63.281l-21.213 21.214-67.164-67.164z"/><path fill="#ffb39d" d="M367.754 207.309c.231 15.681-5.769 30.519-16.876 41.626l-24.738-24.738c11.193-11.194 26.049-17.15 41.614-16.888"/><path fill="#fad5cb" d="M366.93 262.173c-2.997-6.866-6.683-13.561-10.977-19.953-14.25-21.214-35.19-39.082-59.833-48.725h-64.118v192.578h54c51.755-7.61 89.997-35.636 89.997-82.788.001-13.693-3.225-27.726-9.069-41.112"/><path fill="#ffb39d" d="M229.538 305.373c0-41.797 26.654-86.514 66.582-111.878-12.663-4.956-26.172-7.696-40.121-7.696-65.894 0-120 61.2-120 117.486 0 55.889 53.726 84.907 120 84.907 10.36 0 20.413-.709 30.003-2.119-34.191-15.405-56.464-42.482-56.464-80.7"/><path fill="#ff8f71" d="M287.786 271.621c-9.941-8.334-21.269-13.626-31.79-13.626-10.44 0-21.808 5.284-31.806 13.646-8.646 7.231-16.144 16.778-21.195 26.81-9.002 17.879-10.366 37.262 2.175 47.35 11.84 9.525 35.339 12.194 50.827 12.194 15.61 0 39.005-2.699 50.826-12.194 12.617-10.135 11.141-29.511 2.137-47.353-5.079-10.061-12.585-19.626-21.174-26.827"/><path d="M256 0C187.62 0 123.333 26.629 74.98 74.98 26.629 123.333 0 187.62 0 256c0 37.057 7.726 72.775 22.963 106.163 14.67 32.146 35.503 60.484 61.921 84.231a7.5 7.5 0 0 0 10.027-11.156C44.126 389.589 15 324.259 15 256 15 123.112 123.112 15 256 15s241 108.112 241 241c0 132.365-106.675 241.01-241.309 241.01-49.633.001-97.364-15.098-138.033-43.665a7.5 7.5 0 0 0-10.448 1.827 7.5 7.5 0 0 0 1.826 10.448C152.245 495.97 202.957 512 255.691 512 398.166 512 512 396.665 512 256 512 113.906 396.874 0 256 0"/><path d="M138.922 170.197c-.703-1.223.161-.216-16.938-17.316-10.517-10.515-27.994-8.032-35.396 4.651C69.194 187.342 60 221.393 60 256.002q0 2.093.044 4.199c1.066 50.588 21.479 98.274 57.479 134.274s83.685 56.413 134.269 57.479c1.407.03 2.808.04 4.208.04 34.615 0 68.664-9.192 98.468-26.584 12.69-7.406 15.163-24.882 4.651-35.396l-15.951-15.951c13.806-8.633 24.359-19.641 31.173-32.465l16.354 16.353c10.602 10.607 28.173 7.952 35.475-4.784 16.898-29.478 25.83-63.078 25.83-97.169l-.003-1.26c-.172-27.132-5.845-53.412-16.86-78.11-10.637-23.847-25.716-45.076-44.818-63.099a7.5 7.5 0 0 0-10.602.308 7.5 7.5 0 0 0 .309 10.602c36.424 34.366 56.657 80.674 56.972 130.383l.003 1.176c0 31.478-8.245 62.498-23.844 89.709-2.513 4.383-8.381 5.111-11.855 1.637l-20.893-20.892c2.044-7.302 3.093-15.083 3.093-23.167 0-9.673-1.494-19.615-4.41-29.57 17.258-18.135 26.531-41.816 26.16-66.958-.301-20.373-16.494-36.6-36.874-36.942-22.161-.339-43.395 6.946-60.57 20.618-16.487-7.957-34.246-12.133-51.806-12.133-7.219 0-14.503.704-21.667 2.078-75.655-75.656-71.873-70.604-71.873-74.958 0-2.74 1.414-5.187 3.782-6.546C193.447 83.267 224.485 75.017 256 75.017q.345 0 .688-.007l.476-.005c35.951.227 70.683 11.082 100.44 31.391a7.5 7.5 0 0 0 8.455-12.39c-32.231-21.998-69.854-33.755-108.801-34.001h-.138q-.345 0-.688.007l-.432.005c-34.13 0-67.749 8.938-97.223 25.846-12.69 7.28-15.328 24.846-4.725 35.446l63.561 63.562a126 126 0 0 0-13.397 5.577c-23.085-18.382-51.049-22.297-65.294-20.251m-.3 15.325c8.549-2.193 31.504-.378 51.272 13.001-4.486 2.91-8.83 6.1-13 9.562-9.983-5.611-21.244-8.462-32.774-8.276a7.5 7.5 0 0 0-7.373 7.389c-.188 12.72 3.263 25.006 9.974 35.644a133 133 0 0 0-7.863 14.816c-11.354-14.394-17.383-32.115-17.109-50.682.148-10.115 7.088-18.937 16.873-21.454m26.549 33.464a142 142 0 0 0-8.856 10.152 49.6 49.6 0 0 1-4.079-13.843 49.5 49.5 0 0 1 12.935 3.691m183.341 181.636c3.481 3.479 2.721 9.31-1.604 11.834-27.511 16.054-58.946 24.539-90.907 24.539-1.292 0-2.585-.008-3.887-.036-97.244-2.05-175.022-79.83-177.072-177.073a187 187 0 0 1-.041-3.884c0-31.956 8.487-63.393 24.543-90.909 2.526-4.328 8.355-5.084 11.836-1.604l12.404 12.404c-10.229 6.683-16.845 18.16-17.033 30.863-.37 25.042 8.923 48.789 26.168 66.921-2.917 9.946-4.418 19.874-4.418 29.607 0 64.203 62.736 92.407 127.5 92.407 27.573 0 52.716-4.914 73.333-14.248zm19.621-215.81c12.223.205 21.938 9.941 22.119 22.165.275 18.64-5.761 36.314-17.118 50.7a133 133 0 0 0-7.877-14.825 65.1 65.1 0 0 0 9.995-35.653 7.5 7.5 0 0 0-7.373-7.389c-11.647-.181-22.818 2.652-32.771 8.262a137 137 0 0 0-12.998-9.568c13.499-9.144 29.461-13.959 46.023-13.692m-8.379 30.474a50.1 50.1 0 0 1-4.088 13.846 142 142 0 0 0-8.853-10.149 49 49 0 0 1 12.941-3.697M256 193.299c61.88 0 112.5 58.005 112.5 109.985 0 55.566-57.544 77.407-112.5 77.407-51.897 0-112.5-20.272-112.5-77.407 0-52.481 51.068-109.985 112.5-109.985"/><path d="M170.051 278.852v12c0 4.142 3.357 7.5 7.5 7.5s7.5-3.358 7.5-7.5v-12c0-4.142-3.357-7.5-7.5-7.5s-7.5 3.357-7.5 7.5M334.448 298.352a7.5 7.5 0 0 0 7.5-7.5v-12c0-4.142-3.357-7.5-7.5-7.5s-7.5 3.358-7.5 7.5v12a7.5 7.5 0 0 0 7.5 7.5M200.475 351.645c22.926 18.444 88.064 18.467 111.051.004 14.348-11.525 15.933-33.205 4.135-56.58-5.568-11.034-13.754-21.402-23.05-29.194v-.001c-11.83-9.916-24.831-15.378-36.608-15.378-22.919 0-47.475 20.302-59.7 44.582-11.761 23.359-10.163 45.034 4.172 56.567m9.226-49.822c10.357-20.57 30.494-36.328 46.303-36.328 16.059 0 35.96 15.908 46.267 36.331 6.6 13.077 10.029 29.961-.138 38.127-17.418 13.992-74.895 13.97-92.255.004-10.179-8.189-6.458-25.661-.177-38.134"/><path d="M228.553 329.852a7.5 7.5 0 0 0 9.396-4.921l5.526-17.683a7.5 7.5 0 0 0-14.317-4.474l-5.526 17.683a7.5 7.5 0 0 0 4.921 9.395M274.055 324.93a7.5 7.5 0 0 0 14.317-4.474l-5.526-17.683a7.5 7.5 0 0 0-14.317 4.474z"/></svg>