<svg xmlns="http://www.w3.org/2000/svg" width="512" height="512"><path fill="#ff8e9e" d="M284.379 9.123 236 17.502l20 50.015c.405 0 .806-.015 1.211-.013 143.351.906 234.015 157.089 162.451 281.933-4.931 8.602-16.654 10.223-23.665 3.212L238.47 195.121h-24.399l.21 52.591 11.076 19.149 128.458 128.458c6.982 6.982 5.4 18.639-3.128 23.615-27.84 16.246-60.195 25.561-94.687 25.561l-20 50.002 48.38 8.38C408.255 488.791 504.5 383.644 504.5 256S408.255 23.209 284.379 9.123"/><path fill="#ea5b70" d="M280.6 499.497a73.79 73.79 0 0 1-24.6-55.002c-102.598 0-186.313-82.668-188.458-184.452-.759-36.007 8.644-69.804 25.523-98.73 4.977-8.529 16.633-10.111 23.615-3.128l108.677 108.676c-.921-5.863-1.422-11.799-1.422-17.78 0-19.802 5.222-38.001 14.534-53.959l-79.115-79.115c-6.992-6.992-5.423-18.717 3.154-23.637 27.57-15.817 59.494-24.853 93.492-24.853v-.012a73.79 73.79 0 0 1 24.6-55.002l3.779-3.38A251 251 0 0 0 256 7.5C118.757 7.5 7.5 118.757 7.5 256c0 147.837 128.575 263.738 276.88 246.877z"/><path fill="#ff8e9e" d="M266.349 114.09c-6.515-3.688-14.011-5.807-21.969-5.807-19.376 0-36.053 12.516-42.333 29.836a25.3 25.3 0 0 0-10.667-2.344c-14.051 0-25.441 11.39-25.441 25.441s11.39 25.441 25.441 25.441c6.534 0 12.49-2.465 16.995-6.513 8.238 10.981 21.351 18.139 36.005 18.139 10.479 0 20.221-3.699 27.932-9.83z"/><path fill="#ffb5c0" d="M294.38 104.284a44.8 44.8 0 0 0-28.031 9.807c-10.828 8.648-17.521 22.093-16.868 37.128.694 15.98 9.7 29.83 22.831 37.235 6.526 3.685 14.039 5.83 22.068 5.83 24.853 0 45-20.147 45-45s-20.147-45-45-45"/><path fill="#efedff" d="m249.481 151.219-68.028 27.028v161.735l58.107 43.107a29.88 29.88 0 0 0 20 7.645c12.874 0 23.85-8.111 28.107-19.5 5.498 5.87 13.324 9.533 22.009 9.5 16.629-.063 29.884-14.011 29.884-30.64v-99.36c-.001-51.885-39.503-94.54-90.079-99.515"/><path fill="#d4d4ff" d="M238.142 150.743c-53.466.741-97.272 44.08-98.553 97.535-.356 14.833 2.521 28.956 7.975 41.713 6.245 14.609 4.921 31.415-3.483 44.897-3.243 5.204-4.937 11.473-4.434 18.162 1.122 14.943 13.449 26.917 28.416 27.646 9.234.45 17.602-3.284 23.39-9.463 4.257 11.389 15.233 19.5 28.107 19.5a29.88 29.88 0 0 0 20-7.645 164.25 164.25 0 0 1-48.107-116.14v-15.837c0-41.302 22.15-79.432 58.028-99.893-3.72-.365-7.511-.528-11.339-.475"/><path fill="#ffce71" d="m325.963 292.614 13.596 13.596 25.418-14.769c9.952-5.783 9.952-20.156 0-25.939l-25.418-14.769-13.596 13.596c-7.811 7.811-7.811 20.475 0 28.285"/><path fill="#ff8e9e" d="M278.451 256.98c-16.016 0-29 10.297-29 23s12.984 23 29 23 29-10.298 29-23-12.984-23-29-23"/><path d="M293.5 268.233a7.5 7.5 0 0 0 7.5-7.5v-7.5c0-4.143-3.358-7.5-7.5-7.5s-7.5 3.357-7.5 7.5v7.5a7.5 7.5 0 0 0 7.5 7.5"/><path d="M256 0C114.509 0 0 114.497 0 256c0 62.611 22.822 122.852 64.262 169.624a7.5 7.5 0 1 0 11.227-9.947C36.482 371.65 15 314.943 15 256 15 123.112 123.112 15 256 15c133.682 0 241 108.106 241 241 0 132.365-106.675 241.01-241.309 241.01-58.811 0-115.509-21.579-159.65-60.762a7.5 7.5 0 0 0-9.958 11.219C132.972 489.088 193.207 512 255.691 512 403.525 512 512 391.872 512 256 512 114.801 397.491 0 256 0"/><path d="M121.984 152.881c-10.438-10.437-27.92-8.161-35.397 4.651-18.125 31.062-27.304 66.564-26.543 102.669C62.277 366.109 149.252 451.995 256 451.995c34.615 0 68.664-9.192 98.468-26.584 12.799-7.47 15.099-24.947 4.651-35.396l-18.54-18.54c4.215-6.275 6.481-13.653 6.481-21.381v-35.776c23.275 23.275 41.444 41.444 43.634 43.632 10.6 10.608 28.174 7.958 35.476-4.783 40.626-70.87 33.041-160.321-20.723-223.69a7.5 7.5 0 0 0-11.437 9.705c49.526 58.375 56.743 140.943 19.146 206.525-2.49 4.345-8.346 5.148-11.855 1.637l-43.22-43.22 10.665-6.197c7.011-4.073 11.196-11.346 11.196-19.454.001-8.108-4.185-15.382-11.195-19.455h-.001l-21.779-12.655c-.834-20.314-7.473-40.073-18.996-56.754 11.823-9.892 18.911-24.709 18.911-40.326 0-42.066-46.856-66.534-81.225-43.945-11.342-5.104-23.969-5.971-36.049-2.393-13.575 4.023-25.106 13.48-31.674 25.969a32.5 32.5 0 0 0-14.695.367l-18.579-18.579c-3.483-3.483-2.744-9.346 1.583-11.828C193.446 83.268 224.484 75.018 256 75.017q.352-.001.703-.008l.413-.006.048.001c42.65.27 84.044 15.809 116.557 43.757a7.5 7.5 0 0 0 9.777-11.375c-35.2-30.259-80.024-47.086-126.22-47.382l-.143-.001q-.353.001-.704.008l-.431.006c-34.131.001-67.75 8.938-97.223 25.846-12.689 7.281-15.329 24.845-4.725 35.446l15.372 15.373c-6.999 6.237-10.984 15.085-10.984 24.536 0 5.29 1.285 10.486 3.688 15.136a109 109 0 0 0-7.713 8.957zm224.923 259.575C230.81 480.204 78.01 400.79 75.041 259.885c-.702-33.34 7.771-66.119 24.502-94.792 2.506-4.293 8.335-5.107 11.835-1.604l34.571 34.571c-16.937 29.921-18.02 65.081-5.282 94.882 5.279 12.349 4.176 26.547-2.952 37.981-15.043 24.138 1.39 55.872 29.982 57.267a37.5 37.5 0 0 0 21.476-5.498c11.604 15.972 33.616 20.352 50.385 9.763 16.791 10.603 38.802 6.189 50.392-9.771 12.203 7.479 27.765 7.526 40.006-.615l18.555 18.555c3.487 3.482 2.705 9.317-1.604 11.832m18.033-133.983c0 1.298-.363 4.527-3.731 6.484l-20.428 11.869-9.515-9.516c-4.874-4.873-4.874-12.804 0-17.677l9.516-9.516 20.427 11.868h-.001c3.369 1.959 3.732 5.19 3.732 6.488M195.107 143.648c6.381 1.385 12.971-1.737 16.021-7.602 4.681-9.001 12.97-15.824 22.74-18.72 9.725-2.882 19.948-1.714 28.787 3.29a7.5 7.5 0 0 0 8.371-.664c24.032-19.167 60.854-2.597 60.854 29.33 0 11.048-4.981 21.525-13.285 28.592-20.711-22.512-49.676-35.072-80.558-34.631-23.263.322-45.666 8.229-64.04 22.441a18 18 0 0 1-.559-4.469c0-5.524 2.364-10.472 6.657-13.932 4.289-3.452 9.759-4.78 15.012-3.635m43.138 14.594c50.635-.64 92.158 39.167 93.751 89.447l-11.337 11.337c-10.722 10.723-10.722 28.169 0 38.892l11.4 11.4v40.775c0 20.465-24.651 31.247-38.919 16.013-3.795-4.051-10.551-2.712-12.5 2.501-5.483 14.672-24.204 19.523-36.079 8.893a7.5 7.5 0 0 0-10.005 0c-11.872 10.63-30.595 5.781-36.078-8.892-1.946-5.209-8.7-6.556-12.499-2.503a22.53 22.53 0 0 1-17.552 7.101c-16.472-.803-27.256-19.469-17.982-34.35 9.718-15.591 11.218-34.96 4.015-51.812-25.936-60.668 18.761-127.9 83.785-128.802"/></svg>