<svg xmlns="http://www.w3.org/2000/svg" width="512" height="512"><path fill="#ff8e9e" d="M284.379 9.123 236 17.502l20 50.015c.405 0 .806-.015 1.211-.013 102.774.649 186.634 84.509 187.285 187.282.218 34.431-8.849 66.765-24.833 94.651-4.931 8.602-16.654 10.223-23.665 3.212L238.471 195.121h-24.399l.21 52.591 11.076 19.149 128.458 128.458c6.982 6.982 5.4 18.639-3.128 23.615-27.84 16.246-60.195 25.561-94.687 25.561l-20 50.002 48.38 8.38C408.255 488.791 504.5 383.644 504.5 256S408.255 23.209 284.379 9.123"/><path fill="#ea5b70" d="M280.6 499.497a73.79 73.79 0 0 1-24.6-55.002c-1.346 0-2.693-.009-4.045-.038-100.58-2.12-182.293-83.835-184.412-184.414-.759-36.007 8.644-69.804 25.523-98.73 4.977-8.529 16.633-10.111 23.615-3.128l108.677 108.676c-.921-5.863-1.422-11.799-1.422-17.78 0-19.802 5.222-38.001 14.534-53.959l-79.115-79.115c-6.992-6.992-5.423-18.717 3.154-23.637C190.078 76.553 222.002 67.517 256 67.517v-.012a73.79 73.79 0 0 1 24.6-55.002l3.779-3.38A251 251 0 0 0 256 7.5C118.757 7.5 7.5 118.757 7.5 256c0 147.837 128.575 263.738 276.88 246.877z"/><path fill="#fad5cb" d="m276.285 106.125-75.143 29.189v236.244h144.481a129.1 129.1 0 0 0 24.7-33.958v-14.88h6.333c4.749-13.455 7.343-27.935 7.343-43.027.001-77.423-46.662-158.473-107.714-173.568"/><path fill="#ffb39d" d="M225.524 243.121c0-21.966 3.761-44.221 10.537-65.181v-15.535h5.678c8.672-21.249 20.467-40.628 34.547-56.28-6.608-1.634-13.382-2.506-20.285-2.506-14.847 0-29.1 3.993-42.36 11.079v8.197h-13.034C157.657 153.981 128 217.979 128 279.692c0 40.16 18.299 76.021 46.969 99.621h12.288v8.925c19.861 12.74 43.438 20.142 68.743 20.142 34.901 0 66.533-14.05 89.624-36.823-67.012-4.102-120.1-60.032-120.1-128.436"/><g fill="#ff8e9e"><ellipse cx="180.5" cy="247.04" rx="30" ry="25"/><ellipse cx="331.5" cy="247.04" rx="30" ry="25"/></g><path d="M198.312 241.841a7.5 7.5 0 0 0 7.5-7.5v-12c0-4.143-3.358-7.5-7.5-7.5s-7.5 3.357-7.5 7.5v12a7.5 7.5 0 0 0 7.5 7.5M278.448 239.195a7.5 7.5 0 0 0-11.309-9.855c-6.167 7.076-17.12 7.067-23.279 0a7.5 7.5 0 0 0-11.309 9.855c12.146 13.935 33.765 13.92 45.897 0M301.913 241.506a7.5 7.5 0 0 0 7.5-7.5c0-3.532 2.874-6.406 6.406-6.406s6.406 2.874 6.406 6.406a7.5 7.5 0 0 0 7.5 7.5c4.143 0 7.5-3.357 7.5-7.5 0-11.804-9.603-21.406-21.406-21.406s-21.406 9.603-21.406 21.406a7.5 7.5 0 0 0 7.5 7.5"/><path d="M436.828 74.807C388.462 26.567 324.243 0 256 0 187.62 0 123.333 26.629 74.98 74.98 26.629 123.333 0 187.62 0 256c0 70.472 27.53 135.932 77.52 184.321a7.5 7.5 0 1 0 10.433-10.777C40.908 384.005 15 322.373 15 256 15 123.112 123.112 15 256 15s241 108.112 241 241-108.111 241-240.999 241c-53.504 0-103.984-16.789-145.982-48.552a7.5 7.5 0 0 0-10.506 1.457 7.5 7.5 0 0 0 1.458 10.506C145.596 494.161 199.204 512 256.001 512c68.513 0 132.861-26.673 181.19-75.105C485.433 388.551 512 324.308 512 256c0-68.495-26.696-132.844-75.172-181.193"/><path d="M121.984 152.881c-10.443-10.442-27.922-8.156-35.397 4.651-18.125 31.062-27.304 66.564-26.543 102.669C62.276 366.074 149.215 451.995 256 451.995c34.615 0 68.664-9.192 98.468-26.584 12.817-7.48 15.077-24.97 4.671-35.376l-10.751-10.751a137.3 137.3 0 0 0 27.505-36.133l14.8 14.799c10.6 10.608 28.174 7.958 35.476-4.783C443.067 323.688 452 290.088 452 255.998l-.004-1.26c-.317-50.087-19.681-97.713-54.521-134.105a7.5 7.5 0 0 0-10.835 10.373c32.18 33.612 50.063 77.589 50.356 123.835l.004 1.157c0 31.477-8.245 62.497-23.845 89.709-2.49 4.345-8.346 5.148-11.855 1.637l-18.796-18.796C415.712 241.881 350.888 96.119 256 96.119c-25.996 0-51.34 11.117-73.702 32.224l-17.64-17.641c-3.483-3.483-2.744-9.346 1.583-11.828C193.446 83.268 224.484 75.018 256 75.017c39.92 0 77.601 12.836 109.162 36.823a7.5 7.5 0 0 0 10.509-1.433 7.5 7.5 0 0 0-1.433-10.509C338.321 72.6 295.395 59.482 256 60.017c-34.131.001-67.75 8.938-97.223 25.846-12.689 7.281-15.329 24.845-4.725 35.446l17.835 17.836c-9.643 10.991-18.384 23.869-25.746 37.894zm224.923 259.575c-27.511 16.054-58.946 24.539-90.907 24.539-98.956 0-178.881-78.502-180.959-177.11-.702-33.34 7.771-66.119 24.502-94.792 2.502-4.286 8.328-5.114 11.835-1.604l27.895 27.894c-12.288 28.209-18.772 58.625-18.772 88.31 0 75.095 60.785 136.188 135.5 136.188 29.117 0 57.562-9.521 80.846-26.926 7.061 7.061 11.471 11.47 11.666 11.667 3.485 3.484 2.703 9.319-1.606 11.834M205.979 128.228l13.231 13.133v13.514l-13.499 13.499a7.5 7.5 0 0 0 0 10.606 7.5 7.5 0 0 0 10.606.001l10.392-10.392 16.608 16.608a7.5 7.5 0 0 0 5.303 2.196h18.083c4.142 0 7.5-3.357 7.5-7.5s-3.358-7.5-7.5-7.5h-14.977l-17.517-17.518v-16.638a7.5 7.5 0 0 0-2.216-5.323l-12.777-12.683c11.934-6.013 24.315-9.113 36.784-9.113 81.221 0 139.423 128.604 114.74 205.684l-8.815-8.815a7.5 7.5 0 0 0-5.304-2.196h-16.583l-13.458-13.459 3.835-3.835a7.5 7.5 0 0 0 0-10.606 7.5 7.5 0 0 0-10.606-.001l-3.836 3.835-5.411-5.411a7.501 7.501 0 0 0-10.606 10.607l31.672 31.673a7.5 7.5 0 0 0 5.304 2.196h16.583l11.198 11.199c-7.543 15.802-18.545 29.968-32.06 41.187-21.52 17.865-48.743 27.704-76.653 27.704-23.197 0-44.879-6.633-63.283-18.102l13.119-13.119a7.5 7.5 0 0 0 2.197-5.304v-26.122l6.42-6.062h14.731c4.142 0 7.5-3.357 7.5-7.5s-3.358-7.5-7.5-7.5h-10.213v-9.462c0-4.143-3.358-7.5-7.5-7.5s-7.5 3.357-7.5 7.5v13.729l-8.588 8.109a7.5 7.5 0 0 0-2.351 5.453v26.249l-12.691 12.69c-27.332-22.235-44.842-56.221-44.842-94.248 0-29.214 6.754-59.232 19.532-86.809 11.493-24.803 28.821-48.978 50.948-64.654"/></svg>