<svg xmlns="http://www.w3.org/2000/svg" width="512" height="512"><path fill="#ffb5c0" d="M253.079 110.502V37.5c0-16.568-13.432-30-30-30h-62.79c-16.568 0-30 13.432-30 30v73.002l59.641 19.641z"/><path fill="#ff8e9e" d="m130.289 110.502-93.871 63.704C18.415 186.424 7.5 207.688 7.5 230.547V474.5c0 16.568 13.431 30 30 30h122.789l92.789-70.356V110.502z"/><g fill="#efedff"><path d="m348.981 175.851-96.235-63.791-93.871 63.704c-18.004 12.218-28.919 33.483-28.919 56.341v243.953c0 16.568 13.431 30 30 30h188.5c16.569 0 30-13.432 30-30V232.565c0-23.109-11.153-44.57-29.475-56.714M72.003 303.429a4.9 4.9 0 0 0-3.441-1.399 4.87 4.87 0 0 0-3.447 1.409c-11.719 11.618-27.947 32.143-27.947 48.543 0 17.672 14.136 31.103 31.395 31.104 17.34.001 31.395-13.928 31.395-31.104-.002-16.745-16.052-36.752-27.955-48.553"/></g><path fill="#ff8e9e" d="M489.965 43.248h-21.79v21.79A52.16 52.16 0 0 1 474.5 90c0 28.948-23.551 52.5-52.5 52.5a52.2 52.2 0 0 1-24.963-6.325h-21.79v21.79c13.29 9.16 29.391 14.535 46.753 14.535 45.563 0 82.5-36.937 82.5-82.5 0-17.362-5.375-33.462-14.535-46.752"/><path fill="#ea5b70" d="m468.175 65.038 21.79-21.79C475.087 21.66 450.202 7.5 422 7.5c-45.563 0-82.5 36.937-82.5 82.5 0 28.202 14.159 53.086 35.747 67.965l57.359-57.359zM422 37.5c9.03 0 17.534 2.292 24.963 6.325l-71.138 71.138A52.2 52.2 0 0 1 369.5 90c0-28.948 23.551-52.5 52.5-52.5"/><g fill="#ff8e9e"><path d="M172.786 255.983c-16.212 0-29.355 10.466-29.355 23.377s13.143 23.376 29.355 23.376 29.355-10.466 29.355-23.376-13.142-23.377-29.355-23.377M336.292 255.983c-16.212 0-29.355 10.466-29.355 23.377s13.143 23.376 29.355 23.376 29.355-10.466 29.355-23.376-13.143-23.377-29.355-23.377"/></g><path fill="#ffb357" d="M179.5 415.742V474.5c0 16.568 13.431 30 30 30h156.792v-88.758z"/><path fill="#ffce71" d="M336.292 415.742V474.5c0 16.569 13.431 30 30 30h4.75c5.304 0 9.979-3.482 11.491-8.566 3.686-12.395 15.167-21.434 28.759-21.434s25.073 9.039 28.759 21.434a11.985 11.985 0 0 0 11.491 8.566H474.5c16.569 0 30-13.431 30-30v-58.758z"/><path fill="#ffce71" d="M349.989 322.559 197.632 388.19a30 30 0 0 0-18.131 27.553c0 16.568 13.431 30 30 30h126.792l13.697-13.697V322.559z"/><path fill="#fce3a0" d="m462.631 274.036-9.522 4.118c-4.496 1.945-7.715 5.972-8.734 10.763-3.364 15.817-17.414 27.683-34.234 27.683a34.8 34.8 0 0 1-18.351-5.2c-4.166-2.574-9.371-2.812-13.869-.875l-27.934 12.033c-8.241 5.347-13.697 14.623-13.697 25.178v98.006H474.5c16.569 0 30-13.431 30-30V301.588c0-21.561-22.066-36.083-41.869-27.552"/><g fill="#ffb357"><circle cx="266" cy="445.742" r="30"/><circle cx="438" cy="378.742" r="37.5"/></g><path d="M77.584 296.514c-4.807-4.707-12.579-4.757-17.417.042C53.09 303.571 30 328.19 30 350.424c0 21.646 17.084 38.604 38.894 38.604h.004c21.494 0 38.891-17.266 38.891-38.604 0-19.226-16.611-40.316-30.205-53.91m-8.687 77.513h-.003C55.496 374.027 45 363.659 45 350.424c0-12.405 12.48-29.588 23.898-41.365 11.875 12.218 23.891 28.949 23.891 41.365 0 13.018-10.658 23.603-23.892 23.603M438 333.742c-24.813 0-45 20.187-45 45s20.187 45 45 45 45-20.187 45-45-20.187-45-45-45m0 75c-16.542 0-30-13.458-30-30s13.458-30 30-30 30 13.458 30 30-13.458 30-30 30"/><path d="m459.653 267.151-9.521 4.119c-6.668 2.885-11.562 8.898-13.092 16.087-3.898 18.328-25.078 27.687-41.306 17.663-2.84-1.754-6.07-2.816-9.445-3.143v-70.87c0-25.801-12.273-49.34-32.832-62.966l-92.878-61.566V37.5c0-20.678-16.822-37.5-37.5-37.5h-62.79c-20.678 0-37.5 16.822-37.5 37.5v69.027l-27.262 18.501a7.5 7.5 0 1 0 8.422 12.412l28.644-19.438h96.077l-73.674 49.997c-20.167 13.687-32.207 37.069-32.207 62.548V474.5a37.3 37.3 0 0 0 7.52 22.5H37.5C25.093 497 15 486.906 15 474.5V230.547c0-20.502 9.582-39.244 25.63-50.135l38.497-26.125a7.5 7.5 0 0 0 1.995-10.418 7.5 7.5 0 0 0-10.417-1.994L32.207 168C12.04 181.686 0 205.067 0 230.547V474.5C0 495.178 16.822 512 37.5 512h333.542c8.56 0 16.24-5.728 18.679-13.929 2.814-9.462 11.686-16.071 21.571-16.071 9.887 0 18.756 6.608 21.57 16.071 2.438 8.201 10.12 13.929 18.68 13.929H474.5c20.678 0 37.5-16.822 37.5-37.5v-81.696c0-4.143-3.357-7.5-7.5-7.5s-7.5 3.357-7.5 7.5v22.938c0 12.406-10.094 22.5-22.5 22.5H302.747c-3.485-17.096-18.637-30-36.747-30s-33.262 12.904-36.747 30H209.5c-12.407 0-22.5-10.094-22.5-22.5a22.48 22.48 0 0 1 13.599-20.665c226.944-97.761 166.227-71.633 181.118-77.96 2.075-.619 4.422-.392 6.133.665 25.156 15.538 57.844.994 63.862-27.303.521-2.447 2.156-4.48 4.375-5.44l9.509-4.114C480.632 274.456 497 285.57 497 301.588v61.216c0 4.143 3.357 7.5 7.5 7.5s7.5-3.357 7.5-7.5v-61.216c0-26.677-27.315-45.208-52.347-34.437M160.289 15h62.79c12.407 0 22.5 10.094 22.5 22.5v65.502h-107.79V37.5c0-12.406 10.093-22.5 22.5-22.5M209.5 453.242h19.755c3.484 17.096 18.635 30 36.745 30 4.142 0 7.5-3.357 7.5-7.5s-3.358-7.5-7.5-7.5c-12.407 0-22.5-10.094-22.5-22.5s10.093-22.5 22.5-22.5 22.5 10.094 22.5 22.5a7.5 7.5 0 0 0 7.5 7.5h178.5a37.3 37.3 0 0 0 22.5-7.521V474.5c0 12.406-10.094 22.5-22.5 22.5h-22.958a4.51 4.51 0 0 1-4.303-3.204C442.549 478.019 427.767 467 411.292 467c-16.474 0-31.256 11.019-35.948 26.796a4.51 4.51 0 0 1-4.302 3.204H209.5c-12.407 0-22.5-10.094-22.5-22.5v-28.778a37.3 37.3 0 0 0 22.5 7.52m-14.836-71.94A37.47 37.47 0 0 0 172 415.742V474.5a37.3 37.3 0 0 0 7.52 22.5h-19.231c-12.407 0-22.5-10.094-22.5-22.5V230.547c0-20.502 9.582-39.244 25.63-50.136l89.708-60.879 92.042 61.012c16.111 10.68 26.119 30.016 26.119 50.464v74.209zM404.854 147.503c6.684 1.997 13.642 2.804 20.703 2.394h-.001c38.656-2.249 64.999-40.043 53.947-77.042-3.084-10.328-16.133-13.614-23.788-5.964l-56.824 56.824c-7.65 7.651-4.366 20.703 5.963 23.788m60.618-69.154c7.393 27.556-12.396 54.922-40.787 56.573h-.001a45 45 0 0 1-14.335-1.451zM388.291 113.104l56.812-56.812c7.646-7.648 4.377-20.705-5.957-23.794-37.009-11.049-74.788 15.304-77.042 53.937a60 60 0 0 0 2.393 20.712c3.095 10.356 16.162 13.585 23.794 5.957m-11.212-25.795q0-.002 0 0c1.668-28.596 29.249-48.119 56.572-40.779l-55.123 55.122a45 45 0 0 1-1.449-14.343"/><path d="M422 180c49.626 0 90-40.374 90-90S471.626 0 422 0s-90 40.374-90 90 40.374 90 90 90m0-165c41.355 0 75 33.645 75 75s-33.645 75-75 75-75-33.645-75-75 33.645-75 75-75M192.09 241.356a7.5 7.5 0 0 0-7.5 7.5v12a7.5 7.5 0 0 0 15 0v-12a7.5 7.5 0 0 0-7.5-7.5M316.988 241.356a7.5 7.5 0 0 0-7.5 7.5v12a7.5 7.5 0 0 0 15 0v-12a7.5 7.5 0 0 0-7.5-7.5M275.931 254.846a7.5 7.5 0 0 0-10.582.726c-5.727 6.571-15.899 6.564-21.621 0-2.722-3.123-7.459-3.448-10.582-.726s-3.448 7.459-.726 10.582c11.705 13.43 32.543 13.416 44.236 0a7.5 7.5 0 0 0-.725-10.582"/></svg>