<svg xmlns="http://www.w3.org/2000/svg" width="512" height="512"><path fill="#ff8e9e" d="M284.379 9.123 236 17.502l20 50.015c103.622 0 187.844 84.354 188.496 187.27.218 34.431-8.849 66.765-24.833 94.651-4.931 8.602-16.654 10.223-23.665 3.212L238.471 195.122h-24.399l.21 52.591 11.076 19.149L353.816 395.32c6.982 6.982 5.4 18.639-3.128 23.615-27.84 16.246-60.195 25.561-94.687 25.561l-20 50.002 48.38 8.38C408.255 488.791 504.5 383.644 504.5 256S408.255 23.209 284.379 9.123"/><path fill="#ea5b70" d="M280.6 499.497a73.79 73.79 0 0 1-24.6-55.002c-1.346 0-2.693-.009-4.045-.038-100.58-2.12-182.293-83.835-184.412-184.414-.759-36.007 8.644-69.804 25.523-98.73 4.977-8.529 16.633-10.111 23.615-3.128l108.677 108.676c-.921-5.863-1.422-11.799-1.422-17.78 0-19.802 5.222-38.001 14.534-53.959l-79.115-79.115c-6.992-6.992-5.423-18.717 3.154-23.637C190.078 76.553 222.002 67.517 256 67.517v-.012a73.79 73.79 0 0 1 24.6-55.002l3.779-3.38A251 251 0 0 0 256 7.5C118.757 7.5 7.5 118.757 7.5 256c0 147.837 128.575 263.738 276.88 246.877z"/><path fill="#d4d4ff" d="M153.267 358.733c0 13.348 11.004 24.126 24.436 23.758 12.945-.355 23.099-11.302 23.099-24.252v-13.347l32.678-32.534-33.56-33.612-32.65 32.453h-13.509c-12.95 0-23.897 10.154-24.252 23.099-.368 13.431 10.41 24.435 23.758 24.435"/><path fill="#efedff" d="M193.306 375.896a24.53 24.53 0 0 0 7.495-17.658v-13.347l32.678-32.534-16.905-16.932-23.268 23.268c-15.796 15.797-15.796 41.407 0 57.203"/><path fill="#ffb5c0" d="M293.347 315.806c53.656 0 97.153-43.497 97.153-97.153s-43.497-97.152-97.153-97.152l-29.59 22.267v143.375z"/><path fill="#ff8e9e" d="M293.347 153.007c-6.172-9.164-6.65-21.432 0-31.507-28.789 0-54.654 12.522-72.444 32.417-15.367 17.184-24.709 39.869-24.709 64.736v52.355c0 24.741 20.057 44.798 44.798 44.798h52.355c-6.226-9.28-6.525-21.625 0-31.418z"/><path fill="#ff8e9e" d="m293.347 153.007-65.69 65.691 65.69 65.69c36.222 0 65.691-29.469 65.691-65.69 0-36.222-29.469-65.691-65.691-65.691"/><path fill="#ea5b70" d="M293.347 153.007c-36.222 0-65.69 29.469-65.69 65.691s29.468 65.69 65.69 65.69c-32.14-37.896-32.14-93.484 0-131.381"/><path fill="#efedff" d="M310.4 201.671c-9.392-9.407-24.627-9.436-34.055-.065-9.445 9.403-9.468 24.686-.051 34.117 9.392 9.407 24.627 9.436 34.055.065 9.445-9.402 9.468-24.685.051-34.117"/><path d="m188.694 219.59-66.71-66.709c-10.443-10.442-27.923-8.156-35.397 4.651-18.125 31.062-27.304 66.564-26.543 102.669 1.081 51.282 21.965 99.436 58.806 135.592 36.93 36.242 85.637 56.202 137.15 56.202 34.615 0 68.664-9.192 98.468-26.584 12.799-7.47 15.099-24.947 4.651-35.396l-66.709-66.709h.938c17.542 0 34.697-4.388 49.986-12.714 25.04 25.04 45.054 45.055 47.36 47.358 10.6 10.608 28.174 7.958 35.476-4.783 16.897-29.479 25.83-63.079 25.83-97.169l-.004-1.26c-.29-45.675-16.782-90.113-46.439-125.131a7.5 7.5 0 1 0-11.447 9.694c27.389 32.338 42.619 73.368 42.887 115.539l.004 1.157c0 31.477-8.245 62.497-23.845 89.709-2.49 4.345-8.346 5.148-11.855 1.637l-45.052-45.052c26.3-19.728 41.751-50.352 41.751-83.639C398 160.947 351.053 114 293.347 114c-29.75 0-58.192 12.727-78.035 34.917a104 104 0 0 0-5.602 6.837l-45.052-45.052c-3.483-3.483-2.744-9.346 1.583-11.828C193.446 83.268 224.484 75.018 256 75.017q.352-.001.703-.008l.413-.006.048.001c42.707.271 84.143 15.847 116.676 43.86a7.5 7.5 0 1 0 9.787-11.367c-35.223-30.33-80.092-47.196-126.349-47.493l-.143-.001q-.353.001-.704.008l-.431.006c-34.131.001-67.75 8.938-97.223 25.846-12.69 7.282-15.327 24.845-4.725 35.447l47.357 47.357a104.44 104.44 0 0 0-12.715 49.986zm5.735 75.188.001-.006a52.8 52.8 0 0 0 23.053 22.929l-.003.001-21.971 21.873a7.5 7.5 0 0 0-2.208 5.315v13.348c0 14.784-17.276 22.208-27.609 12.155a16.14 16.14 0 0 1-4.925-11.661 7.5 7.5 0 0 0-7.5-7.5 16.14 16.14 0 0 1-11.661-4.925c-10.156-10.438-2.443-27.608 12.155-27.608h13.508a7.5 7.5 0 0 0 5.287-2.181zm154.083 105.844c3.486 3.484 2.704 9.319-1.604 11.834-27.511 16.054-58.946 24.539-90.907 24.539-97.723 0-178.901-79.451-180.959-177.11-.702-33.34 7.771-66.119 24.502-94.792 2.505-4.292 8.333-5.106 11.834-1.605l77.317 77.317v30.204c0 2.575.215 5.159.599 7.726l-25.117 24.966h-10.415c-27.656 0-42.346 33.088-22.906 53.068 4.329 4.449 9.731 7.441 15.64 8.736 1.295 5.909 4.288 11.312 8.737 15.641 19.733 19.2 53.069 5.212 53.069-22.906v-10.231l25.356-25.242c2.44.347 4.893.541 7.335.541h30.204zM293.347 129C342.782 129 383 169.218 383 218.652c0 50.421-40.931 89.653-89.653 89.653h-52.355c-20.567 0-37.298-16.783-37.298-37.298v-52.355c0-50.01 40.69-89.652 89.653-89.652"/><path d="M293.347 291.889c40.357 0 73.19-32.834 73.19-73.191s-32.833-73.19-73.19-73.19-73.19 32.833-73.19 73.19 32.833 73.191 73.19 73.191m0-131.382c32.086 0 58.19 26.104 58.19 58.19 0 32.087-26.104 58.191-58.19 58.191s-58.19-26.104-58.19-58.191c0-32.086 26.104-58.19 58.19-58.19"/><path d="M315.64 241.104c12.393-12.339 12.424-32.356.067-44.732-12.287-12.307-32.316-12.343-44.653-.081-12.392 12.337-12.424 32.355-.067 44.731 12.286 12.306 32.314 12.347 44.653.082m-34.008-34.178c6.49-6.45 17.015-6.41 23.46.044 6.489 6.499 6.48 17.018-.031 23.5-6.481 6.441-17.004 6.419-23.46-.045-6.499-6.51-6.467-17.029.031-23.499"/><path d="M256 0C114.513 0 0 114.492 0 255.995c0 62.401 22.688 122.489 63.885 169.194a7.5 7.5 0 0 0 11.249-9.922C36.356 371.304 15 314.74 15 255.995 15 123.11 123.112 15 256 15s241 108.11 241 240.995C497 388.366 390.316 497 255.693 497c-59.008 0-115.849-21.705-160.052-61.116a7.5 7.5 0 1 0-9.982 11.195C132.613 488.944 192.999 512 255.693 512c73.262 0 142.121-30.831 190.779-84.972C488.729 380.009 512 319.269 512 255.995 512 114.195 397.144 0 256 0"/></svg>