<svg xmlns="http://www.w3.org/2000/svg" width="512" height="512"><path fill="#ff8e9e" d="M284.379 9.123 236 17.502l20 50.015c.405 0 .806-.015 1.211-.013 102.774.649 186.634 84.509 187.285 187.282.218 34.431-8.849 66.765-24.833 94.651-4.931 8.602-16.654 10.223-23.665 3.212L238.471 195.121h-24.399l.21 52.591 11.076 19.149 128.458 128.458c6.982 6.982 5.4 18.639-3.128 23.615-27.84 16.246-60.195 25.561-94.687 25.561l-20 50.002 48.38 8.38C408.255 488.791 504.5 383.644 504.5 256S408.255 23.209 284.379 9.123"/><path fill="#ea5b70" d="M280.6 499.497a73.79 73.79 0 0 1-24.6-55.002c-1.346 0-2.693-.009-4.045-.038-100.58-2.12-182.293-83.835-184.412-184.414-.759-36.007 8.644-69.804 25.523-98.73 4.977-8.529 16.633-10.111 23.615-3.128l108.677 108.676c-.921-5.863-1.422-11.799-1.422-17.78 0-19.802 5.222-38.001 14.534-53.959l-79.115-79.115c-6.992-6.992-5.423-18.717 3.154-23.637C190.078 76.553 222.002 67.517 256 67.517v-.012a73.79 73.79 0 0 1 24.6-55.002l3.779-3.38A251 251 0 0 0 256 7.5C118.757 7.5 7.5 118.757 7.5 256c0 147.837 128.575 263.738 276.88 246.877z"/><path fill="#e8b5b1" d="M365.125 224.532c-6.424-4.49-14.564-7.16-23.745-7.16-2.137-10.168-9.566-17.982-19.027-21.129-10.702-3.56-21.765-6.333-33.1-8.142h-57.169V331.03h73.866c18.706-25.297 35.43-54.747 35.43-54.747 9.18 0 17.321-2.67 23.745-7.16 12.183-8.515 12.183-36.076 0-44.591"/><path fill="#d6948c" d="M289.254 188.101c4.76-10.016-5.041-18.354-13.48-14.343l-6.719 3.194-2.493-7.01c-3.26-9.167-16.224-9.167-19.483 0l-2.493 7.01-6.719-3.194c-8.548-4.063-18.143 4.765-13.591 14.343-11.868 1.805-23.446 4.423-34.628 8.142-9.432 3.137-16.884 10.932-19.027 21.129-9.18 0-17.32 2.67-23.745 7.16-12.183 8.515-12.183 36.076 0 44.591 6.424 4.49 14.565 7.16 23.745 7.16 0 0 16.723 29.45 35.43 54.747h57.223a110.5 110.5 0 0 1-15.546-56.527c-.01-33.599 15.273-65.433 41.526-86.402"/><path fill="#f2d4d3" d="M293.649 315.497c-9.108-10.576-26.306-15.267-42.597-14.081v53.569h31.504c4.341-2.191 8.143-4.996 11.093-8.421 4.094-4.753 8.244-10.046 12.302-15.533-4.058-5.488-8.208-10.781-12.302-15.534"/><path fill="#e8b5b1" d="M266.689 336.411a110.3 110.3 0 0 1-15.636-34.995c-13.004.947-25.43 5.638-32.701 14.081-4.094 4.753-8.244 10.046-12.302 15.534 4.058 5.487 8.208 10.78 12.302 15.533 13.43 15.593 44.442 18.398 64.205 8.421a110 110 0 0 1-15.868-18.574M165.578 248.836c-.458-11.477-8.254-20.956-18.703-24.304a27.2 27.2 0 0 0-8.32-1.297c-6.245 0-11.165-5.576-14.529-11.815-1.519-2.818-4.356-4.68-7.553-4.857a9.1 9.1 0 0 0-8.719 5.163c-3.342 6.984-6.753 16.793-6.753 29.539v.001c0 14.827 11.593 27.321 26.41 27.842l23.391.02c6.199 0 11.656-4.07 13.448-10.004a31.2 31.2 0 0 0 1.328-10.288"/><path fill="#f2d4d3" d="M404.247 211.724a9.1 9.1 0 0 0-8.718-5.163h-.003c-3.197.177-6.032 2.039-7.552 4.857-3.364 6.24-8.285 11.815-14.529 11.815-14.378 0-26.45 11.235-27.023 25.601a31.2 31.2 0 0 0 1.329 10.286c1.792 5.934 7.249 10.004 13.448 10.004l23.391-.02c14.817-.521 26.41-13.016 26.41-27.842v-.001c0-12.743-3.411-22.553-6.753-29.537"/><circle cx="241.153" cy="331.176" r="7.5"/><circle cx="270.311" cy="331.176" r="7.5"/><path d="M406.445 130.662a7.5 7.5 0 0 0-11.513 9.615c26.294 31.486 41.921 71.929 42.068 115.721 0 31.477-8.245 62.497-23.845 89.709-2.49 4.344-8.346 5.149-11.854 1.637l-58.559-58.558a648 648 0 0 0 3.019-5.101c.036-.061.081-.086.1-.088 7.788-.651 15.154-3.062 21.477-6.975l17.26-.015q.128 0 .257-.005c18.867-.664 33.646-16.187 33.646-35.338 0-11.526-2.449-22.248-7.487-32.776l-.001-.001c-5.833-12.187-23.099-12.757-29.639-.627-2.619 4.857-5.656 7.875-7.928 7.875-2.425 0-4.789.25-7.072.715-5.803-3.402-12.363-5.541-19.352-6.282-3.867-9.81-12.019-17.622-22.301-21.042a218 218 0 0 0-26.654-7.015c-.634-11.612-12.894-20.472-24.74-15.474-6.02-14.771-27.005-14.746-33.013 0-5.902-2.493-12.408-1.671-17.529 2.191l-58.127-58.127c-3.483-3.483-2.744-9.346 1.583-11.828C193.446 83.268 224.484 75.018 256 75.017c45.384 0 87.219 17.101 118.802 44.683a7.5 7.5 0 1 0 9.867-11.299C350.029 78.15 305.5 60.017 256 60.017c-34.131.001-67.75 8.938-97.223 25.846-12.69 7.282-15.327 24.845-4.725 35.447l60.66 60.66a217 217 0 0 0-27.432 7.156 36.43 36.43 0 0 0-17.068 11.982l-48.228-48.228c-10.446-10.445-27.924-8.153-35.397 4.651-18.125 31.062-27.304 66.564-26.543 102.669 1.066 50.588 21.479 98.274 57.479 134.274s83.686 56.413 134.269 57.479c1.406.03 2.808.04 4.208.04 34.615 0 68.664-9.192 98.468-26.584 12.778-7.456 16.108-23.938 5.651-34.396l-51.304-51.304c9.526-12.471 18.695-26.34 25.868-37.77l56.01 56.009c10.6 10.608 28.174 7.958 35.476-4.783C443.067 323.688 452 290.088 452 255.998c-.146-47.147-16.917-91.041-45.555-125.336m-33 100.072c5.765 0 14.11-2.733 21.131-15.756.703-1.303 2.352-1.177 2.906-.016 4.049 8.462 6.018 17.065 6.018 26.301 0 10.807-8.538 19.907-19.057 20.343h-23.244a6.5 6.5 0 0 1-6.269-4.654c-4.416-14.614 5.913-26.218 18.515-26.218m-23.933 170.888c3.538 3.536 1.51 8.434-2.604 10.834-27.511 16.054-58.946 24.539-90.907 24.539-1.292 0-2.585-.008-3.887-.036-97.244-2.05-175.022-79.83-177.072-177.074-.702-33.34 7.771-66.119 24.502-94.792 2.502-4.287 8.328-5.111 11.835-1.604l47.667 47.667a47.2 47.2 0 0 0-13.463 5.319 34.8 34.8 0 0 0-7.029-.74c-2.271 0-5.309-3.018-7.927-7.875-6.542-12.135-23.82-11.531-29.64.627-5.039 10.528-7.488 21.249-7.488 32.777 0 19.151 14.779 34.674 33.646 35.338q.128.005.257.005l17.259.015c6.323 3.914 13.689 6.323 21.474 6.975.021.002.066.027.102.087 7.622 13.019 27.404 45.684 46.43 67.774 19.366 22.485 67.273 22.514 86.664 0l.008-.009zM157.069 256.954a6.5 6.5 0 0 1-6.262 4.652h-23.251c-10.519-.436-19.056-9.536-19.056-20.343 0-9.237 1.969-17.84 6.018-26.302.535-1.119 2.187-1.318 2.906.016 7.02 13.023 15.366 15.757 21.131 15.757 12.326 0 22.971 11.467 18.514 26.22m58.368 74.075c3.006-3.924 5.887-7.491 8.598-10.638 13.378-15.535 50.562-15.524 63.932 0 2.71 3.147 5.591 6.714 8.597 10.638-2.865 3.743-5.749 7.333-8.597 10.64-13.375 15.529-50.553 15.534-63.932 0-2.849-3.307-5.733-6.898-8.598-10.64m117.379-54.924c-3.949 6.745-14.677 24.695-27.047 42.328a239 239 0 0 0-6.438-7.831c-19.362-22.481-67.274-22.515-86.664 0a239 239 0 0 0-6.438 7.831c-12.37-17.633-23.098-35.584-27.047-42.329a15.16 15.16 0 0 0-11.653-7.435c7.252-8.982 9.192-29.355-4.673-42.991a37 37 0 0 1 7.762-.807 7.5 7.5 0 0 0 7.34-5.957c1.539-7.325 6.793-13.141 14.055-15.556a202.6 202.6 0 0 1 33.388-8.019c4.964-.754 7.804-6.094 5.647-10.633-1.504-3.165 1.341-5.246 3.597-4.177l6.719 3.194c4.022 1.912 8.803-.086 10.287-4.261l2.493-7.01c.584-1.644 1.927-1.889 2.675-1.889.749 0 2.091.245 2.676 1.889l2.493 7.01c1.486 4.181 6.268 6.169 10.287 4.261l6.718-3.193c2.422-1.154 4.944 1.339 3.785 3.781-2.757 5.795.831 10.539 5.293 11.252a202.6 202.6 0 0 1 31.916 7.795c7.261 2.414 12.515 8.229 14.054 15.554a7.5 7.5 0 0 0 7.34 5.958c2.644 0 5.211.272 7.672.791-13.601 13.388-11.943 33.891-4.582 43.007a15.17 15.17 0 0 0-11.655 7.437"/><path d="M208.305 291.366a7.5 7.5 0 0 0 7.5-7.5v-7.243c0-4.143-3.358-7.5-7.5-7.5s-7.5 3.357-7.5 7.5v7.243a7.5 7.5 0 0 0 7.5 7.5M303.695 291.366a7.5 7.5 0 0 0 7.5-7.5v-7.243c0-4.143-3.358-7.5-7.5-7.5s-7.5 3.357-7.5 7.5v7.243a7.5 7.5 0 0 0 7.5 7.5"/><path d="M256 0C187.62 0 123.333 26.629 74.98 74.98 26.629 123.333 0 187.62 0 256c0 62.611 22.822 122.852 64.262 169.624a7.5 7.5 0 0 0 11.227-9.947C36.482 371.65 15 314.943 15 256 15 123.112 123.112 15 256 15c133.682 0 241 108.106 241 241 0 132.365-106.675 241.01-241.309 241.01-58.811 0-115.509-21.579-159.65-60.762a7.5 7.5 0 0 0-10.588.631 7.5 7.5 0 0 0 .63 10.588C132.972 489.088 193.207 512 255.691 512c73.263 0 142.121-30.82 190.78-84.964C488.729 380.017 512 319.274 512 256 512 114.801 397.491 0 256 0"/></svg>