<svg xmlns="http://www.w3.org/2000/svg" width="512" height="512"><path fill="#ff8e9e" d="m284.169 9.113-35.849 10v40.841l7.551 7.55v.011c33.998 0 65.922 9.036 93.491 24.851 8.577 4.921 10.147 16.646 3.154 23.637L247.518 220.999h-42.147v90.998h35.999l153.819-153.815c6.982-6.982 18.639-5.4 23.615 3.128 16.879 28.925 26.282 62.722 25.523 98.728-2.144 101.755-85.835 184.449-188.458 184.449v.009l-9.068 8.284v50.124h37.384c122.914-13.925 220.184-118.328 220.184-246.907.002-127.672-96.285-232.835-220.2-246.884"/><path fill="#ea5b70" d="M280.471 499.497a73.79 73.79 0 0 1-24.6-55.002v-.009c-34.493 0-66.847-9.315-94.687-25.561-8.529-4.977-10.111-16.633-3.128-23.615l83.315-83.313h-35.999v-48.852l-89.498 89.496c-7.011 7.011-18.734 5.39-23.665-3.212-15.985-27.884-25.052-60.219-24.833-94.648.65-102.771 84.51-186.629 187.284-187.279.405-.002.807.013 1.211.013v-.011c0-21 8.947-41.004 24.6-55.002l3.698-3.389A251 251 0 0 0 255.871 7.5c-136.815 0-248.5 110.875-248.5 248.495 0 127.641 96.245 232.786 220.12 246.872 19.315 2.196 38.29 2.12 56.696.035z"/><path fill="#efedff" d="M395.195 312.701c-.083-.221-20.161-53.428-31.419-83.253H340.23l-34.543 57.012v30h58.862l2.579 6.833c2.929 7.762 11.592 11.659 19.33 8.738 7.751-2.925 11.663-11.58 8.737-19.33"/><path fill="#d4d4ff" d="m356.338 209.751-.004-.009c-6.04-14.66-26.752-14.069-32.248.381l-39.052 102.535c-2.949 7.742.937 16.408 8.679 19.356 7.741 2.952 16.408-.937 19.356-8.679l2.619-6.876 11.426-30 13.117-34.439 3.276-8.603a21.69 21.69 0 0 1 20.269-13.97c-4.364-11.56-7.404-19.612-7.438-19.696M408.976 198.997c-8.284 0-15 6.715-15 15s6.716 15 15 15h47.233000000000004v-30z"/><path fill="#efedff" d="M489.5 198.997h-33.29c-12.279 0-22.233 9.954-22.233 22.233v96.899c0 8.285 6.716 15 15 15s15-6.715 15-15v-89.133H489.5c8.285 0 15-6.715 15-15s-6.715-14.999-15-14.999M210.229 229.946h28.421c8.284 0 15-6.716 15-15s-6.716-15-15-15h-15.665l-22.695 6.146zM210.229 302.997h28.421c8.284 0 15 6.716 15 15s-6.716 15-15 15h-15.665l-22.695-6.146z"/><path fill="#d4d4ff" d="M210.229 302.997v-22 .475h15.22c8.284 0 15-6.716 15-15s-6.716-15-15-15h-15.22v.475-22c0-10.871 4.641-22.767 12.756-30h-27.756c-8.284 0-15 6.716-15 15v103.051c0 8.284 6.716 15 15 15h27.756c-8.115-7.234-12.756-19.13-12.756-30.001"/><path fill="#efedff" d="M146.737 314.369c-.029-.152-19.366-101.335-19.397-101.487-3.599-17.67-28.707-18.73-33.659-1.373L65.8 309.312l34.997-13.335 7.113-24.953L117.27 320c1.556 8.138 9.413 13.478 17.549 11.918 8.137-1.555 13.473-9.412 11.918-17.549"/><path fill="#d4d4ff" d="m79.941 280.387-2.999-10.159-.001-.003-17.534-59.396c-5.67-16.885-30.228-15.215-33.515 2.415L7.612 314.521c-1.471 8.152 3.945 15.954 12.097 17.426 8.157 1.467 15.955-3.944 17.426-12.098l8.793-48.72c.119.402 14.642 49.647 14.775 50.044 5.099 15.176 25.519 15.418 31.944 2.254.943-1.933.462-.486 8.149-27.451a21.74 21.74 0 0 1-20.855-15.589"/><path d="M327.113 293.96h26.114c4.143 0 7.5-3.357 7.5-7.5s-3.357-7.5-7.5-7.5h-15.232l9.244-24.27a7.5 7.5 0 0 0-4.339-9.679c-3.87-1.478-8.204.467-9.679 4.339l-13.117 34.439c-1.867 4.906 1.762 10.171 7.009 10.171"/><path d="M512 213.996c0-6.143-2.441-11.852-6.774-16.065C478.546 83.026 377.036 0 255.871 0A255.76 255.76 0 0 0 86.293 64.236c-3.103 2.745-3.393 7.484-.648 10.587s7.484 3.395 10.587.648A240.77 240.77 0 0 1 255.871 15c107.916 0 203.627 73.512 232.24 176.497h-47.154a195.6 195.6 0 0 0-15.674-33.968c-7.464-12.789-24.937-15.111-35.408-4.64l-40.364 40.363c-12.465-4.881-27.317.746-32.434 14.201L305.862 236.9l-59.849 59.849a22.3 22.3 0 0 0-7.363-1.252h-20.921v-6.525h7.72c12.407 0 22.5-10.094 22.5-22.5s-10.093-22.5-22.5-22.5h-7.72v-6.525h20.921c11.296 0 20.671-8.369 22.26-19.23l96.909-96.908c10.502-10.499 8.133-28.07-4.725-35.447-112.323-64.434-255.322-2.461-287.055 121.33-8.323-21.129-38.208-20.618-46.215.13A240.36 240.36 0 0 1 75.647 96.006a7.5 7.5 0 0 0-11.211-9.966C22.801 132.877 0 194.217 0 255.995c0 13.742.981 27.531 3.152 41.013-1.447 8.019-2.256 12.23-2.666 14.725-.497 3.015-.486 3.574-.486 5.681a22.16 22.16 0 0 0 13.22 20.316C47.755 440.311 147.006 512 256.049 512 397.586 512 512 396.751 512 255.995c0-11.478-.824-21.636-2.178-32.369 1.427-3 2.178-6.277 2.178-9.63m-180.904-1.207c3.086-8.115 14.823-8.563 18.285-.231 1.759 4.635 38.419 101.792 38.798 102.792a7.496 7.496 0 0 1-4.369 9.665c-3.869 1.457-8.198-.481-9.664-4.369l-2.578-6.833a7.5 7.5 0 0 0-7.018-4.853h-48.862a7.5 7.5 0 0 0-7.009 4.83l-2.619 6.877a7.493 7.493 0 0 1-9.675 4.34l-.003-.001a7.497 7.497 0 0 1-4.339-9.679zm-92.447 9.657h-28.421a7.5 7.5 0 0 0-7.5 7.5v21.525a7.5 7.5 0 0 0 7.5 7.5h15.22c4.136 0 7.5 3.364 7.5 7.5s-3.364 7.5-7.5 7.5h-15.22a7.5 7.5 0 0 0-7.5 7.5v21.525a7.5 7.5 0 0 0 7.5 7.5h28.421c3.98 0 7.5 3.239 7.5 7.5 0 4.136-3.364 7.5-7.5 7.5h-43.421c-4.136 0-7.5-3.364-7.5-7.5v-103.05c0-4.136 3.364-7.5 7.5-7.5h43.421c4.113 0 7.477 3.348 7.497 7.426l.002.188c-.06 4.084-3.401 7.386-7.499 7.386m106.98-123.574c4.297 2.465 5.086 8.328 1.583 11.828l-90.656 90.655c-4.117-5.408-10.619-8.909-17.906-8.909h-43.421c-12.407 0-22.5 10.094-22.5 22.5v70.235l-20.094 20.093c-.044-.228-17.899-93.662-17.946-93.89-5.165-25.355-41.117-26.826-48.221-1.932l-9.652 33.859-1.163-3.94C87.684 108.402 232.423 33.932 345.629 98.872M21.166 324.587a13 13 0 0 0-.396-.093 7.465 7.465 0 0 1-5.777-8.642l18.271-101.234c1.872-10.043 15.729-10.924 18.993-1.517.056.189 17.507 59.313 17.569 59.499 2.314 6.941 12.306 6.779 14.328-.316l16.738-58.718c2.816-9.869 17.071-9.139 19.085.747.197 1.019 19.393 101.463 19.393 101.463.774 4.051-1.941 8.014-5.963 8.775-4.031.782-7.986-1.859-8.77-5.96l-9.36-48.977c-1.468-7.679-12.401-8.288-14.58-.647L90.665 304.17c-4.338 15.242-4.265 14.968-4.757 15.968-3.478 7.128-15.057 7.467-18.064-1.267-.688-2.292-11.929-40.397-14.721-49.864-2.215-7.511-13.169-6.998-14.575.789l-8.793 48.72c-.726 4.025-4.563 6.72-8.589 6.071m99.902 12.253-10.498 10.498c-3.508 3.509-9.372 2.692-11.855-1.638a178 178 0 0 1-5.735-10.908c7.426-6.098 8.189-12.73 12.112-26.515l1.378-4.838 3.434 17.969c1.222 6.396 5.106 12.047 11.164 15.432m162.275 158.61C170.469 508.24 66.846 441.319 29.4 338.551c7.583-2.509 13.602-8.979 15.116-17.371l3.172-17.578c5.788 19.609 5.873 19.86 5.906 19.959 3.743 11.141 14.058 17.672 25.413 16.798a194 194 0 0 0 6.694 12.8c7.393 12.894 24.967 15.291 35.475 4.785l20.44-20.44a22.5 22.5 0 0 0 10.7-10.699l20.411-20.412v11.604c0 12.406 10.093 22.5 22.5 22.5h7.034l-49.511 49.51c-10.51 10.511-8.04 27.992 4.652 35.396 29.803 17.391 63.853 26.583 98.468 26.583 29.256-.001 57.429-6.343 83.734-18.849a7.5 7.5 0 0 0-6.439-13.547c-24.278 11.542-50.284 17.395-77.295 17.396-31.961 0-63.396-8.485-90.908-24.538-4.326-2.525-5.085-8.356-1.605-11.834l60.119-60.117h15.172c12.407 0 22.5-10.094 22.5-22.5 0-4.207-1.207-8.287-3.374-11.797l35.037-35.037-14.787 38.826c-4.426 11.619 1.394 24.605 13.015 29.033 11.638 4.438 24.617-1.409 29.038-13.017l.779-2.046h38.506l.747 1.98c4.395 11.646 17.373 17.496 28.995 13.107 11.646-4.392 17.495-17.375 13.109-28.987-42.47-112.92-39.045-104.072-41.062-107.237l39.34-39.338c3.506-3.51 9.334-2.68 11.835 1.604a181 181 0 0 1 12.652 26.407h-16.004c-12.406 0-22.5 10.093-22.5 22.499s10.094 22.5 22.5 22.5h17.5v79.83c-12.715 35.724-36.96 67.256-68.392 88.885a7.501 7.501 0 0 0 8.504 12.358c29.759-20.479 53.568-49.17 68.279-81.931a22.4 22.4 0 0 0 14.109 4.991c12.406 0 22.5-10.094 22.5-22.5v-81.633H489.5c2.238 0 4.423-.338 6.503-.965.576 6.821.868 13.667.868 20.464 0 122.722-91.797 225.665-213.528 239.457M489.5 221.496h-25.523a7.5 7.5 0 0 0-7.5 7.5v89.133c0 4.136-3.364 7.5-7.5 7.5s-7.5-3.364-7.5-7.5v-89.133c0-4.143-3.357-7.5-7.5-7.5h-25c-4.136 0-7.5-3.364-7.5-7.5 0-4.135 3.364-7.499 7.5-7.499H489.5c3.961 0 7.5 3.23 7.5 7.499 0 4.082-3.329 7.5-7.5 7.5"/></svg>