<svg xmlns="http://www.w3.org/2000/svg" width="512" height="512"><path fill="#b9f0ff" d="M252.473 279.388c9.982-2.083 17.452-11.01 17.275-21.651-.199-11.932-10.228-21.37-22.162-21.37h-86.537a45.77 45.77 0 0 0-32.361 13.404l-40.715 40.715v129.496c0 46.477 37.677 84.154 84.155 84.154h32.4c13.475-1.355 26.331-6.613 36.816-15.332 31.863-26.495 52.006-66.601 51.503-111.396-.428-38.244-15.725-72.724-40.374-98.02"/><path fill="#7ce3ff" d="M167.756 488.839a143.5 143.5 0 0 1-25.663-27.82c-16.31-23.194-25.89-51.463-25.89-81.973 0-38.763 15.465-73.909 40.554-99.623-9.951-1.993-17.448-10.778-17.448-21.315 0-12.007 9.733-21.74 21.74-21.74H52.346c-12.007 0-21.74 9.734-21.74 21.74 0 10.537 7.497 19.322 17.448 21.315C22.965 305.137 7.5 340.283 7.5 379.046c0 44.153 20.055 83.621 51.553 109.793 12.27 10.195 27.787 15.661 43.74 15.661h94.771a70 70 0 0 0 6.964-.363c-13.457-1.353-26.299-6.595-36.772-15.298"/><path fill="#ffb357" d="M178.499 317.739a71.63 71.63 0 0 0-36.019-9.665c-36.154 0-65.77 26.426-71.22 60.687-.937 5.891-5.913 10.285-11.879 10.285H40.717c0 32.706 14.449 63.469 39.643 84.402 4.825 4.009 11.087 6.216 17.635 6.216h43.444v-87.735z"/><path fill="#ffce71" d="M213.679 368.971c-3.423-21.883-16.72-40.535-35.18-51.232l-35.395 61.307h-30.285c0 33.555 10.5 64.85 28.621 90.619h61.322c6.551 0 12.825-2.217 17.667-6.243 25.214-20.966 39.594-51.659 39.6-84.375h-34.495c-5.887-.001-10.945-4.26-11.855-10.076"/><path fill="#d6948c" d="M251.849 190.693c-7.489-4.324-17.066-1.759-21.391 5.731l-83.24 144.177a42 42 0 0 0-5.614-.405l-13.879 13.879v54.628h44.51l4.508-4.508a41.54 41.54 0 0 0 6.452-22.266c0-9.666-3.304-18.585-8.849-25.681l83.233-144.165c4.326-7.489 1.76-17.066-5.73-21.39"/><path fill="#bd7669" d="M135.175 362.443a41.53 41.53 0 0 1 6.429-22.246c-.514-.002-1.027-.006-1.545.011-22.422.729-40.378 19.123-40.378 41.722 0 23.062 18.695 41.757 41.757 41.757 14.894 0 27.916-7.805 35.305-19.492-22.974-.102-41.568-18.753-41.568-41.752"/><path fill="#ff8e9e" d="M484.328 57.114h-30.242v30.241c5.596 10.309 8.778 22.113 8.778 34.645 0 40.177-32.686 72.864-72.864 72.864a72.4 72.4 0 0 1-34.645-8.778h-30.242v30.242C343.559 229.04 365.904 236.5 390 236.5c63.237 0 114.5-51.263 114.5-114.5 0-24.096-7.46-46.441-20.172-64.886"/><path fill="#ea5b70" d="m454.086 87.355 30.242-30.241C463.678 27.152 429.141 7.5 390 7.5c-63.237 0-114.5 51.263-114.5 114.5 0 39.14 19.652 73.678 49.613 94.328l79.607-79.607zM390 49.136a72.4 72.4 0 0 1 34.645 8.778l-98.731 98.73c-5.596-10.309-8.778-22.113-8.778-34.645 0-40.176 32.687-72.863 72.864-72.863"/><path d="M264.922 281.942c7.52-5.368 12.329-14.174 12.329-23.835l-.004-.495c-.218-13.023-9.242-24.044-21.378-27.564l8.207-14.214c6.401-11.084 2.609-25.236-8.476-31.636-11.085-6.401-25.235-2.61-31.637 8.477l-20.895 36.192H52.346c-16.123 0-29.24 13.117-29.24 29.241 0 9.734 4.852 18.57 12.438 23.922C12.549 309.13 0 343.19 0 379.046c0 30.955 9.343 60.679 27.019 85.959a7.5 7.5 0 0 0 10.444 1.849 7.5 7.5 0 0 0 1.849-10.444C23.407 433.662 15 406.91 15 379.046c0-35.471 13.645-68.991 38.422-94.386 4.147-4.25 1.928-11.426-3.895-12.591-6.618-1.326-11.421-7.197-11.421-13.961 0-7.853 6.388-14.241 14.24-14.241h142.061l-33.933 58.774c-24.877-5.776-50.911.742-70.022 17.252-14.215 12.28-23.662 29.217-26.6 47.689-.365 2.296-2.246 3.963-4.472 3.963H48.503c1.355-18.774 7.785-36.623 18.816-52.01a7.5 7.5 0 0 0-12.191-8.74c-14.262 19.895-21.832 43.37-21.903 67.905a8 8 0 0 0-.008.346c0 34.943 15.436 67.81 42.35 90.171 6.168 5.126 14.134 7.948 22.428 7.948h104.766c8.298 0 16.275-2.833 22.462-7.977 26.879-22.35 42.299-55.205 42.305-90.143 0-24.773-7.5-48.369-21.688-68.238a7.5 7.5 0 1 0-12.207 8.717c10.923 15.297 17.287 33.151 18.621 52.021h-26.721c-2.201 0-4.112-1.605-4.445-3.734-2.478-15.838-9.551-30.284-20.518-41.983l47.311-81.946c7.822.155 14.24 6.36 14.367 13.975l.002.251c0 6.709-4.757 12.571-11.31 13.938-5.787 1.206-7.963 8.343-3.84 12.576 24.272 24.909 37.855 57.892 38.247 92.867.43 41.702-17.947 79.895-48.798 105.549C225.721 492.041 211.876 497 197.564 497h-94.771c-18.616 0-32.199-7.311-44.881-19.159a7.5 7.5 0 1 0-10.239 10.961C62.821 502.952 79.964 512 102.793 512h94.771c17.808 0 35.059-6.189 48.576-17.429 34.824-28.957 54.708-71.716 54.207-117.246-.396-35.306-12.901-68.791-35.425-95.383m-27.968-81.767a8.154 8.154 0 0 1 11.146-2.986 8.153 8.153 0 0 1 2.986 11.146l-11.855 20.533h-18.843zm-6.384 43.692-62.718 108.632a7.5 7.5 0 0 0 .586 8.368c7.571 9.688 9.068 22.067 5.209 32.702l-58.391-33.712c7.338-8.699 18.594-13.521 30.941-11.826a7.49 7.49 0 0 0 7.518-3.68l58.014-100.484zM108.327 373.178l57.232 33.042a34.03 34.03 0 0 1-24.119 9.968c-18.89 0-34.257-15.368-34.257-34.258a34.1 34.1 0 0 1 1.144-8.752m97.942-3.048c1.488 9.512 9.59 16.416 19.265 16.416h26.712c-2.019 27.631-15.105 53.226-36.612 71.108-3.498 2.909-8.07 4.511-12.872 4.511H97.995c-4.8 0-9.36-1.593-12.842-4.485-21.536-17.894-34.636-43.498-36.653-71.134h10.88c9.645 0 17.755-6.984 19.286-16.607 5.674-35.67 38.873-59.093 73.882-53.568l-9.447 16.363c-12.444-.41-24.604 3.857-34.024 12.07a49.25 49.25 0 0 0-16.895 37.126c0 27.161 22.097 49.258 49.257 49.258 27.699 0 49.257-22.578 49.257-49.258 0-9.346-2.567-18.26-7.467-26.065l9.418-16.313a63.84 63.84 0 0 1 13.622 30.578M428.223 51.322c-11.675-6.336-24.892-9.686-38.223-9.686-44.312 0-80.364 36.051-80.364 80.363 0 13.332 3.35 26.55 9.687 38.223 2.4 4.423 8.363 5.255 11.895 1.726l98.73-98.73c3.539-3.541 2.68-9.504-1.725-11.896m-99.9 92.306A65.4 65.4 0 0 1 324.636 122c0-36.041 29.322-65.363 65.364-65.363 7.376 0 14.707 1.26 21.628 3.688z"/><path d="M488.52 50.063a7.5 7.5 0 0 0-10.481-1.626 7.5 7.5 0 0 0-1.626 10.481C489.881 77.333 497 99.146 497 122c0 59-48 107-107 107s-107-48-107-107S331 15 390 15c24.712 0 47.921 8.188 67.116 23.681a7.5 7.5 0 0 0 10.546-1.126 7.5 7.5 0 0 0-1.126-10.546C444.957 9.592 417.775 0 390 0c-67.271 0-122 54.729-122 122s54.729 122 122 122 122-54.729 122-122c0-26.06-8.119-50.935-23.48-71.937"/><path d="M351.777 192.678c11.675 6.336 24.892 9.686 38.223 9.686 44.312 0 80.363-36.051 80.363-80.363 0-13.332-3.35-26.549-9.686-38.223-2.379-4.383-8.336-5.285-11.896-1.726l-98.73 98.73c-3.538 3.541-2.679 9.504 1.726 11.896m99.899-92.306A65.4 65.4 0 0 1 455.364 122c0 36.041-29.322 65.363-65.363 65.363a65.4 65.4 0 0 1-21.628-3.688z"/></svg>