<svg xmlns="http://www.w3.org/2000/svg" width="512" height="512" viewBox="0 0 512.001 512.001"><path fill="#d4d4ff" d="M174.194 45.79c-16.735-28.986-59.572-48.917-88.558-32.182s-33.143 63.799-16.408 92.785 105.761 128.918 134.746 112.183c28.986-16.736-13.045-143.8-29.78-172.786"/><path fill="#ffb5c0" d="M173.568 154.488c1.201 5.686-5.563 9.594-9.887 5.71-27.761-24.938-56.219-59.108-63.483-71.687-8.609-14.912-5.37-38.915 3.319-43.932 8.177-4.723 30.727 3.543 39.704 19.092 7.125 12.341 22.579 54.025 30.347 90.817"/><path fill="#efedff" d="M337.835 45.79c16.735-28.986 59.572-48.917 88.558-32.182s33.143 63.799 16.408 92.785S337.04 235.311 308.055 218.576C279.07 201.84 321.1 74.776 337.835 45.79"/><path fill="#ffb5c0" d="M348.346 160.208c-4.325 3.883-11.088-.022-9.888-5.709 7.767-36.788 23.227-78.492 30.348-90.827 8.985-15.561 31.532-23.812 39.706-19.092 8.688 5.016 11.927 29.019 3.317 43.932-7.135 12.359-35.523 46.59-63.483 71.696"/><path fill="#efedff" d="M378.95 233.092c-19.419-25.183-45.938-43.346-75.582-52.75h-71.377c-33.513 0-60.681 27.168-60.681 60.681v142.874c0 33.513 27.168 60.681 60.681 60.681h67.049c8.195-1.938 16.126-4.434 23.7-7.458 52.216-20.845 88.274-66.809 88.274-128.529.001-25.057-13.279-51.139-32.064-75.499"/><path fill="#d4d4ff" d="m286.402 147.636-10.772 5.121-3.997-11.239c-2.613-7.348-9.116-11.022-15.618-11.022s-13.005 3.674-15.618 11.022l-3.997 11.239-10.772-5.121c-14.088-6.697-28.785 8-22.088 22.087l5.122 10.618.01.006c-29.647 9.403-56.172 27.558-75.593 52.744-18.785 24.361-32.064 50.442-32.064 75.499 0 85.604 69.396 140.909 155 140.909 14.548 0 28.918-1.587 43.026-4.922a136.6 136.6 0 0 1-43.026-14.229v-.279c-43.946-23.189-73.272-65.94-73.272-121.479 0-50.637 38.029-106.906 100.139-122.955l20.487-5.294 5.121-10.619c6.696-14.086-8.001-28.783-22.088-22.086"/><ellipse cx="176.458" cy="331.184" fill="#ff8e9e" rx="29.355" ry="23.377"/><ellipse cx="335.571" cy="331.184" fill="#ff8e9e" rx="29.355" ry="23.377"/><path fill="#ff8e9e" d="M276.015 316.057c0-7.797-8.954-14.118-20-14.118s-20 6.321-20 14.118 8.954 17.882 20 17.882 20-10.085 20-17.882"/><path fill="#ffd4bd" d="M379.529 364.696c-10.32.774-18.055 9.769-17.28 20.087v28.53h-34.587l-71.647 31.805c0-8.425-3.348-16.466-9.329-22.465-10.649-10.677-2.538-2.554-40.606-40.624-7.348-7.347-19.157-7.249-26.421-.077-6.84 6.761-7.135 17.764-1.288 25.172.455.576.942 1.133 1.471 1.662l4.22 4.526v59.071l71.954 15.502 71.647-15.502c14.124-3.34 37.723-8.481 50.475-15.272 13.2-7.029 21.48-20.734 21.48-35.689v-39.448c-.777-10.317-9.77-18.053-20.089-17.278"/><g fill="#ffbf9d"><path d="M184.061 413.314h-34.28v-28.53c.775-10.319-6.961-19.313-17.28-20.087s-19.312 6.961-20.088 17.28v39.448c0 14.955 8.279 28.66 21.479 35.689 12.752 6.791 36.045 11.931 50.169 15.272h29.715v-9.619a48.4 48.4 0 0 0-14.172-34.215zM332.371 381.954a18.7 18.7 0 0 0-4.709-3.391c-7.031-3.56-15.836-2.407-21.712 3.468-40.847 40.847-31.226 31.218-40.606 40.624-5.918 5.935-9.329 13.953-9.329 22.465v27.265h33.753c0-14.043 5.583-26.759 14.833-36.008l23.062-23.062 4.526-4.526c7.329-7.331 7.554-19.548.182-26.835"/></g><path fill="#ffb5c0" d="M327.662 472.384H184.061v32.101h71.647c.054-.051.104.052.157 0 .051.052.098-.051.149 0h71.983c9.492-9.762 8.328-23.85-.335-32.101"/><g fill="#ff8e9e"><path d="M289.767 472.384h-33.753v32.101h33.751a22.623 22.623 0 0 1 .002-32.101M213.777 504.485a22.62 22.62 0 0 1-.001-32.101h-29.715a22.62 22.62 0 0 0 0 32.101z"/></g><path d="M449.297 110.143c18.417-31.898 14.062-83.853-19.153-103.03C421.88 2.341 412.752 0 403.417 0c-28.048 0-58.242 18.079-72.077 42.04-9.498 16.451-24.952 58.732-33.715 96.79-8.225-1.425-13.784 1.719-17.713 3.586l-1.213-3.41c-3.458-9.726-12.363-16.01-22.685-16.01s-19.226 6.284-22.685 16.01l-1.213 3.41c-3.784-1.799-9.412-5.025-17.713-3.586-8.763-38.059-24.217-80.339-33.715-96.79C166.887 18.134 136.66 0 109.132 0c-9.528 0-18.844 2.262-27.246 7.112C48.687 26.281 44.24 78.109 62.732 110.143c10.61 18.379 50.149 66.021 86.838 95a179 179 0 0 0-14.487 13.966 7.501 7.501 0 0 0 11.001 10.198 162 162 0 0 1 20.195-18.421c3.98-3.051 3.9-9.092-.171-12.032-36.487-26.354-79.869-77.995-90.385-96.21-14.63-25.34-11.703-67.893 13.662-82.54 25.201-14.545 63.691 4.11 78.313 29.438 8.236 14.264 24.405 57.282 33.036 96.866-6.654 7.268-8.236 17.558-3.95 26.576l5.122 10.618c2.611 5.412 10.262 5.735 13.272.465a7.5 7.5 0 0 0 .166-7.132l-5.031-10.43c-2.548-5.36.72-9.243 1.782-10.306 1.064-1.062 4.953-4.336 10.312-1.789l10.772 5.121c4.024 1.911 8.803-.086 10.287-4.261l3.997-11.238c1.992-5.6 7.049-6.035 8.552-6.035s6.56.436 8.552 6.035l3.997 11.238c1.485 4.179 6.267 6.171 10.287 4.261l10.772-5.121c5.358-2.55 9.248.726 10.313 1.79 1.062 1.062 4.329 4.943 1.799 10.266l-5.121 10.619a7.5 7.5 0 0 0 3.498 10.014c3.73 1.795 8.214.232 10.013-3.498l5.139-10.657c4.269-8.98 2.686-19.27-3.968-26.536 8.631-39.583 24.799-82.602 33.035-96.866 14.641-25.359 52.838-44.146 78.313-29.438s28.305 57.181 13.663 82.54c-10.455 18.11-53.815 69.619-90.448 96.078-4.069 2.941-4.156 8.987-.163 12.039 37.959 29.011 57.819 71.175 57.819 97.831 0 18.443-3.387 35.761-10.054 51.628-17.024-9.339-38.711 2.422-38.711 24.681v20.771h-11.664c4.216-9.788 2.404-21.439-5.441-29.193-10.122-10.005-26.663-10.229-36.997.107-35.569 35.567-33.531 33.528-37.45 37.459-3.342 3.352-5.005 4.886-7.182 7.872-2.143-2.939-3.856-4.537-6.486-7.174-5.835-5.851-2.573-2.586-38.146-38.158-10.271-10.271-26.785-10.187-36.996-.106-7.897 7.806-9.621 19.496-5.447 29.193h-11.658v-20.773c0-23.286-22.148-33.774-38.72-24.674-6.662-15.858-10.046-33.178-10.046-51.632 0-16.338 7.282-36.99 19.978-56.659a7.5 7.5 0 1 0-12.603-8.135c-14.22 22.029-22.375 45.646-22.375 64.794 0 22.805 4.669 44.122 13.885 63.431-1.827 3.827-2.488 7.832-2.488 9.812v39.448c0 17.736 9.753 33.947 25.454 42.309 10.742 5.72 27.58 10.1 41.695 13.462-4.316 10.731-2.313 23.743 6.697 32.751a7.5 7.5 0 0 0 5.303 2.196h143.936a7.5 7.5 0 0 0 5.377-2.271c8.64-8.885 11.102-21.484 6.48-32.649 2.62-.624 5.348-1.286 8.14-1.993a7.5 7.5 0 0 0-3.681-14.541c-6.073 1.538-11.672 2.821-17.521 4.197h-63.276v-19.766c0-11.036 6.659-16.687 10.305-20.343 3.872-3.883 2.545-2.555 37.434-37.442 4.43-4.43 11.517-4.324 15.846-.046 4.441 4.391 4.144 11.839-.213 16.195l-21.922 21.923a7.5 7.5 0 0 0 0 10.606 7.5 7.5 0 0 0 10.606.001l15.2-15.2h31.479c4.143 0 7.5-3.357 7.5-7.5l-.021-29.096c0-6.894 4.319-11.589 10.367-12.043 6.121-.452 11.439 4.124 12.022 10.118v39.131c0 12.379-6.76 24.334-20.5 30.531a7.5 7.5 0 0 0-3.751 9.921c1.705 3.777 6.15 5.457 9.921 3.751 19.267-8.696 29.33-26.067 29.33-44.203v-39.448c0-2.018-.678-6.022-2.493-9.822 9.219-19.319 13.891-40.631 13.891-63.42 0-36.313-26.491-78.19-56.118-103.599 34.369-27.297 75.182-74.562 86.896-94.851M187.538 479.742h60.977V497h-60.977c-3.541-5.167-3.553-12.072 0-17.258m136.756 0c3.592 4.974 3.944 11.794.194 17.258h-60.974v-17.258zm-139.055-15c-13.334-3.14-36.217-8.212-47.822-14.393-10.797-5.75-17.505-16.888-17.505-29.068V382.15c.55-5.656 5.397-10.15 11.164-10.15 6.487 0 11.712 5.522 11.226 12.082-.033.433-.021 28.653-.021 29.089a7.5 7.5 0 0 0 7.5 7.5h31.479l13.04 13.04a7.5 7.5 0 0 0 10.606-10.607c-21.146-21.146-19.908-19.828-20.65-20.767-3.482-4.412-3.446-11.119.671-15.188 4.324-4.27 11.408-4.397 15.848.042 36.073 36.073 32.191 32.186 38.132 38.144 2.824 2.832 9.607 8.609 9.607 19.643v19.766h-63.275z"/><path d="M149.717 59.922c-10.346-17.921-37.011-29.306-49.949-21.838-13.087 7.557-16.317 36.418-6.064 54.179 7.418 12.845 35.326 46.67 63.927 72.578 9.962 9.021 25.842 0 22.984-13.269v-.001c-8.122-37.695-23.47-78.785-30.898-91.649m-43.023 24.84c-7.26-12.575-3.401-31.392.572-33.686 3.515-1.911 21.965 3.361 29.461 16.346 6.567 11.374 20.636 49.18 28.504 84.042-26.274-24.269-51.98-55.347-58.537-66.702M354.395 164.852c28.588-25.884 56.502-59.724 63.93-72.59 10.254-17.759 7.025-46.619-6.062-54.177-12.875-7.436-39.548 3.819-49.951 21.837-7.43 12.869-22.778 53.966-30.9 91.661-2.864 13.299 13.062 22.252 22.983 13.269m20.907-97.43c7.5-12.988 25.956-18.257 29.46-16.347 3.977 2.296 7.834 21.112.573 33.687-6.567 11.376-32.276 42.466-58.539 66.714 7.867-34.863 21.937-72.676 28.506-84.054M201.065 308.681v-12c0-4.143-3.357-7.5-7.5-7.5s-7.5 3.357-7.5 7.5v12c0 4.143 3.357 7.5 7.5 7.5s7.5-3.358 7.5-7.5M325.963 308.681v-12c0-4.143-3.357-7.5-7.5-7.5s-7.5 3.357-7.5 7.5v12c0 4.143 3.357 7.5 7.5 7.5s7.5-3.358 7.5-7.5M281.31 325.159a7.5 7.5 0 0 0-3.524-10.004 7.503 7.503 0 0 0-10.004 3.525c-1.847 3.855-6.481 7.759-11.767 7.759s-9.92-3.903-11.767-7.759a7.5 7.5 0 1 0-13.528 6.479c3.032 6.331 9.396 12.687 17.795 15.174v7.424l-11.701 11.7a7.5 7.5 0 0 0 10.607 10.607l8.594-8.594 8.594 8.594a7.501 7.501 0 0 0 10.607-10.607l-11.701-11.701v-7.423c8.398-2.487 14.763-8.843 17.795-15.174"/></svg>