<svg xmlns="http://www.w3.org/2000/svg" width="512" height="512"><path fill="#efedff" d="M311.241 89.401c34.705 7.787 49.816 48.79 28.462 77.235l-55.537 71.451h-32.657l-20-60.087 20-40.784c0-31.391 29.102-54.687 59.732-47.815"/><path fill="#ffb5c0" d="M315.711 148.626c8.284-11.034 2.417-26.934-11.038-29.952-12.194-2.736-23.164 6.597-23.164 18.543v41.255c0 5.037 6.411 7.175 9.435 3.147z"/><path fill="#d4d4ff" d="M191.778 89.401c-34.705 7.787-49.816 48.79-28.462 77.235l55.537 71.451h32.657V137.216c-.001-31.391-29.103-54.687-59.732-47.815"/><path fill="#efedff" d="M336.291 274.466c-13.392-17.367-31.681-29.893-52.125-36.379h-49.225c-23.112 0-41.849 18.736-41.849 41.849v98.532c0 23.112 18.736 41.849 41.849 41.849h46.24a116 116 0 0 0 16.345-5.143c36.011-14.376 60.878-46.074 60.878-88.64 0-17.28-9.158-35.268-22.113-52.068"/><path fill="#d4d4ff" d="m272.466 215.532-7.429 3.532-2.756-7.751c-1.802-5.068-6.287-7.602-10.771-7.602s-8.969 2.534-10.771 7.602l-2.756 7.751-7.429-3.532c-9.716-4.619-19.851 5.517-15.233 15.232l3.532 7.323.007.004c-20.446 6.485-38.739 19.005-52.132 36.374-12.955 16.8-22.113 34.787-22.113 52.067 0 59.037 47.858 97.178 106.895 97.178 10.033 0 19.943-1.094 29.673-3.395a94.2 94.2 0 0 1-29.673-9.813v-.192c-30.307-15.992-50.532-45.475-50.532-83.778 0-34.922 26.227-73.727 69.06-84.795l14.129-3.651 3.531-7.323c4.619-9.714-5.517-19.849-15.232-15.231"/><g fill="#ff8e9e"><path d="M198.345 118.674c-13.454 3.019-19.322 18.918-11.038 29.952l24.767 32.993c3.024 4.028 9.435 1.889 9.435-3.147v-41.255c0-11.946-10.97-21.279-23.164-18.543M188.953 322.808c-16.212 0-29.355 10.466-29.355 23.376s13.142 23.377 29.355 23.377c16.212 0 29.355-10.466 29.355-23.377s-13.143-23.376-29.355-23.376M314.066 322.808c-16.212 0-29.355 10.466-29.355 23.376s13.143 23.377 29.355 23.377 29.355-10.466 29.355-23.377-13.143-23.376-29.355-23.376M251.509 321.939c-11.046 0-20 6.321-20 14.118s8.954 17.882 20 17.882 20-10.085 20-17.882-8.954-14.118-20-14.118"/></g><path d="m297.348 185.58 24.36-32.451c11.553-15.387 3.36-37.565-15.394-41.773-16.769-3.765-32.306 8.995-32.306 25.861v40.578c.001 12.46 15.861 17.747 23.34 7.785m-8.339-48.363c0-7.183 6.547-12.905 14.022-11.225 8.156 1.829 11.711 11.432 6.682 18.131l-20.704 27.58zM205.67 185.58c7.479 9.963 23.339 4.675 23.339-7.785v-40.578c0-16.892-15.56-29.615-32.306-25.861-18.774 4.214-26.933 26.406-15.393 41.773zm-5.683-59.588c7.496-1.684 14.022 4.062 14.022 11.225v34.486l-20.704-27.58c-5.019-6.686-1.49-16.298 6.682-18.131"/><path d="M350.395 381.596a7.5 7.5 0 0 0-12.652-8.056c-17.016 26.72-49.252 42.672-86.233 42.672-57.593 0-99.395-37.715-99.395-89.678 0-13.824 6.915-29.802 20.553-47.487 17.012-22.063 35.168-28.507 50.993-35.208a7.48 7.48 0 0 0 1.893-9.122l-3.459-7.172c-1.608-3.389 1.89-6.832 5.239-5.239l7.429 3.532c4.024 1.913 8.803-.086 10.287-4.261l2.756-7.75c1.246-3.503 6.164-3.501 7.409-.001l2.756 7.751c1.489 4.188 6.277 6.167 10.287 4.261 7.952-3.781 8.036-3.956 9.173-3.956 2.421 0 4.898 2.712 3.513 5.625l-3.484 7.227c-2.059 4.119.049 9.11 4.44 10.503 19.385 6.15 36.14 17.842 48.454 33.811 13.638 17.684 20.552 33.661 20.552 47.486-.001 7.525-.846 14.857-2.512 21.794a7.5 7.5 0 0 0 5.542 9.044c4.026.962 8.076-1.514 9.044-5.542 1.94-8.081 2.925-16.591 2.926-25.295 0-17.219-7.965-36.277-23.673-56.647-11.753-15.241-27.01-27.091-44.581-34.737l48.051-64.009c24.627-32.81 7.156-80.087-32.819-89.057-24.975-5.598-49.411 6.175-61.385 27.004-16.103-28.001-51.399-36.282-78.062-20.381a7.5 7.5 0 0 0 7.683 12.883c27.876-16.628 62.89 3.56 62.89 35.628v60.515c-4.715 2.005-8.471 5.886-10.31 10.991-9.097-4.282-19.062-.76-24.073 7.112l-40.313-53.701c-9.495-12.647-10.643-28.477-4.721-41.811a7.5 7.5 0 0 0-3.811-9.898 7.496 7.496 0 0 0-9.898 3.811c-7.994 18.001-6.527 39.637 6.434 56.904l48.055 64.014c-42.788 18.613-68.258 63.176-68.258 91.379 0 30.15 12.029 57.273 33.872 76.373 20.874 18.253 49.471 28.305 80.523 28.305 42.135-.002 79.101-18.55 98.885-49.617m-91.386-244.379c0-26.606 24.668-46.32 50.59-40.497 29.402 6.596 42.172 41.348 24.106 65.414l-40.314 53.702c-3.39-5.327-9.336-8.955-15.962-8.955-2.782 0-5.509.619-8.11 1.842-1.839-5.104-5.595-8.985-10.31-10.991z"/><path d="M191.56 316.681v12c0 4.143 3.357 7.5 7.5 7.5s7.5-3.357 7.5-7.5v-12c0-4.143-3.357-7.5-7.5-7.5s-7.5 3.357-7.5 7.5M296.458 316.681v12c0 4.143 3.357 7.5 7.5 7.5s7.5-3.357 7.5-7.5v-12c0-4.143-3.357-7.5-7.5-7.5s-7.5 3.357-7.5 7.5M182.63 437.192l-18.447-7.979c-3.795-1.638-8.213.099-9.861 3.906l-19.687 45.514a7.5 7.5 0 0 0 13.767 5.955l7.052-16.304 10.098 4.368a7.501 7.501 0 0 0 5.955-13.767l-10.098-4.368 3.702-8.558 11.563 5.002a7.497 7.497 0 0 0 9.861-3.906 7.5 7.5 0 0 0-3.905-9.863M295.467 494.011l-13.211 1.966-1.435-9.643 11.69-1.74a7.5 7.5 0 0 0 6.314-8.521c-.61-4.098-4.425-6.93-8.522-6.314l-11.69 1.74-1.435-9.644 13.211-1.967a7.5 7.5 0 0 0 6.314-8.522c-.61-4.098-4.426-6.928-8.522-6.313l-20.629 3.07a7.5 7.5 0 0 0-6.314 8.522l7.287 48.959a7.5 7.5 0 0 0 8.522 6.313l20.629-3.07c4.097-.609 6.924-4.425 6.314-8.522s-4.429-6.925-8.523-6.314M358.591 474.366l-12.205 5.427-3.961-8.908 10.8-4.803a7.5 7.5 0 0 0-6.095-13.705l-10.799 4.802-3.961-8.908 12.205-5.428a7.5 7.5 0 0 0-6.095-13.705l-19.057 8.475a7.5 7.5 0 0 0-3.806 9.899l20.111 45.229a7.5 7.5 0 0 0 9.9 3.807l19.058-8.474a7.5 7.5 0 0 0 3.807-9.9 7.507 7.507 0 0 0-9.902-3.808M228.368 445.806l-13.176-1.608h-.009l-.008-.001c-4.107-.505-7.851 2.424-8.354 6.535l-6.054 49.586c-.544 4.456 2.928 8.41 7.454 8.41a7.503 7.503 0 0 0 7.436-6.592l1.31-10.733 11.865 17.334a7.49 7.49 0 0 0 10.425 1.953 7.5 7.5 0 0 0 1.953-10.426l-9.795-14.31c8.109-2.063 14.489-8.707 15.531-17.244 1.385-11.331-7.162-21.512-18.578-22.904m3.69 21.085c-.36 2.95-3.487 5.1-6.834 4.689-1.359-.166-3.512-.422-5.685-.677.246-2.099.49-4.162.649-5.463.136-1.117.39-3.237.654-5.442l5.71.696c3.273.402 5.869 3.227 5.506 6.197M278.363 340.944a7.499 7.499 0 1 0-14.517-3.775c-1.007 3.871-6.188 9.271-12.337 9.271s-11.33-5.399-12.337-9.271a7.501 7.501 0 0 0-14.517 3.775c2.111 8.118 9.511 16.457 19.354 19.391v7.421l-11.701 11.7a7.5 7.5 0 0 0 10.607 10.607l8.594-8.594 8.594 8.594a7.501 7.501 0 0 0 10.607-10.607l-11.701-11.701v-7.42c9.843-2.934 17.242-11.272 19.354-19.391M315.084 69.958c.689.402 1.035.605 16.93 6.459a7.5 7.5 0 1 0 5.184-14.076c-2.948-1.086-6.05-2.234-8.689-3.217l14.211-37.921a7.5 7.5 0 0 0-14.047-5.263l-16.829 44.91a7.5 7.5 0 0 0 3.24 9.108M263.201 62.018c20.967 2.97 20.037 2.886 20.904 2.886a7.5 7.5 0 0 0 1.043-14.927l-12.417-1.759 1.232-8.694c10.261 1.453 10.175 1.486 11.025 1.486a7.5 7.5 0 0 0 1.043-14.927l-9.964-1.411 1.232-8.694 12.417 1.759c4.099.591 7.897-2.273 8.478-6.374a7.5 7.5 0 0 0-6.374-8.478L271.977.074a7.505 7.505 0 0 0-8.478 6.374l-6.415 45.485c-.517 5.186.001 5.602 1.176 7.165a7.49 7.49 0 0 0 4.941 2.92M117.932 90.584a7.5 7.5 0 0 0-7.278 7.716c.106 3.708-1.461 6.783-4.28 9.292-6.825 6.079-17.243 5.444-23.295-1.354-6.062-6.811-5.458-17.232 1.355-23.295a16.4 16.4 0 0 1 8.757-4.028A7.5 7.5 0 1 0 91.2 64.048a31.35 31.35 0 0 0-16.739 7.69c-13.005 11.574-14.164 31.467-2.587 44.473 11.587 13.018 31.494 14.14 44.473 2.587 6.384-5.682 9.529-13.086 9.3-20.935-.121-4.141-3.598-7.395-7.715-7.279M447.983 96.609a7.5 7.5 0 0 0-8.717-6.043l-16.107 2.917 3.869-16.08a7.5 7.5 0 0 0-5.538-9.046c-4.019-.968-8.076 1.51-9.046 5.538l-6.035 25.084-16.242 15.249a7.5 7.5 0 0 0 10.268 10.936l16.26-15.265 25.246-4.573a7.5 7.5 0 0 0 6.042-8.717M191.6 47.51c2.375 12.631 15.448 19.946 27.607 17.674 12.028-2.242 22.405-13.358 19.908-26.642l-6.096-32.427a7.5 7.5 0 0 0-14.742 2.772l6.096 32.427c1.088 5.783-6.856 11.117-12.902 8.688-3.745-1.508-4.717-3.072-5.128-5.264l-6.102-32.461a7.5 7.5 0 0 0-8.757-5.985 7.5 7.5 0 0 0-5.985 8.757zM397.322 61.775a7.5 7.5 0 1 0 8.33-12.474l-22.045-14.722a7.501 7.501 0 0 0-8.33 12.474l4.741 3.166-22.492 33.68A7.5 7.5 0 0 0 370 92.229l22.491-33.68zM142.95 83.305a7.5 7.5 0 0 0 12.951-7.567l-4.849-8.301 18.419 6.111a7.5 7.5 0 1 0 4.723-14.236l-15.41-5.113c4.85-6.361 5.762-15.108 1.604-22.227v-.001c-5.557-9.508-18.088-12.562-27.932-6.814l-11.015 6.436-.007.005-.006.003a7.5 7.5 0 0 0-2.692 10.259zm-2.928-45.195c2.613-1.529 6.078-.859 7.415 1.431 1.336 2.288.217 5.635-2.396 7.161-1.083.633-2.765 1.623-4.488 2.641-2.564-4.343-1.885-3.209-5.049-8.593z"/></svg>