<svg xmlns="http://www.w3.org/2000/svg" width="512" height="512"><path fill="#ff8e9e" d="M284.379 9.123 236 17.502l20 50.015c.405 0 .806-.015 1.211-.013 102.774.649 186.634 84.509 187.285 187.282.218 34.431-8.849 66.765-24.833 94.651-4.931 8.602-16.654 10.223-23.665 3.212L238.471 195.121h-24.399l.21 52.591 11.076 19.149 128.458 128.458c6.982 6.982 5.4 18.639-3.128 23.615-27.84 16.246-60.195 25.561-94.687 25.561l-20 50.002 48.38 8.38C408.255 488.791 504.5 383.644 504.5 256S408.255 23.209 284.379 9.123"/><path fill="#ea5b70" d="M280.6 499.497a73.79 73.79 0 0 1-24.6-55.002c-1.346 0-2.693-.009-4.045-.038-100.58-2.12-182.293-83.835-184.412-184.414-.759-36.007 8.644-69.804 25.523-98.73 4.977-8.529 16.633-10.111 23.615-3.128l108.677 108.676c-.921-5.863-1.422-11.799-1.422-17.78 0-19.802 5.222-38.001 14.534-53.959l-79.115-79.115c-6.992-6.992-5.423-18.717 3.154-23.637C190.078 76.553 222.002 67.517 256 67.517v-.012a73.79 73.79 0 0 1 24.6-55.002l3.779-3.38A251 251 0 0 0 256 7.5C118.757 7.5 7.5 118.757 7.5 256c0 147.837 128.575 263.738 276.88 246.877z"/><g fill="#2ed0fc"><path d="M374.125 159.803c-8.284 0-15 6.716-15 15v62.19h30v-62.19c0-8.284-6.716-15-15-15M314.125 159.803c-8.284 0-15 6.716-15 15v62.19h30v-62.19c0-8.284-6.716-15-15-15"/></g><path fill="#2ed0fc" d="m154.616 306.497-68.481 39.86c-7.174 4.143-9.632 13.315-5.49 20.49s13.316 9.633 20.49 5.49l68.481-39.86z"/><path fill="#7ce3ff" d="m405.375 232.446-42.502-24.539a37.56 37.56 0 0 0-18.749-5.023 37.54 37.54 0 0 0-18.75 5.024l-66.74 38.533 15 25.98 66.742-38.534c2.275-1.312 5.221-1.313 7.499.001l42.5 24.538c7.174 4.143 16.348 1.684 20.49-5.49s1.684-16.347-5.49-20.49"/><path fill="#fce3a0" d="m267.875 245.436-42.5-24.538c-23.196 0-42 18.804-42 42v53.121c0 23.196 18.804 42 42 42l42.5-24.537a22.5 22.5 0 0 0 11.25-19.486v-49.074a22.5 22.5 0 0 0-11.25-19.486"/><path fill="#ffce71" d="M225.375 220.898a22.5 22.5 0 0 0-22.5 0l-42.5 24.538a22.5 22.5 0 0 0-11.25 19.485v49.074a22.5 22.5 0 0 0 11.25 19.486l42.5 24.537a22.5 22.5 0 0 0 22.5 0c-37.865-37.864-37.865-99.255 0-137.12"/><path d="M74.149 370.598c5.988 10.372 19.033 14.262 29.752 8.761 37.214 45.846 92.322 72.637 152.098 72.637 34.615 0 68.664-9.192 98.468-26.584 12.569-7.336 15.247-24.799 4.659-35.389l-72.701-72.7c.123-1.104.199-2.214.199-3.326v-40.414l12.487-7.211 91.581 91.579c10.6 10.608 28.174 7.958 35.476-4.783 16.899-29.48 25.832-63.08 25.832-97.17-.15-48.489-16.51-91.499-45.895-126.028a7.5 7.5 0 1 0-11.424 9.72c26.576 31.229 42.164 70.699 42.318 116.308 0 31.477-8.245 62.497-23.845 89.709-2.487 4.341-8.342 5.152-11.854 1.638l-88.74-88.739 31.513-18.197c.025-.007.079-.007.052-.024l42.5 24.538c10.797 6.233 24.53 2.512 30.735-8.235 6.203-10.744 2.509-24.532-8.235-30.735l-12.5-7.217v-43.931c0-12.406-10.094-22.5-22.5-22.5s-22.5 10.094-22.5 22.5v21.223a44.1 44.1 0 0 0-15 0v-21.223c0-12.406-10.093-22.5-22.5-22.5s-22.5 10.094-22.5 22.5v43.931l-12.004 6.931-114.963-114.965c-3.483-3.483-2.744-9.346 1.583-11.828 27.623-15.847 57.515-23.882 88.845-23.882 43.463 0 85.821 15.747 119.272 44.342a7.5 7.5 0 0 0 9.746-11.402c-36.165-30.914-81.984-47.939-129.018-47.939-33.504 0-66.808 8.946-96.31 25.87-12.69 7.282-15.327 24.845-4.725 35.447l112.12 112.12-2.047 1.182-35-20.208c-9.253-5.342-20.747-5.342-30 0l-9.901 5.717-67.24-67.239c-10.513-10.51-27.99-8.037-35.396 4.651C69.194 187.342 60 221.393 60 256.002c0 29.97 6.65 58.802 19.784 85.619-8.699 6.788-11.306 19.152-5.635 28.977m12.991-7.5c-2.067-3.581-.836-8.178 2.768-10.258l52.843-30.758a30.2 30.2 0 0 0 7.525 12.975l-52.892 30.786a7.494 7.494 0 0 1-10.244-2.745m261.372 37.524c3.481 3.479 2.721 9.31-1.604 11.834-27.511 16.054-58.946 24.539-90.907 24.539-53.973 0-104.321-23.714-138.933-65.253l47.095-27.413 34.962 20.186c9.25 5.341 20.746 5.344 30 0l42.5-24.537a30 30 0 0 0 8.688-7.554c.505.504 67.696 67.693 68.199 68.198m25.613-233.318c4.136 0 7.5 3.364 7.5 7.5v35.27l-15-8.66v-26.609c0-4.137 3.364-7.501 7.5-7.501m-15.002 47.098 42.502 24.539c3.581 2.068 4.812 6.664 2.745 10.245a7.496 7.496 0 0 1-10.245 2.745l-42.501-24.539a15.05 15.05 0 0 0-14.997 0L285.519 256.9a30.16 30.16 0 0 0-7.5-12.99l51.107-29.508c9.27-5.348 20.767-5.328 29.997 0m-52.498-39.598c0-4.136 3.364-7.5 7.5-7.5s7.5 3.364 7.5 7.5v26.609l-15 8.66zm-100 52.59a15.04 15.04 0 0 1 15 0l42.5 24.538a15.04 15.04 0 0 1 7.5 12.99v49.074c0 5.123-2.633 10.181-7.5 12.991l-42.5 24.537a15.04 15.04 0 0 1-15 0l-42.5-24.537a15.04 15.04 0 0 1-7.5-12.991v-49.074a15.04 15.04 0 0 1 7.5-12.99zM75 256.002c0-31.956 8.487-63.393 24.543-90.909 2.522-4.321 8.349-5.09 11.835-1.604l64.397 64.396-19.149 11.057c-9.252 5.341-15 15.296-15 25.98v40.459L92.698 333.86C80.955 309.447 75 283.243 75 256.002"/><path d="M179.125 317.167a7.5 7.5 0 0 0 7.5-7.5v-40.415c0-4.143-3.358-7.5-7.5-7.5s-7.5 3.357-7.5 7.5v40.415a7.5 7.5 0 0 0 7.5 7.5M217.875 336.369l35-20.207a7.5 7.5 0 0 0-7.5-12.99l-35 20.207a7.5 7.5 0 0 0 7.5 12.99M210.375 255.54l35 20.207a7.497 7.497 0 0 0 10.245-2.745 7.5 7.5 0 0 0-2.745-10.245l-35-20.207a7.5 7.5 0 0 0-7.5 12.99"/><path d="M256 0C187.62 0 123.333 26.628 74.981 74.979S0 187.616 0 255.995c0 62.989 23.067 123.503 64.951 170.396a7.5 7.5 0 0 0 11.188-9.992C36.712 372.259 15 315.293 15 255.995 15 123.11 123.112 15 256 15c133.678 0 241 108.1 241 240.995C497 388.374 390.308 497 255.692 497c-58.454.001-114.893-21.348-158.919-60.113a7.5 7.5 0 0 0-9.913 11.258c46.768 41.179 106.727 63.856 168.832 63.855C398.166 512 512 396.658 512 255.995 512 114.77 397.46 0 256 0"/></svg>