<svg xmlns="http://www.w3.org/2000/svg" width="512" height="512"><path fill="#70dcba" d="M67.036 380.575h-4.961v-82.689a16.54 16.54 0 0 0-28.379-11.545l-21.499 22.05c-6.376 6.54-6.244 17.01.296 23.387 4.51 4.398 10.892 5.698 16.507 3.938v44.859h-4.961c-9.133 0-16.538 7.404-16.538 16.538s7.404 16.538 16.538 16.538h42.998c9.133 0 16.538-7.404 16.538-16.538s-7.405-16.538-16.539-16.538"/><circle cx="487.962" cy="397.115" r="16.538" fill="#b0ebd8"/><circle cx="389.281" cy="307.334" r="16.538" fill="#70dcba"/><path fill="#b0ebd8" d="m160.649 281.348-16.538 16.538 16.538 16.538c9.12 0 16.538 7.418 16.538 16.538v33.076c0 9.119-7.418 16.538-16.538 16.538l-.001.001-16.537 16.537 16.538 16.538c27.357 0 49.613-22.256 49.613-49.613v-33.076c0-27.359-22.256-49.615-49.613-49.615"/><path fill="#70dcba" d="M160.649 380.575c-9.12 0-16.538-7.418-16.538-16.538v-33.076c0-9.12 7.418-16.538 16.538-16.538-9.134-9.134-9.134-23.942 0-33.076-27.357 0-49.613 22.256-49.613 49.613v33.076c0 27.357 22.256 49.613 49.613 49.613-9.134-9.132-9.134-23.941 0-33.074"/><path fill="#b0ebd8" d="m292.951 281.348-16.538 16.538 16.538 16.538c9.12 0 16.538 7.418 16.538 16.538v33.076c0 9.119-7.418 16.538-16.538 16.538l-.001.001-16.537 16.537 16.538 16.538c27.357 0 49.613-22.256 49.613-49.613v-33.076c.001-27.359-22.255-49.615-49.613-49.615"/><path fill="#70dcba" d="M292.951 380.575c-9.12 0-16.538-7.418-16.538-16.538v-33.076c0-9.12 7.418-16.538 16.538-16.538-9.134-9.134-9.134-23.942 0-33.076-27.357 0-49.613 22.256-49.613 49.613v33.076c0 27.357 22.256 49.613 49.613 49.613-9.133-9.132-9.133-23.941 0-33.074M398.151 388.78c-4.602 7.889-1.937 18.015 5.953 22.618a16.46 16.46 0 0 0 8.317 2.255c5.689 0 11.227-2.938 14.3-8.208l17.852-30.603v-45.236h-11.905z"/><path fill="#b0ebd8" d="M473.139 293.05c-7.887-4.599-18.014-1.938-22.618 5.953l-17.852 30.603c0 15.484 3.874 31.07 11.905 45.236l34.518-59.174c4.601-7.889 1.937-18.015-5.953-22.618"/><path fill="#30cd9c" d="M361.428 7.5h-9.981c-61.849 0-111.988 47.094-111.988 108.943v80.511h65.79c22.04 0 42.86-6.645 60.535-17.991V13.664z"/><path fill="#70dcba" d="M419.363 82.813V47.342c0-23.194-20.928-39.842-44.121-39.842h-13.814c-16.671 7.512-28.791 22.899-28.791 42.086v41.921c0 33.009 12.601 63.707 33.148 87.456 31.924-20.495 53.578-56.34 53.578-96.15"/><path fill="#30cd9c" d="M204.718 11.141A140 140 0 0 0 172.901 7.5H144.78c-27.41 0-52.143 19.675-52.143 47.086v41.921c0 73.095 61.767 134.894 134.861 134.894h77.752v-.029z"/><path fill="#70dcba" d="M204.718 11.141c-18.343 6.894-32.082 23.018-32.082 43.445v41.921c0 72.344 60.506 133.612 132.613 134.864v-95.12c.001-62.125-42.806-111.644-100.531-125.11"/><path fill="#30cd9c" d="m337.355 232.293-60-60c-5.857-5.857-15.355-5.857-21.213 0s-5.858 15.355 0 21.213l60 60c5.858 5.858 15.355 5.858 21.213 0s5.858-15.356 0-21.213"/><path d="M135.554 194.455a7.5 7.5 0 0 0 .249-10.604c-23-24.104-35.666-55.123-35.666-87.345v-41.92C100.137 32.758 120.164 15 144.78 15h28.121c34.761 0 65.778 13.135 88.204 34.68q.26.284.552.548c.035.032.074.058.11.089 22.348 21.8 35.983 52.035 35.983 85.935v48.562a7.47 7.47 0 0 0-5.698 2.177 7.5 7.5 0 0 0 0 10.607l40 40c2.925 2.924 2.925 7.682 0 10.605-2.923 2.927-7.682 2.927-10.606 0l-40-40a7.501 7.501 0 0 0-10.606 10.607l5.091 5.091h-48.433c-24.763.001-48.989-7.523-70.058-21.759a7.5 7.5 0 1 0-8.397 12.43c23.558 15.917 50.688 24.33 78.456 24.329h63.432l19.909 19.909c8.773 8.772 23.046 8.772 31.82 0 8.772-8.773 8.772-23.047 0-31.82l-23.391-23.391c23.338-2.835 45.725-12.679 64.191-28.432a7.5 7.5 0 0 0-9.734-11.412c-17.458 14.894-38.869 23.749-60.975 25.396v-52.899c0-4.218-.198-8.399-.57-12.54l59.597-59.597a7.5 7.5 0 0 0-10.607-10.607l-51.888 51.889c-5.208-22.691-16.181-43.526-32.192-60.795C296.509 25.714 323.218 15 351.447 15h23.795c20.193 0 36.621 14.509 36.621 32.342v35.472c.001 21.386-6.667 42.207-19.284 60.212a7.5 7.5 0 0 0 1.839 10.446 7.5 7.5 0 0 0 10.446-1.839c14.393-20.54 22-44.338 21.999-68.819V47.342C426.863 21.237 403.706 0 375.242 0h-23.795c-32.303 0-62.911 12.373-85.147 34.172C240.801 12.085 207.926 0 172.901 0H144.78c-15.399 0-30.055 5.363-41.268 15.102-11.849 10.29-18.375 24.312-18.375 39.484v41.921c0 36.097 14.139 70.794 39.813 97.7a7.5 7.5 0 0 0 10.604.248"/><path d="M180.992 173.387a7.5 7.5 0 0 0 5.303-12.803l-8.485-8.485a7.501 7.501 0 0 0-10.606 10.607l8.485 8.485a7.48 7.48 0 0 0 5.303 2.196M249.38 104.999a7.5 7.5 0 0 0 5.303-12.803l-8.485-8.485a7.501 7.501 0 0 0-10.606 10.607l8.485 8.485a7.48 7.48 0 0 0 5.303 2.196M203.502 135.878a7.5 7.5 0 0 0-7.996 6.969 7.5 7.5 0 0 0 6.969 7.996q.984.067 1.964.067a28.55 28.55 0 0 0 20.192-8.357 28.56 28.56 0 0 0 8.291-22.156c-.283-4.133-3.864-7.245-7.996-6.969a7.5 7.5 0 0 0-6.969 7.996 13.56 13.56 0 0 1-3.932 10.521 13.56 13.56 0 0 1-10.523 3.933M69.575 373.207v-75.321c0-21.526-26.217-32.197-41.25-16.781l-21.498 22.05c-9.253 9.49-9.06 24.739.43 33.991a24 24 0 0 0 14.243 6.697v29.363C9.434 374.479 0 384.715 0 397.112c0 13.255 10.783 24.038 24.038 24.038h42.998c13.254 0 24.038-10.783 24.038-24.038 0-12.397-9.433-22.633-21.499-23.905m-2.539 32.943H24.038c-4.983 0-9.038-4.055-9.038-9.038s4.055-9.038 9.038-9.038H29a7.5 7.5 0 0 0 7.5-7.5v-44.858c0-5.052-4.906-8.667-9.742-7.157-8.918 2.794-15.731-8.225-9.191-14.933l21.499-22.05c5.646-5.795 15.51-1.788 15.51 6.31v82.688a7.5 7.5 0 0 0 7.5 7.5h4.961c4.983 0 9.038 4.055 9.038 9.038s-4.055 9.038-9.039 9.038M463.925 397.114c0 13.255 10.783 24.038 24.037 24.038 13.255 0 24.038-10.783 24.038-24.038 0-13.254-10.783-24.037-24.038-24.037-13.254 0-24.037 10.783-24.037 24.037m33.075 0c0 4.983-4.055 9.038-9.038 9.038s-9.037-4.055-9.037-9.038 4.054-9.037 9.037-9.037 9.038 4.054 9.038 9.037M365.243 307.334c0 13.255 10.783 24.038 24.038 24.038 13.254 0 24.037-10.783 24.037-24.038s-10.783-24.038-24.037-24.038c-13.255 0-24.038 10.783-24.038 24.038m33.075 0c0 4.983-4.054 9.038-9.037 9.038s-9.038-4.055-9.038-9.038 4.055-9.038 9.038-9.038 9.037 4.055 9.037 9.038M136.611 330.961v33.076c0 13.254 10.783 24.037 24.038 24.037s24.038-10.783 24.038-24.037v-33.076c0-13.254-10.783-24.037-24.038-24.037s-24.038 10.783-24.038 24.037m33.076 0v33.076c0 4.983-4.054 9.037-9.038 9.037s-9.038-4.054-9.038-9.037v-33.076c0-4.983 4.054-9.037 9.038-9.037s9.038 4.054 9.038 9.037"/><path d="M103.536 330.961v33.076c0 31.492 25.621 57.113 57.113 57.113s57.113-25.621 57.113-57.113v-33.076c0-31.492-25.621-57.113-57.113-57.113s-57.113 25.621-57.113 57.113m99.226 0v33.076c0 23.222-18.892 42.113-42.113 42.113s-42.113-18.892-42.113-42.113v-33.076c0-23.222 18.892-42.113 42.113-42.113s42.113 18.891 42.113 42.113M292.951 421.15c31.492 0 57.113-25.621 57.113-57.113v-33.076c0-31.492-25.621-57.113-57.113-57.113s-57.113 25.621-57.113 57.113v33.076c0 31.492 25.621 57.113 57.113 57.113m-42.113-90.189c0-23.222 18.892-42.113 42.113-42.113s42.113 18.892 42.113 42.113v33.076c0 23.222-18.892 42.113-42.113 42.113s-42.113-18.892-42.113-42.113z"/><path d="M292.951 388.074c13.255 0 24.038-10.783 24.038-24.037v-33.076c0-13.254-10.783-24.037-24.038-24.037-13.254 0-24.038 10.783-24.038 24.037v33.076c.001 13.254 10.784 24.037 24.038 24.037m-9.037-57.113c0-4.983 4.054-9.037 9.038-9.037s9.038 4.054 9.038 9.037v33.076c0 4.983-4.055 9.037-9.038 9.037s-9.038-4.054-9.038-9.037zM433.2 409.225l52.37-89.777c6.678-11.448 2.796-26.195-8.651-32.875l-.003-.002c-11.447-6.676-26.194-2.794-32.874 8.653l-52.369 89.777c-6.693 11.473-2.826 26.179 8.651 32.874 11.548 6.739 26.256 2.698 32.876-8.65m-28.57-16.665 52.368-89.776c2.514-4.308 8.063-5.762 12.362-3.254 4.305 2.512 5.764 8.057 3.253 12.359l-52.37 89.777c-2.465 4.227-7.979 5.811-12.359 3.253a9.03 9.03 0 0 1-3.254-12.359M227.496 467h-17.677c-4.142 0-7.5 3.357-7.5 7.5s3.358 7.5 7.5 7.5h8.868c-3.096 8.55-11.532 15-21.798 15-12.742 0-23.108-10.094-23.108-22.5s10.366-22.5 23.108-22.5h7.489c4.142 0 7.5-3.357 7.5-7.5s-3.358-7.5-7.5-7.5h-7.489c-21.013 0-38.108 16.822-38.108 37.5s17.095 37.5 38.108 37.5c21.02 0 38.108-16.729 38.108-37.5a7.5 7.5 0 0 0-7.501-7.5M280.286 441.818a7.5 7.5 0 0 0-14.01 0l-22.956 60a7.5 7.5 0 0 0 14.01 5.36l3.892-10.172h24.119l3.892 10.172a7.493 7.493 0 0 0 9.685 4.325 7.5 7.5 0 0 0 4.325-9.685zm-13.326 40.188 6.32-16.52 6.32 16.52zM433.089 452c4.143 0 7.5-3.357 7.5-7.5s-3.357-7.5-7.5-7.5H402.48c-4.143 0-7.5 3.357-7.5 7.5s3.357 7.5 7.5 7.5h7.804v45h-7.804c-4.143 0-7.5 3.357-7.5 7.5s3.357 7.5 7.5 7.5h30.608c4.143 0 7.5-3.357 7.5-7.5s-3.357-7.5-7.5-7.5h-7.805v-45zM499.266 458.691a7.5 7.5 0 1 0 10.468-10.742c-24.053-23.443-65.278-6.638-65.278 26.584 0 20.768 17.133 37.467 38.279 37.467 9.778 0 19.556-3.628 26.999-10.883a7.5 7.5 0 0 0-10.468-10.742c-14.699 14.323-39.81 4.052-39.81-15.842 0-19.929 25.132-30.149 39.81-15.842M371.737 437a7.5 7.5 0 0 0-7.5 7.5v37.457l-31.387-41.95a7.499 7.499 0 0 0-13.505 4.493v60c0 4.143 3.358 7.5 7.5 7.5s7.5-3.357 7.5-7.5v-37.457l31.387 41.95a7.5 7.5 0 0 0 8.372 2.623 7.5 7.5 0 0 0 5.133-7.116v-60c0-4.143-3.357-7.5-7.5-7.5M38.108 437C17.095 437 0 453.822 0 474.5S17.095 512 38.108 512s38.108-16.822 38.108-37.5S59.121 437 38.108 437m0 60C25.366 497 15 486.906 15 474.5S25.366 452 38.108 452s23.108 10.094 23.108 22.5S50.85 497 38.108 497M144.326 463.25c0-14.475-11.903-26.25-26.534-26.25H99.076a7.5 7.5 0 0 0-7.5 7.5v60c0 4.143 3.358 7.5 7.5 7.5s7.5-3.357 7.5-7.5v-15h4.231l20.769 20.356a7.48 7.48 0 0 0 5.25 2.144 7.5 7.5 0 0 0 5.251-12.856l-12.589-12.339c8.78-4.284 14.838-13.231 14.838-23.555m-26.534 11.25h-11.216V452h11.216c6.36 0 11.534 5.047 11.534 11.25s-5.174 11.25-11.534 11.25"/></svg>