<svg xmlns="http://www.w3.org/2000/svg" width="512" height="512"><path fill="#7ce3ff" d="M135.48 89.837 94.121 124.55c-5.692 17.028-8.776 35.237-8.776 54.155 0 89.352 69.028 164.092 158.882 170.758h17.061V89.837z"/><path fill="#b9f0ff" d="M381.172 61.451H229.641v243.444h142.483c34.168-31.321 55.627-76.294 55.627-126.19 0-45.328-17.712-86.596-46.579-117.254"/><path fill="#30cd9c" d="M329.703 23.967h-115.48v319.551H373.2v-45.233c.044-16.159.019-25.834-11.769-37.081-6.935-6.617-16.234-10.189-25.819-10.189h-55.625a24.27 24.27 0 0 1-16.511-6.484c-6.854-6.366-6.892-12.547-8.008-15.631-2.533-6.999-9.237-12.001-17.11-12.001l19.99-19.991c7.115-7.115 2.076-19.283-7.987-19.283 0-13.462 10.914-24.375 24.376-24.375h22.232a14.55 14.55 0 0 1 10.287 4.261l14.466 14.466q.377.375.776.721c7.727 6.692 19.798.763 19.798-9.459v-22.198c0-9.253 7.5-16.752 16.752-16.752l.237-.022c12.461-1.167 21.887-11.822 21.887-24.339V61.451a172 172 0 0 0-51.469-37.484"/><path fill="#0caf7b" d="M231.714 178.705c0-67.673 39.643-127.019 97.99-154.738a170.4 170.4 0 0 0-26.68-10.03A170.6 170.6 0 0 0 256.548 7.5c-75.483 0-139.715 49.108-162.427 117.051h13.874c13.788 0 24.966 11.178 24.966 24.966v33.988q0 2.848.247 5.676c1.627 18.691 27.646 21.051 35.343 2.042 4.841-11.954 22.467-10.11 24.789 2.629l6.184 33.919c3.359 18.425 14.282 41.264 30.117 51.265v64.484h31.648l52.93-18.445c-49.751-30.21-82.505-84.821-82.505-146.37"/><path fill="#ffd4bd" d="M407.084 286.338c-15.324-13.185-38.433-11.446-51.615 3.877l-.371.431c-20.909 24.201-51.472 37.896-83.454 37.896h-34.887L96.797 443.934l69.98 30.283 69.98-30.283c67.178-15.887 128.297-52.61 174.207-105.979 13.182-15.326 11.445-38.434-3.88-51.617"/><path fill="#ffbf9d" d="M245.955 267.283a36.5 36.5 0 0 0-9.198-6.624c-13.735-6.955-30.935-4.703-42.413 6.774-79.793 79.793-60.998 60.983-79.322 79.356-11.561 11.593-18.224 27.256-18.224 43.884v53.261h65.934c0-27.433 10.906-52.272 28.975-70.34l45.051-45.051 8.842-8.842c14.316-14.318 14.756-38.184.355-52.418"/><path fill="#30cd9c" d="M236.181 443.934H96.797V504.5h140.014c17.82-18.329 15.635-45.074-.63-60.566"/><path fill="#0caf7b" d="M132.448 474.217c0-16.725 13.558-30.283 30.283-30.283H96.797c-16.725 16.725-16.725 43.841 0 60.566h65.931c-16.724-.001-30.28-13.559-30.28-30.283"/><path d="M202.668 99.055v-8.307c0-4.143-3.357-7.5-7.5-7.5s-7.5 3.357-7.5 7.5v8.307c0 4.143 3.357 7.5 7.5 7.5s7.5-3.358 7.5-7.5M316.477 99.055v-8.307c0-4.143-3.357-7.5-7.5-7.5s-7.5 3.357-7.5 7.5v8.307c0 4.143 3.357 7.5 7.5 7.5s7.5-3.358 7.5-7.5M271.967 107.139a7.497 7.497 0 0 0-.726-10.58 7.497 7.497 0 0 0-10.581.725c-4.551 5.221-12.63 5.216-17.175 0a7.503 7.503 0 0 0-10.582-.727 7.5 7.5 0 0 0-.727 10.582c10.528 12.08 29.273 12.067 39.791 0"/><path d="M411.976 280.652a44 44 0 0 0-5.871-4.251c19.093-29.086 29.146-62.671 29.146-97.696C435.251 80.167 355.085 0 256.548 0c-43.36 0-85.206 15.786-117.827 44.451a7.5 7.5 0 0 0-.683 10.584 7.5 7.5 0 0 0 10.584.684C178.505 29.461 216.834 15 256.548 15c45.864 0 87.375 18.967 117.124 49.459v35.47c0 8.627-6.563 16.008-15.002 16.863-13.199.202-23.874 11.003-23.874 24.25v22.197c0 3.786-4.631 6.547-7.771 3.436l-14.467-14.468a21.9 21.9 0 0 0-15.59-6.456h-22.231c-17.577 0-31.876 14.299-31.876 31.875 0 4.14 3.358 7.5 7.5 7.5 3.391 0 5.084 4.08 2.684 6.479l-19.99 19.99c-4.705 4.706-1.375 12.804 5.303 12.804 4.528 0 9.089 2.841 10.451 8.577 3.909 16.449 17.145 25.539 31.178 25.539h55.625c12.608 0 22.781 7.705 27.136 16.505a44 44 0 0 0-12.955 10.292l-.371.431c-19.383 22.433-47.732 35.299-77.78 35.299l-17.251.001c24.502-31.272-.242-76.291-39.642-71.454-7.204-14.495-7.613-21.881-14.031-57.083-1.648-9.044-8.923-15.753-18.101-16.694-9.144-.933-17.587 4.125-21.018 12.596-4.777 11.801-19.987 10.843-20.919.121a58 58 0 0 1-.218-5.024v-33.987c0-17.901-14.564-32.466-32.466-32.466h-3.161c5.9-14.443 13.925-28.086 23.984-40.622a7.5 7.5 0 1 0-11.699-9.387c-25.326 31.563-39.274 71.22-39.273 111.663 0 51.636 21.997 100.004 60.618 133.999-19.148 19.148-16.129 16.129-28.752 28.789-13.164 13.2-20.414 30.666-20.414 49.18v50.313c-17.235 19.543-16.916 49.708 2.197 68.817A7.5 7.5 0 0 0 96.799 512h140.014a7.5 7.5 0 0 0 5.377-2.271c16.578-17.053 19.157-41.83 7.188-61.288 16.115-4.387 31.954-9.962 47.212-16.671 3.792-1.667 5.514-6.092 3.847-9.884s-6.094-5.516-9.884-3.848a323 323 0 0 1-54.711 18.396H104.297v-45.761c0-14.516 5.694-28.22 16.035-38.588 12.454-12.49 8.352-8.389 79.314-79.349 11.221-11.219 29.61-11.415 41.037-.119 11.618 11.483 10.8 30.592-.388 41.78l-30.636 30.636a7.5 7.5 0 0 0 10.606 10.607l19.597-19.598 31.781-.001c34.409 0 66.896-14.759 89.13-40.492l.382-.443c10.494-12.201 28.903-13.522 41.037-3.083 12.188 10.486 13.555 28.867 3.085 41.04-25.097 29.174-54.859 53.389-88.463 71.973a7.5 7.5 0 0 0-2.933 10.193 7.5 7.5 0 0 0 10.193 2.934c35.167-19.449 66.313-44.789 92.574-75.318 15.858-18.433 13.809-46.29-4.672-62.193M233.483 497H100.078c-11.112-13.123-11.105-32.448 0-45.566h132.921c10.956 12.336 12.309 31.408.484 45.566M189.04 262.129l-39.947 39.946c-35.824-31.178-56.248-75.76-56.248-123.37 0-16.056 2.278-31.705 6.714-46.654h8.436c9.631 0 17.466 7.835 17.466 17.466v33.987c0 2.109.093 4.239.275 6.327 2.313 26.567 39.112 30.518 49.766 4.206 1.399-3.453 4.628-3.4 5.583-3.304.971.1 4.192.716 4.875 4.463l6.184 33.918c1.513 8.302 4.312 16.904 8.061 24.906a44 44 0 0 0-11.165 8.109m188.102 8.299c-5.257-12.474-20.036-26.912-41.529-26.912h-55.625a16.72 16.72 0 0 1-11.407-4.479c-3.739-3.473-4.471-6.551-5.178-9.527-1.71-7.201-5.677-12.464-11.081-15.967l11.33-11.33c9.189-9.189 6.42-24.457-4.864-30.104 2.291-6.604 8.576-11.357 15.95-11.357h22.231a7 7 0 0 1 4.983 2.062l14.487 14.488c12.648 12.532 33.357 3.051 33.357-14.062v-22.197c0-5.103 4.15-9.253 9.252-9.253q.324 0 .646-.028l.291-.025c16.354-1.532 28.688-15.206 28.688-31.807V82.17c19.843 27.085 31.579 60.463 31.579 96.535 0 33.15-9.833 64.893-28.475 92.135-5.149-1.018-9.909-1.069-14.635-.412"/></svg>