<svg xmlns="http://www.w3.org/2000/svg" width="512" height="512"><path fill="#b0ebd8" d="M381.683 37.016c-1.713-15.134-13.712-27.157-28.815-28.873-46.934-5.335-90.299 23.084-104.975 66.801v50.417l21.416 44.137c0-15.625 12.625-28.291 28.198-28.291 53.735-.001 90.093-51.916 84.176-104.191"/><path fill="#70dcba" d="M247.892 74.946v-.002c-15.198-35.636-52.174-58.122-92.049-53.59-13.604 1.546-24.411 12.376-25.954 26.006-5.328 47.071 27.394 93.846 75.819 93.846h8.766c15.573 0 28.198 12.666 28.198 28.291v10l13.319 10 13.319-10v-10c0-15.625 12.625-28.291 28.198-28.291-29.393-8.55-49.616-35.558-49.616-66.26"/><path fill="#70dcba" d="m255.99 176.904-26.92 26.921 26.92 26.921c15.856 0 28.756 12.9 28.756 28.756 0 15.851-12.9 28.746-28.756 28.746l-26.92 26.921 26.92 26.921c45.55 0 82.607-37.049 82.607-82.587 0-45.546-37.057-82.599-82.607-82.599"/><path fill="#30cd9c" d="M255.99 288.248c-15.846 0-28.737-12.896-28.737-28.746 0-15.856 12.891-28.756 28.737-28.756-14.868-14.868-14.868-38.973 0-53.841-45.539 0-82.588 37.053-82.588 82.597 0 45.539 37.049 82.587 82.588 82.587-14.868-14.868-14.868-38.973 0-53.841"/><path fill="#70dcba" d="M116.385 176.911c-14.887 0-26.998 12.078-26.998 26.924v29.104l-38.541-17.147v70.272h10.649l33.123 45.028c5.061 6.886 13.198 10.997 21.767 10.997 14.814 0 27.018-11.913 27.018-26.924v-111.33c0-14.846-12.121-26.924-27.018-26.924"/><path fill="#30cd9c" d="m89.387 232.939-33.124-45.021a26.96 26.96 0 0 0-30.161-9.666C14.976 181.867 7.5 192.148 7.5 203.835v111.339c0 14.841 12.111 26.915 26.997 26.915 14.887 0 26.998-12.074 26.998-26.915V260.83c0-15.404 12.488-27.891 27.892-27.891"/><path fill="#70dcba" d="M477.482 176.911c-14.887 0-26.998 12.078-26.998 26.924v29.104l-38.541-17.147v70.272h10.649l33.123 45.028c5.061 6.886 13.198 10.997 21.767 10.997 14.814 0 27.018-11.913 27.018-26.924v-111.33c0-14.846-12.12-26.924-27.018-26.924"/><path fill="#30cd9c" d="m450.484 232.939-33.124-45.021a26.96 26.96 0 0 0-30.161-9.666c-11.127 3.615-18.603 13.896-18.603 25.583v111.339c0 14.841 12.111 26.915 26.997 26.915 14.887 0 26.998-12.074 26.998-26.915V260.83c.002-15.404 12.489-27.891 27.893-27.891"/><path d="M347.415 34.347c-41.17 12.945-75.96 39.543-99.211 75.553-17.923-29.59-46.374-51.681-79.768-61.515a7.5 7.5 0 0 0-4.237 14.389c33.672 9.917 61.713 33.804 76.931 65.537 2.643 5.509 10.407 5.711 13.339.362 21.087-38.471 55.693-66.888 97.445-80.016a7.5 7.5 0 0 0 4.905-9.404 7.5 7.5 0 0 0-9.404-4.906"/><path d="M276.809 171.836v-2.34c0-11.464 9.285-20.791 20.698-20.791 24.735 0 47.817-10.297 64.992-28.996 2.802-3.051 2.601-7.795-.45-10.597s-7.796-2.601-10.597.45c-14.301 15.569-33.459 24.143-53.945 24.143-19.477 0-35.698 15.81-35.698 35.892a88 88 0 0 0-11.637 0c0-20.06-16.196-35.892-35.698-35.892h-8.766c-42.55 0-68.887-39.589-68.887-76.268 0-3.079.175-6.186.52-9.234 1.143-10.096 9.28-18.253 19.35-19.398a83 83 0 0 1 9.338-.531c32.688 0 62.113 19.473 74.966 49.61a7.5 7.5 0 0 0 14.008-.555C267.52 40.049 302.309 15 341.572 15c3.465 0 6.979.2 10.448.594 11.558 1.313 20.898 10.677 22.21 22.265.386 3.415.582 6.896.582 10.344 0 13.16-2.859 26.432-8.27 38.38a7.5 7.5 0 0 0 13.664 6.188c6.284-13.878 9.605-29.29 9.605-44.568 0-4.01-.228-8.057-.678-12.03-2.09-18.465-16.986-33.387-35.421-35.482A108 108 0 0 0 341.572 0c-40.216 0-76.399 22.565-94.441 57.538-17.569-27.316-47.916-44.263-81.103-44.263-3.66 0-7.372.211-11.031.626-16.946 1.926-30.64 15.643-32.561 32.615a98 98 0 0 0-.615 10.921c0 23.148 8.445 46.145 23.171 63.095 15.784 18.168 37.347 28.173 60.716 28.173h8.766c11.413 0 20.698 9.327 20.698 20.791v2.341c-39.67 9.422-69.27 45.149-69.27 87.664 0 49.674 40.413 90.087 90.088 90.087 49.686 0 90.107-40.413 90.107-90.087.001-42.516-29.607-78.244-69.288-87.665M255.99 334.589c-41.403 0-75.088-33.684-75.088-75.087 0-41.627 33.929-75.097 75.088-75.097 41.258 0 75.107 33.556 75.107 75.097.001 41.403-33.693 75.087-75.107 75.087"/><path d="M255.99 223.245c-19.98 0-36.236 16.265-36.236 36.256 0 19.986 16.256 36.247 36.236 36.247 19.991 0 36.256-16.26 36.256-36.247 0-19.991-16.265-36.256-36.256-36.256m0 57.503c-11.71 0-21.236-9.531-21.236-21.247 0-11.721 9.526-21.256 21.236-21.256 11.721 0 21.256 9.536 21.256 21.256 0 11.716-9.535 21.247-21.256 21.247M477.482 169.411c-19.022 0-34.498 15.443-34.498 34.424v6.253l-19.582-26.615-.034-.042a34.435 34.435 0 0 0-38.486-12.312c-14.227 4.622-23.785 17.77-23.785 32.716v111.339c0 18.976 15.476 34.415 34.497 34.415s34.498-15.438 34.498-34.415v-6.257l19.578 26.616c6.469 8.801 16.865 14.056 27.812 14.056 19.033 0 34.518-15.443 34.518-34.424v-111.33c0-18.981-15.484-34.424-34.518-34.424M497 315.165c0 10.71-8.756 19.424-19.518 19.424-6.192 0-12.071-2.968-15.727-7.942l-40-54.377a7.5 7.5 0 1 0-12.082 8.889l5.419 7.367v26.649c0 10.705-8.747 19.415-19.498 19.415s-19.497-8.709-19.497-19.415v-111.34c0-8.428 5.394-15.842 13.434-18.455a19.47 19.47 0 0 1 21.789 6.982l40 54.367a7.5 7.5 0 0 0 10.485 1.596 7.5 7.5 0 0 0 1.597-10.486l-5.418-7.364v-26.641c0-10.71 8.747-19.424 19.498-19.424 10.762 0 19.518 8.714 19.518 19.424zM116.385 169.411c-19.022 0-34.498 15.443-34.498 34.424v6.253l-19.582-26.615-.017-.021c-8.651-11.749-24.09-17.045-38.502-12.333C9.559 175.741 0 188.889 0 203.835v64.962c0 4.142 3.357 7.5 7.5 7.5s7.5-3.358 7.5-7.5v-64.962c0-8.428 5.394-15.843 13.433-18.455a19.5 19.5 0 0 1 21.79 6.982l40 54.367a7.5 7.5 0 0 0 10.485 1.596 7.5 7.5 0 0 0 1.597-10.486l-5.418-7.364v-26.641c0-10.71 8.747-19.424 19.498-19.424 10.762 0 19.518 8.714 19.518 19.424v111.33c0 18.748-24.185 26.531-35.244 11.482l-40-54.377a7.5 7.5 0 1 0-12.082 8.889l5.419 7.367v26.649c0 10.705-8.747 19.415-19.498 19.415S15 325.88 15 315.175v-16.377c0-4.142-3.357-7.5-7.5-7.5s-7.5 3.358-7.5 7.5v16.377c0 18.976 15.476 34.415 34.497 34.415s34.498-15.438 34.498-34.415v-6.257l19.578 26.616c19.59 26.654 62.329 12.844 62.329-20.368v-111.33c0-18.982-15.484-34.425-34.517-34.425M86.562 374.919a7.5 7.5 0 0 0-7.5-7.5H7.5c-4.143 0-7.5 3.358-7.5 7.5s3.357 7.5 7.5 7.5h28.137V504.5c0 4.142 3.357 7.5 7.5 7.5s7.5-3.358 7.5-7.5V382.419h28.425a7.5 7.5 0 0 0 7.5-7.5M361.832 367.419a7.5 7.5 0 0 0-7.5 7.5V504.5c0 4.142 3.357 7.5 7.5 7.5s7.5-3.358 7.5-7.5V374.919a7.5 7.5 0 0 0-7.5-7.5M509.32 480.464a7.5 7.5 0 0 0-10.566.925 45 45 0 0 1-4.501 4.645c-8.17 7.276-18.455 10.965-30.57 10.965-31.591 0-57.291-25.7-57.291-57.291s25.7-57.291 57.291-57.291c11.482 0 22.557 3.382 32.025 9.78a7.5 7.5 0 1 0 8.398-12.429c-11.959-8.08-25.938-12.351-40.424-12.351-39.861 0-72.291 32.429-72.291 72.291S423.821 512 463.683 512c15.682 0 29.702-5.105 40.547-14.764a60 60 0 0 0 6.017-6.206 7.5 7.5 0 0 0-.927-10.566M285.776 435.11l39.36-55.872a7.5 7.5 0 0 0-1.812-10.451 7.5 7.5 0 0 0-10.45 1.812l-36.266 51.479-36.212-51.475a7.5 7.5 0 1 0-12.267 8.631l39.303 55.87-45.844 65.076a7.5 7.5 0 0 0 6.124 11.82 7.49 7.49 0 0 0 6.138-3.181l42.75-60.684 42.687 60.68a7.49 7.49 0 0 0 6.141 3.185 7.5 7.5 0 0 0 6.127-11.816z"/><path d="M154.152 367.419c-39.861 0-72.291 32.429-72.291 72.291S114.291 512 154.152 512s72.29-32.429 72.29-72.291-32.428-72.29-72.29-72.29m0 129.581c-31.591 0-57.291-25.7-57.291-57.291s25.7-57.291 57.291-57.291 57.29 25.7 57.29 57.291S185.742 497 154.152 497"/></svg>