<svg xmlns="http://www.w3.org/2000/svg" width="512" height="512"><path fill="#30cd9c" d="M43.888 112.161H31.139c-12.427 0-23.639 8.92-23.639 21.346v19.005c0 33.137 28.002 61.154 61.139 61.154h35.249v-41.505c0-33.137-26.863-60-60-60"/><path fill="#70dcba" d="M374.161 362.693h12.749c12.427 0 22.5 10.073 22.5 22.5v19.005c0 33.137-26.863 60-60 60h-35.249v-41.505c0-33.137 26.863-60 60-60"/><path fill="#30cd9c" d="M417.602 11.481C385.476-.584 349.662 15.7 337.616 47.83l-81.609 217.626v102.136h94.379l33.795-90.125 25.938-69.172 43.81-116.832c12.079-32.13-4.209-67.945-36.327-79.982"/><path fill="#18c08b" d="M350.387 367.592c-33.731 0-63.925-20.924-75.769-52.508l-18.61-49.628L174.399 47.83C162.346 15.7 126.54-.572 94.406 11.481 62.288 23.518 46 59.333 58.061 91.463l139.778 372.735c9.096 24.243 32.271 40.302 58.153 40.302 25.898 0 49.089-16.059 58.169-40.302l8.187-21.833z"/><path fill="#70dcba" d="M476.004 148.914h-16.146c-41.967 0-75.676 34.021-75.676 75.988v52.565h44.33c41.967 0 75.988-34.021 75.988-75.988V177.41c0-15.738-12.758-28.496-28.496-28.496"/><g fill="#ffdbe0"><ellipse cx="187.49" cy="316.814" rx="25" ry="20.833"/><ellipse cx="324.49" cy="316.814" rx="25" ry="20.833"/></g><path d="M476.004 141.414h-16.146c-5.886 0-11.674.617-17.33 1.816l18.422-49.129C478.125 48.412 443.947 0 395.781 0c-28.856 0-55.054 18.163-65.188 45.196l-74.586 198.899-74.586-198.9C171.28 18.165 145.079.005 116.223.005c-17.455 0-34.626 6.648-47.602 18.806a7.5 7.5 0 0 0-.346 10.601 7.503 7.503 0 0 0 10.602.345c10.2-9.556 23.708-14.752 37.346-14.752 22.64 0 43.196 14.25 51.153 35.458l81.131 216.353v3.202c0 4.142 3.357 7.5 7.5 7.5s7.5-3.358 7.5-7.5v-3.202l81.131-216.353C352.591 29.251 373.143 15 395.781 15c37.848 0 64.581 38.043 51.127 73.829l-22.727 60.608c-28.962 13.762-47.5 43.03-47.5 75.465v51.205L343.386 364.9q-.013.032-.024.065l-36.224 96.602C299.199 482.761 278.646 497 255.992 497c-22.631 0-43.179-14.241-51.131-35.436L65.082 88.827a54.4 54.4 0 0 1-3.5-19.18 54.4 54.4 0 0 1 3.058-17.983 7.5 7.5 0 0 0-14.162-4.945c-5.2 14.894-5.375 31.566.561 47.377l4.334 11.558a67.7 67.7 0 0 0-11.485-.993H31.139C13.969 104.661 0 117.601 0 133.507v19.005c0 37.214 31.433 68.654 68.639 68.654H98.69l92.126 245.667C200.953 493.849 227.145 512 255.992 512c27.103 0 51.847-15.996 63.15-40.302h30.267c37.22 0 67.501-30.28 67.501-67.5v-19.005c0-16.542-13.458-30-30-30h-12.75a67.6 67.6 0 0 0-11.487.994l26.706-71.22h39.133c16.604 0 32.646-4.864 46.393-14.067a7.503 7.503 0 0 0 2.06-10.405 7.5 7.5 0 0 0-10.405-2.06c-11.268 7.544-24.424 11.532-38.047 11.532h-36.83l43.118-43.118a7.5 7.5 0 0 0-10.606-10.606l-32.512 32.512v-23.853c0-27.523 16.243-52.261 41.381-63.023 8.472-3.626 17.486-5.465 26.796-5.465h16.146c11.577 0 20.996 9.418 20.996 20.995v24.07c.001 13.574-3.96 26.691-11.455 37.935a7.5 7.5 0 0 0 12.48 8.32c9.144-13.716 13.976-29.711 13.975-46.255V177.41c-.002-19.848-16.149-35.996-35.998-35.996M68.639 206.166C39.563 206.166 15 181.595 15 152.512v-19.005c0-8.552 8.377-13.846 16.139-13.846h12.749a52.2 52.2 0 0 1 17.92 3.153l16.536 44.094-14.467-14.467c-2.929-2.929-7.677-2.929-10.606 0s-2.929 7.678 0 10.606l37.802 37.801 1.994 5.317zM386.91 370.193c8.271 0 15 6.729 15 15v19.005c0 28.949-23.552 52.5-52.501 52.5h-24.426l1.993-5.316 37.802-37.802a7.5 7.5 0 0 0 0-10.606 7.5 7.5 0 0 0-10.606 0l-14.469 14.469 16.539-44.106a52.2 52.2 0 0 1 17.917-3.143h12.751z"/><path d="M207.802 308.281v-12c0-4.142-3.357-7.5-7.5-7.5s-7.5 3.358-7.5 7.5v12c0 4.142 3.357 7.5 7.5 7.5s7.5-3.358 7.5-7.5M276.145 313.658c2.722-3.123 2.396-7.86-.727-10.582s-7.86-2.396-10.582.726c-4.952 5.681-13.744 5.676-18.691 0a7.5 7.5 0 0 0-11.309 9.856c10.929 12.54 30.388 12.529 41.309 0M307.403 307.946c0-3.532 2.873-6.406 6.405-6.406s6.406 2.874 6.406 6.406c0 4.142 3.357 7.5 7.5 7.5s7.5-3.358 7.5-7.5c0-11.803-9.603-21.406-21.406-21.406s-21.405 9.603-21.405 21.406c0 4.142 3.357 7.5 7.5 7.5s7.5-3.358 7.5-7.5"/></svg>