<svg xmlns="http://www.w3.org/2000/svg" width="512" height="512"><path fill="#30cd9c" d="M363.93 56a141 141 0 0 0-35.096 4.433 140 140 0 0 0-44.273 20.056 50.5 50.5 0 0 1-57.119 0 140 140 0 0 0-44.274-20.056h-40.282l-40 40v183.352L256 436.9l110.97-39c10.615-7.747 20.998-15.784 32.337-25.102C448.284 332.553 504.5 276.123 504.5 196.316 504.5 118.822 441.565 56 363.93 56"/><path fill="#0caf7b" d="M328.833 394.7a242.66 242.66 0 0 1-108.837-47.224c-12.078-9.306-25.287-20.181-36.829-30.751-37.403-34.256-68.015-74.57-73.081-125.955-5.886-59.707 24.863-109.452 73.081-130.337A141 141 0 0 0 148.071 56C70.436 56 7.5 118.822 7.5 196.316c0 79.806 56.217 136.236 105.194 176.481 31.897 26.21 57.268 43.023 99.986 70.486 26.38 16.961 60.268 16.952 86.648-.01 28.049-18.035 48.17-31.163 67.643-45.374-12.902.001-25.589-1.14-38.138-3.199"/><path fill="#fff" d="M348.039 116.361c-18.297-6.872-38.695 2.403-45.555 20.702l-46.48 123.947v58.17h53.753l19.248-51.33 14.773-39.396 24.952-66.541c6.878-18.298-2.399-38.696-20.691-45.552"/><path fill="#efedff" d="M309.757 319.18c-19.211 0-36.408-11.917-43.153-29.905l-10.599-28.265-46.479-123.946c-6.865-18.299-27.258-27.567-45.56-20.702-18.292 6.856-27.569 27.253-20.7 45.553l79.609 212.287c5.181 13.807 18.379 22.954 33.12 22.954 14.75 0 27.958-9.146 33.13-22.954l4.663-12.435z"/><path d="M358.74 167.204a7.5 7.5 0 0 0 14.045 5.267l2.971-7.922c8.44-22.479-3.335-47.058-25.089-55.211-22.486-8.434-47.054 3.339-55.215 25.091l-39.457 105.219-39.457-105.218c-8.196-21.865-32.827-33.5-55.209-25.093-21.739 8.147-33.535 32.716-25.081 55.209l79.604 212.285c6.233 16.641 22.369 27.823 40.153 27.823 17.767 0 33.898-11.18 40.143-27.82l66.104-176.274a7.501 7.501 0 0 0-14.045-5.267l-66.103 176.272c-4.06 10.819-14.548 18.088-26.099 18.088-11.563 0-22.055-7.268-26.107-18.088l-79.606-212.291c-5.516-14.681 2.212-30.611 16.307-35.894 14.7-5.518 30.619 2.237 35.896 16.314l46.011 122.696V269c0 4.142 3.357 7.5 7.5 7.5s7.5-3.358 7.5-7.5v-6.654l45.993-122.648c5.276-14.063 21.187-21.833 35.905-16.314 14.065 5.272 21.829 21.191 16.31 35.896z"/><path d="M363.93 48.5c-30.023 0-58.933 8.921-83.604 25.798a42.99 42.99 0 0 1-48.65 0C207.004 57.421 178.094 48.5 148.071 48.5 66.425 48.5 0 114.81 0 196.316c0 40.297 13.519 78 41.328 115.263a7.5 7.5 0 0 0 12.021-8.972C27.544 268.03 15 233.262 15 196.316 15 123.081 74.695 63.5 148.071 63.5c26.987 0 52.969 8.015 75.136 23.179a57.99 57.99 0 0 0 65.588 0C310.961 71.515 336.941 63.5 363.93 63.5 437.305 63.5 497 123.081 497 196.316c0 102.459-95.422 172.297-201.729 240.649A72.5 72.5 0 0 1 256 448.5a72.46 72.46 0 0 1-39.265-11.525c-51.854-33.337-105.739-69.438-144.694-111.898a7.5 7.5 0 0 0-10.597-.456 7.5 7.5 0 0 0-.456 10.597c40.164 43.778 94.956 80.507 147.636 114.375a87.42 87.42 0 0 0 47.377 13.908 87.47 87.47 0 0 0 47.384-13.917c48.907-31.446 99.953-65.508 139.341-105.674C489.34 296.373 512 248.095 512 196.316 512 114.81 445.576 48.5 363.93 48.5"/></svg>