<svg xmlns="http://www.w3.org/2000/svg" width="512" height="512"><path fill="#ffce71" d="M308.93 124.393h-92.841v311.714c0 13.079 9.582 24.554 22.582 25.988 15.369 1.697 28.377-10.292 28.377-25.319 0-14.072 11.408-25.476 25.479-25.477 14.659 0 25.48 12.26 25.48 26.146v20.811c0 15.026 13.008 27.016 28.377 25.318 13-1.434 22.582-12.909 22.582-25.988V352.298h45c.001-91.224-40.754-172.919-105.036-227.905"/><path fill="#ffb357" d="M308.93 124.393C256.538 79.578 188.52 52.5 114.17 52.5v426.521c0 15.027 13.008 27.016 28.377 25.319 13-1.434 22.582-12.909 22.582-25.988v-66.975c0-14.459 11.763-26.079 26.223-26.079 14.285 0 24.736 12.491 24.736 26.136 0-133.269 24.779-194.511 65.717-250.854 8.959-12.329 16.432-23.513 27.125-36.187"/><g fill="#30cd9c"><circle cx="360.066" cy="294.748" r="45"/><path d="M89.419 148.222H76.67c-12.427 0-23.639 8.919-23.639 21.346v19.005c0 33.137 28.002 61.154 61.139 61.154h35.249l-5-12.466 5-8.747v-20.292c0-33.137-26.863-60-60-60M157.473 317.781v12.749c0 12.427 8.919 23.639 21.346 23.639h19.005c33.137 0 61.154-28.002 61.154-61.139v-35.249h-41.505c-33.137 0-60 26.863-60 60"/></g><path fill="#ffb357" d="M431.854 218.073c-17.369-41.063-42.224-77.934-73.875-109.585a350 350 0 0 0-18.055-16.822l-21.063-9.398-52.449 50.89 15.395 27.422c53.387 46.739 87.162 115.355 87.162 191.718 0 24.853 20.147 45 45 45s45-20.147 45-45c-.001-46.527-9.124-91.688-27.115-134.225"/><path fill="#fc8a3d" d="M339.924 91.666c-27.352-23.744-58.044-42.889-91.529-57.052C205.857 16.623 160.697 7.5 114.17 7.5c-24.853 0-45 20.147-45 45s20.147 45 45 45c64.133 0 122.8 23.826 167.636 63.08 0-34.061 24.545-63.166 58.118-68.914"/><g fill="#0caf7b"><path d="M299.935 346.13c-5.857-5.858-15.355-5.858-21.213 0l-12 12c-5.857 5.858-5.858 15.354 0 21.213 5.857 5.858 15.355 5.858 21.213 0l12-12c5.857-5.858 5.857-15.356 0-21.213M175.935 131.13c-5.858-5.858-15.355-5.858-21.214 0a15 15 0 0 0 0 21.212l12.002 12.002c5.858 5.858 15.355 5.858 21.213 0a15 15 0 0 0 0-21.212z"/></g><path d="m223.126 175.233 8.485-8.485a7.5 7.5 0 0 0-10.607-10.606l-8.485 8.485a7.5 7.5 0 0 0 10.607 10.606M301.443 253.549l8.485-8.485a7.5 7.5 0 0 0-10.607-10.606l-8.485 8.485a7.5 7.5 0 0 0 10.607 10.606M246.105 189.711c-4.143-.298-7.713 2.837-7.996 6.969-1.216 17.726 13.48 32.505 31.28 31.279a7.5 7.5 0 0 0 6.969-7.996c-.283-4.133-3.873-7.245-7.996-6.969-8.673.599-15.885-6.583-15.288-15.288a7.5 7.5 0 0 0-6.969-7.995"/><path d="M420.119 177.54c-2.046-3.584-6.647-4.851-10.23-2.79a7.497 7.497 0 0 0-2.79 10.24c29.021 50.74 44.37 108.59 44.37 167.31-.02 20.959-17.005 37.48-37.5 37.5-20.652-.02-37.5-16.701-37.5-37.5-.02-144.62-117.68-262.28-262.3-262.3-20.601 0-37.5-16.659-37.5-37.5 0-20.651 16.709-37.5 37.5-37.5 112.434 0 214.947 55.344 277.271 145.18 2.359 3.405 7.063 4.239 10.439 1.88 3.391-2.35 4.24-7.03 1.88-10.43a353 353 0 0 0-67.029-72.45C276.329 29.895 198.797 0 114.189 0h-.021c-28.983 0-52.5 23.493-52.5 52.5 0 26.41 19.514 48.321 45.002 51.963v38.503a67.4 67.4 0 0 0-17.251-2.243H76.67c-17.17 0-31.139 12.94-31.139 28.846v19.005c0 34.683 27.306 64.338 61.139 68.213v142.941c0 4.142 3.357 7.5 7.5 7.5s7.5-3.358 7.5-7.5v-142.5h24.642l2.69 2.69a7.5 7.5 0 0 0 10.607-10.606l-2.69-2.69v-38.398c0-25.546-14.266-47.821-35.249-59.282v-43.816c96.987 2.886 178.372 61.506 216.355 141.976-18.286 8.472-30.46 27.005-30.46 47.647 0 29.271 24.154 53.23 53.84 52.468.099 4.927.061-6.112.061 110.371 0 9.744-7.594 18.648-17.982 18.648-9.912 0-17.977-8.065-17.977-17.979v-20.811c0-18.553-14.795-33.646-32.981-33.646-18.185.001-32.979 14.795-32.979 32.977 0 9.914-8.064 17.979-17.978 17.979-10.378 0-17.982-8.896-17.982-18.649v-24.673c0-18.547-14.461-33.636-32.236-33.636-18.595 0-33.723 15.063-33.723 33.579v66.975c0 9.762-7.615 18.648-17.982 18.648-9.912 0-17.977-8.065-17.977-17.979v-49.293c0-4.142-3.357-7.5-7.5-7.5s-7.5 3.358-7.5 7.5v49.293c0 18.185 14.793 32.979 32.977 32.979 18.705 0 32.982-15.335 32.982-33.648v-66.975c0-10.244 8.399-18.579 18.723-18.579 10.646 0 17.236 9.673 17.236 18.636v24.673c0 18.329 14.293 33.649 32.982 33.649 18.184 0 32.978-14.794 32.978-32.979 0-9.912 8.065-17.977 17.979-17.977s17.98 8.365 17.98 18.646v20.811c0 18.185 14.793 32.979 32.977 32.979 18.742 0 32.982-15.372 32.982-33.648v-68.565c10.226 10.42 23.678 15.779 37.501 15.779 28.953 0 52.5-23.461 52.5-52.5.002-61.487-15.892-121.521-46.347-174.762m-278.2 30.682v23.398l-41.31-41.31a7.5 7.5 0 0 0-10.607 10.606l41.31 41.31H114.17c-29.075 0-53.639-24.57-53.639-53.654v-19.005c0-8.552 8.377-13.846 16.139-13.846h12.749c28.949.001 52.5 23.552 52.5 52.501m180.647 86.526c0-14.623 8.554-27.761 21.434-33.878 9.031 22.643 14.671 46.637 16.653 71.364-21.055.315-38.087-16.699-38.087-37.486"/><path d="m273.418 340.827-12 12c-8.772 8.773-8.771 23.047 0 31.819 8.79 8.793 23.027 8.796 31.82 0l12-12c8.791-8.792 8.793-23.026 0-31.819-8.79-8.793-23.026-8.796-31.82 0m21.213 21.213-12 12a7.494 7.494 0 0 1-10.605 0c-2.925-2.924-2.925-7.682 0-10.606l12-12a7.494 7.494 0 0 1 10.605 0 7.495 7.495 0 0 1 0 10.606M193.239 137.827l-12-12c-7.539-7.538-17.034-6.591-15.91-6.591-6.01 0-11.66 2.341-15.909 6.59-8.794 8.793-8.795 23.026-.001 31.82l12 12c8.793 8.792 23.025 8.795 31.819 0 8.794-8.792 8.795-23.025.001-31.819m-10.607 21.213a7.5 7.5 0 0 1-10.605.001l-12.001-12a7.5 7.5 0 1 1 10.603-10.609l12.002 12.002a7.5 7.5 0 0 1 .001 10.606M149.973 330.529c0 17.17 12.94 31.139 28.846 31.139h19.005c37.215 0 68.654-31.433 68.654-68.639v-32.142l5.567-5.567a7.5 7.5 0 0 0-10.607-10.606l-5.567 5.567h-38.397c-37.22 0-67.5 30.28-67.5 67.5zm15-12.748c0-28.949 23.552-52.5 52.5-52.5h23.397l-32.433 32.433a7.5 7.5 0 0 0 5.304 12.803 7.48 7.48 0 0 0 5.304-2.197l32.433-32.433v17.142c0 29.075-24.57 53.639-53.654 53.639h-19.005c-8.552 0-13.846-8.377-13.846-16.139z"/></svg>