<svg xmlns="http://www.w3.org/2000/svg" width="512" height="512"><path fill="#70dcba" d="M340.216 7.5h-17.194c-44.693 0-80.923 34.03-80.923 78.723v58.178h47.541c44.693 0 82.459-37.786 82.459-82.479V36.29c-.001-16.76-15.123-28.79-31.883-28.79"/><path fill="#ffce71" d="M423.382 382.265H256.001l-61.117 61.117 61.117 61.118h167.382c33.754 0 61.118-27.363 61.118-61.118-.001-33.754-27.364-61.117-61.119-61.117"/><path fill="#ffb357" d="M256.001 382.265H88.618c-33.754 0-61.118 27.364-61.118 61.117S54.863 504.5 88.618 504.5h167.383c-33.755-33.754-33.755-88.481 0-122.235"/><path fill="#70dcba" d="m450.827 312.723-44.887-44.887H168.637l-24.782 24.782v76.384l60.727 60.727h128.614a55.35 55.35 0 0 1 31.836-5.158c47.341 6.457 87.673-33.806 81.208-81.208a55.34 55.34 0 0 1 4.587-30.64"/><path fill="#30cd9c" d="M168.637 267.836H106.06l-44.887 44.887a55.34 55.34 0 0 1 4.588 30.64c-6.458 47.34 33.806 87.671 81.207 81.207 19.737-2.692 39.499 5.487 51.528 21.364 28.876 38.116 86.176 38.058 115.01 0a55.1 55.1 0 0 1 19.691-16.206c-79.308-21.788-141.535-83.127-164.56-161.892"/><path fill="#ea5b70" d="M256.001 414.714c78.241 0 144.116-52.898 163.841-124.878l-327.683-.001c19.726 71.981 85.601 124.879 163.842 124.879"/><path fill="#ff8e9e" d="M344.303 333.138c-23.587 23.587-54.946 36.576-88.302 36.576s-64.716-12.99-88.302-36.577c-12.528-12.528-22.068-27.252-28.258-43.302h233.121c-6.191 16.051-15.73 30.775-28.259 43.303"/><path fill="#ffb357" d="M256 86.223c-137.243 0-248.5 87.498-248.5 195.083.106 29.433 24.24 53.417 53.672 53.417H256z"/><path fill="#ffce71" d="M256 86.223c-68.621 68.622-68.621 179.879 0 248.5h194.827c29.433 0 53.566-23.984 53.672-53.417C504.5 173.721 393.243 86.223 256 86.223"/><path fill="#30cd9c" d="M188.979 7.5h-17.194c-16.76 0-31.882 12.03-31.882 28.79v25.632c0 44.693 37.767 82.479 82.459 82.479h47.541V86.223C269.902 41.53 233.671 7.5 188.979 7.5"/><g fill="#ff8e9e"><ellipse cx="172.5" cy="256.97" rx="30" ry="25"/><ellipse cx="339.5" cy="256.97" rx="30" ry="25"/></g><g fill="#fce3a0"><path d="M80.78 139.992c-5.858-5.857-15.354-5.858-21.213 0-5.858 5.857-5.858 15.355 0 21.213l12 12c5.857 5.857 15.355 5.857 21.213 0s5.858-15.355 0-21.213zM442.78 221.992l-12-12c-5.858-5.857-15.354-5.858-21.213 0-5.858 5.857-5.858 15.355 0 21.213l12 12c5.857 5.857 15.355 5.857 21.213 0s5.858-15.356 0-21.213M151.567 159.992l-12 12c-5.857 5.858-5.858 15.354 0 21.213 5.857 5.858 15.355 5.858 21.213 0l12-12c5.857-5.857 5.857-15.355 0-21.213s-15.356-5.859-21.213 0M331.567 139.992l-12 12c-5.857 5.858-5.858 15.354 0 21.213 5.857 5.858 15.355 5.858 21.213 0l12-12c5.857-5.857 5.857-15.355 0-21.213s-15.356-5.859-21.213 0M424.658 156.598c8.284 0 15-6.716 15-15 .001-8.284-6.715-15-15-15h-16.97c-8.284 0-15 6.715-15 15-.001 8.284 6.715 15 15 15zM70.78 229.992c-5.858-5.857-15.354-5.858-21.213 0-5.858 5.857-5.858 15.355 0 21.213l12 12c5.857 5.857 15.355 5.857 21.213 0s5.858-15.355 0-21.213z"/></g><path d="M190.312 251.771c4.143 0 7.5-3.357 7.5-7.5v-12c0-4.143-3.357-7.5-7.5-7.5s-7.5 3.357-7.5 7.5v12a7.5 7.5 0 0 0 7.5 7.5M278.448 249.125a7.5 7.5 0 0 0-.727-10.582 7.5 7.5 0 0 0-10.582.727c-6.166 7.075-17.121 7.067-23.279 0a7.501 7.501 0 0 0-11.309 9.855c12.145 13.935 33.766 13.92 45.897 0M309.913 251.437c4.143 0 7.5-3.357 7.5-7.5 0-3.532 2.873-6.406 6.405-6.406s6.406 2.874 6.406 6.406c0 4.143 3.357 7.5 7.5 7.5s7.5-3.357 7.5-7.5c0-11.804-9.603-21.406-21.406-21.406s-21.405 9.603-21.405 21.406a7.5 7.5 0 0 0 7.5 7.5"/><path d="M446.68 146.14c2.914-14.053-7.904-27.041-22.022-27.041H409.33c-12.134-7.192-25.07-13.53-38.584-18.903 5.809-12.01 8.851-25.082 8.851-38.273V36.29C379.597 16.28 361.93 0 340.215 0h-17.194c-26.039 0-50.397 10.858-66.975 29.449C239.952 11.306 216.069 0 188.979 0h-17.194c-21.715 0-39.382 16.28-39.382 36.29v25.632c0 13.583 3.199 26.578 8.863 38.261-21.224 8.428-40.795 19.12-58.349 31.881-8.682-5.995-20.772-5.255-28.652 2.624-7.178 7.174-8.407 17.813-4.108 26.173-5.711 6.104-11.013 12.479-15.806 19.018a7.495 7.495 0 0 0 1.62 10.479 7.5 7.5 0 0 0 10.48-1.619 192 192 0 0 1 13.573-16.472l6.24 6.24c8.793 8.791 23.025 8.793 31.819 0 8.795-8.791 8.794-23.027.001-31.819l-4.105-4.106c16.572-11.749 35.027-21.585 55.03-29.33 16.463 23.187 43.487 38.647 73.354 38.647h44.434l2.5 2.5a7.5 7.5 0 0 0 10.606-10.607l-2.499-2.499V94.476c42.44 2.909 81.074 14.302 113.872 31.685-3.781 4.017-6.086 9.432-6.086 15.437 0 12.406 10.093 22.5 22.499 22.5h16.971c5.219 0 10.141-1.79 14.058-4.932C476.341 193.255 496.98 236.355 497 281.29c-.07 25.33-20.76 45.93-46.13 45.93H61.13c-25.37 0-46.061-20.6-46.13-45.93.01-23.471 5.54-46.37 16.439-68.07 1.851-3.689.36-8.21-3.34-10.07a7.484 7.484 0 0 0-10.069 3.341C6.358 229.693 0 255.014 0 281.31v.021c.16 32.847 26.248 59.358 58.352 60.82-1.767 13.305-.425 25.937 3.862 37.897C37.157 390.495 20 415.15 20 443.38c0 28.355 17.192 52.761 41.91 63.229C70.37 510.18 79.35 512 88.62 512h295.55c4.14 0 7.5-3.37 7.5-7.5 0-4.141-3.36-7.5-7.5-7.5H88.62C58.981 497 35 473.015 35 443.38c-.019-21.978 13.545-41.651 33.605-49.728 16.212 27.459 47.297 42.715 79.376 38.35 17.069-2.326 34.145 4.745 44.535 18.462 31.842 42.028 95.078 42.087 126.967 0 10.391-13.717 27.455-20.792 44.535-18.462 32.091 4.376 63.169-10.889 79.38-38.348 20.056 8.077 33.61 27.75 33.601 49.726 0 29.639-23.986 53.62-53.62 53.62h-9.061c-4.13 0-7.5 3.359-7.5 7.5 0 4.13 3.37 7.5 7.5 7.5h9.061c37.783 0 68.62-30.601 68.62-68.62 0-27.971-16.925-52.797-42.211-63.328 4.296-11.986 5.62-24.598 3.86-37.902 32.204-1.468 58.192-28.064 58.351-60.82v-.021C512 228.165 486.198 181.02 446.68 146.14M76.87 167.902 65.2 156.231l-.01-.011-.01-.009-.309-.309a7.493 7.493 0 0 1 0-10.605 7.494 7.494 0 0 1 10.607.001l11.998 11.999a7.494 7.494 0 0 1 .001 10.605 7.5 7.5 0 0 1-10.607 0M323.021 15h17.194c11.726 0 24.382 8.14 24.382 21.29v25.632c0 11.404-2.761 22.717-8.012 33.055-14.04-4.755-28.507-8.474-43.307-11.151L325.704 71.4a7.5 7.5 0 0 0-10.606-10.607L294.841 81.05a323 323 0 0 0-17.699-1.631c-1.052-13.74-5.273-26.483-11.967-37.563C278.912 24.957 300.166 15 323.021 15M196.902 60.794a7.5 7.5 0 0 0-10.606 10.607l65.5 65.5h-29.434c-40.632 0-74.959-34.336-74.959-74.979V36.29c0-13.15 12.656-21.29 24.382-21.29h17.194c41.172 0 73.424 31.285 73.424 71.223v40.072zm227.756 88.304h-16.971c-4.135 0-7.499-3.364-7.499-7.5a7.446 7.446 0 0 1 7.315-7.483c.121-.003.24-.008.366-.016h16.788c4.136 0 7.5 3.364 7.5 7.499.001 4.073-3.311 7.5-7.499 7.5M166.341 342.22c11.136 10.277 23.771 18.475 37.595 24.391a7.501 7.501 0 0 0 5.901-13.791 116 116 0 0 1-19.393-10.6h131.114a116 116 0 0 1-19.392 10.6 7.5 7.5 0 0 0 5.901 13.791c13.824-5.916 26.459-14.114 37.596-24.391h40.26c-30.612 40.932-78.217 64.995-129.921 64.995-51.706-.001-99.31-24.064-129.922-64.995zm199.705 74.919c-22.447-3.059-44.862 6.239-58.519 24.267-25.865 34.137-77.172 34.164-103.054 0-13.658-18.027-36.079-27.327-58.52-24.267-27.853 3.803-54.774-10.626-66.998-35.892-5.509-11.387-7.502-24.136-5.764-36.871q.144-1.072.25-2.156h34.322c32.203 48.918 87.132 79.995 148.237 79.995 61.121 0 116.042-31.09 148.237-79.995h34.321c.379 3.789 3.58 20.241-5.51 39.027l-.055.108c-12.25 25.2-39.137 39.584-66.947 35.784"/><path d="M448.082 248.509c8.795-8.791 8.794-23.026.001-31.82l-12-12c-8.795-8.793-23.026-8.794-31.819 0-8.795 8.791-8.794 23.026-.001 31.82l12 12c8.793 8.791 23.024 8.793 31.819 0m-33.212-33.213a7.493 7.493 0 0 1 10.605 0l12 12a7.494 7.494 0 0 1 .001 10.605 7.496 7.496 0 0 1-10.606 0l-12-12a7.493 7.493 0 0 1 0-10.605M146.263 154.688l-12 12c-8.792 8.794-8.793 23.023 0 31.82 8.794 8.792 23.023 8.793 31.82 0l12-12c8.791-8.793 8.793-23.025 0-31.819s-23.025-8.795-31.82-.001m21.213 21.213-11.999 12a7.497 7.497 0 0 1-10.606.001 7.496 7.496 0 0 1 0-10.606l12-12v-.001a7.493 7.493 0 0 1 10.605 0 7.496 7.496 0 0 1 0 10.606M346.083 178.509l12-12c8.791-8.793 8.793-23.025 0-31.819-8.792-8.796-23.025-8.796-31.82-.001l-12 12c-8.792 8.794-8.793 23.023 0 31.82 8.793 8.791 23.023 8.793 31.82 0m-21.213-21.213 12-12v-.001a7.493 7.493 0 0 1 10.605 0 7.496 7.496 0 0 1 0 10.606l-11.999 12a7.497 7.497 0 0 1-10.606.001 7.496 7.496 0 0 1 0-10.606M88.082 268.509c8.795-8.791 8.794-23.026.001-31.82l-12-12c-8.795-8.793-23.026-8.794-31.819 0-8.795 8.791-8.794 23.026-.001 31.82l12 12c8.793 8.791 23.024 8.793 31.819 0M54.87 235.296a7.493 7.493 0 0 1 10.605 0l12 12a7.494 7.494 0 0 1 .001 10.605 7.496 7.496 0 0 1-10.606 0l-12-12a7.493 7.493 0 0 1 0-10.605"/></svg>