<svg xmlns="http://www.w3.org/2000/svg" width="512" height="512"><path fill="#ff8f71" d="m120.513 392.265-57.004 32.911-14.251 8.228c-19.001 10.97-42.753-2.743-42.753-24.683V375.81c0-21.941 23.752-35.654 42.753-24.683l14.251 8.228zM392.255 121.508l-32.911-57.004-8.228-14.251C340.146 31.252 353.859 7.5 375.799 7.5h32.912c21.941 0 35.654 23.752 24.683 42.753l-8.228 14.251z"/><path fill="#ffb39d" d="M461.842 88.683h-30.599L224.185 295.742h-63.851v207.059h50.063c32.352-3.294 63.837-11.353 93.961-24.093 39.042-16.514 74.082-40.131 104.146-70.195s53.681-65.104 70.195-104.146c17.121-40.48 25.802-83.415 25.802-127.612-.001-35.706-16.675-67.514-42.659-88.072"/><path fill="#ff8f71" d="M164.5 412.265c0-61.991 50.253-112.245 112.245-112.245 57.002 0 103.265-46.41 103.265-103.265 0-51.451 34.619-94.813 81.832-108.072-19.128-15.135-43.301-24.173-69.587-24.173-61.991 0-112.245 50.253-112.245 112.245 0 5.036-.37 9.986-1.069 14.831a102.5 102.5 0 0 1-13.047 37.23c-17.941 30.605-51.183 51.204-89.149 51.204-61.991 0-112.245 50.253-112.245 112.245S114.753 504.51 176.745 504.51c11.307 0 22.53-.577 33.651-1.709-27.827-20.427-45.896-53.369-45.896-90.536"/><path fill="#70dcba" d="M212.902 158.174c0-44.693-36.23-78.723-80.923-78.723h-17.194l-10 12.297v76.486l108.118 48.118z"/><path fill="#30cd9c" d="M142.208 145.659a93.63 93.63 0 0 1-27.424-66.208c-10.541 0-20.431 4.761-26.322 12.462-3.475 4.543-5.561 10.109-5.561 16.328v25.632c0 45.364 37.115 82.479 82.479 82.479h47.521z"/><path d="m433.86 64.445 6.028-10.442C453.744 30.006 436.449 0 408.711 0h-32.912c-27.71 0-45.047 29.982-31.178 54.003l6.023 10.432c-46.176 17.133-78.134 61.337-78.134 112.315 0 52.669-42.789 95.76-95.77 95.76-50.591 0-95.019 31.594-112.304 78.145l-10.434-6.023C30.006 330.776 0 348.073 0 375.81v32.911c0 27.711 29.982 45.048 54.003 31.179l10.438-6.027C81.422 479.577 125.276 512 176.74 512l.02-.05v.05c86.374 0 167.152-32.822 228.29-89.75 3.035-2.809 3.215-7.558.38-10.6-2.764-2.98-7.526-3.248-10.59-.38C335.41 466.55 257.96 497 176.74 497 118.792 497 72 450.058 72 392.26c0-57.83 46.818-104.75 104.74-104.75 61.104 0 110.77-49.693 110.77-110.76C287.51 118.879 334.35 72 392.25 72 450.018 72 497 118.767 497 176.75c0 78.96-29 154.82-81.641 213.6a7.48 7.48 0 0 0 .58 10.591c3.117 2.799 7.859 2.478 10.59-.58C481.131 339.441 512 260.476 512 176.75c0-51.194-32.15-95.228-78.14-112.305M46.503 426.909c-14 8.083-31.503-2.007-31.503-18.188V375.81c0-16.163 17.49-26.279 31.503-18.188l13.512 7.801a119 119 0 0 0-2.319 13.886l-5.621-3.44a7.5 7.5 0 0 0-7.83 12.794l6.704 4.103-6.704 4.103a7.5 7.5 0 0 0 3.922 13.898 7.46 7.46 0 0 0 3.908-1.104l5.727-3.505a119 119 0 0 0 2.216 12.948zM357.611 46.503c-8.082-14 2.007-31.503 18.188-31.503h32.912c16.172 0 26.276 17.493 18.188 31.503l-7.805 13.519a119 119 0 0 0-9.446-1.765l2.349-4.817a7.5 7.5 0 0 0-3.454-10.028 7.5 7.5 0 0 0-10.028 3.454l-4.949 10.15c-1.001-.011-.379-.015-1.626-.012l-4.943-10.138a7.5 7.5 0 0 0-13.482 6.574l2.284 4.685a118 118 0 0 0-10.385 1.89z"/><path d="M310.968 199.737v12c0 4.143 3.357 7.5 7.5 7.5s7.5-3.357 7.5-7.5v-12c0-4.143-3.357-7.5-7.5-7.5s-7.5 3.358-7.5 7.5M450.968 211.737v-12c0-4.143-3.357-7.5-7.5-7.5s-7.5 3.357-7.5 7.5v12c0 4.143 3.357 7.5 7.5 7.5s7.5-3.357 7.5-7.5M390.779 206.433c-5.725 6.569-15.899 6.567-21.621.001a7.501 7.501 0 0 0-11.309 9.855c11.704 13.429 32.541 13.415 44.236.001a7.5 7.5 0 0 0-11.306-9.857M101.6 186.56c3.41-2.35 4.28-7.02 1.94-10.43-8.59-12.521-13.141-27.13-13.141-42.26v-25.63c.032-12.674 11.904-21.29 24.311-21.29h17.27c40.741 0 73.4 30.849 73.42 71.22v40.073l-65.498-65.498a7.5 7.5 0 0 0-10.606 10.607l65.497 65.497H165.38c-15.33 0-30.101-4.649-42.71-13.45-3.406-2.385-8.085-1.513-10.44 1.851a7.5 7.5 0 0 0 1.851 10.45c15.14 10.569 32.88 16.149 51.29 16.149v-.05l.01.05h44.413l10.503 10.503a7.5 7.5 0 0 0 10.606-10.607l-10.502-10.502V158.17c.044-48.946-39.735-86.22-88.399-86.22h-17.221c-21.037.033-39.38 15.46-39.38 36.29v25.63c0 18.18 5.45 35.729 15.78 50.75 2.365 3.447 7.064 4.249 10.419 1.94"/></svg>