<svg xmlns="http://www.w3.org/2000/svg" width="512" height="512"><path fill="#ffb357" d="M159.92 63.676 27.676 195.918c-42.997 42.995-12.843 117.579 48.704 117.579 53.941 0 104.696-21.389 142.213-58.906 37.488-37.486 58.907-88.226 58.907-142.212 0-61.561-74.592-91.692-117.58-48.703"/><path fill="#ffb39d" d="M404.842 31.673h-30.599L167.185 238.732h-63.851v207.059h50.063c32.352-3.294 63.837-11.353 93.961-24.093 39.042-16.514 74.082-40.131 104.146-70.195s53.681-65.104 70.195-104.146c17.121-40.48 25.802-83.415 25.802-127.612-.001-35.706-16.675-67.515-42.659-88.072"/><path fill="#ff8f71" d="M107.5 355.255c0-61.991 50.253-112.245 112.245-112.245 57.002 0 103.265-46.41 103.265-103.265 0-51.451 34.619-94.813 81.832-108.072C385.714 16.538 361.541 7.5 335.255 7.5c-61.991 0-112.245 50.253-112.245 112.245 0 5.036-.37 9.986-1.069 14.831a102.5 102.5 0 0 1-13.047 37.23c-17.941 30.605-51.183 51.204-89.149 51.204C57.753 223.01 7.5 273.264 7.5 335.255S57.753 447.5 119.745 447.5c11.307 0 22.53-.577 33.651-1.709-27.827-20.428-45.896-53.369-45.896-90.536"/><path fill="#ffce71" d="m501.94 222.027-38.521-38.521L229.606 417.32l79.027 79.027c45.071-11.539 86.292-34.992 119.506-68.207 48.595-48.593 76.361-114.367 76.361-184.349 0-7.648-.905-14.913-2.56-21.764"/><path fill="#ffb357" d="m310.654 372.083 120.905-120.904a99.53 99.53 0 0 1 70.381-29.152c-7.722-31.963-32.121-54.752-60.921-63.528-29.442-8.971-63.467-3.312-88.937 22.159L180.654 352.083c-25.473 25.472-31.13 59.495-22.157 88.935 10.66 34.976 41.973 63.482 85.292 63.482 22.169 0 43.92-2.796 64.844-8.153-9.292-10.109-16.155-22.267-20.136-35.329-8.973-29.44-3.316-63.463 22.157-88.935"/><path fill="#70dcba" d="M202.902 171.174c0-44.693-36.23-78.723-80.923-78.723h-17.194l-10 12.297v76.486l108.118 48.118z"/><path fill="#30cd9c" d="M132.208 158.659a93.63 93.63 0 0 1-27.424-66.208c-10.541 0-20.431 4.761-26.322 12.462-3.475 4.543-5.561 10.109-5.561 16.328v25.632c0 45.364 37.115 82.479 82.479 82.479h47.521z"/><path d="M489.77 181.83a7.5 7.5 0 1 0-11.463 9.673C490.92 206.451 497 224.783 497 243.791 497 384.855 382.495 497 243.789 497c-73.151 0-108.844-88.605-57.831-139.613L357.386 185.96c28.037-28.041 68.626-30.691 100.007-12.095a7.5 7.5 0 0 0 10.275-2.629 7.5 7.5 0 0 0-2.629-10.275 100 100 0 0 0-11.877-5.981A341 341 0 0 0 455 119.746C455 53.153 401.036 0 335.255 0c-35.926 0-70.129 16.36-92.777 44.062-29.285-14.39-64.065-9.485-87.861 14.31l-26.765 26.765a96 96 0 0 0-5.873-.186h-17.194c-12.833 0-24.9 5.759-32.278 15.405-4.647 6.075-7.104 13.298-7.104 20.885v25.632c0 .235.007.468.009.703L46.8 166.188a7.5 7.5 0 0 0 10.607 10.607l10.183-10.183c4.566 20.318 16.023 38.056 31.78 50.625-32.327 5.523-60.932 24.05-79.244 51.554-3.337-7.841-5.123-16.334-5.123-24.778 0-11.32 3.119-27.935 17.978-42.792l3.213-3.213a7.5 7.5 0 0 0-10.607-10.607l-3.213 3.213C7.948 205.041.004 224.005.004 244.013c0 14.077 3.999 28.257 11.308 40.41C3.905 300.225 0 317.702 0 335.255 0 401.282 53.718 455 119.745 455c11.728 0 23.549-.621 35.226-1.839C170.195 489.095 204.432 512 243.789 512 390.85 512 512 393.046 512 243.791c0-22.432-7.251-44.214-22.23-61.961M165.224 68.979c19.732-19.733 46.737-22.12 68.376-12.516-11.853 18.966-18.09 40.666-18.09 63.281 0 12.156-2.275 23.977-6.645 35.036-6.18-32.531-30.505-58.092-62.745-66.698zm-84.822 77.894v-25.632c0-12.714 12.022-21.29 24.382-21.29h17.194c41.172 0 73.424 31.285 73.424 71.223v40.071l-57.196-57.197a7.5 7.5 0 0 0-10.607 10.607l57.197 57.197h-29.414c-41.345.001-74.98-33.635-74.98-74.979M15 335.255c0-16.867 3.887-32.971 11.552-47.862l.02-.039c18.065-35.064 53.764-56.845 93.174-56.845a7.5 7.5 0 0 0 1.861-.242c20.232 8.224 31.571 6.585 78.189 6.585l7.804 7.804a7.501 7.501 0 0 0 10.607-10.607l-7.804-7.804v-42.972c13.151-18.7 20.107-40.603 20.107-63.528C230.51 61.201 278.225 15 335.255 15 392.801 15 440 61.505 440 119.745c0 10.083-.482 20.239-1.425 30.303-34.151-8.643-68.033 1.539-91.797 25.306L175.352 346.779c-23.973 23.97-33.882 57.924-25.306 91.795A325 325 0 0 1 119.745 440C61.988 440 15 393.012 15 335.255"/><path d="M248.426 141.724c4.143 0 7.5-3.357 7.5-7.5v-12c0-4.143-3.357-7.5-7.5-7.5s-7.5 3.357-7.5 7.5v12a7.5 7.5 0 0 0 7.5 7.5M353.323 141.724c4.143 0 7.5-3.357 7.5-7.5v-12c0-4.143-3.357-7.5-7.5-7.5s-7.5 3.357-7.5 7.5v12a7.5 7.5 0 0 0 7.5 7.5M322.992 138.794a7.5 7.5 0 0 0-.728-10.581 7.5 7.5 0 0 0-10.581.728c-5.724 6.568-15.9 6.562-21.619 0a7.5 7.5 0 0 0-11.309 9.853c11.701 13.429 32.546 13.418 44.237 0M74.882 361.679a7.5 7.5 0 0 0-10.606.001L62.955 363l-1.321-1.321a7.5 7.5 0 0 0-10.606-.001 7.5 7.5 0 0 0-.001 10.606l1.322 1.322-1.322 1.322a7.5 7.5 0 0 0 .001 10.606 7.5 7.5 0 0 0 10.606-.001l1.321-1.321 1.321 1.321a7.5 7.5 0 0 0 10.606.001 7.5 7.5 0 0 0 .001-10.606l-1.322-1.322 1.322-1.322a7.497 7.497 0 0 0-.001-10.605"/></svg>