<svg xmlns="http://www.w3.org/2000/svg" width="512" height="512" viewBox="0 0 512.004 512.004"><path fill="#30cd9c" d="M498.713 382.388a22.486 22.486 0 0 0 0-30.121c5.065-5.65 6.32-13.244 4.333-20.013l-7.916-26.973c11.356-8.017 12.19-23.053 3.583-32.65 3.586-3.999 5.786-9.266 5.786-15.061s-2.2-11.062-5.786-15.061c3.586-3.999 5.786-9.267 5.786-15.061s-2.2-11.062-5.786-15.061c3.586-3.999 5.786-9.266 5.786-15.061 0-5.794-2.2-11.062-5.786-15.061 3.586-3.999 5.786-9.266 5.786-15.061 0-12.477-10.114-22.591-22.591-22.591v-6.856a41.5 41.5 0 0 1-6.459-5.262c-29.652-29.654-77.907-29.654-107.582.014-16.008 16.012-42.059 16.012-58.085-.014-14.826-14.827-34.303-22.241-53.783-22.239h-49.307v338H256c33.424-.003 51.255 20.248 56.244 24.493 16.245 13.82 40.537 12.851 55.624-2.24 29.675-29.668 77.93-29.668 107.582-.014a41 41 0 0 0 2.468 2.254h20.796c3.586-3.999 5.786-9.266 5.786-15.061s-2.2-11.062-5.786-15.061c3.586-3.999 5.786-9.266 5.786-15.061s-2.2-11.062-5.786-15.061c3.586-3.999 5.786-9.267 5.786-15.061-.001-5.789-2.2-11.057-5.787-15.056"/><path fill="#0caf7b" d="M256 300.242V265.26c-39.077-39.077-39.077-102.432 0-141.509V110.26c-19.479.001-38.962 7.418-53.799 22.252-16.005 16.012-42.059 16.012-58.085-.014-29.652-29.654-77.907-29.654-107.582.014a41.4 41.4 0 0 1-6.444 5.25v6.854c-12.477 0-22.591 10.114-22.591 22.591 0 5.794 2.2 11.062 5.786 15.061-3.585 3.998-5.785 9.266-5.785 15.06s2.2 11.062 5.786 15.061C9.7 216.387 7.5 221.655 7.5 227.449s2.2 11.062 5.786 15.061C9.7 246.508 7.5 251.776 7.5 257.57s2.2 11.062 5.786 15.061c-8.542 9.524-7.863 24.57 3.583 32.65l-7.916 26.973c-1.975 6.73-.758 14.335 4.333 20.013a22.486 22.486 0 0 0 0 30.121C9.7 386.387 7.5 391.655 7.5 397.449s2.2 11.062 5.786 15.061C9.7 416.508 7.5 421.776 7.5 427.57s2.2 11.062 5.786 15.061C9.7 446.63 7.5 451.897 7.5 457.691s2.2 11.062 5.786 15.061h20.797a41 41 0 0 0 2.452-2.24c29.675-29.668 77.93-29.668 107.582-.014 16.016 16.014 42.108 16 58.085.014 14.837-14.834 34.319-22.251 53.799-22.252v-13c-34.948-34.948-34.948-100.072-.001-135.018"/><path fill="#fce3a0" d="M43.049 298.916v25.333c8.637 0 15 7.225 15 15.393v51.774c0 8.846 7.658 15.904 16.706 14.905 7.653-.844 13.294-7.6 13.294-15.299v-25.774c0-8.284 6.716-14.999 15-14.999 8.497 0 14.779 6.995 14.981 14.999h.019v1.774c0 7.7 5.641 14.455 13.294 15.3 9.048.999 16.706-6.06 16.706-14.906v-20.168h.019c.202-8.004 6.484-14.999 14.981-14.999v-33.333z"/><path fill="#ffb357" d="M202.201 287.512c-16.005 16.012-42.059 16.012-58.085-.014-29.652-29.654-77.907-29.654-107.582.014-4.739 4.74-10.433 8.179-16.648 10.137-7.291 2.296-12.386 9.164-12.386 16.808 0 11.602 11.234 20.104 22.331 16.716 11.522-3.519 22.368-9.826 31.466-18.924 16.01-16.012 42.062-16.012 58.085.014 29.659 29.654 77.914 29.654 107.582-.014 8.005-8.005 18.52-12.009 29.037-12.007V265.26c-19.481.001-38.963 7.418-53.8 22.252"/><path fill="#ffce71" d="M504.355 312.168c-.869-6.919-5.965-12.477-12.596-14.633-6.079-1.977-11.651-5.378-16.31-10.037-29.652-29.654-77.907-29.654-107.582.014-16.008 16.012-42.059 16.012-58.085-.014-14.826-14.827-34.303-22.241-53.783-22.239-9.66 9.66-9.66 25.322 0 34.982 10.714 0 21.173 4.143 29.048 12.021 14.829 14.827 34.3 22.242 53.781 22.239 19.48-.002 38.967-7.419 53.801-22.253 16.012-16.012 42.064-16.012 58.085.014 9.094 9.093 19.937 15.398 31.456 18.914 11.816 3.607 23.785-6.267 22.185-19.008"/><path fill="#70dcba" d="M300.949 7.502h14.417c14.052 0 26.732 10.087 26.732 24.139v21.492c0 37.473-31.666 69.155-69.139 69.155h-39.861v-48.78c0-37.473 30.378-66.006 67.851-66.006"/><path fill="#ffb357" d="M202.201 457.512c-16.005 16.012-42.059 16.012-58.085-.014-29.652-29.654-77.907-29.654-107.582.014-4.739 4.74-10.433 8.179-16.648 10.137-7.291 2.296-12.386 9.164-12.386 16.808 0 11.602 11.234 20.104 22.331 16.716 11.522-3.519 22.368-9.826 31.466-18.924 16.01-16.012 42.062-16.012 58.085.014 29.659 29.654 77.914 29.654 107.582-.014 8.005-8.005 18.52-12.009 29.037-12.007V435.26c-19.481.001-38.963 7.418-53.8 22.252"/><path fill="#ffce71" d="M504.355 482.168c-.869-6.919-5.965-12.477-12.596-14.633-6.079-1.977-11.651-5.378-16.31-10.037-29.652-29.654-77.907-29.654-107.582.014-16.008 16.012-42.059 16.012-58.085-.014-14.826-14.827-34.303-22.241-53.783-22.239-9.66 9.66-9.66 25.322 0 34.982 10.714 0 21.173 4.143 29.048 12.021 14.829 14.827 34.3 22.242 53.781 22.239 19.48-.002 38.967-7.419 53.801-22.253 16.012-16.012 42.064-16.012 58.085.014 9.094 9.093 19.937 15.398 31.456 18.914 11.816 3.607 23.785-6.267 22.185-19.008"/><path fill="#fff1d4" d="m256 123.75-13.569 13.569v42.86l10.902 10.902c0-8.284 6.716-14.999 15-14.999 8.497 0 14.779 6.995 14.981 14.999h.019v20.168c0 8.846 7.658 15.904 16.706 14.906 7.653-.845 13.294-7.6 13.294-15.3v-1.774h.019c.202-8.004 6.484-14.999 14.981-14.999 8.284 0 15 6.714 15 14.999v25.774c0 7.7 5.641 14.455 13.294 15.299 9.048.999 16.706-6.059 16.706-14.905v-25.774c0-8.168 6.363-15.393 15-15.393 8.284 0 15 6.714 15 14.999v129.606c0 7.7 5.641 14.455 13.294 15.299 9.048.999 16.706-6.059 16.706-14.905V149.393c0-8.175 6.371-15.393 15-15.393v-10.25z"/><path fill="#fce3a0" d="M43.333 123.75v78.5c0 8.846 7.658 15.904 16.706 14.905 7.653-.844 13.294-7.6 13.294-15.299v-.774c0-8.284 6.716-14.999 15-14.999 8.633 0 15 7.221 15 15.393v9.212c0 7.7 5.641 14.455 13.294 15.299 9.048.999 16.706-6.059 16.706-14.905 0-8.284 6.716-14.998 15-14.999 8.629 0 15 7.218 15 15.393v19.606c0 8.846 7.658 15.904 16.706 14.905 7.653-.844 13.294-7.6 13.294-15.299v-39.606c0-8.284 6.716-14.999 15-14.999 8.637 0 15 7.225 15 15.393v5.774c0 8.846 7.658 15.904 16.706 14.905 7.653-.844 13.294-7.6 13.294-15.299v-5.774c0-58.085-.853-59.498 2.667-67.332z"/><path fill="#ffb357" d="M224.892 95.893a75.7 75.7 0 0 0-22.691 15.618c-16.005 16.012-42.059 16.012-58.085-.014-29.652-29.654-77.907-29.654-107.582.014-4.739 4.74-10.433 8.179-16.648 10.137-7.291 2.297-12.386 9.165-12.386 16.809 0 11.602 11.234 20.104 22.331 16.716 11.522-3.519 22.368-9.826 31.466-18.924 16.01-16.012 42.062-16.012 58.085.014 29.659 29.654 77.914 29.654 107.582-.014 7.329-7.329 16.762-11.293 26.373-11.911z"/><path fill="#ffce71" d="M504.355 136.168c-.869-6.919-5.965-12.477-12.596-14.633-6.079-1.977-11.651-5.378-16.31-10.037-29.652-29.654-77.907-29.654-107.582.014-16.008 16.012-42.059 16.012-58.085-.014C294.957 96.671 275.479 89.257 256 89.259a76.3 76.3 0 0 0-31.108 6.634l28.444 28.444a42 42 0 0 1 2.664-.096c10.714 0 21.173 4.143 29.048 12.021 14.829 14.827 34.3 22.242 53.781 22.239 19.48-.002 38.967-7.419 53.801-22.253 16.012-16.012 42.064-16.012 58.085.014 9.094 9.093 19.937 15.398 31.456 18.914 11.815 3.607 23.784-6.267 22.184-19.008"/><g fill="#ffdbe0"><path d="M177 386.344c-16.016 0-29 10.297-29 23s12.984 23 29 23 29-10.298 29-23-12.984-23-29-23M335 386.344c-16.016 0-29 10.297-29 23s12.984 23 29 23 29-10.298 29-23-12.984-23-29-23"/></g><path fill="#30cd9c" d="M181.153 7.502h-13.226c-12.892 0-24.525 9.254-24.525 22.146v19.717c0 34.379 29.051 63.445 63.43 63.445h36.57V68.058c0-34.379-27.87-60.556-62.249-60.556"/><path d="M193.906 367.221a7.5 7.5 0 0 0-7.5 7.5v12c0 4.143 3.357 7.5 7.5 7.5s7.5-3.357 7.5-7.5v-12c0-4.143-3.357-7.5-7.5-7.5M318.906 367.221a7.5 7.5 0 0 0-7.5 7.5v12c0 4.143 3.357 7.5 7.5 7.5s7.5-3.357 7.5-7.5v-12c0-4.143-3.357-7.5-7.5-7.5M276.799 380.69a7.5 7.5 0 0 0-10.582.727c-5.724 6.568-15.9 6.565-21.62.001a7.5 7.5 0 1 0-11.309 9.853c11.701 13.43 32.544 13.417 44.237.001a7.5 7.5 0 0 0-.726-10.582"/><path d="M507.928 152.098A24.9 24.9 0 0 0 512 138.456c0-11.316-7.587-20.693-17.921-24.053-5.034-1.638-9.518-4.399-13.326-8.208-11.797-11.799-26.68-19.715-43.038-22.893-4.073-.79-8.003 1.866-8.793 5.932s1.866 8.003 5.932 8.793c13.413 2.605 25.617 9.098 35.292 18.774 5.421 5.42 12.092 9.522 19.294 11.866 4.222 1.372 7.561 5.01 7.561 9.788 0 6.718-6.502 11.42-12.64 9.547-10.637-3.247-20.438-9.141-28.343-17.044-18.91-18.908-49.688-19.015-68.691-.014-26.745 26.747-70.208 26.777-96.974.016-9.162-9.168-21.36-14.217-34.347-14.217-2.201 0-4.376.157-6.521.441 1.843-2.557 1.417-3.119 1.417-20.211 19.406-1.447 38.871 5.199 53.437 19.692.064.064.132.123.196.187l.067.064c19.37 19.098 49.893 18.577 68.569-.103 9.553-9.551 21.584-16.012 34.793-18.685a7.5 7.5 0 0 0 5.863-8.838 7.495 7.495 0 0 0-8.838-5.863c-16.108 3.259-30.778 11.136-42.425 22.779-10.9 10.902-27.591 12.813-40.544 5.292 17.212-14.609 27.578-36.164 27.578-58.368V31.641c0-17.445-15.356-31.639-34.231-31.639H300.95c-24.679 0-47.481 11.626-61.369 30.484C226.982 11.62 205.317.002 181.153.002h-13.227c-17.659 0-32.025 13.3-32.025 29.646v19.717c0 29.28 18.545 55.167 44.778 65.799-10.888 2.482-22.745-.455-31.259-8.969-32.601-32.603-85.549-32.619-118.19.015-3.876 3.877-8.45 6.664-13.598 8.285C7.251 117.766 0 127.619 0 138.457c0 4.9 1.444 9.623 4.072 13.641a30.02 30.02 0 0 0-.012 30.17 29.97 29.97 0 0 0 0 30.121 29.97 29.97 0 0 0 0 30.121 29.96 29.96 0 0 0-.001 30.118c-5.223 8.981-5.364 19.985-.419 28.915-4.794 7.934-4.86 17.68-.159 25.593-3.197 3.411-4.826 15.326.61 25.079a30.02 30.02 0 0 0-.03 30.175 29.96 29.96 0 0 0 .001 30.12 29.96 29.96 0 0 0 .08 30.259c-3.986 7.69-3.99 17.348 1.493 25.921C2.031 473.15 0 478.766 0 484.457c0 16.678 16.08 28.762 32.021 23.89 12.984-3.966 24.941-11.157 34.578-20.795a33.2 33.2 0 0 1 11.558-7.545 7.5 7.5 0 0 0 4.284-9.702 7.496 7.496 0 0 0-9.702-4.284 48.1 48.1 0 0 0-16.747 10.926c-7.905 7.906-17.71 13.804-28.354 17.056C21.195 495.97 15 490.795 15 484.457c0-4.321 2.951-8.336 7.138-9.654 7.367-2.32 14.18-6.466 19.699-11.987 26.751-26.743 70.211-26.782 96.976-.014 18.957 18.955 49.726 18.985 68.691.014 26.746-26.742 70.209-26.785 96.975-.014 18.953 18.951 49.722 18.989 68.692.014 26.751-26.743 70.211-26.783 96.975-.014 5.421 5.42 12.092 9.522 19.293 11.865 4.226 1.374 7.562 4.991 7.562 9.791 0 6.315-6.163 11.515-12.64 9.545-10.637-3.247-20.438-9.141-28.342-17.043-18.953-18.957-49.721-18.986-68.692-.015-26.719 26.719-70.212 26.774-96.974.015-18.952-18.958-49.721-18.984-68.693-.015-26.749 26.751-70.209 26.776-96.974.015-4.944-4.945-10.753-8.689-17.266-11.129a7.496 7.496 0 0 0-9.654 4.393 7.5 7.5 0 0 0 4.393 9.654 33.3 33.3 0 0 1 11.921 7.688c15.76 15.758 36.745 24.436 59.09 24.436 22.343 0 43.331-8.683 59.098-24.449 13.091-13.093 34.371-13.098 47.479.014 15.761 15.758 36.74 24.436 59.076 24.436h.009c22.349-.002 43.339-8.686 59.104-24.45 13.092-13.092 34.369-13.097 47.479.015 9.637 9.635 21.591 16.821 34.57 20.783 15.994 4.876 32.018-7.256 32.018-23.892 0-5.654-1.827-11.133-5.695-15.786 5.494-8.452 5.537-18.202 1.551-25.902a29.97 29.97 0 0 0 .081-30.26 29.96 29.96 0 0 0 0-30.12 30.02 30.02 0 0 0-.03-30.176c5.477-9.825 3.754-21.716.615-25.073 4.506-7.601 4.832-17.464-.168-25.599 4.946-8.933 4.808-19.933-.413-28.913a29.96 29.96 0 0 0-.002-30.119 29.96 29.96 0 0 0 0-30.121 29.96 29.96 0 0 0 0-30.121 30.02 30.02 0 0 0-.014-30.171m-67.095 123.388c11.055 3.183 21.068 9.07 29.312 17.316 5.421 5.42 12.092 9.522 19.296 11.866 3.816 1.24 6.968 4.423 7.473 8.434.915 7.301-5.875 12.935-12.554 10.901-10.637-3.247-20.438-9.141-28.342-17.043a48.7 48.7 0 0 0-15.186-10.279zm39.147-113.137a24.6 24.6 0 0 0 7.18 1.079c3.028 0 6.013-.58 8.82-1.665a15 15 0 0 1 1.02 5.444c0 3.7-1.374 7.271-3.87 10.053a7.5 7.5 0 0 0 0 10.017 15.04 15.04 0 0 1 3.87 10.052c0 3.7-1.374 7.271-3.87 10.053a7.5 7.5 0 0 0 0 10.017 15.04 15.04 0 0 1 3.87 10.052c0 3.7-1.374 7.271-3.87 10.053a7.5 7.5 0 0 0 0 10.017c2.496 2.781 3.87 6.351 3.87 10.052s-1.374 7.271-3.87 10.052a7.5 7.5 0 0 0 0 10.017c3.549 3.958 4.671 9.09 3.355 13.686-3.016-1.314-9.122-2.519-15.732-9.129-11.085-11.086-24.783-18.686-39.92-22.213v-110.59c0-3.039 1.851-6.279 4.978-7.44 9.567 9.435 21.368 16.485 34.169 20.393m-200.235-20.783c32.612 32.608 85.562 32.613 118.188-.014 9.332-9.333 22.67-11.933 34.294-8.108a23.02 23.02 0 0 0-6.395 15.948v189.689a7.495 7.495 0 0 1-8.383 7.451c-3.711-.409-6.617-3.855-6.617-7.845V209.082c0-12.405-10.094-22.498-22.5-22.498s-22.5 10.27-22.5 22.893v25.773a7.496 7.496 0 0 1-8.383 7.451c-3.711-.409-6.617-3.855-6.617-7.845v-25.774c0-12.405-10.094-22.498-22.5-22.498-11.398 0-22.5 8.591-22.5 24.272 0 3.989-2.906 7.436-6.616 7.845a7.495 7.495 0 0 1-8.384-7.451v-20.168q0-.428-.047-.845c-.636-12.195-10.378-21.653-22.453-21.653-12.406 0-22.5 10.093-22.5 22.498v8.774c0 3.989-2.906 7.436-6.616 7.845a7.496 7.496 0 0 1-8.384-7.451v-1.773c0-12.623-10.094-22.893-22.5-22.893s-22.5 10.093-22.5 22.498v39.606c0 3.989-2.906 7.436-6.616 7.845-4.583.503-8.384-3.032-8.384-7.451v-26.605c0-12.623-10.094-22.893-22.5-22.893s-22.5 10.093-22.5 22.498a7.495 7.495 0 0 1-8.383 7.451c-3.711-.409-6.617-3.855-6.617-7.845v-9.212c0-12.623-10.094-22.893-22.5-22.893-11.571 0-22.5 8.98-22.5 23.272 0 3.989-2.906 7.436-6.616 7.845a7.496 7.496 0 0 1-8.384-7.451v-48.34a83.6 83.6 0 0 0 15.767-12.358c13.089-13.091 34.368-13.097 47.479.015 32.61 32.606 85.561 32.613 118.188-.014a33.6 33.6 0 0 1 7.868-5.853l4.219 6.024a7.5 7.5 0 0 0 12.287-8.604l-.958-1.368c9.241-.083 17.737 3.486 24.063 9.815M103.049 342.75c-12.406 0-22.5 10.093-22.5 22.498v25.774c0 3.989-2.906 7.436-6.616 7.845a7.497 7.497 0 0 1-8.384-7.451v-51.773c0-5.983-2.35-11.528-6.18-15.667a84 84 0 0 0 7.231-6.424c13.077-13.079 34.372-13.095 47.479.015a83 83 0 0 0 29.322 18.961c-1.898 3.479-2.852 7.511-2.852 10.72v20.168a7.495 7.495 0 0 1-8.383 7.451c-3.711-.409-6.617-3.855-6.617-7.845v-1.774c0-11.75-9.569-22.498-22.5-22.498m21.637-35.79c-18.938-18.942-49.731-18.979-68.693-.015a68.6 68.6 0 0 1-14.366 10.995 68.3 68.3 0 0 1-13.986 6.061c-6.328 1.933-12.64-3.013-12.64-9.544 0-4.424 3.062-8.37 7.138-9.655 7.367-2.319 14.18-6.465 19.699-11.986 26.744-26.737 70.249-26.745 96.976-.014 18.932 18.93 49.727 18.986 68.691.014 26.742-26.737 70.245-26.746 96.976-.014 18.933 18.933 49.728 18.983 68.691.014a68.5 68.5 0 0 1 22.662-15.021v22.384a48.3 48.3 0 0 0-8.507 6.767c-26.719 26.719-70.211 26.774-96.974.016-18.944-18.952-49.734-18.971-68.693-.016-26.739 26.738-70.242 26.743-96.974.014M18.87 277.639a7.5 7.5 0 0 0 0-10.017 14.995 14.995 0 0 1 0-20.104 7.5 7.5 0 0 0 0-10.017 14.995 14.995 0 0 1 0-20.104 7.5 7.5 0 0 0 0-10.017 14.995 14.995 0 0 1 0-20.104 7.5 7.5 0 0 0 0-10.017 15.05 15.05 0 0 1-3.869-10.053c0-1.886.354-3.727 1.021-5.446 7.392 2.856 13.214 1.682 19.812-.691v41.181c0 13.311 11.551 23.843 25.029 22.361 10.67-1.178 19.971-10.046 19.971-23.529 0-4.135 3.364-7.498 7.5-7.498 4.633 0 7.5 4.097 7.5 7.893v9.212c0 11.716 8.586 21.498 19.972 22.755 13.473 1.473 25.028-9.039 25.028-22.361 0-4.135 3.364-7.498 7.5-7.498 4.633 0 7.5 4.097 7.5 7.893v26.605c0 13.332 11.571 23.84 25.029 22.361 11.385-1.257 19.971-11.039 19.971-22.755v-39.606c0-4.135 3.364-7.498 7.5-7.498 4.633 0 7.5 4.097 7.5 7.893v1.773c0 13.342 11.585 23.841 25.029 22.361 11.385-1.257 19.971-11.039 19.971-22.755v-8.774c0-4.135 3.364-7.498 7.5-7.498 4.562 0 7.388 3.908 7.482 7.687q.005.177.018.354v19.626c0 13.315 11.556 23.843 25.029 22.361 10.607-1.171 19.616-9.318 19.988-24.341.095-3.778 2.919-7.687 7.482-7.687 4.136 0 7.5 3.363 7.5 7.498v25.774c0 20.075 23.184 29.986 37.509 17.157a22.53 22.53 0 0 0 7.491-16.764v-25.773c0-3.796 2.867-7.893 7.5-7.893 4.136 0 7.5 3.363 7.5 7.498v52.756a83.4 83.4 0 0 0-33.269 20.371c-13.077 13.079-34.371 13.092-47.479-.014-32.576-32.58-85.594-32.573-118.189.015-13.073 13.077-34.371 13.091-47.477-.015-32.576-32.578-85.595-32.571-118.19.015-6.663 6.666-13.007 7.934-15.731 9.079-1.297-4.585-.168-9.703 3.372-13.65M300.949 15.002h14.417c9.249 0 19.231 6.361 19.231 16.639v21.492c0 18.687-9.209 36.842-24.353 48.621-8.527-7.298-18.303-12.723-28.83-16.06l14.29-14.29a7.5 7.5 0 0 0-10.606-10.607L263.76 82.135c-5.099-.464-8.95-.425-12.858-.186V68.058c0-7.515-1.202-14.841-3.568-21.831 10.252-19.334 30.514-31.225 53.615-31.225M150.901 49.365V29.648c0-9.047 8.838-14.646 17.025-14.646h13.227c22.942 0 42.983 13.159 51.055 33.523 2.451 6.182 3.693 12.754 3.693 19.533v35.443l-46.587-66.533a7.5 7.5 0 0 0-12.287 8.604l41.829 59.738h-12.024c-30.411 0-55.931-26.29-55.931-55.945M22.138 128.803c7.367-2.32 14.18-6.466 19.699-11.987 26.751-26.743 70.21-26.782 96.976-.015 17.765 17.767 45.801 18.856 64.861 3.431a64 64 0 0 0 3.159.079h22.527l2.131 3.044a48.6 48.6 0 0 0-9.831 7.591c-26.749 26.751-70.209 26.776-96.974.015-18.954-18.956-49.722-18.989-68.693-.015-7.907 7.908-17.712 13.806-28.353 17.056-6.141 1.873-12.64-2.84-12.64-9.544 0-4.361 2.936-8.332 7.138-9.655m340.426 323.406c-13.087 13.091-34.369 13.094-47.479-.014-32.607-32.611-85.555-32.615-118.189.014-13.086 13.092-34.367 13.094-47.477-.014-32.601-32.603-85.549-32.619-118.19.015-3.758 3.758-8.176 6.482-13.133 8.123l-.102-.159c-2.517-3.933-2.196-9.042.785-12.432l.104-.116a7.5 7.5 0 0 0-.012-10.003c-2.495-2.782-3.869-6.353-3.869-10.053s1.374-7.271 3.869-10.053a7.5 7.5 0 0 0 .001-10.015 15.05 15.05 0 0 1-3.87-10.054c0-3.701 1.374-7.271 3.869-10.053a7.5 7.5 0 0 0 0-10.016 15.034 15.034 0 0 1 0-20.105 7.5 7.5 0 0 0 .001-10.015c-2.35-2.622-3.485-6.064-3.28-9.622 5.11 2.079 10.864 2.408 16.428.708a83 83 0 0 0 14.214-5.84c2.559 1.264 4.315 4.028 4.315 7.136v51.773c0 12.317 9.96 22.498 22.542 22.498 12.581 0 22.458-10.322 22.458-22.892v-25.774c0-4.135 3.364-7.498 7.5-7.498 3.743 0 7.095 2.639 7.5 8.041v1.231c0 11.716 8.586 21.498 19.972 22.755 13.475 1.481 25.028-9.048 25.028-22.361v-19.64c.206-2.961 1.219-5.382 3.755-6.951 25.75 4.297 53.136-3.445 72.962-23.272 13.087-13.085 34.383-13.089 47.479.014 32.146 32.14 83.581 32.353 116.088 1.986v19.136c0 12.577 9.884 22.892 22.458 22.892 12.583 0 22.542-10.181 22.542-22.498v-25.334a33.6 33.6 0 0 1 4.579 3.818c9.637 9.635 21.591 16.821 34.568 20.782 5.351 1.635 11.087 1.457 16.425-.715.207 3.56-.928 7.004-3.28 9.628a7.5 7.5 0 0 0 .002 10.014 15.033 15.033 0 0 1-.001 20.105 7.5 7.5 0 0 0 .001 10.017 14.995 14.995 0 0 1 0 20.104 7.5 7.5 0 0 0 0 10.017 14.994 14.994 0 0 1 0 20.104c-2.562 2.856-2.498 7.251.073 10.099 2.841 3.213 3.457 8.265.643 12.599-4.938-1.647-9.343-4.375-13.091-8.124-32.601-32.608-85.553-32.613-118.188.014"/></svg>