<svg xmlns="http://www.w3.org/2000/svg" width="512" height="512"><path fill="#e8b5b1" d="M152.233 419.767H444.38c53.454 0 80.224-64.629 42.426-102.426L194.659 25.194C156.861-12.604 92.233 14.166 92.233 67.62v292.147c0 33.138 26.862 60 60 60"/><path fill="#70dcba" d="M426.402 239.793c-15.88-12.068-24.046-31.845-21.329-51.542 6.522-47.3-33.953-87.858-81.324-81.325L194.34 124.261l40 145.126L402.484 437.53a72.3 72.3 0 0 0 2.59-31.349c-2.721-19.733 5.469-39.491 21.329-51.543 38.089-28.947 38.04-85.935-.001-114.845"/><path fill="#30cd9c" d="M323.75 106.927c-19.733 2.722-39.49-5.469-51.542-21.329-28.947-38.088-85.936-38.04-114.844 0-12.053 15.859-31.811 24.049-51.544 21.328a72.3 72.3 0 0 0-31.35 2.59l102.232 102.232 57.639 57.639V214.15c0-52.642 37.624-97.762 89.409-107.223"/><path fill="#ea5b70" d="M326.779 185.221c-55.324-55.325-139.31-64.5-204.155-27.551L354.33 389.377c36.949-64.845 27.773-148.831-27.551-204.156"/><path fill="#ff8e9e" d="M206.657 180.465c33.356 0 64.716 12.99 88.302 36.576 23.586 23.587 36.576 54.946 36.576 88.303 0 17.718-3.666 34.874-10.637 50.601L156.056 191.103c15.726-6.972 32.882-10.638 50.601-10.638"/><path fill="#f2d4d3" d="M402.073 402.074 146.449 146.449H56.227l-.283 339.875L145.72 504.5h213.927c53.454 0 80.224-64.628 42.426-102.426"/><path fill="#e8b5b1" d="m95.943 406.324.283-161.804a121.28 121.28 0 0 1 50.223-98.071l-36.523-36.523C72.128 72.128 7.5 98.898 7.5 152.353V444.5c0 33.137 26.863 60 60 60h78.22l-.709-.525a121.28 121.28 0 0 1-49.068-97.651"/><ellipse cx="112.927" cy="277.411" fill="#ff8e9e" rx="23.515" ry="29.529" transform="rotate(-44.88 112.844 277.238)"/><ellipse cx="234.341" cy="399.321" fill="#ff8e9e" rx="23.515" ry="29.529" transform="rotate(-44.88 234.177 399.073)"/><path d="m492.109 312.037-31.44-31.44c-3.951-18.606-14.43-35.148-29.729-46.775-13.724-10.429-20.788-27.498-18.437-44.547 7.211-52.277-37.47-96.987-89.78-89.777-17.043 2.356-34.114-4.712-44.544-18.438-11.624-15.294-28.165-25.772-46.774-29.728L199.963 19.89C186.249 6.178 170.679 0 152.612 0c-34.605 0-67.88 26.753-67.88 68.274 0 9.736 15 10.418 15-.654 0-47.127 56.68-70.068 89.623-37.122l19.297 19.297c-22.376 1.699-43.228 12.799-57.261 31.266-9.769 12.856-25.528 19.888-41.537 18.723C66.48 64.503 0 94.989 0 152.354V444.5C0 481.893 30.335 512 67.5 512h292.147c18.581 0 35.746-7.181 48.333-20.22a7.5 7.5 0 0 0-10.792-10.417c-6.887 7.134-18.99 15.638-37.541 15.638H67.5C38.253 497 15 472.911 15 444.5V152.354c0-47.335 56.86-69.886 89.623-37.123L396.77 407.378c14.32 14.32 18.539 33.499 13.412 51.38a7.5 7.5 0 1 0 14.42 4.134c3.304-11.531 3.608-23.759.468-35.625h19.31c41.001 0 67.62-33.766 67.62-68.749 0-16.018-6.343-32.933-19.891-46.481m-129.814 39.651-24.982-24.982c6.584-40.749-5.656-83.574-37.05-114.969a7.5 7.5 0 0 0-10.607 10.607c24.044 24.044 36.366 56.718 34.116 90.82L198.836 188.229c2.605-.172 5.215-.264 7.822-.264 4.143 0 7.5-3.357 7.5-7.5s-3.357-7.5-7.5-7.5c-7.146 0-14.313.583-21.363 1.723l-24.982-24.981c56.762-16.859 118.899-1.446 161.163 40.819s57.678 104.402 40.819 161.162m11.912 11.913c22.215-64.003 5.948-135.609-42.124-183.683-48.074-48.072-119.677-64.34-183.683-42.125l-23.88-23.88c15.238-2.781 29.221-11.154 38.814-23.776 25.938-34.132 77.024-34.051 102.902 0 13.701 18.03 36.13 27.313 58.537 24.221 42.421-5.852 78.728 30.407 72.871 72.869-3.09 22.406 6.19 44.837 24.22 58.539 34.121 25.931 34.054 77.023 0 102.9-12.623 9.594-20.991 23.583-23.773 38.819zm70.173 48.667h-25.33a68 68 0 0 0-6.834-10.122c-1.17-16.009 5.868-31.766 18.724-41.537 18.464-14.032 29.565-34.884 31.266-57.261l19.296 19.296c33.072 33.071 9.701 89.624-37.122 89.624"/><circle cx="122.038" cy="460.031" r="7.5"/><circle cx="72.038" cy="420.031" r="7.5"/><circle cx="142.038" cy="400.031" r="7.5"/><circle cx="212.038" cy="440.031" r="7.5"/><circle cx="312.038" cy="470.031" r="7.5"/><circle cx="312.038" cy="380.031" r="7.5"/><circle cx="382.038" cy="440.031" r="7.5"/><circle cx="192.038" cy="250.031" r="7.5"/><circle cx="102.038" cy="230.031" r="7.5"/><circle cx="122.038" cy="170.031" r="7.5"/><circle cx="42.038" cy="150.031" r="7.5"/><circle cx="42.038" cy="340.031" r="7.5"/><circle cx="62.038" cy="270.031" r="7.5"/><path d="m138.753 291.423 8.485-8.485a7.5 7.5 0 0 0-10.607-10.607l-8.485 8.485a7.5 7.5 0 0 0 10.607 10.607M232.619 395.423a7.5 7.5 0 0 0 10.607 0c8.346-8.347 8.346-21.927 0-30.273-8.348-8.346-21.926-8.346-30.273 0a7.5 7.5 0 0 0 10.607 10.607 6.41 6.41 0 0 1 9.059 0c1.21 1.21 1.877 2.818 1.877 4.529s-.667 3.319-1.877 4.529a7.5 7.5 0 0 0 0 10.608M200.005 363.823a7.5 7.5 0 0 0-10.607-10.607 6.95 6.95 0 0 1-9.836.001 6.965 6.965 0 0 1 0-9.838 7.5 7.5 0 0 0-.001-10.606 7.497 7.497 0 0 0-10.606.001 6.95 6.95 0 0 1-9.836 0 6.965 6.965 0 0 1 0-9.838 7.5 7.5 0 0 0-.001-10.606 7.497 7.497 0 0 0-10.606.001c-13.32 13.323-4.669 36.206 14.093 37.411 1.239 18.997 24.239 27.242 37.4 14.081"/></svg>