<svg xmlns="http://www.w3.org/2000/svg" width="512" height="512"><path fill="#9ea2e3" d="M482.026 7.5h-.003a22.76 22.76 0 0 0-16.097 6.668L90.85 389.262c-22.542-9.548-49.73-4.702-67.533 14.571-20.605 22.308-21.188 56.97-1.281 79.903 14.02 16.151 34.404 22.88 53.727 20.186 18.433-2.569 26.038-25.053 12.878-38.213-5.655-5.659-12.081-7.435-18.924-6.39-14.066 2.149-22.744-14.633-13.384-24.91 5.793-6.359 15.686-6.533 21.702-.519 8.788 8.789 23.037 8.789 31.825 0L497.9 45.831a22.45 22.45 0 0 0 6.576-15.877v-.004c0-12.399-10.051-22.45-22.45-22.45"/><path fill="#ea5b70" d="M186.606 261.754c-17.424-17.424-46.081-17.558-63.64 0l-1.213 1.213c-17.501 17.501-17.501 46.139 0 63.64l42.998 42.998 64.855-64.85z"/><path fill="#ff8e9e" d="M185.394 390.246c17.747 17.748 46.44 17.2 63.64 0l1.213-1.213c17.445-17.445 17.538-46.102 0-63.64l-20.64-20.64c-17.424-17.424-46.081-17.558-63.64 0l-1.213 1.213c-17.5 17.5-17.501 46.136-.002 63.637 11.361 11.363 20.547 20.548 20.642 20.643"/><path fill="#fce3a0" d="m403.437 260.231-25.101-25.101-74.859-74.859h-56.499V219.2c0 46.886 38.008 84.895 84.895 84.895 25.164-.837 50.075-9.511 70.713-26.036 5.543-4.441 5.901-12.778.851-17.828"/><path fill="#ffce71" d="M269.392 226.799c-.172-25.995 12.538-51.112 34.084-66.528l-27.447-27.447-25.101-25.101c-5.05-5.05-13.388-4.692-17.827.853-37.688 47.067-34.548 116.358 9.289 160.194 24.615 24.615 57.256 36.396 89.482 35.325-36.748-8.293-62.239-40.869-62.48-77.296"/><path fill="#ffce71" d="M303.477 160.271h-34.119v66.528a73 73 0 0 0 6.949 8.054c28.207 28.206 73.976 28.331 102.029.277l-27.447-27.447-37.413-10z"/><path fill="#ffb357" d="m303.477 160.271-27.447-27.447c-25.514 25.514-27.682 65.735-6.637 94.023-.315-26.139 12.527-51.153 34.084-66.576"/><path fill="#ffb357" d="m350.889 207.683-47.412-47.413c-11.699 13.129-11.201 33.288 1.461 45.951s32.822 13.16 45.951 1.462"/><path fill="#70dcba" d="m483.058 122.516-10.42-44.397a52.05 52.05 0 0 0-38.78-38.779l-16.322-3.832h-36.797v97.739c0 29.399 23.832 53.231 53.231 53.231 31.718-.844 56.843-30.923 49.088-63.962"/><path fill="#30cd9c" d="m399.285 146.76-11.274-48.034c-6.328-26.961 7.583-52.097 29.525-63.218l-28.075-6.59c-37.612-8.828-71.395 24.954-62.566 62.567l10.42 44.397a52.05 52.05 0 0 0 38.779 38.779l44.397 10.421a52.8 52.8 0 0 0 13.479 1.396c-17.274-6.612-30.385-21.396-34.685-39.718"/><path d="m367.96 59.141-8.485 8.485a7.5 7.5 0 0 0 10.607 10.607l8.485-8.485a7.5 7.5 0 0 0-10.607-10.607M442.275 133.457l-8.485 8.485a7.5 7.5 0 0 0 10.607 10.607l8.485-8.485a7.5 7.5 0 0 0-10.607-10.607M413.316 113.995c-8.698.591-15.885-6.601-15.287-15.287a7.5 7.5 0 0 0-6.968-7.997 7.494 7.494 0 0 0-7.997 6.968c-1.218 17.726 13.466 32.495 31.279 31.281 4.132-.283 7.252-3.863 6.969-7.996s-3.869-7.246-7.996-6.969"/><path d="M512 29.95C512 13.436 498.564 0 482.047 0c-8.084 0-15.685 3.148-21.401 8.864l-23.551 23.553c-1.476-.386 2.667.598-45.896-10.801-43.084-10.103-81.671 28.597-71.582 71.583 11.391 48.533 10.414 44.424 10.801 45.9l-18.74 18.741-55.417-55.42c-8.285-8.285-21.877-7.487-28.99 1.47a125.6 125.6 0 0 0-20.819 37.82c-7.305 21.26-8.844 44.089-4.58 66.109a128 128 0 0 0 7.05 23.79 127.5 127.5 0 0 0 9.765 19.228l-16.193 16.194-10.584-10.581c-18.245-18.245-51.459-22.782-75.46 1.213-20.47 20.47-20.47 53.777 0 74.247l10.584 10.584c-38.712 38.707-29.409 29.419-38.044 38.035-19.355-6.486-41.471-4.147-59.53 8.16a7.5 7.5 0 0 0-1.96 10.431c2.265 3.342 6.901 4.343 10.42 1.97 14.977-10.239 33.939-11.741 50.03-4.92 2.745 1.15 5.995.624 8.229-1.61l41.456-41.465 21.22 21.22-54.275 54.275c-5.866 5.846-15.345 5.856-21.221 0-8.883-8.926-23.755-8.894-32.55.77-8.028 8.734-7.669 21.957.3 30.57 8.674 9.474 19.618 6.6 22.271 6.6 7.644.163 14.34 6.846 14.399 14.95 0 7.111-4.947 13.853-13.029 15.021C42.292 500.89 15 475.794 15 444.54c0-8.33 1.979-16.62 5.729-23.98 1.862-3.643.475-8.176-3.27-10.09a7.487 7.487 0 0 0-10.09 3.28C2.55 423.2 0 433.85 0 444.54-.023 482.03 30.437 512 67.38 512c3.187 0 6.327-.219 9.43-.65 15.468-2.111 25.96-15.273 25.96-29.87.089-16.434-13.905-29.95-29.13-29.95-5.032 0-8.063 1.82-11.54-1.8-2.193-2.34-3.377-6.706-.21-10.26a7.515 7.515 0 0 1 10.87-.28c11.623 11.667 30.659 11.775 42.43 0l54.266-54.275 10.635 10.634c19.998 19.998 52.981 21.267 75.46-1.212 20.277-20.279 20.598-53.647 0-74.247l-10.632-10.632 16.379-16.38c22.897 13.901 49.649 20.287 76.583 18.192 4.054-.304 7.225-3.868 6.89-8.06-.319-4.08-3.979-7.21-8.06-6.891-32.119 2.535-64.702-8.574-88.99-32.85-41.457-41.476-43.765-106.455-8.74-150.21 1.674-2.074 4.787-2.113 6.67-.23l20.037 20.037c-25.905 31.269-23.949 77.827 5.313 107.094 23.137 23.104 57.338 29.422 86.439 17.63a78.4 78.4 0 0 0 20.65-12.32c10.71 10.71 6.015 6.017 20.07 20.06 1.906 1.93 1.79 5.026-.24 6.681a111 111 0 0 1-33.73 18.47c-3.91 1.317-6.021 5.582-4.689 9.51 1.358 3.984 5.656 6.008 9.52 4.69 13.92-4.73 26.8-11.78 38.28-20.97 8.976-7.167 9.71-20.752 1.46-28.98-15.334-15.35 1.807 1.801-54.657-54.663l18.707-18.708c1.455.384-2.364-.526 45.992 10.825 43.037 10.102 81.676-28.576 71.582-71.582-11.353-48.375-10.435-44.517-10.825-45.996l23.669-23.67C508.885 45.479 512 37.956 512 29.95M244.942 383.729c-16.649 16.649-40.141 15.321-54.245 1.213l-63.64-63.64c-14.622-14.621-14.622-38.411-.001-53.032 17.4-17.396 40.747-14.714 54.246-1.213l63.64 63.64c14.622 14.621 14.622 38.411 0 53.032m3.818-99.328-14.449 14.45-21.213-21.213 14.363-14.364a130 130 0 0 0 9.648 10.795c3.7 3.7 7.59 7.143 11.651 10.332m90.298-77.963c-9.534 4.146-21.042 2.256-28.817-5.52-7.776-7.777-9.664-19.284-5.519-28.817zm-57.449 23.112c-23.868-23.889-24.924-60.957-5.251-85.812l17.266 17.267c-9.777 15.849-7.651 36.858 6.009 50.52 13.617 13.618 34.604 15.835 50.524 6.013l17.26 17.26c-25.245 19.964-62.242 18.315-85.808-5.248m61.887-39.889-21.213-21.213 14.328-14.328a58.9 58.9 0 0 0 21.198 21.228zm78.733-11.881-44.396-10.421c-16.581-3.892-29.3-16.609-33.192-33.191l-10.42-44.396c-7.565-32.228 21.394-61.101 53.551-53.552l44.397 10.422c16.581 3.892 29.299 16.609 33.191 33.19l10.42 44.397c7.565 32.229-21.395 61.101-53.551 53.551M492.62 40.528l-19.276 19.278a58.9 58.9 0 0 0-21.23-21.196l19.138-19.139A15.17 15.17 0 0 1 482.05 15c8.243 0 14.95 6.707 14.95 14.955 0 3.994-1.556 7.75-4.38 10.573"/></svg>