<svg xmlns="http://www.w3.org/2000/svg" width="512" height="512"><path fill="#e8b5b1" d="M415.584 28.268 228.39 35.762C220.388 36.083 214 42.67 214 50.75s6.388 14.667 14.39 14.988l187.194 7.494C428.396 73.746 439 63.506 439 50.75s-10.604-22.996-23.416-22.482"/><path fill="#ffce71" d="M256 208.739c-21.466-14.396-47.268-22.806-75-22.806-74.439 0-135 60.561-135 135h270c0-46.707-23.846-87.946-60-112.194"/><path fill="#fce3a0" d="M181 215.934c-57.897 0-105 47.103-105 105h210c0-57.897-47.103-105-105-105"/><path fill="#ffce71" d="M181 245.934c-41.355 0-75 33.645-75 75h150c0-29.509-17.131-55.09-41.969-67.326-9.971-4.912-21.184-7.674-33.031-7.674"/><path fill="#fce3a0" d="M181 275.934c-24.813 0-45 20.187-45 45h90c0-24.813-20.187-45-45-45"/><path fill="#70dcba" d="M256 195.43c0-44.693-36.23-78.723-80.923-78.723h-17.194l-10 12.297v76.486L256 253.608z"/><path fill="#30cd9c" d="M185.307 182.915a93.63 93.63 0 0 1-27.424-66.208c-10.541 0-20.431 4.761-26.322 12.462-3.475 4.543-5.561 10.109-5.561 16.328v25.632c0 45.364 37.115 82.479 82.479 82.479H256z"/><path fill="#fce3a0" d="M301 7.5c-8.284 0-15 6.716-15 15l-20 64.167 20 122.073h30l20-121.406L316 22.5c0-8.284-6.716-15-15-15"/><path fill="#ffce71" d="M271 7.5c-8.284 0-15 6.716-15 15v186.239h30V22.5c0-8.284-6.716-15-15-15"/><path fill="#fff1d4" d="M331 7.5c-8.284 0-15 6.716-15 15v186.239h30V22.5c0-8.284-6.716-15-15-15"/><path fill="#fff1d4" d="M331 185.934c-27.732 0-53.534 8.409-75 22.806a136.04 136.04 0 0 0-41.969 44.869C202.572 273.437 196 296.431 196 320.934h270c0-74.44-60.561-135-135-135"/><path fill="#fce3a0" d="M331 215.934c-57.897 0-105 47.103-105 105h210c0-57.897-47.103-105-105-105"/><path fill="#fff1d4" d="M331 245.934c-41.355 0-75 33.645-75 75h150c0-41.355-33.645-75-75-75"/><path fill="#fce3a0" d="M331 275.934c-24.813 0-45 20.187-45 45h90c0-24.813-20.187-45-45-45"/><path fill="#efedff" d="m301.49 365.934-188.725 30v88.551l99.933 20.015H355.54c42.155 0 81.886-20.319 106.071-54.847a250.2 250.2 0 0 0 28.605-53.72z"/><path fill="#70dcba" d="M472.171 305.934H142.512c-16.428 0-29.746 13.318-29.746 29.746v60.254h377.451a249 249 0 0 0 13.935-53.085c2.869-19.464-12.306-36.915-31.981-36.915"/><path fill="#d4d4ff" d="m131.784 395.934-53.12-30-56.88 30a250.2 250.2 0 0 0 28.605 53.72C74.574 484.181 114.305 504.5 156.46 504.5h56.237c-36.04-27.868-64.288-65.341-80.913-108.566"/><path fill="#30cd9c" d="M149.829 305.934h-110c-19.675 0-34.85 17.451-31.979 36.915a249 249 0 0 0 13.935 53.085h110a249 249 0 0 1-13.935-53.084c-2.871-19.465 12.304-36.916 31.979-36.916"/><g fill="#ff8e9e"><path d="M170.404 434.531c-16.133-.05-29.245 10.324-29.285 23.172s13.006 23.304 29.139 23.354 29.245-10.323 29.285-23.171-13.006-23.304-29.139-23.355M342.742 435.027c-16.133-.05-29.244 10.324-29.285 23.172-.04 12.848 13.006 23.304 29.139 23.354s29.245-10.324 29.285-23.171c.04-12.848-13.006-23.304-29.139-23.355"/></g><path fill="#d6948c" d="M415.584 58.268 228.39 65.762C220.388 66.083 214 72.67 214 80.75s6.388 14.667 14.39 14.988l187.194 7.494C428.396 103.746 439 93.506 439 80.75s-10.604-22.996-23.416-22.482"/><path d="M199.5 443.043v-10a7.5 7.5 0 0 0-15 0v10a7.5 7.5 0 0 0 15 0M327.5 443.043v-10a7.5 7.5 0 0 0-15 0v10a7.5 7.5 0 0 0 15 0M279.266 454.278a7.5 7.5 0 0 0-3.531-10.001 7.5 7.5 0 0 0-10.001 3.531c-3.644 7.62-14.817 7.635-18.468 0a7.5 7.5 0 0 0-13.532 6.47c9.056 18.939 36.449 18.996 45.532 0"/><path d="M471.694 298.445a142.2 142.2 0 0 0-25.587-61.407 7.5 7.5 0 0 0-10.48-1.629 7.5 7.5 0 0 0-1.629 10.48 127.24 127.24 0 0 1 22.499 52.556h-15.292c-4.901-24.002-17.599-45.9-36.243-62.202a112.35 112.35 0 0 0-73.963-27.798c-53.843 0-99.625 38.187-110.206 90h-15.289c10.731-60.419 63.268-105 125.495-105 30.84 0 60.635 11.217 83.894 31.585a7.5 7.5 0 0 0 9.883-11.285 142.43 142.43 0 0 0-71.276-33.506v-71.987l61.784 2.473c17.018.679 31.216-12.867 31.216-29.976 0-5.372-1.403-10.505-4.023-15.014 11.768-20.362-3.534-45.938-27.193-44.961L353.5 23.248V22.5C353.5 10.094 343.522 0 331 0a22.4 22.4 0 0 0-15 5.748C312.016 2.177 306.758 0 301 0s-11.016 2.177-15 5.748C282.016 2.177 276.202 0 271 0c-12.406 0-22.5 10.094-22.5 22.5v4.951l-20.41.816a22.434 22.434 0 0 0-21.59 22.482 22.42 22.42 0 0 0 5.726 15 22.42 22.42 0 0 0-5.726 15 22.433 22.433 0 0 0 21.59 22.482l20.41.817v42.716c-15.75-22.822-42.496-37.558-73.424-37.558h-17.193c-21.716 0-39.383 16.279-39.383 36.29v25.632c0 7.101.83 14.01 2.392 20.641-42.967 20.037-73.157 60.003-80.588 106.676h-.476C17.867 298.445 0 316.242 0 338.117c0 9.895 7.972 64.063 44.247 115.851 9.725 13.884 21.842 25.694 36.016 35.104a7.5 7.5 0 0 0 10.396-2.1 7.5 7.5 0 0 0-2.1-10.396c-12.606-8.369-23.382-18.87-32.027-31.213-9.206-13.143-17.071-27.22-23.501-41.917h445.937c-6.43 14.698-14.295 28.774-23.501 41.917C432.819 477.696 395.463 497 355.54 497H156.46a122.8 122.8 0 0 1-42.761-7.651 7.5 7.5 0 0 0-5.208 14.067 137.7 137.7 0 0 0 47.969 8.585h199.08c44.812 0 86.761-21.694 112.213-58.032C501.406 405.924 512 352.183 512 338.118c0-19.637-17.204-39.673-40.306-39.673M278.5 188.492a142 142 0 0 0-15 6.999V104.65l15 .601zm30-8.258a142 142 0 0 0-15 3.244V105.85l15 .601zm30-1.583a137 137 0 0 0-15-.001v-71.598l15 .6zm15-140.391 62.385-2.497c9.941-.429 17.67 8.879 15.13 18.726-4.753-2.643-10.152-3.941-15.73-3.714L353.5 53.248zm-30-15.76c0-4.136 3.364-7.5 7.5-7.5s7.5 3.364 7.5 7.5v31.348l-15 .6zm-30 0c0-4.136 3.364-7.5 7.5-7.5s7.5 3.364 7.5 7.5v32.549l-15 .601zm-30 0c0-4.136 3.364-7.5 7.5-7.5s7.5 3.364 7.5 7.5v33.75l-15 .6zm-34.811 20.756 19.811-.792v14.987l-19.815.793a7.474 7.474 0 0 1-7.185-7.494 7.474 7.474 0 0 1 7.189-7.494m0 44.988c-4.031-.161-7.189-3.453-7.189-7.494s3.158-7.333 7.189-7.494c.489-.02 187.328-7.506 187.817-7.506 13.515 0 20.055 16.529 10.384 25.818-2.972 2.854-6.869 4.339-11.006 4.169h-.001zM331 223.445c45.236 0 84.573 31.685 94.866 75h-15.504c-9.96-35.108-42.39-60-79.361-60s-69.401 24.892-79.361 60h-15.504c10.291-43.315 49.628-75 94.864-75m0 45c-20.361 0-38.785 11.859-47.412 30h-16.223c9.41-26.549 34.84-45 63.635-45s54.226 18.451 63.635 45h-16.223c-8.627-18.14-27.051-30-47.412-30m29.971 30h-59.943c6.968-9.259 18.002-15 29.971-15s23.004 5.742 29.972 15M133.5 145.497c0-13.15 12.656-21.29 24.383-21.29h17.193c41.172 0 73.424 31.285 73.424 71.223v9.392a142 142 0 0 0-16.724 13.956L183 170.001a7.5 7.5 0 0 0-10.606 10.607l49.175 49.175a143 143 0 0 0-11.775 16.325c-44.885 0-76.292-35.378-76.292-74.979v-25.632zm.088 152.948H117.38c8.522-23.916 30.269-41.579 55.835-44.539a89.3 89.3 0 0 0 28.604 6.955 142 142 0 0 0-4.313 10.276c-25.767-8.545-52.818 3.968-63.918 27.308m59.417-13.012a142 142 0 0 0-2.71 13.013h-39.266c9.782-12.999 26.742-18.21 41.976-13.013m-91.37 13.012H86.138c7.024-29.688 27.651-54.48 55.795-66.815a90.7 90.7 0 0 0 12.373 11.294c-25.197 8.722-45.25 29.472-52.671 55.521m23.955-92.308a90 90 0 0 0 6.996 13.28c-31.827 15.195-54.763 44.435-61.804 79.029H55.501c7.168-40.149 33.228-74.482 70.089-92.309m359.361 182.308H27.049C18.88 365.812 15 343.267 15 338.117c0-13.604 11.138-24.672 24.828-24.672h157.008l.018.001.021-.001h275.297c13.69 0 24.829 11.068 24.829 24.673 0 4.973-3.752 27.335-12.05 50.327"/></svg>