<svg xmlns="http://www.w3.org/2000/svg" width="512" height="512"><path fill="#d6948c" d="M479.543 167.003c17.535-36.331-7.084-78.584-47.037-81.526-3.016-40.361-45.597-64.487-81.539-47.045C328.342 5.16 278.654 5.12 256 38.43l-60 20.544v352.36h88.728c24.521 8.809 51.652-.178 66.24-21.63 35.997 17.467 78.524-6.715 81.538-47.044 39.807-2.933 64.635-45.069 47.038-81.528 33.255-22.628 33.295-71.473-.001-94.129"/><path fill="#ce857a" d="M256 38.43c-36.044-17.487-77.7 6.796-80.687 47.042-39.797 2.911-64.686 45.034-47.066 81.53-17.498 11.906-27.624 32.95-24.346 55.341-42.474-8.709-78.88 31.441-65.712 72.98-40.943 21.301-40.906 79.742.035 101.005-13.913 43.984 27.46 85.417 71.451 71.467 21.294 40.931 79.705 40.909 100.988 0 37.646 11.939 75.615-17.054 74.066-56.461C201.924 303.709 190.137 157.181 256 38.43"/><g fill="#ffdbe0"><path d="M177 280.786c-16.016 0-29 10.297-29 23s12.984 23 29 23 29-10.298 29-23-12.984-23-29-23M335 280.786c-16.016 0-29 10.297-29 23s12.984 23 29 23 29-10.298 29-23-12.984-23-29-23"/></g><path fill="#70dcba" d="M161.667 185.599c0-44.693-36.23-78.723-80.923-78.723H63.549l-10 12.297v76.486l108.118 48.118z"/><path fill="#30cd9c" d="M90.974 173.084a93.63 93.63 0 0 1-27.424-66.208c-10.541 0-20.431 4.761-26.322 12.462-3.475 4.543-5.561 10.109-5.561 16.328v25.632c0 45.364 37.115 82.479 82.479 82.479h47.521z"/><path fill="#ea5b70" d="M88.78 300.966c-5.858-5.857-15.354-5.858-21.213 0-5.858 5.857-5.858 15.355 0 21.213l12 12c5.857 5.857 15.355 5.857 21.213 0s5.858-15.355 0-21.213z"/><path fill="#30cd9c" d="M97.567 412.966c-5.857 5.858-5.858 15.354 0 21.213 5.857 5.858 15.355 5.858 21.213 0l12-12c5.857-5.857 5.857-15.355 0-21.213s-15.355-5.858-21.213 0z"/><path fill="#ea5b70" d="M205.688 352.573c-8.284 0-15 6.715-15 15-.001 8.284 6.715 15 15 15h16.971c8.284 0 15-6.716 15-15 .001-8.284-6.715-15-15-15z"/><path fill="#70dcba" d="M419.173 289.087c0-8.284-6.715-15-15-15-8.284-.001-15 6.715-15 15v16.971c0 8.284 6.716 15 15 15 8.284.001 15-6.715 15-15zM268.78 190.966c-5.858-5.857-15.354-5.858-21.213 0-5.858 5.857-5.858 15.355 0 21.213l12 12c5.857 5.857 15.355 5.857 21.213 0s5.858-15.355 0-21.213z"/><path fill="#30cd9c" d="M197.567 112.966c-5.857 5.858-5.858 15.354 0 21.213 5.857 5.858 15.355 5.858 21.213 0l12-12c5.857-5.857 5.857-15.355 0-21.213s-15.355-5.858-21.213 0z"/><path fill="#ea5b70" d="M385.688 132.573c-8.284 0-15 6.715-15 15-.001 8.284 6.715 15 15 15h16.971c8.284 0 15-6.716 15-15 .001-8.284-6.715-15-15-15z"/><path d="M186.407 269.162v12c0 4.143 3.357 7.5 7.5 7.5s7.5-3.357 7.5-7.5v-12c0-4.143-3.357-7.5-7.5-7.5s-7.5 3.357-7.5 7.5M326.407 281.162v-12c0-4.143-3.357-7.5-7.5-7.5s-7.5 3.357-7.5 7.5v12c0 4.143 3.357 7.5 7.5 7.5s7.5-3.358 7.5-7.5M277.525 285.713a7.5 7.5 0 0 0-.728-10.581 7.5 7.5 0 0 0-10.581.728c-5.726 6.57-15.899 6.563-21.62-.001a7.5 7.5 0 1 0-11.309 9.855c11.729 13.454 32.571 13.39 44.238-.001"/><path d="M512 214.064c0-19.064-8.595-37.325-23.262-49.515 14.178-38.002-10.331-79.049-49.505-85.796-6.765-39.78-48.23-63.595-85.82-49.524-12.216-14.671-30.458-23.267-49.936-23.267-19.47 0-37.707 8.596-49.922 23.265-37.244-13.968-78.24 9.503-84.976 49.514-18.959 3.218-35.302 14.638-44.885 31.253-13.04-6.959-27.723-10.618-42.95-10.618H63.549c-21.163 0-39.382 15.564-39.382 36.289v25.633c0 5.682.541 11.376 1.608 16.926a7.5 7.5 0 0 0 14.73-2.834 74.7 74.7 0 0 1-1.339-14.092v-25.633c0-12.707 12.016-21.289 24.382-21.289h17.195c39.865 0 73.423 29.964 73.423 71.223v40.071l-65.5-65.5a7.5 7.5 0 0 0-10.606 10.607l65.499 65.499h-29.413c-26.8 0-50.456-14.27-63.747-35.656a7.5 7.5 0 1 0-12.74 7.918 90.5 90.5 0 0 0 15.354 18.6c-19.349 14.966-29.002 39.756-23.548 64.573C10.905 303.574 0 323.46 0 345.813c0 22.448 10.917 42.274 29.499 54.132-9.985 45.474 30.832 86.649 76.564 76.578 25.125 39.31 83.031 39.396 108.213-.006 37.435 8.186 73.29-18.022 77.579-55.475 22.929 4.403 46.517-4.02 61.562-22.135 17.324 6.488 36.343 5.08 52.506-3.49a7.5 7.5 0 0 0 3.112-10.14 7.5 7.5 0 0 0-10.14-3.112c-13.453 7.133-29.788 8.006-44.654.791a7.5 7.5 0 0 0-9.475 2.53c-12.647 18.592-36.164 26.457-57.503 18.789a7.5 7.5 0 0 0-6.969 1.009c-3.613 2.648-3.021 6.342-3.021 8.377 0 32.946-32.001 57.247-64.346 46.984a7.5 7.5 0 0 0-8.921 3.688c-18.523 35.603-69.17 35.581-87.682-.001a7.506 7.506 0 0 0-8.921-3.688c-38.006 12.06-74.12-23.829-62.032-62.057a7.5 7.5 0 0 0-3.694-8.918C24.974 380.996 15 364.6 15 345.813c0-18.767 9.963-35.153 26.651-43.836a7.5 7.5 0 0 0 3.688-8.92c-1.583-4.992-2.386-10.095-2.386-15.163 0-16.596 8.476-31.979 22.382-41.133 14.587 9.502 31.354 14.516 48.811 14.516h44.413l2.501 2.501a7.5 7.5 0 0 0 10.606-10.607l-2.5-2.5V185.6c0-26.55-12.175-51.292-32.861-67.425 8.073-14.492 22.762-23.993 39.554-25.221a7.5 7.5 0 0 0 6.933-6.925c2.626-35.37 38.759-55.974 69.934-40.85a7.5 7.5 0 0 0 9.476-2.53c9.372-13.781 24.416-21.686 41.275-21.686 16.867 0 31.916 7.904 41.288 21.687a7.5 7.5 0 0 0 9.477 2.529c31.581-15.328 68.21 6.396 70.784 40.856a7.5 7.5 0 0 0 6.929 6.921c34.007 2.506 56.307 38.729 40.834 70.787a7.5 7.5 0 0 0 2.534 9.46c13.775 9.374 21.676 24.268 21.676 40.861 0 16.599-7.9 31.495-21.675 40.868a7.5 7.5 0 0 0-2.534 9.46c15.497 32.111-6.856 68.285-40.835 70.788a7.5 7.5 0 0 0-6.929 6.921c-.61 8.179-3.06 15.761-7.277 22.535a7.5 7.5 0 0 0 12.734 7.928c4.43-7.114 7.364-14.891 8.758-23.183 39.051-6.728 63.736-47.663 49.499-85.796 14.667-12.189 23.26-30.281 23.26-49.521"/><path d="M78.174 289.073c-19.851 0-30.141 24.18-15.911 38.41l12 12c14.171 14.168 38.41 4.001 38.41-15.91a22.35 22.35 0 0 0-6.59-15.91c-11.964-11.964-16.464-18.59-27.909-18.59m11.999 42c-4.023 0-4.568-1.462-17.304-14.197-4.742-4.742-1.314-12.803 5.304-12.803 4.023 0 4.568 1.462 17.304 14.197a7.45 7.45 0 0 1 2.196 5.303c0 4.142-3.353 7.5-7.5 7.5M124.083 439.482l12-12c8.793-8.795 8.794-23.026 0-31.819-8.792-8.794-23.027-8.795-31.82-.001l-12 12v.001c-8.771 8.773-8.771 23.047 0 31.818 8.792 8.794 23.026 8.795 31.82.001m-21.213-21.214 12-12c4.742-4.742 12.803-1.315 12.803 5.304 0 4.023-1.462 4.568-14.197 17.304a7.494 7.494 0 0 1-10.605-.001c-2.926-2.924-2.925-7.682-.001-10.607M205.688 390.072h16.971c20.039 0 29.988-24.332 15.91-38.41a22.35 22.35 0 0 0-15.907-6.589h-16.974c-12.406 0-22.499 10.093-22.499 22.498-.002 12.432 10.058 22.501 22.496 22.501zm-7.5-22.5c0-4.135 3.364-7.499 7.499-7.499h16.972a7.493 7.493 0 0 1 7.499 7.499c0 4.136-3.364 7.5-7.5 7.5h-16.972a7.494 7.494 0 0 1-7.498-7.5M404.172 328.557h.003c12.436 0 22.5-10.064 22.498-22.5v-16.97c0-12.406-10.094-22.5-22.499-22.5-12.429 0-22.501 10.054-22.501 22.5v16.97c0 12.407 10.094 22.5 22.499 22.5m-7.499-39.469c0-4.145 3.352-7.5 7.499-7.5h.001c4.136 0 7.5 3.364 7.5 7.5v16.971a7.493 7.493 0 0 1-7.499 7.499h-.001c-4.136 0-7.5-3.364-7.5-7.5zM286.083 197.662l-12-12c-7.54-7.538-17.034-6.59-15.91-6.59-6.01 0-11.66 2.341-15.909 6.59-8.794 8.792-8.795 23.027-.001 31.82l12 12c8.792 8.79 23.026 8.794 31.819 0 8.794-8.792 8.795-23.026.001-31.82m-10.607 21.213a7.495 7.495 0 0 1-10.605 0l-12.001-12a7.494 7.494 0 0 1 .001-10.605 7.493 7.493 0 0 1 10.605 0l12.001 12a7.494 7.494 0 0 1-.001 10.605M224.083 139.482l12-12c8.793-8.795 8.794-23.026 0-31.819-8.792-8.794-23.027-8.795-31.82-.001l-12 12v.001c-8.771 8.773-8.771 23.047 0 31.818 8.792 8.794 23.026 8.795 31.82.001m-21.213-21.214 12-12a7.494 7.494 0 0 1 10.605.001 7.493 7.493 0 0 1 0 10.605l-12 12.001a7.494 7.494 0 0 1-10.605-.001c-2.925-2.923-2.924-7.681 0-10.606M385.685 170.072h16.974c12.406 0 22.5-10.094 22.5-22.499.002-12.431-10.059-22.5-22.497-22.5h-16.974c-12.406 0-22.499 10.093-22.499 22.498-.003 12.432 10.057 22.501 22.496 22.501m.003-29.999h16.972a7.493 7.493 0 0 1 7.499 7.499c0 4.136-3.364 7.5-7.5 7.5h-16.972a7.493 7.493 0 0 1-7.498-7.5c-.001-4.135 3.364-7.499 7.499-7.499"/><circle cx="297.103" cy="136.072" r="7.5"/><circle cx="377.103" cy="86.072" r="7.5"/><circle cx="297.103" cy="56.072" r="7.5"/><circle cx="337.103" cy="216.072" r="7.5"/><circle cx="447.103" cy="236.072" r="7.5"/><circle cx="307.103" cy="356.072" r="7.5"/><circle cx="137.103" cy="366.072" r="7.5"/><circle cx="187.103" cy="436.072" r="7.5"/><circle cx="47.103" cy="346.072" r="7.5"/><circle cx="117.103" cy="276.072" r="7.5"/></svg>