<svg xmlns="http://www.w3.org/2000/svg" width="512" height="512"><path fill="#ff8e9e" d="M284.379 9.123 236 17.502l20 50.015c.405 0 .806-.015 1.211-.013 102.774.649 186.634 84.509 187.285 187.282.218 34.431-8.849 66.765-24.833 94.651-4.931 8.602-16.654 10.223-23.665 3.212L238.471 195.121h-24.399l.21 52.591 11.076 19.149 128.458 128.458c6.982 6.982 5.4 18.639-3.128 23.615-27.84 16.246-60.195 25.561-94.687 25.561l-20 50.002 48.38 8.38C408.255 488.791 504.5 383.644 504.5 256S408.255 23.209 284.379 9.123"/><path fill="#ea5b70" d="M280.6 499.497a73.79 73.79 0 0 1-24.6-55.002c-1.346 0-2.693-.009-4.045-.038-100.58-2.12-182.293-83.835-184.412-184.414-.759-36.007 8.644-69.804 25.523-98.73 4.977-8.529 16.633-10.111 23.615-3.128l108.677 108.676c-.921-5.863-1.422-11.799-1.422-17.78 0-19.802 5.222-38.001 14.534-53.959l-79.115-79.115c-6.992-6.992-5.423-18.717 3.154-23.637C190.078 76.553 222.002 67.517 256 67.517v-.012a73.79 73.79 0 0 1 24.6-55.002l3.779-3.38A250 250 0 0 0 256 7.5C118.757 7.5 7.5 118.757 7.5 256c0 138.325 112.75 248.5 248.527 248.5 9.35 0 18.811-.538 28.353-1.623z"/><path fill="#b9f0ff" d="M302.833 175.732a85.23 85.23 0 0 1-8.996-38.107v-18.312h-70.356v145.19l56.387 56.387 52.394-52.394c-4.555-29.677-14.563-62.169-29.429-92.764"/><path fill="#efedff" d="M332.261 268.496H227.474l-30 20v59.208c0 34.958 28.338 63.296 63.296 63.296h27.768c20.834 0 38.519-15.765 41.431-36.395l2.683-18.788c4.095-29.011 4.04-58.45-.391-87.321"/><path fill="#7ce3ff" d="M218.181 119.312v18.312a85.2 85.2 0 0 1-8.996 38.107c-14.84 30.541-24.862 63.016-29.428 92.763l23.96 23.443 23.757-23.443c13.146-85.685 37.603-89.484 37.601-130.871v-18.312z"/><path fill="#d4d4ff" d="M228.913 374.605c-3.363-23.824-9.249-55.227-1.439-106.11h-47.717c-7.235 47.144-1.252 81.22 2.262 106.11h.06c2.912 20.63 20.568 36.395 41.402 36.395h46.895c-20.834 0-38.55-15.765-41.463-36.395"/><path fill="#9ea2e3" d="M218.181 101c-10.113 0-18.312 8.199-18.312 18.312s8.198 18.312 18.312 18.312h46.895v-36.625z"/><path fill="#d4d4ff" d="M293.456 101h-28.38c-10.114 0-18.312 8.199-18.312 18.312s8.199 18.312 18.312 18.312h28.765c10.283-.002 18.585-8.48 18.301-18.828-.274-9.973-8.709-17.796-18.686-17.796"/><path d="M184.87 215.766a845024 845024 0 0 1-62.885-62.885c-10.444-10.442-27.922-8.156-35.397 4.651-18.126 31.062-27.304 66.564-26.543 102.669 1.065 50.588 21.479 98.274 57.478 134.274 36.915 36.915 86.189 57.52 138.478 57.52 34.615 0 68.664-9.192 98.468-26.584 12.822-7.483 15.075-24.972 4.667-35.38l-20.801-20.8c2.95-20.008 4.99-37.209 4.812-58.827l47.549 47.547c10.487 10.49 28.07 8.132 35.475-4.784 17.114-29.855 26.046-63.891 25.827-98.429-.714-112.455-96.665-196.892-195.558-194.726l-.44.005c-34.131.001-67.75 8.938-97.223 25.846-12.881 7.391-15.207 24.967-4.726 35.446l49.209 49.21a539 539 0 0 1-3.118 6.917c-4.391 9.615-9.665 21.173-15.272 38.33m140.874 60.23c1.605 12.275 2.425 24.629 2.425 36.812 0 25.688-3.456 45.526-5.627 60.749-2.409 17.069-17.028 29.942-34.005 29.942H223.48c-16.959 0-31.565-12.873-33.975-29.942-2.007-14.216-5.65-35.392-5.65-61.479 0-12.077.794-24.059 2.386-36.082zm22.768 124.626c3.486 3.484 2.704 9.319-1.604 11.834-27.511 16.054-58.946 24.539-90.907 24.539-98.955 0-178.881-78.502-180.959-177.11-.702-33.34 7.771-66.118 24.502-94.792 2.501-4.285 8.327-5.114 11.835-1.605l68.587 68.588c-7.467 27.083-11.109 53.302-11.109 80.003 0 29.149 5.661 63.573 5.948 64.573 3.871 23.928 24.622 41.849 48.677 41.849h65.057c20.583 0 38.748-13.103 46-31.854 8.415 8.416 13.771 13.771 13.973 13.975m-183.854-289.92c-3.501-3.501-2.713-9.363 1.584-11.828C193.446 83.268 224.484 75.018 256 75.017q.348-.001.695-.008c91.987-1.693 179.648 76.611 180.301 179.825.202 31.891-8.042 63.313-23.841 90.873-2.485 4.336-8.352 5.141-11.854 1.637-2.661-2.66-28.866-28.864-59.177-59.176a303 303 0 0 0-2.45-20.81c-2.859-18.632-7.188-36.276-13.235-53.94a7.5 7.5 0 0 0-9.524-4.667 7.5 7.5 0 0 0-4.667 9.524 294 294 0 0 1 11.135 42.721h-134.74c1.798-9.592 4.1-19.246 6.935-29.034 6.666-23.018 13.066-37.033 18.209-48.295 5.99-13.114 10.532-23.081 11.633-38.542h61.229a92.7 92.7 0 0 0 3.881 20.065c1.391 4.464 3.836 9.876 6.931 16.728 1.251 2.77 2.61 5.777 4.037 9.03a7.5 7.5 0 0 0 9.881 3.855 7.5 7.5 0 0 0 3.855-9.881c-1.45-3.307-2.831-6.362-4.103-9.178-2.884-6.385-5.162-11.428-6.279-15.017a77.5 77.5 0 0 1-3.25-16.786c10.405-3.264 18.371-13.211 18.038-25.351-.38-13.834-12.126-25.09-26.185-25.09h-75.274c-14.232 0-25.812 11.579-25.812 25.812 0 11.545 7.621 21.344 18.095 24.633-.28 4.001-.841 7.551-1.646 10.917zm129.179 19.423h-75.655c-5.962-.001-10.812-4.851-10.812-10.812s4.85-10.812 10.812-10.812h75.274c6.011 0 11.03 4.711 11.189 10.503.169 6.166-4.776 11.121-10.808 11.121"/><path d="M209.407 322.533c4.143 0 7.5-3.357 7.5-7.5V304.29c0-4.143-3.357-7.5-7.5-7.5s-7.5 3.357-7.5 7.5v10.743a7.5 7.5 0 0 0 7.5 7.5M303.407 322.533c4.143 0 7.5-3.357 7.5-7.5V304.29c0-4.143-3.357-7.5-7.5-7.5s-7.5 3.357-7.5 7.5v10.743a7.5 7.5 0 0 0 7.5 7.5M275.905 319.624c2.722-3.123 2.396-7.86-.727-10.582s-7.86-2.396-10.582.727c-4.812 5.523-13.362 5.518-18.17 0a7.501 7.501 0 0 0-11.309 9.855c10.793 12.382 30.006 12.37 40.788 0"/><path d="M256 0C114.509 0 0 114.497 0 256c0 62.967 23.097 123.467 65.036 170.354a7.5 7.5 0 0 0 10.59.59 7.5 7.5 0 0 0 .59-10.59C36.74 372.221 15 315.271 15 256 15 123.112 123.112 15 256 15c133.677 0 241 108.102 241 241 0 133.006-107.43 241-240.974 241-58.521 0-115.046-21.369-159.162-60.17a7.5 7.5 0 0 0-10.585.679 7.5 7.5 0 0 0 .679 10.585C133.813 489.305 193.856 512 256.026 512 398.08 512 512 396.648 512 256 512 114.81 397.5 0 256 0"/></svg>