<svg xmlns="http://www.w3.org/2000/svg" width="512" height="512"><path fill="#e8b5b1" d="M285.934 7.5h-62.79c-16.568 0-30 13.432-30 30v103.002l61.395 20 61.395-20V37.5c0-16.568-13.432-30-30-30"/><path fill="#d6948c" d="m193.145 140.502-93.871 63.704c-18.004 12.218-28.918 33.482-28.918 56.341V400.2h245.579V140.502z"/><path fill="#f2d4d3" d="m412.169 204.292-96.236-63.791-93.871 63.704c-18.004 12.218-28.919 33.483-28.919 56.341v122.108l20 35.316h208.54l19.96-26.511V261.007c.002-23.109-11.152-44.569-29.474-56.715"/><g fill="#d6948c"><path d="M297.499 212.813c-2.301-2.297-5.471-3.521-8.716-3.316-13.322.843-29.637 4.022-37.714 12.1-10.593 10.593-10.171 27.118.174 37.464 10.394 10.395 27.168 10.47 37.464.174 8.262-8.262 11.331-24.37 12.123-37.734.192-3.237-1.036-6.396-3.331-8.688M315.423 269.649c-3.251.003-6.358 1.379-8.508 3.819-8.824 10.016-18.112 23.8-18.112 35.224 0 14.981 11.984 26.368 26.615 26.368 14.7.001 26.615-11.807 26.615-26.368 0-11.685-9.22-25.244-18.109-35.255-2.155-2.425-5.257-3.79-8.501-3.788M387.402 254.898c-.843-13.322-4.022-29.637-12.1-37.714-10.593-10.593-27.118-10.171-37.464.174-10.395 10.394-10.47 27.168-.174 37.464 8.262 8.263 24.37 11.331 37.734 12.123 3.238.192 6.397-1.036 8.689-3.331 2.296-2.301 3.52-5.471 3.315-8.716"/></g><path fill="#d4d4ff" d="M193.145 382.655a60.685 60.685 0 0 0-86.067 0c-10.279 10.279-23.31 16.12-36.722 17.545v74.3c0 16.568 13.431 30 30 30h122.789L236 479.714v-44.203z"/><path fill="#efedff" d="M366.364 382.655c-23.863-23.863-62.565-23.863-86.429 0-23.863 23.863-62.927 23.863-86.791 0V474.5c0 16.568 13.432 30 30 30h188.5c16.569 0 30-13.432 30-30v-83.039c-23.558 14.546-54.853 11.622-75.28-8.806"/><g fill="#ff8e9e"><path d="M238.395 432.839c-16.016 0-29 10.297-29 23s12.984 23 29 23 29-10.298 29-23-12.984-23-29-23M396.395 432.839c-16.016 0-29 10.297-29 23s12.984 23 29 23 29-10.298 29-23-12.984-23-29-23"/></g><path fill="#d4d4ff" d="M135.191 262.872a4.9 4.9 0 0 0-3.441-1.399 4.87 4.87 0 0 0-3.447 1.409c-11.719 11.618-27.947 32.143-27.947 48.543 0 17.672 14.136 31.103 31.395 31.104 17.34.001 31.394-13.928 31.394-31.104-.001-16.745-16.051-36.752-27.954-48.553"/><path d="m416.312 198.042-20.329-13.476c-3.451-2.29-8.106-1.345-10.395 2.107s-1.346 8.106 2.107 10.395l20.329 13.476c16.11 10.68 26.119 30.016 26.119 50.463v126.08c-19.848 10.242-45.291 7.454-62.478-9.735-26.815-26.813-70.22-26.813-97.035 0-20.339 20.341-53.017 20.834-73.987 2.068V260.547c0-20.502 9.581-39.244 25.631-50.135l89.707-60.88 46.709 30.961a7.497 7.497 0 0 0 10.395-2.107 7.5 7.5 0 0 0-2.107-10.395l-47.545-31.516V37.5c0-20.678-16.822-37.5-37.5-37.5h-62.789c-20.678 0-37.5 16.822-37.5 37.5v99.027L95.062 198c-20.166 13.686-32.206 37.067-32.206 62.547v37.586c0 4.143 3.357 7.5 7.5 7.5s7.5-3.357 7.5-7.5v-37.586c0-7.199 1.205-14.17 3.432-20.671h107.086a79.1 79.1 0 0 0-2.729 20.671v106.708c-25.913-15.883-60.683-13.09-83.869 10.096-6.746 6.746-14.905 11.442-23.92 13.848v-63.067c0-4.143-3.357-7.5-7.5-7.5s-7.5 3.357-7.5 7.5V474.5c0 20.678 16.822 37.5 37.5 37.5h311.289c20.678 0 37.5-16.822 37.5-37.5V261.007c0-25.8-12.274-49.339-32.833-62.965M223.145 15h62.789c12.406 0 22.5 10.094 22.5 22.5v95.502H200.645V37.5c0-12.406 10.093-22.5 22.5-22.5M88.885 224.876c3.947-5.638 8.849-10.562 14.6-14.464l91.964-62.41h96.076L217.852 198c-10.091 6.849-18.147 16.125-23.678 26.876zM77.855 474.5v-67.91c13.007-2.715 25.079-9.185 34.526-18.631 20.252-20.254 52.249-20.904 73.263-2.07V474.5a37.3 37.3 0 0 0 7.521 22.5h-92.81c-12.406 0-22.5-10.094-22.5-22.5m333.79 22.5h-188.5c-12.406 0-22.5-10.094-22.5-22.5v-76.467c25.838 15.779 61.219 13.3 84.595-10.074 20.948-20.95 54.869-20.952 75.82-.001 19.8 19.801 48.551 24.936 73.085 15.535V474.5c0 12.406-10.094 22.5-22.5 22.5"/><path d="M288.31 202.012c-11.269.713-31.78 3.517-42.544 14.282-13.406 13.402-13.234 34.663.173 48.07 13.339 13.341 34.838 13.406 48.072.176 10.352-10.353 13.493-28.877 14.307-42.607.657-11.154-8.675-20.614-20.008-19.921m-4.906 51.921c-7.354 7.352-19.367 7.319-26.858-.175-7.475-7.473-7.784-19.25-.174-26.857 6.643-6.645 24.788-9.926 33.114-9.926 2.09 0 3.863 1.774 3.863 3.865.001 8.379-2.978 26.125-9.945 33.093M315.418 342.561c18.811 0 34.114-15.193 34.114-33.868 0-14.639-10.877-29.96-20.001-40.234-7.48-8.426-20.789-8.411-28.243.053-7.464 8.472-19.985 24.956-19.985 40.182 0 18.99 14.985 33.867 34.115 33.867m-2.875-64.135c1.506-1.708 4.279-1.691 5.771-.009 10.307 11.606 16.218 22.642 16.218 30.275 0 10.404-8.574 18.868-19.114 18.868-10.719 0-19.115-8.288-19.115-18.868 0-7.409 6.071-18.723 16.24-30.266M380.604 211.88c-13.413-13.411-34.666-13.228-48.071.175-13.363 13.365-13.379 34.865-.174 48.07 10.35 10.352 28.875 13.494 42.607 14.309 9.769.576 19.921-6.607 19.921-20.009-.713-11.269-3.518-31.78-14.283-42.545m-4.762 47.579c-15.495-.919-27.478-4.542-32.875-9.94-7.461-7.458-7.196-19.488.174-26.856 7.507-7.509 19.278-7.755 26.857-.175 5.238 5.237 8.945 17.528 9.919 32.878.14 2.302-1.855 4.23-4.075 4.093M131.749 350.027h.005c21.494 0 38.891-17.267 38.891-38.604 0-21.628-21.101-44.883-30.173-53.878l-.032-.032c-4.83-4.729-12.607-4.73-17.417.042-7.077 7.016-30.167 31.634-30.167 53.868-.001 21.647 17.084 38.604 38.893 38.604m.004-79.968c11.875 12.219 23.892 28.949 23.892 41.365 0 13.02-10.66 23.604-23.892 23.604h-.003c-13.398 0-23.895-10.368-23.895-23.604 0-12.405 12.481-29.588 23.898-41.365M255.302 418.716a7.5 7.5 0 0 0-7.5 7.5v12c0 4.143 3.357 7.5 7.5 7.5s7.5-3.357 7.5-7.5v-12a7.5 7.5 0 0 0-7.5-7.5M380.302 418.716a7.5 7.5 0 0 0-7.5 7.5v12c0 4.143 3.357 7.5 7.5 7.5s7.5-3.357 7.5-7.5v-12a7.5 7.5 0 0 0-7.5-7.5M338.192 432.185a7.497 7.497 0 0 0-10.581.728c-5.726 6.57-15.899 6.563-21.62-.001a7.5 7.5 0 0 0-11.309 9.855c11.728 13.454 32.57 13.391 44.237-.001a7.497 7.497 0 0 0-.727-10.581"/></svg>