<svg xmlns="http://www.w3.org/2000/svg" width="512" height="512"><path fill="#ffce71" d="M496.695 477.793c3.345-15.525-6.344-33.668-25.919-36.865a26.352 26.352 0 0 0-42.054-23.629 29.86 29.86 0 0 0-27.327-17.812V504.5h88.949c14.402 0 19.991-19.407 6.351-26.707"/><path fill="#70dcba" d="M283.85 7.5h-58.419c-15.415 0-27.912 13.126-27.912 28.541v95.832l57.782 20 56.46-20V36.041C311.762 20.626 299.266 7.5 283.85 7.5"/><path fill="#30cd9c" d="M110.183 191.143c-16.751 11.367-26.906 31.152-26.906 52.419v46.197h228.484V131.873H197.52z"/><path fill="#b0ebd8" d="m401.299 191.223-89.537-59.35-87.336 59.269c-16.751 11.368-26.906 31.152-26.906 52.419v29.873l18.608 85.432h194.023l18.571-77.239V243.99c0-21.5-10.377-41.467-27.423-52.767"/><path fill="#fce3a0" d="M197.52 273.436a56.46 56.46 0 0 0-80.076 0c-9.563 9.562-21.688 14.997-34.166 16.323v186.829h154.114V340.312z"/><path fill="#fff1d4" d="M358.682 273.435c-22.202-22.202-58.21-22.202-80.413 0s-58.547 22.202-80.749 0V504.5h203.876c15.415 0 27.327-12.496 27.327-27.912v-194.96c-21.92 13.534-51.036 10.813-70.041-8.193"/><path fill="#ffce71" d="M205.904 477.793c3.345-15.525-6.344-33.668-25.919-36.865a26.352 26.352 0 0 0-42.054-23.629 29.86 29.86 0 0 0-27.327-17.812 29.86 29.86 0 0 0-27.327 17.812 26.35 26.35 0 0 0-28.734-1.901 26.35 26.35 0 0 0-13.32 25.53c-19.575 3.197-29.264 21.34-25.919 36.865-13.64 7.3-8.051 26.707 6.35 26.707h177.899c14.402 0 19.991-19.407 6.351-26.707"/><path d="M255.302 234.716c4.143 0 7.5-3.357 7.5-7.5v-12c0-4.143-3.357-7.5-7.5-7.5s-7.5 3.357-7.5 7.5v12a7.5 7.5 0 0 0 7.5 7.5M380.302 234.716c4.143 0 7.5-3.357 7.5-7.5v-12c0-4.143-3.357-7.5-7.5-7.5s-7.5 3.357-7.5 7.5v12a7.5 7.5 0 0 0 7.5 7.5M338.92 227.766a7.5 7.5 0 0 0-.728-10.581 7.497 7.497 0 0 0-10.581.728c-5.726 6.57-15.899 6.563-21.62-.001a7.5 7.5 0 0 0-11.309 9.855c11.729 13.454 32.57 13.39 44.238-.001"/><path d="M504.75 474.308c1.175-16.242-8.703-33.461-26.515-39.27-2.031-20.513-21.871-34.591-42.013-29.462V390.71c0-4.143-3.357-7.5-7.5-7.5s-7.5 3.357-7.5 7.5v85.878c0 11.255-9.157 20.412-20.412 20.412H220.136c2.633-8.197.365-16.912-6.178-22.692.729-10.07-2.698-19.979-8.938-27.434V288.67c24.211 14.307 56.916 11.707 78.554-9.931 19.288-19.288 50.515-19.289 69.805-.001 18.498 18.502 45.147 23.232 67.845 14.841v67.058c0 4.143 3.357 7.5 7.5 7.5s7.5-3.357 7.5-7.5V243.99c0-24.18-11.507-46.243-30.78-59.019l-86.181-57.125V36.041C319.262 16.168 303.376 0 283.851 0h-58.419c-19.526 0-35.412 16.168-35.412 36.041v91.857l-22.656 15.375a7.5 7.5 0 0 0 8.424 12.412l24.038-16.312h87.529l-67.139 45.563c-18.907 12.83-30.195 34.746-30.195 58.625v14.618c-24.325-14.43-56.462-11.466-77.878 9.952-6.046 6.046-13.323 10.312-21.364 12.577v-37.147c0-18.901 8.829-36.178 23.618-46.213l36.568-24.816a7.5 7.5 0 0 0-8.424-12.412l-36.567 24.816c-18.907 12.83-30.195 34.746-30.195 58.625v162.008a33.7 33.7 0 0 0-8.326-1.051 33.9 33.9 0 0 0-16.581 4.341 33.9 33.9 0 0 0-17.106 26.18c-17.775 5.797-27.692 22.991-26.514 39.27C2.638 478.385 0 484.06 0 490.257 0 500.944 8.101 512 21.655 512h468.689C503.899 512 512 500.944 512 490.256c0-6.197-2.638-11.872-7.25-15.948M205.02 124.373V36.041c0-11.405 9.348-21.041 20.412-21.041h58.419c11.063 0 20.411 9.636 20.411 21.041v88.332zm0 119.189c0-18.901 8.829-36.178 23.618-46.213l83.173-56.445 85.345 56.57c14.846 9.841 24.067 27.665 24.067 46.517v33.246c-18.41 9.352-41.628 6.51-57.237-9.104-25.149-25.147-65.867-25.152-91.02 0-18.609 18.608-48.561 19.237-67.946 2.055zM90.777 296.125c12.042-2.599 23.21-8.627 31.971-17.386 18.711-18.712 48.055-19.122 67.271-2.057v159.314c-.845-.343-1.7-.666-2.574-.952-2.232-22.581-25.693-36.699-46.776-27.885-11.529-15.612-33.219-19.9-49.892-9.458zM199.554 497H21.655c-6.585 0-9.627-8.947-2.812-12.595a7.5 7.5 0 0 0 3.792-8.194c-2.402-11.131 4.228-25.338 19.798-27.881a7.5 7.5 0 0 0 6.255-8.134c-1.56-16.096 16.714-26.813 30.206-16.819 3.909 2.805 9.315 1.275 11.245-3.052 7.835-17.766 33.112-17.727 40.93 0 1.946 4.411 7.507 5.871 11.368 2.97 13-9.772 31.679.566 30.083 16.902a7.5 7.5 0 0 0 6.255 8.133c15.013 2.45 22.31 16.223 19.797 27.884a7.5 7.5 0 0 0 3.794 8.192c6.8 3.639 3.787 12.594-2.812 12.594m290.791 0h-60.624a35.2 35.2 0 0 0 6.502-20.412v-55.124c13.176-6.518 28.549 4.024 27.088 18.733a7.5 7.5 0 0 0 6.256 8.133c15.59 2.546 22.194 16.771 19.798 27.882a7.5 7.5 0 0 0 3.793 8.194c3.176 1.699 3.843 4.119 3.843 5.85-.001 2.607-1.808 6.744-6.656 6.744"/><path d="M79.355 436.76c-22.239 0-29.425 30-15 30 4.143 0 7.5-3.357 7.5-7.5 0-4.136 3.364-7.5 7.5-7.5s7.5 3.364 7.5 7.5c0 4.143 3.357 7.5 7.5 7.5s7.5-3.357 7.5-7.5c0-12.406-10.093-22.5-22.5-22.5M127.445 448.349a7.5 7.5 0 0 0 10.607 10.607c2.924-2.926 7.682-2.926 10.605 0 2.925 2.924 2.925 7.683 0 10.606a7.5 7.5 0 0 0 10.607 10.607c8.772-8.773 8.772-23.048 0-31.821-8.794-8.793-23.024-8.792-31.819.001M242.601 407.258c-5.01 0-9.866-2.268-12.99-6.064a7.5 7.5 0 1 0-11.584 9.53c14.649 17.806 43.726 14.433 47.905-6.964 1.564-8.006-1.643-19.399-15.828-25.163-6.457-2.623-12.481-5.478-14.491-6.444-2.152-2.021-1.803-7.208 2.711-8.706 6.874-2.282 13.455 3.413 13.659 3.593a7.5 7.5 0 0 0 10.151-11.044c-15.043-13.903-39.651-9.352-42.559 9.725-1.137 7.462 1.796 14.71 7.652 18.915 1.44 1.031 11.694 5.609 17.23 7.858 12.219 4.961 5.857 14.764-1.856 14.764M380.061 422.258h.019a7.5 7.5 0 0 0 7.5-7.481l.069-28.107 17.597-27.032a7.5 7.5 0 1 0-12.57-8.184l-12.531 19.249-12.672-19.408a7.502 7.502 0 0 0-12.561 8.201l17.737 27.164-.069 28.08a7.5 7.5 0 0 0 7.481 7.518M275.61 385.076c0 20.502 16.68 37.182 37.182 37.182s37.182-16.68 37.182-37.182-16.68-37.182-37.182-37.182-37.182 16.68-37.182 37.182m59.364 0c0 12.231-9.95 22.182-22.182 22.182s-22.182-9.95-22.182-22.182 9.95-22.182 22.182-22.182 22.182 9.951 22.182 22.182"/></svg>