<svg xmlns="http://www.w3.org/2000/svg" width="512" height="512"><path fill="#30cd9c" d="M283.58 75.881c-3.438-3.439-8.13-4.843-12.604-4.244-.255-8.061-6.853-14.522-14.976-14.522s-14.721 6.461-14.976 14.522c-4.475-.599-9.167.805-12.605 4.244-5.858 5.858-5.857 15.355 0 21.213l16.975 16.974c5.817 5.839 15.363 5.852 21.215-.003l16.971-16.971c5.859-5.858 5.859-15.355 0-21.213"/><path fill="#d4d4ff" d="M194.841 109.068c-22.091 0-40 17.909-40 40v142.319H256l38.841-48.101V109.068z"/><path fill="#efedff" d="M317.159 109.068H294.84c-22.091 0-38.841 17.909-38.841 40v142.319h101.159V149.068c.001-22.091-17.907-40-39.999-40"/><path fill="#d4d4ff" d="M92.983 201.387c-22.091 0-40 17.909-40 40v102.319h100l40-48.101v-94.219z"/><path fill="#efedff" d="M215.302 201.387h-22.319c-22.091 0-40 17.909-40 40v102.319H256l29.302-51.37L256 241.387c0-22.091-18.607-40-40.698-40"/><path fill="#d4d4ff" d="M295.347 201.387c-22.091 0-39.347 17.909-39.347 40v102.319h99.347l40-48.101v-94.219z"/><path fill="#efedff" d="M417.666 201.387h-22.319c-22.091 0-40 17.909-40 40v102.319h102.319V241.387c0-22.091-17.909-40-40-40"/><path fill="#e8b5b1" d="M324.652 454.858H371c43.24 0 79.352-30.496 88.017-71.151H474.5c16.568 0 30-13.432 30-30 0-16.569-13.432-30-30-30H237.653l-29.139 13.247v117.904z"/><path fill="#d6948c" d="M237.653 383.707c-16.569-16.568-16.569-43.432 0-60H37.5c-16.569 0-30 13.431-30 30 0 16.568 13.431 30 30 30h15.483c8.665 40.655 44.777 71.151 88.017 71.151h183.653c-43.241 0-78.336-30.496-87-71.151"/><g fill="#ffdbe0"><ellipse cx="177" cy="411.798" rx="29" ry="23"/><ellipse cx="335" cy="411.798" rx="29" ry="23"/></g><path d="M474.5 316.207h-9.334v-74.82c0-26.191-21.309-47.5-47.5-47.5H295.348c-16.441 0-31.018 8.345-39.517 21.842a48.36 48.36 0 0 0-40.529-21.842H162.34v-44.82c0-18.113 14.714-32.5 32.5-32.5h122.32c17.915 0 32.5 14.522 32.5 32.5v22.319c0 4.141 3.359 7.5 7.5 7.5 4.13 0 7.5-3.359 7.5-7.5v-22.319c0-26.195-21.233-47.5-47.5-47.5h-27.523c11.793-13.003 4.74-34.007-12.502-37.194-7.105-19.637-35.161-19.642-42.269 0-17.137 3.168-24.331 24.131-12.501 37.194H194.84c-26.262 0-47.5 21.305-47.5 47.5v44.82H92.983c-26.191 0-47.5 21.309-47.5 47.5v31.807c0 4.143 3.357 7.5 7.5 7.5s7.5-3.357 7.5-7.5v-31.807c0-17.921 14.579-32.5 32.5-32.5h122.318c17.995 0 33.198 14.883 33.198 32.5v74.82H60.483v-13.014c0-4.143-3.357-7.5-7.5-7.5s-7.5 3.357-7.5 7.5v13.014H37.5c-20.678 0-37.5 16.822-37.5 37.5s16.822 37.5 37.5 37.5h9.636c11.797 41.985 50.101 71.15 93.864 71.15h230c43.787 0 82.074-29.191 93.864-71.15h9.636c20.678 0 37.5-16.822 37.5-37.5s-16.822-37.5-37.5-37.5M233.723 91.79c-5.049-5.045-.83-13.658 6.308-12.72 4.381.589 8.351-2.744 8.49-7.196.129-4.07 3.414-7.259 7.479-7.259s7.352 3.188 7.48 7.259c.14 4.464 4.128 7.792 8.49 7.196 7.204-.952 11.291 7.738 6.306 12.72l-9.776 9.776h-25.001zM263.5 241.387c0-18.225 13.989-32.5 31.848-32.5h122.318c17.921 0 32.5 14.579 32.5 32.5v74.82H263.5zm211 134.82h-55.483c-4.143 0-7.5 3.357-7.5 7.5s3.357 7.5 7.5 7.5h30.159c-11.157 33.027-42.649 56.15-78.175 56.15H141c-35.526 0-67.018-23.123-78.175-56.15h30.159c4.143 0 7.5-3.357 7.5-7.5s-3.357-7.5-7.5-7.5H37.5c-12.406 0-22.5-10.094-22.5-22.5s10.094-22.5 22.5-22.5h437c12.406 0 22.5 10.094 22.5 22.5s-10.094 22.5-22.5 22.5"/><circle cx="85.606" cy="249.733" r="7.5"/><circle cx="152.606" cy="259.733" r="7.5"/><circle cx="107.606" cy="289.733" r="7.5"/><circle cx="217.606" cy="289.733" r="7.5"/><circle cx="290.106" cy="249.733" r="7.5"/><circle cx="320.106" cy="289.733" r="7.5"/><circle cx="410.106" cy="239.733" r="7.5"/><circle cx="390.106" cy="289.733" r="7.5"/><circle cx="310.106" cy="169.733" r="7.5"/><circle cx="256.106" cy="149.733" r="7.5"/><circle cx="196.106" cy="169.733" r="7.5"/><path d="M193.907 369.675a7.5 7.5 0 0 0-7.5 7.5v12c0 4.143 3.357 7.5 7.5 7.5s7.5-3.357 7.5-7.5v-12c0-4.143-3.357-7.5-7.5-7.5M318.907 369.675a7.5 7.5 0 0 0-7.5 7.5v12c0 4.143 3.357 7.5 7.5 7.5s7.5-3.357 7.5-7.5v-12c0-4.143-3.357-7.5-7.5-7.5M276.798 383.144a7.497 7.497 0 0 0-10.581.728c-5.726 6.57-15.899 6.563-21.62-.001a7.5 7.5 0 0 0-11.309 9.855c11.728 13.454 32.57 13.391 44.237-.001a7.5 7.5 0 0 0-.727-10.581"/></svg>