<svg xmlns="http://www.w3.org/2000/svg" width="512" height="512"><path fill="#d6948c" d="M215 7.5c-16.569 0-30 13.431-30 30V97h76l30-89.5z"/><path fill="#e8b5b1" d="M297 7.5h-6c-16.569 0-30 13.431-30 30V97h66V37.5c0-16.569-13.431-30-30-30"/><path fill="#b9f0ff" d="M448.354 311.04c21.906-15.402 36.029-41.161 35.135-70.112-1.341-43.415-36.712-78.666-80.131-79.871-23.112-.641-44.166 8.291-59.521 23.101-6.381 6.154-16.836 1.63-16.836-7.057V107H219.767v119.882l-73.868 73.868v172.976l30.774 30.774h233.295c26.833 0 52.465-11.81 69.365-32.652C495.451 451.97 504.5 429.623 504.5 406c0-36.036-21.059-69.099-56.146-94.96m-47.326-30.015c-20.678 0-37.5-16.822-37.5-37.5s16.822-37.5 37.5-37.5 37.5 16.822 37.5 37.5-16.822 37.5-37.5 37.5"/><path fill="#7ce3ff" d="M185 107v93.006c0 34.513-21.96 64.999-54.496 76.511C56.917 302.556 7.5 350.792 7.5 406c0 23.623 9.049 45.97 25.168 65.848 16.9 20.842 42.533 32.652 69.365 32.652h74.639c-6.553-12.665-10.985-29.065-12.883-45l80.121-70.28v-70.28c10.568-13.088 17.09-33.139 17.09-55.071V107z"/><path fill="#b9f0ff" d="M332 69.5h-71L216.885 107 261 144.5h71c20.711 0 37.5-16.79 37.5-37.5S352.711 69.5 332 69.5"/><path fill="#7ce3ff" d="M261 69.5h-81c-20.711 0-37.5 16.789-37.5 37.5s16.789 37.5 37.5 37.5h81c-20.711-20.71-20.711-54.29 0-75"/><path fill="#ffce71" d="M366.484 318.94H243.903l-118.827 22.196v79.65L163.79 459.5h246.177c13.628 0 26.17-5.83 34.413-15.995 42.973-52.993-13.934-101.932-77.896-124.565"/><path fill="#ffb357" d="M230.832 330.25c4.818-2.672 9.211-6.531 13.071-11.31h-98.387c-63.995 22.645-120.848 71.596-77.895 124.566 8.242 10.164 20.784 15.994 34.412 15.994h61.756c-.686-5.763-1.05-11.467-1.05-16.91.001-47.899 27.357-89.748 68.093-112.34"/><ellipse cx="175.972" cy="408.735" fill="#ff8e9e" rx="23.515" ry="29.529" transform="rotate(-89.89 175.916 408.712)"/><ellipse cx="336.028" cy="409.085" fill="#ff8e9e" rx="23.515" ry="29.529" transform="rotate(-89.89 335.958 409.078)"/><path d="M460.517 310.981c55.197-48.742 31.489-138.218-38.633-155.005l-.018-.004c-28.518-6.821-60.141.512-83.237 22.787-1.638 1.582-4.129.425-4.129-1.659v-25.174C358.155 150.625 377 130.974 377 107c0-24.813-20.187-45-45-45H192.5V37.5c.02-12.39 10.12-22.48 22.5-22.5h82c12.38.02 22.479 10.11 22.5 22.5v2c0 4.14 3.37 7.5 7.5 7.5s7.5-3.36 7.5-7.5C334.5 14.629 316.235 0 297 0h-82c-20.774 0-37.5 16.806-37.5 37.5v24.573C153.845 63.375 135 83.026 135 107s18.845 43.625 42.5 44.927v48.079c0 31.059-19.892 58.965-49.498 69.441-25.796 9.128-48.613 20.845-67.817 34.826a7.5 7.5 0 1 0 8.829 12.127c18.033-13.128 39.563-24.167 63.993-32.812 35.585-12.592 59.494-46.181 59.494-83.582V152H216c4.143 0 7.5-3.358 7.5-7.5s-3.357-7.5-7.5-7.5h-36c-16.542 0-30-13.458-30-30s13.458-30 30-30h152c16.542 0 30 13.458 30 30s-13.458 30-30 30h-36c-4.143 0-7.5 3.358-7.5 7.5s3.357 7.5 7.5 7.5h23.5v25.101c0 15.208 18.388 23.215 29.542 12.456 18.972-18.298 45.22-24.768 69.35-18.992 62.748 15.021 78.522 97.165 25.648 134.34-4.186 2.942-4.259 9.135-.136 12.173C478.144 342.312 497 373.893 497 406c0 41.902-33.447 91-87.033 91H102.033C48.366 497 15 447.782 15 406c-.001-24.836 11.142-49.354 32.224-70.903a7.5 7.5 0 0 0-10.722-10.489C12.621 349.017-.001 377.162 0 406c0 49.335 39.275 106 102.033 106h307.934C472.705 512 512 455.317 512 406c0-34.423-18.2-67.869-51.483-95.019"/><path d="M401.028 288.525c24.658 0 45-20.057 45-45 0-24.813-20.187-45-45-45s-45 20.187-45 45 20.187 45 45 45m0-75c16.542 0 30 13.458 30 30 0 16.317-13.347 30-30 30-16.542 0-30-13.458-30-30s13.458-30 30-30"/><circle cx="214.885" cy="37.75" r="7.5"/><circle cx="255.885" cy="54.5" r="7.5"/><circle cx="293.885" cy="29.5" r="7.5"/><path d="M209.457 281.595a7.5 7.5 0 0 0-11.855-9.189c-14.077 18.162-32.953 31.809-54.588 39.464-51.138 18.095-86.905 47.483-95.677 78.613-5.539 19.657-.675 39.086 14.459 57.748C71.469 460.159 86.135 467 102.033 467h307.934c15.898 0 30.565-6.842 40.238-18.771 15.136-18.665 20.001-38.094 14.463-57.749-8.771-31.126-44.539-60.513-95.682-78.61-21.635-7.656-40.511-21.302-54.588-39.464a7.5 7.5 0 0 0-11.855 9.189 134.4 134.4 0 0 0 32.186 29.845H177.271a134.4 134.4 0 0 0 32.186-29.845m155.731 44.845c45.232 16.259 77.768 42.29 85.043 68.108 4.14 14.692.211 29.574-11.676 44.233-6.812 8.4-17.232 13.219-28.588 13.219H102.033c-11.355 0-21.775-4.817-28.587-13.217-11.885-14.657-15.812-29.539-11.672-44.232 7.276-25.822 39.81-51.853 85.038-68.111z"/><path d="M193.465 398.72a7.5 7.5 0 0 0 7.5-7.5v-12c0-4.142-3.357-7.5-7.5-7.5s-7.5 3.358-7.5 7.5v12a7.5 7.5 0 0 0 7.5 7.5M318.362 398.72a7.5 7.5 0 0 0 7.5-7.5v-12c0-4.142-3.357-7.5-7.5-7.5s-7.5 3.358-7.5 7.5v12a7.5 7.5 0 0 0 7.5 7.5M256.096 414.879c14.124 12.385 36.411 2.337 36.411-16.504 0-4.142-3.357-7.5-7.5-7.5s-7.5 3.358-7.5 7.5c0 3.835-3.12 6.956-6.955 6.956a6.963 6.963 0 0 1-6.956-6.956c0-4.142-3.357-7.5-7.5-7.5s-7.5 3.358-7.5 7.5c0 3.835-3.12 6.956-6.955 6.956a6.963 6.963 0 0 1-6.956-6.956c0-4.142-3.357-7.5-7.5-7.5s-7.5 3.358-7.5 7.5c0 18.831 22.278 28.898 36.411 16.504"/></svg>