<svg xmlns="http://www.w3.org/2000/svg" width="512" height="512"><path fill="#70dcba" d="M206.345 60a30.66 30.66 0 0 0-16.883-23.075l-53.855-26.297c-7.361-3.597-15.683-4.11-23.431-1.445-7.746 2.664-13.992 8.186-17.586 15.547-3.595 7.36-4.107 15.681-1.444 23.428s8.185 13.993 15.546 17.588l39.337 19.207 11.035 74.679 30.253 19.859 31.593-20.933z"/><path fill="#b9f0ff" d="M390.532 106h-85.028c-32.033 0-58 25.967-58 58v282.494c0 32.033 25.967 58 58 58h59.545c15.695 0 28.737-12.097 29.915-27.748l25.483-338.493C421.758 120.846 407.988 106 390.532 106"/><path fill="#7ce3ff" d="M268.504 464.794V146c0-22.091 16.909-40 39-40H144.476c-17.456 0-31.226 14.846-29.915 32.252l25.483 338.494c1.178 15.651 14.22 27.748 29.915 27.748h132.714c-19.811-2.387-34.169-19.244-34.169-39.7"/><path fill="#70dcba" d="m368.874 423.683 17.08-215.183h-117.45l-21 18.674v198.699l21 18.621h77.933c11.772 0 21.554-9.073 22.437-20.811"/><path fill="#30cd9c" d="m149.935 208.5 16.199 215.183c.884 11.738 10.666 20.811 22.437 20.811h79.935V208.5z"/><path fill="#0caf7b" d="M278.888 398.175a12.91 12.91 0 0 0 10.192-10.192c3.171-16.27-1.54-33.774-14.148-46.382s-30.112-17.319-46.382-14.147a12.91 12.91 0 0 0-10.192 10.192c-3.171 16.27 1.54 33.774 14.148 46.382s30.112 17.319 46.382 14.147"/><ellipse cx="192.742" cy="286.255" fill="#ff8e9e" rx="25" ry="19.909"/><ellipse cx="343.146" cy="286.255" fill="#ff8e9e" rx="25" ry="19.909"/><path d="M390.532 98.5H219.615l-5.852-39.598a38.16 38.16 0 0 0-21.011-28.717L138.898 3.889C133.615 1.308 127.987 0 122.172 0 108.299 0 94.595 7.621 87.85 21.438c-9.249 18.936-1.424 41.781 17.549 51.046l3.087 1.508a7.501 7.501 0 0 0 6.584-13.478l-3.088-1.508C100.49 53.394 95.7 39.551 101.329 28.02c5.542-11.346 19.31-16.356 30.986-10.652l53.855 26.297a23.17 23.17 0 0 1 12.755 17.433l5.527 37.403h-46.84l-1.512-10.23 9.824-7.376c3.312-2.487 3.981-7.188 1.495-10.501s-7.188-3.979-10.501-1.495l-9.723 7.301-5.167-2.523a7.5 7.5 0 0 0-6.582 13.478l5.741 2.804 1.271 8.598c-20.708 1.103-36.966 19.049-35.375 40.26l25.482 338.494C134.03 496.759 150.456 512 169.96 512h195.09c19.505 0 35.931-15.241 37.394-34.69l2.866-38.072a7.5 7.5 0 0 0-6.915-8.042 7.486 7.486 0 0 0-8.042 6.915l-2.866 38.073c-.879 11.669-10.733 20.811-22.437 20.811H169.96c-11.703 0-21.559-9.142-22.438-20.812l-25.481-338.49c-1-13.108 9.41-24.192 22.436-24.192h246.056c12.933 0 23.416 10.958 22.438 24.188l-20.365 270.506a7.5 7.5 0 0 0 6.915 8.042 7.483 7.483 0 0 0 8.042-6.915l20.366-270.51c1.635-21.931-15.769-40.312-37.397-40.312"/><path d="M205.496 274.72c4.143 0 7.5-3.357 7.5-7.5v-12c0-4.143-3.357-7.5-7.5-7.5s-7.5 3.357-7.5 7.5v12a7.5 7.5 0 0 0 7.5 7.5M330.393 274.72c4.143 0 7.5-3.357 7.5-7.5v-12c0-4.143-3.357-7.5-7.5-7.5s-7.5 3.357-7.5 7.5v12a7.5 7.5 0 0 0 7.5 7.5M290.062 271.789a7.5 7.5 0 0 0-.728-10.581 7.497 7.497 0 0 0-10.581.728c-5.726 6.569-15.898 6.564-21.619 0a7.5 7.5 0 1 0-11.309 9.853c11.703 13.431 32.546 13.419 44.237 0"/><path d="M388.85 172.014a7.49 7.49 0 0 0-8.07 6.883L379.026 201H156.891l-1.661-22.072c-.311-4.131-3.92-7.233-8.041-6.916a7.5 7.5 0 0 0-6.916 8.041l18.383 244.193c1.171 15.56 14.312 27.748 29.915 27.748h157.868c15.604 0 28.744-12.188 29.913-27.718l19.382-244.192a7.5 7.5 0 0 0-6.884-8.07m-27.454 251.105c-.586 7.78-7.156 13.875-14.958 13.875H188.57c-7.802 0-14.372-6.095-14.958-13.875L158.02 216h219.814z"/><path d="M227.202 389.331c20.541 20.542 48.228 18.82 57.328 14.902l5.263 5.263A7.5 7.5 0 0 0 300.4 398.89l-5.263-5.263c3.953-9.18 5.628-36.798-14.902-57.327-13.918-13.918-33.771-19.977-53.12-16.206a20.32 20.32 0 0 0-16.119 16.119c-3.771 19.342 2.288 39.2 16.206 53.118m-1.483-50.25a5.38 5.38 0 0 1 4.266-4.266c28.418-5.536 54.328 17.293 52.457 46.114l-24.796-24.796a7.5 7.5 0 0 0-10.607 10.606l24.797 24.797c-28.801 1.873-51.66-24.018-46.117-52.455"/></svg>