<svg xmlns="http://www.w3.org/2000/svg" width="512" height="512"><path fill="#b9f0ff" d="M391.874 129.836A930 930 0 0 0 397.178 86H193.299v258.5l63.551 30 77.012-30a928 928 0 0 0 12.7-33.273h43.971c24.813 0 45-20.187 45-45v-91.425c0-24.364-19.465-44.253-43.659-44.966m13.659 136.391c0 8.271-6.729 15-15 15h-33.738a929 929 0 0 0 30.238-121.425h3.5c8.271 0 15 6.729 15 15z"/><path fill="#7ce3ff" d="M245.504 314.5c-8.099-22.81-15.104-45.91-21.193-69.249-8.144-31.21-14.682-62.839-20.047-94.766-3.081-18.334 5.875-36.596 22.203-45.485V86H105.734a928.8 928.8 0 0 0 63.315 258.5l87.801 30v-30c-4.015-9.938-7.775-19.944-11.346-30"/><path fill="#70dcba" d="m304.72 239.728-.006.005c-10.041 9.204-25.453 9.204-35.494 0l-.006-.005c-10.041-9.204-25.453-9.204-35.494 0l-.006.005a26.1 26.1 0 0 1-9.403 5.518v48.055l21.193 21.193h53.915c8.415 0 15.954-5.26 18.807-13.177a900 900 0 0 0 20.193-63.223c-9.859-8.136-24.476-7.595-33.699 1.629"/><path fill="#30cd9c" d="m198.22 239.733-.006-.005c-9.228-9.228-23.853-9.765-33.712-1.617a900 900 0 0 0 20.177 63.213c2.853 7.917 10.392 13.176 18.808 13.176h42.018c-8.099-22.81-15.104-45.91-21.193-69.249-8.806 2.947-18.845 1.126-26.092-5.518"/><path fill="#fff" d="m230.642 193.316 7.282-2.997 7.28 4.181c3.697.082 8.818.082 12.526 0l7.28-4.181 7.282 2.997c10.674-1.846 17.745-6.328 17.745-17.003 0-10.673-7.073-20.048-17.745-25.42l-7.282-.004-7.28-4.378a49.5 49.5 0 0 0-12.526 0l-7.28 4.378-7.282.004c-10.672 5.372-17.745 14.747-17.745 25.42.001 10.675 7.071 15.157 17.745 17.003"/><g fill="#fff"><path d="M183.018 129.51c-12.406 0-22.5 10.093-22.5 22.5v10.366c0 12.407 10.094 22.5 22.5 22.5s22.5-10.093 22.5-22.5V152.01c0-12.407-10.094-22.5-22.5-22.5M319.916 129.51c-12.406 0-22.5 10.093-22.5 22.5v10.366c0 12.407 10.094 22.5 22.5 22.5s22.5-10.093 22.5-22.5V152.01c0-12.407-10.094-22.5-22.5-22.5"/></g><path fill="#18c08b" d="M169.049 344.5c-10.923 0-20.523 6.665-23.577 19.727-4.92 21.048-11.914 75.92-15.635 116.994-1.133 12.505 8.718 23.279 21.274 23.279h87.351l18.388-38.021V344.5z"/><path fill="#30cd9c" d="M373.096 481.22c-3.725-41.084-10.732-95.964-15.661-117.009-3.057-13.054-12.655-19.711-23.573-19.711H256.85c-10.911 0-20.518 6.642-23.568 19.689-4.608 19.709-11.04 50.29-14.897 81.811-2.635 21.539 4.795 43.094 20.077 58.5h113.36c12.557 0 22.408-10.775 21.274-23.28"/><path fill="#efedff" d="M251.467 474.712c-27.628 0-50.105-22.478-50.105-50.106s22.478-50.105 50.105-50.105c27.628 0 50.105 22.478 50.105 50.105 0 27.628-22.477 50.106-50.105 50.106"/><path fill="#d4d4ff" d="M286.897 389.176a50 50 0 0 0-12.236-8.977l-33.726 33.726c-5.858 5.858-5.858 15.355 0 21.213s15.355 5.858 21.213 0l33.725-33.726a49.9 49.9 0 0 0-8.976-12.236M291.467 7.5h-80c-16.569 0-30 13.431-30 30v25.25h140V37.5c0-16.569-13.432-30-30-30"/><path fill="#d4d4ff" d="M106.467 37.5c-16.569 0-30 13.431-30 30V75c0 16.568 13.431 30 30 30h120V37.5z"/><path fill="#efedff" d="M396.467 37.5h-170c-16.568 0-30 13.431-30 30V75c0 16.568 13.432 30 30 30h170c16.568 0 30-13.432 30-30v-7.5c0-16.569-13.432-30-30-30"/><path d="M251.467 367c-31.764 0-57.605 25.842-57.605 57.605 0 31.764 25.842 57.606 57.605 57.606s57.605-25.842 57.605-57.606c0-31.585-25.697-57.605-57.605-57.605m0 100.212c-23.493 0-42.605-19.113-42.605-42.606 0-41.478 53.703-58.476 77.55-24.332l-29.564 29.556a7.504 7.504 0 0 1-10.61.01c-2.932-2.953-2.926-7.684 0-10.61l12.51-12.51c2.907-2.905 2.965-7.647 0-10.61a7.48 7.48 0 0 0-10.59-.01s-.01 0-.01.01l-12.52 12.51c-8.749 8.749-8.783 23.038 0 31.82 8.798 8.799 23.067 8.774 31.819 0l25.507-25.499a42.5 42.5 0 0 1 1.119 9.665c-.001 23.493-19.113 42.606-42.606 42.606"/><path d="M390.533 318.727c28.948 0 52.5-23.551 52.5-52.5v-91.425c0-25.799-18.581-46.988-42.665-51.552q.76-5.564 1.454-11.138c18.149-2.608 32.145-18.252 32.145-37.111v-7.5c0-20.678-16.822-37.5-37.5-37.5h-68.255c-3.484-17.096-18.635-30-36.745-30h-80c-18.11 0-33.261 12.904-36.745 30h-68.255c-20.678 0-37.5 16.822-37.5 37.5V75c0 18.857 13.993 34.501 32.139 37.111 3.883 31.197 9.364 62.47 16.352 93.056a7.5 7.5 0 0 0 14.623-3.341c-6.709-29.364-12.007-59.371-15.812-89.326h270.39A921.4 921.4 0 0 1 328.78 337H174.129a924 924 0 0 1-34.954-106.276 7.5 7.5 0 0 0-14.508 3.812 940 940 0 0 0 34.004 104.165c-10.124 3.473-17.755 12.068-20.502 23.82-5.152 22.041-12.214 78.425-15.803 118.025-1.536 16.999 11.9 31.455 28.744 31.455h200.711c16.813 0 30.275-14.417 28.744-31.457-1.228-13.527-2.819-28.677-4.605-43.812-.485-4.114-4.229-7.051-8.327-6.569a7.5 7.5 0 0 0-6.569 8.327c1.771 15.003 3.349 30.014 4.562 43.408.743 8.202-5.741 15.104-13.805 15.104h-200.71c-8.091 0-14.552-6.935-13.805-15.102 3.542-39.098 10.464-94.552 15.469-115.964 2.069-8.85 7.994-13.927 16.258-13.933l.018.001.041-.002h164.77c8.269 0 14.198 5.074 16.27 13.921 2.006 8.564 4.483 23.41 7.163 42.933.564 4.104 4.34 6.979 8.451 6.41a7.5 7.5 0 0 0 6.41-8.45c-1.913-13.932-4.753-32.929-7.419-44.313-2.75-11.741-10.379-20.328-20.497-23.8a938 938 0 0 0 7.582-19.974h38.711zm37.5-143.925v91.425c0 20.678-16.822 37.5-37.5 37.5h-33.358a934 934 0 0 0 5.067-15h28.291c12.406 0 22.5-10.093 22.5-22.5v-91.425c0-10.582-7.344-19.475-17.202-21.864a933 933 0 0 0 2.384-14.807c16.938 3.6 29.818 18.843 29.818 36.671m-34.84-7.004c2.825 1.077 4.84 3.806 4.84 7.004v91.425c0 4.135-3.364 7.5-7.5 7.5h-23.504a937 937 0 0 0 26.164-105.929M83.967 75v-7.5c0-12.407 10.094-22.5 22.5-22.5h129.604c4.143 0 7.5-3.358 7.5-7.5s-3.357-7.5-7.5-7.5h-45.814c3.096-8.729 11.433-15 21.21-15h80c9.777 0 18.114 6.271 21.21 15h-46.553c-4.143 0-7.5 3.358-7.5 7.5s3.357 7.5 7.5 7.5h130.343c12.406 0 22.5 10.093 22.5 22.5V75c0 12.407-10.094 22.5-22.5 22.5h-290c-12.406 0-22.5-10.093-22.5-22.5"/><path d="M251.467 202.061c19.75 0 46.069-.944 46.069-25.747 0-20.789-20.667-37.702-46.069-37.702s-46.069 16.913-46.069 37.702c-.001 24.795 26.407 25.747 46.069 25.747m31.069-25.747c0 4.555-1.974 7.675-10.245 9.335v-26.167c6.288 4.157 10.245 10.163 10.245 16.832m-24.807-22.238v32.904c-1.941.053-4.018.081-6.263.081s-4.321-.029-6.263-.081v-32.904c2.023-.304 4.118-.464 6.263-.464s4.24.16 6.263.464m-27.087 5.406v26.167c-8.271-1.66-10.245-4.78-10.245-9.335 0-6.669 3.957-12.675 10.245-16.832M190.518 162.376V152.01c0-4.142-3.357-7.5-7.5-7.5s-7.5 3.358-7.5 7.5v10.366c0 4.142 3.357 7.5 7.5 7.5s7.5-3.357 7.5-7.5M327.415 162.376V152.01c0-4.142-3.357-7.5-7.5-7.5s-7.5 3.358-7.5 7.5v10.366c0 4.142 3.357 7.5 7.5 7.5s7.5-3.357 7.5-7.5M449.645 117.291a7.5 7.5 0 0 0-10.748 10.462c12.341 12.677 19.137 29.386 19.137 47.048 0 4.142 3.357 7.5 7.5 7.5s7.5-3.358 7.5-7.5c-.001-21.593-8.307-42.017-23.389-57.51M464.755 279.295a7.5 7.5 0 0 0-9.252 5.187c-5.959 21.172-21.922 38.163-42.7 45.451a7.5 7.5 0 0 0 4.965 14.155c25.387-8.904 44.892-29.667 52.175-55.541a7.5 7.5 0 0 0-5.188-9.252M97.45 183.338c-.813-4.062-4.768-6.698-8.827-5.882a7.5 7.5 0 0 0-5.882 8.826 972 972 0 0 0 16.875 70.462 7.5 7.5 0 0 0 14.447-4.038 956 956 0 0 1-16.613-69.368M72.31 27.688a7.5 7.5 0 0 0-9.777-11.376C47.557 29.182 38.967 47.839 38.967 67.5c0 4.142 3.357 7.5 7.5 7.5s7.5-3.358 7.5-7.5c0-15.284 6.685-29.794 18.343-39.812"/><path d="M160.808 192.848a7.501 7.501 0 0 0-14.633 3.302c8.194 36.304 18.774 72.544 31.448 107.715C181.531 314.712 191.925 322 203.486 322h95.933c11.561 0 21.954-7.288 25.863-18.134 12.675-35.17 23.253-71.39 31.44-107.653a7.5 7.5 0 0 0-5.664-8.968 7.5 7.5 0 0 0-8.967 5.664c-2.558 11.326-5.378 22.645-8.401 33.931-11.563-4.277-24.888-1.702-34.148 7.458-7.215 6.52-18.021 6.5-25.214-.056l-.047-.043c-13.008-11.922-32.623-11.922-45.631 0l-.046.043c-7.076 6.449-18.113 6.469-25.215.057-9.264-9.166-22.599-11.74-34.168-7.451-3.026-11.307-5.851-22.648-8.413-34m32.344 52.414c12.793 11.727 32.835 11.727 45.63 0l.045-.042c7.215-6.577 18.062-6.578 25.279 0l.045.042c14.084 12.908 34.702 10.939 45.872-.231 5.306-5.306 13.121-6.569 19.636-3.622-5.525 19.322-11.688 38.503-18.488 57.372-1.772 4.917-6.495 8.22-11.752 8.22h-95.933c-5.258 0-9.98-3.303-11.752-8.219-6.796-18.86-12.956-38.038-18.481-57.363 6.201-2.816 13.434-2.11 19.899 3.843"/></svg>