<svg xmlns="http://www.w3.org/2000/svg" width="512" height="512"><ellipse cx="278.712" cy="73.314" fill="#b0ebd8" rx="73.05" ry="57.671" transform="rotate(-45 278.72 73.37)"/><ellipse cx="227.104" cy="79.157" fill="#70dcba" rx="47.415" ry="76.196" transform="rotate(-48.93 227.136 79.13)"/><path fill="#30cd9c" d="m371.27 144.844 18.847-30.756c22.285-36.365-23.74-75.06-54.554-37.974-8.603 10.353-20.722 17.172-33.78 14.171-27.156-5.879-55.223 19.432-51.965 47.754 1.429 12.915-6.322 24.557-17.785 28.649-6.438 2.263-11.944 6.046-16.353 10.813h139.828c4.158-11.216 9.309-22.127 15.762-32.657"/><path fill="#18c08b" d="M279.968 166.687c-11.463-4.091-19.214-15.733-17.785-28.649 3.258-28.322-24.809-53.633-51.965-47.754-13.059 3.001-25.178-3.818-33.78-14.171-30.814-37.085-76.838 1.609-54.553 37.974l18.847 30.756c6.453 10.53 11.604 21.442 15.762 32.656H296.32c-4.408-4.765-9.914-8.548-16.352-10.812"/><path fill="#70dcba" d="M409.5 317.43c0-8.283-6.714-14.998-14.996-15 8.282-.002 14.996-6.717 14.996-15s-6.714-14.998-14.996-15V177.5H249.026L117.5 332.43 249.026 474.5h145.478V362.43c8.282-.002 14.996-6.717 14.996-15s-6.714-14.998-14.996-15c8.282-.003 14.996-6.718 14.996-15"/><path fill="#30cd9c" d="M117.504 177.5v94.93h-.004c-8.284 0-15 6.716-15 15s6.716 15 15 15c-8.284 0-15 6.716-15 15s6.716 15 15 15c-8.284 0-15 6.716-15 15s6.716 15 15 15h.004V474.5h131.522v-297z"/><g fill="#ff8e9e"><ellipse cx="174.247" cy="313.36" rx="29.355" ry="23.377"/><ellipse cx="337.753" cy="313.36" rx="29.355" ry="23.377"/></g><path fill="#9ea2e3" d="M117.5 444.5c-16.568 0-30 13.432-30 30s13.432 30 30 30h131.522v-60z"/><path fill="#d4d4ff" d="M394.5 444.5H249.022c-16.569 0-30 13.432-30 30s13.431 30 30 30H394.5c16.568 0 30-13.432 30-30s-13.432-30-30-30"/><path fill="#9ea2e3" d="M117.5 147.5c-16.568 0-30 13.432-30 30s13.432 30 30 30h131.522v-60z"/><path fill="#d4d4ff" d="M394.5 147.5H249.022c-16.569 0-30 13.432-30 30s13.431 30 30 30H394.5c16.568 0 30-13.432 30-30s-13.432-30-30-30"/><path d="M186.051 282.856v12a7.5 7.5 0 0 0 15 0v-12a7.5 7.5 0 0 0-15 0M310.949 282.856v12a7.5 7.5 0 0 0 15 0v-12a7.5 7.5 0 0 0-15 0M266.811 289.572c-5.728 6.571-15.899 6.564-21.621 0-2.722-3.123-7.459-3.448-10.582-.726s-3.448 7.459-.726 10.582c11.705 13.43 32.543 13.416 44.236 0a7.5 7.5 0 0 0-11.307-9.856"/><path d="M402.004 437.755V424.5c0-4.142-3.357-7.5-7.5-7.5s-7.5 3.358-7.5 7.5V437h-262v-74.57c0-4.142-3.361-7.5-7.504-7.5-4.136 0-7.5-3.364-7.5-7.5s3.364-7.5 7.5-7.5c4.143 0 7.5-3.358 7.5-7.5s-3.357-7.5-7.5-7.5c-4.136 0-7.5-3.364-7.5-7.5s3.364-7.5 7.5-7.5c4.143 0 7.5-3.358 7.5-7.5s-3.357-7.5-7.5-7.5c-4.136 0-7.5-3.364-7.5-7.5s3.364-7.5 7.504-7.5a7.5 7.5 0 0 0 7.5-7.5V215h262v57.43a7.5 7.5 0 0 0 7.498 7.5c4.135.001 7.498 3.366 7.498 7.5s-3.363 7.499-7.498 7.5a7.5 7.5 0 0 0 0 15c4.135.001 7.498 3.366 7.498 7.5s-3.363 7.499-7.498 7.5a7.5 7.5 0 0 0 0 15c4.135.001 7.498 3.366 7.498 7.5s-3.363 7.499-7.498 7.5a7.5 7.5 0 0 0-7.498 7.5v32.07c0 4.142 3.357 7.5 7.5 7.5s7.5-3.358 7.5-7.5v-25.857c15.068-5.346 19.93-24.298 9.252-36.213a22.453 22.453 0 0 0 0-30c10.692-11.931 5.805-30.871-9.252-36.213v-51.972C419.098 210.759 432 195.608 432 177.5c0-20.678-16.822-37.5-37.5-37.5h-11.468l13.48-21.994c13.932-22.734 5.426-45.942-10.177-57.117-9.303-6.663-21.838-9.532-34.398-5.424C350.609 20.587 324.606 0 293.501 0c-17.56 0-36.952 6.699-54.313 21.261-28.363-14.919-56.465-14.955-72.646.273-8.584 8.08-12.763 19.38-12.263 32.569-31.401-5.263-59.214 30.573-38.79 63.904l4.196 6.847a7.5 7.5 0 0 0 12.789-7.839l-4.196-6.846c-17.452-28.486 17.49-59.233 42.39-29.264 10.513 12.656 25.404 20.327 41.136 16.708 21.246-4.599 43.138 14.438 43.138 35.923 0 2.881-.3 3.389-.397 6.462H117.5C96.822 140 80 156.822 80 177.5c0 18.11 12.905 33.262 30.004 36.746v51.968c-15.07 5.34-19.942 24.296-9.261 36.216a22.456 22.456 0 0 0 0 30c-10.686 11.926-5.811 30.875 9.261 36.215v69.109C92.906 441.237 80 456.389 80 474.5c0 20.678 16.822 37.5 37.5 37.5h277c20.678 0 37.5-16.822 37.5-37.5 0-18.108-12.902-33.259-29.996-36.745M377.601 73.083c9.656 6.916 15.69 21.471 6.122 37.085-15.238 24.863-16.826 27.45-18.28 29.831h-95.898c.118-2.195 2.247-13.878-4.732-28.098 8.687-11.227 22.69-17.035 35.292-14.309 14.599 3.356 29.628-2.726 41.228-16.688 12.98-15.621 27.245-14.282 36.268-7.821m-89.166-57.8c30.295-2.987 51.667 18.123 48.23 49.004a59 59 0 0 0-6.871 7.034c-3.714 4.47-13.718 14.554-26.424 11.633a44.3 44.3 0 0 0-8.213-.975c-7.79-20.495-23.834-39.313-42.353-52.379 10.934-8.094 23.307-13.106 35.631-14.317m-79.897 67.692c-10.267 2.356-19.658-3.621-26.332-11.654-3.702-4.456-7.802-8.121-12.161-10.949-2.188-11.856.17-21.695 6.778-27.914 22.79-21.45 83.32 6.276 103.018 51.639-8.891 2.702-17.209 7.877-23.812 15.008-12.152-13.201-30.091-19.902-47.491-16.13M95 177.5c0-12.407 10.094-22.5 22.5-22.5h277c12.406 0 22.5 10.093 22.5 22.5 0 12.405-10.092 22.499-22.497 22.5H117.5c-12.406 0-22.5-10.093-22.5-22.5M394.5 497h-277c-12.406 0-22.5-10.093-22.5-22.5s10.094-22.5 22.504-22.5h276.999c12.405.001 22.497 10.095 22.497 22.5 0 12.407-10.094 22.5-22.5 22.5"/></svg>