<svg xmlns="http://www.w3.org/2000/svg" width="512" height="512"><path fill="#efedff" d="M372.5 475.536c78.525-41.758 132-124.396 132-219.536s-53.475-177.779-132-219.536H236.329v439.072z"/><path fill="#d4d4ff" d="M304.602 422.562C264.765 378.495 240.5 320.084 240.5 256s24.265-122.495 64.102-166.562c19.306-21.355 42.266-39.344 67.898-52.975C337.75 17.985 298.103 7.5 256 7.5 118.757 7.5 7.5 118.757 7.5 256S118.757 504.5 256 504.5c42.103 0 81.75-10.485 116.5-28.964-25.632-13.63-48.593-31.619-67.898-52.974"/><path fill="#ce857a" d="M304.602 89.438H236.33v333.123h68.272C376.688 401.493 429.5 334.802 429.5 256S376.688 110.507 304.602 89.438"/><path fill="#bd7669" d="M304.602 89.438A173 173 0 0 0 256 82.5c-95.668 0-173.5 77.832-173.5 173.5 0 115.128 110.969 199.044 222.102 166.562C264.765 378.495 240.5 320.084 240.5 256s24.265-122.495 64.102-166.562"/><path fill="#70dcba" d="M317.123 134.48c-3.294-3.295-7.789-4.64-12.076-4.067-.244-7.723-6.566-13.914-14.349-13.914s-14.105 6.191-14.349 13.914c-4.288-.574-8.783.771-12.077 4.066-5.613 5.613-5.612 14.712 0 20.325l16.264 16.263c5.574 5.595 14.719 5.607 20.327-.003l16.26-16.26c5.613-5.612 5.613-14.711 0-20.324"/><g fill="#70dcba"><path d="M287.935 255.13c-5.857-5.858-15.355-5.858-21.213 0l-12 12c-5.857 5.858-5.858 15.354 0 21.213 5.857 5.858 15.355 5.858 21.213 0l12-12c5.858-5.858 5.858-15.356 0-21.213M226.329 247.222c8.284.001 15-6.715 15-15v-16.971c0-8.284-6.715-15-15-15-8.284-.001-15 6.715-15 15v16.971c0 8.283 6.716 15 15 15"/></g><g fill="#30cd9c"><path d="M284.289 209.597a7.5 7.5 0 0 0-10.606 0l-5.304 5.303a7.5 7.5 0 0 0 5.303 12.804 7.48 7.48 0 0 0 5.303-2.196l5.304-5.303a7.5 7.5 0 0 0 0-10.608M190.333 255.302a7.5 7.5 0 0 0-7.5 7.5v7.5c0 4.142 3.357 7.5 7.5 7.5s7.5-3.358 7.5-7.5v-7.5a7.5 7.5 0 0 0-7.5-7.5M223.157 274.769a7.5 7.5 0 0 0-10.607 10.605l4.656 4.657a7.48 7.48 0 0 0 5.304 2.197 7.498 7.498 0 0 0 5.304-12.802z"/></g><path fill="#f2d4d3" d="M156.064 200.277c18.367-3.004 36.663-13.617 51.118-28.071 14.457-14.457 25.072-32.756 28.073-51.126 1.985-12.153-1.674-25.006-10.995-34.327-12.36-12.36-32.486-12.275-44.951.19l-12.374-12.374c-8.787-8.787-23.033-8.787-31.82 0l-25.57 25.57c-8.787 8.787-8.787 23.033 0 31.82l12.374 12.374c-12.465 12.465-12.55 32.59-.19 44.951 9.323 9.322 22.18 12.981 34.335 10.993"/><path fill="#e8b5b1" d="M105.014 166.815c.044-10.481 4.164-20.349 11.601-27.786 12.88-12.879 33.77-12.95 46.567-.152 10.822 10.822 10.768 28.485-.121 39.375a7.5 7.5 0 0 1-10.606 0 7.5 7.5 0 0 1-.001-10.607c5.041-5.041 5.096-13.188.122-18.162-6.947-6.948-18.323-6.879-25.354.152-4.621 4.621-7.181 10.744-7.208 17.243-.074 17.444 17.989 28.749 34.841 25.997 33.427-5.467 67.539-39.581 72.998-73.004 2.709-16.585-8.265-34.833-25.998-34.833-6.499.027-12.622 2.587-17.242 7.208-7.054 7.054-7.113 18.394-.152 25.354 4.985 4.983 13.111 4.929 18.161-.121a7.5 7.5 0 0 1 10.607 10.606c-10.898 10.898-28.521 10.975-39.375.121-12.845-12.845-12.743-33.673.152-46.567 7.262-7.262 17.111-11.601 27.956-11.601 26.975 0 44.888 26.572 40.695 52.25-6.498 39.78-45.599 78.884-85.382 85.391-26.009 4.251-52.374-14.045-52.261-40.864"/><path fill="#f2d4d3" d="M57.182 228.395c-10.863 15.111-16.296 35.553-16.296 55.995 0 20.445 5.433 40.891 16.301 56.002 7.19 9.997 18.866 16.498 32.048 16.498 17.48 0 31.651-14.291 31.651-31.919h17.5c12.426 0 22.5-10.074 22.5-22.5v-36.162c0-12.426-10.074-22.5-22.5-22.5h-17.5c0-17.628-14.171-31.919-31.651-31.919-13.185 0-24.864 6.504-32.053 16.505"/><path fill="#e8b5b1" d="M95.565 291.936c-15.305 0-27.757 12.529-27.757 27.928 0 4.142 3.357 7.5 7.5 7.5s7.5-3.358 7.5-7.5c0-7.128 5.723-12.928 12.757-12.928 9.826 0 17.82 8.09 17.82 18.035 0 13.465-10.834 24.419-24.15 24.419-10.23 0-19.935-5.001-25.959-13.377-19.774-27.494-19.777-75.737-.005-103.24 6.024-8.38 15.73-13.383 25.964-13.383 13.316 0 24.15 10.954 24.15 24.419 0 9.945-7.994 18.035-17.82 18.035-7.034 0-12.757-5.8-12.757-12.928 0-4.142-3.357-7.5-7.5-7.5s-7.5 3.358-7.5 7.5c0 15.399 12.452 27.928 27.757 27.928 18.098 0 32.82-14.819 32.82-33.035 0-21.736-17.562-39.419-39.15-39.419-15.049 0-29.309 7.337-38.144 19.627-23.531 32.733-23.528 88.031.007 120.754 8.835 12.285 23.092 19.619 38.137 19.619 21.588 0 39.15-17.683 39.15-39.419.001-18.216-14.722-33.035-32.82-33.035"/><path fill="#f2d4d3" d="M400.266 134.802c-12.41-14.749-36.522 3.491-22.474 19.881 3.265 3.918 6.337 8 9.218 12.223-.214.118-.431.229-.644.353-11.383-11.058-30.188-11.437-42.039.414-7.68 7.681-10.479 18.729-7.813 28.82-.624.287-1.229.6-1.826.925-5.789-5.188-14.846-5.259-20.625.52-5.079 5.079-5.927 13.104-1.821 18.997 8.515 12.221 13.152 27.334 12.115 43.543l.012-.001c-1.183 16.502-8.366 32.21-19.954 43.937v84.746h84.746c69.982-69.982 73.506-180.198 11.105-254.358"/><path fill="#e8b5b1" d="M304.415 304.415c-11.091 11.226-26.205 18.809-43.939 19.942-12.648.808-24.972-1.841-35.867-7.482-11.582-5.997-25.716-3.768-34.938 5.454-12.078 12.078-12.107 31.869-.838 43.167a127 127 0 0 1-4.762-3.068c-12.161-8.244-28.522-6.545-38.674 4.192-12.867 13.607-9.727 35.568 5.823 46.005 74.117 49.745 173.685 40.792 237.942-23.465-46.806 0-84.747-37.942-84.747-84.745"/><path d="M82.354 204.924C14.418 215.12 17.867 364.39 89.235 364.39a38.7 38.7 0 0 0 18.512-4.695 182.5 182.5 0 0 0 22.172 26.011c-.405 13.31 6.13 25.772 17.119 33.147 83.816 56.255 185.23 37.181 247.405-24.409 73.397-72.706 75.938-187.962 11.561-264.471-6.886-8.184-17.22-10.147-26.33-6.006-13.822-12.964-29.458-23.622-46.571-31.712a7.5 7.5 0 0 0-6.41 13.562 166 166 0 0 1 41.933 28.351c-2.955 5.438-3.368 11.504-1.328 17.25-20.695-.97-37.859 14.953-39.236 34.91-19.504-3.007-33.11 18.912-21.975 34.894 16.772 24.074 14.081 57.061-6.95 77.916-17.842 17.693-46.128 23.996-71.081 11.077-27.627-14.304-59.665 9.478-54.035 40.129-15.787-2.951-31.757 4.534-39.527 18.606a167 167 0 0 1-15.146-18.822 39.4 39.4 0 0 0 8.315-17.657h10.72c16.542 0 30-13.458 30-30v-36.162c0-16.542-13.458-30-30-30h-10.72c-2.943-15.317-14.718-27.493-29.759-30.932a164.4 164.4 0 0 1 9.835-23.996 38.8 38.8 0 0 0 8.683 13.206c49.519 49.519 152.636-47.823 120.517-103.481 21.224-2.447 42.592-.796 62.884 4.765 9.723 2.66 13.394-11.882 3.965-14.467-24.713-6.771-51.596-8.416-78.635-3.751-13.22-9.776-31.495-10.235-45.346-.814-8.092-8.092-14.518-16.359-28.785-16.359-8.014 0-15.547 3.12-21.214 8.787l-25.569 25.571c-11.724 11.722-11.727 30.7-.001 42.426l7.572 7.572a39.2 39.2 0 0 0-3.843 7.132c-11.438 16.229-20.039 34.016-25.613 52.956m97.543 163.737a137 137 0 0 0 13.76 8.202c55.253 28.66 118.45 14.545 158.368-24.837 45.872-45.255 52.046-114.817 19.783-167.216a7.501 7.501 0 0 0-12.773 7.864c28.358 46.056 23.648 108.196-17.543 148.818-35.578 35.085-91.943 47.464-140.927 22.056l-.016-.008c-6.449-3.344-10.786-9.377-11.898-16.554-2.807-18.11 16.18-31.904 32.511-23.451 31.059 16.08 66.33 8.255 88.578-13.796 26.328-26.095 29.469-67.219 8.657-97.091-2.008-2.881-1.6-6.837.971-9.407 3.366-3.367 8.866-2.724 11.539 1.141 24.576 35.547 21.04 84.593-10.564 115.96-25.504 25.313-65.367 35.122-101.816 18.581a7.5 7.5 0 0 0-9.929 3.73 7.5 7.5 0 0 0 3.729 9.929c42.907 19.473 89.012 7.67 118.54-21.715 35.6-35.427 40.533-89.344 15.596-130.039-6.034-10.921-3.525-21.156 3.169-27.851 9.956-9.957 26.469-8.436 34.354 3.018 36.343 58.062 30.04 136.065-21.339 186.653-48.41 47.666-127.524 61.66-191.279 18.347a7.5 7.5 0 1 0-8.43 12.407c70.12 47.636 157.087 32.24 210.303-20.161 56.92-56.049 62.742-141.657 24.138-204.169-12.185-19.766-18.073-20.983-16.003-26.799 1.54-4.332 8.496-8.173 13.152-2.641 58.875 69.97 57.767 176.259-10.844 244.052-57.451 56.767-151.03 74.57-228.285 22.715-5.817-3.904-9.596-10.111-10.368-17.028-2.06-18.469 18.272-31.56 34.866-20.71m-66.511-124.852c0 9.945-7.994 18.035-17.82 18.035-7.034 0-12.757-5.8-12.757-12.928 0-4.142-3.357-7.5-7.5-7.5s-7.5 3.358-7.5 7.5c0 15.399 12.452 27.928 27.757 27.928 15.534 0 28.572-10.922 31.957-25.535h10.863c8.271 0 15 6.729 15 15v36.162c0 8.271-6.729 15-15 15h-10.863c-3.385-14.613-16.423-25.535-31.957-25.535-15.305 0-27.757 12.529-27.757 27.928 0 4.142 3.357 7.5 7.5 7.5s7.5-3.358 7.5-7.5c0-7.128 5.723-12.928 12.757-12.928 9.826 0 17.82 8.09 17.82 18.035 0 13.465-10.834 24.419-24.15 24.419-54.338 0-54.221-130 0-130 13.316 0 24.15 10.954 24.15 24.419m1.462-138.368 25.569-25.571c5.863-5.861 15.351-5.864 21.214 0l7.675 7.675c-7.809 12.465-6.674 29.438 4.547 40.66 18.885 18.885 50.242.14 39.375-10.728a7.5 7.5 0 0 0-10.607 0c-5.05 5.05-13.177 5.104-18.161.121-6.962-6.962-6.9-18.302.152-25.354 9.387-9.388 24.767-9.765 34.343-.189 38.407 38.405-53.566 130.283-91.923 91.924-9.426-9.425-9.369-24.786.189-34.344 7.03-7.031 18.406-7.1 25.354-.152 4.974 4.974 4.919 13.121-.122 18.162a7.5 7.5 0 0 0 .001 10.607 7.5 7.5 0 0 0 10.606 0c10.889-10.89 10.943-28.553.121-39.375-10.985-10.985-27.927-12.48-40.652-4.541l-7.682-7.681c-5.86-5.86-5.864-15.35.001-21.214"/><path d="M322.426 160.109c12.505-12.504 5.663-33.661-11.245-36.931-7.004-18.876-33.966-18.865-40.966 0-17.009 3.289-23.658 24.518-11.245 36.931l16.253 16.252c8.548 8.582 22.415 8.537 30.944.007zm-31.735 7.66c-3.761 0-3.588-.739-21.115-18.266-4.32-4.32-1.236-11.717 4.833-11.717 1 0 3.944.763 6.79-1.649a7.5 7.5 0 0 0 2.646-5.485c.117-3.729 3.128-6.65 6.853-6.65s6.734 2.921 6.853 6.65a7.5 7.5 0 0 0 2.646 5.484c4.388 3.716 7.604-.371 11.622 3.648l.001.001a6.866 6.866 0 0 1-.001 9.718c-17.643 17.643-17.374 18.266-21.128 18.266M278.984 225.507l5.304-5.303a7.5 7.5 0 1 0-10.605-10.607l-5.304 5.303a7.5 7.5 0 1 0 10.605 10.607M281.239 293.646l12-12c8.794-8.795 8.793-23.025 0-31.819-8.791-8.793-23.027-8.796-31.82 0l-12 12c-8.772 8.773-8.771 23.047 0 31.819 8.79 8.793 23.027 8.795 31.82 0m-21.213-21.213 12-12a7.495 7.495 0 0 1 10.605 0 7.494 7.494 0 0 1 0 10.606l-12 12a7.494 7.494 0 0 1-10.605 0c-2.924-2.924-2.924-7.682 0-10.606M182.833 262.802v7.5c0 4.142 3.357 7.5 7.5 7.5s7.5-3.358 7.5-7.5v-7.5c0-4.142-3.357-7.5-7.5-7.5s-7.5 3.358-7.5 7.5M212.551 274.768a7.5 7.5 0 0 0-.001 10.606l4.656 4.657a7.5 7.5 0 0 0 10.606.001 7.5 7.5 0 0 0 .001-10.606l-4.656-4.657a7.5 7.5 0 0 0-10.606-.001M248.828 232.222v-16.971c0-12.406-10.093-22.5-22.498-22.5h-.003c-12.434 0-22.5 10.063-22.498 22.5v16.971c0 12.407 10.094 22.5 22.5 22.5h.001c12.435 0 22.5-10.064 22.498-22.5m-15 .001a7.494 7.494 0 0 1-7.498 7.499h-.001c-4.136 0-7.5-3.364-7.5-7.5V215.25a7.495 7.495 0 0 1 7.499-7.499h.001c4.135 0 7.499 3.364 7.499 7.5z"/><path d="M256 0C114.509 0 0 114.497 0 256c0 61.428 22.085 120.828 62.188 167.256a7.5 7.5 0 0 0 11.351-9.805C35.79 369.747 15 313.829 15 256 15 123.112 123.112 15 256 15s241 108.112 241 241-108.112 241-241 241c-60.139 0-117.732-22.276-162.171-62.724a7.501 7.501 0 0 0-10.098 11.093C130.939 488.337 192.118 512 256 512c141.491 0 256-114.497 256-256C512 114.509 397.503 0 256 0"/></svg>