<svg xmlns="http://www.w3.org/2000/svg" width="512" height="512"><path fill="#e8b5b1" d="M319.685 106h-177.5c-20.544 0-37.748 15.563-39.8 36.005L73.727 427.509c-4.137 41.217 28.226 76.991 69.65 76.991h188.041V119.224z"/><path fill="#f2d4d3" d="m438.271 427.509-28.658-285.504c-2.052-20.441-19.256-36.005-39.8-36.005h-50.128c-47.512 0-87.299 35.993-92.044 83.268l-10.835 107.948 45.527 45.527-52.706 52.706c6.615 60.687 58.075 109.052 121.792 109.052h37.203c41.422-.001 73.786-35.775 69.649-76.992"/><path fill="#70dcba" d="M385.676 207.046c-1.761-15.501-14.091-27.816-29.613-29.574-29.72-3.367-60.636 6.319-83.431 29.084-11.468 11.453-19.607 24.963-24.449 39.338v51.641l22.009 45.208c0-16.004 12.974-28.978 28.978-28.978 21.3 0 41.934-8.102 57.062-23.077l.321-.32c22.795-22.766 32.494-53.642 29.123-83.322"/><path fill="#30cd9c" d="M248.183 245.896v-.002a91.2 91.2 0 0 0-19.449-28.694c-20.532-20.505-48.378-29.23-75.147-26.197-13.981 1.584-25.087 12.676-26.673 26.638-3.036 26.734 5.699 54.545 26.231 75.05l.289.287c13.626 13.488 32.211 20.786 51.396 20.786h9.009c16.004 0 28.978 12.974 28.978 28.978v34.534h.362l13.144 13.506 13.506-13.506h.362v-34.534c0-16.004 12.974-28.978 28.978-28.978-30.203-8.756-50.986-36.42-50.986-67.868"/><path fill="#ff8e9e" d="M291.863 341.583a46.7 46.7 0 0 0-26.374 8.137 16.8 16.8 0 0 1-7.403 2.801l-24.73 7.729v97.004h56.648c24.36-17.236 48.57-39.072 48.57-69.046-.001-25.75-20.914-46.625-46.711-46.625"/><path fill="#ea5b70" d="M241.424 388.208c0-14.325 6.478-27.135 16.662-35.688a16.77 16.77 0 0 1-11.577-2.801 46.7 46.7 0 0 0-26.374-8.137c-25.797 0-46.711 20.875-46.711 46.626 0 36.932 36.719 61.84 68.18 82.065a26.63 26.63 0 0 0 28.792-.003c7.954-5.114 13.987-9.041 19.607-13.017a231 231 0 0 1-13.624-10.402c-16.275-13.372-34.955-32.123-34.955-58.643"/><path fill="#d6948c" d="M255.999 7.5c-54.313 0-98.5 44.187-98.5 98.5v25.231c0 8.284 6.716 15 15 15s15-6.716 15-15V106c0-37.771 30.729-68.5 68.5-68.5s68.5 30.729 68.5 68.5v25.231c0 8.284 6.716 15 15 15s15-6.716 15-15V106c0-54.313-44.187-98.5-98.5-98.5"/><path d="m445.733 426.76-3.958-39.436a7.497 7.497 0 0 0-8.212-6.714 7.5 7.5 0 0 0-6.714 8.212l3.959 39.438c3.733 37.142-25.555 68.74-62.188 68.74H143.377c-36.61 0-65.917-31.571-62.187-68.742l28.657-285.504a32.4 32.4 0 0 1 32.337-29.254h7.814v17.731c0 12.406 10.094 22.5 22.5 22.5s22.5-10.094 22.5-22.5V113.5h122v17.731c0 12.406 10.094 22.5 22.5 22.5s22.5-10.094 22.5-22.5V113.5h7.814a32.4 32.4 0 0 1 32.337 29.254l21.703 216.218a7.5 7.5 0 1 0 14.926-1.498l-21.703-216.218A47.355 47.355 0 0 0 369.813 98.5h-8.083C357.869 43.539 311.925 0 255.999 0c-18.022 0-35.836 4.626-51.515 13.379a7.5 7.5 0 0 0 7.31 13.098C225.245 18.969 240.53 15 255.999 15c50.178 0 91 40.822 91 91v25.231c0 4.136-3.364 7.5-7.5 7.5s-7.5-3.364-7.5-7.5V106c0-41.906-34.094-76-76-76s-76 34.094-76 76v25.231c0 4.136-3.364 7.5-7.5 7.5s-7.5-3.364-7.5-7.5V106c0-23.359 8.875-45.582 24.99-62.574a7.5 7.5 0 0 0-.28-10.603 7.5 7.5 0 0 0-10.603.28C162.068 51.067 151.98 74.055 150.263 98.5h-8.079a47.357 47.357 0 0 0-47.263 42.756L66.264 426.761C61.658 472.843 97.978 512 143.377 512h225.244c45.524 0 81.729-39.309 77.112-85.24M255.999 45c31.095 0 56.812 23.392 60.522 53.5H195.476c3.711-30.108 29.428-53.5 60.523-53.5"/><path d="M299.17 321.265c25.919 0 49.964-10.944 67.707-30.816 19.897-22.283 29.711-53.778 26.251-84.249-2.14-18.828-17.373-34.044-36.221-36.18-46.774-5.307-89.507 19.531-109.495 58.454-20.152-31.405-56.437-49.254-94.67-44.923-17.318 1.962-31.314 15.943-33.28 33.243-3.141 27.653 5.772 56.245 23.842 76.484 16.114 18.047 37.965 27.986 61.527 27.986h9.009c9.417 0 17.42 6.101 20.311 14.551-32.364-8.817-68.227 15.005-68.227 52.394 0 42.33 43.103 70.038 71.623 88.373 11.208 7.206 25.693 7.206 36.904-.003 28.521-18.337 71.621-46.049 71.621-88.37 0-36.917-35.013-60.667-67.109-52.676 2.973-8.302 10.896-14.268 20.207-14.268m31.903 66.944c0 31.522-30.62 53.82-64.733 75.753a19.16 19.16 0 0 1-20.68.003c-34.114-21.931-64.735-44.227-64.735-75.756 0-31.464 35.39-50.058 61.35-32.299 8.211 5.616 19.242 5.615 27.449 0 25.935-17.743 61.349.825 61.349 32.299m-68.377-45.631c-1.595 1.022-6.15 4.852-12.377.672 0-21.556-17.106-36.985-36.479-36.985h-9.009c-19.231 0-37.108-8.16-50.338-22.977-15.269-17.102-22.793-41.326-20.127-64.801 1.185-10.424 9.623-18.849 20.064-20.032 37.904-4.281 72.595 17.059 86.856 50.39 2.71 6.328 11.814 5.947 14.003-.557 4.652-13.811 12.27-26.066 22.642-36.425 20.399-20.374 48.576-30.188 77.286-26.939 11.973 1.356 21.647 11.017 23.006 22.968 2.985 26.292-5.439 53.42-22.535 72.566-14.858 16.642-34.931 25.807-56.519 25.807-20.058 0-36.384 16.274-36.473 36.313"/><path d="M359.928 209.396a7.5 7.5 0 0 0-9.4-4.914c-42.377 13.281-78.167 40.608-102.036 77.608-18.383-30.417-47.647-53.136-82.028-63.228-3.974-1.168-8.142 1.109-9.309 5.084s1.109 8.142 5.084 9.309c36.081 10.592 64.503 36.31 79.217 67.287 2.649 5.403 10.346 5.629 13.299.307 21.695-39.449 57.301-68.59 100.259-82.053a7.5 7.5 0 0 0 4.914-9.4"/></svg>