<svg xmlns="http://www.w3.org/2000/svg" width="512" height="512"><path fill="#9ea2e3" d="m122.644 480.044 40.521-179.081-131.042 88.268a7 7 0 0 0-.506.373C16.29 401.936 7.5 420.28 7.5 439.933c0 35.603 28.965 64.567 64.567 64.567 19.654 0 38.246-9.13 50.577-24.456"/><path fill="#d4d4ff" d="m122.644 480.044 88.404-131.199c28.28 10.234 61.186 4.014 83.858-18.658 8.039-8.039 50.481-53.835 57.635-67.036 8.143-15.025-11.351-29.641-23.436-17.556l-58.938 58.938c-5.776 5.776-15.139 5.776-20.915 0s-5.775-15.139 0-20.915l58.941-58.941c5.776-5.776 5.775-15.14 0-20.915s-15.139-5.776-20.915 0l-58.941 58.941c-5.776 5.776-15.139 5.776-20.915 0s-5.776-15.139 0-20.915l58.938-58.938c12.085-12.085-2.53-31.58-17.556-23.436-13.201 7.155-58.997 49.596-67.036 57.635-22.688 22.688-28.867 55.619-18.603 83.912-42.494 49.14-57.779 116.448-40.521 179.083"/><path fill="#70dcba" d="M460.013 264.843c0-138.115-60.855-232.461-197.973-253.121H229v65.649l209.242 209.242z"/><path fill="#30cd9c" d="m498.666 303.496-38.653-38.653c-7.927 0-15.08 3.282-20.199 8.552.095-.098.183-.204.279-.301L245.301 78.301c-20.832-20.832-12.965-56.829 15.015-66.049a44 44 0 0 1 1.725-.53C242.358 8.757 222.4 7.501 202.686 7.5a28.1 28.1 0 0 0-19.932 8.253c-5.099 5.097-8.254 12.138-8.254 19.917v.001c0 12.058.474 23.925 1.455 35.546 10.573 125.16 80.255 221.796 255.888 221.796l38.652 38.652c7.779 7.779 20.392 7.779 28.171 0 3.89-3.889 5.834-8.987 5.834-14.085s-1.944-10.195-5.834-14.084"/><path d="M330.848 242.684a7.5 7.5 0 0 0 6.969 13.283c19.778-10.376 42.624-13.873 64.581-9.962l18.3 18.3a7.501 7.501 0 0 0 10.607-10.607l-18.3-18.3c-3.912-21.977-.409-44.84 9.986-64.629a7.5 7.5 0 0 0-3.152-10.127 7.5 7.5 0 0 0-10.127 3.152c-8.934 17.007-13.433 35.995-13.259 55.052l-38.896-38.896a126.94 126.94 0 0 1 15.672-87.657 7.5 7.5 0 0 0-12.906-7.644c-14.118 23.838-20.875 51.02-19.728 78.34l-51.69-51.69a88.3 88.3 0 0 1 10.114-58.715 7.5 7.5 0 0 0-13.053-7.389 103.3 103.3 0 0 0-13.387 49.779l-35.075-35.075a37.14 37.14 0 0 1 2.127-18.599 7.5 7.5 0 0 0-4.294-9.698 7.495 7.495 0 0 0-9.698 4.294 52.3 52.3 0 0 0-2.669 9.469l-4.062-4.061a7.5 7.5 0 0 0-10.607 10.607l4.067 4.068a52.4 52.4 0 0 0-9.445 2.65 7.5 7.5 0 0 0 5.396 13.996 37.14 37.14 0 0 1 18.577-2.119l35.074 35.074a103.3 103.3 0 0 0-49.699 13.341 7.5 7.5 0 0 0 7.377 13.061 88.3 88.3 0 0 1 58.647-10.076l51.678 51.678c-27.302-1.139-54.471 5.611-78.295 19.716a7.503 7.503 0 0 0-2.633 10.275 7.5 7.5 0 0 0 10.275 2.633 126.94 126.94 0 0 1 87.609-15.668l38.914 38.914c-19.031-.173-38.001 4.315-54.995 13.23"/><path d="m503.97 298.191-36.466-36.466c-.09-13.607-.764-26.855-2.006-39.427-.407-4.122-4.081-7.122-8.202-6.726a7.5 7.5 0 0 0-6.726 8.202c1.196 12.092 1.837 24.855 1.926 37.978l-1.952 1.952a7.5 7.5 0 0 0 0 10.607 7.494 7.494 0 0 0 9.344 1.012l33.475 33.474c4.854 4.852 4.854 12.711 0 17.563-4.852 4.854-12.709 4.854-17.563 0l-33.474-33.474c4.803-7.496-5.295-15.664-11.62-9.344l-1.94 1.94C263.447 284.371 182 192.896 182 35.67 182 24.272 191.272 15 202.67 15c93.445 0 161.893 27.97 203.438 83.132 19.651 26.094 33.228 58.594 40.351 96.597a7.502 7.502 0 0 0 14.744-2.764c-7.553-40.295-22.059-74.9-43.112-102.856-23.148-30.735-54.483-53.879-93.134-68.788C290.003 6.837 248.859 0 202.67 0 183.002 0 167 16.002 167 35.671c0 52.472 8.798 106.853 34.636 152.746-11.739 10.542-21.528 19.689-25.17 23.33-23.416 23.418-30.698 56.618-22.179 86.153l-87.062 58.645a7.5 7.5 0 1 0 8.381 12.441l91.751-61.803a7.5 7.5 0 0 0 2.859-8.779c-9.255-25.503-3.854-55.339 16.857-76.051 3.324-3.325 12.193-11.605 22.519-20.916a205 205 0 0 0 11.661 15.915l-19.134 19.134c-8.69 8.691-8.69 22.831 0 31.522 8.709 8.709 22.811 8.712 31.522-.002l19.372-19.373a202 202 0 0 0 11.938 8.68l-21.003 21.001c-8.708 8.71-8.712 22.811 0 31.521 8.709 8.711 22.81 8.714 31.522.001l30.784-30.784a257 257 0 0 0 18.933 6.737c-14.291 16.578-30.919 34.429-35.584 39.094-20.734 20.732-50.548 26.122-76.003 16.909a7.5 7.5 0 0 0-8.771 2.861l-88.222 130.928C105.538 489.198 89.321 497 72.067 497 40.601 497 15 471.399 15 439.933c0-17.37 7.771-33.585 21.312-44.48l14.41-9.706a7.5 7.5 0 1 0-8.379-12.441c-15.056 10.141-14.581 9.78-15.428 10.455C9.811 397.522 0 417.997 0 439.933 0 479.671 32.329 512 72.067 512c21.92 0 42.485-9.934 56.421-27.255.312-.389 85.346-126.612 85.625-127.025 29.164 8.381 62.423 1.443 86.097-22.229 5.455-5.455 25.342-26.821 40.887-45.236 26.401 6.604 55.636 10.04 87.628 10.249l36.467 36.466c10.715 10.713 28.06 10.718 38.777 0 5.179-5.179 8.03-12.064 8.03-19.389s-2.851-14.211-8.029-19.39m-280.936-40.79a7.285 7.285 0 0 1-10.308 0c-2.843-2.842-2.843-7.466 0-10.308l18.42-18.42a199 199 0 0 0 5.611 5.739 195 195 0 0 0 4.768 4.497zm41.829 41.829a7.285 7.285 0 0 1-10.309-.001 7.287 7.287 0 0 1 0-10.307l23.483-23.482a222 222 0 0 0 13.512 7.102z"/></svg>