<svg xmlns="http://www.w3.org/2000/svg" width="512" height="512"><path fill="#9ea2e3" d="m122.644 480.044 40.521-179.081-131.042 88.268a7 7 0 0 0-.506.373C16.29 401.936 7.5 420.28 7.5 439.933c0 35.603 28.965 64.567 64.567 64.567 19.654 0 38.246-9.13 50.577-24.456"/><path fill="#d4d4ff" d="m122.644 480.044 88.404-131.199c28.28 10.234 61.186 4.014 83.858-18.658 8.039-8.039 50.481-53.835 57.635-67.036 8.143-15.025-11.351-29.641-23.436-17.556l-58.938 58.938c-5.776 5.776-15.139 5.776-20.915 0s-5.775-15.139 0-20.915l58.941-58.941c5.776-5.776 5.775-15.14 0-20.915s-15.139-5.776-20.915 0l-58.941 58.941c-5.776 5.776-15.139 5.776-20.915 0s-5.776-15.139 0-20.915l58.938-58.938c12.085-12.085-2.53-31.58-17.556-23.436-13.201 7.155-58.997 49.596-67.036 57.635-22.688 22.688-28.867 55.619-18.603 83.912-42.494 49.14-57.779 116.448-40.521 179.083"/><path fill="#30cd9c" d="M121.834 7.701a24.96 24.96 0 0 0-24.188 11.304c-11.45 17.806-2.735 35.281 18.251 38.121 1.23.166 2.448.368 3.674.548a243 243 0 0 0-15.652 11.047c-6.092 4.681-9.982 11.832-10.163 19.509-.437 18.57 18.578 30.4 34.375 23.666l-.012.02c-2.92 4.997-4.059 10.897-2.926 16.571 4.743 23.76 35.127 27.761 46.144 8.169a192 192 0 0 1 10.929-17.234c11.612-16.326 35.393-18.177 49.214-3.676l.245.257 9.028 9.891 36.549-33.693L267.79 81.8c-39.32-41.407-90.951-67.076-145.956-74.099"/><path fill="#ffb39d" d="m499.81 269.591-44.431-99.633-6.501-6v-8.579c-12.207-27.374-15.4-36.695-26.805-50.611h-10.266V93.832c-15.046-13.959-33.147-22.891-52.108-26.745h-17.357l-2-2.163a110 110 0 0 0-13.006.477l-86.58 60.491 213.142 205.386 49.663-49.663a54 54 0 0 0-3.751-12.024"/><path fill="#ff8f71" d="M503.56 281.616c-11.087 2.825-22.983 1.59-33.295-3.666l-119.378-60.838c-43.326-22.078-62.245-73.827-43.86-119.663 4.694-11.703 10.793-22.647 20.309-32.048-23.265 2.26-45.979 11.999-64.25 29.325a108.2 108.2 0 0 0-22.77 30.951c-5.841 11.917-9.358 24.664-10.587 37.577l.011 20.841c2.042 21.126 10.269 41.746 24.677 58.989h10.381v10.827c7.286 6.631 15.259 12.118 23.697 16.418l91.881 46.825h14.133v7.202l30.931 15.763c19.699 10.041 44.818 7.402 62.12-9.006 13.906-13.189 19.298-31.974 16-49.497"/><path d="M498.276 248.09a7.498 7.498 0 0 0-10.764-3.35c-3.269 1.98-4.386 6.213-2.83 9.704C493.383 273.963 497 279.865 497 292.106c0 34.897-36.935 57.738-68.157 41.799l-29.12-14.861 12.771-12.358a7.52 7.52 0 0 0 .018-10.786c-2.94-2.868-7.715-2.655-10.667.201l-16.255 15.73-93.693-47.815c-7.998-4.081-15.376-9.215-22.034-15.281l15.313-14.542a7.52 7.52 0 0 0 .281-10.619 7.496 7.496 0 0 0-10.604-.281l-15.332 14.56c-14.128-17.273-22.104-38.594-22.756-61.016l18.535-17.924c2.955-2.857 3.333-7.625.57-10.668a7.494 7.494 0 0 0-10.765-.355l-6.476 6.262a101.3 101.3 0 0 1 5.361-18.113c14.612-36.481 48.536-60.747 87.604-63.296l-8.473 8.189c-2.744 2.653-3.286 6.986-1.003 10.045a7.496 7.496 0 0 0 11.241.937l19.069-18.432c19.899 2.775 38.354 11.451 53.448 25.213l-6.405 5.893c-2.81 2.585-3.46 6.906-1.254 10.023a7.495 7.495 0 0 0 11.213 1.213l6.772-6.232c5.741 6.999 10.506 14.675 14.179 22.921l12.529 28.137-30.687 29.705a7.507 7.507 0 0 0 10.441 10.786l26.747-25.892 22.944 51.524c1.687 3.79 6.121 5.489 9.904 3.8s5.482-6.13 3.795-9.918l-41.975-94.26c-28.619-64.284-109.488-90.07-170.633-49.417C240.994 40.374 184.35 8.13 122.784.259c-12.357-1.582-24.695 4.193-31.446 14.706-11.584 18.038-6.52 37.4 10.687 45.865q-1.355 1.012-2.676 2.028c-8.088 6.222-12.859 15.45-13.092 25.316-.424 18.105 13.869 32.544 31.131 33.278-1.37 14.943 8.537 32.007 27.351 35.002 13.476 2.145 26.492-4.096 33.135-15.927a186 186 0 0 1 10.505-16.588c8.918-12.557 27.161-13.897 37.646-2.88l5.474 6.009c-6.031 13.808-9.254 28.213-9.716 43.086-18.085 15.37-39.944 35.789-45.315 41.168-23.472 23.507-30.676 56.776-22.179 86.275l-74.403 50.187a7.52 7.52 0 0 0-2.03 10.426 7.494 7.494 0 0 0 10.411 2.033l79.091-53.35a7.52 7.52 0 0 0 2.859-8.792c-9.191-25.363-3.981-55.291 16.857-76.159 4.401-4.408 20.192-19.202 35.655-32.767.962 7.3 2.608 14.449 4.905 21.369l-25.514 25.55c-8.708 8.723-8.711 22.842-.001 31.566 8.712 8.725 22.81 8.726 31.523-.001l17.03-17.055a113 113 0 0 0 10.297 10.335l-17.019 17.042c-8.714 8.721-8.713 22.844-.002 31.567 8.711 8.721 22.81 8.726 31.521 0L299.983 285l17.786 9.077c-12.208 13.761-24.258 26.625-28.166 30.538-20.717 20.745-50.526 26.167-76.003 16.933a7.496 7.496 0 0 0-8.771 2.865L116.607 475.53c-11.07 13.636-27.286 21.448-44.54 21.448C40.601 496.979 15 471.342 15 439.83c0-17.395 7.771-33.633 21.313-44.543l27.07-18.26a7.52 7.52 0 0 0 2.03-10.426 7.497 7.497 0 0 0-10.411-2.033c-28.904 19.498-27.242 18.336-28.087 19.01C9.811 397.36 0 417.864 0 439.83 0 479.625 32.329 512 72.067 512c21.92 0 42.484-9.948 56.421-27.293.313-.39 85.347-126.791 85.625-127.206 29.136 8.385 62.403 1.464 86.097-22.26 4.298-4.305 18.098-19.051 31.364-34.116l90.458 46.164C463.217 368.305 512 338.208 512 292.106c0-15.997-5.025-24.483-13.724-44.016M176.154 115.233a202 202 0 0 0-11.354 17.931c-4.284 7.629-11.955 9.368-17.707 8.454-12.257-1.951-18.497-15.476-12.45-25.842 3.556-6.227-2.857-13.451-9.452-10.635-10.815 4.616-24.245-3.485-23.938-16.614.123-5.224 2.827-10.367 7.235-13.758a237 237 0 0 1 15.169-10.721c5.779-3.761 3.829-12.725-2.999-13.728-4.146-.63-15.432-1.457-19.406-10.081-2.239-4.858-1.28-10.949 2.702-17.149 3.694-5.754 10.184-8.792 16.93-7.931 53.334 6.818 103.198 32.02 140.565 70.991a115.4 115.4 0 0 0-22.557 26.739c-19.715-21.67-48.998-17-62.738 2.344m46.881 141.806a7.273 7.273 0 0 1-10.308.001 7.3 7.3 0 0 1 0-10.322l21.107-21.138a116 116 0 0 0 7.585 13.048zm41.829 41.89a7.28 7.28 0 0 1-10.309-.001 7.3 7.3 0 0 1 0-10.321l18.371-18.396c4.621 3.124 8.487 5.314 13.005 7.621z"/><path d="M283.767 179.02a7.501 7.501 0 0 0-11.287 9.881l7.904 9.029a7.5 7.5 0 0 0 10.584.703 7.5 7.5 0 0 0 .703-10.584zM367.645 123.779l-7.904-9.028a7.5 7.5 0 0 0-10.583-.702 7.5 7.5 0 0 0-.702 10.583l7.904 9.028a7.5 7.5 0 0 0 11.285-9.881M336.167 142.241h-.017a7.5 7.5 0 0 0-7.483 7.517c.021 8.724-7.657 15.415-16.267 14.241a7.487 7.487 0 0 0-8.44 6.423 7.5 7.5 0 0 0 6.423 8.44 29.34 29.34 0 0 0 23.277-6.989 29.34 29.34 0 0 0 10.007-22.148 7.5 7.5 0 0 0-7.5-7.484"/></svg>