<svg xmlns="http://www.w3.org/2000/svg" width="512" height="512"><path fill="#efedff" d="M310.985 13.623h-100L77.5 256l133.485 242.377h99.999C421.626 473.36 504.5 374.479 504.5 256c0-118.457-82.857-217.358-193.515-242.377"/><g fill="#d4d4ff"><path d="M117.5 256c0-118.335 82.718-217.341 193.485-242.377A249 249 0 0 0 256 7.5C118.757 7.5 7.5 118.757 7.5 256S118.757 504.5 256 504.5c18.89 0 37.29-2.122 54.984-6.123C200.218 473.341 117.5 374.335 117.5 256"/><path d="M304.602 89.438C193.67 57.014 82.5 140.695 82.5 256c0 115.127 110.969 199.046 222.102 166.562C376.688 401.493 429.5 334.803 429.5 256c0-78.802-52.812-145.493-124.898-166.562"/></g><path fill="#8288cb" d="m122.644 480.044 40.521-179.081-131.042 88.268a7 7 0 0 0-.506.373C16.29 401.936 7.5 420.28 7.5 439.933c0 35.603 28.965 64.567 64.567 64.567 19.654 0 38.246-9.13 50.577-24.456"/><path fill="#9ea2e3" d="m122.644 480.044 88.404-131.199c28.28 10.234 61.186 4.014 83.858-18.658 8.039-8.039 50.481-53.835 57.635-67.036 8.143-15.025-11.351-29.641-23.436-17.556l-68.938 68.938c-5.776 5.776-15.139 5.776-20.915 0s-5.775-15.139 0-20.915l68.941-68.941c5.776-5.776 5.775-15.14 0-20.915s-15.139-5.776-20.915 0l-68.941 68.941c-5.776 5.776-15.139 5.776-20.915 0s-5.776-15.139 0-20.915l68.938-68.938c12.085-12.085-2.53-31.58-17.556-23.436-13.201 7.155-58.997 49.596-67.036 57.635-22.688 22.688-28.867 55.619-18.603 83.912-42.494 49.14-57.779 116.448-40.521 179.083"/><path fill="#70dcba" d="M373.358 210.305c0-52.112-42.244-91.791-94.356-91.791h-20.048l-11.66 14.339v89.182l126.064 56.105z"/><path fill="#30cd9c" d="M290.93 195.712a109.18 109.18 0 0 1-31.977-77.198c-12.291 0-23.822 5.551-30.691 14.531-4.052 5.298-6.484 11.787-6.484 19.038v29.887c0 52.894 43.276 96.17 96.17 96.17h55.409z"/><path d="M447.24 85.838a7.5 7.5 0 0 0-10.59-.61 7.5 7.5 0 0 0-.61 10.589C475.351 139.943 497 196.831 497 256c0 132.888-108.112 241-241 241-40.579 0-80.438-10.215-115.788-29.606l33.779-50.131c41.208 21.128 88.025 25.559 132.715 12.498a7.502 7.502 0 0 0-4.209-14.399c-40.415 11.815-82.734 8.01-120.065-10.626l31.68-47.016a87.6 87.6 0 0 0 24.233 3.399c23.366 0 45.336-9.102 61.864-25.628 5.352-5.352 36.059-40.019 44.756-49.851h25.285l12.014 12.014a7.501 7.501 0 0 0 10.607-10.607l-12.014-12.014v-64.729c0-55.677-44.74-99.29-101.856-99.29h-20.048c-24.634 0-44.675 18.423-44.675 41.068v25.097c-8.156 7.361-33.619 30.371-37.813 34.567-23.416 23.418-30.698 56.618-22.179 86.153l-47.075 31.709C95.943 306.912 90 281.639 90 256c0-4.143-3.357-7.5-7.5-7.5S75 251.857 75 256c0 28.622 6.791 56.839 19.667 82.061l-50.062 33.721C25.214 336.433 15 296.577 15 256 15 123.112 123.112 15 256 15a240.76 240.76 0 0 1 159.433 60.303 7.5 7.5 0 1 0 9.926-11.246A255.75 255.75 0 0 0 256 0C114.509 0 0 114.497 0 256c0 43.558 11.09 86.338 32.12 124.19C10.477 394.771 0 417.106 0 439.933c0 14.654 4.392 28.77 12.7 40.82a7.502 7.502 0 0 0 12.35-8.516C18.475 462.703 15 451.532 15 439.933c0-17.37 7.771-33.585 21.313-44.48l131.043-88.269a7.5 7.5 0 0 0 2.859-8.779c-9.235-25.447-3.895-55.297 16.857-76.051 2.732-2.732 16.458-15.227 28.338-25.979a106.3 106.3 0 0 0 5.4 21.419l-28.693 28.693c-8.69 8.691-8.69 22.831 0 31.522 8.71 8.71 22.811 8.711 31.522-.001l21.928-21.928a105 105 0 0 0 11.142 9.474l-22.763 22.762c-8.711 8.713-8.712 22.811 0 31.521 8.708 8.71 22.81 8.715 31.521.001l35.578-35.576c5.54.91 11.187 1.38 16.901 1.38h6.979c-14.21 16.019-31.728 35.646-35.325 39.243-20.734 20.732-50.549 26.122-76.004 16.909a7.5 7.5 0 0 0-8.771 2.861l-88.221 130.928C105.537 489.198 89.321 497 72.066 497a57 57 0 0 1-27.537-7.095 7.497 7.497 0 0 0-10.193 2.93 7.5 7.5 0 0 0 2.93 10.193C47.868 508.898 59.899 512 72.062 512h.006c22.663 0 45.223-10.588 59.735-32.125C169.657 500.908 212.439 512 256 512c141.159 0 256-114.841 256-256 0-62.853-22.999-123.284-64.76-170.162M213.034 267.401a7.285 7.285 0 0 1-10.308 0c-2.843-2.842-2.843-7.466 0-10.308l24.741-24.741a103 103 0 0 0 8.148 12.467zm41.829 41.829a7.285 7.285 0 0 1-10.309-.001 7.284 7.284 0 0 1 0-10.307l25.184-25.183a102.4 102.4 0 0 0 14.378 6.237zm-25.584-128.714v-28.433c0-14.374 13.312-26.068 29.675-26.068h20.048c48.704 0 86.856 37.024 86.856 84.29v49.729l-82.986-82.986a7.5 7.5 0 0 0-10.607 10.607l82.986 82.986h-37.302c-49.721 0-88.67-39.588-88.67-90.125"/><path d="M256 74.897c-4.143 0-7.5 3.357-7.5 7.5s3.357 7.5 7.5 7.5c91.795 0 166 75.531 166 166.103 0 4.143 3.357 7.5 7.5 7.5s7.5-3.357 7.5-7.5c0-101.787-83.447-181.103-181-181.103"/></svg>