<svg xmlns="http://www.w3.org/2000/svg" width="512" height="512"><path fill="#efedff" d="M355.93 138.396H237.36V332.75l118.57 40 118.57-40c0-84.665-48.156-158.077-118.57-194.354"/><path fill="#d4d4ff" d="M355.93 138.396c-29.948-15.43-63.92-24.146-99.93-24.146-120.674 0-218.5 97.826-218.5 218.5l98.833 40 101.027-40c0-84.665 48.157-158.077 118.57-194.354M474.5 332.75H237.36l-49.708 30.878 67.63 99.122H371c43.24 0 79.352-30.228 88.017-70.527H474.5c16.568 0 30-13.314 30-29.737s-13.432-29.736-30-29.736"/><path fill="#9ea2e3" d="M237.653 392.223c-17.902-17.745-18.194-41.729-.292-59.473H37.5c-16.569 0-30 13.313-30 29.737 0 16.423 13.431 29.737 30 29.737h15.483C61.648 432.522 97.76 462.75 141 462.75h183.652c-43.24 0-78.335-30.228-86.999-70.527"/><path fill="#efedff" d="M278.5 55.285h-37.642v77.93H278.5c13.447-7.782 22.5-22.312 22.5-38.965s-9.053-31.183-22.5-38.965"/><path fill="#d4d4ff" d="M256 94.25c0-16.653 9.053-31.183 22.5-38.965A44.77 44.77 0 0 0 256 49.25c-24.853 0-45 20.147-45 45s20.147 45 45 45a44.8 44.8 0 0 0 22.5-6.035c-13.447-7.782-22.5-22.312-22.5-38.965"/><path fill="#70dcba" d="M314.36 164.5h14.549c14.181 0 26.977 10.179 26.977 24.361v21.689c0 37.817-31.956 69.79-69.773 69.79h-40.227v-49.228c.001-37.817 30.657-66.612 68.474-66.612"/><path fill="#30cd9c" d="M205.19 164.5h-17.194c-16.76 0-31.882 12.03-31.882 28.79v25.632c0 44.693 37.767 82.479 82.459 82.479h47.541v-58.178c-.001-44.693-36.231-78.723-80.924-78.723"/><path d="M481.886 325.979c-3.147-104.732-77.388-191.681-176.572-213.812C317.848 77.872 292.197 41.75 256 41.75c-36.212 0-61.831 36.126-49.32 70.409-40.785 9.065-78.052 29.199-108.278 58.61a7.5 7.5 0 1 0 10.46 10.75c29.261-28.472 65.583-47.633 105.298-55.613a52.5 52.5 0 0 0 15.583 13.8 7.5 7.5 0 1 0 7.514-12.982c-11.57-6.696-18.758-19.14-18.758-32.474 0-20.678 16.822-37.5 37.5-37.5s37.5 16.822 37.5 37.5c0 13.331-7.196 25.773-18.781 32.473a7.5 7.5 0 0 0 7.51 12.984 52.5 52.5 0 0 0 15.596-13.798c95.869 19.242 165.619 101.718 169.031 199.341H45.138c1.537-44.702 16.803-86.802 44.404-122.178a7.5 7.5 0 0 0-1.3-10.526 7.5 7.5 0 0 0-10.526 1.3C47.889 232.074 31.509 277.63 30.109 325.98 12.959 329.397 0 344.466 0 362.486c0 20.532 16.822 37.236 37.5 37.236h9.65C58.96 441.33 97.241 470.25 141 470.25h230c17.817 0 35.251-4.813 50.418-13.921a7.5 7.5 0 1 0-7.723-12.859c-12.834 7.707-27.598 11.78-42.695 11.78H141c-35.496 0-66.964-22.862-78.146-55.527h50.13c4.143 0 7.5-3.357 7.5-7.5s-3.357-7.5-7.5-7.5H37.501c-12.406 0-22.5-9.976-22.5-22.236s10.094-22.236 22.5-22.236h437c12.406 0 22.5 9.976 22.5 22.236s-10.094 22.236-22.5 22.236h-75.483c-4.143 0-7.5 3.357-7.5 7.5s3.357 7.5 7.5 7.5h50.141a81.8 81.8 0 0 1-14.647 25.967 7.5 7.5 0 0 0 .933 10.565 7.5 7.5 0 0 0 10.565-.932 96.7 96.7 0 0 0 18.861-35.601h9.631c20.678 0 37.5-16.704 37.5-37.236-.002-18.022-12.964-33.091-30.116-36.507"/><path d="M363.387 210.55v-21.688c0-17.568-15.467-31.861-34.478-31.861H314.36c-19.574 0-38.172 7.167-52.118 19.861C246.946 164.413 227.12 157 205.189 157h-17.193c-21.716 0-39.383 16.279-39.383 36.29v25.632c0 48.774 41.196 89.979 89.959 89.979h44.435l2.5 2.5a7.5 7.5 0 0 0 10.606-10.607l-2.5-2.5v-10.84c38.525-3.914 69.774-37.536 69.774-76.904M328.909 172c9.367 0 19.478 6.446 19.478 16.861v21.688c0 31.229-24.401 57.958-54.773 61.799v-29.129l25.88-25.88a7.5 7.5 0 0 0-10.606-10.607l-17.373 17.373a84.4 84.4 0 0 0-18.488-36.769c11.12-9.81 25.828-15.336 41.333-15.336zm-115.796 45.794a7.5 7.5 0 0 0-10.606 10.607l65.5 65.5h-29.435c-40.632 0-74.959-34.336-74.959-74.979V193.29c0-13.15 12.656-21.29 24.383-21.29h17.193c41.172 0 73.424 31.285 73.424 71.223v40.071z"/></svg>