<svg xmlns="http://www.w3.org/2000/svg" width="512" height="512"><path fill="#9ea2e3" d="M479.057 264.047H32.943c-14.029 0-25.443 11.414-25.443 25.443 0 8.284 6.716 15 15 15 6.696 0 12.366-4.387 14.295-10.443h438.409c1.929 6.056 7.6 10.443 14.295 10.443 8.284 0 15-6.716 15-15 .001-14.029-11.413-25.443-25.442-25.443"/><path fill="#d4d4ff" d="M172.572 222.5v149.181c0 57.614 46.705 104.319 104.319 104.319H346c33.137 0 60-26.863 60-60V222.5z"/><path fill="#9ea2e3" d="M225.993 416V222.5H106V416c0 33.137 26.863 60 60 60h119.993c-33.137 0-60-26.863-60-60"/><path fill="#8288cb" d="M406 207.5h-60l-67.242 10-82.758-10h-30l-15 10-15-10h-30c-8.284 0-15 6.716-15 15s6.716 15 15 15h300c8.284 0 15-6.716 15-15s-6.716-15-15-15"/><path fill="#70dcba" d="m226 207.5-10 42.401 10 52.599c0-8.284 6.716-15 15-15s15 6.716 15 15 6.716 15 15 15 15-6.716 15-15v-50c0-8.284 6.716-15 15-15s15 6.716 15 15v90c0 8.284 6.716 15 15 15s15-6.716 15-15v-135z"/><g fill="#30cd9c"><path d="M136 256.332c0 8.284 6.716 15 15 15s15-6.716 15-15V207.5h-30zM226 207.5h-30v115c0 8.284 6.716 15 15 15 8.239 0 14.92-6.644 14.993-14.865.008-110.127.007-85.719.007-115.135"/></g><ellipse cx="172.153" cy="422.49" fill="#ff8e9e" rx="30.938" ry="24.637"/><ellipse cx="339.847" cy="422.49" fill="#ff8e9e" rx="30.938" ry="24.637"/><ellipse cx="256" cy="403.561" fill="#4c5699" rx="16.423" ry="18.377"/><path fill="#70dcba" d="M314.36 36h14.549c14.181 0 26.977 10.179 26.977 24.361V82.05c0 37.817-31.956 69.79-69.773 69.79h-40.227v-49.228C245.887 64.795 276.543 36 314.36 36"/><path fill="#30cd9c" d="M205.19 36h-17.194c-16.76 0-31.882 12.03-31.882 28.79v25.632c0 44.693 37.767 82.479 82.459 82.479h47.541v-58.178C286.113 70.03 249.883 36 205.19 36"/><path d="M479.057 256.548H413.5V243.71c8.729-3.096 15-11.433 15-21.21 0-12.406-10.094-22.5-22.5-22.5H106c-12.406 0-22.5 10.094-22.5 22.5 0 9.777 6.271 18.114 15 21.21v12.838H32.943C14.778 256.548 0 271.326 0 289.49c0 12.406 10.094 22.5 22.5 22.5 7.874 0 14.964-4.03 19.013-10.442H98.5v76.383c0 4.143 3.357 7.5 7.5 7.5s7.5-3.357 7.5-7.5V237.5c0-4.143-3.357-7.5-7.5-7.5-4.136 0-7.5-3.364-7.5-7.5s3.364-7.5 7.5-7.5h22.5v41.332c0 12.406 10.094 22.5 22.5 22.5s22.5-10.094 22.5-22.5V215h15v107.5c0 12.406 10.094 22.5 22.5 22.5 12.294 0 22.387-10.002 22.498-22.364V302.5c0-4.136 3.365-7.5 7.502-7.5s7.5 3.364 7.5 7.5c0 12.406 10.094 22.5 22.5 22.5s22.5-10.094 22.5-22.5v-50c0-4.136 3.364-7.5 7.5-7.5s7.5 3.364 7.5 7.5v90c0 12.406 10.094 22.5 22.5 22.5s22.5-10.094 22.5-22.5V215H406c4.136 0 7.5 3.364 7.5 7.5s-3.364 7.5-7.5 7.5h-30c-4.141 0-7.5 3.37-7.5 7.5 0 4.14 3.359 7.5 7.5 7.5h22.5v171c0 28.948-23.552 52.5-52.5 52.5H166c-28.948 0-52.5-23.552-52.5-52.5v-7.958c0-4.143-3.357-7.5-7.5-7.5s-7.5 3.357-7.5 7.5V416c0 37.22 30.28 67.5 67.5 67.5h180c37.22 0 67.5-30.28 67.5-67.5V301.548h56.987c4.049 6.412 11.139 10.442 19.013 10.442 12.406 0 22.5-10.094 22.5-22.5 0-18.164-14.778-32.942-32.943-32.942m-442.262 30a7.5 7.5 0 0 0-7.146 5.224 7.47 7.47 0 0 1-7.148 5.219c-4.136 0-7.5-3.364-7.5-7.5 0-9.894 8.05-17.942 17.943-17.942H98.5v15zM158.5 256.332c0 4.136-3.364 7.5-7.5 7.5s-7.5-3.364-7.5-7.5V215h15zm180 86.168c0 4.136-3.364 7.5-7.5 7.5s-7.5-3.364-7.5-7.5v-90c0-12.406-10.094-22.5-22.5-22.5s-22.5 10.094-22.5 22.5v50c0 4.136-3.364 7.5-7.5 7.5s-7.5-3.364-7.5-7.5c0-12.406-10.094-22.5-22.5-22.5s-22.502 10.094-22.502 22.5v20.068c-.037 4.098-3.4 7.432-7.498 7.432-4.136 0-7.5-3.364-7.5-7.5V215h135zm151-45.51a7.47 7.47 0 0 1-7.148-5.219 7.5 7.5 0 0 0-7.146-5.224H413.5v-15h65.557c9.894 0 17.943 8.049 17.943 17.942 0 4.137-3.364 7.501-7.5 7.501"/><path d="M184.825 392.76v-12c0-4.143-3.357-7.5-7.5-7.5s-7.5 3.357-7.5 7.5v12c0 4.143 3.357 7.5 7.5 7.5s7.5-3.358 7.5-7.5M279.923 403.561c0-14.269-10.731-25.877-23.923-25.877s-23.923 11.608-23.923 25.877 10.731 25.877 23.923 25.877 23.923-11.609 23.923-25.877m-32.846 0c0-5.998 4.003-10.877 8.923-10.877s8.923 4.879 8.923 10.877-4.003 10.877-8.923 10.877-8.923-4.879-8.923-10.877M342.175 392.76v-12c0-4.143-3.357-7.5-7.5-7.5s-7.5 3.357-7.5 7.5v12c0 4.143 3.357 7.5 7.5 7.5s7.5-3.358 7.5-7.5M238.573 180.401h44.434l2.5 2.5a7.5 7.5 0 0 0 10.606-10.607l-2.5-2.5v-10.843c12.137-1.228 23.886-5.414 34.349-12.308a7.5 7.5 0 0 0 2.137-10.389 7.5 7.5 0 0 0-10.389-2.137c-7.993 5.266-16.897 8.567-26.097 9.737v-29.135l25.88-25.88a7.5 7.5 0 0 0-10.606-10.607l-17.373 17.373a84.4 84.4 0 0 0-18.488-36.769c11.122-9.81 25.829-15.336 41.334-15.336h14.549c9.367 0 19.478 6.446 19.478 16.861V82.05c0 11.627-3.421 23.075-9.894 33.106a7.5 7.5 0 1 0 12.604 8.132c8.04-12.462 12.29-26.722 12.29-41.239V60.361c0-17.568-15.467-31.861-34.478-31.861H314.36c-19.574 0-38.172 7.167-52.118 19.86-15.296-12.447-35.121-19.86-57.052-19.86h-17.194c-21.716 0-39.383 16.279-39.383 36.29v25.632c0 48.774 41.197 89.979 89.96 89.979M163.613 64.79c0-13.15 12.656-21.29 24.383-21.29h17.194c41.172 0 73.423 31.285 73.423 71.223v40.071l-65.5-65.5a7.5 7.5 0 0 0-10.606 10.607l65.5 65.5h-29.434c-40.633 0-74.96-34.336-74.96-74.979z"/></svg>