<svg xmlns="http://www.w3.org/2000/svg" width="512" height="512"><path fill="#d4d4ff" d="M7.5 202.56c0 74.559 111.257 135 248.5 135v-270c-137.243 0-248.5 60.441-248.5 135"/><path fill="#efedff" d="M256 67.56v270c137.243 0 248.5-60.441 248.5-135s-111.257-135-248.5-135"/><path fill="#d4d4ff" d="m225.178 252.404-79.292 89.292 104.89 134.11h75.226c22.722-4.97 39.667-11.606 61.129-21.475 17.696-8.138 28.983-25.899 28.983-45.377v-156.55z"/><path fill="#9ea2e3" d="M230.533 408.172V251.624h-140v156.548c0 19.478 11.287 37.239 28.983 45.377 64.996 29.891 137.676 37.308 206.486 22.258a325.6 325.6 0 0 1-66.486-22.258c-17.697-8.138-28.983-25.899-28.983-45.377"/><path fill="#d4d4ff" d="M71 194.496c0 83.86 69.413 153.173 159.533 164.3V30.195C140.413 41.322 71 110.635 71 194.496"/><path fill="#efedff" d="M256 28.624c-8.642 0-17.141.543-25.467 1.572-90.74 90.741-90.74 237.86 0 328.601A208 208 0 0 0 256 360.369c102.173 0 185-74.264 185-165.872S358.173 28.624 256 28.624"/><g fill="#ff8e9e"><path d="M177 397.413c-16.016 0-29 10.297-29 23s12.984 23 29 23 29-10.298 29-23-12.984-23-29-23M335 397.413c-16.016 0-29 10.297-29 23s12.984 23 29 23 29-10.298 29-23-12.984-23-29-23"/></g><path fill="#70dcba" d="M314.902 219.42c0-44.693-36.23-78.723-80.923-78.723h-17.194l-10 12.297v76.486l108.118 48.118V219.42z"/><path fill="#30cd9c" d="M244.208 206.904a93.63 93.63 0 0 1-27.424-66.208c-10.541 0-20.431 4.761-26.322 12.462-3.475 4.543-5.561 10.109-5.561 16.328v25.632c0 45.364 37.115 82.479 82.479 82.479h47.521z"/><path d="M201.407 397.79v-12c0-4.143-3.357-7.5-7.5-7.5s-7.5 3.357-7.5 7.5v12c0 4.143 3.357 7.5 7.5 7.5s7.5-3.358 7.5-7.5M326.407 397.79v-12c0-4.143-3.357-7.5-7.5-7.5s-7.5 3.357-7.5 7.5v12c0 4.143 3.357 7.5 7.5 7.5s7.5-3.358 7.5-7.5M277.525 402.341a7.5 7.5 0 0 0-11.309-9.855c-5.725 6.569-15.898 6.565-21.621-.001a7.5 7.5 0 0 0-11.307 9.857c11.708 13.428 32.544 13.416 44.237-.001M233.979 133.197h-17.194c-21.715 0-39.382 16.279-39.382 36.29v25.632c0 49.615 40.364 89.98 89.979 89.98h44.415l2.5 2.5a7.5 7.5 0 0 0 10.606-10.607l-2.5-2.5V219.42c-.001-48.35-38.841-86.223-88.424-86.223m73.423 126.294-65.5-65.501a7.5 7.5 0 0 0-10.606 10.607l65.5 65.5h-29.415c-41.344 0-74.979-33.636-74.979-74.98v-25.632c0-13.15 12.656-21.29 24.382-21.29h17.194c41.172 0 73.424 31.285 73.424 71.223z"/><path d="M484.461 137.79a7.5 7.5 0 0 0-11.096 10.094C489.048 165.122 497 183.517 497 202.56c0 34.291-26.584 67.13-73.386 91.242V279.77c16.274-25.907 24.886-55.334 24.886-85.274 0-4.143-3.357-7.5-7.5-7.5s-7.5 3.357-7.5 7.5c0 27.785-8.189 55.122-23.682 79.058-70.179 108.424-248.994 105.48-312.739-8.473C84.751 243.042 78.5 219.294 78.5 194.496c0-4.143-3.357-7.5-7.5-7.5s-7.5 3.357-7.5 7.5c0 26.732 6.583 52.334 19.533 76.139v20.312C39.636 267.126 15 235.345 15 202.56c0-38.625 34.422-75.795 92.342-100.054l1.767 1.766a7.5 7.5 0 0 0 10.606-.001 7.5 7.5 0 0 0-.001-10.606l-.279-.279c70.957-76.35 202.129-76.439 273.138 0l-.279.279a7.5 7.5 0 0 0 10.607 10.607l1.768-1.768c18.072 7.567 34.021 16.43 47.455 26.39a7.496 7.496 0 0 0 10.491-1.558 7.5 7.5 0 0 0-1.558-10.491c-15.17-11.248-33.22-21.151-53.675-29.452-77.766-89.105-226.197-87.586-302.755-.004C53.354 108.202 0 147.292 0 202.56c0 40.317 30.198 78.526 83.033 105.35v61.17c0 4.143 3.357 7.5 7.5 7.5s7.5-3.357 7.5-7.5v-75.499c74.486 96.185 231.183 99.447 310.581 6.594v108.78c0 16.549-9.663 31.686-24.617 38.562-20.822 9.576-37.25 16.075-59.598 20.962a321 321 0 0 1-68.48 7.389c-45.743 0-91.827-10.074-133.27-29.134-14.954-6.876-24.616-22.013-24.616-38.562v-8.995c0-4.143-3.357-7.5-7.5-7.5s-7.5 3.357-7.5 7.5v8.995c0 22.389 13.09 42.875 33.349 52.191 43.395 19.956 91.646 30.505 139.537 30.505 24.104 0 48.224-2.603 71.686-7.734 23.57-5.155 41.451-12.235 62.66-21.988 20.259-9.316 33.35-29.803 33.35-52.19v-98.407C479.853 283.579 512 244.41 512 202.56c0-22.571-9.522-44.969-27.539-64.77"/></svg>