<svg xmlns="http://www.w3.org/2000/svg" width="512" height="512"><path fill="#efedff" d="M500.634 195.383c-5.845-5.846-15.295-5.82-21.164.003C460.4 214.309 434.146 226 405.158 226h-32.431a1086 1086 0 0 0-23.245-75.597V37.5c0-16.568-13.432-30-30-30-16.588 0-30 13.458-30 30L256.5 70.482 223.518 37.5h-26.531v138.521l-36.838 36.838v265.772l25.868 25.868h220.379c16.959 0 30.558-14.048 29.993-30.997a1093.5 1093.5 0 0 0-29.303-217.527c36.38-.511 69.336-15.423 93.414-39.289 5.923-5.871 6.031-15.404.134-21.303"/><path fill="#d4d4ff" d="M223.518 37.5c0-16.551-13.42-30-30-30-16.568 0-30 13.432-30 30v112.904A1085 1085 0 0 0 140.273 226h-32.431c-28.988 0-55.242-11.691-74.312-30.614-5.868-5.823-15.319-5.849-21.164-.003-5.897 5.899-5.789 15.433.135 21.304 24.077 23.866 57.034 38.778 93.414 39.289a1093.4 1093.4 0 0 0-29.304 217.527c-.565 16.949 13.033 30.997 29.992 30.997h79.414a1092 1092 0 0 1 2.302-65.46 1094 1094 0 0 1 3.535-41.98A1094 1094 0 0 1 211.776 274a1093 1093 0 0 1 11.742-48V89.5l10-25.808z"/><path fill="#fff" d="M339 274H211.776l-30.138 30.139V432.36l6.681 6.681 57.018 32.581a22.5 22.5 0 0 0 22.326 0l82.5-47.143a22.5 22.5 0 0 0 11.337-19.536V296.5c0-12.427-10.074-22.5-22.5-22.5"/><path fill="#efedff" d="M211.776 274H174c-12.426 0-22.5 10.073-22.5 22.5v108.442a22.5 22.5 0 0 0 11.337 19.536l25.482 14.562a1094 1094 0 0 1 3.535-41.98A1094 1094 0 0 1 211.776 274"/><path fill="#9ea2e3" d="M289.482 89.5v-52a68.24 68.24 0 0 1-65.964 0v52a68.24 68.24 0 0 0 65.964 0"/><path fill="#70dcba" d="M311.56 306.884c-11.117-5.566-24.631-1.051-30.185 10.06L256.5 366.693h-10v60.371h30.123l44.997-89.994c5.557-11.114 1.051-24.629-10.06-30.186"/><path fill="#30cd9c" d="M256.5 406.941v-40.249l-24.875-49.749c-5.551-11.111-19.062-15.611-30.185-10.06-11.112 5.557-15.617 19.071-10.06 30.186l44.997 89.994a22.5 22.5 0 0 0 40.246 0c-11.114.001-20.123-9.008-20.123-20.122"/><g fill="#ff8e9e"><path d="M187.5 208.812c-16.016 0-29 10.297-29 23s12.984 23 29 23 29-10.298 29-23-12.984-23-29-23M325.5 208.812c-16.016 0-29 10.297-29 23s12.984 23 29 23 29-10.298 29-23-12.984-23-29-23"/></g><path d="M512 205.926c0-5.987-2.33-11.615-6.562-15.847-8.768-8.766-22.935-8.762-31.75-.018-18.482 18.339-42.997 28.438-69.03 28.438h-26.693a1103 1103 0 0 0-7.143-24.931 7.5 7.5 0 1 0-14.37 4.301 1085 1085 0 0 1 8.53 30.072 7.5 7.5 0 0 0 7.244 5.558h32.432c30.018 0 58.285-11.646 79.595-32.79 2.948-2.924 7.662-2.941 10.578-.023 2.955 2.955 2.868 7.721-.111 10.673-23.668 23.46-54.99 36.64-88.202 37.116h-27.571c-4.143 0-7.5 3.357-7.5 7.5s3.357 7.5 7.5 7.5h21.68c16.057 68.909 25.409 139.617 27.765 210.264q.012.392.013.783c0 12.395-10.098 22.478-22.509 22.478H106.104c-12.411 0-22.509-10.084-22.509-22.479q0-.376.013-.769a1089 1089 0 0 1 18.824-168.265 1092 1092 0 0 1 8.937-42.013h21.684c4.143 0 7.5-3.357 7.5-7.5s-3.357-7.5-7.5-7.5h-27.571c-33.211-.477-64.534-13.656-88.204-37.117-2.961-2.934-3.08-7.704-.109-10.672 2.89-2.892 7.606-2.927 10.578.023 21.31 21.145 49.577 32.79 79.595 32.79h32.432a7.5 7.5 0 0 0 7.244-5.558 1084 1084 0 0 1 21.357-70.038h14.643c4.143 0 7.5-3.357 7.5-7.5s-3.357-7.5-7.5-7.5h-12.5V37.5c0-12.406 10.094-22.5 22.5-22.5s22.5 10.094 22.5 22.5v52a7.5 7.5 0 0 0 3.875 6.565 75.77 75.77 0 0 0 73.215 0 7.5 7.5 0 0 0 3.875-6.565v-52c0-12.406 10.094-22.5 22.5-22.5s22.5 10.094 22.5 22.5v105.403h-12.5c-4.143 0-7.5 3.357-7.5 7.5s3.357 7.5 7.5 7.5h14.645c1.318 3.851 2.625 7.712 3.889 11.547a7.5 7.5 0 0 0 14.246-4.698 1103 1103 0 0 0-5.279-15.614V37.5c0-20.678-16.822-37.5-37.5-37.5-19.066 0-34.844 14.307-37.188 32.747a60.73 60.73 0 0 1-51.588.001C227.862 14.307 212.084 0 193.018 0c-20.678 0-37.5 16.822-37.5 37.5v111.639a1098 1098 0 0 0-21.482 69.361h-26.693c-26.033 0-50.548-10.1-69.029-28.438-8.8-8.733-22.971-8.762-31.751.018A22.26 22.26 0 0 0 0 205.927c0 6.08 2.387 11.794 6.72 16.087 24.239 24.024 55.673 38.399 89.333 41.035a1111 1111 0 0 0-8.356 39.625 1104.4 1104.4 0 0 0-19.081 170.571q-.022.641-.021 1.276c0 20.666 16.826 37.479 37.509 37.479h299.793c20.683 0 37.509-16.812 37.509-37.478 0-.417-.007-.836-.021-1.27-2.354-70.614-11.582-141.288-27.438-210.204 33.66-2.636 65.094-17.011 89.332-41.035 4.334-4.295 6.721-10.008 6.721-16.087M230.518 49.075c16.142 5.76 34.052 6.034 50.965 0v35.819c-15.812 7.3-34.415 7.641-50.965.001z"/><path d="M316.907 209.188v-12c0-4.143-3.357-7.5-7.5-7.5s-7.5 3.357-7.5 7.5v12c0 4.143 3.357 7.5 7.5 7.5s7.5-3.357 7.5-7.5M211.907 209.188v-12c0-4.143-3.357-7.5-7.5-7.5s-7.5 3.357-7.5 7.5v12c0 4.143 3.357 7.5 7.5 7.5s7.5-3.357 7.5-7.5M278.025 213.738a7.5 7.5 0 0 0-.728-10.581 7.497 7.497 0 0 0-10.581.728c-5.726 6.57-15.899 6.563-21.62-.001a7.5 7.5 0 0 0-11.309 9.855c11.729 13.454 32.571 13.391 44.238-.001M151.5 369.271a7.5 7.5 0 0 0-7.5 7.5v28.172c0 10.739 5.792 20.721 15.116 26.048l82.499 47.143c4.524 2.586 9.672 3.953 14.886 3.953s10.36-1.367 14.883-3.953l82.5-47.143c9.324-5.327 15.116-15.309 15.116-26.048V296.5c0-16.542-13.458-30-30-30H174c-16.542 0-30 13.458-30 30v50.271c0 4.143 3.357 7.5 7.5 7.5s7.5-3.357 7.5-7.5V296.5c0-8.271 6.729-15 15-15h165c8.271 0 15 6.729 15 15v108.442c0 5.37-2.896 10.36-7.558 13.024L263.94 465.11c-4.521 2.584-10.357 2.585-14.883-.001l-82.5-47.143a15.03 15.03 0 0 1-7.558-13.024V376.77a7.497 7.497 0 0 0-7.499-7.499"/><path d="m283.331 430.419 44.997-89.995c7.396-14.795 1.379-32.85-13.411-40.245-14.824-7.425-32.834-1.426-40.251 13.411L256.5 349.923l-18.165-36.331c-7.388-14.787-25.441-20.805-40.249-13.415-14.793 7.397-20.811 25.452-13.414 40.248l44.997 89.995c11.054 22.095 42.611 22.091 53.662-.001M204.79 313.596c7.399-3.695 16.432-.694 20.128 6.703L249 368.464v3.229c0 4.143 3.357 7.5 7.5 7.5s7.5-3.357 7.5-7.5v-3.229l24.082-48.166c3.699-7.397 12.685-10.427 20.123-6.705 7.396 3.698 10.405 12.726 6.707 20.123l-44.996 89.993c-5.527 11.047-21.305 11.048-26.831.001l-44.997-89.993c-3.698-7.399-.69-16.426 6.702-20.121"/></svg>