<svg xmlns="http://www.w3.org/2000/svg" width="512" height="512"><path fill="#d6948c" d="M268.827 128.302H241.31v134.26h57.517V157.829c0-16.569-13.431-29.527-30-29.527"/><path fill="#e8b5b1" d="M417.596 356.473 193.8 330.518v54.414l80.409 22.83a173 173 0 0 0 47.262 6.579h89.074c14.334 0 25.956-11.62 25.956-25.956v-13.008c-.001-10.44-8.464-18.904-18.905-18.904"/><path fill="#d6948c" d="m157.705 330.518-73.596 25.956v31.912c0 14.335 11.621 25.956 25.956 25.956h57.78c14.335 0 25.956-11.62 25.956-25.956v-3.799c0-13.112 21.384-28.113 21.384-28.113z"/><path fill="#f2d4d3" d="M305.071 257.223h-23.807c-14.335 0-25.956-11.621-25.956-25.956v-57.935l-34.753-34.753-80.685.286V337.12l75.314 19.353h202.412c33.417-77.279-48.263-136.806-112.525-99.25"/><path fill="#70dcba" d="M313.827 188.064c0-8.284-6.716-15-15-15h-51.791c-8.284 0-15 6.716-15 15s6.716 15 15 15h51.791c8.284 0 15-6.716 15-15"/><path fill="#e8b5b1" d="M215.184 356.474c-31.021-45.771-47.962-80.105-47.962-136.194v-81.413h-65.753v113.73c-24.944 31.435-29.733 70.233-17.36 103.878z"/><path fill="#e8b5b1" d="M229.083 112.5h-64.664a24.96 24.96 0 0 0-21.07 11.583l-11.869 18.699 11.869 18.699a24.96 24.96 0 0 0 21.07 11.583h90.619v-34.608c.001-14.335-11.62-25.956-25.955-25.956"/><path fill="#d6948c" d="M139.969 145.378v-5.191c0-15.291 12.396-27.686 27.686-27.686h-66.469c-15.291 0-27.686 12.396-27.686 27.686v5.191c0 15.291 12.396 27.686 27.686 27.686h66.469c-15.291 0-27.686-12.396-27.686-27.686"/><path fill="#70dcba" d="M311.93 241.26c-4.034-7.235-13.168-9.833-20.405-5.8L250.8 258.157c-7.236 4.033-9.833 13.169-5.8 20.405s13.169 9.833 20.405 5.8l40.725-22.697c7.236-4.033 9.833-13.169 5.8-20.405"/><g fill="#ff8e9e"><path d="M166 298.812c-16.017 0-29 10.297-29 23s12.983 23 29 23c16.016 0 29-10.297 29-23s-12.984-23-29-23M344 298.812c-16.016 0-29 10.297-29 23s12.984 23 29 23 29-10.297 29-23-12.984-23-29-23"/></g><path d="M410.545 421.84c18.447 0 33.455-15.008 33.455-33.455v-13.008c0-14.659-11.957-26.407-26.4-26.407l-210.059.004c-4.143 0-7.5 3.357-7.5 7.5s3.357 7.5 7.5 7.5l209.916-.001c.044.001.088.007.133.007.02 0 .038-.004.057-.004 6.265.028 11.353 5.131 11.353 11.402v13.008c0 10.176-8.279 18.455-18.455 18.455h-89.074a165.5 165.5 0 0 1-45.213-6.293l-80.409-22.83c-4.791-1.358-9.549 2.245-9.549 7.215v3.453c0 10.176-8.279 18.455-18.456 18.455h-57.779c-10.176 0-18.455-8.279-18.455-18.455v-24.411h85.838c4.143 0 7.5-3.357 7.5-7.5s-3.357-7.5-7.5-7.5H89.5c-9.344-30.182-3.621-62.818 15.673-88.878h2.868c4.143 0 7.5-3.357 7.5-7.5 0-3.827-2.868-6.979-6.571-7.437v-64.596h49.182c4.143 0 7.5-3.357 7.5-7.5s-3.357-7.5-7.5-7.5h-56.965c-11.13 0-20.186-9.056-20.186-20.187v-5.191C81 129.056 90.056 120 101.186 120h127.898c10.238 0 18.455 8.299 18.455 18.455v27.108H188.15c-4.143 0-7.5 3.357-7.5 7.5s3.357 7.5 7.5 7.5h37.767a22.4 22.4 0 0 0-1.381 7.763c0 12.406 10.094 22.5 22.5 22.5h.772v20.441a33.44 33.44 0 0 0 4.826 17.281l-5.486 3.058c-10.837 6.04-14.739 19.771-8.699 30.607 6.042 10.843 19.776 14.737 30.607 8.699l40.725-22.697a22.34 22.34 0 0 0 9.049-9.413c49.041-20.178 103.262 16.462 98.759 68.136-.33 4.12 2.75 7.75 6.87 8.09 3.953.386 7.73-2.62 8.09-6.859 4.891-61.434-55.57-103.708-112.135-85.896-2.041-7.073-7.361-12.53-14.088-14.911v-17.826c8.729-3.096 15-11.433 15-21.21s-6.271-18.114-15-21.21v-9.287c0-20.416-16.822-37.026-37.5-37.026h-11.323A33.4 33.4 0 0 0 229.083 105H101.186C81.784 105 66 120.784 66 140.186v5.191c0 16.929 12.018 31.101 27.969 34.439v70.211C70.18 281.378 63.724 321.348 76.61 357.744v30.64c0 18.447 15.008 33.455 33.455 33.455h57.779c16.294 0 29.904-11.707 32.86-27.151l71.456 20.288a180.5 180.5 0 0 0 49.311 6.863h89.074zM302.479 255.114l-40.725 22.697a7.496 7.496 0 0 1-10.203-2.9 7.496 7.496 0 0 1 2.9-10.203l13.376-7.455.038-.021 27.311-15.221v-.001c3.628-2.021 8.207-.681 10.203 2.9 2.035 3.653.644 8.227-2.9 10.204m-39.67-23.846v-20.441h28.519v16.536a22.5 22.5 0 0 0-3.454 1.546l-22.108 12.322c-1.898-2.95-2.957-6.395-2.957-9.963m6.018-95.465c12.617 0 22.5 9.675 22.5 22.026v7.997h-28.788v-27.371c0-.89-.045-1.773-.113-2.652zm30 45.023c4.136 0 7.5 3.364 7.5 7.5s-3.364 7.5-7.5 7.5h-51.791c-4.136 0-7.5-3.364-7.5-7.5s3.364-7.5 7.5-7.5z"/><path d="M185.407 302.188v12c0 4.143 3.357 7.5 7.5 7.5s7.5-3.357 7.5-7.5v-12c0-4.143-3.357-7.5-7.5-7.5s-7.5 3.358-7.5 7.5M310.407 302.188v12c0 4.143 3.357 7.5 7.5 7.5s7.5-3.357 7.5-7.5v-12c0-4.143-3.357-7.5-7.5-7.5s-7.5 3.358-7.5 7.5M265.217 308.885c-5.726 6.57-15.899 6.563-21.62-.001a7.5 7.5 0 0 0-11.309 9.855c11.728 13.454 32.569 13.391 44.237-.001a7.5 7.5 0 0 0-.728-10.581 7.497 7.497 0 0 0-10.58.728M143.628 89.451c4.143 0 7.5-3.357 7.5-7.5v-30.43h20.278c4.143 0 7.5-3.357 7.5-7.5s-3.357-7.5-7.5-7.5h-20.278V15h22.675c4.143 0 7.5-3.357 7.5-7.5s-3.357-7.5-7.5-7.5h-30.175a7.5 7.5 0 0 0-7.5 7.5v74.451c0 4.143 3.357 7.5 7.5 7.5M203.44 90c4.143 0 7.5-3.357 7.5-7.5V56.301l27.42 31.154A7.48 7.48 0 0 0 243.993 90a7.5 7.5 0 0 0 5.627-12.455l-21.135-24.014c13.068-2.308 23.005-13.327 23.005-26.54C251.49 12.108 238.887 0 223.396 0h-19.955a7.5 7.5 0 0 0-7.5 7.5v75a7.5 7.5 0 0 0 7.499 7.5m33.05-63.009c0 6.5-5.997 11.992-13.095 11.992-4.757 0-10.83.064-12.455.082V15h12.455c7.098 0 13.095 5.491 13.095 11.991M274.059 89.315h31.313c4.143 0 7.5-3.357 7.5-7.5s-3.357-7.5-7.5-7.5h-23.813V52.157h21.505c4.143 0 7.5-3.357 7.5-7.5s-3.357-7.5-7.5-7.5h-21.505V15h23.813c4.143 0 7.5-3.357 7.5-7.5s-3.357-7.5-7.5-7.5h-31.313a7.5 7.5 0 0 0-7.5 7.5v74.315c0 4.143 3.357 7.5 7.5 7.5M335.059 89.315h31.313c4.143 0 7.5-3.357 7.5-7.5s-3.357-7.5-7.5-7.5h-23.813V52.157h21.505c4.143 0 7.5-3.357 7.5-7.5s-3.357-7.5-7.5-7.5h-21.505V15h23.813c4.143 0 7.5-3.357 7.5-7.5s-3.357-7.5-7.5-7.5h-31.313a7.5 7.5 0 0 0-7.5 7.5v74.315c0 4.143 3.357 7.5 7.5 7.5M200.203 442.69a8.83 8.83 0 0 0-8.274-5.694h-.007a8.81 8.81 0 0 0-7.758 4.631 8 8 0 0 0-.363.727c-.021.05-.051.093-.072.144-.013.032-.021.065-.034.097q-.018.039-.034.078l-22.529 59.155a7.5 7.5 0 1 0 14.018 5.338l3.771-9.901h25.846l3.729 9.881a7.5 7.5 0 0 0 7.018 4.854 7.499 7.499 0 0 0 7.015-10.15zm-15.57 39.574 7.269-19.086 7.203 19.086zM83.151 496.945h-.043a3302 3302 0 0 1-13.468.05v-52.499c0-4.143-3.357-7.5-7.5-7.5s-7.5 3.357-7.5 7.5v59.949a7.5 7.5 0 0 0 6.227 7.391c.535.093.947.164 7.645.164 3.212 0 7.87-.017 14.681-.055a7.5 7.5 0 0 0-.042-15M333.4 436.996a7.5 7.5 0 0 0-7.5 7.5v21.471h-26.52v-21.471c0-4.143-3.357-7.5-7.5-7.5s-7.5 3.357-7.5 7.5v60c0 4.143 3.357 7.5 7.5 7.5s7.5-3.357 7.5-7.5v-23.529h26.52v23.529c0 4.143 3.357 7.5 7.5 7.5s7.5-3.357 7.5-7.5v-60a7.5 7.5 0 0 0-7.5-7.5M388.166 452.544c4.143 0 7.5-3.357 7.5-7.5s-3.357-7.5-7.5-7.5h-25.051a7.5 7.5 0 0 0-7.5 7.5v59.452c0 4.143 3.357 7.5 7.5 7.5h25.051c4.143 0 7.5-3.357 7.5-7.5s-3.357-7.5-7.5-7.5h-17.551V482.27h15.703c4.143 0 7.5-3.357 7.5-7.5s-3.357-7.5-7.5-7.5h-15.703v-14.726zM138.191 452.544c4.143 0 7.5-3.357 7.5-7.5s-3.357-7.5-7.5-7.5H113.14a7.5 7.5 0 0 0-7.5 7.5v59.452c0 4.143 3.357 7.5 7.5 7.5h25.051c4.143 0 7.5-3.357 7.5-7.5s-3.357-7.5-7.5-7.5H120.64V482.27h15.703c4.143 0 7.5-3.357 7.5-7.5s-3.357-7.5-7.5-7.5H120.64v-14.726zM262.208 436.996h-9.567c-.073 0-.144.009-.216.011-.073-.002-.143-.011-.216-.011h-23.136c-4.143 0-7.5 3.357-7.5 7.5s3.357 7.5 7.5 7.5h9.001v52.5c0 4.143 3.357 7.5 7.5 7.5s7.5-3.357 7.5-7.5v-52.5h9.135c4.143 0 7.5-3.357 7.5-7.5s-3.358-7.5-7.501-7.5M440.241 482.215c9.888-2.849 17.119-11.687 17.119-22.125 0-12.734-10.756-23.094-23.976-23.094h-15.963a7.5 7.5 0 0 0-7.5 7.5v60c0 4.143 3.357 7.5 7.5 7.5s7.5-3.357 7.5-7.5v-16.984l19.309 21.939a7.48 7.48 0 0 0 5.633 2.545 7.5 7.5 0 0 0 5.627-12.455zm2.118-22.125c0 4.387-4.11 8.093-8.976 8.093-3.63 0-7.19.045-8.463.063v-16.25h8.463c4.866 0 8.976 3.706 8.976 8.094"/></svg>