<svg xmlns="http://www.w3.org/2000/svg" width="512" height="512"><path fill="#70dcba" d="M385.677 37.726c-1.761-15.501-14.091-27.816-29.613-29.574-29.72-3.367-60.636 6.319-83.431 29.084-11.468 11.453-19.607 24.963-24.449 39.338v51.641l22.009 45.208c0-16.004 12.974-28.978 28.978-28.978 21.3 0 41.934-8.102 57.062-23.077l.321-.32c22.795-22.766 32.493-53.642 29.123-83.322"/><path fill="#30cd9c" d="M248.184 76.576v-.002a91.2 91.2 0 0 0-19.449-28.694c-20.531-20.505-48.377-29.23-75.146-26.197-13.981 1.584-25.087 12.676-26.673 26.638-3.036 26.734 5.699 54.545 26.231 75.05l.289.287c13.626 13.488 32.211 20.786 51.396 20.786h9.009c16.004 0 28.978 12.974 28.978 28.978v34.534h.362l13.144 13.506 13.506-13.506h.362v-34.534c0-16.004 12.974-28.978 28.978-28.978-30.205-8.756-50.987-36.42-50.987-67.868"/><path fill="#efedff" d="M367.165 193.878c-30.046 12.887-64.602 11.602-93.75-3.852a37 37 0 0 0-12.538-3.998l-24.886 24.887V453.2h98.835c36.981-41.703 57.732-95.816 57.732-152.089V210.8c0-13.087-13.365-22.081-25.393-16.922"/><path fill="#d4d4ff" d="M269.422 383.286c-35.174-60.682-38.041-134.423-8.543-197.258a37 37 0 0 0-4.806-.323 37 37 0 0 0-17.341 4.315c-29.179 15.465-63.82 16.747-93.905 3.849-12.026-5.155-25.387 3.84-25.387 16.924v90.317c0 80.258 41.978 154.669 110.67 196.176l.001.001a50 50 0 0 0 25.962 7.213 50 50 0 0 0 25.815-7.213l.001-.001a229 229 0 0 0 52.938-44.087 212.76 212.76 0 0 1-65.405-69.913"/><path fill="#70dcba" d="M335.083 251.574c-15.968-7.995-35.378-1.51-43.356 14.45l-35.728 71.456h-14.363v86.713h43.266l64.631-129.262c7.981-15.964 1.511-35.375-14.45-43.357"/><path fill="#30cd9c" d="M255.999 395.29v-57.81l-35.728-71.456c-7.973-15.96-27.379-22.423-43.356-14.45-15.96 7.982-22.432 27.393-14.45 43.357l64.631 129.262a32.317 32.317 0 0 0 57.806 0c-15.962 0-28.903-12.941-28.903-28.903"/><path d="M364.208 186.984c-28.29 12.135-60.087 10.526-86.516-3.196v-10.366c0-11.843 9.635-21.478 21.479-21.478 18.368 0 35.91-5.405 50.731-15.631a7.5 7.5 0 0 0 1.915-10.432 7.5 7.5 0 0 0-10.433-1.914c-12.306 8.489-26.902 12.977-42.214 12.977-20.114 0-36.479 16.364-36.479 36.478v5.304c-4.259-.645-8.13-.692-12.373-.137v-5.167c0-20.113-16.364-36.478-36.479-36.478h-9.009c-44.896 0-75.482-43.617-70.465-87.777 1.185-10.425 9.622-18.849 20.063-20.031a84 84 0 0 1 86.857 50.389c1.225 2.86 4.078 4.69 7.193 4.544a7.5 7.5 0 0 0 6.81-5.101C267.669 42.221 302.492 15 344.526 15c3.562 0 7.16.203 10.693.604 11.973 1.356 21.647 11.017 23.006 22.969 2.626 23.122-3.214 46.63-17.458 66.086a7.5 7.5 0 0 0 12.103 8.861c16.846-23.011 23.238-50.395 20.259-76.641-2.14-18.828-17.373-34.044-36.221-36.18A110 110 0 0 0 344.526 0c-42.674 0-79.241 24.356-97.112 59.153-20.188-31.454-56.497-49.244-94.669-44.922-17.32 1.961-31.316 15.942-33.282 33.243-6.069 53.424 31.703 104.471 85.369 104.471h9.009c11.844 0 21.479 9.635 21.479 21.478v9.921c-.033.018-.067.031-.1.049-26.452 14.02-58.701 15.902-87.438 3.584-17.039-7.311-35.842 5.385-35.842 23.815v90.317a236.7 236.7 0 0 0 8.962 64.533 7.5 7.5 0 0 0 9.261 5.171 7.5 7.5 0 0 0 5.171-9.261 221.6 221.6 0 0 1-8.394-60.443v-90.317c0-7.878 7.98-13.012 14.932-10.03 32.98 14.137 69.979 11.99 100.373-4.116a29.51 29.51 0 0 1 27.658.005c30.476 16.158 67.4 18.198 100.219 4.119 6.933-2.972 14.938 2.118 14.938 10.029v90.311c0 77.15-41.019 149.861-107.05 189.758a42.557 42.557 0 0 1-44.021-.001c-39.779-24.035-70.534-59.304-88.94-101.993a7.495 7.495 0 0 0-9.856-3.917 7.5 7.5 0 0 0-3.917 9.856c19.65 45.576 52.486 83.23 94.957 108.893a57.55 57.55 0 0 0 29.77 8.295 57.55 57.55 0 0 0 29.767-8.296c34.723-20.979 63.641-50.749 83.628-86.089 20.06-35.469 30.663-75.756 30.663-116.506v-90.311c-.003-18.426-18.793-31.129-35.853-23.815"/><path d="M255.999 449.555c15.176 0 28.821-8.433 35.61-22.008l64.631-129.262c9.817-19.634 1.832-43.596-17.8-53.417-19.679-9.854-43.58-1.888-53.421 17.802l-29.021 58.039-29.02-58.036c-9.805-19.627-33.767-27.616-53.419-17.807-19.634 9.821-27.62 33.784-17.802 53.419l64.631 129.262c6.789 13.575 20.436 22.008 35.611 22.008m-75.735-191.27c12.254-6.117 27.188-1.135 33.298 11.094l34.937 69.871v5.853c0 4.143 3.357 7.5 7.5 7.5s7.5-3.357 7.5-7.5v-5.853l34.938-69.872c6.119-12.245 20.997-17.25 33.289-11.098l.003.002c12.237 6.12 17.215 21.057 11.096 33.294l-64.631 129.262c-4.231 8.461-12.736 13.717-22.194 13.717s-17.963-5.256-22.194-13.717l-64.633-129.262c-6.118-12.237-1.14-27.174 11.091-33.291M350.529 35.162c-42.377 13.281-78.167 40.607-102.036 77.608-18.383-30.416-47.647-53.135-82.028-63.227-3.974-1.168-8.142 1.109-9.309 5.084s1.109 8.142 5.084 9.309c34.661 10.175 63.523 34.68 79.186 67.231q.015.028.031.056c2.649 5.403 10.346 5.628 13.299.307 21.695-39.449 57.301-68.59 100.259-82.053a7.501 7.501 0 0 0-4.486-14.315"/></svg>