<svg xmlns="http://www.w3.org/2000/svg" xml:space="preserve" viewBox="0 0 512 512"><ellipse cx="349.112" cy="118.698" rx="49.426" ry="27.524" style="fill:#8ce16e" transform="rotate(146.325 349.11 118.698)"/><path d="M390.242 91.295c8.429 12.65-3.152 35.176-25.868 50.312-22.716 15.137-47.964 17.15-56.393 4.5z" style="fill:#7dc86e"/><ellipse cx="162.891" cy="118.699" rx="49.426" ry="27.524" style="fill:#8ce16e" transform="rotate(-146.325 162.89 118.698)"/><path d="M121.759 91.295c-8.429 12.65 3.152 35.176 25.868 50.312 22.716 15.137 47.964 17.15 56.393 4.5z" style="fill:#7dc86e"/><ellipse cx="256.171" cy="76.426" rx="34.205" ry="68.409" style="fill:#8ce16e"/><path d="M221.971 76.426c0 37.781 15.314 68.409 34.205 68.409V8.017c-18.891 0-34.205 30.628-34.205 68.409" style="fill:#7dc86e"/><path d="M256.176 213.244c70.84 0 128.267 40.325 128.267 111.165 0 85.512-111.165 111.165-128.267 153.921-17.102-42.756-128.267-68.409-128.267-153.921 0-70.84 57.427-111.165 128.267-111.165" style="fill:#ff556e"/><path d="M308.017 430.788c16.055-11.18 33.028-23.311 46.92-37.968l.002-.002H157.411l.002.002c13.892 14.656 30.866 26.788 46.92 37.968 23.533 16.349 45.068 30.609 51.841 47.542 6.775-16.934 28.31-31.193 51.843-47.542" style="fill:#ff96a0"/><path d="m196.318 324.409.62-17.102c2.011-30.319 9.357-53.963 20.025-69.967 2.225-3.338 2.154-7.714.164-11.198-2.45-4.287-7.574-6.459-12.262-4.912-45.27 14.94-76.955 50.608-76.955 103.178 0 51.309 40.008 81.068 75.71 105.902 8.917 6.203 20.139-3.698 15.098-13.319-11.725-22.377-22.4-50.092-22.4-92.582" style="fill:#d74664"/><path d="M203.811 430.394c8.888 5.899 19.892-3.883 14.889-13.436-3.841-7.333-7.523-15.33-10.799-24.14h-50.489c13.727 14.484 30.49 26.509 46.399 37.576" style="fill:#ff6f82"/><path d="M247.625 359.148h-17.102a8.017 8.017 0 0 0 0 16.034h17.102a8.017 8.017 0 0 0 0-16.034M298.931 323.875h17.102a8.017 8.017 0 0 0 0-16.034h-17.102a8.017 8.017 0 0 0 0 16.034M204.869 307.841h-8.551a8.017 8.017 0 0 0 0 16.034h8.551a8.017 8.017 0 0 0 0-16.034M247.625 256.534a8.017 8.017 0 0 0 0 16.034h8.551a8.017 8.017 0 0 0 0-16.034z"/><path d="M307.022 156.552c5.182 3.859 12.084 5.887 20.236 5.887q2.049 0 4.198-.171c11.99-.957 25.258-5.925 37.362-13.99 12.104-8.064 21.799-18.397 27.298-29.093 6.275-12.205 6.559-23.688.797-32.334-5.761-8.646-16.463-12.809-30.148-11.716-11.99.957-25.258 5.925-37.362 13.99-23.15 15.425-35.496 37.649-31.319 54.107-12.039 8.81-24.245 18.773-33.892 28.906v-20.58c9.099-2.943 17.204-10.902 23.339-23.175 7.007-14.012 10.865-32.464 10.865-51.958s-3.859-37.946-10.865-51.958C279.643 8.689 268.508 0 256.176 0s-23.468 8.689-31.357 24.468c-7.006 14.012-10.864 32.464-10.864 51.958s3.859 37.946 10.864 51.958c6.137 12.272 14.241 20.232 23.34 23.175v20.58c-9.728-10.216-22.056-20.261-34.191-29.125 4.015-16.436-8.323-38.533-31.371-53.889-12.104-8.065-25.372-13.033-37.362-13.99-13.684-1.092-24.387 3.07-30.148 11.716-5.762 8.646-5.479 20.13.796 32.334 5.499 10.696 15.194 21.028 27.298 29.093s25.372 13.033 37.362 13.99q2.15.171 4.198.171c8.242 0 15.205-2.077 20.406-6.019 21.906 16.017 36.657 30.318 43.01 41.718v7.266c-34.218 1.453-65.139 12.2-87.75 30.646-26.506 21.625-40.517 52.178-40.517 88.36 0 57.604 46.319 89.712 83.538 115.511 19.8 13.726 38.537 26.714 44.729 40.061v24.001a8.017 8.017 0 0 0 16.034 0v-24.001c6.191-13.347 24.929-26.336 44.729-40.061 37.219-25.799 83.538-57.907 83.538-115.511 0-36.181-14.011-66.735-40.517-88.36-22.61-18.445-53.531-29.194-87.75-30.646v-7.266c6.338-11.368 21.026-25.622 42.831-41.586m31.272-54.085c9.727-6.481 20.569-10.617 29.747-11.35 7.508-.602 13.172 1.086 15.53 4.624s1.733 9.411-1.713 16.112c-4.21 8.188-12.204 16.601-21.929 23.082-9.726 6.481-20.569 10.617-29.747 11.351-2.983.236-5.668.108-7.976-.347 17.395-11.643 31.763-19.658 31.928-19.75a8.02 8.02 0 0 0 3.113-10.902 8.015 8.015 0 0 0-10.899-3.114c-1.347.748-15.361 8.587-32.548 20.08 2.16-8.858 10.71-20.602 24.494-29.786M181.82 146.286c-9.179-.733-20.02-4.87-29.747-11.351s-17.719-14.894-21.929-23.082c-3.446-6.702-4.07-12.574-1.712-16.113 2.044-3.069 6.57-4.743 12.636-4.743q1.395 0 2.892.119c9.178.732 20.02 4.869 29.747 11.35 13.639 9.088 22.158 20.684 24.43 29.509-16.995-11.341-30.795-19.061-32.131-19.802a8.016 8.016 0 0 0-10.901 3.115 8.015 8.015 0 0 0 3.115 10.901c.164.091 14.464 8.064 31.846 19.694-2.368.502-5.146.649-8.246.403m57.34-25.072c-5.914-11.829-9.172-27.736-9.172-44.788s3.257-32.958 9.172-44.788c4.959-9.917 11.16-15.605 17.016-15.605s12.057 5.688 17.016 15.605c5.915 11.829 9.172 27.736 9.172 44.788s-3.257 32.958-9.172 44.788c-2.714 5.428-5.801 9.577-8.999 12.232v-57.02a8.017 8.017 0 0 0-16.034 0v57.02c-3.198-2.655-6.285-6.805-8.999-12.232m137.266 203.195c0 33.842-19.257 57.759-42.967 77.495h-34.527a8.017 8.017 0 0 0 0 16.034h13.445c-4.214 2.997-8.434 5.925-12.589 8.806-17.793 12.334-33.747 23.394-43.611 35.991-9.865-12.598-25.819-23.658-43.611-35.991-4.156-2.881-8.376-5.809-12.589-8.806h64.751a8.017 8.017 0 0 0 0-16.034h-85.834c-23.711-19.736-42.967-43.653-42.967-77.495 0-31.201 11.972-57.459 34.619-75.936 21.51-17.547 51.922-27.212 85.631-27.212s64.121 9.665 85.631 27.212c22.647 18.477 34.618 44.735 34.618 75.936"/></svg>