<svg xmlns="http://www.w3.org/2000/svg" xml:space="preserve" viewBox="0 0 512 512"><path d="M161.937 136.284c0 37.781 30.628 68.409 68.409 68.409.001-37.781-30.628-68.409-68.409-68.409M350.063 136.284c0 37.781-30.628 68.409-68.409 68.409-.001-37.781 30.628-68.409 68.409-68.409M161.937 238.898c0 37.781 30.628 68.409 68.409 68.409.001-37.781-30.628-68.409-68.409-68.409M350.063 238.898c0 37.781-30.628 68.409-68.409 68.409-.001-37.781 30.628-68.409 68.409-68.409M161.937 341.511c0 37.781 30.628 68.409 68.409 68.409.001-37.78-30.628-68.409-68.409-68.409M350.063 341.511c0 37.781-30.628 68.409-68.409 68.409-.001-37.78 30.628-68.409 68.409-68.409M256 33.67c-28.504 25.975-28.504 68.087 0 94.063 28.504-25.975 28.504-68.088 0-94.063" style="fill:#ffc850"/><path d="M169.954 128.689v-9.508a8.017 8.017 0 0 0-16.034 0v17.102c0 42.141 34.285 76.426 76.426 76.426a8.017 8.017 0 0 0 8.017-8.017c0-39.433-30.022-71.982-68.409-76.003m.615 16.226c26.405 3.797 47.35 24.741 51.147 51.147-26.406-3.797-47.351-24.742-51.147-51.147M350.063 111.165a8.017 8.017 0 0 0-8.017 8.017v9.508c-38.387 4.02-68.409 36.569-68.409 76.004a8.017 8.017 0 0 0 8.017 8.017c42.141 0 76.426-34.285 76.426-76.426v-17.102a8.02 8.02 0 0 0-8.017-8.018m-59.778 84.897c3.797-26.405 24.741-47.35 51.147-51.147-3.797 26.405-24.742 47.35-51.147 51.147M169.954 231.303v-9.508a8.017 8.017 0 0 0-16.034 0v17.102c0 42.141 34.285 76.426 76.426 76.426a8.017 8.017 0 0 0 8.017-8.017c0-39.433-30.022-71.983-68.409-76.003m.615 16.226c26.405 3.797 47.35 24.741 51.147 51.147-26.406-3.797-47.351-24.742-51.147-51.147M350.063 213.779a8.017 8.017 0 0 0-8.017 8.017v9.508c-38.387 4.02-68.409 36.569-68.409 76.004a8.017 8.017 0 0 0 8.017 8.017c42.141 0 76.426-34.285 76.426-76.426v-17.102a8.02 8.02 0 0 0-8.017-8.018m-59.778 84.897c3.797-26.405 24.741-47.35 51.147-51.147-3.797 26.405-24.742 47.35-51.147 51.147M169.954 333.917v-9.508a8.017 8.017 0 0 0-16.034 0v17.102c0 42.141 34.285 76.426 76.426 76.426a8.017 8.017 0 0 0 8.017-8.017c0-39.433-30.022-71.983-68.409-76.003m.615 16.226c26.405 3.797 47.35 24.741 51.147 51.147-26.406-3.797-47.351-24.742-51.147-51.147M350.063 316.392a8.017 8.017 0 0 0-8.017 8.017v9.508c-38.387 4.02-68.409 36.569-68.409 76.004a8.017 8.017 0 0 0 8.017 8.017c42.141 0 76.426-34.285 76.426-76.426V324.41a8.02 8.02 0 0 0-8.017-8.018m-59.778 84.897c3.797-26.405 24.741-47.35 51.147-51.147-3.797 26.406-24.742 47.351-51.147 51.147"/><path d="M285.395 80.701c0-18.886-7.567-36.666-21.378-50.452V8.017a8.017 8.017 0 0 0-16.034 0V30.25c-13.811 13.786-21.378 31.567-21.378 50.452s7.567 36.666 21.378 50.452v372.83a8.017 8.017 0 0 0 16.034 0v-372.83c13.811-13.786 21.378-31.566 21.378-50.453m-42.756 0c0-12.999 4.696-25.372 13.361-35.533 8.666 10.161 13.361 22.534 13.361 35.533s-4.696 25.372-13.361 35.533c-8.666-10.16-13.361-22.534-13.361-35.533"/></svg>