<svg xmlns="http://www.w3.org/2000/svg" xml:space="preserve" viewBox="0 0 512 512"><path d="M264.551 20.843c-17.102 25.653-17.102 68.409-17.102 68.409h17.102s17.102-42.756 34.205-59.858z" style="fill:#becd55"/><ellipse cx="256" cy="123.457" rx="51.307" ry="34.205" style="fill:#aab955"/><path d="M196.142 491.157h119.716c103.899 0 188.125-84.227 188.125-188.125 0-103.899-84.227-188.125-188.125-188.125H196.142c-103.899 0-188.125 84.227-188.125 188.125s84.226 188.125 188.125 188.125" style="fill:#ff9a32"/><path d="M429.975 219.031c-4.931-7.74-17.067-2.353-14.353 6.413 7.321 23.651 11.401 49.916 11.401 77.587 0 59.181-18.674 111.863-47.823 146.29-4.059 4.794-11.565-.013-8.897-5.699 14.195-30.252 22.517-66.882 22.517-106.386 0-52.85-14.864-100.595-38.793-134.758-8.176-11.672-26.335-3.211-22.905 10.621 6.625 26.716 10.392 57.354 10.392 89.932 0 23.103-1.909 45.214-5.372 65.662-11.749 43.338-29.866 71.156-50.21 71.156-35.42 0-64.134-84.227-64.134-188.125 0-15.815.666-31.173 1.92-45.847 2.012-23.54-31.797-30.3-38.71-7.708-9.167 29.955-14.516 66.029-14.516 104.862 0 25.972 2.402 50.7 6.734 73.197.962 4.995-5.868 7.232-8.118 2.669-15.266-30.943-24.271-68.956-24.271-110.07 0-27.482 4.022-53.58 11.247-77.108 6.988-22.756-23.471-37.511-36.318-17.471-21.571 33.648-34.787 78.945-34.787 128.784 0 28.037 4.192 54.632 11.697 78.528 1.467 4.67-4.82 7.56-7.397 3.398-18.877-30.485-29.954-67.57-29.954-107.58 0-44.332 13.622-85.039 36.378-117.169 4.499-6.354-3.504-14.196-9.808-9.629-47.186 34.183-77.878 89.732-77.878 152.451 0 103.899 84.227 188.125 188.125 188.125h119.716c15.429 0 30.422-1.862 44.77-5.371 31.875-7.795 58.989-28.356 75.005-56.997 16.208-28.983 25.595-63.298 25.595-100.104 0-40.92-11.585-78.782-31.253-109.653" style="fill:#ff7d28"/><path d="M412.863 197.052a8.017 8.017 0 0 0-14.569 6.693 211 211 0 0 1 6.74 16.509 8.011 8.011 0 0 0 10.259 4.827 8.02 8.02 0 0 0 4.827-10.259 226 226 0 0 0-7.257-17.77"/><path d="M332.96 106.889c-7.181 0-14.407.48-21.492 1.408-.552-.092-1.106-.166-1.659-.249-6.792-11.437-19.307-20.098-34.238-24.195 5.731-12.925 17.487-37.423 28.854-48.79a8.017 8.017 0 0 0-3.724-13.445l-34.205-8.551a8.02 8.02 0 0 0-8.614 3.331c-14.395 21.593-17.559 53.33-18.253 66.657-16.327 3.684-30.155 12.743-37.428 24.983-.56.083-1.12.167-1.678.26a166 166 0 0 0-21.483-1.408C80.317 106.889 0 194.879 0 303.031s80.317 196.142 179.04 196.142c7.182 0 14.414-.475 21.501-1.403a104 104 0 0 0 16.979 1.403c7.975 0 15.958-.942 23.769-2.786 4.796 1.842 9.714 2.786 14.711 2.786 5.023 0 9.954-.945 14.758-2.774a103.5 103.5 0 0 0 23.722 2.774c5.723 0 11.389-.479 16.979-1.403 7.087.929 14.32 1.403 21.501 1.403 98.723 0 179.04-87.989 179.04-196.142s-80.317-196.142-179.04-196.142m-62.219 2.783c-4.821-1.839-9.752-2.782-14.741-2.782-5.025 0-9.958.946-14.765 2.777a104 104 0 0 0-17.009-2.554c8.03-6.144 19.432-9.843 31.774-9.843 12.339 0 23.743 3.699 31.774 9.842a104 104 0 0 0-17.033 2.56m-2.375-79.611 16.129 4.032c-11.296 15.793-21.163 37.527-25.316 47.218a75 75 0 0 0-3.179-.075q-.094 0-.187.003c.81-11.832 3.513-34.388 12.553-51.178M16.033 303.031c0-91.964 62.707-168.04 143.356-178.796-15.553 9.822-29.821 23.663-42.145 41.153-25.978 36.873-40.284 85.755-40.284 137.643s14.306 100.77 40.284 137.642c12.323 17.491 26.591 31.331 42.145 41.153-80.649-10.755-143.356-86.83-143.356-178.795m336.578 178.796c15.553-9.822 29.821-23.663 42.145-41.153 25.977-36.871 40.283-85.754 40.283-137.642 0-17.954-1.731-35.742-5.144-52.871a8.018 8.018 0 0 0-15.725 3.133c3.209 16.099 4.835 32.833 4.835 49.738 0 99.312-55.863 180.109-124.526 180.109-1.293 0-2.586-.04-3.879-.098 10.229-10.164 19.469-24.96 27.238-43.951 14.922-36.472 23.138-84.792 23.138-136.059 0-24.024-1.799-47.467-5.347-69.678a8.014 8.014 0 0 0-9.181-6.652 8.017 8.017 0 0 0-6.652 9.181c3.414 21.378 5.146 43.97 5.146 67.149 0 49.234-7.793 95.398-21.944 129.989-13.03 31.852-30.161 50.119-46.999 50.119-19.089 0-38.437-23.515-51.755-62.902a8.017 8.017 0 0 0-15.189 5.135c8.628 25.518 19.788 45.098 32.467 57.663a86 86 0 0 1-4.002.104c-68.665.001-124.527-80.795-124.527-180.107s55.863-180.109 124.526-180.109c1.292 0 2.586.04 3.879.097-10.229 10.164-19.469 24.961-27.238 43.951-14.921 36.474-23.138 84.794-23.138 136.061 0 30.665 2.881 59.987 8.561 87.151a8.02 8.02 0 0 0 9.487 6.206 8.017 8.017 0 0 0 6.206-9.488c-5.455-26.087-8.221-54.305-8.221-83.87 0-49.234 7.793-95.398 21.944-129.989 13.03-31.852 30.161-50.119 46.999-50.119 21.926 0 43.678 30.486 56.768 79.562a8.015 8.015 0 0 0 9.812 5.679 8.015 8.015 0 0 0 5.679-9.812c-7.121-26.696-17.001-49.089-28.572-64.758-2.923-3.959-5.965-7.472-9.096-10.574a86 86 0 0 1 3.889-.098c31.366 0 61.381 17.064 84.518 48.048a8 8 0 0 0 6.429 3.221 7.97 7.97 0 0 0 4.79-1.594 8.017 8.017 0 0 0 1.627-11.22c-11.654-15.606-24.955-28.089-39.342-37.155 80.701 10.704 143.464 86.805 143.464 178.81.003 91.962-62.704 168.037-143.353 178.793"/></svg>