<svg xmlns="http://www.w3.org/2000/svg" xml:space="preserve" viewBox="0 0 512.001 512.001"><path d="M238.016 9.797 222.681 29.91c-1.382 1.813-1.101 4.339.536 5.927 24.51 23.793 25.015 54.634 25.015 54.634l15.181-1.128c3.121-20.223 1.901-53.312-18.36-79.668-1.759-2.286-5.287-2.172-7.037.122" style="fill:#becd55"/><path d="M161.938 204.695V179.04c0-51.949 42.113-94.063 94.063-94.063 51.949 0 94.063 42.113 94.063 94.063v25.653c0 68.409 68.409 87.08 68.409 179.574 0 59.858-42.756 119.716-102.612 119.716-25.656 0-34.207-9.976-59.86-9.976s-34.205 9.976-59.86 9.976c-59.856 0-102.612-59.858-102.612-119.716 0-92.494 68.409-111.164 68.409-179.572" style="fill:#ffdc64"/><path d="M255.396 84.98c-11.754.081-24.094 2.543-36.893 8.361-35.163 15.985-56.565 52.374-56.565 91v20.354c0 68.408-68.409 87.078-68.409 179.573 0 59.465 42.215 118.866 101.454 119.644 10.212-.161 19.103-7.144 21.927-17.03l.026-.091c1.649-5.74 1.108-11.889-1.679-17.171-11.987-22.71-19.115-53.994-19.115-85.353 0-92.495 41.406-111.165 41.406-179.573V179.04c0-32.724 10.129-61.485 25.48-78.305 5.58-6.112.643-15.812-7.632-15.755" style="fill:#ffc850"/><path d="M386.991 275.317c-15.513-22.274-28.911-41.509-28.911-70.623V179.04c0-50.328-36.612-92.26-84.599-100.576 1.551-16.912.557-49.777-24.514-75.988a8.017 8.017 0 0 0-11.952.409l-21.378 25.653a8.018 8.018 0 0 0 1.136 11.38c17.107 13.752 22.311 29.891 23.893 38.194-49.039 7.42-86.745 49.853-86.745 100.928v25.655c0 29.112-13.398 48.348-28.911 70.621-18.514 26.58-39.498 56.707-39.498 108.952 0 31.453 11.17 63.29 30.645 87.349 21.082 26.043 49.487 40.384 79.983 40.384 13.974 0 23.227-2.699 32.176-5.309 8.229-2.401 16.003-4.668 27.684-4.668s19.455 2.267 27.684 4.668c8.949 2.61 18.202 5.309 32.176 5.309 30.497 0 58.901-14.341 79.983-40.384 19.475-24.059 30.645-55.896 30.645-87.349.001-52.245-20.983-82.371-39.497-108.951M232.945 32.815l10.272-12.328c15.021 20.328 15.495 43.777 14.309 56.493q-.406-.007-.814-.011c-1.555-9.475-6.705-27.706-23.767-44.154m82.916 463.152c-11.683 0-19.457-2.267-27.686-4.668-8.949-2.61-18.201-5.309-32.174-5.309s-23.225 2.699-32.174 5.309c-8.23 2.401-16.005 4.668-27.686 4.668-45.682 0-94.595-44.883-94.595-111.699 0-47.212 18.617-73.94 36.621-99.788 16.347-23.471 31.788-45.639 31.788-79.785V179.04c0-47.446 38.6-86.046 86.046-86.046s86.046 38.6 86.046 86.046v25.653c0 34.147 15.441 56.316 31.789 79.786 18.003 25.848 36.62 52.577 36.62 99.788-.001 66.817-48.913 111.7-94.595 111.7"/><path d="M196.14 461.763c-2.439 0-4.884-.197-7.267-.585-22.758-3.707-48.98-29.189-52.75-69.115-.416-4.408-4.326-7.647-8.735-7.228a8.017 8.017 0 0 0-7.228 8.735c1.812 19.19 8.957 38.104 20.12 53.26 12.416 16.859 28.328 27.292 46.015 30.173 3.233.527 6.546.794 9.846.794a8.017 8.017 0 1 0-.001-16.034M323.875 204.694V179.04c0-10.154-2.2-19.93-6.537-29.055a8.016 8.016 0 0 0-10.682-3.798 8.017 8.017 0 0 0-3.798 10.683c3.307 6.956 4.984 14.416 4.984 22.17v25.653c0 9.285.901 18.45 2.678 27.241a8.02 8.02 0 0 0 9.446 6.27 8.017 8.017 0 0 0 6.27-9.446c-1.567-7.746-2.361-15.843-2.361-24.064M294.794 123.368a67.6 67.6 0 0 0-19.426-9.388 8.02 8.02 0 0 0-9.974 5.391 8.02 8.02 0 0 0 5.392 9.974 51.5 51.5 0 0 1 14.824 7.166 7.98 7.98 0 0 0 4.584 1.446 8.016 8.016 0 0 0 4.6-14.589"/></svg>