<svg xmlns="http://www.w3.org/2000/svg" xml:space="preserve" viewBox="0 0 512 512"><path d="M369.121 477.913c-24.343-69.188-30.292-141.57-29.282-201.112 1.054-62.104 94.793-62.998 95.724-.893q.01.732.011 1.469c0 10.189-2.853 20.008-8.116 29.245-2.276 3.994-.766 9.069 3.345 11.124 2.794 1.397 6.195 1.083 8.64-.863 40.077-31.88 64.542-74.226 64.542-120.742 0-99.176-111.026-179.574-247.983-179.574S8.017 96.965 8.017 196.141c0 46.516 24.465 88.862 64.541 120.743 2.445 1.944 5.846 2.26 8.64.863 4.112-2.055 5.62-7.13 3.345-11.124-5.263-9.237-8.116-19.056-8.116-29.245q0-.736.011-1.469c.931-62.106 94.671-61.211 95.724.893 1.01 59.543-4.939 131.924-29.282 201.112-3.013 8.565 3.376 17.518 12.455 17.518h201.334c9.078-.001 15.466-8.954 12.452-17.519" style="fill:#faf0d3"/><path d="M187.591 204.692c-18.311-35.031-67.79-78.719-127.702-48.381-41.447 20.988-55.275 71.484-31.367 111.32 10.911 18.18 25.859 34.795 44.034 49.254 2.445 1.944 5.846 2.26 8.64.863 4.112-2.055 5.62-7.13 3.345-11.124-5.263-9.237-8.116-19.056-8.116-29.245q0-.736.011-1.469c.932-62.107 94.671-61.212 95.724.893 1.01 59.548-4.94 131.938-29.29 201.132-3.011 8.557 3.392 17.498 12.461 17.498h18.318a17.11 17.11 0 0 0 16.326-11.976c18.774-59.239 43.377-191.223-2.384-278.765M324.823 204.692c18.311-35.031 67.79-78.719 127.702-48.381 41.447 20.988 55.275 71.484 31.367 111.32-10.911 18.18-25.859 34.795-44.034 49.254-2.445 1.944-5.846 2.26-8.64.863-4.112-2.055-5.62-7.13-3.345-11.124 5.263-9.237 8.116-19.056 8.116-29.245q0-.736-.011-1.469c-.932-62.107-94.671-61.212-95.724.893-1.01 59.548 4.94 131.938 29.29 201.132 3.011 8.557-3.392 17.498-12.461 17.498h-18.318a17.11 17.11 0 0 1-16.326-11.976c-18.773-59.239-43.377-191.223 2.384-278.765" style="fill:#ede2c4"/><path d="M84.542 306.622c-5.263-9.237-8.116-19.056-8.116-29.245q0-.736.011-1.469c.932-62.102 94.654-61.212 95.723.876-.022-63.565-36.424-102.553-78.631-89.196-61.631 19.503-41.132 95.591-13.48 130.539.385-.125.781-.199 1.149-.383 4.111-2.054 5.62-7.128 3.344-11.122" style="fill:#a58782"/><path d="M172.16 276.813v.029h.001z" style="fill:#a57873"/><path d="M427.458 306.622c5.263-9.237 8.116-19.056 8.116-29.245q0-.736-.011-1.469c-.932-62.102-94.654-61.212-95.723.876.022-63.565 36.424-102.553 78.631-89.196 61.631 19.503 41.132 95.591 13.48 130.539-.385-.125-.781-.199-1.149-.383-4.111-2.054-5.62-7.128-3.344-11.122" style="fill:#a58782"/><path d="M339.84 276.813v.029h-.001z" style="fill:#a57873"/><path d="M436.053 62.669C387.858 27.77 323.914 8.55 256 8.55S124.142 27.77 75.947 62.669C26.971 98.135 0 145.535 0 196.141c0 47.247 23.996 92.357 67.567 127.018 4.861 3.867 11.619 4.559 17.216 1.758a16.05 16.05 0 0 0 8.146-9.65 16.13 16.13 0 0 0-1.421-12.613c-4.688-8.228-7.065-16.734-7.065-25.277q0-.675.01-1.348c.397-26.389 19.996-38.219 39.244-38.238h.045c19.148 0 39.948 12.245 40.404 39.147 1.25 73.669-8.45 140.393-28.829 198.316a21.18 21.18 0 0 0 2.695 19.239 21.26 21.26 0 0 0 17.322 8.956h201.334c6.875 0 13.35-3.348 17.322-8.956a21.18 21.18 0 0 0 2.695-19.239c-20.38-57.922-30.079-124.646-28.829-198.316.456-26.903 21.255-39.146 40.404-39.146h.045c26.714.026 38.959 19.224 39.244 38.238q.01.673.01 1.348c0 8.544-2.377 17.049-7.065 25.277a16.13 16.13 0 0 0-1.421 12.612 16.05 16.05 0 0 0 8.146 9.65c5.597 2.798 12.355 2.108 17.216-1.759C488.004 288.498 512 243.388 512 196.141c0-50.606-26.971-98.006-75.947-133.472m23.645 223.915c5.206-12.885 7.831-26.189 7.573-39.294-.088-4.427-3.797-7.961-8.173-7.857a8.017 8.017 0 0 0-7.857 8.173c.241 12.219-2.559 24.727-8.055 36.813.265-2.338.405-4.686.405-7.043q0-.796-.012-1.588c-.249-16.63-6.383-30.646-17.74-40.537-9.976-8.688-23.301-13.481-37.52-13.495h-.06c-12.22 0-24.561 3.705-34.577 10.957 4.253-13.738 10.758-24.355 19.284-31.122 10.616-8.427 24.314-10.764 40.714-6.942 4.31 1.007 8.622-1.677 9.626-5.989a8.015 8.015 0 0 0-5.989-9.626c-21.103-4.917-39.886-1.458-54.32 9.999-20.1 15.955-31.171 47.13-31.176 87.781-1.267 75.52 8.738 144.073 29.738 203.759.762 2.167-.083 3.844-.654 4.651-.466.658-1.813 2.19-4.238 2.19H155.333c-2.425 0-3.772-1.532-4.238-2.19-.572-.806-1.416-2.484-.654-4.651 20.999-59.685 31.004-128.238 29.738-203.758-.004-41.209-11.35-72.598-31.948-88.384-15.081-11.558-34.719-14.526-56.786-8.584-7.233 1.948-13.963 5.29-20.002 9.935a8.018 8.018 0 0 0 9.776 12.71c4.362-3.355 9.205-5.765 14.395-7.162 17.315-4.661 31.737-2.701 42.865 5.829 8.809 6.75 15.51 17.521 19.854 31.564-10.019-7.258-22.364-10.966-34.59-10.966h-.06c-14.218.014-27.543 4.807-37.52 13.495-11.357 9.889-17.49 23.907-17.74 40.537q-.01.793-.011 1.588c0 2.25.126 4.493.367 6.725-8.204-18.122-11.491-39.16-3.648-59.412a8.015 8.015 0 0 0-4.58-10.37 8.014 8.014 0 0 0-10.37 4.58c-5.902 15.241-7.059 32.553-3.346 50.065 1.254 5.912 3.079 11.795 5.424 17.592-23.547-27.006-36.222-58.243-36.222-90.416 0-94.597 107.648-171.557 239.967-171.557s239.967 76.96 239.967 171.557c-.004 32.187-12.691 63.439-36.273 90.443"/><path d="M450.303 199.17a8.015 8.015 0 0 0-11.292-1.007 8.015 8.015 0 0 0-1.007 11.292 51.7 51.7 0 0 1 5.327 7.729 8.015 8.015 0 0 0 10.923 3.038 8.017 8.017 0 0 0 3.038-10.923 68 68 0 0 0-6.989-10.129"/></svg>