<svg xmlns="http://www.w3.org/2000/svg" xml:space="preserve" viewBox="0 0 512 512"><path d="M255.999 8.016c-80.282 0-145.364 115.083-145.364 257.045 0 106.889 36.904 198.508 89.406 237.263 6.374 4.705 14.974-1.454 12.548-9.118-8.185-25.865-13.121-59.129-13.121-95.475 0-82.43 25.309-149.252 56.53-149.252s56.53 66.822 56.53 149.252c0 36.346-4.936 69.611-13.121 95.475-2.426 7.666 6.175 13.823 12.548 9.118 52.502-38.754 89.406-130.373 89.406-237.263.002-141.961-65.08-257.045-145.362-257.045" style="fill:#ff7350"/><path d="M199.469 397.729c0-10.944.475-21.582 1.322-31.856-39.015-14.121-71.029-42.66-89.62-79.29 4.577 97.541 39.931 179.616 88.871 215.74 6.374 4.705 14.974-1.454 12.548-9.118-8.186-25.865-13.121-59.13-13.121-95.476M255.999 50.77c41.073 0 78.475 15.362 107.082 40.497C336.51 40.104 298.378 8.016 255.999 8.016s-80.511 32.088-107.082 83.252c28.606-25.136 66.009-40.498 107.082-40.498M311.207 365.873a388 388 0 0 1 1.322 31.856c0 36.346-4.935 69.61-13.12 95.475-2.426 7.665 6.174 13.823 12.548 9.118 48.939-36.124 84.294-118.198 88.871-215.74-18.592 36.631-50.605 65.17-89.621 79.291" style="fill:#ff6446"/><circle cx="255.999" cy="213.236" r="34.203" style="fill:#fae1d2"/><circle cx="255.999" cy="213.236" r="8.551" style="fill:#fff"/><path d="M365.764 79.357C336.825 28.182 297.842 0 255.999 0s-80.827 28.182-109.766 79.357c-28.125 49.734-43.614 115.684-43.614 185.704 0 106.5 36.372 202.164 92.662 243.712 5.742 4.239 13.185 4.305 18.964.175 5.813-4.157 8.164-11.286 5.988-18.162-8.219-25.974-12.747-59.022-12.747-93.057 0-83.233 25.567-141.236 48.514-141.236s48.514 58.003 48.514 141.236c0 34.034-4.527 67.082-12.747 93.057-2.176 6.876.174 14.005 5.988 18.162 2.847 2.036 6.099 3.052 9.352 3.052 3.349 0 6.7-1.077 9.612-3.227 56.29-41.549 92.662-137.212 92.662-243.712-.001-70.019-15.491-135.971-43.617-185.704m15.909 285.836c-18.331 15.184-38.851 26.746-61.144 34.443.003-.636.016-1.27.016-1.907 0-8.91-.306-17.697-.872-26.312a170.5 170.5 0 0 0 70.452-52.925c-1.952 16.036-4.769 31.67-8.452 46.701M335.047 61.891a170.5 170.5 0 0 0-71.032-18.973V16.474c25.643 2.718 50.103 18.441 71.032 45.417m-79.048 177.532c-14.439 0-26.187-11.748-26.187-26.187s11.747-26.187 26.187-26.187 26.187 11.748 26.187 26.187-11.747 26.187-26.187 26.187m-8.016-222.949v26.473a170.4 170.4 0 0 0-71.424 19.448c21.015-27.284 45.622-43.186 71.424-45.921m-92.498 79.503a154.32 154.32 0 0 1 92.498-36.975v26.764c-66.708 4.152-119.711 59.733-119.711 127.469 0 22.468 5.918 44.567 17.114 63.908a8.015 8.015 0 0 0 10.954 2.921 8.02 8.02 0 0 0 2.921-10.955c-9.784-16.902-14.956-36.223-14.956-55.874 0-58.894 45.817-107.281 103.679-111.404v26.821c-43.108 4.054-76.957 40.435-76.957 84.585a84.96 84.96 0 0 0 39.276 71.649 163 163 0 0 0-1.771 4.468c-2.537 6.698-4.799 13.916-6.797 21.528a111.7 111.7 0 0 1-23.903-17.862 8.016 8.016 0 0 0-11.336.115 8.016 8.016 0 0 0 .115 11.336 127.6 127.6 0 0 0 31.408 22.593c-1.748 8.815-3.161 18.042-4.221 27.576-32.059-14.112-58.397-38.71-74.709-69.873a452 452 0 0 1-.436-19.707c-.001-63.245 13.029-122.823 36.832-169.083m-33.612 222.516a170.5 170.5 0 0 0 70.452 52.925 402 402 0 0 0-.872 26.312c0 .638.013 1.274.016 1.912-22.296-7.696-42.811-19.261-61.144-34.449-3.683-15.031-6.5-30.666-8.452-46.7m83.065 177.464s-.047-.017-.136-.083c-24.92-18.394-46.245-49.345-61.668-89.505a324 324 0 0 1-5.599-15.81 210.6 210.6 0 0 0 54.377 26.109c1.381 28.858 5.885 56.363 13.036 78.956.043.134.05.213.055.199-.024.045-.116.114-.065.134m12.351-225.665a68.94 68.94 0 0 1-30.23-57.056c0-35.301 26.675-64.473 60.925-68.46v27.013c-19.458 3.757-34.203 20.908-34.203 41.447 0 15.193 8.069 28.533 20.144 35.97-5.998 4.996-11.591 12.073-16.636 21.086m60.785-21.086c12.075-7.438 20.144-20.777 20.144-35.97 0-20.539-14.745-37.69-34.203-41.447v-27.011a68.77 68.77 0 0 1 37.932 17.061 8.015 8.015 0 0 0 11.319-.628 8.015 8.015 0 0 0-.629-11.319 84.8 84.8 0 0 0-48.623-21.247v-26.807c16.838 1.208 33.22 6.197 47.801 14.628a8.017 8.017 0 0 0 8.025-13.881C302.824 92.748 283.672 87 264.015 85.767V58.972a154.32 154.32 0 0 1 92.047 36.149c24.085 46.381 37.284 106.3 37.284 169.941 0 6.605-.151 13.177-.436 19.707-16.312 31.162-42.65 55.76-74.709 69.873-1.06-9.534-2.472-18.759-4.22-27.573 42.525-21.707 69.746-65.86 69.746-113.833 0-16.407-3.069-32.384-9.122-47.487a8.017 8.017 0 0 0-14.882 5.964c5.29 13.198 7.973 27.168 7.973 41.523 0 40.595-22.29 78.064-57.428 97.646-1.999-7.612-4.259-14.83-6.797-21.53a173 173 0 0 0-1.775-4.476c24.34-15.554 39.279-42.576 39.279-71.641 0-9.714-1.627-19.243-4.837-28.323a8.017 8.017 0 0 0-15.117 5.343c2.602 7.359 3.921 15.091 3.921 22.98 0 22.922-11.455 44.278-30.236 57.048-5.045-9.009-10.637-16.083-16.632-21.077m29.121 246.668-.079.057a1 1 0 0 1-.111-.076.8.8 0 0 1 .046-.231c7.151-22.596 11.655-50.102 13.036-78.961a210.7 210.7 0 0 0 54.378-26.11 324 324 0 0 1-5.601 15.816c-15.423 40.161-36.748 71.11-61.669 89.505"/><path d="M343.746 144.116a8 8 0 0 0 6.299 3.052 8.018 8.018 0 0 0 6.29-12.982 129 129 0 0 0-9.073-10.314 8.017 8.017 0 0 0-11.455 11.217 114 114 0 0 1 7.939 9.027"/></svg>