<svg xmlns="http://www.w3.org/2000/svg" xml:space="preserve" viewBox="0 0 512 512"><path d="M298.756 50.772v37.096a51.3 51.3 0 0 0 7.311 26.397l31.809 53.015a85.5 85.5 0 0 1 12.186 43.996V478.33c0 14.168-11.485 25.653-25.653 25.653H187.591c-14.168 0-25.653-11.485-25.653-25.653V211.276a85.5 85.5 0 0 1 12.186-43.996l31.809-53.015a51.3 51.3 0 0 0 7.311-26.397V50.772" style="fill:#cdebff"/><path d="M298.756 50.772h-85.511v37.096a51.3 51.3 0 0 1-7.311 26.397l-31.81 53.015a85.5 85.5 0 0 0-12.185 43.995V478.33c0 14.168 11.485 25.653 25.653 25.653h45.476c-10.948 0-19.823-11.485-19.823-25.653V211.275c0-15.499 3.255-30.705 9.417-43.996l24.58-53.015c3.696-7.974 5.65-17.098 5.65-26.397v-2.356a8.55 8.55 0 0 1 8.551-8.551h37.313z" style="fill:#b9dcf5"/><path d="M298.756 50.772h-85.511a8.55 8.55 0 0 1-8.551-8.551V16.568a8.55 8.55 0 0 1 8.551-8.551h85.511a8.55 8.55 0 0 1 8.551 8.551v25.653a8.55 8.55 0 0 1-8.551 8.551" style="fill:#00c3ff"/><path d="M247.449 42.221V16.568A8.55 8.55 0 0 1 256 8.017h-42.756a8.55 8.55 0 0 0-8.551 8.551v25.653a8.55 8.55 0 0 0 8.551 8.551H256a8.55 8.55 0 0 1-8.551-8.551" style="fill:#00aaf0"/><path d="M187.591 503.983h136.818c14.168 0 25.653-11.485 25.653-25.653V211.276a85.5 85.5 0 0 0-12.185-43.996l-.496-.826c-3.974 2.052-8.083 4.034-15.993 4.034-16.398 0-16.398-8.551-32.797-8.551-16.371 0-16.371 8.551-32.743 8.551-16.368 0-16.368-8.551-32.736-8.551-16.366 0-16.366 8.551-32.73 8.551-7.794 0-11.885-1.938-15.806-3.965l-.454.757a85.5 85.5 0 0 0-12.185 43.996V478.33c0 14.168 11.486 25.653 25.654 25.653" style="fill:#fff"/><path d="M187.591 503.983h45.476c-10.948 0-19.823-11.485-19.823-25.653V211.275c0-15.499 3.255-30.705 9.417-43.996l2.416-5.211c-.676-.033-1.225-.133-1.964-.133-16.366 0-16.366 8.551-32.73 8.551-7.794 0-11.885-1.938-15.806-3.965l-.454.757a85.5 85.5 0 0 0-12.185 43.995V478.33c-.001 14.168 11.485 25.653 25.653 25.653" style="fill:#e6f5ff"/><path d="M307.307 401.37H204.693a8.55 8.55 0 0 1-8.551-8.551V273.102a8.55 8.55 0 0 1 8.551-8.551h102.614a8.55 8.55 0 0 1 8.551 8.551v119.716a8.55 8.55 0 0 1-8.551 8.552" style="fill:#00aaf0"/><path d="M281.653 358.614h-51.307a8.55 8.55 0 0 1-8.551-8.551v-34.205a8.55 8.55 0 0 1 8.551-8.551h51.307a8.55 8.55 0 0 1 8.551 8.551v34.205a8.55 8.55 0 0 1-8.551 8.551" style="fill:#00c3ff"/><path d="m344.751 163.156-31.809-53.016a43.3 43.3 0 0 1-6.17-22.271V56.71c5.093-2.829 8.551-8.26 8.551-14.489V16.568C315.324 7.432 307.892 0 298.756 0h-85.511c-9.136 0-16.568 7.432-16.568 16.568v25.653c0 6.228 3.458 11.659 8.551 14.489v31.158a43.3 43.3 0 0 1-6.169 22.273l-31.809 53.015a93.55 93.55 0 0 0-13.329 48.121V478.33c0 18.566 15.105 33.67 33.67 33.67h136.818c18.566 0 33.67-15.105 33.67-33.67V211.276a93.55 93.55 0 0 0-13.328-48.12M212.71 16.568c0-.295.239-.534.534-.534h85.511c.295 0 .534.239.534.534v25.653a.534.534 0 0 1-.534.534h-85.511a.534.534 0 0 1-.534-.534zm.097 101.823a59.34 59.34 0 0 0 8.454-30.522v-29.08h69.478v29.079a59.33 59.33 0 0 0 8.454 30.521l25.519 42.53c-2.137.969-4.391 1.551-8.084 1.551-5.493 0-7.786-1.291-11.257-3.244-4.2-2.364-9.426-5.307-19.122-5.307-9.687 0-14.908 2.944-19.103 5.309-3.462 1.952-5.75 3.242-11.228 3.242-5.476 0-7.762-1.29-11.223-3.241-4.193-2.365-9.414-5.309-19.099-5.309s-14.904 2.944-19.098 5.31c-3.46 1.952-5.745 3.241-11.22 3.241-3.649 0-5.886-.573-8.002-1.53zM342.046 478.33c0 9.725-7.912 17.637-17.637 17.637H187.591c-9.725 0-17.637-7.912-17.637-17.637V211.276a77.5 77.5 0 0 1 9.137-36.482c3.766 1.912 8.611 3.711 16.186 3.711 9.685 0 14.904-2.944 19.098-5.31 3.46-1.952 5.745-3.241 11.22-3.241s7.762 1.29 11.223 3.242c4.194 2.365 9.415 5.309 19.1 5.309 9.687 0 14.908-2.944 19.102-5.309 3.462-1.952 5.75-3.242 11.228-3.242 5.494 0 7.787 1.291 11.258 3.245 4.2 2.364 9.426 5.306 19.122 5.306 7.624 0 12.489-1.815 16.269-3.735a77.5 77.5 0 0 1 9.15 36.505z"/><path d="M247.449 92.994h17.102a8.017 8.017 0 0 0 0-16.034h-17.102a8.017 8.017 0 0 0 0 16.034M204.693 409.386h102.614c9.136 0 16.568-7.432 16.568-16.568V273.102c0-9.136-7.432-16.568-16.568-16.568H204.693c-9.136 0-16.568 7.432-16.568 16.568v119.716c0 9.136 7.432 16.568 16.568 16.568m-.534-136.284c0-.295.239-.534.534-.534h102.614c.295 0 .534.239.534.534v119.716a.534.534 0 0 1-.534.534H204.693a.534.534 0 0 1-.534-.534zM315.953 461.762h-17.104a8.017 8.017 0 0 0 0 16.034h17.104a8.017 8.017 0 0 0 0-16.034M264.646 461.762h-68.409a8.017 8.017 0 0 0 0 16.034h68.409a8.017 8.017 0 0 0 0-16.034"/></svg>