<svg xmlns="http://www.w3.org/2000/svg" xml:space="preserve" viewBox="0 0 512 512"><path d="M413.729 267.683c-16.421 0-32.003 8.682-39.498 23.292-11.209 21.847-31.177 29.723-46.795 32.414-7.322-15.381-14.22-32.197-20.514-50.226-4.434-12.7-4.464-26.565-.211-39.327l1.064-3.193c4.448-13.343 13.5-24.536 25.252-32.264 36.706-24.138 83.157-70.668 93.342-109.53 8.147-31.085-12.249-53.879-44.384-53.879-27.022 0-48.886 20.422-59.452 45.293-8.401 19.774-22.16 42.113-44.573 63.909a592 592 0 0 1-2.884-62.959c.3-40.241-32.07-73.198-72.313-73.198-40.609 0-73.388 33.361-72.359 73.957 1.508 59.468 16.231 151.648 64.847 243.836-21.65-12.101-37.434-29.218-48.408-45.108-13.324-19.294-39.078-27.063-59.743-15.986-24.372 13.065-31.13 43.918-15.881 66.129 55.264 80.502 136.095 89.019 184.414 85.597 22.383 26.991 48.54 52.979 79.099 77.029 15.228 11.985 36.558 14.304 52.901 3.889 23.488-14.967 27.526-46.922 9.329-67.243-11.116-12.413-24.319-29.205-37.852-50.054 39.957-9.003 65.547-29.656 81.733-50.458 18.571-23.865 2.978-58.91-27.114-61.92" style="fill:#f5dc9b"/><path d="M374.23 290.976c-11.209 21.847-31.177 29.723-46.795 32.414 0 0 .945 2.189 2.842 5.494 5.75 10.024 18.565 13.507 28.639 7.845 21.34-11.992 56.014-34.987 55.536-57.575-.144-6.818-6.585-11.499-13.16-9.688-11.496 3.167-21.504 10.68-27.062 21.51M398.113 37.135c-4.934-1.398-10.331-2.164-16.128-2.164-25.571 0-48.055 16.049-57.268 39.904-8.129 21.047-22.283 45.497-46.758 69.297 0 0 .356 4.247 1.066 9.811 1.462 11.45 14.798 17.007 23.885 9.888 30.583-23.959 88.883-75.757 95.203-126.736M195.75 29.419c2.826-11.088-8.18-20.733-18.869-16.651-27.745 10.597-47.275 37.726-46.477 69.204 1.508 59.468 16.232 151.648 64.847 243.836 9.2 4.19 18.197 6.152 25.65 7.002 8.656.988 15.349-7.548 12.119-15.64-59.751-149.696-47.598-247.222-37.27-287.751M367.574 481.564c-33.613-25.872-64.639-67.435-78.177-86.796-4.462-6.381-11.554-10.47-19.33-10.873-96.52-4.994-151.809-68.611-173.247-101.745-6.824-10.547-22.641-9.736-28.489 1.381-7.646 14.531-7.093 32.775 2.888 47.315 55.264 80.502 136.095 89.019 184.414 85.597 22.383 26.99 48.539 52.979 79.099 77.029 7.081 5.573 15.475 9.011 24.076 10.067 6.491.797 12.46-3.734 13.535-10.186.755-4.522-1.136-8.993-4.769-11.789" style="fill:#f5c887"/><path d="M453.058 288.026c-6.86-16.006-21.264-26.592-38.532-28.319a8 8 0 0 0-.798-.04c-20.013 0-37.88 10.595-46.63 27.649-7.05 13.744-18.841 22.779-35.094 26.916-6.283-13.71-12.164-28.384-17.516-43.71-3.812-10.92-3.874-23.048-.174-34.149l1.066-3.194c3.744-11.232 11.575-21.212 22.051-28.101 19.893-13.082 41.1-31.523 58.182-50.593 14.084-15.722 32.197-39.52 38.509-63.603 4.363-16.645 1.711-32.36-7.465-44.251-9.792-12.688-25.657-19.676-44.673-19.676-28.073 0-53.681 19.225-66.829 50.173-7.333 17.259-17.63 33.53-30.704 48.547a586 586 0 0 1-1.359-44.401c.162-21.724-8.164-42.168-23.445-57.564C244.471 8.42 224.269 0 202.762 0c-21.902 0-42.378 8.63-57.657 24.301-15.199 15.589-23.267 36.143-22.716 57.875.891 35.146 7.867 122.069 51.269 217.763-7.314-6.942-14.071-14.887-20.22-23.793-16.116-23.337-46.264-31.287-70.125-18.495-13.598 7.29-23.081 19.505-26.702 34.396-3.615 14.868-.7 30.663 7.999 43.335 25.445 37.065 58.665 63.069 98.739 77.288 27.006 9.582 57.602 13.72 88.735 12.026 23.133 27.452 49.252 52.694 77.691 75.076 10.294 8.102 22.612 12.23 34.744 12.229 9.627 0 19.139-2.601 27.421-7.88 13.098-8.348 21.815-21.894 23.914-37.167 2.101-15.291-2.609-30.666-12.922-42.183-7.478-8.35-18.501-21.637-30.91-39.78 30.909-9.112 56.151-26.052 75.145-50.463 10.427-13.399 12.63-30.783 5.891-46.502m-14.734 6.317c4.404 10.275 2.981 21.618-3.808 30.342-.576.74-1.179 1.447-1.768 2.172-8.801-4.193-29.501-16.098-44.898-40.88 6.575-6.339 15.738-10.172 25.476-10.276 11.199 1.258 20.523 8.202 24.998 18.642M323.882 96.197c4.032 1.284 14.892 5.26 27.902 14.279a7.98 7.98 0 0 0 4.559 1.429 8.015 8.015 0 0 0 4.573-14.604c-12.996-9.008-24.185-13.639-30.201-15.726 3.101-6.844 6.988-12.974 11.455-18.226 10.029 3.516 39.342 16.151 64.499 50.058-3.355 5.511-7.204 11.061-11.448 16.566a167 167 0 0 0-7.26-8.706 8.016 8.016 0 0 0-11.938 10.7 152 152 0 0 1 8.702 10.675 287 287 0 0 1-14.13 14.842c-19.71-28.305-42.471-42.008-54.445-47.704a193 193 0 0 0 7.732-13.583m90.085-39.772c6.16 7.982 7.767 18.492 4.649 30.392-.933 3.559-2.22 7.211-3.793 10.92-21.662-26.791-45.081-40.171-59.266-46.366 8.162-5.393 17.222-8.386 26.428-8.386 13.936.001 25.294 4.774 31.982 13.44M156.585 35.492c12.235-12.55 28.635-19.461 46.178-19.461 17.202 0 33.362 6.738 45.505 18.972a64.7 64.7 0 0 1 12.602 17.928c-57.608-10.404-100.555 1.42-119.742 8.669 2.929-9.693 8.155-18.619 15.457-26.108M72.188 295.835c2.53-10.403 9.171-18.946 18.699-24.055 13.521-7.248 30.636-4.482 42.552 5.879-.44 1.214-12.696 34.053-49.121 57.604a217 217 0 0 1-6.493-8.955c-6.123-8.92-8.178-20.028-5.637-30.473m327.785 168.937c-1.457 10.602-7.525 20.016-16.648 25.83-12.982 8.273-30.518 6.894-43.636-3.428a516 516 0 0 1-12.364-10.056c33.792-13.415 53.235-33.44 61.658-43.918.669.762 1.338 1.521 2.006 2.266a36.43 36.43 0 0 1 8.984 29.306m-47.587-80.343c8.323 12.822 17.16 25.084 26.06 36.193-5.832 7.873-25.798 31.287-64.953 44.492-18.558-16.704-35.866-34.709-51.689-53.789a8.01 8.01 0 0 0-6.737-2.878c-21.175 1.5-53.343.828-86.356-10.886-17.777-6.308-34.096-15.167-48.868-26.487 13.64-9.132 25.569-20.296 35.529-33.288a8.016 8.016 0 0 0-12.724-9.752c-9.826 12.818-21.825 23.627-35.653 32.221a191 191 0 0 1-12.383-12.572c29.053-19.27 43.923-43.412 50.208-56.124 13.248 17.514 28.864 31.378 46.522 41.246a8.014 8.014 0 0 0 11-10.735 540 540 0 0 1-13.014-26.422c17.919-1.927 36.559-5.618 55.566-11.053a8.014 8.014 0 0 0 5.503-9.909c-1.216-4.257-5.655-6.724-9.909-5.503-19.95 5.703-39.421 9.386-57.97 11.019-22.705-53.738-33.832-103.874-39.233-142.138 8.003-5.338 32.305-19.79 69.052-26.072a8.015 8.015 0 0 0 6.55-9.251c-.746-4.364-4.889-7.298-9.251-6.55-32.558 5.566-55.979 16.921-68.546 24.316-1.749-16.141-2.436-29.343-2.674-38.735-.014-.543-.001-1.082-.001-1.622 6.813-3.272 56.251-25.175 127.819-9.81.562 3.543.854 7.154.826 10.817-.031 4.154-.005 8.32.051 12.49-7.388-.56-14.783-.809-22.042-.699a8.014 8.014 0 0 0-7.895 8.134c.066 4.427 3.735 7.945 8.134 7.895 7.315-.107 14.784.17 22.237.788a603 603 0 0 0 2.438 35.204 8.017 8.017 0 0 0 13.564 4.954c8.7-8.461 16.512-17.373 23.42-26.683 9.13 4.048 32.342 16.531 51.748 45.271-10.025 8.829-20.32 16.75-30.091 23.176-13.47 8.859-23.574 21.794-28.451 36.425l-1.066 3.194a69.4 69.4 0 0 0-3.375 17.131c-4.011 1.935-11.368 5.329-21.272 9.227a8.016 8.016 0 0 0 5.872 14.917 356 356 0 0 0 16.361-6.903 67.6 67.6 0 0 0 2.661 10.132c6.293 18.022 13.306 35.19 20.844 51.028a8.014 8.014 0 0 0 8.598 4.453c15.548-2.677 36.118-10.288 49.305-30.982 14.746 21.12 32.367 32.967 43.298 38.803-17.201 16.28-38.655 27.414-64.052 33.136a8.014 8.014 0 0 0-4.961 12.181"/></svg>