<svg xmlns="http://www.w3.org/2000/svg" xml:space="preserve" viewBox="0 0 512.002 512.002"><path d="M230.348 96.485c17.6-46.935 55.327-69.718 77.278-79.397 5.223-2.302 10.158 3.54 7.156 8.394-14.621 23.65-26.062 49.804-33.128 71.003l-34.205 34.205z" style="fill:#8ce16e"/><path d="M281.49 96.485c-17.601-46.935-55.328-69.718-77.278-79.397-5.224-2.302-10.159 3.54-7.156 8.394 11.428 18.485 20.825 38.421 27.798 56.405-19.428-9.94-37.674-13.092-49.443-13.928-4.42-.314-6.659 5.233-3.303 8.124 25.347 21.813 44.737 47.401 54.448 73.95 18.601-4.441 37.355-7.987 56.187-11.054-4.041-7.132-1.253-42.494-1.253-42.494" style="fill:#7dc86e"/><path d="M281.517 161.94c7.692-30.768 29.254-60.792 58.377-85.857 3.358-2.89 1.117-8.438-3.303-8.124-25.739 1.83-82.578 14.248-114.934 85.429l34.205 34.205z" style="fill:#8ce16e"/><path d="M362.88 137.114c-25.935-.824-86.14 3.493-133.764 53.992 13.562 13.74 27.545 27.049 41.542 40.343l10.998-1.1c15.661-23.493 45.579-60.662 83.422-85.658 3.374-2.23 1.845-7.449-2.198-7.577" style="fill:#8ce16e"/><path d="M146.927 144.691c37.844 24.995 67.76 62.166 83.422 85.658l85.511 8.551c-47.931-95.862-134.243-102.82-166.735-101.786-4.043.128-5.574 5.347-2.198 7.577" style="fill:#7dc86e"/><path d="M256.002 503.985c-66.117 0-119.716-53.599-119.716-119.716v-51.307c0-66.117 53.598-119.716 119.716-119.716s119.716 53.598 119.716 119.716v51.307c-.001 66.117-53.599 119.716-119.716 119.716" style="fill:#e1a546"/><path d="M315.859 486.883c-66.116 0-119.716-53.599-119.716-119.716V315.86c0-27.996 9.642-53.701 25.766-74.055 7.888-9.958-2.702-23.435-14.32-18.296-41.997 18.575-71.304 60.573-71.304 109.454v47.818c0 63.547 48.068 118.593 111.467 122.922 25.668 1.753 49.635-4.757 69.822-16.907-.576.007-1.135.087-1.715.087" style="fill:#cd823c"/><path d="M383.734 332.962c0-49.325-28.107-92.206-69.142-113.479a228 228 0 0 0-9.242-13.999c20.342-23.433 45.328-43.741 74.359-60.409a8.017 8.017 0 0 0-2.37-14.803c-1.956-.404-36.844-7.262-79.306 6.527 15.673-24.327 34.753-45.327 56.953-62.593a8.016 8.016 0 0 0-3.55-14.227c-.869-.152-21.594-3.6-48.96 5.091-.889.282-1.795.585-2.71.898 8.509-18.323 18.948-36.183 31.167-53.29A8.016 8.016 0 0 0 322.67.192c-1.601.356-37.374 8.595-66.618 38.25C227.059 8.945 191.381.646 189.33.192a8.02 8.02 0 0 0-8.424 3.401 8.02 8.02 0 0 0 .161 9.085c12.197 17.076 22.622 34.915 31.13 53.22-28.369-9.703-50.251-6.16-51.633-5.921a8.018 8.018 0 0 0-3.549 14.226c22.129 17.211 41.288 38.283 57.022 62.696a172 172 0 0 0-14.345-4.006c-36.187-8.401-63.872-2.862-65.032-2.623a8.017 8.017 0 0 0-2.37 14.803c32.129 18.449 59.13 41.201 80.439 67.705-49.199 17.769-84.463 64.934-84.463 120.185v51.307c0 70.432 57.3 127.732 127.732 127.732S383.734 454.7 383.734 384.269zm-32.473 109.576-15.514-15.514 22.868-22.868 6.04 6.04a111 111 0 0 1-13.394 32.342m-142.41 42.974 12.946-12.946 22.826 22.826a110.8 110.8 0 0 1-35.772-9.88m58.529 9.88 22.826-22.826 12.946 12.946a110.8 110.8 0 0 1-35.772 9.88m-11.378-11.296-22.868-22.868 22.868-22.868 22.868 22.868zm-108.654-73.898 6.04-6.04 22.868 22.868-15.514 15.514a111.1 111.1 0 0 1-13.394-32.342m13.394-135.505 15.514 15.514-22.868 22.867-6.04-6.04a111 111 0 0 1 13.394-32.341m83.882-52.855-22.827 22.826-12.946-12.946a110.8 110.8 0 0 1 35.773-9.88m58.528 9.88-12.946 12.946-22.826-22.826a110.8 110.8 0 0 1 35.772 9.88m-47.15 1.416 57.072 57.072-22.868 22.867-22.868-22.868 8.137-8.137a8.016 8.016 0 0 0 0-11.337 8.016 8.016 0 0 0-11.337 0l-8.137 8.137L233.133 256zm108.654 73.899-6.04 6.04-22.868-22.868 15.514-15.514a111.1 111.1 0 0 1 13.394 32.342m-17.378 17.378-6.802 6.802a8.016 8.016 0 0 0 5.668 13.685 8 8 0 0 0 5.668-2.348l6.802-6.802 9.086 9.086v27.563l-9.086 9.086-57.072-57.072 22.868-22.868zm-102.613 34.205-22.868 22.867-22.868-22.868 22.868-22.868zm-11.53-34.205 22.868-22.868 22.868 22.868-22.869 22.867zm22.867 45.541 22.868 22.868-22.868 22.867-22.868-22.868zm11.337-11.336 22.868-22.868 22.868 22.868-22.869 22.867zm-22.674-68.409-22.868 22.867-22.868-22.868 22.868-22.868zm-34.205 34.204-22.868 22.867-22.868-22.868 22.868-22.868zm-66.158 47.986v-27.563l9.086-9.086 22.868 22.868-22.868 22.867zm20.424 20.423 22.868-22.868 22.868 22.868-7.826 7.826a8.016 8.016 0 0 0 5.668 13.685 8 8 0 0 0 5.668-2.348l7.826-7.826 22.868 22.868-22.869 22.867zm102.613 34.205 22.868-22.868 22.868 22.868-22.869 22.867zm34.205-34.205 22.868-22.868 22.868 22.868-22.869 22.867zm40.236-131.321-17.369 17.369L301.543 256l16.125-16.125a112.6 112.6 0 0 1 24.112 21.624m-46.445-68.905c-8.276-9.84-16.88-18.173-25.568-25.232 30.292-18.474 60.702-22.685 80.81-22.978-20.823 14.143-39.316 30.283-55.242 48.21m11.19-111.983a110.3 110.3 0 0 1 21.727-4.735c-21.734 20.078-40.124 43.918-54.864 71.102a173 173 0 0 0-17.465 10.195 173 173 0 0 0-23.922-13.277c19.67-32.297 44.71-53.572 74.524-63.285m-2.349-56.603c-9.562 15.538-17.76 31.569-24.518 47.906a124.3 124.3 0 0 0-13.06-21.301c12.339-12.762 26.282-21.233 37.578-26.605m-96.312.062c18.839 9.01 45.054 26.641 59.076 58.581a148 148 0 0 0-10.885 8.275c-7.46-6.248-14.933-11.298-22.233-15.37-7.02-17.579-15.707-34.819-25.958-51.486m-24.146 51.784c15.513 1.765 37.958 7.82 60.47 26.072-6.408 6.565-12.753 14.153-18.877 22.923-12.088-18.184-26.008-34.585-41.593-48.995m-22.388 68.457a163 163 0 0 1 34.74 4.201c36.953 8.58 67.891 29.019 92.243 60.861a127.5 127.5 0 0 0-32.31-4.144c-9.123 0-18.024.969-26.61 2.796-18.498-24.219-41.309-45.576-68.063-63.714m33.005 95.566 16.125 16.125-22.868 22.867-17.369-17.369a112.6 112.6 0 0 1 24.112-21.623m-24.111 215.854 17.369-17.369 22.868 22.868-16.125 16.125a112.6 112.6 0 0 1-24.112-21.624m147.445 21.623-16.125-16.125 22.868-22.868 17.369 17.369a112.6 112.6 0 0 1-24.112 21.624"/></svg>