<svg xmlns="http://www.w3.org/2000/svg" xml:space="preserve" viewBox="0 0 512 512"><path d="M180.111 90.398c.382.135 5.434 1.867 12.385 1.867 4.8 0 10.505-.831 16.202-3.579 11.394 12.199 27.119 25.162 45.355 29.721a8.04 8.04 0 0 0 3.888 0c18.237-4.559 33.961-17.522 45.355-29.721 5.697 2.749 11.402 3.579 16.202 3.579 6.949 0 12.003-1.732 12.385-1.867a8.016 8.016 0 0 0-5.336-15.118c-.075.027-5.817 1.907-12.27.378 5.106-6.701 8.093-11.614 8.451-12.21a8.018 8.018 0 0 0-13.748-8.25c-.06.1-6.122 10.136-16.161 21.179-7.053 7.758-17.192 17.185-28.807 22.799v-34.39c24.874-11.174 33.419-36.008 33.793-37.131a8.017 8.017 0 0 0-15.212-5.07c-.059.177-5.034 14.65-18.583 23.89V8.017a8.017 8.017 0 0 0-16.034 0v38.429c-13.373-9.195-18.495-23.61-18.592-23.891a8.018 8.018 0 0 0-15.202 5.099c.374 1.124 8.919 25.957 33.793 37.131v34.411c-25.658-12.338-44.757-43.647-44.967-43.997a8.015 8.015 0 0 0-10.999-2.749 8.015 8.015 0 0 0-2.749 10.999c.358.596 3.342 5.505 8.444 12.201-6.361 1.489-12.076-.311-12.316-.388-4.16-1.433-8.707.754-10.175 4.91-1.467 4.174.723 8.754 4.898 10.226"/><path d="M494.657 263.603a8.015 8.015 0 0 0-9.722-5.833c-.957.239-16.4 4.188-40.207 14.979 4.689-15.417 15.291-28.621 15.428-28.791a8.015 8.015 0 0 0-1.146-11.271 8.016 8.016 0 0 0-11.28 1.139c-.814.998-18.845 23.348-21.016 47.666a417 417 0 0 0-44.33 26.552c3.743-23.282 19.943-44.218 20.261-44.624a8.017 8.017 0 0 0-12.582-9.939c-.399.505-3.926 5.028-8.183 12.18-2.713-2.371-5.824-5.568-8.345-9.463a8.015 8.015 0 0 0-11.085-2.375 8.015 8.015 0 0 0-2.375 11.085c4.441 6.864 10.071 12.03 14.26 15.304-5.095 11.47-9.296 25.516-8.683 39.893a455 455 0 0 0-46.729 40.681c-2.711-32.205 12.232-66.764 12.471-67.307a8.017 8.017 0 0 0-14.667-6.477c-.35.791-3.696 8.483-7.049 19.965-3.33-2.892-7.498-7.128-10.712-12.43a8.016 8.016 0 0 0-11.011-2.699 8.016 8.016 0 0 0-2.699 11.011c6.848 11.296 16.61 18.668 20.257 21.176-3.041 15.542-4.519 33.99-.532 51.3a473 473 0 0 0-40.966 51.328V252.364c20.587-10.662 38.686-22.981 54.37-35.656 8.048 2.416 16.475 3.374 24.712 3.374 8.255 0 16.302-.942 23.561-2.267 5.467 9.852 12.508 16.117 12.865 16.429a7.98 7.98 0 0 0 5.275 1.982 8 8 0 0 0 6.037-2.74 8.016 8.016 0 0 0-.757-11.312c-.051-.045-3.542-3.189-7.011-8.235 7.974-2.308 13.197-4.444 13.83-4.707 4.085-1.698 6.018-6.386 4.323-10.472s-6.384-6.026-10.473-4.334c-.355.148-30.044 12.225-57.015 9.113a357 357 0 0 0 36.678-38.793c4.072.721 8.202 1.035 12.27 1.035 20.783 0 39.905-7.914 40.934-8.347a8.017 8.017 0 0 0-6.216-14.78c-.068.029-6.924 2.89-16.568 4.986-5.273 1.147-11.999 2.179-18.875 2.103 17.952-24.649 26.31-42.745 26.704-43.61a8.014 8.014 0 0 0-3.956-10.617 8.02 8.02 0 0 0-10.625 3.948c-.09.198-8.016 17.279-24.764 40.386-3.977-17.208-.48-36.019-.435-36.253a8.017 8.017 0 0 0-6.343-9.389c-4.342-.841-8.553 1.995-9.398 6.341-.259 1.331-5.854 31.089 4.382 54.63a340.4 340.4 0 0 1-37.838 39.427c-6.797-28.45 3.307-62.134 3.422-62.509a8.015 8.015 0 0 0-5.303-10.014 8.014 8.014 0 0 0-10.021 5.301c-.218.708-2.215 7.323-3.938 17.147-3.005-2.136-6.561-5.118-9.549-8.92a8.017 8.017 0 1 0-12.606 9.908c7.037 8.953 16.08 14.427 19.981 16.523-.971 13.609-.335 29.392 4.591 43.835-12.502 9.935-26.574 19.596-42.245 28.287v-89.332a8.017 8.017 0 0 0-16.034 0v89.332c-15.671-8.691-29.743-18.352-42.245-28.287 4.925-14.442 5.561-30.226 4.591-43.835 3.9-2.096 12.944-7.57 19.981-16.523a8.017 8.017 0 0 0-1.349-11.257 8.015 8.015 0 0 0-11.257 1.349c-2.989 3.803-6.544 6.784-9.549 8.92-1.723-9.824-3.72-16.439-3.938-17.146-1.302-4.229-5.786-6.596-10.013-5.3a8.02 8.02 0 0 0-5.311 10.013c.115.376 10.22 34.06 3.422 62.509a340.6 340.6 0 0 1-37.838-39.427c10.237-23.542 4.641-53.299 4.382-54.63a8.017 8.017 0 0 0-15.739 3.057c1.204 6.195 2.77 22.032-.466 36.204-16.729-23.087-24.645-40.15-24.736-40.348a8.02 8.02 0 0 0-10.621-3.955 8.016 8.016 0 0 0-3.961 10.623c.394.866 8.756 18.972 26.719 43.63-17.665.212-35.245-7.02-35.457-7.109a8.017 8.017 0 1 0-6.216 14.78c1.029.433 20.15 8.347 40.934 8.347 4.067 0 8.198-.313 12.27-1.036a357 357 0 0 0 36.677 38.793c-26.97 3.11-56.658-8.965-57.007-9.11a8.02 8.02 0 0 0-10.481 4.323 8.015 8.015 0 0 0 4.323 10.48c.633.263 5.852 2.399 13.821 4.705-3.447 5.02-6.916 8.16-7.02 8.253a8.017 8.017 0 0 0 5.299 14.036 8 8 0 0 0 5.275-1.982c.357-.312 7.412-6.569 12.883-16.425 7.252 1.324 15.294 2.264 23.542 2.263 8.235 0 16.664-.96 24.712-3.376 15.684 12.675 33.785 24.994 54.37 35.656V426.65a473 473 0 0 0-40.966-51.328c3.987-17.311 2.509-35.758-.532-51.3 3.647-2.508 13.407-9.88 20.257-21.176a8.016 8.016 0 0 0-2.699-11.011 8.015 8.015 0 0 0-11.011 2.699c-3.219 5.31-7.383 9.542-10.712 12.433-3.353-11.483-6.701-19.176-7.049-19.967a8.014 8.014 0 0 0-10.566-4.093c-4.049 1.785-5.884 6.516-4.101 10.567.174.397 15.189 35.035 12.472 67.31a455 455 0 0 0-46.729-40.681c.614-14.378-3.587-28.423-8.683-39.893 4.189-3.273 9.818-8.44 14.26-15.304a8.015 8.015 0 0 0-2.375-11.085 8.016 8.016 0 0 0-11.085 2.375c-2.52 3.895-5.631 7.091-8.346 9.463-4.256-7.151-7.784-11.676-8.182-12.179a8.017 8.017 0 0 0-12.579 9.943c.199.251 16.539 21.197 20.273 44.631a416.281 416.281 0 0 0-44.345-26.562c-2.171-24.318-20.2-46.667-21.016-47.666a8.018 8.018 0 0 0-12.419 10.141c3.624 4.437 11.509 16.127 15.38 28.763-23.785-10.778-39.21-14.722-40.166-14.96-4.291-1.074-8.639 1.535-9.716 5.827s1.53 8.645 5.82 9.727c.223.057 15.333 3.953 38.591 14.571-14.478 7.968-32.161 9.774-32.375 9.794a8.017 8.017 0 0 0 1.502 15.962c1.258-.119 28.739-2.877 47.567-17.623a395 395 0 0 1 23.264 13.073 408 408 0 0 1 21.719 14.166c-22.639 11.802-52.354 11.645-52.696 11.636-4.435-.107-8.062 3.487-8.118 7.914a8.016 8.016 0 0 0 7.914 8.118q.132.002.538.002c1.359 0 4.958-.046 9.991-.44-2.561 4.66-5.056 7.644-5.16 7.766a8.017 8.017 0 0 0 12.131 10.484c.343-.395 7.494-8.75 11.672-20.803 12.089-2.389 26.009-6.685 37.85-14.381 14.83 11.282 30.603 24.81 46.497 40.897-31.104 11.503-70.248 4.871-70.68 4.796a8.017 8.017 0 0 0-2.789 15.789c.756.134 7.347 1.26 17.169 1.872-3.523 7.774-8.119 13.051-8.221 13.168a8.017 8.017 0 0 0 5.981 13.354 8 8 0 0 0 5.971-2.665c.387-.432 8.788-9.912 13.358-23.529 15.711-.379 34.464-2.817 51.043-10.34 17.884 19.543 35.644 42.418 52.1 69.062v48.019a8.017 8.017 0 0 0 8.017 8.017 8.017 8.017 0 0 0 8.017-8.017v-48.017c16.456-26.644 34.215-49.52 52.1-69.062 16.58 7.525 35.331 9.962 51.043 10.34 4.57 13.617 12.971 23.097 13.358 23.528a7.98 7.98 0 0 0 5.957 2.659 8 8 0 0 0 5.337-2.036c3.298-2.939 3.587-8.003.658-11.31-.06-.068-4.683-5.359-8.223-13.169 9.821-.611 16.412-1.738 17.168-1.872a8.017 8.017 0 0 0-2.789-15.789c-.437.077-39.516 6.756-70.682-4.793 15.896-16.088 31.669-29.618 46.5-40.9 11.839 7.696 25.76 11.992 37.85 14.381 4.178 12.054 11.329 20.407 11.672 20.804a7.97 7.97 0 0 0 6.047 2.761c1.853 0 3.717-.64 5.233-1.945 3.348-2.882 3.725-7.939.854-11.296-.043-.049-2.569-3.05-5.163-7.77 5.033.395 8.632.44 9.991.44l.538-.002a8.014 8.014 0 0 0 7.91-8.111c-.052-4.394-3.634-7.922-8.018-7.922h-.089c-.343-.011-30.059.162-52.703-11.637a408 408 0 0 1 21.719-14.166 396 396 0 0 1 23.264-13.073c18.828 14.744 46.309 17.504 47.567 17.623q.383.036.76.036a8.017 8.017 0 0 0 .742-15.998c-5.877-.554-20.411-3.29-32.334-9.812 23.091-10.538 38.139-14.447 38.544-14.551a8.02 8.02 0 0 0 5.831-9.724"/></svg>