<svg xmlns="http://www.w3.org/2000/svg" xml:space="preserve" viewBox="0 0 512.001 512.001"><path d="M247.456 8.017c-13.819 0-25.059 7.725-29.884 11.655-1.561 1.271-2.036 3.404-1.228 5.248l6.334 14.47a4.43 4.43 0 0 0 6.057 2.183c10.541-5.328 22.276-1.554 22.276 13.117 0 18.884-29.216 55.937-29.216 55.937l68.408 8.551C298.756 42.221 273.46 8.017 247.456 8.017" style="fill:#becd55"/><path d="M265.46 116.086c3.909-21.335 7.121-48.797 2.832-68.521-6.577-30.253-33.989-21.661-48.06-13.762l2.446 5.587a4.43 4.43 0 0 0 6.057 2.183c10.541-5.328 22.276-1.554 22.276 13.117 0 18.884-29.216 55.937-29.216 55.937z" style="fill:#aab955"/><path d="M179.042 108.872c-5.325-.758-19.247-1.741-25.309-3.01-57.81-12.11-94.142 15-101.746 59.793-9.25 54.493 36.042 296.198 84.79 326.967 15.313 9.665 46.66 7.844 67.919 3.818z" style="fill:#ffc850"/><path d="M332.96 108.872c5.325-.758 19.247-1.741 25.309-3.01 57.81-12.11 94.142 15 101.746 59.793 9.25 54.493-36.042 296.198-84.79 326.967-15.313 9.665-46.66 7.844-67.918 3.818z" style="fill:#fff082"/><path d="M256.001 501.705c18.657 0 46.641 9.082 65.299-9.082 27.985-27.248 46.641-263.39 46.641-326.967 0-45.412-27.985-63.577-55.971-63.577-18.657 0-27.985 9.082-55.971 9.082s-37.312-9.083-55.968-9.083c-27.985 0-55.971 18.164-55.971 63.577 0 63.577 18.657 299.72 46.641 326.967 18.658 18.165 46.643 9.083 65.3 9.083" style="fill:#ffdc64"/><path d="M233.122 476.715c-22.581-71.192-36.979-265.804-36.979-324.104 0-11.954 1.821-22.074 4.964-30.59 1.614-4.375.934-9.229-1.864-12.959-3.221-4.295-8.69-6.497-13.901-5.209-22.317 5.518-41.282 24.42-41.282 61.802 0 63.577 18.656 299.72 46.641 326.967 4.68 4.556 9.942 7.391 15.495 9.085 8.822 2.69 18.707.573 24.091-6.916 4.074-5.665 4.721-12.132 2.835-18.076" style="fill:#ffd25a"/><path d="M467.918 164.314c-4.072-23.99-15.629-43.078-33.419-55.199-20.131-13.716-47.059-17.553-77.873-11.099a256 256 0 0 1-15.235 2.741c-9.403-4.636-19.678-6.695-29.42-6.695-5.697 0-10.546.734-15.152 1.778 2.56-37.561-3.645-65.704-18.112-81.716C270.358 4.884 259.551 0 247.456 0c-16.033 0-28.777 8.431-34.946 13.456-4.313 3.512-5.756 9.548-3.51 14.679l6.334 14.469a12.5 12.5 0 0 0 7.195 6.726 12.5 12.5 0 0 0 9.823-.604c3.144-1.588 6.366-1.884 8.209-.749 2.119 1.303 2.435 4.765 2.435 6.713 0 13.315-13.817 35.326-19.141 42.684l-.453.604c-7.261-2.046-14.233-3.917-23.371-3.917-9.742 0-20.017 2.06-29.42 6.695a258 258 0 0 1-15.235-2.741c-30.814-6.454-57.742-2.617-77.873 11.099-17.791 12.121-29.347 31.209-33.419 55.199-4.792 28.227 3.928 102.039 20.734 175.509 8.815 38.537 18.976 72.885 29.384 99.33 12.713 32.3 25.239 52.008 38.295 60.249 6.81 4.298 15.985 8.23 32.567 8.23 7.664 0 16.94-.856 28.263-2.889 15.524 9.411 33.811 7.533 48.966 5.976 4.996-.513 9.714-.998 13.707-.998s8.711.485 13.707.998c5.988.616 12.461 1.282 19.062 1.282 10.099 0 20.487-1.576 29.873-7.256 9.013 1.639 18.483 2.939 27.759 2.938 11.82 0 23.315-2.105 33.103-8.282 31.703-20.012 56.011-108.57 67.679-159.578 16.807-73.469 25.527-147.281 20.735-175.508M248.961 34.321c-5.751-3.537-13.155-4.002-20.365-1.403l-3.802-8.685c4.585-3.311 12.991-8.199 22.662-8.199 7.543 0 14.055 2.974 19.354 8.84 11.965 13.241 16.758 39.92 13.586 75.33-6.595 1.635-14.08 2.94-24.396 2.94-6.151 0-11.294-.465-15.845-1.186C246.463 92.4 259.03 71.28 259.03 54.69c0-12.335-6.309-18.056-10.069-20.369M141.055 485.844c-19.024-12.008-42.247-69.329-60.607-149.596-16.13-70.512-24.967-143.273-20.558-169.251 3.325-19.59 12.538-35.025 26.641-44.632 16.444-11.203 39.113-14.197 65.558-8.657.36.076.704.141 1.061.215-10.229 11.366-17.106 28.145-17.106 51.731 0 32.914 4.817 108.506 12.88 178.031 4.542 39.159 9.534 71.777 14.84 96.947 5.908 28.022 11.279 42.27 15.673 50.071-14.082 1.771-28.189 1.574-38.382-4.859m130.292 8.926c-5.416-.557-10.532-1.083-15.347-1.083s-9.931.526-15.347 1.083c-16.122 1.657-32.791 3.37-44.359-7.892-3.867-3.766-17.566-25.354-31.444-145.039-7.995-68.949-12.773-143.725-12.773-176.184 0-26.86 12.598-55.56 47.953-55.56 7.277 0 13.112 1.647 19.868 3.554 9.181 2.591 19.587 5.528 36.102 5.528s26.922-2.937 36.102-5.528c6.756-1.907 12.591-3.554 19.868-3.554 35.356 0 47.954 28.701 47.954 55.56 0 32.459-4.778 107.235-12.773 176.184-13.878 119.685-27.577 141.273-31.444 145.039-11.568 11.263-28.238 9.55-44.36 7.892m160.207-158.521c-18.36 80.266-41.584 137.588-60.607 149.596-10.193 6.435-24.3 6.631-38.382 4.861 4.393-7.802 9.765-22.051 15.673-50.073 5.306-25.17 10.3-57.788 14.84-96.947 8.061-69.525 12.88-145.116 12.88-178.031 0-23.587-6.877-40.366-17.107-51.733.357-.074.701-.139 1.061-.214 26.446-5.542 49.115-2.546 65.558 8.657 14.103 9.608 23.315 25.042 26.641 44.632 4.411 25.979-4.427 98.74-20.557 169.252"/><path d="M319.871 146.125c4.835 3.321 5.85 12.453 5.85 19.529 0 7.522-.294 17.939-.85 30.125a8.016 8.016 0 0 0 8.014 8.383 8.02 8.02 0 0 0 8.002-7.651c.575-12.603.867-22.984.867-30.856 0-15.891-4.308-26.908-12.804-32.744a8.017 8.017 0 0 0-9.079 13.214M201.22 357.593a8.017 8.017 0 0 0-15.905 2.029c7.707 60.42 14.992 89.981 19.746 104.141a8.02 8.02 0 0 0 7.599 5.467 8.017 8.017 0 0 0 7.6-10.57c-3.704-11.031-11.103-38.829-19.04-101.067M427.163 188.13c-4.428-.231-8.188 3.181-8.41 7.602-1.331 26.364-6.385 63.35-13.871 101.478a8.016 8.016 0 0 0 7.875 9.562 8.02 8.02 0 0 0 7.857-6.474c7.626-38.846 12.784-76.665 14.151-103.759a8.016 8.016 0 0 0-7.602-8.409M416.349 164.582a8.009 8.009 0 0 0 10.208 4.934 8.017 8.017 0 0 0 4.933-10.208c-3.475-9.976-9.287-17.607-17.276-22.679a8.014 8.014 0 0 0-11.065 2.47 8.016 8.016 0 0 0 2.47 11.065c4.93 3.131 8.442 7.848 10.73 14.418"/></svg>