<svg xmlns="http://www.w3.org/2000/svg" xml:space="preserve" viewBox="0 0 512 512"><path d="M365.039 72.677c-13.79 6.282-39.156 20.245-64.114 46.504l-91.836-.197s59.139-72.942 155.033-53.304c3.525.724 4.192 5.506.917 6.997" style="fill:#8ce16e"/><path d="M251.764 119.077c36.878-40.794 93.579-49.087 115.102-50.77.505 1.63.047 3.517-1.827 4.371-13.79 6.282-39.156 20.245-64.114 46.504zM235.394 17.278l6.354 76.251h28.504l6.353-76.251c.416-4.985-3.519-9.261-8.521-9.261h-24.169c-5.002 0-8.937 4.275-8.521 9.261" style="fill:#7dc86e"/><path d="M146.961 72.677c13.79 6.282 39.156 20.245 64.114 46.504l91.835-.197S243.771 46.042 147.877 65.68c-3.525.724-4.191 5.506-.916 6.997" style="fill:#8ce16e"/><path d="M260.236 119.077c-36.878-40.794-93.579-49.087-115.102-50.77-.505 1.63-.047 3.517 1.827 4.371 13.79 6.282 39.156 20.245 64.114 46.504z" style="fill:#7dc86e"/><path d="M256 503.983c25.528 0 41.701-12.152 59.858-33.477 42.756-50.216 102.614-192.41 102.614-242.707 0-58.585-51.307-117.169-162.472-117.169S93.528 169.215 93.528 227.799c0 50.297 59.858 192.492 102.614 242.707 18.157 21.325 34.33 33.477 59.858 33.477" style="fill:#ff5050"/><path d="M249.772 487.161c2.001-4.669 1.919-9.897-.199-14.513-35.572-77.558-70.534-189.682-70.534-236.48 0-37.612 14.398-75.121 44.232-102.238 3.195-2.904 4.677-7.236 3.631-11.424-1.424-5.696-6.935-9.539-12.737-8.635-82.167 12.807-120.637 63.299-120.637 113.928 0 50.297 59.858 192.492 102.614 242.707 9.314 10.939 18.139 19.412 27.964 25.083 9.385 5.415 21.397 1.532 25.666-8.428" style="fill:#c84146"/><path d="M384.014 141.053c-17.69-14.544-39.965-25.114-65.88-31.449 30.865-25.374 59.489-33.935 59.799-34.026a8.017 8.017 0 0 0-.272-15.481c-33.402-8.352-66.946-7.522-98.457 2.248l5.044-43.886a16.58 16.58 0 0 0-4.094-12.918A16.59 16.59 0 0 0 267.788 0h-23.576c-4.719 0-9.226 2.02-12.366 5.542s-4.632 8.23-4.094 12.918l5.046 43.907c-26.019-8.069-59.514-12.007-98.46-2.269a8.015 8.015 0 0 0-.272 15.481c.32.092 28.826 8.524 59.806 34.024-25.919 6.335-48.194 16.905-65.887 31.45-27.389 22.519-42.474 53.326-42.474 86.747 0 52.629 60.567 196.274 104.527 247.904C208.588 497.49 226.904 512 256 512s47.412-14.51 65.961-36.296c43.96-51.63 104.527-195.275 104.527-247.904.001-33.422-15.084-64.228-42.474-86.747M347.538 71.08c-12.748 6.553-28.869 16.503-45.292 30.98-5.765-5.296-15.268-13.168-28.167-21.018 23.594-9.088 48.171-12.423 73.459-9.962M243.682 16.629c-.007-.065-.028-.238.131-.417s.333-.179.399-.179h23.576c.066 0 .239 0 .4.179a.5.5 0 0 1 .131.417l-5.963 51.879c-2.131.902-4.253 1.84-6.361 2.826a185 185 0 0 0-6.349-2.819zm-79.223 54.449c31.021-3.024 60.969 2.664 89.328 17.008a174 174 0 0 1 24.915 15.382 299 299 0 0 0-22.703-.855c-14.807 0-28.922 1.035-42.246 3.066-17.786-16.456-35.512-27.516-49.294-34.601m145.296 394.231c-16.533 19.416-30.628 30.658-53.755 30.658s-37.222-11.242-53.755-30.658c-19.236-22.591-44.547-68.282-66.059-119.243a794 794 0 0 1-10.347-25.742 8 8 0 0 0 1.359-4.465v-8.551a8.017 8.017 0 0 0-8.017-8.017c-.326 0-.646.025-.961.063-10.576-30.737-16.676-56.427-16.676-71.555 0-54.331 47.759-109.152 154.455-109.152s154.455 54.821 154.455 109.152c0 15.128-6.1 40.818-16.677 71.554a8 8 0 0 0-.958-.062 8.017 8.017 0 0 0-8.017 8.017v8.551c0 1.652.5 3.186 1.357 4.463a794 794 0 0 1-10.348 25.745c-21.51 50.961-46.822 96.652-66.056 119.242"/><path d="M221.796 256.534a8.017 8.017 0 0 0-8.017 8.017v8.551a8.017 8.017 0 0 0 16.034 0v-8.551a8.017 8.017 0 0 0-8.017-8.017M290.206 256.534a8.017 8.017 0 0 0-8.017 8.017v8.551a8.017 8.017 0 0 0 16.034 0v-8.551a8.02 8.02 0 0 0-8.017-8.017M358.615 256.534a8.017 8.017 0 0 0-8.017 8.017v8.551a8.017 8.017 0 0 0 16.034 0v-8.551a8.02 8.02 0 0 0-8.017-8.017M153.386 256.534a8.017 8.017 0 0 0-8.017 8.017v8.551a8.017 8.017 0 0 0 16.034 0v-8.551a8.017 8.017 0 0 0-8.017-8.017M221.796 171.023a8.017 8.017 0 0 0-8.017 8.017v8.551a8.017 8.017 0 0 0 16.034 0v-8.551a8.016 8.016 0 0 0-8.017-8.017M290.206 171.023a8.017 8.017 0 0 0-8.017 8.017v8.551a8.017 8.017 0 0 0 16.034 0v-8.551a8.017 8.017 0 0 0-8.017-8.017M358.615 171.023a8.017 8.017 0 0 0-8.017 8.017v8.551a8.017 8.017 0 0 0 16.034 0v-8.551a8.017 8.017 0 0 0-8.017-8.017M153.386 171.023a8.017 8.017 0 0 0-8.017 8.017v8.551a8.017 8.017 0 0 0 16.034 0v-8.551a8.016 8.016 0 0 0-8.017-8.017M256.002 299.29a8.017 8.017 0 0 0-8.017 8.017v8.551a8.017 8.017 0 0 0 16.034 0v-8.551a8.017 8.017 0 0 0-8.017-8.017M324.411 299.29a8.017 8.017 0 0 0-8.017 8.017v8.551a8.017 8.017 0 0 0 16.034 0v-8.551a8.017 8.017 0 0 0-8.017-8.017M187.592 299.29a8.017 8.017 0 0 0-8.017 8.017v8.551a8.017 8.017 0 0 0 16.034 0v-8.551a8.02 8.02 0 0 0-8.017-8.017M221.796 342.046a8.017 8.017 0 0 0-8.017 8.017v8.551a8.017 8.017 0 0 0 16.034 0v-8.551a8.016 8.016 0 0 0-8.017-8.017M290.206 342.046a8.017 8.017 0 0 0-8.017 8.017v8.551a8.017 8.017 0 0 0 16.034 0v-8.551a8.017 8.017 0 0 0-8.017-8.017M358.615 342.046a8.017 8.017 0 0 0-8.017 8.017v8.551a8.017 8.017 0 0 0 16.034 0v-8.551a8.017 8.017 0 0 0-8.017-8.017M153.386 342.046a8.017 8.017 0 0 0-8.017 8.017v8.551a8.017 8.017 0 0 0 16.034 0v-8.551a8.016 8.016 0 0 0-8.017-8.017M221.796 427.557a8.017 8.017 0 0 0-8.017 8.017v8.551a8.017 8.017 0 0 0 16.034 0v-8.551a8.017 8.017 0 0 0-8.017-8.017M290.206 427.557a8.017 8.017 0 0 0-8.017 8.017v8.551a8.017 8.017 0 0 0 16.034 0v-8.551a8.02 8.02 0 0 0-8.017-8.017M256.002 384.802a8.017 8.017 0 0 0-8.017 8.017v8.551a8.017 8.017 0 0 0 16.034 0v-8.551a8.016 8.016 0 0 0-8.017-8.017M324.411 384.802a8.017 8.017 0 0 0-8.017 8.017v8.551a8.017 8.017 0 0 0 16.034 0v-8.551a8.016 8.016 0 0 0-8.017-8.017M187.592 384.802a8.017 8.017 0 0 0-8.017 8.017v8.551a8.017 8.017 0 0 0 16.034 0v-8.551a8.017 8.017 0 0 0-8.017-8.017M256.002 470.313a8.017 8.017 0 0 0-8.017 8.017v8.551a8.017 8.017 0 0 0 16.034 0v-8.551a8.016 8.016 0 0 0-8.017-8.017M256.002 213.779a8.017 8.017 0 0 0-8.017 8.017v8.551a8.017 8.017 0 0 0 16.034 0v-8.551a8.016 8.016 0 0 0-8.017-8.017M119.183 213.779a8.017 8.017 0 0 0-8.017 8.017v8.551a8.017 8.017 0 0 0 16.034 0v-8.551a8.02 8.02 0 0 0-8.017-8.017M324.411 213.779a8.017 8.017 0 0 0-8.017 8.017v8.551a8.017 8.017 0 0 0 16.034 0v-8.551a8.016 8.016 0 0 0-8.017-8.017M392.819 238.363a8.017 8.017 0 0 0 8.017-8.017v-8.551a8.017 8.017 0 0 0-16.034 0v8.551a8.02 8.02 0 0 0 8.017 8.017M187.592 213.779a8.017 8.017 0 0 0-8.017 8.017v8.551a8.017 8.017 0 0 0 16.034 0v-8.551a8.017 8.017 0 0 0-8.017-8.017M256.002 128.267a8.017 8.017 0 0 0-8.017 8.017v8.551a8.017 8.017 0 0 0 16.034 0v-8.551a8.017 8.017 0 0 0-8.017-8.017M324.411 128.267a8.017 8.017 0 0 0-8.017 8.017v8.551a8.017 8.017 0 0 0 16.034 0v-8.551a8.017 8.017 0 0 0-8.017-8.017M187.592 128.267a8.017 8.017 0 0 0-8.017 8.017v8.551a8.017 8.017 0 0 0 16.034 0v-8.551a8.02 8.02 0 0 0-8.017-8.017"/></svg>