<svg xmlns="http://www.w3.org/2000/svg" xml:space="preserve" viewBox="0 0 512 512"><path d="M93.49 118.2c-4.402 21.689-23.578 38.014-46.567 38.014-20.994 0-38.014 17.02-38.014 38.014v266.097c0 20.994 17.02 38.014 38.014 38.014h418.153c20.994 0 38.014-17.02 38.014-38.014V194.227c0-20.994-17.02-38.014-38.014-38.014-22.989 0-42.163-16.325-46.567-38.014l-.95-28.51H94.441z" style="fill:#faebc8"/><path d="m418.511 118.2-.952-28.51H94.447l-.006-.001-.952 28.51c-4.374 21.547-23.326 37.799-46.116 38.012-20.977.195-38.465 15.789-38.465 36.767v267.347c0 20.994 17.02 38.014 38.014 38.014h141.091c-14.938 0-27.049-17.02-27.049-38.014V194.227c0-20.994 12.11-38.014 27.049-38.014 20.468 0 48.064-14.193 53.129-16.124 5.038-1.92 7.568-2.883 14.792-2.883 7.216 0 9.741.963 14.776 2.882 7.331 2.795 17.37 6.622 35.084 6.622 17.722 0 27.766-3.825 35.099-6.619 5.043-1.921 7.574-2.884 14.805-2.884 7.243 0 9.777.965 14.827 2.887 7.337 2.793 17.384 6.617 35.111 6.617 11.911 0 20.309-1.732 26.794-3.712-6.907-6.577-11.95-15.093-13.919-24.799" style="fill:#f5dcb4"/><path d="M46.923 222.738h418.153v237.587H46.923z" style="fill:#ff9a32"/><path d="M46.923 222.738h114.042v237.587H46.923z" style="fill:#ff7d28"/><path d="M427.063 70.682H84.937L66.168 95.708c-3.943 5.258-1.327 13.009 5.08 14.475 11.679 2.674 16.358 8.015 35.054 8.015 24.936 0 24.936-9.503 49.873-9.503s24.937 9.503 49.874 9.503c24.944 0 24.944-9.503 49.887-9.503 24.93 0 24.93 9.503 49.86 9.503 24.951 0 24.951-9.503 49.903-9.503 24.969 0 24.969 9.503 49.938 9.503 18.727 0 23.408-5.346 35.112-8.019 6.408-1.464 9.025-9.218 5.082-14.476z" style="fill:#ffc850"/><path d="M204.409 70.682H84.937L66.168 95.708c-3.943 5.258-1.327 13.009 5.08 14.475 11.679 2.674 16.358 8.015 35.054 8.015 24.936 0 24.936-9.503 49.873-9.503 15.278 0 21.206 3.564 29.233 6.327z" style="fill:#ebaf46"/><path d="M370.042 412.807H141.958c-10.498 0-19.007-8.509-19.007-19.007V222.738c0-10.498 8.509-19.007 19.007-19.007h228.084c10.498 0 19.007 8.509 19.007 19.007V393.8c0 10.498-8.509 19.007-19.007 19.007" style="fill:#ffdc64"/><path d="M141.958 203.731c-10.497 0-19.007 8.509-19.007 19.007V393.8c0 10.497 8.51 19.007 19.007 19.007h19.007V203.731z" style="fill:#ffc850"/><path d="M427.063 80.186H84.937c-10.498 0-19.007-8.509-19.007-19.007v-28.51c0-10.498 8.509-19.007 19.007-19.007h342.125c10.498 0 19.007 8.509 19.007 19.007v28.51c.001 10.497-8.509 19.007-19.006 19.007" style="fill:#ffdc64"/><path d="M189.476 61.179v-28.51c0-10.498 8.51-19.007 19.007-19.007H84.937c-10.497 0-19.007 8.509-19.007 19.007v28.51c0 10.497 8.51 19.007 19.007 19.007h123.545c-10.496 0-19.006-8.511-19.006-19.007M289.262 241.745 256 260.949l-33.262-19.204-33.262 19.204v38.407l33.262 19.204v38.413L256 376.177l33.262-19.204V318.56l33.262-19.204v-38.407z" style="fill:#ffc850"/><path d="M151.462 89.095h171.063a8.91 8.91 0 0 0 0-17.82H151.462a8.91 8.91 0 0 0 0 17.82M360.538 89.095h19.005a8.91 8.91 0 0 0 0-17.82h-19.005a8.91 8.91 0 0 0 0 17.82"/><path d="M465.077 147.304c-15.817 0-29.848-9.714-35.705-23.91a158 158 0 0 0 4.402-1.619c5.878-2.237 10.953-4.17 21.8-4.17a8.91 8.91 0 0 0 7.413-13.851l-15.626-23.439c4.717-5.001 7.618-11.734 7.618-19.136v-28.51c0-15.393-12.523-27.916-27.916-27.916H84.937c-15.393 0-27.916 12.523-27.916 27.916v28.51c0 7.402 2.901 14.135 7.619 19.136l-15.626 23.439a8.91 8.91 0 0 0 7.413 13.851c10.828 0 15.896 1.932 21.764 4.167a154 154 0 0 0 4.433 1.632c-5.86 14.19-19.887 23.899-35.701 23.899C21.05 147.304 0 168.354 0 194.227v266.097c0 25.873 21.05 46.923 46.923 46.923h418.153c25.873 0 46.923-21.05 46.923-46.923V194.227c.001-25.873-21.049-46.923-46.922-46.923M72.098 101.251l8.348-12.522c1.464.238 2.963.366 4.492.366h28.51a8.91 8.91 0 0 0 0-17.82h-28.51c-5.568 0-10.097-4.53-10.097-10.097v-28.51c0-5.568 4.53-10.097 10.097-10.097h342.125c5.568 0 10.097 4.53 10.097 10.097v28.51c0 5.568-4.53 10.097-10.097 10.097h-9.507a8.91 8.91 0 0 0 0 17.82h9.507c1.529 0 3.028-.128 4.492-.366l8.345 12.518c-5.042 1.048-8.883 2.51-12.465 3.873-5.877 2.237-10.953 4.17-21.8 4.17s-15.922-1.932-21.8-4.17c-6.569-2.501-14.015-5.334-28.139-5.334-14.115 0-21.557 2.834-28.123 5.335-5.871 2.237-10.942 4.168-21.778 4.168-10.824 0-15.89-1.932-21.756-4.167-6.561-2.502-13.999-5.336-28.104-5.336-14.111 0-21.552 2.834-28.115 5.335-5.871 2.237-10.94 4.168-21.772 4.168-10.828 0-15.896-1.932-21.764-4.167-6.562-2.502-14.001-5.336-28.11-5.336s-21.547 2.834-28.11 5.336c-5.867 2.236-10.935 4.167-21.763 4.167s-15.896-1.932-21.764-4.167c-3.574-1.362-7.409-2.823-12.439-3.871m422.083 359.074c0 16.048-13.057 29.104-29.104 29.104H46.923c-16.048 0-29.104-13.057-29.104-29.104V194.227c0-16.048 13.057-29.104 29.104-29.104 24.302 0 45.727-15.695 53.412-38.205 1.853.12 3.824.191 5.965.191 14.108 0 21.547-2.834 28.109-5.336 5.867-2.237 10.936-4.167 21.764-4.167s15.896 1.932 21.764 4.167c6.562 2.501 14.001 5.336 28.11 5.336 14.111 0 21.552-2.834 28.116-5.335 5.87-2.237 10.939-4.168 21.771-4.168 10.824 0 15.891 1.932 21.757 4.167 6.561 2.501 13.997 5.336 28.103 5.336 14.115 0 21.556-2.834 28.122-5.335 5.872-2.237 10.944-4.168 21.781-4.168 10.846 0 15.922 1.932 21.8 4.17 6.569 2.501 14.015 5.334 28.139 5.334 2.164 0 4.155-.074 6.028-.195 7.684 22.511 29.11 38.209 53.413 38.209 16.048 0 29.104 13.057 29.104 29.104z"/><path d="M113.448 451.415H55.833V231.647h29.104a8.91 8.91 0 0 0 0-17.82H46.923a8.91 8.91 0 0 0-8.91 8.91v237.587a8.91 8.91 0 0 0 8.91 8.91h66.524a8.91 8.91 0 0 0 .001-17.819M465.077 289.851a8.91 8.91 0 0 0-8.909 8.91v152.654H151.462a8.91 8.91 0 0 0 0 17.82h313.615a8.91 8.91 0 0 0 8.91-8.91V298.761a8.91 8.91 0 0 0-8.91-8.91M465.077 213.828h-38.014a8.91 8.91 0 0 0 0 17.82h29.104v29.107a8.91 8.91 0 0 0 17.819 0v-38.016a8.91 8.91 0 0 0-8.909-8.911"/><path d="M397.958 393.8V222.738c0-15.393-12.523-27.916-27.916-27.916H141.958c-15.393 0-27.916 12.523-27.916 27.916V393.8c0 15.393 12.523 27.916 27.916 27.916h228.084c15.393.001 27.916-12.522 27.916-27.916m-266.097 0V222.738c0-5.568 4.53-10.097 10.097-10.097h228.084c5.568 0 10.097 4.53 10.097 10.097V393.8c0 5.568-4.53 10.097-10.097 10.097H141.958c-5.568.001-10.097-4.529-10.097-10.097"/><path d="m326.979 253.233-33.262-19.204a8.91 8.91 0 0 0-8.91 0L256 250.661l-28.807-16.632a8.91 8.91 0 0 0-8.91 0l-33.262 19.204a8.91 8.91 0 0 0-4.455 7.716v38.408a8.91 8.91 0 0 0 4.455 7.716l28.807 16.631v33.269a8.91 8.91 0 0 0 4.455 7.716l33.262 19.204a8.9 8.9 0 0 0 8.91 0l33.262-19.204a8.91 8.91 0 0 0 4.455-7.716v-33.269l28.807-16.632a8.91 8.91 0 0 0 4.455-7.716v-38.408a8.91 8.91 0 0 0-4.455-7.715m-128.594 12.86 24.353-14.06 24.353 14.06v28.12l-24.353 14.06-24.353-14.06zm81.968 85.737L256 365.89l-24.353-14.06v-28.12L256 309.65l24.353 14.06zm33.262-57.618-24.353 14.06-24.353-14.06v-28.12l24.353-14.06 24.353 14.06z"/></svg>