<svg xmlns="http://www.w3.org/2000/svg" xml:space="preserve" viewBox="0 0 512.002 512.002"><circle cx="257.455" cy="453.14" r="51.303" style="fill:#d74664"/><path d="M271.526 477.486c-18.907-4.252-34.17-19.514-38.421-38.421-1.514-6.738-1.658-13.284-.687-19.462.77-4.896-4.765-8.47-8.513-5.229-13.529 11.696-20.883 30.324-16.472 50.394 4.163 18.941 19.451 34.228 38.392 38.392 19.353 4.254 37.366-2.434 49.116-15.048 3.704-3.977.56-10.559-4.822-9.808-5.923.824-12.171.626-18.593-.818" style="fill:#be3c5a"/><circle cx="213.249" cy="384.737" r="51.303" style="fill:#d74664"/><path d="M227.322 409.083c-18.907-4.252-34.17-19.514-38.421-38.421-1.515-6.738-1.658-13.284-.687-19.462.77-4.896-4.765-8.47-8.513-5.229-13.529 11.696-20.883 30.324-16.472 50.394 4.163 18.941 19.451 34.228 38.392 38.392 19.353 4.254 37.366-2.434 49.116-15.048 3.704-3.977.56-10.559-4.822-9.808-5.924.823-12.173.626-18.593-.818" style="fill:#be3c5a"/><circle cx="298.753" cy="384.737" r="51.303" style="fill:#d74664"/><path d="M312.826 409.083c-18.907-4.252-34.17-19.514-38.421-38.421-1.514-6.738-1.658-13.284-.687-19.462.77-4.896-4.764-8.47-8.513-5.229-13.529 11.696-20.883 30.324-16.472 50.394 4.163 18.941 19.451 34.228 38.392 38.392 19.353 4.254 37.366-2.434 49.116-15.048 3.704-3.977.56-10.559-4.822-9.808-5.923.823-12.173.626-18.593-.818" style="fill:#be3c5a"/><circle cx="170.497" cy="307.783" r="51.303" style="fill:#d74664"/><path d="M184.57 332.129c-18.907-4.252-34.17-19.514-38.421-38.421-1.514-6.738-1.658-13.284-.687-19.462.77-4.896-4.765-8.47-8.513-5.229-13.529 11.696-20.883 30.324-16.472 50.394 4.163 18.941 19.451 34.228 38.392 38.392 19.353 4.254 37.366-2.434 49.116-15.048 3.704-3.977.56-10.559-4.822-9.808-5.924.824-12.173.626-18.593-.818" style="fill:#be3c5a"/><circle cx="341.505" cy="307.783" r="51.303" style="fill:#d74664"/><path d="M355.578 332.129c-18.907-4.252-34.17-19.514-38.421-38.421-1.514-6.738-1.658-13.284-.687-19.462.77-4.896-4.764-8.47-8.513-5.229-13.529 11.696-20.883 30.324-16.472 50.394 4.163 18.941 19.451 34.228 38.392 38.392 19.353 4.254 37.366-2.434 49.116-15.048 3.704-3.977.56-10.559-4.822-9.808-5.923.824-12.173.626-18.593-.818" style="fill:#be3c5a"/><circle cx="257.455" cy="307.783" r="51.303" style="fill:#d74664"/><path d="M271.526 332.129c-18.907-4.252-34.17-19.514-38.421-38.421-1.514-6.738-1.658-13.284-.687-19.462.77-4.896-4.765-8.47-8.513-5.229-13.529 11.696-20.883 30.324-16.472 50.394 4.163 18.941 19.451 34.228 38.392 38.392 19.353 4.254 37.366-2.434 49.116-15.048 3.704-3.977.56-10.559-4.822-9.808-5.923.824-12.171.626-18.593-.818" style="fill:#be3c5a"/><circle cx="170.497" cy="153.843" r="51.303" style="fill:#d74664"/><path d="M184.57 178.197c-18.907-4.252-34.17-19.514-38.421-38.421-1.514-6.738-1.658-13.284-.687-19.462.77-4.896-4.765-8.47-8.513-5.229-13.529 11.696-20.883 30.324-16.472 50.394 4.163 18.941 19.451 34.228 38.392 38.392 19.353 4.254 37.366-2.434 49.116-15.048 3.704-3.977.56-10.559-4.822-9.808-5.924.824-12.173.625-18.593-.818" style="fill:#be3c5a"/><circle cx="341.505" cy="153.843" r="51.303" style="fill:#d74664"/><path d="M355.578 178.197c-18.907-4.252-34.17-19.514-38.421-38.421-1.514-6.738-1.658-13.284-.687-19.462.77-4.896-4.764-8.47-8.513-5.229-13.529 11.696-20.883 30.324-16.472 50.394 4.163 18.941 19.451 34.228 38.392 38.392 19.353 4.254 37.366-2.434 49.116-15.048 3.704-3.977.56-10.559-4.822-9.808-5.923.824-12.173.625-18.593-.818" style="fill:#be3c5a"/><circle cx="257.455" cy="153.843" r="51.303" style="fill:#d74664"/><path d="M271.526 178.197c-18.907-4.252-34.17-19.514-38.421-38.421-1.514-6.738-1.658-13.284-.687-19.462.77-4.896-4.765-8.47-8.513-5.229-13.529 11.696-20.883 30.324-16.472 50.394 4.163 18.941 19.451 34.228 38.392 38.392 19.353 4.254 37.366-2.434 49.116-15.048 3.704-3.977.56-10.559-4.822-9.808-5.923.824-12.171.625-18.593-.818" style="fill:#be3c5a"/><circle cx="127.745" cy="230.829" r="51.303" style="fill:#d74664"/><path d="M141.818 255.175c-18.907-4.252-34.17-19.514-38.421-38.421-1.514-6.738-1.658-13.284-.687-19.462.77-4.896-4.764-8.47-8.513-5.229-13.529 11.696-20.883 30.324-16.472 50.394 4.163 18.941 19.451 34.228 38.392 38.392 19.353 4.254 37.366-2.434 49.116-15.048 3.704-3.977.56-10.559-4.822-9.808-5.924.824-12.173.626-18.593-.818" style="fill:#be3c5a"/><circle cx="213.249" cy="230.829" r="51.303" style="fill:#d74664"/><path d="M227.322 255.175c-18.907-4.252-34.17-19.514-38.421-38.421-1.515-6.738-1.658-13.284-.687-19.462.77-4.896-4.765-8.47-8.513-5.229-13.529 11.696-20.883 30.324-16.472 50.394 4.163 18.941 19.451 34.228 38.392 38.392 19.353 4.254 37.366-2.434 49.116-15.048 3.704-3.977.56-10.559-4.822-9.808-5.924.824-12.173.626-18.593-.818" style="fill:#be3c5a"/><circle cx="384.257" cy="230.829" r="51.303" style="fill:#d74664"/><path d="M398.33 255.175c-18.907-4.252-34.17-19.514-38.421-38.421-1.514-6.738-1.658-13.284-.687-19.462.77-4.896-4.764-8.47-8.513-5.229-13.529 11.696-20.883 30.324-16.472 50.394 4.163 18.941 19.451 34.228 38.392 38.392 19.353 4.254 37.366-2.434 49.116-15.048 3.704-3.977.56-10.559-4.822-9.808-5.923.824-12.173.626-18.593-.818" style="fill:#be3c5a"/><circle cx="298.753" cy="230.829" r="51.303" style="fill:#d74664"/><path d="M312.826 255.175c-18.907-4.252-34.17-19.514-38.421-38.421-1.514-6.738-1.658-13.284-.687-19.462.77-4.896-4.764-8.47-8.513-5.229-13.529 11.696-20.883 30.324-16.472 50.394 4.163 18.941 19.451 34.228 38.392 38.392 19.353 4.254 37.366-2.434 49.116-15.048 3.704-3.977.56-10.559-4.822-9.808-5.923.824-12.173.626-18.593-.818" style="fill:#be3c5a"/><path d="M316.059 12.944c-15.653 7.098-26.484 19.842-30.74 33.793a7.11 7.11 0 0 0 3.899 8.599c13.298 5.991 30.023 6.241 45.675-.857 15.653-7.098 26.484-19.842 30.74-33.793a7.11 7.11 0 0 0-3.899-8.599c-13.299-5.992-30.022-6.241-45.675.857" style="fill:#8ce16e"/><path d="M361.734 12.086c-13.299-5.991-30.023-6.24-45.675.857-15.653 7.098-26.485 19.842-30.74 33.793-.564 1.851-.307 3.729.517 5.329l79.567-36.081c-.661-1.672-1.905-3.103-3.669-3.898" style="fill:#7dc86e"/><path d="M213.249 221.286c1.601 0 3.17.419 4.539 1.212a8.016 8.016 0 0 0 10.954-2.917 8.015 8.015 0 0 0-2.918-10.954 25.1 25.1 0 0 0-12.574-3.371 8.016 8.016 0 0 0-.001 16.03M298.753 205.254a8.016 8.016 0 0 0 0 16.032c5.009 0 9.085 4.075 9.085 9.085a8.016 8.016 0 0 0 16.032 0c0-13.85-11.267-25.117-25.117-25.117"/><path d="M443.576 230.371c0-28.111-19.662-51.7-45.951-57.781a59.5 59.5 0 0 0 3.199-19.173c0-32.709-26.61-59.319-59.319-59.319a59.2 59.2 0 0 0-42.778 18.234c-9.091-9.45-21.271-15.896-34.904-17.701-.328-6.817-1.084-14.488-2.29-22.507l21.117-9.576c8.376 4.289 17.728 6.453 27.316 6.453 9.332 0 18.885-2.047 27.973-6.167 19.87-9.011 33.746-26.231 37.12-46.064a8.02 8.02 0 0 0-3.707-8.174c-17.144-10.531-39.241-11.438-59.109-2.427-18.423 8.354-31.687 23.768-36.211 41.777l-17.503 7.937c-4.444-20.211-11.669-40.405-21.997-52.923a8.016 8.016 0 0 0-12.366 10.202c9.02 10.933 22.091 43.632 23.653 81.515-13.495 1.87-25.545 8.295-34.558 17.671-11.1-11.547-26.498-18.248-42.764-18.248-32.709 0-59.319 26.61-59.319 59.319a58.9 58.9 0 0 0 3.185 19.176c-26.283 6.086-45.937 29.671-45.937 57.777s19.655 51.692 45.937 57.777a59.5 59.5 0 0 0-3.185 19.176c0 28.104 19.652 51.688 45.932 57.776a59.5 59.5 0 0 0-3.18 19.177c0 27.343 18.601 50.411 43.81 57.248a59.6 59.6 0 0 0-1.058 11.155c0 32.709 26.61 59.319 59.319 59.319s59.319-26.61 59.319-59.319c0-3.766-.362-7.494-1.059-11.155 25.21-6.836 43.811-29.905 43.811-57.248a59.5 59.5 0 0 0-3.198-19.173c26.288-6.081 45.95-29.67 45.95-57.781 0-6.537-1.108-13.024-3.202-19.172 26.291-6.079 45.954-29.67 45.954-57.781M318.865 20.768c12.858-5.831 27.31-6.16 39.02-1.138-3.939 12.119-13.708 22.772-26.565 28.602s-27.309 6.16-39.019 1.137c3.936-12.118 13.707-22.771 26.564-28.601m22.64 89.362c23.868 0 43.286 19.418 43.286 43.286 0 6.131-1.32 12.19-3.808 17.735-15.013.835-29.132 7.391-39.488 18.151-7.843-8.159-17.986-14.08-29.38-16.715 2.094-6.149 3.204-12.639 3.204-19.171a58.94 58.94 0 0 0-6.955-27.832c8.188-9.748 20.249-15.454 33.141-15.454m-85.504 240.481c-23.868 0-43.286-19.418-43.286-43.286 0-6.133 1.322-12.19 3.811-17.736 15.047-.833 29.136-7.379 39.488-18.147 10.093 10.499 23.992 17.307 39.463 18.154a43.4 43.4 0 0 1 3.811 17.73c-.001 23.867-19.419 43.285-43.287 43.285m-86.039-120.24c0-23.868 19.418-43.286 43.286-43.286 12.849 0 24.946 5.721 33.136 15.463a58.95 58.95 0 0 0-6.95 27.823c0 10.05 2.52 19.52 6.95 27.823-8.191 9.74-20.294 15.463-33.136 15.463-23.866 0-43.286-19.419-43.286-43.286m128.791 43.286c-23.868 0-43.286-19.418-43.286-43.286s19.418-43.286 43.286-43.286 43.286 19.418 43.286 43.286-19.417 43.286-43.286 43.286M256.001 110.13c23.868 0 43.286 19.418 43.286 43.286 0 6.119-1.309 12.19-3.793 17.728-15.477.842-29.384 7.652-39.479 18.153-10.351-10.771-24.437-17.316-39.494-18.146a43.4 43.4 0 0 1-3.806-17.736c0-23.867 19.419-43.285 43.286-43.285m-85.504 0c12.842 0 24.945 5.723 33.136 15.463a58.95 58.95 0 0 0-6.95 27.823c0 6.539 1.107 13.025 3.201 19.172-11.39 2.635-21.53 8.551-29.371 16.706a59.27 59.27 0 0 0-39.501-18.143 42.8 42.8 0 0 1-3.802-17.736c0-23.867 19.419-43.285 43.287-43.285M84.458 230.371c0-23.868 19.418-43.286 43.286-43.286 12.862 0 24.947 5.718 33.137 15.461-4.43 8.304-6.951 17.774-6.951 27.825s2.521 19.522 6.951 27.825c-8.189 9.745-20.271 15.461-33.137 15.461-23.868 0-43.286-19.419-43.286-43.286m42.752 76.953c0-6.134 1.322-12.19 3.812-17.737a59.25 59.25 0 0 0 39.492-18.142c7.836 8.151 17.97 14.065 29.354 16.701a59.5 59.5 0 0 0-3.185 19.176 58.94 58.94 0 0 0 6.951 27.826c-8.188 9.746-20.264 15.46-33.137 15.46-23.868.003-43.287-19.416-43.287-43.284m42.752 76.954a43.3 43.3 0 0 1 3.815-17.737 59.23 59.23 0 0 0 39.491-18.139c10.094 10.497 23.995 17.302 39.466 18.146a42.8 42.8 0 0 1 3.802 17.729c0 23.868-19.418 43.286-43.286 43.286s-43.288-19.418-43.288-43.285m86.039 111.69c-23.868 0-43.286-19.418-43.286-43.286 0-3.079.327-6.122.963-9.095 16.605-.119 31.6-7.097 42.307-18.233a59.28 59.28 0 0 0 42.341 18.231c.636 2.973.962 6.017.962 9.098-.001 23.866-19.419 43.285-43.287 43.285m42.752-68.403c-12.862 0-24.947-5.718-33.137-15.461a58.94 58.94 0 0 0 6.951-27.825 58.9 58.9 0 0 0-3.183-19.176c11.385-2.637 21.519-8.554 29.357-16.706 10.352 10.769 24.441 17.316 39.489 18.147a43.4 43.4 0 0 1 3.809 17.736c.001 23.867-19.417 43.285-43.286 43.285m42.752-76.954c-12.842 0-24.945-5.723-33.136-15.463a58.95 58.95 0 0 0 6.95-27.823 59.5 59.5 0 0 0-3.183-19.176c11.385-2.637 21.52-8.555 29.358-16.709 10.355 10.767 24.456 17.318 39.493 18.149a43.4 43.4 0 0 1 3.804 17.735c.001 23.868-19.417 43.287-43.286 43.287m42.752-76.954c-12.83 0-24.945-5.727-33.136-15.463a58.95 58.95 0 0 0 6.95-27.823 58.95 58.95 0 0 0-6.95-27.824c8.191-9.731 20.33-15.462 33.136-15.462 23.868 0 43.286 19.418 43.286 43.286s-19.417 43.286-43.286 43.286"/><path d="M384.257 205.254a8.016 8.016 0 0 0 0 16.032c5.009 0 9.085 4.075 9.085 9.085a8.016 8.016 0 0 0 16.032 0c0-13.85-11.267-25.117-25.117-25.117M170.499 144.332c1.599 0 3.166.419 4.534 1.21a8.014 8.014 0 0 0 10.953-2.925 8.017 8.017 0 0 0-2.924-10.953 25.1 25.1 0 0 0-12.56-3.366h-.004c-4.427 0-8.013 3.588-8.014 8.015s3.589 8.017 8.015 8.019M256.001 144.332c5.009 0 9.085 4.075 9.085 9.085a8.016 8.016 0 0 0 16.032 0c0-13.85-11.267-25.117-25.117-25.117a8.016 8.016 0 0 0 0 16.032M341.505 144.332c5.009 0 9.085 4.075 9.085 9.085a8.016 8.016 0 0 0 16.032 0c0-13.85-11.267-25.117-25.117-25.117a8.016 8.016 0 0 0 0 16.032M238.366 384.278a8.016 8.016 0 0 0-16.032 0c0 5.009-4.075 9.085-9.085 9.085a8.016 8.016 0 0 0 0 16.032c13.849 0 25.117-11.267 25.117-25.117M315.854 376.262a8.016 8.016 0 0 0-8.016 8.016c0 5.009-4.075 9.085-9.085 9.085a8.016 8.016 0 0 0 0 16.032c13.85 0 25.117-11.267 25.117-25.117a8.016 8.016 0 0 0-8.016-8.016M274.828 454.294a8.014 8.014 0 0 0-10.953 2.924 9.13 9.13 0 0 1-7.874 4.548 8.016 8.016 0 0 0 0 16.032c8.937 0 17.272-4.81 21.751-12.552a8.015 8.015 0 0 0-2.924-10.952M358.607 299.309a8.016 8.016 0 0 0-8.017 8.015 9.03 9.03 0 0 1-2.66 6.424 8.015 8.015 0 0 0 5.668 13.684 8 8 0 0 0 5.668-2.347c4.743-4.743 7.357-11.049 7.358-17.758a8.02 8.02 0 0 0-8.017-8.018M273.103 299.309a8.016 8.016 0 0 0-8.017 8.015 9.03 9.03 0 0 1-2.66 6.424 8.015 8.015 0 0 0-.001 11.336 8 8 0 0 0 5.669 2.348 8 8 0 0 0 5.668-2.347c4.743-4.743 7.357-11.049 7.358-17.758a8.02 8.02 0 0 0-8.017-8.018"/></svg>