<svg xmlns="http://www.w3.org/2000/svg" xml:space="preserve" viewBox="0 0 512 512"><path d="M431.299 307.307c-40.075 0-72.685-32.61-72.685-72.685v-25.653c0-40.075 32.61-72.685 72.685-72.685s72.685 32.61 72.685 72.685v25.653c-.001 40.075-32.61 72.685-72.685 72.685m0-136.818c-21.22 0-38.48 17.26-38.48 38.48v25.653c0 21.22 17.26 38.48 38.48 38.48s38.48-17.26 38.48-38.48v-25.653c0-21.22-17.261-38.48-38.48-38.48" style="fill:#f5dcb4"/><path d="M221.795 392.818c-99.176 0-179.574-80.398-179.574-179.574v-94.063H401.37v94.063c0 99.176-80.398 179.574-179.575 179.574" style="fill:#faebc8"/><path d="M234.112 374.627c-42.719-29.112-72.175-90.388-72.175-161.383v-94.063H42.221v94.063c0 99.176 80.398 179.574 179.574 179.574q3.437 0 6.836-.138c9.494-.381 13.332-12.702 5.481-18.053" style="fill:#f5dcb4"/><path d="M367.165 187.591v25.653c0 80.286-65.084 145.37-145.37 145.37s-145.37-65.084-145.37-145.37v-26.466c2.953.501 6.403.813 10.671.813 22.437 0 22.437-8.551 44.875-8.551s22.438 8.551 44.876 8.551c22.445 0 22.445-8.551 44.888-8.551 22.432 0 22.432 8.551 44.864 8.551 22.451 0 22.451-8.551 44.902-8.551 22.467 0 22.467 8.551 44.934 8.551 4.296 0 7.761-.315 10.728-.822" style="fill:#e1a546"/><path d="M214.806 358.261c-32.009-32.612-52.869-85.338-52.869-145.017v-27.399c-9.382-2.499-14.025-6.806-29.964-6.806-22.438 0-22.438 8.551-44.875 8.551-4.268 0-7.718-.312-10.671-.813v26.466c-.001 77.927 61.362 141.346 138.379 145.018" style="fill:#cd823c"/><path d="M22.268 281.653c-4.45 0-8.786.462-13.011 1.242-.78 4.223-1.242 8.561-1.242 13.011 0 39.356 31.904 71.26 71.26 71.26 4.45 0 8.786-.462 13.011-1.242.78-4.224 1.242-8.561 1.242-13.011 0-39.356-31.904-71.26-71.26-71.26M146.661 215.153c-3.24-3.518-6.733-6.581-10.377-9.304-3.644 2.722-7.137 5.786-10.377 9.304-28.655 31.113-28.655 81.559 0 112.672 3.24 3.518 6.733 6.581 10.377 9.304 3.644-2.722 7.137-5.786 10.377-9.304 28.656-31.113 28.655-81.557 0-112.672" style="fill:#8ce16e"/><path d="M146.661 327.826c28.656-31.114 28.656-81.559 0-112.673-3.24-3.518-6.733-6.581-10.377-9.304v131.28c3.644-2.721 7.137-5.785 10.377-9.303M22.268 281.653c-4.45 0-8.786.462-13.011 1.242l83.028 83.028c.78-4.224 1.242-8.561 1.242-13.011.001-39.355-31.903-71.259-71.259-71.259" style="fill:#9bf57d"/><path d="M431.299 128.267a80.2 80.2 0 0 0-21.912 3.034v-12.119a8.017 8.017 0 0 0-8.017-8.017H42.221a8.017 8.017 0 0 0-8.017 8.017v94.063c0 22.079 3.749 43.467 11.139 63.828a79 79 0 0 0-23.075-3.435c-4.726 0-9.458.45-14.466 1.376a8.02 8.02 0 0 0-6.427 6.427C.45 286.447 0 291.179 0 295.905c0 43.713 35.563 79.277 79.277 79.277 3.371 0 6.749-.239 10.225-.707l6.91 6.91c18.671 18.671 37.907 19.166 39.87 19.166l.137-.001a8.017 8.017 0 0 0 7.883-8.016v-8.307c23.983 10.882 50.247 16.607 77.494 16.607 71.344 0 133.508-40.038 165.219-98.82 13.097 8.618 28.5 13.309 44.284 13.309 44.499 0 80.701-36.202 80.701-80.701v-25.653c0-44.499-36.202-80.702-80.701-80.702m-21.913 84.977v-25.399c5.738-5.961 13.58-9.34 21.912-9.34 16.798 0 30.463 13.666 30.463 30.463v25.653c0 16.798-13.666 30.463-30.463 30.463-10.506 0-20.135-5.372-25.714-14.166a187.7 187.7 0 0 0 3.802-37.674M16.033 295.905c0-1.957.099-3.924.301-5.935a59 59 0 0 1 5.934-.301c33.07 0 60.276 25.52 63.001 57.899L56.442 318.74a8.016 8.016 0 0 0-11.337 0 8.016 8.016 0 0 0 0 11.337l28.828 28.828c-32.38-2.723-57.9-29.928-57.9-63m112.234 87.097c-5.382-1.7-12.872-5.306-20.52-12.954l-6.91-6.91c.273-2.029.462-4.023.574-6.003a187 187 0 0 0 26.855 18.844v7.024zm93.528 1.8c-27.452 0-53.811-6.361-77.495-18.379v-25.392a80.5 80.5 0 0 0 8.257-7.774c31.368-34.059 31.368-89.476 0-123.534-3.418-3.712-7.172-7.08-11.475-10.296a8.02 8.02 0 0 0-9.598 0c-4.302 3.215-8.056 6.582-11.476 10.296-31.368 34.058-31.368 89.475 0 123.534a81 81 0 0 0 8.257 7.774v16.13c-10.473-6.845-20.271-14.907-29.241-24.103-4.842-18.709-16.368-34.748-31.859-45.434-11.228-23.287-16.929-48.303-16.929-74.38v-86.046h343.115v86.046c.002 94.597-76.959 171.558-171.556 171.558m-85.511-97.029a8.017 8.017 0 0 0-8.017 8.017v22.42c-22.236-28.254-21.07-70.907 3.537-97.625a63 63 0 0 1 4.48-4.404 63 63 0 0 1 4.48 4.404c24.607 26.717 25.773 69.37 3.537 97.624v-22.42a8.017 8.017 0 0 0-8.017-8.016m359.683-53.151c0 35.658-29.01 64.668-64.668 64.668a64.65 64.65 0 0 1-37.232-11.832 186 186 0 0 0 6.657-17.832 46.3 46.3 0 0 0 30.575 11.493c25.638 0 46.497-20.858 46.497-46.497v-25.653c0-25.638-20.858-46.497-46.497-46.497a46.25 46.25 0 0 0-21.912 5.501v-19.829a64 64 0 0 1 21.912-3.843c35.658 0 64.668 29.01 64.668 64.668z"/><path d="M372.335 180.643a8.02 8.02 0 0 0-6.518-1.777c-2.793.477-5.862.708-9.382.708-9.759 0-14.326-1.738-19.615-3.751-5.911-2.25-12.611-4.8-25.319-4.8-12.701 0-19.397 2.55-25.305 4.8-5.284 2.013-9.847 3.751-19.597 3.751-9.74 0-14.298-1.737-19.576-3.75-5.903-2.251-12.595-4.801-25.288-4.801-12.697 0-19.392 2.55-25.298 4.8-5.281 2.013-9.842 3.751-19.59 3.751-9.743 0-14.303-1.738-19.583-3.75-5.905-2.25-12.598-4.801-25.293-4.801s-19.388 2.55-25.293 4.801c-5.279 2.012-9.84 3.75-19.582 3.75-3.502 0-6.553-.229-9.33-.7a8.01 8.01 0 0 0-6.514 1.78 8.02 8.02 0 0 0-2.844 6.124v26.467c0 12.186 1.442 24.326 4.286 36.079a8.015 8.015 0 0 0 9.678 5.906 8.016 8.016 0 0 0 5.906-9.678 137.6 137.6 0 0 1-3.835-32.307V195.57q1.299.039 2.654.038c12.694 0 19.388-2.55 25.292-4.801 5.279-2.012 9.84-3.75 19.583-3.75 9.744 0 14.303 1.738 19.583 3.75 5.905 2.25 12.598 4.801 25.293 4.801 12.697 0 19.392-2.55 25.299-4.801 5.281-2.012 9.842-3.75 19.59-3.75 9.74 0 14.299 1.737 19.577 3.75 5.904 2.25 12.595 4.801 25.287 4.801 12.701 0 19.396-2.55 25.304-4.8 5.284-2.013 9.847-3.751 19.598-3.751 9.759 0 14.326 1.738 19.615 3.751 5.911 2.25 12.611 4.8 25.319 4.8q1.387 0 2.712-.041v17.677c0 75.736-61.616 137.353-137.353 137.353-16.667 0-32.96-2.965-48.428-8.813a8.016 8.016 0 0 0-10.333 4.664 8.015 8.015 0 0 0 4.664 10.333c17.286 6.536 35.487 9.85 54.098 9.85 84.577 0 153.386-68.809 153.386-153.386V186.77a8.02 8.02 0 0 0-2.848-6.127"/><path d="M224.678 330.078c1.565 1.565 3.617 2.348 5.668 2.348s4.103-.782 5.668-2.348l8.551-8.551a8.016 8.016 0 0 0 0-11.337 8.016 8.016 0 0 0-11.337 0l-8.551 8.551a8.017 8.017 0 0 0 .001 11.337M190.474 301.639a8.016 8.016 0 0 0 0 11.337l8.551 8.551c1.565 1.565 3.617 2.348 5.668 2.348s4.103-.782 5.668-2.348a8.016 8.016 0 0 0 0-11.337l-8.551-8.551a8.015 8.015 0 0 0-11.336 0M265.086 307.307v8.551a8.017 8.017 0 0 0 16.034 0v-8.551a8.017 8.017 0 0 0-16.034 0M307.307 298.221a8.017 8.017 0 0 0 0-16.034h-8.551a8.017 8.017 0 0 0 0 16.034zM221.795 273.637h-8.551a8.017 8.017 0 0 0 0 16.034h8.551a8.017 8.017 0 0 0 0-16.034M258.883 267.434l-8.551 8.551A8.016 8.016 0 0 0 256 289.67a8 8 0 0 0 5.668-2.348l8.551-8.551a8.016 8.016 0 0 0 0-11.337 8.015 8.015 0 0 0-11.336 0"/></svg>