<svg xmlns="http://www.w3.org/2000/svg" xml:space="preserve" viewBox="0 0 512 512"><circle cx="256" cy="256" r="247.409" style="fill:#b9ec69"/><circle cx="256" cy="256" r="219.919" style="fill:#c3ff73"/><path d="M285.178 115.207a76.14 76.14 0 0 0-58.333-.024l-49.79 20.624a76.2 76.2 0 0 0-41.247 41.248l-20.619 49.779a76.22 76.22 0 0 0 0 58.333l20.619 49.779a76.22 76.22 0 0 0 41.246 41.247l49.777 20.62a76.22 76.22 0 0 0 58.335 0l49.777-20.62a76.22 76.22 0 0 0 41.246-41.247l20.619-49.779a76.22 76.22 0 0 0 0-58.333l-26.641-64.317a38.22 38.22 0 0 0-18.527-19.713z" style="fill:#b9ec69"/><path d="M263.161 184.118a18.7 18.7 0 0 0-14.321 0l-38.604 15.99a18.7 18.7 0 0 0-10.127 10.127l-15.99 38.604a18.7 18.7 0 0 0 0 14.321l15.99 38.604a18.7 18.7 0 0 0 10.127 10.127l38.604 15.991a18.72 18.72 0 0 0 14.322 0l38.604-15.991a18.7 18.7 0 0 0 10.127-10.127l15.99-38.604a18.7 18.7 0 0 0 0-14.321l-15.99-38.604a18.72 18.72 0 0 0-9.069-9.65z" style="fill:#f5ffbf"/><path d="M437.02 74.98C388.668 26.629 324.38 0 256 0S123.332 26.629 74.98 74.98C26.629 123.332 0 187.62 0 256s26.629 132.668 74.98 181.02C123.332 485.371 187.62 512 256 512s132.668-26.629 181.02-74.98C485.371 388.668 512 324.38 512 256s-26.629-132.668-74.98-181.02M256 494.819C124.315 494.819 17.181 387.685 17.181 256S124.315 17.181 256 17.181 494.819 124.315 494.819 256 387.685 494.819 256 494.819"/><path d="m318.677 304.109 15.661-37.809c2.751-6.642 2.751-13.959 0-20.601l-15.661-37.809a26.9 26.9 0 0 0-13.047-13.882c-4.261-2.081-9.407-.317-11.491 3.946-2.084 4.262-.317 9.406 3.945 11.491a9.73 9.73 0 0 1 4.719 5.02l15.661 37.809a9.67 9.67 0 0 1 0 7.451l-15.661 37.809a9.67 9.67 0 0 1-5.269 5.269l-37.809 15.661a9.68 9.68 0 0 1-7.452 0l-37.809-15.661a9.67 9.67 0 0 1-5.269-5.27l-15.661-37.809a9.67 9.67 0 0 1 0-7.451l15.661-37.809a9.67 9.67 0 0 1 5.269-5.269l37.809-15.66a9.68 9.68 0 0 1 7.452 0l11.304 4.681a8.591 8.591 0 0 0 6.575-15.873l-11.304-4.681c-6.642-2.751-13.959-2.751-20.601 0l-37.809 15.66c-6.642 2.751-11.816 7.925-14.567 14.567l-15.661 37.809c-2.751 6.642-2.751 13.959 0 20.601l15.661 37.809c2.751 6.642 7.924 11.815 14.567 14.567l37.809 15.661A26.9 26.9 0 0 0 256 336.4c3.489 0 6.98-.688 10.301-2.064l37.81-15.662c6.642-2.749 11.815-7.923 14.566-14.565M370.541 247.409h-9.163a8.591 8.591 0 0 0 0 17.182h9.163a8.591 8.591 0 0 0 0-17.182M466.756 247.409h-64.143a8.591 8.591 0 0 0 0 17.182h64.143a8.591 8.591 0 0 0 0-17.182M256 352.787a8.59 8.59 0 0 0-8.591 8.591v9.163a8.591 8.591 0 0 0 17.182 0v-9.163a8.59 8.59 0 0 0-8.591-8.591M256 394.022a8.59 8.59 0 0 0-8.591 8.591v64.143a8.591 8.591 0 0 0 17.182 0v-64.143a8.59 8.59 0 0 0-8.591-8.591M330.918 168.932l-6.48 6.48a8.59 8.59 0 0 0 0 12.148 8.56 8.56 0 0 0 6.074 2.516 8.56 8.56 0 0 0 6.074-2.516l6.48-6.48a8.59 8.59 0 1 0-12.148-12.148M359.671 160.919a8.56 8.56 0 0 0 6.074-2.516l32.397-32.397a8.59 8.59 0 0 0 0-12.148 8.59 8.59 0 0 0-12.148 0l-32.397 32.397a8.59 8.59 0 0 0 0 12.148 8.56 8.56 0 0 0 6.074 2.516M187.562 336.588a8.59 8.59 0 0 0 0-12.148 8.59 8.59 0 0 0-12.148 0l-6.48 6.48a8.59 8.59 0 0 0 0 12.148 8.56 8.56 0 0 0 6.074 2.516 8.56 8.56 0 0 0 6.074-2.516zM146.254 353.597l-32.397 32.397a8.59 8.59 0 0 0 0 12.148 8.56 8.56 0 0 0 6.074 2.516 8.56 8.56 0 0 0 6.074-2.516l32.397-32.397a8.59 8.59 0 0 0 0-12.148 8.59 8.59 0 0 0-12.148 0M175.412 187.562a8.56 8.56 0 0 0 6.074 2.516 8.56 8.56 0 0 0 6.074-2.516 8.59 8.59 0 0 0 0-12.148l-6.48-6.48a8.59 8.59 0 0 0-12.148 0 8.59 8.59 0 0 0 0 12.148zM146.254 158.403c1.677 1.677 3.876 2.516 6.074 2.516s4.397-.838 6.074-2.516a8.59 8.59 0 0 0 0-12.148l-32.397-32.397a8.59 8.59 0 0 0-12.148 0 8.59 8.59 0 0 0 0 12.148zM336.588 324.438a8.59 8.59 0 0 0-12.148 0 8.59 8.59 0 0 0 0 12.148l6.48 6.48a8.56 8.56 0 0 0 6.074 2.516 8.56 8.56 0 0 0 6.074-2.516 8.59 8.59 0 0 0 0-12.148zM365.746 353.597a8.59 8.59 0 0 0-12.148 0 8.59 8.59 0 0 0 0 12.148l32.397 32.397c1.677 1.677 3.876 2.516 6.074 2.516s4.397-.838 6.074-2.516a8.59 8.59 0 0 0 0-12.148zM256 159.213a8.59 8.59 0 0 0 8.591-8.591v-9.163a8.591 8.591 0 0 0-17.182 0v9.163a8.59 8.59 0 0 0 8.591 8.591M256 117.978a8.59 8.59 0 0 0 8.591-8.591V45.244a8.591 8.591 0 0 0-17.182 0v64.143a8.59 8.59 0 0 0 8.591 8.591M151.103 290.152a8.591 8.591 0 0 0 6.616 15.858l.085-.036c4.379-1.827 6.405-6.84 4.578-11.218s-6.9-6.429-11.279-4.604M136.949 305.312a8.59 8.59 0 0 0-11.224-4.649L91.862 314.69a8.59 8.59 0 0 0-4.649 11.224 8.595 8.595 0 0 0 7.94 5.306c1.096 0 2.21-.211 3.284-.656l33.863-14.027a8.59 8.59 0 0 0 4.649-11.225M357.574 222.516a8.6 8.6 0 0 0 3.323-.668 8.59 8.59 0 1 0-6.616-15.857l-.085.036c-4.379 1.827-6.405 6.84-4.578 11.218 1.376 3.294 4.585 5.271 7.956 5.271M375.051 206.688a8.595 8.595 0 0 0 7.94 5.306c1.096 0 2.21-.211 3.284-.656l33.863-14.027a8.59 8.59 0 0 0-6.575-15.873L379.7 195.464a8.59 8.59 0 0 0-4.649 11.224M205.991 157.718l.036.085a8.525 8.525 0 0 0 7.887 5.249c1.11 0 2.242-.215 3.332-.671 4.379-1.827 6.429-6.899 4.603-11.278s-6.858-6.445-11.237-4.621a8.59 8.59 0 0 0-4.621 11.236M195.464 132.3a8.595 8.595 0 0 0 7.94 5.306 8.59 8.59 0 0 0 7.933-11.88L197.31 91.862a8.59 8.59 0 0 0-15.873 6.575zM306.009 354.282l-.036-.085c-1.827-4.379-6.839-6.406-11.218-4.578s-6.429 6.899-4.603 11.278a8.593 8.593 0 0 0 11.237 4.621 8.593 8.593 0 0 0 4.62-11.236M316.536 379.7a8.59 8.59 0 0 0-11.224-4.649 8.59 8.59 0 0 0-4.649 11.224l14.027 33.863a8.595 8.595 0 0 0 7.94 5.306 8.59 8.59 0 0 0 7.933-11.88zM162.381 217.246c1.827-4.379-.284-9.427-4.663-11.254a8.592 8.592 0 0 0-6.616 15.858l.085.036a8.5 8.5 0 0 0 3.285.662 8.59 8.59 0 0 0 7.909-5.302M91.862 197.31l33.863 14.027a8.55 8.55 0 0 0 3.284.656 8.594 8.594 0 0 0 3.291-16.53l-33.863-14.027a8.592 8.592 0 0 0-6.575 15.874M354.282 306.009a8.593 8.593 0 0 0 6.616-15.858l-.085-.036c-4.377-1.826-9.366.26-11.193 4.638s.283 9.428 4.662 11.256M420.138 314.69l-33.863-14.027a8.591 8.591 0 0 0-6.575 15.873l33.863 14.027a8.55 8.55 0 0 0 3.284.656 8.59 8.59 0 0 0 7.94-5.306 8.59 8.59 0 0 0-4.649-11.223M294.754 162.381a8.5 8.5 0 0 0 3.277.659 8.66 8.66 0 0 0 7.977-5.322 8.592 8.592 0 0 0-15.858-6.616l-.036.085c-1.825 4.379.262 9.367 4.64 11.194M305.312 136.949a8.55 8.55 0 0 0 3.284.656 8.59 8.59 0 0 0 7.94-5.306l14.027-33.863a8.591 8.591 0 0 0-15.873-6.575l-14.027 33.863c-1.815 4.385.266 9.41 4.649 11.225M217.246 349.619c-4.377-1.827-9.427.283-11.254 4.663a8.592 8.592 0 0 0 15.858 6.616l.036-.085c1.825-4.379-.262-9.367-4.64-11.194M206.688 375.051a8.59 8.59 0 0 0-11.224 4.649l-14.027 33.863a8.591 8.591 0 0 0 15.873 6.574l14.027-33.863a8.59 8.59 0 0 0-4.649-11.223M141.459 247.409a8.591 8.591 0 0 0 0 17.182h9.163a8.591 8.591 0 0 0 0-17.182zM117.978 256a8.59 8.59 0 0 0-8.591-8.591H45.244a8.591 8.591 0 0 0 0 17.182h64.143a8.59 8.59 0 0 0 8.591-8.591"/></svg>