<svg xmlns="http://www.w3.org/2000/svg" xml:space="preserve" viewBox="0 0 512 512"><path d="m256.001 8.017 34.205 51.307-8.552 42.755 42.756-17.102-17.102 51.307-51.307 34.205-51.307-34.205-17.102-51.307 42.756 17.102-8.552-42.755zM110.631 153.386l51.307 17.103 18.182 25.129 16.023-33.681L213.245 256l-94.062-17.102 33.68-16.023-25.129-18.182z" style="fill:#7dc86e"/><path d="m179.041 401.37-65.475 31.27-43.148-25.261z" style="fill:#64b464"/><path d="m42.222 264.551 60.466 12.094 24.186 36.279 18.141-42.326 12.093 108.838-108.839-12.093 42.326-18.14-36.279-24.186zM179.041 401.37l31.27-65.476-31.056-37.353z" style="fill:#7dc86e"/><path d="m256.001 8.017-34.205 51.307 8.552 42.755-42.756-17.102 17.102 51.307 51.307 34.205zM152.863 222.875l-33.68 16.023L213.245 256 110.631 153.386l17.103 51.307zM90.595 349.203l-42.326 18.14 108.839 12.093L42.222 264.551l12.094 60.465z" style="fill:#64b464"/><path d="m401.37 153.386-51.306 17.103-18.182 25.129-16.023-33.681L298.757 256l94.062-17.102-33.681-16.023 25.13-18.182z" style="fill:#7dc86e"/><path d="m332.961 401.37 65.475 31.27 43.149-25.261z" style="fill:#64b464"/><path d="m469.78 264.551-60.465 12.094-24.187 36.279-18.14-42.326-12.093 108.838 108.838-12.093-42.326-18.14 36.28-24.186zM332.961 401.37l-31.27-65.476 31.055-37.353z" style="fill:#7dc86e"/><path d="m359.14 222.875 33.679 16.023L298.757 256 401.37 153.386l-17.102 51.307zM421.407 349.203l42.327 18.14-108.839 12.093L469.78 264.551l-12.093 60.465z" style="fill:#64b464"/><path d="M120.129 207.229a8 8 0 0 0 2.906 3.96l14.176 10.256-21.471 10.214a8.015 8.015 0 0 0 2.011 15.126l91.599 16.654 40.985 40.985a8 8 0 0 0 5.668 2.348 8 8 0 0 0 5.668-2.348l40.985-40.985 91.599-16.654a8.016 8.016 0 0 0 2.011-15.126l-21.471-10.214 14.176-10.256a8 8 0 0 0 2.906-3.96l17.102-51.307a8.016 8.016 0 0 0-10.141-10.141l-51.307 17.102a8 8 0 0 0-3.96 2.906l-10.256 14.176-10.215-21.471a8.016 8.016 0 0 0-15.126 2.011l-16.654 91.599-27.302 27.299V174.779l47.737-31.824a8 8 0 0 0 3.159-4.136l17.102-51.307a8.016 8.016 0 0 0-10.583-9.978L292.418 89.14l5.649-28.244a8.02 8.02 0 0 0-1.191-6.019L262.672 3.57a8.016 8.016 0 0 0-13.341 0l-34.205 51.307a8.01 8.01 0 0 0-1.191 6.019l5.649 28.244-29.014-11.606a8.018 8.018 0 0 0-10.583 9.978l17.102 51.307a8 8 0 0 0 3.159 4.136l47.737 31.824v104.623l-27.3-27.3-16.654-91.599a8.016 8.016 0 0 0-15.126-2.011l-10.214 21.471-10.256-14.176a8 8 0 0 0-3.96-2.906l-51.307-17.102a8.018 8.018 0 0 0-10.141 10.141zM319.3 187.83l5.343 11.232a8.016 8.016 0 0 0 13.735 1.256l16.669-23.039 33.649-11.217-11.217 33.649-23.039 16.669a8.017 8.017 0 0 0 1.256 13.735l11.232 5.343-58.211 10.584zm-107.87-56.691-10.766-32.3 26.706 10.683a8.017 8.017 0 0 0 10.838-9.015l-7.9-39.5L256 22.469l25.693 38.538-7.9 39.5a8.017 8.017 0 0 0 10.838 9.015l26.706-10.683-10.766 32.3-36.555 24.37v-36.327a8.017 8.017 0 0 0-16.034 0v36.327zm-54.474 46.139 16.669 23.039a8.015 8.015 0 0 0 13.735-1.256l5.343-11.232 10.584 58.211-58.211-10.584 11.232-5.343a8.016 8.016 0 0 0 1.256-13.735l-23.039-16.669-11.217-33.649z"/><path d="m466.892 359.974-28.724-12.31 23.966-15.978a8.02 8.02 0 0 0 3.414-5.099l12.078-60.392c.217-1.03.234-2.12.015-3.217-.869-4.342-5.09-7.153-9.433-6.289l-60.465 12.092a8.02 8.02 0 0 0-5.099 3.414l-15.978 23.966-12.31-28.724a8.014 8.014 0 0 0-8.544-4.772 8.015 8.015 0 0 0-6.792 7.045l-11.782 106.044-6.3 6.3-.174-83.532a8.018 8.018 0 0 0-14.181-5.109l-31.056 37.354a8.02 8.02 0 0 0-1.069 8.58l28.827 60.359-59.267 59.271V332.962a8.017 8.017 0 0 0-16.034 0v126.013l-59.267-59.267 28.827-60.359a8.02 8.02 0 0 0-1.069-8.58l-31.056-37.354a8.017 8.017 0 0 0-14.181 5.109l-.174 83.532-6.3-6.3-11.782-106.044a8.017 8.017 0 0 0-15.336-2.273l-12.31 28.724-15.978-23.966a8.02 8.02 0 0 0-5.099-3.414L43.838 256.7l-.012-.002-.033-.006v.001a8.017 8.017 0 0 0-9.433 9.432l12.092 60.465a8.02 8.02 0 0 0 3.414 5.099l23.966 15.978-28.724 12.31a8.017 8.017 0 0 0 2.273 15.336l106.044 11.782 7.262 7.262-90.716 5.02a8.017 8.017 0 0 0-3.607 14.924l43.149 25.26a8.02 8.02 0 0 0 7.506.316l60.359-28.827 70.605 70.601v22.333a8.017 8.017 0 0 0 8.017 8.017 8.017 8.017 0 0 0 8.017-8.017V481.65l70.604-70.604 60.359 28.827a8.027 8.027 0 0 0 7.506-.316l43.149-25.26a8.016 8.016 0 0 0-3.607-14.924l-90.716-5.02 7.262-7.262 106.044-11.782a8.017 8.017 0 0 0 2.274-15.335m-142.115-39.306.094 45.159-13.733-28.754zm-137.551 0 13.639 16.404-13.733 28.754zm-73.279 102.906-16.502-9.661 41.543-2.298zm-34.571-60.841 14.378-6.162a8.017 8.017 0 0 0 1.288-14.039l-33.516-22.344-9.083-45.418 45.417 9.083 22.344 33.516a8.017 8.017 0 0 0 14.039-1.288l6.162-14.378 6.211 55.903-8.026-8.026a8.016 8.016 0 0 0-11.337 0 8.016 8.016 0 0 0 0 11.337l8.026 8.026zm335.181 51.18-16.502 9.661-25.04-11.959zm-37.834-44.968 8.026-8.026a8.016 8.016 0 0 0 0-11.337 8.016 8.016 0 0 0-11.337 0l-8.026 8.026 6.211-55.903 6.162 14.378a8.017 8.017 0 0 0 14.039 1.288l22.344-33.516 45.417-9.083-9.083 45.418-33.516 22.344a8.017 8.017 0 0 0 1.288 14.039l14.378 6.162z"/></svg>