<svg xmlns="http://www.w3.org/2000/svg" xml:space="preserve" viewBox="0 0 512.001 512.001"><path d="M175.449 50.717c-.382-4.819-4.403-8.496-9.236-8.496-4.835 0-8.855 3.677-9.236 8.496-3.189 40.233-16.417 213.834-16.417 342.101 0 27.842 10.879 44.807 18.467 57.977 3.205 5.56 11.167 5.56 14.371 0 7.589-13.17 18.467-30.133 18.467-57.977.002-83.059-15.524-330.852-16.416-342.101M260.961 50.717c-.382-4.819-4.403-8.496-9.236-8.496-4.835 0-8.855 3.677-9.236 8.496-3.189 40.233-16.417 213.834-16.417 342.101 0 27.842 10.879 44.807 18.467 57.977 3.205 5.56 11.167 5.56 14.371 0 7.589-13.17 18.467-30.133 18.467-57.977.001-83.059-15.525-330.852-16.416-342.101M346.472 50.717c-.382-4.819-4.403-8.496-9.236-8.496-4.835 0-8.855 3.677-9.236 8.496-3.189 40.233-16.417 213.834-16.417 342.101 0 27.842 10.879 44.807 18.467 57.977 3.205 5.56 11.167 5.56 14.371 0 7.589-13.17 18.467-30.133 18.467-57.977.001-83.059-15.525-330.852-16.416-342.101" style="fill:#8ce16e"/><path d="M268.827 0c-13.851 0-25.119 11.268-25.119 25.119v11.087c-5.089 2.688-8.733 7.836-9.212 13.878l-.028.351c-13.566 171.16-16.414 280.663-16.414 342.384 0 28.351 10.503 46.423 18.171 59.618 4.18 7.194 7.482 12.876 7.482 17.342 0 9.159 0 30.608 21.534 41.375a8 8 0 0 0 3.579.848 8.02 8.02 0 0 0 7.177-4.433 8.015 8.015 0 0 0-3.585-10.755c-11.692-5.847-12.671-16.561-12.671-27.034 0-4.466 3.302-10.148 7.482-17.342 7.668-13.195 18.171-31.267 18.171-59.618 0-67.626-3.224-151.233-9.583-248.501-.289-4.418-4.108-7.771-8.522-7.477a8.017 8.017 0 0 0-7.477 8.522c6.247 95.556 9.548 181.125 9.548 247.455 0 24.031-8.872 39.297-16 51.562q-.835 1.433-1.636 2.828-.803-1.395-1.636-2.828c-7.128-12.267-16-27.531-16-51.562 0-61.431 2.839-170.48 16.365-341.117l.028-.351c.05-.634.586-1.112 1.245-1.112s1.195.479 1.245 1.113l.027.34a6819 6819 0 0 1 4.487 59.506c.313 4.417 4.15 7.734 8.564 7.43a8.017 8.017 0 0 0 7.43-8.564c-1.936-27.305-3.603-48.34-4.498-59.639l-.027-.34c-.479-6.042-4.123-11.189-9.212-13.878V25.119c0-5.01 4.076-9.086 9.086-9.086s9.086 4.076 9.086 9.086a8.017 8.017 0 0 0 16.034 0C293.946 11.268 282.677 0 268.827 0M354.338 0c-13.851 0-25.119 11.268-25.119 25.119v11.087c-5.089 2.688-8.733 7.836-9.212 13.878l-.028.351c-13.566 171.16-16.414 280.663-16.414 342.384 0 28.351 10.503 46.423 18.171 59.618 4.18 7.194 7.482 12.876 7.482 17.342 0 9.159 0 30.608 21.534 41.375a8 8 0 0 0 3.579.848 8.02 8.02 0 0 0 7.177-4.433 8.015 8.015 0 0 0-3.585-10.755c-11.692-5.847-12.671-16.561-12.671-27.034 0-4.466 3.302-10.148 7.482-17.342 7.668-13.195 18.171-31.267 18.171-59.618 0-67.626-3.224-151.233-9.583-248.501-.289-4.418-4.11-7.771-8.522-7.477a8.017 8.017 0 0 0-7.477 8.522c6.247 95.556 9.548 181.125 9.548 247.455 0 24.031-8.872 39.297-16 51.562q-.834 1.433-1.636 2.828-.803-1.395-1.636-2.828c-7.128-12.267-16-27.531-16-51.562 0-61.431 2.839-170.48 16.365-341.117l.028-.351c.05-.634.586-1.112 1.245-1.112s1.195.479 1.245 1.113l.027.34a6819 6819 0 0 1 4.487 59.506c.313 4.417 4.158 7.734 8.564 7.43a8.017 8.017 0 0 0 7.43-8.564c-1.936-27.305-3.603-48.34-4.498-59.639l-.027-.34c-.479-6.042-4.123-11.189-9.212-13.878V25.119c0-5.01 4.076-9.086 9.086-9.086s9.086 4.076 9.086 9.086a8.017 8.017 0 0 0 16.034 0C379.457 11.268 368.189 0 354.338 0M183.315 0c-13.851 0-25.119 11.268-25.119 25.119v11.087c-5.089 2.688-8.733 7.836-9.212 13.878l-.028.351c-13.566 171.16-16.414 280.663-16.414 342.384 0 28.351 10.503 46.423 18.171 59.618 4.18 7.194 7.482 12.876 7.482 17.342 0 9.159 0 30.608 21.534 41.375a8 8 0 0 0 3.579.848 8.02 8.02 0 0 0 7.177-4.433 8.015 8.015 0 0 0-3.585-10.755c-11.692-5.847-12.671-16.561-12.671-27.034 0-4.466 3.302-10.148 7.482-17.342 7.668-13.195 18.171-31.267 18.171-59.618 0-67.626-3.224-151.233-9.583-248.501-.289-4.418-4.106-7.771-8.522-7.477a8.02 8.02 0 0 0-7.477 8.522c6.247 95.556 9.548 181.125 9.548 247.455 0 24.031-8.872 39.297-16 51.562q-.834 1.433-1.636 2.828c-.534-.931-1.082-1.872-1.636-2.828-7.128-12.267-16-27.531-16-51.562 0-61.431 2.839-170.48 16.365-341.117l.028-.351c.05-.634.586-1.112 1.245-1.112s1.195.479 1.245 1.113l.027.34a6819 6819 0 0 1 4.487 59.506c.313 4.417 4.156 7.734 8.564 7.43a8.017 8.017 0 0 0 7.43-8.564c-1.936-27.305-3.603-48.34-4.498-59.639l-.027-.34c-.479-6.042-4.123-11.189-9.212-13.878V25.119c0-5.01 4.076-9.086 9.086-9.086s9.086 4.076 9.086 9.086a8.017 8.017 0 0 0 16.034 0C208.434 11.268 197.166 0 183.315 0"/></svg>