<svg xmlns="http://www.w3.org/2000/svg" xml:space="preserve" viewBox="0 0 512 512"><path d="M248.828 20.323c3.447-5.007 10.898-5.007 14.346 0 17.551 25.487 61.237 97.673 61.237 184.774 0 108.997-68.409 202.423-68.409 241.35 0-38.927-68.409-132.354-68.409-241.35-.002-87.101 43.682-159.287 61.235-184.774" style="fill:#8ce16e"/><path d="M248.828 20.323c-17.551 25.488-61.237 97.673-61.237 184.774 0 108.997 68.409 202.423 68.409 241.35V16.568c-2.725 0-5.449 1.252-7.172 3.755" style="fill:#7dc86e"/><path d="M256 119.716a8.017 8.017 0 0 0-8.017 8.017v17.102a8.017 8.017 0 0 0 16.034 0v-17.102a8.017 8.017 0 0 0-8.017-8.017"/><path d="M297.436 62.123c-17.282-36.107-34.404-58.13-35.124-59.05a8.02 8.02 0 0 0-12.624 0c-.72.919-17.842 22.942-35.124 59.05-15.963 33.351-34.99 85.474-34.99 144.402 0 71.208 27.447 136.09 47.487 183.467 11.227 26.538 20.923 49.459 20.923 62.684v51.307a8.017 8.017 0 0 0 16.034 0v-51.307c0-13.225 9.696-36.146 20.923-62.684 20.04-47.375 47.487-112.258 47.487-183.467-.002-58.928-19.029-111.051-34.992-144.402m-27.264 321.623c-2.143 5.068-4.205 9.944-6.156 14.641v-103.55c17.061-10.888 32.171-33.358 32.858-34.388a8.014 8.014 0 0 0-2.221-11.112 8.02 8.02 0 0 0-11.118 2.216c-3.083 4.613-10.883 14.982-19.52 22.977v-65.203c17.061-10.888 32.171-33.358 32.858-34.388a8.014 8.014 0 0 0-2.221-11.112 8.02 8.02 0 0 0-11.118 2.216c-3.083 4.613-10.883 14.982-19.52 22.977v-9.978a8.017 8.017 0 0 0-16.034 0v61.282c-8.633-7.993-16.433-18.358-19.518-22.973a8.015 8.015 0 0 0-11.116-2.223 8.015 8.015 0 0 0-2.223 11.117c.687 1.031 15.797 23.501 32.858 34.388v47.237c-4.914-5.149-9.107-10.779-10.968-13.561a8.016 8.016 0 0 0-13.338 8.894c1.284 1.926 11.834 17.412 24.307 25.77v69.414a2464 2464 0 0 0-6.156-14.641c-19.503-46.11-46.218-109.261-46.218-177.218 0-87.073 43.765-160.094 60.399-184.696 16.642 24.574 60.386 97.479 60.386 184.696-.001 67.954-26.715 131.106-46.221 177.218"/></svg>