<svg xmlns="http://www.w3.org/2000/svg" xml:space="preserve" viewBox="0 0 511.999 511.999"><ellipse cx="308.815" cy="51.474" rx="51.275" ry="34.187" style="fill:#d75a5f" transform="rotate(134.999 308.816 51.474)"/><path d="m278.93 93.443.916-.919.063.027c2.608 1.101 5.369-1.126 4.871-3.912-2.508-13.999 4.183-32.181 18.733-46.732 21.532-21.532 38.508-20.05 43.733-18.866a3.17 3.17 0 0 0 2.994-.875l.871-.899a8.545 8.545 0 0 0-.331-12.4c-3.438-3.098-8.821-2.618-12.094.654l-.939.939c-14.452-6.364-36.231-.029-53.107 16.848-16.877 16.876-23.212 38.656-16.848 53.108l-1.286 1.286a8.52 8.52 0 0 0-2.504 6.043c0 2.055.737 4.11 2.212 5.736 3.32 3.657 9.229 3.464 12.716-.038" style="fill:#c85055"/><path d="M290.735 440.776c-10.966-10.724-10.811-27.747.457-38.307 11.415-10.697 29.937-10.697 41.352 0 10.876 10.189 16.686 23.876 16.686 38.066 0 5.752-.955 11.584-2.905 17.301-8.143 23.795-31.716 40.92-63.071 45.817-42.331 6.612-85.053-7.839-103.893-35.134-11.986-17.371-12.158-37.573-.441-54.046 8.959-12.589 27.113-15.991 40.552-7.598 11.962 7.471 16.155 21.765 10.615 33.694 6.748 9.809 43.503 19.131 60.648.207" style="fill:#faebc8"/><path d="M257.832 197.436c-21.576-21.576-56.322-21.508-75.992.78-18.896 21.412-13.658 55.803 8.251 75.926 35.163 32.295 79.943 42.59 103.439 45.857 8.564 1.191 15.759-5.741 14.578-14.307-3.371-24.455-14.396-72.376-50.276-108.256" style="fill:#d79664"/><path d="M308.109 305.692q-.175-1.27-.381-2.626c-.979-6.407-5.657-11.616-11.946-13.187-23.861-5.964-54.524-17.796-80.121-41.306-8.963-8.231-15.022-18.857-17.859-29.999-.867-3.404-2.749-6.458-5.671-8.407-7.641-5.093-18.253-1.22-20.424 7.703-4.695 19.294 2.387 41.581 18.385 56.273 35.162 32.295 79.943 42.591 103.439 45.857 8.564 1.19 15.759-5.743 14.578-14.308" style="fill:#c88357"/><path d="M405.402 239.919a12.17 12.17 0 0 1 6.977 0c20.695 6.101 56.172-13.129 56.172-49.566 0-46.377-38.317-61.782-53.536-71.036-3.797-2.309-8.451-2.309-12.248 0-15.219 9.254-53.536 24.659-53.536 71.036-.001 36.435 35.476 55.666 56.171 49.566" style="fill:#c87857"/><path d="M396.903 234.384c1.062-3.188.6-6.731-1.432-9.407-7.215-9.5-12.148-22.106-12.148-37.493 0-22.28 6.867-38.17 15.909-49.984 1.733-2.264 2.133-5.27.858-7.822-1.877-3.754-6.517-5.185-10.136-3.059-17.47 10.267-40.722 27.588-40.722 63.732 0 27.127 19.648 44.662 38.234 49.349 4.018 1.016 8.125-1.381 9.437-5.316" style="fill:#b9644b"/><path d="M306.236 480.051c-42.331 6.613-85.053-7.838-103.893-35.134-5.752-8.336-8.769-17.322-9.061-26.234-.24-7.335-9.883-10.369-14.2-4.435q-.082.113-.163.227c-11.717 16.473-11.545 36.675.441 54.044 18.841 27.296 61.563 41.747 103.893 35.134 15.025-2.346 28.251-7.505 38.85-14.86 5.613-3.895 1.427-12.741-5.177-10.985-3.44.916-7.007 1.668-10.69 2.243" style="fill:#f5dcb4"/><path d="M65.634 141.742c15.337-.172 27.265 11.976 26.764 27.41-.507 15.636-13.605 28.733-29.24 29.24-14.896.486-28.682-5.084-38.715-15.117-4.068-4.068-7.516-8.866-10.181-14.287-11.068-22.583-6.509-51.362 12.202-76.996 25.257-34.608 65.685-54.598 98.307-48.62 20.758 3.808 35.164 17.972 38.528 37.904 2.568 15.237-7.866 30.479-23.303 34.047-13.741 3.175-26.814-3.967-31.331-16.319-11.706-2.166-44.288 17.232-43.031 42.738" style="fill:#faebc8"/><path d="M26.902 124.931c25.256-34.608 65.685-54.6 98.307-48.62 9.962 1.827 18.449 6.047 24.957 12.144 5.356 5.017 14.321.344 13.176-6.905l-.045-.276c-3.362-19.933-17.769-34.097-38.528-37.904-32.623-5.979-73.05 14.012-98.307 48.62-8.965 12.283-14.67 25.283-16.964 37.979-1.216 6.723 8.001 10.018 11.428 4.107a104 104 0 0 1 5.976-9.145" style="fill:#f5dcb4"/><path d="M103.073 374.817a12.2 12.2 0 0 1 4.934-4.934c18.947-10.319 30.435-49.003 4.671-74.768-32.794-32.794-70.781-16.593-88.086-12.374-4.317 1.053-7.609 4.345-8.661 8.661-4.218 17.305-20.42 55.292 12.374 88.086 25.765 25.764 64.449 14.276 74.768-4.671" style="fill:#c87857"/><path d="M93.15 376.914c-1.502-3.005-4.335-5.184-7.664-5.639-11.819-1.615-24.222-7.041-35.102-17.921C34.63 337.6 28.25 321.508 26.288 306.76c-.376-2.826-2.219-5.235-4.924-6.136-3.982-1.327-8.275.942-9.329 5.004-5.093 19.612-9.287 48.302 16.271 73.86 19.182 19.182 45.475 17.687 61.93 7.86 3.56-2.126 4.769-6.725 2.914-10.434" style="fill:#b9644b"/><ellipse cx="459.137" cy="359.514" rx="51.275" ry="34.187" style="fill:#d75a5f" transform="rotate(45.001 459.143 359.51)"/><path d="m501.099 389.387-.919-.916.027-.063c1.102-2.608-1.126-5.369-3.912-4.871-13.999 2.508-32.181-4.183-46.732-18.733-21.532-21.532-20.05-38.508-18.866-43.733a3.17 3.17 0 0 0-.875-2.994l-.899-.871a8.545 8.545 0 0 0-12.4.331c-3.098 3.438-2.618 8.821.654 12.094l.939.939c-6.364 14.452-.029 36.231 16.848 53.107 16.876 16.877 38.656 23.212 53.108 16.848l1.286 1.286a8.52 8.52 0 0 0 6.043 2.504c2.055 0 4.11-.737 5.736-2.212 3.656-3.319 3.463-9.229-.038-12.716" style="fill:#c85055"/><path d="M185.208 278.809c36.734 33.738 83.273 44.483 107.744 47.886q1.531.212 3.041.212c5.558 0 10.813-2.135 14.756-6.073 4.582-4.577 6.695-10.938 5.797-17.452-3.6-26.11-15.212-75.485-52.542-112.815-12.204-12.204-28.897-18.909-45.84-18.372-16.293.508-31.135 7.438-41.793 19.514-21.229 24.056-17.264 63.128 8.837 87.1m3.143-76.524c7.707-8.734 18.471-13.747 30.308-14.116q.685-.022 1.371-.021c12.066 0 23.907 4.955 32.671 13.72 34.025 34.025 44.685 79.575 48.011 103.698.286 2.068-.667 3.37-1.26 3.962-1.081 1.08-2.65 1.568-4.303 1.338-22.627-3.146-65.595-13.023-99.135-43.828-19.401-17.82-22.911-47.474-7.663-64.753"/><path d="M218.118 222.42c3.535-.74 7.547.621 10.478 3.552 6.884 6.884 13.041 14.945 18.299 23.956a7.987 7.987 0 0 0 10.929 2.875 7.99 7.99 0 0 0 2.874-10.928c-5.949-10.195-12.947-19.348-20.802-27.202-6.704-6.704-16.303-9.728-25.058-7.893a7.99 7.99 0 1 0 3.28 15.64M171.698 78.727c-3.945-23.382-20.754-39.994-44.967-44.434C91.199 27.782 47.528 49.068 20.53 86.06.043 114.13-4.788 145.988 7.611 171.29c3.02 6.148 6.958 11.671 11.702 16.415 11.324 11.324 26.359 17.489 42.537 17.488q1.042 0 2.087-.034c19.743-.641 36.327-17.224 36.967-36.967.313-9.661-3.142-18.686-9.727-25.414a33.84 33.84 0 0 0-16.584-9.324c.744-1.737 1.949-3.941 3.854-6.554 3.486-4.774 7.509-8.926 11.957-12.34a7.99 7.99 0 0 0 1.472-11.203 7.99 7.99 0 0 0-11.203-1.472c-5.657 4.342-10.747 9.588-15.133 15.596-6.01 8.238-11.147 20.446-5.849 27.74a7.98 7.98 0 0 0 6.553 3.294c5.2-.095 10.02 1.875 13.515 5.445 3.507 3.583 5.345 8.454 5.174 13.716-.373 11.489-10.024 21.14-21.515 21.513-12.493.417-24.155-4.131-32.804-12.782-3.501-3.501-6.413-7.592-8.655-12.155-9.738-19.871-5.446-45.579 11.48-68.77 23.515-32.22 60.698-50.917 90.412-45.471 17.574 3.223 29.271 14.658 32.09 31.372 1.874 11.121-5.852 22.308-17.221 24.935-9.569 2.21-18.83-2.533-22.028-11.278a7.99 7.99 0 1 0-15.009 5.489c6.008 16.429 23.098 25.41 40.635 21.359 19.451-4.497 32.631-23.858 29.38-43.161M338.528 395.421c-14.413-13.507-37.865-13.507-52.279 0-7.053 6.611-10.992 15.434-11.092 24.848-.1 9.395 3.634 18.274 10.513 25.002a7.99 7.99 0 0 0 11.299-.127 7.99 7.99 0 0 0-.127-11.299c-3.733-3.65-5.759-8.412-5.706-13.406.053-5.014 2.198-9.758 6.04-13.357 8.388-7.861 22.037-7.86 30.426 0 9.13 8.554 14.159 20.002 14.159 32.236 0 4.95-.833 9.904-2.475 14.715-7.165 20.936-28.378 36.079-56.745 40.509-39.413 6.155-78.922-6.913-96.084-31.777-10.148-14.706-10.332-31.064-.508-44.875 6.54-9.189 19.913-11.634 29.81-5.454 8.327 5.201 11.524 15.107 7.601 23.551a7.99 7.99 0 0 0 1.95 9.347c6.944 6.149 21.805 12.213 39.361 11.893a7.99 7.99 0 0 0 7.843-8.134c-.08-4.413-3.705-7.932-8.134-7.843-11.075.189-19.377-2.646-24.229-5.15 3.328-14.118-2.745-28.985-15.925-37.218-16.935-10.576-39.946-6.207-51.296 9.744-13.744 19.323-13.605 42.954.376 63.215 17.251 24.993 52.461 40.162 90.127 40.161 7.138 0 14.366-.545 21.575-1.67 34.334-5.361 60.278-24.472 69.402-51.132 2.212-6.483 3.332-13.172 3.332-19.882-.001-16.701-6.824-32.29-19.214-43.897M260.149 88.002a7.992 7.992 0 0 0 5.65 13.64c2.044 0 4.09-.78 5.651-2.341l1.105-1.105c5.336 3.127 11.638 4.738 18.575 4.738 3.178 0 6.489-.337 9.899-1.02 12.913-2.582 25.95-9.931 36.712-20.694s18.111-23.799 20.694-36.711c2.171-10.854.833-20.685-3.727-28.467l1.113-1.113a7.99 7.99 0 0 0 0-11.3 7.99 7.99 0 0 0-11.3 0l-1.113 1.113c-7.782-4.56-17.615-5.897-28.466-3.727-12.913 2.582-25.95 9.931-36.712 20.693s-18.111 23.799-20.693 36.712c-2.171 10.854-.833 20.685 3.727 28.466zm13.057-26.447c1.971-9.853 7.767-19.99 16.322-28.546 8.556-8.555 18.693-14.352 28.546-16.322 1.797-.359 4.144-.69 6.697-.69 4.585 0 9.829 1.067 13.72 4.957l.003.003.003.002c10.001 10.006 4.48 32.426-12.057 48.963-8.556 8.555-18.693 14.352-28.546 16.322-5.026 1.005-14.36 1.787-20.418-4.268l-.002-.003-.002-.002c-6.053-6.056-5.272-15.391-4.266-20.416M506.422 393.711c4.56-7.781 5.898-17.612 3.727-28.466-2.582-12.913-9.931-25.95-20.694-36.712s-23.799-18.111-36.712-20.694c-10.854-2.17-20.684-.832-28.466 3.727l-1.113-1.113a7.991 7.991 0 0 0-11.3 11.3l1.113 1.113c-4.56 7.781-5.898 17.613-3.727 28.467 2.582 12.912 9.931 25.95 20.694 36.711s23.799 18.111 36.712 20.694c3.411.682 6.721 1.02 9.899 1.02 6.935 0 13.238-1.611 18.574-4.738l1.105 1.105a7.97 7.97 0 0 0 5.651 2.341 7.991 7.991 0 0 0 5.65-13.64zm-36.633-.644c-9.853-1.971-19.99-7.768-28.546-16.322-16.536-16.536-22.056-38.957-12.057-48.963l.003-.002.003-.003c3.892-3.89 9.135-4.957 13.72-4.957 2.553 0 4.901.331 6.697.69 9.853 1.971 19.99 7.768 28.546 16.322 8.555 8.556 14.353 18.693 16.322 28.546 1.006 5.025 1.787 14.36-4.267 20.417l-.002.002-.002.003c-6.056 6.055-15.392 5.273-20.417 4.267M421.064 247.769c9.17 0 19.211-2.945 28.241-8.601 17.64-11.05 27.757-29.288 27.757-50.036 0-45.786-33.582-64.514-51.624-74.575-3.101-1.73-6.867-3.83-8.428-5.063a7.994 7.994 0 0 0-15.196 0c-1.561 1.234-5.327 3.334-8.428 5.063-18.042 10.061-51.624 28.789-51.624 74.575 0 20.749 10.118 38.986 27.757 50.036 13.083 8.195 28.291 10.697 39.893 6.799 3.593 1.21 7.534 1.802 11.652 1.802m-43.063-22.142c-6.092-3.816-20.26-15.011-20.26-36.493 0-36.4 26.133-50.974 43.427-60.618 3.075-1.714 5.871-3.274 8.243-4.857 2.373 1.583 5.169 3.143 8.243 4.857 17.293 9.644 43.427 24.218 43.427 60.618 0 21.483-14.168 32.677-20.26 36.493-9.733 6.098-20.955 7.923-27.923 4.543a7.99 7.99 0 0 0-6.974 0c-6.97 3.377-18.19 1.553-27.923-4.543"/><path d="M413.403 165.756c9.905 6.862 13.586 13.198 13.586 23.377 0 1.618-.327 3-.999 4.224a7.99 7.99 0 0 0 6.997 11.836 7.99 7.99 0 0 0 7.012-4.148c1.97-3.59 2.969-7.598 2.969-11.912 0-19.795-10.938-29.912-20.465-36.513a7.991 7.991 0 0 0-9.1 13.136M29.725 272.132c-3.417.971-7.563 2.148-9.539 2.379a8 8 0 0 0-9.271 1.474 8 8 0 0 0-1.476 9.271c-.232 1.975-1.409 6.124-2.379 9.539-5.643 19.871-16.148 56.86 16.229 89.236 11.331 11.331 25.87 17.335 41.25 17.335 4.533 0 9.14-.522 13.759-1.582 15.046-3.456 27.569-12.439 33.015-23.401 10.963-5.447 19.946-17.97 23.401-33.016 4.66-20.287-1.081-40.337-15.753-55.008-32.376-32.372-69.364-21.87-89.236-16.227m89.414 67.659c-2.572 11.194-9.214 20.42-16.532 22.957a7.99 7.99 0 0 0-4.93 4.93c-2.538 7.317-11.764 13.96-22.956 16.532-7.006 1.61-24.94 3.712-40.13-11.478-25.74-25.739-17.566-54.524-12.157-73.571.962-3.387 1.837-6.467 2.395-9.263 2.797-.558 5.877-1.433 9.263-2.394 19.048-5.41 47.831-13.583 73.571 12.156 15.188 15.191 13.086 33.126 11.476 40.131"/><path d="M94.855 312.468c-13.997-13.997-28.883-13.416-40.291-11.347a7.99 7.99 0 1 0 2.854 15.724c11.854-2.153 18.939-.275 26.137 6.924 1.144 1.144 1.89 2.352 2.281 3.694a7.99 7.99 0 0 0 7.667 5.757 7.992 7.992 0 0 0 7.676-10.228c-1.147-3.934-3.274-7.474-6.324-10.524"/></svg>