<svg xmlns="http://www.w3.org/2000/svg" xml:space="preserve" viewBox="0 0 512 512"><circle cx="256" cy="247.153" r="230.013" style="fill:#cdfabe"/><path d="M136.13 50.824C70.075 91.241 25.987 164.043 25.987 247.153c0 107.334 73.522 197.486 172.95 222.869 66.055-40.417 110.143-113.219 110.143-196.329 0-107.334-73.522-197.486-172.95-222.869" style="fill:#bcf8a9"/><path d="M108.365 79.934c-3.252-2.466-7.869-2.291-10.826.522-40.831 38.831-67.399 92.512-71.078 152.387 17.896-2.159 35.805-5.123 53.678-8.301-.665-7.125-1.072-14.323-1.072-21.621 0-40.959 12.455-78.887 31.443-112.127 2.098-3.674 1.225-8.303-2.145-10.86" style="fill:#aaf096"/><path d="M450.626 194.073c16.543 0 32.696 1.655 48.331 4.748a249 249 0 0 1 4.748 48.331c0 136.804-110.902 247.706-247.706 247.706a249 249 0 0 1-48.331-4.748 249 249 0 0 1-4.748-48.331c0-136.804 110.902-247.706 247.706-247.706" style="fill:#cdfabe"/><path d="M61.374 194.073a249 249 0 0 0-48.331 4.748 249 249 0 0 0-4.748 48.331C8.294 383.957 119.195 494.86 256 494.86c16.543 0 32.696-1.655 48.331-4.748a249 249 0 0 0 4.748-48.331c.001-136.806-110.901-247.708-247.705-247.708" style="fill:#a0e682"/><path d="M79.717 194.821c-.385 5.605-.65 11.243-.65 16.946 0 130.626 101.135 237.561 229.363 246.959.385-5.605.65-11.243.65-16.946 0-130.628-101.135-237.562-229.363-246.959" style="fill:#aaf096"/><path d="M507.093 197.212a8.295 8.295 0 0 0-6.527-6.527 257 257 0 0 0-13.572-2.294c-12.658-49.846-41.692-94.933-82.078-127.297C362.874 27.403 309.988 8.847 256 8.847S149.127 27.402 107.084 61.094c-40.386 32.364-69.421 77.452-82.08 127.299a257 257 0 0 0-13.572 2.292 8.295 8.295 0 0 0-6.527 6.527A258 258 0 0 0 0 247.153c0 68.38 26.628 132.668 74.981 181.019S187.62 503.153 256 503.153c16.684 0 33.487-1.651 49.942-4.907q.606-.121 1.177-.326-.02.08-.04.158c48.907-9.85 93.862-33.826 129.942-69.907C485.372 379.821 512 315.534 512 247.153c0-16.683-1.651-33.486-4.907-49.941M264.468 25.598a222.3 222.3 0 0 1 31.886 64.72l.038.123a8.25 8.25 0 0 0 7.885 5.799c.814 0 1.642-.121 2.462-.372 4.368-1.344 6.815-6.004 5.486-10.376a238.7 238.7 0 0 0-26.594-58.116c36.39 4.796 70.584 18.459 100.538 40.272-41.777 15.372-78.773 42.433-106.216 77.773a240 240 0 0 0-24.788-32.291c-26.996-29.592-60.55-51.667-97.925-64.615 30.378-15.191 63.853-23.081 98.76-23.081 2.833 0 5.655.061 8.468.164m32.75 457.399A241 241 0 0 1 256 486.566c-63.949 0-124.071-24.903-169.291-70.123-45.219-45.219-70.122-105.34-70.122-169.29 0-13.75 1.199-27.589 3.569-41.218a242 242 0 0 1 49.77-3.418c4.562.153 8.419-3.42 8.58-7.997a8.294 8.294 0 0 0-7.997-8.579c-9.219-.323-18.525-.125-27.819.555 12.518-43.99 38.807-83.638 74.77-112.458a226 226 0 0 1 19.981-14.302c40.538 11.025 76.933 33.292 105.47 64.573 28.819 31.589 47.708 70.324 54.773 112.221a257.8 257.8 0 0 0-41.675 38.967c-38.343-44.835-91.16-75.233-148.925-85.647a8.293 8.293 0 0 0-9.633 6.69 8.293 8.293 0 0 0 6.69 9.633c54.504 9.826 104.314 38.682 140.255 81.254 36.364 43.073 56.391 97.889 56.391 154.351a241 241 0 0 1-3.569 41.219m128.073-66.554c-31.06 31.059-69.156 52.514-110.689 62.916a257.5 257.5 0 0 0 2.772-37.579c0-55.26-17.952-109.039-50.812-153.076 24.269-29.139 55.267-52.3 90.015-67.158a8.295 8.295 0 0 0-6.522-15.252c-13.018 5.567-25.531 12.244-37.429 19.881a236.3 236.3 0 0 0-23.572-65.278c27.909-38.261 67.573-66.817 112.496-80.998 32.372 28.223 56.071 65.517 67.761 106.597-9.294-.68-18.6-.878-27.823-.555-4.578.161-8.158 4.002-7.997 8.58s4.006 8.132 8.579 7.997a242 242 0 0 1 49.775 3.418 241 241 0 0 1 3.569 41.218c-.001 63.948-24.905 124.07-70.123 169.289"/><path d="M404.921 189.849a255 255 0 0 0-18.29 3.996 8.29 8.29 0 0 0-5.965 10.098 8.3 8.3 0 0 0 8.026 6.229c.684 0 1.38-.085 2.073-.264a239 239 0 0 1 17.098-3.736 8.294 8.294 0 0 0-2.942-16.323"/></svg>