<svg xmlns="http://www.w3.org/2000/svg" xml:space="preserve" viewBox="0 0 512 512"><path d="M195.888 116.482c0 18.631-3.378 37.43-9.992 52.858-7.344 17.129-22.435 28.736-35.671 39.146-14.15 11.129-29.68 21.873-47.75 21.873s-37.057-6.376-51.209-17.508c-13.232-10.407-20.243-28.352-27.587-45.476-6.616-15.429-15.793-32.258-15.793-50.892 0-18.631 4.515-37.446 11.129-52.874C26.36 46.479 39.529 32.408 52.764 22 66.915 10.87 84.407 8.176 102.476 8.176s33.671 5.089 47.823 16.22c13.232 10.407 26.468 22.858 33.811 39.982 6.616 15.429 11.778 33.469 11.778 52.104" style="fill:#ff9a32"/><path d="M157.377 105.313c1.513 10.823 1.241 21.994-1.028 31.448-2.519 10.497-9.611 18.362-15.813 25.394-6.63 7.518-14.026 14.915-23.646 16.259s-20.247-.946-28.686-6.359c-7.89-5.061-13.08-14.963-18.379-24.363-4.775-8.471-11.028-17.563-12.54-28.388-1.513-10.823-.637-22.088 1.632-31.542 2.519-10.497 8.388-19.65 14.589-26.682 6.63-7.518 15.725-10.384 25.345-11.729 9.621-1.345 18.34.451 26.778 5.863 7.89 5.061 15.948 11.309 21.247 20.709 4.776 8.469 8.989 18.565 10.501 29.39" style="fill:#ff7d28"/><path d="M117.408 219.276c-.629-3.888-3.73-6.77-7.601-7.494-13.114-2.453-25.876-7.975-36.108-16.024-13.232-10.407-20.244-28.352-27.587-45.476-6.615-15.429-15.793-32.258-15.793-50.894 0-14.335 4.732-25.402 9.393-37.647a8.7 8.7 0 0 0-.855-7.83l-.099-.153c-3.566-5.476-11.609-5.215-14.933.41a82 82 0 0 0-4.807 9.436c-6.616 15.429-11.13 34.244-11.13 52.875 0 18.634 9.177 35.464 15.793 50.894 7.344 17.124 14.355 35.068 27.587 45.476 13.102 10.306 30.349 16.535 47.177 17.403a57.8 57.8 0 0 0 11.582-.586c4.9-.739 8.173-5.498 7.381-10.39" style="fill:#ff7d28"/><path d="M476.877 476.033c-10.492 10.492-22.979 19.175-35.39 24.138-13.781 5.51-28.815 3.548-42.129 1.957-14.235-1.702-29.03-4.397-39.204-14.571-10.176-10.176-17.277-24.457-18.977-38.694-1.591-13.311 4.565-27.364 10.073-41.141 4.963-12.413 9.272-27.058 19.765-37.551 10.492-10.492 23.628-18.544 36.04-23.506 13.781-5.51 29.12-6.018 42.434-4.427 14.235 1.702 25.601 10.033 35.776 20.209s16.094 21.826 17.796 36.063c1.591 13.311 2.033 27.776-3.475 41.553-4.964 12.411-12.216 25.477-22.709 35.97" style="fill:#ff9a32"/><path d="M461.481 448.058c-5.243 6.946-11.686 13.084-18.287 17.129-7.329 4.492-15.752 4.928-23.203 5.394-7.967.5-16.297.5-22.471-4.16-6.175-4.66-10.869-11.934-12.571-19.734-1.593-7.292 1.061-15.791 3.369-24.068 2.081-7.458 3.68-16.1 8.924-23.047s12.08-12.797 18.68-16.842c7.329-4.492 15.789-6.342 23.24-6.81 7.967-.5 14.701 3.007 20.877 7.667s10.074 10.581 11.777 18.38c1.593 7.292 2.613 15.348.303 23.626-2.081 7.462-5.394 15.519-10.638 22.465" style="fill:#ff7d28"/><path d="M374.802 489.725c1.835-2.543 1.712-5.912-.06-8.501-6.004-8.766-10.079-19.061-11.31-29.355-1.591-13.311 4.565-27.364 10.073-41.142 4.963-12.413 9.272-27.057 19.765-37.551 8.072-8.072 16.969-11.639 26.488-15.911a6.93 6.93 0 0 0 3.928-4.89q.016-.071.03-.142c1.076-5.091-3.601-9.474-8.641-8.178a66 66 0 0 0-8.021 2.607c-12.411 4.963-25.549 13.015-36.04 23.506-10.493 10.493-14.802 25.138-19.765 37.551-5.508 13.777-11.663 27.83-10.073 41.141 1.574 13.181 7.779 26.401 16.766 36.365a46 46 0 0 0 6.852 6.191c3.176 2.345 7.698 1.509 10.008-1.691" style="fill:#ff7d28"/><path d="M371.776 121.504c-8.916 8.916-21.743 9.789-32.188 14.179-11.743 4.936-21.16 8.262-32.467 7.208-12.393-1.157-24.966-.878-33.682-9.594-8.72-8.72-6.121-21.466-7.275-33.864-1.052-11.307-4.125-22.332.812-34.072 4.391-10.444 11.562-19.267 20.477-28.182 8.916-8.916 16.127-19.784 26.573-24.175 11.743-4.936 24.917-5.424 36.226-4.369 12.393 1.157 23.234 7.185 31.95 15.9 8.72 8.72 19.89 19.188 21.044 31.585 1.052 11.307-10.125 22.433-15.061 34.173-4.392 10.445-7.493 22.296-16.409 31.211" style="fill:#6e4848"/><path d="M292.612 65.362c1.55-11.222 11.562-19.267 20.477-28.182 2.084-2.084 4.491-4.314 6.716-6.491 5.474-5.358 3.929-15.13-3.338-17.552-.953-.317-1.798-.403-2.441-.131-10.446 4.391-17.657 15.259-26.573 24.175-8.915 8.915-16.086 17.738-20.477 28.182-4.936 11.74-1.864 22.766-.812 34.072 1.154 12.397-1.444 25.145 7.275 33.864 3.313 3.312 7.184 5.325 11.389 6.611 6.334 1.937 11.629-2.926 12.602-9.478.033-.225.066-.545.105-.947.967-10.234.386-20.552-1.836-30.588-2.638-11.92-4.276-24.925-3.087-33.535" style="fill:#643c3e"/><path d="M136.826 375.04c0 12.609-8.453 22.295-12.734 32.787-4.813 11.794-9.119 20.805-17.861 28.055-9.581 7.945-18.274 17.033-30.6 17.033-12.331 0-19.506-10.851-29.09-18.801-8.739-7.251-18.708-12.875-23.519-24.666-4.28-10.49-5.448-21.799-5.448-34.407 0-12.609-2.586-25.393 1.695-35.885 4.813-11.794 13.784-21.456 22.526-28.705 9.581-7.945 21.509-11.348 33.836-11.348 12.331 0 27.632-.497 37.214 7.454 8.739 7.251 8.702 23.021 13.514 34.814 4.279 10.49 10.467 21.063 10.467 33.669" style="fill:#c87857"/><path d="M485.902 179.809c7.004 6.801 7.993 16.548 11.596 24.498 4.051 8.936 6.818 16.101 6.304 24.689-.564 9.412-.033 18.966-6.437 25.561-6.407 6.598-16.162 4.586-25.557 5.425-8.568.766-16.871 3.067-25.922-.719-8.051-3.368-14.94-8.842-21.944-15.642-7.004-6.801-15.449-12.313-19.052-20.261-4.051-8.936-4.757-18.947-4.242-27.536.564-9.412 4.871-17.63 11.276-24.226 6.407-6.598 14.081-15.053 23.475-15.892 8.568-.766 17.31 7.76 26.36 11.546 8.052 3.366 17.14 5.758 24.143 12.557" style="fill:#ffdc64"/><path d="M488.368 243.616c-8.568.765-16.871 3.067-25.922-.72-8.051-3.367-14.94-8.842-21.943-15.642-7.004-6.801-15.449-12.313-19.052-20.262-2.588-5.712-3.324-7.993-3.411-11.352-.113-4.388-1.192-8.696-3.482-12.441l-.054-.09c-2.525-4.129-8.757-3.906-10.769.496-1.729 3.782-2.823 7.862-3.085 12.218-.515 8.588.191 18.599 4.242 27.536 3.603 7.949 12.048 13.461 19.052 20.261s13.893 12.274 21.943 15.642c9.051 3.786 17.354 1.485 25.922.719 9.395-.84 19.15 1.173 25.557-5.425 3.162-3.257 2.419-7.821.64-9.245-3.366-2.691-4.769-2.13-9.638-1.695" style="fill:#ffc850"/><path d="M306.408 349.837c-14.319 29.178-12.295 45.077-27.457 75.972-20.215 41.193-54.973 36.931-74.775 27.224-19.802-9.708-44.452-34.567-24.237-75.761 15.162-30.895 28.98-39.027 43.299-68.206s12.294-45.077 27.455-75.972c20.215-41.193 54.973-36.931 74.775-27.224 19.802 9.708 44.452 34.567 24.237 75.761-15.161 30.894-28.978 39.026-43.297 68.206" style="fill:#c87857"/><path d="M231.455 450.691c.294-3.099-1.038-6.157-3.601-7.924-17.399-11.995-33.288-35.344-15.87-70.838 15.162-30.895 28.98-39.027 43.299-68.206 14.319-29.178 3.954-38.199 19.115-69.094 2.933-5.976 14.514-17.858 17.972-22.025 4.558-5.492-.419-13.355-7.286-11.417-12.628 3.567-25.057 12.882-34.392 31.903-15.161 30.895-13.135 46.794-27.455 75.973s-28.137 37.311-43.299 68.206c-20.215 41.193 4.434 66.053 24.237 75.761a63.6 63.6 0 0 0 17.354 5.552c4.92.821 9.456-2.926 9.926-7.891M92.355 435.448c-12.332 0-19.507-10.851-29.09-18.801-8.739-7.251-18.708-12.875-23.519-24.666-4.28-10.49-5.449-21.799-5.449-34.407 0-12.609-2.586-25.393 1.695-35.883 1.755-4.299 4.179-8.211 6.826-11.929-.328.257-.701.423-1.024.691-8.742 7.25-17.713 16.911-22.526 28.705-4.281 10.491-1.695 23.275-1.695 35.883s1.169 23.918 5.449 34.407c4.811 11.792 14.779 17.416 23.519 24.666 9.583 7.95 16.759 18.801 29.089 18.801 12.327 0 21.02-9.087 30.6-17.033 4.193-3.476 7.33-7.388 10.027-11.786-7.19 6.046-14.486 11.352-23.902 11.352" style="fill:#b9644b"/><path d="M133.144 337.969c-1.445-3.541-2.427-7.695-3.468-12.093-2.26-9.552-4.597-19.429-12.349-25.861-11.289-9.366-27.373-9.333-40.291-9.303l-2.039.003c-15.073 0-28.542 4.562-38.949 13.194-11.87 9.843-20.224 20.558-24.829 31.845-3.78 9.263-3.216 19.252-2.67 28.912.187 3.312.38 6.737.38 9.998 0 15.647 1.864 27.192 6.042 37.432 4.654 11.407 13.149 17.949 20.645 23.721 1.811 1.394 3.52 2.711 5.177 4.085 2.147 1.781 4.192 3.755 6.358 5.844 7.191 6.939 15.341 14.803 27.846 14.803 13.625 0 23.372-8.345 31.972-15.707a310 310 0 0 1 3.743-3.171c10.393-8.619 15.281-19.227 20.165-31.194 1.176-2.882 2.789-5.835 4.498-8.963 4.139-7.576 8.83-16.162 8.83-26.85 0-11.679-4.413-21.589-8.305-30.333-.983-2.205-1.91-4.291-2.756-6.362m-11.831 55.864c-1.847 3.38-3.756 6.874-5.273 10.592-4.914 12.042-8.669 19.202-15.557 24.914-1.325 1.098-2.632 2.218-3.935 3.333-7.431 6.362-13.849 11.856-21.552 11.856-5.744 0-10.096-3.918-16.721-10.31-2.283-2.203-4.643-4.48-7.253-6.645-1.881-1.561-3.788-3.029-5.631-4.449-6.742-5.191-12.564-9.676-15.585-17.078-3.403-8.34-4.855-17.724-4.855-31.38 0-3.714-.206-7.367-.406-10.902-.466-8.248-.906-16.04 1.508-21.955 3.599-8.82 10.403-17.422 20.222-25.565 7.498-6.218 17.43-9.504 28.721-9.504l2.074-.003q1.063-.002 2.141-.003c10.315 0 21.505.322 27.884 5.614 3.624 3.007 5.258 9.911 6.987 17.219 1.135 4.8 2.31 9.763 4.225 14.457.941 2.305 1.964 4.604 2.955 6.828 3.559 7.992 6.92 15.542 6.92 23.816 0 6.594-3.336 12.7-6.869 19.165"/><path d="M80.378 416.813c-9.017-7.456-7.996-13.546-6.451-22.762.853-5.095 1.737-10.363.672-15.994-2.447-12.935-7.232-19.124-10.726-23.642-3.268-4.227-4.491-5.808-3.461-12.882a8.011 8.011 0 0 0-15.855-2.307c-2.007 13.802 2.587 19.744 6.641 24.988 2.914 3.769 5.926 7.665 7.658 16.821.534 2.822-.081 6.486-.732 10.367-1.727 10.304-4.093 24.415 12.043 37.758a7.97 7.97 0 0 0 5.101 1.837 7.99 7.99 0 0 0 6.178-2.907 8.01 8.01 0 0 0-1.068-11.277M103.082 357.606c-4.412-.304-8.244 3.015-8.555 7.428-.207 2.947-.973 5.613-1.86 8.701-1.542 5.372-3.461 12.059-2.965 22.225a8.01 8.01 0 1 0 16.003-.781c-.366-7.516.959-12.133 2.362-17.023 1.04-3.624 2.116-7.372 2.442-11.996a8.01 8.01 0 0 0-7.427-8.554M91.619 333.113c-1.877-1.877-2.726-3.014-3.123-5.204a8.012 8.012 0 0 0-15.765 2.867c1.193 6.563 4.338 10.447 7.558 13.667a8 8 0 0 0 5.665 2.347c2.05 0 4.101-.782 5.665-2.347a8.01 8.01 0 0 0 0-11.33M504.919 200.999c-.952-2.099-1.74-4.512-2.574-7.067-2.117-6.483-4.517-13.831-10.738-19.871-6.722-6.527-14.685-9.574-21.711-12.264-1.724-.66-3.353-1.283-4.92-1.939-2.603-1.09-5.37-2.773-8.3-4.555-6.404-3.897-13.661-8.313-21.865-7.58-11.853 1.06-20.504 10.01-27.457 17.202l-1.054 1.09c-8.205 8.449-12.881 18.591-13.524 29.328-.718 11.968.945 22.506 4.941 31.322 3.327 7.341 9.302 12.542 15.08 17.572 2.009 1.75 3.908 3.402 5.689 5.13 5.952 5.779 14.109 12.967 24.433 17.285 5.009 2.095 9.755 2.737 14.226 2.737 3.733 0 7.275-.448 10.613-.87 1.696-.215 3.299-.418 4.887-.559 2.032-.182 4.155-.211 6.403-.242 7.6-.106 17.058-.237 24.189-7.581 7.662-7.891 8.11-18.032 8.505-26.978.054-1.225.108-2.456.182-3.684.637-10.638-2.795-19.19-7.005-28.476m-8.99 27.518c-.079 1.312-.137 2.626-.195 3.935-.309 6.977-.575 13.003-3.993 16.524-2.381 2.453-6.459 2.632-12.916 2.722-2.446.034-4.975.069-7.607.304-1.88.168-3.706.398-5.471.622-6.117.774-11.402 1.442-16.646-.752-6.202-2.595-12.02-6.781-19.454-14-2.094-2.033-4.247-3.907-6.33-5.72-4.69-4.083-9.12-7.94-11.007-12.101-2.91-6.419-4.102-14.41-3.542-23.749.418-6.951 3.453-13.385 9.026-19.125l1.08-1.115c5.37-5.556 11.455-11.851 17.361-12.379q.194-.018.395-.017c2.961 0 7.409 2.706 11.715 5.326 3.308 2.012 6.728 4.093 10.445 5.649 1.793.751 3.615 1.447 5.375 2.121 6.128 2.346 11.916 4.561 16.277 8.795 3.381 3.283 4.905 7.948 6.669 13.35.932 2.854 1.896 5.806 3.212 8.708 4.106 9.051 5.991 14.487 5.606 20.902"/><path d="M452.43 205.158c-9.145-2.816-12.225-3.763-13.784-12.928a8.011 8.011 0 0 0-15.796 2.686c3.213 18.889 14.716 22.431 24.865 25.555 7.855 2.418 15.978 4.919 24.067 14.924a8 8 0 0 0 6.234 2.975c1.769 0 3.55-.583 5.032-1.782a8.01 8.01 0 0 0 1.192-11.267c-11.162-13.806-23.096-17.481-31.81-20.163M258.311 100.176c.259 2.777.31 5.619.363 8.628.178 9.992.38 21.316 9.224 30.158 9.634 9.635 22.427 10.626 33.713 11.501 1.627.126 3.26.252 4.89.405q2.514.233 4.921.231c11.27 0 20.966-3.646 31.395-8.03 2.869-1.206 6.098-2.155 9.519-3.158 8.283-2.43 17.671-5.185 25.229-12.742 8.258-8.258 12.146-18.386 15.576-27.321.866-2.255 1.683-4.385 2.551-6.449 1.483-3.525 3.725-7.158 6.098-11.002 5.156-8.353 10.487-16.989 9.554-27.018-1.36-14.605-12.755-25.951-21.913-35.068l-1.444-1.44C377.329 8.213 364.579 1.915 351.117.658c-15.353-1.431-28.837.237-40.075 4.961-9.223 3.878-15.887 11.339-22.331 18.555-2.21 2.474-4.495 5.033-6.802 7.341-11.064 11.064-17.91 20.545-22.197 30.742-4.775 11.357-3.394 21.989-2.176 31.369.298 2.266.576 4.406.775 6.55m16.173-31.709c3.492-8.303 9.101-15.966 18.756-25.622 2.627-2.626 5.065-5.357 7.423-7.997 5.502-6.161 10.7-11.981 16.59-14.457 6.66-2.8 14.533-4.208 23.489-4.208 2.853 0 5.818.143 8.887.429 9.698.905 19.045 5.604 27.029 13.588l1.469 1.464c7.707 7.674 16.441 16.37 17.264 25.199.437 4.689-3.29 10.726-7.235 17.115-2.59 4.197-5.27 8.537-7.234 13.209-.966 2.296-1.867 4.644-2.739 6.916-3.136 8.167-6.097 15.883-11.948 21.733-4.665 4.665-11.342 6.624-18.41 8.698-3.695 1.084-7.516 2.205-11.217 3.761-11.989 5.041-19.706 7.451-28.619 6.616-1.713-.159-3.43-.293-5.14-.425-9.753-.756-18.175-1.409-23.622-6.856-4.062-4.062-4.369-9.91-4.533-19.115-.057-3.171-.115-6.451-.429-9.826-.226-2.433-.536-4.821-.836-7.129-1.096-8.436-2.043-15.723 1.055-23.093"/><path d="M294.645 120.607q.38 0 .765-.036a8.01 8.01 0 0 0 7.22-8.731c-1.103-11.649 3.923-15.232 11.533-20.657 4.206-2.998 8.556-6.099 11.784-10.834 7.415-10.876 8.409-18.636 9.134-24.301.678-5.299.931-7.282 6.661-11.556a8.014 8.014 0 0 0 1.631-11.213 8.015 8.015 0 0 0-11.213-1.631c-11.179 8.34-12.132 15.791-12.974 22.366-.605 4.725-1.229 9.61-6.479 17.309-1.617 2.372-4.643 4.529-7.847 6.813-8.507 6.065-20.159 14.37-18.184 35.215a8.02 8.02 0 0 0 7.969 7.256M323.97 103.688a8.01 8.01 0 0 0 .552 11.316 7.98 7.98 0 0 0 5.379 2.078 8 8 0 0 0 5.937-2.629c5.056-5.574 9.258-7.901 13.708-10.367 3.297-1.827 6.708-3.716 10.209-6.755a8.013 8.013 0 0 0 .797-11.302 8.013 8.013 0 0 0-11.302-.797c-2.23 1.937-4.657 3.281-7.467 4.838-4.891 2.708-10.976 6.078-17.813 13.618M361.753 68.615a8.01 8.01 0 0 0 8.011-8.011c0-2.654.204-4.059 1.471-5.889a8.013 8.013 0 0 0-13.174-9.122c-3.796 5.483-4.32 10.454-4.32 15.009a8.01 8.01 0 0 0 8.012 8.013M193.384 172.495c6.861-16.004 10.639-35.896 10.639-56.013 0-17.439-4.181-36.032-12.426-55.261-8.391-19.568-23.765-33.324-36.221-43.123C140.032 6.031 122.769.164 102.599.164c-16.252 0-37.154 1.766-54.663 15.537-11.682 9.187-27.437 24.408-36.159 44.75C4.183 78.165 0 98.064 0 116.482c0 17.331 6.974 32.86 13.128 46.562a501 501 0 0 1 3.314 7.488l1.473 3.449c7.163 16.809 14.57 34.19 28.524 45.165 15.53 12.216 36.001 19.222 56.162 19.222 20.957 0 38.193-12.175 52.703-23.588l.874-.687c13.694-10.764 29.218-22.967 37.206-41.598m-47.109 29.002-.878.69c-12.401 9.754-26.958 20.159-42.798 20.159-16.391 0-33.683-5.904-46.255-15.793-10.728-8.438-17.316-23.901-23.689-38.853l-1.488-3.483c-1.099-2.563-2.281-5.192-3.424-7.737-5.761-12.831-11.72-26.1-11.72-39.998 0-16.296 3.722-33.953 10.481-49.716 7.391-17.238 21.121-30.435 31.337-38.47 10.648-8.375 24.452-12.109 44.758-12.109 16.666 0 30.288 4.609 42.87 14.506 11.642 9.158 24.477 20.696 31.4 36.843 7.386 17.222 11.13 33.69 11.13 48.946 0 17.997-3.318 35.647-9.343 49.7-6.376 14.873-19.596 25.266-32.381 35.315"/><path d="m71.958 150.942-1.522-3.565a525 525 0 0 0-3.716-8.404c-3.55-7.906-7.97-17.746-7.97-22.492 0-4.093.392-8.45 1.165-12.949 1.178-6.848 3.203-13.74 5.858-19.932a8.01 8.01 0 0 0-4.207-10.519 8.01 8.01 0 0 0-10.519 4.207c-3.142 7.327-5.535 15.463-6.923 23.529-.927 5.394-1.397 10.664-1.397 15.665 0 8.179 4.555 18.32 9.378 29.057a518 518 0 0 1 3.601 8.144l1.515 3.547c2.194 5.149 4.924 11.556 7.685 16.967a8.01 8.01 0 0 0 10.777 3.497 8.01 8.01 0 0 0 3.496-10.777c-2.511-4.921-5.121-11.047-7.221-15.975M137.602 84.374a8.01 8.01 0 0 0 7.366 4.855 8 8 0 0 0 3.154-.651 8.01 8.01 0 0 0 4.204-10.521c-2.287-5.331-5.835-10.321-11.171-15.704a8.01 8.01 0 1 0-11.38 11.278c3.873 3.909 6.359 7.322 7.827 10.743M152.292 102.738a8.01 8.01 0 0 0-7.254 8.704c.156 1.713.235 3.41.235 5.04 0 12.159-2.145 24.138-5.886 32.864-2.082 4.855-11.749 12.454-19.517 18.56l-.887.698a204 204 0 0 1-5.28 4.025 8.01 8.01 0 0 0-1.717 11.199 8 8 0 0 0 6.464 3.271 7.97 7.97 0 0 0 4.735-1.554 218 218 0 0 0 5.702-4.344l.886-.696c10.619-8.347 20.648-16.23 24.341-24.843 4.564-10.648 7.182-24.926 7.182-39.177a72 72 0 0 0-.3-6.489c-.401-4.411-4.298-7.661-8.704-7.258M490.575 356.795c-8.571-8.615-22.076-20.321-40.32-22.513-11.889-1.428-29.548-1.729-46.16 4.948-14.385 5.78-28.076 14.761-38.55 25.289-9.955 10.007-14.814 22.849-19.099 34.182-.779 2.059-1.546 4.088-2.331 6.059l-1.106 2.769c-5.479 13.686-11.144 27.837-9.428 42.28 1.898 15.975 9.61 31.793 21.157 43.398 12.117 12.179 28.926 15.097 43.73 16.875l.875.106c6.643.8 13.707 1.65 20.945 1.65 7.915 0 16.039-1.018 24.038-4.232 13.016-5.231 26.476-14.436 37.902-25.921 9.928-9.979 18.123-22.986 24.358-38.662 6.395-16.08 5.48-32.741 3.968-45.46-1.877-15.807-8.412-29.142-19.979-40.768m1.124 80.305c-5.43 13.65-12.437 24.848-20.827 33.282-9.927 9.978-21.476 17.917-32.519 22.355-11.502 4.623-24.513 3.057-37.094 1.541l-.879-.106c-12.131-1.457-25.786-3.727-34.282-12.267-8.935-8.981-15.143-21.687-16.605-33.99-1.235-10.388 3.441-22.068 8.392-34.433l1.118-2.802a391 391 0 0 0 2.428-6.313c3.9-10.31 7.932-20.971 15.472-28.548 8.975-9.021 20.753-16.735 33.166-21.724 8.798-3.536 18.156-4.633 26.385-4.633 4.365 0 8.414.31 11.89.726 10.257 1.232 19.777 6.754 30.872 17.905 9.067 9.114 13.97 19.078 15.429 31.358 1.369 11.515 2.09 24.99-2.946 37.649"/><path d="M446.934 446.322c-6.659 6.694-14.368 12.096-21.149 14.821-3.482 1.4-13.316.217-20.502-.648l-.886-.107a158 158 0 0 1-5.159-.7c-4.373-.676-8.464 2.327-9.136 6.7a8.01 8.01 0 0 0 6.7 9.136c1.752.269 3.665.53 5.685.772l.886.107c5.938.715 11.694 1.408 16.888 1.408 4.292 0 8.198-.474 11.499-1.801 8.725-3.507 18.396-10.209 26.533-18.387a8.013 8.013 0 0 0-.029-11.33 8.013 8.013 0 0 0-11.33.029M393.075 416.461c2.259-5.974 5.354-14.157 7.766-16.58 2.229-2.241 4.818-4.412 7.693-6.453 4.391-3.118 9.269-5.794 14.103-7.737a8.01 8.01 0 0 0 4.447-10.42 8.01 8.01 0 0 0-10.42-4.447c-5.986 2.404-12.004 5.704-17.405 9.54-3.615 2.567-6.904 5.33-9.775 8.215-4.828 4.853-8.018 13.286-11.394 22.214a418 418 0 0 1-2.534 6.585l-1.138 2.85c-1.665 4.157-3.736 9.332-5.238 13.985a8.01 8.01 0 0 0 5.163 10.085c.818.264 1.647.39 2.463.39a8.02 8.02 0 0 0 7.623-5.552c1.333-4.13 3.292-9.021 4.868-12.957l1.145-2.867c.883-2.23 1.753-4.522 2.633-6.851M469.832 406.625h-.037a8.01 8.01 0 0 0-8.011 7.975c-.019 4.176-.502 7.312-1.52 9.871a8.012 8.012 0 0 0 14.889 5.921c1.782-4.481 2.626-9.477 2.653-15.719a8.01 8.01 0 0 0-7.974-8.048M357.022 285.159c12.65-25.778 8.56-45.072 2.902-56.718-8.137-16.749-22.793-25.838-30.804-29.766-26.154-12.82-64.238-12.425-85.494 30.889-8.019 16.34-11.42 28.629-14.709 40.515-3.095 11.184-6.018 21.748-12.747 35.457-6.727 13.71-13.297 22.487-20.251 31.781-7.39 9.874-15.03 20.085-23.049 36.425-12.65 25.778-8.56 45.072-2.902 56.718 8.137 16.749 22.793 25.838 30.804 29.766 9.117 4.469 19.679 7.332 30.477 7.332 20.179 0 41.17-10.004 55.017-38.22 8.019-16.34 11.42-28.629 14.71-40.515 3.096-11.184 6.019-21.748 12.747-35.457s13.296-22.487 20.25-31.78c7.389-9.875 15.03-20.087 23.049-36.427m-57.682 61.147c-7.388 15.053-10.65 26.841-13.805 38.243-3.236 11.69-6.292 22.733-13.651 37.729-20.175 41.109-54.13 28.425-64.057 23.56-4.962-2.432-17.18-9.482-23.446-22.381-5.962-12.27-4.995-26.622 2.874-42.658 7.36-14.997 14.225-24.171 21.494-33.885 7.088-9.473 14.418-19.269 21.806-34.321s10.65-26.841 13.804-38.243c3.236-11.69 6.292-22.732 13.65-37.729 11.394-23.219 27.183-29.277 40.558-29.277 10.305 0 19.179 3.599 23.499 5.717 4.962 2.432 17.18 9.482 23.446 22.381 5.962 12.27 4.995 26.622-2.874 42.658-7.36 14.997-14.225 24.172-21.493 33.886-7.089 9.473-14.419 19.269-21.805 34.32"/><path d="M312.946 231.631a8.012 8.012 0 0 0-7.053 14.387c4.257 2.087 6.542 4.181 6.788 6.222.297 2.451-1.375 6.269-3.049 9.681a8.01 8.01 0 0 0 7.187 11.542 8.01 8.01 0 0 0 7.197-4.483c2.847-5.8 5.371-12.076 4.572-18.669-.94-7.769-6.203-14.054-15.642-18.68M272.874 334.642a8.01 8.01 0 0 0-10.548 4.134c-6.166 14.112-9.379 25.719-12.216 35.967-3.005 10.857-5.377 19.432-11.23 31.358-4.585 9.346-6.37 10.956-14.881 6.784a8.01 8.01 0 0 0-10.72 3.667 8.013 8.013 0 0 0 3.667 10.72c5.39 2.643 10.026 3.716 14.017 3.716 13.552 0 19.633-12.392 22.3-17.827 6.512-13.269 9.189-22.942 12.289-34.15 2.693-9.726 5.744-20.749 11.453-33.818a8.01 8.01 0 0 0-4.131-10.551M302.914 288.378a8.01 8.01 0 0 0-11.215 1.614c-3.518 4.7-7.155 9.56-11.014 15.302a8.01 8.01 0 0 0 2.18 11.118 7.98 7.98 0 0 0 4.462 1.364 8 8 0 0 0 6.656-3.543c3.633-5.404 7.147-10.1 10.545-14.641a8.01 8.01 0 0 0-1.614-11.214M220.259 396.98c5.851-11.924 11.183-19.049 17.934-28.07a8.012 8.012 0 0 0-12.829-9.601c-6.965 9.307-12.978 17.345-19.489 30.611a8.01 8.01 0 0 0 3.663 10.721 8.01 8.01 0 0 0 10.721-3.661M285.07 266.782a8.013 8.013 0 0 0-15.081-5.414c-2.288 6.374-3.919 12.271-5.647 18.516a8.012 8.012 0 0 0 15.444 4.273c1.644-5.946 3.198-11.564 5.284-17.375"/></svg>