<svg xmlns="http://www.w3.org/2000/svg" xml:space="preserve" viewBox="0 0 512 512"><path d="M329.291 273.725a51.3 51.3 0 0 0 3.67-19.055v-98.433a34.2 34.2 0 0 0-6.841-20.523l-39.335-52.447a25.65 25.65 0 0 1-5.131-15.392V50.772h-51.307v17.102c0 5.551-1.8 10.952-5.131 15.392l-39.335 52.446a34.2 34.2 0 0 0-6.841 20.523v98.433a51.3 51.3 0 0 0 3.67 19.055l7.081 17.703a42.75 42.75 0 0 1 0 31.758l-7.081 17.703a51.3 51.3 0 0 0-3.67 19.055V478.33c0 14.168 11.485 25.653 25.653 25.653h102.614c14.168 0 25.653-11.485 25.653-25.653V359.943a51.3 51.3 0 0 0-3.67-19.055l-7.081-17.703a42.75 42.75 0 0 1 0-31.758z" style="fill:#cdebff"/><path d="M233.694 135.713 251 83.267a40 40 0 0 0 1.189-4.514c.719-3.513 3.758-6.068 7.343-6.068h22.595a25.7 25.7 0 0 1-.474-4.81V50.772h-51.307v17.102c0 5.551-1.8 10.952-5.131 15.392l-39.335 52.446a34.2 34.2 0 0 0-6.841 20.523v98.433a51.3 51.3 0 0 0 3.67 19.055l7.081 17.703a42.75 42.75 0 0 1 0 31.758l-7.081 17.703a51.3 51.3 0 0 0-3.67 19.054V478.33c0 14.168 11.485 25.653 25.653 25.653h37.278c-6.233 0-11.285-11.485-11.285-25.653V359.943c0-6.527.548-12.995 1.614-19.055l3.116-17.703a91.6 91.6 0 0 0 0-31.758l-3.116-17.703c-1.067-6.06-1.614-12.527-1.614-19.055v-98.433c0-7.4 1.056-14.601 3.009-20.523" style="fill:#b9dcf5"/><path d="M179.04 161.937h51.307v85.511H179.04z" style="fill:#7df5a5"/><path d="M281.653 50.772h-51.307a8.55 8.55 0 0 1-8.551-8.551V16.568a8.55 8.55 0 0 1 8.551-8.551h51.307a8.55 8.55 0 0 1 8.551 8.551v25.653a8.55 8.55 0 0 1-8.551 8.551" style="fill:#a0ffb4"/><path d="M247.449 42.221V16.568A8.55 8.55 0 0 1 256 8.017h-25.653a8.55 8.55 0 0 0-8.551 8.551v25.653a8.55 8.55 0 0 0 8.551 8.551H256a8.55 8.55 0 0 1-8.551-8.551" style="fill:#7df5a5"/><path d="M230.347 187.591h-8.551c-9.445 0-17.102 7.656-17.102 17.102 0 9.445 7.658 17.102 17.102 17.102h8.551z" style="fill:#64dca0"/><path d="M179.04 161.937h153.921v85.511H179.04z" style="fill:#a0ffb4"/><path d="M179.04 161.937h51.649v85.511H179.04z" style="fill:#7df5a5"/><path d="M290.205 221.795h-68.409c-9.446 0-17.102-7.656-17.102-17.102s7.656-17.102 17.102-17.102h68.409c9.446 0 17.102 7.656 17.102 17.102s-7.657 17.102-17.102 17.102" style="fill:#7df5a5"/><path d="M230.685 187.591h-8.89c-9.445 0-17.102 7.656-17.102 17.102s7.658 17.102 17.102 17.102h8.89z" style="fill:#64dca0"/><path d="m332.533 130.904-39.335-52.447a17.74 17.74 0 0 1-3.527-10.582V56.71c5.093-2.829 8.551-8.26 8.551-14.489V16.568C298.221 7.432 290.789 0 281.653 0h-51.307c-9.136 0-16.568 7.432-16.568 16.568v25.653c0 6.228 3.458 11.659 8.551 14.489v11.165a17.75 17.75 0 0 1-3.527 10.582l-39.335 52.447c-5.445 7.26-8.444 16.257-8.444 25.333v98.433a59 59 0 0 0 4.244 22.033l7.081 17.703a34.6 34.6 0 0 1 0 25.803l-7.081 17.702a59.1 59.1 0 0 0-4.244 22.032V478.33c0 18.566 15.105 33.67 33.67 33.67h102.614c18.566 0 33.67-15.105 33.67-33.67V359.943a59 59 0 0 0-4.244-22.032l-7.081-17.702a34.6 34.6 0 0 1 0-25.804l7.081-17.702a59.1 59.1 0 0 0 4.244-22.033v-98.433c0-9.076-2.999-18.073-8.444-25.333m-42.328 261.38h34.739v18.171H187.056v-18.171H256a8.017 8.017 0 0 0 0-16.034h-68.944v-16.307q.001-.947.045-1.889c.162.01.324.025.49.025h42.759a8.017 8.017 0 0 0 0-16.034h-39.47l6.354-15.883q.456-1.137.853-2.288h115.827q.397 1.15.853 2.288l6.352 15.883h-5.261a8.017 8.017 0 0 0 0 16.034h8.551c.166 0 .327-.015.49-.025.027.629.045 1.257.045 1.889v16.307h-34.739a8.017 8.017 0 0 0 0 16.034m31.643-121.535-7.081 17.702a50.7 50.7 0 0 0-3.635 19.391H200.869a50.7 50.7 0 0 0-3.635-19.391l-7.081-17.703a43.1 43.1 0 0 1-3.077-15.282h137.85a43.2 43.2 0 0 1-3.078 15.283m-134.792-31.317v-69.478h137.887v69.478zm42.756-222.864c0-.295.239-.534.534-.534h51.307c.295 0 .534.239.534.534v25.653a.534.534 0 0 1-.534.534h-51.307a.534.534 0 0 1-.534-.534zm1.817 71.509a33.88 33.88 0 0 0 6.734-20.202v-9.086h35.273v9.086a33.88 33.88 0 0 0 6.734 20.202l39.335 52.447c2.913 3.884 4.689 8.57 5.125 13.396H187.169c.436-4.826 2.213-9.513 5.125-13.396zm75.678 407.89H204.693c-9.725 0-17.637-7.912-17.637-17.637v-51.841h137.887v51.841c.001 9.725-7.911 17.637-17.636 17.637"/><path d="M289.671 350.063a8.017 8.017 0 0 0-8.017-8.017h-17.103a8.017 8.017 0 0 0 0 16.034h17.104a8.017 8.017 0 0 0 8.016-8.017"/></svg>