<svg xmlns="http://www.w3.org/2000/svg" xml:space="preserve" viewBox="0 0 512 512"><path d="M178.253 19.983c-2.843-9.002-12.443-14.012-21.456-11.156-9.01 2.847-14.004 12.45-11.16 21.461l25.398 80.425 35.854-.056z" style="fill:#00c3ff"/><path d="M144.839 461.229v25.653c0 9.444 7.657 17.102 17.102 17.102H350.06c9.444 0 17.102-7.657 17.102-17.102v-25.653z" style="fill:#fae6be"/><path d="M230.348 486.881v-25.653h-85.509v25.653c0 9.444 7.657 17.102 17.102 17.102h85.509c-9.445 0-17.102-7.657-17.102-17.102" style="fill:#f5dcb4"/><path d="m110.636 110.643 15.939 334.704c.651 13.677 11.93 24.432 25.624 24.432h207.604c13.694 0 24.972-10.755 25.624-24.432l15.939-334.704z" style="fill:#faf0d3"/><path d="M401.365 110.643H110.636l15.939 334.704c.651 13.677 11.931 24.432 25.624 24.432h57.32c-.074-.79-.219-1.547-.247-2.356l-10.464-304.89c-.331-9.669 7.417-17.689 17.092-17.689h183.839z" style="fill:#fae6be"/><circle cx="256.002" cy="307.317" r="76.958" style="fill:#00c3ff"/><circle cx="256.002" cy="307.317" r="42.754" style="fill:#00aaf0"/><path d="M315.856 461.763h-17.104a8.016 8.016 0 0 0 0 16.032h17.104a8.016 8.016 0 0 0 0-16.032"/><path d="M427.017 102.627H212.758l-26.86-85.059c-2.021-6.397-6.409-11.625-12.357-14.72-5.957-3.101-12.762-3.691-19.16-1.665-13.205 4.173-20.556 18.312-16.389 31.518l22.082 69.926h-75.09a8.016 8.016 0 0 0 0 16.032h18.008l15.575 327.069c.593 12.453 7.864 23.034 18.256 28.365v12.788c0 13.85 11.268 25.118 25.118 25.118H350.06c13.85 0 25.118-11.268 25.118-25.118v-12.788c10.392-5.331 17.663-15.911 18.256-28.365l15.575-327.069h18.008a8.016 8.016 0 0 0 0-16.032M153.282 27.875c-1.508-4.779 1.153-9.894 5.936-11.406a9 9 0 0 1 6.92.6 9.03 9.03 0 0 1 4.472 5.328l25.336 80.231h-19.058zM392.091 136.83H367.16a8.016 8.016 0 0 0 0 16.032h24.168l-13.91 292.103a17.613 17.613 0 0 1-17.616 16.797h-9.744a8.016 8.016 0 0 0 0 16.032h9.085v9.085c0 5.01-4.076 9.085-9.085 9.085H161.94c-5.01 0-9.085-4.076-9.085-9.085v-9.085H264.55a8.016 8.016 0 0 0 0-16.032H152.197a17.615 17.615 0 0 1-17.616-16.797l-13.91-292.103h212.286a8.016 8.016 0 0 0 0-16.032H119.908l-.865-18.171h273.914z"/><path d="M256 222.339c-46.854 0-84.974 38.12-84.974 84.974s38.12 84.974 84.974 84.974 84.974-38.12 84.974-84.974-38.119-84.974-84.974-84.974m0 153.915c-38.014 0-68.941-30.927-68.941-68.941s30.927-68.941 68.941-68.941 68.941 30.927 68.941 68.941-30.927 68.941-68.941 68.941"/><path d="M291.954 282.818a8.016 8.016 0 0 0-4.121 10.561 34.5 34.5 0 0 1 2.905 13.935c0 19.154-15.584 34.738-34.738 34.738s-34.738-15.584-34.738-34.738 15.584-34.738 34.738-34.738c4.822 0 9.484.966 13.859 2.872a8.02 8.02 0 0 0 10.552-4.147 8.02 8.02 0 0 0-4.147-10.552c-6.407-2.791-13.224-4.207-20.262-4.207-27.994 0-50.771 22.776-50.771 50.771 0 27.994 22.776 50.771 50.771 50.771s50.771-22.776 50.771-50.771c0-7.08-1.431-13.935-4.255-20.374a8.02 8.02 0 0 0-10.564-4.121"/></svg>