<svg xmlns="http://www.w3.org/2000/svg" xml:space="preserve" viewBox="0 0 512 512"><path d="M375.716 384.267c0 66.117-53.599 119.716-119.716 119.716s-119.716-53.599-119.716-119.716c0-162.472 53.599-376.25 119.716-376.25s119.716 213.778 119.716 376.25" style="fill:#ffdc64"/><path d="M230.347 384.267c0-230.881 11.485-376.251 25.653-376.251-66.117 0-119.716 213.779-119.716 376.251 0 66.117 53.599 119.716 119.716 119.716-14.168 0-25.653-53.598-25.653-119.716" style="fill:#ffc850"/><path d="M308.893 343.098C286.486 365.505 268.85 390.57 256 416.824c-12.849-26.254-30.486-51.319-52.893-73.726-44.206-44.206-98.732-69.936-152.392-76.678 33.031 48.171 47.926 115.901 77.018 160.603 36.105 55.478 77.554 76.96 128.267 76.96s92.162-21.483 128.267-76.96c29.092-44.702 43.987-112.433 77.019-160.602-53.66 6.741-108.185 32.471-152.393 76.677" style="fill:#8ce16e"/><path d="M300.281 308.407c-17.771 17.771-32.51 37.23-44.293 57.611-11.766-20.383-26.499-39.84-44.269-57.611-52.267-52.267-118.963-78.821-181.592-78.544-4.617.02-6.747 5.637-3.315 8.725 9.009 8.104 16.848 17.545 23.902 27.833 53.661 6.743 108.186 32.471 152.392 76.678 15.477 15.477 28.436 32.298 39.309 49.84-14.808 34.032-20.541 107.272-20.541 107.272 4.549.956 9.931 1.961 9.931 1.961 6.053-54.765 31.936-113.923 77.089-159.075 44.206-44.206 98.732-69.936 152.392-76.678 7.054-10.287 14.893-19.729 23.902-27.833 3.432-3.088 1.302-8.705-3.315-8.725-62.63-.276-129.326 26.28-181.592 78.546" style="fill:#9bf57d"/><path d="M503.145 228.159a8.02 8.02 0 0 0-7.173-5.811c-34.439-2.323-70.72 3.508-104.923 16.86a273 273 0 0 0-17.089 7.377c-9.156-65.01-24.189-124.233-42.609-167.588C309.393 27.317 283.337 0 256 0c-27.236 0-53.212 27.127-75.116 78.449-18.516 43.38-33.649 102.845-42.844 168.135a272 272 0 0 0-17.088-7.376c-34.204-13.352-70.485-19.182-104.923-16.86a8.018 8.018 0 0 0-4.12 14.522c35.953 25.68 54.866 72.859 73.157 118.485 11.17 27.862 21.72 54.179 35.948 76.042C156.802 486.387 199.695 512 256 512s99.199-25.613 134.986-80.604c14.228-21.863 24.778-48.179 35.948-76.042 18.291-45.626 37.205-92.803 73.157-118.485a8.01 8.01 0 0 0 3.054-8.71M228.096 30.727l-.013.033a8.018 8.018 0 0 0 14.939 5.822c1.799-4.617 3.463-8.188 4.962-10.966v8.051a8.017 8.017 0 0 0 16.034 0v-8.051c1.499 2.778 3.163 6.349 4.962 10.966a8.02 8.02 0 0 0 7.472 5.108 8 8 0 0 0 2.908-.549c4.074-1.587 6.109-6.139 4.611-10.225 11.204 11.685 22.292 30.035 32.624 54.351 18.399 43.305 33.358 103.208 42.242 169.009-13.192 7.251-25.818 15.621-37.833 25.053-.12-2.23-.238-4.466-.365-6.678-.252-4.42-4.044-7.794-8.461-7.546a8.017 8.017 0 0 0-7.546 8.461c.354 6.193.68 12.48.978 18.722a301 301 0 0 0-10.996 10.449 292 292 0 0 0-30.595 36.001v-14.33a8.017 8.017 0 0 0-16.034 0v14.331a291 291 0 0 0-30.596-36.002 300 300 0 0 0-10.996-10.45c.298-6.241.624-12.529.978-18.722a8.017 8.017 0 0 0-16.007-.915c-.126 2.213-.245 4.449-.365 6.678-12.016-9.432-24.642-17.801-37.835-25.053 14.424-106.879 43.5-190.946 74.932-223.548M134.452 422.65c-13.37-20.544-23.635-46.152-34.504-73.262-16.267-40.576-33.006-82.328-62.057-111.392 25.712.84 52.051 6.318 77.229 16.147 33.74 13.171 64.332 33.334 90.93 59.932 15.755 15.757 29.424 33.198 40.676 51.874a273 273 0 0 0-8.757 17.077c-10.619-16.194-22.999-31.399-36.933-45.333-30.174-30.174-65.304-53.199-101.594-66.584a8.015 8.015 0 0 0-10.296 4.747 8.016 8.016 0 0 0 4.747 10.296c34.131 12.588 67.259 34.332 95.806 62.879 15.768 15.767 29.42 33.248 40.62 51.982-10.978 28.72-16.707 58.787-16.591 88.764-30.731-9.803-56.113-31.535-79.276-67.127m277.6-73.262c-10.868 27.11-21.134 52.718-34.504 73.262-32.998 50.705-70.485 73.316-121.548 73.316-9.145 0-17.848-.739-26.175-2.221-1.462-64.378 26.167-129.711 76.124-179.67 26.597-26.597 57.19-46.761 90.93-59.932 25.18-9.83 51.515-15.308 77.229-16.147-29.048 29.064-45.788 70.816-62.056 111.392"/><path d="M394.052 283.09a8.02 8.02 0 0 0 10.596 4.033l2.125-.958c4.806-2.172 9.345-4.223 13.927-5.549a8.017 8.017 0 0 0-4.456-15.402c-5.683 1.645-10.965 4.032-16.073 6.34l-2.083.94a8.017 8.017 0 0 0-4.036 10.596M371.597 286.317c-18.479 11.067-35.73 24.56-51.274 40.105a8.016 8.016 0 0 0 5.668 13.685 8 8 0 0 0 5.668-2.348c14.615-14.615 30.823-27.294 48.174-37.686a8.017 8.017 0 0 0 2.759-10.997 8.013 8.013 0 0 0-10.995-2.759M308.332 213.805a8.02 8.02 0 0 0-7.312 8.664c.474 5.597.931 11.326 1.359 17.027a8.017 8.017 0 0 0 15.988-1.2c-.432-5.752-.893-11.531-1.371-17.178a8.016 8.016 0 0 0-8.664-7.313M302.945 162.526a8.017 8.017 0 0 0-7.033 8.892c.651 5.575 1.285 11.297 1.886 17.009a8.018 8.018 0 0 0 15.946-1.677 1491 1491 0 0 0-1.907-17.191 8.016 8.016 0 0 0-8.892-7.033M295.549 111.265a8.017 8.017 0 0 0-6.64 9.189c.884 5.489 1.754 11.199 2.587 16.971a8.02 8.02 0 0 0 9.079 6.791 8.02 8.02 0 0 0 6.791-9.079c-.845-5.86-1.728-11.657-2.626-17.232-.706-4.371-4.818-7.346-9.191-6.64M282.734 86.607a8.02 8.02 0 0 0 7.841 6.391q.81.001 1.637-.169a8.017 8.017 0 0 0 6.222-9.478 538 538 0 0 0-3.889-17.37 8.013 8.013 0 0 0-9.679-5.902 8.017 8.017 0 0 0-5.904 9.679 522 522 0 0 1 3.772 16.849M201.027 246.892q.306.023.608.022a8.02 8.02 0 0 0 7.986-7.417c.428-5.701.885-11.43 1.359-17.027a8.017 8.017 0 0 0-7.312-8.664 8.01 8.01 0 0 0-8.663 7.312c-.478 5.647-.938 11.426-1.371 17.178a8.02 8.02 0 0 0 7.393 8.596M205.391 195.563q.428.044.848.044a8.02 8.02 0 0 0 7.963-7.179c.601-5.712 1.235-11.434 1.886-17.009a8.017 8.017 0 0 0-15.925-1.859c-.658 5.635-1.3 11.42-1.907 17.191a8.02 8.02 0 0 0 7.135 8.812M211.425 144.215a8.02 8.02 0 0 0 9.079-6.791c.833-5.772 1.703-11.482 2.587-16.971a8.017 8.017 0 0 0-6.64-9.189 8.01 8.01 0 0 0-9.19 6.64 1050 1050 0 0 0-2.626 17.232 8.017 8.017 0 0 0 6.79 9.079M219.789 92.829a8 8 0 0 0 1.636.169 8.02 8.02 0 0 0 7.841-6.391 528 528 0 0 1 3.771-16.85 8.017 8.017 0 0 0-5.903-9.679 8.014 8.014 0 0 0-9.679 5.902 543 543 0 0 0-3.889 17.37 8.02 8.02 0 0 0 6.223 9.479M256 298.222a8.017 8.017 0 0 0 8.017-8.017V273.1a8.017 8.017 0 0 0-16.034 0v17.106a8.017 8.017 0 0 0 8.017 8.016M256 246.91a8.017 8.017 0 0 0 8.017-8.017V221.8a8.017 8.017 0 0 0-8.017-8.017 8.017 8.017 0 0 0-8.017 8.017v17.094A8.02 8.02 0 0 0 256 246.91M256 195.604a8.017 8.017 0 0 0 8.017-8.017v-17.099a8.017 8.017 0 0 0-8.017-8.017 8.017 8.017 0 0 0-8.017 8.017v17.099a8.017 8.017 0 0 0 8.017 8.017M256 144.298a8.017 8.017 0 0 0 8.017-8.017v-17.105a8.017 8.017 0 0 0-8.017-8.017 8.017 8.017 0 0 0-8.017 8.017v17.105a8.02 8.02 0 0 0 8.017 8.017M256 92.993a8.017 8.017 0 0 0 8.017-8.017V67.875A8.017 8.017 0 0 0 256 59.858a8.017 8.017 0 0 0-8.017 8.017v17.101A8.02 8.02 0 0 0 256 92.993"/></svg>