<svg xmlns="http://www.w3.org/2000/svg" xml:space="preserve" viewBox="0 0 512.001 512.001"><path d="m239.464 12.733-15.596 20.455c-1.406 1.844-1.12 4.412.545 6.028 24.926 24.197 25.44 55.562 25.44 55.562l15.439-1.147c3.174-20.567 1.933-54.218-18.671-81.021-1.789-2.326-5.377-2.211-7.157.123" style="fill:#becd55"/><path d="M256.001 493.702c20.292 0 40.583 10.145 81.167 10.145 60.875 0 162.332-162.332 162.332-284.082 0-81.167-60.875-142.041-121.749-142.041s-81.167 10.145-121.749 10.145-60.875-10.145-121.749-10.145S12.502 138.599 12.502 219.765c0 121.749 101.458 284.082 172.479 284.082 40.582.001 50.728-10.145 71.02-10.145" style="fill:#ff5050"/><path d="M151.644 196.575c0-33.725 9.026-64.141 23.565-88.862 7.394-12.572-.659-28.54-15.222-29.325-7.744-.417-16.245-.664-25.736-.664-60.875 0-121.749 60.875-121.749 142.041 0 121.749 101.458 284.082 172.479 284.082 40.583 0 50.729-10.145 71.02-10.145 1.598 0 3.197.062 4.807.177 9.925.708 15.523-11.163 8.217-17.917-59.126-54.663-117.381-179.591-117.381-279.387" style="fill:#c84146"/><path d="M467.513 112.854c-24.757-27.507-57.473-43.282-89.763-43.282-34.1 0-55.81 3.147-74.964 5.923-9.969 1.445-19.076 2.762-28.94 3.527 1.474-17.412.125-50.241-24.997-76.505a8.151 8.151 0 0 0-12.155.416l-21.741 26.089a8.153 8.153 0 0 0 1.156 11.574c16.049 12.902 21.793 28.92 23.851 38.56-10.567-.74-20.169-2.128-30.742-3.661-19.156-2.775-40.867-5.922-74.966-5.922-32.29 0-65.007 15.775-89.763 43.282C18.605 141.615 4.35 179.584 4.35 219.766c0 58.147 22.733 129.909 60.811 191.961 38.529 62.789 83.322 100.275 119.82 100.275 24.821 0 38.895-3.676 50.204-6.631 7.519-1.964 13.459-3.516 20.816-3.516 7.569 0 15.649 1.673 25.003 3.611 14.059 2.911 31.554 6.535 56.162 6.535 16.93 0 35.99-9.926 56.653-29.501 18.534-17.559 37.332-42.072 54.36-70.889 37.242-63.022 59.475-134.74 59.475-191.846-.002-40.182-14.257-78.151-40.141-106.911M243.001 20.836c15.855 21.456 15.773 46.329 14.409 58.872l-.79.005c-1.708-10.495-7.094-29.731-24.082-46.32zm191.141 382.479c-32.651 55.256-71.622 92.381-96.976 92.381-22.938 0-38.833-3.292-52.856-6.196-10.232-2.12-19.07-3.949-28.31-3.949-9.452 0-16.974 1.965-24.937 4.045-10.949 2.859-23.357 6.101-46.083 6.101-30.325 0-70.913-35.442-105.923-92.496-36.57-59.596-58.403-128.169-58.403-183.434 0-36.148 12.768-70.243 35.954-96.004 21.668-24.076 49.967-37.884 77.642-37.884 32.925 0 54.017 3.058 72.626 5.755 15.58 2.258 30.295 4.392 49.124 4.392s33.544-2.133 49.124-4.392c18.609-2.698 39.701-5.755 72.626-5.755 27.674 0 55.974 13.809 77.642 37.885 23.186 25.761 35.954 59.855 35.954 96.003.001 54.314-21.384 122.931-57.204 183.548"/><path d="M426.06 121.6c-6.065-4.495-12.475-8.195-19.054-10.995a8.152 8.152 0 1 0-6.386 15.002c5.402 2.299 10.694 5.358 15.731 9.092a8.1 8.1 0 0 0 4.848 1.603 8.153 8.153 0 0 0 4.861-14.702M454.274 152.612a8.153 8.153 0 1 0-13.87 8.573c10.569 17.099 16.156 37.356 16.156 58.581 0 21.624-4.055 46.892-11.728 73.075a8.15 8.15 0 0 0 5.531 10.116 8.1 8.1 0 0 0 2.296.332 8.16 8.16 0 0 0 7.82-5.862c8.22-28.047 12.388-54.175 12.388-77.66 0-24.256-6.429-47.478-18.593-67.155M180.179 460.054c-18.53-5.835-52.728-39.931-82.241-93.805a8.153 8.153 0 0 0-14.301 7.833c28.772 52.523 65.6 93.323 91.644 101.525.815.257 1.64.378 2.451.378a8.154 8.154 0 0 0 2.447-15.931"/></svg>