<svg xmlns="http://www.w3.org/2000/svg" xml:space="preserve" viewBox="0 0 512 512"><path d="M238.898 179.04h34.205v324.944h-34.205z" style="fill:#b9ec69"/><path d="M238.898 179.04H256v324.944h-17.102z" style="fill:#a5dc55"/><path d="M269.176 477.635c2.31-4.62 6.734-7.58 11.762-8.762 15.098-3.55 26.371-17.13 26.371-33.299V124.42c0-4.187-1.51-8.251-4.314-11.359-10.678-11.838-21.34-22.891-21.34-35.52 0-12.641 17.102-12.641 17.102-12.641s-25.653-31.602 8.551-31.602c0 0-8.551-25.281 17.102-25.281s17.102 25.281 17.102 25.281c34.205 0 8.551 31.602 8.551 31.602s17.102 0 17.102 12.641c0 12.628-10.662 23.681-21.338 35.518-2.804 3.108-4.314 7.173-4.314 11.359v311.155c0 37.781-30.628 68.409-68.409 68.409h-17.102z" style="fill:#b9ec69"/><path d="M324.41 435.574V127.733h17.102v307.841c0 37.781-30.628 68.409-68.409 68.409h-17.102l8.551-17.102h8.551c28.336 0 51.307-22.971 51.307-51.307" style="fill:#c3ff73"/><path d="M341.512 124.419v3.314c0 9.446-7.656 17.102-17.102 17.102s-17.102-7.656-17.102-17.102v-3.313c0-4.186-1.51-8.251-4.314-11.359-10.676-11.838-21.339-22.891-21.339-35.52 0-12.641 17.102-12.641 17.102-12.641s-25.653-31.602 8.551-31.602c0 0-8.551-25.281 17.102-25.281s17.102 25.281 17.102 25.281c34.205 0 8.551 31.602 8.551 31.602s17.102 0 17.102 12.641c0 12.628-10.662 23.681-21.339 35.518-2.804 3.109-4.314 7.174-4.314 11.36" style="fill:#8ce16e"/><path d="M324.411 124.419V18.944c0-6.939 8.192-11.456 13.494-6.979 8.419 7.11 3.609 21.333 3.609 21.333 34.205 0 8.551 31.602 8.551 31.602s17.102 0 17.102 12.641c0 12.628-10.662 23.681-21.339 35.518-2.804 3.108-4.314 7.173-4.314 11.359a8.55 8.55 0 0 1-8.551 8.551 8.55 8.55 0 0 1-8.552-8.55" style="fill:#9bf57d"/><path d="M273.103 175.726v3.314c0 9.446-7.656 17.102-17.102 17.102s-17.102-7.656-17.102-17.102v-3.313c0-4.186-1.51-8.251-4.314-11.359-10.677-11.838-21.339-22.893-21.339-35.52 0-12.641 17.102-12.641 17.102-12.641s-25.653-31.602 8.551-31.602c0 0-8.551-25.281 17.102-25.281s17.102 25.281 17.102 25.281c34.205 0 8.551 31.602 8.551 31.602s17.102 0 17.102 12.641c0 12.628-10.662 23.681-21.339 35.518-2.804 3.109-4.314 7.174-4.314 11.36" style="fill:#7dc86e"/><path d="M256.002 175.726V70.251c0-6.939 8.192-11.456 13.494-6.979 8.419 7.11 3.609 21.333 3.609 21.333 34.205 0 8.551 31.602 8.551 31.602s17.102 0 17.102 12.641c0 12.628-10.662 23.681-21.339 35.518-2.804 3.108-4.314 7.173-4.314 11.359a8.55 8.55 0 0 1-8.551 8.551 8.55 8.55 0 0 1-8.552-8.55" style="fill:#8ce16e"/><path d="M242.826 477.635c-2.31-4.62-6.734-7.58-11.762-8.762-15.098-3.55-26.371-17.13-26.371-33.299V124.42c0-4.187 1.51-8.251 4.314-11.359 10.677-11.838 21.339-22.891 21.339-35.52 0-12.641-17.102-12.641-17.102-12.641s25.653-31.602-8.551-31.602c0 0 8.551-25.281-17.102-25.281s-17.102 25.281-17.102 25.281c-34.205 0-8.551 31.602-8.551 31.602s-17.102 0-17.102 12.641c0 12.628 10.662 23.681 21.338 35.518 2.804 3.108 4.314 7.173 4.314 11.359v311.155c0 37.781 30.628 68.409 68.409 68.409h17.102z" style="fill:#c3ff73"/><path d="M187.591 435.574V127.733h-17.102v307.841c0 37.781 30.628 68.409 68.409 68.409H256l-8.551-17.102h-8.551c-28.336 0-51.307-22.971-51.307-51.307" style="fill:#b9ec69"/><path d="M170.489 124.419v3.314c0 9.446 7.656 17.102 17.102 17.102s17.102-7.656 17.102-17.102v-3.313c0-4.186 1.51-8.251 4.314-11.359 10.677-11.838 21.339-22.892 21.339-35.52 0-12.641-17.102-12.641-17.102-12.641s25.653-31.602-8.551-31.602c0 0 8.551-25.281-17.102-25.281s-17.102 25.281-17.102 25.281c-34.205 0-8.551 31.602-8.551 31.602s-17.102 0-17.102 12.641c0 12.628 10.662 23.681 21.339 35.518 2.804 3.109 4.314 7.174 4.314 11.36" style="fill:#9bf57d"/><path d="M187.591 124.419V18.944c0-6.939-8.192-11.456-13.494-6.979-8.419 7.111-3.609 21.333-3.609 21.333-34.205 0-8.551 31.602-8.551 31.602s-17.102 0-17.102 12.641c0 12.628 10.662 23.681 21.339 35.518 2.804 3.108 4.314 7.173 4.314 11.359a8.55 8.55 0 0 0 8.551 8.551 8.55 8.55 0 0 0 8.552-8.55" style="fill:#8ce16e"/><path d="M79.969 97.071c11.085-11.085 29.561 7.39 29.561 7.39s9.801-4.98 15.263.482c10.925 10.925 4.338 41.29 17.994 54.946-13.656-13.656-44.021-7.069-54.946-17.994-5.462-5.462-.482-15.263-.482-15.263s-18.476-18.476-7.39-29.561" style="fill:#9bf57d"/><path d="M79.969 97.071c-11.085 11.087 7.39 29.561 7.39 29.561s-4.981 9.8.481 15.263c10.925 10.925 41.29 4.338 54.946 17.994z" style="fill:#8ce16e"/><path d="M432.032 97.071c11.086 11.085-7.39 29.561-7.39 29.561s4.98 9.801-.482 15.263c-10.925 10.925-41.29 4.338-54.946 17.994 13.656-13.656 7.069-44.021 17.994-54.946 5.462-5.462 15.263-.482 15.263-.482s18.476-18.477 29.561-7.39" style="fill:#9bf57d"/><path d="M432.032 97.071c-11.087-11.085-29.561 7.39-29.561 7.39s-9.8-4.981-15.263.481c-10.925 10.925-4.338 41.29-17.994 54.946z" style="fill:#8ce16e"/><path d="M437.701 91.402c-4.163-4.163-13.389-9.941-28.407-1.851-3.394 1.827-6.357 3.978-8.55 5.751-5.892-1.557-13.609-1.622-19.205 3.973-7.081 7.08-8.574 18.37-10.016 29.288-1.324 10.016-2.693 20.372-7.978 25.658-30.05 30.051-30.05 91.278-30.05 135.985v145.37c0 33.3-27.092 60.392-60.392 60.392h-4.131l7.373-14.746c1.494-2.99 4.668-4.13 6.426-4.543 19.167-4.508 32.553-21.409 32.553-41.103V124.42c0-6.227-2.265-12.168-6.378-16.729l-1.75-1.936c-9.013-9.957-17.526-19.362-17.526-28.215 0-4.39 9.041-4.623 9.086-4.624a8.02 8.02 0 0 0 7.227-4.562 8.03 8.03 0 0 0-.993-8.496c-4.804-5.962-8.419-14.113-7.299-16.453.26-.542 2.584-2.091 9.617-2.091 2.566 0 4.97-1.252 6.479-3.329s1.924-4.773 1.13-7.214c-.828-2.547-1.822-8.794.393-11.843 1.737-2.393 5.908-2.896 9.101-2.896s7.364.502 9.102 2.896c2.216 3.051 1.222 9.296.407 11.802a8.02 8.02 0 0 0 7.595 10.585c7.033 0 9.357 1.549 9.617 2.091 1.12 2.341-2.495 10.491-7.29 16.442-1.938 2.387-2.314 5.673-1.009 8.456a8.06 8.06 0 0 0 7.187 4.613c.091.001 9.132.233 9.132 4.624 0 8.852-8.513 18.257-17.526 28.213l-1.751 1.937c-4.112 4.561-6.377 10.502-6.377 16.728v20.416a8.017 8.017 0 0 0 16.034 0V124.42c0-2.253.799-4.381 2.25-5.99l1.732-1.915c10.653-11.772 21.671-23.943 21.671-38.974 0-8.025-4.408-14.474-12.165-17.921 3.472-6.756 6.182-15.559 2.588-23.107-2.564-5.385-7.508-8.852-14.744-10.361.248-5.063-.513-11.262-4.304-16.546C343.41 5.224 337.016 0 324.41 0s-19.002 5.224-22.145 9.605c-3.791 5.285-4.553 11.484-4.304 16.546-7.237 1.509-12.18 4.976-14.744 10.361-3.595 7.549-.884 16.35 2.588 23.107-2.337 1.039-4.364 2.354-6.064 3.898a21.4 21.4 0 0 0-1.591-2.607c-3.147-4.38-9.541-9.604-22.149-9.604s-19.002 5.224-22.145 9.605a21.4 21.4 0 0 0-1.592 2.607c-1.701-1.545-3.727-2.86-6.065-3.899 3.472-6.756 6.182-15.559 2.588-23.107-2.564-5.385-7.508-8.852-14.744-10.361.248-5.063-.513-11.262-4.304-16.546C206.593 5.224 200.199 0 187.591 0s-19.002 5.224-22.145 9.605c-3.791 5.285-4.553 11.484-4.304 16.546-7.237 1.509-12.18 4.976-14.744 10.361-3.595 7.549-.884 16.35 2.588 23.107-7.757 3.447-12.166 9.897-12.166 17.921 0 15.031 11.017 27.201 21.671 38.973l1.731 1.914c1.452 1.61 2.251 3.737 2.251 5.99v58.811c-3.613-12.6-8.158-23.338-13.933-28.917-.029-.03-.053-.063-.083-.092-5.286-5.286-6.655-15.642-7.978-25.658-1.443-10.918-2.935-22.207-10.016-29.288-5.595-5.595-13.314-5.53-19.205-3.973-2.192-1.772-5.155-3.923-8.55-5.751-15.019-8.086-24.246-2.311-28.407 1.851-4.163 4.163-9.939 13.389-1.851 28.407 1.827 3.394 3.978 6.357 5.751 8.55-1.558 5.891-1.622 13.609 3.973 19.205 7.08 7.081 18.37 8.574 29.288 10.016 10.016 1.324 20.372 2.693 25.658 7.978.035.035.075.065.11.099.036.035.068.074.106.109 11.948 11.083 21.878 79.507 25.137 124.733v145.074c0 42.141 34.285 76.426 76.426 76.426h34.205c42.141 0 76.426-34.285 76.426-76.426v-145.37c0-41.904 0-99.294 25.354-124.647 5.286-5.286 15.642-6.655 25.658-7.978 10.918-1.443 22.207-2.935 29.288-10.016 5.595-5.595 5.531-13.314 3.973-19.205 1.772-2.192 3.923-5.155 5.751-8.55 8.086-15.014 2.31-24.241-1.853-28.403m-324.14 50.282c-8.267-1.092-16.816-2.222-20.051-5.458-.531-.531-.091-3.733.996-5.962a8.04 8.04 0 0 0-1.464-9.287c-.04-.041-3.998-4.064-6.597-8.997-3.467-6.58-1.535-8.514-.807-9.242.408-.408 1.196-1.196 2.973-1.196 1.388 0 3.382.482 6.269 2.003 4.933 2.6 8.956 6.558 8.983 6.583 2.453 2.454 6.154 3.077 9.247 1.505 2.283-1.115 5.484-1.556 6.016-1.024 3.236 3.236 4.365 11.785 5.458 20.051.562 4.256 1.151 8.713 2.078 13.099-4.389-.924-8.844-1.513-13.101-2.075m117.321 318.82c-10.797-3.451-18.171-13.419-18.171-24.93V150.537c4.003 6.026 9.136 11.7 14.19 17.284l1.731 1.915c1.452 1.61 2.251 3.737 2.251 5.99v284.778zm8.016 35.463c-33.3 0-60.392-27.092-60.392-60.392V124.419c0-6.227-2.265-12.168-6.378-16.729l-1.75-1.936c-9.013-9.957-17.526-19.362-17.526-28.213 0-4.39 9.041-4.623 9.086-4.624a8.02 8.02 0 0 0 7.227-4.562 8.03 8.03 0 0 0-.993-8.496c-4.804-5.962-8.419-14.113-7.299-16.453.26-.542 2.584-2.091 9.617-2.091 2.566 0 4.97-1.252 6.48-3.329a8.06 8.06 0 0 0 1.129-7.214c-.828-2.547-1.822-8.794.393-11.843 1.738-2.393 5.909-2.896 9.101-2.896s7.364.502 9.102 2.896c2.216 3.051 1.222 9.296.407 11.802a8.02 8.02 0 0 0 7.595 10.585c7.033 0 9.357 1.549 9.617 2.091 1.12 2.341-2.495 10.491-7.29 16.442-1.938 2.387-2.314 5.673-1.009 8.456a8.06 8.06 0 0 0 7.187 4.613c.091.001 9.132.233 9.132 4.624 0 8.852-8.513 18.258-17.526 28.215l-1.751 1.937c-4.112 4.561-6.377 10.502-6.377 16.728v311.153c0 19.694 13.386 36.596 32.552 41.103 1.759.414 4.932 1.554 6.427 4.543l7.372 14.746zm23.107-21.917-6.004 12.008-6.004-12.008a23 23 0 0 0-3.082-4.637V175.726c0-6.227-2.265-12.168-6.378-16.729l-1.75-1.936c-9.013-9.957-17.526-19.362-17.526-28.213 0-4.39 9.041-4.623 9.086-4.624a8.016 8.016 0 0 0 6.223-13.07c-1.242-1.53-4.636-6.312-6.389-10.892 1.657-2.403 3.14-4.86 4.376-7.389a35 35 0 0 1 4.34-.251 8.018 8.018 0 0 0 7.595-10.585c-.512-1.515-2.053-8.373.39-11.778 1.731-2.412 5.913-2.918 9.118-2.918 3.193 0 7.364.502 9.102 2.896 2.216 3.051 1.222 9.296.407 11.802a8.02 8.02 0 0 0 7.595 10.585c1.612 0 3.048.092 4.339.253 1.237 2.53 2.721 4.99 4.38 7.394-1.742 4.551-5.094 9.276-6.392 10.887-1.938 2.387-2.314 5.673-1.009 8.456a8.06 8.06 0 0 0 7.187 4.613c.091.001 9.132.233 9.132 4.624 0 8.852-8.513 18.258-17.526 28.215l-1.751 1.937c-4.113 4.561-6.377 10.502-6.377 16.728v259.845a8.017 8.017 0 0 0 16.034 0V175.727c0-2.253.8-4.381 2.25-5.99l1.732-1.915c5.054-5.583 10.187-11.258 14.19-17.283v285.035c0 12.216-8.302 22.7-20.19 25.495-7.641 1.797-13.873 6.528-17.098 12.981m163.552-362.07c-2.6 4.933-6.558 8.956-6.583 8.983-2.453 2.453-3.077 6.153-1.505 9.247 1.115 2.283 1.555 5.484 1.024 6.016-3.236 3.236-11.785 4.365-20.051 5.458-4.256.562-8.713 1.151-13.099 2.078.927-4.387 1.516-8.842 2.078-13.099 1.092-8.267 2.222-16.816 5.458-20.051.153-.153.526-.224 1.033-.224 1.258 0 3.34.446 4.93 1.222a8.04 8.04 0 0 0 9.287-1.464c.041-.04 4.064-3.998 8.997-6.597 6.579-3.466 8.514-1.534 9.242-.807.723.725 2.657 2.657-.811 9.238"/></svg>