<svg xmlns="http://www.w3.org/2000/svg" xml:space="preserve" viewBox="0 0 512 512"><path d="M252.634 14.319c-5.12 10.871-14.466 36.218-16.328 79.209h39.588c-2.004-42.995-11.392-68.343-16.523-79.212-1.358-2.876-5.383-2.873-6.737.003" style="fill:#7dc86e"/><path d="M273.102 127.733h-42.756s-7.571-42.378-58.337-71.307c-3.525-2.008-2.634-7.357 1.379-7.956 22.741-3.396 73.645-.989 99.714 79.263" style="fill:#8ce16e"/><path d="M238.898 127.733h42.756s7.571-42.378 58.337-71.307c3.525-2.008 2.634-7.357-1.379-7.956-22.74-3.396-73.645-.989-99.714 79.263" style="fill:#9bf57d"/><path d="M305.583 176.022c-10.07-5.306-17.211-15.22-18.274-26.552-.601-6.404-.548-12.695.255-18.704.813-6.08-3.559-11.586-9.694-11.586h-43.741c-6.134 0-10.508 5.505-9.694 11.586.804 6.007.856 12.3.255 18.704-1.062 11.332-8.204 21.246-18.274 26.552-69.756 36.753-121.44 100.896-121.44 173.226 0 94.454 94.561 154.735 171.023 154.735s171.023-60.281 171.023-154.735c.001-72.33-51.683-136.473-121.439-173.226" style="fill:#c36987"/><path d="M298.33 194.228c-15.862-8.83-26.319-24.392-27.973-41.63a123 123 0 0 1-.253-3.027c-.536-7.48-6.605-13.287-14.103-13.287s-13.567 5.807-14.103 13.287a128 128 0 0 1-.253 3.027c-1.654 17.237-12.112 32.8-27.973 41.63-68.834 38.316-111.592 101.697-111.592 165.409 0 39.641 17.934 76.7 50.497 104.35 29.497 25.045 68.16 39.998 103.424 39.998s73.927-14.953 103.424-39.998c32.563-27.65 50.497-64.709 50.497-104.35-.001-63.713-42.76-127.094-111.592-165.409" style="fill:#fae9d9"/><path d="M332.96 390.374c0-80.368-76.966-134.376-76.962-134.374 0 0-76.962 54.007-76.962 134.375 0 52.934 21.46 92.161 46.21 110.532 10.393 2.014 20.73 3.075 30.754 3.075 10.022 0 20.356-1.061 30.746-3.073 24.752-18.37 46.214-57.598 46.214-110.535" style="fill:#fff7ef"/><path d="M255.996 503.977c15.293.001 34.206-29.469 34.206-75.647 0-34.737-16.665-61.522-26.731-74.531-3.855-4.983-11.091-4.983-14.946 0-10.066 13.009-26.733 39.795-26.733 74.535-.001 46.178 18.912 75.648 34.204 75.643" style="fill:#ecf5c3"/><path d="M255.996 503.976c7.648.001 17.107-18.009 17.107-46.228 0-21.228-8.334-37.595-13.368-45.544-1.928-3.045-5.546-3.045-7.475 0-5.033 7.949-13.369 24.318-13.369 45.548 0 28.218 9.458 46.228 17.105 46.224" style="fill:#fff7ef"/><path d="M383.733 349.232c0-.175-.009-.351-.016-.522v-.024c-.249-73.65-50.742-113.137-87.611-141.968-15.284-11.959-28.427-22.243-32.934-31.264-1.253-2.498-4.001-4.051-7.171-4.051s-5.918 1.553-7.171 4.052c-4.526 9.048-17.698 19.349-32.95 31.276-36.974 28.914-87.611 68.512-87.619 142.51 0 59.615 27.188 114.798 70.957 144.033 18.977 6.658 38.611 10.176 56.784 10.176 18.182 0 37.825-3.522 56.81-10.185 43.746-29.235 70.921-84.417 70.921-144.033M256.009 495.95c-.111 0-.229.004-.34.007-24.966-.134-52.451-14.779-73.543-39.174-24.392-28.212-37.825-66.403-37.825-107.535 0-66.19 45.166-101.511 81.458-129.891 11.555-9.039 22.426-17.543 29.841-25.921l.401-.452.401.452c7.433 8.394 18.313 16.901 29.833 25.908 36.291 28.387 81.45 63.709 81.45 129.895 0 .167.009.334.016.496-.253 94.157-66.202 146.215-111.692 146.215" style="fill:#dea9b0"/><path d="M399.185 244.908c-21.874-30.113-52.677-56.242-89.078-75.562-8.429-4.474-13.946-11.959-14.757-20.02-1.038-10.309-.21-19.598 2.461-27.608a8.02 8.02 0 0 0-1.102-7.223 8 8 0 0 0-3.924-2.892c5.882-12.949 21.473-36.762 60.436-53.461a8.018 8.018 0 0 0-.623-14.974c-.871-.29-21.658-7.056-47.068-1.281-9.058 2.059-17.146 5.339-24.38 9.492-7.679-29.597-17.8-46.694-18.276-47.487a8.016 8.016 0 0 0-13.748 0c-.472.787-10.604 17.892-18.287 47.519-12.727-7.279-25.258-10.288-35.414-11.338-20.176-2.086-35.386 2.882-36.024 3.096a8.016 8.016 0 0 0-.623 14.974c38.963 16.698 54.554 40.512 60.436 53.461a8 8 0 0 0-3.924 2.892 8.02 8.02 0 0 0-1.102 7.223c2.67 8.01 3.497 17.299 2.461 27.608-.811 8.063-6.328 15.547-14.757 20.02-36.401 19.32-67.205 45.449-89.078 75.562-23.455 32.29-35.854 68.371-35.854 104.339 0 45.524 21.241 87.793 59.811 119.018C170.595 495.651 215.167 512 256 512s85.405-16.349 119.229-43.734c38.57-31.226 59.811-73.494 59.811-119.018 0-35.968-12.399-72.049-35.855-104.34m-75.552-189.37c-31.891 20.08-43.842 44.262-47.929 55.627H250.78c20.119-44.98 51.329-54.854 72.853-55.627M256 26.53c3.484 8.366 7.682 20.172 11.096 34.838a102 102 0 0 0-11.05 11.146 101 101 0 0 0-11.137-11.174c3.412-14.654 7.61-26.449 11.091-34.81m-67.613 29.02c16.714.598 39.249 6.665 57.844 30.29-4.561 7.154-8.296 14.54-11.348 21.694-5.165-12.358-17.692-33.842-46.496-51.984m101.12 424.687c5.329-13.094 8.714-29.839 8.714-49.55 0-20.122-5.43-39.943-16.139-58.915a8.017 8.017 0 0 0-13.962 7.882c9.335 16.536 14.069 33.706 14.069 51.032 0 42.237-17.301 65.278-26.19 65.278-3.789 0-10.123-4.81-15.729-15.56-6.745-12.933-10.459-30.59-10.459-49.719 0-43.935 31.275-74.394 31.712-74.814a8.016 8.016 0 0 0 .297-11.324 8.016 8.016 0 0 0-11.333-.307c-1.499 1.421-36.71 35.362-36.71 86.445 0 18.296 3.121 35.599 8.857 49.685-4.05-3.779-7.934-8.174-11.539-13.123-15.503-21.286-24.042-50.178-24.042-81.355 0-61.802 52.967-107.535 68.944-119.919 15.986 12.401 68.948 58.155 68.948 119.919 0 31.176-8.538 60.07-24.042 81.355-3.562 4.892-7.399 9.241-11.396 12.99m75.633-24.432c-9.717 7.868-20.389 14.743-31.607 20.477a152 152 0 0 0 8.46-9.003c26.916-31.129 41.739-73.047 41.739-118.03 0-33.247-10.187-62.562-31.14-89.619a8.016 8.016 0 0 0-11.247-1.429 8.015 8.015 0 0 0-1.429 11.247c18.695 24.14 27.783 50.242 27.783 79.801 0 41.133-13.436 79.327-37.835 107.545a136 136 0 0 1-9.455 9.883c13.319-22.622 20.568-50.833 20.568-80.782 0-80.76-77.178-134.28-80.463-136.518a8.02 8.02 0 0 0-9.017-.011c-.823.558-20.378 13.938-40.104 37.273-26.413 31.249-40.375 65.571-40.375 99.256 0 29.949 7.249 58.161 20.57 80.783-.2-.189-.401-.373-.6-.563-22.071-21.131-37.571-50.718-43.645-83.312a8.016 8.016 0 0 0-9.35-6.412 8.016 8.016 0 0 0-6.412 9.35c7.109 38.147 24.791 68.882 46.757 90.474-11.171-5.721-21.798-12.573-31.479-20.411-34.735-28.122-53.865-65.964-53.865-106.556 0-32.561 11.34-65.382 32.794-94.917 20.448-28.149 49.365-52.641 83.623-70.824 13.174-6.992 21.844-19.171 23.193-32.578.847-8.409.645-16.351-.595-23.732h47.984c-1.24 7.381-1.441 15.323-.595 23.732 1.349 13.407 10.02 25.586 23.193 32.578 34.258 18.183 63.175 42.673 83.623 70.824 21.454 29.535 32.794 62.356 32.794 94.917-.002 40.592-19.132 78.434-53.868 106.557"/><path d="M317.832 224.199a8.014 8.014 0 0 0-11.299.929 8.015 8.015 0 0 0 .929 11.299 301 301 0 0 1 11.45 10.191 8 8 0 0 0 5.488 2.174 8.017 8.017 0 0 0 5.491-13.86 317 317 0 0 0-12.059-10.733M295.14 205.96c-14.119-11.045-27.455-21.476-31.968-30.505a8.016 8.016 0 0 0-14.34 0c-4.519 9.036-17.694 19.341-32.95 31.272-36.975 28.918-87.614 68.521-87.614 142.522a8.017 8.017 0 0 0 16.034 0c0-29.242 8.886-55.081 27.163-78.995 16.025-20.966 36.356-36.867 54.294-50.896 11.976-9.367 22.787-17.822 30.226-26.355 7.272 8.374 17.714 16.541 29.276 25.586a8.018 8.018 0 0 0 9.879-12.629"/></svg>