<svg xmlns="http://www.w3.org/2000/svg" xml:space="preserve" viewBox="0 0 511.999 511.999"><path d="M223.974 27.482c5.329-2.91 12.175-3.043 17.946 1.015l22.483 15.808 25.768-9.559c13.225-4.906 26.336 7.482 22.186 20.964l-8.086 26.267 17.054 21.552c8.753 11.062 1.022 27.359-13.082 27.578l-27.48.426.128-.069-15.227 22.88c-7.816 11.743-25.705 9.427-30.271-3.92l-8.897-26.004-26.466-7.412c-13.583-3.804-16.909-21.534-5.627-30.002l21.982-16.497-1.129-27.461c-.29-7.049 3.526-12.734 8.857-15.641" style="fill:#fff082"/><path d="m198.607 83.851-.641.481c.544-.16.89-.321.641-.481M268.961 123.318c-7.816 11.744-25.705 9.427-30.271-3.92l-4.827-14.108a21.19 21.19 0 0 0-16.461-14.025l-14.379-2.472c-7.888-1.356-15.747 4.589-15.384 12.584.311 6.867 4.699 13.475 12.389 15.63l26.466 7.412 8.897 26.004c4.566 13.347 22.455 15.663 30.271 3.92l15.182-22.811 27.399-.425c5.927-.092 10.701-3.015 13.595-7.196 5.591-8.075-.253-19.254-10.015-20.336l-17.405-1.929a16.98 16.98 0 0 0-16 7.466zM317.827 99.109l-.261-.33c-.153.061-.006.184.261.33M425.986 290.163l-58.733-8.338c-7.738-1.099-14.44-5.899-17.936-12.847l-14.384-28.588a18.47 18.47 0 0 1 1.165-18.604l13.619-20.302a22.56 22.56 0 0 1 14.344-9.547l41.893-8.327a50.1 50.1 0 0 1 21.847.516l23.109 5.741c9.636 2.394 17.161 9.871 19.569 19.448l5.388 21.422a26.6 26.6 0 0 1-4.576 22.52l-19.986 26.483c-5.891 7.807-15.598 11.803-25.319 10.423" style="fill:#ffdc64"/><path d="M432.9 245.31c-12.001 2.71-5.344 24.05-29.929 20.843s-3.056-18.313-5.879-26.188c-5.077-14.163-23.516 9.62-29.394 8.017-15.164-4.136-6.681-17.102-1.871-27.257 2.364-4.991.152-10.833-6.857-13.825-5.871-2.507-12.751-.317-16.289 4.997l-6.624 9.947a18.48 18.48 0 0 0-1.127 18.545l14.385 28.588a23.75 23.75 0 0 0 17.876 12.838l58.793 8.347a27.01 27.01 0 0 0 25.356-10.472l2.662-3.526c3.686-4.884 3.668-11.581.061-16.524-6.048-8.285-15.175-15.682-21.163-14.33" style="fill:#ffc850"/><ellipse cx="404.755" cy="219.645" rx="6.057" ry="6.186" style="fill:#ffc850"/><circle cx="444.689" cy="220.522" r="9.205" style="fill:#ffc850"/><path d="m212.392 264.311-40.01 30.061c-5.271 3.96-12.133 5.094-18.362 3.036l-25.634-8.473a15.58 15.58 0 0 1-10.402-11.792l-3.987-20.235a19.03 19.03 0 0 1 2.861-14.251l20.023-29.958a42.25 42.25 0 0 1 13.341-12.724l17.21-10.36c7.177-4.32 16.125-4.348 23.275-.073l15.993 9.563a22.44 22.44 0 0 1 10.704 16.164l3.876 27.721c1.141 8.171-2.265 16.344-8.888 21.321" style="fill:#ffdc64"/><path d="M198.796 274.525c5.502-4.133 3.845-12.763-2.774-14.646-5.545-1.578-10.704-2.563-14.31-1.743-11.758 2.672-17.637 28.326-26.722 21.378-9.184-7.024-1.069-13.896-13.361-14.964-12.292-1.069-2.672-27.257 1.603-40.083 2.542-7.624-3.207-15.499-7.772-9.642l-18.602 27.832a19.06 19.06 0 0 0-2.855 14.282l3.981 20.203a15.6 15.6 0 0 0 10.408 11.794l25.63 8.472a20.03 20.03 0 0 0 18.321-3.005z" style="fill:#ffc850"/><circle cx="188.391" cy="241.034" r="8.017" style="fill:#ffc850"/><circle cx="158.997" cy="226.337" r="4.81" style="fill:#ffc850"/><path d="M281.653 307.306c6.071-.001 12.145 3.161 15.267 9.487l12.163 24.645 27.198 3.952c13.96 2.029 19.534 19.183 9.433 29.03l-19.68 19.184 4.646 27.088c2.385 13.903-12.209 24.506-24.694 17.941l-24.328-12.789h.145l-24.327 12.789c-12.486 6.564-27.079-4.038-24.695-17.941l4.646-27.088-19.68-19.184c-10.101-9.847-4.528-27.001 9.433-29.03l27.198-3.952 12.163-24.645c3.122-6.327 9.195-9.489 15.267-9.487" style="fill:#fff082"/><path d="m232.383 344.633-.794.115c.555.123.935.146.794-.115M275.234 412.98c-12.486 6.564-27.079-4.038-24.694-17.941l2.52-14.696a21.2 21.2 0 0 0-7.73-20.197l-11.438-9.058c-6.274-4.969-16.02-3.516-19.533 3.677-3.016 6.176-2.33 14.079 3.388 19.655l19.681 19.183-4.646 27.089c-2.385 13.903 12.209 24.506 24.694 17.941l24.254-12.752 24.254 12.752c5.246 2.759 10.837 2.479 15.38.196 8.777-4.41 9-17.022.949-22.649l-14.354-10.032a16.98 16.98 0 0 0-17.622-1.111zM329.726 415.137l-.071-.415c-.163-.019-.093.159.071.415" style="fill:#ffdc64"/><path d="M84.977 367.163c-28.336 0-51.307 22.97-51.307 51.307 0 28.336 22.97 51.307 51.307 51.307s51.307-22.97 51.307-51.307c0-28.336-22.97-51.307-51.307-51.307m0 76.96c-14.168 0-25.653-11.485-25.653-25.653s11.485-25.653 25.653-25.653 25.653 11.485 25.653 25.653c.001 14.168-11.484 25.653-25.653 25.653" style="fill:#faebc8"/><path d="M86.145 455.655c-18.904-4.191-34.162-19.447-38.353-38.353-1.402-6.328-1.627-12.508-.855-18.374.657-4.994-6.255-6.819-8.403-2.263-4.644 9.852-6.24 21.421-3.566 33.509 4.179 18.886 19.42 34.126 38.306 38.306 11.89 2.631 23.278 1.13 33.023-3.34 4.664-2.139 2.786-9.177-2.308-8.562-5.708.69-11.707.438-17.844-.923" style="fill:#f5dcb4"/><path d="M435.572 8.017c-28.336 0-51.307 22.97-51.307 51.307s22.97 51.307 51.307 51.307c28.336 0 51.307-22.97 51.307-51.307s-22.97-51.307-51.307-51.307m0 76.96c-14.168 0-25.653-11.485-25.653-25.653s11.485-25.653 25.653-25.653 25.653 11.485 25.653 25.653-11.485 25.653-25.653 25.653" style="fill:#faebc8"/><path d="M436.74 96.509c-18.904-4.191-34.162-19.447-38.353-38.353-1.402-6.328-1.627-12.508-.855-18.374.657-4.994-6.255-6.819-8.403-2.263-4.644 9.852-6.24 21.42-3.566 33.509 4.179 18.886 19.42 34.126 38.306 38.306 11.89 2.631 23.278 1.13 33.023-3.34 4.664-2.139 2.785-9.177-2.308-8.562-5.708.69-11.707.438-17.844-.923" style="fill:#f5dcb4"/><path d="M501.416 465.39c3.848-3.848 3.318-10.367-1.26-13.348-23.031-14.993-42.957-34.918-57.95-57.95-2.98-4.578-9.5-5.108-13.348-1.26l-36.026 36.026c-3.848 3.848-3.318 10.367 1.26 13.348 23.031 14.993 42.957 34.918 57.95 57.95 2.98 4.578 9.5 5.108 13.348 1.26z" style="fill:#e1be91"/><path d="M417.905 442.258c-7.019-3.96-8.876-13.151-4.05-18.806l18.009-21.105a4.433 4.433 0 0 0-.77-6.467 4.436 4.436 0 0 0-5.739.454l-32.523 32.523c-3.916 3.916-3.228 10.419 1.411 13.446 22.918 14.948 42.753 34.784 57.702 57.702 3.026 4.639 9.529 5.327 13.446 1.411 7.764-7.764 7.027-20.468-1.438-27.465-14.407-11.909-29.849-22.554-46.048-31.693" style="fill:#d2aa7d"/><path d="M83.141 70.439c-3.848-3.848-10.367-3.318-13.348 1.26-14.993 23.031-34.918 42.957-57.95 57.95-4.578 2.98-5.108 9.5-1.26 13.348l36.026 36.026c3.848 3.848 10.367 3.318 13.348-1.26 14.993-23.031 34.918-42.957 57.95-57.95 4.578-2.98 5.108-9.5 1.26-13.348z" style="fill:#e1be91"/><path d="M60.009 153.951c-3.96 7.019-13.151 8.876-18.806 4.05l-21.105-18.009a4.433 4.433 0 0 0-6.467.77 4.436 4.436 0 0 0 .454 5.739l32.523 32.523c3.916 3.916 10.42 3.228 13.446-1.411 14.948-22.918 34.784-42.753 57.702-57.702 4.639-3.026 5.327-9.529 1.411-13.446-7.764-7.764-20.468-7.027-27.465 1.438-11.909 14.407-22.553 29.85-31.693 46.048" style="fill:#d2aa7d"/><path d="M84.977 359.147c-32.711 0-59.323 26.612-59.323 59.323s26.612 59.323 59.323 59.323S144.3 451.181 144.3 418.47s-26.611-59.323-59.323-59.323m0 102.613c-23.87 0-43.29-19.42-43.29-43.29s19.42-43.29 43.29-43.29 43.29 19.42 43.29 43.29-19.419 43.29-43.29 43.29"/><path d="M103.805 420.089a8.017 8.017 0 0 0-10.955 2.921 9.13 9.13 0 0 1-7.872 4.545c-5.01 0-9.086-4.076-9.086-9.086s4.076-9.086 9.086-9.086a8.017 8.017 0 0 0 0-16.034c-13.851 0-25.119 11.268-25.119 25.119s11.268 25.119 25.119 25.119c8.935 0 17.268-4.807 21.749-12.544a8.017 8.017 0 0 0-2.922-10.954M337.58 337.457l-27.198-3.952a8.016 8.016 0 1 0-2.306 15.866l27.198 3.952c3.469.505 6.185 2.795 7.267 6.127 1.083 3.333.231 6.783-2.279 9.229l-19.68 19.184a8.02 8.02 0 0 0-2.306 7.096l4.646 27.088c.592 3.454-.746 6.746-3.582 8.804-2.835 2.061-6.381 2.316-9.481.685l-24.327-12.789a8.02 8.02 0 0 0-7.461 0l-24.326 12.789c-3.102 1.631-6.646 1.376-9.482-.685s-4.174-5.351-3.582-8.804l4.646-27.088a8.02 8.02 0 0 0-2.306-7.096l-19.68-19.182c-2.51-2.447-3.362-5.896-2.278-9.229 1.083-3.333 3.8-5.623 7.267-6.128l27.198-3.952a8.02 8.02 0 0 0 6.036-4.386l12.163-24.646c1.551-3.143 4.568-5.018 8.072-5.018h.004a8.017 8.017 0 0 0 .003-16.033h-.006c-9.6 0-18.202 5.348-22.45 13.956l-10.298 20.866-23.027 3.346c-9.5 1.381-17.244 7.91-20.211 17.039s-.539 18.963 6.335 25.664l16.663 16.242-3.934 22.934c-1.623 9.462 2.193 18.844 9.96 24.487s17.869 6.374 26.366 1.906l20.596-10.828 20.596 10.828a25.06 25.06 0 0 0 11.674 2.902c5.169 0 10.304-1.62 14.693-4.809 7.767-5.643 11.582-15.025 9.96-24.487l-3.933-22.934 16.662-16.242c6.875-6.701 9.303-16.535 6.336-25.664-2.965-9.128-10.709-15.657-20.208-17.038M202.161 122.619l20.593 6.402 6.402 20.593c2.729 8.781 10.067 15.129 19.149 16.568 1.279.202 2.556.301 3.82.301 7.708 0 14.949-3.692 19.51-10.141l12.451-17.608 21.564.276c9.188.084 17.5-4.9 21.674-13.093s3.351-17.86-2.148-25.23l-15.419-20.662a8.015 8.015 0 0 0-11.219-1.63 8.015 8.015 0 0 0-1.63 11.219l15.419 20.662c1.85 2.48 2.116 5.605.712 8.362s-4.106 4.397-7.184 4.339l-25.777-.329a8.06 8.06 0 0 0-6.647 3.387l-14.885 21.049c-1.786 2.526-4.679 3.745-7.732 3.261-3.056-.484-5.428-2.536-6.346-5.491l-7.652-24.619a8.02 8.02 0 0 0-5.276-5.276l-24.619-7.652c-2.954-.918-5.007-3.29-5.491-6.346s.735-5.946 3.261-7.732l21.049-14.885a8.02 8.02 0 0 0 3.387-6.647l-.329-25.777c-.04-3.093 1.582-5.778 4.339-7.183 2.756-1.405 5.882-1.139 8.362.712l20.662 15.419a8.01 8.01 0 0 0 7.369 1.167l24.414-8.28c2.93-.994 5.986-.28 8.174 1.909a8.016 8.016 0 0 0 11.337.003 8.016 8.016 0 0 0 .003-11.337c-6.502-6.506-15.951-8.715-24.663-5.758l-20.422 6.925L251.086 26.6c-7.371-5.5-17.038-6.322-25.23-2.147s-13.209 12.479-13.092 21.674l.276 21.564-17.608 12.451c-7.507 5.309-11.278 14.249-9.839 23.332s7.787 16.416 16.568 19.145M511.907 457.432c-.521-4.982-3.21-9.396-7.377-12.107-13.825-9-26.482-19.839-37.622-32.212a8.017 8.017 0 1 0-11.916 10.728c12.073 13.41 25.798 25.161 40.792 34.922.053.035.153.099.178.338a.76.76 0 0 1-.213.622l-36.026 36.026a.75.75 0 0 1-.622.213c-.238-.025-.304-.125-.338-.178-15.554-23.893-36.404-44.743-60.296-60.295-.053-.035-.153-.099-.178-.339a.76.76 0 0 1 .213-.622l36.026-36.026a.77.77 0 0 1 .622-.213c.239.025.304.125.339.178a8.016 8.016 0 0 0 11.092 2.345 8.016 8.016 0 0 0 2.345-11.092c-2.713-4.168-7.126-6.858-12.108-7.379a16.71 16.71 0 0 0-13.627 4.822l-36.026 36.026a16.73 16.73 0 0 0-4.822 13.627c.521 4.982 3.21 9.396 7.377 12.108 22.033 14.342 41.261 33.571 55.605 55.605 2.713 4.168 7.126 6.857 12.108 7.377q.89.093 1.774.093c4.436 0 8.679-1.741 11.852-4.915l36.026-36.026a16.73 16.73 0 0 0 4.822-13.626M52.792 189.606q.883 0 1.774-.092c4.982-.521 9.396-3.21 12.108-7.377 14.343-22.034 33.572-41.262 55.605-55.605 4.168-2.713 6.858-7.126 7.379-12.108a16.73 16.73 0 0 0-4.822-13.626L88.81 64.771a16.73 16.73 0 0 0-13.627-4.822c-4.982.521-9.396 3.21-12.108 7.377a8.017 8.017 0 0 0 13.437 8.747c.035-.053.099-.153.338-.179a.76.76 0 0 1 .623.213l36.026 36.026a.76.76 0 0 1 .213.622c-.025.239-.125.304-.179.339-23.892 15.553-44.741 36.403-60.295 60.296-.035.053-.099.154-.339.179a.75.75 0 0 1-.622-.213L16.251 137.33a.76.76 0 0 1-.213-.623c.025-.238.125-.304.179-.338 14.87-9.681 28.498-21.322 40.502-34.602a8.016 8.016 0 0 0-.571-11.323 8.016 8.016 0 0 0-11.323.571C33.749 103.268 21.18 114.007 7.47 122.932 3.302 125.645.613 130.058.093 135.04a16.73 16.73 0 0 0 4.822 13.627l36.026 36.026a16.7 16.7 0 0 0 11.851 4.913M424.858 298.099c1.649.234 3.299.35 4.937.35 10.881 0 21.259-5.07 27.909-13.879l19.987-26.484c6.35-8.415 8.52-19.097 5.952-29.305l-5.389-21.422c-3.138-12.474-12.875-22.158-25.411-25.273l-23.108-5.741a58.5 58.5 0 0 0-25.343-.6l-41.894 8.327c-8.003 1.591-14.906 6.188-19.439 12.944l-13.619 20.302a26.54 26.54 0 0 0-1.669 26.673l14.385 28.588c4.674 9.291 13.635 15.714 23.97 17.181zm-68.38-32.725-14.385-28.59a10.48 10.48 0 0 1 .662-10.534l13.619-20.302c2.152-3.208 5.436-5.393 9.249-6.15l41.894-8.327a42 42 0 0 1 8.192-.802c3.424 0 6.849.413 10.16 1.236l23.109 5.741c6.777 1.684 12.037 6.904 13.728 13.624l5.389 21.422c1.379 5.478.212 11.214-3.2 15.735l-19.986 26.483c-4.138 5.483-10.954 8.283-17.795 7.315l-58.733-8.337c-5.139-.73-9.588-3.912-11.903-8.514M229.218 241.879l-3.876-27.719c-1.284-9.186-6.579-17.18-14.529-21.935l-15.993-9.563c-9.711-5.807-21.79-5.775-31.524.084l-17.209 10.36a50.6 50.6 0 0 0-15.872 15.139l-20.023 29.957c-4.012 6.002-5.455 13.195-4.062 20.256l3.987 20.236a23.65 23.65 0 0 0 15.752 17.854l25.634 8.473a28 28 0 0 0 8.78 1.413 28.17 28.17 0 0 0 16.914-5.651l40.01-30.062c8.955-6.73 13.557-17.781 12.011-28.842m-21.641 16.022-40.01 30.061c-3.171 2.383-7.294 3.071-11.031 1.833l-25.635-8.473a7.59 7.59 0 0 1-5.054-5.73l-3.987-20.236a11.1 11.1 0 0 1 1.661-8.246l20.023-29.957a34.45 34.45 0 0 1 10.811-10.31l17.21-10.361a14.7 14.7 0 0 1 7.583-2.115c2.578 0 5.151.685 7.443 2.055l15.992 9.563a14.36 14.36 0 0 1 6.879 10.394l3.876 27.721c.741 5.286-1.468 10.575-5.761 13.801M435.572 118.647c32.711 0 59.323-26.612 59.323-59.323S468.284.001 435.572.001s-59.323 26.612-59.323 59.323 26.612 59.323 59.323 59.323m0-102.613c23.87 0 43.29 19.42 43.29 43.29s-19.42 43.29-43.29 43.29-43.29-19.42-43.29-43.29 19.421-43.29 43.29-43.29"/><path d="M435.572 84.443c8.935 0 17.268-4.807 21.749-12.544a8.018 8.018 0 0 0-13.876-8.034 9.13 9.13 0 0 1-7.872 4.545c-5.01 0-9.086-4.076-9.086-9.086s4.076-9.086 9.086-9.086a8.017 8.017 0 0 0 0-16.034c-13.851 0-25.119 11.268-25.119 25.119s11.268 25.12 25.118 25.12"/></svg>