<svg xmlns="http://www.w3.org/2000/svg" xml:space="preserve" viewBox="0 0 512.001 512.001"><path d="M230.347 271.499v104.417c0 5.102-7.116 6.151-8.683 1.296-14.163-43.897-37.848-91.005-57.062-122.899l-32.131 8.601c32.692 55.258 69.697 136.575 80.014 233.397.463 4.344 4.069 7.673 8.438 7.673h69.455c4.655 0 8.367-3.744 8.478-8.397 2.222-93.469 41.086-176.035 76.678-232.537l-31.741-10.255c-18.076 28.218-40.474 69.987-53.468 106.996-1.673 4.763-8.671 3.635-8.671-1.413v-86.879z" style="fill:#cdfabe"/><path d="M230.347 271.499v104.417c0 5.054-7.095 6.217-8.646 1.407-14.16-43.929-37.87-91.089-57.097-123.01l-32.132 8.601c32.692 55.258 69.697 136.576 80.015 233.398.463 4.343 4.069 7.671 8.436 7.671h17.976c9.446 0 17.102-7.656 17.102-17.102V315.482c0-4.395 3.33-8.134 7.712-8.478 6.103-.48 12.097-1.516 17.941-3.021v-32.484zM359.736 289.714c5.254-9.4 10.559-18.346 15.797-26.665l-31.741-10.255c-5.621 8.775-11.661 18.953-17.705 29.799 10.831 3.843 22.122 6.27 33.649 7.121" style="fill:#acf794"/><path d="M443.654 110.823c-4.17-38.57-36.812-68.602-76.489-68.602-9.389 0-18.344 1.765-26.663 4.842C320.113 23.198 289.851 8.017 256 8.017s-64.112 15.18-84.502 39.047c-8.319-3.077-17.274-4.842-26.662-4.842-39.677 0-72.319 30.032-76.489 68.602-33.639 1.977-60.329 29.805-60.329 63.941 0 35.42 28.714 64.134 64.134 64.134 8.039 0 15.702-1.543 22.794-4.246 11.369 17.948 31.35 29.899 54.166 29.899 15.392 0 29.51-5.433 40.563-14.473 15.68 19.258 39.557 31.575 66.326 31.575s50.646-12.317 66.326-31.575c11.053 9.04 25.171 14.473 40.563 14.473 22.817 0 42.798-11.951 54.166-29.899 7.091 2.701 14.754 4.246 22.794 4.246 35.42 0 64.134-28.714 64.134-64.134-.001-34.137-26.691-61.964-60.33-63.942" style="fill:#7dc86e"/><path d="M377.465 246.322c-20.909-3.632-38.35-17.283-47.042-35.954-3.358-7.214-11.261-10.229-18.332-6.58a84.7 84.7 0 0 1-38.989 9.458c-35.447 0-65.797-21.591-78.751-52.322-2.282-5.414-7.838-8.398-13.685-7.826-9.021.882-18.611-.171-28.646-4.221-23.186-9.356-40-31.237-41.3-56.207-.472-9.09.953-17.781 3.915-25.724 3.189-8.551-6.805-15.842-14.25-10.564C82.869 68.8 70.776 88.358 68.346 110.825c-33.773 1.986-60.541 30.025-60.328 64.347.202 32.637 26.313 60.768 58.835 63.505 9.977.84 19.458-.733 28.092-4.022 11.369 17.947 31.35 29.898 54.166 29.898 15.392 0 29.51-5.433 40.563-14.473 15.68 19.258 39.557 31.575 66.326 31.575s50.646-12.317 66.326-31.575c11.053 9.04 25.171 14.473 40.563 14.473 5.122 0 10.082-.633 14.835-1.795 3.817-.933 6.543-4.307 6.543-8.236 0-4.018-2.845-7.513-6.802-8.2" style="fill:#64b464"/><path d="M450.679 103.429c-7.466-39.743-42.657-69.224-83.514-69.224a85.2 85.2 0 0 0-24.197 3.49C320.47 13.698 288.967.001 256 .001c-33.444 0-64.779 14.093-86.962 37.712a85 85 0 0 0-24.203-3.507c-40.964 0-76.038 29.439-83.503 69.223C26.662 108.663 0 138.657 0 174.765c0 39.784 32.366 72.15 72.15 72.15 6.697 0 13.283-.926 19.652-2.727 8.835 11.513 21.02 20.22 34.929 24.788 30.089 51.284 67.524 131.906 77.782 228.185.902 8.459 7.956 14.839 16.41 14.839h69.455c9.032 0 16.276-7.126 16.493-16.224 2.176-91.558 40.726-172.571 73.523-225.367 16.071-4.021 30.016-13.443 39.799-26.221a72.1 72.1 0 0 0 19.658 2.726c39.784 0 72.15-32.366 72.15-72.15-.001-36.103-26.658-66.094-61.322-71.335M290.842 495.396c-.006.284-.168.571-.464.571h-69.455c-.27 0-.439-.254-.466-.506-9.81-92.072-43.688-170.098-73.218-222.935.623.016 1.245.042 1.872.042 6.092 0 12.062-.755 17.826-2.214 19.24 35.329 35.084 72.084 47.099 109.318 1.7 5.269 6.511 8.693 11.868 8.693q.98.001 1.976-.155c6.173-.971 10.484-6.027 10.484-12.295v-87.927a93.6 93.6 0 0 0 17.637 1.681c6.007 0 11.901-.597 17.637-1.705v70.412c0 6.194 4.252 11.245 10.339 12.282q1.116.19 2.205.189c5.255 0 9.892-3.234 11.707-8.401 10.998-31.322 25.526-62.664 43.192-93.231a72 72 0 0 0 19.283 3.303c-32.283 54.47-67.402 133.676-69.522 222.878M222.33 283.401v70.968c-11.013-30.523-24.505-60.611-40.253-89.754a72 72 0 0 0 6.412-3.744 93.66 93.66 0 0 0 33.841 22.53m101.131-22.564q1.44.947 2.915 1.818c-14.322 24.937-26.639 50.38-36.706 75.932v-55.246a94.3 94.3 0 0 0 33.791-22.504m116.389-29.955c-3.748 0-7.452-.373-11.081-1.099a71.7 71.7 0 0 0 6.271-29.365 8.017 8.017 0 0 0-16.034 0c0 30.942-25.174 56.117-56.117 56.117-10.47 0-20.486-2.839-29.275-8.238a92.6 92.6 0 0 0 14.042-33.456 8.017 8.017 0 1 0-15.713-3.189c-7.291 35.917-39.229 61.986-75.944 61.986-30.829 0-58.722-18.26-71.059-46.52a8.017 8.017 0 0 0-14.694 6.415 93.7 93.7 0 0 0 8.112 14.782c-8.782 5.387-18.789 8.221-29.248 8.221-26.587 0-49.714-18.877-54.995-44.885a8.018 8.018 0 0 0-15.713 3.189 71.3 71.3 0 0 0 4.791 14.944 56.3 56.3 0 0 1-11.044 1.098c-30.943 0-56.117-25.175-56.117-56.117s25.174-56.117 56.117-56.117c5.754 0 11.424.866 16.855 2.573a8.017 8.017 0 0 0 4.809-15.295 72 72 0 0 0-15.959-3.085c7.403-30.456 34.972-52.602 66.979-52.602 4.417 0 8.782.429 13.064 1.25a119 119 0 0 0-10.578 18.705 8.02 8.02 0 0 0 7.302 11.318 8.02 8.02 0 0 0 7.311-4.72c16.665-36.91 53.587-60.758 94.068-60.758 26.478 0 51.863 10.215 70.945 28.285a85.2 85.2 0 0 0-18.679 13.609 8.017 8.017 0 1 0 11.115 11.556c12.905-12.41 29.874-19.245 47.785-19.245 31.921 0 59.574 22.178 66.984 52.606a71.7 71.7 0 0 0-18.346 3.877 8.016 8.016 0 0 0-4.887 10.229 8.015 8.015 0 0 0 10.229 4.887 56 56 0 0 1 18.706-3.191c30.943 0 56.117 25.175 56.117 56.117s-25.176 56.118-56.119 56.118"/><path d="M284.361 39.055c-9.092-3.218-18.634-4.85-28.361-4.85a84.83 84.83 0 0 0-56.657 21.643 8.016 8.016 0 0 0-.626 11.32 8 8 0 0 0 5.976 2.67 7.98 7.98 0 0 0 5.344-2.044 68.82 68.82 0 0 1 45.962-17.556c7.899 0 15.641 1.322 23.011 3.931a8.02 8.02 0 0 0 10.233-4.882 8.016 8.016 0 0 0-4.882-10.232M397.622 78.557c-8.842-6.639-19.374-10.147-30.457-10.147-7.059 0-13.893 1.423-20.315 4.23a8.018 8.018 0 0 0 6.42 14.692 34.5 34.5 0 0 1 13.896-2.888c7.584 0 14.787 2.399 20.831 6.935a7.98 7.98 0 0 0 4.807 1.607 8.018 8.018 0 0 0 4.818-14.429M439.85 136.819c-1.81 0-3.631.129-5.414.384a8.017 8.017 0 0 0 2.271 15.872 22 22 0 0 1 3.144-.222c12.083 0 21.912 9.83 21.912 21.912a8.017 8.017 0 0 0 16.034 0c-.002-20.924-17.024-37.946-37.947-37.946"/></svg>