<svg xmlns="http://www.w3.org/2000/svg" xml:space="preserve" viewBox="0 0 512 512"><path d="M256 8.294C119.41 8.294 8.294 119.414 8.294 256 8.294 392.59 119.41 503.706 256 503.706S503.706 392.59 503.706 256C503.706 119.414 392.59 8.294 256 8.294" style="fill:#faebc8"/><path d="M430.04 256c18.311 0 32.06-16.544 29.006-34.6-5.328-31.497-17.808-60.563-35.711-85.47-10.413-14.485-31.636-15.632-44.25-3.017 12.614-12.614 11.467-33.837-3.017-44.25-24.907-17.902-53.972-30.382-85.47-35.711-18.056-3.054-34.6 10.694-34.6 29.006 0-18.313-16.544-32.06-34.6-29.006-31.497 5.328-60.563 17.808-85.47 35.711-14.485 10.413-15.631 31.636-3.017 44.25-12.614-12.614-33.837-11.467-44.25 3.017-17.902 24.907-30.382 53.972-35.711 85.47-3.053 18.056 10.696 34.6 29.008 34.6-18.311 0-32.06 16.544-29.006 34.599 5.328 31.497 17.808 60.564 35.711 85.47 10.413 14.485 31.636 15.632 44.25 3.018-12.614 12.614-11.467 33.837 3.017 44.249 24.907 17.903 53.972 30.383 85.47 35.711 18.056 3.054 34.6-10.694 34.6-29.007 0 18.313 16.544 32.061 34.6 29.007 31.497-5.328 60.563-17.808 85.47-35.711 14.485-10.411 15.631-31.636 3.017-44.249 12.614 12.614 33.837 11.467 44.25-3.018 17.902-24.906 30.382-53.972 35.711-85.47C462.102 272.544 448.353 256 430.04 256M256 300.681c0-16.488-19.936-24.746-31.595-13.088C236.064 275.935 227.807 256 211.319 256c16.488 0 24.746-19.936 13.086-31.595C236.064 236.064 256 227.807 256 211.319c0 16.488 19.936 24.746 31.595 13.086C275.936 236.064 284.193 256 300.681 256c-16.488 0-24.746 19.936-13.086 31.594C275.936 275.936 256 284.193 256 300.681" style="fill:#ff7d28"/><path d="M256 87.914c-92.831 0-168.086 75.255-168.086 168.086S163.169 424.086 256 424.086 424.086 348.831 424.086 256 348.831 87.914 256 87.914m31.594 199.68C275.935 275.935 256 284.192 256 300.681c0-16.489-19.935-24.746-31.594-13.088C236.065 275.935 227.808 256 211.319 256c16.489 0 24.746-19.936 13.088-31.595C236.065 236.064 256 227.808 256 211.319c0 16.489 19.935 24.745 31.594 13.086C275.935 236.064 284.192 256 300.681 256c-16.489 0-24.746 19.935-13.087 31.594" style="fill:#ff9a32"/><path d="M256 185.227c-39.087 0-70.773 31.686-70.773 70.773s31.686 70.773 70.773 70.773 70.773-31.686 70.773-70.773-31.686-70.773-70.773-70.773m31.594 102.367C275.935 275.935 256 284.192 256 300.681c0-16.489-19.935-24.746-31.594-13.088C236.065 275.935 227.808 256 211.319 256c16.489 0 24.746-19.936 13.088-31.595C236.065 236.064 256 227.808 256 211.319c0 16.489 19.935 24.745 31.594 13.086C275.935 236.064 284.192 256 300.681 256c-16.489 0-24.746 19.935-13.087 31.594" style="fill:#ffb44b"/><path d="M437.019 74.981C388.668 26.628 324.38 0 256 0S123.332 26.628 74.981 74.981 0 187.62 0 256s26.628 132.668 74.981 181.019S187.62 512 256 512s132.668-26.628 181.019-74.981S512 324.38 512 256s-26.628-132.668-74.981-181.019m-11.728 350.31C380.071 470.51 319.95 495.413 256 495.413S131.929 470.51 86.709 425.291C41.491 380.071 16.587 319.949 16.587 256S41.491 131.929 86.709 86.709C131.929 41.491 192.051 16.587 256 16.587S380.071 41.49 425.291 86.709 495.413 192.051 495.413 256s-24.904 124.071-70.122 169.291"/><path d="M453.612 256a38 38 0 0 0 5.178-5.055c7.237-8.565 10.312-19.836 8.435-30.928-5.39-31.86-18.237-62.61-37.154-88.928-6.248-8.692-16.031-14.18-26.842-15.059a38.4 38.4 0 0 0-7.373.113c.273-2.426.314-4.894.113-7.373-.878-10.811-6.367-20.594-15.058-26.841-26.318-18.917-57.069-31.765-88.928-37.155-11.09-1.877-22.364 1.199-30.928 8.435A38 38 0 0 0 256 58.385a37.7 37.7 0 0 0-5.055-5.176c-8.564-7.237-19.834-10.311-30.928-8.435-31.86 5.39-62.61 18.237-88.928 37.154-8.691 6.247-14.18 16.031-15.058 26.841a38.3 38.3 0 0 0 .113 7.373 38.3 38.3 0 0 0-7.373-.113c-10.811.878-20.595 6.367-26.842 15.059-18.919 26.318-31.766 57.069-37.156 88.928-1.877 11.091 1.198 22.364 8.435 30.928a38 38 0 0 0 5.178 5.055 38 38 0 0 0-5.178 5.055c-7.237 8.565-10.312 19.836-8.435 30.928 5.39 31.86 18.237 62.611 37.154 88.928 6.247 8.692 16.031 14.18 26.841 15.059 2.48.202 4.947.16 7.374-.113a38.3 38.3 0 0 0-.113 7.374c.878 10.811 6.367 20.594 15.058 26.841 26.317 18.916 57.066 31.765 88.928 37.155 11.09 1.877 22.363-1.198 30.928-8.435a38 38 0 0 0 5.055-5.178 37.945 37.945 0 0 0 29.58 14.152c2.127 0 4.268-.178 6.403-.539 31.86-5.39 62.611-18.237 88.928-37.155 8.691-6.247 14.18-16.03 15.058-26.841.201-2.479.16-4.948-.113-7.374 2.426.273 4.893.314 7.374.113 10.811-.878 20.594-6.367 26.841-15.059 18.916-26.317 31.764-57.066 37.154-88.928 1.877-11.09-1.198-22.363-8.435-30.928a37.7 37.7 0 0 0-5.176-5.054m-172.402 0c-2.19 2.337-3.989 5.111-5.289 8.252s-1.991 6.374-2.094 9.574c-3.2.104-6.434.794-9.574 2.094-3.141 1.3-5.915 3.1-8.251 5.289-2.337-2.19-5.111-3.989-8.251-5.289-3.141-1.302-6.374-1.99-9.574-2.094-.104-3.2-.794-6.434-2.094-9.574-1.3-3.141-3.1-5.915-5.289-8.252 2.19-2.337 3.989-5.111 5.289-8.251 1.3-3.141 1.991-6.374 2.094-9.574 3.199-.104 6.435-.794 9.574-2.094 3.141-1.3 5.915-3.1 8.251-5.289 2.337 2.19 5.111 3.989 8.251 5.289 3.141 1.3 6.374 1.991 9.574 2.094.104 3.2.794 6.434 2.094 9.574s3.099 5.914 5.289 8.251M132.564 110.114c.491-6.038 3.405-11.265 8.206-14.716C165.044 77.95 193.403 66.1 222.783 61.13c6.266-1.062 12.629.671 17.456 4.75a21.01 21.01 0 0 1 7.468 16.08v129.359c0 6.333-4.826 8.823-6.305 9.437s-6.654 2.263-11.131-2.214l-91.492-91.492a21.45 21.45 0 0 1-6.215-16.936M61.13 222.783c4.97-29.379 16.819-57.738 34.268-82.013 3.452-4.802 8.679-7.716 14.716-8.207 6.308-.505 12.474 1.754 16.935 6.215l91.492 91.492c4.478 4.478 2.827 9.652 2.214 11.131s-3.104 6.305-9.437 6.305H81.96a21.01 21.01 0 0 1-16.08-7.468c-4.078-4.826-5.809-11.188-4.75-17.455M240.239 446.12c-4.827 4.078-11.189 5.81-17.456 4.75-29.379-4.97-57.739-16.82-82.013-34.268-4.802-3.451-7.716-8.677-8.206-14.715a21.45 21.45 0 0 1 6.214-16.935l9.534-9.534a8.29 8.29 0 0 0 0-11.728 8.29 8.29 0 0 0-11.728 0l-9.534 9.534a21.47 21.47 0 0 1-16.935 6.214c-6.038-.491-11.265-3.406-14.716-8.207C77.95 346.957 66.1 318.597 61.13 289.217c-1.059-6.267.671-12.628 4.75-17.454a21.01 21.01 0 0 1 16.08-7.468h129.358c6.333 0 8.823 4.826 9.437 6.305s2.264 6.653-2.214 11.13l-.006.006-57.661 57.661a8.29 8.29 0 0 0 0 11.728 8.27 8.27 0 0 0 5.864 2.43 8.26 8.26 0 0 0 5.864-2.43l57.665-57.665.003-.004c4.478-4.475 9.651-2.824 11.13-2.213 1.479.613 6.305 3.104 6.305 9.437v129.36a21.01 21.01 0 0 1-7.466 16.08m139.197-44.234c-.491 6.038-3.405 11.264-8.206 14.715-24.274 17.448-52.633 29.298-82.013 34.268-6.265 1.059-12.629-.671-17.456-4.75a21.02 21.02 0 0 1-7.468-16.08V300.681c0-6.333 4.826-8.823 6.305-9.437 1.48-.612 6.652-2.263 11.128 2.212l.003.003 91.492 91.492a21.45 21.45 0 0 1 6.215 16.935m71.434-112.67c-4.97 29.38-16.82 57.739-34.268 82.013-3.452 4.802-8.679 7.716-14.716 8.207a21.43 21.43 0 0 1-16.935-6.214l-91.487-91.487-.006-.006c-4.478-4.478-2.827-9.652-2.214-11.13s3.104-6.305 9.437-6.305H430.04a21.01 21.01 0 0 1 16.08 7.468c4.078 4.826 5.809 11.188 4.75 17.454m-4.75-48.977a21.02 21.02 0 0 1-16.08 7.468H300.682c-6.333 0-8.823-4.826-9.437-6.305s-2.264-6.654 2.214-11.131l.001-.001.001-.001 27.203-27.203a8.29 8.29 0 0 0 0-11.728 8.29 8.29 0 0 0-11.728 0l-27.203 27.203-.001.001-.001.001c-4.478 4.479-9.652 2.827-11.131 2.215-1.478-.613-6.305-3.104-6.305-9.437V81.96a21.01 21.01 0 0 1 7.468-16.08c4.826-4.079 11.188-5.81 17.456-4.75 29.379 4.97 57.738 16.819 82.013 34.268 4.802 3.451 7.716 8.677 8.206 14.716a21.45 21.45 0 0 1-6.214 16.935l-7.607 7.607a8.29 8.29 0 0 0 0 11.728c1.619 1.619 3.742 2.43 5.864 2.43s4.245-.809 5.864-2.43l7.607-7.607a21.45 21.45 0 0 1 16.935-6.215c6.038.491 11.265 3.406 14.716 8.207 17.448 24.274 29.298 52.633 34.268 82.013 1.058 6.268-.673 12.63-4.751 17.457"/><path d="m342.673 157.598-9.254 9.254a8.29 8.29 0 0 0 0 11.728c1.619 1.619 3.742 2.43 5.864 2.43s4.245-.809 5.864-2.43l9.254-9.254a8.29 8.29 0 0 0 0-11.728 8.29 8.29 0 0 0-11.728 0"/></svg>