<svg xmlns="http://www.w3.org/2000/svg" xml:space="preserve" viewBox="0 0 512 512"><path d="M256 8.017c62.484 0 98.426 50.258 128.267 145.37C399.535 202.048 427.023 256 427.023 332.96c0 94.454-76.569 171.023-171.023 171.023S84.977 427.414 84.977 332.96c0-76.96 27.488-130.913 42.756-179.574C157.574 58.275 193.516 8.017 256 8.017" style="fill:#8ce16e"/><path d="M256 42.221c29.885 0 62.154 14.708 95.632 121.405 3.631 11.575 7.743 22.96 12.096 35.013 14.302 39.605 29.091 80.557 29.091 134.321 0 75.441-61.376 136.818-136.818 136.818S119.182 408.402 119.182 332.96c0-53.764 14.789-94.718 29.091-134.321 4.353-12.053 8.464-23.438 12.096-35.013C193.846 56.929 226.115 42.221 256 42.221" style="fill:#fff082"/><path d="M256 204.693c-60.472 0-102.614 67.599-102.614 128.267 0 56.582 46.032 102.614 102.614 102.614s102.614-46.032 102.614-102.614c0-60.668-42.142-128.267-102.614-128.267" style="fill:#ffdc64"/><path d="M332.96 332.96c0 42.504-34.457 76.96-76.96 76.96s-76.96-34.457-76.96-76.96c0-51.307 34.457-102.614 76.96-102.614s76.96 51.307 76.96 102.614" style="fill:#c86e37"/><path d="M290.205 375.716c-37.781 0-68.409-31.175-68.409-69.631 0-18.071 4.645-36.135 12.546-51.462 4.442-8.618-5.765-17.527-13.572-11.777-21.122 15.555-36.555 43.932-40.651 74.247-6.238 46.173 25.62 90.543 72.161 92.739 22.304 1.053 42.603-7.414 57.256-21.671 5.711-5.557.514-14.967-7.324-13.532a66.7 66.7 0 0 1-12.007 1.087" style="fill:#b45528"/><path d="M403.439 184.298c-4.196-11.619-8.159-22.593-11.522-33.311-16.232-51.736-33.201-87.04-53.401-111.105C315.99 13.045 288.999 0 256 0s-59.99 13.045-82.515 39.881c-20.2 24.066-37.169 59.37-53.401 111.105-3.363 10.718-7.326 21.692-11.522 33.311C93.749 225.315 76.96 271.806 76.96 332.96 76.96 431.683 157.277 512 256 512s179.04-80.317 179.04-179.04c0-61.154-16.789-107.645-31.601-148.662M256 495.967c-89.882 0-163.006-73.124-163.006-163.006 0-58.349 16.282-103.437 30.648-143.217 4.255-11.783 8.275-22.914 11.74-33.958C166.526 56.522 201.471 16.033 256 16.033s89.474 40.489 120.618 139.752c3.465 11.044 7.484 22.174 11.74 33.958 14.366 39.78 30.648 84.868 30.648 143.217 0 89.883-73.124 163.007-163.006 163.007"/><path d="M256 222.33c-22.764 0-44.398 12.566-60.913 35.384-15.293 21.127-24.064 48.552-24.064 75.247 0 46.856 38.121 84.977 84.977 84.977s84.977-38.121 84.977-84.977c0-26.695-8.771-54.12-24.064-75.247-16.515-22.818-38.149-35.384-60.913-35.384m0 179.574c-38.015 0-68.944-30.928-68.944-68.944 0-23.393 7.661-47.393 21.019-65.847 13.42-18.539 30.44-28.75 47.925-28.75s34.505 10.211 47.925 28.75c13.358 18.454 21.019 42.454 21.019 65.847 0 38.016-30.929 68.944-68.944 68.944"/><path d="M267.686 258.965a8.017 8.017 0 0 0-6.197 14.786c13.262 5.559 26.18 28.693 28.799 51.57a8.017 8.017 0 1 0 15.929-1.823c-2.82-24.635-17.282-55.626-38.531-64.533"/><path d="M371.267 195.915c-4.322-11.967-8.405-23.271-11.987-34.69a643 643 0 0 0-6.293-19.046 8.018 8.018 0 0 0-15.14 5.278 623 623 0 0 1 6.134 18.568c3.684 11.743 7.823 23.204 12.205 35.337 14.068 38.955 28.614 79.237 28.614 131.598 0 71.022-57.78 128.802-128.802 128.802-39.204 0-75.823-17.604-100.47-48.297a8.017 8.017 0 0 0-11.27-1.23 8.014 8.014 0 0 0-1.231 11.269c27.706 34.503 68.882 54.291 112.971 54.291 79.862 0 144.835-64.973 144.835-144.835.002-55.167-15.029-96.791-29.566-137.045M325.626 116.093a8.02 8.02 0 0 0 7.342 4.791 8 8 0 0 0 3.224-.681 8.016 8.016 0 0 0 4.11-10.566 312 312 0 0 0-5.129-11.08 8.018 8.018 0 0 0-14.411 7.029 296 296 0 0 1 4.864 10.507M127.198 332.96c0-52.361 14.547-92.643 28.615-131.599 4.381-12.133 8.52-23.593 12.205-35.335C199.946 64.265 229.172 50.238 256 50.238c14.633 0 30.634 3.354 48.481 27.682a8.015 8.015 0 0 0 11.205 1.722 8.015 8.015 0 0 0 1.722-11.205C295.151 38.095 272.899 34.205 256 34.205c-14.197 0-32.973 2.639-52.311 23.219-18.588 19.781-35.261 53.735-50.97 103.803-3.582 11.419-7.664 22.721-11.987 34.691-14.536 40.251-29.568 81.875-29.568 137.043 0 22.223 4.925 43.564 14.64 63.427a8.017 8.017 0 1 0 14.405-7.043c-8.634-17.653-13.011-36.623-13.011-56.385"/></svg>