<svg xmlns="http://www.w3.org/2000/svg" xml:space="preserve" viewBox="0 0 512 512"><path d="M327.937 321.707c-34.13-85.829-43.243-154.768-37.542-211.068l-84.043-1.865c-22.849 56.173-65.155 200.736-33.765 302.148 25.746 83.18 85.409 102.361 127.062 89.414 46.806-14.547 71.926-68.891 28.288-178.629" style="fill:#734b5f"/><path d="M326.165 467.147c-2.644-3.524-6.68-5.896-11.083-6.034-37.282-1.174-79.241-26.737-99.734-92.949-20.692-66.852-9.341-152.338 7.332-218.997 2.833 2.773 5.802 5.395 8.978 7.747a25.6 25.6 0 0 0 15.265 5.036 25.62 25.62 0 0 0 15.264-5.035 87.4 87.4 0 0 0 15.411-14.658c4.25.939 8.058 1.533 11.23 1.915-.022-4.387 1.096-28.848 1.559-33.434l.007-.097-84.042-1.865c-22.849 56.173-65.155 200.736-33.765 302.148 25.745 83.18 85.408 102.361 127.062 89.414 8.94-2.779 17.06-7.05 24.067-12.87 6.084-5.055 7.195-13.993 2.449-20.321" style="fill:#644655"/><path d="m262.952 70.469-4.215-56.908a5.986 5.986 0 0 0-5.97-5.544h-11.686a5.987 5.987 0 0 0-5.97 5.544l-4.215 56.908c-20.482 6.736-35.283 25.987-35.283 48.722 0 0 15.401-.091 31.581-7.39 4.491 9.777 11.267 18.229 19.73 24.493 8.463-6.264 15.238-14.718 19.73-24.493 16.181 7.299 31.581 7.39 31.581 7.39 0-22.736-14.801-41.986-35.283-48.722" style="fill:#9bf57d"/><path d="M245.855 73.938V8.017h-4.774a5.986 5.986 0 0 0-5.97 5.544l-4.215 56.908c-20.482 6.736-35.283 25.987-35.283 48.722 0 0 15.401-.091 31.581-7.39 4.491 9.777 11.267 18.229 19.73 24.493 0 0-22.449-31.356-1.069-62.356" style="fill:#8ce16e"/><path d="M335.387 318.745c-30.707-77.221-42.102-135.005-37.595-191.544.206.005.345.006.396.007 2.149.031 4.186-.826 5.7-2.331a8.02 8.02 0 0 0 2.365-5.686 59.19 59.19 0 0 0-35.68-54.394l-3.84-51.827C266.193 5.697 260.059 0 252.767 0h-11.686c-7.291 0-13.426 5.697-13.965 12.969l-3.839 51.828a59.19 59.19 0 0 0-35.68 54.394c0 2.135.851 4.181 2.365 5.686 1.162 1.156 2.644 1.943 4.234 2.22-9.115 24.088-23.848 67.732-32.959 119.016-11.628 65.451-10.386 121.699 3.692 167.18 16.259 52.529 44.32 76.533 64.997 87.421 14.183 7.468 29.849 11.286 45.32 11.286 9.11 0 18.152-1.324 26.783-4.007 21.268-6.611 37.463-20.48 46.836-40.11 16.592-34.747 12.058-84.924-13.478-149.138M233.4 78.084a8.015 8.015 0 0 0 5.49-7.024l4.076-55.026h7.914l4.076 55.027a8.01 8.01 0 0 0 5.49 7.023 43.2 43.2 0 0 1 28.84 32.143c-5.264-.87-12.249-2.539-19.337-5.736a8.02 8.02 0 0 0-10.582 3.962c-3.046 6.63-7.293 12.554-12.444 17.406-5.151-4.852-9.398-10.776-12.444-17.406a8.02 8.02 0 0 0-10.582-3.961c-7.087 3.197-14.075 4.866-19.337 5.736 3.132-14.88 13.941-27.243 28.84-32.144m100.996 382.891c-7.503 15.714-19.994 26.382-37.126 31.707-19.255 5.985-41.078 3.741-59.874-6.155-25.804-13.587-45.566-40.549-57.15-77.973-13.314-43.016-14.398-96.724-3.222-159.634 9.975-56.139 26.847-102.889 35.135-123.819a96 96 0 0 0 11.297-3.182c4.842 8.17 11.211 15.28 18.697 20.823 1.417 1.049 3.094 1.574 4.77 1.574s3.353-.525 4.77-1.574c7.486-5.543 13.855-12.652 18.697-20.823a96 96 0 0 0 11.474 3.222c-4.889 59.379 6.802 119.517 38.621 199.532 23.485 59.047 28.294 106.181 13.911 136.302"/><path d="M248.996 197.178a8.02 8.02 0 0 0 8.97 6.934 8.017 8.017 0 0 0 6.933-8.972 315 315 0 0 1-1.695-16.682 8.018 8.018 0 0 0-15.991 1.185 337 337 0 0 0 1.783 17.535M270.792 228.65c-.951-4.325-5.234-7.057-9.552-6.109a8.02 8.02 0 0 0-6.109 9.552c5.901 26.839 14.749 55.749 27.048 88.384a8.02 8.02 0 0 0 7.503 5.192 8.017 8.017 0 0 0 7.501-10.846c-12.024-31.907-20.658-60.095-26.391-86.173M265.707 460.808c-22.788-4.886-42.027-27.619-52.783-62.37a181 181 0 0 1-4.095-15.808 8.01 8.01 0 0 0-9.511-6.172 8.016 8.016 0 0 0-6.173 9.51 198 198 0 0 0 4.462 17.212c12.52 40.451 36.117 67.171 64.739 73.308a8.02 8.02 0 0 0 3.361-15.68"/></svg>