<svg xmlns="http://www.w3.org/2000/svg" xml:space="preserve" viewBox="0 0 512 512"><path d="M303.302 26.203a24.01 24.01 0 0 0-23.293-18.186c-13.26 0-24.009 10.75-24.009 24.009 0-13.26-10.75-24.009-24.009-24.009a24.01 24.01 0 0 0-23.293 18.186l-4.003 16.018L256 102.079l51.307-59.858z" style="fill:#7dc86e"/><path d="M332.96 204.693c0 85.511-34.457 299.29-76.96 299.29s-76.96-213.779-76.96-299.29c0-42.503 34.457-76.96 76.96-76.96s76.96 34.457 76.96 76.96" style="fill:#ff9a32"/><path d="M230.347 204.693c0-19.418 2.398-37.156 6.351-50.697 3.429-11.742-9.116-21.889-19.659-15.688-22.739 13.374-37.999 38.096-37.999 66.384 0 72.499 24.767 237.195 58.208 285.644 3.938 5.705 12.869 2.186 11.517-4.612-10.645-53.523-18.418-210.683-18.418-281.031" style="fill:#ff7d28"/><path d="M256 127.733c0-23.136 0-88.007-69.006-100.512-13.029-2.361-25.057 7.72-25.057 20.961 0 10.772 8.047 19.735 18.732 21.1C208.106 72.786 256 85.021 256 127.733M256 127.733c0-23.136 0-88.007 69.006-100.512 13.029-2.361 25.057 7.72 25.057 20.961 0 10.772-8.047 19.735-18.732 21.1C303.894 72.786 256 85.021 256 127.733" style="fill:#8ce16e"/><path d="M287.366 90.758c14.419-8.271 32.42-11.919 44.981-13.524 14.669-1.874 25.733-14.364 25.733-29.053 0-8.706-3.842-16.907-10.54-22.5-6.685-5.584-15.421-7.898-23.964-6.348-4.62.837-8.953 1.893-13.024 3.136C306.394 9.154 294.105 0 280.009 0 270.457 0 261.872 4.209 256 10.865 250.128 4.209 241.543 0 231.991 0c-14.095 0-26.385 9.155-30.541 22.468a115 115 0 0 0-13.026-3.136c-8.545-1.548-17.279.765-23.964 6.348-6.698 5.594-10.539 13.795-10.539 22.501 0 14.689 11.063 27.179 25.733 29.053 12.562 1.604 30.562 5.254 44.981 13.524 13.106 7.518 20.573 17.19 22.696 29.397-42.8 4.357-76.307 40.608-76.307 84.539 0 46.379 9.344 121.801 22.724 183.414C211.85 471.474 232.214 512 256 512s44.15-40.526 62.253-123.893c13.379-61.612 22.724-137.034 22.724-183.414 0-43.93-33.508-80.182-76.307-84.538 2.123-12.207 9.59-21.88 22.696-29.397m-7.357-74.725a15.97 15.97 0 0 1 15.516 12.114l.069.277c-14.488 7.303-24.567 17.497-31.578 28.714V32.026c.001-8.818 7.175-15.993 15.993-15.993m-63.535 12.114a15.97 15.97 0 0 1 15.516-12.114c8.818 0 15.993 7.174 15.993 15.993v25.112c-7.011-11.217-17.091-21.411-31.577-28.714zm16.139 48.703c-16.712-9.587-36.92-13.732-50.928-15.521-6.687-.854-11.73-6.506-11.73-13.147 0-3.94 1.743-7.655 4.784-10.194a13.2 13.2 0 0 1 8.477-3.09c.781 0 1.567.069 2.349.212 27.012 4.896 44.81 18.46 54.411 41.468a87 87 0 0 1 2.57 7.019c-3.007-2.422-6.321-4.674-9.933-6.747m92.331 127.843c0 14.528-1.002 32.358-2.791 51.841h-23.397a8.017 8.017 0 0 0 0 16.034h21.787c-3.973 36.556-10.352 77.109-17.958 112.135-19.072 87.83-38.256 111.263-46.585 111.263-5.069 0-14.159-8.682-24.796-35.273h16.245a8.017 8.017 0 0 0 0-16.034h-22.084c-5.161-15.459-10.559-35.135-15.949-59.956a843 843 0 0 1-2.006-9.522h5.835a8.017 8.017 0 0 0 0-16.034h-8.551c-.144 0-.284.014-.426.021-3.207-17.081-6.096-34.852-8.549-52.397h.425a8.017 8.017 0 0 0 0-16.034h-2.553c-4.097-32.584-6.534-63.335-6.534-86.046a68.5 68.5 0 0 1 9.429-34.739h25.31a8.017 8.017 0 0 0 0-16.034h-12.379c12.278-11.275 28.639-18.171 46.583-18.171 38.015.002 68.944 30.931 68.944 68.946m-52.92-128.116c9.6-23.009 27.398-36.573 54.411-41.468a13 13 0 0 1 2.349-.212c3.069 0 6.065 1.075 8.477 3.09a13.26 13.26 0 0 1 4.784 10.194c0 6.641-5.043 12.293-11.731 13.148-14.009 1.789-34.216 5.934-50.928 15.521-3.612 2.072-6.925 4.324-9.933 6.746a86 86 0 0 1 2.571-7.019"/><path d="M265.086 196.142a8.017 8.017 0 0 0 8.017 8.017h25.653a8.017 8.017 0 0 0 0-16.034h-25.653a8.017 8.017 0 0 0-8.017 8.017M264.551 393.353h-17.102a8.017 8.017 0 0 0 0 16.034h17.102a8.017 8.017 0 0 0 0-16.034M272.568 332.96a8.017 8.017 0 0 0-8.017-8.017h-34.205a8.017 8.017 0 0 0 0 16.034h34.205a8.017 8.017 0 0 0 8.017-8.017M264.551 169.954h8.551a8.017 8.017 0 0 0 0-16.034h-8.551a8.017 8.017 0 0 0 0 16.034M281.653 290.739H256a8.017 8.017 0 0 0 0 16.034h25.653a8.017 8.017 0 0 0 0-16.034M222.33 264.551a8.017 8.017 0 0 0 8.017 8.017h17.102a8.017 8.017 0 0 0 0-16.034h-17.102a8.017 8.017 0 0 0-8.017 8.017M281.653 359.148h-17.102a8.017 8.017 0 0 0 0 16.034h17.102a8.017 8.017 0 0 0 0-16.034M238.363 230.347a8.017 8.017 0 0 0-8.017-8.017h-17.102a8.017 8.017 0 0 0 0 16.034h17.102a8.02 8.02 0 0 0 8.017-8.017"/></svg>