<svg xmlns="http://www.w3.org/2000/svg" xml:space="preserve" viewBox="0 0 512 512"><path d="M183.315 324.409c0 51.949 42.112 94.063 94.063 94.063s94.063-42.113 94.063-94.063V76.426H183.315z" style="fill:#cdebff"/><path d="M371.441 102.079V76.426H183.315v245.542c0 43.541 28.663 82.93 70.88 93.587 18.902 4.772 36.938 3.403 53.111-2.029-37.258-12.512-64.134-47.644-64.134-89.117V110.63a8.55 8.55 0 0 1 8.551-8.551z" style="fill:#b9dcf5"/><circle cx="294.48" cy="144.835" r="25.653" style="fill:#ff6987"/><path d="M307.281 161.937c-14.978 0-14.978-8.551-29.955-8.551-14.953 0-14.953 8.551-29.907 8.551-14.95 0-14.95-8.551-29.9-8.551v171.023c0 33.059 26.799 59.858 59.858 59.858s59.858-26.799 59.858-59.858V153.386c-14.976 0-14.976 8.551-29.954 8.551" style="fill:#fff082"/><path d="M243.173 324.409V161.623c-10.801-1.459-12.303-8.237-25.653-8.237v171.023c0 28.252 19.597 51.872 45.923 58.161-12.658-15.999-20.27-36.166-20.27-58.161" style="fill:#ffdc64"/><path d="M307.281 238.898c-14.978 0-14.978-8.551-29.955-8.551-14.953 0-14.953 8.551-29.907 8.551-14.95 0-14.95-8.551-29.9-8.551v94.063c0 33.059 26.799 59.858 59.858 59.858s59.858-26.799 59.858-59.858v-94.063c-14.976 0-14.976 8.551-29.954 8.551" style="fill:#ff6987"/><path d="M243.173 324.409v-85.826c-10.801-1.459-12.303-8.237-25.653-8.237v94.063c0 28.252 19.597 51.872 45.923 58.161-12.658-15.999-20.27-36.166-20.27-58.161" style="fill:#f05573"/><path d="M379.992 68.409H227.353l-15.562-50.666C208.532 7.131 198.882 0 187.78 0h-55.772a8.017 8.017 0 0 0 0 16.034h55.772a9.04 9.04 0 0 1 8.685 6.418l14.116 45.958h-35.816a8.017 8.017 0 0 0 0 16.034h.534v239.967c0 53.589 41.508 97.664 94.063 101.766v52.155c0 9.725-7.912 17.637-17.637 17.637h-17.102a8.017 8.017 0 0 0 0 16.034h85.511a8.017 8.017 0 0 0 0-16.034h-17.102c-9.725 0-17.637-7.912-17.637-17.637v-52.155c52.554-4.102 94.063-48.177 94.063-101.766V84.443h.534a8.017 8.017 0 0 0 0-16.034m-16.568 256c0 47.446-38.6 86.046-86.046 86.046s-86.046-38.6-86.046-86.046V84.443h172.092z"/><path d="m224.268 112.975 11.462 37.318c-4.036-2.293-9.15-4.923-18.21-4.923a8.017 8.017 0 0 0-8.017 8.017V264.55a8.017 8.017 0 0 0 16.034 0v-24.564c.958.456 1.899.995 2.952 1.597 4.154 2.376 9.324 5.334 18.93 5.334s14.779-2.958 18.933-5.334c3.388-1.938 5.628-3.217 10.973-3.217 5.362 0 7.605 1.282 11.002 3.221 4.16 2.375 9.337 5.331 18.953 5.331s14.792-2.955 18.953-5.331c1.065-.608 2.016-1.151 2.985-1.611v84.435c0 28.585-23.256 51.841-51.841 51.841s-51.84-23.256-51.84-51.841v-25.658a8.017 8.017 0 0 0-16.034 0v25.658c0 37.426 30.448 67.875 67.875 67.875s67.875-30.448 67.875-67.875V204.693a8.017 8.017 0 0 0-16.034 0v18.441c-4.822 1.042-8.115 2.917-10.936 4.527-3.397 1.939-5.641 3.221-11.002 3.221s-7.606-1.282-11.002-3.221c-4.16-2.375-9.337-5.331-18.953-5.331-9.607 0-14.777 2.957-18.932 5.333-3.388 1.938-5.628 3.218-10.974 3.218-5.344 0-7.582-1.281-10.97-3.217-2.814-1.61-6.101-3.485-10.912-4.527v-60.112c.958.456 1.899.995 2.952 1.597 4.154 2.376 9.324 5.334 18.93 5.334s14.779-2.958 18.933-5.334c3.388-1.938 5.628-3.217 10.973-3.217 5.362 0 7.605 1.282 11.002 3.221 4.16 2.375 9.337 5.331 18.953 5.331s14.792-2.955 18.953-5.331c1.065-.608 2.016-1.151 2.985-1.611v7.471a8.017 8.017 0 0 0 16.034 0v-17.098a8.017 8.017 0 0 0-8.017-8.017c-3.606 0-6.589.416-9.127 1.06q.04-.796.042-1.595a33.47 33.47 0 0 0-4.884-17.45l6.277-6.277a8.016 8.016 0 0 0 0-11.337 8.016 8.016 0 0 0-11.337 0l-6.277 6.277a33.47 33.47 0 0 0-17.45-4.884c-18.566 0-33.67 15.105-33.67 33.67 0 1.465.105 2.923.292 4.367a79 79 0 0 0-2.71 1.5c-1.784 1.021-3.253 1.856-5.021 2.42l-13.777-44.856a8.017 8.017 0 1 0-15.326 4.709m52.575 31.86c0-9.725 7.912-17.637 17.637-17.637s17.637 7.912 17.637 17.637c0 3.221-.855 6.28-2.468 8.984-.723.064-1.501.102-2.368.102-5.362 0-7.606-1.282-11.002-3.221-4.16-2.375-9.337-5.331-18.953-5.331-.159 0-.307.007-.464.009-.006-.181-.019-.361-.019-.543"/></svg>