<svg xmlns="http://www.w3.org/2000/svg" xml:space="preserve" viewBox="0 0 512.001 512.001"><path d="M290.205 80.701c0-22.868-19.969-53.226-29.391-66.276-2.378-3.294-7.248-3.294-9.625 0-9.423 13.05-29.392 43.408-29.392 66.276 0 14.208 6.921 26.478 17.102 33.143v381.588a8.55 8.55 0 0 0 8.551 8.551h17.102a8.55 8.55 0 0 0 8.551-8.551V113.845c10.181-6.666 17.102-18.936 17.102-33.144M196.142 166.213c0-22.868-19.969-53.226-29.391-66.276-2.378-3.294-7.248-3.294-9.625 0-9.422 13.05-29.391 43.408-29.391 66.276 0 14.208 6.921 26.478 17.102 33.143v296.076a8.55 8.55 0 0 0 8.551 8.551h17.102a8.55 8.55 0 0 0 8.551-8.551V199.356c10.18-6.665 17.101-18.935 17.101-33.143M384.264 166.213c0-22.868-19.969-53.226-29.391-66.276-2.378-3.294-7.248-3.294-9.625 0-9.422 13.05-29.391 43.408-29.391 66.276 0 14.208 6.921 26.478 17.102 33.143v296.076a8.55 8.55 0 0 0 8.551 8.551h17.102a8.55 8.55 0 0 0 8.551-8.551V199.356c10.18-6.665 17.101-18.935 17.101-33.143" style="fill:#8ce16e"/><path d="M298.222 80.701c0-32.369-34.493-75.857-35.962-77.694a8.02 8.02 0 0 0-12.519.001c-1.469 1.836-35.962 45.324-35.962 77.694 0 14.859 6.319 28.449 17.102 37.203v15.006c-2.96-2.487-5.222-3.657-5.501-3.796a8.016 8.016 0 0 0-10.755 3.585 8.015 8.015 0 0 0 3.585 10.755c.127.064 12.671 6.899 12.671 27.034v324.944c0 9.136 7.432 16.568 16.568 16.568h17.102c9.136 0 16.568-7.432 16.568-16.568V170.405c.035-20.07 12.542-26.887 12.669-26.951a8.016 8.016 0 0 0 3.585-10.755 8.016 8.016 0 0 0-10.755-3.585c-.278.139-2.54 1.308-5.498 3.795v-15.004c10.782-8.755 17.102-22.345 17.102-37.204M256 21.442a238 238 0 0 1 10.391 16.133c-3.732 2.048-7.236 4.828-10.441 8.326-3.18-3.462-6.665-6.232-10.367-8.28A238 238 0 0 1 256 21.442m12.712 85.695a8.02 8.02 0 0 0-3.626 6.706v381.589a.534.534 0 0 1-.534.534H247.45a.534.534 0 0 1-.534-.534V113.845a8.01 8.01 0 0 0-3.626-6.706c-6.058-3.967-10.432-10.427-12.365-17.842 1.214-.206 2.45-.31 3.698-.31 5.918 0 11.475 2.349 15.646 6.614a8.016 8.016 0 0 0 11.462 0c4.171-4.266 9.728-6.614 15.646-6.614 1.25 0 2.483.111 3.696.316-1.932 7.41-6.305 13.869-12.361 17.834m8.666-34.185c-7.745 0-15.124 2.31-21.378 6.61-6.254-4.299-13.633-6.61-21.378-6.61a38 38 0 0 0-4.039.221c1.273-6.75 4.027-14.13 7.467-21.402 4.001 2.295 7.832 6.333 11.021 11.687a8.016 8.016 0 0 0 13.774 0c3.228-5.418 7.061-9.445 11.087-11.728 3.449 7.287 6.211 14.681 7.487 21.444a38 38 0 0 0-4.041-.222M204.16 166.213c0-32.369-34.493-75.857-35.962-77.694a8.015 8.015 0 0 0-12.518 0c-1.469 1.836-35.962 45.324-35.962 77.694 0 14.859 6.319 28.449 17.102 37.203v15.006c-2.96-2.487-5.222-3.657-5.501-3.796a8.017 8.017 0 0 0-7.17 14.34c.127.064 12.671 6.899 12.671 27.034v239.432c0 9.136 7.432 16.568 16.568 16.568h17.102c9.136 0 16.568-7.432 16.568-16.568V255.917c.035-20.07 12.542-26.887 12.669-26.951a8.017 8.017 0 0 0-7.17-14.34c-.278.139-2.54 1.308-5.498 3.795v-15.004c10.782-8.755 17.101-22.345 17.101-37.204m-42.221-59.26a238 238 0 0 1 10.391 16.133c-3.732 2.048-7.236 4.828-10.441 8.326-3.18-3.462-6.665-6.232-10.367-8.28a238 238 0 0 1 10.417-16.179m12.71 85.696a8.02 8.02 0 0 0-3.626 6.706v296.077a.534.534 0 0 1-.534.534h-17.102a.534.534 0 0 1-.534-.534V199.356a8.01 8.01 0 0 0-3.626-6.706c-6.058-3.967-10.432-10.427-12.365-17.842 1.214-.206 2.45-.31 3.698-.31 5.918 0 11.475 2.349 15.646 6.614a8.016 8.016 0 0 0 11.462 0c4.171-4.266 9.728-6.614 15.646-6.614 1.25 0 2.483.111 3.696.316-1.931 7.411-6.304 13.869-12.361 17.835m8.668-34.186c-7.745 0-15.124 2.31-21.378 6.61-6.254-4.299-13.633-6.61-21.378-6.61a38 38 0 0 0-4.039.221c1.273-6.75 4.027-14.13 7.467-21.402 4.001 2.295 7.831 6.333 11.021 11.687a8.016 8.016 0 0 0 13.774 0c3.228-5.418 7.061-9.445 11.087-11.728 3.449 7.287 6.211 14.681 7.487 21.444a39 39 0 0 0-4.041-.222M380.681 214.625c-.278.139-2.54 1.308-5.498 3.795v-15.004c10.783-8.753 17.102-22.343 17.102-37.203 0-32.369-34.493-75.857-35.962-77.694a8.013 8.013 0 0 0-12.518 0c-1.469 1.836-35.962 45.324-35.962 77.694 0 14.859 6.319 28.449 17.102 37.203v15.006c-2.96-2.487-5.222-3.657-5.501-3.796a8.017 8.017 0 0 0-7.17 14.34c.127.064 12.671 6.899 12.671 27.034v239.432c0 9.136 7.432 16.568 16.568 16.568h17.102c9.136 0 16.568-7.432 16.568-16.568V255.917c.035-20.07 12.542-26.887 12.669-26.951a8.016 8.016 0 0 0 3.585-10.755 8.02 8.02 0 0 0-10.756-3.586m-30.617-107.672a238 238 0 0 1 10.391 16.133c-3.732 2.048-7.236 4.828-10.441 8.326-3.18-3.462-6.665-6.232-10.367-8.28a238 238 0 0 1 10.417-16.179m12.71 85.696a8.02 8.02 0 0 0-3.626 6.706v296.077a.534.534 0 0 1-.534.534h-17.102a.534.534 0 0 1-.534-.534V199.356a8.01 8.01 0 0 0-3.626-6.706c-6.059-3.967-10.432-10.427-12.365-17.842 1.214-.206 2.45-.31 3.698-.31 5.918 0 11.475 2.349 15.646 6.614a8.016 8.016 0 0 0 11.462 0c4.171-4.266 9.728-6.614 15.646-6.614 1.25 0 2.483.111 3.696.316-1.93 7.411-6.303 13.869-12.361 17.835m8.668-34.186c-7.745 0-15.124 2.31-21.378 6.61-6.254-4.299-13.633-6.61-21.378-6.61a38 38 0 0 0-4.039.221c1.273-6.75 4.027-14.13 7.467-21.402 4.001 2.295 7.831 6.333 11.021 11.687a8.016 8.016 0 0 0 13.774 0c3.228-5.418 7.061-9.445 11.087-11.728 3.449 7.287 6.211 14.681 7.487 21.444a39 39 0 0 0-4.041-.222"/></svg>