<svg xmlns="http://www.w3.org/2000/svg" xml:space="preserve" viewBox="0 0 512 512"><path d="M332.96 256c0 212.521-34.457 247.983-76.96 247.983S179.04 468.521 179.04 256 213.497 8.017 256 8.017 332.96 43.479 332.96 256" style="fill:#8ce16e"/><path d="M298.756 435.574c-42.505 0-76.96-35.464-76.96-247.983 0-61.828 2.927-108.621 8.114-143.938 1.786-12.161-14.605-17.786-20.781-7.161C190.833 67.971 179.04 131.687 179.04 256c0 212.52 34.456 247.983 76.96 247.983 22.325 0 42.418-9.85 56.472-49.955 3.225-9.203-3.756-18.482-13.508-18.454z" style="fill:#7dc86e"/><path d="M317.88 49.381C304.638 15.691 284.974 0 256 0s-48.638 15.691-61.88 49.381C178.578 88.919 171.023 156.504 171.023 256s7.555 167.081 23.097 206.619C207.362 496.309 227.026 512 256 512s48.638-15.691 61.88-49.381c15.542-39.538 23.097-107.123 23.097-206.619S333.422 88.919 317.88 49.381m-14.921 407.373c-4.526 11.513-9.517 19.692-14.739 25.502.515-1.426.99-2.829 1.43-4.191 8.055-24.908 13.13-66.675 15.516-127.688a8.016 8.016 0 0 0-7.697-8.323 8.004 8.004 0 0 0-8.323 7.697c-2.328 59.528-7.153 99.886-14.751 123.381-3.56 11.01-7.196 16.703-10.377 19.656V264.551a8.017 8.017 0 0 0-16.034 0v228.234c-3.181-2.953-6.816-8.646-10.377-19.656-7.598-23.494-12.424-63.854-14.751-123.381-.173-4.424-3.895-7.879-8.323-7.697a8.016 8.016 0 0 0-7.697 8.323c2.386 61.012 7.461 102.779 15.516 127.688.44 1.362.915 2.765 1.43 4.191-5.222-5.808-10.213-13.989-14.739-25.502-14.795-37.634-21.987-103.3-21.987-200.751s7.192-163.117 21.985-200.754c13.582-34.554 31.36-39.212 46.959-39.212s33.376 4.658 46.959 39.212C317.752 92.883 324.944 158.549 324.944 256s-7.192 163.117-21.985 200.754"/><path d="m213.533 290.735-.114.001a8.017 8.017 0 0 0-7.903 8.128q.124 8.823.3 17.162a8.017 8.017 0 0 0 8.012 7.847l.173-.001a8.02 8.02 0 0 0 7.846-8.185 2329 2329 0 0 1-.299-17.048 8.02 8.02 0 0 0-8.015-7.904M298.583 290.744l-.114-.001a8.017 8.017 0 0 0-8.013 7.904 2386 2386 0 0 1-.299 17.047 8.02 8.02 0 0 0 7.846 8.185l.173.001a8.02 8.02 0 0 0 8.012-7.847q.177-8.339.3-17.161a8.02 8.02 0 0 0-7.905-8.128M256 205.228a8.017 8.017 0 0 0-8.017 8.017v8.551a8.017 8.017 0 0 0 16.034 0v-8.551a8.017 8.017 0 0 0-8.017-8.017M298.179 127.733c0-4.427-3.632-8.017-8.059-8.017a8.017 8.017 0 0 0 0 16.034h.085c4.427-.001 7.974-3.59 7.974-8.017M230.347 153.921a8.017 8.017 0 0 0 0 16.034h.086c4.427 0 7.974-3.589 7.974-8.017s-3.633-8.017-8.06-8.017M213.244 229.812h.086c4.427 0 7.974-3.589 7.974-8.017s-3.632-8.017-8.059-8.017a8.017 8.017 0 0 0-.001 16.034M255.423 110.63c0-4.427-3.632-8.017-8.059-8.017a8.017 8.017 0 0 0 0 16.034h.086c4.426 0 7.973-3.589 7.973-8.017M281.653 92.994h.086c4.427 0 7.974-3.589 7.974-8.017s-3.632-8.017-8.059-8.017a8.017 8.017 0 0 0-.001 16.034M281.739 162.472h-.086c-4.427 0-7.974 3.589-7.974 8.017s3.632 8.017 8.059 8.017a8.017 8.017 0 0 0 .001-16.034M290.782 238.898c0 4.427 3.632 8.017 8.059 8.017a8.017 8.017 0 0 0 0-16.034h-.086c-4.427 0-7.973 3.589-7.973 8.017M246.957 67.875c0-4.427-3.632-8.017-8.059-8.017a8.017 8.017 0 0 0 0 16.034h.086c4.427-.001 7.973-3.59 7.973-8.017"/></svg>