<svg xmlns="http://www.w3.org/2000/svg" xml:space="preserve" viewBox="0 0 512 512"><path d="M444.125 315.858c0 103.899-84.227 188.125-188.125 188.125S67.875 419.757 67.875 315.858C67.875 153.386 152.101 8.017 256 8.017s188.125 145.369 188.125 307.841" style="fill:#fcf7e9"/><path d="M256 34.472c85.702 0 160.879 130.356 160.879 278.961 0 90.482-72.171 164.095-160.879 164.095S95.121 403.916 95.121 313.433c0-148.605 75.177-278.961 160.879-278.961" style="fill:#faf0d3"/><circle cx="256" cy="315.858" r="111.165" style="fill:#ffdc64"/><circle cx="256" cy="315.858" r="84.977" style="fill:#ffc850"/><path d="M395.896 96.881C377.939 67 357.082 43.408 333.903 26.759 309.185 9.002 282.975 0 256 0s-53.185 9.002-77.904 26.759C154.917 43.408 134.061 67 116.103 96.881c-35.744 59.482-56.245 139.296-56.245 218.977C59.858 424.011 147.847 512 256 512s196.142-87.989 196.142-196.142c0-79.681-20.501-159.495-56.246-218.977M256 495.967c-99.312 0-180.109-80.797-180.109-180.109 0-76.855 19.666-153.659 53.956-210.718C164.378 47.678 209.179 16.033 256 16.033s91.622 31.645 126.153 89.106c34.29 57.06 53.956 133.864 53.956 210.718 0 99.313-80.797 180.11-180.109 180.11"/><path d="M256 196.676c-65.717 0-119.182 53.465-119.182 119.182S190.283 435.04 256 435.04s119.182-53.465 119.182-119.182S321.717 196.676 256 196.676m0 222.33c-56.876 0-103.148-46.272-103.148-103.148S199.124 212.71 256 212.71s103.148 46.272 103.148 103.148S312.876 419.006 256 419.006"/><path d="M284.347 235.726a84.7 84.7 0 0 0-18.916-4.327 8.016 8.016 0 1 0-1.76 15.936A68.6 68.6 0 0 1 279 250.841a8 8 0 0 0 2.673.461 8.02 8.02 0 0 0 7.558-5.344 8.02 8.02 0 0 0-4.884-10.232M312.673 252.539a8.016 8.016 0 1 0-10.697 11.943c14.596 13.073 22.967 31.799 22.967 51.376 0 5.176-.575 10.332-1.708 15.326a8.016 8.016 0 0 0 7.826 9.793 8.02 8.02 0 0 0 7.81-6.245 85.4 85.4 0 0 0 2.106-18.875c0-24.13-10.316-47.209-28.304-63.318M208.018 453.659c-41.446-14.475-74.943-47.824-89.605-89.21a8.015 8.015 0 0 0-10.234-4.879 8.02 8.02 0 0 0-4.88 10.234c16.269 45.924 53.44 82.931 99.432 98.992.874.306 1.766.45 2.643.45a8.02 8.02 0 0 0 7.569-5.375 8.015 8.015 0 0 0-4.925-10.212M279.044 54.179c5.239 1.785 10.53 4.202 15.726 7.184a8.014 8.014 0 0 0 10.944-2.964 8.016 8.016 0 0 0-2.964-10.943c-6.087-3.493-12.323-6.336-18.534-8.453-4.191-1.43-8.746.811-10.174 5.002s.811 8.746 5.002 10.174M394.723 176.413c-15.277-43.819-36.752-80.365-62.102-105.684a8.018 8.018 0 0 0-11.332 11.344c23.649 23.621 43.806 58.069 58.292 99.619a8.02 8.02 0 0 0 7.57 5.38c.875 0 1.767-.144 2.64-.449a8.016 8.016 0 0 0 4.932-10.21"/></svg>