<svg xmlns="http://www.w3.org/2000/svg" xml:space="preserve" viewBox="0 0 512 512"><path d="M61.363 256c0 136.957 111.026 247.983 247.983 247.983 46.502 0 90.014-12.801 127.204-35.07 26.248-15.717 13.123-56.675-17.202-52.628a250 250 0 0 1-36.846 2.159c-134.38-2.019-244.18-119.255-244.18-253.651V19.134c0-6.14-4.977-11.116-11.117-11.116H96.98c-7.572 0-13.017 7.426-10.514 14.572C102.64 68.761 61.363 148.621 61.363 256" style="fill:#ffdc64"/><path d="M347.292 459.803c-136.957 0-247.983-111.026-247.983-247.983 0-87.068 27.127-156.033 28.771-203.625-.304-.025-.563-.176-.872-.176H96.98c-7.572 0-13.017 7.425-10.514 14.571C102.64 68.761 61.363 148.621 61.363 256c0 136.957 111.026 247.983 247.983 247.983 46.502 0 90.014-12.801 127.204-35.071 12.245-7.332 15.837-20.135 13.195-31.322-31.241 14.204-65.896 22.213-102.453 22.213" style="fill:#ffc850"/><path d="M138.324 102.079V19.133c0-6.14-4.977-11.116-11.116-11.116H96.98c-7.572 0-13.017 7.425-10.514 14.571 7.081 20.213 3.15 46.884-3.506 79.491z" style="fill:#a17960"/><path d="M111.705 102.079c7.389-37.019 15.499-68.517 16.375-93.886-.304-.025-.563-.176-.872-.176H96.98c-7.572 0-13.017 7.425-10.514 14.571 7.081 20.213 3.15 46.884-3.506 79.491z" style="fill:#936456"/><path d="M456.513 431.891c-5.722-16.375-21.083-25.842-38.225-23.552a243 243 0 0 1-35.665 2.09c-62.484-.938-121.721-27.47-166.803-74.704-21.742-22.781-38.846-49.009-50.834-77.952-12.372-29.871-18.646-61.154-18.646-92.979V19.133C146.34 8.583 137.757 0 127.207 0H96.98a19.21 19.21 0 0 0-15.644 8.082c-3.54 4.991-4.451 11.404-2.436 17.157 7.609 21.722.905 53.311-7.582 93.305-8.007 37.727-17.972 84.68-17.972 137.456 0 68.38 26.628 132.667 74.981 181.019S240.966 512 309.346 512c46.351 0 91.762-12.521 131.322-36.209 17.814-10.666 20.794-29.735 15.845-43.9M94.413 17.358c.282-.398 1.098-1.324 2.566-1.324h30.227c1.709 0 3.1 1.391 3.1 3.1v74.929h-37.58c5.693-29.614 8.315-54.119 1.306-74.123-.397-1.132-.011-2.029.381-2.582m338.019 444.677c-37.071 22.199-79.634 33.932-123.085 33.932-64.097 0-124.358-24.961-169.683-70.284C94.341 380.358 69.38 320.097 69.38 256c0-51.092 9.362-95.206 17.622-134.128.85-4.004 1.682-7.929 2.486-11.776h13.081c-3.65 19.063-6.135 35.093-7.915 50.947a8.016 8.016 0 1 0 15.933 1.788c1.825-16.254 4.422-32.749 8.313-52.736h11.407v54.696c0 33.942 6.684 67.289 19.865 99.115 12.75 30.78 30.934 58.667 54.049 82.886 48.072 50.369 111.345 78.661 178.161 79.665a259 259 0 0 0 38.027-2.228c10.224-1.365 16.752 4.105 19.891 10.41-29.357 12.313-60.516 18.571-92.672 18.571-18.096 0-36.132-2.021-53.605-6.008a8.018 8.018 0 0 0-3.566 15.632c18.643 4.253 37.878 6.41 57.172 6.41 32.454 0 63.963-5.979 93.802-17.751-1.424 3.936-4.227 7.684-8.999 10.542"/><path d="M99.645 221.261a8.017 8.017 0 0 0 8.017-8.017c0-5.515.113-11.164.338-16.789a8.02 8.02 0 0 0-7.692-8.329c-4.415-.182-8.154 3.268-8.329 7.692a441 441 0 0 0-.351 17.426 8.017 8.017 0 0 0 8.017 8.017M259.926 436.682c-80.703-31.703-138.18-104.635-150.001-190.335a8.017 8.017 0 1 0-15.883 2.191c12.612 91.436 73.929 169.246 160.022 203.067a8 8 0 0 0 2.929.557c3.2 0 6.223-1.929 7.463-5.088a8.014 8.014 0 0 0-4.53-10.392"/></svg>