<svg xmlns="http://www.w3.org/2000/svg" xml:space="preserve" viewBox="0 0 512.001 512.001"><path d="M169.11 350.063c11.401 44.747 25.115 105.693 26.85 145.857.196 4.541 3.976 8.064 8.521 8.064h103.041c4.547 0 8.325-3.524 8.521-8.067 1.71-39.592 15.06-99.375 26.36-143.931l-17.994-36.128H179.04z" style="fill:#fae6be"/><path d="M435.575 119.182c0-25.441-15.898-47.118-38.279-55.783-8.666-22.382-30.343-38.279-55.783-38.279-12.965 0-24.933 4.164-34.734 11.17-10.569-16.955-29.33-28.273-50.778-28.273-33.059 0-59.858 26.799-59.858 59.858v162.472h188.125V178.36c28.997-4.159 51.307-29.031 51.307-59.178" style="fill:#fcf6e5"/><path d="M221.796 232.9v-32.633c20.621-13.807 34.205-37.303 34.205-63.983 0-42.505-34.456-76.96-76.96-76.96-36.653 0-67.263 25.645-75.013 59.956-.653-.016-1.29-.098-1.948-.098-42.505 0-76.96 34.456-76.96 76.96 0 9.442 1.783 18.447 4.894 26.806-13.497 12.496-21.997 30.312-21.997 50.155 0 37.781 30.628 68.409 68.409 68.409 11.125 0 21.598-2.714 30.884-7.426 13.902 19.977 36.997 33.079 63.179 33.079 42.505 0 76.96-34.457 76.96-76.96 0-22.785-9.914-43.23-25.653-57.305" style="fill:#fae6be"/><path d="M230.347 495.921c-.793-28.055-1.286-92.087-20.115-139.869.191-.115.405-.198.595-.314 10.376-6.413 5.496-22.698-6.701-22.778a87 87 0 0 1-4.624-.154c-43.418-2.595-78.888-39.095-80.276-82.569-.749-23.477 8.005-44.868 22.672-60.724 5.379-5.814 6.76-14.473 3.372-21.632-5.76-12.176-8.986-25.783-8.986-40.147 0-16.294 4.151-31.613 11.447-44.969 3.969-7.266-4.207-15.216-11.109-10.643-16.246 10.765-28.163 27.535-32.595 47.159-.653-.016-1.29-.098-1.948-.098-42.505 0-76.96 34.456-76.96 76.96 0 9.442 1.783 18.447 4.894 26.806-14.895 13.791-23.705 34.06-21.719 56.385 2.675 30.078 25.641 55.478 55.329 60.989 15.882 2.948 30.907.249 43.686-6.236 13.902 19.977 36.997 33.079 63.179 33.079.956 0 1.868-.164 2.815-.198 10.339 42.322 21.129 93.61 22.655 128.953.197 4.541 3.976 8.063 8.521 8.063h31.444c-2.973-.001-5.448-3.524-5.576-8.063" style="fill:#f5dcb4"/><path d="M503.984 213.244c0-37.781-30.628-68.409-68.409-68.409-3.601 0-7.11.361-10.563.898-7.288-29.945-34.21-52.205-66.398-52.205-37.781 0-68.409 30.628-68.409 68.409 0 3.769.385 7.439.972 11.044-5.766-1.579-11.807-2.493-18.074-2.493-37.781 0-68.409 30.628-68.409 68.409 0 23.096 11.478 43.475 29.006 55.863a68.3 68.3 0 0 0-3.352 21.098c0 34.952 26.23 63.727 60.068 67.85l17.259-.065c22.349-2.917 41.307-16.587 51.479-35.685 5.313 1.324 10.842 2.104 16.564 2.104 37.781 0 68.409-30.628 68.409-68.409 0-.198-.028-.389-.029-.587 33.748-4.202 59.886-32.933 59.886-67.822" style="fill:#faf0d3"/><path d="M220.817 269.098a8.016 8.016 0 0 0-10.958-2.906 8.015 8.015 0 0 0-2.906 10.958 77 77 0 0 0 8.832 12.244 8 8 0 0 0 6.013 2.711 8.015 8.015 0 0 0 6.005-13.322 61 61 0 0 1-6.986-9.685"/><path d="M441.214 137.059a67.7 67.7 0 0 0 2.377-17.877c0-27.049-15.651-50.984-40.166-61.914-10.929-24.515-34.864-40.166-61.914-40.166-11.486 0-22.606 2.873-32.578 8.368C296.109 9.39 276.847 0 256.001 0c-31.771 0-58.784 21.612-66.003 52.041a85 85 0 0 0-10.957-.724c-19.393 0-38.354 6.712-53.393 18.9-13.12 10.633-22.824 25.038-27.772 41.062-44.911 2.199-80.772 39.426-80.772 84.873 0 8.307 1.248 16.574 3.718 24.642-13.29 14.13-20.82 32.917-20.82 52.318 0 42.141 34.285 76.426 76.426 76.426 9.806 0 19.317-1.846 28.361-5.496 14.493 17.675 35.488 28.782 58.17 30.81 10.747 38.05 23.181 88.141 24.958 121.605.463 8.716 7.717 15.544 16.518 15.544h103.139c8.799 0 16.055-6.83 16.517-15.548 1.814-34.145 14.745-85.64 25.501-123.521a76.5 76.5 0 0 0 13.567-15.934 74.4 74.4 0 0 0 12.561 1.092c40.053 0 73.008-30.967 76.177-70.218 34.71-7.548 60.107-38.491 60.107-74.617-.003-40.243-31.275-73.297-70.79-76.196M308.077 495.602c-.011.201-.238.365-.507.365H204.432c-.265 0-.497-.165-.508-.36-1.787-33.67-13.673-82.617-24.36-120.914a85 85 0 0 0 22.635-5.676c3.643 24.559 6.668 47.225 9.002 67.481a8.017 8.017 0 0 0 15.928-1.834c-2.529-21.943-5.858-46.667-9.897-73.529a85.2 85.2 0 0 0 13.325-10.836c11.385 22.458 33.525 38.57 59.609 41.502a1948 1948 0 0 0-3.441 25.666 8.018 8.018 0 0 0 15.907 2.017 1928 1928 0 0 1 3.71-27.566 76.2 76.2 0 0 0 23.018-6.006c-9.723 36.051-19.661 79.159-21.283 109.69m135.028-222.479a8.017 8.017 0 0 0-7.026 8.019c.001.231.012.46.029.71-.102 33.214-27.154 60.205-60.392 60.205-4.736 0-9.657-.627-14.626-1.866a8.014 8.014 0 0 0-9.014 4.009c-10.533 19.776-30.965 32.06-53.321 32.06-33.3 0-60.393-27.092-60.393-60.392a8.017 8.017 0 0 0-16.034 0c0 5.979.712 11.791 2.017 17.378-13.036 16.276-32.941 25.912-53.858 25.912-22.525 0-43.684-11.081-56.599-29.641a8.02 8.02 0 0 0-10.208-2.57c-8.575 4.351-17.745 6.558-27.256 6.558-33.3 0-60.392-27.092-60.392-60.392 0-16.951 6.9-32.674 19.426-44.271a8.02 8.02 0 0 0 2.067-8.679c-2.913-7.828-4.39-15.905-4.39-24.008 0-38.015 30.928-68.944 68.944-68.944.175 0 .346.018.518.031.408.029.818.055 1.23.065a8.03 8.03 0 0 0 8.018-6.248c3.389-15.01 11.875-28.642 23.894-38.383 12.369-10.024 27.341-15.323 43.298-15.323 29.162 0 55.287 18.459 65.012 45.932a8.017 8.017 0 1 0 15.116-5.35c-8.918-25.195-29.029-44.23-53.54-52.329 5.571-23.149 26.163-39.573 50.375-39.573 17.973 0 34.413 9.157 43.975 24.496a8.01 8.01 0 0 0 5.239 3.621 8 8 0 0 0 6.225-1.34c8.856-6.329 19.255-9.675 30.072-9.675 21.547 0 40.509 13.015 48.308 33.157a8.01 8.01 0 0 0 4.581 4.581c20.142 7.799 33.157 26.761 33.157 48.308 0 2.87-.235 5.698-.69 8.478-12.704-25.461-38.801-42.149-68.263-42.149-42.141 0-76.426 34.285-76.426 76.426q0 .555.01 1.114a74 74 0 0 0-9.086-.569c-4.645 0-9.187.439-13.606 1.237a84.5 84.5 0 0 0 4.003-18.004 8.016 8.016 0 0 0-7.088-8.848c-4.403-.49-8.363 2.687-8.848 7.088-1.046 9.48-4.004 18.445-8.754 26.685-24.962 12.592-42.133 38.455-42.133 68.269a8.017 8.017 0 0 0 16.034 0c0-33.3 27.092-60.392 60.392-60.392 5.233 0 10.599.742 15.95 2.206a8.016 8.016 0 0 0 10.027-9.021c-.584-3.587-.868-6.781-.868-9.763 0-33.3 27.092-60.392 60.392-60.392 27.91 0 52.011 18.955 58.611 46.094a8.02 8.02 0 0 0 9.021 6.028c3.525-.548 6.492-.804 9.337-.804 33.3 0 60.392 27.092 60.392 60.392.003 30.376-22.723 56.113-52.859 59.867"/><path d="M291.557 444.699a8.02 8.02 0 0 0-8.779 7.174 890 890 0 0 0-1.574 17.259 8.017 8.017 0 0 0 15.98 1.291c.429-5.303.948-11.004 1.546-16.945a8.015 8.015 0 0 0-7.173-8.779M358.614 119.716a8.017 8.017 0 0 0 0 16.034c14.44 0 26.188 11.748 26.188 26.188a8.017 8.017 0 0 0 16.034 0c0-23.281-18.941-42.222-42.222-42.222M446.183 172.369a8.019 8.019 0 0 0-4.019 15.523c11.539 2.988 19.598 13.414 19.598 25.353 0 2.222-.278 4.427-.824 6.553a8.016 8.016 0 0 0 7.77 10.017 8.02 8.02 0 0 0 7.758-6.02 42.4 42.4 0 0 0 1.331-10.55c-.001-19.247-13.001-36.056-31.614-40.876M213.779 136.284a8.017 8.017 0 0 0 16.034 0c0-27.995-22.777-50.772-50.772-50.772a8.017 8.017 0 0 0 0 16.034c19.154-.001 34.738 15.583 34.738 34.738M329.755 71.83a17.6 17.6 0 0 1 11.757-4.489 17.6 17.6 0 0 1 13.145 5.878 8 8 0 0 0 5.975 2.67 7.98 7.98 0 0 0 5.344-2.044 8.016 8.016 0 0 0 .625-11.32 34 34 0 0 0-2.636-2.637 33.6 33.6 0 0 0-22.454-8.581 33.62 33.62 0 0 0-22.45 8.576 8.016 8.016 0 0 0-.626 11.32 8.02 8.02 0 0 0 11.32.627M272.634 61.988a8.02 8.02 0 0 0 7.557 5.343 8.017 8.017 0 0 0 7.557-10.695c-4.75-13.418-17.508-22.433-31.747-22.433a8.017 8.017 0 0 0 0 16.034c7.46.001 14.144 4.722 16.633 11.751"/></svg>