<svg xmlns="http://www.w3.org/2000/svg" xml:space="preserve" viewBox="0 0 512 512"><path d="M230.347 59.324c43.78 19.344 76.96 111.492 76.96 222.33 0 107.091-30.975 196.734-72.558 220.12-2.825 1.589-6.092 2.209-9.334 2.209h-.029c-11.429 0-20.694-9.265-20.694-20.694V16.568a8.55 8.55 0 0 1 8.551-8.551h15.559c5.285 0 9.304 4.745 8.435 9.957z" style="fill:#7dc86e"/><path d="M230.347 483.29V59.324h.001-.001l6.891-41.35c.869-5.212-3.15-9.957-8.435-9.957h-15.559a8.55 8.55 0 0 0-8.551 8.551V483.29c0 11.429 9.265 20.694 20.694 20.694h.029c3.242 0 6.507-.621 9.334-2.209 1.182-.665 2.324-1.571 3.488-2.342-4.772-3.792-7.891-9.576-7.891-16.143" style="fill:#64b464"/><circle cx="256" cy="281.653" r="25.653" style="fill:#9bf57d"/><circle cx="251.724" cy="208.969" r="21.378" style="fill:#9bf57d"/><circle cx="251.724" cy="354.338" r="21.378" style="fill:#9bf57d"/><circle cx="247.449" cy="418.472" r="17.102" style="fill:#9bf57d"/><circle cx="247.449" cy="144.835" r="17.102" style="fill:#9bf57d"/><path d="M292.811 133.527c-13.808-39.426-32.246-66.445-53.59-78.681l5.926-35.554c.802-4.813-.546-9.71-3.701-13.433S233.684 0 228.803 0h-15.559c-9.136 0-16.568 7.432-16.568 16.568V483.29c0 15.831 12.879 28.71 28.739 28.71 4.98 0 9.442-1.089 13.264-3.239 45.127-25.38 76.644-118.77 76.644-227.108.001-54.067-7.995-106.673-22.512-148.126m-61.991 361.26c-1.372.772-3.242 1.18-5.433 1.18-6.991 0-12.677-5.687-12.677-12.677V16.568c0-.294.239-.534.534-.534h15.559a.5.5 0 0 1 .408.189c.159.189.13.367.119.433l-6.891 41.35a8.02 8.02 0 0 0 4.668 8.651c41.151 18.182 72.183 110.611 72.183 214.997 0 101.184-28.796 190.819-68.47 213.133"/><path d="M256 315.324c18.566 0 33.67-15.105 33.67-33.67a8.017 8.017 0 0 0-16.034 0c0 9.725-7.912 17.637-17.637 17.637s-17.637-7.912-17.637-17.637 7.912-17.637 17.637-17.637a8.017 8.017 0 0 0 0-16.034c-18.566 0-33.67 15.105-33.67 33.67.001 18.566 15.105 33.671 33.671 33.671M251.724 238.363c16.209 0 29.395-13.186 29.395-29.395a8.017 8.017 0 0 0-16.034 0c0 7.368-5.993 13.361-13.361 13.361s-13.361-5.993-13.361-13.361 5.993-13.361 13.361-13.361a8.017 8.017 0 0 0 0-16.034c-16.209 0-29.395 13.186-29.395 29.395s13.187 29.395 29.395 29.395M273.102 346.322a8.017 8.017 0 0 0-8.017 8.017c0 7.368-5.993 13.361-13.361 13.361s-13.361-5.993-13.361-13.361 5.993-13.361 13.361-13.361a8.017 8.017 0 0 0 0-16.034c-16.209 0-29.395 13.186-29.395 29.395s13.186 29.395 29.395 29.395 29.395-13.186 29.395-29.395a8.017 8.017 0 0 0-8.017-8.017M247.449 169.954c8.938 0 17.273-4.81 21.753-12.552a8.017 8.017 0 0 0-13.878-8.03 9.13 9.13 0 0 1-7.875 4.548c-5.01 0-9.086-4.076-9.086-9.086s4.076-9.086 9.086-9.086a8.017 8.017 0 0 0 0-16.034c-13.851 0-25.119 11.268-25.119 25.119s11.268 25.121 25.119 25.121M266.277 420.085a8.017 8.017 0 0 0-10.954 2.924 9.13 9.13 0 0 1-7.875 4.548c-5.01 0-9.086-4.076-9.086-9.086s4.076-9.086 9.086-9.086a8.017 8.017 0 0 0 0-16.034c-13.851 0-25.119 11.268-25.119 25.119s11.268 25.119 25.119 25.119c8.938 0 17.273-4.81 21.753-12.552a8.014 8.014 0 0 0-2.924-10.952"/></svg>