<svg xmlns="http://www.w3.org/2000/svg" xml:space="preserve" viewBox="0 0 512 512"><path d="M256 213.244c70.84 0 128.267 40.325 128.267 111.165 0 85.512-111.165 128.267-128.267 171.023-17.102-42.756-128.267-85.511-128.267-171.023 0-70.84 57.427-111.165 128.267-111.165" style="fill:#f5dc9b"/><path d="M204.343 324.409c0-68.952 25.41-108.88 57.249-110.964-1.867-.057-3.704-.201-5.59-.201-70.84 0-128.267 40.325-128.267 111.165 0 85.512 111.165 128.267 128.267 171.023 1.312-3.28 3.233-6.563 5.56-9.863-13.065-39.709-57.219-82.205-57.219-161.16" style="fill:#f5c887"/><path d="M270.666 8.017c5.687 0 9.912 5.158 8.839 10.743-15.699 81.653-23.856 194.484-23.856 194.484H256s-8.157-112.831-23.856-194.484c-1.073-5.584 3.151-10.743 8.839-10.743z" style="fill:#9bf57d"/><path d="M153.821 89.891c21.539 12.394 74.917 49.348 101.828 123.354 0 0-8.127-73.142-79.84-148.121-3.068-3.208-8.242-3.229-11.382-.091l-12.319 12.319c-3.718 3.719-2.846 9.916 1.713 12.539M357.478 89.891c-21.539 12.394-74.917 49.348-101.828 123.354 0 0 8.127-73.142 79.84-148.121 3.068-3.208 8.242-3.229 11.382-.091l12.319 12.319c3.718 3.719 2.845 9.916-1.713 12.539" style="fill:#8ce16e"/><path d="M351.766 236.049c-21.89-17.858-51.57-28.501-84.491-30.48 26.96-64.5 74.344-97.305 94.201-108.73 4.371-2.515 7.256-6.815 7.915-11.798.655-4.953-.997-9.821-4.533-13.358l-12.319-12.32c-3.023-3.023-7.257-4.721-11.51-4.682-4.332.048-8.358 1.788-11.333 4.9-28.699 30.006-47.458 59.626-59.683 84.692 3.989-37.807 9.812-84.721 17.364-124a17.03 17.03 0 0 0-3.591-14.104A16.96 16.96 0 0 0 270.666 0h-29.683a16.96 16.96 0 0 0-13.119 6.17 17.02 17.02 0 0 0-3.591 14.104c7.612 39.591 13.469 86.956 17.46 124.923-12.212-25.259-31.078-55.238-60.13-85.614-2.976-3.112-7-4.853-11.333-4.9-4.266-.017-8.487 1.659-11.51 4.682l-12.319 12.32c-3.537 3.537-5.188 8.405-4.533 13.358.66 4.983 3.544 9.283 7.915 11.798 19.861 11.429 67.261 44.245 94.219 108.774-32.648 2.083-62.07 12.702-83.808 30.436-26.507 21.624-40.519 52.178-40.519 88.359 0 57.954 46.906 96.852 84.595 128.107 19.281 15.989 37.525 31.119 43.672 44.559v6.908a8.017 8.017 0 0 0 16.034 0v-6.908c6.147-13.439 24.391-28.57 43.672-44.559 37.689-31.254 84.595-70.153 84.595-128.107.001-36.182-14.01-66.736-40.517-88.361M341.202 70.701l12.254 12.256c-12.554 7.226-35.335 22.382-57.835 47.704 11.056-18.79 25.846-39.312 45.581-59.96m-100.977-54.32c.286-.347.641-.347.758-.347h29.683c.117 0 .47 0 .758.347q.302.367.207.866c-6.599 34.331-11.89 74.371-15.807 109.24-3.916-34.868-9.207-74.909-15.808-109.24a1.01 1.01 0 0 1 .209-.866m-82.383 66.575 12.175-12.292c19.652 20.547 34.404 41.004 45.46 59.769-22.434-25.183-45.119-40.273-57.635-47.477m139.612 357.219c-16.853 13.976-31.98 26.52-41.454 39.326-9.474-12.804-24.602-25.35-41.454-39.326-36.935-30.629-78.797-65.345-78.797-115.765 0-31.201 11.972-57.459 34.619-75.936 21.51-17.547 51.922-27.212 85.631-27.212s64.121 9.665 85.631 27.212c22.648 18.477 34.619 44.735 34.619 75.936.002 50.42-41.861 85.135-78.795 115.765"/><path d="M229.996 401.904h-17.102a8.017 8.017 0 0 0 0 16.034h17.102a8.017 8.017 0 0 0 0-16.034M298.405 401.904h-25.653a8.017 8.017 0 0 0 0 16.034h25.653a8.017 8.017 0 0 0 0-16.034M280.418 367.165a8.017 8.017 0 0 0-8.017-8.017h-33.854a8.017 8.017 0 0 0 0 16.034h33.854a8.02 8.02 0 0 0 8.017-8.017M341.161 307.841h-34.205a8.017 8.017 0 0 0 0 16.034h34.205a8.017 8.017 0 0 0 0-16.034M212.71 315.858a8.017 8.017 0 0 0-8.017-8.017H187.24a8.017 8.017 0 0 0 0 16.034h17.453a8.02 8.02 0 0 0 8.017-8.017M229.996 272.568h17.453a8.017 8.017 0 0 0 0-16.034h-17.453a8.017 8.017 0 0 0 0 16.034"/></svg>