<svg xmlns="http://www.w3.org/2000/svg" xml:space="preserve" viewBox="0 0 511.998 511.998"><path d="M247.646 499.252a16.56 16.56 0 0 0 16.704 0c8.838-5.156 24.373-13.39 45.088-21.12 70.619-26.353 143.22-90.07 143.22-194.687S387.58 94.02 307.301 94.02c-18.064 0-35.346 4.327-51.303 12.175-15.956-7.847-33.239-12.175-51.303-12.175-80.279 0-145.358 84.809-145.358 189.426s72.601 168.335 143.22 194.687c20.716 7.729 36.251 15.963 45.089 21.119" style="fill:#ffdc64"/><path d="M304.857 119.671c-14.263 0-28.284 3.344-41.673 9.941l-7.188 3.542-7.188-3.542c-13.388-6.597-27.408-9.941-41.673-9.941-67.354 0-122.15 73.763-122.15 164.428 0 114.542 96.294 159.445 125.807 170.479 20.312 7.594 35.754 15.691 45.202 21.198 9.448-5.507 24.889-13.605 45.202-21.198 29.513-11.034 125.807-55.937 125.807-170.479.004-90.665-54.792-164.428-122.146-164.428" style="fill:#fff082"/><path d="M285.31 172.261c-14.914-15.921-18.87-38.666-9.075-57.726 3.763-7.323 8.46-13.925 13.869-19.032-11.851 1.835-23.301 5.378-34.105 10.691-10.803-5.314-22.254-8.857-34.105-10.691 5.409 5.106 10.104 11.709 13.869 19.032 9.795 19.06 5.839 41.804-9.075 57.726-27.596 29.461-64.743 67.393-64.743 123.511 0 76.141 49.827 104.075 83.737 138.607 5.59 5.694 15.047 5.694 20.638 0 33.91-34.532 83.737-62.466 83.737-138.607-.004-56.119-37.152-94.051-64.747-123.511" style="fill:#e9b279"/><path d="M255.998 179.524c0 8.55 68.404 51.303 68.404 119.706 0 51.945-30.626 85.505-68.404 85.505s-68.404-33.559-68.404-85.505c0-68.403 68.404-111.155 68.404-119.706" style="fill:#c86e37"/><path d="M231.415 285.336c0-19.084 3.465-44.699 9.29-68.094 1.919-7.705-7.645-12.958-12.987-7.084-18.823 20.701-40.124 50.881-40.124 89.072 0 51.945 30.626 85.505 68.404 85.505 6.245 0 12.29-.926 18.033-2.701 7.795-2.41 7.916-13.342.486-16.713-25.249-11.458-43.102-40.34-43.102-79.985" style="fill:#b45528"/><path d="M316.057 12.943c-15.653 7.098-26.484 19.842-30.74 33.794a7.11 7.11 0 0 0 3.899 8.599c13.298 5.991 30.023 6.241 45.675-.857s26.484-19.842 30.74-33.794a7.11 7.11 0 0 0-3.899-8.599c-13.297-5.991-30.021-6.241-45.675.857" style="fill:#8ce16e"/><path d="M361.733 12.086c-13.299-5.991-30.023-6.24-45.675.857-15.653 7.098-26.485 19.842-30.74 33.794-.564 1.851-.307 3.729.517 5.329l79.567-36.081c-.662-1.673-1.905-3.105-3.669-3.899" style="fill:#7dc86e"/><path d="M273.167 186.888c-3.609-3.532-7.637-7.474-9.153-9.426v-15.494a8.016 8.016 0 0 0-16.032 0v15.494c-1.517 1.952-5.544 5.894-9.153 9.426-20.707 20.262-59.25 57.98-59.25 111.887 0 50.861 28.314 88.629 68.404 93.077v9.528a8.016 8.016 0 0 0 16.032 0v-9.528c40.09-4.448 68.404-42.217 68.404-93.077-.001-53.908-38.545-91.624-59.252-111.887m-17.169 189.376c-34.991 0-60.388-32.589-60.388-77.488 0-47.164 35.408-81.814 54.431-100.428 2.275-2.226 4.257-4.165 5.956-5.903 1.699 1.738 3.681 3.677 5.956 5.903 19.023 18.615 54.431 53.264 54.431 100.428.001 44.899-25.394 77.488-60.386 77.488"/><path d="M416.444 144.165c-29.006-37.8-67.768-58.618-109.143-58.618-14.758 0-29.268 2.69-43.287 7.991-.001-7.548-.433-14.767-1.267-21.757l20.365-9.234C291.488 66.836 300.84 69 310.429 69c9.332 0 18.885-2.047 27.973-6.167 19.869-9.01 33.745-26.231 37.12-46.064a8.01 8.01 0 0 0-3.707-8.174c-17.144-10.531-39.24-11.438-59.109-2.428-18.423 8.354-31.688 23.768-36.211 41.778l-16.571 7.514c-4.179-18.164-11.651-34.962-22.907-51.846a8.017 8.017 0 0 0-13.339 8.893c17.031 25.548 24.3 49.783 24.305 81.033-14.018-5.3-28.529-7.99-43.287-7.99-41.376 0-80.137 20.817-109.143 58.618-28.523 37.17-44.23 86.472-44.23 138.824 0 50.143 15.81 94.497 46.991 131.831 32.605 39.038 73.161 59.813 101.443 70.366 31.995 11.939 51.464 25.241 51.685 25.393a8.027 8.027 0 0 0 9.115 0c.192-.134 19.667-13.446 51.685-25.394 28.281-10.553 68.838-31.328 101.443-70.366 31.181-37.333 46.991-81.688 46.991-131.831-.002-52.352-15.709-101.654-44.232-138.825M319.326 20.768c12.857-5.83 27.308-6.162 39.02-1.138-3.939 12.119-13.708 22.772-26.565 28.602-12.859 5.83-27.308 6.162-39.02 1.137 3.937-12.118 13.708-22.771 26.565-28.601m82.052 383.776c-23.684 28.357-57.331 51.662-94.742 65.623-25.128 9.377-42.779 19.43-50.638 24.285-7.859-4.856-25.51-14.909-50.638-24.285-37.411-13.961-71.059-37.266-94.742-65.623-28.708-34.373-43.264-75.27-43.264-121.554 0-100.03 61.611-181.41 137.342-181.41 14.791 0 29.328 3.125 43.287 9.276v16.91a8.016 8.016 0 0 0 16.032 0v-16.91c13.959-6.151 28.495-9.276 43.287-9.276 75.73 0 137.342 81.38 137.342 181.41-.002 46.285-14.558 87.182-43.266 121.554"/><path d="M259.225 232.743a8.016 8.016 0 0 0-.985 11.293 154 154 0 0 1 6.429 8.183 8 8 0 0 0 6.48 3.29 8.015 8.015 0 0 0 6.467-12.743 171 171 0 0 0-7.098-9.037 8.015 8.015 0 0 0-11.293-.986M282.184 298.775c0 12.297-2.624 23.394-7.388 31.249a8.015 8.015 0 0 0 6.846 12.174 8.01 8.01 0 0 0 6.862-3.861c6.353-10.475 9.711-24.156 9.711-39.563 0-6.309-.807-12.72-2.399-19.056a8.017 8.017 0 0 0-15.549 3.909c1.272 5.059 1.917 10.155 1.917 15.148"/></svg>