<svg xmlns="http://www.w3.org/2000/svg" xml:space="preserve" viewBox="0 0 512 512"><path d="M290.205 153.386s-15.852-53.895-17.033-135.742c-.077-5.31-3.842-9.628-8.528-9.628h-17.288c-4.686 0-8.451 4.317-8.528 9.628-1.182 81.846-17.033 135.742-17.033 135.742v17.102h68.409v-17.102z" style="fill:#dcc8c8"/><path d="M292.299 129.105c-6.336 9.244-16.643 23.034-27.747 32.832l51.307 324.944s30.463 8.551 58.789 8.551c53.089 0 103.683-45.428 103.683-125.061 0-112.66-131.992-161.533-174.533-240.65-2.395-4.45-8.642-4.783-11.499-.616" style="fill:#e6d7d7"/><path d="M282.902 141.846c-5.411 6.922-11.673 14.199-18.351 20.09l51.307 324.944s13.408 3.75 30.683 6.283c34.194-10.037 63.38-53.421 63.38-122.792 0-106.786-90.088-156.28-127.019-228.525M219.701 129.105c6.336 9.244 16.643 23.034 27.747 32.832l-51.307 324.944s-30.463 8.551-58.789 8.551c-53.089 0-103.683-45.428-103.683-125.061 0-112.66 131.992-161.533 174.533-240.65 2.395-4.45 8.642-4.783 11.499-.616" style="fill:#dcc8c8"/><path d="M237.336 151.762c3.214 3.606 6.607 7.081 10.113 10.176l-51.307 324.944s-13.408 3.75-30.683 6.283c-34.194-10.037-63.38-53.421-63.38-122.792 0-101.241 80.974-150.987 120.856-217.443 3.126-5.212 10.357-5.704 14.401-1.168" style="fill:#d7b9b9"/><path d="M249.75 145.822a6.83 6.83 0 0 1 12.5 0c26.33 56.862 104.915 90.235 104.915 212.268 0 57.519-19.852 105.174-49.901 133.926a43.04 43.04 0 0 1-29.756 11.967h-63.014c-11.093 0-21.74-4.299-29.756-11.967-30.051-28.751-49.902-76.407-49.902-133.926-.001-122.033 78.584-155.406 104.914-212.268" style="fill:#e6d7d7"/><path d="M257.63 145.821c.311-1.586.809-2.653 1.372-3.314-3.23-1.598-7.472-.531-9.252 3.315-26.33 56.862-104.915 90.235-104.915 212.268 0 57.52 19.853 105.176 49.903 133.927a43.04 43.04 0 0 0 29.754 11.966c5.406 0 9.23-5.182 7.673-10.36-10.175-33.85-18.922-88.253-18.922-135.536.001-122.031 33.247-155.406 44.387-212.266" style="fill:#dcc8c8"/><path d="M453.073 276.086c-19.404-26.22-44.868-48.817-69.494-70.672-32.754-29.067-63.691-56.523-77.428-89.328a8.03 8.03 0 0 0-7.685-4.91c-2.324.084-4.427 1.183-5.859 2.903-4.609-20.129-10.712-54.526-11.419-97.697C281.04 7.349 273.617 0 264.644 0h-17.288c-8.974 0-16.396 7.349-16.543 16.381-.707 43.168-6.81 77.564-11.418 97.693-1.428-1.719-3.528-2.817-5.851-2.903a8.02 8.02 0 0 0-7.694 4.915c-13.737 32.804-44.674 60.26-77.429 89.328-24.626 21.854-50.089 44.452-69.494 70.672-22.389 30.255-33.274 61.096-33.274 94.286 0 39.378 11.759 73.187 34.006 97.772 20.602 22.767 48.194 35.306 77.694 35.306 22.69 0 42.543-4.54 50.761-6.716.362.355.714.725 1.08 1.074C198.759 506.96 211.296 512 224.492 512h63.014c13.198 0 25.734-5.04 35.299-14.193.367-.351.723-.717 1.086-1.073 8.221 2.177 28.07 6.714 50.754 6.714 29.499 0 57.092-12.538 77.694-35.306 22.248-24.583 34.007-58.393 34.007-97.771.001-33.19-10.884-64.03-33.273-94.285M237.735 105.025c3.813-19.403 8.489-50.487 9.109-88.383.005-.336.235-.609.512-.609h17.288c.277 0 .507.274.512.609.62 37.895 5.296 68.98 9.109 88.383 3.098 15.763 6.108 26.499 7.513 31.169-2.509 4.164-5.523 8.522-9.047 12.576-4.296-7.778-7.156-15.163-8.919-22.833-.837-3.641-4.077-6.221-7.814-6.221s-6.977 2.58-7.814 6.221c-1.862 8.103-4.939 15.612-8.913 22.838-3.526-4.054-6.542-8.415-9.051-12.581 1.407-4.669 4.417-15.405 7.515-31.169m202.718 352.36c-17.525 19.365-40.894 30.031-65.805 30.031-15.217 0-29.259-2.294-38.566-4.278 25.028-31.75 39.1-76.176 39.1-125.048 0-86.009-38.717-130.624-66.988-163.201a8.017 8.017 0 0 0-12.11 10.508c28.097 32.377 63.064 72.671 63.064 152.693 0 52.592-17.286 99.294-47.426 128.133-6.567 6.283-15.167 9.744-24.215 9.744h-63.014c-9.048 0-17.647-3.46-24.215-9.744-18.102-17.32-31.856-41.502-39.775-69.928a8.014 8.014 0 0 0-9.874-5.571 8.017 8.017 0 0 0-5.571 9.874c6.669 23.938 17.218 45.211 30.876 62.545-9.285 1.983-23.307 4.272-38.582 4.272-24.912 0-48.281-10.665-65.805-30.031-19.535-21.587-29.861-51.677-29.861-87.013 0-66.549 49.504-110.481 97.376-152.966 29.081-25.808 56.789-50.396 73.732-79.458 4.039 7.673 9.849 16.861 17.553 24.802-6.789 9.425-14.852 18.7-23.446 28.58-31.225 35.893-70.084 80.567-70.084 166.761 0 9.125.492 18.227 1.462 27.054a8.017 8.017 0 0 0 15.938-1.751 233 233 0 0 1-1.366-25.302c0-80.197 35.142-120.597 66.148-156.24 14.325-16.47 28.074-32.275 37.01-50.543 5.703 11.68 12.954 21.601 19.349 29.655a8.017 8.017 0 1 0 12.556-9.972 219 219 0 0 1-6.252-8.258c7.698-7.938 13.503-17.119 17.541-24.788 16.943 29.062 44.651 53.651 73.732 79.458 47.873 42.486 97.375 86.418 97.375 152.967.003 35.338-10.322 65.428-29.857 87.015"/><path d="M323.644 333.855a8.02 8.02 0 0 0 8.863 7.071 8.017 8.017 0 0 0 7.07-8.863c-3.383-30.059-12.918-55.674-30.008-80.614a8.017 8.017 0 0 0-13.226 9.064c15.761 22.998 24.181 45.619 27.301 73.342M279.29 213.777a8.017 8.017 0 0 0-12.097 10.523c3.2 3.678 6.508 7.482 9.701 11.237a8 8 0 0 0 6.112 2.824 7.98 7.98 0 0 0 5.188-1.909 8.016 8.016 0 0 0 .915-11.3c-3.251-3.826-6.59-7.664-9.819-11.375M449.948 348.495c-7.545-37.026-33.826-66.144-58.541-89.745a8.016 8.016 0 0 0-11.335.262 8.017 8.017 0 0 0 .261 11.335c22.916 21.885 47.242 48.664 53.903 81.351a8.02 8.02 0 0 0 9.456 6.256 8.023 8.023 0 0 0 6.256-9.459M128.927 452.591c-10.164-1.537-19.281-5.943-27.095-13.095-7.428-6.798-13.472-15.814-17.966-26.797a8.018 8.018 0 0 0-14.84 6.072c11.526 28.169 31.947 45.808 57.503 49.674q.61.092 1.208.091a8.02 8.02 0 0 0 7.916-6.82 8.014 8.014 0 0 0-6.726-9.125"/></svg>