<svg xmlns="http://www.w3.org/2000/svg" xml:space="preserve" viewBox="0 0 512 512"><path d="M366.008 54.902C303.286 29.14 264.551 67.875 264.551 67.875l7.823-54.763a4.464 4.464 0 0 0-4.419-5.095h-23.91a4.463 4.463 0 0 0-4.419 5.095l7.822 54.763S208.713 29.14 145.991 54.902c-3.21 1.318-3.051 6.008.281 6.979 14.2 4.141 40.489 13.716 58.42 31.648h102.614c17.932-17.932 44.22-27.507 58.42-31.647 3.332-.972 3.492-5.661.282-6.98" style="fill:#8ce16e"/><circle cx="256" cy="290.205" r="213.779" style="fill:#ff5050"/><circle cx="256" cy="290.205" r="179.574" style="fill:#ff736e"/><path d="M237.892 389.224c0-5.602-2.838-10.709-7.41-13.947-20.638-14.616-35.011-47.19-35.011-85.072s14.372-70.456 35.011-85.072c4.572-3.238 7.41-8.345 7.41-13.947v-34.212c0-5.397-4.964-9.346-10.265-8.333-66.623 12.737-116.997 71.229-116.997 141.564s50.374 128.827 116.997 141.564c5.302 1.013 10.265-2.935 10.265-8.333z" style="fill:#c84146"/><path d="M230.482 205.131c4.572-3.238 7.41-8.344 7.41-13.947v-9.836c-52.835 8.18-93.325 53.728-93.325 108.855s40.49 100.675 93.325 108.855v-9.836c0-5.602-2.838-10.709-7.41-13.947-20.638-14.616-35.011-47.19-35.011-85.072s14.373-70.455 35.011-85.072" style="fill:#ff5050"/><path d="M274.108 156.973v34.212c0 5.602 2.838 10.709 7.41 13.947 20.638 14.616 35.011 47.189 35.011 85.072s-14.372 70.456-35.011 85.072c-4.572 3.238-7.41 8.345-7.41 13.947v34.212c0 5.397 4.964 9.346 10.265 8.333 66.623-12.737 116.997-71.229 116.997-141.564S350.996 161.377 284.373 148.64c-5.301-1.013-10.265 2.936-10.265 8.333" style="fill:#c84146"/><path d="M281.518 375.278c-4.572 3.238-7.41 8.344-7.41 13.947v9.836c52.835-8.18 93.325-53.728 93.325-108.855s-40.49-100.675-93.325-108.855v9.836c0 5.602 2.838 10.709 7.41 13.947 20.638 14.616 35.011 47.19 35.011 85.072s-14.373 70.455-35.011 85.072" style="fill:#ff5050"/><path d="M333.317 82.322c26.032-14.512 42.278-14.979 42.414-14.982a8.016 8.016 0 0 0 3.585-15.187c-37.793-18.897-68.364-15.317-87.356-8.986a98.7 98.7 0 0 0-16.825 7.412l5.918-41.428A8.015 8.015 0 0 0 273.117 0h-34.205a8.015 8.015 0 0 0-7.936 9.151l5.918 41.428a99 99 0 0 0-16.825-7.412c-18.992-6.331-49.564-9.91-87.356 8.986-3.325 1.663-5.103 5.394-4.249 9.012a7.98 7.98 0 0 0 7.771 6.175c.187.002 16.442.462 42.472 14.972-84.3 31.444-144.503 112.765-144.503 207.892C34.205 412.503 133.701 512 256 512s221.795-99.497 221.795-221.795c0-95.118-60.19-176.432-144.478-207.883m15.389-24.821c-9.766 3.608-21.845 9.323-35.668 18.357a220.4 220.4 0 0 0-37.527-6.581c10.531-7.545 36.355-21.562 73.195-11.776m-84.833-41.468-7.244 50.707a8 8 0 0 0-.042 1.675c-.197 0-.391-.007-.588-.007-.187 0-.372.006-.559.007a8 8 0 0 0-.042-1.675l-7.244-50.707zm-100.61 41.446c37.156-9.997 62.864 4.158 73.328 11.79a220.5 220.5 0 0 0-37.61 6.584c-13.847-9.049-25.943-14.769-35.718-18.374M256 495.967c-113.458 0-205.762-92.304-205.762-205.762S142.542 84.443 256 84.443s205.762 92.304 205.762 205.762S369.458 495.967 256 495.967"/><path d="M84.608 282.648c1.881-42.939 19.668-83.337 50.082-113.752 26.675-26.675 60.473-43.491 97.737-48.631 36.07-4.975 73.463 1.789 105.289 19.041a8.017 8.017 0 1 0 7.641-14.094c-34.809-18.869-75.694-26.267-115.121-20.83-40.756 5.621-77.717 24.009-106.884 53.177-33.258 33.258-52.706 77.433-54.763 124.388-2.045 46.656 13.186 92.069 42.884 127.871a8 8 0 0 0 6.174 2.899 8.018 8.018 0 0 0 6.167-13.136c-27.152-32.734-41.075-74.26-39.206-116.933M415.863 191.972a187 187 0 0 0-2.656-4.19 8.018 8.018 0 0 0-13.424 8.768 172 172 0 0 1 2.427 3.827c19.878 32.29 28.505 70.957 24.295 108.878-4.338 39.053-21.348 74.413-49.194 102.259-30.659 30.658-71.388 48.458-114.685 50.12-43.052 1.65-84.794-12.735-117.514-40.514a8.016 8.016 0 0 0-10.377 12.221c33.937 28.813 76.726 44.455 121.211 44.454 2.425 0 4.861-.046 7.295-.14 47.346-1.818 91.882-21.282 125.407-54.805 30.013-30.013 49.117-69.727 53.792-111.827 4.602-41.452-4.836-83.732-26.577-119.051M367.098 159.466a175 175 0 0 1 10.212 9.43 8 8 0 0 0 5.669 2.348 8.016 8.016 0 0 0 5.668-13.684 191 191 0 0 0-11.154-10.299 8.016 8.016 0 1 0-10.395 12.205"/><path d="M236.063 211.002c6.795-4.812 10.851-12.514 10.851-20.6V155.92c0-4.941-2.185-9.583-5.994-12.733-3.865-3.196-8.923-4.486-13.873-3.54-72.102 13.784-124.433 77.104-124.433 150.558s52.331 136.773 124.433 150.558a17 17 0 0 0 3.196.304 16.72 16.72 0 0 0 10.677-3.844 16.47 16.47 0 0 0 5.994-12.733v-34.483c0-8.086-4.056-15.788-10.851-20.6-19.381-13.726-31.904-44.816-31.904-79.203s12.523-65.477 31.904-79.202m-9.266-13.085c-23.492 16.638-38.672 52.862-38.672 92.287s15.179 75.649 38.672 92.287c2.595 1.839 4.084 4.578 4.084 7.515v34.483c0 .085 0 .229-.179.377a.76.76 0 0 1-.646.148c-64.556-12.342-111.41-69.038-111.41-134.81s46.854-122.467 111.41-134.809a1 1 0 0 1 .176-.018c.218 0 .372.084.469.165a.44.44 0 0 1 .179.377v34.482c.001 2.938-1.488 5.678-4.083 7.516M275.937 369.407c-6.795 4.812-10.851 12.514-10.851 20.6v34.483c0 4.941 2.185 9.583 5.994 12.733a16.7 16.7 0 0 0 10.677 3.844c1.061 0 2.131-.1 3.196-.304 72.102-13.784 124.433-77.104 124.433-150.558s-52.331-136.773-124.433-150.558c-4.951-.947-10.008.343-13.873 3.54a16.47 16.47 0 0 0-5.994 12.733v34.482c0 8.086 4.056 15.788 10.851 20.6 19.381 13.726 31.904 44.815 31.904 79.203 0 34.387-12.523 65.477-31.904 79.202m9.266 13.085c23.492-16.638 38.672-52.862 38.672-92.287s-15.179-75.649-38.672-92.287c-2.595-1.838-4.084-4.578-4.084-7.515V155.92c0-.086 0-.229.178-.377a.72.72 0 0 1 .469-.165q.082 0 .176.018c64.556 12.341 111.41 69.037 111.41 134.809s-46.854 122.467-111.41 134.809a.75.75 0 0 1-.646-.148c-.178-.147-.178-.291-.178-.376v-34.483c.001-2.937 1.49-5.677 4.085-7.515"/><path d="M169.954 290.205a8.017 8.017 0 0 0-8.017-8.017h-17.102a8.017 8.017 0 0 0 0 16.034h17.102a8.02 8.02 0 0 0 8.017-8.017M342.046 290.205a8.017 8.017 0 0 0 8.017 8.017h17.102a8.017 8.017 0 0 0 0-16.034h-17.102a8.017 8.017 0 0 0-8.017 8.017M183.063 205.931a8.016 8.016 0 0 0-11.337 0 8.016 8.016 0 0 0 0 11.337l10.196 10.196c1.565 1.565 3.617 2.348 5.668 2.348s4.103-.782 5.668-2.348a8.016 8.016 0 0 0 0-11.337zM328.937 374.478c1.565 1.565 3.617 2.348 5.668 2.348s4.103-.782 5.668-2.348a8.016 8.016 0 0 0 0-11.337l-10.196-10.196a8.016 8.016 0 0 0-11.337 0 8.016 8.016 0 0 0 0 11.337zM181.922 352.945l-10.196 10.196a8.016 8.016 0 0 0 5.668 13.685 8 8 0 0 0 5.668-2.348l10.196-10.196a8.016 8.016 0 1 0-11.336-11.337M330.078 227.464l10.196-10.196a8.016 8.016 0 0 0 0-11.337 8.016 8.016 0 0 0-11.337 0l-10.196 10.196a8.016 8.016 0 0 0 5.668 13.685 8 8 0 0 0 5.669-2.348M174.025 324.16a8.02 8.02 0 0 0-10.474-4.34l-13.322 5.519a8.017 8.017 0 1 0 6.136 14.814l13.322-5.519a8.016 8.016 0 0 0 4.338-10.474M337.975 256.249a8.02 8.02 0 0 0 10.475 4.34l13.322-5.519a8.017 8.017 0 0 0-6.135-14.814l-13.322 5.519a8.016 8.016 0 0 0-4.34 10.474M361.771 325.339l-13.322-5.519a8.017 8.017 0 0 0-10.474 4.34 8.016 8.016 0 0 0 4.339 10.474l13.322 5.519a8.019 8.019 0 0 0 6.135-14.814M150.229 255.07l13.322 5.519a8.019 8.019 0 0 0 6.136-14.814l-13.322-5.519a8.016 8.016 0 0 0-10.474 4.34 8.016 8.016 0 0 0 4.338 10.474"/></svg>