<svg xmlns="http://www.w3.org/2000/svg" xml:space="preserve" viewBox="0 0 512 512"><path d="m343.417 247.626-40.785-156.34a119.7 119.7 0 0 1-3.877-30.219V50.772h-85.511v10.296c0 10.197-1.303 20.352-3.877 30.219l-40.785 156.34a205.2 205.2 0 0 0-6.645 51.804v178.9c0 14.168 11.485 25.653 25.653 25.653h136.818c14.168 0 25.653-11.485 25.653-25.653v-178.9a205 205 0 0 0-6.644-51.805" style="fill:#faebc8"/><path d="m226.93 247.626 31.515-156.34c.493-2.446.925-4.376 1.294-6.854.636-4.254 4.159-7.473 8.46-7.473h31.548c-.658-5.088-.994-10.752-.994-15.892V50.772h-85.511v10.296c0 10.196-1.303 20.352-3.877 30.218L168.58 247.627a205.2 205.2 0 0 0-6.645 51.802V478.33c0 14.168 11.485 25.653 25.653 25.653h54.027c-10.948 0-19.823-11.485-19.823-25.653v-178.9c.003-17.48 1.73-34.89 5.138-51.804" style="fill:#f5dcb4"/><path d="M318.737 153.02c-11.729-1.633-13.602-8.185-28.604-8.185-17.111 0-17.111 8.551-34.221 8.551-17.106 0-17.106-8.551-34.212-8.551-14.92 0-16.835 6.502-28.433 8.163l-24.687 94.628a205.3 205.3 0 0 0-6.645 51.804v178.9c0 14.168 11.485 25.653 25.653 25.653h136.818c14.168 0 25.653-11.485 25.653-25.653v-178.9c0-17.481-2.234-34.89-6.645-51.804z" style="fill:#ffc850"/><path d="M221.795 478.33v-178.9c0-17.481 1.726-34.89 5.136-51.804l19.248-95.485c-8.301-2.364-11.446-7.306-24.477-7.306-14.92 0-16.835 6.502-28.433 8.163l-24.687 94.628a205.3 205.3 0 0 0-6.645 51.804v178.9c0 14.168 11.485 25.653 25.653 25.653h54.027c-10.947 0-19.822-11.485-19.822-25.653" style="fill:#ebaf46"/><path d="M298.756 50.772h-85.511a8.55 8.55 0 0 1-8.551-8.551V16.568a8.55 8.55 0 0 1 8.551-8.551h85.511a8.55 8.55 0 0 1 8.551 8.551v25.653a8.55 8.55 0 0 1-8.551 8.551M256 392.653c4.632 0 9.264 4.886 18.527 4.886 13.896 0 37.055-39.09 37.055-68.409 0-19.546-13.896-34.205-27.791-34.205-13.896 0-18.527 6.036-27.791 6.036s-13.896-6.036-27.791-6.036-27.791 14.659-27.791 34.205c0 29.319 23.16 68.409 37.055 68.409 9.263 0 13.895-4.886 18.527-4.886" style="fill:#ff5050"/><path d="M230.347 321.558c0-9.832 3.291-18.48 8.28-25.278-2.898-.774-6.203-1.355-10.417-1.355-13.896 0-27.791 14.659-27.791 34.205 0 29.318 23.16 68.409 37.055 68.409 9.264 0 13.896-4.887 18.527-4.887 2.15 0 4.341 1.073 6.952 2.201-15.619-13.761-32.606-46.882-32.606-73.295M247.449 42.221V16.568A8.55 8.55 0 0 1 256 8.017h-42.756a8.55 8.55 0 0 0-8.551 8.551v25.653a8.55 8.55 0 0 0 8.551 8.551H256a8.55 8.55 0 0 1-8.551-8.551" style="fill:#c84146"/><path d="M351.174 245.603 310.39 89.263c-2.4-9.2-3.617-18.686-3.617-28.195V56.71c5.093-2.829 8.551-8.26 8.551-14.489V16.568C315.324 7.432 307.892 0 298.756 0h-85.511c-9.136 0-16.568 7.432-16.568 16.568v25.653c0 6.228 3.458 11.659 8.551 14.489v4.358c0 9.509-1.217 18.995-3.617 28.195l-40.785 156.34a213.4 213.4 0 0 0-6.905 53.827v178.9c0 18.566 15.105 33.67 33.67 33.67h136.818c18.566 0 33.67-15.105 33.67-33.67v-178.9a213.3 213.3 0 0 0-6.905-53.827M212.71 16.568c0-.295.239-.534.534-.534h85.511c.295 0 .534.239.534.534v25.653a.534.534 0 0 1-.534.534h-85.511a.534.534 0 0 1-.534-.534zm4.414 76.742a127.8 127.8 0 0 0 4.137-32.243v-2.278h69.478v2.279c0 10.874 1.392 21.722 4.137 32.242l13.189 50.557c-1.055-.482-2.078-1.062-3.232-1.721-4.163-2.374-9.344-5.328-18.969-5.328-9.615 0-14.789 2.955-18.948 5.331-3.395 1.939-5.638 3.221-10.997 3.221-5.356 0-7.599-1.281-10.992-3.22-4.158-2.375-9.333-5.332-18.946-5.332-9.611 0-14.786 2.957-18.944 5.332-1.101.629-2.081 1.186-3.085 1.656zm124.922 385.02c0 9.725-7.912 17.637-17.637 17.637H187.591c-9.725 0-17.637-7.912-17.637-17.637v-178.9c0-16.788 2.148-33.537 6.387-49.781l23.055-88.375c7.519-.59 11.949-3.12 15.596-5.203 3.393-1.939 5.635-3.219 10.989-3.219 5.356 0 7.599 1.281 10.992 3.219 4.158 2.375 9.333 5.332 18.946 5.332 9.615 0 14.79-2.955 18.949-5.331 3.395-1.939 5.638-3.221 10.997-3.221 5.373 0 7.622 1.282 11.027 3.223 3.667 2.091 8.129 4.629 15.716 5.206l23.053 88.37a197.4 197.4 0 0 1 6.387 49.781v178.9z"/><path d="M305.26 378.246c8.979-16.03 14.339-34.391 14.339-49.117 0-22.886-16.398-42.221-35.808-42.221-9.113 0-14.971 2.213-19.678 3.991l-.456.171c-1.054-7.247-4.803-18.432-17.476-25.071a8.017 8.017 0 0 0-7.439 14.204c5.152 2.699 7.447 6.932 8.47 10.442-4.593-1.728-10.318-3.737-19.003-3.737-19.41 0-35.808 19.335-35.808 42.221 0 14.726 5.361 33.087 14.339 49.117 13.309 23.762 24.967 27.309 30.732 27.309 7.102 0 12.247-2.249 15.653-3.737.98-.429 2.299-1.005 2.874-1.134.575.129 1.894.705 2.874 1.134 3.405 1.488 8.551 3.737 15.653 3.737 5.767.001 17.425-3.547 30.734-27.309m-30.733 11.277c-3.752 0-6.413-1.163-9.233-2.395-2.672-1.168-5.7-2.492-9.295-2.492s-6.623 1.323-9.295 2.492c-2.819 1.231-5.481 2.395-9.209 2.395-1.731-.13-8.988-5.025-17.055-19.627-7.518-13.61-12.006-28.85-12.006-40.765 0-12.362 8.457-26.188 19.775-26.188 6.186 0 9.988 1.437 14.012 2.957 3.821 1.443 8.151 3.079 13.779 3.079s9.958-1.636 13.779-3.079c4.024-1.521 7.826-2.957 14.012-2.957 11.317 0 19.775 13.826 19.775 26.188 0 11.916-4.488 27.155-12.007 40.765-8.067 14.602-15.325 19.497-17.032 19.627M315.858 461.762h-17.104a8.017 8.017 0 0 0 0 16.034h17.104a8.017 8.017 0 0 0 0-16.034M264.551 461.762h-68.409a8.017 8.017 0 0 0 0 16.034h68.409a8.017 8.017 0 0 0 0-16.034M238.898 92.994h34.205a8.017 8.017 0 0 0 0-16.034h-34.205a8.017 8.017 0 0 0 0 16.034"/></svg>