<svg xmlns="http://www.w3.org/2000/svg" xml:space="preserve" viewBox="0 0 512 512"><path d="m229.414 201.791 32.803-186.703a8.55 8.55 0 0 1 8.422-7.072h51.015c5.325 0 9.355 4.814 8.418 10.056L294.558 216.65c-2.783 12.665-4.49 25.913-5.132 39.357h-67.632c1.299-18.491 3.773-36.714 7.62-54.216" style="fill:#7dc86e"/><path d="M293.333 27.727c2.096-9.537-2.036-19.71-8.007-19.71h36.329c5.325 0 9.355 4.814 8.418 10.056l-35.514 198.578c-2.783 12.665-4.49 25.913-5.132 39.357H255.22c.643-13.444 2.348-26.692 5.132-39.357z" style="fill:#8ce16e"/><path d="M281.494 201.791 248.691 15.089a8.55 8.55 0 0 0-8.422-7.072h-51.016c-5.325 0-9.355 4.814-8.418 10.056l35.514 198.578c2.783 12.665 4.49 25.913 5.132 39.357h67.632c-1.298-18.492-3.771-36.715-7.619-54.217" style="fill:#8ce16e"/><path d="M217.576 27.727c-2.096-9.537 2.036-19.71 8.007-19.71h-36.33c-5.325 0-9.355 4.814-8.418 10.056l35.514 198.578c2.783 12.665 4.49 25.913 5.132 39.357h34.206c-.643-13.444-2.348-26.692-5.132-39.357z" style="fill:#7dc86e"/><path d="m229.414 216.746 40.755-134.252a8.55 8.55 0 0 1 8.183-6.067h50.538c5.74 0 9.85 5.543 8.183 11.036L294.56 227.507c-2.784 9.17-4.49 18.765-5.132 28.5h-67.632c1.297-13.39 3.771-26.587 7.618-39.261" style="fill:#7dc86e"/><path d="M296.328 421.048c-3.769-4.782-6.123-10.518-6.123-16.607V272.267c0-16.407-2.951-32.679-8.712-48.042l-38.435-102.494a17.1 17.1 0 0 0-16.014-11.098h-44.219c-5.971 0-10.103 5.964-8.007 11.554l41.531 110.749a85.5 85.5 0 0 1 5.445 30.026v141.482c0 6.08-2.343 11.812-6.109 16.585-8.906 11.291-13.187 26.385-9.879 42.493 4.003 19.489 19.71 35.284 39.19 39.331 33.145 6.885 62.312-18.233 62.312-50.164 0-11.954-4.113-22.929-10.98-31.641" style="fill:#faf0d3"/><path d="M240.012 463.523c-3.33-16.209 1.027-31.394 10.05-42.708 3.733-4.681 5.938-10.383 5.938-16.37l.001-141.482a85.5 85.5 0 0 0-5.445-30.026l-41.531-110.748c-2.096-5.59 2.036-11.554 8.007-11.554h-34.206c-5.971 0-10.104 5.964-8.007 11.554l41.531 110.748a85.5 85.5 0 0 1 5.445 30.026l-.001 141.482c0 6.083-2.347 11.816-6.114 16.592-8.845 11.217-13.126 26.189-9.936 42.176 3.817 19.13 17.576 34.04 36.446 38.983a54 54 0 0 0 12.353 1.771c5.763.146 8.53-7.289 3.991-10.842-9.315-7.292-16.087-17.751-18.522-29.602" style="fill:#f5e6b4"/><path d="M328.89 76.427h-35.013c5.97 0 10.103 7.367 8.007 14.273l-31.523 103.839-27.303-72.808a17.1 17.1 0 0 0-16.014-11.098h-44.219c-5.97 0-10.104 5.964-8.007 11.554l41.531 110.748a85.5 85.5 0 0 1 5.132 23.071h67.632v-.001h.312c.643-9.735 2.348-19.328 5.132-28.5L337.07 87.461c1.67-5.49-2.44-11.034-8.18-11.034" style="fill:#8ce16e"/><path d="M209.025 122.188c-2.096-5.59 2.036-11.554 8.007-11.554h-34.206c-5.971 0-10.104 5.964-8.007 11.554l41.531 110.748a85.5 85.5 0 0 1 5.132 23.071h34.206c-.643-7.881-2.348-15.647-5.132-23.071z" style="fill:#7dc86e"/><path d="M221.794 254.947v112.23h68.411V264.966c0-5.868-.446-11.704-1.091-17.509h-67.632c.188 2.488.312 4.986.312 7.49" style="fill:#c3fa7d"/><path d="M221.794 254.947v112.23H256v-112.23c0-2.505-.124-5.002-.312-7.49h-34.206c.188 2.488.312 4.986.312 7.49" style="fill:#a5f069"/><path d="M349.193 78.732a8.016 8.016 0 0 0-7.679-10.32H328.22l12.582-58.715A8.017 8.017 0 0 0 332.962 0h-68.411a8.015 8.015 0 0 0-7.838 6.338L256 9.662l-.713-3.324A8.016 8.016 0 0 0 247.448 0h-68.411a8.017 8.017 0 0 0-7.839 9.696l19.913 92.921h-20.624a8.02 8.02 0 0 0-7.507 10.832l50.798 135.462v155.534c0 5.008-2.385 9.084-4.386 11.62-10.851 13.755-15.019 31.643-11.438 49.076 4.639 22.576 22.89 40.886 45.414 45.564a61.5 61.5 0 0 0 12.537 1.294c13.64 0 26.847-4.592 37.514-13.272 13.922-11.327 21.906-28.107 21.906-46.038 0-13.406-4.392-26.066-12.702-36.606-2.007-2.547-4.401-6.635-4.401-11.643V248.633zm-59.832 143.64-28.706-76.55 18.412-61.377h51.672zM271.032 16.034h52.014l-11.224 52.377h-38.719c-1.547 0-3 .464-4.247 1.246l-4.657-21.734zm-82.078 0h52.014l17.451 81.44-7.065 23.547-4.951-13.204a8.02 8.02 0 0 0-7.506-5.201h-31.389zm110.337 436.657c0 13.085-5.829 25.331-15.991 33.601-10.161 8.267-23.528 11.443-36.673 8.715-16.349-3.396-29.599-16.695-32.968-33.093-2.667-12.98.288-25.735 8.319-35.918 5.123-6.495 7.832-13.946 7.832-21.551V255.474H256a8.017 8.017 0 0 0 8.017-8.017A8.017 8.017 0 0 0 256 239.44h-28.65l-45.296-120.789h51.287l48.848 130.259v155.531c0 7.6 2.712 15.058 7.842 21.568 6.059 7.686 9.26 16.912 9.26 26.682"/><path d="M273.103 444.674a8.017 8.017 0 0 0-8.017 8.017c0 5.01-4.076 9.086-9.086 9.086a8.017 8.017 0 0 0 0 16.034c13.851 0 25.12-11.269 25.12-25.12a8.02 8.02 0 0 0-8.017-8.017"/></svg>