<svg xmlns="http://www.w3.org/2000/svg" xml:space="preserve" viewBox="0 0 512.001 512.001"><path d="m271.763 59.606 8.517-42.433c.936-4.666-2.632-9.02-7.39-9.02h-42.469c-4.76 0-8.328 4.358-7.39 9.025l8.538 42.429h40.194z" style="fill:#91695f"/><path d="M251.618 8.153H230.42c-4.76 0-8.329 4.358-7.39 9.025l8.538 42.429h21.197l-8.538-42.429c-.937-4.667 2.63-9.025 7.391-9.025" style="fill:#875550"/><path d="M282.921 51.03 181.48 43.228a3.48 3.48 0 0 0-3.747 3.47v9.998c0 2.207 1.315 4.2 3.343 5.069l26.519 11.365c7.419 3.18 11.666 11.078 10.324 19.037C198.474 207.428 99.466 247.068 99.466 364.705c0 57.457 31.016 107.583 77.167 134.801 5.078 2.994 10.962 4.342 16.856 4.342h125.025c5.894 0 11.778-1.348 16.856-4.342 46.151-27.218 77.167-77.344 77.167-134.801 0-128.086-117.383-163.695-121.631-305.141-.136-4.475-3.522-8.191-7.985-8.534" style="fill:#faebc8"/><path d="M190.778 351.141c0-126.151 56.029-159.957 66.706-294.289.337-4.243-2.881-8-7.125-8.327l-68.88-5.298a3.48 3.48 0 0 0-3.747 3.47v9.998c0 2.207 1.315 4.2 3.343 5.069l26.519 11.365c7.419 3.18 11.667 11.078 10.324 19.037C198.474 207.428 99.466 247.068 99.466 364.705c0 57.458 31.017 107.585 77.17 134.802 5.077 2.994 10.96 4.341 16.853 4.341h41.438c4.701 0 7.131-5.506 3.994-9.007-29.949-33.422-48.143-86.753-48.143-143.7" style="fill:#f5dcb4"/><path d="M335.368 499.505c46.152-27.218 77.167-77.344 77.167-134.801 0-63.214-28.594-103.906-58.065-145.909-7.597 2.549-11.618 6.767-24.689 6.767-18.665 0-18.665-8.696-37.329-8.696-18.633 0-18.633 8.696-37.267 8.696-18.63 0-18.63-8.696-37.259-8.696-18.627 0-18.627 8.696-37.254 8.696-12.351 0-16.574-3.8-23.428-6.369-29.371 41.863-57.779 82.499-57.779 145.511 0 57.457 31.016 107.583 77.167 134.801 5.077 2.994 10.961 4.342 16.855 4.342h125.026c5.894 0 11.779-1.348 16.855-4.342" style="fill:#ffc850"/><path d="M238.92 494.84c-29.948-33.421-48.142-86.752-48.142-143.699 0-58.003 11.851-96.481 25.686-134.186-17.038.484-17.713 8.608-35.791 8.608-12.351 0-16.574-3.8-23.428-6.369-29.371 41.863-57.779 82.499-57.779 145.511 0 57.457 31.016 107.583 77.167 134.801 5.077 2.994 10.961 4.342 16.855 4.342h41.438c4.702-.001 7.132-5.507 3.994-9.008" style="fill:#ebaf46"/><path d="m279.59 292.574-94.028 54.021c-4.372 2.512-9.432-2.025-7.344-6.615 12.035-26.442 44.136-78.344 101.372-47.406" style="fill:#aab955"/><ellipse cx="247.304" cy="390.794" rx="26.089" ry="34.786" style="fill:#5b5d6e"/><path d="M252.211 424.747c6.957-2.721 6.602-12.398.334-16.462-7.928-5.14-15.024-15.511-15.024-26.436 0-11.687-6.084-16.427-9.733-12.641-4.303 4.463-6.572 13.303-6.572 21.588 0 19.211 11.68 34.786 26.089 34.786 1.945-.002 3.562-.31 4.906-.835" style="fill:#464655"/><ellipse cx="299.483" cy="364.705" rx="26.089" ry="34.786" style="fill:#5b5d6e"/><path d="M304.389 398.658c6.957-2.721 6.602-12.398.334-16.462-7.928-5.14-15.024-15.511-15.024-26.436 0-11.687-6.084-16.427-9.733-12.641-4.303 4.463-6.572 13.303-6.572 21.588 0 19.211 11.68 34.786 26.089 34.786 1.945-.003 3.563-.31 4.906-.835" style="fill:#464655"/><path d="M361.23 214.233c-4.701-6.701-9.428-13.439-14.062-20.31.385-18.884 9.686-33.051 19.545-48.016 9.434-14.322 19.19-29.13 19.19-47.529 0-15.075-10.374-37.503-38.952-37.503-11.027 0-20.985 5.225-29.772 9.836-5.946 3.12-11.626 6.097-16.841 7.151a236 236 0 0 1-1.285-18.543c-.261-8.699-6.928-15.758-15.507-16.418l-.665-.051 7.176-32.963A8.156 8.156 0 0 0 282.09 0h-60.875a8.15 8.15 0 0 0-7.966 9.886l6.111 28.076-41.002-3.154a8.15 8.15 0 0 0-6.165 2.147 8.16 8.16 0 0 0-2.613 5.982V60.33a8.15 8.15 0 0 0 4.941 7.494l29.861 12.797c3.962 1.698 6.222 5.887 5.497 10.188-8.699 51.565-34.327 88.093-59.11 123.419-29.231 41.664-59.456 84.746-59.456 150.476 0 29.164 7.743 57.816 22.392 82.857 14.197 24.268 34.525 44.658 58.785 58.966 6.07 3.581 13.332 5.473 20.997 5.473h125.026c7.667 0 14.927-1.893 20.997-5.472 24.261-14.308 44.589-34.698 58.785-58.966 14.649-25.042 22.392-53.694 22.392-82.858.001-65.729-30.226-108.809-59.457-150.471M324.755 85.15c7.81-4.098 15.187-7.969 22.195-7.969 22.389 0 22.647 20.332 22.647 21.197 0 13.512-7.646 25.118-16.5 38.558-7.084 10.753-14.805 22.482-19.039 36.528-13.87-23.079-25.597-48.51-31.336-79.459 7.796-1.395 15.011-5.171 22.033-8.855m-93.422-68.844h40.638l-5.504 25.281-30.135-2.318zm-5.375 77.216c1.981-11.747-4.249-23.214-15.152-27.887l-24.92-10.679v-3.213l96.409 7.416c.276.022.451.347.46.649 2.033 67.685 28.858 111.559 57.043 152.219-1.483.652-2.799 1.325-4.005 1.943-3.9 1.997-6.718 3.441-13.19 3.441-6.455 0-9.254-1.444-13.129-3.442-4.541-2.342-10.191-5.255-20.603-5.255-10.4 0-16.044 2.915-20.579 5.257-3.867 1.996-6.659 3.439-13.098 3.439-6.435 0-9.228-1.443-13.091-3.439-4.534-2.343-10.178-5.257-20.577-5.257-10.398 0-16.04 2.915-20.575 5.258-3.863 1.996-6.655 3.438-13.089 3.438-6.442 0-9.248-1.441-13.133-3.435a93 93 0 0 0-2.888-1.435c23.248-33.51 45.732-69.317 54.117-119.018m158.264 345.806c-12.797 21.875-31.121 40.256-52.994 53.155-3.562 2.101-7.959 3.212-12.714 3.212H193.488c-4.756 0-9.152-1.11-12.714-3.212-21.873-12.899-40.198-31.279-52.994-53.153-13.19-22.546-20.161-48.351-20.161-74.624 0-59.301 26.299-98.037 54.662-138.491 1.73.589 3.25 1.366 5.003 2.266 4.543 2.333 10.197 5.235 20.58 5.235 10.398 0 16.04-2.915 20.575-5.258 3.863-1.996 6.655-3.438 13.089-3.438s9.228 1.443 13.092 3.439c4.534 2.343 10.178 5.257 20.576 5.257 10.4 0 16.045-2.915 20.58-5.257 3.867-1.996 6.659-3.439 13.097-3.439 6.455 0 9.255 1.444 13.13 3.442 4.541 2.342 10.191 5.255 20.602 5.255 10.404 0 16.07-2.901 20.622-5.232 2.155-1.103 3.963-2.022 6.235-2.634 28.462 40.586 54.921 79.375 54.921 138.855 0 26.272-6.972 52.076-20.161 74.622"/><path d="M325.572 460.909H186.429a8.153 8.153 0 0 0-8.153 8.153 8.153 8.153 0 0 0 8.153 8.153h139.142a8.153 8.153 0 0 0 8.153-8.153 8.15 8.15 0 0 0-8.152-8.153M245.124 318.076c-3.151 8.799-5.356 19.056-5.98 30.965-15.05 4.516-26.276 21.516-26.276 41.754 0 23.676 15.361 42.938 34.242 42.938 16.208 0 29.812-14.199 33.342-33.195 5.408 4.485 11.881 7.106 18.836 7.106 18.881 0 34.242-19.263 34.242-42.938 0-21.188-12.304-38.828-28.421-42.305a101 101 0 0 0-5.265-10.657c-4.945-8.653-10.541-15.344-16.698-19.976 5.594-4.349 9.957-6.242 10.507-6.47a8.15 8.15 0 0 0 4.507-10.583 8.15 8.15 0 0 0-10.598-4.542c-.792.316-8.691 3.601-17.899 11.598-16.781-7.243-32.808-7.847-47.742-1.772-35.902 14.608-51.333 62.915-51.972 64.965a8.15 8.15 0 0 0 7.785 10.581 8.14 8.14 0 0 0 4.06-1.084zm1.984 99.351c-9.723 0-17.936-12.197-17.936-26.633s8.214-26.633 17.936-26.633 17.936 12.197 17.936 26.633-8.213 26.633-17.936 26.633m70.115-52.722c0 14.436-8.214 26.633-17.936 26.633s-17.936-12.197-17.936-26.633c0-14.427 8.203-26.616 17.918-26.632l.017.001.018-.001c9.715.014 17.919 12.205 17.919 26.632m-29.221-40.532c-10.961 4.812-19.389 16.425-22.057 30.787-3.16-2.621-6.683-4.606-10.456-5.799 1.271-21.059 8.281-35.735 15.975-45.65 7.245 4.558 12.971 13.496 16.538 20.662m-59.891-29.089c4.824-1.957 9.783-2.937 14.925-2.937 3.794 0 7.687.534 11.696 1.603l-59.318 34.079c7.027-12.459 17.858-26.727 32.697-32.745"/></svg>