<svg xmlns="http://www.w3.org/2000/svg" width="512" height="512" viewBox="0 0 512.322 512.322"><path d="M316.583 66.636a7.5 7.5 0 0 0-7.5 7.5v170.738c.307 9.916 14.696 9.909 15 0V74.136a7.5 7.5 0 0 0-7.5-7.5"/><path fill="#766e6e" d="M256.161 292.095c-78.5 0-142.137-63.637-142.137-142.137S177.661 7.821 256.161 7.821s142.137 63.637 142.137 142.137c0 78.501-63.637 142.137-142.137 142.137"/><path fill="#5b5555" d="M256.161 7.822c-6.789 0-13.466.476-20 1.396 69.03 9.721 122.137 69.029 122.137 140.74s-53.107 131.019-122.137 140.74c6.534.92 13.212 1.396 20 1.396 78.5 0 142.137-63.637 142.137-142.137 0-78.498-63.637-142.135-142.137-142.135"/><g fill="#f9f3f1"><path d="M196.177 143.97h56.65s.502 28.352-28.333 28.352c-29.954 0-28.317-28.352-28.317-28.352M316.583 74.147c0-7.762-9.384-11.649-14.873-6.161a80.82 80.82 0 0 0-23.672 57.15v65.514c0 9.563 7.752 17.315 17.315 17.315h21.23z"/></g><path fill="#f9f3f1" d="M471.209 504.822H41.113c-18.475 0-33.452-14.977-33.452-33.452V278.718c0-18.475 14.977-33.452 33.452-33.452h430.096c18.475 0 33.452 14.977 33.452 33.452V471.37c0 18.475-14.977 33.452-33.452 33.452"/><path fill="#f3eae6" d="M471.209 245.266h-40c18.475 0 33.452 14.977 33.452 33.452V471.37c0 18.475-14.977 33.452-33.452 33.452h40c18.475 0 33.452-14.977 33.452-33.452V278.718c0-18.475-14.977-33.452-33.452-33.452"/><path d="M471.209 237.766h-93.872C465.424 114.055 336.043-46.724 196.3 12.778a7.5 7.5 0 0 0 6.005 13.745C333.81-28.947 450.02 128.604 358.227 237.766h-34.144V74.136c0-13.947-17.691-21.45-27.676-11.463-16.682 16.681-25.869 38.861-25.869 62.453v65.514c0 13.683 11.132 24.815 24.815 24.815h13.73v22.312h-77.217v-58.32c16.702-3.016 28.627-18.69 28.627-35.476V67.332c-.298-9.895-14.691-9.928-15 0v69.138h-13.627V67.332a7.5 7.5 0 0 0-15 0v69.138h-13.627V67.332c-.298-9.895-14.691-9.928-15 0v76.638c0 16.786 11.925 32.461 28.627 35.476v58.32h-62.771c-47.528-53.059-41.797-141.351 12.098-187.974a7.5 7.5 0 1 0-10.028-11.156c-56.35 48.892-65.969 139.654-21.18 199.13H41.113c-22.581 0-40.952 18.371-40.952 40.952v192.651c0 22.581 18.371 40.952 40.952 40.952h350.055a7.5 7.5 0 0 0 0-15H41.113c-14.31 0-25.952-11.642-25.952-25.952V278.718c0-14.31 11.642-25.952 25.952-25.952h430.096c14.31 0 25.952 11.642 25.952 25.952v192.651c0 14.31-11.642 25.952-25.952 25.952h-40.183c-9.961.309-9.861 14.722 0 15h40.183c22.581 0 40.952-18.371 40.952-40.952V278.718c0-22.58-18.371-40.952-40.952-40.952m-175.856-37.312c-5.412 0-9.815-4.403-9.815-9.815v-65.514c0-19.585 7.627-37.999 21.476-51.847.684-.684 2.07-.343 2.07.857v126.319zm-51.431-48.984a26 26 0 0 1-1.299 3.124c-7.926 13.915-28.588 13.909-36.511.003a26 26 0 0 1-1.301-3.127z"/><path d="m153.57 365.397 4.408-11.574h29.953l4.36 11.552a7.5 7.5 0 1 0 14.034-5.296l-24.858-65.87-.082-.208a8.985 8.985 0 0 0-8.346-5.582 8.98 8.98 0 0 0-8.333 5.601q-.035.085-.067.171l-25.086 65.867a7.5 7.5 0 0 0 4.339 9.678c3.597 1.372 8.293-.704 9.678-4.339m19.453-51.076 9.247 24.503h-18.579zM361.254 365.376a7.5 7.5 0 1 0 14.034-5.296l-24.858-65.87-.081-.206c-1.397-3.396-4.673-5.588-8.345-5.584s-6.944 2.202-8.334 5.601q-.035.085-.067.171l-25.086 65.867a7.5 7.5 0 0 0 4.339 9.678c3.598 1.371 8.294-.705 9.678-4.339l4.408-11.574h29.953zm-28.599-26.552 9.332-24.503 9.247 24.503zM396.981 288.885a7.5 7.5 0 0 0-5.268 7.16v66.683c.307 9.916 14.696 9.909 15 0v-42.624l31.417 45.494c2.237 3.232 5.954 4.612 9.475 3.513 3.598-1.124 5.922-4.513 5.922-8.707l-.624-64.557c-.037-4.143-3.438-7.47-7.572-7.427a7.5 7.5 0 0 0-7.427 7.572l.42 43.491-32.94-47.7a7.5 7.5 0 0 0-8.403-2.898M261.142 362.63a7.5 7.5 0 0 0-7.499-7.458h-.043c-5.498.031-11.405.053-15.852.056V295.92c-.307-9.916-14.696-9.909-15 0v66.751a7.5 7.5 0 0 0 6.234 7.393c4.288.358 15.426.091 24.702.107a7.5 7.5 0 0 0 7.458-7.541M58.794 295.92v66.808c.307 9.916 14.696 9.909 15 0V295.92c-.307-9.916-14.696-9.909-15 0M292.084 362.728V295.92c-.307-9.916-14.696-9.909-15 0v66.808c.307 9.916 14.696 9.909 15 0M114.132 370.228a7.5 7.5 0 0 0 7.5-7.5V303.42h11.022c9.916-.307 9.909-14.696 0-15H95.759c-9.916.307-9.909 14.696 0 15h10.873v59.308a7.5 7.5 0 0 0 7.5 7.5M136.847 403.105c9.916-.307 9.909-14.696 0-15h-26.879a7.5 7.5 0 0 0-7.5 7.5v66.318c.307 9.916 14.696 9.909 15 0v-26.287h17.244c9.916-.307 9.909-14.696 0-15h-17.244v-17.531zM352.665 466.509q2.45 2.183 5.335 2.171l18.841-.144c44.053-.817 44.091-80.364-.668-79.688h-18.361c-4.205 0-7.5 3.4-7.5 7.567v63.711q.104 3.477 2.353 6.383m23.509-62.661c13.773 0 18.681 12.871 18.681 24.916 0 16.893-9.178 24.615-18.201 24.773l-11.226.086-.101-49.775zM197.83 469.668c22.555 0 40.904-18.349 40.904-40.904-2.056-54.19-79.76-54.175-81.808.001 0 22.554 18.349 40.903 40.904 40.903m0-66.808c14.283 0 25.904 11.621 25.904 25.904-1.303 34.318-50.51 34.308-51.808 0 0-14.283 11.621-25.904 25.904-25.904M294.523 469.668c22.555 0 40.904-18.349 40.904-40.904-2.056-54.19-79.76-54.175-81.808.001 0 22.554 18.349 40.903 40.904 40.903m0-66.808c14.283 0 25.904 11.621 25.904 25.904-1.303 34.318-50.51 34.308-51.808 0 0-14.283 11.621-25.904 25.904-25.904M150.455 157.459c9.652 0 9.668-15 0-15-9.652 0-9.668 15 0 15M361.868 142.459c-9.652 0-9.668 15 0 15 9.651 0 9.667-15 0-15"/></svg>