<svg xmlns="http://www.w3.org/2000/svg" width="512" height="512" viewBox="0 0 512.006 512.006"><circle cx="112.278" cy="318.985" r="40.974" fill="#fd4755"/><path fill="#fb2b3a" d="M112.278 278.011a40.8 40.8 0 0 0-20 5.205c12.515 7.013 20.974 20.403 20.974 35.77s-8.459 28.757-20.974 35.769a40.8 40.8 0 0 0 20 5.205c22.629 0 40.974-18.344 40.974-40.974s-18.345-40.975-40.974-40.975"/><path fill="#cdbfba" d="M489.569 54.072H283.15c-9.619 0-18.833-3.919-25.475-10.878-11.255-11.792-28.688-12.204-28.688-12.204h-21.046v76.031h21.046s17.433-.411 28.688-12.204a35.2 35.2 0 0 1 25.475-10.878h206.419c8.248 0 14.934-6.686 14.934-14.934s-6.686-14.933-14.934-14.933"/><path fill="#fed402" d="M209.106 356.746c22.007-62.838 91.034-96.057 153.872-74.049s96.057 91.034 74.049 153.872z"/><circle cx="365.72" cy="301.779" r="40.974" fill="#fd4755"/><path fill="#fb2b3a" d="M365.72 260.805a40.8 40.8 0 0 0-20 5.205c12.515 7.013 20.974 20.403 20.974 35.77s-8.459 28.757-20.974 35.77a40.8 40.8 0 0 0 20 5.205c22.629 0 40.974-18.345 40.974-40.974s-18.345-40.976-40.974-40.976"/><path fill="#fee97d" d="M237.941 366.845c16.439-46.939 68-71.752 114.939-55.313s71.752 68 55.313 114.939z"/><path fill="#fed402" d="M266.776 376.943c10.871-31.039 44.967-47.448 76.006-36.577s47.448 44.967 36.577 76.006z"/><path fill="#fed402" d="M45.059 455.488c0-83.56 67.739-151.3 151.3-151.3s151.3 67.739 151.3 151.3z"/><path fill="#fee97d" d="M75.611 455.488c0-66.581 54.167-120.748 120.748-120.748s120.748 54.167 120.748 120.748z"/><path fill="#fed402" d="M180.67 22.006c0-8.082-6.608-14.604-14.689-14.499-7.934.104-14.311 6.564-14.311 14.499v401.445h29z"/><path fill="#fee97d" d="M209.67 22.006c0-7.934-6.377-14.395-14.311-14.499-8.081-.105-14.689 6.417-14.689 14.499v401.445h29z"/><path fill="#fed402" d="M106.163 455.488c0-49.734 40.461-90.196 90.196-90.196s90.196 40.461 90.196 90.196z"/><path fill="#fee97d" d="M136.715 455.488c0-32.888 26.756-59.644 59.644-59.644s59.644 26.756 59.644 59.644z"/><path fill="#fed402" d="M167.267 455.488c0-16.041 13.051-29.092 29.092-29.092s29.092 13.051 29.092 29.092z"/><circle cx="265.278" cy="450.942" r="40.974" fill="#fd4755"/><path fill="#fb2b3a" d="M265.278 409.968a40.8 40.8 0 0 0-20 5.205c12.515 7.013 20.974 20.403 20.974 35.77 0 15.366-8.459 28.757-20.974 35.769a40.8 40.8 0 0 0 20 5.205c22.629 0 40.974-18.345 40.974-40.974 0-22.63-18.344-40.975-40.974-40.975"/><path fill="#fee97d" d="M286.555 455.488c0-49.734 40.461-90.196 90.196-90.196s90.196 40.461 90.196 90.196z"/><path fill="#fed402" d="M317.107 455.488c0-32.888 26.756-59.644 59.644-59.644s59.644 26.756 59.644 59.644z"/><path fill="#fee97d" d="M347.659 455.488c0-16.041 13.051-29.092 29.092-29.092s29.092 13.051 29.092 29.092z"/><path fill="#f9f3f1" d="m484.003 455.626-42.215 35.045a60 60 0 0 1-38.325 13.835h-294.92a60 60 0 0 1-38.325-13.835l-42.215-35.045z"/><path fill="#f3eae6" d="m434.003 455.626-42.215 35.045a60 60 0 0 1-38.325 13.835h50a60 60 0 0 0 38.325-13.835l42.215-35.045z"/><path fill="#fee97d" d="M137.17 131.328c-8.008 0-14.5-6.492-14.5-14.5V22.006c0-8.008 6.492-14.5 14.5-14.5s14.5 6.492 14.5 14.5v94.822c0 8.008-6.492 14.5-14.5 14.5"/><path fill="#fed402" d="M108.17 131.328c-8.008 0-14.5-6.492-14.5-14.5V22.006c0-8.008 6.492-14.5 14.5-14.5s14.5 6.492 14.5 14.5v94.822c0 8.008-6.492 14.5-14.5 14.5"/><path d="M504.503 448.126h-30.332c-1.585-21.176-9.95-40.491-22.925-55.777-1.126-32.184-14.568-63.229-37.258-86.125 3.839-45.533-52.56-70.995-83.583-37.617-34.396-1.965-68.127 10.013-93.704 33.266a158 158 0 0 0-19.532-3.831v-183.52h11.817q.088 0 .177-.002c.838-.02 20.689-.645 33.937-14.524 5.189-5.438 12.497-8.556 20.049-8.556h206.418c29.653-1.097 29.775-43.721 0-44.868H283.149c-7.553 0-14.86-3.118-20.05-8.556-13.247-13.879-33.098-14.504-33.937-14.524l-.177-.002H217.17c.739-12.474-9.159-23.361-21.713-23.482-5.483-.059-10.694 1.858-14.787 5.452-4.095-3.594-9.316-5.506-14.786-5.452-5.422.071-10.387 2.134-14.196 5.481-7.675-7.216-21.335-7.222-29.017-.015C108.095-7.389 84.996 3.962 86.17 23.49H72.318a7.5 7.5 0 0 0 0 15H86.17v10.263H72.318a7.5 7.5 0 0 0 0 15H86.17v9.575H72.318a7.5 7.5 0 0 0 0 15H86.17v11.193H72.318a7.5 7.5 0 0 0 0 15H86.17c-1.674 19.917 21.506 31.949 36.5 18.837 5.445 4.993 14.312 6.888 21.5 4.327V282.42c-47.1-38.335-107.131 22.639-67.836 69.1a157 157 0 0 0-7.222 8.95c-19.171 25.634-29.947 55.8-31.386 87.655H7.503c-9.912.305-9.913 14.695 0 15h17.793l40.132 33.315a67.64 67.64 0 0 0 43.115 15.564h235.809a7.5 7.5 0 0 0 0-15H108.543a52.6 52.6 0 0 1-33.534-12.105L48.78 463.125h414.447l-26.229 21.774a52.6 52.6 0 0 1-33.534 12.105h-19.125a7.5 7.5 0 0 0 0 15h19.125a67.64 67.64 0 0 0 43.115-15.564l40.132-33.315h17.793c9.912-.304 9.91-14.694-.001-14.999m-127.752-29.23c-17.656 0-32.431 12.569-35.848 29.23h-15.778c9.643-59.334 93.631-59.291 103.251 0h-15.778c-3.416-16.661-18.191-29.23-35.847-29.23m20.299 29.23h-40.599c6.887-18.86 33.72-18.848 40.599 0m-20.299-59.782c-34.536 0-63.065 26.209-66.742 59.782H294.38c12.431-99.683 152.429-99.745 164.742 0h-15.628c-3.678-33.573-32.207-59.782-66.743-59.782M144.17 372.931c-25.379 16.101-42.865 43.574-45.231 75.195h-15.59c2.132-38.801 26.296-75.513 60.822-93.134v17.939zm11.041 10.844c35.179-18.87 78.863-12.236 104.797 18.979a48.1 48.1 0 0 0-16.554 4.912c-39.186-39.456-108.407-14.352-113.836 40.46H113.99c2.437-27.525 18.421-51.218 41.221-64.351m61.959-39.623c33.328 6.181 62.013 26.915 78.484 56.913a98 98 0 0 0-5.114 8.495 48.2 48.2 0 0 0-10.765-4.887c-14.038-22.969-36.829-38.964-62.605-44.622zm-20.811 59.192a52 52 0 0 1 34.722 13.275 48.7 48.7 0 0 0-9.177 12.692c-20.249-20.246-55.957-9.135-61.392 18.814h-15.778c3.587-25.278 25.371-44.781 51.625-44.781m0 30.552c9.322 0 17.283 5.938 20.3 14.23H176.06c3.016-8.292 10.977-14.23 20.299-14.23m35.651 13.327c2.448-24.766 31.995-38.372 52.427-23.735a97 97 0 0 0-5.107 24.638h-47.123a39 39 0 0 0-.197-.903m118.391-128.612c20.456 7.164 37.162 22.14 46.7 41.313a97.7 97.7 0 0 0-19.305-2.126c-8.015-11.293-19.425-19.919-32.535-24.51-15.227-5.333-31.582-5.019-46.516.813a159 159 0 0 0-14.107-10.618c20.188-10.582 44.028-12.485 65.763-4.872m-10.098 28.834a52.2 52.2 0 0 1 19.142 11.882 97 97 0 0 0-29.423 10.383 159 159 0 0 0-18.755-23.835c9.565-2.247 19.581-1.742 29.036 1.57m94.213 29.299a97.7 97.7 0 0 0-18.751-10.822 98 98 0 0 0-15.982-29.657 48.6 48.6 0 0 0 9.421-13.083c12.983 15.298 21.74 33.883 25.312 53.562M365.72 268.305c29.538-.002 44.468 35.843 23.904 56.904-15.649-14.613-35.974-23.785-57.295-25.791 1.216-17.36 15.727-31.113 33.391-31.113m-44.864 15.116a48.2 48.2 0 0 0-3.54 15.744 98.1 98.1 0 0 0-47.409 15.569 159 159 0 0 0-16.385-7.422c19.328-15.027 42.937-23.406 67.334-23.891m-3.405 94.475a98.6 98.6 0 0 0-11.75 10.604c-19.511-31.869-51.638-53.553-88.531-59.573v-15.741c41.093 5.975 77.748 29.605 100.281 64.71M228.86 38.49c.951.044 14.792.874 23.389 9.882 8.006 8.388 19.269 13.199 30.901 13.199h206.418c9.827.314 9.82 14.558 0 14.868H283.15c-11.632 0-22.895 4.811-30.9 13.199-8.622 9.033-22.459 9.838-23.391 9.882H217.17V38.49zm-62.782-23.483q6.472.534 7.091 6.999v135.961a7.5 7.5 0 0 0 15 0V22.006q.62-6.464 7.092-6.999c3.809.049 6.908 3.189 6.908 6.999v335.96a98 98 0 0 0-14 .166v-160.46a7.5 7.5 0 0 0-15 0v162.9a97 97 0 0 0-14 4.574V22.006c.001-3.81 3.1-6.95 6.909-6.999m-57.908 108.82c-3.86 0-7-3.14-7-7V22.006c.295-9.253 13.708-9.247 14 0v94.821c0 3.86-3.141 7-7 7m29 0c-3.86 0-7-3.14-7-7V22.006c.295-9.253 13.708-9.247 14 0v94.821c0 3.86-3.141 7-7 7m-24.892 161.684c13.573 0 25.591 8.056 30.806 20.341-20.906 7.466-40.211 19.432-56.344 34.785-18.403-21.273-2.685-55.355 25.538-55.126m-31.154 83.944c16.07-21.488 38.195-38.272 63.046-47.996v16.884c-43.026 18.746-73.656 62.822-75.85 109.784H52.743c1.427-28.59 11.165-55.653 28.381-78.672"/></svg>