<svg xmlns="http://www.w3.org/2000/svg" width="512" height="512" viewBox="0 0 512.112 512.112"><path fill="#766e6e" d="M355.658 355.664c66.805-66.805 77.575-168.426 32.311-246.457l12.044-20.677c7.266-12.474 5.216-28.278-4.992-38.486l-22.168-22.168c-10.208-10.208-26.012-12.258-38.486-4.992L313.69 34.928C235.658-10.336 134.038.434 67.233 67.239s-77.575 168.426-32.311 246.457l-12.044 20.677c-7.266 12.474-5.216 28.278 4.992 38.486l22.168 22.168c10.208 10.208 26.012 12.258 38.486 4.992l20.677-12.044c78.031 45.265 179.651 34.495 246.457-32.311"/><circle cx="211.445" cy="211.452" r="172.151" fill="#fee97d"/><path fill="#fee45a" d="M333.175 89.722c-38.646-38.646-91.244-55.04-141.729-49.185 37.2 4.314 73.253 20.709 101.729 49.185 67.122 67.122 67.122 176.337 0 243.459-28.476 28.476-64.529 44.871-101.729 49.185 50.485 5.855 103.084-10.54 141.729-49.185 67.121-67.122 67.121-176.337 0-243.459"/><ellipse cx="441.175" cy="402.04" fill="#dc8758" rx="116.116" ry="31.954" transform="rotate(-60.66 441.406 401.943)"/><path fill="#d77f4a" d="M498.023 300.792c-5.639-3.166-14.306-.024-24.568 7.979 5.02 18.528-8.35 62.486-34.417 108.914-19.89 35.426-42.401 63.791-60.142 77.626 1.026 3.787 2.821 6.513 5.432 7.979 15.388 8.64 53.314-29.687 84.71-85.605s44.373-108.253 28.985-116.893"/><ellipse cx="392.147" cy="268.503" fill="#fed2a4" rx="116.116" ry="31.954" transform="rotate(-15.2 392.245 268.158)"/><path fill="#ffbd86" d="M504.178 237.975c-3.047-11.18-27.342-15.077-61.185-11.662 11.911 1.818 19.562 5.707 21.185 11.662 4.64 17.027-41.757 44.498-103.63 61.358-21.244 5.789-41.551 9.574-59.247 11.361 22.145 3.38 59.014-.397 99.247-11.361 61.873-16.861 108.27-44.332 103.63-61.358"/><ellipse cx="344.92" cy="436.611" fill="#ffbd86" rx="116.116" ry="31.954" transform="rotate(-32.44 345.146 436.998)"/><path fill="#f6a96c" d="M442.914 374.321c-4.719-7.425-19.897-7.217-40.638-.88q.345.421.638.88c9.467 14.893-26.732 54.855-80.853 89.257-27.141 17.252-53.634 29.829-74.498 36.204 10.952 13.354 61.491-2.51 114.498-36.204 54.121-34.402 90.32-74.364 80.853-89.257"/><path d="M400.01 307.244c29.47-7.643 118.372-36.405 111.405-71.241-3.307-12.132-18.773-18.318-45.972-18.386-12.691-.043-27.244 1.283-42.782 3.835 1.886-39.312-7.038-77.825-26.043-112.192l9.875-16.955c8.972-15.402 6.435-34.961-6.169-47.564l-22.167-22.168c-12.604-12.603-32.162-15.142-47.564-6.169l-16.956 9.876C278.801 7.025 239.379-1.937 199.337.35c-41.823 2.384-81.546 16.907-114.875 41.999-7.747 5.832 1.274 17.815 9.021 11.983 30.955-23.303 67.854-36.791 106.708-39.006 38.572-2.196 76.52 6.823 109.735 26.09a7.5 7.5 0 0 0 7.538-.006l20.678-12.044c9.522-5.547 21.616-3.979 29.408 3.814l22.168 22.168c7.792 7.792 9.36 19.885 3.814 29.408l-12.044 20.678a7.5 7.5 0 0 0-.007 7.538c19.619 33.824 28.562 72.192 25.996 111.302a419 419 0 0 0-17.244 3.95c5.117-52.622-14.149-106.542-51.756-143.803-66.741-69.581-187.325-69.591-254.065.002-70.046 70.044-70.046 184.018 0 254.063 66.744 69.579 187.324 69.592 254.065 0a181 181 0 0 0 18.93-22.271 377 377 0 0 0 22.859-4.211c-8.297 13.908-18.316 26.763-29.912 38.359-62.911 62.912-160.531 75.711-237.39 31.127a7.5 7.5 0 0 0-7.538.007l-20.678 12.044c-9.523 5.548-21.615 3.978-29.408-3.814l-22.168-22.168c-7.792-7.792-9.361-19.886-3.814-29.408l12.044-20.677a7.5 7.5 0 0 0 .007-7.538C-1.605 237.87 9.013 139.609 66.809 78.514c6.567-7.135-4.467-17.292-11.036-10.159-61.133 64.638-73.374 168.158-29.501 245.289l-9.876 16.955c-8.971 15.402-6.434 34.961 6.169 47.564l22.168 22.168c12.602 12.604 32.162 15.14 47.564 6.169l16.956-9.876c81.731 45.257 184.87 31.21 251.708-35.657 15.862-15.862 28.987-33.922 39.049-53.723m64.98-74.628h.416c24.128.061 31.023 5.448 31.536 7.33.513 1.883-2.695 10.023-23.458 22.316-40.226 23.039-104.06 41.828-154.597 42.127-24.128-.061-31.023-5.448-31.536-7.33s2.695-10.023 23.458-22.316c19.011-11.256 45.614-21.852 74.908-29.834 25.677-6.997 52.573-12.293 79.273-12.293m-137.12 95.262c-61.159 63.762-171.693 63.771-232.851-.002-64.198-64.196-64.198-168.653 0-232.851 61.157-63.761 171.696-63.772 232.852 0 35.989 35.476 53.336 87.412 46.815 137.407-27.767 8.072-52.951 18.41-71.518 29.403-23.403 13.857-33.594 27.035-30.288 39.167s18.773 18.318 45.972 18.386c5.587.012 11.386-.23 17.555-.719a167 167 0 0 1-8.537 9.209"/><path d="M81.115 171.346c-9.652 0-9.668 15 0 15 9.652 0 9.668-15 0-15M230.913 268.465c-9.652 0-9.668 15 0 15 9.652 0 9.668-15 0-15M217.671 203.952c-9.652 0-9.668 15 0 15 9.651 0 9.667-15 0-15M344.291 226.472c9.652 0 9.668-15 0-15-9.652 0-9.668 15 0 15M121.24 292.369c-9.652 0-9.668 15 0 15 9.652 0 9.668-15 0-15M217.671 83.272c9.652 0 9.668-15 0-15-9.652 0-9.668 15 0 15M283.786 114.509c9.652 0 9.668-15 0-15-9.652 0-9.668 15 0 15M161.358 119.047a7.47 7.47 0 0 0 5.303-2.197 7.5 7.5 0 0 0 0-10.606l-10.347-10.347a7.5 7.5 0 0 0-10.606 0 7.5 7.5 0 0 0 0 10.606l10.347 10.347a7.47 7.47 0 0 0 5.303 2.197M278.613 245.262a7.47 7.47 0 0 0 5.303-2.197l10.348-10.347c2.93-2.929 2.93-7.677.001-10.606s-7.678-2.93-10.606 0l-10.348 10.347a7.5 7.5 0 0 0-.001 10.606 7.47 7.47 0 0 0 5.303 2.197M176.879 280.553a7.47 7.47 0 0 0 5.303-2.197 7.5 7.5 0 0 0 0-10.606l-10.347-10.347a7.5 7.5 0 0 0-10.606 0 7.5 7.5 0 0 0 0 10.606l10.347 10.347a7.48 7.48 0 0 0 5.303 2.197M303.94 176.639h14.633c9.916-.307 9.909-14.696 0-15H303.94c-9.917.307-9.909 14.696 0 15M190.321 322.542h-14.633c-9.916.307-9.909 14.696 0 15h14.633c9.916-.308 9.909-14.696 0-15M107.944 230.72l-13.696-5.152a7.501 7.501 0 0 0-5.282 14.04l13.696 5.152c3.602 1.354 8.291-.74 9.661-4.379a7.5 7.5 0 0 0-4.379-9.661M217.045 137.401a7.5 7.5 0 0 0 4.379 9.661l13.696 5.152c3.602 1.354 8.291-.74 9.661-4.379a7.5 7.5 0 0 0-4.379-9.661l-13.696-5.152a7.5 7.5 0 0 0-9.661 4.379M174.853 172.729a7.5 7.5 0 0 0-9.928-3.734l-13.328 6.042a7.5 7.5 0 0 0-3.734 9.928c1.618 3.569 6.39 5.337 9.928 3.734l13.328-6.042a7.5 7.5 0 0 0 3.734-9.928M253.952 319.194a7.503 7.503 0 0 0-9.661 4.379l-5.152 13.697a7.5 7.5 0 0 0 4.379 9.661c3.602 1.354 8.291-.74 9.661-4.379l5.152-13.697a7.5 7.5 0 0 0-4.379-9.661M501.696 294.252c-9.936-5.578-23.464-.569-40.214 14.885-13.384 12.346-28.287 30.977-42.195 52.71-5.741.783-12.209 2.276-19.395 4.48-44.17 12.981-111.442 55.742-141.944 90.226-18.259 20.158-24.098 35.759-17.352 46.372 19.91 26.488 90.328-11.035 125.489-33.017a437 437 0 0 0 6.803-4.413c-4.134 19.05-4.273 37.574 7.768 44.335 13.786 7.741 30.499-5.994 39.802-14.506a7.5 7.5 0 1 0-10.127-11.065c-13.907 12.727-20.834 13.333-22.331 12.493-1.876-1.054-6.511-11.732 4.102-44.766 9.529-7.124 18.293-14.363 26.021-21.498a7.5 7.5 0 0 0 2.96.582l16.677-.129a7.5 7.5 0 0 0 7.441-7.558c-.03-4.144-3.423-7.476-7.559-7.442l-5.129.04c10.886-12.145 17.216-22.617 18.953-31.32l11.894-.092a7.5 7.5 0 0 0 7.441-7.558c-.03-4.144-3.423-7.476-7.559-7.442l-14.413.112c-2.619-3.76-6.564-6.27-11.813-7.529 30.129-44.813 52.643-57.452 57.334-54.818 11.32 18.614-16.315 79.434-31.854 106.681-8.614 15.345-17.803 29.519-27.309 42.131a7.5 7.5 0 0 0 1.475 10.503q5.556 3.636 10.504-1.475c25.329-33.079 52.526-85.495 61.187-121.858 6.548-26.401 4.307-42.908-6.657-49.064m-80.921 112.347c-18.023 19.895-40.156 36.296-62.737 50.649-25.623 16.288-51.367 28.827-72.489 35.307-23.068 7.078-31.246 3.969-32.293 2.323s-.389-10.372 15.81-28.254c28.711-32.502 93.612-73.756 135.227-85.956 3.757-1.153 28.013-9.05 32.294-2.323 1.044 1.646.387 10.371-15.812 28.254M367.974 263.944a7.5 7.5 0 0 0-10.606 0 7.5 7.5 0 0 0-.001 10.607l11.792 11.793q5.303 4.393 10.606 0a7.5 7.5 0 0 0 .001-10.607zM408.37 249.652a7.5 7.5 0 0 0 .001 10.606l11.793 11.792q5.303 4.393 10.606 0a7.5 7.5 0 0 0-.001-10.606l-11.793-11.792a7.5 7.5 0 0 0-10.606 0"/><path d="m335.232 447.183-14.753-7.778a7.5 7.5 0 1 0-6.996 13.268l14.753 7.778c3.591 1.914 8.192.563 10.133-3.136a7.5 7.5 0 0 0-3.137-10.132M379.729 418.448l-14.753-7.778a7.5 7.5 0 1 0-6.996 13.268l14.753 7.778c3.591 1.914 8.192.563 10.133-3.136a7.5 7.5 0 0 0-3.137-10.132"/></svg>