<svg xmlns="http://www.w3.org/2000/svg" width="512" height="512" viewBox="0 0 511.65 511.65"><path fill="#fed402" d="M255.798 7.503c33.953-.395 56.88 40.002 92.294 65.639 35.106 25.414 74.878 37.567 107.446 69.872 66.027 65.495 66.021 169.534-5.951 234.475-4.509 4.068-10.051 7.011-16.242 7.066L255.894 177.511l-.105.001L78.315 387.72c-6.191.055-11.733-2.788-16.242-6.776-71.965-63.658-71.959-167.697-5.925-234.369 32.572-32.886 72.345-45.748 107.454-71.788 35.417-26.268 58.348-67.074 92.301-67.285z"/><path fill="#fee97d" d="M479.701 279.572c-10.847-107.508-117.53-160.868-222.891-160.584v-.006l-.965.01-.965.007v.006C149.518 120.6 42.829 175.862 31.97 283.564 19.228 409.941 158.474 433.381 228.581 470.315c11.678 6.152 24.03 13.656 31.903 24.578 14.569 20.211 33.463 4.617 22.586-25.063 70.111-38.185 209.359-64.107 196.631-190.258m-223.61 3.129c48.305-.201 96.292 13.214 106.25 40.583 11.186 30.742-46.106 73.431-84.654 97.026-8.166 4.998-15.481 10.143-21.859 15.391-6.378-5.133-13.692-10.148-21.858-15.001-38.546-22.908-95.833-64.576-84.644-95.517 9.962-27.547 57.95-41.818 106.255-42.478"/><path fill="#fee45a" d="M479.701 279.572c-10.847-107.509-117.53-160.868-222.891-160.584v-.006l-.965.01-.965.007v.006c-5.468.083-10.939.31-16.4.682 97.877 6.593 191.119 59.751 201.221 159.885 11.041 109.426-92.269 143.438-165.615 175.455 5.656 8.021 8.984 14.803 8.984 14.803 70.111-38.185 209.359-64.107 196.631-190.258"/><path d="M460.82 137.689c-33.196-32.966-72.119-44.701-108.33-70.623-11.715-8.48-22.124-18.753-32.19-28.688C300.168 18.514 281.179-.244 255.8.002c-39.401.656-65.094 46.64-96.665 68.76-7.578 5.62-15.851 10.99-26.822 17.41a7.501 7.501 0 0 0 7.576 12.946c25.258-14.252 43.294-29.493 62.094-49.057 18.618-18.704 34.704-34.864 53.832-35.059h.055l.104-.001c19.196-.143 35.166 15.697 53.79 34.053 10.466 10.33 21.289 21.011 33.931 30.163 35.394 25.655 75.113 37.844 106.562 69.122 31.005 30.754 47.533 70.844 46.539 112.883a148.1 148.1 0 0 1-9.472 48.76c.992-9.92.936-20.299-.16-31.162-2.192-21.738-8.271-42.177-18.067-60.749a7.5 7.5 0 1 0-13.268 6.998c8.892 16.856 14.413 35.447 16.411 55.257 12.729 111.26-106.806 141.397-185.744 179.243-5.731-10.634-13.11-18.634-18.626-23.704 39.307-25.622 115.886-72.156 101.52-115.145-20.162-58.787-202.955-64.536-227.116 1.913-13.545 37.454 49.236 81.558 87.865 104.515 18.424 10.951 37.495 24.954 45.939 45.4 5.023 13.815 2.003 22.264-.743 23.721-4.216 2.232-12.823-10.785-14.115-12.122-20.508-21.227-52.168-31.572-78.854-42.434-71.394-27.586-154.264-66.838-142.934-157.396C57.982 108.428 335.985 82.29 434.04 194.143a7.5 7.5 0 0 0 10.595.502 7.5 7.5 0 0 0 .501-10.595C329.498 53.672 8.984 101.911 24.375 314.284a146.5 146.5 0 0 1-9.458-47.232c-1.404-42.556 15.131-83.467 46.561-115.199 14.94-15.085 31.525-25.7 45.779-34.094a7.5 7.5 0 1 0-7.612-12.925C-18.408 169.182-35.679 313.231 70.42 398.798c30.205 25.837 70.627 42.291 106.29 56.807 24.555 9.995 54.826 19.404 73.721 38.963 8.29 8.584 17.886 22.406 31.935 14.949 8.731-4.634 14.591-17.336 9.729-35.968 48.217-24.024 106.867-41.081 149.202-78.019 81.677-65.93 97.301-181.16 19.523-257.841M178.209 370.561c-12.615-12.193-26.643-29.521-21.831-42.828 21.719-55.916 187.24-44.011 198.914-1.885 6.9 18.962-25.099 53.529-81.521 88.065-6.519 3.991-12.55 8.101-17.996 12.263-5.439-4.058-11.463-8.054-17.973-11.923-13.954-8.293-40.25-24.995-59.593-43.692"/><path d="M175.637 260.185a7.5 7.5 0 0 0-3.883-14.49c-40.414 10.829-58.15 31.933-65.911 47.73-10.169 20.695-8.24 41.294-3.499 52.646 1.505 3.604 6.243 5.521 9.812 4.03a7.5 7.5 0 0 0 4.03-9.811c-2.843-6.806-5.385-22.942 3.12-40.25 9.165-18.655 28.644-32.437 56.331-39.855"/></svg>