<svg xmlns="http://www.w3.org/2000/svg" width="512" height="512" viewBox="0 0 511.998 511.998"><path fill="#fed402" d="M251.98 269.867a294 294 0 0 0 17.784-17.784c6.083-6.63 5.785-16.905-.577-23.268l-2.546-2.546c7.419 7.419 19.72 6.329 25.765-2.246a262 262 0 0 0 13.775-21.701c3.739-6.592 2.588-14.875-2.771-20.234l-8.713-8.713c8.712 8.712 23.558 5.469 27.784-6.105 3.498-9.582 6.201-19.117 8.086-28.488 1.105-5.491-.68-11.166-4.64-15.127l-6.594-6.594c5.233 5.233 14.22 1.676 14.41-5.722.775-30.133-8.033-57.08-27.322-76.368-19.288-19.288-46.235-28.097-76.368-27.322-7.398.19-10.956 9.177-5.722 14.41l-6.594-6.594c-3.96-3.96-9.636-5.745-15.127-4.64-9.371 1.885-18.906 4.588-28.488 8.087-11.574 4.225-14.817 19.071-6.105 27.784l-8.713-8.713c-5.359-5.359-13.641-6.51-20.234-2.771a262 262 0 0 0-21.701 13.775c-8.575 6.046-9.665 18.346-2.246 25.765l-2.546-2.546c-6.363-6.363-16.637-6.66-23.268-.577a294 294 0 0 0-17.784 17.784c-6.083 6.631-5.785 16.905.577 23.268l2.546 2.546c-7.419-7.419-19.72-6.329-25.765 2.246a262 262 0 0 0-13.775 21.701c-3.739 6.592-2.588 14.875 2.771 20.234l8.713 8.713c-8.712-8.712-23.558-5.469-27.784 6.105-3.498 9.582-6.201 19.117-8.087 28.488-1.105 5.491.68 11.166 4.64 15.127l6.594 6.594c-5.233-5.233-14.22-1.676-14.41 5.722-.775 30.133 8.033 57.08 27.322 76.368s46.235 28.097 76.368 27.322c7.398-.19 10.956-9.177 5.722-14.41l6.594 6.594c3.96 3.96 9.636 5.745 15.127 4.64 9.371-1.885 18.906-4.589 28.488-8.087 11.574-4.225 14.817-19.071 6.105-27.784l8.713 8.713c5.359 5.359 13.641 6.51 20.234 2.771a262 262 0 0 0 21.701-13.775c8.575-6.046 9.665-18.346 2.246-25.765l2.546 2.546c6.364 6.362 16.638 6.66 23.269.577"/><path fill="#fac600" d="M306.421 34.971a86.8 86.8 0 0 0-13.013-10.699c13.701 18.251 19.948 41.534 19.291 67.112-.19 7.398-9.177 10.956-14.41 5.722l6.594 6.594c3.96 3.96 5.745 9.636 4.64 15.127-1.885 9.371-4.589 18.906-8.087 28.488-4.225 11.574-19.071 14.817-27.783 6.105l8.713 8.713c5.359 5.359 6.51 13.641 2.771 20.234a262 262 0 0 1-13.775 21.701c-6.046 8.575-18.346 9.665-25.765 2.246l2.546 2.546c6.362 6.363 6.66 16.637.577 23.268a294 294 0 0 1-17.784 17.784c-6.63 6.083-16.905 5.785-23.268-.577l-2.546-2.546c7.419 7.419 6.329 19.72-2.246 25.765a262 262 0 0 1-21.7 13.775c-6.592 3.739-14.875 2.588-20.234-2.771l-8.713-8.713c8.712 8.712 5.469 23.559-6.105 27.784-9.582 3.498-19.117 6.202-28.488 8.086-5.491 1.105-11.166-.68-15.127-4.64l-6.594-6.594c5.233 5.233 1.676 14.22-5.722 14.41-23.855.614-45.713-4.779-63.355-16.623a87 87 0 0 0 8.031 9.257c19.288 19.288 46.235 28.097 76.368 27.322 7.398-.19 10.955-9.177 5.722-14.41l6.594 6.594c3.96 3.96 9.636 5.745 15.127 4.64 9.371-1.885 18.906-4.589 28.488-8.087 11.574-4.225 14.817-19.071 6.105-27.784l8.713 8.713c5.359 5.359 13.642 6.51 20.234 2.771a262 262 0 0 0 21.7-13.775c8.575-6.045 9.666-18.346 2.246-25.765l2.546 2.546c6.363 6.362 16.637 6.66 23.268.577a294 294 0 0 0 17.784-17.784c6.083-6.63 5.785-16.905-.577-23.268l-2.546-2.546c7.419 7.419 19.72 6.329 25.765-2.246a262 262 0 0 0 13.775-21.7c3.739-6.592 2.588-14.875-2.771-20.234l-8.713-8.713c8.712 8.712 23.559 5.469 27.784-6.105 3.498-9.582 6.202-19.117 8.087-28.488 1.104-5.491-.68-11.166-4.64-15.126l-6.594-6.594c5.233 5.233 14.22 1.676 14.41-5.723.774-30.134-8.034-57.081-27.323-76.369"/><path fill="#fee97d" d="M482.011 278.296a292 292 0 0 0-11.075-22.582c-4.306-7.901-14.124-10.943-22.203-6.981l-3.233 1.586c9.42-4.62 12.368-16.612 6.21-25.106a262 262 0 0 0-16.077-20.054c-5.028-5.671-13.237-7.261-20.042-3.924l-11.063 5.426c11.062-5.425 12.796-20.522 3.212-28.265-7.935-6.41-16.083-12.053-24.34-16.868-4.838-2.822-10.786-2.969-15.814-.503l-8.372 4.106c6.645-3.259 6.186-12.913-.753-15.487-28.262-10.482-56.609-10.865-81.1 1.146s-41.543 34.659-50.559 63.422c-2.213 7.062 5.139 13.335 11.784 10.077l-8.372 4.106c-5.029 2.466-8.553 7.259-9.285 12.812-1.248 9.477-1.775 19.374-1.565 29.572.254 12.318 13.252 20.19 24.314 14.765l-11.064 5.426c-6.805 3.337-10.573 10.802-9.168 18.249a262 262 0 0 0 6.013 24.99c2.946 10.07 14.233 15.081 23.653 10.461l-3.233 1.586c-8.079 3.962-11.685 13.588-8.074 21.83a293 293 0 0 0 11.074 22.581c4.306 7.901 14.125 10.943 22.203 6.981l3.233-1.586c-9.42 4.62-12.368 16.612-6.21 25.106a262 262 0 0 0 16.077 20.054c5.028 5.671 13.237 7.261 20.042 3.924l11.064-5.426c-11.062 5.425-12.796 20.522-3.212 28.265 7.935 6.41 16.083 12.053 24.34 16.868 4.838 2.822 10.786 2.969 15.814.503l8.372-4.106c-6.645 3.259-6.186 12.913.753 15.487 28.262 10.482 56.609 10.865 81.1-1.146s41.543-34.659 50.559-63.422c2.213-7.062-5.139-13.335-11.784-10.077l8.372-4.106c5.029-2.466 8.553-7.259 9.285-12.812 1.248-9.477 1.775-19.374 1.565-29.572-.254-12.318-13.252-20.19-24.315-14.765l11.063-5.426c6.805-3.337 10.573-10.802 9.168-18.249a262 262 0 0 0-6.013-24.99c-2.946-10.07-14.233-15.081-23.653-10.461l3.233-1.586c8.081-3.961 11.687-13.587 8.076-21.829"/><path fill="#fee45a" d="M504.454 375.602c-.254-12.319-13.252-20.19-24.314-14.765l11.063-5.426c6.805-3.337 10.573-10.802 9.168-18.249a262 262 0 0 0-6.013-24.99c-2.946-10.07-14.233-15.081-23.653-10.461l3.233-1.585c8.079-3.962 11.685-13.588 8.073-21.83q-2.504-5.718-5.295-11.409c-2.791-5.691-3.789-7.518-5.78-11.172-4.306-7.901-14.125-10.943-22.203-6.981l-3.233 1.586c9.42-4.62 12.368-16.612 6.21-25.106a262 262 0 0 0-16.077-20.054c-5.028-5.671-13.238-7.261-20.042-3.924l-11.063 5.426c11.062-5.425 12.796-20.522 3.212-28.265-7.935-6.41-16.083-12.053-24.34-16.868-4.838-2.822-10.786-2.969-15.814-.503l-8.372 4.106c6.645-3.259 6.186-12.913-.753-15.487-28.262-10.482-56.609-10.865-81.1 1.146a87.2 87.2 0 0 0-19.588 13.177c19.243-4.06 39.989-1.801 60.689 5.876 6.939 2.573 7.397 12.228.753 15.487l8.372-4.106c5.029-2.466 10.977-2.319 15.814.503 8.258 4.815 16.405 10.458 24.34 16.868 9.584 7.742 7.851 22.839-3.212 28.265l11.063-5.426c6.805-3.337 15.014-1.747 20.042 3.924a262 262 0 0 1 16.077 20.054c6.158 8.495 3.21 20.487-6.21 25.106l3.233-1.585c8.079-3.962 17.897-.92 22.203 6.981a293 293 0 0 1 11.075 22.582c3.611 8.242.005 17.868-8.073 21.83l-3.233 1.586c9.42-4.62 20.707.391 23.653 10.461a262 262 0 0 1 6.013 24.99c1.405 7.448-2.363 14.912-9.168 18.249l-11.063 5.426c11.062-5.425 24.061 2.447 24.314 14.765.21 10.199-.317 20.095-1.565 29.573-.731 5.553-4.256 10.346-9.284 12.812l-8.373 4.106c6.645-3.259 13.998 3.015 11.784 10.077-6.375 20.339-16.769 37.621-30.97 50.246a87 87 0 0 0 20.411-7.023c24.491-12.011 41.543-34.659 50.559-63.423 2.213-7.062-5.139-13.335-11.784-10.077l8.373-4.106c5.029-2.466 8.553-7.259 9.284-12.812 1.248-9.48 1.774-19.376 1.564-29.575"/><path d="M510.325 406.154c1.297-9.844 1.844-20.175 1.627-30.706-.157-7.627-3.815-14.613-9.894-19.078 4.851-5.517 7.1-13.089 5.683-20.598a271 271 0 0 0-6.186-25.705 24.39 24.39 0 0 0-12.762-15.12 24.15 24.15 0 0 0 .086-19.66 301.328 301.328 0 0 0-11.358-23.161 24.16 24.16 0 0 0-15.598-11.968 24.4 24.4 0 0 0-4.143-19.347 270 270 0 0 0-16.538-20.628c-5.069-5.717-12.438-8.576-19.765-8.118.19-7.54-3.093-14.709-9.027-19.503-8.195-6.619-16.698-12.511-25.274-17.512a24.07 24.07 0 0 0-16.632-2.848c-1.522-4.394-4.904-7.893-9.478-9.589-7.652-2.838-15.231-4.952-22.689-6.345a24.13 24.13 0 0 0-3.146-12.665c3.665-2.863 5.882-7.194 6.007-12.071.858-33.389-9.348-61.697-29.516-81.864C291.557 9.499 263.245-.7 229.859.151c-4.876.125-9.208 2.342-12.07 6.007a24.08 24.08 0 0 0-16.658-2.686c-9.737 1.959-19.689 4.783-29.581 8.394A24.2 24.2 0 0 0 156.698 27.4c-6.792-2.806-14.684-2.482-21.329 1.287a271 271 0 0 0-22.321 14.168 24.4 24.4 0 0 0-10.179 16.967 24.17 24.17 0 0 0-18.63 6.278 300 300 0 0 0-18.241 18.241 24.15 24.15 0 0 0-6.278 18.631 24.4 24.4 0 0 0-16.967 10.178 270 270 0 0 0-14.168 22.322c-3.771 6.646-4.093 14.54-1.287 21.329-7.196 2.259-12.918 7.686-15.534 14.852-3.611 9.89-6.436 19.843-8.395 29.582a24.08 24.08 0 0 0 2.687 16.657c-3.665 2.862-5.882 7.194-6.007 12.071-.321 12.509.941 24.477 3.755 35.569 2.342 9.236 16.933 5.75 14.539-3.687-2.476-9.763-3.585-20.36-3.3-31.497.029-1.022 1.058-.901 1.609-.612l52.773 52.773c6.858 6.856 17.465-3.749 10.607-10.606l-59.367-59.367c-2.226-2.226-3.194-5.345-2.592-8.344 1.811-8.998 4.428-18.215 7.779-27.396 2.263-6.196 10.809-8 15.436-3.374l126.679 126.679c4.637 4.637 2.814 13.177-3.373 15.435-9.184 3.353-18.4 5.97-27.396 7.779-2.998.603-6.119-.365-8.344-2.591l-22.96-22.96c-6.856-6.857-17.464 3.749-10.607 10.606l16.366 16.367c.478.478.184 1.59-.61 1.61-29.094.748-58.716-8.718-77.188-32.256-5.986-7.63-17.787 1.629-11.801 9.259 20.516 26.155 52.927 38.042 85.505 38.042 5.929 0 11.999-1.012 15.939-6.057a24.07 24.07 0 0 0 16.657 2.686c9.735-1.958 19.688-4.782 29.582-8.394 7.166-2.616 12.593-8.338 14.852-15.534 6.789 2.805 14.681 2.483 21.327-1.287a264 264 0 0 0 9.755-5.816 24 24 0 0 0 .403 3.619 271 271 0 0 0 6.186 25.705 24.4 24.4 0 0 0 12.762 15.121 24.16 24.16 0 0 0-.087 19.66 304 304 0 0 0 5.431 11.704 303 303 0 0 0 5.928 11.456 24.15 24.15 0 0 0 15.598 11.968 24.4 24.4 0 0 0 4.142 19.348 271 271 0 0 0 16.538 20.627c5.07 5.717 12.423 8.573 19.766 8.118a24.2 24.2 0 0 0 9.027 19.503c8.19 6.617 16.694 12.509 25.275 17.513a24.08 24.08 0 0 0 16.63 2.847c1.523 4.394 4.905 7.893 9.479 9.589 31.773 11.783 67.889 11.849 96.963-7.105 8.124-5.294-.067-17.864-8.189-12.566-25.018 16.299-56.325 15.708-83.558 5.607-.737-.275-.668-1.426-.058-1.72l67.008-32.862c8.759-4.632 2.436-17.56-6.606-13.468l-75.38 36.968c-2.826 1.385-6.09 1.293-8.733-.248-7.928-4.624-15.802-10.082-23.405-16.224-5.584-4.511-3.589-12.27 1.802-15.696l160.85-78.884c6.324-3.103 13.383 1.882 13.514 8.185.201 9.775-.305 19.344-1.502 28.438-.399 3.034-2.325 5.672-5.151 7.058l-29.154 14.297a7.5 7.5 0 0 0-3.431 10.036c1.73 3.528 6.532 5.15 10.036 3.432l20.781-10.191c.604-.302 1.562.343 1.324 1.1-3.245 10.357-7.579 19.803-12.878 28.073-5.233 8.164 7.397 16.257 12.629 8.093 6.019-9.393 10.918-20.051 14.563-31.68 1.458-4.655.762-9.471-1.779-13.365a24.07 24.07 0 0 0 7.93-14.892M117.718 62.025a9.43 9.43 0 0 1 3.973-6.91 255 255 0 0 1 21.079-13.38c3.634-2.062 8.254-1.427 11.23 1.55l35.548 35.548c6.858 6.856 17.465-3.749 10.607-10.606L173.32 41.392c-4.762-4.761-2.975-13.118 3.374-15.435 9.181-3.352 18.398-5.969 27.396-7.779 3.002-.603 6.118.366 8.344 2.591L271.8 80.136c6.858 6.856 17.465-3.749 10.607-10.606l-52.716-52.715c-.522-.528-.413-1.643.553-1.668 58.616-2.135 98.147 37.371 96.001 96-.028.926-1.108 1.105-1.648.574l-16.327-16.33c-6.858-6.856-17.464 3.749-10.607 10.606l22.961 22.961a9.37 9.37 0 0 1 2.698 5.47c-17.03-.956-33.221 2.048-47.962 9.002l-48.744-48.745c-6.856-6.858-17.465 3.749-10.607 10.606l45.893 45.893c-11.401 7.882-21.095 18.278-28.845 30.891L120.427 69.448c-1.987-1.987-2.949-4.623-2.709-7.423m80.801 237.735c-3.635 2.062-8.254 1.426-11.229-1.55l-8.713-8.713-.039-.038L51.896 162.817l-8.713-8.712c-2.976-2.976-3.613-7.595-1.55-11.231a255 255 0 0 1 13.38-21.079q6.59-7.308 14.332-1.265l39.253 39.253c6.857 6.857 17.465-3.749 10.607-10.606l-41.8-41.8c-3.563-3.563-3.719-9.227-.354-12.894A285 285 0 0 1 94.38 77.154c3.669-3.365 9.332-3.208 12.894.354L225.72 195.955a142 142 0 0 0-6.075 16.015c-1.46 4.655-.763 9.471 1.778 13.365-5.168 4.578-7.518 11.128-8.287 17.772l-67.472-67.472c-6.858-6.856-17.465 3.749-10.607 10.606l76.79 76.789q-.063 3.93.019 7.903c.127 6.148 2.529 11.88 6.64 16.21a254 254 0 0 1-19.987 12.617m38.139 32.343a256 256 0 0 1-5.842-24.274c-.775-4.108 1.322-8.272 5.101-10.125l45.136-22.136c8.706-4.27 2.102-17.737-6.605-13.468l-34.072 16.71c-6.257 3.068-13.375-1.526-13.514-8.185-.201-9.775.305-19.344 1.502-28.438.399-3.034 2.325-5.672 5.15-7.058l75.382-36.968c8.706-4.27 2.101-17.738-6.605-13.468l-67.008 32.862c-.608.304-1.559-.347-1.325-1.1 7.704-24.58 23.077-47.347 46.705-58.932 21.824-10.705 47.825-10.998 75.189-.848.816.301.493 1.31.058 1.721l-20.781 10.191c-8.543 4.19-1.873 17.625 6.605 13.468l29.154-14.298c2.828-1.386 6.092-1.293 8.733.249 7.924 4.621 15.799 10.079 23.405 16.223 5.256 4.247 4.245 12.732-1.802 15.697l-93.182 45.698c-8.543 4.19-1.873 17.625 6.605 13.468l104.245-51.124c3.78-1.854 8.354-.961 11.128 2.166a256 256 0 0 1 15.616 19.48q4.779 8.594-3.428 13.965l-192.37 94.343c-4.804 2.289-11.683-.702-13.18-5.819M487.9 348.678l-11.063 5.426-160.85 78.884-.034.017-11.029 5.409c-3.782 1.854-8.354.961-11.129-2.167a256 256 0 0 1-15.617-19.48 9.42 9.42 0 0 1-1.523-7.823c.678-2.727 2.44-4.91 4.963-6.147h.001l49.842-24.443a7.5 7.5 0 0 0 3.431-10.036 7.5 7.5 0 0 0-10.036-3.432l-49.842 24.443c-5.064 2.472-12.056 4.155-15.548-2.251a285 285 0 0 1-10.79-22.001c-2.769-6.321 2.645-11.197 7.74-13.672l192.375-94.346c5.102-2.401 12.023-4.245 15.559 2.245a285 285 0 0 1 10.791 22.003c2.943 6.717-2.744 11.173-7.787 13.694L358.45 348.409a7.5 7.5 0 0 0-3.431 10.036c1.83 3.757 6.398 5.238 10.036 3.432l108.955-53.434.002-.001c2.521-1.234 5.324-1.289 7.893-.158a9.42 9.42 0 0 1 5.253 5.995A256 256 0 0 1 493 338.553c.776 4.108-1.321 8.272-5.1 10.125"/></svg>