<svg xmlns="http://www.w3.org/2000/svg" width="512" height="512" viewBox="0 0 512.124 512.124"><path fill="#cdbfba" d="m376.764 186.257 21.747-27.51-28.889-22.851-21.747 27.51c-16.06-12.696-39.702-7.705-49.261 10.398l-46.339 87.718 114.049-14.704 11.694-10.231c15.409-13.479 14.807-37.634-1.254-50.33"/><path fill="#dc8758" d="M476.179 96.789c20.287-8.84 32.06-30.668 27.447-52.311-4.716-22.126-25.632-38.113-48.238-36.845-21.492 1.205-39.162 17.451-43.008 38.631l-5.511 30.352c-7.082 20.553-16.865 28.158-36.023 37.612-8.535 4.392-9.676 16.136-2.146 22.089l29.944 23.671c7.53 5.952 18.694 2.131 20.997-7.187 4.875-20.806 9.919-32.059 28.308-43.71z"/><path fill="#d77f4a" d="M503.626 44.477c-4.716-22.126-25.632-38.113-48.238-36.845a45.2 45.2 0 0 0-17.433 4.569c12.734 6.152 22.612 17.922 25.671 32.276 4.613 21.643-7.16 43.471-27.447 52.311l-28.229 12.301c-16.363 10.368-22.159 20.42-26.673 37.168l17.368 13.729c7.53 5.953 18.694 2.131 20.997-7.187 4.875-20.806 9.919-32.059 28.308-43.71l28.229-12.301c20.288-8.839 32.061-30.668 27.447-52.311"/><path fill="#fee97d" d="M469.448 249.798c-4.987-7.475-12.145-14.787-25.921-14.787H68.568c-13.776 0-20.934 7.311-25.921 14.787-45.19 67.735-48.581 172.908 0 239.976 5.272 7.278 13.483 14.787 25.921 14.787h374.959c12.438 0 20.649-7.509 25.921-14.787 48.581-67.067 45.19-172.24 0-239.976"/><path fill="#fee45a" d="M469.448 249.798c-4.987-7.475-12.145-14.787-25.921-14.787h-40c13.776 0 20.934 7.311 25.921 14.787 45.19 67.735 48.581 172.908 0 239.976-5.272 7.278-13.483 14.787-25.921 14.787h40c12.438 0 20.649-7.509 25.921-14.787 48.581-67.067 45.19-172.24 0-239.976"/><path d="M512.112 369.963c-.449-45.638-13.384-89.792-36.425-124.327-5.19-7.781-14.171-18.125-32.16-18.125h-49.955a40.3 40.3 0 0 0 3.059-17.962 40.27 40.27 0 0 0-9.77-23.97l13.001-16.446c11.294 4.052 24.222-3.046 27.082-14.622 4.669-19.929 9.117-28.884 24.542-38.781l27.689-12.066c19.819-8.636 32.75-27.976 32.941-49.271.085-9.414-14.911-10.021-14.999-.135-.139 15.384-9.533 29.379-23.934 35.654-9.486 4.134-20.508 7.309-29.247 12.841-20.243 12.827-26.317 25.806-31.575 48.247-.987 3.992-5.839 5.653-9.065 3.103l-29.944-23.67c-3.208-2.536-2.74-7.613.881-9.513 20.658-10.202 31.878-19.082 39.727-41.861 3.369-9.775 3.952-21.279 5.799-31.456 3.29-18.12 18.114-31.478 36.048-32.483 10.279-.579 20.692 3.209 28.565 10.388 7.167 6.533 17.273-4.551 10.106-11.084C483.647 4.548 469.245-.66 454.967.144 430.081 1.54 409.534 19.954 405 44.924l-5.407 29.779c-6.107 17.41-13.786 23.778-32.066 32.799-10.629 5.178-14.426 19.425-8.24 29.374l-13.079 16.545a40.12 40.12 0 0 0-26.951-3.703 40.13 40.13 0 0 0-27.275 20.583l-30.223 57.21H68.568c-17.988 0-26.97 10.344-32.16 18.125a196 196 0 0 0-10.48 17.701c-4.503 8.588 8.784 15.553 13.285 6.964a181 181 0 0 1 9.673-16.34c3.967-5.946 9.098-11.449 19.683-11.449h374.959c10.585 0 15.715 5.503 19.682 11.45 45.11 67.616 45.183 169.265.165 231.414-5.696 7.864-12.188 11.687-19.847 11.687H68.568c-7.659 0-14.151-3.823-19.848-11.687-35.472-48.31-42.08-121.55-23.943-179.602 2.817-9.279-11.534-13.636-14.353-4.358-19.518 62.456-12.08 140.752 26.149 192.759 10.709 14.784 23.31 17.887 31.995 17.887h374.959c15.735 0 26.084-9.727 31.995-17.887 24.056-33.211 37.05-77.323 36.59-124.212M305.247 177.306a25.18 25.18 0 0 1 17.109-12.913 25.18 25.18 0 0 1 20.868 4.896 7.5 7.5 0 0 0 10.535-1.233l16.537-20.92 17.129 13.541-16.544 20.929a7.5 7.5 0 0 0 1.233 10.535c10.839 8.135 12.719 24.942 4.225 35.37h-64.407l7.089-13.747c4.444-8.619-8.887-15.494-13.332-6.875l-10.634 20.622h-16.33z"/><path d="M75.123 467.561h229c9.916-.307 9.909-14.696 0-15h-229c-9.916.308-9.909 14.696 0 15M368.234 467.561c9.916-.307 9.909-14.696 0-15h-26.31c-9.916.307-9.909 14.696 0 15z"/></svg>