<svg xmlns="http://www.w3.org/2000/svg" width="512" height="512"><path fill="#fd4755" d="M277.719 48.621h-43.438V17.929c0-5.76 4.669-10.429 10.429-10.429h22.58c5.76 0 10.429 4.669 10.429 10.429z"/><path fill="#f9f3f1" d="m392.352 284.748-91.286-91.514a42.47 42.47 0 0 1-12.413-29.995V79.914h2.474c8.658 0 15.676-7.005 15.676-15.647s-7.018-15.647-15.676-15.647h-70.253c-8.658 0-15.676 7.005-15.676 15.647s7.018 15.647 15.676 15.647h2.474v83.325a42.47 42.47 0 0 1-12.413 29.995l-91.286 91.514C87.877 316.6 79.608 364.925 98.99 405.48l38.638 80.844c5.307 11.104 16.544 18.176 28.879 18.176h178.987c12.336 0 23.572-7.072 28.879-18.176l38.638-80.844c19.382-40.555 11.113-88.881-20.659-120.732"/><path fill="#f3eae6" d="m392.352 284.748-91.286-91.514a42.47 42.47 0 0 1-12.413-29.995V79.914h2.474c8.658 0 15.676-7.005 15.676-15.647s-7.018-15.647-15.676-15.647h-40c8.658 0 15.676 7.005 15.676 15.647s-7.018 15.647-15.676 15.647h-2.474v83.325a42.47 42.47 0 0 0 12.413 29.995l91.286 91.514c31.772 31.852 40.041 80.177 20.659 120.733l-38.638 80.844c-5.307 11.104-16.544 18.176-28.879 18.176h40c12.336 0 23.572-7.072 28.879-18.176l38.638-80.844c19.382-40.556 11.113-88.882-20.659-120.733"/><path fill="#fed402" d="m392.352 284.748-91.286-91.514a42.47 42.47 0 0 1-12.413-29.995V142.43h-65.305v20.809a42.47 42.47 0 0 1-12.413 29.995l-91.286 91.514C87.877 316.6 79.608 364.925 98.99 405.48l38.638 80.844c5.307 11.104 16.544 18.176 28.879 18.176h178.987c12.336 0 23.572-7.072 28.879-18.176l38.638-80.844c19.382-40.555 11.113-88.881-20.659-120.732"/><path fill="#fac600" d="m392.352 284.748-91.286-91.514a42.47 42.47 0 0 1-12.413-29.995V142.43h-40v20.809a42.47 42.47 0 0 0 12.413 29.995l91.286 91.514c31.772 31.852 40.041 80.177 20.659 120.733l-38.638 80.844c-5.307 11.104-16.544 18.176-28.879 18.176h40c12.336 0 23.572-7.072 28.879-18.176l38.638-80.844c19.382-40.556 11.113-88.882-20.659-120.733"/><path fill="#fd4755" d="M372.419 349.236c-3.602.647-6.091-.518-8.53-2.538-3.814-3.16-10.755-.363-14.073 5.301-8.766 14.964-4.869 37.056-17.38 69.29-7.455 19.208-20.627 35.25-25.864 39.37-7.922 6.232-3.989 10.513.086 9.429 16.796-4.466 38.05-24.683 52.751-48.202 25.457-40.73 33.46-76.321 13.01-72.65M318.376 285.806c-3.641-.368-5.713-2.171-7.5-4.784-2.795-4.086-10.239-3.304-14.991 1.23-12.554 11.977-14.9 34.286-35.817 61.838-12.464 16.418-29.551 28.222-35.722 30.744-9.334 3.815-6.734 9.011-2.518 9.089 17.378.321 43.387-13.276 64.006-31.848 35.705-32.162 53.214-64.18 32.542-66.269M144.19 376.537c6.139.02 9.88-4.648 10.769-7.685 1.39-4.749 10.33-9.257 16.246-3.08 8.875 9.268 18.79 65.468 46.975 75.193 19.505 6.73 37.232-2.084 44.887-12.156 7.802-10.264 11.831-4.168 9.047 6.599-7.097 27.451-40.475 35.565-67.581 29.521-48.291-10.767-86.045-88.478-60.343-88.392"/><path d="m397.662 279.451-91.287-91.514c-6.592-6.608-10.222-15.379-10.222-24.698V86.866c26.673-6.512 22.679-45.068-5.026-45.745h-5.908V17.929C285.219 8.043 277.176 0 267.29 0h-22.58c-9.886 0-17.929 8.043-17.929 17.929V41.12h-5.908c-27.726.685-31.681 39.245-5.026 45.745v76.373c0 9.318-3.63 18.09-10.223 24.698l-91.286 91.514c-33.925 34.01-42.813 85.957-22.116 129.264l38.638 80.844C137.376 503.191 151.368 512 166.506 512h128.501c9.916-.307 9.909-14.696 0-15H166.506c-9.394 0-18.074-5.46-22.112-13.91l-38.638-80.843c-17.964-37.589-10.248-82.679 19.202-112.202l91.286-91.514c9.417-9.44 14.603-21.973 14.603-35.292V149.93h50.306v13.309c0 13.318 5.186 25.852 14.603 35.292l91.286 91.514c29.45 29.523 37.167 74.613 19.202 112.202l-38.637 80.843c-4.039 8.45-12.719 13.91-22.113 13.91h-10.629c-9.916.307-9.909 14.696 0 15h10.629c15.138 0 29.13-8.809 35.646-22.442l38.638-80.844c20.697-43.306 11.809-95.253-22.116-129.263M241.781 17.929A2.93 2.93 0 0 1 244.71 15h22.58a2.93 2.93 0 0 1 2.929 2.929V41.12h-28.438zM230.847 134.93V79.914a7.5 7.5 0 0 0-7.5-7.5h-2.474c-10.786-.332-10.819-15.949 0-16.293h70.253c4.508 0 8.176 3.655 8.176 8.147s-3.668 8.146-8.176 8.146h-32.292c-9.697 0-9.697 15 0 15h22.319v47.516z"/><path d="M365.769 425.86c13.106-21.716 33.629-58.758 22.444-77.77-1.497-2.213-4.482-5.357-9.705-6.324 1.452-4.897 3.124-10.816 4.175-15.429a7.5 7.5 0 0 0-14.626-3.33c-1.024 4.496-2.753 10.548-4.198 15.389-2.059-.581-4.298-.684-6.6-.278-5.505.97-10.836 4.836-13.913 10.088-4.936 8.424-6.367 18.162-8.024 29.437-2.999 28.24-14.764 60.194-33.386 77.119-9.939 7.818-7.374 15.11-6.351 17.159 2.263 4.532 8.281 6.669 13.001 5.414 18.22-4.844 40.665-25.049 57.183-51.475m-41.166 25.411c5.348-7.555 10.859-17.051 14.825-27.27 6.825-17.583 8.992-32.329 10.734-44.176 1.489-10.128 2.665-18.127 6.126-24.036 1.027-1.753 2.588-2.638 3.378-2.858 2.082 1.66 6.906 4.974 14.078 3.687 1.258-.226 1.883-.127 2.082-.079 6.636 12.072-24.959 75.274-51.223 94.732M333.871 289.042c-.83-2.537-2.83-6.377-7.579-8.742 2.746-4.308 5.985-9.537 8.266-13.681a7.5 7.5 0 0 0-13.142-7.232c-2.225 4.043-5.559 9.39-8.285 13.649-1.818-1.124-3.94-1.838-6.263-2.081-5.568-.586-11.755 1.667-16.161 5.873-5.235 4.995-8.721 11.251-11.173 16.143a7.5 7.5 0 1 0 13.41 6.72c2.872-5.73 5.3-9.323 8.118-12.011 1.472-1.404 3.227-1.854 4.04-1.823 1.545 2.17 5.271 6.679 12.52 7.412 1.264.128 1.838.392 2.019.493 1.54 3.955-7.289 24.334-38.826 52.741-11.607 10.456-24.696 19.003-36.521 24.247 7.218-5.792 15.125-13.399 21.749-22.124a159 159 0 0 0 9.16-13.434 7.5 7.5 0 1 0-12.804-7.814 144 144 0 0 1-8.303 12.178c-11.773 15.508-27.861 26.405-32.586 28.336-11.712 4.787-11.25 12.503-10.829 14.754 1.063 5.687 6.298 8.782 11.741 8.782 18.817-.001 45.567-13.184 68.434-33.78 24.441-22.019 48.579-51.604 43.015-68.606"/><path d="M128.533 383.581c-1.366 12.219 6.629 31.802 20.368 49.89 21.274 28.007 42.965 36.317 54 38.777 28.954 6.455 68.036-2.331 76.474-34.964 2.554-9.877.617-17.453-5.181-20.264-7.368-3.571-13.876 3.008-17.099 7.25-5.37 7.065-19.515 15.454-36.47 9.604-15.889-5.482-26.219-32.658-33.055-50.642-4.104-10.796-7.069-18.596-10.949-22.648-6.48-6.767-17.153-6.984-24.249-.807a39.8 39.8 0 0 1-1.821-14.566 7.5 7.5 0 1 0-14.972-.906c-.519 8.587 1.009 17.315 4.441 25.196-6.377 1.51-10.653 6.617-11.487 14.08m33.531-12.318q1.832-1.82 3.723-.304c1.774 1.853 5.094 10.586 7.762 17.604 8.297 21.827 19.661 51.72 42.184 59.491 17.749 6.124 35.223 1.227 46.485-7.783-4.577 8.455-12.525 13.012-19.011 15.43-27.688 9.759-54.658-.415-73.029-20.415-11.876-11.979-28.662-37.233-26.499-51.223a4 4 0 0 1 .468-.026h.083c4.543 0 8.486-1.583 11.549-3.965q.135-.1.266-.208l.137-.115c2.869-2.355 4.913-5.416 5.882-8.486M256 211.338c-9.652 0-9.668 15 0 15 9.652 0 9.668-15 0-15M218.004 304.417c-9.652 0-9.668 15 0 15 9.652 0 9.668-15 0-15M168.835 289.135c-9.652 0-9.668 15 0 15 9.652 0 9.668-15 0-15M296.886 399.993c9.652 0 9.668-15 0-15-9.652 0-9.668 15 0 15"/></svg>