<svg xmlns="http://www.w3.org/2000/svg" width="512" height="512" viewBox="0 0 511.888 511.888"><path fill="#fee97d" d="M360.255 146.083c0-42.311-33.872-76.611-75.654-76.611-20.59 0-39.259 8.33-52.9 21.843L36.511 269.252l97.938 116.763 197.095-179.849c17.972-16.141 28.711-35.731 28.711-60.083"/><path fill="#97da7b" d="M159.12 330.244c0-10.753-5.746-20.146-14.298-25.205 3.148-10.054.786-21.494-7.088-29.467a28.55 28.55 0 0 0-27.71-7.585c-4.689-9.158-14.033-15.48-24.859-15.752a24 24 0 0 0-.659-.009h-.07c-10.619 0-19.895 5.819-24.89 14.479a28.55 28.55 0 0 0-29.099 7.177c-7.508 7.603-10.005 18.36-7.49 28.06-9.246 4.855-15.564 14.636-15.564 25.911 0 10.753 5.746 20.146 14.298 25.205-3.148 10.054-.786 21.494 7.088 29.467a28.55 28.55 0 0 0 27.71 7.584c4.794 9.363 14.453 15.761 25.587 15.761 10.619 0 19.895-5.819 24.89-14.479a28.55 28.55 0 0 0 29.099-7.177c7.508-7.603 10.005-18.36 7.49-28.06 9.247-4.854 15.565-14.634 15.565-25.91"/><path fill="#80d261" d="M159.12 330.244c0-10.753-5.746-20.146-14.298-25.205 3.148-10.054.786-21.494-7.088-29.467a28.55 28.55 0 0 0-27.71-7.585c-4.689-9.158-14.033-15.48-24.859-15.752a24 24 0 0 0-.659-.009h-.07c-7.769 0-14.819 3.115-20 8.178a29.2 29.2 0 0 1 5.587 7.583 28.55 28.55 0 0 1 27.71 7.585c7.873 7.973 10.236 19.413 7.087 29.467 8.552 5.058 14.298 14.452 14.298 25.205 0 11.275-6.318 21.056-15.564 25.911 2.515 9.7.019 20.457-7.49 28.061a28.55 28.55 0 0 1-29.099 7.177 29.3 29.3 0 0 1-4.89 6.3c5.181 5.063 12.231 8.178 20 8.178 10.619 0 19.895-5.819 24.89-14.479a28.55 28.55 0 0 0 29.099-7.177c7.508-7.604 10.005-18.36 7.49-28.061 9.249-4.854 15.566-14.634 15.566-25.91"/><path fill="#fee45a" d="M482.142 200.406c0-65.585-81.139-101.738-128.555-54.768L158.399 323.574l97.938 116.763 197.095-179.849c17.972-16.141 28.71-35.73 28.71-60.082"/><path fill="#97da7b" d="M281.008 384.567c0-10.753-5.746-20.146-14.298-25.205 3.148-10.054.786-21.494-7.088-29.467a28.55 28.55 0 0 0-27.71-7.585c-4.689-9.158-14.033-15.48-24.859-15.752a24 24 0 0 0-.659-.009h-.07c-10.619 0-19.895 5.819-24.89 14.479a28.55 28.55 0 0 0-29.099 7.177c-7.508 7.603-10.005 18.36-7.49 28.06-9.246 4.855-15.564 14.636-15.564 25.911 0 10.753 5.746 20.146 14.298 25.205-3.148 10.054-.786 21.494 7.088 29.467a28.55 28.55 0 0 0 27.71 7.584c4.794 9.363 14.453 15.761 25.587 15.761 10.619 0 19.895-5.819 24.89-14.479a28.55 28.55 0 0 0 29.099-7.177c7.508-7.603 10.005-18.36 7.49-28.06 9.247-4.854 15.565-14.635 15.565-25.91"/><path fill="#80d261" d="M281.008 384.567c0-10.753-5.746-20.146-14.298-25.205 3.148-10.054.786-21.494-7.088-29.467a28.55 28.55 0 0 0-27.71-7.585c-4.689-9.158-14.033-15.48-24.859-15.752a24 24 0 0 0-.659-.009h-.07c-7.769 0-14.819 3.115-20 8.178a29.2 29.2 0 0 1 5.587 7.583 28.55 28.55 0 0 1 27.71 7.585c7.873 7.973 10.236 19.413 7.088 29.467 8.552 5.058 14.298 14.452 14.298 25.205 0 11.275-6.318 21.056-15.564 25.911 2.515 9.7.019 20.457-7.49 28.061a28.55 28.55 0 0 1-29.099 7.177 29.3 29.3 0 0 1-4.89 6.301c5.181 5.063 12.231 8.178 20 8.178 10.619 0 19.895-5.819 24.89-14.479a28.55 28.55 0 0 0 29.099-7.177c7.508-7.604 10.005-18.36 7.49-28.061 9.247-4.855 15.565-14.636 15.565-25.911"/><path fill="#f9f3f1" d="M503.464 197.36c-9.693-63.696-81.126-96.435-132.968-66.657.241-35.695-26.311-63.947-59.54-74.53-32.452-10.336-68.561-1.76-93.454 21.507L103.359 182.56c-11.951 11.556-8.271 27.78 7.002 28.19l.477.014c44.005 1.396 86.027 27.246 95.599 68.91l14.919-13.665c53.729-18.686 109.413 38.689 114.442 100.344 1.131 13.864 19.408 18.958 29.604 9.499l108.865-99.258c21.894-19.844 33.642-50.02 29.197-79.234"/><path fill="#f3eae6" d="M503.464 197.36c-8.364-54.959-62.691-86.871-110.74-75.463 34.465 7.898 64.677 35.626 70.74 75.463 4.446 29.214-7.302 59.39-29.197 79.234L335.8 366.372c1.146 13.85 19.41 18.936 29.602 9.48l108.865-99.258c21.894-19.844 33.642-50.02 29.197-79.234"/><path d="M43.258 321.762a7.5 7.5 0 0 0-8.564 12.314c7.671 5.335 11.4 15.069 9.277 24.221a7.5 7.5 0 0 0 5.612 9c3.93.943 8.081-1.547 9-5.612 3.551-15.307-2.465-30.979-15.325-39.923M165.147 376.085a7.5 7.5 0 0 0-8.565 12.315c7.672 5.336 11.4 15.07 9.278 24.221a7.5 7.5 0 0 0 5.611 9.001c3.929.943 8.082-1.546 9.001-5.611 3.55-15.31-2.465-30.982-15.325-39.926"/><path d="M510.879 196.232c-7.59-61.033-77.702-101.257-133.706-77.147-4.705-31.654-29.169-58.983-63.94-70.058-34.988-11.143-73.633-2.264-100.805 23.131l-71.893 66.059a7.5 7.5 0 0 0 10.149 11.045l71.94-66.102c23.257-21.738 56.233-29.34 86.056-19.84 36.15 11.513 53.023 39.925 54.245 64.134l-43.72 39.801c-7.217 6.569 2.998 17.555 10.098 11.092l45.621-41.532c22.273-12.477 49.99-12.947 74.314-1.219 52.917 24.315 64.182 96.475 19.977 135.458l-108.913 99.302c-4.915 4.558-16.385 3.296-17.028-4.611-3.149-38.617-25.109-76.549-55.945-96.635-13.777-8.975-28.491-13.738-43.031-14.126l52.494-48.343c7.133-6.569-3.029-17.602-10.162-11.034l-76.566 70.513c-14.243-36.148-53.143-61.396-98.971-62.849-9.294-.125-8.406-9.577-2.583-15.255l12.98-11.927a7.5 7.5 0 0 0-10.149-11.045l-13.055 11.995c-8.329 7.642-12.79 21.4-6.399 31.586L32.258 262.98c-11.949 7.202-18.944 21.462-17.548 35.31-19.014 13.581-19.7 43.389-1.444 57.986-1.772 11.454 1.906 23.142 10.178 31.52a36.24 36.24 0 0 0 29.343 10.586c13.442 19.235 42.983 19.942 57.45 1.461 5.196.794 10.501.44 15.527-1.019a36.8 36.8 0 0 0 9.39 11.774c-1.772 11.454 1.906 23.142 10.178 31.52a36.24 36.24 0 0 0 29.343 10.586c13.44 19.232 42.976 19.943 57.444 1.468 9.824 1.525 21.766-1.442 29.273-8.295l72.337-66.008c9.155 10.463 26.658 10.868 36.725 1.524l108.85-99.243c24.202-21.936 36.3-54.858 31.575-85.918M328.112 364.689 277.7 410.69c15.279-14.566 14.012-41.396-2.563-54.545 1.771-11.455-1.905-23.142-10.178-31.52a36.25 36.25 0 0 0-29.349-10.585c-6.59-9.08-17.024-14.693-28.341-14.979-4.543-.121-9.05.64-13.227 2.167l31.482-28.699c22.001-6.92 41.232 1.081 53.615 9.147 26.491 17.256 45.536 49.646 48.973 83.013m-54.418 49.442a37 37 0 0 0 1.719-1.354l-1.701 1.552zM110.6 218.26c42.191 1.338 77.453 25.344 87.435 58.942a7 7 0 0 0-.498.545l-36.379 33.164a36.9 36.9 0 0 0-7.907-9.089c1.771-11.455-1.906-23.142-10.179-31.519a36.25 36.25 0 0 0-29.348-10.585c-6.59-9.08-17.022-14.693-28.324-14.978a35.8 35.8 0 0 0-13.243 2.166l32.283-29.429q3.053.713 6.16.783m-1.339 165.992a7.5 7.5 0 0 0-8.79 3.394c-8.231 14.598-29.843 14.087-37.305-.954a7.5 7.5 0 0 0-8.603-3.83c-16.183 4.44-30.936-11.735-25.713-27.562a7.5 7.5 0 0 0-3.339-8.696c-14.435-8.326-13.95-30.46.935-38.02a7.5 7.5 0 0 0 3.773-8.522c-2.725-10.508 2.763-18.909 10.726-24.761a20.95 20.95 0 0 1 16.31-1.453 7.5 7.5 0 0 0 8.789-3.394c3.816-6.616 10.864-10.726 18.349-10.726.031 0 .101.005.13 0 .145.003.273.001.454.006 7.745.195 14.785 4.667 18.372 11.672a7.495 7.495 0 0 0 8.603 3.83c16.182-4.439 30.936 11.735 25.713 27.562a7.5 7.5 0 0 0 3.339 8.696c3.659 2.164 6.588 5.388 8.432 9.186-9.068 7.667-14.03 20.115-12.839 31.932-9.819 7.265-15.47 19.557-14.75 31.728a21.06 21.06 0 0 1-12.586-.088m121.888 54.322a7.5 7.5 0 0 0-8.79 3.394c-8.23 14.598-29.843 14.087-37.305-.954-1.497-2.923-5.433-4.674-8.603-3.83-7.282 1.936-15.119-.212-20.446-5.606-5.687-5.759-7.705-14.171-5.267-21.956a7.5 7.5 0 0 0-3.339-8.696c-14.434-8.327-13.95-30.46.935-38.021a7.5 7.5 0 0 0 3.773-8.522c-4.15-16.009 10.956-31.378 27.036-26.214a7.5 7.5 0 0 0 8.79-3.394c3.838-6.654 10.948-10.774 18.479-10.725.144.004.284.001.454.006 7.745.195 14.785 4.667 18.372 11.673a7.5 7.5 0 0 0 8.603 3.83c16.184-4.441 30.936 11.736 25.714 27.562a7.5 7.5 0 0 0 3.339 8.696c14.432 8.325 13.952 30.461-.936 38.021a7.5 7.5 0 0 0-3.772 8.522c1.934 7.461-.199 15.473-5.567 20.908-5.643 5.713-13.87 7.747-21.47 5.306"/><path d="M422.296 170.641c-9.652 0-9.668 15 0 15 9.651 0 9.668-15 0-15M351.974 307.001c9.652 0 9.668-15 0-15-9.651 0-9.667 15 0 15M432.319 255.529c9.652 0 9.668-15 0-15-9.652 0-9.668 15 0 15M336.39 226.609c-9.652 0-9.668 15 0 15 9.651 0 9.667-15 0-15M392.795 297.199c-9.652 0-9.668 15 0 15 9.652 0 9.668-15 0-15M160.784 166.11c-9.652 0-9.668 15 0 15 9.652 0 9.668-15 0-15M246.95 170.134c-9.652 0-9.668 15 0 15 9.652 0 9.668-15 0-15M293.532 113.346c9.652 0 9.668-15 0-15-9.652 0-9.668 15 0 15M225.827 117.299c-9.652 0-9.668 15 0 15 9.652 0 9.668-15 0-15"/></svg>