<svg xmlns="http://www.w3.org/2000/svg" width="512" height="512" viewBox="0 0 513.917 513.917"><path fill="#dc8758" d="M505.459 128.043c0 7.778-34.891 38.506-34.891 38.506-34.445 6.5-83.821-13.967-138.338-13.967-104.206 0-236.202 14.458-235.204-2.294C102.174 63.862 217.033-.515 326.226 7.98c103.892 8.084 179.233 69.015 179.233 120.063"/><path fill="#ffe5c2" d="M473.398 161.339c0 16.313-84.475 32.265-188.681 32.265s-188.68-15.483-188.68-32.265c0-58.502 84.475-118.516 188.681-118.516s188.68 60.014 188.68 118.516"/><path fill="#fed2a4" d="M284.718 42.823c-6.755 0-13.428.253-20 .741 94.803 7.035 168.681 63.066 168.681 117.775 0 15.263-73.952 30.21-168.824 32.071 6.618.128 13.339.194 20.143.194 104.206 0 188.681-15.952 188.681-32.265 0-58.502-84.476-118.516-188.681-118.516"/><path fill="#dc8758" d="M417.881 235.283c0 7.778-34.891 38.506-34.891 38.506-34.445 6.5-83.821-13.967-138.338-13.967-104.206 0-236.202 14.458-235.204-2.294 5.149-86.427 120.008-150.805 229.201-142.309 103.891 8.085 179.232 69.016 179.232 120.064"/><path fill="#ffe5c2" d="M385.82 268.579c0 16.313-84.475 32.265-188.681 32.265S8.459 285.361 8.459 268.579c0-58.502 84.475-118.516 188.681-118.516s188.68 60.014 188.68 118.516"/><path fill="#fed2a4" d="M197.14 150.063c-6.756 0-13.428.253-20 .74 94.803 7.035 168.681 63.066 168.681 117.776 0 15.263-73.952 30.21-168.824 32.071 6.618.128 13.339.194 20.143.194 104.206 0 188.681-15.952 188.681-32.265 0-58.502-84.476-118.516-188.681-118.516"/><path fill="#dc8758" d="M128.598 446.421v-50.098s126.518-24.953 187.874-24.953c58.711 0 188.987 23.481 188.987 23.481v50.098c0 37.948-84.612 59.278-188.987 59.278s-187.874-28.251-187.874-57.806"/><path fill="#ffe5c2" d="M128.598 396.323c0-30.887 83.499-65.051 187.874-65.051s188.987 30.708 188.987 63.579c0 37.948-84.612 59.278-188.987 59.278s-187.874-28.251-187.874-57.806"/><path fill="#fed2a4" d="M316.472 331.272c-6.581 0-13.079.136-19.478.398 94.722 3.692 168.465 32.494 168.465 63.18 0 35.327-73.329 56.253-167.666 58.975a574 574 0 0 0 18.679.304c104.375 0 188.987-21.331 188.987-59.278 0-32.871-84.612-63.579-188.987-63.579"/><path d="M383.671 137.385c33.46 3.395 41.28-32.448 4.3-38.344-10.934-1.225-27.175 3.085-28.646 16.202-1.205 10.75 9.488 20.477 24.346 22.142m-.021-23.589c.833 0 1.717.047 2.648.151 7.398.83 11.002 4.525 11.109 5.565-.335.99-4.667 3.796-12.065 2.966-7.438-.834-11.039-4.563-11.114-5.549.259-.854 3.611-3.133 9.422-3.133"/><path d="M331.861 298.215c17.141-3.026 42.367-8.488 56.667-19.312 11.177-8.461 36.852-27.449 36.852-43.62 0-14.117-5-28.749-14.353-42.907 19.928-3.145 49.931-7.535 64.09-19.864 10.469-9.116 37.84-31.285 37.84-44.469 0-26.404-17.836-55.08-48.934-78.674a7.5 7.5 0 0 0-10.508 1.442 7.5 7.5 0 0 0 1.441 10.508c27.033 20.51 42.662 44.532 42.994 66.026-1.505 3.37-9.203 11.739-18.344 20.617-5.133-26.791-25.408-53.208-57.371-74.098-80.097-52.432-204.623-52.395-284.335 6.442 11.533-12.074 25.641-22.942 42.094-32.412 68.829-40.388 162.4-43.353 234.561-10.257a7.501 7.501 0 0 0 6.15-13.682c-76.465-35.071-175.277-31.81-248.193 10.94-38.87 22.37-74.308 57.982-81.755 103.929C42.039 165.156.959 210.472.959 268.579c0 13.188 18.959 22.382 61.472 29.813 87.128 15.231 182.329 15.197 269.43-.177M165.99 79.993c70.989-41.321 180.55-39.102 248.042 6.429 32.674 21.354 51.535 48.371 51.862 74.233l-.05.062-.233.206a7 7 0 0 0-.629.624c-4.405 3.608-21.138 11.124-64.414 17.229-7.944-9.018-17.671-17.693-28.998-25.746-28.555-20.301-64.407-34.661-103.102-41.556 6.168-15.416-1.446-39.285-17.186-39.082-13.926-.333-22.327 19.601-18.389 34.939-40.864-2.164-82.633 5.334-119.411 20.67 10.485-17.758 28.8-34.642 52.508-48.008m83.366 28.711c-4.007-6.016-2.484-19.008 1.91-21.315 4.608 2.402 5.947 15.952 1.676 21.739q-1.79-.223-3.586-.424M61.113 177.281c47.329-41.244 115.067-59.399 176.953-54.583 63.692 3.253 166.084 43.89 172.309 111.887-1.505 3.371-9.203 11.739-18.344 20.617-5.133-26.791-25.408-53.208-57.371-74.098-80.13-52.413-204.756-52.486-284.423 6.537a166 166 0 0 1 10.876-10.36m-45.151 90.707c.032-2.925.302-5.864.802-8.809q.076-.339.121-.69c17.121-67.869 109.68-101.333 180.253-100.927 71.272-1.065 175.18 37.545 181.179 110.328l-.066.079-.217.191a8 8 0 0 0-.562.549c-3.875 3.183-18.032 9.866-54.096 15.729-82.189 13.361-170.466 13.382-252.672.133-39.721-6.4-52.71-13.889-54.742-16.583M452.55 343.644c-37.186-12.814-85.512-19.872-136.077-19.872-104.078 0-195.374 33.902-195.374 72.551v50.098c0 12.819 10.414 31.402 60.029 47.136 83.014 26.326 187.448 27.101 271.098 2.457 27.706-8.163 60.733-23.648 60.733-51.064v-50.1c-.001-19.596-21.455-37.781-60.409-51.206m-4.564 137.98c-80.781 23.8-182.133 23.064-262.324-2.366-36.583-11.601-49.563-24.94-49.563-32.837v-24.619c17.818 14.139 41.329 21.31 63.045 26.725 9.41 2.347 13.038-12.208 3.629-14.555-46.058-11.486-66.674-27.186-66.674-37.649 0-8.687 13.062-23.606 49.872-37.064 36.135-13.211 82.481-20.487 130.502-20.487 110.787 0 181.486 33.214 181.486 56.079 0 14.156-17.747 27.181-49.973 36.675-50.497 15.392-144.235 19.535-206.504 9.922-9.593-1.381-11.739 13.464-2.139 14.847 73.864 10.08 205.412 9.046 258.615-32.56v21.214c.001 14.156-17.746 27.181-49.972 36.675"/><path d="M205.092 373.787c-14.662-2.946-27.81 3.055-29.939 13.661-2.132 10.605 7.68 21.221 22.338 24.167 10.681 2.145 27.348-.756 29.94-13.661 2.132-10.606-7.68-21.221-22.339-24.167m-4.646 23.122c-7.335-1.475-10.603-5.501-10.592-6.49 1.25-3.124 10.214-2.341 12.283-1.926 7.298 1.467 10.569 5.46 10.587 6.505-.421.958-4.977 3.377-12.278 1.911M326.559 389.449c10.599 3.948 26.731 3.552 31.719-8.774 3.775-10.138-4.242-22.166-18.253-27.384-14.009-5.219-27.942-1.364-31.719 8.774-3.775 10.138 4.243 22.166 18.253 27.384m-4.203-22.134q6.129-2.794 12.435.033c6.975 2.598 9.575 7.055 9.429 8.092-.566.88-5.447 2.551-12.426-.047-7.013-2.613-9.604-7.104-9.438-8.078M85.326 227.186c-14.008-5.218-27.941-1.364-31.719 8.774-3.774 10.138 4.243 22.166 18.253 27.383 10.599 3.948 26.731 3.553 31.719-8.774 3.775-10.137-4.242-22.166-18.253-27.383m4.194 22.148c-.566.88-5.449 2.55-12.426-.047-7.014-2.612-9.604-7.104-9.438-8.078q6.129-2.794 12.435.033c6.975 2.598 9.576 7.055 9.429 8.092M156.901 178.056c-5.466 1.301-11.002 4.544-15.588 9.131-10.572 10.571-12.861 24.845-5.213 32.495 20.8 17.327 54.693-20.633 37.707-37.706-4.079-4.078-10.24-5.507-16.906-3.92m1.087 25.808c-5.265 5.265-10.4 5.775-11.279 5.21-.564-.881-.053-6.017 5.211-11.28 5.291-5.291 10.45-5.782 11.271-5.223.577.839.089 6.002-5.203 11.293M276.037 242.517c4.311 12.484 21.107 13.121 31.498 9.535 14.132-4.878 22.437-16.71 18.907-26.936-4.303-12.468-21.183-13.097-31.498-9.536-13.996 4.831-21.985 15.147-18.907 26.937m23.802-12.759c7.074-2.441 11.93-.623 12.42.236.153 1.008-2.544 5.436-9.618 7.878-7.037 2.428-11.879.64-12.423-.252-.124-1.039 2.584-5.433 9.621-7.862M425.647 419.479c18.197.761 39.745-19.294 30.866-34.824v-.001c-5.41-9.368-19.79-10.852-32.736-3.376-5.618 3.244-10.184 7.752-12.855 12.695-3.258 6.028-3.472 12.349-.588 17.343 2.883 4.995 8.465 7.97 15.313 8.163m5.63-25.211c4.558-2.48 9.116-3.675 12.244-2.113.317.997-1.506 5.825-7.952 9.547-6.482 3.742-11.593 2.876-12.238 2.127-.343-.96 1.466-5.819 7.946-9.561"/></svg>