<svg xmlns="http://www.w3.org/2000/svg" width="512" height="512"><path fill="#4fc123" d="M166.572 102.299c-8.81 18.811-32.931 26.108-32.931 26.108s-9.838-23.201-1.029-42.012c8.81-18.811 32.931-26.108 32.931-26.108s9.839 23.201 1.029 42.012M339.721 108.219c14.494 14.879 12.813 40.024 12.813 40.024s-25.18 1.022-39.675-13.857-12.813-40.024-12.813-40.024 25.181-1.022 39.675 13.857"/><path fill="#97da7b" d="M23.692 252.966c0-83.56 67.739-151.3 151.3-151.3s151.3 67.739 151.3 151.3z"/><path fill="#fee97d" d="M54.244 252.966c0-66.581 54.167-120.748 120.748-120.748S295.74 186.385 295.74 252.966z"/><path fill="#4fc123" d="M121.018 99.927c16.754 12.279 19.252 37.356 19.252 37.356s-24.665 5.169-41.419-7.11-19.252-37.356-19.252-37.356 24.666-5.169 41.419 7.11"/><path fill="#47a920" d="M121.018 99.927c-16.754-12.279-41.419-7.11-41.419-7.11l.011.105c3.951 1.25 7.857 3.069 11.408 5.671 16.121 11.815 19.043 35.48 19.241 37.25 14.693 4.649 30.011 1.439 30.011 1.439s-2.498-25.076-19.252-37.355"/><path fill="#97da7b" d="M84.795 252.966c0-49.734 40.461-90.196 90.196-90.196s90.196 40.461 90.196 90.196z"/><path fill="#fee97d" d="M115.347 252.966c0-32.888 26.756-59.644 59.644-59.644s59.644 26.756 59.644 59.644z"/><path fill="#fed402" d="M145.899 252.966c0-16.041 13.051-29.092 29.092-29.092s29.092 13.051 29.092 29.092"/><path fill="#97da7b" d="M190.625 284.637c0-83.56 67.739-151.3 151.3-151.3s151.3 67.739 151.3 151.3z"/><path fill="#fee97d" d="M221.176 284.637c0-66.581 54.167-120.748 120.748-120.748s120.748 54.167 120.748 120.748z"/><path fill="#97da7b" d="M251.728 284.637c0-49.734 40.461-90.196 90.196-90.196s90.196 40.461 90.196 90.196z"/><path fill="#fee97d" d="M282.28 284.637c0-32.888 26.756-59.644 59.644-59.644s59.644 26.756 59.644 59.644"/><path fill="#fed402" d="M312.832 284.637c0-16.041 13.051-29.092 29.092-29.092s29.092 13.051 29.092 29.092"/><path fill="#f9f3f1" d="M310.049 451.714H201.951C94.559 451.714 7.5 364.656 7.5 257.263v-33.88h497v33.88c0 107.393-87.059 194.451-194.451 194.451"/><path fill="#f3eae6" d="M464.5 223.383v33.88c0 107.392-87.059 194.451-194.451 194.451h40c107.392 0 194.451-87.059 194.451-194.451v-33.88z"/><path fill="#4fc123" d="M437.579 176.178c-18.534 9.378-42.024.251-42.024.251s6.559-24.333 25.093-33.711 42.024-.251 42.024-.251-6.559 24.332-25.093 33.711"/><path fill="#47a920" d="M435.026 138.723c-.888 3.019-7.771 24.645-24.992 33.359-4.631 2.344-9.572 3.531-14.378 3.995-.068.23-.101.352-.101.352s23.49 9.127 42.024-.251 25.093-33.711 25.093-33.711-13.218-5.136-27.646-3.744"/><path d="M504.5 215.883h-19.393c-7.749-16.133-18.055-30.679-30.722-43.366 11.089-12.071 15.301-27.254 15.528-28.099a7.5 7.5 0 0 0-4.525-8.942c-1.086-.422-26.854-10.215-48.127.55a44.3 44.3 0 0 0-7.632 4.929c-16.485-7.786-33.889-12.593-51.935-14.354-2.465-9.621-6.69-17.547-12.6-23.615-16.638-17.079-44.191-16.166-45.351-16.118a7.5 7.5 0 0 0-7.18 6.994c-.066.985-1.249 20.884 8.507 37.327A159 159 0 0 0 283.48 137c-29.061-27.228-66.655-42.356-106.584-42.823 3.254-18.307-4.081-35.952-4.448-36.818a7.5 7.5 0 0 0-9.077-4.251c-4.43.792-36.056 14.013-40.591 38.964-18.966-11.804-43.631-6.824-44.719-6.596a7.5 7.5 0 0 0-5.925 8.084c.086.868 1.751 16.428 10.638 30.113-31.043 22.208-53.352 55.249-62.226 92.21H7.5a7.5 7.5 0 0 0-7.5 7.5v33.88C0 368.62 90.595 459.214 201.951 459.214h108.098c47.744 0 94.08-16.982 130.473-47.817a7.5 7.5 0 0 0 .873-10.57 7.5 7.5 0 0 0-10.57-.874c-33.687 28.542-76.578 44.261-120.775 44.261H201.951C98.866 444.214 15 360.349 15 257.263v-26.38h482v26.38c0 42.238-13.744 82.092-39.746 115.255a7.5 7.5 0 1 0 11.804 9.255C497.151 345.944 512 302.889 512 257.263v-33.88a7.5 7.5 0 0 0-7.5-7.5m-36.237 0h-18.116a129.3 129.3 0 0 0-24.63-28.431c5.144-.643 10.422-2.039 15.449-4.582a43 43 0 0 0 1.66-.887c10.248 10.041 18.833 21.398 25.637 33.9m-56.992 0c-36.443-38.234-102.253-38.232-138.694 0h-20.572c43.917-58.861 135.933-58.846 179.839 0zm-23.49 0h-91.714c26.858-18.457 64.856-18.457 91.714 0m-172.191 0c33.934-63.198 117.807-93.316 183.293-63.328-3.434 4.876-5.913 9.784-7.604 13.72-55.87-24.358-125.491-2.055-157.577 49.608zm-77.203 0c16.288-16.634 44.425-20 64.064-7.237a159 159 0 0 0-3.71 7.237zm-37.287 0a83.8 83.8 0 0 1 11.616-17.267c6.381-7.302-4.915-17.172-11.295-9.869-7.11 8.137-12.752 17.246-16.817 27.136H67.969c23.058-70.682 114.079-99.503 173.713-54.388a160 160 0 0 0-11.84 10.653c-24.409-16.521-57.219-21.262-85.513-11.95-9.211 3.03-4.523 17.28 4.689 14.248 23.28-7.661 50.152-4.104 70.581 8.913a159 159 0 0 0-9.358 12.486c-29.671-19.129-72.242-9.655-91.201 20.038zm322.933-66.473c9.652-4.884 21.408-3.593 28.782-1.97-3.078 6.914-9.023 17.189-18.622 22.046-9.663 4.888-21.433 3.591-28.801 1.965 3.059-6.906 8.982-17.153 18.641-22.041m-116.294-47.151c7.506.853 19.057 3.439 26.609 11.193 3.507 3.601 5.852 8.058 7.42 12.386a158.5 158.5 0 0 0-24.763 1.968c-6.578-7.706-8.647-18.45-9.266-25.547m-53.45 49.976c-29.937-23.883-70.891-33.037-108.137-24.251-1.023-4.151-2.662-9.39-5.246-14.755 44.466-11.002 93.339.569 127.701 30.572a159 159 0 0 0-14.318 8.434m-93.437-81.957c1.572 6.269 3.008 15.758.55 24.462a158.5 158.5 0 0 0-24.607 4.052c.445-3.371 1.316-6.453 2.61-9.217 4.588-9.797 14.641-16.029 21.447-19.297m-44.267 35.698c8.733 6.4 12.904 17.48 14.793 24.789-7.531.4-19.36-.242-28.093-6.642s-12.904-17.48-14.793-24.789c7.539-.397 19.362.243 28.093 6.642m-23.797 28.989c4.547 3.686 10.303 6.543 15.853 8.22-26.559 16.053-47.052 41.594-56.435 72.698H36.023c8.705-32.554 28.963-61.493 56.765-80.918"/></svg>