<svg xmlns="http://www.w3.org/2000/svg" width="512" height="512" viewBox="0 0 511.831 511.831"><circle cx="255.824" cy="255.832" r="248.5" fill="#dc8758"/><path fill="#fee97d" d="M246.569 466.798c-13.64 3.533-26.888 1.774-38.861-5.121-5.906-3.402-12.449-5.608-19.201-6.542-30.346-4.197-56.669-19.921-75.288-45.289a56 56 0 0 0-12.095-12.047c-24.801-18.117-40.282-43.695-44.648-73.25-1.022-6.919-3.251-13.637-6.743-19.696-6.727-11.672-8.781-24.542-6.017-37.827 1.612-7.751 1.221-15.745-.43-23.488-2.356-11.047-.675-21.766 4.955-31.594 3.418-5.968 5.437-12.611 6.288-19.436 3.964-31.769 20.095-59.512 46.386-79.21 4.794-3.592 8.888-8.033 12.279-12.971 13.758-20.036 33.338-32.98 56.578-37.586 6.575-1.303 12.809-3.949 18.481-7.52 17.466-10.997 37.498-14.625 58.252-10.432 6.459 1.305 13.103 1.303 19.628.387 29.254-4.107 57.202 2.92 80.446 20 5.731 4.211 12.154 7.45 19.022 9.299 13.808 3.718 24.918 12.031 32.561 24.412 3.825 6.196 9.054 11.371 14.978 15.604 17.088 12.209 28.303 29.181 32.713 49.351 1.428 6.532 3.99 12.781 7.665 18.367 11.808 17.951 16.377 38.638 13.215 60.191a55.4 55.4 0 0 0 1.456 22.888c2.216 7.955 1.374 15.712-2.486 22.957-3.406 6.391-5.687 13.312-6.341 20.525-3.064 33.792-18.932 63.84-45.522 85.77-5.884 4.853-10.858 10.774-14.436 17.509-3.854 7.255-9.788 12.163-17.551 14.525-7.216 2.196-13.907 5.902-19.719 10.71-26.796 22.171-60.291 32.117-95.599 28.094a54.8 54.8 0 0 0-19.966 1.42"/><path fill="#fee45a" d="M468.188 265.285a55.4 55.4 0 0 1-1.456-22.888c3.162-21.553-1.407-42.24-13.215-60.191-3.674-5.586-6.237-11.836-7.665-18.367-4.41-20.17-15.625-37.141-32.713-49.351-5.924-4.233-11.154-9.408-14.978-15.604-7.643-12.381-18.753-20.694-32.561-24.412-6.867-1.849-13.291-5.088-19.022-9.299-23.244-17.081-51.192-24.107-80.446-20a68 68 0 0 1-4.829.504c16.261 2.864 31.584 9.436 45.275 19.497 5.731 4.211 12.154 7.45 19.022 9.299 13.808 3.718 24.918 12.031 32.561 24.412 3.825 6.196 9.054 11.371 14.978 15.604 17.088 12.209 28.303 29.181 32.713 49.351 1.428 6.532 3.99 12.781 7.665 18.367 11.808 17.951 16.377 38.638 13.215 60.191a55.4 55.4 0 0 0 1.456 22.888c2.216 7.955 1.375 15.712-2.486 22.957-3.406 6.391-5.687 13.312-6.341 20.525-3.064 33.792-18.932 63.84-45.522 85.771-5.884 4.853-10.858 10.774-14.436 17.509-3.854 7.255-9.788 12.163-17.551 14.525-7.216 2.196-13.907 5.902-19.719 10.71-18.282 15.126-39.682 24.562-62.648 27.753a54 54 0 0 1 7.05.341c35.308 4.023 68.803-5.923 95.599-28.094 5.812-4.809 12.503-8.515 19.719-10.71 7.763-2.362 13.697-7.27 17.551-14.525 3.578-6.736 8.552-12.656 14.436-17.509 26.59-21.93 42.458-51.979 45.522-85.771.654-7.212 2.935-14.134 6.341-20.525 3.86-7.245 4.702-15.003 2.485-22.958"/><g fill="#fff"><path d="m268.821 158.026 3.498-18.904 14.083 5.73c6.164 2.508 12.977-1.746 13.437-8.384 1.194-17.236-8.649-34.037-25.524-40.902s-35.652-1.708-46.829 11.466c-4.305 5.074-2.397 12.876 3.767 15.384l14.083 5.73-10.693 15.977c-3.443 5.145-1.296 12.154 4.438 14.487l16.449 6.692c5.734 2.33 12.165-1.189 13.291-7.276M279.881 394.041 268.987 378.2l14.01-5.907c6.132-2.585 7.942-10.411 3.573-15.43-11.343-13.032-30.184-17.952-46.97-10.874s-26.417 24.002-25.006 41.221c.544 6.632 7.41 10.8 13.542 8.214l14.01-5.907 3.736 18.859c1.203 6.073 7.678 9.51 13.382 7.105l16.363-6.899c5.703-2.404 7.762-9.44 4.254-14.541M425.829 261.112l-13.002-14.162 13.046-7.808c5.71-3.417 6.408-11.419 1.38-15.778-13.054-11.318-32.397-13.555-48.029-4.2s-22.802 27.46-18.997 44.312c1.466 6.491 8.847 9.657 14.557 6.24l13.046-7.808 6.336 18.151c2.04 5.845 8.932 8.344 14.244 5.165l15.237-9.119c5.314-3.178 6.369-10.432 2.182-14.993M134.5 232.521l-12.506 14.602-9.312-12.019c-4.076-5.261-12.103-4.997-15.83.516-9.676 14.313-9.584 33.786 1.573 48.187s29.989 19.355 46.266 13.562c6.269-2.231 8.53-9.938 4.455-15.199l-9.312-12.019 17.263-8.461c5.559-2.724 7.216-9.866 3.424-14.759l-10.876-14.038c-3.789-4.894-11.118-5.074-15.145-.372"/></g><path d="M436.844 74.812C358.831-5.539 228.559-23.346 131.495 32.02c-8.473 4.715-1.177 17.821 7.296 13.105 158.655-89.381 359.35 28.409 358.031 210.709 2.672 129.533-111.455 243.681-241.001 240.996C27.533 495.767-71.961 208.08 107.026 66.24c7.624-5.993-1.646-17.786-9.27-11.793-190.134 150.72-84.396 456.263 158.07 457.384 227.226-.215 341.539-276.206 181.018-437.019"/><path d="M459.784 178.084c-3.12-4.744-5.342-10.076-6.604-15.848-4.807-21.986-17.145-40.607-35.68-53.851-5.532-3.952-9.891-8.474-12.957-13.44-8.599-13.931-21.391-23.514-36.993-27.715-5.768-1.553-11.329-4.278-16.531-8.1-25-18.371-54.712-25.767-85.93-21.385-6.091.855-11.844.751-17.1-.311-22.568-4.56-44.607-.605-63.733 11.437-5.153 3.244-10.517 5.434-15.944 6.51-25.261 5.008-46.459 19.081-61.302 40.698-3.076 4.479-6.64 8.252-10.593 11.214-28.011 20.987-45.069 50.132-49.331 84.284-.772 6.185-2.574 11.783-5.354 16.638-6.506 11.36-8.505 24.115-5.781 36.887 1.567 7.348 1.709 14.21.423 20.396-3.12 14.995-.747 29.898 6.862 43.101 2.947 5.113 4.906 10.848 5.821 17.046 4.702 31.832 21.177 58.876 47.643 78.21a48.3 48.3 0 0 1 10.474 10.429c19.865 27.067 47.634 43.763 80.306 48.281 5.886.814 11.432 2.702 16.485 5.612 13.442 7.742 29.483 9.768 44.484 5.882 5.683-1.471 11.483-1.884 17.236-1.229 36.984 4.212 72.935-6.357 101.229-29.767 5.205-4.308 10.965-7.441 17.12-9.314 9.625-2.928 17.229-9.215 21.991-18.182 3.05-5.742 7.284-10.87 12.584-15.242 27.865-22.981 44.989-55.256 48.219-90.879.535-5.896 2.382-11.843 5.49-17.675 4.74-8.895 5.809-18.749 3.093-28.497a47.55 47.55 0 0 1-1.26-19.787c3.42-23.3-1.549-45.915-14.367-65.403m-.701 106.631c-4.055 7.609-6.475 15.473-7.191 23.375-2.907 32.061-17.716 59.953-42.825 80.662-6.829 5.632-12.309 12.287-16.287 19.777-2.933 5.521-7.221 9.075-13.11 10.867-8.065 2.454-15.574 6.528-22.317 12.108-25.486 21.088-56.599 30.223-89.968 26.42-7.588-.864-15.224-.323-22.695 1.612-11.748 3.044-22.93 1.577-33.237-4.36-6.734-3.878-14.108-6.392-21.916-7.472-28.56-3.95-52.858-18.576-70.268-42.298a63.3 63.3 0 0 0-13.718-13.666C82.403 374.83 68 351.216 63.899 323.45c-1.192-8.073-3.771-15.591-7.665-22.345-5.823-10.104-7.563-21.058-5.172-32.555 1.714-8.238 1.566-17.181-.438-26.58-1.969-9.233-.581-18.082 4.127-26.303 3.773-6.587 6.204-14.068 7.223-22.235 3.745-30.014 18.767-55.65 43.44-74.137 5.264-3.944 9.962-8.899 13.964-14.728 12.582-18.323 30.512-30.244 51.853-34.475 7.235-1.434 14.307-4.304 21.02-8.53 15.717-9.895 34.614-13.096 52.771-9.427 6.924 1.398 14.378 1.554 22.155.462 27.264-3.825 53.182 2.611 74.962 18.618 6.706 4.927 13.944 8.459 21.513 10.497 12.016 3.235 21.479 10.337 28.129 21.109 4.118 6.672 9.837 12.649 17 17.767 15.46 11.046 25.747 26.555 29.747 44.85 1.656 7.574 4.591 14.602 8.725 20.887 10.766 16.367 14.937 35.379 12.061 54.981-1.279 8.72-.724 17.464 1.651 25.99 1.708 6.139 1.093 11.836-1.882 17.419"/><path d="M336.954 324.479c3.79 8.689 17.618 2.876 13.75-5.996-6.713-15.395-19.01-27.25-34.624-33.382s-32.691-5.812-48.087.902a7.5 7.5 0 0 0 5.996 13.75c11.722-5.112 24.724-5.356 36.608-.69 11.885 4.666 21.245 13.692 26.357 25.416M189.565 299.683a7.5 7.5 0 0 0-7.248 7.744c.423 12.782-4.149 24.955-12.874 34.277s-20.569 14.689-33.351 15.112a7.5 7.5 0 1 0 .496 14.992c16.786-.556 32.344-7.606 43.807-19.854s17.47-28.237 16.915-45.023a7.493 7.493 0 0 0-7.745-7.248M281.218 217.579a7.5 7.5 0 0 0-13.325-6.889c-12.112 23.43-41.029 32.638-64.458 20.524a7.5 7.5 0 0 0-6.889 13.325c29.69 15.96 69.818 3.443 84.672-26.96M129.431 162.497c22.99-11.586 53.162-.944 63.795 22.501 4.081 8.53 17.706 2.251 13.53-6.475-7.25-15.15-19.954-26.567-35.774-32.146s-32.876-4.661-48.026 2.59a7.5 7.5 0 0 0-3.528 10.002 7.497 7.497 0 0 0 10.003 3.528M331.026 220.828c4.837 0 8.841-5.764 6.923-10.379-10.12-24.357 1.463-52.406 25.82-62.525a7.5 7.5 0 1 0-5.755-13.852c-31.482 12.327-47.528 51.185-33.917 82.132a7.5 7.5 0 0 0 6.929 4.624M394.727 322.704a7.5 7.5 0 0 0-7.315 7.68c1.156 25.718-20.91 48.887-46.653 48.986a7.5 7.5 0 0 0 .365 14.995c16.791-.409 32.409-7.325 43.978-19.472 11.568-12.147 17.714-28.084 17.305-44.874-.1-4.141-3.525-7.455-7.68-7.315M228.427 129.362l5.556 2.26-5.573 8.327c-6.001 8.967-2.149 21.539 7.845 25.606l16.449 6.692c8.284 3.369 23.492-2.171 23.492-12.857l1.823-9.853 5.557 2.261c10.723 4.359 22.946-3.266 23.746-14.814 1.455-20.994-10.674-40.431-30.18-48.367-19.507-7.935-41.76-2.486-55.375 13.561-7.487 8.825-4.062 22.822 6.66 27.184m4.778-17.479c9.237-10.887 25.066-14.748 38.285-9.371a33.53 33.53 0 0 1 20.868 33.436q-.569 2.576-3.129 1.956l-14.083-5.729q-7.753-2.055-10.201 5.583l-3.498 18.904q-.741 2.315-3.09 1.691l-16.448-6.691q-2.117-1.194-1.032-3.369l10.693-15.977q3.58-7.178-3.407-11.119l-14.083-5.729q-2.267-1.346-.875-3.585M287.348 347.092a7.5 7.5 0 0 0-9.803 11.353 33.6 33.6 0 0 1 3.367 3.342q1.419 2.223-.83 3.595l-14.009 5.907q-6.936 4.029-3.266 11.161l10.895 15.841q1.11 2.16-.989 3.38l-16.363 6.899q-2.34.652-3.111-1.652l-3.736-18.859q-2.544-7.607-10.271-5.453l-14.009 5.907q-2.553.652-3.153-1.916c-1.331-16.228 9.636-31.411 25.402-35.347a7.5 7.5 0 1 0-3.632-14.554c-22.743 5.678-38.635 27.765-36.72 51.127.946 11.535 13.265 19.007 23.931 14.512l5.527-2.331 1.947 9.829c2.096 10.577 13.731 16.74 23.653 12.559l16.363-6.899c9.941-4.192 13.635-16.813 7.521-25.703l-5.678-8.256 5.527-2.331c10.667-4.497 13.915-18.536 6.316-27.266a49 49 0 0 0-4.879-4.845M432.167 217.698c-15.9-13.787-38.725-15.782-56.794-4.969-18.069 10.814-27.096 31.873-22.461 52.4 2.549 11.289 15.792 16.966 25.725 11.024l5.147-3.081 3.302 9.46c3.553 10.179 15.853 14.709 25.177 9.128l15.237-9.119c9.667-5.786 10.212-18.242 3.854-26.502l-6.777-7.381 5.147-3.081c9.933-5.942 11.188-20.298 2.443-27.879m-9.048 13.257a2.23 2.23 0 0 1-1.097 1.753l-13.046 7.808q-6.304 4.959-1.673 11.508l13.002 14.161q1.403 1.984-.507 3.487l-15.237 9.119q-2.226.974-3.312-1.201l-6.336-18.151c-1.597-4.574-7.062-6.28-10.933-3.963l-13.045 7.807q-2.437 1.003-3.391-1.456c-3.204-14.19 3.038-28.748 15.532-36.225s28.273-6.099 39.265 3.432a2.23 2.23 0 0 1 .778 1.921M147.206 304.435c10.903-3.88 14.959-17.708 7.869-26.858l-3.674-4.742 8.998-4.41c9.689-4.748 12.66-17.559 6.052-26.087L155.576 228.3c-6.902-8.909-19.33-7.954-26.772-.657l-6.518 7.61-3.674-4.742c-7.088-9.15-21.494-8.675-27.972.909-26.141 38.707 12.669 88.416 56.566 73.015m-42.852-25.221a33.53 33.53 0 0 1-1.288-39.394 2.28 2.28 0 0 1 3.688-.123l9.312 12.019q5.677 5.666 11.625.285l12.505-14.602c1.025-.816 2.543-1.176 3.522.086l10.875 14.038q1.233 2.094-.796 3.432l-17.263 8.461q-6.696 4.415-2.628 11.328l9.312 12.02q1.285 2.298-1.041 3.539a33.53 33.53 0 0 1-37.823-11.089M172.824 399.332c-9.652 0-9.668 15 0 15 9.652 0 9.668-15 0-15M222.824 294.332c9.652 0 9.668-15 0-15-9.652 0-9.668 15 0 15M319.824 340.332c-9.652 0-9.668 15 0 15 9.652 0 9.668-15 0-15M369.824 187.332c9.652 0 9.668-15 0-15-9.652 0-9.668 15 0 15M174.824 118.332c9.652 0 9.668-15 0-15-9.652 0-9.668 15 0 15M147.824 198.332c9.652 0 9.668-15 0-15-9.652 0-9.668 15 0 15M330.824 108.332c9.652 0 9.668-15 0-15-9.652 0-9.668 15 0 15M303.824 252.332c9.652 0 9.668-15 0-15-9.652 0-9.668 15 0 15"/></svg>