<svg xmlns="http://www.w3.org/2000/svg" width="512" height="512" viewBox="0 0 511.897 511.897"><path fill="#f9f3f1" d="M377.636 6.839c-28.409 0-54.635 7.399-75.771 19.896C173.876 100.37 29.342 312.417 29.342 312.417l265.749 142.13c59.139-56.209 209.306-255.209 209.306-347.349 0-55.427-56.753-100.359-126.761-100.359"/><path fill="#f3eae6" d="M377.636 6.839c-7.678 0-15.197.541-22.499 1.576 59.275 8.407 104.26 49.436 104.26 98.784 0 84.9-127.496 260.528-193.797 331.576l29.491 15.773c59.139-56.209 209.306-255.209 209.306-347.349 0-55.428-56.753-100.36-126.761-100.36"/><ellipse cx="168.082" cy="376.62" fill="#fd4755" rx="160.685" ry="127.219"/><path fill="#fb2b3a" d="M168.082 249.401c-8.504 0-16.853.523-25 1.531 76.87 9.507 135.685 62.16 135.685 125.688S219.953 492.8 143.082 502.307a204 204 0 0 0 25 1.531c88.744 0 160.685-56.958 160.685-127.219s-71.941-127.218-160.685-127.218"/><path d="M428.187 298.469c69.187-105.155 83.71-162.055 83.71-191.271 0-103.462-141.498-129.698-213.772-86.966C216.368 63.96 91.932 207.179 24.043 306.888c-31.791 41.021-32.127 97.083-.578 138.598 5.783 7.784 17.824-1.16 12.041-8.944-66.941-96.121 38.48-181.915 132.577-179.64 84.465-.002 153.184 53.704 153.184 119.717-1.34 111.564-171.923 155.338-259.18 86.361-7.756-5.821-16.758 6.18-9.001 11.999 69.077 52.381 185.173 48.848 247.831-15.625 49.001-46.867 90.111-104.408 127.27-160.885m-34.939 24.613c-4.649-22.349-12.91-42.622-24.686-60.572 12.946-17.026 25.674-34.611 38.273-53.536 10.559 18.678 17.338 40.032 20.186 63.623-10.807 17.122-22.099 33.941-33.773 50.485m-34.317-73.773c-12.72-15.73-28.287-29.136-46.467-40.047a4471 4471 0 0 1 43.142-53.87c16.966 10.894 31.208 24.269 42.431 39.837-3.898 5.509-39.233 53.923-39.106 54.08m-180.867-7.176c13.801-17.338 27.01-33.391 39.598-48.234 24.864 2.684 49.451 9.243 72.011 20.112a4726 4726 0 0 0-35.969 46.561c-22.85-10.844-48.651-17.183-75.64-18.439M72.729 265.561c12.089-15.934 26.644-34.553 42.934-54.301 17.337-12.435 48.444-19.599 83.446-18.624-12.791 15.263-26.182 31.724-40.145 49.458-31.211 1.326-60.864 9.447-86.235 23.467M259.358 65.075c17.575-2.522 38.092-2.764 59.351.075-13.381 12.354-28.906 27.441-46.422 45.65-21.774-2.71-44.135-2.67-65.801.969C224.81 94 242.491 78.383 259.358 65.075m183.448-35.614c-10.077 11.152-24.12 27.133-41.285 47.275-15.902-9.049-32.275-15.544-50.32-20.419 29.124-24.88 47.296-36.209 53.17-39.626 13.888 2.486 26.858 6.866 38.435 12.77m-51.161 58.917a3993 3993 0 0 0-39.497 47.536c-18.651-10.196-39.588-17.701-61.815-22.181 18.109-18.519 33.857-33.456 47.051-45.306 18.476 4.036 37.028 10.517 54.261 19.951m45.454 61.2q5.649 3.208 10.36-2.272a432 432 0 0 0 2.73-4.322c9.147 14.801 16.194 32.001 20.391 51.875-8.555 17.965-19.117 37.472-31.573 58.263-4.444-21.172-12.114-40.492-22.827-57.661 2.125-3.05 4.186-5.987 6.387-8.99 5.735-7.819-6.363-16.692-12.096-8.87a349 349 0 0 0-3.402 4.727c-11.436-14.881-25.457-27.835-41.917-38.621a3841 3841 0 0 1 39.519-47.444c13.421 8.959 25.726 19.967 36.161 33.299a455 455 0 0 1-6.006 9.656 7.5 7.5 0 0 0 2.273 10.36m-251.05-17.373c19.844-6.691 45.727-9.653 73.131-7.585-14.754 15.771-30.754 33.595-47.923 53.668-24.452-1.842-49.638-.369-73.264 6.516 16.356-18.927 32.408-36.49 48.056-52.599m102.292 64.708c-18.3-7.921-38.429-13.538-59.038-16.605 17.476-20.198 33.657-37.966 48.455-53.53 22.001 3.462 44.32 10.242 64.732 20.981a4617 4617 0 0 0-43.347 54.19 213 213 0 0 0-10.802-5.036m191.966-23.901c-5.458-17.059-12.913-31.712-21.539-44.285 10.488-17.974 20.817-36.118 30.29-54.649 15.158 32.791 6.4 59.209-8.751 98.934m-.661-113.877c-8.812 19.535-20.084 38.092-30.728 56.669-10.767-12.758-22.684-22.926-34.498-31 20.529-24.02 34.91-40.14 41.59-47.541 9.244 6.286 17.233 13.664 23.636 21.872M305.682 33.19c22.41-13.249 48.807-19.289 74.734-18.826-16.547 11.603-32.199 24.486-47.357 37.836-16.787-3.138-34-4.537-50.856-4.078 8.057-5.582 15.891-10.566 23.479-14.932m-19.323 247.592a166 166 0 0 0-19.208-13.106 4757 4757 0 0 1 35.963-46.513c16.453 9.637 33.088 22.853 46.868 40.927-12.024 15.563-24.262 30.778-36.774 46.254-7.323-9.958-16.311-19.219-26.849-27.562m35.4 40.842c12.623-15.603 24.967-30.896 37.104-46.504 10.66 17.581 18.672 39.009 22.076 65.11-16.359 22.403-32.61 43.165-47.438 60.986 6.196-26.879 1.871-55.403-11.742-79.592"/><path d="M87.005 354.686c18.928 3.881 29.59 14.442 33.554 33.237.837 4.08 4.936 6.656 8.886 5.791a7.5 7.5 0 0 0 5.791-8.886c-5.203-24.666-20.416-39.75-45.218-44.835-17.573-3.603-18.566-17.516-18.622-19.15-.077-4.112-3.468-7.4-7.579-7.353a7.5 7.5 0 0 0-7.419 7.58c.101 9.476 6.628 28.699 30.607 33.616M264.451 430.663c4.346-12.418 13.192-16.825 19.446-16.825 9.888-.289 9.931-14.694 0-15-17.861 0-29.265 14.475-33.604 26.87-4.464 12.755-19.505 25.667-39.616 25.667a7.5 7.5 0 0 0 0 15c28.359.001 47.754-18.511 53.774-35.712"/></svg>