<svg xmlns="http://www.w3.org/2000/svg" width="512" height="512" viewBox="0 0 512.09 512.09"><path fill="#f3eae6" d="M483.62 302.714c12.212-53.061-21.175-100.014-21.175-100.014 9.242-51.119-19.616-100.498-19.616-100.498H68.74s-28.858 48.394-19.616 99.514c0 0-33.386 47.937-21.175 100.998 0 0-31.836 40.883-15.988 85.643 17.156 48.454 115.823 89.701 243.824 89.701s226.291-41.382 243.824-89.701c17.16-47.293-15.989-85.643-15.989-85.643"/><path fill="#efe2dd" d="M483.62 302.714c12.212-53.061-21.175-100.014-21.175-100.014 9.242-51.119-19.616-100.498-19.616-100.498h-40s28.858 49.379 19.616 100.498c0 0 33.386 46.952 21.175 100.014 0 0 33.149 38.35 15.988 85.643-16.608 45.772-105.687 85.319-223.84 89.361q9.88.339 20.017.34c128.001 0 226.291-41.382 243.824-89.701 17.16-47.293-15.989-85.643-15.989-85.643"/><path fill="#f9f3f1" d="M320.387 180.382s25.651 20.4 14.255 71.808c0 0 33.506 45.105 19.061 98.354 0 0 30.202 55.133 11.679 115.708 0 0-36.851 11.807-109.597 11.807s-109.597-11.807-109.597-11.807c-18.523-60.575 11.679-115.708 11.679-115.708-14.444-53.248 19.061-98.354 19.061-98.354-11.396-51.407 14.255-71.808 14.255-71.808z"/><ellipse cx="255.785" cy="109.162" fill="#f9f3f1" rx="187.045" ry="75.078"/><path d="M491.687 300.836c9.333-47.553-14.439-89.038-21.354-99.825 8.03-52.097-19.815-100.518-21.027-102.592-41.607-80.11-209.451-80.521-290.188-61.25-9.435 2.236-5.978 16.831 3.459 14.596 65.958-16.372 164.428-12.972 222.675 11.27 66.312 26.397 66.345 65.854-.001 92.255-67.482 28.387-191.45 28.388-258.933-.001-66.248-26.372-66.372-65.791-.109-92.209 8.996-3.618 3.401-17.533-5.597-13.917-27.18 10.929-43.745 24.78-58.313 49.199-1.214 2.036-29.11 49.589-21.055 101.702-6.854 10.882-30.771 53.235-21.322 100.971-7.288 10.641-29.735 48.292-15.03 89.826 9.275 26.197 39.368 50.177 84.736 67.523 86.403 34.059 226.216 35.937 316.141 5.606 9.224-2.992 4.594-17.257-4.631-14.267-8.227 2.67-16.771 5.093-25.591 7.264 11.151-51.231-8.285-95.948-13.871-107.329 11.611-47.721-11.812-88.12-19.032-99.076 6.555-33.108-1.48-54.168-8.724-65.543 40.106-6.813 96.61-25.844 112.054-57.872 6.902 18.312 14.159 46.179 9.093 74.201a7.53 7.53 0 0 0 1.262 5.672c.313.444 31.264 44.978 19.983 93.994a7.5 7.5 0 0 0 1.635 6.587c.303.35 30.094 35.516 14.613 78.18-6.228 17.161-25.083 34.358-53.093 48.425-8.498 4.268-1.717 17.648 6.732 13.404 31.904-16.022 52.812-35.633 60.46-56.713 15.812-43.58-7.159-79.605-14.972-90.081M19.031 385.854c-14.242-40.225 14.552-78.164 14.836-78.531a7.5 7.5 0 0 0 1.392-6.29c-11.292-49.064 19.711-94.583 20.02-95.029a7.5 7.5 0 0 0 1.226-5.621c-5.047-27.915 2.141-55.35 9.014-73.377 15.375 32.145 71.938 51.195 112.133 58.033-7.244 11.375-15.28 32.436-8.724 65.543-7.221 10.956-30.644 51.355-19.033 99.076-5.587 11.384-25.029 56.114-13.866 107.355-14.584-3.56-28.349-7.786-41.044-12.64-40.598-15.523-68.282-36.852-75.954-58.519M327.32 250.566a7.53 7.53 0 0 0 1.294 6.085c.313.424 31.13 42.979 17.852 91.928a7.52 7.52 0 0 0 .656 5.558c.28.515 27.307 51.145 12.076 106.52-63.369 13.186-143.324 13.119-206.826-.005-15.228-55.373 11.797-106 12.072-106.506a7.5 7.5 0 0 0 .661-5.567c-13.278-48.949 17.539-91.504 17.844-91.918a7.5 7.5 0 0 0 1.302-6.095c-8.646-39.004 5.347-57.804 10.121-62.882 38.817 5.391 84.002 5.391 122.819.001 4.84 5.155 18.757 23.958 10.129 62.881"/><path d="M392.693 103.796c7.248 0 9.842-9.866 4.237-13.693-27.264-18.626-83.688-30.196-147.252-30.196-9.697 0-9.697 15 0 15 59.786 0 114.265 10.827 138.792 27.582a7.46 7.46 0 0 0 4.223 1.307M267.75 89.481c-9.697 0-9.697 15 0 15 19.464 0 48.732 2.902 66.999 9.274 8.816 3.072 14.041-10.988 4.941-14.163-19.915-6.947-51.251-10.111-71.94-10.111M205.644 256.318a7.5 7.5 0 0 0 5.578 9.021c14.208 4.047 61.236 8.062 88.73-.023 9.408-2.351 5.771-16.902-3.637-14.553-38.908 9.722-80.985.131-81.649-.023a7.5 7.5 0 0 0-9.022 5.578M441.347 212.688c-2.503-3.287-7.205-3.923-10.501-1.428-7.074 5.353-28.83 16.837-60.535 21.987-9.422 1.53-6.729 16.295 2.404 14.806 43.657-7.091 66.298-24.153 67.24-24.875 3.28-2.516 3.897-7.203 1.392-10.49M71.614 223.177c.942.723 23.583 17.785 67.241 24.875 9.292 1.515 11.788-13.282 2.405-14.806-31.706-5.15-53.461-16.634-60.536-21.987a7.501 7.501 0 0 0-9.11 11.918M191.342 350.779c-9.437-2.23-12.882 12.374-3.443 14.6 21.614 6.158 93.251 12.288 135.108-.023 9.408-2.351 5.772-16.903-3.637-14.553-61.195 15.29-127.186.172-128.028-.024M388.104 348.566q.556 0 1.122-.084c33.49-5.022 60.171-18.987 73.094-26.864a7.501 7.501 0 0 0-7.807-12.809c-9.627 5.868-35.476 20.035-67.512 24.838-9.005 1.351-7.823 14.919 1.103 14.919M124.568 333.648c-32.037-4.804-57.884-18.97-67.51-24.838a7.5 7.5 0 1 0-7.808 12.808c12.923 7.877 39.603 21.842 73.093 26.864 9.318 1.4 11.615-13.426 2.225-14.834M279.958 392.489c-11.988 3.46-35.768 2.787-48.225-.1-4.036-.938-8.064 1.579-9 5.613a7.5 7.5 0 0 0 5.613 9c14.52 3.365 40.996 4.161 55.77-.1a7.5 7.5 0 0 0-4.158-14.413M256.897 305.741c9.817 0 19.54-.883 26.584-2.916a7.5 7.5 0 0 0-4.158-14.412c-11.987 3.459-35.766 2.787-48.225-.101a7.505 7.505 0 0 0-9 5.614 7.5 7.5 0 0 0 5.614 9c7.596 1.76 18.448 2.815 29.185 2.815"/></svg>