<svg xmlns="http://www.w3.org/2000/svg" width="512" height="512" viewBox="0 0 512.942 512.942"><path fill="#f3eae6" d="M289.57 474.826c-10.867 0-21.734-.052-32.601-.052-57.828 0-122.649 5.506-176.811-18.818-47.57-21.362-71.689-63.895-71.689-126.418 0-140.338 95.338-291.929 248.5-291.929 149.661 0 248.5 154.534 248.5 291.929 0 62.519-24.121 105.051-71.692 126.415-38.862 17.454-88.3 18.873-144.207 18.873"/><path fill="#fd4755" d="M158.144 193.635c67.784.299 58.607 94.573 41.818 129.679h113.443c-16.788-35.106-25.965-129.38 41.818-129.679 21.059-.093 44.76 6.707 65.596 19.47 12.15 7.442 26.435-5.84 19.79-18.443-36.678-69.57-102.124-125.606-183.64-125.606-79.462 0-149.09 50.612-186.928 127.233-6.314 12.787 8.268 25.646 20.265 17.936 20.375-13.093 44.426-20.693 67.838-20.59"/><path fill="#fb2b3a" d="M440.61 194.661C403.931 125.092 338.485 69.056 256.969 69.056c-6.835 0-13.597.375-20.272 1.108 72.331 8.176 130.243 60.635 163.913 124.498 1.589 3.014 1.98 6.067 1.491 8.866a138 138 0 0 1 18.719 9.578c12.149 7.441 26.435-5.841 19.79-18.445"/><path fill="#fe99a0" d="M355.224 193.635c-67.784.001-58.607 94.573-41.818 129.679H199.962c16.788-35.106 25.965-129.38-41.818-129.679-23.412-.103-48.45 6.075-67.839 20.59-33.837 25.331-50.44 66.356-50.44 115.314 0 119.903 97.392 113.789 217.104 113.789s217.104 6.114 217.104-113.789c-.001-22.365-15.438-135.905-118.849-135.904"/><path fill="#fd8087" d="M355.224 193.635c-6.062 0-11.508.757-16.389 2.159 82.219 15.773 95.238 113.205 95.238 133.744 0 103.591-72.695 113.12-169.673 113.796 116.285.193 209.673 3.616 209.673-113.796-.001-22.364-15.438-135.904-118.849-135.903"/><path fill="#fe99a0" d="M216.969 443.328q-3.73 0-7.431.007c8.949.062 18.106.049 27.431.028-6.587-.016-13.258-.035-20-.035"/><path fill="#f9f3f1" d="M355.775 423.223c0 54.656-44.237 51.304-98.806 51.304s-98.806 3.352-98.806-51.304S202.4 290.6 256.969 290.6s98.806 77.967 98.806 132.623"/><path fill="#f3eae6" d="M256.969 290.6c-6.852 0-13.541 1.23-20 3.488 44.981 15.725 78.806 81.342 78.806 129.135s-33.825 51.231-78.806 51.341c6.459.016 13.148-.037 20-.037 54.569 0 98.806 3.352 98.806-51.304S311.538 290.6 256.969 290.6"/><path fill="#dc8758" d="M222.733 397.617c5.295-13.027 12.599-26.069 21.938-35.897 6.698-7.049 17.902-7.049 24.6 0 9.328 9.816 16.626 22.839 21.919 35.85 4.532 11.142-3.54 23.348-15.551 23.419-11.358.067-25.1.101-37.343.047-12.02-.053-20.096-12.268-15.563-23.419"/><path d="M494.78 223.526c-11.998-34.957-29.813-68.181-51.52-96.081C367.941 27.093 235.862.263 134.358 66.115c-8.155 5.247-.039 17.863 8.115 12.615 137.45-86.403 289.737 2.121 338.118 149.667 26.651 75.183 31.165 188.174-49.886 220.715-23.654 10.623-51.721 15.091-83.03 16.942 5.214-4.753 9.104-10.742 11.575-17.338 80.083-6.956 121.459-36.659 122.323-119.178.809-23.743-13.892-81.855-42.935-109.549 9.968-5.605 13.96-18.674 8.606-28.826C384.71 68.878 251.062 23.105 143.623 97.775c-33.123 22.96-60.893 55.877-80.308 95.192-4.835 9.79-1.15 22.179 8.088 27.869-46.299 41.929-56.707 161.426-2.747 200.533 19.435 15.342 46.1 23.844 86.031 27.347 2.639 7.045 6.908 13.389 12.642 18.278-29.406-1.629-58.071-6.192-84.1-17.881-126.499-58.355-53.204-278.788 28.867-347.04 7.184-6.514-2.891-17.624-10.076-11.112-90.126 76.688-163.605 307.991-24.935 371.837 47.787 21.462 101.551 20.477 152.829 19.739 67.332-1.416 152.834 5.31 206.937-19.741 89.249-36.123 87.415-155.787 57.929-239.27m-28.208 106.013c-.823 72.505-34.237 96.548-103.817 103.782 1.65-17.244-.836-33.737-6.327-52.163a7.5 7.5 0 0 0-9.371-4.968 7.5 7.5 0 0 0-4.969 9.371c5.478 18.756 8.352 36.644 4.349 53.937a7 7 0 0 0-.11.411c-1.604 5.87-4.208 10.568-7.842 14.19-13.198 13.153-40.703 13.058-72.536 12.949-5.916-.021-12.043-.021-17.959 0-31.83.109-59.338.204-72.536-12.949-42.885-48.124 62.826-250.186 151.497-103.355 5.21 8.444 17.679 1.265 13.004-7.477-6.943-12.075-14.711-22.524-23.058-31.169-14.603-40.682-6.924-79.478 3.324-94.201 7.852-11.279 19.301-16.762 35.003-16.762 40.913 0 71.731 18.712 91.6 55.62 16.2 30.094 19.748 62.743 19.748 72.784M76.765 199.609c18.292-37.04 44.366-67.991 75.403-89.506C252.472 40.568 375.32 83.82 433.976 198.16c3.092 5.866-3.654 11.973-9.238 8.549-21.183-12.978-44.471-20.574-69.514-20.574-59.685-.278-67.346 65.9-58.24 109.462-25.812-16.739-54.968-16.591-80.677.415 2.015-10.265 3.138-21.035 3.21-31.394.108-15.787-2.242-38.17-14.056-55.155-10.553-15.171-26.902-23.237-47.283-23.327-27.253-.136-52.988 7.655-72.119 21.901-5.513 3.341-12.193-2.558-9.294-8.428m1.186 209.988C26.84 370.354 43.786 252.288 94.798 220.231l.046-.034c16.556-12.4 39.16-19.184 63.268-19.062 15.717.069 27.177 5.595 35.035 16.892 10.274 14.771 17.994 54.01 2.989 94.998q-.019.052-.036.103c-5.305 5.622-10.391 11.992-15.201 19.073-20.603 31.099-32.656 67.846-29.716 101.12-34.148-3.449-56.969-10.886-73.232-23.724"/><path d="M274.708 356.554c-9.444-9.94-26.005-9.965-35.474 0-9.039 9.511-16.099 23.739-23.45 38.239-5.205 10.266.685 33.744 22.479 33.744 12.473 0 24.947.026 37.42-.047 16.879-.099 28.829-18.072 22.454-33.745-6.297-15.483-14.4-28.689-23.429-38.191m8.64 52.763c-1.76 2.632-4.585 4.153-7.752 4.171-7.687.045-22.747.112-37.266.047-6.904-.031-10.421-6.484-8.649-13.095 5.603-13.786 12.666-25.388 20.427-33.554q6.864-5.907 13.728 0c7.752 8.157 14.809 19.745 20.408 33.51 1.218 2.996.892 6.248-.896 8.921M151.408 223.839a7.5 7.5 0 0 0-8.393-6.486c-46.204 5.919-65.698 46.005-66.505 47.709a7.5 7.5 0 0 0 3.565 9.989c3.659 1.758 8.21.215 9.989-3.566.163-.343 16.699-34.365 54.856-39.254a7.5 7.5 0 0 0 6.488-8.392"/></svg>