<svg xmlns="http://www.w3.org/2000/svg" width="512" height="512" viewBox="0 0 511.866 511.866"><path fill="#dc8758" d="M494.126 224.574c8.641-20.852 1.677-46.843-16.232-60.58 2.95-22.378-10.504-45.68-31.359-54.315-2.943-22.379-21.969-41.405-44.348-44.348-8.634-20.854-31.937-34.308-54.315-31.359-13.738-17.909-39.729-24.873-60.58-16.232-17.905-13.743-44.813-13.743-62.717 0-20.852-8.641-46.843-1.677-60.58 16.232-22.378-2.95-45.68 10.504-54.315 31.359-22.38 2.943-41.406 21.97-44.349 44.348-20.854 8.634-34.308 31.937-31.359 54.315-17.909 13.738-24.873 39.729-16.232 60.58-13.743 17.905-13.743 44.812 0 62.717-8.641 20.852-1.677 46.843 16.232 60.58-2.95 22.378 10.504 45.68 31.359 54.315 2.943 22.379 21.969 41.405 44.348 44.348 8.634 20.854 31.937 34.308 54.315 31.359 13.738 17.909 39.729 24.873 60.58 16.232 17.905 13.743 44.813 13.743 62.717 0 20.852 8.641 46.843 1.677 60.58-16.232 22.378 2.95 45.68-10.504 54.315-31.359 22.379-2.943 41.405-21.969 44.348-44.348 20.854-8.634 34.308-31.937 31.359-54.315 17.909-13.738 24.873-39.729 16.232-60.58 13.744-17.904 13.744-44.812.001-62.717"/><path fill="#f9f3f1" d="M455.859 229.612c7.253-17.502 1.407-39.317-13.625-50.848 2.476-18.783-8.817-38.341-26.321-45.589-2.47-18.783-18.44-34.753-37.223-37.223-7.247-17.504-26.806-28.796-45.589-26.321-11.531-15.032-33.346-20.877-50.848-13.625-15.028-11.535-37.613-11.535-52.641 0-17.502-7.253-39.317-1.407-50.848 13.625-18.783-2.476-38.342 8.817-45.589 26.321-18.783 2.47-34.753 18.44-37.223 37.223-17.504 7.247-28.796 26.806-26.321 45.589-15.031 11.531-20.877 33.346-13.624 50.848-11.535 15.028-11.535 37.613 0 52.641-7.253 17.502-1.407 39.317 13.625 50.848-2.476 18.783 8.817 38.341 26.321 45.589 2.47 18.783 18.44 34.753 37.223 37.223 7.247 17.504 26.806 28.796 45.589 26.321 11.531 15.032 33.346 20.877 50.848 13.625 15.028 11.535 37.613 11.535 52.641 0 17.502 7.253 39.317 1.407 50.848-13.625 18.783 2.476 38.342-8.817 45.589-26.321 18.783-2.47 34.753-18.44 37.223-37.223 17.504-7.247 28.796-26.806 26.321-45.589 15.032-11.531 20.877-33.346 13.625-50.848 11.534-15.028 11.534-37.613-.001-52.641"/><circle cx="255.933" cy="255.933" r="98.626" fill="#fd4755"/><path fill="#fb2b3a" d="M255.933 157.307c-6.852 0-13.541.699-20 2.029 44.881 9.244 78.626 48.979 78.626 96.597s-33.745 87.353-78.626 96.597a99 99 0 0 0 20 2.029c54.47 0 98.626-44.156 98.626-98.626s-44.156-98.626-98.626-98.626"/><g fill="#fd4755"><path d="M158.093 243.427v94.751c0 9.621 7.799 17.42 17.42 17.42s17.42-7.799 17.42-17.42v-42.579M192.933 298.761v94.751c0 9.621 7.799 17.42 17.42 17.42s17.42-7.799 17.42-17.42V335.6"/></g><path d="M502.521 223.469c7.066-21.765.198-47.4-16.805-62.715 1.193-22.853-12.077-45.836-32.464-56.229-4.762-22.382-23.528-41.148-45.911-45.911-10.394-20.387-33.383-33.667-56.229-32.463-15.315-17.004-40.95-23.872-62.715-16.806-19.194-12.459-45.733-12.459-64.928 0-21.768-7.068-47.4-.198-62.715 16.805-22.853-1.194-45.836 12.076-56.229 32.463-22.382 4.763-41.148 23.529-45.911 45.911-20.387 10.394-33.657 33.377-32.464 56.229-17.002 15.315-23.871 40.95-16.805 62.715-12.459 19.194-12.459 45.733 0 64.928-7.066 21.765-.198 47.4 16.805 62.715-1.192 22.851 12.076 45.833 32.46 56.228 1.045 4.948 2.779 9.783 5.176 14.421a7.5 7.5 0 0 0 10.106 3.221 7.5 7.5 0 0 0 3.22-10.106c-2.268-4.389-3.73-8.988-4.345-13.667a7.5 7.5 0 0 0-4.567-5.952c-17.79-7.366-29.308-27.316-26.792-46.405a7.5 7.5 0 0 0-2.871-6.931c-15.277-11.719-21.24-33.971-13.869-51.759a7.5 7.5 0 0 0-.979-7.438c-11.724-15.273-11.724-38.31 0-53.583a7.5 7.5 0 0 0 .979-7.438c-7.371-17.788-1.409-40.04 13.869-51.759a7.5 7.5 0 0 0 2.871-6.931c-2.516-19.089 9.002-39.04 26.792-46.405a7.5 7.5 0 0 0 4.567-5.952c2.51-19.09 18.799-35.379 37.89-37.89a7.5 7.5 0 0 0 5.952-4.567c7.365-17.791 27.315-29.311 46.405-26.792a7.5 7.5 0 0 0 6.931-2.871c11.719-15.278 33.97-21.241 51.758-13.869a7.5 7.5 0 0 0 7.438-.979c15.274-11.725 38.311-11.725 53.585 0a7.5 7.5 0 0 0 7.438.979c17.789-7.373 40.039-1.41 51.759 13.869a7.5 7.5 0 0 0 6.931 2.871c19.092-2.515 39.04 9.001 46.405 26.792a7.5 7.5 0 0 0 5.952 4.567c19.091 2.51 35.38 18.799 37.89 37.89a7.5 7.5 0 0 0 4.567 5.952c17.79 7.366 29.308 27.316 26.792 46.405a7.5 7.5 0 0 0 2.871 6.931c15.277 11.719 21.24 33.971 13.869 51.759a7.5 7.5 0 0 0 .979 7.438c11.724 15.273 11.724 38.31 0 53.583a7.5 7.5 0 0 0-.979 7.438c7.371 17.788 1.409 40.04-13.869 51.759a7.5 7.5 0 0 0-2.871 6.931c2.516 19.089-9.002 39.04-26.792 46.405a7.5 7.5 0 0 0-4.567 5.952c-2.51 19.09-18.799 35.379-37.89 37.89a7.5 7.5 0 0 0-5.952 4.567c-7.365 17.791-27.318 29.308-46.405 26.792a7.5 7.5 0 0 0-6.931 2.871c-11.72 15.277-33.972 21.239-51.759 13.869a7.5 7.5 0 0 0-7.438.979c-15.274 11.725-38.311 11.725-53.585 0a7.5 7.5 0 0 0-7.438-.979c-17.791 7.371-40.039 1.409-51.758-13.869a7.5 7.5 0 0 0-6.931-2.871c-19.092 2.513-39.04-9.002-46.405-26.792a7.5 7.5 0 0 0-5.952-4.567c-3.117-.41-6.258-1.219-9.335-2.404a7.5 7.5 0 0 0-5.393 13.997 57 57 0 0 0 8.596 2.561c10.393 20.388 33.383 33.663 56.229 32.464 15.315 17.002 40.948 23.871 62.715 16.805 19.195 12.459 45.733 12.459 64.928 0 21.763 7.066 47.399.198 62.716-16.805 22.743 1.187 45.879-12.16 56.229-32.463 22.382-4.763 41.148-23.529 45.911-45.911 20.387-10.394 33.657-33.377 32.464-56.229 17.002-15.315 23.871-40.95 16.805-62.715 12.459-19.196 12.459-45.735-.001-64.929"/><path d="M89.259 383.826c4.244 18.805 19.976 34.535 38.78 38.781 8.975 17.078 28.223 28.19 47.497 27.422 13.078 14.164 34.566 19.92 52.976 14.195 16.299 10.295 38.545 10.295 54.844 0 18.408 5.728 39.897-.032 52.976-14.194 19.266.775 38.528-10.358 47.496-27.422 18.803-4.246 34.535-19.978 38.781-38.781 17.063-8.967 28.188-28.235 27.422-47.496 14.161-13.079 19.919-34.569 14.194-52.976 10.294-16.298 10.294-38.546 0-54.844 5.725-18.407-.033-39.897-14.194-52.976.766-19.261-10.359-38.528-27.422-47.496-4.246-18.804-19.976-34.537-38.781-38.781-8.967-17.066-28.227-28.19-47.496-27.422-13.08-14.162-34.568-19.92-52.975-14.194-16.299-10.296-38.545-10.295-54.844 0-18.407-5.724-39.897.035-52.976 14.194-19.246-.757-38.53 10.357-47.496 27.422-18.806 4.245-34.536 19.975-38.781 38.781-17.063 8.967-28.188 28.235-27.422 47.496-14.164 13.078-19.92 34.567-14.195 52.976-10.294 16.298-10.294 38.546 0 54.844-5.725 18.408.031 39.897 14.195 52.976-.767 19.26 10.357 38.528 27.421 47.495m-26.323-98.701a7.5 7.5 0 0 0-.979-7.438c-9.52-12.402-9.52-31.106 0-43.508a7.5 7.5 0 0 0 .979-7.438c-5.985-14.443-1.145-32.51 11.261-42.025a7.5 7.5 0 0 0 2.871-6.931c-2.043-15.5 7.31-31.698 21.754-37.679a7.5 7.5 0 0 0 4.567-5.952c2.038-15.5 15.264-28.727 30.765-30.765a7.5 7.5 0 0 0 5.952-4.567c5.98-14.445 22.18-23.798 37.679-21.754a7.5 7.5 0 0 0 6.931-2.871c9.516-12.405 27.581-17.247 42.026-11.261a7.5 7.5 0 0 0 7.438-.979c12.401-9.52 31.106-9.52 43.508 0a7.5 7.5 0 0 0 7.438.979c14.445-5.984 32.51-1.144 42.026 11.261a7.5 7.5 0 0 0 6.931 2.871c15.502-2.044 31.699 7.309 37.679 21.754a7.5 7.5 0 0 0 5.952 4.567c15.501 2.039 28.727 15.265 30.765 30.765a7.5 7.5 0 0 0 4.567 5.952c14.445 5.98 23.797 22.179 21.754 37.678a7.5 7.5 0 0 0 2.871 6.931c12.405 9.516 17.246 27.583 11.261 42.025a7.5 7.5 0 0 0 .979 7.438c9.52 12.402 9.52 31.106 0 43.508a7.5 7.5 0 0 0-.979 7.438c5.985 14.443 1.145 32.51-11.261 42.025a7.5 7.5 0 0 0-2.871 6.931c2.043 15.5-7.309 31.698-21.754 37.678a7.5 7.5 0 0 0-4.567 5.952c-2.038 15.5-15.264 28.727-30.765 30.765a7.5 7.5 0 0 0-5.952 4.567c-5.98 14.445-22.182 23.797-37.679 21.754a7.49 7.49 0 0 0-6.931 2.871c-9.516 12.405-27.581 17.248-42.026 11.261a7.5 7.5 0 0 0-7.438.979c-12.401 9.52-31.106 9.52-43.508 0q-3.588-2.492-7.438-.979c-14.443 5.986-32.51 1.145-42.025-11.261a7.5 7.5 0 0 0-6.931-2.871c-15.5 2.045-31.699-7.309-37.679-21.754a7.5 7.5 0 0 0-5.952-4.567c-15.5-2.038-28.727-15.264-30.765-30.765a7.5 7.5 0 0 0-4.567-5.952c-14.445-5.98-23.797-22.179-21.754-37.679a7.5 7.5 0 0 0-2.871-6.931c-12.407-9.513-17.247-27.58-11.262-42.023"/><path d="M110.873 234.418c5.752 0 9.53-7.407 5.938-12.074-9.789-12.72-1.897-31.942 13.93-34.156q7.365-1.91 6.189-9.428a14.17 14.17 0 0 1 5.036-15.066 7.5 7.5 0 1 0-9.148-11.888c-7.389 5.686-11.484 14.331-11.415 23.326-22.671 8.187-31.22 37.204-16.479 56.359a7.49 7.49 0 0 0 5.949 2.927M355.106 366.876c.557 3.724 4.799 6.865 8.527 6.308 9.409-1.407 16.542-8.617 18.308-17.451 19.823-1.493 31.425-24.56 20.877-41.332 9.148-7.388 13.956-19.167 12.129-31.38a7.5 7.5 0 0 0-14.835 2.217c1.297 8.677-3.684 17.278-11.845 20.451-5.517 2.146-6.405 9.829-1.522 13.176 10.652 7.301 2.684 25.348-10.265 21.431-7.011-2.119-9.953 5.054-9.196 10.119a6.986 6.986 0 0 1-5.871 7.934 7.5 7.5 0 0 0-6.307 8.527M192.933 263.433c9.652 0 9.668-15 0-15-9.652 0-9.668 15 0 15M326.933 259.099c9.652 0 9.668-15 0-15-9.652 0-9.668 15 0 15M276.933 316.933c9.652 0 9.668-15 0-15-9.652 0-9.668 15 0 15M272.933 191.933c-9.652 0-9.668 15 0 15 9.652 0 9.668-15 0-15"/><path d="M174.727 363.098c3.524 0 6.879-.735 9.92-2.06v32.474c1.257 33.022 48.595 32.998 49.84 0V359.88a107.6 107.6 0 0 0 21.443 2.148c78.937.557 130.989-85.426 94.118-155.18a7.5 7.5 0 1 0-13.294 6.947c26.676 49.294-.785 114.048-54.574 129.43-15.335 4.603-32.092 5.035-47.692 1.294V335.6c-.307-9.916-14.696-9.909-15 0v57.913c-.5 13.146-19.345 13.135-19.84 0V295.6c-.307-9.916-14.696-9.909-15 0v42.579c-.5 13.145-19.344 13.135-19.84 0v-82.246c-1.003-53.791 49.998-98.461 103.244-90.329 14.384 1.91 28.278 7.337 40.18 15.693a7.5 7.5 0 0 0 10.448-1.829 7.5 7.5 0 0 0-1.829-10.448c-13.868-9.737-30.06-16.06-46.825-18.286-61.736-9.428-120.977 42.155-120.216 104.51l-.002.182v82.751c-.001 13.742 11.178 24.921 24.919 24.921"/></svg>