<svg xmlns="http://www.w3.org/2000/svg" width="512" height="512" viewBox="0 0 512.099 512.099"><path fill="#fed402" d="M475.807 499.481c-14.354 15.949-26.599-11.341-48.108-11.341-21.51 0-21.51 13.604-43.021 13.604s-21.51-13.604-43.019-13.604c-21.507 0-21.507 13.604-43.014 13.604-21.51 0-21.51-13.604-43.02-13.604s-21.51 13.604-43.02 13.604-21.511-13.604-43.022-13.604-21.51 13.604-43.021 13.604c-21.513 0-21.513-13.604-43.027-13.604s-33.756 27.291-48.115 11.342c-16.02-17.794 11.92-28.435 11.92-52.33 0-23.896-13.665-23.896-13.665-47.791s13.665-23.895 13.665-47.789c0-23.892-13.665-23.892-13.665-47.784 0-23.895 13.665-23.895 13.665-47.79s-13.665-23.895-13.665-47.791 13.665-23.896 13.665-47.793-13.665-23.896-13.665-47.791c0-23.899 13.665-23.899 13.665-47.798s-27.941-34.54-11.921-52.339C49.773-3.462 62.018 23.828 83.527 23.828c21.51 0 21.51-13.604 43.021-13.604s21.51 13.604 43.019 13.604c21.507 0 21.507-13.604 43.014-13.604 21.51 0 21.51 13.604 43.02 13.604s21.51-13.604 43.02-13.604 21.511 13.604 43.022 13.604 21.51-13.604 43.021-13.604c21.513 0 21.513 13.604 43.027 13.604s33.756-27.291 48.115-11.342c16.02 17.794-11.92 28.435-11.92 52.33 0 23.896 13.665 23.896 13.665 47.791s-13.665 23.895-13.665 47.789c0 23.892 13.665 23.892 13.665 47.784 0 23.895-13.665 23.895-13.665 47.79s13.665 23.895 13.665 47.791-13.665 23.896-13.665 47.793 13.665 23.896 13.665 47.791c0 23.899-19.389 26.323-13.453 49.48 6.938 27.061 27.729 32.857 11.709 50.656"/><path fill="#fee97d" d="M378.069 432.564a1034.7 1034.7 0 0 1-244.913 0c-17.504-2.089-31.334-15.832-33.241-33.28a1319.3 1319.3 0 0 1 0-286.602c1.907-17.448 15.736-31.191 33.241-33.28a1034.7 1034.7 0 0 1 244.914 0c17.505 2.089 31.336 15.833 33.241 33.282a1321.5 1321.5 0 0 1 0 286.598c-1.906 17.45-15.737 31.194-33.242 33.282"/><path fill="#fee45a" d="M411.31 112.685c-1.905-17.449-15.736-31.193-33.241-33.282a1034 1034 0 0 0-142.455-7.078c34.24.661 68.447 3.021 102.455 7.078 17.505 2.089 31.336 15.833 33.241 33.282a1321.5 1321.5 0 0 1 0 286.598c-1.905 17.449-15.736 31.194-33.241 33.282a1033 1033 0 0 1-102.46 7.078c47.573.919 95.208-1.441 142.46-7.078 17.505-2.089 31.336-15.833 33.241-33.282a1321.5 1321.5 0 0 0 0-286.598"/><path d="M481.601 468.331c-3.697-5.72-7.888-12.202-10.237-21.367-.768-2.995-1.032-5.607-.808-7.987a7.5 7.5 0 0 0-6.766-8.169c-10.669-.261-8.772 12.374-6.957 19.881 2.957 11.532 8.065 19.435 12.17 25.786 6.027 9.324 7.282 11.265 1.229 17.99-3.19 3.543-4.237 4.047-14.934-3.083-17.536-13.1-35.987-14.457-53.119-2.777-4.983 3.151-8.919 5.641-17.501 5.641s-12.518-2.489-17.501-5.641c-14.467-10.62-36.608-10.594-51.035 0-4.982 3.151-8.917 5.641-17.498 5.641s-12.518-2.489-17.501-5.641c-14.468-10.62-36.61-10.593-51.038 0-4.983 3.151-8.919 5.641-17.501 5.641s-12.519-2.489-17.502-5.641c-14.469-10.619-36.61-10.593-51.039 0-4.983 3.152-8.919 5.641-17.502 5.641-8.584 0-12.521-2.489-17.504-5.641-17.179-11.704-35.616-10.295-53.124 2.778-10.698 7.132-11.747 6.629-14.939 3.083-4.835-5.371-3.931-7.847 2.833-18.099 13.661-18.355 14.536-38.485 3.192-56.832-3.265-5.708-5.843-10.218-5.843-20.172s2.579-14.463 5.843-20.172c10.44-15.608 10.418-39.665 0-55.233-3.264-5.708-5.843-10.216-5.843-20.168 0-9.955 2.579-14.463 5.843-20.172 10.441-15.609 10.416-39.668 0-55.237-3.265-5.708-5.843-10.218-5.843-20.172s2.579-14.464 5.843-20.173c10.44-15.61 10.417-39.669 0-55.239-3.265-5.709-5.843-10.218-5.843-20.173 0-9.956 2.579-14.466 5.843-20.176 11.37-18.396 10.441-38.512-3.192-56.838-6.764-10.253-7.668-12.73-2.833-18.104 3.189-3.544 4.237-4.048 14.934 3.083 7.179 4.786 16.113 10.741 27.6 10.741 12.928 0 19.91-4.416 25.519-7.964 4.983-3.151 8.919-5.641 17.501-5.641s12.518 2.489 17.501 5.641c14.468 10.62 36.607 10.594 51.035 0 4.982-3.151 8.917-5.641 17.498-5.641s12.518 2.489 17.501 5.641c14.468 10.62 36.61 10.593 51.038 0 4.983-3.151 8.919-5.641 17.501-5.641s12.519 2.489 17.502 5.641c14.469 10.619 36.61 10.593 51.039 0 4.983-3.152 8.919-5.641 17.502-5.641 8.584 0 12.521 2.489 17.504 5.641 17.179 11.704 35.616 10.295 53.124-2.778 10.699-7.131 11.747-6.628 14.939-3.083 4.834 5.37 3.93 7.847-2.833 18.099-13.66 18.356-14.536 38.485-3.191 56.832 3.265 5.708 5.843 10.218 5.843 20.172s-2.579 14.463-5.843 20.172c-10.44 15.608-10.418 39.665 0 55.233 3.264 5.708 5.843 10.216 5.843 20.168 0 9.955-2.579 14.463-5.843 20.172-10.441 15.609-10.416 39.668 0 55.237 3.265 5.708 5.843 10.218 5.843 20.172s-2.579 14.464-5.843 20.173c-10.44 15.61-10.417 39.669 0 55.239 3.972 6.945 6.16 13.509 5.803 21.677a7.5 7.5 0 0 0 7.169 7.817c4.127.165 7.638-3.031 7.817-7.169.47-10.928-2.433-20.444-7.768-29.772-3.265-5.709-5.843-10.218-5.843-20.173s2.579-14.464 5.843-20.173c10.427-15.56 10.424-39.683 0-55.238-3.265-5.708-5.843-10.218-5.843-20.172s2.579-14.463 5.843-20.172c10.44-15.608 10.418-39.666 0-55.234-3.264-5.708-5.843-10.216-5.843-20.168 0-9.954 2.579-14.463 5.843-20.171 10.441-15.609 10.416-39.668 0-55.237-3.265-5.708-5.843-10.218-5.843-20.172.278-21.494 30.143-33.197 9.994-57.348-12.545-13.935-25.701-5.166-34.407.638-6.064 4.042-12.335 8.223-19.282 8.223-8.584 0-12.521-2.489-17.504-5.641-14.47-10.618-36.612-10.594-51.042 0-4.983 3.151-8.919 5.641-17.501 5.641s-12.519-2.489-17.502-5.641c-14.469-10.619-36.61-10.593-51.039 0-4.983 3.152-8.919 5.641-17.501 5.641s-12.518-2.489-17.5-5.641c-5.61-3.548-12.591-7.964-25.519-7.964-23.704-.057-24.289 13.502-43.015 13.605-8.582 0-12.518-2.49-17.5-5.641C137.644.1 115.513.063 101.03 10.689c-4.983 3.152-8.919 5.641-17.501 5.641-6.945 0-13.215-4.18-19.28-8.222-8.704-5.802-21.86-14.571-34.403-.637-20.148 24.161 9.714 35.85 9.994 57.352 0 9.957-2.579 14.467-5.843 20.177-10.44 15.609-10.417 39.671 0 55.24 3.265 5.709 5.843 10.218 5.843 20.173s-2.579 14.464-5.843 20.173c-10.427 15.56-10.423 39.683 0 55.238 3.265 5.708 5.843 10.218 5.843 20.172s-2.579 14.463-5.843 20.172c-10.44 15.608-10.418 39.666 0 55.234 3.264 5.708 5.843 10.216 5.843 20.168 0 9.954-2.579 14.463-5.843 20.171-10.442 15.609-10.417 39.668 0 55.237 3.265 5.708 5.843 10.218 5.843 20.172 0 8.018-4.146 14.301-8.534 20.953-6.108 9.259-14.475 21.94-1.46 36.396 10.368 11.515 23.06 6.925 34.407-.638 6.064-4.042 12.335-8.223 19.282-8.223 8.584 0 12.521 2.489 17.505 5.641 14.469 10.619 36.612 10.594 51.041 0 4.983-3.151 8.919-5.641 17.501-5.641s12.519 2.489 17.502 5.641c14.546 10.642 36.587 10.582 51.039 0 4.983-3.151 8.919-5.641 17.501-5.641s12.518 2.489 17.5 5.641c14.47 10.603 36.542 10.62 51.036 0 4.982-3.151 8.917-5.641 17.498-5.641s12.518 2.489 17.5 5.641c14.513 10.617 36.531 10.612 51.038 0 4.983-3.152 8.919-5.641 17.501-5.641 19.159.348 32.834 30.007 53.683 8.859 13.736-15.259 6.556-26.366.221-36.166"/><path d="M103.289 172.984c.435-9.312-15.436-10.126-16.042-.525-4.775 75.697-3.021 152.286 5.213 227.64 2.292 20.977 18.661 37.39 39.807 39.913a1042.4 1042.4 0 0 0 246.691 0c21.148-2.523 37.518-18.937 39.808-39.915 10.44-95.626 10.44-192.599 0-288.226-2.291-20.978-18.66-37.392-39.808-39.916a1042.2 1042.2 0 0 0-246.691 0c-21.146 2.523-37.516 18.937-39.807 39.913a1327 1327 0 0 0-2.075 20.526c-.903 9.655 14.033 11.053 14.935 1.397a1322 1322 0 0 1 2.052-20.293c1.529-13.998 12.498-24.956 26.673-26.647a1027.2 1027.2 0 0 1 243.137 0c14.177 1.691 25.145 12.65 26.674 26.649a1315 1315 0 0 1 0 284.97c-1.529 13.999-12.498 24.957-26.674 26.648a1027.3 1027.3 0 0 1-243.136 0c-14.175-1.691-25.144-12.649-26.673-26.647-8.296-75.907-7.609-149.987-4.084-225.487"/><path d="M136.827 373.318q.323 0 .651-.028a7.5 7.5 0 0 0 6.829-8.115c-2.486-28.885-4-58.265-4.498-87.322-.071-4.142-3.496-7.412-7.627-7.371a7.5 7.5 0 0 0-7.371 7.627c.504 29.4 2.036 59.125 4.551 88.352a7.5 7.5 0 0 0 7.465 6.857"/></svg>