<svg xmlns="http://www.w3.org/2000/svg" width="512" height="512" viewBox="0 0 512.003 512.003"><circle cx="256.002" cy="255.785" r="248.5" fill="#f9f3f1"/><circle cx="378.335" cy="255.785" r="84.133" fill="#fd4755"/><circle cx="133.668" cy="255.785" r="84.133" fill="#fd4755"/><circle cx="256.002" cy="378.118" r="84.133" fill="#fd4755"/><circle cx="256.002" cy="133.452" r="84.133" fill="#fd4755"/><circle cx="342.504" cy="342.288" r="84.133" fill="#fe99a0"/><path fill="#fd8087" d="M401.995 282.797c-21.554-21.554-51.893-28.968-79.491-22.243 14.471 3.527 28.189 10.941 39.491 22.243 32.856 32.856 32.856 86.126 0 118.982-11.302 11.302-25.02 18.716-39.491 22.243 27.598 6.725 57.937-.689 79.491-22.243 32.856-32.856 32.856-86.126 0-118.982"/><circle cx="169.499" cy="169.282" r="84.133" fill="#fe99a0"/><path fill="#fd8087" d="M228.99 109.791c-21.554-21.554-51.893-28.968-79.491-22.243 14.471 3.527 28.189 10.941 39.491 22.243 32.856 32.856 32.856 86.126 0 118.982-11.302 11.302-25.02 18.716-39.491 22.243 27.598 6.725 57.937-.689 79.491-22.243 32.856-32.856 32.856-86.126 0-118.982"/><circle cx="169.499" cy="342.288" r="84.133" fill="#fe99a0"/><path fill="#fd8087" d="M228.99 282.797c-21.554-21.554-51.893-28.968-79.491-22.243 14.471 3.527 28.189 10.941 39.491 22.243 32.856 32.856 32.856 86.126 0 118.982-11.302 11.302-25.02 18.716-39.491 22.243 27.598 6.725 57.937-.689 79.491-22.243 32.856-32.856 32.856-86.126 0-118.982"/><circle cx="342.504" cy="169.282" r="84.133" fill="#fe99a0"/><path fill="#fd8087" d="M401.995 109.791c-21.554-21.554-51.893-28.968-79.491-22.243 14.471 3.527 28.189 10.941 39.491 22.243 32.856 32.856 32.856 86.126 0 118.982-11.302 11.302-25.02 18.716-39.491 22.243 27.598 6.725 57.937-.689 79.491-22.243 32.856-32.856 32.856-86.126 0-118.982"/><circle cx="256.002" cy="255.785" r="84.133" fill="#fd4755"/><path fill="#fb2b3a" d="M256.002 171.652c-6.892 0-13.59.829-20 2.392 36.81 8.975 64.133 42.167 64.133 81.741s-27.323 72.766-64.133 81.741a84.3 84.3 0 0 0 20 2.392c46.465 0 84.133-37.668 84.133-84.133s-37.668-84.133-84.133-84.133"/><g fill="#f9f3f1"><path d="m198.233 160.71-7.824.683a9.406 9.406 0 0 1-10.189-8.552l-2.017-23.1a9.406 9.406 0 0 1 8.552-10.189l7.824-.683a9.406 9.406 0 0 1 10.189 8.552l2.017 23.1a9.406 9.406 0 0 1-8.552 10.189M161.101 185.296l-2.908 7.296c-1.923 4.826-7.395 7.179-12.22 5.255l-21.54-8.585c-4.826-1.923-7.179-7.395-5.255-12.22l2.908-7.296c1.923-4.826 7.395-7.179 12.22-5.255l21.54 8.585a9.405 9.405 0 0 1 5.255 12.22M157.527 367.81l-6.334 4.644a9.405 9.405 0 0 1-13.147-2.025l-13.71-18.7a9.405 9.405 0 0 1 2.025-13.147l6.334-4.644a9.405 9.405 0 0 1 13.147 2.025l13.71 18.7c3.071 4.189 2.164 10.076-2.025 13.147M390.051 330.443l-5 6.057a9.407 9.407 0 0 1-13.242 1.266l-17.882-14.761a9.407 9.407 0 0 1-1.266-13.242l5-6.057a9.407 9.407 0 0 1 13.242-1.266l17.882 14.761a9.406 9.406 0 0 1 1.266 13.242M329.282 389.145l-7.615-1.922a9.407 9.407 0 0 1-6.819-11.422l5.673-22.483a9.407 9.407 0 0 1 11.422-6.819l7.615 1.922a9.407 9.407 0 0 1 6.819 11.422l-5.673 22.483a9.407 9.407 0 0 1-11.422 6.819M297.584 293.848l-6.334 4.644a9.405 9.405 0 0 1-13.147-2.025l-13.71-18.7a9.405 9.405 0 0 1 2.025-13.147l6.334-4.644a9.405 9.405 0 0 1 13.147 2.025l13.71 18.7a9.407 9.407 0 0 1-2.025 13.147M303.463 202.522l-7.763-1.195c-5.134-.791-8.656-5.594-7.865-10.728l3.529-22.917c.791-5.134 5.594-8.656 10.728-7.865l7.763 1.195c5.134.791 8.656 5.594 7.865 10.728l-3.529 22.917a9.407 9.407 0 0 1-10.728 7.865M351.807 177.902l-3.336-7.11c-2.207-4.703-.183-10.304 4.52-12.511l20.992-9.85c4.703-2.207 10.304-.183 12.511 4.52l3.336 7.11c2.207 4.703.183 10.304-4.52 12.511l-20.992 9.85a9.407 9.407 0 0 1-12.511-4.52M183.236 336.574l-4.644-6.334a9.405 9.405 0 0 1 2.025-13.147l18.7-13.71a9.405 9.405 0 0 1 13.147 2.025l4.644 6.334a9.405 9.405 0 0 1-2.025 13.147l-18.7 13.71c-4.189 3.071-10.075 2.164-13.147-2.025M212.66 242.29l-3.336-7.11c-2.207-4.703-.183-10.304 4.52-12.511l20.992-9.85c4.703-2.207 10.304-.183 12.511 4.52l3.336 7.11c2.207 4.703.183 10.304-4.52 12.511l-20.992 9.85c-4.703 2.207-10.304.183-12.511-4.52"/></g><path fill="#4fc123" d="M339.327 89.755c-5.102 20.135-27.414 31.853-27.414 31.853s-14.039-20.928-8.937-41.064 27.414-31.853 27.414-31.853 14.039 20.929 8.937 41.064M214.255 414.714c-11.145-17.529-4.357-41.798-4.357-41.798s24.857 4.15 36.002 21.678c11.145 17.529 4.357 41.798 4.357 41.798s-24.857-4.149-36.002-21.678M142.215 283.621c-19.724 6.514-41.593-6.009-41.593-6.009s10.109-23.085 29.833-29.599 41.593 6.009 41.593 6.009-10.109 23.085-29.833 29.599M406.953 212.265c19.442 7.313 28.602 30.79 28.602 30.79s-22.362 11.622-41.803 4.309c-19.442-7.313-28.602-30.79-28.602-30.79s22.362-11.621 41.803-4.309"/><path d="M437.021 74.766C347.765-18.019 190.672-25.021 92.957 58.418a7.5 7.5 0 0 0-1 10.557 7.5 7.5 0 0 0 10.56 1C258.314-59.353 497.721 53.127 497 255.788c2.672 129.532-111.455 243.68-241 240.995-206.071.604-317.324-245.581-181.071-400.02a7.5 7.5 0 0 0-11.266-9.902C-81.073 250.96 37.11 512.426 256.004 511.784c227.224-.213 341.539-276.205 181.017-437.018"/><path d="M407.298 104.488C391.26 88.45 370.325 79.09 347.864 77.803c-.946-17.702-10.727-32.517-11.246-33.29a7.5 7.5 0 0 0-9.716-2.462c-.657.345-10.731 5.729-19.484 15.551-38.943-27.442-97.062-17.727-124.808 20.973-60.04-9.509-113.22 45.031-103.771 103.785-48.687 35.005-48.686 111.872 0 146.851-9.325 58.978 43.571 113.11 103.75 103.754 35.005 48.662 111.843 48.662 146.824.002 20.232 2.882 40.654-.799 58.913-11.303a7.5 7.5 0 1 0-7.506-12.987c-29.964 17.318-68.003 12.3-92.504-12.203-13.45-13.45-21.237-30.859-22.316-49.6 42.555-4.639 76.451-38.534 81.091-81.088 18.74 1.089 36.16 8.872 49.599 22.313 26.165 26.165 29.934 67.224 8.961 97.629a7.5 7.5 0 0 0 1.915 10.432q5.611 3.401 10.433-1.916c13.512-19.589 18.439-42.873 15.221-65.077 48.639-35.028 48.605-111.86-.068-146.818 3.934-27.874-5.017-57.025-25.854-77.861m-18.051 131.963c-5.608-4.641-10.107-9.67-13.768-15.978 7.175-2.407 18.767-4.975 28.834-1.188 9.152 3.442 16.167 11.694 20.914 19.872-7.176 2.408-18.767 4.975-28.835 1.188-2.586-.974-4.968-2.32-7.145-3.894m20.849-31.014-.501-.192c-22.317-8.394-46.869 4.137-47.903 4.674a7.5 7.5 0 0 0-3.528 9.381c.269.688 4.471 11.233 13.198 20.998a76.6 76.6 0 0 1-24.259 5.481c-2.156-20.123-10.811-38.706-24.968-53.426l2.999-19.474c1.417-9.213-4.925-17.863-14.137-19.281l-7.763-1.195c-9.2-1.417-17.863 4.921-19.283 14.136l-.286 1.86a90.5 90.5 0 0 0-17.663-3.711c1.081-18.738 8.867-36.145 22.316-49.593a77 77 0 0 1 8.902-7.646c3.233 10.423 8.104 17.799 8.466 18.338q4.388 5.014 9.716 2.462c1.015-.533 24.538-13.111 30.889-35.507 19.047.92 36.823 8.776 50.401 22.354 23.928 23.927 29.119 60.962 13.404 90.341m-114.847-13.698 3.527-22.917a1.91 1.91 0 0 1 2.175-1.594l7.763 1.195a1.91 1.91 0 0 1 1.594 2.174l-3.332 21.643q.231 2.565-2.371 2.868l-7.762-1.195a1.906 1.906 0 0 1-1.594-2.174M327.666 59.39c3.192 6.862 7.033 18.094 4.391 28.522-2.657 10.487-11.352 18.503-17.419 22.996-3.191-6.862-7.033-18.095-4.391-28.523.909-3.589 2.526-6.889 4.502-9.857q.272-.353.495-.725c3.74-5.358 8.602-9.584 12.422-12.413m-71.664-2.571c15.557 0 30.279 4.526 42.949 13.149a44.3 44.3 0 0 0-3.245 8.734c-1.074 4.241-1.44 8.478-1.317 12.576a92 92 0 0 0-16.679 13.21c-9.898 9.898-17.231 21.59-21.708 34.343-8.808-25.848-31.181-47.942-57.177-56.411a76.52 76.52 0 0 1 57.177-25.601m-140.691 58.276c17.75-17.985 43.964-25.896 68.721-21.077q.504.137 1.017.201c14.54 2.981 27.901 10.139 38.638 20.876 13.449 13.449 21.236 30.859 22.316 49.6-41.573 4.532-74.881 36.986-80.723 78.157-7.194-2.572-17.303-5.038-27.839-3.939-8.219-3.781-15.656-8.969-22.128-15.442-29.881-29.88-29.881-78.497-.002-108.376m-4.202 159.068c4.073-6.379 11.483-15.654 21.698-19.027 10.284-3.397 21.725-.36 28.772 2.344-4.053 6.374-11.436 15.625-21.716 19.02-10.274 3.394-21.705.364-28.754-2.337m-54.074-18.378a76.58 76.58 0 0 1 25.646-57.214c4.357 12.986 11.698 25.181 22.023 35.506a92 92 0 0 0 13.785 11.352c-16.221 10.092-24.342 28.271-24.738 29.176-1.796 4.102.852 8.354 4.389 10.189a90.9 90.9 0 0 0-15.46 28.208 76.52 76.52 0 0 1-25.645-57.217m58.276 140.691c-17.987-17.752-25.897-43.97-21.076-68.728q.132-.492.196-.992c2.756-13.46 9.093-25.911 18.534-36.206 20.393 5.942 39.643 1.158 53.553-14.832 2.528 11.476 7.258 22.316 14.049 32.111l-4.385 3.215c-7.518 5.512-9.15 16.113-3.639 23.63l4.644 6.334c5.543 7.564 16.185 9.116 23.63 3.639l11.394-8.353a91.3 91.3 0 0 0 33.787 10.579 76.1 76.1 0 0 1-7.875 29.58c-12.497-8.413-26.182-10.8-26.991-10.935a7.5 7.5 0 0 0-8.458 5.377c-.274.979-5.807 21.342 1.272 39.881-29.354 14.856-64.951 9.383-88.635-14.3m95.339-77.636-18.701 13.71q-1.502.898-2.664-.41l-4.644-6.335q-.899-1.502.411-2.664l18.7-13.709q1.502-.9 2.664.41l4.644 6.334a1.907 1.907 0 0 1-.41 2.664m9.934 91.85c-5.805-9.13-5.668-20.955-4.774-28.452 5.538 1.841 13.231 5.185 19.109 10.781q.153.156.316.305c1.62 1.583 3.095 3.342 4.336 5.294 5.805 9.13 5.668 20.955 4.774 28.451-7.182-2.388-17.989-7.301-23.761-16.379m92.636 18.414c-28.847 33.894-85.564 33.888-114.428.007a91 91 0 0 0 12.812-5.417c13.687 15.962 36.369 19.921 37.418 20.096 3.459.58 7.517-2.014 8.458-5.377.995-1.225 7.389-34.265-7.896-51.547a91 91 0 0 0 6.396-14.185c8.716 25.846 31.378 48.094 57.24 56.423m-54.656-96.729q-1.281.042-2.562.042c-10.784 0-21.924-2.399-31.727-6.858 3.124-5.601 2.916-12.752-1.116-18.253l-4.644-6.334c-5.453-7.439-16.192-9.093-23.631-3.639l-2.212 1.622c-35.605-51.356 4.268-120.797 65.698-119.767a76 76 0 0 1 22.981 4.252l-.926 6.016c-1.42 9.213 4.921 17.864 14.135 19.283l7.763 1.195c4.245.654 9.206-.593 12.633-3.132 40.786 47.948 6.444 124.103-56.392 125.573m196.403-76.59a76.58 76.58 0 0 1-25.619 57.191c-4.398-13.027-11.781-25.214-22.05-35.482-9.914-9.915-21.638-17.26-34.427-21.737a91 91 0 0 0 11.191-4.784c18.674 11.845 45.281 3.976 54.951-1.264a7.5 7.5 0 0 0 3.528-9.381c-.327-.839-6.494-16.308-19.569-27.173a90.4 90.4 0 0 0 6.356-14.581 76.52 76.52 0 0 1 25.639 57.211"/><path d="M172.748 153.493c.789 9.037 9.337 16.15 18.313 15.372l7.823-.684c9.189-.802 16.175-9.123 15.372-18.312l-2.017-23.1c-.803-9.184-9.125-16.179-18.313-15.371l-7.824.683c-9.189.802-16.175 9.124-15.372 18.313zm13.365-25.795a1.87 1.87 0 0 1 1.294-.673l7.825-.683c.961-.085 1.981.77 2.064 1.733l2.017 23.1c.073.834-.778 2.064-1.733 2.064l-7.823.684q-1.751-.01-2.065-1.733l-2.017-23.1a1.86 1.86 0 0 1 .438-1.392M121.656 196.229l21.54 8.585c8.546 3.407 18.551-.883 21.964-9.445l2.908-7.296c3.451-8.66-.786-18.513-9.445-21.964l-21.54-8.584c-8.659-3.452-18.513.786-21.964 9.445l-2.907 7.296c-3.452 8.659.785 18.512 9.444 21.963m4.49-16.411 2.907-7.296a1.91 1.91 0 0 1 2.477-1.064l21.54 8.584a1.91 1.91 0 0 1 1.064 2.478l-2.907 7.296a1.907 1.907 0 0 1-2.477 1.065l-21.54-8.585a1.91 1.91 0 0 1-1.064-2.478M151.89 331.528c-5.454-7.44-16.191-9.093-23.631-3.639l-6.333 4.644c-7.44 5.454-9.093 16.191-3.64 23.631l13.71 18.7c5.432 7.41 16.28 9.029 23.631 3.639l6.333-4.644c7.439-5.453 9.093-16.192 3.639-23.631zm1.959 28.986a3.1 3.1 0 0 1-.757 1.248l-6.333 4.644a1.91 1.91 0 0 1-2.665-.411l-13.709-18.7a1.91 1.91 0 0 1 .411-2.665l6.333-4.644q1.417-.904 2.665.411l13.709 18.7c.385.526.401 1.061.346 1.417M377.782 347.411c4.875 0 9.715-2.093 13.054-6.137l5-6.057c5.871-7.114 4.838-17.928-2.276-23.8l-17.882-14.762c-7.188-5.934-17.865-4.913-23.801 2.275l-5 6.058c-5.935 7.189-4.913 17.866 2.276 23.8l17.882 14.762a16.83 16.83 0 0 0 10.747 3.861m-19.337-32.874 4.999-6.057q1.29-1.24 2.685-.257l17.882 14.762q1.24 1.235.257 2.683l-4.999 6.057a1.91 1.91 0 0 1-2.685.257l-17.882-14.762a1.91 1.91 0 0 1-.257-2.683M341.392 341.149l-7.615-1.921c-9.033-2.281-18.248 3.216-20.529 12.256l-5.673 22.483c-2.256 8.943 3.313 18.272 12.257 20.528l7.615 1.922c8.876 2.241 18.269-3.301 20.529-12.256l5.672-22.482c2.258-8.944-3.312-18.274-12.256-20.53m-2.288 16.859-5.672 22.482a1.907 1.907 0 0 1-2.315 1.383l-7.616-1.922q-1.648-.585-1.381-2.314l5.672-22.482a1.91 1.91 0 0 1 2.315-1.382l7.615 1.921q1.651.584 1.382 2.314M291.947 257.566c-5.512-7.519-16.111-9.15-23.631-3.639l-6.334 4.644c-7.518 5.512-9.15 16.112-3.639 23.63l13.71 18.7c5.432 7.41 16.28 9.028 23.631 3.639l6.334-4.644c7.518-5.512 9.149-16.112 3.639-23.631zm1.202 30.234-6.334 4.644q-1.502.898-2.664-.41l-13.71-18.7a1.91 1.91 0 0 1 .41-2.665l6.334-4.644q1.416-.904 2.664.41l13.71 18.7a1.91 1.91 0 0 1-.41 2.665M341.681 173.978l3.336 7.109a16.8 16.8 0 0 0 9.561 8.72 16.9 16.9 0 0 0 5.755 1.015 16.85 16.85 0 0 0 7.171-1.61l20.991-9.85c8.439-3.959 12.084-14.047 8.124-22.487l-3.336-7.109c-1.918-4.088-5.313-7.186-9.561-8.72s-8.839-1.323-12.926.595l-20.992 9.85c-8.437 3.96-12.082 14.047-8.123 22.487m14.495-8.908 20.991-9.849a1.88 1.88 0 0 1 1.458-.067c.339.123.8.392 1.078.984l3.336 7.109a1.91 1.91 0 0 1-.917 2.536l-20.99 9.85a1.87 1.87 0 0 1-1.458.067 1.87 1.87 0 0 1-1.077-.982l-.001-.001-3.336-7.109a1.91 1.91 0 0 1 .916-2.538M257.472 221.263l-3.337-7.11c-3.918-8.35-14.137-12.043-22.486-8.123l-20.991 9.849c-8.35 3.918-12.042 14.136-8.124 22.486l3.336 7.11c3.971 8.522 14.234 12.05 22.487 8.123l20.992-9.85c8.439-3.958 12.083-14.046 8.123-22.485m-14.495 8.908-20.991 9.849a1.91 1.91 0 0 1-2.536-.916l-3.336-7.111q-.593-1.647.916-2.535l20.992-9.85q1.647-.591 2.535.916l3.336 7.11a1.91 1.91 0 0 1-.916 2.537"/></svg>