<svg xmlns="http://www.w3.org/2000/svg" width="512" height="512" viewBox="0 0 512.003 512.003"><path fill="#fed2a4" d="M256.002 299.507 7.502 401.556l248.5 102.049 248.5-102.049z"/><path fill="#dc8758" d="M256.002 6.605 7.502 108.614l248.5 102.089 248.5-102.089z"/><path fill="#f3eae6" d="M65.002 364.62c24 22.596 57.999 51.023 98.667 51.023 60 0 92.333 41.587 92.333 41.587V360.5L7.502 258.45v100.616s33.5-17.042 57.5 5.554"/><path fill="#f9f3f1" d="M256.002 504.506V211.605l248.5-102.089v292.941z"/><path fill="#f3eae6" d="M464.502 125.949v292.935l40-16.427V109.516z"/><path fill="#fed2a4" d="M447.002 364.62c-24 22.596-57.999 51.023-98.667 51.023-60 0-92.333 41.587-92.333 41.587v46.375l248.5-102.049v-42.49s-33.5-17.042-57.5 5.554"/><path fill="#ffbd86" d="M163.668 415.643c-40.667 0-74.667-28.427-98.667-51.023s-57.5-5.554-57.5-5.554v42.49l248.5 102.049V457.23c.001 0-32.333-41.587-92.333-41.587"/><path fill="#f3eae6" d="M65.002 221.515c24 22.596 57.999 51.023 98.667 51.023 60 0 92.333 41.587 92.333 41.587V210.703L7.502 108.614V215.96c0 .001 33.5-17.041 57.5 5.555"/><path fill="#fed2a4" d="M447.002 221.515c-24 22.596-57.999 51.023-98.667 51.023-60 0-92.333 41.587-92.333 41.587V360.5l248.5-102.049v-42.49s-33.5-17.042-57.5 5.554"/><path fill="#ffbd86" d="M256.002 314.124s-32.333-41.587-92.333-41.587c-40.667 0-74.667-28.427-98.667-51.023s-57.5-5.554-57.5-5.554v42.49l248.5 102.049zM504.502 215.961s-19.892-10.119-40-4.424v63.34l40-16.426zM504.502 359.066s-19.892-10.119-40-4.424v63.34l40-16.426z"/><path d="M507.663 409.258c2.724-1.254 4.399-4.039 4.339-6.957V109.515c0-3.031-1.894-5.816-4.652-6.937L258.849.568a7.5 7.5 0 0 0-5.695 0L208.226 19.01c-8.97 3.683-3.276 17.561 5.695 13.876l42.08-17.273 228.757 93.905-228.757 93.978-228.756-93.977L177.327 47.91c8.971-3.682 3.275-17.562-5.695-13.876L4.654 102.578c-2.755 1.134-4.652 3.889-4.652 6.937v292.786c-.063 3.032 1.787 5.921 4.651 7.094l248.5 102.049c1.836.727 3.862.746 5.697 0l248.5-102.049a7 7 0 0 0 .313-.137m-10.925-60.151c-18.819-5.343-40.043-3.012-54.878 10.954-25.727 24.222-56.958 48.983-93.525 48.983-30.833 0-61.301 11.075-84.833 31.019v-73.635l50.144-20.592c8.971-3.684 3.272-17.56-5.697-13.876l-44.446 18.252v-32.428c6.904-7.7 36.258-36.846 84.833-36.846 41.812 0 75.939-26.823 103.809-53.062 12.113-11.404 30.003-11.466 44.858-6.029v32.477L344.22 317.065c-8.97 3.684-3.271 17.563 5.697 13.876l147.084-60.401v78.642zm-248.533 90.706c-73.859-58.141-94.145 2.481-178.062-79.752-14.889-14.017-36.268-16.322-55.142-10.879V270.54l233.5 95.889v73.635zm.297-89.6-233.5-95.889v-32.489c8.689-3.194 29.419-8.495 44.858 6.042 27.869 26.239 61.997 53.062 103.809 53.062 48.335 0 77.897 29.186 84.833 36.862zm248.5-229.508v85.372c-19.114-5.518-40.216-3.174-55.142 10.878-25.727 24.222-56.957 48.983-93.525 48.983-40.785 0-69.374 17.912-84.833 31.019v-80.326zm-248.5 95.927v80.326c-15.459-13.107-44.048-31.019-84.833-31.019-36.568 0-67.799-24.762-93.525-48.983-14.928-14.054-36.028-16.396-55.142-10.878v-85.372zm-233.5 148.321c14.841-5.432 32.544-5.566 44.858 6.029 27.87 26.239 61.998 53.062 103.809 53.062 31.477 0 63.616 13.388 84.833 36.862v32.412l-233.5-95.889zm248.5 128.365V460.89c21.127-23.572 53.404-36.846 84.833-36.846 41.811 0 75.938-26.823 103.809-53.062 12.141-11.42 30.071-11.575 44.858-6.03v32.477z"/><path d="M112.002 115.973c9.652 0 9.668-15 0-15-9.652 0-9.668 15 0 15M304.002 77.465c-9.652 0-9.668 15 0 15 9.651 0 9.667-15 0-15M344.002 122.549c-9.652 0-9.668 15 0 15 9.651 0 9.667-15 0-15M403.671 100.973c-9.652 0-9.668 15 0 15 9.652 0 9.668-15 0-15"/></svg>