<svg xmlns="http://www.w3.org/2000/svg" width="512" height="512"><path fill="#f9f3f1" d="M419.726 177.719c-7.52 0-15.181 1.237-22.639 3.409a738 738 0 0 0 1.326-44.344H41.343c0 146.475 42.89 272.634 104.591 329.646h-4.009c-10.538 0-19.08 8.522-19.08 19.035s8.542 19.035 19.08 19.035h155.906c10.538 0 19.08-8.522 19.08-19.035s-8.542-19.035-19.08-19.035h-4.009c20.688-19.116 39.262-46.007 54.813-78.83 54.458-3.169 94.621-49.309 112.524-97.874 14.94-40.53 19.541-112.007-41.433-112.007m8.449 99.904c-10.929 29.646-32.872 61.044-63.668 71.483 13.582-37.982 23.614-81.522 29.111-128.62 6.889-3.563 17.001-7.64 25.944-7.64 29.69.001 13.922 50.375 8.613 64.777"/><path fill="#f3eae6" d="M358.41 136.787c0 15.012-.451 29.811-1.326 44.344 0 0-1.096 21.169-3.469 39.359-5.497 47.098-15.529 90.638-29.111 128.62 0 0-9.309 26.278-15.872 38.493-31.918 59.398-63.861 71.648-84.813 78.83h4.009c10.538 0 19.08 8.522 19.08 19.035s-8.542 19.035-19.08 19.035h70c10.538 0 19.08-8.522 19.08-19.035s-8.542-19.035-19.08-19.035h-4.009c20.688-19.116 39.262-46.007 54.813-78.83 6.174-12.416 15.872-38.493 15.872-38.493 13.582-37.982 23.614-81.522 29.111-128.62 2.373-18.191 3.469-39.359 3.469-39.359a738 738 0 0 0 1.326-44.344z"/><path fill="#fed2a4" d="M359.418 220.726H80.338a631 631 0 0 0 5.868 37.608h267.343a630 630 0 0 0 5.869-37.608"/><path fill="#ffbd86" d="M319.418 220.726a631 631 0 0 1-5.868 37.608h40a630 630 0 0 0 5.868-37.608z"/><path fill="#c86d36" d="M86.206 258.333c8.436 44.962 21.459 86.022 38.58 120.742 27.428 55.622 62.087 87.523 95.092 87.523s67.664-31.901 95.092-87.523c17.12-34.72 30.144-75.78 38.58-120.742z"/><path fill="#ac5e2e" d="M313.549 258.333c-8.436 44.962-21.459 86.022-38.58 120.742-21.923 44.459-48.466 73.762-75.092 83.734 6.685 2.504 13.376 3.789 20 3.789 33.005 0 67.664-31.901 95.092-87.523 17.12-34.72 30.144-75.78 38.58-120.742z"/><path d="M359.159 354.366q3.612 3.184 7.755 1.844c28.826-9.771 54.358-38.18 68.298-75.992 16.587-43.101 15.756-96.111-45.041-66.392a7.5 7.5 0 0 0-4.004 5.792c-5.361 45.939-15.025 88.656-28.723 126.963a7.5 7.5 0 0 0 1.715 7.785m41.419-128.932c7.108-3.257 13.879-5.087 18.983-5.087 20.834 0 5.011 45.365 1.577 54.682-9.76 26.476-25.529 47.633-43.801 59.493 10.679-33.656 18.479-70.249 23.241-109.088"/><path d="M466.119 192.09c-11.862-18.555-37.889-25.118-61.012-20.541.535-11.526.805-23.18.805-34.766a7.5 7.5 0 0 0-7.5-7.5H123.698a7.5 7.5 0 0 0 0 15h267.176a732 732 0 0 1-1.274 36.393q.822 8.798 9.583 7.652c68.766-19.572 72.426 52.455 54.938 98.802-16.953 46.764-56.401 90.423-105.922 92.981a7.5 7.5 0 0 0-6.342 4.276c-15.346 32.391-33.219 58.14-53.125 76.533-4.913 4.539-1.599 13.008 5.09 13.008 7.234-.772 15.589 3.165 15.589 11.536 0 6.36-5.195 11.535-11.58 11.535H141.925c-6.385 0-11.58-5.175-11.58-11.535 0-8.265 8.32-12.34 15.589-11.536 6.688 0 10.002-8.469 5.09-13.008C90.065 404.595 50.289 280.878 48.881 144.284h34.908a7.5 7.5 0 0 0 0-15H41.343a7.5 7.5 0 0 0-7.5 7.5c.648 115.357 25.432 244.394 96.609 324.747-25.111 12.168-16.876 50.182 11.474 50.469h155.905c28.347-.383 36.648-38.14 11.477-50.467 16.347-17.663 31.175-40.057 44.218-66.799 53.637-5 96.151-51.462 114.669-102.415 11.673-31.664 15.558-74.935-2.076-100.229M193.158 85.879a7.5 7.5 0 0 0-.013 10.606 7.5 7.5 0 0 0 10.606.013c32.996-33.515-23.646-61.362-.001-83.688a7.5 7.5 0 0 0 .013-10.607 7.5 7.5 0 0 0-10.606-.013c-18.356 18.313-8.526 37.014-1.348 50.668 7.788 14.813 11.384 23.009 1.349 33.021M236.02 103.87c-6.803 7.222 3.365 17.402 10.594 10.619 32.994-33.502-23.644-61.369 0-83.688a7.5 7.5 0 0 0 .013-10.606 7.5 7.5 0 0 0-10.606-.013c-18.356 18.313-8.526 37.013-1.348 50.667 7.786 14.813 11.382 23.009 1.347 33.021"/><path d="M359.418 213.226H80.338q-7.528.859-7.441 8.435c6.94 55.229 20.452 110.618 45.163 160.731 46.577 92.977 111.523 126.304 174.404 47.321 6.002-7.616-5.777-16.902-11.78-9.286-90.589 117.358-169.658-63.259-185.369-154.594h249.128c-8.633 42.436-21.859 84.609-42.848 122.65-4.686 8.491 8.446 15.736 13.133 7.247 29.39-53.277 44.588-114.049 52.132-174.07q.086-7.576-7.442-8.434M92.463 250.834a626 626 0 0 1-3.567-22.608h261.963a626 626 0 0 1-3.567 22.608z"/></svg>