<svg xmlns="http://www.w3.org/2000/svg" width="512" height="512" viewBox="0 0 511.884 511.884"><path fill="#c86d36" d="M487.967 119.823q-.723-.44-1.465-.851c-.346-20.359-15.451-39.361-35.207-44.29-5.603-19.576-25.112-34.021-45.47-33.669-10.479-17.459-33.061-26.362-52.635-20.753-14.641-14.152-38.758-16.907-56.213-6.423-17.804-9.88-41.813-6.3-55.96 8.345-19.755-4.935-42.019 4.737-51.893 22.544-20.359.346-39.361 15.451-44.29 35.207-19.576 5.603-34.021 25.111-33.669 45.47-17.459 10.479-26.362 33.061-20.753 52.635-14.152 14.641-16.907 38.758-6.423 56.213-9.88 17.804-6.3 41.813 8.345 55.96a43 43 0 0 0-.378 1.652c-5.769 27.779 22.861 50.268 48.883 38.963l342.247-148.683c26.021-11.305 29.122-47.578 4.881-62.32"/><path fill="#ac5e2e" d="M487.967 119.823q-.723-.44-1.465-.851c-.346-20.359-15.451-39.361-35.207-44.29-5.603-19.576-25.112-34.021-45.47-33.669-10.479-17.459-33.061-26.362-52.635-20.753-14.641-14.152-38.758-16.907-56.213-6.423-17.804-9.88-41.813-6.3-55.96 8.345-17.187-4.294-36.272 2.469-47.447 16.027 2.502.175 4.994.562 7.447 1.175 14.147-14.645 38.156-18.225 55.96-8.345 17.455-10.484 41.573-7.729 56.213 6.423 19.574-5.609 42.156 3.294 52.635 20.753 20.359-.352 39.867 14.093 45.471 33.669 19.756 4.929 34.861 23.931 35.207 44.29q.742.411 1.465.851c24.241 14.742 21.14 51.016-4.882 62.32l40-17.202c26.021-11.305 29.122-47.578 4.881-62.32"/><path fill="#dc8758" d="M123.73 285.635a7.5 7.5 0 0 1-7.25-5.602c-11.331-43.26-6.845-89.398 12.631-129.916 19.68-40.941 53.492-73.469 95.208-91.591 41.667-18.103 88.47-20.631 131.787-7.123 42.864 13.368 79.64 41.503 103.555 79.224a7.501 7.501 0 0 1-12.668 8.033c-22.014-34.723-55.878-60.625-95.353-72.936-39.881-12.437-82.975-10.107-121.344 6.561-38.412 16.688-69.545 46.637-87.665 84.332-17.937 37.314-22.07 79.795-11.64 119.617a7.5 7.5 0 0 1-7.261 9.401"/><path fill="#dc8758" d="M417.751 381.128c-4.663 0-13.352 2.14-13.352 2.14C339.292 206.527 42.821 194.094 7.628 412.04c-1.016 6.29 3.81 12.006 10.152 12.006h430.737c6.931 0 11.983-6.785 9.821-13.401-5.602-17.141-21.656-29.517-40.587-29.517"/><path fill="#fd4755" d="M203.511 281.493c-78.712 0-135.025 42.15-155.434 99.297-2.329 6.52 2.499 13.39 9.393 13.39h295.935c7.008 0 11.793-7.063 9.296-13.643-21.636-57.018-85.658-99.044-159.19-99.044"/><path fill="#fb2b3a" d="M362.702 380.537c-21.637-57.018-85.658-99.044-159.191-99.044-7.026 0-13.873.336-20.532.988 65.171 6.645 120.02 46.135 139.723 98.056 2.497 6.58-2.288 13.643-9.296 13.643h40c7.008 0 11.793-7.063 9.296-13.643"/><path fill="#fee97d" d="M352.841 360.205s-64.3-31.549-150.516-31.549c-93.691 0-144.987 31.549-144.987 31.549a141.6 141.6 0 0 0-9.262 20.588c-2.328 6.519 2.502 13.387 9.394 13.387h17.442v53.555c0 9.219 7.437 16.693 16.612 16.693s16.612-7.474 16.612-16.693v40.063c0 9.219 7.437 16.693 16.612 16.693s16.612-7.474 16.612-16.693V394.18h165.123v36.134c0 9.219 7.437 16.693 16.612 16.693s16.612-7.474 16.612-16.693V394.18h13.698c6.988 0 11.802-7.036 9.315-13.599a129 129 0 0 0-9.879-20.376"/><path fill="#fee45a" d="M362.718 380.581c-2.668-7.037-5.981-13.846-9.878-20.377 0 0-20.301-9.961-53.383-18.688 14.959 20.894 20.599 32.041 23.261 39.065 2.487 6.562-2.327 13.599-9.315 13.599h-6.922v36.134c0 9.219 7.437 16.693 16.612 16.693s16.612-7.474 16.612-16.693V394.18h13.698c6.989 0 11.803-7.036 9.315-13.599"/><path d="M493.747 114.626c-2.125-20.579-17.011-39.308-36.58-46.021-7.379-19.326-26.605-33.562-47.243-34.981-12.13-16.758-34.387-25.537-54.688-21.562-16.054-13.048-39.823-15.763-58.405-6.673-18.885-8.449-42.544-4.919-58.142 8.67-20.427-3.27-42.368 6.26-53.917 23.423-20.578 2.126-39.304 17.012-46.017 36.58-19.326 7.379-33.562 26.605-34.982 47.243-16.758 12.13-25.532 34.385-21.562 54.688-13.046 16.053-15.762 39.819-6.674 58.401-6.442 14.354-6.118 31.596.813 46.142-41.386 30.357-67.06 75.12-76.126 130.31-1.723 10.672 6.721 20.701 17.557 20.701h49.631v16.189c-.357 16.824 17.888 29.038 33.224 22.399v17.663c1.213 32.051 47.015 32.044 48.224 0v-56.252h150.154c2.437 30.409 45.736 30.386 48.162 0h101.342c11.86 0 20.644-11.93 16.95-23.231-7.696-23.553-32.037-38.117-56.375-33.705-18.618-46.498-55.251-84.691-102.242-107.727L418.5 218.378a7.5 7.5 0 0 0-5.976-13.758l-124.359 54.026c-34.914-13.627-73.185-19.089-110.463-15.484-17.829 1.725-34.916 5.454-50.974 11.069-16.575-124.73 104.895-226.733 224.911-188.508 39.475 12.311 73.338 38.213 95.353 72.936a7.5 7.5 0 0 0 12.668-8.032C412.25 53.26 307.097 20.935 224.319 58.526c-77.196 32.29-125.185 118.958-111.956 201.351a193 193 0 0 0-23.355 12.181c-4.495-11.052-4.035-24.125 1.537-34.168a7.5 7.5 0 0 0-.128-7.501c-8.778-14.615-6.463-34.88 5.386-47.139a7.5 7.5 0 0 0 1.817-7.278c-4.697-16.389 2.785-35.365 17.403-44.139a7.5 7.5 0 0 0 3.639-6.56c-.294-17.047 11.844-33.439 28.234-38.13a7.5 7.5 0 0 0 5.213-5.395c4.127-16.542 20.094-29.234 37.141-29.523a7.5 7.5 0 0 0 6.432-3.862c8.269-14.91 26.979-23.037 43.517-18.905a7.5 7.5 0 0 0 7.212-2.065c11.846-12.261 32.019-15.27 46.927-6.998a7.5 7.5 0 0 0 7.501-.128c14.614-8.777 34.879-6.464 47.139 5.386a7.5 7.5 0 0 0 7.278 1.817c16.39-4.698 35.365 2.785 44.139 17.403 1.38 2.297 3.854 3.658 6.561 3.639 17.053-.327 33.439 11.843 38.13 28.234a7.5 7.5 0 0 0 5.395 5.213c16.542 4.127 29.234 20.094 29.523 37.141q.978 5.144 5.067 7.132c8.759 5.327 13.565 14.701 12.856 25.075-.734 10.743-7.026 19.7-16.829 23.958l-29.759 12.928a7.5 7.5 0 0 0 5.976 13.758l29.759-12.928c30.28-12.564 35.297-56.295 7.673-74.397m-194.765 301.92H148.859V401.68h150.123zm33.224 13.768c-.436 12.183-17.821 12.133-18.224 0V394.18a7.5 7.5 0 0 0-7.5-7.5H141.359a7.5 7.5 0 0 0-7.5 7.5v93.617c-.402 12.123-17.789 12.202-18.224 0v-80.436c-.284-9.892-14.7-9.926-15 0v40.373c-.403 12.139-17.799 12.184-18.224 0v-53.555a7.5 7.5 0 0 0-7.5-7.5H57.47q-2.892-.47-2.331-3.365a134.5 134.5 0 0 1 7.783-17.664c73.937-41.246 209.901-35.82 284.586.348 3.214 5.583 5.956 11.334 8.181 17.199.554 1.461-.632 3.482-2.286 3.482h-13.698a7.5 7.5 0 0 0-7.5 7.5zm-153.06-172.222c89.45-9.752 188.287 41.762 218.215 127.768a7.5 7.5 0 0 0 8.831 4.69c18.901-4.656 38.567 2.685 45.017 22.424q.466 3.105-2.692 3.571H347.206V401.68h6.198c12.644 0 20.278-13.62 15.926-24.801-24.315-62.518-91.32-99.501-156.11-102.651-20.284-.982-40.204.899-59.209 5.602-9.413 2.328-5.812 16.891 3.603 14.561 17.588-4.352 36.053-6.094 54.877-5.18 32.482 1.579 63.412 11.591 89.445 28.954 10.928 7.289 20.717 15.783 29.076 25.129-69.319-27.413-184.08-29.873-252.191-1.298a139.6 139.6 0 0 1 38.014-31.45c8.45-4.758 1.093-17.826-7.358-13.071-32.084 18.062-57.049 47.542-68.493 80.88-3.74 10.909 4.837 23.326 16.487 23.326h9.941v14.865H17.781q-2.888-.372-2.748-3.311c13.717-84.953 77.91-146.805 164.113-155.143"/><path d="M323.062 118.262h-.053a7.5 7.5 0 0 0-7.448 7.552l.276 39.879a7.5 7.5 0 0 0 7.499 7.448h.053a7.5 7.5 0 0 0 7.448-7.552l-.276-39.879a7.5 7.5 0 0 0-7.499-7.448M272.954 115.796h-.053a7.5 7.5 0 0 0-7.448 7.552l.61 88.203a7.5 7.5 0 0 0 7.499 7.448h.053a7.5 7.5 0 0 0 7.448-7.552l-.61-88.203a7.5 7.5 0 0 0-7.499-7.448M223.181 161.654h-.053a7.5 7.5 0 0 0-7.448 7.552l.276 39.879a7.5 7.5 0 0 0 7.499 7.448h.053a7.5 7.5 0 0 0 7.448-7.552l-.276-39.879a7.5 7.5 0 0 0-7.499-7.448M144.017 352.705c-9.652 0-9.668 15 0 15 9.652 0 9.668-15 0-15M113.119 366.226c-9.652 0-9.668 15 0 15 9.652 0 9.668-15 0-15M234.718 314.622c9.652 0 9.668-15 0-15-9.651 0-9.667 15 0 15"/></svg>