<svg xmlns="http://www.w3.org/2000/svg" width="512" height="512" viewBox="0 0 513.08 513.08"><path fill="#dc8758" d="M70.667 472.988c0 18 14.631 32.591 32.679 32.591h306.387c18.048 0 32.679-14.592 32.679-32.591V247.077H70.667z"/><path fill="#c86d36" d="M14.57 191.624c0 30.626 24.894 55.453 55.602 55.453h372.736c30.708 0 55.602-24.827 55.602-55.453-.069-243.935-483.871-244.184-483.94 0"/><path fill="#ffe5c2" d="M259.011 8.58h-4.942c-63.622 2.189-134.871 73.856-134.871 180.561 0 27.347 14.289 48.214 38.789 57.875V505.58h197.105V247.016c24.5-9.661 38.789-30.528 38.789-57.875.001-106.706-71.248-178.372-134.87-180.561"/><path fill="#fed2a4" d="M259.011 8.58h-4.942c-5.8.2-11.663.977-17.529 2.305 58.49 13.241 117.342 81.277 117.342 178.255 0 27.347-14.289 48.214-38.789 57.875V505.58h40V247.015c24.5-9.661 38.789-30.528 38.789-57.875 0-106.705-71.249-178.371-134.871-180.56"/><ellipse cx="321.359" cy="120.821" fill="#4fc123" rx="15.176" ry="25.907" transform="rotate(-26.54 321.358 120.787)"/><ellipse cx="307.672" cy="242.648" fill="#fed402" rx="25.916" ry="15.172" transform="rotate(-55.6 307.6 242.666)"/><path fill="#fed402" d="M203.003 68.553c7.263-4.182 7.338-17.612.169-29.996-2.142-3.701-4.689-6.889-7.401-9.43-7.614 5.187-14.969 11.295-21.912 18.257a43.4 43.4 0 0 0 3.013 6.316c7.169 12.385 18.868 19.035 26.131 14.853"/><path fill="#fe9738" d="M268.581 505.58c.602-14.288 7.882-26.857 16.26-26.506s14.683 12.218 14.082 26.506z"/><ellipse cx="206.321" cy="365.464" fill="#fed402" rx="15.167" ry="25.924" transform="rotate(-41.2 206.153 365.198)"/><ellipse cx="191.179" cy="154.58" fill="#fe9738" rx="25.955" ry="15.149" transform="rotate(-20.45 191.32 154.472)"/><path fill="#4fc123" d="M355.36 370.969a45 45 0 0 1-3.025 1.647c-12.841 6.364-26.276 5.451-30.008-2.039s3.652-18.721 16.493-25.085c5.695-2.822 11.507-4.214 16.537-4.235z"/><path d="M506.01 191.622c-.01-32.89-8.465-62.926-25.131-89.276-15.286-24.167-37.131-44.758-64.931-61.204-91.03-53.853-219.869-54.531-312.198-3.84-8.545 5.041-1.612 17.653 7.219 13.148 24.655-13.536 52.729-23.07 82.201-28.626a153 153 0 0 0-14.082 10.57l-.204.172-.324.275a165 165 0 0 0-10.012 9.247 7 7 0 0 0-.334.358c-32.928 33.275-56.516 84.618-56.516 146.694 0 20.48 7.249 37.916 20.49 50.437H70.172c-26.523 0-48.102-21.512-48.102-47.951-.046-47.045 19.053-87.442 54.837-117.87 3.153-2.686 3.531-7.42.844-10.573s-7.421-3.531-10.573-.844C27.87 95.832 7.084 140.538 7.07 191.624c0 32.351 24.587 59.08 56.097 62.568v218.797c0 22.106 18.024 40.091 40.179 40.091h306.387c22.154 0 40.179-17.985 40.179-40.091V254.191c31.51-3.487 56.098-30.217 56.098-62.569M196.681 42.315c1.704 2.944 8.075 16.577 2.58 19.739-5.593 3.231-14.443-9.416-16.367-12.945a146 146 0 0 1 11.779-9.891 37 37 0 0 1 2.008 3.097M78.167 472.988V254.577h72.32V498.08h-47.141c-13.883 0-25.179-11.256-25.179-25.092m199.06 25.092c.267-1.028 3.505-11.75 7.3-11.513q6.007 4.06 6.483 11.513zm132.506 0h-47.141v-38.057c0-9.697-15-9.697-15 0v38.057H306.15c-1.255-11.143-7.888-25.951-20.995-26.5-9.844-.392-20.371 9.285-23.317 26.5h-96.351V247.016a7.5 7.5 0 0 0-4.749-6.977c-21.952-8.656-34.041-26.732-34.041-50.898 0-46.366 14.547-93.669 45.41-128.894 6.804 10.273 21.563 22.335 34.638 14.806 15.822-9.11 8.436-32.795.403-44.182 15.529-9.151 33.538-15.261 51.729-14.791 77.541 5.206 129.562 95.147 127.502 173.06.001 24.167-12.087 42.243-34.039 50.899a7.5 7.5 0 0 0-4.749 6.977v87.556c-15.48 3.124-41.553 20.134-31.979 39.351 5.753 11.544 21.293 11.857 31.979 8.627v37.568c0 9.697 15 9.697 15 0V254.577h72.319v218.412c.002 13.835-11.293 25.091-25.177 25.091m-62.14-131.522c-2.61 1.158-16.063 5.666-18.553.675-3.55-7.122 14.497-15.953 18.553-17.195zm95.315-126.981h-62.016c13.241-12.52 20.49-29.956 20.49-50.437 0-76.83-36.132-137.218-81.387-167.259 82.064 17.205 168.233 61.025 171.015 169.742 0 26.442-21.579 47.954-48.102 47.954"/><path d="M328.574 152.51c2.649 0 5.238-.576 7.669-1.781 14.574-7.221 11.212-28.382 5.427-39.992-8.488-17.038-23.618-25.561-35.194-19.825-14.574 7.222-11.212 28.382-5.428 39.993 6.707 13.46 17.557 21.605 27.526 21.605m-16.945-45.921q.475-2.398 2.522-2.443c3.104 0 9.574 4.212 14.093 13.28 1.245 2.51 6.84 17.136 1.338 19.863-2.425 1.207-10.011-2.845-15.108-13.074-3.866-7.757-3.949-14.343-2.845-17.626M326.413 255.406c7.403-10.835 13.625-31.164.094-40.36-10.682-7.26-26.837-.877-37.575 14.844-7.403 10.835-13.625 31.165-.094 40.36 13.597 9.241 30.175-4.013 37.575-14.844m-12.385-8.462c-6.453 9.443-14.52 12.419-16.76 10.899-5.243-3.565 2.13-16.683 4.049-19.492 5.396-7.9 11.924-11.276 15.226-11.276 7.913 0-1.725 18.712-2.515 19.869M184.361 340.267c-21.995 20.578 20.521 69.479 43.92 50.394 12.287-10.664 3.671-30.299-4.854-40.069-12.521-14.348-29.315-18.787-39.066-10.325m34.976 36.536c-.669 9.679-17.623-4.958-18.819-6.329-2.231-2.557-11.109-14.728-6.324-18.879 2.046-1.776 10.409.238 17.931 8.858 5.706 6.541 7.451 12.896 7.212 16.35M199.151 175.78c12.279-4.601 29.12-17.638 23.351-32.95-4.548-12.077-21.442-16.14-39.295-9.449-12.23 4.52-29.115 17.65-23.351 32.95 5.758 15.284 27.077 14.027 39.295 9.449m-25.258-14.737c-2.17-5.765 11.013-12.189 14.578-13.617 3.624-1.358 17.776-5.198 19.994.691 2.231 5.923-11.409 12.429-14.577 13.616-10.557 3.958-19.067 1.772-19.995-.69M292.487 325.889c-9.652 0-9.668 15 0 15 9.651 0 9.667-15 0-15M204.089 461.686c-9.652 0-9.668 15 0 15 9.652 0 9.668-15 0-15M352.761 196.64c9.652 0 9.668-15 0-15-9.652 0-9.668 15 0 15M312.645 425.835c-9.652 0-9.668 15 0 15 9.651 0 9.667-15 0-15M199.732 253.978c9.652 0 9.668-15 0-15-9.652 0-9.667 15 0 15M218.414 274.105c-9.652 0-9.668 15 0 15 9.652 0 9.668-15 0-15M279.415 44.517c-9.652 0-9.668 15 0 15 9.652 0 9.668-15 0-15M256.54 78.557a7.5 7.5 0 0 0-7.5 7.5v350.538c.307 9.916 14.696 9.909 15 0V86.057a7.5 7.5 0 0 0-7.5-7.5"/></svg>