<svg xmlns="http://www.w3.org/2000/svg" width="512" height="512" viewBox="0 0 511.855 511.855"><path fill="#ffe5c2" d="M268.483 74.612c-50.508 1.062-136.974 19.463-156.629 89.963S12.575 240.588 9.123 304.988s171.88 178.81 298.954 145.418 51.11-128.128 132.75-176.062c53.66-31.506 84.06-67.556 47.481-122.954-23.806-36.053-99.789-79.301-219.825-76.778"/><path fill="#fed2a4" d="M488.308 151.389c-23.805-36.052-99.789-79.3-219.825-76.777-2.943.062-6.007.183-9.174.369 102.249 4.706 167.3 43.546 188.999 76.408 36.579 55.398 6.18 91.448-47.481 122.954-81.64 47.934-5.676 142.67-132.75 176.062-9.467 2.488-19.201 4.155-29.109 5.084 23.697 2.046 47.125.693 69.109-5.084 127.074-33.392 51.11-128.128 132.75-176.062 53.66-31.506 84.06-67.556 47.481-122.954"/><ellipse cx="350.903" cy="97.829" fill="#fe99a0" rx="110.643" ry="68.925"/><path fill="#fd8087" d="M429.14 49.091c-26.714-16.641-63.688-22.994-98.237-19.058 21.333 2.43 41.741 8.783 58.237 19.058 43.209 26.917 43.209 70.557 0 97.474-16.495 10.276-36.903 16.628-58.237 19.058 34.548 3.935 71.523-2.417 98.237-19.058 43.209-26.916 43.209-70.557 0-97.474"/><ellipse cx="273.259" cy="203.189" fill="#fe99a0" rx="110.643" ry="68.925"/><path fill="#fd8087" d="M351.495 154.452c-26.714-16.641-63.688-22.994-98.237-19.058 21.333 2.43 41.741 8.783 58.237 19.058 43.209 26.917 43.209 70.557 0 97.474-16.495 10.276-36.903 16.628-58.237 19.058 34.548 3.935 71.523-2.417 98.237-19.058 43.209-26.917 43.209-70.557 0-97.474"/><ellipse cx="195.614" cy="308.549" fill="#fe99a0" rx="110.643" ry="68.925"/><path fill="#fd8087" d="M273.851 259.812c-26.714-16.641-63.688-22.994-98.237-19.058 21.333 2.43 41.741 8.783 58.237 19.058 43.209 26.917 43.209 70.557 0 97.474-16.495 10.276-36.903 16.628-58.237 19.058 34.548 3.935 71.523-2.417 98.237-19.058 43.209-26.916 43.209-70.557 0-97.474"/><ellipse cx="117.97" cy="413.91" fill="#fe99a0" rx="110.643" ry="68.925"/><path fill="#fd8087" d="M196.206 365.173c-26.714-16.641-63.688-22.994-98.237-19.058 21.333 2.43 41.741 8.783 58.236 19.058 43.209 26.917 43.209 70.557 0 97.474-16.495 10.276-36.903 16.628-58.236 19.058 34.548 3.935 71.523-2.417 98.237-19.058 43.209-26.917 43.209-70.557 0-97.474"/><path d="M494.567 147.256c-6.684-10.121-16.795-20.257-29.448-29.558 2.592-6.382 3.928-13.046 3.928-19.87 0-21.096-12.765-40.665-35.941-55.103C379.084 9.15 278.728 13.046 241.125 69.344c-20.568 3.581-41.576 6.774-60.811 15.317a7.5 7.5 0 0 0-3.811 9.898c1.589 3.578 6.352 5.386 9.898 3.811 14.686-6.522 31.39-9.747 47.807-12.607-3.642 15.046.15 30.838 8.821 43.486-38.059 5.62-83.508 30.284-87.585 68.167-1.462 12.798 2.032 25.656 9.94 37.193-19.423 3.266-37.277 9.682-51.972 18.837-30.071 18.732-47.668 54.448-25.673 86.523-16.566 2.785-31.99 7.863-45.288 14.977-31.503-31.792-36.115-66.013.555-98.548 29.992-25.638 63.076-46.955 74.826-85.658 3.444-10.737 6.493-19.612 11.716-27.94 4.913-7.833 11.182-15.089 18.633-21.566a7.501 7.501 0 0 0-9.842-11.321c-17.841 15.13-28.435 34.02-34.789 56.246-10.254 34.773-43.832 55.885-70.634 79.14C17.063 259.711 7.5 274.436 3.68 290.316c-6.775 28.168 7.391 52.46 25.812 72.707-42.112 29.569-38.335 79.424 6.275 105.989 49.202 29.97 130.378 30.179 177.26-9.438 54.686 11.717 137.193.48 168.31-45.275 12.555-18.039 16.358-38.349 20.035-57.991 5.42-28.948 10.539-56.291 43.251-75.498 39.004-22.9 59.844-45.084 65.587-69.816 4.629-19.936-.488-40.784-15.643-63.738M247.983 93.844c1.592-14.237 11.767-27.869 28.65-38.387 40.953-25.511 107.588-25.511 148.541 0 18.619 11.599 28.873 26.646 28.873 42.372 0 6.24-1.615 12.373-4.726 18.226a7.6 7.6 0 0 0-.564 1.029c-4.803 8.505-12.786 16.391-23.583 23.117-15.316 9.542-34.623 15.762-56.009 18.072-27.908-24.297-68.466-33.569-108.611-31.077-9.53-10.258-13.87-21.739-12.571-33.352m-77.635 105.275c1.622-14.205 11.794-27.807 28.641-38.301 45.798-27.802 121.264-26.43 161.937 10.267q.338.374.721.7c9.614 9.472 14.756 20.268 14.756 31.404-.001 15.725-10.254 30.773-28.873 42.371-15.314 9.54-34.618 15.761-56.004 18.071-27.914-24.29-68.469-33.571-108.617-31.077-9.553-10.283-13.891-21.799-12.561-33.435m21.892 257.162c-40.952 25.51-107.588 25.511-148.542 0-38.265-23.097-38.263-61.647 0-84.743 40.944-25.505 107.425-25.614 148.542 0 36.415 22.684 36.598 61.945 0 84.743m303.359-248.679c-4.748 20.448-23.359 39.601-58.57 60.273-38.604 22.667-44.601 54.697-50.4 85.673-3.541 18.918-6.887 36.787-17.603 52.183-11.981 17.214-32.542 29.455-62.855 37.42-24.316 6.391-51.51 7.461-80.978 3.204 13.898-19.387 14.256-44.24.701-63.896 13.627-2.309 26.574-6.172 38.01-11.378 8.825-4.018 2.612-17.67-6.215-13.652-12.876 5.862-27.972 9.84-43.814 11.562-28.741-25.647-71.243-33.619-108.611-31.076-23.312-25.082-10.163-55.389 16.08-71.737 40.953-25.511 107.588-25.512 148.541 0 22.902 14.267 38.725 40.828 20.751 66.026-5.631 7.894 6.582 16.609 12.211 8.711 9.394-13.168 12.822-27.826 9.915-42.388-1.502-7.525-4.611-14.709-9.222-21.416 19.522-3.281 37.266-9.69 51.921-18.82 23.177-14.437 35.94-34.007 35.941-55.103 0-11.074-3.518-21.727-10.212-31.438 30.246-5.269 58.989-17.762 76.505-40.881 22.471 16.916 44.855 46.801 37.904 76.733"/><path d="M95.073 420.537c-23.693 0-38.185-5.67-45.571-17.84-5.42-8.522-17.816-1.402-13.018 7.458 10.179 17.079 29.344 25.382 58.589 25.382 12.614 0 20.546 4.114 24.791 7.289 2.578 1.929 6.088 2.026 8.709.155 4.18-2.817 4.427-8.978.391-12.01-6.39-4.816-17.383-10.434-33.891-10.434M252.213 285.135a7.5 7.5 0 0 0-10.547 1.125c-16.794 20.363-49.046 6.365-68.926 22.161-7.82 5.999 1.632 17.65 9.129 11.903 19.362-12.492 50.19 1.582 71.469-24.642a7.5 7.5 0 0 0-1.125-10.547M205.387 195.231c1.786 0 3.58-.635 5.014-1.924 13.788-12.406 38.955-19.706 65.667-19.057 9.896-.017 10.281-14.459.365-14.995-30.863-.763-59.291 7.809-76.065 22.9-4.795 4.315-1.524 13.076 5.019 13.076M333.188 112.609c10.346-11.665 27.032-10.531 41.253-10.758 15.061-.241 30.148-2.349 41.738-12.801 7.184-6.479-3.451-17.06-10.607-10.607-21.488 18.333-58.862-2.919-82.991 23.56-6.386 7.2 4.186 17.846 10.607 10.606"/></svg>