<svg xmlns="http://www.w3.org/2000/svg" width="512" height="512"><path fill="#f9f3f1" d="M357.025 500.33c-18.665-11.633-49.388-20.83-70.308-27.4-10.201-3.203-17.102-12.666-17.102-23.313V282.186h-27.199v167.431c0 10.647-6.902 20.109-17.102 23.313-20.92 6.57-51.643 15.767-70.308 27.4q-1.846 1.15 1.203 4.17h199.613q3.051-3.02 1.203-4.17"/><path fill="#f9f3f1" d="M320.257 149.331 335.715 7.5h-159.52l15.457 141.831c2.858 30.16-34.617 43.596-39.073 76.889-5.36 40.05 46.283 73.158 103.376 73.158s109.614-34.15 103.376-73.158c-5.186-32.425-41.937-46.678-39.074-76.889"/><path fill="#f3eae6" d="M359.331 226.219c-5.185-32.424-41.937-46.677-39.073-76.888L335.715 7.5h-40l-15.457 141.831c-2.863 30.212 33.888 44.464 39.073 76.888 5.504 34.418-34.736 65.054-83.5 71.787a149 149 0 0 0 20.124 1.371c57.093.001 109.614-34.149 103.376-73.158"/><path fill="#fee97d" d="M333.085 182.425H178.346c-10.34 12.655-23.264 25.091-25.767 43.794-5.36 40.05 46.283 73.158 103.376 73.158s109.614-34.15 103.376-73.158c-2.936-18.358-15.991-30.891-26.246-43.794"/><path fill="#fee45a" d="M359.331 226.219c-2.936-18.359-15.991-30.892-26.246-43.794h-40c10.255 12.903 23.31 25.436 26.246 43.794 5.504 34.418-34.736 65.054-83.5 71.787a149 149 0 0 0 20.124 1.371c57.092.001 109.614-34.149 103.376-73.158"/><path d="M360.992 493.965c-18.25-11.374-46.878-20.325-67.782-26.861-8.432-1.746-16.095-8.273-16.095-17.487V305.394c31.098-4.355 59.552-18.026 75.953-37.258 27.42-32.151 8.335-63.014-14.175-90.456-7.005-8.822-12.137-17.223-11.174-27.591L343.171 8.313Q343.153.83 335.715 0h-159.52q-7.438.828-7.456 8.313l3.723 34.164c1.052 9.643 15.961 8.015 14.912-1.625L184.557 15h142.797l-14.552 133.519-.011.105c-.962 10.15 1.699 18.647 6.01 26.301H192.893c4.427-7.606 7.194-16.081 6.226-26.301l-.011-.105-7.387-67.781c-1.052-9.642-15.962-8.015-14.912 1.625l7.381 67.723c.967 10.391-4.401 18.711-11.592 27.521-23.25 27.681-40.885 59.557-12.742 91.717 16.573 18.939 44.211 32.012 75.06 36.151v144.143c0 9.212-7.66 15.686-16.095 17.487-20.904 6.536-49.532 15.487-67.783 26.861-7.707 4.805-3.49 18.035 5.171 18.035h110.14c9.697 0 9.697-15 0-15h-87.936c14.621-6.117 31.418-11.369 44.884-15.58 15.043-3.596 26.619-15.854 26.619-31.803V306.762q6.1.237 12.199-.011v142.867c0 15.949 11.576 28.207 26.619 31.803 13.466 4.21 30.264 9.463 44.884 15.58h-21.936c-9.697 0-9.697 15 0 15h44.14c8.662-.001 12.878-13.231 5.17-18.036m-189.847-234.52c-21.471-24.538-6.962-48.484 10.723-69.521h147.64c16.952 20.632 33.23 43.759 12.148 68.478-36.865 43.567-133.243 44.273-170.511 1.043"/><path d="M240.146 254.759c-31.004-1.364-45.711-22.312-46.367-23.271-5.41-8.021-17.833.317-12.451 8.364.769 1.15 19.279 28.183 58.16 29.893 9.445.41 10.075-14.572.658-14.986"/></svg>