<svg xmlns="http://www.w3.org/2000/svg" width="512" height="512"><path fill="#fed402" d="M478.216 447.271H33.784c-8.88 0-16.078-7.199-16.078-16.078v-.013c0-8.88 7.199-16.078 16.078-16.078h444.433c8.88 0 16.078 7.199 16.078 16.078v.013c0 8.88-7.199 16.078-16.079 16.078"/><path fill="#fac600" d="M478.216 415.102h-40c8.88 0 16.078 7.199 16.078 16.078v.013c0 8.88-7.199 16.078-16.078 16.078h40c8.88 0 16.078-7.199 16.078-16.078v-.013c.001-8.88-7.198-16.078-16.078-16.078"/><path fill="#fed402" d="M478.216 293.047H33.784c-8.88 0-16.078-7.199-16.078-16.078v-.013c0-8.88 7.199-16.078 16.078-16.078h444.433c8.88 0 16.078 7.199 16.078 16.078v.013c0 8.879-7.199 16.078-16.079 16.078"/><path fill="#fac600" d="M478.216 260.877h-40c8.88 0 16.078 7.199 16.078 16.078v.013c0 8.88-7.199 16.078-16.078 16.078h40c8.88 0 16.078-7.199 16.078-16.078v-.013c.001-8.88-7.198-16.078-16.078-16.078"/><g fill="#fd4755"><path d="M472.085 138.822c12.266 0 22.21 9.952 22.21 22.227 0 8.333-4.582 15.595-11.362 19.4 6.78 3.805 11.362 11.067 11.362 19.4s-4.582 15.595-11.362 19.4c6.78 3.805 11.362 11.067 11.362 19.4 0 12.276-9.943 22.227-22.21 22.227H39.915c-12.266 0-22.21-9.952-22.21-22.227 0-8.333 4.582-15.595 11.362-19.4-6.78-3.805-11.362-11.067-11.362-19.4s4.582-15.595 11.362-19.4c-6.78-3.805-11.362-11.067-11.362-19.4 0-12.276 9.944-22.227 22.21-22.227z"/><path d="M472.085 138.822c12.266 0 22.21 9.952 22.21 22.227 0 8.333-4.582 15.595-11.362 19.4 6.78 3.805 11.362 11.067 11.362 19.4s-4.582 15.595-11.362 19.4c6.78 3.805 11.362 11.067 11.362 19.4 0 12.276-9.943 22.227-22.21 22.227H39.915c-12.266 0-22.21-9.952-22.21-22.227 0-8.333 4.582-15.595 11.362-19.4-6.78-3.805-11.362-11.067-11.362-19.4s4.582-15.595 11.362-19.4c-6.78-3.805-11.362-11.067-11.362-19.4 0-12.276 9.944-22.227 22.21-22.227zM472.085 293.047c12.266 0 22.21 9.952 22.21 22.227 0 8.333-4.582 15.595-11.362 19.4 6.78 3.805 11.362 11.067 11.362 19.4s-4.582 15.595-11.362 19.4c6.78 3.805 11.362 11.067 11.362 19.4 0 12.276-9.943 22.227-22.21 22.227H39.915c-12.266 0-22.21-9.952-22.21-22.227 0-8.333 4.582-15.595 11.362-19.4-6.78-3.805-11.362-11.067-11.362-19.4s4.582-15.595 11.362-19.4c-6.78-3.805-11.362-11.067-11.362-19.4 0-12.276 9.944-22.227 22.21-22.227z"/></g><path fill="#fb2b3a" d="M494.295 354.074c0-8.333-4.582-15.595-11.362-19.4 6.78-3.805 11.362-11.067 11.362-19.4 0-12.276-9.943-22.227-22.21-22.227h-40c12.266 0 22.209 9.952 22.209 22.227 0 8.333-4.582 15.595-11.362 19.4 6.78 3.805 11.362 11.067 11.362 19.4s-4.582 15.595-11.362 19.4c6.78 3.805 11.362 11.067 11.362 19.4 0 12.276-9.943 22.227-22.209 22.227h40c12.266 0 22.21-9.952 22.21-22.227 0-8.333-4.582-15.595-11.362-19.4 6.78-3.805 11.362-11.067 11.362-19.4"/><path fill="#f9f3f1" d="M283.783 202.425c0 12.536-10.154 22.699-22.68 22.699s-22.68-10.163-22.68-22.699v-24.913c0 12.536-10.154 22.699-22.68 22.699s-22.68-10.163-22.68-22.699V295.89c0 12.536-10.154 22.699-22.68 22.699s-22.68-10.163-22.68-22.699v60.331c0 12.536-10.154 22.699-22.68 22.699s-22.68-10.163-22.68-22.699V168.473c0 12.536-10.154 22.699-22.68 22.699s-22.68-10.163-22.68-22.699v-19.437c0-5.641-4.569-10.214-10.205-10.214H23.572c-8.876 0-16.072-7.201-16.072-16.085V109.15c0-24.533 19.872-44.422 44.386-44.422h408.229c24.514 0 44.386 19.888 44.386 44.422v93.275c0 12.536-10.154 22.699-22.68 22.699s-22.68-10.163-22.68-22.699v-33.953c0 12.536-10.154 22.699-22.68 22.699s-22.68-10.163-22.68-22.699v-19.437c0-5.641-4.569-10.214-10.205-10.214H293.988c-5.636 0-10.205 4.57-10.205 10.211z"/><path fill="#f3eae6" d="M460.114 64.728h-45.5c24.514 0 44.386 19.888 44.386 44.422v61.847a23 23 0 0 0 .139-2.525v33.953c0 12.536 10.154 22.699 22.68 22.699s22.68-10.163 22.68-22.699V109.15c.001-24.533-19.871-44.422-44.385-44.422"/><path d="M460.114 57.228H123.983c-9.888.323-9.945 14.667 0 15h336.131c20.339 0 36.886 16.563 36.886 36.921v93.276c0 8.38-6.81 15.198-15.181 15.198s-15.18-6.818-15.18-15.198v-33.953c-.342-9.944-14.707-9.874-15 0 0 8.38-6.81 15.199-15.181 15.199s-15.18-6.818-15.18-15.199v-19.438c0-9.767-7.943-17.713-17.706-17.713H293.988c-9.763 0-17.705 7.945-17.705 17.711v53.393c-.768 20.129-29.592 20.139-30.361 0v-24.913a7.5 7.5 0 0 0-15 0c0 8.38-6.81 15.198-15.181 15.198s-15.18-6.818-15.18-15.198a7.5 7.5 0 0 0-15 0V295.89c0 8.38-6.81 15.199-15.181 15.199s-15.18-6.818-15.18-15.199c-.315-9.962-14.717-9.864-15 0v60.331c0 8.38-6.81 15.198-15.181 15.198s-15.18-6.818-15.18-15.198V168.473c-.269-9.889-14.71-9.922-15 0 0 8.38-6.81 15.199-15.181 15.199s-15.181-6.818-15.181-15.199v-19.438c0-9.767-7.942-17.713-17.705-17.713H23.57c-4.727 0-8.572-3.851-8.572-8.585V109.15c0-20.358 16.547-36.921 36.886-36.921h32.575a7.5 7.5 0 0 0 0-15H51.886C23.276 57.228 0 80.52 0 109.15v13.587c0 10.013 6.269 18.588 15.086 22.004-7.235 10.408-6.223 26.255 2.323 35.708-9.509 10.533-9.508 28.268 0 38.8-9.937 11.023-9.373 29.518.977 39.865-10.813 8.939-10.817 26.758-.001 35.696-10.35 10.349-10.911 28.843-.976 39.864-9.509 10.532-9.508 28.268 0 38.8-9.937 11.023-9.373 29.518.977 39.865-16.323 13.977-6.489 41.42 15.398 41.432h444.432c21.707.042 31.838-27.415 15.399-41.433 10.35-10.349 10.911-28.843.976-39.864 9.508-10.533 9.508-28.268 0-38.8 9.937-11.023 9.373-29.518-.977-39.865 10.812-8.939 10.817-26.758.001-35.696 7.911-7.953 10.551-21.605 5.792-32.161 7.621-5.487 12.593-14.437 12.593-24.527V109.15c0-28.63-23.276-51.922-51.886-51.922M125.02 386.419c16.642 0 30.181-13.547 30.181-30.198v-34.237c17.849 10.878 42.214-.957 45.002-21.437h188.464c9.916-.307 9.909-14.696 0-15H200.562v-17.17h277.655c11.35.401 11.355 16.77 0 17.17h-48.726c-9.916.307-9.909 14.696 0 15h42.594c8.111 0 14.709 6.606 14.709 14.727a14.77 14.77 0 0 1-7.532 12.86c-5.035 2.62-5.034 10.46 0 13.081 9.969 5.445 9.966 20.276 0 25.719-5.035 2.623-5.034 10.459 0 13.081 13.105 7.447 7.908 27.487-7.177 27.587H39.915c-15.094-.102-20.276-20.146-7.177-27.587 5.035-2.623 5.034-10.459 0-13.081-9.969-5.445-9.966-20.276 0-25.719 5.034-2.624 5.035-10.457 0-13.081a14.77 14.77 0 0 1-7.532-12.86c0-8.121 6.599-14.727 14.709-14.727H94.84v55.674c0 16.651 13.538 30.198 30.18 30.198M33.784 285.547c-11.35-.401-11.355-16.77 0-17.17H94.84v17.17zm15.695-136.512v19.438c-.324 22.966 25.835 37.907 45.361 26.093v58.811H39.915c-15.088-.099-20.28-20.145-7.177-27.587 5.035-2.623 5.034-10.459 0-13.081-9.969-5.448-9.966-20.274 0-25.72 5.035-2.621 5.034-10.46 0-13.081-13.104-7.448-7.909-27.486 7.177-27.587h6.858a2.714 2.714 0 0 1 2.706 2.714m428.737 290.736H33.784c-11.35-.401-11.355-16.77 0-17.17h444.433c11.349.401 11.354 16.77-.001 17.17m8.578-201.122c0 8.121-6.599 14.728-14.709 14.728H200.562v-49.771c8.795 5.422 21.593 5.417 30.383-.013 2.893 39.158 58.932 38.131 60.339-1.167v-53.393a2.71 2.71 0 0 1 2.705-2.711h109.584a2.713 2.713 0 0 1 2.706 2.713v19.438c-.323 22.969 25.833 37.905 45.361 26.094v7.859c-.124 17.931 16.01 32.228 33.776 29.985a14.7 14.7 0 0 1 1.378 6.238"/><path d="M193.114 385.061q5.601 3.444 10.446-1.836c5.394-7.694 14.973-11.706 24.304-10.037q8.107.38 8.814-7.706a12.74 12.74 0 0 1 10.165-13.06c6.808-1.424 13.58 2.946 15.092 9.74 1.385 6.215 9.732 7.909 13.428 2.723 6.186-8.679 20.487-5.8 22.694 4.775a7.5 7.5 0 0 0 14.684-3.066c-3.791-18.158-24.939-27.637-41.024-18.248-6.289-8.377-17.092-12.875-27.944-10.606-10.571 2.21-18.586 10.125-21.198 20.081-12.281.32-24.244 6.732-31.297 16.794a7.5 7.5 0 0 0 1.836 10.446M371.101 188.953c-2.306 0-4.559.315-6.715.931a28.43 28.43 0 0 0-23.91-13.044c-15.671 0-28.421 12.757-28.421 28.438a7.5 7.5 0 0 0 15 0c0-7.41 6.021-13.438 13.421-13.438a13.415 13.415 0 0 1 12.995 10.059q3.762 8.439 11.883 4.032c5.682-4.446 15.096.023 15.096 7.386a7.5 7.5 0 0 0 15 0c.001-13.435-10.923-24.364-24.349-24.364M443.778 388.798c9.652 0 9.668-15 0-15-9.652 0-9.668 15 0 15M58.016 346.574c-9.652 0-9.668 15 0 15 9.652 0 9.668-15 0-15M353.971 336.709c9.652 0 9.668-15 0-15-9.652 0-9.668 15 0 15M429.491 218.552c-9.652 0-9.668 15 0 15 9.652 0 9.668-15 0-15"/></svg>