<svg xmlns="http://www.w3.org/2000/svg" width="512" height="512" viewBox="0 0 512.17 512.17"><path fill="#fee97d" d="M413.49 98.834c-10.912-10.912-32.004 10.181-42.916-.73s10.181-32.004-.73-42.916c-10.91-10.91-32.003 10.183-42.913-.727s10.183-32.003-.727-42.913c-14.418-14.418-45.199 5.055-72.77 134.218-15.388 72.086-35.707 92.048-107.339 107.339-129.163 27.571-148.636 58.352-134.218 72.77 10.91 10.91 32.003-10.183 42.913.727s-10.183 32.003.727 42.913c10.911 10.911 32.004-10.181 42.916.73 10.912 10.912-10.181 32.004.73 42.916 10.912 10.912 32.004-10.181 42.916.73s-10.181 32.004.73 42.916c10.91 10.91 32.003-10.183 42.913.727s-10.183 32.003.727 42.913c14.418 14.418 45.199-5.055 72.77-134.218 15.291-71.632 35.253-91.951 107.339-107.339 129.163-27.571 148.636-58.352 134.218-72.77-10.91-10.91-32.003 10.183-42.913-.727s10.183-32.003-.727-42.913c-10.911-10.911-32.004 10.181-42.916-.73-10.911-10.912 10.182-32.004-.73-42.916"/><path fill="#fee45a" d="M500.776 186.12c-10.89-10.89-31.926 10.106-42.853-.668-18.188 13.47-55.809 28.928-124.031 43.491-72.086 15.388-92.048 35.707-107.339 107.339-13.762 64.471-28.324 101.613-41.251 120.853q.213.192.421.4c10.91 10.91-10.183 32.003.727 42.912 14.418 14.418 45.199-5.055 72.77-134.218 15.291-71.632 35.253-91.951 107.339-107.339 129.162-27.571 148.635-58.352 134.217-72.77"/><path d="M506.079 180.817c-8.683-8.684-20.447-4.94-29.033-2.207-7.039 2.239-11.807 3.552-13.879 1.48-5.262-7.591 13.475-28.826-.728-42.913-8.683-8.683-20.446-4.941-29.034-2.208-7.039 2.238-11.808 3.551-13.881 1.479-5.265-7.592 13.474-28.827-.73-42.916-8.683-8.684-20.446-4.942-29.035-2.209-7.039 2.239-11.808 3.551-13.881 1.479-5.265-7.592 13.475-28.827-.73-42.916-8.684-8.684-20.446-4.939-29.034-2.208-7.04 2.239-11.807 3.551-13.879 1.48s-.759-6.841 1.48-13.879c2.733-8.588 6.476-20.351-2.207-29.033-5.186-5.186-11.816-7.242-18.67-5.791-14.77 3.125-28.944 22.036-42.128 56.205-3.491 9.047 10.503 14.447 13.994 5.4 15.72-40.738 27.886-46.221 31.24-46.931 1.321-.28 2.942-.292 4.958 1.723 2.072 2.072.759 6.841-1.48 13.879-2.732 8.589-6.476 20.352 2.208 29.034 8.683 8.683 20.445 4.939 29.034 2.208 7.038-2.24 11.806-3.553 13.879-1.48 5.263 7.593-13.475 28.827.73 42.916 8.683 8.684 20.446 4.941 29.035 2.209 34.307-12.221-3.908 24.275 14.612 41.438 8.683 8.685 20.447 4.94 29.035 2.209 7.039-2.239 11.806-3.552 13.88-1.479 2.072 2.072.759 6.841-1.48 13.879-2.733 8.588-6.475 20.351 2.208 29.034s20.445 4.94 29.034 2.208c3.205-1.02 18.375-5.812 15.459 4.052-.946 3.198-5.751 11.885-29.88 23.438-23.379 11.195-57.758 21.679-102.181 31.162-74.917 15.992-97.116 38.19-113.109 113.108-4.021 18.841-8.287 36.109-12.677 51.324-2.615 9.063 11.698 13.567 14.412 4.158 23.546-82.235 13.914-136.793 114.505-153.92 57.743-12.222 171.464-42.559 137.953-85.412"/><path d="M236.887 447.758a7.5 7.5 0 0 0-9.729 4.224c-15.378 38.978-27.208 44.216-30.467 44.893-9.344 1.956-4.421-12.587-3.459-15.609 2.733-8.589 6.476-20.351-2.207-29.034s-20.446-4.94-29.034-2.208c-15.251 5.168-17.568 2.85-12.4-12.401 2.732-8.589 6.474-20.352-2.209-29.035s-20.446-4.942-29.035-2.209c-7.04 2.24-11.808 3.551-13.881 1.479-5.265-7.592 13.474-28.827-.73-42.916-8.683-8.684-20.446-4.941-29.035-2.209-7.038 2.239-11.807 3.552-13.88 1.479-2.072-2.073-.759-6.841 1.48-13.879 2.733-8.588 6.475-20.351-2.208-29.034s-20.445-4.939-29.034-2.207c-3.206 1.02-18.376 5.812-15.459-4.052.946-3.198 5.751-11.885 29.88-23.438 23.379-11.195 57.757-21.679 102.181-31.161 74.917-15.993 97.116-38.191 113.108-113.108 3.754-17.588 7.73-33.842 11.819-48.311 2.637-9.332-11.797-13.41-14.435-4.078-4.176 14.78-8.232 31.353-12.054 49.258-14.694 68.839-32.729 86.875-101.57 101.57-60.422 12.895-134.332 34.644-143.314 65.014-6.992 23.642 18.533 27.645 34.392 22.6 7.039-2.24 11.808-3.552 13.879-1.48 5.262 7.591-13.475 28.826.728 42.913 8.682 8.683 20.445 4.94 29.035 2.209 7.039-2.239 11.807-3.553 13.881-1.479 5.265 7.592-13.474 28.827.73 42.916 8.682 8.683 20.445 4.941 29.035 2.209 7.039-2.24 11.808-3.552 13.881-1.479 5.264 7.591-13.475 28.827.73 42.916 8.683 8.683 20.445 4.939 29.034 2.208 7.039-2.24 11.806-3.553 13.879-1.48 2.072 2.072.759 6.841-1.48 13.879-4.857 15.265-2.161 39.614 20.804 34.844 14.481-3.008 28.4-21.201 41.37-54.074a7.503 7.503 0 0 0-4.226-9.73M331.081 170.637l-35.077 35.077c-6.858 6.856 3.75 17.463 10.606 10.606l35.077-35.077c6.858-6.857-3.75-17.463-10.606-10.606M321.115 231.466c1.519 3.601 6.26 5.498 9.826 3.995l30.337-12.799c8.935-3.769 3.105-17.587-5.831-13.82L325.11 221.64a7.5 7.5 0 0 0-3.995 9.826M299.488 147.051a7.5 7.5 0 0 0-9.826 3.995l-12.799 30.337c-3.67 8.698 10.051 14.765 13.82 5.831l12.799-30.337a7.5 7.5 0 0 0-3.994-9.826"/><path d="M174.471 345.352a7.47 7.47 0 0 0 5.303-2.197l35.077-35.077c6.858-6.857-3.75-17.463-10.606-10.606l-35.077 35.077c-4.453 4.452-.993 12.803 5.303 12.803M189.739 282.327a7.5 7.5 0 0 0-9.826-3.995l-30.337 12.799c-8.795 3.71-2.809 17.462 5.831 13.82l30.337-12.799a7.5 7.5 0 0 0 3.995-9.825M211.367 366.742c3.565 1.505 8.307-.395 9.826-3.995l12.799-30.337c3.77-8.935-10.05-14.765-13.82-5.831l-12.799 30.337a7.5 7.5 0 0 0 3.994 9.826"/></svg>