<svg xmlns="http://www.w3.org/2000/svg" width="512" height="512" viewBox="0 0 512.004 512.004"><path fill="#f9f3f1" d="M256.004 454.561c-137.243 0-248.5-111.257-248.5-248.5v-35.536h497v35.536c0 137.243-111.257 248.5-248.5 248.5"/><path fill="#f3eae6" d="M464.504 170.524v35.536c0 130.51-100.609 237.522-228.5 247.707 6.597.525 13.267.793 20 .793 137.243 0 248.5-111.257 248.5-248.5v-35.536z"/><ellipse cx="256.004" cy="170.524" fill="#fe9738" rx="248.5" ry="113.436"/><path fill="#4fc123" d="m252.859 224.9 45.737-21.23 14.968 32.246-45.737 21.23z"/><path fill="#fee97d" d="M368.177 215.592a14.9 14.9 0 0 1 4.593 5.399c3.729 7.398.754 16.417-6.644 20.145-26.665 13.439-67.695-6.613-72.523-36.668-1.315-8.18 4.251-15.876 12.431-17.19 9.162-.603 14.52 3.646 17.189 12.431 4.261 14.02 16.461 20.797 29.402 14.637 5.238-2.492 11.156-1.933 15.552 1.246M105.861 221.99c6.938-4.527 8.893-13.821 4.367-20.759s-13.821-8.893-20.759-4.367c-15.493 10.108-21.872 29.186-18.426 49.418 11.516 5.855 24.346 11.159 38.279 15.818a15 15 0 0 0-1.806-3.878c-10.063-15.423-8.949-31.474-1.655-36.232"/><g fill="#4fc123"><path d="m191.887 219.866-51.173 51.173c13.432 3.217 27.588 5.889 42.327 7.953l33.986-33.986zM300.953 155.438l65.513-64.258-11.564-11.79a505 505 0 0 0-16.772-10.217l-62.073 60.883z"/></g><path fill="#fd4755" d="m130.113 178.266-4.542-13.751c-3.079-9.322 1.981-19.376 11.304-22.455 9.322-3.079 19.376 1.981 22.455 11.304l4.542 13.751c3.079 9.322-1.981 19.376-11.304 22.455-9.322 3.079-19.375-1.982-22.455-11.304M381.64 146.622l13.34 5.637c9.043 3.822 13.276 14.251 9.455 23.294-3.822 9.043-14.251 13.276-23.294 9.455l-13.34-5.637c-9.043-3.822-13.276-14.251-9.455-23.294s14.25-13.277 23.294-9.455M440.961 214.947c-9.749-1.162-18.594 5.798-19.756 15.547l-1.715 14.38a17.7 17.7 0 0 0 1.887 10.322c12.859-5.237 24.518-11.076 34.764-17.419l.366-3.074c1.163-9.749-5.798-18.594-15.546-19.756"/><path fill="#fee97d" d="M222.278 144.934a14.9 14.9 0 0 1 7.088.098c8.023 2.065 12.852 10.243 10.787 18.265-7.443 28.918-49.551 46.595-75.35 30.439-7.022-4.397-9.15-13.653-4.752-20.674 5.579-7.293 12.304-8.527 20.674-4.752 13.357 6.025 26.491 1.304 30.376-12.491 1.572-5.583 5.889-9.67 11.177-10.885"/><path fill="#f3eae6" d="M504.504 170.524c0-62.649-111.257-113.436-248.5-113.436s-248.5 50.787-248.5 113.436c0 19.315 10.576 37.503 29.227 53.422-3.503-7.194-5.351-14.673-5.351-22.349 0-56.63 100.568-102.537 224.624-102.537s224.624 45.907 224.624 102.537c0 7.676-1.848 15.155-5.351 22.349 18.652-15.919 29.227-34.106 29.227-53.422"/><path d="M434.834 83.49c-88.606-41.942-241.75-44.658-336.157-8.762-9.113 3.315-3.984 17.409 5.129 14.096 90.784-34.392 239.798-32.07 324.799 8.313 54.165 25.396 84.557 60.053 59.451 101.648-10.373-82.394-149.278-107.251-232.05-107.226-82.803-.017-221.646 24.816-232.055 107.226-22.78-37.202.028-69.096 44.754-94.298 8.507-4.655 1.307-17.813-7.2-13.159-39.659 21.701-61.5 49.827-61.5 79.197v35.536C-1.147 413.199 238.166 535.627 405.52 413.885c7.867-5.67-.902-17.838-8.77-12.169-155.304 113.077-378.027 2.446-381.67-189.569 86.768 106.059 394.936 106.163 481.85 0-1.536 62.498-26.712 120.922-71.285 165.096-6.892 6.831 3.679 17.475 10.559 10.654 48.881-48.443 75.801-113.021 75.801-181.836v-35.536c-.001-33.409-27.407-64.319-77.171-87.035m-101.239 29.425-32.54 31.917-14.392-14.673 21.231-20.824c8.745.954 17.325 2.15 25.701 3.58M101.763 215.709c-5.867 3.828-9.178 11.291-9.083 20.475.042 4.09.762 8.352 2.098 12.598a258 258 0 0 1-16.853-7.452c-1.749-16.465 3.96-30.562 15.642-38.184 3.464-2.259 8.12-1.279 10.379 2.184s1.281 8.119-2.183 10.379m53.915 50.972 36.208-36.209 14.533 14.533-26.028 26.028a453 453 0 0 1-24.713-4.352m43.502 6.779 23.15-23.15a7.5 7.5 0 0 0 0-10.606l-25.14-25.14a7.5 7.5 0 0 0-10.606 0l-48.221 48.22a362 362 0 0 1-23.427-6.706c-3.41-6.577-7.177-12.322-7.256-20.048-.047-4.57 1.337-7.144 2.28-7.758 10.077-6.574 13.183-20.971 6.55-31.138-6.779-10.389-20.748-13.328-31.138-6.55-13.85 9.036-21.95 24.657-22.675 42.599-7.426-4.386-14.035-8.976-19.791-13.731-14.396-34.158 12.44-62.295 57.38-83.536 48.116-22.734 123.996-33.061 187.94-28.3l-17.42 17.086q-4.444 5.261-.103 10.606l24.896 25.382q5.282 4.444 10.606.103l45.27-44.402c51.883 10.32 141.451 47.787 117.63 103.061a135 135 0 0 1-6.348 4.925c-3.068-8.871-10.977-15.693-20.907-16.876-13.845-1.649-26.44 8.267-28.092 22.106l-1.714 14.378a25.3 25.3 0 0 0 .103 6.795c-57.724 22.73-143.667 30.689-212.967 22.68m227.895-28.855 1.576-13.222c.607-5.094 6.303-9.596 11.422-8.988 5.443.649 9.394 5.465 9.038 10.871-6.746 3.994-14.121 7.789-22.036 11.339"/><path d="M372.572 209.514c-6.67-4.822-15.549-5.566-23.17-1.939-8.804 4.193-16.364-1.366-19.002-10.046-7.16-23.562-43.544-23.648-44.478 3.746l-36.198 16.805q-5.948 3.47-3.645 9.961l14.971 32.247c1.651 3.558 6.433 5.282 9.961 3.645l43.472-20.182c16.349 9.489 37.614 12.855 55.018 4.084 14.636-7.375 16.419-28.671 3.071-38.321m-109.73 19.014 26.43-12.27c2.639 6.23 6.645 12.07 11.764 17.198l-29.539 13.713zm103.656 1.563a7.45 7.45 0 0 1-3.747 4.349c-10.479 5.281-25.101 4.416-38.166-2.26-12.916-6.599-21.729-17.403-23.576-28.901-1.716-10.665 12.306-10.375 15.039-1.388 5.244 17.256 22.582 27.428 39.801 19.229 6.283-2.992 12.732 2.66 10.649 8.971M411.481 159.127c-2.539-6.256-7.362-11.149-13.582-13.777l-13.34-5.637c-29.957-12.659-49.683 33.887-19.678 46.566l13.34 5.637c20.424 8.631 41.598-12.244 33.26-32.789m-13.955 13.507q-4.469 8.312-13.467 5.465l-13.34-5.637c-11.893-5.026-4.244-24.104 8.002-18.932l13.339 5.637q8.312 4.469 5.466 13.467M245.001 148.116a22.35 22.35 0 0 0-13.763-10.347c-11.771-3.033-24.074 4.363-27.356 16.017-2.643 9.385-11.802 11.42-20.073 7.687-5.683-2.562-10.572-3.162-14.741-2.541l-2.617-7.922c-4.372-13.233-18.695-20.441-31.93-16.073-13.234 4.372-20.444 18.695-16.073 31.93l4.542 13.751c2.118 6.411 6.605 11.613 12.636 14.649a25.35 25.35 0 0 0 20.549.972 22.6 22.6 0 0 0 4.647 3.853c30.31 19.183 78.758-2.134 86.593-34.925 1.5-5.82.642-11.876-2.414-17.051m-107.766 27.797-4.542-13.75c-1.777-5.381 1.154-11.205 6.534-12.982 5.382-1.775 11.205 1.155 12.982 6.535l3.559 10.775c-2.253 2.495-5.392 15.905-5.551 15.958-5.381 1.777-11.205-1.155-12.982-6.536m95.655-14.485c-2.925 11.363-13.206 21.8-26.831 27.237-13.47 5.376-27.405 4.895-37.275-1.286q-5.326-4.056-2.538-10.067c2.762-3.496 5.477-4.835 11.396-2.166 16.374 7.386 35.581.808 40.679-17.294 1.13-4.015 5.115-6.604 9.177-5.557q6.479 2.332 5.392 9.133"/></svg>