<svg xmlns="http://www.w3.org/2000/svg" width="512" height="512" viewBox="0 0 512.003 512.003"><path fill="#fd4755" d="M128.763 212.432C85.764 222.16 7.769 244.908 7.501 286.723c-.317 49.524 81.189 44.979 68.472 80.671-7.728 21.689-19.751 51.252 4.585 71.173 24.825 20.322 85.954 13.003 183.097-28.716 25.541-10.969 78.17 2.043 134.711 28.216 75.922 35.145 139.399-19.148 86.849-71.299-74.466-73.899-29.549-108.796-90.162-149.621-64.674-43.561-266.29-4.715-266.29-4.715"/><path fill="#fb2b3a" d="M485.216 366.769c-74.466-73.899-29.549-108.796-90.162-149.621-26.961-18.16-77.722-21.998-127.753-20.299 35.584 1.397 68.034 7.018 87.753 20.299 60.613 40.826 15.696 75.722 90.162 149.621 35.373 35.104 18.173 71.179-20.007 80.293 62.749 13.036 106.195-34.456 60.007-80.293"/><path fill="#c86d36" d="M280.29 162.249c0-6.382-1.52-12.409-4.217-17.739-2.115-4.18-2.88-8.879-2.634-13.558a39.2 39.2 0 0 0-2.888-16.94 39.2 39.2 0 0 0-10.931-15.086c-3.648-3.095-6.205-7.233-7.775-11.752a39.2 39.2 0 0 0-9.346-14.884 39.2 39.2 0 0 0-15.133-9.431c-4.569-1.552-8.613-4.267-11.841-7.854a39.2 39.2 0 0 0-14.023-9.939 39.2 39.2 0 0 0-18.384-2.94c-4.642.379-9.303-.57-13.475-2.641a39.2 39.2 0 0 0-17.482-4.087 39.2 39.2 0 0 0-17.74 4.216c-4.181 2.115-8.88 2.879-13.559 2.634a39.2 39.2 0 0 0-16.942 2.888 39.2 39.2 0 0 0-15.087 10.93c-3.095 3.648-7.234 6.205-11.753 7.774a39.2 39.2 0 0 0-14.886 9.345 39.2 39.2 0 0 0-9.432 15.132c-1.553 4.568-4.268 8.613-7.854 11.84a39.2 39.2 0 0 0-9.94 14.022 39.16 39.16 0 0 0-2.94 18.382c.379 4.642-.57 9.303-2.642 13.473a39.2 39.2 0 0 0-4.087 17.481c0 6.382 1.52 12.409 4.217 17.739 2.115 4.18 2.88 8.879 2.634 13.558a39.2 39.2 0 0 0 2.888 16.94 39.17 39.17 0 0 0 10.932 15.086c3.648 3.095 6.205 7.233 7.775 11.752a39.2 39.2 0 0 0 9.346 14.884 39.2 39.2 0 0 0 15.133 9.431c4.569 1.552 8.613 4.267 11.841 7.854a39.2 39.2 0 0 0 14.023 9.939 39.2 39.2 0 0 0 18.384 2.94c4.642-.379 9.303.57 13.475 2.641a39.2 39.2 0 0 0 17.482 4.087c6.382 0 12.41-1.519 17.741-4.216 4.181-2.115 8.88-2.879 13.559-2.634a39.2 39.2 0 0 0 16.942-2.888 39.2 39.2 0 0 0 15.087-10.931c3.095-3.648 7.234-6.205 11.753-7.774a39.2 39.2 0 0 0 14.886-9.345 39.2 39.2 0 0 0 9.432-15.132c1.553-4.568 4.268-8.613 7.854-11.84a39.2 39.2 0 0 0 9.939-14.022 39.2 39.2 0 0 0 2.94-18.382c-.379-4.642.57-9.303 2.642-13.474a39.2 39.2 0 0 0 4.086-17.479"/><path fill="#dc8758" d="M486.701 203.88c0-6.382-1.52-12.409-4.217-17.739-2.115-4.18-2.88-8.879-2.634-13.558a39.2 39.2 0 0 0-2.888-16.94 39.2 39.2 0 0 0-10.931-15.086c-3.648-3.095-6.205-7.233-7.775-11.752a39.2 39.2 0 0 0-9.346-14.884 39.2 39.2 0 0 0-15.133-9.431c-4.569-1.552-8.613-4.267-11.841-7.854a39.2 39.2 0 0 0-14.023-9.939 39.2 39.2 0 0 0-18.384-2.94c-4.642.379-9.303-.57-13.475-2.641a39.2 39.2 0 0 0-17.482-4.087 39.2 39.2 0 0 0-17.74 4.216c-4.181 2.115-8.88 2.879-13.559 2.634a39.2 39.2 0 0 0-16.942 2.888 39.2 39.2 0 0 0-15.087 10.93c-3.095 3.648-7.234 6.205-11.753 7.774a39.2 39.2 0 0 0-14.886 9.345 39.2 39.2 0 0 0-9.432 15.132c-1.553 4.568-4.268 8.613-7.854 11.84a39.2 39.2 0 0 0-9.939 14.022 39.16 39.16 0 0 0-2.94 18.382c.379 4.642-.57 9.303-2.642 13.473a39.2 39.2 0 0 0-4.087 17.481c0 6.382 1.52 12.409 4.217 17.739 2.115 4.18 2.88 8.879 2.634 13.558a39.2 39.2 0 0 0 2.888 16.94 39.17 39.17 0 0 0 10.932 15.086c3.648 3.095 6.205 7.233 7.775 11.752a39.2 39.2 0 0 0 9.346 14.884 39.2 39.2 0 0 0 15.133 9.431c4.569 1.552 8.613 4.267 11.841 7.854a39.2 39.2 0 0 0 14.023 9.939 39.2 39.2 0 0 0 18.384 2.94c4.642-.379 9.303.57 13.475 2.641a39.2 39.2 0 0 0 17.482 4.087c6.382 0 12.41-1.519 17.741-4.216 4.181-2.115 8.88-2.879 13.559-2.634a39.2 39.2 0 0 0 16.942-2.888 39.2 39.2 0 0 0 15.087-10.931c3.095-3.648 7.234-6.205 11.753-7.774a39.2 39.2 0 0 0 14.886-9.345 39.2 39.2 0 0 0 9.432-15.132c1.553-4.568 4.268-8.613 7.854-11.84a39.2 39.2 0 0 0 9.939-14.022 39.2 39.2 0 0 0 2.94-18.382c-.379-4.642.57-9.303 2.642-13.474a39.2 39.2 0 0 0 4.085-17.479"/><path fill="#d77f4a" d="M486.701 203.88c0-6.382-1.52-12.409-4.217-17.739-2.115-4.18-2.88-8.879-2.634-13.558a39.2 39.2 0 0 0-2.888-16.94 39.17 39.17 0 0 0-10.932-15.086c-3.648-3.095-6.205-7.233-7.775-11.752a39.2 39.2 0 0 0-9.346-14.884 39.2 39.2 0 0 0-15.133-9.431c-4.569-1.552-8.613-4.267-11.841-7.854a39.2 39.2 0 0 0-14.023-9.939 39.2 39.2 0 0 0-18.384-2.94c-4.642.379-9.303-.57-13.475-2.641a39.2 39.2 0 0 0-17.482-4.087 39.2 39.2 0 0 0-17.74 4.216q-1.087.548-2.215.978c3.476 1.29 7.201 1.837 10.913 1.534a39.2 39.2 0 0 1 18.384 2.94 39.2 39.2 0 0 1 14.023 9.939c3.228 3.586 7.273 6.301 11.841 7.854a39.2 39.2 0 0 1 15.133 9.431 39.2 39.2 0 0 1 9.346 14.884c1.569 4.519 4.126 8.658 7.775 11.752a39.2 39.2 0 0 1 10.932 15.086 39.2 39.2 0 0 1 2.888 16.94c-.246 4.679.519 9.377 2.634 13.558a39.2 39.2 0 0 1 4.217 17.739 39.2 39.2 0 0 1-4.087 17.481c-2.072 4.171-3.021 8.832-2.642 13.474a39.17 39.17 0 0 1-2.94 18.382 39.2 39.2 0 0 1-9.939 14.022c-3.587 3.228-6.302 7.272-7.854 11.84a39.2 39.2 0 0 1-9.432 15.132 39.2 39.2 0 0 1-14.886 9.345c-4.52 1.569-8.658 4.126-11.754 7.774a39.2 39.2 0 0 1-15.087 10.93 39.2 39.2 0 0 1-16.942 2.888c-3.869-.203-7.751.285-11.344 1.656q1.307.485 2.562 1.107a39.2 39.2 0 0 0 17.482 4.087c6.383 0 12.41-1.519 17.741-4.216 4.181-2.115 8.88-2.879 13.559-2.634a39.2 39.2 0 0 0 16.942-2.888 39.2 39.2 0 0 0 15.087-10.93c3.095-3.648 7.234-6.205 11.753-7.774a39.2 39.2 0 0 0 14.886-9.345 39.2 39.2 0 0 0 9.432-15.132c1.552-4.568 4.268-8.612 7.854-11.84a39.2 39.2 0 0 0 9.939-14.022 39.16 39.16 0 0 0 2.94-18.382c-.379-4.642.57-9.303 2.642-13.474a39.2 39.2 0 0 0 4.087-17.481"/><path fill="#dc8758" d="M401.511 348.486c0-6.382-1.52-12.409-4.217-17.739-2.115-4.18-2.88-8.879-2.634-13.558a39.2 39.2 0 0 0-2.888-16.94 39.2 39.2 0 0 0-10.931-15.086c-3.648-3.095-6.205-7.233-7.775-11.752a39.2 39.2 0 0 0-9.346-14.884 39.2 39.2 0 0 0-15.133-9.431c-4.569-1.552-8.613-4.267-11.841-7.854a39.2 39.2 0 0 0-14.023-9.939 39.2 39.2 0 0 0-18.384-2.94c-4.642.379-9.303-.57-13.475-2.641a39.2 39.2 0 0 0-17.482-4.087 39.2 39.2 0 0 0-17.74 4.216c-4.181 2.115-8.88 2.879-13.559 2.634a39.2 39.2 0 0 0-16.942 2.888 39.2 39.2 0 0 0-15.087 10.93c-3.095 3.648-7.234 6.205-11.753 7.774a39.2 39.2 0 0 0-14.886 9.345 39.2 39.2 0 0 0-9.432 15.132c-1.553 4.568-4.268 8.613-7.854 11.84a39.2 39.2 0 0 0-9.94 14.022 39.2 39.2 0 0 0-2.94 18.382c.379 4.642-.57 9.303-2.642 13.473a39.2 39.2 0 0 0-4.087 17.481c0 6.382 1.52 12.409 4.217 17.739 2.115 4.18 2.88 8.879 2.634 13.558a39.2 39.2 0 0 0 2.888 16.94 39.17 39.17 0 0 0 10.932 15.086c3.648 3.095 6.205 7.233 7.775 11.752a39.2 39.2 0 0 0 9.346 14.884 39.2 39.2 0 0 0 15.133 9.431c4.569 1.552 8.613 4.267 11.841 7.854a39.2 39.2 0 0 0 14.023 9.939 39.2 39.2 0 0 0 18.384 2.94c4.642-.379 9.303.57 13.475 2.641a39.2 39.2 0 0 0 17.482 4.087c6.382 0 12.41-1.519 17.741-4.216 4.181-2.115 8.88-2.879 13.559-2.634a39.2 39.2 0 0 0 16.942-2.888 39.2 39.2 0 0 0 15.087-10.931c3.095-3.648 7.234-6.205 11.753-7.774a39.2 39.2 0 0 0 14.886-9.345 39.2 39.2 0 0 0 9.432-15.132c1.553-4.568 4.268-8.613 7.854-11.84a39.2 39.2 0 0 0 9.939-14.022 39.2 39.2 0 0 0 2.94-18.382c-.379-4.642.57-9.303 2.642-13.474a39.2 39.2 0 0 0 4.086-17.479"/><path fill="#d77f4a" d="M401.511 348.486c0-6.382-1.52-12.409-4.217-17.739-2.115-4.18-2.88-8.879-2.634-13.558a39.2 39.2 0 0 0-2.888-16.94 39.17 39.17 0 0 0-10.932-15.086c-3.648-3.095-6.205-7.233-7.775-11.752a39.2 39.2 0 0 0-9.346-14.884 39.2 39.2 0 0 0-15.133-9.431c-4.569-1.552-8.613-4.267-11.841-7.854a39.2 39.2 0 0 0-14.023-9.939 39.2 39.2 0 0 0-18.384-2.94c-4.642.379-9.303-.57-13.475-2.641a39.2 39.2 0 0 0-17.482-4.087 39.2 39.2 0 0 0-17.74 4.216q-1.086.548-2.215.978c3.476 1.29 7.201 1.837 10.913 1.534a39.2 39.2 0 0 1 18.384 2.94 39.2 39.2 0 0 1 14.023 9.939c3.228 3.586 7.273 6.301 11.841 7.854a39.2 39.2 0 0 1 15.133 9.431 39.2 39.2 0 0 1 9.346 14.884c1.569 4.519 4.126 8.658 7.775 11.752a39.2 39.2 0 0 1 10.932 15.086 39.2 39.2 0 0 1 2.888 16.94c-.246 4.679.519 9.377 2.634 13.558a39.2 39.2 0 0 1 4.217 17.739 39.2 39.2 0 0 1-4.087 17.481c-2.072 4.171-3.021 8.832-2.642 13.474a39.17 39.17 0 0 1-2.94 18.382 39.2 39.2 0 0 1-9.939 14.022c-3.587 3.228-6.302 7.272-7.854 11.84a39.2 39.2 0 0 1-9.432 15.132 39.2 39.2 0 0 1-14.886 9.345c-4.52 1.569-8.658 4.126-11.754 7.774a39.2 39.2 0 0 1-15.087 10.93 39.2 39.2 0 0 1-16.942 2.888c-3.869-.203-7.751.285-11.344 1.656q1.307.485 2.562 1.107a39.2 39.2 0 0 0 17.482 4.087c6.383 0 12.41-1.519 17.741-4.216 4.181-2.115 8.88-2.879 13.559-2.634a39.2 39.2 0 0 0 16.942-2.888 39.2 39.2 0 0 0 15.087-10.93c3.095-3.648 7.234-6.205 11.753-7.774a39.2 39.2 0 0 0 14.886-9.345 39.2 39.2 0 0 0 9.432-15.132c1.552-4.568 4.268-8.613 7.854-11.84a39.2 39.2 0 0 0 9.939-14.022 39.16 39.16 0 0 0 2.94-18.382c-.379-4.642.57-9.303 2.642-13.474a39.2 39.2 0 0 0 4.087-17.481"/><path d="M498.776 370.779c-5.917-7.682-17.802 1.473-11.883 9.154 5.234 6.795 11.207 17.326 9.935 28.908-2.045 18.595-20.939 28.642-36.498 31.596-22.642 4.735-47.66-3.241-69.015-13.583a742 742 0 0 0-8.788-3.892 21 21 0 0 1 4.392-5.544c5.157-4.641 9.141-10.258 11.84-16.697 2.894-6.904 4.104-14.474 3.498-21.893-.264-3.221.388-6.515 1.884-9.525 5.92-11.736 6.463-26.152 1.501-38.297a46.975 46.975 0 0 0 23.245-14.825c1.923-2.266 4.644-4.099 7.897-5.325 4.858 11.78 11.375 23.23 19.435 34.132 5.968 8.069 17.695-1.299 12.062-8.917-7.623-10.312-13.714-21.127-18.152-32.221a47.6 47.6 0 0 0 4.981-4.336c5.131-5.13 8.909-11.194 11.229-18.022 1.117-3.286 3.112-6.287 5.771-8.679 5.157-4.641 9.141-10.258 11.84-16.697 2.894-6.904 4.104-14.474 3.498-21.893-.263-3.221.388-6.515 1.884-9.525 6.54-12.968 6.485-29.024-.154-41.942-1.394-2.753-2.028-6.135-1.837-9.779.364-6.924-.792-13.711-3.436-20.174-2.839-6.934-7.341-13.146-13.021-17.964-2.403-2.039-4.319-4.976-5.541-8.494-2.331-6.709-6.075-12.673-11.129-17.727-5.132-5.13-11.195-8.908-18.023-11.229-3.284-1.116-6.286-3.111-8.68-5.77-4.642-5.157-10.26-9.14-16.698-11.838a47 47 0 0 0-21.893-3.498c-3.218.263-6.518-.388-9.529-1.884-12.969-6.539-29.024-6.483-41.944.155-2.753 1.393-6.141 2.03-9.78 1.836-6.922-.362-13.713.792-20.176 3.436a47 47 0 0 0-17.965 13.02c-2.039 2.403-4.977 4.319-8.494 5.541a46.6 46.6 0 0 0-8.364 3.86 46.4 46.4 0 0 0-8.195-9.041c-2.403-2.039-4.319-4.975-5.541-8.492-2.33-6.71-6.074-12.675-11.128-17.728-5.13-5.13-11.194-8.908-18.023-11.229-3.286-1.117-6.288-3.112-8.68-5.77-4.64-5.155-10.258-9.138-16.698-11.838a47 47 0 0 0-21.895-3.498c-3.216.265-6.517-.388-9.526-1.883-12.969-6.54-29.026-6.484-41.946.154-2.753 1.393-6.134 2.029-9.779 1.836-6.923-.364-13.716.792-20.176 3.437a7.5 7.5 0 0 0 5.681 13.882c4.396-1.8 9.014-2.59 13.707-2.339 6.256.327 12.253-.858 17.338-3.431 8.761-4.503 19.707-4.542 28.501-.105 5.455 2.71 11.483 3.886 17.421 3.399 5.107-.417 10.11.385 14.875 2.381 4.383 1.838 8.2 4.542 11.348 8.04 4.105 4.561 9.294 7.997 15.003 9.937 4.634 1.575 8.752 4.143 12.243 7.634 3.439 3.438 5.984 7.488 7.564 12.041 2.101 6.048 5.562 11.239 10.008 15.011a31.4 31.4 0 0 1 6.3 7.257 46.2 46.2 0 0 0-8.996 15.632c-1.117 3.285-3.112 6.286-5.771 8.679-5.156 4.641-9.14 10.259-11.838 16.696a47 47 0 0 0-3.5 21.893c.264 3.223-.388 6.517-1.883 9.527-5.92 11.735-6.463 26.149-1.503 38.293-8.996 2.5-17.196 7.701-23.243 14.829-2.039 2.403-4.977 4.319-8.494 5.541-6.709 2.33-12.675 6.073-17.729 11.127-5.132 5.131-8.91 11.194-11.229 18.022-2.369 6.966-6.231 10.725-13.453 10.725-4.973 0-9.732-1.112-14.146-3.304-5.455-2.709-11.481-3.882-17.421-3.399-5.105.417-10.11-.384-14.874-2.381a31.55 31.55 0 0 1-11.349-8.04c-4.106-4.561-9.295-7.998-15.003-9.937-4.632-1.574-8.751-4.143-12.243-7.634-3.438-3.438-5.983-7.489-7.564-12.041-2.101-6.048-5.561-11.239-10.008-15.012-3.909-3.315-6.884-7.422-8.842-12.206-1.799-4.397-2.586-9.009-2.34-13.706.329-6.256-.857-12.251-3.431-17.338-4.506-8.762-4.542-19.701-.104-28.498 2.708-5.455 3.884-11.479 3.398-17.42-.417-5.104.385-10.107 2.381-14.871 1.838-4.382 4.543-8.2 8.04-11.347 4.562-4.104 7.998-9.292 9.939-15.002 1.574-4.632 4.142-8.75 7.633-12.241a7.5 7.5 0 0 0-10.605-10.607c-5.131 5.13-8.909 11.193-11.229 18.021-1.117 3.286-3.112 6.287-5.771 8.679-5.156 4.64-9.139 10.257-11.84 16.697-2.895 6.905-4.104 14.475-3.498 21.892.264 3.221-.388 6.516-1.883 9.526-6.542 12.969-6.485 29.024.153 41.943 1.394 2.752 2.028 6.134 1.837 9.778-.364 6.925.792 13.712 3.436 20.174 3.341 8.161 8.745 13.058 14.492 19.389C14.449 249.028.131 266.73.003 286.672c-.195 30.429 25.038 43.185 45.313 53.434 10.168 5.14 30.235 12.9 22.589 27.571-7.762 21.609-19.491 54.266 7.903 76.691 10.246 8.387 25.136 12.581 44.538 12.58 16.964-.001 37.38-3.209 61.14-9.626a46.3 46.3 0 0 0 15.546 8.919c3.286 1.117 6.288 3.112 8.68 5.77 4.64 5.156 10.258 9.139 16.698 11.839a47 47 0 0 0 21.894 3.498c3.215-.263 6.517.388 9.528 1.884 12.972 6.54 29.023 6.484 41.945-.154 2.752-1.393 6.133-2.032 9.779-1.836 6.926.364 13.715-.792 20.177-3.436a47 47 0 0 0 17.965-13.02c2.039-2.403 4.977-4.319 8.494-5.541 6.71-2.33 12.676-6.073 17.729-11.126a47 47 0 0 0 6.172-7.596c3.054 1.315 6.101 2.681 9.088 4.019 23.778 11.469 51.475 20.033 77.947 14.631 11.68-2.217 22.716-7.161 31.077-13.92 10.159-8.213 16.223-18.854 17.533-30.773 1.818-16.546-6.045-30.722-12.962-39.701M242.514 191.004c2.709-5.453 3.885-11.477 3.4-17.42-.417-5.106.385-10.109 2.382-14.872a31.55 31.55 0 0 1 8.04-11.347c4.562-4.106 7.998-9.293 9.938-15.001 3.041-9.136 10.562-16.701 19.676-19.805 6.049-2.1 11.24-5.561 15.012-10.007 3.316-3.909 7.424-6.883 12.208-8.841 4.396-1.798 9.001-2.588 13.708-2.339 6.254.329 12.253-.858 17.339-3.431 8.762-4.504 19.705-4.542 28.5-.105 5.454 2.709 11.476 3.887 17.423 3.4 5.105-.416 10.109.384 14.874 2.382a31.56 31.56 0 0 1 11.348 8.04c4.107 4.562 9.295 7.998 15.003 9.937 9.135 3.043 16.702 10.56 19.808 19.674 2.101 6.049 5.561 11.24 10.008 15.012 3.909 3.316 6.884 7.423 8.842 12.206 1.799 4.397 2.586 9.009 2.34 13.706-.329 6.256.857 12.251 3.431 17.338 4.505 8.76 4.542 19.703.105 28.497-2.71 5.456-3.886 11.48-3.4 17.42.417 5.104-.385 10.108-2.382 14.873a31.54 31.54 0 0 1-8.039 11.346c-4.562 4.105-7.998 9.292-9.939 15.002-1.574 4.632-4.142 8.751-7.633 12.241a31.6 31.6 0 0 1-12.043 7.564c-6.049 2.101-11.24 5.561-15.012 10.007-3.841 4.527-9.526 8.214-15.252 9.913.179-6.512-.991-12.892-3.483-18.982-2.839-6.934-7.341-13.146-13.021-17.965-2.403-2.039-4.319-4.976-5.541-8.494-2.331-6.709-6.075-12.673-11.129-17.727-5.132-5.13-11.195-8.908-18.023-11.229-3.285-1.116-6.286-3.111-8.68-5.77-4.642-5.157-10.26-9.14-16.698-11.838-6.904-2.894-14.477-4.104-21.893-3.498-3.216.263-6.519-.388-9.528-1.883-12.969-6.54-29.024-6.484-41.945.154-2.534 1.282-5.607 1.923-8.918 1.866-4.696-9.398-5.8-20.457-.826-30.024M85.309 432.764c-17.785-14.559-12.303-34.915-3.288-60.014 16.973-48.557-68.6-42.581-67.018-85.98.089-14.006 11.645-27.246 34.376-39.415 5.458 10.516 15.176 18.896 26.432 22.653 3.285 1.116 6.286 3.111 8.68 5.77 4.641 5.156 10.259 9.139 16.698 11.838 6.904 2.894 14.477 4.103 21.894 3.498 3.22-.266 6.518.388 9.528 1.884a46.3 46.3 0 0 0 16.594 4.684 47 47 0 0 0-3.432 21.729c.264 3.223-.388 6.517-1.883 9.526-6.54 12.966-6.485 29.026.154 41.942 1.393 2.752 2.027 6.134 1.837 9.779-.854 14.333 5.474 28.906 16.457 38.138 2.403 2.039 4.319 4.975 5.541 8.493a46.7 46.7 0 0 0 3.224 7.247c-52.525 13.217-75.635 6.543-85.794-1.772m261.962 8.312c-6.049 2.101-11.24 5.561-15.012 10.007-3.316 3.909-7.424 6.883-12.208 8.841-4.397 1.799-9.015 2.587-13.709 2.339-6.259-.328-12.253.858-17.338 3.431-8.763 4.504-19.705 4.541-28.501.105-5.457-2.707-11.448-3.884-17.422-3.4-5.104.417-10.11-.384-14.874-2.381-4.382-1.837-8.2-4.542-11.348-8.041-4.105-4.56-9.294-7.996-15.004-9.937a31.4 31.4 0 0 1-11.054-6.504 7.48 7.48 0 0 0-3.173-3.301 31.4 31.4 0 0 1-5.579-9.869c-2.101-6.049-5.562-11.24-10.008-15.011-3.909-3.316-6.884-7.423-8.842-12.208a31.6 31.6 0 0 1-2.34-13.706c.328-6.257-.858-12.252-3.432-17.337-4.504-8.759-4.541-19.703-.104-28.496 2.709-5.453 3.885-11.477 3.4-17.42-.417-5.106.384-10.11 2.382-14.873a31.55 31.55 0 0 1 8.04-11.347c4.562-4.105 7.998-9.293 9.938-15.002 3.041-9.136 10.562-16.701 19.676-19.805 6.049-2.1 11.24-5.561 15.012-10.007 3.316-3.909 7.424-6.883 12.208-8.841 4.411-1.805 9.037-2.589 13.708-2.339 6.257.33 12.252-.858 17.339-3.431 8.763-4.504 19.706-4.542 28.501-.104 5.454 2.708 11.475 3.883 17.422 3.399 5.106-.417 10.109.384 14.873 2.382a31.55 31.55 0 0 1 11.349 8.04c4.106 4.561 9.295 7.998 15.003 9.937 9.135 3.043 16.702 10.56 19.808 19.674 2.101 6.049 5.561 11.24 10.008 15.012 3.909 3.316 6.884 7.423 8.842 12.207 1.799 4.397 2.586 9.009 2.34 13.706-.329 6.255.857 12.25 3.431 17.338 4.505 8.76 4.542 19.703.105 28.497-2.71 5.456-3.886 11.48-3.4 17.42.417 5.104-.385 10.108-2.382 14.873a31.54 31.54 0 0 1-8.039 11.346c-4.562 4.105-7.998 9.292-9.939 15.002a31.9 31.9 0 0 1-7.634 12.242c-3.439 3.437-7.491 5.982-12.043 7.562"/><path d="M82.128 152.135c9.652 0 9.668-15 0-15-9.652 0-9.668 15 0 15M203.788 118.19c-9.652 0-9.668 15 0 15 9.652 0 9.668-15 0-15M74.15 198.003c9.652 0 9.668-15 0-15-9.652 0-9.668 15 0 15M394.256 147.15c9.652 0 9.668-15 0-15-9.652 0-9.668 15 0 15M443.119 239.882c9.652 0 9.668-15 0-15-9.651 0-9.667 15 0 15M210.86 371.556c-9.652 0-9.668 15 0 15 9.652 0 9.667-15 0-15M327.663 362.582c-9.652 0-9.668 15 0 15 9.652 0 9.668-15 0-15M289.187 282.731c-8.971-9.747-23.454-12.294-35.611-5.45a7.5 7.5 0 0 0-2.855 10.215 7.5 7.5 0 0 0 10.215 2.855c6.915-3.892 15.383-1.526 19.277 5.389a7.5 7.5 0 0 0 10.215 2.855c11.144-6.275 24.79-2.461 31.065 8.684 5.077 9.011 17.616.712 13.07-7.36-9.277-16.476-28.266-23.286-45.376-17.188M133.253 220.039a7.5 7.5 0 0 0 7.236-5.55c2.066-7.662 9.686-12.049 17.351-9.982a7.5 7.5 0 0 0 9.192-5.29 7.5 7.5 0 0 0-5.289-9.193c-15.788-4.252-31.481 4.778-35.736 20.561-1.184 4.393 2.798 9.454 7.246 9.454"/></svg>