<svg xmlns="http://www.w3.org/2000/svg" width="512" height="512" viewBox="0 0 512.698 512.698"><path fill="#4fc123" d="M335.486 460.405c-57.744-57.838-42.089-167.292-42.089-167.292s109.277-15.68 167.021 42.158 42.089 167.292 42.089 167.292-109.277 15.68-167.021-42.158"/><path fill="#4fc123" d="M417.498 173.459c-21.136 79.008-123.6 120.156-123.6 120.156s-68.196-86.95-47.06-165.958 123.6-120.156 123.6-120.156 68.196 86.95 47.06 165.958M128.208 246.478c78.88-21.17 165.689 47.137 165.689 47.137s-41.081 102.63-119.961 123.8S8.247 370.279 8.247 370.279s41.081-102.631 119.961-123.801"/><path fill="#97da7b" d="M271.655 208.64c28.931 28.978 21.088 83.817 21.088 83.817s-54.75 7.856-83.681-21.122-21.088-83.817-21.088-83.817 54.75-7.856 83.681 21.122"/><path fill="#80d261" d="M271.655 208.64c-28.931-28.978-83.682-21.122-83.682-21.122s-.042.294-.109.85c15.193 2.517 31.733 8.196 43.79 20.272 26.814 26.857 22.039 75.928 21.196 82.967 21.265 3.523 39.891.85 39.891.85s7.845-54.839-21.086-83.817"/><path fill="#97da7b" d="M230.565 352.407c10.59-39.585 61.926-60.201 61.926-60.201s34.168 43.564 23.578 83.149-61.926 60.201-61.926 60.201-34.168-43.565-23.578-83.149"/><path fill="#80d261" d="M292.491 292.206s-14.196 5.701-29.198 16.863c8.96 16.307 19.261 42.042 12.776 66.285-5.021 18.769-19.202 33.273-32.729 43.337 5.67 10.32 10.802 16.863 10.802 16.863s51.337-20.616 61.926-60.201c10.591-39.583-23.577-83.147-23.577-83.147"/><path fill="#97da7b" d="M375.506 315.822c-39.521 10.607-83.014-23.616-83.014-23.616s20.582-51.42 60.103-62.027 83.014 23.616 83.014 23.616-20.583 51.421-60.103 62.027"/><path fill="#80d261" d="M352.595 230.179c-4.935 1.324-9.574 3.285-13.915 5.703 30.427 4.105 56.929 24.959 56.929 24.959s-15.763 39.381-46.188 56.324c8.552 1.154 17.414.985 26.085-1.342 39.521-10.607 60.103-62.027 60.103-62.027s-43.494-34.224-83.014-23.617"/><path d="M510.582 439.892c-7.765-69.94-33.037-116.345-92.815-140.661 16.95-18.513 25.656-39.831 26.219-41.238a7.5 7.5 0 0 0-2.325-8.681c-1.195-.941-19.517-15.155-43.582-22.677 12.966-16.308 21.919-33.502 26.664-51.239 9.097-34.005 3.556-74.689-16.024-117.655-14.61-32.059-31.661-53.953-32.38-54.869A7.5 7.5 0 0 0 367.643.54c-.879.353-21.807 8.833-46.952 25.475-8.086 5.352.189 17.855 8.279 12.509 16.557-10.958 31.407-18.279 38.976-21.745 28.339 39.232 79.294 136.695 13.748 206.105-9.621-1.357-19.689-1.206-29.628 1.462-15.681 4.209-28.511 14.005-38.514 24.823l13.622-50.92c11.165.527 22.26-4.188 30.823-11.114 11.461-9.269 20.14-23.224 24.438-39.293 2.506-9.368-11.985-13.242-14.49-3.876-3.485 13.028-10.368 24.217-19.381 31.507-5.601 4.53-11.557 7.141-17.355 7.692l15.56-58.166c16.259-1.183 27.981-16.504 31.89-31.113 2.506-9.368-11.984-13.244-14.49-3.877-1.925 7.192-6.217 14.642-12.939 18.317l11.781-44.039a7.5 7.5 0 0 0-5.307-9.184 7.5 7.5 0 0 0-9.184 5.307l-12.083 45.168c-4.104-5.294-5.538-14.538-3.048-23.843 2.506-9.368-11.984-13.245-14.49-3.877-4.974 18.591.789 36.33 13.263 43.703L316.6 179.734c-13.511-8.404-19.5-30.418-13.415-53.162 2.506-9.368-11.984-13.245-14.49-3.877-4.299 16.068-3.749 32.498 1.548 46.262 4.651 12.084 12.466 20.986 22.375 25.665l-13.559 50.683c-5.091-24.975-20.868-47.597-45.877-56.894-9.872-51.57 5.566-89.806 45.702-126.688 7.187-6.51-2.883-17.627-10.07-11.117-25.508 23.107-42.067 48.379-49.219 75.113-4.746 17.739-5.575 37.113-2.485 57.73-24.596-5.538-47.563-2.406-49.068-2.19a7.5 7.5 0 0 0-6.359 6.362c-.215 1.506-3.34 24.493 2.182 49.116-64.2-9.21-109.533 18.313-151.327 75.233-20.416 28.703-30.821 54.44-31.254 55.521a7.5 7.5 0 0 0 2.325 8.681c62.975 49.567 155.553 75.907 223.416 21.79 7.51 24.091 21.692 42.436 22.631 43.633q3.96 4.118 8.695 2.332c.189-.076 4.704-1.898 11.293-5.424 8.551-4.574 1.474-17.801-7.076-13.226a138 138 0 0 1-4.492 2.301c-29.972-45.01-31.089-88.361 24.25-119.695l-15.751 58.879c-2.437 9.111 11.957 13.348 14.49 3.876l15.754-58.89c8.605 14.985 19.569 40.092 13.419 63.081-3.016 11.274-10.204 22.114-21.365 32.219-7.377 6.679 3.483 17.154 10.616 10.62 7.591 19.088 17.888 35.216 30.689 48.037 42.872 42.942 115.778 52.578 173.394 44.282a7.5 7.5 0 0 0 6.359-6.362c.166-1.154 4.003-28.653.651-63.733M355.953 238.834c28.25-7.582 59.906 10.974 71.687 18.895-6.225 12.761-24.312 44.652-52.664 52.262-22.873 6.14-47.978-4.856-62.958-13.468l61.968-16.631a7.5 7.5 0 0 0 5.299-9.188 7.5 7.5 0 0 0-9.188-5.3L308.15 282.03c8.675-14.965 24.926-37.057 47.803-43.196m-159.966-43.272c54.119-3.42 91.893 17.303 91.335 80.881l-40.524-40.589c-7.224-6.8-17.401 3.371-10.615 10.598l40.576 40.641c-63.733.628-84.19-37.697-80.772-91.531m28.748 156.317c-2.663 9.955-2.812 20.04-1.455 29.677-62.424 54.414-144.62 29.618-205.757-13.766 9.527-20.808 48.261-96.792 112.63-114.068 17.696-4.749 37.413-5.054 58.65-.913 3.637 9.032 8.802 17.698 16.083 24.991 11.486 11.505 26.384 17.738 40.748 21.003l-50.357 13.515c-4.73-9.69-13.523-17.336-25.39-21.917-13.747-5.308-30.155-5.859-46.208-1.552a7.5 7.5 0 0 0-5.3 9.188c1.075 4 5.189 6.375 9.188 5.299 13.001-3.49 26.11-3.114 36.917 1.058 7.058 2.725 12.479 6.85 15.828 11.94l-58.073 15.586c-3.255-5.164-8.433-9.314-14.938-11.825-8.483-3.277-18.564-3.628-28.388-.993-9.365 2.514-5.477 17.005 3.889 14.487 6.968-1.871 16.978-1.731 23.228 2.68l-44.97 12.069c-9.242 2.481-5.069 16.891 3.889 14.487l44.757-12.012c-2.844 5.856-9.845 11.266-18.662 13.632-9.242 2.481-5.069 16.891 3.889 14.487 18.207-4.886 30.544-18.318 31.145-32.513l58.042-15.577c-1.033 15.653-16.902 31.399-39.205 37.385-9.242 2.481-5.07 16.891 3.889 14.487 16.048-4.307 29.982-13.001 39.237-24.481 7.918-9.823 11.718-20.741 11.061-31.412l50.44-13.537c-10.811 10.021-20.603 22.88-24.807 38.595m270.973 143.893c-22.771 2.142-107.805 6.52-154.914-40.666-12.795-12.815-22.835-29.521-29.861-49.676 6.685-8.476 11.307-17.419 13.796-26.725 4.2-15.698 2.147-31.719-2.203-45.799l34.456 34.512c-5.958 8.931-8.147 20.336-6.183 32.864 2.283 14.574 10.01 29.079 21.755 40.843 6.852 6.864 17.466-3.736 10.615-10.598-16.379-16.406-22.252-38.07-15.237-52.142l42.496 42.565c-6.662 12.601-2.705 30.485 10.666 43.877 6.852 6.864 17.466-3.736 10.615-10.598-6.514-6.525-9.882-14.806-9.351-21.33l34.756 34.812c6.852 6.864 17.466-3.736 10.615-10.598L432.972 422.3c7.949-.64 15.842 3.904 21.262 9.333 6.851 6.863 17.467-3.735 10.615-10.598-12.139-11.964-29.075-17.882-43.79-10.667l-42.518-42.587c17.793-7.682 37.332 1.058 52.028 15.232 6.852 6.862 17.467-3.736 10.615-10.598-20.27-20.086-50.022-30.296-73.6-15.61l-34.486-34.542c24.864 8.207 52.118 5.413 72.446-11.592 90.786 27.497 95.04 137.764 90.164 185.101"/></svg>