<svg xmlns="http://www.w3.org/2000/svg" width="512" height="512" viewBox="0 0 511.897 511.897"><path fill="#fee97d" d="m62.473 129.018 192.675 375.481 207.879-403.951s-72.019-71.579-201.498-72.465S62.473 129.018 62.473 129.018"/><path fill="#fee45a" d="M261.529 28.083a241 241 0 0 0-20.152.7c116.969 7.481 181.65 71.765 181.65 71.765L235.177 465.58l19.971 38.92 207.879-403.951c0-.001-72.019-71.58-201.498-72.466"/><g fill="#fd4755"><path d="M96.09 194.531c10.903-9.833 25.37-15.777 41.208-15.669 33.648.23 60.738 27.694 60.508 61.342-.199 29.048-20.693 53.208-47.942 59.123zM287.444 441.784c-25.344-7.52-43.751-31.072-43.561-58.833.23-33.648 27.694-60.738 61.342-60.508a60.66 60.66 0 0 1 36.986 12.827z"/><circle cx="299.808" cy="160.09" r="60.926"/></g><path fill="#c86d36" d="M258.549 7.507c-80.548-.551-156.661 29.435-215.123 84.59l19.029 36.937c23 4.384 41.871-5.737 51-16.95 13.225-16.242 17.649-28.546 34.14-41.37 20.527-15.964 50.212-1.867 73.194-7.963 22.207-5.891 40.627-22 68.667-7.333 13.064 6.833 21.795 20 53.468 22.667 18.663 1.571 38.977-11.333 63.867 16 14.087 15.47 20.524 25.401 41.903 34.316.066.027.101.101.151.151l19.625-37.353C411.296 37.667 337.239 8.045 258.549 7.507"/><g fill="#ac5e2e"><path d="M258.549 7.507a317 317 0 0 0-22.169.623c65.321 4.127 126.734 28.42 177.018 69.829 8.954 7.373 11.509 20.019 6.115 30.287 7.549 8.01 15.144 14.301 29.181 20.154.066.027.101.101.151.151l19.625-37.353C411.296 37.667 337.239 8.045 258.549 7.507M330.873 76.388c3.616.741 7.608 1.322 12.051 1.696l.293.023c-4.239-1.248-8.347-1.693-12.344-1.719"/></g><path d="M299.34 228.514c37.305.225 68.637-30.66 68.893-67.956.255-37.301-30.742-68.638-67.957-68.893-90.768 3.848-91.465 131.82-.936 136.849m-52.956-68.79c.198-29.027 24.765-53.284 53.79-53.059 29.026.197 53.259 24.756 53.059 53.789-.199 29.028-24.764 53.285-53.791 53.06-29.026-.197-53.258-24.757-53.058-53.79M303.611 364.138c9.652 0 9.668-15 0-15-9.652 0-9.668 15 0 15M276.563 376.771c-9.652 0-9.668 15 0 15 9.651 0 9.667-15 0-15M157.869 220.638c-9.652 0-9.668 15 0 15 9.651 0 9.667-15 0-15"/><path d="M280.36 164.38c9.652 0 9.668-15 0-15-9.652 0-9.667 15 0 15M311.252 135.814c9.652 0 9.668-15 0-15-9.652 0-9.668 15 0 15M325.279 188.669c9.652 0 9.668-15 0-15-9.651 0-9.667 15 0 15"/><path d="M473.596 85.723C415.144 30.997 338.791.556 258.601.007c-50.14-.33-98.142 10.613-142.629 32.565-8.695 4.291-2.058 17.745 6.638 13.451 42.373-20.909 88.083-31.343 135.889-31.017 74.504.51 145.526 28.094 200.649 77.809l-13.613 25.911c-12.302-6.131-18.24-12.848-27.298-23.091-17.696-20.018-34.614-28.799-61.249-25.749-19.771 2.257-37.359-2.874-53.399-14.268-22.7-16.12-44.204-15.59-69.226-5.607-14.836 5.921-27.013 7.332-42.87 6.093-15.899-1.244-33.919-2.651-48.501 8.688-27.92 20.474-31.201 61.719-75.611 57.424L52.703 93.728A307 307 0 0 1 90.03 64.714c8.093-5.342-.171-17.864-8.263-12.52A322 322 0 0 0 38.28 86.642a7.5 7.5 0 0 0-1.52 8.89l211.716 412.392c2.712 5.285 10.614 5.308 13.342.008L475.109 94.686a7.5 7.5 0 0 0-1.513-8.963m-368.058 110.79c9.176-6.668 20.237-10.268 31.71-10.152 14.27.098 27.648 5.747 37.669 15.906 10.022 10.16 15.487 23.614 15.389 37.884-.156 22.875-15.218 43.206-36.545 50.337zm98.152 170.423q-.987 6.271-6.675 7.847l-7.817-15.233.009-.008a8.75 8.75 0 0 1 6.407-2.077q7.96 1.39 8.076 9.471m51.468 121.154-51.225-99.827c23.056-9.793 17.581-43.265-7.13-45.75-5.168-.414-10.215.838-14.524 3.552l-21.609-42.112a68.83 68.83 0 0 0 29.104-20.753c36.451-43.683 4.531-111.877-52.423-111.839-13.887-.096-27.357 4.004-38.723 11.684l-23.338-45.48c20.18-.583 35.836-10.74 43.982-20.746 10.997-13.505 18.936-29.303 32.929-40.186 9.996-7.773 23.659-6.705 38.124-5.575 18.115 1.416 32.572-.324 49.597-7.114 20.311-8.103 36.514-9.21 54.981 3.903 19.09 13.56 40.266 19.634 63.792 16.941 21.811-2.496 33.853 4.436 48.306 20.782 9.197 10.402 16.722 18.909 31.44 26.366L385.92 233.992c-15.135-12.788-39.152-1.636-38.986 18.341 0 11.018 7.526 20.311 17.707 23.01l-25.208 48.985c-13.621-8.031-30.14-11.017-45.723-8.471-9.572 1.564-7.152 16.35 2.418 14.805 12.531-2.046 25.575.407 36.426 7.034l-48.784 94.798c-19.482-8.37-32.534-27.915-32.386-49.489.093-13.572 5.288-26.479 14.628-36.346 6.667-7.042-4.226-17.354-10.893-10.312-32.543 33.338-20.533 91.204 21.774 109.509zm116.841-227.046c-4.786.682-10.065-3.843-10.065-8.711.02-9.181 12.465-12.126 16.627-4.039z"/><path d="M181.508 104.513c-13.124 0-23.8 10.677-23.8 23.801 1.197 31.53 46.408 31.522 47.6 0-.001-13.124-10.677-23.801-23.8-23.801m0 32.601c-4.853 0-8.8-3.947-8.8-8.8.413-11.648 17.188-11.645 17.6 0-.001 4.852-3.948 8.8-8.8 8.8M270.25 266.289c0-13.123-10.677-23.8-23.8-23.8-31.531 1.197-31.522 46.408 0 47.6 13.124-.001 23.8-10.677 23.8-23.8m-32.6 0c0-4.853 3.948-8.8 8.8-8.8 11.647.413 11.644 17.188 0 17.6-4.852-.001-8.8-3.948-8.8-8.8"/></svg>