<svg xmlns="http://www.w3.org/2000/svg" width="512" height="512"><path fill="#4fc123" d="M145.183 138.188c-14.818-16.044-12.377-42.452-12.377-42.452s26.466-.396 41.284 15.648 12.377 42.452 12.377 42.452-26.465.396-41.284-15.648"/><path fill="#fed402" d="M23.138 324.316c0-100.873 80.941-182.647 180.786-182.647S384.71 223.443 384.71 324.316z"/><path fill="#fee97d" d="M59.644 324.316c0-80.375 64.724-145.765 144.28-145.765s144.28 65.39 144.28 145.765z"/><path fill="#fed402" d="M96.15 324.316c0-60.039 48.347-108.883 107.774-108.883s107.774 48.845 107.774 108.883z"/><path fill="#fee97d" d="M132.656 324.316c0-39.702 31.971-72.001 71.268-72.001s71.268 32.3 71.268 72.001z"/><path fill="#766e6e" d="M290.134 97.796a61.8 61.8 0 0 0-15.483-18.785c-26.418-21.539-65.118-17.363-86.438 9.327s-17.186 65.788 9.232 87.327c6.536 5.329 13.825 9.084 21.415 11.313l101.059 38.223c9.499 4.326 21.047 1.838 27.897-6.737 6.858-8.585 6.818-20.533.604-29.001z"/><path fill="#5b5555" d="m348.421 189.463-58.287-91.666a61.8 61.8 0 0 0-15.483-18.785c-17.663-14.401-40.816-17.307-60.594-9.674a61.3 61.3 0 0 1 16.594 9.674 61.8 61.8 0 0 1 15.483 18.785l58.287 91.666c6.214 8.469 6.254 20.416-.604 29.001a22 22 0 0 1-.405.493l16.508 6.244c9.499 4.326 21.047 1.838 27.897-6.737 6.858-8.585 6.818-20.533.604-29.001"/><path fill="#fe9738" d="M251.18 106.674c10.474 11.677 22.306 34.868 29.578 50.31 2.915 6.19-2.714 12.96-9.26 11.157-15.799-4.35-39.443-11.731-53.296-20.181-17.825-10.872-12.768-28.47-5.425-37.663s24.422-19.211 38.403-3.623"/><path fill="#fee97d" d="M201.966 324.316c0-80.375 64.724-145.765 144.28-145.765s144.28 65.39 144.28 145.765z"/><path fill="#fed402" d="M238.473 324.316c0-60.039 48.347-108.883 107.774-108.883s107.774 48.845 107.774 108.883z"/><path fill="#fee97d" d="M274.979 324.316c0-39.702 31.971-72.001 71.268-72.001s71.268 32.3 71.268 72.001z"/><path fill="#fed402" d="M311.485 324.316c0-19.365 15.594-35.119 34.762-35.119s34.762 15.755 34.762 35.119"/><path fill="#766e6e" d="M56.932 308.816a58.8 58.8 0 0 0 5.547 22.309c13.708 29.157 48.205 41.593 77.052 27.777s41.12-48.654 27.413-77.811c-3.391-7.214-8.056-13.404-13.592-18.427L83.09 188.559c-6.308-7.587-17.104-10.246-26.372-5.807-9.279 4.444-14.066 14.585-12.215 24.326z"/><path fill="#5b5555" d="M166.944 281.092c-3.391-7.214-8.056-13.404-13.592-18.427L83.09 188.559c-6.308-7.587-17.104-10.246-26.372-5.807-7.135 3.417-11.614 10.203-12.461 17.585l59.094 62.328c5.536 5.022 10.201 11.213 13.592 18.427 13.67 29.078 1.501 63.805-27.178 77.698 15.183 7.339 33.385 7.959 49.766.113 28.847-13.817 41.12-48.654 27.413-77.811"/><path fill="#fe9738" d="M93.476 316.443c-4.111-14.026-4.777-38.228-4.711-54.097.026-6.361 7.429-9.728 12.186-5.556 11.482 10.069 28.319 25.866 36.542 38.57 10.58 16.346-.654 28.997-10.455 33.691s-28.074 6.114-33.562-12.608"/><path fill="#4fc123" d="M411.329 210.953c-14.273-16.551-10.942-42.85-10.942-42.85s26.472.536 40.745 17.087 10.942 42.85 10.942 42.85-26.472-.536-40.745-17.087"/><path fill="#4fc123" d="M457.368 183.466c10.849-18.973 36.755-24.596 36.755-24.596s8.316 25.137-2.533 44.11-36.755 24.596-36.755 24.596-8.316-25.137 2.533-44.11"/><path fill="#766e6e" d="M364.971 273.576c-6.065 4.358-11.39 9.98-15.561 16.768-16.835 27.4-8.476 63.419 18.668 80.451 27.145 17.032 62.797 8.626 79.632-18.774a58.5 58.5 0 0 0 7.966-21.503l23.576-99.723c2.894-9.458-.748-20.063-9.469-25.535-8.732-5.479-19.768-4.064-26.872 2.773z"/><path fill="#5b5555" d="M469.783 205.261c-8.732-5.479-19.768-4.064-26.872 2.773l-5.753 4.838c3.121 5.347 3.946 11.87 2.094 17.924l-23.576 99.723a58.6 58.6 0 0 1-7.966 21.503c-7.063 11.496-17.438 19.648-29.108 23.981 25.239 9.427 54.377-.005 69.108-23.981a58.5 58.5 0 0 0 7.966-21.503l23.575-99.723c2.895-9.458-.747-20.063-9.468-25.535"/><path fill="#fe9738" d="M378.443 308.734c9.444-11.072 29.228-24.718 42.472-33.239 5.309-3.416 12.126 1.052 11.233 7.347-2.154 15.193-6.171 38.03-12.285 51.881-7.867 17.82-24.49 15.116-33.712 9.33-9.225-5.788-20.315-20.539-7.708-35.319"/><path fill="#97da7b" d="M173.778 310.513c8.782-20.909 34.764-29.892 34.764-29.892s11.744 24.916 2.962 45.825-34.764 29.892-34.764 29.892-11.744-24.916-2.962-45.825"/><path fill="#f9f3f1" d="M504.5 323.379c0 67.779-52.28 123.381-110.964 123.381H118.464C59.78 446.76 7.5 385.07 7.5 323.379z"/><path fill="#f3eae6" d="M464.5 323.379c0 67.779-52.28 123.381-110.964 123.381h40c58.684 0 110.964-55.602 110.964-123.381z"/><path d="M256.764 101.666c-33.564-34.707-83.654 26.652-42.468 52.697 14.34 8.746 37.939 16.252 55.211 21.008 12.338 3.402 23.529-9.919 18.037-21.583-8.054-17.101-19.931-40.025-30.78-52.122m17.139 59.106c-.172.205-.273.176-.414.139-23.105-6.363-41.354-13.236-51.383-19.354-22.453-13.012 6.16-48.824 23.491-29.875 7.519 8.383 17.596 25.605 28.375 48.496.066.139.155.328-.069.594"/><path d="M504.5 315.879h-6.703c-1.17-21.343-6.808-42.401-16.445-61.368l5.147-21.77a29.9 29.9 0 0 0 .859-13.227c17.814-15.323 20.999-41.484 13.885-63.001a7.496 7.496 0 0 0-8.712-4.974c-17.434 3.788-35.79 15.091-43.44 31.628-10.559-14.499-30.982-22.565-48.707-22.565a7.5 7.5 0 0 0-7.438 6.558c-.058.459-.586 4.871-.328 11.2-15.127-4.919-31.108-7.373-47.011-7.309-10.062-15.843-20.24-31.611-30.215-47.509-5.155-8.213-17.86-.242-12.706 7.973 8.518 13.575 17.182 27.057 25.798 40.569-23.213 2.722-45.286 10.787-64.956 23.77-22.994-8.697-55.222-15.199-70.476-35.492-11.115-14.785-14.01-34.786-7.553-52.198 6.678-18.01 22.453-31.267 41.17-34.597 18.991-3.377 39.118 4.218 51.289 19.351 6.076 7.559 17.766-1.844 11.688-9.4-15.793-19.637-40.932-29.112-65.604-24.718-22.932 4.079-42.4 19.785-51.481 41.306-16.818-12.053-38.804-11.889-39.869-11.869a7.5 7.5 0 0 0-7.356 6.809c-1.596 17.249 3.317 37.576 15.952 49.89-21.121 7.513-40.797 18.824-58.175 33.527-21.175-14.89-50.6 4.494-46.027 29.754l2.777 22.731c-14.472 25.883-22.737 55.123-24.042 84.932H7.5a7.5 7.5 0 0 0-7.5 7.5c0 31.59 12.885 64.315 35.351 89.785 23.036 26.117 53.33 41.096 83.113 41.096h9.362c4.142 0 7.5-3.357 7.5-7.5s-3.358-7.5-7.5-7.5c-57.81 5.106-108.867-51.974-112.554-108.381h481.503c-1.685 54.181-48.673 109.068-103.24 108.38.001.001-225.888.001-225.888.001-4.142 0-7.5 3.357-7.5 7.5s3.358 7.5 7.5 7.5h225.889c30.324 0 60.587-14.112 83.03-38.719C499.416 390.488 512 357.757 512 323.379a7.5 7.5 0 0 0-7.5-7.5m-21.723 0h-15.933l8.695-36.78c4.068 11.815 6.491 24.112 7.238 36.78m-49.104 0c2.696-11.25 4.648-23.152 5.9-31.985 1.7-11.988-12.174-21.497-22.718-14.706-14.702 9.46-34.29 23.155-44.119 34.679-3.188 3.738-5.388 7.801-6.533 12.013H348.48a51.05 51.05 0 0 1 7.32-21.608c8.86-14.42 25.999-25.046 38.953-35.94l52.983-44.556c11.469-9.718 27.854-.117 24.216 15.296l-20.523 86.809h-17.756zm-51.227 0c9.216-14.387 28.333-24.929 42.249-33.896-1.34 9.418-3.49 22.37-6.478 33.896zm-99.425 0c1.87-14.451 8.52-27.794 19.067-38.05 16.606-16.415 41.808-22.245 63.844-14.86-6.976 5.945-14.221 11.268-19.728 18.727-20.135.02-37.453 14.68-41.383 34.182h-21.8zm-36.705 0c5.353-73.089 87.552-117.155 150.645-79.003l-17.992 15.13c-48.462-22.856-105.97 10.844-111.05 63.873zm90.955-17.619a65.9 65.9 0 0 0-3.851 17.619h-13.127c2.632-8.223 9.007-14.761 16.978-17.619m151.397-129.842c2.169 12.498 1.14 26.873-7.875 36.629-4.845-5.815-12.394-9.819-19.936-10.526 3.69-13.195 15.593-21.491 27.811-26.103m-53.216 21.669c2.324 2.695 4.243 5.935 5.735 9.672-5.548 3.912-10.591 8.832-15.78 13.196-12.93-7.683-17.527-22.221-17.834-36.506 7.875 1.351 20.274 4.82 27.879 13.638m-29.803 25.763c2.26 2.622 4.867 5.014 7.797 7.163l-4.427 3.723c-72.923-48.636-172.226 2.233-177.747 89.144h-9.396c1.748-15.188-2.964-29.544-5.318-35.542 24.256-72.768 106.384-113.193 178.549-85.171 1.901 7.062 5.134 14.412 10.542 20.683M179.781 315.879c3.709-11.472 14.166-19.829 24.509-25.16 1.911 6.217 3.962 15.786 2.452 25.16zm36.235-70.128c-19.494-3.106-39.916 1.561-56.176 12.714-5.263-5.071-10.157-10.571-15.185-15.874 23.969-18.005 56.127-24.193 85.029-16.271a156 156 0 0 0-13.668 19.431m-12.092 14.064q2.303 0 4.596.166a152 152 0 0 0-5.972 14.961c-5.306 2.294-15.561 7.451-24.245 16.087-1.719-7.328-4.813-14.603-8.887-20.922 10.242-6.674 22.262-10.292 34.508-10.292m21.738-62.246 23.611 8.93a153 153 0 0 0-8.351 7.582c-35.594-12.462-76.877-5.612-106.653 17.556l-15.013-15.835c22.815-18.213 50.844-28.651 79.915-29.669 8.204 5.258 17.459 8.02 26.491 11.436m-65.89-42.669q.35-.075.69-.182a171 171 0 0 1 11.196-2.521 68.8 68.8 0 0 0 9.404 17.178 68 68 0 0 0 2.45 3.069c-27.227 3.745-53.065 14.939-74.611 32.437l-15.036-15.859c19.388-16.141 41.814-27.733 65.907-34.122m-9.079-21.801c-7.952-8.609-9.986-21.307-10.424-29.277 7.73 1.049 19.846 3.966 27.76 12.071a71 71 0 0 0-.131 21.754q-4.425.866-8.788 1.94c-3.309-1.839-6.133-4.015-8.417-6.488m-90.735 56.418c6.381-3.056 13.125-.604 17.69 4.202l70.261 74.105c12.463 13.169 19.823 29.333 16.211 48.055h-15.927c2.307-7.86.874-16.439-4.405-24.594-8.541-13.195-25.32-29.108-37.892-40.134-9.441-8.28-24.582-1.029-24.632 11.163-.068 16.568.646 38.841 4.294 53.564H65.316c-7.005-35.887-8.933-73.409-13.368-109.71-.833-6.865 1.36-13.466 8.01-16.651m41.23 126.362c-3.685-11.486-4.859-28.564-4.921-53.221 16.629 14.606 29.027 27.659 34.93 36.777 3.893 6.014 4.038 11.533.445 16.443h-30.454zm-57.941-57.235c2.326 19.036 4.011 38.275 6.851 57.235H30.837a177.3 177.3 0 0 1 12.41-57.235"/></svg>