<svg xmlns="http://www.w3.org/2000/svg" width="512" height="512" viewBox="0 0 512.17 512.17"><path fill="#fee97d" d="M494.658 75.754c-25.437-57.2-91.308-83.647-147.125-59.073-13.985 6.157-26.011 14.933-35.783 25.528L39.318 311.214 200.27 470.161l261.984-259.776c39.389-30.499 54.089-85.869 32.404-134.631"/><ellipse cx="118.779" cy="391.747" fill="#fedf30" rx="110.413" ry="113.363" transform="rotate(-27.87 119.152 391.974)"/><path fill="#fed402" d="M121.257 470.397c-31.002 0-59.414-18.846-72.385-48.011-17.027-38.287-1.568-85.76 37.59-102.998 39.36-17.329 85.151 3.326 102.224 41.719 17.027 38.287 1.569 85.759-37.589 102.998-9.483 4.175-19.523 6.292-29.84 6.292"/><path fill="#fac600" d="M188.686 361.107c-15.7-35.305-55.685-55.61-92.621-45.173 22.694 6.222 42.603 22.643 52.621 45.173 17.027 38.286 1.569 85.759-37.589 102.998a75 75 0 0 1-10.009 3.586 76.6 76.6 0 0 0 20.169 2.706c10.318 0 20.357-2.117 29.84-6.292 39.158-17.238 54.616-64.711 37.589-102.998"/><path d="M501.51 72.706c-27.071-60.872-97.5-89.084-157-62.89-14.57 6.415-27.405 15.558-38.153 27.177L37.245 302.72c-12.61 11.821-22.52 26.479-28.976 43.181-45.356 122.316 106.45 223.588 197.859 129.011l226.903-224.991c6.885-6.828-3.676-17.478-10.562-10.65L232.71 427.432a120 120 0 0 0 4.324-42.935q.17-.15.333-.313l32.587-32.587c6.856-6.859-3.748-17.462-10.607-10.607l-25.207 25.207a125.4 125.4 0 0 0-12.028-31.257S440.448 116.724 484.729 72.443a110 110 0 0 1 3.076 6.359c3.74 8.412 6.373 17.084 7.886 25.876q-.223.19-.433.4L296.763 303.574c-6.856 6.859 3.748 17.462 10.607 10.607l189.834-189.834c-.588 34.168-17.024 57.712-40.231 80.711l-6.334 6.28c-6.886 6.828 3.674 17.479 10.561 10.652l6.015-5.963c42.514-32.5 56.972-94.603 34.295-143.321M215.297 432.185c-4.718 12.208-11.549 23.16-20.106 32.45-19.049 20.322-45.875 32.337-73.851 32.335-40.187-.002-79.048-23.917-96.773-63.775-31.212-66.109 17.649-147.389 91.655-146.671 71.883-1.136 126.719 77.096 99.075 145.661m-1.349-110.175a122.3 122.3 0 0 0-23.093-24.183l191.2-191.199c6.856-6.859-3.748-17.462-10.607-10.607L178.357 289.112a121.3 121.3 0 0 0-31.828-13.596l83.633-83.632c6.857-6.858-3.749-17.463-10.606-10.607l-90.918 90.918c-14.035-1.503-28.415-.489-42.478 3.308L317.02 47.548q.125-.123.244-.252c9.365-10.156 20.566-18.146 33.292-23.749a100.1 100.1 0 0 1 35.107-8.377L260.227 140.603c-6.856 6.859 3.748 17.462 10.607 10.607l134.36-134.359q.354-.355.651-.743c11.935 1.748 23.525 5.583 34.228 11.287L406.308 61.16c-6.856 6.859 3.748 17.462 10.607 10.607l36.179-36.179a107.4 107.4 0 0 1 23.531 23.743z"/><path d="M148.843 312.441c-27.453-11.569-59.908-7.836-83.259 10.932-7.559 6.075 1.838 17.764 9.397 11.691 19.176-15.414 45.542-18.281 68.037-8.8 17.177 7.238 31.325 21.049 38.814 37.891 20.308 44.014-10.58 99.023-60.577 98.742-48.903.758-85.331-52.749-67.096-98.693 3.399-9.082-10.651-14.338-14.049-5.256-8.032 21.466-7.336 45.699 1.908 66.486 29.79 68.424 127.506 70.479 155.115-.006 8.382-21.686 7.801-46.241-1.595-67.369-9.021-20.288-26.041-36.915-46.695-45.618"/></svg>