<svg xmlns="http://www.w3.org/2000/svg" width="512" height="512" viewBox="0 0 512.107 512.107"><path fill="#dc8758" d="M182.047 44.28h-50.324V18.191c0-5.904 4.786-10.691 10.691-10.691h28.943c5.904 0 10.691 4.786 10.691 10.691V44.28z"/><path fill="#f9f3f1" d="m201.545 178.166-19.499-14.792V78.413h4.399c9.469 0 17.145-7.641 17.145-17.066s-7.676-17.066-17.145-17.066h-59.122c-9.469 0-17.145 7.641-17.145 17.066s7.676 17.066 17.145 17.066h4.399v84.961l-19.499 14.792c-15.18 11.516-24.09 29.425-24.09 48.424v245.911c0 17.673 14.392 31.999 32.146 31.999h73.209c17.754 0 32.146-14.327 32.146-31.999V226.59c.001-18.999-8.909-36.908-24.089-48.424"/><path fill="#fee97d" d="m201.545 178.166-19.499-14.792h-50.324l-19.499 14.792c-15.18 11.516-24.09 29.425-24.09 48.424v245.911c0 17.673 14.392 31.999 32.146 31.999h73.209c17.754 0 32.146-14.327 32.146-31.999V226.59c.001-18.999-8.909-36.908-24.089-48.424"/><path fill="#fee97d" d="m201.545 178.166-19.499-14.792h-50.324l-19.499 14.792c-15.18 11.516-24.09 29.425-24.09 48.424v245.911c0 17.673 14.392 31.999 32.146 31.999h73.209c17.754 0 32.146-14.327 32.146-31.999V226.59c.001-18.999-8.909-36.908-24.089-48.424"/><path fill="#fee45a" d="m201.545 178.166-19.499-14.792h-40l19.499 14.792c15.18 11.516 24.09 29.425 24.09 48.424V472.5c0 17.673-14.392 32-32.146 32h40c17.754 0 32.146-14.327 32.146-32V226.59c0-18.999-8.91-36.908-24.09-48.424"/><path fill="#f9f3f1" d="M88.134 250.143h57.863v181.825H88.134z"/><path fill="#fed402" d="M412.981 347.103c12.382-11.014 14.808-28.467 5.419-38.981s-27.037-10.11-39.418.904q-.62.551-1.205 1.123c-35.669-19.159-87.087-10.619-126.082 24.07s-53.389 84.693-38.41 122.257q-.636.516-1.256 1.066c-12.381 11.014-14.808 28.467-5.419 38.981s27.037 10.11 39.418-.904q.62-.551 1.205-1.123c35.669 19.159 87.087 10.619 126.082-24.07s53.389-84.693 38.41-122.257q.636-.515 1.256-1.066"/><path fill="#fac600" d="M412.981 347.103c12.382-11.014 14.808-28.467 5.419-38.981-9.362-10.484-26.935-10.112-39.311.81 8.571 10.582 5.961 27.435-6.108 38.171q-.62.551-1.256 1.066c14.979 37.564.585 87.569-38.41 122.257-19.323 17.189-41.695 27.957-63.691 32.116 32.808 6.802 72.28-4.174 103.691-32.116 38.995-34.688 53.389-84.693 38.41-122.257q.636-.515 1.256-1.066"/><path d="M423.995 303.127c-11.44-12.812-32.056-13.417-47.32-1.899-18.101-8.322-39.912-10.678-62.047-6.613-24.484 4.498-47.97 16.256-67.917 34.001a153 153 0 0 0-13.576 13.691V226.59c0-21.211-10.115-41.547-27.057-54.399l-16.531-12.541V85.72c28.542-4.22 28.521-44.537 0-48.746V18.191C189.547 8.16 181.387 0 171.355 0h-28.942c-10.031 0-18.191 8.16-18.191 18.191v18.783c-28.542 4.22-28.521 44.536 0 48.746v73.93l-16.53 12.541c-16.942 12.853-27.058 33.188-27.058 54.399v50.962c.3 9.902 14.693 9.922 15 0v-19.908h42.863v166.824H95.634V317.471c0-4.143-3.357-7.5-7.5-7.5s-7.5 3.357-7.5 7.5v155.03c0 21.78 17.785 39.499 39.646 39.499h73.208a39.8 39.8 0 0 0 16.605-3.624c11.48 5.602 26.458 3.937 38.243-4.958 43.647 20.069 95.737 3.061 129.964-27.389 19.757-17.574 34.084-39.306 41.433-62.845a7.5 7.5 0 1 0-14.319-4.471c-6.537 20.941-19.36 40.343-37.084 56.108-35.575 31.648-83.913 41.134-117.548 23.066-3.571-1.92-7.08-.233-9.739 2.127-9.279 8.253-22.217 8.931-28.838 1.513-7.581-8.49-2.634-21.762 4.814-28.387 2.658-2.37 4.736-5.671 3.232-9.443-31.282-80.12 78.123-177.101 153.976-136.941 3.57 1.917 7.081.234 9.74-2.127 9.277-8.254 22.215-8.932 28.838-1.513 7.577 8.485 2.639 21.757-4.807 28.381-2.662 2.369-4.745 5.675-3.24 9.449 2.681 6.722 4.357 14.053 4.983 21.788.334 4.129 3.956 7.199 8.08 6.871a7.5 7.5 0 0 0 6.871-8.08c-.599-7.401-2.017-14.522-4.223-21.237 11.886-12.446 15.73-33.492 3.526-47.161M142.413 15h28.942a3.195 3.195 0 0 1 3.191 3.191V36.78h-35.325V18.191A3.196 3.196 0 0 1 142.413 15m-24.734 46.347c0-5.275 4.326-9.566 9.645-9.566h59.122c5.318 0 9.645 4.291 9.645 9.566s-4.326 9.566-9.645 9.566h-24.203c-9.91.301-9.914 14.697 0 15h12.305v69.961h-35.325V78.413c0-4.143-3.357-7.5-7.5-7.5h-4.398c-5.32 0-9.646-4.291-9.646-9.566m87.4 330.724c-6.584 21.479-6.742 43.379-.538 62.284-10.411 10.904-14.927 28.689-7.034 42.318a25 25 0 0 1-4.019.327H120.28c-13.59 0-24.646-10.99-24.646-24.499v-33.033h50.363c4.143 0 7.5-3.357 7.5-7.5V250.144c0-4.143-3.357-7.5-7.5-7.5H95.634V226.59c0-16.547 7.896-32.415 21.123-42.448l17.488-13.268h45.278l17.488 13.268c13.227 10.033 21.123 25.901 21.123 42.448v136.294c-5.56 9.276-9.953 19.066-13.055 29.187"/><path d="M274.843 473.622c9.652 0 9.668-15 0-15-9.652 0-9.668 15 0 15M327.037 345.118c9.652 0 9.668-15 0-15-9.652 0-9.668 15 0 15M370.184 417.358c9.652 0 9.668-15 0-15-9.652 0-9.667 15 0 15"/></svg>