<svg xmlns="http://www.w3.org/2000/svg" width="512" height="512" viewBox="0 0 511.655 511.655"><path fill="#4fc123" d="M176.595 73.816c-6.823-21.096 6.672-44.393 6.672-44.393s24.559 10.906 31.382 32.001c6.823 21.096-6.672 44.393-6.672 44.393s-24.558-10.905-31.382-32.001"/><path fill="#f9f3f1" d="m493.541 391.063-69.217-241.41H87.064L17.329 392.869c-1.735 4.706-2.634 9.523-2.634 14.424 0 53.713 107.942 97.256 241.094 97.256s241.094-43.543 241.094-97.256c.001-5.53-1.144-10.952-3.342-16.23"/><path fill="#f3eae6" d="m493.541 391.063-69.217-241.41h-40l69.217 241.41c2.198 5.278 3.342 10.7 3.342 16.23 0 50.996-97.298 92.825-221.094 96.926 6.595.218 13.265.33 20 .33 133.153 0 241.094-43.543 241.094-97.256.001-5.53-1.144-10.952-3.342-16.23"/><path fill="#fe99a0" d="M425.463 156.918c0-37.801-75.965-68.445-169.673-68.445S86.117 119.117 86.117 156.918s75.965 68.445 169.673 68.445q5.546 0 11.006-.142v41.903c0 10.532 8.496 19.07 18.975 19.07s18.975-8.538 18.975-19.07v99.164c0 10.532 8.496 19.07 18.975 19.07s18.975-8.538 18.975-19.07v-53.396c0 10.532 8.496 19.07 18.975 19.07s18.975-8.538 18.975-19.07V203.264c27.826-12.192 44.817-28.468 44.817-46.346"/><path fill="#4fc123" d="M164.057 147.432c13.452-16.605 39.367-17.955 39.367-17.955s4.106 25.572-9.346 42.177-39.367 17.955-39.367 17.955-4.105-25.572 9.346-42.177"/><path fill="#fd4755" d="M364.494 127.074c0 37.11-27.076 45.257-60.476 45.257s-60.476-8.148-60.476-45.257S270.619 7.548 304.019 7.548s60.475 82.416 60.475 119.526"/><path fill="#fb2b3a" d="M304.019 7.548c-7.009 0-13.74 3.63-20 9.709 23.571 22.887 40.476 80.495 40.476 109.817s-16.904 40.562-40.476 43.988c6.26.91 12.991 1.269 20 1.269 33.4 0 60.476-8.148 60.476-45.257S337.419 7.548 304.019 7.548"/><ellipse cx="181.089" cy="112.98" fill="#554e56" rx="33.995" ry="33.958"/><ellipse cx="233.279" cy="95.51" fill="#5b5555" rx="33.995" ry="33.958"/><ellipse cx="224.46" cy="149.718" fill="#766e6e" rx="33.995" ry="33.958"/><path d="M504.259 401.37c-23.612-84.065-48.411-166.026-71.83-250.568-3.695-21.088-26.462-40.046-63.89-52.983-1.776-8.672-4.188-17.815-7.125-26.836-3.003-9.22-17.265-4.577-14.263 4.645 5.299 16.278 9.843 34.163 9.843 51.447 0 26.818-15.348 37.758-52.976 37.758-17.818 0-30.307-2.41-38.742-7.536 1.891-10.116-.225-21.003-5.713-29.691a41.34 41.34 0 0 0 13.635-43.408 41.2 41.2 0 0 0-9.454-16.826c11.73-31.944 27.319-52.322 40.274-52.322 9.272 0 18.02 10.096 23.725 18.564 5.418 8.043 17.859-.338 12.44-8.381-37.08-54.758-73.475-9.501-88.973 32.913-9.502-4.559-20.514-5.325-30.556-2.128-8.925-21.945-33.266-32.969-34.343-33.448a7.5 7.5 0 0 0-9.534 3.095c-.596 1.029-14.016 24.594-8.1 47.756-11.866 3.706-21.809 13.053-26.309 24.632-34.888 12.183-56.913 29.667-62.402 49.176a8 8 0 0 0-.133.431C66.937 194.762 17 365.952 7.528 402.174q-.165.64-.216 1.299c-1.848 24.021 12.967 45.63 44.034 64.228 7.973 4.769 16.241-7.76 7.704-12.871-25.479-15.252-37.864-31.927-36.825-49.574 9.356-35.353 48.887-171.239 64.15-225.374 8.699 12.379 24.539 23.478 46.632 32.39 39.6 15.975 83.883 20.931 126.289 20.577v34.275c-.338 19.209 20.91 32.566 37.951 23.942v75.223c1.331 35.197 51.623 35.193 52.951 0v-29.454c17.047 8.619 38.287-4.73 37.951-23.943V208.088c17.001-8.05 29.489-17.6 36.901-28.042 21.292 75.481 42.872 148.288 64.327 223.357 1.689 22.555-15.361 37.48-25.77 44.42-64.322 43.217-138.987 47.812-203.956 48.727-58.6 1.1-109.918-6.114-156.893-22.014-9.185-3.107-13.994 11.1-4.809 14.209 52.041 17.613 107.184 23.826 161.946 22.803 67.091-.944 144.342-5.764 212.055-51.259 22.901-15.267 34.375-36.192 32.309-58.919M169.414 152.751c4.371 1.288 9.232 1.872 13.804 1.637a41.9 41.9 0 0 0 4.039 13.705c-7.196 7.974-18.312 11.463-25.607 12.957-.051-7.622 1.103-19.603 7.764-28.299m34.003 13.046c-11.045-14.406-3.759-36.553 13.811-41.533 13.758-3.894 28.806 4.445 32.722 18.237 3.946 13.9-4.327 28.722-18.26 32.671-10.744 3.041-21.854-1.021-28.273-9.375m55.353-77.503a26.38 26.38 0 0 1-9.426 28.269c-10.728-8.017-25.271-10.395-37.985-6.182-9.966-14.682-2.232-35.528 14.689-40.324 14.055-3.979 28.736 4.198 32.722 18.237m-72.124-48.41c6.729 4.274 16.841 12.231 20.669 23.258a41.4 41.4 0 0 0-9.992 11.673 41.2 41.2 0 0 0-13.565-3.226l-.027-.081c-3.692-11.417-.092-24.09 2.915-31.624m-12.787 47.642c5.985-1.695 12.803-1.158 18.419 1.465-1.579 9.877.578 20.184 5.892 28.623-6.754 5.524-11.661 13.208-13.877 21.631-12.731 1.554-25.089-6.349-28.695-19.05-3.93-13.844 4.352-28.729 18.261-32.669m244.104 69.392c0 13.858-14.698 28.247-40.325 39.477a7.5 7.5 0 0 0-4.49 6.869v109.629c-.58 15.322-22.368 15.334-22.951 0v-54.922c0-9.697-15-9.697-15 0v108.318c-.556 15.28-22.359 15.367-22.951 0V236.916c0-9.697-15-9.697-15 0v30.208c0 6.38-5.148 11.57-11.476 11.57s-11.475-5.19-11.475-11.57v-41.902q-.685-6.993-7.693-7.497c-42.82 1.097-87.949-3.214-127.984-19.363-60.315-24.112-59.164-59.673 1.014-83.291.628 11.978 6.722 23.557 16.252 30.823-12.584 18.774-8.757 43.79-8.578 44.906.545 3.393 4.299 6.482 7.795 6.301 1.108-.058 25.482-1.509 41.279-16.87 18.895 17.299 49.99 13.088 63.427-8.797 19.605 11.59 72.544 11.356 90.879-1.411 17.978-10.095 23.741-33.113 20.57-55.225 16.862 6.595 46.707 19.975 46.707 42.12"/><path d="M313.559 98.837c-9.652 0-9.668 15 0 15 9.652 0 9.668-15 0-15M337.329 131.182c9.652 0 9.668-15 0-15-9.652 0-9.668 15 0 15M313.559 152.018c9.652 0 9.668-15 0-15-9.652 0-9.668 15 0 15"/></svg>