<svg xmlns="http://www.w3.org/2000/svg" width="512" height="512" viewBox="0 0 514.784 514.784"><path fill="#dc8758" d="M505.236 146.458c7.23 87.61-46.117 146.776-144.068 154.142-79.011 5.942-171.635-34.232-171.635-110.638 0-142.21 100.266-188.526 172.237-181.85 78.896 7.32 137.182 62.199 143.466 138.346"/><path fill="#c86d36" d="M472.97 186.657c7.41 89.795-47.267 150.437-147.66 157.986-80.982 6.09-175.916-35.086-175.916-113.397 0-145.757 102.767-193.228 176.532-186.385 80.863 7.502 140.603 63.75 147.044 141.796"/><path fill="#dc8758" d="M434.963 234.696c7.562 91.629-48.233 153.51-150.677 161.214-82.636 6.214-179.51-35.802-179.51-115.714 0-148.735 104.866-197.175 180.139-190.193 82.515 7.655 143.476 65.052 150.048 144.693"/><path fill="#c86d36" d="M390.332 288.683c7.703 93.337-49.132 156.371-153.485 164.218-84.176 6.33-182.855-36.47-182.855-117.87 0-151.506 106.82-200.85 183.496-193.737 84.053 7.798 146.149 66.264 152.844 147.389"/><path fill="#dc8758" d="M350.266 337.19c7.818 94.735-49.868 158.714-155.785 166.679-85.437 6.425-185.594-37.016-185.594-119.636 0-153.776 108.421-203.859 186.245-196.639 85.312 7.914 148.339 67.256 155.134 149.596"/><path fill="#f9f3f1" d="M319.155 383.122c0 82.62-69.456 121.371-155.134 121.371S8.887 465.742 8.887 383.122s69.456-149.597 155.134-149.597 155.134 66.977 155.134 149.597"/><path fill="#f3eae6" d="M164.021 233.525c-6.777 0-13.452.42-20 1.232 76.231 9.462 135.134 72.279 135.134 148.364s-58.903 114.966-135.134 120.641c6.548.487 13.223.73 20 .73 85.678 0 155.134-38.751 155.134-121.371s-69.456-149.596-155.134-149.596"/><path fill="#fe99a0" d="M164.021 457.45c-34.172 0-63.436-7.447-82.403-20.969-17.537-12.503-25.704-29.458-25.704-53.359 0-56.548 48.497-102.554 108.107-102.554s108.108 46.006 108.108 102.554c0 23.901-8.168 40.856-25.704 53.359-18.968 13.522-48.233 20.969-82.404 20.969"/><path d="M512.71 145.841C506.182 66.726 445.802 8.376 362.463.646c-44.449-4.131-105.716 10.861-144.954 65.123-18.062 12.39-33.444 28.369-45.302 47.202-18.286 12.982-33.767 29.628-45.614 49.194-19.37 12.954-35.846 29.841-48.484 49.84-51.059 37.203-75.34 94.215-76.7 168.584-.66 39.699 15.878 77.005 48.563 100.309 83.547 58.362 247.193 42.599 293.737-57.099 18.695-14.367 32.852-32.443 42.132-53.788 19.882-14.358 34.863-32.778 44.567-54.8 15.67-12.533 27.891-27.858 36.432-45.67 34.296-29.096 50.152-71.822 45.87-123.7M312.763 444.326a121 121 0 0 1-3.949 4.401c11.762-18.627 17.841-40.76 17.841-65.606 1.807-102.528-106.036-180.002-206.058-151.423-9.369 2.501-5.5 16.991 3.869 14.492 90.711-25.938 188.85 44.089 187.187 136.932 1.186 122.23-173.519 141.762-252.975 85.56-29.022-20.692-42.665-52.764-42.271-87.905.487-49.639 29.709-96.278 73.158-120.376 8.448-4.76 1.086-17.829-7.363-13.069-17.846 10.054-33.561 23.329-46.258 38.971 26.945-60.76 92.689-97.486 158.494-91.244 82.318 7.636 141.937 65 148.353 142.745 3.513 42.565-6.871 79.399-30.028 106.522m41.454-51.212c23.886-103.53-46.736-204.589-158.392-212.988-28.3-2.628-57.198 2.041-83.388 12.903 13.153-13.047 28.62-23.617 45.827-31.211 24.562-10.838 52.452-15.475 78.532-13.057 81.047 7.519 139.746 63.996 146.062 140.538 3.039 36.821-4.496 74.933-28.641 103.815m40.455-50.642c30.232-138.182-103.844-247.645-237.233-196.58 13.573-14.782 29.978-26.681 48.501-35.052 24.419-11.038 52.219-15.788 78.282-13.368 79.497 7.375 137.071 62.77 143.266 137.842 3.19 38.654-5.572 78.351-32.816 107.158m45.318-57.984c20.24-98.817-48.24-194.218-154.382-201.953-26.314-2.439-54.217 1.761-79.34 11.86 12.499-12.293 27.15-22.269 43.428-29.471 23.619-10.448 50.448-14.92 75.538-12.594 35.602 3.303 67.45 16.433 92.103 37.972 7.304 6.377 17.172-4.916 9.869-11.297-27.043-23.626-61.825-38.016-100.586-41.61-22.917-2.128-47.128.896-69.523 8.549 32.989-25.883 72.985-33.235 103.981-30.362 112.367 7.822 172.206 128.421 117.169 218.833 7.73-40.481.295-88.507-22.854-122.952-5.283-8.132-17.861.04-12.579 8.172 30.849 47.809 32.842 118.506-2.824 164.853"/><path d="M48.413 383.121c.637 62.83 55.643 80.782 115.606 81.829 35.722-.001 66.533-7.942 86.758-22.363 19.413-13.841 28.85-33.292 28.85-59.466-5.723-145.778-225.522-145.714-231.214 0m115.607-95.052c55.475 0 100.607 42.641 100.607 95.053 0 21.557-6.957 36.13-22.558 47.253-33.137 25.914-122.961 25.913-156.098 0-15.601-11.123-22.558-25.696-22.558-47.253 0-52.413 45.132-95.053 100.607-95.053"/><path d="M145.137 428.158c4.079.305 7.733-2.809 8.012-6.95a7.5 7.5 0 0 0-6.95-8.013c-21.624-1.535-36.636-7.7-43.416-17.828-7.477-11.171-3.252-24.49-3.16-24.774a7.5 7.5 0 0 0-14.193-4.856c-.283.82-6.799 20.286 4.751 37.77 9.545 14.444 28.034 22.738 54.956 24.651"/></svg>