<svg xmlns="http://www.w3.org/2000/svg" width="512" height="512" viewBox="0 0 511.834 511.834"><path fill="#dc8758" d="M369.009 480.558c-11.234 7.734-26.581 4.852-34.277-6.436l-258-376.174c-7.697-11.288-4.829-26.709 6.405-34.443s26.581-4.852 34.277 6.436l258 376.174c7.697 11.289 4.83 26.709-6.405 34.443"/><path fill="#ffbd86" d="M335.86 10.555c11.891 6.669 16.151 21.762 9.516 33.711L124.918 443.822c-6.636 11.949-21.655 16.23-33.546 9.561s-16.151-21.762-9.516-33.711L302.314 20.116c6.636-11.949 21.655-16.23 33.546-9.561"/><path fill="#fed2a4" d="M445.23 118.14c7.872 11.166 5.246 26.631-5.865 34.541L69.12 417.824c-11.111 7.911-26.5 5.272-34.372-5.894s-5.246-26.631 5.865-34.541l370.245-265.143c11.111-7.911 26.5-5.272 34.372 5.894"/><path fill="#ffbd86" d="M25.63 489.854c-5.541-12.452.067-27.111 12.526-32.742l415.457-189.148c12.459-5.631 27.051-.102 32.592 12.35s-.067 27.111-12.526 32.742L58.222 502.205c-12.459 5.631-27.051.101-32.592-12.351"/><path d="M118.65 95.863c-9.652 0-9.668 15 0 15 9.652 0 9.668-15 0-15M124.34 141.169c9.652 0 9.668-15 0-15-9.651 0-9.667 15 0 15M332.185 428.497c9.652 0 9.668-15 0-15-9.652 0-9.668 15 0 15M215.904 207.22c-9.652 0-9.668 15 0 15 9.651 0 9.667-15 0-15M287.936 114.743c9.652 0 9.668-15 0-15-9.652 0-9.668 15 0 15M296.936 77.685c9.652 0 9.668-15 0-15-9.652 0-9.668 15 0 15M73.849 368.122c-9.652 0-9.668 15 0 15 9.652 0 9.668-15 0-15M103.914 376.928c9.652 0 9.668-15 0-15-9.652 0-9.668 15 0 15M296.936 231.735c9.652 0 9.668-15 0-15-9.652 0-9.668 15 0 15M393.917 162.603c9.652 0 9.668-15 0-15-9.652 0-9.667 15 0 15"/><path d="M493.057 277.264c-7.125-16.008-26.491-23.387-42.552-16.126L303.534 328.05l-31.678-46.187L443.715 158.79c14.446-10.285 17.876-30.46 7.645-44.972-10.045-14.249-30.63-17.807-44.869-7.671l-143.325 102.64 88.766-160.88c8.624-15.53 3.061-35.221-12.404-43.895-15.399-8.635-35.287-2.813-43.78 12.48l-91.793 166.366-80.343-117.142c-9.812-14.389-30.337-18.295-44.727-8.388-14.608 10.056-18.354 30.173-8.338 44.862l49.003 71.448c5.487 7.997 17.855-.487 12.37-8.484L82.929 93.722c-5.365-7.868-3.364-18.652 4.461-24.039 7.74-5.327 18.557-3.248 23.839 4.5l84.615 123.373-18.592 33.695-21.876-31.897c-5.485-7.997-17.855.487-12.37 8.484l26.137 38.11-27.521 49.879-105.36 75.452c-14.446 10.286-17.875 30.461-7.645 44.973 9.662 13.706 29.066 17.688 43.317 8.71a32 32 0 0 0-.649 8.827l-36.219 16.49c-16.186 7.314-23.493 26.437-16.289 42.625 7.158 16.086 26.53 23.369 42.552 16.128l219.66-100.006 47.546 69.322c9.837 14.429 30.253 18.354 44.727 8.39 14.608-10.056 18.354-30.174 8.338-44.862l-41.109-59.939 36.997-16.844c8.826-4.019 2.612-17.667-6.215-13.652l-316.14 143.93c-8.529 3.852-18.836.006-22.651-8.565-3.86-8.676.07-18.931 8.781-22.867l415.438-189.14c8.527-3.854 18.837-.006 22.65 8.565 3.861 8.676-.069 18.93-8.78 22.866l-58.925 26.827c-8.827 4.019-2.612 17.662 6.215 13.652l58.906-26.819c16.186-7.314 23.493-26.436 16.29-42.626M369.218 450.342c5.365 7.868 3.364 18.652-4.462 24.039-7.741 5.329-18.557 3.247-23.839-4.501l-46.067-67.166 31.779-14.468zm-79.545-115.98-31.778 14.468-26.202-38.204 27.966-20.027zm-70.179-15.001 24.539 35.779-82.29 37.465 29.087-52.716zM308.87 23.758c4.547-8.19 15.133-11.252 23.32-6.662 8.28 4.645 11.253 15.199 6.618 23.547L234.843 229.07l-64.897 46.475zM52.001 414.641c-14.994-2.449-19.434-22.457-7.021-31.155l370.228-265.13c7.533-5.362 18.533-3.496 23.893 4.105 5.487 7.784 3.655 18.6-4.102 24.122L64.77 411.715a16.96 16.96 0 0 1-12.769 2.926m36.423 8.655 9.186-16.65 64.896-46.474-23.643 42.85-51.869 23.615a17.7 17.7 0 0 1 1.43-3.341"/><path d="M440.701 300.934c-9.652 0-9.668 15 0 15 9.652 0 9.668-15 0-15M409.969 301.258c-9.652 0-9.668 15 0 15 9.652 0 9.668-15 0-15M243.774 401.066c9.652 0 9.668-15 0-15-9.651 0-9.667 15 0 15M121.82 448.345c9.652 0 9.668-15 0-15-9.652 0-9.668 15 0 15M92.459 472.721c9.652 0 9.668-15 0-15-9.652 0-9.668 15 0 15"/></svg>