<svg xmlns="http://www.w3.org/2000/svg" width="512" height="512" viewBox="0 0 512.044 512.044"><path fill="#dc8758" d="m39.052 242.087 234.401 234.674c58.559-51.825 98.41-116.211 118.185-203.861 15.32-67.905 29.907-158.949 63.98-167.625 23.305-5.934 43.66-28.745 45.019-62.758 1.782-44.602-35.018-50.652-74.483 5.7-41.442 59.174-127.301 61.653-182.796 76.231-67.537 15.377-134.035 47.287-204.306 117.639"/><path fill="#d77f4a" d="M455.374 16.782c3.768 5.956 5.707 14.656 5.264 25.736-1.359 34.012-21.714 56.824-45.019 62.758-34.073 8.676-48.66 99.72-63.98 167.625-17.37 76.989-50.229 136.029-97.65 184.374l19.465 19.488c58.559-51.825 98.41-116.211 118.185-203.861 15.32-67.905 29.907-158.949 63.98-167.625 23.305-5.934 43.66-28.745 45.019-62.758 1.325-33.171-18.687-45.018-45.264-25.737"/><ellipse cx="151.01" cy="364.673" fill="#f9f3f1" rx="107.469" ry="165.843" transform="rotate(-44.93 150.951 364.725)"/><path fill="#fe99a0" d="M95.446 420.302c-27.022-27.053-46.274-60.171-52.821-90.861-3.29-15.422-6.162-43.946 11.569-61.697 17.73-17.751 46.221-14.876 61.625-11.582 30.655 6.555 63.734 25.83 90.755 52.883s46.274 60.171 52.821 90.861c3.29 15.422 6.162 43.946-11.568 61.697-17.731 17.752-46.222 14.876-61.626 11.582-30.654-6.555-63.733-25.83-90.755-52.883"/><path fill="#fd4755" d="m433.978 132.855-50.072-50.131c-5.077-5.083-5.077-13.32 0-18.403 5.082-5.088 13.325-5.088 18.406 0l50.072 50.131c5.077 5.083 5.077 13.32 0 18.403-5.082 5.088-13.325 5.088-18.406 0"/><path d="M487.644 1.42c-19.182-6.47-44.465 9.413-67.633 42.494a107.2 107.2 0 0 1-12.617 14.887c-15.651-15.211-42.021 2.859-33.012 23.092-28.591 14.323-62.699 20.902-93.031 26.752-14.189 2.736-27.594 5.322-39.776 8.516-83.487 19.033-153.165 64.896-213.073 124.875-17.107 17.128-25.605 41.322-24.573 69.965.347 9.679 15.34 9.157 14.99-.539-.878-24.377 6.105-44.719 20.196-58.825 13.265-13.28 32.185-20.3 54.715-20.3 76.413-2.191 172.484 85.456 186.421 163.105 7.244 33.954 1.083 62.816-17.348 81.269-50.95 45.625-132.891 8.154-182.535-41.301-25.938-25.969-45.458-57.112-54.966-87.695-2.881-9.259-17.203-4.807-14.324 4.453 22.143 79.269 118.637 161.863 197.113 159.84 29.102.002 49.23-11.042 70.233-29.63 77.965-67.98 111.811-150.572 130.036-251.604 2.06-9.477-12.596-12.661-14.658-3.188-3.164 14.554-6.201 29.136-9.48 43.664-15.684 69.514-44.046 125.359-88.267 173.02 12.085-59.008-23.598-120.694-63.791-160.933-39.575-39.622-99.051-74.26-157.179-64.483 52.302-44.81 107.128-72.792 169.939-87.093q.12-.027.24-.059c45.041-11.335 95.572-15.157 138.989-38.016l37.62 37.664c-6.457 13.537-12.398 31.275-18.56 55.351-2.339 9.136 12.099 13.224 14.531 3.719 5.24-20.472 10.421-36.481 15.746-48.618 18.439 9.781 38.498-12.711 26.369-29.952 12.515-3.789 23.928-11.837 32.359-22.871 9.643-12.622 15.111-28.584 15.813-46.161.865-21.624-6.603-36.712-20.487-41.398m-40.566 126.135q-3.897 3.232-7.794 0l-50.072-50.131c-5.032-5.039 2.751-12.853 7.793-7.802l50.073 50.129a5.53 5.53 0 0 1 0 7.804m46.065-85.337c-1.264 31.643-18.529 45.547-44.685 57.689l-30.461-30.495a122 122 0 0 0 14.302-16.892c15.21-21.72 36.739-41.545 50.55-36.887 7.016 2.369 10.864 12.306 10.294 26.585"/><path d="M178.283 478.996c24.199 7.19 55.919 6.86 74.851-12.094 20.236-20.261 17.204-51.652 13.596-68.561-6.841-32.068-26.833-66.548-54.85-94.597-37.829-38.52-116.454-82.41-162.993-41.302-19.112 19.134-18.996 50.336-12.108 74.802 7.968 30.254 27.152 62.119 53.36 88.358v.001c26.177 26.205 57.958 45.397 88.144 53.393m73.777-77.525c2.974 13.934 5.688 39.585-9.539 54.831-13.339 13.354-34.655 12.919-49.087 10.607 15.511-27.588-3.092-60.501-11.821-87.079-4.079-12.886-5.96-24.534-.912-33.269 8.059-13.942 10.923-28.612 8.594-43.336 30.51 25.803 55.992 64.745 62.765 98.246M59.501 273.044c15.221-15.24 40.836-12.522 54.75-9.548 17.663 3.777 36.214 12.022 53.868 23.69 9.412 17.675 9.278 35.12-.404 51.869-3.114 5.387-4.613 11.112-4.974 17.056-14.146-11.525-37.173-18.137-51.595-13.292-15.9 4.883-23.837.348-33.885-5.392-7.432-4.246-15.706-8.973-27.331-9.7-2.962-13.967-5.605-39.492 9.571-54.683m-5.137 70.458c5.602 1.323 10.297 4.004 15.455 6.95 11.073 6.325 23.623 13.494 45.729 6.707 8.018-2.462 20.188-.058 31.006 6.124 5.965 3.41 15.676 10.401 21.051 21.962 7.209 22.445 27.148 55.548 10.258 78.048-26.394-7.946-53.996-25.153-77.109-48.292v.001c-21.457-21.481-37.805-46.834-46.39-71.5M260.397 151.726c-71.555 14.212-94.642 36.934-95.59 37.894-6.806 6.895 3.852 17.447 10.676 10.537.2-.202 21.823-20.606 87.836-33.718a7.5 7.5 0 0 0 5.896-8.817 7.504 7.504 0 0 0-8.818-5.896"/></svg>