<svg xmlns="http://www.w3.org/2000/svg" width="512" height="512" viewBox="0 0 511.944 511.944"><path fill="#f9f3f1" d="M338.738 151.845c-53.099-23.644-30.371-56.698-18.764-68.386 31.976-32.197-10.977-81.692-46.236-51.298-1.613-13.957-13.516-24.794-27.962-24.794-14.249 0-26.025 10.546-27.89 24.229-27.104-8.861-50.428 26.81-27.72 47.386 2.113 2.031 49.36 43.716-16.815 72.817C75.972 194.746 12.403 261.771 12.403 355.591c0 119.609 109.049 148.777 243.568 148.777S499.54 475.199 499.54 355.591c0-93.772-65.568-160.845-160.802-203.746"/><path fill="#f3eae6" d="M338.738 151.845c-53.099-23.644-30.371-56.698-18.764-68.386 30.998-31.213-8.42-78.68-42.982-53.864 15.109 11.615 21.18 35.54 2.982 53.864-11.607 11.688-34.336 44.741 18.764 68.386C393.972 194.746 459.54 261.82 459.54 355.591c0 113.621-98.405 145.63-223.568 148.55 6.596.154 13.266.227 20 .227 134.519 0 243.568-29.168 243.568-148.777 0-93.772-65.568-160.845-160.802-203.746"/><path fill="#97da7b" d="M318.759 139.529H195.371c-9.295 0-16.831-7.535-16.831-16.831s7.535-16.831 16.831-16.831h123.388c9.295 0 16.831 7.535 16.831 16.831s-7.535 16.831-16.831 16.831"/><path fill="#80d261" d="M318.759 105.867h-40c9.295 0 16.831 7.535 16.831 16.831s-7.535 16.831-16.831 16.831h40c9.295 0 16.831-7.535 16.831-16.831s-7.535-16.831-16.831-16.831"/><path d="M341.789 144.993a104 104 0 0 1-7.42-3.647c17.254-14.315 7.081-42.972-15.61-42.979.219-1.566 3.729-6.796 6.537-9.623 34.899-34.965-4.523-90.267-47.314-68.617-13.34-28.114-54.541-26.387-65.567 2.748-13.422-1.139-26.652 5.702-33.948 18.27-8.625 14.854-6.022 31.87 6.628 43.361 3.416 3.121 9.624 11.646 10.277 13.861-22.189-.018-32.659 27.651-16.373 42.313a109 109 0 0 1-8.674 4.255C62.105 192.665 4.903 265.508 4.903 355.591c0 58.298 25.389 100.669 75.46 125.938 56.223 32.849 207.629 37.555 284.993 21.467 9.518-1.845 6.667-16.565-2.857-14.725-73.995 15.433-222.066 11.15-275.377-20.134C-.922 428.609 4.715 304.963 62.134 239.404c26.325-31.755 64.763-58.921 114.235-80.741 8.014-3.523 14.896-7.436 20.466-11.635h12.196c9.697 0 9.697-15 0-15h-13.66c-12.342-.433-12.353-18.224 0-18.661h123.388c12.338.434 12.358 18.22 0 18.661h-69.777c-9.697 0-9.697 15 0 15h66.635c5.448 4.239 12.185 8.157 20.042 11.654C407 190.821 492.041 251.07 492.041 355.59c0 60.893-29.456 100.863-90.052 122.194-9.022 3.175-3.811 17.246 4.98 14.148 31.645-11.14 56.076-27.454 72.616-48.49 18.218-23.171 27.455-52.729 27.455-87.853 0-89.071-57.133-161.89-165.251-210.596M195.525 73.725l-.161-.15a5 5 0 0 0-.161-.15c-8.761-7.938-7.688-17.989-3.764-24.748 4.333-7.461 13.469-13.431 24.118-9.951q7.745 1.512 9.762-6.116c3.78-23.716 37.715-23.412 40.97.414.624 5.408 7.586 8.924 12.347 4.819 14.927-12.865 29.427-7.554 37.309.906 8.828 9.474 12.19 25.853-1.29 39.426-3.729 3.753-9.924 10.906-13.75 20.193h-87.91c-4.396-11.28-12.589-20.093-17.47-24.643"/><path d="M214.419 169.948c-2.776 1.189-68.37 29.911-100.221 96.886-4.056 8.531 9.403 15.158 13.547 6.441 29.354-61.729 91.96-89.271 92.589-89.543 8.905-3.825 2.993-17.606-5.915-13.784M423.968 326.369c4.481 0 8.468-5.12 7.223-9.537-19.053-67.587-79.223-100.805-81.774-102.186-8.529-4.616-15.667 8.578-7.139 13.191.569.309 57.126 31.516 74.476 93.064a7.5 7.5 0 0 0 7.214 5.468"/></svg>