<svg xmlns="http://www.w3.org/2000/svg" width="512" height="512" viewBox="0 0 511.584 511.584"><path fill="#fed2a4" d="M305.069 492.091 198.538 145.337l224.9 66.603-86.069 280.15c-4.912 15.991-27.388 15.991-32.3.001"/><path fill="#f9f3f1" d="m176.592 199.303 268.792 79.602"/><ellipse cx="319.626" cy="102.132" fill="#c86d36" rx="94.382" ry="95.049"/><path fill="#ac5e2e" d="M319.626 7.084c-6.862 0-13.554.738-20 2.139 42.519 9.239 74.382 47.327 74.382 92.91s-31.863 83.671-74.382 92.91a94 94 0 0 0 20 2.139c52.126 0 94.382-42.555 94.382-95.048 0-52.496-42.256-95.05-94.382-95.05"/><path fill="#c86d36" d="M204.066 272.911v26.256c0 9.538 7.364 17.661 16.829 18 9.937.356 18.103-7.651 18.103-17.578v-47.84c0-11.617 11.087-19.972 22.154-16.694l58.428 17.303c7.354 2.178 12.404 8.975 12.404 16.694V300.4c0 9.538 7.364 17.661 16.829 18 9.937.356 18.103-7.651 18.103-17.578v-17.488c0-8.47 8.084-14.562 16.153-12.173 5.362 1.588 9.044 6.544 9.044 12.173v61.402c0 9.538 7.364 17.661 16.829 18 9.937.356 18.103-7.651 18.103-17.578v-46.084q1.653.245 3.289.245c9.732 0 18.708-6.405 21.592-16.284 3.471-11.888-3.176-24.353-14.874-28.037 15.018-17.659 24.075-40.61 24.032-65.694-.094-54.913-44.438-99.997-98.962-100.588-18.643-.202-36.126 4.731-51.142 13.48-14.552-24.247-41.306-40.233-71.694-39.328-43.136 1.285-77.928 37.03-78.391 80.488-.186 17.44 5.074 33.633 14.173 46.962-10.406 2.033-18.259 11.19-18.259 22.179 0 12.481 10.131 22.6 22.627 22.6z"/><path fill="#ac5e2e" d="M392.114 299.246v45.489c0 9.538 7.364 17.661 16.829 18 9.937.356 18.103-7.651 18.103-17.578v-46.083q1.653.245 3.289.245c9.732 0 18.708-6.405 21.592-16.284 3.471-11.888-3.176-24.353-14.874-28.037 15.018-17.659 24.075-40.61 24.032-65.694-.094-54.913-44.438-99.997-98.962-100.588a100 100 0 0 0-21.15 2.017c45.538 9.369 80.029 50.148 80.112 98.571.038 22.007-7.282 43.055-20.073 60.578-5.76 7.891-9.007 17.333-8.974 27.103z"/><path fill="#fed402" d="M252.477 504.084h-146.08c-10.026 0-18.609-7.18-20.369-17.038l-17.649-87.503h222.116l-17.649 87.503c-1.76 9.858-10.343 17.038-20.369 17.038"/><path fill="#fe99a0" d="M293.066 368.726h-4.561a111.6 111.6 0 0 0 2.267-22.431c0-61.414-49.847-111.201-111.336-111.201S68.101 284.881 68.101 346.296v22.431h-2.294c-8.52 0-15.427 6.898-15.427 15.408s6.907 15.408 15.427 15.408h43.675v41.182c0 9.538 7.364 17.661 16.829 17.999 9.937.356 18.103-7.651 18.103-17.578v-21.603c0 9.538 7.364 17.661 16.829 17.999 9.937.356 18.103-7.651 18.103-17.578v-20.422h37.484v35.499c0 9.538 7.364 17.661 16.829 17.999 9.937.356 18.103-7.651 18.103-17.578v-35.921h41.304c8.52 0 15.427-6.898 15.427-15.408s-6.907-15.407-15.427-15.407"/><path fill="#fd8087" d="M293.066 368.726h-4.561a111.6 111.6 0 0 0 2.267-22.43c0-61.415-49.847-111.201-111.336-111.201-6.828 0-13.512.614-20 1.79 51.944 9.411 91.336 54.816 91.336 109.411 0 7.684-.781 15.186-2.267 22.43h4.561c8.52 0 15.427 6.898 15.427 15.408s-6.907 15.408-15.427 15.408h40c8.52 0 15.427-6.898 15.427-15.408s-6.907-15.408-15.427-15.408"/><path d="M448.429 252.589c13.092-18.367 20.195-40.518 20.156-63.299a108.4 108.4 0 0 0-3.085-25.521c-2.301-9.419-16.872-5.861-14.571 3.561a93.4 93.4 0 0 1 2.656 21.985c.038 22.31-7.862 43.909-22.245 60.822q-4.718 7.863 3.46 12.012c7.783 2.451 12.236 10.877 9.928 18.782-1.872 6.41-7.791 10.887-14.393 10.887-4.691 0-10.789.672-10.789 7.255v46.084q-.902 9.456-10.334 10.082c-5.292-.189-9.598-4.901-9.598-10.504v-61.402c0-25.937-40.198-25.953-40.198 0v17.488q-.9 9.456-10.334 10.083c-5.292-.189-9.598-4.902-9.598-10.505v-31.347c0-10.965-7.309-20.786-17.774-23.886l-58.428-17.304c-11.328-3.352-24.184 2.38-29.312 12.985-16.341-8.466-34.888-13.252-54.533-13.252-18.224-.436-20.702-25.986-2.931-29.917q8.624-3.232 4.757-11.59c-19.789-28.147-16.296-69.203 8.199-93.561 13.37-13.729 31.144-21.602 50.048-22.164 23.986-.7 46.732 10.485 60.962 29.604-22.494 15.925-43.303 47.984-43.303 84.206 0 9.697 15 9.697 15 0 0-34.091 21.351-63.744 42.442-75.416l.117-.067.027-.015.016-.009.01-.006c14.294-8.322 30.651-12.633 47.259-12.446 27.925.303 53.987 13.239 71.505 35.492 5.997 7.621 17.785-1.658 11.786-9.277-6.903-8.769-14.953-16.292-23.847-22.419-2.94-106.448-145.011-138.653-193.037-43.678-18.79 2.864-36.156 11.791-49.731 25.732-27.052 26.999-33.106 71.303-14.671 104.554-14.907 8.462-19.459 29.719-9.02 43.496-61.327 13.189-99.373 68.35-94.423 131.708-24.306 6.028-23.121 40.611 1.582 44.934l16.478 81.697c2.437 13.408 14.087 23.131 27.736 23.131h18.669c9.697 0 9.697-15 0-15h-18.669c-6.545 0-11.78-4.723-13.017-11.021l-15.837-78.521h24.439v33.682c0 13.813 10.569 25.012 24.061 25.495 13.245.463 24.89-10.042 25.809-23.278l9.122 2.096c13.886.461 25.872-11.153 25.872-25.073v-12.921h22.484v27.999c0 13.812 10.569 25.011 24.06 25.494 13.886.493 25.872-11.175 25.872-25.073v-28.42h22.069l-3.66 18.144-.045.225-12.133 60.151c-1.237 6.297-6.472 11.021-13.017 11.021h-81.41c-9.697 0-9.697 15 0 15h81.41c13.649 0 25.299-9.723 27.736-23.132l6.299-31.227 11.388 37.067c6.908 22.486 39.727 22.501 46.64 0l42.533-138.444c3.887 8.271 12.005 14.037 21.602 14.381 13.936.486 25.872-11.096 25.872-25.072v-38.643c26.453-3.908 34.88-37.88 13.882-53.925M319.626 14.584c44.186 0 80.774 33.411 86.19 76.479a106.3 106.3 0 0 0-43.612-9.848c-16.957-.175-33.658 3.646-48.73 11.123-15.691-21.918-40.546-35.515-67.362-36.889 15.771-25.151 43.501-40.865 73.514-40.865m-67.863 377.459a7.5 7.5 0 0 0-7.5 7.5v35.92q-.901 9.456-10.334 10.083c-5.292-.189-9.598-4.901-9.598-10.504v-35.499a7.5 7.5 0 0 0-7.5-7.5h-37.484a7.5 7.5 0 0 0-7.5 7.5v20.421q-.901 9.456-10.334 10.083c-5.292-.189-9.598-4.901-9.598-10.504 0-9.697-15-9.697-15 0v21.604q-.902 9.456-10.334 10.083c-5.292-.189-9.598-4.902-9.598-10.505v-41.182a7.5 7.5 0 0 0-7.5-7.5H68.504c-4.787-.073-10.624-1.704-10.624-7.908 0-4.36 3.556-7.908 7.927-7.908 4.662.397 9.793-1.941 9.793-7.5v-22.431c0-57.181 46.581-103.7 103.836-103.7 64.861-.73 115.394 61.381 101.722 124.624q-.603 7.992 7.347 9.007h4.561c4.371 0 7.927 3.548 7.927 7.908s-3.556 7.908-7.927 7.908zm78.437 97.845c-2.704 8.801-15.258 8.801-17.962 0l-19.508-63.497 3.961-19.635c25.253-4.473 25.685-40.023.598-45.14 6.163-44.459-15.195-89.18-50.316-112.941q3.066-7.895 12.05-6.429l58.429 17.304c4.141 1.227 7.033 5.134 7.033 9.503V300.4c0 13.813 10.569 25.012 24.061 25.495 13.885.475 25.871-11.165 25.871-25.073v-17.488c0-6.934 10.198-6.428 10.198 0v29.44z"/><path d="M143.828 266.113c-16.173 7.535-29.638 19.579-38.937 34.829-4.856 7.961 7.468 16.564 12.807 7.809 7.754-12.717 18.98-22.759 32.465-29.042 8.859-4.467 2.775-17.505-6.335-13.596"/></svg>