<svg xmlns="http://www.w3.org/2000/svg" width="512" height="512" viewBox="0 0 512.158 512.158"><path fill="#fd4755" d="m390.621 233.026.124-.001h.353v-.002c61.566-.374 111.968-50.827 111.964-112.961S452.781 7.621 391.215 7.476v-.001l-.133.001h-.345v.002c-61.566.373-111.967 50.827-111.963 112.961s50.281 112.442 111.847 112.587"/><g fill="#fe99a0"><path d="M318.008 120.587c-8.144.015-13.965 8.032-11.675 16.02 3.673 12.812 11.587 30.966 28.484 45.397 14.752 12.599 29.264 18.568 40.382 21.369 8.095 2.039 15.931-4.144 15.93-12.515l-.005-70.407-17.544.033z"/><path d="M334.49 59.02c-16.82 14.582-24.637 32.807-28.242 45.652-2.248 8.009 3.616 15.973 11.76 15.915l55.572-.396 17.545-.125-.005-70.375c-.001-8.425-7.922-14.575-16.059-12.481-11.142 2.869-25.752 8.963-40.571 21.81"/></g><g fill="#fe99a0"><path d="M463.828 119.914c8.144-.015 13.965-8.032 11.675-16.02-3.673-12.812-11.587-30.966-28.484-45.397-14.752-12.599-29.264-18.568-40.382-21.369-8.095-2.039-15.931 4.144-15.93 12.515l.005 70.407 17.544-.033z"/><path d="M447.346 181.481c16.82-14.582 24.637-32.807 28.242-45.652 2.248-8.009-3.616-15.973-11.76-15.915l-55.572.396-17.545.125.005 70.375c.001 8.425 7.922 14.575 16.059 12.481 11.142-2.868 25.752-8.962 40.571-21.81"/></g><g fill="#fd8087"><path d="M475.503 103.894c-3.673-12.812-11.587-30.966-28.484-45.397-14.752-12.599-29.264-18.568-40.382-21.369-5.639-1.42-11.151 1.149-13.978 5.668 7.655 3.513 15.969 8.535 24.36 15.701 16.897 14.431 24.811 32.585 28.484 45.397 2.29 7.988-3.531 16.005-11.675 16.02l-43.117.08v.056l17.544-.032 55.573-.103c8.144-.016 13.965-8.033 11.675-16.021"/><path d="m463.828 119.914-27.728.197c6.92 1.271 11.52 8.476 9.488 15.718-3.605 12.845-11.422 31.069-28.242 45.652-8.51 7.378-16.952 12.529-24.707 16.12 2.839 4.575 8.435 7.157 14.137 5.689 11.142-2.868 25.752-8.962 40.57-21.81 16.82-14.582 24.637-32.807 28.242-45.652 2.248-8.007-3.616-15.972-11.76-15.914"/></g><path fill="#fef1da" d="m390.991 145.887.001-.16c3.839.467 8.908 6.951 12.322 5.54 3.538-1.462 2.459-10.231 5.219-12.988 2.663-2.66 11.382-1.448 12.923-5.148s-5.43-9.109-5.412-12.885c.019-3.914 6.988-9.286 5.544-12.851s-10.142-2.461-12.872-5.239c-2.633-2.68-1.416-11.473-5.083-13.021-3.667-1.547-9.044 5.491-12.789 5.479l-.001.16c-3.839-.467-8.908-6.951-12.322-5.54-3.538 1.462-2.459 10.231-5.219 12.988-2.663 2.66-11.382 1.448-12.923 5.148s5.43 9.109 5.412 12.885c-.019 3.914-6.988 9.286-5.544 12.851s10.142 2.461 12.872 5.239c2.633 2.68 1.416 11.473 5.083 13.021s9.045-5.49 12.789-5.479"/><ellipse cx="317.963" cy="193.996" fill="#f9f3f1" rx="102.993" ry="103.295"/><path fill="#f3eae6" d="M317.963 90.702c-6.843 0-13.53.67-20 1.947 47.309 9.337 82.993 51.163 82.993 101.348s-35.684 92.011-82.993 101.348a103 103 0 0 0 20 1.947c56.882 0 102.993-46.246 102.993-103.295S374.845 90.702 317.963 90.702"/><path fill="#4fc123" d="M331.683 181.152c-45.922-45.982-132.827-33.516-132.827-33.516s-12.45 87.018 33.472 133 132.827 33.516 132.827 33.516 12.45-87.018-33.472-133"/><path fill="#fd4755" d="m202.611 422.163.124-.001h.353v-.002c61.566-.374 111.968-50.827 111.963-112.961S264.77 196.757 203.205 196.612v-.001l-.133.001h-.345v.002c-61.566.374-111.968 50.827-111.963 112.961s50.282 112.442 111.847 112.588"/><g fill="#fe99a0"><path d="M129.999 309.724c-8.144.015-13.965 8.032-11.675 16.02 3.673 12.812 11.587 30.966 28.484 45.397 14.752 12.599 29.264 18.568 40.382 21.369 8.095 2.039 15.931-4.144 15.93-12.515l-.005-70.407-17.544.033z"/><path d="M146.481 248.157c-16.82 14.582-24.637 32.807-28.242 45.652-2.248 8.009 3.616 15.973 11.76 15.915l55.572-.396 17.545-.125-.005-70.375c-.001-8.425-7.922-14.575-16.059-12.481-11.143 2.868-25.753 8.963-40.571 21.81"/></g><path fill="#fe99a0" d="m220.246 309.154 55.573-.103c8.144-.015 13.965-8.032 11.675-16.02-3.673-12.812-11.587-30.966-28.484-45.397-14.752-12.599-29.264-18.568-40.382-21.369-8.095-2.039-15.931 4.145-15.93 12.516l.005 70.407z"/><path fill="#fd8087" d="M287.494 293.03c-3.673-12.812-11.587-30.966-28.484-45.397-14.752-12.599-29.264-18.568-40.382-21.369-5.639-1.42-11.151 1.149-13.978 5.668 7.655 3.513 15.969 8.535 24.36 15.701 16.897 14.431 24.811 32.585 28.484 45.397 2.29 7.988-3.531 16.005-11.675 16.02l-43.117.08v.056l17.544-.033 55.573-.103c8.144-.014 13.965-8.031 11.675-16.02"/><path fill="#fe99a0" d="m275.819 309.051-55.572.396-17.545.125.005 70.375c.001 8.425 7.922 14.575 16.059 12.481 11.142-2.868 25.752-8.962 40.57-21.81 16.82-14.582 24.637-32.807 28.242-45.652 2.249-8.008-3.615-15.973-11.759-15.915"/><path fill="#fd8087" d="m275.819 309.051-27.728.197c6.92 1.271 11.52 8.477 9.488 15.718-3.605 12.844-11.422 31.07-28.242 45.652-8.51 7.378-16.952 12.529-24.707 16.121 2.839 4.575 8.435 7.156 14.137 5.689 11.142-2.868 25.752-8.962 40.57-21.81 16.82-14.582 24.637-32.807 28.242-45.652 2.248-8.008-3.616-15.973-11.76-15.915"/><path fill="#fef1da" d="m202.982 335.024.001-.16c3.839.467 8.908 6.951 12.322 5.54 3.538-1.462 2.459-10.231 5.219-12.988 2.663-2.66 11.382-1.448 12.923-5.148s-5.43-9.109-5.412-12.885c.019-3.914 6.988-9.286 5.544-12.851s-10.142-2.461-12.872-5.239c-2.633-2.68-1.416-11.473-5.083-13.021-3.667-1.547-9.044 5.491-12.789 5.479l-.001.16c-3.839-.467-8.908-6.951-12.322-5.54-3.538 1.462-2.459 10.231-5.219 12.988-2.663 2.66-11.382 1.448-12.923 5.148s5.43 9.109 5.412 12.885c-.019 3.914-6.988 9.286-5.544 12.851s10.142 2.461 12.872 5.239c2.633 2.68 1.416 11.473 5.083 13.021 3.668 1.547 9.045-5.491 12.789-5.479"/><ellipse cx="129.731" cy="382.779" fill="#f9f3f1" rx="102.993" ry="103.295"/><path fill="#f3eae6" d="M129.731 279.484c-6.843 0-13.53.67-20 1.947 47.309 9.337 82.993 51.163 82.993 101.348s-35.684 92.01-82.993 101.348a103 103 0 0 0 20 1.947c56.882 0 102.993-46.247 102.993-103.295.001-57.048-46.111-103.295-102.993-103.295"/><path fill="#4fc123" d="M44.096 469.418c45.922 45.982 132.827 33.516 132.827 33.516s12.45-87.018-33.472-133-132.827-33.516-132.827-33.516-12.45 87.018 33.472 133"/><path d="M510.556 118.921c-.188-9.427-15.194-9.574-14.997.299.458 22.943-7.616 46.261-22.734 65.656-12.688 16.279-29.214 28.336-47.346 34.72a111 111 0 0 0 2.588-16.276c28.888-13.585 48.617-40.924 54.743-65.463 1.737-6.188.509-12.649-3.368-17.726q-.106-.138-.214-.274l.227-.295c3.838-5.104 5.026-11.567 3.258-17.734-3.934-13.72-12.475-33.363-30.823-49.033-13.225-11.295-27.833-19.013-43.421-22.938-6.09-1.536-12.432-.195-17.396 3.674l-.199.158-.148-.117c-5.008-3.88-11.398-5.201-17.534-3.623-15.681 4.037-30.354 11.912-43.614 23.406-9.638 8.356-17.477 18.591-23.344 30.467a110.5 110.5 0 0 0-14.289 2.47c10.488-31.188 36.762-56.861 68.199-66.53 16.696-5.248 34.555-6.179 51.646-2.689 16.602 3.388 32.338 10.929 45.507 21.806 13.045 10.775 23.416 24.683 29.992 40.218 3.78 8.931 17.594 3.082 13.813-5.848-14.892-35.803-48.279-63.365-86.313-70.874-19.578-3.997-40.029-2.933-59.143 3.076-18.981 5.965-36.393 16.73-50.352 31.133-14.881 15.354-25.591 34.649-30.634 55.433-21.702 9.248-40.188 25.382-52.383 46.538-13.886.2-23.324 1.491-24.486 1.658a7.5 7.5 0 0 0-6.359 6.361c-.119.834-2.654 18.994-1.138 43.269-48.93 4.814-92.274 43.011-103.52 90.81-21.851 9.223-40.468 25.416-52.727 46.684-13.886.2-23.324 1.491-24.487 1.658a7.5 7.5 0 0 0-6.36 6.363c-.145 1.018-3.522 25.276-.071 55.318 1.107 9.634 16.009 7.923 14.902-1.711-2.269-19.751-1.347-37.118-.593-45.734 19.594-1.705 84.504-4.247 120.708 32.003 31.352 31.393 33.627 84.54 32.579 110.878l-42.428-42.483c9.879-16.379 4.782-41.41-13.237-59.453a7.5 7.5 0 0 0-10.613 10.599c11.565 11.58 16.346 27.042 12.646 37.634l-69.281-69.371a7.5 7.5 0 0 0-10.606-.007 7.5 7.5 0 0 0-.007 10.606l69.314 69.404c-13.092 4.636-28.541-3.606-37.59-12.667-7.218-6.797-17.403 3.37-10.613 10.6 14.607 14.626 39.968 25.182 59.405 13.284l42.436 42.491c-26.275 1.073-79.323-1.17-110.744-32.631-9.821-9.834-17.585-22.639-23.077-38.059-3.253-9.134-17.384-4.103-14.131 5.033 23.751 74.251 108.498 86.482 165.755 79.27 3.313-.455 5.943-3.089 6.398-6.367.172-1.202 1.539-11.224 1.671-25.858a110.7 110.7 0 0 0 45.43-52.051c48.707-12.205 84.757-54.009 90.346-103.451 6.001.406 11.644.561 16.767.561 16.093 0 27.027-1.531 27.658-1.622a7.5 7.5 0 0 0 6.359-6.361c.172-1.202 1.539-11.223 1.671-25.858a110.68 110.68 0 0 0 45.616-52.483c52.07-12.507 91.764-63.934 90.686-117.951m-120.62-16.701q5.307-.054 9.641-3.398c.546 2.967 1.365 6.123 3.789 8.59 2.414 2.457 5.612 3.387 8.48 3.979-4.054 6.065-4.021 11.662.03 17.719-1.205.227-2.478.508-3.731.936a111.6 111.6 0 0 0-26.818-26.77c.562-1.402.921-2.851 1.202-4.225 2.138 1.444 4.541 2.82 7.407 3.169m78.431 31.582c-6.214 22.138-20.479 40.558-40.183 52.38a110.2 110.2 0 0 0-11.859-42.631c4.024-.716 9.721-1.934 12.055-7.537 1.29-3.098.901-5.994-.094-8.534l35.557-.065c2.941.621 5.537 2.779 4.524 6.387M400.293 45.36c.759-.591 2.358-1.5 4.511-.96 31.161 7.459 56.725 34.14 63.489 61.561.876 3.059-1.179 6.454-4.524 6.454l-35.226.065c3.476-9.574-4.748-14.102-12.286-15.513q-2.529.385-2.145-2.095c-.694-4.058-1.742-10.19-7.564-12.646-3.025-1.276-5.851-.94-8.341.007l-.002-30.082c.969-2.791-.682-4.63 2.088-6.791m-60.891 19.327c11.489-9.96 24.115-16.761 37.527-20.213 4.168-1.071 6.277 2.039 6.277 5.17l.002 32.496c-9.348-3.128-13.82 5.72-15.215 13.083a109.5 109.5 0 0 0-44.376-11.879c4.365-7.087 9.648-13.335 15.785-18.657M185.554 460.518c-1.875-29.982-10.021-69.073-36.797-95.884-27.201-27.238-67.06-35.224-97.183-36.932 17.754-25.385 46.707-40.718 78.157-40.718 92.348.32 130.259 119.28 55.823 173.534m90.353-143.968q5.311.882 4.451 6.39c-3.304 11.772-10.485 28.618-25.933 42.011-4.601 3.989-9.433 7.494-14.44 10.483a110.2 110.2 0 0 0-11.707-42.739c4.026-.715 9.752-1.923 12.093-7.544 1.291-3.098.902-5.994-.094-8.534l35.556-.066h.074zm-73.98-25.193q5.307-.056 9.641-3.399c1.305 7.09 5.193 11.111 12.269 12.568-1.636 2.448-3.285 5.372-3.302 8.821-.016 3.491 1.69 6.442 3.333 8.898-1.198.226-2.463.505-3.709.929a111.6 111.6 0 0 0-26.78-26.916l1.141-4.072zm77.531 8.324c-1.398 1.858-2.309 1.869-3.696 1.869l-35.227.066c.863-2.376 1.15-5.051-.004-7.901-2.329-5.749-8.318-6.871-12.282-7.613q-2.529.386-2.145-2.094c-.694-4.059-1.742-10.19-7.564-12.646-3.025-1.275-5.851-.939-8.34.008l-.002-30.084c1.171-3.376-.167-9.449 6.598-7.75 13.327 3.357 25.891 10.02 37.343 19.8 15.511 13.247 22.78 30.021 26.145 41.761.46 1.604.158 3.275-.826 4.584M195.2 271.276c-2.284-.765-4.835-.96-7.553.164-5.697 2.355-6.813 8.359-7.552 12.332l-.069.369a109.5 109.5 0 0 0-44.213-11.991c4.327-6.954 9.541-13.091 15.58-18.327 11.487-9.96 24.113-16.76 37.527-20.214 4.168-1.073 6.276 2.042 6.276 5.171zm41.964 137.443a111 111 0 0 0 2.629-16.133c26.937-13.177 46.911-36.748 55.007-65.592 1.745-6.217.43-12.932-3.58-18.001 3.98-5.093 5.265-11.821 3.484-18.03-7.797-31.74-37.817-63.381-74.244-71.971-6.09-1.536-12.433-.196-17.397 3.675.695-.542-15.982-4.071-17.881-3.583-28.387 7.309-53.646 27.216-66.761 53.475a110 110 0 0 0-14.33 2.424c14.464-41.474 54.1-70.598 98.638-70.871l.312-.001.147.002c117.985 2.628 143.764 163.896 33.976 204.606m121.17-101.376c-7.141.628-20.283 1.372-35.792.309-.823-64.659-52.916-117.26-117.262-118.518-.946-15.033-.224-27.72.387-34.685 108.834-8.699 161.224 44.646 152.667 152.894m15.452-35.607c-1.875-29.982-10.02-69.073-36.797-95.884-27.201-27.237-67.06-35.224-97.183-36.933 17.754-25.385 46.707-40.718 78.156-40.718 92.366.235 130.323 119.673 55.824 173.535"/></svg>