<svg xmlns="http://www.w3.org/2000/svg" width="512" height="512" viewBox="0 0 510.185 510.185"><path fill="#ffe5c2" d="M200.143 503.121q-1.641.577-3.225.248c-12.9-3.192-5.874-15.634-15.266-25.039-9.391-9.404-14.643-4.155-24.034-13.559s-4.139-14.653-13.53-24.058-14.643-4.155-24.034-13.559-4.139-14.653-13.53-24.057-14.644-4.156-24.035-13.56-4.14-14.654-13.531-24.059c-9.39-9.403-14.642-4.154-24.032-13.557s-4.139-14.653-13.529-24.057c-8.356-8.367-13.435-5.135-21.068-10.944-4.004-3.048-3.145-7.248-3.145-7.248 3.191-12.905 15.628-5.876 25.03-15.271 9.401-9.394 4.154-14.648 13.554-24.043s14.648-4.141 24.049-13.535 4.154-14.649 13.555-24.043 14.648-4.14 24.049-13.535 4.154-14.649 13.555-24.044 14.649-4.141 24.05-13.536c9.4-9.393 4.153-14.648 13.552-24.041 9.401-9.394 14.648-4.14 24.048-13.534 9.401-9.395 4.154-14.649 13.555-24.043 9.402-9.396 14.649-4.141 24.051-13.537s4.155-14.65 13.557-24.046 14.65-4.142 24.052-13.538 4.155-14.65 13.558-24.046c9.404-9.397 14.651-4.143 24.054-13.54 8.934-8.927 3.05-20.6 13.503-24.48a5.85 5.85 0 0 1 3.225-.247c12.9 3.192 5.874 15.634 15.266 25.039 9.391 9.404 14.643 4.155 24.034 13.559s4.139 14.653 13.53 24.058 14.643 4.155 24.035 13.559 4.139 14.653 13.53 24.057 14.644 4.156 24.035 13.56 4.14 14.654 13.531 24.059c9.39 9.403 14.642 4.154 24.032 13.557s4.139 14.653 13.529 24.057c8.356 8.367 13.435 5.135 21.068 10.944 2.647 2.014 3.657 5.729 2.653 8.697-3.727 11.015-15.583 4.851-24.629 13.89-9.401 9.394-4.154 14.648-13.554 24.043s-14.648 4.141-24.049 13.535-4.154 14.649-13.555 24.043-14.648 4.14-24.049 13.535-4.154 14.649-13.555 24.044-14.649 4.141-24.05 13.536c-9.4 9.393-4.153 14.648-13.552 24.041-9.401 9.394-14.648 4.14-24.048 13.534-9.401 9.395-4.154 14.649-13.555 24.043-9.402 9.396-14.649 4.141-24.051 13.537s-4.155 14.65-13.557 24.046-14.65 4.142-24.052 13.538-4.155 14.65-13.558 24.046c-9.404 9.397-14.651 4.143-24.054 13.54-6.181 6.174-4.118 22.197-13.413 24.411"/><path fill="#fed2a4" d="M498.771 193.059c-7.633-5.809-12.713-2.577-21.068-10.944-9.391-9.404-4.139-14.653-13.53-24.057s-14.642-4.154-24.032-13.557c-9.392-9.405-4.14-14.654-13.531-24.059-9.391-9.404-14.644-4.156-24.035-13.56s-4.139-14.653-13.53-24.057-14.643-4.155-24.035-13.559-4.139-14.653-13.53-24.058-14.643-4.155-24.034-13.559c-9.392-9.405-2.366-21.847-15.266-25.039a5.85 5.85 0 0 0-3.225.247c-10.453 3.88-4.569 15.553-13.503 24.48-1.508 1.507-2.909 2.637-4.238 3.511 7.195 5.01 12.206 2.289 20.265 10.359 9.391 9.404 4.139 14.653 13.53 24.058s14.643 4.155 24.035 13.559 4.139 14.653 13.53 24.057 14.644 4.156 24.035 13.56 4.14 14.654 13.531 24.059c9.39 9.403 14.642 4.154 24.032 13.557s4.139 14.653 13.53 24.057c8.356 8.367 13.435 5.135 21.068 10.944 2.647 2.014 3.657 5.729 2.653 8.697-3.727 11.015-15.583 4.851-24.629 13.89-9.401 9.394-4.154 14.648-13.554 24.043s-14.648 4.141-24.049 13.535-4.154 14.649-13.555 24.043-14.648 4.14-24.049 13.535-4.154 14.649-13.555 24.044-14.648 4.141-24.05 13.536c-9.4 9.393-4.153 14.647-13.552 24.041-9.401 9.394-14.648 4.14-24.048 13.534-9.401 9.395-4.154 14.649-13.555 24.043-9.402 9.396-14.649 4.141-24.051 13.537s-4.155 14.65-13.557 24.046-14.65 4.142-24.052 13.538-4.155 14.65-13.558 24.046c-7.859 7.854-12.815 5.474-19.72 9.966 1.187.827 2.434 1.865 3.763 3.196 9.392 9.405 2.366 21.846 15.266 25.039q1.583.33 3.225-.248c9.296-2.214 7.232-18.237 13.412-24.413 9.404-9.397 14.651-4.143 24.054-13.54s4.155-14.65 13.558-24.046 14.65-4.142 24.052-13.538 4.155-14.65 13.557-24.046 14.649-4.142 24.051-13.537 4.154-14.649 13.555-24.043 14.648-4.14 24.048-13.534c9.4-9.393 4.153-14.647 13.552-24.041 9.402-9.395 14.649-4.141 24.05-13.536s4.154-14.649 13.555-24.044 14.648-4.14 24.049-13.535 4.154-14.649 13.555-24.043 14.648-4.141 24.049-13.535 4.154-14.648 13.554-24.043c9.046-9.04 20.902-2.875 24.629-13.89 1.005-2.967-.006-6.681-2.652-8.696"/><g fill="#fd4755"><ellipse cx="166.265" cy="260.195" rx="20.075" ry="20.057"/><ellipse cx="260.76" cy="165.785" rx="20.075" ry="20.057"/><ellipse cx="248.906" cy="342.763" rx="20.075" ry="20.057"/><ellipse cx="160.929" cy="347.968" rx="20.075" ry="20.057"/><ellipse cx="254.223" cy="254.758" rx="20.075" ry="20.057"/><ellipse cx="347.517" cy="161.548" rx="20.075" ry="20.057"/><ellipse cx="343.402" cy="248.352" rx="20.075" ry="20.057"/></g><path d="M503.313 187.09c-4.473-3.403-8.395-4.516-11.545-5.41-3.278-.93-5.443-1.544-8.758-4.864-3.316-3.32-3.928-5.487-4.854-8.768-1.158-4.102-2.601-9.206-8.676-15.29s-11.177-7.53-15.275-8.693c-3.277-.93-5.441-1.544-8.757-4.863-3.316-3.321-3.929-5.488-4.855-8.769-1.158-4.102-2.601-9.207-8.676-15.291s-11.178-7.532-15.277-8.695c-3.277-.93-5.443-1.544-8.758-4.864-3.316-3.32-3.928-5.487-4.854-8.768-1.158-4.102-2.601-9.206-8.676-15.29s-11.178-7.532-15.276-8.695c-3.278-.93-5.443-1.544-8.758-4.864-3.316-3.32-3.928-5.487-4.854-8.768-1.159-4.102-2.601-9.206-8.676-15.29s-11.179-7.532-15.278-8.695c-3.276-.93-5.441-1.544-8.756-4.863-2.406-2.408-3.053-5.099-3.908-9.289-4.58-22.437-30.126-22.948-34.775-.313-.86 4.188-1.51 6.878-3.919 9.286-3.32 3.318-5.487 3.931-8.767 4.858-4.101 1.159-9.204 2.603-15.288 8.682-6.082 6.078-7.529 11.182-8.692 15.281-1.141 6.345-7.286 12.486-13.629 13.622-11.133 2.335-21.647 12.874-23.98 23.963-.93 3.279-1.545 5.446-4.865 8.764-3.319 3.316-5.485 3.929-8.764 4.855-4.101 1.159-9.204 2.603-15.287 8.682-6.082 6.077-7.528 11.18-8.691 15.28-.93 3.279-1.544 5.445-4.863 8.763-3.319 3.316-5.484 3.928-8.763 4.854-4.101 1.159-9.204 2.602-15.286 8.68s-7.528 11.18-8.691 15.279c-.929 3.279-1.543 5.445-4.861 8.762-3.319 3.316-5.485 3.929-8.764 4.855-11.12 2.326-21.651 12.875-23.978 23.961-.93 3.279-1.544 5.446-4.864 8.764-3.319 3.315-5.484 3.928-8.763 4.854-11.105 2.318-21.655 12.876-23.978 23.961-.93 3.279-1.544 5.445-4.863 8.762-3.319 3.316-5.485 3.929-8.763 4.855-4.101 1.159-9.204 2.602-15.286 8.68s-7.529 11.181-8.691 15.281c-.93 3.278-1.544 5.445-4.863 8.762-2.408 2.405-5.097 3.052-9.285 3.908-23.297 4.757-22.334 29.04-.296 35.297 3.277.93 5.443 1.544 8.758 4.864s3.927 5.486 4.854 8.767c1.158 4.102 2.6 9.206 8.676 15.29 2.483 2.486 4.995 4.391 7.679 5.822 8.257 4.404 15.595-8.683 7.058-13.236-1.356-.723-2.705-1.765-4.124-3.186-3.316-3.32-3.928-5.487-4.854-8.768-1.158-4.102-2.6-9.205-8.675-15.289s-11.178-7.532-15.277-8.695q-4.044-.558-6.777-3.119 1.684-3.444 5.981-3.051c4.713-.963 11.168-2.282 16.884-7.994 6.082-6.077 7.528-11.181 8.691-15.28.93-3.279 1.544-5.445 4.864-8.763 3.319-3.316 5.484-3.929 8.763-4.855 4.101-1.159 9.204-2.602 15.286-8.68s7.528-11.18 8.69-15.28c.93-3.279 1.544-5.445 4.864-8.763 3.319-3.316 5.484-3.929 8.763-4.855 4.101-1.159 9.204-2.602 15.286-8.679 6.082-6.078 7.529-11.181 8.692-15.281 1.15-6.356 7.277-12.477 13.628-13.619 11.091-2.311 21.658-12.876 23.977-23.96.929-3.279 1.543-5.445 4.862-8.762 3.318-3.316 5.484-3.928 8.762-4.854 4.101-1.159 9.204-2.602 15.286-8.68s7.529-11.18 8.691-15.28c1.144-6.347 7.283-12.483 13.628-13.619 4.101-1.159 9.204-2.602 15.287-8.681 6.082-6.078 7.529-11.181 8.692-15.281.93-3.28 1.545-5.446 4.865-8.765 3.32-3.317 5.486-3.93 8.765-4.857 11.132-2.334 21.646-12.874 23.979-23.962.931-3.28 1.545-5.447 4.865-8.764 3.321-3.318 5.487-3.931 8.768-4.858 4.101-1.159 9.205-2.603 15.288-8.683 5.717-5.712 7.041-12.166 8.009-16.879q-.168-3.57 2.329-5.689 3.452 1.681 3.057 5.986c.962 4.715 2.28 11.171 7.99 16.889 6.075 6.084 11.177 7.531 15.276 8.694 6.352 1.146 12.474 7.286 13.612 13.633 1.158 4.1 2.601 9.205 8.676 15.289s11.178 7.532 15.277 8.695c3.277.93 5.442 1.544 8.757 4.864 3.316 3.32 3.928 5.487 4.854 8.768 1.158 4.102 2.601 9.206 8.676 15.29s11.178 7.532 15.277 8.695c6.348 1.143 12.477 7.29 13.613 13.633 1.158 4.102 2.601 9.207 8.676 15.291s11.178 7.531 15.277 8.694c3.276.93 5.441 1.544 8.755 4.862 3.316 3.32 3.928 5.487 4.854 8.768 2.324 11.119 12.867 21.656 23.953 23.985q5.484-.393 6.646 3.242-1.612 3.427-5.941 2.994c-4.714.964-11.168 2.282-16.885 7.994-6.081 6.077-7.528 11.18-8.69 15.28-.93 3.279-1.544 5.445-4.863 8.762a7.5 7.5 0 0 0-.005 10.606 7.5 7.5 0 0 0 10.606.005c6.083-6.077 7.53-11.181 8.692-15.281.93-3.278 1.544-5.445 4.863-8.762 2.407-2.405 5.096-3.052 9.284-3.907 12.878-2.632 26.756-18.666 11.932-29.954M434.176 259.322a7.5 7.5 0 0 0-9.319 5.065c-.727 2.458-1.521 4.577-4.521 7.575-3.318 3.317-5.484 3.929-8.763 4.855-4.101 1.159-9.203 2.602-15.286 8.68-6.082 6.078-7.528 11.181-8.691 15.28-1.143 6.347-7.282 12.483-13.628 13.619-11.119 2.327-21.648 12.874-23.977 23.96-1.146 6.351-7.278 12.478-13.624 13.616-4.1 1.159-9.204 2.602-15.286 8.679-6.082 6.078-7.529 11.182-8.691 15.281-1.143 6.348-7.283 12.483-13.628 13.619-4.101 1.159-9.204 2.602-15.286 8.681s-7.529 11.182-8.692 15.281c-.931 3.28-1.545 5.447-4.864 8.765-3.32 3.317-5.486 3.93-8.766 4.857-4.101 1.159-9.204 2.602-15.288 8.681-6.082 6.078-7.529 11.181-8.692 15.281-.931 3.28-1.545 5.447-4.865 8.765s-5.487 3.931-8.766 4.858c-4.101 1.159-9.205 2.603-15.288 8.683-4.025 4.022-5.512 9.649-6.823 14.614-1.556 5.889-4.319 12.49-6.482 1.9-.962-4.714-2.281-11.171-7.99-16.888-6.076-6.084-11.178-7.532-15.277-8.695-6.348-1.145-12.476-7.287-13.612-13.632-1.158-4.102-2.6-9.206-8.676-15.29s-11.178-7.532-15.277-8.695c-3.277-.93-5.443-1.544-8.758-4.864-3.316-3.32-3.928-5.487-4.854-8.768-2.324-11.119-12.867-21.656-23.952-23.985-3.277-.93-5.443-1.544-8.76-4.866-1.552-1.554-2.619-2.974-3.357-4.468-4.295-8.695-17.744-2.049-13.448 6.645 1.464 2.962 3.49 5.719 6.193 8.423 6.076 6.086 11.178 7.533 15.277 8.697 3.277.93 5.443 1.544 8.758 4.864 3.316 3.32 3.928 5.487 4.854 8.768 1.158 4.102 2.6 9.206 8.675 15.29s11.178 7.532 15.277 8.695c3.278.93 5.443 1.544 8.758 4.864 3.316 3.32 3.928 5.487 4.855 8.768 1.158 4.102 2.6 9.206 8.676 15.29s11.177 7.531 15.276 8.694c3.277.931 5.442 1.545 8.758 4.865 2.405 2.408 3.052 5.099 3.907 9.289 5.16 25.266 29.858 20.982 35.681-1.071.786-2.974 1.763-6.676 2.923-7.835 3.32-3.318 5.487-3.931 8.767-4.858 11.119-2.327 21.651-12.877 23.979-23.963.931-3.28 1.545-5.447 4.865-8.765 3.32-3.317 5.486-3.93 8.766-4.857 4.1-1.159 9.203-2.602 15.287-8.681 6.082-6.078 7.529-11.182 8.692-15.281 1.141-6.343 7.283-12.487 13.629-13.621 11.117-2.326 21.651-12.876 23.978-23.961.93-3.279 1.544-5.446 4.864-8.764 3.318-3.316 5.483-3.928 8.762-4.854 11.105-2.319 21.653-12.874 23.977-23.959 1.143-6.348 7.281-12.48 13.626-13.617 4.101-1.159 9.203-2.602 15.286-8.68 6.082-6.078 7.528-11.181 8.691-15.281.931-3.279 1.545-5.446 4.864-8.763 3.318-3.316 5.484-3.929 8.763-4.855 4.101-1.159 9.203-2.602 15.286-8.68 5.218-5.215 7.073-9.777 8.303-13.932a7.5 7.5 0 0 0-5.066-9.318"/><path d="M100.19 307.481a20.07 20.07 0 0 0 5.924 14.29c7.881 7.874 20.704 7.873 28.585 0 7.845-7.521 7.845-21.058 0-28.579-7.88-7.874-20.704-7.874-28.585 0a20.06 20.06 0 0 0-5.924 14.289m16.526-3.678a5.227 5.227 0 0 1 7.381 0c2.021 1.936 2.02 5.42 0 7.356a5.23 5.23 0 0 1-7.382 0c-2.02-1.937-2.021-5.418.001-7.356M193.484 214.271a20.07 20.07 0 0 0 5.923 14.289c3.941 3.938 9.116 5.906 14.293 5.906 17.805.067 27.034-21.785 14.292-34.484-7.881-7.874-20.705-7.875-28.585-.001a20.07 20.07 0 0 0-5.923 14.29m16.525-3.678a5.227 5.227 0 0 1 7.381 0c2.02 1.937 2.02 5.419 0 7.355a5.227 5.227 0 0 1-7.382-.001c-2.02-1.936-2.019-5.416.001-7.354M286.778 121.061a20.07 20.07 0 0 0 5.924 14.289c7.881 7.875 20.705 7.875 28.585 0 7.847-7.522 7.846-21.058 0-28.579-7.881-7.874-20.704-7.872-28.585 0a20.07 20.07 0 0 0-5.924 14.29m16.525-3.679a5.23 5.23 0 0 1 7.382 0c2.02 1.937 2.021 5.419 0 7.356a5.23 5.23 0 0 1-7.382 0c-2.021-1.936-2.02-5.419 0-7.356M222.529 389.315a20.07 20.07 0 0 0-5.924-14.29c-7.88-7.872-20.703-7.874-28.585 0-7.845 7.521-7.846 21.058 0 28.579 7.881 7.874 20.704 7.874 28.585 0a20.07 20.07 0 0 0 5.924-14.289m-16.525 3.678a5.23 5.23 0 0 1-7.381 0c-2.021-1.937-2.02-5.42 0-7.356a5.23 5.23 0 0 1 7.382 0c2.019 1.937 2.019 5.418-.001 7.356M315.823 296.104a20.07 20.07 0 0 0-5.924-14.289c-7.879-7.872-20.703-7.874-28.586 0-7.847 7.522-7.846 21.058.001 28.58 7.881 7.872 20.704 7.871 28.585-.001a20.06 20.06 0 0 0 5.924-14.29m-16.524 3.678a5.23 5.23 0 0 1-7.384.001c-2.02-1.936-2.02-5.42 0-7.356a5.23 5.23 0 0 1 7.383 0c2.02 1.936 2.02 5.419.001 7.355M187.307 301.417a20.07 20.07 0 0 0 5.923 14.289c3.941 3.938 9.117 5.906 14.293 5.906 5.175-.001 10.352-1.969 14.292-5.905 7.847-7.521 7.847-21.059 0-28.58-12.52-12.669-34.655-3.511-34.508 14.29m16.526-3.678a5.227 5.227 0 0 1 7.381 0l.001.001c2.02 1.937 2.02 5.417-.001 7.354a5.23 5.23 0 0 1-7.381 0c-2.021-1.936-2.021-5.419 0-7.355M322.235 207.006a20.07 20.07 0 0 0-5.924-14.29c-7.882-7.874-20.705-7.872-28.585 0-7.846 7.521-7.846 21.058 0 28.579 7.88 7.875 20.704 7.875 28.585 0a20.07 20.07 0 0 0 5.924-14.289m-16.526 3.678a5.23 5.23 0 0 1-7.382 0c-2.021-1.937-2.02-5.42 0-7.356a5.23 5.23 0 0 1 7.382 0c2.021 1.937 2.021 5.418 0 7.356M368.684 202.894a20.07 20.07 0 0 0 5.924 14.289c7.881 7.874 20.704 7.874 28.586 0 7.846-7.521 7.846-21.058 0-28.578-7.881-7.873-20.705-7.873-28.586 0a20.06 20.06 0 0 0-5.924 14.289m16.525-3.678a5.23 5.23 0 0 1 7.383 0c2.02 1.937 2.02 5.419 0 7.355a5.23 5.23 0 0 1-7.383 0c-2.02-1.936-2.02-5.418 0-7.355M138.689 260.195c-.017 24.428 29.779 36.734 47.072 19.488 10.7-10.257 10.701-28.719 0-38.976-17.074-17.282-47.272-4.794-47.072 19.488m18.681-8.877c4.905-4.9 12.884-4.9 17.79 0 4.875 4.674 4.875 13.08 0 17.754-4.905 4.9-12.884 4.9-17.79 0-4.875-4.674-4.875-13.081 0-17.754M233.185 165.785c-.336 14.928 12.97 27.893 27.575 27.544 24.333.023 36.867-29.615 19.496-47.032-17.069-17.278-47.273-4.798-47.071 19.488m18.68-8.877c7.706-7.889 21.619-2.149 21.47 8.877.15 11.025-13.767 16.767-21.47 8.877-4.875-4.674-4.875-13.081 0-17.754M276.482 342.762c.197-24.289-30.001-36.766-47.071-19.488-10.7 10.256-10.701 28.72 0 38.976 10.75 10.741 28.242 10.741 38.992 0 5.209-5.204 8.079-12.125 8.079-19.488m-18.681 8.877c-4.904 4.9-12.885 4.9-17.789 0-4.875-4.673-4.875-13.081 0-17.754 12.222-11.325 29.136 5.562 17.789 17.754M188.505 347.968c.196-24.289-30.002-36.766-47.072-19.488-10.7 10.257-10.701 28.719 0 38.976 10.749 10.742 28.242 10.74 38.992 0 5.21-5.204 8.08-12.125 8.08-19.488m-18.681 8.877c-4.904 4.9-12.885 4.9-17.789 0-4.875-4.674-4.875-13.08 0-17.754 4.904-4.9 12.885-4.9 17.789 0 4.876 4.676 4.875 13.079 0 17.754M226.648 254.758c-.017 24.428 29.779 36.734 47.072 19.488 10.7-10.257 10.701-28.719 0-38.976-17.074-17.282-47.272-4.793-47.072 19.488m18.681-8.877c12.223-11.325 29.136 5.56 17.79 17.754-4.903 4.9-12.884 4.9-17.79 0-4.875-4.673-4.875-13.08 0-17.754M319.942 161.547c0 7.362 2.869 14.284 8.08 19.489 10.75 10.74 28.242 10.74 38.992 0 10.7-10.257 10.701-28.721 0-38.977-10.75-10.74-28.24-10.74-38.992-.001-5.21 5.206-8.08 12.127-8.08 19.489m18.681-8.876c4.905-4.9 12.884-4.9 17.789 0 4.876 4.673 4.874 13.081 0 17.754-4.904 4.898-12.885 4.898-17.789 0-4.876-4.674-4.877-13.08 0-17.754M370.977 248.352c.2-24.284-30.002-36.769-47.071-19.488-17.371 17.42-4.835 47.055 19.497 47.032 14.602.347 27.912-12.615 27.574-27.544m-18.681 8.877c-7.704 7.889-21.62 2.15-21.47-8.877-.205-6.739 5.988-12.758 12.575-12.551 10.983-.149 16.839 13.656 8.895 21.428M76.398 319.801c9.652 0 9.668-15 0-15-9.652 0-9.668 15 0 15M116.628 359.996c9.652 0 9.668-15 0-15-9.651 0-9.667 15 0 15M156.859 400.191c9.652 0 9.668-15 0-15-9.651 0-9.667 15 0 15M197.09 425.386c-9.652 0-9.668 15 0 15 9.652 0 9.668-15 0-15M123.482 257.76c-9.652 0-9.668 15 0 15 9.652 0 9.668-15 0-15M163.713 297.954c-9.652 0-9.668 15 0 15 9.651 0 9.667-15 0-15M203.943 353.149c9.652 0 9.668-15 0-15-9.651 0-9.667 15 0 15M244.174 393.344c9.652 0 9.668-15 0-15-9.651 0-9.667 15 0 15M170.566 210.718c-9.652 0-9.668 15 0 15 9.652 0 9.668-15 0-15M210.797 250.912c-9.652 0-9.668 15 0 15 9.652 0 9.668-15 0-15M251.028 306.107c9.652 0 9.668-15 0-15-9.652 0-9.668 15 0 15M291.258 346.302c9.652 0 9.668-15 0-15-9.651 0-9.667 15 0 15M217.65 163.676c-9.652 0-9.668 15 0 15 9.652 0 9.668-15 0-15M257.881 203.87c-9.652 0-9.668 15 0 15 9.652 0 9.668-15 0-15M298.112 244.065c-9.652 0-9.668 15 0 15 9.652 0 9.668-15 0-15M338.343 299.26c9.652 0 9.668-15 0-15-9.652 0-9.668 15 0 15M264.734 116.634c-9.652 0-9.668 15 0 15 9.652 0 9.668-15 0-15M304.965 156.829c-9.652 0-9.668 15 0 15 9.652 0 9.668-15 0-15M345.196 197.023c-9.652 0-9.668 15 0 15 9.652 0 9.668-15 0-15M385.427 252.218c9.652 0 9.668-15 0-15-9.652 0-9.668 15 0 15M311.818 69.592c-9.652 0-9.668 15 0 15 9.652 0 9.668-15 0-15M352.049 109.787c-9.652 0-9.668 15 0 15 9.652 0 9.668-15 0-15M392.28 149.982c-9.652 0-9.668 15 0 15 9.652 0 9.668-15 0-15M432.511 190.176c-9.652 0-9.668 15 0 15 9.652 0 9.668-15 0-15"/></svg>