<svg xmlns="http://www.w3.org/2000/svg" width="512" height="512" viewBox="0 0 512.026 512.026"><path fill="#ffbd86" d="M380.384 7.5c29.723 0 55.957 19.375 64.733 47.772 6.438 20.831 18.254 81.527-.806 119.239-11.866 23.477-96.849 97.942-102.029 188.168-1.527 26.586 2.331 61.193-7.848 83.888C314.709 490.544 268.587 507.3 212.827 457 144.562 395.419 34.055 268.21 10.464 189.988-4.261 141.164 38.435 7.5 85.435 7.5h139l30 46.427h59l26-46.427z"/><path fill="#c86d36" d="M278.075 457.858c-12.581 0-28.617-8.216-45.154-23.135-35.621-32.133-79.507-79.509-114.529-123.639-41.679-52.516-69.808-98.598-79.206-129.759-3.955-13.117-1.252-47.129 11.549-84.327 14.95-43.441 38.339-63.46 42.315-65.166L245.009 40l135.375-2.5c16.652 0 31.148 10.702 36.071 26.631 7.655 24.772 13.294 72.686 1.081 96.849-1.728 3.179-9.841 12.941-16.36 20.787-31.562 37.979-84.387 101.543-88.845 179.192-.473 8.216-.482 16.867-.492 25.233-.02 17.596-.043 37.539-4.778 48.097-4.824 10.753-13.766 23.569-28.986 23.569"/><path fill="#ac5e2e" d="M416.455 64.131C411.532 48.202 397.036 37.5 380.384 37.5l-34.323.421c14.199 2.124 26.041 12.123 30.394 26.21 7.655 24.772 13.294 72.686 1.081 96.849-1.728 3.179-9.841 12.941-16.36 20.787-31.562 37.979-84.387 101.543-88.845 179.193-.473 8.216-.482 16.867-.492 25.233-.02 17.596-.043 37.539-4.778 48.097-2.585 5.763-6.353 12.118-11.637 16.776 8.235 4.452 15.936 6.793 22.651 6.793 15.22 0 24.162-12.816 28.985-23.569 4.735-10.558 4.759-30.501 4.778-48.097.01-8.366.02-17.018.492-25.233 4.458-77.65 57.283-141.214 88.845-179.193 6.52-7.846 14.633-17.608 16.36-20.787 12.214-24.164 6.575-72.077-1.08-96.849"/><path fill="#f9f3f1" d="M299.991 7.5c-1.043 17.102-15.243 30.649-32.607 30.649S235.82 24.602 234.777 7.5H92.335c-8.221 0-12.93 9.368-8.026 15.966a36.4 36.4 0 0 0 29.21 14.684h75.715c19.936 0 36.829 14.681 39.609 34.422l25.354 280.226c.568 6.279 9.676 6.462 10.496.211l34.155-260.513a40 40 0 0 1 20.151-31.705L380.007 26.2c8.936-5.067 5.34-18.699-4.932-18.699h-75.084z"/><path d="M451.004 177.895c20.291-40.146 7.803-103.726 1.279-124.836C442.475 21.322 413.582 0 380.384 0h-80.393a7.5 7.5 0 0 0-7.486 7.043c-2.805 31.265-47.448 31.243-50.242 0A7.5 7.5 0 0 0 234.776 0H85.434C57.645 0 36.67 35.536 26.64 56.719c-4.042 8.538 9.427 15.145 13.557 6.42 10.826-22.863 23.17-38.737 34.633-45.072.167 5.256 3.017 9.772 6.477 13.5-3.363 3.191-7.235 7.427-11.238 12.617-24.944 28.17-47.426 109.241-38.063 139.308 21.8 72.676 132.064 199.687 195.893 256.8 27.358 24.681 67.138 39.134 86.006-2.934 5.392-12.021 5.415-32.813 5.436-51.175.01-8.257.02-16.795.479-24.795 4.316-75.184 56.153-137.559 87.143-174.849 9.113-10.968 15.232-18.423 17.165-21.979q.053-.097.104-.198c13.291-26.295 7.645-75.736-.608-102.446-5.246-16.972-19.562-28.993-36.766-31.45a17.18 17.18 0 0 0 5.686-14.249c21.277 4.321 38.784 19.827 45.41 41.271 3.271 10.581 7.547 30.426 8.839 51.532 1.569 25.653-1.603 47.131-9.173 62.109-2.567 5.08-10.246 14.319-19.137 25.018-36.041 42.169-89.465 111.233-84.142 190.073-.023 20.814-.048 42.339-6.748 57.278-23.122 51.551-74.802 39.448-109.74 7.933-37.031-33.404-80.801-80.642-117.083-126.358-55.63-70.095-75.908-113.326-83.123-137.249-5.286-17.529-2.54-49.477 7.165-83.377 2.67-9.322-11.752-13.452-14.42-4.129-10.613 37.068-13.27 71.399-7.106 91.837 24.284 80.52 136.396 208.961 204.521 270.415 42.596 38.424 105.894 48.551 133.474-12.933 8.01-17.86 8.036-41.012 8.062-63.4.01-8.209.019-15.964.43-23.128 3.752-65.325 51.638-122.946 80.248-157.374 10.244-12.335 17.65-21.245 20.983-27.84m-41.715-111.55c7.57 24.496 12.326 69.738 1.613 91.133-1.517 2.674-10.584 13.586-15.496 19.497-32.151 38.688-85.964 103.441-90.562 183.554-.484 8.421-.495 17.173-.505 25.655-.018 16.011-.04 35.937-4.121 45.036-14.15 31.547-42.768 15.531-62.273-2.065-61.647-55.12-170.4-180.014-191.578-249.993-3.098-10.273-1.59-41.799 11.46-79.722 12.149-35.304 29.162-52.867 35.71-58.627a43.9 43.9 0 0 0 19.984 4.837h75.715c16.043 0 29.836 11.937 32.157 27.794l25.336 280.03c1.354 14.964 23.453 15.385 25.402.509l12.106-92.342c1.26-9.616-13.614-11.56-14.873-1.949l-9.502 72.477-23.548-260.273a8 8 0 0 0-.043-.37c-3.282-23.303-23.503-40.876-47.036-40.876H113.52c-9.056 0-17.787-4.387-23.191-11.658q-1.458-3.232 2.007-3.991h136.016c10.364 40.62 67.716 40.594 78.064 0h68.66q4.218 1.387 1.233 4.675l-61.008 34.591a47.44 47.44 0 0 0-23.913 37.443l-16.835 128.4c-1.26 9.616 13.614 11.561 14.873 1.949l16.86-128.589q.026-.197.041-.396a32.46 32.46 0 0 1 16.373-25.76l38.952-22.085L380.384 45c13.343 0 24.96 8.578 28.905 21.345M506.764 279.416a7.501 7.501 0 0 0-4.51-14.306c-11.926 3.761-20.969 10.073-27.749 16.898 2.657-11.478 6.584-20.699 11.539-27.001a7.5 7.5 0 0 0-1.26-10.531 7.5 7.5 0 0 0-10.531 1.26c-9.455 12.023-15.037 28.947-16.521 44.041-6.427-8.249-15.681-17.078-28.603-23.371-9.05-4.063-15.343 8.875-6.566 13.486 14.092 6.862 29.843 21.841 33.272 37.723-4.584-5.046-10.528-10.278-17.862-14.196a7.5 7.5 0 0 0-7.068 13.23c13.463 7.192 21.267 20.736 22.837 23.662-1.23 9.647-2.862 18.772-4.843 27.402-3.088-8.083-7.833-16.725-15.103-24.807a7.5 7.5 0 0 0-11.153 10.031c16.716 18.584 16.989 41.486 16.865 46.021-3.575 9.435-7.809 18.651-12.73 27.462 1.385-11.702.915-24.996-2.656-39.781-.972-4.026-5.023-6.507-9.051-5.529a7.5 7.5 0 0 0-5.529 9.051c7.201 29.819-.122 52.461-8.24 66.86-.914-9.958-3.705-22.162-10.365-35.525a7.5 7.5 0 0 0-13.426 6.692c11.919 23.916 9.315 42.806 8.073 48.574-10.395 8.808-20.976 15.723-31.005 21.142-8.348 4.51-1.225 17.713 7.129 13.197 12.356-6.675 23.794-14.524 34.256-23.494 6.28-1.617 29.987-7.13 51.865-4.473a7.5 7.5 0 0 0 1.809-14.891c-9.858-1.198-19.865-.964-28.788-.131 12.286-7.255 28.629-14.778 44.379-15.445a7.5 7.5 0 0 0 7.176-7.811c-.176-4.139-3.666-7.376-7.811-7.176-10.915.462-21.832 3.548-31.786 7.659a207 207 0 0 0 6.922-11.482c4.419-2.719 19.784-11.18 42.148-12.845a7.5 7.5 0 0 0 6.923-8.036c-.309-4.13-3.908-7.22-8.036-6.923-12.124.902-22.448 3.523-30.574 6.415a234 234 0 0 0 3.337-8.319c3.418-3.984 20.685-22.301 47.396-20.205 4.148.338 7.739-2.763 8.062-6.893a7.5 7.5 0 0 0-6.893-8.062c-12.435-.968-23.192 1.456-32.068 5.198 6.848-9.542 14.005-16.55 20.997-20.507a7.501 7.501 0 0 0-7.389-13.055c-6.187 3.501-11.818 8.356-16.825 13.766a311 311 0 0 0 2.136-14.864c4.132-4.704 13.711-14.436 24.818-17.81a7.5 7.5 0 0 0 4.996-9.355 7.496 7.496 0 0 0-9.355-4.996c-6.94 2.108-13.242 5.867-18.509 9.873 2.708-17.356 19.904-32.79 35.87-37.823"/></svg>