<svg xmlns="http://www.w3.org/2000/svg" width="512" height="512" viewBox="0 0 511.128 511.128"><path fill="#5b5555" d="M468.761 360.58v52.975c0 50.186-95.785 90.87-213.943 90.87s-213.943-40.684-213.943-90.87V360.58z"/><path fill="#fd4755" d="M57.708 301.36c-12.519 0-22.667 9.368-22.667 20.924 0 3.628 1 7.039 2.76 10.013-9.259.222-16.691 7.22-16.691 15.82 0 8.74 7.676 15.826 17.144 15.826q.898 0 1.771-.083c-4.222 4.861-6.748 11.031-6.748 17.747 0 15.68 13.77 28.391 30.756 28.391 2.072 0 4.097-.19 6.054-.551.371 8.174 7.667 14.696 16.613 14.696 3.813 0 7.326-1.185 10.131-3.177.211 14.609 13.106 26.392 28.983 26.392 7.258 0 13.893-2.462 18.978-6.532 1.534 10.179 11 18.015 22.45 18.015 4.873 0 9.387-1.42 13.083-3.835 2.015 6 8.074 10.357 15.236 10.357 6.379 0 11.883-3.457 14.434-8.452 2.886 8.493 11.479 14.654 21.632 14.654 8.611 0 16.101-4.432 19.937-10.96 2.578 6.4 9.256 10.96 17.088 10.96 7.817 0 14.485-4.543 17.074-10.925 5.349 9.412 16.037 15.832 28.35 15.832 15.926 0 29.134-10.742 31.586-24.805 3.483 2.267 7.732 3.599 12.318 3.599 11.819 0 21.401-8.845 21.401-19.755q0-.481-.025-.956c5.317 4.003 12.106 6.404 19.502 6.404 17.053 0 30.877-12.761 30.877-28.502 0-2.387-.318-4.706-.917-6.923 3.018 2.057 6.75 3.274 10.789 3.274 10.041 0 18.181-7.514 18.181-16.782 0-2.962-.831-5.744-2.29-8.16 1.716.301 3.488.459 5.3.459 15.566 0 28.184-11.648 28.184-26.016 0-11.011-7.411-20.424-17.879-24.222 2.491-3.36 3.948-7.424 3.948-11.802 0-11.556-10.148-20.924-22.667-20.924z"/><path fill="#fb2b3a" d="M471.102 334.086c2.49-3.36 3.948-7.424 3.948-11.802 0-11.556-10.148-20.924-22.667-20.924h-40c12.519 0 22.667 9.368 22.667 20.924 0 4.378-1.457 8.443-3.948 11.802 10.468 3.798 17.879 13.211 17.879 24.222 0 14.368-12.618 26.016-28.184 26.016-1.812 0-3.583-.158-5.3-.459a15.7 15.7 0 0 1 2.29 8.16c0 9.269-8.14 16.782-18.181 16.782-4.04 0-7.771-1.217-10.789-3.274.599 2.217.917 4.535.917 6.923 0 15.741-13.824 28.502-30.877 28.502-7.396 0-14.185-2.401-19.502-6.404q.025.475.025.956c0 10.91-9.581 19.755-21.401 19.755-4.586 0-8.834-1.332-12.317-3.599-1.287 7.381-5.537 13.846-11.586 18.324 5.478 4.055 12.432 6.481 20 6.481 15.927 0 29.134-10.742 31.586-24.805 3.483 2.267 7.732 3.599 12.317 3.599 11.819 0 21.401-8.844 21.401-19.755q0-.481-.025-.956c5.317 4.003 12.106 6.404 19.502 6.404 17.053 0 30.877-12.761 30.877-28.502 0-2.387-.318-4.706-.917-6.923 3.018 2.057 6.75 3.274 10.79 3.274 10.041 0 18.18-7.514 18.18-16.782 0-2.962-.831-5.744-2.29-8.16 1.717.302 3.488.459 5.3.459 15.566 0 28.184-11.648 28.184-26.016 0-11.01-7.411-20.424-17.879-24.222"/><path fill="#5b5555" d="M468.761 229.438v52.975c0 50.186-95.785 90.87-213.943 90.87s-213.943-40.684-213.943-90.87v-52.975z"/><path fill="#fd4755" d="M58.708 174.718c-12.519 0-22.667 8.91-22.667 19.9 0 3.45 1 6.695 2.76 9.524-9.259.211-16.691 6.867-16.691 15.046 0 8.313 7.676 15.051 17.144 15.051q.898 0 1.771-.079c-4.222 4.623-6.748 10.492-6.748 16.879 0 14.913 13.77 27.002 30.756 27.002 2.072 0 4.097-.18 6.054-.524.371 7.774 7.667 13.977 16.613 13.977 3.813 0 7.326-1.127 10.131-3.021.211 13.895 13.106 25.101 28.983 25.101 7.258 0 13.893-2.342 18.978-6.212 1.534 9.681 11 17.133 22.45 17.133 4.873 0 9.387-1.35 13.083-3.648 2.015 5.706 8.074 9.851 15.236 9.851 6.379 0 11.883-3.288 14.434-8.038 2.886 8.077 11.479 13.937 21.632 13.937 8.611 0 16.101-4.216 19.937-10.424 2.578 6.087 9.256 10.424 17.088 10.424 7.817 0 14.485-4.321 17.074-10.391 5.349 8.951 16.037 15.057 28.35 15.057 15.926 0 29.134-10.216 31.586-23.591 3.483 2.156 7.732 3.423 12.318 3.423 11.819 0 21.401-8.412 21.401-18.788q0-.458-.025-.909c5.317 3.807 12.106 6.091 19.502 6.091 17.053 0 30.877-12.137 30.877-27.108 0-2.271-.318-4.476-.917-6.584 3.018 1.957 6.75 3.114 10.789 3.114 10.041 0 18.181-7.146 18.181-15.961 0-2.817-.831-5.463-2.29-7.761 1.716.287 3.488.437 5.3.437 15.566 0 28.184-11.078 28.184-24.744 0-10.472-7.411-19.425-17.879-23.037 2.491-3.195 3.948-7.061 3.948-11.225 0-10.991-10.148-19.9-22.667-19.9H58.708z"/><path fill="#fb2b3a" d="M472.102 205.844c2.49-3.195 3.948-7.061 3.948-11.225 0-10.991-10.148-19.9-22.667-19.9h-40c12.519 0 22.667 8.91 22.667 19.9 0 4.164-1.457 8.029-3.948 11.225 10.468 3.612 17.879 12.565 17.879 23.037 0 13.665-12.618 24.744-28.184 24.744-1.812 0-3.583-.15-5.3-.437 1.458 2.297 2.29 4.944 2.29 7.761 0 8.815-8.14 15.961-18.181 15.961-4.04 0-7.771-1.157-10.789-3.114.599 2.108.917 4.313.917 6.584 0 14.971-13.824 27.108-30.877 27.108-7.396 0-14.185-2.283-19.502-6.091q.025.452.025.909c0 10.376-9.581 18.788-21.401 18.788-4.586 0-8.834-1.267-12.317-3.423-1.287 7.02-5.537 13.169-11.586 17.428 5.478 3.857 12.432 6.164 20 6.164 15.927 0 29.134-10.216 31.586-23.591 3.483 2.156 7.732 3.423 12.317 3.423 11.819 0 21.401-8.412 21.401-18.788q0-.457-.025-.909c5.317 3.807 12.106 6.091 19.502 6.091 17.053 0 30.877-12.137 30.877-27.108 0-2.271-.318-4.476-.917-6.584 3.018 1.957 6.75 3.114 10.79 3.114 10.041 0 18.18-7.146 18.18-15.961 0-2.817-.831-5.464-2.29-7.761 1.717.287 3.488.437 5.3.437 15.566 0 28.184-11.078 28.184-24.744 0-10.474-7.411-19.426-17.879-23.038"/><path fill="#5b5555" d="M468.761 98.295v52.975c0 50.186-95.785 90.87-213.943 90.87S40.875 201.456 40.875 151.27V98.295z"/><path fill="#fee97d" d="M482.835 104.273c0-53.488-102.086-96.848-228.016-96.848S26.802 50.785 26.802 104.273v73.49c0 10.958 8.883 19.841 19.841 19.841s19.841-8.883 19.841-19.841v44.536c0 10.958 8.883 19.841 19.841 19.841s19.841-8.883 19.841-19.841v-44.587c39.916 14.589 91.859 23.408 148.651 23.408q1.996 0 3.984-.015v42.602c0 10.958 8.883 19.841 19.841 19.841s19.842-8.883 19.842-19.841v32.554c0 10.958 8.883 19.841 19.841 19.841s19.841-8.883 19.841-19.841v-44.107c0 10.958 8.883 19.841 19.842 19.841s19.841-8.883 19.841-19.841v-46.329c25.786-7.033 48.02-16.211 65.301-26.942v42.395c0 10.958 8.883 19.841 19.842 19.841s19.841-8.883 19.841-19.841v-93.49h-.148q.15-1.75.15-3.515"/><path fill="#fedf30" d="M482.835 104.273c0-53.488-102.086-96.848-228.016-96.848-6.739 0-13.41.124-20 .368 116.563 4.302 208.016 45.855 208.016 96.48q0 1.766-.148 3.516h.148v51.291l.317-.196v42.395c0 10.958 8.883 19.841 19.842 19.841s19.841-8.883 19.841-19.841v-93.49h-.148q.148-1.75.148-3.516"/><path fill="#f3eae6" d="m66.485 177.828-.317-.115v3.603c.204-1.133.313-2.298.317-3.488"/><path d="M481.187 330.768c3.589-10.547-.073-22.627-8.681-29.681 2.499-6.067 3.755-12.301 3.755-18.674v-24.057c20.695-7.892 28.45-33.422 13.128-49.938a27.3 27.3 0 0 0 .945-7.139v-97.006c0-29.069-25.34-55.842-71.353-75.385C348.075-2.275 231.083-8.084 149.044 10.776a7.502 7.502 0 0 0 3.203 14.655c79.002-18.127 192.836-12.718 260.871 17.266 39.539 16.793 62.216 39.237 62.216 61.577v97.006c0 6.806-5.536 12.342-12.341 12.342-6.806 0-12.342-5.536-12.342-12.342v-42.395c0-5.347-6.262-9.594-11.457-6.371-16.786 10.424-38.089 19.197-63.317 26.078a7.5 7.5 0 0 0-5.526 7.235v46.329c0 6.805-5.536 12.341-12.341 12.341-6.806 0-12.342-5.536-12.342-12.341 0-9.697-15-9.697-15 0v44.106c-.612 16.328-24.056 16.365-24.683 0v-32.554c0-9.697-15-9.697-15 0-.61 16.337-24.064 16.354-24.683 0v-42.602c0-7.071-6.516-7.485-11.484-7.485-53.704 0-105.582-8.151-146.075-22.952q-8.708-1.728-10.075 7.044V222.3c0 6.805-5.536 12.341-12.342 12.341-6.805 0-12.341-5.536-12.341-12.341v-44.536c0-9.697-15-9.697-15 0-.616 16.345-24.066 16.347-24.683 0v-73.49c0-25.774 30.122-51.401 80.577-68.551a7.5 7.5 0 0 0-4.828-14.202C52.38 41.123 19.303 71.286 19.303 104.273v73.49c0 8.284 3.703 15.719 9.541 20.737l.031.194c-18.932 7.781-18.859 33.143.041 40.965-4.077 10.125-2.128 22.276 4.46 30.733v12.021c0 6.491 1.347 12.816 3.926 18.925-7.34 6.272-11.057 16.057-9.362 25.555-19.088 8.144-18.954 34.363.136 42.468-4.495 11.122-2.16 24.655 5.301 33.694-13.569 143.413 439.638 141.22 442.883 10.497.001.003.001-25.042.001-25.042 24.165-10.539 27.467-43.424 4.926-57.742m-45.535-158.971v18.899c-12.821 9.398-30.007 17.822-50.301 24.671v-23.859c18.988-5.502 35.837-12.105 50.301-19.711m-184.349 36.812v26.02c-51.372-.356-99.887-8.504-137.635-23.091v-23.302c39.5 12.879 87.79 20.051 137.635 20.373m-221.692 10.58c0-4.044 4.2-7.431 9.362-7.549 6.851-.157 5.541-6.536 7.671-6.536a27.2 27.2 0 0 0 12.342-2.947V222.3c.868 33.203 47.367 37.258 54.209 5.08 38.834 14.133 87.532 21.972 138.755 22.254 3.313 16.855 23.616 26.738 39.036 18.469v8.16c1.375 36.225 53.315 36.209 54.683 0V256.55c17.989 9.545 40.749-4.977 39.683-25.396 19.833-6.326 37.219-14.129 51.191-22.945 4.767 19.196 29.26 27.037 44.239 13.819 7.789 14.892-10.157 25.91-23.049 23.763-5.684-.953-11.259 5.6-7.565 11.417 6.004 9.463-9.683 14.564-16.271 10.295-5.694-3.69-13.149 1.821-11.292 8.347 5.093 19.812-22.482 31.015-37.88 19.45-6.501-4.655-11.843 1.477-11.843 7.007.06 9.692-14.089 14.424-22.271 8.989q-8.316-3.47-11.324 5.024c-3.875 20.014-35.935 23.582-46.122 6.039-3.087-5.167-10.976-4.63-13.336.905-3.189 7.708-17.189 7.697-20.356-.016-2.332-5.507-10.143-6.104-13.286-1.019-5.943 9.935-24.236 8.783-28.127-2.094-2.145-6.006-10.655-6.644-13.67-1.024-2.867 5.695-13.946 5.28-15.99-.761q-3.66-7.221-11.031-3.873c-8.308 5.581-22.803 1.376-24.167-8.29q-3.254-9.177-11.949-4.794c-12.545 10.023-35.61 2.976-35.92-13.035-.082-5.398-6.55-9.582-11.697-6.101-4.205 2.84-14.725 1.801-15.054-5.097q-1.217-7.482-8.784-7.031c-16.585 2.899-38.178-14.548-23.231-30.912 5.57-6.099-1.012-12.479-7.31-12.479-5.23.002-9.646-3.456-9.646-7.549m373.555 251.718c-77.376 34.434-219.32 34.434-296.695 0-36.445-15.479-57.546-36.048-58.083-56.55 4.875 2.058 10.652 3.139 15.985 3.139 4.363 10.091 16.163 15.624 26.777 13.762 6.113 18.874 30.869 29.183 49.773 20.527 6.655 11.743 23.148 17.706 36.452 12.915 7.064 8.723 21.779 10.777 31.25 4.371 10.079 11.736 30.33 13.331 42.389 3.351 9.206 8.595 25.382 8.788 34.804.406 18.794 18.646 53.871 12.874 64.473-11.036 13.65 3.842 29.362-3.603 34.402-15.879 22.573 9.015 50.256-6.361 52.337-29.726 9.209.866 18.999-3.381 24.231-11.121v8.488c0 20.768-21.175 41.672-58.095 57.353m63.872-94.944c-3.292.774-6.899 1.104-10.242.516-5.646-.998-11.246 5.42-7.72 11.263 5.851 9.69-8.635 16.642-16.035 11.595-5.637-3.841-13.245 1.57-11.465 8.155 5.755 21.281-22.492 32.531-37.709 21.072-6.542-4.926-11.987 1.381-11.987 6.947.14 10.197-13.689 15.71-22.127 9.87q-8.43-3.681-11.479 4.998c-3.864 21.124-35.581 25.268-46.027 6.555-3.04-5.347-11.158-4.813-13.471.887-3.272 8.255-17.003 8.242-20.254-.018-2.283-5.666-10.327-6.269-13.423-.998-6.079 10.587-24.076 9.223-28.002-2.307-2.092-6.156-10.824-6.786-13.781-.998-3.074 6.023-13.629 5.826-15.88-.883q-3.697-7.45-11.214-3.891c-8.569 5.952-22.642 1.168-24.014-9.019-.785-5.212-7.427-8.48-12.103-4.737-12.861 10.738-35.594 2.628-35.775-14.113-.078-5.46-6.692-9.662-11.842-6.006-4.679 3.322-14.591 1.239-14.908-5.744-.361-8.016-8.47-6.61-13.547-6.61-6.991 0-13.271-2.785-17.538-7.185a8 8 0 0 0-.354-.374c-6.825-7.022-7.202-18.772-.454-26.161 5.355-6.164-1.203-12.334-7.434-12.334-12.599-.389-12.841-15.917-.272-16.648q9.621-2.064 6.273-11.317c-2.603-4.273-2.169-9.821.918-13.733 42.172 60.936 214.557 80.502 311.581 55.273 9.458-2.135 6.157-16.768-3.305-14.631-74.439 17.629-182.539 12.774-246.979-15.623-36.92-15.681-58.095-36.585-58.095-57.352 4.271 1.597 11.929 3.161 17.099 3.127 4.538 9.832 16.381 14.869 26.761 13.068 6.36 18.217 31.059 27.753 49.766 19.482 6.71 11.302 23.318 16.929 36.452 12.301 7.09 8.4 21.905 10.292 31.246 4.153 10.106 11.249 30.28 12.722 42.278 3.181 8.986 8.255 25.692 8.426 34.891.384 18.59 17.715 53.597 12.434 64.333-10.475 13.45 3.736 29.31-3.317 34.41-15.119 22.111 8.654 50.111-5.763 52.38-28.225 8.699.796 17.704-2.544 23.27-9.415.376 9.585-1.428 16.969-5.293 25.852-9.631 16.53-32.092 31.877-64.789 43.746-8.988 3.262-3.65 17.286 5.117 14.1 24.216-8.79 43.459-19.526 57.194-31.91 4.378-3.947 8.13-8.001 11.252-12.15q5.442 7.497.335 15.106-4.048 7.499 3.467 11.519c18.078 6.57 16.643 29.727-1.505 34.826"/><path d="M119.779 87.01q5.304 4.392 10.607 0c4.602-4.602 10.568-7.247 16.803-7.448 6.044-.183 11.642 1.955 15.742 6.056q5.303 4.394 10.607.001c2.722-2.722 6.288-4.226 10.042-4.235 3.657-.009 7.07 1.381 9.601 3.913a7.5 7.5 0 0 0 10.607-10.607c-5.374-5.374-12.569-8.325-20.245-8.306a28.94 28.94 0 0 0-15.194 4.332c-6.251-4.247-13.741-6.406-21.644-6.146-10.058.324-19.62 4.527-26.927 11.833a7.503 7.503 0 0 0 .001 10.607M261.387 149.283a7.48 7.48 0 0 0 5.304-2.196c5.261-5.262 14.273-5.691 19.642-.322a7.5 7.5 0 0 0 10.606.001 7.5 7.5 0 0 0 .001-10.606c-5.374-5.375-12.524-8.354-20.244-8.307-7.747.019-15.067 3.082-20.612 8.627-4.453 4.452-.995 12.803 5.303 12.803M336.31 112.389c8.597-8.597 22.388-8.794 30.744-.439 7.228 6.793 17.399-3.386 10.605-10.607-14.203-14.203-37.512-14.005-51.957.441-6.857 6.857 3.751 17.462 10.608 10.605"/></svg>