<svg xmlns="http://www.w3.org/2000/svg" width="512" height="512" viewBox="0 0 514.403 514.403"><path fill="#f9f3f1" d="M148.51 7.5c-22.783 38.728-36.62 84.638-36.62 121.649 0 80.253 65.058 145.311 145.311 145.311s145.311-65.058 145.311-145.311c0-37.011-13.837-82.92-36.62-121.649z"/><path fill="#f3eae6" d="M365.893 7.5h-40c22.783 38.729 36.62 84.638 36.62 121.649 0 73.468-54.522 134.201-125.311 143.946 6.538.9 13.215 1.366 20 1.366 80.253 0 145.311-65.058 145.311-145.312 0-37.012-13.837-82.921-36.62-121.649"/><path fill="#fd4755" d="M122.091 182.737c21.329 53.732 73.783 91.723 135.111 91.723s113.781-37.992 135.11-91.723z"/><path fill="#fb2b3a" d="M352.312 182.737c-18.969 47.787-62.557 83.124-115.11 90.358 6.538.9 13.215 1.365 20 1.365 61.327 0 113.781-37.992 135.11-91.723z"/><path fill="#f9f3f1" d="M257.202 475.333c-34.302 0-71.707 9.138-101.009 27.4q-1.846 1.15 1.203 4.17h199.613q3.05-3.02 1.203-4.17c-29.166-18.176-66.8-27.678-101.01-27.4"/><path fill="#f3eae6" d="M358.211 502.733c-29.165-18.177-66.799-27.678-101.01-27.4-6.423 0-12.956.321-19.523.961 28.199 2.831 57.099 11.834 80.532 26.439q1.846 1.15-1.203 4.17h40q3.052-3.018 1.204-4.17"/><path d="M160.736 46.905c-.764 1.64-18.701 40.584-18.701 76.498 0 4.143 3.358 7.5 7.5 7.5s7.5-3.357 7.5-7.5c0-32.545 17.128-69.798 17.301-70.171a7.5 7.5 0 0 0-13.6-6.327"/><path d="M362.178 496.368c-27.592-17.196-62.764-27.41-97.477-28.453V281.778c80.243-3.897 145.312-72.338 145.312-152.629 0-38.472-14.077-85.369-37.656-125.451A7.5 7.5 0 0 0 365.893 0h-32.47c-9.907.303-9.917 14.694 0 15h28.139c28.286 53.057 43.7 107.345 25.525 160.236H127.316C109.14 122.356 124.557 68.046 152.841 15H293.53c4.142 0 7.5-3.357 7.5-7.5s-3.358-7.5-7.5-7.5H148.51a7.5 7.5 0 0 0-6.464 3.697c-23.579 40.082-37.656 86.979-37.656 125.451 0 80.295 65.063 148.732 145.312 152.629V467.97c-35.157 1.279-70.31 11.468-97.477 28.398-7.707 4.806-3.493 18.035 5.17 18.035h46.799c9.697 0 9.697-15 0-15h-25.791c23.626-10.649 51.372-16.57 78.859-16.57 26.711-.215 54.849 5.826 78.711 16.57h-91.878c-9.697 0-9.697 15 0 15h112.912c8.664 0 12.879-13.229 5.171-18.035M133.683 190.236H380.72c-49.621 101.671-197.456 101.615-247.037 0"/></svg>