<svg xmlns="http://www.w3.org/2000/svg" width="512" height="512" viewBox="0 0 511.952 511.952"><path fill="#f9f3f1" d="M88.995 7.5h333.963v425.206H88.995z"/><path fill="#f3eae6" d="M382.957 7.5h40v425.206h-40z"/><path fill="#fd4755" d="m295.727 504.5-70.761-24.574V54.72l70.761 24.574z"/><path fill="#4fc123" d="M88.995 7.5v425.206l70.76 24.574V32.074z"/><path fill="#f9f3f1" d="M159.755 32.074V457.28l65.211 22.646V54.72z"/><ellipse cx="191.458" cy="256.616" fill="#766e6e" rx="66.582" ry="78.071" transform="rotate(-14.83 190.986 256.11)"/><path fill="#5b5555" d="M257.003 244.611c-8.651-42.214-45.01-71.061-81.21-64.43a57 57 0 0 0-9.391 2.557c24.212 8.511 44.438 31.8 50.601 61.874 7.876 38.429-9.925 74.689-40.49 85.885 9.774 3.436 20.198 4.464 30.609 2.557 36.2-6.632 58.533-46.229 49.881-88.443"/><path d="M422.957 62.5a7.5 7.5 0 0 0 7.5-7.5V7.5a7.5 7.5 0 0 0-7.5-7.5H89.045c-4.146 0-7.551 3.327-7.551 7.5v425.206a7.5 7.5 0 0 0 5.04 7.085l206.732 71.794c4.446 1.544 9.96-1.972 9.96-7.085v-64.294h119.73a7.5 7.5 0 0 0 7.5-7.5V94.333c-.26-9.797-14.667-10.015-15 0v330.873h-112.23v-52.914h45.929c4.142 0 7.5-3.357 7.5-7.5s-3.358-7.5-7.5-7.5h-45.929v-23.69h45.929c4.142 0 7.5-3.357 7.5-7.5s-3.358-7.5-7.5-7.5h-45.929v-23.69h23.945c4.142 0 7.5-3.357 7.5-7.5s-3.358-7.5-7.5-7.5h-23.945v-23.69h45.929c4.142 0 7.5-3.357 7.5-7.5s-3.358-7.5-7.5-7.5h-45.929v-23.691h23.945c4.142 0 7.5-3.357 7.5-7.5s-3.358-7.5-7.5-7.5h-23.945v-23.69h45.929c4.142 0 7.5-3.357 7.5-7.5s-3.358-7.5-7.5-7.5h-45.929v-23.69h45.929c4.142 0 7.5-3.357 7.5-7.5s-3.358-7.5-7.5-7.5h-45.929v-23.69h23.945c4.142 0 7.5-3.357 7.5-7.5s-3.358-7.5-7.5-7.5h-23.945v-7.164a7.5 7.5 0 0 0-5.04-7.085L133.453 15h282.005v40a7.5 7.5 0 0 0 7.499 7.5M192.361 51.336l25.106 8.719V179.37c-15.42-7.74-33.612-9.887-50.212-4.819V42.618zm-40.106 130.001c-23.87 14.702-38.275 44.585-35.293 77.756.868 9.659 15.808 8.314 14.939-1.344-3.121-34.72 16.33-64.896 45.244-70.192 36.186-6.621 65.814 25.878 72.512 58.56 6.617 32.289-7.94 72.974-43.884 79.559-25.884 4.734-50.081-11.567-62.774-33.133-4.918-8.357-17.845-.748-12.927 7.609 6.04 10.261 13.621 18.862 22.184 25.516v121.067l-55.76-19.365V18.044l55.76 19.365zm40.106 279.327-25.106-8.719V334.867c15.606 7.269 33.832 8.763 50.212 3.235v131.281zm95.866 33.292-55.76-19.365V330.773c48.288-31.768 41.547-107.503 0-141.614V65.264l55.76 19.365z"/></svg>