<svg xmlns="http://www.w3.org/2000/svg" width="512" height="512"><path fill="#766e6e" d="M355.914 479.537c27.94-23.913 45.366-57.734 45.366-95.228 0-57.34-40.752-106.089-97.544-123.948 5.469-1.62 8.458-6.682 8.458-12.675 0-7.3-5.919-13.218-13.221-13.218h-6.275v-81.55h-73.645v81.55h-6.275c-7.302 0-13.221 5.918-13.221 13.218 0 5.993 2.989 11.054 8.458 12.675-56.792 17.858-97.544 66.608-97.544 123.948 0 37.494 17.426 71.315 45.366 95.228-5.461 1.415-9.494 6.376-9.494 12.279 0 7.005 5.68 12.684 12.687 12.684h193.691c7.007 0 12.687-5.679 12.687-12.684 0-5.903-4.033-10.863-9.494-12.279"/><path fill="#5b5555" d="M355.914 479.538c27.941-23.913 45.366-57.734 45.366-95.228 0-57.34-40.752-106.089-97.544-123.948 5.469-1.62 8.458-6.682 8.458-12.675 0-7.3-5.919-13.218-13.221-13.218h-6.275v-81.55l-40 1.737v79.813h6.275c7.302 0 13.221 5.918 13.221 13.218 0 5.993-2.989 11.054-8.458 12.675 56.792 17.858 97.544 66.608 97.544 123.948 0 37.494-17.426 71.315-45.366 95.228 5.461 1.415 9.494 6.376 9.494 12.279 0 7.005-5.68 12.684-12.687 12.684h40c7.007 0 12.687-5.679 12.687-12.684 0-5.903-4.033-10.864-9.494-12.279"/><path fill="#f9f3f1" d="M219.053 27.581h73.645v125.338h-73.645z"/><path fill="#f3eae6" d="M252.698 27.581h40v125.338h-40z"/><path fill="#fd4755" d="M293.787 67.742h-75.823c-5.546 0-10.041-4.496-10.041-10.041V31.737c0-13.386 10.851-24.237 24.237-24.237h47.432c13.386 0 24.237 10.851 24.237 24.237v25.964c-.001 5.546-4.497 10.041-10.042 10.041"/><ellipse cx="255.875" cy="381.84" fill="#f9f3f1" rx="81.679" ry="81.662"/><path d="M408.78 384.31c0-55.274-36.158-104.951-91.164-126.957 6.177-13.156-2.476-29.474-17.418-30.348V74.029c6.511-2.565 11.131-8.917 11.131-16.328V31.736C311.328 14.237 297.091 0 279.591 0h-47.432c-17.5 0-31.737 14.237-31.737 31.736v25.965c0 7.411 4.62 13.763 11.131 16.328v152.976c-14.941.875-23.595 17.191-17.418 30.348-93.298 35.467-122.868 152.606-50.399 221.285C132.653 491.51 142.155 512 159.03 512h16.056c9.909-.305 9.916-14.694 0-15h-16.055c-6.018 0-6.949-8.741-1.311-10.203 5.764-1.494 7.518-9.087 2.994-12.958-75.649-63.096-44.819-178.239 49.552-206.323 6.909-2.172 6.822-12.288-.12-14.346-5.871-1.738-2.867-11.201 2.633-11.201h6.275a7.5 7.5 0 0 0 7.5-7.5v-74.051h58.645v74.051c0 4.143 3.357 7.5 7.5 7.5h6.275c5.499 0 8.503 9.463 2.633 11.201-6.942 2.058-7.03 12.173-.12 14.346 94.39 28.097 125.187 143.232 49.551 206.323-4.523 3.872-2.769 11.464 2.995 12.958 5.638 1.462 4.707 10.203-1.311 10.203H214.828c-9.87.286-9.949 14.686 0 15H352.72c16.876 0 26.376-20.49 15.294-33.362 26.365-25.697 40.766-58.848 40.766-94.328M215.422 31.736c0-9.229 7.508-16.736 16.737-16.736h47.432c9.229 0 16.737 7.508 16.737 16.736v25.965a2.545 2.545 0 0 1-2.542 2.541h-75.823a2.545 2.545 0 0 1-2.542-2.541zm11.131 113.682V75.242h58.645v70.176z"/><path d="M291.999 300.322c-57.442-26.558-126.287 18.181-125.302 81.519-.001 49.163 40.005 89.161 89.178 89.161 73.361.608 116.022-86.517 70.359-143.915a7.5 7.5 0 1 0-11.83 9.222c37.974 47.739 2.484 120.207-58.53 119.692-40.901.001-74.178-33.268-74.178-74.162-.815-52.675 56.442-89.898 104.221-67.807a7.499 7.499 0 1 0 6.082-13.71"/><path d="M205.527 391.88a7.5 7.5 0 0 0 7.5 7.5h85.696c9.916-.307 9.909-14.697 0-15h-85.696a7.5 7.5 0 0 0-7.5 7.5M277.299 364.573c9.916-.307 9.909-14.697 0-15h-42.848c-9.916.307-9.909 14.696 0 15z"/></svg>