<svg xmlns="http://www.w3.org/2000/svg" width="512" height="512" viewBox="0 0 511.645 511.645"><path fill="#dc8758" d="M484.433 166.551c-30.099 30.222-129.989 67.58-168.652 28.759s-1.457-139.121 28.641-169.343c30.099-30.222 85.841-23.251 124.504 15.57s45.605 94.791 15.507 125.014M168.476 483.802c-31.492 31.621-88.364 25.785-127.027-13.037s-44.476-95.926-12.983-127.548 137.826-75.449 176.489-36.628-4.986 145.592-36.479 177.213"/><path fill="#f9f3f1" d="M53.146 327.334c-10.278 10.32-11.682 26.175-4.214 38.008a18.2 18.2 0 0 0-3.652 2.841c-7.11 7.139-7.11 18.714 0 25.853a18.1 18.1 0 0 0 8.077 4.711c-6.95 12.626-5.092 28.833 5.575 39.544a32.9 32.9 0 0 0 22.172 9.706c-1.495 6.022.101 12.659 4.79 17.367 7.11 7.139 18.637 7.139 25.747 0a18.4 18.4 0 0 0 2.275-2.78 18.5 18.5 0 0 0 1.995 2.373c7.11 7.139 18.637 7.139 25.747 0 .996-1 1.852-2.086 2.569-3.236 11.955 9.266 29.191 8.396 40.154-2.612l62.113-62.368-131.235-131.775z"/><path fill="#f3eae6" d="m226.551 376.714-54.767 54.992c-10.963 11.008-28.199 11.878-40.154 2.612a18.4 18.4 0 0 1-2.569 3.236c-7.11 7.139-18.637 7.139-25.747 0a18.5 18.5 0 0 1-1.996-2.373 18.4 18.4 0 0 1-2.275 2.78c-7.11 7.139-18.637 7.139-25.747 0-4.689-4.708-6.285-11.345-4.79-17.367a32.9 32.9 0 0 1-19.237-7.085c-.345 8.927 2.876 17.966 9.663 24.781a32.9 32.9 0 0 0 22.172 9.706c-1.495 6.022.101 12.658 4.79 17.366 7.11 7.139 18.637 7.139 25.747 0a18.4 18.4 0 0 0 2.275-2.78 18.4 18.4 0 0 0 1.996 2.373c7.11 7.139 18.637 7.139 25.747 0 .995-1 1.852-2.086 2.569-3.236 11.955 9.266 29.191 8.396 40.154-2.612l62.113-62.368z"/><path fill="#f9f3f1" d="M460.242 182.117c10.278-10.32 11.682-26.175 4.214-38.008a18.2 18.2 0 0 0 3.652-2.841c7.11-7.139 7.11-18.714 0-25.853a18.1 18.1 0 0 0-8.077-4.711c6.95-12.626 5.092-28.833-5.575-39.544a32.9 32.9 0 0 0-22.172-9.706c1.495-6.022-.101-12.659-4.79-17.367-7.11-7.139-18.637-7.139-25.747 0a18.4 18.4 0 0 0-2.275 2.78 18.5 18.5 0 0 0-1.995-2.373c-7.11-7.139-18.637-7.139-25.747 0-.996 1-1.852 2.086-2.569 3.236-11.955-9.266-29.191-8.396-40.154 2.612l-62.113 62.368L398.13 244.484z"/><g fill="#f3eae6"><path d="M468.107 141.269c7.11-7.139 7.11-18.714 0-25.853a18.1 18.1 0 0 0-8.077-4.711c6.95-12.626 5.092-28.833-5.575-39.544a32.9 32.9 0 0 0-22.172-9.706c1.495-6.022-.101-12.658-4.79-17.366-7.11-7.139-18.637-7.139-25.747 0a18.3 18.3 0 0 0-2.275 2.78 18.4 18.4 0 0 0-1.995-2.373c-4.651-4.67-11.193-6.285-17.152-4.844a18.1 18.1 0 0 1 7.169 4.438c4.689 4.708 6.285 11.345 4.79 17.366a32.9 32.9 0 0 1 22.172 9.706c10.667 10.711 12.526 26.918 5.575 39.544a18.1 18.1 0 0 1 8.077 4.711c7.11 7.139 7.11 18.714 0 25.853a18.2 18.2 0 0 1-3.652 2.841c7.468 11.833 6.064 27.688-4.214 38.008l-42.113 42.286 20 20.082 62.113-62.368c10.278-10.32 11.682-26.175 4.214-38.008a18.3 18.3 0 0 0 3.652-2.842M361.746 44.088q.21-.21.424-.412a30.4 30.4 0 0 0-8.557-2.145 18.365 18.365 0 0 1 5.858 5.336 18.4 18.4 0 0 1 2.275-2.779"/></g><g fill="#c86d36"><path d="M165.06 387.767c-7.613 1.375-9.38-4.703-10.75-12.348-1.369-7.644-1.821-13.96 5.792-15.334 7.613-1.375 21.097 2.588 22.466 10.232s-9.895 16.076-17.508 17.45M104.817 346.848c7.277 2.633 5.78 8.784 3.159 16.091s-5.376 13.003-12.653 10.37-16.98-12.835-14.359-20.142c2.622-7.308 16.576-8.952 23.853-6.319M109.897 407.311c4.341-6.428 9.906-3.45 16.308.908s11.217 8.448 6.876 14.876-16.587 13.344-22.989 8.985c-6.402-4.358-4.536-18.341-.195-24.769"/></g><g fill="#c86d36"><path d="M347.459 118.886c7.613-1.375 9.38 4.703 10.75 12.348 1.369 7.644 1.821 13.96-5.792 15.334-7.613 1.375-21.097-2.588-22.466-10.232s9.895-16.076 17.508-17.45M410.128 159.805c-7.277-2.633-5.78-8.784-3.159-16.091s5.376-13.003 12.653-10.37 16.98 12.835 14.359 20.142c-2.621 7.308-16.576 8.952-23.853 6.319M398.813 99.659c-4.341 6.428-9.906 3.45-16.308-.909s-11.217-8.448-6.876-14.876 16.587-13.344 22.989-8.985 4.536 18.342.195 24.77"/></g><path fill="#ffbd86" d="m185.182 185.859 159.24-159.893s-33.977 24.987-22.821 87.973c5.424 30.625 36.044 140.542-16.016 192.816s-161.477 21.228-192.028 16.082c-62.923-10.598-87.614 22.915-87.614 22.915z"/><path fill="#fed2a4" d="m324.931 326.18-157.88 159.053s31.756-25.028 21.461-87.133c-5.086-30.683-36.044-140.542 16.016-192.816s161.345-20.365 192.028-16.082c60.844 8.494 89.703-24.487 89.703-24.487z"/><path d="M495.193 63.521c-14.344-24.88-36.458-44.544-62.269-55.371a7.5 7.5 0 0 0-9.817 4.015 7.5 7.5 0 0 0 4.015 9.817c41.378 16.164 77.053 67.794 66.896 111.486-2.515 11.308-8.374 22.519-17.397 29.998a37.9 37.9 0 0 0-2.736-17.383c10.719-11.326 8.682-30.251-4.167-39.041 4.511-14.265.865-30.316-9.949-41.175-5.427-5.449-12.187-9.188-19.539-10.891-.78-12.971-12.52-24.035-25.611-23.743-5.581 0-10.891 1.771-15.288 5.049-9.267-6.743-23.104-6.024-31.61 1.694a37.9 37.9 0 0 0-20.784-3.907c10.056-11.123 24.147-17.745 39.039-19.101a7.5 7.5 0 0 0 6.789-8.148 7.49 7.49 0 0 0-8.148-6.789c-20.578 1.872-39.542 12.08-52.763 27.926L27.376 333.685C-16.832 371.163.001 439.776 36.135 476.058c37.834 38.844 102.831 51.303 140.93 9.734l53.828-54.229c6.832-6.882-3.818-17.453-10.646-10.566l-24.44 24.622c2.979-14.816 3.02-31.163.105-48.744-5.587-33.696-13.701-66.382-13.661-100.798-2.384-129.861 112.214-120.386 195.252-102.724 22.803 4.478 45.312 6.908 68.221 1.323L319.608 320.897l-71.421 71.951c-6.832 6.882 3.812 17.446 10.646 10.566l71.403-71.934 159.149-159.284c28.482-29.462 26.512-72.36 5.808-108.675M163.727 380.387c-1.6.295-3.488-12.703-2.293-12.921 5.097-.926 13.064 2.174 13.748 4.146.059 2.149-6.336 7.85-11.455 8.775m8.666-26.843c-4.62-1.221-9.518-1.58-13.623-.84-21.948 3.964-13.995 45.089 7.623 42.444 4.079-.737 8.728-2.802 12.827-5.766.787 3.891 1.453 7.28 1.894 9.945 4.099 24.731 1.118 43.062-3.549 55.87-8.174 6.87-20.187 7.227-28.741.595a7.501 7.501 0 0 0-10.959 1.959c-3.954 6.346-13.466 6.686-17.819.508a7.5 7.5 0 0 0-12.371.168c-6.485 9.751-21.977 2.202-19.289-8.624a7.498 7.498 0 0 0-7.004-9.301c-18.758-.688-30.479-21.739-21.452-38.139a7.502 7.502 0 0 0-4.596-10.852c-8.871-2.418-10.333-15.141-2.588-19.71a7.504 7.504 0 0 0 2.531-10.462c-5.493-8.704-4.464-20.206 2.345-27.822 12.735-4.595 30.65-7.334 54.691-3.284 3.501.59 8.255 1.569 13.76 2.703 11.622 2.394 27.109 5.584 44.411 7.951a468 468 0 0 0 1.909 12.657M46.764 465.474c-31.039-31.168-45.702-86.57-9.952-120.008a37.94 37.94 0 0 0 2.691 17.901c-9.538 10.08-9.384 26.072.464 35.96a25.7 25.7 0 0 0 3.704 3.081c-4.509 14.264-.864 30.316 9.949 41.176 5.427 5.449 12.187 9.187 19.538 10.89.49 6.025 3.074 11.814 7.424 16.183 8.602 8.975 23.677 10.064 33.477 2.512 4.286 3.018 9.383 4.643 14.729 4.642 6.273 0 12.202-2.238 16.882-6.337a37.88 37.88 0 0 0 20.547 3.928c-32.442 35.525-87.265 22.859-119.453-9.928m152.451-265.482c-31.702 31.833-34.76 82.082-30.544 125.488-15.284-2.233-29.045-5.068-39.573-7.236-5.648-1.163-10.525-2.168-14.295-2.803-19.213-3.237-35.132-2.59-48.098.009l247.19-248.205c-2.529 12.974-3.067 28.874.32 48.001.613 3.464 1.528 7.861 2.589 12.952 2.289 10.997 5.289 25.41 7.608 41.573-43.085-4.219-93.636-1.469-125.197 30.221m198.38-18.218c-19.366-2.706-38.387-7.531-57.786-10.186a483 483 0 0 0-3.047-19.54c5.126 1.895 11.529 2.885 16.987 1.899 6.429-1.16 10.767-5.031 12.214-10.9 1.06-4.294.363-9.032-.371-13.137-1.862-10.394-7.252-20.353-19.466-18.406-5.096.921-11.081 3.915-15.774 8.146-5.717-23.504-3.682-49.497 1.861-62.527 0 0 16.951-13.784 32.352-3.466 4.124 2.763 7.886 1.94 10.959-1.959 3.954-6.347 13.465-6.686 17.819-.507 3.03 4.294 9.445 4.229 12.371-.168 6.48-9.752 21.978-2.203 19.289 8.621q-.929 7.986 7.002 9.304c18.756.691 30.483 21.736 21.454 38.138q-2.97 7.654 4.593 10.852c8.884 2.429 10.327 15.134 2.585 19.716q-5.683 4.162-2.524 10.458c5.408 8.569 4.493 19.851-2.035 27.468-13.634 5.624-33.023 9.75-58.483 6.194m-48.803-55.507c1.521-.28 2.894 11.277 2.684 12.836-2.932.76-12.793-.18-14.139-4.061-.059-2.149 6.337-7.852 11.455-8.775"/><path d="M104.503 380.175c8.291-3.9 13.736-18.872 13.085-27.594-1.513-20.248-37.774-18.409-43.684-1.947-5.287 14.734 15.654 36.568 30.599 29.541m-6.629-13.919c-4.893-1.771-10.256-8.471-9.862-10.528 2.004-3.667 11.645-2.997 14.635-1.675-.04 1.243-3.214 12.766-4.773 12.203M113.293 396.341c-3.841.737-7.075 3.016-9.612 6.773-6.201 9.184-8.491 27.894 2.19 35.167 10.821 7.366 27.181-1.739 33.426-10.988 9.776-14.478-11.655-33.7-26.004-30.952m3.052 14.846c1.256.38 11.517 6.24 10.521 7.711-2.947 4.367-10.585 7.871-12.523 7.006-1.599-1.524-1.203-9.992 1.771-14.396q.128-.193.231-.321M422.175 126.292c-4.253-1.539-8.199-1.476-11.732.187-8.291 3.9-13.736 18.872-13.085 27.594 1.503 20.107 37.85 18.2 43.684 1.947 4.372-12.188-8.461-25.964-18.867-29.728m4.758 24.634c-1.989 3.639-11.837 2.924-14.634 1.675.038-1.244 3.211-12.767 4.772-12.203 4.894 1.769 10.257 8.47 9.862 10.528M405.029 103.856c6.201-9.185 8.491-27.896-2.19-35.166-10.676-7.27-27.125 1.658-33.426 10.986-12.219 18.095 23.056 42.776 35.616 24.18m-12.431-8.394c-.91 1.349-11.478-6.321-10.753-7.391 2.95-4.368 10.598-7.86 12.523-7.005 1.599 1.525 1.202 9.993-1.77 14.396"/></svg>