<svg xmlns="http://www.w3.org/2000/svg" width="512" height="512" viewBox="0 0 511.557 511.557"><ellipse cx="441.526" cy="67.689" fill="#fe9738" rx="60.83" ry="61.039"/><path fill="#fe860a" d="M484.539 24.529c-17.041-17.1-41.678-21.933-63.013-14.499 8.406 2.929 16.299 7.762 23.013 14.499 23.755 23.837 23.755 62.484 0 86.322-6.714 6.737-14.607 11.57-23.013 14.499 21.335 7.434 45.972 2.601 63.013-14.499 23.755-23.838 23.755-62.485 0-86.322"/><path fill="#4fc123" d="M379.976 129.509c-33.435-33.488-101.548-19.543-101.548-19.543s-13.906 68.239 19.529 101.727 101.548 19.543 101.548 19.543 13.906-68.239-19.529-101.727"/><ellipse cx="254.973" cy="254.883" fill="#fe9738" rx="60.83" ry="61.039"/><path fill="#fe860a" d="M297.986 211.722c-17.041-17.1-41.678-21.933-63.013-14.499 8.406 2.929 16.299 7.761 23.013 14.499 23.755 23.837 23.755 62.484 0 86.322-6.714 6.737-14.607 11.57-23.013 14.499 21.335 7.434 45.972 2.601 63.013-14.499 23.756-23.838 23.756-62.485 0-86.322"/><path fill="#4fc123" d="M111.405 398.886c33.435 33.488 101.548 19.543 101.548 19.543s13.906-68.239-19.529-101.727-101.548-19.543-101.548-19.543-13.906 68.239 19.529 101.727"/><path fill="#fe99a0" d="M317.767 404.217 160.391 246.299c-11.603-11.642-52.869-5.28-52.869-5.28L93.08 261.128l140.396 140.878c12.144 12.186 29.85 16.933 46.433 12.448z"/><path fill="#f9f3f1" d="m93.079 261.129-27.974-28.07 39.054-10.561c15.843-4.284 32.76.251 44.363 11.893l11.868 11.908z"/><path fill="#fe99a0" d="M252.272 45.702 408.89 204.373c11.547 11.698 61.157 6.808 61.157 6.808l6.224-21.314L336.553 48.316c-12.085-12.244-29.769-17.076-46.372-12.671z"/><path fill="#f9f3f1" d="m476.271 189.867 27.839 28.204-39.105 10.374a45.75 45.75 0 0 1-44.305-12.106l-11.81-11.965zM379.704 92.024l-.008.001 12.126 12.285z"/><path d="m509.448 212.802-27.839-28.204-.005-.005-48.209-48.841c20.703 2.447 41.737-4.836 56.457-19.607 26.628-26.719 26.628-70.192 0-96.909-8.875-8.905-19.985-15.178-32.131-18.139-9.422-2.301-12.973 12.277-3.553 14.572 9.466 2.309 18.131 7.202 25.059 14.154 47.98 52.221-23.139 123.437-75.401 75.733-20.809-20.88-20.809-54.854 0-75.733a53 53 0 0 1 16.285-11.164c8.877-3.906 2.835-17.632-6.041-13.73a68 68 0 0 0-20.869 14.307c-15.221 15.27-21.741 36.014-19.562 55.976l-31.748-32.164c-13.936-14.116-34.485-19.732-53.634-14.651l-37.908 10.057c-5.08 1.347-7.604 8.272-3.415 12.518l48.597 49.234c-10.474.826-17.583 2.207-18.522 2.396a7.52 7.52 0 0 0-5.952 5.974c-5.175 25.959-4.881 55.906 4.413 80.89-24.13-7.576-50.998-.924-68.823 16.962-15.235 15.288-21.753 36.062-19.553 56.044-11.477-11.516-22.679-23.488-34.54-34.616-13.299-12.477-32.754-17.356-50.353-12.597L63.146 225.82c-5.072 1.372-7.567 8.309-3.354 12.534l48.905 49.073c-10.73.863-17.893 2.297-18.327 2.386a7.5 7.5 0 0 0-5.845 5.851c-.571 2.801-12.969 65.843 16.584 102.931L2.208 497.891c-6.843 6.868 3.781 17.459 10.627 10.586l98.879-99.275c8.496 6.776 19 11.857 31.328 15.142 9.042 2.414 13.131-12.025 3.863-14.494-54.392-12.131-52.913-75.922-48.505-106.18a183 183 0 0 1 24.606-1.888l42.802 42.95c2.16 6.587 5.243 11.592 3.087 18.966l-37.734-37.786a7.5 7.5 0 0 0-10.606-.007 7.5 7.5 0 0 0-.007 10.606l37.766 37.818c-8.705 2.541-18.711-1.826-24.8-7.924-7.222-6.802-17.402 3.372-10.615 10.598 11.842 11.861 31.456 17.651 46.719 8.645l27.35 27.388c-3.904.358-8.417.649-13.307.74-9.477.179-8.981 15.187.281 14.998 16.684-.313 29.109-2.716 30.417-2.978a7.52 7.52 0 0 0 5.963-5.975c.2-1 1.526-7.896 2.346-18.033l5.493 5.512c14.012 14.1 34.76 19.551 53.703 14.395l37.86-10.237c5.072-1.372 7.567-8.309 3.354-12.534l-75.653-75.913c20.519 2.247 41.295-5.047 55.872-19.673 18.645-18.709 24.233-45.635 16.766-69.27 24.946 9.345 54.981 9.839 80.944 4.516a7.5 7.5 0 0 0 5.845-5.85c1.169-5.69 1.821-11.656 2.307-17.41 33.481 34.932 57.04 19.765 96.872 9.995 5.082-1.347 7.606-8.271 3.417-12.517M186.235 343.98l-21.395-21.468c10.862-9.237 13.43-24.341 12.024-37.869a7.5 7.5 0 0 0-8.235-6.685 7.5 7.5 0 0 0-6.685 8.235c1.655 15.929-3.797 22.822-7.714 25.671l-46.193-46.352 49.946-11.003L270.687 367.6c-11.125 1.077-22.395-2.24-34.155-10.003-23.061-15.225-41.814-14.91-50.297-13.617M143.21 239.685l2.222 2.229-49.946 11.004-15.94-15.995 26.573-7.185c13.206-3.571 27.417.241 37.091 9.947m64.343 162.723-27.332-27.37c2.103-3.574 3.465-7.564 4.066-11.764l24.026 24.108a185 185 0 0 1-.76 15.026m70.396 4.807c-13.945 3.772-28.949-.254-39.162-10.502l-37.599-37.729c7.127 1.119 16.429 4.099 27.08 11.13 16.377 10.814 35.871 15.935 55.099 10.209l19.961 20.029zM318.281 101.9l-.149-.151-18.955-19.204c11.13-1.024 22.385 2.346 34.106 10.167 14.449 9.639 32.59 16.464 50.231 13.857l49.635 50.286c-7.892-1.689-17.76-4.89-28.229-10.918a7.5 7.5 0 0 0-7.484 13c15.632 8.999 34.149 14.942 52.327 14.749l11.572 11.724-49.999 10.765zm-26.178-59.006c13.963-3.701 28.948.394 39.112 10.69l37.417 37.908c-7.122-1.152-16.409-4.177-27.025-11.259-18.396-12.273-36.89-15.785-55.049-10.472l-19.865-20.125zm41.409 95.79c-4.194.6-8.179 1.96-11.749 4.062l-27.353-27.39c4.436-.409 9.657-.73 15.318-.768zM292.674 292.75c-20.48 20.549-54.916 20.555-75.401 0-20.808-20.88-20.808-54.854 0-75.734 20.48-20.549 54.916-20.555 75.401 0 20.808 20.88 20.808 54.854 0 75.734m100.315-68.034c-71.573 9.638-117.149-14.638-109.143-98.712l27.316 27.353c-8.067 13.73-4.897 33.262 8.617 46.796 6.851 6.865 17.467-3.737 10.615-10.598-7.368-7.38-10.209-17.225-7.934-24.885l37.76 37.811c6.853 6.863 17.465-3.739 10.613-10.6l-37.752-37.804c6.904-2.024 12.344.592 18.526 2.937l43.253 43.82a186 186 0 0 1-1.871 23.882m70.093-3.521c-14.202 3.764-29.685-1.341-39.256-12.366l49.998-10.765 15.864 16.072z"/></svg>