<svg xmlns="http://www.w3.org/2000/svg" width="512" height="512"><path fill="#e29a6c" d="M72 37.5h368l-50 437H122z"/><path fill="#ce845c" d="m440 37.5-50 437h-30l50-437z"/><path fill="#fff3d2" d="M388.289 504.5H123.711a5 5 0 0 1-4.956-5.661L122 474.5h268l3.245 24.339a5 5 0 0 1-4.956 5.661"/><path fill="#ffe6ae" d="M388.29 504.5h-30c3.02 0 5.35-2.66 4.96-5.66L360 474.5h30l3.25 24.34c.39 3-1.94 5.66-4.96 5.66"/><path fill="#faf2f3" d="m394.38 174.06-3.84 34.18-.8 7.1-6.25 55.71c0 .01 0 .01-.01 0l-.2 1.85-6.64 59.08v.04l-6.67 59.37-.14 1.25-5.33 47.42a5 5 0 0 1-4.97 4.44H153.45c-2.53 0-4.67-1.9-4.96-4.42l-5.48-47.24-.19-1.63-6.86-59.21-6.86-59.19-.2-1.67-6.48-55.89-.8-6.92-3.97-34.25a4.995 4.995 0 0 1 4.96-5.58h266.8c2.98 0 5.3 2.59 4.97 5.56"/><path fill="#6f6571" d="m369.83 392.64-5.33 47.42a5 5 0 0 1-4.97 4.44h-3.36C349.93 439.01 346 430.96 346 422c0-8.28 3.36-15.78 8.79-21.21 4.04-4.04 9.23-6.94 15.04-8.15"/><path fill="#8c868e" d="M346 422c0 8.28-3.36 15.78-8.79 21.21-.45.45-.9.88-1.38 1.29h-39.66C289.93 439.01 286 430.96 286 422c0-8.28 3.36-15.78 8.79-21.21S307.72 392 316 392s15.78 3.36 21.21 8.79S346 413.72 346 422"/><path fill="#6f6571" d="M286 422c0 8.28-3.36 15.78-8.79 21.21-.45.45-.9.88-1.38 1.29h-39.66C229.93 439.01 226 430.96 226 422c0-8.28 3.36-15.78 8.79-21.21S247.72 392 256 392s15.78 3.36 21.21 8.79S286 413.72 286 422"/><path fill="#8c868e" d="M226 422c0 8.28-3.36 15.78-8.79 21.21-.45.45-.9.88-1.38 1.29h-39.66C169.93 439.01 166 430.96 166 422c0-8.28 3.36-15.78 8.79-21.21S187.72 392 196 392s15.78 3.36 21.21 8.79S226 413.72 226 422"/><path fill="#6f6571" d="M166 422c0 8.28-3.36 15.78-8.79 21.21-.45.45-.9.88-1.38 1.29h-2.38c-2.53 0-4.67-1.9-4.96-4.42l-5.48-47.24c5.47 1.29 10.35 4.1 14.2 7.95 5.43 5.43 8.79 12.93 8.79 21.21"/><path fill="#8c868e" d="m376.64 332.02-6.67 59.37C356.29 388.6 346 376.5 346 362c0-8.28 3.36-15.78 8.79-21.21S367.72 332 376 332c.22 0 .43 0 .64.02"/><path fill="#6f6571" d="M316 392c-16.569 0-30-13.431-30-30s13.431-30 30-30 30 13.431 30 30-13.431 30-30 30"/><path fill="#8c868e" d="M256 392c-16.569 0-30-13.431-30-30s13.431-30 30-30 30 13.431 30 30-13.431 30-30 30"/><path fill="#6f6571" d="M196 392c-16.569 0-30-13.431-30-30s13.431-30 30-30 30 13.431 30 30-13.431 30-30 30"/><path fill="#8c868e" d="M166 362c0 8.28-3.36 15.78-8.79 21.21a29.9 29.9 0 0 1-14.39 8L135.96 332h.04c8.28 0 15.78 3.36 21.21 8.79S166 353.72 166 362"/><path fill="#6f6571" d="m383.28 272.9-6.64 59.08c-.21.02-.42.02-.64.02-16.57 0-30-13.43-30-30 0-8.28 3.36-15.78 8.79-21.21S367.72 272 376 272c2.51 0 4.95.31 7.28.9"/><path fill="#8c868e" d="M316 332c-16.569 0-30-13.431-30-30s13.431-30 30-30 30 13.431 30 30-13.431 30-30 30"/><path fill="#6f6571" d="M256 332c-16.569 0-30-13.431-30-30s13.431-30 30-30 30 13.431 30 30-13.431 30-30 30"/><path fill="#8c868e" d="M196 332c-16.569 0-30-13.431-30-30s13.431-30 30-30 30 13.431 30 30-13.431 30-30 30"/><path fill="#6f6571" d="M166 302c0 8.28-3.36 15.78-8.79 21.21S144.28 332 136 332h-.04l-6.86-59.19c2.22-.53 4.53-.81 6.9-.81 8.28 0 15.78 3.36 21.21 8.79S166 293.72 166 302"/><path fill="#8c868e" d="m389.74 215.34-6.25 55.71c0 .01 0 .01-.01 0-2.39.62-4.9.95-7.48.95-16.57 0-30-13.43-30-30 0-8.28 3.36-15.78 8.79-21.21S367.72 212 376 212c4.95 0 9.63 1.2 13.74 3.34"/><path fill="#6f6571" d="M316 272c-16.569 0-30-13.431-30-30s13.431-30 30-30 30 13.431 30 30-13.431 30-30 30"/><path fill="#8c868e" d="M256 272c-16.569 0-30-13.431-30-30s13.431-30 30-30 30 13.431 30 30-13.431 30-30 30"/><path fill="#6f6571" d="M196 272c-16.569 0-30-13.431-30-30s13.431-30 30-30 30 13.431 30 30-13.431 30-30 30"/><path fill="#8c868e" d="M166 242c0 8.28-3.36 15.78-8.79 21.21S144.28 272 136 272c-2.45 0-4.82-.29-7.1-.86l-6.48-55.89c4.08-2.08 8.69-3.25 13.58-3.25 8.28 0 15.78 3.36 21.21 8.79S166 233.72 166 242"/><path fill="#6f6571" d="m394.38 174.06-3.84 34.18c-4.31 2.4-9.27 3.76-14.54 3.76-16.57 0-30-13.43-30-30 0-4.86 1.16-9.44 3.21-13.5h40.2c2.98 0 5.3 2.59 4.97 5.56"/><path fill="#8c868e" d="M346 182c0 8.28-3.36 15.78-8.79 21.21S324.28 212 316 212c-16.57 0-30-13.43-30-30 0-4.86 1.16-9.44 3.21-13.5h53.58A29.85 29.85 0 0 1 346 182"/><path fill="#6f6571" d="M286 182c0 8.28-3.36 15.78-8.79 21.21S264.28 212 256 212c-16.57 0-30-13.43-30-30 0-4.86 1.16-9.44 3.21-13.5h53.58A29.85 29.85 0 0 1 286 182"/><path fill="#8c868e" d="M226 182c0 8.28-3.36 15.78-8.79 21.21S204.28 212 196 212c-16.57 0-30-13.43-30-30 0-4.86 1.16-9.44 3.21-13.5h53.58A29.85 29.85 0 0 1 226 182"/><path fill="#6f6571" d="M166 182c0 8.28-3.36 15.78-8.79 21.21S144.28 212 136 212a29.8 29.8 0 0 1-14.38-3.67l-3.97-34.25a4.995 4.995 0 0 1 4.96-5.58h40.18A29.85 29.85 0 0 1 166 182"/><path fill="#be785a" d="M256 138.5c19.606 0 35.5-15.894 35.5-35.5S275.606 67.5 256 67.5s-35.5 15.894-35.5 35.5 15.894 35.5 35.5 35.5"/><path fill="#fff3d2" d="M428.159 7.5H83.841a5 5 0 0 0-4.831 3.712L72 37.5h368l-7.01-26.288a5 5 0 0 0-4.831-3.712"/><path fill="#ffe6ae" d="M440 37.5h-30l-7.01-26.29a5 5 0 0 0-4.83-3.71h30c2.26 0 4.25 1.52 4.83 3.71z"/><path d="M389.405 160.999H122.613c-7.258-.163-13.415 6.749-12.417 13.939l30.841 265.997a12.497 12.497 0 0 0 12.417 11.061h206.075a12.49 12.49 0 0 0 12.422-11.105l29.877-265.998c.968-7.177-5.182-14.056-12.423-13.894m-90.174 275.998a22.56 22.56 0 0 1-5.732-15c0-12.407 10.094-22.5 22.5-22.5s22.5 10.093 22.5 22.5c0 5.622-2.025 10.875-5.734 15zm-60.001 0c-3.708-4.123-5.731-9.373-5.731-15 0-12.407 10.094-22.5 22.5-22.5s22.5 10.093 22.5 22.5a22.56 22.56 0 0 1-5.733 15zm-59.995 0c-3.709-4.126-5.736-9.382-5.736-15 0-12.407 10.094-22.5 22.5-22.5s22.5 10.093 22.5 22.5c0 5.627-2.023 10.877-5.731 15zm-13.236-232.524a37.8 37.8 0 0 0 7.526 7.526 37.8 37.8 0 0 0-7.526 7.526 37.8 37.8 0 0 0-7.526-7.526 37.8 37.8 0 0 0 7.526-7.526m8.307-28.474h43.386c.535 1.937.807 3.944.807 6 0 12.407-10.094 22.5-22.5 22.5s-22.5-10.093-22.5-22.5c0-2.055.272-4.062.807-6m103.382 0c.535 1.937.811 3.942.811 6 0 12.407-10.094 22.5-22.5 22.5s-22.5-10.093-22.5-22.5c0-2.057.273-4.063.808-6zm60 0c.535 1.937.811 3.942.811 6 0 12.407-10.094 22.5-22.5 22.5s-22.5-10.093-22.5-22.5c0-2.057.274-4.063.809-6zm15.836 36a37.8 37.8 0 0 0-7.526 7.526 37.8 37.8 0 0 0-7.526-7.526 37.8 37.8 0 0 0 7.526-7.526 37.8 37.8 0 0 0 7.526 7.526m-7.562 187.478a37.9 37.9 0 0 0-7.489-7.479 37.9 37.9 0 0 0 7.478-7.464 37.1 37.1 0 0 0 7.471 7.474 37.2 37.2 0 0 0-7.46 7.469m-59.963.047a37.8 37.8 0 0 0-7.526-7.526 37.8 37.8 0 0 0 7.526-7.526 37.8 37.8 0 0 0 7.526 7.526 37.8 37.8 0 0 0-7.526 7.526m-60 0a37.8 37.8 0 0 0-7.526-7.526 37.8 37.8 0 0 0 7.526-7.526 37.8 37.8 0 0 0 7.526 7.526 37.8 37.8 0 0 0-7.526 7.526m-59.99-.012a37.6 37.6 0 0 0-7.492-7.507 37.4 37.4 0 0 0 7.502-7.508 37.8 37.8 0 0 0 7.506 7.501 37.8 37.8 0 0 0-7.516 7.514m-13.886 6.805c3.977 4.096 6.376 9.658 6.376 15.68 0 4.172-1.121 8.143-3.213 11.603zm13.876-141.844a37.8 37.8 0 0 0 7.526 7.526 37.8 37.8 0 0 0-7.526 7.526 37.8 37.8 0 0 0-7.526-7.526 37.9 37.9 0 0 0 7.526-7.526m30-44.974c12.406 0 22.5 10.093 22.5 22.5s-10.094 22.5-22.5 22.5-22.5-10.093-22.5-22.5 10.094-22.5 22.5-22.5m30-15.026a37.8 37.8 0 0 0 7.526 7.526 37.8 37.8 0 0 0-7.526 7.526 37.8 37.8 0 0 0-7.526-7.526 37.8 37.8 0 0 0 7.526-7.526m60 0a37.8 37.8 0 0 0 7.526 7.526 37.8 37.8 0 0 0-7.526 7.526 37.8 37.8 0 0 0-7.526-7.526 37.9 37.9 0 0 0 7.526-7.526m52.499 37.526c0 12.407-10.094 22.5-22.5 22.5s-22.5-10.093-22.5-22.5 10.094-22.5 22.5-22.5 22.5 10.093 22.5 22.5m15.026 29.999a37.8 37.8 0 0 0-7.526 7.526 37.8 37.8 0 0 0-7.526-7.526 37.8 37.8 0 0 0 7.526-7.526 37.8 37.8 0 0 0 7.526 7.526m0 60a37.8 37.8 0 0 0-7.526 7.526 37.8 37.8 0 0 0-7.526-7.526 37.8 37.8 0 0 0 7.526-7.526 37.8 37.8 0 0 0 7.526 7.526m-37.526-7.5c-12.406 0-22.5-10.093-22.5-22.5s10.094-22.5 22.5-22.5 22.5 10.093 22.5 22.5-10.093 22.5-22.5 22.5m-29.999 15.026a37.8 37.8 0 0 0-7.526-7.526 37.8 37.8 0 0 0 7.526-7.526 37.8 37.8 0 0 0 7.526 7.526 37.8 37.8 0 0 0-7.526 7.526m-60 0a37.8 37.8 0 0 0-7.526-7.526 37.8 37.8 0 0 0 7.526-7.526 37.8 37.8 0 0 0 7.526 7.526 37.8 37.8 0 0 0-7.526 7.526m-60 0a37.8 37.8 0 0 0-7.532-7.53 37.9 37.9 0 0 0 7.525-7.53 37.8 37.8 0 0 0 7.532 7.534 37.8 37.8 0 0 0-7.525 7.526m-28.574-59.976c11.744.739 21.074 10.523 21.074 22.45 0 10.125-6.745 18.722-15.975 21.529zm36.074 22.45c0-12.407 10.094-22.5 22.5-22.5s22.5 10.093 22.5 22.5-10.094 22.5-22.5 22.5-22.5-10.093-22.5-22.5m52.5-37.525a37.8 37.8 0 0 0 7.526 7.526 37.8 37.8 0 0 0-7.526 7.526 37.8 37.8 0 0 0-7.526-7.526 37.9 37.9 0 0 0 7.526-7.526m7.5 37.525c0-12.407 10.094-22.5 22.5-22.5s22.5 10.093 22.5 22.5-10.094 22.5-22.5 22.5-22.5-10.093-22.5-22.5m52.5-37.525a37.8 37.8 0 0 0 7.526 7.526 37.8 37.8 0 0 0-7.526 7.526 37.8 37.8 0 0 0-7.526-7.526 38 38 0 0 0 7.526-7.526m-7.5-22.474c0 12.407-10.094 22.5-22.5 22.5s-22.5-10.093-22.5-22.5 10.094-22.5 22.5-22.5 22.5 10.093 22.5 22.5m-120 119.999a22.46 22.46 0 0 1-9.394 18.288l-4.532-39.087c8.165 3.379 13.926 11.427 13.926 20.799m15 0c0-12.407 10.094-22.5 22.5-22.5s22.5 10.093 22.5 22.5-10.094 22.5-22.5 22.5-22.5-10.093-22.5-22.5m60 0c0-12.407 10.094-22.5 22.5-22.5s22.5 10.093 22.5 22.5-10.094 22.5-22.5 22.5-22.5-10.093-22.5-22.5m60 0c0-12.407 10.094-22.5 22.5-22.5s22.5 10.093 22.5 22.5-10.094 22.5-22.5 22.5-22.5-10.093-22.5-22.5m70.112 18.75c-6.131-4.092-10.113-11.091-10.113-18.75 0-9.622 6.072-17.848 14.584-21.058zm-10.113-78.75c0-12.065 9.547-21.94 21.482-22.474l-4.96 44.161c-9.513-2.625-16.522-11.35-16.522-21.687m28.144-81.781-4.971 44.263c-.224.007-.448.019-.672.019-12.406 0-22.5-10.093-22.5-22.5s10.094-22.5 22.5-22.5c1.932 0 3.817.246 5.643.718m-223.143 21.782c0 12.407-10.094 22.5-22.5 22.5-.107 0-.213-.007-.32-.009l-5.139-44.322a22.5 22.5 0 0 1 5.459-.669c12.407 0 22.5 10.093 22.5 22.5m199.033 192.87c-2.624-3.739-4.034-8.178-4.034-12.871 0-6.56 2.78-12.535 7.353-16.681zm26.022-231.675a22.3 22.3 0 0 1-7.556 1.304c-12.406 0-22.5-10.093-22.5-22.5 0-2.058.276-4.063.811-6h32.299zm-225.861-27.195c.535 1.939.807 3.946.807 6 0 12.407-10.094 22.5-22.5 22.5-2.571 0-5.054-.428-7.421-1.257l-3.159-27.243zM255.999 145.999c23.71 0 43-19.289 43-43s-19.29-43-43-43-43 19.289-43 43 19.29 43 43 43m0-70.999c15.439 0 28 12.56 28 28s-12.56 28-28 28-28-12.56-28-28 12.56-28 28-28M320.498 125.499h69c4.143 0 7.5-3.358 7.5-7.5s-3.357-7.5-7.5-7.5h-69a7.5 7.5 0 0 0 0 15M320.498 95.499h75c4.143 0 7.5-3.358 7.5-7.5s-3.357-7.5-7.5-7.5h-75a7.5 7.5 0 0 0 0 15M191.499 125.499c4.143 0 7.5-3.358 7.5-7.5s-3.357-7.5-7.5-7.5h-69c-4.143 0-7.5 3.358-7.5 7.5s3.357 7.5 7.5 7.5zM109 87.999a7.5 7.5 0 0 0 7.5 7.5h75c4.143 0 7.5-3.358 7.5-7.5s-3.357-7.5-7.5-7.5h-75a7.5 7.5 0 0 0-7.5 7.5"/><path d="M447.492 37.642a8.2 8.2 0 0 0-.247-2.075l-7.011-26.288A12.515 12.515 0 0 0 428.156 0H83.842a12.52 12.52 0 0 0-12.08 9.28l-7.01 26.287a8 8 0 0 0-.183 2.973l49.872 435.884-3.123 23.421c-1.137 7.254 5.05 14.32 12.391 14.151h264.577c7.342.169 13.527-6.898 12.391-14.152l-3.123-23.421L447.427 38.54q.051-.447.065-.898m-64.185 429.355h-17.761c-4.143 0-7.5 3.358-7.5 7.5s3.357 7.5 7.5 7.5h17.886l2 15H126.566l2-15h201.98c4.143 0 7.5-3.358 7.5-7.5s-3.357-7.5-7.5-7.5H128.69L80.407 45h18.491c4.143 0 7.5-3.358 7.5-7.5s-3.357-7.5-7.5-7.5H81.762l3.999-15h340.475l3.999 15H133.898c-4.143 0-7.5 3.358-7.5 7.5s3.357 7.5 7.5 7.5h297.693z"/></svg>