<svg xmlns="http://www.w3.org/2000/svg" width="512" height="512"><path fill="#faf2f3" d="M322.116 504.5H189.884c-12.311 0-22.79-8.963-24.698-21.126L128.5 249.5h255l-36.686 233.874c-1.908 12.163-12.387 21.126-24.698 21.126"/><path fill="#f0e5e0" d="m383.5 249.5-9.41 60h-30l9.41-60z"/><path fill="#c3aff0" d="m374.09 309.5-27.28 173.87c-1.9 12.17-12.38 21.13-24.69 21.13H189.88c-12.31 0-22.79-8.96-24.69-21.13L137.91 309.5z"/><path fill="#ad96ed" d="m374.09 309.5-27.28 173.87c-1.9 12.17-12.38 21.13-24.69 21.13h-30c12.31 0 22.79-8.96 24.69-21.13l27.28-173.87z"/><path fill="#ffe07d" d="M388 219.5H124c-8.284 0-15 6.716-15 15s6.716 15 15 15h264c8.284 0 15-6.716 15-15s-6.716-15-15-15"/><path fill="#ffd064" d="M403 234.5c0 8.28-6.72 15-15 15h-30c8.28 0 15-6.72 15-15 0-4.14-1.68-7.89-4.4-10.6-2.71-2.72-6.46-4.4-10.6-4.4h30c4.14 0 7.89 1.68 10.6 4.4 2.72 2.71 4.4 6.46 4.4 10.6"/><path fill="#faf2f3" d="M273.5 109.5h-35c-60.751 0-110 49.249-110 110h255c0-60.751-49.249-110-110-110"/><path fill="#f0e5e0" d="M383.5 219.5h-30c0-30.38-12.31-57.88-32.22-77.78-19.9-19.91-47.4-32.22-77.78-32.22h30c30.38 0 57.88 12.31 77.78 32.22 19.91 19.9 32.22 47.4 32.22 77.78"/><path fill="#ffe07d" d="M271 219.5h-30v-207a5 5 0 0 1 5-5h20a5 5 0 0 1 5 5z"/><path fill="#f0e5e0" d="M241 249.5h30v60h-30z"/><path fill="#ad96ed" d="M271 309.5h-30v25a5 5 0 0 0 5 5h20a5 5 0 0 0 5-5z"/><g fill="#fff"><path d="M212.5 421.5c-8.284 0-15-6.716-15-15s6.716-15 15-15 15 6.716 15 15-6.716 15-15 15M256 474.5c-8.284 0-15-6.716-15-15s6.716-15 15-15 15 6.716 15 15-6.716 15-15 15M301.5 421.5c-8.284 0-15-6.716-15-15s6.716-15 15-15 15 6.716 15 15-6.716 15-15 15"/></g><path fill="#f0e5e0" d="M241 109.5h30v110h-30z"/><path d="M410.5 234.5c0-11.469-8.628-20.955-19.733-22.324-1.789-29.143-14.196-56.276-35.223-76.789-20.872-20.363-48.069-32.066-77.044-33.276V12.5C278.5 5.607 272.893 0 266 0h-20c-6.893 0-12.5 5.607-12.5 12.5v89.611c-29.087 1.214-56.36 12.992-77.263 33.489-20.908 20.502-33.225 47.54-35.005 76.576-11.105 1.369-19.732 10.855-19.732 22.324 0 11.756 9.065 21.429 20.571 22.412l35.706 227.625c2.497 15.913 16 27.463 32.107 27.463h82.81a7.5 7.5 0 0 0 0-15h-82.81c-8.673 0-15.944-6.219-17.289-14.788L146.68 317h86.82v17.5c0 6.893 5.607 12.5 12.5 12.5h20c6.893 0 12.5-5.607 12.5-12.5V317h86.82l-25.915 165.211c-1.345 8.57-8.616 14.789-17.289 14.789h-14.421a7.5 7.5 0 0 0 0 15h14.421c16.108 0 29.611-11.55 32.107-27.464l35.706-227.625c11.506-.982 20.571-10.655 20.571-22.411M375.728 212H278.5v-94.881c52.066 2.445 93.532 42.89 97.228 94.881M248.5 117h15v95h-15zm15-102v87h-15V15zM137.268 257H233.5v45h-89.173zM248.5 302v-45h15v45zm15 30h-15v-15h15zm15-30v-45h96.232l-7.059 45zM388 242H124c-4.136 0-7.5-3.364-7.5-7.5s3.364-7.5 7.5-7.5h32a7.5 7.5 0 0 0 0-15h-19.725c3.756-51.2 45.895-92.351 97.225-94.875V212H191a7.5 7.5 0 0 0 0 15h197c4.136 0 7.5 3.364 7.5 7.5s-3.364 7.5-7.5 7.5"/><path d="M235 406.5c0-12.407-10.093-22.5-22.5-22.5S190 394.093 190 406.5s10.093 22.5 22.5 22.5 22.5-10.093 22.5-22.5m-30 0c0-4.136 3.364-7.5 7.5-7.5s7.5 3.364 7.5 7.5-3.364 7.5-7.5 7.5-7.5-3.364-7.5-7.5M256 482c12.407 0 22.5-10.093 22.5-22.5S268.407 437 256 437s-22.5 10.093-22.5 22.5S243.593 482 256 482m0-30c4.136 0 7.5 3.364 7.5 7.5s-3.364 7.5-7.5 7.5-7.5-3.364-7.5-7.5 3.364-7.5 7.5-7.5M200.5 349.5c0-5.514-4.486-10-10-10s-10 4.486-10 10 4.486 10 10 10 10-4.486 10-10M309.5 470c5.514 0 10-4.486 10-10s-4.486-10-10-10-10 4.486-10 10 4.486 10 10 10M192.5 460c0 5.514 4.486 10 10 10s10-4.486 10-10-4.486-10-10-10-10 4.486-10 10M266 379.5c0-5.514-4.486-10-10-10s-10 4.486-10 10 4.486 10 10 10 10-4.486 10-10M331.5 349.5c0-5.514-4.486-10-10-10s-10 4.486-10 10 4.486 10 10 10 10-4.486 10-10M279 406.5c0 12.407 10.093 22.5 22.5 22.5s22.5-10.093 22.5-22.5-10.093-22.5-22.5-22.5-22.5 10.093-22.5 22.5m30 0c0 4.136-3.364 7.5-7.5 7.5s-7.5-3.364-7.5-7.5 3.364-7.5 7.5-7.5 7.5 3.364 7.5 7.5"/></svg>