<svg xmlns="http://www.w3.org/2000/svg" width="512" height="512"><path fill="#b1f1f1" d="M395 392.5h25c16.569 0 30-13.431 30-30v-75c0-16.569-13.431-30-30-30h-67l3-30h64c33.137 0 60 26.863 60 60v75c0 33.137-26.863 60-60 60h-25z"/><path fill="#cdf2f9" d="m140.154 152.646 19.486 32.467a114.75 114.75 0 0 1-8.233 130.039A127.9 127.9 0 0 0 124 394.264c0 60.882 49.354 110.236 110.236 110.236h74.529C369.646 504.5 419 455.146 419 394.264c0-28.699-9.653-56.563-27.407-79.111a114.75 114.75 0 0 1-8.233-130.04l19.486-32.467c4-6.665-.801-15.146-8.574-15.146H148.728c-7.773 0-12.574 8.481-8.574 15.146"/><path fill="#b1f1f1" d="m402.85 152.65-19.49 32.46c-.67 1.12-1.33 2.25-1.96 3.39h-30c.63-1.14 1.29-2.27 1.96-3.39l19.49-32.46c4-6.67-.8-15.15-8.58-15.15h30c7.78 0 12.58 8.48 8.58 15.15"/><path fill="#fc8d94" d="M419 394.26c0 60.89-49.35 110.24-110.24 110.24h-74.52c-30.44 0-58-12.34-77.95-32.29S124 424.7 124 394.26c0-14.34 2.41-28.48 7.04-41.86a128 128 0 0 1 20.37-37.25c7.97-10.11 14.11-21.42 18.27-33.42s6.32-24.69 6.32-37.57c0-19.49-4.97-38.64-14.4-55.66h219.8a114.89 114.89 0 0 0-14.4 55.66c0 12.88 2.16 25.57 6.32 37.57s10.3 23.31 18.27 33.42a128 128 0 0 1 20.37 37.25c4.63 13.38 7.04 27.52 7.04 41.86"/><g fill="#f77289"><path d="M419 394.26c0 60.89-49.35 110.24-110.24 110.24h-30c60.89 0 110.24-49.35 110.24-110.24 0-14.34-2.41-28.48-7.04-41.86a128 128 0 0 0-20.37-37.25c-7.97-10.11-14.11-21.42-18.27-33.42S337 257.04 337 244.16a114.9 114.9 0 0 1 14.4-55.66h30a114.89 114.89 0 0 0-14.4 55.66c0 12.88 2.16 25.57 6.32 37.57s10.3 23.31 18.27 33.42a128 128 0 0 1 20.37 37.25c4.63 13.38 7.04 27.52 7.04 41.86M265.377 427.037l4.747-4.747a2 2 0 0 1 2.828 0l4.747 4.747a30.18 30.18 0 0 1 0 42.678l-4.747 4.747a2 2 0 0 1-2.828 0l-4.747-4.747a30.18 30.18 0 0 1 0-42.678M184.898 438.502l1.138-6.616a2 2 0 0 1 2.31-1.632l6.616 1.138a30.177 30.177 0 0 1 24.623 34.858l-1.138 6.616a2 2 0 0 1-2.31 1.632l-6.616-1.138a30.177 30.177 0 0 1-24.623-34.858"/><path d="m358.101 438.502-1.138-6.616a2 2 0 0 0-2.31-1.632l-6.616 1.138a30.177 30.177 0 0 0-24.623 34.858l1.138 6.616a2 2 0 0 0 2.31 1.632l6.616-1.138a30.177 30.177 0 0 0 24.623-34.858"/></g><ellipse cx="107.769" cy="457.969" fill="#f4b0be" rx="48.92" ry="20.941" transform="rotate(-70 107.7 457.807)"/><ellipse cx="141.231" cy="366.031" fill="#f4b0be" rx="48.92" ry="20.941" transform="rotate(-70 141.156 365.904)"/><ellipse cx="78.531" cy="395.269" fill="#f4b0be" rx="20.941" ry="48.92" transform="rotate(-70 78.478 395.127)"/><ellipse cx="170.469" cy="428.731" fill="#f4b0be" rx="20.941" ry="48.92" transform="rotate(-70 170.38 428.583)"/><ellipse cx="145.174" cy="456.336" fill="#ffc7ce" rx="20.941" ry="48.92" transform="rotate(-25.04 144.797 455.945)"/><ellipse cx="103.826" cy="367.664" fill="#ffc7ce" rx="20.941" ry="48.92" transform="rotate(-25.04 103.536 367.344)"/><ellipse cx="80.164" cy="432.674" fill="#ffc7ce" rx="48.92" ry="20.941" transform="rotate(-25.04 79.866 432.275)"/><ellipse cx="168.836" cy="391.326" fill="#ffc7ce" rx="48.92" ry="20.941" transform="rotate(-25.04 168.467 391.014)"/><path fill="#fff3d2" d="M124.5 442c-16.569 0-30-13.431-30-30s13.431-30 30-30 30 13.431 30 30-13.431 30-30 30"/><path fill="#ffe6ae" d="M154.5 412c0 8.28-3.36 15.78-8.79 21.21S132.78 442 124.5 442c-5.46 0-10.59-1.46-15-4.03 2.28-1.31 4.36-2.91 6.21-4.76 5.43-5.43 8.79-12.93 8.79-21.21s-3.36-15.78-8.79-21.21a29.7 29.7 0 0 0-6.21-4.76c4.41-2.57 9.54-4.03 15-4.03 8.28 0 15.78 3.36 21.21 8.79s8.79 12.93 8.79 21.21"/><path d="M336.048 110.739a7.5 7.5 0 0 0 10.606.116 7.5 7.5 0 0 0 .116-10.605l-9.892-10.111c-2.077-2.123-3.079-5.033-2.748-7.984s1.952-5.568 4.447-7.177l3.501-2.259a24.75 24.75 0 0 0 11.221-18.11 24.76 24.76 0 0 0-6.932-20.145l-9.892-10.111a7.5 7.5 0 0 0-10.722 10.489l9.892 10.111c2.077 2.123 3.079 5.033 2.748 7.984s-1.952 5.568-4.447 7.177l-3.501 2.259a24.75 24.75 0 0 0-11.221 18.11 24.76 24.76 0 0 0 6.932 20.145zM272.792 110.739a7.5 7.5 0 0 0 10.606.116 7.5 7.5 0 0 0 .116-10.605l-12.772-13.054c-3.142-3.212-4.658-7.614-4.157-12.079s2.953-8.423 6.728-10.859l4.519-2.916a29.78 29.78 0 0 0 13.501-21.791 29.78 29.78 0 0 0-8.34-24.24L270.222 2.255A7.5 7.5 0 0 0 259.5 12.744l12.772 13.054c3.142 3.212 4.658 7.614 4.157 12.079s-2.953 8.423-6.728 10.859l-4.519 2.916a29.79 29.79 0 0 0-13.502 21.791 29.79 29.79 0 0 0 8.341 24.24zM206.54 110.739a7.5 7.5 0 0 0 10.722-10.488L207.37 90.14a9.81 9.81 0 0 1-2.747-7.984 9.81 9.81 0 0 1 4.448-7.178l3.499-2.259c6.296-4.062 10.386-10.663 11.221-18.109s-1.692-14.789-6.932-20.145l-9.892-10.111a7.5 7.5 0 1 0-10.722 10.488l9.892 10.111a9.81 9.81 0 0 1 2.747 7.984 9.81 9.81 0 0 1-4.448 7.178l-3.499 2.259c-6.296 4.062-10.386 10.663-11.221 18.109s1.692 14.789 6.932 20.145zM479.996 334.982a7.5 7.5 0 0 0 7.5-7.5v-39.998c0-37.218-30.279-67.496-67.496-67.496h-42.727a107.2 107.2 0 0 1 12.52-31.026l19.484-32.464c7.183-11.076-1.813-26.963-15.004-26.505h-245.53c-13.193-.458-22.185 15.429-15.005 26.504l19.485 32.465a107.27 107.27 0 0 1 15.29 55.189c0 23.959-8.163 47.521-22.984 66.345a135 135 0 0 0-4.594 6.189 8 8 0 0 0-.383.611c-7.102 5.185-13.757 13.71-19.124 23.603-11.934-18.203-27.929-30.681-41.428-24.385-4.611 2.15-12.26 8.422-11.691 26.279.207 6.493 1.499 13.701 3.732 21.128-21.136-4.308-41.478-1.787-46.507 12.032-4.614 12.678 6.565 27.844 27.823 39.165-18.16 11.929-30.592 27.896-24.306 41.377 2.074 4.447 7.982 11.721 24.421 11.721q.907 0 1.858-.03c6.468-.206 13.644-1.489 21.041-3.706-4.989 23.557-.554 41.868 12.119 46.481a17 17 0 0 0 5.87 1.04c12.084 0 24.396-12.594 33.246-28.934 9.8 14.945 22.335 26.03 33.982 26.029 2.536 0 5.031-.526 7.444-1.651 2.732-1.274 6.532-3.997 9.055-9.719 17.175 9.339 36.402 14.249 56.159 14.249h74.525c52.472 0 97.029-34.508 112.187-82.02 36.776-.516 66.539-30.575 66.539-67.472 0-4.142-3.357-7.5-7.5-7.5s-7.5 3.358-7.5 7.5c0 27.36-21.042 49.886-47.79 52.276a118 118 0 0 0 1.672-15.327c17.598-3.066 31.119-18.597 31.119-36.949v-74.996c0-20.677-16.821-37.498-37.498-37.498h-45.316a106 106 0 0 1-.181-5.835c0-3.067.147-6.123.408-9.164H420c28.947 0 52.497 23.55 52.497 52.497v39.998a7.5 7.5 0 0 0 7.499 7.497m-324.585-7.891c3.419 1.245 7.292 15.976-.052 39.15-6.408 3.094-12.458 6.705-17.757 10.6q-.263-.096-.527-.19c-1.556-6.391-3.868-13.047-6.79-19.537 9.268-22.475 21.693-31.265 25.126-30.023m56.794 137.863-.205 1.195-1.196-.206a22.56 22.56 0 0 1-9.68-4.155c4.255-.464 8.052-1.411 11.292-2.827.19 1.991.131 4.008-.211 5.993m-2.804-22.079c-1.244 3.42-15.974 7.293-39.148-.053-3.091-6.401-6.706-12.472-10.597-17.766q.095-.258.187-.518c6.389-1.555 13.044-3.867 19.533-6.788 21.166 8.75 31.485 21.115 30.025 25.125m-84.886-8.398c-12.406 0-22.499-10.093-22.499-22.499s10.093-22.499 22.499-22.499 22.499 10.093 22.499 22.499-10.093 22.499-22.499 22.499m50.015-30.991a103 103 0 0 1-12.69 4.934c-.834-8.82-4.735-16.758-10.624-22.737a103 103 0 0 1 11.953-6.559c10.785-5.029 22.088-8.076 31.01-8.361 7.805-.246 11.574 1.681 12.207 3.038 1.698 3.643-7.091 18.137-31.856 29.685m-88.192-73.378c3.645-1.694 18.136 7.09 29.685 31.856a103 103 0 0 1 4.934 12.69c-8.82.834-16.758 4.735-22.737 10.624a103 103 0 0 1-6.559-11.953c-5.029-10.785-8.076-22.088-8.361-31.01-.249-7.801 1.68-11.575 3.038-12.207m-46.71 50.975c1.248-3.431 15.974-7.299 39.148.05 3.094 6.408 6.706 12.461 10.601 17.76q-.097.262-.19.526c-6.39 1.555-13.044 3.868-19.534 6.788-22.472-9.271-31.267-21.712-30.025-25.124m15.223 72.111c-7.804.245-11.574-1.681-12.207-3.038-1.699-3.643 7.091-18.137 31.856-29.685a103 103 0 0 1 12.69-4.934c.834 8.821 4.736 16.759 10.625 22.738a103 103 0 0 1-11.954 6.558c-10.784 5.029-22.087 8.076-31.01 8.361m38.768 43.671c-3.412-1.242-7.289-15.976.053-39.15 6.404-3.092 12.462-6.705 17.759-10.598q.256.095.514.186c1.555 6.387 3.88 13.055 6.797 19.539-9.261 22.479-21.668 31.29-25.123 30.023m69.073-3.016c-3.639 1.703-18.136-7.09-29.685-31.857a103 103 0 0 1-4.937-12.689c8.823-.834 16.764-4.736 22.744-10.627a103.5 103.5 0 0 1 6.556 11.956c5.029 10.785 8.076 22.088 8.361 31.01.248 7.801-1.681 11.574-3.039 12.207m146.078 3.125h-74.525c-18.995 0-37.424-5.192-53.509-15.029-.005-.261-.006-.516-.014-.781-.206-6.471-1.491-13.652-3.71-21.052q2.125.45 4.19.797a38 38 0 0 0 2.675 4.425c5.807 8.22 14.467 13.686 24.383 15.392 1.225.168 7.103 1.344 8.231 1.277 4.536 0 8.563-3.27 9.358-7.89l1.138-6.615c1.275-7.413.27-15.097-2.817-21.93 2.467-12.138-8.592-26.12-28.5-36.727 18.161-11.929 30.595-27.897 24.309-41.378-2.15-4.611-8.419-12.278-26.279-11.691-6.467.206-13.642 1.489-21.037 3.705 4.815-22.717.865-40.545-10.795-45.93 13.989-20.315 21.643-44.662 21.643-69.395a122.3 122.3 0 0 0-9.888-48.162h16.437a7.5 7.5 0 0 0 0-15h-24.129l-19.333-32.212c-.88-2.081-.094-3.471 2.144-3.786h245.53c2.238.316 3.025 1.705 2.143 3.786l-19.332 32.212H225.059a7.5 7.5 0 0 0 0 15h144.332a122.3 122.3 0 0 0-9.888 48.162c0 27.31 9.304 54.167 26.199 75.624 16.637 21.129 25.798 47.575 25.798 74.468 0 56.645-46.084 102.73-102.73 102.73M420 264.986c12.406 0 22.499 10.093 22.499 22.499v74.996c0 10.204-6.967 18.952-16.39 21.644-2.026-26.701-12.005-52.524-28.622-73.629-10.481-13.311-17.613-28.996-20.902-45.51z"/><path d="M278.264 416.965c-3.705-3.705-9.731-3.703-13.436 0l-4.746 4.747c-7.116 7.115-11.035 16.576-11.035 26.64s3.919 19.525 11.035 26.641l4.746 4.746c3.704 3.704 9.731 3.704 13.435 0l4.748-4.747c7.116-7.117 11.035-16.578 11.035-26.641s-3.919-19.525-11.035-26.641zm-5.859 47.422-.858.858-.858-.858c-4.283-4.283-6.642-9.977-6.642-16.034s2.359-11.752 6.642-16.034l.001-.001.857-.857.857.858a22.53 22.53 0 0 1 6.642 16.035c0 6.055-2.359 11.75-6.641 16.033M364.357 430.59a9.44 9.44 0 0 0-3.881-6.147c-3.614-3.042-9.597-1.088-13.707-.465-9.917 1.706-18.577 7.172-24.384 15.392s-8.064 18.208-6.357 28.126l1.139 6.618c.795 4.618 4.821 7.887 9.359 7.887 1.093.072 7.042-1.115 8.229-1.276 9.918-1.706 18.578-7.173 24.383-15.392 5.806-8.22 8.065-18.209 6.358-28.127zm-17.471 26.09a22.52 22.52 0 0 1-14.676 9.264l-1.195.206-.205-1.196a22.52 22.52 0 0 1 3.826-16.928 22.53 22.53 0 0 1 14.676-9.265l1.196-.206.205 1.196a22.53 22.53 0 0 1-3.827 16.929"/></svg>