<svg xmlns="http://www.w3.org/2000/svg" width="512" height="512"><path fill="#be785a" d="m255.711 369.845.748 1.629a9.82 9.82 0 0 0 6.066 5.299l.682.207c5.768 1.755 8.607 8.245 5.979 13.672a9.82 9.82 0 0 0-.087 8.373l16.691 36.378a12.97 12.97 0 0 0 5.38 5.867l.746.424a12.97 12.97 0 0 1 6.231 14.182 12.96 12.96 0 0 0 .851 8.315l12.83 27.964c4.693 10.23 16.571 14.998 27.035 10.852 9.954-3.944 15.396-14.699 12.677-25.055l-20.11-76.581-20.57-75.772-55.149-6.115z"/><path fill="#ce845c" d="m271.776 336.091-16.234 35.384a9.82 9.82 0 0 1-6.066 5.299l-.682.207c-5.768 1.755-8.607 8.245-5.979 13.672a9.82 9.82 0 0 1 .087 8.373l-16.691 36.378a12.97 12.97 0 0 1-5.38 5.867l-.746.424a12.97 12.97 0 0 0-6.231 14.182c.642 2.79.343 5.713-.851 8.315l-12.83 27.964c-4.693 10.23-16.571 14.998-27.035 10.852-9.954-3.944-15.396-14.699-12.677-25.055l20.11-76.581 71.283-111.39 31.987 23.618z"/><path fill="#e29a6c" d="M343.85 134.256v48.403a30 30 0 0 1-11.411 23.546l-7.43 5.866a10.98 10.98 0 0 1-8.8 2.179c-6.358-1.176-12.35 3.369-12.932 9.808l-.078.864a10.98 10.98 0 0 1-4.132 7.629l-12.961 10.233a20 20 0 0 0-7.607 15.698v12.491a20 20 0 0 0 14.769 19.304l22.785 6.175a30 30 0 0 1 16.649 11.636l31.509 44.565a16.1 16.1 0 0 1 2.95 9.47l-.006.506a16.08 16.08 0 0 0 11.132 15.487 16.1 16.1 0 0 1 8.182 6.017l37.71 53.335c6.178 8.737 4.858 20.712-3.074 27.894-8.338 7.55-21.126 7.254-29.107-.672l-3.734-3.709a9.61 9.61 0 0 1-2.82-7.417c.341-5.485-3.977-10.138-9.472-10.209l-1.634-.021a9.6 9.6 0 0 1-6.651-2.792l-57.233-56.847a11 11 0 0 1-3.223-7.029l-.111-1.556a11.01 11.01 0 0 0-11.024-10.226 11 11 0 0 1-7.801-3.198l-8.753-8.694a30 30 0 0 1-8.84-22.331l.012-.33c.291-8.327-6.381-15.236-14.714-15.236s-15.004 6.909-14.714 15.236l.012.33a30 30 0 0 1-8.84 22.331l-8.753 8.694a11 11 0 0 1-7.801 3.198 11.01 11.01 0 0 0-11.024 10.226l-.111 1.556a11 11 0 0 1-3.223 7.029l-57.233 56.847a9.61 9.61 0 0 1-6.651 2.792l-1.634.021c-5.495.07-9.812 4.724-9.472 10.209a9.61 9.61 0 0 1-2.82 7.417l-3.734 3.709c-7.981 7.927-20.769 8.222-29.107.672-7.932-7.182-9.252-19.157-3.074-27.894l37.709-53.335a16.08 16.08 0 0 1 8.182-6.017 16.08 16.08 0 0 0 11.132-15.487l-.006-.506a16.1 16.1 0 0 1 2.95-9.47l31.509-44.565a30 30 0 0 1 16.649-11.636l22.785-6.175a20 20 0 0 0 14.769-19.304v-12.491a20 20 0 0 0-7.607-15.698l-12.961-10.233a10.98 10.98 0 0 1-4.132-7.629l-.078-.864c-.582-6.439-6.574-10.984-12.932-9.808a10.98 10.98 0 0 1-8.8-2.179l-7.43-5.866a30 30 0 0 1-11.411-23.546v-48.403L206 146.949v28.701c0 1.53.701 2.977 1.902 3.925l35.706 28.184a20 20 0 0 0 24.783 0l35.706-28.184a5 5 0 0 0 1.902-3.925V151z"/><path fill="#ce845c" d="M421.1 465.36a21.08 21.08 0 0 1-14.19 5.48c-5.4 0-10.8-2.06-14.91-6.15l-.1-.1c7.22-7.23 8.25-18.68 2.28-27.12l-37.71-53.34c-1.01-1.41-2.23-2.65-3.61-3.67s-2.92-1.81-4.57-2.34c-6.7-2.17-11.22-8.45-11.13-15.49v-.51c.04-3.39-.99-6.7-2.95-9.47l-31.51-44.56c-4.03-5.7-9.91-9.81-16.65-11.64l-22.78-6.17a20.01 20.01 0 0 1-14.77-19.31v-12.49c0-6.12 2.8-11.9 7.61-15.7l12.96-10.23c2.36-1.87 3.86-4.63 4.13-7.63l.08-.86c.52-5.75 5.35-10 10.91-10 .67 0 1.34.06 2.02.19 3.11.58 6.32-.22 8.8-2.18l7.43-5.86a30 30 0 0 0 11.41-23.55v-35.13l30-13.27v48.4c0 9.18-4.2 17.86-11.41 23.55l-7.43 5.86a10.96 10.96 0 0 1-8.8 2.18c-.68-.13-1.35-.19-2.02-.19-5.56 0-10.39 4.25-10.91 10l-.08.86c-.27 3-1.77 5.76-4.13 7.63l-12.96 10.23c-4.81 3.8-7.61 9.58-7.61 15.7v12.49c0 9.03 6.05 16.94 14.77 19.31l22.78 6.17a30 30 0 0 1 16.65 11.64l31.51 44.56c1.96 2.77 2.99 6.08 2.95 9.47v.51c-.09 7.04 4.43 13.32 11.13 15.49 1.65.53 3.19 1.32 4.57 2.34s2.6 2.26 3.61 3.67l37.71 53.34c6.18 8.74 4.86 20.71-3.08 27.89"/><path fill="#ccf49f" d="M406 70.5c-2.54 0-5.023.239-7.431.693a2.18 2.18 0 0 1-2.597-2.237q.028-.724.028-1.456c0-22.091-17.909-40-40-40-10.739 0-20.484 4.237-27.668 11.126-1.193 1.144-3.164.569-3.572-1.033C320.352 20.294 304.672 7.5 286 7.5c-11.147 0-21.222 4.565-28.475 11.922a2.14 2.14 0 0 1-3.05 0C247.222 12.065 237.147 7.5 226 7.5c-18.672 0-34.352 12.794-38.76 30.093-.408 1.601-2.379 2.176-3.572 1.033C176.484 31.737 166.739 27.5 156 27.5c-22.091 0-40 17.909-40 40q0 .732.027 1.456a2.18 2.18 0 0 1-2.597 2.237A40 40 0 0 0 106 70.5c-22.091 0-40 17.909-40 40s17.909 40 40 40a39.8 39.8 0 0 0 20.097-5.411 2.155 2.155 0 0 1 3.077 1.029C135.258 160.447 149.452 170.5 166 170.5c11.147 0 21.222-4.565 28.475-11.922a2.14 2.14 0 0 1 3.05 0c7.253 7.356 17.328 11.922 28.475 11.922s21.222-4.565 28.475-11.922a2.14 2.14 0 0 1 3.05 0c7.253 7.356 17.328 11.922 28.475 11.922s21.222-4.565 28.475-11.922a2.14 2.14 0 0 1 3.05 0c7.253 7.356 17.328 11.922 28.475 11.922 16.548 0 30.742-10.053 36.826-24.382a2.155 2.155 0 0 1 3.077-1.029A39.8 39.8 0 0 0 406 150.5c22.091 0 40-17.909 40-40s-17.909-40-40-40"/><g fill="#b3e59f"><path d="M380.8 150.21a40.1 40.1 0 0 1-12.46 13.47c-6.38 4.31-14.06 6.82-22.34 6.82-5.32 0-10.38-1.03-15.01-2.91 2.6-1.05 5.06-2.36 7.35-3.91a40.2 40.2 0 0 0 14.49-17.56 2.144 2.144 0 0 1 3.07-1.03 39.8 39.8 0 0 0 20.1 5.41c1.62 0 3.23-.1 4.8-.29M320.83 27.83c-3.49.45-6.85 1.36-10 2.65a40 40 0 0 0-12.5 8.15c-1.19 1.14-3.16.56-3.57-1.04-3.16-12.38-12.09-22.46-23.76-27.18 4.63-1.88 9.69-2.91 15-2.91 14.94 0 27.96 8.19 34.83 20.33M446 110.5c0 11.04-4.48 21.04-11.72 28.28S417.04 150.5 406 150.5c-5.31 0-10.37-1.03-15-2.92 5.01-2.02 9.52-5.04 13.28-8.8 7.24-7.24 11.72-17.24 11.72-28.28s-4.48-21.04-11.72-28.28S387.04 70.5 376 70.5c-2.54 0-5.02.24-7.43.69-1.4.27-2.65-.82-2.6-2.23.02-.49.03-.97.03-1.46 0-11.04-4.48-21.04-11.72-28.28A40.1 40.1 0 0 0 341 30.41c4.63-1.88 9.69-2.91 15-2.91 11.04 0 21.04 4.48 28.28 11.72S396 56.46 396 67.5c0 .49-.01.97-.03 1.46-.05 1.41 1.2 2.5 2.6 2.23 2.41-.45 4.89-.69 7.43-.69 11.04 0 21.04 4.48 28.28 11.72S446 99.46 446 110.5"/></g><path d="m290.755 248.67 12.961-10.232a18.56 18.56 0 0 0 6.954-12.84c.154-2.685 1.375-4.216 4.176-3.973a18.48 18.48 0 0 0 14.811-3.667l7.43-5.866c9.064-7.157 14.264-17.885 14.264-29.433v-4.982a47.4 47.4 0 0 0 35.856-23.547A47.6 47.6 0 0 0 406 158c26.191 0 47.5-21.309 47.5-47.5S432.191 63 405.999 63q-1.353 0-2.704.077C401.057 38.951 380.7 20 356 20c-9.594 0-18.802 2.853-26.604 8.148C321.881 11.245 305.016 0 286 0c-11.074 0-21.552 3.758-30 10.676C247.55 3.758 237.073 0 226 0c-19.017 0-35.881 11.246-43.395 28.148C174.802 22.852 165.594 20 156 20c-2.719 0-5.446.232-8.106.69a7.501 7.501 0 0 0 2.545 14.783A33 33 0 0 1 156 35c8.416 0 16.398 3.21 22.476 9.039 5.026 5.115 14.471 2.403 16.031-4.594C198.175 25.052 211.125 15 226 15c8.76 0 16.976 3.44 23.136 9.69 3.6 3.802 10.131 3.802 13.73-.003C269.024 18.44 277.24 15 286 15c14.875 0 27.825 10.052 31.492 24.446 1.561 6.996 11.005 9.708 16.031 4.593A32.33 32.33 0 0 1 356 35c17.921 0 32.5 14.58 32.5 32.5q0 .596-.022 1.177a9.65 9.65 0 0 0 3.356 7.711 9.65 9.65 0 0 0 8.125 2.175A32.7 32.7 0 0 1 406 78c17.921 0 32.5 14.58 32.5 32.5S423.921 143 406 143a32.47 32.47 0 0 1-16.323-4.392 9.66 9.66 0 0 0-7.905-.822 9.68 9.68 0 0 0-5.85 5.401A32.46 32.46 0 0 1 346 163c-8.76 0-16.975-3.44-23.135-9.688-3.597-3.804-10.135-3.804-13.731.001-6.158 6.247-14.374 9.686-23.134 9.686s-16.975-3.44-23.135-9.688c-3.597-3.804-10.135-3.804-13.731.001-6.158 6.247-14.374 9.686-23.134 9.686s-16.975-3.44-23.135-9.688c-3.597-3.804-10.135-3.804-13.731.001-6.158 6.247-14.374 9.686-23.134 9.686a32.46 32.46 0 0 1-29.922-19.814c-2.094-5.255-8.932-7.536-13.755-4.578A32.5 32.5 0 0 1 106 142.997c-17.921 0-32.5-14.58-32.5-32.5S88.08 78 106.001 78c2.026 0 4.059.189 6.043.564 5.913 1.275 11.86-3.848 11.479-9.881a32.548 32.548 0 0 1 3.821-16.53 7.501 7.501 0 0 0-13.217-7.095 47.55 47.55 0 0 0-5.419 18.018 48 48 0 0 0-2.707-.077c-26.191 0-47.5 21.308-47.5 47.5s21.308 47.5 47.5 47.5a47.6 47.6 0 0 0 18.793-3.87 47.4 47.4 0 0 0 35.856 23.547v4.982c0 11.548 5.199 22.276 14.264 29.433l7.43 5.865a18.48 18.48 0 0 0 14.811 3.668c2.8-.244 4.022 1.288 4.176 3.972a18.56 18.56 0 0 0 6.954 12.841l12.961 10.232a12.43 12.43 0 0 1 4.755 9.811v12.491a12.525 12.525 0 0 1-9.23 12.065l-22.785 6.174a37.58 37.58 0 0 0-20.81 14.545l-31.51 44.566a23.43 23.43 0 0 0-4.324 13.886l.005.505a8.54 8.54 0 0 1-5.94 8.266 23.73 23.73 0 0 0-11.998 8.824L81.7 433.136c-8.359 11.823-6.568 28.066 4.164 37.784 11.297 10.229 28.614 9.828 39.426-.911l3.735-3.71a17.12 17.12 0 0 0 5.02-13.203c-.09-2.184 2.03-2.368 3.717-2.265a17.03 17.03 0 0 0 11.84-4.97l15.604-15.499-11.997 45.683c-3.679 14.01 3.702 28.598 17.168 33.932a28.6 28.6 0 0 0 10.553 2.022c10.894 0 21.257-6.246 26.061-16.72l12.83-27.962a20.57 20.57 0 0 0 1.344-13.125 5.5 5.5 0 0 1 2.626-5.979l.747-.424a20.36 20.36 0 0 0 8.492-9.26l16.691-36.379a17.27 17.27 0 0 0-.153-14.767c-.71-1.873.277-2.991 2.094-3.436a17.3 17.3 0 0 0 4.341-2.04 17.3 17.3 0 0 0 4.344 2.041c1.818.448 2.797 1.561 2.091 3.434a17.26 17.26 0 0 0-.153 14.769l16.691 36.381a20.36 20.36 0 0 0 8.492 9.258l.744.423a5.5 5.5 0 0 1 2.627 5.981 20.57 20.57 0 0 0 1.345 13.123l12.83 27.964c4.806 10.475 15.167 16.72 26.061 16.72a28.6 28.6 0 0 0 10.553-2.022c13.466-5.334 20.847-19.922 17.168-33.932l-11.997-45.682 15.603 15.498a17.04 17.04 0 0 0 11.841 4.971c1.689-.103 3.805.08 3.717 2.264a17.11 17.11 0 0 0 5.02 13.204l3.734 3.709a28.58 28.58 0 0 0 20.196 8.326 28.57 28.57 0 0 0 19.229-7.415c10.732-9.717 12.523-25.961 4.164-37.783l-37.709-53.335a23.73 23.73 0 0 0-11.998-8.823 8.545 8.545 0 0 1-5.941-8.265l.006-.507c.059-5-1.437-9.802-4.324-13.886l-11.295-15.974a7.5 7.5 0 1 0-12.248 8.66l11.295 15.973a8.53 8.53 0 0 1 1.574 5.054l-.007.508c-.117 10.386 6.442 19.512 16.323 22.708a8.64 8.64 0 0 1 4.367 3.211l37.709 53.335c3.983 5.633 3.131 13.373-1.984 18.004-5.383 4.874-13.636 4.684-18.787-.434l-3.733-3.708a2.12 2.12 0 0 1-.621-1.631 17.19 17.19 0 0 0-4.535-12.701 17.18 17.18 0 0 0-12.325-5.472c-.935-.042-2.41.177-3.097-.635l-57.232-56.846c-1.045-.914-1.072-2.52-1.138-3.797-.688-9.656-8.788-17.194-18.46-17.194q-.042.002-.09 0a3.5 3.5 0 0 1-2.472-1.018l-8.752-8.694a22.57 22.57 0 0 1-6.631-16.744l.012-.335c.212-6.079-1.998-11.837-6.225-16.212s-9.902-6.785-15.984-6.785-11.759 2.41-15.984 6.785c-4.227 4.375-6.436 10.133-6.225 16.217l.012.325a22.57 22.57 0 0 1-6.631 16.749l-8.751 8.692a3.49 3.49 0 0 1-2.473 1.02q-.043.002-.09 0c-9.671 0-17.772 7.539-18.46 17.196-.066 1.278-.093 2.879-1.137 3.794l-57.234 56.847c-.682.81-2.165.592-3.095.634a17.2 17.2 0 0 0-12.326 5.472 17.19 17.19 0 0 0-4.535 12.702 2.12 2.12 0 0 1-.62 1.63l-3.734 3.709c-5.152 5.118-13.405 5.308-18.787.434-5.115-4.631-5.968-12.371-1.984-18.005l37.709-53.334a8.64 8.64 0 0 1 4.367-3.212c9.881-3.197 16.44-12.322 16.323-22.71l-.007-.506a8.53 8.53 0 0 1 1.574-5.053l31.51-44.565a22.55 22.55 0 0 1 12.486-8.727l22.785-6.174C232.65 294.273 241 283.359 241 270.971V258.48c0-8.469-3.812-16.336-10.46-21.584l-12.961-10.232a3.5 3.5 0 0 1-1.31-2.418l-.078-.863a18.52 18.52 0 0 0-7.237-13.06 18.52 18.52 0 0 0-14.528-3.448c-.981.183-2-.069-2.788-.691l-7.43-5.865c-5.439-4.294-8.559-10.731-8.559-17.661v-5.642a46.95 46.95 0 0 0 20.35-9.693 47 47 0 0 0 2.5 1.899v6.426c0 3.85 1.733 7.426 4.756 9.812l35.706 28.184c5.016 3.959 11.026 5.938 17.038 5.938 6.011 0 12.022-1.979 17.038-5.938l35.707-28.184a12.43 12.43 0 0 0 4.755-9.811v-6.426a48 48 0 0 0 2.5-1.9 46.96 46.96 0 0 0 20.35 9.693v5.642c0 6.929-3.119 13.366-8.559 17.66l-7.43 5.866c-.786.621-1.8.874-2.788.69a18.52 18.52 0 0 0-14.528 3.448 18.52 18.52 0 0 0-7.237 13.06l-.078.864a3.5 3.5 0 0 1-1.31 2.418l-12.961 10.232c-6.647 5.248-10.46 13.115-10.46 21.584v12.491c0 12.388 8.351 23.302 20.307 26.542l22.785 6.174a22.55 22.55 0 0 1 12.486 8.727c2.404 3.405 7.109 4.169 10.453 1.794a7.5 7.5 0 0 0 1.795-10.454 37.58 37.58 0 0 0-20.81-14.545l-22.785-6.174a12.52 12.52 0 0 1-9.23-12.065v-12.491a12.43 12.43 0 0 1 4.756-9.809m-16.497 109.642 8.753 8.695c3.51 3.486 8.206 5.417 13.116 5.375 2.602-.07 3.775 2.525 3.622 4.813a18.5 18.5 0 0 0 5.419 11.819l20.648 20.509 18.47 70.331c1.753 6.68-1.766 13.635-8.186 16.178-6.759 2.676-14.426-.402-17.456-7.007l-12.83-27.965a5.5 5.5 0 0 1-.359-3.504c2.013-8.746-2.031-17.951-9.835-22.386l-.745-.423a5.45 5.45 0 0 1-2.27-2.473l-16.689-36.377a2.31 2.31 0 0 1 .021-1.979 17.3 17.3 0 0 0 .278-14.487 17.3 17.3 0 0 0-10.829-9.629l-.679-.206c-.016-.005-.029-.014-.045-.019l6.674-14.547a37 37 0 0 0 2.922 3.282M167.714 479.855l18.469-70.331 20.65-20.51a18.5 18.5 0 0 0 5.418-11.818c-.155-2.325 1.039-4.918 3.698-4.813 4.919 0 9.548-1.907 13.041-5.376l8.752-8.693a37.61 37.61 0 0 0 11.051-27.918l-.012-.325a7.17 7.17 0 0 1 2.023-5.27c2.7-2.921 7.691-2.921 10.391 0a7.16 7.16 0 0 1 2.023 5.265l-.012.335a37.3 37.3 0 0 0 .254 5.827l-14.737 32.12c-.356.868-1.26 1.256-2.113 1.458a17.29 17.29 0 0 0-10.826 9.628 17.3 17.3 0 0 0 .279 14.488 2.31 2.31 0 0 1 .021 1.976l-16.689 36.376a5.44 5.44 0 0 1-2.27 2.475l-.748.425c-7.802 4.434-11.846 13.639-9.834 22.384a5.5 5.5 0 0 1-.358 3.506l-12.83 27.964c-3.031 6.606-10.697 9.684-17.456 7.007-6.419-2.546-9.938-9.501-8.185-16.18m96.031-277.984a12.46 12.46 0 0 1-15.49 0l-31.351-24.747c2.966.572 6.007.875 9.096.875 11.073 0 21.551-3.758 30-10.676 8.45 6.917 18.928 10.676 30 10.676 3.09 0 6.13-.303 9.096-.875z"/></svg>