<svg xmlns="http://www.w3.org/2000/svg" width="512" height="512"><path fill="#faf2f3" d="M327.939 504.5H184.061c-12.604 0-23.238-9.383-24.806-21.89L122 185.5h268l-37.255 297.11c-1.568 12.507-12.202 21.89-24.806 21.89"/><path fill="#f0e5e0" d="m390 185.5-9.48 75.62c-8.46-6.02-18.29-9.95-28.53-11.74L360 185.5z"/><path fill="#b3e59f" d="m374.92 305.75-22.18 176.86c-1.56 12.51-12.2 21.89-24.8 21.89H184.06c-12.6 0-23.24-9.38-24.8-21.89l-25.88-206.37c11.51-16.95 31.69-28.17 52.31-27.6 14.02.38 27.96 5.06 39.22 13.46 11.43 8.52 19.86 20.42 28.51 32.05 10.21 13.72 20.7 27.05 36.7 33.98 15.66 6.77 33.87 5.97 49.7.21.8-.29 1.59-.59 2.38-.91 12.32-4.94 23.12-12.64 32.72-21.68"/><path fill="#9bcf84" d="m374.92 305.75-5.08 40.52a106.1 106.1 0 0 1-31.71 13.65l4.07-32.49c12.32-4.94 23.12-12.64 32.72-21.68"/><path fill="#ccf49f" d="m369.84 346.27-17.1 136.34c-1.56 12.51-12.2 21.89-24.8 21.89H184.06c-12.6 0-23.24-9.38-24.8-21.89l-21.07-168.04c5.03-6.38 10.55-12.37 16.12-18.29 8.31-8.83 17.51-18 30.57-17.65 8.04.22 15.89 2.89 22.1 7.52 7.08 5.28 13.6 14.08 20.5 23.39l1.87 2.52c9.82 13.19 24.65 33.12 48.87 43.61 29.8 12.88 64.71 7.85 91.62-9.4"/><path fill="#b3e59f" d="m369.84 346.27-17.1 136.34c-1.56 12.51-12.2 21.89-24.8 21.89h-30c12.6 0 23.24-9.38 24.8-21.89l15.39-122.69a106.1 106.1 0 0 0 31.71-13.65"/><path fill="#9bcf84" d="m380.52 261.12-5.6 44.63c-9.6 9.04-20.4 16.74-32.72 21.68-.79.32-1.58.62-2.38.91-15.83 5.76-34.04 6.56-49.7-.21-16-6.93-26.49-20.26-36.7-33.98 16.91-7.83 33.15-25.93 48.75-35.65 23.52-14.65 55.83-13.41 78.35 2.62"/><path fill="#87bf6a" d="m380.52 261.12-5.6 44.63c-9.6 9.04-20.4 16.74-32.72 21.68l9.79-78.05c10.24 1.79 20.07 5.72 28.53 11.74"/><path fill="#fc8d94" d="M382.308 130.5H129.691a20 20 0 0 0-19.677 16.422l-3.799 20.894c-1.674 9.208 5.399 17.683 14.758 17.683h270.054c9.359 0 16.432-8.476 14.758-17.683l-3.799-20.894c-1.729-9.51-10.012-16.422-19.678-16.422"/><path fill="#f77289" d="M391.03 185.5h-30c9.36 0 16.43-8.48 14.75-17.68l-3.79-20.9c-1.73-9.51-10.02-16.42-19.68-16.42h30c9.66 0 17.95 6.91 19.68 16.42l3.79 20.9c1.68 9.2-5.39 17.68-14.75 17.68"/><path fill="#ffc7ce" d="M281 100.5h-50c-5.523 0-10 4.477-10 10v20h70v-20c0-5.523-4.477-10-10-10"/><path fill="#f4b0be" d="M291 110.5v20h-30v-20c0-5.52-4.48-10-10-10h30c5.52 0 10 4.48 10 10"/><path fill="#ffe07d" d="M241 37.5v63h30v-61a2 2 0 0 1 2-2h53a5 5 0 0 0 5-5v-20a5 5 0 0 0-5-5h-55c-16.569 0-30 13.431-30 30"/><path fill="#ffd064" d="M331 12.5v20c0 2.76-2.24 5-5 5h-30c2.76 0 5-2.24 5-5v-20c0-2.76-2.24-5-5-5h30c2.76 0 5 2.24 5 5"/><path fill="#f0e5e0" d="M266 234.5h-20a5 5 0 0 1-5-5v-44h30v44a5 5 0 0 1-5 5"/><path d="m413.164 166.475-3.799-20.895c-2.379-13.083-13.758-22.58-27.056-22.58H298.5v-12.5c0-9.649-7.851-17.5-17.5-17.5h-2.5V45H326c6.893 0 12.5-5.607 12.5-12.5v-20C338.5 5.607 332.893 0 326 0h-55c-20.678 0-37.5 16.822-37.5 37.5V93H231c-9.649 0-17.5 7.851-17.5 17.5V123h-83.809c-13.298 0-24.677 9.497-27.056 22.581l-3.799 20.895a22.44 22.44 0 0 0 4.862 18.441 22.43 22.43 0 0 0 11.591 7.35l36.524 291.277C153.848 499.766 167.711 512 184.061 512h94.595a7.5 7.5 0 0 0 0-15h-94.595c-8.804 0-16.269-6.587-17.364-15.323l-20.674-164.874c4.514-5.503 9.454-10.818 13.748-15.383 8.301-8.82 15.377-15.533 24.903-15.293 6.512.179 12.842 2.322 17.822 6.035 6.19 4.617 12.385 12.976 18.96 21.848l1.891 2.547c10.292 13.824 25.844 34.714 51.897 45.998 12.274 5.305 25.506 7.922 38.922 7.922 15.631 0 31.506-3.568 46.404-10.559l-15.268 121.76c-1.095 8.735-8.56 15.323-17.364 15.323h-14.283a7.5 7.5 0 0 0 0 15h14.283c16.35 0 30.213-12.234 32.248-28.457l36.524-291.277a22.44 22.44 0 0 0 11.591-7.35 22.44 22.44 0 0 0 4.863-18.442M248.5 37.5c0-12.407 10.093-22.5 22.5-22.5h52.5v15H273c-5.238 0-9.5 4.262-9.5 9.5V93h-15zm-20 73c0-1.378 1.122-2.5 2.5-2.5h50c1.378 0 2.5 1.122 2.5 2.5V123h-55zm52.701 238.288c-22.371-9.689-36.483-28.645-45.828-41.197l-1.881-2.534c-7.235-9.762-14.068-18.982-22.029-24.919-7.437-5.544-16.804-8.742-26.382-9.004-16.956-.443-28.564 11.858-36.233 20.008a592 592 0 0 0-5.325 5.722l-2.333-18.609c10.659-14.121 27.512-22.574 44.297-22.116 12.639.343 25.047 4.595 34.941 11.976 9.734 7.256 17.212 17.346 25.13 28.027l1.846 2.487c11.519 15.479 22.46 28.902 39.741 36.387 8.323 3.598 17.627 5.399 27.234 5.399 9.256 0 18.794-1.673 27.998-5.022a75 75 0 0 0 2.616-1c6.934-2.78 13.608-6.418 20.158-10.985l-2.301 18.354c-25.526 15.111-56.649 17.831-81.649 7.026m86.62-46.694c-9.32 8.433-18.617 14.448-28.439 18.385-.703.285-1.406.552-2.127.813-15.201 5.531-31.296 5.515-44.154-.044-11.495-4.979-20.042-13.969-28.441-24.706 7.718-4.803 15.107-10.967 22.311-16.977 6.711-5.6 13.051-10.89 19.164-14.698 19.649-12.24 46.387-12.111 66.359-.038zM391.027 178H190.739a7.5 7.5 0 0 0 0 15H233.5v36.5c0 6.893 5.607 12.5 12.5 12.5h20c6.893 0 12.5-5.607 12.5-12.5V193h103.001l-7.003 55.852c-23.893-11.678-53.824-10.713-76.294 3.283-6.994 4.358-14.034 10.232-20.842 15.913-7.168 5.981-14.534 12.126-21.764 16.453-7.606-10.22-15.634-20.534-26.202-28.412-12.349-9.212-27.798-14.52-43.498-14.945-17.026-.471-34.056 6.114-47.138 17.727l-8.26-65.87h25.239a7.5 7.5 0 0 0 0-15h-34.766c-5.604.083-8.432-3.624-7.379-8.841l3.799-20.895a12.49 12.49 0 0 1 12.298-10.264h252.617a12.49 12.49 0 0 1 12.298 10.264l3.799 20.895c1.133 4.614-1.59 8.84-7.378 8.84M248.5 193h15v34h-15z"/><circle cx="283" cy="432.5" r="10"/><circle cx="229" cy="432.5" r="10"/><circle cx="208" cy="367.5" r="10"/><circle cx="256" cy="392.5" r="10"/><circle cx="326" cy="413.5" r="10"/><circle cx="186" cy="413.5" r="10"/><circle cx="316" cy="459.5" r="10"/><circle cx="256" cy="472.5" r="10"/><circle cx="196" cy="459.5" r="10"/></svg>