<svg xmlns="http://www.w3.org/2000/svg" width="512" height="512"><path fill="#cdf2f9" d="m109 202.5 16.138 34.883A150 150 0 0 1 139 300.364V434.5c0 38.66 31.34 70 70 70h94c38.66 0 70-31.34 70-70V300.363c0-21.75 4.73-43.24 13.862-62.981L403 202.5z"/><path fill="#b1f1f1" d="m403 202.5-16.14 34.88A150 150 0 0 0 373 300.36v22.17c0-14.05-11.39-25.44-25.43-25.44-1.55 0-3.07.14-4.54.41.39-20.77 5.1-41.24 13.83-60.12L373 202.5z"/><path fill="#faf2f3" d="M373 337.5v97c0 38.66-31.34 70-70 70h-94c-38.66 0-70-31.34-70-70v-97z"/><path fill="#f0e5e0" d="M373 337.5v97c0 38.66-31.34 70-70 70h-30c38.66 0 70-31.34 70-70v-97z"/><path fill="#71ddf9" d="M366.915 157.5h-221.83a30 30 0 0 0-28.646 21.088L109 202.5h294l-7.439-23.912a30 30 0 0 0-28.646-21.088"/><path fill="#23c7f7" d="M403 202.5h-30l-7.44-23.91c-3.9-12.54-15.51-21.09-28.64-21.09h30c13.13 0 24.74 8.55 28.64 21.09z"/><path fill="#c3aff0" d="M271 127.5h-30v-115a5 5 0 0 1 5-5h20a5 5 0 0 1 5 5z"/><path fill="#b1f1f1" d="M241 202.5v55a5 5 0 0 0 5 5h20a5 5 0 0 0 5-5v-55z"/><path fill="#f0e5e0" d="M325.57 500.78A69.9 69.9 0 0 1 303 504.5h-94c-7.9 0-15.49-1.31-22.57-3.72a102.4 102.4 0 0 1 68.5-26.28h2.14c13.59 0 26.89 2.7 39.2 7.8 10.67 4.42 20.6 10.64 29.3 18.48"/><path fill="#e2d6d1" d="M325.57 500.78A69.9 69.9 0 0 1 303 504.5h-30c15.14 0 29.16-4.81 40.61-12.98 4.19 2.77 8.19 5.86 11.96 9.26"/><path fill="#fff" d="M373 322.53v14.97H139v-14.97c0-14.05 11.39-25.44 25.43-25.44 7.6 0 14.42 3.33 19.08 8.62a5.067 5.067 0 0 0 7.63 0c2.33-2.65 5.2-4.8 8.44-6.29a25.2 25.2 0 0 1 10.64-2.33c7.6 0 14.41 3.33 19.07 8.62a5.067 5.067 0 0 0 7.63 0c4.66-5.29 11.48-8.62 19.08-8.62s14.42 3.33 19.08 8.62a5.067 5.067 0 0 0 7.63 0c2.33-2.65 5.2-4.8 8.43-6.29a25.2 25.2 0 0 1 10.64-2.33c7.6 0 14.42 3.33 19.08 8.62a5.067 5.067 0 0 0 7.63 0c4.66-5.29 11.48-8.62 19.08-8.62 14.04 0 25.43 11.39 25.43 25.44"/><path fill="#f7f7f7" d="M373 322.53v14.97h-30v-37.14c0-.95.01-1.91.03-2.86 1.47-.27 2.99-.41 4.54-.41 14.04 0 25.43 11.39 25.43 25.44"/><path fill="#faf2f3" d="M281 127.5h-50c-5.523 0-10 4.477-10 10v20h70v-20c0-5.523-4.477-10-10-10"/><path fill="#f0e5e0" d="M291 137.5v20h-30v-20c0-5.52-4.48-10-10-10h30c5.52 0 10 4.48 10 10"/><path d="M410.155 204.724c.459-1.444.442-3.009.006-4.452l-7.439-23.912c-4.905-15.767-19.295-26.36-35.807-26.36H298.5v-12.5c0-9.649-7.851-17.5-17.5-17.5h-2.5V12.5C278.5 5.607 272.893 0 266 0h-20c-6.893 0-12.5 5.607-12.5 12.5V120H231c-9.649 0-17.5 7.851-17.5 17.5V150h-68.415c-16.512 0-30.902 10.593-35.807 26.36l-7.439 23.912a7.62 7.62 0 0 0 .355 5.377l16.138 34.883c8.615 18.623 13.169 39.312 13.169 59.832V399.5a7.5 7.5 0 0 0 15 0V345h219v89.5c0 25.938-15.885 48.231-38.435 57.675a109.4 109.4 0 0 0-27.925-16.804A109.4 109.4 0 0 0 257.07 467h-2.14a109.77 109.77 0 0 0-69.994 25.176c-22.551-9.444-38.436-31.738-38.436-57.676a7.5 7.5 0 0 0-15 0c0 42.734 34.766 77.5 77.5 77.5h94c42.734 0 77.5-34.766 77.5-77.5V300.363c0-20.519 4.554-41.208 13.169-59.832l16.138-34.883c.124-.303.25-.611.348-.924M208.999 497a63 63 0 0 1-4.911-.211A94.8 94.8 0 0 1 254.929 482h2.14a94.4 94.4 0 0 1 36.33 7.229 95 95 0 0 1 14.542 7.557 63 63 0 0 1-4.942.214zm39.5-482h15v105h-15zm-20 122.5c0-1.378 1.122-2.5 2.5-2.5h50c1.378 0 2.5 1.122 2.5 2.5V150h-55zm-82 192.5v-7.473c0-9.89 8.045-17.935 17.935-17.935a17.95 17.95 0 0 1 13.454 6.077 12.6 12.6 0 0 0 9.438 4.274c3.602 0 7.042-1.559 9.437-4.274 3.407-3.862 8.311-6.077 13.454-6.077s10.046 2.215 13.453 6.076c2.396 2.717 5.836 4.275 9.438 4.275s7.042-1.558 9.438-4.274c3.407-3.862 8.311-6.077 13.454-6.077s10.046 2.215 13.453 6.076c2.396 2.717 5.836 4.275 9.438 4.275s7.042-1.558 9.438-4.274c3.407-3.862 8.311-6.077 13.454-6.077s10.046 2.215 13.453 6.076c2.396 2.717 5.836 4.275 9.438 4.275s7.042-1.558 9.438-4.274a17.95 17.95 0 0 1 13.454-6.077c9.889 0 17.935 8.045 17.935 17.935V330zm233.556-95.766c-8.771 18.959-13.722 39.856-14.451 60.759a32.74 32.74 0 0 0-18.04-5.4 32.95 32.95 0 0 0-22.891 9.258c-6.118-5.913-14.323-9.258-22.892-9.258s-16.773 3.345-22.892 9.258c-6.118-5.913-14.323-9.258-22.891-9.258s-16.773 3.345-22.891 9.258a32.96 32.96 0 0 0-22.892-9.258 32.96 32.96 0 0 0-22.891 9.258 32.96 32.96 0 0 0-22.892-9.258 32.74 32.74 0 0 0-18.04 5.4c-.729-20.903-5.68-41.8-14.45-60.759L120.732 210h112.767v47.5c0 6.893 5.607 12.5 12.5 12.5h20c6.893 0 12.5-5.607 12.5-12.5v-55a7.5 7.5 0 0 0-7.5-7.5H119.187l4.413-14.184c2.943-9.46 11.577-15.816 21.484-15.816h221.83c9.907 0 18.541 6.356 21.484 15.816L392.811 195h-86.812a7.5 7.5 0 0 0 0 15h85.267zM248.499 255v-45h15v45z"/><circle cx="335.999" cy="377" r="10"/><circle cx="253.499" cy="367" r="10"/><circle cx="175.999" cy="377" r="10"/><circle cx="295.999" cy="407" r="10"/><circle cx="215.999" cy="407" r="10"/><circle cx="255.999" cy="442" r="10"/><circle cx="195.999" cy="452" r="10"/><circle cx="315.999" cy="452" r="10"/></svg>