<svg xmlns="http://www.w3.org/2000/svg" width="512" height="512"><path fill="#c3aff0" d="m323.347 176.5-172.74-.087a18.92 18.92 0 0 1-18.599-15.51L119.281 91.42a18.92 18.92 0 0 1 11.895-21.095L292.673 9.021"/><path fill="#ad96ed" d="m323.35 176.5-29.91-.02.53-.09c9.97-1.83 19.22-5.32 27.5-10.15z"/><path fill="#cdf2f9" d="M392.369 77.31c-8.47-46.248-52.828-76.873-99.076-68.402l-.62.114L323.347 176.5l.62-.114c46.248-8.47 76.873-52.828 68.402-99.076"/><path fill="#b1f1f1" d="m323.97 176.39-.62.11-1.88-10.26c30.14-17.54 47.54-52.65 40.9-88.93-6.57-35.89-34.76-62.37-68.67-68.47 46.1-8.22 90.23 22.36 98.67 68.47 8.47 46.25-22.15 90.61-68.4 99.08"/><path fill="#6f6571" d="m386.363 80.299 2.008-17.506 39.155-7.171a5 5 0 0 1 5.819 4.017l3.603 19.672a5 5 0 0 1-4.017 5.819L393.78 92.3z"/><path fill="#b1f1f1" d="m393.78 92.3-83.07 15.22-5.4-29.51 83.06-15.22c1.73 4.63 3.08 9.48 4 14.52s1.38 10.05 1.41 14.99"/><path fill="#ffe07d" d="M421.5 248.5v256h-331v-257z"/><path fill="#ffd064" d="M391.5 248.5h30v181h-30z"/><path fill="#faf2f3" d="M256 325.5c-34.242 0-62-27.758-62-62v-12h124v12c0 34.242-27.758 62-62 62"/><path fill="#fc8d94" d="M132 325.5c-34.242 0-62-27.758-62-62v-12h124v12c0 34.242-27.758 62-62 62"/><path fill="#ffc7ce" d="M194 206.5h-87.753a25 25 0 0 0-22.845 14.847L70 251.5h124z"/><path fill="#fff" d="M194 206.5h124v45H194z"/><path fill="#ffc7ce" d="M405.753 206.5H318v45h124l-13.402-30.153a25 25 0 0 0-22.845-14.847"/><path fill="#fc8d94" d="M380 325.5c-34.242 0-62-27.758-62-62v-12h124v12c0 34.242-27.758 62-62 62"/><path fill="#f77289" d="M442 251.5v12c0 34.24-27.76 62-62 62-5.17 0-10.2-.63-15-1.83 27-6.71 47-31.1 47-60.17v-12z"/><path fill="#f4b0be" d="M442 251.5h-30l-13.4-30.15a25 25 0 0 0-22.85-14.85h30c9.88 0 18.84 5.82 22.85 14.85z"/><path fill="#e29a6c" d="M441 504.5H329v-35c0-5.523 4.477-10 10-10h102c5.523 0 10 4.477 10 10v25c0 5.523-4.477 10-10 10"/><path fill="#ce845c" d="M451 469.5v25c0 5.52-4.48 10-10 10h-30c5.52 0 10-4.48 10-10v-25c0-5.52-4.48-10-10-10h30c5.52 0 10 4.48 10 10"/><path fill="#e29a6c" d="M183 504.5H71c-5.523 0-10-4.477-10-10v-25c0-5.523 4.477-10 10-10h102c5.523 0 10 4.477 10 10z"/><path fill="#ce845c" d="M183 469.5v35h-30v-35c0-5.52-4.48-10-10-10h30c5.52 0 10 4.48 10 10"/><path fill="#6f6571" d="M299 504.5h-86v-144a5 5 0 0 1 5-5h76a5 5 0 0 1 5 5z"/><path fill="#ccf49f" d="M426 429.5h-72c-5.523 0-10 4.477-10 10v20h92v-20c0-5.523-4.477-10-10-10"/><path fill="#b3e59f" d="M436 439.5v20h-30v-20c0-5.52-4.48-10-10-10h30c5.52 0 10 4.48 10 10"/><path fill="#ccf49f" d="M158 429.5H86c-5.523 0-10 4.477-10 10v20h92v-20c0-5.523-4.477-10-10-10"/><path fill="#b3e59f" d="M168 439.5v20h-30v-20c0-5.52-4.48-10-10-10h30c5.52 0 10 4.48 10 10"/><g fill="#fff"><path d="M386.5 399.5H334a5 5 0 0 1-5-5v-34a5 5 0 0 1 5-5h52.5a5 5 0 0 1 5 5v34a5 5 0 0 1-5 5M178 399.5h-52.5a5 5 0 0 1-5-5v-34a5 5 0 0 1 5-5H178a5 5 0 0 1 5 5v34a5 5 0 0 1-5 5"/></g><path d="M243 445.001a7.5 7.5 0 0 0 7.5-7.5v-15c0-4.142-3.357-7.5-7.5-7.5s-7.5 3.358-7.5 7.5v15a7.5 7.5 0 0 0 7.5 7.5M386.498 407.002c6.892 0 12.5-5.607 12.5-12.5v-33.999c0-6.892-5.607-12.5-12.5-12.5h-52.499c-6.892 0-12.5 5.607-12.5 12.5v33.999c0 6.892 5.607 12.5 12.5 12.5zm-49.999-43.999h47.499v28.999h-47.499zM178.001 348.003h-52.499c-6.892 0-12.5 5.607-12.5 12.5v33.999c0 6.892 5.607 12.5 12.5 12.5h52.499c6.892 0 12.5-5.607 12.5-12.5v-33.999c0-6.893-5.607-12.5-12.5-12.5m-2.499 43.999h-47.499v-28.999h47.499z"/><path d="M443.496 452.201v-12.699c0-8.625-6.278-15.794-14.5-17.223V312.74c12.654-12.594 20.5-30.014 20.5-49.235v-12a7.8 7.8 0 0 0-.646-3.046l-13.401-30.153a32.53 32.53 0 0 0-29.699-19.3H295.499v-15.014l27.842.014c.645.006 1.341-.116 1.976-.236 24.337-4.457 45.483-18.126 59.54-38.487 9.691-14.036 15.212-30.095 16.247-46.691l33.173-6.076c6.778-1.242 11.284-7.767 10.043-14.547l-3.602-19.673c-1.242-6.78-7.771-11.28-14.548-10.042l-33.174 6.076c-6.85-15.151-17.703-28.212-31.739-37.902C340.896 2.37 316.28-2.915 291.939 1.54c-.639.106-1.323.258-1.929.479L128.516 63.321c-11.921 4.526-18.906 16.914-16.609 29.457l12.725 69.482c2.298 12.543 13.22 21.651 25.972 21.658l65.896.033v15.053H106.25a32.53 32.53 0 0 0-29.699 19.3L63.15 248.459c-.418.959-.639 2-.646 3.046v12c0 19.221 7.846 36.641 20.5 49.235v109.538c-8.222 1.429-14.5 8.599-14.5 17.223V452.2c-8.466 1.22-15 8.502-15 17.3v25c0 9.649 7.85 17.5 17.5 17.5h257.995a7.5 7.5 0 0 0 7.5-7.5v-34.999c0-1.378 1.121-2.5 2.5-2.5h101.998c1.379 0 2.5 1.122 2.5 2.5v25c0 1.378-1.121 2.5-2.5 2.5h-76.999c-4.143 0-7.5 3.358-7.5 7.5s3.357 7.5 7.5 7.5h76.999c9.649 0 17.5-7.85 17.5-17.5v-25c-.001-8.799-6.534-16.081-15.001-17.3m-17.499-15.2c1.379 0 2.5 1.122 2.5 2.5v12.5h-76.999v-12.5c0-1.378 1.121-2.5 2.5-2.5zm8.5-173.496c0 30.051-24.448 54.499-54.499 54.499s-54.499-24.448-54.499-54.499v-4.5h108.998zm-232.996-4.5h108.998v4.5c0 30.051-24.448 54.499-54.499 54.499s-54.499-24.448-54.499-54.499zm220.241-34.607 8.714 19.607H325.499v-29.999h80.251a17.52 17.52 0 0 1 15.992 10.392m-111.243 19.607H201.501v-29.999h108.998zm62.014-107.244c-10.471 15.165-25.632 25.9-43.195 30.724l-9.878-53.936 66.361-12.154c-1.407 12.566-5.901 24.667-13.288 35.366m12.477-58.092a79 79 0 0 1 .997 7.442l-69.249 12.683-2.702-14.754 69.25-12.683a80 80 0 0 1 1.704 7.312m41.425-15.211 2.702 14.754-28.32 5.187a94 94 0 0 0-1.054-7.432 94 94 0 0 0-1.669-7.318zm-73.679-34.687c10.699 7.386 19.19 17.109 24.959 28.361l-66.362 12.154-9.878-53.936c18.134-1.715 36.115 2.951 51.281 13.421m-213.35 130.787-12.725-69.482a11.42 11.42 0 0 1 7.18-12.732l153.077-58.107 27.43 149.764-163.734-.082a11.42 11.42 0 0 1-11.228-9.361M231.5 183.96l48.999.025v15.021H231.5zM77.503 263.505v-4.5h42.83c4.143 0 7.5-3.358 7.5-7.5s-3.357-7.5-7.5-7.5h-38.79l8.714-19.607a17.52 17.52 0 0 1 15.992-10.392H186.5v29.999h-31.168c-4.143 0-7.5 3.358-7.5 7.5s3.357 7.5 7.5 7.5H186.5v4.5c0 30.051-24.448 54.499-54.499 54.499s-54.498-24.449-54.498-54.499m82.999 188.496H83.503v-12.5c0-1.378 1.121-2.5 2.5-2.5h71.999c1.379 0 2.5 1.122 2.5 2.5zM68.504 494.5v-25c0-1.378 1.121-2.5 2.5-2.5h101.998c1.379 0 2.5 1.122 2.5 2.5V497H71.003a2.5 2.5 0 0 1-2.499-2.5m222.995 2.5H220.5V363.003h70.999zm30-27.499V497h-15V360.503c0-6.892-5.607-12.5-12.5-12.5H218c-6.892 0-12.5 5.607-12.5 12.5V497h-15v-27.499c0-8.798-6.534-16.08-15-17.3v-12.699c0-9.649-7.85-17.5-17.5-17.5H98.003v-97.917a69.05 69.05 0 0 0 33.999 8.918c27.048 0 50.52-15.542 61.999-38.155 11.479 22.613 34.951 38.155 61.999 38.155s50.52-15.542 61.999-38.155c11.479 22.613 34.951 38.155 61.999 38.155 12.346 0 23.94-3.25 33.999-8.918v97.917h-59.999c-9.649 0-17.5 7.85-17.5 17.5v12.699c-8.466 1.219-14.999 8.501-14.999 17.3"/></svg>