<svg xmlns="http://www.w3.org/2000/svg" width="512" height="512"><path fill="#ffc269" d="M329.052 504.5H182.948a15 15 0 0 1-14.891-13.199L138.444 246.5h235.113l-29.613 244.801c-.912 7.533-7.305 13.199-14.892 13.199"/><path fill="#ffa95f" d="m373.56 246.5-29.62 244.8c-.91 7.53-7.3 13.2-14.89 13.2h-30c7.59 0 13.98-5.67 14.89-13.2l29.62-244.8z"/><path fill="#fff3d2" d="M382.5 246.5h-254c-5.523 0-10-4.477-10-10v-25c0-5.523 4.477-10 10-10h254c5.523 0 10 4.477 10 10v25c0 5.523-4.477 10-10 10"/><path fill="#ffe6ae" d="M392.5 211.5v25c0 5.52-4.48 10-10 10h-30c5.52 0 10-4.48 10-10v-25c0-5.52-4.48-10-10-10h30c5.52 0 10 4.48 10 10"/><path fill="#c3aff0" d="M271 87.5v-75a5 5 0 0 0-5-5h-20a5 5 0 0 0-5 5v75z"/><path fill="#ce845c" d="M159 171.5c31.756 0 57.5-25.744 57.5-57.5S190.756 56.5 159 56.5s-57.5 25.744-57.5 57.5 25.744 57.5 57.5 57.5"/><path fill="#be785a" d="M158.5 139.5c14.359 0 26-11.641 26-26s-11.641-26-26-26-26 11.641-26 26 11.641 26 26 26"/><path fill="#ce845c" d="M353 171.5c-31.756 0-57.5-25.744-57.5-57.5s25.744-57.5 57.5-57.5 57.5 25.744 57.5 57.5-25.744 57.5-57.5 57.5"/><path fill="#be785a" d="M353.5 139.5c-14.359 0-26-11.641-26-26s11.641-26 26-26 26 11.641 26 26-11.641 26-26 26"/><path fill="#e29a6c" d="M256 76.5c67.103 0 121.5 54.397 121.5 121.5v3.5h-243V198c0-67.103 54.397-121.5 121.5-121.5"/><path fill="#ce845c" d="M377.5 198v3.5h-30V198c0-62.01-46.47-113.18-106.48-120.57 4.91-.62 9.91-.93 14.98-.93 67.1 0 121.5 54.4 121.5 121.5"/><path fill="#ffe07d" d="M351.995 434.5h-191.99a10 10 0 0 1-9.933-8.841l-12.25-105c-.693-5.942 3.951-11.159 9.933-11.159h216.489c5.982 0 10.626 5.217 9.933 11.159l-12.25 105a10 10 0 0 1-9.932 8.841"/><path fill="#ffd064" d="m374.18 320.66-12.25 105c-.59 5.04-4.86 8.84-9.94 8.84h-30c5.08 0 9.35-3.8 9.94-8.84l12.25-105c.69-5.94-3.95-11.16-9.94-11.16h30c5.99 0 10.63 5.22 9.94 11.16"/><path fill="#fff" d="M256 404.5c-17.949 0-32.5-14.551-32.5-32.5s14.551-32.5 32.5-32.5 32.5 14.551 32.5 32.5-14.551 32.5-32.5 32.5"/><path d="M384.939 194.19a129 129 0 0 0-2.573-22.192C404.194 160.996 418 138.84 418 114c0-35.841-29.159-65-65-65-21.149 0-41.103 10.489-53.199 27.661a128 128 0 0 0-21.301-5.693V12.5C278.5 5.607 272.893 0 266 0h-20c-6.893 0-12.5 5.607-12.5 12.5v58.468a128 128 0 0 0-21.299 5.693C200.105 59.492 180.137 49 159 49c-35.841 0-65 29.159-65 65 0 24.765 13.824 46.988 35.633 58.001a129 129 0 0 0-2.568 22.072c-8.979.734-16.065 8.262-16.065 17.427v25c0 9.649 7.851 17.5 17.5 17.5h3.296l6.172 51.021a17.5 17.5 0 0 0-3.284 2.844 17.5 17.5 0 0 0-4.31 13.663l12.25 105c.803 6.886 5.541 12.434 11.803 14.543l6.185 51.131C161.976 503.489 171.579 512 182.948 512h98.899a7.5 7.5 0 0 0 0-15h-98.899a7.506 7.506 0 0 1-7.446-6.6l-5.855-48.4h172.705l-5.855 48.401a7.506 7.506 0 0 1-7.446 6.599h-12.205a7.5 7.5 0 0 0 0 15h12.205c11.369 0 20.972-8.511 22.337-19.798l6.185-51.131c6.262-2.11 10.999-7.657 11.802-14.543l12.25-105a17.5 17.5 0 0 0-4.31-13.663 17.4 17.4 0 0 0-3.284-2.844L380.204 254h2.296c9.649 0 17.5-7.851 17.5-17.5v-25c0-8.82-6.565-16.116-15.061-17.31M140 113.5c0-10.201 8.299-18.5 18.5-18.5 5.001 0 9.71 2.025 13.14 5.483a130 130 0 0 0-24.175 27.865A18.47 18.47 0 0 1 140 113.5M256 84c61.52 0 111.807 48.986 113.922 110H142.078C144.193 132.986 194.48 84 256 84m108.526 44.334a130 130 0 0 0-24.166-27.851A18.56 18.56 0 0 1 353.5 95c10.201 0 18.5 8.299 18.5 18.5 0 5.902-2.875 11.391-7.474 14.834M353 64c27.57 0 50 22.43 50 50 0 18.039-9.46 34.24-24.643 43.12a128 128 0 0 0-6.43-15.665C381.154 135.333 387 124.833 387 113.5c0-18.472-15.028-33.5-33.5-33.5-9.668 0-18.784 4.212-25.077 11.302a129 129 0 0 0-14.458-8.523C323.383 71.061 337.788 64 353 64M248.5 15h15v54.224c-2.483-.143-4.982-.224-7.5-.224s-5.017.081-7.5.224zM109 114c0-27.57 22.43-50 50-50 15.459 0 29.625 6.911 39.058 18.768a129 129 0 0 0-14.483 8.537C177.288 84.21 168.2 80 158.5 80c-18.472 0-33.5 15.028-33.5 33.5a33.43 33.43 0 0 0 15.07 27.959 128 128 0 0 0-6.425 15.653C118.474 148.222 109 131.982 109 114m245.478 310.79a2.5 2.5 0 0 1-2.483 2.21h-191.99a2.5 2.5 0 0 1-2.483-2.21l-12.25-105c.061-1.855.648-2.515 2.483-2.79h216.489c1.835.275 2.423.934 2.483 2.79zM385 236.5c0 1.378-1.122 2.5-2.5 2.5H192.885a7.5 7.5 0 0 0 0 15h172.209l-5.807 48H152.712l-5.806-48h10.98a7.5 7.5 0 0 0 0-15H128.5a2.503 2.503 0 0 1-2.5-2.5v-25c0-1.378 1.122-2.5 2.5-2.5h254c1.378 0 2.5 1.122 2.5 2.5z"/><path d="M300.5 121a7.5 7.5 0 0 0-7.5 7.5v13a7.5 7.5 0 0 0 15 0v-13a7.5 7.5 0 0 0-7.5-7.5M211.5 121a7.5 7.5 0 0 0-7.5 7.5v13a7.5 7.5 0 0 0 15 0v-13a7.5 7.5 0 0 0-7.5-7.5M278.5 160h-.12c-7.929 0-14.38-6.451-14.38-14.381a7.5 7.5 0 0 0-15 0c0 7.929-6.451 14.38-14.38 14.38h-.12a7.5 7.5 0 0 0 0 15h.12c8.683 0 16.497-3.785 21.88-9.793 5.384 6.008 13.198 9.793 21.88 9.793h.12a7.5 7.5 0 0 0 0-14.999M256 332c-22.056 0-40 17.944-40 40s17.944 40 40 40 40-17.944 40-40-17.944-40-40-40m0 65c-13.785 0-25-11.215-25-25s11.215-25 25-25 25 11.215 25 25-11.215 25-25 25"/></svg>