<svg xmlns="http://www.w3.org/2000/svg" width="512" height="512"><path fill="#fc8d94" d="M329.052 504.5H182.948a15 15 0 0 1-14.891-13.199L138.444 246.5h235.113l-29.613 244.801c-.912 7.533-7.305 13.199-14.892 13.199"/><path fill="#f77289" d="m373.56 246.5-29.62 244.8c-.91 7.53-7.3 13.2-14.89 13.2h-30c7.59 0 13.98-5.67 14.89-13.2l29.62-244.8z"/><path fill="#faf2f3" d="M382.5 246.5h-254c-5.523 0-10-4.477-10-10v-25c0-5.523 4.477-10 10-10h254c5.523 0 10 4.477 10 10v25c0 5.523-4.477 10-10 10"/><path fill="#f0e5e0" d="M392.5 211.5v25c0 5.52-4.48 10-10 10h-30c5.52 0 10-4.48 10-10v-25c0-5.52-4.48-10-10-10h30c5.52 0 10 4.48 10 10"/><path fill="#6f6571" d="M271 87.5v-75a5 5 0 0 0-5-5h-20a5 5 0 0 0-5 5v75z"/><path fill="#fc8d94" d="m196.373 104.496-.079-15.37c-.078-15.259-11.598-28.028-26.769-29.672l-52.423-5.679c-12.697-1.376-23.413 9.34-22.038 22.038l5.679 52.423c1.643 15.17 14.413 26.69 29.672 26.769l15.37.079z"/><path fill="#f77289" d="m167.17 116.405.32-23.982a5 5 0 0 0-4.412-5.032l-36.5-4.322a2 2 0 0 0-2.221 2.221l4.322 36.5a5 5 0 0 0 5.032 4.412l25.782-.313z"/><path fill="#fc8d94" d="m315.627 104.496.079-15.37c.078-15.259 11.598-28.028 26.769-29.672l52.423-5.679c12.697-1.376 23.413 9.34 22.038 22.038l-5.679 52.423c-1.643 15.17-14.413 26.69-29.672 26.769l-15.37.079z"/><path fill="#f77289" d="m344.83 116.405-.32-23.982a5 5 0 0 1 4.412-5.032l36.5-4.322a2 2 0 0 1 2.221 2.221l-4.322 36.5a5 5 0 0 1-5.032 4.412l-23.982-.32z"/><path fill="#ffc7ce" d="M256 76.5c67.103 0 121.5 54.397 121.5 121.5v3.5h-243V198c0-67.103 54.397-121.5 121.5-121.5"/><path fill="#f4b0be" d="M377.5 198v3.5h-30V198c0-62.01-46.47-113.18-106.48-120.57 4.91-.62 9.91-.93 14.98-.93 67.1 0 121.5 54.4 121.5 121.5"/><path fill="#ead1ff" d="M351.995 434.5h-191.99a10 10 0 0 1-9.933-8.841l-12.25-105c-.693-5.942 3.951-11.159 9.933-11.159h216.489c5.982 0 10.626 5.217 9.933 11.159l-12.25 105a10 10 0 0 1-9.932 8.841"/><path fill="#d6bdef" d="m374.18 320.66-12.25 105c-.59 5.04-4.86 8.84-9.94 8.84h-30c5.08 0 9.35-3.8 9.94-8.84l12.25-105c.69-5.94-3.95-11.16-9.94-11.16h30c5.99 0 10.63 5.22 9.94 11.16"/><path fill="#fc8d94" d="M310.946 159a7.5 7.5 0 0 1-7.5-7.5v-13a7.5 7.5 0 0 1 15 0v13a7.5 7.5 0 0 1-7.5 7.5M201.946 159a7.5 7.5 0 0 1-7.5-7.5v-13a7.5 7.5 0 0 1 15 0v13a7.5 7.5 0 0 1-7.5 7.5"/><path fill="#fff" d="m285.41 375.536-25.429 25.429a5 5 0 0 1-7.071 0l-25.429-25.429a5 5 0 0 1 0-7.071l25.429-25.429a5 5 0 0 1 7.071 0l25.429 25.429a5 5 0 0 1 0 7.071"/><path fill="#fc8d94" d="M256.446 171.5c-11.046 0-20-8.954-20-20s8.954-20 20-20 20 8.954 20 20-8.955 20-20 20"/><path d="M310.946 131a7.5 7.5 0 0 0-7.5 7.5v13a7.5 7.5 0 0 0 15 0v-13a7.5 7.5 0 0 0-7.5-7.5M201.946 131a7.5 7.5 0 0 0-7.5 7.5v13a7.5 7.5 0 0 0 15 0v-13a7.5 7.5 0 0 0-7.5-7.5M265.285 337.732c-4.874-4.874-12.804-4.874-17.678 0l-25.429 25.429c-4.874 4.874-4.874 12.804 0 17.678l25.429 25.429c4.874 4.874 12.804 4.874 17.678 0l25.429-25.429c4.874-4.874 4.874-12.804 0-17.678zm-8.839 56.162L234.552 372l21.894-21.894L278.339 372zM256.446 124c-15.164 0-27.5 12.336-27.5 27.5s12.336 27.5 27.5 27.5 27.5-12.336 27.5-27.5-12.337-27.5-27.5-27.5m0 40c-6.893 0-12.5-5.607-12.5-12.5s5.607-12.5 12.5-12.5 12.5 5.607 12.5 12.5-5.608 12.5-12.5 12.5"/><path d="M416.497 54.214c-5.918-5.918-14.083-8.792-22.407-7.895l-52.423 5.679c-15.982 1.732-28.704 13.313-32.382 28.327a128 128 0 0 0-30.339-9.358V12.5c0-6.893-5.607-12.5-12.5-12.5h-20c-6.893 0-12.5 5.607-12.5 12.5v58.468a128 128 0 0 0-31.145 9.729c-3.558-15.193-16.355-26.952-32.468-28.698L117.91 46.32c-8.32-.904-16.488 1.976-22.407 7.895a27.38 27.38 0 0 0-7.895 22.407l5.679 52.423c2.056 18.978 18.001 33.363 37.09 33.461l2.033.01a128.4 128.4 0 0 0-4.898 31.535c-9.189.516-16.512 8.133-16.512 17.449v25c0 9.649 7.851 17.5 17.5 17.5h3.296l6.172 51.021a17.5 17.5 0 0 0-3.284 2.844 17.5 17.5 0 0 0-4.31 13.663l12.25 105c.803 6.886 5.541 12.434 11.803 14.543l6.185 51.131C161.976 503.489 171.579 512 182.948 512h98.899a7.5 7.5 0 0 0 0-15h-98.899a7.506 7.506 0 0 1-7.446-6.6l-5.855-48.4h172.705l-5.855 48.401a7.506 7.506 0 0 1-7.446 6.599h-12.205a7.5 7.5 0 0 0 0 15h12.205c11.369 0 20.972-8.511 22.337-19.798l6.185-51.131c6.262-2.11 10.999-7.657 11.802-14.543l12.25-105a17.5 17.5 0 0 0-4.31-13.663 17.4 17.4 0 0 0-3.284-2.844L380.204 254h2.296c9.649 0 17.5-7.851 17.5-17.5v-25c0-8.664-6.335-15.858-14.612-17.241a128.4 128.4 0 0 0-4.908-31.748l1.143-.006c19.088-.098 35.034-14.483 37.09-33.461l5.679-52.423a27.38 27.38 0 0 0-7.895-22.407m-64.458 40.359 27.335-3.237-3.237 27.335-18.224-.244a130 130 0 0 0-5.645-6.697zM370.368 194H142.524c2.116-61.014 52.402-110 113.922-110s111.806 48.986 113.922 110m-210.65-81.249a130 130 0 0 0-4.731 5.666l-19.124.256-3.237-27.335 27.335 3.237zM248.946 15h15v54.224c-2.483-.143-4.982-.224-7.5-.224s-5.017.081-7.5.224zM130.455 147.505c-11.453-.059-21.021-8.689-22.254-20.076l-5.679-52.423c-1.036-7.68 6.098-14.809 13.773-13.773l52.423 5.679c11.076 1.2 19.52 10.291 20.028 21.328a130 130 0 0 0-13.831 9.87l.075-5.587a12.473 12.473 0 0 0-11.029-12.58L127.46 75.62c-5.899-.856-11.41 4.648-10.55 10.552l4.322 36.501a12.47 12.47 0 0 0 12.409 11.029l.171-.001 10.919-.146a129 129 0 0 0-7.003 13.987zM354.478 424.79a2.5 2.5 0 0 1-2.483 2.21h-191.99a2.5 2.5 0 0 1-2.483-2.21l-12.25-105c.061-1.855.648-2.515 2.483-2.79h216.489c1.835.275 2.423.934 2.483 2.79zM385 236.5c0 1.378-1.122 2.5-2.5 2.5H192.885a7.5 7.5 0 0 0 0 15h172.209l-5.807 48H152.712l-5.806-48h10.98a7.5 7.5 0 0 0 0-15H128.5a2.503 2.503 0 0 1-2.5-2.5v-25c0-1.378 1.122-2.5 2.5-2.5h254c1.378 0 2.5 1.122 2.5 2.5zm24.479-161.494-5.679 52.423c-1.233 11.387-10.801 20.018-22.253 20.076l-6.384.033a129 129 0 0 0-6.993-13.971l10.02.134.171.001a12.47 12.47 0 0 0 12.409-11.03l4.323-36.501c.857-5.901-4.65-11.41-10.552-10.55l-36.501 4.322a12.47 12.47 0 0 0-11.028 12.58l.065 4.86a130 130 0 0 0-13.793-9.683c.753-10.792 9.105-19.608 20-20.788l52.423-5.679c7.682-1.04 14.804 6.095 13.772 13.773"/></svg>