<svg xmlns="http://www.w3.org/2000/svg" width="512" height="512"><path fill="#ce845c" d="M151.5 379.189H95.858c-24.682 0-46.951-13.675-58.115-35.687l-27.507-54.23c-3.971-7.83-3.6-16.971.994-24.453s12.579-11.948 21.358-11.948h70.142l1.626 30.076h-60.34a2.005 2.005 0 0 0-1.788 2.912l22.338 44.039a35.09 35.09 0 0 0 31.293 19.216h32.811z"/><path fill="#e29a6c" d="M306.5 414.03h-62c-82.843 0-150-67.157-150-150v-38h362v38c0 82.843-67.157 150-150 150"/><path fill="#ce845c" d="M456.5 226.03v38c0 82.84-67.16 150-150 150h-30c82.84 0 150-67.16 150-150v-38z"/><path fill="#faf2f3" d="M404.877 444.03H126.123a30 30 0 0 1-28.461-20.513l-1.846-5.538a3 3 0 0 1 2.846-3.949h333.675a3 3 0 0 1 2.846 3.949l-1.846 5.538a30 30 0 0 1-28.46 20.513"/><path fill="#ce845c" d="M456.5 196.03h-362c-8.284 0-15 6.716-15 15s6.716 15 15 15h362c8.284 0 15-6.716 15-15s-6.716-15-15-15"/><path fill="#be785a" d="M471.5 211.03c0 8.28-6.72 15-15 15h-30c8.28 0 15-6.72 15-15 0-4.14-1.68-7.89-4.4-10.61a14.95 14.95 0 0 0-10.6-4.39h30c4.14 0 7.89 1.68 10.6 4.39 2.72 2.72 4.4 6.47 4.4 10.61"/><path fill="#9bcf84" d="m346.1 292.928 16.454 9.5c43.046 24.853 57.795 79.896 32.942 122.942l-5 8.66-20.785-12c-43.046-24.853-57.795-79.896-32.942-122.942l2.5-4.33a5 5 0 0 1 6.831-1.83"/><path fill="#b3e59f" d="m434.897 292.928-16.454 9.5c-43.046 24.853-57.795 79.896-32.942 122.942l5 8.66 20.785-12c43.046-24.853 57.795-79.896 32.942-122.942l-2.5-4.33a5 5 0 0 0-6.831-1.83"/><path fill="#9bcf84" d="m411.28 422.03-20.78 12s-.672-.852-.328-2.801c40.2-24.46 47.558-86.029 26.448-127.719.6-.36 1.21-.73 1.82-1.08l16.46-9.5a5 5 0 0 1 6.83 1.83l2.5 4.33c24.85 43.04 10.1 98.09-32.95 122.94"/><path fill="#ccf49f" d="M300.5 344.03h-19a5 5 0 0 0-5 5v5c0 49.706 40.294 90 90 90h24v-10c0-49.705-40.294-90-90-90M499.5 344.03h-19c-49.706 0-90 40.294-90 90v10h24c49.706 0 90-40.294 90-90v-5a5 5 0 0 0-5-5"/><path fill="#b3e59f" d="M504.5 349.03v5c0 49.71-40.29 90-90 90h-24v-.2c46.91-3.08 84-42.11 84-89.8v-5c0-2.03-1.21-3.78-2.95-4.56 2.94-.29 5.93-.44 8.95-.44h19c2.76 0 5 2.24 5 5"/><path d="M340.046 171.216a7.5 7.5 0 0 0 10.606.116 7.5 7.5 0 0 0 .116-10.606l-9.892-10.111a9.81 9.81 0 0 1-2.748-7.985 9.81 9.81 0 0 1 4.447-7.178l3.501-2.259c6.297-4.063 10.387-10.664 11.221-18.111s-1.692-14.789-6.932-20.146l-9.892-10.111a7.5 7.5 0 0 0-10.722 10.49l9.892 10.111a9.81 9.81 0 0 1 2.748 7.985 9.81 9.81 0 0 1-4.447 7.178l-3.501 2.259a24.75 24.75 0 0 0-11.222 18.111 24.76 24.76 0 0 0 6.933 20.146zM276.789 171.216a7.5 7.5 0 0 0 10.606.116 7.5 7.5 0 0 0 .116-10.606l-12.772-13.055c-3.143-3.212-4.658-7.615-4.157-12.08s2.953-8.423 6.728-10.859l4.519-2.916a29.79 29.79 0 0 0 13.502-21.792 29.78 29.78 0 0 0-8.341-24.241l-12.772-13.055a7.5 7.5 0 0 0-10.722 10.49l12.772 13.055c3.143 3.212 4.658 7.615 4.157 12.08s-2.953 8.423-6.728 10.859l-4.519 2.916a29.79 29.79 0 0 0-13.502 21.792 29.79 29.79 0 0 0 8.341 24.241zM210.533 171.216a7.5 7.5 0 1 0 10.723-10.489l-9.892-10.112c-2.077-2.123-3.079-5.033-2.748-7.985s1.952-5.568 4.448-7.178l3.499-2.259c6.296-4.062 10.387-10.663 11.222-18.11s-1.692-14.789-6.932-20.146l-9.892-10.111a7.5 7.5 0 0 0-10.723 10.489l9.892 10.112c2.077 2.123 3.079 5.033 2.748 7.985s-1.952 5.568-4.448 7.178l-3.499 2.259c-6.296 4.062-10.387 10.663-11.222 18.11s1.692 14.789 6.932 20.146zM499.5 336.529h-19c-5.763 0-11.41.506-16.902 1.47a97.2 97.2 0 0 0-6.251-28.733c.086-.216.185-.423.252-.651 4.248-14.418 6.401-29.419 6.401-44.586v-31.79c8.729-3.096 15-11.432 15-21.21 0-12.407-10.094-22.5-22.5-22.5H94.506c-12.407 0-22.5 10.093-22.5 22.5 0 9.777 6.27 18.114 15 21.21v31.79c0 3.839.145 7.645.417 11.416h-43.4a9.44 9.44 0 0 0-8.099 4.531 9.44 9.44 0 0 0-.378 9.273l22.338 44.038c7.297 14.386 21.85 23.322 37.981 23.322h21.31a159 159 0 0 0 12.485 15.075H95.864c-21.841 0-41.546-12.1-51.426-31.579l-27.507-54.23c-2.783-5.487-2.523-11.893.696-17.135s8.814-8.372 14.967-8.372h26.912a7.5 7.5 0 0 0 0-15H32.594c-11.406 0-21.779 5.803-27.749 15.523s-6.452 21.596-1.292 31.769l27.507 54.23c12.45 24.546 37.281 39.793 64.803 39.793h47.587c.703 0 1.38-.104 2.025-.284a157.8 157.8 0 0 0 31.993 20.125h-78.8c-6.947-.187-12.335 7.29-9.961 13.82l1.846 5.538a37.45 37.45 0 0 0 35.575 25.641h288.373c53.761 0 97.499-43.738 97.499-97.499v-5c0-6.888-5.607-12.495-12.5-12.495m-132.022 26.712c-9.988-9.455-21.968-16.823-35.237-21.404a82.4 82.4 0 0 1 11.026-39l1.25-2.165 14.29 8.25c8.677 5.01 16.215 11.406 22.48 19.035a97.9 97.9 0 0 0-13.809 35.284m54.716-54.319 14.289-8.25 1.25 2.165a82.36 82.36 0 0 1 11.026 39.001c-26.325 9.089-47.576 29.154-58.257 54.7a97.4 97.4 0 0 0-9.55-17.527c.506-28.887 16.181-55.62 41.242-70.089M94.506 203.531h361.995c4.136 0 7.5 3.364 7.5 7.5s-3.364 7.5-7.5 7.5h-26.977c-4.143 0-7.5 3.358-7.5 7.5s3.357 7.5 7.5 7.5h19.477v30.5c0 8.423-.74 16.785-2.194 25.003-3.847-4.404-10.405-5.634-15.659-2.601l-16.454 9.5a97.1 97.1 0 0 0-24.164 19.76c-6.922-7.818-15.031-14.453-24.223-19.76l-16.454-9.499c-5.748-3.482-13.837-1.313-17.076 4.575l-2.5 4.33A97.4 97.4 0 0 0 317.401 338a98 98 0 0 0-16.898-1.469h-19c-6.892 0-12.5 5.607-12.5 12.5v5c0 19.315 5.646 37.335 15.373 52.499h-39.873c-78.574 0-142.498-63.924-142.498-142.498v-30.5h292.518c4.143 0 7.5-3.358 7.5-7.5s-3.357-7.5-7.5-7.5H94.506c-4.136 0-7.5-3.364-7.5-7.5s3.364-7.501 7.5-7.501m1.358 138.081c-10.45 0-19.877-5.789-24.603-15.108l-18.29-36.058h36.262a156.4 156.4 0 0 0 18.249 51.166zm30.264 94.916a22.47 22.47 0 0 1-21.213-15h191.3a98.3 98.3 0 0 0 18.385 15zm157.875-82.499v-2.5h16.5c45.49 0 82.499 37.009 82.499 82.499v2.5h-16.5c-45.49 0-82.499-37.009-82.499-82.499m212.997 0c0 45.49-37.009 82.499-82.499 82.499h-16.5v-2.5c0-45.49 37.009-82.499 82.499-82.499H497z"/></svg>