<svg xmlns="http://www.w3.org/2000/svg" width="512" height="512"><path fill="#fff3d2" d="M389.5 424.5h45c22.091 0 40-17.909 40-40v-127c0-22.091-17.909-40-40-40h-45v30h45c5.523 0 10 4.477 10 10v127c0 5.523-4.477 10-10 10h-45zM324.5 504.5h-155c-35.899 0-65-29.102-65-65v-292c0-5.523 4.477-10 10-10h265c5.523 0 10 4.477 10 10v292c0 35.899-29.102 65-65 65"/><path fill="#ffe6ae" d="M389.5 147.5v41h-30v-41c0-5.52-4.48-10-10-10h30c5.52 0 10 4.48 10 10"/><path fill="#ccf49f" d="M389.5 188.5v251c0 35.9-29.1 65-65 65h-155c-35.9 0-65-29.1-65-65v-251z"/><path fill="#b3e59f" d="M389.5 188.5v251c0 35.9-29.1 65-65 65h-30c35.9 0 65-29.1 65-65v-251z"/><path fill="#ad96ed" d="M172.5 419.5c-27.614 0-50-22.386-50-50s22.386-50 50-50 50 22.386 50 50-22.386 50-50 50M87.5 504.5c-27.614 0-50-22.386-50-50s22.386-50 50-50 50 22.386 50 50-22.386 50-50 50"/><path fill="#c3aff0" d="M87.5 419.5c-27.614 0-50-22.386-50-50s22.386-50 50-50 50 22.386 50 50-22.386 50-50 50M172.5 504.5c-27.614 0-50-22.386-50-50s22.386-50 50-50 50 22.386 50 50-22.386 50-50 50"/><path fill="#fff" d="M130 447c-19.33 0-35-15.67-35-35s15.67-35 35-35 35 15.67 35 35-15.67 35-35 35"/><path fill="#f7f7f7" d="M165 412c0 9.66-3.92 18.42-10.25 24.75S139.66 447 130 447a34.9 34.9 0 0 1-15-3.37c3.64-1.73 6.94-4.07 9.75-6.88C131.08 430.42 135 421.66 135 412s-3.92-18.42-10.25-24.75a35.1 35.1 0 0 0-9.75-6.88 34.9 34.9 0 0 1 15-3.37c9.66 0 18.42 3.92 24.75 10.25S165 402.34 165 412"/><path fill="#9bcf84" d="M189.5 263.5h10c11.046 0 20 8.954 20 20v7a3 3 0 0 1-3 3h-7c-11.046 0-20-8.954-20-20z"/><path fill="#b3e59f" d="M179.5 263.5h10v10c0 11.046-8.954 20-20 20h-7a3 3 0 0 1-3-3v-7c0-11.046 8.954-20 20-20M209.5 233.5h7a3 3 0 0 1 3 3v7c0 11.046-8.954 20-20 20h-10v-10c0-11.046 8.954-20 20-20"/><path fill="#9bcf84" d="M162.5 233.5h7c11.046 0 20 8.954 20 20v10h-10c-11.046 0-20-8.954-20-20v-7a3 3 0 0 1 3-3M304.5 429.5h10c11.046 0 20 8.954 20 20v7a3 3 0 0 1-3 3h-7c-11.046 0-20-8.954-20-20z"/><path fill="#b3e59f" d="M294.5 429.5h10v10c0 11.046-8.954 20-20 20h-7a3 3 0 0 1-3-3v-7c0-11.046 8.954-20 20-20M324.5 399.5h7a3 3 0 0 1 3 3v7c0 11.046-8.954 20-20 20h-10v-10c0-11.046 8.954-20 20-20"/><path fill="#9bcf84" d="M277.5 399.5h7c11.046 0 20 8.954 20 20v10h-10c-11.046 0-20-8.954-20-20v-7a3 3 0 0 1 3-3M304.5 310.5h10c11.046 0 20 8.954 20 20v7a3 3 0 0 1-3 3h-7c-11.046 0-20-8.954-20-20z"/><path fill="#b3e59f" d="M294.5 310.5h10v10c0 11.046-8.954 20-20 20h-7a3 3 0 0 1-3-3v-7c0-11.046 8.954-20 20-20M324.5 280.5h7a3 3 0 0 1 3 3v7c0 11.046-8.954 20-20 20h-10v-10c0-11.046 8.954-20 20-20"/><path fill="#9bcf84" d="M277.5 280.5h7c11.046 0 20 8.954 20 20v10h-10c-11.046 0-20-8.954-20-20v-7a3 3 0 0 1 3-3"/><path d="M311.544 110.745a7.5 7.5 0 0 0 10.606.116 7.5 7.5 0 0 0 .116-10.606l-9.893-10.111a9.81 9.81 0 0 1-2.748-7.985 9.81 9.81 0 0 1 4.447-7.178l3.501-2.259a24.75 24.75 0 0 0 11.222-18.111 24.76 24.76 0 0 0-6.933-20.146l-9.893-10.111a7.5 7.5 0 0 0-10.722 10.49l9.893 10.111a9.81 9.81 0 0 1 2.748 7.985 9.81 9.81 0 0 1-4.447 7.178l-3.501 2.259a24.75 24.75 0 0 0-11.222 18.111 24.76 24.76 0 0 0 6.933 20.146zM248.285 110.745a7.5 7.5 0 0 0 10.606.116 7.5 7.5 0 0 0 .116-10.606L246.235 87.2c-3.143-3.212-4.658-7.615-4.157-12.08s2.953-8.423 6.729-10.859l4.52-2.917a29.79 29.79 0 0 0 13.502-21.792 29.79 29.79 0 0 0-8.341-24.242L245.715 2.255a7.5 7.5 0 0 0-10.606-.116 7.5 7.5 0 0 0-.116 10.606L247.765 25.8c3.143 3.212 4.658 7.615 4.157 12.08s-2.953 8.423-6.729 10.859l-4.52 2.917a29.79 29.79 0 0 0-13.502 21.792 29.79 29.79 0 0 0 8.341 24.242zM182.029 110.745a7.5 7.5 0 0 0 10.606.116 7.5 7.5 0 0 0 .116-10.606l-9.893-10.111a9.81 9.81 0 0 1-2.748-7.985 9.81 9.81 0 0 1 4.447-7.178l3.501-2.259a24.75 24.75 0 0 0 11.222-18.111 24.76 24.76 0 0 0-6.933-20.146l-9.893-10.111a7.5 7.5 0 0 0-10.722 10.49l9.893 10.111a9.81 9.81 0 0 1 2.748 7.985 9.81 9.81 0 0 1-4.447 7.178l-3.501 2.259a24.75 24.75 0 0 0-11.222 18.111 24.76 24.76 0 0 0 6.933 20.146zM474.5 347.894a7.5 7.5 0 0 0 7.5-7.5V257.5c0-26.191-21.309-47.5-47.5-47.5H397v-62.5c0-9.649-7.851-17.5-17.5-17.5h-265c-9.649 0-17.5 7.851-17.5 17.5v165.299a57.6 57.6 0 0 0-9.5-.799C55.794 312 30 337.794 30 369.5c0 16.815 7.256 31.966 18.8 42.489C36.922 422.817 30 438.225 30 454.5c0 31.706 25.794 57.5 57.5 57.5 14.367 0 27.92-5.302 38.329-14.627C138.364 506.847 153.629 512 169.5 512h155c39.977 0 72.5-32.523 72.5-72.5V432h37.5c26.191 0 47.5-21.309 47.5-47.5v-9.106c0-4.142-3.357-7.5-7.5-7.5s-7.5 3.358-7.5 7.5v9.106c0 17.92-14.579 32.5-32.5 32.5H397v-15h37.5c9.649 0 17.5-7.851 17.5-17.5v-127c0-9.649-7.851-17.5-17.5-17.5H397v-15h37.5c17.921 0 32.5 14.58 32.5 32.5v82.894a7.5 7.5 0 0 0 7.5 7.5M45 369.5c0-23.435 19.065-42.5 42.5-42.5s42.5 19.065 42.5 42.5a42.25 42.25 0 0 0-24.259 7.634l-12.937-12.937a7.5 7.5 0 0 0-10.607 10.606l12.937 12.938A42.25 42.25 0 0 0 87.5 412C64.065 412 45 392.935 45 369.5M172.5 497c-23.435 0-42.5-19.065-42.5-42.5a42.25 42.25 0 0 0 24.259-7.634l12.937 12.937a7.5 7.5 0 0 0 10.607-10.606l-12.938-12.938A42.25 42.25 0 0 0 172.499 412c23.435 0 42.5 19.065 42.5 42.5C215 477.935 195.935 497 172.5 497m-70-85c0-15.164 12.337-27.5 27.5-27.5s27.5 12.336 27.5 27.5-12.337 27.5-27.5 27.5-27.5-12.336-27.5-27.5m95.899-8.812A57.1 57.1 0 0 0 172.5 397c-.904 0-1.809.029-2.714.071a42.4 42.4 0 0 0-4.92-9.33l12.938-12.938a7.5 7.5 0 0 0-10.607-10.606l-12.937 12.937a42.4 42.4 0 0 0-9.33-4.92 59 59 0 0 0 .071-2.714 57.1 57.1 0 0 0-6.193-25.909A42.48 42.48 0 0 1 172.5 327c23.435 0 42.5 19.065 42.5 42.5 0 13.288-6.157 25.656-16.601 33.688M45 454.5c0-13.214 6.178-25.654 16.605-33.685A57.14 57.14 0 0 0 87.5 427c.902 0 1.806-.042 2.708-.084a42.4 42.4 0 0 0 4.925 9.344l-12.937 12.938a7.5 7.5 0 0 0 10.607 10.606l12.937-12.937a42.4 42.4 0 0 0 9.33 4.92 59 59 0 0 0-.071 2.714 57.1 57.1 0 0 0 6.186 25.896C113.156 490.844 100.804 497 87.5 497 64.065 497 45 477.935 45 454.5M324.5 497H211.189C222.739 486.476 230 471.32 230 454.5c0-16.818-7.259-31.971-18.806-42.495C223.088 401.191 230 385.867 230 369.5c0-31.706-25.794-57.5-57.5-57.5-16.327 0-31.684 6.919-42.505 18.807A57.8 57.8 0 0 0 112 317.495V196h12.42c4.143 0 7.5-3.358 7.5-7.5s-3.357-7.5-7.5-7.5H112v-33.5c0-1.378 1.121-2.5 2.5-2.5h265c1.379 0 2.5 1.122 2.5 2.5V181H159.42c-4.143 0-7.5 3.358-7.5 7.5s3.357 7.5 7.5 7.5H382v243.5c0 31.706-25.794 57.5-57.5 57.5m110-242c1.379 0 2.5 1.122 2.5 2.5v127c0 1.378-1.121 2.5-2.5 2.5H397V255z"/><path d="M216.5 226h-7c-7.875 0-14.982 3.332-20 8.655-5.018-5.323-12.125-8.655-20-8.655h-7c-5.79 0-10.5 4.71-10.5 10.5v7c0 7.875 3.333 14.982 8.655 20-5.323 5.018-8.655 12.125-8.655 20v7c0 5.79 4.71 10.5 10.5 10.5h7c7.875 0 14.982-3.332 20-8.655 5.018 5.323 12.125 8.655 20 8.655h7c5.79 0 10.5-4.71 10.5-10.5v-7c0-7.875-3.333-14.982-8.655-20 5.323-5.018 8.655-12.125 8.655-20v-7c0-5.789-4.71-10.5-10.5-10.5M167 243.5V241h2.5c6.893 0 12.5 5.607 12.5 12.5v2.5h-2.5c-6.893 0-12.5-5.607-12.5-12.5m2.5 42.5H167v-2.5c0-6.893 5.607-12.5 12.5-12.5h2.5v2.5c0 6.893-5.607 12.5-12.5 12.5m42.5-2.5v2.5h-2.5c-6.893 0-12.5-5.607-12.5-12.5V271h2.5c6.893 0 12.5 5.607 12.5 12.5M197 256v-2.5c0-6.893 5.607-12.5 12.5-12.5h2.5v2.5c0 6.893-5.607 12.5-12.5 12.5zM331.5 392h-7c-7.875 0-14.982 3.332-20 8.655-5.018-5.323-12.125-8.655-20-8.655h-7c-5.79 0-10.5 4.71-10.5 10.5v7c0 7.875 3.333 14.982 8.655 20-5.323 5.018-8.655 12.125-8.655 20v7c0 5.79 4.71 10.5 10.5 10.5h7c7.875 0 14.982-3.332 20-8.655 5.018 5.323 12.125 8.655 20 8.655h7c5.79 0 10.5-4.71 10.5-10.5v-7c0-7.875-3.333-14.982-8.655-20 5.323-5.018 8.655-12.125 8.655-20v-7c0-5.79-4.71-10.5-10.5-10.5M282 409.5V407h2.5c6.893 0 12.5 5.607 12.5 12.5v2.5h-2.5c-6.893 0-12.5-5.607-12.5-12.5m2.5 42.5H282v-2.5c0-6.893 5.607-12.5 12.5-12.5h2.5v2.5c0 6.893-5.607 12.5-12.5 12.5m42.5-2.5v2.5h-2.5c-6.893 0-12.5-5.607-12.5-12.5V437h2.5c6.893 0 12.5 5.607 12.5 12.5M312 422v-2.5c0-6.893 5.607-12.5 12.5-12.5h2.5v2.5c0 6.893-5.607 12.5-12.5 12.5zM331.5 273h-7c-7.875 0-14.982 3.332-20 8.655-5.018-5.323-12.125-8.655-20-8.655h-7c-5.79 0-10.5 4.71-10.5 10.5v7c0 7.875 3.333 14.982 8.655 20-5.323 5.018-8.655 12.125-8.655 20v7c0 5.79 4.71 10.5 10.5 10.5h7c7.875 0 14.982-3.332 20-8.655 5.018 5.323 12.125 8.655 20 8.655h7c5.79 0 10.5-4.71 10.5-10.5v-7c0-7.875-3.333-14.982-8.655-20 5.323-5.018 8.655-12.125 8.655-20v-7c0-5.789-4.71-10.5-10.5-10.5M282 290.5V288h2.5c6.893 0 12.5 5.607 12.5 12.5v2.5h-2.5c-6.893 0-12.5-5.607-12.5-12.5m2.5 42.5H282v-2.5c0-6.893 5.607-12.5 12.5-12.5h2.5v2.5c0 6.893-5.607 12.5-12.5 12.5m42.5-2.5v2.5h-2.5c-6.893 0-12.5-5.607-12.5-12.5V318h2.5c6.893 0 12.5 5.607 12.5 12.5M312 303v-2.5c0-6.893 5.607-12.5 12.5-12.5h2.5v2.5c0 6.893-5.607 12.5-12.5 12.5z"/></svg>