<svg xmlns="http://www.w3.org/2000/svg" width="512" height="512"><path fill="#6f6571" d="m392.628 38.319-17.32-10a5 5 0 0 0-6.83 1.83l-128 221.703a5 5 0 0 0 1.83 6.83l17.321 10a5 5 0 0 0 6.83-1.83l128-221.703a5 5 0 0 0-1.831-6.83"/><path fill="#fc8d94" d="M193.373 504.5h123.188c9.979 0 18.431-7.356 19.809-17.239L373.967 217.5h-238l37.597 269.761c1.378 9.883 9.83 17.239 19.809 17.239"/><path fill="#f77289" d="m360.93 311.02-24.56 176.24c-1.38 9.88-9.83 17.24-19.81 17.24h-30c9.98 0 18.43-7.36 19.81-17.24l22.55-161.78c3.2 1.92 6.95 3.02 10.96 3.02a21.4 21.4 0 0 0 14.06-5.26 21.42 21.42 0 0 0 6.99-12.22"/><path fill="#ffc7ce" d="m373.97 217.5-13.01 93.32-.03.2a21.42 21.42 0 0 1-6.99 12.22 21.4 21.4 0 0 1-14.06 5.26c-11.83 0-21.41-9.59-21.41-21.41v-7.59c0-5.8-2.35-11.05-6.15-14.85s-9.05-6.15-14.85-6.15c-11.6 0-21 9.4-21 21V331c0 5.94-2.41 11.31-6.3 15.2s-9.27 6.3-15.2 6.3c-11.88 0-21.5-9.63-21.5-21.5v-31.5c0-5.8-2.35-11.05-6.15-14.85s-9.05-6.15-14.85-6.15c-11.6 0-21 9.4-21 21v7.59c0 5.91-2.4 11.26-6.27 15.14-3.88 3.87-9.23 6.27-15.14 6.27-10.48 0-19.38-7.57-21.11-17.83l-12.98-93.17z"/><path fill="#f4b0be" d="m373.97 217.5-13.01 93.32-.03.2a21.42 21.42 0 0 1-6.99 12.22 21.4 21.4 0 0 1-14.06 5.26c-4.01 0-7.76-1.1-10.96-3.02l15.05-107.98z"/><path fill="#faf2f3" d="M383.06 160.5H126.874c-6.214 0-10.923 5.608-9.85 11.728l6.491 37a10 10 0 0 0 9.85 8.272h243.203c4.856 0 9.01-3.489 9.85-8.272l6.491-37c1.074-6.12-3.635-11.728-9.849-11.728"/><path fill="#f0e5e0" d="m392.91 172.23-6.49 37a10 10 0 0 1-9.85 8.27h-30a10 10 0 0 0 9.85-8.27l6.49-37c1.07-6.12-3.64-11.73-9.85-11.73h30c6.21 0 10.92 5.61 9.85 11.73"/><path fill="#b3e59f" d="M305.967 70.5h-102c-16.569 0-30 13.431-30 30v15h162v-15c0-16.569-13.431-30-30-30"/><path fill="#ccf49f" d="M335.967 115.5h-162c-16.569 0-30 13.431-30 30v15h222v-15c0-16.569-13.431-30-30-30"/><path fill="#b3e59f" d="M365.97 145.5v15h-30v-15c0-16.57-13.43-30-30-30h30c16.57 0 30 13.43 30 30"/><path fill="#ccf49f" d="M218.171 70.5c17.243-11.849 20.754-35.822 7.634-52.118l-2.211-2.746c-2.634-3.271-.305-8.136 3.895-8.136h1.281c34.794 0 63 28.206 63 63z"/><path fill="#b3e59f" d="M291.77 70.5h-30c0-26.39-16.24-49-39.27-58.37.19-2.44 2.17-4.63 4.99-4.63h1.28c34.79 0 63 28.21 63 63"/><path fill="#9bcf84" d="M335.97 100.5v15h-30v-15c0-16.57-13.43-30-30-30h30c16.57 0 30 13.43 30 30"/><g fill="#6f6571"><path d="M301.967 424.5c8.284 0 15-6.716 15-15s-6.716-15-15-15-15 6.716-15 15 6.716 15 15 15M254.967 474.5c8.284 0 15-6.716 15-15s-6.716-15-15-15-15 6.716-15 15 6.716 15 15 15M207.967 424.5c-8.284 0-15-6.716-15-15s6.716-15 15-15 15 6.716 15 15-6.715 15-15 15"/></g><path d="M324.468 409.5c0-12.407-10.094-22.5-22.5-22.5s-22.5 10.093-22.5 22.5 10.094 22.5 22.5 22.5 22.5-10.093 22.5-22.5m-30 0c0-4.136 3.364-7.5 7.5-7.5s7.5 3.364 7.5 7.5-3.364 7.5-7.5 7.5-7.5-3.364-7.5-7.5M232.468 459.5c0 12.407 10.094 22.5 22.5 22.5s22.5-10.093 22.5-22.5-10.094-22.5-22.5-22.5-22.5 10.093-22.5 22.5m22.5-7.5c4.136 0 7.5 3.364 7.5 7.5s-3.364 7.5-7.5 7.5-7.5-3.364-7.5-7.5 3.364-7.5 7.5-7.5M207.968 432c12.406 0 22.5-10.093 22.5-22.5s-10.094-22.5-22.5-22.5-22.5 10.093-22.5 22.5 10.094 22.5 22.5 22.5m0-30c4.136 0 7.5 3.364 7.5 7.5s-3.364 7.5-7.5 7.5-7.5-3.364-7.5-7.5 3.364-7.5 7.5-7.5M199.968 372c5.514 0 10-4.486 10-10s-4.486-10-10-10-10 4.486-10 10 4.486 10 10 10M264.968 391c0-5.514-4.486-10-10-10s-10 4.486-10 10 4.486 10 10 10 10-4.486 10-10M309.968 372c5.514 0 10-4.486 10-10s-4.486-10-10-10-10 4.486-10 10 4.486 10 10 10"/><path d="m396.379 31.824-17.32-10a12.4 12.4 0 0 0-9.485-1.25 12.42 12.42 0 0 0-7.591 5.824l-28.246 48.925C326.871 67.758 316.965 63 305.968 63h-7.096c-1.698-16.136-8.851-31.082-20.535-42.634C265.055 7.233 247.451 0 228.771 0h-1.281c-4.857 0-9.177 2.722-11.274 7.103-2.098 4.381-1.508 9.453 1.538 13.237l2.211 2.746c4.965 6.166 7.104 13.873 6.024 21.7-1.002 7.261-4.64 13.665-10.3 18.215h-11.721c-20.678 0-37.5 16.822-37.5 37.5v8.255c-17.096 3.484-30 18.635-30 36.745v7.5h-9.593c-5.183 0-10.067 2.276-13.4 6.245s-4.731 9.173-3.836 14.279l6.491 37.001a17.46 17.46 0 0 0 13.245 14.002l36.762 263.77C168.022 501.81 179.731 512 193.374 512h76.569c4.143 0 7.5-3.358 7.5-7.5s-3.357-7.5-7.5-7.5h-76.569c-6.201 0-11.524-4.632-12.381-10.774L159.79 334.097a28.6 28.6 0 0 0 10.266 1.904c15.941 0 28.911-12.97 28.911-28.912V299.5c0-7.444 6.056-13.5 13.5-13.5s13.5 6.056 13.5 13.5V331c0 15.991 13.01 29 29 29s29-13.009 29-29v-31.5c0-7.444 6.056-13.5 13.5-13.5s13.5 6.056 13.5 13.5v7.588c0 15.942 12.97 28.912 28.912 28.912a28.6 28.6 0 0 0 10.266-1.904l-21.203 152.129c-.856 6.143-6.18 10.775-12.381 10.775h-11.619c-4.143 0-7.5 3.358-7.5 7.5s3.357 7.5 7.5 7.5h11.619c13.644 0 25.353-10.19 27.236-23.704l36.763-263.77a17.46 17.46 0 0 0 13.244-14.002l6.492-37a17.47 17.47 0 0 0-3.837-14.279 17.46 17.46 0 0 0-13.4-6.245h-9.594v-7.5c0-10.975-4.74-20.863-12.278-27.727l39.766-68.876c3.447-5.969 1.394-13.628-4.574-17.073M283.748 63H235.24c2.885-4.883 4.804-10.342 5.607-16.165 1.566-11.35-1.295-22.531-8.067-31.69 26.127 1.893 47.451 22.14 50.968 47.855m-79.78 15h102c12.406 0 22.5 10.093 22.5 22.5v7.5h-147v-7.5c0-12.407 10.094-22.5 22.5-22.5M339.88 321c-7.671 0-13.912-6.241-13.912-13.912V299.5c0-15.715-12.785-28.5-28.5-28.5s-28.5 12.785-28.5 28.5V331c0 7.72-6.28 14-14 14s-14-6.28-14-14v-31.5c0-15.715-12.785-28.5-28.5-28.5s-28.5 12.785-28.5 28.5v7.588c0 7.671-6.24 13.912-13.911 13.912-6.784 0-12.612-4.985-13.715-11.647L144.585 225h220.766l-11.754 84.334C352.504 316.006 346.671 321 339.88 321M208.968 153c-4.143 0-7.5 3.358-7.5 7.5s3.357 7.5 7.5 7.5h174.094c1.889.284 2.51 1.022 2.463 2.932l-6.491 36.999a2.5 2.5 0 0 1-2.463 2.069H133.366a2.5 2.5 0 0 1-2.463-2.068l-6.49-37c-.048-1.911.572-2.649 2.462-2.933h47.093c4.143 0 7.5-3.358 7.5-7.5s-3.357-7.5-7.5-7.5h-22.5v-7.5c0-12.407 10.094-22.5 22.5-22.5h162c12.406 0 22.5 10.093 22.5 22.5v7.5h-149.5zm139.335-42.906a37 37 0 0 0-4.835-1.339V100.5a37.4 37.4 0 0 0-1.301-9.778l31.556-54.658 12.991 7.5z"/></svg>