<svg xmlns="http://www.w3.org/2000/svg" width="512" height="512"><path fill="#fff3d2" d="M255.999 504.5c-58.542 0-106-47.458-106-106v-186h212v186c0 58.542-47.458 106-106 106"/><path fill="#ffe6ae" d="M361.999 212.5v100.33c-.88-.36-1.76-.71-2.65-1.04-8.77-3.31-18.02-5.57-27.35-6.39v-92.9z"/><path fill="#ffe07d" d="M361.999 314.3v84.2c0 58.54-47.46 106-106 106s-106-47.46-106-106v-75.86c15.95-3.44 32.87-2.89 48.73 1.13 27.25 6.9 51.84 23.38 79.76 26.76 31.44 3.8 64.74-10.71 83.51-36.23"/><path fill="#ffd064" d="M361.999 314.3v84.2c0 58.54-47.46 106-106 106-5.09 0-10.1-.36-15-1.06 51.44-7.28 91-51.49 91-104.94v-58.48c11.74-6.29 22.14-15.04 30-25.72"/><path fill="#ffc269" d="M361.999 312.83v1.47c-18.77 25.52-52.07 40.03-83.51 36.23-12.82-1.55-24.93-5.86-36.92-10.74 8.4-3.91 16.42-9.54 23.38-13.68 13.69-8.13 27.77-16.28 43.55-19.5 16.92-3.45 34.7-.92 50.85 5.18.89.33 1.77.68 2.65 1.04"/><path fill="#ffa95f" d="M361.999 312.83v1.47c-7.86 10.68-18.26 19.43-30 25.72V305.4c9.33.82 18.58 3.08 27.35 6.39.89.33 1.77.68 2.65 1.04"/><path fill="#ffe6ae" d="M363.993 212.5H148.005a12 12 0 0 1-11.895-10.414l-2.611-19.586h245l-2.611 19.586a12 12 0 0 1-11.895 10.414"/><path fill="#ffd385" d="m378.499 182.5-2.61 19.59c-.8 5.96-5.88 10.41-11.9 10.41h-30c6.02 0 11.1-4.45 11.9-10.41l2.61-19.59z"/><path fill="#ead1ff" d="m341.999 137.5-7.721-23.162a10 10 0 0 0-9.487-6.838H187.207a10 10 0 0 0-9.487 6.838l-7.721 23.162z"/><path fill="#d6bdef" d="M341.999 137.5h-30l-7.72-23.16a9.99 9.99 0 0 0-9.49-6.84h30c4.31 0 8.13 2.75 9.49 6.84z"/><path fill="#c3aff0" d="M139.774 137.5a15 15 0 0 0-14.571 11.438l-5.179 21.187c-1.54 6.299 3.23 12.375 9.714 12.375H382.26c6.484 0 11.254-6.076 9.714-12.375l-5.179-21.187a15 15 0 0 0-14.571-11.438z"/><path fill="#ad96ed" d="M382.259 182.5h-30c6.49 0 11.25-6.08 9.72-12.37l-5.18-21.19a15.004 15.004 0 0 0-14.57-11.44h30c6.91 0 12.92 4.72 14.57 11.44l5.18 21.19c1.53 6.29-3.23 12.37-9.72 12.37"/><path fill="#ffe6ae" d="M265.999 282.5h-20a5 5 0 0 1-5-5v-65h30v65a5 5 0 0 1-5 5"/><path fill="#fc8d94" d="M270.999 107.5h-30v-95a5 5 0 0 1 5-5h20a5 5 0 0 1 5 5z"/><path fill="#ffd385" d="M240.999 182.5h30v30h-30z"/><g fill="#6f6571"><path d="M205.999 434.5c8.284 0 15-6.716 15-15s-6.716-15-15-15-15 6.716-15 15 6.716 15 15 15M255.999 474.5c8.284 0 15-6.716 15-15s-6.716-15-15-15-15 6.716-15 15 6.716 15 15 15M305.999 434.5c-8.284 0-15-6.716-15-15s6.716-15 15-15 15 6.716 15 15-6.716 15-15 15"/></g><circle cx="328" cy="378" r="10"/><path d="m399.261 168.345-5.179-21.188A22.45 22.45 0 0 0 372.225 130h-24.819l-6.011-18.034A17.48 17.48 0 0 0 324.793 100H278.5V12.5C278.5 5.607 272.893 0 266 0h-20c-6.893 0-12.5 5.607-12.5 12.5V100h-46.292a17.48 17.48 0 0 0-16.602 11.966L164.594 130h-24.819a22.45 22.45 0 0 0-21.856 17.158l-5.179 21.187a17.4 17.4 0 0 0 3.234 14.961 17.38 17.38 0 0 0 10.929 6.463l1.774 13.308c1.034 7.759 6.616 13.975 13.823 16.115V363.5a7.5 7.5 0 0 0 15 0v-34.594c12.812-1.894 26.328-1.175 39.389 2.135 11.025 2.792 21.537 7.205 32.666 11.878 15.206 6.384 30.929 12.986 48.035 15.057 3.703.448 7.417.667 11.13.667 23.997-.001 47.776-9.172 65.78-25.114V398.5c0 54.313-44.187 98.5-98.5 98.5s-98.5-44.187-98.5-98.5a7.5 7.5 0 0 0-15 0c0 62.584 50.916 113.5 113.5 113.5s113.5-50.916 113.5-113.5V219.192c7.207-2.14 12.788-8.356 13.823-16.115l1.774-13.308a17.38 17.38 0 0 0 10.929-6.463 17.4 17.4 0 0 0 3.235-14.961M248.5 15h15v85h-15zm-63.664 101.71a2.5 2.5 0 0 1 2.372-1.71h137.585c1.078 0 2.031.687 2.372 1.709l4.43 13.291H180.406zm-57.525 55.196 5.179-21.187a7.48 7.48 0 0 1 7.285-5.719h232.45a7.48 7.48 0 0 1 7.285 5.719l5.179 21.188c.18 1.965-.476 2.801-2.428 3.094H129.739c-1.952-.293-2.608-1.129-2.428-3.095M148.006 205a4.515 4.515 0 0 1-4.461-3.905L142.066 190H233.5v15zM248.5 220h15v55h-15zm0-15v-15h15v15zm-47.927 111.5c-14.231-3.607-28.969-4.521-43.073-2.73V220h76v57.5c0 6.893 5.607 12.5 12.5 12.5h20c6.893 0 12.5-5.607 12.5-12.5V220h28.132a7.5 7.5 0 0 0 0-15H278.5v-15h91.434l-1.479 11.095a4.514 4.514 0 0 1-4.461 3.905h-22.361a7.5 7.5 0 0 0 0 15H354.5v82.225c-16.332-4.962-32.613-5.999-47.5-2.964-17.564 3.584-33.264 12.908-45.885 20.403-2.14 1.273-4.304 2.636-6.596 4.08-4.306 2.711-8.736 5.493-13.233 7.821q-2.943-1.222-5.925-2.476c-11.148-4.682-22.676-9.522-34.788-12.589m78.818 26.584c-6.821-.826-13.447-2.5-20.046-4.663 1.078-.672 2.14-1.338 3.168-1.985 2.209-1.391 4.295-2.705 6.267-3.877 14.81-8.795 27.249-15.749 41.219-18.6 12.49-2.546 26.306-1.615 40.335 2.678-17.758 19.068-45.285 29.548-70.943 26.447"/><path d="M183.5 419.5c0 12.407 10.093 22.5 22.5 22.5s22.5-10.093 22.5-22.5S218.407 397 206 397s-22.5 10.093-22.5 22.5M206 412c4.136 0 7.5 3.364 7.5 7.5s-3.364 7.5-7.5 7.5-7.5-3.364-7.5-7.5 3.364-7.5 7.5-7.5M233.5 459.5c0 12.407 10.093 22.5 22.5 22.5s22.5-10.093 22.5-22.5S268.407 437 256 437s-22.5 10.093-22.5 22.5M256 452c4.136 0 7.5 3.364 7.5 7.5s-3.364 7.5-7.5 7.5-7.5-3.364-7.5-7.5 3.364-7.5 7.5-7.5M283.5 419.5c0 12.407 10.093 22.5 22.5 22.5s22.5-10.093 22.5-22.5S318.407 397 306 397s-22.5 10.093-22.5 22.5m30 0c0 4.136-3.364 7.5-7.5 7.5s-7.5-3.364-7.5-7.5 3.364-7.5 7.5-7.5 7.5 3.364 7.5 7.5"/><circle cx="184" cy="378" r="10"/><circle cx="256" cy="409.5" r="10"/></svg>