<svg xmlns="http://www.w3.org/2000/svg" width="512" height="512"><path fill="#faf2f3" d="M329.939 474.5H182.061a15 15 0 0 1-14.857-12.936L129 186.5h254l-38.203 275.064a15 15 0 0 1-14.858 12.936"/><path fill="#f0e5e0" d="m383 186.5-8.33 60h-30l8.33-60z"/><path fill="#cdf2f9" d="M374.67 246.5 344.8 461.56a15 15 0 0 1-14.86 12.94H182.06a15 15 0 0 1-14.86-12.94L137.33 246.5z"/><path fill="#b1f1f1" d="m354.29 393.17-9.49 68.39a15 15 0 0 1-14.86 12.94h-30a15 15 0 0 0 14.86-12.94l7.47-53.82c3.14 1.76 6.77 2.76 10.63 2.76 5.46 0 10.49-2.01 14.35-5.36 3.5-3.04 6.04-7.2 7.04-11.97"/><path fill="#71ddf9" d="m374.67 246.5-20.36 146.6c-1 4.8-3.54 8.98-7.06 12.04a21.84 21.84 0 0 1-14.35 5.36c-12.07 0-21.87-9.79-21.87-21.87V384c0-4.84-1.96-9.21-5.12-12.38a17.5 17.5 0 0 0-12.38-5.12c-9.66 0-17.5 7.83-17.5 17.5v31.47c0 5.53-2.24 10.54-5.87 14.16A19.93 19.93 0 0 1 256 435.5c-11.06 0-20.03-8.97-20.03-20.03V384c0-4.84-1.96-9.21-5.13-12.38a17.45 17.45 0 0 0-12.37-5.12c-9.67 0-17.5 7.83-17.5 17.5v4.63c0 6.04-2.45 11.51-6.41 15.47-3.96 3.95-9.42 6.4-15.46 6.4-10.42 0-19.31-7.33-21.41-17.4l-20.36-146.6z"/><path fill="#23c7f7" d="m374.67 246.5-20.36 146.6v.02c-.01.02-.01.03-.02.05-1 4.77-3.54 8.93-7.04 11.97a21.84 21.84 0 0 1-14.35 5.36c-3.86 0-7.49-1-10.63-2.76l2.04-14.62v-.02l20.36-146.6z"/><path fill="#faf2f3" d="M314 504.5H198c-5.523 0-10-4.477-10-10v-20h136v20c0 5.523-4.477 10-10 10"/><path fill="#f0e5e0" d="M324 474.5v20c0 5.52-4.48 10-10 10h-30c5.52 0 10-4.48 10-10v-20z"/><path fill="#6f6571" d="M376.136 131.5H135.864c-12.082 0-22.435 8.641-24.597 20.528l-3.053 16.789c-1.674 9.208 5.399 17.683 14.758 17.683h266.054c9.359 0 16.432-8.476 14.758-17.683l-3.053-16.789c-2.16-11.887-12.513-20.528-24.595-20.528"/><path fill="#5d5360" d="M389.03 186.5h-30c9.36 0 16.43-8.48 14.75-17.68l-3.05-16.79c-2.16-11.89-12.51-20.53-24.59-20.53h30c12.08 0 22.43 8.64 24.59 20.53l3.05 16.79c1.68 9.2-5.39 17.68-14.75 17.68"/><path fill="#8c868e" d="M315 86.5H197c-24.853 0-45 20.147-45 45h208c0-24.853-20.147-45-45-45"/><path fill="#23c7f7" d="M246 321.5h20a5 5 0 0 0 5-5v-70h-30v70a5 5 0 0 0 5 5"/><path fill="#f0e5e0" d="M241 186.5h30v60h-30z"/><path fill="#c3aff0" d="M271 86.5h-30v-74a5 5 0 0 1 5-5h20a5 5 0 0 1 5 5z"/><path fill="#7a767c" d="M360 131.5h-30c0-12.42-5.04-23.68-13.18-31.82S297.42 86.5 285 86.5h30c12.42 0 23.68 5.04 31.82 13.18S360 119.08 360 131.5"/><path d="m411.164 167.475-3.053-16.789C405.3 135.223 391.852 124 376.135 124h-9.18C363.304 98.593 341.401 79 315 79h-36.5V12.5C278.5 5.607 272.892 0 266 0h-20c-6.893 0-12.5 5.607-12.5 12.5V79H197c-26.402 0-48.304 19.593-51.956 45h-9.18c-15.716 0-29.164 11.223-31.976 26.687l-3.052 16.789a22.44 22.44 0 0 0 4.862 18.441 22.44 22.44 0 0 0 16.769 8.07l37.307 268.61c1.465 10.542 10.238 18.596 20.726 19.332V494.5c0 9.649 7.851 17.5 17.5 17.5h116c9.649 0 17.5-7.851 17.5-17.5v-12.573c10.487-.736 19.261-8.79 20.726-19.332l29.576-212.95a7.45 7.45 0 0 0 .698-3.145c0-.397-.04-.784-.099-1.165l7.132-51.349a22.44 22.44 0 0 0 16.769-8.069 22.44 22.44 0 0 0 4.862-18.442M248.5 15h15v64h-15zm119.636 224H278.5v-45h95.886zm-21.232 152.874c-1.51 6.551-7.266 11.126-14 11.126-7.924 0-14.371-6.447-14.371-14.371V384c0-13.785-11.215-25-25-25s-25 11.215-25 25v31.466c0 6.911-5.622 12.534-12.533 12.534s-12.533-5.623-12.533-12.534V384c0-13.785-11.215-25-25-25s-25 11.215-25 25v4.629c0 7.924-6.447 14.371-14.371 14.371a14.31 14.31 0 0 1-13.976-11.022q-.009-.031-.018-.062L145.947 254H233.5v62.5c0 6.893 5.607 12.5 12.5 12.5h20c6.893 0 12.5-5.607 12.5-12.5V254h87.553zM248.5 254h15v60h-15zm15-15h-15v-45h15zm-30 0h-89.636l-6.25-45H233.5zm96.439 228h-94.303a7.5 7.5 0 0 0 0 15H316.5v12.5c0 1.378-1.121 2.5-2.5 2.5H198a2.503 2.503 0 0 1-2.5-2.5V482h5.137a7.5 7.5 0 0 0 0-15H182.06c-3.723 0-6.917-2.781-7.429-6.468l-6.185-44.534a29.5 29.5 0 0 0 10.65 2.002c16.195 0 29.371-13.176 29.371-29.371V384c0-5.514 4.486-10 10-10s10 4.486 10 10v31.466C228.467 430.648 240.818 443 256 443s27.533-12.352 27.533-27.534V384c0-5.514 4.486-10 10-10s10 4.486 10 10v4.629c0 16.195 13.176 29.371 29.371 29.371 3.745 0 7.333-.714 10.648-1.993l-6.184 44.524c-.513 3.688-3.706 6.469-7.429 6.469m59.087-288H122.973c-5.686-.853-7.557-3.094-7.379-8.842l3.052-16.789a17.49 17.49 0 0 1 17.218-14.37h162.9c4.143 0 7.5-3.358 7.5-7.5s-3.357-7.5-7.5-7.5h-138.51c3.484-17.096 18.635-30 36.745-30h118c18.11 0 33.261 12.904 36.745 30h-17.981c-4.143 0-7.5 3.358-7.5 7.5s3.357 7.5 7.5 7.5h42.371a17.49 17.49 0 0 1 17.218 14.37l3.053 16.789c1.257 5.734-1.342 8.842-7.379 8.842"/><path d="M208.5 269c-5.514 0-10 4.486-10 10s4.486 10 10 10 10-4.486 10-10-4.486-10-10-10M193.5 317c-5.514 0-10 4.486-10 10s4.486 10 10 10 10-4.486 10-10-4.486-10-10-10M313.5 279c0-5.514-4.486-10-10-10s-10 4.486-10 10 4.486 10 10 10 10-4.486 10-10M318.5 317c-5.514 0-10 4.486-10 10s4.486 10 10 10 10-4.486 10-10-4.487-10-10-10M206 432c-5.514 0-10 4.486-10 10s4.486 10 10 10 10-4.486 10-10-4.486-10-10-10M306 432c-5.514 0-10 4.486-10 10s4.486 10 10 10 10-4.486 10-10-4.487-10-10-10"/></svg>