<svg xmlns="http://www.w3.org/2000/svg" width="512" height="512"><path fill="#ead1ff" d="M155 504.5h202c22.091 0 40-17.909 40-40v-274c0-22.091-17.909-40-40-40H155c-22.091 0-40 17.909-40 40v274c0 22.091 17.909 40 40 40"/><path fill="#d6bdef" d="M397 244.51V362.6l-17.63-12.67c-3.77-2.71-8-4.45-12.37-5.22V216.38c.59-.05 1.19-.07 1.8-.07 7.78 0 14.84 3.16 19.94 8.26 5.1 5.11 8.26 12.15 8.26 19.94"/><path fill="#c3aff0" d="M397 362.6v101.9c0 22.09-17.91 40-40 40H155c-22.09 0-40-17.91-40-40V362.6l17.63-12.67a30.18 30.18 0 0 1 35.24 0h.01a30.18 30.18 0 0 0 35.24 0h.01a30.18 30.18 0 0 1 35.24 0h.01a30.18 30.18 0 0 0 35.24 0h.01a30.18 30.18 0 0 1 35.24 0h.01a30.18 30.18 0 0 0 35.24 0h.01a30.18 30.18 0 0 1 35.24 0z"/><path fill="#ad96ed" d="M397 362.6v101.9c0 22.09-17.91 40-40 40h-30c22.09 0 40-17.91 40-40V344.71c4.37.77 8.6 2.51 12.37 5.22z"/><path fill="#faf2f3" d="M397 190.5v54.01c0-7.79-3.16-14.83-8.26-19.94-5.1-5.1-12.16-8.26-19.94-8.26-15.57 0-28.2 12.63-28.2 28.2v.98c0 7.79-3.16 14.83-8.26 19.94-5.1 5.1-12.16 8.26-19.94 8.26-15.57 0-28.2-12.63-28.2-28.2v-.98c0-7.79-3.16-14.83-8.26-19.94-5.1-5.1-12.16-8.26-19.94-8.26-15.57 0-28.2 12.63-28.2 28.2v.98c0 7.79-3.16 14.83-8.26 19.94-5.1 5.1-12.16 8.26-19.94 8.26-15.57 0-28.2-12.63-28.2-28.2v-.98c0-7.79-3.16-14.83-8.26-19.94-5.1-5.1-12.16-8.26-19.94-8.26-15.57 0-28.2 12.63-28.2 28.2V190.5c0-22.09 17.91-40 40-40h202c22.09 0 40 17.91 40 40"/><path fill="#f0e5e0" d="M397 190.5v54.01c0-7.79-3.16-14.83-8.26-19.94-5.1-5.1-12.16-8.26-19.94-8.26-.61 0-1.21.02-1.8.07V190.5c0-22.09-17.91-40-40-40h30c22.09 0 40 17.91 40 40M169 120.5h174v30H169z"/><path fill="#e2d6d1" d="M313 120.5h30v30h-30z"/><path fill="#faf2f3" d="M164 90.5h184c5.523 0 10 4.477 10 10v10c0 5.523-4.477 10-10 10H164c-5.523 0-10-4.477-10-10v-10c0-5.523 4.477-10 10-10"/><path fill="#f0e5e0" d="M358 100.5v10c0 5.52-4.48 10-10 10h-30c5.52 0 10-4.48 10-10v-10c0-5.52-4.48-10-10-10h30c5.52 0 10 4.48 10 10"/><path fill="#fc8d94" d="m183.736 90.501-21.469-70.729a5.004 5.004 0 0 1 3.335-6.242l19.153-5.814a5.004 5.004 0 0 1 6.242 3.335l24.116 79.451z"/><path fill="#f0e5e0" d="m183.74 90.5 9.1 30h31.38l-9.1-30z"/><path fill="#e2d6d1" d="m192.84 120.5 9.11 30h31.38l-9.11-30z"/><path fill="#f0e5e0" d="m201.95 150.5 26.59 87.61a28.04 28.04 0 0 1 7.52-13.54c4.51-4.51 10.56-7.5 17.28-8.13l-20.01-65.94z"/><g fill="#6f6571"><path d="M293.5 414.5c-8.284 0-15-6.716-15-15s6.716-15 15-15 15 6.716 15 15-6.716 15-15 15M218.5 414.5c-8.284 0-15-6.716-15-15s6.716-15 15-15 15 6.716 15 15-6.716 15-15 15M331 474.5c-8.284 0-15-6.716-15-15s6.716-15 15-15 15 6.716 15 15-6.716 15-15 15M256 474.5c-8.284 0-15-6.716-15-15s6.716-15 15-15 15 6.716 15 15-6.716 15-15 15M181 474.5c-8.284 0-15-6.716-15-15s6.716-15 15-15 15 6.716 15 15-6.716 15-15 15"/></g><path d="M357 143h-6.5v-15.2c8.466-1.22 15-8.502 15-17.3v-10c0-9.649-7.851-17.5-17.5-17.5H220.673l-22.5-74.126c-2.003-6.596-8.991-10.337-15.597-8.333l-19.153 5.814c-6.471 1.819-10.418 9.206-8.333 15.596L173.62 83H164c-9.649 0-17.5 7.851-17.5 17.5v10c0 8.798 6.534 16.081 15 17.3V143H155c-26.191 0-47.5 21.309-47.5 47.5v219c0 4.142 3.357 7.5 7.5 7.5s7.5-3.358 7.5-7.5v-43.052l14.504-10.429a22.67 22.67 0 0 1 26.492 0 37.66 37.66 0 0 0 44.008 0 22.67 22.67 0 0 1 26.492 0 37.66 37.66 0 0 0 44.008 0 22.67 22.67 0 0 1 26.492 0 37.66 37.66 0 0 0 44.008 0 22.67 22.67 0 0 1 26.492 0l14.504 10.429V464.5c0 17.92-14.579 32.5-32.5 32.5H155c-17.921 0-32.5-14.58-32.5-32.5v-20c0-4.142-3.357-7.5-7.5-7.5s-7.5 3.358-7.5 7.5v20c0 26.191 21.309 47.5 47.5 47.5h202c26.191 0 47.5-21.309 47.5-47.5v-274c0-26.191-21.309-47.5-47.5-47.5m32.5 47.5v24.955a35.5 35.5 0 0 0-20.7-6.641c-19.686 0-35.7 16.015-35.7 35.7v.973c0 11.414-9.285 20.7-20.699 20.7s-20.7-9.286-20.7-20.7v-.973c0-18.708-14.467-34.09-32.8-35.572L243.438 158H357c17.921 0 32.5 14.58 32.5 32.5m-158.812 28.866L212.061 158h15.701l16.072 52.951a35.8 35.8 0 0 0-13.146 8.415M218.656 128l4.553 15h-15.7l-4.553-15zm-20.254-15-4.553-15h15.701l4.553 15zM348 98c1.379 0 2.5 1.122 2.5 2.5v10c0 1.378-1.121 2.5-2.5 2.5h-26.549c-4.143 0-7.5 3.358-7.5 7.5s3.357 7.5 7.5 7.5H335.5v15h-96.615l-4.553-15h52.12c4.143 0 7.5-3.358 7.5-7.5s-3.357-7.5-7.5-7.5h-56.673l-4.553-15zM170.168 19.983l14.376-4.364L204.997 83h-15.701zM161.5 100.5c0-1.378 1.121-2.5 2.5-2.5h14.173l4.553 15H164a2.503 2.503 0 0 1-2.5-2.5zm15 27.5h10.779l4.553 15H176.5zM155 158h41.385l24.432 80.493a36 36 0 0 0-.518 6.02v.973c0 11.414-9.286 20.7-20.7 20.7s-20.699-9.286-20.699-20.7v-.973c0-19.685-16.015-35.7-35.7-35.7a35.5 35.5 0 0 0-20.7 6.641V190.5c0-17.92 14.579-32.5 32.5-32.5m228.754 185.84a37.66 37.66 0 0 0-44.008 0 22.67 22.67 0 0 1-26.492 0 37.66 37.66 0 0 0-44.008 0 22.67 22.67 0 0 1-26.492 0 37.66 37.66 0 0 0-44.008 0 22.67 22.67 0 0 1-26.492 0 37.66 37.66 0 0 0-44.008 0l-5.746 4.132V244.514c0-11.414 9.286-20.7 20.7-20.7s20.7 9.286 20.7 20.7v.973c0 19.685 16.015 35.7 35.699 35.7 19.686 0 35.7-16.015 35.7-35.7v-.973c0-11.414 9.286-20.7 20.7-20.7s20.7 9.286 20.7 20.7v.973c0 19.685 16.015 35.7 35.7 35.7s35.699-16.015 35.699-35.7v-.973c0-11.414 9.286-20.7 20.7-20.7s20.7 9.286 20.7 20.7v103.458z"/><circle cx="256" cy="310" r="10"/><circle cx="351" cy="310" r="10"/><circle cx="161" cy="310" r="10"/><circle cx="351" cy="399" r="10"/><path d="M293.5 377c-12.406 0-22.5 10.093-22.5 22.5s10.094 22.5 22.5 22.5 22.5-10.093 22.5-22.5-10.094-22.5-22.5-22.5m0 30c-4.136 0-7.5-3.364-7.5-7.5s3.364-7.5 7.5-7.5 7.5 3.364 7.5 7.5-3.364 7.5-7.5 7.5M218.5 377c-12.406 0-22.5 10.093-22.5 22.5s10.094 22.5 22.5 22.5 22.5-10.093 22.5-22.5-10.094-22.5-22.5-22.5m0 30c-4.136 0-7.5-3.364-7.5-7.5s3.364-7.5 7.5-7.5 7.5 3.364 7.5 7.5-3.364 7.5-7.5 7.5M308.5 459.5c0 12.407 10.094 22.5 22.5 22.5s22.5-10.093 22.5-22.5S343.406 437 331 437s-22.5 10.093-22.5 22.5m30 0c0 4.136-3.364 7.5-7.5 7.5s-7.5-3.364-7.5-7.5 3.364-7.5 7.5-7.5 7.5 3.364 7.5 7.5M233.5 459.5c0 12.407 10.094 22.5 22.5 22.5s22.5-10.093 22.5-22.5S268.406 437 256 437s-22.5 10.093-22.5 22.5m30 0c0 4.136-3.364 7.5-7.5 7.5s-7.5-3.364-7.5-7.5 3.364-7.5 7.5-7.5 7.5 3.364 7.5 7.5M158.5 459.5c0 12.407 10.094 22.5 22.5 22.5s22.5-10.093 22.5-22.5S193.406 437 181 437s-22.5 10.093-22.5 22.5m30 0c0 4.136-3.364 7.5-7.5 7.5s-7.5-3.364-7.5-7.5 3.364-7.5 7.5-7.5 7.5 3.364 7.5 7.5"/><circle cx="161" cy="399" r="10"/></svg>