<svg xmlns="http://www.w3.org/2000/svg" width="512" height="512"><path fill="#f0e5e0" d="M168.999 120.497H343v30H168.999z"/><path fill="#e2d6d1" d="M313 120.497h30v30h-30z"/><path fill="#faf2f3" d="M114.999 464.5c0 22.092 17.909 40 40 40h202.002c22.092 0 40-17.909 40-40V190.498c0-22.092-17.909-40-40-40H154.999c-22.092 0-40 17.909-40 40z"/><path fill="#f0e5e0" d="M397.001 190.498v25h-30v-25c0-22.09-17.91-40-40-40h30c22.09-.001 40 17.909 40 40"/><path fill="#ffc269" d="M397.001 215.498V464.5c0 22.09-17.91 40-40 40H154.999c-22.09 0-40-17.91-40-40V215.498z"/><path fill="#ffa95f" d="M397.001 215.498V464.5c0 22.09-17.91 40-40 40h-30c22.09 0 40-17.91 40-40V215.498zM298.44 382.479l-19.12 5.8c-2.64.8-5.43-.69-6.23-3.33l-51.43-169.451h31.32l48.79 160.751c.8 2.64-.69 5.43-3.33 6.23"/><path fill="#faf2f3" d="M163.999 120.497c-5.523 0-10-4.477-10-10v-10c0-5.523 4.477-10 10-10H348c5.523 0 10 4.477 10 10v10c0 5.523-4.477 10-10 10z"/><path fill="#f0e5e0" d="M358.001 100.497v10c0 5.52-4.48 10-10 10h-30c5.52 0 10-4.48 10-10v-10c0-5.52-4.48-10-10-10h30c5.52 0 10 4.48 10 10"/><path fill="#ffe07d" d="m188.858 240.495-.955.297c-21.624 6.72-33.705 29.697-26.985 51.321s29.697 33.705 51.321 26.985l.955-.297a5 5 0 0 0 3.291-6.259l-21.368-68.757a5 5 0 0 0-6.259-3.29"/><path fill="#fff3d2" d="m329.913 341.73.955-.297c21.624-6.72 33.705-29.697 26.985-51.321s-29.697-33.705-51.321-26.985l-.955.297a5 5 0 0 0-3.291 6.259l21.368 68.757a5 5 0 0 0 6.259 3.29"/><path fill="#ffe07d" d="m331.322 397.926.707.707c16.012 16.012 16.012 41.972 0 57.983-16.012 16.012-41.972 16.012-57.983 0l-.707-.707a5 5 0 0 1 0-7.071l50.912-50.912a5 5 0 0 1 7.071 0"/><path fill="#fff3d2" d="m171.589 366.926-.707.707c-16.012 16.012-16.012 41.971 0 57.983s41.972 16.012 57.983 0l.707-.707a5 5 0 0 0 0-7.071l-50.912-50.912a5 5 0 0 0-7.071 0"/><path fill="#f0e5e0" d="M252.98 215.498h-31.32l-16.99-55.951-2.74-9.05h31.32l2.76 9.1z"/><path fill="#6f6571" d="M215.04 90.497h-31.33l-21.47-70.751c-.8-2.64.69-5.43 3.33-6.23l19.12-5.8c2.64-.8 5.43.69 6.23 3.33z"/><path fill="#f0e5e0" d="M224.14 120.497h-31.32l-2.661-8.75-6.45-21.25h31.331l6.45 21.25z"/><path fill="#e2d6d1" d="M233.25 150.497h-31.32l-9.11-30h31.32z"/><path d="M356.996 143.014h-6.5v-15.199c8.466-1.22 14.999-8.502 14.999-17.3v-10c0-9.649-7.85-17.499-17.499-17.499H220.598L198.097 8.889C196.281 2.42 188.896-1.524 182.511.56l-19.119 5.803c-6.466 1.818-10.412 9.201-8.327 15.585l18.536 61.068h-9.597c-9.649 0-17.499 7.85-17.499 17.499v10c0 8.798 6.533 16.08 14.999 17.3v15.199h-6.5c-26.19 0-47.498 21.308-47.498 47.498v218.991c0 4.142 3.357 7.5 7.5 7.5s7.5-3.358 7.5-7.5V223.011h93.589l49.818 164.127c1.985 6.649 9.167 10.327 15.586 8.326l19.119-5.803c6.467-1.817 10.411-9.201 8.327-15.585l-45.854-151.064h126.404v241.491c0 17.92-14.579 32.499-32.499 32.499H155.004c-17.92 0-32.499-14.579-32.499-32.499v-19.999c0-4.142-3.357-7.5-7.5-7.5s-7.5 3.358-7.5 7.5v19.999c0 26.19 21.308 47.498 47.498 47.498h201.992c26.19 0 47.498-21.308 47.498-47.498v-273.99c.001-26.191-21.307-47.499-47.497-47.499m-9-44.998c1.379 0 2.5 1.122 2.5 2.5v10c0 1.378-1.121 2.5-2.5 2.5h-26.548a7.5 7.5 0 0 0 0 15h14.048v14.999h-96.688l-4.553-14.999h52.194a7.5 7.5 0 0 0 0-15h-56.747l-4.553-14.999h122.847zm-140.508 44.998-4.553-14.999h15.647l4.553 14.999zm20.199 15 15.176 49.998h-15.647l-15.176-49.998zm-29.305-44.998-4.553-14.999h15.647l4.553 14.999zm-28.237-93.027 14.327-4.349 20.451 67.377h-15.647zm-8.641 80.527c0-1.378 1.121-2.5 2.5-2.5h14.15l4.553 14.999h-18.703a2.503 2.503 0 0 1-2.5-2.5zm14.999 27.499h10.756l4.553 14.999h-15.309zm-53.998 79.997v-17.499c0-17.92 14.579-32.499 32.499-32.499h41.361l15.176 49.998zm171.36 168.024-14.327 4.349-47.768-157.374h15.647zm-35.327-168.024-15.176-49.998h113.634c17.92 0 32.499 14.579 32.499 32.499v17.499z"/><path d="M202.28 241.572c-2.047-6.582-9.07-10.271-15.646-8.225l-.954.296c-12.371 3.844-22.504 12.276-28.533 23.742s-7.232 24.593-3.388 36.964 12.276 22.504 23.742 28.533c7.062 3.714 14.754 5.596 22.513 5.596 4.837 0 9.701-.732 14.452-2.208l.953-.296c6.458-1.861 10.355-9.271 8.228-15.646zm-17.798 68.034c-7.92-4.164-13.744-11.163-16.399-19.708s-1.824-17.613 2.34-25.532c3.931-7.475 10.387-13.083 18.286-15.922l19.863 63.916c-8.114 2.137-16.613 1.177-24.09-2.754M365.01 287.897c-3.845-12.371-12.276-22.504-23.741-28.533s-24.592-7.234-36.965-3.388l-.954.297c-6.582 2.045-10.272 9.064-8.227 15.646l21.367 68.752c1.662 5.351 6.613 8.792 11.944 8.792 1.226 0 2.472-.182 3.701-.564h.002l.954-.297c12.371-3.845 22.504-12.276 28.533-23.742 6.028-11.465 7.231-24.592 3.386-36.963m-16.663 29.984c-3.931 7.475-10.387 13.083-18.285 15.922l-19.863-63.916c8.116-2.139 16.615-1.178 24.09 2.753 7.92 4.164 13.744 11.164 16.399 19.709s1.824 17.612-2.341 25.532M264.374 452.376c0 3.339 1.301 6.478 3.66 8.837l.708.709c9.161 9.16 21.34 14.205 34.294 14.205 12.955 0 25.134-5.045 34.294-14.205 18.909-18.909 18.909-49.677 0-68.587l-.707-.707c-4.653-4.849-13.025-4.849-17.677 0l-50.909 50.909a12.42 12.42 0 0 0-3.663 8.839m63.386-47.35c12.014 13.128 11.668 33.585-1.038 46.29-6.326 6.327-14.739 9.811-23.687 9.811-8.447 0-16.416-3.105-22.604-8.774zM183.968 361.63c-4.652-4.85-13.024-4.849-17.677-.001l-.001.001-.707.707c-18.909 18.909-18.909 49.677.001 68.587 9.16 9.16 21.339 14.205 34.293 14.205s25.134-5.045 34.292-14.203l.71-.71c4.872-4.873 4.872-12.802 0-17.676zm15.908 68.499c-8.948 0-17.36-3.484-23.687-9.811-12.707-12.706-13.051-33.163-1.037-46.291l47.327 47.328c-6.187 5.669-14.156 8.774-22.603 8.774M144.004 463.002c0 5.514 4.486 10 10 10s10-4.486 10-10-4.486-10-10-10-10 4.486-10 10M222.001 470.002c0 5.514 4.486 10 10 10 5.513 0 10-4.486 10-10s-4.486-10-10-10-10 4.486-10 10M224.001 350.006c-5.513 0-10 4.486-10 10s4.486 10 10 10 10-4.486 10-10-4.486-10-10-10M356.996 360.006c-5.513 0-10 4.486-10 10s4.486 10 10 10 10-4.486 10-10-4.486-10-10-10M136.005 339.007c0 5.514 4.486 10 10 10 5.513 0 10-4.486 10-10s-4.486-10-10-10-10 4.486-10 10M356.496 458.002c-5.513 0-10 4.486-10 10s4.486 10 10 10 10-4.486 10-10-4.486-10-10-10"/></svg>