<svg xmlns="http://www.w3.org/2000/svg" width="512" height="512"><path fill="#f0e5e0" d="M348.519 431.485h45.009c22.096 0 40.008-17.912 40.008-40.008V277.453c0-22.096-17.912-40.008-40.008-40.008h-45.009l8.002 30.006h32.007c8.286 0 15.003 6.717 15.003 15.003v104.022c0 8.286-6.717 15.003-15.003 15.003H353.52z"/><path fill="#fc8d94" d="m188.282 309.053-18.738-6.82a5 5 0 0 1-2.987-6.406L270.302 10.79a5 5 0 0 1 6.406-2.987l18.738 6.82a5 5 0 0 1 2.987 6.406L194.688 306.066a5 5 0 0 1-6.406 2.987"/><path fill="#faf2f3" d="M328.515 164.429H108.469L90.503 185.39a50 50 0 0 0-12.04 32.546v256.557c0 16.572 13.434 30.006 30.006 30.006h220.046c16.572 0 30.006-13.434 30.006-30.006V217.936a50 50 0 0 0-12.04-32.546z"/><path fill="#f0e5e0" d="M358.521 217.94v19.504s-9.472 5.891-30.006 13.643V217.94a50 50 0 0 0-12.043-32.547l-17.964-20.964h30.006l17.964 20.964a50 50 0 0 1 12.043 32.547"/><path fill="#e29a6c" d="M358.521 317.461v157.033c0 16.573-13.433 30.006-30.006 30.006H108.469c-16.573 0-30.006-13.433-30.006-30.006V267.451s80.327 50.01 280.058 50.01"/><path fill="#ce845c" d="M358.521 317.461v157.033c0 16.573-13.433 30.006-30.006 30.006h-30.006c16.573 0 30.006-13.433 30.006-30.006V317.071q14.523.39 30.006.39"/><path fill="#ce845c" d="M358.521 287.455v30.006c-199.732 0-280.059-50.01-280.059-50.01v-30.006c.001-.001 80.328 50.01 280.059 50.01"/><path fill="#be785a" d="M358.521 287.455v30.006q-15.483 0-30.006-.39v-30.006q14.523.39 30.006.39"/><path fill="#be785a" d="M358.521 237.444v50.01c-55.672 0-102.061-3.881-140.029-9.492 98.241-14.502 140.029-40.518 140.029-40.518"/><path fill="#ad6b53" d="M358.521 237.444v50.01c-10.322 0-20.314-.13-30.006-.38v-35.988c20.534-7.751 30.006-13.642 30.006-13.642"/><path fill="#6f6571" d="M334.016 493.498c0 3.861-.81 7.522-2.26 10.832-1.07.11-2.15.17-3.241.17H108.469c-1.09 0-2.17-.06-3.241-.17a27 27 0 0 1-2.26-10.832c0-7.462 3.021-14.203 7.912-19.094s11.632-7.912 19.094-7.912h.04c1.7 0 2.951-1.52 2.591-3.181-.41-1.88-.63-3.821-.63-5.821 0-7.462 3.021-14.203 7.912-19.094s11.632-7.912 19.094-7.912c3.031 0 5.951.5 8.672 1.43 1.4.47 2.941-.31 3.341-1.74a27 27 0 0 1 9.552-14.113 26.87 26.87 0 0 1 16.443-5.581c7.722 0 14.683 3.241 19.604 8.442a2.62 2.62 0 0 0 3.801 0 26.895 26.895 0 0 1 19.604-8.441c12.383 0 22.815 8.332 25.995 19.694.4 1.43 1.94 2.21 3.341 1.74a26.8 26.8 0 0 1 8.672-1.43c14.913 0 27.006 12.092 27.006 27.006 0 2-.22 3.941-.63 5.821-.36 1.66.89 3.181 2.591 3.181h.04c14.911-.001 27.003 12.092 27.003 27.005"/><path fill="#5d5360" d="M334.02 493.5c0 3.86-.81 7.52-2.26 10.83-1.07.11-2.15.17-3.24.17h-30c15.72 0 28.61-12.08 29.89-27.48a26.86 26.86 0 0 1 5.61 16.48"/><path fill="#f0e5e0" d="M323.514 74.41H113.47a5 5 0 0 0-5.001 5.001v25.005h220.046V79.411a5 5 0 0 0-5.001-5.001"/><path fill="#e2d6d1" d="M328.515 79.411v25.005h-30.006V79.411a5 5 0 0 0-5.001-5.001h30.006a5.003 5.003 0 0 1 5.001 5.001"/><path fill="#f0e5e0" d="M108.469 134.423h220.046v30.006H108.469z"/><path fill="#faf2f3" d="M328.515 104.416H108.469c-8.286 0-15.003 6.717-15.003 15.003s6.717 15.003 15.003 15.003h220.046c8.286 0 15.003-6.717 15.003-15.003 0-8.285-6.717-15.003-15.003-15.003"/><path fill="#f0e5e0" d="M343.518 119.42c0 8.282-6.721 15.003-15.003 15.003h-30.006c8.282 0 15.003-6.721 15.003-15.003 0-4.141-1.68-7.892-4.401-10.602a14.92 14.92 0 0 0-10.602-4.401h30.006c4.141 0 7.892 1.68 10.602 4.401a14.92 14.92 0 0 1 4.401 10.602M246.238 164.429 205.65 275.952a661 661 0 0 1-29.806-5.631l38.538-105.892z"/><path fill="#e2d6d1" d="m279.005 74.41-10.922 30.006h-31.857l10.922-30.006zM257.16 134.423l-10.922 30.006h-31.857l10.923-30.006z"/><path fill="#f0e5e0" d="m268.083 104.416-10.923 30.007h-31.856l10.922-30.007z"/><path fill="#e2d6d1" d="M298.509 134.423h30.006v30.006h-30.006z"/><g fill="#5d5360"><path d="M268.503 481.995c-5.515 0-10.002-4.487-10.002-10.002s4.487-10.002 10.002-10.002 10.002 4.487 10.002 10.002-4.487 10.002-10.002 10.002M218.492 481.995c-5.515 0-10.002-4.487-10.002-10.002s4.487-10.002 10.002-10.002 10.002 4.487 10.002 10.002-4.487 10.002-10.002 10.002M168.482 481.995c-5.515 0-10.002-4.487-10.002-10.002s4.487-10.002 10.002-10.002 10.002 4.487 10.002 10.002-4.487 10.002-10.002 10.002"/></g><path fill="#fff3d2" d="m326.192 386.011-14.145 14.145a5 5 0 0 1-7.073 0l-14.145-14.145a5 5 0 0 1 0-7.073l14.145-14.145a5 5 0 0 1 7.073 0l14.145 14.145a5 5 0 0 1 0 7.073M236.174 366.007l-14.145 14.145a5 5 0 0 1-7.073 0l-14.145-14.145a5 5 0 0 1 0-7.073l14.145-14.145a5 5 0 0 1 7.073 0l14.145 14.145a5 5 0 0 1 0 7.073M151.156 386.011l-14.145 14.145a5 5 0 0 1-7.073 0l-14.145-14.145a5 5 0 0 1 0-7.073l14.145-14.145a5 5 0 0 1 7.073 0l14.145 14.145a5 5 0 0 1 0 7.073"/><path d="M393.529 229.944h-27.507v-12.008a57.55 57.55 0 0 0-13.845-37.427l-16.161-18.854v-21.022c8.731-3.096 15.003-11.434 15.003-21.213s-6.272-18.117-15.003-21.213V79.411c0-6.893-5.608-12.501-12.501-12.501h-33.8l15.766-43.316c2.429-6.266-1.108-13.851-7.469-16.02L279.274.754c-6.473-2.357-13.66.994-16.018 7.47l-21.36 58.686H113.47c-6.893 0-12.501 5.608-12.501 12.501v18.795c-8.731 3.096-15.003 11.434-15.003 21.213s6.272 18.117 15.003 21.214v21.022l-16.161 18.854a57.55 57.55 0 0 0-13.845 37.427v256.557c0 20.681 16.825 37.506 37.506 37.506h23.294a7.5 7.5 0 0 0 0-15h-20.977a19.6 19.6 0 0 1-.319-3.502c0-10.755 8.75-19.505 19.532-19.505 6.301.173 11.44-6.168 9.928-12.292a19.7 19.7 0 0 1-.454-4.21c0-10.755 8.75-19.506 19.506-19.506 2.143 0 4.25.347 6.261 1.03 5.278 1.918 11.564-1.372 12.97-6.811 2.348-8.375 10.069-14.224 18.777-14.224 5.408 0 10.437 2.166 14.16 6.096 3.793 4.175 10.895 4.174 14.689.001 3.723-3.932 8.752-6.097 14.16-6.097 8.708 0 16.429 5.849 18.777 14.224 1.406 5.438 7.692 8.727 12.969 6.811a19.4 19.4 0 0 1 6.262-1.03c10.755 0 19.506 8.75 19.506 19.506 0 1.421-.153 2.837-.454 4.209-1.507 6.142 3.624 12.467 9.955 12.293 10.755 0 19.505 8.75 19.505 19.505 0 1.187-.117 2.355-.325 3.502h-159.42a7.5 7.5 0 0 0 0 15h161.744c20.681 0 37.506-16.825 37.506-37.506v-35.509h27.507c26.196 0 47.508-21.312 47.508-47.508V277.453c.001-26.197-21.311-47.509-47.507-47.509M85.963 249.783c28.301 13.309 110.454 44.165 265.059 45.139v15.011c-167.294-1.059-246.911-37.295-265.059-46.883zm128.629-107.86-5.462 15.006h-93.161v-15.006zm15.963 0h15.894l-5.462 15.006h-15.894zm26.816-30.007-5.462 15.006h-15.894l5.462-15.006zm-10.435-15 5.462-15.006h15.894l-5.462 15.006zm74.079 60.013H256.95l5.462-15.006h58.603zm-85.487 15-34.798 95.605a655 655 0 0 1-14.879-2.788l33.782-92.817zm115.494 107.997c-28.671-.181-56.054-1.394-82.056-3.629 41.702-9.345 68.279-19.998 82.056-26.49zm0-61.99v15.105c-11.747 6.182-53.325 25.54-132.649 37.358q-1.293-.192-2.581-.389l35.699-98.082h73.575l15.722 18.342a42.55 42.55 0 0 1 10.234 27.666m-22.507-91.013h-60.644l5.462-15.006h55.182c4.137 0 7.503 3.366 7.503 7.503 0 4.136-3.366 7.503-7.503 7.503m-7.5-45.013v15.006h-42.222l5.462-15.006zm-44.521-66.204 14.035 5.108-16.777 46.096h-15.894zM236.435 81.91l-5.462 15.006H115.969V81.91zm-127.966 30.006h117.045l-5.462 15.006H108.469c-4.137 0-7.503-3.366-7.503-7.503s3.366-7.503 7.503-7.503m-12.272 78.355 15.722-18.342h91.753l-32.635 89.664a556 556 0 0 1-19.579-4.784c-36.666-9.693-57.524-19.545-65.494-23.761v-15.112a42.53 42.53 0 0 1 10.233-27.665m254.825 284.223c0 7.576-3.766 14.284-9.52 18.365-.309-16.874-12.785-30.831-29.045-33.431a35 35 0 0 0 .054-1.937c0-19.027-15.479-34.506-34.506-34.506a34.5 34.5 0 0 0-6.426.601c-5.442-12.337-17.816-20.605-31.582-20.605-7.819 0-15.432 2.702-21.504 7.53-6.072-4.829-13.685-7.53-21.504-7.53-13.766 0-26.139 8.268-31.581 20.605a34.5 34.5 0 0 0-6.427-.601c-19.026 0-34.505 15.479-34.505 34.506q0 .967.054 1.931c-16.243 2.586-28.736 16.549-29.045 33.436-5.754-4.081-9.52-10.789-9.52-18.364V279.786c28.269 13.276 110.539 44.173 265.059 45.148v149.56zm75.015-83.017c0 17.925-14.583 32.508-32.508 32.508h-27.507v-15.006h22.506c12.408 0 22.503-10.095 22.503-22.503v-4.495a7.5 7.5 0 0 0-15 0v4.495c0 4.137-3.366 7.503-7.503 7.503h-22.506V274.951h22.506c4.137 0 7.503 3.366 7.503 7.503v64.52a7.5 7.5 0 0 0 15 0v-64.52c0-12.408-10.095-22.503-22.503-22.503h-22.506v-15.006h27.507c17.925 0 32.508 14.583 32.508 32.508z"/><path d="M278.503 471.993c0-5.514-4.486-10-10-10s-10 4.486-10 10 4.486 10.001 10 10.001 10-4.487 10-10.001M228.493 471.993c0-5.514-4.486-10-10-10s-10 4.486-10 10 4.486 10.001 10 10.001 10-4.487 10-10.001M168.482 481.994c5.514 0 10.001-4.486 10.001-10.001s-4.486-10-10.001-10-10.001 4.486-10.001 10 4.486 10.001 10.001 10.001M317.35 359.489c-4.874-4.873-12.805-4.873-17.679 0l-14.145 14.145c-4.85 4.653-4.851 13.026 0 17.68l14.145 14.145c4.874 4.874 12.805 4.874 17.679 0l14.145-14.145c4.85-4.653 4.849-13.027 0-17.679zm-8.839 33.596-10.611-10.61 10.611-10.611 10.611 10.611zM227.332 339.486c-4.653-4.85-13.027-4.849-17.679 0l-14.146 14.146c-4.873 4.874-4.873 12.804 0 17.679l14.146 14.145c4.874 4.874 12.804 4.873 17.679 0l14.145-14.145c4.875-4.874 4.875-12.805 0-17.679zm-8.84 33.595-10.611-10.611 10.611-10.611 10.611 10.611zM142.313 359.489c-4.874-4.873-12.805-4.873-17.679 0l-14.145 14.145c-4.85 4.653-4.851 13.026 0 17.68l14.145 14.145c4.874 4.874 12.805 4.874 17.679 0l14.145-14.145c4.85-4.653 4.849-13.027 0-17.679zm-8.838 33.596-10.611-10.611 10.611-10.611 10.611 10.611z"/></svg>