<svg xmlns="http://www.w3.org/2000/svg" width="512" height="512"><path fill="#6f6571" d="m282.878 275.32 92.555-254.292a5 5 0 0 0-2.987-6.406l-18.738-6.82a5 5 0 0 0-6.406 2.987l-94.129 258.618z"/><path fill="#cdf2f9" d="M204.066 504.5h103.867c19.852 0 36.7-14.559 39.577-34.201L382.5 231.5h-253l34.989 238.799c2.878 19.642 19.726 34.201 39.577 34.201"/><path fill="#b1f1f1" d="m382.5 231.5-20.6 140.57c-2.2-8.94-10.27-15.57-19.89-15.57h-2.94c-1.72 0-3.39.23-4.98.67L352.5 231.5z"/><path fill="#71ddf9" d="M382.367 186.5H129.633a15 15 0 0 0-14.868 13.018l-2.755 20.661c-.799 5.995 3.864 11.322 9.912 11.322h268.156c6.048 0 10.712-5.327 9.912-11.322l-2.755-20.661a15 15 0 0 0-14.868-13.018"/><path fill="#23c7f7" d="M390.08 231.5h-30c6.05 0 10.71-5.33 9.91-11.32l-2.75-20.66c-.99-7.41-7.28-12.96-14.74-13.02h30c7.46.06 13.75 5.61 14.74 13.02l2.75 20.66c.8 5.99-3.86 11.32-9.91 11.32"/><path fill="#faf2f3" d="M256 47.5c-69.864 0-126.5 56.636-126.5 126.5v12.5h253V174c0-69.864-56.636-126.5-126.5-126.5"/><path fill="#f0e5e0" d="M382.5 174v12.5h-30V174c0-64.79-48.71-118.2-111.5-125.62 4.92-.58 9.93-.88 15-.88 69.86 0 126.5 56.64 126.5 126.5"/><path fill="#fff" d="M314.5 141.5c0-8.284-6.716-15-15-15h-6.641a32.89 32.89 0 0 1-27.996-15.627l-4.608-7.472c-1.953-3.167-6.558-3.167-8.512 0l-4.608 7.472a32.89 32.89 0 0 1-27.996 15.627h-6.645c-8.283 0-14.997 6.715-14.996 14.998.001 8.285-6.715 15.002-15 15.002s-15 6.716-15 15v15h177v-15c0-8.284-6.716-15-15-15-8.282 0-14.998-6.716-14.998-15"/><path fill="#b1f1f1" d="M314.5 276.5c0 8.284-6.716 15-15 15h-6.641a32.89 32.89 0 0 0-27.996 15.627l-4.608 7.472c-1.953 3.167-6.558 3.167-8.512 0l-4.608-7.472a32.89 32.89 0 0 0-27.996-15.627h-6.645c-8.283 0-14.997-6.715-14.996-14.998.001-8.285-6.715-15.002-15-15.002s-15-6.716-15-15v-15h177v15c0 8.284-6.716 15-15 15-8.282 0-14.998 6.716-14.998 15"/><path fill="#71ddf9" d="m361.9 372.07-14.39 98.23c-2.88 19.64-19.72 34.2-39.58 34.2H204.07c-19.86 0-36.7-14.56-39.58-34.2l-14.39-98.23c2.2-8.94 10.27-15.57 19.89-15.57h2.94c9.35 0 17.31 6.82 18.74 16.06l.22 1.39c1.33 8.56 8.7 14.88 17.36 14.88h1.2c7.63 0 14.39-4.93 16.73-12.19l3.75-11.68a25.5 25.5 0 0 1 24.28-17.7h1.58c11.08 0 20.89 7.15 24.28 17.7l3.75 11.68c2.34 7.26 9.1 12.19 16.73 12.19h1.2c8.66 0 16.03-6.32 17.36-14.88l.22-1.39c1.43-9.24 9.39-16.06 18.74-16.06h2.94c9.62 0 17.69 6.63 19.89 15.57"/><path fill="#23c7f7" d="m361.9 372.07-14.39 98.23c-2.88 19.64-19.72 34.2-39.58 34.2h-30c19.86 0 36.7-14.56 39.58-34.2l16.58-113.13c1.59-.44 3.26-.67 4.98-.67h2.94c9.62 0 17.69 6.63 19.89 15.57"/><path d="m407.425 219.187-2.754-20.661c-1.132-8.487-6.98-15.37-14.67-18.168V174c0-32.567-11.683-62.453-31.071-85.7l23.551-64.706c2.357-6.475-.993-13.662-7.469-16.02L356.274.754c-6.474-2.358-13.66.994-16.018 7.47L322.291 57.58C302.731 46.398 280.099 40 256 40c-73.888 0-134 60.112-134 134v6.359c-7.69 2.797-13.538 9.68-14.67 18.168l-2.755 20.661a17.499 17.499 0 0 0 17.347 19.813h1.097l34.049 232.386C160.461 494.54 180.666 512 204.067 512h103.867c23.401 0 43.606-17.46 46.999-40.614L388.982 239h1.097c5.044 0 9.844-2.177 13.167-5.972a17.5 17.5 0 0 0 4.179-13.841M353.494 15.706l14.035 5.108-20.126 55.296a135 135 0 0 0-12.206-10.131zM256 55c65.617 0 119 53.383 119 119v5h-23v-7.5c0-12.407-10.093-22.5-22.5-22.5-4.136 0-7.5-3.364-7.5-7.5 0-12.407-10.093-22.5-22.5-22.5h-6.641c-8.875 0-16.954-4.51-21.612-12.063l-4.607-7.472c-4.489-7.829-16.791-7.828-21.279 0l-4.607 7.472C236.095 114.49 228.015 119 219.141 119h-6.645c-6.009 0-11.659 2.34-15.908 6.59S190 135.49 190 141.499c0 2.003-.78 3.887-2.196 5.304A7.45 7.45 0 0 1 182.5 149c-12.407 0-22.5 10.093-22.5 22.5v7.5h-23v-5c0-65.617 53.384-119 119-119m84.091 414.211C337.77 485.054 323.945 497 307.934 497H204.067c-16.011 0-29.836-11.946-32.157-27.789l-14.152-96.585A13.01 13.01 0 0 1 169.99 364h2.94c5.693 0 10.458 4.083 11.332 9.734l.217 1.367c1.911 12.301 12.328 21.229 24.771 21.229h1.2c10.923 0 20.515-6.988 23.871-17.397l3.75-11.679a17.95 17.95 0 0 1 17.139-12.494h1.58a17.95 17.95 0 0 1 17.139 12.493l3.753 11.689a25.01 25.01 0 0 0 23.868 17.389h1.2c12.442 0 22.859-8.928 24.768-21.207l.224-1.417A11.4 11.4 0 0 1 339.07 364h2.94c5.511 0 10.41 3.506 12.232 8.628zm16.967-115.801A27.9 27.9 0 0 0 342.01 349h-2.94c-13.144 0-24.142 9.426-26.147 22.386l-.224 1.412c-.768 4.943-4.952 8.532-9.949 8.532h-1.2a10.05 10.05 0 0 1-9.589-6.982l-3.75-11.682a32.9 32.9 0 0 0-31.42-22.906h-1.58a32.9 32.9 0 0 0-31.421 22.908l-3.747 11.671a10.05 10.05 0 0 1-9.592 6.991h-1.2c-4.997 0-9.181-3.588-9.952-8.554l-.216-1.363C197.072 358.426 186.073 349 172.93 349h-2.94a27.9 27.9 0 0 0-15.047 4.408L138.179 239H160v7.5c0 12.407 10.093 22.5 22.5 22.5 2.003 0 3.887.78 5.304 2.197s2.196 3.301 2.196 5.304c0 6.009 2.339 11.659 6.588 15.909s9.899 6.59 15.908 6.59h6.645c8.875 0 16.954 4.51 21.612 12.063l4.607 7.472c4.489 7.829 16.791 7.828 21.279 0l4.607-7.472C275.906 303.51 283.985 299 292.86 299h6.641c12.407 0 22.5-10.093 22.5-22.5 0-4.136 3.364-7.5 7.5-7.5 12.407 0 22.5-10.093 22.5-22.5V239h21.821zm34.901-130.263a2.48 2.48 0 0 1-1.881.853H202.5a7.5 7.5 0 0 0 0 15H337v7.5c0 4.136-3.364 7.5-7.5 7.5-12.407 0-22.5 10.093-22.5 22.5 0 4.136-3.364 7.5-7.5 7.5h-6.641c-14.117 0-26.97 7.174-34.38 19.19L256 307.211l-2.48-4.021c-7.41-12.017-20.263-19.19-34.38-19.19h-6.645c-2.002 0-3.885-.78-5.301-2.196S205 278.505 205 276.503c0-6.011-2.339-11.662-6.589-15.912S188.511 254 182.5 254c-4.136 0-7.5-3.364-7.5-7.5v-15a7.5 7.5 0 0 0-7.5-7.5h-45.578c-1.851-.278-2.448-.959-2.479-2.831l2.755-20.661c.495-3.71 3.691-6.509 7.435-6.509H309.5a7.5 7.5 0 0 0 0-15H175v-7.5c0-4.136 3.364-7.5 7.5-7.5 6.011 0 11.661-2.341 15.911-6.591S205 147.507 205 141.496c-.084-4.03 3.467-7.58 7.496-7.497h6.645c14.117 0 26.97-7.174 34.38-19.19l2.48-4.021 2.479 4.021c7.41 12.017 20.263 19.19 34.38 19.19h6.641c4.136 0 7.5 3.364 7.5 7.5 0 12.407 10.093 22.5 22.5 22.5 4.136 0 7.5 3.364 7.5 7.5v15a7.5 7.5 0 0 0 7.5 7.5h37.867c3.744 0 6.939 2.798 7.435 6.509l2.754 20.661a2.48 2.48 0 0 1-.598 1.978"/><path d="M202 427c-5.514 0-10 4.486-10 10s4.486 10 10 10 10-4.486 10-10-4.486-10-10-10M256 392c-5.514 0-10 4.486-10 10s4.486 10 10 10 10-4.486 10-10-4.486-10-10-10M256 462c-5.514 0-10 4.486-10 10s4.486 10 10 10 10-4.486 10-10-4.486-10-10-10M310 427c-5.514 0-10 4.486-10 10s4.486 10 10 10 10-4.486 10-10-4.486-10-10-10"/></svg>