<svg xmlns="http://www.w3.org/2000/svg" width="512" height="512"><path fill="#c3aff0" d="m279.168 271.198-18.725-6.815a4.98 4.98 0 0 1-2.977-6.385l89.98-247.219a4.98 4.98 0 0 1 6.385-2.977l18.725 6.815a4.98 4.98 0 0 1 2.977 6.385l-89.98 247.219a4.98 4.98 0 0 1-6.385 2.977"/><path fill="#ffe07d" d="M379.787 147.538c2.177-4.565 3.154-9.812 2.524-15.333-1.435-12.571-11.406-22.738-23.943-24.442a28.2 28.2 0 0 0-10.409.511c-1.277.307-2.514-.634-2.472-1.947q.013-.412.013-.827c0-15.464-12.536-28-28-28-3.321 0-6.504.583-9.458 1.646a2 2 0 0 1-2.614-1.335C302.086 66.086 291.297 57.5 278.5 57.5c-8.354 0-15.851 3.659-20.981 9.462a2.016 2.016 0 0 1-3.038 0c-5.13-5.802-12.628-9.462-20.981-9.462-12.797 0-23.586 8.586-26.928 20.311a2 2 0 0 1-2.614 1.335A27.9 27.9 0 0 0 194.5 77.5c-15.464 0-28 12.536-28 28q0 .416.013.828c.041 1.313-1.195 2.253-2.472 1.946a28.2 28.2 0 0 0-10.406-.511c-12.845 1.743-22.927 12.361-24.03 25.276-.57 6.68 1.207 12.923 4.597 17.997z"/><path fill="#ffd064" d="M381.34 143.5h-30c1.05-3.52 1.42-7.34.97-11.3-1.43-12.57-11.4-22.73-23.94-24.44a28.2 28.2 0 0 0-10.41.51c-1.28.31-2.51-.63-2.47-1.94.01-.28.01-.55.01-.83 0-15.46-12.54-28-28-28-3.32 0-6.5.58-9.46 1.65a2 2 0 0 1-2.61-1.34 28 28 0 0 0-11.93-15.95c4.34-2.76 9.48-4.36 15-4.36 12.8 0 23.59 8.59 26.93 20.31a2 2 0 0 0 2.61 1.34c2.96-1.07 6.14-1.65 9.46-1.65 15.46 0 28 12.54 28 28 0 .28 0 .55-.01.83-.04 1.31 1.19 2.25 2.47 1.94 3.28-.79 6.79-1 10.41-.51 12.54 1.71 22.51 11.87 23.94 24.44.45 3.96.08 7.78-.97 11.3"/><path fill="#fc8d94" d="M152.372 285.5h207.255a10 10 0 0 0 9.844-8.242L388 173.5H124l18.528 103.758a10 10 0 0 0 9.844 8.242"/><path fill="#f77289" d="m388 173.5-18.53 103.76c-.85 4.77-5 8.24-9.84 8.24h-30c4.84 0 8.99-3.47 9.84-8.24L358 173.5z"/><path fill="#6f6571" d="M321.504 474.5H190.496c-7.673 0-14.109-5.791-14.917-13.422L157 285.5h198l-18.58 175.578c-.807 7.631-7.243 13.422-14.916 13.422"/><path fill="#5d5360" d="m355 285.5-18.58 175.58a15 15 0 0 1-14.92 13.42h-30a15 15 0 0 0 14.92-13.42L325 285.5z"/><path fill="#8c868e" d="M307.644 504.5H204.356a10 10 0 0 1-9.978-9.335L193 474.5h126l-1.378 20.665a10 10 0 0 1-9.978 9.335"/><path fill="#7a767c" d="m319 474.5-1.38 20.67a9.996 9.996 0 0 1-9.98 9.33h-30c5.27 0 9.63-4.08 9.98-9.33L289 474.5z"/><path fill="#ffc7ce" d="M389.5 143.5h-267c-8.284 0-15 6.716-15 15s6.716 15 15 15h267c8.284 0 15-6.716 15-15s-6.716-15-15-15"/><path fill="#f4b0be" d="M404.5 158.5c0 8.28-6.72 15-15 15h-30c8.28 0 15-6.72 15-15 0-4.14-1.68-7.89-4.4-10.6a2.4 2.4 0 0 0-.23-.22 14.9 14.9 0 0 0-10.37-4.18h30c4.14 0 7.89 1.68 10.6 4.4 2.72 2.71 4.4 6.46 4.4 10.6"/><path fill="#5d5360" d="M256 384.5c-17.397 0-31.5-14.103-31.5-31.5s14.103-31.5 31.5-31.5 31.5 14.103 31.5 31.5-14.103 31.5-31.5 31.5"/><circle cx="213" cy="229.5" r="10"/><circle cx="256" cy="206" r="10"/><circle cx="179" cy="253" r="10"/><path d="M412 158.5c0-12.241-9.828-22.223-22.006-22.487a36.5 36.5 0 0 0-.231-4.659c-1.835-16.084-14.33-28.842-30.385-31.022a36.5 36.5 0 0 0-4.62-.323l27.823-76.441a12.4 12.4 0 0 0-.417-9.545 12.4 12.4 0 0 0-7.043-6.454L356.396.754c-6.471-2.354-13.644.994-15.998 7.46l-22.491 61.795c-.136-.001-.27-.009-.407-.009-2.28 0-4.539.216-6.755.646C305.021 58.265 292.439 50 278.5 50a35.52 35.52 0 0 0-22.5 8.045A35.53 35.53 0 0 0 233.5 50c-13.939 0-26.521 8.265-32.245 20.646A35.4 35.4 0 0 0 194.5 70c-17.722 0-32.452 13.054-35.083 30.051a36 36 0 0 0-6.791.28c-16.271 2.208-29.096 15.696-30.494 32.07a36 36 0 0 0-.122 3.612c-12.18.261-22.01 10.244-22.01 22.487 0 10.732 7.555 19.728 17.625 21.962l17.521 98.114a17.47 17.47 0 0 0 15.091 14.278l17.885 169.014a22.44 22.44 0 0 0 17.831 19.662l.942 14.135c.611 9.16 8.281 16.335 17.461 16.335h103.289c9.182 0 16.852-7.176 17.461-16.336l.941-14.121a22.45 22.45 0 0 0 17.831-19.675l17.885-169.013a17.47 17.47 0 0 0 15.091-14.279l17.521-98.114C404.445 178.228 412 169.232 412 158.5M353.633 15.71l13.991 5.093-22.653 62.238a35.7 35.7 0 0 0-12.334-9.643zm-24.671 444.579a7.485 7.485 0 0 1-7.458 6.711H319a7.5 7.5 0 0 0-7.483 7l-1.378 20.667a2.506 2.506 0 0 1-2.494 2.333h-103.29a2.507 2.507 0 0 1-2.495-2.334L201.017 482H284c4.143 0 7.5-3.358 7.5-7.5s-3.357-7.5-7.5-7.5h-93.503a7.484 7.484 0 0 1-7.458-6.71L165.335 293h181.33zm33.127-184.35a2.5 2.5 0 0 1-2.461 2.061H152.372a2.5 2.5 0 0 1-2.461-2.061L132.958 181h246.085zM389.5 166h-267c-4.136 0-7.5-3.364-7.5-7.5s3.364-7.5 7.5-7.5h41.685a7.5 7.5 0 0 0 0-15h-27.163c-.018-.771-.01-1.545.056-2.323.806-9.438 8.193-17.21 17.566-18.482a20.7 20.7 0 0 1 7.644.372c6.122 1.629 12.403-3.772 11.712-10.066 0-11.304 9.196-20.5 20.5-20.5 2.372 0 4.7.405 6.919 1.203 5.004 1.918 11.004-1.155 12.366-6.336C216.28 71.113 224.387 65 233.5 65c5.87 0 11.469 2.525 15.362 6.929 3.596 4.258 10.679 4.257 14.275 0A20.52 20.52 0 0 1 278.5 65c9.113 0 17.22 6.113 19.716 14.868 1.361 5.182 7.367 8.253 12.365 6.335A20.4 20.4 0 0 1 317.5 85c11.304 0 20.5 9.196 20.5 20.5 0 .206-.004.41-.009.587-.369 6.085 5.866 11.038 11.721 9.479a20.7 20.7 0 0 1 7.646-.371c9.102 1.236 16.462 8.748 17.501 17.859.113.988.142 1.97.118 2.946H199.185a7.5 7.5 0 0 0 0 15H389.5c4.136 0 7.5 3.364 7.5 7.5s-3.364 7.5-7.5 7.5"/><circle cx="299" cy="229.5" r="10"/><circle cx="169" cy="206" r="10"/><circle cx="256" cy="253" r="10"/><circle cx="342" cy="206" r="10"/><circle cx="333" cy="253" r="10"/><path d="M256 392c21.505 0 39-17.495 39-39s-17.495-39-39-39-39 17.495-39 39 17.495 39 39 39m0-63c13.233 0 24 10.766 24 24s-10.767 24-24 24-24-10.766-24-24 10.766-24 24-24M277 437h-42a7.5 7.5 0 0 0 0 15h42c4.143 0 7.5-3.358 7.5-7.5s-3.357-7.5-7.5-7.5M292 407h-72a7.5 7.5 0 0 0 0 15h72c4.143 0 7.5-3.358 7.5-7.5s-3.357-7.5-7.5-7.5"/></svg>