<svg xmlns="http://www.w3.org/2000/svg" width="512" height="512"><path fill="#b3e59f" d="M218.969 63.174c-4.698-3.822-7.469-9.522-7.469-15.579v-9.094c0-17.121-13.879-31-31-31s-31 13.879-31 31v9.094c0 6.057-2.77 11.756-7.469 15.579-13.745 11.182-22.531 28.225-22.531 47.327 0 33.689 27.31 61 61 61s61-27.31 61-61c0-19.102-8.785-36.145-22.531-47.327"/><path fill="#9bcf84" d="M241.5 110.501c0 16.84-30 16.84-30 0 0-9.55-2.2-18.58-6.11-26.63a61.3 61.3 0 0 0-16.42-20.7c-4.7-3.82-7.47-9.52-7.47-15.58v-9.09c0-11.68-6.46-21.85-16-27.13 4.45-2.47 9.56-3.87 15-3.87 17.12 0 31 13.88 31 31v9.09c0 6.06 2.77 11.76 7.47 15.58a61.3 61.3 0 0 1 16.42 20.7 60.8 60.8 0 0 1 6.11 26.63"/><path fill="#ccf49f" d="M180.5 141.501c-17.121 0-31-13.879-31-31s13.879-31 31-31 31 13.879 31 31-13.879 31-31 31"/><path fill="#faf2f3" d="M180.5 290.512V464.5c0 22.091 17.909 40 40 40h132c22.091 0 40-17.909 40-40V282.251z"/><path fill="#f0e5e0" d="M392.5 419.5v45c0 22.09-17.91 40-40 40h-30c22.09 0 40-17.91 40-40v-6.26c17.25-4.44 30-20.11 30-38.74"/><path fill="#fff3d2" d="M392.5 270.251v-149.75c0-5.523-4.477-10-10-10h-192c-5.523 0-10 4.477-10 10v160.011z"/><path fill="#ffe6ae" d="M392.5 120.501v101.7c0-5.85-2.37-11.15-6.21-14.99a21.14 21.14 0 0 0-14.99-6.21c-3.14 0-6.12.68-8.8 1.91v-82.41c0-5.52-4.48-10-10-10h30c5.52 0 10 4.48 10 10"/><path fill="#e29a6c" d="M392.5 280.251V419.5c0 22.09-17.91 40-40 40h-132c-22.09 0-40-17.91-40-40V280.25z"/><path fill="#ce845c" d="M392.5 315.921V419.5c0 18.63-12.75 34.3-30 38.74V335.21c2.68 1.23 5.66 1.91 8.8 1.91 5.86 0 11.16-2.38 14.99-6.21a21.13 21.13 0 0 0 6.21-14.989"/><path fill="#ffe07d" d="M392.5 222.201v93.72c0 5.85-2.37 11.15-6.21 14.99a21.14 21.14 0 0 1-14.99 6.21c-11.71 0-21.2-9.5-21.2-21.2v-.84c0-5.85-2.37-11.15-6.21-14.99a21.14 21.14 0 0 0-14.99-6.21c-11.71 0-21.2 9.5-21.2 21.2v.84c0 5.85-2.37 11.15-6.21 14.99a21.14 21.14 0 0 1-14.99 6.21c-11.71 0-21.2-9.5-21.2-21.2v-.84c0-5.85-2.37-11.15-6.21-14.99a21.14 21.14 0 0 0-14.99-6.21c-11.71 0-21.2 9.5-21.2 21.2v.84c0 5.85-2.37 11.15-6.21 14.99a21.14 21.14 0 0 1-14.99 6.21c-11.71 0-21.2-9.5-21.2-21.2v-93.72c0-11.7 9.49-21.2 21.2-21.2 5.86 0 11.16 2.38 14.99 6.21 3.84 3.84 6.21 9.14 6.21 14.99v.84c0 11.7 9.49 21.2 21.2 21.2 5.86 0 11.16-2.38 14.99-6.21 3.84-3.84 6.21-9.14 6.21-14.99v-.84c0-11.7 9.49-21.2 21.2-21.2 5.86 0 11.16 2.38 14.99 6.21 3.84 3.84 6.21 9.14 6.21 14.99v.84c0 11.7 9.49 21.2 21.2 21.2 5.86 0 11.16-2.38 14.99-6.21 3.84-3.84 6.21-9.14 6.21-14.99v-.84c0-11.7 9.49-21.2 21.2-21.2 5.86 0 11.16 2.38 14.99 6.21a21.14 21.14 0 0 1 6.21 14.99"/><path fill="#ffd064" d="M392.5 222.201v93.72c0 5.85-2.37 11.15-6.21 14.99a21.14 21.14 0 0 1-14.99 6.21c-3.14 0-6.12-.68-8.8-1.91v-132.3c2.68-1.23 5.66-1.91 8.8-1.91 5.86 0 11.16 2.38 14.99 6.21a21.14 21.14 0 0 1 6.21 14.99"/><path fill="#fc8d94" d="m389.53 21.002-32.58 89.5h-31.79l36.29-99.72c.94-2.59 3.8-3.92 6.38-2.98l18.73 6.82a4.98 4.98 0 0 1 2.97 6.38"/><path fill="#ffe6ae" d="m356.95 110.501-45.39 124.73a21.1 21.1 0 0 1-3.86-12.19v-.84c0-5.85-2.37-11.15-6.21-14.99a21.13 21.13 0 0 0-9.53-5.49v-.01l33.2-91.21z"/><g fill="#6f6571"><path d="M226.5 429.5c-8.284 0-15-6.716-15-15s6.716-15 15-15 15 6.716 15 15c0 8.285-6.716 15-15 15M346.5 429.5c-8.284 0-15-6.716-15-15s6.716-15 15-15 15 6.716 15 15c0 8.285-6.716 15-15 15M286.5 429.5c-8.284 0-15-6.716-15-15s6.716-15 15-15 15 6.716 15 15c0 8.285-6.716 15-15 15"/></g><path d="M382.5 103h-14.83l28.911-79.432c2.425-6.258-1.108-13.833-7.46-15.999L370.396.754c-6.47-2.354-13.643.994-15.998 7.46L319.899 103h-71.328c-1.95-17.817-10.786-34.188-24.869-45.646-2.988-2.431-4.702-5.989-4.702-9.761V38.5C219 17.271 201.729 0 180.5 0S142 17.271 142 38.5v9.094c0 3.772-1.714 7.33-4.702 9.761C121.221 70.434 112 89.804 112 110.5c0 35.144 26.779 64.328 61 68.088V464.5c0 26.191 21.309 47.5 47.5 47.5 4.143 0 7.5-3.358 7.5-7.5s-3.357-7.5-7.5-7.5c-17.921 0-32.5-14.58-32.5-32.5v-10.406c8.504 7.994 19.936 12.906 32.5 12.906h132c12.564 0 23.996-4.912 32.5-12.906V464.5c0 17.92-14.579 32.5-32.5 32.5h-97c-4.143 0-7.5 3.358-7.5 7.5s3.357 7.5 7.5 7.5h97c26.191 0 47.5-21.309 47.5-47.5V264.35c0-4.142-3.357-7.5-7.5-7.5s-7.5 3.358-7.5 7.5v51.57c0 3.658-1.426 7.099-4.013 9.687a13.61 13.61 0 0 1-9.688 4.014c-7.555 0-13.7-6.146-13.7-13.7v-.84c0-7.665-2.985-14.872-8.406-20.293s-12.629-8.407-20.294-8.407c-15.825 0-28.699 12.875-28.699 28.7v.84c0 3.658-1.426 7.099-4.013 9.687a13.61 13.61 0 0 1-9.688 4.014c-7.555 0-13.7-6.146-13.7-13.7v-.84c0-7.665-2.985-14.872-8.406-20.293s-12.629-8.407-20.294-8.407c-15.825 0-28.699 12.875-28.699 28.7v.84c0 3.658-1.426 7.099-4.015 9.688a13.6 13.6 0 0 1-9.686 4.013c-7.555 0-13.7-6.146-13.7-13.7V222.2c0-7.554 6.146-13.7 13.7-13.7 3.659 0 7.099 1.425 9.687 4.014a13.6 13.6 0 0 1 4.014 9.686v.84c0 15.825 12.874 28.7 28.699 28.7 7.665 0 14.872-2.985 20.294-8.407 5.421-5.421 8.406-12.628 8.406-20.293v-.84c0-7.554 6.146-13.7 13.7-13.7a13.6 13.6 0 0 1 9.687 4.013 13.6 13.6 0 0 1 4.014 9.687v.84c0 15.825 12.874 28.7 28.699 28.7 7.665 0 14.872-2.985 20.294-8.407 5.421-5.421 8.406-12.628 8.406-20.293v-.84c0-7.554 6.146-13.7 13.7-13.7a13.6 13.6 0 0 1 9.687 4.013A13.6 13.6 0 0 1 385 222.2v7.15c0 4.142 3.357 7.5 7.5 7.5s7.5-3.358 7.5-7.5V120.5c0-9.649-7.851-17.5-17.5-17.5m-14.867-87.29 13.991 5.093L351.707 103h-15.845zm-54.992 194.624a28.7 28.7 0 0 0-5.847-8.428 29 29 0 0 0-5.387-4.239L330.403 118h15.845zM127 110.5c0-16.162 7.204-31.292 19.765-41.51C153.27 63.698 157 55.899 157 47.594V38.5c0-12.958 10.542-23.5 23.5-23.5S204 25.542 204 38.5v9.094c0 8.306 3.73 16.104 10.235 21.396 10.569 8.598 17.354 20.736 19.225 34.01h-15.188c-3.455-17.824-18.953-31-37.772-31-21.229 0-38.5 17.271-38.5 38.5 0 18.82 13.175 34.317 31 37.771v15.187c-25.934-3.671-46-26.075-46-52.958m46 10v12.255c-9.265-3.168-16-12.024-16-22.255 0-12.958 10.542-23.5 23.5-23.5 10.434 0 19.201 6.633 22.301 16H190.5c-9.649 0-17.5 7.851-17.5 17.5m28.7 224.12c7.665 0 14.872-2.986 20.292-8.406 5.422-5.421 8.408-12.628 8.408-20.294v-.84c0-7.554 6.146-13.7 13.699-13.7a13.6 13.6 0 0 1 9.687 4.013 13.61 13.61 0 0 1 4.014 9.688v.84c0 15.825 12.875 28.7 28.7 28.7 7.665 0 14.872-2.985 20.294-8.407 5.421-5.422 8.406-12.629 8.406-20.293v-.84c0-7.554 6.146-13.7 13.699-13.7a13.6 13.6 0 0 1 9.687 4.013 13.61 13.61 0 0 1 4.014 9.688v.84c0 15.825 12.875 28.7 28.7 28.7 4.865 0 9.543-1.207 13.7-3.471V419.5c0 17.92-14.579 32.5-32.5 32.5h-132c-17.921 0-32.5-14.58-32.5-32.5v-78.367a28.5 28.5 0 0 0 13.7 3.487m56.1-122.42v.84c0 3.658-1.425 7.099-4.014 9.687a13.6 13.6 0 0 1-9.687 4.013c-7.554 0-13.699-6.146-13.699-13.7v-.84c0-7.666-2.986-14.874-8.407-20.293-5.42-5.421-12.627-8.407-20.293-8.407a28.5 28.5 0 0 0-13.7 3.487V120.5c0-1.378 1.121-2.5 2.5-2.5h123.94l-27.483 75.511c-.152-.002-.304-.011-.457-.011-15.825 0-28.7 12.875-28.7 28.7m113.5-28.7c-15.825 0-28.7 12.875-28.7 28.7v.84c0 3.658-1.425 7.099-4.014 9.687a13.6 13.6 0 0 1-9.687 4.013 13.63 13.63 0 0 1-8.752-3.171L362.211 118H382.5c1.379 0 2.5 1.122 2.5 2.5v76.471a28.55 28.55 0 0 0-13.7-3.471"/><path d="M226.5 437c12.406 0 22.5-10.093 22.5-22.5S238.906 392 226.5 392 204 402.093 204 414.5s10.094 22.5 22.5 22.5m0-30c4.136 0 7.5 3.364 7.5 7.5s-3.364 7.5-7.5 7.5-7.5-3.364-7.5-7.5 3.364-7.5 7.5-7.5"/><circle cx="286.5" cy="369.5" r="10"/><circle cx="336.5" cy="369.5" r="10"/><circle cx="236.5" cy="369.5" r="10"/><path d="M346.5 437c12.406 0 22.5-10.093 22.5-22.5S358.906 392 346.5 392 324 402.093 324 414.5s10.094 22.5 22.5 22.5m0-30c4.136 0 7.5 3.364 7.5 7.5s-3.364 7.5-7.5 7.5-7.5-3.364-7.5-7.5 3.364-7.5 7.5-7.5M286.5 437c12.406 0 22.5-10.093 22.5-22.5S298.906 392 286.5 392 264 402.093 264 414.5s10.094 22.5 22.5 22.5m0-30c4.136 0 7.5 3.364 7.5 7.5s-3.364 7.5-7.5 7.5-7.5-3.364-7.5-7.5 3.364-7.5 7.5-7.5"/></svg>