<svg xmlns="http://www.w3.org/2000/svg" width="512" height="512"><path fill="#fff3d2" d="M331.119 504.5H180.878c-21.246 0-38.785-16.609-39.941-37.823L122.999 137.5h266L371.06 466.677c-1.156 21.214-18.695 37.823-39.941 37.823"/><path fill="#ffe6ae" d="m388.999 137.5-2.51 46h-30l2.51-46z"/><path fill="#ffc269" d="m386.489 183.5-15.43 283.18c-1.15 21.21-18.69 37.82-39.94 37.82h-150.24c-21.25 0-38.79-16.61-39.94-37.82l-15.43-283.18z"/><path fill="#ffa95f" d="m386.489 183.5-15.43 283.18c-1.15 21.21-18.69 37.82-39.94 37.82h-30c21.25 0 38.79-16.61 39.94-37.82l15.43-283.18z"/><path fill="#ffe07d" d="M377.523 395.5H134.474a10 10 0 0 1-9.986-9.462l-7.922-147c-.309-5.726 4.251-10.538 9.986-10.538h258.893c5.734 0 10.294 4.812 9.986 10.538l-7.922 147a10 10 0 0 1-9.986 9.462"/><path fill="#ffd064" d="m395.429 239.04-7.92 147c-.29 5.3-4.67 9.46-9.99 9.46h-30c5.32 0 9.7-4.16 9.99-9.46l7.92-147c.31-5.73-4.25-10.54-9.98-10.54h30c5.73 0 10.29 4.81 9.98 10.54"/><path fill="#fff3d2" d="M227.499 330.747V363h57v-32.253a90 90 0 0 0-26.926-64.2l-.172-.169a2 2 0 0 0-2.803 0l-.172.169a90 90 0 0 0-26.927 64.2"/><path fill="#fff" d="M185.999 313.5h20c27.614 0 50 22.386 50 50v3h-22c-27.614 0-50-22.386-50-50v-1a2 2 0 0 1 2-2M325.999 313.5h-20c-27.614 0-50 22.386-50 50v3h22c27.614 0 50-22.386 50-50v-1a2 2 0 0 0-2-2"/><g fill="#6f6571"><circle cx="255.999" cy="459.5" r="15"/><circle cx="315.999" cy="439.5" r="15"/><circle cx="195.999" cy="439.5" r="15"/><path d="M401.288 107.5H110.71a5 5 0 0 0-4.956 5.661l1.51 11.322a15 15 0 0 0 14.868 13.018h267.734a15 15 0 0 0 14.868-13.018l1.51-11.322a5 5 0 0 0-4.956-5.661"/></g><path fill="#5d5360" d="m406.249 113.16-1.51 11.32c-1 7.45-7.35 13.02-14.87 13.02h-30c7.52 0 13.87-5.57 14.87-13.02l1.51-11.32c.39-3-1.94-5.66-4.96-5.66h30c3.02 0 5.35 2.66 4.96 5.66"/><path fill="#fc8d94" d="M389.948 21.011 358.47 107.5h-31.821l35.2-96.718c.94-2.59 3.8-3.92 6.39-2.98l18.73 6.82a4.98 4.98 0 0 1 2.979 6.389"/><path fill="#ffe6ae" d="m347.549 137.5-16.74 46h-31.82l16.74-46z"/><path d="M277.987 374.004c31.705 0 57.498-25.793 57.498-57.498v-1c0-5.238-4.262-9.5-9.5-9.5h-19.999c-5.771 0-11.341.864-16.6 2.453-4.214-17.837-13.461-34.377-26.567-47.254l-.173-.17c-3.67-3.606-9.644-3.605-13.309-.007l-.179.176c-13.111 12.881-22.352 29.418-26.566 47.256a57.3 57.3 0 0 0-16.602-2.453h-20c-5.238 0-9.5 4.262-9.5 9.5v1c0 31.705 25.794 57.498 57.498 57.498zm42.263-52.998c-2.254 21.327-20.348 37.999-42.262 37.999h-14.263c2.254-21.327 20.348-37.999 42.262-37.999zm-64.262-45.239c9.818 11.004 16.576 24.6 19.435 39.071a57.9 57.9 0 0 0-19.434 20.327 57.9 57.9 0 0 0-19.434-20.327c2.859-14.474 9.615-28.069 19.433-39.071m-64.262 45.239h14.263c21.915 0 40.009 16.671 42.262 37.999h-14.263c-21.914 0-40.008-16.672-42.262-37.999M233.489 459.502c0 12.406 10.093 22.499 22.499 22.499s22.499-10.093 22.499-22.499-10.093-22.499-22.499-22.499-22.499 10.093-22.499 22.499m29.999 0c0 4.136-3.364 7.5-7.5 7.5s-7.5-3.364-7.5-7.5 3.364-7.5 7.5-7.5 7.5 3.364 7.5 7.5M315.986 462.001c12.406 0 22.499-10.093 22.499-22.499s-10.093-22.499-22.499-22.499-22.499 10.093-22.499 22.499 10.093 22.499 22.499 22.499m0-29.999c4.136 0 7.5 3.364 7.5 7.5s-3.364 7.5-7.5 7.5-7.5-3.364-7.5-7.5 3.365-7.5 7.5-7.5M173.491 439.502c0 12.406 10.093 22.499 22.499 22.499s22.499-10.093 22.499-22.499-10.093-22.499-22.499-22.499-22.499 10.093-22.499 22.499m29.999 0c0 4.136-3.364 7.5-7.5 7.5s-7.5-3.364-7.5-7.5 3.364-7.5 7.5-7.5 7.5 3.365 7.5 7.5"/><path d="M401.273 100.012h-32.106l27.817-76.427c2.349-6.472-1.002-13.65-7.464-15.997L370.785.767c-6.261-2.422-13.838 1.112-15.998 7.465l-33.402 91.78H110.703c-7.34-.169-13.528 6.899-12.39 14.152l1.509 11.321c1.197 8.978 7.668 16.167 16.018 18.617l4.26 78.163a17.5 17.5 0 0 0-6.257 4.206 17.58 17.58 0 0 0-4.772 12.978l.824 15.285a7.497 7.497 0 0 0 7.893 7.086 7.5 7.5 0 0 0 7.085-7.892l-.824-15.285c.169-1.788.72-2.369 2.496-2.635h258.886c1.776.265 2.327.846 2.496 2.635l-7.922 146.996a2.5 2.5 0 0 1-2.496 2.365H134.467a2.5 2.5 0 0 1-2.496-2.365l-5.213-96.72c-.224-4.138-3.755-7.295-7.893-7.086a7.5 7.5 0 0 0-7.085 7.892l5.213 96.72c.415 7.712 5.788 14.021 12.923 15.942l3.526 64.699C134.814 492.271 155.647 512 180.87 512h85.118a7.5 7.5 0 0 0 0-15H180.87c-17.258 0-31.512-13.499-32.451-30.731l-3.448-63.267h222.034l-3.448 63.267C362.618 483.502 348.364 497 331.106 497h-30.12a7.5 7.5 0 0 0 0 15h30.12c25.223 0 46.056-19.729 47.428-44.914l3.526-64.699c7.135-1.921 12.508-8.23 12.923-15.942l7.922-146.996a17.58 17.58 0 0 0-4.772-12.978 17.5 17.5 0 0 0-6.257-4.206l4.259-78.163c8.35-2.449 14.821-9.639 16.018-18.617l1.509-11.321c.996-7.464-2.615-14.152-12.389-14.152m-33.251-84.287 14.005 5.098-28.822 79.189h-15.858zM135.053 221.009l-1.635-29.999h245.139l-1.635 29.999zm244.322-44.999h-37.868l11.282-30.999h28.275zm-53.831 0h-15.856l11.282-30.999h15.857zm-31.819 0H132.601l-1.689-30.999h174.096zm103.561-52.507c-.495 3.711-3.691 6.509-7.434 6.509H122.125c-3.744 0-6.94-2.798-7.434-6.509l-1.132-8.491h284.859z"/></svg>