<svg xmlns="http://www.w3.org/2000/svg" width="512" height="512"><path fill="#c3aff0" d="M335.544 474.5H176.456c-12.773 0-23.491-9.628-24.857-22.327L124 195.5h264l-27.599 256.673c-1.366 12.699-12.084 22.327-24.857 22.327"/><path fill="#ad96ed" d="m364.25 416.38-3.85 35.79c-1.36 12.7-12.08 22.33-24.86 22.33h-30c12.78 0 23.5-9.63 24.86-22.33l2.73-25.4c3.17 1.76 6.79 2.75 10.46 2.75 4.77 0 10.2-1.68 13.68-4.53 2.72-2.23 5.47-5.18 6.98-8.61"/><path fill="#6f6571" d="m331.12 185.613 59.914-164.612a4.98 4.98 0 0 0-2.977-6.385l-18.725-6.815a4.98 4.98 0 0 0-6.385 2.977l-62.729 172.347z"/><path fill="#fc8d94" d="M376.8 158.198A33.4 33.4 0 0 0 379.5 145c0-18.501-14.999-33.5-33.5-33.5-2.14 0-4.231.209-6.259.593.493-2.287.759-4.658.759-7.093 0-18.501-14.999-33.5-33.5-33.5a33.33 33.33 0 0 0-18.916 5.854C283.94 63.556 271.147 53.5 256 53.5s-27.94 10.056-32.084 23.854A33.33 33.33 0 0 0 205 71.5c-18.501 0-33.5 14.999-33.5 33.5 0 2.435.266 4.806.759 7.093A33.6 33.6 0 0 0 166 111.5c-18.501 0-33.5 14.999-33.5 33.5 0 4.224.782 8.266 2.209 11.988z"/><path fill="#f77289" d="M379.5 145c0 4.69-.96 9.15-2.7 13.2l-29.94-.15c1.7-4.01 2.64-8.42 2.64-13.05 0-9.25-3.75-17.62-9.81-23.69-6.07-6.06-14.44-9.81-23.69-9.81-2.14 0-4.23.21-6.26.59.49-2.28.76-4.66.76-7.09 0-9.25-3.75-17.62-9.81-23.69a34 34 0 0 0-8.68-6.27c1.57-.8 3.22-1.46 4.92-2 3.18-1 6.56-1.54 10.07-1.54 9.25 0 17.62 3.75 23.69 9.81 6.06 6.07 9.81 14.44 9.81 23.69 0 2.43-.27 4.81-.76 7.09 2.03-.38 4.12-.59 6.26-.59 9.25 0 17.62 3.75 23.69 9.81 6.06 6.07 9.81 14.44 9.81 23.69"/><path fill="#faf2f3" d="m373.2 333.09-5.88 54.72v.04l-3.07 28.53c-1.51 3.43-4.26 6.38-6.98 8.61-3.48 2.85-8.91 4.53-13.68 4.53-9.53 0-18.74-6.73-20.61-16.08l-1.98-9.88c-.94-4.68-3.45-8.7-6.93-11.55a19.94 19.94 0 0 0-12.67-4.53c-9.54 0-17.74 6.73-19.61 16.08l-1.15 5.76c-1.18 5.87-4.34 10.92-8.71 14.5s-9.94 5.7-15.93 5.7c-11.98 0-22.29-8.46-24.64-20.2l-1.15-5.76c-.93-4.68-3.45-8.7-6.93-11.55s-7.91-4.53-12.68-4.53c-9.53 0-17.73 6.73-19.6 16.08l-1.98 9.88c-.94 4.68-3.46 8.7-6.93 11.55-3.48 2.85-9.91 4.53-14.68 4.53-8.38 0-16.52-5.21-19.62-12.82l-3.11-28.85v-.04l-5.88-54.72A22.15 22.15 0 0 0 160 348.8c5.28 0 10.2-1.86 14.05-5.02s6.65-7.62 7.69-12.8l2.19-10.96c2.07-10.36 11.17-17.82 21.74-17.82 5.29 0 10.2 1.86 14.06 5.02 3.85 3.16 6.65 7.62 7.68 12.8l1.28 6.39c2.6 13.02 14.03 22.39 27.31 22.39 6.64 0 12.82-2.34 17.66-6.31s8.35-9.57 9.65-16.08l1.28-6.39c2.07-10.36 11.17-17.82 21.74-17.82 5.29 0 10.2 1.86 14.06 5.02 3.85 3.16 6.65 7.62 7.68 12.8l2.19 10.96c2.08 10.36 11.18 17.82 21.74 17.82 5.28 0 10.2-1.86 14.06-5.02a22.04 22.04 0 0 0 7.14-10.69"/><path fill="#f0e5e0" d="m373.2 333.09-5.88 54.72v.04l-3.07 28.53c-1.51 3.43-4.26 6.38-6.98 8.61-3.48 2.85-8.91 4.53-13.68 4.53-3.67 0-7.29-.99-10.46-2.75l8.65-80.47a22 22 0 0 0 10.22 2.5c5.28 0 10.2-1.86 14.06-5.02a22.04 22.04 0 0 0 7.14-10.69"/><path fill="#ad96ed" d="M317.467 504.5H194.533c-7.897 0-14.441-6.123-14.967-14.002L178.5 474.5h155l-1.067 15.998c-.525 7.879-7.069 14.002-14.966 14.002"/><path fill="#9b89e0" d="m333.5 474.5-1.07 16c-.52 7.88-7.07 14-14.96 14h-30c7.89 0 14.44-6.12 14.96-14l1.07-16z"/><path fill="#faf2f3" d="M394.078 150.5H117.922c-6.048 0-10.712 5.327-9.912 11.322l3.333 25a10 10 0 0 0 9.912 8.678h269.49a10 10 0 0 0 9.912-8.678l3.333-25c.8-5.995-3.864-11.322-9.912-11.322"/><path fill="#f0e5e0" d="m403.99 161.82-3.33 25c-.67 4.97-4.9 8.68-9.92 8.68h-30c5.02 0 9.25-3.71 9.92-8.68l3.33-25c.8-5.99-3.86-11.32-9.91-11.32h30c6.05 0 10.71 5.33 9.91 11.32"/><path fill="#ffc7ce" d="m388 195.5-14.8 137.59a22.04 22.04 0 0 1-7.14 10.69A22.16 22.16 0 0 1 352 348.8c-10.56 0-19.66-7.46-21.74-17.82l-2.19-10.96a22.13 22.13 0 0 0-7.68-12.8 22.14 22.14 0 0 0-14.06-5.02c-10.57 0-19.67 7.46-21.74 17.82l-1.28 6.39c-1.3 6.51-4.81 12.11-9.65 16.08s-11.02 6.31-17.66 6.31c-13.28 0-24.71-9.37-27.31-22.39l-1.28-6.39a22.13 22.13 0 0 0-7.68-12.8 22.14 22.14 0 0 0-14.06-5.02c-10.57 0-19.67 7.46-21.74 17.82l-2.19 10.96c-1.04 5.18-3.84 9.64-7.69 12.8s-8.77 5.02-14.05 5.02c-9.84 0-18.4-6.46-21.2-15.71L124 195.5z"/><path fill="#f4b0be" d="m388 195.5-14.8 137.59a22.04 22.04 0 0 1-7.14 10.69A22.16 22.16 0 0 1 352 348.8a22 22 0 0 1-10.22-2.5L358 195.5z"/><g fill="#6f6571"><circle cx="253.5" cy="270.5" r="15"/><circle cx="332" cy="240.5" r="15"/><circle cx="180" cy="240.5" r="15"/></g><path d="M394.13 142.999h-7.127c-.686-14.204-8.633-26.533-20.201-33.349l31.33-86.083c2.428-6.256-1.109-13.836-7.459-15.999L371.949.753c-6.467-2.352-13.645.992-15.999 7.46l-23.519 64.618c-6.987-5.524-15.802-8.832-25.38-8.832a40.9 40.9 0 0 0-15.26 2.937c-7.161-12.654-20.826-20.937-35.74-20.937s-28.58 8.282-35.74 20.937a40.9 40.9 0 0 0-15.26-2.937c-22.289 0-40.481 17.879-40.989 40.048-21.025 1.008-37.947 17.928-38.962 38.952h-7.127c-10.277-.237-18.94 9.658-17.347 19.813l3.334 25c.971 7.281 6.405 13.039 13.301 14.693l8.65 80.443c.426 4.133 4.212 7.115 8.259 6.655a7.5 7.5 0 0 0 6.655-8.259l-8.424-78.345h247.301l-13.816 128.49a14.5 14.5 0 0 1-4.525 6.487c-8.127 7.032-21.861 2.139-23.694-8.467l-2.189-10.953c-2.491-13.566-15.292-24.063-29.096-23.857-14.097 0-26.333 10.03-29.094 23.846-.781 11.555-8.624 23.099-21.236 22.754-9.67 0-18.063-6.88-19.956-16.362l-1.278-6.381c-2.491-13.566-15.293-24.063-29.096-23.857-14.097 0-26.333 10.03-29.094 23.85l-2.189 10.954c-1.249 6.707-7.549 11.898-14.386 11.796-6.163 0-11.703-3.885-13.784-9.666-.014-.038-.032-.073-.046-.111l-1.652-15.367a7.5 7.5 0 0 0-8.259-6.655 7.5 7.5 0 0 0-6.655 8.259l14.539 135.215a32.44 32.44 0 0 0 27.315 28.638l.626 9.385c.785 11.777 10.647 21.003 22.45 21.003h122.934c11.804 0 21.665-9.226 22.45-21.003l.626-9.385a32.44 32.44 0 0 0 27.315-28.638l26.932-250.47c6.897-1.653 12.332-7.412 13.302-14.693l3.333-24.999c.91-10.361-5.357-19.813-17.349-19.813M369.184 15.71l13.991 5.093-30.481 83.745a41 41 0 0 0-4.654-.501 40.7 40.7 0 0 0-4.535-17.783zM166.051 118.999c1.607 0 3.245.155 4.865.462 5.083 1.114 9.969-3.898 8.726-8.95a26.2 26.2 0 0 1-.591-5.512c0-14.337 11.664-26 26-26a25.84 25.84 0 0 1 14.676 4.54c3.988 2.895 10.135.725 11.423-4.029 3.272-10.899 13.512-18.511 24.9-18.511 11.389 0 21.628 7.612 24.901 18.511 1.288 4.756 7.438 6.924 11.424 4.028a25.84 25.84 0 0 1 14.675-4.539c14.337 0 26 11.663 26 26 0 1.838-.199 3.692-.591 5.512-1.243 5.053 3.641 10.064 8.725 8.95a26.2 26.2 0 0 1 4.866-.462c13.663 0 24.89 10.595 25.916 24H140.135c1.026-13.405 12.253-24 25.916-24m-6 237.3a29.7 29.7 0 0 0 18.808-6.723 29.8 29.8 0 0 0 10.286-17.128l2.19-10.96c2.61-15.39 26.185-15.356 28.772.003l1.279 6.387c3.289 16.468 17.868 28.421 34.665 28.421 19.377.418 34.45-16.163 35.944-34.811 1.365-6.831 7.415-11.789 14.386-11.789 6.831-.101 13.15 5.079 14.386 11.788l2.19 10.968c2.774 13.815 15.01 23.844 29.094 23.844 3.939 0 7.816-.815 11.415-2.314l-6.479 60.254c-2.46 4.349-7.611 7.899-13.346 7.78-6.201 0-12.147-4.509-13.257-10.053l-1.98-9.885c-2.346-12.597-14.149-22.28-26.952-22.103-13.062 0-24.402 9.298-26.965 22.111l-1.148 5.752a17.7 17.7 0 0 1-6.11 10.176 17.7 17.7 0 0 1-11.177 4.001c-8.373 0-15.642-5.96-17.285-14.167l-1.149-5.755c-2.31-12.587-14.175-22.304-26.966-22.118-13.056 0-24.392 9.298-26.954 22.107l-1.979 9.878c-1.303 6.793-7.126 9.947-14.257 10.056-5.079 0-10.128-3.054-12.3-7.347l-6.524-60.677a29.5 29.5 0 0 0 11.413 2.304M335.595 467h-24.773c-4.143 0-7.5 3.357-7.5 7.5s3.357 7.5 7.5 7.5h14.713l-.533 7.999c-.262 3.926-3.549 7.001-7.483 7.001H194.584c-3.935 0-7.222-3.075-7.483-7.001l-.533-7.999h89.254c4.143 0 7.5-3.357 7.5-7.5s-3.357-7.5-7.5-7.5h-99.315a17.47 17.47 0 0 1-17.4-15.629l-1.74-16.185a29 29 0 0 0 10.094 1.833c5.887 0 14.179-1.926 19.44-6.234a27.63 27.63 0 0 0 9.523-15.871l1.98-9.884c2.226-13.12 22.29-13.09 24.501-.003l1.151 5.766c3.042 15.196 16.498 26.227 31.994 26.227a32.73 32.73 0 0 0 20.683-7.397 32.73 32.73 0 0 0 11.312-18.833l1.15-5.759c2.232-13.114 22.286-13.098 24.502.003l1.979 9.878c2.521 12.604 14.543 22.108 27.965 22.108 3.755 0 7.617-.776 11.125-2.119l-1.771 16.47a17.47 17.47 0 0 1-17.4 15.629m61.012-306.171-3.333 25.001a2.506 2.506 0 0 1-2.478 2.169h-269.49a2.51 2.51 0 0 1-2.478-2.17l-3.334-25c.031-1.871.628-2.552 2.479-2.83H394.13c1.85.277 2.448.959 2.477 2.83"/><path d="M253.551 292.999c12.406 0 22.5-10.094 22.5-22.5s-10.094-22.5-22.5-22.5-22.5 10.094-22.5 22.5 10.093 22.5 22.5 22.5m0-30c4.136 0 7.5 3.364 7.5 7.5s-3.364 7.5-7.5 7.5-7.5-3.364-7.5-7.5c0-4.135 3.364-7.5 7.5-7.5M354.551 240.499c0-12.406-10.094-22.5-22.5-22.5s-22.5 10.094-22.5 22.5 10.094 22.5 22.5 22.5 22.5-10.093 22.5-22.5m-30 0c0-4.136 3.364-7.5 7.5-7.5s7.5 3.364 7.5 7.5-3.364 7.5-7.5 7.5-7.5-3.364-7.5-7.5M180.051 262.999c12.407 0 22.5-10.094 22.5-22.5s-10.093-22.5-22.5-22.5-22.5 10.094-22.5 22.5 10.093 22.5 22.5 22.5m0-30c4.136 0 7.5 3.364 7.5 7.5s-3.364 7.5-7.5 7.5-7.5-3.364-7.5-7.5 3.364-7.5 7.5-7.5"/></svg>