<svg xmlns="http://www.w3.org/2000/svg" width="512" height="512"><path fill="#faf2f3" d="M358 504.5H226c-22.091 0-40-17.909-40-40v-344c0-5.523 4.477-10 10-10h192c5.523 0 10 4.477 10 10v344c0 22.091-17.909 40-40 40"/><path fill="#f0e5e0" d="M398 419.5v45c0 22.09-17.91 40-40 40h-30c22.09 0 40-17.91 40-40v-6.26c17.25-4.44 30-20.11 30-38.74"/><path fill="#fff3d2" d="M358 459.5H226c-22.091 0-40-17.909-40-40v-299c0-5.523 4.477-10 10-10h192c5.523 0 10 4.477 10 10v299c0 22.091-17.909 40-40 40"/><path fill="#ffe6ae" d="M398 120.5v102.27c0-13.22-10.72-23.94-23.94-23.94-2.09 0-4.13.27-6.06.78V120.5c0-5.52-4.48-10-10-10h30c5.52 0 10 4.48 10 10"/><path fill="#ffe6ae" d="m362.46 110.5-27.53 75.64a23.787 23.787 0 0 0-18.009 6.17c-1.386 1.264-3.569.941-4.556-.654a24.1 24.1 0 0 0-8.305-8.106l26.59-73.05z"/><path fill="#fc8d94" d="M398 280.328V419.5c0 22.091-17.909 40-40 40H226c-22.091 0-40-17.909-40-40V280.328c0-13.214 10.468-24.357 23.681-24.497a23.8 23.8 0 0 1 13.539 4.027c1.708 1.143 4.055.197 4.563-1.794a23.9 23.9 0 0 1 6.577-11.304c4.31-4.15 10.16-6.7 16.61-6.7a23.8 23.8 0 0 1 14.783 5.121c1.53 1.206 3.75.639 4.578-1.124 3.821-8.137 12.09-13.767 21.669-13.767s17.849 5.631 21.669 13.769c.828 1.763 3.049 2.33 4.578 1.124a24 24 0 0 1 4.812-2.953c3.04-1.39 6.41-2.17 9.97-2.17 11.17 0 20.548 7.655 23.187 18.005.508 1.991 2.855 2.937 4.563 1.794a23.8 23.8 0 0 1 13.539-4.027c13.214.139 23.682 11.282 23.682 24.496"/><path fill="#f77289" d="M398 279.77V419.5c0 18.63-12.75 34.3-30 38.74V256.61c1.93-.51 3.96-.78 6.06-.78 13.22 0 23.94 10.72 23.94 23.94"/><path fill="#ffc7ce" d="M398 223.341v56.428c0-13.22-10.72-23.94-23.94-23.94-4.92 0-9.49 1.489-13.293 4.038-1.699 1.138-4.034.245-4.533-1.738-2.616-10.383-12.01-18.07-23.203-18.07-3.56 0-6.93.78-9.97 2.17a24 24 0 0 0-4.812 2.953c-1.53 1.206-3.751.639-4.578-1.124-3.821-8.138-12.09-13.769-21.669-13.769s-17.847 5.63-21.669 13.767c-.828 1.763-3.049 2.33-4.578 1.124a23.8 23.8 0 0 0-14.783-5.121c-6.45 0-12.3 2.55-16.61 6.7a23.93 23.93 0 0 0-6.594 11.369c-.499 1.983-2.835 2.877-4.533 1.738a23.8 23.8 0 0 0-13.293-4.037c-13.22 0-23.94 10.72-23.94 23.94v-56.428c0-13.289 10.581-24.473 23.87-24.511a23.8 23.8 0 0 1 13.988 4.474 3.003 3.003 0 0 0 4.591-1.437 23.96 23.96 0 0 1 6.872-9.976c4.19-3.63 9.66-5.83 15.65-5.83a23.83 23.83 0 0 1 16.109 6.246 2.982 2.982 0 0 0 4.547-.639c4.216-6.826 11.766-11.377 20.374-11.377 8.61 0 16.16 4.552 20.376 11.379a2.982 2.982 0 0 0 4.547.639 23.787 23.787 0 0 1 16.108-6.249c10.365 0 19.192 6.59 22.523 15.805a3.003 3.003 0 0 0 4.591 1.438 23.8 23.8 0 0 1 13.986-4.473c13.285.038 23.866 11.223 23.866 24.511"/><path fill="#f4b0be" d="M398 222.77v57c0-13.22-10.72-23.94-23.94-23.94-2.1 0-4.13.27-6.06.78v-57c1.93-.51 3.97-.78 6.06-.78 13.22 0 23.94 10.72 23.94 23.94"/><path fill="#ffc269" d="m362.459 110.5 32.574-89.498a4.98 4.98 0 0 0-2.977-6.385l-18.725-6.815a4.98 4.98 0 0 0-6.385 2.977L330.651 110.5z"/><path fill="#ccf49f" d="M119 191.5h7c33.137 0 60-26.863 60-60v-21h-12c-33.137 0-60 26.863-60 60v16a5 5 0 0 0 5 5M253 29.5h-7c-33.137 0-60 26.863-60 60v21h12c33.137 0 60-26.863 60-60v-16a5 5 0 0 0-5-5"/><path fill="#b3e59f" d="M258 34.5v16c0 33.14-26.86 60-60 60h-12v-2.75c24.35-7.64 42-30.38 42-57.25v-16c0-.75-.17-1.46-.46-2.1 5.81-1.88 12.02-2.9 18.46-2.9h7c2.76 0 5 2.24 5 5M119 29.5h7c33.137 0 60 26.863 60 60v21h-12c-33.137 0-60-26.863-60-60v-16a5 5 0 0 1 5-5"/><g fill="#f77289"><path d="m298.213 351.713-4.799-4.799a2 2 0 0 0-2.828 0l-4.799 4.799A30 30 0 0 0 277 372.926v5.147a30 30 0 0 0 8.787 21.213l4.799 4.799a2 2 0 0 0 2.828 0l4.799-4.799A30 30 0 0 0 307 378.073v-5.147a30 30 0 0 0-8.787-21.213M327.951 420.728l.592 6.761a2 2 0 0 0 2.167 1.818l6.761-.592a30 30 0 0 0 20.367-10.602l3.309-3.943a30 30 0 0 0 6.904-21.898l-.591-6.761a2 2 0 0 0-2.167-1.818l-6.761.592a30 30 0 0 0-20.367 10.602l-3.309 3.943a30 30 0 0 0-6.905 21.898M256.049 420.728l-.592 6.761a2 2 0 0 1-2.167 1.818l-6.761-.592a30 30 0 0 1-20.367-10.602l-3.309-3.943a30 30 0 0 1-6.904-21.898l.592-6.761a2 2 0 0 1 2.167-1.818l6.761.592a30 30 0 0 1 20.367 10.602l3.309 3.943a30 30 0 0 1 6.904 21.898"/></g><circle cx="242.5" cy="353.005" r="10"/><circle cx="240.5" cy="306.006" r="10"/><path d="M387.996 103.012h-14.83l28.909-79.429c2.428-6.256-1.109-13.836-7.459-15.999L375.893.769c-6.257-2.424-13.833 1.107-15.999 7.46l-34.498 94.783H240.36C255.68 90.628 265.5 71.7 265.5 50.514v-16c0-6.892-5.607-12.5-12.5-12.5h-7c-26.101 0-48.773 14.902-59.998 36.635-11.225-21.734-33.897-36.635-59.998-36.635h-7c-6.892 0-12.5 5.607-12.5 12.5v16c0 26.101 14.902 48.773 36.635 59.998-21.733 11.225-36.635 33.897-36.635 59.998v16c0 6.892 5.607 12.5 12.5 12.5h7c21.187 0 40.114-9.82 52.498-25.138v290.63c0 26.191 21.308 47.499 47.499 47.499 4.142 0 7.5-3.357 7.5-7.5s-3.357-7.5-7.5-7.5c-17.92 0-32.499-14.579-32.499-32.499v-10.406c8.503 7.994 19.935 12.906 32.499 12.906h131.996c12.564 0 23.996-4.912 32.499-12.906v10.406c0 17.92-14.579 32.499-32.499 32.499H261c-4.142 0-7.5 3.357-7.5 7.5s3.357 7.5 7.5 7.5h96.997c26.191 0 47.499-21.308 47.499-47.499V338.566c0-4.142-3.357-7.5-7.5-7.5s-7.5 3.357-7.5 7.5v80.937c0 17.92-14.579 32.499-32.499 32.499H226.001c-17.92 0-32.499-14.579-32.499-32.499V279.776c0-9.062 7.373-16.435 16.435-16.435 3.267 0 6.421.956 9.121 2.766a10.476 10.476 0 0 0 15.978-6.137 16.405 16.405 0 0 1 15.932-12.398 16.24 16.24 0 0 1 10.148 3.513 10.42 10.42 0 0 0 8.882 1.962 10.5 10.5 0 0 0 7.12-5.79c2.7-5.743 8.542-9.454 14.881-9.454s12.181 3.711 14.881 9.456a10.5 10.5 0 0 0 7.12 5.788c3.123.738 6.359.023 8.884-1.965a16.24 16.24 0 0 1 10.145-3.51c7.54 0 14.091 5.098 15.932 12.399a10.48 10.48 0 0 0 6.397 7.206c3.179 1.22 6.759.82 9.582-1.071a16.32 16.32 0 0 1 9.12-2.765c9.062 0 16.435 7.373 16.435 16.435v23.79c0 4.142 3.357 7.5 7.5 7.5s7.5-3.357 7.5-7.5V120.512c.001-9.65-7.85-17.5-17.499-17.5m0 15c1.379 0 2.5 1.121 2.5 2.5v75.484a31.24 31.24 0 0 0-16.435-4.652 31.2 31.2 0 0 0-13.698 3.136c-3.523-6.185-9.047-10.944-15.543-13.585l22.887-62.882zm-58.369 60.767a31.3 31.3 0 0 0-13.817 4.934 31 31 0 0 0-2.787-2.847l22.877-62.854h15.844zm43.502-163.053 13.991 5.093-29.916 82.194H341.36zM246 37.014h4.5v13.5c0 28.947-23.551 52.498-52.498 52.498h-4.5v-13.5c0-28.947 23.551-52.498 52.498-52.498m-124.496 13.5v-13.5h4.5c28.947 0 52.498 23.551 52.498 52.498v13.5h-4.5c-28.947 0-52.498-23.551-52.498-52.498m4.5 133.496h-4.5v-13.5c0-28.947 23.551-52.498 52.498-52.498h4.5v13.5c0 28.947-23.551 52.498-52.498 52.498m67.498-65.998h126.436l-20.286 55.736a31.7 31.7 0 0 0-7.653-.942c-9.294 0-17.888 4.003-23.812 10.908a31.33 31.33 0 0 0-17.219-5.139c-11.398 0-21.814 6.218-27.333 15.905a31.2 31.2 0 0 0-13.698-3.136 31.23 31.23 0 0 0-16.435 4.652v-64.484zm180.559 130.33c-4.321 0-8.543.877-12.448 2.564a31.39 31.39 0 0 0-28.583-18.333c-5.29 0-10.51 1.356-15.117 3.879-5.805-8.422-15.507-13.648-25.914-13.648s-20.111 5.226-25.914 13.648a31.6 31.6 0 0 0-15.117-3.879 31.39 31.39 0 0 0-28.583 18.333 31.3 31.3 0 0 0-12.448-2.564 31.23 31.23 0 0 0-16.435 4.652v-30.215c0-9.062 7.373-16.435 16.435-16.435 3.445 0 6.742 1.056 9.532 3.051 2.718 1.944 6.096 2.495 9.27 1.507 3.169-.985 5.636-3.348 6.767-6.479 2.345-6.488 8.558-10.847 15.461-10.847 4.1 0 8.029 1.522 11.059 4.286a10.45 10.45 0 0 0 8.514 2.636 10.46 10.46 0 0 0 7.467-4.875c3.023-4.894 8.254-7.816 13.991-7.816s10.967 2.922 13.99 7.814a10.46 10.46 0 0 0 7.468 4.877 10.45 10.45 0 0 0 8.513-2.635 16.38 16.38 0 0 1 11.06-4.287c6.903 0 13.117 4.359 15.461 10.846 1.132 3.133 3.599 5.495 6.767 6.48 3.174.988 6.554.437 9.268-1.505a16.3 16.3 0 0 1 9.534-3.053c9.062 0 16.435 7.373 16.435 16.435v30.215a31.2 31.2 0 0 0-16.433-4.652"/><path d="M269.5 372.931v5.146c0 10.016 3.9 19.434 10.983 26.517l4.799 4.799c3.705 3.703 9.73 3.703 13.435 0l4.799-4.799c7.083-7.083 10.983-16.5 10.983-26.517v-5.146c0-10.016-3.9-19.434-10.983-26.517l-4.799-4.799c-3.705-3.703-9.73-3.703-13.435 0l-4.799 4.799c-7.083 7.083-10.983 16.501-10.983 26.517m14.999 0c0-6.01 2.341-11.661 6.591-15.91l.909-.91.909.91a22.35 22.35 0 0 1 6.591 15.91v5.146c0 6.01-2.341 11.661-6.591 15.91l-.909.91-.909-.91a22.35 22.35 0 0 1-6.591-15.91zM321.069 428.149c.434 4.936 4.591 8.669 9.453 8.669q.416 0 .838-.037l6.761-.591c9.977-.873 19.019-5.58 25.457-13.254l3.309-3.942c6.439-7.674 9.505-17.394 8.632-27.372l-.593-6.764c-.458-5.218-5.082-9.083-10.291-8.632l-6.761.591c-9.977.873-19.019 5.58-25.457 13.254l-3.309 3.942c-6.439 7.672-9.505 17.393-8.632 27.371v.001zm19.529-24.495 3.309-3.942a22.35 22.35 0 0 1 15.274-7.952l1.282-.112.112 1.282a22.35 22.35 0 0 1-5.179 16.423l-3.309 3.942a22.35 22.35 0 0 1-15.274 7.952l-1.282.112-.112-1.283v.001a22.35 22.35 0 0 1 5.179-16.423M219.366 376.226c-5.223-.453-9.836 3.415-10.295 8.635l-.592 6.762c-.873 9.978 2.192 19.7 8.632 27.37l3.309 3.944c6.438 7.673 15.48 12.38 25.457 13.253l6.758.591q.422.036.838.036c4.865 0 9.022-3.732 9.457-8.671l.592-6.762v-.001c.873-9.977-2.192-19.698-8.632-27.37l-3.308-3.944c-6.438-7.673-15.48-12.38-25.457-13.253zm20.725 23.484 3.308 3.944a22.35 22.35 0 0 1 5.179 16.421l-.112 1.283-1.282-.112a22.35 22.35 0 0 1-15.274-7.951l-3.309-3.944a22.35 22.35 0 0 1-5.179-16.421l.112-1.283 1.282.112a22.36 22.36 0 0 1 15.275 7.951"/><circle cx="291.999" cy="313.006" r="10"/><circle cx="343.497" cy="306.006" r="10"/><circle cx="341.497" cy="353.005" r="10"/></svg>