<svg xmlns="http://www.w3.org/2000/svg" width="512" height="512"><path fill="#faf2f3" d="M181.639 231.25V464.5c0 22.091 17.909 40 40 40h132c22.091 0 40-17.909 40-40V231.25z"/><path fill="#f0e5e0" d="M393.639 419.5v45c0 22.09-17.91 40-40 40h-30c22.09 0 40-17.91 40-40v-6.26c17.25-4.44 30-20.11 30-38.74"/><path fill="#cdf2f9" d="M393.639 231.25V120.5c0-5.523-4.477-10-10-10h-192c-5.523 0-10 4.477-10 10v110.75z"/><path fill="#b1f1f1" d="M393.639 120.5V201h-30v-80.5c0-5.52-4.48-10-10-10h30c5.52 0 10 4.48 10 10"/><path fill="#71ddf9" d="M393.639 231v188.5c0 22.09-17.91 40-40 40h-132c-22.09 0-40-17.91-40-40V231z"/><path fill="#6f6571" d="m294.311 271.198-18.725-6.815a4.98 4.98 0 0 1-2.977-6.385l89.98-247.219a4.98 4.98 0 0 1 6.385-2.977l18.725 6.815a4.98 4.98 0 0 1 2.977 6.385l-89.98 247.219a4.98 4.98 0 0 1-6.385 2.977"/><path fill="#ad96ed" d="M185.178 106.964c13.668 13.668 35.829 13.668 49.497 0s13.668-35.829 0-49.497-35.829-13.668-49.497 0c-13.669 13.668-13.669 35.829 0 49.497M178.107 114.036c13.668 13.668 13.668 35.829 0 49.497s-35.829 13.668-49.497 0-13.668-35.829 0-49.497c13.667-13.669 35.828-13.669 49.497 0"/><path fill="#c3aff0" d="M185.178 114.036c-13.668 13.668-13.668 35.829 0 49.497s35.829 13.668 49.497 0 13.668-35.829 0-49.497c-13.668-13.669-35.829-13.669-49.497 0M178.107 106.964c-13.668 13.668-35.829 13.668-49.497 0s-13.668-35.829 0-49.497 35.829-13.668 49.497 0 13.668 35.829 0 49.497"/><path fill="#fff" d="M160.429 89.287c-11.716 11.716-11.716 30.711 0 42.426s30.711 11.716 42.426 0 11.716-30.711 0-42.426-30.71-11.716-42.426 0"/><path fill="#f7f7f7" d="M211.639 110.5c0 7.68-2.92 15.36-8.78 21.21-5.86 5.86-13.54 8.79-21.22 8.79-5.18 0-10.37-1.34-14.99-4.01a30.3 30.3 0 0 0 6.21-4.78c5.86-5.85 8.78-13.53 8.78-21.21s-2.92-15.36-8.78-21.21a30.3 30.3 0 0 0-6.21-4.78c4.62-2.67 9.81-4.01 14.99-4.01 7.68 0 15.36 2.93 21.22 8.79 5.86 5.85 8.78 13.53 8.78 21.21"/><path fill="#b1f1f1" d="m358.099 110.5-32.93 90.5h-31.81l32.94-90.5z"/><path fill="#23c7f7" d="m314.159 231.25-13.46 36.97a4.983 4.983 0 0 1-6.39 2.98l-18.72-6.82a4.976 4.976 0 0 1-2.98-6.38l9.74-26.75z"/><path fill="#cdf2f9" d="M243.318 294.36a17 17 0 0 0-1.676 1.991 17 17 0 0 0-1.676-1.991c-6.479-6.479-16.985-6.48-23.464 0-6.479 6.479-6.479 16.985 0 23.464a17 17 0 0 0 1.991 1.676 17 17 0 0 0-1.991 1.676c-6.479 6.479-6.479 16.985 0 23.464 6.48 6.48 16.985 6.479 23.464 0a16.6 16.6 0 0 0 1.676-1.991 17 17 0 0 0 1.676 1.991c6.48 6.48 16.985 6.479 23.464 0 6.48-6.48 6.48-16.985 0-23.464a17 17 0 0 0-1.991-1.676 17 17 0 0 0 1.991-1.676c6.48-6.48 6.48-16.985 0-23.464-6.479-6.48-16.984-6.48-23.464 0M335.318 374.36a17 17 0 0 0-1.676 1.991 17 17 0 0 0-1.676-1.991c-6.479-6.479-16.985-6.48-23.464 0-6.479 6.479-6.479 16.985 0 23.464a17 17 0 0 0 1.991 1.676 17 17 0 0 0-1.991 1.676c-6.479 6.479-6.479 16.985 0 23.464 6.48 6.48 16.985 6.479 23.464 0a16.6 16.6 0 0 0 1.676-1.991 17 17 0 0 0 1.676 1.991c6.48 6.48 16.985 6.479 23.464 0 6.48-6.48 6.48-16.985 0-23.464a17 17 0 0 0-1.991-1.676 17 17 0 0 0 1.991-1.676c6.48-6.48 6.48-16.985 0-23.464-6.479-6.48-16.984-6.48-23.464 0"/><path fill="#6f6571" d="M327.642 334.5c-8.284 0-15-6.716-15-15s6.716-15 15-15 15 6.716 15 15-6.716 15-15 15M247.642 414.5c-8.284 0-15-6.716-15-15s6.716-15 15-15 15 6.716 15 15-6.716 15-15 15"/><path fill="#fff" d="M181.642 201h212v30h-212z"/><path fill="#f7f7f7" d="M363.639 201h30v30h-30zM325.169 201l-10.92 30h-31.81l10.92-30z"/><path fill="#23c7f7" d="M393.639 231v188.5c0 18.63-12.75 34.3-30 38.74V231z"/><path d="M401.126 231.009V120.512c0-9.649-7.85-17.499-17.499-17.499h-14.83l28.91-79.431c2.353-6.468-.994-13.644-7.46-15.997L371.524.771c-6.256-2.43-13.835 1.109-15.999 7.459l-34.498 94.783h-74.051c9.068-16.186 6.74-37.085-7.01-50.835-15.994-15.993-41.664-16.545-58.334-1.663-16.669-14.882-42.339-14.33-58.335 1.663-15.994 15.994-16.545 41.667-1.664 58.335-14.881 16.668-14.33 42.341 1.664 58.335 8.286 8.285 19.168 12.427 30.051 12.427a42.53 42.53 0 0 0 20.785-5.418v288.645c0 26.191 21.308 47.499 47.499 47.499a7.5 7.5 0 0 0 7.5-7.5 7.5 7.5 0 0 0-7.5-7.5c-17.92 0-32.499-14.579-32.499-32.499v-10.406c8.503 7.994 19.935 12.906 32.499 12.906h131.996c12.564 0 23.996-4.912 32.499-12.906v10.406c0 17.92-14.579 32.499-32.499 32.499h-96.997a7.5 7.5 0 0 0-7.5 7.5 7.5 7.5 0 0 0 7.5 7.5h96.997c26.191 0 47.499-21.308 47.499-47.499V266.008c0-4.142-3.357-7.5-7.5-7.5s-7.5 3.357-7.5 7.5v153.495c0 17.92-14.579 32.499-32.499 32.499H221.632c-17.92 0-32.499-14.579-32.499-32.499V238.509h82.579l-6.163 16.933c-2.353 6.468.994 13.644 7.46 15.997l18.723 6.814c6.248 2.429 13.839-1.109 15.999-7.459l11.751-32.285h74.146a7.5 7.5 0 0 0 7.498-7.5m-17.499-112.997c1.379 0 2.5 1.121 2.5 2.5v72.998h-50.268l27.479-75.498zm-79.575 75.498 27.479-75.498h15.844l-27.479 75.498zm10.385 14.999-5.459 15h-15.844l5.46-15zM368.76 15.726l13.991 5.093-29.916 82.194h-15.844zM288.09 193.51h-98.957v-17.653a42.5 42.5 0 0 0 20.783 5.418c10.883 0 21.766-4.142 30.052-12.427 8.027-8.028 12.448-18.7 12.448-30.052 0-7.4-1.89-14.505-5.421-20.784h68.575zm-122.366-67.089c-8.773-8.772-8.773-23.045 0-31.817 4.386-4.387 10.147-6.58 15.909-6.58s11.524 2.193 15.91 6.58c8.773 8.772 8.773 23.045 0 31.817-8.771 8.772-23.047 8.774-31.819 0m63.636-7.07c10.722 10.721 10.722 28.168 0 38.889-10.721 10.723-28.169 10.721-38.888 0a27.46 27.46 0 0 1-6.499-10.328c6.427-.398 12.77-2.431 18.339-6.115l5.484 5.483a7.5 7.5 0 0 0 10.605-10.607l-5.482-5.482c3.683-5.569 5.716-11.912 6.115-18.339a27.5 27.5 0 0 1 10.326 6.499m0-56.566c10.577 10.576 10.713 27.693.421 38.446a42.4 42.4 0 0 0-13.247-4.408 37 37 0 0 0-3.616-6.989l5.483-5.483a7.5 7.5 0 0 0-10.607-10.607l-5.483 5.483a37 37 0 0 0-6.988-3.615 42.4 42.4 0 0 0-4.41-13.248c10.754-10.292 27.873-10.155 38.447.421m-95.455 0c10.721-10.722 28.169-10.72 38.888 0a27.5 27.5 0 0 1 6.499 10.329c-6.427.398-12.77 2.431-18.339 6.114l-5.484-5.483a7.5 7.5 0 0 0-10.606.001 7.5 7.5 0 0 0 .001 10.606l5.482 5.482c-3.683 5.569-5.716 11.912-6.115 18.339a27.44 27.44 0 0 1-10.327-6.498c-10.721-10.722-10.721-28.169.001-38.89m0 95.456c-10.577-10.576-10.713-27.693-.421-38.446a42.4 42.4 0 0 0 13.247 4.407 37.2 37.2 0 0 0 3.616 6.99l-5.483 5.483a7.5 7.5 0 0 0 10.607 10.607l5.483-5.483a37.2 37.2 0 0 0 6.987 3.615 42.4 42.4 0 0 0 4.412 13.248c-5.141 4.924-11.862 7.634-19.003 7.634-7.345-.001-14.251-2.861-19.445-8.055m55.228 65.268v-15h93.498l-5.46 15zm105.363 39.788-13.991-5.093 7.169-19.696h15.844zm30.444-39.788 5.46-15h55.727v15z"/><path d="M272.074 289.063c-8.263-8.261-21.083-9.257-30.442-2.983-9.362-6.272-22.181-5.278-30.443 2.983-8.262 8.263-9.257 21.083-2.983 30.443-6.273 9.36-5.279 22.18 2.983 30.443 8.261 8.26 21.081 9.256 30.443 2.983a24.07 24.07 0 0 0 13.407 4.061c6.17 0 12.338-2.349 17.036-7.045 8.262-8.263 9.257-21.083 2.983-30.443 6.272-9.359 5.278-22.179-2.984-30.442m-11.709 36.505c.46.335.82.635 1.102.917 3.546 3.545 3.546 9.312 0 12.857s-9.313 3.545-12.856 0a9 9 0 0 1-.912-1.097 7.5 7.5 0 0 0-6.063-3.091h-.004a7.5 7.5 0 0 0-6.062 3.085 9 9 0 0 1-.918 1.103c-3.543 3.545-9.311 3.545-12.856 0s-3.546-9.312 0-12.857a9.5 9.5 0 0 1 1.105-.92 7.5 7.5 0 0 0-.004-12.121 9 9 0 0 1-1.102-.917c-3.546-3.545-3.546-9.312 0-12.857s9.313-3.545 12.856 0c.283.282.583.643.918 1.103a7.5 7.5 0 0 0 6.062 3.085h.004a7.5 7.5 0 0 0 6.063-3.091c.331-.456.629-.814.912-1.097 3.543-3.545 9.311-3.545 12.856 0s3.546 9.312 0 12.857a9 9 0 0 1-1.102.917 7.5 7.5 0 0 0 .001 12.124M364.071 369.06c-8.263-8.262-21.084-9.258-30.442-2.983-9.362-6.273-22.181-5.278-30.443 2.983-8.262 8.263-9.257 21.083-2.983 30.443-6.273 9.36-5.279 22.18 2.983 30.443 8.262 8.26 21.08 9.256 30.443 2.983a24.07 24.07 0 0 0 13.407 4.061c6.17 0 12.338-2.349 17.036-7.045 8.262-8.263 9.257-21.083 2.983-30.443 6.273-9.359 5.278-22.178-2.984-30.442m-11.709 36.506c.46.335.82.635 1.102.917 3.546 3.545 3.546 9.312 0 12.857s-9.313 3.545-12.856 0a9 9 0 0 1-.912-1.097 7.5 7.5 0 0 0-6.063-3.091h-.004a7.5 7.5 0 0 0-6.062 3.085 9 9 0 0 1-.918 1.103c-3.543 3.545-9.311 3.545-12.856 0s-3.546-9.312 0-12.857a9.5 9.5 0 0 1 1.105-.92 7.5 7.5 0 0 0-.004-12.121 9 9 0 0 1-1.102-.917c-3.546-3.545-3.546-9.312 0-12.857s9.313-3.545 12.856 0c.283.282.583.643.918 1.103a7.5 7.5 0 0 0 6.062 3.085h.004a7.5 7.5 0 0 0 6.063-3.091c.331-.456.629-.814.912-1.097 3.543-3.545 9.311-3.545 12.856 0s3.546 9.312 0 12.857a9 9 0 0 1-1.102.917 7.5 7.5 0 0 0 .001 12.124M350.128 319.506c0-12.406-10.093-22.499-22.499-22.499S305.13 307.1 305.13 319.506s10.093 22.499 22.499 22.499 22.499-10.093 22.499-22.499m-29.999 0c0-4.136 3.364-7.5 7.5-7.5s7.5 3.364 7.5 7.5-3.364 7.5-7.5 7.5-7.5-3.364-7.5-7.5M225.132 399.504c0 12.406 10.093 22.499 22.499 22.499s22.499-10.093 22.499-22.499-10.093-22.499-22.499-22.499-22.499 10.093-22.499 22.499m29.999 0c0 4.136-3.364 7.5-7.5 7.5s-7.5-3.364-7.5-7.5 3.364-7.5 7.5-7.5 7.5 3.364 7.5 7.5"/></svg>