<svg xmlns="http://www.w3.org/2000/svg" width="512" height="512" viewBox="0 0 512.434 512.434"><path fill="#2edffc" d="M281.782 227.561V18.409c0-5.767 4.869-10.363 10.624-9.988 161.286 10.513 260.325 183.925 189.07 328.545-2.441 4.955-8.579 6.804-13.362 4.04L286.779 236.219a10 10 0 0 1-4.997-8.658"/><path fill="#93ddb7" d="M441.66 389.892c4.772 2.765 6.23 8.99 3.169 13.578-18.943 28.392-44.124 52.329-73.517 69.778l-.16.09a227.7 227.7 0 0 1-114.85 31.13c-3.32 0-6.64-.07-9.96-.23-36.24-1.61-71.83-12.03-103.49-30.38-30.154-17.467-55.87-41.62-75.102-70.38-3.069-4.589-1.616-10.822 3.161-13.591l14.081-8.16 166.266-96.354a10 10 0 0 1 10.028 0z"/><path fill="#fd646f" d="M230.782 18.203v208.659a10 10 0 0 1-5.004 8.662L44.4 340.142c-4.677 2.697-10.658.953-13.152-3.835l-.046-.088c-70.32-134.76 24.33-307.13 171.83-326.46 0 0 0-.01.01 0a210 210 0 0 1 17.339-1.548c5.674-.272 10.401 4.312 10.401 9.992"/><path fill="#27bdf3" d="M491.242 314.118a229 229 0 0 1-9.768 22.848c-2.442 4.954-8.579 6.802-13.361 4.038L286.779 236.216a10 10 0 0 1-4.997-8.658v-34.229z"/><path fill="#fc4755" d="M230.782 192.638v34.224a10 10 0 0 1-5.004 8.662L44.474 340.099c-4.708 2.715-10.741.969-13.256-3.848a209 209 0 0 1-10.146-22.592z"/><path fill="#5ed297" d="M441.663 389.892c4.771 2.766 6.228 8.99 3.168 13.577-18.943 28.393-44.124 52.331-73.518 69.779l-.16.09a227.7 227.7 0 0 1-114.85 31.13c-3.32 0-6.64-.07-9.96-.23-36.24-1.61-71.83-12.03-103.49-30.38-30.154-17.468-55.87-41.62-75.102-70.38-3.069-4.589-1.616-10.822 3.161-13.59l11.612-6.729a228 228 0 0 0 60.33 50.7c31.66 18.35 67.25 28.77 103.49 30.38 3.32.16 6.64.23 9.96.23 40.31 0 80.03-10.76 114.85-31.13l.16-.09c22.32-13.25 42.2-30.23 58.77-50.07z"/><path d="M480.187 117.868C438.587 46.032 364.475 2.145 281.935.47c-4.087-.151-7.734 3.406-7.652 7.499v45.515c-.142 9.734 15.144 9.729 15 0v-37.73c74.163 4.034 140.266 44.602 177.923 109.632 37.903 65.454 40.201 143.475 6.563 210.227L289.282 229.004V88.483c.142-9.734-15.144-9.729-15 0v144.849a7.5 7.5 0 0 0 3.747 6.494l194.993 112.68c3.511 2.12 8.437.737 10.332-2.894 39.864-72.846 38.679-159.479-3.167-231.744M111.612 442.22a219.3 219.3 0 0 1-38.841-44.747l183.506-106.337 77.892 45.134a7.5 7.5 0 0 0 7.52-12.978l-81.651-47.313a7.5 7.5 0 0 0-7.521 0L58.522 388.394c-3.574 1.976-4.839 6.922-2.656 10.372 12.375 20.452 27.8 38.863 45.846 54.722a7.5 7.5 0 0 0 9.9-11.268M454.042 388.395l-82.051-47.544a7.5 7.5 0 0 0-7.52 12.978l75.324 43.646c-18.452 28.253-43.316 52.117-72.239 69.279l-.193.111c-33.673 19.692-72.076 30.102-111.058 30.102-38.345 0-76.276-10.234-109.692-29.597-5.465-3.15-13.179-9.975-18.172-2.45-4.769 7.929 5.096 12.16 10.651 15.429 35.698 20.685 76.23 31.618 117.213 31.618 41.64 0 82.661-11.118 118.599-32.135l.234-.136c33.296-19.757 61.499-47.743 81.563-80.934 2.181-3.448.913-8.392-2.659-10.367M138.041 286.129a7.5 7.5 0 0 0-10.244-2.75l-88.924 51.294C4.735 270.885 7.11 193.73 45.649 126.745 84.464 59.278 150.45 18.153 223.282 15.595v212.706l-65.179 37.597c-8.505 4.741-.86 17.978 7.494 12.994l68.932-39.762a7.5 7.5 0 0 0 3.753-6.497V7.968a7.5 7.5 0 0 0-7.491-7.5h-.266c-40.999 0-81.268 11.633-116.461 33.647-33.143 20.731-61.297 50.175-81.418 85.15C12.635 154.045 1.388 192.897.119 231.621c-1.353 41.272 8.826 81.773 29.438 117.124a7.5 7.5 0 0 0 10.226 2.72l95.508-55.092a7.5 7.5 0 0 0 2.75-10.244"/></svg>