<svg xmlns="http://www.w3.org/2000/svg" width="512" height="512"><path fill="#f5f5f5" d="M168 92.5h301a5 5 0 0 1 5 5v402a5 5 0 0 1-5 5H168a5 5 0 0 1-5-5v-402a5 5 0 0 1 5-5"/><path fill="#e6e6e6" d="M451.5 92.5V477c0 2.76-2.24 5-5 5H163V97.5c0-2.76 2.24-5 5-5z"/><path fill="#f5f5f5" d="M426.5 50h-301a5 5 0 0 0-5 5v402a5 5 0 0 0 5 5h301a5 5 0 0 0 5-5V55a5 5 0 0 0-5-5"/><path fill="#e6e6e6" d="M409 50v384.5c0 2.76-2.24 5-5 5H120.5V55c0-2.76 2.24-5 5-5z"/><path fill="#f5f5f5" d="M389 12.5v402c0 2.76-2.24 5-5 5H88c-27.61 0-50-22.39-50-50v-13c0-2.76 2.24-5 5-5h30c.06 0 .11 0 .17-.01 2.68-.08 4.83-2.29 4.83-4.99v-334c0-2.76 2.24-5 5-5h301c2.76 0 5 2.24 5 5"/><path fill="#faa515" d="M204 152.5h-86a5 5 0 0 1-5-5v-86a5 5 0 0 1 5-5h86a5 5 0 0 1 5 5v86a5 5 0 0 1-5 5"/><g fill="#2b597f"><path d="M354 147H244a7.5 7.5 0 0 1 0-15h110a7.5 7.5 0 0 1 0 15M289 215H178a7.5 7.5 0 0 1 0-15h111a7.5 7.5 0 0 1 0 15M354 112H244a7.5 7.5 0 0 1 0-15h110a7.5 7.5 0 0 1 0 15M354 77H244a7.5 7.5 0 0 1 0-15h110a7.5 7.5 0 0 1 0 15M354 304H113a7.5 7.5 0 0 1 0-15h241a7.5 7.5 0 0 1 0 15M354 259H223a7.5 7.5 0 0 1 0-15h131a7.5 7.5 0 0 1 0 15M188 259h-75.5a7.5 7.5 0 0 1 0-15H188a7.5 7.5 0 0 1 0 15M339.78 419.5H88c-27.614 0-50-22.386-50-50v-13a5 5 0 0 1 5-5h30c.06 0 .11 0 .17-.01h212.11a5 5 0 0 1 5 5v13.01c0 27.44 22.12 49.74 49.5 50"/></g><path d="M474 85h-35V50a7.5 7.5 0 0 0-7.5-7.5h-35v-35A7.5 7.5 0 0 0 389 0H78a7.5 7.5 0 0 0-7.5 7.5V344H38a7.5 7.5 0 0 0-7.5 7.5v18c0 31.706 25.794 57.5 57.5 57.5h25v35a7.5 7.5 0 0 0 7.5 7.5h35v35a7.5 7.5 0 0 0 7.5 7.5h150.5c4.142 0 7.5-3.357 7.5-7.5s-3.358-7.5-7.5-7.5h-143v-27.5h261a7.5 7.5 0 0 0 7.5-7.5V344c0-4.143-3.358-7.5-7.5-7.5s-7.5 3.357-7.5 7.5v110.5H128V427h261a7.5 7.5 0 0 0 7.5-7.5v-362H424V310c0 4.143 3.358 7.5 7.5 7.5s7.5-3.357 7.5-7.5V100h27.5v397h-119c-4.142 0-7.5 3.357-7.5 7.5s3.358 7.5 7.5 7.5H474a7.5 7.5 0 0 0 7.5-7.5v-412A7.5 7.5 0 0 0 474 85m-92.5 327H340c-23.435 0-42.5-19.065-42.5-42.5v-18a7.5 7.5 0 0 0-7.5-7.5h-52c-4.142 0-7.5 3.357-7.5 7.5s3.358 7.5 7.5 7.5h44.5v10.5c0 16.821 7.261 31.976 18.811 42.5H88c-23.435 0-42.5-19.065-42.5-42.5V359H203c4.142 0 7.5-3.357 7.5-7.5s-3.358-7.5-7.5-7.5H85.5V15h296z"/><path d="M113 160h96a7.5 7.5 0 0 0 7.5-7.5v-96A7.5 7.5 0 0 0 209 49h-96a7.5 7.5 0 0 0-7.5 7.5v96a7.5 7.5 0 0 0 7.5 7.5m7.5-96h81v81h-81zM354 132H244c-4.142 0-7.5 3.357-7.5 7.5s3.358 7.5 7.5 7.5h110c4.142 0 7.5-3.357 7.5-7.5s-3.358-7.5-7.5-7.5M170.5 207.5a7.5 7.5 0 0 0 7.5 7.5h111c4.142 0 7.5-3.357 7.5-7.5s-3.358-7.5-7.5-7.5H178a7.5 7.5 0 0 0-7.5 7.5M354 97H244c-4.142 0-7.5 3.357-7.5 7.5s3.358 7.5 7.5 7.5h110c4.142 0 7.5-3.357 7.5-7.5S358.142 97 354 97M354 62H244c-4.142 0-7.5 3.357-7.5 7.5s3.358 7.5 7.5 7.5h110c4.142 0 7.5-3.357 7.5-7.5S358.142 62 354 62M354 289H113c-4.142 0-7.5 3.357-7.5 7.5s3.358 7.5 7.5 7.5h241c4.142 0 7.5-3.357 7.5-7.5s-3.358-7.5-7.5-7.5M354 244H223c-4.142 0-7.5 3.357-7.5 7.5s3.358 7.5 7.5 7.5h131c4.142 0 7.5-3.357 7.5-7.5s-3.358-7.5-7.5-7.5M112.5 259H188c4.142 0 7.5-3.357 7.5-7.5s-3.358-7.5-7.5-7.5h-75.5c-4.142 0-7.5 3.357-7.5 7.5s3.358 7.5 7.5 7.5"/></svg>