<svg xmlns="http://www.w3.org/2000/svg" width="512" height="512" viewBox="0 0 511.728 511.728"><path fill="#6b96ae" d="m381.693 439.974 25.456-25.456 58.689 58.326c7.284 7.144 7.354 18.846.155 26.044-7.143 7.143-18.735 7.137-25.903-.013z"/><path fill="#f5f5f5" d="M389.381 136.5v306c0 2.76-2.24 5-5 5h-339c-2.76 0-5-2.24-5-5v-430c0-2.76 2.24-5 5-5h215z"/><path fill="#e6e6e6" d="M389.381 136.5v20h-124c-13.79 0-25-11.21-25-25V7.5h20z"/><path fill="#2b597f" d="m260.381 7.5 129 129h-124a5 5 0 0 1-5-5z"/><path fill="#50758d" d="m430.621 437.47-25.68 25.68-14.38-14.35-18.87-18.83 25.46-25.45 19.2 18.88z"/><g fill="#2b597f"><path d="M157.381 196h-82a7.5 7.5 0 0 1 0-15h82a7.5 7.5 0 0 1 0 15M235.381 254h-160a7.5 7.5 0 0 1 0-15h160a7.5 7.5 0 0 1 0 15M199.381 312h-124c-4.142 0-7.5-3.357-7.5-7.5s3.358-7.5 7.5-7.5h124c4.142 0 7.5 3.357 7.5 7.5s-3.357 7.5-7.5 7.5M189.381 370h-114c-4.142 0-7.5-3.357-7.5-7.5s3.358-7.5 7.5-7.5h114c4.142 0 7.5 3.357 7.5 7.5s-3.357 7.5-7.5 7.5M416.351 423.4a143 143 0 0 1-25.79 25.4l-18.87-18.83 25.46-25.45z"/></g><circle cx="305.381" cy="336.5" r="126" fill="#50758d"/><path fill="#2edffc" d="M395.991 336.75c0 49.91-40.45 90.36-90.36 90.36-35.44 0-66.12-20.4-80.92-50.11-.25-.49-.49-1-.73-1.5a89.1 89.1 0 0 1-7.67-25c-.13-.83-.24-1.66-.34-2.5-.47-3.68-.7-7.44-.7-11.25 0-5.89.57-11.67 1.65-17.25.12-.67.26-1.34.4-2a89.8 89.8 0 0 1 9.5-25c.38-.67.77-1.34 1.17-2 15.77-26.42 44.64-44.11 77.64-44.11 49.91 0 90.36 40.45 90.36 90.36"/><path fill="#2b597f" d="M344.381 305c0 8.01-6.49 14.5-14.5 14.5h-112.96c.12-.67.26-1.34.4-2a89.8 89.8 0 0 1 9.5-25c.38-.67.77-1.34 1.17-2h101.89c4 0 7.63 1.62 10.25 4.25 2.63 2.62 4.25 6.25 4.25 10.25M344.381 362.5c0 8.01-6.49 14.5-14.5 14.5h-105.17c-.25-.49-.49-1-.73-1.5a89.1 89.1 0 0 1-7.67-25c-.13-.83-.24-1.66-.34-2.5h113.91c4 0 7.63 1.62 10.25 4.25 2.63 2.62 4.25 6.25 4.25 10.25"/><path d="m471.124 467.525-54.982-54.642c14.961-21.65 23.739-47.884 23.739-76.133 0-11.142-1.369-22.22-4.069-32.926-1.013-4.017-5.091-6.455-9.106-5.438a7.5 7.5 0 0 0-5.438 9.106 119.7 119.7 0 0 1 3.614 29.258c0 65.755-53.495 119.25-119.25 119.25s-119.25-53.495-119.25-119.25 53.495-119.25 119.25-119.25c42.77 0 82.503 23.113 103.696 60.319 2.051 3.6 6.631 4.858 10.229 2.805a7.5 7.5 0 0 0 2.805-10.229 134 134 0 0 0-25.48-32.062V136.5a7.6 7.6 0 0 0-2.197-5.304l-129-129A7.59 7.59 0 0 0 260.382 0h-220a7.5 7.5 0 0 0-7.5 7.5V265c0 4.143 3.358 7.5 7.5 7.5s7.5-3.357 7.5-7.5V15h205v53c0 4.143 3.358 7.5 7.5 7.5s7.5-3.357 7.5-7.5V25.606L371.275 129H267.881v-27c0-4.143-3.358-7.5-7.5-7.5s-7.5 3.357-7.5 7.5v34.5a7.5 7.5 0 0 0 7.5 7.5h121.5v82.329c-22.089-15.236-48.601-23.829-76.25-23.829-35.533 0-67.881 13.882-91.92 36.5H75.381c-4.142 0-7.5 3.357-7.5 7.5s3.358 7.5 7.5 7.5h124.606c-9.968 12.698-17.7 27.231-22.598 43H75.381c-4.142 0-7.5 3.357-7.5 7.5s3.358 7.5 7.5 7.5h98.296a134.4 134.4 0 0 0-1.05 43H75.381c-4.142 0-7.5 3.357-7.5 7.5s3.358 7.5 7.5 7.5h100.17c7.113 27.812 22.933 52.173 44.373 70H47.881V299c0-4.143-3.358-7.5-7.5-7.5s-7.5 3.357-7.5 7.5v148.5a7.5 7.5 0 0 0 7.5 7.5h201.741c18.919 10.202 40.549 16 63.509 16 27.368 0 52.845-8.239 74.094-22.357l55.067 55.542c5.041 5.028 11.655 7.542 18.267 7.542 6.608 0 13.213-2.512 18.236-7.535 4.902-4.902 7.583-11.423 7.55-18.361-.033-6.953-2.787-13.467-7.721-18.306m-78.848-27.528 14.889-14.889 10.639 10.574-14.967 14.967zm68.413 53.589c-4.208 4.208-11.073 4.2-15.273.01l-32.018-32.294 15.046-15.046 32.141 31.943a10.8 10.8 0 0 1 3.261 7.704 10.71 10.71 0 0 1-3.157 7.683"/><path d="M305.631 238.888c-41.463 0-78.567 26.263-92.331 65.352-3.67 10.425-5.532 21.363-5.532 32.511 0 53.962 43.901 97.862 97.862 97.862s97.862-43.9 97.862-97.862-43.899-97.863-97.861-97.863m-78.182 70.334A83 83 0 0 1 232.374 298h97.507c3.86 0 7 3.141 7 7s-3.14 7-7 7H226.537c.291-.93.588-1.858.912-2.778m78.182 110.39c-27.698 0-52.248-13.675-67.302-34.612h19.552c4.142 0 7.5-3.357 7.5-7.5s-3.358-7.5-7.5-7.5h-28.125a82 82 0 0 1-4.706-14h104.831c3.86 0 7 3.141 7 7s-3.14 7-7 7h-38c-4.142 0-7.5 3.357-7.5 7.5s3.358 7.5 7.5 7.5h38c12.131 0 22-9.869 22-22s-9.869-22-22-22H222.877a84 84 0 0 1-.108-4.25c0-3.276.202-6.529.579-9.75h106.533c12.131 0 22-9.869 22-22s-9.869-22-22-22H242.58c15.45-18.077 38.331-29.112 63.052-29.112 45.69 0 82.862 37.172 82.862 82.862s-37.172 82.862-82.863 82.862M75.381 196h82c4.142 0 7.5-3.357 7.5-7.5s-3.358-7.5-7.5-7.5h-82c-4.142 0-7.5 3.357-7.5 7.5s3.358 7.5 7.5 7.5"/></svg>