<svg xmlns="http://www.w3.org/2000/svg" width="512" height="512" viewBox="0 0 511.502 511.502"><path fill="#2edffc" d="M243.131 33.802v105.19h-.53c-8.23 0-16.29.76-24.1 2.23-3.38.63-6.72 1.4-10 2.29-55.21 14.98-95.81 65.44-95.81 125.39 0 23.59 6.29 45.73 17.29 64.8l-28.48 53.3-62.63-.7c-19.96-34.54-31.37-74.64-31.37-117.4 0-118.27 87.31-216.13 201-232.64 3.31-.48 6.64-.89 10-1.23 7.92-.82 15.96-1.23 24.1-1.23z"/><path fill="#27bdf3" d="M243.131 104.002v34.99h-.53c-71.75 0-129.91 58.16-129.91 129.91 0 23.59 6.29 45.73 17.29 64.8l-30.51 17.61c-13.98-24.22-21.97-52.34-21.97-82.31 0-91.13 73.87-165 165-165z"/><path fill="#fad207" d="M284.037 500.362a237 237 0 0 1-41.435 3.64c-87.087 0-163.109-47.346-203.733-117.698l91.116-52.606c22.437 38.921 64.471 65.113 112.617 65.113 7.91 0 15.642-.705 23.163-2.062l43.736 51.252z"/><path fill="#faa515" d="M271.871 431.392c-9.53 1.72-19.35 2.61-29.37 2.61-61.15 0-114.53-33.26-143.03-82.69l30.51-17.61c22.44 38.92 64.48 65.11 112.62 65.11 7.91 0 15.64-.71 23.16-2.06z"/><path fill="#fd646f" d="m423.171 419.452-.01.01-.01.01a233 233 0 0 1-16.76 18.07l-.01.01c-2.4 2.35-4.86 4.63-7.36 6.86-.95.85-1.91 1.69-2.87 2.52-31.27 27-69.73 45.89-112.11 53.43l-18.28-103.61c17.25-3.1 33.32-9.61 47.49-18.82a130.76 130.76 0 0 0 11.79-8.63c.01-.01.01-.01.02-.01 6.36-5.22 12.21-11.05 17.46-17.36.02-.02.04-.05.06-.07l.01-.01.01-.01 22.92 19.23 51.49 43.21z"/><path fill="#fc4755" d="M369.471 374.382c-24.32 29.28-58.58 50-97.6 57.01l-6.11-34.64c30.72-5.52 57.69-21.85 76.84-44.91l20.14 16.9z"/><path fill="#27bdf3" d="m243.131 33.802 20.37 43.2-20.37 61.99h-.53c-8.23 0-16.29.76-24.1 2.23V35.032c7.92-.82 15.96-1.23 24.1-1.23z"/><path fill="#fc4755" d="m423.171 419.452-.01.01-.01.01a233 233 0 0 1-16.76 18.07l-81.33-68.25c6.36-5.22 12.21-11.05 17.46-17.36.02-.02.04-.05.06-.07l.01-.01 57.91 20.15 16.51 42.28z"/><path fill="#50758d" d="M504.001 268.9c0 59.959-20.197 115.205-54.138 159.31-3.475 4.516-10.01 5.238-14.375 1.575l-72.748-61.049-20.144-16.894c18.682-22.5 29.916-51.417 29.916-82.943 0-71.572-57.876-129.626-129.385-129.91V17.726c0-5.696 4.752-10.233 10.443-9.998C392.848 13.477 504.001 128.215 504.001 268.9"/><path fill="#2b597f" d="M407.501 269.002c0 40.06-14.28 76.8-38.03 105.38l-6.73-5.64-20.14-16.9c18.68-22.5 29.91-51.42 29.91-82.94 0-71.57-57.87-129.63-129.38-129.91v-34.99c90.84.34 164.37 74.08 164.37 165"/><path d="M475.659 134.685c-4.744-8.499-17.979-.858-12.992 7.498 22.135 38.354 33.834 82.171 33.834 126.717 0 56.86-19.193 112.245-54.198 156.813l-14.279-11.982-.03-.028-40.101-33.646-34.914-29.296c17.482-23.575 27.035-52.361 27.035-81.861 0-36.606-14.229-71.049-40.063-96.981-24.063-24.153-55.544-38.267-89.321-40.2V15.125c75.987 2.347 145.908 37.918 192.763 98.361 5.854 7.781 17.928-1.589 11.855-9.189-24.549-31.669-56.396-57.889-92.099-75.823C325.706 9.664 285.33.085 243.142.002c-4.034-.088-7.595 3.466-7.515 7.5v18.905c-62.19 1.744-120.4 26.775-164.572 70.948C25.235 143.174.001 204.097.001 268.9c0 42.594 11.193 84.485 32.369 121.146l.004.008a243.2 243.2 0 0 0 47.124 58.439 7.5 7.5 0 0 0 10.088-11.102 228.2 228.2 0 0 1-40.364-48.405l57.627-33.271 20.565-11.873c28.144 43.576 80.544 68.111 132.236 61.419l15.678 88.903a230.5 230.5 0 0 1-32.726 2.337c-45.221 0-88.907-13.228-126.338-38.252a7.5 7.5 0 1 0-8.336 12.47c39.905 26.679 86.475 40.781 134.674 40.781 14.335 0 28.717-1.264 42.746-3.755l.015-.003c53.518-9.521 102.463-37.05 138.648-77.796l14.494 12.161c3.048 2.657 8.052 2.21 10.578-.938 40.25-48.211 62.417-109.392 62.417-172.271.001-47.172-12.393-93.583-35.841-134.213M290.096 491.539l-15.683-88.932a136.4 136.4 0 0 0 30.104-11.002c8.751-4.263 1.851-17.906-6.768-13.387-95.819 50.026-207.64-47.62-170.877-149.316 3.312-9.152-11.134-14.142-14.178-4.898-4.979 14.409-7.504 29.515-7.504 44.896 0 21.577 5.074 42.84 14.73 61.947l-43.406 25.061-34.794 20.088C24.217 343.212 15 306.349 15 268.9c0-123.163 98.345-223.791 220.627-227.495v90.263c-42.078 2.145-81.135 23.6-105.528 58.313-5.713 7.884 6.8 16.668 12.273 8.625 22.931-32.633 60.4-52.115 100.229-52.115h.495c67.225.267 121.915 55.18 121.915 122.41 0 28.506-10.01 56.261-28.187 78.152a123.4 123.4 0 0 1-11.863 12.414c-7.295 6.447 2.997 17.747 10.096 11.094a138 138 0 0 0 8.334-8.259l69.135 58.01c-32.251 36.182-75.249 61.197-122.43 71.227"/></svg>