<svg xmlns="http://www.w3.org/2000/svg" width="512" height="512" viewBox="0 0 512.001 512.001"><path fill="#f5f5f5" d="M102.001 63.5v351h308v-351z"/><path fill="#2edffc" d="M172.801 310.86c-14.27-17.61-22.8-39.89-22.8-64.11s8.53-46.5 22.8-64.11c19.32-23.85 49.18-39.14 82.7-39.14 33.7 0 63.71 15.46 83.02 39.54 14.08 17.55 22.48 39.67 22.48 63.71 0 .25 0 .5-.01.75-.17 23.75-8.54 45.6-22.47 62.96-19.21 23.95-49.01 39.38-82.5 39.53-.01.01-.02.01-.04 0-.16.01-.32.01-.48.01-33.52 0-63.38-15.29-82.7-39.14"/><path fill="#27bdf3" d="M248.001 349.74c-30.45-2.09-57.33-16.82-75.2-38.88-14.27-17.61-22.8-39.89-22.8-64.11s8.53-46.5 22.8-64.11c17.87-22.06 44.76-36.8 75.22-38.88-17.58 7.17-33.24 18.58-45.51 33.54-16.36 19.93-25.01 43.95-25.01 69.45s8.65 49.52 25.01 69.45c12.27 14.95 27.92 26.36 45.49 33.54"/><path fill="#50758d" d="M410.001 45v18.5h-308V45c0-20.71 16.79-37.5 37.5-37.5h233c20.71 0 37.5 16.79 37.5 37.5M102.001 414.5h308V467c0 20.71-16.79 37.5-37.5 37.5h-233c-20.71 0-37.5-16.79-37.5-37.5z"/><g fill="#2b597f"><path d="M256.001 482c-12.406 0-22.5-10.094-22.5-22.5s10.094-22.5 22.5-22.5 22.5 10.094 22.5 22.5-10.094 22.5-22.5 22.5M269.501 41h-51a7.5 7.5 0 0 1 0-15h51a7.5 7.5 0 0 1 0 15"/><circle cx="293.501" cy="33.5" r="7.5"/></g><path fill="#50758d" d="M344.372 178.348C322.79 151.436 290.398 136 255.501 136c-34.68 0-66.947 15.278-88.527 41.918-16.01 19.759-24.473 43.561-24.473 68.832s8.463 49.073 24.472 68.831c21.317 26.315 53.06 41.544 87.257 41.912l4.953-.059c33.475-1.041 64.381-16.338 85.188-42.28 15.581-19.417 23.92-42.757 24.12-67.498q.013-.454.011-.906c-.001-25.073-8.345-48.727-24.13-68.402M315.847 240c-.501-12.456-2.329-24.526-5.427-35.842a170 170 0 0 0 26.034-11.351c9.865 14.065 15.595 30.166 16.792 47.193zm-52.346-83.069c11.74 8.43 21.224 21.314 27.72 37.148a154.2 154.2 0 0 1-27.72 3.867zm-15-.154v41.17a154.4 154.4 0 0 1-28.447-4.042c6.671-15.853 16.406-28.734 28.447-37.128m0 56.187V240h-38.333c.499-11.263 2.197-21.979 4.958-31.875a169.2 169.2 0 0 0 33.375 4.839m0 42.036v25.533a169.3 169.3 0 0 0-33.503 4.873c-2.604-9.473-4.246-19.684-4.791-30.406zm0 40.555v41.668c-12.155-8.473-21.957-21.521-28.632-37.581a154.3 154.3 0 0 1 28.632-4.087m15 41.514v-41.513a154.4 154.4 0 0 1 27.902 3.912c-6.501 16.04-16.051 29.091-27.902 37.601m0-56.531V255h37.297c-.529 10.644-2.119 20.783-4.638 30.197a169.3 169.3 0 0 0-32.659-4.659m0-40.538v-27.036a169.3 169.3 0 0 0 32.536-4.629c2.671 9.837 4.315 20.48 4.801 31.664zm63.218-59.021a155 155 0 0 1-21.026 8.947 127 127 0 0 0-3.546-8.191c-4.903-10.277-10.963-19.195-17.978-26.586 16.132 4.791 30.767 13.615 42.55 25.83m-99.105-26.058c-7.218 7.422-13.448 16.404-18.485 26.764a127 127 0 0 0-3.536 7.994 155 155 0 0 1-20.976-9.045c11.916-12.227 26.714-21.019 42.997-25.713m-52.791 37.492a169.7 169.7 0 0 0 25.94 11.469c-3.2 11.396-5.091 23.56-5.605 36.118h-37.402c1.207-17.194 7.031-33.43 17.067-47.587M157.857 255h37.34c.564 12.036 2.394 23.702 5.434 34.663a169.6 169.6 0 0 0-25.808 11.423c-9.745-13.745-15.534-29.447-16.966-46.086m26.761 57.866a155 155 0 0 1 20.801-8.988 127 127 0 0 0 3.71 8.437c4.883 10.046 10.895 18.785 17.835 26.074-16.026-4.738-30.589-13.458-42.346-25.523m100.195 25.29c6.741-7.255 12.583-15.931 17.335-25.89a128 128 0 0 0 3.716-8.635 154.6 154.6 0 0 1 20.853 8.889c-11.622 12.045-26.028 20.802-41.904 25.636m51.642-37.463a169.7 169.7 0 0 0-25.907-11.312c2.939-10.879 4.711-22.448 5.261-34.381h37.324c-1.42 16.477-7.111 32.051-16.678 45.693"/><path fill="#2b597f" d="M184.621 312.87c3.75-1.96 7.55-3.75 11.41-5.38-2.84-4.21-5.37-8.58-7.56-13.08-4.62 2.01-9.18 4.24-13.65 6.68-9.74-13.75-15.53-29.45-16.96-46.09h19.95c-.21-2.73-.31-5.48-.31-8.25q0-3.39.21-6.75h-19.96c1.21-17.19 7.04-33.43 17.07-47.59 4.47 2.44 9.03 4.67 13.65 6.68 2.19-4.5 4.72-8.87 7.56-13.08-3.86-1.63-7.67-3.42-11.41-5.38 11.69-12 26.17-20.7 42.1-25.45 13.23-9 28.27-15.18 44.25-18.15-5.08-.68-10.25-1.03-15.47-1.03-34.68 0-66.95 15.28-88.53 41.92-16.01 19.76-24.47 43.56-24.47 68.83s8.46 49.07 24.47 68.83c21.32 26.32 53.06 41.54 87.26 41.91l4.95-.06c3.96-.12 7.88-.44 11.75-.96-15.96-2.97-30.99-9.16-44.21-18.15-15.93-4.76-30.41-13.45-42.1-25.45"/><path fill="#e6e6e6" d="M102.001 63.5v351h20v-351z"/><path fill="#2b597f" d="M122.001 11.83V63.5h-20V45c0-14.39 8.11-26.89 20-33.17M159.501 504.5h-20c-20.71 0-37.5-16.79-37.5-37.5v-52.5h20V467c0 20.71 16.79 37.5 37.5 37.5"/><path d="M372.501 0h-233c-24.813 0-45 20.187-45 45v70c-.143 9.734 15.144 9.729 15 0V71h107c9.734.143 9.729-15.144 0-15h-107V45c0-16.542 13.458-30 30-30h233c16.542 0 30 13.458 30 30v11h-151c-9.734-.143-9.729 15.144 0 15h151v336h-293V150c.143-9.734-15.144-9.729-15 0v317c0 24.813 20.187 45 45 45h198c9.734.143 9.729-15.144 0-15h-198c-16.542 0-30-13.458-30-30v-45h293v45c0 16.542-13.458 30-30 30-9.734-.143-9.729 15.144 0 15 24.813 0 45-20.187 45-45V45c0-24.813-20.187-45-45-45"/><path d="M233.501 459.5c0 12.406 10.094 22.5 22.5 22.5s22.5-10.094 22.5-22.5-10.094-22.5-22.5-22.5-22.5 10.094-22.5 22.5m30 0c0 4.136-3.364 7.5-7.5 7.5s-7.5-3.364-7.5-7.5 3.364-7.5 7.5-7.5 7.5 3.364 7.5 7.5M368.501 246.75c0-61.067-50.691-110.75-113-110.75s-113 49.683-113 110.75 50.691 110.75 113 110.75 113-49.683 113-110.75m-83.646 91.361c6.723-7.245 12.551-15.906 17.293-25.845a128 128 0 0 0 3.716-8.635 154.6 154.6 0 0 1 20.813 8.868 98.56 98.56 0 0 1-41.822 25.612m51.578-37.43a169.6 169.6 0 0 0-25.885-11.3c2.939-10.879 4.711-22.448 5.261-34.381h37.324c-1.478 16.841-7.434 32.449-16.7 45.681m0-107.863c9.541 13.625 15.574 29.768 16.821 47.182h-37.407c-.501-12.456-2.329-24.526-5.427-35.842a170 170 0 0 0 26.013-11.34m-9.757-11.817a154.6 154.6 0 0 1-20.983 8.924 127 127 0 0 0-3.546-8.191c-4.893-10.255-10.938-19.156-17.934-26.538a98.55 98.55 0 0 1 42.463 25.805m-63.175-24.07c11.74 8.43 21.224 21.314 27.72 37.148a154.2 154.2 0 0 1-27.72 3.867zm0 56.033a169.3 169.3 0 0 0 32.536-4.629c2.671 9.837 4.315 20.48 4.801 31.664h-37.337zm0 42.036h37.297c-.529 10.644-2.119 20.783-4.638 30.197a169.4 169.4 0 0 0-32.659-4.66zm0 40.556a154.4 154.4 0 0 1 27.902 3.912c-6.501 16.04-16.052 29.092-27.902 37.601zm-35.933-140.587c-7.198 7.413-13.414 16.377-18.439 26.715a127 127 0 0 0-3.536 7.994 154.6 154.6 0 0 1-20.934-9.023c11.631-11.895 26.362-20.87 42.909-25.686m-52.72 37.457a170 170 0 0 0 25.915 11.456c-3.2 11.396-5.091 23.56-5.605 36.118h-37.41c1.259-17.582 7.399-33.867 17.1-47.574m-.001 108.647c-9.424-13.316-15.485-29.066-16.978-46.073h37.328c.564 12.036 2.394 23.702 5.434 34.663a169.6 169.6 0 0 0-25.784 11.41m9.812 11.771a154.6 154.6 0 0 1 20.761-8.966 127 127 0 0 0 3.71 8.437c4.873 10.024 10.87 18.747 17.79 26.026a98.5 98.5 0 0 1-42.261-25.497m63.842 24.379c-12.155-8.473-21.957-21.521-28.632-37.581a154.3 154.3 0 0 1 28.632-4.087zm0-56.69a169.3 169.3 0 0 0-33.503 4.873c-2.604-9.473-4.246-19.684-4.791-30.406H248.5v25.533zm0-40.533h-38.333c.499-11.263 2.197-21.979 4.958-31.875a169.3 169.3 0 0 0 33.376 4.839zm0-42.053a154.4 154.4 0 0 1-28.447-4.042c6.671-15.853 16.406-28.734 28.447-37.128zM276.501 33.5c0-4.143-3.357-7.5-7.5-7.5h-50c-4.143 0-7.5 3.357-7.5 7.5s3.357 7.5 7.5 7.5h50c4.143 0 7.5-3.357 7.5-7.5"/><circle cx="294.001" cy="33.5" r="7.5"/></svg>