<svg xmlns="http://www.w3.org/2000/svg" width="512" height="512"><path fill="#fad207" d="M319.73 436.269H195.08l17.35-28h89.96z"/><path fill="#faa515" d="m235.96 408.269-6.53 10.54-10.82 17.46h-23.53l-.284-15.679 17.634-12.321zM319.73 436.269h-23.52l-17.34-28h23.52l18.67 14z"/><path fill="#fad207" d="m239.82 364.089-12.4 20-14.99 24.18-17.35 28-34.75 56.05c-2.62 4.26-7.18 6.61-11.84 6.61-2.48 0-4.99-.66-7.25-2.05-6.53-4.02-8.57-12.57-4.56-19.1l59.61-93.69 12.72-20zM373.53 496.879a13.8 13.8 0 0 1-7.25 2.05c-4.67 0-9.22-2.35-11.84-6.61l-34.71-56.05-17.34-28-14.97-24.18-12.39-20h30.78l12.71 20 59.56 93.69c4.02 6.53 1.98 15.08-4.55 19.1"/><path fill="#faa515" d="m209.01 364.089 13.309-10 17.501 10-12.4 20h-31.13zM318.52 384.089h-31.1l-12.39-20 17.076-10 13.704 10z"/><path fill="#fd646f" d="M504.5 23.089v27.42l-248.5 10-248.5-10v-27.42c0-5.53 4.48-10 10-10h477c5.52 0 10 4.47 10 10"/><path fill="#fc4755" d="M37.5 13.089c-5.52 0-10 4.47-10 10v27.42l-10.117 10-9.883-10v-27.42c0-5.53 4.48-10 10-10z"/><path fill="#f5f5f5" d="M504.5 50.509v303.58c0 5.52-4.48 10-10 10h-477c-5.52 0-10-4.48-10-10V50.509z"/><path fill="#e6e6e6" d="M504.5 50.509v20h-467c-5.523 0-10 4.477-10 10v283.58h-10c-5.523 0-10-4.477-10-10V50.509H253z"/><path fill="#27bdf3" d="M256 314.009c-23.435 0-42.5-19.065-42.5-42.5s19.065-42.5 42.5-42.5 42.5 19.065 42.5 42.5-19.065 42.5-42.5 42.5m0-70c-15.164 0-27.5 12.337-27.5 27.5s12.336 27.5 27.5 27.5 27.5-12.337 27.5-27.5-12.336-27.5-27.5-27.5"/><path fill="#50758d" d="M396 186.009c-23.435 0-42.5-19.065-42.5-42.5s19.065-42.5 42.5-42.5 42.5 19.065 42.5 42.5-19.065 42.5-42.5 42.5m0-70c-15.164 0-27.5 12.337-27.5 27.5s12.336 27.5 27.5 27.5 27.5-12.337 27.5-27.5-12.336-27.5-27.5-27.5M396 314.009c-23.435 0-42.5-19.065-42.5-42.5s19.065-42.5 42.5-42.5 42.5 19.065 42.5 42.5-19.065 42.5-42.5 42.5m0-70c-15.164 0-27.5 12.337-27.5 27.5s12.336 27.5 27.5 27.5 27.5-12.337 27.5-27.5-12.336-27.5-27.5-27.5"/><path fill="#27bdf3" d="M116 186.009c-23.435 0-42.5-19.065-42.5-42.5s19.065-42.5 42.5-42.5 42.5 19.065 42.5 42.5-19.065 42.5-42.5 42.5m0-70c-15.164 0-27.5 12.337-27.5 27.5s12.336 27.5 27.5 27.5 27.5-12.337 27.5-27.5-12.336-27.5-27.5-27.5"/><path fill="#fc4755" d="m263.607 143.509 24.696-24.696a7.5 7.5 0 0 0-10.606-10.607L253 132.902l-24.697-24.697a7.501 7.501 0 0 0-10.606 10.607l24.696 24.696-24.696 24.696a7.5 7.5 0 0 0 10.606 10.607L253 154.116l24.697 24.697c1.464 1.464 3.384 2.196 5.303 2.196s3.839-.732 5.303-2.196a7.5 7.5 0 0 0 0-10.607zM128.607 271.509l24.696-24.696a7.5 7.5 0 0 0-10.606-10.607L118 260.902l-24.697-24.697a7.501 7.501 0 0 0-10.606 10.607l24.696 24.696-24.696 24.696a7.5 7.5 0 0 0 10.606 10.607L118 282.116l24.697 24.697c1.464 1.464 3.384 2.196 5.303 2.196s3.839-.732 5.303-2.196a7.5 7.5 0 0 0 0-10.607z"/><path fill="#27bdf3" d="M163 191.509a7.5 7.5 0 0 1 12.803-5.303l30 30a7.501 7.501 0 0 1-10.607 10.606l-30-30a7.48 7.48 0 0 1-2.196-5.303"/><path d="M494.5 5.585H105c-4.142 0-7.5 3.357-7.5 7.5s3.358 7.5 7.5 7.5h389.5c1.378 0 2.5 1.121 2.5 2.5v19.924H352c-4.142 0-7.5 3.357-7.5 7.5s3.358 7.5 7.5 7.5h145v296.076c0 1.379-1.122 2.5-2.5 2.5h-477a2.503 2.503 0 0 1-2.5-2.5V58.009h302c4.142 0 7.5-3.357 7.5-7.5s-3.358-7.5-7.5-7.5H15V23.085c0-1.379 1.122-2.5 2.5-2.5H70c4.142 0 7.5-3.357 7.5-7.5s-3.358-7.5-7.5-7.5H17.5c-9.649 0-17.5 7.851-17.5 17.5v331c0 9.649 7.851 17.5 17.5 17.5h177.833l-20.772 32.661a7.5 7.5 0 0 0 2.304 10.353c3.444 2.205 8.117 1.221 10.354-2.304l25.891-40.71h13.194l-72.366 116.808c-1.742 2.964-5.871 3.948-8.773 2.094a6.39 6.39 0 0 1-2.117-8.737l25.529-40.141a7.5 7.5 0 0 0-2.304-10.353 7.5 7.5 0 0 0-10.354 2.303l-25.566 40.198-.061.098c-6.174 10.042-3.027 23.235 7.015 29.409 9.7 6.197 23.573 2.933 29.395-6.993l32.526-52.5H256c4.142 0 7.5-3.357 7.5-7.5s-3.358-7.5-7.5-7.5h-47.48l8.054-13h81.618l8.054 13H291c-4.142 0-7.5 3.357-7.5 7.5s3.358 7.5 7.5 7.5h24.539l32.512 52.478c5.838 9.952 19.695 13.214 29.409 7.016 9.95-5.835 13.253-19.841 6.954-29.506l-64.98-102.173H494.5c9.649 0 17.5-7.851 17.5-17.5v-331c0-9.65-7.851-17.501-17.5-17.501M225.867 400.771s17.542-28.521 17.728-29.186h27.575c.186.665 17.728 29.186 17.728 29.186zm145.853 80.98a6.34 6.34 0 0 1 .747 4.781 6.34 6.34 0 0 1-2.864 3.954 6.35 6.35 0 0 1-3.327.946 6.36 6.36 0 0 1-5.461-3.063l-72.352-116.785h13.194z"/><path d="M256 314.009c23.435 0 42.5-19.065 42.5-42.5s-19.065-42.5-42.5-42.5-42.5 19.065-42.5 42.5 19.065 42.5 42.5 42.5m0-70c15.164 0 27.5 12.337 27.5 27.5s-12.336 27.5-27.5 27.5-27.5-12.337-27.5-27.5 12.336-27.5 27.5-27.5M396 186.009c23.435 0 42.5-19.065 42.5-42.5s-19.065-42.5-42.5-42.5-42.5 19.065-42.5 42.5 19.065 42.5 42.5 42.5m0-70c15.164 0 27.5 12.337 27.5 27.5s-12.336 27.5-27.5 27.5-27.5-12.337-27.5-27.5 12.336-27.5 27.5-27.5M396 314.009c23.435 0 42.5-19.065 42.5-42.5s-19.065-42.5-42.5-42.5-42.5 19.065-42.5 42.5 19.065 42.5 42.5 42.5m0-70c15.164 0 27.5 12.337 27.5 27.5s-12.336 27.5-27.5 27.5-27.5-12.337-27.5-27.5 12.336-27.5 27.5-27.5M116 101.009c-23.435 0-42.5 19.065-42.5 42.5s19.065 42.5 42.5 42.5 42.5-19.065 42.5-42.5-19.065-42.5-42.5-42.5m0 70c-15.164 0-27.5-12.337-27.5-27.5s12.336-27.5 27.5-27.5 27.5 12.337 27.5 27.5-12.336 27.5-27.5 27.5M217.697 178.813a7.5 7.5 0 0 0 10.606 0L253 154.116l24.697 24.697c6.782 6.983 17.588-3.829 10.606-10.607l-24.696-24.696 24.696-24.696c6.983-6.783-3.827-17.586-10.606-10.607L253 132.902l-24.697-24.697c-6.783-6.981-17.587 3.829-10.606 10.607l24.696 24.696-24.696 24.696a7.503 7.503 0 0 0 0 10.609M153.303 236.205a7.5 7.5 0 0 0-10.606 0L118 260.902l-24.697-24.697c-6.783-6.981-17.587 3.829-10.606 10.607l24.696 24.696-24.696 24.696c-6.983 6.783 3.827 17.587 10.606 10.607L118 282.116l24.697 24.697c6.782 6.983 17.588-3.829 10.606-10.607l-24.696-24.696 24.696-24.696a7.503 7.503 0 0 0 0-10.609M165.197 186.205a7.5 7.5 0 0 0 0 10.607l30 30c6.782 6.983 17.588-3.829 10.606-10.607l-30-30a7.503 7.503 0 0 0-10.606 0"/></svg>