<svg xmlns="http://www.w3.org/2000/svg" width="512" height="512"><circle cx="256.006" cy="192.5" r="35.5" fill="#ffc682"/><path fill="#ffac5c" d="M265.006 226.84c-2.87.76-5.89 1.16-9 1.16-19.61 0-35.5-15.89-35.5-35.5s15.89-35.5 35.5-35.5c3.11 0 6.13.4 9 1.16-15.25 3.98-26.5 17.84-26.5 34.34s11.25 30.36 26.5 34.34"/><path fill="#50758d" d="M219.271 346h73.469c11.483 0 20.791-9.309 20.791-20.791v-15.033c0-31.577-25.599-57.176-57.176-57.176h-.7c-31.577 0-57.176 25.599-57.176 57.176v15.033c.001 11.482 9.309 20.791 20.792 20.791"/><path fill="#2b597f" d="M243.276 346h-24c-11.49 0-20.8-9.31-20.8-20.79v-15.03c0-31.58 25.6-57.18 57.18-57.18h.7c3.99 0 7.89.41 11.65 1.19-25.99 5.38-45.53 28.4-45.53 55.99v15.03c0 11.48 9.31 20.79 20.8 20.79"/><circle cx="256.006" cy="37.5" r="30" fill="#fad207"/><path fill="#fad207" d="M255.506 130a7.5 7.5 0 0 1-7.5-7.5v-25c0-4.143 3.358-7.5 7.5-7.5s7.5 3.357 7.5 7.5v25a7.5 7.5 0 0 1-7.5 7.5"/><circle cx="460.459" cy="155.354" r="30" fill="#fd646f"/><path fill="#fd646f" d="m405.916 182.6-53 18c-.8.27-1.61.4-2.41.4-3.12 0-6.04-1.97-7.1-5.09a7.4 7.4 0 0 1-.24-3.91 7.49 7.49 0 0 1 4.93-5.6l53-18c3.92-1.34 8.18.77 9.51 4.69.04.11.07.21.1.32 1.11 3.83-.98 7.9-4.79 9.19"/><circle cx="460.776" cy="367.032" r="30" fill="#2edffc"/><path fill="#2edffc" d="M410.926 349.3a7 7 0 0 1-.22.57 7.52 7.52 0 0 1-6.88 4.52c-.8 0-1.62-.13-2.42-.4l-53-18c-3.92-1.33-6.02-5.59-4.69-9.52a7.45 7.45 0 0 1 2.58-3.56c1.92-1.45 4.49-1.96 6.94-1.12l53 18a7.5 7.5 0 0 1 4.69 9.51"/><circle cx="51.552" cy="155.354" r="30" fill="#50758d"/><path fill="#50758d" d="M168.606 195.91c-.05.16-.11.31-.18.46a7.51 7.51 0 0 1-6.92 4.63q-1.185 0-2.37-.39l-.04-.01-53-18c-5.599-1.745-6.812-9.564-2.25-12.97a7.48 7.48 0 0 1 7.07-1.23l53 18a7.5 7.5 0 0 1 4.69 9.51"/><circle cx="51.236" cy="367.032" r="30" fill="#f5f5f5"/><path fill="#f5f5f5" d="M168.476 330.68a7.49 7.49 0 0 1-4.87 5.31l-53 18c-.8.27-1.62.4-2.42.4-3.12 0-6.04-1.97-7.1-5.09-.05-.15-.09-.29-.13-.44-.99-3.59.84-7.37 4.24-8.84l.01-.01c.18-.08.38-.15.57-.22l8.63-2.93 44.37-15.07c3.92-1.34 8.18.76 9.52 4.68.48 1.41.51 2.87.18 4.21"/><circle cx="256.006" cy="474.5" r="30" fill="#93ddb7"/><path fill="#93ddb7" d="M255.506 422a7.5 7.5 0 0 1-7.5-7.5v-25c0-4.143 3.358-7.5 7.5-7.5s7.5 3.357 7.5 7.5v25a7.5 7.5 0 0 1-7.5 7.5"/><path fill="#faa515" d="M282.696 51.19c-4.97 9.69-15.06 16.31-26.69 16.31-16.57 0-30-13.43-30-30 0-11.63 6.62-21.72 16.31-26.69a29.7 29.7 0 0 0-3.31 13.69c0 16.57 13.43 30 30 30 4.93 0 9.59-1.19 13.69-3.31"/><path fill="#fc4755" d="M487.146 169.04a29.87 29.87 0 0 1-16.43 14.5c-15.56 5.67-32.78-2.36-38.45-17.93-5.23-14.38 1.22-30.17 14.52-36.96-3.69 7.17-4.49 15.79-1.52 23.96 5.67 15.57 22.89 23.6 38.45 17.93 1.19-.43 2.33-.93 3.43-1.5"/><path fill="#27bdf3" d="M487.466 380.71c-6.78 13.29-22.57 19.75-36.95 14.51-15.57-5.66-23.6-22.88-17.93-38.45 2.7-7.4 8-13.1 14.5-16.42a28 28 0 0 0-1.5 3.42c-5.67 15.57 2.36 32.79 17.93 38.45a29.86 29.86 0 0 0 23.95-1.51"/><path fill="#2b597f" d="M78.246 169.03c-6.78 13.29-22.57 19.75-36.95 14.51-15.57-5.66-23.6-22.88-17.93-38.45 2.69-7.4 7.99-13.09 14.49-16.42a29 29 0 0 0-1.49 3.42c-5.67 15.57 2.36 32.79 17.93 38.45 8.16 2.97 16.78 2.18 23.95-1.51"/><path fill="#e6e6e6" d="M77.926 380.72a29.87 29.87 0 0 1-16.43 14.5c-15.57 5.67-32.78-2.36-38.45-17.93-5.24-14.38 1.22-30.17 14.51-36.95a29.86 29.86 0 0 0-1.51 23.95c5.67 15.57 22.88 23.6 38.45 17.93 1.19-.43 2.33-.93 3.43-1.5"/><path fill="#5ed297" d="M282.696 488.19c-4.97 9.69-15.06 16.31-26.69 16.31-16.57 0-30-13.43-30-30 0-11.63 6.62-21.72 16.31-26.69a29.7 29.7 0 0 0-3.31 13.69c0 16.57 13.43 30 30 30 4.93 0 9.59-1.19 13.69-3.31"/><path fill="#faa515" d="M259.936 128.54a7.4 7.4 0 0 1-4.43 1.46c-4.14 0-7.5-3.36-7.5-7.5v-25c0-3.97 3.09-7.23 7-7.47v31.47c0 3.24 2.05 6 4.93 7.04"/><path fill="#5ed297" d="M259.936 383.46a7.4 7.4 0 0 0-4.43-1.46c-4.14 0-7.5 3.36-7.5 7.5v25c0 3.97 3.09 7.23 7 7.47V390.5c0-3.24 2.05-6 4.93-7.04"/><path fill="#e6e6e6" d="M100.907 345.096a7.48 7.48 0 0 0 8.09 2.18l59.43-20.36c.99 3.59-.84 7.37-4.24 8.84l-.01.01-9.2 3.15-44.37 15.07c-3.92 1.34-8.18-.76-9.52-4.68a7.5 7.5 0 0 1-.18-4.21"/><path fill="#2b597f" d="M168.426 196.37a7.51 7.51 0 0 1-6.92 4.63q-1.185 0-2.37-.39l-.04-.01-53-18c-5.599-1.745-6.812-9.564-2.25-12.97a7.47 7.47 0 0 0 5.06 6.58z"/><path fill="#27bdf3" d="M410.736 349.8a7.519 7.519 0 0 1-6.91 4.59c-.8 0-1.62-.13-2.42-.4l-53-18c-3.92-1.33-6.02-5.59-4.69-9.52a7.45 7.45 0 0 1 2.58-3.56c.15 2.95 2 5.58 4.98 6.6z"/><path fill="#fc4755" d="m405.916 182.6-53 18c-.8.27-1.61.4-2.41.4-3.12 0-6.04-1.97-7.1-5.09a7.4 7.4 0 0 1-.24-3.91c.04-.12.07-.23.1-.33a7.47 7.47 0 0 0 8.03 2.12l59.41-20.38c1.11 3.83-.98 7.9-4.79 9.19"/><path d="M256.006 235.5c23.71 0 43-19.29 43-43s-19.29-43-43-43-43 19.29-43 43 19.289 43 43 43m0-71c15.439 0 28 12.561 28 28s-12.561 28-28 28-28-12.561-28-28 12.56-28 28-28M256.356 245.5h-.7c-12.62 0-24.852 3.639-35.373 10.521a7.5 7.5 0 0 0-2.169 10.383 7.5 7.5 0 0 0 10.382 2.17c8.073-5.282 17.464-8.074 27.16-8.074h.7c27.391 0 49.676 22.284 49.676 49.676v15.033c0 7.329-5.962 13.291-13.292 13.291h-73.469c-7.329 0-13.292-5.962-13.292-13.291v-15.033a49.4 49.4 0 0 1 3.546-18.473 7.5 7.5 0 1 0-13.923-5.58c-3.068 7.652-4.623 15.745-4.623 24.053v15.033c0 15.6 12.691 28.291 28.292 28.291h73.469c15.6 0 28.292-12.691 28.292-28.291v-15.033c-.001-35.662-29.014-64.676-64.676-64.676M256.006 75c19.304 0 35.716-15.051 37.362-34.264a7.5 7.5 0 0 0-6.833-8.113c-4.13-.357-7.759 2.706-8.113 6.832C277.435 50.976 267.589 60 256.006 60c-12.407 0-22.5-10.094-22.5-22.5s10.093-22.5 22.5-22.5c2.949 0 5.811.559 8.505 1.661 3.835 1.571 8.213-.268 9.781-4.102s-.268-8.213-4.102-9.781A37.3 37.3 0 0 0 256.006 0c-20.678 0-37.5 16.822-37.5 37.5s16.822 37.5 37.5 37.5M248.006 97.5v25c0 4.143 3.358 7.5 7.5 7.5s7.5-3.357 7.5-7.5v-25c0-4.143-3.358-7.5-7.5-7.5s-7.5 3.357-7.5 7.5M350.505 201.002c.799 0 1.613-.129 2.413-.4l53-18a7.5 7.5 0 0 0-4.825-14.203l-53 18a7.5 7.5 0 0 0 2.412 14.603M406.234 339.785l-53-18a7.5 7.5 0 0 0-4.825 14.203l53 18c3.817 1.328 8.189-.731 9.514-4.689a7.5 7.5 0 0 0-4.689-9.514M163.918 186.398l-53-18a7.5 7.5 0 0 0-4.825 14.203l53 18c.8.271 1.613.4 2.413.4a7.5 7.5 0 0 0 2.412-14.603M67.084 333.046c-9.079-4.234-19.262-4.678-28.674-1.252-19.43 7.072-29.484 28.634-22.413 48.064a7.501 7.501 0 0 0 14.096-5.131c-4.243-11.658 1.79-24.595 13.448-28.838a22.35 22.35 0 0 1 17.204.751c11.067 4.884 16.22 19.046 10.883 29.9-3.481 7.667-11.418 12.821-19.816 12.992a7.5 7.5 0 0 0 .189 14.997c14.077-.2 27.387-8.811 33.222-21.649 8.895-18.091.305-41.694-18.139-49.834M158.777 321.785l-53 18a7.5 7.5 0 0 0 4.825 14.204l53-18a7.5 7.5 0 0 0 4.689-9.514 7.5 7.5 0 0 0-9.514-4.69M256.006 437c-20.678 0-37.5 16.822-37.5 37.5s16.822 37.5 37.5 37.5 37.5-16.822 37.5-37.5-16.823-37.5-37.5-37.5m0 60c-12.407 0-22.5-10.094-22.5-22.5s10.093-22.5 22.5-22.5 22.5 10.094 22.5 22.5-10.094 22.5-22.5 22.5M460.767 329.533c-20.678 0-37.5 16.822-37.5 37.5s16.822 37.5 37.5 37.5 37.5-16.822 37.5-37.5-16.823-37.5-37.5-37.5m0 60c-12.407 0-22.5-10.094-22.5-22.5s10.093-22.5 22.5-22.5 22.5 10.094 22.5 22.5-10.094 22.5-22.5 22.5M263.006 414.5v-25c0-4.143-3.358-7.5-7.5-7.5s-7.5 3.357-7.5 7.5v25c0 4.143 3.358 7.5 7.5 7.5s7.5-3.357 7.5-7.5M460.459 117.854c-20.678 0-37.5 16.822-37.5 37.5s16.822 37.5 37.5 37.5 37.5-16.822 37.5-37.5-16.822-37.5-37.5-37.5m0 60c-12.407 0-22.5-10.094-22.5-22.5s10.093-22.5 22.5-22.5 22.5 10.094 22.5 22.5-10.093 22.5-22.5 22.5M51.552 117.854c-20.678 0-37.5 16.822-37.5 37.5s16.822 37.5 37.5 37.5 37.5-16.822 37.5-37.5-16.823-37.5-37.5-37.5m0 60c-12.407 0-22.5-10.094-22.5-22.5s10.093-22.5 22.5-22.5 22.5 10.094 22.5 22.5-10.094 22.5-22.5 22.5"/></svg>