<svg xmlns="http://www.w3.org/2000/svg" width="512" height="512"><circle cx="454" cy="75.166" r="31.5" fill="#ffc682"/><path fill="#50758d" d="M421.846 204.334h63.809c9.994 0 18.846-8.674 18.846-18.668v-4c0-27.483-23.029-49.668-50.513-49.668h-.475c-27.483 0-49.763 22.279-49.763 49.763v4.477c0 9.994 8.102 18.096 18.096 18.096"/><circle cx="454" cy="339.166" r="31.5" fill="#ffc682"/><path fill="#50758d" d="M421.846 468.334h63.809c9.994 0 18.846-8.674 18.846-18.668v-4c0-27.483-23.029-49.668-50.513-49.668h-.475c-27.483 0-49.763 22.279-49.763 49.763v4.477c0 9.994 8.102 18.096 18.096 18.096"/><path fill="#f5f5f5" d="M289.5 84v80c0 5.523-4.477 10-10 10h-51l-10-49.154L228.5 74h51c5.523 0 10 4.477 10 10M289.5 348v80c0 5.523-4.477 10-10 10h-51l-10-50 10-50h51c5.523 0 10 4.477 10 10"/><path fill="#fd646f" d="M228.5 338v100h-37.43C91.02 438 7.55 356.14 7.5 256.09V256l49.883-10 50.117 10c0 22.64 9.18 43.14 24.02 57.98S166.86 338 189.5 338z"/><path fill="#2edffc" d="M228.5 74v100h-39q-.96 0-1.92.03c-44.4 1.01-80.08 37.32-80.08 81.97H7.5c0-100.36 81.64-182 182-182z"/><g fill="#fad207"><path d="M372.5 445.5h-54c-4.143 0-7.5-3.357-7.5-7.5s3.357-7.5 7.5-7.5h54c4.143 0 7.5 3.357 7.5 7.5s-3.357 7.5-7.5 7.5M362.5 345.5h-42c-4.143 0-7.5-3.357-7.5-7.5s3.357-7.5 7.5-7.5h42c4.143 0 7.5 3.357 7.5 7.5s-3.357 7.5-7.5 7.5M397.5 395.5H366c-4.143 0-7.5-3.357-7.5-7.5s3.357-7.5 7.5-7.5h31.5c4.143 0 7.5 3.357 7.5 7.5s-3.357 7.5-7.5 7.5M334 395.5h-9.5c-4.143 0-7.5-3.357-7.5-7.5s3.357-7.5 7.5-7.5h9.5c4.143 0 7.5 3.357 7.5 7.5s-3.357 7.5-7.5 7.5M372.5 81.5h-54c-4.143 0-7.5-3.357-7.5-7.5s3.357-7.5 7.5-7.5h54c4.143 0 7.5 3.357 7.5 7.5s-3.357 7.5-7.5 7.5M362.5 181.5h-42c-4.143 0-7.5-3.357-7.5-7.5s3.357-7.5 7.5-7.5h42c4.143 0 7.5 3.357 7.5 7.5s-3.357 7.5-7.5 7.5M397.5 131.5H376c-4.143 0-7.5-3.357-7.5-7.5s3.357-7.5 7.5-7.5h21.5c4.143 0 7.5 3.357 7.5 7.5s-3.357 7.5-7.5 7.5M344 131.5h-19.5c-4.143 0-7.5-3.357-7.5-7.5s3.357-7.5 7.5-7.5H344c4.143 0 7.5 3.357 7.5 7.5s-3.357 7.5-7.5 7.5"/></g><path fill="#e6e6e6" d="M289.5 149v15c0 5.523-4.477 10-10 10h-51l-10-12.5 10-12.5z"/><path fill="#27bdf3" d="M228.5 149v25h-39q-.96 0-1.92.03c-44.4 1.01-80.08 37.32-80.08 81.97-.63-4.07 0-20.76 0-25 0-45.29 47.71-82 93-82z"/><path fill="#e6e6e6" d="M289.5 413v15c0 5.523-4.477 10-10 10h-51l-10-12.5 10-12.5z"/><path fill="#fc4755" d="M228.5 413v25c-33.847.421-72.337 1.186-103.84-12.542C56.685 399.565 7.45 330.877 7.51 257.77 20.81 345.29 98.08 413 189.07 413z"/><path fill="#2b597f" d="M441.85 204.33h-20c-10 0-18.1-8.1-18.1-18.09v-4.48c0-27.48 22.28-49.76 49.76-49.76h.48c3.34 0 6.61.33 9.78.96-22.82 4.52-40.02 24.65-40.02 48.8v4.48c0 9.99 8.1 18.09 18.1 18.09M441.85 468.33h-20c-10 0-18.1-8.1-18.1-18.09v-4.48c0-27.48 22.28-49.76 49.76-49.76h.48c3.34 0 6.61.33 9.78.96-22.82 4.52-40.02 24.65-40.02 48.8v4.48c0 9.99 8.1 18.09 18.1 18.09"/><path fill="#ffac5c" d="M472.64 100.56a31.34 31.34 0 0 1-18.64 6.11c-17.4 0-31.5-14.11-31.5-31.5 0-16.51 12.69-30.05 28.86-31.39-7.8 5.72-12.86 14.97-12.86 25.39 0 17.39 14.1 31.5 31.5 31.5.89 0 1.77-.04 2.64-.11M472.64 364.556a31.34 31.34 0 0 1-18.64 6.11c-17.4 0-31.5-14.11-31.5-31.5 0-16.51 12.69-30.05 28.86-31.39-7.8 5.72-12.86 14.97-12.86 25.39 0 17.39 14.1 31.5 31.5 31.5.89 0 1.77-.04 2.64-.11"/><path fill="#fad207" d="M372.5 445.5h-54c-4.143 0-7.5-3.357-7.5-7.5s3.357-7.5 7.5-7.5h54c4.143 0 7.5 3.357 7.5 7.5s-3.357 7.5-7.5 7.5M362.5 345.5h-42c-4.143 0-7.5-3.357-7.5-7.5s3.357-7.5 7.5-7.5h42c4.143 0 7.5 3.357 7.5 7.5s-3.357 7.5-7.5 7.5M397.5 395.5H366c-4.143 0-7.5-3.357-7.5-7.5s3.357-7.5 7.5-7.5h31.5c4.143 0 7.5 3.357 7.5 7.5s-3.357 7.5-7.5 7.5M334 395.5h-9.5c-4.143 0-7.5-3.357-7.5-7.5s3.357-7.5 7.5-7.5h9.5c4.143 0 7.5 3.357 7.5 7.5s-3.357 7.5-7.5 7.5M372.5 81.5h-54c-4.143 0-7.5-3.357-7.5-7.5s3.357-7.5 7.5-7.5h54c4.143 0 7.5 3.357 7.5 7.5s-3.357 7.5-7.5 7.5M362.5 181.5h-42c-4.143 0-7.5-3.357-7.5-7.5s3.357-7.5 7.5-7.5h42c4.143 0 7.5 3.357 7.5 7.5s-3.357 7.5-7.5 7.5M397.5 131.5H376c-4.143 0-7.5-3.357-7.5-7.5s3.357-7.5 7.5-7.5h21.5c4.143 0 7.5 3.357 7.5 7.5s-3.357 7.5-7.5 7.5M344 131.5h-19.5c-4.143 0-7.5-3.357-7.5-7.5s3.357-7.5 7.5-7.5H344c4.143 0 7.5 3.357 7.5 7.5s-3.357 7.5-7.5 7.5"/><path d="M454 114.166c21.505 0 39-17.495 39-39s-17.495-39-39-39-39 17.495-39 39 17.495 39 39 39m0-63c13.233 0 24 10.767 24 24s-10.767 24-24 24-24-10.767-24-24 10.767-24 24-24M453.987 124.499h-.475c-31.575 0-57.263 25.688-57.263 57.262v4.478c0 14.113 11.482 25.596 25.596 25.596h63.809c14.281 0 26.346-11.983 26.346-26.168v-4c0-31.523-26.024-57.168-58.013-57.168M497 185.666c0 5.845-5.408 11.168-11.346 11.168h-63.809c-5.843 0-10.596-4.753-10.596-10.596v-4.478c0-23.303 18.959-42.262 42.263-42.262h.475c23.718 0 43.013 18.916 43.013 42.167zM493 339.166c0-21.505-17.495-39-39-39s-39 17.495-39 39 17.495 39 39 39 39-17.495 39-39m-63 0c0-13.233 10.767-24 24-24s24 10.767 24 24-10.767 24-24 24-24-10.767-24-24M453.987 388.499h-.475c-31.575 0-57.263 25.688-57.263 57.262v4.478c0 14.113 11.482 25.596 25.596 25.596h63.809c14.281 0 26.346-11.983 26.346-26.168v-4c0-31.523-26.024-57.168-58.013-57.168M497 449.666c0 5.845-5.408 11.168-11.346 11.168h-63.809c-5.843 0-10.596-4.753-10.596-10.596v-4.478c0-23.303 18.959-42.262 42.263-42.262h.475c23.718 0 43.013 18.916 43.013 42.167zM289.5 66.5h-100c-50.557 0-98.134 19.744-133.968 55.595C19.726 157.917.009 205.458.001 255.971L0 256l.001.018-.001.077c.027 55.213 24.697 107.703 67.683 144.011a7.5 7.5 0 0 0 9.679-11.459C39.687 356.826 17.3 311.554 15.181 263.5h85.136c3.823 45.854 42.358 82 89.183 82H221v85h-29.926c-29.943 0-59.647-7.798-85.903-22.551a7.5 7.5 0 1 0-7.348 13.076c28.494 16.012 60.74 24.475 93.251 24.475H289.5c4.143 0 7.5-3.357 7.5-7.5V338c0-4.143-3.357-7.5-7.5-7.5h-100c-41.079 0-74.5-33.421-74.5-74.5 0-18.603 6.894-36.414 19.41-50.154a7.5 7.5 0 1 0-11.088-10.102 89.23 89.23 0 0 0-22.995 52.756h-85.16c1.844-43.708 19.771-84.584 50.974-115.802C99.143 99.683 142.952 81.5 189.5 81.5H221v85h-31.5c-12.078 0-23.8 2.367-34.84 7.037a7.5 7.5 0 0 0-3.985 9.829 7.5 7.5 0 0 0 9.829 3.985c9.181-3.883 18.937-5.852 28.996-5.852h100c4.143 0 7.5-3.357 7.5-7.5V74c0-4.143-3.357-7.5-7.5-7.5m-7.5 364h-46v-85h46zm0-264h-46v-85h46zM318.5 81.5h54c4.143 0 7.5-3.357 7.5-7.5s-3.357-7.5-7.5-7.5h-54c-4.143 0-7.5 3.357-7.5 7.5s3.357 7.5 7.5 7.5M313 174c0 4.143 3.357 7.5 7.5 7.5h42c4.143 0 7.5-3.357 7.5-7.5s-3.357-7.5-7.5-7.5h-42a7.5 7.5 0 0 0-7.5 7.5M368.5 124c0 4.143 3.357 7.5 7.5 7.5h21.5c4.143 0 7.5-3.357 7.5-7.5s-3.357-7.5-7.5-7.5H376a7.5 7.5 0 0 0-7.5 7.5M344 131.5c4.143 0 7.5-3.357 7.5-7.5s-3.357-7.5-7.5-7.5h-19.5c-4.143 0-7.5 3.357-7.5 7.5s3.357 7.5 7.5 7.5zM372.5 430.5h-54c-4.143 0-7.5 3.357-7.5 7.5s3.357 7.5 7.5 7.5h54c4.143 0 7.5-3.357 7.5-7.5s-3.357-7.5-7.5-7.5M370 338c0-4.143-3.357-7.5-7.5-7.5h-42c-4.143 0-7.5 3.357-7.5 7.5s3.357 7.5 7.5 7.5h42c4.143 0 7.5-3.357 7.5-7.5M366 395.5h31.5c4.143 0 7.5-3.357 7.5-7.5s-3.357-7.5-7.5-7.5H366c-4.143 0-7.5 3.357-7.5 7.5s3.357 7.5 7.5 7.5M324.5 380.5c-4.143 0-7.5 3.357-7.5 7.5s3.357 7.5 7.5 7.5h9.5c4.143 0 7.5-3.357 7.5-7.5s-3.357-7.5-7.5-7.5z"/></svg>