<svg xmlns="http://www.w3.org/2000/svg" width="512" height="512"><path fill="#ffc682" d="M344.5 143h-11v110h11c30.376 0 55-24.624 55-55s-24.624-55-55-55"/><path fill="#ffac5c" d="M399.5 198c0 30.38-24.62 55-55 55h-11v-35h11c24.26 0 44.85-15.7 52.16-37.5 1.84 5.5 2.84 11.38 2.84 17.5"/><path fill="#f5f5f5" d="M116.75 369.03c0 1.72-.3 3.4-.86 4.97-2.03 5.7-7.44 10-14.15 10H62.5c-2.76 0-5-2.24-5-5V250h45v30.54c0 27.83 4.35 55.48 12.9 81.96.19.6.38 1.19.58 1.79.35 1.07.58 2.15.68 3.21.03.17.04.33.05.5.03.35.04.69.04 1.03"/><path fill="#e6e6e6" d="M116.75 369.03c0 1.72-.3 3.4-.86 4.97-2.03 5.7-7.44 10-14.15 10H62.5c-2.76 0-5-2.24-5-5V252l45 .49v22.01H80c-1.1 0-2 .9-2 2v84c0 1.1.9 2 2 2h35.4c.19.6.38 1.19.58 1.79.35 1.07.58 2.15.68 3.21.03.17.04.33.05.5.03.35.04.69.04 1.03"/><path fill="#ffe7c9" d="M423.123 157.199a7.5 7.5 0 0 1-4.495-13.508l44.996-33.623a7.5 7.5 0 0 1 10.497 1.519 7.5 7.5 0 0 1-1.519 10.497l-44.996 33.623a7.47 7.47 0 0 1-4.483 1.492M423.123 240.801a7.5 7.5 0 0 0-4.495 13.508l44.996 33.623a7.5 7.5 0 0 0 10.497-1.519 7.5 7.5 0 0 0-1.519-10.497l-44.996-33.623a7.47 7.47 0 0 0-4.483-1.492"/><path fill="#fd646f" d="M125.06 143v110H62.5c-15.19 0-28.94-6.16-38.89-16.11S7.5 213.19 7.5 198c0-30.38 24.62-55 55-55z"/><path fill="#fc4755" d="M125.06 220v33H62.5c-15.19 0-28.94-6.16-38.89-16.11-7.67-7.67-13.09-17.6-15.16-28.71C17.82 215.59 29.64 220 42.5 220z"/><path fill="#f0ecec" d="M294 37.07v321.86l-54.91-33.92-28.93-17.87L175 285.42l-15-9.26L122.5 253V143l37.5-23.16 15-9.27z"/><path fill="#fd646f" d="M175 110.57v174.85l-15-9.26V119.84z"/><path fill="#f5f5f5" d="M294 37.07v321.86l-1.5-.93-53.41-32.99-28.93-17.87L175 285.42l-15-9.26L122.5 253V143l27.5-16.98 10-6.18 15-9.27z"/><path fill="#fd646f" d="M175 110.57v153.69L160 255V119.84zM344.5 38v320c0 14.36-11.64 26-26 26-7.18 0-13.68-2.91-18.38-7.62-4.71-4.7-7.62-11.2-7.62-18.38V38c0-14.36 11.64-26 26-26s26 11.64 26 26"/><path fill="#fc4755" d="M175 249.04v36.38l-15-9.26v-36.38z"/><path fill="#e6e6e6" d="M292.5 321.62V358l-53.41-32.99-28.93-17.87L175 285.42v-36.38l9.46 5.84zM160 239.78v36.38L122.5 253v-33c.86.1 1.71.24 2.56.42 3.54.72 6.94 2.07 10.04 3.98l14.9 9.2z"/><path fill="#fc4755" d="M298.503 323.46c-1.933 2.456-5.981 1.159-6.003-1.966v-.074V358q0 .673.034 1.338a25.83 25.83 0 0 0 5.134 14.216 26 26 0 0 0 2.453 2.826 25.88 25.88 0 0 0 18.864 7.616c14.267-.259 25.516-12.313 25.516-26.582V287.55c-18.106 8.099-33.873 20.506-45.998 35.91"/><path fill="#fad207" d="M495.5 398.5c0 56.06-45.44 101.5-101.5 101.5-19.58 0-37.86-5.54-53.36-15.14-4.95-3.07-9.61-6.54-13.94-10.39-3.6-3.18-6.97-6.61-10.06-10.28-7.35-8.63-13.27-18.5-17.4-29.26-4.36-11.31-6.74-23.59-6.74-36.43 0-56.06 45.44-101.5 101.5-101.5 12.84 0 25.12 2.38 36.42 6.74a101.1 101.1 0 0 1 29.28 17.4c3.66 3.1 7.1 6.46 10.26 10.06 3.86 4.33 7.33 8.99 10.4 13.94 9.6 15.5 15.14 33.78 15.14 53.36"/><path fill="#f8c201" fill-rule="evenodd" d="M392 401.64v-37.71c10.6 2.49 18.5 9.76 18.5 18.07 0 4.14 3.36 7.5 7.5 7.5 2.245 0 4.096-1.117 5.629-2.557l9.619-9.588h-8.136c-2.411-14.399-15.862-25.947-33.112-28.715v-26.81h-2.93l-9.79 9.79c-.06.05-.11.1-.16.16l-.11.11.01.01A7.45 7.45 0 0 0 377 337v11.49c-5.855.82-11.29 2.654-16.041 5.262v-2.297l-9.753 9.738v.003c-5.454 5.753-8.707 12.973-8.707 20.804 0 16.79 14.94 30.77 34.5 33.51v37.78c-11.1-2.26-19.5-9.72-19.5-18.29 0-2.22-.972-4.209-2.506-5.583l-.042-9.965-10.043 10.042.003.008a7.47 7.47 0 0 0-2.412 5.497c0 16.79 14.94 30.77 34.5 33.51V480c0 4.14 3.36 7.5 7.5 7.5a7.46 7.46 0 0 0 4.863-1.798l9.98-9.976H392v-7.366c19.07-3.06 33.5-16.85 33.5-33.36s-14.43-30.3-33.5-33.36m-15-1.348c-11.096-2.265-19.5-9.723-19.5-18.292s8.404-16.027 19.5-18.292zm15 52.782v-36.149c10.597 2.498 18.5 9.765 18.5 18.074s-7.903 15.577-18.5 18.075" clip-rule="evenodd"/><path fill="#f5f5f5" d="M402 391.64v-37.715c10.597 2.498 18.5 9.765 18.5 18.074 0 4.143 3.357 7.5 7.5 7.5s7.5-3.357 7.5-7.5c0-16.506-14.433-30.296-33.5-33.36V327c0-4.143-3.357-7.5-7.5-7.5s-7.5 3.357-7.5 7.5v11.493c-19.56 2.735-34.5 16.714-34.5 33.507s14.94 30.772 34.5 33.507v37.785c-11.096-2.265-19.5-9.723-19.5-18.292 0-4.143-3.357-7.5-7.5-7.5s-7.5 3.357-7.5 7.5c0 16.793 14.94 30.772 34.5 33.507V470c0 4.143 3.357 7.5 7.5 7.5s7.5-3.357 7.5-7.5v-11.64c19.067-3.064 33.5-16.854 33.5-33.36s-14.433-30.296-33.5-33.36M367.5 372c0-8.569 8.404-16.027 19.5-18.292v36.584c-11.096-2.265-19.5-9.723-19.5-18.292m34.5 71.074v-36.149c10.597 2.498 18.5 9.765 18.5 18.074s-7.903 15.577-18.5 18.075"/><path fill="#ffe7c9" d="M504.5 206.5h-70c-4.143 0-7.5-3.357-7.5-7.5s3.357-7.5 7.5-7.5h70c4.143 0 7.5 3.357 7.5 7.5s-3.357 7.5-7.5 7.5"/><path d="M504.5 191.5h-70c-4.143 0-7.5 3.357-7.5 7.5s3.357 7.5 7.5 7.5h70c4.143 0 7.5-3.357 7.5-7.5s-3.357-7.5-7.5-7.5M423.123 157.199c.906 2.815 47.953-34.537 49.479-35.116a7.5 7.5 0 0 0-8.978-12.016l-44.995 33.624c-5.812 4.027-2.427 13.772 4.494 13.508M418.628 254.309l44.995 33.624c3.286 2.464 8.004 1.819 10.497-1.519a7.5 7.5 0 0 0-1.519-10.497l-44.995-33.624a7.5 7.5 0 0 0-8.978 12.016M420.5 372c0 4.143 3.357 7.5 7.5 7.5s7.5-3.357 7.5-7.5c0-16.506-14.433-30.296-33.5-33.36V327c0-4.143-3.357-7.5-7.5-7.5s-7.5 3.357-7.5 7.5v11.493c-19.56 2.735-34.5 16.714-34.5 33.507s14.94 30.772 34.5 33.507v37.785c-11.096-2.265-19.5-9.723-19.5-18.292 0-4.143-3.357-7.5-7.5-7.5s-7.5 3.357-7.5 7.5c0 16.793 14.94 30.772 34.5 33.507V470c0 4.143 3.357 7.5 7.5 7.5s7.5-3.357 7.5-7.5v-11.64c19.067-3.064 33.5-16.854 33.5-33.36s-14.433-30.296-33.5-33.36v-37.715c10.597 2.499 18.5 9.765 18.5 18.075m-53 0c0-8.569 8.404-16.027 19.5-18.292v36.584c-11.096-2.265-19.5-9.723-19.5-18.292m53 53c0 8.31-7.903 15.576-18.5 18.074v-36.149c10.597 2.499 18.5 9.765 18.5 18.075"/><path d="M394 289.5c-14.878 0-29.067 3-42 8.421v-37.887c30.937-3.719 55-30.111 55-62.034 0-3.608-.311-7.228-.923-10.756a7.501 7.501 0 0 0-14.779 2.567c.466 2.683.702 5.438.702 8.189 0 23.639-17.36 43.295-40 46.902v-93.803c9.513 1.507 18.342 5.858 25.402 12.642a7.5 7.5 0 1 0 10.392-10.816c-9.875-9.487-22.377-15.358-35.795-16.962V38c0-18.472-15.028-33.5-33.5-33.5-16.992 0-31.06 12.72-33.206 29.136L120.371 135.5H62.5C28.037 135.5 0 163.537 0 198c0 30.183 21.507 55.435 50 61.242V325.5c0 4.143 3.357 7.5 7.5 7.5s7.5-3.357 7.5-7.5v-65h30v20.037c0 29.31 4.665 58.28 13.864 86.108 1.696 4.662-2.162 10.002-7.121 9.854H65v-17c0-4.143-3.357-7.5-7.5-7.5s-7.5 3.357-7.5 7.5V384c0 4.143 3.357 7.5 7.5 7.5h44.243c14.878.443 26.452-15.577 21.362-29.563a258.9 258.9 0 0 1-13.105-81.4V260.5h10.371l85.848 53.023a7.5 7.5 0 0 0 7.883-12.761L175 276.611V119.389l110-67.941v293.105l-41.966-25.92a7.5 7.5 0 0 0-7.883 12.761l53.407 32.986c.033.02.069.034.102.054q.372.224.77.404.04.02.081.039.349.152.714.269A108.6 108.6 0 0 0 285 398.5c0 60.103 48.897 109 109 109s109-48.897 109-109-48.897-109-109-109m-279-44H62.5C36.309 245.5 15 224.191 15 198s21.309-47.5 47.5-47.5H115zm45 21.846-30-18.529V147.183l30-18.529zM318.5 19.5c10.201 0 18.5 8.299 18.5 18.5v267.629a109.84 109.84 0 0 0-37 37.75V38c0-10.201 8.299-18.5 18.5-18.5m75.5 473c-51.832 0-94-42.168-94-94s42.168-94 94-94 94 42.168 94 94-42.168 94-94 94"/></svg>