<svg xmlns="http://www.w3.org/2000/svg" width="512" height="512"><g fill="#50758d"><path d="M344.493 208a7.5 7.5 0 0 1-6.175-11.748l112-163a7.501 7.501 0 0 1 12.363 8.495l-112 163a7.49 7.49 0 0 1-6.188 3.253"/><path d="M344.495 208a7.47 7.47 0 0 1-4.661-1.628l-112-89a7.5 7.5 0 0 1-1.206-10.538 7.5 7.5 0 0 1 10.538-1.206l112 89A7.5 7.5 0 0 1 344.495 208"/><path d="M119.505 208a7.501 7.501 0 0 1-4.646-13.393l113-89a7.5 7.5 0 0 1 9.282 11.784l-113 89a7.47 7.47 0 0 1-4.636 1.609"/></g><circle cx="456.5" cy="37.5" r="30" fill="#93ddb7"/><circle cx="344.5" cy="200.5" r="30" fill="#2edffc"/><circle cx="232.5" cy="111.5" r="30" fill="#ffc682"/><circle cx="119.5" cy="200.5" r="30" fill="#fd646f"/><path fill="#fc4755" d="M138.78 223.47a29.82 29.82 0 0 1-19.28 7.03c-11.14 0-20.86-6.07-26.03-15.09-4.212-7.289-5.099-17.371-2.08-25.39 3.38-9.09 11.04-16.09 20.54-18.55a30.72 30.72 0 0 0-8.77 21.54c0 17.04 13.8 30.84 30.83 30.84 1.63 0 3.23-.13 4.79-.38"/><path fill="#ffac5c" d="M251.78 134.47a29.82 29.82 0 0 1-19.28 7.03c-11.14 0-20.86-6.07-26.03-15.09-4.212-7.289-5.099-17.371-2.08-25.39 3.38-9.09 11.04-16.09 20.54-18.55a30.72 30.72 0 0 0-8.77 21.54c0 17.04 13.8 30.84 30.83 30.84 1.63 0 3.23-.13 4.79-.38"/><path fill="#27bdf3" d="M363.78 223.47a29.82 29.82 0 0 1-19.28 7.03c-11.14 0-20.86-6.07-26.03-15.09-4.212-7.289-5.099-17.371-2.08-25.39 3.38-9.09 11.04-16.09 20.54-18.55a30.72 30.72 0 0 0-8.77 21.54c0 17.04 13.8 30.84 30.83 30.84 1.63 0 3.23-.13 4.79-.38"/><path fill="#5ed297" d="M475.78 60.47a29.82 29.82 0 0 1-19.28 7.03c-11.14 0-20.86-6.07-26.03-15.09-4.212-7.289-5.099-17.371-2.08-25.39 3.38-9.09 11.04-16.09 20.54-18.55a30.72 30.72 0 0 0-8.77 21.54c0 17.04 13.8 30.84 30.83 30.84 1.63 0 3.23-.13 4.79-.38"/><path fill="#50758d" d="M263.999 469.5H494.5c5.523 0 10 4.477 10 10v15c0 5.523-4.477 10-10 10h-472c-4.14 0-7.89-1.68-10.6-4.4-2.72-2.71-4.4-6.46-4.4-10.6v-472c0-5.523 4.477-10 10-10h15c5.523 0 10 4.477 10 10v452h187.499z"/><path fill="#2b597f" d="M37.5 504.5h-15c-4.14 0-7.89-1.68-10.6-4.4-2.72-2.71-4.4-6.46-4.4-10.6v-472c0-5.52 4.48-10 10-10h15c-5.52 0-10 4.48-10 10v472c0 4.14 1.68 7.89 4.4 10.6 2.71 2.72 6.46 4.4 10.6 4.4"/><path fill="#fd646f" d="M136.5 431.5h-30c-5.523 0-10-4.477-10-10v-120c0-5.523 4.477-10 10-10h30c5.523 0 10 4.477 10 10v120c0 5.523-4.477 10-10 10"/><path fill="#ffc682" d="M247.5 431.5h-30c-5.523 0-10-4.477-10-10v-209c0-5.523 4.477-10 10-10h30c5.523 0 10 4.477 10 10v209c0 5.523-4.477 10-10 10"/><path fill="#2edffc" d="M359.5 431.5h-30c-5.523 0-10-4.477-10-10v-120c0-5.523 4.477-10 10-10h30c5.523 0 10 4.477 10 10v120c0 5.523-4.477 10-10 10"/><path fill="#93ddb7" d="M471.5 431.5h-30c-5.523 0-10-4.477-10-10v-283c0-5.523 4.477-10 10-10h30c5.523 0 10 4.477 10 10v283c0 5.523-4.477 10-10 10"/><path fill="#fc4755" d="M126.5 431.5h-20c-5.52 0-10-4.48-10-10v-120c0-5.52 4.48-10 10-10h20c-5.52 0-10 4.48-10 10v120c0 5.52 4.48 10 10 10"/><path fill="#ffac5c" d="M237.5 431.5h-20c-5.52 0-10-4.48-10-10v-209c0-5.52 4.48-10 10-10h20c-5.52 0-10 4.48-10 10v209c0 5.52 4.48 10 10 10"/><path fill="#27bdf3" d="M349.5 431.5h-20c-5.52 0-10-4.48-10-10v-120c0-5.52 4.48-10 10-10h20c-5.52 0-10 4.48-10 10v120c0 5.52 4.48 10 10 10"/><path fill="#5ed297" d="M461.5 431.5h-20c-5.52 0-10-4.48-10-10v-283c0-5.52 4.48-10 10-10h20c-5.52 0-10 4.48-10 10v283c0 5.52 4.48 10 10 10"/><path d="M119.5 238c20.678 0 37.5-16.822 37.5-37.5 0-6.051-1.45-11.767-4.006-16.833l55.302-43.556c6.537 5.539 14.985 8.89 24.204 8.89 9.161 0 17.562-3.307 24.082-8.784l54.498 43.306A37.26 37.26 0 0 0 307 200.5c0 20.678 16.822 37.5 37.5 37.5s37.5-16.822 37.5-37.5c0-10.095-4.017-19.264-10.526-26.012l70.401-102.459A37.3 37.3 0 0 0 456.5 75c20.678 0 37.5-16.822 37.5-37.5S477.178 0 456.5 0 419 16.822 419 37.5c0 10.095 4.017 19.264 10.526 26.012l-70.401 102.459A37.3 37.3 0 0 0 344.499 163c-9.161 0-17.562 3.307-24.082 8.784l-54.498-43.306a37.26 37.26 0 0 0 4.08-16.977c0-20.678-16.822-37.5-37.5-37.5S195 90.822 195 111.5c0 6.051 1.45 11.767 4.006 16.833l-55.302 43.556c-6.537-5.539-14.985-8.89-24.204-8.89C98.822 163 82 179.822 82 200.5S98.822 238 119.5 238m337-223c12.407 0 22.5 10.093 22.5 22.5S468.907 60 456.5 60 434 49.907 434 37.5 444.093 15 456.5 15m-112 163c12.407 0 22.5 10.093 22.5 22.5S356.907 223 344.5 223 322 212.907 322 200.5s10.093-22.5 22.5-22.5m-112-89c12.407 0 22.5 10.093 22.5 22.5S244.907 134 232.5 134 210 123.907 210 111.5 220.093 89 232.5 89m-113 89c12.407 0 22.5 10.093 22.5 22.5S131.907 223 119.5 223 97 212.907 97 200.5s10.093-22.5 22.5-22.5M504.5 462H264a7.5 7.5 0 0 0 0 15h233v20H22.5c-2 0-3.878-.779-5.306-2.213A7.4 7.4 0 0 1 15 489.5V395a7.5 7.5 0 0 0-15 0v94.5c0 6.017 2.346 11.668 6.587 15.894A22.31 22.31 0 0 0 22.5 512h482a7.5 7.5 0 0 0 7.5-7.5v-35a7.5 7.5 0 0 0-7.5-7.5"/><path d="M7.5 368.5A7.5 7.5 0 0 0 15 361V15h20v454.5a7.5 7.5 0 0 0 7.5 7.5H230a7.5 7.5 0 0 0 0-15H50V7.5A7.5 7.5 0 0 0 42.5 0h-35A7.5 7.5 0 0 0 0 7.5V361a7.5 7.5 0 0 0 7.5 7.5"/><path d="M96.5 284a7.5 7.5 0 0 0-7.5 7.5v140a7.5 7.5 0 0 0 7.5 7.5h50a7.5 7.5 0 0 0 7.5-7.5v-140a7.5 7.5 0 0 0-7.5-7.5zM139 424h-35V299h35zM207.5 195a7.5 7.5 0 0 0-7.5 7.5v229a7.5 7.5 0 0 0 7.5 7.5h50a7.5 7.5 0 0 0 7.5-7.5v-229a7.5 7.5 0 0 0-7.5-7.5zM250 424h-35V210h35zM319.5 284a7.5 7.5 0 0 0-7.5 7.5v140a7.5 7.5 0 0 0 7.5 7.5h50a7.5 7.5 0 0 0 7.5-7.5v-140a7.5 7.5 0 0 0-7.5-7.5zM362 424h-35V299h35zM431.5 121a7.5 7.5 0 0 0-7.5 7.5v303a7.5 7.5 0 0 0 7.5 7.5h50a7.5 7.5 0 0 0 7.5-7.5v-303a7.5 7.5 0 0 0-7.5-7.5zM474 424h-35V136h35z"/></svg>