<svg xmlns="http://www.w3.org/2000/svg" width="512" height="512"><path fill="#f5f5f5" d="M504.5 147v268c0 22.09-17.91 40-40 40h-417c-22.09 0-40-17.91-40-40V147z"/><path fill="#fff" d="M415.5 297.13c0 8.29-3.36 15.79-8.79 21.21-5.43 5.43-12.93 8.79-21.21 8.79h-259c-16.57 0-30-13.43-30-30 0-8.29 3.36-15.79 8.79-21.21 5.43-5.43 12.93-8.79 21.21-8.79h259c16.57 0 30 13.43 30 30"/><path fill="#f5f5f5" d="M348 267.13h15v60h-15z"/><path fill="#e6e6e6" d="M504.5 167v-20L256 137 7.5 147v268c0 22.09 17.91 40 40 40h20c-22.09 0-40-17.91-40-40V167z"/><path fill="#50758d" d="M504.5 97v50H7.5V97c0-22.09 17.91-40 40-40h417c22.09 0 40 17.91 40 40"/><g fill="#2b597f"><path d="M482 102c0-12.406-10.093-22.5-22.5-22.5h-213c-6.385 0-12.152 2.677-16.251 6.963-4.767 4.757-2.529 2.519-7.286 7.286C218.677 97.848 216 103.615 216 110c0 12.406 10.093 22.5 22.5 22.5h213c6.385 0 12.152-2.677 16.251-6.963 4.767-4.757 2.529-2.519 7.286-7.286C479.323 114.152 482 108.385 482 102M75.75 101.75c0-12.406-10.093-22.5-22.5-22.5-6.385 0-12.152 2.677-16.251 6.963-4.767 4.757-2.529 2.519-7.286 7.286-4.286 4.099-6.963 9.866-6.963 16.251 0 12.406 10.093 22.5 22.5 22.5 6.385 0 12.152-2.677 16.251-6.963 4.767-4.757 2.529-2.519 7.286-7.286 4.286-4.099 6.963-9.866 6.963-16.251M140 101.75c0-12.406-10.093-22.5-22.5-22.5-6.385 0-12.152 2.677-16.251 6.963-4.767 4.757-2.529 2.519-7.286 7.286C89.677 97.598 87 103.365 87 109.75c0 12.406 10.093 22.5 22.5 22.5 6.385 0 12.152-2.677 16.251-6.963 4.767-4.757 2.529-2.519 7.286-7.286 4.286-4.099 6.963-9.866 6.963-16.251M204 101.75c0-12.406-10.093-22.5-22.5-22.5-6.385 0-12.152 2.677-16.251 6.963-4.767 4.757-2.529 2.519-7.286 7.286-4.286 4.099-6.963 9.866-6.963 16.251 0 12.406 10.093 22.5 22.5 22.5 6.385 0 12.152-2.677 16.251-6.963 4.767-4.757 2.529-2.519 7.286-7.286 4.286-4.099 6.963-9.866 6.963-16.251"/></g><path fill="#fd646f" d="M53.25 124.25c-12.407 0-22.5-10.094-22.5-22.5s10.093-22.5 22.5-22.5 22.5 10.094 22.5 22.5-10.093 22.5-22.5 22.5"/><path fill="#ffc682" d="M117.5 124.5c-12.407 0-22.5-10.094-22.5-22.5s10.093-22.5 22.5-22.5S140 89.594 140 102s-10.093 22.5-22.5 22.5"/><path fill="#93ddb7" d="M181.5 124.5c-12.407 0-22.5-10.094-22.5-22.5s10.093-22.5 22.5-22.5S204 89.594 204 102s-10.093 22.5-22.5 22.5"/><path fill="#f5f5f5" d="M459.5 124.5h-213c-12.407 0-22.5-10.094-22.5-22.5s10.093-22.5 22.5-22.5h213c12.407 0 22.5 10.094 22.5 22.5s-10.093 22.5-22.5 22.5"/><path d="M464.5 49.5H109c-4.142 0-7.5 3.357-7.5 7.5s3.358 7.5 7.5 7.5h355.5c17.92 0 32.5 14.579 32.5 32.5v42.5H381c-4.142 0-7.5 3.357-7.5 7.5s3.358 7.5 7.5 7.5h116v208c0 4.143 3.358 7.5 7.5 7.5s7.5-3.357 7.5-7.5V97c0-26.191-21.309-47.5-47.5-47.5"/><path d="M504.5 390a7.5 7.5 0 0 0-7.5 7.5V415c0 17.921-14.58 32.5-32.5 32.5h-417C29.58 447.5 15 432.921 15 415V154.5h331c4.142 0 7.5-3.357 7.5-7.5s-3.358-7.5-7.5-7.5H15V97c0-17.921 14.58-32.5 32.5-32.5H74c4.142 0 7.5-3.357 7.5-7.5s-3.358-7.5-7.5-7.5H47.5C21.309 49.5 0 70.809 0 97v318c0 26.191 21.309 47.5 47.5 47.5h417c26.191 0 47.5-21.309 47.5-47.5v-17.5a7.5 7.5 0 0 0-7.5-7.5"/><path d="M53.25 79.25c-12.407 0-22.5 10.094-22.5 22.5s10.093 22.5 22.5 22.5 22.5-10.094 22.5-22.5-10.093-22.5-22.5-22.5m0 30c-4.136 0-7.5-3.364-7.5-7.5s3.364-7.5 7.5-7.5 7.5 3.364 7.5 7.5-3.364 7.5-7.5 7.5M140 102c0-12.406-10.093-22.5-22.5-22.5S95 89.594 95 102s10.093 22.5 22.5 22.5S140 114.406 140 102m-30 0c0-4.136 3.364-7.5 7.5-7.5s7.5 3.364 7.5 7.5-3.364 7.5-7.5 7.5-7.5-3.364-7.5-7.5M204 102c0-12.406-10.093-22.5-22.5-22.5S159 89.594 159 102s10.093 22.5 22.5 22.5S204 114.406 204 102m-30 0c0-4.136 3.364-7.5 7.5-7.5s7.5 3.364 7.5 7.5-3.364 7.5-7.5 7.5-7.5-3.364-7.5-7.5M459.5 124.5c12.407 0 22.5-10.094 22.5-22.5s-10.093-22.5-22.5-22.5h-213c-12.407 0-22.5 10.094-22.5 22.5s10.093 22.5 22.5 22.5zM239 102c0-4.136 3.364-7.5 7.5-7.5h213c4.136 0 7.5 3.364 7.5 7.5s-3.364 7.5-7.5 7.5h-213c-4.136 0-7.5-3.364-7.5-7.5M174 319.627c-4.142 0-7.5 3.357-7.5 7.5s3.358 7.5 7.5 7.5h211.5c20.678 0 37.5-16.822 37.5-37.5s-16.822-37.5-37.5-37.5h-259c-20.678 0-37.5 16.822-37.5 37.5s16.822 37.5 37.5 37.5H139c4.142 0 7.5-3.357 7.5-7.5s-3.358-7.5-7.5-7.5h-12.5c-12.407 0-22.5-10.094-22.5-22.5s10.093-22.5 22.5-22.5H348v45zm189-45h22.5c12.407 0 22.5 10.094 22.5 22.5s-10.093 22.5-22.5 22.5H363z"/></svg>