<svg xmlns="http://www.w3.org/2000/svg" width="512" height="512" viewBox="0 0 512.001 512.001"><path fill="#2b597f" d="M460.848 233.123a205 205 0 0 0-5.548-30.751 10 10 0 0 1 2.374-9.364l24.409-26.029a10 10 0 0 0 1.366-11.841l-28.738-49.775a10 10 0 0 0-10.938-4.737l-34.998 8.187a10 10 0 0 1-9.241-2.57 206 206 0 0 0-24.037-20.008 10 10 0 0 1-4.199-8.7l1.971-35.629a10 10 0 0 0-6.565-9.95l-54.011-19.654a10 10 0 0 0-11.423 3.401l-21.552 28.768a10 10 0 0 1-8.749 3.969 204 204 0 0 0-31.284.095 10 10 0 0 1-8.806-3.965L209.51 16.044a10 10 0 0 0-11.425-3.401l-41.476 15.101-12.535 4.562a10 10 0 0 0-6.565 9.949l1.984 35.889a10 10 0 0 1-4.146 8.661 205 205 0 0 0-23.913 20.183 10 10 0 0 1-9.295 2.623l-34.702-8.117a10 10 0 0 0-10.938 4.737l-28.738 49.775a10 10 0 0 0 1.366 11.841l24.625 26.257a10 10 0 0 1 2.389 9.308 206 206 0 0 0-5.376 30.792 10 10 0 0 1-5.447 7.974l-31.241 15.741a10 10 0 0 0-5.363 10.579l9.521 56.957a10 10 0 0 0 8.673 8.28l35.669 4.277a10 10 0 0 1 7.812 5.594 206 206 0 0 0 15.684 27.058 10 10 0 0 1 .962 9.599L73.02 413.024a10 10 0 0 0 2.765 11.593l44.02 36.947a10 10 0 0 0 11.899.711l30.153-19.705a10 10 0 0 1 9.575-.74 207 207 0 0 0 29.389 10.632 10 10 0 0 1 6.904 6.735l10.325 34.135a10 10 0 0 0 9.572 7.105h57.475a10 10 0 0 0 9.572-7.105l8.391-27.745 2.034-6.711a10 10 0 0 1 6.855-6.717q2.293-.651 4.581-1.352l151.25-115.99 17.216-2.068a10 10 0 0 0 8.668-8.265l9.608-56.962a10 10 0 0 0-5.373-10.6l-31.597-15.868a10 10 0 0 1-5.454-7.931M257.747 346.72c-52.193.968-94.698-41.538-93.73-93.73.912-49.188 41.049-89.325 90.237-90.237 52.193-.968 94.698 41.538 93.73 93.73-.912 49.188-41.049 89.325-90.237 90.237"/><path fill="#f5f5f5" d="M256.501 112.237c-78.42 0-142 63.58-142 142s63.58 142 142 142c1.09 0 2.17-.01 3.25-.04 76.62-1.72 138.27-64.14 138.75-141.05v-.91c0-78.42-63.58-142-142-142m6.59 222.73c-2.17.18-4.37.27-6.59.27-44.74 0-81-36.26-81-81s36.26-81 81-81 81 36.26 81 81c0 1.78-.06 3.55-.18 5.3-2.58 40.09-34.32 72.22-74.23 75.43"/><path fill="#e6e6e6" d="M134.501 254.237c0-75.06 58.24-136.52 132-141.65-3.3-.23-6.64-.35-10-.35-78.42 0-142 63.58-142 142s63.58 142 142 142c1.09 0 2.17-.01 3.25-.04 2.25-.05 4.49-.15 6.71-.31-73.74-5.15-131.96-66.61-131.96-141.65"/><path fill="#6b96ae" d="m432.265 449.166 19.8-19.8 47.65 48.368c5.666 5.557 5.72 14.659.121 20.258-5.556 5.556-14.573 5.552-20.148-.01z"/><path fill="#2b597f" d="m451.372 428.642-19.988 19.584 25.436 26.215 19.777-20.175z"/><path fill="#e6e6e6" d="M314.741 310.517v73.26c-16.84 7.58-35.43 11.98-54.99 12.42a118 118 0 0 1-2.51-24.32c0-12.61 1.96-25.02 5.85-36.91 20.23-1.63 38.36-10.68 51.65-24.45"/><path fill="#50758d" d="M277.241 371.875c0-11.513 1.968-22.567 5.586-32.843 13.54-38.456 50.189-66.019 93.275-66.019 54.6 0 98.861 44.262 98.861 98.861s-44.262 98.861-98.861 98.861-98.861-44.26-98.861-98.86"/><path fill="#27bdf3" d="M446.391 371.877c0 12.65-3.35 24.52-9.21 34.78-.45.79-.91 1.56-1.39 2.33-12.39 19.92-34.49 33.18-59.69 33.18-38.82 0-70.28-31.47-70.28-70.29 0-8.19 1.39-16.05 3.97-23.35 3.56-10.12 9.38-19.18 16.84-26.58 1.28-1.27 2.61-2.49 3.98-3.65 12.26-10.43 28.14-16.71 45.49-16.71 38.82 0 70.29 31.47 70.29 70.29"/><path fill="#2edffc" d="M446.391 371.877c0 12.65-3.35 24.52-9.21 34.78-12.26 10.45-28.15 16.74-45.51 16.74-38.81 0-70.28-31.47-70.28-70.29 0-8.18 1.4-16.04 3.97-23.35 1.41-4 3.17-7.83 5.25-11.46 12.26-10.43 28.14-16.71 45.49-16.71 38.82 0 70.29 31.47 70.29 70.29"/><path d="M376.103 294.088c-32.956 0-62.449 20.876-73.39 51.946a77.6 77.6 0 0 0-4.397 25.841c0 42.892 34.896 77.786 77.787 77.786s77.786-34.895 77.786-77.786-34.894-77.787-77.786-77.787m0 140.573c-34.621 0-62.787-28.166-62.787-62.786a62.6 62.6 0 0 1 3.546-20.858c8.83-25.079 32.638-41.929 59.241-41.929 34.62 0 62.786 28.166 62.786 62.787s-28.166 62.786-62.786 62.786"/><path d="m504.912 468.647-39.057-40.016c10.392-16.428 16.417-35.883 16.417-56.722 0-10.54-1.543-20.861-4.512-30.73l15.358-1.842a7.5 7.5 0 0 0 6.5-6.2l12.073-71.63a7.5 7.5 0 0 0-4.028-7.95l-39.406-19.801a214 214 0 0 0-6.235-34.595l30.416-32.446a7.505 7.505 0 0 0 1.024-8.882l-36.145-62.636a7.49 7.49 0 0 0-8.2-3.553l-43.54 10.188a213 213 0 0 0-13.733-12.381 215 215 0 0 0-12.831-9.806l-.455-.321 2.453-44.408a7.5 7.5 0 0 0-4.921-7.463L308.16 2.715a7.49 7.49 0 0 0-8.565 2.552L272.79 41.074a212 212 0 0 0-35.181.104L210.98 5.612a7.49 7.49 0 0 0-8.565-2.552l-67.931 24.737a7.5 7.5 0 0 0-4.921 7.463l2.468 44.672a213 213 0 0 0-26.886 22.699L61.898 92.512a7.49 7.49 0 0 0-8.2 3.553L17.552 158.7a7.505 7.505 0 0 0 1.024 8.882l30.622 32.666a214 214 0 0 0-6.04 34.638L4.124 254.562a7.5 7.5 0 0 0-4.021 7.935l11.965 71.615a7.5 7.5 0 0 0 6.502 6.211l44.443 5.331a213.5 213.5 0 0 0 17.631 30.434l-17.47 40.848a7.5 7.5 0 0 0 2.073 8.696l55.378 46.491a7.49 7.49 0 0 0 8.92.533l37.493-24.513a215 215 0 0 0 33.026 11.957l12.871 42.558a7.5 7.5 0 0 0 7.176 5.329h72.291a7.5 7.5 0 0 0 7.176-5.329l12.966-42.868c.841-.233 1.673-.492 2.513-.735 17.26 12.11 38.262 19.228 60.897 19.228 20.645 0 39.93-5.924 56.259-16.153l38.818 40.501c8.904 9.425 25.058 9.49 34.016.115 9.333-8.99 9.255-25.176-.135-34.099M284.628 371.91c0-10.415 1.736-20.628 5.159-30.354 12.844-36.496 47.471-61.015 86.167-61.015 18.302 0 35.956 5.394 51.056 15.6a7.494 7.494 0 0 0 10.409-2.017 7.504 7.504 0 0 0-2.016-10.414 105.7 105.7 0 0 0-30.359-14.122c.517-5.082.795-10.212.795-15.327 0-82.442-67.039-149.514-149.441-149.514-17.278 0-34.215 2.926-50.341 8.698-3.898 1.395-5.928 5.688-4.533 9.589s5.686 5.932 9.584 4.536c14.5-5.19 29.738-7.821 45.291-7.821 74.134 0 134.447 60.343 134.447 134.513 0 4.088-.207 8.184-.574 12.253a107 107 0 0 0-14.318-.974 106 106 0 0 0-32.612 5.137 89 89 0 0 0 1.522-16.416c0-48.803-39.685-88.508-88.465-88.508s-88.465 39.705-88.465 88.508c0 18.954 5.902 37.029 17.069 52.271 2.461 3.363 7.173 4.049 10.478 1.615a7.5 7.5 0 0 0 1.615-10.483c-9.269-12.653-14.168-27.661-14.168-43.403 0-40.532 32.959-73.507 73.471-73.507s73.471 32.975 73.471 73.507c0 8.187-1.34 16.191-3.961 23.84-18.888 10.095-34.587 25.795-44.59 45.318a73.1 73.1 0 0 1-24.919 4.349c-12.41 0-24.672-3.151-35.459-9.11a7.493 7.493 0 0 0-10.187 2.94 7.503 7.503 0 0 0 2.938 10.192c13.001 7.183 27.769 10.98 42.708 10.98 6.037 0 11.987-.618 17.811-1.81a106.3 106.3 0 0 0-4.576 30.951c0 5.468.416 10.841 1.215 16.089-4.79.511-9.624.773-14.45.773-74.134 0-134.447-60.343-134.447-134.513 0-44.894 22.268-86.665 59.568-111.738a7.503 7.503 0 0 0 2.042-10.409 7.496 7.496 0 0 0-10.404-2.043c-41.452 27.864-66.2 74.29-66.2 124.19 0 82.442 67.039 149.514 149.441 149.514 5.942 0 11.9-.358 17.788-1.055 5.261 17.362 14.848 32.858 27.502 45.231a7.5 7.5 0 0 0-2.287 3.495l-12.563 41.539h-61.162L213.2 451.73a7.5 7.5 0 0 0-5.359-5.105 199.8 199.8 0 0 1-38.151-13.809 7.5 7.5 0 0 0-7.353.48l-36.335 23.756-46.853-39.334 16.935-39.597a7.5 7.5 0 0 0-.828-7.359A198.5 198.5 0 0 1 74.9 335.628a7.5 7.5 0 0 0-5.945-4.37l-43.024-5.161-10.128-60.624 37.865-19.086a7.5 7.5 0 0 0 4.105-6.175 199 199 0 0 1 6.972-40.004 7.5 7.5 0 0 0-1.746-7.169l-29.68-31.659 30.582-52.994 41.931 9.811a7.49 7.49 0 0 0 7.107-2.1 197.5 197.5 0 0 1 31.028-26.2 7.5 7.5 0 0 0 3.267-6.615l-2.392-43.294 57.474-20.929 25.817 34.483a7.49 7.49 0 0 0 6.793 2.962 197 197 0 0 1 40.603-.121 7.5 7.5 0 0 0 6.753-2.966l25.98-34.701 57.473 20.93-2.379 43.06a7.5 7.5 0 0 0 3.304 6.64 198.4 198.4 0 0 1 31.195 25.984 7.5 7.5 0 0 0 7.069 2.062l42.191-9.873 30.581 52.994-29.491 31.46a7.51 7.51 0 0 0-1.736 7.209 198.6 198.6 0 0 1 7.202 39.959 7.5 7.5 0 0 0 4.111 6.139l38.205 19.196-10.221 60.634-13.538 1.624a106.6 106.6 0 0 0-9.799-16.722 7.498 7.498 0 1 0-12.189 8.739c11.147 15.561 17.038 33.943 17.038 53.157 0 50.382-40.968 91.37-91.325 91.37s-91.325-40.987-91.325-91.368m172.21 68.955 8.928 9.147-12.723 12.176-8.608-8.982a107.4 107.4 0 0 0 12.403-12.341m37.587 51.29c-3.325 3.476-9.283 3.474-12.634.028l-18.371-19.167 12.822-12.27 17.989 18.431c3.648 3.336 3.76 9.548.194 12.978"/></svg>