<svg xmlns="http://www.w3.org/2000/svg" width="512" height="512"><path fill="#f8c201" fill-rule="evenodd" d="M319.715 436.483H195.051l17.347-28h89.97z" clip-rule="evenodd"/><path fill="#faa515" d="m235.96 408.483-6.53 10.54-10.82 17.46h-23.53l-.284-15.68 17.634-12.32zM319.73 436.483h-23.52l-17.34-28h23.52l18.67 14z"/><path fill="#f8c201" fill-rule="evenodd" d="m245.36 355.367-4.11 6.64-13.56 21.87-67.36 108.66c-2.62 4.26-7.18 6.61-11.84 6.61-2.48 0-4.99-.67-7.25-2.06-6.53-4.02-8.57-12.56-4.56-19.09l59.85-94.12 14.28-22.46 3.85-6.05zM373.53 497.087a13.84 13.84 0 0 1-7.25 2.06c-4.67 0-9.22-2.35-11.84-6.61l-67.38-108.66-13.4-21.61-4.28-6.9h30.9l4.12 6.49 13.97 22.02 59.71 94.12c4.02 6.53 1.98 15.07-4.55 19.09" clip-rule="evenodd"/><path fill="#faa515" d="m241.25 362.007-13.56 21.87h-31.16l14.28-22.46 10.1-6.05h5.76zM318.37 383.877h-31.31l-13.4-21.61 14.34-6.9h5.58l10.82 6.49z"/><path fill="#fd646f" d="M504.5 22.877v27.42l-248.5 10-248.5-10v-27.42c0-5.53 4.48-10 10-10h477c5.52 0 10 4.47 10 10"/><path fill="#fc4755" d="M37.5 12.877c-5.52 0-10 4.47-10 10v27.42l-10.117 10-9.883-10v-27.42c0-5.53 4.48-10 10-10z"/><path fill="#f5f5f5" d="M504.5 50.297v303.58c0 5.52-4.48 10-10 10h-477c-5.52 0-10-4.48-10-10V50.297z"/><path fill="#e6e6e6" d="M504.5 50.297v20h-467c-5.523 0-10 4.477-10 10v283.58h-10c-5.523 0-10-4.477-10-10V50.297H253z"/><path fill="#50758d" d="M309 108.797H70.5c-4.143 0-7.5-3.357-7.5-7.5s3.357-7.5 7.5-7.5H309c4.143 0 7.5 3.357 7.5 7.5s-3.357 7.5-7.5 7.5M259.25 159.797H70.5c-4.143 0-7.5-3.357-7.5-7.5s3.357-7.5 7.5-7.5h188.75c4.143 0 7.5 3.357 7.5 7.5s-3.357 7.5-7.5 7.5"/><path fill="#93ddb7" d="M439 321.797h-79.5c-5.523 0-10-4.477-10-10v-149.5c0-5.523 4.477-10 10-10H439c5.523 0 10 4.477 10 10v149.5c0 5.523-4.477 10-10 10"/><path fill="#ffc682" d="M219.5 204.255H299c5.523 0 10 4.477 10 10v97.542c0 5.523-4.477 10-10 10h-79.5c-5.523 0-10-4.477-10-10v-97.542c0-5.522 4.477-10 10-10"/><path fill="#fd646f" d="M80.5 255.255H160c5.523 0 10 4.477 10 10v46.542c0 5.523-4.477 10-10 10H80.5c-5.523 0-10-4.477-10-10v-46.542c0-5.522 4.477-10 10-10"/><path fill="#5ed297" d="M379.5 321.797h-20c-5.52 0-10-4.48-10-10v-149.5c0-5.52 4.48-10 10-10h20c-5.52 0-10 4.48-10 10v149.5c0 5.52 4.48 10 10 10"/><path fill="#ffac5c" d="M239.5 321.797h-20c-5.52 0-10-4.48-10-10v-97.54c0-5.52 4.48-10 10-10h20c-5.52 0-10 4.48-10 10v97.54c0 5.52 4.48 10 10 10"/><path fill="#fc4755" d="M100.5 321.797h-20c-5.52 0-10-4.48-10-10v-46.54c0-5.52 4.48-10 10-10h20c-5.52 0-10 4.48-10 10v46.54c0 5.52 4.48 10 10 10"/><path d="M309 93.797H70.5c-4.143 0-7.5 3.357-7.5 7.5s3.357 7.5 7.5 7.5H309c4.143 0 7.5-3.357 7.5-7.5s-3.357-7.5-7.5-7.5M266.75 152.297c0-4.143-3.357-7.5-7.5-7.5H70.5c-4.143 0-7.5 3.357-7.5 7.5s3.357 7.5 7.5 7.5h188.75c4.143 0 7.5-3.357 7.5-7.5M449 229.297c4.143 0 7.5-3.357 7.5-7.5v-69.5c0-4.143-3.357-7.5-7.5-7.5h-99.5a7.5 7.5 0 0 0-7.5 7.5v169.5c0 4.143 3.357 7.5 7.5 7.5H449c4.143 0 7.5-3.357 7.5-7.5v-65c0-4.143-3.357-7.5-7.5-7.5s-7.5 3.357-7.5 7.5v57.5H357v-154.5h84.5v62c0 4.143 3.357 7.5 7.5 7.5M209.5 329.297H309c4.143 0 7.5-3.357 7.5-7.5V204.255c0-4.143-3.357-7.5-7.5-7.5h-99.5a7.5 7.5 0 0 0-7.5 7.5v117.542c0 4.143 3.357 7.5 7.5 7.5m7.5-117.542h84.5v102.542H217zM70.5 247.755a7.5 7.5 0 0 0-7.5 7.5v66.542c0 4.143 3.357 7.5 7.5 7.5H170c4.143 0 7.5-3.357 7.5-7.5v-66.542c0-4.143-3.357-7.5-7.5-7.5zm92 66.542H78v-51.542h84.5z"/><path d="M494.5 5.373H105c-4.143 0-7.5 3.357-7.5 7.5s3.357 7.5 7.5 7.5h389.5c1.379 0 2.5 1.121 2.5 2.5v19.924H352c-4.143 0-7.5 3.357-7.5 7.5s3.357 7.5 7.5 7.5h145v296.076c0 1.379-1.121 2.5-2.5 2.5h-477a2.5 2.5 0 0 1-2.5-2.5V57.797h302c4.143 0 7.5-3.357 7.5-7.5s-3.357-7.5-7.5-7.5H15V22.873c0-1.379 1.121-2.5 2.5-2.5H70c4.143 0 7.5-3.357 7.5-7.5s-3.357-7.5-7.5-7.5H17.5c-9.649 0-17.5 7.851-17.5 17.5v331c0 9.649 7.851 17.5 17.5 17.5h178.102l-21.041 33.085a7.5 7.5 0 0 0 2.304 10.353c3.443 2.205 8.117 1.221 10.353-2.304l26.16-41.134h12.986l-72.427 117.231c-4.192 7.101-15.277.334-10.891-6.643l25.529-40.143a7.5 7.5 0 0 0-2.304-10.353 7.497 7.497 0 0 0-10.353 2.304l-25.565 40.199c-6.3 9.665-2.997 23.671 6.954 29.505 9.706 6.199 23.572 2.934 29.399-7l32.43-52.492h116.355l32.559 52.479c5.838 9.951 19.695 13.212 29.407 7.015 10.043-6.174 13.189-19.367 7.017-29.409l-.062-.097-65.25-102.597H494.5c9.649 0 17.5-7.851 17.5-17.5v-331c0-9.648-7.851-17.499-17.5-17.499m-224.056 366 18.37 29.609h-63.111l18.293-29.609zm-62.039 57.61 8.032-13h81.684l8.065 13zm163.316 52.98c4.385 6.993-6.721 13.753-10.908 6.615l-72.716-117.205h13.292z"/></svg>