<svg xmlns="http://www.w3.org/2000/svg" width="512" height="512" viewBox="0 0 512.001 512.001"><path fill="#fad207" d="M432.501 55.501v439c0 5.52-4.48 10-10 10h-333c-5.52 0-10-4.48-10-10v-439c0-5.52 4.48-10 10-10h333c5.52 0 10 4.48 10 10"/><path fill="#faa515" d="M95.501 94.85v386.57a7.08 7.08 0 0 0 7.081 7.081h201.777c2.652 0 5.196-1.054 7.071-2.929l77.071-77.071v-319H115.426L113.74 77.33l-13.79 9.202a10 10 0 0 0-4.449 8.318"/><path fill="#f5f5f5" d="M402.501 85.501v309l-60 22-20 58h-203c-5.523 0-10-4.477-10-10v-379c0-5.523 4.477-10 10-10h273c5.522 0 10 4.477 10 10"/><path fill="#e6e6e6" d="m402.501 394.501-80 80v-70c0-5.523 4.477-10 10-10zM356.641 75.501v19.43c0 13.78-11.22 25-25 25H180.36c-13.78 0-25-11.22-25-25v-19.43z"/><path fill="#faa515" d="M155.36 45.501h201.28v30H155.36z"/><path fill="#50758d" d="M341.639 45.48v49.447c0 5.523-4.477 10-10 10H180.362c-5.523 0-10-4.477-10-10V45.48l55.507.001a31.3 31.3 0 0 1-.669-9.991c1.382-14.945 13.632-26.88 28.605-27.913 18.078-1.247 33.13 13.049 33.13 30.86a31 31 0 0 1-.806 7.044z"/><path fill="#5ed297" d="M179.391 205.597a7.5 7.5 0 0 1-5.198-2.094l-25.337-24.362c-2.986-2.871-3.079-7.619-.208-10.604s7.62-3.078 10.604-.208l19.689 18.933 30.877-35.051a7.5 7.5 0 0 1 11.256 9.916l-36.056 40.929a7.5 7.5 0 0 1-5.627 2.541"/><path fill="#50758d" d="M351.501 185.132h-106c-4.143 0-7.5-3.357-7.5-7.5s3.357-7.5 7.5-7.5h106c4.143 0 7.5 3.357 7.5 7.5s-3.358 7.5-7.5 7.5"/><path fill="#5ed297" d="M179.391 293.828a7.5 7.5 0 0 1-5.198-2.094l-25.337-24.362a7.5 7.5 0 0 1-.208-10.604 7.5 7.5 0 0 1 10.604-.208l19.701 18.943 30.929-34.971a7.5 7.5 0 0 1 10.587-.649 7.5 7.5 0 0 1 .649 10.587l-36.109 40.827a7.5 7.5 0 0 1-5.618 2.531"/><g fill="#50758d"><path d="M351.501 273.001h-106c-4.143 0-7.5-3.357-7.5-7.5s3.357-7.5 7.5-7.5h106c4.143 0 7.5 3.357 7.5 7.5s-3.358 7.5-7.5 7.5M351.501 364.132h-17.5c-4.143 0-7.5-3.357-7.5-7.5s3.357-7.5 7.5-7.5h17.5c4.143 0 7.5 3.357 7.5 7.5s-3.358 7.5-7.5 7.5M299.001 364.132h-53.5c-4.143 0-7.5-3.357-7.5-7.5s3.357-7.5 7.5-7.5h53.5c4.143 0 7.5 3.357 7.5 7.5s-3.358 7.5-7.5 7.5"/></g><path fill="#fd646f" d="M206.501 387.132h-46a7.5 7.5 0 0 1-7.5-7.5v-46c0-4.143 3.357-7.5 7.5-7.5h46c4.143 0 7.5 3.357 7.5 7.5v46a7.5 7.5 0 0 1-7.5 7.5m-38.5-15h31v-31h-31z"/><path d="M174.193 203.503c2.936 2.941 8.146 2.723 10.826-.448l36.056-40.929a7.5 7.5 0 0 0-11.256-9.916l-30.877 35.051-19.689-18.933c-2.984-2.87-7.733-2.777-10.604.208s-2.778 7.733.208 10.604zM245.501 185.132h106c4.143 0 7.5-3.357 7.5-7.5s-3.357-7.5-7.5-7.5h-106c-4.143 0-7.5 3.357-7.5 7.5s3.357 7.5 7.5 7.5M148.856 267.372l25.337 24.362c2.932 2.937 8.134 2.723 10.816-.438l36.109-40.827a7.501 7.501 0 0 0-11.236-9.938l-30.929 34.971-19.701-18.943a7.5 7.5 0 0 0-10.396 10.813M245.501 273.001h106c4.143 0 7.5-3.357 7.5-7.5s-3.357-7.5-7.5-7.5h-106c-4.143 0-7.5 3.357-7.5 7.5s3.357 7.5 7.5 7.5M351.501 349.132h-17.5c-4.143 0-7.5 3.357-7.5 7.5s3.357 7.5 7.5 7.5h17.5c4.143 0 7.5-3.357 7.5-7.5s-3.358-7.5-7.5-7.5M245.501 364.132h53.5c4.143 0 7.5-3.357 7.5-7.5s-3.357-7.5-7.5-7.5h-53.5c-4.143 0-7.5 3.357-7.5 7.5s3.357 7.5 7.5 7.5M160.501 387.132h46c4.143 0 7.5-3.357 7.5-7.5v-46c0-4.143-3.357-7.5-7.5-7.5h-46a7.5 7.5 0 0 0-7.5 7.5v46c0 4.143 3.357 7.5 7.5 7.5m7.5-46h31v31h-31z"/><path d="M432.501 242.501c4.143 0 7.5-3.357 7.5-7.5v-179.5c0-9.649-7.851-17.5-17.5-17.5l-128.066-.02a38.58 38.58 0 0 0-12.212-27.646c-7.87-7.348-18.139-10.983-28.932-10.24-19.657 1.285-35.642 18.192-35.724 37.886l-128.066.02c-9.649 0-17.5 7.851-17.5 17.5v439c0 9.649 7.851 17.5 17.5 17.5h333c9.649 0 17.5-7.851 17.5-17.5v-224.5c0-4.143-3.357-7.5-7.5-7.5s-7.5 3.357-7.5 7.5v224.5c0 1.379-1.121 2.5-2.5 2.5h-333a2.5 2.5 0 0 1-2.5-2.5v-439c0-1.379 1.121-2.5 2.5-2.5h73.361v15h-53.361a7.5 7.5 0 0 0-7.5 7.5v399c0 4.143 3.357 7.5 7.5 7.5h33.5c4.143 0 7.5-3.357 7.5-7.5s-3.357-7.5-7.5-7.5h-26v-384h45.861v16.926c0 6.893 5.607 12.5 12.5 12.5h101.27c4.143 0 7.5-3.357 7.5-7.5s-3.357-7.5-7.5-7.5h-98.77V53.001h48.008c4.783.059 8.427-4.592 7.305-9.222-3.45-13.625 7.084-27.947 21.148-28.72 15.295-1.514 28.385 13.896 24.504 28.723-1.177 4.535 2.621 9.318 7.305 9.199l48.008.02v44.426h-22.508c-4.143 0-7.5 3.357-7.5 7.5s3.357 7.5 7.5 7.5h25.008c6.893 0 12.5-5.607 12.5-12.5V83.001h45.861v304h-72.5a7.5 7.5 0 0 0-7.5 7.5v72.5h-137c-4.143 0-7.5 3.357-7.5 7.5s3.357 7.5 7.5 7.5h144.5a7.58 7.58 0 0 0 5.304-2.196l80-80a7.6 7.6 0 0 0 2.196-5.304v-319c0-4.143-3.357-7.5-7.5-7.5H349.14v-15h73.361c1.379 0 2.5 1.121 2.5 2.5v179.5c0 4.143 3.357 7.5 7.5 7.5m-102.5 213.894v-54.394h54.394z"/></svg>