<svg xmlns="http://www.w3.org/2000/svg" width="512" height="512"><circle cx="256" cy="196" r="28.5" fill="#ffc682"/><path fill="#50758d" d="M311.5 304.75v21.66c0 11.1-8.99 20.09-20.09 20.09h-70.82c-11.1 0-20.09-8.99-20.09-20.09v-21.66c0-14.81 5.83-28.28 15.33-38.2 10.06-10.51 24.23-17.05 39.92-17.05h.5c15.37 0 29.27 6.27 39.28 16.4 9.88 9.98 15.97 23.71 15.97 38.85"/><circle cx="339" cy="189" r="24.5" fill="#ffc682"/><path fill="#50758d" d="M386.5 286.5v16c0 9.59-8.19 17-17.68 17H311.5v-14.75c0-15.14-6.09-28.87-15.97-38.85 2.89-6.2 7.07-11.67 12.18-16.05 8.24-7.08 18.9-11.35 30.56-11.35h.5c26.08 0 47.73 21.63 47.73 48M215.83 266.55c-9.5 9.92-15.33 23.39-15.33 38.2v14.75h-58.32c-9.49 0-17.68-7.41-17.68-17v-16c0-26.37 21.65-48 47.73-48h.5c11.91 0 22.78 4.45 31.09 11.81 4.87 4.3 8.86 9.6 11.65 15.59z"/><circle cx="172" cy="189" r="24.5" fill="#ffc682"/><g fill="#ffac5c"><path d="M273.62 218.39A28.33 28.33 0 0 1 256 224.5c-15.74 0-28.5-12.76-28.5-28.5s12.76-28.5 28.5-28.5c.8 0 1.6.03 2.38.11-6.63 5.21-10.88 13.3-10.88 22.39 0 14.94 11.49 27.19 26.12 28.39M355.35 207.23A24.36 24.36 0 0 1 339 213.5c-13.53 0-24.5-10.97-24.5-24.5s10.97-24.5 24.5-24.5c1.24 0 2.46.09 3.65.27A24.4 24.4 0 0 0 334.5 183c0 12.29 9.05 22.47 20.85 24.23M188.35 207.23A24.36 24.36 0 0 1 172 213.5c-13.53 0-24.5-10.97-24.5-24.5s10.97-24.5 24.5-24.5c1.24 0 2.46.09 3.65.27A24.4 24.4 0 0 0 167.5 183c0 12.29 9.05 22.47 20.85 24.23"/></g><path fill="#fd646f" d="M504.05 240.87C496.53 115.6 396.18 15.34 270.87 7.94c-4.92-.29-9.88-.44-14.87-.44-5.17 0-10.3.16-15.39.47C110.54 15.92 7.5 123.93 7.5 256s103.04 240.08 233.11 248.03c5.09.31 10.22.47 15.39.47 4.99 0 9.95-.15 14.87-.44 125.31-7.4 225.66-107.66 233.18-232.93.3-5.01.45-10.05.45-15.13s-.15-10.12-.45-15.13m-83.1 25.83c2.74 2.74 6.52 4.43 10.7 4.43h28.26c-7.38 100.96-88.06 181.55-189.04 188.8v-27.55c0-8.35-6.78-15.12-15.13-15.12-4.18 0-7.96 1.69-10.69 4.43a15.04 15.04 0 0 0-4.43 10.69v28.05h-.01c-101.04-7.5-181.69-88.23-189.06-189.3h27.81c8.35 0 15.12-6.78 15.12-15.13 0-4.18-1.69-7.96-4.43-10.7a15.04 15.04 0 0 0-10.69-4.43H51.55c7.37-101.07 88.02-181.8 189.06-189.3v38.05c0 8.35 6.78 15.12 15.13 15.12h.01c8.35 0 15.12-6.77 15.12-15.12l.01-37.55v-.54c101.28 7.27 182.19 88.1 189.57 189.34h-28.8c-8.36 0-15.13 6.78-15.13 15.13 0 4.18 1.69 7.96 4.43 10.7"/><path fill="#fc4755" d="M267.5 7.76c-.955-.043-1.917-.065-2.876-.097-.604-.021-1.208-.045-1.813-.061A253 253 0 0 0 256 7.5c-1.91 0-3.812.029-5.711.072q-.597.013-1.192.027-2.702.075-5.387.205-.632.032-1.265.068c-.612.033-1.225.061-1.835.098v.018C110.54 15.939 7.5 123.93 7.5 256s103.04 240.061 233.11 248.012v.018c.61.037 1.222.065 1.832.098q.636.036 1.271.068 2.682.13 5.378.204.602.016 1.204.028c1.897.043 3.797.072 5.705.072a253 253 0 0 0 6.806-.102c.609-.016 1.216-.041 1.824-.062.957-.032 1.917-.054 2.87-.097l-.297-.017c1.222-.054 2.45-.091 3.667-.163v-71.68c0-8.35-6.78-15.12-15.13-15.12-4.18 0-7.96 1.69-10.69 4.43a15.04 15.04 0 0 0-4.43 10.69v28.05h-.01v41.105C126.472 483.831 38.021 388.462 30.972 271.13H79.36c8.35 0 15.12-6.78 15.12-15.13 0-4.18-1.69-7.96-4.43-10.7a15.04 15.04 0 0 0-10.69-4.43H30.972c7.049-117.332 95.5-212.701 209.638-230.406V89.62c0 8.35 6.78 15.12 15.13 15.12h.01c8.35 0 15.12-6.77 15.12-15.12V7.94c-1.218-.072-2.445-.108-3.667-.163zM504.05 240.87h-20.6c-7.38-101.24-88.29-179.11-189.57-186.38 90.3 16.87 159.76 92.93 166.57 186.38h-28.8c-8.36 0-15.13 6.78-15.13 15.13 0 4.18 1.69 7.96 4.43 10.7s6.52 4.43 10.7 4.43h28.26c-6.81 93.17-76.04 168.98-166.04 185.83 100.98-7.25 181.66-84.87 189.04-185.83h21.14c.3-5.01.45-10.05.45-15.13s-.15-10.12-.45-15.13"/><path fill="#2b597f" d="m215.47 265.9.36.65c-9.5 9.92-15.33 23.39-15.33 38.2v14.75h-20v-14.75c0-19.49 7.42-37.97 20.89-52.03.8-.83 1.61-1.64 2.43-2.41 4.87 4.3 8.86 9.6 11.65 15.59M331.5 304.75v14.75h-20v-14.75c0-15.14-6.09-28.87-15.97-38.85 2.89-6.2 7.07-11.67 12.18-16.05.69.64 1.38 1.31 2.05 1.99 14.01 14.16 21.74 32.95 21.74 52.91"/><path d="M437.02 74.98C388.667 26.629 324.38 0 256 0c-37.678 0-73.974 7.999-107.878 23.774a7.5 7.5 0 0 0 6.328 13.6C186.358 22.527 220.524 15 256 15c132.888 0 241 108.112 241 241S388.888 497 256 497 15 388.888 15 256c0-81.88 41.032-157.456 109.761-202.166a7.5 7.5 0 0 0-8.179-12.574C43.582 88.749 0 169.025 0 256c0 68.38 26.629 132.668 74.98 181.02C123.333 485.371 187.62 512 256 512s132.667-26.629 181.02-74.98C485.371 388.668 512 324.38 512 256s-26.629-132.668-74.98-181.02"/><path d="M431.646 248.375h28.804c4.234.091 7.879-3.829 7.48-8.046-3.702-50.766-25.634-98.594-61.756-134.675-36.125-36.084-83.983-57.962-134.76-61.604-4.217-.398-8.124 3.251-8.037 7.479l-.008 38.089c-.001 4.203-3.421 7.623-7.632 7.623-4.204 0-7.624-3.42-7.625-7.623l-.007-38.051c.088-4.238-3.831-7.88-8.055-7.478-50.662 3.761-98.394 25.688-134.404 61.743-36.013 36.058-57.882 83.822-61.577 134.496-.399 4.217 3.247 8.137 7.48 8.046h27.808c4.205 0 7.625 3.421 7.625 7.625s-3.42 7.625-7.625 7.625H51.549c-4.234-.091-7.879 3.829-7.48 8.046 3.695 50.675 25.565 98.441 61.581 134.5 36.013 36.055 83.747 57.981 134.411 61.74 4.218.404 8.147-3.242 8.055-7.479v-28.048c0-4.204 3.42-7.625 7.625-7.625s7.625 3.421 7.625 7.625v28.085c-.095 4.228 3.832 7.878 8.036 7.48a212.04 212.04 0 0 0 103.712-35.947 7.5 7.5 0 0 0-8.418-12.415 197.04 197.04 0 0 1-88.331 32.658v-19.861c0-12.476-10.149-22.625-22.625-22.625s-22.625 10.149-22.625 22.625v19.803c-90.374-10.493-162.96-83.171-173.332-173.562h19.573c12.476 0 22.625-10.149 22.625-22.625s-10.149-22.625-22.625-22.625H59.784c10.371-90.386 82.954-163.063 173.323-173.56l.006 29.807c.003 12.472 10.152 22.619 22.632 22.619 12.473 0 22.622-10.147 22.625-22.619l.006-29.866c90.639 10.283 163.447 82.994 173.84 173.619h-20.57c-12.476 0-22.625 10.149-22.625 22.625s10.149 22.625 22.625 22.625h20.572c-5.204 45.549-26.122 87.85-59.435 119.842a7.5 7.5 0 1 0 10.389 10.818c37.945-36.44 60.943-85.313 64.758-137.614.399-4.217-3.247-8.137-7.48-8.046h-28.804c-4.205 0-7.625-3.421-7.625-7.625s3.421-7.624 7.625-7.624"/><path d="M292 196c0-19.851-16.149-36-36-36s-36 16.149-36 36 16.149 36 36 36 36-16.149 36-36m-57 0c0-11.579 9.42-21 21-21s21 9.421 21 21-9.42 21-21 21-21-9.421-21-21M371 189c0-17.645-14.355-32-32-32s-32 14.355-32 32 14.355 32 32 32 32-14.355 32-32m-49 0c0-9.374 7.626-17 17-17s17 7.626 17 17-7.626 17-17 17-17-7.626-17-17M172 221c17.645 0 32-14.355 32-32s-14.355-32-32-32-32 14.355-32 32 14.355 32 32 32m0-49c9.374 0 17 7.626 17 17s-7.626 17-17 17-17-7.626-17-17 7.626-17 17-17"/><path d="M133.833 274.499a7.5 7.5 0 0 0-4.913-9.4 7.497 7.497 0 0 0-9.4 4.912c-3.34 9.159-2.424 22.825-2.521 32.489 0 13.51 11.294 24.5 25.176 24.5h50.839c.317 14.941 12.561 27 27.576 27h70.818c15.015 0 27.259-12.059 27.576-27h49.839C382.706 327 394 316.01 394 302.5v-16c0-30.603-24.777-55.5-55.233-55.5h-.496c-17.858 0-34.529 8.924-44.684 23.352C283.147 246.597 270.226 242 256.25 242h-.501c-14.268 0-27.431 4.795-37.984 12.847C207.658 240.109 190.867 231 172.729 231h-.496c-9.609 0-19.107 2.573-27.466 7.44a7.501 7.501 0 0 0 7.547 12.963c6.07-3.535 12.958-5.403 19.918-5.403h.496c14.031 0 26.94 7.556 34.063 19.564C198.173 276.31 193 289.934 193 304.749V312h-50.824c-5.611 0-10.176-4.262-10.176-9.5.188-7.709-.867-20.727 1.833-28.001M338.271 246h.496C360.952 246 379 264.168 379 286.5v16c0 5.238-4.565 9.5-10.176 9.5H319v-7.251c0-15.143-5.392-29.05-14.357-39.903C311.856 253.271 324.58 246 338.271 246m-82.021 11c26.329 0 47.75 21.42 47.75 47.749v21.66c0 6.942-5.648 12.591-12.591 12.591h-70.818c-6.942 0-12.591-5.648-12.591-12.591v-21.66C208 278.42 229.42 257 255.75 257z"/></svg>