<svg xmlns="http://www.w3.org/2000/svg" width="512" height="512" viewBox="0 0 510.833 510.833"><path fill="#50758d" d="M309.917 460.583v12.75c0 1.12-.06 2.24-.18 3.33-1.66 15-14.38 26.67-29.82 26.67h-46c-15.44 0-28.16-11.67-29.82-26.67-.12-1.09-.18-2.21-.18-3.33v-12.75c3.97 1.77 8.37 2.75 13 2.75h80c4.63 0 9.03-.98 13-2.75"/><g fill="#ffe7c9"><path d="M255.417 65.563a7.5 7.5 0 0 1-7.5-7.5V7.5c0-4.143 3.357-7.5 7.5-7.5s7.5 3.357 7.5 7.5v50.563a7.5 7.5 0 0 1-7.5 7.5M120.791 121.328a7.48 7.48 0 0 1-5.304-2.196L79.733 83.377A7.5 7.5 0 0 1 90.34 72.77l35.754 35.755a7.5 7.5 0 0 1-5.303 12.803M65.027 255.953H14.463c-4.143 0-7.5-3.357-7.5-7.5s3.357-7.5 7.5-7.5h50.563c4.143 0 7.5 3.357 7.5 7.5s-3.357 7.5-7.499 7.5M85.037 426.333a7.5 7.5 0 0 1-5.304-12.803l35.754-35.754a7.5 7.5 0 0 1 10.607 10.607L90.34 424.137a7.48 7.48 0 0 1-5.303 2.196M425.796 426.333a7.48 7.48 0 0 1-5.304-2.196l-35.754-35.754a7.5 7.5 0 0 1 10.607-10.607l35.754 35.754a7.5 7.5 0 0 1-5.303 12.803M496.37 255.953h-50.563c-4.143 0-7.5-3.357-7.5-7.5s3.357-7.5 7.5-7.5h50.563c4.143 0 7.5 3.357 7.5 7.5s-3.358 7.5-7.5 7.5M390.042 121.328a7.5 7.5 0 0 1-5.304-12.803l35.754-35.755a7.5 7.5 0 0 1 10.607 10.607l-35.754 35.755a7.48 7.48 0 0 1-5.303 2.196"/></g><path fill="#2b597f" d="M256.917 453.333s-49.03 9.02-53 7.25v12.75c0 1.12.06 2.24.18 3.33 1.66 15 14.38 26.67 29.82 26.67h13c-13.045 0-24.146-8.331-28.278-19.961-.699-1.967.733-4.039 2.82-4.039h75.458c4.56 0 8.9-.95 12.82-2.67.12-1.09.18-2.21.18-3.33v-12.75c-3.97 1.77-53-7.25-53-7.25"/><path fill="#50758d" d="M328.917 431.333c0 13.04-7.81 24.27-19 29.25a31.85 31.85 0 0 1-13 2.75h-80c-4.63 0-9.03-.98-13-2.75-11.19-4.98-19-16.21-19-29.25 0 0-.47-46.74-.56-47.96v-.04l72.56-10 71.73 10z"/><path fill="#2b597f" d="M241.917 463.333h-25c-4.63 0-9.03-.98-13-2.75-11.19-4.98-19-16.21-19-29.25 0 0-.47-46.74-.56-47.96v-.04h25v.04c.09 1.22.56 47.96.56 47.96 0 13.04 7.81 24.27 19 29.25a31.8 31.8 0 0 0 13 2.75M328.917 430.833h-25.5c-4.14 0-7.5-3.36-7.5-7.5s3.36-7.5 7.5-7.5h25.42l.04 7.5z"/><path fill="#2b597f" d="M275.917 423.333c0 4.14-3.36 7.5-7.5 7.5h-83.51l-.17-15h83.68c4.14 0 7.5 3.36 7.5 7.5"/><path fill="#fad207" d="M255.547 90.503h-.003l.003-.003c-77.231-1.188-142.179 66.124-140.79 142.793 0 39.11 15.49 74.56 40.59 100.35 14.79 15.21 27.59 29.27 29.01 49.69l144.29.24c.81-21.02 12.76-35.22 27.65-50.77 24.62-25.71 39.78-60.81 39.78-99.51-.001-78.82-62.9-142.72-140.53-142.79"/><path fill="#faa515" d="M328.646 383.533v.04l-144.29-.24c-1.42-20.42-14.22-34.48-29.01-49.69-25.1-25.79-40.59-61.24-40.59-100.35-1.39-76.67 63.56-143.98 140.79-142.79 3.9 0 7.76.17 11.58.48-71.18 6.24-128.68 70.13-127.37 142.31 0 39.11 15.49 74.56 40.59 100.35 14.79 15.21 27.59 29.27 29.01 49.69z"/><path fill="#faa515" d="M258.948 304.764a16.5 16.5 0 0 1-13.033 6.381 16.5 16.5 0 0 1-12.24-5.437l-47-51.999c-6.11-6.761-5.583-17.194 1.178-23.305 6.76-6.111 17.192-5.584 23.305 1.177l33.8 37.395 53.927-69.451c5.588-7.197 15.954-8.502 23.151-2.913 7.198 5.589 8.502 15.955 2.913 23.152z"/><path d="M255.417 65.563c4.143 0 7.5-3.357 7.5-7.5V7.5c0-4.143-3.357-7.5-7.5-7.5s-7.5 3.357-7.5 7.5v50.563c0 4.143 3.357 7.5 7.5 7.5M115.487 119.132a7.5 7.5 0 0 0 10.607-10.607L90.34 72.77a7.5 7.5 0 0 0-10.607 10.607zM65.027 240.953H14.463c-4.143 0-7.5 3.357-7.5 7.5s3.357 7.5 7.5 7.5h50.563c4.143 0 7.5-3.357 7.5-7.5s-3.357-7.5-7.499-7.5M115.487 377.775l-35.754 35.754a7.5 7.5 0 0 0 10.607 10.607l35.754-35.754a7.5 7.5 0 0 0-10.607-10.607M395.346 377.775a7.5 7.5 0 0 0-10.607 10.607l35.754 35.754a7.5 7.5 0 0 0 10.607-10.607zM496.37 240.953h-50.563c-4.143 0-7.5 3.357-7.5 7.5s3.357 7.5 7.5 7.5h50.563c4.143 0 7.5-3.357 7.5-7.5s-3.358-7.5-7.5-7.5M420.493 72.77l-35.754 35.755a7.5 7.5 0 0 0 10.607 10.607L431.1 83.377a7.5 7.5 0 0 0-10.607-10.607M403.579 233.293C403.579 150.421 337.114 83 255.417 83c-28.618 0-56.394 8.293-80.324 23.982-23.282 15.265-41.842 36.74-53.673 62.103a7.501 7.501 0 0 0 13.594 6.342C156.953 128.392 204.214 98 255.417 98c73.426 0 133.162 60.692 133.162 135.293 0 35.434-13.39 68.934-37.702 94.327-14.013 14.635-25.941 28.619-29.01 48.213H190.928c-3.867-20.341-17.742-34.612-30.21-47.425-24.803-25.49-38.463-59.27-38.463-95.115 0-8.851.847-17.703 2.516-26.312a7.5 7.5 0 1 0-14.726-2.855 153.5 153.5 0 0 0-2.79 29.167c0 39.775 15.169 77.27 42.713 105.576 15.819 16.256 27.017 29.232 27.017 48.251q0 .1.003.2l.43 44.013c0 14.279 7.617 26.812 19 33.752v8.248c0 20.678 16.822 37.5 37.5 37.5h46c20.678 0 37.5-16.822 37.5-37.5v-8.248c11.383-6.94 19-19.473 19-33.752 0 0-.053-49.026-.153-49.515 1.423-17.382 11.959-29.737 25.447-43.825 26.997-28.199 41.867-65.383 41.867-104.7m-101.162 240.04c0 12.406-10.094 22.5-22.5 22.5h-46c-12.406 0-22.5-10.094-22.5-22.5v-2.891c1.799.252 3.633.391 5.5.391h80c1.867 0 3.701-.14 5.5-.391zm-5.5-17.5h-80c-13.51 0-24.5-10.99-24.5-24.5v-.5h76c4.143 0 7.5-3.357 7.5-7.5s-3.357-7.5-7.5-7.5h-76v-25h128.768l.232 25h-18c-4.143 0-7.5 3.357-7.5 7.5s3.357 7.5 7.5 7.5h18v.5c0 13.51-10.991 24.5-24.5 24.5"/><path d="M304.177 234.285a7.5 7.5 0 0 0 11.847 9.199l14.848-19.121c3.932-5.063 5.656-11.354 4.856-17.715a23.85 23.85 0 0 0-9.094-15.961c-5.063-3.932-11.358-5.666-17.715-4.855a23.84 23.84 0 0 0-15.96 9.093l-48.439 62.384-27.8-30.759c-8.875-9.816-24.082-10.582-33.897-1.711a23.85 23.85 0 0 0-7.877 16.595 23.85 23.85 0 0 0 6.164 17.304l47.001 52c9.461 10.974 28.156 10.301 36.761-1.374l29.685-38.23a7.5 7.5 0 0 0-11.847-9.199l-29.685 38.23c-3.222 4.378-10.253 4.633-13.785.515l-47-52c-3.328-3.682-3.04-9.384.643-12.712 3.68-3.324 9.383-3.04 12.711.643l33.8 37.396c2.946 3.416 8.802 3.22 11.488-.43l53.927-69.451c2.887-3.882 8.873-4.635 12.628-1.589 3.883 2.888 4.635 8.869 1.589 12.629z"/></svg>