<svg xmlns="http://www.w3.org/2000/svg" width="512" height="512"><path fill="#f5f5f5" d="M449 251.25c0 13.72-1.38 27.12-4 40.07-15.42 76.12-73.91 136.62-148.94 154.95-15.33 3.75-31.34 5.73-47.81 5.73C137.38 452 47.5 362.12 47.5 251.25S137.38 50.5 248.25 50.5 449 140.38 449 251.25"/><path fill="#2b597f" d="M231.5 226.5v-54c0-9.389 7.611-17 17-17s17 7.611 17 17v54z"/><path fill="#50758d" d="M248.25 10.5C115.29 10.5 7.5 118.29 7.5 251.25S115.29 492 248.25 492 489 384.21 489 251.25 381.21 10.5 248.25 10.5m16.25 440.843V408.5c0-9.389-7.611-17-17-17s-17 7.611-17 17v42.71c-97.205-8.518-174.539-86.302-182.343-183.71H90.5c9.389 0 17-7.611 17-17s-7.611-17-17-17H48.29c8.504-97.038 86.037-174.27 183.21-182.299V93.5c0 9.389 7.611 17 17 17s17-7.611 17-17V51.246c97.273 8.281 174.756 85.914 182.799 183.254H405.5c-9.389 0-17 7.611-17 17s7.611 17 17 17h42.754c-8.294 97.439-86.179 175.026-183.754 182.843"/><g fill="#2b597f"><path d="M27.5 251.25c0-129.61 102.43-235.3 230.75-240.54-3.32-.14-6.65-.21-10-.21C115.29 10.5 7.5 118.29 7.5 251.25S115.29 492 248.25 492c3.35 0 6.68-.07 10-.21C129.93 486.55 27.5 380.86 27.5 251.25"/><path d="M67.5 251.25c0 5.48.24 10.9.73 16.25H48.16c-.44-5.36-.66-10.78-.66-16.25 0-5.98.28-11.9.79-17.75h20.08c-.58 5.84-.87 11.76-.87 17.75M264.5 431.27v20.07a200.259 200.259 0 0 1-34-.13v-20.08c5.84.58 11.76.87 17.75.87 5.48 0 10.9-.24 16.25-.73M449 251.25c0 5.81-.27 11.56-.76 17.25h-20.06a182 182 0 0 0 .05-34h20.07c.47 5.52.7 11.11.7 16.75M265.5 51.25v20.07a182 182 0 0 0-34-.05V51.2c5.52-.47 10.83-.7 16.75-.7s12.353.277 17.25.75M251.511 274.085l-50.601 60.19c-6.035 7.192-16.758 8.13-23.95 2.095a16.93 16.93 0 0 1-5.785-9.908c-.899-4.839.627-9.816 3.752-13.618l50.539-60.614z"/></g><circle cx="248.25" cy="251.25" r="30" fill="#faa515"/><path fill="#e6e6e6" d="M445 291.32c-15.42 76.12-73.91 136.62-148.94 154.95-.64-1.47-1.24-2.96-1.82-4.47-5.13-13.3-7.74-27.38-7.74-41.8 0-64.24 52.26-116.5 116.5-116.5 14.43 0 28.5 2.61 41.82 7.75.06.02.12.05.18.07"/><path fill="#fad207" d="M504.5 400c0 56.06-45.44 101.5-101.5 101.5-19.58 0-37.86-5.54-53.36-15.14-4.95-3.07-9.61-6.54-13.94-10.39-3.6-3.18-6.97-6.61-10.06-10.28-7.35-8.63-13.27-18.5-17.4-29.26-4.36-11.31-6.74-23.59-6.74-36.43 0-56.06 45.44-101.5 101.5-101.5 12.84 0 25.12 2.38 36.42 6.74a101.1 101.1 0 0 1 29.28 17.4c3.66 3.1 7.1 6.46 10.26 10.06 3.86 4.33 7.33 8.99 10.4 13.94 9.6 15.5 15.14 33.78 15.14 53.36"/><path fill="#f8c201" fill-rule="evenodd" d="M401 403.14v-37.71c10.6 2.49 18.5 9.76 18.5 18.07 0 4.14 3.36 7.5 7.5 7.5 2.245 0 4.096-1.117 5.629-2.557l9.619-9.588h-8.136c-2.411-14.399-15.862-25.947-33.112-28.715v-26.81h-2.93l-9.79 9.79c-.06.05-.11.1-.16.16l-.11.11.01.01a7.45 7.45 0 0 0-2.02 5.1v11.49c-5.855.82-11.29 2.654-16.041 5.262v-2.297l-9.753 9.738v.003c-5.454 5.753-8.707 12.973-8.707 20.804 0 16.79 14.94 30.77 34.5 33.51v37.78c-11.1-2.26-19.5-9.72-19.5-18.29 0-2.22-.972-4.209-2.506-5.583l-.042-9.965-10.043 10.042.003.008a7.47 7.47 0 0 0-2.412 5.497c0 16.79 14.94 30.77 34.5 33.51v11.49c0 4.14 3.36 7.5 7.5 7.5a7.46 7.46 0 0 0 4.863-1.798l9.98-9.976H401v-7.366c19.07-3.06 33.5-16.85 33.5-33.36S420.07 406.2 401 403.14m-15-1.348c-11.096-2.265-19.5-9.723-19.5-18.292s8.404-16.027 19.5-18.292zm15 52.782v-36.149c10.597 2.498 18.5 9.765 18.5 18.074s-7.903 15.577-18.5 18.075" clip-rule="evenodd"/><path fill="#f5f5f5" d="M411 393.14v-37.715c10.597 2.498 18.5 9.765 18.5 18.074 0 4.143 3.357 7.5 7.5 7.5s7.5-3.357 7.5-7.5c0-16.506-14.433-30.296-33.5-33.36V328.5c0-4.143-3.357-7.5-7.5-7.5s-7.5 3.357-7.5 7.5v11.493c-19.56 2.735-34.5 16.714-34.5 33.507s14.94 30.772 34.5 33.507v37.785c-11.096-2.265-19.5-9.723-19.5-18.292 0-4.143-3.357-7.5-7.5-7.5s-7.5 3.357-7.5 7.5c0 16.793 14.94 30.772 34.5 33.507V471.5c0 4.143 3.357 7.5 7.5 7.5s7.5-3.357 7.5-7.5v-11.64c19.067-3.064 33.5-16.854 33.5-33.36s-14.433-30.296-33.5-33.36m-34.5-19.64c0-8.569 8.404-16.027 19.5-18.292v36.584c-11.096-2.265-19.5-9.723-19.5-18.292m34.5 71.074v-36.149c10.597 2.498 18.5 9.765 18.5 18.074s-7.903 15.577-18.5 18.075"/><path d="M429.5 373.5c0 4.143 3.357 7.5 7.5 7.5s7.5-3.357 7.5-7.5c0-16.506-14.433-30.296-33.5-33.36V328.5c0-4.143-3.357-7.5-7.5-7.5s-7.5 3.357-7.5 7.5v11.493c-19.56 2.735-34.5 16.714-34.5 33.507s14.94 30.772 34.5 33.507v37.785c-11.096-2.265-19.5-9.723-19.5-18.292 0-4.143-3.357-7.5-7.5-7.5s-7.5 3.357-7.5 7.5c0 16.793 14.94 30.772 34.5 33.507V471.5c0 4.143 3.357 7.5 7.5 7.5s7.5-3.357 7.5-7.5v-11.64c19.067-3.064 33.5-16.854 33.5-33.36s-14.433-30.296-33.5-33.36v-37.715c10.597 2.499 18.5 9.765 18.5 18.075m-53 0c0-8.569 8.404-16.027 19.5-18.292v36.584c-11.096-2.265-19.5-9.723-19.5-18.292m53 53c0 8.31-7.903 15.576-18.5 18.074v-36.149c10.597 2.499 18.5 9.765 18.5 18.075"/><path d="M484.497 327.703c7.963-24.62 12.003-50.316 12.003-76.453 0-66.311-25.822-128.651-72.711-175.539C376.901 28.822 314.561 3 248.25 3S119.599 28.822 72.711 75.711C25.822 122.599 0 184.939 0 251.25c0 43.635 11.482 86.553 33.206 124.113 21.073 36.436 51.288 67.154 87.378 88.836a7.496 7.496 0 0 0 10.291-2.567 7.5 7.5 0 0 0-2.566-10.291C57.358 408.717 15 333.917 15 251.25 15 122.636 119.636 18 248.25 18S481.5 122.636 481.5 251.25c0 22.067-3.07 43.793-9.114 64.749a109.3 109.3 0 0 0-22.074-14.185 209 209 0 0 0 6.188-50.564C456.5 136.421 363.079 43 248.25 43c-32.497 0-63.628 7.279-92.526 21.635a7.5 7.5 0 0 0 6.674 13.434C181.93 68.365 202.57 62.165 224 59.505V93.5c0 13.51 10.99 24.5 24.5 24.5S273 107.01 273 93.5V59.58C359.974 70.748 429.037 139.958 439.982 227H405.5c-13.51 0-24.5 10.99-24.5 24.5s10.99 24.5 24.5 24.5h34.422a193 193 0 0 1-3.68 20.19A108.6 108.6 0 0 0 403 291c-60.103 0-109 48.897-109 109 0 13.106 2.326 25.678 6.586 37.328A192 192 0 0 1 272 443.05V408.5c0-13.51-10.99-24.5-24.5-24.5S223 394.99 223 408.5v34.35C136.096 431.459 67.184 362.109 56.46 275H90.5c13.51 0 24.5-10.99 24.5-24.5S104.01 226 90.5 226H56.698c6.876-51.602 34.543-99.081 76.942-130.362a7.5 7.5 0 0 0 1.583-10.487 7.5 7.5 0 0 0-10.488-1.583c-25.703 18.963-47.016 43.951-61.636 72.264C47.987 185.097 40 218.092 40 251.25c0 114.829 93.421 208.25 208.25 208.25 19.933 0 39.587-2.813 58.523-8.349a109.5 109.5 0 0 0 15.049 21.504c-23.644 7.86-48.337 11.844-73.572 11.844-30.904 0-60.921-5.944-89.218-17.669a7.5 7.5 0 0 0-5.742 13.858c30.127 12.482 62.075 18.812 94.96 18.812 29.499 0 58.311-5.122 85.717-15.211C352.778 499.724 376.825 509 403 509c60.103 0 109-48.897 109-109 0-27.716-10.404-53.043-27.503-72.297M258 93.5c0 5.238-4.262 9.5-9.5 9.5s-9.5-4.262-9.5-9.5V58.232a192 192 0 0 1 19 .013zM405.5 261c-5.238 0-9.5-4.262-9.5-9.5s4.262-9.5 9.5-9.5h35.774c.306 6.298.3 12.693-.019 19zm-315-20c5.238 0 9.5 4.262 9.5 9.5s-4.262 9.5-9.5 9.5H55.207c-.297-6.3-.27-12.699.083-19zM238 444.228V408.5c0-5.238 4.262-9.5 9.5-9.5s9.5 4.262 9.5 9.5v35.798c-6.306.289-12.712.265-19-.07M403 494c-51.832 0-94-42.168-94-94s42.168-94 94-94 94 42.168 94 94-42.168 94-94 94"/><path d="M176.467 308.695a7.5 7.5 0 0 0-10.16 3.045c-5.479 10.168-3.026 22.943 5.831 30.375a24.4 24.4 0 0 0 15.729 5.722c6.997 0 13.949-2.975 18.788-8.741l42.26-50.363c20.371-.357 36.836-17.028 36.836-37.483 0-11.199-4.941-21.26-12.75-28.137V172.5c0-13.51-10.99-24.5-24.5-24.5S224 158.99 224 172.5v50.179c-9.636 7.971-15.053 21.703-12.741 34.699l-21.848 26.037a7.5 7.5 0 0 0 11.49 9.642L217.731 273a37.74 37.74 0 0 0 14.579 12.184l-37.146 44.269c-3.203 3.981-9.538 4.534-13.385 1.172-3.436-2.883-4.389-7.832-2.268-11.77a7.5 7.5 0 0 0-3.044-10.16M239 172.5c0-5.238 4.262-9.5 9.5-9.5s9.5 4.262 9.5 9.5v42.543c-6.007-1.665-12.959-1.717-19-.136zm-4.214 60.734c3.911-2.783 8.365-4.522 13.464-4.484 12.406 0 22.5 10.094 22.5 22.5s-10.094 22.5-22.5 22.5-22.5-10.094-22.5-22.5c0-7.361 3.554-13.908 9.036-18.016"/></svg>