<svg xmlns="http://www.w3.org/2000/svg" width="512" height="512"><path fill="#faa515" d="m246.068 104.5-73.032 35.573a31.6 31.6 0 0 0-14.74 15.51l-91.11 228.401c-9.418 21.331.188 46.265 21.458 55.688l90.623 40.156h67.302z"/><path fill="#fad207" d="M449.068 415.5v44c0 24.496-20.494 45-45 45h-185c-24.506 0-44-20.504-44-45v-259c0-7.726 2.19-15.051 7.109-21.01l55.623-67.394c6.322-7.66 15.335-12.596 25.269-12.596h97c9.934 0 18.947 4.936 25.269 12.596l55.623 67.394c4.918 5.959 8.109 13.285 8.109 21.01v215z"/><g fill="#f8c201" fill-rule="evenodd" clip-rule="evenodd"><path d="m296.499 275.013.001-.011-.258-.258a27 27 0 0 0-.413-.413l-10.346-10.352-1.468 2.923A32.4 32.4 0 0 0 273.068 265h-1c-17.921 0-32.5 14.58-32.5 32.5 0 3.712.634 7.276 1.785 10.602l-3.038 1.558 10.714 10.738.135.136.144.144.005-.003c5.867 5.763 13.902 9.326 22.756 9.326h1c17.921 0 32.5-14.58 32.5-32.5-.001-8.722-3.46-16.645-9.07-22.488M273.068 315h-1c-9.649 0-17.5-7.851-17.5-17.5s7.851-17.5 17.5-17.5h1c9.649 0 17.5 7.851 17.5 17.5s-7.85 17.5-17.5 17.5M390.372 268.197l-10-10-138.607 138.606 10 10c1.465 1.464 3.385 2.197 5.304 2.197s3.839-.732 5.304-2.197l128-128a7.5 7.5 0 0 0-.001-10.606M392.34 351.959l.009-.004-8.273-8.388.536 3.401A32.3 32.3 0 0 0 371.069 344h-1c-17.921 0-32.5 14.58-32.5 32.5 0 4.631.98 9.036 2.734 13.027l-3.672-.535 9.952 9.938q.533.558 1.092 1.09l.228.228.002-.008c5.811 5.429 13.604 8.761 22.164 8.761h1c17.921 0 32.5-14.58 32.5-32.5-.001-9.792-4.359-18.578-11.229-24.542M371.068 394h-1c-9.649 0-17.5-7.851-17.5-17.5s7.851-17.5 17.5-17.5h1c9.649 0 17.5 7.851 17.5 17.5s-7.85 17.5-17.5 17.5"/></g><g fill="#f5f5f5"><path d="M247.068 399a7.5 7.5 0 0 1-5.304-12.803l128-128a7.5 7.5 0 0 1 10.607 10.606l-128 128a7.47 7.47 0 0 1-5.303 2.197M263.068 320h-1c-17.921 0-32.5-14.58-32.5-32.5s14.579-32.5 32.5-32.5h1c17.921 0 32.5 14.58 32.5 32.5s-14.579 32.5-32.5 32.5m-1-50c-9.649 0-17.5 7.851-17.5 17.5s7.851 17.5 17.5 17.5h1c9.649 0 17.5-7.851 17.5-17.5s-7.851-17.5-17.5-17.5zM361.068 399h-1c-17.921 0-32.5-14.58-32.5-32.5s14.579-32.5 32.5-32.5h1c17.921 0 32.5 14.58 32.5 32.5s-14.579 32.5-32.5 32.5m-1-50c-9.649 0-17.5 7.851-17.5 17.5s7.851 17.5 17.5 17.5h1c9.649 0 17.5-7.851 17.5-17.5s-7.851-17.5-17.5-17.5z"/></g><path fill="#e0a446" d="M327.869 160.493a7.5 7.5 0 0 1-2.08-14.707 56 56 0 0 0 2.545-.802c22.87-7.807 38.235-29.301 38.235-53.485v-84a7.5 7.5 0 0 1 15 0v84c0 30.602-19.446 57.8-48.39 67.68a72 72 0 0 1-3.223 1.016 7.5 7.5 0 0 1-2.087.298"/><path fill="#f5f5f5" d="M312.068 179c-12.958 0-23.5-10.542-23.5-23.5s10.542-23.5 23.5-23.5 23.5 10.542 23.5 23.5-10.542 23.5-23.5 23.5"/><path d="M449.068 388a7.5 7.5 0 0 0 7.5-7.5v-180c0-8.952-3.489-18.109-9.824-25.784l-55.623-67.394a44 44 0 0 0-9.902-8.877c.223-2.292.35-4.607.35-6.944v-84a7.5 7.5 0 0 0-15 0s-.015 84.715-.021 85.073a37 37 0 0 0-6.479-.573h-97c-6.829 0-13.523 1.916-19.516 5.437a8 8 0 0 0-.768.32l-73.111 35.612a39.2 39.2 0 0 0-18.24 19.189q-.06.136-.114.274l-30.228 76.672a7.501 7.501 0 0 0 13.955 5.502l30.169-76.524c2.269-5.069 6.236-9.222 11.105-11.666l38.628-18.815-38.556 46.715c-5.773 6.994-8.824 15.911-8.824 25.785v259c0 3.016.265 5.969.746 8.847l-77.282-34.244c-17.458-7.735-25.37-28.282-17.634-45.802l.097-.229 48.883-121.484a7.5 7.5 0 0 0-13.916-5.6l-48.84 121.371c-10.982 25.05.362 54.392 25.333 65.456l90.624 40.156c.111.049.224.085.336.128 9.198 14.372 25.1 23.899 43.153 23.899h185c28.458 0 52.5-24.042 52.5-52.5v-44a7.5 7.5 0 0 0-15 0v44c0 20.327-17.173 37.5-37.5 37.5h-185c-20.126 0-36.5-16.822-36.5-37.5v-259c0-6.438 1.814-11.901 5.393-16.236l55.623-67.394c5.177-6.272 12.279-9.87 19.484-9.87h97c1.413 0 2.821.143 4.212.413-4.695 16.011-16.325 29.371-32.03 36.066C328.144 136.61 320.636 132 312.068 132c-12.958 0-23.5 10.542-23.5 23.5s10.542 23.5 23.5 23.5c11.983 0 21.893-9.018 23.318-20.623 20.199-7.64 35.473-23.828 42.278-43.587a30 30 0 0 1 1.889 2.08l55.623 67.395c4.122 4.994 6.393 10.76 6.393 16.236v180a7.5 7.5 0 0 0 7.499 7.499m-137-224c-4.687 0-8.5-3.813-8.5-8.5s3.813-8.5 8.5-8.5 8.5 3.813 8.5 8.5-3.813 8.5-8.5 8.5"/><path d="M247.068 399a7.47 7.47 0 0 0 5.303-2.197l128-128a7.5 7.5 0 0 0 0-10.606 7.5 7.5 0 0 0-10.606 0l-128 128c-4.782 4.457-1.113 13.03 5.303 12.803M263.068 320c17.92 0 32.5-14.58 32.5-32.5s-14.58-32.5-32.5-32.5h-1c-17.92 0-32.5 14.58-32.5 32.5s14.58 32.5 32.5 32.5zm-18.5-32.5c0-9.649 7.851-17.5 17.5-17.5h1c9.649 0 17.5 7.851 17.5 17.5s-7.851 17.5-17.5 17.5h-1c-9.649 0-17.5-7.851-17.5-17.5M360.068 399h1c17.92 0 32.5-14.58 32.5-32.5s-14.58-32.5-32.5-32.5h-1c-17.92 0-32.5 14.58-32.5 32.5s14.58 32.5 32.5 32.5m0-50h1c9.649 0 17.5 7.851 17.5 17.5s-7.851 17.5-17.5 17.5h-1c-9.649 0-17.5-7.851-17.5-17.5s7.851-17.5 17.5-17.5"/></svg>