<svg xmlns="http://www.w3.org/2000/svg" width="512" height="512"><path fill="#fad207" d="M504.5 173.112v130c0 14.64-11.86 26.5-26.5 26.5H34c-14.64 0-26.5-11.86-26.5-26.5v-130c0-14.64 11.86-26.5 26.5-26.5h444c14.64 0 26.5 11.86 26.5 26.5"/><path fill="#f5f5f5" d="M464.5 196.612v83c0 5.52-4.48 10-10 10h-397c-5.52 0-10-4.48-10-10v-83c0-5.52 4.48-10 10-10h397c5.52 0 10 4.48 10 10"/><path fill="#50758d" d="M103.5 267.112a7.5 7.5 0 0 1-7.5-7.5v-43c0-4.143 3.357-7.5 7.5-7.5s7.5 3.357 7.5 7.5v43a7.5 7.5 0 0 1-7.5 7.5"/><path fill="#faa515" d="m419.56 186.612-120.22 10-123.421-10c6.38-15.08 15.4-28.57 26.4-40h190.81a132.5 132.5 0 0 1 26.431 40M419.61 289.612c-6.32 14.92-15.32 28.46-26.38 40H202.28a132.8 132.8 0 0 1-26.38-40l121.84-10z"/><path fill="#e6e6e6" d="M430.02 238.172c0 18.23-3.71 35.62-10.41 51.44H175.9c-6.7-15.82-10.41-33.21-10.41-51.44 0-15.06 2.52-29.85 7.48-43.94.91-2.58 1.89-5.12 2.95-7.62h243.64c6.73 15.85 10.46 33.28 10.46 51.56"/><path fill="#50758d" d="m438.13 358.382-30.62-31.13-22.04-22.42-23.66 21.24 23.07 23.81 30.51 31.49c3.17 3.16 7.31 4.74 11.45 4.74s8.28-1.58 11.43-4.73c6.36-6.36 6.29-16.69-.14-23"/><path fill="#2b597f" d="m407.51 327.252-22.63 22.63-23.07-23.81 23.66-21.24z"/><path fill="#50758d" d="M185.493 238.168c0-13.074 2.235-25.627 6.344-37.296 15.376-43.669 56.993-74.97 105.922-74.97 62.002 0 112.265 50.263 112.265 112.265S359.76 350.433 297.758 350.433 185.493 300.17 185.493 238.168"/><circle cx="297.758" cy="238.168" r="79.816" fill="#2edffc"/><path fill="#27bdf3" d="M368.34 275.452c-13.38 25.3-39.97 42.53-70.58 42.53-44.08 0-79.82-35.73-79.82-79.81 0-22.47 9.28-42.77 24.23-57.27-5.9 11.12-9.23 23.81-9.23 37.27 0 44.08 35.74 79.81 79.82 79.81 21.61 0 41.21-8.58 55.58-22.53"/><path d="M297.758 150.852c-36.994 0-70.1 23.433-82.38 58.309-3.275 9.301-4.937 19.06-4.937 29.007 0 36.509 23.024 69.469 57.295 82.016a7.5 7.5 0 0 0 9.621-4.465 7.5 7.5 0 0 0-4.465-9.621c-28.382-10.392-47.451-37.69-47.451-67.93 0-8.245 1.374-16.328 4.085-24.024 10.17-28.885 37.59-48.291 68.231-48.291 39.875 0 72.316 32.44 72.316 72.315 0 37.647-28.23 68.607-65.667 72.016a7.5 7.5 0 0 0-6.789 8.148c.36 4.137 4.088 7.182 8.148 6.789 21.603-1.966 41.607-11.883 56.331-27.923 14.816-16.142 22.977-37.105 22.977-59.03.001-48.146-39.169-87.316-87.315-87.316"/><path d="M504.5 200.612a7.5 7.5 0 0 0-7.5 7.5v95c0 10.477-8.523 19-19 19h-65.039l-16.267-16.528a120 120 0 0 0 5.287-8.472H454.5c9.649 0 17.5-7.851 17.5-17.5v-83c0-9.649-7.851-17.5-17.5-17.5h-52.581a120.5 120.5 0 0 0-18.937-25H478c10.477 0 19 8.523 19 19 0 4.143 3.357 7.5 7.5 7.5s7.5-3.357 7.5-7.5c0-18.748-15.252-34-34-34H365.001c-19.182-13.063-42.336-20.709-67.243-20.709-24.54 0-47.82 7.535-67.238 20.709H34c-18.748 0-34 15.252-34 34v130c0 18.748 15.252 34 34 34h195.5q.402 0 .792-.042c19.226 13.156 42.461 20.864 67.465 20.864 24.159 0 46.665-7.197 65.501-19.55l46.744 48.209c9.213 9.297 24.314 9.351 33.568.095 4.496-4.497 6.956-10.479 6.925-16.842-.03-6.354-2.538-12.307-7.062-16.77l-15.711-15.964H478c18.748 0 34-15.252 34-34v-95c0-4.143-3.357-7.5-7.5-7.5m-50-6.5c1.379 0 2.5 1.121 2.5 2.5v83c0 1.379-1.121 2.5-2.5 2.5h-45.327c5.388-13.612 8.351-28.438 8.351-43.944 0-15.548-2.98-30.413-8.396-44.056zm-439.5 109v-130c0-10.477 8.523-19 19-19h178.482a119.5 119.5 0 0 0-18.921 25H57.5c-9.649 0-17.5 7.851-17.5 17.5v83c0 9.649 7.851 17.5 17.5 17.5H117c4.143 0 7.5-3.357 7.5-7.5s-3.357-7.5-7.5-7.5H57.5a2.5 2.5 0 0 1-2.5-2.5v-83c0-1.379 1.121-2.5 2.5-2.5h128.861c-11.171 27.571-11.043 60.785-.017 88H152c-4.143 0-7.5 3.357-7.5 7.5s3.357 7.5 7.5 7.5h41.535a120.5 120.5 0 0 0 18.89 25H34c-10.477 0-19-8.524-19-19m177.993-64.945c0-11.942 1.991-23.652 5.917-34.805 14.733-41.846 54.458-69.96 98.848-69.96 57.189-.113 104.801 46.654 104.766 104.765 0 57.768-46.998 104.766-104.766 104.766s-104.765-46.998-104.765-104.766m194.394 79.345 9.551 9.704-11.989 11.989-9.591-9.891c4.28-3.65 8.299-7.594 12.029-11.802m45.492 46.221c3.426 3.22 3.48 9.091.085 12.347-3.364 3.366-8.845 3.368-12.242.02l-25.329-26.123 12.068-12.068 25.324 25.731z"/><path d="M103.5 209.112a7.5 7.5 0 0 0-7.5 7.5v43c0 4.143 3.357 7.5 7.5 7.5s7.5-3.357 7.5-7.5v-43c0-4.143-3.357-7.5-7.5-7.5"/></svg>