<svg xmlns="http://www.w3.org/2000/svg" width="512" height="512" viewBox="0 0 511.779 511.779"><path fill="#fad207" d="M43.89 223.279c-11.05 0-20-8.95-20-20v-46c0-11.05 8.95-20 20-20h424c11.05 0 20 8.95 20 20v46c0 11.05-8.95 20-20 20zM81.89 504.279c-11.05 0-20-8.95-20-20v-261h388v261c0 11.05-8.95 20-20 20z"/><path fill="#faa515" d="M63.89 223.279h-20c-11.05 0-20-8.95-20-20v-46c0-11.05 8.95-20 20-20h20c-11.05 0-20 8.95-20 20v46c0 11.05 8.95 20 20 20M101.89 504.279h-20c-11.05 0-20-8.95-20-20v-261h20v261c0 11.05 8.95 20 20 20"/><path fill="#fd646f" d="M306.89 137.279v86h-102v-86l50.81-5z"/><path fill="#faa515" d="M204.89 464.279h-93c-5.52 0-10-4.48-10-10v-177c0-5.52 4.48-10 10-10h288c5.52 0 10 4.48 10 10v177c0 5.52-4.48 10-10 10h-93zM61.89 223.279h388v20h-388z"/><g fill="#fd646f"><path d="M295.719 68.822v.01a43 43 0 0 0-3.08 4.67l-13.19 23.04-23.75 40.98-19.42-33.7-16.64-30.15a44.4 44.4 0 0 0-3.75-5.78c-10.49-25.78 5.72-56.03 34.37-59.6 1.96-.25 3.96-.37 5.98-.37.66 0 1.32.01 1.98.04 30.79 1.25 49.31 33.66 37.5 60.86"/><path d="m328.589 137.622-25.52-.1h-47.37l23.75-40.98 13.19-23.04c.94-1.65 1.97-3.2 3.08-4.67v-.01c6.1-8.1 14.5-13.45 23.58-15.89 16.14-4.36 34.42.47 45.65 15.34a48 48 0 0 1 4.26 6.73c15.27 29.16-7.71 63.43-40.62 62.62M255.699 137.522l-23.12-.05-24.24-.06-26.55.08c-31.01.08-52.75-31.49-40.64-60.04.77-1.82 1.67-3.61 2.68-5.36.33-.58.67-1.14 1.03-1.69 10.82-17.05 30.58-22.83 47.88-18.07 8.89 2.44 17.12 7.66 23.15 15.56 1.37 1.79 2.63 3.72 3.75 5.78l16.64 30.15z"/></g><path fill="#fc4755" d="M319.299 52.932a63.5 63.5 0 0 1-3.58 19.64s-26.407 48.02-36.91 64.95h-23.11l23.75-40.98 13.19-23.04c.94-1.65 1.97-3.2 3.08-4.67v-.01c6.1-8.1 14.5-13.45 23.58-15.89"/><path fill="#fc4755" d="m236.279 103.822 19.42 33.7-23.12-.05c-9.972-16.862-25.344-45.223-35.22-62.04-3-7.39-4.53-15.23-4.62-23.1 8.89 2.44 17.12 7.66 23.15 15.56 1.37 1.79 2.63 3.72 3.75 5.78z"/><path fill="#fd646f" d="M204.89 223.279h102v281h-102z"/><g fill="#fc4755"><path d="M204.89 223.279h102v20h-102zM204.89 137.779h102v20h-102z"/></g><path d="M467.89 129.779h-20.5c-4.142 0-7.5 3.357-7.5 7.5s3.358 7.5 7.5 7.5h20.5c6.893 0 12.5 5.607 12.5 12.5v46c0 6.893-5.607 12.5-12.5 12.5h-153.5v-71.056l98 .056c4.142 0 7.5-3.357 7.5-7.5s-3.358-7.5-7.5-7.5h-46.066c15.556-15.1 19.859-39.498 9.531-58.596-12-24.912-44.915-35.073-69.044-21.701C306.384 23.79 284.487.55 258.517.123c-27.494-2.028-52.685 21.26-53.26 48.767-25.479-14.227-60.537-2.19-71.009 25.287-8.128 18.681-3.411 41.382 11.278 55.603H43.89c-15.164 0-27.5 12.337-27.5 27.5v46c0 15.163 12.336 27.5 27.5 27.5h10.5v253.5c0 15.163 12.336 27.5 27.5 27.5h348c15.164 0 27.5-12.337 27.5-27.5v-253.5h10.5c15.164 0 27.5-12.337 27.5-27.5v-46c0-15.164-12.337-27.501-27.5-27.501m-255.5 101h87v266h-87zm0-15v-71.197l43.29.096.015.001.015-.001h43.679v71.101zM328.553 58.618c27.546-2.767 48.263 30.528 32.626 53.716-6.999 11.252-19.102 17.785-32.408 17.447l-60.057-.103c8.883-16.033 24.615-41.371 33.403-57.18 6.368-8.117 15.916-13.213 26.436-13.88M148.057 80.034c9.104-25.103 45.66-29.65 61.369-8.551 1.863 5.932 7.206 11.872 13.796 8.434 6.793-3.727 3.139-11.443-.663-15.976-9.584-23.154 10.066-51.162 35.352-48.831 24.113.172 40.933 28.215 31.147 49.811-9.352 15.51-24.475 41.672-33.356 56.511l-12.888-21.817a7.5 7.5 0 0 0-10.272-2.643c-.122.072-.235.154-.352.232-3.316 2.158-4.407 6.552-2.408 10.021l12.924 22.423-60.935-.003c-24.699.841-44.231-26.919-33.714-49.611M31.39 203.279v-46c0-6.893 5.607-12.5 12.5-12.5h153.5v71H43.89c-6.893 0-12.5-5.607-12.5-12.5m38 281v-253.5h128v29h-85.5c-9.649 0-17.5 7.851-17.5 17.5v130.5c0 4.143 3.358 7.5 7.5 7.5s7.5-3.357 7.5-7.5v-130.5c0-1.379 1.122-2.5 2.5-2.5h85.5v182h-85.5a2.503 2.503 0 0 1-2.5-2.5v-11.5c0-4.143-3.358-7.5-7.5-7.5s-7.5 3.357-7.5 7.5v11.5c0 9.649 7.851 17.5 17.5 17.5h85.5v25H81.89c-6.893 0-12.5-5.607-12.5-12.5m373 0c0 6.893-5.607 12.5-12.5 12.5h-115.5v-25h85.5c9.649 0 17.5-7.851 17.5-17.5v-132.5c0-4.143-3.358-7.5-7.5-7.5s-7.5 3.357-7.5 7.5v132.5c0 1.379-1.122 2.5-2.5 2.5h-85.5v-182h85.5c1.378 0 2.5 1.121 2.5 2.5v9.5c0 4.143 3.358 7.5 7.5 7.5s7.5-3.357 7.5-7.5v-9.5c0-9.649-7.851-17.5-17.5-17.5h-85.5v-29h128z"/></svg>