<svg xmlns="http://www.w3.org/2000/svg" width="512" height="512" viewBox="0 0 513.5 513.5"><path fill="#ffc682" d="M486 96.5c11.046 0 20 8.954 20 20V397c0 11.046-8.954 20-20 20H27.5c-11.046 0-20-8.954-20-20V116.5c0-11.046 8.954-20 20-20z"/><path fill="#ffac5c" d="M49.5 417h-22c-11.05 0-20-8.95-20-20V116.5c0-11.05 8.95-20 20-20h22c-11.05 0-20 8.95-20 20V397c0 11.05 8.95 20 20 20"/><g fill="#fff"><path d="M456 324.5H346c-4.143 0-7.5-3.357-7.5-7.5s3.357-7.5 7.5-7.5h110c4.143 0 7.5 3.357 7.5 7.5s-3.357 7.5-7.5 7.5M456 355.5h-19.5c-4.143 0-7.5-3.357-7.5-7.5s3.357-7.5 7.5-7.5H456c4.143 0 7.5 3.357 7.5 7.5s-3.357 7.5-7.5 7.5M401.5 355.5H346c-4.143 0-7.5-3.357-7.5-7.5s3.357-7.5 7.5-7.5h55.5c4.143 0 7.5 3.357 7.5 7.5s-3.357 7.5-7.5 7.5"/></g><path fill="#50758d" d="M208 96.5h41V417h-41z"/><path fill="#50758d" d="M7.5 199H506v41H7.5z"/><path fill="#fd646f" d="m210.36 245.86-19.35 9.51-45.65 22.43c-6.83 3.36-14.39 5.11-21.99 4.7-21.01-1.11-38.87-16.57-38.87-38.87v-50.98c0-20.53 15.14-35.26 33.94-38.34 8.41-1.38 17.02-.12 24.82 3.26l31.36 15.89 15.8 8.06 18.93 9.66c-8.02 6.25-13.18 16-13.18 26.96 0 11.41 5.59 21.52 14.19 27.72M375.5 192.65v50.98c0 22.3-17.86 37.76-38.87 38.87-7.6.41-15.16-1.34-21.99-4.7l-45.19-22.22-19.41-9.54c8.74-6.18 14.45-16.37 14.45-27.9 0-11.07-5.27-20.92-13.44-27.16l18.99-9.69 44.2-22.56c8.44-4.23 18-5.95 27.32-4.42 18.8 3.08 33.94 17.81 33.94 38.34"/><path fill="#fc4755" d="m210.36 245.86-19.35 9.51c-9.42-9.96-14.84-23.3-14.84-37.23 0-13.77 5.1-26.71 14.25-36.62l18.93 9.66c-8.02 6.25-13.18 16-13.18 26.96 0 11.41 5.59 21.52 14.19 27.72M284.49 218.14c0 14.05-5.49 27.45-15.04 37.44l-19.41-9.54c8.74-6.18 14.45-16.37 14.45-27.9 0-11.07-5.27-20.92-13.44-27.16l18.99-9.69c9.27 9.93 14.45 22.95 14.45 36.85"/><path fill="#fd646f" d="M264.49 218.14c0 11.53-5.71 21.72-14.45 27.9a33.95 33.95 0 0 1-19.71 6.26 34.05 34.05 0 0 1-19.97-6.44c-8.6-6.2-14.19-16.31-14.19-27.72 0-10.96 5.16-20.71 13.18-26.96 5.79-4.51 13.07-7.2 20.98-7.2 7.79 0 14.98 2.61 20.72 7 8.17 6.24 13.44 16.09 13.44 27.16"/><path fill="#2b597f" d="M7.5 199h22v41h-22z"/><path d="M456 309.5H346c-4.143 0-7.5 3.357-7.5 7.5s3.357 7.5 7.5 7.5h110c4.143 0 7.5-3.357 7.5-7.5s-3.357-7.5-7.5-7.5M456 340.5h-19.5c-4.143 0-7.5 3.357-7.5 7.5s3.357 7.5 7.5 7.5H456c4.143 0 7.5-3.357 7.5-7.5s-3.357-7.5-7.5-7.5M401.5 340.5H346c-4.143 0-7.5 3.357-7.5 7.5s3.357 7.5 7.5 7.5h55.5c4.143 0 7.5-3.357 7.5-7.5s-3.357-7.5-7.5-7.5"/><path d="M486 89h-47.5c-4.143 0-7.5 3.357-7.5 7.5s3.357 7.5 7.5 7.5H486c6.893 0 12.5 5.607 12.5 12.5v75H382.974c-.541-22.524-16.912-40.778-40.201-44.593-10.7-1.753-21.732.018-31.942 5.145L256.5 179.773V104h147c4.143 0 7.5-3.357 7.5-7.5s-3.357-7.5-7.5-7.5h-376C12.336 89 0 101.336 0 116.5V397c0 15.164 12.336 27.5 27.5 27.5H486c15.164 0 27.5-12.336 27.5-27.5V116.5c0-15.164-12.336-27.5-27.5-27.5m12.5 143.5H383v-26h115.5zm-180.895-67.065c7.216-3.623 15.291-4.943 22.744-3.725 13.763 2.255 27.65 12.695 27.65 30.938v50.983c0 19.494-15.982 30.543-31.771 31.383-6.051.317-12.376-1.042-18.281-3.944l-55.016-27.048c11.67-13.699 11.961-37.006.603-50.999zM203.667 218.14c0-14.699 11.959-26.658 26.659-26.658 14.573-.023 26.666 11.897 26.659 26.658.02 14.777-12.128 26.687-26.659 26.659-14.7 0-26.659-11.959-26.659-26.659m37.833-40.124c-8.286-2.403-18.059-1.928-26 1.202V104h26zM27.5 104h173v74.243l-22.475-11.467a7.5 7.5 0 0 0-6.819 13.361l25.724 13.125c-11.117 13.919-10.825 36.904.606 50.529L142.05 271.07c-5.903 2.902-12.228 4.266-18.281 3.944C107.982 274.175 92 263.126 92 243.632c-.009-5.123.016-47.118 0-50.983 0-18.243 13.888-28.684 27.65-30.938 6.781-1.108 13.919-.162 20.634 2.74a7.496 7.496 0 0 0 9.86-3.909 7.5 7.5 0 0 0-3.909-9.86c-9.356-4.045-19.387-5.349-29.01-3.773-23.288 3.815-39.659 22.068-40.2 44.593H15v-75C15 109.607 20.607 104 27.5 104M15 232.5v-26h62v26zM15 397V247.5h62.172c1.919 23.193 20.959 41.172 45.802 42.493q1.266.067 2.539.067c7.807 0 15.761-1.893 23.156-5.529l51.831-25.482V409.5h-173c-6.893 0-12.5-5.607-12.5-12.5m471 12.5H256.5v-35c0-4.143-3.357-7.5-7.5-7.5s-7.5 3.357-7.5 7.5v35h-26V257.063c7.941 3.129 17.715 3.605 26 1.202V339.5c0 4.143 3.357 7.5 7.5 7.5s7.5-3.357 7.5-7.5v-81.926l54.831 26.957c8.221 4.024 16.944 5.91 25.695 5.462 24.843-1.321 43.883-19.3 45.802-42.493H498.5V397c0 6.893-5.607 12.5-12.5 12.5"/></svg>