<svg xmlns="http://www.w3.org/2000/svg" width="512" height="512" viewBox="0 0 511.014 511.014"><path fill="#ffc682" d="M365.576 131.5h46.816c15.466 0 28.34 12.006 29.583 27.588l22.306 279.588c2.786 34.925-24.502 64.823-59.166 64.823H110.369c-34.664 0-61.953-29.898-59.166-64.823l22.306-279.588c1.243-15.583 14.117-27.588 29.583-27.588h45.826z"/><path fill="#ffac5c" d="M449.357 483.5c-10.83 12.24-26.58 20-44.24 20h-294.75c-34.66 0-61.95-29.9-59.16-64.82l22.3-279.59c1.05-13.03 10.21-23.56 22.24-26.65l-24.61 307.83c-.91 11.4 2.83 22.26 10.53 30.6 7.52 8.15 17.71 12.63 28.7 12.63z"/><path fill="#ffac5c" d="M162.324 438.5c-6.986 0-13.441-2.858-18.178-8.048-4.736-5.189-7.036-11.924-6.474-18.961l11.265-141.196c.617-7.735 7.114-13.795 14.791-13.795h188.028c7.677 0 14.174 6.06 14.791 13.794l11.265 141.197c.562 7.037-1.738 13.771-6.474 18.961s-11.192 8.048-18.178 8.048z"/><path fill="#e0a446" d="M187.215 186.48c0 13.34-10.694 24.15-23.882 24.15-13.197 0-23.892-10.81-23.892-24.15 0-7.86 3.72-14.84 9.478-19.26a23.67 23.67 0 0 1 14.414-4.88c4.917 0 9.487 1.5 13.286 4.08a24.18 24.18 0 0 1 10.596 20.06M376.043 186.48c0 13.34-10.694 24.15-23.892 24.15-13.187 0-23.882-10.81-23.882-24.15 0-7.92 3.779-14.95 9.606-19.36 3.977-3 8.924-4.78 14.276-4.78 4.976 0 9.596 1.53 13.425 4.16a24.23 24.23 0 0 1 10.467 19.98"/><path fill="#f5f5f5" d="M365.576 117v49.5a23.6 23.6 0 0 0-13.425-4.16 23.63 23.63 0 0 0-14.276 4.78V117c0-44.94-36.169-81.5-80.628-81.5s-80.628 36.56-80.628 81.5v49.42a23.56 23.56 0 0 0-13.286-4.08 23.67 23.67 0 0 0-14.414 4.88V117c0-30.24 12.129-57.62 31.727-77.43S227.331 7.5 257.247 7.5c59.834 0 108.329 49.02 108.329 109.5"/><path d="M66.471 193.957c4.071.346 7.76-2.734 8.078-6.873l2.209-27.393C77.693 148.089 87.545 139 99.185 139h38.822v24.829c-5.903 5.752-9.579 13.779-9.579 22.653 0 17.449 14.196 31.646 31.646 31.646s31.646-14.196 31.646-31.646c0-9.429-4.15-17.902-10.713-23.705V139h148v24.701c-5.981 5.76-9.713 13.84-9.713 22.78 0 17.449 14.196 31.646 31.646 31.646 17.449 0 31.646-14.196 31.646-31.646 0-9.365-4.093-17.79-10.579-23.589V139h39.822c11.64 0 21.491 9.089 22.427 20.691l9.837 121.971a7.5 7.5 0 0 0 14.951-1.205l-9.837-121.971C447.648 139.148 431.23 124 411.829 124h-39.822v-7c0-26.503-9.146-52.484-25.75-73.157a7.501 7.501 0 0 0-11.695 9.395c14.684 18.279 22.445 40.328 22.445 63.763v38.425c-4.193-.842-8.848-.772-13 .185V117c0-49.075-39.925-89-89-89s-89 39.925-89 89v38.401c-4.199-.827-8.854-.736-13 .239V117c0-56.243 45.757-102 102-102 19.653 0 38.745 5.627 55.213 16.271a7.5 7.5 0 1 0 8.142-12.598C299.464 6.457 277.556 0 255.007 0c-64.514 0-117 52.486-117 117v7H99.185c-19.4 0-35.818 15.148-37.378 34.486l-2.209 27.393a7.5 7.5 0 0 0 6.873 8.078m301.115-7.476c0 9.179-7.467 16.646-16.646 16.646s-16.646-7.467-16.646-16.646 7.468-16.646 16.646-16.646 16.646 7.468 16.646 16.646M255.007 43c43.666-.208 77.306 37.879 74 81h-148c-3.308-43.122 30.336-81.209 74-81M176.72 186.481c0 9.179-7.468 16.646-16.646 16.646s-16.646-7.467-16.646-16.646 7.467-16.646 16.646-16.646 16.646 7.468 16.646 16.646M471.755 438.074l-9.897-122.73a7.501 7.501 0 0 0-14.951 1.205l9.897 122.73c3.094 29.662-22.516 57.421-52.33 56.721H106.54c-29.815.701-55.424-27.06-52.33-56.721l17.571-217.884a7.5 7.5 0 0 0-6.873-8.078c-4.101-.324-7.745 2.743-8.078 6.873L39.259 438.074c-3.89 38.102 28.992 73.74 67.281 72.926h297.934c38.291.815 71.171-34.826 67.281-72.926"/><path d="M351.956 431h-30.449c-4.143 0-7.5 3.357-7.5 7.5s3.357 7.5 7.5 7.5h30.449c18.455.435 34.311-16.752 32.396-35.111L372.964 269.69c-.936-11.602-10.787-20.69-22.427-20.69H160.476c-11.64 0-21.491 9.089-22.427 20.692l-11.387 141.195c-1.918 18.36 13.939 35.546 32.395 35.112h127.45c4.143 0 7.5-3.357 7.5-7.5s-3.357-7.5-7.5-7.5h-127.45c-9.937.234-18.475-9.02-17.443-18.906L153 270.898c.313-3.868 3.596-6.898 7.476-6.898h190.062c3.88 0 7.163 3.029 7.476 6.896L369.4 412.094c1.032 9.887-7.507 19.14-17.444 18.906"/></svg>