<svg xmlns="http://www.w3.org/2000/svg" width="512" height="512" viewBox="0 0 512.014 512.014"><path fill="#f8c201" fill-rule="evenodd" d="M414.5 126.979v25h-332c-13.807 0-25 11.193-25 25v219c0 6.9-2.8 13.16-7.32 17.68-6.255 6.255-15.843 9.217-25.848 6.021C14.179 416.436 7.5 406.71 7.5 396.051V76.978c0-13.807 11.193-25 25-25h150c13.807 0 25 11.193 25 25v20a5 5 0 0 0 5 5h177c13.807.001 25 11.194 25 25.001" clip-rule="evenodd"/><path fill="#faa515" d="M414.5 131.979v20h-332c-13.807 0-25 11.193-25 25v219c0 6.9-2.8 13.16-7.32 17.68s-10.78 7.32-17.68 7.32c-12.26 0-22.46-8.82-24.58-20.47H22.5c8.284 0 15-6.716 15-15v-208.53c0-24.853 20.147-45 45-45z"/><path fill="#fad207" d="M464.5 176.979v219c0 13.81-11.19 25-25 25h-407c6.9 0 13.16-2.8 17.68-7.32s7.32-10.78 7.32-17.68v-219c0-13.81 11.19-25 25-25h357c13.81 0 25 11.19 25 25"/><path fill="#faa515" d="M416 323.149c-.42 0-.83.02-1.24.03-11.904-34.083-41.206-59.984-77.26-67.08v-1.952H317v.009c-56.17.268-101.702 45.49-102.48 101.534-25.45 3.63-45.02 25.5-45.02 51.96 0 4.6.59 9.07 1.71 13.33H439.5c13.81 0 25-11.19 25-25v-52.71c-12.41-12.431-29.55-20.121-48.5-20.121"/><path fill="#f5f5f5" d="M240.925 459.616c-9.661-.018-19.213-2.588-27.333-7.822-14.494-9.341-24.092-25.622-24.092-44.148 0-26.454 19.569-48.328 45.019-51.96.782-56.211 46.584-101.54 102.981-101.54 44.982 0 83.222 28.838 97.259 69.031.414-.007.825-.031 1.241-.031 37.832 0 68.5 30.668 68.5 68.5 0 35.587-27.142 64.819-61.852 68.164-1.429.137-201.723-.194-201.723-.194"/><path fill="#e6e6e6" d="M401.03 276.079c-10.51-3.63-21.79-5.59-33.53-5.59-56.4 0-102.2 45.33-102.98 101.54-25.45 3.63-45.02 25.5-45.02 51.96 0 13.45 5.06 25.71 13.39 35-6.85-1.03-13.45-3.42-19.3-7.19-14.49-9.35-24.09-25.63-24.09-44.15 0-26.46 19.57-48.33 45.02-51.96.78-56.21 46.58-101.54 102.98-101.54 23.97 0 46.03 8.19 63.53 21.93"/><path d="M82.5 144.479c-17.921 0-32.5 14.579-32.5 32.5v162.5c0 4.143 3.357 7.5 7.5 7.5s7.5-3.357 7.5-7.5v-162.5c0-9.649 7.851-17.5 17.5-17.5h357c9.649 0 17.5 7.851 17.5 17.5v15.5c0 4.143 3.357 7.5 7.5 7.5s7.5-3.357 7.5-7.5v-15.5c0-17.921-14.579-32.5-32.5-32.5H422v-17.5c0-17.921-14.579-32.5-32.5-32.5H215v-17.5c0-17.921-14.579-32.5-32.5-32.5H90c-4.143 0-7.5 3.357-7.5 7.5s3.357 7.5 7.5 7.5h92.5c9.649 0 17.5 7.851 17.5 17.5v20c0 6.893 5.607 12.5 12.5 12.5h177c9.649 0 17.5 7.851 17.5 17.5v17.5z"/><path d="M472 324.741v-97.262c0-4.143-3.357-7.5-7.5-7.5s-7.5 3.357-7.5 7.5v91.136a75.6 75.6 0 0 0-17.024-2.867c-16.78-41.545-57.31-69.103-102.476-69.103-29.242 0-56.806 11.313-77.615 31.854-19.333 19.085-30.782 44.098-32.615 70.984-26.204 6.645-45.27 30.621-45.27 58.162q.001 2.943.282 5.833H59.865a32.3 32.3 0 0 0 5.135-17.5v-21.5c0-4.143-3.357-7.5-7.5-7.5s-7.5 3.357-7.5 7.5v21.5c0 9.649-7.851 17.5-17.5 17.5s-17.5-7.851-17.5-17.5v-319c0-9.649 7.851-17.5 17.5-17.5H55c4.143 0 7.5-3.357 7.5-7.5s-3.357-7.5-7.5-7.5H32.5c-17.921 0-32.5 14.579-32.5 32.5v319c0 17.921 14.579 32.5 32.5 32.5h153.213c4.433 12.008 12.669 22.436 23.816 29.619 9.12 5.879 19.972 8.997 31.382 9.018l159.075.293H400a7.5 7.5 0 0 0 .014-15l-159.075-.293c-8.531-.016-16.583-2.307-23.283-6.625C204.722 437.155 197 423.007 197 407.646c0-22.25 16.585-41.396 38.578-44.535a7.5 7.5 0 0 0 6.439-7.32c.723-51.911 43.556-94.145 95.482-94.145 40.569 0 76.81 25.722 90.179 64.004a7.5 7.5 0 0 0 7.08 5.027c34.053-.79 62.284 26.924 62.241 60.969.098 33.962-27.841 61.853-62.03 60.827a7.5 7.5 0 0 0 .029 15c41.176 1.781 77.841-34.753 77.001-75.827.001-28.888-16.206-54.052-39.999-66.905"/></svg>