<svg xmlns="http://www.w3.org/2000/svg" width="512" height="512"><path fill="#50758d" d="M505.25 130.751v250.5c0 22.09-17.91 40-40 40H46.75c-22.09 0-40-17.91-40-40v-250.5c0-22.09 17.91-40 40-40h418.5c22.09 0 40 17.91 40 40"/><path fill="#2b597f" d="M67.75 421.251h-21c-22.09 0-40-17.91-40-40v-250.5c0-22.09 17.91-40 40-40h21c-22.09 0-40 17.91-40 40v250.5c0 22.09 17.91 40 40 40"/><g fill="#f5f5f5"><path d="M118.5 365.841h-45c-8.284 0-15-6.716-15-15s6.716-15 15-15h45c8.284 0 15 6.716 15 15s-6.716 15-15 15M228.5 365.841h-45c-8.284 0-15-6.716-15-15s6.716-15 15-15h45c8.284 0 15 6.716 15 15s-6.716 15-15 15M338.5 365.841h-45c-8.284 0-15-6.716-15-15s6.716-15 15-15h45c8.284 0 15 6.716 15 15s-6.716 15-15 15M403.5 365.841c-8.284 0-15-6.716-15-15s6.716-15 15-15h45c8.284 0 15 6.716 15 15s-6.716 15-15 15z"/></g><path fill="#fad207" d="M149.415 154.479c12.474 0 22.585 10.112 22.585 22.585v31.593c0 12.474-10.112 22.585-22.585 22.585H82.788c-12.474 0-22.585-10.112-22.585-22.585v-31.593c0-12.474 10.112-22.585 22.585-22.585z"/><path fill="#faa515" d="M102.79 231.241h-20c-12.48 0-22.59-10.11-22.59-22.58v-31.6c0-12.47 10.11-22.58 22.59-22.58h20c-12.48 0-22.59 10.11-22.59 22.58v31.6c0 12.47 10.11 22.58 22.59 22.58"/><path fill="#2edffc" d="M461.92 186.501a7.47 7.47 0 0 1-5.49 2.39c-1.83 0-3.66-.67-5.11-2.01-5.13-4.78-10.51-9.13-16-12.94-20.2-14-41.94-21.1-64.62-21.1-15.27 0-30.14 3.23-44.39 9.62-.01 0-.02.01-.03.01q-1.29.585-2.58 1.2c-.76.36-1.51.73-2.26 1.11-.74.37-1.48.75-2.21 1.14a118 118 0 0 0-7.38 4.24c-.76.47-1.52.95-2.27 1.44-.05.02-.1.06-.15.09-.77.5-1.54 1.01-2.3 1.53-5.42 3.69-10.72 7.88-15.73 12.44-3.07 2.78-7.81 2.56-10.6-.5-2.78-3.07-2.56-7.81.51-10.6a159 159 0 0 1 17.38-13.74c7.18-4.88 14.55-8.98 22.07-12.32 15.99-7.08 32.71-10.66 49.94-10.66 25.43 0 50.73 8.22 73.17 23.78 6.08 4.21 12.02 9.02 17.67 14.28 3.03 2.82 3.2 7.57.38 10.6"/><path fill="#2edffc" d="M433.259 208.36a7.47 7.47 0 0 1-4.94-1.859 114 114 0 0 0-10.093-7.898c-15.075-10.459-31.064-15.762-47.524-15.762-16.156 0-31.873 5.115-46.714 15.203a112 112 0 0 0-9.621 7.354 7.5 7.5 0 0 1-10.573-.843 7.5 7.5 0 0 1 .843-10.573 127 127 0 0 1 10.918-8.344c17.375-11.81 35.929-17.798 55.147-17.798 19.574 0 38.44 6.203 56.075 18.438a129 129 0 0 1 11.429 8.941 7.5 7.5 0 0 1-4.947 13.141"/><path fill="#2edffc" d="M409.937 227.961a7.47 7.47 0 0 1-4.634-1.606 85 85 0 0 0-4.173-3.1c-10.101-7.008-20.053-10.414-30.428-10.414-10.164 0-19.93 3.276-29.858 10.016a74 74 0 0 0-3.456 2.496 7.5 7.5 0 1 1-9.154-11.883 87 87 0 0 1 4.172-3.016c12.506-8.49 25.029-12.613 38.294-12.613 13.534 0 26.283 4.281 38.975 13.088a99 99 0 0 1 4.903 3.639 7.5 7.5 0 0 1-4.641 13.393M386.235 247.882a7.47 7.47 0 0 1-3.969-1.142c-5.526-3.456-9.083-3.899-11.563-3.899-2.257 0-5.476.361-10.366 3.179a7.5 7.5 0 0 1-7.487-12.998c8.061-4.644 14.05-5.181 17.854-5.181 4.135 0 10.657.641 19.517 6.181a7.5 7.5 0 0 1-3.986 13.86"/><path fill="#27bdf3" d="M341.91 188.441c.19-.08.38-.15.57-.22-6.29 2.45-12.46 5.72-18.49 9.82a111 111 0 0 0-9.62 7.36c-3.15 2.68-7.89 2.31-10.58-.85a7.497 7.497 0 0 1 .85-10.57c3.54-3.02 7.21-5.82 10.91-8.34 6.76-4.59 13.69-8.31 20.78-11.12a7.5 7.5 0 0 0 5.58 13.92"/><path fill="#2edffc" d="M352.584 200.564c-.122.037-.242.081-.364.118.057-.019.112-.044.17-.062q.098-.027.194-.056"/><path fill="#27bdf3" d="M356.82 214.951c.23-.07.46-.14.69-.2-5.57 1.63-11.09 4.33-16.67 8.11-1.25.85-2.38 1.67-3.45 2.49-3.28 2.53-7.99 1.92-10.52-1.36s-1.92-7.99 1.37-10.52c1.3-1.01 2.66-1.99 4.17-3.02 6.563-4.456 13.132-7.686 19.81-9.768-3.851 1.288-5.992 5.417-4.78 9.318 1.22 3.95 5.42 6.17 9.38 4.95M370.7 242.841c-2.26 0-5.47.36-10.36 3.18-3.59 2.06-8.18.83-10.25-2.76a7.505 7.505 0 0 1 2.76-10.24c8.06-4.64 14.05-5.18 17.85-5.18-4.14 0-7.5 3.36-7.5 7.5s3.36 7.5 7.5 7.5M326.28 162.471c-6.679 3.006-13.086 6.622-19.15 10.75-5.42 3.69-10.72 7.88-15.73 12.44-3.07 2.78-7.81 2.56-10.6-.5-2.78-3.07-2.56-7.81.51-10.6a159 159 0 0 1 17.38-13.74c7.18-4.88 14.55-8.98 22.07-12.32l.02.02a7.503 7.503 0 0 0-3.83 9.89c1.59 3.6 5.67 5.34 9.33 4.06"/><path d="M464.639 83.25H47.361C21.246 83.25 0 104.559 0 130.75v250.5c0 26.191 21.246 47.5 47.361 47.5h26.873c4.13 0 7.478-3.357 7.478-7.5s-3.348-7.5-7.478-7.5H47.361c-17.868 0-32.405-14.579-32.405-32.5v-250.5c0-17.921 14.537-32.5 32.405-32.5h417.278c17.868 0 32.405 14.579 32.405 32.5v58.591c0 4.143 3.348 7.5 7.478 7.5s7.478-3.357 7.478-7.5V130.75c0-26.191-21.246-47.5-47.361-47.5M504.522 216.841c-4.13 0-7.478 3.357-7.478 7.5V381.25c0 17.921-14.537 32.5-32.405 32.5H109.132c-4.13 0-7.478 3.357-7.478 7.5s3.348 7.5 7.478 7.5h355.506c26.115 0 47.361-21.309 47.361-47.5V224.341c.001-4.143-3.347-7.5-7.477-7.5"/><path d="M83.294 161.979h5.197c4.13 0 7.478-3.357 7.478-7.5s-3.348-7.5-7.478-7.5h-5.197c-16.541 0-29.998 13.496-29.998 30.086v31.593c0 16.59 13.457 30.086 29.998 30.086h66.432c16.541 0 29.998-13.496 29.998-30.086v-31.593c0-16.59-13.457-30.086-29.998-30.086h-26.337c-4.13 0-7.478 3.357-7.478 7.5s3.348 7.5 7.478 7.5h26.337c8.294 0 15.041 6.768 15.041 15.086v31.593c0 8.318-6.747 15.086-15.041 15.086H83.294c-8.294 0-15.041-6.768-15.041-15.086v-31.593c-.001-8.319 6.747-15.086 15.041-15.086M74.033 373.341h44.869c12.37 0 22.434-10.094 22.434-22.5s-10.064-22.5-22.434-22.5H74.033c-12.37 0-22.434 10.094-22.434 22.5s10.064 22.5 22.434 22.5m0-30h44.869c4.124 0 7.478 3.364 7.478 7.5s-3.354 7.5-7.478 7.5H74.033c-4.124 0-7.478-3.364-7.478-7.5s3.354-7.5 7.478-7.5M161.278 350.841c0 12.406 10.064 22.5 22.434 22.5h44.869c12.37 0 22.434-10.094 22.434-22.5s-10.064-22.5-22.434-22.5h-44.869c-12.371 0-22.434 10.094-22.434 22.5m22.434-7.5h44.869c4.124 0 7.478 3.364 7.478 7.5s-3.354 7.5-7.478 7.5h-44.869c-4.124 0-7.478-3.364-7.478-7.5s3.354-7.5 7.478-7.5M270.956 350.841c0 12.406 10.064 22.5 22.434 22.5h44.869c12.371 0 22.434-10.094 22.434-22.5s-10.064-22.5-22.434-22.5H293.39c-12.37 0-22.434 10.094-22.434 22.5m22.434-7.5h44.869c4.124 0 7.478 3.364 7.478 7.5s-3.354 7.5-7.478 7.5H293.39c-4.124 0-7.478-3.364-7.478-7.5s3.355-7.5 7.478-7.5M447.938 358.341h-4.784c-4.13 0-7.478 3.357-7.478 7.5s3.348 7.5 7.478 7.5h4.784c12.37 0 22.434-10.094 22.434-22.5s-10.064-22.5-22.434-22.5h-44.869c-12.37 0-22.434 10.094-22.434 22.5s10.064 22.5 22.434 22.5h5.187c4.13 0 7.478-3.357 7.478-7.5s-3.348-7.5-7.478-7.5h-5.187c-4.124 0-7.478-3.364-7.478-7.5s3.354-7.5 7.478-7.5h44.869c4.124 0 7.478 3.364 7.478 7.5s-3.355 7.5-7.478 7.5M443.316 161.616c-22.372-15.554-47.598-23.775-72.949-23.775-32.081-.398-64.71 14.052-89.135 36.721a7.515 7.515 0 0 0-.501 10.595 7.464 7.464 0 0 0 10.564.503c21.666-20.142 50.72-33.196 79.073-32.818 28.915-.394 58.494 13.185 80.383 34.038a7.46 7.46 0 0 0 10.569-.377 7.516 7.516 0 0 0-.376-10.6c-5.635-5.263-11.565-10.069-17.628-14.287"/><path d="M417.752 198.603a114 114 0 0 1 10.063 7.898 7.465 7.465 0 0 0 10.553-.697 7.517 7.517 0 0 0-.695-10.584c-18.765-16.835-43.484-27.713-67.306-27.379-23.244-.299-47.337 9.98-65.872 26.142a7.515 7.515 0 0 0-.84 10.573 7.463 7.463 0 0 0 10.542.843c15.807-13.82 36.507-22.842 56.17-22.558 16.411 0 32.354 5.303 47.385 15.762"/><path d="M337.151 225.353c9.996-7.818 22.078-12.694 33.216-12.512 10.345 0 20.268 3.406 30.339 10.414 3.998 3.549 10.379 7.434 14.663 1.845 2.554-3.255 1.994-7.97-1.251-10.532-13.043-10.53-28.615-16.933-43.75-16.727-14.512-.193-29.654 5.733-42.343 15.629-3.272 2.527-3.881 7.236-1.361 10.518s7.215 3.893 10.487 1.365"/><path d="M360.031 246.02c4.876-2.817 8.085-3.179 10.336-3.179 2.474 0 6.019.443 11.53 3.899 3.45 2.177 8.103 1.158 10.305-2.383 2.19-3.512 1.127-8.14-2.375-10.336-8.833-5.54-15.336-6.181-19.46-6.181-3.793 0-9.764.537-17.801 5.181-3.579 2.068-4.809 6.653-2.747 10.243a7.467 7.467 0 0 0 10.212 2.756"/></svg>