<svg xmlns="http://www.w3.org/2000/svg" width="512" height="512"><g fill="#50758d"><circle cx="117.936" cy="393.88" r="110.085"/><circle cx="394.372" cy="393.88" r="110.085"/><circle cx="256" cy="123.168" r="115.457"/></g><path fill="#fad207" d="m283.5 170.21.001-3.544a19.76 19.76 0 0 1 7.579-15.553c13.942-10.932 22.652-28.232 21.754-47.52-1.357-29.134-25.009-52.771-54.144-54.113-32.646-1.503-59.585 24.52-59.585 56.834 0 18.439 8.771 34.829 22.369 45.226 4.985 3.811 8.026 9.63 8.027 15.905l.001 2.766z"/><path fill="#faa515" d="M252.739 133.766a7.5 7.5 0 0 1-5.117-2.017l-19.565-18.261a7.501 7.501 0 0 1 10.235-10.967l13.368 12.478 21.102-29.014a7.5 7.5 0 0 1 10.477-1.654 7.5 7.5 0 0 1 1.654 10.477l-26.087 35.869a7.5 7.5 0 0 1-6.067 3.089"/><path fill="#f5f5f5" d="M263.5 204.21h-14c-11.046 0-20-8.954-20-20v-14h54v14c0 11.046-8.954 20-20 20"/><path fill="#faa515" d="M244.5 167.44v2.77h-15v-2.77c0-6.27-3.04-12.09-8.03-15.9-13.6-10.4-22.37-26.79-22.37-45.23 0-32.31 26.94-58.33 59.59-56.83 1.63.07 3.24.22 4.83.43-27.89 3.66-49.42 27.52-49.42 56.4 0 18.44 8.77 34.83 22.37 45.23 4.99 3.81 8.03 9.63 8.03 15.9"/><path fill="#e6e6e6" d="M264 204.2c-.17.01-.33.01-.5.01h-14c-11.05 0-20-8.95-20-20v-14h15v14c0 10.88 8.68 19.73 19.5 19.99"/><path fill="#50758d" d="M143.299 293.912a7.5 7.5 0 0 1-5.304-12.803l58.201-58.202a7.5 7.5 0 0 1 10.607 10.607l-58.201 58.202a7.48 7.48 0 0 1-5.303 2.196M368.937 294.146a7.48 7.48 0 0 1-5.304-2.196l-58.437-58.437a7.5 7.5 0 0 1 10.607-10.607l58.437 58.437a7.5 7.5 0 0 1-5.303 12.803"/><circle cx="394.372" cy="348.63" r="22.439" fill="#ffc682"/><path fill="#2edffc" d="M145.936 461.569h-56c-8.284 0-15-6.716-15-15v-9c0-22.644 20.356-41 43-41s43 18.356 43 41v9c0 8.284-6.716 15-15 15"/><path fill="#93ddb7" d="M421.936 461.569h-56c-8.284 0-15-6.716-15-15v-9c0-22.644 20.356-41 43-41s43 18.356 43 41v9c0 8.284-6.716 15-15 15"/><path fill="#27bdf3" d="M109.94 461.57h-20c-8.29 0-15-6.72-15-15v-9c0-22.64 20.35-41 43-41 3.4 0 6.76.42 10 1.2-18.31 4.42-33 20.56-33 39.8v9c0 8.28 6.71 15 15 15"/><path fill="#5ed297" d="M385.94 461.57h-20c-8.29 0-15-6.72-15-15v-9c0-22.64 20.35-41 43-41 3.4 0 6.76.42 10 1.2-18.31 4.42-33 20.56-33 39.8v9c0 8.28 6.71 15 15 15"/><circle cx="118.372" cy="348.63" r="22.439" fill="#ffc682"/><path fill="#ffac5c" d="M413.27 360.72c-3.99 6.23-10.96 10.35-18.9 10.35-12.39 0-22.44-10.05-22.44-22.44 0-11.06 8.01-20.25 18.54-22.09a22.3 22.3 0 0 0-3.54 12.09c0 12.39 10.05 22.44 22.44 22.44 1.33 0 2.63-.12 3.9-.35M137.27 360.72c-3.99 6.23-10.96 10.35-18.9 10.35-12.39 0-22.44-10.05-22.44-22.44 0-11.06 8.01-20.25 18.54-22.09a22.3 22.3 0 0 0-3.54 12.09c0 12.39 10.05 22.44 22.44 22.44 1.33 0 2.63-.12 3.9-.35"/><path fill="#2b597f" d="M117.937 511.466C53.1 511.466.351 458.718.351 393.881S53.1 276.295 117.937 276.295s117.585 52.749 117.585 117.586-52.749 117.585-117.585 117.585m0-220.171c-56.566 0-102.586 46.02-102.586 102.586s46.02 102.585 102.586 102.585 102.585-46.02 102.585-102.585c-.001-56.567-46.02-102.586-102.585-102.586M394.372 511.466c-64.837 0-117.585-52.748-117.585-117.585s52.748-117.586 117.585-117.586 117.585 52.749 117.585 117.586-52.748 117.585-117.585 117.585m0-220.171c-56.565 0-102.585 46.02-102.585 102.586s46.02 102.585 102.585 102.585 102.585-46.02 102.585-102.585c0-56.567-46.019-102.586-102.585-102.586M256 246.125c-67.799 0-122.957-55.158-122.957-122.957S188.201.21 256 .21s122.957 55.159 122.957 122.958S323.799 246.125 256 246.125m0-230.915c-59.527 0-107.957 48.43-107.957 107.958S196.473 231.125 256 231.125s107.957-48.43 107.957-107.957C363.957 63.64 315.527 15.21 256 15.21"/><path d="M247.622 131.749c3.139 3.06 8.688 2.522 11.183-1.072l26.087-35.869a7.5 7.5 0 0 0-12.131-8.823l-21.102 29.014-13.368-12.478a7.501 7.501 0 0 0-10.235 10.967z"/><path d="M259.034 41.987c-16.781-.778-32.948 4.887-45.521 15.936a7.5 7.5 0 0 0-.684 10.584 7.5 7.5 0 0 0 10.584.684c9.642-8.473 22.034-12.813 34.932-12.219 25.18 1.159 45.823 21.791 46.996 46.97.745 15.983-6.316 31.41-18.89 41.27-5.588 4.382-9.16 10.615-10.156 17.499h-39.711c-1.188-6.722-4.891-12.796-10.556-17.128-12.345-9.439-19.425-23.752-19.425-39.268 0-3.586.385-7.162 1.145-10.629a7.5 7.5 0 0 0-5.721-8.932 7.496 7.496 0 0 0-8.932 5.721 64.8 64.8 0 0 0-1.492 13.84c0 20.227 9.227 38.883 25.314 51.184 4.197 3.056 5.46 7.908 5.082 12.715v13.997c0 15.163 12.337 27.5 27.5 27.5h14c15.163 0 27.5-12.337 27.5-27.5v-13.998c-.349-4.857.502-10.149 4.707-13.197 16.385-12.848 25.588-32.949 24.618-53.771-1.529-32.838-28.451-59.745-61.29-61.258M276 184.21c0 6.893-5.607 12.5-12.5 12.5h-14c-6.893 0-12.5-5.607-12.5-12.5v-6.5h39zM434.485 421.01a7.5 7.5 0 0 0-5.419 9.118 30.2 30.2 0 0 1 .934 7.441v9c0 4.136-3.364 7.5-7.5 7.5h-56c-4.136 0-7.5-3.364-7.5-7.5v-9c0-17.846 16.589-33.5 35.5-33.5 5.49 0 11.063 1.343 16.115 3.882a7.5 7.5 0 1 0 6.736-13.402c-7.132-3.585-15.034-5.479-22.852-5.479-27.374 0-50.5 22.21-50.5 48.5v9c0 12.406 10.094 22.5 22.5 22.5h56c12.406 0 22.5-10.094 22.5-22.5v-9c0-3.751-.47-7.499-1.396-11.141a7.504 7.504 0 0 0-9.118-5.419M394.5 378.569c16.508 0 29.938-13.431 29.938-29.938 0-16.509-13.431-29.939-29.938-29.939s-29.938 13.431-29.938 29.939 13.43 29.938 29.938 29.938m0-44.878c8.237 0 14.938 6.702 14.938 14.939s-6.701 14.938-14.938 14.938-14.938-6.701-14.938-14.938 6.701-14.939 14.938-14.939M67 437.569v9c0 12.406 10.094 22.5 22.5 22.5h17.346c4.143 0 7.5-3.357 7.5-7.5s-3.357-7.5-7.5-7.5H89.5c-4.136 0-7.5-3.364-7.5-7.5v-9c0-17.846 16.589-33.5 35.5-33.5s35.5 15.654 35.5 33.5v9c0 4.136-3.364 7.5-7.5 7.5h-3.346c-4.143 0-7.5 3.357-7.5 7.5s3.357 7.5 7.5 7.5h3.346c12.406 0 22.5-10.094 22.5-22.5v-9c0-26.29-23.126-48.5-50.5-48.5s-50.5 22.21-50.5 48.5M87.562 348.631c0 16.508 13.431 29.938 29.938 29.938s29.938-13.431 29.938-29.938c0-16.509-13.431-29.939-29.938-29.939s-29.938 13.43-29.938 29.939m44.876 0c0 8.237-6.701 14.938-14.938 14.938s-14.938-6.701-14.938-14.938 6.701-14.939 14.938-14.939 14.938 6.702 14.938 14.939"/><path d="M394.5 276.79c-7.736 0-15.297.76-22.619 2.193l-51.481-51.48c35.011-21.655 58.39-60.397 58.39-104.503C378.79 55.293 323.707.21 256 .21S133.21 55.293 133.21 123c0 44.106 23.379 82.848 58.391 104.503l-51.48 51.48a117.6 117.6 0 0 0-22.62-2.193C52.71 276.79 0 329.5 0 394.29s52.71 117.5 117.5 117.5S235 459.08 235 394.29c0-51.023-32.693-94.547-78.229-110.743l48.66-48.66c15.429 7.001 32.552 10.902 50.569 10.902s35.14-3.902 50.57-10.903l48.66 48.66C309.694 299.743 277 343.267 277 394.29c0 64.79 52.71 117.5 117.5 117.5S512 459.08 512 394.29s-52.71-117.5-117.5-117.5M220 394.29c0 56.519-45.981 102.5-102.5 102.5S15 450.809 15 394.29s45.981-102.5 102.5-102.5S220 337.771 220 394.29M148.21 123c0-59.436 48.354-107.79 107.79-107.79S363.79 63.564 363.79 123 315.436 230.79 256 230.79 148.21 182.436 148.21 123M394.5 496.79c-56.519 0-102.5-45.981-102.5-102.5s45.981-102.5 102.5-102.5S497 337.771 497 394.29s-45.981 102.5-102.5 102.5"/></svg>