<svg xmlns="http://www.w3.org/2000/svg" width="512" height="512"><circle cx="223.5" cy="288.5" r="216" fill="#fd646f"/><path fill="#fc4755" d="M439.5 288.5c0 119.29-96.71 216-216 216-64.73 0-122.82-28.48-162.4-73.6 38.02 33.37 87.85 53.6 142.4 53.6 119.29 0 216-96.71 216-216 0-54.55-20.23-104.38-53.6-142.4 45.12 39.58 73.6 97.67 73.6 162.4"/><circle cx="223.5" cy="288.5" r="163" fill="#f5f5f5"/><path fill="#e6e6e6" d="M386.5 288.5c0 90.02-72.98 163-163 163-50.1 0-94.92-22.61-124.83-58.17 28.34 23.82 64.91 38.17 104.83 38.17 90.02 0 163-72.98 163-163 0-39.92-14.35-76.49-38.17-104.83 35.56 29.91 58.17 74.73 58.17 124.83"/><circle cx="223.5" cy="288.5" r="110" fill="#fd646f"/><path fill="#fc4755" d="M333.5 288.5c0 60.75-49.25 110-110 110-35.47 0-67.03-16.79-87.14-42.86 18.57 14.34 41.86 22.86 67.14 22.86 60.75 0 110-49.25 110-110 0-25.28-8.52-48.57-22.86-67.14 26.07 20.11 42.86 51.67 42.86 87.14"/><circle cx="223.5" cy="288.5" r="56" fill="#f5f5f5"/><path fill="#fc4755" d="M427.87 358.59a214.5 214.5 0 0 1-15.95 35.59l-48.22-22.49c6.61-11.1 11.93-23.06 15.76-35.67z"/><path fill="#e6e6e6" d="M379.46 336.02a161.4 161.4 0 0 1-15.76 35.67l-48.41-22.57a108.9 108.9 0 0 0 15.4-35.84z"/><path fill="#fc4755" d="M330.69 313.28a108.9 108.9 0 0 1-15.4 35.84l-50.02-23.32c8.66-9.7 14-22.43 14.22-36.4z"/><path fill="#e6e6e6" d="M279.49 289.4c-.22 13.97-5.56 26.7-14.22 36.4l-46.85-21.85c-9.16-4.26-13.44-14.74-10.17-24.08.22-.61.46-1.22.74-1.83 2.28-4.88 6.31-8.37 11.01-10.08 4.68-1.7 10.03-1.63 14.9.65z"/><path fill="#50758d" d="M500.678 99.863c1.602.267 2.234 2.232 1.088 3.384L480.61 124.5l-12.98 13.04-35.468 35.622a10 10 0 0 1-8.712 2.811l-52.901-8.713 39.62-39.3 13.13-13.02 24.15-23.96z"/><path fill="#2b597f" d="m480.61 124.5-12.98 13.04-57.46-9.58 13.13-13.02z"/><path fill="#50758d" d="M422.13 67.89 398.1 91.4l-13.07 12.79-39.48 38.63-8.817-53.578a10 10 0 0 1 2.793-8.691L375.14 44.9l13.03-13.05 21.558-21.575c1.155-1.156 3.133-.514 3.39 1.099z"/><path fill="#2b597f" d="m398.1 91.4-13.07 12.79-9.89-59.29 13.03-13.05z"/><path fill="#918291" d="M467.84 64.66c0 4.98-1.9 9.98-5.71 13.78L240.44 300.13c-7.14 7.15-18.45 7.59-26.11 1.32-.5-.41-.99-.85-1.46-1.32a19.42 19.42 0 0 1-5.71-13.79c0-4.98 1.9-9.98 5.71-13.78L434.56 50.87c7.61-7.62 19.96-7.62 27.57 0 .47.47.91.96 1.32 1.46 2.93 3.58 4.39 7.95 4.39 12.33"/><path fill="#7a6e79" d="M467.84 64.66c0 4.98-1.9 9.98-5.71 13.78L240.44 300.13c-7.14 7.15-18.45 7.59-26.11 1.32L463.45 52.33c2.93 3.58 4.39 7.95 4.39 12.33"/><path d="M428.531 184.307a7.5 7.5 0 0 0 5.315-2.208l75.969-76.307a7.5 7.5 0 0 0-4.081-12.69l-40.839-6.814 2.541-2.541c10.527-10.527 10.527-27.656 0-38.184-10.526-10.526-27.656-10.528-38.185 0l-2.661 2.661-6.685-41.906a7.499 7.499 0 0 0-12.712-4.119l-76.6 76.676a7.5 7.5 0 0 0-2.095 6.519l1.04 6.321C297.083 74.196 260.745 65 223.5 65c-43.359 0-85.413 12.433-121.613 35.954a7.499 7.499 0 0 0 4.093 13.79c1.4 0 2.817-.392 4.079-1.212C143.821 91.595 183.048 80 223.5 80c38.735 0 76.411 10.657 109.188 30.845l4.42 26.862-13.074 13.074C294.737 129.314 260.123 118 223.5 118 129.486 118 53 194.486 53 288.5S129.486 459 223.5 459 394 382.514 394 288.5q0-2.413-.066-4.812a7.48 7.48 0 0 0-7.703-7.292 7.5 7.5 0 0 0-7.291 7.703q.06 2.193.061 4.4c0 85.743-69.757 155.5-155.5 155.5S68 374.243 68 288.5 137.757 133 223.5 133c32.615 0 63.479 9.84 89.788 28.528l-27.405 27.405C267.201 177.194 245.772 171 223.5 171 158.71 171 106 223.71 106 288.5c0 7.772.765 15.545 2.271 23.102 1.81 9.607 16.747 6.554 14.711-2.935A103.3 103.3 0 0 1 121 288.5c0-56.519 45.981-102.5 102.5-102.5 18.268 0 35.883 4.773 51.466 13.85l-29.191 29.191A63 63 0 0 0 223.5 225c-35.014 0-63.5 28.486-63.5 63.5s28.486 63.5 63.5 63.5 63.5-28.486 63.5-63.5c0-7.167-1.192-14.14-3.509-20.807l29.389-29.389c8.6 15.273 13.12 32.461 13.12 50.196 0 56.519-45.981 102.5-102.5 102.5-37.197 0-71.474-19.986-89.453-52.159a7.501 7.501 0 0 0-13.094 7.318C141.58 383.071 180.874 406 223.5 406c64.79 0 117.5-52.71 117.5-117.5 0-21.735-5.927-42.758-17.164-61.152l27.463-27.463c10.982 15.776 18.827 33.213 23.355 51.949a7.5 7.5 0 0 0 7.284 5.74 7.5 7.5 0 0 0 7.296-9.264c-5.179-21.43-14.322-41.302-27.183-59.178l13.451-13.451 26.056 4.288C421.483 212.589 432 250.038 432 288.5 432 403.468 338.468 497 223.5 497S15 403.468 15 288.5c0-58.984 25.155-115.47 69.015-154.974a7.5 7.5 0 1 0-10.039-11.145C26.963 164.724 0 225.272 0 288.5c0 59.699 23.248 115.825 65.462 158.039S163.801 512 223.5 512s115.825-23.248 158.038-65.461C423.752 404.325 447 348.199 447 288.5c0-36.985-9.076-73.1-26.367-105.392l6.68 1.099q.611.1 1.218.1m60.402-78.8-17.4 17.477-37.14-6.193 17.469-17.469zm-49.074-49.336a11.96 11.96 0 0 1 8.484-3.509c3.073 0 6.146 1.169 8.485 3.509 4.679 4.679 4.679 12.292 0 16.971L235.141 294.83c-4.679 4.68-12.293 4.678-16.97 0-4.679-4.679-4.679-12.292 0-16.971zM407.41 23.207l6.081 38.118L396 78.816l-6.314-37.867zm-63.484 63.548 32.729-32.761 6.312 37.856-32.805 32.805zM272 288.5c0 26.743-21.757 48.5-48.5 48.5S175 315.243 175 288.5s21.757-48.5 48.5-48.5c3.483 0 6.899.37 10.232 1.084l-26.168 26.168c-10.527 10.527-10.527 27.656 0 38.184 5.264 5.264 12.178 7.896 19.093 7.896s13.828-2.632 19.092-7.896l25.489-25.489c.497 2.801.762 5.655.762 8.553m116.556-125.872 32.803-32.803 37.189 6.201-32.608 32.754z"/></svg>