<svg xmlns="http://www.w3.org/2000/svg" width="512" height="512" viewBox="0 0 512.01 512.01"><path fill="#2b597f" d="M320.71 394.71v53.22l-69.573 8.537-89.627-8.537 28.379-53.22z"/><path fill="#50758d" d="M504.51 62.01v298.42c0 22.09-17.91 40-40 40h-417c-22.09 0-40-17.91-40-40V63.01c0-22.64 18.36-41 41-41h416c22.09 0 40 17.91 40 40"/><path fill="#2b597f" d="M62.51 400.43h-15c-22.09 0-40-17.91-40-40V63.01c0-22.64 18.36-41 41-41h15c-22.64 0-41 18.36-41 41v297.42c0 22.09 17.909 40 40 40"/><path fill="#f5f5f5" d="M454.01 370.43h-396c-11.046 0-20-8.954-20-20v-278c0-11.046 8.954-20 20-20h396c11.046 0 20 8.954 20 20v278c0 11.046-8.955 20-20 20"/><circle cx="256.01" cy="211.43" r="98" fill="#fd646f"/><path fill="#fc4755" d="M264.01 309.1c-2.64.22-5.31.33-8 .33-54.12 0-98-43.88-98-98s43.88-98 98-98c2.69 0 5.36.11 8 .33-50.38 4.06-90 46.24-90 97.67s39.62 93.61 90 97.67"/><path fill="#f5f5f5" d="M227.521 213.709v-31.912c0-8.772 9.496-14.255 17.093-9.869l27.637 15.956 27.637 15.956c7.597 4.386 7.597 15.351 0 19.737l-27.637 15.956-27.637 15.956c-7.597 4.386-17.093-1.097-17.093-9.869z"/><path fill="#50758d" d="M399.51 490.01h-274c-11.598 0-21-9.402-21-21s9.402-21 21-21h274z"/><path fill="#2b597f" d="M149.51 490.01h-24c-11.6 0-21-9.4-21-21 0-5.8 2.35-11.05 6.15-14.85s9.05-6.15 14.85-6.15h24c-5.8 0-11.05 2.35-14.85 6.15s-6.15 9.05-6.15 14.85c0 11.6 9.399 21 21 21"/><path fill="#e6e6e6" d="M474.01 293.64v56.79c0 11.05-8.95 20-20 20H285.89c8.73-56.79 57.93-100.42 117.12-100.42 14.68 0 28.99 2.65 42.54 7.88 10.17 3.91 19.73 9.19 28.46 15.75"/><path fill="#225272" d="M292.476 431.004a117 117 0 0 0 9.507 19.224l23.398-1.951-4.672-53.566h-35.93c.657 12.732 3.318 24.933 7.697 36.293"/><path fill="#2b597f" d="M312.773 465.134a114 114 0 0 0 11.734 11.991 118.3 118.3 0 0 0 16.26 12.12c.423.262.857.508 1.284.765h57.458v-42h-98.856a118 118 0 0 0 12.12 17.124M504.51 327.32v33.11c0 22.09-17.91 40-40 40h-179.4c-.4-3.94-.6-7.91-.6-11.92 0-6.15.47-12.19 1.38-18.08h168.12c11.05 0 20-8.95 20-20v-56.79c1.95 1.45 3.85 2.98 5.72 4.56 4.29 3.64 8.33 7.6 11.97 11.74a118.3 118.3 0 0 1 12.81 17.38"/><path fill="#fad207" d="M504.51 388.51c0 56.06-45.44 101.5-101.5 101.5-19.58 0-37.86-5.54-53.36-15.14-4.95-3.07-9.61-6.54-13.94-10.39-3.6-3.18-6.97-6.61-10.06-10.28-7.35-8.63-13.27-18.5-17.4-29.26-4.36-11.31-6.74-23.59-6.74-36.43 0-56.06 45.44-101.5 101.5-101.5 12.84 0 25.12 2.38 36.42 6.74a101.1 101.1 0 0 1 29.28 17.4c3.66 3.1 7.1 6.46 10.26 10.06 3.86 4.33 7.33 8.99 10.4 13.94 9.6 15.5 15.14 33.78 15.14 53.36"/><path fill="#f8c201" fill-rule="evenodd" d="M401.01 391.65v-37.71c10.6 2.49 18.5 9.76 18.5 18.07 0 4.14 3.36 7.5 7.5 7.5 2.245 0 4.096-1.117 5.629-2.557l9.619-9.588h-8.136c-2.411-14.399-15.862-25.947-33.112-28.715v-26.81h-2.93l-9.79 9.79c-.06.05-.11.1-.16.16l-.11.11.01.01a7.45 7.45 0 0 0-2.02 5.1v11.49c-5.855.82-11.29 2.654-16.041 5.262v-2.297l-9.753 9.738v.003c-5.454 5.753-8.707 12.973-8.707 20.804 0 16.79 14.94 30.77 34.5 33.51v37.78c-11.1-2.26-19.5-9.72-19.5-18.29 0-2.22-.972-4.209-2.506-5.583l-.042-9.965-10.043 10.042.003.008a7.47 7.47 0 0 0-2.412 5.497c0 16.79 14.94 30.77 34.5 33.51v11.49c0 4.14 3.36 7.5 7.5 7.5a7.46 7.46 0 0 0 4.863-1.798l9.98-9.976h-7.344v-7.366c19.07-3.06 33.5-16.85 33.5-33.36S420.08 394.71 401.01 391.65m-15-1.348c-11.096-2.265-19.5-9.723-19.5-18.292s8.404-16.027 19.5-18.292zm15 52.783v-36.149c10.597 2.498 18.5 9.765 18.5 18.074s-7.903 15.576-18.5 18.075" clip-rule="evenodd"/><path fill="#f5f5f5" d="M411.01 381.65v-37.715c10.597 2.498 18.5 9.765 18.5 18.074 0 4.143 3.357 7.5 7.5 7.5s7.5-3.357 7.5-7.5c0-16.506-14.433-30.296-33.5-33.36v-11.64c0-4.143-3.357-7.5-7.5-7.5s-7.5 3.357-7.5 7.5v11.493c-19.56 2.735-34.5 16.714-34.5 33.507s14.94 30.772 34.5 33.507v37.785c-11.096-2.265-19.5-9.723-19.5-18.292 0-4.143-3.357-7.5-7.5-7.5s-7.5 3.357-7.5 7.5c0 16.793 14.94 30.772 34.5 33.507v11.493c0 4.143 3.357 7.5 7.5 7.5s7.5-3.357 7.5-7.5v-11.64c19.067-3.064 33.5-16.854 33.5-33.36s-14.433-30.295-33.5-33.359m-34.5-19.64c0-8.569 8.404-16.027 19.5-18.292v36.584c-11.096-2.265-19.5-9.723-19.5-18.292m34.5 71.075v-36.149c10.597 2.498 18.5 9.765 18.5 18.074s-7.903 15.576-18.5 18.075"/><path d="M238.917 264.547c6.053 2.196 58.655-32.023 64.723-34.474 5.915-3.416 9.447-9.534 9.446-16.365s-3.532-12.947-9.447-16.362l-55.274-31.913c-11.976-7.47-28.823 2.26-28.343 16.364v63.824c-.266 10.208 8.81 19.085 18.895 18.926m-3.896-82.75c.387-3.61 3.095-4.63 5.843-3.374l55.274 31.913c2.719 2.043 2.721 4.702 0 6.747l-55.274 31.912c-3.262 1.287-5.328.097-5.843-3.374z"/><path d="M178.085 151.525a7.5 7.5 0 0 0-10.384 2.163c-11.247 17.168-17.191 37.135-17.191 57.742 0 58.173 47.327 105.5 105.5 105.5s105.5-47.327 105.5-105.5-47.327-105.5-105.5-105.5c-22.19 0-43.424 6.813-61.403 19.701a7.502 7.502 0 0 0 8.74 12.192c15.416-11.051 33.626-16.893 52.663-16.893 49.902 0 90.5 40.598 90.5 90.5s-40.598 90.5-90.5 90.5-90.5-40.598-90.5-90.5c0-17.68 5.097-34.804 14.738-49.521a7.5 7.5 0 0 0-2.163-10.384"/><path d="M512.01 62.01c0-26.191-21.309-47.5-47.5-47.5h-55.5c-4.143 0-7.5 3.357-7.5 7.5s3.357 7.5 7.5 7.5h55.5c17.921 0 32.5 14.579 32.5 32.5v271.299a109.7 109.7 0 0 0-15.528-20.449c.014-.186.028-.371.028-.56V72.43c0-15.163-12.337-27.5-27.5-27.5h-396c-15.163 0-27.5 12.337-27.5 27.5v278c0 15.163 12.337 27.5 27.5 27.5h75c4.143 0 7.5-3.357 7.5-7.5s-3.357-7.5-7.5-7.5h-75c-6.893 0-12.5-5.607-12.5-12.5v-278c0-6.893 5.607-12.5 12.5-12.5h396c6.893 0 12.5 5.607 12.5 12.5v227.46c-17.894-12.87-39.826-20.46-63.5-20.46-51.323 0-94.469 35.659-105.98 83.5H168.01c-4.143 0-7.5 3.357-7.5 7.5s3.357 7.5 7.5 7.5h126.508a108 108 0 0 0-.408 15H47.51c-17.921 0-32.5-14.575-32.5-32.491V62.01c0-17.617 15.341-32.5 33.5-32.5h325.5c4.143 0 7.5-3.357 7.5-7.5s-3.357-7.5-7.5-7.5H48.51C23.075 13.942-.545 36.451.01 62.01v298.429c0 26.187 21.309 47.491 47.5 47.491h126.876l-17.376 32.58h-31.5c-15.715 0-28.5 12.785-28.5 28.5s12.785 28.5 28.5 28.5h260.94c1.964 0 3.918-.21 5.831-.608 3.53.347 7.108.528 10.728.528 60.103 0 109-48.897 109-109 0-.112-.004-.224-.004-.335 0-.028.004-.056.004-.084zM191.385 407.93h104.374a108.2 108.2 0 0 0 11.519 32.58H174.009zm-65.875 74.58c-7.444 0-13.5-6.056-13.5-13.5s6.056-13.5 13.5-13.5h35.961l.032.002.029-.002h155.622a109.8 109.8 0 0 0 30.87 27zm277.5-.08c-51.832 0-94-42.168-94-94s42.168-94 94-94 94 42.168 94 94-42.168 94-94 94"/><path d="M429.51 361.93c0 4.143 3.357 7.5 7.5 7.5s7.5-3.357 7.5-7.5c0-16.506-14.433-30.296-33.5-33.36v-11.64c0-4.143-3.357-7.5-7.5-7.5s-7.5 3.357-7.5 7.5v11.493c-19.56 2.735-34.5 16.714-34.5 33.507s14.94 30.771 34.5 33.506v37.786c-11.096-2.265-19.5-9.723-19.5-18.292 0-4.143-3.357-7.5-7.5-7.5s-7.5 3.357-7.5 7.5c0 16.793 14.94 30.771 34.5 33.506v11.494c0 4.143 3.357 7.5 7.5 7.5s7.5-3.357 7.5-7.5v-11.64c19.067-3.064 33.5-16.854 33.5-33.36s-14.433-30.296-33.5-33.36v-37.715c10.597 2.499 18.5 9.765 18.5 18.075m-53 0c0-8.569 8.404-16.027 19.5-18.292v36.584c-11.097-2.265-19.5-9.723-19.5-18.292m53 53c0 8.31-7.903 15.576-18.5 18.074v-36.148c10.597 2.498 18.5 9.764 18.5 18.074"/></svg>