<svg xmlns="http://www.w3.org/2000/svg" width="512" height="512"><path fill="#2b597f" d="m337.379 387.7 28.121 53.22L256 456.734l-99.5-15.814 28.38-53.22z"/><path fill="#50758d" d="M504.5 55v298.42c0 22.09-17.91 40-40 40h-417c-22.09 0-40-17.91-40-40V56c0-22.64 18.36-41 41-41h416c22.09 0 40 17.91 40 40"/><path fill="#2b597f" d="M62.5 393.42h-15c-22.09 0-40-17.91-40-40V56c0-22.64 18.36-41 41-41h15c-22.64 0-41 18.36-41 41v297.42c0 22.09 17.91 40 40 40"/><path fill="#f5f5f5" d="M454 363.42H58c-11.046 0-20-8.954-20-20v-278c0-11.046 8.954-20 20-20h396c11.046 0 20 8.954 20 20v278c0 11.046-8.954 20-20 20"/><path fill="#f5f5f5" d="M474 65.42v278c0 11.05-8.95 20-20 20H58c-11.05 0-20-8.95-20-20v-278c0-11.05 8.95-20 20-20h396c11.05 0 20 8.95 20 20"/><path fill="#50758d" d="M399.5 483h-274c-11.598 0-21-9.402-21-21s9.402-21 21-21h274z"/><path fill="#2b597f" d="M149.5 483h-24c-11.6 0-21-9.4-21-21 0-5.8 2.35-11.05 6.15-14.85S119.7 441 125.5 441h24c-5.8 0-11.05 2.35-14.85 6.15s-6.15 9.05-6.15 14.85c0 11.6 9.4 21 21 21"/><path fill="#2edffc" d="M399 220.516H113c-11.046 0-20-8.954-20-20v-54c0-11.046 8.954-20 20-20h286c11.046 0 20 8.954 20 20v54c0 11.046-8.954 20-20 20"/><path fill="#27bdf3" d="M128 220.52h-15c-11.05 0-20-8.96-20-20v-54c0-11.05 8.95-20 20-20h15c-11.05 0-20 8.95-20 20v54c0 11.04 8.95 20 20 20"/><g fill="#2b597f"><path d="m167.167 176.552-5.811-3.417 6.734-3.817a7.5 7.5 0 1 0-7.396-13.049l-6.828 3.87v-7.123c0-4.143-3.358-7.5-7.5-7.5s-7.5 3.357-7.5 7.5v6.895l-6.565-3.86a7.5 7.5 0 1 0-7.603 12.93l6.661 3.916-5.852 3.317a7.5 7.5 0 1 0 7.396 13.049l5.962-3.38v8.133c0 4.143 3.358 7.5 7.5 7.5s7.5-3.357 7.5-7.5v-7.886l5.699 3.351a7.496 7.496 0 0 0 10.266-2.663 7.497 7.497 0 0 0-2.663-10.266M239.167 176.552l-5.811-3.417 6.734-3.817a7.5 7.5 0 1 0-7.396-13.049l-6.828 3.87v-7.123c0-4.143-3.358-7.5-7.5-7.5s-7.5 3.357-7.5 7.5v6.895l-6.565-3.86a7.5 7.5 0 1 0-7.603 12.93l6.661 3.916-5.852 3.317a7.5 7.5 0 1 0 7.396 13.049l5.962-3.38v8.133c0 4.143 3.358 7.5 7.5 7.5s7.5-3.357 7.5-7.5v-7.886l5.699 3.351a7.496 7.496 0 0 0 10.266-2.663 7.497 7.497 0 0 0-2.663-10.266M311.167 176.552l-5.811-3.417 6.734-3.817a7.5 7.5 0 1 0-7.396-13.049l-6.828 3.87v-7.123c0-4.143-3.358-7.5-7.5-7.5s-7.5 3.357-7.5 7.5v6.895l-6.565-3.86a7.5 7.5 0 1 0-7.603 12.93l6.661 3.916-5.852 3.317a7.5 7.5 0 1 0 7.396 13.049l5.962-3.38v8.133c0 4.143 3.358 7.5 7.5 7.5s7.5-3.357 7.5-7.5v-7.886l5.699 3.351a7.496 7.496 0 0 0 10.266-2.663 7.497 7.497 0 0 0-2.663-10.266M380.5 201.017h-39c-4.142 0-7.5-3.357-7.5-7.5s3.358-7.5 7.5-7.5h39c4.142 0 7.5 3.357 7.5 7.5s-3.358 7.5-7.5 7.5"/></g><path fill="#e6e6e6" d="M466.76 326.31H458V306c0-14.64-5.93-27.88-15.52-37.48A53 53 0 0 0 421 255.463V253h-16c-29.271 0-53 23.729-53 53v20.31h-1.5c-16.569 0-30 13.431-30 30v7.11H454c11.046 0 20-8.954 20-20v-15.81c-2.26-.84-4.7-1.3-7.24-1.3M382 306c0-12.977 10.808-23.481 23.893-22.983 12.444.474 22.107 11.096 22.107 23.549v19.744h-46z"/><path fill="#fad207" d="M474 306v37.31l-15.77 10-14.23-10V306c0-12.68-10.32-23-23-23s-23 10.32-23 23v37.31l-15.68 10-14.32-10V306c0-29.27 23.73-53 53-53 14.64 0 27.88 5.93 37.48 15.52 9.59 9.6 15.52 22.84 15.52 37.48"/><path fill="#faa515" d="M382 306v37.31l7.64 5.33-7.32 4.67-14.32-10V306c0-29.27 23.73-53 53-53 2.37 0 4.71.16 7 .46-25.96 3.42-46 25.64-46 52.54M465.59 348.64l-7.36 4.67-14.23-10V306c0-10.24-6.73-18.94-16-21.9 2.21-.72 4.56-1.1 7-1.1 12.68 0 23 10.32 23 23v37.31z"/><path fill="#2b597f" d="M504.5 332.54v20.88c0 22.09-17.91 40-40 40h-144l.01-30H454c11.05 0 20-8.95 20-20v-17.11h9.76c7.65 0 14.78 2.29 20.74 6.23"/><path fill="#2b597f" d="M320.508 368.734h33.119V483h-33.119z"/><path fill="#225272" d="M320.508 393.42h33.119V441h-33.119z"/><path fill="#faf063" fill-rule="evenodd" d="M504.5 364.05v112.21c0 11.45-9.29 20.74-20.74 20.74H358.24c-11.45 0-20.74-9.29-20.74-20.74V364.05c0-11.45 9.29-20.74 20.74-20.74h125.52c11.45 0 20.74 9.29 20.74 20.74" clip-rule="evenodd"/><path fill="#fad207" d="M373.24 497h-15c-11.45 0-20.74-9.29-20.74-20.74V364.05c0-11.45 9.29-20.74 20.74-20.74h15c-11.45 0-20.74 9.29-20.74 20.74v112.21c0 11.45 9.29 20.74 20.74 20.74"/><path fill="#faa515" d="M440 410c0-10.493-8.507-19-19-19s-19 8.507-19 19c0 7.829 4.738 14.547 11.5 17.457v21.199c0 4.143 3.358 7.5 7.5 7.5s7.5-3.357 7.5-7.5v-21.199c6.762-2.91 11.5-9.628 11.5-17.457"/><path d="M464.5 7.5H149c-4.142 0-7.5 3.357-7.5 7.5s3.358 7.5 7.5 7.5h315.5c17.92 0 32.5 14.579 32.5 32.5v284.117a28.06 28.06 0 0 0-13.241-3.306H481.5V158.5c0-4.143-3.358-7.5-7.5-7.5s-7.5 3.357-7.5 7.5v107.691C455.402 253.523 439.125 245.5 421 245.5c-33.36 0-60.5 27.141-60.5 60.5v29.811h-2.259c-12.592 0-23.282 8.286-26.914 19.689H58c-6.893 0-12.5-5.607-12.5-12.5V65c0-6.893 5.607-12.5 12.5-12.5h396c6.893 0 12.5 5.607 12.5 12.5v58.5c0 4.143 3.358 7.5 7.5 7.5s7.5-3.357 7.5-7.5V65c0-15.163-12.336-27.5-27.5-27.5H58c-15.164 0-27.5 12.337-27.5 27.5v278c0 15.163 12.336 27.5 27.5 27.5h272v15H47.5C29.58 385.5 15 370.921 15 353V55c0-17.921 14.58-32.5 32.5-32.5H114c4.142 0 7.5-3.357 7.5-7.5s-3.358-7.5-7.5-7.5H47.5C21.309 7.5 0 28.809 0 55v298c0 26.191 21.309 47.5 47.5 47.5h121.833L152 433h-26.5c-15.715 0-28.5 12.785-28.5 28.5s12.785 28.5 28.5 28.5h208.081c4.835 8.642 14.074 14.5 24.66 14.5H483.76c15.572 0 28.241-12.669 28.241-28.24V55C512 28.809 490.691 7.5 464.5 7.5m-89 298.5c0-25.089 20.411-45.5 45.5-45.5s45.5 20.411 45.5 45.5v29.811h-15V306c0-16.817-13.682-30.5-30.5-30.5s-30.5 13.683-30.5 30.5v29.811h-15zm61 29.811h-31V306c0-8.547 6.953-15.5 15.5-15.5s15.5 6.953 15.5 15.5zM112 461.5c0-7.444 6.056-13.5 13.5-13.5h177c4.142 0 7.5-3.357 7.5-7.5s-3.358-7.5-7.5-7.5H169l17.333-32.5H330V475H125.5c-7.444 0-13.5-6.056-13.5-13.5m385 14.76c0 7.301-5.94 13.24-13.241 13.24H358.241c-7.301 0-13.241-5.939-13.241-13.24V364.051c0-7.301 5.94-13.24 13.241-13.24H483.76c7.301 0 13.241 5.939 13.241 13.24z"/><path d="M201 228.017h198c15.164 0 27.5-12.337 27.5-27.5v-54c0-15.163-12.336-27.5-27.5-27.5H113c-15.164 0-27.5 12.337-27.5 27.5v54c0 15.163 12.336 27.5 27.5 27.5h53c4.142 0 7.5-3.357 7.5-7.5s-3.358-7.5-7.5-7.5h-53c-6.893 0-12.5-5.607-12.5-12.5v-54c0-6.893 5.607-12.5 12.5-12.5h286c6.893 0 12.5 5.607 12.5 12.5v54c0 6.893-5.607 12.5-12.5 12.5H201c-4.142 0-7.5 3.357-7.5 7.5s3.358 7.5 7.5 7.5"/><path d="M170.917 159.096a7.5 7.5 0 0 0-10.223-2.826l-6.828 3.87v-7.123c0-4.143-3.358-7.5-7.5-7.5s-7.5 3.357-7.5 7.5v6.895l-6.565-3.86a7.5 7.5 0 1 0-7.603 12.93l6.661 3.916-5.852 3.317c-6.7 3.497-3.689 14.307 3.705 14.025 2.66.275 7.367-3.241 9.654-4.356v8.133c0 4.143 3.358 7.5 7.5 7.5s7.5-3.357 7.5-7.5v-7.886c2.322 1.186 6.759 4.656 9.493 4.387a7.5 7.5 0 0 0 3.808-13.966l-5.811-3.417 6.734-3.817a7.5 7.5 0 0 0 2.827-10.222M225.866 153.017c0-4.143-3.358-7.5-7.5-7.5s-7.5 3.357-7.5 7.5v6.895l-6.565-3.86a7.5 7.5 0 1 0-7.603 12.93l6.661 3.916-5.852 3.317c-6.7 3.497-3.689 14.307 3.705 14.025 2.66.275 7.367-3.241 9.654-4.356v8.133c0 4.143 3.358 7.5 7.5 7.5s7.5-3.357 7.5-7.5v-7.886c2.322 1.186 6.759 4.656 9.493 4.387a7.5 7.5 0 0 0 3.808-13.966l-5.811-3.417 6.734-3.817a7.5 7.5 0 1 0-7.396-13.049l-6.828 3.87zM297.866 153.017c0-4.143-3.358-7.5-7.5-7.5s-7.5 3.357-7.5 7.5v6.895l-6.565-3.86a7.5 7.5 0 1 0-7.603 12.93l6.661 3.916-5.852 3.317a7.5 7.5 0 0 0 3.705 14.026c2.66.275 7.367-3.241 9.654-4.356v8.133c0 4.143 3.358 7.5 7.5 7.5s7.5-3.357 7.5-7.5v-7.886c2.322 1.186 6.759 4.656 9.493 4.387a7.5 7.5 0 0 0 3.808-13.966l-5.811-3.417 6.734-3.817a7.5 7.5 0 1 0-7.396-13.049l-6.828 3.87zM380.5 201.017c4.142 0 7.5-3.357 7.5-7.5s-3.358-7.5-7.5-7.5h-39c-4.142 0-7.5 3.357-7.5 7.5s3.358 7.5 7.5 7.5zM421 383.5c-14.612 0-26.5 11.888-26.5 26.5 0 12.008 8.03 22.169 19 25.413v13.243c0 4.143 3.358 7.5 7.5 7.5s7.5-3.357 7.5-7.5v-13.243c10.97-3.244 19-13.405 19-25.413 0-14.612-11.888-26.5-26.5-26.5m0 38c-6.341 0-11.5-5.159-11.5-11.5s5.159-11.5 11.5-11.5 11.5 5.159 11.5 11.5-5.159 11.5-11.5 11.5"/></svg>