<svg xmlns="http://www.w3.org/2000/svg" width="512" height="512"><path fill="#f5f5f5" d="M504.5 160.14v268c0 22.09-17.91 40-40 40h-417c-22.09 0-40-17.91-40-40v-268z"/><path fill="#e6e6e6" d="M504.5 180.141v-20l-248.5-10-248.491 10H7.5v268c0 22.09 17.91 40 40 40h20c-22.09 0-40-17.91-40-40v-248z"/><path fill="#50758d" d="M504.5 110.14v50H7.5v-50c0-22.09 17.91-40 40-40h417c22.09 0 40 17.91 40 40"/><g fill="#2b597f"><path d="M75.75 114.89c0-12.406-10.093-22.5-22.5-22.5-6.385 0-12.152 2.677-16.251 6.963-4.767 4.757-2.529 2.519-7.286 7.286-4.286 4.099-6.963 9.866-6.963 16.251 0 12.406 10.093 22.5 22.5 22.5 6.385 0 12.152-2.677 16.251-6.963 4.767-4.757 2.529-2.519 7.286-7.286 4.286-4.099 6.963-9.866 6.963-16.251M140 114.89c0-12.406-10.093-22.5-22.5-22.5-6.385 0-12.152 2.677-16.251 6.963-4.767 4.757-2.529 2.519-7.286 7.286-4.286 4.1-6.963 9.867-6.963 16.251 0 12.406 10.093 22.5 22.5 22.5 6.385 0 12.152-2.677 16.251-6.963 4.767-4.757 2.529-2.519 7.286-7.286 4.286-4.099 6.963-9.866 6.963-16.251M204 114.89c0-12.406-10.093-22.5-22.5-22.5-6.385 0-12.152 2.677-16.251 6.963-4.767 4.757-2.529 2.519-7.286 7.286-4.286 4.099-6.963 9.866-6.963 16.251 0 12.406 10.093 22.5 22.5 22.5 6.385 0 12.152-2.677 16.251-6.963 4.767-4.757 2.529-2.519 7.286-7.286 4.286-4.099 6.963-9.866 6.963-16.251"/></g><path fill="#ffc682" d="M117.5 92.64c-12.41 0-22.5 10.09-22.5 22.5s10.09 22.5 22.5 22.5c5.18 0 9.95-1.76 13.76-4.72l.01-.01c5.31-4.11 8.73-10.54 8.73-17.77v-.12c-.07-12.36-10.13-22.38-22.5-22.38"/><path fill="#93ddb7" d="M181.5 92.64c-12.41 0-22.5 10.09-22.5 22.5s10.09 22.5 22.5 22.5c5.18 0 9.95-1.76 13.76-4.72l.01-.01c5.31-4.11 8.73-10.54 8.73-17.77v-.12c-.07-12.36-10.13-22.38-22.5-22.38"/><path fill="#fd646f" d="M53.25 92.39c-.78 0-1.54.04-2.3.12-.22.02-.43.04-.64.08-.2.02-.39.05-.58.08-.38.06-.76.13-1.13.21-.44.09-.88.19-1.32.32-.29.07-.57.16-.86.25-.44.14-.88.3-1.31.47-.25.09-.51.2-.76.31-.09.03-.17.07-.25.11-.29.12-.57.26-.85.4-.3.15-.6.31-.89.47-.09.04-.18.1-.27.15-.27.16-.53.31-.79.48-.3.19-.6.39-.89.59a.5.5 0 0 0-.12.09c-.26.18-.51.37-.76.56-.24.17-.48.37-.71.57-.13.1-.26.21-.38.32-.22.2-.44.39-.65.6-.24.23-.48.46-.71.71a.3.3 0 0 0-.08.07 22.37 22.37 0 0 0-6.25 15.54c0 12.41 10.09 22.5 22.5 22.5 6.03 0 11.51-2.38 15.54-6.25.03-.03.06-.05.08-.08.25-.23.48-.46.7-.71.21-.21.4-.43.6-.65.11-.12.22-.25.32-.38.2-.23.4-.47.57-.71.19-.25.38-.5.56-.76a.5.5 0 0 0 .09-.12c.2-.29.4-.59.59-.89.17-.26.32-.52.48-.79.05-.09.11-.18.15-.27.16-.29.32-.59.47-.89.14-.28.28-.56.4-.85.04-.08.08-.16.11-.25.11-.25.22-.51.31-.76.17-.43.33-.87.47-1.31.09-.29.18-.57.25-.86.13-.44.23-.88.32-1.32.08-.37.15-.75.21-1.13.03-.19.06-.38.08-.58.04-.21.06-.42.08-.64.08-.76.12-1.52.12-2.3 0-12.41-10.09-22.5-22.5-22.5"/><path fill="#e6e6e6" d="M391.205 238.584c.202-.109.395-.232.587-.358L411 226.704l-15.67-7.017V160.14h-141.5v71.62c0 6.07 6.6 9.84 11.83 6.76l20.72-12.414 32.269-18.561c3.48-2.46 8.601-2.226 12.071.265l52.75 30.63c2.531 1.5 5.383 1.381 7.66.181l.001.008z"/><path fill="#2b597f" d="M395.33 95.86v64.28h-141.5V95.86c0-9.79 3.52-18.77 9.38-25.72h122.74a39.77 39.77 0 0 1 9.38 25.72"/><path fill="#fd646f" d="m403.471 226.436-52.755-30.631a10 10 0 0 0-11.6-.034l-53.457 30.751c-5.233 3.078-11.83-.695-11.83-6.766V83.86c0-22.091 17.909-40 40-40h61.5c22.091 0 40 17.909 40 40v135.828c.001 6.086-6.626 9.857-11.858 6.748"/><path fill="#fc4755" d="M293.83 72.41V208.3c0 5.75 5.92 9.44 10.99 7.2l-19.16 11.02c-5.23 3.08-11.83-.69-11.83-6.76V83.86c0-19 13.25-34.9 31-38.99-6.81 7.16-11 16.86-11 27.54"/><path fill="#fd646f" d="m341.13 194.67-35.47 20.4c-.28.16-.56.31-.84.43l34.3-19.73c.64-.45 1.31-.82 2.01-1.1"/><path fill="#fff" d="M416.5 314.5c0 8.29-3.36 15.79-8.79 21.21-5.43 5.43-12.93 8.79-21.21 8.79h-259c-16.57 0-30-13.43-30-30 0-8.29 3.36-15.79 8.79-21.21 5.43-5.43 12.93-8.79 21.21-8.79h259c16.57 0 30 13.43 30 30"/><path fill="#f5f5f5" d="M338.766 284.5h15v60h-15z"/><path d="M464.5 62.641h-46.692C410 47.075 393.897 36.36 375.329 36.36h-61.5c-18.568 0-34.671 10.715-42.479 26.281H109c-4.142 0-7.5 3.357-7.5 7.5s3.358 7.5 7.5 7.5h157.75a48 48 0 0 0-.42 6.219v68.64H15V110c0-17.843 14.58-32.359 32.5-32.359H74c4.142 0 7.5-3.357 7.5-7.5s-3.358-7.5-7.5-7.5H47.5C21.309 62.641 0 83.886 0 110v319c0 26.153 20.864 46.641 47.5 46.641h417c26.191 0 47.5-21.309 47.5-47.5v-17.5c0-4.143-3.358-7.5-7.5-7.5s-7.5 3.357-7.5 7.5v17.5c0 17.921-14.58 32.5-32.5 32.5h-417C29.276 460.641 15 446.742 15 429V167.5h251.33v52.257c-.403 11.474 13.369 19.398 23.07 13.267l53.457-30.751q.305-.175.593-.379a2.5 2.5 0 0 1 2.899.009q.293.21.603.39l9.826 5.705a7.5 7.5 0 0 0 10.251-2.721 7.5 7.5 0 0 0-2.72-10.252l-9.558-5.549a17.51 17.51 0 0 0-19.636-.054l-53.257 30.636c-.09.054-.176.101-.352.003-.176-.102-.176-.199-.176-.304V83.859c0-17.921 14.58-32.5 32.5-32.5h61.5c17.92 0 32.5 14.579 32.5 32.5v135.828c.051.26-.381.483-.593.263l-12.644-7.342a7.5 7.5 0 0 0-7.532 12.973l12.58 7.304c9.72 6.239 23.587-1.658 23.189-13.197v-52.047H497v208c0 4.143 3.358 7.5 7.5 7.5s7.5-3.357 7.5-7.5V110c0-26.114-21.309-47.359-47.5-47.359m-41.67 90V83.859c0-2.109-.153-4.182-.42-6.219h42.09c17.92 0 32.5 14.517 32.5 32.359v42.641h-74.17z"/><path d="M53.25 92.391c-12.407 0-22.5 10.094-22.5 22.5s10.093 22.5 22.5 22.5 22.5-10.094 22.5-22.5-10.093-22.5-22.5-22.5m0 30c-4.136 0-7.5-3.364-7.5-7.5s3.364-7.5 7.5-7.5 7.5 3.364 7.5 7.5-3.364 7.5-7.5 7.5M140 115.141c0-12.406-10.093-22.5-22.5-22.5S95 102.734 95 115.141s10.093 22.5 22.5 22.5 22.5-10.094 22.5-22.5m-30 0c0-4.136 3.364-7.5 7.5-7.5s7.5 3.364 7.5 7.5-3.364 7.5-7.5 7.5-7.5-3.365-7.5-7.5M204 115.141c0-12.406-10.093-22.5-22.5-22.5s-22.5 10.094-22.5 22.5 10.093 22.5 22.5 22.5 22.5-10.094 22.5-22.5m-30 0c0-4.136 3.364-7.5 7.5-7.5s7.5 3.364 7.5 7.5-3.364 7.5-7.5 7.5-7.5-3.365-7.5-7.5M173.83 336.587c-4.142 0-7.5 3.357-7.5 7.5s3.358 7.5 7.5 7.5h211.5c20.678 0 37.5-16.822 37.5-37.5s-16.822-37.5-37.5-37.5h-259c-20.678 0-37.5 16.822-37.5 37.5s16.822 37.5 37.5 37.5h12.5c4.142 0 7.5-3.357 7.5-7.5s-3.358-7.5-7.5-7.5h-12.5c-12.407 0-22.5-10.094-22.5-22.5s10.093-22.5 22.5-22.5h212.437v45zm179.936-45h31.563c12.407 0 22.5 10.094 22.5 22.5s-10.093 22.5-22.5 22.5h-31.563z"/></svg>