<svg xmlns="http://www.w3.org/2000/svg" width="512" height="512" viewBox="0 0 511.177 511.177"><path fill="#50758d" d="m475.439 53.915-18.2-18.2c-37.72-37.72-98.86-37.72-136.57 0l-63.73 63.73c-29.86 29.86-36.08 74.41-18.64 110.39a95.3 95.3 0 0 0 9.58 15.73l37.36 37.45a96.6 96.6 0 0 0 17.12 10.35c35.79 16.81 79.78 10.43 109.35-19.15l63.73-63.73c37.72-37.71 37.72-98.85 0-136.57m-47.03 107.74-45.53 45.52a55.56 55.56 0 0 1-31.75 15.81c-8 1.11-16.19.49-23.97-1.88l-37.25-37.57a55.8 55.8 0 0 1-1.91-22.12 55.53 55.53 0 0 1 15.98-33.14l45.52-45.53c21.79-21.78 57.12-21.78 78.91 0 10.89 10.9 16.34 25.18 16.34 39.46s-5.45 28.56-16.34 39.45M273.389 302.345a95.5 95.5 0 0 0-10.35-17.13l-37.45-37.36a95.3 95.3 0 0 0-15.73-9.58c-35.98-17.44-80.53-11.22-110.39 18.64l-63.73 63.73c-37.72 37.71-37.72 98.85 0 136.57l18.2 18.2c37.72 37.72 98.86 37.72 136.57 0l63.73-63.73c29.57-29.57 35.96-73.55 19.15-109.34m-66.19 80.51-45.52 45.53c-10.89 10.89-25.17 16.34-39.45 16.34s-28.56-5.45-39.46-16.34c-21.78-21.79-21.78-57.12 0-78.91l45.53-45.52c9.44-9.44 21.42-14.78 33.73-16.04 7.21-.75 14.53-.09 21.53 1.97l37.57 37.25c2.3 7.57 2.96 15.53 1.96 23.32a55.58 55.58 0 0 1-15.89 32.4"/><g fill="#2b597f"><path d="M322.359 253.365a96.6 96.6 0 0 1-17.12-10.35l-37.36-37.45a95.3 95.3 0 0 1-9.58-15.73c-17.44-35.98-11.22-80.53 18.64-110.39l-20 20c-29.86 29.86-36.08 74.41-18.64 110.39a95.3 95.3 0 0 0 9.58 15.73l37.36 37.45a96.6 96.6 0 0 0 17.12 10.35c35.79 16.81 79.78 10.43 109.35-19.15l20-20c-29.57 29.58-73.56 35.96-109.35 19.15M73.939 455.415l-18.2-18.2c-37.72-37.72-37.72-98.86 0-136.57l-20 20c-37.72 37.71-37.72 98.85 0 136.57l18.2 18.2c37.72 37.72 98.86 37.72 136.57 0l20-20c-37.71 37.72-98.85 37.72-136.57 0m167.19-148.28-37.57-37.25c-7-2.06-14.32-2.72-21.53-1.97-12.31 1.26-24.29 6.6-33.73 16.04l-20 20c9.44-9.44 21.42-14.78 33.73-16.04 7.21-.75 14.53-.09 21.53 1.97l37.57 37.25c2.3 7.57 2.96 15.53 1.96 23.32a55.58 55.58 0 0 1-15.89 32.4l20-20a55.58 55.58 0 0 0 15.89-32.4c1-7.79.34-15.75-1.96-23.32"/><path d="m273.389 302.345-40.92 40.92a45 45 0 0 1-9.38 7.19c1-7.79.34-15.75-1.96-23.32l-37.57-37.25c-7-2.06-14.32-2.72-21.53-1.97 1.84-3.04 4.06-5.87 6.64-8.45l41.19-41.19a95.3 95.3 0 0 1 15.73 9.58l37.45 37.36c4.1 5.41 7.55 11.16 10.35 17.13M351.129 222.985a44.6 44.6 0 0 1-6.32 7.93l-42.45 42.45a96.6 96.6 0 0 1-17.12-10.35l-37.36-37.45a95.3 95.3 0 0 1-9.58-15.73l42.72-42.71c2.15-2.16 4.49-4.07 6.98-5.71-.85 7.39-.21 14.93 1.91 22.12l37.25 37.57a55.9 55.9 0 0 0 23.97 1.88"/></g><path fill="#50758d" d="m183.466 329.123-.652-.652c-9.626-9.626-9.626-25.234 0-34.86L295.16 181.265c9.626-9.626 25.234-9.626 34.86 0l.652.652c9.626 9.626 9.626 25.234 0 34.86L218.326 329.123c-9.626 9.626-25.233 9.626-34.86 0"/><path d="m480.746 48.231-18.208-18.208C446.058 13.543 425.155 3.29 402.087.37c-4.102-.531-7.862 2.389-8.382 6.499a7.5 7.5 0 0 0 6.499 8.382c19.735 2.498 37.622 11.273 51.728 25.379l18.208 18.208c34.727 34.727 34.727 91.231 0 125.958l-63.73 63.73c-17.207 17.208-40.114 26.006-63.112 26.005-16.234-.002-32.509-4.399-46.849-13.309l32.317-32.317a63.5 63.5 0 0 0 14.582 1.698c10.075 0 20.133-2.367 29.117-7.007a7.5 7.5 0 0 0-6.882-13.328c-7.616 3.932-16.245 5.724-24.784 5.275 2.993-4.954 4.593-10.644 4.593-16.581 0-8.588-3.344-16.661-9.416-22.734l-.651-.651c-10.855-10.854-27.598-12.301-40.032-4.361a48.3 48.3 0 0 1 13.99-38.026l45.521-45.521c9.121-9.122 21.249-14.146 34.148-14.146s25.027 5.023 34.149 14.146c9.121 9.121 14.145 21.248 14.145 34.148 0 12.899-5.023 25.027-14.146 34.148l-32.238 32.238a7.5 7.5 0 0 0-.001 10.606 7.5 7.5 0 0 0 10.606.001l32.24-32.238c11.954-11.955 18.538-27.85 18.538-44.756 0-16.907-6.584-32.802-18.538-44.756-24.68-24.678-64.832-24.678-89.512 0l-45.521 45.521a63.3 63.3 0 0 0-16.509 60.684l-32.006 32.006c-22.203-34.742-17.497-81.333 12.083-110.913l63.73-63.731c11.699-11.7 26.349-19.89 42.363-23.682a7.5 7.5 0 0 0 5.569-9.026 7.497 7.497 0 0 0-9.026-5.569c-18.724 4.434-35.845 14.002-49.514 27.671l-63.73 63.73a104 104 0 0 0-30.245 66.579c-1.57 23.403 4.783 46.587 17.935 65.777l-12.808 12.808c-19.191-13.152-42.38-19.51-65.777-17.935a104 104 0 0 0-66.579 30.244l-63.73 63.73c-40.574 40.576-40.574 106.597.001 147.173 5.842 5.657 20.373 20.973 26.597 25.743 3.203 2.587 7.935 2.104 10.545-1.137a7.5 7.5 0 0 0-1.136-10.545c-5.33-4.05-20.356-19.803-25.399-24.669-34.727-34.727-34.727-91.231 0-125.958l63.73-63.73c29.58-29.579 76.172-34.285 110.914-12.082l-32.005 32.006a63.3 63.3 0 0 0-60.686 16.508L106.457 314.8a7.5 7.5 0 0 0 10.607 10.607l16.533-16.534c10.27-10.269 24.458-15.237 38.607-13.932-6.855 12.243-5.092 28.05 5.31 38.453 9.564 10.402 26.075 13.095 38.419 6.345a48.22 48.22 0 0 1-14.038 37.43l-45.521 45.522c-18.831 18.831-49.47 18.828-68.299-.001-9.121-9.121-14.145-21.248-14.145-34.148-.234-15.081 7.26-28.575 18.385-38.387a7.5 7.5 0 0 0-10.607-10.607c-14.062 12.564-22.98 29.939-22.777 48.995 0 16.906 6.584 32.801 18.539 44.756 12.339 12.338 28.547 18.508 44.755 18.508s32.416-6.17 44.756-18.508l45.521-45.522a63.21 63.21 0 0 0 16.818-59.427l32.317-32.317c21.533 34.65 16.652 80.613-12.704 109.968l-63.73 63.729c-23.715 23.716-58.305 32.077-90.266 21.826a7.5 7.5 0 1 0-4.582 14.284 104.7 104.7 0 0 0 32.006 5.029c27.138 0 53.564-10.647 73.449-30.531l63.73-63.729a103.97 103.97 0 0 0 30.26-66.804c1.492-22.958-4.65-45.665-17.328-64.607l13.132-13.132a103.97 103.97 0 0 0 57.827 17.548 103.978 103.978 0 0 0 73.584-30.48l63.73-63.73c40.576-40.577 40.576-106.597.001-147.173m-279.85 280.228c-4.902.024-9.465-2.088-12.778-5.675-6.687-6.688-6.687-17.567 0-24.254l112.345-112.346c6.688-6.687 17.567-6.687 24.254 0 7.204 6.29 7.584 18.27.651 24.904L213.022 323.436a17.04 17.04 0 0 1-12.126 5.023"/></svg>