<svg xmlns="http://www.w3.org/2000/svg" width="512" height="512"><path fill="#f5f5f5" d="M504.5 147v268c0 22.09-17.91 40-40 40h-417c-22.09 0-40-17.91-40-40V147z"/><g fill="#50758d"><path d="M455.309 221.904h-143c-4.143 0-7.5-3.357-7.5-7.5s3.357-7.5 7.5-7.5h143c4.143 0 7.5 3.357 7.5 7.5s-3.358 7.5-7.5 7.5M455.309 261.904h-143c-4.143 0-7.5-3.357-7.5-7.5s3.357-7.5 7.5-7.5h143c4.143 0 7.5 3.357 7.5 7.5s-3.358 7.5-7.5 7.5M455.309 301.904h-143c-4.143 0-7.5-3.357-7.5-7.5s3.357-7.5 7.5-7.5h143c4.143 0 7.5 3.357 7.5 7.5s-3.358 7.5-7.5 7.5"/></g><path fill="#93ddb7" d="M334 410.904H178c-15.464 0-28-12.536-28-28s12.536-28 28-28h156c15.464 0 28 12.536 28 28s-12.536 28-28 28"/><path fill="#2edffc" d="M226.31 227.9v53c0 16.57-13.43 30-30 30h-110c-3.44 0-6.74-.58-9.81-1.65-11.75-4.05-20.19-15.22-20.19-28.35v-53c0-16.56 13.43-30 30-30h110c16.57 0 30 13.44 30 30"/><path fill="#50758d" d="M182.36 310.9H86.31c-3.44 0-6.74-.58-9.81-1.65l51.81-84.35z"/><path fill="#50758d" d="M222.69 295.19c-4.35 9.28-11.87 11.97-11.87 11.97s-3.15 1.62-5.67 2.42c-.28.09-.55.16-.8.23-3.83.98-6.37 1.09-6.37 1.09h-17.85l-22.09-38.69 13.84-15.57 18.43-20.74 36 43s.89 6.7-3.62 16.29"/><path fill="#e6e6e6" d="M504.5 167v-20L256 137 7.5 147v268c0 22.09 17.91 40 40 40h20c-22.09 0-40-17.91-40-40V167z"/><path fill="#2b597f" d="M205.15 309.58c-.28.09-.55.16-.8.23-3.83.98-6.37 1.09-6.37 1.09h-17.85l-22.09-38.69 13.84-15.57z"/><path fill="#50758d" d="M504.5 97v50H7.5V97c0-22.09 17.91-40 40-40h417c22.09 0 40 17.91 40 40"/><g fill="#2b597f"><path d="M482 102c0-12.406-10.093-22.5-22.5-22.5h-213c-6.385 0-12.152 2.677-16.251 6.963-4.767 4.757-2.529 2.519-7.286 7.286C218.677 97.848 216 103.615 216 110c0 12.406 10.093 22.5 22.5 22.5h213c6.385 0 12.152-2.677 16.251-6.963 4.767-4.757 2.529-2.519 7.286-7.286C479.323 114.152 482 108.385 482 102M75.75 101.75c0-12.406-10.093-22.5-22.5-22.5-6.385 0-12.152 2.677-16.251 6.963-4.767 4.757-2.529 2.519-7.286 7.286-4.286 4.099-6.963 9.866-6.963 16.251 0 12.406 10.093 22.5 22.5 22.5 6.385 0 12.152-2.677 16.251-6.963 4.767-4.757 2.529-2.519 7.286-7.286 4.286-4.099 6.963-9.866 6.963-16.251M140 101.75c0-12.406-10.093-22.5-22.5-22.5-6.385 0-12.152 2.677-16.251 6.963-4.767 4.757-2.529 2.519-7.286 7.286C89.677 97.598 87 103.365 87 109.75c0 12.406 10.093 22.5 22.5 22.5 6.385 0 12.152-2.677 16.251-6.963 4.767-4.757 2.529-2.519 7.286-7.286 4.286-4.099 6.963-9.866 6.963-16.251M204 101.75c0-12.406-10.093-22.5-22.5-22.5-6.385 0-12.152 2.677-16.251 6.963-4.767 4.757-2.529 2.519-7.286 7.286-4.286 4.099-6.963 9.866-6.963 16.251 0 12.406 10.093 22.5 22.5 22.5 6.385 0 12.152-2.677 16.251-6.963 4.767-4.757 2.529-2.519 7.286-7.286 4.286-4.099 6.963-9.866 6.963-16.251"/></g><path fill="#fd646f" d="M53.25 124.25c-12.407 0-22.5-10.094-22.5-22.5s10.093-22.5 22.5-22.5 22.5 10.094 22.5 22.5-10.093 22.5-22.5 22.5"/><path fill="#ffc682" d="M117.5 124.5c-12.407 0-22.5-10.094-22.5-22.5s10.093-22.5 22.5-22.5S140 89.594 140 102s-10.093 22.5-22.5 22.5"/><path fill="#93ddb7" d="M181.5 124.5c-12.407 0-22.5-10.094-22.5-22.5s10.093-22.5 22.5-22.5S204 89.594 204 102s-10.093 22.5-22.5 22.5"/><path fill="#f5f5f5" d="M459.5 124.5h-213c-12.407 0-22.5-10.094-22.5-22.5s10.093-22.5 22.5-22.5h213c12.407 0 22.5 10.094 22.5 22.5s-10.093 22.5-22.5 22.5"/><path d="M425.361 447.5H47.5C29.579 447.5 15 432.921 15 415V154.5h331c4.143 0 7.5-3.357 7.5-7.5s-3.357-7.5-7.5-7.5H15V97c0-17.921 14.579-32.5 32.5-32.5h33.309c4.143 0 7.5-3.357 7.5-7.5s-3.357-7.5-7.5-7.5H47.5C21.309 49.5 0 70.809 0 97v318c0 26.191 21.309 47.5 47.5 47.5h377.861c4.143 0 7.5-3.357 7.5-7.5s-3.357-7.5-7.5-7.5"/><path d="M464.5 49.5H115.809c-4.143 0-7.5 3.357-7.5 7.5s3.357 7.5 7.5 7.5H464.5c17.921 0 32.5 14.579 32.5 32.5v42.5H381c-4.143 0-7.5 3.357-7.5 7.5s3.357 7.5 7.5 7.5h116V415c0 17.921-14.579 32.5-32.5 32.5h-4.691c-4.143 0-7.5 3.357-7.5 7.5s3.357 7.5 7.5 7.5h4.691c26.191 0 47.5-21.309 47.5-47.5V97c0-26.191-21.309-47.5-47.5-47.5M30.75 101.75c0 12.406 10.094 22.5 22.5 22.5s22.5-10.094 22.5-22.5-10.094-22.5-22.5-22.5-22.5 10.094-22.5 22.5m30 0c0 4.136-3.364 7.5-7.5 7.5s-7.5-3.364-7.5-7.5 3.364-7.5 7.5-7.5 7.5 3.364 7.5 7.5"/><path d="M117.5 124.5c12.406 0 22.5-10.094 22.5-22.5s-10.094-22.5-22.5-22.5S95 89.594 95 102s10.094 22.5 22.5 22.5m0-30c4.136 0 7.5 3.364 7.5 7.5s-3.364 7.5-7.5 7.5-7.5-3.364-7.5-7.5 3.364-7.5 7.5-7.5M204 102c0-12.406-10.094-22.5-22.5-22.5S159 89.594 159 102s10.094 22.5 22.5 22.5S204 114.406 204 102m-30 0c0-4.136 3.364-7.5 7.5-7.5s7.5 3.364 7.5 7.5-3.364 7.5-7.5 7.5-7.5-3.364-7.5-7.5M459.5 124.5c12.406 0 22.5-10.094 22.5-22.5s-10.094-22.5-22.5-22.5h-213c-12.406 0-22.5 10.094-22.5 22.5s10.094 22.5 22.5 22.5zM239 102c0-4.136 3.364-7.5 7.5-7.5h213c4.136 0 7.5 3.364 7.5 7.5s-3.364 7.5-7.5 7.5h-213c-4.136 0-7.5-3.364-7.5-7.5M455.309 206.904h-143c-4.143 0-7.5 3.357-7.5 7.5s3.357 7.5 7.5 7.5h143c4.143 0 7.5-3.357 7.5-7.5s-3.358-7.5-7.5-7.5M455.309 246.904h-143c-4.143 0-7.5 3.357-7.5 7.5s3.357 7.5 7.5 7.5h143c4.143 0 7.5-3.357 7.5-7.5s-3.358-7.5-7.5-7.5M462.809 294.404c0-4.143-3.357-7.5-7.5-7.5h-143c-4.143 0-7.5 3.357-7.5 7.5s3.357 7.5 7.5 7.5h143a7.5 7.5 0 0 0 7.5-7.5M178 418.404h156c19.575 0 35.5-15.925 35.5-35.5s-15.925-35.5-35.5-35.5H178c-19.575 0-35.5 15.925-35.5 35.5s15.925 35.5 35.5 35.5m0-56h156c11.304 0 20.5 9.196 20.5 20.5s-9.196 20.5-20.5 20.5H178c-11.304 0-20.5-9.196-20.5-20.5s9.196-20.5 20.5-20.5M196.309 190.404h-110c-20.678 0-37.5 16.822-37.5 37.5v53c0 20.678 16.822 37.5 37.5 37.5h110c20.678 0 37.5-16.822 37.5-37.5v-52.998999999999995c0-20.678-16.823-37.501-37.5-37.501M86.186 303.401l13.231-20.337a7.5 7.5 0 0 0-12.574-8.18l-15.074 23.17c-4.865-4.13-7.96-10.285-7.96-17.151v-53c0-12.406 10.094-22.5 22.5-22.5h110c12.406 0 22.5 10.094 22.5 22.5v30.358L196.06 231.09a7.5 7.5 0 0 0-5.64-2.685c-2.161-.073-4.269.887-5.717 2.517l-25.478 28.662-24.587-38.701a7.5 7.5 0 0 0-6.289-3.479h-.041a7.5 7.5 0 0 0-6.286 3.41l-16.06 24.686a7.5 7.5 0 0 0 2.196 10.376 7.5 7.5 0 0 0 10.376-2.196l9.699-14.907 41.061 64.632H86.309q-.061-.003-.123-.004m110.123.003h-9.245l-19.474-30.653 22.548-25.366 28.652 34.224c-.373 12.08-10.311 21.795-22.481 21.795"/></svg>