<svg xmlns="http://www.w3.org/2000/svg" width="512" height="512"><path fill="#f5f5f5" d="M504.5 147v268c0 22.09-17.91 40-40 40h-417c-22.09 0-40-17.91-40-40V147z"/><path fill="#e6e6e6" d="M504.5 167v-20L256 137 7.5 147v268c0 22.09 17.91 40 40 40h20c-22.09 0-40-17.91-40-40V167z"/><path fill="#50758d" d="M504.5 97v50H7.5V97c0-22.09 17.91-40 40-40h417c22.09 0 40 17.91 40 40"/><g fill="#2b597f"><path d="M482 102c0-12.406-10.093-22.5-22.5-22.5h-213c-6.385 0-12.152 2.677-16.251 6.963-4.767 4.757-2.529 2.519-7.286 7.286C218.677 97.848 216 103.615 216 110c0 12.406 10.093 22.5 22.5 22.5h213c6.385 0 12.152-2.677 16.251-6.963 4.767-4.757 2.529-2.519 7.286-7.286C479.323 114.152 482 108.385 482 102M75.75 101.75c0-12.406-10.093-22.5-22.5-22.5-6.385 0-12.152 2.677-16.251 6.963-4.767 4.757-2.529 2.519-7.286 7.286-4.286 4.099-6.963 9.866-6.963 16.251 0 12.406 10.093 22.5 22.5 22.5 6.385 0 12.152-2.677 16.251-6.963 4.767-4.757 2.529-2.519 7.286-7.286 4.286-4.099 6.963-9.866 6.963-16.251M140 101.75c0-12.406-10.093-22.5-22.5-22.5-6.385 0-12.152 2.677-16.251 6.963-4.767 4.757-2.529 2.519-7.286 7.286C89.677 97.598 87 103.365 87 109.75c0 12.406 10.093 22.5 22.5 22.5 6.385 0 12.152-2.677 16.251-6.963 4.767-4.757 2.529-2.519 7.286-7.286 4.286-4.099 6.963-9.866 6.963-16.251M204 101.75c0-12.406-10.093-22.5-22.5-22.5-6.385 0-12.152 2.677-16.251 6.963-4.767 4.757-2.529 2.519-7.286 7.286-4.286 4.099-6.963 9.866-6.963 16.251 0 12.406 10.093 22.5 22.5 22.5 6.385 0 12.152-2.677 16.251-6.963 4.767-4.757 2.529-2.519 7.286-7.286 4.286-4.099 6.963-9.866 6.963-16.251"/></g><path fill="#fd646f" d="M53.25 124.25c-12.407 0-22.5-10.094-22.5-22.5s10.093-22.5 22.5-22.5 22.5 10.094 22.5 22.5-10.093 22.5-22.5 22.5"/><path fill="#ffc682" d="M117.5 124.5c-12.407 0-22.5-10.094-22.5-22.5s10.093-22.5 22.5-22.5S140 89.594 140 102s-10.093 22.5-22.5 22.5"/><path fill="#93ddb7" d="M181.5 124.5c-12.407 0-22.5-10.094-22.5-22.5s10.093-22.5 22.5-22.5S204 89.594 204 102s-10.093 22.5-22.5 22.5"/><path fill="#f5f5f5" d="M459.5 124.5h-213c-12.407 0-22.5-10.094-22.5-22.5s10.093-22.5 22.5-22.5h213c12.407 0 22.5 10.094 22.5 22.5s-10.093 22.5-22.5 22.5"/><g fill="#50758d"><path d="M224.197 389.404a15.65 15.65 0 0 1-6.278-1.317c-7.948-3.472-11.577-12.729-8.105-20.678l63.589-145.584c3.472-7.947 12.728-11.574 20.678-8.105 7.948 3.472 11.577 12.729 8.105 20.678l-63.589 145.584c-2.578 5.902-8.346 9.422-14.4 9.422M161.383 383.745a15.66 15.66 0 0 1-11.105-4.599l-58.892-58.892c-6.132-6.133-6.132-16.077 0-22.21l58.107-58.107c6.133-6.133 16.077-6.133 22.21 0s6.132 16.077 0 22.21l-47.002 47.002 47.788 47.787c6.132 6.133 6.132 16.077 0 22.21a15.66 15.66 0 0 1-11.106 4.599M350.617 383.745c4.019 0 8.039-1.533 11.105-4.599l58.892-58.892c6.132-6.133 6.132-16.077 0-22.21l-58.107-58.107c-6.133-6.133-16.077-6.133-22.21 0s-6.132 16.077 0 22.21l47.002 47.002-47.788 47.787c-6.132 6.133-6.132 16.077 0 22.21a15.66 15.66 0 0 0 11.106 4.599"/></g><path d="M7.5 369.904c4.143 0 7.5-3.357 7.5-7.5V154.5h331c4.143 0 7.5-3.357 7.5-7.5s-3.357-7.5-7.5-7.5H15V97c0-17.921 14.579-32.5 32.5-32.5h13.309c4.143 0 7.5-3.357 7.5-7.5s-3.357-7.5-7.5-7.5H47.5C21.309 49.5 0 70.809 0 97v265.404c0 4.143 3.357 7.5 7.5 7.5"/><path d="M464.5 49.5H95.489c-4.143 0-7.5 3.357-7.5 7.5s3.357 7.5 7.5 7.5H464.5c17.921 0 32.5 14.579 32.5 32.5v42.5H381c-4.143 0-7.5 3.357-7.5 7.5s3.357 7.5 7.5 7.5h116V415c0 17.921-14.579 32.5-32.5 32.5h-417C29.579 447.5 15 432.921 15 415v-16.937c0-4.143-3.357-7.5-7.5-7.5s-7.5 3.357-7.5 7.5V415c0 26.191 21.309 47.5 47.5 47.5h417c26.191 0 47.5-21.309 47.5-47.5V97c0-26.191-21.309-47.5-47.5-47.5"/><path d="M30.75 101.75c0 12.406 10.094 22.5 22.5 22.5s22.5-10.094 22.5-22.5-10.094-22.5-22.5-22.5-22.5 10.094-22.5 22.5m30 0c0 4.136-3.364 7.5-7.5 7.5s-7.5-3.364-7.5-7.5 3.364-7.5 7.5-7.5 7.5 3.364 7.5 7.5M140 102c0-12.406-10.094-22.5-22.5-22.5S95 89.594 95 102s10.094 22.5 22.5 22.5S140 114.406 140 102m-30 0c0-4.136 3.364-7.5 7.5-7.5s7.5 3.364 7.5 7.5-3.364 7.5-7.5 7.5-7.5-3.364-7.5-7.5M204 102c0-12.406-10.094-22.5-22.5-22.5S159 89.594 159 102s10.094 22.5 22.5 22.5S204 114.406 204 102m-30 0c0-4.136 3.364-7.5 7.5-7.5s7.5 3.364 7.5 7.5-3.364 7.5-7.5 7.5-7.5-3.364-7.5-7.5M459.5 124.5c12.406 0 22.5-10.094 22.5-22.5s-10.094-22.5-22.5-22.5h-213c-12.406 0-22.5 10.094-22.5 22.5s10.094 22.5 22.5 22.5zM239 102c0-4.136 3.364-7.5 7.5-7.5h213c4.136 0 7.5 3.364 7.5 7.5s-3.364 7.5-7.5 7.5h-213c-4.136 0-7.5-3.364-7.5-7.5M266.53 218.823l-63.59 145.584c-5.121 11.725.252 25.431 11.978 30.555 11.408 5.201 25.719-.414 30.552-11.978L309.06 237.4c5.121-11.725-.252-25.431-11.979-30.555-11.727-5.114-25.431.258-30.551 11.978m28.783 12.573-63.59 145.583c-1.71 4.088-6.764 6.08-10.802 4.235-4.146-1.812-6.046-6.658-4.235-10.804l63.59-145.584c1.811-4.184 6.754-6.029 10.802-4.234 4.147 1.811 6.046 6.659 4.235 10.804M177.007 234.633a23.06 23.06 0 0 0-16.408-6.796 23.06 23.06 0 0 0-16.409 6.796L86.083 292.74a23.06 23.06 0 0 0-6.796 16.408 23.06 23.06 0 0 0 6.796 16.409l58.892 58.892c8.638 9.001 24.18 9.001 32.817 0 9.001-8.638 9-24.18 0-32.817l-42.484-42.483 41.699-41.698c9.046-9.049 9.046-23.769 0-32.818m-10.608 22.211-47.002 47.001c-2.905 2.794-2.904 7.814 0 10.607l47.787 47.787c3.183 3.052 3.183 8.55 0 11.603-3.052 3.184-8.551 3.183-11.603 0L96.69 314.95c-3.183-3.052-3.183-8.55 0-11.603l58.106-58.107c3.052-3.183 8.55-3.183 11.603-.001 3.2 3.199 3.2 8.407 0 11.605M391.056 339.204a7.5 7.5 0 0 0 10.607 10.607l24.254-24.254a23.06 23.06 0 0 0 6.796-16.409 23.06 23.06 0 0 0-6.796-16.408l-58.106-58.107a23.06 23.06 0 0 0-16.409-6.796 23.05 23.05 0 0 0-16.408 6.797c-9.046 9.048-9.046 23.769 0 32.817l41.699 41.697-42.484 42.483a23.06 23.06 0 0 0-6.796 16.409 23.06 23.06 0 0 0 6.796 16.408c4.383 4.382 10.21 6.796 16.408 6.796s12.026-2.414 16.409-6.796l9.636-9.636a7.5 7.5 0 0 0-10.607-10.607l-9.636 9.636c-3.052 3.183-8.55 3.183-11.603 0-3.184-3.052-3.183-8.551 0-11.603l47.787-47.787a7.5 7.5 0 0 0 0-10.608l-47.002-47c-3.199-3.199-3.199-8.406 0-11.604 3.052-3.184 8.551-3.183 11.603 0l58.106 58.107c1.55 1.549 2.403 3.609 2.403 5.801s-.854 4.253-2.403 5.802z"/></svg>