<svg xmlns="http://www.w3.org/2000/svg" width="512" height="512"><path fill="#f5f5f5" d="M504.5 147v268c0 22.09-17.91 40-40 40h-417c-22.09 0-40-17.91-40-40V147z"/><path fill="#e6e6e6" d="M504.5 167v-20L256 137 7.5 147v268c0 22.09 17.91 40 40 40h20c-22.09 0-40-17.91-40-40V167z"/><path fill="#50758d" d="M504.5 97v50H7.5V97c0-22.09 17.91-40 40-40h417c22.09 0 40 17.91 40 40"/><g fill="#2b597f"><path d="M482 102c0-12.406-10.093-22.5-22.5-22.5h-213c-6.385 0-12.152 2.677-16.251 6.963-4.767 4.757-2.529 2.519-7.286 7.286C218.677 97.848 216 103.615 216 110c0 12.406 10.093 22.5 22.5 22.5h213c6.385 0 12.152-2.677 16.251-6.963 4.767-4.757 2.529-2.519 7.286-7.286C479.323 114.152 482 108.385 482 102M75.75 101.75c0-12.406-10.093-22.5-22.5-22.5-6.385 0-12.152 2.677-16.251 6.963-4.767 4.757-2.529 2.519-7.286 7.286-4.286 4.099-6.963 9.866-6.963 16.251 0 12.406 10.093 22.5 22.5 22.5 6.385 0 12.152-2.677 16.251-6.963 4.767-4.757 2.529-2.519 7.286-7.286 4.286-4.099 6.963-9.866 6.963-16.251M140 101.75c0-12.406-10.093-22.5-22.5-22.5-6.385 0-12.152 2.677-16.251 6.963-4.767 4.757-2.529 2.519-7.286 7.286C89.677 97.598 87 103.365 87 109.75c0 12.406 10.093 22.5 22.5 22.5 6.385 0 12.152-2.677 16.251-6.963 4.767-4.757 2.529-2.519 7.286-7.286 4.286-4.099 6.963-9.866 6.963-16.251M204 101.75c0-12.406-10.093-22.5-22.5-22.5-6.385 0-12.152 2.677-16.251 6.963-4.767 4.757-2.529 2.519-7.286 7.286-4.286 4.099-6.963 9.866-6.963 16.251 0 12.406 10.093 22.5 22.5 22.5 6.385 0 12.152-2.677 16.251-6.963 4.767-4.757 2.529-2.519 7.286-7.286 4.286-4.099 6.963-9.866 6.963-16.251"/></g><path fill="#fd646f" d="M53.25 124.25c-12.407 0-22.5-10.094-22.5-22.5s10.093-22.5 22.5-22.5 22.5 10.094 22.5 22.5-10.093 22.5-22.5 22.5"/><path fill="#ffc682" d="M117.5 124.5c-12.407 0-22.5-10.094-22.5-22.5s10.093-22.5 22.5-22.5S140 89.594 140 102s-10.093 22.5-22.5 22.5"/><path fill="#93ddb7" d="M181.5 124.5c-12.407 0-22.5-10.094-22.5-22.5s10.093-22.5 22.5-22.5S204 89.594 204 102s-10.093 22.5-22.5 22.5"/><path fill="#f5f5f5" d="M459.5 124.5h-213c-12.407 0-22.5-10.094-22.5-22.5s10.093-22.5 22.5-22.5h213c12.407 0 22.5 10.094 22.5 22.5s-10.093 22.5-22.5 22.5"/><path fill="#50758d" d="M368.81 312.946v-24.083a5 5 0 0 0-3.481-4.764l-17.935-5.719c-1.562-.498-2.801-1.723-3.26-3.297a91.4 91.4 0 0 0-7.612-18.353c-.79-1.44-.785-3.185-.031-4.644l8.643-16.741a5 5 0 0 0-.907-5.829l-17.025-17.024a5 5 0 0 0-5.828-.908l-16.746 8.638c-1.459.753-3.203.756-4.643-.033a91.5 91.5 0 0 0-13.279-5.96c-1.421-.506-2.559-1.592-3.078-3.008l-7.356-20.044a5 5 0 0 0-4.694-3.277H240.03a5 5 0 0 0-4.694 3.277l-7.324 19.957a4.96 4.96 0 0 1-3.071 3.006c-4.269 1.421-9.433 3.72-13.257 5.908a5.01 5.01 0 0 1-4.795.123l-16.651-8.589a4.99 4.99 0 0 0-5.822.911l-17.025 17.024a5 5 0 0 0-.907 5.829l8.643 16.741c.754 1.46.759 3.206-.032 4.645a91 91 0 0 0-7.613 18.35c-.459 1.574-1.699 2.801-3.261 3.299l-17.932 5.718a5 5 0 0 0-3.481 4.764v24.083a5 5 0 0 0 3.481 4.764l17.933 5.718c1.562.498 2.802 1.724 3.261 3.298a91.2 91.2 0 0 0 7.613 18.351c.791 1.44.785 3.185.031 4.645l-8.643 16.741a5 5 0 0 0 .907 5.829l17.025 17.024a5 5 0 0 0 5.828.908l16.745-8.638c1.458-.752 3.201-.758 4.64.03a91.6 91.6 0 0 0 18.354 7.607c1.573.459 2.799 1.698 3.298 3.259l5.727 17.936a5 5 0 0 0 4.763 3.479h24.076a5 5 0 0 0 4.763-3.479l5.727-17.936c.499-1.561 1.724-2.8 3.298-3.259a91.8 91.8 0 0 0 18.355-7.608c1.438-.788 3.181-.782 4.639-.03l16.746 8.638c1.933.997 4.29.63 5.828-.908l17.025-17.024a5 5 0 0 0 .907-5.829l-8.643-16.741c-.753-1.459-.759-3.204.031-4.644a91.6 91.6 0 0 0 7.612-18.354c.46-1.573 1.699-2.798 3.26-3.296l17.936-5.719a5 5 0 0 0 3.479-4.762M255.5 349.5c-27.06 0-49-21.94-49-49s21.94-49 49-49 49 21.94 49 49-21.94 49-49 49"/><path d="M7.5 365.904a7.5 7.5 0 0 0 7.5-7.5V154.5h331c4.142 0 7.5-3.357 7.5-7.5s-3.358-7.5-7.5-7.5H15V97c0-17.921 14.58-32.5 32.5-32.5h40.309c4.142 0 7.5-3.357 7.5-7.5s-3.358-7.5-7.5-7.5H47.5C21.309 49.5 0 70.809 0 97v261.404a7.5 7.5 0 0 0 7.5 7.5"/><path d="M464.5 49.5H122.809c-4.142 0-7.5 3.357-7.5 7.5s3.358 7.5 7.5 7.5H464.5c17.92 0 32.5 14.579 32.5 32.5v42.5H381c-4.142 0-7.5 3.357-7.5 7.5s3.358 7.5 7.5 7.5h116V415c0 17.921-14.58 32.5-32.5 32.5h-417C29.58 447.5 15 432.921 15 415v-21.596c0-4.143-3.358-7.5-7.5-7.5s-7.5 3.357-7.5 7.5V415c0 26.191 21.309 47.5 47.5 47.5h417c26.191 0 47.5-21.309 47.5-47.5V97c0-26.191-21.309-47.5-47.5-47.5M30.75 101.75c0 12.406 10.093 22.5 22.5 22.5s22.5-10.094 22.5-22.5-10.093-22.5-22.5-22.5-22.5 10.094-22.5 22.5m30 0c0 4.136-3.364 7.5-7.5 7.5s-7.5-3.364-7.5-7.5 3.364-7.5 7.5-7.5 7.5 3.364 7.5 7.5"/><path d="M117.5 124.5c12.407 0 22.5-10.094 22.5-22.5s-10.093-22.5-22.5-22.5S95 89.594 95 102s10.093 22.5 22.5 22.5m0-30c4.136 0 7.5 3.364 7.5 7.5s-3.364 7.5-7.5 7.5-7.5-3.364-7.5-7.5 3.364-7.5 7.5-7.5M204 102c0-12.406-10.093-22.5-22.5-22.5S159 89.594 159 102s10.093 22.5 22.5 22.5S204 114.406 204 102m-30 0c0-4.136 3.364-7.5 7.5-7.5s7.5 3.364 7.5 7.5-3.364 7.5-7.5 7.5-7.5-3.364-7.5-7.5M482 102c0-12.406-10.093-22.5-22.5-22.5h-213c-12.407 0-22.5 10.094-22.5 22.5s10.093 22.5 22.5 22.5h213c12.407 0 22.5-10.094 22.5-22.5m-243 0c0-4.136 3.364-7.5 7.5-7.5h213c4.136 0 7.5 3.364 7.5 7.5s-3.364 7.5-7.5 7.5h-213c-4.136 0-7.5-3.364-7.5-7.5M371.28 323.74a7.5 7.5 0 0 0 5.22-7.145v-31.383a7.5 7.5 0 0 0-5.22-7.145l-20.162-6.435a99 99 0 0 0-7.166-17.282l9.711-18.815a7.5 7.5 0 0 0-1.361-8.743l-22.191-22.191a7.5 7.5 0 0 0-8.743-1.361l-18.816 9.712a99.5 99.5 0 0 0-12.088-5.408l-8.157-22.224a7.5 7.5 0 0 0-7.041-4.916h-38.532a7.5 7.5 0 0 0-7.041 4.916l-8.116 22.112c-4.045 1.435-8.545 3.441-12.251 5.457l-18.694-9.649a7.5 7.5 0 0 0-8.743 1.361l-22.191 22.191a7.5 7.5 0 0 0-1.361 8.743l9.711 18.815a99 99 0 0 0-7.167 17.282l-20.162 6.435a7.5 7.5 0 0 0-5.22 7.145v31.383a7.5 7.5 0 0 0 5.22 7.145l20.162 6.435a99 99 0 0 0 7.167 17.282l-9.711 18.815a7.5 7.5 0 0 0 1.361 8.743l22.191 22.19a7.5 7.5 0 0 0 8.743 1.361l18.815-9.711a99 99 0 0 0 17.282 7.166l6.435 20.162a7.5 7.5 0 0 0 7.145 5.22h31.383a7.5 7.5 0 0 0 7.145-5.22l6.435-20.162a99 99 0 0 0 17.281-7.166l18.816 9.711a7.505 7.505 0 0 0 8.743-1.361l22.191-22.19a7.5 7.5 0 0 0 1.361-8.743l-9.711-18.815a99 99 0 0 0 7.166-17.282zm-28.553-6.632a7.5 7.5 0 0 0-4.976 5.247 84 84 0 0 1-8.781 21.176 7.5 7.5 0 0 0-.192 7.229l9.043 17.522-14.442 14.441-17.522-9.043a7.5 7.5 0 0 0-7.229.193 84 84 0 0 1-21.176 8.78 7.5 7.5 0 0 0-5.247 4.976l-5.991 18.773h-20.425l-5.991-18.773a7.5 7.5 0 0 0-5.247-4.976 84 84 0 0 1-21.177-8.78 7.5 7.5 0 0 0-7.229-.193l-17.521 9.043-14.442-14.441 9.043-17.522a7.5 7.5 0 0 0-.192-7.229 84 84 0 0 1-8.781-21.177 7.5 7.5 0 0 0-4.976-5.246l-18.773-5.992v-20.424l18.773-5.992a7.5 7.5 0 0 0 4.976-5.246 84 84 0 0 1 8.781-21.177 7.5 7.5 0 0 0 .192-7.229l-9.043-17.522 14.442-14.442 17.521 9.044a7.5 7.5 0 0 0 7.613-.434c3.649-2.443 10.938-5.718 15.599-7.007a7.5 7.5 0 0 0 5.041-4.645l7.575-20.638h28.059l7.575 20.638a7.5 7.5 0 0 0 4.707 4.544 84 84 0 0 1 16.316 7.348 7.5 7.5 0 0 0 7.23.193l17.521-9.044 14.442 14.442-9.043 17.522a7.5 7.5 0 0 0 .192 7.229 84 84 0 0 1 8.781 21.176 7.5 7.5 0 0 0 4.976 5.247l18.773 5.992v20.424z"/><path d="M255.691 244c-31.154 0-56.5 25.346-56.5 56.5s25.346 56.5 56.5 56.5a56.2 56.2 0 0 0 20.99-4.029 7.5 7.5 0 0 0 4.175-9.75 7.5 7.5 0 0 0-9.75-4.176A41.3 41.3 0 0 1 255.691 342c-22.883 0-41.5-18.617-41.5-41.5s18.617-41.5 41.5-41.5 41.5 18.617 41.5 41.5c0 6.466-1.443 12.657-4.291 18.4a7.5 7.5 0 1 0 13.44 6.662c3.882-7.833 5.851-16.265 5.851-25.063 0-31.153-25.345-56.499-56.5-56.499"/></svg>