<svg xmlns="http://www.w3.org/2000/svg" width="512" height="512" viewBox="0 0 512.08 512.08"><path fill="#50758d" d="m301.11 362.9-.02 20-.13 101.95c-.01 4.71-1.58 8.95-4.18 12.3-6.15 7.96-17.47 9.64-26.01 4.36l-46.91-28.96c-8.58-7.07-13.73-10.42-13.73-19.1V362.9l43.97-10z"/><path fill="#fad207" d="M357.297 109c0 11.29-1.84 22.16-5.25 32.3-2.36 7.05-5.48 13.74-9.25 20-17.76 29.48-50.07 49.2-87 49.2-19.58 0-37.86-5.54-53.36-15.14-4.95-3.07-9.61-6.54-13.94-10.39-3.6-3.18-6.97-6.61-10.06-10.28-3.57-4.18-6.79-8.66-9.64-13.39-3.03-5.02-5.63-10.33-7.76-15.87-.53-1.36-1.02-2.74-1.49-4.13-3.41-10.15-5.25-21.01-5.25-32.3 0-56.06 45.44-101.5 101.5-101.5 12.84 0 25.12 2.38 36.42 6.74a101.1 101.1 0 0 1 29.28 17.4c3.66 3.1 7.1 6.46 10.26 10.06 3.86 4.33 7.33 8.99 10.4 13.94 9.6 15.5 15.14 33.78 15.14 53.36"/><path fill="#f8c201" fill-rule="evenodd" d="M352.047 141.3c-2.36 7.05-5.48 13.74-9.25 20h-174c-3.03-5.02-5.63-10.33-7.76-15.87-.53-1.36-1.02-2.74-1.49-4.13z" clip-rule="evenodd"/><path fill="#f8c201" fill-rule="evenodd" d="M253.796 112.14V74.43c10.6 2.49 18.5 9.76 18.5 18.07 0 4.14 3.36 7.5 7.5 7.5 2.245 0 4.096-1.117 5.629-2.557l9.619-9.588h-8.136c-2.411-14.399-15.862-25.947-33.112-28.715V32.33h-2.93l-9.79 9.79c-.06.05-.11.1-.16.16l-.11.11.01.01a7.45 7.45 0 0 0-2.02 5.1v11.49c-5.855.82-11.29 2.654-16.041 5.262v-2.297l-9.753 9.738v.003c-5.454 5.753-8.707 12.973-8.707 20.804 0 16.79 14.94 30.77 34.5 33.51v37.78c-11.1-2.26-19.5-9.72-19.5-18.29 0-2.22-.972-4.209-2.506-5.583l-.042-9.965-10.043 10.042.003.008a7.47 7.47 0 0 0-2.412 5.497c0 16.79 14.94 30.77 34.5 33.51v11.49c0 4.14 3.36 7.5 7.5 7.5a7.46 7.46 0 0 0 4.863-1.798l9.98-9.976h-7.343v-7.366c19.07-3.06 33.5-16.85 33.5-33.36s-14.429-30.299-33.499-33.359m-15-1.348c-11.096-2.265-19.5-9.723-19.5-18.292s8.404-16.027 19.5-18.292zm15 52.782v-36.149c10.597 2.498 18.5 9.765 18.5 18.074s-7.903 15.577-18.5 18.075" clip-rule="evenodd"/><path fill="#f5f5f5" d="M263.296 102.14V64.426c10.597 2.498 18.5 9.765 18.5 18.074 0 4.143 3.357 7.5 7.5 7.5s7.5-3.357 7.5-7.5c0-16.506-14.433-30.296-33.5-33.36V37.5c0-4.143-3.357-7.5-7.5-7.5s-7.5 3.357-7.5 7.5v11.493c-19.56 2.735-34.5 16.714-34.5 33.507s14.94 30.772 34.5 33.507v37.785c-11.096-2.265-19.5-9.723-19.5-18.292 0-4.143-3.357-7.5-7.5-7.5s-7.5 3.357-7.5 7.5c0 16.793 14.94 30.772 34.5 33.507V180.5c0 4.143 3.357 7.5 7.5 7.5s7.5-3.357 7.5-7.5v-11.64c19.067-3.064 33.5-16.854 33.5-33.36s-14.433-30.296-33.5-33.36m-34.5-19.64c0-8.569 8.404-16.027 19.5-18.292v36.584c-11.096-2.265-19.5-9.723-19.5-18.292m34.5 71.074v-36.149c10.597 2.498 18.5 9.765 18.5 18.074s-7.903 15.577-18.5 18.075"/><path fill="#50758d" d="M442.591 204.618H69.489c-8.284 0-15-6.716-15-15v-13.321c0-8.284 6.716-15 15-15h373.102c8.284 0 15 6.716 15 15v13.321c0 8.284-6.715 15-15 15"/><path fill="#2b597f" d="M89.49 204.62h-20c-8.29 0-15-6.72-15-15V176.3c0-8.29 6.71-15 15-15h20c-8.29 0-15 6.71-15 15v13.32c0 8.28 6.71 15 15 15"/><path fill="#50758d" d="m442.59 204.62-17.88 20-123.6 138.28h-90.98L69.49 204.62z"/><g fill="#2b597f"><path d="M442.59 204.62H69.49L210.13 362.9h25l-96.659-138.28H424.71z"/><path d="m301.09 382.9.02-20h-65.98l-13.367-3.942-11.633 3.942v90.55c0 8.68 5.15 12.03 13.73 19.1l46.91 28.96c7.28 4.5 16.57 3.94 22.97-1.25l-44.88-27.71c-8.58-7.07-13.73-10.42-13.73-19.1V382.9z"/></g><path d="M442.591 153.797h-87.42A109 109 0 0 0 364.797 109c0-9.049-1.113-18.047-3.307-26.744a7.5 7.5 0 0 0-14.544 3.669 94.4 94.4 0 0 1 2.851 23.074 93.9 93.9 0 0 1-11.353 44.797h-48.242c4.138-5.287 6.549-11.563 6.549-18.297 0-16.506-14.433-30.296-33.5-33.36V64.426c10.597 2.498 18.5 9.765 18.5 18.074 0 4.143 3.358 7.5 7.5 7.5s7.5-3.357 7.5-7.5c0-16.506-14.433-30.296-33.5-33.36V37.5c0-4.143-3.358-7.5-7.5-7.5s-7.5 3.357-7.5 7.5v11.494c-19.56 2.735-34.5 16.713-34.5 33.506s14.94 30.771 34.5 33.506v37.786c-11.096-2.265-19.5-9.723-19.5-18.292 0-4.143-3.358-7.5-7.5-7.5s-7.5 3.357-7.5 7.5c0 6.733 2.411 13.01 6.549 18.297h-47.15A93.9 93.9 0 0 1 161.797 109c0-51.832 42.168-94 94-94 31.219 0 60.33 15.451 77.871 41.331a7.5 7.5 0 0 0 10.417 2 7.5 7.5 0 0 0 2-10.416C325.749 17.912 291.997 0 255.797 0c-60.103 0-109 48.897-109 109 0 15.524 3.311 30.788 9.626 44.797H69.489c-12.407 0-22.5 10.094-22.5 22.5v13.321c0 11.169 8.182 20.46 18.867 22.203l54.455 61.285a7.5 7.5 0 1 0 11.213-9.963l-45.337-51.024h339.642l-128.072 143.28H267.55c-4.142 0-7.5 3.357-7.5 7.5s3.358 7.5 7.5 7.5h26.053l-.055 43.729a7.5 7.5 0 0 0 7.491 7.51h.009a7.5 7.5 0 0 0 7.5-7.49l.06-48.382L446.21 211.823c10.692-1.737 18.881-11.031 18.881-22.205v-13.321c0-12.406-10.093-22.5-22.5-22.5M281.751 135.5c0 8.31-7.903 15.576-18.5 18.074v-36.148c10.598 2.498 18.5 9.764 18.5 18.074m-53-53c0-8.569 8.404-16.027 19.5-18.292v36.584c-11.096-2.265-19.5-9.723-19.5-18.292m221.34 107.118c0 4.136-3.365 7.5-7.5 7.5H69.489c-4.136 0-7.5-3.364-7.5-7.5v-13.321c0-4.136 3.364-7.5 7.5-7.5h99.262l.046.003q.022-.001.044-.003h173.911q.022.001.044.003.024-.001.046-.003h99.748c4.135 0 7.5 3.364 7.5 7.5z"/><path d="M301.014 441.638h-.009a7.5 7.5 0 0 0-7.5 7.49l-.044 35.716c.303 9.478-10.645 15.502-18.751 10.288 0 0-47.706-29.696-48.29-30.172-7.348-5.983-8.788-7.506-8.788-11.512v-83.049h14.919c4.142 0 7.5-3.357 7.5-7.5s-3.358-7.5-7.5-7.5H213.5l-58.726-66.091a7.5 7.5 0 0 0-10.588-.625 7.5 7.5 0 0 0-.625 10.588l59.07 66.479v87.698c0 11.484 6.634 16.887 14.315 23.143.947.734 49.883 31.305 49.883 31.305 11.703 7.294 27.326 4.936 35.884-6.155 3.751-4.851 5.739-10.686 5.747-16.877l.044-35.716a7.5 7.5 0 0 0-7.49-7.51"/></svg>