<svg xmlns="http://www.w3.org/2000/svg" width="512" height="512" viewBox="0 0 511.387 511.387"><g fill="#fad207"><circle cx="407.887" cy="103.736" r="96"/><path d="M151.938 109.993a7.5 7.5 0 0 1-5.304-12.803l38.185-38.184a7.5 7.5 0 0 1 10.607 10.607l-38.185 38.184a7.49 7.49 0 0 1-5.303 2.196M224.063 179.289a7.5 7.5 0 0 1-5.304-12.803l29.698-29.698a7.5 7.5 0 0 1 10.607 10.607l-29.698 29.698a7.49 7.49 0 0 1-5.303 2.196M227.952 104.689a7.5 7.5 0 0 1-5.304-12.803l15.202-15.202a7.5 7.5 0 0 1 10.607 10.607l-15.202 15.202a7.48 7.48 0 0 1-5.303 2.196M191.536 141.105a7.5 7.5 0 0 1-5.304-12.803l13.788-13.788a7.5 7.5 0 0 1 10.607 10.607l-13.788 13.788a7.48 7.48 0 0 1-5.303 2.196M409.324 367.38a7.5 7.5 0 0 1-5.304-12.803l38.185-38.184A7.5 7.5 0 0 1 452.812 327l-38.185 38.184a7.48 7.48 0 0 1-5.303 2.196M340.028 295.255a7.5 7.5 0 0 1-5.304-12.803l29.698-29.698a7.5 7.5 0 0 1 10.607 10.607l-29.698 29.698a7.48 7.48 0 0 1-5.303 2.196M407.557 298.436a7.48 7.48 0 0 1-5.304-2.197 7.5 7.5 0 0 1 .001-10.606l22.274-22.273a7.5 7.5 0 0 1 10.606.001 7.5 7.5 0 0 1-.001 10.606l-22.274 22.273a7.47 7.47 0 0 1-5.302 2.196M378.212 327.782a7.5 7.5 0 0 1-5.304-12.803l6.718-6.718a7.5 7.5 0 0 1 10.607 10.607l-6.718 6.718a7.48 7.48 0 0 1-5.303 2.196"/></g><path fill="#f8c201" fill-rule="evenodd" d="M404.86 103.898V69.094c9.593 2.423 16.685 9.035 16.685 16.578 0 4.143 3.357 7.5 7.5 7.5a7.47 7.47 0 0 0 4.694-1.655v.003l10.538-6.656-3.286-3.758-4.775.392c-2.164-13.824-14.923-24.963-31.356-27.729V43.111a7.5 7.5 0 0 0-.904-3.573v-9.492l-10.165 6.467a7.5 7.5 0 0 0-3.931 6.598v10.52a47 47 0 0 0-5.101 1.045l.146-2.519-10.08 6.485a40 40 0 0 0-4.667 3.003l-.012.008c-7.933 5.956-12.917 14.517-12.917 24.019 0 15.985 14.105 29.309 32.631 32.041v34.89c-10.07-2.215-17.631-9.013-17.631-16.803a7.46 7.46 0 0 0-1.198-4.058l.847-9.377-11.128 7.085c-.091.057-.183.112-.272.173l-.049.031.004.002a7.49 7.49 0 0 0-3.205 6.144c0 15.986 14.105 29.31 32.631 32.042v10.52a7.5 7.5 0 0 0 11.006 6.628l-.001.02.374-.237q.2-.12.394-.25l10.658-6.771-1.203-1.603-6.227.131v-8.577c18.059-3.039 31.685-16.189 31.685-31.903s-13.626-28.864-31.685-31.902m-15-1.423c-10.07-2.215-17.631-9.013-17.631-16.803s7.561-14.588 17.631-16.803zm15 49.904v-33.156c9.593 2.423 16.685 9.035 16.685 16.578s-7.092 14.155-16.685 16.578" clip-rule="evenodd"/><path fill="#f5f5f5" d="M415.86 96.898V62.094c9.593 2.423 16.685 9.035 16.685 16.578 0 4.143 3.357 7.5 7.5 7.5s7.5-3.357 7.5-7.5c0-15.714-13.626-28.864-31.685-31.903V36.111c0-4.143-3.357-7.5-7.5-7.5s-7.5 3.357-7.5 7.5v10.52c-18.525 2.732-32.631 16.056-32.631 32.042 0 15.985 14.105 29.309 32.631 32.041v34.89c-10.07-2.215-17.631-9.013-17.631-16.803 0-4.143-3.357-7.5-7.5-7.5s-7.5 3.357-7.5 7.5c0 15.986 14.105 29.31 32.631 32.042v10.52c0 4.143 3.357 7.5 7.5 7.5s7.5-3.357 7.5-7.5v-10.659c18.059-3.039 31.685-16.189 31.685-31.903s-13.626-28.865-31.685-31.903m-32.631-18.225c0-7.79 7.561-14.588 17.631-16.803v33.606c-10.069-2.216-17.631-9.013-17.631-16.803m32.631 66.706v-33.156c9.593 2.423 16.685 9.035 16.685 16.578s-7.092 14.155-16.685 16.578M195.072 200.781l-36.059 36.059-47.384-26.798-23.326-43.912 36.059-36.059c3.905-3.905 10.237-3.905 14.142 0l56.568 56.568c3.906 3.905 3.906 10.237 0 14.142M381.751 387.461l-36.067 36.059-50.735-24.031-19.975-46.679 36.059-36.067c3.905-3.906 10.237-3.906 14.143-.001l56.576 56.576c3.905 3.906 3.905 10.238-.001 14.143"/><path fill="#fd646f" d="m345.683 423.52-26.46 26.46c-.82.82-1.64 1.63-2.47 2.43-25.64 24.68-58.29 40.82-93.31 47.14l-4.04.73c-25.18 4.55-51.08 3.99-75.89-2.28-30.42-7.68-59.14-23.27-82.73-46.84l-.06-.06 20.013-52.377 50.697-18.333c16.01 16.01 37 24.01 57.98 24.01s41.97-8 57.98-24.01l27.58-27.58z"/><path fill="#2edffc" d="M113.333 291.631a82.1 82.1 0 0 0-5.92 34.61c.92 19.69 8.98 39.11 24.02 54.15l-70.71 70.71c-70.96-70.96-70.97-186.43 0-257.39l27.58-27.58 70.71 70.71-27.58 27.58c-8.01 8.01-14.01 17.25-18.01 27.13z"/><path fill="#2edffc" d="M113.333 291.631a82.1 82.1 0 0 0-5.92 34.61c.92 19.69 8.98 39.11 24.02 54.15l-70.71 70.71c-70.96-70.96-70.97-186.43 0-257.39l27.58-27.58 70.71 70.71-27.58 27.58c-8.01 8.01-14.01 17.25-18.01 27.13z"/><path fill="#e6e6e6" d="m195.072 200.781-36.059 36.059-15-15 43.13-43.13 7.929 7.929c3.906 3.905 3.906 10.237 0 14.142"/><path fill="#27bdf3" d="m159.013 236.841-27.58 27.58c-8.01 8.01-14.01 17.25-18.01 27.13l-.09.08a82 82 0 0 0-4.62 15.8c-.69-3.7-1.12-7.44-1.3-11.19a82.1 82.1 0 0 1 5.92-34.61l.09-.08c4-9.88 10-19.12 18.01-27.13l12.58-12.58z"/><path fill="#e6e6e6" d="m381.751 387.461-36.067 36.059-15-15 15-15 28.14-28.13 7.928 7.928c3.905 3.906 3.905 10.238-.001 14.143"/><path fill="#27bdf3" d="m76.613 435.2-15.89 15.9c-39.29-39.29-56.83-92.23-52.6-143.7 3.39 41.49 20.93 82.03 52.6 113.7l.06.06c5.05 5.05 10.34 9.73 15.83 14.04"/><path fill="#fc4755" d="m345.683 423.52-26.46 26.46c-.82.82-1.64 1.63-2.47 2.43-25.64 24.68-58.29 40.82-93.31 47.14l-4.04.73c-25.18 4.55-51.08 3.99-75.89-2.28-30.42-7.68-59.14-23.27-82.73-46.84l-.06-.06 15.89-15.9c20.14 15.85 43 26.76 66.9 32.8 24.81 6.27 50.71 6.83 75.89 2.28l4.04-.73c35.02-6.32 67.67-22.46 93.31-47.14.83-.8 1.65-1.61 2.47-2.43l11.46-11.46z"/><path d="M432.545 78.673c0 4.143 3.357 7.5 7.5 7.5s7.5-3.357 7.5-7.5c0-15.714-13.626-28.864-31.685-31.903V36.111c0-4.143-3.357-7.5-7.5-7.5s-7.5 3.357-7.5 7.5v10.52c-18.525 2.732-32.631 16.056-32.631 32.042 0 15.985 14.105 29.309 32.631 32.041v34.89c-10.07-2.215-17.631-9.013-17.631-16.803 0-4.143-3.357-7.5-7.5-7.5s-7.5 3.357-7.5 7.5c0 15.986 14.105 29.31 32.631 32.042v10.52c0 4.143 3.357 7.5 7.5 7.5s7.5-3.357 7.5-7.5v-10.659c18.059-3.039 31.685-16.189 31.685-31.903s-13.626-28.864-31.685-31.903V62.094c9.593 2.423 16.685 9.035 16.685 16.579m-49.316 0c0-7.79 7.561-14.588 17.631-16.803v33.606c-10.069-2.216-17.631-9.013-17.631-16.803m49.316 50.128c0 7.543-7.092 14.155-16.685 16.578v-33.156c9.593 2.422 16.685 9.034 16.685 16.578"/><path d="M407.887.236c-57.07 0-103.5 46.43-103.5 103.5s46.43 103.5 103.5 103.5 103.5-46.43 103.5-103.5-46.43-103.5-103.5-103.5m0 192c-48.799 0-88.5-39.701-88.5-88.5s39.701-88.5 88.5-88.5 88.5 39.701 88.5 88.5-39.701 88.5-88.5 88.5M323.412 304.372a7.5 7.5 0 0 0-10.607 0l-43.13 43.129-.004.003-.004.004-27.574 27.573c-14.071 14.072-32.779 21.821-52.679 21.821-19.897 0-38.602-7.747-52.674-21.814l-.006-.007-.007-.006c-13.15-13.152-20.868-30.619-21.732-49.182-.192-4.138-3.695-7.298-7.841-7.144a7.5 7.5 0 0 0-7.144 7.841 89.23 89.23 0 0 0 21.044 53.563L60.839 440.37C31.237 408.16 15.01 366.58 15 322.443c-.011-46.681 18.109-90.516 51.024-123.43l22.273-22.273 60.104 60.104-22.274 22.273c-8.541 8.541-15.155 18.504-19.659 29.611a7.5 7.5 0 0 0 4.132 9.769 7.5 7.5 0 0 0 9.769-4.132c3.746-9.236 9.252-17.527 16.366-24.641l70.711-70.711a7.5 7.5 0 0 0 0-10.607l-70.711-70.711a7.5 7.5 0 0 0-10.607 0l-70.711 70.711C19.669 224.155-.012 271.759 0 322.447c.012 50.638 19.676 98.186 55.374 133.906 38.935 39.178 94.466 58.896 149.802 54.085a7.5 7.5 0 0 0 6.844-8.104 7.505 7.505 0 0 0-8.104-6.844c-49.137 4.136-96.983-12.042-132.46-44.523l60.21-60.209c16.133 13.674 36.362 21.145 57.749 21.145 23.905 0 46.381-9.31 63.286-26.214l22.273-22.273 60.104 60.104-21.161 21.161c-21.172 21.173-47.69 36.663-76.688 44.796a7.5 7.5 0 0 0-5.196 9.247c1.106 4.022 5.366 6.317 9.247 5.196 31.471-8.827 60.256-25.644 83.245-48.633l26.455-26.455.01-.009.009-.01 43.124-43.124a7.5 7.5 0 0 0 0-10.607zm-191.98-170.767 60.104 60.104-32.527 32.526-60.104-60.104zm214.254 279.307-60.104-60.104 32.526-32.526 60.104 60.104zM151.938 109.993a7.48 7.48 0 0 0 5.304-2.196l38.185-38.184a7.5 7.5 0 0 0-10.607-10.607L146.635 97.19a7.5 7.5 0 0 0 5.303 12.803M224.063 179.289a7.48 7.48 0 0 0 5.304-2.196l29.698-29.698a7.5 7.5 0 0 0-10.607-10.607l-29.698 29.698a7.5 7.5 0 0 0 5.303 12.803M227.952 104.689a7.48 7.48 0 0 0 5.304-2.196l15.202-15.202a7.5 7.5 0 0 0-10.607-10.607l-15.202 15.202a7.5 7.5 0 0 0 5.303 12.803M186.232 138.909a7.5 7.5 0 0 0 10.607 0l13.788-13.788a7.5 7.5 0 0 0-10.607-10.607l-13.788 13.788a7.5 7.5 0 0 0 0 10.607M442.205 316.392l-38.185 38.184a7.5 7.5 0 0 0 10.607 10.607L452.813 327a7.5 7.5 0 0 0-10.608-10.608M364.423 252.753l-29.698 29.698a7.5 7.5 0 0 0 10.607 10.607l29.698-29.698a7.5 7.5 0 0 0-10.607-10.607M407.557 298.436a7.48 7.48 0 0 0 5.303-2.196l22.274-22.273a7.5 7.5 0 0 0 .001-10.606 7.5 7.5 0 0 0-10.606-.001l-22.274 22.273a7.5 7.5 0 0 0-.001 10.606 7.47 7.47 0 0 0 5.303 2.197M372.908 325.586a7.5 7.5 0 0 0 10.607 0l6.718-6.718a7.5 7.5 0 0 0-10.607-10.607l-6.718 6.718a7.5 7.5 0 0 0 0 10.607"/></svg>