<svg xmlns="http://www.w3.org/2000/svg" width="512" height="512" viewBox="0 0 513 513"><path fill="#ffc682" d="M505.5 175.38v270.23c0 16.8-29.45 26.11-42.54 15.58l-33.59-43.9a20.03 20.03 0 0 0-14.2-5.91H175.5c-22.09 0-40-17.91-40-40v-196c0-22.09 17.91-40 40-40h290c22.09 0 40 17.91 40 40"/><path fill="#ffac5c" d="M505.5 442.29v3.32c0 16.8-29.45 26.11-42.54 15.58l-33.59-43.9a20.03 20.03 0 0 0-14.2-5.91H175.5c-14.8 0-27.73-8.04-34.65-20h287.32c5.33 0 10.44 2.13 14.2 5.91l33.59 43.9c7.38 5.94 19.97 5.57 29.54 1.1M408.5 135.38v138c0 37.5-30.5 68-68 68h-205v-166c0-22.09 17.91-40 40-40z"/><path fill="#2edffc" d="M7.5 261.88V87.38c0-22.091 17.909-40 40-40h293c22.091 0 40 17.909 40 40v186c0 22.091-17.909 40-40 40H97.826a20 20 0 0 0-14.192 5.908L40.04 363.19C26.95 373.72 7.5 364.41 7.5 347.61v-51.73z"/><path fill="#27bdf3" d="M380.5 267.38v6c0 22.09-17.91 40-40 40H97.83c-5.33 0-10.44 2.13-14.2 5.91l-43.59 43.9C26.95 373.72 7.5 364.41 7.5 347.61v-10.92c5.97 1.9 12.86 1.07 18.54-3.5l43.59-43.9c3.76-3.78 8.87-5.91 14.2-5.91H348.5c13.08 0 24.7-6.28 32-16"/><g fill="#f5f5f5"><circle cx="194" cy="180.38" r="22.5"/><path d="M254.5 180.38c0-12.069 9.502-21.918 21.433-22.475q.53-.024 1.067-.025c12.426 0 22.5 10.074 22.5 22.5q0 1.085-.101 2.143C298.32 193.944 288.703 202.88 277 202.88c-12.426 0-22.5-10.074-22.5-22.5"/><circle cx="111" cy="180.38" r="22.5"/></g><path fill="#e1dfe1" d="M216.5 180.38c0 12.43-10.07 22.5-22.5 22.5-9.09 0-16.92-5.38-20.46-13.14 3.35 2 7.27 3.14 11.46 3.14 12.43 0 22.5-10.07 22.5-22.5 0-3.34-.73-6.51-2.04-9.36 6.61 3.91 11.04 11.12 11.04 19.36M299.5 180.38c0 .72-.03 1.44-.1 2.14-1.08 11.42-10.7 20.36-22.4 20.36-9.09 0-16.92-5.38-20.46-13.14 3.35 2 7.27 3.14 11.46 3.14 11.7 0 21.32-8.94 22.4-20.36.07-.7.1-1.42.1-2.14 0-3.34-.73-6.51-2.04-9.36 6.61 3.91 11.04 11.12 11.04 19.36M133.5 180.38c0 12.43-10.07 22.5-22.5 22.5-9.09 0-16.92-5.38-20.46-13.14 3.35 2 7.27 3.14 11.46 3.14 12.43 0 22.5-10.07 22.5-22.5 0-3.34-.73-6.51-2.04-9.36 6.61 3.91 11.04 11.12 11.04 19.36"/><path d="M340.5 320.88c26.191 0 47.5-21.309 47.5-47.5v-65.5c0-4.142-3.357-7.5-7.5-7.5s-7.5 3.358-7.5 7.5v65.5c0 17.92-14.579 32.5-32.5 32.5H97.825c-7.274 0-14.387 2.961-19.514 8.123l-43.267 43.573c-3.8 2.89-8.612 3.384-12.947 1.307C17.653 356.754 15 352.54 15 347.61v-51.73c0-4.142-3.357-7.5-7.5-7.5s-7.5 3.358-7.5 7.5v51.73c0 10.684 5.984 20.187 15.618 24.801 3.828 1.833 7.896 2.734 11.932 2.734 6.123 0 12.172-2.074 17.191-6.112q.326-.262.621-.559l43.594-43.902a12.58 12.58 0 0 1 8.869-3.692H128v50.5c0 26.191 21.309 47.5 47.5 47.5H323c4.143 0 7.5-3.358 7.5-7.5s-3.357-7.5-7.5-7.5H175.5c-17.921 0-32.5-14.58-32.5-32.5v-50.5z"/><path d="M465.5 127.88H388v-40.5c0-26.191-21.309-47.5-47.5-47.5h-293C21.309 39.88 0 61.188 0 87.38v174.5c0 4.142 3.357 7.5 7.5 7.5s7.5-3.358 7.5-7.5V87.38c0-17.92 14.579-32.5 32.5-32.5h293c17.921 0 32.5 14.58 32.5 32.5v86.5c0 4.142 3.357 7.5 7.5 7.5s7.5-3.358 7.5-7.5v-31h77.5c17.921 0 32.5 14.58 32.5 32.5v75.5c0 4.142 3.357 7.5 7.5 7.5s7.5-3.358 7.5-7.5v-75.5c0-26.192-21.309-47.5-47.5-47.5M505.5 277.38a7.5 7.5 0 0 0-7.5 7.5v160.73c0 5.318-6.456 8.824-8.436 9.772-7.351 3.522-16.479 3.659-21.282.421l-32.96-43.073a7 7 0 0 0-.634-.727c-5.127-5.162-12.239-8.123-19.514-8.123H357c-4.143 0-7.5 3.358-7.5 7.5s3.357 7.5 7.5 7.5h58.175c3.164 0 6.261 1.232 8.564 3.396l33.265 43.472c.365.478.786.909 1.255 1.286 5.401 4.345 12.255 6.087 19.095 6.087 6.703 0 13.394-1.673 18.69-4.21 10.617-5.085 16.956-13.795 16.956-23.3V284.88a7.5 7.5 0 0 0-7.5-7.5"/><path d="M224 180.38c0-16.542-13.458-30-30-30s-30 13.458-30 30 13.458 30 30 30 30-13.458 30-30m-45 0c0-8.271 6.729-15 15-15s15 6.729 15 15-6.729 15-15 15-15-6.729-15-15M306.866 183.226c.089-.942.134-1.899.134-2.846 0-16.542-13.458-30-30-30q-.714 0-1.416.033C259.556 151.16 247 164.323 247 180.38c0 16.542 13.458 30 30 30 15.564 0 28.403-11.673 29.866-27.154M262 180.38c0-8.028 6.273-14.609 14.285-14.983q.356-.017.715-.017c8.271 0 15 6.729 15 15 0 .479-.022.964-.067 1.438-.73 7.731-7.15 13.562-14.933 13.562-8.271 0-15-6.729-15-15M141 180.38c0-16.542-13.458-30-30-30s-30 13.458-30 30 13.458 30 30 30 30-13.458 30-30m-45 0c0-8.271 6.729-15 15-15s15 6.729 15 15-6.729 15-15 15-15-6.729-15-15"/></svg>