<svg xmlns="http://www.w3.org/2000/svg" width="512" height="512"><path fill="#f5f5f5" d="M504.5 137v288c0 22.09-17.91 40-40 40h-417c-22.09 0-40-17.91-40-40V137z"/><path fill="#e6e6e6" d="M504.5 157v-20L256 127 7.5 137v288c0 22.09 17.91 40 40 40h20c-22.09 0-40-17.91-40-40V157z"/><path fill="#50758d" d="M504.5 87v50H7.5V87c0-22.09 17.91-40 40-40h417c22.09 0 40 17.91 40 40"/><g fill="#2b597f"><path d="M74.75 92c0-12.406-10.093-22.5-22.5-22.5-6.385 0-12.152 2.677-16.251 6.963-4.767 4.757-2.529 2.519-7.286 7.286-4.286 4.099-6.963 9.866-6.963 16.251 0 12.406 10.093 22.5 22.5 22.5 6.385 0 12.152-2.677 16.251-6.963 4.767-4.757 2.529-2.519 7.286-7.286 4.286-4.099 6.963-9.866 6.963-16.251M139 92c0-12.406-10.093-22.5-22.5-22.5-6.385 0-12.152 2.677-16.251 6.963-4.767 4.757-2.529 2.519-7.286 7.286C88.677 87.848 86 93.615 86 100c0 12.406 10.093 22.5 22.5 22.5 6.385 0 12.152-2.677 16.251-6.963 4.767-4.757 2.529-2.519 7.286-7.286C136.323 104.152 139 98.385 139 92M203 92c0-12.406-10.093-22.5-22.5-22.5-6.385 0-12.152 2.677-16.251 6.963-4.767 4.757-2.529 2.519-7.286 7.286C152.677 87.848 150 93.615 150 100c0 12.406 10.093 22.5 22.5 22.5 6.385 0 12.152-2.677 16.251-6.963 4.767-4.757 2.529-2.519 7.286-7.286C200.323 104.152 203 98.385 203 92M481 92c0-12.406-10.093-22.5-22.5-22.5h-213c-6.385 0-12.152 2.677-16.251 6.963-4.767 4.757-2.529 2.519-7.286 7.286C217.677 87.848 215 93.615 215 100c0 12.406 10.093 22.5 22.5 22.5h213c6.385 0 12.152-2.677 16.251-6.963 4.767-4.757 2.529-2.519 7.286-7.286C478.323 104.152 481 98.385 481 92"/></g><path fill="#fd646f" d="M52.25 114.25c-12.407 0-22.5-10.094-22.5-22.5s10.093-22.5 22.5-22.5 22.5 10.094 22.5 22.5-10.093 22.5-22.5 22.5"/><path fill="#ffc682" d="M116.5 114.5C104.093 114.5 94 104.406 94 92s10.093-22.5 22.5-22.5S139 79.594 139 92s-10.093 22.5-22.5 22.5"/><path fill="#93ddb7" d="M180.5 114.5c-12.407 0-22.5-10.094-22.5-22.5s10.093-22.5 22.5-22.5S203 79.594 203 92s-10.093 22.5-22.5 22.5"/><path fill="#f5f5f5" d="M458.5 114.5h-213c-12.407 0-22.5-10.094-22.5-22.5s10.093-22.5 22.5-22.5h213c12.407 0 22.5 10.094 22.5 22.5s-10.093 22.5-22.5 22.5"/><g fill="#2b597f"><path d="M219.03 299.34h-27.37c-.67-4.95-1.05-9.95-1.15-15h28.52c4.14 0 7.5 3.36 7.5 7.5s-3.36 7.5-7.5 7.5M222.03 259.34h-29.67c.87-5.07 2.03-10.09 3.47-15h26.2c4.14 0 7.5 3.36 7.5 7.5s-3.36 7.5-7.5 7.5M235.53 331.84c0 4.14-3.36 7.5-7.5 7.5h-24.32c-1.4-2.88-2.7-5.82-3.89-8.82q-1.23-3.075-2.28-6.18h30.49c4.14 0 7.5 3.36 7.5 7.5M250.53 211.84c0 4.14-3.36 7.5-7.5 7.5h-36.98c2.8-5.24 5.93-10.25 9.36-15h27.62c4.14 0 7.5 3.36 7.5 7.5"/></g><path fill="#50758d" d="M243.032 219.341h-182c-4.143 0-7.5-3.357-7.5-7.5s3.357-7.5 7.5-7.5h182c4.143 0 7.5 3.357 7.5 7.5s-3.357 7.5-7.5 7.5M222.032 259.341h-161c-4.143 0-7.5-3.357-7.5-7.5s3.357-7.5 7.5-7.5h161c4.143 0 7.5 3.357 7.5 7.5s-3.357 7.5-7.5 7.5M219.032 299.341h-160c-4.143 0-7.5-3.357-7.5-7.5s3.357-7.5 7.5-7.5h160c4.143 0 7.5 3.357 7.5 7.5s-3.357 7.5-7.5 7.5M228.032 339.341H179c-4.143 0-7.5-3.357-7.5-7.5s3.357-7.5 7.5-7.5h49.032c4.143 0 7.5 3.357 7.5 7.5s-3.357 7.5-7.5 7.5"/><path fill="#2b597f" d="M250.53 211.84c0 4.14-3.36 7.5-7.5 7.5h-33.69c3.57-5.34 7.59-10.36 12-15h21.69c4.14 0 7.5 3.36 7.5 7.5M229.53 251.84c0 4.14-3.36 7.5-7.5 7.5h-29.32c1.03-5.14 2.41-10.14 4.11-14.99v-.01h25.21c4.14 0 7.5 3.36 7.5 7.5M226.53 291.84c0 4.14-3.36 7.5-7.5 7.5h-27.15c-.79-4.9-1.25-9.9-1.37-15h28.52c4.14 0 7.5 3.36 7.5 7.5M235.53 331.84c0 4.14-3.36 7.5-7.5 7.5h-21.61c-2.87-4.78-5.39-9.79-7.52-15h29.13c4.14 0 7.5 3.36 7.5 7.5"/><path fill="#50758d" d="M144 339.341H61.032c-4.143 0-7.5-3.357-7.5-7.5s3.357-7.5 7.5-7.5H144c4.143 0 7.5 3.357 7.5 7.5s-3.357 7.5-7.5 7.5M405.995 343.92l57.125 57.94c6.434 6.311 6.495 16.646.137 23.005-6.309 6.309-16.548 6.304-22.88-.011l-60.399-61.981z"/><path fill="#2b597f" d="m432.46 370.77-22.68 22.68-29.8-30.58 26.01-18.95z"/><path fill="#50758d" d="M322.752 169.38c-48.93 0-90.55 31.3-105.93 74.97-2.12 6.04-3.74 12.31-4.82 18.78-1 6.03-1.52 12.22-1.52 18.52 0 14.65 2.81 28.65 7.92 41.48 16.49 41.47 56.99 70.78 104.35 70.78 62 0 112.26-50.26 112.26-112.26s-50.26-112.27-112.26-112.27"/><circle cx="322.747" cy="281.645" r="79.815" fill="#2edffc"/><path fill="#27bdf3" d="M383.5 333.4c-14.63 17.17-36.42 28.06-60.75 28.06-44.08 0-79.82-35.73-79.82-79.81 0-27.93 14.34-52.5 36.06-66.76-11.89 13.93-19.06 32-19.06 51.76 0 44.08 35.74 79.81 79.82 79.81 16.16 0 31.19-4.8 43.75-13.06"/><path fill="#2b597f" d="M358.933 237.647c-9.108-9.108-23.932-9.11-33.042 0-7.252 7.253-8.71 18.119-4.415 26.848l-40.055 40.055a7.5 7.5 0 0 0 0 10.606l15.224 15.225a7.48 7.48 0 0 0 5.304 2.197 7.498 7.498 0 0 0 5.304-12.802l-9.921-9.922 4.216-4.216 6.716 6.716c1.465 1.464 3.385 2.196 5.304 2.196s3.839-.732 5.304-2.196a7.5 7.5 0 0 0 0-10.607l-6.716-6.716 19.928-19.928a23.4 23.4 0 0 0 10.328 2.418c5.983 0 11.967-2.277 16.521-6.832 9.109-9.11 9.109-23.931 0-33.042m-10.608 22.435c-3.259 3.261-8.566 3.263-11.827 0-3.262-3.261-3.262-8.566 0-11.827a8.33 8.33 0 0 1 5.913-2.446c2.143 0 4.284.815 5.914 2.446 3.262 3.261 3.262 8.566 0 11.827"/><path d="M464.5 39.5H109c-4.143 0-7.5 3.357-7.5 7.5s3.357 7.5 7.5 7.5h355.5c17.921 0 32.5 14.579 32.5 32.5v42.5H381c-4.143 0-7.5 3.357-7.5 7.5s3.357 7.5 7.5 7.5h116V425c0 17.921-14.579 32.5-32.5 32.5h-417C29.579 457.5 15 442.921 15 425V144.5h331c4.143 0 7.5-3.357 7.5-7.5s-3.357-7.5-7.5-7.5H15V87c0-17.921 14.579-32.5 32.5-32.5H74c4.143 0 7.5-3.357 7.5-7.5s-3.357-7.5-7.5-7.5H47.5C21.309 39.5 0 60.809 0 87v338c0 26.191 21.309 47.5 47.5 47.5h417c26.191 0 47.5-21.309 47.5-47.5V87c0-26.191-21.309-47.5-47.5-47.5"/><path d="M52.25 69.25c-12.406 0-22.5 10.094-22.5 22.5s10.094 22.5 22.5 22.5 22.5-10.094 22.5-22.5-10.094-22.5-22.5-22.5m0 30c-4.136 0-7.5-3.364-7.5-7.5s3.364-7.5 7.5-7.5 7.5 3.364 7.5 7.5-3.364 7.5-7.5 7.5M116.5 114.5c12.406 0 22.5-10.094 22.5-22.5s-10.094-22.5-22.5-22.5S94 79.594 94 92s10.094 22.5 22.5 22.5m0-30c4.136 0 7.5 3.364 7.5 7.5s-3.364 7.5-7.5 7.5-7.5-3.364-7.5-7.5 3.364-7.5 7.5-7.5M203 92c0-12.406-10.094-22.5-22.5-22.5S158 79.594 158 92s10.094 22.5 22.5 22.5S203 104.406 203 92m-30 0c0-4.136 3.364-7.5 7.5-7.5s7.5 3.364 7.5 7.5-3.364 7.5-7.5 7.5-7.5-3.364-7.5-7.5M458.5 114.5c12.406 0 22.5-10.094 22.5-22.5s-10.094-22.5-22.5-22.5h-213C233.094 69.5 223 79.594 223 92s10.094 22.5 22.5 22.5zM238 92c0-4.136 3.364-7.5 7.5-7.5h213c4.136 0 7.5 3.364 7.5 7.5s-3.364 7.5-7.5 7.5h-213c-4.136 0-7.5-3.364-7.5-7.5M321.773 161.881c-35.902 0-69.121 16.103-91.458 42.46H60.054c-4.143 0-7.5 3.357-7.5 7.5s3.357 7.5 7.5 7.5H219.48c-4.704 7.735-8.716 16.172-11.522 25H60.054c-4.143 0-7.5 3.357-7.5 7.5s3.357 7.5 7.5 7.5H204.11c-1.617 8.193-2.246 16.624-2.075 25H58.054c-4.143 0-7.5 3.357-7.5 7.5s3.357 7.5 7.5 7.5h145.25a118.6 118.6 0 0 0 6.549 25h-31.832c-4.143 0-7.5 3.357-7.5 7.5s3.357 7.5 7.5 7.5h38.784c8.925 16.248 21.497 30.221 36.953 40.901 20.041 13.848 43.561 21.168 68.015 21.168 24.157 0 46.661-7.196 65.495-19.547l46.745 48.212c9.212 9.297 24.315 9.35 33.568.094 9.234-8.857 9.155-24.821-.137-33.611l-46.741-47.493c13.135-19.216 20.829-42.432 20.829-67.415.001-66.041-53.722-119.769-119.759-119.769m-97.381 158.474c-4.902-12.309-7.389-25.331-7.389-38.705 0-5.796.478-11.613 1.418-17.285a105.5 105.5 0 0 1 4.497-17.523c14.737-41.846 54.465-69.961 98.855-69.961 57.765 0 104.76 46.999 104.76 104.77 0 57.765-46.995 104.76-104.76 104.76-43.202-.001-81.425-25.928-97.381-66.056m232.498 86.86c3.426 3.22 3.48 9.091.085 12.347-3.363 3.366-8.845 3.37-12.243.02l-25.328-26.123 12.068-12.068 25.324 25.731zm-35.942-36.517-11.989 11.989-9.592-9.893a121 121 0 0 0 12.028-11.801z"/><path d="M409.083 281.65c.145-26.192-12.139-51.678-32.618-68.07-15.43-12.413-34.853-19.25-54.691-19.25-47.246-.672-88.034 40.095-87.32 87.32 0 16.065 4.395 31.76 12.708 45.387 10.287 16.862 26.121 29.87 44.585 36.626a7.494 7.494 0 0 0 9.62-4.466 7.5 7.5 0 0 0-4.466-9.62c-15.29-5.596-28.407-16.375-36.935-30.353-6.877-11.272-10.513-24.266-10.513-37.574-.598-39.116 33.192-72.877 72.32-72.32 38.759-.777 72.944 32.796 72.31 72.32.668 36.442-29.456 69.268-65.67 72.012a7.5 7.5 0 0 0-6.788 8.149 7.5 7.5 0 0 0 7.46 6.819c27.603-2.197 52.828-17.898 67.279-41.59 8.321-13.619 12.719-29.315 12.719-45.39M60.054 324.341c-4.143 0-7.5 3.357-7.5 7.5s3.357 7.5 7.5 7.5h82.968c4.143 0 7.5-3.357 7.5-7.5s-3.357-7.5-7.5-7.5z"/><path d="m311.176 295.031 19.928-19.928c8.871 4.367 19.647 2.772 26.85-4.414 9.109-9.11 9.109-23.932 0-33.042-9.108-9.108-23.932-9.11-33.042 0-7.252 7.253-8.71 18.119-4.415 26.848l-40.055 40.055a7.5 7.5 0 0 0 0 10.606l15.224 15.225a7.5 7.5 0 0 0 10.606.001 7.5 7.5 0 0 0 .001-10.606l-9.921-9.922 4.216-4.216 6.716 6.716a7.5 7.5 0 0 0 10.607-10.607zm24.344-46.776c3.26-3.262 8.568-3.261 11.827 0 3.262 3.261 3.262 8.566 0 11.827-3.259 3.261-8.566 3.263-11.827 0-3.262-3.261-3.262-8.566 0-11.827"/></svg>