<svg xmlns="http://www.w3.org/2000/svg" width="512" height="512"><path fill="#fd646f" d="M479.5 87.5v77h-447v-77c0-11.51 6.48-21.51 16-26.53a29.74 29.74 0 0 1 14-3.47h387c11.51 0 21.51 6.48 26.53 16a29.74 29.74 0 0 1 3.47 14"/><path fill="#fc4755" d="M152.5 57.5v56c0 5.52-4.48 10-10 10h-46c-5.52 0-10-4.48-10-10v-56zM409.5 57.5v56c0 5.52-4.48 10-10 10h-46c-5.52 0-10-4.48-10-10v-56zM48.5 60.97V164.5h-16v-77c0-11.51 6.48-21.51 16-26.53"/><g fill="#e6e6e6"><path d="M114.5 224.32h51.45a5 5 0 0 1 5 5v51.45a5 5 0 0 1-5 5H114.5a5 5 0 0 1-5-5v-51.45a5 5 0 0 1 5-5M114.5 300.77h51.45a5 5 0 0 1 5 5v51.46a5 5 0 0 1-5 5H114.5a5 5 0 0 1-5-5v-51.46a5 5 0 0 1 5-5M114.5 377.23h51.45a5 5 0 0 1 5 5v51.45a5 5 0 0 1-5 5H114.5a5 5 0 0 1-5-5v-51.45a5 5 0 0 1 5-5M190.95 224.32h52.55a5 5 0 0 1 5 5v51.45a5 5 0 0 1-5 5h-52.55a5 5 0 0 1-5-5v-51.45a5 5 0 0 1 5-5M190.95 300.77h52.55a5 5 0 0 1 5 5v51.46a5 5 0 0 1-5 5h-52.55a5 5 0 0 1-5-5v-51.46a5 5 0 0 1 5-5M190.95 377.23h52.55a5 5 0 0 1 5 5v51.45a5 5 0 0 1-5 5h-52.55a5 5 0 0 1-5-5v-51.45a5 5 0 0 1 5-5M268.5 224.32h52.55a5 5 0 0 1 5 5v51.45a5 5 0 0 1-5 5H268.5a5 5 0 0 1-5-5v-51.45a5 5 0 0 1 5-5M268.5 300.77h52.55a5 5 0 0 1 5 5v51.46a5 5 0 0 1-5 5H268.5a5 5 0 0 1-5-5v-51.46a5 5 0 0 1 5-5M268.5 377.23h52.55a5 5 0 0 1 5 5v51.45a5 5 0 0 1-5 5H268.5a5 5 0 0 1-5-5v-51.45a5 5 0 0 1 5-5M402.5 229.32v51.45a5 5 0 0 1-5 5h-51.45a5 5 0 0 1-5-5v-51.45a5 5 0 0 1 5-5h51.45a5 5 0 0 1 5 5M346.05 300.77h51.45a5 5 0 0 1 5 5v51.46a5 5 0 0 1-5 5h-51.45a5 5 0 0 1-5-5v-51.46a5 5 0 0 1 5-5M346.05 377.23h51.45a5 5 0 0 1 5 5v51.45a5 5 0 0 1-5 5h-51.45a5 5 0 0 1-5-5v-51.45a5 5 0 0 1 5-5"/></g><path fill="#f5f5f5" d="M32.5 157.5v317c0 16.57 13.43 30 30 30h387c16.57 0 30-13.43 30-30v-317z"/><path fill="#50758d" d="M152.5 17.5v80c0 5.52-4.48 10-10 10h-30c-5.52 0-10-4.48-10-10v-80c0-5.52 4.48-10 10-10h30c5.52 0 10 4.48 10 10"/><path fill="#ffac5c" d="M109.5 224.32h61.45v61.45H109.5zM341.05 224.32h61.45v61.45h-61.45zM185.95 224.32h62.55v61.45h-62.55zM109.5 300.77h61.45v61.46H109.5z"/><path fill="#e6e6e6" d="M341.05 300.77h61.45v61.46h-61.45z"/><path fill="#ffac5c" d="M185.95 300.77h62.55v61.46h-62.55z"/><path fill="#e6e6e6" d="M109.5 377.23h61.45v61.45H109.5zM341.05 377.23h61.45v61.45h-61.45zM185.95 377.23h62.55v61.45h-62.55z"/><path fill="#ffac5c" d="M263.5 224.32h62.55v61.45H263.5zM263.5 300.77h62.55v61.46H263.5z"/><path fill="#e6e6e6" d="M263.5 377.23h62.55v61.45H263.5z"/><path fill="#50758d" d="M409.5 17.5v80c0 5.52-4.48 10-10 10h-30c-5.52 0-10-4.48-10-10v-80c0-5.52 4.48-10 10-10h30c5.52 0 10 4.48 10 10"/><path fill="#e6e6e6" d="M32.5 157.5v317c0 16.57 13.43 30 30 30h11.08C59.59 501.96 49 489.72 49 475V178.72a8 8 0 0 1 7.5-5.22h423v-16z"/><path fill="#2b597f" d="M128.5 107.5h-16c-5.52 0-10-4.48-10-10v-80c0-5.52 4.48-10 10-10h6v90c0 5.52 4.48 10 10 10M385.5 107.5h-16c-5.52 0-10-4.48-10-10v-80c0-5.52 4.48-10 10-10h6v90c0 5.52 4.48 10 10 10"/><path d="M479.5 379.5a7.5 7.5 0 0 0-7.5 7.5v87.5c0 12.407-10.094 22.5-22.5 22.5h-254c-4.143 0-7.5 3.358-7.5 7.5s3.357 7.5 7.5 7.5h254c20.678 0 37.5-16.822 37.5-37.5V387a7.5 7.5 0 0 0-7.5-7.5"/><path d="M449.5 50H417V17.5C417 7.851 409.149 0 399.5 0h-30C359.851 0 352 7.851 352 17.5V50H160V17.5C160 7.851 152.149 0 142.5 0h-30C102.851 0 95 7.851 95 17.5V50H62.5C41.822 50 25 66.822 25 87.5v387c0 20.678 16.822 37.5 37.5 37.5h98c4.143 0 7.5-3.358 7.5-7.5s-3.357-7.5-7.5-7.5h-98C50.094 497 40 486.907 40 474.5V165h285.5c4.143 0 7.5-3.358 7.5-7.5s-3.357-7.5-7.5-7.5H40V87.5C40 75.093 50.094 65 62.5 65H95v32.5c0 9.649 7.851 17.5 17.5 17.5h30c9.649 0 17.5-7.851 17.5-17.5V65h192v32.5c0 9.649 7.851 17.5 17.5 17.5h30c9.649 0 17.5-7.851 17.5-17.5V65h32.5c12.406 0 22.5 10.093 22.5 22.5V150H360.5c-4.143 0-7.5 3.358-7.5 7.5s3.357 7.5 7.5 7.5H472v187c0 4.142 3.357 7.5 7.5 7.5s7.5-3.358 7.5-7.5V87.5c0-20.678-16.822-37.5-37.5-37.5M145 97.5c0 1.378-1.121 2.5-2.5 2.5h-30a2.503 2.503 0 0 1-2.5-2.5v-80c0-1.378 1.121-2.5 2.5-2.5h30c1.379 0 2.5 1.122 2.5 2.5zm257 0c0 1.378-1.121 2.5-2.5 2.5h-30a2.503 2.503 0 0 1-2.5-2.5v-80c0-1.378 1.121-2.5 2.5-2.5h30c1.379 0 2.5 1.122 2.5 2.5z"/><path d="M333.546 453.681h68.809c8.352 0 15.146-6.794 15.146-15.145V224.464c0-8.351-6.794-15.145-15.146-15.145h-292.71c-8.352 0-15.146 6.794-15.146 15.145v214.072c0 8.351 6.794 15.145 15.146 15.145H256zM109.5 300.773h61.454v61.454H109.5zm76.454 0H248.5v61.454h-62.546zM402.5 362.227h-61.454v-61.454H402.5zm-76.454 0H263.5v-61.454h62.546zm-62.546 15h62.546v61.454H263.5zm139 61.309c0 .08-.065.145-.146.145h-61.309v-61.454H402.5zm0-214.072v61.309h-61.454v-61.454h61.309c.08 0 .145.065.145.145m-76.454 61.309H263.5v-61.454h62.546zm-77.546 0h-62.546v-61.454H248.5zm-139-61.309c0-.08.065-.145.146-.145h61.309v61.454H109.5zm0 214.072v-61.309h61.454v61.454h-61.309a.145.145 0 0 1-.145-.145m76.454-61.309H248.5v61.454h-62.546z"/></svg>