<svg xmlns="http://www.w3.org/2000/svg" width="512" height="512" viewBox="0 0 511.543 511.543"><path fill="#6b96ae" d="M439.229 453.67c9.223 15.981 3.819 36.409-12.099 45.74l-.007.004c-16.099 9.437-36.804 3.934-46.093-12.251L332.027 407.2a73.2 73.2 0 0 1-8.228-21.464l-9.634-40.852 30.808-17.784 30.567 28.768a73.2 73.2 0 0 1 14.478 17.857z"/><path fill="#50758d" d="m387.105 369.099-57.63 33.26a73.206 73.206 0 0 1-5.68-16.62l-5.31-22.23-6.09-25.46 28-15 18.77 17.53 16.37 15.29a73 73 0 0 1 11.57 13.23"/><path fill="#2b597f" d="M359.165 340.579c-5.75 4.21-11.77 8.13-18.03 11.75-7.34 4.24-14.9 7.97-22.65 11.18l-6.09-25.46 28-15z"/><circle cx="243.04" cy="183.008" r="175.5" fill="#50758d"/><circle cx="243.04" cy="183.008" r="133.478" fill="#2edffc"/><path fill="#27bdf3" d="M363.055 241.439c-11.25 23.16-29.3 43.32-53.28 57.16-63.84 36.86-145.47 14.99-182.33-48.85-29.45-51-21.41-113.37 15.57-155.18-18.7 38.51-18.59 85.31 4.43 125.18 36.86 63.84 118.49 85.71 182.33 48.85 12.84-7.41 23.98-16.63 33.28-27.16"/><path d="M243.269 324.046c24.427 0 48.538-6.407 70.26-18.948 32.611-18.828 55.939-49.229 65.685-85.602s4.744-74.365-14.084-106.977-49.229-55.939-85.603-65.686c-36.373-9.746-74.365-4.745-106.977 14.084-67.32 38.868-90.468 125.259-51.6 192.579 18.828 32.612 49.229 55.939 85.603 65.685 12.145 3.255 24.47 4.865 36.716 4.865m-109.329-78.05c-16.825-29.142-21.294-63.091-12.585-95.594s29.555-59.669 58.696-76.495c19.413-11.208 40.954-16.932 62.784-16.932 10.941 0 21.959 1.439 32.811 4.347 32.503 8.709 59.669 29.555 76.495 58.696 16.825 29.142 21.294 63.091 12.585 95.594s-29.555 59.669-58.696 76.494c-29.142 16.826-63.092 21.297-95.594 12.585-32.505-8.708-59.671-29.552-76.496-58.695"/><path d="m445.725 449.921-.109-.183-8.606-13.981a7.5 7.5 0 0 0-10.318-2.455 7.5 7.5 0 0 0-2.455 10.318l8.547 13.885c7.067 12.354 2.844 28.232-9.452 35.439-6.046 3.546-13.106 4.505-19.882 2.705-6.773-1.801-12.425-6.14-15.914-12.219q-.054-.094-.11-.186l-48.877-79.756 44.997-25.975q.042.072.085.142l22.78 37.006a7.5 7.5 0 0 0 12.773-7.863l-22.725-36.918a80.6 80.6 0 0 0-15.841-19.532l-24.553-23.108c31.241-24.307 53.643-57.935 64.066-96.836 12.649-47.208 6.158-96.516-18.279-138.841-24.436-42.325-63.892-72.601-111.1-85.251C243.543-6.335 194.235.155 151.91 24.592S79.308 88.485 66.66 135.693c-12.65 47.207-6.159 96.515 18.278 138.841 16.362 28.341 39.993 51.781 68.338 67.785a7.5 7.5 0 0 0 7.375-13.063c-26.011-14.686-47.701-36.202-62.723-62.223-22.433-38.855-28.393-84.122-16.78-127.459s39.406-79.56 78.262-101.993c38.855-22.434 84.121-28.394 127.459-16.78 43.338 11.612 79.56 39.406 101.993 78.262s28.393 84.122 16.78 127.459-39.406 79.56-78.262 101.993c-41.001 23.671-90.383 28.927-135.481 14.417-3.944-1.272-8.168.899-9.437 4.843s.899 8.168 4.843 9.437a182.9 182.9 0 0 0 56.012 8.775c22.241 0 44.388-4.054 65.286-12.01l7.876 33.397a80.6 80.6 0 0 0 9.052 23.576q.049.085.101.169l48.95 79.875c5.5 9.525 14.379 16.324 25.015 19.151a41.3 41.3 0 0 0 10.623 1.397c7.206-.001 14.313-1.915 20.705-5.661 19.403-11.374 26.043-36.478 14.8-55.96m-71.179-84.531-42.002 24.246c-.938-2.819-8.841-37.271-9.798-41.045l21.148-12.207c.168.156 29.37 27.639 30.652 29.006"/></svg>