<svg xmlns="http://www.w3.org/2000/svg" width="512" height="512"><path fill="#50758d" d="M76.5 7.5v29c0 .27 0 .53-.02.79-.41 11.79-10.1 21.21-21.98 21.21h-22c-13.81 0-25-11.19-25-25 0-7.18 2.91-13.68 7.62-18.38 4.7-4.71 11.2-7.62 18.38-7.62z"/><circle cx="234.5" cy="454.5" r="50" fill="#50758d"/><circle cx="234.25" cy="454.25" r="22.111" fill="#2b597f"/><circle cx="396.5" cy="454.5" r="50" fill="#50758d"/><circle cx="396.25" cy="454.25" r="22.111" fill="#2b597f"/><path fill="#50758d" d="M510.27 59.7a7.52 7.52 0 0 0-5.77-2.7h-364c-4.14 0-7.5 3.36-7.5 7.5s3.36 7.5 7.5 7.5h99.01l4.97 71h-95.52c-4.15 0-7.5 3.36-7.5 7.5s3.35 7.5 7.5 7.5h96.57l5.04 72h-92.78c-4.14 0-7.5 3.36-7.5 7.5s3.36 7.5 7.5 7.5h93.83l4.98 71h-89.1c-4.14 0-7.5 3.36-7.5 7.5s3.36 7.5 7.5 7.5h289c3.62 0 6.72-2.58 7.37-6.13l48-259c.41-2.19-.18-4.45-1.6-6.17M374.46 316H271.63l-4.97-71h113.03zm6.33-86H265.61l-5.04-72h125.52zm-121.27-87-4.98-71h137.89l-5.23 71zm190.74 173H389.5l5.23-71h68.69zm15.94-86h-70.37l5.3-72h78.41zm16.12-87h-80.08l5.23-71h88.01z"/><path fill="#50758d" d="M510.27 59.7a7.52 7.52 0 0 0-5.77-2.7h-364c-4.14 0-7.5 3.36-7.5 7.5s3.36 7.5 7.5 7.5h99.01l1.05 15 2.87 41 1.05 15h-95.52c-4.15 0-7.5 3.36-7.5 7.5s3.35 7.5 7.5 7.5h96.57l1.05 15 2.94 42 1.05 15h-92.78c-4.14 0-7.5 3.36-7.5 7.5s3.36 7.5 7.5 7.5h93.83l1.05 15 2.88 41 1.05 15h-89.1c-4.14 0-7.5 3.36-7.5 7.5s3.36 7.5 7.5 7.5h289c3.62 0 6.72-2.58 7.37-6.13l48-259c.41-2.19-.18-4.45-1.6-6.17M255.59 87l-1.05-15h137.89l-1.1 15-3.03 41-1.1 15H259.52l-1.05-15zm6.03 86-1.05-15h125.52l-1.1 15-3.1 42-1.1 15H265.61l-1.05-15zm112.84 143H271.63l-1.05-15-2.87-41-1.05-15h113.03l-1.1 15-3.03 41zm75.8 0H389.5l1.1-15 3.03-41 1.1-15h68.69zm15.94-86h-70.37l1.1-15 3.1-42 1.1-15h78.41zm16.12-87h-80.08l1.1-15 3.03-41 1.1-15h88.01z"/><path fill="#fad207" d="M474.5 389.5c0 8.01-6.99 15-15 15h-254c-.45 0-.9-.01-1.34-.02l-1.13-.03c-4.96-.22-9.76-1.1-14.31-2.55-.76-.25-1.51-.51-2.26-.78-.52-.19-1.05-.4-1.57-.61-.31-.12-.61-.25-.92-.38q-1.17-.495-2.31-1.05c-.96-.45-1.9-.94-2.82-1.45-.29-.16-.58-.32-.86-.48-.63-.36-1.24-.74-1.85-1.12-.59-.37-1.16-.75-1.73-1.13-.82-.56-1.62-1.14-2.41-1.75-.17-.12-.34-.25-.5-.38-.34-.26-.68-.53-1.01-.81a54 54 0 0 1-4.33-3.93c-.25-.25-.49-.5-.73-.75a54 54 0 0 1-4.87-5.82c-.18-.24-.35-.48-.53-.73-.25-.35-.5-.71-.74-1.08-.11-.16-.23-.33-.33-.5-.31-.46-.61-.93-.89-1.4-.46-.73-.9-1.48-1.31-2.23-.25-.43-.48-.86-.7-1.3-.32-.59-.62-1.18-.9-1.79-.12-.24-.23-.49-.35-.73-.2-.43-.4-.87-.58-1.31-.15-.34-.3-.69-.43-1.03q-.27-.63-.51-1.26c0-.01-.01-.01-.01-.02a58.2 58.2 0 0 1-3.44-14.15l-15.19-130.2-4.14-34.23-15-138c-1-8-7.67-13.95-16-14l-23.02-.21v-.01c.02-.26.02-.51.02-.78v-29h24c23.04.15 41.92 18.13 44.53 40.97L146 57l1.72 15 8.1 71 1.71 15 8.22 72 1.71 15 8.1 71 1.71 15 2.23 19.5c1.59 13.89 12.02 24 26 24h254c7.68 0 14.41 6.42 14.96 14 .03.33.04.67.04 1"/><path fill="#2b597f" d="M76.48 37.28v.01C76.07 49.08 66.38 58.5 54.5 58.5h-22c-13.81 0-25-11.19-25-25 0-4.05.92-7.88 2.57-11.29 3.84 8.87 12.67 15.07 22.95 15.07z"/><path fill="#faa515" d="M474.5 389.5c0 8.01-6.99 15-15 15h-254c-.45 0-.9-.01-1.34-.02l-1.13-.03c-4.96-.22-9.76-1.1-14.31-2.55-.76-.25-1.51-.51-2.26-.78-.52-.19-1.05-.4-1.57-.61-.31-.12-.61-.25-.92-.38q-1.17-.495-2.31-1.05c-.96-.45-1.9-.94-2.82-1.45-.29-.16-.58-.32-.86-.48-.63-.36-1.24-.74-1.85-1.12a51 51 0 0 1-4.14-2.88c-.17-.12-.34-.25-.5-.38-.34-.26-.68-.53-1.01-.81a54 54 0 0 1-4.33-3.93c-.25-.25-.49-.5-.73-.75a54 54 0 0 1-4.87-5.82c-.18-.24-.35-.48-.53-.73-.25-.35-.5-.71-.74-1.08-.11-.16-.23-.33-.33-.5-.31-.46-.61-.93-.89-1.4-.46-.73-.9-1.48-1.31-2.23-.25-.43-.48-.86-.7-1.3-.32-.59-.62-1.18-.9-1.79-.12-.24-.23-.49-.35-.73-.2-.43-.4-.87-.58-1.31-.15-.34-.3-.69-.43-1.03q-.27-.63-.51-1.26c10.21 14.21 26.66 20.4 45.22 20.4h275.96c.03.33.04.67.04 1"/><g fill="#2b597f"><path d="M259.52 143h-15.04l-1.05-15h15.04zM260.57 158l1.05 15h-15.04l-1.05-15zM386.09 158h15.04l-1.1 15h-15.04zM403.34 128l-1.1 15H387.2l1.1-15zM254.54 72l1.05 15h-15.03l-1.05-15zM407.47 72l-1.1 15h-15.04l1.1-15zM270.58 301l1.05 15H256.6l-1.05-15zM390.6 301l-1.1 15h-15.04l1.1-15zM265.61 230h-15.04l-1.05-15h15.04zM266.66 245l1.05 15h-15.04l-1.05-15zM379.69 245h15.04l-1.1 15h-15.04zM396.93 215l-1.1 15h-15.04l1.1-15z"/></g><path d="M459.5 367h-122c-4.142 0-7.5 3.357-7.5 7.5s3.358 7.5 7.5 7.5h122c3.855 0 7.5 3.645 7.5 7.5s-3.645 7.5-7.5 7.5h-254c-24.621 0-45.351-18.883-48.22-43.939L142.093 222.86a7.501 7.501 0 0 0-14.9 1.737l15.185 130.186c3.384 29.549 25.972 52.515 54.167 56.576C184.574 421.904 177 437.33 177 454.5c0 31.706 25.794 57.5 57.5 57.5s57.5-25.794 57.5-57.5c0-16.82-7.261-31.976-18.811-42.5h84.623C346.261 422.524 339 437.68 339 454.5c0 31.706 25.794 57.5 57.5 57.5a57.47 57.47 0 0 0 43.627-20.043 7.5 7.5 0 1 0-11.377-9.775A42.48 42.48 0 0 1 396.5 497c-23.435 0-42.5-19.065-42.5-42.5s19.065-42.5 42.5-42.5 42.5 19.065 42.5 42.5l.001.316c0 .196.002.427 0 .57a7.5 7.5 0 0 0 7.502 7.613 7.5 7.5 0 0 0 7.497-7.387c.003-.215.003-.558.001-.852v-.262c0-16.82-7.261-31.976-18.811-42.5h24.31c12.196 0 22.5-10.304 22.5-22.5S471.696 367 459.5 367M277 454.5c0 23.435-19.065 42.5-42.5 42.5S192 477.935 192 454.5s19.065-42.5 42.5-42.5 42.5 19.065 42.5 42.5"/><path d="M234.25 483.861c16.328 0 29.611-13.283 29.611-29.611s-13.284-29.611-29.611-29.611-29.611 13.283-29.611 29.611 13.283 29.611 29.611 29.611m0-44.222c8.057 0 14.611 6.555 14.611 14.611s-6.555 14.611-14.611 14.611-14.611-6.555-14.611-14.611 6.554-14.611 14.611-14.611M366.889 454.5c0 16.328 13.284 29.611 29.611 29.611s29.611-13.283 29.611-29.611-13.284-29.611-29.611-29.611-29.611 13.283-29.611 29.611m44.222 0c0 8.057-6.555 14.611-14.611 14.611s-14.611-6.555-14.611-14.611 6.555-14.611 14.611-14.611 14.611 6.554 14.611 14.611M510.266 59.704A7.5 7.5 0 0 0 504.5 57H153.553l-1.071-9.382C149.399 20.644 127.073.173 100.5 0h-67C24.545 0 16.132 3.488 9.823 9.811 3.488 16.131 0 24.544 0 33.5 0 51.42 14.58 66 32.5 66h22c13.439 0 24.736-8.845 28.313-21.152L99.455 45c4.504.027 8.032 3.059 8.596 7.379l14.993 137.931a7.5 7.5 0 0 0 14.913-1.621l-15-138-.014-.12C121.463 38.722 111.622 30.071 99.569 30L84 29.858V15h16.451c18.944.123 34.905 14.878 37.127 34.32l34.47 302.032C174.114 369.397 187.87 382 205.5 382h97c4.142 0 7.5-3.357 7.5-7.5s-3.358-7.5-7.5-7.5h-97c-9.906 0-17.361-6.974-18.548-17.351L184.823 331H456.5a7.5 7.5 0 0 0 7.375-6.134l48-259a7.5 7.5 0 0 0-1.609-6.162M54.5 51h-22C22.851 51 15 43.149 15 33.5c0-4.943 1.924-9.585 5.429-13.082A18.34 18.34 0 0 1 33.5 15H69v21.5l.002.215a8 8 0 0 0-.018.315C68.712 44.863 62.35 51 54.5 51m427.824 92H402.24l5.229-71h88.014zm-16.123 87h-70.368l5.302-72h78.409zm-194.568 86-4.973-71h113.027l-5.229 71zm-6.023-86-5.043-72h125.527l-5.302 72zm-100.531-72h80.451l5.043 72h-77.277zm94.437-15-4.973-71h137.884l-5.229 71zm-20.009-71 4.973 71h-81.112l-8.103-71zm-64.499 173h76.615l4.973 71h-73.485zm275.254 71h-60.763l5.229-71h68.693z"/></svg>