<svg xmlns="http://www.w3.org/2000/svg" width="512" height="512" viewBox="0 0 512.022 512.022"><path fill="#faa515" d="m87.501 254.13-80-49.1 213.11-164.52c21.71-16.76 52.01-16.67 73.61.21l210.28 164.31v1l-80 49.44z"/><path fill="#f5f5f5" d="M434.501 83.03v162.44l-136.73 77.03-3.55-2.78c-21.6-16.88-51.9-16.97-73.61-.21l-3.43 2.65-139.68-78.03V83.03a5 5 0 0 1 5-5h347a5 5 0 0 1 5 5"/><g fill="#2b597f"><path d="M325.501 143.53h-139c-4.143 0-7.5-3.358-7.5-7.5s3.357-7.5 7.5-7.5h139a7.5 7.5 0 0 1 0 15M370.501 245.53h-229c-4.143 0-7.5-3.358-7.5-7.5s3.357-7.5 7.5-7.5h229a7.5 7.5 0 0 1 0 15M202.006 194.201h-60.451c-4.143 0-7.5-3.358-7.5-7.5s3.357-7.5 7.5-7.5h60.451a7.5 7.5 0 0 1 0 15M370.447 194.201H241.915c-4.143 0-7.5-3.358-7.5-7.5s3.357-7.5 7.5-7.5h128.532c4.143 0 7.5 3.358 7.5 7.5s-3.357 7.5-7.5 7.5"/></g><path fill="#e6e6e6" d="M434.501 236.25v14.22l-136.73 77.03-3.55-2.78c-21.6-16.88-51.9-16.97-73.61-.21l-3.43 2.65-139.68-78.03v-14.18l138.56 67.41c12.19-8 26.62-12.36 41.22-12.36 14.79 0 29.37 4.46 41.64 12.64z"/><path fill="#fad207" d="M504.501 206.03v268a10 10 0 0 1-.26 2.27c-.03.13-.06.26-.1.39-.05.18-.1.36-.16.54-.06.15-.11.3-.17.45-.03.09-.07.18-.11.27-.1.23-.2.45-.32.67-.02.05-.04.09-.07.13-.25.47-.54.92-.87 1.34q-.075.12-.18.24c-.02.03-.05.06-.08.09-.16.19-.32.38-.5.56-.15.16-.31.31-.47.46l-.01.01L375.441 401l-73.95-75.59-3.72-2.91 25.45-14.34 111.28-62.69zM217.181 322.16l-3.76 2.9-75.41 75.94-127.19 80.47c-.17-.16-.34-.32-.5-.49a9.93 9.93 0 0 1-2.82-6.95v-269l70 39.1 100.14 55.94 12.41 6.93z"/><path fill="#faa515" d="m217.181 322.16-3.76 2.9-75.41 75.94-127.19 80.47c-.17-.16-.34-.32-.5-.49a9.93 9.93 0 0 1-2.82-6.95v-.38L190.051 307zM504.501 473.65v.38a10 10 0 0 1-.26 2.27c-.03.13-.06.26-.1.39-.05.18-.1.36-.16.54-.06.15-.11.3-.17.45-.03.09-.07.18-.11.27-.1.23-.2.45-.32.67-.02.05-.04.09-.07.13-.25.47-.54.92-.87 1.34q-.075.12-.18.24c-.02.03-.05.06-.08.09-.16.19-.32.38-.5.56-.15.16-.31.31-.47.46l-.01.01-.02.02L373.991 401l-75.41-75.94-3.76-2.9 1.47-.82 1.48 1.16 25.45-14.34z"/><path fill="#fad207" d="m501.201 481.45-.02.02a9.96 9.96 0 0 1-6.68 2.56h-477c-2.42 0-4.63-.86-6.36-2.29-.11-.08-.22-.17-.32-.27L128.011 391l85.41-65.94 3.76-2.9 3.43-2.65a60 60 0 0 1 35.39-12.5c13.47-.28 27.02 3.95 38.22 12.71l2.07 1.62 1.48 1.16 3.72 2.91 83.95 65.59z"/><path d="M510.96 487.829c.686-1.142 1.025-2.471 1.041-3.799V205.917c.18-2.574-.802-5.207-2.882-6.797l-67.118-52.445V78.03a7.5 7.5 0 0 0-7.5-7.5h-89.95l-45.712-35.717c-24.324-19.007-58.377-19.105-82.809-.242L169.451 70.53h-91.95a7.5 7.5 0 0 0-7.5 7.5v69.275L2.939 199.078a7.57 7.57 0 0 0-2.938 5.953v66c0 4.143 3.357 7.5 7.5 7.5s7.5-3.357 7.5-7.5v-53.22l188.602 105.354L15.001 468.766V306.03c0-4.143-3.357-7.5-7.5-7.5s-7.5 3.357-7.5 7.5v178c-.066 4.026 3.471 7.57 7.5 7.5h497c2.608.008 5.16-1.435 6.459-3.701m-19.195-283.232-49.764 28.036v-66.921zM225.196 46.444c19.004-14.67 45.49-14.593 64.406.188l30.585 23.898H193.996zM172.005 85.53h254.996v155.554l-47.376 26.691a7.5 7.5 0 0 0-2.853 10.216c2.044 3.643 6.673 4.866 10.216 2.853l110.013-61.979v249.787l-73.729-57.61a7.5 7.5 0 0 0-9.236 11.82l68.685 53.669H29.489l195.708-151.086c19.006-14.672 45.49-14.593 64.406.188l3.612 2.822.014.011 94.016 73.461a7.5 7.5 0 0 0 9.236-11.82l-85.229-66.595 46.113-25.979a7.5 7.5 0 0 0-7.363-13.069l-51.562 29.049c-24.132-18.57-57.646-18.695-81.91-.31L85.001 239.732V85.53zM70.001 231.352l-48.923-27.329 48.923-37.769z"/><path d="M186.501 143.53h139c4.143 0 7.5-3.358 7.5-7.5s-3.357-7.5-7.5-7.5h-139c-4.143 0-7.5 3.358-7.5 7.5s3.357 7.5 7.5 7.5M141.501 245.53h229c4.143 0 7.5-3.358 7.5-7.5s-3.357-7.5-7.5-7.5h-229c-4.143 0-7.5 3.358-7.5 7.5s3.357 7.5 7.5 7.5M141.555 194.201h60.451c4.143 0 7.5-3.358 7.5-7.5s-3.357-7.5-7.5-7.5h-60.451c-4.143 0-7.5 3.358-7.5 7.5s3.357 7.5 7.5 7.5M234.415 186.701a7.5 7.5 0 0 0 7.5 7.5h128.532c4.143 0 7.5-3.358 7.5-7.5s-3.357-7.5-7.5-7.5H241.915a7.5 7.5 0 0 0-7.5 7.5"/></svg>