<svg xmlns="http://www.w3.org/2000/svg" width="512" height="512"><path fill="#ffc682" d="M344.5 201h-11v110h11c30.376 0 55-24.624 55-55s-24.624-55-55-55"/><path fill="#ffac5c" d="M399.5 256c0 30.38-24.62 55-55 55h-11v-23h11c26.44 0 48.51-18.64 53.79-43.5.79 3.71 1.21 7.56 1.21 11.5"/><path fill="#f5f5f5" d="M116.75 427.03c0 1.72-.3 3.4-.86 4.97-2.03 5.7-7.44 10-14.15 10H62.5c-2.76 0-5-2.24-5-5V308h45v30.54c0 28.46 4.55 56.73 13.48 83.75.35 1.07.58 2.15.68 3.21.03.17.04.33.05.5.03.35.04.69.04 1.03"/><path fill="#e6e6e6" d="M116.75 427.03c0 1.72-.3 3.4-.86 4.97-2.03 5.7-7.44 10-14.15 10H62.5c-2.76 0-5-2.24-5-5V310l45 .49v18.01H76c-1.1 0-2 .9-2 2v93c0 1.1.9 2 2 2h40.66c.03.17.04.33.05.5.03.35.04.69.04 1.03"/><g fill="#ffe7c9"><path d="M504.5 264.5h-70a7.5 7.5 0 0 1 0-15h70a7.5 7.5 0 0 1 0 15M456.574 376.71a7.46 7.46 0 0 1-4.483-1.493l-44.995-33.623a7.5 7.5 0 0 1 8.978-12.016l44.995 33.623a7.5 7.5 0 0 1-4.495 13.509M413.123 185.199a7.5 7.5 0 0 1-4.495-13.508l44.996-33.623a7.5 7.5 0 0 1 10.497 1.519 7.5 7.5 0 0 1-1.519 10.497l-44.996 33.623a7.47 7.47 0 0 1-4.483 1.492"/></g><path fill="#fd646f" d="M125.06 201v110H62.5c-15.19 0-28.94-6.16-38.89-16.11S7.5 271.19 7.5 256c0-30.38 24.62-55 55-55z"/><path fill="#f0ecec" d="M294 95.07v321.86l-54.91-33.92-28.93-17.87L175 343.42l-15-9.26L122.5 311V201l37.5-23.16 15-9.27z"/><path fill="#fd646f" d="M175 168.57v174.85l-15-9.26V177.84z"/><path fill="#f5f5f5" d="M294 95.07v321.86l-54.91-33.92-28.93-17.87L175 343.42l-15-9.26L122.5 311V201l27.5-16.98 10-6.18 15-9.27z"/><path fill="#fd646f" d="M175 168.57v153.69L160 313V177.84zM318.5 70c14.359 0 26 11.641 26 26v320c0 14.359-11.641 26-26 26s-26-11.641-26-26V96c0-14.359 11.641-26 26-26"/><path fill="#fc4755" d="M122.5 283.224s-21.947.067-27.45.095l-36.57.181c-16.15 0-30.77 3.84-41.35-6.11a55 55 0 0 1-8.45-10.05c2.22 10.64 7.53 20.15 14.93 27.55C33.56 304.84 47.31 311 62.5 311h62.56zM175 312.26v31.16l-15-9.26V303z"/><path fill="#e6e6e6" d="M292.5 384.84V416l-53.41-32.99-28.93-17.87L175 343.42v-31.16l9.46 5.84z"/><path fill="#fc4755" d="M344.5 385.97V416c0 14.36-11.64 26-26 26-7.18 0-13.68-2.91-18.38-7.62-4.71-4.7-7.62-11.2-7.62-18.38v-31.05c0 9.16 11.65 16.59 26.03 16.59 13.83 0 25.14-6.88 25.97-15.57"/><path fill="#e6e6e6" d="m150 296.823-14.9-9.203c-3.1-1.91-6.5-3.26-10.04-3.98q-1.27-.26-2.56-.416V311l37.5 23.16V303z"/><path d="M407 256c0-3.608-.311-7.227-.923-10.755a7.5 7.5 0 0 0-14.779 2.565c.466 2.684.702 5.439.702 8.19 0 23.639-17.36 43.295-40 46.902v-93.803c9.513 1.507 18.342 5.858 25.402 12.642a7.48 7.48 0 0 0 5.195 2.092 7.5 7.5 0 0 0 5.197-12.908c-9.875-9.488-22.377-15.358-35.795-16.962V96c0-18.472-15.028-33.5-33.5-33.5-16.992 0-31.06 12.72-33.206 29.136L120.371 193.5H62.5C28.037 193.5 0 221.538 0 256c0 30.183 21.507 55.435 50 61.242V383.5c0 4.143 3.357 7.5 7.5 7.5s7.5-3.357 7.5-7.5v-65h30v20.037c0 29.31 4.665 58.28 13.864 86.108a7.42 7.42 0 0 1-1.043 6.748 7.42 7.42 0 0 1-6.078 3.106H65v-17c0-4.143-3.357-7.5-7.5-7.5s-7.5 3.357-7.5 7.5V442c0 4.143 3.357 7.5 7.5 7.5h44.243c7.309 0 13.955-3.397 18.236-9.321 4.28-5.924 5.42-13.302 3.126-20.241A258.9 258.9 0 0 1 110 338.537V318.5h10.371l85.848 53.023a7.5 7.5 0 0 0 7.883-12.761L175 334.611V177.389l110-67.941v293.105l-41.966-25.92a7.5 7.5 0 0 0-7.883 12.761l50.142 30.97C287.44 436.78 301.508 449.5 318.5 449.5c18.472 0 33.5-15.028 33.5-33.5v-97.966c30.937-3.719 55-30.111 55-62.034m-292 47.5H62.5C36.309 303.5 15 282.191 15 256s21.309-47.5 47.5-47.5H115zm45 21.846-30-18.529V205.183l30-18.529zM337 416c0 10.201-8.299 18.5-18.5 18.5S300 426.201 300 416V96c0-10.201 8.299-18.5 18.5-18.5S337 85.799 337 96zM504.5 249.5h-70a7.5 7.5 0 0 0-7.5 7.5c0 4.143 3.357 7.5 7.5 7.5h70c4.143 0 7.5-3.357 7.5-7.5a7.5 7.5 0 0 0-7.5-7.5M461.069 363.202l-44.995-33.623c-3.317-2.48-8.018-1.799-10.497 1.519s-1.8 8.018 1.519 10.497l44.995 33.623a7.46 7.46 0 0 0 4.483 1.492 7.5 7.5 0 0 0 4.495-13.508M413.123 185.199a7.46 7.46 0 0 0 4.483-1.493l44.995-33.623a7.5 7.5 0 0 0-8.978-12.016l-44.995 33.623a7.5 7.5 0 0 0 4.495 13.509"/></svg>