<svg xmlns="http://www.w3.org/2000/svg" width="512" height="512"><path fill="#fec165" d="M162.702 348.92h-62.315c-51.22 0-92.89-41.67-92.89-92.89s41.67-92.891 92.89-92.891h62.315c8.944 0 16.195 7.251 16.195 16.195s-7.251 16.195-16.195 16.195h-62.315c-33.36 0-60.5 27.141-60.5 60.501s27.14 60.5 60.5 60.5h62.315c8.944 0 16.195 7.251 16.195 16.195s-7.251 16.195-16.195 16.195M349.298 348.92h62.315c51.22 0 92.89-41.67 92.89-92.89s-41.67-92.891-92.89-92.891h-62.315c-8.944 0-16.195 7.251-16.195 16.195s7.251 16.195 16.195 16.195h62.315c33.36 0 60.5 27.141 60.5 60.501s-27.14 60.5-60.5 60.5h-62.315c-8.944 0-16.195 7.251-16.195 16.195s7.251 16.195 16.195 16.195"/><path fill="#fdb441" d="M504.5 256.03c0 50.868-41.112 92.329-91.859 92.879 42.081-11.525 73.088-50.098 73.088-95.778 0-37.693-21.121-70.559-52.147-87.361 40.652 9.895 70.918 46.609 70.918 90.26"/><path fill="#f9f3f1" d="M355.517 159.27s-36.042-34.083-50.02-49.749c-3.976-4.456-8.271-8.616-12.944-12.333l-.499-.395c-21.105-16.61-50.914-16.653-72.031-.059l-.453.357c-4.718 3.743-9.054 7.934-13.063 12.427-13.976 15.664-50.023 49.752-50.023 49.752-32.55 28.001-53.167 69.487-53.167 115.792 0 84.325 68.359 152.684 152.684 152.684s152.684-68.359 152.684-152.684c-.001-46.304-20.618-87.791-53.168-115.792"/><path fill="#efe2dd" d="M408.682 275.061c0 83.503-67.03 151.343-150.224 152.662 71.708-12.525 126.224-75.097 126.224-150.393 0-46.31-20.621-87.791-53.166-115.789 0 0-36.044-34.085-50.018-49.758-3.978-4.448-8.276-8.606-12.944-12.325a58.273 58.273 0 0 0-29.937-12.505c17.932-5.587 38.013-2.299 53.436 9.836.17.14.33.27.5.4 4.668 3.718 8.966 7.876 12.944 12.334 13.974 15.663 50.018 49.748 50.018 49.748 32.557 27.999 53.167 69.491 53.167 115.79"/><path d="M411.613 155.643h-48.884c-.725-.649-1.448-1.3-2.186-1.937-2.344-2.22-36.254-34.383-49.453-49.175-4.44-4.975-9.107-9.419-13.869-13.208l-.531-.42c-23.939-18.84-57.37-18.865-81.31-.056l-.47.372c-4.822 3.825-9.531 8.303-13.998 13.309-13.196 14.79-47.107 46.953-49.454 49.177-.736.635-1.45 1.291-2.174 1.938h-48.897C45.033 155.643 0 200.676 0 256.03s45.033 100.387 100.387 100.387h17.683c27.912 47.143 79.286 78.827 137.93 78.827 58.643 0 110.014-31.684 137.924-78.827h17.689c22.186 0 43.23-7.122 60.856-20.595a7.496 7.496 0 0 0 1.403-10.509 7.496 7.496 0 0 0-10.508-1.403c-14.989 11.458-32.884 17.513-51.751 17.513h-9.847a159 159 0 0 0 6.751-17.397h3.096c37.494 0 67.997-30.503 67.997-67.997s-30.503-67.998-67.997-67.998H390.46a160 160 0 0 0-13.023-17.397h34.176c47.086 0 85.393 38.308 85.393 85.395a85.1 85.1 0 0 1-12.152 43.866 7.497 7.497 0 0 0 12.849 7.727A100.1 100.1 0 0 0 512 256.03c0-55.354-45.033-100.387-100.387-100.387M100.387 341.424c-47.086 0-85.393-38.307-85.393-85.393 0-47.087 38.307-85.395 85.393-85.395h34.186a161 161 0 0 0-13.038 17.397h-21.149c-37.494 0-67.997 30.504-67.997 67.998s30.503 67.997 67.997 67.997h3.096a159 159 0 0 0 6.742 17.397zm311.226-138.398c29.226 0 53.003 23.777 53.003 53.004 0 28.913-23.273 52.477-52.068 52.98a160.2 160.2 0 0 0 3.632-33.947c0-25.334-5.992-49.946-17.121-72.037zm-10.426 72.037c0 80.056-65.131 145.187-145.187 145.187s-145.187-65.13-145.187-145.187c0-4.95.252-9.942.748-14.836a7.498 7.498 0 0 0-14.917-1.515 163 163 0 0 0-.825 16.35c0 11.646 1.261 23.001 3.632 33.947-28.795-.503-52.068-24.067-52.068-52.98 0-29.227 23.777-53.004 53.003-53.004h12.519a159 159 0 0 0-8.322 19.658 7.498 7.498 0 0 0 14.169 4.902c8.367-24.187 23.105-45.844 42.619-62.632q.134-.114.262-.236c1.481-1.401 36.439-34.487 50.465-50.208 3.897-4.367 7.978-8.252 12.132-11.547l.422-.334c18.471-14.514 44.281-14.492 62.761.054l.471.373c4.1 3.261 8.143 7.116 12.017 11.457 14.028 15.722 48.982 48.804 50.463 50.205q.128.122.262.236c32.133 27.641 50.561 67.774 50.561 110.11"/><path d="M347.279 266.591c-.388.209-39.186 20.938-82.677 22.182h-17.203c-43.491-1.245-82.29-21.973-82.672-22.18a7.497 7.497 0 1 0-7.152 13.178c1.705.925 42.293 22.675 89.51 23.992q.104.003.209.003h17.415q.105 0 .209-.003c47.217-1.317 87.805-23.067 89.51-23.992a7.495 7.495 0 0 0 3.013-10.159 7.5 7.5 0 0 0-10.162-3.021M190.641 225.933c1.133.615 28.105 15.068 59.479 15.943q.104.003.209.003h11.344q.105 0 .209-.003c31.373-.875 58.346-15.328 59.479-15.943a7.494 7.494 0 0 0 3.013-10.156c-1.969-3.638-6.518-4.991-10.158-3.026-.247.133-24.998 13.332-52.65 14.134h-11.129c-27.652-.802-52.403-14.001-52.643-14.13a7.498 7.498 0 0 0-7.153 13.178M314.207 328.48c-.245.133-24.854 13.325-52.641 14.131h-11.132c-27.651-.802-52.402-14.001-52.641-14.131a7.497 7.497 0 1 0-7.152 13.178c1.133.615 28.105 15.068 59.479 15.944q.104.003.209.003h11.344q.105 0 .209-.003c31.373-.876 58.346-15.329 59.479-15.944a7.497 7.497 0 1 0-7.154-13.178"/></svg>