<svg xmlns="http://www.w3.org/2000/svg" width="512" height="512"><path fill="#d4f2f6" d="m222.875 233.13-6.647-17.347a23.74 23.74 0 0 1 3.067-22.591l1.831-1.846a31.52 31.52 0 0 0 8.838-26.566L217.289 29.514c-1.366-12.537-11.953-22.035-24.565-22.035s-23.2 9.497-24.565 22.035L155.483 164.78a31.52 31.52 0 0 0 8.838 26.566l1.831 1.846a23.74 23.74 0 0 1 3.067 22.591l-6.647 17.347a139.8 139.8 0 0 0-9.254 50.01v208.393c0 7.174 5.815 12.989 12.989 12.989h52.832c7.174 0 12.989-5.815 12.989-12.989V283.139c0-17.095-3.136-34.045-9.253-50.009"/><path fill="#a6e7f0" d="M232.129 283.135v208.401c0 7.17-5.814 12.984-12.994 12.984H199.19c7.18 0 12.994-5.814 12.994-12.984V283.135a139.8 139.8 0 0 0-9.254-50.001l-6.651-17.352a23.8 23.8 0 0 1-1.566-8.496 23.74 23.74 0 0 1 4.637-14.091l1.835-1.845a31.52 31.52 0 0 0 8.835-26.566L197.346 29.519c-.987-9.025-6.741-16.474-14.599-19.945a24.75 24.75 0 0 1 9.972-2.094c12.615 0 23.206 9.494 24.572 22.039l12.675 135.264a31.53 31.53 0 0 1-8.835 26.566l-1.835 1.845a23.74 23.74 0 0 0-4.637 14.091c0 2.902.529 5.784 1.566 8.496l6.651 17.352a139.8 139.8 0 0 1 9.253 50.002"/><path fill="#6bd9e7" d="M153.319 285.39h78.809v146.087h-78.809z"/><path fill="#2ed1e2" d="M212.185 285.39h19.944v146.087h-19.944z"/><path d="m229.859 230.454-6.647-17.348a16.2 16.2 0 0 1-1.077-5.817c0-4.694 1.617-8.354 4.954-11.382 5.802-5.264 9.325-14.119 10.247-21.798.406-3.38.376-6.802.059-10.187L224.734 28.816l-.011-.112C222.942 12.34 209.184 0 192.723 0s-30.217 12.34-32 28.705l-.011.112-12.66 135.104c-1.612 11.932 2.477 24.14 10.959 32.692l1.412 1.423a16.14 16.14 0 0 1 2.889 9.253c0 1.997-.362 3.954-1.077 5.818l-6.647 17.347a146.7 146.7 0 0 0-9.749 52.686v167.329a7.479 7.479 0 0 0 14.958 0v-11.512h63.851v52.576a5.517 5.517 0 0 1-5.51 5.51h-52.832a5.517 5.517 0 0 1-5.51-5.51v-6.298a7.48 7.48 0 0 0-14.958 0v6.298c0 11.286 9.182 20.468 20.468 20.468h52.832c11.286 0 20.468-9.182 20.468-20.468V283.139a146.7 146.7 0 0 0-9.747-52.685m-60.303 5.352 6.647-17.346a31.1 31.1 0 0 0 2.067-11.171c0-7.996-3.024-15.549-8.638-21.209-5.255-5.298-7.776-12.873-6.742-20.264q.024-.168.039-.338l12.669-135.205c.978-8.735 8.33-15.314 17.124-15.314s16.146 6.579 17.124 15.312l12.67 135.207q.017.17.039.338c1.014 7.29-1.544 14.855-6.606 20.17-5.57 5.848-8.774 13.027-8.774 21.303 0 3.833.695 7.592 2.067 11.17l6.647 17.347a131.7 131.7 0 0 1 8.649 42.104h-63.633a131.8 131.8 0 0 1 8.651-42.104m-8.758 188.192V292.869h63.851v131.129z"/><path fill="#d4f2f6" d="m349.428 233.13-6.647-17.347a23.74 23.74 0 0 1 3.067-22.591l1.831-1.846a31.52 31.52 0 0 0 8.838-26.566L343.842 29.514c-1.366-12.537-11.953-22.035-24.565-22.035s-23.2 9.497-24.565 22.035L282.036 164.78a31.52 31.52 0 0 0 8.838 26.566l1.831 1.846a23.74 23.74 0 0 1 3.067 22.591l-6.647 17.347a139.8 139.8 0 0 0-9.254 50.01v208.393c0 7.174 5.815 12.989 12.989 12.989h52.832c7.174 0 12.989-5.815 12.989-12.989V283.139a139.7 139.7 0 0 0-9.253-50.009"/><path fill="#a6e7f0" d="M358.683 283.135v208.401c0 7.17-5.814 12.984-12.994 12.984h-19.945c7.18 0 12.994-5.814 12.994-12.984V283.135a139.8 139.8 0 0 0-9.254-50.001l-6.651-17.352a23.8 23.8 0 0 1-1.566-8.496 23.74 23.74 0 0 1 4.637-14.091l1.835-1.845a31.52 31.52 0 0 0 8.835-26.566L323.899 29.519c-.987-9.025-6.741-16.474-14.599-19.945a24.75 24.75 0 0 1 9.972-2.094c12.615 0 23.206 9.494 24.572 22.039l12.675 135.264a31.53 31.53 0 0 1-8.835 26.566l-1.835 1.845a23.74 23.74 0 0 0-4.637 14.091c0 2.902.529 5.784 1.566 8.496l6.651 17.352a139.8 139.8 0 0 1 9.254 50.002"/><path fill="#6bd9e7" d="M279.872 285.39h78.809v146.087h-78.809z"/><path fill="#2ed1e2" d="M338.738 285.39h19.944v146.087h-19.944z"/><path d="m356.413 230.454-6.649-17.348a16.2 16.2 0 0 1-1.076-5.817c0-3.335.997-6.524 2.889-9.253l1.411-1.423c8.481-8.551 12.572-20.759 10.96-32.69l-12.66-135.106-.012-.112C349.495 12.34 335.738 0 319.277 0s-30.219 12.34-32.001 28.705l-.011.112-12.66 135.105c-1.613 11.931 2.477 24.14 10.959 32.691l1.411 1.423a16.14 16.14 0 0 1 2.89 9.253c0 1.995-.362 3.952-1.076 5.818l-6.648 17.347a146.7 146.7 0 0 0-9.748 52.686v208.393c0 11.286 9.182 20.468 20.469 20.468h52.832c11.286 0 20.468-9.182 20.468-20.468V283.139a146.7 146.7 0 0 0-9.749-52.685m-60.304 5.352 6.649-17.349a31.1 31.1 0 0 0 2.067-11.168c0-8.014-3.112-15.638-8.639-21.21-5.255-5.298-7.775-12.872-6.741-20.262q.024-.17.039-.339l12.67-135.207a17.206 17.206 0 0 1 17.124-15.312 17.206 17.206 0 0 1 17.124 15.317l12.669 135.202q.016.17.04.338c1.033 7.391-1.487 14.965-6.743 20.264-5.592 5.643-8.637 13.221-8.637 21.209 0 3.833.695 7.592 2.067 11.17l6.647 17.347a131.7 131.7 0 0 1 8.649 42.104h-18.789a7.479 7.479 0 0 0 0 14.958h18.898v131.129h-63.851V292.869h10.031c4.131 0 7.479-3.348 7.479-7.479s-3.348-7.479-7.479-7.479h-9.922a131.7 131.7 0 0 1 8.648-42.105m49.584 261.236h-52.832a5.517 5.517 0 0 1-5.51-5.51v-52.576h63.851v52.576a5.516 5.516 0 0 1-5.509 5.51"/></svg>