<svg xmlns="http://www.w3.org/2000/svg" width="512" height="512"><path fill="#f9f3f1" d="M448.719 357.661v26.322h-92.1v-26.322z"/><path fill="#c5d3dd" d="M86.935 50.773a7.61 7.61 0 0 1-7.609-7.609V15.108a7.61 7.61 0 0 1 7.609-7.609c11.734 0 21.246 9.512 21.246 21.246v.782c0 11.733-9.512 21.246-21.246 21.246M196.893 50.773c-11.734 0-21.246-9.512-21.246-21.246v-.782c0-11.734 9.512-21.246 21.246-21.246a7.61 7.61 0 0 1 7.609 7.609v28.056a7.61 7.61 0 0 1-7.609 7.609"/><path fill="#b6c4cf" d="M108.185 28.749v.78c0 11.728-9.518 21.246-21.246 21.246-2.03 0-3.869-.79-5.229-2.09 7.129-3.429 12.048-10.728 12.048-19.157v-.78a21.18 21.18 0 0 0-6.229-15.027 21.4 21.4 0 0 0-5.819-4.129 7.53 7.53 0 0 1 5.229-2.09c5.869 0 11.178 2.38 15.017 6.219a21.18 21.18 0 0 1 6.229 15.028M204.499 15.111v28.055a7.606 7.606 0 0 1-7.609 7.609c-3.289 0-6.409-.75-9.198-2.09a7.54 7.54 0 0 0 2.38-5.519V15.111c0-2.11-.85-4.009-2.23-5.379-.05-.05-.1-.1-.15-.14a21.2 21.2 0 0 1 9.198-2.09c2.1 0 4.009.85 5.379 2.23a7.55 7.55 0 0 1 2.23 5.379"/><path fill="#f9f3f1" d="M238.207 14.852h-34.828v28.567h32.167c.88 0 1.596.716 1.596 1.596v69.841c0 52.68-42.298 95.948-94.289 96.452-25.562.284-49.697-9.55-67.913-27.59-18.22-18.044-28.254-42.063-28.254-67.633v-71.07c0-.88.715-1.596 1.595-1.596h32.167V14.852H45.62c-15.164 0-27.502 12.337-27.502 27.502v72.381c0 68.614 55.209 124.752 123.071 125.143.245.002.485.002.729.002 32.883 0 63.841-12.786 87.237-36.047 23.572-23.437 36.553-54.6 36.553-87.749v-73.73c.001-15.165-12.336-27.502-27.501-27.502"/><path fill="#f9f3f1" d="M238.207 14.852h-34.828v28.567h32.167c.88 0 1.596.716 1.596 1.596v69.841c0 52.68-42.298 95.948-94.289 96.452-25.562.284-49.697-9.55-67.913-27.59-18.22-18.044-28.254-42.063-28.254-67.633v-71.07c0-.88.715-1.596 1.595-1.596h32.167V14.852H45.62c-15.164 0-27.502 12.337-27.502 27.502v72.381c0 68.614 55.209 124.752 123.071 125.143.245.002.485.002.729.002 32.883 0 63.841-12.786 87.237-36.047 23.572-23.437 36.553-54.6 36.553-87.749v-73.73c.001-15.165-12.336-27.502-27.501-27.502"/><path fill="#efe2dd" d="M265.708 42.357v73.727c0 33.144-12.978 64.309-36.554 87.745-23.396 23.266-54.351 36.054-87.235 36.054-.24 0-.48 0-.73-.01-2.17-.01-4.319-.08-6.459-.21 30.165-1.73 58.31-14.287 79.976-35.834 23.576-23.436 36.554-54.601 36.554-87.745V42.357c0-15.168-12.338-27.505-27.505-27.505h14.448c15.167-.001 27.505 12.337 27.505 27.505"/><path fill="#8d9ca8" d="M351.614 350.227h-22.658c-32.717 0-58.473 26.795-58.572 59.512-.089 29.491-24.154 53.445-53.687 53.352-29.65-.093-53.346-24.842-53.346-54.492V244.48c59.313-9.659 105.115-60.095 107.573-121.504.114-2.838-2.173-5.2-5.013-5.2h-31.425c-2.68 0-4.852 2.113-4.998 4.789-2.494 45.738-40.492 82.183-86.842 82.183s-84.347-36.445-86.842-82.183c-.146-2.676-2.318-4.789-4.998-4.789H19.382c-2.84 0-5.127 2.362-5.013 5.2 2.458 61.408 48.26 111.845 107.573 121.504v163.776c0 52.62 42.251 96.215 94.871 96.245 52.389.03 95.015-42.6 94.981-94.989-.006-9.883 8.056-17.876 17.939-17.876h21.881a5.005 5.005 0 0 0 5.005-5.005v-31.399a5.005 5.005 0 0 0-5.005-5.005"/><path fill="#7a8c98" d="M206.678 462.095a53 53 0 0 1-10.448 1c-29.655-.1-53.351-24.846-53.351-54.491V243.492c0-7.187 4.987-13.371 11.987-15.003 53.403-12.45 93.304-48.312 95.595-105.516.11-2.84-2.18-5.199-5.019-5.199h20.466c2.84 0 5.129 2.359 5.019 5.199-2.46 61.41-48.262 111.851-107.572 121.509v164.122c.001 26.215 18.537 48.601 43.323 53.491M309.261 391.637h20.476c-9.888 0-17.947 7.989-17.947 17.877.04 52.391-42.593 95.014-94.974 94.984-3.429 0-6.809-.19-10.138-.56 47.542-5.139 84.685-45.522 84.646-94.424-.01-9.889 8.058-17.877 17.937-17.877"/><circle cx="448.719" cy="370.822" r="48.916" fill="#8d9ca8"/><path fill="#7a8c98" d="M497.638 370.82c0 27.015-21.906 48.922-48.922 48.922-13.068 0-24.946-5.129-33.714-13.478a48.7 48.7 0 0 0 16.087 2.71c27.015 0 48.922-21.906 48.922-48.922 0-13.938-5.829-26.515-15.187-35.424 19.107 6.649 32.814 24.826 32.814 46.192"/><circle cx="448.719" cy="370.822" r="17.625" fill="#f9f3f1"/><path fill="#efe2dd" d="M466.344 370.82c0 9.738-7.889 17.627-17.627 17.627-7.209 0-13.408-4.329-16.127-10.528 1.16.24 2.35.37 3.579.37 9.738 0 17.627-7.889 17.627-17.627 0-2.52-.53-4.929-1.49-7.099 8.019 1.66 14.038 8.759 14.038 17.257"/><path d="M448.719 314.408c-23.815 0-44.216 14.841-52.479 35.755h-33.206c-1.95-4.374-6.331-7.434-11.419-7.434h-22.658c-17.791 0-34.44 7.012-46.882 19.745-12.32 12.61-19.135 29.387-19.189 47.243-.037 12.264-4.863 23.798-13.59 32.474-8.696 8.646-20.206 13.402-32.426 13.402h-.147c-25.293-.079-45.871-21.161-45.871-46.993V250.703c60.254-12.769 105.083-65.376 107.568-127.427a12.55 12.55 0 0 0-3.477-9.151 12.4 12.4 0 0 0-1.733-1.486V42.354c0-19.299-15.701-35.001-35.001-35.001h-28.373C207.19 2.957 202.386 0 196.893 0c-15.85 0-28.745 12.895-28.745 28.745v.782c0 15.85 12.895 28.745 28.745 28.745 5.494 0 10.297-2.957 12.942-7.353h19.809v60.346a12.57 12.57 0 0 0-7.642 10.893c-2.296 42.108-37.153 75.093-79.354 75.093-15.392 0-30.332-4.426-43.206-12.799a7.5 7.5 0 0 0-10.374 2.198 7.5 7.5 0 0 0 2.198 10.375c15.312 9.959 33.08 15.224 51.382 15.224 49.393 0 90.322-38.019 94.176-86.972H263.3c-3.453 55.96-45.608 102.758-101.154 111.803a7.5 7.5 0 0 0-6.294 7.401v164.12c0 34.077 27.284 61.886 60.822 61.991h.195c16.209 0 31.474-6.304 42.999-17.763 11.567-11.501 17.965-26.795 18.014-43.065.042-13.932 5.34-27.004 14.919-36.807 9.595-9.821 22.435-15.229 36.154-15.229h20.165v26.412h-19.387a25.32 25.32 0 0 0-17.967 7.414c-4.822 4.797-7.476 11.178-7.471 17.965.016 23.333-9.089 45.296-25.635 61.845-16.536 16.537-38.477 25.641-61.791 25.641h-.052c-48.179-.028-87.377-39.839-87.377-88.747V244.479a7.5 7.5 0 0 0-6.294-7.401c-55.545-9.045-97.701-55.842-101.153-111.803H48.47a94.13 94.13 0 0 0 16.062 45.583 7.498 7.498 0 1 0 12.392-8.445 79.14 79.14 0 0 1-13.632-40.254 12.55 12.55 0 0 0-9.108-11.407V50.918h19.809c2.645 4.396 7.448 7.353 12.942 7.353 15.85 0 28.745-12.895 28.745-28.745v-.782C115.68 12.895 102.785 0 86.935 0c-5.494 0-10.297 2.957-12.942 7.353H45.621c-19.299 0-35.001 15.701-35.001 35.001v71.52c-.088.086-.183.164-.269.252a12.54 12.54 0 0 0-3.475 9.149c2.483 62.051 47.311 114.658 107.567 127.427v157.553c0 57.172 45.921 103.712 102.366 103.744h.06c27.319 0 53.029-10.665 72.396-30.034 19.381-19.383 30.046-45.116 30.028-72.459a10.25 10.25 0 0 1 3.051-7.323 10.4 10.4 0 0 1 7.389-3.049h21.881c5.175 0 9.625-3.161 11.524-7.653h33.102c8.262 20.913 28.663 35.755 52.479 35.755 8.815 0 17.261-1.979 25.103-5.88a7.5 7.5 0 0 0-6.68-13.428c-5.748 2.86-11.947 4.31-18.423 4.31-22.837 0-41.417-18.579-41.417-41.417s18.58-41.417 41.417-41.417 41.418 18.58 41.418 41.417c0 5.51-1.062 10.857-3.158 15.894a7.5 7.5 0 0 0 13.847 5.759c2.859-6.871 4.308-14.157 4.308-21.654 0-31.104-25.309-56.412-56.415-56.412M195.88 43.223c-7.108-.522-12.735-6.458-12.735-13.696v-.782c0-7.239 5.627-13.174 12.735-13.696zm62.33 67.054h-13.57V45.015c0-5.014-4.079-9.094-9.094-9.094H212v-13.57h26.207c11.03 0 20.003 8.974 20.003 20.003zM87.947 15.049c7.108.521 12.735 6.457 12.735 13.696v.782c0 7.239-5.627 13.174-12.735 13.696zm-62.33 27.305c0-11.03 8.973-20.003 20.003-20.003h26.207v13.57H48.281c-5.015 0-9.094 4.08-9.094 9.094v65.263h-13.57zm338.501 334.131V365.16h28.471a56.7 56.7 0 0 0 0 11.325z"/><path d="M423.596 370.823c0 13.853 11.27 25.123 25.123 25.123s25.124-11.27 25.124-25.123-11.271-25.124-25.124-25.124c-13.854 0-25.123 11.27-25.123 25.124m35.249 0c0 5.583-4.542 10.126-10.126 10.126s-10.125-4.542-10.125-10.126 4.542-10.126 10.125-10.126c5.583-.001 10.126 4.542 10.126 10.126"/></svg>