<svg xmlns="http://www.w3.org/2000/svg" width="512" height="512" viewBox="0 0 512.139 512.139"><path fill="#d4f2f6" d="M41.494 500.977c6.516 5.42 16.163 4.67 21.761-1.694L194.108 348.54l-15.251-12.687-15.251-12.687L39.199 479.271c-5.239 6.663-4.221 16.285 2.295 21.706"/><path fill="#a6e7f0" d="M194.108 348.543 63.256 499.286c-5.597 6.359-15.247 7.112-21.767 1.695a15.65 15.65 0 0 1-5.617-11.184c5.677 1.685 12.047.05 16.19-4.664l128.424-147.934z"/><path fill="#f79595" d="m179.513 284.754 49.47 41.153c5.635 4.687 6.403 13.055 1.715 18.69l-8.416 10.117c-4.687 5.635-13.055 6.403-18.69 1.715l-49.47-41.153c-5.635-4.687-6.403-13.055-1.715-18.69l8.416-10.117c4.688-5.634 13.055-6.402 18.69-1.715"/><path fill="#f47c7c" d="m230.7 344.601-8.416 10.111c-4.694 5.637-13.06 6.4-18.697 1.715l-15.909-13.231c5.637 4.584 13.923 3.782 18.587-1.806l8.416-10.121c4.684-5.637 3.912-14.003-1.715-18.688l16.019 13.321c5.637 4.696 6.4 13.062 1.715 18.699"/><path fill="#ee6161" d="M196.514 118.111a152 152 0 0 0-3.026 23.666c-.981 19.782 3.501 39.188 6.286 58.647 3.438 24.021 5.276 50.215-3.392 73.274-.642 1.707-9.173 17.458-9.173 17.458l35.018 29.13s13.935-11.256 15.496-12.198c21.096-12.72 47.187-15.68 71.433-16.672 19.641-.804 39.538.071 58.812-4.494a152 152 0 0 0 22.72-7.283c72.1-29.599 104.921-116.575 74.172-187.642a138 138 0 0 0-13.31-23.928c-7.073-10.177-15.703-19.489-25.403-27.604 0 0-21.379-15.606-32.673-20.708a138 138 0 0 0-25.951-8.733c-75.478-17.3-155.027 30.805-171.009 107.087"/><path fill="#e94444" d="M390.691 279.642a153 153 0 0 1-22.72 7.282c-19.279 4.564-39.17 3.691-58.821 4.494-24.244.993-50.334 3.952-71.429 16.671-1.565.943-15.498 12.197-15.498 12.197 0-.01-5.627-4.684-12.368-10.282 6.199-6.389 18.717-19.209 19.891-19.911 21.095-12.719 47.185-15.678 71.429-16.671 19.64-.803 39.541.07 58.811-4.494a153 153 0 0 0 22.72-7.282c69.413-28.497 102.424-110.178 77.337-179.641 1.745 3.26 3.35 6.6 4.815 9.991 30.755 71.068-2.075 158.045-74.167 187.646"/><path d="M471.742 89.021c-4.19-9.684-9.374-18.939-15.592-27.469-15.398-21.121-36.162-37.214-59.782-48.449-8.684-4.131-17.801-7.24-27.171-9.388C353.697.162 337.739-.849 321.77.711a7.5 7.5 0 0 0-6.736 8.193c.402 4.122 4.065 7.146 8.193 6.736 14.358-1.4 28.698-.494 42.619 2.697 40.498 9.281 75.623 38.492 92.13 76.641 14.272 32.986 14.494 71.476.608 105.602-13.571 33.352-38.695 58.967-70.744 72.124-25.362 10.412-52.335 10.15-78.991 11.221-24.176.989-51.992 3.871-75 17.744-1.086.655-4.961 3.653-11.544 8.929l-2.681-2.231-22.9-19.05c3.989-7.433 6.232-11.79 6.679-12.978 9.453-25.148 7.224-53.024 3.797-76.976-.668-4.668-1.439-9.375-2.185-13.927-3.615-22.07-5.787-43.703-1.16-65.786 9.279-44.286 42.811-81.454 87.512-96.999a7.5 7.5 0 0 0-4.928-14.168c-23.867 8.3-45.413 22.364-62.31 40.673-17.631 19.104-29.718 42.417-34.956 67.418a160 160 0 0 0-3.176 24.833c-.788 15.909 1.755 31.437 4.215 46.453.733 4.478 1.491 9.109 2.138 13.627 3.153 22.034 5.268 47.509-2.946 69.461-.422.937-2.232 4.397-4.456 8.571l-.638-.531c-8.806-7.325-21.927-6.121-29.252 2.685l-8.416 10.117c-3.549 4.265-5.224 9.657-4.717 15.182s3.136 10.522 7.4 14.07l3.838 3.193-119.861 150.4c-7.804 9.928-6.313 24.031 3.396 32.107 4.353 3.621 9.596 5.396 14.811 5.396 6.417 0 12.791-2.689 17.411-7.94l78.527-90.463a7.5 7.5 0 0 0-.748-10.58 7.5 7.5 0 0 0-10.58.747l-78.494 90.426a8.11 8.11 0 0 1-11.334.882c-3.419-2.844-3.943-7.81-1.227-11.266L164.697 333.83l18.727 15.578-24.533 28.261a7.5 7.5 0 1 0 11.328 9.833l24.739-28.499 3.837 3.192a20.68 20.68 0 0 0 13.267 4.794c5.962 0 11.883-2.547 15.985-7.479l8.416-10.117a20.63 20.63 0 0 0 4.717-15.182c-.495-5.396-3.025-10.277-7.114-13.807 3.705-2.951 6.785-5.366 7.632-5.953 20.09-12.07 45.526-14.63 67.765-15.54 4.559-.187 9.248-.284 13.783-.377 15.215-.314 30.948-.64 46.45-4.312a160 160 0 0 0 23.841-7.643c35.805-14.699 63.841-43.233 78.941-80.346 15.394-37.833 15.126-80.555-.736-117.212M224.932 339.8l-8.416 10.117a5.78 5.78 0 0 1-8.127.746l-49.471-41.153a5.73 5.73 0 0 1-2.056-3.908 5.74 5.74 0 0 1 1.311-4.219l8.416-10.117a5.76 5.76 0 0 1 4.441-2.078c1.302 0 2.61.437 3.686 1.332l49.471 41.153a5.73 5.73 0 0 1 2.056 3.908 5.74 5.74 0 0 1-1.311 4.219"/></svg>