<svg xmlns="http://www.w3.org/2000/svg" width="512" height="512"><path fill="#fec165" d="M343.87 139.661H168.13l-38.938 57.471a46.54 46.54 0 0 0-8.01 26.105v248.906c0 17.873 14.489 32.361 32.361 32.361h204.915c17.873 0 32.361-14.489 32.361-32.361V223.237c0-9.307-2.79-18.4-8.011-26.105z"/><path fill="#fdb441" d="M390.82 223.236v248.911c0 17.871-14.492 32.353-32.363 32.353h-20.13c17.871 0 32.363-14.492 32.363-32.363V223.226c0-9.305-2.799-18.39-8.016-26.097l-38.94-57.47h20.139l38.93 57.47a46.5 46.5 0 0 1 8.017 26.107"/><path fill="#8d9ca8" d="M360.018 99.981H151.982a8.46 8.46 0 0 1-8.46-8.46V15.956a8.46 8.46 0 0 1 8.46-8.46h208.035a8.46 8.46 0 0 1 8.46 8.46V91.52a8.46 8.46 0 0 1-8.459 8.461"/><path fill="#7a8c98" d="M368.482 15.954v75.571c0 4.668-3.788 8.456-8.466 8.456h-19.99c4.678 0 8.466-3.788 8.466-8.456V15.954c0-4.668-3.788-8.456-8.466-8.456h19.99c4.678 0 8.466 3.788 8.466 8.456"/><path fill="#fece85" d="M168.14 99.981h175.72v39.68H168.14z"/><path fill="#fdb441" d="M323.735 99.981h20.125v39.679h-20.125z"/><path fill="#f9f3f1" d="M121.181 255.418h269.637v166.895H121.181z"/><path fill="#efe2dd" d="M370.69 255.418h20.128v166.895H370.69z"/><path d="m389.014 192.928-9.365-13.822a7.496 7.496 0 0 0-12.411 8.409l9.365 13.823a38.9 38.9 0 0 1 6.72 21.9v24.685H128.678v-24.685a38.9 38.9 0 0 1 6.72-21.9l36.708-54.18h167.788l7.809 11.525a7.496 7.496 0 1 0 12.412-8.409l-8.759-12.928v-29.869h8.661c8.798 0 15.956-7.158 15.956-15.956V15.956C375.974 7.158 368.816 0 360.018 0H151.982c-8.798 0-15.956 7.158-15.956 15.956V91.52c0 8.798 7.158 15.956 15.956 15.956h8.662v29.869l-37.658 55.582a53.84 53.84 0 0 0-9.301 30.309v248.906c0 21.977 17.88 39.857 39.857 39.857h204.915c21.977 0 39.857-17.88 39.857-39.857V223.237a53.83 53.83 0 0 0-9.3-30.309m-52.65-60.764H175.636v-24.688h160.728zm-184.382-39.68a.965.965 0 0 1-.964-.964V15.956c0-.531.432-.964.964-.964h208.035c.531 0 .964.432.964.964V91.52a.965.965 0 0 1-.964.964H168.14zm231.34 322.333H218.926a7.496 7.496 0 1 0 0 14.992h164.397v42.333c0 13.711-11.154 24.865-24.865 24.865H153.543c-13.711 0-24.865-11.154-24.865-24.865v-42.333h56.406a7.496 7.496 0 1 0 0-14.992h-56.406V262.914h254.645z"/><path d="M185.083 75.245a7.496 7.496 0 0 0 7.496-7.496V39.728a7.496 7.496 0 1 0-14.992 0v28.021a7.497 7.497 0 0 0 7.496 7.496M220.542 75.245a7.496 7.496 0 0 0 7.496-7.496V39.728a7.496 7.496 0 1 0-14.992 0v28.021a7.496 7.496 0 0 0 7.496 7.496M256 75.245a7.496 7.496 0 0 0 7.496-7.496V39.728a7.496 7.496 0 1 0-14.992 0v28.021A7.497 7.497 0 0 0 256 75.245M291.458 75.245a7.496 7.496 0 0 0 7.496-7.496V39.728a7.496 7.496 0 1 0-14.992 0v28.021a7.497 7.497 0 0 0 7.496 7.496M326.917 75.245a7.496 7.496 0 0 0 7.496-7.496V39.728a7.496 7.496 0 1 0-14.992 0v28.021a7.496 7.496 0 0 0 7.496 7.496"/></svg>