<svg xmlns="http://www.w3.org/2000/svg" width="512" height="512"><path fill="#c5d3dd" d="M219.499 130.948h73.003v38.754h-73.003z"/><path fill="#b6c4cf" d="M272.479 130.948h20.022v38.754h-20.022z"/><path fill="#8d9ca8" d="M299.481 225.248h-86.962c-7.828 0-14.174-6.346-14.174-14.174v-27.197c0-7.828 6.346-14.174 14.174-14.174h86.962c7.828 0 14.174 6.346 14.174 14.174v27.197c0 7.828-6.346 14.174-14.174 14.174"/><path fill="#7a8c98" d="M313.653 183.879v27.189c0 7.829-6.347 14.176-14.175 14.176h-20.022c7.829 0 14.175-6.347 14.175-14.176v-27.189c0-7.829-6.347-14.175-14.175-14.175h20.022c7.828 0 14.175 6.346 14.175 14.175"/><path fill="#f9f3f1" d="M299.546 225.248h-87.093l-32.903 32.994a117.59 117.59 0 0 0-34.325 83.03v147.962c0 8.433 6.836 15.269 15.269 15.269h191.012c8.433 0 15.269-6.836 15.269-15.269V341.271a117.59 117.59 0 0 0-34.325-83.03z"/><path fill="#efe2dd" d="M366.771 341.27v147.961c0 8.439-6.827 15.277-15.267 15.277h-20.022c8.439 0 15.267-6.838 15.267-15.277V341.27c0-31.124-15.156-60.986-37.14-83.03l-32.906-32.996h22.845l32.906 32.996a117.62 117.62 0 0 1 34.317 83.03"/><path fill="#ee6161" d="M306.201 130.948H205.799c-8.576 0-15.528-6.952-15.528-15.528s6.952-15.528 15.528-15.528h100.403c8.576 0 15.528 6.952 15.528 15.528-.001 8.576-6.953 15.528-15.529 15.528"/><path fill="#e94444" d="M321.732 115.425c0 4.285-1.742 8.169-4.545 10.982a15.52 15.52 0 0 1-10.982 4.545h-22.134a15.52 15.52 0 0 0 15.527-15.527c0-8.579-6.948-15.537-15.527-15.537h22.134c8.569 0 15.527 6.957 15.527 15.537"/><path fill="#f79595" d="M263.832 7.497h-15.663a7.415 7.415 0 0 0-7.36 6.517l-10.471 85.878h51.325l-10.471-85.878a7.415 7.415 0 0 0-7.36-6.517"/><path fill="#f47c7c" d="M281.658 99.888H264.66l-10.471-85.873a7.41 7.41 0 0 0-6.667-6.487c.22-.02.43-.03.651-.03h15.657a7.42 7.42 0 0 1 7.368 6.517z"/><path fill="#ee6161" d="M145.225 341.718h221.55v98.148h-221.55z"/><path fill="#e94444" d="M346.749 341.718h20.026v98.148h-20.026z"/><path d="M352.968 271.445a7.498 7.498 0 0 0-12.441 8.371 109.64 109.64 0 0 1 18.511 54.405H152.951c1.677-26.697 12.853-51.578 31.908-70.685l30.706-30.79h80.869l22.035 22.095a7.497 7.497 0 1 0 10.618-10.588l-16.158-16.202c5.005-3.973 8.224-10.104 8.224-16.976v-27.197c0-11.776-9.443-21.381-21.154-21.658v-23.773h6.203c12.696 0 23.025-10.329 23.025-23.025s-10.329-23.026-23.025-23.026h-17.901l-9.667-79.287C277.723 5.635 271.359 0 263.832 0h-15.663c-7.528 0-13.891 5.635-14.802 13.107L223.7 92.395h-17.901c-12.696 0-23.025 10.329-23.025 23.026s10.329 23.025 23.025 23.025h6.203v23.773c-11.711.277-21.154 9.882-21.154 21.658v27.197c0 6.872 3.219 13.003 8.224 16.976l-24.83 24.898c-23.546 23.611-36.514 54.979-36.514 88.324v147.963c0 12.553 10.213 22.766 22.766 22.766h41.646a7.497 7.497 0 1 0 0-14.994h-41.646c-4.285 0-7.772-3.487-7.772-7.772v-41.87h206.555v41.87c0 4.285-3.487 7.772-7.772 7.772H237.184a7.497 7.497 0 1 0 0 14.994h114.322c12.553 0 22.766-10.213 22.766-22.766V341.271c0-24.967-7.367-49.112-21.304-69.826M248.242 14.995h15.516l9.437 77.4h-34.39zm-42.444 108.456c-4.428 0-8.03-3.602-8.03-8.03s3.602-8.031 8.03-8.031h100.403c4.428 0 8.03 3.603 8.03 8.031s-3.602 8.03-8.03 8.03zm79.206 14.995v23.76h-58.008v-23.76zm-79.162 45.43a6.685 6.685 0 0 1 6.677-6.677h86.962a6.684 6.684 0 0 1 6.677 6.677v27.197a6.684 6.684 0 0 1-6.677 6.677h-86.962a6.684 6.684 0 0 1-6.677-6.677zm-53.12 248.493v-83.153h206.555v83.153z"/></svg>