<svg xmlns="http://www.w3.org/2000/svg" width="512" height="512" viewBox="0 0 511.945 511.945"><path fill="#f9f3f1" d="M154.99 7.5h241.738c10.07 0 18.234 8.163 18.234 18.234v460.478c0 10.07-8.164 18.234-18.234 18.234H115.217c-10.07 0-18.234-8.163-18.234-18.234V63.825z"/><path fill="#efe2dd" d="M414.957 25.735V486.21c0 10.067-8.154 18.231-18.231 18.231h-20.035c10.077 0 18.231-8.164 18.231-18.231V25.735c0-10.067-8.154-18.231-18.231-18.231h20.035c10.077 0 18.231 8.164 18.231 18.231"/><path fill="#cdbfba" d="m154.99 7.5-.135 49.431a7.05 7.05 0 0 1-7.068 7.029l-50.804-.136z"/><path d="M396.729 0h-35.305c-4.143 0-7.5 3.358-7.5 7.5s3.357 7.5 7.5 7.5h35.305c5.918 0 10.733 4.815 10.733 10.733v460.479c0 5.918-4.815 10.733-10.733 10.733H186.823a7.5 7.5 0 0 0 0 15h209.905c14.189 0 25.733-11.544 25.733-25.733V25.733C422.462 11.544 410.918 0 396.729 0M151.519 496.945h-36.301c-5.918 0-10.734-4.815-10.734-10.733V71.345l43.285.116h.039c8.003 0 14.527-6.501 14.549-14.509L162.47 15h164.393c4.143 0 7.5-3.358 7.5-7.5s-3.357-7.5-7.5-7.5H154.99c-1.833 0-3.902.835-5.225 2.119L91.758 58.444c-1.411 1.37-2.275 3.41-2.275 5.381v422.387c0 14.189 11.544 25.733 25.734 25.733h36.301a7.5 7.5 0 0 0 .001-15m-9.176-466.71 5.099-4.951-.085 31.176-31.934-.085z"/><path d="M248.313 78.655c0-15.315-12.975-27.776-28.923-27.776h-20.757a7.5 7.5 0 0 0-7.5 7.5v78.017a7.5 7.5 0 0 0 15 0v-28.052l29.05 33.007a7.48 7.48 0 0 0 5.633 2.545 7.5 7.5 0 0 0 5.627-12.455l-22.342-25.385c13.715-2.167 24.212-13.627 24.212-27.401M219.39 91.431c-3.026 0-8.557.024-13.131.048-.024-4.493-.049-9.888-.049-12.824 0-2.475-.015-8.081-.028-12.776h13.208c7.547 0 13.923 5.851 13.923 12.776s-6.375 12.776-13.923 12.776M252.122 179.069a7.46 7.46 0 0 0 4.509 1.512 7.49 7.49 0 0 0 5.994-2.985l16.584-21.994 17.471 23.021a7.49 7.49 0 0 0 5.98 2.966 7.5 7.5 0 0 0 5.968-12.034l-20.035-26.4 16.848-22.344a7.5 7.5 0 0 0-11.977-9.031l-14.295 18.959-14.402-18.977a7.501 7.501 0 0 0-11.949 9.068l16.966 22.356-19.137 25.381a7.5 7.5 0 0 0 1.475 10.502M360.169 210.175h-219.05a7.5 7.5 0 0 0 0 15h219.05c4.143 0 7.5-3.358 7.5-7.5s-3.357-7.5-7.5-7.5M141.119 267.45h219.05c4.143 0 7.5-3.358 7.5-7.5s-3.357-7.5-7.5-7.5h-219.05a7.5 7.5 0 0 0 0 15M141.119 309.725H282.02c4.143 0 7.5-3.358 7.5-7.5s-3.357-7.5-7.5-7.5H141.119a7.5 7.5 0 0 0 0 15M290.758 441.904c2.654 5.54 8.13 8.491 15.003 8.106 4.816-.271 8.515-2.784 11.498-5.208a89 89 0 0 0 10.393-9.959c4.515 7.927 14.209 12.992 24.215 12.313 8.376-.564 16.738-4.679 24.182-11.9a7.5 7.5 0 1 0-10.443-10.766c-3.39 3.288-8.7 7.293-14.746 7.701-4.61.299-9.223-2.118-10.533-5.526-1.298-3.376-.142-8.049 1.383-13.362a7.5 7.5 0 0 0-13.96-5.336 74.5 74.5 0 0 1-19.947 25.196c-1.975 1.604-2.684 1.845-2.885 1.873a5 5 0 0 1-.768-.001c-.415-1.669-.349-7.184 3.982-18.028 3.823-9.573 8.428-17.084 9.531-18.323a7.5 7.5 0 0 0-11.143-10.042l-.004.004a375.7 375.7 0 0 1-45.068 42.383 1543 1543 0 0 1 36.634-76.806 7.501 7.501 0 0 0-13.356-6.83 1557 1557 0 0 0-48.114 103.259 7.5 7.5 0 0 0 11.139 9.111 390.5 390.5 0 0 0 41.822-32.942c-1.075 6.208-.676 11.2 1.185 15.083"/></svg>