<svg xmlns="http://www.w3.org/2000/svg" width="512" height="512"><path fill="#f9f3f1" d="M256 410.607h-69.777l36.921 45.595h65.712l36.921-45.595z"/><path fill="#efe2dd" d="m325.779 410.61-36.925 45.596h-20.352l36.925-45.596z"/><path fill="#f9f3f1" d="M170.73 54.179V14.634a7.133 7.133 0 0 1 7.133-7.133h156.276a7.133 7.133 0 0 1 7.133 7.133v39.545z"/><path fill="#efe2dd" d="M341.271 14.638v39.545h-20.353V14.638c0-3.94-3.2-7.141-7.131-7.141h20.353c3.941 0 7.131 3.201 7.131 7.141"/><path fill="#7acaa6" d="M256 54.179h-85.27l15.493 356.428h139.554l15.494-356.428z"/><path fill="#57be92" d="M341.271 54.183 325.779 410.61h-20.352l15.492-356.427z"/><path fill="#8d9ca8" d="M282.429 504.499h-52.858a6.427 6.427 0 0 1-6.427-6.427v-41.87h65.712v41.87a6.427 6.427 0 0 1-6.427 6.427"/><path fill="#7a8c98" d="M288.854 456.206v41.866c0 3.551-2.88 6.431-6.421 6.431H262.07c3.55 0 6.431-2.88 6.431-6.431v-41.866z"/><path fill="#ee6161" d="M256 156.076c-17.18 0-31.107-13.927-31.107-31.107S238.82 93.862 256 93.862s31.107 13.927 31.107 31.107S273.18 156.076 256 156.076"/><path fill="#e94444" d="M287.104 124.973c0 8.591-3.48 16.362-9.111 21.993s-13.402 9.111-21.993 9.111c-12.492 0-23.263-7.371-28.204-17.992a30.8 30.8 0 0 0 9.011 1.33c8.591 0 16.372-3.48 21.993-9.111a31.02 31.02 0 0 0 9.111-22.003c0-4.681-1.04-9.131-2.9-13.112a31 31 0 0 1 12.982 7.781 31.02 31.02 0 0 1 9.111 22.003"/><path d="M327.49 371.181c-4.113-.172-7.64 3.03-7.819 7.168l-1.075 24.757h-125.19l-12.165-279.859a7.501 7.501 0 0 0-14.988.651l12.477 287.034c.073 1.683.565 2.98 1.591 4.29.026.034 35.323 43.636 35.323 43.636v39.213c0 7.68 6.248 13.928 13.928 13.928h52.857c7.681 0 13.929-6.248 13.929-13.928v-39.213l34.074-42.08c1.413-1.746 2.74-3.542 2.84-5.846L334.66 379a7.5 7.5 0 0 0-7.17-7.819m-46.135 125.817h-50.71v-33.295h50.71zm3.924-48.297h-58.557l-24.773-30.593h108.102zM334.138 0H177.862c-8.069 0-14.634 6.565-14.634 14.634l1.498 74.177c.182 4.14 3.693 7.348 7.82 7.168a7.5 7.5 0 0 0 7.168-7.819l-1.152-26.479h154.873l-12.252 281.835a7.502 7.502 0 0 0 14.988.652l12.598-329.533C348.771 6.565 342.207 0 334.138 0m-.368 46.678H178.23V15.002h155.54z"/><path d="M294.608 124.969c0-21.288-17.32-38.608-38.608-38.608s-38.608 17.319-38.608 38.608 17.32 38.608 38.608 38.608 38.608-17.319 38.608-38.608m-62.213 0c0-13.016 10.589-23.605 23.606-23.605s23.606 10.589 23.606 23.605-10.589 23.606-23.606 23.606-23.606-10.589-23.606-23.606"/></svg>