<svg xmlns="http://www.w3.org/2000/svg" width="512" height="512" viewBox="0 0 511.936 511.936"><path fill="#d4f2f6" d="M433.088 43.837v424.26c0 20.07-16.27 36.34-36.33 36.34h-281.58c-20.06 0-36.33-16.27-36.33-36.34V43.837c0-20.07 16.27-36.34 36.33-36.34h281.58c20.06-.001 36.33 16.269 36.33 36.34"/><path fill="#a6e7f0" d="M433.088 43.837v424.26c0 20.07-16.27 36.34-36.33 36.34h-20c20.06 0 36.33-16.27 36.33-36.34V43.837c0-20.07-16.27-36.34-36.33-36.34h20c20.06-.001 36.33 16.269 36.33 36.34"/><path fill="#8d9ca8" d="m255.968 7.501-67.121-.005 5.792 23.761a13.97 13.97 0 0 0 13.57 10.66h95.518c6.44 0 12.045-4.403 13.57-10.66l5.792-23.761z"/><path fill="#7a8c98" d="m323.088 7.496-5.79 23.76a13.97 13.97 0 0 1-13.57 10.66h-22.13c6.44 0 12.04-4.4 13.57-10.66l5.79-23.76z"/><path fill="#8d9ca8" d="M433.088 435.067v33.03c0 20.07-16.27 36.34-36.33 36.34h-281.58c-20.06 0-36.33-16.27-36.33-36.34v-33.03z"/><path fill="#7a8c98" d="M433.088 435.067v33.03c0 20.07-16.27 36.34-36.33 36.34h-20c20.06 0 36.33-16.27 36.33-36.34v-33.03z"/><circle cx="255.968" cy="238.492" r="93.491" fill="#f9f3f1"/><path fill="#efe2dd" d="M349.458 238.496c0 51.63-41.86 93.49-93.49 93.49-15.71 0-30.51-3.87-43.51-10.73a93.3 93.3 0 0 0 25.44 3.51c51.64 0 93.5-41.86 93.5-93.49 0-35.95-20.29-67.15-50.04-82.79 39.29 11.06 68.1 47.17 68.1 90.01"/><path fill="#ee6161" d="M304.476 220.443h-22.455a8.004 8.004 0 0 1-8.004-8.003v-22.456a8.003 8.003 0 0 0-8.003-8.003h-20.091a8.003 8.003 0 0 0-8.003 8.003v22.456a8.003 8.003 0 0 1-8.003 8.003H207.46a8.003 8.003 0 0 0-8.003 8.003v20.091a8.003 8.003 0 0 0 8.003 8.003h22.455a8.003 8.003 0 0 1 8.003 8.003V287a8.003 8.003 0 0 0 8.003 8.003h20.091a8.003 8.003 0 0 0 8.003-8.003v-22.455a8.003 8.003 0 0 1 8.004-8.003h22.455a8.003 8.003 0 0 0 8.003-8.003v-20.091a8 8 0 0 0-8.001-8.005"/><path fill="#e94444" d="M261.888 256.536h20.13c-4.42 0-8 3.59-8 8.01v22.45c0 4.42-3.58 8.01-8 8.01h-20.1c4.4-.02 7.96-3.6 7.96-8.01v-22.45c0-4.42 3.59-8.01 8.01-8.01M282.018 220.446h-20.13c-4.42 0-8.01-3.59-8.01-8.01v-22.45c0-4.41-3.56-7.99-7.96-8.01h20.1c4.42 0 8 3.59 8 8.01v22.45c0 4.421 3.58 8.01 8 8.01M312.478 228.446v20.09c0 4.42-3.58 8-8 8h-20.14c4.42 0 8.01-3.58 8.01-8v-20.09c0-4.42-3.59-8-8.01-8h20.14c4.42 0 8 3.58 8 8"/><circle cx="255.968" cy="469.751" r="10"/><path d="M396.756 0h-19.998c-4.143 0-7.5 3.358-7.5 7.5s3.357 7.5 7.5 7.5h19.998c15.898 0 28.832 12.934 28.832 28.833v383.734H86.348V43.833C86.348 27.934 99.282 15 115.18 15h67.776l4.396 18.033a21.415 21.415 0 0 0 20.856 16.383h95.52a21.415 21.415 0 0 0 20.857-16.384L328.98 15h13.299c4.143 0 7.5-3.358 7.5-7.5s-3.357-7.5-7.5-7.5H115.18C91.011 0 71.348 19.663 71.348 43.833v424.268a43.55 43.55 0 0 0 5.463 21.162c7.477 13.506 21.87 22.674 38.367 22.674h281.58c16.498 0 30.89-9.168 38.367-22.674a43.55 43.55 0 0 0 5.463-21.162V43.833C440.588 19.663 420.925 0 396.756 0M313.54 15l-3.528 14.48a6.45 6.45 0 0 1-6.284 4.936h-95.52a6.45 6.45 0 0 1-6.283-4.936L198.396 15zm112.048 453.096a28.67 28.67 0 0 1-4.345 15.2c-5.094 8.178-14.163 13.636-24.487 13.636H115.18c-10.324 0-19.394-5.458-24.487-13.636a28.67 28.67 0 0 1-4.345-15.2v-25.53h339.24z"/><path d="M200.979 323.212c16.368 10.644 35.383 16.27 54.989 16.27 55.687 0 100.99-45.304 100.99-100.99 0-55.687-45.304-100.991-100.99-100.991s-100.99 45.304-100.99 100.991c0 21.329 6.569 41.722 18.999 58.974a7.5 7.5 0 1 0 12.17-8.767c-10.578-14.683-16.169-32.044-16.169-50.206 0-47.416 38.575-85.991 85.99-85.991s85.99 38.575 85.99 85.991-38.575 85.99-85.99 85.99c-16.696 0-32.883-4.788-46.812-13.845a7.5 7.5 0 0 0-10.376 2.199 7.5 7.5 0 0 0 2.199 10.375"/><path d="M266.014 174.48h-20.092c-8.548 0-15.503 6.955-15.503 15.503v22.456a.504.504 0 0 1-.504.503H207.46c-8.549 0-15.504 6.955-15.504 15.504v20.091c0 8.549 6.955 15.503 15.504 15.503h22.455c.278 0 .504.226.504.503V287c0 8.549 6.955 15.503 15.503 15.503h20.092c8.548 0 15.503-6.955 15.503-15.503v-22.456c0-.277.226-.503.504-.503h22.455c8.549 0 15.504-6.955 15.504-15.503v-20.091c0-8.549-6.955-15.504-15.504-15.504h-22.455a.504.504 0 0 1-.504-.503v-22.456c0-8.549-6.955-15.504-15.503-15.504m16.007 53.462h22.455c.278 0 .504.226.504.504v20.091a.504.504 0 0 1-.504.503h-22.455c-8.549 0-15.504 6.955-15.504 15.503V287a.504.504 0 0 1-.503.503h-20.092a.504.504 0 0 1-.503-.503v-22.456c0-8.549-6.955-15.503-15.504-15.503H207.46a.504.504 0 0 1-.504-.503v-20.091c0-.278.226-.504.504-.504h22.455c8.549 0 15.504-6.955 15.504-15.503v-22.456c0-.278.226-.503.503-.503h20.092c.277 0 .503.226.503.503v22.456c0 8.548 6.955 15.502 15.504 15.502"/></svg>