<svg xmlns="http://www.w3.org/2000/svg" width="512" height="512"><circle cx="233.751" cy="145.372" r="34.161" fill="#6bd9e7"/><path fill="#2ed1e2" d="M257.905 169.528c-13.343 13.343-34.965 13.343-48.308 0a34.5 34.5 0 0 1-6.035-8.16c12.911 6.847 29.281 4.832 40.148-6.035s12.881-27.236 6.035-40.148a34.5 34.5 0 0 1 8.16 6.035c13.342 13.342 13.342 34.965 0 48.308"/><path fill="#8d9ca8" d="M447.419 52.249c0-25.268-20.952-45.643-46.431-44.699-23.435.868-42.439 20.129-43.017 43.573a44.6 44.6 0 0 0 3.612 18.779c1.771 4.114 1.88 8.752.086 12.855l-58.1 132.899H406.07l17.548-117.403c.626-4.185 2.899-7.921 6.257-10.495 10.664-8.174 17.544-21.035 17.544-35.509"/><path fill="#7a8c98" d="M447.417 52.252c0 14.475-6.877 27.337-17.543 35.507-3.358 2.576-5.634 6.305-6.255 10.496L406.066 215.66h-19.317l17.543-122.389c.622-4.18 2.897-7.919 6.255-10.496 10.666-8.17 17.543-21.031 17.543-35.507 0-21.091-14.586-35.296-34.213-38.875a43.6 43.6 0 0 1 7.107-.842c25.482-.941 46.433 19.429 46.433 44.701"/><path fill="#b6c4cf" d="M466.826 215.656H45.174c-7.033 0-12.351 6.364-11.102 13.285L57.42 358.33a128.03 128.03 0 0 0 125.994 105.293h145.172A128.03 128.03 0 0 0 454.58 358.33l23.348-129.389c1.249-6.92-4.069-13.285-11.102-13.285"/><path fill="#9facba" d="M477.933 228.937 454.581 358.33a128.3 128.3 0 0 1-14.855 40.823 128 128 0 0 1-27.657 33.516 128.04 128.04 0 0 1-83.482 30.951h-20.349a128 128 0 0 0 83.471-30.951 127.8 127.8 0 0 0 27.657-33.516 128 128 0 0 0 14.866-40.823l23.341-129.392c1.251-6.912-4.066-13.281-11.102-13.281h20.36c7.026-.001 12.342 6.369 11.102 13.28"/><path fill="#ee6161" d="M89.231 130.959c-11.188-11.188-11.188-29.328 0-40.517l41.893-41.893c11.188-11.188 29.328-11.188 40.517 0 11.188 11.188 11.188 29.328 0 40.517l-41.893 41.893c-11.188 11.189-29.328 11.189-40.517 0"/><path fill="#e94444" d="M180.035 68.802c0 7.338-2.797 14.666-8.39 20.259l-41.892 41.902c-11.187 11.187-29.332 11.187-40.519 0a28.4 28.4 0 0 1-5.764-8.27c10.576 4.882 23.527 2.957 32.249-5.764l41.892-41.892c5.594-5.594 8.39-12.932 8.39-20.259 0-4.1-.872-8.2-2.626-11.999a28.7 28.7 0 0 1 8.27 5.774 28.55 28.55 0 0 1 8.39 20.249"/><path fill="#7acaa6" d="m150.695 110.013-40.517-40.517 20.947-20.947c11.188-11.188 29.328-11.188 40.517 0 11.188 11.188 11.188 29.328 0 40.517z"/><path fill="#57be92" d="M180.035 68.802c0 7.338-2.797 14.666-8.39 20.259l-20.951 20.951-14.024-14.024 20.941-20.951c5.594-5.594 8.39-12.932 8.39-20.259 0-4.1-.872-8.19-2.626-11.999a.3.3 0 0 1 .08.04c.411.19.832.391 1.233.611.776.427 1.549.852 2.286 1.343 1.293.79 2.454 1.777 3.599 2.767.371.321.722.662 1.073 1.012a28.55 28.55 0 0 1 8.389 20.25"/><path fill="#8d9ca8" d="M313.005 504.481H198.994c-13.296 0-24.075-10.779-24.075-24.075v-16.898h162.162v16.898c0 13.297-10.779 24.075-24.076 24.075"/><path fill="#7a8c98" d="M337.084 463.505v16.899c0 13.302-10.779 24.081-24.081 24.081h-21.934c13.302 0 24.081-10.779 24.081-24.081v-16.899z"/><path d="M481.252 214.883a18.75 18.75 0 0 0-14.426-6.745h-52.03l9.226-61.729a7.519 7.519 0 0 0-14.872-2.222l-9.558 63.951h-84.53l53.497-122.369c2.575-5.89 2.55-12.757-.069-18.839-2.125-4.937-3.136-10.193-3.002-15.622.483-19.599 16.199-35.519 35.78-36.245 10.215-.383 19.895 3.309 27.239 10.387 7.348 7.081 11.395 16.599 11.395 26.8 0 11.663-5.321 22.431-14.599 29.542-4.97 3.81-8.209 9.261-9.119 15.351l-1.887 12.627a7.517 7.517 0 0 0 6.324 8.547 7.51 7.51 0 0 0 8.547-6.324l1.887-12.627c.331-2.213 1.536-4.215 3.395-5.64 13.021-9.98 20.488-25.097 20.488-41.476 0-14.323-5.681-27.687-15.997-37.627C428.628 4.685 415.057-.49 400.71.037c-27.502 1.019-49.576 23.377-50.254 50.901-.188 7.613 1.233 14.994 4.223 21.938.994 2.308 1.03 4.748.103 6.87l-56.13 128.392H45.174a18.75 18.75 0 0 0-14.426 6.745 18.75 18.75 0 0 0-4.076 15.395L50.02 359.666a135.8 135.8 0 0 0 29.096 62.505 7.518 7.518 0 0 0 11.57-9.604 120.75 120.75 0 0 1-25.869-55.572L41.47 227.607c-.272-1.507.395-2.578.816-3.082s1.357-1.35 2.888-1.35h421.652c1.531 0 2.466.846 2.888 1.35a3.71 3.71 0 0 1 .815 3.082l-23.348 129.389c-4.897 27.138-19.108 51.987-40.017 69.968a120.57 120.57 0 0 1-73.342 29.026H178.306c-22.605-.946-44.307-8.156-63.051-21.01a7.52 7.52 0 0 0-8.504 12.401c18.227 12.501 38.942 20.252 60.65 22.813v10.214c0 17.421 14.173 31.594 31.594 31.594h114.011c17.421 0 31.594-14.173 31.594-31.594v-10.222a135.6 135.6 0 0 0 72.369-31.82c23.518-20.225 39.503-48.174 45.011-78.699l23.349-129.388a18.76 18.76 0 0 0-4.077-15.396m-151.69 265.523c0 9.13-7.427 16.557-16.557 16.557H198.994c-9.13 0-16.557-7.428-16.557-16.557v-9.283c.326.002 146.8.01 147.125.007zM109.49 146.852c9.262 0 18.524-3.525 25.575-10.576 0 0 29.051-29.062 33.102-33.121 9.979-10.001 19.385-19.128 19.385-34.346 0-13.97-8.285-26.766-20.895-32.647-13.011-6.068-28.522-4.024-39.277 5.599-.083.074-43.465 43.366-43.465 43.366-14.102 14.102-14.102 37.048 0 51.15 7.051 7.05 16.313 10.575 25.575 10.575m26.951-92.987c4.118-4.117 9.191-6.179 14.942-6.179 5.324 0 11.232 2.469 14.942 6.179 8.239 8.239 8.239 21.645 0 29.884l-15.63 15.63-29.885-29.883zM94.548 95.758l15.63-15.63 29.885 29.885-15.63 15.63c-8.239 8.239-21.646 8.239-29.884 0a21 21 0 0 1-6.189-14.942 20.98 20.98 0 0 1 6.188-14.943"/><path d="M233.752 187.033c10.672 0 21.347-4.064 29.472-12.188 7.872-7.872 12.208-18.339 12.208-29.472s-4.336-21.6-12.208-29.472c-16.251-16.251-42.693-16.251-58.944 0-7.872 7.872-12.208 18.339-12.208 29.472s4.336 21.599 12.208 29.472c8.126 8.126 18.797 12.188 29.472 12.188m-18.84-60.5c5.194-5.194 12.017-7.791 18.839-7.791s13.645 2.597 18.839 7.791c5.032 5.032 7.804 11.723 7.804 18.84s-2.771 13.807-7.804 18.839c-10.389 10.388-27.291 10.388-37.679 0-5.032-5.032-7.804-11.723-7.804-18.839.001-7.117 2.773-13.808 7.805-18.84"/><path d="M234.457 156.71c1.468 1.468 3.392 2.202 5.316 2.202s3.848-.734 5.316-2.202a7.52 7.52 0 0 0 0-10.632l-12.044-12.044a7.518 7.518 0 1 0-10.632 10.632z"/></svg>