<svg xmlns="http://www.w3.org/2000/svg" width="512" height="512"><path fill="#8d9ca8" d="M334.24 38.302H221.176c-8.508 0-15.405-6.897-15.405-15.405s6.897-15.405 15.405-15.405h97.2c12.888 0 23.337 10.448 23.337 23.337a7.473 7.473 0 0 1-7.473 7.473"/><path fill="#7a8c98" d="M341.713 30.829a7.47 7.47 0 0 1-7.473 7.473h-22.477a7.47 7.47 0 0 0 7.473-7.473c0-12.887-10.449-23.336-23.336-23.336h22.477c12.886 0 23.336 10.449 23.336 23.336"/><path fill="#8d9ca8" d="M308.19 128.339H203.81v-25.18a8.523 8.523 0 0 1 8.523-8.523h87.335a8.523 8.523 0 0 1 8.523 8.523v25.18z"/><path fill="#7a8c98" d="M308.187 103.156v25.184h-19.98v-25.184a8.52 8.52 0 0 0-8.521-8.521h19.98a8.52 8.52 0 0 1 8.521 8.521"/><path fill="#d4f2f6" d="M308.19 128.339H203.81l-35.198 27.387a39.04 39.04 0 0 0-14.779 30.588v281.828c0 20.084 16.282 36.366 36.366 36.366h131.602c20.084 0 36.366-16.282 36.366-36.366V186.314a39.04 39.04 0 0 0-14.779-30.588z"/><path fill="#a6e7f0" d="M358.166 186.311v281.833c0 20.08-16.283 36.363-36.363 36.363h-19.98c20.08 0 36.363-16.283 36.363-36.363V186.311c0-11.918-5.669-19.512-15-26.925l-34.979-31.046h19.98l35.204 27.382a39.07 39.07 0 0 1 14.775 30.589"/><path fill="#c5d3dd" d="M237.064 38.302h37.872v56.335h-37.872z"/><path fill="#b6c4cf" d="M256 38.302h18.936v56.335H256z"/><path fill="#6bd9e7" d="M153.833 230.948h204.334v170.951H153.833z"/><path fill="#2ed1e2" d="M338.186 230.948h19.98v170.951h-19.98z"/><path fill="#ee6161" d="M304.459 298.393h-22.432a7.995 7.995 0 0 1-7.995-7.995v-22.433a7.995 7.995 0 0 0-7.995-7.995h-20.071a7.995 7.995 0 0 0-7.995 7.995v22.433a7.995 7.995 0 0 1-7.995 7.995h-22.433a7.995 7.995 0 0 0-7.995 7.995v20.071a7.995 7.995 0 0 0 7.995 7.995h22.433a7.995 7.995 0 0 1 7.995 7.995v22.432a7.995 7.995 0 0 0 7.995 7.995h20.071a7.995 7.995 0 0 0 7.995-7.995V342.45a7.995 7.995 0 0 1 7.995-7.995h22.432a7.995 7.995 0 0 0 7.995-7.995v-20.071a7.996 7.996 0 0 0-7.995-7.996"/><path fill="#e94444" d="M261.914 334.45h20.109c-4.415 0-7.992 3.586-7.992 8.002v22.427c0 4.415-3.576 8.002-7.992 8.002h-20.08c4.396-.02 7.952-3.596 7.952-8.002v-22.427c.001-4.416 3.587-8.002 8.003-8.002M282.023 298.397h-20.109a8.006 8.006 0 0 1-8.002-8.002v-22.427c0-4.406-3.556-7.982-7.952-8.002h20.08c4.416 0 7.992 3.586 7.992 8.002v22.427c0 4.416 3.576 8.002 7.991 8.002M312.453 306.389v20.07a7.99 7.99 0 0 1-7.992 7.992h-20.12c4.416 0 8.002-3.576 8.002-7.992v-20.07c0-4.415-3.586-7.992-8.002-7.992h20.12a7.99 7.99 0 0 1 7.992 7.992"/><path d="M192.054 306.389v20.07c0 8.54 6.948 15.488 15.488 15.488h22.432c.278 0 .503.226.503.503v22.432c0 8.54 6.948 15.488 15.488 15.488h20.07c8.54 0 15.488-6.948 15.488-15.488V342.45c0-.278.226-.503.503-.503h22.432c8.54 0 15.488-6.948 15.488-15.488v-20.07c0-8.54-6.948-15.488-15.488-15.488h-22.432a.503.503 0 0 1-.503-.503v-22.432c0-8.54-6.948-15.488-15.488-15.488h-20.07c-8.54 0-15.488 6.948-15.488 15.488v22.432a.503.503 0 0 1-.503.503h-22.432c-8.541 0-15.488 6.948-15.488 15.488m53.408-15.991v-22.432c0-.278.225-.503.503-.503h20.07c.278 0 .503.226.503.503v22.432c0 8.54 6.948 15.488 15.488 15.488h22.432c.277 0 .503.225.503.503v20.07a.503.503 0 0 1-.503.503h-22.432c-8.54 0-15.488 6.948-15.488 15.488v22.432a.503.503 0 0 1-.503.503h-20.07a.503.503 0 0 1-.503-.503V342.45c0-8.54-6.948-15.488-15.488-15.488h-22.432a.503.503 0 0 1-.503-.503v-20.07c0-.278.226-.503.503-.503h22.432c8.54 0 15.488-6.948 15.488-15.488"/><path d="m347.989 149.813-32.306-25.137V103.16c0-8.831-7.184-16.015-16.015-16.015h-17.239v-41.35h51.812c8.251 0 14.965-6.713 14.965-14.965-.001-17-13.831-30.83-30.83-30.83h-16.99c-4.138 0-7.492 3.354-7.492 7.492s3.354 7.492 7.492 7.492h16.99c8.737 0 15.844 7.108 15.864 15.825H221.176c-4.363 0-7.912-3.55-7.912-7.912s3.55-7.912 7.912-7.912h44.825c4.138 0 7.492-3.354 7.492-7.492S270.139.001 266.001.001h-44.825c-12.625 0-22.897 10.272-22.897 22.897s10.272 22.897 22.897 22.897h8.396v41.35h-17.239c-8.831 0-16.015 7.184-16.015 16.015v21.516l-32.362 25.18c-11.195 8.881-17.615 22.169-17.615 36.458v281.828c0 24.183 19.675 43.858 43.858 43.858h131.602c24.183 0 43.858-19.675 43.858-43.858V186.314c0-14.289-6.42-27.577-17.67-36.501M244.557 45.794h22.887v41.35h-22.887zm-33.255 57.366c0-.568.462-1.03 1.03-1.03h87.335c.568 0 1.03.462 1.03 1.03v17.688h-89.395zm139.373 364.982c0 15.921-12.953 28.873-28.873 28.873H190.199c-15.921 0-28.873-12.953-28.873-28.873v-58.75h189.349zm0-244.686H220.589c-4.138 0-7.492 3.354-7.492 7.492s3.354 7.492 7.492 7.492h130.085v155.967H161.325V238.44h24.759c4.138 0 7.492-3.354 7.492-7.492s-3.354-7.492-7.492-7.492h-24.759v-37.141c0-9.688 4.353-18.697 11.887-24.675l33.169-25.808h99.237l33.113 25.764c7.59 6.021 11.943 15.03 11.943 24.718v37.142z"/></svg>