<svg xmlns="http://www.w3.org/2000/svg" width="512" height="512"><path fill="#d4f2f6" d="M370.148 504.496H141.852c-19.384 0-35.098-15.714-35.098-35.098V168.143h298.492v301.254c0 19.385-15.714 35.099-35.098 35.099"/><path fill="#a6e7f0" d="M405.241 168.144v301.25c0 19.391-15.714 35.105-35.095 35.105h-19.98c19.381 0 35.095-15.714 35.095-35.105v-301.25z"/><path fill="#f79595" d="M418.806 168.143H93.194c-7.282 0-13.185-5.903-13.185-13.185v-25.127c0-7.282 5.903-13.185 13.185-13.185h325.612c7.282 0 13.185 5.903 13.185 13.185v25.127c0 7.282-5.903 13.185-13.185 13.185"/><path fill="#f47c7c" d="M431.995 129.832v25.125c0 7.283-5.904 13.187-13.187 13.187h-19.98c7.283 0 13.187-5.904 13.187-13.187v-25.125c0-7.283-5.904-13.187-13.187-13.187h19.98c7.283 0 13.187 5.904 13.187 13.187"/><path fill="#ee6161" d="M413.872 116.646H98.128V39.952c0-17.922 14.529-32.451 32.451-32.451h250.842c17.922 0 32.451 14.529 32.451 32.451z"/><path fill="#e94444" d="M413.873 39.951v76.694h-19.98V39.951c0-17.922-14.526-32.448-32.448-32.448h19.98c17.922.001 32.448 14.526 32.448 32.448"/><path fill="#fece85" d="M405.241 225.797v243.597c0 19.391-15.714 35.105-35.095 35.105H141.854c-19.381 0-35.095-15.714-35.095-35.105V225.797z"/><path fill="#fdb441" d="M405.241 225.797v243.597c0 19.391-15.714 35.105-35.095 35.105h-19.98c19.381 0 35.095-15.714 35.095-35.105V225.797z"/><path fill="#ee6161" d="M221.896 450.767H106.754V277.134h115.142c5.675 0 10.276 4.601 10.276 10.276v153.081c0 5.675-4.601 10.276-10.276 10.276"/><path fill="#e94444" d="M232.174 287.415v153.078c0 5.674-4.605 10.27-10.28 10.27h-19.98c5.674 0 10.28-4.596 10.28-10.27V287.415c0-5.685-4.605-10.28-10.28-10.28h19.98c5.674 0 10.28 4.596 10.28 10.28"/><path d="M338.884 288.558h23.513c4.143 0 7.501-3.358 7.501-7.501s-3.358-7.501-7.501-7.501h-23.513c-4.143 0-7.501 3.358-7.501 7.501s3.357 7.501 7.501 7.501M338.884 343.821h23.513c4.143 0 7.501-3.358 7.501-7.501s-3.358-7.501-7.501-7.501h-23.513a7.5 7.5 0 0 0-7.501 7.501 7.5 7.5 0 0 0 7.501 7.501M338.884 399.082h23.513c4.143 0 7.501-3.358 7.501-7.501s-3.358-7.501-7.501-7.501h-23.513c-4.143 0-7.501 3.358-7.501 7.501s3.357 7.501 7.501 7.501M338.884 454.344h23.513c4.143 0 7.501-3.358 7.501-7.501s-3.358-7.501-7.501-7.501h-23.513c-4.143 0-7.501 3.358-7.501 7.501s3.357 7.501 7.501 7.501"/><path d="M421.372 109.322v-69.37C421.372 17.922 403.45 0 381.421 0H346.79c-4.143 0-7.501 3.358-7.501 7.501s3.358 7.501 7.501 7.501h34.631c13.757 0 24.95 11.193 24.95 24.95v69.193H105.629V39.952c0-13.758 11.193-24.95 24.95-24.95h181.386c4.143 0 7.501-3.358 7.501-7.501S316.108 0 311.965 0H130.579C108.55 0 90.628 17.922 90.628 39.952v69.37c-10.197 1.27-18.119 9.974-18.119 20.509v25.127c0 11.406 9.28 20.685 20.686 20.685h6.059v293.754c0 14.681 7.465 27.651 18.798 35.314a42.34 42.34 0 0 0 23.802 7.288h228.293c9.211 0 17.74-2.949 24.716-7.939 10.814-7.733 17.884-20.384 17.884-34.663V175.644h6.059c11.407 0 20.686-9.279 20.686-20.685v-25.127c0-10.536-7.922-19.24-18.12-20.51m-23.627 108.973H193.902c-4.143 0-7.501 3.358-7.501 7.501s3.358 7.501 7.501 7.501h203.839v236.096c0 9.037-4.363 17.073-11.092 22.112a27.45 27.45 0 0 1-16.501 5.489H141.852a27.45 27.45 0 0 1-15.419-4.719c-7.34-4.966-12.174-13.37-12.174-22.882v-11.126h107.637c9.802 0 17.776-7.975 17.776-17.776V287.41c0-9.802-7.975-17.776-17.776-17.776H114.26v-36.336h44.615c4.143 0 7.501-3.358 7.501-7.501s-3.358-7.501-7.501-7.501h-44.619v-42.651h283.49v42.65zM114.26 443.266V284.635h107.637a2.78 2.78 0 0 1 2.775 2.775v153.081a2.78 2.78 0 0 1-2.775 2.775zm310.23-288.307a5.69 5.69 0 0 1-5.684 5.684H93.194a5.69 5.69 0 0 1-5.684-5.684v-25.127a5.69 5.69 0 0 1 5.684-5.684h325.611a5.69 5.69 0 0 1 5.684 5.684v25.127z"/></svg>