<svg xmlns="http://www.w3.org/2000/svg" width="512" height="512"><circle cx="358.505" cy="409.407" r="91.22" fill="#f9f3f1"/><path fill="#efe2dd" d="M423.002 473.909c-35.622 35.622-93.375 35.622-128.997 0a85 85 0 0 1-3.703-3.944c35.622 25.353 85.367 22.05 117.306-9.889 34.321-34.321 35.572-89.201 3.743-125.023a91 91 0 0 1 11.651 9.849c35.633 35.623 35.633 93.385 0 129.007"/><path fill="#fec165" d="M247.834 48.235c17.849-33.758 59.684-46.656 93.442-28.807l126.402 66.831c33.758 17.848 46.656 59.684 28.807 93.442s-59.684 46.656-93.442 28.807l-126.402-66.831c-33.758-17.848-46.655-59.684-28.807-93.442"/><path fill="#fdb441" d="M496.489 179.702a54 54 0 0 1-1.882 3.303c7.477-30.117-6.156-62.567-34.822-77.721l-126.394-66.83c-32.64-17.256-72.816-5.775-91.563 25.503a69.2 69.2 0 0 1 6.005-15.724c17.846-33.761 59.684-46.652 93.445-28.806l126.405 66.831c33.751 17.846 46.652 59.684 28.806 93.444"/><path fill="#6bd9e7" d="m339.842 175.093 64.635-122.25 63.201 33.415c33.758 17.848 46.656 59.684 28.807 93.442s-59.684 46.656-93.442 28.807z"/><path fill="#2ed1e2" d="M496.489 179.702c-.33.631-.681 1.251-1.031 1.872-.27.48-.561.961-.851 1.431 7.477-30.117-6.156-62.567-34.822-77.721l-64.889-34.311 9.579-18.126 63.207 33.41c33.752 17.847 46.653 59.685 28.807 93.445"/><path fill="#7acaa6" d="M225.3 193.701c27.235 26.766 27.615 70.543.849 97.778L125.926 393.456c-26.766 27.235-70.543 27.615-97.778.849s-27.615-70.543-.849-97.778L127.522 194.55c26.766-27.235 70.543-27.615 97.778-.849"/><path fill="#57be92" d="M28.146 394.308a54 54 0 0 1-2.626-2.749c26.716 15.786 61.71 12.015 84.437-11.112l100.22-101.97c25.878-26.333 26.381-68.114 1.779-95.032a69.2 69.2 0 0 1 13.347 10.256c27.238 26.765 27.612 70.542.847 97.78l-100.223 101.98c-26.763 27.228-70.543 27.611-97.781.847"/><path fill="#ee6161" d="m77.411 245.538 98.627 96.93-50.111 50.988c-26.766 27.235-70.543 27.615-97.778.849S.534 323.762 27.3 296.527z"/><path fill="#e94444" d="M28.146 394.308a65 65 0 0 1-1.498-1.524c-.383-.396-.76-.812-1.128-1.225 26.716 15.786 61.71 12.015 84.437-11.112l51.453-52.349 14.625 14.367-50.108 50.996c-26.763 27.228-70.543 27.611-97.781.847"/><path d="M471.188 79.622 344.786 12.791c-18.099-9.569-38.844-11.518-58.407-5.486-19.565 6.032-35.61 19.321-45.18 37.421s-11.519 38.843-5.487 58.408 19.321 35.61 37.421 45.18l126.403 66.831a78 78 0 0 0 4.31 2.111 76.1 76.1 0 0 0 31.388 6.767c25.796 0 50.824-13.045 65.166-36.075a77 77 0 0 0 2.723-4.738c19.754-37.364 5.428-83.833-31.935-103.588M280.15 135.041c-14.555-7.695-25.241-20.597-30.092-36.33s-3.283-32.413 4.412-46.967 20.598-25.241 36.331-30.091a61.8 61.8 0 0 1 18.234-2.766c9.906 0 19.727 2.415 28.732 7.177l56.565 29.907-57.617 108.977zm209.7 41.151c-15.886 30.045-53.253 41.563-83.297 25.68l-56.565-29.907 57.617-108.976 56.564 29.906c30.045 15.885 41.566 53.252 25.681 83.297M180.05 166.432c-4.102-.17-7.641 3.045-7.813 7.188a7.507 7.507 0 0 0 7.187 7.813 61.5 61.5 0 0 1 40.614 17.622c11.742 11.54 18.287 26.961 18.43 43.425s-6.133 31.996-17.674 43.738l-44.849 45.634-87.918-86.406 44.849-45.635a61.5 61.5 0 0 1 16.376-11.937 7.508 7.508 0 0 0-6.718-13.427 76.5 76.5 0 0 0-20.367 14.84L21.945 291.265C.653 312.93-5.118 344.144 4.513 370.988c3.769 10.504 9.896 20.339 18.373 28.671a78 78 0 0 0 2.761 2.586c17.343 15.473 41.345 22.7 64.217 18.261 15.725-3.052 30.134-10.306 41.417-21.787l100.221-101.977c14.352-14.602 22.157-33.919 21.98-54.392-.178-20.473-8.317-39.651-22.92-54.002-13.574-13.341-31.513-21.124-50.512-21.916m-59.478 221.762c-11.451 11.652-27.168 18.289-43.424 18.43-16.43.111-31.996-6.134-43.738-17.674-24.239-23.822-24.578-62.923-.755-87.163l44.848-45.634 87.918 86.406zM288.694 339.597c-20.344 20.344-30.783 48.481-28.641 77.196a7.5 7.5 0 0 0 8.044 6.927 7.507 7.507 0 0 0 6.928-8.044 83.68 83.68 0 0 1 24.286-65.463c32.639-32.639 85.749-32.639 118.388 0s32.64 85.749 0 118.389c-15.811 15.811-36.833 24.519-59.194 24.519-22.36 0-43.382-8.708-59.193-24.519-6.527-6.527-11.884-13.992-15.923-22.187a7.507 7.507 0 0 0-13.467 6.637c4.766 9.671 11.082 18.475 18.773 26.166 18.647 18.647 43.44 28.916 69.81 28.916s51.164-10.269 69.812-28.916c38.493-38.493 38.493-101.127 0-139.621-38.497-38.493-101.129-38.493-139.623 0"/><path d="M391.237 449.646a7.508 7.508 0 0 0 5.309-12.815l-65.465-65.465a7.508 7.508 0 0 0-10.617 10.616l65.465 65.465a7.49 7.49 0 0 0 5.308 2.199"/></svg>