<svg xmlns="http://www.w3.org/2000/svg" width="512" height="512"><path fill="#d4f2f6" d="M482.934 490.843H29.066c-11.91 0-21.564-9.655-21.564-21.564V87.527h496.997v381.751c0 11.91-9.655 21.565-21.565 21.565"/><path fill="#6bd9e7" d="M504.499 87.527H7.501V42.722c0-11.91 9.655-21.564 21.564-21.564h453.868c11.91 0 21.564 9.655 21.564 21.564v44.805z"/><path fill="#a6e7f0" d="M504.493 87.524v381.752c0 11.913-9.652 21.565-21.555 21.565h-19.314c11.912 0 21.565-9.652 21.565-21.565V87.524z"/><path fill="#2ed1e2" d="M504.493 42.724v44.8h-19.304v-44.8c0-11.913-9.652-21.565-21.565-21.565h19.314c11.904 0 21.555 9.652 21.555 21.565"/><path fill="#f9f3f1" d="M285.65 250.648v-23.044h-59.302v23.044c0 3.782-2.393 7.132-5.953 8.408-14.65 5.251-25.133 19.251-25.133 35.708v129.443c0 9.965 8.078 18.043 18.043 18.043h85.389c9.965 0 18.043-8.078 18.043-18.043V294.764c0-16.457-10.483-30.457-25.133-35.708-3.561-1.276-5.954-4.626-5.954-8.408"/><path fill="#efe2dd" d="M316.738 294.766v129.441c0 9.964-8.08 18.044-18.044 18.044h-19.303c9.964 0 18.044-8.08 18.044-18.044V294.766c0-16.459-10.484-17.164-25.137-22.419-3.559-1.273-5.95-4.625-5.95-8.405v-36.338h19.303v23.046c0 3.78 2.39 7.132 5.95 8.405 14.653 5.254 25.137 19.252 25.137 35.711"/><path fill="#8d9ca8" d="M292.262 227.603h-72.525a5.174 5.174 0 0 1-5.174-5.174v-42.761a5.174 5.174 0 0 1 5.174-5.174h72.525a5.174 5.174 0 0 1 5.174 5.174v42.761a5.175 5.175 0 0 1-5.174 5.174"/><path fill="#7a8c98" d="M297.435 179.666v42.761a5.174 5.174 0 0 1-5.175 5.175h-18.114a5.174 5.174 0 0 0 5.175-5.175v-42.761a5.173 5.173 0 0 0-5.175-5.169h18.114a5.173 5.173 0 0 1 5.175 5.169"/><path fill="#b6c4cf" d="M272.36 129.036c-.596-4.738-4.644-8.281-9.42-8.281h-13.882c-4.775 0-8.824 3.542-9.42 8.281-2.908 23.123-12.68 45.458-12.68 45.458h58.081c.001 0-9.771-22.335-12.679-45.458"/><path fill="#9facba" d="M285.04 174.497h-17.035s-9.769-22.338-12.68-45.459c-.595-4.742-1.209-8.281-5.983-8.281h13.599c4.774 0 8.824 3.539 9.419 8.281 2.905 23.121 12.68 45.459 12.68 45.459"/><path fill="#6bd9e7" d="M195.262 308.686h121.474v86.779H195.262z"/><path fill="#2ed1e2" d="M297.435 308.686h19.301v86.779h-19.301z"/><path d="M504.498 344.964a7.5 7.5 0 0 0 7.502-7.502V42.722c0-16.027-13.039-29.066-29.066-29.066H149.66a7.502 7.502 0 0 0 0 15.004h333.274c7.754 0 14.063 6.308 14.063 14.063v37.303H15.003V42.722c0-7.754 6.309-14.063 14.063-14.063h85.683a7.502 7.502 0 0 0 0-15.004H29.066C13.039 13.656 0 26.695 0 42.722v426.557c0 16.027 13.039 29.066 29.066 29.066h453.868c16.027 0 29.066-13.039 29.066-29.066V372.62a7.502 7.502 0 0 0-15.004 0v96.658c0 7.754-6.308 14.063-14.063 14.063H29.066c-7.754 0-14.063-6.308-14.063-14.063V95.028h481.994v242.435a7.5 7.5 0 0 0 7.501 7.501"/><circle cx="56.287" cy="54.342" r="10.002"/><circle cx="99.347" cy="54.342" r="10.002"/><circle cx="142.406" cy="54.342" r="10.002" transform="rotate(-9.25 142.529 54.493)"/><path d="M147.058 267.857a7.5 7.5 0 0 0-10.587-.671l-20.238 17.825a7.504 7.504 0 0 0 .508 11.668l20.238 14.914a7.46 7.46 0 0 0 4.444 1.463 7.501 7.501 0 0 0 4.456-13.541l-12.748-9.395 13.256-11.676a7.5 7.5 0 0 0 .671-10.587M364.533 310.004a7.49 7.49 0 0 0 6.045 3.052 7.47 7.47 0 0 0 4.444-1.463l20.238-14.914a7.5 7.5 0 0 0 .508-11.668l-20.238-17.825a7.501 7.501 0 0 0-9.916 11.258l13.256 11.676-12.748 9.395a7.5 7.5 0 0 0-1.589 10.489M217.864 251.994c-18.006 6.453-30.104 23.641-30.104 42.769v129.442c0 14.086 11.459 25.545 25.544 25.545h85.389c14.086 0 25.545-11.459 25.545-25.545V294.764c0-19.129-12.098-36.316-30.103-42.769-.597-.214-.983-.743-.983-1.346V235.06c6.574-.46 11.785-5.942 11.785-12.631v-42.761c0-6.989-5.686-12.676-12.675-12.676H290.1c-2.861-7.433-8.304-23.049-10.297-38.892-1.064-8.464-8.314-14.846-16.862-14.846h-13.882c-8.549 0-15.798 6.383-16.863 14.846-1.987 15.795-7.439 31.446-10.3 38.892h-2.158c-6.989 0-12.676 5.686-12.676 12.676v42.761c0 6.689 5.211 12.17 11.785 12.63v15.588c-.001.605-.386 1.133-.983 1.347m91.371 172.212c0 5.812-4.729 10.541-10.541 10.541h-85.389c-5.812 0-10.541-4.729-10.541-10.541v-21.239h106.471zm0-36.242H202.764v-71.776h106.471zm-62.153-257.992c.123-.977.973-1.715 1.977-1.715h13.882c1.004 0 1.853.737 1.977 1.715 1.788 14.219 5.984 27.988 9.182 37.02h-36.2c3.197-9.031 7.393-22.8 9.182-37.02m-25.018 52.024h67.869v38.106h-67.869zm.862 84.121c6.534-2.342 10.923-8.558 10.923-15.47v-15.543h44.299v15.543c0 6.911 4.39 13.128 10.924 15.47 12.06 4.322 20.162 15.834 20.162 28.646v6.42h-106.47v-6.42c0-12.812 8.102-24.323 20.162-28.646"/></svg>