<svg xmlns="http://www.w3.org/2000/svg" width="512" height="512"><path fill="#ffe2db" d="M363.607 504.508c-46.564 0-84.312-37.748-84.312-84.312V91.804c0-46.564 37.748-84.312 84.312-84.312s84.312 37.748 84.312 84.312v328.392c-.001 46.564-37.748 84.312-84.312 84.312"/><path fill="#f3cfca" d="M447.921 91.807v328.385c0 46.563-37.752 84.314-84.314 84.314-3.377 0-6.713-.2-9.99-.599 41.857-4.925 74.324-40.529 74.324-83.715V91.807c0-23.276-9.44-44.355-24.695-59.619-13.047-13.037-30.349-21.828-49.629-24.095 3.277-.4 6.613-.599 9.99-.599 23.276 0 44.355 9.44 59.619 24.695 15.254 15.263 24.695 36.342 24.695 59.618"/><path fill="#efc2bb" d="M388.625 320.112h-50.036c-10.736 0-19.439-8.703-19.439-19.439v-89.345c0-10.736 8.703-19.439 19.439-19.439h50.036c10.736 0 19.439 8.703 19.439 19.439v89.345c-.001 10.736-8.704 19.439-19.439 19.439"/><path fill="#d8a69d" d="M408.061 211.326v89.349c0 10.729-8.701 19.44-19.44 19.44h-19.98c10.739 0 19.44-8.711 19.44-19.44v-89.349c0-10.729-8.701-19.44-19.44-19.44h19.98c10.739-.001 19.44 8.71 19.44 19.44"/><path fill="#ffe2db" d="M148.394 504.508c-46.564 0-84.312-37.748-84.312-84.312V91.804c0-46.564 37.748-84.312 84.312-84.312s84.312 37.748 84.312 84.312v328.392c-.001 46.564-37.748 84.312-84.312 84.312"/><path fill="#f3cfca" d="M232.708 91.807v328.385c0 46.563-37.752 84.314-84.314 84.314-3.377 0-6.713-.2-9.99-.599 41.857-4.925 74.324-40.529 74.324-83.715V91.807c0-23.276-9.44-44.355-24.695-59.619-13.047-13.037-30.349-21.828-49.629-24.095 3.277-.4 6.613-.599 9.99-.599 23.276 0 44.355 9.44 59.619 24.695 15.254 15.263 24.695 36.342 24.695 59.618"/><path fill="#efc2bb" d="M173.412 320.112h-50.036c-10.736 0-19.439-8.703-19.439-19.439v-89.345c0-10.736 8.703-19.439 19.439-19.439h50.036c10.736 0 19.439 8.703 19.439 19.439v89.345c0 10.736-8.704 19.439-19.439 19.439"/><path fill="#d8a69d" d="M192.848 211.326v89.349c0 10.729-8.701 19.44-19.44 19.44h-19.98c10.739 0 19.44-8.711 19.44-19.44v-89.349c0-10.729-8.701-19.44-19.44-19.44h19.98c10.739-.001 19.44 8.71 19.44 19.44"/><path d="M363.606 0c-50.621 0-91.804 41.183-91.804 91.804v328.392c0 50.621 41.183 91.804 91.804 91.804s91.804-41.183 91.804-91.804V91.804C455.41 41.183 414.227 0 363.606 0m76.82 420.196c0 42.358-34.461 76.819-76.819 76.819s-76.819-34.461-76.819-76.819V91.804c0-42.358 34.461-76.819 76.819-76.819s76.819 34.461 76.819 76.819z"/><circle cx="323.423" cy="111.757" r="9.99" transform="rotate(-13.34 322.934 111.931)"/><circle cx="363.607" cy="111.757" r="9.99"/><circle cx="403.79" cy="111.757" r="9.99" transform="rotate(-45 403.8 111.838)"/><circle cx="323.423" cy="149.396" r="9.99" transform="rotate(-13.34 322.9 149.523)"/><circle cx="363.607" cy="149.396" r="9.99"/><circle cx="403.79" cy="149.396" r="9.99" transform="rotate(-45 403.793 149.482)"/><circle cx="323.423" cy="362.604" r="9.99" transform="rotate(-45 323.382 362.69)"/><circle cx="363.607" cy="362.604" r="9.99"/><circle cx="403.79" cy="362.604" r="9.99" transform="rotate(-13.34 402.97 362.557)"/><circle cx="323.423" cy="400.243" r="9.99" transform="rotate(-45 323.374 400.333)"/><circle cx="363.607" cy="400.243" r="9.99"/><circle cx="403.79" cy="400.243" r="9.99" transform="rotate(-13.34 402.934 400.153)"/><path d="M388.624 184.396h-50.036c-14.85 0-26.932 12.081-26.932 26.931v7.75c0 4.138 3.354 7.492 7.492 7.492s7.492-3.354 7.492-7.492v-7.75c0-6.587 5.359-11.946 11.947-11.946h50.036c6.588 0 11.947 5.359 11.947 11.946v89.346c0 6.587-5.359 11.946-11.947 11.946h-50.036c-6.588 0-11.947-5.359-11.947-11.946V254.1c0-4.138-3.354-7.492-7.492-7.492s-7.492 3.354-7.492 7.492v46.573c0 14.85 12.081 26.931 26.932 26.931h50.036c14.85 0 26.932-12.081 26.932-26.931v-89.346c0-14.849-12.081-26.931-26.932-26.931"/><circle cx="108.21" cy="111.757" r="9.99"/><circle cx="148.394" cy="111.757" r="9.99"/><circle cx="188.577" cy="111.757" r="9.99" transform="rotate(-45 188.571 111.8)"/><circle cx="108.21" cy="149.396" r="9.99"/><circle cx="148.394" cy="149.396" r="9.99"/><circle cx="188.577" cy="149.396" r="9.99" transform="rotate(-45 188.564 149.442)"/><circle cx="108.21" cy="362.604" r="9.99"/><circle cx="148.394" cy="362.604" r="9.99"/><circle cx="188.577" cy="362.604" r="9.99" transform="rotate(-13.34 188.01 362.353)"/><circle cx="108.21" cy="400.243" r="9.99"/><circle cx="148.394" cy="400.243" r="9.99"/><circle cx="188.577" cy="400.243" r="9.99" transform="rotate(-13.34 187.976 399.95)"/><path d="M148.394 0C97.773 0 56.59 41.183 56.59 91.804v328.392c0 16.288 4.323 32.291 12.502 46.28a7.493 7.493 0 0 0 12.936-7.564c-6.839-11.696-10.454-25.084-10.454-38.716V91.804c0-42.358 34.461-76.819 76.819-76.819s76.819 34.461 76.819 76.819v328.392c0 42.358-34.461 76.819-76.819 76.819-16.335 0-31.93-5.057-45.1-14.625-3.349-2.433-8.033-1.69-10.465 1.658s-1.69 8.033 1.658 10.465C110.233 505.953 128.873 512 148.394 512c50.621 0 91.804-41.183 91.804-91.804V91.804C240.198 41.183 199.014 0 148.394 0"/><path d="M96.444 300.673c0 14.85 12.081 26.931 26.932 26.931h50.036c14.85 0 26.932-12.081 26.932-26.931v-89.346c0-14.85-12.081-26.931-26.932-26.931h-50.036c-14.85 0-26.932 12.081-26.932 26.931zm14.985-89.346c0-6.587 5.359-11.946 11.947-11.946h50.036c6.588 0 11.947 5.359 11.947 11.946v89.346c0 6.587-5.359 11.946-11.947 11.946h-50.036c-6.588 0-11.947-5.359-11.947-11.946z"/></svg>