<svg xmlns="http://www.w3.org/2000/svg" width="512" height="512" viewBox="0 0 512.266 512.266"><path fill="#d4f2f6" d="m308.341 122.908.009-14.385-52.061-.033-52.061-.033-.009 14.385a24.74 24.74 0 0 1-7.44 17.669l-17.385 17.005a98.94 98.94 0 0 0-29.757 70.669l-.163 243.019c-.012 18.473 14.954 33.458 33.427 33.469l73.128.046 73.128.046c18.473.012 33.458-14.954 33.469-33.427l.163-243.019a98.94 98.94 0 0 0-29.668-70.706l-17.363-17.027a24.74 24.74 0 0 1-7.417-17.678"/><path fill="#a6e7f0" d="m362.788 228.32-.16 243.016c-.01 18.476-14.999 33.446-33.466 33.426l-18.897-.01c18.055-.461 32.544-15.24 32.554-33.416l.16-243.016c.02-26.602-10.671-47.243-29.668-65.869l-17.354-17.023c-4.749-4.659-7.424-15.871-7.424-22.524l.01-14.378h19.809l-.01 14.378a24.76 24.76 0 0 0 7.414 17.685l17.364 17.023a98.9 98.9 0 0 1 29.668 70.708"/><path fill="#7acaa6" d="m362.788 228.32-.16 243.016c-.01 18.476-14.999 33.446-33.466 33.426l-73.133-.04-73.123-.05c-18.476-.01-33.446-14.989-33.425-33.465l.16-243.026a98.93 98.93 0 0 1 29.758-70.668l12.354-12.084h128.942l12.424 12.184a98.9 98.9 0 0 1 29.669 70.707"/><path fill="#57be92" d="m362.788 228.32-.16 243.016c-.01 18.476-14.999 33.446-33.466 33.426l-18.887-.01c18.055-.471 32.534-15.24 32.544-33.416l.16-243.016c.02-26.602-10.671-47.243-29.668-65.869l-17.354-17.023h24.738l12.424 12.184a98.9 98.9 0 0 1 29.669 70.708"/><path fill="#8d9ca8" d="M312.81 74.453h-113.3V21.801c0-7.898 6.403-14.301 14.301-14.301h84.699c7.898 0 14.301 6.403 14.301 14.301z"/><path fill="#7a8c98" d="M312.81 21.796v52.653h-20.039V21.796c0-7.895-6.403-14.298-14.298-14.298h20.039c7.896 0 14.298 6.402 14.298 14.298"/><path fill="#c5d3dd" d="M319.918 108.49H192.402a9.28 9.28 0 0 1-9.281-9.281V83.734a9.28 9.28 0 0 1 9.281-9.281h127.516a9.28 9.28 0 0 1 9.281 9.281v15.475a9.28 9.28 0 0 1-9.281 9.281"/><path fill="#b6c4cf" d="M329.202 83.737v15.47c0 5.13-4.158 9.278-9.288 9.278h-20.039c5.13 0 9.288-4.148 9.288-9.278v-15.47a9.29 9.29 0 0 0-9.288-9.288h20.039a9.29 9.29 0 0 1 9.288 9.288"/><path fill="#f9f3f1" d="M149.557 228.686h213.152v155.851H149.557z"/><path fill="#efe2dd" d="M342.93 228.327h19.779v156.271H342.93z"/><path fill="#ee6161" d="M312.81 302.862c-11.777 0-21.324-9.547-21.324-21.324s9.547-21.324 21.324-21.324 21.324 9.547 21.324 21.324-9.547 21.324-21.324 21.324"/><path fill="#e94444" d="M334.132 281.535a21.26 21.26 0 0 1-6.242 15.08 21.23 21.23 0 0 1-15.08 6.252c-8.988 0-16.683-5.571-19.819-13.446a21.2 21.2 0 0 0 6.883 1.142c5.882 0 11.212-2.385 15.079-6.242a21.25 21.25 0 0 0 6.242-15.08 21 21 0 0 0-1.513-7.885 21.14 21.14 0 0 1 8.206 5.1c3.859 3.867 6.244 9.197 6.244 15.079"/><path d="M341.635 281.538c0-15.894-12.931-28.824-28.825-28.824s-28.824 12.931-28.824 28.824 12.931 28.824 28.824 28.824 28.825-12.93 28.825-28.824m-28.825 13.824c-7.623 0-13.824-6.202-13.824-13.824s6.201-13.824 13.824-13.824 13.825 6.202 13.825 13.824-6.202 13.824-13.825 13.824"/><path d="M365.41 196.57c-7.999-25.536-25.79-43.085-44.401-61.339a17.34 17.34 0 0 1-5.168-12.319l.004-6.922h4.072c9.253 0 16.781-7.528 16.781-16.781V83.734c0-9.121-7.319-16.551-16.39-16.761V21.8c0-12.021-9.779-21.8-21.8-21.8h-84.699c-12.021 0-21.8 9.78-21.8 21.8a7.5 7.5 0 0 0 15 0c0-3.75 3.051-6.8 6.8-6.8h84.699c3.749 0 6.8 3.051 6.8 6.8v45.153H207.01V56.796a7.5 7.5 0 0 0-15 0v10.177c-9.071.211-16.39 7.64-16.39 16.761v15.475c0 9.253 7.528 16.781 16.781 16.781h4.322l-.004 6.848c-.009 12.599-14.543 21.464-22.57 29.316-9.528 9.32-17.154 20.361-22.569 32.389a107.1 107.1 0 0 0-8.865 32.752 105 105 0 0 0-.574 10.601c-.023.237-.166 243.302-.166 243.302-.007 10.804 4.325 21.306 11.976 28.964 6.218 6.224 14.088 10.195 22.623 11.516l.11.019c.5.076 1.003.135 1.507.193.194.022.386.052.581.072.323.032.65.05.975.075 1.041.08 2.09.135 3.151.135l146.282.092c4.099 0 8.106-.598 11.922-1.754 6.356-1.923 12.181-5.393 17.015-10.22 7.583-7.573 11.82-17.597 11.995-28.287.004-.221.179-243.681.179-243.681.006-10.816-1.679-21.53-4.881-31.752m-173.008-95.58a1.783 1.783 0 0 1-1.781-1.781V83.734c0-.982.799-1.781 1.781-1.781h127.516c.982 0 1.781.799 1.781 1.781v15.475c0 .982-.799 1.781-1.781 1.781zm112.168 36.938h-96.629c2.443-4.616 3.775-9.806 3.779-15.081l.004-6.856h44.561l44.561.028-.004 6.884c-.004 5.251 1.311 10.42 3.728 15.025m-146.849 80.164a92.1 92.1 0 0 1 7.53-27.389c4.651-10.33 11.203-19.815 19.389-27.825l10.172-9.95h122.82l10.237 10.04c15.756 15.448 25.431 36.376 27.143 58.281l-197.588-.124a90 90 0 0 1 .297-3.033m160.983 173.985 36.476.023-.059 79.49c-.071 6.835-2.762 13.25-7.606 18.088a25.94 25.94 0 0 1-18.32 7.584h-.029l-146.256-.09a25.48 25.48 0 0 1-15.035-4.877c-6.685-4.849-10.9-12.798-10.894-21.084l.052-79.236 126.656.08a7.5 7.5 0 0 0 .005-15l-126.651-.08.093-140.851 198.118.125-.089 140.851-36.456-.023a7.5 7.5 0 0 0-.005 15"/><path d="M234.462 45.612v-9.271a7.5 7.5 0 0 0-15 0v9.271a7.5 7.5 0 0 0 15 0M263.66 45.612v-9.271a7.5 7.5 0 0 0-15 0v9.271a7.5 7.5 0 0 0 15 0M292.857 45.612v-9.271c0-4.142-3.357-7.5-7.5-7.5s-7.5 3.358-7.5 7.5v9.271c0 4.142 3.357 7.5 7.5 7.5s7.5-3.358 7.5-7.5"/></svg>