<svg xmlns="http://www.w3.org/2000/svg" width="512" height="512" viewBox="0 0 511.955 511.955"><path fill="#c5d3dd" d="M460.074 504.455H51.881c-16.859 0-30.527-13.667-30.527-30.527V38.027C21.355 21.167 35.022 7.5 51.881 7.5h408.192c16.859 0 30.527 13.667 30.527 30.527v435.901c.001 16.86-13.667 30.527-30.526 30.527"/><path fill="#b6c4cf" d="M490.596 38.026v435.903c0 16.857-13.664 30.531-30.521 30.531h-20.02c16.857 0 30.521-13.674 30.521-30.531V38.026c0-16.857-13.664-30.531-30.521-30.531h20.02c16.857 0 30.521 13.674 30.521 30.531"/><path fill="#8d9ca8" d="M257.697 51.471c-23.887-.161-47.797 2.645-71.371 8.473-34.93 8.636-68.581 23.064-97.755 43.664-24.961 17.624-12.537 56.896 18.018 56.896h298.708c30.383 0 43.08-39.129 18.289-56.694-27.576-19.538-59.175-33.557-92.077-42.332-24.315-6.484-49.052-9.84-73.812-10.007"/><path fill="#7a8c98" d="M405.299 160.501h-20.02c30.381 0 43.074-44.455 18.289-64.406a259 259 0 0 0-25.896-18.329c16.136 7.207 31.572 15.886 45.917 26.046 24.784 17.559 12.091 56.689-18.29 56.689"/><path d="M460.074 0H51.881C30.913 0 13.854 17.059 13.854 38.027v321.336c0 4.142 3.357 7.5 7.5 7.5s7.5-3.358 7.5-7.5V38.027C28.854 25.33 39.184 15 51.881 15h408.193c12.697 0 23.026 10.33 23.026 23.027v435.901c0 12.697-10.329 23.027-23.026 23.027H51.881c-12.697 0-23.026-10.33-23.026-23.027v-79.317c0-4.142-3.357-7.5-7.5-7.5s-7.5 3.358-7.5 7.5v79.317c0 20.968 17.059 38.027 38.026 38.027h408.193c20.968 0 38.026-17.059 38.026-38.027V38.027C498.101 17.059 481.042 0 460.074 0"/><path d="M318.742 50.694c-20.126-4.324-40.647-6.586-60.994-6.724a297.2 297.2 0 0 0-73.222 8.692c-37.585 9.292-71.324 24.372-100.281 44.818-14.106 9.96-19.847 27.027-14.624 43.479 5.216 16.428 19.726 27.043 36.968 27.043h298.708c17.247 0 31.781-10.648 37.027-27.126 5.204-16.348-.448-33.3-14.402-43.187-22.157-15.699-47.393-28.352-75.003-37.607a7.5 7.5 0 0 0-4.767 14.223c26.219 8.789 50.14 20.774 71.099 35.624 10.338 7.325 11.314 18.439 8.781 26.397-2.567 8.062-9.887 16.677-22.734 16.677H106.589c-12.834 0-20.126-8.566-22.671-16.582-2.551-8.035-1.531-19.266 8.979-26.688 27.425-19.365 59.465-33.667 95.229-42.51 22.791-5.634 46.168-8.417 69.521-8.254 19.324.13 38.819 2.28 57.945 6.389a7.5 7.5 0 1 0 3.15-14.664"/><path d="M213.952 125.78c-2.815 3.688-4.102 5.371-3.246 8.152.501 1.63 1.735 2.881 3.391 3.433.654.218 1.323.441 10.236.441 3.459 0 8.162-.034 14.585-.114a5.001 5.001 0 0 0-.061-10h-.063c-4.718.059-9.728.097-13.822.104 2.539-3.389 6.112-8.263 10.993-15.236 2.87-4.1 5.964-9.321 5.964-14.502 0-9.175-7.465-16.639-16.64-16.639-7.933 0-14.8 5.644-16.327 13.419a5 5 0 1 0 9.812 1.928c.608-3.098 3.349-5.347 6.515-5.347 1.927 0 3.788.86 5.042 2.323 3.609 4.212.092 9.295-2.56 13.083-7.207 10.298-11.508 15.929-13.819 18.955M189.104 89.981a5 5 0 0 0-5.984-8.012c-3.26 2.427-6.055 5.643-8.455 8.891a52 52 0 0 0-6.059 10.598c-2.941 6.945-5.249 14.635-2.706 22.107 2.483 7.296 9.273 12.415 17.032 12.415 10.011 0 18.154-8.144 18.154-18.154s-8.144-18.154-18.154-18.154c-.756 0-1.497.061-2.229.151 3.915-6.362 8.293-9.759 8.401-9.842m-6.171 19.692c4.496 0 8.154 3.658 8.154 8.154s-3.658 8.154-8.154 8.154-8.153-3.658-8.153-8.154 3.657-8.154 8.153-8.154M273.669 93.169a5 5 0 0 0-5 5v34.628a5 5 0 1 0 10 0v-7.385l11.385 10.983a4.99 4.99 0 0 0 3.471 1.401 5 5 0 0 0 3.473-8.598l-14.928-14.401 13.61-12.51a5.001 5.001 0 0 0-6.767-7.362l-10.243 9.415v-6.171a5 5 0 0 0-5.001-5M327.229 103.169c2.469 0 4.848.726 6.882 2.1a5 5 0 0 0 5.597-8.286 22.2 22.2 0 0 0-12.479-3.814c-12.304 0-22.313 10.01-22.313 22.314s10.01 22.314 22.313 22.314c11.744 0 19.946-9.176 19.946-22.314a5 5 0 0 0-5-5h-10.358a5 5 0 1 0 0 10h4.683c-1.182 4.044-4.013 7.314-9.271 7.314-6.79 0-12.313-5.524-12.313-12.314s5.523-12.314 12.313-12.314M285.43 459.438h-58.904c-4.143 0-7.5 3.358-7.5 7.5s3.357 7.5 7.5 7.5h58.904a7.5 7.5 0 0 0 0-15M285.43 426.88h-58.904c-4.143 0-7.5 3.358-7.5 7.5s3.357 7.5 7.5 7.5h58.904a7.5 7.5 0 0 0 0-15"/></svg>