<svg xmlns="http://www.w3.org/2000/svg" width="512" height="512"><path fill="#6bd9e7" d="M325.362 504.497H186.638c-9.108 0-16.492-7.384-16.492-16.492v-58.289h171.708v58.289c0 9.108-7.384 16.492-16.492 16.492"/><path fill="#2ed1e2" d="M341.858 429.714v58.295c0 9.104-7.383 16.487-16.497 16.487h-19.198c9.104 0 16.487-7.383 16.487-16.487v-58.295z"/><path fill="#6bd9e7" d="M384.07 47.737H127.93V17.136c0-5.32 4.313-9.633 9.633-9.633h236.874c5.32 0 9.633 4.313 9.633 9.633z"/><path fill="#2ed1e2" d="M384.066 17.14v30.596h-19.189V17.14c0-5.322-4.318-9.64-9.64-9.64h19.199c5.322 0 9.63 4.318 9.63 9.64"/><path fill="#fece85" d="M263.415 47.737H127.93l42.216 381.979h171.708L384.07 47.737z"/><path fill="#fdb441" d="m384.066 47.735-42.214 381.978h-19.198l42.223-381.978z"/><path fill="#07b2cd" d="M289.883 504.497h-67.765v-22.082c0-8.454 6.854-15.308 15.308-15.308h37.15c8.454 0 15.308 6.854 15.308 15.308z"/><path fill="#0199b1" d="M289.885 482.417v22.08h-20.009v-22.08c0-8.454-6.853-15.307-15.307-15.307h20.009c8.454 0 15.307 6.853 15.307 15.307"/><path fill="#6bd9e7" d="m370.841 167.366-15.764 142.716H156.923l-15.764-142.716z"/><path fill="#2ed1e2" d="m370.841 167.366-15.764 142.716h-19.199l15.775-142.716z"/><path fill="#ee6161" d="M330.024 122.914c-11.803 0-21.37-9.568-21.37-21.37s9.568-21.37 21.37-21.37 21.37 9.568 21.37 21.37-9.568 21.37-21.37 21.37"/><path fill="#e94444" d="M351.392 101.54c0 5.904-2.39 11.246-6.256 15.112a21.27 21.27 0 0 1-15.112 6.266c-9.007 0-16.719-5.583-19.862-13.475a21.2 21.2 0 0 0 6.898 1.145c5.894 0 11.236-2.39 15.112-6.256a21.3 21.3 0 0 0 6.256-15.112 21.1 21.1 0 0 0-1.516-7.902 21.2 21.2 0 0 1 8.224 5.111c3.866 3.875 6.256 9.217 6.256 15.111"/><path d="M374.438 0H137.563c-9.449 0-17.136 7.687-17.136 17.136l.045 31.425v.002l42.171 381.569v19.558c0 4.128 3.18 7.743 7.306 7.849a7.503 7.503 0 0 0 7.7-7.501v-12.782c0-.02.016-.036.036-.036h156.63c.02 0 .036.016.036.036v50.714a9.024 9.024 0 0 1-9.024 9.024h-27.905a.036.036 0 0 1-.036-.036V482.45c0-12.618-10.229-22.847-22.847-22.847h-37.078c-12.618 0-22.847 10.229-22.847 22.847v14.507c0 .02-.016.036-.036.036h-27.905a9.024 9.024 0 0 1-9.024-9.024v-2.534c0-4.128-3.18-7.743-7.307-7.848a7.504 7.504 0 0 0-7.7 7.501v2.881c0 13.272 10.759 24.03 24.031 24.03h138.653c13.272 0 24.031-10.759 24.031-24.031V430.13l42.171-381.569v-.002l.045-31.425C391.574 7.687 383.887 0 374.438 0M282.38 496.958c0 .02-.016.036-.036.036h-52.688a.036.036 0 0 1-.036-.036V482.45a7.84 7.84 0 0 1 7.84-7.84h37.078c4.33 0 7.841 3.51 7.841 7.841zm52.757-74.776a.036.036 0 0 1-.035.032H176.898a.036.036 0 0 1-.035-.032l-11.556-104.557a.036.036 0 0 1 .035-.04h181.315c.021 0 .038.018.035.04zm28.995-262.351a.036.036 0 0 1-.035.032h-27.872c-4.127 0-7.742 3.179-7.848 7.305a7.503 7.503 0 0 0 7.5 7.701h26.546c.021 0 .038.018.035.04l-14.1 127.638a.036.036 0 0 1-.035.032H163.676a.036.036 0 0 1-.035-.032l-14.1-127.638a.036.036 0 0 1 .035-.04h150.906c4.127 0 7.742-3.179 7.848-7.305a7.504 7.504 0 0 0-7.501-7.702H147.903a.036.036 0 0 1-.035-.032L136.313 55.28a.036.036 0 0 1 .035-.04h239.304c.021 0 .038.018.035.04zm12.435-119.633c0 .02-.016.036-.036.036H135.469a.036.036 0 0 1-.036-.036V17.172c0-1.196.969-2.165 2.166-2.165h236.803c1.196 0 2.165.969 2.165 2.165z"/><path d="M330.023 72.67c-15.921 0-28.873 12.952-28.873 28.873s12.952 28.873 28.873 28.873 28.874-12.952 28.874-28.873-12.953-28.873-28.874-28.873m0 42.74c-7.646 0-13.866-6.22-13.866-13.867s6.22-13.867 13.866-13.867c7.647 0 13.867 6.22 13.867 13.867s-6.22 13.867-13.867 13.867"/></svg>