<svg xmlns="http://www.w3.org/2000/svg" width="512" height="512" viewBox="0 0 512.04 512.04"><path fill="#7acaa6" d="M255.167 168.477s.138 54.725 5.633 86.827c1.48 8.644-5.144 16.541-13.913 16.541h-49.884s24.149-73.421 58.164-103.368"/><path fill="#57be92" d="M246.884 271.85h-19.02c8.77 0 15.4-7.9 13.92-16.55-3.29-19.19-4.66-46.46-5.23-65.29 5.76-8.25 12-15.71 18.61-21.53 0 0 .14 54.72 5.64 86.82 1.48 8.65-5.15 16.55-13.92 16.55"/><path fill="#f9f3f1" d="M315.954 17.23v129.718c-53.433 11.037-82.37 65.822-82.37 65.822-37.93 57.48-37.5 188.85-34.67 253.87.255 5.847.53 11.157.798 15.828.688 11.979-8.83 22.072-20.829 22.072h-70.476c-8.491 0-16.092-5.165-19.334-13.012a209 209 0 0 1-8.469-24.888c-22.91-84.05 8.54-166.88 8.54-166.88 19.55-56.2 23.57-88.53 23.57-88.53 1.58-13.01-4.51-24.2-10.83-32.03-8.35-10.33-12.9-23.24-12.69-36.52.83-50.59 11.77-92.86 19.36-116.33 3.81-11.77 15.09-19.48 27.45-18.81z"/><path fill="#efe2dd" d="M315.954 17.23v129.72c-53.43 11.04-82.37 65.82-82.37 65.82-37.93 57.48-37.5 188.85-34.67 253.87.26 5.85.53 11.16.8 15.83.69 11.98-8.83 22.07-20.83 22.07h-7.08a20.77 20.77 0 0 0 7.91-17.58c-.27-4.67-.54-9.98-.8-15.83-.53-12.15-.99-40.13-1.28-52.29-.97-39.77-.5-79.8 4.49-119.31 4.74-37.51 14.39-72.21 34.84-104.1 16.087-25.07 38.876-49.708 67.595-59.907a17.12 17.12 0 0 0 11.395-16.138V16.15z"/><path fill="#7acaa6" d="m315.955 17.226 22.157 1.128c7.427.378 13.256 6.511 13.256 13.948v97.11a13.965 13.965 0 0 1-12.457 13.884l-22.957 3.653z"/><path fill="#57be92" d="M351.364 32.3v97.11c0 7.13-5.36 13.11-12.45 13.89l-13.81 2.19c5.09-2.36 8.56-7.51 8.56-13.4V29.48c0-4.72-2.22-8.94-5.69-11.64l10.14.51c7.43.38 13.25 6.51 13.25 13.95"/><path fill="#cdbfba" d="M273.178 42.467H148.915c-4.44 0-8.365 2.869-9.702 7.103-4.383 13.879-13.35 45.859-13.535 75.709-.038 6.073 5.172 10.85 11.214 10.233l137.32-14.022a10.177 10.177 0 0 0 9.143-10.124V52.644c-.001-5.621-4.557-10.177-10.177-10.177"/><path fill="#b9acac" d="M283.354 52.64v58.73c0 5.22-3.95 9.59-9.14 10.12l-15.4 1.57c2.76-2 4.54-5.25 4.54-8.88V51.04c0-3.47-1.61-6.56-4.13-8.57h13.95c5.62 0 10.18 4.55 10.18 10.17"/><circle cx="178.75" cy="83.703" r="16.396" fill="#7acaa6"/><circle cx="239.353" cy="83.703" r="16.396" fill="#7acaa6"/><path fill="#57be92" d="M195.144 83.7c0 9.06-7.34 16.4-16.39 16.4-6.86 0-12.73-4.21-15.17-10.18.88.15 1.79.23 2.72.23 9.06 0 16.4-7.34 16.4-16.4 0-2.2-.43-4.3-1.22-6.21 7.75 1.3 13.66 8.04 13.66 16.16M255.744 83.7c0 9.06-7.34 16.4-16.39 16.4-6.86 0-12.73-4.21-15.17-10.18.88.15 1.79.23 2.72.23 9.06 0 16.4-7.34 16.4-16.4 0-2.2-.43-4.3-1.22-6.21 7.75 1.3 13.66 8.04 13.66 16.16"/><path fill="#7acaa6" d="M178.883 504.54h-70.476c-8.491 0-16.092-5.165-19.334-13.012a209 209 0 0 1-8.469-24.888h118.31c.255 5.847.53 11.157.798 15.828.688 11.979-8.83 22.072-20.829 22.072"/><path fill="#57be92" d="M178.884 504.54h-7.08a20.77 20.77 0 0 0 7.91-17.58c-.27-4.67-.54-9.98-.8-15.83-.06-1.32-.11-2.83-.17-4.49h20.17c.26 5.85.53 11.16.8 15.83.69 11.98-8.83 22.07-20.83 22.07"/><path d="M205.462 395.288a7.5 7.5 0 0 0-7.357-7.64c-4.114-.076-7.562 3.216-7.64 7.357-.391 20.682-.171 42.222.645 64.135H86.423c-19.186-78.723 9.436-155.933 9.733-156.718q.038-.098.072-.198c19.586-56.303 23.761-88.716 23.932-90.09 1.536-12.643-2.766-25.661-12.442-37.649-7.29-9.018-11.205-20.271-11.024-31.682.833-50.782 12.26-93.313 18.997-114.144 2.756-8.511 10.946-14.114 19.911-13.63l29.554 1.592a7.501 7.501 0 0 0 .807-14.979L136.41.051c-15.75-.847-30.142 9.012-34.992 23.992-8.544 26.419-18.901 68.426-19.723 118.519-.236 14.922 4.863 29.608 14.354 41.349 7.168 8.881 10.271 17.769 9.224 26.389-.04.317-4.208 32.342-23.179 86.903-1.793 4.762-31.812 86.708-8.725 171.409.612 2.247 3.347 11.156 4.086 13.318a212 212 0 0 0 4.688 12.461c4.429 10.721 14.739 17.648 26.266 17.648h70.476c7.77 0 15.286-3.24 20.62-8.889 4.772-5.054 7.512-11.741 7.722-18.649 0-.836.023-1.626-.025-2.463-1.653-28.701-2.282-57.982-1.74-86.75m-16.866 97.565a13.23 13.23 0 0 1-9.713 4.187h-70.476c-5.432 0-10.301-3.288-12.403-8.375-1.97-4.768-3.724-9.628-5.313-14.524h101.065c.007.134.438 8.225.468 8.759a13.25 13.25 0 0 1-3.628 9.953"/><path d="M338.494 10.864 200.498 3.502a7.5 7.5 0 0 0-.807 14.979l108.763 5.857v116.69c-50.813 13.715-78.594 62.871-81.32 67.901-19.41 29.625-31.3 80.338-35.346 150.747a7.5 7.5 0 0 0 14.976.86c1.796-31.267 5.126-58.367 9.951-81.19h30.171a21.56 21.56 0 0 0 16.517-7.674 21.63 21.63 0 0 0 4.789-17.632c-3.409-19.917-4.717-49.185-5.217-67.811 12.978-13.338 31.289-27.102 54.372-31.906l22.579-3.593a21.434 21.434 0 0 0 18.942-21.317v-97.11c0-11.441-8.949-20.858-20.374-21.439M251.937 262c-.739.875-2.377 2.345-5.05 2.345H220.26c5.205-19.703 11.74-35.558 19.584-47.444q.201-.305.372-.628c.087-.164 2.928-5.442 8.34-12.892.766 17.262 2.192 37.655 4.851 53.188.457 2.667-.725 4.548-1.47 5.431m91.931-132.589a6.457 6.457 0 0 1-5.767 6.428c-.123.013-14.647 2.321-14.647 2.321l.001-113.043 14.276.727a6.463 6.463 0 0 1 6.137 6.458z"/><path d="M132.061 47.311c-5.104 16.165-13.696 47.783-13.883 77.921a17.76 17.76 0 0 0 5.805 13.241 17.7 17.7 0 0 0 13.672 4.499l137.319-14.022a17.63 17.63 0 0 0 15.881-17.585V52.643c0-9.747-7.93-17.676-17.676-17.676H148.915c-7.749 0-14.522 4.961-16.854 12.344m143.793 5.332v58.723a2.67 2.67 0 0 1-2.404 2.662L136.131 128.05a2.61 2.61 0 0 1-2.06-.678 2.72 2.72 0 0 1-.893-2.047c.182-29.219 9.283-61.133 13.187-73.497a2.66 2.66 0 0 1 2.55-1.861h124.263a2.68 2.68 0 0 1 2.676 2.676"/><path d="M178.75 107.598c13.176 0 23.896-10.72 23.896-23.896s-10.72-23.896-23.896-23.896-23.896 10.72-23.896 23.896 10.72 23.896 23.896 23.896m0-32.791c4.905 0 8.896 3.991 8.896 8.896s-3.991 8.896-8.896 8.896-8.896-3.991-8.896-8.896 3.991-8.896 8.896-8.896M239.353 107.598c13.176 0 23.895-10.72 23.895-23.896s-10.72-23.896-23.895-23.896-23.896 10.72-23.896 23.896 10.72 23.896 23.896 23.896m0-32.791c4.905 0 8.896 3.991 8.896 8.896s-3.991 8.896-8.896 8.896-8.896-3.991-8.896-8.896 3.991-8.896 8.896-8.896M421.301 26.89a7.5 7.5 0 0 0-9.496 11.612c13.064 10.684 20.557 26.478 20.557 43.332 0 16.508-7.241 32.093-19.866 42.758a7.5 7.5 0 1 0 9.679 11.458c16.006-13.521 25.186-33.283 25.186-54.217.001-21.373-9.498-41.399-26.06-54.943"/><path d="M405.678 57.985a7.501 7.501 0 0 0-9.495 11.613 15.49 15.49 0 0 1 5.708 12.029c0 4.582-2.011 8.908-5.516 11.87a7.5 7.5 0 1 0 9.679 11.458 30.48 30.48 0 0 0 10.836-23.329 30.43 30.43 0 0 0-11.212-23.641"/></svg>