<svg xmlns="http://www.w3.org/2000/svg" width="512" height="512"><path fill="#c5d3dd" d="M300.194 116.9H78.424a8.98 8.98 0 0 1-8.98-8.98V90.806a8.98 8.98 0 0 1 8.98-8.98h221.77a8.98 8.98 0 0 1 8.98 8.98v17.114a8.98 8.98 0 0 1-8.98 8.98"/><path fill="#b6c4cf" d="M309.174 90.811v17.105c0 4.963-4.024 8.987-8.977 8.987h-19.971c4.953 0 8.977-4.024 8.977-8.987V90.811c0-4.963-4.024-8.987-8.977-8.987h19.971c4.953 0 8.977 4.024 8.977 8.987"/><path fill="#8d9ca8" d="M296.833 81.826H81.785V19.568c0-6.671 5.408-12.079 12.079-12.079h190.891c6.671 0 12.079 5.408 12.079 12.079z"/><path fill="#7a8c98" d="M296.832 19.564v62.259h-19.971V19.564c0-6.67-5.402-12.072-12.082-12.072h19.971c6.68 0 12.082 5.402 12.082 12.072"/><path fill="#eaf9fa" d="M105.928 116.9h166.763v45.776H105.928z"/><path fill="#dcf5f8" d="M252.002 116.9h20.689v45.776h-20.689z"/><path fill="#d4f2f6" d="M272.691 162.676H105.929l-33.062 29.345a49.95 49.95 0 0 0-16.793 37.359v243.954c0 17.219 13.959 31.178 31.178 31.178h204.116c17.219 0 31.178-13.959 31.178-31.178V229.379a49.95 49.95 0 0 0-16.793-37.359z"/><path fill="#a6e7f0" d="M322.545 229.379v243.955c0 17.217-13.957 31.175-31.175 31.175h-20.69c17.215 0 31.175-13.96 31.175-31.175V229.379c0-12.265-5.279-21.06-13.3-30.79-2.448-2.97-5.091-5.778-7.871-8.44l-28.687-27.473h20.69l33.062 29.347a49.93 49.93 0 0 1 16.796 37.356"/><path fill="#6bd9e7" d="M56.073 260.951h266.472v182.947H56.073z"/><path fill="#2ed1e2" d="M301.855 260.951h20.69v182.947h-20.69z"/><path fill="#fece85" d="M376.732 398.674c-2.999-15.268-21.995-20.686-32.597-9.298-4.336 4.658-9.044 11.118-13.821 20.075a136.7 136.7 0 0 0-15.78 55.323c-.667 10.13-.076 18.102 1.151 24.346 2.999 15.268 21.995 20.686 32.597 9.298 4.336-4.658 9.044-11.118 13.821-20.075a136.7 136.7 0 0 0 15.78-55.323c.667-10.129.076-18.101-1.151-24.346"/><path fill="#fdb441" d="M377.883 423.017a136.9 136.9 0 0 1-15.777 55.329c-4.783 8.957-9.486 15.417-13.82 20.071-7.559 8.118-19.372 7.699-26.621 1.268 2.297-.999 4.463-2.496 6.361-4.533 4.334-4.653 9.047-11.114 13.82-20.071a136.7 136.7 0 0 0 15.787-55.329c.669-10.125.07-18.104-1.158-24.345-.859-4.394-3.045-7.968-5.981-10.564 10.524-4.593 23.775 1.298 26.242 13.83 1.226 6.25 1.816 14.219 1.147 24.344"/><path fill="#fe9901" d="M454.003 441.565c6.777-14.006-5.151-29.752-20.469-27.019-6.265 1.118-13.91 3.452-23.111 7.742a136.7 136.7 0 0 0-45.857 34.74c-6.62 7.696-10.937 14.424-13.709 20.152-6.777 14.006 5.151 29.752 20.469 27.019 6.265-1.118 13.91-3.452 23.111-7.742a136.7 136.7 0 0 0 45.856-34.74c6.621-7.696 10.938-14.424 13.71-20.152"/><path fill="#fb8801" d="M454.002 441.57c-2.776 5.722-7.09 12.452-13.71 20.151a136.8 136.8 0 0 1-45.853 34.739c-9.207 4.284-16.845 6.62-23.116 7.739-11.314 2.017-20.78-6.051-22.218-16.047 2.806.899 5.902 1.148 9.157.569 6.261-1.118 13.91-3.445 23.106-7.739a136.6 136.6 0 0 0 45.863-34.739c6.62-7.699 10.934-14.429 13.7-20.151 1.767-3.665 2.267-7.439 1.757-10.974 10.385 3.305 16.656 15.418 11.314 26.452"/><path fill="#fe9901" d="M177.545 398.766c25.393 10.505 54.194 7.913 78.061-5.708 20.365-11.623 29.306-26.934 32.829-35.04a14.01 14.01 0 0 0 0-11.187c-3.523-8.106-12.464-23.417-32.829-35.04-23.867-13.621-52.668-16.213-78.061-5.708-12.219 5.055-25.033 13.622-35.603 27.997-2.111 2.872-6.422 2.91-8.504.016-6.297-8.755-17.484-17.832-37.195-20.148-3.6-.423-6.841 2.247-7.091 5.863-.575 8.29.272 22.886 11.296 32.614-11.025 9.728-11.871 24.324-11.296 32.614.251 3.616 3.492 6.286 7.091 5.863 19.711-2.317 30.897-11.393 37.195-20.148 2.081-2.894 6.392-2.855 8.504.016 10.57 14.375 23.384 22.941 35.603 27.996"/><path fill="#fb8801" d="M288.433 358.021c-3.525 8.098-12.462 23.416-32.822 35.039-23.875 13.62-52.673 16.206-78.066 5.702-12.222-5.053-25.033-13.62-35.598-27.989-2.117-2.876-6.431-2.916-8.508-.02-6.301 8.757-17.485 17.834-37.196 20.151-3.595.419-6.84-2.247-7.09-5.862a57 57 0 0 1-.14-3.864c0-4.114.469-9.057 2.037-14 1.318 1.298 3.192 1.725 5.192 1.778 19.627.513 31.668-7.474 37.969-16.232 2.077-2.896 5.956-2.477 8.508.01 13.899 13.547 27.117 21.932 39.34 26.984 25.393 10.505 49.676 5.024 73.551-8.606 16.456-9.396 25.453-21.199 30.156-29.657a63 63 0 0 1 2.666 5.372 13.99 13.99 0 0 1 .001 11.194"/><path fill="#fece85" d="M288.432 358.018c-3.523 8.108-12.458 23.419-32.823 35.041-10.1 5.768-21.087 9.561-32.327 11.213-11.188-14.293-17.86-32.292-17.86-51.848s6.672-37.555 17.86-51.849c11.24 1.653 22.227 5.446 32.327 11.214 20.365 11.622 29.3 26.933 32.823 35.041a13.98 13.98 0 0 1 0 11.188"/><path fill="#fdb441" d="m288.433 358.021-.154.35c-3.11 7.015-7.544 13.439-12.758 19.052-3.966 4.27-8.416 8.081-13.199 11.408a91 91 0 0 1-11.193 6.631 98 98 0 0 1-9.058 3.948c-5.554 2.104-11.273 3.713-17.135 4.593-.549.1-1.108.19-1.667.26a84.3 84.3 0 0 1-11.244-19.112c14.789-.619 29.257-5.861 43.587-14.039 16.456-9.396 25.453-21.199 30.156-29.657a63 63 0 0 1 2.666 5.372 14 14 0 0 1-.001 11.194"/><path d="M458.023 417.256c-6.046-7.981-15.936-11.844-25.805-10.082-7.631 1.361-16.029 4.162-24.96 8.327-7.789 3.631-15.272 8.002-22.323 12.995q.256-2.49.421-4.982c.648-9.835.218-18.678-1.275-26.282-1.933-9.84-9.114-17.658-18.742-20.404-9.627-2.744-19.853.107-26.685 7.446-2.962 3.181-5.841 6.888-8.62 11.048V229.379a57.48 57.48 0 0 0-19.311-42.96l-30.544-27.11v-34.92h20.014c9.081 0 16.469-7.388 16.469-16.469V90.806c0-7.653-5.255-14.084-12.34-15.924V19.568C304.323 8.778 295.544 0 284.755 0H93.864c-10.79 0-19.568 8.778-19.568 19.568v55.314c-7.086 1.839-12.341 8.271-12.341 15.924v17.114c0 9.081 7.388 16.469 16.469 16.469h20.014v34.92l-30.543 27.11a57.48 57.48 0 0 0-19.311 42.96v243.954C48.584 494.654 65.93 512 87.251 512h204.116c8.971 0 17.224-3.085 23.789-8.233a26.44 26.44 0 0 0 11.922 7.201 26.6 26.6 0 0 0 7.314 1.027 26.35 26.35 0 0 0 16.749-6.02 26.34 26.34 0 0 0 16.777 6.015c1.564 0 3.144-.138 4.723-.42 7.63-1.361 16.028-4.162 24.96-8.327a144.3 144.3 0 0 0 29.702-18.541 7.49 7.49 0 0 0 1.117-10.532 7.49 7.49 0 0 0-10.532-1.117 129.3 129.3 0 0 1-26.616 16.615c-7.756 3.616-14.909 6.024-21.262 7.157-4.368.78-8.566-.859-11.235-4.382s-3.109-8.01-1.177-12.003c2.811-5.809 7.065-12.044 12.646-18.53 11.865-13.793 26.852-25.148 43.343-32.836 7.755-3.615 14.908-6.023 21.262-7.157 4.367-.779 8.567.859 11.235 4.382 2.669 3.523 3.109 8.01 1.177 12.003-1.694 3.501-3.936 7.194-6.662 10.974a7.49 7.49 0 0 0 12.148 8.761c3.234-4.484 5.924-8.928 7.996-13.211 4.368-9.026 3.326-19.59-2.72-27.57M89.274 19.568a4.595 4.595 0 0 1 4.59-4.59h190.89a4.595 4.595 0 0 1 4.59 4.59v54.769H89.274zm-10.85 89.843a1.493 1.493 0 0 1-1.491-1.491V90.806c0-.822.669-1.49 1.491-1.49h221.77c.822 0 1.491.668 1.491 1.49v17.114c0 .822-.669 1.491-1.491 1.491zm186.777 14.979v30.797H113.417V124.39zm43.027 365.557c-4.297 4.364-10.266 7.075-16.86 7.075H87.251c-13.062 0-23.689-10.627-23.689-23.689v-21.946h244.956a142 142 0 0 0-1.458 12.896c-.63 9.574-.232 18.198 1.168 25.664m6.828-236.485H130.417a7.49 7.49 0 0 0 0 14.978h184.639v157.184a146 146 0 0 0-3.348 10.784H63.562V268.441h31.81a7.49 7.49 0 0 0 0-14.978h-31.81V229.38a42.5 42.5 0 0 1 14.275-31.757l30.934-27.457h161.075l30.934 27.457a42.5 42.5 0 0 1 14.275 31.757zm55.355 169.066c-.457 6.933-1.51 13.85-3.094 20.652a142 142 0 0 0-8.428 8.964c-6.426 7.471-11.396 14.797-14.772 21.774-3.014 6.229-3.449 13.189-1.445 19.528-3.017 3.146-7.296 4.313-11.485 3.119-4.25-1.213-7.298-4.535-8.153-8.887-1.244-6.331-1.589-13.87-1.027-22.41 1.196-18.155 6.354-36.237 14.915-52.292 4.027-7.551 8.298-13.774 12.695-18.497 2.252-2.418 5.235-3.709 8.367-3.709 1.073 0 2.163.152 3.247.461 4.25 1.212 7.298 4.534 8.153 8.886 1.244 6.332 1.589 13.872 1.027 22.411"/><path d="M243.548 350.678a7.49 7.49 0 0 0 7.489-7.489v-7.688a7.49 7.49 0 0 0-14.978 0v7.688a7.49 7.49 0 0 0 7.489 7.489"/><path d="M86.651 309.608a13.89 13.89 0 0 0-4.97 9.684c-.552 7.964.044 21.823 8.6 33.132-8.558 11.31-9.153 25.167-8.6 33.131a13.89 13.89 0 0 0 4.969 9.685 13.94 13.94 0 0 0 10.467 3.099c21.193-2.491 33.59-12.216 40.558-20.803 9.861 12.602 22.298 22.066 37.006 28.15a93.3 93.3 0 0 0 35.731 7.094c12.225 0 24.5-2.387 36.229-7.096l.091-.036c20.914-8.373 39.526-23.833 48.572-44.646a21.6 21.6 0 0 0-.001-17.156c-4.792-11.024-12.692-20.955-21.845-28.707-7.758-6.572-15.923-11.403-25.192-15.306-23.382-9.844-50.067-10.399-73.585-.67-14.709 6.085-27.146 15.548-37.006 28.151-6.969-8.588-19.366-18.313-40.558-20.803a13.93 13.93 0 0 0-10.466 3.097m139.905-.863c.173-.248 3.682.828 4.1.935 16.185 4.122 31.313 12.882 42.017 25.851 4.594 5.566 7.339 10.716 8.893 14.292.581 1.338.661 3.045.255 4.484-.796 2.809-2.603 5.601-4.133 8.056-8.165 13.105-20.459 22.561-34.931 28.723l-.153.064a84 84 0 0 1-16.048 4.954c-8.942-12.849-13.644-27.858-13.644-43.679-.001-15.822 4.702-30.831 13.644-43.68m-99.198 29.724a12.72 12.72 0 0 0 10.231 5.27h.066a12.85 12.85 0 0 0 10.32-5.222c8.482-11.536 19.395-20.12 32.433-25.514a78.3 78.3 0 0 1 29.524-5.939c-7.871 13.744-11.999 29.195-11.999 45.36 0 16.166 4.128 31.617 12 45.362a78.3 78.3 0 0 1-29.525-5.939c-13.038-5.394-23.95-13.978-32.432-25.513a12.85 12.85 0 0 0-10.32-5.223h-.066a12.72 12.72 0 0 0-10.231 5.27c-6.752 9.388-17.112 15.082-30.803 16.934-.299-6.792.651-18.041 8.848-25.274a7.49 7.49 0 0 0 0-11.23c-8.197-7.233-9.147-18.479-8.848-25.273 13.69 1.85 24.05 7.543 30.802 16.931"/></svg>