<svg xmlns="http://www.w3.org/2000/svg" width="512" height="512" viewBox="0 0 511.987 511.987"><path fill="#c5d3dd" d="m471.696 109.42-69.123-69.123c-4.48-4.48-4.48-11.743 0-16.222l13.214-13.214c4.48-4.48 11.743-4.48 16.222 0l69.123 69.123c4.48 4.48 4.48 11.743 0 16.222l-13.214 13.214c-4.48 4.479-11.742 4.479-16.222 0"/><path fill="#9facba" d="m501.135 96.208-13.221 13.211c-4.48 4.481-11.738 4.481-16.218 0l-13.883-13.883c4.48 4.481 11.748 4.481 16.228 0l13.211-13.211c4.481-4.481 4.481-11.748 0-16.218l13.883 13.872c4.481 4.481 4.481 11.748 0 16.229"/><path fill="#d4f2f6" d="m143.114 412.937-44.059-44.059c-6.437-6.437-6.437-16.874 0-23.312l217.277-217.277 67.37 67.37-217.276 217.278c-6.438 6.437-16.875 6.437-23.312 0"/><path fill="#a6e7f0" d="M383.699 195.662 166.428 412.933c-6.435 6.445-16.88 6.445-23.315 0L129.83 399.65c6.435 6.445 16.88 6.445 23.315 0l217.271-217.271z"/><path fill="#fece85" d="m143.114 412.937-44.059-44.059c-6.437-6.437-6.437-16.874 0-23.312l140.554-140.554 67.37 67.37-140.553 140.555c-6.438 6.437-16.875 6.437-23.312 0"/><path fill="#fdb441" d="m306.978 272.382-140.55 140.551c-6.435 6.445-16.88 6.445-23.315 0l-13.281-13.281c6.435 6.445 16.88 6.445 23.315 0l140.551-140.551z"/><path fill="#ee6161" d="m67.059 458.087-13.153-13.153a5.31 5.31 0 0 1 0-7.511l30.786-30.786 20.664 20.664-30.786 30.786a5.31 5.31 0 0 1-7.511 0"/><path fill="#e94444" d="M105.354 427.297 74.572 458.09a5.32 5.32 0 0 1-7.518 0L57.01 448.035a5.306 5.306 0 0 0 7.508 0l30.792-30.782z"/><path fill="#6bd9e7" d="M105.312 427.257 84.735 406.68c-4.113-4.113-4.113-10.78 0-14.893l18.615-18.615 35.47 35.47-18.615 18.615c-4.113 4.112-10.781 4.112-14.893 0"/><path fill="#2ed1e2" d="m138.823 408.643-18.614 18.614c-4.12 4.11-10.785 4.11-14.895 0l-12.59-12.59c4.17 2.997 10.014 2.616 13.752-1.133L125.1 394.92z"/><path fill="#f9f3f1" d="m424.235 61.95 25.731 25.73-163.231 163.232-25.731-25.731z"/><path fill="#efe2dd" d="m437.102 74.815 12.866 12.866-163.231 163.231-12.866-12.866z"/><path fill="#8d9ca8" d="m239.611 204.966 67.36 67.36-34.007 34.007-67.36-67.36z"/><path fill="#7a8c98" d="m293.693 259.042 13.282 13.282-34.007 34.007-13.282-13.282z"/><path fill="#8d9ca8" d="m388.08 198.641-74.729-74.729c-4.188-4.188-4.188-10.978 0-15.165l19.239-19.239c4.188-4.188 10.978-4.188 15.165 0l74.729 74.729c4.188 4.188 4.188 10.978 0 15.165l-19.239 19.239c-4.188 4.188-10.977 4.188-15.165 0"/><path fill="#7a8c98" d="m422.48 179.403-19.235 19.235a10.72 10.72 0 0 1-15.166 0l-14.304-14.304c4.2 3.989 10.856 3.919 14.965-.19l19.245-19.245c4.059-4.05 4.19-10.555.381-14.765l14.113 14.103c4.191 4.191 4.191 10.977.001 15.166"/><path d="m506.436 74.68-12.405-12.406a7.5 7.5 0 0 0-10.606 0 7.5 7.5 0 0 0-.001 10.606l12.405 12.406a3.974 3.974 0 0 1 0 5.616l-13.214 13.214c-1.5 1.5-4.115 1.5-5.615 0l-69.123-69.123a3.974 3.974 0 0 1 0-5.616l13.214-13.214a3.974 3.974 0 0 1 5.615 0l31.751 31.751a7.5 7.5 0 0 0 10.607 0 7.5 7.5 0 0 0 0-10.606L437.313 5.557C433.73 1.974 428.965 0 423.898 0s-9.832 1.974-13.415 5.557l-13.214 13.214c-7.396 7.396-7.396 19.432 0 26.829l16.391 16.39-41.408 41.408-19.193-19.193a18.1 18.1 0 0 0-12.887-5.337 18.1 18.1 0 0 0-12.885 5.337l-19.24 19.239c-6.553 6.555-7.047 16.892-1.51 24.034l-27.617 27.617a7.5 7.5 0 0 0 10.607 10.606l26.805-26.805 10.211 10.211-66.117 66.116-10.211-10.211 14.792-14.792a7.5 7.5 0 0 0 0-10.606 7.5 7.5 0 0 0-10.607 0L93.752 340.263a23.83 23.83 0 0 0-7.025 16.959c0 5.928 2.14 11.525 6.049 15.918l-13.344 13.344c-5.119 5.119-6.492 12.571-4.156 18.961l-26.673 26.673c-2.42 2.419-3.753 5.637-3.753 9.059s1.333 6.639 3.752 9.059l1.273 1.273-47.674 47.675a7.5 7.5 0 0 0 0 10.606c1.464 1.465 3.384 2.197 5.303 2.197s3.839-.732 5.303-2.197l47.674-47.674 1.273 1.273a12.77 12.77 0 0 0 9.058 3.745c3.281 0 6.562-1.249 9.059-3.746l26.674-26.674a17.975 17.975 0 0 0 18.961-4.156l13.362-13.362a23.9 23.9 0 0 0 15.9 6.056c6.142 0 12.284-2.338 16.959-7.013l212.785-212.786a18.18 18.18 0 0 0 11.148 3.818c4.666 0 9.333-1.776 12.887-5.328l19.238-19.239c7.104-7.106 7.104-18.667 0-25.771l-19.193-19.193L450 98.332l16.39 16.39c3.583 3.583 8.348 5.557 13.415 5.557s9.832-1.973 13.415-5.557l13.214-13.214c7.398-7.396 7.397-19.431.002-26.828M337.15 159.713l15.129 15.129-65.533 65.533-15.129-15.129zM70.814 451.236l-10.058-10.058 23.935-23.935 10.058 10.058zm44.088-29.282a3.02 3.02 0 0 1-2.144.888 3.02 3.02 0 0 1-2.143-.888l-20.577-20.577c-.772-.772-.888-1.674-.888-2.143s.116-1.371.888-2.143l13.311-13.311 24.863 24.863zm46.221-14.321c-3.502 3.503-9.202 3.504-12.706 0l-44.059-44.059c-3.503-3.503-3.503-9.203 0-12.706L205.596 249.63l56.763 56.764zm111.844-111.844-56.764-56.764 23.406-23.406 56.764 56.763zm34.013-34.013-10.211-10.211 66.116-66.116 10.211 10.211zm110.2-92.235a3.227 3.227 0 0 1 0 4.559l-19.237 19.238a3.23 3.23 0 0 1-4.561 0h.001l-74.729-74.729a3.227 3.227 0 0 1 0-4.559l19.239-19.239a3.226 3.226 0 0 1 4.558 0zm-19.193-40.407-15.129-15.129 41.408-41.408 15.129 15.129z"/></svg>