<svg xmlns="http://www.w3.org/2000/svg" width="512" height="512"><path fill="#6bd9e7" d="M262.977 485.53H218.31v18.964H111.307c-9.787 0-17.721-7.934-17.721-17.721v-9.461c0-9.787 7.934-17.721 17.721-17.721h151.67z"/><path fill="#d4f2f6" d="M214.187 43.411V32.274c0-13.579-11.113-25.02-24.69-24.762-13.161.25-23.753 10.996-23.753 24.217v11.682c0 8.801-4.558 17.07-12.18 21.469-21.826 12.597-36.519 36.168-36.519 63.18v331.53h145.84V128.06c0-27.012-14.693-50.583-36.519-63.18-7.621-4.4-12.179-12.668-12.179-21.469"/><path fill="#a6e7f0" d="M262.889 128.059v331.529h-20.288V128.059c0-27.014-14.693-37.813-36.522-50.414-7.627-4.394-12.181-12.671-12.181-21.469v-23.9c0-9.829-5.815-18.536-14.182-22.49a24 24 0 0 1 9.779-2.272c13.582-.26 24.691 11.18 24.691 24.762v11.14c0 8.798 4.554 17.065 12.181 21.469 21.829 12.59 36.522 36.161 36.522 63.174"/><path fill="#ee6161" d="M196.128 278.239h222.285v176.109H196.128z"/><path fill="#e94444" d="M398.396 278.239h20.017v176.109h-20.017z"/><path fill="#f79595" d="m199.943 237.293 14.78-8.254a7.45 7.45 0 0 1 7.262 0l14.961 8.357a7.45 7.45 0 0 0 7.263 0l14.963-8.357a7.45 7.45 0 0 1 7.262 0l14.964 8.358a7.45 7.45 0 0 0 7.262 0l14.967-8.358a7.45 7.45 0 0 1 7.261 0l14.968 8.358a7.45 7.45 0 0 0 7.261 0l14.967-8.358a7.45 7.45 0 0 1 7.261 0l14.969 8.359a7.45 7.45 0 0 0 7.261 0l14.972-8.36a7.44 7.44 0 0 1 7.26 0l14.786 8.256a7.45 7.45 0 0 1 3.816 6.502v34.444H196.128v-34.444c0-2.7 1.459-5.187 3.815-6.503"/><path fill="#f47c7c" d="M418.415 243.79v34.45h-20.017v-34.45a7.45 7.45 0 0 0-3.813-6.496l-8.417-4.694 6.386-3.563a7.43 7.43 0 0 1 7.256 0l14.793 8.257a7.45 7.45 0 0 1 3.812 6.496"/><path fill="#f79595" d="m199.943 495.293 14.78 8.254a7.45 7.45 0 0 0 7.262 0l14.961-8.357a7.45 7.45 0 0 1 7.263 0l14.963 8.357a7.45 7.45 0 0 0 7.262 0l14.964-8.358a7.45 7.45 0 0 1 7.262 0l14.967 8.358a7.45 7.45 0 0 0 7.261 0l14.968-8.358a7.45 7.45 0 0 1 7.261 0l14.967 8.358a7.45 7.45 0 0 0 7.261 0l14.969-8.359a7.45 7.45 0 0 1 7.261 0l14.972 8.36a7.44 7.44 0 0 0 7.26 0l14.786-8.256a7.45 7.45 0 0 0 3.816-6.502v-34.444H196.128v34.444c0 2.7 1.459 5.188 3.815 6.503"/><path fill="#f47c7c" d="M418.415 454.343v34.45a7.45 7.45 0 0 1-3.813 6.496l-14.793 8.257a7.43 7.43 0 0 1-7.256 0l-6.386-3.563 8.417-4.694a7.44 7.44 0 0 0 3.813-6.496v-34.45z"/><path fill="#f9f3f1" d="M307.268 305.774c-33.419 0-60.523 27.094-60.523 60.523 0 33.419 27.104 60.523 60.523 60.523 33.429 0 60.523-27.104 60.523-60.523-.001-33.429-27.094-60.523-60.523-60.523m0 92.01c-17.385 0-31.487-14.102-31.487-31.487 0-17.395 14.102-31.487 31.487-31.487 17.395 0 31.487 14.092 31.487 31.487 0 17.385-14.092 31.487-31.487 31.487"/><path fill="#efe2dd" d="M336.353 313.21c10.369 10.859 16.735 25.572 16.735 41.776 0 33.419-27.094 60.523-60.523 60.523a60.25 60.25 0 0 1-29.095-7.447c11.02 11.55 26.573 18.756 43.798 18.756 33.429 0 60.523-27.104 60.523-60.523-.001-22.888-12.702-42.806-31.438-53.085"/><path d="m418.256 230.739-14.785-8.255c-4.498-2.512-10.084-2.511-14.58 0l-14.914 8.359-14.969-8.359c-4.498-2.51-10.085-2.51-14.581 0l-14.909 8.359-14.968-8.358c-4.497-2.511-10.084-2.511-14.581 0l-14.908 8.358-14.668-8.193v-94.59c0-28.644-15.431-55.344-40.272-69.682-5.198-2.999-8.426-8.735-8.426-14.967V32.275c0-8.648-3.561-17.103-9.77-23.195C205.8 3.069 197.802-.167 189.356.007c-17.157.325-31.117 14.556-31.117 31.722v11.682c0 6.232-3.228 11.968-8.425 14.968-24.842 14.337-40.273 41.038-40.273 69.682v23.978a7.506 7.506 0 1 0 15.013 0V128.06c0-23.297 12.555-45.015 32.765-56.679 9.829-5.673 15.934-16.39 15.934-27.97V31.729c0-9.044 7.352-16.54 16.389-16.712l.304-.003c4.254 0 8.315 1.691 11.465 4.782 3.35 3.287 5.271 7.835 5.271 12.479v11.136c0 11.58 6.106 22.298 15.935 27.97 20.209 11.665 32.764 33.383 32.764 56.679v94.5l-14.772 8.282-14.96-8.356c-4.497-2.512-10.085-2.513-14.584-.001l-14.78 8.255a14.96 14.96 0 0 0-7.662 13.055v208.289h-64.07V186.575a7.506 7.506 0 1 0-15.013 0v265.578c-13.088.911-23.459 11.843-23.459 25.159v9.461c0 13.911 11.316 25.228 25.227 25.228H218.31c.216 0 5.265-.741 7.336-1.899l14.904-8.357 14.962 8.357c4.5 2.513 10.088 2.512 14.584 0L285 501.744l14.968 8.359c4.498 2.51 10.086 2.51 14.58 0l14.91-8.358 14.967 8.358c4.497 2.511 10.084 2.512 14.581 0l14.911-8.359 14.972 8.359c2.249 1.256 4.77 1.884 7.291 1.884s5.042-.628 7.29-1.883l14.786-8.255a14.97 14.97 0 0 0 7.664-13.056V243.795a14.97 14.97 0 0 0-7.664-13.056M111.307 496.987c-5.632 0-10.214-4.582-10.214-10.214v-9.461c0-5.632 4.582-10.214 10.214-10.214h77.314v21.695c0 2.963.884 5.799 2.455 8.195zm92.328-253.158 14.691-8.237 14.961 8.357c4.5 2.513 10.088 2.512 14.584 0l14.905-8.357 14.963 8.357c4.498 2.512 10.086 2.512 14.582.001l14.909-8.358 14.969 8.359c4.498 2.51 10.085 2.51 14.581 0l14.909-8.359 14.968 8.358c4.498 2.512 10.084 2.512 14.58.001l14.914-8.36 14.756 8.203v26.938H203.635zm0 41.916h207.272V446.84H203.635zm192.574 211.25-14.972-8.359c-2.249-1.256-4.77-1.884-7.291-1.884s-5.042.628-7.29 1.883l-14.911 8.359-14.966-8.357c-4.497-2.512-10.085-2.512-14.582-.001l-14.909 8.358-14.967-8.358c-4.498-2.511-10.084-2.512-14.582 0l-14.906 8.358-14.962-8.357c-4.499-2.512-10.087-2.511-14.584 0l-14.903 8.357-14.749-8.238v-26.903h207.279l.023 26.885z"/><path d="M307.271 298.265c-37.511 0-68.029 30.517-68.029 68.029s30.518 68.028 68.029 68.028c15.396 0 29.92-5.018 42.001-14.511a7.507 7.507 0 0 0-9.275-11.805c-9.411 7.395-20.727 11.303-32.726 11.303-29.234 0-53.016-23.782-53.016-53.015s23.782-53.015 53.016-53.015c29.232 0 53.015 23.782 53.015 53.015a53 53 0 0 1-2.773 16.973 7.507 7.507 0 1 0 14.223 4.804 67.9 67.9 0 0 0 3.563-21.777c0-37.512-30.517-68.029-68.028-68.029"/><path d="M307.271 327.3c-21.501 0-38.994 17.492-38.994 38.993s17.493 38.993 38.994 38.993 38.993-17.492 38.993-38.993-17.492-38.993-38.993-38.993m0 62.973c-13.223 0-23.981-10.757-23.981-23.98 0-13.222 10.758-23.98 23.981-23.98 13.222 0 23.98 10.757 23.98 23.98s-10.758 23.98-23.98 23.98"/></svg>