<svg xmlns="http://www.w3.org/2000/svg" width="512" height="512"><path fill="#7acaa6" d="M382.663 101.912h35.071v308.176h-35.071z"/><path fill="#57be92" d="M399.212 101.912h18.523v308.176h-18.523z"/><path fill="#f9f3f1" d="M293.454 117.878c0 14.429-10.483 26.673-15.686 39.22-5.394 13.007-6.84 29.026-16.643 38.829-9.802 9.802-25.821 11.249-38.828 16.642-12.548 5.203-24.791 15.686-39.22 15.686s-26.673-10.483-39.22-15.686c-13.007-5.394-29.026-6.84-38.829-16.643-9.802-9.802-11.249-25.821-16.642-38.828-5.203-12.548-15.686-24.791-15.686-39.22s10.483-26.673 15.686-39.22c5.394-13.007 6.84-29.026 16.643-38.829 9.802-9.802 25.821-11.249 38.828-16.642 12.548-5.203 24.791-15.686 39.22-15.686s26.673 10.483 39.22 15.686c13.007 5.394 29.026 6.84 38.829 16.643 9.802 9.802 11.249 25.821 16.642 38.828 5.203 12.548 15.686 24.791 15.686 39.22M293.454 394.122c0 14.429-10.483 26.673-15.686 39.22-5.394 13.007-6.84 29.026-16.643 38.829-9.802 9.802-25.821 11.249-38.828 16.642-12.548 5.203-24.791 15.686-39.22 15.686s-26.673-10.483-39.22-15.686c-13.007-5.394-29.026-6.84-38.829-16.643-9.802-9.802-11.249-25.821-16.642-38.828-5.203-12.548-15.686-24.791-15.686-39.22s10.483-26.673 15.686-39.22c5.394-13.007 6.84-29.026 16.643-38.829 9.802-9.802 25.821-11.249 38.828-16.642 12.548-5.203 24.791-15.686 39.22-15.686s26.673 10.483 39.22 15.686c13.007 5.394 29.026 6.84 38.829 16.643 9.802 9.802 11.249 25.821 16.642 38.828 5.203 12.547 15.686 24.79 15.686 39.22"/><path fill="#efe2dd" d="M293.449 117.876c0 14.432-10.482 26.675-15.683 39.227-5.391 13.002-6.841 29.025-16.643 38.827s-25.824 11.242-38.827 16.643c-12.552 5.201-24.794 15.683-39.217 15.683-7.711 0-14.803-3.001-21.654-6.581.48.03.96.04 1.45.04 14.422 0 26.665-10.482 39.217-15.683 13.002-5.391 29.025-6.841 38.827-16.643s11.252-25.824 16.643-38.827c5.201-12.552 15.683-24.794 15.683-39.217 0-14.432-10.482-26.675-15.683-39.227-5.391-13.002-6.841-29.025-16.643-38.827-3.511-3.511-7.811-5.951-12.492-7.871 11.612 3.801 24.384 6.101 32.696 14.412 9.802 9.802 11.252 25.814 16.643 38.827 5.201 12.543 15.683 24.795 15.683 39.217M293.449 394.124c0 14.423-10.482 26.675-15.683 39.217-5.391 13.012-6.841 29.025-16.643 38.827s-25.824 11.252-38.827 16.643c-12.552 5.201-24.794 15.693-39.217 15.693-7.701 0-14.783-2.991-21.624-6.581.47.03.94.04 1.42.04 14.422 0 26.665-10.482 39.217-15.683 13.002-5.401 29.025-6.841 38.827-16.643s11.252-25.824 16.643-38.827c5.201-12.552 15.683-24.794 15.683-39.227 0-14.422-10.482-26.675-15.683-39.217-5.391-13.012-6.841-29.025-16.643-38.827-3.511-3.511-7.821-5.951-12.502-7.881 11.622 3.801 24.394 6.101 32.706 14.412 9.802 9.802 11.252 25.824 16.643 38.827 5.201 12.552 15.683 24.794 15.683 39.227"/><path d="M84.986 149.981a7.5 7.5 0 0 0 2.959-10.187c-4.237-7.705-7.744-14.673-7.744-21.915 0-7.908 4.223-15.549 8.694-23.638 4.767-8.625 8.288-17.196 11.078-26.648 2.604-8.826 5.063-17.162 10.36-22.459 5.298-5.297 13.634-7.757 22.461-10.36 9.514-2.806 18.009-6.304 26.644-11.076 8.089-4.471 15.731-8.695 23.639-8.695s15.549 4.223 23.639 8.695c8.644 4.777 17.119 8.266 26.645 11.076 8.827 2.604 17.164 5.064 22.461 10.361s7.756 13.634 10.361 22.461c2.85 9.665 6.144 17.719 11.077 26.645 4.47 8.089 8.694 15.73 8.694 23.638s-4.223 15.549-8.694 23.638c-4.804 8.692-8.258 17.09-11.077 26.645-2.604 8.826-5.063 17.163-10.361 22.461-5.297 5.297-13.633 7.757-22.459 10.36-9.449 2.788-18.023 6.312-26.647 11.077-8.089 4.471-15.73 8.694-23.638 8.694s-15.549-4.223-23.639-8.694c-8.615-4.761-17.195-8.289-26.645-11.077-8.827-2.604-17.163-5.063-22.46-10.361-4.134-4.134-6.539-9.992-8.877-17.518-1.229-3.955-5.433-6.17-9.389-4.937a7.5 7.5 0 0 0-4.938 9.39c2.594 8.348 5.916 16.994 12.595 23.673 7.999 7.998 18.585 11.121 28.824 14.142 8.415 2.482 15.961 5.578 23.633 9.818 8.961 4.953 19.119 10.566 30.896 10.566s21.934-5.613 30.895-10.566c7.682-4.246 15.24-7.342 23.636-9.818 10.238-3.021 20.824-6.144 28.822-14.142s11.121-18.585 14.142-28.824c2.488-8.433 5.582-15.971 9.817-23.634 4.953-8.961 10.566-19.118 10.566-30.895s-5.613-21.934-10.566-30.895c-4.247-7.684-7.34-15.237-9.818-23.634-3.02-10.238-6.144-20.825-14.14-28.823-7.998-7.998-18.586-11.122-28.824-14.142-8.425-2.486-15.978-5.586-23.634-9.818C205.011 5.614 194.854 0 183.077 0c-11.778 0-21.936 5.614-30.897 10.567-7.671 4.24-15.225 7.337-23.632 9.817-10.238 3.021-20.825 6.144-28.823 14.142-7.997 7.997-11.121 18.584-14.141 28.823-2.459 8.333-5.605 16.01-9.819 23.635-4.953 8.961-10.566 19.118-10.566 30.895 0 10.79 4.541 19.942 9.6 29.144a7.5 7.5 0 0 0 10.187 2.958M284.934 351.93a121 121 0 0 1-4.363-12.338c-3.02-10.239-6.144-20.825-14.14-28.823-7.998-7.998-18.585-11.121-28.823-14.142-8.409-2.48-15.962-5.576-23.636-9.818-8.961-4.953-19.118-10.566-30.895-10.566s-21.935 5.613-30.896 10.566c-16.425 9.077-38.715 10.218-52.456 23.959-7.997 7.997-11.121 18.584-14.141 28.822-2.494 8.454-5.537 15.888-9.819 23.635-4.953 8.961-10.566 19.118-10.566 30.895s5.613 21.934 10.567 30.897c4.285 7.75 7.291 15.073 9.816 23.632 3.021 10.238 6.145 20.826 14.142 28.824 7.999 7.998 18.586 11.122 28.825 14.142 8.398 2.477 15.93 5.56 23.633 9.817 8.96 4.953 19.118 10.566 30.895 10.566s21.934-5.614 30.896-10.566c7.816-4.319 15.142-7.313 23.634-9.818 10.238-3.021 20.825-6.144 28.823-14.142s11.121-18.586 14.142-28.824c2.455-8.325 5.611-16.023 9.817-23.633 4.953-8.961 10.566-19.118 10.566-30.895s-5.613-21.934-10.566-30.894a114 114 0 0 1-5.455-11.296m-7.676 65.831c-4.759 8.608-8.284 17.181-11.076 26.644-2.604 8.827-5.063 17.164-10.36 22.461-5.298 5.297-13.634 7.757-22.461 10.36-9.568 2.822-17.898 6.242-26.645 11.077-8.09 4.471-15.731 8.694-23.639 8.694s-15.549-4.223-23.638-8.694c-8.778-4.852-17.056-8.247-26.645-11.076-8.827-2.604-17.164-5.064-22.461-10.361-5.298-5.298-7.757-13.635-10.361-22.461-2.825-9.574-6.265-17.939-11.077-26.646-4.471-8.089-8.694-15.73-8.694-23.638s4.223-15.549 8.694-23.638c4.741-8.578 8.302-17.241 11.078-26.648 2.604-8.825 5.063-17.162 10.361-22.459 5.297-5.297 13.633-7.757 22.461-10.361 9.584-2.828 17.903-6.246 26.644-11.076 8.09-4.471 15.731-8.694 23.639-8.694s15.549 4.223 23.64 8.695c8.809 4.871 16.86 8.189 26.645 11.076 8.827 2.604 17.163 5.063 22.46 10.361 5.297 5.297 7.756 13.633 10.36 22.459 2.763 9.365 6.353 18.1 11.077 26.648 4.47 8.089 8.694 15.73 8.694 23.637-.001 7.908-4.225 15.549-8.696 23.64"/><path fill="#f9f3f1" d="M439.27 461.093c-.362-12.457-4.37-31.455-21.536-51.006h-35.071c-17.167 19.551-21.174 38.549-21.536 51.006-.666 22.884 14.79 43.405 39.072 43.405 16.676 0 32.588-11.399 37.305-27.554 1.497-5.13 1.921-10.525 1.766-15.851"/><path fill="#efe2dd" d="M437.504 476.948c-4.721 16.153-20.634 27.555-37.306 27.555-3.341 0-6.501-.39-9.492-1.11 13.102-3.231 24.424-13.252 28.275-26.445 1.5-5.131 1.92-10.532 1.77-15.853-.37-12.462-4.371-31.455-21.544-51.009h18.523c17.173 19.553 21.174 38.547 21.544 51.009.15 5.321-.27 10.722-1.77 15.853"/><path fill="#f9f3f1" d="M439.27 50.91c-.362 12.457-4.37 31.455-21.536 51.006h-35.071c-17.167-19.551-21.174-38.549-21.536-51.006-.666-22.884 14.79-43.405 39.072-43.405 16.676 0 32.588 11.399 37.305 27.554 1.497 5.131 1.921 10.526 1.766 15.851"/><path fill="#efe2dd" d="M437.504 35.056c-4.721-16.153-20.634-27.555-37.306-27.555-3.341 0-6.501.39-9.492 1.11 13.102 3.231 24.424 13.252 28.275 26.445 1.5 5.131 1.92 10.532 1.77 15.853-.37 12.462-4.371 31.455-21.544 51.009h18.523c17.173-19.553 21.174-38.547 21.544-51.009.15-5.321-.27-10.722-1.77-15.853"/><path d="M446.768 460.875c-.386-13.255-4.49-33.117-21.533-53.554v-50.999c0-4.143-3.358-7.501-7.501-7.501s-7.501 3.358-7.501 7.501v46.265h-20.069v-293.17h20.069V321.29c0 4.143 3.358 7.501 7.501 7.501s7.501-3.358 7.501-7.501V104.683c17.043-20.437 21.147-40.299 21.533-53.553.198-6.793-.478-12.737-2.065-18.173C439.129 13.863 420.412.004 400.198.004c-12.529 0-24.104 4.811-32.587 13.545-9.302 9.576-14.398 23.273-13.983 37.579.386 13.254 4.49 33.116 21.533 53.554v302.64c-17.043 20.439-21.147 40.3-21.533 53.555-.415 14.305 4.68 28.002 13.983 37.579C376.096 507.19 387.668 512 400.199 512c20.214 0 38.931-13.859 44.505-32.953 1.587-5.435 2.263-11.38 2.064-18.172M378.373 24.002c5.716-5.885 13.264-8.996 21.826-8.996 13.474 0 26.416 9.525 30.104 22.155 1.14 3.905 1.62 8.332 1.469 13.53-.312 10.723-3.663 26.802-17.507 43.718h-28.133c-13.844-16.917-17.195-32.997-17.507-43.719-.299-10.275 3.254-20.003 9.748-26.688m51.93 450.84c-3.688 12.631-16.63 22.155-30.104 22.155-8.562 0-16.11-3.11-21.826-8.996-6.493-6.685-10.047-16.413-9.748-26.689.312-10.723 3.664-26.804 17.51-43.723h28.127c13.846 16.917 17.198 32.999 17.51 43.722.151 5.2-.33 9.626-1.469 13.531"/></svg>