<svg xmlns="http://www.w3.org/2000/svg" width="512" height="512"><path fill="#d4f2f6" d="M305.906 106.599V70.266h-99.813v36.333c0 5.775-2.673 11.23-7.252 14.749-22.34 17.165-36.742 44.148-36.742 74.498v288.195c0 11.297 9.158 20.454 20.454 20.454h146.892c11.297 0 20.454-9.158 20.454-20.454V195.845c0-30.35-14.402-57.333-36.742-74.498a18.6 18.6 0 0 1-7.251-14.748"/><path fill="#a6e7f0" d="M349.905 195.848v288.197c0 11.292-9.161 20.453-20.463 20.453h-19.883c11.292 0 20.453-9.162 20.453-20.453V195.848c0-30.355-14.402-46.058-36.746-63.22a18.59 18.59 0 0 1-7.251-14.752V70.268h19.893v36.336c0 5.771 2.67 11.222 7.251 14.742 22.344 17.163 36.746 44.147 36.746 74.502"/><path fill="#fece85" d="M349.905 195.848v288.197c0 11.292-9.161 20.453-20.463 20.453H182.558c-11.302 0-20.463-9.162-20.463-20.453V195.848c0-14.522 3.291-28.265 9.172-40.527h169.468c5.88 12.263 9.17 26.005 9.17 40.527"/><path fill="#fdb441" d="M349.905 195.848v288.197c0 11.292-9.161 20.453-20.463 20.453h-19.883c11.292 0 20.453-9.162 20.453-20.453V195.848c0-17.263-4.651-29.775-12.782-40.527h23.504c.31.64.61 1.29.9 1.94a121 121 0 0 1 2.25 5.441c2.778 7.159 4.527 14.813 5.411 22.414.41 3.522.61 7.208.61 10.732"/><path fill="#8d9ca8" d="M319.971 70.266H192.029c-5.545 0-10.04-4.495-10.04-10.04V17.541c0-5.545 4.495-10.04 10.04-10.04h127.942c5.545 0 10.04 4.495 10.04 10.04v42.685c0 5.545-4.495 10.04-10.04 10.04"/><path fill="#7a8c98" d="M330.012 17.539v42.687c0 5.541-4.501 10.042-10.042 10.042h-20.453c5.551 0 10.042-4.501 10.042-10.042V17.539c0-5.541-4.491-10.042-10.042-10.042h20.453c5.541 0 10.042 4.501 10.042 10.042"/><path fill="#7acaa6" d="M279.443 393.21H162.099V229.163h117.344c7.703 0 13.948 6.245 13.948 13.948v136.151c0 7.703-6.244 13.948-13.948 13.948"/><path fill="#57be92" d="M293.396 243.106v136.152c0 7.711-6.251 13.952-13.952 13.952h-20.003c7.701 0 13.952-6.241 13.952-13.952V243.106c0-7.701-6.251-13.942-13.952-13.942h20.003c7.701 0 13.952 6.241 13.952 13.942"/><path fill="#ee6161" d="M245.794 298.207c-11.756 0-21.286-9.53-21.286-21.286s9.53-21.286 21.286-21.286 21.286 9.53 21.286 21.286-9.53 21.286-21.286 21.286"/><path fill="#e94444" d="M267.077 276.917a21.22 21.22 0 0 1-6.231 15.053 21.18 21.18 0 0 1-15.053 6.241c-8.971 0-16.653-5.561-19.783-13.422a21.2 21.2 0 0 0 6.871 1.14c5.871 0 11.192-2.38 15.052-6.231a21.22 21.22 0 0 0 6.231-15.052c0-2.78-.53-5.441-1.51-7.871a21.1 21.1 0 0 1 8.191 5.091c3.852 3.86 6.232 9.181 6.232 15.051"/><path d="M355.912 178.402a102 102 0 0 0-1.674-7.855c-5.538-21.715-18.178-41.063-36.509-55.147-2.706-2.079-4.322-5.369-4.322-8.801V77.767h6.563c9.672 0 17.541-7.868 17.541-17.541V17.541C337.512 7.868 329.643 0 319.971 0h-67.018c-4.143 0-7.501 3.358-7.501 7.501s3.358 7.501 7.501 7.501h67.018c1.4 0 2.539 1.139 2.539 2.539v42.685c0 1.4-1.139 2.538-2.539 2.538H192.029a2.54 2.54 0 0 1-2.539-2.538V17.541c0-1.4 1.139-2.539 2.539-2.539h26.248c4.143 0 7.501-3.358 7.501-7.501S222.42 0 218.277 0h-26.248c-9.672 0-17.541 7.868-17.541 17.541v42.685c0 9.672 7.869 17.541 17.541 17.541h6.563v28.832c0 3.432-1.615 6.722-4.321 8.801-9.901 7.61-18.356 17.078-24.867 27.731a101.6 101.6 0 0 0-8.383 17.089c-4.219 11.181-6.427 23.708-6.427 35.63v288.197c0 15.415 12.545 27.955 27.965 27.955h146.884c15.42 0 27.965-12.54 27.965-27.955V195.85a103 103 0 0 0-1.496-17.448m-152.5-51.106c6.376-4.899 10.183-12.637 10.183-20.698V77.767h84.811v28.832c0 8.061 3.807 15.799 10.183 20.698 7.634 5.866 14.105 12.805 19.284 20.524H184.127c5.18-7.719 11.65-14.659 19.285-20.525m138.987 356.745c0 7.143-5.811 12.953-12.953 12.953H182.554c-7.142 0-12.953-5.811-12.953-12.953v-83.329h109.843c11.827 0 21.449-9.622 21.449-21.449v-21.269c0-4.143-3.358-7.501-7.501-7.501s-7.501 3.358-7.501 7.501v21.269a6.454 6.454 0 0 1-6.447 6.446H169.601V236.664h109.843a6.454 6.454 0 0 1 6.447 6.446v80.166c0 4.143 3.358 7.501 7.501 7.501s7.501-3.358 7.501-7.501V243.11c0-11.827-9.622-21.449-21.449-21.449H169.601l.007-26.311c.061-11.059 2.273-22.303 6.519-32.528h159.747c4.289 10.331 6.455 21.316 6.518 32.517.054 7.868.008 287.379.007 288.702"/><path d="M245.794 248.133c-15.873 0-28.787 12.914-28.787 28.788 0 15.873 12.914 28.787 28.787 28.787s28.787-12.914 28.787-28.787-12.914-28.788-28.787-28.788m0 42.573c-7.601 0-13.785-6.184-13.785-13.784s6.184-13.785 13.785-13.785 13.785 6.185 13.785 13.785-6.184 13.784-13.785 13.784"/></svg>