<svg xmlns="http://www.w3.org/2000/svg" width="512" height="512"><path fill="#f9f3f1" d="M415.982 7.5H96.017a6.1 6.1 0 0 0-6.099 6.099v480.808c0 4.848 5.383 7.758 9.439 5.103l20.443-13.38a6.1 6.1 0 0 1 6.68 0l26.542 17.373a6.1 6.1 0 0 0 6.681 0l26.537-17.372a6.1 6.1 0 0 1 6.681 0l26.538 17.372a6.1 6.1 0 0 0 6.681 0l26.536-17.372a6.1 6.1 0 0 1 6.681 0l26.535 17.371a6.1 6.1 0 0 0 6.682 0l26.531-17.371a6.1 6.1 0 0 1 6.682 0l26.53 17.37a6.1 6.1 0 0 0 6.682 0l26.527-17.37a6.1 6.1 0 0 1 6.682 0l20.434 13.378c4.056 2.656 9.44-.255 9.44-5.103V13.599a6.1 6.1 0 0 0-6.1-6.099"/><path fill="#efe2dd" d="M422.085 13.598v480.813c0 4.84-5.391 7.751-9.441 5.1l-10.561-6.921V13.598a6.1 6.1 0 0 0-6.101-6.101h20.002a6.1 6.1 0 0 1 6.101 6.101"/><path fill="#ee6161" d="M304.512 105.709h-22.457a8.004 8.004 0 0 1-8.004-8.004V75.247a8.004 8.004 0 0 0-8.004-8.004h-20.093a8.004 8.004 0 0 0-8.004 8.004v22.457a8.004 8.004 0 0 1-8.004 8.004h-22.457a8.004 8.004 0 0 0-8.004 8.004v20.093a8.004 8.004 0 0 0 8.004 8.004h22.457a8.004 8.004 0 0 1 8.004 8.004v22.457a8.004 8.004 0 0 0 8.004 8.004h20.093a8.004 8.004 0 0 0 8.004-8.004v-22.457a8.004 8.004 0 0 1 8.004-8.004h22.457a8.004 8.004 0 0 0 8.004-8.004v-20.093a8.004 8.004 0 0 0-8.004-8.003"/><path fill="#e94444" d="M261.92 141.806h20.132c-4.42 0-8.001 3.59-8.001 8.011v22.452c0 4.42-3.58 8.011-8.001 8.011h-20.102c4.4-.02 7.961-3.6 7.961-8.011v-22.452c.001-4.421 3.591-8.011 8.011-8.011M282.052 105.713H261.92a8.016 8.016 0 0 1-8.011-8.011V75.25c0-4.411-3.56-7.991-7.961-8.011h20.102c4.42 0 8.001 3.59 8.001 8.011v22.452c0 4.421 3.581 8.011 8.001 8.011M312.515 113.713v20.092c0 4.42-3.58 8.001-8.001 8.001h-20.142c4.42 0 8.011-3.58 8.011-8.001v-20.092c0-4.42-3.59-8.001-8.011-8.001h20.142a8 8 0 0 1 8.001 8.001"/><path d="M89.918 355.542a7.5 7.5 0 0 0 7.501-7.501V15.001h241.576a7.501 7.501 0 0 0 0-15.001H96.018c-7.499 0-13.6 6.101-13.6 13.6v334.442a7.5 7.5 0 0 0 7.5 7.5M415.982 0h-41.796a7.501 7.501 0 0 0 0 15.002h40.395v476.813l-18.266-11.959a13.6 13.6 0 0 0-14.898.002l-25.759 16.867-25.761-16.867a13.6 13.6 0 0 0-14.901 0l-25.763 16.868-25.767-16.87a13.6 13.6 0 0 0-14.898 0l-25.768 16.87-25.77-16.87a13.6 13.6 0 0 0-14.898 0l-25.769 16.87-25.776-16.872a13.6 13.6 0 0 0-14.894.001l-18.274 11.961V383.131a7.501 7.501 0 0 0-15.002 0v111.277c0 5 2.733 9.584 7.131 11.963a13.59 13.59 0 0 0 13.917-.584l19.675-12.879 25.773 16.871c2.262 1.481 4.856 2.221 7.449 2.221s5.186-.74 7.449-2.221l25.769-16.87 25.77 16.87a13.6 13.6 0 0 0 14.898 0l25.768-16.87 25.767 16.87a13.6 13.6 0 0 0 14.899-.001l25.763-16.868 25.761 16.866a13.59 13.59 0 0 0 14.901.001l25.76-16.868 19.666 12.876a13.59 13.59 0 0 0 13.917.585 13.59 13.59 0 0 0 7.132-11.964V13.6c0-7.499-6.1-13.6-13.6-13.6"/><path d="M266.046 59.743h-20.093c-8.55 0-15.505 6.956-15.505 15.505v22.457a.504.504 0 0 1-.503.504h-22.457c-8.55 0-15.505 6.956-15.505 15.504v20.093c0 8.55 6.956 15.505 15.505 15.505h22.457c.277 0 .503.226.503.504v22.457c0 8.55 6.955 15.504 15.505 15.504h20.093c8.55 0 15.505-6.955 15.505-15.504v-22.457c0-.278.226-.504.503-.504h22.458c8.55 0 15.505-6.956 15.505-15.505v-20.093c0-8.549-6.955-15.504-15.505-15.504h-22.458a.504.504 0 0 1-.503-.504V75.248c0-8.55-6.955-15.505-15.505-15.505m16.009 53.467h22.458c.278 0 .503.226.503.503v20.093a.504.504 0 0 1-.503.504h-22.458c-8.55 0-15.505 6.956-15.505 15.505v22.457a.504.504 0 0 1-.503.503h-20.093a.503.503 0 0 1-.503-.503v-22.457c0-8.55-6.955-15.505-15.505-15.505h-22.457a.504.504 0 0 1-.504-.504v-20.093c0-.277.226-.503.504-.503h22.457c8.55 0 15.505-6.956 15.505-15.505V75.248c0-.278.226-.504.503-.504h20.093c.278 0 .503.226.503.504v22.457c0 8.55 6.955 15.505 15.505 15.505M298.315 436.519c2.362 4.929 7.177 7.565 13.211 7.22 4.202-.237 7.335-2.356 9.846-4.395a70 70 0 0 0 6.684-6.203c4.139 5.59 11.356 8.911 19.01 8.397 6.865-.462 13.682-3.799 19.715-9.65a7.5 7.5 0 0 0-10.444-10.768c-3.4 3.298-7.05 5.234-10.28 5.451-2.734.186-5.662-1.261-6.391-3.157-.875-2.276.274-6.279 1.113-9.202a7.502 7.502 0 0 0-13.961-5.338 55.7 55.7 0 0 1-14.907 18.827l-.058.048c.238-2.167 1.059-5.785 3.245-11.128 2.775-6.782 5.989-12.063 6.778-12.996a7.5 7.5 0 1 0-11.149-10.037 288 288 0 0 1-28.904 27.876 1185 1185 0 0 1 25.219-52.463 7.501 7.501 0 0 0-13.356-6.831 1202 1202 0 0 0-37.124 79.672c-2.059 4.879 1.645 10.418 6.911 10.418a7.5 7.5 0 0 0 4.227-1.305 302 302 0 0 0 29.123-22.599c-.075 3 .355 5.79 1.492 8.163M272.772 242.872H148.645c-4.142 0-7.5-3.357-7.5-7.5s3.358-7.5 7.5-7.5h124.127c4.142 0 7.5 3.357 7.5 7.5s-3.357 7.5-7.5 7.5M363.352 242.872h-26.838c-4.142 0-7.5-3.357-7.5-7.5s3.358-7.5 7.5-7.5h26.838c4.142 0 7.5 3.357 7.5 7.5s-3.358 7.5-7.5 7.5M221.309 286.58h-72.664c-4.142 0-7.5-3.357-7.5-7.5s3.358-7.5 7.5-7.5h72.664c4.142 0 7.5 3.357 7.5 7.5s-3.358 7.5-7.5 7.5M363.352 286.58h-26.838c-4.142 0-7.5-3.357-7.5-7.5s3.358-7.5 7.5-7.5h26.838c4.142 0 7.5 3.357 7.5 7.5s-3.358 7.5-7.5 7.5M272.772 330.288H148.645c-4.142 0-7.5-3.357-7.5-7.5s3.358-7.5 7.5-7.5h124.127c4.142 0 7.5 3.357 7.5 7.5s-3.357 7.5-7.5 7.5M363.352 330.288h-26.838c-4.142 0-7.5-3.357-7.5-7.5s3.358-7.5 7.5-7.5h26.838c4.142 0 7.5 3.357 7.5 7.5s-3.358 7.5-7.5 7.5"/></svg>