<svg xmlns="http://www.w3.org/2000/svg" width="512" height="512" viewBox="0 0 511.932 511.932"><path fill="#d4f2f6" d="M433.086 43.836v424.26c0 20.07-16.27 36.34-36.33 36.34h-281.58c-20.06 0-36.33-16.27-36.33-36.34V43.836c0-20.07 16.27-36.34 36.33-36.34h281.58c20.06 0 36.33 16.27 36.33 36.34"/><path fill="#a6e7f0" d="M433.086 43.836v424.26c0 20.07-16.27 36.34-36.33 36.34h-20c20.06 0 36.33-16.27 36.33-36.34V43.836c0-20.07-16.27-36.34-36.33-36.34h20c20.06 0 36.33 16.27 36.33 36.34"/><path fill="#8d9ca8" d="m255.966 7.501-67.121-.005 5.792 23.761a13.97 13.97 0 0 0 13.57 10.66h95.518c6.44 0 12.045-4.403 13.57-10.66l5.792-23.761z"/><path fill="#7a8c98" d="m323.086 7.496-5.79 23.76a13.97 13.97 0 0 1-13.57 10.66h-22.13c6.44 0 12.04-4.4 13.57-10.66l5.79-23.76z"/><path fill="#8d9ca8" d="M433.086 435.066v33.03c0 20.07-16.27 36.34-36.33 36.34h-281.58c-20.06 0-36.33-16.27-36.33-36.34v-33.03z"/><path fill="#7a8c98" d="M433.086 435.066v33.03c0 20.07-16.27 36.34-36.33 36.34h-20c20.06 0 36.33-16.27 36.33-36.34v-33.03z"/><path fill="#6bd9e7" d="M129.328 275.325c-9.923-9.923-9.923-26.011 0-35.934l37.154-37.154c9.923-9.923 26.011-9.923 35.934 0s9.923 26.011 0 35.934l-37.154 37.154c-9.924 9.923-26.012 9.923-35.934 0"/><path fill="#2ed1e2" d="M209.856 220.206c0 6.5-2.48 13-7.44 17.97l-37.15 37.15c-9.93 9.92-26.02 9.92-35.94 0a25.2 25.2 0 0 1-5.71-8.74c9.11 3.54 19.84 1.64 27.19-5.71l37.16-37.16c4.96-4.96 7.44-11.46 7.44-17.97 0-3.13-.58-6.26-1.73-9.22 3.18 1.23 6.17 3.14 8.74 5.71 4.96 4.96 7.44 11.46 7.44 17.97"/><path fill="#fece85" d="m183.838 256.748-35.934-35.934 18.577-18.577c9.923-9.923 26.011-9.923 35.934 0s9.923 26.011 0 35.934z"/><path fill="#fdb441" d="M209.856 220.206c0 6.5-2.48 13-7.44 17.97l-18.58 18.57-14.45-14.45 18.58-18.58c4.96-4.96 7.44-11.46 7.44-17.97 0-3.13-.58-6.26-1.73-9.22.01 0 .02.01.03.01.31.12.62.25.92.38 2.003.868 3.77 1.981 5.5 3.3.8.61 1.56 1.29 2.29 2.02 4.96 4.96 7.44 11.46 7.44 17.97"/><path fill="#6bd9e7" d="M185.118 153.98c-19.564 0-35.424-15.86-35.424-35.424V87.529h70.848v31.027c0 19.564-15.86 35.424-35.424 35.424M326.814 153.98c-19.564 0-35.424-15.86-35.424-35.424V87.529h70.848v31.027c0 19.564-15.86 35.424-35.424 35.424"/><path fill="#ee6161" d="M114.27 153.98c-19.564 0-35.424-15.86-35.424-35.424V87.529h70.848v31.027c0 19.564-15.86 35.424-35.424 35.424M255.966 153.98c-19.564 0-35.424-15.86-35.424-35.424V87.529h70.848v31.027c0 19.564-15.86 35.424-35.424 35.424M397.662 153.98c-19.564 0-35.424-15.86-35.424-35.424V87.529h70.848v31.027c0 19.564-15.86 35.424-35.424 35.424"/><path fill="#2ed1e2" d="M220.546 87.526v31.03c0 19.56-15.86 35.42-35.43 35.42-3.47 0-6.83-.5-10-1.43 14.7-4.32 25.43-17.9 25.43-33.99v-31.03zM362.236 87.526v31.03c0 19.56-15.86 35.42-35.42 35.42-3.47 0-6.83-.5-10-1.43 14.69-4.32 25.42-17.9 25.42-33.99v-31.03z"/><path fill="#e94444" d="M149.696 87.526v31.03c0 19.56-15.86 35.42-35.43 35.42-3.47 0-6.83-.5-10-1.43 14.7-4.32 25.43-17.9 25.43-33.99v-31.03zM291.386 87.526v31.03c0 19.56-15.86 35.42-35.42 35.42-3.47 0-6.83-.5-10-1.43 14.69-4.32 25.42-17.9 25.42-33.99v-31.03zM433.086 87.526v31.03c0 19.56-15.86 35.42-35.42 35.42-3.47 0-6.83-.5-10-1.43 14.69-4.32 25.42-17.9 25.42-33.99v-31.03z"/><path fill="#6bd9e7" d="M346.231 390.034h-180.53c-6.215 0-11.254-5.039-11.254-11.254v-31.976c0-6.215 5.039-11.254 11.254-11.254h180.53c6.215 0 11.254 5.039 11.254 11.254v31.976c0 6.215-5.039 11.254-11.254 11.254"/><path fill="#2ed1e2" d="M357.486 346.806v31.97c0 6.22-5.04 11.26-11.26 11.26h-20.71c6.22 0 11.26-5.04 11.26-11.26v-31.97c0-6.22-5.04-11.26-11.26-11.26h20.71c6.22 0 11.26 5.04 11.26 11.26"/><circle cx="255.966" cy="469.751" r="10"/><path d="M396.754 0H115.177C91.009 0 71.345 19.663 71.345 43.832V468.1c0 24.169 19.663 43.832 43.832 43.832h26.014c4.142 0 7.5-3.357 7.5-7.5s-3.358-7.5-7.5-7.5h-26.014c-15.898 0-28.832-12.934-28.832-28.832v-25.534h339.241V468.1c0 15.898-12.934 28.832-28.832 28.832H176.386c-4.142 0-7.5 3.357-7.5 7.5s3.358 7.5 7.5 7.5h220.368c24.169 0 43.832-19.663 43.832-43.832V43.832C440.586 19.663 420.923 0 396.754 0m-83.215 15-3.529 14.48a6.45 6.45 0 0 1-6.284 4.936h-95.519a6.45 6.45 0 0 1-6.284-4.936L198.393 15zm112.047 412.565H86.345v-276.45c7.513 6.453 17.268 10.366 27.925 10.366 14.694 0 27.683-7.425 35.424-18.718 7.741 11.292 20.729 18.718 35.424 18.718s27.684-7.426 35.424-18.718c7.741 11.292 20.729 18.718 35.424 18.718s27.683-7.426 35.424-18.718c7.741 11.292 20.73 18.718 35.424 18.718 14.695 0 27.684-7.426 35.425-18.718 7.741 11.292 20.73 18.718 35.424 18.718 10.657 0 20.411-3.913 27.924-10.365zM86.346 118.556V95.029h55.848v23.526c0 15.397-12.526 27.925-27.924 27.925s-27.924-12.527-27.924-27.924m70.848 0V95.029h55.848v23.526c0 15.397-12.527 27.925-27.924 27.925s-27.924-12.527-27.924-27.924m70.848 0V95.029h55.848v23.526c0 15.397-12.526 27.925-27.924 27.925s-27.924-12.527-27.924-27.924m70.848 0V95.029h55.849v23.526c0 15.397-12.527 27.925-27.925 27.925s-27.924-12.527-27.924-27.924m126.696 0c0 15.397-12.526 27.925-27.924 27.925s-27.924-12.527-27.924-27.925V95.029h55.848zm0-38.527H86.345V43.832C86.345 27.934 99.28 15 115.177 15h67.777l4.396 18.033a21.415 21.415 0 0 0 20.857 16.383h95.519a21.414 21.414 0 0 0 20.857-16.383L328.978 15h67.776c15.898 0 28.832 12.934 28.832 28.832z"/><path d="m170.565 280.629 37.154-37.155c12.831-12.831 12.831-33.709 0-46.539-6.215-6.216-14.479-9.64-23.27-9.64-8.79 0-17.054 3.424-23.27 9.639l-37.154 37.154c-12.831 12.832-12.831 33.709 0 46.541 6.216 6.215 14.48 9.639 23.27 9.639s17.054-3.424 23.27-9.639m1.22-73.088q.648-.648 1.346-1.219c3.186-2.607 7.132-4.018 11.318-4.018 4.709 0 9.333 1.905 12.664 5.236 6.982 6.983 6.982 18.345 0 25.327l-13.274 13.274-25.327-25.327zm-37.154 37.154 13.274-13.274 25.327 25.327-13.273 13.273c-6.983 6.985-18.344 6.984-25.328 0-6.983-6.982-6.983-18.343 0-25.326M390.047 194.73H258.351c-4.142 0-7.5 3.357-7.5 7.5s3.358 7.5 7.5 7.5h131.696c4.143 0 7.5-3.357 7.5-7.5s-3.357-7.5-7.5-7.5M390.047 231.281H258.351c-4.142 0-7.5 3.357-7.5 7.5s3.358 7.5 7.5 7.5h131.696c4.143 0 7.5-3.357 7.5-7.5s-3.357-7.5-7.5-7.5M390.047 267.832H258.351c-4.142 0-7.5 3.357-7.5 7.5s3.358 7.5 7.5 7.5h131.696c4.143 0 7.5-3.357 7.5-7.5s-3.357-7.5-7.5-7.5M346.231 328.05h-22.507c-4.143 0-7.5 3.357-7.5 7.5s3.357 7.5 7.5 7.5h22.507a3.76 3.76 0 0 1 3.754 3.754v31.977a3.76 3.76 0 0 1-3.754 3.754h-180.53a3.76 3.76 0 0 1-3.754-3.754v-31.977a3.76 3.76 0 0 1 3.754-3.754h123.367c4.143 0 7.5-3.357 7.5-7.5s-3.357-7.5-7.5-7.5H165.701c-10.341 0-18.754 8.413-18.754 18.754v31.977c0 10.341 8.413 18.754 18.754 18.754h180.53c10.341 0 18.754-8.413 18.754-18.754v-31.977c0-10.341-8.413-18.754-18.754-18.754"/></svg>