<svg xmlns="http://www.w3.org/2000/svg" width="512" height="512" viewBox="0 0 512.297 512.297"><path fill="#ffefd2" d="m364.074 90.892 92.189 27.857c10.685 2.693 16.997 13.72 13.909 24.298-2.945 10.087-13.373 16.008-23.544 13.368L353.8 127.856z"/><path fill="#fece85" d="m382.564 55.852 92.189 27.857c10.685 2.693 16.997 13.72 13.909 24.298-2.945 10.087-13.373 16.008-23.544 13.368L372.29 92.816zM342.263 124.581l87.292 26.897c10.685 2.693 16.997 13.72 13.909 24.298-2.945 10.087-13.373 16.008-23.544 13.368l-87.932-27.599z"/><path fill="#fedba6" d="M470.168 143.044c-2.474 8.464-10.217 13.993-18.651 13.993-1.613 0-3.255-.2-4.888-.621l-92.835-28.558 4.217-15.165 77.549 23.86c1.633.431 3.286.631 4.898.631 8.434 0 16.167-5.529 18.641-13.993.311-1.062.521-2.134.641-3.195 8.525 3.956 13.173 13.683 10.428 23.048"/><path fill="#fdb441" d="M488.659 108.001v.01c-2.945 10.087-13.372 16.007-23.539 13.362l-92.835-28.558 4.217-15.165 77.539 23.86c1.643.431 3.286.631 4.908.631 8.434 0 16.167-5.529 18.641-13.993.311-1.062.521-2.134.641-3.195 8.525 3.967 13.172 13.683 10.428 23.048M443.463 175.779c-2.474 8.464-10.207 13.993-18.641 13.993-1.623 0-3.265-.2-4.908-.631l-87.927-27.596 4.187-15.075 72.671 22.808c1.643.431 3.285.631 4.908.631 8.434 0 16.167-5.529 18.641-13.993.31-1.062.521-2.134.641-3.195 8.525 3.966 13.163 13.692 10.428 23.058"/><path fill="#ffefd2" d="m148.666 90.862-92.189 27.857c-10.685 2.693-16.997 13.72-13.909 24.298 2.945 10.087 13.373 16.008 23.544 13.368l92.828-28.559z"/><path fill="#fece85" d="M129.733 55.852 37.544 83.708c-10.685 2.693-16.997 13.72-13.909 24.298 2.945 10.087 13.373 16.008 23.544 13.368l92.828-28.559zM170.477 124.551l-87.292 26.897c-10.685 2.693-16.997 13.72-13.909 24.298 2.945 10.087 13.373 16.008 23.544 13.368l87.932-27.599z"/><path fill="#fedba6" d="M43.04 142.349c2.474 8.464 10.217 13.993 18.651 13.993 1.613 0 3.255-.2 4.888-.621l92.835-28.558-4.217-15.165-77.549 23.86a19.2 19.2 0 0 1-4.898.631c-8.434 0-16.167-5.529-18.641-13.993a19 19 0 0 1-.641-3.195c-8.524 3.956-13.172 13.682-10.428 23.048"/><path fill="#fdb441" d="M23.638 108.001v.01c2.945 10.087 13.372 16.007 23.539 13.362l92.835-28.558-4.217-15.165-77.539 23.86a19.3 19.3 0 0 1-4.908.631c-8.434 0-16.167-5.529-18.641-13.993a19 19 0 0 1-.641-3.195c-8.525 3.967-13.172 13.683-10.428 23.048M69.276 175.748c2.474 8.464 10.207 13.993 18.641 13.993 1.623 0 3.265-.2 4.908-.631l87.927-27.596-4.187-15.075-72.671 22.808a19.3 19.3 0 0 1-4.908.631c-8.434 0-16.167-5.529-18.641-13.993a19 19 0 0 1-.641-3.195c-8.524 3.967-13.162 13.693-10.428 23.058"/><path fill="#ffefd2" d="M380.591 62.282V84.48c0 68.728-55.715 124.442-124.442 124.442-68.728 0-124.442-55.715-124.442-124.442V62.282l33.554-1.009v22.358c0 50.196 40.692 90.889 90.889 90.889s90.889-40.692 90.889-90.889V61.273z"/><path fill="#fedba6" d="M380.596 62.285v22.197c0 68.725-55.723 124.438-124.448 124.438-16.167 0-31.603-3.085-45.776-8.694a124.6 124.6 0 0 0 28.467 3.275c68.735 0 124.448-55.713 124.448-124.438V61.764z"/><circle cx="148.142" cy="64.172" r="29.109" fill="#fec165"/><circle cx="364.155" cy="64.172" r="29.109" fill="#fec165"/><path fill="#fdb441" d="M177.247 64.168c0 16.077-13.032 29.109-29.109 29.109-9.476 0-17.89-4.528-23.199-11.529 2.354.611 4.818.942 7.362.942 16.077 0 29.108-13.032 29.108-29.109a29 29 0 0 0-5.91-17.589c12.512 3.265 21.748 14.644 21.748 28.176M393.267 64.168c0 16.077-13.032 29.109-29.108 29.109-9.466 0-17.88-4.518-23.199-11.519a29.2 29.2 0 0 0 7.352.932c16.077 0 29.109-13.032 29.109-29.109a29 29 0 0 0-5.91-17.589c12.511 3.255 21.756 14.634 21.756 28.176"/><path fill="#fece85" d="m232.705 68.717 8.067 420.996c.161 8.377 6.997 15.084 15.376 15.084s15.216-6.707 15.376-15.084l8.067-420.996z"/><path fill="#fdb441" d="m279.588 68.716-8.064 420.992c-.08 4.197-1.833 7.963-4.608 10.688s-6.581 4.397-10.768 4.397c-3.225 0-6.22-.992-8.694-2.694a15.4 15.4 0 0 0 2.063-1.703 15.3 15.3 0 0 0 4.608-10.688l8.063-420.992z"/><circle cx="256.148" cy="48.03" r="40.53" fill="#fec165"/><path fill="#fdb441" d="M296.676 48.031c0 22.387-18.14 40.528-40.528 40.528-11.089 0-21.125-4.447-28.437-11.649a40.4 40.4 0 0 0 11.349 1.613c22.387 0 40.528-18.15 40.528-40.528 0-11.309-4.628-21.526-12.09-28.878 16.857 4.898 29.178 20.464 29.178 38.914"/><path fill="#ceefdd" d="M297.213 343.134h-87.734c-8.026 0-16.021-1.443-23.418-4.559-12.613-5.314-27.29-16.767-28.551-41.306-.04-.78.601-1.42 1.381-1.42h.015c22.379 0 40.249-19.301 37.872-42.165-2.033-19.552-18.341-34.067-37.998-34.003-17.542.057-30.898 11.897-37.534 27.338-14.575 33.915-5.164 79.058 21.441 104.505a79.7 79.7 0 0 0 11.371 9.048c17.742 11.633 39.013 16.434 60.048 16.434h81.219c11.947 0 22.123 9.29 22.547 21.23.446 12.535-9.584 22.837-22.019 22.837H195.424c-22.672 0-41.052 18.38-41.052 41.052v11.311c0 9.653 7.9 17.851 17.551 17.67 9.359-.175 16.892-7.817 16.892-17.219v-4.297c0-9.01 7.304-16.315 16.315-16.315h92.904c30.658 0 55.464-25.052 55.065-55.801-.392-30.265-25.62-54.34-55.886-54.34"/><path fill="#b0e7c9" d="M182.638 453.271h22.493c-9.017 0-16.316 7.309-16.316 16.316v4.294c0 9.407-7.534 17.048-16.892 17.224a16.65 16.65 0 0 1-9.368-2.693c4.792-3.054 7.973-8.421 7.973-14.53v-4.294c0-9.008 3.103-16.317 12.11-16.317M186.064 338.57c7.397 3.123 15.389 4.567 23.42 4.567h-22.493c-8.021 0-15.165 0-22.679-2.81-20.581-7.68-25.401-31.354-26.67-55.877a1.39 1.39 0 0 1 1.396-1.454c11.173 0 20.707-3.025 27.519-8.919 6.802-5.894 10.881-14.647 11.115-26.094.215-10.539-6.118-21.84-15.447-28.163 18.092 1.532 32.642 15.477 34.555 33.862 2.381 22.864-15.496 42.166-37.873 42.166h-.01c-.781 0-1.425.644-1.386 1.425 1.258 24.532 15.935 35.989 28.553 41.297M353.099 397.472c.4 30.749-24.406 55.799-55.067 55.799h-22.484c30.651 0 60.415-25.928 60.014-56.677-.39-30.261-30.573-53.457-60.834-53.457h22.483c30.272 0 55.498 24.074 55.888 54.335"/><path fill="#7acaa6" d="M215.084 343.134h87.734c8.026 0 16.021-1.443 23.418-4.559 12.613-5.314 27.29-16.767 28.551-41.306.04-.78-.6-1.42-1.381-1.42h-.015c-22.379 0-40.249-19.301-37.872-42.165 2.033-19.552 18.341-34.067 37.998-34.003 17.542.057 30.898 11.897 37.534 27.338 14.575 33.915 5.164 79.058-21.441 104.505a79.7 79.7 0 0 1-11.371 9.048c-17.742 11.633-39.013 16.434-60.048 16.434h-81.219c-11.947 0-22.123 9.29-22.547 21.23-.446 12.535 9.584 22.837 22.019 22.837h100.429c22.672 0 41.052 18.38 41.052 41.052v11.311c0 9.653-7.9 17.851-17.551 17.67-9.359-.175-16.892-7.817-16.892-17.219v-4.297c0-9.01-7.304-16.315-16.315-16.315h-92.904c-30.658 0-55.464-25.052-55.065-55.801.392-30.265 25.62-54.34 55.886-54.34"/><path fill="#57be92" d="M329.658 453.271h-22.493c9.017 0 16.316 7.309 16.316 16.316v4.294c0 9.407 7.534 17.048 16.892 17.224a16.65 16.65 0 0 0 9.368-2.693c-4.792-3.054-7.973-8.421-7.973-14.53v-4.294c.001-9.008-3.102-16.317-12.11-16.317M326.233 338.57c-7.397 3.123-15.389 4.567-23.42 4.567h22.493c8.021 0 15.165 0 22.679-2.81 20.581-7.68 25.401-31.354 26.67-55.877a1.39 1.39 0 0 0-1.396-1.454c-11.173 0-20.707-3.025-27.519-8.919-6.802-5.894-10.881-14.647-11.115-26.094-.215-10.539 6.118-21.84 15.447-28.163-18.092 1.532-32.642 15.477-34.555 33.862-2.381 22.864 15.496 42.166 37.873 42.166h.01c.781 0 1.425.644 1.386 1.425-1.258 24.532-15.935 35.989-28.553 41.297M159.198 397.472c-.4 30.749 24.406 55.799 55.067 55.799h22.484c-30.651 0-60.415-25.928-60.014-56.677.39-30.261 30.573-53.457 60.834-53.457h-22.483c-30.272 0-55.498 24.074-55.888 54.335"/><circle cx="158.906" cy="250.715" r="8.684"/><path d="M493.381 89.174c-3.638-6.354-9.532-10.855-16.611-12.691l-77.76-23.497c-4.739-14.73-18.569-25.422-34.854-25.422-20.186 0-36.608 16.423-36.608 36.608 0 10.554 4.494 20.072 11.663 26.76-2.838 32.532-24.441 59.749-53.898 70.778l1.47-76.717c10.621-8.817 17.397-22.112 17.397-36.962 0-26.484-21.546-48.03-48.03-48.03s-48.03 21.546-48.03 48.03c0 14.85 6.776 28.145 17.397 36.962l1.471 76.761a83.2 83.2 0 0 1-27.012-16.494 7.5 7.5 0 0 0-10.108 11.082 98.1 98.1 0 0 0 37.425 21.331l.388 20.231c-45.908-11.528-81.125-50.26-87.446-97.992a36.56 36.56 0 0 0 18.738-.766 97.2 97.2 0 0 0 8.622 27.405 7.501 7.501 0 0 0 13.494-6.552 82.3 82.3 0 0 1-8.012-29.054c7.176-6.688 11.676-16.212 11.676-26.772 0-20.186-16.423-36.608-36.608-36.608-16.285 0-30.115 10.692-34.854 25.422l-77.76 23.497c-7.079 1.836-12.974 6.337-16.611 12.691-3.669 6.41-4.551 13.845-2.48 20.936 2.797 9.581 10.335 16.409 19.339 18.63-1.837 5.247-2.002 10.915-.406 16.38 3.441 11.786 14.056 19.408 25.75 19.408.163 0 .327-.013.49-.016-.965 4.358-.822 8.913.469 13.335 3.44 11.787 14.055 19.411 25.751 19.41 2.266 0 4.573-.286 6.876-.884.122-.032 66.154-20.754 66.154-20.754 17.823 18.634 41.036 32.069 67.117 37.764l2.343 122.25h-20.839c-7.353 0-14.252-1.336-20.506-3.972-13.192-5.557-21.018-15.235-23.327-28.816a45.7 45.7 0 0 0 27.127-14.569c8.628-9.571 12.806-22.463 11.464-35.368-2.416-23.245-21.89-40.728-45.33-40.728h-.152c-19.25.063-35.849 11.979-44.4 31.877-15.756 36.664-5.805 85.195 23.148 112.887a87.4 87.4 0 0 0 12.442 9.899 95 95 0 0 0 7.889 4.617c-3.815 7.886-6.016 16.662-6.136 25.914-.147 11.321 2.7 22.198 8.158 31.759-8.045 8.668-12.984 20.258-12.984 32.99v11.311c0 6.745 2.779 13.341 7.624 18.097 4.661 4.574 10.72 7.076 17.109 7.076q.229 0 .458-.004c13.373-.252 24.252-11.34 24.252-24.718v-4.297c0-4.86 3.954-8.814 8.814-8.814h27.586l.557 29.082c.237 12.374 10.498 22.44 22.875 22.44s22.638-10.066 22.875-22.44l.557-29.082h27.586c4.86 0 8.814 3.954 8.814 8.814v4.297c0 13.378 10.879 24.466 24.252 24.718q.23.004.459.004c6.388 0 12.448-2.503 17.108-7.076 4.845-4.756 7.624-11.352 7.624-18.097v-11.311c0-12.734-4.934-24.331-12.982-33 5.459-9.557 8.302-20.431 8.156-31.749a61.2 61.2 0 0 0-6.127-25.905 97 97 0 0 0 7.88-4.626 87 87 0 0 0 9.767-7.446 7.5 7.5 0 1 0-9.912-11.258 72 72 0 0 1-8.079 6.159c-15.172 9.948-34.515 15.206-55.937 15.206h-81.219c-16.007 0-29.483 12.769-30.042 28.463-.288 8.096 2.646 15.759 8.262 21.577 5.617 5.821 13.165 9.026 21.253 9.026h100.429c18.5 0 33.552 15.052 33.552 33.553v11.311c0 2.744-1.142 5.438-3.131 7.392-1.874 1.84-4.274 2.795-6.779 2.779-5.257-.099-9.533-4.459-9.533-9.72v-4.297c0-13.131-10.684-23.814-23.814-23.814h-92.904c-12.823 0-24.847-5.026-33.855-14.153-9.008-9.125-13.877-21.218-13.711-34.051.336-25.881 22.043-46.937 48.388-46.937h87.733c9.363 0 18.222-1.732 26.33-5.147 20.216-8.517 31.981-25.504 33.13-47.833a8.87 8.87 0 0 0-2.42-6.536 8.94 8.94 0 0 0-6.467-2.769 30.65 30.65 0 0 1-22.726-10.116c-5.873-6.515-8.603-14.958-7.686-23.773 1.618-15.569 14.683-27.278 30.411-27.278h.103c13.086.042 24.55 8.565 30.668 22.799 9.29 21.618 8.113 49.51-3.071 72.79a7.501 7.501 0 0 0 13.522 6.496c13.007-27.074 14.283-59.724 3.331-85.209-8.552-19.897-25.15-31.813-44.4-31.876h-.152c-23.438 0-42.914 17.484-45.33 40.728-1.342 12.905 2.836 25.797 11.464 35.368a45.68 45.68 0 0 0 27.127 14.567c-2.309 13.582-10.135 23.262-23.327 28.818-6.254 2.636-13.153 3.972-20.506 3.972h-20.839l2.343-122.265c26.115-5.703 49.357-19.165 67.189-37.836l66.162 20.767q.18.055.362.104c2.304.598 4.609.884 6.876.884 11.695 0 22.311-7.624 25.751-19.409 1.291-4.422 1.434-8.978.469-13.336.163.003.327.016.49.016 11.693 0 22.309-7.623 25.75-19.409 1.61-5.515 1.426-11.235-.458-16.522 8.829-2.321 16.192-9.078 18.948-18.518 2.066-7.092 1.184-14.527-2.485-20.937M148.142 42.563c11.915 0 21.608 9.693 21.608 21.608s-9.693 21.609-21.608 21.609-21.608-9.694-21.608-21.609 9.693-21.608 21.608-21.608M30.834 105.905c-.917-3.143-.526-6.438 1.1-9.279s4.27-4.846 7.443-5.646a8 8 0 0 0 .336-.093l72.162-21.805c1.117 8.277 5.008 15.679 10.707 21.247l-77.43 23.821a11.88 11.88 0 0 1-14.318-8.245m33.252 43.255a11.884 11.884 0 0 1-14.318-8.245c-.917-3.143-.526-6.438 1.1-9.278s4.27-4.846 7.443-5.646c.113-.028 67.604-20.419 67.604-20.419a131 131 0 0 0 5.82 22.776zm26.69 32.735a11.88 11.88 0 0 1-14.3-8.252c-.917-3.142-.527-6.437 1.099-9.277s4.27-4.846 7.443-5.646c.126-.031 52.676-16.22 52.676-16.22a132 132 0 0 0 12.668 20.691zm125.668 231.676a14.42 14.42 0 0 1-10.459-4.442c-9.077-9.404-1.735-24.624 10.986-24.624h14.283l.557 29.066zm49.038 0h-18.666l-.557-29.066h19.78zm40.83-4.442a14.42 14.42 0 0 1-10.459 4.442h-15.367l.557-29.066h14.283c8.024 0 14.777 6.278 15.052 13.996.141 3.99-1.303 7.765-4.066 10.628m34.154 10.581a48.2 48.2 0 0 0-19.03-5.918c2.754-4.746 4.132-10.177 3.931-15.825-.199-5.602-2.054-10.823-5.075-15.229 7.123-1.173 13.961-2.923 20.441-5.232a46.26 46.26 0 0 1 4.868 20.062c.101 7.83-1.686 15.374-5.135 22.142m-75.889 41.064-.552 28.795c-.081 4.261-3.615 7.728-7.877 7.728s-7.796-3.467-7.877-7.728l-.552-28.795zm-95.531-19.346c.231.242.451.492.687.731a62.7 62.7 0 0 0 17.044 12.281 23.7 23.7 0 0 0-5.461 15.148v4.297c0 5.261-4.276 9.621-9.533 9.72l-.169.002c-2.437 0-4.778-.983-6.61-2.781-1.989-1.953-3.131-4.647-3.131-7.392v-11.311c-.001-7.804 2.685-14.989 7.173-20.695m-3.073-82.632a82 82 0 0 1-7.803-4.496 72.5 72.5 0 0 1-10.3-8.196c-11.799-11.285-20.322-27.327-24.001-45.171-3.686-17.878-2.171-35.974 4.267-50.952 6.118-14.234 17.582-22.758 30.668-22.8h.103c15.728 0 28.793 11.71 30.411 27.278.917 8.815-1.813 17.259-7.686 23.773a30.65 30.65 0 0 1-22.74 10.116 8.93 8.93 0 0 0-6.452 2.769 8.87 8.87 0 0 0-2.42 6.536c1.125 21.881 12.451 38.626 31.927 47.304a64 64 0 0 0-15.974 13.839M364.155 42.563c11.915 0 21.608 9.693 21.608 21.608S376.07 85.78 364.155 85.78s-21.608-9.694-21.608-21.609 9.693-21.608 21.608-21.608m-97.18 293.071h-21.654l-4.64-242.144a47.8 47.8 0 0 0 30.934 0zM256.148 81.06c-18.213 0-33.03-14.816-33.03-33.029S237.936 15 256.148 15s33.03 14.817 33.03 33.03-14.817 33.03-33.03 33.03m28.47 116.839.388-20.229c35.411-10.887 62.347-41.251 68.278-78.537a36.598 36.598 0 0 0 18.743.787c-6.328 47.723-41.507 86.454-87.409 97.979m151.646-24.225a11.883 11.883 0 0 1-14.3 8.251l-59.97-18.823a132 132 0 0 0 12.651-20.695l52.702 16.238q.186.059.375.105a11.84 11.84 0 0 1 7.443 5.646 11.84 11.84 0 0 1 1.099 9.278m26.709-32.729c-1.807 6.189-8.071 9.794-14.318 8.246l-68.061-20.939a131 131 0 0 0 5.805-22.779l67.695 20.456q.166.05.336.093c3.174.8 5.817 2.805 7.443 5.646s2.017 6.135 1.1 9.277m18.49-35.041a11.877 11.877 0 0 1-14.318 8.246l-77.43-23.821c5.699-5.569 9.59-12.971 10.707-21.247l72.162 21.805q.166.05.336.093c3.174.8 5.817 2.805 7.443 5.646a11.84 11.84 0 0 1 1.1 9.278"/><circle cx="353.391" cy="250.715" r="8.684"/></svg>