<svg xmlns="http://www.w3.org/2000/svg" width="512" height="512" viewBox="0 0 511.703 511.703"><path fill="#f9f3f1" d="M403.431 33.659v444.385c0 14.447-11.712 26.159-26.159 26.159h-94.768c-4.072 0-7.801-2.31-9.578-5.973-3.072-6.329-9.562-10.692-17.074-10.692s-14.002 4.363-17.074 10.692c-1.778 3.663-5.507 5.973-9.578 5.973h-94.77c-14.447 0-26.159-11.712-26.159-26.159V33.659c0-14.447 11.712-26.159 26.159-26.159h94.768c4.072 0 7.801 2.31 9.578 5.973 3.072 6.329 9.562 10.692 17.074 10.692s14.002-4.363 17.074-10.692c1.778-3.663 5.507-5.973 9.578-5.973h94.768c14.45 0 26.161 11.712 26.161 26.159"/><path fill="#efe2dd" d="M403.431 33.655v444.393c0 14.44-11.715 26.155-26.155 26.155h-20.042c14.44 0 26.155-11.715 26.155-26.155V33.655c0-14.44-11.715-26.155-26.155-26.155h20.042c14.441 0 26.155 11.715 26.155 26.155"/><path fill="#6bd9e7" d="M193.021 98.172c0-14.998 12.158-27.157 27.157-27.157h71.349c14.998 0 27.157 12.158 27.157 27.157 0 14.998-12.158 27.157-27.157 27.157h-71.349c-14.999 0-27.157-12.159-27.157-27.157M193.021 203.292c0-14.998 12.158-27.157 27.157-27.157h71.349c14.998 0 27.157 12.158 27.157 27.157 0 14.998-12.158 27.157-27.157 27.157h-71.349c-14.999-.001-27.157-12.159-27.157-27.157M193.021 308.411c0-14.998 12.158-27.157 27.157-27.157h71.349c14.998 0 27.157 12.158 27.157 27.156s-12.158 27.157-27.157 27.157h-71.349c-14.999.001-27.157-12.157-27.157-27.156M193.021 413.531c0-14.998 12.158-27.157 27.157-27.157h71.349c14.998 0 27.157 12.158 27.157 27.157 0 14.998-12.158 27.157-27.157 27.157h-71.349c-14.999 0-27.157-12.159-27.157-27.157"/><path fill="#fece85" d="M255.852 125.329V71.016h35.674c14.998 0 27.157 12.158 27.157 27.157 0 14.998-12.158 27.157-27.157 27.157z"/><path fill="#fdb441" d="M318.682 98.172c0 7.5-3.04 14.29-7.95 19.2-4.92 4.92-11.71 7.96-19.21 7.96h-22.52c7.5 0 14.29-3.04 19.21-7.96a27.07 27.07 0 0 0 7.95-19.2c0-15-12.16-27.16-27.16-27.16h22.52c14.999-.001 27.16 12.16 27.16 27.16"/><path fill="#fece85" d="M255.852 230.448v-54.313h35.674c14.998 0 27.157 12.158 27.157 27.157 0 14.998-12.158 27.157-27.157 27.157h-35.674zM255.852 335.568v-54.313h35.674c14.998 0 27.157 12.158 27.157 27.156s-12.158 27.157-27.157 27.157zM255.852 440.688v-54.313h35.674c14.998 0 27.157 12.158 27.157 27.157 0 14.998-12.158 27.157-27.157 27.157z"/><path fill="#fdb441" d="M318.682 203.292c0 7.5-3.04 14.29-7.95 19.2-4.92 4.92-11.71 7.96-19.21 7.96h-22.52c7.5 0 14.29-3.04 19.21-7.96a27.07 27.07 0 0 0 7.95-19.2c0-15-12.16-27.16-27.16-27.16h22.52c14.999 0 27.16 12.16 27.16 27.16M318.682 308.412c0 7.5-3.04 14.29-7.95 19.2-4.92 4.92-11.71 7.96-19.21 7.96h-22.52c7.5 0 14.29-3.04 19.21-7.96a27.07 27.07 0 0 0 7.95-19.2c0-15-12.16-27.16-27.16-27.16h22.52c14.999-.001 27.16 12.16 27.16 27.16M318.682 413.531c0 7.5-3.04 14.29-7.95 19.2-4.92 4.92-11.71 7.96-19.21 7.96h-22.52c7.5 0 14.29-3.04 19.21-7.96a27.07 27.07 0 0 0 7.95-19.2c0-15-12.16-27.16-27.16-27.16h22.52c14.999.001 27.16 12.16 27.16 27.16"/><path d="M377.272 0h-34.904c-4.143 0-7.5 3.357-7.5 7.5s3.357 7.5 7.5 7.5h34.904c10.289 0 18.659 8.37 18.659 18.659v444.385c0 10.289-8.37 18.659-18.659 18.659h-94.768c-1.205 0-2.316-.687-2.832-1.748-4.398-9.062-13.749-14.917-23.821-14.917s-19.423 5.855-23.821 14.917c-.516 1.062-1.627 1.748-2.832 1.748H134.43c-10.289 0-18.659-8.37-18.659-18.659V33.659c0-10.289 8.37-18.659 18.659-18.659h94.768c1.205 0 2.316.687 2.832 1.748 4.398 9.062 13.749 14.917 23.821 14.917s19.423-5.855 23.821-14.917c.516-1.061 1.628-1.748 2.833-1.748h25.531c4.143 0 7.5-3.357 7.5-7.5s-3.357-7.5-7.5-7.5h-25.531c-6.91 0-13.318 4.003-16.326 10.197-1.937 3.989-5.894 6.468-10.327 6.468s-8.391-2.479-10.327-6.468C242.517 4.003 236.108 0 229.198 0H134.43c-18.56 0-33.659 15.1-33.659 33.659v444.385c0 18.56 15.1 33.659 33.659 33.659h94.768c6.91 0 13.318-4.003 16.326-10.197 1.937-3.989 5.894-6.468 10.327-6.468s8.391 2.479 10.327 6.468c3.008 6.194 9.416 10.197 16.326 10.197h94.768c18.56 0 33.659-15.1 33.659-33.659V33.659C410.932 15.1 395.832 0 377.272 0"/><path d="M220.178 63.516c-19.11 0-34.657 15.547-34.657 34.656 0 19.11 15.547 34.657 34.657 34.657h71.348c19.11 0 34.657-15.547 34.657-34.657s-15.547-34.656-34.657-34.656zm-19.657 34.656c0-10.839 8.818-19.656 19.657-19.656h28.174v39.313h-28.174c-10.839 0-19.657-8.818-19.657-19.657m110.662 0c0 10.839-8.818 19.657-19.657 19.657h-28.174V78.516h28.174c10.838 0 19.657 8.817 19.657 19.656M291.525 168.635h-71.348c-19.11 0-34.657 15.547-34.657 34.657s15.547 34.656 34.657 34.656h71.348c19.11 0 34.657-15.547 34.657-34.656.001-19.11-15.546-34.657-34.657-34.657m-91.004 34.657c0-10.839 8.818-19.657 19.657-19.657h28.174v39.313h-28.174c-10.839 0-19.657-8.817-19.657-19.656m91.004 19.656h-28.174v-39.313h28.174c10.839 0 19.657 8.818 19.657 19.657s-8.818 19.656-19.657 19.656M291.525 273.755h-71.348c-19.11 0-34.657 15.547-34.657 34.656 0 11.713 5.851 22.548 15.65 28.983a7.5 7.5 0 0 0 8.235-12.537 19.63 19.63 0 0 1-8.885-16.446c0-10.839 8.818-19.656 19.657-19.656h28.174v39.313H239.5c-4.143 0-7.5 3.357-7.5 7.5s3.357 7.5 7.5 7.5h52.024c19.11 0 34.657-15.547 34.657-34.657.002-19.109-15.545-34.656-34.656-34.656m0 54.313h-28.174v-39.313h28.174c10.839 0 19.657 8.817 19.657 19.656s-8.818 19.657-19.657 19.657M291.525 378.874h-71.348c-19.11 0-34.657 15.547-34.657 34.657s15.547 34.656 34.657 34.656h71.348c19.11 0 34.657-15.547 34.657-34.656.001-19.11-15.546-34.657-34.657-34.657m-91.004 34.657c0-10.839 8.818-19.657 19.657-19.657h28.174v39.313h-28.174c-10.839.001-19.657-8.817-19.657-19.656m91.004 19.657h-28.174v-39.313h28.174c10.839 0 19.657 8.818 19.657 19.657s-8.818 19.656-19.657 19.656"/></svg>