<svg xmlns="http://www.w3.org/2000/svg" width="512" height="512"><path fill="#d4f2f6" d="M96.857 7.494c-7.263 0-13.152 5.888-13.152 13.152v48.258c0 82.788 58.394 151.928 136.239 168.503 9.797 2.086 16.844 10.664 16.844 20.681v181.699c0 11.667-9.458 21.126-21.126 21.126h-6.524c-15.484 0-28.036 12.552-28.036 28.036v10.772a4.787 4.787 0 0 0 4.787 4.787h140.222a4.787 4.787 0 0 0 4.787-4.787v-10.772c0-15.484-12.552-28.036-28.036-28.036h-6.524c-11.667 0-21.126-9.458-21.126-21.126v-181.7c0-10.016 7.047-18.595 16.844-20.681 77.845-16.575 136.239-85.714 136.239-168.503V20.645c0-7.263-5.888-13.152-13.152-13.152H96.857z"/><path fill="#a6e7f0" d="M330.896 488.947v10.773a4.79 4.79 0 0 1-4.789 4.789h-19.206a4.795 4.795 0 0 0 4.789-4.789v-10.773c0-10.582-5.863-21.917-14.517-28.031h5.692c15.481 0 28.031 12.55 28.031 28.031M428.29 20.648v48.251c0 82.797-58.391 151.93-136.238 168.505-9.799 2.088-16.836 10.662-16.836 20.682v181.697c0 6.727 3.142 12.71 8.032 16.576h-6.124c-11.666 0-21.123-9.457-21.123-21.123V244.663c0-10.02 7.048-18.593 16.847-20.682 77.847-16.575 136.238-72.285 136.238-155.082V20.648c0-7.269-5.893-13.152-13.152-13.152h19.206c7.267 0 13.15 5.883 13.15 13.152"/><path fill="#ee6161" d="M301.72 97.705h-21.165c-4.166 0-7.544-3.351-7.544-7.485V69.219c0-4.134-3.377-7.485-7.544-7.485H246.53c-4.166 0-7.544 3.351-7.544 7.485V90.22c0 4.134-3.377 7.485-7.544 7.485H210.28c-4.166 0-7.544 3.351-7.544 7.485v18.789c0 4.134 3.377 7.485 7.544 7.485h21.165c4.166 0 7.544 3.351 7.544 7.485v21c0 4.134 3.377 7.485 7.544 7.485h18.937c4.166 0 7.544-3.351 7.544-7.485v-21c0-4.134 3.377-7.485 7.544-7.485h21.165c4.166 0 7.544-3.351 7.544-7.485V105.19c-.003-4.134-3.38-7.485-7.547-7.485"/><path fill="#e94444" d="M260.478 131.463h20.079c-4.166 0-7.55 3.353-7.55 7.49v20.993c0 4.136-3.373 7.49-7.54 7.49h-18.935q-.287 0-.572-.03c3.895-.281 6.967-3.514 6.967-7.459v-20.993c.001-4.137 3.384-7.491 7.551-7.491M280.557 97.7h-20.079c-4.166 0-7.55-3.343-7.55-7.479V69.218c0-3.946-3.072-7.168-6.967-7.449q.287-.03.572-.03h18.935c4.166 0 7.54 3.343 7.54 7.48v21.003c-.001 4.135 3.382 7.478 7.549 7.478M309.26 105.19v18.794c0 4.126-3.373 7.48-7.54 7.48h-20.079c4.166 0 7.54-3.353 7.54-7.48V105.19c0-4.136-3.373-7.49-7.54-7.49h20.079c4.167 0 7.54 3.354 7.54 7.49"/><path fill="#7acaa6" d="M297.266 285.157H197.237c-9.151 0-18.266-1.645-26.699-5.198-14.38-6.058-31.115-19.117-32.553-47.094-.046-.889.685-1.619 1.575-1.619h.017c25.515 0 45.89-22.006 43.179-48.074-2.318-22.292-20.911-38.841-43.324-38.769-20 .065-35.228 13.564-42.794 31.169-16.617 38.668-5.888 90.138 24.446 119.15a91 91 0 0 0 12.965 10.316c20.228 13.264 44.48 18.737 68.464 18.737h92.601c13.622 0 25.223 10.592 25.707 24.205.508 14.292-10.927 26.037-25.105 26.037H181.212c-25.85 0-46.805 20.955-46.805 46.805v12.896c0 11.006 9.007 20.353 20.011 20.146 10.671-.2 19.26-8.913 19.26-19.632v-4.899c0-10.273 8.328-18.601 18.601-18.601h105.924c34.954 0 63.237-28.563 62.782-63.621-.448-34.505-29.212-61.954-63.719-61.954"/><path fill="#57be92" d="M166.634 410.729h25.646c-10.28 0-18.603 8.333-18.603 18.603v4.895c0 10.726-8.589 19.437-19.259 19.638a19 19 0 0 1-10.681-3.071c5.463-3.482 9.09-9.602 9.09-16.567v-4.895c0-10.27 3.538-18.603 13.807-18.603M170.54 279.954c8.433 3.56 17.546 5.207 26.702 5.207h-25.646c-9.146 0-17.29 0-25.857-3.204-23.465-8.756-28.961-35.748-30.407-63.708a1.586 1.586 0 0 1 1.591-1.658c12.739 0 23.609-3.449 31.375-10.169 7.755-6.72 12.405-16.7 12.672-29.751.245-12.016-6.976-24.9-17.612-32.11 20.628 1.747 37.216 17.646 39.397 38.607 2.715 26.068-17.668 48.075-43.18 48.075h-.011c-.89 0-1.624.734-1.58 1.624 1.436 27.972 18.17 41.034 32.556 47.087M360.984 347.111c.456 35.058-27.826 63.618-62.784 63.618h-25.634c34.947 0 68.881-29.562 68.425-64.62-.445-34.502-34.858-60.949-69.36-60.949h25.634c34.513.001 63.274 27.449 63.719 61.951"/><path d="M246.532 174.928h18.936c8.291 0 15.037-6.719 15.037-14.979l.05-20.991h21.165c8.291 0 15.037-6.719 15.037-14.979V105.19c0-8.26-6.746-14.979-15.037-14.979l-21.215.009V69.219c0-8.259-6.746-14.978-15.037-14.978h-18.936c-8.291 0-15.037 6.719-15.037 14.978l-.05 20.992H210.28c-8.291 0-15.037 6.719-15.037 14.979v18.789c0 8.26 6.746 14.979 15.037 14.979l21.215-.009v21c-.001 8.26 6.745 14.979 15.037 14.979m-15.087-50.958-21.215.009.05-18.78h21.165c8.291 0 15.037-6.719 15.037-14.979l.05-20.991 18.986-.01V90.22c0 8.26 6.746 14.979 15.037 14.979h21.165l.05-.009-.05 18.78h-21.165c-8.291 0-15.037 6.719-15.037 14.979l-.05 20.991-18.986.009v-21c0-8.26-6.746-14.979-15.037-14.979"/><path d="M415.143 0H385.54a7.494 7.494 0 1 0 0 14.988h29.603a5.664 5.664 0 0 1 5.658 5.657v48.259c0 37.966-13.222 75.019-37.231 104.333-23.684 28.916-56.738 49.103-93.075 56.839-13.198 2.811-22.777 14.59-22.777 28.01v19.576h-23.435v-19.576c0-13.42-9.579-25.199-22.777-28.01-13.785-2.935-27.092-7.672-39.6-13.988a51.27 51.27 0 0 0 8.303-33.692c-2.699-25.961-24.45-45.488-50.632-45.488h-.169c-10.607.034-20.494 3.302-28.943 9.271C97.923 122.528 91.2 95.951 91.2 68.904V20.645a5.663 5.663 0 0 1 5.658-5.657h253.925a7.494 7.494 0 1 0 0-14.988H96.857C85.473 0 76.212 9.261 76.212 20.645v48.259c0 30.888 8.038 61.216 22.984 87.91-3.706 4.582-6.895 9.871-9.443 15.8-17.799 41.418-6.557 96.241 26.151 127.524a98.6 98.6 0 0 0 14.036 11.168c16.601 10.885 36.319 17.398 58.604 19.357 4.12.38 7.759-2.685 8.122-6.808a7.493 7.493 0 0 0-6.808-8.121c-19.795-1.741-37.188-7.448-51.698-16.962a83.5 83.5 0 0 1-11.895-9.466c-13.606-13.014-23.433-31.499-27.67-52.051-4.246-20.593-2.495-41.449 4.929-58.725 7.146-16.628 20.579-26.584 35.933-26.634h.12c18.475 0 33.824 13.759 35.725 32.049 1.077 10.353-2.13 20.269-9.03 27.923a36 36 0 0 1-26.712 11.883 9.12 9.12 0 0 0-6.59 2.828 9.06 9.06 0 0 0-2.469 6.669c1.649 32.081 21.1 46.864 37.127 53.617 9.113 3.839 19.075 5.785 29.609 5.785h100.029c30.612 0 55.835 24.475 56.225 54.558.194 14.916-5.466 28.973-15.936 39.579-10.472 10.608-24.448 16.451-39.353 16.451H192.278c-14.389 0-26.095 11.706-26.095 26.094v4.899c0 6.571-5.341 12.015-11.907 12.138-3.164.089-6.148-1.175-8.489-3.471-2.47-2.425-3.887-5.771-3.887-9.183v-12.896c0-21.676 17.635-39.311 39.311-39.311h114.503c8.932 0 17.266-3.54 23.47-9.968 9.005-9.33 11.718-23.692 6.372-35.599-1.718-3.827-4.189-7.304-7.205-10.217-6.197-5.985-14.616-9.446-23.239-9.446h-71.637a7.494 7.494 0 1 0 0 14.988h5.819v35.255H181.21c-29.94 0-54.299 24.359-54.299 54.299v12.896c0 7.409 3.053 14.655 8.377 19.88 5.114 5.018 11.759 7.764 18.764 7.764q.251-.001.504-.005c14.674-.275 26.613-12.443 26.613-27.124v-4.899c0-6.125 4.983-11.107 11.107-11.107h37.017v21.559c0 7.517-6.115 13.632-13.632 13.632h-6.525c-19.591 0-35.53 15.939-35.53 35.53v10.771c0 6.772 5.509 12.281 12.281 12.281h140.221c6.772 0 12.281-5.509 12.281-12.281v-10.771c0-19.591-15.939-35.53-35.531-35.53h-6.524c-7.517 0-13.632-6.115-13.632-13.632v-21.559h15.497c18.945 0 36.709-7.425 50.019-20.909 13.308-13.482 20.502-31.347 20.256-50.304-.496-38.24-32.441-69.351-71.211-69.351h-14.561v-19.576c0-6.493 4.487-11.982 10.911-13.35 39.653-8.443 75.716-30.463 101.548-62.003 26.197-31.985 40.624-72.411 40.624-113.829V20.645C435.788 9.261 426.527 0 415.143 0M229.295 277.663h-32.058c-8.525 0-16.529-1.551-23.79-4.61-15.752-6.636-24.948-18.303-27.401-34.728a51.05 51.05 0 0 0 25.381-10.798c14.723 7.871 30.529 13.712 46.957 17.209 6.424 1.368 10.911 6.858 10.911 13.35zm53.41 53.605h12.409c9.713 0 17.885 7.617 18.218 16.978.172 4.839-1.579 9.416-4.93 12.889a17.48 17.48 0 0 1-12.686 5.388h-13.01zm-38.422 0h23.435v35.255h-23.435zm52.054 137.137h6.524c11.327 0 20.543 9.215 20.543 20.542v8.065H188.596v-8.065c0-11.328 9.215-20.542 20.542-20.542h6.525c15.781 0 28.619-12.839 28.619-28.62v-21.559h23.435v21.559c0 15.781 12.839 28.62 28.62 28.62"/><circle cx="139.576" cy="179.787" r="9.901"/></svg>