<svg xmlns="http://www.w3.org/2000/svg" width="512" height="512"><path fill="#c5d3dd" d="M416.894 105.278c-1.694-8.133-4.206-16.092-7.733-23.614-6.435-13.723-15.474-26.114-26.875-36.272C357.56 23.362 324.469 13 292.043 9.555 254 5.512 211.642 6.64 175.484 19.273c-25.635 8.957-47.773 24.517-62.885 45.91-8.893 12.591-14.817 27.026-17.858 42.138-7.12 35.383-22.838 144.957 34.332 225.818l17.803 23.745a46.61 46.61 0 0 0 37.292 18.649h143.717c14.673 0 28.49-6.91 37.292-18.649l17.803-23.745c58.319-82.486 40.791-194.852 33.914-227.861"/><path fill="#b6c4cf" d="m382.977 333.139-17.802 23.75a46.61 46.61 0 0 1-37.291 18.65h-19.489a46.63 46.63 0 0 0 37.291-18.65l17.802-23.75c58.316-82.485 40.793-194.856 33.918-227.855-1.696-8.143-4.211-16.096-7.734-23.62-6.436-13.721-15.477-26.115-26.873-36.273C338.072 23.358 304.982 13 272.551 9.557c-9.23-.978-18.72-1.657-28.31-1.936 16.176-.499 32.341.289 47.798 1.936C324.47 13 357.56 23.358 382.287 45.391c11.396 10.158 20.437 22.552 26.873 36.273 3.523 7.524 6.037 15.477 7.734 23.62 6.876 32.999 24.409 145.37-33.917 227.855"/><path fill="#f9f3f1" d="M381.815 129.214c-5.043-34.949-28.384-64.867-61.425-77.324a114 114 0 0 0-2.663-.967c-18.832-6.58-39.819-9.154-60.522-9.207v-.003c-.392-.003-.786.002-1.178.002-.393.001-.786-.004-1.178-.002v.003c-20.704.053-41.69 2.627-60.522 9.207q-1.34.468-2.663.967c-33.041 12.457-56.382 42.375-61.425 77.324-3.468 24.034-7.869 66.919-1.702 101.212 3.174 17.651 18.475 30.529 36.41 30.529h42.482c9.861 0 17.734 8.069 17.803 17.93.068 9.774 8.012 17.676 17.802 17.676h25.987c9.861 0 17.734-8.069 17.803-17.929.068-9.774 8.012-17.676 17.802-17.676h42.482c17.935 0 33.236-12.878 36.41-30.529 6.166-34.294 1.765-77.179-1.703-101.213"/><path fill="#efe2dd" d="M284.008 260.952h20.616c-9.789 0-17.732 7.903-17.802 17.682-.07 9.859-7.943 17.922-17.802 17.922h-20.616c9.859 0 17.732-8.063 17.802-17.922.059-9.779 8.012-17.682 17.802-17.682M383.516 230.427c-3.173 17.653-18.471 30.525-36.413 30.525h-20.616c17.932 0 33.229-12.873 36.413-30.525 6.157-34.297 1.766-77.176-1.706-101.215-5.039-34.946-28.38-64.862-61.429-77.326-.878-.329-1.766-.649-2.655-.968-16.076-5.608-33.708-8.312-51.391-9.001 3.044-.13 6.087-.19 9.131-.2v-.01c.389 0 .788.01 1.177.01s.788-.01 1.177-.01v.01c20.706.05 41.691 2.624 60.521 9.2q1.347.477 2.664.968c33.04 12.463 56.38 42.38 61.429 77.326 3.464 24.04 7.865 66.919 1.698 101.216"/><circle cx="326.485" cy="319.673" r="23.114" fill="#8d9ca8"/><path fill="#7a8c98" d="M349.598 319.677c0 12.763-10.348 23.111-23.111 23.111-8.512 0-15.946-4.6-19.958-11.456 1.567.339 3.203.519 4.88.519 12.763 0 23.111-10.348 23.111-23.111a22.9 22.9 0 0 0-3.163-11.665c10.428 2.236 18.241 11.506 18.241 22.602"/><circle cx="185.569" cy="319.673" r="23.114" fill="#8d9ca8"/><path fill="#7a8c98" d="M208.678 319.677c0 12.763-10.348 23.111-23.111 23.111-8.512 0-15.946-4.6-19.958-11.456 1.576.339 3.203.519 4.88.519 12.763 0 23.111-10.348 23.111-23.111a22.9 22.9 0 0 0-3.163-11.665c10.427 2.236 18.241 11.506 18.241 22.602"/><path fill="#f9f3f1" d="M274.089 504.516h-36.125a2.56 2.56 0 0 1-2.56-2.56V375.534h41.244v126.423a2.56 2.56 0 0 1-2.559 2.559"/><path fill="#efe2dd" d="M274.089 504.516h-18.062V375.534h20.622v126.423a2.56 2.56 0 0 1-2.56 2.559"/><path d="M424.22 103.751c-1.89-9.073-4.677-17.573-8.283-25.265-7.02-14.97-16.666-27.984-28.672-38.682-23.058-20.543-55.712-33.577-94.431-37.691-31.803-3.381-78.409-4.373-119.818 10.096-27.933 9.76-50.939 26.585-66.529 48.657-9.307 13.177-15.727 28.31-19.082 44.98-3.66 18.189-9.447 55.074-7.079 97.746 2.94 52.971 17.285 98.011 42.636 133.869q.06.085.123.169l17.803 23.745c10.161 13.553 26.341 21.644 43.28 21.644h43.752v118.939c0 5.538 4.506 10.043 10.044 10.043h36.124c5.539 0 10.044-4.505 10.044-10.043v-55.189a7.484 7.484 0 1 0-14.968 0v50.264h-26.276V383.018h26.276v28.623a7.484 7.484 0 1 0 14.968 0v-28.623h43.752c16.939 0 33.118-8.091 43.28-21.644l17.803-23.745.123-.169c60.076-84.969 42.077-200.365 35.13-233.709m-47.292 224.984-17.738 23.66c-7.35 9.802-19.052 15.655-31.304 15.655H184.169c-12.252 0-23.954-5.853-31.304-15.655l-17.74-23.661c-23.665-33.512-37.074-75.895-39.853-125.972-2.276-41.011 3.288-76.475 6.807-93.964 2.941-14.613 8.537-27.833 16.634-39.296 13.782-19.512 34.267-34.438 59.24-43.163 38.785-13.551 83.02-12.559 113.3-9.342 35.589 3.782 65.346 15.533 86.055 33.982 10.485 9.343 18.923 20.735 25.078 33.863 3.112 6.637 5.529 14.027 7.182 21.962 6.632 31.837 23.871 141.905-32.64 221.931"/><path d="M323.029 44.886c-21.248-8.011-44.094-11.375-66.722-11.408-24.855-.036-51.105 3.708-73.859 14.155a7.484 7.484 0 0 0 6.243 13.604c11.006-5.051 23.033-7.953 34.997-9.773 24.425-3.716 46.706-3.955 71.025.934 40.528 8.148 73.558 35.343 79.696 77.885 3.244 22.484 7.785 65.222 1.743 98.818-2.539 14.12-14.754 24.369-29.044 24.369h-42.482c-13.847 0-25.19 11.263-25.286 25.108-.04 5.788-4.669 10.498-10.318 10.498h-25.987c-5.65 0-10.278-4.596-10.318-10.245-.098-13.984-11.442-25.361-25.288-25.361h-42.481c-14.29 0-26.505-10.249-29.044-24.369-6.041-33.596-1.501-76.333 1.743-98.818 2.761-19.138 11.693-37.199 25.152-50.858a7.483 7.483 0 0 0-.078-10.583 7.48 7.48 0 0 0-10.584.078c-15.684 15.916-26.091 36.95-29.305 59.225-3.373 23.382-8.075 67.934-1.661 103.605 3.823 21.259 22.233 36.688 43.776 36.688h42.481c5.65 0 10.279 4.71 10.319 10.498.097 13.844 11.44 25.108 25.286 25.108h25.987c13.846 0 25.189-11.377 25.287-25.362.039-5.648 4.668-10.244 10.318-10.244h42.482c21.543 0 39.953-15.43 43.776-36.688 6.415-35.672 1.713-80.223-1.66-103.605-5.487-38.032-30.851-69.934-66.194-83.259M326.485 289.076c-16.872 0-30.598 13.726-30.598 30.597s13.726 30.598 30.598 30.598c16.871 0 30.598-13.727 30.598-30.598s-13.727-30.597-30.598-30.597m0 46.227c-8.618 0-15.63-7.011-15.63-15.63 0-8.617 7.011-15.629 15.63-15.629s15.629 7.011 15.629 15.629c.001 8.618-7.011 15.63-15.629 15.63M185.569 289.076c-16.871 0-30.598 13.726-30.598 30.597s13.726 30.598 30.598 30.598 30.598-13.727 30.598-30.598-13.726-30.597-30.598-30.597m0 46.227c-8.618 0-15.629-7.011-15.629-15.63 0-8.617 7.011-15.629 15.629-15.629s15.63 7.011 15.63 15.629-7.012 15.63-15.63 15.63"/><path d="M203.663 205.892c-14.289.289-26.396-11.575-26.396-25.854a7.484 7.484 0 1 0-14.968 0c0 19.898 14.95 37.36 34.661 40.361a41 41 0 0 0 7.005.457c21.289-.429 38.829-17.409 39.932-38.656.588-11.316-3.377-22.064-11.164-30.266-7.79-8.204-18.304-12.723-29.607-12.723-5.337 0-9.544.415-13.243 1.191l5.009-30.235h34.613a7.484 7.484 0 1 0 0-14.968h-40.96a7.484 7.484 0 0 0-7.383 6.261l-8.114 48.976a7.48 7.48 0 0 0 2.972 7.259c4.258 3.116 8.35.131 12.499-1.378 4.689-1.706 9.647-2.137 14.607-2.137 7.157 0 13.816 2.863 18.752 8.061 4.932 5.195 7.443 12.008 7.071 19.184-.698 13.448-11.805 24.194-25.286 24.467M322.828 111.525a7.484 7.484 0 0 0-8.948-11.998c-1.463 1.088-35.718 27.1-41.657 76.193-2.369 19.583 8.853 38.569 28.423 43.819a39 39 0 0 0 10.1 1.325c21.51 0 39.009-17.499 39.009-39.009s-17.499-39.01-39.009-39.01c-5.013 0-9.803.961-14.21 2.691 10.721-22.055 26.074-33.846 26.292-34.011m-12.082 46.29c13.257 0 24.041 10.785 24.041 24.042 0 13.256-10.785 24.041-24.041 24.041-7.097 0-13.939-3.227-18.479-8.678-6.149-7.384-7.345-17.121-3.2-25.745 3.967-8.254 12.518-13.66 21.679-13.66"/><circle cx="257.375" cy="206.882" r="9.218"/></svg>