<svg xmlns="http://www.w3.org/2000/svg" width="512" height="512"><path fill="#f9f3f1" d="M301.838 208.302v-35.624h-91.675v35.624c0 5.847-3.699 11.026-9.203 12.998-22.648 8.117-38.853 29.76-38.853 55.201v200.106c0 15.405 12.488 27.893 27.893 27.893h132.003c15.405 0 27.893-12.488 27.893-27.893V276.501c0-25.441-16.205-47.084-38.853-55.201-5.507-1.973-9.205-7.152-9.205-12.998"/><path fill="#efe2dd" d="M349.896 276.505v200.103c0 15.403-12.491 27.895-27.895 27.895h-20.083c15.403 0 27.895-12.491 27.895-27.895V276.505c0-25.445-16.207-36.771-38.86-44.895-5.503-1.968-9.198-7.149-9.198-12.993v-45.939h20.083v35.627c0 5.844 3.695 11.025 9.198 12.993 22.654 8.123 38.86 29.762 38.86 55.207"/><path fill="#8d9ca8" d="M312.058 172.677H199.942a8 8 0 0 1-7.998-7.998V98.574a8 8 0 0 1 7.998-7.998h112.116a8 8 0 0 1 7.998 7.998v66.105a8 8 0 0 1-7.998 7.998"/><path fill="#7a8c98" d="M320.056 98.57v66.105c0 4.42-3.58 8.001-8.001 8.001h-20.002c4.42 0 8.001-3.58 8.001-8.001V98.57c0-4.41-3.58-7.991-8.001-7.991h20.002c4.421 0 8.001 3.581 8.001 7.991"/><path fill="#c5d3dd" d="M281.292 20.302c-.921-7.325-7.18-12.801-14.562-12.801h-21.46c-7.382 0-13.641 5.476-14.562 12.801-4.496 35.745-19.602 70.273-19.602 70.273h89.788s-15.106-34.528-19.602-70.273"/><path fill="#b6c4cf" d="M300.895 90.579h-20.592s-15.101-34.533-19.602-70.275c-.92-7.331-7.18-12.801-14.561-12.801h20.592c7.381 0 13.641 5.47 14.561 12.801 4.49 35.743 19.602 70.275 19.602 70.275"/><path fill="#ee6161" d="M162.106 298.023h187.788v134.153H162.106z"/><path fill="#e94444" d="M329.811 298.023h20.083v134.153h-20.083z"/><path d="M313.571 214.239c-2.531-.907-4.233-3.293-4.233-5.937v-28.124h2.72c8.547 0 15.499-6.953 15.499-15.499V98.574c0-8.547-6.953-15.499-15.499-15.499h-6.141c-1.899-4.781-5.012-13.05-8.136-23.227a7.502 7.502 0 0 0-14.341 4.401 333 333 0 0 0 6.398 18.827h-67.667C227.117 69.879 235.035 46 238.15 21.238c.447-3.556 3.508-6.237 7.12-6.237h21.461c3.612 0 6.672 2.681 7.12 6.239.347 2.749.763 5.574 1.238 8.393.689 4.085 4.552 6.843 8.642 6.15a7.5 7.5 0 0 0 6.15-8.642 192 192 0 0 1-1.147-7.774C287.346 8.326 277.887 0 266.73 0h-21.461c-11.156 0-20.615 8.326-22.004 19.367-3.379 26.866-13.103 53.403-17.188 63.708h-6.136c-8.546 0-15.499 6.953-15.499 15.499v66.105c0 8.547 6.953 15.499 15.499 15.499h2.72v28.124c0 2.644-1.701 5.03-4.233 5.937-26.212 9.394-43.824 34.416-43.824 62.261v200.106c0 19.516 15.877 35.393 35.393 35.393h25.284a7.501 7.501 0 0 0 0-15.002h-25.284c-11.245 0-20.392-9.148-20.392-20.392v-36.931h172.787v36.931c0 11.244-9.148 20.392-20.392 20.392h-72.409a7.501 7.501 0 1 0 .001 15.003h72.409c19.516 0 35.393-15.877 35.393-35.393V276.5c.001-27.845-17.611-52.867-43.823-62.261m-113.629-49.062a.5.5 0 0 1-.498-.498V98.574c0-.274.223-.498.498-.498h112.116a.5.5 0 0 1 .498.498v66.105a.5.5 0 0 1-.498.498zm3.548 63.184c8.477-3.038 14.173-11.099 14.173-20.059v-28.124h76.674v28.124c0 8.96 5.696 17.021 14.173 20.059 20.267 7.263 33.883 26.609 33.883 48.139v14.022H169.606V276.5c0-21.53 13.617-40.876 33.884-48.139m-33.884 196.314V305.523h172.787v119.152z"/></svg>