<svg xmlns="http://www.w3.org/2000/svg" width="512" height="512" viewBox="0 0 511.895 511.895"><path fill="#c5d3dd" d="M372.324 82.911V37.382c0-8.288 7.335-14.658 15.542-13.496l83.182 11.778a13.63 13.63 0 0 1 11.72 13.496v33.75H372.324z"/><path fill="#b6c4cf" d="M482.77 49.157v33.75h-20v-37.04c0-4.98-2.23-9.45-5.71-12.18l13.99 1.98c6.72.95 11.72 6.7 11.72 13.49"/><path fill="#8d9ca8" d="M428.897 488.145H279.802L347 91.584a10.58 10.58 0 0 1 10.405-8.674h136.41c6.604 0 11.594 5.985 10.405 12.482l-64.914 384.075a10.58 10.58 0 0 1-10.409 8.678"/><path fill="#7a8c98" d="m504.22 95.397-64.91 384.07c-.92 5.03-5.3 8.68-10.41 8.68h-19.78c5.11 0 9.49-3.65 10.41-8.68l64.92-384.07c1.18-6.5-3.81-12.49-10.41-12.49h19.78c6.6 0 11.59 5.99 10.4 12.49"/><path fill="#c5d3dd" d="M297.751 488.145H147.23c-8.704 0-15.76-7.056-15.76-15.76v-90.499c0-8.704 7.056-15.76 15.76-15.76h150.521c33.694 0 61.009 27.315 61.009 61.009s-27.315 61.01-61.009 61.01"/><path fill="#b6c4cf" d="M358.76 427.137c0 16.85-6.83 32.1-17.87 43.14s-26.29 17.87-43.14 17.87h-19.91c16.84 0 32.1-6.83 43.14-17.87s17.87-26.29 17.87-43.14c0-33.7-27.32-61.01-61.01-61.01h19.91c33.7 0 61.01 27.31 61.01 61.01"/><path fill="#f9f3f1" d="M187.171 366.127h36.896v122.018h-36.896z"/><path fill="#efe2dd" d="M205.619 366.127h18.448v122.018h-18.448z"/><path d="M507.701 81.913a18.03 18.03 0 0 0-13.886-6.502h-3.548V49.16c0-10.461-7.811-19.455-18.168-20.922l-83.182-11.777a21.1 21.1 0 0 0-16.817 4.967 21.12 21.12 0 0 0-7.276 15.955v38.028h-7.419c-8.731 0-16.21 6.234-17.8 14.921l-45.463 268.295H147.229c-12.825 0-23.259 10.435-23.259 23.26v90.499c0 12.825 10.434 23.26 23.259 23.26h281.667a18.08 18.08 0 0 0 17.788-14.827l.018-.101 54.991-325.366a7.503 7.503 0 0 0-6.146-8.646c-4.083-.685-7.954 2.062-8.646 6.146l-54.979 325.301a3.08 3.08 0 0 1-3.026 2.493h-88.437c15.71-12.565 25.801-31.876 25.801-53.51 0-11.971-3.136-23.756-9.067-34.082a7.5 7.5 0 0 0-13.006 7.472c4.627 8.055 7.073 17.257 7.073 26.609 0 29.506-24.004 53.51-53.509 53.51h-66.184V373.627h66.184c8.562 0 16.738 1.959 24.302 5.822a7.501 7.501 0 0 0 6.822-13.36c-6.165-3.148-12.831-5.333-19.684-6.493l45.186-266.662a3.08 3.08 0 0 1 3.028-2.524h136.41c1.254 0 2.02.693 2.364 1.107.345.413.889 1.291.663 2.524l-.018.1-4.13 24.435a7.503 7.503 0 0 0 6.146 8.646 7.5 7.5 0 0 0 8.646-6.146l4.122-24.392a18.02 18.02 0 0 0-3.907-14.771M179.672 480.645H147.23c-4.554 0-8.259-3.705-8.259-8.26v-90.499c0-4.555 3.705-8.26 8.259-8.26h32.442zm36.895 0h-21.896V373.627h21.896zM379.824 75.411V37.383c0-2.433 1.322-3.944 2.111-4.629.788-.686 2.47-1.782 4.879-1.441l83.182 11.777c3.005.426 5.271 3.035 5.271 6.07v26.251z"/><circle cx="10" cy="411.357" r="10"/><circle cx="50.224" cy="411.357" r="10"/><circle cx="90.449" cy="411.357" r="10"/><circle cx="10" cy="449.035" r="10"/><circle cx="50.224" cy="449.035" r="10"/><circle cx="90.449" cy="449.035" r="10"/></svg>