<svg xmlns="http://www.w3.org/2000/svg" width="512" height="512"><path fill="#7acaa6" d="M378.588 329.225H133.413a5.58 5.58 0 0 0-5.255 3.709L69.81 497.037c-1.291 3.631 1.402 7.446 5.255 7.446h361.87c3.854 0 6.546-3.815 5.255-7.446l-58.348-164.103a5.575 5.575 0 0 0-5.254-3.709"/><path fill="#57be92" d="M436.934 504.478h-20.472c3.854 0 6.554-3.813 5.26-7.444L363.38 332.932a5.59 5.59 0 0 0-5.26-3.702h20.472a5.56 5.56 0 0 1 5.25 3.702l58.352 164.102c1.284 3.631-1.406 7.444-5.26 7.444"/><path fill="#f9f3f1" d="M254.053 7.529C171.035 8.562 103.562 76.56 103.047 159.584c-.178 28.717 8.276 54.251 21.602 79.29 17.969 33.763 52.978 81.782 117.498 117.583a28.58 28.58 0 0 0 27.708 0c64.519-35.801 99.528-83.82 117.498-117.583 13.188-24.78 21.604-50.045 21.604-78.4C408.956 75.35 339.421 6.467 254.053 7.529"/><path fill="#efe2dd" d="M408.953 160.474c0 28.355-8.409 53.624-21.6 78.401-17.971 33.758-52.982 81.778-117.501 117.581a28.55 28.55 0 0 1-27.704 0 304 304 0 0 1-9.993-5.783 28.5 28.5 0 0 0 17.961-3.288c64.519-35.792 99.529-83.813 117.501-117.581 13.19-24.777 21.6-50.045 21.6-78.4 0-57.833-32.094-108.169-79.453-134.159 57.954 21.749 99.189 77.668 99.189 143.229"/><path fill="#ee6161" d="M328.347 150.445h-33.491c-6.592 0-11.937-5.303-11.937-11.844V105.37c0-6.541-5.344-11.844-11.937-11.844h-29.965c-6.592 0-11.937 5.303-11.937 11.844v33.231c0 6.541-5.344 11.844-11.937 11.844h-33.491c-6.592 0-11.937 5.303-11.937 11.844v29.732c0 6.541 5.344 11.844 11.937 11.844h33.491c6.592 0 11.937 5.303 11.937 11.844v33.231c0 6.541 5.344 11.844 11.937 11.844h29.965c6.592 0 11.937-5.303 11.937-11.844v-33.231c0-6.541 5.344-11.844 11.937-11.844h33.491c6.592 0 11.937-5.303 11.937-11.844v-29.732c0-6.541-5.344-11.844-11.937-11.844"/><path fill="#e94444" d="M273.007 203.864h21.852c-6.593 0-11.947 5.306-11.947 11.851v33.218c0 6.545-5.338 11.851-11.931 11.851H250.94q-.453 0-.906-.048c6.164-.445 11.025-5.56 11.025-11.804v-33.218c.001-6.544 5.355-11.85 11.948-11.85M294.859 150.438h-21.852c-6.593 0-11.947-5.29-11.947-11.835v-33.235c0-6.243-4.861-11.343-11.025-11.788q.453-.048.906-.048h20.041c6.593 0 11.931 5.29 11.931 11.836v33.235c-.001 6.545 5.353 11.835 11.946 11.835M340.278 162.289v29.739c0 6.53-5.338 11.836-11.931 11.836h-21.852c6.593 0 11.931-5.306 11.931-11.836v-29.739c0-6.545-5.338-11.851-11.931-11.851h21.852c6.593 0 11.931 5.306 11.931 11.851"/><path d="m449.273 494.518-58.347-164.103a13.12 13.12 0 0 0-12.338-8.708h-46.946c30.617-27.558 50.216-56.511 62.346-79.303 15.34-28.824 22.486-54.859 22.486-81.931 0-26.229-6.47-52.256-18.712-75.267a7.514 7.514 0 0 0-10.167-3.106 7.516 7.516 0 0 0-3.106 10.167c11.089 20.845 16.95 44.43 16.95 68.206 0 24.512-6.584 48.303-20.724 74.868-17.572 33.018-51.702 79.691-114.509 114.541-6.296 3.494-14.117 3.492-20.413 0-62.806-34.851-96.937-81.524-114.508-114.541-14.291-26.851-20.874-50.908-20.721-75.71.236-38.181 15.287-74.237 42.381-101.525 27.098-27.293 63.039-42.586 101.202-43.061 42.688-.487 83.301 17.609 111.406 49.767a7.517 7.517 0 0 0 10.607.714 7.517 7.517 0 0 0 .714-10.607C345.867 19.44 301.093-.571 253.96.013c-42.128.524-81.792 17.394-111.684 47.501-29.884 30.099-46.485 69.884-46.746 112.024-.169 27.396 6.974 53.728 22.483 82.868 12.129 22.792 31.729 51.745 62.346 79.303h-46.945c-5.531 0-10.489 3.5-12.338 8.708l-11.868 33.377a7.52 7.52 0 0 0 4.564 9.601 7.514 7.514 0 0 0 9.601-4.564l11.409-32.087h63.645c11.939 9.191 25.24 18.057 40.072 26.286 5.48 3.041 11.49 4.562 17.502 4.562 6.011-.001 12.023-1.521 17.501-4.562 14.832-8.229 28.133-17.095 40.072-26.286h63.645l56.968 160.223H77.813l33.837-95.165a7.517 7.517 0 0 0-4.564-9.601 7.51 7.51 0 0 0-9.601 4.564L62.727 494.52a13.11 13.11 0 0 0 1.64 11.938 13.11 13.11 0 0 0 10.699 5.544h361.869c4.249 0 8.249-2.072 10.698-5.544a13.12 13.12 0 0 0 1.64-11.94"/><path d="M241.018 268.301h29.966c10.727 0 19.454-8.685 19.454-19.361v-33.231c0-2.385 1.982-4.326 4.419-4.326h33.49c10.727 0 19.454-8.685 19.454-19.361v-29.733c0-10.676-8.727-19.361-19.454-19.361h-33.49c-2.437 0-4.419-1.941-4.419-4.326V105.37c0-10.676-8.727-19.361-19.454-19.361h-29.966c-10.727 0-19.454 8.685-19.454 19.361v33.231c0 2.385-1.982 4.326-4.419 4.326h-33.491c-10.727 0-19.454 8.685-19.454 19.361v29.733c0 10.676 8.727 19.361 19.454 19.361h33.491c2.437 0 4.419 1.941 4.419 4.326v33.231c0 10.677 8.727 19.362 19.454 19.362m-23.874-71.953h-33.491c-2.437 0-4.419-1.941-4.419-4.326v-29.733c0-2.385 1.982-4.326 4.419-4.326h33.491c10.727 0 19.454-8.685 19.454-19.361V105.37c0-2.385 1.982-4.326 4.419-4.326h29.966c2.437 0 4.419 1.941 4.419 4.326v33.231c0 10.676 8.727 19.361 19.454 19.361h33.49c2.437 0 4.419 1.941 4.419 4.326v29.733c0 2.385-1.982 4.326-4.419 4.326h-33.49c-10.727 0-19.454 8.685-19.454 19.361v33.231c0 2.385-1.982 4.326-4.419 4.326h-29.966c-2.437 0-4.419-1.941-4.419-4.326v-33.231c0-10.675-8.727-19.36-19.454-19.36"/></svg>