<svg xmlns="http://www.w3.org/2000/svg" width="512" height="512"><path fill="#f9f3f1" d="M403.656 33.692v444.616c0 14.455-11.718 26.172-26.172 26.172h-94.817c-4.074 0-7.805-2.311-9.583-5.976-3.074-6.333-9.567-10.698-17.083-10.698s-14.01 4.365-17.083 10.698c-1.779 3.665-5.51 5.976-9.583 5.976h-94.817c-14.455 0-26.172-11.718-26.172-26.172V33.692c0-14.455 11.718-26.172 26.172-26.172h94.817c4.074 0 7.805 2.311 9.583 5.976 3.074 6.333 9.567 10.698 17.083 10.698s14.01-4.365 17.083-10.698c1.779-3.665 5.51-5.976 9.583-5.976h94.817c14.455 0 26.172 11.717 26.172 26.172"/><path fill="#efe2dd" d="M403.656 33.688v444.623c0 14.448-11.721 26.169-26.169 26.169h-20.052c14.448 0 26.169-11.721 26.169-26.169V33.688c0-14.448-11.721-26.169-26.169-26.169h20.052c14.449.001 26.169 11.721 26.169 26.169"/><circle cx="182.411" cy="95.204" r="24.984" fill="#6bd9e7"/><circle cx="182.411" cy="202.401" r="24.984" fill="#6bd9e7"/><circle cx="182.411" cy="309.599" r="24.984" fill="#6bd9e7"/><circle cx="182.411" cy="416.796" r="24.984" fill="#6bd9e7"/><circle cx="329.589" cy="95.204" r="24.984" fill="#6bd9e7"/><circle cx="329.589" cy="202.401" r="24.984" fill="#6bd9e7"/><circle cx="329.589" cy="309.599" r="24.984" fill="#6bd9e7"/><circle cx="329.589" cy="416.796" r="24.984" fill="#6bd9e7"/><path fill="#2ed1e2" d="M207.393 95.209c0 13.796-11.179 24.976-24.985 24.976-9.054 0-16.995-4.823-21.376-12.031 1.614.331 3.279.501 4.993.501 13.796 0 24.985-11.189 24.985-24.985a24.9 24.9 0 0 0-3.609-12.944c11.409 2.305 19.992 12.392 19.992 24.483M207.393 202.4c0 13.796-11.179 24.985-24.985 24.985-9.054 0-16.995-4.823-21.376-12.042 1.614.331 3.279.501 4.993.501 13.796 0 24.985-11.179 24.985-24.975 0-4.742-1.324-9.174-3.609-12.954 11.409 2.317 19.992 12.403 19.992 24.485M207.393 309.6c0 13.796-11.179 24.985-24.985 24.985-9.054 0-16.995-4.822-21.376-12.041 1.614.331 3.279.501 4.993.501 13.796 0 24.985-11.189 24.985-24.986a24.9 24.9 0 0 0-3.609-12.944c11.409 2.317 19.992 12.404 19.992 24.485M207.393 416.791c0 13.806-11.179 24.985-24.985 24.985-9.054 0-16.985-4.813-21.366-12.031 1.604.331 3.279.501 4.983.501 13.796 0 24.985-11.189 24.985-24.985a24.9 24.9 0 0 0-3.609-12.944c11.409 2.306 19.992 12.392 19.992 24.474M354.578 95.209c0 13.796-11.189 24.976-24.986 24.976-9.064 0-16.994-4.823-21.376-12.031 1.614.331 3.279.501 4.993.501 13.796 0 24.975-11.189 24.975-24.985a24.9 24.9 0 0 0-3.609-12.944c11.41 2.305 20.003 12.382 20.003 24.483M354.578 202.4c0 13.796-11.189 24.985-24.986 24.985-9.064 0-16.994-4.823-21.376-12.042 1.614.331 3.279.501 4.993.501 13.796 0 24.975-11.179 24.975-24.975 0-4.742-1.324-9.174-3.609-12.954 11.41 2.307 20.003 12.393 20.003 24.485M354.578 309.6c0 13.796-11.189 24.985-24.986 24.985-9.064 0-16.994-4.822-21.376-12.041 1.614.331 3.279.501 4.993.501 13.796 0 24.975-11.189 24.975-24.986a24.9 24.9 0 0 0-3.609-12.944c11.41 2.307 20.003 12.394 20.003 24.485M354.578 416.791c0 13.806-11.189 24.985-24.986 24.985-9.064 0-16.984-4.813-21.366-12.031 1.604.331 3.278.501 4.983.501 13.796 0 24.975-11.189 24.975-24.985a24.9 24.9 0 0 0-3.609-12.944c11.41 2.306 20.003 12.382 20.003 24.474"/><path d="M263.52 446.063V65.937c0-4.154-3.367-7.52-7.52-7.52s-7.52 3.366-7.52 7.52v380.125c0 4.154 3.367 7.52 7.52 7.52s7.52-3.366 7.52-7.519M182.411 127.707c17.922 0 32.503-14.581 32.503-32.503s-14.581-32.503-32.503-32.503-32.503 14.581-32.503 32.503c-.001 17.922 14.581 32.503 32.503 32.503m0-49.967c9.63 0 17.464 7.834 17.464 17.464s-7.834 17.464-17.464 17.464-17.464-7.834-17.464-17.464 7.834-17.464 17.464-17.464M182.411 234.905c17.922 0 32.503-14.581 32.503-32.503s-14.581-32.504-32.503-32.504-32.503 14.581-32.503 32.504c-.001 17.922 14.581 32.503 32.503 32.503m0-49.968c9.63 0 17.464 7.835 17.464 17.465s-7.834 17.463-17.464 17.463-17.464-7.834-17.464-17.463 7.834-17.465 17.464-17.465M182.411 342.102c17.922 0 32.503-14.581 32.503-32.504s-14.581-32.503-32.503-32.503-32.503 14.581-32.503 32.503c-.001 17.923 14.581 32.504 32.503 32.504m0-49.967c9.63 0 17.464 7.834 17.464 17.464s-7.834 17.465-17.464 17.465-17.464-7.835-17.464-17.465 7.834-17.464 17.464-17.464M182.411 449.299c17.922 0 32.503-14.581 32.503-32.503s-14.581-32.503-32.503-32.503-32.503 14.581-32.503 32.503c-.001 17.922 14.581 32.503 32.503 32.503m0-49.967c9.63 0 17.464 7.834 17.464 17.464s-7.834 17.464-17.464 17.464-17.464-7.834-17.464-17.464 7.834-17.464 17.464-17.464M329.589 127.707c17.922 0 32.504-14.581 32.504-32.503s-14.581-32.503-32.504-32.503-32.503 14.581-32.503 32.503 14.581 32.503 32.503 32.503m0-49.967c9.63 0 17.464 7.834 17.464 17.464s-7.834 17.464-17.464 17.464-17.464-7.834-17.464-17.464 7.834-17.464 17.464-17.464M329.589 234.905c17.922 0 32.504-14.581 32.504-32.503s-14.581-32.504-32.504-32.504-32.503 14.581-32.503 32.504 14.581 32.503 32.503 32.503m0-49.968c9.63 0 17.464 7.835 17.464 17.465s-7.834 17.463-17.464 17.463-17.464-7.834-17.464-17.463 7.834-17.465 17.464-17.465M329.589 342.102c17.922 0 32.504-14.581 32.504-32.504s-14.581-32.503-32.504-32.503-32.503 14.581-32.503 32.503 14.581 32.504 32.503 32.504m0-49.967c9.63 0 17.464 7.834 17.464 17.464s-7.834 17.465-17.464 17.465-17.464-7.835-17.464-17.465 7.834-17.464 17.464-17.464M329.589 449.299c17.922 0 32.504-14.581 32.504-32.503s-14.581-32.503-32.504-32.503-32.503 14.581-32.503 32.503 14.581 32.503 32.503 32.503m0-49.967c9.63 0 17.464 7.834 17.464 17.464s-7.834 17.464-17.464 17.464-17.464-7.834-17.464-17.464 7.834-17.464 17.464-17.464"/><path d="M377.484 0h-94.817c-6.921 0-13.338 4.009-16.349 10.212-1.934 3.985-5.888 6.461-10.318 6.461s-8.384-2.476-10.318-6.461C242.671 4.009 236.254 0 229.333 0h-94.817c-18.578 0-33.692 15.114-33.692 33.692V378.09c0 4.154 3.367 7.52 7.52 7.52s7.52-3.366 7.52-7.52V33.692c0-10.285 8.368-18.652 18.653-18.652h94.817c1.199 0 2.306.682 2.818 1.739 4.403 9.073 13.764 14.935 23.849 14.935s19.445-5.862 23.849-14.935c.513-1.057 1.619-1.739 2.818-1.739h94.817c10.285 0 18.653 8.368 18.653 18.652v151.156c0 4.154 3.367 7.52 7.52 7.52s7.52-3.366 7.52-7.52V33.692C411.176 15.114 396.062 0 377.484 0M403.656 212.372a7.52 7.52 0 0 0-7.52 7.52v258.417c0 10.285-8.368 18.652-18.653 18.652h-94.817c-1.199 0-2.306-.682-2.818-1.739-4.403-9.073-13.764-14.935-23.849-14.935-10.084 0-19.445 5.862-23.849 14.935-.513 1.057-1.619 1.739-2.818 1.739h-94.817c-10.285 0-18.653-8.368-18.653-18.652v-65.406c0-4.154-3.367-7.52-7.52-7.52s-7.52 3.366-7.52 7.52v65.406c0 18.578 15.114 33.692 33.692 33.692h94.817c6.921 0 13.338-4.009 16.349-10.212 1.934-3.985 5.888-6.461 10.318-6.461s8.384 2.476 10.318 6.461c3.011 6.204 9.428 10.212 16.349 10.212h94.817c18.578 0 33.692-15.114 33.692-33.692V219.892a7.517 7.517 0 0 0-7.518-7.52"/></svg>