<svg xmlns="http://www.w3.org/2000/svg" width="512" height="512" viewBox="0 0 512.177 512.177"><path fill="#d4f2f6" d="M310.818 180.291v-23.732h-109.46v23.732c0 8.745-7.089 15.834-15.834 15.834s-15.834 7.089-15.834 15.834V482.78c0 12.093 9.803 21.897 21.897 21.897h129.002c12.093 0 21.897-9.803 21.897-21.897V211.959c0-8.745-7.089-15.834-15.834-15.834s-15.834-7.089-15.834-15.834"/><path fill="#a6e7f0" d="M342.491 211.957v270.825c0 12.089-9.81 21.899-21.899 21.899H300.51c12.089 0 21.899-9.81 21.899-21.899V224.337c0-8.746-7.099-15.835-15.835-15.835-4.378 0-8.334-1.777-11.196-4.639s-4.639-6.818-4.639-11.196V156.56h20.082v23.727a15.8 15.8 0 0 0 4.639 11.196 15.74 15.74 0 0 0 11.196 4.639c8.746 0 15.835 7.089 15.835 15.835"/><path fill="#c5d3dd" d="M317.504 156.558H194.673a8.763 8.763 0 0 1-8.763-8.763V110.54a8.763 8.763 0 0 1 8.763-8.763h122.831a8.763 8.763 0 0 1 8.763 8.763v37.256a8.764 8.764 0 0 1-8.763 8.762"/><path fill="#b6c4cf" d="M326.265 110.543v37.252a8.77 8.77 0 0 1-8.766 8.766h-20.082a8.77 8.77 0 0 0 8.766-8.766v-37.252a8.77 8.77 0 0 0-8.766-8.766h20.082a8.77 8.77 0 0 1 8.766 8.766"/><path fill="#8d9ca8" d="M296.094 101.775V19.72c0-6.749-5.471-12.22-12.22-12.22h-55.572c-6.749 0-12.22 5.471-12.22 12.22v82.055z"/><path fill="#7a8c98" d="M296.092 19.722v82.055H276.01V19.722c0-6.748-5.472-12.22-12.22-12.22h20.082c6.747 0 12.22 5.473 12.22 12.22"/><path fill="#fece85" d="M169.691 263.998h172.796v172.796H169.691z"/><path fill="#fdb441" d="M322.404 263.998h20.082v172.796h-20.082z"/><path fill="#ee6161" d="M291.76 336.993c-11.802 0-21.37-9.568-21.37-21.37s9.568-21.37 21.37-21.37 21.37 9.568 21.37 21.37-9.568 21.37-21.37 21.37"/><path fill="#e94444" d="M313.127 315.619c0 5.904-2.39 11.246-6.256 15.112a21.27 21.27 0 0 1-15.112 6.266c-9.007 0-16.718-5.583-19.861-13.475a21.2 21.2 0 0 0 6.898 1.145c5.894 0 11.236-2.39 15.112-6.256a21.3 21.3 0 0 0 6.255-15.112 21.1 21.1 0 0 0-1.516-7.902 21.2 21.2 0 0 1 8.224 5.111c3.866 3.875 6.256 9.217 6.256 15.111"/><circle cx="267.598" cy="47.043" r="10.041"/><path d="M220.417 140.567a7.5 7.5 0 0 0 7.5-7.5v-7.799c0-4.143-3.358-7.5-7.5-7.5s-7.5 3.357-7.5 7.5v7.799a7.5 7.5 0 0 0 7.5 7.5M256.088 140.567a7.5 7.5 0 0 0 7.5-7.5v-7.799c0-4.143-3.358-7.5-7.5-7.5s-7.5 3.357-7.5 7.5v7.799a7.5 7.5 0 0 0 7.5 7.5M291.76 140.567a7.5 7.5 0 0 0 7.5-7.5v-7.799c0-4.143-3.358-7.5-7.5-7.5s-7.5 3.357-7.5 7.5v7.799a7.5 7.5 0 0 0 7.5 7.5"/><path d="M326.652 188.625c-4.595 0-8.333-3.738-8.333-8.334v-16.274c8.588-.429 15.448-7.53 15.448-16.221V110.54c0-8.967-7.295-16.263-16.263-16.263h-13.909V19.72c0-10.873-8.847-19.72-19.72-19.72h-55.571c-10.874 0-19.72 8.847-19.72 19.72v19.56c0 4.143 3.358 7.5 7.5 7.5s7.5-3.357 7.5-7.5V19.72a4.725 4.725 0 0 1 4.72-4.72h55.571a4.725 4.725 0 0 1 4.72 4.72v74.556h-65.012V74.612c0-4.143-3.358-7.5-7.5-7.5s-7.5 3.357-7.5 7.5v19.665h-13.909c-8.967 0-16.263 7.296-16.263 16.263v37.256c0 8.692 6.86 15.793 15.448 16.221v16.274c0 4.596-3.739 8.334-8.334 8.334-12.866 0-23.334 10.468-23.334 23.334V482.78c0 16.209 13.188 29.396 29.397 29.396h72.502c4.142 0 7.5-3.357 7.5-7.5s-3.358-7.5-7.5-7.5h-72.502c-7.938 0-14.397-6.458-14.397-14.396v-38.486h157.796v38.486c0 7.938-6.458 14.396-14.397 14.396h-21.396c-4.142 0-7.5 3.357-7.5 7.5s3.358 7.5 7.5 7.5h21.396c16.209 0 29.397-13.188 29.397-29.396V211.959c-.001-12.866-10.468-23.334-23.335-23.334m-133.241-40.829V110.54c0-.696.566-1.263 1.263-1.263h122.83c.696 0 1.263.566 1.263 1.263v37.256c0 .696-.566 1.263-1.263 1.263h-122.83a1.264 1.264 0 0 1-1.263-1.263m141.575 281.498H177.19V271.498h157.796zm0-172.796H177.19v-44.539c0-4.596 3.739-8.334 8.334-8.334 12.866 0 23.334-10.468 23.334-23.334v-16.232h94.46v16.232c0 12.866 10.468 23.334 23.334 23.334 4.595 0 8.334 3.738 8.334 8.334z"/><path d="M291.76 344.492c15.919 0 28.87-12.95 28.87-28.869s-12.951-28.87-28.87-28.87-28.87 12.951-28.87 28.87 12.951 28.869 28.87 28.869m0-42.739c7.648 0 13.87 6.222 13.87 13.87s-6.222 13.869-13.87 13.869-13.87-6.222-13.87-13.869c0-7.648 6.222-13.87 13.87-13.87"/></svg>