<svg xmlns="http://www.w3.org/2000/svg" width="512" height="512" viewBox="0 0 511.932 511.932"><path fill="#d4f2f6" d="M387.169 43.836v424.26c0 20.07-16.27 36.34-36.33 36.34H161.092c-20.06 0-36.33-16.27-36.33-36.34V43.836c0-20.07 16.27-36.34 36.33-36.34h189.747c20.06 0 36.33 16.27 36.33 36.34"/><path fill="#a6e7f0" d="M387.169 43.836v424.26c0 20.07-16.27 36.34-36.33 36.34h-20c20.06 0 36.33-16.27 36.33-36.34V43.836c0-20.07-16.27-36.34-36.33-36.34h20c20.06 0 36.33 16.27 36.33 36.34"/><path fill="#8d9ca8" d="M387.169 435.066v33.03c0 20.07-16.27 36.34-36.33 36.34H161.092c-20.06 0-36.33-16.27-36.33-36.34v-33.03z"/><path fill="#7a8c98" d="M387.169 435.066v33.03c0 20.07-16.27 36.34-36.33 36.34h-20c20.06 0 36.33-16.27 36.33-36.34v-33.03z"/><path fill="#ee6161" d="M274.63 140.897h-40.194c-7.989 0-14.727 5.953-15.709 13.882l-9.864 69.867h91.341l-9.864-69.867c-.983-7.929-7.721-13.882-15.71-13.882"/><path fill="#e94444" d="M300.206 224.646h-20.04l-9.86-69.87c-.98-7.93-7.72-13.88-15.71-13.88h20.03c7.99 0 14.73 5.95 15.71 13.88z"/><path fill="#f79595" d="M314.624 261.882H194.442a4.48 4.48 0 0 1-4.479-4.479v-12.736c0-11.057 8.964-20.021 20.021-20.021h89.097c11.057 0 20.021 8.964 20.021 20.021v12.736a4.477 4.477 0 0 1-4.478 4.479"/><path fill="#f47c7c" d="M319.106 244.666v12.74c0 2.47-2.01 4.48-4.48 4.48h-20.23c2.48 0 4.48-2.01 4.48-4.48v-12.74c0-11.06-8.96-20.02-20.02-20.02h20.23c11.049 0 20.02 8.96 20.02 20.02"/><circle cx="255.966" cy="343.456" r="40.55" fill="#fec165"/><path fill="#fdb441" d="M296.516 343.456c0 22.4-18.16 40.55-40.55 40.55-11.14 0-21.22-4.49-28.55-11.77a40 40 0 0 0 9.8 1.2c22.39 0 40.55-18.15 40.55-40.55 0-11.25-4.58-21.43-11.99-28.78 17.65 4.38 30.74 20.34 30.74 39.35"/><path fill="#8d9ca8" d="m255.966 7.501-67.121-.005 5.792 23.761a13.97 13.97 0 0 0 13.57 10.66h95.518c6.44 0 12.045-4.403 13.57-10.66l5.792-23.761z"/><path fill="#7a8c98" d="m323.086 7.496-5.79 23.76a13.97 13.97 0 0 1-13.57 10.66h-22.13c6.44 0 12.04-4.4 13.57-10.66l5.79-23.76z"/><path d="M448.491 183.873a7.501 7.501 0 0 0-9.496 11.612c13.064 10.684 20.557 26.478 20.557 43.332 0 16.509-7.241 32.094-19.866 42.758a7.5 7.5 0 1 0 9.679 11.458c16.007-13.521 25.187-33.282 25.187-54.217 0-21.373-9.5-41.398-26.061-54.943"/><path d="M432.868 214.968a7.5 7.5 0 0 0-9.496 11.612 15.49 15.49 0 0 1 5.708 12.03c0 4.582-2.011 8.908-5.517 11.87a7.5 7.5 0 1 0 9.679 11.458 30.48 30.48 0 0 0 10.837-23.329c.001-9.198-4.086-17.815-11.211-23.641M72.245 281.574C59.62 270.909 52.38 255.325 52.38 238.816c0-16.854 7.492-32.648 20.556-43.332a7.5 7.5 0 1 0-9.496-11.612c-16.562 13.544-26.06 33.57-26.06 54.943 0 20.935 9.18 40.695 25.186 54.217a7.47 7.47 0 0 0 4.836 1.771 7.5 7.5 0 0 0 4.843-13.229"/><path d="M88.559 226.579a7.5 7.5 0 1 0-9.495-11.612 30.43 30.43 0 0 0-11.213 23.642c0 9.008 3.95 17.511 10.836 23.329a7.47 7.47 0 0 0 4.836 1.771 7.5 7.5 0 0 0 4.844-13.229 15.51 15.51 0 0 1-5.517-11.87 15.5 15.5 0 0 1 5.709-12.031M255.966 295.406c-26.495 0-48.05 21.555-48.05 48.05s21.555 48.05 48.05 48.05 48.05-21.555 48.05-48.05-21.555-48.05-48.05-48.05m0 81.1c-18.224 0-33.05-14.826-33.05-33.05s14.826-33.05 33.05-33.05 33.05 14.826 33.05 33.05-14.827 33.05-33.05 33.05M306.879 218.277l-3.104-21.984c-.58-4.102-4.383-6.95-8.476-6.378a7.5 7.5 0 0 0-6.378 8.476l2.648 18.755h-28.104v-15.113q-.002-.778-.153-1.513a13.1 13.1 0 0 0 5.763-10.858c0-7.241-5.87-13.11-13.11-13.11s-13.11 5.87-13.11 13.11c0 4.518 2.286 8.501 5.763 10.858q-.151.735-.153 1.513v15.113h-30.97l8.657-61.317.017-.126a8.34 8.34 0 0 1 8.267-7.306h40.194a8.34 8.34 0 0 1 8.267 7.306l.017.125 1.146 8.117a7.501 7.501 0 0 0 14.854-2.096l-1.138-8.061c-1.478-11.63-11.415-20.392-23.145-20.392h-40.194c-11.73 0-21.667 8.762-23.144 20.392l-9.104 64.489c-11.389 3.371-19.724 13.922-19.724 26.39v12.736c0 6.604 5.374 11.979 11.979 11.979h120.182c6.604 0 11.979-5.374 11.979-11.979v-12.736c-.003-12.468-8.338-23.019-19.726-26.39m4.723 36.105H197.463v-9.715c0-6.904 5.617-12.521 12.521-12.521h89.097c6.904 0 12.521 5.617 12.521 12.521zM254.762 115.521c4.143 0 7.5-3.357 7.5-7.5V92.977c0-4.143-3.357-7.5-7.5-7.5a7.5 7.5 0 0 0-7.5 7.5v15.044a7.5 7.5 0 0 0 7.5 7.5M204.646 126.187a7.49 7.49 0 0 0 6.15 3.199 7.5 7.5 0 0 0 6.137-11.802l-8.629-12.323c-2.375-3.394-7.052-4.218-10.445-1.842s-4.218 7.053-1.842 10.445zM189.769 161.028a7.5 7.5 0 0 0-4.483-9.612l-14.137-5.145c-3.894-1.42-8.196.591-9.613 4.483s.591 8.195 4.483 9.612l14.137 5.145a7.502 7.502 0 0 0 9.613-4.483M341.405 153.705l-14.531 3.894a7.502 7.502 0 0 0 1.936 14.747c.643 0 1.296-.083 1.946-.258l14.531-3.894a7.5 7.5 0 0 0 5.303-9.186 7.496 7.496 0 0 0-9.185-5.303M299.22 131.701a7.47 7.47 0 0 0 4.817 1.755 7.48 7.48 0 0 0 5.749-2.679l9.67-11.524a7.5 7.5 0 0 0-.924-10.566 7.5 7.5 0 0 0-10.566.924l-9.67 11.524a7.5 7.5 0 0 0 .924 10.566"/><path d="M350.838 0H161.094c-24.169 0-43.832 19.663-43.832 43.832V468.1c0 24.169 19.663 43.832 43.832 43.832h19.712c4.142 0 7.5-3.357 7.5-7.5s-3.358-7.5-7.5-7.5h-19.712c-15.898 0-28.832-12.934-28.832-28.832v-25.534H379.67V468.1c0 15.898-12.934 28.832-28.832 28.832H215.505c-4.142 0-7.5 3.357-7.5 7.5s3.358 7.5 7.5 7.5h135.333c24.169 0 43.832-19.663 43.832-43.832V43.832C394.67 19.663 375.007 0 350.838 0m-37.3 15-3.529 14.48a6.45 6.45 0 0 1-6.284 4.936h-95.519a6.45 6.45 0 0 1-6.284-4.936L198.393 15zm66.132 412.565H132.261V43.832c0-15.898 12.934-28.832 28.832-28.832h21.86l4.396 18.033a21.415 21.415 0 0 0 20.857 16.383h95.519a21.414 21.414 0 0 0 20.857-16.383L328.978 15h21.86c15.898 0 28.832 12.934 28.832 28.832z"/><circle cx="255.966" cy="469.751" r="10"/></svg>