<svg xmlns="http://www.w3.org/2000/svg" width="512" height="512" viewBox="0 0 512.233 512.233"><path fill="#d4f2f6" d="M65.358 238.081h381.517v266.652H65.358z"/><path fill="#a6e7f0" d="M426.876 238.081h20v266.652h-20z"/><path fill="#6bd9e7" d="M440.053 129.638H72.181v-25.542c0-7.1 5.756-12.856 12.856-12.856h342.159c7.1 0 12.856 5.756 12.856 12.856v25.542z"/><path fill="#2ed1e2" d="M440.057 104.095v25.54h-20v-25.54c0-7.1-5.76-12.85-12.86-12.85h20c7.1 0 12.86 5.75 12.86 12.85"/><path fill="#d4f2f6" d="M464.794 194.485H47.44V136.16a6.52 6.52 0 0 1 6.522-6.522h404.31a6.52 6.52 0 0 1 6.522 6.522z"/><path fill="#a6e7f0" d="M464.797 136.165v58.32h-20v-58.32c0-3.61-2.92-6.53-6.52-6.53h20c3.6 0 6.52 2.92 6.52 6.53"/><path fill="#6bd9e7" d="M319.475 504.734H192.759V375.35c0-34.992 28.366-63.358 63.358-63.358s63.358 28.366 63.358 63.358z"/><path fill="#2ed1e2" d="M319.477 375.355v129.38h-20v-129.38c0-17.5-7.09-33.34-18.56-44.8-9.23-9.24-21.3-15.64-34.8-17.77 3.26-.52 6.6-.79 10-.79 17.5 0 33.34 7.09 44.8 18.56 11.47 11.46 18.56 27.3 18.56 44.8"/><path fill="#6bd9e7" d="M77.251 264.75c-16.464 0-29.811-13.347-29.811-29.811v-40.454h59.622v40.454c0 16.465-13.347 29.811-29.811 29.811"/><path fill="#2ed1e2" d="M107.067 194.485v40.45c0 16.47-13.35 29.82-29.82 29.82-3.51 0-6.87-.61-10-1.73 11.55-4.1 19.82-15.13 19.82-28.09v-40.45z"/><path fill="#6bd9e7" d="M196.495 264.75c-16.464 0-29.811-13.347-29.811-29.811v-40.454h59.622v40.454c0 16.465-13.347 29.811-29.811 29.811M315.739 264.75c-16.464 0-29.811-13.347-29.811-29.811v-40.454h59.622v40.454c0 16.465-13.347 29.811-29.811 29.811M434.983 264.75c-16.464 0-29.811-13.347-29.811-29.811v-40.454h59.622v40.454c0 16.465-13.347 29.811-29.811 29.811"/><path fill="#cdbfba" d="M136.873 264.75c-16.464 0-29.811-13.347-29.811-29.811v-40.454h59.622v40.454c0 16.465-13.347 29.811-29.811 29.811M256.117 264.75c-16.464 0-29.811-13.347-29.811-29.811v-40.454h59.622v40.454c0 16.465-13.347 29.811-29.811 29.811M375.361 264.75c-16.464 0-29.811-13.347-29.811-29.811v-40.454h59.622v40.454c0 16.465-13.347 29.811-29.811 29.811"/><path fill="#2ed1e2" d="M226.307 194.485v40.45c0 16.47-13.35 29.82-29.81 29.82-3.51 0-6.87-.61-10-1.72 11.54-4.11 19.81-15.14 19.81-28.1v-40.45zM345.547 194.485v40.45c0 16.47-13.34 29.82-29.81 29.82-3.5 0-6.87-.61-9.99-1.72 11.54-4.11 19.8-15.14 19.8-28.1v-40.45zM464.797 194.485v40.45c0 16.47-13.35 29.82-29.81 29.82-3.51 0-6.88-.61-10-1.73 11.54-4.1 19.81-15.13 19.81-28.09v-40.45z"/><path fill="#b9acac" d="M166.687 194.485v40.45c0 16.47-13.35 29.82-29.81 29.82-3.51 0-6.87-.61-10-1.72 11.54-4.11 19.81-15.14 19.81-28.1v-40.45zM285.927 194.485v40.45c0 16.47-13.35 29.82-29.81 29.82-3.51 0-6.87-.61-10-1.73 11.54-4.1 19.81-15.13 19.81-28.09v-40.45zM405.167 194.485v40.45c0 16.47-13.34 29.82-29.81 29.82-3.5 0-6.87-.61-9.99-1.72 11.54-4.11 19.8-15.14 19.8-28.1v-40.45z"/><circle cx="256.117" cy="83.345" r="75.845" fill="#f9f3f1"/><path fill="#efe2dd" d="M331.962 83.349c0 41.885-33.959 75.845-75.845 75.845-12.745 0-24.752-3.14-35.298-8.705a75.7 75.7 0 0 0 20.639 2.848c41.894 0 75.853-33.96 75.853-75.845 0-29.165-16.46-54.476-40.596-67.164 31.875 8.972 55.247 38.266 55.247 73.021"/><path fill="#ee6161" d="M295.47 68.703h-18.217a6.493 6.493 0 0 1-6.493-6.493V43.992a6.493 6.493 0 0 0-6.493-6.493h-16.299a6.493 6.493 0 0 0-6.493 6.493V62.21a6.493 6.493 0 0 1-6.493 6.493h-18.217a6.493 6.493 0 0 0-6.493 6.493v16.299a6.493 6.493 0 0 0 6.493 6.493h18.217a6.493 6.493 0 0 1 6.493 6.493v18.217a6.493 6.493 0 0 0 6.493 6.493h16.299a6.493 6.493 0 0 0 6.493-6.493v-18.217a6.493 6.493 0 0 1 6.493-6.493h18.217a6.493 6.493 0 0 0 6.493-6.493V75.196a6.493 6.493 0 0 0-6.493-6.493"/><path fill="#e94444" d="M260.92 97.984h16.331a6.495 6.495 0 0 0-6.49 6.498v18.213a6.495 6.495 0 0 1-6.49 6.498h-16.306c3.57-.016 6.458-2.921 6.458-6.498v-18.213a6.5 6.5 0 0 1 6.497-6.498M277.25 68.706h-16.33a6.5 6.5 0 0 1-6.498-6.498V43.995c0-3.578-2.888-6.482-6.458-6.498h16.306c3.586 0 6.49 2.913 6.49 6.498v18.213c0 3.585 2.905 6.498 6.49 6.498M301.962 75.196v16.298a6.49 6.49 0 0 1-6.49 6.49h-16.339a6.495 6.495 0 0 0 6.498-6.49V75.196a6.495 6.495 0 0 0-6.498-6.49h16.339a6.49 6.49 0 0 1 6.49 6.49"/><path d="M233.974 105.487v17.211c0 7.715 6.277 13.992 13.993 13.992h16.3c7.715 0 13.992-6.277 13.992-13.992v-17.211h17.21c7.716 0 13.993-6.277 13.993-13.992v-16.3c0-7.715-6.277-13.992-13.993-13.992h-17.21V43.992c0-7.715-6.277-13.992-13.992-13.992h-16.3c-7.716 0-13.993 6.277-13.993 13.992v17.211h-17.21c-7.715 0-13.992 6.277-13.992 13.992v16.3c0 7.715 6.277 13.992 13.992 13.992zm-16.202-29.284h17.21c7.715 0 13.992-6.277 13.992-13.993V45h14.285v17.21c0 7.716 6.277 13.993 13.993 13.993h17.21v14.284h-17.21c-7.716 0-13.993 6.277-13.993 13.993v17.21h-14.285v-17.21c0-7.716-6.277-13.993-13.992-13.993h-17.21z"/><path d="M458.272 122.138h-10.72v-18.041c0-11.225-9.132-20.356-20.355-20.356h-87.744c.001-.133.01-.263.01-.396C339.462 37.389 302.074 0 256.117 0s-83.345 37.389-83.345 83.345c0 .133.009.263.01.396h-28.846c-4.143 0-7.5 3.357-7.5 7.5s3.357 7.5 7.5 7.5h30.285a82.7 82.7 0 0 0 8.162 23.397H79.681v-18.041a5.36 5.36 0 0 1 5.356-5.356h23.876c4.143 0 7.5-3.357 7.5-7.5s-3.357-7.5-7.5-7.5H85.038c-11.225 0-20.356 9.132-20.356 20.356v18.041h-10.72c-7.732 0-14.022 6.29-14.022 14.022v98.779c0 13.476 7.182 25.305 17.919 31.864v237.93c0 4.143 3.357 7.5 7.5 7.5h381.517c4.143 0 7.5-3.357 7.5-7.5v-237.93c10.736-6.559 17.918-18.388 17.918-31.863v-98.78c-.001-7.732-6.291-14.022-14.022-14.022M338.013 98.74h89.183a5.36 5.36 0 0 1 5.355 5.356v18.041h-102.7a82.7 82.7 0 0 0 8.162-23.397M256.117 15c37.686 0 68.346 30.659 68.346 68.345s-30.66 68.346-68.346 68.346-68.345-30.66-68.345-68.346S218.431 15 256.117 15M54.94 234.939v-32.954h44.622v32.954c0 12.303-10.009 22.312-22.311 22.312S54.94 247.242 54.94 234.939m384.435 262.294h-112.4v-55.348c0-4.143-3.357-7.5-7.5-7.5s-7.5 3.357-7.5 7.5v55.348H200.258V375.351c0-30.801 25.058-55.858 55.858-55.858s55.858 25.058 55.858 55.858v31.877c0 4.143 3.357 7.5 7.5 7.5s7.5-3.357 7.5-7.5v-31.877c0-39.071-31.787-70.858-70.858-70.858s-70.858 31.787-70.858 70.858v121.883H72.859v-225.25c1.442.17 2.906.267 4.393.267 12.17 0 22.996-5.859 29.811-14.903 6.815 9.044 17.641 14.903 29.811 14.903s22.996-5.859 29.811-14.903c6.815 9.044 17.641 14.903 29.811 14.903s22.996-5.859 29.811-14.902c6.815 9.043 17.64 14.902 29.811 14.902s22.996-5.859 29.811-14.903c6.815 9.044 17.641 14.903 29.811 14.903s22.996-5.859 29.811-14.903c6.815 9.044 17.641 14.903 29.811 14.903s22.996-5.859 29.811-14.903c6.815 9.044 17.641 14.903 29.811 14.903 1.487 0 2.951-.097 4.393-.267v225.249zM114.562 234.939v-32.954h44.622v32.954c0 12.303-10.009 22.312-22.311 22.312s-22.311-10.009-22.311-22.312m59.622 0v-32.954h44.622v32.954c0 12.303-10.009 22.312-22.311 22.312h-.001c-12.301 0-22.31-10.009-22.31-22.312m59.622 0v-32.954h44.622v32.954c0 12.303-10.009 22.312-22.312 22.312-12.301 0-22.31-10.009-22.31-22.312m59.622 0v-32.954h44.622v32.954c0 12.303-10.009 22.312-22.312 22.312-12.301 0-22.31-10.009-22.31-22.312m59.622 0v-32.954h44.622v32.954c0 12.303-10.009 22.312-22.312 22.312-12.301 0-22.31-10.009-22.31-22.312m104.243 0c0 12.303-10.009 22.312-22.311 22.312s-22.311-10.009-22.311-22.312v-32.954h44.621zm0-47.954H54.94v-49.848h137.588c15.3 18.059 38.122 29.553 63.589 29.553s48.289-11.494 63.59-29.553h137.587v49.848z"/><path d="M285.928 392.854h-8.678c-4.143 0-7.5 3.357-7.5 7.5s3.357 7.5 7.5 7.5h1.178v31.991h-1.178c-4.143 0-7.5 3.357-7.5 7.5s3.357 7.5 7.5 7.5h8.678c4.143 0 7.5-3.357 7.5-7.5v-46.991c0-4.143-3.357-7.5-7.5-7.5"/></svg>