<svg xmlns="http://www.w3.org/2000/svg" width="512" height="512" viewBox="0 0 512.02 512.02"><path fill="#f9f3f1" d="M121.676 361.246 13.773 469.149c-7.872 7.872-8.455 20.697-.868 28.843 7.965 8.552 21.361 8.732 29.554.539L150.71 390.28a84.9 84.9 0 0 1 40.906-22.682l24.896-5.755a141.14 141.14 0 0 0 68.017-37.716l199.9-199.9c26.703-26.703 26.703-69.997 0-96.7s-69.997-26.703-96.7 0l-199.9 199.9a141.16 141.16 0 0 0-37.716 68.017l-5.755 24.896a84.9 84.9 0 0 1-22.682 40.906"/><path fill="#f9f3f1" d="m56.844 426.078 29.034 29.034-43.419 43.419c-8.017 8.017-21.016 8.017-29.034 0-8.017-8.017-8.017-21.016 0-29.034z"/><path fill="#efe2dd" d="M484.429 124.226 284.532 324.123a141.17 141.17 0 0 1-68.025 37.719l-24.89 5.755a84.83 84.83 0 0 0-40.907 22.682L42.46 498.531c-8.193 8.193-21.592 8.013-29.556-.54a19.84 19.84 0 0 1-4.816-9.023c6.724 1.639 14.128-.17 19.384-5.426L135.724 375.29a84.9 84.9 0 0 1 40.907-22.682l24.89-5.755a141.17 141.17 0 0 0 68.025-37.719l199.897-199.897c24.16-24.15 26.468-61.88 6.914-88.628a68 68 0 0 1 8.073 6.915c26.698 26.709 26.698 70.004-.001 96.702"/><path fill="#f9f3f1" d="m56.844 426.078 29.034 29.034-43.419 43.419c-8.017 8.017-21.016 8.017-29.034 0-8.017-8.017-8.017-21.016 0-29.034z"/><path fill="#8d9ca8" d="m56.844 426.078 29.034 29.034-43.419 43.419c-8.017 8.017-21.016 8.017-29.034 0-8.017-8.017-8.017-21.016 0-29.034z"/><path fill="#7a8c98" d="M85.874 455.107 42.46 498.531a20.5 20.5 0 0 1-4.087 3.167c-3.017 1.777-6.215 2.708-9.695 2.829-4.043.141-8.462-.998-11.838-3.249-2.509-1.673-4.769-3.851-6.335-6.435a19.9 19.9 0 0 1-2.418-5.875c6.724 1.639 14.128-.17 19.384-5.426l43.425-43.415z"/><path fill="#b6c4cf" d="M484.428 27.524c26.707 26.707 26.707 70.003.007 96.703l-6.67 6.67-96.703-96.703 6.67-6.67C401.086 14.17 418.58 7.501 436.08 7.494c17.501.007 35.002 6.683 48.348 20.03"/><path fill="#9facba" d="m484.439 124.226-6.674 6.675-14.978-14.978 6.674-6.675c24.15-24.15 26.458-61.87 6.914-88.618a67.6 67.6 0 0 1 8.053 6.895c26.71 26.708 26.71 70.003.011 96.701"/><path fill="#b6c4cf" d="m340.96 229.162-62.697 62.697c-16.062 16.062-42.103 16.062-58.165 0s-16.062-42.103 0-58.165l62.697-62.697c16.062-16.062 42.103-16.062 58.165 0s16.061 42.103 0 58.165"/><path fill="#9facba" d="M353.007 200.084c0 10.521-4.017 21.043-12.05 29.076l-62.699 62.699c-16.057 16.057-42.096 16.057-58.163 0a41 41 0 0 1-5.575-6.934c15.917 10.192 37.32 8.333 51.228-5.575l62.699-62.699c8.033-8.033 12.05-18.555 12.05-29.076 0-7.714-2.158-15.437-6.475-22.162a41 41 0 0 1 6.934 5.585c8.034 8.024 12.051 18.555 12.051 29.086"/><path fill="#f9f3f1" d="m319.836 216.184-54.552 54.552a6.324 6.324 0 0 1-8.944 0l-15.12-15.12a6.324 6.324 0 0 1 0-8.944l54.552-54.552a6.324 6.324 0 0 1 8.944 0l15.12 15.12a6.326 6.326 0 0 1 0 8.944"/><path fill="#efe2dd" d="m319.834 216.181-54.546 54.556a6.326 6.326 0 0 1-8.943 0l-12.22-12.21a6.33 6.33 0 0 0 8.923-.02l54.556-54.556a6.326 6.326 0 0 0 0-8.943l12.23 12.23a6.326 6.326 0 0 1 0 8.943"/><circle cx="387.272" cy="124.684" r="24.689" fill="#b6c4cf"/><path fill="#9facba" d="M404.734 142.142c-9.642 9.642-25.279 9.642-34.921 0-6.495-6.495-8.613-15.717-6.345-23.98a24.5 24.5 0 0 0 3.537 4.476c9.642 9.642 25.269 9.642 34.912 0 3.137-3.147 5.266-6.924 6.345-10.931 5.905 9.512 4.726 22.171-3.528 30.435"/><path d="m103.502 426.891-17.623 17.623-18.436-18.436 59.533-59.532a92.3 92.3 0 0 0 24.684-44.516l5.756-24.897a133.5 133.5 0 0 1 35.713-64.406l129.11-129.11a7.496 7.496 0 0 0 0-10.599 7.5 7.5 0 0 0-10.599 0l-129.11 129.11a148.5 148.5 0 0 0-39.718 71.628l-5.756 24.898a77.3 77.3 0 0 1-20.679 37.293L8.474 463.849c-10.736 10.737-11.209 28.345-1.052 39.25a28.15 28.15 0 0 0 9.384 6.651c10.423 4.51 22.855 2.176 30.952-5.92l66.343-66.342a7.496 7.496 0 0 0 0-10.599 7.5 7.5 0 0 0-10.599.002m-66.343 66.341c-2.523 2.523-5.887 3.86-9.45 3.816-3.568-.063-6.878-1.542-9.32-4.163-4.721-5.069-4.414-13.34.683-18.437l37.772-37.772 18.435 18.436z"/><path d="M489.727 22.224A76.1 76.1 0 0 0 471.802 8.9a75 75 0 0 0-14.751-5.954A76.3 76.3 0 0 0 436.077 0c-16.972-.007-33.502 5.699-46.826 16.195a77 77 0 0 0-6.818 6.029l-46.15 46.15a7.496 7.496 0 0 0 0 10.599 7.5 7.5 0 0 0 10.599 0l34.18-34.18 86.102 86.101L279.23 318.827a133.5 133.5 0 0 1-64.406 35.713l-24.897 5.756a92.3 92.3 0 0 0-44.517 24.684l-17.456 17.456a7.494 7.494 0 0 0 10.598 10.599l17.457-17.457a77.3 77.3 0 0 1 37.294-20.679l24.897-5.756a148.5 148.5 0 0 0 71.629-39.718l199.906-199.9c29.58-29.58 29.577-77.716-.008-107.301m-10.597 96.703-1.367 1.368-86.102-86.101c1.174-1.174 2.341-2.351 3.57-3.465a60.9 60.9 0 0 1 18.561-11.527 60.8 60.8 0 0 1 22.287-4.209c16.263 0 31.552 6.334 43.051 17.833 23.738 23.737 23.738 62.363 0 86.101"/><path d="M311.877 151.456c-12.988 0-25.198 5.058-34.382 14.241l-62.696 62.698c-9.184 9.184-14.242 21.394-14.242 34.382s5.059 25.198 14.242 34.382c9.479 9.479 21.929 14.217 34.381 14.217 12.451 0 24.903-4.739 34.382-14.217l62.697-62.698c9.183-9.184 14.241-21.395 14.241-34.382 0-12.988-5.058-25.198-14.241-34.382s-21.395-14.241-34.382-14.241m23.783 72.406-62.696 62.698c-13.117 13.115-34.455 13.112-47.568-.001-6.353-6.352-9.852-14.798-9.852-23.783 0-8.984 3.499-17.43 9.853-23.782l62.697-62.698c6.557-6.557 15.17-9.836 23.783-9.836s17.226 3.279 23.783 9.836c13.115 13.114 13.115 34.452 0 47.566"/><path d="M310.016 186.822a13.73 13.73 0 0 0-9.772-4.048 13.73 13.73 0 0 0-9.771 4.047l-54.551 54.551c-5.387 5.388-5.387 14.155 0 19.543l15.121 15.12a13.78 13.78 0 0 0 9.77 4.039c3.539 0 7.077-1.347 9.771-4.04l54.552-54.551c5.387-5.388 5.387-14.155-.001-19.543zm-49.204 77.787-13.466-13.466 52.897-52.897 13.466 13.466zM364.514 101.928c-12.547 12.548-12.547 32.965 0 45.514 6.274 6.274 14.515 9.41 22.757 9.41s16.484-3.136 22.758-9.41c12.547-12.548 12.547-32.965 0-45.514v-.001c-12.548-12.547-32.966-12.547-45.515.001m34.916 34.915c-6.703 6.704-17.614 6.705-24.317 0-6.705-6.704-6.705-17.613 0-24.317a17.14 17.14 0 0 1 12.158-5.029c4.404 0 8.807 1.676 12.159 5.028 6.705 6.705 6.705 17.614 0 24.318"/></svg>