<svg xmlns="http://www.w3.org/2000/svg" width="512" height="512" viewBox="0 0 512.18 512.18"><path fill="#f9f3f1" d="M285.185 122.618V36.595c0-16.069-13.027-29.096-29.096-29.096s-29.096 13.027-29.096 29.096v86.023z"/><path fill="#efe2dd" d="M285.187 36.6v86.018H265.12V36.6c0-12.542-7.937-23.238-19.064-27.322a29.1 29.1 0 0 1 10.034-1.776c16.074 0 29.097 13.024 29.097 29.098"/><path fill="#cdbfba" d="M308.544 169.407H203.635a7.484 7.484 0 0 1-7.484-7.484v-31.82a7.484 7.484 0 0 1 7.484-7.484h104.909a7.484 7.484 0 0 1 7.484 7.484v31.82a7.483 7.483 0 0 1-7.484 7.484"/><path fill="#b9acac" d="M316.03 130.103v31.816a7.485 7.485 0 0 1-7.485 7.485h-21.201a7.485 7.485 0 0 0 7.485-7.485v-31.816a7.485 7.485 0 0 0-7.485-7.485h21.201a7.485 7.485 0 0 1 7.485 7.485"/><path fill="#8d9ca8" d="M294.293 194.316v-24.909h-76.407v24.909a8.675 8.675 0 0 1-6.753 8.46c-32.895 7.476-56.238 36.719-56.238 70.453v213.996c0 9.64 7.815 17.455 17.455 17.455h167.48c9.64 0 17.455-7.815 17.455-17.455V273.229c0-33.733-23.344-62.977-56.238-70.453a8.676 8.676 0 0 1-6.754-8.46"/><path fill="#7a8c98" d="M357.289 273.231v213.996c0 9.642-7.816 17.448-17.458 17.448h-20.067c9.642 0 17.458-7.806 17.458-17.448V273.231c0-33.733-23.348-48.543-56.238-56.018-1.977-.451-3.662-1.555-4.856-3.05s-1.896-3.381-1.896-5.408v-39.352h20.067v24.913c0 2.027.702 3.923 1.896 5.418s2.88 2.599 4.856 3.04c32.889 7.477 56.238 36.725 56.238 70.457"/><path fill="#6bd9e7" d="M154.895 283.493h202.39v133.681h-202.39z"/><path fill="#2ed1e2" d="M337.221 283.493h20.064v133.681h-20.064z"/><path fill="#ee6161" d="M306.541 358.292c-11.794 0-21.354-9.561-21.354-21.354 0-11.794 9.561-21.354 21.354-21.354 11.794 0 21.354 9.561 21.354 21.354 0 11.794-9.56 21.354-21.354 21.354"/><path fill="#e94444" d="M327.893 336.935c0 5.9-2.388 11.238-6.251 15.101a21.25 21.25 0 0 1-15.101 6.261c-9 0-16.706-5.579-19.846-13.465a21.2 21.2 0 0 0 6.893 1.144c5.89 0 11.228-2.388 15.1-6.251a21.29 21.29 0 0 0 6.251-15.101c0-2.789-.532-5.458-1.515-7.896a21.2 21.2 0 0 1 8.218 5.107c3.863 3.872 6.251 9.21 6.251 15.1"/><path d="M347.363 223.477c-11.234-14.074-27.093-24.022-44.653-28.014a1.17 1.17 0 0 1-.917-1.147v-17.408h6.751c8.262 0 14.984-6.722 14.984-14.984v-31.82c0-8.263-6.722-14.984-14.984-14.984h-15.859V89.715c0-4.143-3.358-7.5-7.5-7.5s-7.5 3.357-7.5 7.5v25.403h-43.191V36.596c0-11.908 9.688-21.596 21.596-21.596s21.596 9.688 21.596 21.596v18.38c0 4.143 3.358 7.5 7.5 7.5s7.5-3.357 7.5-7.5v-18.38C292.685 16.417 276.268 0 256.09 0s-36.596 16.417-36.596 36.596v78.522h-15.859c-8.262 0-14.984 6.722-14.984 14.984v31.82c0 8.263 6.722 14.984 14.984 14.984h6.751v17.408a1.17 1.17 0 0 1-.916 1.147c-17.561 3.991-33.419 13.939-44.654 28.014s-17.422 31.743-17.422 49.752v160.998c0 4.143 3.358 7.5 7.5 7.5s7.5-3.357 7.5-7.5v-9.553h187.39v62.551c0 5.489-4.466 9.955-9.955 9.955H172.35c-5.489 0-9.955-4.466-9.955-9.955v-18.472c0-4.143-3.358-7.5-7.5-7.5s-7.5 3.357-7.5 7.5v18.472c0 13.761 11.195 24.955 24.955 24.955h167.48c13.76 0 24.955-11.194 24.955-24.955V273.229c0-18.009-6.188-35.678-17.422-49.752m-143.712-61.554-.016-31.805 104.894-.016.023 31.805zm146.134 247.751h-187.39V290.993h187.39zm0-133.681h-187.39v-2.765c0-30.432 20.726-56.395 50.401-63.139 7.413-1.687 12.59-8.173 12.59-15.774v-17.408h61.407v17.408c0 7.602 5.177 14.088 12.591 15.774 29.675 6.744 50.4 32.707 50.4 63.139v2.765z"/><path d="M306.541 365.792c15.91 0 28.854-12.943 28.854-28.854s-12.944-28.854-28.854-28.854-28.854 12.944-28.854 28.854 12.944 28.854 28.854 28.854m0-42.708c7.639 0 13.854 6.215 13.854 13.854s-6.215 13.854-13.854 13.854-13.854-6.215-13.854-13.854 6.215-13.854 13.854-13.854"/></svg>