<svg xmlns="http://www.w3.org/2000/svg" width="512" height="512"><path fill="#aedec8" d="m151.85 457.761 10.646 32.139a21.3 21.3 0 0 0 20.221 14.603h146.568a21.3 21.3 0 0 0 20.221-14.603l10.646-32.139z"/><path fill="#7acaa6" d="m360.153 457.758-10.645 32.145a21.31 21.31 0 0 1-20.221 14.603h-22.26a21.3 21.3 0 0 0 20.221-14.603l10.645-32.145z"/><path fill="#7acaa6" d="M470.263 243.577c.851-14.508-10.7-26.728-25.233-26.728H66.97c-14.533 0-26.083 12.22-25.233 26.728 2.626 44.788 13.345 135.811 56.743 194.138 9.417 12.657 24.324 20.046 40.1 20.046h234.84c15.776 0 30.683-7.389 40.1-20.046 43.398-58.327 54.117-149.35 56.743-194.138"/><path fill="#57be92" d="M470.262 243.576c-2.629 44.789-13.344 135.808-56.744 194.141-9.416 12.654-24.319 20.041-40.102 20.041h-19.931c15.783 0 30.686-7.387 40.102-20.041 43.4-58.333 54.115-149.352 56.744-194.141.85-14.503-10.705-26.728-25.238-26.728h19.941c14.533 0 26.078 12.224 25.228 26.728"/><path fill="#aedec8" d="M430.605 216.85H83.811v-41.538a8.5 8.5 0 0 1 8.5-8.5h329.795a8.5 8.5 0 0 1 8.5 8.5v41.538z"/><path fill="#7acaa6" d="M430.601 175.307v41.541H410.61v-41.541a8.495 8.495 0 0 0-8.496-8.496h19.991a8.496 8.496 0 0 1 8.496 8.496"/><path fill="#f9f3f1" d="M351.824 103.125h-8.176c12.46-46.312-9.382-78.965-22.226-93.334-3.218-3.601-9.138-2.863-11.185 1.511-13.582 29.026-67.668 31.991-88.285 32.041-9.771.024-19.479 2.128-28.213 6.507-34.207 17.151-28.783 53.275-28.783 53.275h-4.778c-25.827 0-46.764 20.937-46.764 46.764v16.923h285.174v-16.923c-.001-25.827-20.938-46.764-46.764-46.764"/><path fill="#efe2dd" d="M398.585 149.888v16.922h-19.721v-16.922c-.001-20.123-21.722-26.423-38.882-28.26-10.334-1.106-17.855-10.254-16.839-20.597 3.34-34.019-6.545-67.246-16.346-84.002a33 33 0 0 0 3.438-5.727c2.049-4.378 7.966-5.108 11.185-1.509 12.844 14.364 34.684 47.019 22.23 93.338h8.176c25.825-.001 46.759 20.933 46.759 46.757"/><path fill="#f9f3f1" d="M466.804 281.319c-4.148 33.355-12.284 74.766-28.247 111.969H73.444c-15.963-37.203-24.099-78.614-28.247-111.969z"/><path fill="#efe2dd" d="M466.804 281.319c-.15 1.219-.31 2.439-.47 3.678-.24 1.839-.5 3.698-.76 5.588-1.098 7.984-2.462 16.122-3.948 23.998a459 459 0 0 1-5.258 24.329 439 439 0 0 1-3.548 13.504 347 347 0 0 1-12.784 37.343c-.48 1.179-.98 2.359-1.479 3.528h-19.931c15.963-37.203 24.099-78.614 28.247-111.969z"/><path fill="#ee6161" d="M402.114 349.71c-11.792 0-21.351-9.559-21.351-21.351s9.559-21.351 21.351-21.351 21.351 9.559 21.351 21.351-9.559 21.351-21.351 21.351"/><path fill="#e94444" d="M423.462 328.356a21.29 21.29 0 0 1-6.25 15.099 21.25 21.25 0 0 1-15.099 6.26c-8.999 0-16.704-5.578-19.844-13.463a21.2 21.2 0 0 0 6.892 1.144c5.889 0 11.226-2.388 15.098-6.25a21.28 21.28 0 0 0 6.25-15.099c0-2.789-.532-5.457-1.515-7.895a21.2 21.2 0 0 1 8.216 5.106 21.3 21.3 0 0 1 6.252 15.098"/><path d="M468.883 219.643c-6.167-6.54-14.861-10.29-23.852-10.29h-6.928v-34.041c0-8.82-7.177-15.997-15.997-15.997h-16.021v-9.427c0-29.516-23.689-53.602-53.053-54.247 8.194-44.223-12.373-75.58-26.021-90.847A14.36 14.36 0 0 0 314.198.151c-4.72.694-8.738 3.673-10.75 7.972-4.845 10.354-17.127 18.02-36.505 22.784-17.257 4.243-35.607 4.915-45.009 4.937-11.17.028-22.081 2.552-31.555 7.302-25.704 12.888-32.858 36.67-33.296 52.567-28.484 1.611-51.165 25.293-51.165 54.173v9.427H92.311c-8.82 0-15.996 7.177-15.996 15.997v34.041H66.97a32.9 32.9 0 0 0-23.851 10.29c-6.25 6.627-9.398 15.283-8.865 24.374 1.323 22.552 4.699 57.042 13.271 93.278 10.241 43.288 25.362 78.58 44.942 104.896 10.747 14.444 27.986 23.067 46.114 23.067h7.856l8.943 27A28.75 28.75 0 0 0 182.716 512h146.568a28.75 28.75 0 0 0 27.336-19.742l8.943-27h7.857c18.129 0 35.368-8.623 46.115-23.068a7.496 7.496 0 1 0-12.029-8.949c-7.931 10.659-20.673 17.023-34.085 17.023H138.58c-13.411 0-26.154-6.364-34.086-17.024-5.557-7.469-12.377-18.089-19.33-32.456h341.729c-.595 1.232-1.188 2.466-1.803 3.685a7.5 7.5 0 0 0 3.316 10.071c3.698 1.861 8.205.381 10.07-3.316 29.01-57.489 37.056-129.437 39.271-167.207.533-9.091-2.615-17.747-8.864-24.374M349.77 465.258l-7.382 22.286a13.78 13.78 0 0 1-13.103 9.463H182.716a13.78 13.78 0 0 1-13.104-9.463l-7.382-22.286zM120.91 149.889c0-21.652 17.615-39.267 39.267-39.267h84.076a7.497 7.497 0 1 0 0-14.994h-72.109c.354-9.839 3.968-28.555 24.954-39.077 7.409-3.715 16.01-5.69 24.871-5.712 23.232-.057 78.541-3.635 94.537-35.291 12.015 13.725 29.426 41.363 21.22 80.08h-19.297c-4.141 0-7.497 3.356-7.497 7.497s3.356 7.497 7.497 7.497h33.395c21.652 0 39.267 17.615 39.267 39.267v9.427H120.91zm-29.602 25.423c0-.553.45-1.003 1.003-1.003h329.794c.553 0 1.004.45 1.004 1.003v34.041H91.308zm371.471 67.826a578 578 0 0 1-2.636 30.683H145.775a7.497 7.497 0 1 0 0 14.994H458.25l-.091.657c-4.563 32.248-11.812 64.467-23.997 94.828-.2.499-.407.994-.609 1.491H78.475a304 304 0 0 1-4.509-11.65c-9.004-24.949-15.787-53.539-20.22-85.326h57.064a7.497 7.497 0 1 0 0-14.994H51.785a609 609 0 0 1-2.564-30.683c-.289-4.925 1.417-9.617 4.805-13.209 3.395-3.601 7.992-5.583 12.943-5.583h378.06c4.952 0 9.548 1.982 12.944 5.583 3.389 3.593 5.095 8.284 4.806 13.209"/><path d="M402.113 357.207c15.907 0 28.848-12.941 28.848-28.848s-12.941-28.848-28.848-28.848-28.847 12.941-28.847 28.848 12.941 28.848 28.847 28.848m0-42.703c7.64 0 13.855 6.215 13.855 13.855s-6.215 13.855-13.855 13.855c-7.639 0-13.854-6.215-13.854-13.855s6.215-13.855 13.854-13.855"/></svg>