<svg xmlns="http://www.w3.org/2000/svg" width="512" height="512"><path fill="#ee6161" d="M284.216 64.545H131.853V19.808c0-6.797 5.51-12.307 12.307-12.307h127.749c6.797 0 12.307 5.51 12.307 12.307z"/><path fill="#e94444" d="M284.216 19.806v44.743h-21.214V19.806c0-6.791-5.509-12.3-12.31-12.3h21.214c6.801 0 12.31 5.509 12.31 12.3"/><path fill="#f79595" d="M287.64 100.28H128.43a9.15 9.15 0 0 1-9.149-9.149V73.695a9.15 9.15 0 0 1 9.149-9.149h159.21a9.15 9.15 0 0 1 9.149 9.149v17.436a9.15 9.15 0 0 1-9.149 9.149"/><path fill="#f47c7c" d="M296.786 73.694v17.438c0 5.048-4.097 9.145-9.145 9.145h-23.088c5.048 0 9.145-4.097 9.145-9.145V73.694c0-5.048-4.097-9.145-9.145-9.145h23.088c5.048 0 9.145 4.097 9.145 9.145"/><path fill="#f9f3f1" d="M262.617 504.498H153.452c-7.957 0-14.407-6.45-14.407-14.407V100.28h137.978v389.811c.001 7.957-6.449 14.407-14.406 14.407"/><path fill="#efe2dd" d="M277.024 100.277V490.09c0 7.953-6.45 14.403-14.403 14.403h-19.772c7.963 0 14.413-6.45 14.413-14.403V100.277z"/><path fill="#fec165" d="M139.045 221.263h137.978v162.253H139.045z"/><path fill="#fdb441" d="M257.262 221.263h19.762v162.253h-19.762z"/><path fill="#fe9901" d="M373.967 504.498H266.822c-10.356 0-18.752-8.395-18.752-18.752V471.92c0-10.356 8.395-18.752 18.752-18.752h107.146c10.356 0 18.752 8.396 18.752 18.752v13.826c-.001 10.357-8.396 18.752-18.753 18.752"/><path fill="#fb8801" d="M392.722 471.921v13.822c0 10.357-8.394 18.75-18.75 18.75h-20.914c10.357 0 18.75-8.393 18.75-18.75v-13.822c0-10.357-8.394-18.75-18.75-18.75h20.914c10.356-.001 18.75 8.393 18.75 18.75"/><path fill="#fe9901" d="M373.967 401.839H266.822c-10.356 0-18.752-8.395-18.752-18.752v-13.826c0-10.356 8.395-18.752 18.752-18.752h107.146c10.356 0 18.752 8.395 18.752 18.752v13.826c-.001 10.357-8.396 18.752-18.753 18.752"/><path fill="#fec165" d="M373.967 453.169H266.822c-10.356 0-18.752-8.395-18.752-18.752v-13.826c0-10.356 8.395-18.752 18.752-18.752h107.146c10.356 0 18.752 8.395 18.752 18.752v13.826c-.001 10.356-8.396 18.752-18.753 18.752"/><path fill="#fb8801" d="M392.722 369.264v13.822c0 10.357-8.394 18.751-18.75 18.751h-20.914c10.357 0 18.75-8.394 18.75-18.751v-13.822c0-10.357-8.394-18.751-18.75-18.751h20.914c10.356 0 18.75 8.394 18.75 18.751"/><path fill="#fdb441" d="M392.722 420.587v13.832c0 10.357-8.394 18.751-18.75 18.751h-20.914c10.357 0 18.75-8.394 18.75-18.751v-13.832c0-10.357-8.394-18.75-18.75-18.75h20.914c10.356 0 18.75 8.393 18.75 18.75"/><path fill="#ee6161" d="M229.43 293.03c-11.817 0-21.396-9.579-21.396-21.396s9.579-21.396 21.396-21.396 21.396 9.579 21.396 21.396-9.579 21.396-21.396 21.396"/><path fill="#e94444" d="M250.824 271.63a21.33 21.33 0 0 1-6.263 15.13 21.3 21.3 0 0 1-15.13 6.273c-9.018 0-16.739-5.59-19.885-13.491a21.3 21.3 0 0 0 6.907 1.146c5.901 0 11.25-2.393 15.13-6.263a21.33 21.33 0 0 0 6.263-15.13c0-2.795-.533-5.469-1.518-7.912a21.2 21.2 0 0 1 8.234 5.117c3.869 3.881 6.262 9.229 6.262 15.13"/><path d="M400.221 369.262c0-14.477-11.777-26.254-26.254-26.254h-18.975c-4.143 0-7.502 3.358-7.502 7.502s3.358 7.502 7.502 7.502h18.975c6.203 0 11.251 5.047 11.251 11.251v13.825c0 6.204-5.047 11.251-11.251 11.251H266.822c-6.203 0-11.251-5.047-11.251-11.251v-13.825c0-6.204 5.047-11.251 11.251-11.251h53.573c4.143 0 7.502-3.358 7.502-7.502s-3.358-7.502-7.502-7.502h-35.87V107.782h3.115c9.181 0 16.65-7.469 16.65-16.65V73.695c0-7.773-5.361-14.3-12.573-16.125V19.808C291.717 8.886 282.831 0 271.909 0h-73.324c-4.144 0-7.502 3.358-7.502 7.502s3.358 7.502 7.502 7.502h73.324a4.81 4.81 0 0 1 4.805 4.805v37.235H139.355V19.808a4.81 4.81 0 0 1 4.806-4.805h19.454c4.144 0 7.502-3.358 7.502-7.502S167.758 0 163.614 0H144.16c-10.922 0-19.809 8.886-19.809 19.808V57.57c-7.212 1.826-12.572 8.353-12.572 16.125v17.437c0 9.181 7.47 16.65 16.65 16.65h3.114v382.31c0 12.08 9.828 21.908 21.909 21.908h220.514c14.477 0 26.254-11.777 26.254-26.253V471.92c0-7.34-3.032-13.983-7.904-18.751 4.873-4.769 7.904-11.412 7.904-18.752v-13.825c0-7.34-3.032-13.983-7.904-18.751 4.873-4.769 7.904-11.412 7.904-18.752zm-130.699-26.254h-2.7c-14.477 0-26.254 11.777-26.254 26.254v6.752h-94.021V228.765h122.975zm0-129.246H146.547v-105.98h122.975zM128.429 92.778a1.65 1.65 0 0 1-1.647-1.647V73.695a1.65 1.65 0 0 1 1.647-1.648H287.64c.908 0 1.647.74 1.647 1.648v17.437a1.65 1.65 0 0 1-1.647 1.647zm120.043 360.391c-4.873 4.769-7.904 11.411-7.904 18.751v13.826c0 4.024.913 7.838 2.538 11.25h-89.653c-3.807 0-6.906-3.097-6.906-6.905v-99.074h95.248a26.3 26.3 0 0 0 6.677 10.822c-4.873 4.769-7.904 11.411-7.904 18.751v13.825c0 7.342 3.031 13.985 7.904 18.754m136.746 32.578c0 6.203-5.047 11.25-11.251 11.25H266.822c-6.203 0-11.251-5.047-11.251-11.25V471.92c0-6.203 5.047-11.25 11.251-11.25h107.145c6.203 0 11.251 5.047 11.251 11.25zm0-51.33c0 6.204-5.047 11.251-11.251 11.251H266.822c-6.203 0-11.251-5.047-11.251-11.251v-13.825c0-6.203 5.047-11.25 11.251-11.25h107.145c6.203 0 11.251 5.047 11.251 11.25z"/><path d="M229.43 300.531c15.934 0 28.897-12.963 28.897-28.897s-12.963-28.897-28.897-28.897-28.897 12.963-28.897 28.897 12.963 28.897 28.897 28.897m0-42.791c7.661 0 13.894 6.233 13.894 13.894s-6.233 13.894-13.894 13.894-13.894-6.233-13.894-13.894 6.233-13.894 13.894-13.894"/></svg>