<svg xmlns="http://www.w3.org/2000/svg" width="512" height="512"><path fill="#8d9ca8" d="M399.057 504.5H112.943c-13.972 0-25.298-11.326-25.298-25.298v-386.4c0-13.972 11.326-25.298 25.298-25.298h286.114c13.972 0 25.298 11.326 25.298 25.298v386.4c0 13.972-11.326 25.298-25.298 25.298"/><path fill="#7a8c98" d="M424.36 92.8v386.4c0 13.97-11.33 25.3-25.3 25.3h-20c13.97 0 25.3-11.33 25.3-25.3V92.8c0-13.97-11.33-25.3-25.3-25.3h20c13.97 0 25.3 11.33 25.3 25.3"/><path fill="#f9f3f1" d="M164.162 472.216h223.325c2.299 0 4.164-1.85 4.164-4.131V103.918c0-2.282-1.864-4.131-4.164-4.131H124.513c-2.299 0-4.164 1.85-4.164 4.131v326.086z"/><path fill="#efe2dd" d="M391.65 103.92v364.16c0 2.29-1.86 4.14-4.16 4.14h-20c2.3 0 4.16-1.85 4.16-4.14V103.92c0-2.28-1.86-4.13-4.16-4.13h20c2.3 0 4.16 1.85 4.16 4.13"/><path fill="#cdbfba" d="m164.162 472.216-.102-37.046c-.008-2.917-2.398-5.276-5.338-5.268l-38.373.102z"/><path fill="#b6c4cf" d="M278.349 33.304v-3.629C278.349 17.428 268.343 7.5 256 7.5s-22.349 9.928-22.349 22.175v3.628c0 4.242-3.465 7.68-7.74 7.68h-12.702c-10.299 0-18.649 8.284-18.649 18.504v10.801c0 2.951 2.411 5.344 5.386 5.344h112.109c2.974 0 5.386-2.393 5.386-5.344V59.487c0-10.219-8.349-18.504-18.649-18.504H286.09c-4.276.001-7.741-3.438-7.741-7.679"/><path fill="#9facba" d="M281.32 39.34c-1.8-.52-3.71-.8-5.69-.8h-13.91c-4.68 0-8.48-3.76-8.48-8.41v-3.97c0-6.42-2.52-12.27-6.63-16.61 2.85-1.32 6.04-2.05 9.39-2.05 12.34 0 22.35 9.93 22.35 22.18v3.62c0 2.46 1.16 4.64 2.97 6.04M317.44 59.49v10.8c0 2.95-2.41 5.34-5.39 5.34h-18.82a5.82 5.82 0 0 0 2.83-4.99V58.81c0-7.74-4.37-14.47-10.8-17.87.27.03.55.04.83.04h12.7c10.3 0 18.65 8.29 18.65 18.51"/><path fill="#ee6161" d="M301.54 179.225h-21.081c-4.15 0-7.514-3.338-7.514-7.455v-20.918c0-4.117-3.364-7.455-7.514-7.455h-18.862c-4.15 0-7.514 3.338-7.514 7.455v20.918c0 4.117-3.364 7.455-7.514 7.455H210.46c-4.15 0-7.514 3.338-7.514 7.455v18.715c0 4.117 3.364 7.455 7.514 7.455h21.081c4.15 0 7.514 3.338 7.514 7.455v20.918c0 4.117 3.364 7.455 7.514 7.455h18.862c4.15 0 7.514-3.338 7.514-7.455v-20.918c0-4.118 3.364-7.455 7.514-7.455h21.081c4.15 0 7.514-3.338 7.514-7.455V186.68c0-4.118-3.364-7.455-7.514-7.455"/><path fill="#e94444" d="M260.46 212.85h20c-4.15 0-7.52 3.34-7.52 7.46v20.91c0 4.12-3.36 7.46-7.51 7.46h-18.86q-.285 0-.57-.03c3.88-.28 6.94-3.5 6.94-7.43v-20.91c0-4.12 3.37-7.46 7.52-7.46M280.46 179.22h-20c-4.15 0-7.52-3.33-7.52-7.45v-20.92c0-3.93-3.06-7.14-6.94-7.42q.285-.03.57-.03h18.86c4.15 0 7.51 3.33 7.51 7.45v20.92c0 4.12 3.37 7.45 7.52 7.45M309.05 186.68v18.72c0 4.11-3.36 7.45-7.51 7.45h-20c4.15 0 7.51-3.34 7.51-7.45v-18.72c0-4.12-3.36-7.46-7.51-7.46h20c4.15 0 7.51 3.34 7.51 7.46"/><path d="M120.349 296.765c4.143 0 7.5-3.357 7.5-7.5V107.287h193.606c4.143 0 7.5-3.357 7.5-7.5s-3.357-7.5-7.5-7.5H124.513c-6.432 0-11.664 5.218-11.664 11.631v185.347a7.5 7.5 0 0 0 7.5 7.5M387.488 92.287h-30.973c-4.143 0-7.5 3.357-7.5 7.5s3.357 7.5 7.5 7.5h27.636v357.429H171.642l-.082-29.566c-.019-7.036-5.768-12.747-12.823-12.747h-.034l-30.854.082v-98.117c0-4.143-3.357-7.5-7.5-7.5s-7.5 3.357-7.5 7.5v105.637c0 2.037.829 3.987 2.296 5.401l43.813 42.212a7.5 7.5 0 0 0 5.204 2.099h223.325c6.431 0 11.663-5.218 11.663-11.631V103.918c.001-6.413-5.232-11.631-11.662-11.631M138.893 437.455l17.673-.047.048 17.12z"/><path d="M399.057 60.003H324.94v-.516c0-14.339-11.73-26.004-26.148-26.004H286.09c-.156 0-.24-.104-.24-.18v-3.628C285.849 13.313 272.459 0 256 0s-29.85 13.313-29.85 29.676v3.628c0 .075-.083.18-.24.18h-12.702c-14.418 0-26.148 11.665-26.148 26.004v.516h-74.117c-18.085 0-32.798 14.713-32.798 32.798v386.4c0 18.085 14.713 32.799 32.798 32.799h286.114c18.085 0 32.798-14.714 32.798-32.799v-386.4c0-18.086-14.713-32.799-32.798-32.799m-196.997-.516c0-6.067 5.001-11.004 11.148-11.004h12.702c8.403 0 15.24-6.81 15.24-15.18v-3.628C241.151 21.584 247.812 15 256 15s14.849 6.584 14.849 14.676v3.628c0 8.37 6.837 15.18 15.24 15.18h12.702c6.147 0 11.148 4.937 11.148 11.004v8.645H202.06zm214.795 419.714c0 9.814-7.984 17.799-17.798 17.799H112.943c-9.813 0-17.798-7.984-17.798-17.799v-386.4c0-9.813 7.984-17.798 17.798-17.798h75.029c1.891 4.754 6.54 8.129 11.974 8.129h112.108c5.435 0 10.083-3.375 11.975-8.129h75.028c9.813 0 17.798 7.984 17.798 17.798z"/><path d="m210.46 220.351 21.095-.045v20.918c0 8.246 6.735 14.955 15.014 14.955h18.862c8.278 0 15.014-6.709 15.014-14.955l.014-20.873h21.081c8.279 0 15.015-6.709 15.015-14.955V186.68c0-8.246-6.735-14.955-15.015-14.955l-21.095.045v-20.918c0-8.246-6.735-14.955-15.014-14.955h-18.862c-8.278 0-15.014 6.709-15.014 14.955l-.014 20.873H210.46c-8.278 0-15.014 6.709-15.014 14.955v18.716c.001 8.246 6.736 14.955 15.014 14.955m0-33.626h21.081c8.278 0 15.014-6.709 15.014-14.955l.014-20.873 18.876-.045v20.918c0 8.246 6.735 14.955 15.014 14.955h21.081l.015-.045-.015 18.671h-21.081c-8.278 0-15.014 6.709-15.014 14.955l-.014 20.873-18.876.045v-20.918c0-8.246-6.735-14.955-15.014-14.955l-21.095.045zM309.051 312.46h45.318c4.143 0 7.5-3.357 7.5-7.5s-3.357-7.5-7.5-7.5h-45.318c-4.143 0-7.5 3.357-7.5 7.5s3.357 7.5 7.5 7.5M157.626 312.46h113.693c4.143 0 7.5-3.357 7.5-7.5s-3.357-7.5-7.5-7.5H157.626c-4.143 0-7.5 3.357-7.5 7.5s3.357 7.5 7.5 7.5M354.369 336.756H157.626c-4.143 0-7.5 3.357-7.5 7.5s3.357 7.5 7.5 7.5h196.743c4.143 0 7.5-3.357 7.5-7.5s-3.357-7.5-7.5-7.5M317.652 376.053H157.626c-4.143 0-7.5 3.357-7.5 7.5s3.357 7.5 7.5 7.5h160.026c4.143 0 7.5-3.357 7.5-7.5s-3.357-7.5-7.5-7.5"/></svg>