<svg xmlns="http://www.w3.org/2000/svg" width="512" height="512" viewBox="0 0 511.936 511.936"><path fill="#d4f2f6" d="M433.088 45.838v424.26c0 20.07-16.27 36.34-36.33 36.34h-281.58c-20.06 0-36.33-16.27-36.33-36.34V45.838c0-20.07 16.27-36.34 36.33-36.34h281.58c20.06 0 36.33 16.27 36.33 36.34"/><path fill="#a6e7f0" d="M433.088 45.838v424.26c0 20.07-16.27 36.34-36.33 36.34h-20c20.06 0 36.33-16.27 36.33-36.34V45.838c0-20.07-16.27-36.34-36.33-36.34h20c20.06 0 36.33 16.27 36.33 36.34"/><path fill="#8d9ca8" d="m255.968 9.503-67.121-.005 5.792 23.761a13.97 13.97 0 0 0 13.57 10.66h95.518c6.44 0 12.045-4.403 13.57-10.66l5.792-23.761z"/><path fill="#7a8c98" d="m323.088 9.498-5.79 23.76a13.97 13.97 0 0 1-13.57 10.66h-22.13c6.44 0 12.04-4.4 13.57-10.66l5.79-23.76z"/><path fill="#8d9ca8" d="M433.088 437.068v33.03c0 20.07-16.27 36.34-36.33 36.34h-281.58c-20.06 0-36.33-16.27-36.33-36.34v-33.03z"/><path fill="#7a8c98" d="M433.088 437.068v33.03c0 20.07-16.27 36.34-36.33 36.34h-20c20.06 0 36.33-16.27 36.33-36.34v-33.03z"/><path fill="#6bd9e7" d="M387.968 391.908h-264c-5.523 0-10-4.477-10-10V95.285c0-5.523 4.477-10 10-10h264c5.523 0 10 4.477 10 10v286.623c0 5.523-4.477 10-10 10"/><path fill="#2ed1e2" d="M397.968 95.281v286.631c0 5.52-4.48 10-10 10h-20c5.52 0 10-4.48 10-10V95.281c0-5.52-4.48-10-10-10h20c5.52 0 10 4.48 10 10"/><path d="M387.968 77.785h-39.273c-4.142 0-7.5 3.357-7.5 7.5s3.358 7.5 7.5 7.5h39.273c1.378 0 2.5 1.121 2.5 2.5v286.623c0 1.379-1.122 2.5-2.5 2.5h-264a2.503 2.503 0 0 1-2.5-2.5V95.285c0-1.379 1.122-2.5 2.5-2.5h190.066c4.142 0 7.5-3.357 7.5-7.5s-3.358-7.5-7.5-7.5H123.968c-9.649 0-17.5 7.851-17.5 17.5v286.623c0 9.649 7.851 17.5 17.5 17.5h264c9.649 0 17.5-7.851 17.5-17.5V95.285c0-9.649-7.851-17.5-17.5-17.5"/><path d="M163.248 130.93h92.972c4.142 0 7.5-3.357 7.5-7.5s-3.358-7.5-7.5-7.5h-92.972c-4.142 0-7.5 3.357-7.5 7.5s3.358 7.5 7.5 7.5M348.688 115.93h-30.695c-4.142 0-7.5 3.357-7.5 7.5s3.358 7.5 7.5 7.5h30.695c4.142 0 7.5-3.357 7.5-7.5s-3.358-7.5-7.5-7.5M317.992 165.93h30.695c4.142 0 7.5-3.357 7.5-7.5s-3.358-7.5-7.5-7.5h-30.695c-4.142 0-7.5 3.357-7.5 7.5s3.358 7.5 7.5 7.5M317.992 200.93h30.695c4.142 0 7.5-3.357 7.5-7.5s-3.358-7.5-7.5-7.5h-30.695c-4.142 0-7.5 3.357-7.5 7.5s3.358 7.5 7.5 7.5M163.248 165.93h51.724c4.142 0 7.5-3.357 7.5-7.5s-3.358-7.5-7.5-7.5h-51.724c-4.142 0-7.5 3.357-7.5 7.5s3.358 7.5 7.5 7.5M163.248 200.93h92.972c4.142 0 7.5-3.357 7.5-7.5s-3.358-7.5-7.5-7.5h-92.972c-4.142 0-7.5 3.357-7.5 7.5s3.358 7.5 7.5 7.5M183.528 361.263a7.5 7.5 0 0 0 7.5-7.5v-4.157c11.081-3.09 18.179-12.672 19.769-22.129 2.09-12.432-4.655-23.665-16.784-27.953-.984-.348-1.983-.707-2.985-1.076v-19.412c1.337.634 2.168 1.276 2.385 1.454.189.184.25.222.481.399l2.229 1.709a7.5 7.5 0 1 0 9.127-11.905l-2-1.533c-2.428-2.134-6.71-4.66-12.221-5.858v-3.039c0-4.143-3.358-7.5-7.5-7.5s-7.5 3.357-7.5 7.5v3.548c-.222.062-.438.106-.661.173-8.211 2.474-14.341 9.475-15.999 18.271-1.525 8.097 1.12 15.944 6.904 20.481 2.566 2.012 5.669 3.859 9.756 5.764v26.71c-2.464-.493-4.532-1.505-7.616-3.522a7.5 7.5 0 0 0-10.382 2.171 7.5 7.5 0 0 0 2.171 10.382c6.002 3.926 10.431 5.52 15.827 6.101v3.421a7.5 7.5 0 0 0 7.499 7.5m7.5-46.697c5.508 2.968 5.357 8.16 4.977 10.423-.502 2.984-2.188 6.101-4.977 8.187zm-15.498-23.632c-1.32-1.035-1.891-3.406-1.421-5.901.143-.76.612-2.604 1.919-4.218v10.49c-.167-.124-.34-.247-.498-.371M376.884 230.434a7.5 7.5 0 0 0-7.5-7.5H142.552c-4.142 0-7.5 3.357-7.5 7.5s3.358 7.5 7.5 7.5h226.832a7.5 7.5 0 0 0 7.5-7.5M348.688 283.225h-30.695c-4.142 0-7.5 3.357-7.5 7.5s3.358 7.5 7.5 7.5h30.695c4.142 0 7.5-3.357 7.5-7.5s-3.358-7.5-7.5-7.5M348.688 315.802H237.592c-4.142 0-7.5 3.357-7.5 7.5s3.358 7.5 7.5 7.5h111.096c4.142 0 7.5-3.357 7.5-7.5s-3.358-7.5-7.5-7.5"/><path d="M396.756 0H115.179C91.01 0 71.347 19.663 71.347 43.832V468.1a43.54 43.54 0 0 0 6.111 22.287c7.641 12.887 21.685 21.549 37.72 21.549h281.58c16.035 0 30.079-8.662 37.72-21.549a43.56 43.56 0 0 0 6.111-22.287V43.832C440.588 19.663 420.925 0 396.756 0m-83.215 15-3.53 14.48a6.45 6.45 0 0 1-6.284 4.936h-95.519a6.45 6.45 0 0 1-6.284-4.936L198.395 15zm112.047 412.565H190.604c-4.142 0-7.5 3.357-7.5 7.5s3.358 7.5 7.5 7.5h234.984v25.53c0 5.84-1.749 11.276-4.743 15.822-5.16 7.832-14.028 13.014-24.088 13.014H115.179c-10.06 0-18.928-5.182-24.088-13.014a28.67 28.67 0 0 1-4.743-15.822v-25.53h69.313c4.142 0 7.5-3.357 7.5-7.5s-3.358-7.5-7.5-7.5H86.347V43.832C86.347 27.934 99.281 15 115.179 15h67.777l4.396 18.033a21.415 21.415 0 0 0 20.857 16.383h95.519a21.415 21.415 0 0 0 20.857-16.383L328.98 15h67.777c15.898 0 28.832 12.934 28.832 28.832z"/><circle cx="255.968" cy="469.751" r="10"/></svg>