<svg xmlns="http://www.w3.org/2000/svg" width="512" height="512"><path fill="#8d9ca8" d="M452.938 87.094 265.15 9.328a23.92 23.92 0 0 0-18.3 0L59.062 87.094a23.93 23.93 0 0 0-14.51 18.607C36.244 161.6 20.689 376.568 244.389 501.515a23.84 23.84 0 0 0 23.223 0C491.311 376.568 475.756 161.6 467.448 105.701a23.93 23.93 0 0 0-14.51-18.607"/><path fill="#7a8c98" d="M267.609 501.51a23.74 23.74 0 0 1-12.632 3c216.271-125.478 200.96-336.472 192.743-391.776a23.93 23.93 0 0 0-14.508-18.602L245.425 16.363a24.1 24.1 0 0 0-11.408-1.726l12.833-5.308a23.9 23.9 0 0 1 18.301 0l187.786 77.77c7.776 3.21 13.274 10.284 14.508 18.602 8.308 55.896 23.87 270.863-199.836 395.809"/><path fill="#c5d3dd" d="M414.175 122.313 263.349 60.76a19.47 19.47 0 0 0-14.698 0L97.826 122.313c-6.244 2.548-10.66 8.14-11.654 14.728-6.673 44.245-19.166 214.395 160.502 313.292a19.39 19.39 0 0 0 18.652 0c179.668-98.897 167.175-269.047 160.502-313.292-.993-6.588-5.409-12.18-11.653-14.728"/><path fill="#b6c4cf" d="M265.331 450.329a19.39 19.39 0 0 1-18.662 0c-.291-.16-.582-.321-.873-.492 178.907-101.97 166.435-276.883 159.773-322.415a19.6 19.6 0 0 0-5.258-10.766l13.866 5.659c6.241 2.549 10.656 8.137 11.649 14.729 6.673 44.238 19.164 214.396-160.495 313.285"/><path fill="#ee6161" d="M328.1 229.402h-33.376c-6.57 0-11.896-5.285-11.896-11.803v-33.117c0-6.519-5.326-11.803-11.896-11.803H241.07c-6.57 0-11.896 5.285-11.896 11.803v33.117c0 6.519-5.326 11.803-11.896 11.803h-33.377c-6.57 0-11.896 5.285-11.896 11.803v29.63c0 6.519 5.326 11.803 11.896 11.803h33.377c6.57 0 11.896 5.285 11.896 11.803v33.117c0 6.519 5.326 11.803 11.896 11.803h29.862c6.57 0 11.896-5.285 11.896-11.803v-33.117c0-6.519 5.326-11.803 11.896-11.803H328.1c6.57 0 11.896-5.285 11.896-11.803v-29.63c0-6.518-5.326-11.803-11.896-11.803"/><path fill="#e94444" d="M272.949 282.638h21.777c-6.57 0-11.906 5.288-11.906 11.811v33.105c0 6.523-5.32 11.811-11.89 11.811h-19.972q-.452 0-.902-.048c6.143-.443 10.988-5.541 10.988-11.763v-33.105c-.001-6.523 5.334-11.811 11.905-11.811M294.726 229.395h-21.777c-6.57 0-11.906-5.272-11.906-11.795v-33.121c0-6.222-4.845-11.304-10.988-11.748q.452-.048.902-.048h19.972c6.57 0 11.89 5.272 11.89 11.795V217.6c.001 6.523 5.336 11.795 11.907 11.795M339.99 241.206v29.638c0 6.507-5.32 11.795-11.89 11.795h-21.777c6.57 0 11.89-5.288 11.89-11.795v-29.638c0-6.523-5.32-11.811-11.89-11.811H328.1c6.57 0 11.89 5.288 11.89 11.811"/><path d="M474.858 104.6c-1.616-10.87-8.917-20.23-19.054-24.428L268.016 2.405c-7.749-3.207-16.283-3.207-24.032 0L56.196 80.172C46.059 84.37 38.758 93.73 37.142 104.6c-3.943 26.526-10.553 96.706 13.153 175.28 13.184 43.697 33.843 83.911 61.403 119.524 33.084 42.751 76.498 79.308 129.037 108.653C245.443 510.685 250.721 512 256 512c5.278 0 10.557-1.315 15.265-3.944 52.539-29.345 95.953-65.902 129.037-108.653 27.559-35.613 48.218-75.827 61.402-119.524 23.707-78.573 17.096-148.753 13.154-175.279m-27.497 170.951c-28.168 93.359-89.872 167.183-183.401 219.424-4.907 2.741-11.007 2.742-15.917 0-93.53-52.24-155.236-126.065-183.403-219.424-22.831-75.674-16.471-143.221-12.677-168.749.846-5.692 4.665-10.592 9.966-12.786l187.788-77.767a16.4 16.4 0 0 1 6.284-1.259c2.128 0 4.258.42 6.284 1.259l187.788 77.767c5.301 2.195 9.119 7.094 9.964 12.786 3.795 25.529 10.154 93.076-12.676 168.749"/><path d="m417.006 115.377-73.397-29.954a7.492 7.492 0 1 0-5.661 13.873l73.397 29.954c3.768 1.537 6.479 4.951 7.076 8.908 3.031 20.095 8.111 73.266-10.128 132.841-22.499 73.489-71.815 131.618-146.577 172.771-3.524 1.939-7.904 1.939-11.428 0-74.763-41.153-124.079-99.281-146.578-172.771-18.241-59.574-13.161-112.745-10.13-132.841.597-3.958 3.308-7.371 7.077-8.908l150.826-61.553a12.05 12.05 0 0 1 9.037 0l45.298 18.487a7.493 7.493 0 0 0 5.661-13.873L266.18 53.824a26.8 26.8 0 0 0-20.359 0L94.995 115.377c-8.631 3.522-14.851 11.396-16.231 20.547-3.183 21.107-8.521 76.949 10.618 139.461 10.647 34.777 27.33 66.781 49.586 95.122 26.699 33.999 61.721 63.064 104.094 86.388 3.991 2.197 8.464 3.295 12.939 3.295 4.474-.001 8.949-1.098 12.939-3.295 42.374-23.323 77.396-52.389 104.094-86.388 22.255-28.341 38.938-60.346 49.585-95.122 19.139-62.513 13.801-118.355 10.617-139.461-1.38-9.152-7.599-17.025-16.23-20.547"/><path d="M241.069 346.855h29.863c10.69 0 19.388-8.656 19.388-19.296v-33.116c0-2.378 1.975-4.313 4.404-4.313H328.1c10.691 0 19.388-8.656 19.388-19.295v-29.63c0-10.64-8.697-19.296-19.388-19.296h-33.376c-2.429 0-4.404-1.934-4.404-4.312V184.48c0-10.639-8.697-19.295-19.388-19.295h-29.863c-10.69 0-19.388 8.655-19.388 19.295v33.117c0 2.377-1.976 4.312-4.404 4.312H183.9c-10.69 0-19.388 8.656-19.388 19.296v29.63c0 9.656 7.248 17.881 16.859 19.132 4.105.54 7.861-2.36 8.396-6.462a7.493 7.493 0 0 0-6.462-8.396c-2.171-.283-3.809-2.12-3.809-4.273v-29.63c0-2.378 1.976-4.313 4.404-4.313h33.377c10.69 0 19.388-8.656 19.388-19.295v-33.117c0-2.377 1.976-4.312 4.404-4.312h29.863c2.429 0 4.404 1.934 4.404 4.312v33.117c0 10.639 8.697 19.295 19.387 19.295h33.376c2.429 0 4.405 1.934 4.405 4.313v29.63c0 2.377-1.976 4.312-4.405 4.312h-33.376c-10.69 0-19.387 8.656-19.387 19.296v33.116c0 2.378-1.975 4.313-4.404 4.313h-29.863c-2.428 0-4.404-1.934-4.404-4.313v-33.116c0-10.639-8.697-19.296-19.388-19.296-4.138 0-7.492 3.354-7.492 7.492s3.354 7.492 7.492 7.492c2.428 0 4.404 1.934 4.404 4.313v33.116c.001 10.638 8.698 19.294 19.388 19.294"/></svg>