<svg xmlns="http://www.w3.org/2000/svg" width="512" height="512" viewBox="0 0 511.99 511.99"><path fill="#f9f3f1" d="M403.66 33.674v444.643c0 14.455-11.718 26.174-26.174 26.174h-94.823c-4.074 0-7.805-2.311-9.584-5.976-3.074-6.333-9.568-10.699-17.084-10.699s-14.011 4.366-17.084 10.699c-1.779 3.665-5.51 5.976-9.584 5.976h-94.823c-14.455 0-26.174-11.718-26.174-26.174V33.674c0-14.455 11.718-26.174 26.174-26.174h94.823c4.074 0 7.805 2.311 9.584 5.976 3.074 6.333 9.568 10.699 17.084 10.699s14.011-4.366 17.084-10.699c1.779-3.665 5.51-5.976 9.584-5.976h94.823c14.456 0 26.174 11.718 26.174 26.174"/><path fill="#efe2dd" d="M403.66 33.67v444.65c0 14.449-11.721 26.17-26.17 26.17h-20.054c14.449 0 26.17-11.721 26.17-26.17V33.67c0-14.449-11.721-26.17-26.17-26.17h20.054c14.449 0 26.17 11.721 26.17 26.17"/><path fill="#ee6161" d="M178.541 103.051c-11.087 0-20.074-8.987-20.074-20.074s8.987-20.074 20.074-20.074 20.074 8.987 20.074 20.074c0 11.086-8.987 20.074-20.074 20.074"/><path fill="#e94444" d="M198.613 82.974a20 20 0 0 1-5.876 14.195 19.98 19.98 0 0 1-14.195 5.886c-8.461 0-15.704-5.244-18.657-12.658a20 20 0 0 0 6.48 1.075 20.04 20.04 0 0 0 14.195-5.876 20 20 0 0 0 5.876-14.195c0-2.622-.5-5.131-1.424-7.423 2.943.99 5.574 2.65 7.725 4.801a20.04 20.04 0 0 1 5.876 14.195"/><path fill="#ee6161" d="M255.995 103.051c-11.087 0-20.074-8.987-20.074-20.074s8.987-20.074 20.074-20.074 20.074 8.987 20.074 20.074c0 11.086-8.987 20.074-20.074 20.074"/><path fill="#e94444" d="M276.067 82.974a20 20 0 0 1-5.876 14.195 19.98 19.98 0 0 1-14.195 5.886c-8.461 0-15.704-5.244-18.657-12.658a20 20 0 0 0 6.48 1.075 20.04 20.04 0 0 0 14.195-5.876 20 20 0 0 0 5.876-14.195c0-2.622-.5-5.131-1.424-7.423 2.943.99 5.574 2.65 7.725 4.801a20.04 20.04 0 0 1 5.876 14.195"/><path fill="#ee6161" d="M333.449 103.051c-11.087 0-20.074-8.987-20.074-20.074s8.987-20.074 20.074-20.074 20.074 8.987 20.074 20.074c0 11.086-8.988 20.074-20.074 20.074"/><path fill="#e94444" d="M353.521 82.974a20 20 0 0 1-5.876 14.195 19.98 19.98 0 0 1-14.195 5.886c-8.461 0-15.704-5.244-18.657-12.658a20 20 0 0 0 6.48 1.075 20.04 20.04 0 0 0 14.195-5.876 20 20 0 0 0 5.876-14.195c0-2.622-.5-5.131-1.424-7.423 2.943.99 5.574 2.65 7.725 4.801a20.04 20.04 0 0 1 5.876 14.195"/><path fill="#ee6161" d="M178.541 172.257c-11.087 0-20.074-8.987-20.074-20.074s8.987-20.074 20.074-20.074 20.074 8.987 20.074 20.074-8.987 20.074-20.074 20.074"/><path fill="#e94444" d="M198.613 152.18a20 20 0 0 1-5.876 14.195 19.98 19.98 0 0 1-14.195 5.886c-8.461 0-15.704-5.244-18.657-12.658a20 20 0 0 0 6.48 1.075 20.04 20.04 0 0 0 14.195-5.876 20 20 0 0 0 5.876-14.195c0-2.622-.5-5.131-1.424-7.423 2.943.99 5.574 2.65 7.725 4.801a20.04 20.04 0 0 1 5.876 14.195"/><path fill="#ee6161" d="M255.995 172.257c-11.087 0-20.074-8.987-20.074-20.074s8.987-20.074 20.074-20.074 20.074 8.987 20.074 20.074-8.987 20.074-20.074 20.074"/><path fill="#e94444" d="M276.067 152.18a20 20 0 0 1-5.876 14.195 19.98 19.98 0 0 1-14.195 5.886c-8.461 0-15.704-5.244-18.657-12.658a20 20 0 0 0 6.48 1.075 20.04 20.04 0 0 0 14.195-5.876 20 20 0 0 0 5.876-14.195c0-2.622-.5-5.131-1.424-7.423 2.943.99 5.574 2.65 7.725 4.801a20.04 20.04 0 0 1 5.876 14.195"/><path fill="#ee6161" d="M333.449 172.257c-11.087 0-20.074-8.987-20.074-20.074s8.987-20.074 20.074-20.074 20.074 8.987 20.074 20.074-8.988 20.074-20.074 20.074"/><path fill="#e94444" d="M353.521 152.18a20 20 0 0 1-5.876 14.195 19.98 19.98 0 0 1-14.195 5.886c-8.461 0-15.704-5.244-18.657-12.658a20 20 0 0 0 6.48 1.075 20.04 20.04 0 0 0 14.195-5.876 20 20 0 0 0 5.876-14.195c0-2.622-.5-5.131-1.424-7.423 2.943.99 5.574 2.65 7.725 4.801a20.04 20.04 0 0 1 5.876 14.195"/><path fill="#ee6161" d="M178.541 241.464c-11.087 0-20.074-8.987-20.074-20.074s8.987-20.074 20.074-20.074 20.074 8.987 20.074 20.074-8.987 20.074-20.074 20.074"/><path fill="#e94444" d="M198.613 221.387a20 20 0 0 1-5.876 14.195 19.98 19.98 0 0 1-14.195 5.886c-8.461 0-15.704-5.244-18.657-12.658a20 20 0 0 0 6.48 1.075 20.04 20.04 0 0 0 14.195-5.876 20 20 0 0 0 5.876-14.195c0-2.622-.5-5.131-1.424-7.423 2.943.99 5.574 2.65 7.725 4.801a20.04 20.04 0 0 1 5.876 14.195"/><path fill="#ee6161" d="M255.995 241.464c-11.087 0-20.074-8.987-20.074-20.074s8.987-20.074 20.074-20.074 20.074 8.987 20.074 20.074-8.987 20.074-20.074 20.074"/><path fill="#e94444" d="M276.067 221.387a20 20 0 0 1-5.876 14.195 19.98 19.98 0 0 1-14.195 5.886c-8.461 0-15.704-5.244-18.657-12.658a20 20 0 0 0 6.48 1.075 20.04 20.04 0 0 0 14.195-5.876 20 20 0 0 0 5.876-14.195c0-2.622-.5-5.131-1.424-7.423 2.943.99 5.574 2.65 7.725 4.801a20.04 20.04 0 0 1 5.876 14.195"/><path fill="#ee6161" d="M333.449 241.464c-11.087 0-20.074-8.987-20.074-20.074s8.987-20.074 20.074-20.074 20.074 8.987 20.074 20.074-8.988 20.074-20.074 20.074"/><path fill="#e94444" d="M353.521 221.387a20 20 0 0 1-5.876 14.195 19.98 19.98 0 0 1-14.195 5.886c-8.461 0-15.704-5.244-18.657-12.658a20 20 0 0 0 6.48 1.075 20.04 20.04 0 0 0 14.195-5.876 20 20 0 0 0 5.876-14.195c0-2.622-.5-5.131-1.424-7.423 2.943.99 5.574 2.65 7.725 4.801a20.04 20.04 0 0 1 5.876 14.195"/><path fill="#ee6161" d="M178.541 310.671c-11.087 0-20.074-8.987-20.074-20.074s8.987-20.074 20.074-20.074 20.074 8.987 20.074 20.074c0 11.086-8.987 20.074-20.074 20.074"/><path fill="#e94444" d="M198.613 290.593a20 20 0 0 1-5.876 14.195 19.98 19.98 0 0 1-14.195 5.886c-8.461 0-15.704-5.244-18.657-12.658a20 20 0 0 0 6.48 1.075 20.04 20.04 0 0 0 14.195-5.876 20 20 0 0 0 5.876-14.195c0-2.622-.5-5.131-1.424-7.423 2.943.99 5.574 2.65 7.725 4.801a20.04 20.04 0 0 1 5.876 14.195"/><path fill="#ee6161" d="M255.995 310.671c-11.087 0-20.074-8.987-20.074-20.074s8.987-20.074 20.074-20.074 20.074 8.987 20.074 20.074c0 11.086-8.987 20.074-20.074 20.074"/><path fill="#e94444" d="M276.067 290.593a20 20 0 0 1-5.876 14.195 19.98 19.98 0 0 1-14.195 5.886c-8.461 0-15.704-5.244-18.657-12.658a20 20 0 0 0 6.48 1.075 20.04 20.04 0 0 0 14.195-5.876 20 20 0 0 0 5.876-14.195c0-2.622-.5-5.131-1.424-7.423 2.943.99 5.574 2.65 7.725 4.801a20.04 20.04 0 0 1 5.876 14.195"/><path fill="#ee6161" d="M333.449 310.671c-11.087 0-20.074-8.987-20.074-20.074s8.987-20.074 20.074-20.074 20.074 8.987 20.074 20.074c0 11.086-8.988 20.074-20.074 20.074"/><path fill="#e94444" d="M353.521 290.593a20 20 0 0 1-5.876 14.195 19.98 19.98 0 0 1-14.195 5.886c-8.461 0-15.704-5.244-18.657-12.658a20 20 0 0 0 6.48 1.075 20.04 20.04 0 0 0 14.195-5.876 20 20 0 0 0 5.876-14.195c0-2.622-.5-5.131-1.424-7.423 2.943.99 5.574 2.65 7.725 4.801a20.04 20.04 0 0 1 5.876 14.195"/><path fill="#ee6161" d="M178.541 379.877c-11.087 0-20.074-8.987-20.074-20.074s8.987-20.074 20.074-20.074 20.074 8.987 20.074 20.074-8.987 20.074-20.074 20.074"/><path fill="#e94444" d="M198.613 359.8a20 20 0 0 1-5.876 14.195 19.98 19.98 0 0 1-14.195 5.886c-8.461 0-15.704-5.244-18.657-12.658a20 20 0 0 0 6.48 1.075 20.04 20.04 0 0 0 14.195-5.876 20 20 0 0 0 5.876-14.195c0-2.622-.5-5.131-1.424-7.423 2.943.99 5.574 2.65 7.725 4.801a20.04 20.04 0 0 1 5.876 14.195"/><path fill="#ee6161" d="M255.995 379.877c-11.087 0-20.074-8.987-20.074-20.074s8.987-20.074 20.074-20.074 20.074 8.987 20.074 20.074-8.987 20.074-20.074 20.074"/><path fill="#e94444" d="M276.067 359.8a20 20 0 0 1-5.876 14.195 19.98 19.98 0 0 1-14.195 5.886c-8.461 0-15.704-5.244-18.657-12.658a20 20 0 0 0 6.48 1.075 20.04 20.04 0 0 0 14.195-5.876 20 20 0 0 0 5.876-14.195c0-2.622-.5-5.131-1.424-7.423 2.943.99 5.574 2.65 7.725 4.801a20.04 20.04 0 0 1 5.876 14.195"/><path fill="#ee6161" d="M333.449 379.877c-11.087 0-20.074-8.987-20.074-20.074s8.987-20.074 20.074-20.074 20.074 8.987 20.074 20.074-8.988 20.074-20.074 20.074"/><path fill="#e94444" d="M353.521 359.8a20 20 0 0 1-5.876 14.195 19.98 19.98 0 0 1-14.195 5.886c-8.461 0-15.704-5.244-18.657-12.658a20 20 0 0 0 6.48 1.075 20.04 20.04 0 0 0 14.195-5.876 20 20 0 0 0 5.876-14.195c0-2.622-.5-5.131-1.424-7.423 2.943.99 5.574 2.65 7.725 4.801a20.04 20.04 0 0 1 5.876 14.195"/><path fill="#ee6161" d="M178.541 449.084c-11.087 0-20.074-8.987-20.074-20.074s8.987-20.074 20.074-20.074 20.074 8.987 20.074 20.074c0 11.086-8.987 20.074-20.074 20.074"/><path fill="#e94444" d="M198.613 429.006a20 20 0 0 1-5.876 14.195 19.98 19.98 0 0 1-14.195 5.886c-8.461 0-15.704-5.244-18.657-12.658a20 20 0 0 0 6.48 1.075 20.04 20.04 0 0 0 14.195-5.876 20 20 0 0 0 5.876-14.195c0-2.622-.5-5.131-1.424-7.423 2.943.99 5.574 2.65 7.725 4.801a20.04 20.04 0 0 1 5.876 14.195"/><path fill="#ee6161" d="M255.995 449.084c-11.087 0-20.074-8.987-20.074-20.074s8.987-20.074 20.074-20.074 20.074 8.987 20.074 20.074c0 11.086-8.987 20.074-20.074 20.074"/><path fill="#e94444" d="M276.067 429.006a20 20 0 0 1-5.876 14.195 19.98 19.98 0 0 1-14.195 5.886c-8.461 0-15.704-5.244-18.657-12.658a20 20 0 0 0 6.48 1.075 20.04 20.04 0 0 0 14.195-5.876 20 20 0 0 0 5.876-14.195c0-2.622-.5-5.131-1.424-7.423 2.943.99 5.574 2.65 7.725 4.801a20.04 20.04 0 0 1 5.876 14.195"/><path fill="#ee6161" d="M333.449 449.084c-11.087 0-20.074-8.987-20.074-20.074s8.987-20.074 20.074-20.074 20.074 8.987 20.074 20.074c0 11.086-8.988 20.074-20.074 20.074"/><path fill="#e94444" d="M353.521 429.006a20 20 0 0 1-5.876 14.195 19.98 19.98 0 0 1-14.195 5.886c-8.461 0-15.704-5.244-18.657-12.658a20 20 0 0 0 6.48 1.075 20.04 20.04 0 0 0 14.195-5.876 20 20 0 0 0 5.876-14.195c0-2.622-.5-5.131-1.424-7.423 2.943.99 5.574 2.65 7.725 4.801a20.04 20.04 0 0 1 5.876 14.195"/><path d="M318.285 496.99h-35.622c-1.207 0-2.32-.688-2.837-1.75-4.399-9.066-13.754-14.925-23.831-14.925s-19.432 5.858-23.831 14.924c-.517 1.063-1.63 1.751-2.837 1.751h-94.823c-10.297 0-18.674-8.377-18.674-18.674V167.688c0-4.143-3.357-7.5-7.5-7.5s-7.5 3.357-7.5 7.5v310.628c0 18.567 15.106 33.674 33.674 33.674h94.823c6.912 0 13.323-4.004 16.331-10.201 1.938-3.993 5.898-6.474 10.337-6.474s8.398 2.48 10.337 6.475c3.008 6.196 9.419 10.2 16.331 10.2h35.622c4.143 0 7.5-3.357 7.5-7.5s-3.357-7.5-7.5-7.5M377.486 0h-94.823c-6.912 0-13.322 4.004-16.331 10.201-1.938 3.993-5.898 6.474-10.337 6.474s-8.398-2.48-10.337-6.475C242.649 4.004 236.239 0 229.327 0h-94.823c-18.567 0-33.674 15.106-33.674 33.674v99.51c0 4.143 3.357 7.5 7.5 7.5s7.5-3.357 7.5-7.5v-99.51c0-10.297 8.377-18.674 18.674-18.674h94.823c1.207 0 2.32.688 2.837 1.75 4.399 9.066 13.754 14.925 23.831 14.925s19.432-5.858 23.831-14.924c.517-1.063 1.63-1.751 2.837-1.751h94.823c10.297 0 18.674 8.377 18.674 18.674v444.643c0 10.297-8.377 18.674-18.674 18.674H353.52c-4.143 0-7.5 3.357-7.5 7.5s3.357 7.5 7.5 7.5h23.966c18.567 0 33.674-15.106 33.674-33.674V33.674C411.16 15.106 396.054 0 377.486 0"/><path d="M178.541 110.551c15.204 0 27.574-12.37 27.574-27.574s-12.37-27.573-27.574-27.573-27.573 12.369-27.573 27.573 12.369 27.574 27.573 27.574m0-40.148c6.934 0 12.574 5.641 12.574 12.573 0 6.934-5.641 12.574-12.574 12.574s-12.573-5.641-12.573-12.574 5.64-12.573 12.573-12.573M255.995 110.551c15.204 0 27.574-12.37 27.574-27.574s-12.37-27.573-27.574-27.573-27.574 12.369-27.574 27.573 12.37 27.574 27.574 27.574m0-40.148c6.934 0 12.574 5.641 12.574 12.573 0 6.934-5.641 12.574-12.574 12.574s-12.574-5.641-12.574-12.574 5.641-12.573 12.574-12.573M333.449 110.551c15.204 0 27.573-12.37 27.573-27.574s-12.369-27.573-27.573-27.573-27.574 12.369-27.574 27.573 12.37 27.574 27.574 27.574m0-40.148c6.933 0 12.573 5.641 12.573 12.573 0 6.934-5.641 12.574-12.573 12.574-6.934 0-12.574-5.641-12.574-12.574s5.641-12.573 12.574-12.573M178.541 179.758c15.204 0 27.574-12.37 27.574-27.574s-12.37-27.574-27.574-27.574-27.573 12.37-27.573 27.574 12.369 27.574 27.573 27.574m0-40.149c6.934 0 12.574 5.641 12.574 12.574s-5.641 12.574-12.574 12.574-12.573-5.641-12.573-12.574 5.64-12.574 12.573-12.574M255.995 179.758c15.204 0 27.574-12.37 27.574-27.574s-12.37-27.574-27.574-27.574-27.574 12.37-27.574 27.574 12.37 27.574 27.574 27.574m0-40.149c6.934 0 12.574 5.641 12.574 12.574s-5.641 12.574-12.574 12.574-12.574-5.641-12.574-12.574 5.641-12.574 12.574-12.574M333.449 179.758c15.204 0 27.573-12.37 27.573-27.574s-12.369-27.574-27.573-27.574-27.574 12.37-27.574 27.574 12.37 27.574 27.574 27.574m0-40.149c6.933 0 12.573 5.641 12.573 12.574s-5.641 12.574-12.573 12.574c-6.934 0-12.574-5.641-12.574-12.574s5.641-12.574 12.574-12.574M178.541 248.964c15.204 0 27.574-12.37 27.574-27.574s-12.37-27.573-27.574-27.573-27.573 12.369-27.573 27.573 12.369 27.574 27.573 27.574m0-40.148c6.934 0 12.574 5.641 12.574 12.573 0 6.934-5.641 12.574-12.574 12.574s-12.573-5.641-12.573-12.574 5.64-12.573 12.573-12.573M255.995 248.964c15.204 0 27.574-12.37 27.574-27.574s-12.37-27.573-27.574-27.573-27.574 12.369-27.574 27.573 12.37 27.574 27.574 27.574m0-40.148c6.934 0 12.574 5.641 12.574 12.573 0 6.934-5.641 12.574-12.574 12.574s-12.574-5.641-12.574-12.574 5.641-12.573 12.574-12.573M333.449 248.964c15.204 0 27.573-12.37 27.573-27.574s-12.369-27.573-27.573-27.573-27.574 12.369-27.574 27.573 12.37 27.574 27.574 27.574m0-40.148c6.933 0 12.573 5.641 12.573 12.573 0 6.934-5.641 12.574-12.573 12.574-6.934 0-12.574-5.641-12.574-12.574s5.641-12.573 12.574-12.573M178.541 318.171c15.204 0 27.574-12.37 27.574-27.574s-12.37-27.574-27.574-27.574-27.573 12.37-27.573 27.574 12.369 27.574 27.573 27.574m0-40.149c6.934 0 12.574 5.641 12.574 12.574s-5.641 12.574-12.574 12.574-12.573-5.641-12.573-12.574 5.64-12.574 12.573-12.574M255.995 318.171c15.204 0 27.574-12.37 27.574-27.574s-12.37-27.574-27.574-27.574-27.574 12.37-27.574 27.574 12.37 27.574 27.574 27.574m0-40.149c6.934 0 12.574 5.641 12.574 12.574s-5.641 12.574-12.574 12.574-12.574-5.641-12.574-12.574 5.641-12.574 12.574-12.574M333.449 318.171c15.204 0 27.573-12.37 27.573-27.574s-12.369-27.574-27.573-27.574-27.574 12.37-27.574 27.574 12.37 27.574 27.574 27.574m0-40.149c6.933 0 12.573 5.641 12.573 12.574s-5.641 12.574-12.573 12.574c-6.934 0-12.574-5.641-12.574-12.574s5.641-12.574 12.574-12.574M178.541 387.377c15.204 0 27.574-12.37 27.574-27.574s-12.37-27.573-27.574-27.573-27.573 12.369-27.573 27.573 12.369 27.574 27.573 27.574m0-40.148c6.934 0 12.574 5.641 12.574 12.573 0 6.934-5.641 12.574-12.574 12.574s-12.573-5.641-12.573-12.574 5.64-12.573 12.573-12.573M255.995 387.377c15.204 0 27.574-12.37 27.574-27.574s-12.37-27.573-27.574-27.573-27.574 12.369-27.574 27.573 12.37 27.574 27.574 27.574m0-40.148c6.934 0 12.574 5.641 12.574 12.573 0 6.934-5.641 12.574-12.574 12.574s-12.574-5.641-12.574-12.574 5.641-12.573 12.574-12.573M333.449 387.377c15.204 0 27.573-12.37 27.573-27.574s-12.369-27.573-27.573-27.573-27.574 12.369-27.574 27.573 12.37 27.574 27.574 27.574m0-40.148c6.933 0 12.573 5.641 12.573 12.573 0 6.934-5.641 12.574-12.573 12.574-6.934 0-12.574-5.641-12.574-12.574s5.641-12.573 12.574-12.573M178.541 456.584c15.204 0 27.574-12.37 27.574-27.574s-12.37-27.574-27.574-27.574-27.573 12.37-27.573 27.574 12.369 27.574 27.573 27.574m0-40.148c6.934 0 12.574 5.641 12.574 12.574s-5.641 12.574-12.574 12.574-12.573-5.641-12.573-12.574 5.64-12.574 12.573-12.574M255.995 456.584c15.204 0 27.574-12.37 27.574-27.574s-12.37-27.574-27.574-27.574-27.574 12.37-27.574 27.574 12.37 27.574 27.574 27.574m0-40.148c6.934 0 12.574 5.641 12.574 12.574s-5.641 12.574-12.574 12.574-12.574-5.641-12.574-12.574 5.641-12.574 12.574-12.574M361.022 429.01c0-15.204-12.369-27.574-27.573-27.574s-27.574 12.37-27.574 27.574 12.37 27.574 27.574 27.574 27.573-12.37 27.573-27.574m-27.573 12.574c-6.934 0-12.574-5.641-12.574-12.574s5.641-12.574 12.574-12.574 12.573 5.641 12.573 12.574-5.64 12.574-12.573 12.574"/></svg>