<svg xmlns="http://www.w3.org/2000/svg" width="512" height="512"><path fill="#c5d3dd" d="M289.338 116.901H67.569a8.98 8.98 0 0 1-8.98-8.98V90.807a8.98 8.98 0 0 1 8.98-8.98h221.77a8.98 8.98 0 0 1 8.98 8.98v17.114a8.98 8.98 0 0 1-8.981 8.98"/><path fill="#b6c4cf" d="M298.319 90.811v17.105c0 4.963-4.024 8.987-8.977 8.987h-19.971c4.953 0 8.977-4.024 8.977-8.987V90.811c0-4.963-4.024-8.987-8.977-8.987h19.971c4.952 0 8.977 4.024 8.977 8.987"/><path fill="#8d9ca8" d="M285.978 81.827H70.929V19.568c0-6.671 5.408-12.079 12.079-12.079h190.89c6.671 0 12.079 5.408 12.079 12.079z"/><path fill="#7a8c98" d="M285.977 19.565v62.259h-19.971V19.565c0-6.67-5.402-12.072-12.082-12.072h19.971c6.679-.001 12.082 5.401 12.082 12.072"/><path fill="#eaf9fa" d="M95.072 116.901h166.763v45.776H95.072z"/><path fill="#dcf5f8" d="M241.146 116.901h20.689v45.776h-20.689z"/><path fill="#d4f2f6" d="M261.835 162.676H95.072L62.01 192.021a49.95 49.95 0 0 0-16.793 37.359v243.953c0 17.219 13.959 31.178 31.178 31.178h204.116c17.219 0 31.178-13.959 31.178-31.178V229.38a49.95 49.95 0 0 0-16.793-37.359z"/><path fill="#a6e7f0" d="M311.689 229.379v243.955c0 17.217-13.957 31.175-31.175 31.175h-20.69c17.215 0 31.175-13.96 31.175-31.175V229.379c0-12.265-5.279-21.06-13.3-30.79-2.448-2.97-5.091-5.778-7.871-8.44l-28.687-27.473h20.69l33.062 29.347a49.93 49.93 0 0 1 16.796 37.356"/><path fill="#7acaa6" d="M45.218 260.951H311.69v182.946H45.218z"/><path fill="#57be92" d="M290.999 260.951h20.69v182.946h-20.69z"/><path fill="#ceefdd" d="M278.209 334.131c54.501-74.872 106.539-69.881 106.56-69.879.01.019 24.843 46.02-22.946 125.346-7.908 13.126-18.256 25.825-29.221 36.993-14.219 14.481-31.237 26.978-51.573 34.11-7.482 2.624-15.253 4.695-23.571 5.342-2.21.172-4.446.243-6.698.224a77 77 0 0 1-2.398-6.258c-2.638-7.915-3.752-15.88-4.243-23.794-1.337-21.509 3.56-42.047 11.372-60.778 6.024-14.446 13.7-28.917 22.718-41.306"/><path fill="#b0e7c9" d="M361.826 389.595c-7.909 13.131-18.253 25.832-29.227 36.996-14.219 14.479-31.235 26.981-51.565 34.11-7.489 2.626-15.258 4.693-23.576 5.342-2.207.17-4.444.239-6.7.22a79 79 0 0 1-2.396-6.251c-.07-.2-.13-.41-.2-.609 4.394-.969 8.637-2.267 12.801-3.725 20.34-7.129 37.356-19.621 51.575-34.11 10.964-11.164 21.309-23.865 29.217-36.986 37.006-61.421 30.466-102.86 25.633-118.448 10.844-2.516 17.375-1.887 17.385-1.887.01.021 24.843 46.024-22.947 125.348"/><path fill="#7acaa6" d="M385.5 454.576c80.463-45.847 81.283-98.117 81.283-98.138-.018-.012-42.976-29.801-127.119 8.88-13.923 6.401-27.693 15.274-40.01 24.931-15.971 12.523-30.281 28.047-39.628 47.465-3.439 7.145-6.36 14.637-7.928 22.832a78 78 0 0 0-.967 6.632 78 78 0 0 0 5.953 3.079c7.573 3.501 15.365 5.492 23.175 6.86 21.228 3.718 42.183 1.133 61.665-4.551 15.027-4.383 30.261-10.404 43.576-17.99"/><path fill="#57be92" d="M466.783 356.434c0 .02-.819 52.294-81.282 98.147-13.321 7.579-28.548 13.6-43.577 17.984-19.482 5.682-40.441 8.268-61.67 4.553-7.809-1.368-15.597-3.355-23.166-6.86a76 76 0 0 1-5.961-3.076 84 84 0 0 1 .969-6.64c.06-.319.12-.639.19-.948 4.334 1.318 8.707 2.276 13.091 3.045 21.219 3.715 42.179 1.128 61.66-4.553 15.028-4.383 30.256-10.405 43.577-17.984 61.87-35.259 76.648-74.302 80.183-90.478 10.624 3.095 15.976 6.8 15.986 6.81"/><path d="M471.276 350.446c-.107-.081-11.358-8.138-33.619-11.253-4.097-.563-7.881 2.282-8.455 6.379a7.49 7.49 0 0 0 6.379 8.455c11.15 1.56 18.911 4.533 23.157 6.54-.915 5.002-3.309 14.018-9.548 25.163-8.976 16.034-27.956 39.865-67.399 62.339-11.919 6.792-26.43 12.776-41.964 17.308-20.705 6.042-40.311 7.514-58.275 4.364-8.499-1.488-15.275-3.484-21.323-6.281a50 50 0 0 1-.967-.457q.093-.53.191-1.05c1.252-6.547 3.579-13.217 7.32-20.99 7.908-16.43 20.526-31.511 37.501-44.82 12.735-9.985 26.054-18.291 38.517-24.021 21.012-9.66 41.185-15.74 59.957-18.072a7.49 7.49 0 0 0 6.508-8.355 7.485 7.485 0 0 0-8.355-6.508 172 172 0 0 0-8.649 1.309c15.129-50.943-.789-79.625-1.003-79.996a7.49 7.49 0 0 0-5.769-3.703c-1.639-.156-29.845-2.357-66.302 24.351V229.38a57.48 57.48 0 0 0-19.311-42.96l-30.544-27.11v-34.92h20.015c9.082 0 16.469-7.388 16.469-16.469V90.807c0-7.654-5.255-14.085-12.342-15.925V19.568C293.466 8.778 284.688 0 273.899 0H172.215a7.49 7.49 0 0 0 0 14.978h101.684a4.595 4.595 0 0 1 4.589 4.59v54.77H78.418v-54.77c0-2.531 2.06-4.59 4.59-4.59h55.151c4.137 0 7.489-3.353 7.489-7.489S142.296 0 138.159 0H83.008C72.219 0 63.44 8.778 63.44 19.568v55.315c-7.086 1.839-12.34 8.271-12.34 15.924v17.114c0 9.082 7.388 16.469 16.469 16.469h20.014v34.919l-30.543 27.11a57.48 57.48 0 0 0-19.311 42.96v243.953c0 21.322 17.346 38.667 38.666 38.667h204.117c17.146 0 31.709-11.222 36.756-26.705 8.73-1.047 17.66-2.885 26.755-5.539 16.64-4.854 32.265-11.312 45.184-18.673 84.091-47.915 85.064-104.084 85.064-104.646a7.49 7.49 0 0 0-2.995-5.99m-117.559-71.97c11.772-4.961 20.997-6.337 26.053-6.69 1.648 4.811 3.967 13.851 3.969 26.631.002 11.182-1.838 26.709-8.542 45.902-12.544 3.394-25.47 8.13-38.661 14.194a169 169 0 0 0-7.886 3.886l11.393-17.174c.659.022 1.357.038 2.11.038 6.475 0 16.104-1.013 23.285-6.152a7.49 7.49 0 0 0-8.715-12.182c-1.676 1.2-3.872 1.992-6.203 2.502l11.679-17.606a7.49 7.49 0 0 0-2.101-10.38 7.486 7.486 0 0 0-10.38 2.101l-11.692 17.624c-.432-2.343-.552-4.678-.095-6.707a7.49 7.49 0 0 0-5.659-8.953 7.487 7.487 0 0 0-8.953 5.659c-2.167 9.614 1.583 20.033 4.241 25.778l-12.795 19.288c-.437-2.346-.561-4.677-.108-6.688a7.49 7.49 0 1 0-14.612-3.294c-2.167 9.614 1.583 20.033 4.241 25.777 0 0-6.732 10.198-6.872 10.483q-1.194.911-2.381 1.842a181 181 0 0 0-3.929 3.178c-.006-1.056.084-2.031.281-2.902a7.49 7.49 0 0 0-5.659-8.953 7.487 7.487 0 0 0-8.953 5.659c-1.403 6.22-.302 12.795 1.343 18.171-10.519 10.811-18.845 22.509-24.837 34.958a144 144 0 0 0-1.543 3.31q-.078-.998-.143-2.025c-1.131-18.201 2.506-37.522 10.81-57.43 6.229-14.935 13.79-28.692 21.863-39.783 26.72-36.709 52.516-52.924 69.451-60.062M67.569 109.412a1.493 1.493 0 0 1-1.491-1.491V90.807c0-.822.669-1.491 1.491-1.491h221.77c.822 0 1.491.669 1.491 1.491v17.114c0 .822-.669 1.491-1.491 1.491zm186.777 14.978v30.797H102.561V124.39zM52.707 229.38a42.5 42.5 0 0 1 14.275-31.758l30.935-27.457H258.99l30.936 27.457a42.5 42.5 0 0 1 14.275 31.758v24.083H52.707zm0 39.061h251.494v25.007c-10.378 9.468-21.18 21.347-32.046 36.275-8.752 12.022-16.904 26.834-23.577 42.831-9.154 21.946-13.17 43.427-11.947 63.855H52.707zm227.805 228.581H76.395c-13.062 0-23.688-10.627-23.688-23.689v-21.946h185.718c.735 3.86 1.665 7.493 2.831 10.992 1.24 3.721 2.5 9.21 6.16 11.302a86 86 0 0 0 6.527 3.374c7.261 3.356 15.213 5.72 25.026 7.439 6.919 1.212 14.028 1.821 21.308 1.834-4.238 6.43-11.504 10.694-19.765 10.694"/><path d="M401.377 377.349c2.766-3.075 2.514-7.81-.562-10.576s-7.81-2.514-10.576.562c-6.589 7.327-8.41 18.25-8.899 24.561l-20.589 10.573c.766-2.26 1.797-4.354 3.175-5.887a7.489 7.489 0 0 0-11.138-10.014c-6.589 7.327-8.41 18.25-8.899 24.561L323.3 421.7c.766-2.26 1.797-4.354 3.175-5.887a7.489 7.489 0 1 0-11.138-10.014c-6.589 7.327-8.41 18.25-8.899 24.561l-12.362 6.348a7.49 7.49 0 0 0 6.842 13.324l12.363-6.349c4.889 2.962 13.465 7.232 22.297 7.232q1.423.001 2.847-.155a7.49 7.49 0 0 0 6.618-8.268c-.455-4.111-4.162-7.081-8.268-6.618-2.049.227-4.352-.156-6.634-.849l20.59-10.573c4.888 2.962 13.465 7.232 22.299 7.232q1.423.001 2.847-.155a7.487 7.487 0 0 0 6.618-8.268c-.455-4.111-4.161-7.083-8.268-6.618-2.051.22-4.35-.162-6.627-.853l20.583-10.57c4.888 2.962 13.465 7.232 22.298 7.232q1.423.001 2.847-.155a7.487 7.487 0 0 0 6.618-8.268c-.456-4.111-4.16-7.086-8.268-6.618-2.05.222-4.349-.16-6.628-.852l18.788-9.648a7.49 7.49 0 0 0-6.842-13.324l-18.795 9.652c.768-2.263 1.798-4.358 3.176-5.89"/></svg>