<svg xmlns="http://www.w3.org/2000/svg" width="512" height="512" viewBox="0 0 512.049 512.049"><g fill="#ffc144" fill-rule="evenodd" clip-rule="evenodd"><path d="m87.396 130.056-20.18-31.283-21.203 32.026-35.988 9.526 23.907 30.061-2.062 37.17 35.978-13.447 34.713 13.447-1.671-38.372 23.516-28.859zM140.699 72.462l35.938 45.19-3.1 55.875 54.084-20.214 52.183 20.214-2.512-57.683 35.35-43.382-55.636-15.437L226.67 10l-31.873 48.143zM326.753 210.387l-80.461 21.297 53.45 67.212-4.609 83.105 80.44-30.065 77.613 30.065-3.736-85.794 52.576-64.523-82.748-22.959-45.119-69.942z"/></g><path d="M50.027 292c-5.523 0-10 4.477-10 10v30H20.026v-30c-.528-13.268-19.477-13.258-20 0v80c.528 13.268 19.477 13.258 20 0v-30h20.001v30c.528 13.268 19.477 13.258 20 0v-80c0-5.522-4.477-10-10-10M75.028 302v80c.528 13.268 19.477 13.258 20 0v-80c-.528-13.268-19.477-13.257-20 0M170.03 362v-10c0-5.523-4.477-10-10-10h-9.999c-13.268.528-13.258 19.475-.001 20-.552 13.269-19.454 13.258-20 0v-40c.551-13.268 19.454-13.261 20.001 0 .525 13.263 19.475 13.263 20 0-1.648-39.801-58.36-39.785-60 0v40c1.651 39.809 58.361 39.779 59.999 0M234.032 392c5.523 0 10-4.477 10-10v-80c-.528-13.268-19.477-13.258-20 0v30h-20.001v-30c-.528-13.268-19.477-13.258-20 0v80c.528 13.268 19.477 13.258 20 0v-30h20.001v30c0 5.523 4.477 10 10 10M30.025 412.002c-16.542 0-30 13.458-30 30v40c-.283 21.758 23.524 36.691 42.928 27.069l.002.001c3.905 3.906 10.237 3.906 14.142 0 3.905-3.905 3.906-10.236 0-14.142l-.002-.002a29.8 29.8 0 0 0 2.931-12.927v-40c-.001-16.541-13.459-29.999-30.001-29.999m-10 70v-40c.551-13.269 19.455-13.26 20 0v40c-.55 13.27-19.454 13.259-20 0M125.027 412.002c-5.523 0-10 4.477-10 10v60c-.551 13.27-19.454 13.259-20 0v-60c-.528-13.268-19.477-13.258-20 0v60c1.653 39.809 58.362 39.778 60 0v-60c0-5.523-4.477-10-10-10M180.028 412.002c-16.542 0-30 13.458-30 30v60c.528 13.268 19.477 13.258 20 0v-20.001h20v20.001c.528 13.268 19.477 13.258 20 0v-60c0-16.542-13.458-30-30-30m-10 49.999v-19.999c.551-13.27 19.454-13.259 20 0v19.999zM270.03 492.002h-25v-70c-.528-13.268-19.477-13.258-20 0v80c0 5.523 4.477 10 10 10h35c13.268-.528 13.258-19.477 0-20M305.031 412.002c-5.523 0-10 4.477-10 10v80c.528 13.268 19.477 13.258 20 0v-80c0-5.523-4.478-10-10-10M375.032 412.002h-35c-13.268.528-13.258 19.477 0 20h7.5v70c.528 13.268 19.477 13.258 20 0v-70h7.5c13.268-.528 13.258-19.477 0-20M450.033 412.002c-5.523 0-10 4.477-10 10v29.999c-.551 13.27-19.454 13.259-20 0v-29.999c-.528-13.268-19.477-13.258-20 0v29.999c0 13.037 8.36 24.159 20 28.286v21.715c.528 13.268 19.477 13.258 20 0v-21.715c11.64-4.127 20-15.249 20-28.286v-29.999c0-5.523-4.477-10-10-10M511.555 228.65a10 10 0 0 0-6.855-6.603l-79.082-21.941-43.056-66.745a10 10 0 0 0-8.344-4.579h-.06a10 10 0 0 0-8.338 4.479l-22.562 34.079c-3.049 4.605-1.787 10.81 2.818 13.859 4.604 3.047 10.809 1.787 13.859-2.818l14.115-21.321 36.824 57.084a10 10 0 0 0 5.73 4.215l68.004 18.868-42.912 52.661a10 10 0 0 0-2.238 6.752l3.07 70.506-63.344-24.538a10 10 0 0 0-7.113-.042l-66.107 24.708 3.763-67.827a10 10 0 0 0-2.158-6.778l-43.927-55.236 22.163-5.867c5.339-1.413 8.522-6.887 7.108-12.226-1.413-5.339-6.887-8.521-12.226-7.108l-36.955 9.782a10 10 0 0 0-5.267 15.892l51.082 64.233-4.399 79.305a10 10 0 0 0 13.486 9.921l76.875-28.732 74.064 28.69a10 10 0 0 0 13.603-9.76l-3.57-81.992 50.173-61.573a10 10 0 0 0 1.776-9.348M166.441 120.897l-2.889 52.076a10 10 0 0 0 13.486 9.921l50.519-18.881 48.634 18.839a10 10 0 0 0 13.603-9.76l-2.346-53.881 32.946-40.432c4.569-5.356 1.744-14.225-5.079-15.953l-51.969-14.418-28.272-43.829A10 10 0 0 0 226.73 0h-.06a10 10 0 0 0-8.338 4.479L188.56 49.45l-50.419 13.345a10.002 10.002 0 0 0-5.268 15.892zm30.915-53.087a10 10 0 0 0 5.78-4.146l23.426-35.384 22.041 34.167a10 10 0 0 0 5.73 4.215l40.891 11.345-25.684 31.52a10 10 0 0 0-2.238 6.752l1.846 42.396-37.914-14.687a10 10 0 0 0-7.113-.042l-39.75 14.857 2.252-40.597a10 10 0 0 0-2.158-6.778L158.05 78.214zM108.391 215.681a10 10 0 0 0 4.161-8.56l-1.505-34.57 21.112-25.909c4.569-5.356 1.744-14.225-5.079-15.953l-33.344-9.251-18.117-28.086a10 10 0 0 0-8.344-4.579c-3.336-.004-6.534 1.665-8.398 4.479l-19.102 28.854-32.309 8.551a10.002 10.002 0 0 0-5.268 15.892l21.538 27.083-1.851 33.37a10 10 0 0 0 13.486 9.921l32.414-12.114L98.95 216.88a10 10 0 0 0 9.441-1.199M90.9 169.619l1.005 23.085-20.445-7.92a10 10 0 0 0-7.113-.042l-21.645 8.089 1.214-21.892a10 10 0 0 0-2.158-6.778l-14.382-18.086 21.195-5.61a10 10 0 0 0 5.78-4.146l12.756-19.268 11.885 18.424a10 10 0 0 0 5.73 4.215l22.266 6.178-13.85 16.997a10 10 0 0 0-2.238 6.754"/><path d="M316.757 210.387c0 5.523 4.481 10 10.004 10 13.265-.527 13.26-19.476 0-20h-.008c-5.523 0-9.996 4.477-9.996 10"/></svg>