<svg xmlns="http://www.w3.org/2000/svg" width="512" height="512" viewBox="0 0 512.013 512.013"><g fill-rule="evenodd" clip-rule="evenodd"><path fill="#5cd0b3" d="M130.94 258h70.036V98H130.94z"/><g fill="#ffdcd5"><path d="M200.976 98v160H301.03c-26.561-1.179-26.539-38.831 0-40-26.561-1.179-26.54-38.831 0-40-26.561-1.179-26.54-38.831 0-40-26.561-1.179-26.54-38.831 0-40h-40.022l-20.011-68c-3.106-10.554-13.258-20-24.263-20h-15.759z"/><path d="M281.02 118.001c0 11 9.004 20 20.011 20h60.032c11.006 0 20.011-9 20.011-20s-9.004-20-20.011-20H301.03c-11.006 0-20.01 8.999-20.01 20M301.03 138.001c-26.56 1.178-26.54 38.831 0 40h60.032c11.006 0 20.011-8.999 20.011-20s-9.004-19.999-20.011-19.999H301.03z"/><path d="M361.062 178H301.03c-11.006 0-20.011 8.999-20.011 20s9.004 20 20.011 20h60.032c11.006 0 20.011-8.999 20.011-20s-9.005-20-20.011-20M361.062 218H301.03c-11.006 0-20.011 8.999-20.011 20s9.004 19.999 20.011 19.999h60.032c11.006 0 20.011-8.999 20.011-20 0-10.999-9.005-19.999-20.011-19.999"/></g></g><path d="M130.94 268h230.122c25.844.09 39.557-31.081 22.351-50 10.138-10.863 10.136-29.14 0-40 10.138-10.864 10.136-29.139 0-40 17.213-18.927 3.481-50.093-22.351-50H268.49l-17.9-60.824C246.031 11.683 231.475 0 216.735 0h-15.759c-5.522 0-10 4.477-10 10v78H130.94c-5.522 0-10 4.477-10 10v160a10 10 0 0 0 10 10m230.122-20h-60.031c-13.284-.551-13.273-19.453 0-20h60.031c13.284.551 13.273 19.453 0 20m0-40h-60.031c-13.284-.551-13.273-19.453 0-20h60.031c13.284.552 13.273 19.454 0 20m0-40h-60.031c-13.284-.551-13.274-19.454 0-20h60.031c13.284.552 13.273 19.454 0 20m10.011-49.999c0 5.514-4.491 10-10.011 10h-60.031c-13.284-.551-13.273-19.453 0-20h60.031c5.519 0 10.011 4.486 10.011 10M140.94 108h50.036v24.997c.528 13.268 19.476 13.258 20 0V20h5.759c5.905 0 12.623 5.873 14.669 12.823l20.011 68a10 10 0 0 0 9.594 7.177h11.726c-3.752 9.983-1.125 22.459 5.946 30-10.138 10.864-10.135 29.139 0 40-10.138 10.863-10.136 29.14 0 40-7.07 7.54-9.698 20.019-5.946 30h-61.758v-25.003c-.528-13.268-19.476-13.258-20 0V248h-50.036V108zM300.026 334.963l-10.634-4.404c-4.916-2.036-7.258-7.693-5.222-12.609s7.693-7.259 12.608-5.223l5.316 2.202c5.104 2.115 10.952-.309 13.066-5.412 2.113-5.102-.31-10.952-5.412-13.065l-5.317-2.203c-15.104-6.254-32.484.944-38.74 16.048s.942 32.483 16.047 38.74l10.634 4.404c4.916 2.036 7.258 7.693 5.222 12.61-.978 2.361-2.835 4.208-5.23 5.2-2.396.993-5.016 1.001-7.378.021l-5.317-2.202c-5.1-2.112-10.952.31-13.065 5.413s.311 10.952 5.413 13.065l5.317 2.202c7.311 3.028 15.367 3.009 22.684-.022 7.332-3.037 13.034-8.729 16.056-16.025 6.254-15.104-.944-32.482-16.048-38.74M130.94 392h35c13.268-.529 13.258-19.476 0-20h-25v-20h11c13.268-.529 13.258-19.476 0-20h-11v-20h25c13.268-.529 13.258-19.476 0-20h-35c-5.522 0-10 4.477-10 10v80c0 5.523 4.477 10 10 10M248.942 382v-60c-1.653-39.809-58.363-39.778-60.001 0v60c.528 13.268 19.476 13.258 20 0v-20.001h20.001V382c.528 13.268 19.476 13.258 20 0m-40.001-40.001V322c.551-13.269 19.455-13.26 20.001 0v19.999zM391.073 331.999V302c-.528-13.268-19.476-13.258-20 0v29.999c-.551 13.269-19.455 13.26-20.001 0V302c-.528-13.268-19.476-13.258-20 0v29.999c0 13.037 8.36 24.159 20 28.286V382c.528 13.268 19.476 13.258 20 0v-21.715c11.642-4.127 20.001-15.249 20.001-28.286M346.777 454.964l-10.634-4.404c-4.916-2.036-7.258-7.693-5.222-12.609.978-2.361 2.836-4.208 5.231-5.201s5.015-1 7.377-.022l5.316 2.202a10 10 0 0 0 13.066-5.412c2.113-5.102-.31-10.952-5.412-13.065l-5.317-2.203c-14.553-6.387-32.969 1.24-38.74 16.048-6.256 15.104.942 32.482 16.047 38.74l10.634 4.404c4.916 2.036 7.258 7.693 5.222 12.61-1.862 4.79-7.905 7.292-12.608 5.222l-5.317-2.202c-5.1-2.111-10.952.31-13.065 5.413s.311 10.952 5.413 13.065l5.317 2.202c7.311 3.027 15.367 3.009 22.684-.022 7.332-3.037 13.034-8.729 16.056-16.025 6.254-15.104-.944-32.483-16.048-38.741M422.823 492.001h-25v-20h11c13.268-.529 13.258-19.476 0-20h-11v-20h25c13.268-.529 13.258-19.476 0-20h-35c-5.522 0-10 4.477-10 10v80c0 5.523 4.478 10 10 10h35c13.269-.528 13.258-19.476 0-20M285.693 412.001c-5.522 0-10 4.477-10 10v60c-.551 13.269-19.455 13.26-20.001 0v-60c-.528-13.268-19.476-13.258-20 0v60c1.653 39.809 58.363 39.778 60.001 0v-60c0-5.522-4.478-10-10-10M175.69 412.002c-16.542 0-30 13.458-30 30v40c1.653 39.809 58.364 39.777 60.001 0v-40c0-16.543-13.458-30-30.001-30m10.001 70c-.551 13.268-19.455 13.259-20.001 0v-40c.551-13.269 19.455-13.258 20.001 0zM124.19 412.002h-35c-13.268.529-13.258 19.476 0 20h7.5v70c.528 13.268 19.476 13.258 20 0v-70h7.5c13.268-.529 13.258-19.476 0-20"/><path d="M200.976 188c5.522 0 10-4.477 10-10v-.008c0-5.523-4.478-9.996-10-9.996-13.263.529-13.262 19.48 0 20.004"/></svg>