<svg xmlns="http://www.w3.org/2000/svg" width="512" height="512" viewBox="0 0 511.977 511.977"><path fill="#ffc144" fill-rule="evenodd" d="M61.962 204.015 9.976 256l51.986 51.986-19.028 71.015 71.014 19.028 19.028 71.014 71.014-19.028 51.986 51.986 51.986-51.986 71.014 19.028 19.028-71.014 71.015-19.028-19.029-71.015L501.976 256l-51.986-51.986L469.019 133l-71.015-19.028-19.028-71.014-71.014 19.028L255.976 10 203.99 61.986l-71.014-19.028-19.028 71.014L42.934 133z" clip-rule="evenodd"/><path d="M511.976 256c0-2.652-1.054-5.196-2.929-7.071l-47.904-47.903 17.534-65.437a9.997 9.997 0 0 0-7.071-12.247l-65.437-17.534-17.533-65.438c-1.43-5.335-6.912-8.503-12.247-7.071l-65.438 17.533-47.903-47.903c-3.905-3.905-10.237-3.905-14.143 0l-47.904 47.903-65.437-17.533c-5.336-1.432-10.818 1.737-12.248 7.071l-17.534 65.437-65.437 17.534c-5.217 1.288-8.564 7.086-7.071 12.248l17.534 65.438-47.903 47.902c-3.873 3.724-3.873 10.419 0 14.143l47.903 47.903-17.534 65.438c-1.493 5.162 1.855 10.96 7.071 12.248l65.437 17.534 17.534 65.437a9.998 9.998 0 0 0 12.247 7.071L201 461.169l47.904 47.904c3.724 3.873 10.419 3.873 14.143 0l47.903-47.904 65.437 17.534a9.996 9.996 0 0 0 12.247-7.071l17.534-65.437 65.437-17.534a9.997 9.997 0 0 0 7.071-12.247l-17.534-65.437 47.904-47.904a10 10 0 0 0 2.93-7.073m-69.057 44.915a10 10 0 0 0-2.588 9.66l16.44 61.354-61.355 16.44a10 10 0 0 0-7.071 7.071l-16.44 61.355-61.354-16.44a10 10 0 0 0-9.66 2.588l-44.915 44.916-44.915-44.916a10.01 10.01 0 0 0-9.66-2.588l-61.354 16.44-16.44-61.355a10 10 0 0 0-7.071-7.071l-61.355-16.44 16.44-61.355a10 10 0 0 0-2.588-9.66L24.119 256l44.915-44.914a10 10 0 0 0 2.588-9.66l-16.44-61.355 61.355-16.44a10 10 0 0 0 7.071-7.071l16.44-61.355 61.354 16.439a10 10 0 0 0 9.659-2.588l44.916-44.915 44.915 44.915a10 10 0 0 0 9.66 2.588l61.354-16.439 16.44 61.355a10 10 0 0 0 7.071 7.071l61.355 16.44-16.44 61.354a10 10 0 0 0 2.588 9.66L487.834 256z"/><path d="M122.85 245.999c5.523 0 10-4.477 10-10v-47.803l9.26 13.469c3.75 5.723 12.732 5.722 16.48 0l9.26-13.469v47.803c.528 13.268 19.477 13.258 20 0v-80a10 10 0 0 0-18.241-5.666l-19.26 28.014-19.26-28.014c-5.547-8.032-18.222-4.092-18.24 5.666v80c.001 5.523 4.479 10 10.001 10M235.852 245.999c16.542 0 30-13.458 30-30v-60c-.528-13.268-19.477-13.258-20 0v60c-.551 13.269-19.454 13.258-20 0v-60c-.528-13.268-19.477-13.258-20 0v60c0 16.543 13.458 30 30 30M314.937 188.963l-10.634-4.404c-2.361-.978-4.208-2.836-5.2-5.231-.993-2.396-1-5.015-.021-7.378.978-2.361 2.835-4.208 5.231-5.2s5.016-1 7.377-.022l5.317 2.203c5.103 2.116 10.952-.309 13.066-5.412s-.309-10.952-5.412-13.066l-5.318-2.203c-7.296-3.021-15.352-3.014-22.684.022-7.332 3.037-13.034 8.729-16.055 16.025-6.389 14.551 1.24 32.968 16.045 38.74l10.635 4.405c4.916 2.036 7.258 7.692 5.222 12.609-.978 2.362-2.836 4.208-5.231 5.201s-5.016 1-7.376.022l-5.316-2.203c-12.46-4.588-19.703 12.918-7.655 18.477l5.318 2.204c7.311 3.028 15.367 3.009 22.684-.022 7.332-3.037 13.034-8.729 16.056-16.026 6.254-15.106-.944-32.485-16.049-38.741M354.102 166h7.5v70c.528 13.268 19.477 13.258 20 0v-70h7.5c13.268-.528 13.258-19.477 0-20h-35c-13.268.528-13.258 19.477 0 20M172.037 356.001v-80c-.528-13.268-19.477-13.258-20 0v30h-20.001v-30c-.528-13.268-19.477-13.258-20 0v80c.528 13.268 19.477 13.258 20 0v-30h20.001v30c.528 13.268 19.476 13.258 20 0M202.038 366.001c5.523 0 10-4.477 10-10V336h20v20.001c.528 13.268 19.477 13.258 20 0v-60c-1.653-39.809-58.362-39.778-60 0v60c0 5.523 4.477 10 10 10m20-80c5.514 0 10 4.486 10 10V316h-20v-19.999c0-5.514 4.486-10 10-10M310.29 273.294l-12.874 45.772-12.874-45.772c-1.495-5.317-7.015-8.413-12.334-6.919-5.316 1.495-8.415 7.017-6.919 12.334l22.5 80c2.757 9.658 16.499 9.653 19.253 0l22.5-80c1.496-5.317-1.603-10.839-6.919-12.334-5.314-1.496-10.837 1.602-12.333 6.919M389.918 286.001c13.268-.528 13.258-19.477 0-20h-35c-5.523 0-10 4.477-10 10v80c0 5.523 4.477 10 10 10h35c13.268-.528 13.258-19.477 0-20h-25v-20h11c13.268-.528 13.258-19.477 0-20h-11v-20zM220.973 125.998h115.003c13.268-.528 13.258-19.477 0-20H220.973c-13.269.528-13.258 19.477 0 20M335.976 386.003h-160c-13.268.528-13.258 19.477 0 20h160c13.268-.528 13.258-19.477 0-20M175.976 125.998c13.268-.528 13.258-19.477 0-20h-.007c-13.268.53-13.25 19.479.007 20"/></svg>