<svg xmlns="http://www.w3.org/2000/svg" width="512" height="512" viewBox="0 0 512.002 512.002"><g fill-rule="evenodd" clip-rule="evenodd"><path fill="#ff5d7d" d="M30.001 170h452c11 0 20-9 20-20V30c0-11-9-20-20-20h-452c-11 0-20 9-20 20v120c0 11 9 20 20 20M231 210.001H101.001c-11 0-19.999 9-19.999 20v120c0 11 9 20 19.999 20h310.001c11 0 19.999-9 19.999-20v-120c0-11-9-20-19.999-20h-130z"/><g fill="#ff9eb1"><path d="M231 170h50.002v40.001H231zM231 370.001h50.002v132.001H231z"/></g></g><path d="M78.497 60c5.514 0 10 4.486 10 10 .523 13.259 19.474 13.266 20 0-1.648-39.8-58.36-39.786-60.001 0v40c1.651 39.803 58.36 39.782 60.001 0 0-5.523-4.477-10-10-10s-10 4.477-10 10c0 5.514-4.486 10-10 10s-10-4.486-10-10V70c0-5.514 4.486-10 10-10M183.499 110V70c-1.653-39.809-58.363-39.778-60 0v40c1.652 39.808 58.362 39.778 60 0m-20 0c-.551 13.269-19.454 13.258-20 0V70c.551-13.269 19.455-13.26 20 0zM263.5 140c5.522 0 10-4.477 10-10V50a10 10 0 0 0-18.24-5.666L236 72.349l-19.26-28.014a10 10 0 0 0-18.241 5.666v80c.528 13.268 19.477 13.258 20 0V82.196l9.26 13.469c3.75 5.723 12.732 5.722 16.48 0l9.26-13.469V130c.001 5.523 4.479 10 10.001 10M308.502 130V50c-.528-13.268-19.476-13.258-20 0v80c.529 13.268 19.477 13.258 20 0M343.503 130V88.175l26.284 46.728a10 10 0 0 0 11.25 4.771 10 10 0 0 0 7.466-9.674V50c-.528-13.268-19.476-13.258-20 0v41.825l-26.284-46.728A10.001 10.001 0 0 0 323.503 50v80c.529 13.268 19.477 13.258 20 0M433.504 60c5.514 0 10 4.486 10 10 .523 13.259 19.474 13.266 20 0-1.648-39.8-58.359-39.786-60 0v40c1.653 39.808 58.362 39.778 60 0v-10c0-5.523-4.478-10-10-10h-9.999c-13.267.528-13.258 19.475-.001 20-.551 13.269-19.454 13.259-20 0V70c0-5.514 4.487-10 10-10"/><path d="M482 0H30.001c-16.542 0-30 13.458-30 30v120c0 16.542 13.458 30 30 30h78.494c13.268-.528 13.258-19.477 0-20H30.001c-5.514 0-10-4.486-10-10V30c0-5.514 4.486-10 10-10H482c5.514 0 10 4.486 10 10v120c0 5.514-4.486 10-10 10H198.496c-13.268.528-13.258 19.477 0 20H221v20.001H101c-16.542 0-30 13.458-30 30v120c0 16.542 13.458 30 30 30h120v122c0 5.523 4.477 10 10 10h50.001c5.522 0 10-4.477 10-10v-122h120c16.542 0 30-13.458 30-30v-120c0-16.542-13.458-30-30-30h-120V180H482c16.542 0 30-13.458 30-30V30c0-16.542-13.458-30-30-30M271.001 492.002H241v-112h30.001zm150-262.001v120c0 5.514-4.486 10-10 10H101c-5.514 0-10-4.486-10-10v-120c0-5.514 4.486-10 10-10h310.001c5.514 0 10 4.486 10 10m-150-30H241V180h30.001z"/><path d="m131.855 297.039 10.634 4.404c4.916 2.036 7.258 7.693 5.222 12.609s-7.694 7.258-12.609 5.223l-5.316-2.202c-5.101-2.114-10.952.31-13.065 5.412-2.114 5.102.31 10.952 5.412 13.065l5.317 2.203a29.5 29.5 0 0 0 11.308 2.257c11.641-.001 22.708-6.899 27.432-18.305 6.256-15.104-.941-32.483-16.046-38.74l-10.634-4.404c-4.916-2.037-7.259-7.692-5.222-12.61.978-2.361 2.835-4.208 5.231-5.2 2.396-.993 5.016-1 7.377-.022l5.317 2.202c5.104 2.115 10.953-.31 13.065-5.412s-.31-10.952-5.412-13.065l-5.317-2.202c-14.551-6.389-32.97 1.24-38.74 16.047-6.257 15.103.941 32.482 16.046 38.74M213.44 340.001c16.542 0 30-13.458 30-30v-40c-1.653-39.809-58.363-39.778-60 0v40c-.001 16.542 13.457 30 30 30m-10.001-70c.551-13.269 19.455-13.26 20 0v40c-.551 13.27-19.455 13.259-20 0zM288.441 340.001c16.542 0 30-13.458 30-30v-40c-1.653-39.809-58.362-39.778-60 0v40c0 16.542 13.458 30 30 30m-10-70c.551-13.27 19.454-13.259 20 0v40c-.551 13.27-19.454 13.259-20 0zM343.443 340.001c5.522 0 10-4.477 10-10v-41.825l26.284 46.728a10 10 0 0 0 11.25 4.771 10 10 0 0 0 7.466-9.674v-80c-.528-13.268-19.476-13.258-20 0v41.825l-26.284-46.728a10 10 0 0 0-18.716 4.903v80c0 5.523 4.477 10 10 10M153.492 160c-5.523 0-9.996 4.477-9.996 10 .528 13.263 19.479 13.263 20.003 0 0-5.525-4.482-10.004-10.007-10"/></svg>