<svg xmlns="http://www.w3.org/2000/svg" width="512" height="512" viewBox="0 0 512.002 512.002"><g fill="#ff5d7d" fill-rule="evenodd" clip-rule="evenodd"><path d="M94.001 139.409v160l324-86.816 84.001-22.508-40.002-70 40.002-90z"/><path d="M94.001 299.409 10 321.917l40.002 69.999-40.002 90 408.001-109.323v-160z"/></g><path d="M225.999 226.718v-80c-.528-13.268-19.477-13.258-20 0v46.792l-26.663-40.256a10.002 10.002 0 0 0-18.338 5.522v80c.528 13.268 19.477 13.258 20 0v-46.792l26.663 40.256a10 10 0 0 0 18.338-5.522M288.589 137.62c5.334-1.429 8.5-6.913 7.071-12.248s-6.914-8.502-12.248-7.071l-35 9.378a10 10 0 0 0-7.412 9.659v80a10 10 0 0 0 12.589 9.66l35-9.378c5.334-1.429 8.5-6.913 7.071-12.248s-6.914-8.503-12.248-7.071L261 204.306v-19.295l13.588-3.641c5.335-1.429 8.501-6.913 7.071-12.248s-6.911-8.503-12.247-7.071L261 164.305v-19.294zM376.002 93.845c-5.523 0-10 4.477-10 10v52.616l-9.854-11.692a9.98 9.98 0 0 0-8.517-3.518 10 10 0 0 0-7.778 4.941l-8.852 15.248v-42.858c-.528-13.268-19.477-13.258-20 0v80a10 10 0 0 0 7.4 9.656c4.283 1.174 8.982-.702 11.248-4.635l20.364-35.077 18.341 21.763a10 10 0 0 0 17.647-6.444v-80c.001-5.523-4.476-10-9.999-10M190.911 303.09l-35 9.378c-12.725 3.983-7.704 22.258 5.177 19.318L166 330.47v66.968c.528 13.268 19.477 13.258 20 0v-72.327l10.088-2.703c5.334-1.429 8.5-6.913 7.071-12.248s-6.913-8.5-12.248-7.07M123.499 321.506c-5.523 0-10 4.477-10 10v80c.528 13.268 19.477 13.258 20 0v-80c0-5.523-4.477-10-10-10M266.09 303.652c5.334-1.429 8.5-6.913 7.071-12.248s-6.912-8.502-12.248-7.071l-35 9.378a10 10 0 0 0-7.412 9.659v80a10 10 0 0 0 12.589 9.66l35-9.378c5.334-1.429 8.5-6.913 7.071-12.248s-6.912-8.503-12.248-7.071l-22.412 6.005v-19.295l13.588-3.641c5.335-1.429 8.501-6.913 7.071-12.248s-6.912-8.503-12.247-7.071l-8.412 2.254v-19.294zM288.502 364.614c.528 13.268 19.477 13.258 20 0v-52.617l9.854 11.692a9.99 9.99 0 0 0 8.517 3.518 10 10 0 0 0 7.778-4.941l8.852-15.248v42.858c.528 13.268 19.477 13.258 20 0v-80a10 10 0 0 0-18.648-5.021l-20.364 35.078-18.342-21.764a10 10 0 0 0-17.647 6.444z"/><path d="m473.195 119.52 37.945-85.374a9.999 9.999 0 0 0-11.726-13.721l-408 109.324a10 10 0 0 0-7.412 9.659v152.327l-76.59 20.523a9.998 9.998 0 0 0-6.094 14.621l37.489 65.604L.862 477.855a10 10 0 0 0 11.726 13.721L420.59 382.252a10 10 0 0 0 7.412-9.659V220.266l76.589-20.522a9.998 9.998 0 0 0 6.094-14.621zM296.89 234.692c-5.334 1.429-8.5 6.913-7.071 12.248s6.916 8.503 12.248 7.071l105.934-28.385V364.92L27.647 466.835l31.493-70.857a10 10 0 0 0-.456-9.023l-33.565-58.736 190-50.91c5.334-1.429 8.5-6.913 7.071-12.248s-6.914-8.501-12.248-7.071l-105.94 28.387V147.082L484.356 45.166l-31.494 70.858a10 10 0 0 0 .456 9.023l33.565 58.736z"/><path d="M266.009 256.001c0-5.523-4.477-10-10-10h-.007c-5.523 0-9.996 4.477-9.996 10 .527 13.263 19.478 13.262 20.003 0"/></svg>