<svg xmlns="http://www.w3.org/2000/svg" width="512" height="512" viewBox="0 0 512.001 512.001"><g fill-rule="evenodd" clip-rule="evenodd"><path fill="#ffc144" d="M95.891 336.012h406.11l-50.999-79.999 50.999-80H10l50.999 80L10 336.012h44.48z"/><path fill="#9de3d1" d="M95.891 176.013H416.11l3.943-14.716-54.684-14.653-14.653-54.684-54.684 14.653-40.031-40.032-40.032 40.032-54.684-14.653-14.653 54.684-54.684 14.653z"/><path fill="#5cd0b3" d="m146.632 146.644 14.653-54.684 54.684 14.653 40.032-40.032 40.031 40.032 54.684-14.653 14.653 54.684 54.684 14.653-3.943 14.716h41.411l11.522-43.001-71.014-19.028-19.028-71.014-71.014 19.028-51.986-51.986-51.986 51.986-71.014-19.028-19.029 71.014-71.014 19.028 11.522 43.001h41.411l-3.943-14.716z"/><path fill="#9de3d1" d="M416.11 336.012H95.891l-3.943 14.716 54.684 14.653 14.653 54.684 54.684-14.652 40.032 40.031 40.031-40.031 54.684 14.652 14.653-54.684 54.684-14.653z"/><path fill="#5cd0b3" d="m161.285 420.065-14.653-54.684-54.684-14.653 3.943-14.716H54.48l-11.522 43.001 71.014 19.028 19.029 71.014 71.014-19.028 51.986 51.986 51.986-51.986 71.014 19.028 19.028-71.014 71.014-19.028-11.522-43.001H416.11l3.943 14.716-54.684 14.653-14.653 54.684-54.684-14.652-40.031 40.031-40.032-40.031z"/></g><path d="m462.861 256.012 47.572-74.625A9.999 9.999 0 0 0 502 166.012h-31.448l8.149-30.412c1.493-5.162-1.854-10.959-7.071-12.248l-65.437-17.534-17.533-65.436c-1.43-5.334-6.915-8.502-12.247-7.071l-65.438 17.533-47.904-47.903c-3.904-3.905-10.237-3.905-14.142 0l-47.903 47.903-65.438-17.533c-5.332-1.431-10.818 1.736-12.247 7.071l-17.534 65.437-65.437 17.534c-5.216 1.288-8.564 7.086-7.071 12.248l8.149 30.412H10a10.001 10.001 0 0 0-8.432 15.375l47.572 74.625-47.572 74.624A9.999 9.999 0 0 0 10 346.012h31.448l-8.149 30.412c-1.493 5.162 1.855 10.96 7.071 12.248l65.437 17.534 17.534 65.438c1.43 5.334 6.912 8.5 12.248 7.071l65.437-17.534 47.903 47.904c3.724 3.874 10.419 3.874 14.142 0l47.903-47.904 65.438 17.534c5.337 1.43 10.817-1.737 12.247-7.071l17.534-65.438 65.437-17.534c5.217-1.288 8.564-7.086 7.071-12.248l-8.149-30.412H502a10 10 0 0 0 8.433-15.375zM55.206 140.084l61.355-16.44a10 10 0 0 0 7.071-7.071l16.44-61.354 61.354 16.439a10 10 0 0 0 9.66-2.588l44.915-44.915 44.915 44.915a10 10 0 0 0 9.659 2.588l61.355-16.439 16.44 61.354a10 10 0 0 0 7.071 7.071l61.354 16.44-6.948 25.929h-20.706l.57-2.127c1.493-5.162-1.854-10.959-7.071-12.248l-49.106-13.158-13.158-49.107c-1.43-5.334-6.914-8.5-12.247-7.071L299.021 95.46l-35.949-35.949c-3.904-3.905-10.237-3.905-14.142 0l-35.95 35.948-49.107-13.158c-5.337-1.432-10.818 1.736-12.248 7.071l-13.158 49.107-49.107 13.158c-5.216 1.288-8.564 7.086-7.071 12.248l.57 2.127H62.153zm401.589 231.858-61.354 16.44a10 10 0 0 0-7.071 7.071l-16.44 61.355-61.355-16.44a9.99 9.99 0 0 0-9.659 2.588l-44.915 44.916-44.915-44.916a10 10 0 0 0-9.66-2.588l-61.354 16.44-16.44-61.355a10 10 0 0 0-7.071-7.071l-61.355-16.44 6.948-25.929H82.86l-.57 2.127c-1.493 5.162 1.855 10.959 7.071 12.248l49.107 13.158 13.158 49.108a10 10 0 0 0 12.247 7.071l49.107-13.158 35.949 35.95c3.905 3.905 10.237 3.905 14.142 0l35.949-35.95 49.108 13.158c5.337 1.432 10.817-1.737 12.247-7.071l13.158-49.108 49.106-13.158c5.217-1.288 8.564-7.086 7.071-12.248l-.57-2.127h20.706zm-343.808-25.93h286.029l-36.234 9.709a10 10 0 0 0-7.071 7.071l-12.064 45.025-45.025-12.064a10 10 0 0 0-9.659 2.588l-32.96 32.961-32.96-32.961a10 10 0 0 0-9.66-2.588l-45.024 12.064-12.064-45.025a10 10 0 0 0-7.071-7.071zm-84.753-20 41.198-64.625a10 10 0 0 0 0-10.751l-41.198-64.625h182.763c13.268-.528 13.258-19.477 0-20h-98.011l36.234-9.709a10 10 0 0 0 7.071-7.071l12.064-45.025 45.024 12.064a10 10 0 0 0 9.66-2.588l32.96-32.961 32.96 32.961a10 10 0 0 0 9.659 2.588l45.025-12.064 12.064 45.025a10 10 0 0 0 7.071 7.071l36.234 9.709h-98.018c-13.268.529-13.258 19.476 0 20h182.77l-41.197 64.625a10 10 0 0 0 0 10.751l41.197 64.625z"/><path d="M256.001 166.012h-.007c-5.523 0-9.996 4.477-9.996 10 .528 13.263 19.479 13.263 20.003 0-.001-5.523-4.478-10-10-10M158.144 248.976l-10.635-4.405c-2.361-.978-4.208-2.836-5.2-5.231-.993-2.396-1-5.016-.021-7.378.978-2.361 2.835-4.208 5.231-5.2 2.396-.991 5.017-1 7.377-.022l5.317 2.202c5.104 2.114 10.953-.31 13.065-5.412s-.31-10.952-5.412-13.065l-5.317-2.203c-7.297-3.022-15.353-3.015-22.684.022s-13.034 8.728-16.056 16.025c-6.389 14.552 1.239 32.968 16.046 38.741l10.634 4.404c4.916 2.036 7.258 7.692 5.222 12.609-.978 2.362-2.836 4.208-5.231 5.201s-5.016 1-7.377.022l-5.317-2.202c-5.104-2.115-10.953.309-13.065 5.412-2.114 5.103.31 10.952 5.412 13.065l5.317 2.202a29.5 29.5 0 0 0 11.301 2.261c3.852 0 7.708-.761 11.383-2.283 7.332-3.037 13.034-8.729 16.056-16.026 6.256-15.104-.942-32.482-16.046-38.739M220.44 206.012c-16.542 0-30 13.458-30 30v60c.528 13.268 19.477 13.258 20 0v-20.001h20v20.001c.528 13.268 19.477 13.258 20 0v-60c0-16.542-13.458-30-30-30m-10 49.999v-19.999c.551-13.27 19.454-13.259 20 0v19.999zM310.44 286.012h-25v-70c-.528-13.268-19.476-13.258-20 0v80c0 5.523 4.478 10 10 10h35c13.269-.528 13.258-19.476 0-20M380.441 226.012c13.268-.529 13.258-19.476 0-20h-35c-5.522 0-10 4.477-10 10v80c0 5.523 4.478 10 10 10h35c13.268-.529 13.258-19.476 0-20h-25v-20h11c13.268-.529 13.258-19.476 0-20h-11v-20z"/></svg>