<svg xmlns="http://www.w3.org/2000/svg" width="512" height="512" viewBox="0 0 511.999 511.999"><g fill-rule="evenodd" clip-rule="evenodd"><path fill="#ffc144" d="M266 209.986c11.046 0 20-8.954 20-20v-100c0-11.046-8.954-20-20-20h-20c-11.046 0-20 8.954-20 20s8.954 20 20 20v80c0 11.045 8.954 20 20 20"/><path fill="#ffda8f" d="M286 89.985v100c0 11.046-8.954 20-20 20s-20-8.954-20-20v-80c-11.046 0-20-8.954-20-20s8.954-20 20-20h20c11.046 0 20 8.955 20 20m.872-65.075-21.811-12.438c-5.298-3.138-12.084-3.428-17.823-.171L225.129 24.91l-23.815.127c-6.604-.53-13.242 2.665-16.805 8.77l-12.795 21.892-21.892 12.795c-5.432 3.178-8.737 9.016-8.762 15.299l-.134 25.32-12.438 21.812c-3.138 5.299-3.428 12.084-.171 17.823l12.609 22.109.127 23.815c-.53 6.604 2.665 13.242 8.77 16.805l21.892 12.795 12.795 21.892c3.064 5.238 8.791 8.736 15.299 8.762l25.32.134 21.811 12.438c5.298 3.138 12.084 3.428 17.823.17l22.11-12.609 23.815-.127c6.604.53 13.241-2.665 16.805-8.77l12.795-21.892 21.892-12.796c5.238-3.064 8.736-8.791 8.762-15.299l.134-25.32 12.438-21.811c3.138-5.298 3.428-12.084.17-17.823l-12.609-22.11-.127-23.815c.53-6.604-2.665-13.241-8.77-16.805l-21.892-12.795-12.795-21.892c-3.064-5.238-8.791-8.736-15.299-8.762z"/></g><path d="M151.058 291.986h-20c-5.522 0-10 4.477-10 10v80c0 5.523 4.478 10 10 10h20c25.838.09 39.541-31.084 22.343-50 17.205-18.924 3.482-50.094-22.343-50m0 80h-10v-20h10c13.27.551 13.259 19.454 0 20m0-40h-10v-20h10c13.269.551 13.26 19.454 0 20M241.058 311.986c13.268-.529 13.258-19.476 0-20h-35c-5.522 0-10 4.477-10 10v80c0 5.523 4.478 10 10 10h35c13.268-.529 13.258-19.476 0-20h-25v-20h11c13.268-.529 13.258-19.476 0-20h-11v-20zM302.644 334.948l-10.634-4.404c-4.916-2.036-7.258-7.692-5.222-12.609s7.695-7.258 12.608-5.223l5.316 2.202a10 10 0 0 0 13.066-5.412c2.113-5.102-.31-10.952-5.412-13.065l-5.317-2.203c-15.109-6.256-32.484.945-38.74 16.048-6.256 15.105.942 32.483 16.047 38.74l10.634 4.404c4.916 2.036 7.258 7.693 5.222 12.61-.978 2.361-2.835 4.208-5.23 5.2-2.396.993-5.014 1-7.378.021l-5.317-2.202c-5.099-2.11-10.952.31-13.065 5.413s.311 10.952 5.413 13.065l5.317 2.202c7.311 3.028 15.367 3.009 22.684-.022 7.332-3.037 13.034-8.729 16.056-16.025 6.255-15.103-.944-32.482-16.048-38.74M380.942 291.986h-35c-13.268.529-13.258 19.476 0 20h7.5v70c.528 13.268 19.476 13.258 20 0v-70h7.5c13.268-.528 13.258-19.476 0-20M88.142 454.95l-10.635-4.404c-4.916-2.036-7.259-7.693-5.222-12.609.978-2.361 2.836-4.208 5.231-5.201 2.397-.993 5.017-1 7.377-.022l5.316 2.202c5.104 2.115 10.952-.31 13.066-5.412 2.113-5.102-.31-10.952-5.412-13.065l-5.317-2.202c-7.298-3.023-15.354-3.015-22.684.022-24.288 9.923-24.24 44.79-.01 54.766l10.635 4.404c4.916 2.036 7.258 7.693 5.222 12.609-.978 2.361-2.836 4.208-5.231 5.201s-5.016 1-7.377.022l-5.316-2.202c-5.104-2.112-10.952.31-13.066 5.412-2.113 5.102.31 10.952 5.412 13.065l5.317 2.202c7.311 3.028 15.367 3.009 22.684-.022 24.288-9.924 24.24-44.79.01-54.766M235.438 491.987h-25v-70c-.528-13.268-19.476-13.258-20 0v80c0 5.523 4.478 10 10 10h35c13.268-.528 13.258-19.476 0-20M165.438 431.987c13.268-.529 13.258-19.476 0-20h-35c-5.522 0-10 4.477-10 10v80c0 5.523 4.478 10 10 10h35c13.268-.529 13.258-19.476 0-20h-25v-20h11c13.268-.529 13.258-19.476 0-20h-11v-20zM305.439 491.987h-25v-70c-.529-13.268-19.476-13.258-20 0v80c0 5.523 4.478 10 10 10h35c13.268-.528 13.258-19.476 0-20M375.44 431.987c13.268-.529 13.258-19.476 0-20h-35c-5.522 0-10 4.477-10 10v80c0 5.523 4.478 10 10 10h35c13.268-.529 13.258-19.476 0-20h-25v-20h11c13.268-.529 13.258-19.476 0-20h-11v-20zM444.791 468.327c26.911-14.916 16.833-55.972-14.35-56.34h-20c-5.522 0-10 4.477-10 10v80c.528 13.268 19.476 13.258 20 0v-30h3.82l17.236 34.472c6.43 11.662 23.359 3.09 17.889-8.944zm-24.35-36.34h10c13.203.541 13.29 19.319.112 19.999a11 11 0 0 0-.316.001h-9.796zM392.371 126.27l-11.309-19.832-.111-20.814c.654-10.421-4.697-20.494-13.727-25.764l-19.627-11.471-11.474-19.631c-4.926-8.42-14.081-13.674-23.878-13.713l-22.698-.12L270.076 3.82a27.84 27.84 0 0 0-27.792-.205l-19.831 11.31-20.813.11c-10.411-.659-20.494 4.697-25.765 13.727l-11.472 19.627-19.63 11.473c-8.421 4.925-13.676 14.08-13.714 23.878l-.12 22.697-11.104 19.473c-5.015 8.534-5.1 19.166-.205 27.791l11.31 19.831.11 20.814c-.654 10.422 4.698 20.496 13.727 25.764l19.627 11.471 11.474 19.632c4.926 8.419 14.08 13.673 23.878 13.712l22.697.121 19.467 11.101a27.76 27.76 0 0 0 14.078 3.823c4.732 0 9.47-1.203 13.72-3.614l19.831-11.31 20.813-.111c10.41.656 20.495-4.698 25.765-13.726l11.472-19.627 19.63-11.474c8.419-4.924 13.674-14.079 13.714-23.877l.121-22.698 11.104-19.472c5.012-8.533 5.097-19.167.203-27.791m-17.462 17.681q-.042.07-.082.142l-12.438 21.811a10 10 0 0 0-1.313 4.9l-.135 25.333c-.011 2.769-1.472 5.339-3.809 6.706l-21.892 12.795a10 10 0 0 0-3.588 3.587l-12.798 21.896c-1.525 2.613-4.352 4.082-7.369 3.843a11 11 0 0 0-.854-.032l-23.814.127a10 10 0 0 0-4.9 1.313l-22.091 12.598a7.79 7.79 0 0 1-7.792-.077l-.142-.083-21.812-12.438a10 10 0 0 0-4.9-1.313l-25.334-.135c-2.769-.011-5.338-1.472-6.705-3.808l-12.795-21.892a10 10 0 0 0-3.588-3.587l-21.897-12.799a7.75 7.75 0 0 1-3.843-7.369q.034-.425.032-.852l-.126-23.815a10 10 0 0 0-1.313-4.901l-12.599-22.091a7.79 7.79 0 0 1 .078-7.792q.042-.07.082-.142l12.438-21.812a10 10 0 0 0 1.313-4.901l.134-25.333c.011-2.768 1.471-5.337 3.809-6.705l21.892-12.795a10 10 0 0 0 3.588-3.587l12.798-21.896a7.76 7.76 0 0 1 7.369-3.844c.283.023.566.029.853.032l23.814-.126a10 10 0 0 0 4.901-1.313l22.091-12.599a7.79 7.79 0 0 1 7.793.078q.07.042.141.082l21.811 12.438a10 10 0 0 0 4.901 1.313l25.335.134c2.768.011 5.337 1.471 6.704 3.808l12.795 21.892a10 10 0 0 0 3.588 3.588l21.896 12.798a7.75 7.75 0 0 1 3.844 7.368 10 10 0 0 0-.032.854l.127 23.815a10 10 0 0 0 1.313 4.9l12.598 22.092a7.79 7.79 0 0 1-.077 7.794M85.998 149.986c13.268-.529 13.258-19.476 0-20H58.497c-13.268.529-13.258 19.476 0 20zM103.775 216.326l-23.816 13.75c-4.783 2.761-6.422 8.877-3.66 13.66 2.777 4.827 8.962 6.397 13.66 3.66l23.816-13.75c4.783-2.761 6.422-8.877 3.66-13.66s-8.876-6.422-13.66-3.66M427.032 248.739a10 10 0 0 0 8.67-5.002c2.762-4.783 1.123-10.899-3.66-13.66l-23.816-13.75c-4.785-2.763-10.899-1.122-13.66 3.66-2.762 4.783-1.123 10.899 3.66 13.66l23.816 13.75a9.95 9.95 0 0 0 4.99 1.342M453.501 129.986H426c-13.268.529-13.258 19.476 0 20h27.501c13.268-.529 13.258-19.477 0-20M403.235 64.987a9.95 9.95 0 0 0 4.99-1.342l23.816-13.75c4.783-2.761 6.422-8.877 3.66-13.66s-8.877-6.422-13.66-3.66l-23.816 13.75c-4.783 2.761-6.422 8.877-3.66 13.66a10 10 0 0 0 8.67 5.002M79.958 49.895l23.816 13.75c4.698 2.737 10.884 1.166 13.66-3.66 2.762-4.783 1.123-10.899-3.66-13.66l-23.816-13.75c-4.785-2.763-10.9-1.123-13.66 3.66-2.761 4.782-1.123 10.899 3.66 13.66"/><path d="M266 59.985h-20c-33.833.644-41.305 46.707-10 58.287v71.713c1.653 39.809 58.362 39.778 60 0v-5.003c-.529-13.268-19.476-13.258-20 0v5.003c-.551 13.27-19.454 13.259-20 0v-80c0-5.523-4.478-10-10-10-5.515 0-10.001-4.486-10.001-10s4.486-10 10.001-10h20c5.514 0 10 4.486 10 10v4.997c.528 13.268 19.476 13.258 20 0v-4.997c0-16.542-13.458-30-30-30"/><path d="M286 129.982c-5.522 0-10 4.48-10 10.003.527 13.265 19.475 13.26 20 0v-.007c0-5.523-4.477-9.996-10-9.996"/></svg>