<svg xmlns="http://www.w3.org/2000/svg" width="512" height="512" viewBox="0 0 512.002 512.002"><g fill-rule="evenodd" clip-rule="evenodd"><path fill="#cbe558" d="M310.447 215.652c-7.809-7.809-20.472-7.809-28.281 0l-39.599 39.599-12.729-12.729c-7.809-7.809-20.472-7.809-28.281 0s-7.809 20.472 0 28.281l26.87 26.87c7.809 7.809 20.472 7.809 28.281 0l53.74-53.74c7.808-7.809 7.808-20.472-.001-28.281"/><path fill="#e0ef9b" d="M256.707 297.673c-7.809 7.809-20.472 7.809-28.281 0l-26.87-26.87c-7.809-7.81-7.809-20.472 0-28.281s20.472-7.809 28.281 0l12.729 12.729 39.599-39.599c7.809-7.809 20.472-7.809 28.281 0s7.809 20.472 0 28.281zm-.706-151.01c-60.751 0-110 49.249-110 110 5.794 145.913 214.228 145.871 220-.001 0-60.751-49.249-109.999-110-109.999"/><path fill="#cff5fd" d="M146.001 256.663c0-60.751 49.249-110 110-110 145.913 5.794 145.871 214.228-.001 220-60.75 0-109.999-49.249-109.999-110m316 0c0-113.77-92.229-206-206-206-273.255 10.851-273.177 401.19.002 412 113.769 0 205.998-92.23 205.998-206"/><path fill="#66e0f7" d="M50.001 256.663c0-113.77 92.229-206 206-206 273.255 10.851 273.177 401.19-.002 412-113.768 0-205.998-92.23-205.998-206m452.001 0c0-135.863-110.138-246.001-246.001-246.001-326.315 12.957-326.222 479.094.002 492.002 135.861-.001 245.999-110.139 245.999-246.001"/></g><path d="M408.736 103.928C316.595 8.44 150.53 24.256 77.538 134.961c-3.115 4.56-1.944 10.783 2.615 13.898s10.782 1.945 13.898-2.616a197 197 0 0 1 15.194-19.494c19.093 17.661 41.434 31.845 65.537 41.65-21.529 19.826-35.812 47.407-38.37 78.263H60.257a198 198 0 0 1 2.255-21.375c.878-5.453-2.831-10.584-8.284-11.462-5.448-.873-10.584 2.831-11.462 8.284-22.461 129.219 82.049 252.184 213.237 250.552 191.718-.177 288.175-233.049 152.733-368.733m-6.042 282.59c-19.079-17.634-41.399-31.797-65.476-41.592 21.53-19.826 35.813-47.407 38.37-78.264h76.161c-2.315 45.845-20.456 87.585-49.055 119.856M60.253 266.663h76.161c2.557 30.857 16.841 58.438 38.37 78.264-24.077 9.794-46.397 23.958-65.476 41.592-28.599-32.271-46.74-74.012-49.055-119.856m123.824 96.084c7.895 38.165 19.622 67.615 33.871 86.208-36.055-7.122-68.589-24.163-94.629-48.152 17.687-16.248 38.414-29.221 60.758-38.056m21.027 2.579c30.519 14.987 71.274 14.987 101.794 0-5.472 24.179-12.696 44.651-21.198 59.912-19.543 34.962-39.856 34.96-59.398 0-8.502-15.262-15.726-35.733-21.198-59.912m122.821-2.579c22.344 8.835 43.071 21.808 60.757 38.056-26.04 23.989-58.573 41.03-94.628 48.152 14.248-18.593 25.975-48.043 33.871-86.208m47.663-116.084c-2.557-30.856-16.84-58.437-38.37-78.263 24.077-9.794 46.397-23.958 65.476-41.592 28.599 32.271 46.74 74.011 49.055 119.855zM226.302 88.088c19.543-34.963 39.856-34.96 59.398 0 8.501 15.261 15.726 35.733 21.198 59.912-30.519-14.987-71.274-14.987-101.793 0 5.471-24.179 12.696-44.651 21.197-59.912m-42.225 62.491c-22.37-8.846-43.119-21.839-60.819-38.113a196.03 196.03 0 0 1 94.675-48.075c-14.242 18.593-25.963 48.036-33.856 86.188m109.976-86.208c36.055 7.122 68.588 24.163 94.628 48.152-17.686 16.248-38.413 29.221-60.757 38.057-7.895-38.166-19.622-67.617-33.871-86.209m-38.052 92.292c55.141 0 100 44.86 100 100-5.493 132.664-194.527 132.625-200-.001 0-55.14 44.859-99.999 100-99.999"/><path d="M256.001.662C114.842.662 0 115.503 0 256.663c14.062 339.62 497.991 339.521 512.002-.002C512.002 115.503 397.16.662 256.001.662m0 492.002C125.87 492.664 20 386.794 20 256.663c12.964-313.087 459.086-312.996 472.002.002 0 130.129-105.87 235.999-236.001 235.999"/><path d="M221.354 304.744c11.165 11.638 31.258 11.637 42.424 0l53.739-53.74c11.637-11.165 11.637-31.258 0-42.423-11.165-11.638-31.258-11.637-42.424 0l-32.527 32.528-5.658-5.659c-11.697-11.695-30.727-11.695-42.424 0-11.637 11.166-11.637 31.259 0 42.424zm-12.727-55.151c3.898-3.898 10.241-3.898 14.139 0l12.729 12.729c3.724 3.873 10.419 3.873 14.143 0l39.599-39.6c3.721-3.879 10.419-3.878 14.139 0 3.879 3.721 3.879 10.418 0 14.139l-53.739 53.74c-3.72 3.879-10.419 3.878-14.139 0l-26.87-26.87c-3.88-3.72-3.88-10.417-.001-14.138M64.614 190.311c13.268-.529 13.258-19.476 0-20h-.008c-13.268.53-13.249 19.478.008 20"/></svg>