<svg xmlns="http://www.w3.org/2000/svg" width="512" height="512" viewBox="0 0 511.982 511.982"><g fill-rule="evenodd" clip-rule="evenodd"><path fill="#ffc144" d="M110.991 209.98c0-80.081 64.918-145 145-145 192.339 7.637 192.285 282.391-.001 290-80.081-.001-144.999-64.919-144.999-145M303.486 32.941 269.93 13.805c-8.152-4.827-18.59-5.274-27.42-.262l-34.014 19.398-36.639.194c-10.16-.815-20.372 4.101-25.854 13.492l-19.684 33.679-33.68 19.685c-8.357 4.889-13.442 13.87-13.48 23.536l-.207 38.954-19.136 33.559c-4.827 8.152-5.274 18.59-.262 27.42l19.398 34.014.194 36.639c-.815 10.16 4.101 20.372 13.492 25.854l33.679 19.684 19.685 33.68c4.714 8.059 13.524 13.44 23.536 13.48l6.451.034 32.504.173 33.556 19.136c8.151 4.827 18.59 5.274 27.42.262l34.015-19.398 32.506-.173 4.133-.022c10.16.815 20.372-4.101 25.854-13.492l19.684-33.679 33.68-19.685c8.059-4.714 13.44-13.524 13.48-23.536l.207-38.954 19.136-33.556c4.827-8.151 5.274-18.59.262-27.42l-19.398-34.015-.195-36.639c.815-10.16-4.101-20.372-13.492-25.854l-33.679-19.684-19.686-33.68c-4.714-8.059-13.524-13.441-23.536-13.48z"/><path fill="#ff5d7d" d="m208.494 387.018-32.504-.173v115.136l80-33.37 80 33.37V386.845l-32.506.173-34.015 19.398c-8.83 5.011-19.269 4.565-27.42-.262z"/><path fill="#5cd0b3" d="M178.49 276.479h44.799V173.254H178.49z"/><path fill="#ffdcd5" d="M223.289 173.254v103.225h95.371c10.907 0 19.829-9 19.829-20v-63.225c0-11-8.923-20-19.829-20h-47.056l-12.801-43.871c-1.987-6.808-8.481-12.903-15.52-12.903h-19.995z"/><path fill="#ffda8f" d="M318.661 276.479h-140.17V173.254h44.799v-56.775h19.995c7.039 0 13.533 6.095 15.52 12.903l12.801 43.871h47.056c10.907 0 19.829 9 19.829 20v63.225c-.001 11.001-8.924 20.001-19.83 20.001m82.329-66.499c0-80.081-64.918-145-145-145-192.339 7.637-192.285 282.391.001 290 80.081-.001 144.999-64.919 144.999-145"/></g><path d="m461.114 191.547-18.099-31.737-.179-33.623c.953-14.078-6.253-27.709-18.448-34.828l-31.416-18.36-18.363-31.42c-6.62-11.317-18.932-18.379-32.115-18.43l-36.333-.193-31.21-17.799c-11.48-6.763-25.794-6.885-37.394-.3L205.82 22.955l-33.623.179c-14.076-.948-27.71 6.254-34.828 18.448l-18.361 31.416-31.42 18.364c-11.317 6.62-18.379 18.932-18.43 32.115l-.193 36.332-17.799 31.213c-6.762 11.481-6.882 25.794-.299 37.393l18.099 31.736.179 33.623c-.953 14.078 6.253 27.71 18.448 34.828l31.416 18.361 18.363 31.419c6.03 10.309 16.784 17.087 28.619 18.252v105.349a10 10 0 0 0 13.85 9.23l76.15-31.764 76.15 31.764a10.002 10.002 0 0 0 13.85-9.23V396.724c11.772-1.186 22.558-7.957 28.621-18.346l18.361-31.416 31.42-18.364c11.316-6.62 18.378-18.931 18.43-32.115l.193-36.331 17.797-31.209c6.764-11.483 6.886-25.797.301-37.396M259.84 459.382a10 10 0 0 0-7.699 0l-66.15 27.593v-90.076l19.829.105 31.214 17.801c11.487 6.765 25.8 6.877 37.391.298l31.737-18.099 19.83-.105v90.076zm183.721-240.558-.083.142-19.135 33.556a10 10 0 0 0-1.313 4.9l-.208 38.967c-.024 6.155-3.292 11.881-8.525 14.942l-33.681 19.686a10 10 0 0 0-3.588 3.587l-19.688 33.685c-3.347 5.735-9.785 9.106-16.418 8.565a9 9 0 0 0-.853-.032l-36.638.195a10 10 0 0 0-4.9 1.313l-33.998 19.388a17.38 17.38 0 0 1-17.53-.252l-33.556-19.136a10 10 0 0 0-4.9-1.313l-38.968-.207c-6.155-.024-11.881-3.292-14.942-8.526l-19.686-33.68a10 10 0 0 0-3.587-3.588L97.68 311.329c-5.735-3.347-9.097-9.791-8.565-16.417q.035-.426.032-.853l-.195-36.639a10 10 0 0 0-1.313-4.901l-19.387-33.997c-3.057-5.386-2.992-12.048.17-17.388l.083-.142 19.135-33.556a10 10 0 0 0 1.313-4.9l.208-38.969c.023-6.154 3.292-11.88 8.525-14.942l33.681-19.685a10 10 0 0 0 3.588-3.588l19.688-33.685c3.337-5.741 9.843-9.105 16.418-8.565.283.023.564.03.853.032l36.638-.195a10 10 0 0 0 4.9-1.313l33.997-19.388c5.386-3.057 12.048-2.992 17.388.17l.142.083 33.555 19.135a10 10 0 0 0 4.9 1.313l38.97.208c6.154.023 11.88 3.292 14.941 8.525l19.686 33.681a10 10 0 0 0 3.587 3.588l33.685 19.687c5.735 3.348 9.097 9.792 8.565 16.418a10 10 0 0 0-.032.853l.195 36.639a10 10 0 0 0 1.313 4.9l19.388 33.998a17.38 17.38 0 0 1-.171 17.388"/><path d="M255.991 54.98C130.179 53.917 55.628 201.834 131.349 302.125c19.462 26.28 46.126 45.443 77.11 55.417 5.255 1.69 10.891-1.197 12.583-6.455 1.692-5.257-1.198-10.891-6.455-12.583C69.349 289.157 102.621 77.696 255.992 74.98c153.398 2.74 186.625 214.195 41.394 263.525-5.256 1.692-8.146 7.325-6.454 12.582 1.68 5.306 7.467 8.146 12.583 6.456 166.822-57.965 129.24-298.299-47.524-302.563"/><path d="M348.49 256.479v-63.225c0-16.542-13.381-30-29.83-30h-39.556l-10.7-36.672c-3.398-11.648-13.963-20.103-25.12-20.103h-19.995c-5.523 0-10 4.477-10 10v46.774H178.49c-5.523 0-10 4.477-10 10v103.226a10 10 0 0 0 10 10l140.17-.001c16.449 0 29.83-13.457 29.83-29.999m-135.201 10H188.49v-83.226h24.799zm20-140h9.995c1.928 0 4.999 2.544 5.92 5.704l12.8 43.871a10 10 0 0 0 9.6 7.199h47.056c5.42 0 9.83 4.486 9.83 10v63.225c0 5.514-4.41 9.999-9.83 9.999h-85.371zM255.991 344.979h-.007c-5.523 0-9.996 4.477-9.996 10 .528 13.263 19.479 13.263 20.003 0 0-5.523-4.477-10-10-10"/></svg>