<svg xmlns="http://www.w3.org/2000/svg" width="512" height="512" viewBox="0 0 512.01 512.01"><g fill-rule="evenodd" clip-rule="evenodd"><path fill="#ff5d7d" d="M352.404 262.262c51.894-89.883-43.535-149.615-96.399-96.752-52.864-52.864-148.293 6.869-96.399 96.752 23.883 41.367 72.053 79.294 96.399 85.818 24.346-6.524 72.516-44.451 96.399-85.818"/><path fill="#cff5fd" d="M256.005 165.51c52.864-52.864 148.293 6.869 96.399 96.752-23.883 41.367-72.053 79.294-96.399 85.818-24.346-6.524-72.516-44.45-96.399-85.818-51.894-89.883 43.535-149.615 96.399-96.752m42.257-86.345c-15.041-38.006-69.487-37.983-84.513 0-32.029-25.394-79.17 1.849-73.191 42.257-40.435-5.977-67.638 41.186-42.257 73.191-38.006 15.041-37.983 69.488 0 84.513-25.393 32.029 1.849 79.17 42.257 73.191-5.977 40.435 41.186 67.638 73.191 42.257 15.041 38.006 69.487 37.983 84.513 0 32.03 25.393 79.17-1.849 73.191-42.257 40.435 5.977 67.638-41.186 42.257-73.191 38.006-15.041 37.983-69.488 0-84.513 25.393-32.029-1.849-79.17-42.257-73.191 5.977-40.435-41.186-67.638-73.191-42.257"/><path fill="#66e0f7" d="M298.262 79.165c32.029-25.394 79.17 1.849 73.191 42.257 40.435-5.977 67.638 41.186 42.257 73.191 38.006 15.041 37.983 69.488 0 84.513 25.393 32.029-1.849 79.17-42.257 73.191 5.977 40.435-41.186 67.638-73.191 42.257-15.041 38.006-69.487 37.983-84.513 0-32.029 25.393-79.17-1.849-73.191-42.257-40.435 5.977-67.638-41.186-42.257-73.191-38.006-15.041-37.983-69.488 0-84.513-25.393-32.029 1.849-79.17 42.257-73.191-5.977-40.435 41.186-67.638 73.191-42.257 15.04-38.006 69.487-37.983 84.513 0M45.134 463.74h164.664l32.681 32.681c7.441 7.44 19.614 7.44 27.054.001l32.682-32.681h164.661c10.521 0 19.13-8.608 19.13-19.129V29.129c0-10.522-8.643-19.129-19.13-19.129H45.134c-10.486 0-19.129 8.643-19.129 19.129v415.482c0 10.495 8.608 19.129 19.129 19.129"/></g><path d="M466.876 0H45.134C29.072 0 16.005 13.067 16.005 29.129v415.482c0 16.062 13.067 29.129 29.129 29.129h160.521l29.752 29.752c5.68 5.679 13.138 8.519 20.599 8.518 7.458 0 14.919-2.839 20.598-8.517l29.753-29.753h160.519c16.062 0 29.13-13.067 29.13-29.129V29.129C496.006 13.067 482.938 0 466.876 0m9.13 444.611c0 5.034-4.096 9.129-9.13 9.129H302.215a10 10 0 0 0-7.071 2.929l-32.682 32.682c-3.558 3.559-9.352 3.56-12.912 0l-32.681-32.681a10 10 0 0 0-7.071-2.929H45.134c-4.949 0-9.129-4.181-9.129-9.129V29.129c0-4.949 4.181-9.129 9.129-9.129h421.742c4.949 0 9.13 4.181 9.13 9.129z"/><path d="M427.877 190.817c8.073-16.375 7.621-35.812-1.804-52.136s-26.032-26.435-44.249-27.63c-1.197-18.216-11.308-34.825-27.63-44.249-16.325-9.425-35.761-9.876-52.137-1.804-21.039-32.483-71.072-32.47-92.105 0-16.375-8.071-35.814-7.62-52.136 1.804-16.324 9.425-26.434 26.032-27.63 44.249-18.216 1.197-34.825 11.307-44.249 27.63-9.425 16.324-9.877 35.761-1.805 52.136-32.482 21.039-32.472 71.076 0 92.106-8.072 16.375-7.62 35.812 1.805 52.136 9.424 16.324 26.031 26.434 44.249 27.63 1.196 18.217 11.307 34.824 27.63 44.249 16.323 9.424 35.761 9.876 52.136 1.804 21.04 32.483 71.072 32.47 92.105 0 16.375 8.071 35.814 7.62 52.137-1.805 16.323-9.424 26.434-26.031 27.63-44.249 18.216-1.198 34.825-11.308 44.249-27.63 9.425-16.324 9.877-35.761 1.804-52.136 32.481-21.041 32.472-71.07 0-92.105m-17.862 79.017c-6.096 2.237-8.312 10.508-4.151 15.493 9.066 11.473 10.2 27.068 2.889 39.731-7.312 12.664-21.38 19.481-35.854 17.365a10.002 10.002 0 0 0-11.341 11.342c2.115 14.468-4.7 28.541-17.364 35.853-12.664 7.311-28.261 6.178-39.732-2.888a9.998 9.998 0 0 0-15.493 4.152c-11.601 29.658-54.331 29.65-65.927 0a9.998 9.998 0 0 0-15.493-4.152c-24.885 19.882-61.875-1.487-57.096-32.964a10 10 0 0 0-11.342-11.342c-31.489 4.782-52.842-32.227-32.965-57.096 4.161-4.985 1.944-13.256-4.151-15.493-29.661-11.606-29.649-54.33 0-65.928a9.998 9.998 0 0 0 4.152-15.493c-9.066-11.473-10.2-27.068-2.888-39.732 7.312-12.665 21.385-19.479 35.852-17.365a10 10 0 0 0 11.342-11.341c-2.116-14.468 4.7-28.541 17.364-35.853 12.664-7.311 28.26-6.178 39.732 2.889 4.986 4.16 13.256 1.944 15.493-4.152 11.609-29.661 54.327-29.65 65.927.001a10 10 0 0 0 15.493 4.151c11.473-9.066 27.066-10.2 39.732-2.889 12.664 7.312 19.479 21.385 17.364 35.853a10 10 0 0 0 2.823 8.518 10 10 0 0 0 8.519 2.823c31.487-4.778 52.843 32.225 32.964 57.097a10 10 0 0 0 4.152 15.493c29.658 11.601 29.65 54.331-.001 65.927"/><path d="M348.058 151.222c-13.998-10.741-31.319-16.245-48.797-15.492-15.826.681-30.614 6.309-43.257 16.384-12.46-9.927-27.021-15.542-42.597-16.353-17.227-.897-34.419 4.317-48.416 14.677-25.255 18.694-44.743 59.324-16.549 112.309 2.594 4.875 8.647 6.725 13.526 4.131 4.875-2.594 6.725-8.65 4.13-13.526-22.193-41.708-8.977-72.205 10.792-86.838 18.26-13.516 48.594-17.383 72.044 6.067 3.905 3.905 10.238 3.905 14.142 0 23.856-23.855 54.463-19.568 72.807-5.493 20.075 15.404 32.683 47.183 7.861 90.174-22.445 38.878-66.158 72.839-87.738 80.355-8.733-3.044-20.994-10.392-33.512-20.146-4.356-3.394-10.64-2.615-14.035 1.742-3.395 4.356-2.615 10.64 1.742 14.035 16.286 12.69 31.634 21.388 43.216 24.492 28.773-.833 83.719-49.377 107.647-90.477 31.321-54.25 12.57-96.417-13.006-116.041"/><path d="M183.471 284.64h-.007c-5.523 0-9.996 4.477-9.996 10 .528 13.263 19.479 13.263 20.003 0 0-5.523-4.477-10-10-10"/></svg>