<svg xmlns="http://www.w3.org/2000/svg" width="512" height="512"><g fill-rule="evenodd" clip-rule="evenodd"><path fill="#ffda8f" d="M77.243 176h357.513a947 947 0 0 0 .814-21.514c-50.478-14.1-90.222-53.947-104.176-104.486H180.606c-13.954 50.538-53.698 90.386-104.176 104.486.19 7.104.455 14.285.813 21.514"/><path fill="#ffc144" d="M180.606 50h150.788c13.954 50.538 53.699 90.386 104.176 104.486a958 958 0 0 1-.814 21.514h39.998c.891-18.494 1.245-37.209 1.245-56.001-60.751 0-110-49.248-110-109.999H146.001c0 60.751-49.248 109.999-109.999 109.999 0 18.791.351 37.507 1.241 56.001h40.001a947 947 0 0 1-.813-21.514c50.477-14.1 90.221-53.948 104.175-104.486"/><path fill="#ffda8f" d="M402.539 336H109.461c4.632 10.432 9.89 20.47 15.86 29.998 30.896 49.313 76.377 78.054 130.68 94.421 54.303-16.366 99.783-45.108 130.679-94.42 5.969-9.529 11.226-19.567 15.859-29.999"/><path fill="#ffc144" d="M256 460.419c-54.303-16.366-99.783-45.108-130.68-94.421-5.97-9.528-11.228-19.566-15.86-29.998H66.216C95.458 412.967 151.385 473.969 256 502c104.616-28.032 160.549-89.031 189.791-166h-43.252c-4.632 10.432-9.89 20.47-15.859 29.999-30.897 49.312-76.377 78.053-130.68 94.42"/></g><path d="M9.999 186h492.002c13.268-.529 13.258-19.476 0-20h-16.81c.543-14.445.808-29.572.808-46 0-5.523-4.478-10-10-10-55.141 0-100-44.859-100-100 0-5.523-4.478-10-10-10H146.001c-5.522 0-10 4.477-10 10 0 55.14-44.859 100-100 100-5.522 0-10 4.477-10 10 0 16.456.264 31.583.804 46H9.999c-13.268.529-13.258 19.476 0 20m36.033-56.416C104.228 124.748 150.763 78.199 155.588 20h200.824c4.825 58.199 51.359 104.748 109.556 109.584-.086 12.812-.347 24.84-.791 36.416h-19.974c.141-3.702.263-7.463.364-11.246a10 10 0 0 0-7.306-9.899c-46.988-13.125-84.244-50.491-97.228-97.516a10 10 0 0 0-9.64-7.338h-30.396c-13.268.529-13.258 19.476 0 20h22.978c15.737 47.786 53.654 85.863 101.367 101.806q-.073 2.109-.154 4.194H86.812q-.08-2.085-.154-4.194c47.713-15.943 85.63-54.021 101.366-101.806h22.973c13.268-.529 13.258-19.476 0-20h-30.392a10 10 0 0 0-9.64 7.339c-12.982 47.025-50.238 84.391-97.227 97.516a10 10 0 0 0-7.306 9.899c.101 3.783.223 7.544.364 11.246H46.82c-.442-11.559-.702-23.587-.788-36.417M502.001 326H9.999c-13.268.529-13.258 19.476 0 20h49.399c34.612 85.756 98.113 139.963 194.014 165.659 1.695.454 3.48.454 5.176 0C354.495 485.961 417.997 431.754 452.609 346h49.392c13.268-.529 13.258-19.476 0-20m-115.385 20a219 219 0 0 1-8.41 14.689C351.405 403.463 311.412 432.686 256 449.96c-55.412-17.273-95.405-46.496-122.206-89.271A219 219 0 0 1 125.383 346zM256 491.638C170.871 468.185 113.521 420.466 81.085 346h21.96c4.218 8.908 8.852 17.409 13.802 25.308 29.945 47.795 74.519 80.075 136.268 98.686 1.882.567 3.889.567 5.771 0 61.749-18.611 106.322-50.891 136.269-98.686 4.949-7.9 9.584-16.402 13.8-25.308h21.968C398.486 420.464 341.134 468.183 256 491.638M50.996 226c5.514 0 10 4.486 10 10 .523 13.259 19.474 13.266 20 0-1.648-39.8-58.359-39.786-60 0v40c1.653 39.809 58.362 39.778 60 0v-10c0-5.523-4.478-10-10-10h-9.999c-13.267.528-13.258 19.475-.001 20-.553 13.269-19.454 13.259-20 0v-40c0-5.514 4.486-10 10-10M140.998 226c13.268-.529 13.258-19.476 0-20h-35c-5.522 0-10 4.477-10 10v80c0 5.523 4.478 10 10 10h35c13.268-.529 13.258-19.476 0-20h-25v-20h11c13.268-.529 13.258-19.476 0-20h-11v-20zM210.999 216v41.825l-26.284-46.728A10 10 0 0 0 165.999 216v80c.528 13.268 19.476 13.258 20 0v-41.825l26.284 46.728a10 10 0 0 0 11.25 4.771 10 10 0 0 0 7.466-9.674v-80c-.528-13.268-19.476-13.258-20 0M256 206c-5.522 0-10 4.477-10 10v60c1.653 39.809 58.362 39.778 60 0v-60c-.528-13.268-19.476-13.258-20 0v60c-.551 13.27-19.454 13.259-20 0v-60c0-5.523-4.478-10-10-10M321.001 216v80c.528 13.268 19.476 13.258 20 0v-80c-.529-13.268-19.476-13.258-20 0M401.003 216v41.825l-26.284-46.728A10 10 0 0 0 356.003 216v80c.528 13.268 19.476 13.258 20 0v-41.825l26.284 46.728a10 10 0 0 0 11.25 4.771 10 10 0 0 0 7.466-9.674v-80c-.529-13.268-19.476-13.258-20 0M481.004 226c13.268-.529 13.258-19.476 0-20h-35c-5.522 0-10 4.477-10 10v80c0 5.523 4.478 10 10 10h35c13.268-.529 13.258-19.476 0-20h-25v-20h11c13.268-.529 13.258-19.476 0-20h-11v-20z"/><path d="M256 60c13.268-.529 13.258-19.476 0-20h-.007c-13.267.53-13.25 19.478.007 20"/></svg>