<svg xmlns="http://www.w3.org/2000/svg" width="512" height="512" viewBox="0 0 512.002 512.002"><g fill="#cbe558" fill-rule="evenodd" clip-rule="evenodd"><path d="M318.539 208.427c0-97.668-64.935-159.74-147.127-137.718 45.631 58.776 13.001 137.718 147.127 137.718"/><path d="M502.002 129.835C385.131 98.52 292.797 186.783 292.797 325.661c190.719 0 144.321-112.25 209.205-195.826"/></g><path d="M30 355.876c-16.542 0-30 13.458-30 30v40c1.653 39.809 58.363 39.778 60 0v-40c0-16.542-13.458-30-30-30m10 70c-.551 13.27-19.455 13.259-20 0v-40c.551-13.269 19.455-13.26 20 0zM119.353 412.216c26.911-14.915 16.833-55.972-14.35-56.34h-20c-5.523 0-10 4.477-10 10v80c.528 13.268 19.477 13.258 20 0v-30h3.82l17.236 34.472c2.479 4.99 8.582 6.92 13.417 4.472 4.94-2.47 6.942-8.477 4.472-13.417zm-24.351-36.34h10c13.213.542 13.286 19.339.095 19.999q-.138-.001-.276.001h-9.82zM180.003 375.876c5.514 0 10 4.486 10 10 .523 13.259 19.474 13.266 20 0-1.648-39.8-58.359-39.786-60 0v40c1.653 39.809 58.362 39.778 60 0v-10c0-5.523-4.477-10-10-10h-9.999c-13.268.528-13.258 19.475-.001 20-.552 13.269-19.454 13.259-20 0v-40c0-5.514 4.486-10 10-10M255.005 355.876c-16.542 0-30 13.458-30 30v60c.528 13.268 19.477 13.258 20 0v-20.001h20v20.001c.528 13.268 19.477 13.258 20 0v-60c0-16.542-13.458-30-30-30m-10 49.999v-19.999c.551-13.27 19.454-13.259 20 0v19.999zM355.006 355.876c-5.523 0-10 4.477-10 10v41.825l-26.284-46.728a10 10 0 0 0-18.716 4.903v80c.528 13.268 19.477 13.258 20 0v-41.825l26.284 46.728a10 10 0 0 0 11.25 4.771 10 10 0 0 0 7.466-9.674v-80c0-5.523-4.477-10-10-10M390.007 355.876c-5.523 0-10 4.477-10 10v80c.528 13.268 19.477 13.258 20 0v-80c0-5.523-4.477-10-10-10M445.009 375.876c5.514 0 10 4.486 10 10 .523 13.259 19.474 13.266 20 0-1.648-39.801-58.36-39.786-60.001 0v40c1.651 39.804 58.36 39.783 60.001 0 0-5.523-4.477-10-10-10s-10 4.477-10 10c0 5.514-4.486 10-10 10s-10-4.486-10-10v-40c-.001-5.514 4.486-10 10-10M113.335 305.875v-40c-1.653-39.809-58.362-39.778-60 0v40c1.653 39.808 58.363 39.778 60 0m-40 0v-40c.551-13.27 19.454-13.259 20 0v40c-.55 13.269-19.454 13.259-20 0M188.893 305.875v-40c-1.653-39.808-58.362-39.779-60 0v40c1.652 39.808 58.362 39.778 60 0m-40 0v-40c0-5.514 4.486-10 10-10s10 4.486 10 10v40c-.551 13.269-19.454 13.259-20 0M10 255.875h7.779v70c.528 13.268 19.477 13.258 20 0v-80c0-5.523-4.477-10-10-10H10c-13.268.528-13.258 19.477 0 20M258.921 236.93c-4.939-2.471-10.947-.468-13.417 4.472l-40 80c-2.47 4.94-.468 10.947 4.472 13.417 4.834 2.448 10.937.517 13.417-4.472l40-80c2.47-4.94.468-10.947-4.472-13.417M214.456 255.875c13.268-.528 13.258-19.477 0-20h-.006c-13.269.53-13.253 19.478.006 20M254.449 315.874h-.007c-5.523 0-9.997 4.477-9.997 10 .528 13.263 19.479 13.263 20.003 0 .001-5.523-4.476-10-9.999-10"/><path d="M511.48 126.648a10 10 0 0 0-6.89-6.472c-69.535-19.102-137.262 3.767-178.009 59.114-9.669-81.976-76.267-141.011-157.758-118.239-6.778 1.655-9.712 10.378-5.31 15.792 12.9 16.616 19.211 35.492 25.315 53.745 16.822 58.138 46.007 84.644 115.226 87.523-13.845 31.291-21.258 67.908-21.258 107.551 0 5.523 4.477 10 10 10 63.152 0 105.781-11.835 134.155-37.247 47.933-43.692 42.773-112.012 82.95-162.446a10 10 0 0 0 1.579-9.321m-303.684-2.403c-4.95-14.802-10.417-31.15-19.74-46.81 55.125-8.857 99.427 28.155 113.821 81.141-12.755-17.014-29.047-34.813-47.372-51.425-4.092-3.708-10.417-3.399-14.125.693s-3.399 10.416.693 14.125c27.76 25.163 50.997 53.711 62.358 76.093-59.552-3.14-80.593-22.53-95.635-73.817m246.471 83.052c-19.427 58.098-34.947 104.48-146.833 108.132 10.992-24.277 32.748-54.548 61.174-84.857 3.778-4.028 3.575-10.357-.453-14.135s-10.356-3.575-14.135.453c-18.691 19.929-34.461 39.592-46.606 57.956 16.081-91.255 86.439-156.02 177.779-138.555-14.934 23.183-23.043 47.433-30.926 71.006"/><path d="M393.407 182.188h-.007c-5.523 0-9.996 4.477-9.996 10 .528 13.263 19.479 13.263 20.003 0 0-5.523-4.477-10-10-10"/></svg>