<svg xmlns="http://www.w3.org/2000/svg" width="512" height="512"><g fill-rule="evenodd" clip-rule="evenodd"><path fill="#ff5d7d" d="M216.03 49.816a208.8 208.8 0 0 0-77.558 32.129l-24.601-17.572c-4.475-3.197-10.252-3.889-14.141 0L64.374 99.729c-3.889 3.889-3.197 9.666 0 14.142l17.572 24.601a208.9 208.9 0 0 0-32.129 77.559L19.999 221c-5.424.904-9.999 4.5-9.999 9.999V281c-.001 5.499 4.574 9.095 9.999 9.999l29.817 4.969a208.9 208.9 0 0 0 32.129 77.559l-17.572 24.601c-3.197 4.476-3.889 10.253 0 14.141l35.355 35.355c3.889 3.889 9.666 3.197 14.141 0l24.601-17.572a208.8 208.8 0 0 0 77.558 32.129L221 492c.904 5.425 4.499 9.999 9.999 9.999H281c5.5 0 9.095-4.574 9.999-9.999l4.97-29.817a208.85 208.85 0 0 0 77.558-32.129l24.601 17.572c4.475 3.197 10.252 3.889 14.141 0l35.355-35.355c3.889-3.889 3.197-9.666 0-14.141l-17.572-24.601a208.9 208.9 0 0 0 32.129-77.559L492 290.999c5.424-.904 9.999-4.5 9.999-9.999v-50.001C502 225.5 497.425 221.904 492 221l-29.817-4.97a208.9 208.9 0 0 0-32.129-77.559l17.572-24.601c3.197-4.476 3.889-10.253 0-14.142L412.27 64.374c-3.889-3.889-9.666-3.197-14.141 0l-24.601 17.572a208.8 208.8 0 0 0-77.558-32.129L291 19.999c-.905-5.425-4.5-9.999-10-9.999h-50.001c-5.5 0-9.095 4.575-9.999 9.999zM96 256c0-88.365 71.635-160 160-160 212.237 8.428 212.177 311.605-.001 320.001C167.634 416 96 344.365 96 256"/><path fill="#5cd0b3" d="M216.399 211.506H166v116.129h50.399z"/><path fill="#ffdcd5" d="M216.399 211.506v116.129h107.293c12.27 0 22.308-10.125 22.308-22.5v-71.128c0-12.375-10.039-22.5-22.308-22.5h-52.938l-14.401-49.355c-2.235-7.66-9.541-14.516-17.46-14.516h-22.495z"/><path fill="#ff9eb1" d="M323.692 327.634H166V211.506h50.399v-63.871h22.495c7.919 0 15.225 6.857 17.46 14.516l14.401 49.355h52.938c12.27 0 22.308 10.125 22.308 22.5v71.128c-.001 12.375-10.04 22.5-22.309 22.5M256 96c-88.366 0-160 71.635-160 160 8.428 212.237 311.605 212.177 320.001-.001C416 167.634 344.365 96 256 96"/></g><path d="m493.644 211.136-23.073-3.846c-5.501-24.389-15.033-47.397-28.406-68.568l13.6-19.04c6.367-8.917 5.929-20.029-1.066-27.024l-35.356-35.355c-6.996-6.997-18.11-7.436-27.024-1.067L373.28 69.835c-21.163-13.372-44.172-22.904-68.567-28.406l-3.846-23.075C299.063 7.548 290.895 0 281 0h-50c-9.894 0-18.062 7.548-19.864 18.355l-3.846 23.074c-24.396 5.502-47.404 15.034-68.568 28.406l-19.038-13.598c-8.916-6.369-20.029-5.931-27.024 1.066L57.302 92.658c-6.996 6.996-7.434 18.109-1.066 27.025l13.599 19.039C56.461 159.894 46.93 182.9 41.429 207.29l-23.073 3.846C7.548 212.937-.001 221.105 0 231v50c-.001 9.894 7.547 18.062 18.355 19.865l23.074 3.845c5.501 24.391 15.032 47.396 28.406 68.568l-13.599 19.039c-6.368 8.916-5.929 20.029 1.066 27.025l35.355 35.354c6.996 6.998 18.109 7.436 27.025 1.067l19.038-13.599c21.164 13.372 44.173 22.904 68.568 28.406l3.846 23.075C212.937 504.452 221.106 512 231 512h50c9.895 0 18.062-7.548 19.864-18.355l3.846-23.074c24.396-5.502 47.404-15.034 68.567-28.406l19.038 13.598c8.916 6.37 20.029 5.931 27.025-1.065l35.356-35.355c6.995-6.995 7.434-18.108 1.066-27.025l-13.6-19.039c13.373-21.17 22.905-44.179 28.406-68.568l23.074-3.846c10.809-1.802 18.356-9.97 18.354-19.863v-50c.004-9.897-7.544-18.065-18.352-19.866m-1.645 69.431c-.286.177-.827.432-1.643.568l-29.817 4.97a10 10 0 0 0-8.176 7.971c-5.118 26.556-15.411 51.402-30.593 73.849a10 10 0 0 0 .146 11.415l17.571 24.6c.482.674.685 1.238.761 1.565l-34.743 34.743c-.328-.077-.891-.279-1.563-.761l-24.602-17.572a10 10 0 0 0-11.416-.145c-22.437 15.18-47.281 25.472-73.847 30.592a10 10 0 0 0-7.972 8.175l-4.97 29.818c-.136.816-.391 1.357-.568 1.643h-49.135c-.178-.286-.433-.827-.568-1.643l-4.97-29.818a10 10 0 0 0-7.972-8.175c-26.564-5.119-51.41-15.412-73.847-30.592a10 10 0 0 0-11.416.145l-24.601 17.572c-.673.481-1.236.684-1.563.76l-34.744-34.743c.076-.328.279-.891.76-1.564l17.572-24.601a10 10 0 0 0 .146-11.415c-15.182-22.446-25.475-47.293-30.593-73.849a10 10 0 0 0-8.175-7.971l-29.817-4.97c-.816-.136-1.358-.391-1.644-.569V231.43c.286-.177.827-.432 1.643-.568l29.817-4.97a10 10 0 0 0 8.175-7.971c5.118-26.556 15.411-51.402 30.593-73.849a10 10 0 0 0-.146-11.415l-17.571-24.6c-.481-.674-.684-1.237-.76-1.565l34.744-34.743c.327.076.89.279 1.563.76l24.601 17.572a10 10 0 0 0 11.416.145c22.437-15.18 47.282-25.473 73.847-30.592a10 10 0 0 0 7.972-8.175l4.97-29.818c.136-.816.391-1.358.569-1.643h49.135c.178.285.433.827.568 1.643l4.97 29.818a10 10 0 0 0 7.972 8.175c26.565 5.12 51.41 15.412 73.847 30.592a10 10 0 0 0 11.416-.145l24.603-17.573c.673-.48 1.235-.683 1.562-.759l34.743 34.743c-.076.328-.278.891-.76 1.564l-17.572 24.601a10 10 0 0 0-.146 11.415c15.182 22.446 25.475 47.292 30.593 73.848a10 10 0 0 0 8.176 7.972l29.817 4.97c.815.136 1.357.39 1.643.568v49.137z"/><path d="M256 86c-28.671 0-57.027 7.283-82.003 21.062-4.836 2.668-6.593 8.751-3.925 13.586 2.668 4.837 8.751 6.594 13.586 3.925C281.885 69.326 406.986 143.148 405.999 256 406 338.71 338.71 406 256 406c-112.851.97-186.675-124.103-131.428-222.337 2.666-4.835.909-10.918-3.926-13.586-4.837-2.668-10.919-.911-13.587 3.925-62.625 111.346 21.038 253.104 148.943 251.996C481.518 416.669 481.473 95.306 256 86"/><path d="M166 337.634h157.692c17.815 0 32.309-14.58 32.309-32.5v-71.128c0-17.92-14.493-32.5-32.309-32.5h-45.438l-12.3-42.156c-3.672-12.583-15.052-21.715-27.06-21.715h-22.495c-5.523 0-10 4.477-10 10v53.872H166c-5.523 0-10 4.477-10 10v116.128a10 10 0 0 0 10 9.999m60.399-180h12.495c2.996 0 6.742 3.488 7.86 7.317l14.401 49.355a10 10 0 0 0 9.6 7.199h52.938c6.787 0 12.309 5.607 12.309 12.5v71.128c0 6.893-5.521 12.5-12.309 12.5H226.4V157.634zM176 221.506h30.399v96.128H176zM142.863 152.864a9.97 9.97 0 0 0 6.727-2.602c4.086-3.715 4.388-10.04.673-14.126-3.716-4.087-10.04-4.388-14.126-.673l-.005.005c-4.086 3.715-4.385 10.037-.67 14.124a9.97 9.97 0 0 0 7.401 3.272"/></svg>