<svg xmlns="http://www.w3.org/2000/svg" width="512" height="512" viewBox="0 0 512.001 512.001"><g fill="#b278d3" fill-rule="evenodd" clip-rule="evenodd"><path d="M502.001 10 10 141.875v40.014L502.001 50.013zM502.001 330.112 10 461.988v40.013l492.001-131.876z"/></g><path d="M171.518 178.46c-6.246-4.792-14.645-6.251-23.047-4l-20 5.358a10 10 0 0 0-7.412 9.659v80.001a10.002 10.002 0 0 0 12.589 9.66l19.999-5.359c22.04-5.359 37.305-36.467 19.801-53.663 9.724-12.165 11.033-31.842-1.93-41.656m-17.871 15.318c2.345-.628 4.422-.429 5.694.549 1.419 1.088 1.717 3.011 1.717 4.433 0 6.452-6 13.935-12.588 15.7l-7.412 1.986V197.15zm-5.177 60.682-7.411 1.986v-19.297l.213-.054 12.375-3.316c2.347-.627 4.422-.428 5.696.549 1.418 1.088 1.716 3.011 1.716 4.433 0 6.45-6 13.933-12.589 15.699M238.471 150.344l-35 9.378a10 10 0 0 0-7.412 9.659v80a10.002 10.002 0 0 0 12.588 9.66l35-9.378c5.335-1.429 8.501-6.913 7.071-12.247-1.43-5.335-6.914-8.503-12.247-7.071l-22.412 6.005v-19.294l13.588-3.641c5.335-1.429 8.501-6.913 7.071-12.248s-6.913-8.503-12.247-7.071l-8.412 2.254v-19.295l27.588-7.392c5.335-1.429 8.501-6.913 7.071-12.247-1.43-5.336-6.914-8.501-12.247-7.072M301.777 154.729l5.316.778c13.202 1.391 15.945-17.34 2.895-19.789l-5.317-.778c-23.465-3.882-48.118 26.468-35.042 48.787 3.693 6.241 9.769 10.269 17.107 11.342l10.634 1.555c1.316.193 2.202.745 2.79 1.739 1.073 1.812 1.043 4.69-.078 7.699-2.688 7.211-10.066 11.817-14.857 11.112l-5.317-.777c-13.2-1.396-15.938 17.353-2.893 19.79l5.317.777q1.916.279 3.852.277c13.525 0 27.347-9.993 32.639-24.194 6.257-15.65-1.613-33.915-18.558-36.213l-10.634-1.555c-1.315-.192-2.201-.745-2.789-1.738-1.073-1.812-1.044-4.69.078-7.699 2.687-7.212 10.067-11.813 14.857-11.113M363.442 217.21c5.522 0 10-4.477 10-10v-72.327l10.088-2.703c5.335-1.429 8.501-6.913 7.071-12.248s-6.916-8.5-12.247-7.071l-35 9.378c-12.725 3.983-7.705 22.257 5.176 19.318l4.912-1.316v66.968c0 5.524 4.478 10.001 10 10.001M321.003 275.904v40c0 8.248 3.478 15.647 9.541 20.3 21.164 15.64 50.998-7.554 50.459-31.018-.526-13.26-19.472-13.266-20 0 0 6.451-6 13.934-12.588 15.7-2.344.629-4.422.429-5.696-.549-1.418-1.088-1.716-3.011-1.716-4.433v-40c0-6.451 6-13.934 12.589-15.7 2.345-.627 4.421-.428 5.694.549 1.419 1.088 1.717 3.011 1.717 4.433 0 5.523 4.478 10 10 10s10-4.477 10-10c0-8.248-3.478-15.647-9.541-20.3-6.247-4.793-14.646-6.252-23.048-4-15.37 4.119-27.411 19.501-27.411 35.018M260.962 274.402c-6.189-4.75-14.407-6.223-22.55-4.041C223.041 274.48 211 290.492 211 306.815v37.128c0 8.893 3.658 16.8 10.038 21.695 6.264 4.869 14.838 6.166 22.551 4.041C258.96 365.562 271 349.549 271 333.226v-37.129c0-8.893-3.658-16.801-10.038-21.695M251 333.226c0 7.203-6 15.37-12.589 17.135-1.497.401-3.614.625-5.198-.589-1.406-1.079-2.213-3.204-2.213-5.828v-37.128c0-7.203 6-15.371 12.588-17.136h.002c1.644-.444 3.7-.567 5.197.589 1.406 1.079 2.213 3.204 2.213 5.829zM286.002 265.283v80c.528 13.268 19.476 13.258 20 0v-80c-.529-13.268-19.476-13.258-20 0M443.592 236.089c5.335-1.429 8.501-6.913 7.071-12.248s-6.915-8.501-12.247-7.071l-34.999 9.378a10 10 0 0 0-7.412 9.659v80a10.002 10.002 0 0 0 12.588 9.66l34.999-9.378c5.335-1.429 8.501-6.913 7.071-12.248s-6.915-8.503-12.247-7.071l-22.411 6.005v-19.294l13.587-3.641c12.68-3.945 7.764-22.244-5.176-19.318l-8.411 2.254v-19.294zM185.999 384.758c5.522 0 10-4.477 10-10v-80c-.528-13.268-19.476-13.258-20 0v32.327l-20.001 5.359v-26.967c-.528-13.268-19.476-13.258-20 0v80c.528 13.268 19.476 13.258 20 0V353.15l20.001-5.359v26.968c0 5.522 4.478 9.999 10 9.999M93.584 329.873c2.35-.627 4.423-.428 5.696.549 1.418 1.088 1.716 3.011 1.716 4.433 0 5.523 4.478 10 10 10s10-4.477 10-10c0-8.248-3.478-15.647-9.541-20.3-6.246-4.792-14.643-6.25-23.048-4-15.37 4.119-27.411 19.501-27.411 35.018v40c-.139 17.777 15.983 29.007 32.588 24.3 15.371-4.119 27.412-19.5 27.412-35.018 0-5.523-4.478-10-10-10s-10 4.477-10 10c0 6.451-6 13.934-12.589 15.7-2.344.628-4.42.429-5.694-.549-1.419-1.088-1.717-3.012-1.717-4.433v-40c0-6.451 6-13.934 12.588-15.7M508.088 322.178a10 10 0 0 0-8.676-1.726L7.411 452.329A10 10 0 0 0 0 461.988v40.013a10 10 0 0 0 12.589 9.659L504.59 379.785a10 10 0 0 0 7.411-9.659v-40.014a10 10 0 0 0-3.913-7.934m-16.087 40.275L20 488.968V469.66l472.001-126.515zM508.088 2.066A10 10 0 0 0 499.412.34L7.411 132.216A10 10 0 0 0 0 141.876v40.013a10 10 0 0 0 12.589 9.659l202.538-54.288c5.335-1.43 8.5-6.914 7.07-12.248s-6.908-8.501-12.248-7.07L20 168.856v-19.308L492.001 23.033V42.34L296.88 94.64c-12.678 3.945-7.765 22.246 5.178 19.318L504.59 59.672a10 10 0 0 0 7.411-9.659V10a10 10 0 0 0-3.913-7.934"/><path d="M253.253 106.334c-5.311 1.517-8.386 7.052-6.868 12.362 1.5 5.356 7.196 8.388 12.362 6.868l.007-.002c5.311-1.517 8.382-7.051 6.864-12.361s-7.056-8.383-12.365-6.867"/></svg>