<svg xmlns="http://www.w3.org/2000/svg" width="512" height="512" viewBox="0 0 512.003 512.003"><g fill-rule="evenodd" clip-rule="evenodd"><path fill="#a7bdcd" d="M117.075 186.809c46.287 26.724 98.007 35.515 147.115 28.53l15.417-76.938a128 128 0 0 1-6.736 2.006c-95.123 25.489-140.265-44.939-199.185 13.981a229.7 229.7 0 0 0 43.389 32.421"/><path fill="#e3eaef" d="m279.607 138.401-15.417 76.938 55.447 61.024C456.435 234.207 546.839 87.738 478.871 19.77 408.811.998 363.843 110.791 279.607 138.401"/><path fill="#a7bdcd" d="M264.19 215.339c-65.611 10.323-140.875-12.633-190.505-60.95 0 126.081 150.438 147.759 236.355 124.738a269 269 0 0 0 9.597-2.764z"/><path fill="#ffdcd5" d="M363.573 372.103c.996-2.462 1.444-5.212 1.177-8.293-1.011-11.664-11.065-20.356-22.342-19.314-10.808.998-76.341 8.46-87.147 9.458-50.497 4.666-153.305-48.843-212.8 60.317l-29.793 52.616c-7.034 12.652.639 27.525 13.838 27.525h104.465c14.437 0 17.331-1.936 23.8-12.216l11.801-18.754 65.476 3.122c43.07 2.055 55.439.004 96.336-15.33 56.859-21.319 139.446-56.586 157.803-63.005 26.705-9.651 18.146-49.12-14.801-41.793l-106.301 25.667z"/></g><path d="M510.742 358.115c-4.032-13.877-18.748-26.503-41.526-21.441l-.176.041-94.792 22.888a31.17 31.17 0 0 0-10.673-18.116c-6.247-5.22-14.088-7.691-22.087-6.949-10.458.957-76.226 8.444-87.146 9.458-11.099 1.023-25.622-1.159-42.44-3.688-72.08-13.276-138.18-6.344-178.182 69.107L3.928 462.027c-5.189 9.334-5.197 20.601-.02 29.402 4.781 8.129 13.229 12.983 22.598 12.982h104.47c17.386 0 23.719-3.316 32.259-16.89l8.691-13.813 59.645 2.845c44.064 2.104 58.131-.135 100.324-15.955 44.736-16.495 117.672-47.703 157.594-62.928l.099-.035c19.39-7.009 25.319-25.186 21.154-39.52m-27.908 20.693c-39.638 15.055-113.349 46.622-157.96 63.062-39.721 14.894-50.945 16.68-92.349 14.705l-65.476-3.123a10.03 10.03 0 0 0-8.94 4.663l-11.801 18.755c-2.536 4.03-3.975 5.839-5.132 6.453-1.818.964-6.403 1.088-10.197 1.088H26.507c-2.911 0-4.521-1.698-5.359-3.123-1.623-2.761-1.525-6.328.224-9.475l29.793-52.615q.04-.07.078-.142c40.454-72.54 96.597-68.344 157.684-58.971 17.354 2.61 33.743 5.076 47.255 3.826 5.492-.507 24.07-2.566 43.738-4.746 18.729-2.075 38.094-4.222 43.408-4.712 5.795-.621 11.102 4.44 11.46 10.22.173 1.997.633 7.301-12.678 13.064-27.614 11.955-56.946 21.981-80.476 27.506-12.797 3.549-8.454 21.989 4.572 19.471 24.633-5.785 55.194-16.217 83.85-28.623 9.992-4.326 16.175-9.539 19.864-14.868l103.718-25.043c9.256-2.031 15.938.775 17.898 7.517 1.564 5.38-.523 12.133-8.702 15.111M41.727 133.777a241 241 0 0 0 22.016 24.933c1.953 123.11 148.784 156.772 248.885 130.077 83.513-20.814 172.975-95.317 194.683-176.968 10.595-39.543 3.006-74.744-21.369-99.119a10 10 0 0 0-4.483-2.588c-40.608-10.88-72.728 15.191-104.761 45.242-9.316 9.462 3.658 23.276 13.684 14.586 28.003-26.27 53.681-47.513 83.308-41.136 64.058 76.711-51.776 205.927-150.979 236.071l-38.997-42.918c44.852-9.893 85.915-32.43 117.615-64.233q.234.026.472.04l19.449 1.197c5.45.357 10.273-3.844 10.596-9.367.339-5.513-3.854-10.256-9.367-10.595l-4.1-.252a243 243 0 0 0 21.278-31.051c2.762-4.783 1.123-10.899-3.66-13.66-4.784-2.763-10.899-1.123-13.66 3.66-18.398 31.867-43.627 57.386-72.78 75.779l1.078-6.369c.922-5.445-2.745-10.607-8.19-11.529-5.434-.919-10.605 2.746-11.528 8.191l-3.736 22.067a221.6 221.6 0 0 1-50.289 17.024l11.403-56.905c10.756-4.021 21.426-9.467 32.319-16.483 4.644-2.991 5.983-9.179 2.993-13.822-2.988-4.642-9.177-5.984-13.821-2.993-13.437 8.652-26.357 14.571-39.501 18.093-40.223 10.775-71.28 3.281-98.683-3.335-32.899-7.941-64.095-15.472-97.746 13.202-25.704-26.517-44.371-59.28-54.192-95.934-1.43-5.334-6.916-8.5-12.247-7.071C2.08 39.04-1.086 44.524.343 49.859c8.192 30.572 22.116 58.806 41.384 83.918m259.54 137.239c-53.945 12.595-129.672 7.124-175.664-28.168-21.718-16.664-35.075-38.461-39.888-64.998 49.479 38.207 113.287 55.815 174.615 48.111zm-134.36-124.161c26.386 6.369 58.799 14.193 99.737 5.345l-10.825 54.021a219.6 219.6 0 0 1-58.09-1.299l7.404-9.833c3.322-4.412 2.439-10.682-1.973-14.004-4.41-3.321-10.681-2.439-14.004 1.973l-13.06 17.343c-31.351-8.08-62.768-24.563-87.575-45.99 25.083-20.424 46.88-15.162 78.386-7.556M87.03 298.242c4.315 3.386 10.617 2.66 14.038-1.712 3.404-4.349 2.638-10.634-1.712-14.038-16.079-12.583-37.954-40.503-46.729-65.444a10 10 0 0 0-12.753-6.114c-5.21 1.833-7.947 7.542-6.114 12.752 10.366 29.46 35.182 60.4 53.27 74.556M30.498 261.081c-1.833-5.208-7.54-7.948-12.752-6.114-5.21 1.833-7.948 7.542-6.115 12.752 6.722 19.105 22.823 39.177 34.561 48.363 4.315 3.386 10.618 2.66 14.038-1.712 3.404-4.349 2.638-10.634-1.712-14.038-9.432-7.382-22.826-24.487-28.02-39.251"/><path d="M350.695 103.398c13.268-.529 13.258-19.476 0-20h-.008c-13.268.53-13.25 19.478.008 20"/></svg>