<svg xmlns="http://www.w3.org/2000/svg" width="512" height="512" viewBox="0 0 512.002 512.002"><g fill-rule="evenodd" clip-rule="evenodd"><path fill="#ffc144" d="m257.355 214.162 74.339 28.797-3.578-82.174 14.5-17.796 35.859-44.007-79.259-21.99L256.001 10l-45.406 68.584-77.068 20.398 35.262 44.34 15.934 20.038-4.415 79.599z"/><g fill="#b278d3"><path d="m180.308 242.959 4.415-79.599-15.935-20.038c-55.928 30.805-93.826 90.311-93.826 158.675H437.04c0-68.608-38.167-128.299-94.423-159.009l-14.501 17.796 3.578 82.174-74.339-28.796zM74.962 462H437.04v40.001H74.962z"/></g></g><path d="M30.716 331.999H10c-5.523 0-10 4.477-10 10v80c.528 13.268 19.477 13.258 20 0v-30h10.716c40.762-1.662 40.731-58.353 0-60m0 40H20v-20h10.716c14.223.56 14.212 19.445 0 20M139.116 361.999c0-16.542-13.779-30-30.716-30H87.685c-5.523 0-10 4.477-10 10v80c.528 13.268 19.477 13.258 20 0v-30h4.633l17.918 34.599c6.595 11.569 23.4 2.758 17.76-9.197l-15.019-29c9.603-5.078 16.139-15.009 16.139-26.402m-41.431-10H108.4c14.17.543 14.232 19.364.079 19.999q-.125-.001-.25.001H97.685zM201.621 351.999c13.268-.528 13.258-19.477 0-20h-36.252c-5.523 0-10 4.477-10 10v80c0 5.523 4.477 10 10 10h36.252c13.268-.528 13.258-19.477 0-20h-26.252v-20h11.751c13.268-.528 13.258-19.477 0-20h-11.751v-20zM294.842 431.999c5.523 0 10-4.477 10-10v-80a10 10 0 0 0-18.146-5.8l-20.338 28.561-20.338-28.561a10 10 0 0 0-18.146 5.8v80c.528 13.268 19.477 13.258 20 0v-48.717l10.338 14.518c3.716 5.535 12.576 5.534 16.292 0l10.338-14.518v48.717c0 5.523 4.477 10 10 10M321.096 341.999v80c.528 13.268 19.477 13.258 20 0v-80c-.528-13.268-19.477-13.258-20 0M367.35 331.999c-5.523 0-10 4.477-10 10v60c1.682 39.806 59.764 39.774 61.431 0v-60c-.528-13.268-19.477-13.258-20 0v60c-.588 13.269-20.849 13.259-21.431 0v-60c0-5.523-4.477-10-10-10M505.047 332.474a10 10 0 0 0-11.191 3.725l-20.338 28.561-20.338-28.561a10 10 0 0 0-18.146 5.8v80c.528 13.268 19.477 13.258 20 0v-48.717l10.338 14.518c3.716 5.535 12.576 5.535 16.292 0l10.339-14.519v48.718c.528 13.268 19.477 13.258 20 0v-80a10 10 0 0 0-6.956-9.525M74.962 311.998H437.04c5.523 0 10-4.477 10-10 0-65.795-33.973-126.858-89.311-161.725l28.498-34.973c4.569-5.356 1.744-14.225-5.079-15.953l-75.592-20.973-41.152-63.795A10 10 0 0 0 256.06 0H256a10 10 0 0 0-8.338 4.479L204.356 69.89l-73.388 19.425a10.002 10.002 0 0 0-5.268 15.892l48.827 61.399-4.205 75.8a10 10 0 0 0 13.486 9.921l73.482-27.464 70.79 27.421a10 10 0 0 0 13.603-9.76l-3.413-78.373 6.718-8.245c47.929 29.253 78.48 80.234 81.757 136.092H85.251c1.698-29.313 10.851-57.575 26.727-82.29 2.985-4.647 1.638-10.833-3.009-13.818-4.646-2.985-10.833-1.638-13.818 3.009-19.75 30.746-30.188 66.397-30.188 103.1-.001 5.522 4.476 9.999 9.999 9.999m245.401-157.531a10 10 0 0 0-2.238 6.752l2.913 66.888-60.07-23.269a10 10 0 0 0-7.113-.042l-62.714 23.439 3.568-64.321a10 10 0 0 0-2.158-6.778l-41.671-52.401 62.275-16.483a10 10 0 0 0 5.78-4.146l36.959-55.825 34.92 54.134a10 10 0 0 0 5.73 4.215l64.514 17.899zM437.04 452H74.962c-5.523 0-10 4.477-10 10v40.001c0 5.523 4.477 10 10 10H437.04c5.523 0 10-4.477 10-10V462c0-5.522-4.477-10-10-10m-10 40.002H84.962V472H427.04z"/><path d="M142.385 169.742c0-5.523-4.477-10-10-10h-.007c-5.523 0-9.996 4.477-9.996 10 .527 13.264 19.479 13.262 20.003 0"/></svg>