<svg xmlns="http://www.w3.org/2000/svg" width="512" height="512" viewBox="0 0 512.002 512.002"><g fill-rule="evenodd" clip-rule="evenodd"><path fill="#66e0f7" d="M442.972 176.001H10l40.999 80-40.999 80h492.002l-40.999-80 40.999-80h-18.896z"/><path fill="#ff9eb1" d="M79.773 149.236a50 50 0 0 0-6.709 26.765h369.908a50.1 50.1 0 0 0-6.397-19.235c-10.354-17.934-30.095-27.067-49.433-24.782 7.876-44.518-43.43-76.044-79.578-48.956-15.438-42.492-75.634-44.14-93.395-2.608-34.616-29.08-87.571-.41-82.186 44.438-20.201-3.547-41.359 5.584-52.21 24.378"/><path fill="#ff5d7d" d="M156.766 75.426c18.793-10.85 41.683-8.179 57.404 4.995 17.777-41.557 77.973-39.859 93.395 2.608 36.175-27.101 87.455 4.468 79.578 48.956 19.339-2.285 39.079 6.848 49.433 24.782a50.1 50.1 0 0 1 6.397 19.235h40.134a90 90 0 0 0-11.89-39.235c-10.838-18.772-27.748-32.561-47.269-39.676-6.547-21.45-20.973-40.29-41.181-51.958-18.647-10.766-40.192-14.24-60.651-10.688-16.37-15.353-38.284-24.443-61.766-24.443-21.655 0-42.033 7.735-57.949 21.06-21.837-5.083-45.337-1.995-65.634 9.724-18.772 10.838-32.561 27.749-39.675 47.269-21.45 6.547-40.291 20.973-51.958 41.181-8.351 14.464-12.313 30.673-12.014 46.766h39.945c-1.517-31.551 28.544-57.008 58.92-51.142-2.286-19.339 6.847-39.08 24.781-49.434"/><path fill="#ff9eb1" d="M438.938 336.001H69.03c2.793 27.382 29.413 47.641 55.83 44.017-7.876 44.518 43.431 76.044 79.578 48.956 7.028 19.269 25.515 33.027 47.216 33.027 20.708 0 38.488-12.53 46.179-30.42 34.616 29.08 87.571.411 82.186-44.438 30.384 5.866 60.434-19.599 58.919-51.142"/><path fill="#ff5d7d" d="M297.832 431.581c-7.691 17.89-25.47 30.42-46.179 30.42-21.701 0-40.188-13.758-47.216-33.027-36.174 27.101-87.455-4.468-79.578-48.956-26.421 3.625-53.038-16.64-55.83-44.017H28.895a90.06 90.06 0 0 0 11.89 39.235c10.838 18.772 27.748 32.561 47.269 39.675 6.547 21.45 20.973 40.29 41.181 51.958 18.647 10.766 40.192 14.24 60.651 10.689 16.371 15.353 38.284 24.443 61.766 24.443 21.655 0 42.033-7.735 57.949-21.06 21.837 5.082 45.337 1.995 65.634-9.724 18.772-10.838 32.561-27.748 39.675-47.269 21.45-6.547 40.29-20.973 51.958-41.181 8.351-14.464 12.313-30.672 12.014-46.765h-39.945c1.516 31.551-28.544 57.007-58.92 51.141 5.383 44.878-47.596 73.504-82.185 44.438"/></g><path d="m472.24 256.001 38.661-75.439a10 10 0 0 0-8.9-14.561h-9.963c-5.099-33.62-28.678-63.529-60.077-76.503-8.038-22.422-23.586-41.126-44.196-53.025-18.828-10.871-40.834-15.283-62.485-12.605C290.849-6.386 235.981-7.86 199.841 20.32c-23.399-4.262-47.394-.136-68.075 11.805-18.939 10.934-33.801 27.826-42.268 47.915-22.422 8.038-41.126 23.586-53.026 44.195-7.355 12.74-11.804 27.056-13.024 41.766H10a10 10 0 0 0-8.9 14.561l38.661 75.439-38.66 75.439a10 10 0 0 0 8.9 14.561h9.963c5.099 33.619 28.678 63.529 60.077 76.503 8.038 22.422 23.586 41.126 44.195 53.025 18.828 10.871 40.836 15.281 62.485 12.605 34.433 30.252 89.301 31.728 125.44 3.547 23.401 4.263 47.393.136 68.075-11.805 18.938-10.934 33.801-27.826 42.268-47.915 36.488-12.667 63.216-47.432 66.05-85.961h13.447a10 10 0 0 0 8.9-14.561zM53.793 134.235c10.174-17.622 26.588-30.625 46.217-36.616a10 10 0 0 0 6.477-6.14 80.4 80.4 0 0 1 35.28-42.034c17.694-10.216 38.42-13.288 58.366-8.645a10 10 0 0 0 8.686-2.072c29.954-25.889 78.032-24.606 106.455 3.01a10 10 0 0 0 8.551 2.559c18.589-3.227 37.746.146 53.941 9.496 17.622 10.174 30.626 26.587 36.617 46.216a10 10 0 0 0 6.14 6.477 80.4 80.4 0 0 1 42.034 35.281c4.39 7.603 7.46 15.726 9.165 24.234h-20.534a60.2 60.2 0 0 0-5.951-14.235 60.2 60.2 0 0 0-47.363-29.942c-.536-20.671-11.759-40.118-30.107-50.711a60.2 60.2 0 0 0-55.988-2.249c-22.213-36.961-76.858-38.584-101.041-2.817-37.719-20.904-85.852 5.015-88.912 48.081-28.485.257-54.671 23.203-58.207 51.872H43.532c1.16-11.194 4.655-22.055 10.261-31.765m6.105 126.327a10 10 0 0 0 0-9.122l-33.536-65.439h184.636c13.268-.528 13.258-19.477 0-20H83.914a40.4 40.4 0 0 1 4.52-11.765c8.426-14.593 25.232-22.439 41.82-19.527 6.367 1.298 12.595-4.594 11.661-11.022a40.23 40.23 0 0 1 19.851-39.6c14.594-8.425 33.072-6.818 45.981 4a10 10 0 0 0 15.61-3.716c14.355-33.344 62.314-31.919 74.813 2.084a9.998 9.998 0 0 0 15.376 4.587c29.111-21.7 69.922 3.515 63.748 39.212a10 10 0 0 0 11.022 11.661 40.23 40.23 0 0 1 39.6 19.851 41 41 0 0 1 2.128 4.235H300.998c-13.268.528-13.258 19.477 0 20H485.64l-33.536 65.439a10 10 0 0 0 0 9.122l33.536 65.439H26.362zm310.189 127.754a40.23 40.23 0 0 1-19.851 39.6c-14.592 8.425-33.071 6.818-45.981-4a9.998 9.998 0 0 0-15.61 3.715c-14.36 33.348-62.311 31.917-74.813-2.084a10 10 0 0 0-15.376-4.587 40.23 40.23 0 0 1-44.22 2.608c-14.593-8.426-22.44-25.232-19.527-41.82a10 10 0 0 0-2.582-8.6 10.02 10.02 0 0 0-8.44-3.062 40.23 40.23 0 0 1-39.6-19.85 41 41 0 0 1-2.128-4.235h346.129a40.4 40.4 0 0 1-4.52 11.765c-8.426 14.594-25.237 22.438-41.82 19.527a10 10 0 0 0-11.661 11.023m88.122-10.55c-10.174 17.622-26.588 30.626-46.217 36.617a10 10 0 0 0-6.477 6.14 80.4 80.4 0 0 1-35.28 42.033c-17.695 10.216-38.424 13.287-58.367 8.645a10 10 0 0 0-8.687 2.072c-29.954 25.889-78.031 24.605-106.456-3.01a10 10 0 0 0-8.551-2.558c-39.015 7.379-79.595-17.51-90.557-55.714a10 10 0 0 0-6.141-6.476 80.4 80.4 0 0 1-42.033-35.28c-4.39-7.604-7.46-15.727-9.165-24.235h20.534c6.366 24.222 28.718 42.519 53.314 44.176.758 43.116 47.268 71.842 86.096 52.959 22.215 36.961 76.857 38.583 101.041 2.817 18.168 9.871 40.622 9.875 58.971-.718a60.2 60.2 0 0 0 29.941-47.363c20.671-.536 40.118-11.758 50.711-30.106A60.5 60.5 0 0 0 448.382 346h20.086c-1.159 11.196-4.654 22.057-10.259 31.766"/><path d="M311.001 226.001c13.268-.528 13.258-19.477 0-20h-35c-5.523 0-10 4.477-10 10v80c0 5.523 4.477 10 10 10h35c13.268-.528 13.258-19.477 0-20h-25v-20h11c13.268-.528 13.258-19.477 0-20h-11v-20zM235.35 262.341c26.911-14.916 16.833-55.972-14.35-56.34h-20c-5.523 0-10 4.477-10 10v80c.528 13.268 19.477 13.258 20 0v-30h3.82l17.236 34.472c2.479 4.99 8.582 6.92 13.417 4.472 4.94-2.47 6.942-8.477 4.472-13.417zM211 226.001h10c13.214.543 13.285 19.341.094 19.999q-.136-.001-.274.001H211zM165.999 206.001h-35c-5.523 0-10 4.477-10 10v80c.528 13.268 19.477 13.258 20 0v-30h11c13.268-.528 13.258-19.477 0-20h-11v-20h25c13.268-.528 13.258-19.477 0-20M381.003 226.001c13.268-.528 13.258-19.477 0-20h-35c-5.523 0-10 4.477-10 10v80c0 5.523 4.477 10 10 10h35c13.268-.528 13.258-19.477 0-20h-25v-20h11c13.268-.528 13.258-19.477 0-20h-11v-20zM256.001 166.001h-.007c-5.523 0-9.996 4.477-9.996 10 .528 13.263 19.479 13.263 20.003 0 0-5.523-4.477-10-10-10"/></svg>