<svg xmlns="http://www.w3.org/2000/svg" width="512" height="512" viewBox="0 0 511.895 511.895"><g fill-rule="evenodd" clip-rule="evenodd"><path fill="#9de3d1" d="M77.191 176.118h357.513a947 947 0 0 0 .814-21.514c-50.478-14.1-90.222-53.947-104.176-104.486H180.554c-13.954 50.538-53.698 90.386-104.176 104.486.19 7.105.455 14.285.813 21.514"/><path fill="#5cd0b3" d="M180.554 50.118h150.788c13.954 50.538 53.699 90.386 104.176 104.486a959 959 0 0 1-.814 21.514h39.998c.891-18.494 1.245-37.209 1.245-56.001-60.751 0-110-49.248-110-109.999H145.948c0 60.751-49.248 109.999-109.999 109.999 0 18.791.351 37.507 1.241 56.001h40.001a947 947 0 0 1-.813-21.514c50.477-14.1 90.222-53.948 104.176-104.486"/><path fill="#9de3d1" d="M402.487 336.118H109.408c4.632 10.432 9.89 20.47 15.86 29.998 30.896 49.313 76.377 78.054 130.68 94.421 54.303-16.366 99.783-45.108 130.679-94.42 5.97-9.529 11.227-19.567 15.86-29.999"/><path fill="#5cd0b3" d="M255.948 460.537c-54.303-16.366-99.783-45.108-130.68-94.421-5.97-9.528-11.227-19.566-15.86-29.998H66.164c29.242 76.967 85.169 137.969 189.784 166 104.616-28.032 160.549-89.031 189.791-166h-43.252c-4.632 10.432-9.89 20.47-15.859 29.999-30.897 49.312-76.377 78.054-130.68 94.42"/></g><path d="M501.948 326.118H9.947c-13.268.528-13.258 19.477 0 20h49.399c34.613 85.756 98.113 139.962 194.014 165.659 97.537-20.401 164.372-80.062 199.198-165.659h49.391c13.267-.528 13.257-19.476-.001-20m-115.384 20a218 218 0 0 1-8.411 14.689c-26.8 42.774-66.792 71.997-122.206 89.271-55.413-17.274-95.406-46.497-122.206-89.271a218 218 0 0 1-8.411-14.688h261.234zM255.948 491.756c-85.129-23.452-142.478-71.171-174.915-145.638h21.961c4.216 8.907 8.852 17.408 13.801 25.307 29.945 47.795 74.519 80.075 136.268 98.687 1.882.567 3.889.567 5.771 0 61.75-18.611 106.324-50.892 136.269-98.686 4.949-7.9 9.584-16.401 13.8-25.308h21.969c-32.439 74.465-89.79 122.184-174.924 145.638M9.947 186.118h492.001c13.268-.529 13.258-19.476 0-20h-16.809c.543-14.43.807-29.557.807-46 0-5.523-4.478-10-10-10-55.14 0-99.999-44.859-99.999-100 0-5.523-4.478-10-10-10H145.948c-5.523 0-10 4.477-10 10 0 55.14-44.859 100-99.999 100-5.523 0-10 4.477-10 10 0 16.464.264 31.591.805 46H9.947c-13.268.528-13.258 19.477 0 20m36.033-56.416c58.196-4.836 104.729-51.385 109.555-109.584H356.36c4.825 58.199 51.358 104.748 109.555 109.584-.086 12.822-.347 24.85-.791 36.416H445.15c.141-3.695.263-7.455.365-11.245a10 10 0 0 0-7.306-9.901c-46.988-13.125-84.244-50.491-97.228-97.516a10 10 0 0 0-9.64-7.338h-30.397c-13.268.529-13.258 19.476 0 20h22.979c15.737 47.786 53.653 85.863 101.366 101.806q-.073 2.11-.154 4.194H86.76q-.08-2.083-.154-4.194c47.712-15.943 85.629-54.02 101.367-101.806h22.972c13.268-.528 13.258-19.477 0-20h-30.391a10 10 0 0 0-9.639 7.338c-12.984 47.025-50.24 84.392-97.228 97.516a10 10 0 0 0-7.306 9.899c.101 3.789.223 7.55.364 11.246H46.768c-.442-11.552-.702-23.579-.788-36.415"/><path d="M255.948 60.118c13.267-.528 13.257-19.477 0-20h-.007c-13.269.53-13.251 19.479.007 20M162.007 306.118c5.523 0 10-4.477 10-10v-21.715c11.64-4.127 20-15.249 20-28.286v-29.999c-.528-13.268-19.477-13.258-20 0v29.999c-.551 13.27-19.455 13.259-20 0v-29.999c-.528-13.268-19.477-13.258-20 0v29.999c0 13.037 8.36 24.159 20 28.286v21.715c0 5.523 4.477 10 10 10M252.008 226.118c13.269-.528 13.259-19.477 0-20h-35c-5.523 0-10 4.477-10 10v80c0 5.523 4.477 10 10 10h35c13.269-.528 13.259-19.477 0-20h-25v-20h11c13.268-.528 13.258-19.477 0-20h-11v-20zM325.01 306.118c5.522 0 10-4.477 10-10v-60c-1.653-39.809-58.362-39.778-60 0v60c.528 13.268 19.476 13.258 20 0v-20.001h20v20.001c0 5.523 4.477 10 10 10m-30-50.001v-19.999c.551-13.27 19.454-13.259 20 0v19.999zM410.012 236.118c0-16.542-13.458-30-30.001-30h-20c-5.522 0-10 4.477-10 10v80c.528 13.268 19.476 13.258 20 0v-30h3.82l17.237 34.472c2.479 4.99 8.583 6.92 13.417 4.472 4.939-2.47 6.941-8.477 4.472-13.417l-14.595-29.188c9.317-5.095 15.65-14.991 15.65-26.339m-40.001-10h10c13.197.54 13.295 19.304.125 19.998a8 8 0 0 0-.344.002h-9.78v-20zM453.933 285.369c-2.396.991-5.016 1-7.378.022l-5.316-2.202c-5.104-2.112-10.951.31-13.066 5.412-2.113 5.102.31 10.952 5.412 13.065l5.317 2.203c14.573 6.388 32.963-1.242 38.74-16.048 6.256-15.104-.942-32.482-16.047-38.74l-10.634-4.404c-4.79-1.864-7.291-7.905-5.222-12.61.978-2.361 2.835-4.208 5.23-5.2 2.397-.991 5.018-.999 7.378-.021l5.317 2.202c5.101 2.113 10.952-.309 13.065-5.413 2.113-5.103-.311-10.952-5.413-13.065L466 208.367c-7.298-3.022-15.354-3.015-22.684.022-7.332 3.037-13.034 8.729-16.055 16.024-3.023 7.297-3.016 15.354.021 22.685s8.728 13.033 16.025 16.056l10.634 4.404c4.916 2.036 7.259 7.693 5.222 12.61-.977 2.362-2.835 4.209-5.23 5.201M62.005 206.118h-20c-13.268.528-13.258 19.477 0 20h20c13.272.553 13.258 19.454 0 20.001-13.268.528-13.258 19.477 0 20 13.263.546 13.265 19.453 0 20h-20c-13.268.528-13.258 19.477 0 20h20c25.837.09 39.542-31.085 22.342-50 17.207-18.924 3.483-50.095-22.342-50.001"/></svg>