<svg xmlns="http://www.w3.org/2000/svg" width="512" height="512" viewBox="0 0 512.005 512.005"><g fill-rule="evenodd" clip-rule="evenodd"><path fill="#ffc144" d="M111.003 209.98c0-80.081 64.919-145 145-145 192.339 7.637 192.285 282.391-.001 290-80.081-.001-144.999-64.919-144.999-145M303.498 32.941l-33.556-19.136c-8.152-4.827-18.59-5.274-27.42-.262l-34.014 19.398-36.639.194c-10.16-.815-20.372 4.101-25.854 13.492l-19.684 33.679-33.68 19.686c-8.357 4.889-13.442 13.87-13.48 23.536l-.207 38.954-19.136 33.558c-4.827 8.152-5.273 18.59-.262 27.42l19.398 34.014.194 36.639c-.815 10.16 4.101 20.372 13.492 25.854l33.679 19.684 19.685 33.681c4.714 8.059 13.524 13.44 23.536 13.48l6.451.034 32.504.173 33.556 19.136c8.151 4.827 18.59 5.274 27.42.262l34.015-19.398 32.506-.173 4.133-.022c10.16.815 20.372-4.101 25.854-13.492l19.684-33.679 33.68-19.685c8.059-4.714 13.441-13.524 13.48-23.536l.207-38.954 19.136-33.556c4.827-8.151 5.274-18.59.262-27.42l-19.398-34.015-.195-36.639c.815-10.16-4.101-20.372-13.492-25.854L385.674 80.31l-19.685-33.68c-4.714-8.059-13.524-13.441-23.536-13.48z"/><path fill="#ff5d7d" d="m208.506 387.018-32.504-.173v115.136l80-33.37 80 33.37V386.845l-32.506.173-34.015 19.398c-8.83 5.011-19.269 4.565-27.42-.262z"/><path fill="#ffda8f" d="M401.002 209.98c0-80.081-64.919-145-145-145-192.339 7.637-192.285 282.391.001 290 80.081-.001 144.999-64.919 144.999-145"/><path fill="#66e0f7" d="m256.002 294.98 90-100.151-34.377-49.849H200.379l-34.377 49.849z"/></g><path d="m461.126 191.546-18.099-31.737-.18-33.623c.953-14.078-6.253-27.709-18.447-34.828l-31.416-18.361-18.363-31.42c-6.62-11.317-18.932-18.379-32.115-18.43l-36.332-.193-31.213-17.798c-11.48-6.762-25.793-6.884-37.393-.3l-31.736 18.099-33.623.179c-14.083-.945-27.71 6.255-34.827 18.448l-18.361 31.416-31.419 18.363c-11.317 6.62-18.38 18.931-18.431 32.115l-.193 36.332-17.8 31.213c-6.761 11.48-6.882 25.793-.299 37.392l18.099 31.736.179 33.623c-.953 14.078 6.254 27.71 18.448 34.827l31.415 18.362 18.364 31.419c6.03 10.309 16.784 17.087 28.618 18.252v105.349c-.157 6.962 7.486 12.053 13.85 9.229l76.15-31.765 76.15 31.765a10 10 0 0 0 13.85-9.23V396.72c11.764-1.19 22.558-7.956 28.621-18.343l18.361-31.416 31.419-18.364c11.315-6.619 18.378-18.93 18.431-32.115l.193-36.332 17.798-31.211c6.763-11.479 6.885-25.793.301-37.393M259.852 459.382a10 10 0 0 0-7.699 0l-66.15 27.593v-90.076l19.829.105 31.209 17.798c11.488 6.768 25.803 6.881 37.396.301l31.737-18.099 19.829-.105v90.077zm183.72-240.558q-.042.07-.082.142l-19.136 33.556a10 10 0 0 0-1.313 4.9l-.207 38.967c-.024 6.155-3.293 11.881-8.525 14.943l-33.681 19.685a10 10 0 0 0-3.588 3.588l-19.688 33.685c-3.347 5.735-9.808 9.098-16.418 8.565a12 12 0 0 0-.853-.032l-36.638.195a10 10 0 0 0-4.901 1.313l-33.998 19.388a17.38 17.38 0 0 1-17.388-.17l-.142-.083-33.555-19.135a10 10 0 0 0-4.901-1.313l-38.969-.207c-6.154-.024-11.88-3.292-14.941-8.526l-19.686-33.68a10 10 0 0 0-3.588-3.587L97.689 311.33c-5.735-3.347-9.097-9.791-8.565-16.417q.034-.426.032-.853l-.194-36.639a10 10 0 0 0-1.313-4.901l-19.388-33.996a17.37 17.37 0 0 1 .17-17.389q.043-.07.082-.142l19.136-33.556a10 10 0 0 0 1.313-4.9l.207-38.969c.023-6.154 3.291-11.88 8.525-14.941l33.681-19.686a10 10 0 0 0 3.588-3.587l19.688-33.685c3.337-5.74 9.843-9.106 16.417-8.565.283.022.57.033.853.032l36.64-.195a10 10 0 0 0 4.9-1.313l33.997-19.388c5.386-3.057 12.05-2.991 17.388.17l.142.083 33.556 19.135a10 10 0 0 0 4.9 1.313l38.97.208c6.154.024 11.88 3.292 14.941 8.525l19.685 33.681a10 10 0 0 0 3.588 3.588l33.686 19.687c5.734 3.348 9.096 9.792 8.564 16.417q-.034.426-.032.853l.195 36.639a10 10 0 0 0 1.313 4.901l19.388 33.997c3.058 5.386 2.992 12.049-.17 17.387"/><path d="M256.002 54.98C79.136 59.296 41.74 299.62 208.47 357.541c5.26 1.692 10.892-1.198 12.583-6.455s-1.197-10.891-6.454-12.583C69.352 289.144 102.64 77.699 256.004 74.98c153.39 2.731 186.629 214.196 41.397 263.526-5.258 1.692-8.147 7.325-6.456 12.583 1.364 4.239 5.291 6.939 9.518 6.939a10 10 0 0 0 3.065-.484c166.84-57.988 129.218-298.303-47.526-302.564"/><path d="M256.002 344.979h-.007c-5.522 0-9.996 4.477-9.996 10 .528 13.263 19.478 13.262 20.003 0 0-5.523-4.478-10-10-10M256.002 304.98c2.838 0 5.541-1.206 7.438-3.316l90-100.152a10 10 0 0 0 .794-12.361l-34.377-49.849a10 10 0 0 0-8.232-4.323H200.379a10 10 0 0 0-8.232 4.323l-34.377 49.849a10 10 0 0 0 .794 12.361l90 100.152a10 10 0 0 0 7.438 3.316m-28.057-150h56.114l-28.057 25.338zm18.057 113.911-57.569-64.063h57.569zm20-64.063h57.569l-57.569 64.063zm60.956-20h-46.111l28.414-25.661zm-124.216-25.661 28.415 25.661h-46.111z"/></svg>