<svg xmlns="http://www.w3.org/2000/svg" width="512" height="512" viewBox="0 0 512.002 512.002"><g fill-rule="evenodd" clip-rule="evenodd"><path fill="#ffc144" d="M78.946 223.443c26.489-148.087 217.205-199.157 314.076-84.156l41.952-11.241C317.93-35.894 56.881 32.897 37.034 234.673z"/><path fill="#ffda8f" d="M256.001 76.001c-88.293 0-161.732 63.574-177.055 147.441l314.076-84.156c-33.015-38.722-82.146-63.285-137.021-63.285"/><path fill="#ff5d7d" d="M28.661 236.917c-10.263 2.75-18.66 13.999-18.66 25v120c0 11 8.397 17.75 18.66 15l454.681-121.831c10.263-2.75 18.66-14 18.66-25v-120c0-11-8.397-17.75-18.66-15z"/><path fill="#ffda8f" d="M433.056 288.559 118.98 372.715c96.926 115.054 287.623 63.851 314.076-84.156"/><path fill="#ffc144" d="M433.056 288.559c-26.489 148.087-217.205 199.157-314.076 84.156l-41.952 11.241c117.044 163.939 378.094 95.148 397.94-106.628z"/></g><path d="m83.409 331.894-22.412 6.005v-66.968c-.528-13.268-19.476-13.258-20 0v80a10.002 10.002 0 0 0 12.588 9.66l35-9.378c5.335-1.429 8.501-6.913 7.071-12.248s-6.913-8.5-12.247-7.071M120.998 242.175c-5.522 0-10 4.477-10 10v80c.528 13.268 19.476 13.258 20 0v-80c0-5.523-4.477-10-10-10M213.6 218.403a10.006 10.006 0 0 0-11.248 4.635l-20.364 35.077-18.341-21.763a9.999 9.999 0 0 0-17.646 6.444v80c.528 13.268 19.476 13.258 20 0V270.18l9.854 11.692a9.98 9.98 0 0 0 8.517 3.518 10 10 0 0 0 7.778-4.941l8.85-15.247v42.857c.528 13.268 19.476 13.258 20 0v-80a10 10 0 0 0-7.4-9.656M246.001 208.681c-5.522 0-10 4.477-10 10v80c.528 13.268 19.476 13.258 20 0v-80c0-5.523-4.478-10-10-10M313.415 190.265l-35 9.378c-12.725 3.983-7.705 22.257 5.176 19.318l4.912-1.316v66.968c.528 13.268 19.476 13.258 20 0v-72.327l10.088-2.703c5.335-1.429 8.501-6.913 7.071-12.248s-6.915-8.502-12.247-7.07M388.592 190.826c5.335-1.429 8.501-6.913 7.071-12.248s-6.916-8.503-12.247-7.071l-35 9.378a10 10 0 0 0-7.412 9.659v80a10.002 10.002 0 0 0 12.588 9.66l35-9.378c5.335-1.429 8.501-6.913 7.071-12.248s-6.916-8.502-12.247-7.071l-22.412 6.005v-19.295l13.588-3.641c5.335-1.429 8.501-6.913 7.071-12.248s-6.914-8.502-12.247-7.071l-8.412 2.254v-19.294zM460.967 160.811c-6.189-4.75-14.408-6.221-22.55-4.041l-20 5.359a10 10 0 0 0-7.412 9.659v80a10.002 10.002 0 0 0 12.589 9.66l19.999-5.359c15.371-4.118 27.412-20.131 27.412-36.454v-37.128c0-8.894-3.658-16.801-10.038-21.696m-9.962 58.824c0 7.203-6 15.371-12.589 17.136l-7.411 1.986v-59.294l12.589-3.373c1.498-.401 3.614-.625 5.198.589 1.406 1.079 2.213 3.204 2.213 5.828z"/><path d="M502.374 109.311c-5.94-4.56-13.821-5.977-21.62-3.885l-41.795 11.199C313.635-46.191 54.848 23.353 27.863 226.778l-1.79.48C11.452 231.175 0 246.399 0 261.916v120c0 8.507 3.509 16.078 9.628 20.773 4.143 3.179 9.228 4.83 14.57 4.83 2.32 0 4.689-.312 7.05-.944l41.796-11.199c125.323 162.817 384.111 93.271 411.095-110.153l1.79-.48c14.62-3.917 26.072-19.141 26.072-34.659v-120c.001-8.506-3.508-16.078-9.627-20.773m-246.373-63.31c62.626 0 122.164 28.275 161.899 76.266l-21.483 5.756c-54.248-61.019-148.212-79.649-221.604-43.846-4.992 2.362-7.123 8.325-4.76 13.316 2.362 4.992 8.324 7.12 13.316 4.76 62.285-30.366 141.914-17.015 190.942 31.692L92.45 209.471c5.411-19.134 14.124-37.027 26.001-53.356 3.249-4.466 2.262-10.72-2.205-13.969-4.464-3.249-10.719-2.261-13.969 2.205-15.604 21.454-26.325 45.328-31.909 71.037l-21.479 5.755c16.69-100.77 103.419-175.142 207.112-175.142m0 419.999c-62.625 0-122.163-28.275-161.898-76.267l21.482-5.756c102.168 113.69 294.596 61.883 326.049-87.365l21.478-5.755C446.423 391.629 359.694 466 256.001 466M137.69 378.055l281.859-75.524c-33.381 122.173-191.273 165.018-281.859 75.524m354.312-127.97c0 6.451-5.361 13.763-11.248 15.34L26.072 387.257c-1.254.335-3.011.533-4.27-.435-1.146-.879-1.803-2.667-1.803-4.906v-120c0-6.451 5.361-13.763 11.248-15.341L485.93 124.744c1.251-.336 3.009-.532 4.269.434 1.146.879 1.803 2.667 1.803 4.906z"/><path d="M141.146 127.409c13.268-.529 13.258-19.476 0-20h-.007c-13.267.53-13.25 19.478.007 20"/></svg>