<svg xmlns="http://www.w3.org/2000/svg" width="512" height="512" viewBox="0 0 512.002 512.002"><g fill-rule="evenodd" clip-rule="evenodd"><path fill="#66e0f7" d="M256.001 266.001c11.046 0 20-8.954 20-20-1.053-26.529-38.95-26.522-40 0 0 11.045 8.954 20 20 20"/><path fill="#cff5fd" d="M256.001 266.001c-11.046 0-20-8.954-20-20 1.053-26.529 38.951-26.522 40 0 0 11.045-8.954 20-20 20m156-20c0-21.261-4.253-41.53-11.956-60-52.651-127.247-235.488-127.172-288.088 0-15.821 36.498-15.821 83.502 0 120 52.65 127.247 235.488 127.173 288.088 0 7.703-18.471 11.956-38.739 11.956-60"/><path fill="#ff5d7d" d="M100.001 246.001c0-21.261 4.253-41.53 11.956-60H10l30.998 60L10 306h101.956c-7.702-18.47-11.955-38.738-11.955-59.999M400.045 186.001c15.821 36.498 15.821 83.502 0 120h101.957l-30.998-60 30.998-60h-27.787z"/><g fill="#ffc144"><path d="M400.045 186.001h74.169c1.29-21.735 1.785-43.813 1.785-66C415.249 120 366 70.752 366 10.001H146.001C146.001 70.752 96.753 120 36.002 120c0 22.186.489 44.266 1.778 66h74.177c52.651-127.246 235.488-127.172 288.088.001M455.66 306h-55.615c-52.65 127.247-235.489 127.173-288.088 0H56.338c25.72 90.977 81.789 164.416 199.663 196C373.875 470.417 429.94 396.977 455.66 306"/></g></g><path d="m482.259 246.001 28.627-55.41a9.998 9.998 0 0 0-8.884-14.59h-17.239c.831-17.368 1.237-35.786 1.237-56 0-5.523-4.477-10-10-10-55.14 0-100-44.859-100-99.999 0-5.523-4.477-10-10-10H146.001c-5.523 0-10 4.477-10 10 0 12.883-2.418 25.429-7.188 37.288-2.061 5.124.423 10.948 5.547 13.009 5.125 2.062 10.948-.423 13.009-5.547a119.1 119.1 0 0 0 8.222-34.75h200.822c4.825 58.199 51.359 104.747 109.555 109.583-.111 16.543-.517 31.861-1.228 46.416h-58.229c-59.221-127.38-241.852-127.306-301.019 0H47.255c-.707-14.524-1.111-29.842-1.221-46.414a119.2 119.2 0 0 0 32.784-7.462c12.206-5.229 5.432-22.927-7.139-18.683C60.291 107.794 48.288 110 36.002 110c-5.523 0-10 4.477-10 10 0 20.255.403 38.673 1.23 56H10a10 10 0 0 0-8.884 14.59L29.743 246 1.116 301.41A10 10 0 0 0 10 316h38.855c31.333 103.156 98.303 167.189 204.558 195.66 1.695.454 3.48.454 5.176 0 106.252-28.47 173.22-92.502 204.554-195.66h38.859a10 10 0 0 0 8.884-14.591zM174.535 124.897l4.806 8.324c2.777 4.827 8.962 6.396 13.66 3.66 4.783-2.761 6.422-8.877 3.66-13.66l-4.822-8.352a144.9 144.9 0 0 1 54.162-14.529v9.661c.528 13.268 19.477 13.258 20 0v-9.661a144.9 144.9 0 0 1 54.162 14.529l-4.822 8.353c-2.762 4.783-1.123 10.899 3.66 13.66 4.698 2.736 10.883 1.167 13.66-3.66l4.806-8.324a147.2 147.2 0 0 1 39.638 39.638l-8.324 4.806c-4.783 2.761-6.422 8.877-3.66 13.66 2.777 4.828 8.962 6.397 13.66 3.66l8.352-4.822a144.9 144.9 0 0 1 14.529 54.162h-9.661c-13.268.528-13.258 19.477 0 20h9.661a144.9 144.9 0 0 1-14.529 54.162l-8.352-4.822c-11.754-6.176-21.221 10.238-10 17.32l8.324 4.806a147.2 147.2 0 0 1-39.638 39.638l-4.806-8.324c-2.761-4.784-8.878-6.422-13.66-3.66-4.783 2.761-6.422 8.877-3.66 13.66l4.822 8.353a144.9 144.9 0 0 1-54.162 14.529v-9.661c-.528-13.268-19.477-13.258-20 0v9.661a144.9 144.9 0 0 1-54.162-14.529l4.822-8.352c2.762-4.783 1.123-10.899-3.66-13.66s-10.898-1.122-13.66 3.66l-4.806 8.324a147.2 147.2 0 0 1-39.637-39.637l8.324-4.806c4.783-2.761 6.422-8.877 3.66-13.66-2.762-4.784-8.878-6.422-13.66-3.66l-8.352 4.822a144.9 144.9 0 0 1-14.529-54.162h9.661c13.268-.528 13.258-19.477 0-20h-9.661a144.9 144.9 0 0 1 14.529-54.162l8.353 4.822c4.698 2.737 10.883 1.167 13.66-3.66 2.762-4.783 1.123-10.899-3.66-13.66l-8.324-4.806a147.1 147.1 0 0 1 39.636-39.641M49.883 250.591a10 10 0 0 0 0-9.18l-23.46-45.41h71.272c-10.197 31.281-10.197 68.719 0 100H26.422zm206.118 241.047C160.505 465.32 99.474 407.783 69.814 316h35.677c59.221 127.38 241.852 127.306 301.019 0h35.673c-29.659 91.785-90.689 149.321-186.182 175.638M414.308 296c10.197-31.281 10.197-68.719 0-100h71.271l-23.46 45.41a10 10 0 0 0 0 9.18L485.58 296z"/><path d="M256.001 276.001c13.037 0 24.159-8.36 28.286-20h47.712c13.268-.528 13.258-19.477 0-20h-47.712a30.15 30.15 0 0 0-18.286-18.286v-67.712c-.528-13.268-19.477-13.258-20 0v67.713c-31.323 11.594-23.807 57.649 10 58.285m0-20c-5.514 0-10-4.486-10-10 .549-13.266 19.452-13.263 20 0 0 5.514-4.486 10-10 10M113.11 98.45c13.268-.528 13.258-19.477 0-20h-.007c-13.268.53-13.25 19.478.007 20"/></svg>