<svg xmlns="http://www.w3.org/2000/svg" width="512" height="512" viewBox="0 0 512.015 512.015"><path fill="#cbe558" fill-rule="evenodd" d="m222.008 150.001 29.586 29.585L240.765 220l40.414 10.829 10.829 40.415 40.415-10.829L362.008 290l29.586-29.585 40.415 10.829 10.828-40.415L483.252 220l-10.829-40.414 29.585-29.585-29.585-29.586L483.252 80l-40.415-10.829-10.828-40.414-40.415 10.829L362.008 10l-29.585 29.586-40.415-10.829-10.829 40.414L240.765 80l10.829 40.415z" clip-rule="evenodd"/><path d="M30.723 412.002H10.007c-5.523 0-10 4.477-10 10v80c.528 13.268 19.477 13.258 20 0v-30h10.716c40.761-1.662 40.73-58.353 0-60m0 40H20.007v-20h10.716c14.222.56 14.211 19.445 0 20M122.984 468.403c27.781-14.958 17.287-56.06-14.576-56.401H87.691c-5.523 0-10 4.477-10 10v80c.528 13.268 19.477 13.258 20 0v-30h4.633l17.918 34.599c6.594 11.568 23.401 2.758 17.76-9.197zm-25.293-36.401h10.716c14.171.543 14.231 19.368.076 19.999q-.122-.001-.243.001H97.691zM164.124 412.002c-5.523 0-10 4.477-10 10v80c.528 13.268 19.477 13.258 20 0v-80c0-5.523-4.477-10-10-10M219.125 432.002c5.514 0 10 4.486 10 10 .523 13.259 19.474 13.266 20 0-1.648-39.8-58.36-39.786-60.001 0v40c1.651 39.804 58.36 39.783 60.001 0 0-5.523-4.477-10-10-10s-10 4.477-10 10c0 5.514-4.486 10-10 10s-10-4.486-10-10v-40c0-5.514 4.486-10 10-10M309.127 432.002c13.268-.528 13.258-19.477 0-20h-35c-5.523 0-10 4.477-10 10v80c0 5.523 4.477 10 10 10h35c13.268-.528 13.258-19.477 0-20h-25v-20h11c13.268-.528 13.258-19.477 0-20h-11v-20zM10.007 392.001h20c25.838.09 39.543-31.084 22.343-50 17.207-18.924 3.483-50.094-22.343-50h-20c-5.523 0-10 4.477-10 10v80c0 5.523 4.477 10 10 10m20-20h-10v-20h10c13.27.551 13.26 19.454 0 20m0-60.001c13.27.551 13.26 19.455 0 20h-10v-20zM85.007 392h35c13.268-.528 13.258-19.477 0-20h-25v-20h11c13.268-.528 13.258-19.477 0-20h-11v-20h25c13.268-.528 13.258-19.477 0-20h-35c-5.523 0-10 4.477-10 10v80c0 5.523 4.477 10 10 10M197.64 373.703c6.256-15.104-.941-32.482-16.046-38.74l-10.634-4.404c-4.916-2.037-7.258-7.692-5.222-12.61.978-2.361 2.835-4.208 5.231-5.2 2.396-.991 5.017-1 7.377-.022l5.317 2.202c5.103 2.115 10.952-.31 13.065-5.412s-.31-10.952-5.412-13.065l-5.317-2.203c-7.297-3.022-15.353-3.015-22.684.022s-13.034 8.728-16.056 16.025c-6.257 15.104.941 32.483 16.046 38.741l10.634 4.404c4.916 2.036 7.258 7.693 5.222 12.609-.978 2.362-2.836 4.208-5.231 5.201s-5.016 1-7.378.022l-5.316-2.202c-5.101-2.112-10.952.31-13.065 5.412-2.114 5.102.31 10.952 5.412 13.065l5.317 2.202a29.5 29.5 0 0 0 11.302 2.261c11.712.1 23.089-7.384 27.438-18.308M269.89 302.001c0-5.523-4.477-10-10-10h-35c-13.268.528-13.258 19.477 0 20h7.5v70c.528 13.268 19.477 13.258 20 0v-70h7.5c5.523 0 10-4.477 10-10M512.008 150.001c0-2.652-1.054-5.196-2.929-7.071l-25.503-25.503 9.334-34.838c1.43-5.335-1.736-10.818-7.071-12.248l-34.838-9.335-9.335-34.838c-1.429-5.335-6.914-8.5-12.248-7.071l-34.837 9.334L369.08 2.929c-3.905-3.905-10.237-3.905-14.143 0l-25.503 25.503-34.837-9.334c-5.336-1.43-10.818 1.736-12.248 7.071l-9.335 34.838-34.838 9.335c-5.334 1.429-8.5 6.913-7.071 12.248l9.334 34.838-25.502 25.503c-3.905 3.905-3.905 10.237 0 14.142l25.502 25.502-9.334 34.837c-1.43 5.335 1.736 10.818 7.071 12.248l34.838 9.335 9.335 34.838c1.43 5.335 6.915 8.501 12.248 7.071l34.837-9.334 25.503 25.503c3.724 3.873 10.419 3.873 14.143 0l25.503-25.503 34.837 9.334c5.334 1.429 10.818-1.737 12.248-7.071l9.335-34.838 34.838-9.335c5.334-1.429 8.5-6.913 7.071-12.248l-9.334-34.837 25.502-25.502a10 10 0 0 0 2.928-7.072m-46.656 22.513a10 10 0 0 0-2.588 9.66l8.241 30.755-30.755 8.241a10 10 0 0 0-7.071 7.071l-8.241 30.755-30.755-8.241a10 10 0 0 0-9.66 2.588l-22.514 22.515-22.514-22.515a10 10 0 0 0-9.66-2.588l-30.755 8.241-8.241-30.755a10 10 0 0 0-7.071-7.071l-30.755-8.241 8.241-30.755a10 10 0 0 0-2.588-9.66L236.152 150l22.514-22.515a10 10 0 0 0 2.588-9.659l-8.241-30.755 30.755-8.241a10 10 0 0 0 7.071-7.071l8.241-30.755 30.755 8.241a10 10 0 0 0 9.66-2.588l22.514-22.515 22.514 22.515a10 10 0 0 0 9.66 2.588l30.755-8.241 8.241 30.755a10 10 0 0 0 7.071 7.071l30.755 8.241-8.241 30.755a10 10 0 0 0 2.588 9.66l22.515 22.515z"/><path d="m371.224 142.993-10.778-4.464c-5.051-2.092-7.458-7.905-5.366-12.958 2.092-5.052 7.905-7.458 12.957-5.367l5.389 2.232c5.102 2.115 10.953-.309 13.066-5.412s-.309-10.952-5.411-13.066l-5.39-2.233a30 30 0 0 0-3.681-1.253V95c-.528-13.268-19.477-13.258-20 0v7.081c-6.731 3.015-12.369 8.503-15.407 15.838-6.312 15.241.95 32.775 16.19 39.088l10.779 4.464c5.051 2.092 7.458 7.905 5.366 12.958-1.005 2.427-2.914 4.325-5.375 5.345-2.462 1.02-5.154 1.027-7.581.022l-5.389-2.232c-5.101-2.112-10.952.31-13.066 5.412s.309 10.952 5.412 13.066l5.39 2.233q1.815.75 3.681 1.254v5.473c.528 13.268 19.477 13.258 20 0v-7.092c7.015-3.138 12.467-8.73 15.406-15.827 6.312-15.242-.951-32.777-16.192-39.09M362.008 330.003c-5.523 0-10 4.477-10 10v41.998c.528 13.268 19.477 13.258 20 0v-41.998c0-5.523-4.477-10-10-10M465.473 311.045c-2.762-4.784-8.878-6.423-13.66-3.66-4.783 2.761-6.422 8.877-3.66 13.66l20.999 36.371c2.777 4.828 8.962 6.397 13.66 3.66 4.783-2.761 6.422-8.877 3.66-13.66zM161.1 42.001 197.47 63c4.698 2.737 10.883 1.167 13.66-3.66 2.762-4.783 1.123-10.899-3.66-13.66L171.1 24.681c-4.782-2.762-10.899-1.123-13.66 3.66s-1.123 10.899 3.66 13.66M133.819 158.422h41.998c13.268-.528 13.258-19.477 0-20h-41.998c-13.268.528-13.258 19.477 0 20M88.831 158.422c13.268-.528 13.258-19.477 0-20h-.007c-13.269.53-13.251 19.479.007 20"/></svg>