<svg xmlns="http://www.w3.org/2000/svg" width="512" height="512" viewBox="0 0 512.002 512.002"><g fill-rule="evenodd" clip-rule="evenodd"><path fill="#ffc144" d="M82.053 328.052v13.95H429.95v-13.95L502.001 256l-72.051-72.051V82.052H328.053L256.001 10 183.95 82.052H82.053v101.897L10.001 256z"/><path fill="#5cd0b3" d="M429.95 342.002H10.001l30.998 80-30.998 80h492.001l-30.998-80 30.998-80z"/></g><path d="M131.001 372.002c-5.522 0-10 4.477-10 10v30h-20.002v-30c-.528-13.268-19.476-13.258-20 0v80c.528 13.268 19.476 13.258 20 0v-30h20.002v30c.528 13.268 19.476 13.258 20 0v-80c0-5.523-4.477-10-10-10M186.001 372.002c-16.542 0-30 13.458-30 30v60c.528 13.268 19.476 13.258 20 0v-20.001h20v20.001c.528 13.268 19.476 13.258 20 0v-60c0-16.542-13.458-30-30-30m-10 49.999v-19.999c.551-13.27 19.454-13.259 20 0v19.999zM276.001 452.002h-25v-70c-.528-13.268-19.476-13.258-20 0v80c0 5.523 4.478 10 10 10h35c13.268-.528 13.258-19.476 0-20M331.003 372.002c-16.542 0-30 13.458-30 30v60c.528 13.268 19.476 13.258 20 0v-20.001h20v20.001c.528 13.268 19.476 13.258 20 0v-60c0-16.542-13.458-30-30-30m-10 49.999v-19.999c.551-13.27 19.454-13.259 20 0v19.999zM421.003 452.002h-25v-70c-.528-13.268-19.476-13.258-20 0v80c0 5.523 4.478 10 10 10h35c13.268-.528 13.258-19.476 0-20"/><path d="m481.729 422.002 29.598-76.387a10.003 10.003 0 0 0-9.324-13.614h-61.861l68.931-68.931c3.905-3.905 3.905-10.237 0-14.143l-69.123-69.123V82.052c0-5.523-4.478-10-10-10h-97.754L263.072 2.929c-3.906-3.905-10.236-3.905-14.143 0l-69.123 69.123H82.053c-5.522 0-10 4.477-10 10v97.754L2.93 248.929c-3.905 3.905-3.905 10.237 0 14.143l68.931 68.931H10a10 10 0 0 0-9.324 13.613l29.599 76.387L.676 498.389A10 10 0 0 0 10 512.002h492.002a10 10 0 0 0 9.324-13.614zm-457.129 70 25.724-66.387a10 10 0 0 0 0-7.227L24.6 352.002h186.398c13.268-.529 13.258-19.476 0-20H92.053v-3.95c0-2.652-1.054-5.196-2.929-7.071L24.144 256l64.98-64.98a10 10 0 0 0 2.929-7.071V92.052h91.896c2.652 0 5.195-1.054 7.071-2.929L256 24.142l64.98 64.981a10 10 0 0 0 7.071 2.929h91.896v91.896c0 2.652 1.054 5.196 2.929 7.071l64.98 64.98-64.98 64.98a10 10 0 0 0-2.929 7.071V332H300.998c-13.268.529-13.258 19.476 0 20h186.404l-25.723 66.387a10 10 0 0 0 0 7.227l25.723 66.387z"/><path d="M262.09 281.635h143.187c11.146-.175 13.836-15.402 3.436-19.391-13.892-5.083-27.936-17.292-40.327-28.062-14.205-12.463-37.188-32.618-48.929-20.879L305.35 229.72c-3.6 4.189-3.122 10.502 1.066 14.102 4.191 3.601 10.504 3.121 14.102-1.067l10.274-11.956c6.491 2.846 16.301 11.374 24.473 18.478 4.659 4.051 9.531 8.286 14.614 12.36h-79.521v-123.9c-.528-13.268-19.476-13.258-20 0v53.167l-34.735-34.735c-3.906-3.905-10.236-3.905-14.143 0-3.905 3.906-3.905 10.237 0 14.143l48.878 48.877v42.447h-8.47c-.149 0-.343.005-.492.012-.188.008-18.074.688-28.872-9.635-5.789-5.535-8.604-13.296-8.604-23.728 0-5.523-4.478-10-10-10s-10 4.477-10 10c0 16.039 5.021 28.931 14.925 38.318 15.871 14.52 35.38 15.024 43.245 15.032M180.088 127.737c-5.522 0-10 4.477-10 10v100.295c0 14.712-11.969 26.681-26.681 26.681s-26.681-11.969-26.681-26.681c-.522-13.258-19.474-13.267-20 0 2.565 61.933 90.81 61.906 93.361 0V137.737c.001-5.523-4.477-10-9.999-10M255.994 332.002c-5.522 0-9.996 4.477-9.996 10 .528 13.263 19.478 13.262 20.003 0 0-5.525-4.482-10.004-10.007-10"/></svg>