<svg xmlns="http://www.w3.org/2000/svg" width="512" height="512" viewBox="0 0 512.021 512.021"><g fill-rule="evenodd" clip-rule="evenodd"><path fill="#5cd0b3" d="M95.901 336.022h406.11l-50.999-80 50.999-80H10.01l50.999 80-50.999 80h44.48z"/><path fill="#ff9eb1" d="M95.901 176.022H416.12l3.943-14.716-54.684-14.652-14.653-54.685-54.684 14.653L256.01 66.59l-40.031 40.032-54.684-14.653-14.653 54.685-54.684 14.652z"/><path fill="#ff5d7d" d="m146.642 146.654 14.653-54.685 54.684 14.653L256.01 66.59l40.032 40.032 54.684-14.653 14.653 54.685 54.684 14.652-3.943 14.716h41.411l11.522-43-71.014-19.028-19.028-71.014-71.015 19.028-51.986-51.986-51.986 51.986L133.01 42.98l-19.028 71.014-71.014 19.028 11.522 43h41.411l-3.943-14.716z"/><path fill="#ff9eb1" d="M416.12 336.022H95.901l-3.943 14.716 54.684 14.652 14.653 54.684 54.684-14.652 40.031 40.032 40.032-40.032 54.684 14.652 14.653-54.684 54.684-14.652z"/><path fill="#ff5d7d" d="m161.295 420.074-14.653-54.684-54.684-14.652 3.943-14.716H54.49l-11.522 43 71.014 19.028 19.028 71.014 71.014-19.028 51.986 51.986 51.986-51.986 71.015 19.028 19.028-71.014 71.014-19.028-11.522-43H416.12l3.943 14.716-54.684 14.652-14.653 54.684-54.684-14.652-40.032 40.032-40.031-40.032z"/></g><path d="M198.509 206.022c-5.523 0-10 4.478-10 10v41.824l-26.284-46.727a10 10 0 0 0-18.716 4.903v80c.529 13.268 19.476 13.258 20 0v-41.824l26.284 46.727c2.224 3.988 6.937 5.923 11.25 4.771a10 10 0 0 0 7.466-9.674v-80c0-5.522-4.477-10-10-10M268.51 226.022c13.268-.528 13.258-19.476 0-20h-35c-5.523 0-10 4.478-10 10v80c0 5.522 4.477 10 10 10h35c13.268-.529 13.258-19.476 0-20h-25v-20h11c13.268-.529 13.258-19.476 0-20h-11v-20zM358.512 206.022c-5.523 0-10 4.478-10 10v47.804l-9.26-13.469c-3.749-5.724-12.732-5.723-16.48 0l-9.26 13.468v-47.803c-.529-13.268-19.476-13.258-20 0v80a10 10 0 0 0 18.241 5.665l19.26-28.014 19.26 28.014a10 10 0 0 0 18.241-5.665v-80c-.002-5.522-4.479-10-10.002-10"/><path d="m462.872 256.022 47.572-74.624c4.278-6.467-.682-15.506-8.432-15.376h-31.449l8.149-30.412c1.493-5.161-1.855-10.959-7.071-12.247l-65.438-17.534-17.533-65.438a10 10 0 0 0-12.247-7.071l-65.437 17.534-47.904-47.903c-3.905-3.904-10.237-3.904-14.143 0l-47.903 47.903-65.437-17.534a9.997 9.997 0 0 0-12.247 7.071l-17.534 65.438-65.438 17.534c-5.216 1.288-8.564 7.086-7.071 12.247l8.149 30.412H10.009c-7.752-.13-12.709 8.911-8.432 15.376l47.572 74.624-47.572 74.624c-4.278 6.467.682 15.506 8.432 15.376h31.448l-8.149 30.412c-1.493 5.161 1.855 10.959 7.071 12.247l65.438 17.534 17.534 65.437c1.429 5.335 6.911 8.501 12.248 7.071l65.437-17.534 47.903 47.904c3.724 3.873 10.419 3.873 14.143 0l47.903-47.904 65.437 17.534c5.336 1.431 10.818-1.736 12.248-7.071l17.534-65.437 65.438-17.534c5.216-1.288 8.564-7.086 7.071-12.247l-8.149-30.412h31.448c7.752.13 12.709-8.911 8.432-15.376zM55.216 140.093l61.355-16.44a10 10 0 0 0 7.071-7.071l16.44-61.355 61.354 16.44a10 10 0 0 0 9.659-2.588l44.915-44.914 44.915 44.914a10 10 0 0 0 9.659 2.588l61.354-16.44 16.44 61.355a10 10 0 0 0 7.071 7.071l61.355 16.44-6.948 25.929h-20.705l.57-2.127a10 10 0 0 0-7.071-12.248l-49.108-13.158-13.158-49.107c-1.288-5.217-7.086-8.565-12.248-7.071l-49.107 13.158L263.08 59.52c-3.905-3.904-10.237-3.904-14.143 0L212.99 95.468 163.883 82.31a9.997 9.997 0 0 0-12.247 7.071l-13.158 49.107-49.108 13.158a10 10 0 0 0-7.071 12.248l.57 2.127H62.163zm401.589 231.858-61.355 16.44a10 10 0 0 0-7.071 7.071l-16.44 61.354-61.354-16.44a10 10 0 0 0-9.66 2.588L256.01 487.88l-44.915-44.915a10 10 0 0 0-9.66-2.588l-61.354 16.44-16.44-61.354a10 10 0 0 0-7.071-7.071l-61.355-16.44 6.948-25.929h20.705l-.57 2.127a10 10 0 0 0 7.071 12.248l49.108 13.158 13.158 49.107a10 10 0 0 0 12.247 7.071l49.107-13.159 35.949 35.95c3.724 3.873 10.419 3.873 14.143 0l35.949-35.95 49.107 13.159c5.162 1.494 10.959-1.855 12.248-7.071l13.158-49.107 49.108-13.158a10 10 0 0 0 7.071-12.248l-.57-2.127h20.705zm-343.809-25.929h286.028l-36.234 9.709a10 10 0 0 0-7.071 7.071l-12.064 45.024-45.024-12.064a10 10 0 0 0-9.66 2.588l-32.96 32.961-32.96-32.961a10 10 0 0 0-9.66-2.588l-45.024 12.064-12.064-45.024a10 10 0 0 0-7.071-7.071zm-84.753-20 41.197-64.624a10 10 0 0 0 0-10.752l-41.197-64.624h182.764c13.268-.528 13.258-19.476 0-20h-98.011l36.234-9.709a10 10 0 0 0 7.071-7.071l12.064-45.025 45.024 12.064a10 10 0 0 0 9.66-2.588l32.96-32.96 32.96 32.96a10 10 0 0 0 9.66 2.588l45.024-12.064 12.064 45.025a10 10 0 0 0 7.071 7.071l36.234 9.709h-98.017c-13.268.528-13.258 19.476 0 20h182.771l-41.197 64.624a10 10 0 0 0 0 10.752l41.197 64.624z"/><path d="M256.01 186.022c13.268-.528 13.258-19.476 0-20h-.007c-13.268.53-13.25 19.478.007 20"/></svg>