<svg xmlns="http://www.w3.org/2000/svg" width="512" height="512" viewBox="0 0 512.011 512.011"><g fill-rule="evenodd" clip-rule="evenodd"><path fill="#ffc144" d="m256.005 127.072-42.801 64.65-72.646 19.229 48.259 60.684-4.162 75.032 72.627-27.144 70.074 27.144-3.373-77.46 47.471-58.256-74.713-20.73z"/><path fill="#cff5fd" d="m213.204 191.722 42.801-64.65 40.736 63.149 74.712 20.729-47.47 58.256 3.373 77.461-70.074-27.145-72.627 27.145 4.162-75.033-48.259-60.684zm85.058-112.557c-15.041-38.006-69.487-37.983-84.513 0-32.029-25.393-79.17 1.849-73.191 42.257-40.435-5.977-67.638 41.186-42.257 73.191-38.006 15.041-37.983 69.487 0 84.513-25.393 32.029 1.849 79.17 42.257 73.191-5.977 40.435 41.186 67.638 73.191 42.257 15.041 38.006 69.487 37.983 84.513 0 32.029 25.393 79.17-1.849 73.191-42.257 40.435 5.977 67.638-41.186 42.257-73.191 38.006-15.041 37.983-69.487 0-84.513 25.393-32.029-1.849-79.17-42.257-73.191 5.977-40.435-41.186-67.638-73.191-42.257"/><path fill="#66e0f7" d="M140.558 352.318c-40.435 5.977-67.638-41.186-42.257-73.191-38.006-15.041-37.983-69.487 0-84.513-25.393-32.029 1.849-79.17 42.257-73.191-5.977-40.435 41.186-67.638 73.191-42.257 15.041-38.006 69.487-37.983 84.513 0 32.029-25.393 79.17 1.849 73.191 42.257 40.435-5.977 67.638 41.186 42.257 73.191 38.006 15.041 37.983 69.487 0 84.513 25.393 32.029-1.849 79.17-42.257 73.191 5.977 40.435-41.186 67.638-73.191 42.257-15.041 38.006-69.487 37.983-84.513 0-32.029 25.393-79.17-1.849-73.191-42.257M45.134 463.74h164.664l32.681 32.681c7.441 7.44 19.614 7.44 27.054.001l32.682-32.681h164.661c10.521 0 19.13-8.608 19.13-19.129V29.129c0-10.522-8.643-19.129-19.13-19.129H45.134c-10.486 0-19.129 8.643-19.129 19.129v415.482c0 10.495 8.608 19.129 19.129 19.129"/></g><path d="M466.876 0H45.134C29.072 0 16.005 13.067 16.005 29.129v415.482c0 16.062 13.067 29.129 29.129 29.129h160.522l29.752 29.752c5.68 5.68 13.138 8.519 20.599 8.519 7.459-.001 14.919-2.84 20.597-8.518l29.753-29.753h160.519c16.062 0 29.129-13.067 29.129-29.129V29.129C496.006 13.067 482.938 0 466.876 0m9.13 444.611c0 5.033-4.095 9.129-9.129 9.129H302.215a10 10 0 0 0-7.071 2.929l-32.682 32.682c-3.56 3.56-9.352 3.559-12.912-.001l-32.682-32.681a10 10 0 0 0-7.071-2.929H45.134c-4.949 0-9.129-4.181-9.129-9.129V29.129c0-4.948 4.181-9.129 9.129-9.129h421.742c4.949 0 9.129 4.181 9.129 9.129v415.482z"/><path d="m374.127 201.314-71.045-19.712-38.673-59.951a10 10 0 0 0-8.344-4.579h-.06a10 10 0 0 0-8.338 4.479l-17.958 27.124c-3.049 4.605-1.787 10.81 2.818 13.858s10.81 1.788 13.859-2.817l9.511-14.365 32.442 50.291a10 10 0 0 0 5.73 4.215l59.967 16.638-37.805 46.396a10 10 0 0 0-2.238 6.751l2.708 62.174-55.806-21.618a10 10 0 0 0-7.113-.042l-58.293 21.787 3.314-59.754a10 10 0 0 0-2.158-6.778l-38.735-48.708 14.348-3.798c5.339-1.413 8.522-6.887 7.108-12.226-1.413-5.339-6.884-8.524-12.226-7.108L138 201.284a9.998 9.998 0 0 0-5.268 15.892l45.89 57.706-3.951 71.232a10 10 0 0 0 4.059 8.608 9.99 9.99 0 0 0 9.427 1.312l69.062-25.812 66.526 25.771a10 10 0 0 0 13.603-9.76l-3.208-73.658 45.066-55.308c4.569-5.355 1.744-14.226-5.079-15.953"/><path d="M427.877 190.817c8.073-16.375 7.621-35.812-1.804-52.136-9.424-16.324-26.032-26.435-44.249-27.631-1.196-18.218-11.307-34.824-27.63-44.248-16.324-9.426-35.761-9.877-52.136-1.805-21.04-32.484-71.072-32.471-92.106 0-34.46-17.609-77.789 7.416-79.766 46.053-18.216 1.197-34.825 11.308-44.249 27.631-9.425 16.323-9.877 35.761-1.804 52.136-32.481 21.042-32.471 71.072 0 92.105-17.608 34.462 7.416 77.789 46.053 79.767 1.196 18.217 11.307 34.824 27.63 44.248 16.324 9.426 35.761 9.878 52.136 1.805 21.04 32.481 71.072 32.47 92.106 0 16.375 8.073 35.813 7.621 52.136-1.805 16.324-9.424 26.434-26.031 27.63-44.248 18.215-1.198 34.825-11.308 44.249-27.631s9.875-35.762 1.805-52.136c32.48-21.039 32.473-71.074-.001-92.105m-17.861 79.017a10 10 0 0 0-4.152 15.493c9.066 11.472 10.2 27.067 2.888 39.731s-21.385 19.48-35.853 17.365a10.002 10.002 0 0 0-11.342 11.342c2.116 14.468-4.7 28.54-17.365 35.852-12.662 7.311-28.259 6.179-39.731-2.888a10 10 0 0 0-15.493 4.152c-11.607 29.66-54.33 29.648-65.928 0a10 10 0 0 0-15.493-4.152c-11.472 9.066-27.068 10.199-39.732 2.888-12.664-7.312-19.48-21.384-17.364-35.852a10 10 0 0 0-2.824-8.519 9.99 9.99 0 0 0-8.518-2.823c-31.489 4.775-52.843-32.225-32.964-57.097a10 10 0 0 0 1.813-8.788 10 10 0 0 0-5.965-6.705c-13.587-5.401-22.367-18.341-22.367-32.964s8.779-27.562 22.367-32.964a10 10 0 0 0 4.152-15.493c-19.884-24.881 1.489-61.878 32.964-57.097a10.002 10.002 0 0 0 11.342-11.342c-2.116-14.468 4.7-28.54 17.364-35.852 12.666-7.311 28.26-6.178 39.732 2.888a10 10 0 0 0 15.494-4.152c11.608-29.662 54.327-29.65 65.928.001a10.003 10.003 0 0 0 15.493 4.151c11.472-9.067 27.068-10.2 39.732-2.888s19.48 21.384 17.364 35.852a10 10 0 0 0 2.824 8.519 9.99 9.99 0 0 0 8.518 2.823c14.468-2.115 28.54 4.701 35.853 17.365 7.312 12.664 6.178 28.26-2.888 39.731a10 10 0 0 0 4.152 15.493c29.657 11.604 29.65 54.334-.001 65.93"/><path d="M213.211 201.722c13.268-.528 13.258-19.476 0-20h-.007c-13.268.53-13.25 19.478.007 20"/></svg>