<svg xmlns="http://www.w3.org/2000/svg" width="512" height="512" viewBox="0 0 512.001 512.001"><g fill-rule="evenodd" clip-rule="evenodd"><path fill="#5cd0b3" d="M78.946 223.443c26.489-148.087 217.205-199.157 314.076-84.156l41.952-11.241C317.929-35.894 56.88 32.897 37.033 234.673z"/><path fill="#9de3d1" d="M256.001 76.001c-88.293 0-161.731 63.574-177.055 147.441l314.076-84.156c-33.016-38.722-82.147-63.285-137.021-63.285"/><path fill="#cbe558" d="M28.66 236.917c-10.263 2.75-18.66 13.999-18.66 25v120c0 11 8.397 17.75 18.66 15l454.681-121.831c10.263-2.75 18.66-14 18.66-25v-120c0-11.001-8.397-17.75-18.66-15Q256.001 176 28.66 236.917"/><path fill="#9de3d1" d="M433.056 288.559 118.98 372.715c96.926 115.054 287.623 63.85 314.076-84.156"/><path fill="#5cd0b3" d="M433.056 288.559c-26.489 148.088-217.205 199.157-314.076 84.156l-41.952 11.241c117.044 163.939 378.094 95.148 397.94-106.628z"/></g><path d="M502.374 109.312c-5.94-4.558-13.822-5.977-21.621-3.886l-41.795 11.199C313.635-46.192 54.848 23.353 27.863 226.777l-1.791.48C11.452 231.174 0 246.398 0 261.916v120.001c0 8.507 3.509 16.078 9.627 20.772 6.011 4.671 14.224 5.922 21.622 3.886l41.795-11.199c125.323 162.816 384.11 93.271 411.095-110.153l1.79-.48c14.62-3.917 26.072-19.142 26.072-34.659v-120c0-8.506-3.509-16.078-9.627-20.772M256 46.001c62.626 0 122.164 28.275 161.899 76.266l-21.484 5.757c-54.247-61.019-148.213-79.649-221.603-43.845-4.991 2.362-7.122 8.324-4.76 13.316 2.364 4.991 8.326 7.124 13.317 4.759 62.284-30.365 141.915-17.014 190.941 31.693L92.449 209.471c5.411-19.135 14.125-37.028 26.001-53.356 3.249-4.466 2.262-10.72-2.205-13.969-4.465-3.248-10.72-2.261-13.969 2.205-15.604 21.452-26.325 45.326-31.91 71.036l-21.478 5.755C65.579 120.373 152.308 46.001 256 46.001M256 466c-62.625 0-122.163-28.275-161.899-76.266l21.483-5.756c102.167 113.69 294.596 61.882 326.048-87.364l21.478-5.755C446.422 391.628 359.693 466 256 466m-118.311-87.945 281.858-75.524c-33.38 122.173-191.272 165.017-281.858 75.524m354.312-127.97c0 6.451-5.361 13.764-11.248 15.341L26.072 387.257c-1.253.334-3.01.532-4.27-.435-1.145-.879-1.802-2.667-1.802-4.905V261.916c0-6.451 5.361-13.764 11.248-15.341l454.68-121.831c1.336-.36 3.062-.5 4.27.435 1.146.879 1.803 2.667 1.803 4.906z"/><path d="M140.883 246.928c-6.405-4.914-15.084-6.396-23.815-4.053l-20.716 5.551a10 10 0 0 0-7.412 9.659v80c.529 13.268 19.476 13.258 20 0v-32.327l13.304-3.564c23.28-5.669 39.234-38.747 18.639-55.266m-23.815 35.947-8.128 2.178v-19.295l13.304-3.564c2.676-.715 5.031-.497 6.463.602 1.104.848 1.664 2.257 1.664 4.188.001 6.451-6.34 14.025-13.303 15.891M211.523 275.899c16.3-10.815 23.765-36.82 7.044-49.788-6.406-4.914-15.086-6.393-23.814-4.052l-20.716 5.551a10 10 0 0 0-7.412 9.659v80c.529 13.268 19.476 13.258 20 0v-32.327l6.028-1.615 16.834 27.994c2.863 4.775 9.068 6.238 13.723 3.417 4.733-2.847 6.263-8.99 3.417-13.724zm-24.898-30.957 13.305-3.564c2.676-.718 5.031-.497 6.462.601 1.104.848 1.664 2.257 1.664 4.189 0 6.407-6.254 13.923-13.16 15.852a12 12 0 0 0-.326.088l-7.944 2.129v-19.295zM253.058 206.789c-5.523 0-10 4.478-10 10v80c.529 13.268 19.476 13.258 20 0v-80c0-5.522-4.478-10-10-10M415.649 183.575c5.334-1.43 8.5-6.913 7.07-12.247-1.43-5.335-6.911-8.502-12.248-7.071l-35 9.379a10 10 0 0 0-7.411 9.659v80a10.002 10.002 0 0 0 12.589 9.66l35-9.379c5.334-1.43 8.5-6.913 7.07-12.247-1.43-5.335-6.911-8.502-12.248-7.071l-22.411 6.006v-19.295l13.588-3.64c12.679-3.941 7.766-22.247-5.176-19.318l-8.412 2.254V190.97zM345.659 183.018a10 10 0 0 0-11.248 4.636l-20.365 35.076-18.341-21.763a9.998 9.998 0 0 0-17.646 6.445v79.999c.529 13.268 19.476 13.258 20 0v-52.615l9.854 11.691a9.999 9.999 0 0 0 16.295-1.423l8.853-15.248v42.858c.529 13.268 19.476 13.258 20 0v-79.999a10 10 0 0 0-7.402-9.657M141.146 127.409c13.268-.528 13.258-19.476 0-20h-.007c-13.268.53-13.25 19.478.007 20"/></svg>