<svg xmlns="http://www.w3.org/2000/svg" width="512" height="512" viewBox="0 0 512.001 512.001"><g fill-rule="evenodd" clip-rule="evenodd"><path fill="#6d91ac" d="M392 286.168c-17.77 0-33.735 7.725-44.722 20-34.333 37.859-6.984 100.22 44.723 100 51.704.221 79.057-62.151 44.721-100-10.987-12.275-26.953-20-44.722-20m0 40.001c11.046 0 20 8.954 20 20-1.054 26.529-38.95 26.522-40 0 0-11.046 8.954-20 20-20"/><path fill="#e3eaef" d="M392 326.169c-11.045 0-20 8.954-20 20 1.054 26.529 38.95 26.522 40 0-.001-11.046-8.955-20-20-20"/><path fill="#a7bdcd" d="M436.722 306.168C446.223 316.783 452 330.801 452 346.167h40.002c5.498 0 10-4.5 10-10v-20c0-5.5-4.501-10-10-10zM332 346.169c0-15.367 5.777-29.385 15.278-40H164.723c9.501 10.615 15.278 24.633 15.278 39.999z"/><path fill="#6d91ac" d="M180.001 346.169c0-15.367-5.777-29.385-15.278-40-22.81-26.48-66.643-26.471-89.444 0-34.336 37.865-6.98 100.219 44.723 100 33.136-.001 59.999-26.863 59.999-60m-60-20c11.046 0 20 8.954 20 20-1.054 26.529-38.95 26.522-40 0 0-11.046 8.955-20 20-20"/><path fill="#e3eaef" d="M140.001 346.169c0-11.046-8.954-20-20-20-26.529 1.054-26.522 38.95 0 40 11.046-.001 20-8.955 20-20"/><path fill="#a7bdcd" d="M60.001 346.169c0-15.367 5.777-29.385 15.278-40h-55.28c-5.499 0-10 4.499-10 10v20c0 5.5 4.501 10 10 10z"/><path fill="#66e0f7" d="M356.004 155.542v80h84.999l-29.258-80z"/><path fill="#ffc144" d="M356.004 235.542v-80h55.741l-10.743-29.375c-3.778-10.329-13.757-20-30-20H39.999c-10.998 0-20 9.001-20 20v180.001h55.28c22.809-26.479 66.642-26.47 89.443 0h182.556c22.809-26.479 66.642-26.47 89.443 0h55.28v-30.626c0-21.999-18.001-40-40-40h-10.999z"/></g><path d="M208.002 245.542h35c13.268-.529 13.258-19.476 0-20h-25v-20h11c13.268-.529 13.258-19.476 0-20h-11v-20h25c13.268-.529 13.258-19.476 0-20h-35c-5.522 0-10 4.478-10 10v80c0 5.522 4.477 10 10 10M133.001 245.542c5.522 0 10-4.478 10-10v-30h3.819l17.236 34.473c6.431 11.66 23.359 3.09 17.889-8.945l-14.594-29.188c26.911-14.916 16.832-55.972-14.35-56.339h-20c-5.522 0-10 4.478-10 10v80c0 5.521 4.478 9.999 10 9.999m10-80h10c13.199.541 13.292 19.31.119 19.998a9 9 0 0 0-.332.002h-9.787zM63 245.542c5.522 0 10-4.478 10-10v-30h11c13.268-.529 13.258-19.476 0-20H73v-20h25c13.268-.529 13.258-19.476 0-20H63c-5.522 0-10 4.478-10 10v80c0 5.522 4.478 10 10 10M278.003 245.542h35c13.268-.529 13.258-19.476 0-20h-25v-20h11c13.268-.529 13.258-19.476 0-20h-11v-20h25c13.268-.529 13.258-19.476 0-20h-35c-5.522 0-10 4.478-10 10v80c0 5.522 4.477 10 10 10M120.001 316.168c-16.542 0-30 13.458-30 30 1.648 39.799 58.358 39.787 60 0 0-16.542-13.458-30-30-30m0 40c-5.514 0-10-4.486-10-10 .55-13.266 19.452-13.262 20 0 0 5.514-4.486 10-10 10M392 316.168c-16.542 0-30 13.458-30 30 1.648 39.799 58.357 39.788 59.999 0 0-16.542-13.457-30-29.999-30m0 40c-5.514 0-10-4.486-10-10 .55-13.266 19.452-13.263 19.999 0 0 5.514-4.485 10-9.999 10"/><path d="M502.001 298.852v-23.31c0-27.57-22.43-50-49.999-50h-4.008l-37.601-102.811C405.695 109.889 392.88 96.167 371 96.167H39.999c-16.542 0-30 13.458-30 30v172.686C4.026 302.316 0 308.78 0 316.168v20c0 11.028 8.972 20 19.999 20h30.714c13.3 79.583 125.306 79.526 138.575 0h133.424c13.299 79.583 125.306 79.526 138.574 0H492c11.028 0 20-8.972 20-20v-20c.001-7.388-4.025-13.853-9.999-17.316m-97.246-133.31 21.943 60h-60.694v-60zM39.999 116.167h331.002c14.563 0 19.457 10.283 20.609 13.435l5.83 15.94h-41.437c-5.522 0-10 4.478-10 10v80c0 5.522 4.478 10 10 10h95.998c16.541 0 29.999 13.458 29.999 30v20.626h-41.059c-25.987-26.473-71.906-26.465-97.885 0h-41.701c-13.268.529-13.258 19.476 0 20h27.403a69.4 69.4 0 0 0-6.047 20H189.288a69.4 69.4 0 0 0-6.047-20h28.115c13.268-.529 13.258-19.476 0-20h-42.413c-25.987-26.472-71.906-26.465-97.885 0h-41.06V126.167c.001-5.514 4.487-10 10.001-10m-20 200.001h36.762a69.4 69.4 0 0 0-6.047 20H20zm100.002 80c-27.57 0-50-22.43-50-50 2.746-66.332 97.264-66.313 100 0 0 27.57-22.43 50-50 50m271.999 0c-27.57 0-50-22.43-50-50 2.746-66.331 97.263-66.313 99.999 0 0 27.57-22.43 50-49.999 50m100.001-60h-30.714a69.4 69.4 0 0 0-6.047-20h36.762v20z"/><path d="M246.356 306.168c0 5.522 4.48 10 10.003 10 13.265-.527 13.26-19.475 0-20h-.007c-5.522 0-9.996 4.478-9.996 10"/></svg>