<svg xmlns="http://www.w3.org/2000/svg" width="512" height="512" viewBox="0 0 60 56"><g fill="none"><path fill="#ffdc00" d="M51.35 35.26A6.93 6.93 0 0 0 59 39.92V53a2.006 2.006 0 0 1-2 2H3a2.006 2.006 0 0 1-2-2V18h58v8.08a6.8 6.8 0 0 0-2.95.2 7.02 7.02 0 0 0-4.7 8.98"/><path fill="#fec108" d="M56.05 26.28a6.8 6.8 0 0 1 2.95-.2V18h-3v8.08a6.8 6.8 0 0 0-2.95.2 7.02 7.02 0 0 0-4.7 8.98A6.93 6.93 0 0 0 56 39.92V53a2.006 2.006 0 0 1-2 2h3a2.006 2.006 0 0 0 2-2V39.92a6.93 6.93 0 0 1-7.65-4.66 7.02 7.02 0 0 1 4.7-8.98M59 18H1c0-2.924-.023-2.94.01-3.04.226-1.04.596-2.043 1.1-2.98 2.713-5.233 8.305-8.206 13.97-9.65 3.1-.76 6.27-1.189 9.46-1.28.073-.006.925-.03 1.04-.03 1.134-.03 1.37-.058 1.65.11z"/><path fill="#783e22" d="M50 46a3 3 0 1 1-6-.004A3 3 0 0 1 50 46"/><path fill="sienna" d="M45.5 48.6a3 3 0 0 1 0-5.2 3 3 0 0 1 0 5.2"/><path fill="#783e22" d="M34.75 41a8.008 8.008 0 0 1-15.5 0 8.008 8.008 0 0 1 15.5 0"/><path fill="sienna" d="M27.792 46.7c-.217.06-2.068.111-2.292.153A7.99 7.99 0 0 1 19.25 41a7.99 7.99 0 0 1 6.25-5.85c.224.042 2.075.093 2.292.153 5.608 1.555 5.608 9.839 0 11.397"/><path fill="#f57c00" d="M27 51a8 8 0 0 1-7.75-10 8.005 8.005 0 0 0 15.5 0A8 8 0 0 1 27 51"/><path fill="#783e22" d="M12 37a3 3 0 1 1-6-.004A3 3 0 0 1 12 37"/><path fill="sienna" d="M7.5 39.6a3 3 0 0 1 0-5.2 3 3 0 0 1 0 5.2"/><path fill="#f57c00" d="M12.5 27.84A7 7 0 0 1 7.68 18h12.64a7 7 0 0 1-7.82 9.84"/><path fill="#ff9801" d="M12.5 27.84A7 7 0 0 1 7.68 18h9.64a7 7 0 0 1-4.82 9.84"/><path fill="#783e22" d="M45 28a3.995 3.995 0 1 1-5.5-3.7A4 4 0 0 1 45 28"/><path fill="sienna" d="M39.5 31.7a3.99 3.99 0 0 1 0-7.4 3.99 3.99 0 0 1 0 7.4"/><path fill="#fdd834" d="M59 18H1v-3c.226-1.054.6-2.07 1.11-3.02C6.294 3.913 17.477 1.02 26.58 1.02c1.134-.03 1.37-.058 1.65.11z"/><path fill="#ffeb3a" d="M54 18H1v-3S2.75 2.8 23.31 1.17z"/><g fill="#000" transform="translate(-1 -1)"><path d="M60.481 18.123C27.3-.073 29.381 1 29 1 3.427 1 1.1 15.252 1.01 15.858.993 15.974 1 13.609 1 54a3 3 0 0 0 3 3h54a3 3 0 0 0 3-3V40.92a1 1 0 0 0-.361-.77c-.469-.388-.8-.16-1.539-.151a6 6 0 1 1 .715-11.936A1 1 0 0 0 61 27.08V19a1 1 0 0 0-.519-.877M3 16.084C3.179 15.143 5.937 3.09 28.745 3L56.1 18H3zM15 28a6 6 0 0 1-5.654-8h11.308A6 6 0 0 1 15 28m44-2a8.022 8.022 0 0 0-7.6 10.555A7.85 7.85 0 0 0 59 42v12a1 1 0 0 1-1 1H4a1 1 0 0 1-1-1V20h4.262a7.994 7.994 0 1 0 15.476 0H59z"/><path d="M44 47a4 4 0 1 0 8 0 4 4 0 0 0-8 0m4-2a2 2 0 1 1 0 4 2 2 0 0 1 0-4M28 35a9 9 0 1 0-.021 18A9 9 0 0 0 28 35m0 2a7.01 7.01 0 0 1 6.7 4.982 6.983 6.983 0 0 1-13.4 0A7.01 7.01 0 0 1 28 37m0 14a7.01 7.01 0 0 1-6.7-5 9 9 0 0 0 13.41 0A7.01 7.01 0 0 1 28 51M10 34a4 4 0 1 0 0 8 4 4 0 0 0 0-8m0 6a2 2 0 1 1 0-4 2 2 0 0 1 0 4M42 34a5 5 0 1 0 0-10 5 5 0 0 0 0 10m0-8a3 3 0 1 1 0 6 3 3 0 0 1 0-6"/><circle cx="27" cy="30" r="1"/><circle cx="33" cy="24" r="1"/><circle cx="12" cy="49" r="1"/><circle cx="43" cy="39" r="1"/></g></g></svg>