<svg xmlns="http://www.w3.org/2000/svg" width="512" height="512" viewBox="0 0 59 60"><g fill="none"><path fill="#ffdc00" d="M36.89 30.21a3.99 3.99 0 0 0-.37-4.19l-.49-.65a4 4 0 0 1-.75-3.06L36 18 19 1C7 1 2 8 2 8v30.64c0 .823.504 1.561 1.27 1.86L30 51l5.31-2.28a2 2 0 0 0 1.11-2.47c-.984-2.942-1.528-3.907-1-5.51 1.661-4.984 1.7-4.261.94-7.3a4.3 4.3 0 0 1 .53-3.23"/><path fill="#fec108" d="M57.76 52.28a.99.99 0 0 1-.4 1.14l-3.22 2.15c-.23.355-.065.172-3.59 2.99-.354.285-.795.44-1.25.44h-6.47a2 2 0 0 1-1.42-.59l-1.48-1.48a1.99 1.99 0 0 1-.44-2.15l1.37-3.42c.185-.492.14-.395.14-3.8a1.97 1.97 0 0 1 .87-1.64v-.01c3.174-3.968 3.009-3.883 3.46-3.99l3.29-.82a.99.99 0 0 1 .73.09L58 46c-1.028 4.112-1.032 3.913-.91 4.28z"/><path fill="#ffdc00" d="m53.87 52.74-2.73 1.83c-.23.355-.065.172-3.59 2.99-.354.285-.795.44-1.25.44H41l-1.07-1.07a1.99 1.99 0 0 1-.44-2.15l1.37-3.42c.185-.492.14-.395.14-3.8a1.97 1.97 0 0 1 .87-1.64v-.01a2.02 2.02 0 0 1 1.62-.29c1.716.438 1.245.475 3.72-.36a1.98 1.98 0 0 1 1.53.11l3.71 1.85a2 2 0 0 1 1 2.43l-.19.56c-.32.961.14 1.59.61 2.53"/><path fill="#fdd834" d="m36 18-6 2L2 8a17.5 17.5 0 0 1 7.21-5.17A25.5 25.5 0 0 1 19 1z"/><path fill="#ffeb3a" d="m33 19-3 1L2 8a17.5 17.5 0 0 1 7.21-5.17c2.219-.566 4.5-.845 6.79-.83z"/><path fill="#ff9801" d="M36.66 30.68c-1.274 2.519.8 3.92-.03 6.43-1.852 5.556-1.851 4.234-.21 9.14a2 2 0 0 1-1.11 2.47L30 51c-.4-1.176-.137-.4-1.42-4.25-.674-2.023.386-3.357 1.19-4.69a4.01 4.01 0 0 0 0-4.12l-.54-.88a4.01 4.01 0 0 1 0-4.12l.39-.63a4.03 4.03 0 0 0-.36-4.63 4.02 4.02 0 0 1-.6-3.67L30 20l6-2-.72 4.31a4 4 0 0 0 .75 3.06l.49.65a3.99 3.99 0 0 1 .37 4.19z"/><path fill="#f57c00" d="M36.89 30.21a3.99 3.99 0 0 0-.37-4.19l-.49-.65a4 4 0 0 1-.75-3.06L36 18l-3.177 1.059-.543 3.251a4 4 0 0 0 .75 3.06l.49.65a3.99 3.99 0 0 1 .37 4.19 4.23 4.23 0 0 0-.53 3.23c.765 3.039.729 2.294-.94 7.3-.526 1.6-.013 2.48 1 5.51a2 2 0 0 1-1.11 2.47l-2.689 1.154c.1.312.018.054.379 1.126l5.31-2.28a2 2 0 0 0 1.11-2.47c-.984-2.942-1.528-3.907-1-5.51 1.661-4.984 1.7-4.261.94-7.3a4.3 4.3 0 0 1 .53-3.23"/><path fill="#ffdc00" d="M58 46c-4.437 2.66-3.588 2.15-4.47 2.68a2.01 2.01 0 0 0-1.08-1.46l-3.71-1.85a1.98 1.98 0 0 0-1.53-.11c-2.427.819-1.969.807-3.72.36a2.02 2.02 0 0 0-1.62.29l2.92-3.65c.3-.358.252-.266 3.83-1.16a.99.99 0 0 1 .73.09z"/><path fill="#f57c00" d="M57.76 52.28a.99.99 0 0 1-.4 1.14l-3.22 2.15a2 2 0 0 0 .14-2.02c-.932-1.841-1.349-2.352-1.02-3.34a2.8 2.8 0 0 0 .27-1.53L58 46c-1.028 4.112-1.032 3.913-.91 4.28z"/><g fill="#000"><path d="M2.9 41.429C31.5 52.665 29.706 52 30 52s-.056.112 5.7-2.356a3.02 3.02 0 0 0 1.664-3.706l-1-2.989a3.02 3.02 0 0 1 0-1.9l1.21-3.63c.927-2.786-1.059-4.228-.025-6.3l.233-.466a4.97 4.97 0 0 0-.472-5.235l-.49-.654a3 3 0 0 1-.559-2.293l.718-4.311a1 1 0 0 0-.279-.872l-17-17A1 1 0 0 0 19 0C6.627 0 1.4 7.116 1.187 7.419.916 7.8 1 5.662 1 38.637a2.98 2.98 0 0 0 1.9 2.792m.1-2.792V9.517l25.76 11.039-1.046 3.144a5.02 5.02 0 0 0 .872 4.753c.735.975.803 2.298.173 3.344l-.382.635a4.99 4.99 0 0 0 0 5.146l.531.884c.571.95.571 2.137 0 3.086l-.819 1.365a5.01 5.01 0 0 0-.443 4.191l.844 2.233-24.856-9.769A.99.99 0 0 1 3 38.637m33-8.873-.233.466a5 5 0 0 0-.378 3.448c.688 2.754.728 1.81-.916 6.74a5.03 5.03 0 0 0 0 3.163l1 2.99a.994.994 0 0 1-.554 1.235l-4.19 1.794-1.2-3.171c-.516-1.548.283-2.507 1.093-3.856a4.99 4.99 0 0 0 0-5.146l-.531-.884a3 3 0 0 1 0-3.087l.382-.635a4.99 4.99 0 0 0-.417-5.744 3 3 0 0 1-.446-2.749l1.19-3.553 3.968-1.443-.468 2.815a5.02 5.02 0 0 0 .932 3.822l.49.654c.683.909.791 2.127.278 3.141m-1.951-12.3c-4.453 1.62-3.971 1.482-4.071 1.439L3.673 7.63C5.477 5.836 10.209 2.122 18.589 2zM40.707 59.121a2.98 2.98 0 0 0 2.122.879H49.3a3 3 0 0 0 1.874-.658c3.444-2.754 3.335-2.628 3.651-3.026l3.086-2.061a1.99 1.99 0 0 0 .8-2.293l-.668-2 .93-3.72a1 1 0 0 0-.484-1.117L49.813 40.3a1.96 1.96 0 0 0-1.435-.174c-3.453.86-3.8.814-4.369 1.5l-2.842 3.554A2.97 2.97 0 0 0 40 47.562v3.053c0 .269.041.09-1.439 3.789a3 3 0 0 0 .665 3.236zM55.35 53.56a16 16 0 0 0-1.085-2.266c-.326-.651.19-1 .268-2.049l1.911-1.145c-.573 2.292-.6 1.6.361 4.489zm-9.778-10.67 3.292-.826L56 46.033l-2.035 1.22c-.584-.806-.83-.8-4.778-2.777a2.98 2.98 0 0 0-2.291-.163c-2.15.718-1.727.7-2.809.428zm-5.154 12.257C42.309 50.418 42 51.946 42 47.562a1 1 0 0 1 1.242-.971 4.15 4.15 0 0 0 2.627.174c1.869-.623 1.972-.728 2.425-.5L52 48.119a1 1 0 0 1 .5 1.21l-.19.568a2.99 2.99 0 0 0 .163 2.291L53.382 54a1 1 0 0 1-.269 1.228C49.91 57.791 49.805 58 49.3 58h-6.471c-.549 0-.653-.238-2.189-1.774a1 1 0 0 1-.222-1.079"/><circle cx="15" cy="28" r="1"/><circle cx="18" cy="40" r="1"/><circle cx="9" cy="34" r="1"/><circle cx="23" cy="33" r="1"/><circle cx="9" cy="20" r="1"/><circle cx="23" cy="23" r="1"/></g></g></svg>