<svg xmlns="http://www.w3.org/2000/svg" width="512" height="512" viewBox="0 0 60 54"><g fill="none"><path fill="#c81e1e" d="M59 21H32a2.006 2.006 0 0 0-2 2v28.98a1.01 1.01 0 0 1-1.02 1.01c-.84-.02-1.66-.07-2.48-.14C12.13 51.67 1 43.23 1 33V21C1 10.3 13.17 1.57 28.49 1.03c.2 0 .591-.03 1.51-.03 16.02 0 29 8.95 29 20"/><path fill="#f44335" d="M53.04 18H31a4 4 0 0 0-4 4v18.9C12.39 39.86 1 31.35 1 21 1 8.8 16.212 1.03 28.51 1.03 40.9 1.47 50.5 9.76 54 15c.88 1.32.62 3-.96 3"/><path fill="#c81e1e" d="M30 41v10.98a1.01 1.01 0 0 1-1.02 1.01 38.3 38.3 0 0 1-15.41-3.51C7.2 46.474 1.507 41 1.04 34.01.983 33.362 1 33.976 1 21c0 10.35 11.39 18.86 26 19.9.99.06 1.99.1 3 .1"/><path fill="#ffe0b2" d="M59 21v11a1 1 0 0 1-1 1h-3v7a2 2 0 0 1-3.41 1.41c-.38-.37-.592-.88-.59-1.41v-2a2 2 0 1 0-4 0v6a2 2 0 0 1-3.41 1.41c-.38-.37-.592-.88-.59-1.41V33H30V23a2.006 2.006 0 0 1 2-2z"/><g fill="#dfc49c"><path d="M56 21v11a1 1 0 0 1-1 1h3a1 1 0 0 0 1-1V21zM52 40a1.98 1.98 0 0 1-.5 1.308A2 2 0 0 0 55 40v-7h-3z"/></g><g fill="#000"><path d="M30 0C13.458 0 0 9.42 0 21v12c0 12.982 15.639 20.988 29.005 20.988a2 2 0 0 0 2-2.006V34H42v10a3 3 0 0 0 6 0v-6a1 1 0 0 1 2 0v2a3 3 0 0 0 6 0v-6h2a2 2 0 0 0 2-2V21C60 9.42 46.542 0 30 0M2 33v-4.474C6.219 36.191 16.681 41.7 29 41.982v10.006C13.86 51.627 2 43.287 2 33m54-1a1 1 0 0 0-2 0v8a1 1 0 0 1-2 0v-2a3 3 0 0 0-6 0v6a1 1 0 0 1-2 0V27a1 1 0 0 0-2 0v5H31v-2h2a1 1 0 0 0 0-2h-2v-5a1 1 0 0 1 1-1h26v10zM32 20a3 3 0 0 0-3 3v16.988C14.022 39.63 2 31.25 2 21 2 10.523 14.561 2 30 2c14.944 0 27.192 7.987 27.962 18z"/><path d="M26.1 35.805C14.642 34.622 6 28.257 6 21a1 1 0 0 0-2 0c0 8.421 9.209 15.484 21.9 16.794a1 1 0 1 0 .206-1.989zM30 4a1 1 0 0 0 0 2c11.02 0 20.594 4.677 23.282 11.373a1 1 0 0 0 1.856-.746C52.153 9.192 41.816 4 30 4M38 28h-1a1 1 0 0 0 0 2h1a1 1 0 0 0 0-2M55 26a1 1 0 0 0-1 1v1a1 1 0 0 0 2 0v-1a1 1 0 0 0-1-1"/></g></g></svg>