<svg xmlns="http://www.w3.org/2000/svg" width="512" height="512" viewBox="0 0 60 52"><g fill="none"><path fill="#ff9801" d="M59 31v9c0 6.08-12.98 11-29 11S1 46.08 1 40v-9c0 2.04 1.46 3.95 4 5.58 11.115 7.167 38.572 7.273 50 0 2.54-1.63 4-3.54 4-5.58"/><path fill="#f57c00" d="M56 35.875V40c0 5.889-12.178 10.69-27.5 10.986Q29.245 51 30 51c16.02 0 29-4.92 29-11v-9c0 1.753-1.084 3.409-3 4.875"/><path fill="#624421" d="M55 36.58V25.42c5.338 3.426 5.334 7.737 0 11.16M5 25.42v11.16c-5.338-3.426-5.334-7.737 0-11.16"/><path fill="sienna" d="M55 25.42v11.16c-11.52 7.332-38.969 7.113-50 0V25.42c0-.01.01-.01.02-.02a5.43 5.43 0 0 0 1.65 3.2h.01a16.7 16.7 0 0 0 5.98 3.6c15.24 5.958 41.461 1.8 42.32-6.8.01.01.02.01.02.02"/><path fill="#ffeb3a" d="m30 11 6.98 9.6a62.5 62.5 0 0 1-8.65.38C15.3 20.63 5 16.3 5 11c0-2.923 3.065-5.085 5.7-6.35a.03.03 0 0 1 .02-.01C25.877-2.639 55 1.774 55 11z"/><path fill="#fdd834" d="M28.337 1.021C40.59 1.337 52 5.225 52 11h3C55 4.756 41.659.723 28.337 1.021"/><path fill="#ffdc00" d="M37 34.6c-7.958.932-18.53.217-25.16-2.73a17 17 0 0 1-4.74-2.86 5 5 0 0 1-.42-.41h-.01a5.4 5.4 0 0 1-1.65-3.18C5.02 23.947 5 30.76 5 11c0 5.3 10.3 9.63 23.33 9.98a62 62 0 0 0 8.65-.38c.067.1.02-.6.02 14"/><path fill="#fec108" d="M36.98 20.6c-1.062.12-2.035.2-2.967.266.011.683-.013 3.3-.013 13.734a58 58 0 0 1-5.42.361A61 61 0 0 0 37 34.6c0-14.6.047-13.9-.02-14"/><path fill="#ffe0b2" d="M55 11c0 14.946.011 13.778-.02 14.4a4.94 4.94 0 0 1-1.14 2.6H37c0-7.723.049-7.3-.02-7.4L30 11z"/><path fill="#dfc49c" d="M55 11h-3c0 14.946.011 13.778-.02 14.4a4.94 4.94 0 0 1-1.14 2.6h3a4.94 4.94 0 0 0 1.14-2.6c.031-.622.02.546.02-14.4"/><path fill="#783e22" d="M53.84 28c-3.332 4.164-11.5 5.97-16.84 6.6V28z"/><path fill="#000" d="M56 24.9V11C56 4.832 44.58 0 30 0S4 4.832 4 11v13.9c-2.61 1.8-4 3.9-4 6.1v9c0 6.729 13.178 12 30 12s30-5.271 30-12v-9c0-2.2-1.39-4.3-4-6.1M6 29.308c8.739 8.919 39.259 8.921 48 0v6.7c-11.069 6.638-36.93 6.639-48 0zM54 25a3.7 3.7 0 0 1-.687 2H38c0-6.847.078-6.587-.191-6.958L31.963 12H54zm-16 4h13.341C48.641 30.982 44 32.662 38 33.474zM30 2c13.258 0 22.479 3.969 23.814 8H30a1 1 0 0 0-.809 1.588l5.965 8.206A61 61 0 0 1 30 20c-14.356 0-24-4.654-24-9s9.644-9 24-9m0 20c2.143 0 4.112-.1 6-.281V33.7c-1.892.186-3.888.3-6 .3-14.356 0-24-4.654-24-9v-9.692C9.888 19.276 19.053 22 30 22M4 27.423v7.152c-2.564-2.275-2.767-4.706 0-7.152M58 40c0 4.829-11.251 10-28 10S2 44.829 2 40v-4.586c9.5 10.023 46.36 10.174 56 0zm-2-5.425v-7.152c2.571 2.277 2.76 4.708 0 7.152"/></g></svg>