<svg xmlns="http://www.w3.org/2000/svg" width="512" height="512" viewBox="0 0 60 60"><g fill="none"><path fill="#c81e1e" d="M30 1C21.608 1 11.9 3.243 5.815 8.62a14.5 14.5 0 0 0-4.242 6.008C.789 16.912 1 16.3 1 42c0 9.39 12.98 17 29 17 2.787.004 5.57-.234 8.316-.711A2.015 2.015 0 0 0 40 56.312V42h17a2.006 2.006 0 0 0 2-2V18C59 8.61 46.02 1 30 1"/><path fill="#f44335" d="M36.98 33.97c-2.816.6-5.682.939-8.56 1.01C13.13 34.49 1 27.08 1 18S13.17 1.48 28.49 1.02C39.679 1.02 56 7.043 56 18H28.8a1 1 0 0 0-.848 1.53c2.211 3.531.989 1.575 9.028 14.44"/><path fill="#dfc49c" d="M55 23v14a1 1 0 0 1-1 1H40v-4c-.644-.967 2.142 3.429-7.5-12H54a1 1 0 0 1 1 1"/><path fill="#ffe0b2" d="M52 23v14a1 1 0 0 1-1 1H40v-4c-.644-.967 2.142 3.429-7.5-12H51a1 1 0 0 1 1 1"/><g fill="#000"><path d="M30 0C13.458 0 0 8.075 0 18v24c0 12.892 21.289 21.014 40.21 16.938a1 1 0 0 0 .79-.978V43h16a3 3 0 0 0 3-3V18C60 8.075 46.542 0 30 0m0 2c14.851 0 27.033 6.642 27.94 15H30a1 1 0 0 0-.848 1.53l9.2 14.726C20.777 36.428 2 29 2 18 2 9.178 14.561 2 30 2m10.848 31.47L34.3 23H54v14H41c0-3.2.052-3.2-.152-3.53M39 57.145C21.4 60.6 2 53.212 2 42V24.451C6.333 31.2 17.246 36 30 36c3.02.001 6.032-.277 9-.831zM57 41H41v-2h13a2 2 0 0 0 2-2V23a2 2 0 0 0-2-2H33.054L31.8 19H58v21a1 1 0 0 1-1 1"/><path d="M29 6.01S29.672 6 30 6a1 1 0 0 0 0-2q-.513 0-1.021.01a1 1 0 0 0 .021 2M6 18c0-5.631 8.024-10.569 19.079-11.743a1 1 0 0 0 .889-1.1 1.01 1.01 0 0 0-1.1-.889C12.581 5.573 4 11.219 4 18a1 1 0 0 0 2 0"/></g></g></svg>