<svg xmlns="http://www.w3.org/2000/svg" width="512" height="512" viewBox="0 0 60 53"><g fill="none"><path fill="#ffdc00" d="M22.37 47.96c-.71 2.03-2.48 3.69-6.37 3.69a14.22 14.22 0 0 1-8.53-2.7h-.01A16.07 16.07 0 0 1 1 36.65c0-3.761 3.524-5.346 7.28-5.87-2.665 6.514 7.811 14.884 14.09 17.18"/><path fill="#fec108" d="M8.28 30.78a14 14 0 0 0-3.244.79c-1.552 6.537 8.471 14.246 14.334 16.39-.617 1.763-2.037 3.244-4.948 3.6 3.492.348 6.8-.317 7.948-3.6-6.399-2.34-16.736-10.712-14.09-17.18"/><path fill="#ffeb3a" d="M31.3 34.99c-.736 0-.64.03-.64-.07.22 0 .43-.02.64-.03 6.68-.29 11.99-1.47 11.99-5.96 0-6.07-3.62-19.43-19.32-19.43C14.075 9.5 7.229 17.177 7 24 7 14.23 8.17 1.59 28.56 1.02c.47-.01.96-.02 1.45-.02 25.36 0 28.98 15.79 28.98 20.64 0 4.79 1.17 12.94-27.69 13.35"/><path fill="#fdd834" d="M58.99 21.64C58.99 16.79 55.37 1 30.01 1c-.408 0-.91.006-1.606.027C52.49 1.6 55.99 16.881 55.99 21.64c0 4.655 1.1 12.482-25.33 13.3v.055h.64c28.86-.415 27.69-8.565 27.69-13.355"/><path fill="#ff9801" d="M43.29 28.93c0 4.49-5.31 5.67-11.99 5.96-1.681.08-3.292.1-4.1.1a23.3 23.3 0 0 0-3.2-2.34c-4.46-2.67-9.7-5.35-12.92-4.48a3.88 3.88 0 0 0-1.93 1.22A9.77 9.77 0 0 1 7 24c.231-6.879 7.119-14.5 16.97-14.5 15.7 0 19.32 13.36 19.32 19.43"/><path fill="#f57c00" d="M23.97 9.5c-.436 0-.858.033-1.282.062 14.244.94 17.6 13.527 17.6 19.368 0 5.352-7.79 5.827-13.157 6.007q.034.026.067.053c.808 0 2.419-.02 4.1-.1 6.68-.29 11.99-1.47 11.99-5.96C43.29 22.86 39.67 9.5 23.97 9.5"/><path fill="#ffeb3a" d="M32 45.65c-1.766 3.532-5.894 3.706-9.63 2.31-6.4-2.34-16.736-10.712-14.09-17.18 2.361-5.687 10.394-1.319 15.72 1.87a23.3 23.3 0 0 1 3.2 2.34c3.65 3.19 6.36 7.53 4.8 10.66"/><path fill="#fdd834" d="M27.2 34.99a23.3 23.3 0 0 0-3.2-2.34c-3.938-2.357-9.353-5.355-12.864-4.462 3.776.707 10.176 4.286 13.064 6.8 3.65 3.19 6.36 7.53 4.8 10.66a5.43 5.43 0 0 1-4.04 3c2.909.451 5.678-.27 7.04-3 1.56-3.128-1.15-7.468-4.8-10.658"/><g fill="#000"><path d="M60 21.643C60 20.759 59.652 0 30.009 0c-10.087 0-16.794 2.68-20.5 8.191C6.424 12.769 6 18.5 6 24a9.54 9.54 0 0 0 1.9 5.381c-.1.159-.208.32-.3.491C2.765 30.65 0 33.1 0 36.647c0 6.708 5.561 16 16 16 4.063 0 5.993-1.709 6.911-3.442 5.077 1.542 8.512-.167 9.984-3.11 1.574-3.149-.385-6.995-3.264-10.1 7.872 0 22.276-.323 27.8-5.931C59.945 27.5 60 24.873 60 21.643M31.256 33.891c-.945.049-3.6.093-3.719.094a23 23 0 0 0-3.022-2.2c-4.065-2.439-11.341-6.6-15.187-3.885A8.25 8.25 0 0 1 8 24.035C8.2 18.361 13.859 10.5 23.97 10.5c14.491 0 18.32 12.056 18.32 18.43 0 3.125-3.301 4.609-11.034 4.961M16 50.647c-9.135 0-14-8.13-14-14 0-2.859 2.654-4.087 4.932-4.614C6.067 38.785 15.189 45.991 21 48.5c-.879 1.436-2.52 2.147-5 2.147M31.105 45.2a4.5 4.5 0 0 1-3.14 2.427c-3.112.7-7.492-.99-12.351-4.769C9.6 38.18 8.809 34.512 8.873 32.742a4 4 0 0 1 1.682-3.263c2.863-1.908 10 2.268 12.93 4.026 4.901 2.94 9.235 8.466 7.62 11.695M56 28.656c-2.34 2.378-7.027 3.968-13.981 4.756a5.23 5.23 0 0 0 2.27-4.482 23.1 23.1 0 0 0-3.953-12.565c-3.6-5.145-9.26-7.865-16.367-7.865a18.02 18.02 0 0 0-15.5 8.223C9.879 7.891 15.255 2 30.009 2 57.675 2 58 20.841 58 21.643c0 2.764.065 4.915-2 7.013"/><path d="M16 17c-3.521 0-3.579 3-2 3a1 1 0 0 0 .982-.812A1.9 1.9 0 0 1 16 19a1 1 0 0 0 0-2M34 18a.994.994 0 0 0-.993.987c-.004.549.432 1 .981 1.013A.92.92 0 0 1 35 21a1 1 0 0 0 2 0 2.916 2.916 0 0 0-3-3M26 27a.918.918 0 0 1-1-1.01 1 1 0 0 0-2 .01 2.916 2.916 0 0 0 3 3 1 1 0 0 0 0-2M14 32.647a1 1 0 0 0 0 2 1 1 0 0 0 1 1c1.656 0 1.207-3-1-3M23 41.647a.918.918 0 0 1-1-1.009 1 1 0 0 0-2 .009 2.915 2.915 0 0 0 3 3 1 1 0 0 0 0-2M8 41.619a1 1 0 0 0-2 .028c0 2.212 3 2.654 3 .986a1.01 1.01 0 0 0-1-1.014"/></g></g></svg>