<svg xmlns="http://www.w3.org/2000/svg" width="512" height="512" viewBox="0 0 61 47"><g fill="none"><path fill="#fec108" d="M42 46 2.44 34.42A2 2 0 0 1 1 32.5V19c11.42 10.38 10.74 9.78 10.9 9.87.31.24 0 .1 7.18 2.26 2.45.73 2.79.74 3.28 1.23 5.96 5.96 5.52 5.56 5.87 5.77C41.17 45.52 38.58 44.05 42 46"/><path fill="#ffeb3a" d="M59 21.9V26L42 46c-3.42-1.95-.83-.48-13.77-7.87-.35-.21.09.19-5.87-5.77-.49-.49-.83-.5-3.28-1.23-7.18-2.16-6.87-2.02-7.18-2.26-.16-.09.52.51-10.9-9.87C27.65.55 25.96 1.68 26.23 1.6a1.98 1.98 0 0 1 1.91.22l5.55 3.95c.41.29.21.1 3.58 4.31a3 3 0 0 0 1.89 1.11c2.91.49 2.04.35 3.87.65a3.03 3.03 0 0 1 1.67.86c4.056 4.056 4.078 4.249 5.12 4.51 5.93 1.48 4.3 1.07 6.85 1.71A3.07 3.07 0 0 1 59 21.9"/><path fill="#fdd834" d="M56.67 18.92c-7.345-1.846-7.446-1.7-8.27-2.52l-3.7-3.7a3.03 3.03 0 0 0-1.67-.86c-1.827-.3-.965-.158-3.87-.65a3.02 3.02 0 0 1-1.89-1.11c-3.374-4.209-3.167-4.015-3.58-4.31l-5.55-3.95a1.98 1.98 0 0 0-1.91-.22c-.09.026.035-.081-.757.457L30.69 5.77c.413.295.206.1 3.58 4.31.469.594 1.143.99 1.89 1.11 2.905.492 2.043.348 3.87.65a3.03 3.03 0 0 1 1.67.86l3.7 3.7c.394.39.884.67 1.42.81 5.926 1.475 4.3 1.07 6.85 1.71A3.066 3.066 0 0 1 56 21.9V26L39.981 44.846 42 46l17-20v-4.1a3.066 3.066 0 0 0-2.33-2.98"/><g fill="#00695c"><path d="m12.336 17.642-1.673 1.619a1.006 1.006 0 0 0-.024 1.415c.768.814 2.109 1.883 3.361 1.13 2.139-1.288.72-3.182-.271-4.164a1 1 0 0 0-1.393 0M26 29c0 1 0 3 3 3s4 1 5 0-1-4-3-4-5-1-5 1M39 26c-1 1 1 2 2 4a5.5 5.5 0 0 0 5 3c2 0 2 0 1-2s-7-6-8-5M25 8.889c0 1 0 3 3 4s4 1 5 0-2-2-4-4a2.77 2.77 0 0 0-4 0"/></g><g fill="#000"><path d="M2.157 35.381c42.409 12.412 39.724 11.738 40.218 11.537.405-.165-.675.979 17.387-20.271.341-.4.238-.4.238-4.75a4.06 4.06 0 0 0-3.085-3.949c-7.55-1.888-7.264-1.713-7.81-2.256l-3.7-3.7a4.04 4.04 0 0 0-2.209-1.137l-3.869-.645a2.06 2.06 0 0 1-1.276-.749c-3.274-4.091-3.2-4.073-3.779-4.506L28.725 1a3.01 3.01 0 0 0-3.45-.023L.431 18.178A1 1 0 0 0 0 19v13.5a3.02 3.02 0 0 0 2.157 2.881M2 32.5V21.261l8.991 8.174c.689.626.5.456 10.238 3.378.347.1-.035-.205 5.875 5.7.441.441.223.249 7.026 4.136L2.72 33.461A1.01 1.01 0 0 1 2 32.5M26.414 2.622a1 1 0 0 1 1.15.008l5.525 3.936c.319.24.211.161 3.4 4.141a4.07 4.07 0 0 0 2.51 1.473l3.87.645c.872.145.82.274 4.826 4.281a4.07 4.07 0 0 0 1.892 1.07l6.849 1.713A2.06 2.06 0 0 1 58 21.9v3.735L41.775 44.72c-14.026-8.02-13.116-7.476-13.257-7.62-5.818-5.813-5.734-5.909-6.718-6.2-9.895-2.968-9.228-2.724-9.467-2.942L2.6 19.106z"/><path d="M9.177 20.471c1.251 1.811 3.418 3.349 5.339 2.192 2.741-1.651 1.634-4.553-.916-6.463a1 1 0 0 0-1.295.081l-3 2.9a1 1 0 0 0-.128 1.29m3.856-2.112a3.1 3.1 0 0 1 1.082 1.823c-.006.1-.02.4-.631.767-.639.384-1.535-.343-2.126-.97zM31 27c-1.67 0-4.06-.76-5.328.373A2.09 2.09 0 0 0 25 29c0 2.654 1.346 4 4 4 1.911 0 2.935.443 3.936.443 1.581 0 2.914-1.347 2.059-3.408A4.82 4.82 0 0 0 31 27m-2 4c-2 0-2-.972-2-2a1 1 0 0 1 .01-.14c.407-.314 2.763.14 3.99.14 1.016 0 2.262 1.5 2.293 2.293C32.855 31.725 31.635 31 29 31M40.1 30.447A6.51 6.51 0 0 0 46 34c1.266 0 2.029 0 2.464-.7s.105-1.394-.569-2.743c-.981-1.961-5.664-5.3-7.954-5.672a1.8 1.8 0 0 0-1.648.412c-1.776 1.772.881 3.285 1.807 5.15m6 1c.094.188.19.379.274.552H46a4.52 4.52 0 0 1-4.1-2.447 14.6 14.6 0 0 0-1.926-2.632c1.607.495 5.426 3.117 6.131 4.527zM29.446 21.105a1 1 0 0 0-.893 1.79A11.35 11.35 0 0 0 33 24c.35-.034.703.031 1.018.188A1 1 0 0 0 36 24c0-.082-.034-2-3-2a9.4 9.4 0 0 1-3.554-.895M27.684 13.837c1.143.447 2.348.717 3.572.8.928.02 1.82-.357 2.451-1.037.344-.325.522-.788.485-1.259-.148-1.568-2.641-2.313-4.485-4.155a3.72 3.72 0 0 0-5.414 0 1 1 0 0 0-.293.707c0 1.013 0 3.716 3.684 4.944m.609-4.241a36 36 0 0 0 3.714 2.834c-.477.329-1.2.34-3.691-.49-1.962-.654-2.262-1.7-2.308-2.589a1.65 1.65 0 0 1 2.285.249z"/><circle cx="21" cy="15" r="1"/><circle cx="22" cy="23" r="1"/><circle cx="27" cy="18" r="1"/><path d="M46.553 23.9C50.868 26.052 50.673 26 51 26a1 1 0 0 0 .448-1.895l-4-2A2.56 2.56 0 0 1 46 19.99a1 1 0 0 0-2 .01 4.56 4.56 0 0 0 2.553 3.9M39.553 38.9a1 1 0 0 0 .894-1.79A2.56 2.56 0 0 1 39 34.99a1 1 0 1 0-2 .01 4.56 4.56 0 0 0 2.553 3.9"/></g></g></svg>