<svg xmlns="http://www.w3.org/2000/svg" width="512" height="512" viewBox="0 0 60 60"><g fill="none" fill-rule="evenodd"><g fill-rule="nonzero"><path fill="#ff9801" d="M59 43v8c0 4.42-6.27 8-14 8-.51 0-1.01-.02-1.5-.04C36.47 58.53 31 55.13 31 51v-8a6.27 6.27 0 0 0 2.99 4.93C36.952 50.088 41.28 51 45 51c7.73 0 14-3.58 14-8"/><path fill="#f57c00" d="M56 47.939V51c0 4.138-5.5 7.539-12.541 7.956.28.018 1.031.044 1.541.044 7.73 0 14-3.58 14-8v-8c0 1.866-1.127 3.578-3 4.939"/><path fill="#783e22" d="M21.61 40.46c.7.35.619.288.32.16-.11-.05-.21-.11-.32-.16"/><path fill="sienna" d="M37.89 18.09c-5.415-5.52-14.28-5.605-19.8-.19s-5.605 14.28-.19 19.8L5.21 25.01a14.013 14.013 0 0 1 7.72-23.84h.02a14.19 14.19 0 0 1 12.06 4.04z"/><path fill="#783e22" d="m22.01 5.21 9.161 9.161a14 14 0 0 1 6.719 3.719L25.01 5.21a14.17 14.17 0 0 0-11.53-4.085 14.18 14.18 0 0 1 8.53 4.085"/><path fill="#dfc49c" d="M26.01 41.85c.84.135 1.342.127.49.07-.16-.02-.33-.04-.49-.07"/></g><path d="M20.77 39.99a3 3 0 0 0 .46.26M21.93 40.62a6 6 0 0 1-.6-.31M39.97 20.74q.362.575.65 1.19"/><path fill="#ffe0b2" fill-rule="nonzero" d="M41.15 32.82q-.38 1-.89 1.94c-.156.289-.49.819-.49.82v.01h-.01a14.02 14.02 0 0 1-8.55 6.04c-.156.052-.74.15-.84.17a14 14 0 1 1 10.78-8.98"/><path fill="#dfc49c" fill-rule="nonzero" d="M26.492 14.081A14.025 14.025 0 0 1 38.15 32.82a14.3 14.3 0 0 1-1.38 2.76v.01h-.01a13.88 13.88 0 0 1-10.3 6.314 14.5 14.5 0 0 0 4.751-.274c3.524-.837 6.59-3 8.56-6.04v-.01a13.4 13.4 0 0 0 1.38-2.76 14.02 14.02 0 0 0-14.659-18.739"/><path fill="#ffe0b2" fill-rule="nonzero" d="M59 43c0 4.42-6.27 8-14 8-3.708 0-8.037-.9-11.01-3.07-2.768-2-3.383-4.4-2.78-6.3 3.524-.837 6.59-3 8.56-6.04v-.01C48.856 33.519 59 37.237 59 43"/><path fill="#dfc49c" fill-rule="nonzero" d="M43.5 35.054c6.731.42 12.5 3.6 12.5 7.946 0 4.126-5.465 7.518-12.48 7.951.5.032 1 .049 1.48.049 7.73 0 14-3.58 14-8 0-4.981-7.576-8.43-15.5-7.946"/><path fill="#000" fill-rule="nonzero" d="M17.383 38.6a14.9 14.9 0 0 0 12.629 4.253C29.993 43.589 30 40.988 30 51c0 5.047 6.589 9 15 9s15-3.953 15-9v-8c0-5.047-6.589-9-15-9-1.12 0-2.24.076-3.351.224A14.99 14.99 0 0 0 38.6 17.383L25.717 4.5A15.003 15.003 0 1 0 4.5 25.717zM45 58c-7.047 0-13-3.206-13-7v-3.462c5.688 5.949 20.311 5.95 26 0V51c0 3.794-5.953 7-13 7m13-15c0 3.794-5.953 7-13 7-1.23 0-2.46-.1-3.674-.3A5.87 5.87 0 0 1 38 44.76c0-2.625 2.9-4.76 6.47-4.76 2.393 0 4.97.939 4.97 3 0 1.9-3.149 2-3.78 2-1.759 0-2.635-.767-2.66-1a1 1 0 0 0-2 0c0 3.993 10.44 4.341 10.44-1 0-2.944-2.866-5-6.97-5-6.242 0-10.709 5.3-7.315 10.528C34.049 47.235 32 45.221 32 43c0-3.794 5.953-7 13-7s13 3.206 13 7m-18.866-8.309c-4.3 1.067-7.508 3.289-8.658 6.053a12.97 12.97 0 0 1-14.609-17.373 11.3 11.3 0 0 1 14.9-4.058 8.876 8.876 0 0 1 3.686 11.968 6.886 6.886 0 0 1-9.3 2.855 5.32 5.32 0 0 1-2.216-7.166 4.05 4.05 0 0 1 5.471-1.676 3.035 3.035 0 0 1 1.265 4.094 2.24 2.24 0 0 1-3.01.928 1 1 0 0 0-.936 1.768c3.444 1.818 7.312-1.567 6.072-5.592-1.393-4.526-8.178-5.06-10.629-.457-2.565 4.877.93 10.909 7.189 10.907a8.89 8.89 0 0 0 7.861-4.725c2.789-5.3.77-11.858-4.518-14.671a13.28 13.28 0 0 0-9.658-1.091 12.985 12.985 0 0 1 17.09 18.236M5.807 5.807c5.142-5.072 13.42-5.023 18.5.11l7.609 7.609a15 15 0 0 0-18.389 18.387L5.917 24.3a13.07 13.07 0 0 1-.11-18.493"/></g></svg>