<svg xmlns="http://www.w3.org/2000/svg" width="512" height="512" viewBox="0 0 60 50"><g fill="none"><path fill="#ffeb3a" d="M58 19.98c0 1.99 1 4.98 1 6.97s-1 1.99-3 3.99c-2.534 2.534-16.614 9.954-18.08 11.42-2.81 2.28-4.23 4.75-7.15 5.97C25 50.832 18.878 45.321 16 43.89a146 146 0 0 1-13-8.97c-1-.99 0-4.98-1-6.97C1.02 26 1 17.36 1 17 1 13.035 27.934 1 30 1c2 0 13 4 17 6s12 7 12 7c0 1.99-1 3.99-1 5.98"/><path fill="#ffeb3a" d="M59 14a35 35 0 0 1-4 3c-3 2-4 1-6 3s-2 2-4 2-2 4-5 5-5 3-7 3-2 3-4 3-4-3-6-3-2.984-2.99-6-5c-4.683-3.113-4.015.985-11-6-1.9-1.9-5-1.078-5-2C1 13.035 27.934 1 30 1c2 0 13 4 17 6s12 7 12 7"/><path fill="#fdd834" d="M47 7c-4-2-15-6-17-6a5.4 5.4 0 0 0-1.263.325A110 110 0 0 1 44 7c4 2 12 7 12 7a35 35 0 0 1-4 3c-3 2-4 1-6 3s-2 2-4 2-2 4-5 5-5 3-7 3c-1.435 0-1.843 1.54-2.7 2.413C30.955 34.633 30.589 30 33 30c2 0 4-2 7-3s3-5 5-5 2 0 4-2 3-1 6-3a35 35 0 0 0 4-3s-8-5-12-7"/><path fill="#ff9801" d="M58 19.98c0 1.99 1 4.98 1 6.97s-1 1.99-3 3.99c-1.765 1.763-9.172 5.944-11.65 7.41-5.3 3.067-5.977 3.309-9.15 6.58-.929.863-3.48 3.937-7.19 4.05 1.008-2.095 2-6.994.99-8.98s0-7 0-7c2 0 2-3 4-3s4-2 7-3 3-5 5-5 2 0 4-2 3-1 6-3a35 35 0 0 0 4-3c0 1.99-1 3.99-1 5.98"/><path fill="#f57c00" d="M59 14a32 32 0 0 1-3.406 2.605A14.4 14.4 0 0 0 55 19.98c0 1.99 1 4.98 1 6.97s-1 1.99-3 3.99c-1.765 1.763-9.172 5.944-11.65 7.41-5.3 3.067-5.977 3.309-9.15 6.58a17 17 0 0 1-3.8 3.091 10 10 0 0 1-.391.959c3.71-.113 6.261-3.187 7.19-4.05 3.173-3.271 3.849-3.513 9.15-6.58 2.479-1.466 9.886-5.65 11.651-7.41 2-2 3-2 3-3.99s-1-4.98-1-6.97 1-3.99 1-5.98"/><path fill="#ff9801" d="M52.9 33.22c.46-.3.88-.58 1.27-.85-.38.27-.81.55-1.27.85"/><path fill="#ffdc00" d="M28.01 48.98c-4.873.232-10.25-4.248-12.01-5.09a146 146 0 0 1-13-8.97c-1-.99 0-4.98-1-6.97-.854-1.709-1-8.719-1-10.6 0-.509-.012-.346.02-.22.224.747 3.1-.011 4.98 1.87a18.2 18.2 0 0 0 5 4c2.019 1 3 .007 6 2s4 5 6 5 4 3 6 3c0 0-1 5 0 7s.007 6.91-.99 8.98"/><path fill="#fec108" d="M29 40c-1-2 0-7 0-7-2 0-4-3-6-3s-2.989-2.993-6-5c-4.622-3.073-4.047.953-11-6-1.88-1.881-4.756-1.123-4.98-1.87-.028-.114-.029-.454-.017.739.752.199 1.44.588 1.997 1.131a18.2 18.2 0 0 0 5 4c2.019 1 3 .007 6 2s4 5 6 5 4 3 6 3c0 0-1 5 0 7 .961 1.893.1 6.421-.841 8.644.928.255 1.89.368 2.851.336.997-2.07 2.002-6.987.99-8.98"/><path fill="#f9eab0" d="M28.01 48.98c0 .01-.01.01-.01.02"/><g fill="#000"><path d="M60 14a1 1 0 0 0-.47-.848c-.328-.205-8.087-5.048-12.083-7.047C43.514 4.139 32.3 0 30 0 27.945 0 0 12.024 0 16.989 0 19.222.1 26.4 1.106 28.4c.913 1.819-.27 5.782 1.188 7.234a144 144 0 0 0 13.26 9.153c1.945.967 8.18 6.159 13.641 5.067 3.213-.641 4.937-2.4 6.761-4.271 3.018-3.09 3.474-3.212 8.612-6.2 12.774-7.434 10.95-6.85 13.569-9.009A3.85 3.85 0 0 0 60 26.951a20 20 0 0 0-.52-3.683c-.647-3.222-.626-3.575-.01-6.036A13.3 13.3 0 0 0 60 14M30 2c1.691 0 12.366 3.8 16.553 5.9 2.928 1.463 8.105 4.6 10.557 6.111-.566.463-1.555 1.221-3.158 2.29-2.689 1.792-3.882.915-6.034 3.066C46.25 21.03 46.25 21.03 44.7 21.03c-2.821 0-2.674 4.1-5.218 4.952-2.916.973-4.988 2.89-6.546 2.89-2.525 0-2.8 2.94-3.92 2.94-1.444 0-3.537-2.94-5.882-2.94-1.241 0-2.493-2.844-5.326-4.734-3.125-2.082-4.312-1.184-5.99-2.023-1.813-.906-2.7-1.79-4.641-3.733A6.5 6.5 0 0 0 2.994 16.7c-.737-.082-.463-.022-.709-.273C5.026 12.8 27.2 2.269 30 2M16.446 42.993a151 151 0 0 1-12.732-8.771 7.4 7.4 0 0 1-.214-2.414c0-6.25-1.261-1.228-1.484-13.233 1.051.221 2.625.1 3.757 1.228a18.2 18.2 0 0 0 5.155 4.1c2.269 1.135 3 .052 5.774 1.9 2.873 1.916 3.852 5.07 6.436 5.07 1.2 0 2.95 2.1 4.768 2.736-.254 1.478-.73 5.047.2 6.871.734 1.434.043 5.487-.827 7.508-4.242-.202-8.997-4.081-10.833-4.995m40.417-14.166c-2.721 2.25-.79 1.543-13.3 8.823-5.016 2.919-5.758 3.177-9.037 6.531-1.573 1.61-2.857 2.908-5.013 3.527.8-2.471 1.363-6.215.378-8.14-.583-1.138-.3-4.117.041-5.915 1.69-.608 2.071-2.781 3.009-2.781 2.274 0 4.369-2.056 7.179-2.992 3.087-1.029 3.682-4.85 4.585-4.85 2.309 0 2.566-.191 4.628-2.254 1.641-1.64 2.749-.829 5.73-2.816 1.142-.761 2-1.38 2.622-1.859-.79 3.317-.964 3.583-.164 7.561.846 4.216.557 4.163-.658 5.165"/><path d="M10.684 17.948a1 1 0 0 0 1.264-.631 7 7 0 0 1 1.194-2.327A1 1 0 0 0 13 13c-1.422 0-2.389 2-2.948 3.684a1 1 0 0 0 .632 1.264M20 12a1 1 0 0 0 .446-.105c3.344-1.672 2.872-3.917 1.555-3.917a.98.98 0 0 0-1 .978c-.381.498-.88.893-1.453 1.15A1 1 0 0 0 20 12M46.553 15.9a1 1 0 0 0 1.342-.448c1.463-2.927-.338-5.269-1.551-4.167a1.023 1.023 0 0 0-.079 1.4c.019.024.478.6-.16 1.876a1 1 0 0 0 .448 1.339M30.447 26.9a1 1 0 0 0-.894-1.79c-1.233.617-1.815.207-1.871.163a1 1 0 0 0-1.389 1.439c.756.751 2.332 1.093 4.154.188"/></g></g></svg>