<svg xmlns="http://www.w3.org/2000/svg" width="512" height="512" viewBox="0 0 54 60"><g fill="none"><g transform="translate(1 1)"><path fill="#ffeb3a" d="M52 54.83a3.001 3.001 0 1 1-6 .17v-3.83a3.016 3.016 0 0 0-5.12-2.29 3.55 3.55 0 0 0-.88 2.95 3.001 3.001 0 0 1-6 .17v-7.23a2.01 2.01 0 0 0-1.33-1.88L1.33 31.77a2 2 0 0 1-1.21-2.56L8.14 6.6C53.875 22.644 51.99 21.9 51.99 22c.1 0 .01-.43.01 32.83"/><g fill="#fdd834"><path d="M41.469 48.425a2.884 2.884 0 0 0-3.589.455 3.55 3.55 0 0 0-.88 2.95 3.18 3.18 0 0 1-1.531 2.752A3.032 3.032 0 0 0 40 51.83a3.55 3.55 0 0 1 .88-2.95 3 3 0 0 1 .589-.455"/><path d="M52 21.98c-9.693-3.392-1.7-.59-43.86-15.38l-.332.936C50.809 22.621 48.99 21.9 48.99 22c.1 0 .01-.43.01 32.83a3.18 3.18 0 0 1-1.531 2.752A3.032 3.032 0 0 0 52 54.83z"/><path d="M52 21.98c-9.693-3.392-1.7-.59-43.86-15.38a12.5 12.5 0 0 1 3.93-4.41c4.038-2.855 9.159-2.625 13.88-.95C50.786 21 52 21.88 52 21.98"/></g><path fill="#ffe0b2" d="M52 21.98c-9.693-3.392-1.7-.59-43.86-15.38a12.5 12.5 0 0 1 3.93-4.41c4.056-2.867 9.179-2.618 13.88-.95C40.894 13.128 34.85 8.315 52 21.98"/><path fill="#dfc49c" d="M22.95 1.24c14.21 11.3 9.458 7.52 23.7 18.868L52 21.98C34.85 8.315 40.894 13.128 25.95 1.24A18.8 18.8 0 0 0 17.838.08c1.746.173 3.463.563 5.112 1.16"/><circle cx="13" cy="27" r="2" fill="#ff9801"/><circle cx="35" cy="25" r="2" fill="#ff9801"/></g><g fill="#000"><path d="M14 31a3 3 0 1 0 0-6 3 3 0 0 0 0 6m0-4a1 1 0 1 1 0 2 1 1 0 0 1 0-2M36 29a3 3 0 1 0 0-6 3 3 0 0 0 0 6m0-4a1 1 0 1 1 0 2 1 1 0 0 1 0-2M49 28a1 1 0 0 0 1-1v-1a1 1 0 0 0-2 0v1a1 1 0 0 0 1 1M49 44a1 1 0 0 0 1-1V31a1 1 0 0 0-2 0v12a1 1 0 0 0 1 1"/><path d="M1.992 33.712 33.33 44.83a1 1 0 0 1 .666.942V53a4 4 0 1 0 8-.169V52c0-.53.211-1.04.588-1.413A2.015 2.015 0 0 1 46 52.169V56a4 4 0 1 0 8-.169V22.98a1 1 0 0 0-.377-.782C25.714-.019 27.532 1.389 27.285 1.3 16.164-2.645 9.958 3.423 8.229 7.182c-.047.1.313-.9-8.056 22.7a3.01 3.01 0 0 0 1.819 3.83m24.469-30.58L47.748 20.08 10.607 7.056C12.1 4.815 16.718-.253 26.461 3.132M2.059 30.544l7.687-21.67C54.557 24.587 51.555 23.621 52 23.534v32.3A2.13 2.13 0 0 1 50.145 58 2.005 2.005 0 0 1 48 56v-3.831a4.012 4.012 0 0 0-6.826-3A4.46 4.46 0 0 0 40 52.831a2.015 2.015 0 0 1-3.412 1.582A1.99 1.99 0 0 1 36 53v-7.228a3.01 3.01 0 0 0-2-2.827L2.661 31.828a1 1 0 0 1-.602-1.284"/></g></g></svg>