<svg xmlns="http://www.w3.org/2000/svg" width="512" height="512" viewBox="0 0 60 60"><g fill="none"><path fill="#ffe0b2" d="M54 22H6c-1-3-1-3 1-5 2.017-2.017.76-1.76 3-4 .01-.01.03-.03.04-.03v-.01c1.325-1.282 3.525-.862 5.1-.99 1.918-.162 1.778-.957 2.66-2.65a3.7 3.7 0 0 1 1.42-1.54c0-.01 0-.01.02-.01a10.5 10.5 0 0 1 2.42-.97c2.45-.662 3.406-.011 4.34-2.8q.121-.382.32-.73A4.4 4.4 0 0 1 30 1a4.37 4.37 0 0 1 4 3c1 3 2 2 5 3s3 2 4 4 5 0 7 2c2.24 2.24 1 2 3 4s2 2 1 5"/><path fill="#dfc49c" d="M53 17c-2-2-.76-1.76-3-4-2-2-6 0-7-2s-1-3-4-4-4 0-5-3a4.37 4.37 0 0 0-4-3 4.6 4.6 0 0 0-1.5.327A4.18 4.18 0 0 1 31 4c1 3 2 2 5 3s3 2 4 4 5 0 7 2c2.24 2.24 1 2 3 4s2 2 1 5h3c1-3 1-3-1-5"/><path fill="#0377bc" d="M42 51.14V57a2.006 2.006 0 0 1-2 2H20a2.006 2.006 0 0 1-2-2v-5.86A27.9 27.9 0 0 0 30 54c4.17.017 8.285-.964 12-2.86"/><path fill="#02a9f4" d="M58.94 24.12C58.23 36.16 51.48 46.38 42 51.14h-.01C23.8 60.286 2.4 46.6 1.06 24.12A2.005 2.005 0 0 1 3.07 22h53.86a2.005 2.005 0 0 1 2.01 2.12"/><path fill="#0377bc" d="M56.93 22h-3a2.005 2.005 0 0 1 2.01 2.12c-.931 15.78-12.432 28.945-27.356 29.833C43.449 55.044 57.873 42.206 58.94 24.12A2.005 2.005 0 0 0 56.93 22"/><g fill="#000"><path d="M56.934 21h-1.571c.626-2.19.281-2.771-1.656-4.707-1.744-1.745-.708-1.708-3-4-2.19-2.19-6.281-.677-6.812-1.74-1.083-2.165-1.225-3.384-4.579-4.5-3.238-1.079-3.578 0-4.367-2.367a5.166 5.166 0 0 0-9.9 0c-.789 2.369-1.139 1.292-4.367 2.367-3.4 1.134-3.542 2.429-4.579 4.5-.527 1.054-4.619-.453-6.812 1.74-2.3 2.3-1.243 2.242-3 4C4.356 18.229 4.011 18.81 4.637 21H3.066a3.01 3.01 0 0 0-3 3.184C.789 36.374 7.549 46.693 17 51.719V57a3 3 0 0 0 3 3h20a3 3 0 0 0 3-3v-5.281c9.451-5.026 16.211-15.345 16.935-27.535A3.01 3.01 0 0 0 56.934 21M7.707 17.707c2.136-2.135.936-1.936 3-4 1.626-1.626 5.813.49 7.188-2.26 1.023-2.049.881-2.651 3.421-3.5 2.8-.933 4.434-.037 5.633-3.633a3.168 3.168 0 0 1 6.1 0c1.2 3.606 2.851 2.7 5.633 3.633 2.547.849 2.416 1.484 3.421 3.5 1.4 2.8 5.526.6 7.188 2.26 2.061 2.061.869 1.87 3 4 1.4 1.4 1.546 1.546.984 3.293H6.723c-.562-1.747-.415-1.894.984-3.293M41 57a1 1 0 0 1-1 1H20a1 1 0 0 1-1-1v-4.31a27.34 27.34 0 0 0 22 0zm-11-4C15.3 53 3.025 40.291 2.061 24.065a1.01 1.01 0 0 1 1-1.065h53.873a1.01 1.01 0 0 1 1.005 1.065C56.975 40.291 44.7 53 30 53"/><path d="M21.293 14.293c-.6.6-.916.606-1 .593-.191-.028-.364-.276-.4-.345a1 1 0 0 0-1.783.906 2.57 2.57 0 0 0 2.236 1.443 3.42 3.42 0 0 0 2.366-1.183 1 1 0 0 0-1.414-1.414zM35 11a.918.918 0 0 1-1-1.01 1 1 0 0 0-2 .01 2.916 2.916 0 0 0 3 3 1 1 0 0 0 0-2M44 17a4.2 4.2 0 0 1-2.053-.321A1 1 0 0 0 40 17c0 .469.289 2 4 2a1 1 0 0 0 0-2M7 25H6a1 1 0 0 0 0 2h1a1 1 0 0 0 0-2M30 25H11a1 1 0 0 0 0 2h19a1 1 0 0 0 0-2"/></g></g></svg>