<svg xmlns="http://www.w3.org/2000/svg" width="512" height="512" viewBox="0 0 60 60"><g fill="none"><path fill="sienna" d="M58.68 5.35a3.02 3.02 0 0 1-1.74 1.5c-21.3 7-3.344 1.1-16.15 5.31a2.01 2.01 0 0 1-2.53-1.27c-5.389 1.778-4.65 1.56-4.75 1.56l-1.25-3.8 22.8-7.5a3 3 0 0 1 3.62 4.2"/><path fill="sienna" d="M58.68 5.35a3.02 3.02 0 0 1-1.74 1.5c-21.3 7-3.344 1.1-16.15 5.31a2.01 2.01 0 0 1-2.53-1.27c-5.389 1.778-4.65 1.56-4.75 1.56l-1.25-3.8 22.8-7.5a3 3 0 0 1 3.62 4.2"/><path fill="#783e22" d="m55.06 1.15-.64.211a3 3 0 0 1-.48 5.489C33.3 13.628 49.522 8.3 38.891 11.8c.528.44 1.247.578 1.9.362C53.6 7.952 35.642 13.845 56.94 6.85a3.001 3.001 0 0 0-1.88-5.7"/><path fill="#9e9e9e" d="M31.91 17.19c-2.592.854-.27.09-11.25 3.7-.193.019.018.009-2.83.11-6.117.131-7.29-.254-9.28.34h-.03a8.1 8.1 0 0 1-2.42-2.88 1.017 1.017 0 0 1 .59-1.4l25.57-8.41 1.25 3.8h.01l.31.95a3.01 3.01 0 0 1-1.92 3.79"/><path fill="#707070" d="m33.83 13.4-.31-.95h-.01l-1.25-3.8-2.707.89.957 2.91h.01l.31.95a3.01 3.01 0 0 1-1.92 3.79c-2.592.854-.27.09-11.25 3.7-.193.019-2.228.112-4.529.124.781 0 5.857.042 7.529-.124 10.961-3.6 8.926-2.934 11.25-3.7a3.01 3.01 0 0 0 1.92-3.79"/><path fill="#ffeb3a" d="M56.99 25H3a11.2 11.2 0 0 1 5.55-3.66c1.99-.593 3.22-.21 9.28-.34 5.821-.069 7.779-.8 9.8-.93 5.77-.41 16.85 1.14 21.37 1.14A10.9 10.9 0 0 1 56.99 25"/><path fill="#fdd834" d="M49 21.21c-4.3 0-14.548-1.4-20.5-1.182 5.952.172 13.856 1.182 17.5 1.182A10.9 10.9 0 0 1 53.99 25h3A10.9 10.9 0 0 0 49 21.21"/><path fill="#02a9f4" d="m58.93 26.07-.4 5.93H1.47l-.4-5.93a1 1 0 0 1 1-1.07h55.86a1 1 0 0 1 1 1.07"/><path fill="#0377bc" d="M57.93 25h-3a1 1 0 0 1 1 1.07l-.4 5.93h3l.4-5.93a1 1 0 0 0-1-1.07"/><path fill="#02a9f4" d="m57.47 48-.22 3.27A4 4 0 0 1 53.26 55H6.74a4 4 0 0 1-3.99-3.73L2.53 48z"/><path fill="#0377bc" d="m54.47 48-.22 3.27A4 4 0 0 1 50.26 55h3a4 4 0 0 0 3.99-3.73l.22-3.27z"/><path fill="#f5f5f5" d="m58.53 32-1.06 16H2.53L1.47 32z"/><path fill="#cfd8dc" d="m55.53 32-1.06 16h3l1.06-16z"/><path fill="#0377bc" d="m54 55-.62 2.49A1.99 1.99 0 0 1 51.44 59H8.56a1.99 1.99 0 0 1-1.94-1.51L6 55z"/><path fill="#000" d="M59.73 24.317c-.37-.4-.61-.317-2.279-.317A11.83 11.83 0 0 0 49 20.212c-3.786 0-13.492-1.243-19.395-1.211l2.618-.861a4.02 4.02 0 0 0 2.557-5.053l3.01-.99a3 3 0 0 0 3.31 1.015L57.25 7.8a4 4 0 0 0-2.5-7.6L5.357 16.45a1 1 0 0 0-.637 1.263 8.95 8.95 0 0 0 1.918 3.246A12.5 12.5 0 0 0 2.533 24H1a1 1 0 0 0-1 1.066l1.753 26.267a5 5 0 0 0 3.4 4.386l.881 3.524A1 1 0 0 0 7 60h46a1 1 0 0 0 .97-.757l.881-3.524a5 5 0 0 0 3.4-4.386L60 25.066a1 1 0 0 0-.27-.749M56.531 47H3.469l-.934-14h54.93zM2.4 31l-.333-5h55.864l-.331 5zM55.375 2.1a2 2 0 0 1 1.25 3.8l-16.148 5.313a1 1 0 0 1-1.263-.638 1 1 0 0 0-.95-.687c-.224 0 .011-.056-4.111 1.3l-.627-1.9zM7 18.015l24.625-8.1 1.254 3.8A2.014 2.014 0 0 1 31.6 16.24L20.483 19.9c-6.127.35-9.2-.2-11.711.352A6.9 6.9 0 0 1 7 18.015M11 22c5.064 0 10.116.207 15.186-.752 4.8-.907 17.827.964 22.814.964A9.4 9.4 0 0 1 54.394 24H5.473A9.1 9.1 0 0 1 11 22m41.219 36H7.781l-.5-2h45.438zm1.039-4H6.742a3.007 3.007 0 0 1-2.993-2.8L3.6 49h52.8l-.147 2.2a3.007 3.007 0 0 1-2.995 2.8"/></g></svg>