<svg xmlns="http://www.w3.org/2000/svg" width="512" height="512" viewBox="0 0 60 60"><g fill="none"><path fill="#ffdc00" d="M59 47a6.38 6.38 0 0 1-2.01 4.39C52.77 55.85 42.28 59 30 59 13.98 59 1 53.63 1 47 8.592 6.856 7.219 14.11 8 10c0 2.54 3.48 5.2 9.33 6.82a46.3 46.3 0 0 0 10.95 1.54 50.4 50.4 0 0 0 15.11-1.75C48.8 14.97 52 12.43 52 10z"/><path fill="#fec108" d="M52 10c0 1.225-.815 2.477-2.314 3.628L56 47a6.38 6.38 0 0 1-2.01 4.39c-4.066 4.3-13.96 7.37-25.661 7.589q.83.02 1.671.021c12.28 0 22.77-3.15 26.99-7.61A6.38 6.38 0 0 0 59 47z"/><path fill="#ffeb3a" d="M52 9.99c0 3.318-5.412 5.651-8.61 6.62a51.95 51.95 0 0 1-25.54.35c-.109 0-.146-.14-.52-.14C13.942 15.882 8 13.494 8 9.99c.01-3.88 8.18-8.04 20.5-8.35.49-.01.99-.02 1.5-.02 13.15 0 21.99 4.33 22 8.37"/><path fill="#fdd834" d="M30 1.62c-.393 0-.827 0-1.664.027C40.738 1.931 48.99 6.09 49 9.99c0 3.318-5.412 5.651-8.61 6.62a46.3 46.3 0 0 1-11.914 1.748c5.032.19 10.063-.4 14.914-1.748 3.2-.969 8.61-3.3 8.61-6.62-.01-4.04-8.85-8.37-22-8.37"/><g fill="#000"><path d="M52.993 9.867C52.834 4.324 42.8 0 30 0S7.166 4.324 7.007 9.867L.018 46.814A1 1 0 0 0 0 47c0 7.29 13.178 13 30 13s30-5.71 30-13c0-.148.434 2.2-7.007-37.133M5.669 27.7q.876.52 1.872 1l-1.519 7.091a1 1 0 0 0 1.956.418l1.432-6.683a41 41 0 0 0 5.3 1.7L12.9 42.64c-4.088-1.272-7.291-3-9.127-4.911zm11.1-9.473-1.744 11.015a38.5 38.5 0 0 1-5.19-1.7l1.143-5.335a1 1 0 0 0-1.956-.418l-1.049 4.895q-.982-.495-1.905-1.092l2.3-12.134c1.607 1.959 4.565 3.614 8.405 4.77zM29 19.989v11A63 63 0 0 1 16.978 29.7l1.737-10.948A48 48 0 0 0 29 19.989m13.15-1.455 1.74 10.972A62 62 0 0 1 31 30.986v-11a47.2 47.2 0 0 0 11.15-1.452m9.487-5.076 2.3 12.134a29.5 29.5 0 0 1-8.094 3.426l-1.759-11.061c3.423-1.138 6.063-2.689 7.553-4.499M16.664 31.68A65 65 0 0 0 29 32.986v12a60.2 60.2 0 0 1-14.164-1.791zM31 32.986a64.3 64.3 0 0 0 13.2-1.5l1.819 11.466A59 59 0 0 1 31 44.984zm-2 14V57.99a58.5 58.5 0 0 1-16.137-2.366l1.658-10.444A62.5 62.5 0 0 0 29 46.984zm2 0a61.4 61.4 0 0 0 15.338-2.043l1.651 10.407A57.5 57.5 0 0 1 31 57.99zM46.153 31a33.3 33.3 0 0 0 8.178-3.3l1.9 10.028a20.96 20.96 0 0 1-8.274 4.63zM30 2c12.562 0 21 4.137 21 8s-8.438 8-21 8c-4.055.083-8.1-.414-12.015-1.475C12.359 14.977 9 12.436 9 10c0-3.863 8.438-8 21-8M2 47.089l1.332-7.04a26.2 26.2 0 0 0 9.175 4.568c.11.033.215-.87-1.567 10.356C5.527 52.97 2.066 50.156 2 47.089m47.9 7.559L48.271 44.36a25.4 25.4 0 0 0 8.4-4.311L58 47.089c-.063 2.905-3.17 5.583-8.1 7.559"/><path d="M12.01 11h14.562l-4.227 2.609a1 1 0 0 0 .526 1.851c.41 0 .1.114 6.129-3.608V15a1 1 0 0 0 2 0v-3.15c5.99 3.7 5.733 3.62 6.139 3.62a1 1 0 0 0 .527-1.85L33.428 11H47.99a1 1 0 0 0 0-2H33.621l4.194-2.589a1 1 0 1 0-1.05-1.7L31 8.267V5a1 1 0 0 0-2 0v3.263L23.236 4.7a1 1 0 1 0-1.019 1.722L26.389 9H12.01a1 1 0 0 0 0 2"/></g></g></svg>