<svg xmlns="http://www.w3.org/2000/svg" width="512" height="512" viewBox="0 0 60 60"><g fill="none"><path fill="#ffdc00" d="M54 26H6a10.7 10.7 0 0 1 2.09-5.82c.422-.561.902-1.077 1.43-1.54.02-.01.02-.02.03-.02a10.5 10.5 0 0 1 2.49-1.6c.35-.18 2.57-.34 2.96-.48l2.07-6.75A9.5 9.5 0 0 1 24 6a6.5 6.5 0 0 1 .83-1.91A6.82 6.82 0 0 1 31 1s-2 3 1 3c1.6-.126 3.14.644 4 2 9 1 9 10 9 10 9 2 9 10 9 10"/><path fill="#fec108" d="M45 16s0-9-9-10a4.33 4.33 0 0 0-4-2c-3 0-1-3-1-3a8.1 8.1 0 0 0-3.356.661C27.247 2.544 26.909 4 29 4c1.6-.126 3.14.644 4 2 9 1 9 10 9 10 9 2 9 10 9 10h3s0-8-9-10"/><path fill="#00695c" d="M42 53.97V58a1 1 0 0 1-1 1H19a1 1 0 0 1-1-1v-4.03c.818.05 23.182.05 24 0"/><path fill="#009688" d="M59 28v8c.002 9.553-7.462 17.442-17 17.97-.7.043 1.006.03-23 .03-9.941 0-18-8.059-18-18v-8a2.006 2.006 0 0 1 2-2h54a2.006 2.006 0 0 1 2 2"/><path fill="#00695c" d="M57 26h-3a2.006 2.006 0 0 1 2 2v8c0 9.941-8.059 18-18 18h3c9.941 0 18-8.059 18-18v-8a2.006 2.006 0 0 0-2-2"/><g fill="#000"><path d="M57 25h-2.1a11.645 11.645 0 0 0-8.959-9.8c-.255-2.33-1.658-9.026-9.367-10.137A5.53 5.53 0 0 0 32 3c-.22.02-.441-.015-.645-.1.02-.488.187-.958.477-1.35A1 1 0 0 0 31 0a7.8 7.8 0 0 0-7.786 5.1c-7.526 1.2-8.9 7.8-9.158 10.105A11.645 11.645 0 0 0 5.1 25H3a3 3 0 0 0-3 3v8c.012 9.714 7.34 17.859 17 18.893V58a2 2 0 0 0 2 2h22a2 2 0 0 0 2-2v-3.107C52.66 53.859 59.988 45.714 60 36v-8a3 3 0 0 0-3-3m-41.783-8.024A1 1 0 0 0 16 16c0-.331.131-8.122 8.11-9.008a1 1 0 0 0 .87-.8 5.45 5.45 0 0 1 4.446-4.054C29.075 3.734 29.93 5 32 5a3.4 3.4 0 0 1 3.1 1.447c.154.302.448.507.785.547C43.869 7.88 44 15.671 44 16a1 1 0 0 0 .783.976c6.341 1.409 7.784 5.979 8.117 8.024H7.1c.333-2.045 1.776-6.615 8.117-8.024M41 58H19v-3h22zm17-22c-.01 9.385-7.615 16.99-17 17H19c-9.385-.01-16.99-7.615-17-17v-8a1 1 0 0 1 1-1h54a1 1 0 0 1 1 1z"/><path d="M21 15h-1a1 1 0 0 0 0 2h1a1 1 0 0 0 0-2M29 15h-4a1 1 0 0 0 0 2h4a1 1 0 0 0 0-2M6 29H5a1 1 0 0 0 0 2h1a1 1 0 0 0 0-2M30 29H10a1 1 0 0 0 0 2h20a1 1 0 0 0 0-2"/></g></g></svg>