<svg xmlns="http://www.w3.org/2000/svg" width="512" height="512" viewBox="0 0 60 60"><g fill="none"><g transform="translate(1)"><path fill="#f57c00" d="M41.04 34.93a12.58 12.58 0 0 1 4.04 8.98c.045 8.682-9.127 14.76-18.49 14.04-2.749-.186-1.654-.457-2.9.01C12.621 61.815.149 55.216.08 45.16c-.048-8.235 8.214-14.09 16.98-14.09A16.993 16.993 0 0 1 27.84 1.01c12.119-.079 9.916-.067 13-.08 9.389-.055 17.045 7.511 17.1 16.9s-7.511 17.045-16.9 17.1"/><path fill="#ff9801" d="M45 18a16.96 16.96 0 0 1-7.75 14.26 18.7 18.7 0 0 0-5.3-1.87 13.016 13.016 0 1 0-7.9-.01 20 20 0 0 0-3.31.96 20.3 20.3 0 0 0-3.69-.34A17 17 0 1 1 45 18"/><path fill="#ffe0b2" d="M41 18c0 5.659-3.66 10.668-9.05 12.39a20.1 20.1 0 0 0-7.9-.01A13 13 0 1 1 41 18"/><path fill="#dfc49c" d="M26.49 5.092A13 13 0 0 1 29.8 30.08q1.081.1 2.147.31a13 13 0 0 0-5.46-25.3z"/><path fill="#f57c00" d="M45 44c0 8.962-10.077 15.615-20.74 13.66a16.9 16.9 0 0 0 5.9-3.8C36.3 53.07 41 48.95 41 44c0-4.779-4.31-8.38-8.92-9.49a16.2 16.2 0 0 0-4.56-.5 18.6 18.6 0 0 0-6.78-2.67C32 26.942 45 33.768 45 44"/><path fill="#dfc49c" d="M41 44c0 4.95-4.7 9.07-10.84 9.86 5.531-5.554 5.072-13.746-1.27-18.86 0-.01-.01-.01-.02-.02q-.65-.52-1.35-.97C33.768 33.619 41 37.771 41 44"/><path fill="#fec108" d="M28.89 35c0-.01-.01-.01-.02-.02C17.806 26.233 0 32.882 0 45c0 10.368 13.154 17 24.26 12.66C34.833 53.569 37.44 41.894 28.89 35M17 55C9.83 55 4 50.51 4 45s5.83-10 13-10 13 4.49 13 10-5.83 10-13 10"/><path fill="#dfc49c" d="M30 45c0 6.507-7.636 10.63-14.5 9.93C9.04 54.36 4 50.12 4 45s5.04-9.36 11.5-9.93C22.532 34.352 30 38.615 30 45"/><ellipse cx="15.5" cy="45" fill="#ffe0b2" rx="11.5" ry="9.93"/></g><g fill="#000"><path d="M32 45c0-6.065-6.28-11-14-11S4 38.935 4 45s6.28 11 14 11 14-4.935 14-11m-14 9c-6.617 0-12-4.038-12-9s5.383-9 12-9 12 4.038 12 9-5.383 9-12 9"/><path d="M42 0H29a17.98 17.98 0 0 0-13.271 30.133C6.874 31.068 0 37.372 0 45c0 10.887 13.525 18.117 25.356 13.682C41.127 61.359 52.668 46.934 44.1 35.868c9.434-1.148 16.35-9.433 15.795-18.92S51.504.039 42 0M29 2a15.992 15.992 0 0 1 9.164 29.1 20 20 0 0 0-2.239-.937 14 14 0 1 0-13.836 0c-.148.051-.3.094-.445.149a21.5 21.5 0 0 0-3.177-.3A15.984 15.984 0 0 1 29 2m-3.868 27.347a11.991 11.991 0 1 1 7.74 0 21.6 21.6 0 0 0-7.74 0M2 45c0-11.522 17.25-17.34 27.262-9.222 8 6.451 5.422 17.163-4.366 20.951C14.41 60.827 2 54.607 2 45m29.655-9.763C37.8 36.29 41 40.382 41 44c0 3.6-2.974 6.838-7.246 8.246 3.5-5.293 2.984-12.095-2.099-17.009M28.8 56.991a17.2 17.2 0 0 0 2.81-2.191C38.227 53.823 43 49.327 43 44c0-6.693-7.4-11.241-14.217-10.993a19 19 0 0 0-3.383-1.674c5.675-1.065 11.916.46 15.9 4.369 8.79 8.629.961 21.424-12.5 21.289m13.577-23.009a17 17 0 0 0-2.309-1.8A17.98 17.98 0 0 0 37.209 2H42c8.767-.01 15.908 7.038 16.012 15.804.103 8.767-6.87 15.982-15.635 16.178"/></g></g></svg>