<svg xmlns="http://www.w3.org/2000/svg" width="512" height="512" viewBox="0 0 56 61"><g fill="none"><path fill="#ffeb3a" d="M36 1H20.7a1 1 0 0 0-.939.657L1 53c4 7 15 6 15 6h20a31.7 31.7 0 0 0 18.407-5.542.99.99 0 0 0 .342-1.145z"/><path fill="#fec108" d="M54.41 53.46A32.06 32.06 0 0 1 36 59c-12 0-19-6-19-6C36.764-1.1 34.052 6.319 36 1l18.75 51.31a1 1 0 0 1-.34 1.15"/><path fill="#ffdc00" d="M52.8 54.52A32.56 32.56 0 0 1 36 59c-12 0-19-6-19-6L34.63 4.74C54 57.727 52.774 54.338 52.8 54.52"/><path fill="#f57c00" d="M36 59H16S5 60 1 53h16s7 6 19 6"/><g fill="#000"><path d="M14.471 60.056C17.2 60.056 8.013 60 36 60c12.229 0 19.354-5.986 19.65-6.241a1 1 0 0 0 .289-1.1l-19-52A1 1 0 0 0 36 0H20a1 1 0 0 0-.939.657l-19 52a1 1 0 0 0 .071.839c3.368 5.892 11.052 6.561 14.339 6.56M15.909 58c-.095.012-8.691.726-12.953-4h13.692a27.8 27.8 0 0 0 7.583 4zm37.9-5.35c-9.783 7.076-25.748 7.154-35.617 0L36 3.914zM20.7 2h13.87L16.311 51.973c-.016.1.541.027-13.881.027z"/><path d="M6.629 49.929a1 1 0 0 0 1.3-.557l6-15a1 1 0 0 0-1.858-.744l-6 15a1 1 0 0 0 .558 1.301"/></g></g></svg>