<svg xmlns="http://www.w3.org/2000/svg" width="512" height="512" viewBox="0 0 60 60"><g fill="none"><g transform="translate(1 1)"><path fill="#ffeb3a" d="m29 17 9.98 15.97c-.97.21-1.96.39-2.98.53-17.411 2.565-36-5-36-16.5C0 7.91 12.17.48 27.49.02 27.707.02 28.146 0 29 0c16.02 0 29 7.61 29 17z"/><g fill="#fdd834"><path d="m26 17 9.98 15.97a47 47 0 0 1-8.424 1c3.834.128 7.67-.208 11.424-1L29 17zM29 0c-.554 0-1.3.014-1.545.022C42.8.466 55 7.9 55 17h3C58 7.61 45.02 0 29 0"/><path d="M58 17v22a2.006 2.006 0 0 1-2 2H39v-8c-.878-1.318 3.351 5.364-10-16z"/></g><path fill="#ffdc00" d="M39 33v22.31a2.025 2.025 0 0 1-1.68 1.98C19.407 60.423 0 52.775 0 41V17c0 9.08 12.13 16.49 27.42 16.98 8.48.163 11.429-1.207 11.58-.98"/><path fill="#fec108" d="M36 33.516V55.31a2.025 2.025 0 0 1-1.68 1.98c-2.201.383-4.427.61-6.66.678 3.235.1 6.471-.127 9.66-.678.965-.167 1.673-1 1.68-1.98V33q-1.516.17-3 .516"/><path fill="#ffe0b2" d="M58 17v22a2.006 2.006 0 0 1-2 2H39v-8c-.878-1.318 3.351 5.364-10-16z"/><path fill="#dfc49c" d="M55 17v22a2.006 2.006 0 0 1-2 2h3a2.006 2.006 0 0 0 2-2V17z"/><circle cx="42" cy="24" r="3" fill="sienna"/><path fill="sienna" d="M58 24v8a5 5 0 1 1 0-8"/><path fill="#783e22" d="M53.485 23.232A4.9 4.9 0 0 1 55 24v8a4.9 4.9 0 0 1-1.515.768A5 5 0 0 0 58 32v-8a5.01 5.01 0 0 0-4.515-.768"/><circle cx="46" cy="34" r="2" fill="sienna"/></g><g fill="#000"><path d="M40.211 58.938A1 1 0 0 0 41 57.96V43h16a3 3 0 0 0 3-3V18C60 8.075 46.542 0 30 0S0 8.075 0 18v24c0 12.935 21.352 21 40.211 16.938M57 41H41v-7c0-.414.592.662-9.195-15H58v4.346a6 6 0 1 0 0 11.308V40a1 1 0 0 1-1 1m1-8.544a4 4 0 1 1 0-6.912zM30 2c14.851 0 27.033 6.642 27.94 15H30a1 1 0 0 0-.848 1.53l9.2 14.726C20.777 36.428 2 29 2 18 2 9.178 14.561 2 30 2M2 24.451C6.333 31.2 17.246 36 30 36c3.02.001 6.032-.277 9-.83v21.975C21.448 60.586 2 53.239 2 42z"/><path d="M29 6.01S29.672 6 30 6a1 1 0 0 0 0-2q-.513 0-1.021.01a1 1 0 0 0 .021 2M6 18c0-5.631 8.024-10.569 19.079-11.743a1 1 0 0 0-.211-1.989C12.581 5.573 4 11.219 4 18a1 1 0 0 0 2 0M47 25a4 4 0 1 0-8 0 4 4 0 0 0 8 0m-4 2a2 2 0 1 1 0-4 2 2 0 0 1 0 4M47 32a3 3 0 1 0 0 6 3 3 0 0 0 0-6m0 4a1 1 0 1 1 0-2 1 1 0 0 1 0 2"/></g></g></svg>