<svg xmlns="http://www.w3.org/2000/svg" width="512" height="512" viewBox="0 0 60 60"><g fill="none"><path fill="#37474f" d="M22 11H10l.82-8.2A2 2 0 0 1 12.81 1h6.38a2 2 0 0 1 1.99 1.8z"/><path fill="#607d8b" d="M19 11h-9l.82-8.2A2 2 0 0 1 12.81 1h3.38a2 2 0 0 1 1.99 1.8z"/><path fill="#0377bc" d="M31 20v38a1 1 0 0 1-1 1H2a1 1 0 0 1-1-1V20a9 9 0 0 1 9-9h12a9 9 0 0 1 9 9"/><path fill="#02a9f4" d="M28 20v38a1 1 0 0 1-1 1H2a1 1 0 0 1-1-1V20a9 9 0 0 1 9-9h9a9 9 0 0 1 9 9"/><path fill="#283593" d="M1 24h30v24H1z"/><path fill="#3f51b5" d="M1 24h27v24H1z"/><path fill="#fec108" d="M59 55a4 4 0 0 1-4 4H39a4 4 0 1 1 0-8h4a4 4 0 1 1 0-8s-3-3 1-6c1.511-1.14 3.608-3.194 3.01-4.99.3.1 5.99 2.14 5.99 7.99a3.7 3.7 0 0 1-2 3 4 4 0 1 1 0 8h4a4 4 0 0 1 4 4"/><path fill="#ffdc00" d="M56 55a4 4 0 0 1-4 4H39a4 4 0 1 1 0-8h4a4 4 0 1 1 0-8s-3-3 1-6a8.07 8.07 0 0 0 2.9-3.34A7.96 7.96 0 0 1 50 40a3.7 3.7 0 0 1-2 3 4 4 0 1 1 0 8h4a4 4 0 0 1 4 4"/><path fill="#f3d55b" d="M47.01 32.01 47 32"/><path fill="#fec108" d="M23 34v8a1 1 0 0 1-1 1H10a1 1 0 0 1-1-1v-8z"/><path fill="#ffdc00" d="M20 34v8a1 1 0 0 1-1 1h-9a1 1 0 0 1-1-1v-8z"/><path fill="#ffeb3a" d="M23 34H9a5.276 5.276 0 0 1 4-5z"/><g fill="#000"><path d="M2 60h28a2 2 0 0 0 2-2V20a10.01 10.01 0 0 0-9.09-9.954L22.175 2.7A2.99 2.99 0 0 0 19.19 0h-6.38a2.99 2.99 0 0 0-2.985 2.7l-.735 7.346A10.01 10.01 0 0 0 0 20v38a2 2 0 0 0 2 2m0-2v-9h28v9zm0-33h2v10a1 1 0 0 0 2 0V25h24v22H2zm9.815-22.1a1 1 0 0 1 1-.9h6.38a1 1 0 0 1 .995.9l.71 7.1h-9.79zM10 12h12a8.01 8.01 0 0 1 8 8v3H2v-3a8.01 8.01 0 0 1 8-8"/><path d="M5 21a1 1 0 0 0 1-1v-1a1 1 0 0 0-2 0v1a1 1 0 0 0 1 1M34 55a5 5 0 0 0 5 5h16a5 5 0 0 0 0-10 5 5 0 0 0-1.87-7.524A4 4 0 0 0 54 40a9.55 9.55 0 0 0-6.658-8.934 1.04 1.04 0 0 0-.859.1.78.78 0 0 0-.439.6.66.66 0 0 0 0 .459c.348 1.458-1.452 3.073-2.645 3.97-2.542 1.907-2.935 4.156-2.056 6.082A5 5 0 0 0 39 50a5.007 5.007 0 0 0-5 5m9-3a1 1 0 0 0 0-2 3 3 0 0 1 0-6 1 1 0 0 0 .712-1.7 2.98 2.98 0 0 1-.785-2.059A3.6 3.6 0 0 1 44.6 37.8c2.213-1.664 3.085-3.13 3.378-4.231A7.39 7.39 0 0 1 52 40a2.73 2.73 0 0 1-1.447 2.1A1 1 0 0 0 51 44a3 3 0 0 1 0 6 1 1 0 0 0 0 2h4a3 3 0 0 1 0 6H39a3 3 0 0 1 0-6zM23.929 33.649a2 2 0 0 0-.2-.323 1 1 0 0 0-.168-.131 1 1 0 0 0-.114-.09C12.626 27.7 13.266 27.9 12.758 28.03A6.23 6.23 0 0 0 8 34v8a2 2 0 0 0 2 2h12a2 2 0 0 0 2-2c0-9.321.016-7.836-.028-8.139a1 1 0 0 0-.043-.212M12.9 30.068 18.764 33h-8.615a4.03 4.03 0 0 1 2.751-2.932M22 42H10v-7h12z"/></g></g></svg>