<svg xmlns="http://www.w3.org/2000/svg" width="512" height="512" viewBox="0 0 57 61"><g fill="none"><path fill="#624421" d="M12 42h4v14h-4zM38 42h4v14h-4z"/><path fill="sienna" d="M54.12 7.12 45.24 16H44a2.006 2.006 0 0 0-2-2h-3.24L49.88 2.88a2.99 2.99 0 0 1 2.98-.75l.01.01a2.99 2.99 0 0 1 1.25 4.98"/><path fill="#783e22" d="M54.12 2.88a2.99 2.99 0 0 0-3.62-.47 2.99 2.99 0 0 1 .619 4.71l-7.6 7.6c.307.356.478.81.481 1.28h1.24l8.88-8.88a2.994 2.994 0 0 0 0-4.24"/><path fill="sienna" d="M17.36 14c-8.062 0-7.683-.079-8.26.22L2 7.12a3 3 0 1 1 4.24-4.24z"/><path fill="#783e22" d="M9.1 14.22c.278-.144.587-.22.9-.22H8.88zM6.24 2.88a2.975 2.975 0 0 0-3.625-.465C3.192 2.749 2.24 1.88 14.36 14h3z"/><path fill="#ffdc00" d="M30 50.2a3.007 3.007 0 0 1-6 0c0-1.06 1.41-2.64 2.3-3.53a.984.984 0 0 1 1.4 0c.89.89 2.3 2.47 2.3 3.53"/><path fill="sienna" d="M48 58a2.006 2.006 0 0 1-2 2H8a2 2 0 1 1 0-4h38a2.005 2.005 0 0 1 2 2"/><path fill="#783e22" d="M47.41 56.59c-.37-.38-.88-.593-1.41-.59h-3a2 2 0 0 1 0 4h3a2 2 0 0 0 1.41-3.41"/><path fill="sienna" d="M48 40a2.006 2.006 0 0 1-2 2H8a2 2 0 1 1 0-4h38a2.005 2.005 0 0 1 2 2"/><path fill="#783e22" d="M47.41 38.59c-.37-.38-.88-.593-1.41-.59h-3a2 2 0 0 1 0 4h3a2 2 0 0 0 1.41-3.41"/><path fill="#f44335" d="m51.8 18.18-1.3 14.36A6.01 6.01 0 0 1 44.52 38H9.48a6.01 6.01 0 0 1-5.98-5.46L2.2 18.18A1.994 1.994 0 0 1 4.19 16H8v10a2 2 0 1 0 4 0v-2a2 2 0 1 1 4 0v6a2 2 0 1 0 4 0V16h16v12a2 2 0 1 0 4 0v-4a2.005 2.005 0 0 1 2-2 2.006 2.006 0 0 0 2-2v-4h5.81a1.994 1.994 0 0 1 1.99 2.18"/><path fill="#c81e1e" d="M49.81 16h-3a1.994 1.994 0 0 1 1.99 2.18l-1.3 14.36A6.01 6.01 0 0 1 41.52 38h3a6.01 6.01 0 0 0 5.98-5.46l1.3-14.36A1.994 1.994 0 0 0 49.81 16"/><path fill="#ffe0b2" d="M20 16v14a2 2 0 1 1-4 0v-6a2 2 0 1 0-4 0v2a2 2 0 1 1-4 0V16a2.013 2.013 0 0 1 2-2h8a2.006 2.006 0 0 1 2 2"/><path fill="#dfc49c" d="M18 14h-3a2.006 2.006 0 0 1 2 2v14a1.98 1.98 0 0 1-.5 1.308A2 2 0 0 0 20 30V16a2.006 2.006 0 0 0-2-2"/><path fill="#ffe0b2" d="M44 16v4a2.006 2.006 0 0 1-2 2 2.005 2.005 0 0 0-2 2v4a2 2 0 1 1-4 0V16a2.006 2.006 0 0 1 2-2h4a2.006 2.006 0 0 1 2 2"/><path fill="#dfc49c" d="M42 14h-3a2.006 2.006 0 0 1 2 2v4a2.006 2.006 0 0 1-2 2 2.005 2.005 0 0 0-2 2v4a1.98 1.98 0 0 1-.5 1.308A2 2 0 0 0 40 28v-4a2.005 2.005 0 0 1 2-2 2.006 2.006 0 0 0 2-2v-4a2.006 2.006 0 0 0-2-2"/><path fill="#000" d="M49.173 2.173 38.346 13H38a3 3 0 0 0-2.816 2H20.816A3 3 0 0 0 18 13c-.322 0 .971 1.2-11.053-10.827a4 4 0 1 0-5.654 5.654l6.345 6.345c-.194.25-.347.53-.454.828H4.19a3 3 0 0 0-2.99 3.271L2.5 32.63a6.97 6.97 0 0 0 3.3 5.339A2.994 2.994 0 0 0 8 43h3v12H8a3 3 0 0 0 0 6h38a3 3 0 0 0 0-6h-3V43h3a2.994 2.994 0 0 0 2.194-5.031 6.97 6.97 0 0 0 3.3-5.339l1.3-14.356A3 3 0 0 0 49.81 15h-2.156l7.173-7.173a4 4 0 1 0-5.654-5.654M38 15h4a1 1 0 0 1 1 1v4a1 1 0 0 1-1 1 3 3 0 0 0-3 3v4a1 1 0 0 1-2 0V16a1 1 0 0 1 1-1m-19 1v14a1 1 0 0 1-2 0v-6a3 3 0 0 0-6 0v2a1 1 0 0 1-2 0V16a1 1 0 0 1 1-1h8a1 1 0 0 1 1 1M2.707 3.587a2.053 2.053 0 0 1 2.826 0L14.946 13c-5.453 0-5.138-.025-5.582.071L2.707 6.413a2 2 0 0 1 0-2.826M13 43h2v12h-2zm24 12h-9v-1.135a3.84 3.84 0 0 0 3-3.665c0-1.853-2.555-4.257-3.338-4.949a1 1 0 0 0-1.324 0C25.555 45.943 23 48.347 23 50.2a3.84 3.84 0 0 0 3 3.665V55h-9V43h20zm-10-5a1 1 0 0 0-1 1v.75a1.77 1.77 0 0 1-1-1.55c0-.531.957-1.778 2-2.825 1.043 1.045 2 2.292 2 2.825a1.77 1.77 0 0 1-1 1.55V51a1 1 0 0 0-1-1m20 8a1 1 0 0 1-1 1H8a1 1 0 0 1 0-2h38a1 1 0 0 1 1 1m-6-3h-2V43h2zm5-16a1 1 0 0 1 0 2H8a1 1 0 0 1 0-2zm4.8-20.91-1.3 14.36A4.98 4.98 0 0 1 44.52 37H9.48a4.98 4.98 0 0 1-4.98-4.55L3.2 18.086A.994.994 0 0 1 4.19 17H7v9a3 3 0 0 0 6 0v-2a1 1 0 0 1 2 0v6a3 3 0 0 0 6 0V17h14v11a3 3 0 0 0 6 0v-4a1 1 0 0 1 1-1 3 3 0 0 0 3-3v-3h4.81a.99.99 0 0 1 .99 1.09m2.613-11.677c-8.7 8.7-8.5 8.587-8.6 8.587A3 3 0 0 0 42 13h-.826l9.413-9.413a2 2 0 0 1 2.826 2.826"/></g></svg>