<svg xmlns="http://www.w3.org/2000/svg" width="512" height="512" viewBox="0 0 48 60"><g fill="none"><path fill="#ffe0b2" d="M41 13a6 6 0 0 1 6 6v23a4 4 0 0 1-4 4H5a4 4 0 0 1-4-4V19a6 6 0 0 1 6-6 6 6 0 0 1-6-6V5a4 4 0 0 1 4-4h38a4 4 0 0 1 4 4v2a6 6 0 0 1-6 6"/><path fill="#dfc49c" d="M47 7V5a4 4 0 0 0-4-4h-3a4 4 0 0 1 4 4v2a6 6 0 0 1-6 6 6 6 0 0 1 6 6v23a4 4 0 0 1-4 4h3a4 4 0 0 0 4-4V19a6 6 0 0 0-6-6 6 6 0 0 0 6-6"/><path fill="#783e22" d="M17 50h10v4H17zM9 50v4H5a4 4 0 0 1-4-4v-4a4 4 0 0 0 4 4z"/><path fill="sienna" d="M47 42v4a4 4 0 0 1-4 4H5a4 4 0 0 1-4-4v-4a4 4 0 0 0 4 4h38a4 4 0 0 0 4-4"/><path fill="#783e22" d="M44 45.859A4 4 0 0 1 40 50h3a4 4 0 0 0 4-4v-4a3.99 3.99 0 0 1-3 3.859"/><path fill="#783e22" d="M47 46v4a4 4 0 0 1-4 4h-4v-4h4a4 4 0 0 0 4-4"/><g fill="#ffeb3a"><path d="M39 50v7a2 2 0 1 1-4 0v-3a2 2 0 1 1-4 0v3a2 2 0 1 1-4 0v-7zM17 50v7a2 2 0 1 1-4 0v-3a2 2 0 1 1-4 0v-4z"/></g><g fill="#000"><path d="M43 0H5a5.006 5.006 0 0 0-5 5v2a7 7 0 0 0 3.4 6A7 7 0 0 0 0 19v31a5.006 5.006 0 0 0 5 5h3.184A2.99 2.99 0 0 0 12 56.829 3.001 3.001 0 0 0 18 57v-2h8v2a3.001 3.001 0 1 0 6-.171 3.1 3.1 0 0 0 2 0A3.001 3.001 0 0 0 40 57v-2h3a5.006 5.006 0 0 0 5-5V19a7 7 0 0 0-3.4-6A7 7 0 0 0 48 7V5a5.006 5.006 0 0 0-5-5M5 49a3 3 0 0 1-3-3.026A4.95 4.95 0 0 0 5 47h38a4.95 4.95 0 0 0 3-1.026A3 3 0 0 1 43 49zm-3 .974A4.95 4.95 0 0 0 5 51h3v2H5a3 3 0 0 1-3-3.026M16 57a1 1 0 0 1-2 0v-3a1 1 0 0 0-2 0 1 1 0 0 1-2 0v-3h6zm2-4v-2h8v2zm20 4a1 1 0 0 1-2 0v-3a1 1 0 0 0-2 0 1 1 0 0 1-2 0 1 1 0 0 0-2 0v3a1 1 0 0 1-2 0v-6h10zm5-4h-3v-2h3a4.95 4.95 0 0 0 3-1.026A3 3 0 0 1 43 53m3-46a5.006 5.006 0 0 1-5 5 1 1 0 0 0 0 2 5.006 5.006 0 0 1 5 5v23a3 3 0 0 1-3 3H5a3 3 0 0 1-3-3V19a5.006 5.006 0 0 1 5-5 1 1 0 0 0 0-2 5.006 5.006 0 0 1-5-5V5a3 3 0 0 1 3-3h38a3 3 0 0 1 3 3z"/><path d="M36.707 17.293a1 1 0 0 0-1.414 0l-22 22a1 1 0 1 0 1.414 1.414l22-22a1 1 0 0 0 0-1.414M38.707 6.293a1 1 0 0 0-1.414 0l-31 31a1 1 0 1 0 1.414 1.414l31-31a1 1 0 0 0 0-1.414M7 30a1 1 0 0 0 .707-.293l22-22a1 1 0 1 0-1.414-1.414l-22 22A1 1 0 0 0 7 30M7 21a1 1 0 0 0 .707-.293l13-13a1 1 0 1 0-1.414-1.414l-13 13A1 1 0 0 0 7 21M9 10c.543 0 .565-.151 2.707-2.293a1 1 0 1 0-1.414-1.414l-2 2A1 1 0 0 0 9 10M22.293 40.707a1 1 0 0 0 1.414 0l18-18a1 1 0 0 0-1.414-1.414l-18 18a1 1 0 0 0 0 1.414M40.293 30.293l-9 9a1 1 0 0 0 1.414 1.414l9-9a1 1 0 0 0-1.414-1.414"/></g></g></svg>