<svg xmlns="http://www.w3.org/2000/svg" width="512" height="512" viewBox="0 0 52 60"><g fill="none"><g transform="translate(1 1)"><path fill="#d84315" d="M47 26v26a6 6 0 0 1-6 6H9a6 6 0 0 1-6-6V26a11.9 11.9 0 0 1 2.25-7l.01-.01c5.27-.07 4.88-2.51 8.6-2.93A16 16 0 0 1 15.8 16c4.62 0 4.56 3 9.2 3 4.25 0 4.54-2.52 8.14-2.94q.928-.087 1.86-.06c4.872 0 4.257 3 9.75 3A11.9 11.9 0 0 1 47 26"/><path fill="#ff5722" d="M44 26v26a6 6 0 0 1-6 6H9a6 6 0 0 1-6-6V26a11.9 11.9 0 0 1 2.25-7l.01-.01c5.27-.07 4.88-2.51 8.6-2.93A16 16 0 0 1 15.8 16c4.62 0 4.56 3 9.2 3 4.25 0 4.54-2.52 8.14-2.94q.928-.087 1.86-.06c3.24 0 3.98 1.29 5.78 2.18h.01l.96.82A11.9 11.9 0 0 1 44 26"/><path fill="#dfc49c" d="M42 37c0 6.08-7.61 11-17 11-.51 0-1.01-.01-1.5-.05C14.81 47.47 8 42.75 8 37s6.81-10.47 15.5-10.95c.49-.04.99-.05 1.5-.05 9.39 0 17 4.92 17 11"/><ellipse cx="23.5" cy="37" fill="#ffe0b2" rx="15.5" ry="10.95"/><path fill="#f57c00" d="M38 37c0 3.3-5.56 7-13 7-.51 0-1.01-.02-1.5-.05C16.82 43.49 12 40.07 12 37s4.82-6.49 11.5-6.95c.49-.03.99-.05 1.5-.05 7.44 0 13 3.7 13 7"/><ellipse cx="23.5" cy="37" fill="#ff9801" rx="11.5" ry="6.95"/><path fill="#ffeb3a" d="M50 16s0 3-5 3c-6.029 0-4.989-3-10-3q-.931-.027-1.86.06C29.54 16.48 29.25 19 25 19c-4.64 0-4.58-3-9.2-3a16 16 0 0 0-1.94.06c-3.72.42-3.33 2.86-8.6 2.93l-.01.01q-.812.015-1.62-.08C0 18.42 0 16 0 16c2-6 9-8 9-8h32s7 2 9 8"/><path fill="#fdd834" d="M41 8h-3s7 2 9 8c0 0-.012 2.406-3.617 2.9q.805.1 1.617.1c5 0 5-3 5-3-2-6-9-8-9-8M45 4a4 4 0 0 1-4 4H9a4 4 0 1 1 0-8h32a4 4 0 0 1 4 4"/><path fill="#ffdc00" d="M42 4a4 4 0 0 1-4 4H9a4 4 0 1 1 0-8h29a4 4 0 0 1 4 4"/></g><g fill="#000"><path d="M44.855 9.094A5 5 0 0 0 42 0H10a5 5 0 0 0-2.855 9.094c-2.384 1.2-5.745 3.544-7.094 7.59A1 1 0 0 0 0 17c0 .036.072 3.3 4.525 3.9A12.9 12.9 0 0 0 3 27v26a7.01 7.01 0 0 0 7 7h32a7.01 7.01 0 0 0 7-7V27a12.9 12.9 0 0 0-1.525-6.1C51.928 20.3 52 17.036 52 17a1 1 0 0 0-.051-.316c-1.349-4.046-4.71-6.384-7.094-7.59M10 2h32a3 3 0 0 1 0 6H10a3 3 0 1 1 0-6m37 51a5.006 5.006 0 0 1-5 5H10a5.006 5.006 0 0 1-5-5V27a10.9 10.9 0 0 1 1.8-6.028C12.274 20.707 11.683 18 16 18c4.511 0 4.767 3 10 3 5.213 0 5.49-3 10-3 4.311 0 3.738 2.708 9.2 2.972A10.9 10.9 0 0 1 47 27zm-1-34c-5.714 0-4.516-3-10-3-5.213 0-5.49 3-10 3s-4.767-3-10-3c-5.5 0-4.3 3-10 3-3.359 0-3.9-1.423-3.984-1.877 1.744-4.856 7.24-6.831 8.137-7.123h31.7c.9.29 6.381 2.245 8.133 7.118C49.89 17.6 49.334 19 46 19"/><path d="M11 54h-1a1 1 0 0 0 0 2h1a1 1 0 0 0 0-2M42 54H15a1 1 0 0 0 0 2h27a1 1 0 0 0 0-2M26 26c-9.925 0-18 5.383-18 12s8.075 12 18 12 18-5.383 18-12-8.075-12-18-12m0 22c-8.822 0-16-4.486-16-10s7.178-10 16-10 16 4.486 16 10-7.178 10-16 10"/><path d="M26 30c-7.458 0-14 3.738-14 8s6.542 8 14 8 14-3.738 14-8-6.542-8-14-8m0 14c-7.325 0-12-3.554-12-6s4.675-6 12-6 12 3.554 12 6-4.675 6-12 6"/></g></g></svg>