<svg xmlns="http://www.w3.org/2000/svg" width="512" height="512" viewBox="0 0 61 60"><g fill="none"><g transform="translate(2 1)"><path fill="#ffdc00" d="M25.37 58 1.15 48.34A1.85 1.85 0 0 1 0 46.63V18.44l25.37 11.04-1.21 3.69a3.69 3.69 0 0 0 .54 3.37l.11.16c.888 1.2.971 2.816.21 4.1l-.34.59a3.71 3.71 0 0 0 0 3.78l.48.82a3.71 3.71 0 0 1 0 3.78c-1.873 3.189-1.588 2.697.21 8.23"/><path fill="#00838f" d="M50.84 58H35.16a1 1 0 0 1-.31-1.95l2.73-.91A5 5 0 0 0 41 50.4V31.91c1.33.118 2.669.122 4 .01V50.4a5 5 0 0 0 3.42 4.74l2.73.91a1 1 0 0 1-.31 1.95"/><path fill="#ffeb3a" d="M30.6 27.71c-3.362 1.141-2.171.738-5.23 1.77L0 18.44c1.4-1.985 4.927-4.49 8.96-5.59A23.5 23.5 0 0 1 15.4 12c19.872 20.177 13.874 14.1 15.06 15.29z"/><path fill="#fdd834" d="M15.4 12q-1.424.003-2.84.162c19.673 19.975 13.718 13.946 14.9 15.128l.14.42c-2.476.84-2.486.844-3.54 1.2l1.31.57c3.059-1.032 1.868-.63 5.23-1.77-.209-.628 1.532 1.278-15.2-15.71"/><path fill="#ff9801" d="M31.41 39.3c-1.161 2.353.724 3.623-.03 5.92l-1.1 3.34a3.7 3.7 0 0 0 0 2.32l.91 2.75c.296.906-.14 1.89-1.01 2.28L25.37 58c-1.791-5.512-2.08-5.046-.21-8.23a3.71 3.71 0 0 0 0-3.78l-.48-.82a3.71 3.71 0 0 1 0-3.78l.34-.59a3.71 3.71 0 0 0-.21-4.1l-.11-.16a3.69 3.69 0 0 1-.54-3.37l1.21-3.69c.1-.035 4.826-1.627 5.4-1.83.075.1.072-.216-.61 3.96a3.7 3.7 0 0 0 .67 2.81l.45.6c.82 1.12.95 2.603.34 3.85z"/><path fill="#f57c00" d="M31.62 38.87c.61-1.247.48-2.73-.34-3.85l-.45-.6a3.7 3.7 0 0 1-.67-2.81c.682-4.176.685-3.859.61-3.96-.306.108-1.79.611-3.126 1.062-.1.574-.251 1.468-.484 2.9a3.7 3.7 0 0 0 .67 2.81l.45.6c.82 1.12.95 2.603.34 3.85l-.21.43c-1.161 2.353.724 3.623-.03 5.92l-1.1 3.34a3.7 3.7 0 0 0 0 2.32l.91 2.75c.296.906-.14 1.89-1.01 2.28l-2.187.95c.118.352.242.724.377 1.14l4.81-2.09a1.865 1.865 0 0 0 1.01-2.28l-.91-2.75a3.7 3.7 0 0 1 0-2.32l1.1-3.34c.754-2.3-1.131-3.567.03-5.92z"/><path fill="#f44335" d="M58 19.61C58 28.234 51.543 32 43 32c-8.445 0-15-3.707-15-12.39.003-1.42.094-2.84.27-4.25 3.533-.71 7.158-.83 10.73-.36a37.1 37.1 0 0 0 18.4-1.88c.386 2.142.587 4.313.6 6.49"/><path fill="#c81e1e" d="M57.4 13.12c-.659.247-1.816.627-2.855.925.293 1.84.445 3.701.455 5.565 0 7.983-5.441 11.844-13.493 12.34.517.04 1.015.05 1.493.05 8.555 0 15-3.775 15-12.39a38 38 0 0 0-.6-6.49"/><circle cx="49" cy="21" r="2" fill="#c81e1e"/><path fill="#00bcd4" d="M57.4 13.12a35.35 35.35 0 0 1-14.21 2.23c-3.848-.144-8.755-1.337-14.92.01A48.8 48.8 0 0 1 32.72.55a.99.99 0 0 1 .89-.55h18.78a.99.99 0 0 1 .89.55 49.9 49.9 0 0 1 4.12 12.57"/><path fill="#00838f" d="M53.28.55a.99.99 0 0 0-.89-.55h-3a.99.99 0 0 1 .89.55 49.9 49.9 0 0 1 4.12 12.57 34.9 34.9 0 0 1-11.2 2.23c4.836.238 9.67-.521 14.2-2.23A49.9 49.9 0 0 0 53.28.55"/></g><g fill="#000"><circle cx="14" cy="37" r="1"/><circle cx="14" cy="47" r="1"/><circle cx="9" cy="42" r="1"/><circle cx="19" cy="43" r="1"/><circle cx="8" cy="30" r="1"/><circle cx="20" cy="33" r="1"/><circle cx="44" cy="26" r="1"/><circle cx="37" cy="21" r="1"/><path d="M55 0H35a1 1 0 0 0-.88.526C30.951 6.4 28.027 17.421 29.3 23.7L18.114 12.3a1 1 0 0 0-.714-.3C6.14 12 1.379 18.584 1.182 18.865.911 19.25 1 17.57 1 47.626a2.82 2.82 0 0 0 1.779 2.641C28.75 60.627 27.085 60 27.371 60s-.018.1 5.21-2.174a2.86 2.86 0 0 0 1.558-3.51l-.91-2.753a2.7 2.7 0 0 1 0-1.69l1.1-3.341c.87-2.647-.974-3.863-.021-5.793l.209-.427a4.72 4.72 0 0 0-.438-4.892l-.445-.594a2.7 2.7 0 0 1-.488-2.055l.348-2.133A16.44 16.44 0 0 0 42 33.825V51.4a3.99 3.99 0 0 1-2.736 3.791l-2.73.91A2 2 0 0 0 37.16 60h15.68a2 2 0 0 0 .626-3.9l-2.73-.91A3.99 3.99 0 0 1 48 51.4V33.825c8.194-.922 13-5.707 13-13.212C61 10.16 56.09.915 55.88.526A1 1 0 0 0 55 0M35.615 2h18.77a49.6 49.6 0 0 1 3.857 11.457 36.3 36.3 0 0 1-17.118 1.551 33.9 33.9 0 0 0-9.664.115A49.3 49.3 0 0 1 35.615 2M16.983 14l13.951 14.216-3.522 1.194-23.85-10.256C5.148 17.515 9.339 14.123 16.983 14M3 47.626V21.089l23.135 9.948-.927 2.822a4.73 4.73 0 0 0 .685 4.277c.753.888.86 2.155.268 3.157l-.345.585a4.72 4.72 0 0 0 0 4.8l.481.814a2.73 2.73 0 0 1 0 2.769l-.742 1.255a4.73 4.73 0 0 0-.414 3.894l.652 1.88L3.52 48.41a.845.845 0 0 1-.52-.784m29.722-8.195-.208.426c-.495 1-.62 2.143-.354 3.226.626 2.5.659 1.642-.829 6.161a4.7 4.7 0 0 0 0 2.95l.906 2.74a.86.86 0 0 1-.455 1.059l-3.758 1.633-.988-2.852c-.457-1.394.25-2.251.983-3.492a4.72 4.72 0 0 0 0-4.8l-.481-.813a2.72 2.72 0 0 1 0-2.77l.344-.584a4.72 4.72 0 0 0-.381-5.363 2.72 2.72 0 0 1-.393-2.465l1.056-3.217 3.389-1.148-.379 2.323a4.7 4.7 0 0 0 .855 3.579l.443.591c.602.818.699 1.904.25 2.816M50.1 57.089l2.74.911H37.166l2.73-.91A5.99 5.99 0 0 0 44 51.4V33.968a16 16 0 0 0 2 0V51.4a5.99 5.99 0 0 0 4.1 5.689m-3.068-25.163c-.011 0-.021-.006-.032-.006l-.058.012c-4.742.329-10.292-.374-13.42-3.932l-.008-.012A10.84 10.84 0 0 1 31 20.613q.005-1.711.185-3.415c3.2-.566 6.47-.636 9.691-.206a38.3 38.3 0 0 0 17.718-1.532c.263 1.705.398 3.428.406 5.153 0 4.004-1.615 10.559-11.968 11.313"/><path d="M51 19a3 3 0 1 0 0 6 3 3 0 0 0 0-6m0 4a1 1 0 1 1 0-2 1 1 0 0 1 0 2"/></g></g></svg>