<svg xmlns="http://www.w3.org/2000/svg" width="512" height="512" viewBox="0 0 60 60"><g fill="none"><path fill="#60a917" d="M28.156 9.54A5.86 5.86 0 0 1 29.8 1a5.854 5.854 0 0 1-1.644 8.54"/><path fill="#fec108" d="M23.83 18.5a9 9 0 0 0-.97-.44 4 4 0 0 1 .97.44"/><path fill="#ffdc00" d="M48 31v6.04c-3.885-.6-7.55 2.907-6.2 6.97a5.66 5.66 0 0 0 6.2 3.54v9.93A1.575 1.575 0 0 1 46.38 59H2.62A1.575 1.575 0 0 1 1 57.48V31z"/><path fill="#fec108" d="M48 37.04V31h-3v6.04c-3.885-.6-7.55 2.907-6.2 6.97a5.66 5.66 0 0 0 6.2 3.54v9.93A1.575 1.575 0 0 1 43.38 59h3A1.575 1.575 0 0 0 48 57.48v-9.93a5.66 5.66 0 0 1-6.2-3.54c-1.35-4.063 2.315-7.567 6.2-6.97"/><path fill="#9d27b0" d="M55.72 31.7a4.3 4.3 0 0 1-4.13-1.42A4.11 4.11 0 0 1 48 31.65V31c-12.947-6.657-6.775-3.512-22.04-11.41a3.97 3.97 0 0 1 3.28-3.88 3.99 3.99 0 0 1 3.96-4.82c-1.612-3.372 2.283-6.866 5.81-5.04a4.4 4.4 0 0 1 1.54 1.39 3.97 3.97 0 0 1 2.05-1.65c3.612-1.375 7.137 2.473 5.19 5.77 3.509-.441 5.994 3.273 4.17 6.11a4.05 4.05 0 0 1 3.43 6.33 1 1 0 0 0-.17-.01c.6.081 1.179.271 1.71.56a3.94 3.94 0 0 1-1.21 7.35"/><path fill="#6a1b9a" d="M56.93 24.35a5 5 0 0 0-1.71-.56 1 1 0 0 1 .17.01 4.05 4.05 0 0 0-3.43-6.33c1.824-2.837-.661-6.551-4.17-6.11 1.945-3.295-1.574-7.14-5.183-5.772a4.005 4.005 0 0 1 2.183 5.772c3.509-.441 5.994 3.273 4.17 6.11a4.05 4.05 0 0 1 3.43 6.33 1 1 0 0 0-.17-.01c.6.081 1.179.271 1.71.56a3.931 3.931 0 0 1-.555 7.168c.75.275 1.561.338 2.345.182a3.94 3.94 0 0 0 1.21-7.35"/><path fill="#783e22" d="M12 52a3 3 0 1 1-6-.004A3 3 0 0 1 12 52M31 49a3.995 3.995 0 1 1-5.5-3.7A4 4 0 0 1 31 49"/><path fill="sienna" d="M7.5 54.6a3 3 0 0 1 0-5.2 3 3 0 0 1 0 5.2M25.5 52.7a3.99 3.99 0 0 1 0-7.4 3.99 3.99 0 0 1 0 7.4"/><path fill="#f57c00" d="M11.5 40.84A7 7 0 0 1 6.68 31h12.64a7 7 0 0 1-7.82 9.84"/><path fill="#ff9801" d="M11.5 40.84A7 7 0 0 1 6.68 31h9.64a7 7 0 0 1-4.82 9.84"/><path fill="#ffeb3a" d="M48 31H1v-2.37c.273-1.839 2.189-4.9 5.49-6.92a21.5 21.5 0 0 1 6.37-2.61 39.4 39.4 0 0 1 9.97-1.05c.323 0 16.289 8.383 25.17 12.95"/><path fill="#fdd834" d="M22.83 18.05a18 18 0 0 0-2.917.028C21.193 18.6 36.409 26.583 45 31h3c-8.881-4.567-24.847-12.95-25.17-12.95"/><g fill="#ffeb3a"><path d="M19.12 18.13c-.53.04-1.04.09-1.54.14a31 31 0 0 1 1.54-.14M26.54 19.89l-1.26-.65c.327.16.982.497 1.26.65"/></g><g fill="#000" transform="translate(-1)"><path d="M57.814 23.178a4.97 4.97 0 0 0-3.443-6.478 5.043 5.043 0 0 0-4.165-6.287c1.069-4.892-5.09-8.073-8.682-4.689-3.6-3.211-9.326-.369-8.584 4.356-.833.208-1.6.624-2.228 1.208a9 9 0 0 0-.862-1.432A6.837 6.837 0 0 0 31.034.414 1 1 0 0 0 29.7.151a6.81 6.81 0 0 0-3.18 7.074 11.24 11.24 0 0 0-6.715-.532 1 1 0 0 0 .39 1.962c4.593-.915 8.082.907 9.186 4.75A4.8 4.8 0 0 0 29.146 15a5.03 5.03 0 0 0-2.934 3.082C24.14 17.009 24.2 17 23.88 17 3 17 1.083 28.011 1.011 28.479c-.019.131-.011-1.737-.011 29A2.575 2.575 0 0 0 3.621 60h43.758A2.575 2.575 0 0 0 50 57.481V47.55a1 1 0 0 0-1.173-.985c-2.16.37-4.28-.83-5.077-2.871a4.4 4.4 0 0 1 4.439-5.713c.641 0 1.006.2 1.454-.173a1 1 0 0 0 .357-.766v-4.39a5.1 5.1 0 0 0 2.579-1.008 5.26 5.26 0 0 0 7.642-1.182 4.97 4.97 0 0 0-2.407-7.284m-1.759-2.286c.145.63.069 1.29-.215 1.87a5.03 5.03 0 0 0-3.814 1.58 2.99 2.99 0 0 1-1.812-4.455 3.271 3.271 0 0 1 5.841 1.005m-14.5-8.459a3.46 3.46 0 0 1 3.05.937 4.85 4.85 0 0 0-.219 3.309 4.8 4.8 0 0 0-2.417 1.021 5.5 5.5 0 0 0-2.53-1.068 2.905 2.905 0 0 1 2.113-4.199zm-5.48 10.752a21 21 0 0 1-.255-.42 2.82 2.82 0 0 1 .515-3.229 5.4 5.4 0 0 0 1.579-.974 4.08 4.08 0 0 1 2.745.662 4.99 4.99 0 0 0-.422 3.785 5.04 5.04 0 0 0-2.554 1.008zm7.9 4.089-4.145-2.145a3.263 3.263 0 0 1 4.146 2.145zM45 24.979a5.2 5.2 0 0 0-2.543-1.761c-1.532-3.108 1.618-5.309 3.344-4.33.625.56 1.362.978 2.162 1.228a4.96 4.96 0 0 0 .037 2.73 5 5 0 0 0-3 2.133m7.343-8.48A5.13 5.13 0 0 0 48.9 18.3a3.46 3.46 0 0 1-2.619-2.242 3.005 3.005 0 0 1 1.46-3.342c2.623-1.435 5.72 1.184 4.606 3.784zM44.446 6.38a3.117 3.117 0 0 1 3.659 4.1 4.7 4.7 0 0 0-2.356 1.253 5.27 5.27 0 0 0-3.544-1.353 2.92 2.92 0 0 1 2.241-4m-4.082.984a4.8 4.8 0 0 0-.161 3.4c-.655.27-1.244.68-1.726 1.2a5.3 5.3 0 0 0-3.548-2.009c-.652-2.985 3.227-4.884 5.435-2.591m-6.748 4.587a3.26 3.26 0 0 1 3.694 2 4.85 4.85 0 0 0-.131 2.3 3.241 3.241 0 0 1-5.964-.759 2.953 2.953 0 0 1 2.401-3.541m-3.68-9.477a4.81 4.81 0 0 1-1.071 5.593 4.81 4.81 0 0 1 1.071-5.593m-.291 14.5a5.27 5.27 0 0 0 4.172 2.895 4.85 4.85 0 0 0-.272 2.01l-5.524-2.859a2.98 2.98 0 0 1 1.624-2.049zM23.638 19l21.254 11H3v-1.278c.171-.814 2.466-9.644 20.638-9.722M14 40a6 6 0 0 1-5.654-8h11.308A6 6 0 0 1 14 40m28.675-1.263A6.276 6.276 0 0 0 48 48.608v8.873a.577.577 0 0 1-.621.519H3.621A.577.577 0 0 1 3 57.481V32h3.262a7.994 7.994 0 1 0 15.476 0H48v3.984a6.77 6.77 0 0 0-5.325 2.753m7.262-8.086c-.18-.484-.37-.484-3.609-2.16A2.948 2.948 0 0 1 49 24.7a5.24 5.24 0 0 0 1.909 1.38 4.91 4.91 0 0 0 .362 4.048 3.05 3.05 0 0 1-1.334.523m3.417-1.017a2.93 2.93 0 0 1-.5-3.017 3.248 3.248 0 0 1 6.073.568c.698 3.031-3.434 4.965-5.573 2.449"/><path d="M10 48a4 4 0 1 0 0 8 4 4 0 0 0 0-8m0 6a2 2 0 1 1 0-4 2 2 0 0 1 0 4M28 44a5 5 0 1 0 0 10 5 5 0 0 0 0-10m0 8a3 3 0 1 1 0-6 3 3 0 0 1 0 6"/><circle cx="28" cy="40" r="1"/><circle cx="40" cy="52" r="1"/><circle cx="16" cy="46" r="1"/><circle cx="36" cy="37" r="1"/></g></g></svg>