<svg xmlns="http://www.w3.org/2000/svg" width="512" height="512" viewBox="0 0 60 60"><g fill="none"><path fill="#fec108" d="M3.26 24.42"/><path fill="#ffdc00" d="M41.8 44.01a5.66 5.66 0 0 0 6.2 3.54v9.93A1.575 1.575 0 0 1 46.38 59H2.62A1.575 1.575 0 0 1 1 57.48V31h39.97A30.3 30.3 0 0 0 48 35.83v1.21c-3.824-.588-7.563 2.867-6.2 6.97"/><path fill="#fec108" d="M45.11 37.36a5.8 5.8 0 0 1 2.89-.32v-1.21A30.5 30.5 0 0 1 40.97 31h-3A30.3 30.3 0 0 0 45 35.83v1.21c-3.885-.6-7.55 2.907-6.2 6.97a5.66 5.66 0 0 0 6.2 3.54v9.93A1.575 1.575 0 0 1 43.38 59h3A1.575 1.575 0 0 0 48 57.48v-9.93a6.06 6.06 0 0 1-2.9-.3 5.2 5.2 0 0 1 .01-9.89"/><path fill="#783e22" d="M12 52a3 3 0 1 1-6-.004A3 3 0 0 1 12 52M31 49a3.995 3.995 0 1 1-5.5-3.7A4 4 0 0 1 31 49"/><path fill="sienna" d="M7.5 54.6a3 3 0 0 1 0-5.2 3 3 0 0 1 0 5.2M25.5 52.7a3.99 3.99 0 0 1 0-7.4 3.99 3.99 0 0 1 0 7.4"/><path fill="#f57c00" d="M11.5 40.84A7 7 0 0 1 6.68 31h12.64a7 7 0 0 1-7.82 9.84"/><path fill="#ff9801" d="M11.5 40.84A7 7 0 0 1 6.68 31h9.64a7 7 0 0 1-4.82 9.84"/><path fill="#ffeb3a" d="M40.97 31H1v-2.37c.27-1.84 2.19-4.9 5.49-6.92 4.6-2.76 9.45-3.47 14.81-3.69a3.85 3.85 0 0 1 2.02.21c7.17 3.69 10.47 5.4 12.45 6.43a23.1 23.1 0 0 0 5.2 6.34"/><path fill="#fdd834" d="M35.77 24.66c-1.98-1.03-5.28-2.74-12.45-6.43-.627-.324-1.233-.263-3.364-.137.405.116 12.713 6.514 12.814 6.567a23.1 23.1 0 0 0 5.2 6.34h3a23.1 23.1 0 0 1-5.2-6.34M19.12 18.13c-.53.04-1.04.09-1.54.14a31 31 0 0 1 1.54-.14"/><path fill="#549414" d="M54.06 9.54A14.4 14.4 0 0 0 48 8.28a13.25 13.25 0 0 0-8.58 2.73 14.3 14.3 0 0 0-4.23 4.53c-.55.11-2.58.26-4.11-2.7a5.3 5.3 0 0 1 2.45-1.24A3.71 3.71 0 0 1 30.54 9s2.73-3.05 6.17-1.8l.03-.01a6.5 6.5 0 0 1-.16-2.79 5.2 5.2 0 0 1 3.45.31l.03-.08s-.38-1.22.9-3.63c2.43 1.23 2.82 2.45 2.82 2.45l.07.04a5.23 5.23 0 0 1 2.64-2.24 6.6 6.6 0 0 1 1.48 2.37l.03-.01c2.08-3.01 6.08-2.1 6.08-2.1a3.71 3.71 0 0 1-.94 3.85 5.4 5.4 0 0 1 2.72-.4c.46 3.3-1.29 4.35-1.8 4.58"/><path fill="#549414" d="M51.45 9.26v-.01l-.01.03c.01-.01.01-.01.01-.02"/><path fill="#f44335" d="M57.44 28.52a17.8 17.8 0 0 1-3.04 6.28c-1.45 1.67-3.8 2.26-6.4 1.03A30.4 30.4 0 0 1 40.97 31c-3.4-3.01-6.45-6.98-6.72-11.55-.15-3.544 2.309-6.342 5.17-8.44A13.25 13.25 0 0 1 48 8.28c3.569.068 7.123.925 9.08 3.91 2.95 4.73 2.05 11 .36 16.33"/><path fill="#c81e1e" d="M57.08 12.19c-2.209-3.369-6.758-4.17-10.752-3.837 3.1.253 6.03 1.21 7.752 3.837 2.95 4.73 2.05 11 .36 16.33-.953 2.991-2.321 6.822-5.273 7.735 4.765 1.314 6.773-3.024 8.273-7.735 1.69-5.33 2.59-11.6-.36-16.33"/><path fill="#60a917" d="M37.22 12.88a11.1 11.1 0 0 0-2.03 2.66c-.55.11-2.58.26-4.11-2.7 2.091-1.879 4.729-1.607 6.14.04"/><path fill="#24ae5f" d="M37.24 12.89c-.01 0-.01-.01-.02-.01"/><path fill="#60a917" d="M54.06 9.54a11.6 11.6 0 0 0-3.19-1.01c.2-2.139 2.135-3.877 4.99-3.57.46 3.3-1.29 4.35-1.8 4.58"/><path fill="#24ae5f" d="M50.87 8.53v.01c0 .01 0 .01-.01.02"/><path fill="#60a917" d="M48 8.13v.15a13.25 13.25 0 0 0-8.58 2.73 7.4 7.4 0 0 1-2.68-3.82 6.5 6.5 0 0 1-.16-2.79 5.2 5.2 0 0 1 3.45.31 6.65 6.65 0 0 1 3.25 3.59 6.74 6.74 0 0 1 .57-4.81 5.23 5.23 0 0 1 2.64-2.24A6.7 6.7 0 0 1 48 8.13"/><g fill="#000" transform="translate(-1 -1)"><path d="M10 49a4 4 0 1 0 0 8 4 4 0 0 0 0-8m0 6a2 2 0 1 1 0-4 2 2 0 0 1 0 4M28 45a5 5 0 1 0 0 10 5 5 0 0 0 0-10m0 8a3 3 0 1 1 0-6 3 3 0 0 1 0 6"/><circle cx="28" cy="41" r="1"/><circle cx="40" cy="53" r="1"/><circle cx="16" cy="47" r="1"/><circle cx="36" cy="38" r="1"/><path d="M58.926 12.654a8.1 8.1 0 0 0-2.134-2.227 5.55 5.55 0 0 0 1.056-4.6 1 1 0 0 0-.877-.855 6.5 6.5 0 0 0-.877-.04c.253-.9.229-1.855-.07-2.741a1 1 0 0 0-.724-.653 7.52 7.52 0 0 0-6.079 1.344 7.7 7.7 0 0 0-1.011-1.329 1 1 0 0 0-1.022-.253c-.895.311-1.7.84-2.342 1.537a8.8 8.8 0 0 0-2.439-1.73 1 1 0 0 0-1.335.425 8.9 8.9 0 0 0-1 2.817 5.74 5.74 0 0 0-2.8.1 1 1 0 0 0-.685.8q-.12.832-.058 1.669A7.53 7.53 0 0 0 30.8 9.332a1 1 0 0 0-.214.949c.268.895.8 1.69 1.526 2.278a7 7 0 0 0-.692.538 1 1 0 0 0-.223 1.205 5.55 5.55 0 0 0 3.519 3.145 9.28 9.28 0 0 0 .091 6.074C23.379 17.615 24.227 18 23.88 18 3 18 1.083 29.011 1.011 29.479c-.019.13-.011-1.737-.011 29A2.574 2.574 0 0 0 3.62 61h43.76A2.575 2.575 0 0 0 50 58.48v-9.93a1 1 0 0 0-.356-.765c-.446-.375-.8-.179-1.405-.175-4.083 0-5.893-4-3.942-6.7a4.82 4.82 0 0 1 4.551-1.877.957.957 0 0 0 1.109-.79 5.7 5.7 0 0 0 1.722.261c4.5 0 6.35-4.4 7.712-8.68 1.773-5.578 2.657-12.255-.465-17.17m-5.832-3.878a3.1 3.1 0 0 1 2.841-1.839A2.89 2.89 0 0 1 55 9.41a12 12 0 0 0-1.906-.634M54.257 3.4a2.73 2.73 0 0 1-.751 2.163 4.85 4.85 0 0 0-2.417 2.869c-.281-.032-.559-.066-.851-.086a7.7 7.7 0 0 0-.151-3.487 4.9 4.9 0 0 1 4.17-1.459m-7.035.065A5.67 5.67 0 0 1 48.2 8.3a13.7 13.7 0 0 0-2.994.37C44.723 5.422 46.3 4 47.222 3.467zM42.4 3.407c.5.302.942.694 1.3 1.156-.919 2.05.244 1.68-1.69.537a4.8 4.8 0 0 1 .39-1.693m.768 5.9a13.7 13.7 0 0 0-2.668 1.437 5.67 5.67 0 0 1-2-4.504c1.067-.103 3.189.132 4.671 3.069zm-6.2-.276a7.64 7.64 0 0 0 1.889 2.931c-.227.186-.434.374-.645.562a4.85 4.85 0 0 0-3.626-.944 2.73 2.73 0 0 1-1.865-1.331 4.9 4.9 0 0 1 4.25-1.216zM33.4 14.1a3.1 3.1 0 0 1 3.379-.14q-.663.76-1.19 1.62A2.9 2.9 0 0 1 33.4 14.1M23.638 20c29.117 15.054-4.3-2.136 12.434 6.436A23 23 0 0 0 39.507 31H3v-1.278c.171-.814 2.467-9.644 20.638-9.722M14 41a6 6 0 0 1-5.654-8h11.308A6 6 0 0 1 14 41m28.675-1.265c-2.806 3.89-.321 9.7 5.325 9.871v8.874a.584.584 0 0 1-.62.52H3.62a.584.584 0 0 1-.62-.52V33h3.262a7.994 7.994 0 1 0 15.476 0h19.868a37 37 0 0 0 5.566 4.056 6.72 6.72 0 0 0-4.497 2.679m14.809-10.522C54.753 37.8 51.892 38.387 45 33.184c-4.137-3.121-8.485-7.632-8.744-12.786-.142-2.82 1.691-5.532 5.447-8.059a13.4 13.4 0 0 1 9.855-1.844l.019.01q.045.008.092.009c2.623.438 4.492 1.511 5.571 3.212 2.767 4.362 1.811 10.562.244 15.487"/><path d="M52.607 32.192a1 1 0 1 0-1.907.608l.3.952a1 1 0 1 0 1.906-.6zM48.648 30.61l-1.256-.65a1 1 0 1 0-.919 1.776l1.256.65a1 1 0 0 0 .919-1.776M55.017 27.536a1 1 0 0 0-1.348.428l-.65 1.256a1 1 0 1 0 1.775.92l.65-1.256a1 1 0 0 0-.427-1.348M51.4 28.38l-.3-.953a1 1 0 1 0-1.906.606l.3.953a1 1 0 0 0 1.906-.606M46.18 26.148l-1.256-.648a1 1 0 1 0-.919 1.776c1.309.677 1.391.762 1.715.762a1 1 0 0 0 .46-1.89M52.456 24.152a1 1 0 0 0 1.777.919l.65-1.256a1 1 0 0 0-1.778-.919zM41.347 23.181a1 1 0 0 0-1.907.606l.3.953a1 1 0 1 0 1.906-.606zM56.594 18.331a1 1 0 0 0-1.907.607l.3.954a1 1 0 1 0 1.906-.608zM45.764 23.875a1 1 0 1 0 1.906-.607l-.3-.953a1 1 0 1 0-1.906.607zM49.272 21.71l.3.953a1 1 0 1 0 1.906-.607l-.3-.953a1 1 0 0 0-1.907.607zM43.6 20.366l-.3-.953a1 1 0 1 0-1.906.606l.3.953a1 1 0 0 0 1.906-.606M51.223 17.941a1 1 0 1 0 1.906-.606l-.3-.953a1 1 0 1 0-1.906.606zM46.155 18.5a1 1 0 1 0 1.906-.607l-.3-.953a1 1 0 1 0-1.906.607zM42.387 16.554a1 1 0 1 0 1.906-.606L43.99 15a1 1 0 0 0-1.907.606zM48.1 14.735a1 1 0 0 0 1.907-.606l-.3-.952a1 1 0 1 0-1.906.605z"/></g></g></svg>