<svg xmlns="http://www.w3.org/2000/svg" width="512" height="512" viewBox="0 0 60 55"><g fill="none"><path fill="#707070" d="m57.91 12.33-3.84-.34a.99.99 0 0 0-1.08 1.08l.35 3.83a1 1 0 0 1-1.71.8l-2.29-2.29a3 3 0 0 0-4.24 0C23.827 36.683 25.361 35.171 25.19 35.28c-.277-.514-.41-.59-2.21-2.39h-.01l-2.62-2.63 1.42-1.41a2 2 0 0 0 0-2.83 1.99 1.99 0 0 1 0-2.83L40.86 4.1a7.985 7.985 0 0 1 11.31 0l6.53 6.53a.994.994 0 0 1-.79 1.7"/><path fill="#9e9e9e" d="m55.91 10.05-3.84-.34a.99.99 0 0 0-1.08 1.08l.35 3.83a1 1 0 0 1-1.71.8l-2.29-2.29a3 3 0 0 0-4.24 0C21.827 34.4 23.361 32.891 23.19 33c-.02-.04-.09-.08-.21-.11h-.01l-2.62-2.63 1.42-1.41a2 2 0 0 0 0-2.83 1.99 1.99 0 0 1 0-2.83L40.86 4.1a7.985 7.985 0 0 1 11.31 0l4.82 4.82a.994.994 0 0 1-1.08 1.13"/><path fill="sienna" d="M24.73 38.75 12.74 51.7a6.784 6.784 0 1 1-9.59-9.59l12.96-11.98a3.006 3.006 0 0 1 4.18.07l2.68 2.69h.01l1.68 1.68a3 3 0 0 1 .07 4.18"/><path fill="#783e22" d="M25.19 35.28c-.277-.514-.41-.59-2.21-2.39h-.01c-2.625-2.635-3.014-3.256-4.2-3.51a3 3 0 0 0-2.106.347c.755.435 3.215 3.163 3.316 3.163l1.68 1.68a3 3 0 0 1 .07 4.18L9.74 51.7a6.74 6.74 0 0 1-3.427 1.969A6.76 6.76 0 0 0 12.74 51.7l11.99-12.95a3.01 3.01 0 0 0 .46-3.47"/><g fill="#000"><path d="M52.879 3.392a9.01 9.01 0 0 0-12.728 0L21.06 22.484a3 3 0 0 0 0 4.243 1 1 0 0 1 .293.707c0 .489-.194.607-1.08 1.493a3.97 3.97 0 0 0-4.84.47L2.469 41.384a7.785 7.785 0 1 0 11.01 11L25.454 39.43a3.97 3.97 0 0 0 .91-3.866L45.808 16.12a2 2 0 0 1 2.829 0l2.289 2.29a2 2 0 0 0 3.406-1.6l-.349-3.832 3.833.349a2 2 0 0 0 1.595-3.407zM23.991 38.066 12.016 51.019a5.74 5.74 0 0 1-4.123 1.822 5.8 5.8 0 0 1-4.061-9.994L16.8 30.86a1.99 1.99 0 0 1 2.784.044l4.373 4.373c.769.765.784 2.005.034 2.789M54.165 10.99a2 2 0 0 0-2.173 2.173L52.34 17l-2.289-2.289a4 4 0 0 0-5.657 0L25.3 33.8l-3.535-3.536.707-.707a3 3 0 0 0 0-4.243 1 1 0 0 1 0-1.414L41.565 4.806a7.01 7.01 0 0 1 9.9 0L58 11.338z"/><path d="m42.979 6.221-.707.707a1 1 0 0 0 1.415 1.414l.707-.707a1 1 0 0 0-1.415-1.414M39.444 9.756l-12.02 12.021a1 1 0 1 0 1.414 1.414l12.02-12.021a1 1 0 0 0-1.414-1.414"/></g></g></svg>