<svg xmlns="http://www.w3.org/2000/svg" width="512" height="512" viewBox="0 0 61 60"><g fill="none"><path fill="#9e9e9e" d="M58.49 22.08 47.47 33.09a11.134 11.134 0 0 1-13.62 1.66 3.41 3.41 0 0 0-4.2.43l-2.63 2.63-4.72-4.72 2.63-2.63a3.39 3.39 0 0 0 .43-4.2 11.144 11.144 0 0 1 1.66-13.62L38.03 1.63a2.227 2.227 0 0 1 3.15 0L58.5 18.94c.852.875.848 2.27-.01 3.14"/><path fill="#707070" d="m26.65 35.18-1.13 1.13 1.5 1.5c2.523-2.523 2.771-2.879 3.484-3.234a3.38 3.38 0 0 0-3.854.604M58.5 18.94 41.18 1.63a2.22 2.22 0 0 0-3.08-.061c.276.255 17.294 17.27 17.4 17.371.852.875.848 2.27-.01 3.14L44.47 33.09a11.08 11.08 0 0 1-6.384 3.153c3.45.477 6.923-.69 9.384-3.153l11.02-11.01c.858-.87.862-2.265.01-3.14"/><path fill="sienna" d="M27.36 42.64 14.31 56.8a7.594 7.594 0 0 1-10.9-.11 7.58 7.58 0 0 1-.1-10.89l14.16-13.05a3.4 3.4 0 0 1 4.68.19l5.02 5.02a3.377 3.377 0 0 1 .19 4.68"/><path fill="#783e22" d="m27.17 37.96-5.02-5.02a3.45 3.45 0 0 0-3.963-.679c.743.359.488.2 5.983 5.7a3.377 3.377 0 0 1 .19 4.68L11.31 56.8a7.1 7.1 0 0 1-3.787 2.1 7.26 7.26 0 0 0 6.787-2.1l13.05-14.16a3.377 3.377 0 0 0-.19-4.68"/><g fill="#000"><path d="M41.888.918a3.31 3.31 0 0 0-4.561 0L26.313 11.933a12.1 12.1 0 0 0-1.808 14.843c.614.934.499 2.17-.277 2.974l-1.981 1.981a4.3 4.3 0 0 0-5.451.286L2.624 45.067A8.13 8.13 0 0 0 .057 50.93c-.13 7.9 9.7 12.207 14.993 6.551l13.04-14.159a4.3 4.3 0 0 0 .29-5.457l1.981-1.981a2.39 2.39 0 0 1 2.975-.277A12.1 12.1 0 0 0 48.179 33.8l11.013-11.016a3.23 3.23 0 0 0 0-4.561zM26.624 41.961 13.584 56.12a6.16 6.16 0 0 1-4.44 1.939c-6.13.106-9.426-7.534-5.159-11.526l14.172-13.051a2.357 2.357 0 0 1 3.284.168l5.02 5.019a2.36 2.36 0 0 1 .163 3.292M57.778 21.37 46.765 32.384A10.1 10.1 0 0 1 34.37 33.9a4.42 4.42 0 0 0-5.423.575L27.019 36.4l-3.306-3.306 1.929-1.929a4.41 4.41 0 0 0 .574-5.423 10.1 10.1 0 0 1 1.512-12.394L38.741 2.333a1.26 1.26 0 0 1 1.733 0l17.305 17.3c.477.48.477 1.257-.001 1.737"/><path d="M40.314 5.639A1 1 0 1 0 38.9 7.053c.742.742.961 1.079 1.494 1.079a1 1 0 0 0 .706-1.707zM44.247 9.571a1 1 0 1 0-1.414 1.414l10.226 10.226a1 1 0 1 0 1.414-1.411z"/></g></g></svg>