<svg xmlns="http://www.w3.org/2000/svg" width="512" height="512" viewBox="0 0 61 56"><g fill="none"><path fill="sienna" d="M32.02 34.34 15.71 51.83c-3.16 3.33-7.94 4.05-11.26 1.91-4.394-2.8-4.629-9.372-.3-13.46l17.49-16.32a3.87 3.87 0 0 1 5.34-.23L32.25 29a3.843 3.843 0 0 1-.23 5.34"/><path fill="#783e22" d="m32.25 29-5.27-5.27a3.6 3.6 0 0 0-3.955-.653c.747.339.417.115 6.225 5.923a3.843 3.843 0 0 1-.23 5.34L12.71 51.83a9.95 9.95 0 0 1-5.492 2.99 9.53 9.53 0 0 0 8.492-2.99l16.31-17.49a3.843 3.843 0 0 0 .23-5.34"/><path fill="#9e9e9e" d="M59.08 1.08c-4.42 18.03-18.72 23.14-21.99 24.09-.934.264-.993.5-4.58 4.08l-5.78-5.78c.26-.246-.158.169 2.69-2.69a2.8 2.8 0 0 0 .71-2.71 11.49 11.49 0 0 1 9.61-14.06c19.481-2.948 16-2.419 19.34-2.93"/><path fill="#707070" d="M55.952 1.557C51.4 19.194 37.331 24.229 34.09 25.17c-.878.248-1.052.562-3.078 2.582l1.5 1.5c3.7-3.689 3.678-3.825 4.58-4.08 3.27-.95 17.57-6.06 21.99-24.09-2.898.441-2.206.335-3.13.475"/><g fill="#000"><path d="M58.933.093 39.588 3.018a12.494 12.494 0 0 0-10.426 15.3 1.8 1.8 0 0 1-.447 1.75l-2.16 2.16a4.97 4.97 0 0 0-5.594 1l-17.5 16.321A10.77 10.77 0 0 0 .029 47.14c-.12 8.586 10.225 11.912 16.408 5.376l16.313-17.49a4.97 4.97 0 0 0 1-5.6c3.015-3.015 3.019-3.127 3.617-3.3 2.984-.861 18.1-6.109 22.686-24.807a1 1 0 0 0-1.12-1.226M31.292 33.657 14.979 51.146a8.77 8.77 0 0 1-6.167 2.812c-6.673.09-9.223-7.993-3.982-12.951l17.5-16.322a2.88 2.88 0 0 1 3.946-.25l5.271 5.27a2.876 2.876 0 0 1-.255 3.952m5.52-9.45c-1.245.358-1.6.929-4.3 3.633l-4.367-4.368 1.986-1.987a3.83 3.83 0 0 0 .967-3.673 10.5 10.5 0 0 1 8.789-12.817L57.724 2.3a31.55 31.55 0 0 1-20.912 21.907"/><path d="M48.618 9.205c.11 0-.08.024 2.066-.3a1 1 0 0 0-.3-1.977l-1.915.289a1 1 0 0 0 .148 1.989zM34.475 16.856a1 1 0 1 0 1.933-.509 4.915 4.915 0 0 1 4.22-5.922l2.928-.443a1 1 0 0 0-.3-1.978l-2.927.443a6.907 6.907 0 0 0-5.854 8.409"/></g></g></svg>