<svg xmlns="http://www.w3.org/2000/svg" width="512" height="512" viewBox="0 0 44 60"><g fill="none"><g transform="translate(0 1)"><path fill="#f57c00" d="M38 58H6c-4.226 0-6.576-5.171-3.83-7.37A5.12 5.12 0 0 0 4 46.57V19.43a5.1 5.1 0 0 0-1.83-4.05A3 3 0 0 1 4 10h1V6h34v4h.83a3.006 3.006 0 0 1 2 5.37A5.12 5.12 0 0 0 40 19.43v27.14a5.1 5.1 0 0 0 1.83 4.05C44.459 52.656 42.407 58 38 58"/><path fill="#ff9801" d="M35 58H6c-4.226 0-6.576-5.171-3.83-7.37A5.12 5.12 0 0 0 4 46.57V19.43a5.1 5.1 0 0 0-1.83-4.05A3 3 0 0 1 4 10h1V6h31v4h.83a3.006 3.006 0 0 1 2 5.37A5.12 5.12 0 0 0 37 19.43v27.14a5.1 5.1 0 0 0 1.83 4.05C41.459 52.656 39.407 58 35 58"/><rect width="40" height="6" x="2" fill="#707070" rx="2"/><rect width="37" height="6" x="2" fill="#9e9e9e" rx="2"/><path fill="#dfc49c" d="M36 33c0 7.537-5.967 13.721-13.5 13.99-7.532.27-13.925-5.472-14.464-12.99s4.97-14.112 12.464-14.92A14 14 0 0 1 36 33"/><ellipse cx="20.5" cy="33" fill="#ffe0b2" rx="12.5" ry="13.92"/></g><g fill="#000"><path d="M42.444 50.831A4.11 4.11 0 0 1 41 47.57V20.43a4.13 4.13 0 0 1 1.469-3.29A4 4 0 0 0 40 10V8a3 3 0 0 0 3-3V3a3 3 0 0 0-3-3H4a3 3 0 0 0-3 3v2a3 3 0 0 0 3 3v2a4.008 4.008 0 0 0-2.444 7.169A4.11 4.11 0 0 1 3 20.43v27.14a4.13 4.13 0 0 1-1.469 3.29C-1.9 53.6.792 60 6 60h32c5.284 0 7.888-6.5 4.444-9.169M3 5V3a1 1 0 0 1 1-1h36a1 1 0 0 1 1 1v2a1 1 0 0 1-1 1H4a1 1 0 0 1-1-1m35 53H6c-3.386 0-5.1-4.067-3.216-5.581A6.13 6.13 0 0 0 5 47.57V20.43a6.12 6.12 0 0 0-2.218-4.841 2 2 0 0 1-.2-3C3.305 11.87 4.093 12 5 12a1 1 0 0 0 1-1V8h32v3a1 1 0 0 0 1 1h.83a2.009 2.009 0 0 1 1.386 3.581A6.13 6.13 0 0 0 39 20.43v27.14a6.12 6.12 0 0 0 2.218 4.841C43.1 53.873 41.428 58 38 58"/><path d="M10 12h24a1 1 0 0 0 0-2H10a1 1 0 0 0 0 2M22 49c8.284 0 15-6.716 15-15s-6.716-15-15-15S7 25.716 7 34c.01 8.28 6.72 14.99 15 15m0-28c7.18 0 13 5.82 13 13s-5.82 13-13 13S9 41.18 9 34c.008-7.176 5.824-12.992 13-13"/><path d="M29.778 41.778a1 1 0 0 0-1.414-1.414 9.01 9.01 0 0 1-12.728 0 1 1 0 0 0-1.414 1.414c4.298 4.289 11.258 4.289 15.556 0M15.636 27.636a9.01 9.01 0 0 1 12.728 0 1 1 0 1 0 1.414-1.414c-4.3-4.287-11.257-4.287-15.556 0a1 1 0 0 0 1.414 1.414M8 54H7a1 1 0 0 0 0 2h1a1 1 0 0 0 0-2M37 54H12a1 1 0 0 0 0 2h25a1 1 0 0 0 0-2"/></g></g></svg>