<svg xmlns="http://www.w3.org/2000/svg" width="512" height="512" viewBox="0 0 60 60"><g fill="none"><path fill="#fec108" d="M3.26 24.42"/><path fill="#ffdc00" d="M41.8 44.01a5.66 5.66 0 0 0 6.2 3.54v9.93A1.575 1.575 0 0 1 46.38 59H2.62A1.575 1.575 0 0 1 1 57.48V31h47v6.04c-3.824-.588-7.563 2.867-6.2 6.97"/><path fill="#fec108" d="M48 37.04V31h-3v6.04c-3.824-.588-7.563 2.867-6.2 6.97a5.66 5.66 0 0 0 6.2 3.54v9.93A1.575 1.575 0 0 1 43.38 59h3A1.575 1.575 0 0 0 48 57.48v-9.93a5.66 5.66 0 0 1-6.2-3.54c-1.363-4.103 2.376-7.558 6.2-6.97"/><path fill="#783e22" d="M12 52a3 3 0 1 1-6-.004A3 3 0 0 1 12 52M31 49a3.995 3.995 0 1 1-5.5-3.7A4 4 0 0 1 31 49"/><path fill="sienna" d="M7.5 54.6a3 3 0 0 1 0-5.2 3 3 0 0 1 0 5.2M25.5 52.7a3.99 3.99 0 0 1 0-7.4 3.99 3.99 0 0 1 0 7.4"/><path fill="#f57c00" d="M11.5 40.84A7 7 0 0 1 6.68 31h12.64a7 7 0 0 1-7.82 9.84"/><path fill="#ff9801" d="M11.5 40.84A7 7 0 0 1 6.68 31h9.64a7 7 0 0 1-4.82 9.84"/><path fill="#ffeb3a" d="M1 31v-2.37c.27-1.85 2.19-4.91 5.49-6.92 4.61-2.76 9.46-3.47 14.81-3.69a3.42 3.42 0 0 1 2.35.38c2.076 6.84 8.66 10.545 14.63 7.56.01 0 .01.01.02.01a.01.01 0 0 1-.01.01h-.01c-.09.04-.18.09-.27.12a9.45 9.45 0 0 0 9.74 4.77c.372.186 5.381.13-46.75.13"/><g fill="#fdd834"><path d="M20.65 18.4c1.616 5.323 6.291 9.368 11.814 8.466-4.212-.692-7.509-4.167-8.814-8.466-.847-.462-.917-.472-3.693-.307q.368.107.693.307M47.75 30.87a9.45 9.45 0 0 1-9.74-4.77c.09-.03.18-.08.27-.12h.01a.01.01 0 0 0 .01-.01 11.7 11.7 0 0 1-2.775.885 9.4 9.4 0 0 0 9.225 4.015c.368.184-.174.13 3.25.13-.09-.04-.17-.09-.25-.13M19.12 18.13c-.53.04-1.04.09-1.54.14a31 31 0 0 1 1.54-.14"/></g><path fill="#a4c400" d="M57.86 22.45C53.847 32.2 42.48 33.8 38.01 26.1c.09-.03.18-.08.27-.12h.01a.01.01 0 0 0 .01-.01c6.26-3.14 8.56-12.11 5.06-18.81a10.14 10.14 0 0 1 10.21-.46c4.93 2.69 6.86 9.49 4.29 15.75"/><path fill="#90ac00" d="M47.51 5.656c6.632.983 10.582 8.92 7.35 16.794-2.028 4.938-6 7.807-9.995 8.4 4.875.732 10.455-2.212 12.995-8.4 3.66-8.916-1.897-18.077-10.35-16.794"/><path fill="#9d27b0" d="M45 14c0 7.8-5.453 13-11 13-4.94 0-8.89-3.79-10.35-8.6-2.34-7.63 1.81-16.05 8.72-17.25.52-.1.26-.08 3.18.01C40.77 2.02 45 7.27 45 14"/><path fill="#6a1b9a" d="M35.55 1.16c-3.1-.092-2.627-.1-3.2-.006l.2.006C37.771 2.017 42 7.271 42 14c0 6.928-4.392 12.036-9.531 12.867C38.793 27.9 45 22.269 45 14c0-6.729-4.229-11.983-9.45-12.84"/><path fill="#6a1b9a" d="M38 3c0 1.1-1.79 2-4 2s-4-.9-4-2c0-1.2 1.94-1.846 3.19-1.96C35.068.823 38 1.475 38 3"/><path fill="#549414" d="M55.57 9.61c-.42 1.03-2.42 1.17-4.46.33-3.11-1.279-4.238-3.978-1.34-4.23a7.2 7.2 0 0 1 3.8.99c1.49.86 2.35 2.06 2 2.91"/><g fill="#000" transform="translate(-1)"><path d="M10 48a4 4 0 1 0 0 8 4 4 0 0 0 0-8m0 6a2 2 0 1 1 0-4 2 2 0 0 1 0 4M28 54a5 5 0 1 0 0-10 5 5 0 0 0 0 10m0-8a3 3 0 1 1 0 6 3 3 0 0 1 0-6"/><circle cx="28" cy="40" r="1"/><circle cx="40" cy="52" r="1"/><circle cx="16" cy="46" r="1"/><circle cx="36" cy="37" r="1"/><path d="M33.393 23.792a1 1 0 1 0 .5-1.935 6.92 6.92 0 0 1-4.464-4.919 1 1 0 1 0-1.914.58 8.9 8.9 0 0 0 5.878 6.274"/><path d="M44.748 5.826A11.49 11.49 0 0 0 35 0c-7.444 0-13.406 8.029-11.71 17.01-20.314.209-22.208 11.005-22.278 11.469-.021.13-.012-1.737-.012 29A2.575 2.575 0 0 0 3.621 60h43.758A2.575 2.575 0 0 0 50 57.481V47.55a1 1 0 0 0-.357-.766c-.442-.371-.8-.181-1.373-.174a4.565 4.565 0 0 1-4.519-2.916 4.4 4.4 0 0 1 4.438-5.713c.642 0 1.006.2 1.455-.173a1 1 0 0 0 .356-.766v-5.366c7.833-1.882 12.908-11.26 10.328-19.262a10.81 10.81 0 0 0-15.58-6.588M50.532 7a5.6 5.6 0 0 1 2.385.461c1.79.736 2.49 1.837 2.394 2.066-.014.032-.2.2-.77.246a5.54 5.54 0 0 1-2.386-.462c-1.79-.736-2.488-1.835-2.393-2.065.02-.052.25-.209.77-.246M35 2.271c1.936 0 3 .751 3 1s-1.064 1-3 1-3-.751-3-1 1.064-1 3-1m-4.95 1.316c.582 3.584 9.343 3.572 9.9-.012A12.6 12.6 0 0 1 45 14c0 6.527-4.372 12-10 12-5.427 0-10-5.294-10-12a12.58 12.58 0 0 1 5.05-10.413M23.637 19l.2.1c2.208 6.6 8.555 10.546 14.777 8.234A10.9 10.9 0 0 0 41.2 30H3v-1.278c.172-.814 2.466-9.644 20.637-9.722M14 40a6 6 0 0 1-5.654-8h11.308A6 6 0 0 1 14 40m34-8v3.984a6.77 6.77 0 0 0-5.325 2.753A6.278 6.278 0 0 0 48 48.608v8.873a.577.577 0 0 1-.621.519H3.621A.577.577 0 0 1 3 57.481V32h3.262a7.994 7.994 0 1 0 15.476 0zm9.936-9.93c-3.343 8.138-12.78 10.713-17.461 4.4 5.927-3.543 8.213-12.019 5.2-18.873a10.4 10.4 0 0 1 2.16-.786c-.828 3.662 7.739 6.948 9.285 3.542a12.54 12.54 0 0 1 .816 11.717"/></g></g></svg>